  0
SECTION
  2
HEADER
  9
$ACADVER
  1
AC1015
  9
$ACADMAINTVER
 70
     6
  9
$DWGCODEPAGE
  3
ANSI_1251
  9
$INSBASE
 10
0.0
 20
0.0
 30
0.0
  9
$EXTMIN
 10
0.0
 20
0.0
 30
0.0
  9
$EXTMAX
 10
500.0
 20
500.0
 30
0.0
  9
$LIMMIN
 10
0.0
 20
0.0
  9
$LIMMAX
 10
500.0
 20
500.0
  9
$ORTHOMODE
 70
     0
  9
$REGENMODE
 70
     1
  9
$FILLMODE
 70
     1
  9
$QTEXTMODE
 70
     0
  9
$MIRRTEXT
 70
     1
  9
$LTSCALE
 40
1.0
  9
$ATTMODE
 70
     1
  9
$TEXTSIZE
 40
3.5
  9
$TRACEWID
 40
1.0
  9
$TEXTSTYLE
  7
Standard
  9
$CLAYER
  8
0
  9
$CELTYPE
  6
ByLayer
  9
$CECOLOR
 62
   256
  9
$CELTSCALE
 40
1.0
  9
$DISPSILH
 70
     0
  9
$DIMSCALE
 40
1.0
  9
$DIMASZ
 40
3.5
  9
$DIMEXO
 40
0.01
  9
$DIMDLI
 40
3.75
  9
$DIMRND
 40
0.0
  9
$DIMDLE
 40
0.0
  9
$DIMEXE
 40
1.0
  9
$DIMTP
 40
0.0
  9
$DIMTM
 40
0.0
  9
$DIMTXT
 40
3.5
  9
$DIMCEN
 40
2.5
  9
$DIMTSZ
 40
0.0
  9
$DIMTOL
 70
     0
  9
$DIMLIM
 70
     0
  9
$DIMTIH
 70
     1
  9
$DIMTOH
 70
     1
  9
$DIMSE1
 70
     0
  9
$DIMSE2
 70
     0
  9
$DIMTAD
 70
     1
  9
$DIMZIN
 70
     0
  9
$DIMBLK
  1

  9
$DIMASO
 70
     1
  9
$DIMSHO
 70
     1
  9
$DIMPOST
  1

  9
$DIMAPOST
  1

  9
$DIMALT
 70
     0
  9
$DIMALTD
 70
     3
  9
$DIMALTF
 40
0.0393700787
  9
$DIMLFAC
 40
1.0
  9
$DIMTOFL
 70
     1
  9
$DIMTVP
 40
0.0
  9
$DIMTIX
 70
     0
  9
$DIMSOXD
 70
     0
  9
$DIMSAH
 70
     0
  9
$DIMBLK1
  1

  9
$DIMBLK2
  1

  9
$DIMSTYLE
  2
ISO-25
  9
$DIMCLRD
 70
     0
  9
$DIMCLRE
 70
     0
  9
$DIMCLRT
 70
     0
  9
$DIMTFAC
 40
1.0
  9
$DIMGAP
 40
3.0
  9
$DIMJUST
 70
     0
  9
$DIMSD1
 70
     0
  9
$DIMSD2
 70
     0
  9
$DIMTOLJ
 70
     0
  9
$DIMTZIN
 70
     0
  9
$DIMALTZ
 70
     0
  9
$DIMALTTZ
 70
     0
  9
$DIMUPT
 70
     0
  9
$DIMDEC
 70
     2
  9
$DIMTDEC
 70
     3
  9
$DIMALTU
 70
     2
  9
$DIMALTTD
 70
     3
  9
$DIMTXSTY
  7
Standard
  9
$DIMAUNIT
 70
     0
  9
$DIMADEC
 70
     2
  9
$DIMALTRND
 40
0.0
  9
$DIMAZIN
 70
     0
  9
$DIMDSEP
 70
    44
  9
$DIMATFIT
 70
     3
  9
$DIMFRAC
 70
     0
  9
$DIMLDRBLK
  1

  9
$DIMLUNIT
 70
     2
  9
$DIMLWD
 70
    -2
  9
$DIMLWE
 70
    -2
  9
$DIMTMOVE
 70
     0
  9
$LUNITS
 70
     2
  9
$LUPREC
 70
     2
  9
$SKETCHINC
 40
1.0
  9
$FILLETRAD
 40
10.0
  9
$AUNITS
 70
     0
  9
$AUPREC
 70
     2
  9
$MENU
  1
.
  9
$ELEVATION
 40
0.0
  9
$PELEVATION
 40
0.0
  9
$THICKNESS
 40
0.0
  9
$LIMCHECK
 70
     0
  9
$CHAMFERA
 40
0.0
  9
$CHAMFERB
 40
0.0
  9
$CHAMFERC
 40
0.0
  9
$CHAMFERD
 40
0.0
  9
$SKPOLY
 70
     0
  9
$TDCREATE
 40
2460241.699163773
  9
$TDUCREATE
 40
2460241.574163773
  9
$TDUPDATE
 40
2460241.699166343
  9
$TDUUPDATE
 40
2460241.574166343
  9
$TDINDWG
 40
0.0000000116
  9
$TDUSRTIMER
 40
0.0000000116
  9
$USRTIMER
 70
     1
  9
$ANGBASE
 50
0.0
  9
$ANGDIR
 70
     0
  9
$PDMODE
 70
     0
  9
$PDSIZE
 40
-1.0
  9
$PLINEWID
 40
0.0
  9
$SPLFRAME
 70
     0
  9
$SPLINETYPE
 70
     6
  9
$SPLINESEGS
 70
     8
  9
$HANDSEED
  5
196
  9
$SURFTAB1
 70
     6
  9
$SURFTAB2
 70
     6
  9
$SURFTYPE
 70
     6
  9
$SURFU
 70
     6
  9
$SURFV
 70
     6
  9
$UCSBASE
  2

  9
$UCSNAME
  2

  9
$UCSORG
 10
0.0
 20
0.0
 30
0.0
  9
$UCSXDIR
 10
1.0
 20
0.0
 30
0.0
  9
$UCSYDIR
 10
0.0
 20
1.0
 30
0.0
  9
$UCSORTHOREF
  2

  9
$UCSORTHOVIEW
 70
     0
  9
$UCSORGTOP
 10
0.0
 20
0.0
 30
0.0
  9
$UCSORGBOTTOM
 10
0.0
 20
0.0
 30
0.0
  9
$UCSORGLEFT
 10
0.0
 20
0.0
 30
0.0
  9
$UCSORGRIGHT
 10
0.0
 20
0.0
 30
0.0
  9
$UCSORGFRONT
 10
0.0
 20
0.0
 30
0.0
  9
$UCSORGBACK
 10
0.0
 20
0.0
 30
0.0
  9
$PUCSBASE
  2

  9
$PUCSNAME
  2

  9
$PUCSORG
 10
0.0
 20
0.0
 30
0.0
  9
$PUCSXDIR
 10
1.0
 20
0.0
 30
0.0
  9
$PUCSYDIR
 10
0.0
 20
1.0
 30
0.0
  9
$PUCSORTHOREF
  2

  9
$PUCSORTHOVIEW
 70
     0
  9
$PUCSORGTOP
 10
0.0
 20
0.0
 30
0.0
  9
$PUCSORGBOTTOM
 10
0.0
 20
0.0
 30
0.0
  9
$PUCSORGLEFT
 10
0.0
 20
0.0
 30
0.0
  9
$PUCSORGRIGHT
 10
0.0
 20
0.0
 30
0.0
  9
$PUCSORGFRONT
 10
0.0
 20
0.0
 30
0.0
  9
$PUCSORGBACK
 10
0.0
 20
0.0
 30
0.0
  9
$USERI1
 70
     0
  9
$USERI2
 70
     0
  9
$USERI3
 70
     0
  9
$USERI4
 70
     0
  9
$USERI5
 70
     0
  9
$USERR1
 40
0.0
  9
$USERR2
 40
0.0
  9
$USERR3
 40
0.0
  9
$USERR4
 40
0.0
  9
$USERR5
 40
0.0
  9
$WORLDVIEW
 70
     1
  9
$SHADEDGE
 70
     3
  9
$SHADEDIF
 70
    70
  9
$TILEMODE
 70
     1
  9
$MAXACTVP
 70
    64
  9
$PINSBASE
 10
0.0
 20
0.0
 30
0.0
  9
$PLIMCHECK
 70
     0
  9
$PEXTMIN
 10
1.0000000000E+20
 20
1.0000000000E+20
 30
1.0000000000E+20
  9
$PEXTMAX
 10
-1.0000000000E+20
 20
-1.0000000000E+20
 30
-1.0000000000E+20
  9
$PLIMMIN
 10
0.0
 20
0.0
  9
$PLIMMAX
 10
420.0
 20
297.0
  9
$UNITMODE
 70
     0
  9
$VISRETAIN
 70
     1
  9
$PLINEGEN
 70
     0
  9
$PSLTSCALE
 70
     1
  9
$TREEDEPTH
 70
  3020
  9
$CMLSTYLE
  2
Standard
  9
$CMLJUST
 70
     0
  9
$CMLSCALE
 40
20.0
  9
$PROXYGRAPHICS
 70
     1
  9
$MEASUREMENT
 70
     1
  9
$CELWEIGHT
370
    -1
  9
$ENDCAPS
280
     0
  9
$JOINSTYLE
280
     0
  9
$LWDISPLAY
290
     1
  9
$INSUNITS
 70
     4
  9
$HYPERLINKBASE
  1

  9
$STYLESHEET
  1

  9
$XEDIT
290
     1
  9
$CEPSNTYPE
380
     0
  9
$PSTYLEMODE
290
     1
  9
$FINGERPRINTGUID
  2
{7f7ed35f-a82a-414a-86ff-165d19388b6d}
  9
$VERSIONGUID
  2
{FAEB1C32-E019-11D5-929B-00C0DF256EC4}
  9
$EXTNAMES
290
     1
  9
$PSVPSCALE
 40
0.0
  9
$OLESTARTUP
290
     0
  0
ENDSEC
  0
SECTION
  2
CLASSES
  0
CLASS
  1
ACDBDICTIONARYWDFLT
  2
AcDbDictionaryWithDefault
  3
ObjectDBX Classes
 90
        0
280
     0
281
     0
  0
CLASS
  1
VISUALSTYLE
  2
AcDbVisualStyle
  3
ObjectDBX Classes
 90
     4095
280
     0
281
     0
  0
CLASS
  1
MATERIAL
  2
AcDbMaterial
  3
ObjectDBX Classes
 90
     1153
280
     0
281
     0
  0
CLASS
  1
SCALE
  2
AcDbScale
  3
ObjectDBX Classes
 90
     1153
280
     0
281
     0
  0
CLASS
  1
TABLESTYLE
  2
AcDbTableStyle
  3
ObjectDBX Classes
 90
     4095
280
     0
281
     0
  0
CLASS
  1
MLEADERSTYLE
  2
AcDbMLeaderStyle
  3
ACDB_MLEADERSTYLE_CLASS
 90
     4095
280
     0
281
     0
  0
CLASS
  1
SUN
  2
AcDbSun
  3
SCENEOE
 90
     1153
280
     0
281
     0
  0
CLASS
  1
ACDBPLACEHOLDER
  2
AcDbPlaceHolder
  3
ObjectDBX Classes
 90
        0
280
     0
281
     0
  0
CLASS
  1
LAYOUT
  2
AcDbLayout
  3
ObjectDBX Classes
 90
        0
280
     0
281
     0
  0
ENDSEC
  0
SECTION
  2
TABLES
  0
TABLE
  2
VPORT
  5
8
330
0
100
AcDbSymbolTable
 70
     1
  0
VPORT
  5
29
330
8
100
AcDbSymbolTableRecord
100
AcDbViewportTableRecord
  2
*Active
 70
     0
 10
0.0
 20
0.0
 11
1.0
 21
1.0
 12
250.0
 22
250.0
 13
0.0
 23
0.0
 14
10.0
 24
10.0
 15
10.0
 25
10.0
 16
0.0
 26
0.0
 36
1.0
 17
0.0
 27
0.0
 37
0.0
 40
500.0
 41
1.0
 42
50.0
 43
0.0
 44
0.0
 50
0.0
 51
0.0
 71
     0
 72
  2000
 73
     1
 74
     3
 75
     0
 76
     0
 77
     0
 78
     0
281
     0
 65
     1
110
0.0
120
0.0
130
0.0
111
1.0
121
0.0
131
0.0
112
0.0
122
1.0
132
0.0
 79
     0
146
0.0
  0
ENDTAB
  0
TABLE
  2
LTYPE
  5
5
330
0
100
AcDbSymbolTable
 70
     6
  0
LTYPE
  5
14
330
5
100
AcDbSymbolTableRecord
100
AcDbLinetypeTableRecord
  2
ByBlock
 70
     0
  3

 72
    65
 73
     0
 40
0.0
  0
LTYPE
  5
15
330
5
100
AcDbSymbolTableRecord
100
AcDbLinetypeTableRecord
  2
ByLayer
 70
     0
  3

 72
    65
 73
     0
 40
0.0
  0
LTYPE
  5
16
330
5
100
AcDbSymbolTableRecord
100
AcDbLinetypeTableRecord
  2
Continuous
 70
     0
  3
Solid line
 72
    65
 73
     0
 40
0.0
  0
LTYPE
  5
6E
330
5
100
AcDbSymbolTableRecord
100
AcDbLinetypeTableRecord
  2
HIDDEN
 70
     0
  3
Hidden __ __ __ __ __ __ __ __ __ __ __ __ __ __
 72
    65
 73
     2
 40
1.905
 49
1.27
 74
     0
 49
-0.635
 74
     0
  0
LTYPE
  5
6F
330
5
100
AcDbSymbolTableRecord
100
AcDbLinetypeTableRecord
  2
PHANTOM
 70
     0
  3
Phantom ______  __  __  ______  __  __  ______
 72
    65
 73
     6
 40
12.7
 49
6.35
 74
     0
 49
-1.27
 74
     0
 49
1.27
 74
     0
 49
-1.27
 74
     0
 49
1.27
 74
     0
 49
-1.27
 74
     0
  0
LTYPE
  5
70
330
5
100
AcDbSymbolTableRecord
100
AcDbLinetypeTableRecord
  2
CENTER
 70
     0
  3
Center ____ _ ____ _ ____ _ ____ _ ____ _ ____
 72
    65
 73
     4
 40
10.16
 49
6.35
 74
     0
 49
-1.27
 74
     0
 49
1.27
 74
     0
 49
-1.27
 74
     0
  0
LTYPE
  5
71
330
5
100
AcDbSymbolTableRecord
100
AcDbLinetypeTableRecord
  2
CENTERX2
 70
     0
  3
Center (2x) ________  __  ________  __  _____
 72
    65
 73
     4
 40
20.32
 49
12.7
 74
     0
 49
-2.54
 74
     0
 49
2.54
 74
     0
 49
-2.54
 74
     0
  0
LTYPE
  5
72
330
5
100
AcDbSymbolTableRecord
100
AcDbLinetypeTableRecord
  2
DOT2
 70
     0
  3
Dot (.5x) ........................................
 72
    65
 73
     2
 40
0.635
 49
0.0
 74
     0
 49
-0.635
 74
     0
  0
ENDTAB
  0
TABLE
  2
LAYER
  5
2
330
0
100
AcDbSymbolTable
 70
     4
  0
LAYER
  5
10
330
2
100
AcDbSymbolTableRecord
100
AcDbLayerTableRecord
  2
0
 70
     0
 62
     7
  6
Continuous
370
    -3
390
F
  0
LAYER
  5
73
330
2
100
AcDbSymbolTableRecord
100
AcDbLayerTableRecord
  2
◊≈–“≈∆
 70
     0
 62
     7
  6
Continuous
370
    -3
390
F
  0
LAYER
  5
74
330
2
100
AcDbSymbolTableRecord
100
AcDbLayerTableRecord
  2
Œ—ÕŒ¬Õ¿ﬂ_Õ¿ƒœ»—‹
 70
     0
 62
     7
  6
Continuous
370
    -3
390
F
  0
LAYER
  5
75
330
2
100
AcDbSymbolTableRecord
100
AcDbLayerTableRecord
  2
FORMAT
 70
     0
 62
     7
  6
Continuous
370
    -3
390
F
  0
ENDTAB
  0
TABLE
  2
STYLE
  5
3
330
0
100
AcDbSymbolTable
 70
     1
  0
STYLE
  5
11
330
3
100
AcDbSymbolTableRecord
100
AcDbTextStyleTableRecord
  2
Standard
 70
     0
 40
0.0
 41
1.0
 50
0.0
 71
     0
 42
3.5
  3
txt
  4

  0
ENDTAB
  0
TABLE
  2
VIEW
  5
6
330
0
100
AcDbSymbolTable
 70
     0
  0
ENDTAB
  0
TABLE
  2
UCS
  5
7
330
0
100
AcDbSymbolTable
 70
     0
  0
ENDTAB
  0
TABLE
  2
APPID
  5
9
330
0
100
AcDbSymbolTable
 70
     1
  0
APPID
  5
12
330
9
100
AcDbSymbolTableRecord
100
AcDbRegAppTableRecord
  2
ACAD
 70
     0
  0
ENDTAB
  0
TABLE
  2
DIMSTYLE
  5
A
330
0
100
AcDbSymbolTable
 70
     1
100
AcDbDimStyleTable
  0
DIMSTYLE
105
27
330
A
100
AcDbSymbolTableRecord
100
AcDbDimStyleTableRecord
  2
ISO-25
 70
     0
 41
2.5
 42
0.625
 43
3.75
 44
1.25
 73
     0
 74
     0
 77
     1
 78
     8
140
2.5
141
2.5
143
0.0393700787
147
0.625
171
     3
172
     1
178
     0
271
     2
272
     2
274
     3
278
    44
283
     0
284
     8
340
11
  0
ENDTAB
  0
TABLE
  2
BLOCK_RECORD
  5
1
330
0
100
AcDbSymbolTable
 70
     1
  0
BLOCK_RECORD
  5
1F
330
1
100
AcDbSymbolTableRecord
100
AcDbBlockTableRecord
  2
*Model_Space
340
22
  0
BLOCK_RECORD
  5
1B
330
1
100
AcDbSymbolTableRecord
100
AcDbBlockTableRecord
  2
*Paper_Space
340
1E
  0
BLOCK_RECORD
  5
23
330
1
100
AcDbSymbolTableRecord
100
AcDbBlockTableRecord
  2
*Paper_Space0
340
26
  0
ENDTAB
  0
ENDSEC
  0
SECTION
  2
BLOCKS
  0
BLOCK
  5
20
330
1F
100
AcDbEntity
  8
0
100
AcDbBlockBegin
  2
*Model_Space
 70
     0
 10
0.0
 20
0.0
 30
0.0
  3
*Model_Space
  1

  0
ENDBLK
  5
21
330
1F
100
AcDbEntity
  8
0
100
AcDbBlockEnd
  0
BLOCK
  5
1C
330
1B
100
AcDbEntity
 67
     1
  8
0
100
AcDbBlockBegin
  2
*Paper_Space
 70
     0
 10
0.0
 20
0.0
 30
0.0
  3
*Paper_Space
  1

  0
ENDBLK
  5
1D
330
1B
100
AcDbEntity
 67
     1
  8
0
100
AcDbBlockEnd
  0
BLOCK
  5
24
330
23
100
AcDbEntity
  8
0
100
AcDbBlockBegin
  2
*Paper_Space0
 70
     0
 10
0.0
 20
0.0
 30
0.0
  3
*Paper_Space0
  1

  0
ENDBLK
  5
25
330
23
100
AcDbEntity
  8
0
100
AcDbBlockEnd
  0
ENDSEC
  0
SECTION
  2
ENTITIES
  0
LINE
  5
76
330
1F
100
AcDbEntity
  8
0
  6
Continuous
 62
     7
370
    25
100
AcDbLine
 10
4.4652145738
 20
15.1481233142
 30
0.0
 11
8.4652145738
 21
15.1481233142
 31
0.0
  0
LINE
  5
77
330
1F
100
AcDbEntity
  8
0
  6
Continuous
 62
     7
370
    25
100
AcDbLine
 10
4.4652145738
 20
35.1481233142
 30
0.0
 11
8.4652145738
 21
35.1481233142
 31
0.0
  0
LINE
  5
78
330
1F
100
AcDbEntity
  8
0
  6
Continuous
 62
     7
370
    25
100
AcDbLine
 10
4.4652145738
 20
35.1481233142
 30
0.0
 11
4.4652145738
 21
15.1481233142
 31
0.0
  0
LINE
  5
79
330
1F
100
AcDbEntity
  8
0
  6
Continuous
 62
     7
370
    25
100
AcDbLine
 10
263.6652145738
 20
70.6481233142
 30
0.0
 11
263.6652145738
 21
75.0481233142
 31
0.0
  0
LINE
  5
7A
330
1F
100
AcDbEntity
  8
0
  6
Continuous
 62
     7
370
    25
100
AcDbLine
 10
233.2652145738
 20
75.0481233142
 30
0.0
 11
263.6652145738
 21
75.0481233142
 31
0.0
  0
LINE
  5
7B
330
1F
100
AcDbEntity
  8
0
  6
Continuous
 62
     7
370
    25
100
AcDbLine
 10
233.2652145738
 20
70.6481233142
 30
0.0
 11
233.2652145738
 21
75.0481233142
 31
0.0
  0
LINE
  5
7C
330
1F
100
AcDbEntity
  8
0
  6
Continuous
 62
     7
370
    25
100
AcDbLine
 10
233.2652145738
 20
70.6481233142
 30
0.0
 11
263.6652145738
 21
70.6481233142
 31
0.0
  0
LINE
  5
7D
330
1F
100
AcDbEntity
  8
0
  6
Continuous
 62
     7
370
    25
100
AcDbLine
 10
132.8652145738
 20
105.4481233142
 30
0.0
 11
132.8652145738
 21
125.8481233142
 31
0.0
  0
LINE
  5
7E
330
1F
100
AcDbEntity
  8
0
  6
Continuous
 62
     7
370
    25
100
AcDbLine
 10
128.4652145738
 20
125.8481233142
 30
0.0
 11
132.8652145738
 21
125.8481233142
 31
0.0
  0
LINE
  5
7F
330
1F
100
AcDbEntity
  8
0
  6
Continuous
 62
     7
370
    25
100
AcDbLine
 10
128.4652145738
 20
105.4481233142
 30
0.0
 11
128.4652145738
 21
125.8481233142
 31
0.0
  0
LINE
  5
80
330
1F
100
AcDbEntity
  8
0
  6
Continuous
 62
     7
370
    25
100
AcDbLine
 10
128.4652145738
 20
105.4481233142
 30
0.0
 11
132.8652145738
 21
105.4481233142
 31
0.0
  0
LINE
  5
81
330
1F
100
AcDbEntity
  8
0
  6
Continuous
 62
     7
370
    25
100
AcDbLine
 10
132.8652145738
 20
25.4481233142
 30
0.0
 11
132.8652145738
 21
45.8481233142
 31
0.0
  0
LINE
  5
82
330
1F
100
AcDbEntity
  8
0
  6
Continuous
 62
     7
370
    25
100
AcDbLine
 10
128.4652145738
 20
45.8481233142
 30
0.0
 11
132.8652145738
 21
45.8481233142
 31
0.0
  0
LINE
  5
83
330
1F
100
AcDbEntity
  8
0
  6
Continuous
 62
     7
370
    25
100
AcDbLine
 10
128.4652145738
 20
25.4481233142
 30
0.0
 11
128.4652145738
 21
45.8481233142
 31
0.0
  0
LINE
  5
84
330
1F
100
AcDbEntity
  8
0
  6
Continuous
 62
     7
370
    25
100
AcDbLine
 10
128.4652145738
 20
25.4481233142
 30
0.0
 11
132.8652145738
 21
25.4481233142
 31
0.0
  0
LINE
  5
85
330
1F
100
AcDbEntity
  8
0
  6
Continuous
 62
     7
370
    25
100
AcDbLine
 10
288.4652145738
 20
105.4481233142
 30
0.0
 11
288.4652145738
 21
125.8481233142
 31
0.0
  0
LINE
  5
86
330
1F
100
AcDbEntity
  8
0
  6
Continuous
 62
     7
370
    25
100
AcDbLine
 10
284.0652145738
 20
125.8481233142
 30
0.0
 11
288.4652145738
 21
125.8481233142
 31
0.0
  0
LINE
  5
87
330
1F
100
AcDbEntity
  8
0
  6
Continuous
 62
     7
370
    25
100
AcDbLine
 10
284.0652145738
 20
105.4481233142
 30
0.0
 11
284.0652145738
 21
125.8481233142
 31
0.0
  0
LINE
  5
88
330
1F
100
AcDbEntity
  8
0
  6
Continuous
 62
     7
370
    25
100
AcDbLine
 10
284.0652145738
 20
105.4481233142
 30
0.0
 11
288.4652145738
 21
105.4481233142
 31
0.0
  0
LINE
  5
89
330
1F
100
AcDbEntity
  8
0
  6
Continuous
 62
     7
370
    25
100
AcDbLine
 10
288.4652145738
 20
25.4481233142
 30
0.0
 11
288.4652145738
 21
45.8481233142
 31
0.0
  0
LINE
  5
8A
330
1F
100
AcDbEntity
  8
0
  6
Continuous
 62
     7
370
    25
100
AcDbLine
 10
284.0652145738
 20
45.8481233142
 30
0.0
 11
288.4652145738
 21
45.8481233142
 31
0.0
  0
LINE
  5
8B
330
1F
100
AcDbEntity
  8
0
  6
Continuous
 62
     7
370
    25
100
AcDbLine
 10
284.0652145738
 20
25.4481233142
 30
0.0
 11
284.0652145738
 21
45.8481233142
 31
0.0
  0
LINE
  5
8C
330
1F
100
AcDbEntity
  8
0
  6
Continuous
 62
     7
370
    25
100
AcDbLine
 10
284.0652145738
 20
25.4481233142
 30
0.0
 11
288.4652145738
 21
25.4481233142
 31
0.0
  0
LINE
  5
8D
330
1F
100
AcDbEntity
  8
0
  6
Continuous
 62
     7
370
    25
100
AcDbLine
 10
8.4652145738
 20
5.6481233142
 30
0.0
 11
408.4652145738
 21
5.6481233142
 31
0.0
  0
LINE
  5
8E
330
1F
100
AcDbEntity
  8
0
  6
Continuous
 62
     7
370
    25
100
AcDbLine
 10
8.4652145738
 20
5.6481233142
 30
0.0
 11
8.4652145738
 21
15.1481233142
 31
0.0
  0
LINE
  5
8F
330
1F
100
AcDbEntity
  8
0
  6
Continuous
 62
     7
370
    25
100
AcDbLine
 10
8.4652145738
 20
35.1481233142
 30
0.0
 11
8.4652145738
 21
95.1481233142
 31
0.0
  0
LINE
  5
90
330
1F
100
AcDbEntity
  8
0
  6
Continuous
 62
     7
370
    25
100
AcDbLine
 10
8.4652145738
 20
95.1481233142
 30
0.0
 11
4.4652145738
 21
95.1481233142
 31
0.0
  0
LINE
  5
91
330
1F
100
AcDbEntity
  8
0
  6
Continuous
 62
     7
370
    25
100
AcDbLine
 10
4.4652145738
 20
95.1481233142
 30
0.0
 11
4.4652145738
 21
115.1481233142
 31
0.0
  0
LINE
  5
92
330
1F
100
AcDbEntity
  8
0
  6
Continuous
 62
     7
370
    25
100
AcDbLine
 10
8.4652145738
 20
115.1481233142
 30
0.0
 11
4.4652145738
 21
115.1481233142
 31
0.0
  0
LINE
  5
93
330
1F
100
AcDbEntity
  8
0
  6
Continuous
 62
     7
370
    25
100
AcDbLine
 10
8.4652145738
 20
115.1481233142
 30
0.0
 11
8.4652145738
 21
139.6481233142
 31
0.0
  0
LINE
  5
94
330
1F
100
AcDbEntity
  8
0
  6
Continuous
 62
     7
370
    25
100
AcDbLine
 10
8.4652145738
 20
139.6481233142
 30
0.0
 11
408.4652145738
 21
139.6481233142
 31
0.0
  0
LINE
  5
95
330
1F
100
AcDbEntity
  8
0
  6
Continuous
 62
     7
370
    25
100
AcDbLine
 10
408.4652145738
 20
115.1481233142
 30
0.0
 11
408.4652145738
 21
139.6481233142
 31
0.0
  0
LINE
  5
96
330
1F
100
AcDbEntity
  8
0
  6
Continuous
 62
     7
370
    25
100
AcDbLine
 10
412.4652145738
 20
115.1481233142
 30
0.0
 11
408.4652145738
 21
115.1481233142
 31
0.0
  0
LINE
  5
97
330
1F
100
AcDbEntity
  8
0
  6
Continuous
 62
     7
370
    25
100
AcDbLine
 10
412.4652145738
 20
95.1481233142
 30
0.0
 11
412.4652145738
 21
115.1481233142
 31
0.0
  0
LINE
  5
98
330
1F
100
AcDbEntity
  8
0
  6
Continuous
 62
     7
370
    25
100
AcDbLine
 10
412.4652145738
 20
95.1481233142
 30
0.0
 11
408.4652145738
 21
95.1481233142
 31
0.0
  0
LINE
  5
99
330
1F
100
AcDbEntity
  8
0
  6
Continuous
 62
     7
370
    25
100
AcDbLine
 10
408.4652145738
 20
35.1481233142
 30
0.0
 11
408.4652145738
 21
95.1481233142
 31
0.0
  0
LINE
  5
9A
330
1F
100
AcDbEntity
  8
0
  6
Continuous
 62
     7
370
    25
100
AcDbLine
 10
412.4652145738
 20
35.1481233142
 30
0.0
 11
408.4652145738
 21
35.1481233142
 31
0.0
  0
LINE
  5
9B
330
1F
100
AcDbEntity
  8
0
  6
Continuous
 62
     7
370
    25
100
AcDbLine
 10
412.4652145738
 20
35.1481233142
 30
0.0
 11
412.4652145738
 21
15.1481233142
 31
0.0
  0
LINE
  5
9C
330
1F
100
AcDbEntity
  8
0
  6
Continuous
 62
     7
370
    25
100
AcDbLine
 10
412.4652145738
 20
15.1481233142
 30
0.0
 11
408.4652145738
 21
15.1481233142
 31
0.0
  0
LINE
  5
9D
330
1F
100
AcDbEntity
  8
0
  6
Continuous
 62
     7
370
    25
100
AcDbLine
 10
408.4652145738
 20
5.6481233142
 30
0.0
 11
408.4652145738
 21
15.1481233142
 31
0.0
  0
LINE
  5
9E
330
1F
100
AcDbEntity
  8
0
  6
Continuous
 62
     7
370
    25
100
AcDbLine
 10
183.6652145738
 20
70.6481233142
 30
0.0
 11
153.2652145738
 21
70.6481233142
 31
0.0
  0
LINE
  5
9F
330
1F
100
AcDbEntity
  8
0
  6
Continuous
 62
     7
370
    25
100
AcDbLine
 10
183.6652145738
 20
70.6481233142
 30
0.0
 11
183.6652145738
 21
75.0481233142
 31
0.0
  0
LINE
  5
A0
330
1F
100
AcDbEntity
  8
0
  6
Continuous
 62
     7
370
    25
100
AcDbLine
 10
183.6652145738
 20
75.0481233142
 30
0.0
 11
153.2652145738
 21
75.0481233142
 31
0.0
  0
LINE
  5
A1
330
1F
100
AcDbEntity
  8
0
  6
Continuous
 62
     7
370
    25
100
AcDbLine
 10
153.2652145738
 20
70.6481233142
 30
0.0
 11
153.2652145738
 21
75.0481233142
 31
0.0
  0
SPLINE
  5
A2
330
1F
100
AcDbEntity
  8
0
  6
Continuous
 62
     7
370
    25
100
AcDbSpline
210
0.0
220
0.0
230
1.0
 70
     8
 71
     3
 72
    15
 73
    11
 74
     0
 42
0.000000001
 43
0.00000001
 40
0.0
 40
0.0
 40
0.0
 40
0.0
 40
0.1842249635483134
 40
0.3514480159912845
 40
0.502201523138359
 40
0.6348912875649174
 40
0.7508166783253412
 40
0.8504914318948963
 40
0.9340645914925993
 40
1.0
 40
1.0
 40
1.0
 40
1.0
 10
464.6703178800871
 20
134.2197714203688
 30
0.0
 10
464.7905088297456
 20
134.1809984270526
 30
0.0
 10
465.0197984438351
 20
134.1070307556112
 30
0.0
 10
465.3502409733466
 20
134.0103608457831
 30
0.0
 10
465.6478622573859
 20
133.9275840400091
 30
0.0
 10
465.9121523798067
 20
133.8560542810131
 30
0.0
 10
466.1453134153635
 20
133.8041801470596
 30
0.0
 10
466.3467294869939
 20
133.766076873648
 30
0.0
 10
466.5156305840829
 20
133.7384041113167
 30
0.0
 10
466.6181575729167
 20
133.7351121230032
 30
0.0
 10
466.6633734356426
 20
133.7336603092577
 30
0.0
  0
LINE
  5
A3
330
1F
100
AcDbEntity
  8
0
  6
Continuous
 62
     7
370
    25
100
AcDbLine
 10
455.5939289912
 20
137.0982436426
 30
0.0
 11
464.6703178801
 21
134.2197714204
 31
0.0
  0
SPLINE
  5
A4
330
1F
100
AcDbEntity
  8
0
  6
Continuous
 62
     7
370
    25
100
AcDbSpline
210
0.0
220
0.0
230
1.0
 70
     8
 71
     3
 72
    23
 73
    19
 74
     0
 42
0.000000001
 43
0.00000001
 40
0.0
 40
0.0
 40
0.0
 40
0.0
 40
0.0670006867109877
 40
0.129885040387399
 40
0.1873992851379687
 40
0.2411899062626359
 40
0.2915173635637849
 40
0.337638971845569
 40
0.3807832869361164
 40
0.4215315393149687
 40
0.4647957665742025
 40
0.515492454108416
 40
0.5734016819251988
 40
0.6410181259709636
 40
0.7173309357653365
 40
0.8019370694536239
 40
0.8962079737946375
 40
0.9999999999999999
 40
0.9999999999999999
 40
0.9999999999999999
 40
0.9999999999999999
 10
452.6112901023093
 20
140.2579658648133
 30
0.0
 10
452.6148422221069
 20
140.1502677648281
 30
0.0
 10
452.62172822949
 20
139.9414882320665
 30
0.0
 10
452.6491905617094
 20
139.6412224232348
 30
0.0
 10
452.6905172857309
 20
139.3639676200174
 30
0.0
 10
452.7463920875079
 20
139.1100689058403
 30
0.0
 10
452.8123292840556
 20
138.8770897337389
 30
0.0
 10
452.9025549904993
 20
138.6711530751556
 30
0.0
 10
452.997226264486
 20
138.4844074913731
 30
0.0
 10
453.1166384015697
 20
138.3172071766279
 30
0.0
 10
453.2701262475623
 20
138.1634043509772
 30
0.0
 10
453.4615417303261
 20
138.0109140082852
 30
0.0
 10
453.7029294591423
 20
137.8615149475042
 30
0.0
 10
453.9908791640091
 20
137.7115879137833
 30
0.0
 10
454.3231965490605
 20
137.5542319275859
 30
0.0
 10
454.7051453097036
 20
137.4037616364699
 30
0.0
 10
455.1315526594873
 20
137.2461530197672
 30
0.0
 10
455.4349421159979
 20
137.1491018896018
 30
0.0
 10
455.5939289911981
 20
137.0982436425911
 30
0.0
  0
LINE
  5
A5
330
1F
100
AcDbEntity
  8
0
  6
Continuous
 62
     7
370
    25
100
AcDbLine
 10
452.1668456579
 20
140.4003269759
 30
0.0
 11
452.6112901023
 21
140.2579658648
 31
0.0
  0
LINE
  5
A6
330
1F
100
AcDbEntity
  8
0
  6
Continuous
 62
     7
370
    25
100
AcDbLine
 10
452.1668456579
 20
131.9558825315
 30
0.0
 11
452.1668456579
 21
140.4003269759
 31
0.0
  0
LINE
  5
A7
330
1F
100
AcDbEntity
  8
0
  6
Continuous
 62
     7
370
    25
100
AcDbLine
 10
452.6112901023
 20
131.8135214204
 30
0.0
 11
452.1668456579
 21
131.9558825315
 31
0.0
  0
SPLINE
  5
A8
330
1F
100
AcDbEntity
  8
0
  6
Continuous
 62
     7
370
    25
100
AcDbSpline
210
0.0
220
0.0
230
1.0
 70
     8
 71
     3
 72
    15
 73
    11
 74
     0
 42
0.000000001
 43
0.00000001
 40
0.0
 40
0.0
 40
0.0
 40
0.0
 40
0.0933173254454322
 40
0.1822025321143826
 40
0.276683689330482
 40
0.3818584592500722
 40
0.5035529998866114
 40
0.645922609880208
 40
0.8115253310631564
 40
1.0
 40
1.0
 40
1.0
 40
1.0
 10
453.5696234356426
 20
133.6537991981466
 30
0.0
 10
453.4979624725574
 20
133.6492466068985
 30
0.0
 10
453.3580440933547
 20
133.6403576503289
 30
0.0
 10
453.163965014351
 20
133.5451167662814
 30
0.0
 10
453.0010785925606
 20
133.3933772440675
 30
0.0
 10
452.8696414416613
 20
133.184002724258
 30
0.0
 10
452.7619730512955
 20
132.9224311728693
 30
0.0
 10
452.6863499727274
 20
132.6025123787314
 30
0.0
 10
452.6305362529149
 20
132.2273328855489
 30
0.0
 10
452.617975934209
 20
131.9572734854475
 30
0.0
 10
452.6112901023093
 20
131.8135214203688
 30
0.0
  0
SPLINE
  5
A9
330
1F
100
AcDbEntity
  8
0
  6
Continuous
 62
     7
370
    25
100
AcDbSpline
210
0.0
220
0.0
230
1.0
 70
     8
 71
     3
 72
    15
 73
    11
 74
     0
 42
0.000000001
 43
0.00000001
 40
0.0
 40
0.0
 40
0.0
 40
0.0
 40
0.183798327737079
 40
0.3513880312786185
 40
0.5027992251129582
 40
0.6360616714441993
 40
0.7520211440860332
 40
0.8513552714954077
 40
0.9335188531751213
 40
1.0
 40
1.0
 40
1.0
 40
1.0
 10
455.6008734356426
 20
133.1746325314799
 30
0.0
 10
455.4782927029626
 20
133.2120296390501
 30
0.0
 10
455.2439412653874
 20
133.2835259152481
 30
0.0
 10
454.906970218831
 20
133.3801800838975
 30
0.0
 10
454.6032759727914
 20
133.4654540476519
 30
0.0
 10
454.3311055588905
 20
133.5281741044153
 30
0.0
 10
454.0956474861142
 20
133.5895332149951
 30
0.0
 10
453.8904009506983
 20
133.619832233548
 30
0.0
 10
453.719741654736
 20
133.6495065933525
 30
0.0
 10
453.6160150254472
 20
133.6524726385724
 30
0.0
 10
453.5696234356426
 20
133.6537991981466
 30
0.0
  0
LINE
  5
AA
330
1F
100
AcDbEntity
  8
0
  6
Continuous
 62
     7
370
    25
100
AcDbLine
 10
467.277956769
 20
129.4558825315
 30
0.0
 11
455.6008734356
 21
133.1746325315
 31
0.0
  0
LINE
  5
AB
330
1F
100
AcDbEntity
  8
0
  6
Continuous
 62
     7
370
    25
100
AcDbLine
 10
467.277956769
 20
122.9385214204
 30
0.0
 11
467.277956769
 21
129.4558825315
 31
0.0
  0
LINE
  5
AC
330
1F
100
AcDbEntity
  8
0
  6
Continuous
 62
     7
370
    25
100
AcDbLine
 10
455.7953178801
 20
126.5774103093
 30
0.0
 11
467.277956769
 21
122.9385214204
 31
0.0
  0
SPLINE
  5
AD
330
1F
100
AcDbEntity
  8
0
  6
Continuous
 62
     7
370
    25
100
AcDbSpline
210
0.0
220
0.0
230
1.0
 70
     8
 71
     3
 72
    23
 73
    19
 74
     0
 42
0.000000001
 43
0.00000001
 40
0.0
 40
0.0
 40
0.0
 40
0.0
 40
0.0706264605378039
 40
0.1352327498069138
 40
0.1948470633867885
 40
0.2495635295303674
 40
0.2994145344606924
 40
0.3447962965015762
 40
0.3866451951843319
 40
0.4259768253524873
 40
0.4682779162856415
 40
0.5186538804608677
 40
0.5769735916522959
 40
0.644104620583211
 40
0.7196141489190281
 40
0.8042551913322237
 40
0.8974800955277911
 40
1.0
 40
1.0
 40
1.0
 40
1.0
 10
452.6112901023093
 20
129.816993642591
 30
0.0
 10
452.613847749352
 20
129.6977648933172
 30
0.0
 10
452.6187450306256
 20
129.4694704057051
 30
0.0
 10
452.640294943453
 20
129.14078760662
 30
0.0
 10
452.6875918708004
 20
128.8421333882884
 30
0.0
 10
452.7429506803951
 20
128.5701985579822
 30
0.0
 10
452.8227752306891
 20
128.3290726539092
 30
0.0
 10
452.9214150036404
 20
128.1194189151145
 30
0.0
 10
453.0302029999644
 20
127.9343716723844
 30
0.0
 10
453.1707241973871
 20
127.7787733047695
 30
0.0
 10
453.3416583816416
 20
127.6349200184714
 30
0.0
 10
453.5552440287303
 20
127.4948949525924
 30
0.0
 10
453.8138197054647
 20
127.3486543712918
 30
0.0
 10
454.1197405728095
 20
127.2013542715619
 30
0.0
 10
454.471714525884
 20
127.0481359124614
 30
0.0
 10
454.8707814876742
 20
126.8935902288371
 30
0.0
 10
455.3162602695214
 20
126.7330187731885
 30
0.0
 10
455.6306556243517
 20
126.6308962368732
 30
0.0
 10
455.7953178800871
 20
126.5774103092577
 30
0.0
  0
LINE
  5
AE
330
1F
100
AcDbEntity
  8
0
  6
Continuous
 62
     7
370
    25
100
AcDbLine
 10
452.1668456579
 20
129.9558825315
 30
0.0
 11
452.6112901023
 21
129.8169936426
 31
0.0
  0
LINE
  5
AF
330
1F
100
AcDbEntity
  8
0
  6
Continuous
 62
     7
370
    25
100
AcDbLine
 10
452.1668456579
 20
121.2892158648
 30
0.0
 11
452.1668456579
 21
129.9558825315
 31
0.0
  0
LINE
  5
B0
330
1F
100
AcDbEntity
  8
0
  6
Continuous
 62
     7
370
    25
100
AcDbLine
 10
452.6112901023
 20
121.1607436426
 30
0.0
 11
452.1668456579
 21
121.2892158648
 31
0.0
  0
SPLINE
  5
B1
330
1F
100
AcDbEntity
  8
0
  6
Continuous
 62
     7
370
    25
100
AcDbSpline
210
0.0
220
0.0
230
1.0
 70
     8
 71
     3
 72
    15
 73
    11
 74
     0
 42
0.000000001
 43
0.00000001
 40
0.0
 40
0.0
 40
0.0
 40
0.0
 40
0.0877929601665556
 40
0.1730324269126291
 40
0.2642157234068555
 40
0.3692405743968192
 40
0.4944067198304475
 40
0.6388523245679361
 40
0.8075072822048471
 40
1.0
 40
1.0
 40
1.0
 40
1.0
 10
453.6112901023093
 20
123.191993642591
 30
0.0
 10
453.5381522582264
 20
123.1868091661631
 30
0.0
 10
453.3940038135581
 20
123.1765910058814
 30
0.0
 10
453.1984244850923
 20
123.0678834691707
 30
0.0
 10
453.0289615051181
 20
122.905563809998
 30
0.0
 10
452.8962985258327
 20
122.6726257841835
 30
0.0
 10
452.7829952720007
 20
122.3840744896655
 30
0.0
 10
452.6994112890076
 20
122.0309085200708
 30
0.0
 10
452.6370073689441
 20
121.6175372710252
 30
0.0
 10
452.6202316221285
 20
121.3195641478946
 30
0.0
 10
452.6112901023093
 20
121.160743642591
 30
0.0
  0
SPLINE
  5
B2
330
1F
100
AcDbEntity
  8
0
  6
Continuous
 62
     7
370
    25
100
AcDbSpline
210
0.0
220
0.0
230
1.0
 70
     8
 71
     3
 72
    15
 73
    11
 74
     0
 42
0.000000001
 43
0.00000001
 40
0.0
 40
0.0
 40
0.0
 40
0.0
 40
0.1787744160648313
 40
0.3429681565411631
 40
0.4913398910678335
 40
0.6234472914862228
 40
0.7393934216922341
 40
0.8411646061608943
 40
0.927403383600261
 40
0.9999999999999999
 40
0.9999999999999999
 40
0.9999999999999999
 40
0.9999999999999999
 10
455.4272623245315
 20
122.7753269759244
 30
0.0
 10
455.3209490963775
 20
122.808309042115
 30
0.0
 10
455.1169934483689
 20
122.8715831877635
 30
0.0
 10
454.822142981677
 20
122.9531405700794
 30
0.0
 10
454.5554554762535
 20
123.0275480435193
 30
0.0
 10
454.3157682281249
 20
123.0864556731702
 30
0.0
 10
454.102952838854
 20
123.1333162477226
 30
0.0
 10
453.9160698868047
 20
123.1629607863708
 30
0.0
 10
453.7554091566243
 20
123.1871485641699
 30
0.0
 10
453.6564980045835
 20
123.1904738169662
 30
0.0
 10
453.6112901023093
 20
123.191993642591
 30
0.0
  0
LINE
  5
B3
330
1F
100
AcDbEntity
  8
0
  6
Continuous
 62
     7
370
    25
100
AcDbLine
 10
463.9619845468
 20
120.0531047537
 30
0.0
 11
455.4272623245
 21
122.7753269759
 31
0.0
  0
SPLINE
  5
B4
330
1F
100
AcDbEntity
  8
0
  6
Continuous
 62
     7
370
    25
100
AcDbSpline
210
0.0
220
0.0
230
1.0
 70
     8
 71
     3
 72
    23
 73
    19
 74
     0
 42
0.000000001
 43
0.00000001
 40
0.0
 40
0.0
 40
0.0
 40
0.0
 40
0.0728290619748312
 40
0.1399345612569436
 40
0.201861658981052
 40
0.2584398071359856
 40
0.31089720693421
 40
0.3597018378251752
 40
0.4060011706801105
 40
0.4511135096134929
 40
0.4988834049661315
 40
0.5519063995479845
 40
0.6111658912328415
 40
0.6765147803331064
 40
0.7479585629830406
 40
0.8254316838051853
 40
0.9094350177730139
 40
1.0
 40
1.0
 40
1.0
 40
1.0
 10
467.7224012134204
 20
116.5287991981466
 30
0.0
 10
467.7147208085676
 20
116.6666425479339
 30
0.0
 10
467.6999635941507
 20
116.9314962773605
 30
0.0
 10
467.6534505833069
 20
117.3117719400877
 30
0.0
 10
467.5774680287756
 20
117.655788571097
 30
0.0
 10
467.4776071759528
 20
117.964802249119
 30
0.0
 10
467.3516949619031
 20
118.2367689071134
 30
0.0
 10
467.2076351781277
 20
118.4776771946171
 30
0.0
 10
467.0310319271516
 20
118.6783130654203
 30
0.0
 10
466.8257452965684
 20
118.8455429570093
 30
0.0
 10
466.5899171667387
 20
118.9907334612509
 30
0.0
 10
466.3241068320101
 20
119.1369531955418
 30
0.0
 10
466.0223488491276
 20
119.2867323188682
 30
0.0
 10
465.6805014582385
 20
119.4325753709031
 30
0.0
 10
465.3070492548331
 20
119.5924024568103
 30
0.0
 10
464.8915234946655
 20
119.7420186983911
 30
0.0
 10
464.4404176970429
 20
119.8992286249259
 30
0.0
 10
464.1254090958792
 20
120.000543310267
 30
0.0
 10
463.9619845467537
 20
120.0531047537021
 30
0.0
  0
LINE
  5
B5
330
1F
100
AcDbEntity
  8
0
  6
Continuous
 62
     7
370
    25
100
AcDbLine
 10
468.1668456579
 20
116.4003269759
 30
0.0
 11
467.7224012134
 21
116.5287991981
 31
0.0
  0
LINE
  5
B6
330
1F
100
AcDbEntity
  8
0
  6
Continuous
 62
     7
370
    25
100
AcDbLine
 10
468.1668456579
 20
135.511438087
 30
0.0
 11
468.1668456579
 21
116.4003269759
 31
0.0
  0
LINE
  5
B7
330
1F
100
AcDbEntity
  8
0
  6
Continuous
 62
     7
370
    25
100
AcDbLine
 10
467.7224012134
 20
135.6537991981
 30
0.0
 11
468.1668456579
 21
135.511438087
 31
0.0
  0
SPLINE
  5
B8
330
1F
100
AcDbEntity
  8
0
  6
Continuous
 62
     7
370
    25
100
AcDbSpline
210
0.0
220
0.0
230
1.0
 70
     8
 71
     3
 72
    15
 73
    11
 74
     0
 42
0.000000001
 43
0.00000001
 40
0.0
 40
0.0
 40
0.0
 40
0.0
 40
0.1012978590977634
 40
0.1964568213220728
 40
0.293057509829287
 40
0.3975388858543916
 40
0.5174145137893873
 40
0.656102459258625
 40
0.8158614078544182
 40
0.9999999999999999
 40
0.9999999999999999
 40
0.9999999999999999
 40
0.9999999999999999
 10
466.6633734356426
 20
133.7336603092577
 30
0.0
 10
466.7465006195035
 20
133.7393477612467
 30
0.0
 10
466.9077172775082
 20
133.7503779917878
 30
0.0
 10
467.1321947643256
 20
133.8464349995837
 30
0.0
 10
467.322025984956
 20
134.0014116843649
 30
0.0
 10
467.4739626512323
 20
134.2191470439394
 30
0.0
 10
467.5849157726939
 20
134.4961996730197
 30
0.0
 10
467.6670688814563
 20
134.8291129303236
 30
0.0
 10
467.7131569990082
 20
135.2219849236774
 30
0.0
 10
467.7191775389001
 20
135.5032154262854
 30
0.0
 10
467.7224012134204
 20
135.6537991981466
 30
0.0
  0
SPLINE
  5
B9
330
1F
100
AcDbEntity
  8
0
  6
Continuous
 62
     7
370
    25
100
AcDbSpline
210
0.0
220
0.0
230
1.0
 70
     8
 71
     3
 72
    15
 73
    11
 74
     0
 42
0.000000001
 43
0.00000001
 40
0.0
 40
0.0
 40
0.0
 40
0.0
 40
0.2044241099631376
 40
0.3874709647943009
 40
0.546492337079509
 40
0.6839018099656052
 40
0.7950121458173135
 40
0.8871619170848122
 40
0.9550507476207414
 40
1.0
 40
1.0
 40
1.0
 40
1.0
 10
452.6112901023093
 20
23.59129919814659
 30
0.0
 10
452.6181346119877
 20
23.50332988199771
 30
0.0
 10
452.6311078800094
 20
23.3365904704545
 30
0.0
 10
452.6509246240569
 20
23.1015163659351
 30
0.0
 10
452.6739941553422
 20
22.8958433978749
 30
0.0
 10
452.6876601095407
 20
22.72038357238246
 30
0.0
 10
452.7107833108331
 20
22.57503164115879
 30
0.0
 10
452.7288050398844
 20
22.4595730977728
 30
0.0
 10
452.7382884101718
 20
22.37111073287368
 30
0.0
 10
452.7542409393155
 20
22.32496086030067
 30
0.0
 10
452.7605956578648
 20
22.30657697592439
 30
0.0
  0
LINE
  5
BA
330
1F
100
AcDbEntity
  8
0
  6
Continuous
 62
     7
370
    25
100
AcDbLine
 10
452.1668456579
 20
23.7336603093
 30
0.0
 11
452.6112901023
 21
23.5912991981
 31
0.0
  0
LINE
  5
BB
330
1F
100
AcDbEntity
  8
0
  6
Continuous
 62
     7
370
    25
100
AcDbLine
 10
452.1668456579
 20
16.0808825315
 30
0.0
 11
452.1668456579
 21
23.7336603093
 31
0.0
  0
LINE
  5
BC
330
1F
100
AcDbEntity
  8
0
  6
Continuous
 62
     7
370
    25
100
AcDbLine
 10
452.6112901023
 20
15.948938087
 30
0.0
 11
452.1668456579
 21
16.0808825315
 31
0.0
  0
SPLINE
  5
BD
330
1F
100
AcDbEntity
  8
0
  6
Continuous
 62
     7
370
    25
100
AcDbSpline
210
0.0
220
0.0
230
1.0
 70
     8
 71
     3
 72
    15
 73
    11
 74
     0
 42
0.000000001
 43
0.00000001
 40
0.0
 40
0.0
 40
0.0
 40
0.0
 40
0.1456951487158694
 40
0.2731925815646226
 40
0.3855715335941158
 40
0.4884336777146277
 40
0.5932162742216122
 40
0.7104690925402856
 40
0.845197124557458
 40
1.0
 40
1.0
 40
1.0
 40
1.0
 10
454.1807345467537
 20
17.51143808703548
 30
0.0
 10
454.0578139198277
 20
17.50664069402705
 30
0.0
 10
453.8273257828276
 20
17.49764511529778
 30
0.0
 10
453.5055303551159
 20
17.43575594244853
 30
0.0
 10
453.2386727332891
 20
17.31919603531776
 30
0.0
 10
453.0169206994666
 20
17.15918606198349
 30
0.0
 10
452.8536738403637
 20
16.9341301775893
 30
0.0
 10
452.7342622640834
 20
16.65636064978318
 30
0.0
 10
452.6472814669259
 20
16.32265898458021
 30
0.0
 10
452.6238292495633
 20
16.07913991228274
 30
0.0
 10
452.6112901023093
 20
15.94893808703549
 30
0.0
  0
SPLINE
  5
BE
330
1F
100
AcDbEntity
  8
0
  6
Continuous
 62
     7
370
    25
100
AcDbSpline
210
0.0
220
0.0
230
1.0
 70
     8
 71
     3
 72
    11
 73
     7
 74
     0
 42
0.000000001
 43
0.00000001
 40
0.0
 40
0.0
 40
0.0
 40
0.0
 40
0.3739328376060571
 40
0.6657621424523978
 40
0.8725243425094795
 40
1.0
 40
1.0
 40
1.0
 40
1.0
 10
455.4064289911981
 20
17.48366030925771
 30
0.0
 10
455.253638139894
 20
17.48657792889755
 30
0.0
 10
454.9816043566013
 20
17.49177255345818
 30
0.0
 10
454.6252494295732
 20
17.50549258574233
 30
0.0
 10
454.369369978372
 20
17.50677294759498
 30
0.0
 10
454.2328153823549
 20
17.51015007683415
 30
0.0
 10
454.1807345467537
 20
17.51143808703548
 30
0.0
  0
LINE
  5
BF
330
1F
100
AcDbEntity
  8
0
  6
Continuous
 62
     7
370
    25
100
AcDbLine
 10
459.4668220168
 20
17.3533454756
 30
0.0
 11
455.4064289912
 21
17.4836603093
 31
0.0
  0
LINE
  5
C0
330
1F
100
AcDbEntity
  8
0
  6
Continuous
 62
     7
370
    25
100
AcDbLine
 10
459.4668220168
 20
17.3533454756
 30
0.0
 11
459.4668220168
 21
21.0103960324
 31
0.0
  0
LINE
  5
C1
330
1F
100
AcDbEntity
  8
0
  6
Continuous
 62
     7
370
    25
100
AcDbLine
 10
458.1668456579
 20
21.0669936426
 30
0.0
 11
459.4668220168
 21
21.0103960324
 31
0.0
  0
LINE
  5
C2
330
1F
100
AcDbEntity
  8
0
  6
Continuous
 62
     7
370
    25
100
AcDbLine
 10
458.1668456579
 20
25.6190769759
 30
0.0
 11
458.1668456579
 21
21.0669936426
 31
0.0
  0
LINE
  5
C3
330
1F
100
AcDbEntity
  8
0
  6
Continuous
 62
     7
370
    25
100
AcDbLine
 10
459.9036215557
 20
23.9945416973
 30
0.0
 11
458.1668456579
 21
25.6190769759
 31
0.0
  0
LINE
  5
C4
330
1F
100
AcDbEntity
  8
0
  6
Continuous
 62
     7
370
    25
100
AcDbLine
 10
459.9036215557
 20
23.9945416973
 30
0.0
 11
460.5798583752
 21
24.7264686079
 31
0.0
  0
LINE
  5
C5
330
1F
100
AcDbEntity
  8
0
  6
Continuous
 62
     7
370
    25
100
AcDbLine
 10
454.9724012134
 20
29.9072714204
 30
0.0
 11
460.5798583752
 21
24.7264686079
 31
0.0
  0
SPLINE
  5
C6
330
1F
100
AcDbEntity
  8
0
  6
Continuous
 62
     7
370
    25
100
AcDbSpline
210
0.0
220
0.0
230
1.0
 70
     8
 71
     3
 72
    15
 73
    11
 74
     0
 42
0.000000001
 43
0.00000001
 40
0.0
 40
0.0
 40
0.0
 40
0.0
 40
0.0818405960221097
 40
0.1751476106792212
 40
0.2820490444989326
 40
0.3999826549470624
 40
0.5307234889529149
 40
0.6744338945204067
 40
0.8311403289311411
 40
0.9999999999999999
 40
0.9999999999999999
 40
0.9999999999999999
 40
0.9999999999999999
 10
453.0522623245315
 20
31.98713253147992
 30
0.0
 10
453.0954095465213
 20
31.92286785488024
 30
0.0
 10
453.1877492068643
 20
31.78533458771696
 30
0.0
 10
453.3549076609584
 20
31.5772945566245
 30
0.0
 10
453.5474835395066
 20
31.34632787872127
 30
0.0
 10
453.7699944865597
 20
31.09413810487935
 30
0.0
 10
454.0301872499771
 20
30.82963842511874
 30
0.0
 10
454.3121118334143
 20
30.53516741267392
 30
0.0
 10
454.6334365934875
 20
30.22911239915538
 30
0.0
 10
454.8566356992811
 20
30.01718875152776
 30
0.0
 10
454.9724012134204
 20
29.90727142036884
 30
0.0
  0
SPLINE
  5
C7
330
1F
100
AcDbEntity
  8
0
  6
Continuous
 62
     7
370
    25
100
AcDbSpline
210
0.0
220
0.0
230
1.0
 70
     8
 71
     3
 72
    11
 73
     7
 74
     0
 42
0.000000001
 43
0.00000001
 40
0.0
 40
0.0
 40
0.0
 40
0.0
 40
0.2617316993712581
 40
0.5138716038590384
 40
0.758314562872575
 40
1.0
 40
1.0
 40
1.0
 40
1.0
 10
452.6112901023093
 20
33.22671586481327
 30
0.0
 10
452.6307176304218
 20
33.11269882343254
 30
0.0
 10
452.6688607176146
 20
32.88884317254148
 30
0.0
 10
452.7688899044791
 20
32.56858943122795
 30
0.0
 10
452.8926821875709
 20
32.26634437605239
 30
0.0
 10
452.9992704832182
 20
32.07985052284268
 30
0.0
 10
453.0522623245315
 20
31.98713253147994
 30
0.0
  0
LINE
  5
C8
330
1F
100
AcDbEntity
  8
0
  6
Continuous
 62
     7
370
    25
100
AcDbLine
 10
452.1668456579
 20
33.355188087
 30
0.0
 11
452.6112901023
 21
33.2267158648
 31
0.0
  0
LINE
  5
C9
330
1F
100
AcDbEntity
  8
0
  6
Continuous
 62
     7
370
    25
100
AcDbLine
 10
452.1668456579
 20
28.0843547537
 30
0.0
 11
452.1668456579
 21
33.355188087
 31
0.0
  0
LINE
  5
CA
330
1F
100
AcDbEntity
  8
0
  6
Continuous
 62
     7
370
    25
100
AcDbLine
 10
452.6112901023
 20
28.0843547537
 30
0.0
 11
452.1668456579
 21
28.0843547537
 31
0.0
  0
SPLINE
  5
CB
330
1F
100
AcDbEntity
  8
0
  6
Continuous
 62
     7
370
    25
100
AcDbSpline
210
0.0
220
0.0
230
1.0
 70
     8
 71
     3
 72
    15
 73
    11
 74
     0
 42
0.000000001
 43
0.00000001
 40
0.0
 40
0.0
 40
0.0
 40
0.0
 40
0.079220694878756
 40
0.1615753453191485
 40
0.2536506436431225
 40
0.3592338393605633
 40
0.4819401301633207
 40
0.6281156326377559
 40
0.7994460522281508
 40
1.0
 40
1.0
 40
1.0
 40
1.0
 10
453.4029567689759
 20
29.50102142036881
 30
0.0
 10
453.3558963540125
 20
29.49701499673388
 30
0.0
 10
453.2599138230563
 20
29.48884365611004
 30
0.0
 10
453.1242044978476
 20
29.41845724090506
 30
0.0
 10
452.9939653728482
 20
29.31579087748715
 30
0.0
 10
452.8703762249373
 20
29.17032102789149
 30
0.0
 10
452.7653440291219
 20
28.97372456251016
 30
0.0
 10
452.6892734372767
 20
28.72385559913718
 30
0.0
 10
452.6342019780213
 20
28.42209175294452
 30
0.0
 10
452.6193172853322
 20
28.20268101998433
 30
0.0
 10
452.6112901023093
 20
28.08435475370213
 30
0.0
  0
SPLINE
  5
CC
330
1F
100
AcDbEntity
  8
0
  6
Continuous
 62
     7
370
    25
100
AcDbSpline
210
0.0
220
0.0
230
1.0
 70
     8
 71
     3
 72
     9
 73
     5
 74
     0
 42
0.000000001
 43
0.00000001
 40
0.0
 40
0.0
 40
0.0
 40
0.0
 40
0.5138241254287558
 40
1.0
 40
1.0
 40
1.0
 40
1.0
 10
453.9376789911981
 20
29.37254919814661
 30
0.0
 10
453.8498606950345
 20
29.41045410162666
 30
0.0
 10
453.6789494983474
 20
29.48422429186135
 30
0.0
 10
453.4932428575024
 20
29.49552653999685
 30
0.0
 10
453.4029567689759
 20
29.50102142036878
 30
0.0
  0
SPLINE
  5
CD
330
1F
100
AcDbEntity
  8
0
  6
Continuous
 62
     7
370
    25
100
AcDbSpline
210
0.0
220
0.0
230
1.0
 70
     8
 71
     3
 72
    11
 73
     7
 74
     0
 42
0.000000001
 43
0.00000001
 40
0.0
 40
0.0
 40
0.0
 40
0.0
 40
0.2831997503629741
 40
0.54713275390883
 40
0.7823253123651238
 40
1.0
 40
1.0
 40
1.0
 40
1.0
 10
454.715456768976
 20
28.84477142036879
 30
0.0
 10
454.6465396942898
 20
28.90100250246105
 30
0.0
 10
454.5133941360186
 20
29.00963913353505
 30
0.0
 10
454.3145704616223
 20
29.15415893373477
 30
0.0
 10
454.1245329481812
 20
29.27529173955201
 30
0.0
 10
453.9983364604389
 20
29.34097699385196
 30
0.0
 10
453.9376789911981
 20
29.37254919814661
 30
0.0
  0
LINE
  5
CE
330
1F
100
AcDbEntity
  8
0
  6
Continuous
 62
     7
370
    25
100
AcDbLine
 10
455.9862901023
 20
27.6572714204
 30
0.0
 11
454.715456769
 21
28.8447714204
 31
0.0
  0
LINE
  5
CF
330
1F
100
AcDbEntity
  8
0
  6
Continuous
 62
     7
370
    25
100
AcDbLine
 10
457.277956769
 20
26.448938087
 30
0.0
 11
455.9862901023
 21
27.6572714204
 31
0.0
  0
LINE
  5
D0
330
1F
100
AcDbEntity
  8
0
  6
Continuous
 62
     7
370
    25
100
AcDbLine
 10
457.277956769
 20
21.0669936426
 30
0.0
 11
457.277956769
 21
26.448938087
 31
0.0
  0
LINE
  5
D1
330
1F
100
AcDbEntity
  8
0
  6
Continuous
 62
     7
370
    25
100
AcDbLine
 10
455.0557345468
 20
21.2892158648
 30
0.0
 11
457.277956769
 21
21.0669936426
 31
0.0
  0
SPLINE
  5
D2
330
1F
100
AcDbEntity
  8
0
  6
Continuous
 62
     7
370
    25
100
AcDbSpline
210
0.0
220
0.0
230
1.0
 70
     8
 71
     3
 72
    15
 73
    11
 74
     0
 42
0.000000001
 43
0.00000001
 40
0.0
 40
0.0
 40
0.0
 40
0.0
 40
0.0765291134889841
 40
0.1587159474145292
 40
0.249055988578915
 40
0.3501341414639746
 40
0.4690131598993589
 40
0.6155454161408666
 40
0.7913575545342253
 40
1.0
 40
1.0
 40
1.0
 40
1.0
 10
452.7605956578648
 20
22.30657697592439
 30
0.0
 10
452.7906289358623
 20
22.24602754831112
 30
0.0
 10
452.8529158219115
 20
22.1204523347627
 30
0.0
 10
452.998727720115
 20
21.95421116192467
 30
0.0
 10
453.1781469488661
 20
21.79376266751304
 30
0.0
 10
453.4011667351642
 20
21.63395794076223
 30
0.0
 10
453.6974547282245
 20
21.50203475418549
 30
0.0
 10
454.0720917388694
 20
21.39619005103263
 30
0.0
 10
454.5353773928943
 20
21.32883444362482
 30
0.0
 10
454.8726808747089
 20
21.30315307366851
 30
0.0
 10
455.0557345467537
 20
21.28921586481325
 30
0.0
  0
LINE
  5
D3
330
1F
100
AcDbEntity
  8
0
  6
Continuous
 62
     7
370
    25
100
AcDbLine
 10
478.1332844339
 20
4.4892158648
 30
0.0
 11
458.1332844339
 21
4.4892158648
 31
0.0
  0
LINE
  5
D4
330
1F
100
AcDbEntity
  8
0
  6
Continuous
 62
     7
370
    25
100
AcDbLine
 10
458.1332844339
 20
8.4892158648
 30
0.0
 11
458.1332844339
 21
4.4892158648
 31
0.0
  0
LINE
  5
D5
330
1F
100
AcDbEntity
  8
0
  6
Continuous
 62
     7
370
    25
100
AcDbLine
 10
423.1332844339
 20
8.4892158648
 30
0.0
 11
458.1332844339
 21
8.4892158648
 31
0.0
  0
LINE
  5
D6
330
1F
100
AcDbEntity
  8
0
  6
Continuous
 62
     7
370
    25
100
AcDbLine
 10
423.1332844339
 20
19.2892158648
 30
0.0
 11
423.1332844339
 21
8.4892158648
 31
0.0
  0
LINE
  5
D7
330
1F
100
AcDbEntity
  8
0
  6
Continuous
 62
     7
370
    25
100
AcDbLine
 10
423.1332844339
 20
19.2892158648
 30
0.0
 11
419.1332844339
 21
19.2892158648
 31
0.0
  0
LINE
  5
D8
330
1F
100
AcDbEntity
  8
0
  6
Continuous
 62
     7
370
    25
100
AcDbLine
 10
419.1332844339
 20
49.2892158648
 30
0.0
 11
419.1332844339
 21
19.2892158648
 31
0.0
  0
LINE
  5
D9
330
1F
100
AcDbEntity
  8
0
  6
Continuous
 62
     7
370
    25
100
AcDbLine
 10
423.1332844339
 20
49.2892158648
 30
0.0
 11
419.1332844339
 21
49.2892158648
 31
0.0
  0
LINE
  5
DA
330
1F
100
AcDbEntity
  8
0
  6
Continuous
 62
     7
370
    25
100
AcDbLine
 10
423.1332844339
 20
119.2892158648
 30
0.0
 11
423.1332844339
 21
49.2892158648
 31
0.0
  0
LINE
  5
DB
330
1F
100
AcDbEntity
  8
0
  6
Continuous
 62
     7
370
    25
100
AcDbLine
 10
423.1332844339
 20
119.2892158648
 30
0.0
 11
419.1332844339
 21
119.2892158648
 31
0.0
  0
LINE
  5
DC
330
1F
100
AcDbEntity
  8
0
  6
Continuous
 62
     7
370
    25
100
AcDbLine
 10
419.1332844339
 20
149.2892158648
 30
0.0
 11
419.1332844339
 21
119.2892158648
 31
0.0
  0
LINE
  5
DD
330
1F
100
AcDbEntity
  8
0
  6
Continuous
 62
     7
370
    25
100
AcDbLine
 10
423.1332844339
 20
149.2892158648
 30
0.0
 11
419.1332844339
 21
149.2892158648
 31
0.0
  0
LINE
  5
DE
330
1F
100
AcDbEntity
  8
0
  6
Continuous
 62
     7
370
    25
100
AcDbLine
 10
423.1332844339
 20
160.0892158648
 30
0.0
 11
423.1332844339
 21
149.2892158648
 31
0.0
  0
LINE
  5
DF
330
1F
100
AcDbEntity
  8
0
  6
Continuous
 62
     7
370
    25
100
AcDbLine
 10
423.1332844339
 20
160.0892158648
 30
0.0
 11
458.1332844339
 21
160.0892158648
 31
0.0
  0
LINE
  5
E0
330
1F
100
AcDbEntity
  8
0
  6
Continuous
 62
     7
370
    25
100
AcDbLine
 10
458.1332844339
 20
160.0892158648
 30
0.0
 11
458.1332844339
 21
164.0892158648
 31
0.0
  0
LINE
  5
E1
330
1F
100
AcDbEntity
  8
0
  6
Continuous
 62
     7
370
    25
100
AcDbLine
 10
478.1332844339
 20
164.0892158648
 30
0.0
 11
458.1332844339
 21
164.0892158648
 31
0.0
  0
LINE
  5
E2
330
1F
100
AcDbEntity
  8
0
  6
Continuous
 62
     7
370
    25
100
AcDbLine
 10
478.1332844339
 20
160.0892158648
 30
0.0
 11
478.1332844339
 21
164.0892158648
 31
0.0
  0
LINE
  5
E3
330
1F
100
AcDbEntity
  8
0
  6
Continuous
 62
     7
370
    25
100
AcDbLine
 10
478.1332844339
 20
160.0892158648
 30
0.0
 11
483.1332844339
 21
160.0892158648
 31
0.0
  0
ARC
  5
E4
330
1F
100
AcDbEntity
  8
0
  6
Continuous
 62
     7
370
    25
100
AcDbCircle
 10
200.8512844339
 20
84.2892158648
 30
0.0
 40
292.2820000000001
100
AcDbArc
 50
344.9691803134
 51
15.0308196866
  0
LINE
  5
E5
330
1F
100
AcDbEntity
  8
0
  6
Continuous
 62
     7
370
    25
100
AcDbLine
 10
478.1332844339
 20
8.4892158648
 30
0.0
 11
483.1332844339
 21
8.4892158648
 31
0.0
  0
LINE
  5
E6
330
1F
100
AcDbEntity
  8
0
  6
Continuous
 62
     7
370
    25
100
AcDbLine
 10
478.1332844339
 20
8.4892158648
 30
0.0
 11
478.1332844339
 21
4.4892158648
 31
0.0
  0
LINE
  5
E7
330
1F
100
AcDbEntity
  8
0
  6
Continuous
 62
     7
370
    25
100
AcDbLine
 10
467.7224012134
 20
86.9593547537
 30
0.0
 11
467.7224012134
 21
87.4315769759
 31
0.0
  0
SPLINE
  5
E8
330
1F
100
AcDbEntity
  8
0
  6
Continuous
 62
     7
370
    25
100
AcDbSpline
210
0.0
220
0.0
230
1.0
 70
     8
 71
     3
 72
    15
 73
    11
 74
     0
 42
0.000000001
 43
0.00000001
 40
0.0
 40
0.0
 40
0.0
 40
0.0
 40
0.1062754825643773
 40
0.2043629160072116
 40
0.3022259050151036
 40
0.4075810648473213
 40
0.5248371096301383
 40
0.6628043339940657
 40
0.8204057880391766
 40
1.0
 40
1.0
 40
1.0
 40
1.0
 10
466.6460123245315
 20
85.11560475370216
 30
0.0
 10
466.7313296206217
 20
85.12007688131179
 30
0.0
 10
466.8953908979185
 20
85.12867657916313
 30
0.0
 10
467.1244559390891
 20
85.21992958047205
 30
0.0
 10
467.3136014414297
 20
85.37344102018463
 30
0.0
 10
467.4696550822811
 20
85.58022306057666
 30
0.0
 10
467.5814552878
 20
85.84807196754893
 30
0.0
 10
467.6679950227487
 20
86.16751110062964
 30
0.0
 10
467.7126341349248
 20
86.54611273537498
 30
0.0
 10
467.7190069697628
 20
86.81574537241443
 30
0.0
 10
467.7224012134204
 20
86.95935475370216
 30
0.0
  0
SPLINE
  5
E9
330
1F
100
AcDbEntity
  8
0
  6
Continuous
 62
     7
370
    25
100
AcDbSpline
210
0.0
220
0.0
230
1.0
 70
     8
 71
     3
 72
    47
 73
    43
 74
     0
 42
0.000000001
 43
0.00000001
 40
0.0
 40
0.0
 40
0.0
 40
0.0
 40
0.0140225230835024
 40
0.0282589811599988
 40
0.0436159883488883
 40
0.0604405258176018
 40
0.079153223862071
 40
0.1000008540723497
 40
0.1234586447563334
 40
0.1493900281616184
 40
0.1638476078305432
 40
0.1802961606613239
 40
0.1985145194990687
 40
0.2184161676533005
 40
0.2401796836773028
 40
0.2636323704032876
 40
0.2890920335646364
 40
0.3163293441177474
 40
0.3452651970525626
 40
0.3760590109748354
 40
0.4087855483746873
 40
0.4431370599989301
 40
0.4794231525599333
 40
0.5174892129274825
 40
0.5572609163282948
 40
0.5991202290063508
 40
0.6406724027580925
 40
0.6801374041783768
 40
0.717210075082792
 40
0.7521969484276227
 40
0.7848639888078741
 40
0.8154461722952845
 40
0.8436423484152199
 40
0.8697565964857871
 40
0.8937292832902717
 40
0.915447371134261
 40
0.9350321976192131
 40
0.9523078562498426
 40
0.9674726726579941
 40
0.9803445389417044
 40
0.9911787495456394
 40
0.9999999999999999
 40
0.9999999999999999
 40
0.9999999999999999
 40
0.9999999999999999
 10
453.7224012134204
 20
90.11560475370216
 30
0.0
 10
453.7261275371563
 20
90.04905055086246
 30
0.0
 10
453.7336370353845
 20
89.91492675923341
 30
0.0
 10
453.8057439355527
 20
89.71885907862823
 30
0.0
 10
453.9185087017446
 20
89.52930543347648
 30
0.0
 10
454.079471389994
 20
89.34867955490321
 30
0.0
 10
454.2795180892707
 20
89.17178279649268
 30
0.0
 10
454.5211891122233
 20
88.99611928435023
 30
0.0
 10
454.811225471373
 20
88.83305974532716
 30
0.0
 10
455.0820454892456
 20
88.6991434042647
 30
0.0
 10
455.3279454125131
 20
88.59026332998779
 30
0.0
 10
455.5425947745211
 20
88.50120033017159
 30
0.0
 10
455.7813088838661
 20
88.40285902926612
 30
0.0
 10
456.0469830469979
 20
88.30442248509391
 30
0.0
 10
456.3334859286803
 20
88.19117525987623
 30
0.0
 10
456.6479099685419
 20
88.07739029058467
 30
0.0
 10
456.9872722460723
 20
87.9565608566103
 30
0.0
 10
457.3510406704373
 20
87.82685348406648
 30
0.0
 10
457.7415901169166
 20
87.69743004983997
 30
0.0
 10
458.1539639577755
 20
87.55154719028246
 30
0.0
 10
458.5948768983989
 20
87.4101016541455
 30
0.0
 10
459.0568306683053
 20
87.24967167473856
 30
0.0
 10
459.5465874349767
 20
87.09279290701451
 30
0.0
 10
460.0595111778639
 20
86.92428766077253
 30
0.0
 10
460.6001651534434
 20
86.75590381892401
 30
0.0
 10
461.1547919984989
 20
86.57705535431653
 30
0.0
 10
461.7095243389921
 20
86.40333688609883
 30
0.0
 10
462.2425474120631
 20
86.23605790353233
 30
0.0
 10
462.7476110449583
 20
86.08351142398546
 30
0.0
 10
463.2222531642253
 20
85.94149401089317
 30
0.0
 10
463.6677546890141
 20
85.80921903609685
 30
0.0
 10
464.0827464765061
 20
85.68698312628842
 30
0.0
 10
464.4698920417203
 20
85.5802045721577
 30
0.0
 10
464.8266771492683
 20
85.4808004369413
 30
0.0
 10
465.1568221340293
 20
85.4007341683628
 30
0.0
 10
465.4551678056589
 20
85.32086234895077
 30
0.0
 10
465.7256680103692
 20
85.26054076323932
 30
0.0
 10
465.965701831428
 20
85.2059824140876
 30
0.0
 10
466.1768942615025
 20
85.16887468747932
 30
0.0
 10
466.3585273509205
 20
85.14031744805098
 30
0.0
 10
466.5113833321673
 20
85.12149283927161
 30
0.0
 10
466.6043082092394
 20
85.117428710007
 30
0.0
 10
466.6460123245315
 20
85.11560475370216
 30
0.0
  0
SPLINE
  5
EA
330
1F
100
AcDbEntity
  8
0
  6
Continuous
 62
     7
370
    25
100
AcDbSpline
210
0.0
220
0.0
230
1.0
 70
     8
 71
     3
 72
    11
 73
     7
 74
     0
 42
0.000000001
 43
0.00000001
 40
0.0
 40
0.0
 40
0.0
 40
0.0
 40
0.3377859512937733
 40
0.6112246197882594
 40
0.8257973439804291
 40
1.0
 40
1.0
 40
1.0
 40
1.0
 10
454.2640678800871
 20
90.77532697592437
 30
0.0
 10
454.1835846582174
 20
90.71715986019848
 30
0.0
 10
454.0379500440536
 20
90.61190630226461
 30
0.0
 10
453.8648063074169
 20
90.44292074304954
 30
0.0
 10
453.7491017082307
 20
90.28042913028932
 30
0.0
 10
453.730663164711
 20
90.16660646661171
 30
0.0
 10
453.7224012134204
 20
90.11560475370216
 30
0.0
  0
SPLINE
  5
EB
330
1F
100
AcDbEntity
  8
0
  6
Continuous
 62
     7
370
    25
100
AcDbSpline
210
0.0
220
0.0
230
1.0
 70
     8
 71
     3
 72
    15
 73
    11
 74
     0
 42
0.000000001
 43
0.00000001
 40
0.0
 40
0.0
 40
0.0
 40
0.0
 40
0.1193465290099382
 40
0.2339481042977752
 40
0.3509962446188992
 40
0.4681243905134866
 40
0.5911808554967395
 40
0.7184289455657276
 40
0.8562950816870346
 40
1.0
 40
1.0
 40
1.0
 40
1.0
 10
455.0557345467537
 20
92.09477142036882
 30
0.0
 10
455.0525991976619
 20
92.03097157918269
 30
0.0
 10
455.0464531540156
 20
91.90590843722283
 30
0.0
 10
455.0113883756219
 20
91.72073752829624
 30
0.0
 10
454.9488047463714
 20
91.5442138526317
 30
0.0
 10
454.8590847645177
 20
91.37504902354621
 30
0.0
 10
454.7490755240087
 20
91.21158657755387
 30
0.0
 10
454.6096065293106
 20
91.05717092286127
 30
0.0
 10
454.4484513068229
 20
90.90877592708881
 30
0.0
 10
454.326372846686
 20
90.82042068413965
 30
0.0
 10
454.2640678800871
 20
90.77532697592437
 30
0.0
  0
SPLINE
  5
EC
330
1F
100
AcDbEntity
  8
0
  6
Continuous
 62
     7
370
    25
100
AcDbSpline
210
0.0
220
0.0
230
1.0
 70
     8
 71
     3
 72
    15
 73
    11
 74
     0
 42
0.000000001
 43
0.00000001
 40
0.0
 40
0.0
 40
0.0
 40
0.0
 40
0.1186277534223413
 40
0.2355521660269095
 40
0.3532599864339541
 40
0.478769159931327
 40
0.605897772661233
 40
0.7335306658823056
 40
0.8617660780772215
 40
1.0
 40
1.0
 40
1.0
 40
1.0
 10
453.5557345467537
 20
93.73366030925771
 30
0.0
 10
453.6537851367422
 20
93.72915747900178
 30
0.0
 10
453.8484784373039
 20
93.72021647329753
 30
0.0
 10
454.1257675147133
 20
93.62243305589999
 30
0.0
 10
454.3871599468805
 20
93.47919960050665
 30
0.0
 10
454.6148798293475
 20
93.27301598098236
 30
0.0
 10
454.811706421679
 20
93.02754994009386
 30
0.0
 10
454.9545031103842
 20
92.74397534727974
 30
0.0
 10
455.0416743536899
 20
92.42855235963694
 30
0.0
 10
455.0509320263855
 20
92.20878050630878
 30
0.0
 10
455.0557345467537
 20
92.09477142036882
 30
0.0
  0
SPLINE
  5
ED
330
1F
100
AcDbEntity
  8
0
  6
Continuous
 62
     7
370
    25
100
AcDbSpline
210
0.0
220
0.0
230
1.0
 70
     8
 71
     3
 72
    15
 73
    11
 74
     0
 42
0.000000001
 43
0.00000001
 40
0.0
 40
0.0
 40
0.0
 40
0.0
 40
0.1403820148862299
 40
0.2732920164636452
 40
0.4026568108251021
 40
0.5326904865458698
 40
0.6575757682289334
 40
0.7734240536139201
 40
0.884748494308792
 40
1.0
 40
1.0
 40
1.0
 40
1.0
 10
451.9446234356425
 20
91.73018808703549
 30
0.0
 10
451.9487946906595
 20
91.86395301839227
 30
0.0
 10
451.9569151802798
 20
92.12436307057914
 30
0.0
 10
452.0541125628782
 20
92.49693239895097
 30
0.0
 10
452.1937237028208
 20
92.84441270878962
 30
0.0
 10
452.3993024492416
 20
93.14908659644979
 30
0.0
 10
452.6414993291353
 20
93.40775230305097
 30
0.0
 10
452.920525245913
 20
93.59762370554583
 30
0.0
 10
453.2303091165666
 20
93.71137441152557
 30
0.0
 10
453.4460131929205
 20
93.7261463332628
 30
0.0
 10
453.5557345467537
 20
93.73366030925771
 30
0.0
  0
SPLINE
  5
EE
330
1F
100
AcDbEntity
  8
0
  6
Continuous
 62
     7
370
    25
100
AcDbSpline
210
0.0
220
0.0
230
1.0
 70
     8
 71
     3
 72
    31
 73
    27
 74
     0
 42
0.000000001
 43
0.00000001
 40
0.0
 40
0.0
 40
0.0
 40
0.0
 40
0.0706216568033836
 40
0.1382124096530429
 40
0.2026926596709465
 40
0.2638865573730069
 40
0.3222435554597291
 40
0.3772365282801861
 40
0.4289683881336661
 40
0.4779777808129673
 40
0.5241230535359543
 40
0.5676663797911319
 40
0.6088117066873519
 40
0.6475313961990369
 40
0.6843230627571192
 40
0.7189325144345576
 40
0.7517022600857349
 40
0.7828425715256048
 40
0.8125400746364416
 40
0.8410097833350049
 40
0.8685255712966913
 40
0.8953802531573113
 40
0.921811302766622
 40
0.9477951754681457
 40
0.9738938211521381
 40
0.9999999999999999
 40
0.9999999999999999
 40
0.9999999999999999
 40
0.9999999999999999
 10
461.7085123245315
 20
85.42116030925771
 30
0.0
 10
461.4293783294043
 20
85.50500572745977
 30
0.0
 10
460.8830900684248
 20
85.66909812931796
 30
0.0
 10
460.0852920711797
 20
85.92061902777465
 30
0.0
 10
459.3248616367395
 20
86.16129970448024
 30
0.0
 10
458.6049237800178
 20
86.40325174600284
 30
0.0
 10
457.9226761144272
 20
86.63434600462209
 30
0.0
 10
457.2794693334956
 20
86.85901364680188
 30
0.0
 10
456.6769538864588
 20
87.0827917407906
 30
0.0
 10
456.1110170314702
 20
87.3000672512383
 30
0.0
 10
455.5815283067031
 20
87.5177201618591
 30
0.0
 10
455.0903296510264
 20
87.74245015903871
 30
0.0
 10
454.6390571188113
 20
87.97896737849474
 30
0.0
 10
454.223129470832
 20
88.22189620330144
 30
0.0
 10
453.8453344223404
 20
88.47493643358433
 30
0.0
 10
453.5022876727564
 20
88.7346875621294
 30
0.0
 10
453.1997402428061
 20
89.00695966508717
 30
0.0
 10
452.9309918526989
 20
89.28486287835021
 30
0.0
 10
452.6963564046957
 20
89.56984447667965
 30
0.0
 10
452.4993013319548
 20
89.86387494708626
 30
0.0
 10
452.3263594578871
 20
90.15918518150309
 30
0.0
 10
452.1870391786538
 20
90.46274374414674
 30
0.0
 10
452.078722793916
 20
90.77204996979275
 30
0.0
 10
452.0032528862032
 20
91.08743165539296
 30
0.0
 10
451.9507752063211
 20
91.40667349199721
 30
0.0
 10
451.9466742231263
 20
91.62233951514308
 30
0.0
 10
451.9446234356425
 20
91.73018808703547
 30
0.0
  0
LINE
  5
EF
330
1F
100
AcDbEntity
  8
0
  6
Continuous
 62
     7
370
    25
100
AcDbLine
 10
467.277956769
 20
83.7336603093
 30
0.0
 11
461.7085123245
 21
85.4211603093
 31
0.0
  0
LINE
  5
F0
330
1F
100
AcDbEntity
  8
0
  6
Continuous
 62
     7
370
    25
100
AcDbLine
 10
467.277956769
 20
78.2683825315
 30
0.0
 11
467.277956769
 21
83.7336603093
 31
0.0
  0
LINE
  5
F1
330
1F
100
AcDbEntity
  8
0
  6
Continuous
 62
     7
370
    25
100
AcDbLine
 10
456.1599012134
 20
81.8135214204
 30
0.0
 11
467.277956769
 21
78.2683825315
 31
0.0
  0
SPLINE
  5
F2
330
1F
100
AcDbEntity
  8
0
  6
Continuous
 62
     7
370
    25
100
AcDbSpline
210
0.0
220
0.0
230
1.0
 70
     8
 71
     3
 72
    23
 73
    19
 74
     0
 42
0.000000001
 43
0.00000001
 40
0.0
 40
0.0
 40
0.0
 40
0.0
 40
0.0809243860541622
 40
0.1537584744718082
 40
0.2180562747194073
 40
0.276023948605342
 40
0.3313831118799582
 40
0.3872477766481023
 40
0.4446978716554648
 40
0.5053972672632271
 40
0.5406731949071378
 40
0.5834044026849573
 40
0.6333712778696797
 40
0.6914714062182379
 40
0.7572816672407453
 40
0.8302212184732713
 40
0.9111211753429681
 40
1.0
 40
1.0
 40
1.0
 40
1.0
 10
452.6112901023093
 20
84.92810475370213
 30
0.0
 10
452.6146803438073
 20
84.786781193143
 30
0.0
 10
452.621121892347
 20
84.51826268916628
 30
0.0
 10
452.6670701168701
 20
84.13929763311798
 30
0.0
 10
452.750512754287
 20
83.80809328625246
 30
0.0
 10
452.86522594941
 20
83.51855995425355
 30
0.0
 10
453.0216733172488
 20
83.26602253868933
 30
0.0
 10
453.2189684320062
 20
83.04534142672183
 30
0.0
 10
453.4559159785179
 20
82.85361843071375
 30
0.0
 10
453.6843181702149
 20
82.71167872854409
 30
0.0
 10
453.904205163913
 20
82.60975870895673
 30
0.0
 10
454.1083100939368
 20
82.51867693575551
 30
0.0
 10
454.3536496803046
 20
82.42283605987262
 30
0.0
 10
454.6368340268019
 20
82.31307633031507
 30
0.0
 10
454.9639506678256
 20
82.20704252940348
 30
0.0
 10
455.3251858402988
 20
82.07797536354164
 30
0.0
 10
455.7284639287788
 20
81.94729723870022
 30
0.0
 10
456.0116525717589
 20
81.85948889712797
 30
0.0
 10
456.1599012134204
 20
81.81352142036883
 30
0.0
  0
LINE
  5
F3
330
1F
100
AcDbEntity
  8
0
  6
Continuous
 62
     7
370
    25
100
AcDbLine
 10
452.1668456579
 20
85.0669936426
 30
0.0
 11
452.6112901023
 21
84.9281047537
 31
0.0
  0
LINE
  5
F4
330
1F
100
AcDbEntity
  8
0
  6
Continuous
 62
     7
370
    25
100
AcDbLine
 10
452.1668456579
 20
76.6225491981
 30
0.0
 11
452.1668456579
 21
85.0669936426
 31
0.0
  0
LINE
  5
F5
330
1F
100
AcDbEntity
  8
0
  6
Continuous
 62
     7
370
    25
100
AcDbLine
 10
452.6112901023
 20
76.480188087
 30
0.0
 11
452.1668456579
 21
76.6225491981
 31
0.0
  0
SPLINE
  5
F6
330
1F
100
AcDbEntity
  8
0
  6
Continuous
 62
     7
370
    25
100
AcDbSpline
210
0.0
220
0.0
230
1.0
 70
     8
 71
     3
 72
    15
 73
    11
 74
     0
 42
0.000000001
 43
0.00000001
 40
0.0
 40
0.0
 40
0.0
 40
0.0
 40
0.090546639760659
 40
0.1794165413273148
 40
0.2712161923175624
 40
0.3768454270220084
 40
0.5011401889850842
 40
0.6440674094326653
 40
0.8103506737157384
 40
1.0
 40
1.0
 40
1.0
 40
1.0
 10
453.6737901023092
 20
78.51143808703547
 30
0.0
 10
453.5973889620408
 20
78.50600979846347
 30
0.0
 10
453.4460014740382
 20
78.49525374209861
 30
0.0
 10
453.2379819676529
 20
78.3901736105051
 30
0.0
 10
453.0608188412554
 20
78.22461002424112
 30
0.0
 10
452.915936516664
 20
77.99415381148623
 30
0.0
 10
452.7971446311539
 20
77.70378875519883
 30
0.0
 10
452.7049607287717
 20
77.35119210487507
 30
0.0
 10
452.6406319013855
 20
76.93704152116392
 30
0.0
 10
452.6214895833677
 20
76.638994571116
 30
0.0
 10
452.6112901023093
 20
76.48018808703549
 30
0.0
  0
SPLINE
  5
F7
330
1F
100
AcDbEntity
  8
0
  6
Continuous
 62
     7
370
    25
100
AcDbSpline
210
0.0
220
0.0
230
1.0
 70
     8
 71
     3
 72
    11
 73
     7
 74
     0
 42
0.000000001
 43
0.00000001
 40
0.0
 40
0.0
 40
0.0
 40
0.0
 40
0.3329166125453246
 40
0.6100230814888135
 40
0.8316515530243171
 40
0.9999999999999999
 40
0.9999999999999999
 40
0.9999999999999999
 40
0.9999999999999999
 10
455.2849012134204
 20
78.14685475370216
 30
0.0
 10
455.1093891620361
 20
78.20155125810959
 30
0.0
 10
454.7877879009718
 20
78.3017749444861
 30
0.0
 10
454.3436617859169
 20
78.41842032048201
 30
0.0
 10
453.9815450435911
 20
78.49014179641465
 30
0.0
 10
453.7665855753731
 20
78.50501674622959
 30
0.0
 10
453.6737901023092
 20
78.51143808703547
 30
0.0
  0
LINE
  5
F8
330
1F
100
AcDbEntity
  8
0
  6
Continuous
 62
     7
370
    25
100
AcDbLine
 10
464.3890678801
 20
75.261438087
 30
0.0
 11
455.2849012134
 21
78.1468547537
 31
0.0
  0
SPLINE
  5
F9
330
1F
100
AcDbEntity
  8
0
  6
Continuous
 62
     7
370
    25
100
AcDbSpline
210
0.0
220
0.0
230
1.0
 70
     8
 71
     3
 72
    23
 73
    19
 74
     0
 42
0.000000001
 43
0.00000001
 40
0.0
 40
0.0
 40
0.0
 40
0.0
 40
0.0750131727693819
 40
0.1437986082032454
 40
0.2073390886702015
 40
0.2662327333915573
 40
0.3211296145887756
 40
0.3724943005494359
 40
0.4206111810962542
 40
0.467498949293002
 40
0.5158706108674139
 40
0.5697382734308082
 40
0.6281717021920301
 40
0.6915842405533209
 40
0.7610112680252102
 40
0.8350792114427823
 40
0.9147247264314569
 40
1.0
 40
1.0
 40
1.0
 40
1.0
 10
467.7224012134204
 20
71.86213253147993
 30
0.0
 10
467.7160789950843
 20
71.99306116181894
 30
0.0
 10
467.7039594410924
 20
72.24404847673482
 30
0.0
 10
467.6581959273135
 20
72.60368915011428
 30
0.0
 10
467.5941627780561
 20
72.93187065658613
 30
0.0
 10
467.5045468906605
 20
73.2290938580208
 30
0.0
 10
467.3895480273526
 20
73.49435484315654
 30
0.0
 10
467.2550262707102
 20
73.72881383072153
 30
0.0
 10
467.0971870336515
 20
73.93147086769152
 30
0.0
 10
466.9107766288452
 20
74.10016751466327
 30
0.0
 10
466.6987663091639
 20
74.25204447143192
 30
0.0
 10
466.459531836499
 20
74.39903996284976
 30
0.0
 10
466.1919634930728
 20
74.54972919924317
 30
0.0
 10
465.8908064019438
 20
74.69484738373036
 30
0.0
 10
465.5596221931831
 20
74.83977833594933
 30
0.0
 10
465.1964801546201
 20
74.9816462155675
 30
0.0
 10
464.8040840282796
 20
75.12432083251723
 30
0.0
 10
464.530519409227
 20
75.21470389269739
 30
0.0
 10
464.3890678800871
 20
75.26143808703549
 30
0.0
  0
LINE
  5
FA
330
1F
100
AcDbEntity
  8
0
  6
Continuous
 62
     7
370
    25
100
AcDbLine
 10
468.1668456579
 20
71.7336603093
 30
0.0
 11
467.7224012134
 21
71.8621325315
 31
0.0
  0
LINE
  5
FB
330
1F
100
AcDbEntity
  8
0
  6
Continuous
 62
     7
370
    25
100
AcDbLine
 10
468.1668456579
 20
87.2892158648
 30
0.0
 11
468.1668456579
 21
71.7336603093
 31
0.0
  0
LINE
  5
FC
330
1F
100
AcDbEntity
  8
0
  6
Continuous
 62
     7
370
    25
100
AcDbLine
 10
467.7224012134
 20
87.4315769759
 30
0.0
 11
468.1668456579
 21
87.2892158648
 31
0.0
  0
LINE
  5
FD
330
1F
100
AcDbEntity
  8
0
  6
Continuous
 62
     7
370
    25
100
AcDbLine
 10
455.0453178801
 20
67.9246325315
 30
0.0
 11
465.2883734356
 21
64.6537991981
 31
0.0
  0
SPLINE
  5
FE
330
1F
100
AcDbEntity
  8
0
  6
Continuous
 62
     7
370
    25
100
AcDbSpline
210
0.0
220
0.0
230
1.0
 70
     8
 71
     3
 72
    23
 73
    19
 74
     0
 42
0.000000001
 43
0.00000001
 40
0.0
 40
0.0
 40
0.0
 40
0.0
 40
0.0736875438152109
 40
0.1418636491346005
 40
0.2055259843061353
 40
0.265065639470722
 40
0.3204479092492881
 40
0.3714243395539135
 40
0.4195777153286891
 40
0.4647173651165722
 40
0.5111735658577485
 40
0.5622013966597329
 40
0.6190436497433697
 40
0.6819447746361038
 40
0.7507333670957363
 40
0.8268490164568968
 40
0.9101390919020763
 40
1.0
 40
1.0
 40
1.0
 40
1.0
 10
452.6112901023093
 20
70.93157697592436
 30
0.0
 10
452.6124682194138
 20
70.82620764364482
 30
0.0
 10
452.6147363366953
 20
70.62335004777307
 30
0.0
 10
452.6363334515334
 20
70.33018771187685
 30
0.0
 10
452.6687126121149
 20
70.05823090695782
 30
0.0
 10
452.7227047628074
 20
69.80843046828426
 30
0.0
 10
452.7831432076304
 20
69.57900777351631
 30
0.0
 10
452.8588566040117
 20
69.37081347803301
 30
0.0
 10
452.9544399104435
 20
69.187798183053
 30
0.0
 10
453.0586995738096
 20
69.01655658066517
 30
0.0
 10
453.1969145684229
 20
68.86541828304354
 30
0.0
 10
453.3613823503525
 20
68.71781661552652
 30
0.0
 10
453.5619963737923
 20
68.57810289376243
 30
0.0
 10
453.7894547906842
 20
68.43290596214426
 30
0.0
 10
454.0577997306326
 20
68.30436024283127
 30
0.0
 10
454.3556321261466
 20
68.17128403370256
 30
0.0
 10
454.6887375413571
 20
68.04400322891247
 30
0.0
 10
454.9234882820099
 20
67.96541684432847
 30
0.0
 10
455.0453178800871
 20
67.92463253147993
 30
0.0
  0
LINE
  5
FF
330
1F
100
AcDbEntity
  8
0
  6
Continuous
 62
     7
370
    25
100
AcDbLine
 10
452.1668456579
 20
71.073938087
 30
0.0
 11
452.6112901023
 21
70.9315769759
 31
0.0
  0
LINE
  5
100
330
1F
100
AcDbEntity
  8
0
  6
Continuous
 62
     7
370
    25
100
AcDbLine
 10
452.1668456579
 20
62.3517158648
 30
0.0
 11
452.1668456579
 21
71.073938087
 31
0.0
  0
LINE
  5
101
330
1F
100
AcDbEntity
  8
0
  6
Continuous
 62
     7
370
    25
100
AcDbLine
 10
452.6112901023
 20
62.2232436426
 30
0.0
 11
452.1668456579
 21
62.3517158648
 31
0.0
  0
SPLINE
  5
102
330
1F
100
AcDbEntity
  8
0
  6
Continuous
 62
     7
370
    25
100
AcDbSpline
210
0.0
220
0.0
230
1.0
 70
     8
 71
     3
 72
    15
 73
    11
 74
     0
 42
0.000000001
 43
0.00000001
 40
0.0
 40
0.0
 40
0.0
 40
0.0
 40
0.0819298288832108
 40
0.1752647723496095
 40
0.2800375881590202
 40
0.3963829816033321
 40
0.5268383000360485
 40
0.6701750796171129
 40
0.8285097813681199
 40
1.0
 40
1.0
 40
1.0
 40
1.0
 10
452.9411512134204
 20
63.97671586481325
 30
0.0
 10
452.9155279210668
 20
63.93454631133729
 30
0.0
 10
452.8607144231943
 20
63.84433695424728
 30
0.0
 10
452.8020388160606
 20
63.68584342703811
 30
0.0
 10
452.7454426838671
 20
63.50555968605541
 30
0.0
 10
452.700956671924
 20
63.29863694443051
 30
0.0
 10
452.667937485194
 20
63.06642394094906
 30
0.0
 10
452.6403338203297
 20
62.80815487790116
 30
0.0
 10
452.6187810177238
 20
62.52449180089545
 30
0.0
 10
452.6138525996731
 20
62.32629481441803
 30
0.0
 10
452.6112901023093
 20
62.22324364259104
 30
0.0
  0
SPLINE
  5
103
330
1F
100
AcDbEntity
  8
0
  6
Continuous
 62
     7
370
    25
100
AcDbSpline
210
0.0
220
0.0
230
1.0
 70
     8
 71
     3
 72
    11
 73
     7
 74
     0
 42
0.000000001
 43
0.00000001
 40
0.0
 40
0.0
 40
0.0
 40
0.0
 40
0.2542349837418413
 40
0.4951714366984638
 40
0.7386566964676403
 40
1.0
 40
1.0
 40
1.0
 40
1.0
 10
453.5974012134204
 20
64.34129919814659
 30
0.0
 10
453.5308776311167
 20
64.33633864620701
 30
0.0
 10
453.4013101839509
 20
64.32667701902038
 30
0.0
 10
453.2173921260535
 20
64.25893622123823
 30
0.0
 10
453.0589277368715
 20
64.13983269793749
 30
0.0
 10
452.9813251052711
 20
64.03235545936869
 30
0.0
 10
452.9411512134204
 20
63.97671586481325
 30
0.0
  0
SPLINE
  5
104
330
1F
100
AcDbEntity
  8
0
  6
Continuous
 62
     7
370
    25
100
AcDbSpline
210
0.0
220
0.0
230
1.0
 70
     8
 71
     3
 72
    11
 73
     7
 74
     0
 42
0.000000001
 43
0.00000001
 40
0.0
 40
0.0
 40
0.0
 40
0.0
 40
0.3478385132111246
 40
0.6298389196157151
 40
0.8482408505574285
 40
0.9999999999999999
 40
0.9999999999999999
 40
0.9999999999999999
 40
0.9999999999999999
 10
455.0453178800871
 20
63.99060475370214
 30
0.0
 10
454.8801064837241
 20
64.04263480905473
 30
0.0
 10
454.5809545398155
 20
64.13684678560757
 30
0.0
 10
454.1741233857844
 20
64.24910125202852
 30
0.0
 10
453.8569019328315
 20
64.32299698388549
 30
0.0
 10
453.6728564385812
 20
64.33597744913122
 30
0.0
 10
453.5974012134204
 20
64.34129919814659
 30
0.0
  0
LINE
  5
105
330
1F
100
AcDbEntity
  8
0
  6
Continuous
 62
     7
370
    25
100
AcDbLine
 10
465.2883734356
 20
60.7162991981
 30
0.0
 11
455.0453178801
 21
63.9906047537
 31
0.0
  0
SPLINE
  5
106
330
1F
100
AcDbEntity
  8
0
  6
Continuous
 62
     7
370
    25
100
AcDbSpline
210
0.0
220
0.0
230
1.0
 70
     8
 71
     3
 72
    19
 73
    15
 74
     0
 42
0.000000001
 43
0.00000001
 40
0.0
 40
0.0
 40
0.0
 40
0.0
 40
0.1327380092768269
 40
0.249738100581578
 40
0.3556200545881475
 40
0.4520329187495955
 40
0.5001809010578899
 40
0.5536955522500181
 40
0.6126078126624138
 40
0.6769298915390313
 40
0.7478572413573771
 40
0.8245364230917347
 40
0.9089922887019427
 40
1.0
 40
1.0
 40
1.0
 40
1.0
 10
467.7224012134204
 20
57.86213253147993
 30
0.0
 10
467.7186915408055
 20
58.04552544541725
 30
0.0
 10
467.7117120283232
 20
58.39056751917099
 30
0.0
 10
467.6178540041155
 20
58.87399599319922
 30
0.0
 10
467.478612357308
 20
59.29415402851898
 30
0.0
 10
467.2972239657676
 20
59.59215872537621
 30
0.0
 10
467.1165270208507
 20
59.79803444256178
 30
0.0
 10
466.9475892509697
 20
59.94211338610388
 30
0.0
 10
466.7498384936805
 20
60.08529332490528
 30
0.0
 10
466.5171636472069
 20
60.21844462473302
 30
0.0
 10
466.2590785685352
 20
60.3562430053416
 30
0.0
 10
465.962753052526
 20
60.47812999232104
 30
0.0
 10
465.6388374661822
 20
60.60502356207055
 30
0.0
 10
465.408067116438
 20
60.678295325269
 30
0.0
 10
465.2883734356426
 20
60.71629919814659
 30
0.0
  0
LINE
  5
107
330
1F
100
AcDbEntity
  8
0
  6
Continuous
 62
     7
370
    25
100
AcDbLine
 10
468.1668456579
 20
57.6954658648
 30
0.0
 11
467.7224012134
 21
57.8621325315
 31
0.0
  0
LINE
  5
108
330
1F
100
AcDbEntity
  8
0
  6
Continuous
 62
     7
370
    25
100
AcDbLine
 10
468.1668456579
 20
66.3065769759
 30
0.0
 11
468.1668456579
 21
57.6954658648
 31
0.0
  0
LINE
  5
109
330
1F
100
AcDbEntity
  8
0
  6
Continuous
 62
     7
370
    25
100
AcDbLine
 10
467.7224012134
 20
66.448938087
 30
0.0
 11
468.1668456579
 21
66.3065769759
 31
0.0
  0
SPLINE
  5
10A
330
1F
100
AcDbEntity
  8
0
  6
Continuous
 62
     7
370
    25
100
AcDbSpline
210
0.0
220
0.0
230
1.0
 70
     8
 71
     3
 72
    19
 73
    15
 74
     0
 42
0.000000001
 43
0.00000001
 40
0.0
 40
0.0
 40
0.0
 40
0.0
 40
0.079993234885383
 40
0.1557978310052979
 40
0.2309298762233238
 40
0.3121264226600154
 40
0.3597279528395679
 40
0.4164836706854234
 40
0.4850959555277453
 40
0.5635215531690781
 40
0.654936322933072
 40
0.7581427636191326
 40
0.8730903567848688
 40
0.9999999999999999
 40
0.9999999999999999
 40
0.9999999999999999
 40
0.9999999999999999
 10
466.7119845467537
 20
64.35518808703549
 30
0.0
 10
466.7807117848887
 20
64.36024706752718
 30
0.0
 10
466.9145675371627
 20
64.37010012808705
 30
0.0
 10
467.1055487857928
 20
64.43603102298559
 30
0.0
 10
467.2656265759974
 20
64.55866218185609
 30
0.0
 10
467.3818515731739
 20
64.69232138399964
 30
0.0
 10
467.456942983156
 20
64.83362472935144
 30
0.0
 10
467.5136340812545
 20
64.97137287269254
 30
0.0
 10
467.5596104226721
 20
65.14077785085162
 30
0.0
 10
467.6010279357916
 20
65.3415659325412
 30
0.0
 10
467.6381201220394
 20
65.57339959224137
 30
0.0
 10
467.6735218948335
 20
65.83720652976695
 30
0.0
 10
467.6998284633161
 20
66.13274050811447
 30
0.0
 10
467.7146328919669
 20
66.34011995789571
 30
0.0
 10
467.7224012134204
 20
66.44893808703547
 30
0.0
  0
SPLINE
  5
10B
330
1F
100
AcDbEntity
  8
0
  6
Continuous
 62
     7
370
    25
100
AcDbSpline
210
0.0
220
0.0
230
1.0
 70
     8
 71
     3
 72
    11
 73
     7
 74
     0
 42
0.000000001
 43
0.00000001
 40
0.0
 40
0.0
 40
0.0
 40
0.0
 40
0.3153924618096487
 40
0.5871825473763483
 40
0.8140426206720885
 40
0.9999999999999999
 40
0.9999999999999999
 40
0.9999999999999999
 40
0.9999999999999999
 10
465.2883734356426
 20
64.65379919814659
 30
0.0
 10
465.4349008169334
 20
64.6081093773451
 30
0.0
 10
465.707698462486
 20
64.5230462619699
 30
0.0
 10
466.0925721520109
 20
64.42974579595946
 30
0.0
 10
466.4206289270809
 20
64.36749468388199
 30
0.0
 10
466.6215002367999
 20
64.35901006213516
 30
0.0
 10
466.7119845467537
 20
64.35518808703549
 30
0.0
  0
LINE
  5
10C
330
1F
100
AcDbEntity
  8
0
  6
Continuous
 62
     7
370
    25
100
AcDbLine
 10
468.1668456579
 20
43.6607436426
 30
0.0
 11
467.7224012134
 21
43.855188087
 31
0.0
  0
LINE
  5
10D
330
1F
100
AcDbEntity
  8
0
  6
Continuous
 62
     7
370
    25
100
AcDbLine
 10
468.1668456579
 20
52.2336603093
 30
0.0
 11
468.1668456579
 21
43.6607436426
 31
0.0
  0
LINE
  5
10E
330
1F
100
AcDbEntity
  8
0
  6
Continuous
 62
     7
370
    25
100
AcDbLine
 10
467.7224012134
 20
52.3760214204
 30
0.0
 11
468.1668456579
 21
52.2336603093
 31
0.0
  0
SPLINE
  5
10F
330
1F
100
AcDbEntity
  8
0
  6
Continuous
 62
     7
370
    25
100
AcDbSpline
210
0.0
220
0.0
230
1.0
 70
     8
 71
     3
 72
    19
 73
    15
 74
     0
 42
0.000000001
 43
0.00000001
 40
0.0
 40
0.0
 40
0.0
 40
0.0
 40
0.0900246731677592
 40
0.1728874317334209
 40
0.2516912714601154
 40
0.3326851848719999
 40
0.3790453536087616
 40
0.4346399355661874
 40
0.5009530921188549
 40
0.5775539036036882
 40
0.6671125635686511
 40
0.7659973746560885
 40
0.876878202597521
 40
1.0
 40
1.0
 40
1.0
 40
1.0
 10
466.6599012134204
 20
50.40032697592435
 30
0.0
 10
466.7356637906847
 20
50.40362229853974
 30
0.0
 10
466.8811616519247
 20
50.40995078431656
 30
0.0
 10
467.0844242531268
 20
50.47794230235679
 30
0.0
 10
467.2564550602785
 20
50.58973778382553
 30
0.0
 10
467.3775505227506
 20
50.71677165324094
 30
0.0
 10
467.4536649009781
 20
50.85068685713891
 30
0.0
 10
467.5098836381948
 20
50.98059285245851
 30
0.0
 10
467.5554467775598
 20
51.14109340259908
 30
0.0
 10
467.6025864847729
 20
51.33049323135555
 30
0.0
 10
467.6371339285764
 20
51.5504049627884
 30
0.0
 10
467.6738806427106
 20
51.79890842147967
 30
0.0
 10
467.6998221348713
 20
52.0771811564324
 30
0.0
 10
467.7146168767646
 20
52.27299360124312
 30
0.0
 10
467.7224012134204
 20
52.3760214203688
 30
0.0
  0
SPLINE
  5
110
330
1F
100
AcDbEntity
  8
0
  6
Continuous
 62
     7
370
    25
100
AcDbSpline
210
0.0
220
0.0
230
1.0
 70
     8
 71
     3
 72
    11
 73
     7
 74
     0
 42
0.000000001
 43
0.00000001
 40
0.0
 40
0.0
 40
0.0
 40
0.0
 40
0.3066463705113614
 40
0.576477544085737
 40
0.8052976880905584
 40
0.9999999999999999
 40
0.9999999999999999
 40
0.9999999999999999
 40
0.9999999999999999
 10
465.264067880087
 20
50.68504919814658
 30
0.0
 10
465.4036867409358
 20
50.64183731151532
 30
0.0
 10
465.666162171106
 20
50.5606014493756
 30
0.0
 10
466.0391522259153
 20
50.47000704591007
 30
0.0
 10
466.3653240229509
 20
50.41279575556302
 30
0.0
 10
466.5671277384558
 20
50.4042538652188
 30
0.0
 10
466.6599012134204
 20
50.40032697592435
 30
0.0
  0
LINE
  5
111
330
1F
100
AcDbEntity
  8
0
  6
Continuous
 62
     7
370
    25
100
AcDbLine
 10
455.0140678801
 20
53.9350491981
 30
0.0
 11
465.2640678801
 21
50.6850491981
 31
0.0
  0
SPLINE
  5
112
330
1F
100
AcDbEntity
  8
0
  6
Continuous
 62
     7
370
    25
100
AcDbSpline
210
0.0
220
0.0
230
1.0
 70
     8
 71
     3
 72
    19
 73
    15
 74
     0
 42
0.000000001
 43
0.00000001
 40
0.0
 40
0.0
 40
0.0
 40
0.0
 40
0.1396297367764233
 40
0.25990271995398
 40
0.36448652336375
 40
0.4554410588056874
 40
0.5010083407893285
 40
0.5525512815467924
 40
0.6100250341091228
 40
0.6740488496158267
 40
0.74426591872736
 40
0.8224538400479103
 40
0.9072985161514945
 40
1.0
 40
1.0
 40
1.0
 40
1.0
 10
452.6112901023093
 20
56.8135214203688
 30
0.0
 10
452.6155608529872
 20
56.61982924428864
 30
0.0
 10
452.6235103037495
 20
56.25929627646065
 30
0.0
 10
452.7073743232514
 20
55.75959187034199
 30
0.0
 10
452.8360853721712
 20
55.33900318543041
 30
0.0
 10
453.0040812723772
 20
55.04617346879891
 30
0.0
 10
453.1757274313492
 20
54.8487123908313
 30
0.0
 10
453.3422401797943
 20
54.71296480424173
 30
0.0
 10
453.5366776858716
 20
54.57236005738494
 30
0.0
 10
453.7669863707964
 20
54.43914786295595
 30
0.0
 10
454.0294790810898
 20
54.30555815435267
 30
0.0
 10
454.3274066036627
 20
54.17959068294713
 30
0.0
 10
454.6589598224536
 20
54.05418950365006
 30
0.0
 10
454.8922572200338
 20
53.97591720702545
 30
0.0
 10
455.014067880087
 20
53.93504919814658
 30
0.0
  0
LINE
  5
113
330
1F
100
AcDbEntity
  8
0
  6
Continuous
 62
     7
370
    25
100
AcDbLine
 10
452.1668456579
 20
56.9558825315
 30
0.0
 11
452.6112901023
 21
56.8135214204
 31
0.0
  0
LINE
  5
114
330
1F
100
AcDbEntity
  8
0
  6
Continuous
 62
     7
370
    25
100
AcDbLine
 10
452.1668456579
 20
48.5079658648
 30
0.0
 11
452.1668456579
 21
56.9558825315
 31
0.0
  0
LINE
  5
115
330
1F
100
AcDbEntity
  8
0
  6
Continuous
 62
     7
370
    25
100
AcDbLine
 10
452.6112901023
 20
48.3794936426
 30
0.0
 11
452.1668456579
 21
48.5079658648
 31
0.0
  0
SPLINE
  5
116
330
1F
100
AcDbEntity
  8
0
  6
Continuous
 62
     7
370
    25
100
AcDbSpline
210
0.0
220
0.0
230
1.0
 70
     8
 71
     3
 72
    15
 73
    11
 74
     0
 42
0.000000001
 43
0.00000001
 40
0.0
 40
0.0
 40
0.0
 40
0.0
 40
0.0838828931016341
 40
0.164405083737629
 40
0.2482756872057488
 40
0.3400121006510518
 40
0.4524300072792454
 40
0.5976484736510035
 40
0.7800167793526412
 40
1.0
 40
1.0
 40
1.0
 40
1.0
 10
453.5800401023092
 20
50.32741030925769
 30
0.0
 10
453.5122522243631
 20
50.32298233426595
 30
0.0
 10
453.3793923367501
 20
50.31430378763518
 30
0.0
 10
453.1902099920949
 20
50.23726146986322
 30
0.0
 10
453.0296837183967
 20
50.10510021645798
 30
0.0
 10
452.8762023148687
 20
49.92792903744773
 30
0.0
 10
452.7645240756228
 20
49.6655456337607
 30
0.0
 10
452.6814634805586
 20
49.32022557047569
 30
0.0
 10
452.6303844457292
 20
48.88081173192845
 30
0.0
 10
452.6180395810777
 20
48.55669983008654
 30
0.0
 10
452.6112901023093
 20
48.37949364259102
 30
0.0
  0
SPLINE
  5
117
330
1F
100
AcDbEntity
  8
0
  6
Continuous
 62
     7
370
    25
100
AcDbSpline
210
0.0
220
0.0
230
1.0
 70
     8
 71
     3
 72
    11
 73
     7
 74
     0
 42
0.000000001
 43
0.00000001
 40
0.0
 40
0.0
 40
0.0
 40
0.0
 40
0.3209342713418533
 40
0.5956038853222293
 40
0.8205083055799943
 40
1.0
 40
1.0
 40
1.0
 40
1.0
 10
455.014067880087
 20
50.00449364259102
 30
0.0
 10
454.864126563302
 20
50.05375192653147
 30
0.0
 10
454.5858588966107
 20
50.14516760855437
 30
0.0
 10
454.1950901502569
 20
50.2454159772564
 30
0.0
 10
453.8668655625366
 20
50.31063474700937
 30
0.0
 10
453.6682124995692
 20
50.32225336978084
 30
0.0
 10
453.5800401023092
 20
50.32741030925769
 30
0.0
  0
LINE
  5
118
330
1F
100
AcDbEntity
  8
0
  6
Continuous
 62
     7
370
    25
100
AcDbLine
 10
459.7224012134
 20
48.4975491981
 30
0.0
 11
455.0140678801
 21
50.0044936426
 31
0.0
  0
LINE
  5
119
330
1F
100
AcDbEntity
  8
0
  6
Continuous
 62
     7
370
    25
100
AcDbLine
 10
459.7224012134
 20
42.2128269759
 30
0.0
 11
459.7224012134
 21
48.4975491981
 31
0.0
  0
LINE
  5
11A
330
1F
100
AcDbEntity
  8
0
  6
Continuous
 62
     7
370
    25
100
AcDbLine
 10
455.0140678801
 20
43.7128269759
 30
0.0
 11
459.7224012134
 21
42.2128269759
 31
0.0
  0
SPLINE
  5
11B
330
1F
100
AcDbEntity
  8
0
  6
Continuous
 62
     7
370
    25
100
AcDbSpline
210
0.0
220
0.0
230
1.0
 70
     8
 71
     3
 72
    19
 73
    15
 74
     0
 42
0.000000001
 43
0.00000001
 40
0.0
 40
0.0
 40
0.0
 40
0.0
 40
0.1389941438517454
 40
0.2595394468088214
 40
0.3644375081017897
 40
0.456416943523988
 40
0.5024047826852535
 40
0.5542557772626342
 40
0.6114679099771679
 40
0.6752002898263507
 40
0.7450977316625683
 40
0.8232620280863221
 40
0.9077204922190681
 40
1.0
 40
1.0
 40
1.0
 40
1.0
 10
452.6112901023093
 20
46.61560475370214
 30
0.0
 10
452.61564487659
 20
46.4219298976062
 30
0.0
 10
452.6237764113184
 20
46.06028685554005
 30
0.0
 10
452.7072302216367
 20
45.55817472265596
 30
0.0
 10
452.836984152056
 20
45.13363974029044
 30
0.0
 10
453.0038442580654
 20
44.83570761576652
 30
0.0
 10
453.1755755925819
 20
44.63358223894944
 30
0.0
 10
453.3410941060782
 20
44.49399258637116
 30
0.0
 10
453.5368652461823
 20
44.35386515499857
 30
0.0
 10
453.7668395772092
 20
44.22011540086434
 30
0.0
 10
454.0303212707605
 20
44.08756634042258
 30
0.0
 10
454.3264604751456
 20
43.95636029825656
 30
0.0
 10
454.6591066332735
 20
43.83230240759207
 30
0.0
 10
454.892307579699
 20
43.75380994119012
 30
0.0
 10
455.014067880087
 20
43.71282697592435
 30
0.0
  0
LINE
  5
11C
330
1F
100
AcDbEntity
  8
0
  6
Continuous
 62
     7
370
    25
100
AcDbLine
 10
452.1668456579
 20
46.8100491981
 30
0.0
 11
452.6112901023
 21
46.6156047537
 31
0.0
  0
LINE
  5
11D
330
1F
100
AcDbEntity
  8
0
  6
Continuous
 62
     7
370
    25
100
AcDbLine
 10
452.1668456579
 20
38.2406047537
 30
0.0
 11
452.1668456579
 21
46.8100491981
 31
0.0
  0
LINE
  5
11E
330
1F
100
AcDbEntity
  8
0
  6
Continuous
 62
     7
370
    25
100
AcDbLine
 10
452.6112901023
 20
38.1121325315
 30
0.0
 11
452.1668456579
 21
38.2406047537
 31
0.0
  0
SPLINE
  5
11F
330
1F
100
AcDbEntity
  8
0
  6
Continuous
 62
     7
370
    25
100
AcDbSpline
210
0.0
220
0.0
230
1.0
 70
     8
 71
     3
 72
    11
 73
     7
 74
     0
 42
0.000000001
 43
0.00000001
 40
0.0
 40
0.0
 40
0.0
 40
0.0
 40
0.1799780752513686
 40
0.4036182583179831
 40
0.6750936606365809
 40
1.0
 40
1.0
 40
1.0
 40
1.0
 10
452.9376789911981
 20
39.75449364259102
 30
0.0
 10
452.89029776611
 20
39.66443320681805
 30
0.0
 10
452.7840407816392
 20
39.46246396040133
 30
0.0
 10
452.692110096932
 20
39.08995643156385
 30
0.0
 10
452.6325274094713
 20
38.63141957043932
 30
0.0
 10
452.618779763654
 20
38.29526705191755
 30
0.0
 10
452.6112901023093
 20
38.11213253147991
 30
0.0
  0
SPLINE
  5
120
330
1F
100
AcDbEntity
  8
0
  6
Continuous
 62
     7
370
    25
100
AcDbSpline
210
0.0
220
0.0
230
1.0
 70
     8
 71
     3
 72
    11
 73
     7
 74
     0
 42
0.000000001
 43
0.00000001
 40
0.0
 40
0.0
 40
0.0
 40
0.0
 40
0.265238390386453
 40
0.5086508061935073
 40
0.7457354141185669
 40
0.9999999999999999
 40
0.9999999999999999
 40
0.9999999999999999
 40
0.9999999999999999
 10
453.5939289911981
 20
40.10171586481324
 30
0.0
 10
453.5249640424923
 20
40.09853500149066
 30
0.0
 10
453.3927091426372
 20
40.09243502218126
 30
0.0
 10
453.2097750334484
 20
40.02261466837209
 30
0.0
 10
453.0519481365193
 20
39.911443989749
 30
0.0
 10
452.9766463462896
 20
39.80801587636837
 30
0.0
 10
452.9376789911981
 20
39.75449364259102
 30
0.0
  0
SPLINE
  5
121
330
1F
100
AcDbEntity
  8
0
  6
Continuous
 62
     7
370
    25
100
AcDbSpline
210
0.0
220
0.0
230
1.0
 70
     8
 71
     3
 72
    11
 73
     7
 74
     0
 42
0.000000001
 43
0.00000001
 40
0.0
 40
0.0
 40
0.0
 40
0.0
 40
0.3293005719297756
 40
0.6053308590964512
 40
0.8266944233249619
 40
1.0
 40
1.0
 40
1.0
 40
1.0
 10
455.0210123245315
 20
39.77879919814659
 30
0.0
 10
454.8675341816914
 20
39.82787388770826
 30
0.0
 10
454.5854057434886
 20
39.9180845539642
 30
0.0
 10
454.1937782231051
 20
40.01884280202134
 30
0.0
 10
453.8715161048596
 20
40.0846032632228
 30
0.0
 10
453.6786288789251
 20
40.09649431322782
 30
0.0
 10
453.5939289911981
 20
40.10171586481324
 30
0.0
  0
LINE
  5
122
330
1F
100
AcDbEntity
  8
0
  6
Continuous
 62
     7
370
    25
100
AcDbLine
 10
465.1703178801
 20
36.5392158648
 30
0.0
 11
455.0210123245
 21
39.7787991981
 31
0.0
  0
SPLINE
  5
123
330
1F
100
AcDbEntity
  8
0
  6
Continuous
 62
     7
370
    25
100
AcDbSpline
210
0.0
220
0.0
230
1.0
 70
     8
 71
     3
 72
    19
 73
    15
 74
     0
 42
0.000000001
 43
0.00000001
 40
0.0
 40
0.0
 40
0.0
 40
0.0
 40
0.1368645818746048
 40
0.2574200385572882
 40
0.3658910661727127
 40
0.4641284679016215
 40
0.5133407993164882
 40
0.5664864059903215
 40
0.6248062671241329
 40
0.6875399266725825
 40
0.7567950258192002
 40
0.8318004657695122
 40
0.9128034004517253
 40
1.0
 40
1.0
 40
1.0
 40
1.0
 10
467.7224012134204
 20
33.48018808703546
 30
0.0
 10
467.7175437615701
 20
33.68085124179179
 30
0.0
 10
467.7084076839563
 20
34.05826602892586
 30
0.0
 10
467.6115634401276
 20
34.58820332735444
 30
0.0
 10
467.4504947248337
 20
35.04161847270737
 30
0.0
 10
467.2583403470535
 20
35.36847412672911
 30
0.0
 10
467.0571851774426
 20
35.58360144611019
 30
0.0
 10
466.8830022884467
 20
35.74252146938279
 30
0.0
 10
466.6734290799039
 20
35.88907951606731
 30
0.0
 10
466.4344718637891
 20
36.03293341677932
 30
0.0
 10
466.1640868822414
 20
36.17081649146056
 30
0.0
 10
465.861162872261
 20
36.30209985005212
 30
0.0
 10
465.5274116449145
 20
36.42735511837154
 30
0.0
 10
465.2922357867998
 20
36.50102469657458
 30
0.0
 10
465.1703178800871
 20
36.53921586481325
 30
0.0
  0
LINE
  5
124
330
1F
100
AcDbEntity
  8
0
  6
Continuous
 62
     7
370
    25
100
AcDbLine
 10
468.1668456579
 20
33.3378269759
 30
0.0
 11
467.7224012134
 21
33.480188087
 31
0.0
  0
LINE
  5
125
330
1F
100
AcDbEntity
  8
0
  6
Continuous
 62
     7
370
    25
100
AcDbLine
 10
468.1668456579
 20
42.0669936426
 30
0.0
 11
468.1668456579
 21
33.3378269759
 31
0.0
  0
LINE
  5
126
330
1F
100
AcDbEntity
  8
0
  6
Continuous
 62
     7
370
    25
100
AcDbLine
 10
467.7224012134
 20
42.2093547537
 30
0.0
 11
468.1668456579
 21
42.0669936426
 31
0.0
  0
SPLINE
  5
127
330
1F
100
AcDbEntity
  8
0
  6
Continuous
 62
     7
370
    25
100
AcDbSpline
210
0.0
220
0.0
230
1.0
 70
     8
 71
     3
 72
    19
 73
    15
 74
     0
 42
0.000000001
 43
0.00000001
 40
0.0
 40
0.0
 40
0.0
 40
0.0
 40
0.089275795667906
 40
0.1702144845000534
 40
0.2490519858997823
 40
0.3300691091411213
 40
0.3760487448918074
 40
0.4328353986160335
 40
0.4988986743288182
 40
0.5766584609469164
 40
0.6654655070452404
 40
0.7647228132834721
 40
0.8770509819590697
 40
1.0
 40
1.0
 40
1.0
 40
1.0
 10
466.6425401023093
 20
40.18157697592435
 30
0.0
 10
466.7194735327793
 20
40.18477650798047
 30
0.0
 10
466.8661558906379
 20
40.1908767806859
 30
0.0
 10
467.0720874458966
 20
40.25955855368802
 30
0.0
 10
467.2465162889683
 20
40.37438115174515
 30
0.0
 10
467.3682247039857
 20
40.50510084728974
 30
0.0
 10
467.452648224207
 20
40.63930875732984
 30
0.0
 10
467.5050864648423
 20
40.77530825997918
 30
0.0
 10
467.5519106368857
 20
40.94108841354578
 30
0.0
 10
467.6032153605041
 20
41.13451282947216
 30
0.0
 10
467.6371063383392
 20
41.36061920140798
 30
0.0
 10
467.6741271447281
 20
41.61602518357395
 30
0.0
 10
467.6995611137124
 20
41.90244505162418
 30
0.0
 10
467.714562122383
 20
42.10401838802986
 30
0.0
 10
467.7224012134204
 20
42.20935475370213
 30
0.0
  0
SPLINE
  5
128
330
1F
100
AcDbEntity
  8
0
  6
Continuous
 62
     7
370
    25
100
AcDbSpline
210
0.0
220
0.0
230
1.0
 70
     8
 71
     3
 72
    11
 73
     7
 74
     0
 42
0.000000001
 43
0.00000001
 40
0.0
 40
0.0
 40
0.0
 40
0.0
 40
0.3133943717442245
 40
0.5843921871652764
 40
0.8110762191399831
 40
1.0
 40
1.0
 40
1.0
 40
1.0
 10
465.2015678800871
 20
40.46629919814658
 30
0.0
 10
465.3493490838172
 20
40.42323198111792
 30
0.0
 10
465.6249193832745
 20
40.34292375792162
 30
0.0
 10
466.0126951783017
 20
40.25174120669041
 30
0.0
 10
466.3457056899953
 20
40.19438288767037
 30
0.0
 10
466.5497755883473
 20
40.18557898556231
 30
0.0
 10
466.6425401023093
 20
40.18157697592435
 30
0.0
  0
LINE
  5
129
330
1F
100
AcDbEntity
  8
0
  6
Continuous
 62
     7
370
    25
100
AcDbLine
 10
460.6112901023
 20
41.9246325315
 30
0.0
 11
465.2015678801
 21
40.4662991981
 31
0.0
  0
LINE
  5
12A
330
1F
100
AcDbEntity
  8
0
  6
Continuous
 62
     7
370
    25
100
AcDbLine
 10
460.6112901023
 20
48.2162991981
 30
0.0
 11
460.6112901023
 21
41.9246325315
 31
0.0
  0
LINE
  5
12B
330
1F
100
AcDbEntity
  8
0
  6
Continuous
 62
     7
370
    25
100
AcDbLine
 10
465.1633734356
 20
46.761438087
 30
0.0
 11
460.6112901023
 21
48.2162991981
 31
0.0
  0
SPLINE
  5
12C
330
1F
100
AcDbEntity
  8
0
  6
Continuous
 62
     7
370
    25
100
AcDbSpline
210
0.0
220
0.0
230
1.0
 70
     8
 71
     3
 72
    19
 73
    15
 74
     0
 42
0.000000001
 43
0.00000001
 40
0.0
 40
0.0
 40
0.0
 40
0.0
 40
0.1310540888886168
 40
0.2459830872739955
 40
0.3490975707258692
 40
0.4429144121711006
 40
0.4906446716871495
 40
0.5442418470375671
 40
0.6033034571379222
 40
0.6681235869290211
 40
0.7408165199233822
 40
0.819789621826926
 40
0.9064475560033132
 40
1.0
 40
1.0
 40
1.0
 40
1.0
 10
467.7224012134204
 20
43.85518808703547
 30
0.0
 10
467.7169256222969
 20
44.04190930534424
 30
0.0
 10
467.7066481649461
 20
44.39237728485304
 30
0.0
 10
467.6179495885062
 20
44.88407998743461
 30
0.0
 10
467.4662567006508
 20
45.30343206666235
 30
0.0
 10
467.2854471643465
 20
45.60575459987749
 30
0.0
 10
467.09384907365
 20
45.80805096960419
 30
0.0
 10
466.9206222992692
 20
45.95765046820038
 30
0.0
 10
466.7099082176008
 20
46.0980249016711
 30
0.0
 10
466.4675285304827
 20
46.23834628468988
 30
0.0
 10
466.1909448325864
 20
46.3748964338625
 30
0.0
 10
465.8804912556226
 20
46.5125104004849
 30
0.0
 10
465.5329941028894
 20
46.63753174011849
 30
0.0
 10
465.2896831971309
 20
46.71909580882211
 30
0.0
 10
465.1633734356425
 20
46.76143808703547
 30
0.0
  0
SPLINE
  5
12D
330
1F
100
AcDbEntity
  8
0
  6
Continuous
 62
     7
370
    25
100
AcDbSpline
210
0.0
220
0.0
230
1.0
 70
     8
 71
     3
 72
    14
 73
    10
 74
     0
 42
0.000000001
 43
0.00000001
 40
0.0
 40
0.0
 40
0.0
 40
0.0
 40
0.1119987462741029
 40
0.2263769647208768
 40
0.3444810589157277
 40
0.4665438294994976
 40
0.5928106159686127
 40
0.7229919716976373
 40
0.7748670422389198
 40
0.7748670422389198
 40
0.7748670422389198
 40
0.7748670422389198
 10
452.9272623245315
 20
102.7822714203688
 30
0.0
 10
452.8488143413026
 20
102.9515106296862
 30
0.0
 10
452.6902517062499
 20
103.2935846241866
 30
0.0
 10
452.4873679996651
 20
103.8309030573828
 30
0.0
 10
452.3235702870775
 20
104.3985291005271
 30
0.0
 10
452.1835609705897
 20
104.9927047207453
 30
0.0
 10
452.0766880568859
 20
105.614315943349
 30
0.0
 10
452.0179953370151
 20
106.1244951263328
 30
0.0
 10
451.9912295067559
 20
106.4265749948563
 30
0.0
 10
451.9844198144352
 20
106.5127069523635
 30
0.0
  0
SPLINE
  5
12E
330
1F
100
AcDbEntity
  8
0
  6
Continuous
 62
     7
370
    25
100
AcDbSpline
210
0.0
220
0.0
230
1.0
 70
     8
 71
     3
 72
    23
 73
    19
 74
     0
 42
0.000000001
 43
0.00000001
 40
0.0
 40
0.0
 40
0.0
 40
0.0
 40
0.0574066102583503
 40
0.1153002472796315
 40
0.1743257101184892
 40
0.2344205258159861
 40
0.2965061415755653
 40
0.3606929998958642
 40
0.4273160324649545
 40
0.4966748873233046
 40
0.5663700906973156
 40
0.6335404020595088
 40
0.6985473793031544
 40
0.7617978724266079
 40
0.8232999840418124
 40
0.8831564165274051
 40
0.9419686907568752
 40
1.0
 40
1.0
 40
1.0
 40
1.0
 10
463.0730956578648
 20
95.95588253147993
 30
0.0
 10
462.8285073867646
 20
95.96128403168106
 30
0.0
 10
462.3372558041917
 20
95.97213285738366
 30
0.0
 10
461.6013857793074
 20
96.08029995777189
 30
0.0
 10
460.8643839668023
 20
96.24095033150739
 30
0.0
 10
460.12771320256
 20
96.47381377996695
 30
0.0
 10
459.3906226039524
 20
96.7696318837946
 30
0.0
 10
458.6531381684582
 20
97.13287506278525
 30
0.0
 10
457.9157685496003
 20
97.56161509995995
 30
0.0
 10
457.1889071417726
 20
98.05108897265173
 30
0.0
 10
456.4871009635164
 20
98.57935078733807
 30
0.0
 10
455.824617087316
 20
99.12763940173465
 30
0.0
 10
455.2152176256282
 20
99.69503804702384
 30
0.0
 10
454.6564152146538
 20
100.2790654071789
 30
0.0
 10
454.1424985258303
 20
100.8746970367383
 30
0.0
 10
453.687731493332
 20
101.4931862024021
 30
0.0
 10
453.2771643186904
 20
102.1246394106153
 30
0.0
 10
453.0433754526798
 20
102.5640397123544
 30
0.0
 10
452.9272623245315
 20
102.7822714203688
 30
0.0
  0
SPLINE
  5
12F
330
1F
100
AcDbEntity
  8
0
  6
Continuous
 62
     7
370
    25
100
AcDbSpline
210
0.0
220
0.0
230
1.0
 70
     8
 71
     3
 72
    22
 73
    18
 74
     0
 42
0.000000001
 43
0.00000001
 40
0.1646849246702322
 40
0.1646849246702322
 40
0.1646849246702322
 40
0.1646849246702322
 40
0.1762792405242839
 40
0.2639757481084021
 40
0.3526909075115331
 40
0.3970853088503085
 40
0.4406391675677782
 40
0.4834466465826653
 40
0.5258308375560119
 40
0.5675072053137246
 40
0.6092268133055387
 40
0.6509410187192982
 40
0.6930852419111682
 40
0.7747866517425475
 40
0.8524596275210881
 40
0.9269248599543083
 40
1.0
 40
1.0
 40
1.0
 40
1.0
 10
468.2316957275092
 20
100.5885226433444
 30
0.0
 10
468.224197946322
 20
100.5546737285312
 30
0.0
 10
468.1579719933181
 20
100.2652390583533
 30
0.0
 10
468.0021565447051
 20
99.72471231030329
 30
0.0
 10
467.7345185922647
 20
99.12037112025065
 30
0.0
 10
467.4890737385219
 20
98.65306375566765
 30
0.0
 10
467.277721868499
 20
98.32445510444585
 30
0.0
 10
467.0577155422076
 20
98.00886250776166
 30
0.0
 10
466.8130203676309
 20
97.71918298565065
 30
0.0
 10
466.5560129516414
 20
97.44496308512662
 30
0.0
 10
466.2773137467981
 20
97.19551543094487
 30
0.0
 10
465.9806138249867
 20
96.9658031848929
 30
0.0
 10
465.571225266135
 20
96.68834003413409
 30
0.0
 10
465.0420801870276
 20
96.39742697343777
 30
0.0
 10
464.3888855756765
 20
96.14728644541361
 30
0.0
 10
463.7328318583734
 20
95.98256848327212
 30
0.0
 10
463.2916220647057
 20
95.9647217995901
 30
0.0
 10
463.0730956578648
 20
95.95588253147993
 30
0.0
  0
LINE
  5
130
330
1F
100
AcDbEntity
  8
0
  6
Continuous
 62
     7
370
    25
100
AcDbLine
 10
468.2316957275
 20
100.5885226433
 30
0.0
 11
467.0939789416
 21
101.1907354151
 31
0.0
  0
SPLINE
  5
131
330
1F
100
AcDbEntity
  8
0
  6
Continuous
 62
     7
370
    25
100
AcDbSpline
210
0.0
220
0.0
230
1.0
 70
     8
 71
     3
 72
    16
 73
    12
 74
     0
 42
0.000000001
 43
0.00000001
 40
0.0
 40
0.0
 40
0.0
 40
0.0
 40
0.0894554697021934
 40
0.1727495648573546
 40
0.2502307452642657
 40
0.32311516557825
 40
0.3903728252213911
 40
0.453447584155259
 40
0.5138254244100742
 40
0.5710748391382079
 40
0.6792424139463111
 40
0.6792424139463111
 40
0.6792424139463111
 40
0.6792424139463111
 10
464.4689289911981
 20
100.1781047537021
 30
0.0
 10
464.5974674126693
 20
100.1799630647806
 30
0.0
 10
464.8456909863704
 20
100.1835516930808
 30
0.0
 10
465.2041743459135
 20
100.2149042801491
 30
0.0
 10
465.5361160201342
 20
100.2665910445223
 30
0.0
 10
465.8409120220774
 20
100.3378794244798
 30
0.0
 10
466.1180709940488
 20
100.4315160122594
 30
0.0
 10
466.3668036558809
 20
100.5472921941249
 30
0.0
 10
466.5907832712512
 20
100.6804047416441
 30
0.0
 10
466.8400252462787
 20
100.8890796713644
 30
0.0
 10
467.0026610835538
 20
101.0649073825509
 30
0.0
 10
467.0939789415788
 20
101.1907354150988
 30
0.0
  0
SPLINE
  5
132
330
1F
100
AcDbEntity
  8
0
  6
Continuous
 62
     7
370
    25
100
AcDbSpline
210
0.0
220
0.0
230
1.0
 70
     8
 71
     3
 72
    23
 73
    19
 74
     0
 42
0.000000001
 43
0.00000001
 40
0.0
 40
0.0
 40
0.0
 40
0.0
 40
0.0550365965667466
 40
0.1115165727755467
 40
0.1699405560001665
 40
0.2308068714424626
 40
0.2935705938893316
 40
0.3592633162349386
 40
0.4280801018605329
 40
0.4995435849370673
 40
0.5711524800844321
 40
0.6401690919854353
 40
0.7061471163615403
 40
0.7697115981010539
 40
0.8308444090471738
 40
0.8894957350021964
 40
0.94570064232991
 40
1.0
 40
1.0
 40
1.0
 40
1.0
 10
453.6842067689759
 20
104.6503269759244
 30
0.0
 10
453.8309051446895
 20
104.4869042018141
 30
0.0
 10
454.1281491806915
 20
104.1557727580275
 30
0.0
 10
454.6300562403151
 20
103.6988939672565
 30
0.0
 10
455.1766362625829
 20
103.2594826199506
 30
0.0
 10
455.7729689197363
 20
102.8442326083331
 30
0.0
 10
456.4200157932028
 20
102.4542760572692
 30
0.0
 10
457.1159013228494
 20
102.086477584382
 30
0.0
 10
457.8613291514833
 20
101.7406031765101
 30
0.0
 10
458.6444557570806
 20
101.4222889921797
 30
0.0
 10
459.4407626757304
 20
101.1369317791512
 30
0.0
 10
460.2225491838036
 20
100.8759193800672
 30
0.0
 10
460.9865172452419
 20
100.6667852986533
 30
0.0
 10
461.7252773125925
 20
100.4855019528038
 30
0.0
 10
462.4446557075073
 20
100.3531408966893
 30
0.0
 10
463.1388144645463
 20
100.2477453202987
 30
0.0
 10
463.8117840623256
 20
100.1928305401596
 30
0.0
 10
464.2524134379822
 20
100.1829565933212
 30
0.0
 10
464.4689289911982
 20
100.1781047537021
 30
0.0
  0
SPLINE
  5
133
330
1F
100
AcDbEntity
  8
0
  6
Continuous
 62
     7
370
    25
100
AcDbSpline
210
0.0
220
0.0
230
1.0
 70
     8
 71
     3
 72
    13
 73
     9
 74
     0
 42
0.000000001
 43
0.00000001
 40
0.3262453742185739
 40
0.3262453742185739
 40
0.3262453742185739
 40
0.3262453742185739
 40
0.3880882699731841
 40
0.5114358254233725
 40
0.6333490582047312
 40
0.7543572062134122
 40
0.87611885494086
 40
1.0
 40
1.0
 40
1.0
 40
1.0
 10
452.9155212410061
 20
106.217936276223
 30
0.0
 10
452.9263548275546
 20
106.1650477242264
 30
0.0
 10
452.9623035961732
 20
106.0073929195859
 30
0.0
 10
453.0398135120317
 20
105.750363116485
 30
0.0
 10
453.1626180899768
 20
105.454789703886
 30
0.0
 10
453.3082804057997
 20
105.1713633019441
 30
0.0
 10
453.4832963973993
 20
104.9027206679934
 30
0.0
 10
453.6168525213379
 20
104.7349407621838
 30
0.0
 10
453.6842067689759
 20
104.6503269759244
 30
0.0
  0
LINE
  5
134
330
1F
100
AcDbEntity
  8
0
  6
Continuous
 62
     7
370
    25
100
AcDbLine
 10
452.915521241
 20
106.2179362762
 30
0.0
 11
451.9844198144
 21
106.5127069524
 31
0.0
  0
SPLINE
  5
135
330
1F
100
AcDbEntity
  8
0
  6
Continuous
 62
     7
370
    25
100
AcDbSpline
210
0.0
220
0.0
230
1.0
 70
     8
 71
     3
 72
    33
 73
    29
 74
     0
 42
0.000000001
 43
0.00000001
 40
0.0666947596628121
 40
0.0666947596628121
 40
0.0666947596628121
 40
0.0666947596628121
 40
0.0929711284030138
 40
0.1202543999607985
 40
0.1478428885998553
 40
0.1776415570028015
 40
0.2105088702372122
 40
0.24603625169004
 40
0.2852370932563277
 40
0.3287286932950912
 40
0.3771197190012068
 40
0.4303983775953529
 40
0.4591279485088919
 40
0.4898460993309824
 40
0.5224785418996297
 40
0.5568730726693556
 40
0.593450586543165
 40
0.6319323174788577
 40
0.6725620663059442
 40
0.715136482959075
 40
0.7577454822454935
 40
0.7981362007704494
 40
0.836618640517646
 40
0.8731775066645875
 40
0.9076631174634082
 40
0.940343170004681
 40
0.9710293375513941
 40
0.9999999999999999
 40
0.9999999999999999
 40
0.9999999999999999
 40
0.9999999999999999
 10
467.4093120431354
 20
103.4766757664568
 30
0.0
 10
467.3834854648788
 20
103.6043939448092
 30
0.0
 10
467.3187638793289
 20
103.8622222878745
 30
0.0
 10
467.1747416194935
 20
104.2390900414605
 30
0.0
 10
466.9718044316641
 20
104.6072736884998
 30
0.0
 10
466.7234962417277
 20
104.9800628666758
 30
0.0
 10
466.4113155314662
 20
105.3540356358414
 30
0.0
 10
466.0493044758903
 20
105.7460678341324
 30
0.0
 10
465.6100457521758
 20
106.135043013557
 30
0.0
 10
465.0927880311606
 20
106.5288133022846
 30
0.0
 10
464.4896343212782
 20
106.9216498961702
 30
0.0
 10
463.9318561106871
 20
107.248359696469
 30
0.0
 10
463.437451953179
 20
107.5087702920768
 30
0.0
 10
463.0233187798682
 20
107.7005617312967
 30
0.0
 10
462.5804302712892
 20
107.8968773719775
 30
0.0
 10
462.1016683461487
 20
108.0826064234644
 30
0.0
 10
461.592816999645
 20
108.2703981413771
 30
0.0
 10
461.0498099357111
 20
108.4544743953034
 30
0.0
 10
460.474200461577
 20
108.6343202301147
 30
0.0
 10
459.8753808008558
 20
108.8078846819798
 30
0.0
 10
459.2755364877163
 20
108.9736835825472
 30
0.0
 10
458.6903942922836
 20
109.1153702826011
 30
0.0
 10
458.1317810812391
 20
109.2388882987751
 30
0.0
 10
457.597495989048
 20
109.3349192239815
 30
0.0
 10
457.0893220203475
 20
109.4127281907594
 30
0.0
 10
456.6075104068779
 20
109.4676792499851
 30
0.0
 10
456.1512566553715
 20
109.505838103559
 30
0.0
 10
455.8555743475134
 20
109.5096075576304
 30
0.0
 10
455.7119845467537
 20
109.5114380870355
 30
0.0
  0
LINE
  5
136
330
1F
100
AcDbEntity
  8
0
  6
Continuous
 62
     7
370
    25
100
AcDbLine
 10
468.3456641268
 20
102.9810487428
 30
0.0
 11
467.4093120431
 21
103.4766757665
 31
0.0
  0
SPLINE
  5
137
330
1F
100
AcDbEntity
  8
0
  6
Continuous
 62
     7
370
    25
100
AcDbSpline
210
0.0
220
0.0
230
1.0
 70
     8
 71
     3
 72
    30
 73
    26
 74
     0
 42
0.000000001
 43
0.00000001
 40
0.0
 40
0.0
 40
0.0
 40
0.0
 40
0.0366688450498968
 40
0.0737901300589247
 40
0.1113526627592068
 40
0.1496059931115268
 40
0.1889503426158452
 40
0.2293936261351334
 40
0.2711188521690911
 40
0.3144627720436378
 40
0.3583580181233947
 40
0.401978472147244
 40
0.4454859085418611
 40
0.4890433610104921
 40
0.5328303307620577
 40
0.5770421604928081
 40
0.6218152214188923
 40
0.6672989516175181
 40
0.7124828271874305
 40
0.7564468375420502
 40
0.7990798464791394
 40
0.840672289760975
 40
0.8812651656010192
 40
0.921320518362453
 40
0.9469998955145504
 40
0.9469998955145504
 40
0.9469998955145504
 40
0.9469998955145504
 10
457.4585123245315
 20
113.7336603092577
 30
0.0
 10
457.6728999374209
 20
113.7295448069065
 30
0.0
 10
458.1043203930315
 20
113.7212630229197
 30
0.0
 10
458.75045421623
 20
113.6356850120578
 30
0.0
 10
459.3985161995705
 20
113.5089166587208
 30
0.0
 10
460.0468835878825
 20
113.3259987772157
 30
0.0
 10
460.6966500788806
 20
113.0930241599438
 30
0.0
 10
461.3472275281314
 20
112.8070619790988
 30
0.0
 10
461.9979102375258
 20
112.4677143734684
 30
0.0
 10
462.6461443037979
 20
112.0825376824553
 30
0.0
 10
463.2777436311933
 20
111.6505375469481
 30
0.0
 10
463.8828440161277
 20
111.1808158226857
 30
0.0
 10
464.4581705336965
 20
110.6777278637811
 30
0.0
 10
464.9958165776013
 20
110.1333125190881
 30
0.0
 10
465.5054008051645
 20
109.5570540289646
 30
0.0
 10
465.97674206711
 20
108.9400635989667
 30
0.0
 10
466.4184752305801
 20
108.2897826275046
 30
0.0
 10
466.8253527337301
 20
107.6103870553349
 30
0.0
 10
467.1906790684524
 20
106.9132485059583
 30
0.0
 10
467.5119587030017
 20
106.2128446653133
 30
0.0
 10
467.7780754082787
 20
105.5122303663276
 30
0.0
 10
468.0039296424224
 20
104.8181862034463
 30
0.0
 10
468.1726699283068
 20
104.1234978071074
 30
0.0
 10
468.2852727656646
 20
103.5121333639649
 30
0.0
 10
468.33158673659
 20
103.130482635651
 30
0.0
 10
468.3456641273709
 20
102.9810487428658
 30
0.0
  0
SPLINE
  5
138
330
1F
100
AcDbEntity
  8
0
  6
Continuous
 62
     7
370
    25
100
AcDbSpline
210
0.0
220
0.0
230
1.0
 70
     8
 71
     3
 72
    26
 73
    22
 74
     0
 42
0.000000001
 43
0.00000001
 40
0.0923790550911912
 40
0.0923790550911912
 40
0.0923790550911912
 40
0.0923790550911912
 40
0.1105151703511648
 40
0.1615841461422237
 40
0.2109018543318012
 40
0.2577828854428851
 40
0.3025284401446191
 40
0.3458975172177083
 40
0.387868473680983
 40
0.4288888929845946
 40
0.4689010291722096
 40
0.5085524334172926
 40
0.5478308286515721
 40
0.5869529038591587
 40
0.6261379414080804
 40
0.6658053294684817
 40
0.7057663836890458
 40
0.7842738454911492
 40
0.858944575891044
 40
0.9304190319921986
 40
1.0
 40
1.0
 40
1.0
 40
1.0
 10
451.9774378621572
 20
108.490173676527
 30
0.0
 10
451.9822895689317
 20
108.5459061365348
 30
0.0
 10
452.0025414994945
 20
108.7584493879239
 30
0.0
 10
452.0454649565759
 20
109.1216024335733
 30
0.0
 10
452.1337343451594
 20
109.5674622712219
 30
0.0
 10
452.2398041088277
 20
109.9891530948395
 30
0.0
 10
452.3712001504853
 20
110.3847999642351
 30
0.0
 10
452.5328043266788
 20
110.752338744968
 30
0.0
 10
452.7117521064301
 20
111.0990597142036
 30
0.0
 10
452.9197351091786
 20
111.4167260367485
 30
0.0
 10
453.1374544041889
 20
111.7188594552045
 30
0.0
 10
453.3782790604235
 20
111.9961338710688
 30
0.0
 10
453.6356092801043
 20
112.2539898892044
 30
0.0
 10
453.9105532419791
 20
112.4910492806494
 30
0.0
 10
454.2043179330698
 20
112.7060177831557
 30
0.0
 10
454.5119065812752
 20
112.9058666307558
 30
0.0
 10
454.9446745845869
 20
113.131478578851
 30
0.0
 10
455.4914546381503
 20
113.3705427410631
 30
0.0
 10
456.1542879960024
 20
113.5751423334508
 30
0.0
 10
456.8084658652623
 20
113.709076505726
 30
0.0
 10
457.2437780071068
 20
113.725539372368
 30
0.0
 10
457.4585123245315
 20
113.7336603092577
 30
0.0
  0
LINE
  5
139
330
1F
100
AcDbEntity
  8
0
  6
Continuous
 62
     7
370
    25
100
AcDbLine
 10
453.0625910374
 20
108.1466328702
 30
0.0
 11
451.9774378622
 21
108.4901736765
 31
0.0
  0
SPLINE
  5
13A
330
1F
100
AcDbEntity
  8
0
  6
Continuous
 62
     7
370
    25
100
AcDbSpline
210
0.0
220
0.0
230
1.0
 70
     8
 71
     3
 72
    19
 73
    15
 74
     0
 42
0.000000001
 43
0.00000001
 40
0.0
 40
0.0
 40
0.0
 40
0.0
 40
0.0805123034262371
 40
0.1564635436569055
 40
0.2283703368767288
 40
0.2956041191384649
 40
0.3606804238357177
 40
0.4224808780938948
 40
0.4817767388228506
 40
0.5406868858763617
 40
0.5981778499999633
 40
0.6549284569325659
 40
0.7104192212172133
 40
0.7395515994850327
 40
0.7395515994850327
 40
0.7395515994850327
 40
0.7395515994850327
 10
455.7119845467537
 20
109.5114380870355
 30
0.0
 10
455.5973471872375
 20
109.5094435456413
 30
0.0
 10
455.3745667332937
 20
109.5055674546439
 30
0.0
 10
455.0502952829294
 20
109.4754740004368
 30
0.0
 10
454.749098562453
 20
109.4186294570443
 30
0.0
 10
454.4668653710311
 20
109.347190974994
 30
0.0
 10
454.2075370011352
 20
109.2501014136108
 30
0.0
 10
453.9692972271254
 20
109.1325189633733
 30
0.0
 10
453.7551388815625
 20
108.9907752350708
 30
0.0
 10
453.5605406975491
 20
108.8327021531766
 30
0.0
 10
453.3903089979947
 20
108.6536010248011
 30
0.0
 10
453.2407982701862
 20
108.463321743585
 30
0.0
 10
453.1337387220844
 20
108.292247353438
 30
0.0
 10
453.0800193913659
 20
108.1842981577411
 30
0.0
 10
453.0625910374149
 20
108.1466328701791
 30
0.0
  0
LINE
  5
13B
330
1F
100
AcDbEntity
  8
0
  6
Continuous
 62
     7
370
    25
100
AcDbLine
 10
463.2710123245
 20
20.8447714204
 30
0.0
 11
461.364271937
 21
22.628287089
 31
0.0
  0
LINE
  5
13C
330
1F
100
AcDbEntity
  8
0
  6
Continuous
 62
     7
370
    25
100
AcDbLine
 10
461.4668220168
 20
20.9233212025
 30
0.0
 11
463.2710123245
 21
20.8447714204
 31
0.0
  0
LINE
  5
13D
330
1F
100
AcDbEntity
  8
0
  6
Continuous
 62
     7
370
    25
100
AcDbLine
 10
461.4668220168
 20
20.9233212025
 30
0.0
 11
461.4668220168
 21
17.28915719
 31
0.0
  0
LINE
  5
13E
330
1F
100
AcDbEntity
  8
0
  6
Continuous
 62
     7
370
    25
100
AcDbLine
 10
468.3890678801
 20
17.0669936426
 30
0.0
 11
461.4668220168
 21
17.28915719
 31
0.0
  0
LINE
  5
13F
330
1F
100
AcDbEntity
  8
0
  6
Continuous
 62
     7
370
    25
100
AcDbLine
 10
468.3890678801
 20
17.511438087
 30
0.0
 11
468.3890678801
 21
17.0669936426
 31
0.0
  0
LINE
  5
140
330
1F
100
AcDbEntity
  8
0
  6
Continuous
 62
     7
370
    25
100
AcDbLine
 10
462.0488529487
 20
23.3692453606
 30
0.0
 11
468.3890678801
 21
17.511438087
 31
0.0
  0
LINE
  5
141
330
1F
100
AcDbEntity
  8
0
  6
Continuous
 62
     7
370
    25
100
AcDbLine
 10
462.0488529487
 20
23.3692453606
 30
0.0
 11
461.364271937
 21
22.628287089
 31
0.0
  0
LINE
  5
142
330
1F
100
AcDbEntity
  8
0
  6
Continuous
 62
     7
370
    25
100
AcDbLine
 10
122.0100608096
 20
186.6252696146
 30
0.0
 11
117.6100608096
 21
186.6252696146
 31
0.0
  0
LINE
  5
143
330
1F
100
AcDbEntity
  8
0
  6
Continuous
 62
     7
370
    25
100
AcDbLine
 10
117.6100608096
 20
186.6252696146
 30
0.0
 11
117.6100608096
 21
156.2252696146
 31
0.0
  0
LINE
  5
144
330
1F
100
AcDbEntity
  8
0
  6
Continuous
 62
     7
370
    25
100
AcDbLine
 10
117.6100608096
 20
156.2252696146
 30
0.0
 11
122.0100608096
 21
156.2252696146
 31
0.0
  0
LINE
  5
145
330
1F
100
AcDbEntity
  8
0
  6
Continuous
 62
     7
370
    25
100
AcDbLine
 10
122.0100608096
 20
156.2252696146
 30
0.0
 11
122.0100608096
 21
186.6252696146
 31
0.0
  0
LINE
  5
146
330
1F
100
AcDbEntity
  8
0
  6
Continuous
 62
     7
370
    25
100
AcDbLine
 10
117.6100608096
 20
236.2252696146
 30
0.0
 11
122.0100608096
 21
236.2252696146
 31
0.0
  0
LINE
  5
147
330
1F
100
AcDbEntity
  8
0
  6
Continuous
 62
     7
370
    25
100
AcDbLine
 10
122.0100608096
 20
236.2252696146
 30
0.0
 11
122.0100608096
 21
266.6252696146
 31
0.0
  0
LINE
  5
148
330
1F
100
AcDbEntity
  8
0
  6
Continuous
 62
     7
370
    25
100
AcDbLine
 10
122.0100608096
 20
266.6252696146
 30
0.0
 11
117.6100608096
 21
266.6252696146
 31
0.0
  0
LINE
  5
149
330
1F
100
AcDbEntity
  8
0
  6
Continuous
 62
     7
370
    25
100
AcDbLine
 10
117.6100608096
 20
266.6252696146
 30
0.0
 11
117.6100608096
 21
236.2252696146
 31
0.0
  0
LINE
  5
14A
330
1F
100
AcDbEntity
  8
0
  6
Continuous
 62
     7
370
    25
100
AcDbLine
 10
17.6100608096
 20
186.6252696146
 30
0.0
 11
17.6100608096
 21
156.2252696146
 31
0.0
  0
LINE
  5
14B
330
1F
100
AcDbEntity
  8
0
  6
Continuous
 62
     7
370
    25
100
AcDbLine
 10
17.6100608096
 20
156.2252696146
 30
0.0
 11
22.0100608096
 21
156.2252696146
 31
0.0
  0
LINE
  5
14C
330
1F
100
AcDbEntity
  8
0
  6
Continuous
 62
     7
370
    25
100
AcDbLine
 10
22.0100608096
 20
156.2252696146
 30
0.0
 11
22.0100608096
 21
186.6252696146
 31
0.0
  0
LINE
  5
14D
330
1F
100
AcDbEntity
  8
0
  6
Continuous
 62
     7
370
    25
100
AcDbLine
 10
22.0100608096
 20
186.6252696146
 30
0.0
 11
17.6100608096
 21
186.6252696146
 31
0.0
  0
LINE
  5
14E
330
1F
100
AcDbEntity
  8
0
  6
Continuous
 62
     7
370
    25
100
AcDbLine
 10
198.6100608096
 20
192.1252696146
 30
0.0
 11
198.6100608096
 21
171.7252696146
 31
0.0
  0
LINE
  5
14F
330
1F
100
AcDbEntity
  8
0
  6
Continuous
 62
     7
370
    25
100
AcDbLine
 10
198.6100608096
 20
171.7252696146
 30
0.0
 11
203.0100608096
 21
171.7252696146
 31
0.0
  0
LINE
  5
150
330
1F
100
AcDbEntity
  8
0
  6
Continuous
 62
     7
370
    25
100
AcDbLine
 10
203.0100608096
 20
171.7252696146
 30
0.0
 11
203.0100608096
 21
192.1252696146
 31
0.0
  0
LINE
  5
151
330
1F
100
AcDbEntity
  8
0
  6
Continuous
 62
     7
370
    25
100
AcDbLine
 10
203.0100608096
 20
192.1252696146
 30
0.0
 11
198.6100608096
 21
192.1252696146
 31
0.0
  0
LINE
  5
152
330
1F
100
AcDbEntity
  8
0
  6
Continuous
 62
     7
370
    25
100
AcDbLine
 10
179.0100608096
 20
281.5252696146
 30
0.0
 11
179.0100608096
 21
285.9252696146
 31
0.0
  0
LINE
  5
153
330
1F
100
AcDbEntity
  8
0
  6
Continuous
 62
     7
370
    25
100
AcDbLine
 10
179.0100608096
 20
285.9252696146
 30
0.0
 11
148.6100608096
 21
285.9252696146
 31
0.0
  0
LINE
  5
154
330
1F
100
AcDbEntity
  8
0
  6
Continuous
 62
     7
370
    25
100
AcDbLine
 10
148.6100608096
 20
285.9252696146
 30
0.0
 11
148.6100608096
 21
281.5252696146
 31
0.0
  0
LINE
  5
155
330
1F
100
AcDbEntity
  8
0
  6
Continuous
 62
     7
370
    25
100
AcDbLine
 10
148.6100608096
 20
281.5252696146
 30
0.0
 11
179.0100608096
 21
281.5252696146
 31
0.0
  0
LINE
  5
156
330
1F
100
AcDbEntity
  8
0
  6
Continuous
 62
     7
370
    25
100
AcDbLine
 10
203.0100608096
 20
251.7252696146
 30
0.0
 11
203.0100608096
 21
272.1252696146
 31
0.0
  0
LINE
  5
157
330
1F
100
AcDbEntity
  8
0
  6
Continuous
 62
     7
370
    25
100
AcDbLine
 10
203.0100608096
 20
272.1252696146
 30
0.0
 11
198.6100608096
 21
272.1252696146
 31
0.0
  0
LINE
  5
158
330
1F
100
AcDbEntity
  8
0
  6
Continuous
 62
     7
370
    25
100
AcDbLine
 10
198.6100608096
 20
272.1252696146
 30
0.0
 11
198.6100608096
 21
251.7252696146
 31
0.0
  0
LINE
  5
159
330
1F
100
AcDbEntity
  8
0
  6
Continuous
 62
     7
370
    25
100
AcDbLine
 10
198.6100608096
 20
251.7252696146
 30
0.0
 11
203.0100608096
 21
251.7252696146
 31
0.0
  0
LINE
  5
15A
330
1F
100
AcDbEntity
  8
0
  6
Continuous
 62
     7
370
    25
100
AcDbLine
 10
38.6100608096
 20
285.9252696146
 30
0.0
 11
38.6100608096
 21
281.5252696146
 31
0.0
  0
LINE
  5
15B
330
1F
100
AcDbEntity
  8
0
  6
Continuous
 62
     7
370
    25
100
AcDbLine
 10
38.6100608096
 20
281.5252696146
 30
0.0
 11
69.0100608096
 21
281.5252696146
 31
0.0
  0
LINE
  5
15C
330
1F
100
AcDbEntity
  8
0
  6
Continuous
 62
     7
370
    25
100
AcDbLine
 10
69.0100608096
 20
281.5252696146
 30
0.0
 11
69.0100608096
 21
285.9252696146
 31
0.0
  0
LINE
  5
15D
330
1F
100
AcDbEntity
  8
0
  6
Continuous
 62
     7
370
    25
100
AcDbLine
 10
69.0100608096
 20
285.9252696146
 30
0.0
 11
38.6100608096
 21
285.9252696146
 31
0.0
  0
LINE
  5
15E
330
1F
100
AcDbEntity
  8
0
  6
Continuous
 62
     7
370
    25
100
AcDbLine
 10
17.6100608096
 20
266.6252696146
 30
0.0
 11
17.6100608096
 21
236.2252696146
 31
0.0
  0
LINE
  5
15F
330
1F
100
AcDbEntity
  8
0
  6
Continuous
 62
     7
370
    25
100
AcDbLine
 10
17.6100608096
 20
236.2252696146
 30
0.0
 11
22.0100608096
 21
236.2252696146
 31
0.0
  0
LINE
  5
160
330
1F
100
AcDbEntity
  8
0
  6
Continuous
 62
     7
370
    25
100
AcDbLine
 10
22.0100608096
 20
236.2252696146
 30
0.0
 11
22.0100608096
 21
266.6252696146
 31
0.0
  0
LINE
  5
161
330
1F
100
AcDbEntity
  8
0
  6
Continuous
 62
     7
370
    25
100
AcDbLine
 10
22.0100608096
 20
266.6252696146
 30
0.0
 11
17.6100608096
 21
266.6252696146
 31
0.0
  0
LINE
  5
162
330
1F
100
AcDbEntity
  8
0
  6
Continuous
 62
     7
370
    25
100
AcDbLine
 10
208.8100608096
 20
144.7252696146
 30
0.0
 11
208.8100608096
 21
291.7252696146
 31
0.0
  0
LINE
  5
163
330
1F
100
AcDbEntity
  8
0
  6
Continuous
 62
     7
370
    25
100
AcDbLine
 10
8.8100608096
 20
144.7252696146
 30
0.0
 11
208.8100608096
 21
144.7252696146
 31
0.0
  0
LINE
  5
164
330
1F
100
AcDbEntity
  8
0
  6
Continuous
 62
     7
370
    25
100
AcDbLine
 10
8.8100608096
 20
291.7252696146
 30
0.0
 11
8.8100608096
 21
144.7252696146
 31
0.0
  0
LINE
  5
165
330
1F
100
AcDbEntity
  8
0
  6
Continuous
 62
     7
370
    25
100
AcDbLine
 10
208.8100608096
 20
291.7252696146
 30
0.0
 11
8.8100608096
 21
291.7252696146
 31
0.0
  0
LINE
  5
166
330
1F
100
AcDbEntity
  8
0
  6
Continuous
 62
     7
370
    25
100
AcDbLine
 10
408.9744809705
 20
145.4389370896
 30
0.0
 11
380.5744809705
 21
145.4389370896
 31
0.0
  0
LINE
  5
167
330
1F
100
AcDbEntity
  8
0
  6
Continuous
 62
     7
370
    25
100
AcDbLine
 10
398.7744809705
 20
256.0389370896
 30
0.0
 11
398.7744809705
 21
286.4389370896
 31
0.0
  0
LINE
  5
168
330
1F
100
AcDbEntity
  8
0
  6
Continuous
 62
     7
370
    25
100
AcDbLine
 10
398.7744809705
 20
156.0389370896
 30
0.0
 11
398.7744809705
 21
186.4389370896
 31
0.0
  0
LINE
  5
169
330
1F
100
AcDbEntity
  8
0
  6
Continuous
 62
     7
370
    25
100
AcDbLine
 10
403.1744809705
 20
256.0389370896
 30
0.0
 11
398.7744809705
 21
256.0389370896
 31
0.0
  0
LINE
  5
16A
330
1F
100
AcDbEntity
  8
0
  6
Continuous
 62
     7
370
    25
100
AcDbLine
 10
403.1744809705
 20
256.0389370896
 30
0.0
 11
403.1744809705
 21
286.4389370896
 31
0.0
  0
LINE
  5
16B
330
1F
100
AcDbEntity
  8
0
  6
Continuous
 62
     7
370
    25
100
AcDbLine
 10
403.1744809705
 20
286.4389370896
 30
0.0
 11
398.7744809705
 21
286.4389370896
 31
0.0
  0
LINE
  5
16C
330
1F
100
AcDbEntity
  8
0
  6
Continuous
 62
     7
370
    25
100
AcDbLine
 10
403.1744809705
 20
156.0389370896
 30
0.0
 11
398.7744809705
 21
156.0389370896
 31
0.0
  0
LINE
  5
16D
330
1F
100
AcDbEntity
  8
0
  6
Continuous
 62
     7
370
    25
100
AcDbLine
 10
403.1744809705
 20
156.0389370896
 30
0.0
 11
403.1744809705
 21
186.4389370896
 31
0.0
  0
LINE
  5
16E
330
1F
100
AcDbEntity
  8
0
  6
Continuous
 62
     7
370
    25
100
AcDbLine
 10
403.1744809705
 20
186.4389370896
 30
0.0
 11
398.7744809705
 21
186.4389370896
 31
0.0
  0
LINE
  5
16F
330
1F
100
AcDbEntity
  8
0
  6
Continuous
 62
     7
370
    25
100
AcDbLine
 10
380.5744809705
 20
145.4389370896
 30
0.0
 11
380.5744809705
 21
141.4389370896
 31
0.0
  0
LINE
  5
170
330
1F
100
AcDbEntity
  8
0
  6
Continuous
 62
     7
370
    25
100
AcDbLine
 10
380.5744809705
 20
141.4389370896
 30
0.0
 11
350.5744809705
 21
141.4389370896
 31
0.0
  0
LINE
  5
171
330
1F
100
AcDbEntity
  8
0
  6
Continuous
 62
     7
370
    25
100
AcDbLine
 10
350.5744809705
 20
145.4389370896
 30
0.0
 11
350.5744809705
 21
141.4389370896
 31
0.0
  0
LINE
  5
172
330
1F
100
AcDbEntity
  8
0
  6
Continuous
 62
     7
370
    25
100
AcDbLine
 10
350.5744809705
 20
145.4389370896
 30
0.0
 11
280.5744809705
 21
145.4389370896
 31
0.0
  0
LINE
  5
173
330
1F
100
AcDbEntity
  8
0
  6
Continuous
 62
     7
370
    25
100
AcDbLine
 10
280.5744809705
 20
145.4389370896
 30
0.0
 11
280.5744809705
 21
141.4389370896
 31
0.0
  0
LINE
  5
174
330
1F
100
AcDbEntity
  8
0
  6
Continuous
 62
     7
370
    25
100
AcDbLine
 10
250.5744809705
 20
141.4389370896
 30
0.0
 11
280.5744809705
 21
141.4389370896
 31
0.0
  0
LINE
  5
175
330
1F
100
AcDbEntity
  8
0
  6
Continuous
 62
     7
370
    25
100
AcDbLine
 10
250.5744809705
 20
145.4389370896
 30
0.0
 11
250.5744809705
 21
141.4389370896
 31
0.0
  0
LINE
  5
176
330
1F
100
AcDbEntity
  8
0
  6
Continuous
 62
     7
370
    25
100
AcDbLine
 10
250.5744809705
 20
145.4389370896
 30
0.0
 11
222.1744809705
 21
145.4389370896
 31
0.0
  0
LINE
  5
177
330
1F
100
AcDbEntity
  8
0
  6
Continuous
 62
     7
370
    25
100
AcDbLine
 10
222.1744809705
 20
145.4389370896
 30
0.0
 11
222.1744809705
 21
166.2389370896
 31
0.0
  0
LINE
  5
178
330
1F
100
AcDbEntity
  8
0
  6
Continuous
 62
     7
370
    25
100
AcDbLine
 10
222.1744809705
 20
166.2389370896
 30
0.0
 11
218.1744809705
 21
166.2389370896
 31
0.0
  0
LINE
  5
179
330
1F
100
AcDbEntity
  8
0
  6
Continuous
 62
     7
370
    25
100
AcDbLine
 10
218.1744809705
 20
166.2389370896
 30
0.0
 11
218.1744809705
 21
196.2389370896
 31
0.0
  0
LINE
  5
17A
330
1F
100
AcDbEntity
  8
0
  6
Continuous
 62
     7
370
    25
100
AcDbLine
 10
222.1744809705
 20
196.2389370896
 30
0.0
 11
218.1744809705
 21
196.2389370896
 31
0.0
  0
LINE
  5
17B
330
1F
100
AcDbEntity
  8
0
  6
Continuous
 62
     7
370
    25
100
AcDbLine
 10
222.1744809705
 20
196.2389370896
 30
0.0
 11
222.1744809705
 21
246.2389370896
 31
0.0
  0
LINE
  5
17C
330
1F
100
AcDbEntity
  8
0
  6
Continuous
 62
     7
370
    25
100
AcDbLine
 10
222.1744809705
 20
246.2389370896
 30
0.0
 11
218.1744809705
 21
246.2389370896
 31
0.0
  0
LINE
  5
17D
330
1F
100
AcDbEntity
  8
0
  6
Continuous
 62
     7
370
    25
100
AcDbLine
 10
218.1744809705
 20
246.2389370896
 30
0.0
 11
218.1744809705
 21
276.2389370896
 31
0.0
  0
LINE
  5
17E
330
1F
100
AcDbEntity
  8
0
  6
Continuous
 62
     7
370
    25
100
AcDbLine
 10
222.1744809705
 20
276.2389370896
 30
0.0
 11
218.1744809705
 21
276.2389370896
 31
0.0
  0
LINE
  5
17F
330
1F
100
AcDbEntity
  8
0
  6
Continuous
 62
     7
370
    25
100
AcDbLine
 10
222.1744809705
 20
276.2389370896
 30
0.0
 11
222.1744809705
 21
297.0389370896
 31
0.0
  0
LINE
  5
180
330
1F
100
AcDbEntity
  8
0
  6
Continuous
 62
     7
370
    25
100
AcDbLine
 10
250.5744809705
 20
297.0389370896
 30
0.0
 11
222.1744809705
 21
297.0389370896
 31
0.0
  0
LINE
  5
181
330
1F
100
AcDbEntity
  8
0
  6
Continuous
 62
     7
370
    25
100
AcDbLine
 10
250.5744809705
 20
297.0389370896
 30
0.0
 11
250.5744809705
 21
301.0389370896
 31
0.0
  0
LINE
  5
182
330
1F
100
AcDbEntity
  8
0
  6
Continuous
 62
     7
370
    25
100
AcDbLine
 10
250.5744809705
 20
301.0389370896
 30
0.0
 11
280.5744809705
 21
301.0389370896
 31
0.0
  0
LINE
  5
183
330
1F
100
AcDbEntity
  8
0
  6
Continuous
 62
     7
370
    25
100
AcDbLine
 10
280.5744809705
 20
297.0389370896
 30
0.0
 11
280.5744809705
 21
301.0389370896
 31
0.0
  0
LINE
  5
184
330
1F
100
AcDbEntity
  8
0
  6
Continuous
 62
     7
370
    25
100
AcDbLine
 10
350.5744809705
 20
297.0389370896
 30
0.0
 11
280.5744809705
 21
297.0389370896
 31
0.0
  0
LINE
  5
185
330
1F
100
AcDbEntity
  8
0
  6
Continuous
 62
     7
370
    25
100
AcDbLine
 10
350.5744809705
 20
297.0389370896
 30
0.0
 11
350.5744809705
 21
301.0389370896
 31
0.0
  0
LINE
  5
186
330
1F
100
AcDbEntity
  8
0
  6
Continuous
 62
     7
370
    25
100
AcDbLine
 10
350.5744809705
 20
301.0389370896
 30
0.0
 11
380.5744809705
 21
301.0389370896
 31
0.0
  0
LINE
  5
187
330
1F
100
AcDbEntity
  8
0
  6
Continuous
 62
     7
370
    25
100
AcDbLine
 10
380.5744809705
 20
297.0389370896
 30
0.0
 11
380.5744809705
 21
301.0389370896
 31
0.0
  0
LINE
  5
188
330
1F
100
AcDbEntity
  8
0
  6
Continuous
 62
     7
370
    25
100
AcDbLine
 10
408.9744809705
 20
297.0389370896
 30
0.0
 11
380.5744809705
 21
297.0389370896
 31
0.0
  0
LINE
  5
189
330
1F
100
AcDbEntity
  8
0
  6
Continuous
 62
     7
370
    25
100
AcDbLine
 10
408.9744809705
 20
145.4389370896
 30
0.0
 11
408.9744809705
 21
297.0389370896
 31
0.0
  0
LINE
  5
18A
330
1F
100
AcDbEntity
  8
0
  6
Continuous
 62
     7
370
    25
100
AcDbLine
 10
13.0002578216
 20
448.010761072
 30
0.0
 11
161.0002578216
 21
448.010761072
 31
0.0
  0
LINE
  5
18B
330
1F
100
AcDbEntity
  8
0
  6
Continuous
 62
     7
370
    25
100
AcDbLine
 10
161.0002578216
 20
376.010761072
 30
0.0
 11
161.0002578216
 21
448.010761072
 31
0.0
  0
LINE
  5
18C
330
1F
100
AcDbEntity
  8
0
  6
Continuous
 62
     7
370
    25
100
AcDbLine
 10
161.0002578216
 20
376.010761072
 30
0.0
 11
169.0002578216
 21
376.010761072
 31
0.0
  0
LINE
  5
18D
330
1F
100
AcDbEntity
  8
0
  6
Continuous
 62
     7
370
    25
100
AcDbLine
 10
169.0002578216
 20
376.010761072
 30
0.0
 11
169.0002578216
 21
371.010761072
 31
0.0
  0
LINE
  5
18E
330
1F
100
AcDbEntity
  8
0
  6
Continuous
 62
     7
370
    25
100
AcDbLine
 10
161.0002578216
 20
371.010761072
 30
0.0
 11
169.0002578216
 21
371.010761072
 31
0.0
  0
LINE
  5
18F
330
1F
100
AcDbEntity
  8
0
  6
Continuous
 62
     7
370
    25
100
AcDbLine
 10
161.0002578216
 20
296.010761072
 30
0.0
 11
161.0002578216
 21
371.010761072
 31
0.0
  0
LINE
  5
190
330
1F
100
AcDbEntity
  8
0
  6
Continuous
 62
     7
370
    25
100
AcDbLine
 10
13.0002578216
 20
296.010761072
 30
0.0
 11
161.0002578216
 21
296.010761072
 31
0.0
  0
LINE
  5
191
330
1F
100
AcDbEntity
  8
0
  6
Continuous
 62
     7
370
    25
100
AcDbLine
 10
13.0002578216
 20
296.010761072
 30
0.0
 11
13.0002578216
 21
371.010761072
 31
0.0
  0
LINE
  5
192
330
1F
100
AcDbEntity
  8
0
  6
Continuous
 62
     7
370
    25
100
AcDbLine
 10
13.0002578216
 20
371.010761072
 30
0.0
 11
5.0002578216
 21
371.010761072
 31
0.0
  0
LINE
  5
193
330
1F
100
AcDbEntity
  8
0
  6
Continuous
 62
     7
370
    25
100
AcDbLine
 10
5.0002578216
 20
376.010761072
 30
0.0
 11
5.0002578216
 21
371.010761072
 31
0.0
  0
LINE
  5
194
330
1F
100
AcDbEntity
  8
0
  6
Continuous
 62
     7
370
    25
100
AcDbLine
 10
13.0002578216
 20
376.010761072
 30
0.0
 11
5.0002578216
 21
376.010761072
 31
0.0
  0
LINE
  5
195
330
1F
100
AcDbEntity
  8
0
  6
Continuous
 62
     7
370
    25
100
AcDbLine
 10
13.0002578216
 20
376.010761072
 30
0.0
 11
13.0002578216
 21
448.010761072
 31
0.0
  0
ENDSEC
  0
SECTION
  2
OBJECTS
  0
DICTIONARY
  5
C
330
0
100
AcDbDictionary
281
     1
  3
ACAD_GROUP
350
D
  3
ACAD_LAYOUT
350
1A
  3
ACAD_MLINESTYLE
350
17
  3
ACAD_PLOTSETTINGS
350
19
  3
ACAD_PLOTSTYLENAME
350
E
  3
ACAD_SCALELIST
350
47
  0
DICTIONARY
  5
D
102
{ACAD_REACTORS
330
C
102
}
330
C
100
AcDbDictionary
281
     1
  0
DICTIONARY
  5
1A
102
{ACAD_REACTORS
330
C
102
}
330
C
100
AcDbDictionary
281
     1
  3
Layout1
350
1E
  3
Layout2
350
26
  3
Model
350
22
  0
DICTIONARY
  5
17
102
{ACAD_REACTORS
330
C
102
}
330
C
100
AcDbDictionary
281
     1
  3
Standard
350
18
  0
DICTIONARY
  5
19
102
{ACAD_REACTORS
330
C
102
}
330
C
100
AcDbDictionary
281
     1
  0
ACDBDICTIONARYWDFLT
  5
E
102
{ACAD_REACTORS
330
C
102
}
330
C
100
AcDbDictionary
281
     1
  3
Normal
350
F
100
AcDbDictionaryWithDefault
340
F
  0
DICTIONARY
  5
47
102
{ACAD_REACTORS
330
C
102
}
330
C
100
AcDbDictionary
281
     1
  3
A0
350
48
  3
A1
350
49
  3
A2
350
4A
  3
A3
350
4B
  3
A4
350
4C
  3
A5
350
4D
  3
A6
350
4E
  3
A7
350
4F
  3
A8
350
50
  3
A9
350
51
  3
B0
350
52
  3
B1
350
53
  3
B2
350
54
  3
B3
350
55
  3
B4
350
56
  3
B5
350
57
  3
B6
350
58
  3
B7
350
59
  3
B8
350
5A
  3
B9
350
5B
  3
C0
350
5C
  3
C1
350
5D
  3
C2
350
5E
  3
C3
350
5F
  3
C4
350
60
  3
C5
350
61
  3
C6
350
62
  3
C7
350
63
  3
C8
350
64
  3
C9
350
65
  3
D0
350
66
  3
D1
350
67
  3
D2
350
68
  0
LAYOUT
  5
1E
102
{ACAD_REACTORS
330
1A
102
}
330
1A
100
AcDbPlotSettings
  1

  2
none_device
  4

  6

 40
0.0
 41
0.0
 42
0.0
 43
0.0
 44
0.0
 45
0.0
 46
0.0
 47
0.0
 48
0.0
 49
0.0
140
0.0
141
0.0
142
1.0
143
1.0
 70
   688
 72
     1
 73
     0
 74
     5
  7

 75
    16
147
1.0
148
0.0
149
0.0
100
AcDbLayout
  1
Layout1
 70
     1
 71
     1
 10
0.0
 20
0.0
 11
420.0
 21
297.0
 12
0.0
 22
0.0
 32
0.0
 14
1.0000000000E+20
 24
1.0000000000E+20
 34
1.0000000000E+20
 15
-1.0000000000E+20
 25
-1.0000000000E+20
 35
-1.0000000000E+20
146
0.0
 13
0.0
 23
0.0
 33
0.0
 16
1.0
 26
0.0
 36
0.0
 17
0.0
 27
1.0
 37
0.0
 76
     0
330
1B
  0
LAYOUT
  5
26
102
{ACAD_REACTORS
330
1A
102
}
330
1A
100
AcDbPlotSettings
  1

  2
none_device
  4

  6

 40
0.0
 41
0.0
 42
0.0
 43
0.0
 44
0.0
 45
0.0
 46
0.0
 47
0.0
 48
0.0
 49
0.0
140
0.0
141
0.0
142
1.0
143
1.0
 70
   688
 72
     1
 73
     0
 74
     5
  7

 75
    16
147
1.0
148
0.0
149
0.0
100
AcDbLayout
  1
Layout2
 70
     1
 71
     2
 10
0.0
 20
0.0
 11
0.0
 21
0.0
 12
0.0
 22
0.0
 32
0.0
 14
0.0
 24
0.0
 34
0.0
 15
0.0
 25
0.0
 35
0.0
146
0.0
 13
0.0
 23
0.0
 33
0.0
 16
1.0
 26
0.0
 36
0.0
 17
0.0
 27
1.0
 37
0.0
 76
     0
330
23
  0
LAYOUT
  5
22
102
{ACAD_REACTORS
330
1A
102
}
330
1A
100
AcDbPlotSettings
  1

  2
none_device
  4
Letter_(8.50_x_11.00_Inches)
  6

 40
6.35
 41
6.35
 42
6.35000508
 43
6.35000508
 44
215.9
 45
279.4
 46
0.0
 47
0.0
 48
0.0
 49
0.0
140
0.0
141
0.0
142
1.0
143
1.0
 70
  1712
 72
     1
 73
     0
 74
     0
  7

 75
     0
147
1.0
148
0.0
149
0.0
100
AcDbLayout
  1
Model
 70
     1
 71
     0
 10
0.0
 20
0.0
 11
500.0
 21
500.0
 12
0.0
 22
0.0
 32
0.0
 14
0.0
 24
0.0
 34
0.0
 15
500.0
 25
500.0
 35
0.0
146
0.0
 13
0.0
 23
0.0
 33
0.0
 16
1.0
 26
0.0
 36
0.0
 17
0.0
 27
1.0
 37
0.0
 76
     0
330
1F
331
29
  0
MLINESTYLE
  5
18
102
{ACAD_REACTORS
330
17
102
}
330
17
100
AcDbMlineStyle
  2
Standard
 70
     0
  3

 62
   256
 51
90.0
 52
90.0
 71
     2
 49
0.5
 62
   256
  6
BYLAYER
 49
-0.5
 62
   256
  6
BYLAYER
  0
ACDBPLACEHOLDER
  5
F
102
{ACAD_REACTORS
330
E
102
}
330
E
  0
SCALE
  5
48
102
{ACAD_REACTORS
330
47
102
}
330
47
100
AcDbScale
 70
     0
300
1:1
140
1.0
141
1.0
290
     1
  0
SCALE
  5
49
102
{ACAD_REACTORS
330
47
102
}
330
47
100
AcDbScale
 70
     0
300
1:2
140
1.0
141
2.0
290
     0
  0
SCALE
  5
4A
102
{ACAD_REACTORS
330
47
102
}
330
47
100
AcDbScale
 70
     0
300
1:4
140
1.0
141
4.0
290
     0
  0
SCALE
  5
4B
102
{ACAD_REACTORS
330
47
102
}
330
47
100
AcDbScale
 70
     0
300
1:5
140
1.0
141
5.0
290
     0
  0
SCALE
  5
4C
102
{ACAD_REACTORS
330
47
102
}
330
47
100
AcDbScale
 70
     0
300
1:8
140
1.0
141
8.0
290
     0
  0
SCALE
  5
4D
102
{ACAD_REACTORS
330
47
102
}
330
47
100
AcDbScale
 70
     0
300
1:10
140
1.0
141
10.0
290
     0
  0
SCALE
  5
4E
102
{ACAD_REACTORS
330
47
102
}
330
47
100
AcDbScale
 70
     0
300
1:16
140
1.0
141
16.0
290
     0
  0
SCALE
  5
4F
102
{ACAD_REACTORS
330
47
102
}
330
47
100
AcDbScale
 70
     0
300
1:20
140
1.0
141
20.0
290
     0
  0
SCALE
  5
50
102
{ACAD_REACTORS
330
47
102
}
330
47
100
AcDbScale
 70
     0
300
1:30
140
1.0
141
30.0
290
     0
  0
SCALE
  5
51
102
{ACAD_REACTORS
330
47
102
}
330
47
100
AcDbScale
 70
     0
300
1:40
140
1.0
141
40.0
290
     0
  0
SCALE
  5
52
102
{ACAD_REACTORS
330
47
102
}
330
47
100
AcDbScale
 70
     0
300
1:50
140
1.0
141
50.0
290
     0
  0
SCALE
  5
53
102
{ACAD_REACTORS
330
47
102
}
330
47
100
AcDbScale
 70
     0
300
1:100
140
1.0
141
100.0
290
     0
  0
SCALE
  5
54
102
{ACAD_REACTORS
330
47
102
}
330
47
100
AcDbScale
 70
     0
300
2:1
140
2.0
141
1.0
290
     0
  0
SCALE
  5
55
102
{ACAD_REACTORS
330
47
102
}
330
47
100
AcDbScale
 70
     0
300
4:1
140
4.0
141
1.0
290
     0
  0
SCALE
  5
56
102
{ACAD_REACTORS
330
47
102
}
330
47
100
AcDbScale
 70
     0
300
8:1
140
8.0
141
1.0
290
     0
  0
SCALE
  5
57
102
{ACAD_REACTORS
330
47
102
}
330
47
100
AcDbScale
 70
     0
300
10:1
140
10.0
141
1.0
290
     0
  0
SCALE
  5
58
102
{ACAD_REACTORS
330
47
102
}
330
47
100
AcDbScale
 70
     0
300
100:1
140
100.0
141
1.0
290
     0
  0
SCALE
  5
59
102
{ACAD_REACTORS
330
47
102
}
330
47
100
AcDbScale
 70
     0
300
1/128" = 1'-0"
140
0.0078125
141
12.0
290
     0
  0
SCALE
  5
5A
102
{ACAD_REACTORS
330
47
102
}
330
47
100
AcDbScale
 70
     0
300
1/64" = 1'-0"
140
0.015625
141
12.0
290
     0
  0
SCALE
  5
5B
102
{ACAD_REACTORS
330
47
102
}
330
47
100
AcDbScale
 70
     0
300
1/32" = 1'-0"
140
0.03125
141
12.0
290
     0
  0
SCALE
  5
5C
102
{ACAD_REACTORS
330
47
102
}
330
47
100
AcDbScale
 70
     0
300
1/16" = 1'-0"
140
0.0625
141
12.0
290
     0
  0
SCALE
  5
5D
102
{ACAD_REACTORS
330
47
102
}
330
47
100
AcDbScale
 70
     0
300
3/32" = 1'-0"
140
0.09375
141
12.0
290
     0
  0
SCALE
  5
5E
102
{ACAD_REACTORS
330
47
102
}
330
47
100
AcDbScale
 70
     0
300
1/8" = 1'-0"
140
0.125
141
12.0
290
     0
  0
SCALE
  5
5F
102
{ACAD_REACTORS
330
47
102
}
330
47
100
AcDbScale
 70
     0
300
3/16" = 1'-0"
140
0.1875
141
12.0
290
     0
  0
SCALE
  5
60
102
{ACAD_REACTORS
330
47
102
}
330
47
100
AcDbScale
 70
     0
300
1/4" = 1'-0"
140
0.25
141
12.0
290
     0
  0
SCALE
  5
61
102
{ACAD_REACTORS
330
47
102
}
330
47
100
AcDbScale
 70
     0
300
3/8" = 1'-0"
140
0.375
141
12.0
290
     0
  0
SCALE
  5
62
102
{ACAD_REACTORS
330
47
102
}
330
47
100
AcDbScale
 70
     0
300
1/2" = 1'-0"
140
0.5
141
12.0
290
     0
  0
SCALE
  5
63
102
{ACAD_REACTORS
330
47
102
}
330
47
100
AcDbScale
 70
     0
300
3/4" = 1'-0"
140
0.75
141
12.0
290
     0
  0
SCALE
  5
64
102
{ACAD_REACTORS
330
47
102
}
330
47
100
AcDbScale
 70
     0
300
1" = 1'-0"
140
1.0
141
12.0
290
     0
  0
SCALE
  5
65
102
{ACAD_REACTORS
330
47
102
}
330
47
100
AcDbScale
 70
     0
300
1-1/2" = 1'-0"
140
1.5
141
12.0
290
     0
  0
SCALE
  5
66
102
{ACAD_REACTORS
330
47
102
}
330
47
100
AcDbScale
 70
     0
300
3" = 1'-0"
140
3.0
141
12.0
290
     0
  0
SCALE
  5
67
102
{ACAD_REACTORS
330
47
102
}
330
47
100
AcDbScale
 70
     0
300
6" = 1'-0"
140
6.0
141
12.0
290
     0
  0
SCALE
  5
68
102
{ACAD_REACTORS
330
47
102
}
330
47
100
AcDbScale
 70
     0
300
1'-0" = 1'-0"
140
12.0
141
12.0
290
     0
  0
ENDSEC
  0
EOF
