<?xml version="1.0" encoding="UTF-8"?>
<!DOCTYPE svg PUBLIC "-//W3C//DTD SVG 1.1//EN" "http://www.w3.org/Graphics/SVG/1.1/DTD/svg11.dtd">
<!-- Creator: CorelDRAW X7 -->
<svg xmlns="http://www.w3.org/2000/svg" xml:space="preserve" width="500mm" height="500mm" version="1.1" style="shape-rendering:geometricPrecision; text-rendering:geometricPrecision; image-rendering:optimizeQuality; fill-rule:evenodd; clip-rule:evenodd"
viewBox="0 0 50000 50000"
 xmlns:xlink="http://www.w3.org/1999/xlink">
 <defs>
  <style type="text/css">
   <![CDATA[
    .str0 {stroke:black;stroke-width:25;stroke-linejoin:bevel}
    .fil0 {fill:none}
   ]]>
  </style>
 </defs>
 <g id="_0">
  <metadata id="CorelCorpID_0Corel-Layer"/>
  <line class="fil0 str0" x1="447" y1="48485" x2="847" y2= "48485" />
  <line class="fil0 str0" x1="447" y1="46485" x2="847" y2= "46485" />
  <line class="fil0 str0" x1="447" y1="46485" x2="447" y2= "48485" />
  <line class="fil0 str0" x1="26367" y1="42935" x2="26367" y2= "42495" />
  <line class="fil0 str0" x1="23327" y1="42495" x2="26367" y2= "42495" />
  <line class="fil0 str0" x1="23327" y1="42935" x2="23327" y2= "42495" />
  <line class="fil0 str0" x1="23327" y1="42935" x2="26367" y2= "42935" />
  <line class="fil0 str0" x1="13287" y1="39455" x2="13287" y2= "37415" />
  <line class="fil0 str0" x1="12847" y1="37415" x2="13287" y2= "37415" />
  <line class="fil0 str0" x1="12847" y1="39455" x2="12847" y2= "37415" />
  <line class="fil0 str0" x1="12847" y1="39455" x2="13287" y2= "39455" />
  <line class="fil0 str0" x1="13287" y1="47455" x2="13287" y2= "45415" />
  <line class="fil0 str0" x1="12847" y1="45415" x2="13287" y2= "45415" />
  <line class="fil0 str0" x1="12847" y1="47455" x2="12847" y2= "45415" />
  <line class="fil0 str0" x1="12847" y1="47455" x2="13287" y2= "47455" />
  <line class="fil0 str0" x1="28847" y1="39455" x2="28847" y2= "37415" />
  <line class="fil0 str0" x1="28407" y1="37415" x2="28847" y2= "37415" />
  <line class="fil0 str0" x1="28407" y1="39455" x2="28407" y2= "37415" />
  <line class="fil0 str0" x1="28407" y1="39455" x2="28847" y2= "39455" />
  <line class="fil0 str0" x1="28847" y1="47455" x2="28847" y2= "45415" />
  <line class="fil0 str0" x1="28407" y1="45415" x2="28847" y2= "45415" />
  <line class="fil0 str0" x1="28407" y1="47455" x2="28407" y2= "45415" />
  <line class="fil0 str0" x1="28407" y1="47455" x2="28847" y2= "47455" />
  <line class="fil0 str0" x1="847" y1="49435" x2="40847" y2= "49435" />
  <line class="fil0 str0" x1="847" y1="49435" x2="847" y2= "48485" />
  <line class="fil0 str0" x1="847" y1="46485" x2="847" y2= "40485" />
  <line class="fil0 str0" x1="847" y1="40485" x2="447" y2= "40485" />
  <line class="fil0 str0" x1="447" y1="40485" x2="447" y2= "38485" />
  <line class="fil0 str0" x1="847" y1="38485" x2="447" y2= "38485" />
  <line class="fil0 str0" x1="847" y1="38485" x2="847" y2= "36035" />
  <line class="fil0 str0" x1="847" y1="36035" x2="40847" y2= "36035" />
  <line class="fil0 str0" x1="40847" y1="38485" x2="40847" y2= "36035" />
  <line class="fil0 str0" x1="41247" y1="38485" x2="40847" y2= "38485" />
  <line class="fil0 str0" x1="41247" y1="40485" x2="41247" y2= "38485" />
  <line class="fil0 str0" x1="41247" y1="40485" x2="40847" y2= "40485" />
  <line class="fil0 str0" x1="40847" y1="46485" x2="40847" y2= "40485" />
  <line class="fil0 str0" x1="41247" y1="46485" x2="40847" y2= "46485" />
  <line class="fil0 str0" x1="41247" y1="46485" x2="41247" y2= "48485" />
  <line class="fil0 str0" x1="41247" y1="48485" x2="40847" y2= "48485" />
  <line class="fil0 str0" x1="40847" y1="49435" x2="40847" y2= "48485" />
  <line class="fil0 str0" x1="18367" y1="42935" x2="15327" y2= "42935" />
  <line class="fil0 str0" x1="18367" y1="42935" x2="18367" y2= "42495" />
  <line class="fil0 str0" x1="18367" y1="42495" x2="15327" y2= "42495" />
  <line class="fil0 str0" x1="15327" y1="42935" x2="15327" y2= "42495" />
  <path class="fil0 str0" d="M46467 36578c12,4 24,8 36,11 11,4 22,7 33,10 10,3 20,6 30,9 9,2 18,4 26,6 8,2 16,4 24,6 6,1 13,2 20,4 5,1 11,1 17,2 4,0 9,0 13,1"/>
  <line class="fil0 str0" x1="45559" y1="36290" x2="46467" y2= "36578" />
  <path class="fil0 str0" d="M45261 35974c0,11 1,22 2,33 0,10 1,20 2,30 1,9 3,18 4,27 2,9 4,17 6,25 2,8 4,16 7,24 2,7 5,14 9,20 3,7 6,13 9,19 4,5 8,11 12,16 4,5 9,10 14,15 6,5 13,10 20,15 7,5 15,10 23,15 10,5 19,10 29,15 11,6 22,11 33,16 13,5 25,10 38,15 14,5 29,11 43,16 16,5 31,10 47,15"/>
  <line class="fil0 str0" x1="45217" y1="35960" x2="45261" y2= "35974" />
  <line class="fil0 str0" x1="45217" y1="36804" x2="45217" y2= "35960" />
  <line class="fil0 str0" x1="45261" y1="36819" x2="45217" y2= "36804" />
  <path class="fil0 str0" d="M45357 36635c-7,0 -14,1 -21,2 -7,2 -13,5 -19,9 -6,4 -11,9 -16,15 -5,6 -9,13 -13,20 -4,8 -8,17 -11,26 -3,10 -5,20 -8,31 -2,13 -4,25 -5,38 -2,14 -2,28 -3,43"/>
  <path class="fil0 str0" d="M45560 36683c-12,-4 -24,-8 -37,-12 -11,-3 -22,-6 -33,-9 -11,-3 -21,-6 -31,-9 -9,-2 -18,-4 -27,-6 -8,-2 -16,-4 -24,-6 -6,-1 -13,-2 -20,-3 -6,-1 -11,-2 -17,-3 -5,0 -9,0 -14,0"/>
  <line class="fil0 str0" x1="46728" y1="37054" x2="45560" y2= "36683" />
  <line class="fil0 str0" x1="46728" y1="37706" x2="46728" y2= "37054" />
  <line class="fil0 str0" x1="45580" y1="37342" x2="46728" y2= "37706" />
  <path class="fil0 str0" d="M45261 37018c0,12 1,24 1,36 1,11 1,22 3,33 1,10 2,20 4,30 2,9 4,18 6,27 2,8 5,16 8,24 3,7 6,14 10,20 3,7 7,13 11,19 4,5 8,10 13,14 5,5 11,10 16,14 7,5 14,10 22,15 8,5 17,10 25,14 10,5 20,10 31,15 11,5 23,10 35,15 13,6 26,11 40,16 15,5 29,11 44,16 17,6 33,11 50,16"/>
  <line class="fil0 str0" x1="45217" y1="37004" x2="45261" y2= "37018" />
  <line class="fil0 str0" x1="45217" y1="37871" x2="45217" y2= "37004" />
  <line class="fil0 str0" x1="45261" y1="37884" x2="45217" y2= "37871" />
  <path class="fil0 str0" d="M45361 37681c-7,0 -14,1 -21,3 -7,2 -13,5 -19,10 -6,4 -12,9 -16,15 -6,7 -10,15 -14,23 -5,9 -8,18 -11,28 -4,12 -7,23 -9,35 -3,14 -5,28 -6,41 -2,16 -3,32 -4,48"/>
  <path class="fil0 str0" d="M45543 37722c-11,-3 -22,-6 -32,-9 -10,-3 -20,-6 -30,-9 -9,-2 -18,-5 -26,-7 -8,-2 -16,-4 -24,-6 -7,-1 -15,-3 -22,-4 -6,-1 -12,-2 -18,-3 -6,-1 -11,-2 -16,-2 -5,-1 -9,-1 -14,-1"/>
  <line class="fil0 str0" x1="46396" y1="37995" x2="45543" y2= "37722" />
  <path class="fil0 str0" d="M46772 38347c-1,-14 -1,-27 -3,-41 -1,-13 -2,-26 -4,-38 -2,-12 -5,-23 -8,-34 -3,-11 -6,-21 -10,-31 -4,-9 -8,-18 -13,-27 -4,-8 -9,-16 -14,-24 -5,-7 -11,-13 -18,-19 -6,-6 -12,-12 -19,-17 -8,-5 -15,-10 -23,-14 -9,-5 -18,-10 -27,-15 -10,-5 -20,-10 -30,-15 -11,-5 -22,-10 -34,-15 -12,-5 -25,-10 -37,-15 -14,-6 -28,-11 -42,-16 -15,-5 -30,-10 -45,-15 -16,-6 -32,-11 -49,-16"/>
  <line class="fil0 str0" x1="46817" y1="38360" x2="46772" y2= "38347" />
  <line class="fil0 str0" x1="46817" y1="36449" x2="46817" y2= "38360" />
  <line class="fil0 str0" x1="46772" y1="36435" x2="46817" y2= "36449" />
  <path class="fil0 str0" d="M46666 36627c9,-1 17,-1 25,-3 8,-2 15,-5 22,-10 6,-4 13,-9 18,-14 6,-7 11,-14 15,-21 5,-9 8,-18 11,-27 4,-11 7,-22 9,-33 2,-13 4,-26 5,-39 1,-15 1,-30 1,-45"/>
  <path class="fil0 str0" d="M45261 47641c1,9 2,17 2,26 1,8 2,16 2,24 1,7 2,14 2,20 1,6 1,12 2,18 1,5 1,10 2,14 1,4 1,8 2,12 0,3 1,6 1,9 1,2 1,4 2,5"/>
  <line class="fil0 str0" x1="45217" y1="47627" x2="45261" y2= "47641" />
  <line class="fil0 str0" x1="45217" y1="48392" x2="45217" y2= "47627" />
  <line class="fil0 str0" x1="45261" y1="48405" x2="45217" y2= "48392" />
  <path class="fil0 str0" d="M45418 48249c-12,0 -25,1 -37,2 -10,2 -21,4 -31,7 -9,3 -18,7 -26,11 -8,5 -15,10 -21,16 -6,6 -12,13 -16,21 -5,9 -9,18 -12,27 -4,11 -7,22 -9,33 -2,13 -4,26 -5,39"/>
  <path class="fil0 str0" d="M45541 48252c-16,-1 -31,-1 -46,-1 -12,-1 -24,-1 -36,-1 -8,-1 -17,-1 -25,-1 -6,0 -11,0 -16,0"/>
  <line class="fil0 str0" x1="45947" y1="48265" x2="45541" y2= "48252" />
  <line class="fil0 str0" x1="45947" y1="48265" x2="45947" y2= "47899" />
  <line class="fil0 str0" x1="45817" y1="47893" x2="45947" y2= "47899" />
  <line class="fil0 str0" x1="45817" y1="47438" x2="45817" y2= "47893" />
  <line class="fil0 str0" x1="45990" y1="47601" x2="45817" y2= "47438" />
  <line class="fil0 str0" x1="45990" y1="47601" x2="46058" y2= "47527" />
  <line class="fil0 str0" x1="45497" y1="47009" x2="46058" y2= "47527" />
  <path class="fil0 str0" d="M45305 46801c5,7 9,13 13,19 6,8 11,14 17,21 6,8 13,16 19,23 7,9 15,17 22,25 9,10 17,18 26,27 10,10 19,20 29,29 10,11 21,21 32,31 11,11 23,22 34,33"/>
  <path class="fil0 str0" d="M45261 46677c2,12 4,23 7,34 2,11 6,22 9,32 4,10 8,20 13,30 5,10 10,19 15,28"/>
  <line class="fil0 str0" x1="45217" y1="46664" x2="45261" y2= "46677" />
  <line class="fil0 str0" x1="45217" y1="47192" x2="45217" y2= "46664" />
  <line class="fil0 str0" x1="45261" y1="47192" x2="45217" y2= "47192" />
  <path class="fil0 str0" d="M45340 47050c-4,0 -9,1 -14,2 -4,1 -9,4 -13,6 -4,3 -9,7 -13,10 -4,5 -8,9 -12,15 -4,6 -7,12 -10,19 -4,8 -6,16 -8,24 -3,10 -4,20 -6,30 -1,12 -2,24 -3,36"/>
  <path class="fil0 str0" d="M45394 47063c-9,-4 -18,-8 -27,-10 -9,-2 -18,-3 -27,-3"/>
  <path class="fil0 str0" d="M45472 47116c-7,-6 -14,-12 -21,-17 -7,-5 -14,-10 -20,-15 -7,-4 -13,-8 -19,-12 -6,-3 -12,-6 -18,-9"/>
  <line class="fil0 str0" x1="45599" y1="47234" x2="45472" y2= "47116" />
  <line class="fil0 str0" x1="45728" y1="47355" x2="45599" y2= "47234" />
  <line class="fil0 str0" x1="45728" y1="47893" x2="45728" y2= "47355" />
  <line class="fil0 str0" x1="45506" y1="47871" x2="45728" y2= "47893" />
  <path class="fil0 str0" d="M45276 47769c3,6 6,12 10,18 4,6 9,12 14,17 5,5 11,11 17,16 7,5 15,10 22,15 9,5 19,10 29,13 12,5 24,8 37,11 15,3 30,5 46,7 18,2 36,4 55,5"/>
  <line class="fil0 str0" x1="47813" y1="49551" x2="45813" y2= "49551" />
  <line class="fil0 str0" x1="45813" y1="49151" x2="45813" y2= "49551" />
  <line class="fil0 str0" x1="42313" y1="49151" x2="45813" y2= "49151" />
  <line class="fil0 str0" x1="42313" y1="48071" x2="42313" y2= "49151" />
  <line class="fil0 str0" x1="42313" y1="48071" x2="41913" y2= "48071" />
  <line class="fil0 str0" x1="41913" y1="45071" x2="41913" y2= "48071" />
  <line class="fil0 str0" x1="42313" y1="45071" x2="41913" y2= "45071" />
  <line class="fil0 str0" x1="42313" y1="38071" x2="42313" y2= "45071" />
  <line class="fil0 str0" x1="42313" y1="38071" x2="41913" y2= "38071" />
  <line class="fil0 str0" x1="41913" y1="35071" x2="41913" y2= "38071" />
  <line class="fil0 str0" x1="42313" y1="35071" x2="41913" y2= "35071" />
  <line class="fil0 str0" x1="42313" y1="33991" x2="42313" y2= "35071" />
  <line class="fil0 str0" x1="42313" y1="33991" x2="45813" y2= "33991" />
  <line class="fil0 str0" x1="45813" y1="33991" x2="45813" y2= "33591" />
  <line class="fil0 str0" x1="47813" y1="33591" x2="45813" y2= "33591" />
  <line class="fil0 str0" x1="47813" y1="33991" x2="47813" y2= "33591" />
  <line class="fil0 str0" x1="47813" y1="33991" x2="48313" y2= "33991" />
  <path class="fil0 str0" d="M48313 49151c1334,-4965 1334,-10194 0,-15160"/>
  <line class="fil0 str0" x1="47813" y1="49151" x2="48313" y2= "49151" />
  <line class="fil0 str0" x1="47813" y1="49151" x2="47813" y2= "49551" />
  <line class="fil0 str0" x1="46772" y1="41304" x2="46772" y2= "41257" />
  <path class="fil0 str0" d="M46665 41488c8,0 17,0 25,-2 8,-2 15,-5 22,-9 7,-4 13,-9 18,-15 6,-6 11,-12 16,-20 4,-8 8,-17 11,-25 4,-11 7,-22 9,-32 2,-13 4,-25 5,-38 1,-14 1,-29 1,-43"/>
  <path class="fil0 str0" d="M45372 40988c1,7 1,14 2,20 2,7 4,13 7,19 3,7 7,13 11,19 5,7 10,12 16,18 6,6 13,12 19,18 8,6 16,12 24,17 10,6 19,12 29,17 11,6 22,11 33,16 6,3 13,6 19,9 7,3 14,6 21,9 8,3 16,6 24,9 9,4 18,7 27,10 9,4 19,8 29,11 10,4 20,8 31,12 11,4 23,8 34,12 12,4 24,9 36,13 13,4 26,9 39,13 14,5 28,10 42,14 14,5 29,10 44,15 15,5 30,10 46,16 16,5 33,10 49,16 17,5 34,11 51,16 18,6 36,12 54,17 19,6 38,12 57,18 18,6 37,12 56,18 18,6 36,11 53,17 17,5 34,10 51,15 16,5 31,9 47,14 15,5 30,9 45,13 14,4 27,9 41,13 13,3 26,7 39,10 12,4 24,7 36,10 11,3 22,6 33,8 10,3 20,6 30,8 9,2 18,4 27,6 8,2 16,4 24,5 7,2 14,3 21,4 6,1 12,2 18,3 5,1 10,1 15,2 4,0 8,0 13,0"/>
  <path class="fil0 str0" d="M45426 40922c-8,6 -16,12 -23,19 -6,5 -12,10 -17,17 -4,4 -8,10 -10,16 -2,4 -3,9 -4,14"/>
  <path class="fil0 str0" d="M45506 40791c-1,6 -1,12 -2,19 -1,6 -2,12 -3,18 -2,6 -4,12 -7,17 -2,6 -5,12 -8,17 -4,6 -7,11 -11,16 -5,6 -9,11 -14,16 -5,5 -10,10 -16,15 -6,4 -12,9 -19,13"/>
  <path class="fil0 str0" d="M45356 40627c9,0 19,1 29,2 9,2 18,6 27,9 9,4 18,9 26,15 8,6 16,13 23,20 7,8 14,16 19,25 6,9 11,18 14,28 4,10 7,20 9,31 2,11 2,22 3,34"/>
  <path class="fil0 str0" d="M45194 40827c1,-13 1,-27 3,-40 2,-12 5,-25 9,-37 4,-11 9,-23 15,-34 5,-11 12,-21 20,-31 7,-9 16,-18 25,-25 8,-8 17,-14 27,-19 10,-5 20,-8 30,-11 11,-2 22,-3 33,-3"/>
  <path class="fil0 str0" d="M46171 41458c-28,-8 -56,-17 -84,-25 -26,-9 -53,-17 -80,-25 -25,-8 -50,-17 -76,-25 -24,-8 -48,-16 -72,-24 -22,-7 -45,-15 -68,-23 -21,-7 -43,-15 -64,-23 -20,-7 -40,-14 -60,-22 -19,-7 -38,-14 -57,-22 -18,-7 -35,-14 -53,-22 -16,-7 -33,-14 -49,-22 -15,-8 -30,-15 -45,-24 -14,-7 -28,-16 -41,-24 -13,-8 -26,-17 -38,-25 -12,-9 -23,-17 -34,-26 -10,-9 -20,-18 -30,-27 -9,-9 -18,-19 -27,-28 -8,-9 -16,-19 -23,-29 -7,-9 -14,-19 -20,-29 -6,-10 -12,-19 -17,-29 -5,-10 -10,-20 -14,-31 -4,-10 -8,-20 -11,-31 -3,-10 -5,-20 -7,-31 -2,-10 -4,-21 -5,-32 -1,-10 -1,-21 -2,-32"/>
  <line class="fil0 str0" x1="46728" y1="41627" x2="46171" y2= "41458" />
  <line class="fil0 str0" x1="46728" y1="42173" x2="46728" y2= "41627" />
  <line class="fil0 str0" x1="45616" y1="41819" x2="46728" y2= "42173" />
  <path class="fil0 str0" d="M45261 41507c0,14 1,28 2,43 1,12 2,25 5,37 2,11 5,22 8,33 3,10 7,19 12,28 4,9 9,17 15,25 6,8 12,15 19,22 8,7 15,13 24,19 8,6 17,12 27,16 5,3 11,6 16,8 7,4 14,7 21,9 8,4 16,7 24,10 10,4 19,8 29,11 10,4 21,7 32,11 12,4 24,8 36,13 14,4 27,8 41,13 14,4 29,9 44,14"/>
  <line class="fil0 str0" x1="45217" y1="41493" x2="45261" y2= "41507" />
  <line class="fil0 str0" x1="45217" y1="42338" x2="45217" y2= "41493" />
  <line class="fil0 str0" x1="45261" y1="42352" x2="45217" y2= "42338" />
  <path class="fil0 str0" d="M45367 42149c-7,0 -15,1 -22,3 -7,2 -14,5 -20,10 -7,4 -12,9 -17,15 -6,7 -11,15 -15,23 -5,9 -9,18 -12,28 -4,12 -7,23 -9,35 -3,14 -5,28 -7,41 -2,16 -3,32 -4,48"/>
  <path class="fil0 str0" d="M45528 42185c-17,-5 -35,-11 -52,-16 -15,-4 -30,-8 -45,-11 -12,-3 -24,-5 -36,-7 -9,-1 -18,-1 -28,-2"/>
  <line class="fil0 str0" x1="46439" y1="42474" x2="45528" y2= "42185" />
  <path class="fil0 str0" d="M46772 42814c0,-13 -1,-26 -2,-39 -1,-12 -3,-24 -5,-36 -1,-11 -4,-22 -6,-33 -3,-10 -6,-20 -9,-29 -4,-9 -7,-18 -12,-27 -4,-8 -8,-16 -13,-23 -5,-7 -10,-14 -16,-20 -6,-6 -12,-11 -18,-16 -7,-6 -13,-11 -20,-15 -8,-6 -16,-11 -24,-15 -9,-6 -18,-11 -27,-15 -10,-5 -20,-10 -30,-15 -11,-5 -22,-10 -33,-14 -12,-5 -24,-10 -36,-15 -14,-5 -27,-9 -40,-14 -14,-5 -28,-9 -42,-14"/>
  <line class="fil0 str0" x1="46817" y1="42827" x2="46772" y2= "42814" />
  <line class="fil0 str0" x1="46817" y1="41271" x2="46817" y2= "42827" />
  <line class="fil0 str0" x1="46772" y1="41257" x2="46817" y2= "41271" />
  <line class="fil0 str0" x1="45505" y1="43208" x2="46529" y2= "43535" />
  <path class="fil0 str0" d="M45261 42907c0,10 0,21 1,31 0,10 1,20 2,30 1,9 2,18 3,27 2,8 4,16 6,25 1,7 3,15 6,23 2,7 5,13 7,20 3,6 6,12 10,19 3,5 6,11 10,16 4,5 9,10 13,15 6,5 11,10 17,14 6,5 13,10 20,15 7,5 15,9 22,14 9,5 18,9 27,13 10,5 20,9 30,13 11,5 22,9 33,13 12,4 24,8 37,13"/>
  <line class="fil0 str0" x1="45217" y1="42893" x2="45261" y2= "42907" />
  <line class="fil0 str0" x1="45217" y1="43765" x2="45217" y2= "42893" />
  <line class="fil0 str0" x1="45261" y1="43778" x2="45217" y2= "43765" />
  <path class="fil0 str0" d="M45294 43602c-2,5 -5,9 -7,13 -3,5 -5,10 -6,16 -2,6 -4,12 -6,18 -2,7 -3,13 -4,20 -2,8 -3,16 -4,24 -1,8 -2,17 -3,25 -1,10 -1,19 -2,29 0,10 -1,20 -1,31"/>
  <path class="fil0 str0" d="M45360 43566c-7,0 -14,1 -20,2 -6,2 -12,4 -18,7 -5,3 -11,7 -15,11 -5,5 -9,11 -13,16"/>
  <path class="fil0 str0" d="M45505 43601c-17,-5 -34,-10 -50,-15 -14,-4 -27,-8 -41,-11 -10,-3 -21,-6 -32,-7 -7,-1 -15,-2 -22,-2"/>
  <line class="fil0 str0" x1="46529" y1="43928" x2="45505" y2= "43601" />
  <path class="fil0 str0" d="M46772 44214c0,-19 0,-37 -3,-55 -1,-16 -4,-32 -9,-48 -3,-14 -8,-28 -14,-41 -6,-12 -13,-23 -21,-34 -4,-5 -8,-10 -13,-15 -5,-5 -11,-10 -17,-14 -6,-6 -13,-10 -20,-15 -7,-5 -15,-9 -23,-13 -8,-5 -17,-10 -26,-14 -9,-4 -19,-8 -29,-12 -11,-5 -21,-9 -32,-13 -12,-4 -24,-8 -36,-12"/>
  <line class="fil0 str0" x1="46817" y1="44230" x2="46772" y2= "44214" />
  <line class="fil0 str0" x1="46817" y1="43369" x2="46817" y2= "44230" />
  <line class="fil0 str0" x1="46772" y1="43355" x2="46817" y2= "43369" />
  <path class="fil0 str0" d="M46671 43564c7,0 14,-1 21,-2 6,-1 12,-3 18,-7 6,-3 11,-7 16,-11 5,-5 9,-10 13,-16 2,-3 4,-7 6,-11 2,-4 4,-9 6,-13 2,-6 3,-12 5,-17 1,-7 3,-13 4,-20 1,-8 2,-16 4,-23 1,-9 2,-18 3,-27 1,-10 2,-19 3,-29 1,-11 1,-22 2,-33"/>
  <path class="fil0 str0" d="M46529 43535c14,4 29,9 44,13 13,3 26,6 38,9 11,3 22,5 33,6 9,1 18,1 27,1"/>
  <line class="fil0 str0" x1="46817" y1="45634" x2="46772" y2= "45614" />
  <line class="fil0 str0" x1="46817" y1="44777" x2="46817" y2= "45634" />
  <line class="fil0 str0" x1="46772" y1="44762" x2="46817" y2= "44777" />
  <path class="fil0 str0" d="M46666 44960c8,0 15,-1 23,-2 6,-1 13,-4 19,-7 6,-3 12,-6 17,-10 5,-5 10,-10 14,-15 2,-4 4,-7 6,-10 2,-5 4,-9 5,-13 2,-6 4,-11 5,-16 2,-7 3,-13 5,-19 1,-7 2,-15 4,-22 1,-8 2,-17 3,-25 1,-9 2,-18 3,-28 1,-10 1,-20 2,-31"/>
  <path class="fil0 str0" d="M46526 44932c14,4 28,8 42,12 13,3 25,6 38,9 11,2 21,4 32,5 9,1 19,2 28,2"/>
  <line class="fil0 str0" x1="45501" y1="44607" x2="46526" y2= "44932" />
  <path class="fil0 str0" d="M45261 44319c1,19 1,38 3,58 2,16 4,33 8,49 4,14 8,28 14,41 5,12 11,23 19,33 4,5 8,10 12,14 5,5 11,10 17,14 6,5 12,10 19,14 8,5 15,9 23,13 9,5 17,10 26,14 10,4 20,8 30,13 11,4 22,8 33,12 12,4 24,8 36,13"/>
  <line class="fil0 str0" x1="45217" y1="44304" x2="45261" y2= "44319" />
  <line class="fil0 str0" x1="45217" y1="45149" x2="45217" y2= "44304" />
  <line class="fil0 str0" x1="45261" y1="45162" x2="45217" y2= "45149" />
  <path class="fil0 str0" d="M45358 44967c-7,1 -14,1 -20,3 -6,1 -13,4 -18,7 -6,3 -11,8 -16,12 -5,6 -10,11 -14,18 -5,7 -9,16 -12,24 -4,11 -6,23 -9,34 -2,15 -4,29 -5,44 -2,18 -2,35 -3,53"/>
  <path class="fil0 str0" d="M45501 45000c-15,-5 -30,-10 -45,-15 -13,-3 -26,-7 -39,-10 -11,-2 -22,-4 -33,-6 -8,-1 -17,-1 -26,-2"/>
  <line class="fil0 str0" x1="45972" y1="45150" x2="45501" y2= "45000" />
  <line class="fil0 str0" x1="45972" y1="45779" x2="45972" y2= "45150" />
  <line class="fil0 str0" x1="45501" y1="45629" x2="45972" y2= "45779" />
  <path class="fil0 str0" d="M45261 45338c1,20 1,39 3,58 2,17 4,34 8,50 4,14 8,28 14,42 5,12 11,23 19,33 4,5 8,10 12,15 5,5 11,9 17,14 6,5 12,9 19,14 8,5 15,9 23,13 9,5 17,9 26,14 10,4 20,9 30,13 11,4 22,8 33,12 12,5 24,9 36,13"/>
  <line class="fil0 str0" x1="45217" y1="45319" x2="45261" y2= "45338" />
  <line class="fil0 str0" x1="45217" y1="46176" x2="45217" y2= "45319" />
  <line class="fil0 str0" x1="45261" y1="46189" x2="45217" y2= "46176" />
  <path class="fil0 str0" d="M45294 46025c-5,9 -10,18 -13,27 -5,12 -8,24 -10,36 -3,16 -5,31 -7,46 -1,18 -2,36 -3,55"/>
  <path class="fil0 str0" d="M45359 45990c-6,0 -13,0 -20,2 -6,1 -12,4 -18,7 -5,2 -10,6 -15,10 -4,5 -8,10 -12,16"/>
  <path class="fil0 str0" d="M45502 46022c-15,-5 -31,-10 -46,-14 -13,-4 -26,-7 -39,-10 -11,-3 -22,-5 -32,-6 -9,-1 -17,-2 -26,-2"/>
  <line class="fil0 str0" x1="46517" y1="46346" x2="45502" y2= "46022" />
  <path class="fil0 str0" d="M46772 46652c0,-20 -1,-40 -3,-60 -2,-18 -5,-35 -10,-52 -4,-16 -9,-31 -16,-45 -6,-13 -13,-26 -22,-37 -5,-5 -10,-11 -15,-16 -6,-5 -11,-10 -17,-15 -7,-6 -14,-11 -21,-15 -8,-5 -16,-10 -24,-15 -9,-4 -18,-9 -27,-13 -10,-5 -20,-9 -30,-14 -11,-4 -22,-8 -34,-12 -12,-4 -24,-8 -36,-12"/>
  <line class="fil0 str0" x1="46817" y1="46666" x2="46772" y2= "46652" />
  <line class="fil0 str0" x1="46817" y1="45793" x2="46817" y2= "46666" />
  <line class="fil0 str0" x1="46772" y1="45779" x2="46817" y2= "45793" />
  <path class="fil0 str0" d="M46664 45982c8,0 16,-1 23,-2 7,-2 14,-4 20,-7 6,-3 12,-7 17,-11 5,-4 10,-10 14,-15 3,-3 5,-7 6,-10 3,-5 4,-9 6,-14 2,-5 3,-11 5,-16 2,-7 3,-13 5,-20 1,-7 2,-15 4,-22 1,-9 2,-17 3,-26 1,-9 2,-19 3,-28 1,-11 1,-21 2,-32"/>
  <path class="fil0 str0" d="M46520 45953c15,5 30,9 45,13 12,3 25,6 38,9 11,2 22,4 33,5 10,1 19,1 28,2"/>
  <line class="fil0 str0" x1="46061" y1="45808" x2="46520" y2= "45953" />
  <line class="fil0 str0" x1="46061" y1="45178" x2="46061" y2= "45808" />
  <line class="fil0 str0" x1="46516" y1="45324" x2="46061" y2= "45178" />
  <path class="fil0 str0" d="M46772 45614c0,-18 -1,-37 -3,-55 -2,-17 -5,-33 -9,-49 -4,-14 -9,-28 -15,-41 -6,-12 -13,-24 -21,-34 -5,-5 -9,-10 -14,-15 -6,-5 -12,-10 -18,-15 -6,-5 -13,-10 -20,-14 -8,-5 -16,-10 -24,-14 -10,-5 -19,-10 -28,-14 -10,-5 -21,-9 -31,-13 -12,-5 -23,-9 -35,-13 -12,-5 -25,-9 -38,-13"/>
  <path class="fil0 str0" d="M45293 39722c-8,-17 -16,-34 -23,-51 -8,-18 -14,-36 -20,-54 -7,-18 -12,-37 -17,-56 -5,-20 -10,-40 -14,-60 -4,-20 -8,-41 -11,-62 -3,-21 -5,-43 -7,-64 -1,-9 -2,-18 -3,-26"/>
  <path class="fil0 str0" d="M46307 40404c-24,0 -49,-1 -73,-3 -25,-2 -49,-5 -73,-10 -25,-4 -50,-10 -74,-16 -25,-7 -49,-14 -73,-23 -25,-9 -50,-19 -74,-30 -25,-11 -49,-23 -73,-36 -25,-13 -50,-27 -74,-42 -25,-16 -49,-33 -74,-50 -24,-17 -47,-35 -71,-53 -22,-18 -44,-36 -66,-55 -20,-18 -41,-37 -60,-57 -20,-19 -38,-38 -56,-58 -18,-19 -35,-39 -51,-60 -16,-20 -31,-40 -46,-61 -14,-21 -28,-42 -41,-63 -12,-22 -24,-43 -35,-65"/>
  <path class="fil0 str0" d="M46823 39941c-1,4 -1,7 -2,10 -6,26 -13,51 -22,76 -9,25 -20,49 -32,73 -6,11 -12,23 -19,35 -6,11 -13,22 -21,33 -7,10 -14,21 -22,31 -7,10 -16,20 -24,29 -8,9 -17,18 -26,27 -9,9 -18,17 -28,25 -9,8 -19,16 -29,23 -10,7 -21,14 -31,21 -21,13 -42,25 -65,35 -21,10 -42,18 -64,25 -22,7 -43,12 -65,16 -22,3 -44,4 -66,4"/>
  <line class="fil0 str0" x1="46823" y1="39941" x2="46709" y2= "39881" />
  <path class="fil0 str0" d="M46447 39982c13,0 26,0 38,-1 12,0 24,-2 36,-3 11,-1 22,-3 33,-5 10,-2 21,-5 31,-7 9,-3 18,-6 27,-10 9,-3 17,-7 25,-11 8,-4 15,-9 22,-14 7,-5 13,-10 19,-15 12,-11 22,-22 31,-35"/>
  <path class="fil0 str0" d="M45368 39535c15,16 30,33 45,48 16,16 33,31 50,46 18,15 36,30 54,44 20,14 40,28 60,41 21,14 43,27 64,39 23,13 46,26 70,37 24,12 49,24 74,35 27,11 53,22 80,32 26,10 53,20 80,29 26,9 52,18 79,26 25,8 50,15 76,21 24,7 49,13 74,18 23,5 47,9 72,13 23,4 46,8 69,11 22,2 45,4 67,5 22,1 43,2 65,2"/>
  <path class="fil0 str0" d="M45292 39378c1,6 2,11 3,16 3,10 6,21 10,31 3,10 7,20 12,29 4,10 9,19 14,29 6,9 11,18 18,26 6,9 13,18 19,26"/>
  <line class="fil0 str0" x1="45292" y1="39378" x2="45198" y2= "39349" />
  <path class="fil0 str0" d="M46741 39652c-3,-12 -6,-25 -10,-38 -4,-12 -9,-25 -14,-37 -6,-13 -13,-25 -20,-36 -7,-13 -16,-25 -24,-37 -10,-13 -21,-26 -31,-38 -12,-13 -24,-26 -36,-39 -14,-13 -29,-26 -44,-39 -16,-13 -34,-26 -51,-39 -20,-14 -40,-27 -60,-39 -23,-14 -46,-28 -69,-40 -12,-7 -25,-14 -38,-20 -13,-7 -27,-13 -41,-20 -15,-6 -29,-13 -44,-19 -16,-7 -32,-13 -48,-19 -17,-6 -34,-12 -51,-18 -18,-7 -36,-13 -54,-19 -19,-6 -38,-12 -58,-18 -20,-6 -40,-12 -60,-18 -21,-5 -41,-11 -62,-16 -19,-5 -38,-10 -58,-15 -19,-4 -37,-8 -56,-12 -18,-3 -35,-6 -53,-9 -17,-3 -34,-6 -51,-8 -16,-2 -32,-4 -48,-6 -15,-1 -31,-2 -46,-3 -14,-1 -28,-1 -43,-1"/>
  <line class="fil0 str0" x1="46835" y1="39702" x2="46741" y2= "39652" />
  <path class="fil0 str0" d="M45746 38627c21,0 43,0 64,2 22,2 43,5 65,8 21,4 43,8 64,13 22,5 44,11 65,18 22,7 43,15 65,23 22,9 43,18 65,29 22,10 43,22 65,33 22,13 44,26 65,39 22,14 43,29 63,44 21,15 41,30 61,47 19,16 39,32 57,50 19,17 37,35 54,54 17,19 34,38 51,58 16,20 32,40 47,61 15,21 30,43 44,65 14,22 28,45 41,68 13,24 25,47 37,71 11,23 22,46 32,70 9,23 18,46 26,70 9,22 16,46 23,69 6,23 12,46 17,69 5,23 9,46 12,69 2,15 4,30 6,45"/>
  <path class="fil0 str0" d="M45198 39151c0,-6 1,-11 1,-17 2,-15 4,-31 6,-47 3,-15 6,-30 9,-44 3,-14 7,-29 11,-42 4,-14 8,-27 13,-40 5,-12 10,-24 16,-36 5,-12 11,-24 18,-35 6,-11 13,-21 20,-32 7,-10 15,-20 22,-30 8,-9 16,-18 24,-27 8,-9 17,-18 26,-26 9,-8 18,-16 27,-24 10,-7 20,-14 30,-21 10,-7 20,-14 30,-20 11,-6 22,-12 33,-17 22,-11 44,-21 67,-29 21,-8 43,-15 66,-21 21,-5 43,-10 65,-12 21,-3 42,-4 64,-4"/>
  <line class="fil0 str0" x1="45306" y1="39185" x2="45198" y2= "39151" />
  <path class="fil0 str0" d="M45571 39049c-11,0 -23,0 -34,1 -11,1 -22,2 -32,3 -11,1 -21,3 -31,6 -9,2 -18,4 -27,7 -9,3 -18,6 -26,10 -9,3 -16,7 -24,11 -7,5 -14,9 -21,14 -7,5 -14,11 -20,16 -6,6 -11,12 -17,18 -5,6 -10,12 -15,19 -4,7 -8,13 -12,20 -2,4 -4,8 -6,11"/>
  <line class="fil0 str0" x1="46327" y1="47916" x2="46136" y2= "47737" />
  <line class="fil0 str0" x1="46147" y1="47908" x2="46327" y2= "47916" />
  <line class="fil0 str0" x1="46147" y1="47908" x2="46147" y2= "48271" />
  <line class="fil0 str0" x1="46839" y1="48293" x2="46147" y2= "48271" />
  <line class="fil0 str0" x1="46839" y1="48249" x2="46839" y2= "48293" />
  <line class="fil0 str0" x1="46205" y1="47663" x2="46839" y2= "48249" />
  <line class="fil0 str0" x1="46205" y1="47663" x2="46136" y2= "47737" />
  <line class="fil0 str0" x1="12201" y1="31337" x2="11761" y2= "31337" />
  <line class="fil0 str0" x1="11761" y1="31337" x2="11761" y2= "34377" />
  <line class="fil0 str0" x1="11761" y1="34377" x2="12201" y2= "34377" />
  <line class="fil0 str0" x1="12201" y1="34377" x2="12201" y2= "31337" />
  <line class="fil0 str0" x1="11761" y1="26377" x2="12201" y2= "26377" />
  <line class="fil0 str0" x1="12201" y1="26377" x2="12201" y2= "23337" />
  <line class="fil0 str0" x1="12201" y1="23337" x2="11761" y2= "23337" />
  <line class="fil0 str0" x1="11761" y1="23337" x2="11761" y2= "26377" />
  <line class="fil0 str0" x1="1761" y1="31337" x2="1761" y2= "34377" />
  <line class="fil0 str0" x1="1761" y1="34377" x2="2201" y2= "34377" />
  <line class="fil0 str0" x1="2201" y1="34377" x2="2201" y2= "31337" />
  <line class="fil0 str0" x1="2201" y1="31337" x2="1761" y2= "31337" />
  <line class="fil0 str0" x1="19861" y1="30787" x2="19861" y2= "32827" />
  <line class="fil0 str0" x1="19861" y1="32827" x2="20301" y2= "32827" />
  <line class="fil0 str0" x1="20301" y1="32827" x2="20301" y2= "30787" />
  <line class="fil0 str0" x1="20301" y1="30787" x2="19861" y2= "30787" />
  <line class="fil0 str0" x1="17901" y1="21847" x2="17901" y2= "21407" />
  <line class="fil0 str0" x1="17901" y1="21407" x2="14861" y2= "21407" />
  <line class="fil0 str0" x1="14861" y1="21407" x2="14861" y2= "21847" />
  <line class="fil0 str0" x1="14861" y1="21847" x2="17901" y2= "21847" />
  <line class="fil0 str0" x1="20301" y1="24827" x2="20301" y2= "22787" />
  <line class="fil0 str0" x1="20301" y1="22787" x2="19861" y2= "22787" />
  <line class="fil0 str0" x1="19861" y1="22787" x2="19861" y2= "24827" />
  <line class="fil0 str0" x1="19861" y1="24827" x2="20301" y2= "24827" />
  <line class="fil0 str0" x1="3861" y1="21407" x2="3861" y2= "21847" />
  <line class="fil0 str0" x1="3861" y1="21847" x2="6901" y2= "21847" />
  <line class="fil0 str0" x1="6901" y1="21847" x2="6901" y2= "21407" />
  <line class="fil0 str0" x1="6901" y1="21407" x2="3861" y2= "21407" />
  <line class="fil0 str0" x1="1761" y1="23337" x2="1761" y2= "26377" />
  <line class="fil0 str0" x1="1761" y1="26377" x2="2201" y2= "26377" />
  <line class="fil0 str0" x1="2201" y1="26377" x2="2201" y2= "23337" />
  <line class="fil0 str0" x1="2201" y1="23337" x2="1761" y2= "23337" />
  <line class="fil0 str0" x1="20881" y1="35527" x2="20881" y2= "20827" />
  <line class="fil0 str0" x1="881" y1="35527" x2="20881" y2= "35527" />
  <line class="fil0 str0" x1="881" y1="20827" x2="881" y2= "35527" />
  <line class="fil0 str0" x1="20881" y1="20827" x2="881" y2= "20827" />
  <line class="fil0 str0" x1="40897" y1="35456" x2="38057" y2= "35456" />
  <line class="fil0 str0" x1="39877" y1="24396" x2="39877" y2= "21356" />
  <line class="fil0 str0" x1="39877" y1="34396" x2="39877" y2= "31356" />
  <line class="fil0 str0" x1="40317" y1="24396" x2="39877" y2= "24396" />
  <line class="fil0 str0" x1="40317" y1="24396" x2="40317" y2= "21356" />
  <line class="fil0 str0" x1="40317" y1="21356" x2="39877" y2= "21356" />
  <line class="fil0 str0" x1="40317" y1="34396" x2="39877" y2= "34396" />
  <line class="fil0 str0" x1="40317" y1="34396" x2="40317" y2= "31356" />
  <line class="fil0 str0" x1="40317" y1="31356" x2="39877" y2= "31356" />
  <line class="fil0 str0" x1="38057" y1="35456" x2="38057" y2= "35856" />
  <line class="fil0 str0" x1="38057" y1="35856" x2="35057" y2= "35856" />
  <line class="fil0 str0" x1="35057" y1="35456" x2="35057" y2= "35856" />
  <line class="fil0 str0" x1="35057" y1="35456" x2="28057" y2= "35456" />
  <line class="fil0 str0" x1="28057" y1="35456" x2="28057" y2= "35856" />
  <line class="fil0 str0" x1="25057" y1="35856" x2="28057" y2= "35856" />
  <line class="fil0 str0" x1="25057" y1="35456" x2="25057" y2= "35856" />
  <line class="fil0 str0" x1="25057" y1="35456" x2="22217" y2= "35456" />
  <line class="fil0 str0" x1="22217" y1="35456" x2="22217" y2= "33376" />
  <line class="fil0 str0" x1="22217" y1="33376" x2="21817" y2= "33376" />
  <line class="fil0 str0" x1="21817" y1="33376" x2="21817" y2= "30376" />
  <line class="fil0 str0" x1="22217" y1="30376" x2="21817" y2= "30376" />
  <line class="fil0 str0" x1="22217" y1="30376" x2="22217" y2= "25376" />
  <line class="fil0 str0" x1="22217" y1="25376" x2="21817" y2= "25376" />
  <line class="fil0 str0" x1="21817" y1="25376" x2="21817" y2= "22376" />
  <line class="fil0 str0" x1="22217" y1="22376" x2="21817" y2= "22376" />
  <line class="fil0 str0" x1="22217" y1="22376" x2="22217" y2= "20296" />
  <line class="fil0 str0" x1="25057" y1="20296" x2="22217" y2= "20296" />
  <line class="fil0 str0" x1="25057" y1="20296" x2="25057" y2= "19896" />
  <line class="fil0 str0" x1="25057" y1="19896" x2="28057" y2= "19896" />
  <line class="fil0 str0" x1="28057" y1="20296" x2="28057" y2= "19896" />
  <line class="fil0 str0" x1="35057" y1="20296" x2="28057" y2= "20296" />
  <line class="fil0 str0" x1="35057" y1="20296" x2="35057" y2= "19896" />
  <line class="fil0 str0" x1="35057" y1="19896" x2="38057" y2= "19896" />
  <line class="fil0 str0" x1="38057" y1="20296" x2="38057" y2= "19896" />
  <line class="fil0 str0" x1="40897" y1="20296" x2="38057" y2= "20296" />
  <line class="fil0 str0" x1="40897" y1="35456" x2="40897" y2= "20296" />
  <line class="fil0 str0" x1="1300" y1="5199" x2="16100" y2= "5199" />
  <line class="fil0 str0" x1="16100" y1="12399" x2="16100" y2= "5199" />
  <line class="fil0 str0" x1="16100" y1="12399" x2="16900" y2= "12399" />
  <line class="fil0 str0" x1="16900" y1="12399" x2="16900" y2= "12899" />
  <line class="fil0 str0" x1="16100" y1="12899" x2="16900" y2= "12899" />
  <line class="fil0 str0" x1="16100" y1="20399" x2="16100" y2= "12899" />
  <line class="fil0 str0" x1="1300" y1="20399" x2="16100" y2= "20399" />
  <line class="fil0 str0" x1="1300" y1="20399" x2="1300" y2= "12899" />
  <line class="fil0 str0" x1="1300" y1="12899" x2="500" y2= "12899" />
  <line class="fil0 str0" x1="500" y1="12399" x2="500" y2= "12899" />
  <line class="fil0 str0" x1="1300" y1="12399" x2="500" y2= "12399" />
  <line class="fil0 str0" x1="1300" y1="12399" x2="1300" y2= "5199" />
 </g>
</svg>
