<?xml version="1.0" encoding="UTF-8"?>
<!DOCTYPE svg PUBLIC "-//W3C//DTD SVG 1.1//EN" "http://www.w3.org/Graphics/SVG/1.1/DTD/svg11.dtd">
<!-- Creator: CorelDRAW X7 -->
<svg xmlns="http://www.w3.org/2000/svg" xml:space="preserve" width="500mm" height="500mm" version="1.1" style="shape-rendering:geometricPrecision; text-rendering:geometricPrecision; image-rendering:optimizeQuality; fill-rule:evenodd; clip-rule:evenodd"
viewBox="0 0 50000 50000"
 xmlns:xlink="http://www.w3.org/1999/xlink">
 <defs>
  <style type="text/css">
   <![CDATA[
    .str0 {stroke:black;stroke-width:25;stroke-linejoin:bevel}
    .fil0 {fill:none}
   ]]>
  </style>
 </defs>
 <g id="_0">
  <metadata id="CorelCorpID_0Corel-Layer"/>
  <line class="fil0 str0" x1="33127" y1="48215" x2="33127" y2= "48655" />
  <line class="fil0 str0" x1="36167" y1="38215" x2="36167" y2= "38655" />
  <line class="fil0 str0" x1="12647" y1="33215" x2="13087" y2= "33215" />
  <line class="fil0 str0" x1="12647" y1="44215" x2="13087" y2= "44215" />
  <line class="fil0 str0" x1="28207" y1="33215" x2="28647" y2= "33215" />
  <line class="fil0 str0" x1="28207" y1="44215" x2="28647" y2= "44215" />
  <line class="fil0 str0" x1="40647" y1="32535" x2="41047" y2= "32535" />
  <line class="fil0 str0" x1="33127" y1="38215" x2="36167" y2= "38215" />
  <line class="fil0 str0" x1="33127" y1="38215" x2="33127" y2= "38655" />
  <line class="fil0 str0" x1="33127" y1="38655" x2="36167" y2= "38655" />
  <line class="fil0 str0" x1="12647" y1="36255" x2="12647" y2= "33215" />
  <line class="fil0 str0" x1="12647" y1="36255" x2="13087" y2= "36255" />
  <line class="fil0 str0" x1="13087" y1="36255" x2="13087" y2= "33215" />
  <line class="fil0 str0" x1="12647" y1="47255" x2="12647" y2= "44215" />
  <line class="fil0 str0" x1="12647" y1="47255" x2="13087" y2= "47255" />
  <line class="fil0 str0" x1="13087" y1="47255" x2="13087" y2= "44215" />
  <line class="fil0 str0" x1="28207" y1="36255" x2="28207" y2= "33215" />
  <line class="fil0 str0" x1="28207" y1="36255" x2="28647" y2= "36255" />
  <line class="fil0 str0" x1="28647" y1="36255" x2="28647" y2= "33215" />
  <line class="fil0 str0" x1="28207" y1="47255" x2="28207" y2= "44215" />
  <line class="fil0 str0" x1="28207" y1="47255" x2="28647" y2= "47255" />
  <line class="fil0 str0" x1="28647" y1="47255" x2="28647" y2= "44215" />
  <line class="fil0 str0" x1="41047" y1="35535" x2="41047" y2= "32535" />
  <line class="fil0 str0" x1="40647" y1="35535" x2="41047" y2= "35535" />
  <line class="fil0 str0" x1="40647" y1="35535" x2="40647" y2= "43535" />
  <line class="fil0 str0" x1="40647" y1="43535" x2="41047" y2= "43535" />
  <line class="fil0 str0" x1="41047" y1="43535" x2="41047" y2= "46535" />
  <line class="fil0 str0" x1="40647" y1="46535" x2="41047" y2= "46535" />
  <line class="fil0 str0" x1="40647" y1="46535" x2="40647" y2= "49535" />
  <line class="fil0 str0" x1="647" y1="49535" x2="40647" y2= "49535" />
  <line class="fil0 str0" x1="647" y1="46535" x2="647" y2= "49535" />
  <line class="fil0 str0" x1="647" y1="46535" x2="247" y2= "46535" />
  <line class="fil0 str0" x1="247" y1="43535" x2="247" y2= "46535" />
  <line class="fil0 str0" x1="647" y1="43535" x2="247" y2= "43535" />
  <line class="fil0 str0" x1="647" y1="35535" x2="647" y2= "43535" />
  <line class="fil0 str0" x1="647" y1="35535" x2="247" y2= "35535" />
  <line class="fil0 str0" x1="247" y1="35535" x2="247" y2= "32535" />
  <line class="fil0 str0" x1="647" y1="32535" x2="247" y2= "32535" />
  <line class="fil0 str0" x1="647" y1="29535" x2="647" y2= "32535" />
  <line class="fil0 str0" x1="647" y1="29535" x2="40647" y2= "29535" />
  <line class="fil0 str0" x1="40647" y1="29535" x2="40647" y2= "32535" />
  <line class="fil0 str0" x1="33127" y1="48655" x2="36167" y2= "48655" />
  <line class="fil0 str0" x1="36167" y1="48215" x2="36167" y2= "48655" />
  <line class="fil0 str0" x1="33127" y1="48215" x2="36167" y2= "48215" />
  <path class="fil0 str0" d="M6006 20340c-531,-161 -1108,1 -1477,415"/>
  <line class="fil0 str0" x1="9802" y1="24746" x2="9802" y2= "28510" />
  <line class="fil0 str0" x1="9802" y1="28510" x2="5602" y2= "28510" />
  <line class="fil0 str0" x1="5602" y1="28510" x2="5602" y2= "28910" />
  <line class="fil0 str0" x1="3602" y1="28910" x2="5602" y2= "28910" />
  <line class="fil0 str0" x1="3602" y1="28510" x2="3602" y2= "28910" />
  <line class="fil0 str0" x1="3602" y1="28510" x2="802" y2= "28510" />
  <line class="fil0 str0" x1="802" y1="16510" x2="802" y2= "28510" />
  <line class="fil0 str0" x1="1752" y1="16510" x2="802" y2= "16510" />
  <line class="fil0 str0" x1="1752" y1="16510" x2="1752" y2= "16110" />
  <line class="fil0 str0" x1="3752" y1="16110" x2="1752" y2= "16110" />
  <line class="fil0 str0" x1="3752" y1="16510" x2="3752" y2= "16110" />
  <line class="fil0 str0" x1="6852" y1="16510" x2="3752" y2= "16510" />
  <line class="fil0 str0" x1="6852" y1="16510" x2="6852" y2= "16110" />
  <line class="fil0 str0" x1="6852" y1="16110" x2="8852" y2= "16110" />
  <line class="fil0 str0" x1="8852" y1="16510" x2="8852" y2= "16110" />
  <line class="fil0 str0" x1="9802" y1="16510" x2="8852" y2= "16510" />
  <line class="fil0 str0" x1="9802" y1="16510" x2="9802" y2= "20274" />
  <path class="fil0 str0" d="M9469 21019c212,-190 333,-461 333,-745"/>
  <path class="fil0 str0" d="M9469 21019c-425,380 -667,922 -667,1491 0,569 242,1111 667,1491"/>
  <path class="fil0 str0" d="M9802 24746c0,-285 -121,-556 -333,-745"/>
  <path class="fil0 str0" d="M3917 21394c212,-206 416,-419 612,-639"/>
  <path class="fil0 str0" d="M2710 22510c411,-363 813,-735 1207,-1116"/>
  <path class="fil0 str0" d="M3917 23626c-394,-381 -796,-753 -1207,-1116"/>
  <path class="fil0 str0" d="M4529 24265c-196,-221 -400,-434 -612,-639"/>
  <path class="fil0 str0" d="M4529 24265c369,414 946,576 1477,414"/>
  <path class="fil0 str0" d="M6006 24679c485,-118 836,-539 866,-1037 29,-498 -270,-958 -737,-1132"/>
  <path class="fil0 str0" d="M6135 22510c467,-175 766,-634 737,-1132 -30,-499 -381,-919 -866,-1038"/>
  <line class="fil0 str0" x1="40477" y1="9641" x2="38437" y2= "9641" />
  <line class="fil0 str0" x1="38437" y1="9641" x2="38437" y2= "10081" />
  <line class="fil0 str0" x1="38437" y1="10081" x2="40477" y2= "10081" />
  <line class="fil0 str0" x1="40477" y1="10081" x2="40477" y2= "9641" />
  <line class="fil0 str0" x1="37577" y1="27741" x2="35537" y2= "27741" />
  <line class="fil0 str0" x1="35537" y1="27741" x2="35537" y2= "28181" />
  <line class="fil0 str0" x1="35537" y1="28181" x2="37577" y2= "28181" />
  <line class="fil0 str0" x1="37577" y1="28181" x2="37577" y2= "27741" />
  <line class="fil0 str0" x1="46517" y1="25781" x2="46957" y2= "25781" />
  <line class="fil0 str0" x1="46957" y1="25781" x2="46957" y2= "22741" />
  <line class="fil0 str0" x1="46957" y1="22741" x2="46517" y2= "22741" />
  <line class="fil0 str0" x1="46517" y1="22741" x2="46517" y2= "25781" />
  <line class="fil0 str0" x1="45577" y1="27741" x2="43537" y2= "27741" />
  <line class="fil0 str0" x1="43537" y1="27741" x2="43537" y2= "28181" />
  <line class="fil0 str0" x1="43537" y1="28181" x2="45577" y2= "28181" />
  <line class="fil0 str0" x1="45577" y1="28181" x2="45577" y2= "27741" />
  <line class="fil0 str0" x1="46957" y1="11741" x2="46517" y2= "11741" />
  <line class="fil0 str0" x1="46517" y1="11741" x2="46517" y2= "14781" />
  <line class="fil0 str0" x1="46517" y1="14781" x2="46957" y2= "14781" />
  <line class="fil0 str0" x1="46957" y1="14781" x2="46957" y2= "11741" />
  <line class="fil0 str0" x1="45577" y1="9641" x2="43537" y2= "9641" />
  <line class="fil0 str0" x1="43537" y1="9641" x2="43537" y2= "10081" />
  <line class="fil0 str0" x1="43537" y1="10081" x2="45577" y2= "10081" />
  <line class="fil0 str0" x1="45577" y1="10081" x2="45577" y2= "9641" />
  <line class="fil0 str0" x1="32537" y1="28761" x2="47537" y2= "28761" />
  <line class="fil0 str0" x1="37537" y1="8761" x2="32537" y2= "28761" />
  <line class="fil0 str0" x1="47537" y1="8761" x2="37537" y2= "8761" />
  <line class="fil0 str0" x1="47537" y1="28761" x2="47537" y2= "8761" />
  <line class="fil0 str0" x1="13693" y1="13522" x2="11193" y2= "13522" />
  <line class="fil0 str0" x1="11193" y1="13522" x2="11193" y2= "13922" />
  <line class="fil0 str0" x1="11193" y1="13922" x2="9193" y2= "13922" />
  <line class="fil0 str0" x1="9193" y1="13522" x2="9193" y2= "13922" />
  <line class="fil0 str0" x1="9193" y1="13522" x2="6693" y2= "13522" />
  <line class="fil0 str0" x1="6693" y1="13522" x2="6693" y2= "13922" />
  <line class="fil0 str0" x1="4693" y1="13922" x2="6693" y2= "13922" />
  <line class="fil0 str0" x1="4693" y1="13522" x2="4693" y2= "13922" />
  <line class="fil0 str0" x1="4693" y1="13522" x2="393" y2= "13522" />
  <line class="fil0 str0" x1="393" y1="13522" x2="393" y2= "1522" />
  <line class="fil0 str0" x1="1193" y1="1522" x2="393" y2= "1522" />
  <line class="fil0 str0" x1="1193" y1="1522" x2="1193" y2= "1122" />
  <line class="fil0 str0" x1="1193" y1="1122" x2="4193" y2= "1122" />
  <line class="fil0 str0" x1="4193" y1="1522" x2="4193" y2= "1122" />
  <line class="fil0 str0" x1="9193" y1="1522" x2="4193" y2= "1522" />
  <line class="fil0 str0" x1="9193" y1="1522" x2="9193" y2= "1122" />
  <line class="fil0 str0" x1="9193" y1="1122" x2="12193" y2= "1122" />
  <line class="fil0 str0" x1="12193" y1="1522" x2="12193" y2= "1122" />
  <line class="fil0 str0" x1="13693" y1="1522" x2="12193" y2= "1522" />
  <line class="fil0 str0" x1="13693" y1="6022" x2="13693" y2= "1522" />
  <line class="fil0 str0" x1="13693" y1="6022" x2="14093" y2= "6022" />
  <line class="fil0 str0" x1="14093" y1="9022" x2="14093" y2= "6022" />
  <line class="fil0 str0" x1="13693" y1="9022" x2="14093" y2= "9022" />
  <line class="fil0 str0" x1="13693" y1="13522" x2="13693" y2= "9022" />
  <line class="fil0 str0" x1="27801" y1="28474" x2="29802" y2= "28474" />
  <line class="fil0 str0" x1="27801" y1="28474" x2="27801" y2= "28874" />
  <line class="fil0 str0" x1="24801" y1="28474" x2="24801" y2= "28874" />
  <line class="fil0 str0" x1="16801" y1="28474" x2="24801" y2= "28474" />
  <line class="fil0 str0" x1="16801" y1="28474" x2="16801" y2= "28874" />
  <line class="fil0 str0" x1="16801" y1="28874" x2="13801" y2= "28874" />
  <line class="fil0 str0" x1="13801" y1="28474" x2="13801" y2= "28874" />
  <line class="fil0 str0" x1="11102" y1="28474" x2="13801" y2= "28474" />
  <line class="fil0 str0" x1="11102" y1="26474" x2="10702" y2= "26474" />
  <line class="fil0 str0" x1="10702" y1="24474" x2="10702" y2= "26474" />
  <line class="fil0 str0" x1="11102" y1="24474" x2="10702" y2= "24474" />
  <line class="fil0 str0" x1="11102" y1="24474" x2="11102" y2= "18474" />
  <line class="fil0 str0" x1="10702" y1="18474" x2="11102" y2= "18474" />
  <line class="fil0 str0" x1="10702" y1="18474" x2="10702" y2= "16474" />
  <line class="fil0 str0" x1="10702" y1="16474" x2="11102" y2= "16474" />
  <line class="fil0 str0" x1="11102" y1="16474" x2="11102" y2= "15174" />
  <line class="fil0 str0" x1="24801" y1="28874" x2="27801" y2= "28874" />
  <line class="fil0 str0" x1="11102" y1="28474" x2="11102" y2= "26474" />
  <line class="fil0 str0" x1="29802" y1="28474" x2="29802" y2= "15174" />
  <line class="fil0 str0" x1="14102" y1="15174" x2="11102" y2= "15174" />
  <line class="fil0 str0" x1="26972" y1="21974" x2="26972" y2= "21534" />
  <line class="fil0 str0" x1="23932" y1="21974" x2="26972" y2= "21974" />
  <line class="fil0 str0" x1="23932" y1="21974" x2="23932" y2= "21534" />
  <line class="fil0 str0" x1="23932" y1="21534" x2="26972" y2= "21534" />
  <line class="fil0 str0" x1="29802" y1="15174" x2="16102" y2= "15174" />
  <line class="fil0 str0" x1="16102" y1="15174" x2="16102" y2= "9174" />
  <line class="fil0 str0" x1="14102" y1="9174" x2="16102" y2= "9174" />
  <line class="fil0 str0" x1="14102" y1="15174" x2="14102" y2= "9174" />
  <line class="fil0 str0" x1="28782" y1="23654" x2="29222" y2= "23654" />
  <line class="fil0 str0" x1="29222" y1="23654" x2="29222" y2= "25694" />
  <line class="fil0 str0" x1="28782" y1="25694" x2="29222" y2= "25694" />
  <line class="fil0 str0" x1="28782" y1="23654" x2="28782" y2= "25694" />
  <line class="fil0 str0" x1="16972" y1="21974" x2="13932" y2= "21974" />
  <line class="fil0 str0" x1="13932" y1="21974" x2="13932" y2= "21534" />
  <line class="fil0 str0" x1="16972" y1="21534" x2="13932" y2= "21534" />
  <line class="fil0 str0" x1="16972" y1="21974" x2="16972" y2= "21534" />
  <line class="fil0 str0" x1="29222" y1="18174" x2="28782" y2= "18174" />
  <line class="fil0 str0" x1="28782" y1="18174" x2="28782" y2= "16134" />
  <line class="fil0 str0" x1="29222" y1="16134" x2="28782" y2= "16134" />
  <line class="fil0 str0" x1="29222" y1="18174" x2="29222" y2= "16134" />
  <path class="fil0 str0" d="M15452 10174c0,-193 -157,-350 -350,-350 -194,0 -350,157 -350,350 0,193 156,350 350,350 193,0 350,-157 350,-350z"/>
  <line class="fil0 str0" x1="35268" y1="1439" x2="35268" y2= "3439" />
  <line class="fil0 str0" x1="35268" y1="3439" x2="35668" y2= "3439" />
  <line class="fil0 str0" x1="35668" y1="5439" x2="35668" y2= "3439" />
  <line class="fil0 str0" x1="35268" y1="5439" x2="35668" y2= "5439" />
  <line class="fil0 str0" x1="35268" y1="5439" x2="35268" y2= "11439" />
  <line class="fil0 str0" x1="35668" y1="11439" x2="35668" y2= "13439" />
  <line class="fil0 str0" x1="35668" y1="13439" x2="35268" y2= "13439" />
  <line class="fil0 str0" x1="35268" y1="13439" x2="35268" y2= "14739" />
  <line class="fil0 str0" x1="35668" y1="11439" x2="35268" y2= "11439" />
  <line class="fil0 str0" x1="32268" y1="14739" x2="35268" y2= "14739" />
  <line class="fil0 str0" x1="35268" y1="1439" x2="32568" y2= "1439" />
  <line class="fil0 str0" x1="29568" y1="1439" x2="29568" y2= "1039" />
  <line class="fil0 str0" x1="29568" y1="1439" x2="21568" y2= "1439" />
  <line class="fil0 str0" x1="21568" y1="1439" x2="21568" y2= "1039" />
  <line class="fil0 str0" x1="21568" y1="1039" x2="18568" y2= "1039" />
  <line class="fil0 str0" x1="18568" y1="1439" x2="18568" y2= "1039" />
  <line class="fil0 str0" x1="18568" y1="1439" x2="16568" y2= "1439" />
  <line class="fil0 str0" x1="16568" y1="1439" x2="16568" y2= "14739" />
  <line class="fil0 str0" x1="16568" y1="14739" x2="30268" y2= "14739" />
  <line class="fil0 str0" x1="30268" y1="14739" x2="30268" y2= "20739" />
  <line class="fil0 str0" x1="30268" y1="20739" x2="32268" y2= "20739" />
  <line class="fil0 str0" x1="32268" y1="14739" x2="32268" y2= "20739" />
  <line class="fil0 str0" x1="32568" y1="1439" x2="32568" y2= "1039" />
  <line class="fil0 str0" x1="29568" y1="1039" x2="32568" y2= "1039" />
  <line class="fil0 str0" x1="27588" y1="3919" x2="27148" y2= "3919" />
  <line class="fil0 str0" x1="27588" y1="5959" x2="27588" y2= "3919" />
  <line class="fil0 str0" x1="27588" y1="5959" x2="27148" y2= "5959" />
  <line class="fil0 str0" x1="27148" y1="5959" x2="27148" y2= "3919" />
  <line class="fil0 str0" x1="17588" y1="10459" x2="17588" y2= "8419" />
  <line class="fil0 str0" x1="17148" y1="10459" x2="17588" y2= "10459" />
  <line class="fil0 str0" x1="17148" y1="10459" x2="17148" y2= "8419" />
  <line class="fil0 str0" x1="17148" y1="8419" x2="17588" y2= "8419" />
  <line class="fil0 str0" x1="17588" y1="13789" x2="17588" y2= "11749" />
  <line class="fil0 str0" x1="17148" y1="13789" x2="17588" y2= "13789" />
  <line class="fil0 str0" x1="17148" y1="13789" x2="17148" y2= "11749" />
  <line class="fil0 str0" x1="17148" y1="11749" x2="17588" y2= "11749" />
  <line class="fil0 str0" x1="19398" y1="7939" x2="19398" y2= "8379" />
  <line class="fil0 str0" x1="22438" y1="7939" x2="19398" y2= "7939" />
  <line class="fil0 str0" x1="22438" y1="7939" x2="22438" y2= "8379" />
  <line class="fil0 str0" x1="22438" y1="8379" x2="19398" y2= "8379" />
  <line class="fil0 str0" x1="17588" y1="5959" x2="17148" y2= "5959" />
  <line class="fil0 str0" x1="17148" y1="5959" x2="17148" y2= "3919" />
  <line class="fil0 str0" x1="17588" y1="3919" x2="17148" y2= "3919" />
  <line class="fil0 str0" x1="17588" y1="5959" x2="17588" y2= "3919" />
  <line class="fil0 str0" x1="29398" y1="7939" x2="32438" y2= "7939" />
  <line class="fil0 str0" x1="32438" y1="7939" x2="32438" y2= "8379" />
  <line class="fil0 str0" x1="29398" y1="8379" x2="32438" y2= "8379" />
  <line class="fil0 str0" x1="29398" y1="7939" x2="29398" y2= "8379" />
  <line class="fil0 str0" x1="27148" y1="10459" x2="27148" y2= "8419" />
  <line class="fil0 str0" x1="27148" y1="8419" x2="27588" y2= "8419" />
  <line class="fil0 str0" x1="27588" y1="10459" x2="27588" y2= "8419" />
  <line class="fil0 str0" x1="27148" y1="10459" x2="27588" y2= "10459" />
  <path class="fil0 str0" d="M31618 19739c0,-193 -156,-350 -350,-350 -193,0 -350,157 -350,350 0,193 157,350 350,350 194,0 350,-157 350,-350z"/>
 </g>
</svg>
