<?xml version="1.0" encoding="UTF-8"?>
<!DOCTYPE svg PUBLIC "-//W3C//DTD SVG 1.1//EN" "http://www.w3.org/Graphics/SVG/1.1/DTD/svg11.dtd">
<!-- Creator: CorelDRAW X7 -->
<svg xmlns="http://www.w3.org/2000/svg" xml:space="preserve" width="210mm" height="297mm" version="1.1" style="shape-rendering:geometricPrecision; text-rendering:geometricPrecision; image-rendering:optimizeQuality; fill-rule:evenodd; clip-rule:evenodd"
viewBox="0 0 21000 29700"
 xmlns:xlink="http://www.w3.org/1999/xlink">
 <defs>
  <style type="text/css">
   <![CDATA[
    .str0 {stroke:black;stroke-width:25;stroke-linejoin:bevel}
    .fil0 {fill:none}
   ]]>
  </style>
 </defs>
 <g id="_0">
  <metadata id="CorelCorpID_0Corel-Layer"/>
  <line class="fil0 str0" x1="4172" y1="26895" x2="3472" y2= "26895" />
  <path class="fil0 str0" d="M4172 26895c0,-235 -37,-468 -109,-692"/>
  <path class="fil0 str0" d="M4063 26203c-341,54 -591,347 -591,692"/>
  <line class="fil0 str0" x1="3497" y1="27395" x2="4115" y2= "27395" />
  <line class="fil0 str0" x1="3497" y1="28502" x2="3497" y2= "27395" />
  <path class="fil0 str0" d="M3497 28502c308,-302 523,-687 618,-1107"/>
  <path class="fil0 str0" d="M4672 26895c0,-255 -36,-508 -105,-753"/>
  <line class="fil0 str0" x1="4672" y1="26895" x2="5747" y2= "26895" />
  <line class="fil0 str0" x1="5747" y1="26895" x2="5747" y2= "25395" />
  <line class="fil0 str0" x1="5465" y1="25395" x2="5747" y2= "25395" />
  <path class="fil0 str0" d="M4567 26142c429,-30 790,-331 898,-747"/>
  <path class="fil0 str0" d="M5465 24895c-89,-346 -356,-618 -700,-714"/>
  <line class="fil0 str0" x1="5465" y1="24895" x2="5747" y2= "24895" />
  <line class="fil0 str0" x1="5747" y1="24895" x2="5747" y2= "20849" />
  <path class="fil0 str0" d="M5747 20849c-523,502 -838,1182 -882,1906"/>
  <line class="fil0 str0" x1="4865" y1="22755" x2="4765" y2= "24181" />
  <path class="fil0 str0" d="M3801 25753c-217,71 -409,202 -554,377"/>
  <path class="fil0 str0" d="M3247 24404c126,472 312,925 554,1349"/>
  <path class="fil0 str0" d="M3622 20470c0,-365 -134,-718 -375,-992"/>
  <line class="fil0 str0" x1="3497" y1="22932" x2="3622" y2= "20470" />
  <path class="fil0 str0" d="M3497 22932c0,915 239,1814 693,2608"/>
  <path class="fil0 str0" d="M4190 25540c201,156 487,136 665,-46 177,-182 190,-469 29,-666 -161,-197 -445,-241 -658,-103"/>
  <line class="fil0 str0" x1="4369" y1="22670" x2="4226" y2= "24725" />
  <path class="fil0 str0" d="M6247 19895c-1072,529 -1785,1584 -1878,2775"/>
  <line class="fil0 str0" x1="6247" y1="27395" x2="6247" y2= "19895" />
  <line class="fil0 str0" x1="4626" y1="27395" x2="6247" y2= "27395" />
  <path class="fil0 str0" d="M3544 29115c567,-414 954,-1030 1082,-1720"/>
  <path class="fil0 str0" d="M3544 29115c-126,96 -228,220 -297,363"/>
  <path class="fil0 str0" d="M1629 22755c-45,-724 -360,-1404 -882,-1906"/>
  <line class="fil0 str0" x1="1028" y1="25395" x2="747" y2= "25395" />
  <line class="fil0 str0" x1="2997" y1="28502" x2="2997" y2= "27395" />
  <path class="fil0 str0" d="M2431 26203c-73,224 -109,457 -109,692"/>
  <line class="fil0 str0" x1="747" y1="24895" x2="747" y2= "20849" />
  <line class="fil0 str0" x1="1028" y1="24895" x2="747" y2= "24895" />
  <path class="fil0 str0" d="M1729 24181c-344,96 -611,368 -701,714"/>
  <line class="fil0 str0" x1="1629" y1="22755" x2="1729" y2= "24181" />
  <line class="fil0 str0" x1="747" y1="26895" x2="747" y2= "25395" />
  <line class="fil0 str0" x1="1822" y1="26895" x2="747" y2= "26895" />
  <path class="fil0 str0" d="M1927 26142c-70,245 -105,498 -105,753"/>
  <path class="fil0 str0" d="M1028 25395c108,416 470,717 899,747"/>
  <line class="fil0 str0" x1="2997" y1="27395" x2="2378" y2= "27395" />
  <path class="fil0 str0" d="M2378 27395c96,420 311,805 619,1107"/>
  <line class="fil0 str0" x1="2322" y1="26895" x2="3022" y2= "26895" />
  <path class="fil0 str0" d="M3022 26895c0,-345 -251,-638 -591,-692"/>
  <path class="fil0 str0" d="M3247 29478c-69,-143 -171,-267 -298,-363"/>
  <path class="fil0 str0" d="M1868 27395c127,690 514,1306 1081,1720"/>
  <line class="fil0 str0" x1="1868" y1="27395" x2="247" y2= "27395" />
  <line class="fil0 str0" x1="247" y1="27395" x2="247" y2= "19895" />
  <path class="fil0 str0" d="M2124 22670c-92,-1191 -806,-2246 -1877,-2775"/>
  <line class="fil0 str0" x1="2124" y1="22670" x2="2268" y2= "24725" />
  <path class="fil0 str0" d="M2268 24725c-214,-138 -497,-94 -658,103 -161,197 -149,484 29,666 177,182 464,202 665,46"/>
  <path class="fil0 str0" d="M2304 25540c454,-794 693,-1693 693,-2608"/>
  <line class="fil0 str0" x1="2997" y1="22932" x2="2872" y2= "20470" />
  <path class="fil0 str0" d="M3247 19478c-242,274 -375,627 -375,992"/>
  <path class="fil0 str0" d="M2692 25753c242,-424 428,-877 555,-1349"/>
  <path class="fil0 str0" d="M3247 26130c-146,-175 -338,-306 -555,-377"/>
 </g>
</svg>
