<?xml version="1.0" encoding="UTF-8"?>
<!DOCTYPE svg PUBLIC "-//W3C//DTD SVG 1.1//EN" "http://www.w3.org/Graphics/SVG/1.1/DTD/svg11.dtd">
<!-- Creator: CorelDRAW X7 -->
<svg xmlns="http://www.w3.org/2000/svg" xml:space="preserve" width="500mm" height="500mm" version="1.1" style="shape-rendering:geometricPrecision; text-rendering:geometricPrecision; image-rendering:optimizeQuality; fill-rule:evenodd; clip-rule:evenodd"
viewBox="0 0 50000 50000"
 xmlns:xlink="http://www.w3.org/1999/xlink">
 <defs>
  <style type="text/css">
   <![CDATA[
    .str0 {stroke:black;stroke-width:25;stroke-linejoin:bevel}
    .fil0 {fill:none}
   ]]>
  </style>
 </defs>
 <g id="_0">
  <metadata id="CorelCorpID_0Corel-Layer"/>
  <line class="fil0 str0" x1="6562" y1="49185" x2="9602" y2= "49185" />
  <line class="fil0 str0" x1="9602" y1="49185" x2="9602" y2= "48795" />
  <line class="fil0 str0" x1="9602" y1="48795" x2="6562" y2= "48795" />
  <line class="fil0 str0" x1="6562" y1="48795" x2="6562" y2= "49185" />
  <line class="fil0 str0" x1="15277" y1="33720" x2="14887" y2= "33720" />
  <line class="fil0 str0" x1="14887" y1="33720" x2="14887" y2= "36760" />
  <line class="fil0 str0" x1="14887" y1="36760" x2="15277" y2= "36760" />
  <line class="fil0 str0" x1="15277" y1="36760" x2="15277" y2= "33720" />
  <line class="fil0 str0" x1="887" y1="36760" x2="1277" y2= "36760" />
  <line class="fil0 str0" x1="1277" y1="36760" x2="1277" y2= "33720" />
  <line class="fil0 str0" x1="1277" y1="33720" x2="887" y2= "33720" />
  <line class="fil0 str0" x1="887" y1="33720" x2="887" y2= "36760" />
  <line class="fil0 str0" x1="15582" y1="30990" x2="582" y2= "30990" />
  <line class="fil0 str0" x1="15582" y1="49490" x2="15582" y2= "30990" />
  <line class="fil0 str0" x1="582" y1="49490" x2="15582" y2= "49490" />
  <line class="fil0 str0" x1="582" y1="30990" x2="582" y2= "49490" />
  <line class="fil0 str0" x1="887" y1="46760" x2="1277" y2= "46760" />
  <line class="fil0 str0" x1="1277" y1="46760" x2="1277" y2= "43720" />
  <line class="fil0 str0" x1="1277" y1="43720" x2="887" y2= "43720" />
  <line class="fil0 str0" x1="887" y1="43720" x2="887" y2= "46760" />
  <line class="fil0 str0" x1="15277" y1="43720" x2="14887" y2= "43720" />
  <line class="fil0 str0" x1="14887" y1="43720" x2="14887" y2= "46760" />
  <line class="fil0 str0" x1="14887" y1="46760" x2="15277" y2= "46760" />
  <line class="fil0 str0" x1="15277" y1="46760" x2="15277" y2= "43720" />
  <line class="fil0 str0" x1="9602" y1="31295" x2="6562" y2= "31295" />
  <line class="fil0 str0" x1="6562" y1="31295" x2="6562" y2= "31685" />
  <line class="fil0 str0" x1="6562" y1="31685" x2="9602" y2= "31685" />
  <line class="fil0 str0" x1="9602" y1="31685" x2="9602" y2= "31295" />
  <line class="fil0 str0" x1="17795" y1="31307" x2="20835" y2= "31307" />
  <line class="fil0 str0" x1="22315" y1="49137" x2="16315" y2= "49137" />
  <line class="fil0 str0" x1="17795" y1="48807" x2="20835" y2= "48807" />
  <line class="fil0 str0" x1="16315" y1="49137" x2="16315" y2= "30637" />
  <line class="fil0 str0" x1="22315" y1="30637" x2="16315" y2= "30637" />
  <line class="fil0 str0" x1="22315" y1="33387" x2="22315" y2= "30637" />
  <line class="fil0 str0" x1="22315" y1="33387" x2="22615" y2= "33387" />
  <line class="fil0 str0" x1="22615" y1="33387" x2="22615" y2= "36387" />
  <line class="fil0 str0" x1="22315" y1="36387" x2="22615" y2= "36387" />
  <line class="fil0 str0" x1="22315" y1="43387" x2="22315" y2= "36387" />
  <line class="fil0 str0" x1="22315" y1="43387" x2="22615" y2= "43387" />
  <line class="fil0 str0" x1="22615" y1="46387" x2="22615" y2= "43387" />
  <line class="fil0 str0" x1="22315" y1="46387" x2="22615" y2= "46387" />
  <line class="fil0 str0" x1="22315" y1="49137" x2="22315" y2= "46387" />
  <line class="fil0 str0" x1="20835" y1="48807" x2="20835" y2= "48467" />
  <line class="fil0 str0" x1="17795" y1="48467" x2="20835" y2= "48467" />
  <line class="fil0 str0" x1="17795" y1="48807" x2="17795" y2= "48467" />
  <line class="fil0 str0" x1="20835" y1="30967" x2="20835" y2= "31307" />
  <line class="fil0 str0" x1="17795" y1="30967" x2="20835" y2= "30967" />
  <line class="fil0 str0" x1="17795" y1="30967" x2="17795" y2= "31307" />
  <line class="fil0 str0" x1="28237" y1="48458" x2="25197" y2= "48458" />
  <line class="fil0 str0" x1="23717" y1="30628" x2="29717" y2= "30628" />
  <line class="fil0 str0" x1="28237" y1="30958" x2="25197" y2= "30958" />
  <line class="fil0 str0" x1="29717" y1="30628" x2="29717" y2= "49128" />
  <line class="fil0 str0" x1="23717" y1="49128" x2="29717" y2= "49128" />
  <line class="fil0 str0" x1="23717" y1="46378" x2="23717" y2= "49128" />
  <line class="fil0 str0" x1="23717" y1="46378" x2="23417" y2= "46378" />
  <line class="fil0 str0" x1="23417" y1="46378" x2="23417" y2= "43378" />
  <line class="fil0 str0" x1="23717" y1="43378" x2="23417" y2= "43378" />
  <line class="fil0 str0" x1="23717" y1="36378" x2="23717" y2= "43378" />
  <line class="fil0 str0" x1="23717" y1="36378" x2="23417" y2= "36378" />
  <line class="fil0 str0" x1="23417" y1="33378" x2="23417" y2= "36378" />
  <line class="fil0 str0" x1="23717" y1="33378" x2="23417" y2= "33378" />
  <line class="fil0 str0" x1="23717" y1="30628" x2="23717" y2= "33378" />
  <line class="fil0 str0" x1="25197" y1="30958" x2="25197" y2= "31298" />
  <line class="fil0 str0" x1="28237" y1="31298" x2="25197" y2= "31298" />
  <line class="fil0 str0" x1="28237" y1="30958" x2="28237" y2= "31298" />
  <line class="fil0 str0" x1="25197" y1="48798" x2="25197" y2= "48458" />
  <line class="fil0 str0" x1="28237" y1="48798" x2="25197" y2= "48798" />
  <line class="fil0 str0" x1="28237" y1="48798" x2="28237" y2= "48458" />
  <line class="fil0 str0" x1="1519" y1="30446" x2="1519" y2= "28946" />
  <line class="fil0 str0" x1="1519" y1="28946" x2="1219" y2= "28946" />
  <line class="fil0 str0" x1="1219" y1="25946" x2="1219" y2= "28946" />
  <line class="fil0 str0" x1="1519" y1="25946" x2="1219" y2= "25946" />
  <line class="fil0 str0" x1="1519" y1="25946" x2="1519" y2= "24446" />
  <line class="fil0 str0" x1="1519" y1="24446" x2="15219" y2= "24446" />
  <line class="fil0 str0" x1="15219" y1="25946" x2="15219" y2= "24446" />
  <line class="fil0 str0" x1="15219" y1="25946" x2="15519" y2= "25946" />
  <line class="fil0 str0" x1="15519" y1="25946" x2="15519" y2= "28946" />
  <line class="fil0 str0" x1="15219" y1="28946" x2="15519" y2= "28946" />
  <line class="fil0 str0" x1="15219" y1="30446" x2="15219" y2= "28946" />
  <line class="fil0 str0" x1="9869" y1="30446" x2="15219" y2= "30446" />
  <line class="fil0 str0" x1="9869" y1="30446" x2="9869" y2= "30746" />
  <line class="fil0 str0" x1="6869" y1="30746" x2="9869" y2= "30746" />
  <line class="fil0 str0" x1="6869" y1="30446" x2="6869" y2= "30746" />
  <line class="fil0 str0" x1="1519" y1="30446" x2="6869" y2= "30446" />
  <line class="fil0 str0" x1="1566" y1="23514" x2="1566" y2= "22014" />
  <line class="fil0 str0" x1="1566" y1="22014" x2="1266" y2= "22014" />
  <line class="fil0 str0" x1="1266" y1="19014" x2="1266" y2= "22014" />
  <line class="fil0 str0" x1="1566" y1="19014" x2="1266" y2= "19014" />
  <line class="fil0 str0" x1="1566" y1="19014" x2="1566" y2= "17514" />
  <line class="fil0 str0" x1="1566" y1="17514" x2="15266" y2= "17514" />
  <line class="fil0 str0" x1="15266" y1="19014" x2="15266" y2= "17514" />
  <line class="fil0 str0" x1="15266" y1="19014" x2="15566" y2= "19014" />
  <line class="fil0 str0" x1="15566" y1="19014" x2="15566" y2= "22014" />
  <line class="fil0 str0" x1="15266" y1="22014" x2="15566" y2= "22014" />
  <line class="fil0 str0" x1="15266" y1="23514" x2="15266" y2= "22014" />
  <line class="fil0 str0" x1="9916" y1="23514" x2="15266" y2= "23514" />
  <line class="fil0 str0" x1="9916" y1="23514" x2="9916" y2= "23814" />
  <line class="fil0 str0" x1="6916" y1="23814" x2="9916" y2= "23814" />
  <line class="fil0 str0" x1="6916" y1="23514" x2="6916" y2= "23814" />
  <line class="fil0 str0" x1="1566" y1="23514" x2="6916" y2= "23514" />
  <line class="fil0 str0" x1="20003" y1="27718" x2="19303" y2= "27718" />
  <path class="fil0 str0" d="M20003 27718c0,-234 -36,-468 -108,-691"/>
  <path class="fil0 str0" d="M19895 27027c-341,53 -592,347 -592,691"/>
  <line class="fil0 str0" x1="19328" y1="28218" x2="19947" y2= "28218" />
  <line class="fil0 str0" x1="19328" y1="29325" x2="19328" y2= "28218" />
  <path class="fil0 str0" d="M19328 29325c309,-302 523,-686 619,-1107"/>
  <path class="fil0 str0" d="M20503 27718c0,-254 -35,-507 -104,-752"/>
  <line class="fil0 str0" x1="20503" y1="27718" x2="21578" y2= "27718" />
  <line class="fil0 str0" x1="21578" y1="27718" x2="21578" y2= "26218" />
  <line class="fil0 str0" x1="21297" y1="26218" x2="21578" y2= "26218" />
  <path class="fil0 str0" d="M20399 26966c428,-30 790,-331 898,-748"/>
  <path class="fil0 str0" d="M21297 25718c-90,-345 -356,-617 -701,-713"/>
  <line class="fil0 str0" x1="21297" y1="25718" x2="21578" y2= "25718" />
  <line class="fil0 str0" x1="21578" y1="25718" x2="21578" y2= "21673" />
  <path class="fil0 str0" d="M21578 21673c-522,502 -837,1182 -882,1905"/>
  <line class="fil0 str0" x1="20696" y1="23578" x2="20596" y2= "25005" />
  <path class="fil0 str0" d="M19633 26577c-217,70 -409,201 -555,377"/>
  <path class="fil0 str0" d="M19078 25228c127,471 313,925 555,1349"/>
  <path class="fil0 str0" d="M19453 21293c0,-365 -133,-718 -375,-992"/>
  <line class="fil0 str0" x1="19328" y1="23756" x2="19453" y2= "21293" />
  <path class="fil0 str0" d="M19328 23756c0,915 239,1813 694,2607"/>
  <path class="fil0 str0" d="M20022 26363c201,156 487,137 664,-46 178,-182 191,-468 29,-665 -161,-197 -444,-242 -658,-104"/>
  <line class="fil0 str0" x1="20201" y1="23494" x2="20057" y2= "25548" />
  <path class="fil0 str0" d="M22078 20718c-1071,530 -1785,1584 -1877,2776"/>
  <line class="fil0 str0" x1="22078" y1="28218" x2="22078" y2= "20718" />
  <line class="fil0 str0" x1="20458" y1="28218" x2="22078" y2= "28218" />
  <path class="fil0 str0" d="M19376 29939c567,-414 954,-1030 1082,-1721"/>
  <path class="fil0 str0" d="M19376 29939c-127,95 -229,220 -298,362"/>
  <path class="fil0 str0" d="M17461 23578c-45,-723 -360,-1403 -883,-1905"/>
  <line class="fil0 str0" x1="16860" y1="26218" x2="16578" y2= "26218" />
  <line class="fil0 str0" x1="18828" y1="29325" x2="18828" y2= "28218" />
  <path class="fil0 str0" d="M18262 27027c-72,223 -109,457 -109,691"/>
  <line class="fil0 str0" x1="16578" y1="25718" x2="16578" y2= "21673" />
  <line class="fil0 str0" x1="16860" y1="25718" x2="16578" y2= "25718" />
  <path class="fil0 str0" d="M17560 25005c-344,96 -611,368 -700,713"/>
  <line class="fil0 str0" x1="17461" y1="23578" x2="17560" y2= "25005" />
  <line class="fil0 str0" x1="16578" y1="27718" x2="16578" y2= "26218" />
  <line class="fil0 str0" x1="17653" y1="27718" x2="16578" y2= "27718" />
  <path class="fil0 str0" d="M17758 26966c-69,245 -105,498 -105,752"/>
  <path class="fil0 str0" d="M16860 26218c108,417 469,718 898,748"/>
  <line class="fil0 str0" x1="18828" y1="28218" x2="18210" y2= "28218" />
  <path class="fil0 str0" d="M18210 28218c96,421 310,805 618,1107"/>
  <line class="fil0 str0" x1="18153" y1="27718" x2="18853" y2= "27718" />
  <path class="fil0 str0" d="M18853 27718c0,-344 -250,-638 -591,-691"/>
  <path class="fil0 str0" d="M19078 30301c-69,-142 -170,-267 -297,-362"/>
  <path class="fil0 str0" d="M17699 28218c128,691 515,1307 1082,1721"/>
  <line class="fil0 str0" x1="17699" y1="28218" x2="16078" y2= "28218" />
  <line class="fil0 str0" x1="16078" y1="28218" x2="16078" y2= "20718" />
  <path class="fil0 str0" d="M17956 23494c-93,-1192 -806,-2246 -1878,-2776"/>
  <line class="fil0 str0" x1="17956" y1="23494" x2="18100" y2= "25548" />
  <path class="fil0 str0" d="M18100 25548c-214,-138 -497,-93 -659,104 -161,197 -148,483 30,665 177,183 463,202 664,46"/>
  <path class="fil0 str0" d="M18135 26363c454,-794 693,-1692 693,-2607"/>
  <line class="fil0 str0" x1="18828" y1="23756" x2="18703" y2= "21293" />
  <path class="fil0 str0" d="M19078 20301c-241,274 -375,627 -375,992"/>
  <path class="fil0 str0" d="M18524 26577c242,-424 428,-878 554,-1349"/>
  <path class="fil0 str0" d="M19078 26954c-145,-176 -337,-307 -554,-377"/>
  <line class="fil0 str0" x1="26960" y1="27634" x2="26260" y2= "27634" />
  <path class="fil0 str0" d="M26960 27634c0,-235 -37,-468 -109,-692"/>
  <path class="fil0 str0" d="M26851 26942c-340,54 -591,347 -591,692"/>
  <line class="fil0 str0" x1="26285" y1="28134" x2="26904" y2= "28134" />
  <line class="fil0 str0" x1="26285" y1="29241" x2="26285" y2= "28134" />
  <path class="fil0 str0" d="M26285 29241c308,-302 523,-687 619,-1107"/>
  <path class="fil0 str0" d="M27460 27634c0,-255 -35,-508 -105,-753"/>
  <line class="fil0 str0" x1="27460" y1="27634" x2="28535" y2= "27634" />
  <line class="fil0 str0" x1="28535" y1="27634" x2="28535" y2= "26134" />
  <line class="fil0 str0" x1="28253" y1="26134" x2="28535" y2= "26134" />
  <path class="fil0 str0" d="M27355 26881c429,-30 791,-331 898,-747"/>
  <path class="fil0 str0" d="M28253 25634c-89,-346 -356,-618 -700,-714"/>
  <line class="fil0 str0" x1="28253" y1="25634" x2="28535" y2= "25634" />
  <line class="fil0 str0" x1="28535" y1="25634" x2="28535" y2= "21588" />
  <path class="fil0 str0" d="M28535 21588c-523,502 -838,1182 -882,1906"/>
  <line class="fil0 str0" x1="27653" y1="23494" x2="27553" y2= "24920" />
  <path class="fil0 str0" d="M26590 26492c-217,71 -410,202 -555,377"/>
  <path class="fil0 str0" d="M26035 25143c126,472 313,925 555,1349"/>
  <path class="fil0 str0" d="M26410 21209c0,-366 -133,-718 -375,-992"/>
  <line class="fil0 str0" x1="26285" y1="23671" x2="26410" y2= "21209" />
  <path class="fil0 str0" d="M26285 23671c0,915 239,1814 693,2608"/>
  <path class="fil0 str0" d="M26978 26279c201,156 487,136 665,-46 178,-182 190,-469 29,-666 -161,-197 -444,-241 -658,-103"/>
  <line class="fil0 str0" x1="27157" y1="23409" x2="27014" y2= "25464" />
  <path class="fil0 str0" d="M29035 20634c-1072,529 -1785,1584 -1878,2775"/>
  <line class="fil0 str0" x1="29035" y1="28134" x2="29035" y2= "20634" />
  <line class="fil0 str0" x1="27414" y1="28134" x2="29035" y2= "28134" />
  <path class="fil0 str0" d="M26332 29854c567,-414 954,-1030 1082,-1720"/>
  <path class="fil0 str0" d="M26332 29854c-126,96 -228,220 -297,363"/>
  <path class="fil0 str0" d="M24417 23494c-44,-724 -359,-1404 -882,-1906"/>
  <line class="fil0 str0" x1="23817" y1="26134" x2="23535" y2= "26134" />
  <line class="fil0 str0" x1="25785" y1="29241" x2="25785" y2= "28134" />
  <path class="fil0 str0" d="M25219 26942c-72,224 -109,457 -109,692"/>
  <line class="fil0 str0" x1="23535" y1="25634" x2="23535" y2= "21588" />
  <line class="fil0 str0" x1="23817" y1="25634" x2="23535" y2= "25634" />
  <path class="fil0 str0" d="M24517 24920c-344,96 -611,368 -700,714"/>
  <line class="fil0 str0" x1="24417" y1="23494" x2="24517" y2= "24920" />
  <line class="fil0 str0" x1="23535" y1="27634" x2="23535" y2= "26134" />
  <line class="fil0 str0" x1="24610" y1="27634" x2="23535" y2= "27634" />
  <path class="fil0 str0" d="M24715 26881c-70,245 -105,498 -105,753"/>
  <path class="fil0 str0" d="M23817 26134c107,416 469,717 898,747"/>
  <line class="fil0 str0" x1="25785" y1="28134" x2="25166" y2= "28134" />
  <path class="fil0 str0" d="M25166 28134c96,420 311,805 619,1107"/>
  <line class="fil0 str0" x1="25110" y1="27634" x2="25810" y2= "27634" />
  <path class="fil0 str0" d="M25810 27634c0,-345 -251,-638 -591,-692"/>
  <path class="fil0 str0" d="M26035 30217c-69,-143 -171,-267 -297,-363"/>
  <path class="fil0 str0" d="M24656 28134c127,690 515,1306 1082,1720"/>
  <line class="fil0 str0" x1="24656" y1="28134" x2="23035" y2= "28134" />
  <line class="fil0 str0" x1="23035" y1="28134" x2="23035" y2= "20634" />
  <path class="fil0 str0" d="M24912 23409c-92,-1191 -805,-2246 -1877,-2775"/>
  <line class="fil0 str0" x1="24912" y1="23409" x2="25056" y2= "25464" />
  <path class="fil0 str0" d="M25056 25464c-214,-138 -497,-94 -658,103 -161,197 -149,484 29,666 178,182 464,202 665,46"/>
  <path class="fil0 str0" d="M25092 26279c454,-794 693,-1693 693,-2608"/>
  <line class="fil0 str0" x1="25785" y1="23671" x2="25660" y2= "21209" />
  <path class="fil0 str0" d="M26035 20217c-242,274 -375,626 -375,992"/>
  <path class="fil0 str0" d="M25480 26492c242,-424 429,-877 555,-1349"/>
  <path class="fil0 str0" d="M26035 26869c-145,-175 -338,-306 -555,-377"/>
 </g>
</svg>
