  0
SECTION
  2
HEADER
  9
$ACADVER
  1
AC1015
  9
$ACADMAINTVER
 70
     6
  9
$DWGCODEPAGE
  3
ANSI_1251
  9
$INSBASE
 10
0.0
 20
0.0
 30
0.0
  9
$EXTMIN
 10
1109.575491789
 20
-881.6004638589
 30
0.0
  9
$EXTMAX
 10
1234.658426789
 20
-797.9204178589
 30
0.0
  9
$LIMMIN
 10
0.0
 20
0.0
  9
$LIMMAX
 10
420.0
 20
297.0
  9
$ORTHOMODE
 70
     0
  9
$REGENMODE
 70
     1
  9
$FILLMODE
 70
     1
  9
$QTEXTMODE
 70
     0
  9
$MIRRTEXT
 70
     1
  9
$LTSCALE
 40
1.0
  9
$ATTMODE
 70
     1
  9
$TEXTSIZE
 40
4.0
  9
$TRACEWID
 40
1.0
  9
$TEXTSTYLE
  7
Standard
  9
$CLAYER
  8
0
  9
$CELTYPE
  6
ByLayer
  9
$CECOLOR
 62
   256
  9
$CELTSCALE
 40
1.0
  9
$DISPSILH
 70
     0
  9
$DIMSCALE
 40
1.0
  9
$DIMASZ
 40
6.0
  9
$DIMEXO
 40
1.0
  9
$DIMDLI
 40
3.75
  9
$DIMRND
 40
0.0
  9
$DIMDLE
 40
0.0
  9
$DIMEXE
 40
1.0
  9
$DIMTP
 40
0.0
  9
$DIMTM
 40
0.0
  9
$DIMTXT
 40
4.0
  9
$DIMCEN
 40
2.5
  9
$DIMTSZ
 40
0.0
  9
$DIMTOL
 70
     0
  9
$DIMLIM
 70
     0
  9
$DIMTIH
 70
     1
  9
$DIMTOH
 70
     1
  9
$DIMSE1
 70
     0
  9
$DIMSE2
 70
     0
  9
$DIMTAD
 70
     1
  9
$DIMZIN
 70
     0
  9
$DIMBLK
  1

  9
$DIMASO
 70
     1
  9
$DIMSHO
 70
     1
  9
$DIMPOST
  1

  9
$DIMAPOST
  1

  9
$DIMALT
 70
     0
  9
$DIMALTD
 70
     3
  9
$DIMALTF
 40
0.0393700787
  9
$DIMLFAC
 40
1.0
  9
$DIMTOFL
 70
     1
  9
$DIMTVP
 40
0.0
  9
$DIMTIX
 70
     0
  9
$DIMSOXD
 70
     0
  9
$DIMSAH
 70
     0
  9
$DIMBLK1
  1

  9
$DIMBLK2
  1

  9
$DIMSTYLE
  2
ISO-25
  9
$DIMCLRD
 70
     0
  9
$DIMCLRE
 70
     0
  9
$DIMCLRT
 70
     0
  9
$DIMTFAC
 40
1.0
  9
$DIMGAP
 40
3.0
  9
$DIMJUST
 70
     0
  9
$DIMSD1
 70
     0
  9
$DIMSD2
 70
     0
  9
$DIMTOLJ
 70
     0
  9
$DIMTZIN
 70
     0
  9
$DIMALTZ
 70
     0
  9
$DIMALTTZ
 70
     0
  9
$DIMUPT
 70
     0
  9
$DIMDEC
 70
     2
  9
$DIMTDEC
 70
     4
  9
$DIMALTU
 70
     2
  9
$DIMALTTD
 70
     3
  9
$DIMTXSTY
  7
Standard
  9
$DIMAUNIT
 70
     0
  9
$DIMADEC
 70
     2
  9
$DIMALTRND
 40
0.0
  9
$DIMAZIN
 70
     0
  9
$DIMDSEP
 70
    44
  9
$DIMATFIT
 70
     3
  9
$DIMFRAC
 70
     0
  9
$DIMLDRBLK
  1

  9
$DIMLUNIT
 70
     2
  9
$DIMLWD
 70
    -2
  9
$DIMLWE
 70
    -2
  9
$DIMTMOVE
 70
     0
  9
$LUNITS
 70
     2
  9
$LUPREC
 70
     2
  9
$SKETCHINC
 40
1.0
  9
$FILLETRAD
 40
10.0
  9
$AUNITS
 70
     1
  9
$AUPREC
 70
     2
  9
$MENU
  1
.
  9
$ELEVATION
 40
0.0
  9
$PELEVATION
 40
0.0
  9
$THICKNESS
 40
0.0
  9
$LIMCHECK
 70
     0
  9
$CHAMFERA
 40
0.0
  9
$CHAMFERB
 40
0.0
  9
$CHAMFERC
 40
0.0
  9
$CHAMFERD
 40
0.0
  9
$SKPOLY
 70
     0
  9
$TDCREATE
 40
2460368.655545671
  9
$TDUCREATE
 40
2460368.572212338
  9
$TDUPDATE
 40
2460368.655573669
  9
$TDUUPDATE
 40
2460368.572240336
  9
$TDINDWG
 40
0.0000000116
  9
$TDUSRTIMER
 40
0.0000000116
  9
$USRTIMER
 70
     1
  9
$ANGBASE
 50
0.0
  9
$ANGDIR
 70
     0
  9
$PDMODE
 70
     0
  9
$PDSIZE
 40
-1.0
  9
$PLINEWID
 40
0.0
  9
$SPLFRAME
 70
     0
  9
$SPLINETYPE
 70
     6
  9
$SPLINESEGS
 70
     8
  9
$HANDSEED
  5
362
  9
$SURFTAB1
 70
     6
  9
$SURFTAB2
 70
     6
  9
$SURFTYPE
 70
     6
  9
$SURFU
 70
     6
  9
$SURFV
 70
     6
  9
$UCSBASE
  2

  9
$UCSNAME
  2

  9
$UCSORG
 10
0.0
 20
0.0
 30
0.0
  9
$UCSXDIR
 10
1.0
 20
0.0
 30
0.0
  9
$UCSYDIR
 10
0.0
 20
1.0
 30
0.0
  9
$UCSORTHOREF
  2

  9
$UCSORTHOVIEW
 70
     0
  9
$UCSORGTOP
 10
0.0
 20
0.0
 30
0.0
  9
$UCSORGBOTTOM
 10
0.0
 20
0.0
 30
0.0
  9
$UCSORGLEFT
 10
0.0
 20
0.0
 30
0.0
  9
$UCSORGRIGHT
 10
0.0
 20
0.0
 30
0.0
  9
$UCSORGFRONT
 10
0.0
 20
0.0
 30
0.0
  9
$UCSORGBACK
 10
0.0
 20
0.0
 30
0.0
  9
$PUCSBASE
  2

  9
$PUCSNAME
  2

  9
$PUCSORG
 10
0.0
 20
0.0
 30
0.0
  9
$PUCSXDIR
 10
1.0
 20
0.0
 30
0.0
  9
$PUCSYDIR
 10
0.0
 20
1.0
 30
0.0
  9
$PUCSORTHOREF
  2

  9
$PUCSORTHOVIEW
 70
     0
  9
$PUCSORGTOP
 10
0.0
 20
0.0
 30
0.0
  9
$PUCSORGBOTTOM
 10
0.0
 20
0.0
 30
0.0
  9
$PUCSORGLEFT
 10
0.0
 20
0.0
 30
0.0
  9
$PUCSORGRIGHT
 10
0.0
 20
0.0
 30
0.0
  9
$PUCSORGFRONT
 10
0.0
 20
0.0
 30
0.0
  9
$PUCSORGBACK
 10
0.0
 20
0.0
 30
0.0
  9
$USERI1
 70
     0
  9
$USERI2
 70
     0
  9
$USERI3
 70
     0
  9
$USERI4
 70
     0
  9
$USERI5
 70
     0
  9
$USERR1
 40
0.0
  9
$USERR2
 40
0.0
  9
$USERR3
 40
0.0
  9
$USERR4
 40
0.0
  9
$USERR5
 40
0.0
  9
$WORLDVIEW
 70
     1
  9
$SHADEDGE
 70
     3
  9
$SHADEDIF
 70
    70
  9
$TILEMODE
 70
     1
  9
$MAXACTVP
 70
    64
  9
$PINSBASE
 10
0.0
 20
0.0
 30
0.0
  9
$PLIMCHECK
 70
     0
  9
$PEXTMIN
 10
1.0000000000E+20
 20
1.0000000000E+20
 30
1.0000000000E+20
  9
$PEXTMAX
 10
-1.0000000000E+20
 20
-1.0000000000E+20
 30
-1.0000000000E+20
  9
$PLIMMIN
 10
0.0
 20
0.0
  9
$PLIMMAX
 10
420.0
 20
297.0
  9
$UNITMODE
 70
     0
  9
$VISRETAIN
 70
     1
  9
$PLINEGEN
 70
     0
  9
$PSLTSCALE
 70
     1
  9
$TREEDEPTH
 70
  3020
  9
$CMLSTYLE
  2
Standard
  9
$CMLJUST
 70
     0
  9
$CMLSCALE
 40
20.0
  9
$PROXYGRAPHICS
 70
     1
  9
$MEASUREMENT
 70
     1
  9
$CELWEIGHT
370
    -1
  9
$ENDCAPS
280
     0
  9
$JOINSTYLE
280
     0
  9
$LWDISPLAY
290
     1
  9
$INSUNITS
 70
     4
  9
$HYPERLINKBASE
  1

  9
$STYLESHEET
  1

  9
$XEDIT
290
     1
  9
$CEPSNTYPE
380
     0
  9
$PSTYLEMODE
290
     1
  9
$FINGERPRINTGUID
  2
{427313e8-0668-4ea2-aa73-950893021737}
  9
$VERSIONGUID
  2
{FAEB1C32-E019-11D5-929B-00C0DF256EC4}
  9
$EXTNAMES
290
     1
  9
$PSVPSCALE
 40
0.0
  9
$OLESTARTUP
290
     0
  0
ENDSEC
  0
SECTION
  2
CLASSES
  0
CLASS
  1
ACDBDICTIONARYWDFLT
  2
AcDbDictionaryWithDefault
  3
ObjectDBX Classes
 90
        0
280
     0
281
     0
  0
CLASS
  1
VISUALSTYLE
  2
AcDbVisualStyle
  3
ObjectDBX Classes
 90
     4095
280
     0
281
     0
  0
CLASS
  1
MATERIAL
  2
AcDbMaterial
  3
ObjectDBX Classes
 90
     1153
280
     0
281
     0
  0
CLASS
  1
SCALE
  2
AcDbScale
  3
ObjectDBX Classes
 90
     1153
280
     0
281
     0
  0
CLASS
  1
TABLESTYLE
  2
AcDbTableStyle
  3
ObjectDBX Classes
 90
     4095
280
     0
281
     0
  0
CLASS
  1
MLEADERSTYLE
  2
AcDbMLeaderStyle
  3
ACDB_MLEADERSTYLE_CLASS
 90
     4095
280
     0
281
     0
  0
CLASS
  1
SUN
  2
AcDbSun
  3
SCENEOE
 90
     1153
280
     0
281
     0
  0
CLASS
  1
ACDBPLACEHOLDER
  2
AcDbPlaceHolder
  3
ObjectDBX Classes
 90
        0
280
     0
281
     0
  0
CLASS
  1
LAYOUT
  2
AcDbLayout
  3
ObjectDBX Classes
 90
        0
280
     0
281
     0
  0
ENDSEC
  0
SECTION
  2
TABLES
  0
TABLE
  2
VPORT
  5
8
330
0
100
AcDbSymbolTable
 70
     1
  0
VPORT
  5
29
330
8
100
AcDbSymbolTableRecord
100
AcDbViewportTableRecord
  2
*Active
 70
     0
 10
0.0
 20
0.0
 11
1.0
 21
1.0
 12
1172.116959289
 22
-839.7604408589
 13
0.0
 23
0.0
 14
10.0
 24
10.0
 15
10.0
 25
10.0
 16
0.0
 26
0.0
 36
1.0
 17
0.0
 27
0.0
 37
0.0
 40
85.35364692
 41
1.4947761262
 42
50.0
 43
0.0
 44
0.0
 50
0.0
 51
0.0
 71
     0
 72
   100
 73
     1
 74
     3
 75
     0
 76
     0
 77
     0
 78
     0
281
     0
 65
     1
110
0.0
120
0.0
130
0.0
111
1.0
121
0.0
131
0.0
112
0.0
122
1.0
132
0.0
 79
     0
146
0.0
  0
ENDTAB
  0
TABLE
  2
LTYPE
  5
5
330
0
100
AcDbSymbolTable
 70
     6
  0
LTYPE
  5
14
330
5
100
AcDbSymbolTableRecord
100
AcDbLinetypeTableRecord
  2
ByBlock
 70
     0
  3

 72
    65
 73
     0
 40
0.0
  0
LTYPE
  5
15
330
5
100
AcDbSymbolTableRecord
100
AcDbLinetypeTableRecord
  2
ByLayer
 70
     0
  3

 72
    65
 73
     0
 40
0.0
  0
LTYPE
  5
16
330
5
100
AcDbSymbolTableRecord
100
AcDbLinetypeTableRecord
  2
Continuous
 70
     0
  3
Solid line
 72
    65
 73
     0
 40
0.0
  0
LTYPE
  5
6E
330
5
100
AcDbSymbolTableRecord
100
AcDbLinetypeTableRecord
  2
HIDDEN
 70
     0
  3
Hidden __ __ __ __ __ __ __ __ __ __ __ __ __ __
 72
    65
 73
     2
 40
1.905
 49
1.27
 74
     0
 49
-0.635
 74
     0
  0
LTYPE
  5
6F
330
5
100
AcDbSymbolTableRecord
100
AcDbLinetypeTableRecord
  2
PHANTOM
 70
     0
  3
Phantom ______  __  __  ______  __  __  ______
 72
    65
 73
     6
 40
12.7
 49
6.35
 74
     0
 49
-1.27
 74
     0
 49
1.27
 74
     0
 49
-1.27
 74
     0
 49
1.27
 74
     0
 49
-1.27
 74
     0
  0
LTYPE
  5
70
330
5
100
AcDbSymbolTableRecord
100
AcDbLinetypeTableRecord
  2
CENTER
 70
     0
  3
Center ____ _ ____ _ ____ _ ____ _ ____ _ ____
 72
    65
 73
     4
 40
10.16
 49
6.35
 74
     0
 49
-1.27
 74
     0
 49
1.27
 74
     0
 49
-1.27
 74
     0
  0
LTYPE
  5
71
330
5
100
AcDbSymbolTableRecord
100
AcDbLinetypeTableRecord
  2
CENTERX2
 70
     0
  3
Center (2x) ________  __  ________  __  _____
 72
    65
 73
     4
 40
20.32
 49
12.7
 74
     0
 49
-2.54
 74
     0
 49
2.54
 74
     0
 49
-2.54
 74
     0
  0
LTYPE
  5
72
330
5
100
AcDbSymbolTableRecord
100
AcDbLinetypeTableRecord
  2
DOT2
 70
     0
  3
Dot (.5x) ........................................
 72
    65
 73
     2
 40
0.635
 49
0.0
 74
     0
 49
-0.635
 74
     0
  0
ENDTAB
  0
TABLE
  2
LAYER
  5
2
330
0
100
AcDbSymbolTable
 70
     1
  0
LAYER
  5
10
330
2
100
AcDbSymbolTableRecord
100
AcDbLayerTableRecord
  2
0
 70
     0
 62
     7
  6
Continuous
370
    -3
390
F
  0
ENDTAB
  0
TABLE
  2
STYLE
  5
3
330
0
100
AcDbSymbolTable
 70
     1
  0
STYLE
  5
11
330
3
100
AcDbSymbolTableRecord
100
AcDbTextStyleTableRecord
  2
Standard
 70
     0
 40
0.0
 41
1.0
 50
0.0
 71
     0
 42
4.0
  3
txt
  4

  0
ENDTAB
  0
TABLE
  2
VIEW
  5
6
330
0
100
AcDbSymbolTable
 70
     0
  0
ENDTAB
  0
TABLE
  2
UCS
  5
7
330
0
100
AcDbSymbolTable
 70
     0
  0
ENDTAB
  0
TABLE
  2
APPID
  5
9
330
0
100
AcDbSymbolTable
 70
     1
  0
APPID
  5
12
330
9
100
AcDbSymbolTableRecord
100
AcDbRegAppTableRecord
  2
ACAD
 70
     0
  0
ENDTAB
  0
TABLE
  2
DIMSTYLE
  5
A
330
0
100
AcDbSymbolTable
 70
     1
100
AcDbDimStyleTable
  0
DIMSTYLE
105
27
330
A
100
AcDbSymbolTableRecord
100
AcDbDimStyleTableRecord
  2
ISO-25
 70
     0
 41
2.5
 42
0.625
 43
3.75
 44
1.25
 73
     0
 74
     0
 77
     1
 78
     8
140
2.5
141
2.5
143
0.0393700787
147
0.625
171
     3
172
     1
178
     0
271
     2
272
     2
274
     3
278
    44
283
     0
284
     8
340
11
  0
ENDTAB
  0
TABLE
  2
BLOCK_RECORD
  5
1
330
0
100
AcDbSymbolTable
 70
     1
  0
BLOCK_RECORD
  5
1F
330
1
100
AcDbSymbolTableRecord
100
AcDbBlockTableRecord
  2
*Model_Space
340
22
  0
BLOCK_RECORD
  5
1B
330
1
100
AcDbSymbolTableRecord
100
AcDbBlockTableRecord
  2
*Paper_Space
340
1E
  0
BLOCK_RECORD
  5
23
330
1
100
AcDbSymbolTableRecord
100
AcDbBlockTableRecord
  2
*Paper_Space0
340
26
  0
ENDTAB
  0
ENDSEC
  0
SECTION
  2
BLOCKS
  0
BLOCK
  5
20
330
1F
100
AcDbEntity
  8
0
100
AcDbBlockBegin
  2
*Model_Space
 70
     0
 10
0.0
 20
0.0
 30
0.0
  3
*Model_Space
  1

  0
ENDBLK
  5
21
330
1F
100
AcDbEntity
  8
0
100
AcDbBlockEnd
  0
BLOCK
  5
1C
330
1B
100
AcDbEntity
 67
     1
  8
0
100
AcDbBlockBegin
  2
*Paper_Space
 70
     0
 10
0.0
 20
0.0
 30
0.0
  3
*Paper_Space
  1

  0
ENDBLK
  5
1D
330
1B
100
AcDbEntity
 67
     1
  8
0
100
AcDbBlockEnd
  0
BLOCK
  5
24
330
23
100
AcDbEntity
  8
0
100
AcDbBlockBegin
  2
*Paper_Space0
 70
     0
 10
0.0
 20
0.0
 30
0.0
  3
*Paper_Space0
  1

  0
ENDBLK
  5
25
330
23
100
AcDbEntity
  8
0
100
AcDbBlockEnd
  0
ENDSEC
  0
SECTION
  2
ENTITIES
  0
SPLINE
  5
74
330
1F
100
AcDbEntity
  8
0
  6
Continuous
 62
     7
370
    25
100
AcDbSpline
210
0.0
220
0.0
230
1.0
 70
     8
 71
     3
 72
    15
 73
    11
 74
     0
 42
0.000000001
 43
0.00000001
 40
0.0
 40
0.0
 40
0.0
 40
0.0
 40
0.1364411897143172
 40
0.2559957227680255
 40
0.3685080101434491
 40
0.4757423758333576
 40
0.5882546632087882
 40
0.7093427114891887
 40
0.8457839012034941
 40
1.0
 40
1.0
 40
1.0
 40
1.0
 10
1171.744216559796
 20
-823.595344981034
 30
0.0
 10
1171.744937008831
 20
-823.5747198080805
 30
0.0
 10
1171.746288740459
 20
-823.5360221386414
 30
0.0
 10
1171.760821702083
 20
-823.4819669192746
 30
0.0
 10
1171.783558134541
 20
-823.4355120115827
 30
0.0
 10
1171.818005024423
 20
-823.3984136848799
 30
0.0
 10
1171.860395168694
 20
-823.3684384324218
 30
0.0
 10
1171.913381007525
 20
-823.3496747461164
 30
0.0
 10
1171.974245288093
 20
-823.336137017193
 30
0.0
 10
1172.018195095893
 20
-823.3355312513684
 30
0.0
 10
1172.041513857093
 20
-823.3352098458989
 30
0.0
  0
SPLINE
  5
75
330
1F
100
AcDbEntity
  8
0
  6
Continuous
 62
     7
370
    25
100
AcDbSpline
210
0.0
220
0.0
230
1.0
 70
     8
 71
     3
 72
    15
 73
    11
 74
     0
 42
0.000000001
 43
0.00000001
 40
0.0
 40
0.0
 40
0.0
 40
0.0
 40
0.1678628092162983
 40
0.3148466165912539
 40
0.4441869603121403
 40
0.5592403382441282
 40
0.6652318690747897
 40
0.770656343509699
 40
0.8787940473875252
 40
1.0
 40
1.0
 40
1.0
 40
1.0
 10
1172.041513857093
 20
-823.3352098458989
 30
0.0
 10
1172.070575632249
 20
-823.3362248125138
 30
0.0
 10
1172.125084439902
 20
-823.3381285028318
 30
0.0
 10
1172.201556349937
 20
-823.3487570876503
 30
0.0
 10
1172.266455823912
 20
-823.3695805159971
 30
0.0
 10
1172.320185599872
 20
-823.3986209832323
 30
0.0
 10
1172.362914971619
 20
-823.436761853464
 30
0.0
 10
1172.392032308785
 20
-823.4845525908114
 30
0.0
 10
1172.410468722357
 20
-823.5402343453102
 30
0.0
 10
1172.412213421647
 20
-823.5800888435954
 30
0.0
 10
1172.413135478715
 20
-823.6011515688721
 30
0.0
  0
SPLINE
  5
77
330
1F
100
AcDbEntity
  8
0
  6
Continuous
 62
     7
370
    25
100
AcDbSpline
210
0.0
220
0.0
230
1.0
 70
     8
 71
     3
 72
    15
 73
    11
 74
     0
 42
0.000000001
 43
0.00000001
 40
0.0
 40
0.0
 40
0.0
 40
0.0
 40
0.1212059526124749
 40
0.229343656490291
 40
0.3347681309252095
 40
0.4407596617558711
 40
0.5558130396878592
 40
0.6851533834087458
 40
0.8321371907837015
 40
1.0
 40
1.0
 40
1.0
 40
1.0
 10
1172.413135478715
 20
-828.569268122926
 30
0.0
 10
1172.412213421647
 20
-828.5903308482026
 30
0.0
 10
1172.410468722357
 20
-828.6301853464878
 30
0.0
 10
1172.392032308785
 20
-828.6858671009866
 30
0.0
 10
1172.362914971619
 20
-828.733657838334
 30
0.0
 10
1172.320185599872
 20
-828.7717987085657
 30
0.0
 10
1172.266455823912
 20
-828.8008391758009
 30
0.0
 10
1172.201556349937
 20
-828.8216626041476
 30
0.0
 10
1172.125084439902
 20
-828.8322911889662
 30
0.0
 10
1172.070575632249
 20
-828.8341948792842
 30
0.0
 10
1172.041513857093
 20
-828.835209845899
 30
0.0
  0
SPLINE
  5
78
330
1F
100
AcDbEntity
  8
0
  6
Continuous
 62
     7
370
    25
100
AcDbSpline
210
0.0
220
0.0
230
1.0
 70
     8
 71
     3
 72
    15
 73
    11
 74
     0
 42
0.000000001
 43
0.00000001
 40
0.0
 40
0.0
 40
0.0
 40
0.0
 40
0.1528612850162841
 40
0.2874697277135725
 40
0.4083171843914606
 40
0.5197330343307337
 40
0.6278222855466212
 40
0.7415060099346071
 40
0.8623534666124952
 40
1.0
 40
1.0
 40
1.0
 40
1.0
 10
1172.041513857093
 20
-828.835209845899
 30
0.0
 10
1172.018250935899
 20
-828.8341959683543
 30
0.0
 10
1171.974502869663
 20
-828.8322892782356
 30
0.0
 10
1171.912914960478
 20
-828.8215253898446
 30
0.0
 10
1171.860717735415
 20
-828.8004168817071
 30
0.0
 10
1171.817557544495
 20
-828.7709472302946
 30
0.0
 10
1171.783584733915
 20
-828.7324092389723
 30
0.0
 10
1171.760804466894
 20
-828.6849516743599
 30
0.0
 10
1171.746303762115
 20
-828.6297254442303
 30
0.0
 10
1171.744941797803
 20
-828.5902751651314
 30
0.0
 10
1171.744216559796
 20
-828.569268122926
 30
0.0
  0
SPLINE
  5
7C
330
1F
100
AcDbEntity
  8
0
  6
Continuous
 62
     7
370
    25
100
AcDbSpline
210
0.0
220
0.0
230
1.0
 70
     8
 71
     3
 72
    15
 73
    11
 74
     0
 42
0.000000001
 43
0.00000001
 40
0.0
 40
0.0
 40
0.0
 40
0.0
 40
0.1212059526124708
 40
0.2293436564902852
 40
0.3347681309252019
 40
0.4407596617558617
 40
0.5558130396878666
 40
0.6851533834087509
 40
0.8321371907836831
 40
1.0
 40
1.0
 40
1.0
 40
1.0
 10
1170.109081424661
 20
-828.569268122926
 30
0.0
 10
1170.108159367593
 20
-828.5903308482026
 30
0.0
 10
1170.106414668303
 20
-828.6301853464878
 30
0.0
 10
1170.087978254731
 20
-828.6858671009866
 30
0.0
 10
1170.058860917565
 20
-828.733657838334
 30
0.0
 10
1170.016131545818
 20
-828.7717987085657
 30
0.0
 10
1169.962401769858
 20
-828.8008391758009
 30
0.0
 10
1169.897502295882
 20
-828.8216626041477
 30
0.0
 10
1169.821030385848
 20
-828.8322911889662
 30
0.0
 10
1169.766521578195
 20
-828.8341948792842
 30
0.0
 10
1169.737459803039
 20
-828.835209845899
 30
0.0
  0
SPLINE
  5
7D
330
1F
100
AcDbEntity
  8
0
  6
Continuous
 62
     7
370
    25
100
AcDbSpline
210
0.0
220
0.0
230
1.0
 70
     8
 71
     3
 72
    15
 73
    11
 74
     0
 42
0.000000001
 43
0.00000001
 40
0.0
 40
0.0
 40
0.0
 40
0.0
 40
0.1528612850162624
 40
0.2874697277135529
 40
0.4083171843914656
 40
0.5197330343307206
 40
0.6278222855466259
 40
0.7415060099346029
 40
0.862353466612493
 40
1.0
 40
1.0
 40
1.0
 40
1.0
 10
1169.737459803039
 20
-828.835209845899
 30
0.0
 10
1169.714196881844
 20
-828.8341959683543
 30
0.0
 10
1169.670448815609
 20
-828.8322892782356
 30
0.0
 10
1169.608860906424
 20
-828.8215253898446
 30
0.0
 10
1169.556663681361
 20
-828.8004168817071
 30
0.0
 10
1169.513503490441
 20
-828.7709472302946
 30
0.0
 10
1169.479530679861
 20
-828.7324092389723
 30
0.0
 10
1169.45675041284
 20
-828.6849516743599
 30
0.0
 10
1169.44224970806
 20
-828.6297254442303
 30
0.0
 10
1169.440887743749
 20
-828.5902751651314
 30
0.0
 10
1169.440162505742
 20
-828.569268122926
 30
0.0
  0
SPLINE
  5
7F
330
1F
100
AcDbEntity
  8
0
  6
Continuous
 62
     7
370
    25
100
AcDbSpline
210
0.0
220
0.0
230
1.0
 70
     8
 71
     3
 72
    15
 73
    11
 74
     0
 42
0.000000001
 43
0.00000001
 40
0.0
 40
0.0
 40
0.0
 40
0.0
 40
0.137646533387507
 40
0.2584939900654088
 40
0.3721777144533747
 40
0.48026696566928
 40
0.5916828156085349
 40
0.7125302722864474
 40
0.8471387149837378
 40
1.0
 40
1.0
 40
1.0
 40
1.0
 10
1169.440162505742
 20
-823.6011515688721
 30
0.0
 10
1169.440887743749
 20
-823.5801445266665
 30
0.0
 10
1169.44224970806
 20
-823.5406942475676
 30
0.0
 10
1169.45675041284
 20
-823.4854680174379
 30
0.0
 10
1169.479530679861
 20
-823.4380104528257
 30
0.0
 10
1169.513503490441
 20
-823.3994724615033
 30
0.0
 10
1169.556663681361
 20
-823.370002810091
 30
0.0
 10
1169.608860906424
 20
-823.3488943019532
 30
0.0
 10
1169.670448815609
 20
-823.3381304135623
 30
0.0
 10
1169.714196881844
 20
-823.3362237234436
 30
0.0
 10
1169.737459803039
 20
-823.3352098458989
 30
0.0
  0
SPLINE
  5
80
330
1F
100
AcDbEntity
  8
0
  6
Continuous
 62
     7
370
    25
100
AcDbSpline
210
0.0
220
0.0
230
1.0
 70
     8
 71
     3
 72
    15
 73
    11
 74
     0
 42
0.000000001
 43
0.00000001
 40
0.0
 40
0.0
 40
0.0
 40
0.0
 40
0.1691382693021129
 40
0.317690207334224
 40
0.4474110356377551
 40
0.5634106106293753
 40
0.6687664326274044
 40
0.7731538901270929
 40
0.8800408488353301
 40
1.0
 40
1.0
 40
1.0
 40
1.0
 10
1169.737459803039
 20
-823.3352098458989
 30
0.0
 10
1169.766569008568
 20
-823.3355217408978
 30
0.0
 10
1169.821244450014
 20
-823.3361075692103
 30
0.0
 10
1169.897108444941
 20
-823.3495937165163
 30
0.0
 10
1169.962683256723
 20
-823.3679759987509
 30
0.0
 10
1170.015697936914
 20
-823.3976474739774
 30
0.0
 10
1170.058836230933
 20
-823.4342692498238
 30
0.0
 10
1170.087950000635
 20
-823.4810330540682
 30
0.0
 10
1170.106428454317
 20
-823.5355535805706
 30
0.0
 10
1170.108163768252
 20
-823.5746632715784
 30
0.0
 10
1170.109081424661
 20
-823.595344981034
 30
0.0
  0
SPLINE
  5
83
330
1F
100
AcDbEntity
  8
0
  6
Continuous
 62
     7
370
    25
100
AcDbSpline
210
0.0
220
0.0
230
1.0
 70
     8
 71
     3
 72
    15
 73
    11
 74
     0
 42
0.000000001
 43
0.00000001
 40
0.0
 40
0.0
 40
0.0
 40
0.0
 40
0.1210437057282811
 40
0.2311608615819541
 40
0.3345582471447835
 40
0.4404078971910667
 40
0.5564076305372019
 40
0.6855748386379584
 40
0.8323618927655548
 40
1.0
 40
1.0
 40
1.0
 40
1.0
 10
1174.464486830066
 20
-828.5681068053585
 30
0.0
 10
1174.463488615123
 20
-828.5891411703532
 30
0.0
 10
1174.46158229356
 20
-828.6293111395868
 30
0.0
 10
1174.443980744637
 20
-828.6853801389333
 30
0.0
 10
1174.413869360648
 20
-828.7326807646664
 30
0.0
 10
1174.371279970824
 20
-828.7704999585239
 30
0.0
 10
1174.318173641287
 20
-828.8011243528995
 30
0.0
 10
1174.252848912687
 20
-828.8215526122174
 30
0.0
 10
1174.17645383779
 20
-828.8323249535629
 30
0.0
 10
1174.121933259305
 20
-828.834206620965
 30
0.0
 10
1174.092865208445
 20
-828.835209845899
 30
0.0
  0
SPLINE
  5
84
330
1F
100
AcDbEntity
  8
0
  6
Continuous
 62
     7
370
    25
100
AcDbSpline
210
0.0
220
0.0
230
1.0
 70
     8
 71
     3
 72
    15
 73
    11
 74
     0
 42
0.000000001
 43
0.00000001
 40
0.0
 40
0.0
 40
0.0
 40
0.0
 40
0.1526075283706686
 40
0.286992514966018
 40
0.4076393594010604
 40
0.5203370983718577
 40
0.6282469165428924
 40
0.7394778111329744
 40
0.862581966082364
 40
1.0
 40
1.0
 40
1.0
 40
1.0
 10
1174.092865208445
 20
-828.835209845899
 30
0.0
 10
1174.069595933596
 20
-828.8342052556517
 30
0.0
 10
1174.02583591873
 20
-828.8323160311509
 30
0.0
 10
1173.964326788079
 20
-828.8214369901701
 30
0.0
 10
1173.911663741489
 20
-828.8006192821657
 30
0.0
 10
1173.869216655392
 20
-828.7696937700858
 30
0.0
 10
1173.835267434405
 20
-828.7315149345851
 30
0.0
 10
1173.811641770791
 20
-828.6843727364823
 30
0.0
 10
1173.797861634898
 20
-828.6288826547715
 30
0.0
 10
1173.796359987419
 20
-828.5890941226936
 30
0.0
 10
1173.795567911147
 20
-828.5681068053585
 30
0.0
  0
SPLINE
  5
86
330
1F
100
AcDbEntity
  8
0
  6
Continuous
 62
     7
370
    25
100
AcDbSpline
210
0.0
220
0.0
230
1.0
 70
     8
 71
     3
 72
    15
 73
    11
 74
     0
 42
0.000000001
 43
0.00000001
 40
0.0
 40
0.0
 40
0.0
 40
0.0
 40
0.1373554302531171
 40
0.2604035025254438
 40
0.371583723550977
 40
0.4813661282244273
 40
0.5925463492499694
 40
0.7131382304872347
 40
0.8474619951863113
 40
0.9999999999999999
 40
0.9999999999999999
 40
0.9999999999999999
 40
0.9999999999999999
 10
1173.795567911147
 20
-823.5674733594124
 30
0.0
 10
1173.796368777021
 20
-823.5464944572914
 30
0.0
 10
1173.797887088153
 20
-823.5067218790871
 30
0.0
 10
1173.811555763194
 20
-823.4511250841368
 30
0.0
 10
1173.835687622013
 20
-823.4040756219649
 30
0.0
 10
1173.868425289145
 20
-823.3646130340824
 30
0.0
 10
1173.912139393687
 20
-823.3352180996246
 30
0.0
 10
1173.964244538096
 20
-823.3140377984868
 30
0.0
 10
1174.025860810528
 20
-823.3032960242155
 30
0.0
 10
1174.069604574805
 20
-823.3013859799667
 30
0.0
 10
1174.092865208445
 20
-823.3003703188718
 30
0.0
  0
SPLINE
  5
87
330
1F
100
AcDbEntity
  8
0
  6
Continuous
 62
     7
370
    25
100
AcDbSpline
210
0.0
220
0.0
230
1.0
 70
     8
 71
     3
 72
    15
 73
    11
 74
     0
 42
0.000000001
 43
0.00000001
 40
0.0
 40
0.0
 40
0.0
 40
0.0
 40
0.1675680039012099
 40
0.3142936742423898
 40
0.4434068668690849
 40
0.558258184871956
 40
0.6655816592802686
 40
0.7689358058594518
 40
0.8790069126387288
 40
1.0
 40
1.0
 40
1.0
 40
1.0
 10
1174.092865208445
 20
-823.3003703188718
 30
0.0
 10
1174.121924054555
 20
-823.3013881055546
 30
0.0
 10
1174.176427368438
 20
-823.303297085244
 30
0.0
 10
1174.252935139546
 20
-823.313891143222
 30
0.0
 10
1174.317721729472
 20
-823.3348232556997
 30
0.0
 10
1174.372043669505
 20
-823.3636441578689
 30
0.0
 10
1174.413465305553
 20
-823.402982449432
 30
0.0
 10
1174.444053970598
 20
-823.4501135717818
 30
0.0
 10
1174.461561325412
 20
-823.506293781178
 30
0.0
 10
1174.463481408907
 20
-823.5464475024199
 30
0.0
 10
1174.464486830066
 20
-823.5674733594124
 30
0.0
  0
SPLINE
  5
89
330
1F
100
AcDbEntity
  8
0
  6
Continuous
 62
     7
370
    25
100
AcDbSpline
210
0.0
220
0.0
230
1.0
 70
     8
 71
     3
 72
    15
 73
    11
 74
     0
 42
0.000000001
 43
0.00000001
 40
0.0
 40
0.0
 40
0.0
 40
0.0
 40
0.1678628092163162
 40
0.3148466165912478
 40
0.44418696031213
 40
0.5592403382441342
 40
0.6652318690747936
 40
0.7706563435097054
 40
0.8787940473875243
 40
0.9999999999999999
 40
0.9999999999999999
 40
0.9999999999999999
 40
0.9999999999999999
 10
1174.092865208445
 20
-822.1460206567099
 30
0.0
 10
1174.1219269836
 20
-822.1470356233245
 30
0.0
 10
1174.176435791254
 20
-822.1489393136425
 30
0.0
 10
1174.252907701288
 20
-822.1595678984612
 30
0.0
 10
1174.317807175263
 20
-822.1803913268078
 30
0.0
 10
1174.371536951224
 20
-822.2094317940431
 30
0.0
 10
1174.41426632297
 20
-822.2475726642747
 30
0.0
 10
1174.443383660137
 20
-822.2953634016221
 30
0.0
 10
1174.461820073708
 20
-822.3510451561209
 30
0.0
 10
1174.463564772998
 20
-822.3908996544061
 30
0.0
 10
1174.464486830066
 20
-822.4119623796828
 30
0.0
  0
SPLINE
  5
8A
330
1F
100
AcDbEntity
  8
0
  6
Continuous
 62
     7
370
    25
100
AcDbSpline
210
0.0
220
0.0
230
1.0
 70
     8
 71
     3
 72
    15
 73
    11
 74
     0
 42
0.000000001
 43
0.00000001
 40
0.0
 40
0.0
 40
0.0
 40
0.0
 40
0.1226673979138124
 40
0.2322494730060611
 40
0.3370212333529314
 40
0.4438678834493651
 40
0.5582089319051684
 40
0.6867484913209708
 40
0.8331764790611071
 40
1.0
 40
1.0
 40
1.0
 40
1.0
 10
1174.464486830066
 20
-822.4119623796828
 30
0.0
 10
1174.463538795991
 20
-822.4333937664838
 30
0.0
 10
1174.461743857662
 20
-822.4739703856587
 30
0.0
 10
1174.44372893231
 20
-822.5306582515727
 30
0.0
 10
1174.413880790961
 20
-822.5786613619009
 30
0.0
 10
1174.371989948533
 20
-822.6180642454898
 30
0.0
 10
1174.317750240167
 20
-822.6470231958682
 30
0.0
 10
1174.252814135567
 20
-822.667531566372
 30
0.0
 10
1174.176563720823
 20
-822.6800731064469
 30
0.0
 10
1174.121949996594
 20
-822.6816888834873
 30
0.0
 10
1174.092865208445
 20
-822.682549372926
 30
0.0
  0
SPLINE
  5
8B
330
1F
100
AcDbEntity
  8
0
  6
Continuous
 62
     7
370
    25
100
AcDbSpline
210
0.0
220
0.0
230
1.0
 70
     8
 71
     3
 72
    15
 73
    11
 74
     0
 42
0.000000001
 43
0.00000001
 40
0.0
 40
0.0
 40
0.0
 40
0.0
 40
0.1517345703399165
 40
0.2858502498746424
 40
0.4058069603899545
 40
0.5164015829445858
 40
0.625605751599836
 40
0.7384515324842189
 40
0.860851497005859
 40
1.0
 40
1.0
 40
1.0
 40
1.0
 10
1174.092865208445
 20
-822.682549372926
 30
0.0
 10
1174.069573343078
 20
-822.6816863337995
 30
0.0
 10
1174.025694182777
 20
-822.6800604686492
 30
0.0
 10
1173.964391435211
 20
-822.6673926775967
 30
0.0
 10
1173.912111346252
 20
-822.6466286816338
 30
0.0
 10
1173.868467964268
 20
-822.6171051848961
 30
0.0
 10
1173.835319647788
 20
-822.57749102761
 30
0.0
 10
1173.811851810902
 20
-822.5297032366996
 30
0.0
 10
1173.797729898782
 20
-822.4735283750791
 30
0.0
 10
1173.796318696317
 20
-822.4333421672161
 30
0.0
 10
1173.795567911147
 20
-822.4119623796828
 30
0.0
  0
SPLINE
  5
8C
330
1F
100
AcDbEntity
  8
0
  6
Continuous
 62
     7
370
    25
100
AcDbSpline
210
0.0
220
0.0
230
1.0
 70
     8
 71
     3
 72
    15
 73
    11
 74
     0
 42
0.000000001
 43
0.00000001
 40
0.0
 40
0.0
 40
0.0
 40
0.0
 40
0.1376465333875126
 40
0.2584939900654081
 40
0.3721777144533792
 40
0.4802669656692839
 40
0.5916828156085384
 40
0.7125302722864483
 40
0.8471387149837383
 40
1.0
 40
1.0
 40
1.0
 40
1.0
 10
1173.795567911147
 20
-822.4119623796828
 30
0.0
 10
1173.796293149154
 20
-822.3909553374773
 30
0.0
 10
1173.797655113466
 20
-822.3515050583784
 30
0.0
 10
1173.812155818245
 20
-822.2962788282488
 30
0.0
 10
1173.834936085266
 20
-822.2488212636364
 30
0.0
 10
1173.868908895847
 20
-822.2102832723141
 30
0.0
 10
1173.912069086767
 20
-822.1808136209016
 30
0.0
 10
1173.964266311829
 20
-822.1597051127641
 30
0.0
 10
1174.025854221014
 20
-822.1489412243731
 30
0.0
 10
1174.06960228725
 20
-822.1470345342544
 30
0.0
 10
1174.092865208445
 20
-822.1460206567099
 30
0.0
  0
SPLINE
  5
8D
330
1F
100
AcDbEntity
  8
0
  6
Continuous
 62
     7
370
    25
100
AcDbSpline
210
0.0
220
0.0
230
1.0
 70
     8
 71
     3
 72
    15
 73
    11
 74
     0
 42
0.000000001
 43
0.00000001
 40
0.0
 40
0.0
 40
0.0
 40
0.0
 40
0.1212059526124749
 40
0.229343656490291
 40
0.3347681309252095
 40
0.4407596617558711
 40
0.5558130396878592
 40
0.6851533834087458
 40
0.8321371907837015
 40
1.0
 40
1.0
 40
1.0
 40
1.0
 10
1178.819892235472
 20
-828.569268122926
 30
0.0
 10
1178.818970178404
 20
-828.5903308482026
 30
0.0
 10
1178.817225479113
 20
-828.6301853464878
 30
0.0
 10
1178.798789065542
 20
-828.6858671009866
 30
0.0
 10
1178.769671728375
 20
-828.733657838334
 30
0.0
 10
1178.726942356629
 20
-828.7717987085657
 30
0.0
 10
1178.673212580668
 20
-828.8008391758009
 30
0.0
 10
1178.608313106693
 20
-828.8216626041476
 30
0.0
 10
1178.531841196659
 20
-828.8322911889662
 30
0.0
 10
1178.477332389005
 20
-828.8341948792842
 30
0.0
 10
1178.44827061385
 20
-828.835209845899
 30
0.0
  0
SPLINE
  5
8E
330
1F
100
AcDbEntity
  8
0
  6
Continuous
 62
     7
370
    25
100
AcDbSpline
210
0.0
220
0.0
230
1.0
 70
     8
 71
     3
 72
    15
 73
    11
 74
     0
 42
0.000000001
 43
0.00000001
 40
0.0
 40
0.0
 40
0.0
 40
0.0
 40
0.1538927873091641
 40
0.2894095627950226
 40
0.4110724936372073
 40
0.5232401736076311
 40
0.6301460973349042
 40
0.7423137773053171
 40
0.8639767081475017
 40
1.0
 40
1.0
 40
1.0
 40
1.0
 10
1178.44827061385
 20
-828.835209845899
 30
0.0
 10
1178.425006102899
 20
-828.8341975042608
 30
0.0
 10
1178.381255046982
 20
-828.8322937025557
 30
0.0
 10
1178.319686849073
 20
-828.821510770561
 30
0.0
 10
1178.267425631791
 20
-828.800464087062
 30
0.0
 10
1178.224719189207
 20
-828.7709533247837
 30
0.0
 10
1178.190342832347
 20
-828.7337122785315
 30
0.0
 10
1178.167337449266
 20
-828.6869785258185
 30
0.0
 10
1178.153198293136
 20
-828.632413314866
 30
0.0
 10
1178.151742027056
 20
-828.5933645268324
 30
0.0
 10
1178.150973316553
 20
-828.5727520756286
 30
0.0
  0
SPLINE
  5
92
330
1F
100
AcDbEntity
  8
0
  6
Continuous
 62
     7
370
    25
100
AcDbSpline
210
0.0
220
0.0
230
1.0
 70
     8
 71
     3
 72
    15
 73
    11
 74
     0
 42
0.000000001
 43
0.00000001
 40
0.0
 40
0.0
 40
0.0
 40
0.0
 40
0.11965176832489
 40
0.2283994244660867
 40
0.3325193999703357
 40
0.4376052586396998
 40
0.5533075967933745
 40
0.6833774865705387
 40
0.831190358210514
 40
1.0
 40
1.0
 40
1.0
 40
1.0
 10
1176.515838181418
 20
-828.5727520756286
 30
0.0
 10
1176.514864058708
 20
-828.5934157622092
 30
0.0
 10
1176.513004587099
 20
-828.6328600110357
 30
0.0
 10
1176.494997066441
 20
-828.6879449730633
 30
0.0
 10
1176.465561627281
 20
-828.7349563415796
 30
0.0
 10
1176.422489959024
 20
-828.7717123548704
 30
0.0
 10
1176.369211947303
 20
-828.8009056100946
 30
0.0
 10
1176.304241898247
 20
-828.8216412708407
 30
0.0
 10
1176.227792408547
 20
-828.832297737724
 30
0.0
 10
1176.173280166189
 20
-828.8341971566227
 30
0.0
 10
1176.144216559796
 20
-828.835209845899
 30
0.0
  0
SPLINE
  5
93
330
1F
100
AcDbEntity
  8
0
  6
Continuous
 62
     7
370
    25
100
AcDbSpline
210
0.0
220
0.0
230
1.0
 70
     8
 71
     3
 72
    15
 73
    11
 74
     0
 42
0.000000001
 43
0.00000001
 40
0.0
 40
0.0
 40
0.0
 40
0.0
 40
0.1528612850162624
 40
0.2874697277135529
 40
0.4083171843914656
 40
0.5197330343307206
 40
0.6278222855466259
 40
0.7415060099346029
 40
0.862353466612493
 40
1.0
 40
1.0
 40
1.0
 40
1.0
 10
1176.144216559796
 20
-828.835209845899
 30
0.0
 10
1176.120953638601
 20
-828.8341959683543
 30
0.0
 10
1176.077205572366
 20
-828.8322892782356
 30
0.0
 10
1176.015617663181
 20
-828.8215253898446
 30
0.0
 10
1175.963420438118
 20
-828.8004168817071
 30
0.0
 10
1175.920260247198
 20
-828.7709472302946
 30
0.0
 10
1175.886287436617
 20
-828.7324092389723
 30
0.0
 10
1175.863507169597
 20
-828.6849516743599
 30
0.0
 10
1175.849006464817
 20
-828.6297254442303
 30
0.0
 10
1175.847644500506
 20
-828.5902751651314
 30
0.0
 10
1175.846919262499
 20
-828.569268122926
 30
0.0
  0
SPLINE
  5
95
330
1F
100
AcDbEntity
  8
0
  6
Continuous
 62
     7
370
    25
100
AcDbSpline
210
0.0
220
0.0
230
1.0
 70
     8
 71
     3
 72
    15
 73
    11
 74
     0
 42
0.000000001
 43
0.00000001
 40
0.0
 40
0.0
 40
0.0
 40
0.0
 40
0.1446346493005168
 40
0.2709695536701437
 40
0.3881332050053831
 40
0.4966009700542839
 40
0.6071858555760347
 40
0.724349506911291
 40
0.8527014153097102
 40
1.0
 40
1.0
 40
1.0
 40
1.0
 10
1175.846919262499
 20
-823.6011515688721
 30
0.0
 10
1175.847738359586
 20
-823.5801616349634
 30
0.0
 10
1175.849272918373
 20
-823.5408374961747
 30
0.0
 10
1175.862471179077
 20
-823.4858105117319
 30
0.0
 10
1175.882794783167
 20
-823.4386471162352
 30
0.0
 10
1175.912962138293
 20
-823.3995915527498
 30
0.0
 10
1175.952541245282
 20
-823.3703481327833
 30
0.0
 10
1175.999981226164
 20
-823.3490025119352
 30
0.0
 10
1176.056254594811
 20
-823.3380679181345
 30
0.0
 10
1176.096174413591
 20
-823.3362052139406
 30
0.0
 10
1176.117506255742
 20
-823.3352098458989
 30
0.0
  0
SPLINE
  5
97
330
1F
100
AcDbEntity
  8
0
  6
Continuous
 62
     7
370
    25
100
AcDbSpline
210
0.0
220
0.0
230
1.0
 70
     8
 71
     3
 72
    15
 73
    11
 74
     0
 42
0.000000001
 43
0.00000001
 40
0.0
 40
0.0
 40
0.0
 40
0.0
 40
0.1639665985560628
 40
0.3062159556880694
 40
0.4326931973574555
 40
0.5469961700258527
 40
0.6528275420541625
 40
0.7607314766540505
 40
0.8731773094341369
 40
1.0
 40
1.0
 40
1.0
 40
1.0
 10
1178.474980917904
 20
-823.3352098458989
 30
0.0
 10
1178.502109125614
 20
-823.3362111030958
 30
0.0
 10
1178.552772432184
 20
-823.3380810017959
 30
0.0
 10
1178.623906005102
 20
-823.3488130274628
 30
0.0
 10
1178.684094096737
 20
-823.3698300677903
 30
0.0
 10
1178.734241147792
 20
-823.3986255454702
 30
0.0
 10
1178.773343711452
 20
-823.4373500876377
 30
0.0
 10
1178.79990182349
 20
-823.4849536948811
 30
0.0
 10
1178.816967985049
 20
-823.5404103662936
 30
0.0
 10
1178.818879205679
 20
-823.5801093737948
 30
0.0
 10
1178.819892235472
 20
-823.6011515688721
 30
0.0
  0
SPLINE
  5
99
330
1F
100
AcDbEntity
  8
0
  6
Continuous
 62
     7
370
    25
100
AcDbSpline
210
0.0
220
0.0
230
1.0
 70
     8
 71
     3
 72
    15
 73
    11
 74
     0
 42
0.000000001
 43
0.00000001
 40
0.0
 40
0.0
 40
0.0
 40
0.0
 40
0.1292358118054851
 40
0.2539569466684254
 40
0.3771968047857403
 40
0.5066544638822974
 40
0.6346707152581326
 40
0.7555544727615948
 40
0.8762798741110938
 40
1.0
 40
1.0
 40
1.0
 40
1.0
 10
1181.835137167904
 20
-825.9365611972503
 30
0.0
 10
1181.879543918605
 20
-825.9345603832055
 30
0.0
 10
1181.966806130695
 20
-825.9306286508275
 30
0.0
 10
1182.091654171874
 20
-825.892609232718
 30
0.0
 10
1182.207446414686
 20
-825.8334338293605
 30
0.0
 10
1182.30990908995
 20
-825.751398131753
 30
0.0
 10
1182.397184890808
 20
-825.6544094908472
 30
0.0
 10
1182.460339811881
 20
-825.543573626061
 30
0.0
 10
1182.499053515422
 20
-825.4230753466383
 30
0.0
 10
1182.503917124938
 20
-825.3391513142287
 30
0.0
 10
1182.506378721958
 20
-825.2966752175205
 30
0.0
  0
SPLINE
  5
9B
330
1F
100
AcDbEntity
  8
0
  6
Continuous
 62
     7
370
    25
100
AcDbSpline
210
0.0
220
0.0
230
1.0
 70
     8
 71
     3
 72
    15
 73
    11
 74
     0
 42
0.000000001
 43
0.00000001
 40
0.0
 40
0.0
 40
0.0
 40
0.0
 40
0.1235134495526253
 40
0.2440371772983539
 40
0.3652811780136415
 40
0.493931124335802
 40
0.6229953715115117
 40
0.7475489850495397
 40
0.8709800785673085
 40
1.0
 40
1.0
 40
1.0
 40
1.0
 10
1182.506378721958
 20
-824.5731743729259
 30
0.0
 10
1182.503888247899
 20
-824.5307151171219
 30
0.0
 10
1182.498967583294
 20
-824.4468243588751
 30
0.0
 10
1182.460615012174
 20
-824.3258949308312
 30
0.0
 10
1182.395529985615
 20
-824.2156137480428
 30
0.0
 10
1182.308971638578
 20
-824.1177044449549
 30
0.0
 10
1182.207168365012
 20
-824.0335175211579
 30
0.0
 10
1182.091299325521
 20
-823.9741403630201
 30
0.0
 10
1181.966472661542
 20
-823.9355906640559
 30
0.0
 10
1181.879557052761
 20
-823.9317614391485
 30
0.0
 10
1181.835137167904
 20
-823.9298044404935
 30
0.0
  0
SPLINE
  5
A0
330
1F
100
AcDbEntity
  8
0
  6
Continuous
 62
     7
370
    25
100
AcDbSpline
210
0.0
220
0.0
230
1.0
 70
     8
 71
     3
 72
    15
 73
    11
 74
     0
 42
0.000000001
 43
0.00000001
 40
0.0
 40
0.0
 40
0.0
 40
0.0
 40
0.1212059526124708
 40
0.2293436564902852
 40
0.3347681309252019
 40
0.4407596617558617
 40
0.5558130396878666
 40
0.6851533834087509
 40
0.8321371907836831
 40
1.0
 40
1.0
 40
1.0
 40
1.0
 10
1180.871243586823
 20
-828.569268122926
 30
0.0
 10
1180.870321529755
 20
-828.5903308482026
 30
0.0
 10
1180.868576830465
 20
-828.6301853464878
 30
0.0
 10
1180.850140416893
 20
-828.6858671009866
 30
0.0
 10
1180.821023079727
 20
-828.733657838334
 30
0.0
 10
1180.778293707981
 20
-828.7717987085657
 30
0.0
 10
1180.72456393202
 20
-828.8008391758009
 30
0.0
 10
1180.659664458045
 20
-828.8216626041477
 30
0.0
 10
1180.58319254801
 20
-828.8322911889662
 30
0.0
 10
1180.528683740357
 20
-828.8341948792842
 30
0.0
 10
1180.499621965201
 20
-828.835209845899
 30
0.0
  0
SPLINE
  5
A2
330
1F
100
AcDbEntity
  8
0
  6
Continuous
 62
     7
370
    25
100
AcDbSpline
210
0.0
220
0.0
230
1.0
 70
     8
 71
     3
 72
    15
 73
    11
 74
     0
 42
0.000000001
 43
0.00000001
 40
0.0
 40
0.0
 40
0.0
 40
0.0
 40
0.1446346493005168
 40
0.2709695536701437
 40
0.3881332050053831
 40
0.4966009700542839
 40
0.6071858555760347
 40
0.724349506911291
 40
0.8527014153097102
 40
1.0
 40
1.0
 40
1.0
 40
1.0
 10
1180.202324667904
 20
-823.6011515688721
 30
0.0
 10
1180.203143764991
 20
-823.5801616349634
 30
0.0
 10
1180.204678323779
 20
-823.5408374961747
 30
0.0
 10
1180.217876584482
 20
-823.4858105117319
 30
0.0
 10
1180.238200188572
 20
-823.4386471162352
 30
0.0
 10
1180.268367543698
 20
-823.3995915527498
 30
0.0
 10
1180.307946650688
 20
-823.3703481327833
 30
0.0
 10
1180.355386631569
 20
-823.3490025119352
 30
0.0
 10
1180.411660000217
 20
-823.3380679181345
 30
0.0
 10
1180.451579818997
 20
-823.3362052139406
 30
0.0
 10
1180.472911661147
 20
-823.3352098458989
 30
0.0
  0
SPLINE
  5
A4
330
1F
100
AcDbEntity
  8
0
  6
Continuous
 62
     7
370
    25
100
AcDbSpline
210
0.0
220
0.0
230
1.0
 70
     8
 71
     3
 72
    23
 73
    19
 74
     0
 42
0.000000001
 43
0.00000001
 40
0.0
 40
0.0
 40
0.0
 40
0.0
 40
0.069709981583378
 40
0.1364473703020098
 40
0.2017947491632108
 40
0.2654843218801435
 40
0.3288955934619181
 40
0.392107328356955
 40
0.456205518182391
 40
0.5211806621105918
 40
0.5856274065120314
 40
0.6479914155361629
 40
0.707556598798757
 40
0.7664878045377129
 40
0.8243692610195192
 40
0.8819472739614674
 40
0.9407267977402086
 40
1.0
 40
1.0
 40
1.0
 40
1.0
 10
1181.845589026012
 20
-823.3352098458989
 30
0.0
 10
1181.892111745611
 20
-823.3362168470197
 30
0.0
 10
1181.983173349764
 20
-823.338187908433
 30
0.0
 10
1182.116656009675
 20
-823.3568863821084
 30
0.0
 10
1182.24477372776
 20
-823.3832772844366
 30
0.0
 10
1182.366200068132
 20
-823.4255436826606
 30
0.0
 10
1182.483199708962
 20
-823.4753861659656
 30
0.0
 10
1182.592454734734
 20
-823.5410320000484
 30
0.0
 10
1182.697753300482
 20
-823.6145525302276
 30
0.0
 10
1182.794003460499
 20
-823.7008956921632
 30
0.0
 10
1182.883264179748
 20
-823.7926663542429
 30
0.0
 10
1182.960971137717
 20
-823.8899779161444
 30
0.0
 10
1183.026829164141
 20
-823.9912308288973
 30
0.0
 10
1183.081792774762
 20
-824.0954515685909
 30
0.0
 10
1183.124110605883
 20
-824.2041427583239
 30
0.0
 10
1183.152537393753
 20
-824.3169716927613
 30
0.0
 10
1183.172367721501
 20
-824.4327332256971
 30
0.0
 10
1183.174318282103
 20
-824.5115407809382
 30
0.0
 10
1183.175297640877
 20
-824.5511093391423
 30
0.0
  0
SPLINE
  5
A6
330
1F
100
AcDbEntity
  8
0
  6
Continuous
 62
     7
370
    25
100
AcDbSpline
210
0.0
220
0.0
230
1.0
 70
     8
 71
     3
 72
    23
 73
    19
 74
     0
 42
0.000000001
 43
0.00000001
 40
0.0
 40
0.0
 40
0.0
 40
0.0
 40
0.0599416988924309
 40
0.1187138469711003
 40
0.1769412378156836
 40
0.2352661744249132
 40
0.2943277774127211
 40
0.3542464815027747
 40
0.4165885938737678
 40
0.4809536654488911
 40
0.5457853982364289
 40
0.6093099757948064
 40
0.6719250421333961
 40
0.7349787482748765
 40
0.7988306000017287
 40
0.8637685273449391
 40
0.9306766963489932
 40
0.9999999999999999
 40
0.9999999999999999
 40
0.9999999999999999
 40
0.9999999999999999
 10
1183.175297640877
 20
-825.3187402513045
 30
0.0
 10
1183.174208199757
 20
-825.3582907629296
 30
0.0
 10
1183.172050574118
 20
-825.4366200974573
 30
0.0
 10
1183.153995508387
 20
-825.5522162813724
 30
0.0
 10
1183.125008372445
 20
-825.6643386862444
 30
0.0
 10
1183.083982881004
 20
-825.772874637756
 30
0.0
 10
1183.031777295688
 20
-825.8777738619915
 30
0.0
 10
1182.966658352827
 20
-825.9782831855656
 30
0.0
 10
1182.891574990548
 20
-826.0760515313739
 30
0.0
 10
1182.804436257166
 20
-826.1676821132027
 30
0.0
 10
1182.710914512694
 20
-826.2541279748045
 30
0.0
 10
1182.60755671118
 20
-826.3265228719429
 30
0.0
 10
1182.50035657833
 20
-826.3907622209683
 30
0.0
 10
1182.385715955105
 20
-826.4411435583719
 30
0.0
 10
1182.266014104484
 20
-826.4828364973826
 30
0.0
 10
1182.139544177768
 20
-826.5096487947429
 30
0.0
 10
1182.007942241319
 20
-826.5280942963941
 30
0.0
 10
1181.918044872417
 20
-826.5301233031694
 30
0.0
 10
1181.872299330066
 20
-826.5311557918449
 30
0.0
  0
SPLINE
  5
A8
330
1F
100
AcDbEntity
  8
0
  6
Continuous
 62
     7
370
    25
100
AcDbSpline
210
0.0
220
0.0
230
1.0
 70
     8
 71
     3
 72
    15
 73
    11
 74
     0
 42
0.000000001
 43
0.00000001
 40
0.0
 40
0.0
 40
0.0
 40
0.0
 40
0.1528612850162624
 40
0.2874697277135529
 40
0.4083171843914656
 40
0.5197330343307206
 40
0.6278222855466259
 40
0.7415060099346029
 40
0.862353466612493
 40
1.0
 40
1.0
 40
1.0
 40
1.0
 10
1180.499621965201
 20
-828.835209845899
 30
0.0
 10
1180.476359044006
 20
-828.8341959683543
 30
0.0
 10
1180.432610977771
 20
-828.8322892782356
 30
0.0
 10
1180.371023068586
 20
-828.8215253898446
 30
0.0
 10
1180.318825843523
 20
-828.8004168817071
 30
0.0
 10
1180.275665652603
 20
-828.7709472302946
 30
0.0
 10
1180.241692842023
 20
-828.7324092389723
 30
0.0
 10
1180.218912575002
 20
-828.6849516743599
 30
0.0
 10
1180.204411870223
 20
-828.6297254442303
 30
0.0
 10
1180.203049905911
 20
-828.5902751651314
 30
0.0
 10
1180.202324667904
 20
-828.569268122926
 30
0.0
  0
SPLINE
  5
AA
330
1F
100
AcDbEntity
  8
0
  6
Continuous
 62
     7
370
    25
100
AcDbSpline
210
0.0
220
0.0
230
1.0
 70
     8
 71
     3
 72
    15
 73
    11
 74
     0
 42
0.000000001
 43
0.00000001
 40
0.0
 40
0.0
 40
0.0
 40
0.0
 40
0.1097146503990082
 40
0.2209919735938122
 40
0.3382709755251236
 40
0.4647338986157465
 40
0.5948009642718085
 40
0.7238485466785299
 40
0.8575872448702753
 40
1.0
 40
1.0
 40
1.0
 40
1.0
 10
1185.820082269255
 20
-823.9298044404935
 30
0.0
 10
1185.783816302119
 20
-823.9320751049046
 30
0.0
 10
1185.710767829354
 20
-823.9366487749455
 30
0.0
 10
1185.603892472406
 20
-823.9734664046563
 30
0.0
 10
1185.503340375369
 20
-824.0346747957848
 30
0.0
 10
1185.409034502639
 20
-824.1149741734355
 30
0.0
 10
1185.327320701352
 20
-824.2137373771317
 30
0.0
 10
1185.268512040872
 20
-824.3303177916682
 30
0.0
 10
1185.232711314558
 20
-824.4603657971107
 30
0.0
 10
1185.228711643568
 20
-824.5516484274366
 30
0.0
 10
1185.226648992229
 20
-824.5987233594126
 30
0.0
  0
SPLINE
  5
AD
330
1F
100
AcDbEntity
  8
0
  6
Continuous
 62
     7
370
    25
100
AcDbSpline
210
0.0
220
0.0
230
1.0
 70
     8
 71
     3
 72
    15
 73
    11
 74
     0
 42
0.000000001
 43
0.00000001
 40
0.0
 40
0.0
 40
0.0
 40
0.0
 40
0.1274982018433437
 40
0.2493845348782806
 40
0.3723453906958229
 40
0.4993842070424917
 40
0.6271257854821373
 40
0.7506154651217183
 40
0.8725017981566566
 40
0.9999999999999999
 40
0.9999999999999999
 40
0.9999999999999999
 40
0.9999999999999999
 10
1186.190542573309
 20
-828.2406152513045
 30
0.0
 10
1186.235302324509
 20
-828.2381002278131
 30
0.0
 10
1186.322851714013
 20
-828.233180880289
 30
0.0
 10
1186.449410969372
 20
-828.195964230555
 30
0.0
 10
1186.564463119349
 20
-828.1328569819539
 30
0.0
 10
1186.667594189454
 20
-828.0484010650858
 30
0.0
 10
1186.752702771826
 20
-827.945647448524
 30
0.0
 10
1186.817340193205
 20
-827.8308752438874
 30
0.0
 10
1186.854281640154
 20
-827.7039712059404
 30
0.0
 10
1186.859246060386
 20
-827.6164444911204
 30
0.0
 10
1186.861784127364
 20
-827.5716963323854
 30
0.0
  0
SPLINE
  5
AF
330
1F
100
AcDbEntity
  8
0
  6
Continuous
 62
     7
370
    25
100
AcDbSpline
210
0.0
220
0.0
230
1.0
 70
     8
 71
     3
 72
    23
 73
    19
 74
     0
 42
0.000000001
 43
0.00000001
 40
0.0
 40
0.0
 40
0.0
 40
0.0
 40
0.0596984677698983
 40
0.1182376316334198
 40
0.1758156760585373
 40
0.2340880145940139
 40
0.2926014098287264
 40
0.3524988403494472
 40
0.414342579273547
 40
0.4790413569464351
 40
0.5438488242948507
 40
0.6077816006315231
 40
0.6708302096469063
 40
0.7340778404193564
 40
0.7981519974079094
 40
0.8633307390899884
 40
0.9304699138440398
 40
1.0
 40
1.0
 40
1.0
 40
1.0
 10
1187.530703046282
 20
-827.6146650823855
 30
0.0
 10
1187.529574619845
 20
-827.6545921243734
 30
0.0
 10
1187.527339680248
 20
-827.7336708521723
 30
0.0
 10
1187.509893065581
 20
-827.8502935944247
 30
0.0
 10
1187.478872884904
 20
-827.9629059951263
 30
0.0
 10
1187.437413999504
 20
-828.0720980263295
 30
0.0
 10
1187.3832728648
 20
-828.1773697121369
 30
0.0
 10
1187.317797505724
 20
-828.2787621913528
 30
0.0
 10
1187.240687777926
 20
-828.3769828975921
 30
0.0
 10
1187.152082821269
 20
-828.4694838487593
 30
0.0
 10
1187.055442905125
 20
-828.5558261150312
 30
0.0
 10
1186.95019550953
 20
-828.6294065186463
 30
0.0
 10
1186.840914587259
 20
-828.6949988455767
 30
0.0
 10
1186.723630126611
 20
-828.7451413417278
 30
0.0
 10
1186.601651227275
 20
-828.7869125001592
 30
0.0
 10
1186.472864981602
 20
-828.8136938269969
 30
0.0
 10
1186.338951266862
 20
-828.8321473091781
 30
0.0
 10
1186.247513253086
 20
-828.8341771634725
 30
0.0
 10
1186.200994431417
 20
-828.835209845899
 30
0.0
  0
SPLINE
  5
B1
330
1F
100
AcDbEntity
  8
0
  6
Continuous
 62
     7
370
    25
100
AcDbSpline
210
0.0
220
0.0
230
1.0
 70
     8
 71
     3
 72
    23
 73
    19
 74
     0
 42
0.000000001
 43
0.00000001
 40
0.0
 40
0.0
 40
0.0
 40
0.0
 40
0.0651968273752614
 40
0.1284903554511309
 40
0.1911004981255785
 40
0.2525160380295105
 40
0.3137365289174451
 40
0.3756297926528556
 40
0.4384931710491529
 40
0.5032476829196626
 40
0.5679249615742232
 40
0.6305493581231117
 40
0.6920491304039833
 40
0.7524447192727055
 40
0.8129377656964552
 40
0.8738044202088514
 40
0.9359969093510052
 40
1.0
 40
1.0
 40
1.0
 40
1.0
 10
1185.80846909358
 20
-828.835209845899
 30
0.0
 10
1185.766221969474
 20
-828.8340353540607
 30
0.0
 10
1185.682961046947
 20
-828.8317206574744
 30
0.0
 10
1185.56004047199
 20
-828.815089223891
 30
0.0
 10
1185.441590423705
 20
-828.7876900452917
 30
0.0
 10
1185.328306127263
 20
-828.7474530300989
 30
0.0
 10
1185.219408544629
 20
-828.6976386498823
 30
0.0
 10
1185.11599057747
 20
-828.6354076064573
 30
0.0
 10
1185.016502118651
 20
-828.5631663981795
 30
0.0
 10
1184.923489819711
 20
-828.4800083471597
 30
0.0
 10
1184.838026963181
 20
-828.389308555058
 30
0.0
 10
1184.763524116541
 20
-828.2921146062403
 30
0.0
 10
1184.698678196049
 20
-828.1913797625049
 30
0.0
 10
1184.647995029649
 20
-828.084403968944
 30
0.0
 10
1184.606234482848
 20
-827.9740422394113
 30
0.0
 10
1184.579326279344
 20
-827.8579820735157
 30
0.0
 10
1184.560824844176
 20
-827.7379712299647
 30
0.0
 10
1184.55877148385
 20
-827.6561584036733
 30
0.0
 10
1184.557730073309
 20
-827.6146650823855
 30
0.0
  0
SPLINE
  5
B3
330
1F
100
AcDbEntity
  8
0
  6
Continuous
 62
     7
370
    25
100
AcDbSpline
210
0.0
220
0.0
230
1.0
 70
     8
 71
     3
 72
    23
 73
    19
 74
     0
 42
0.000000001
 43
0.00000001
 40
0.0
 40
0.0
 40
0.0
 40
0.0
 40
0.0640219079057569
 40
0.126232681977982
 40
0.1865365373546076
 40
0.2470473690630261
 40
0.3074607145633659
 40
0.3689785681117839
 40
0.4316213765738705
 40
0.4963176707001337
 40
0.5610912207493317
 40
0.6243271406750799
 40
0.6867528751010485
 40
0.7479913651462811
 40
0.8094249615529834
 40
0.8714718676855103
 40
0.9347840044028861
 40
1.0
 40
1.0
 40
1.0
 40
1.0
 10
1184.557730073309
 20
-824.5557546094125
 30
0.0
 10
1184.558781199646
 20
-824.5142636442629
 30
0.0
 10
1184.560853716708
 20
-824.4324554635946
 30
0.0
 10
1184.579158596064
 20
-824.3127833162272
 30
0.0
 10
1184.606451120882
 20
-824.197206048263
 30
0.0
 10
1184.647972459214
 20
-824.0871713493348
 30
0.0
 10
1184.698685425266
 20
-823.9802042946392
 30
0.0
 10
1184.763518029076
 20
-823.8794598248168
 30
0.0
 10
1184.838044465352
 20
-823.7822964225257
 30
0.0
 10
1184.92342380653
 20
-823.6914803533352
 30
0.0
 10
1185.016916829994
 20
-823.6086025542226
 30
0.0
 10
1185.115759504338
 20
-823.534484269366
 30
0.0
 10
1185.2204327702
 20
-823.4731880577355
 30
0.0
 10
1185.329418510482
 20
-823.4228752390745
 30
0.0
 10
1185.442426720943
 20
-823.3829557317016
 30
0.0
 10
1185.560386040961
 20
-823.355166903017
 30
0.0
 10
1185.682968470894
 20
-823.3387285117246
 30
0.0
 10
1185.766224468441
 20
-823.3363942600924
 30
0.0
 10
1185.80846909358
 20
-823.3352098458989
 30
0.0
  0
SPLINE
  5
B5
330
1F
100
AcDbEntity
  8
0
  6
Continuous
 62
     7
370
    25
100
AcDbSpline
210
0.0
220
0.0
230
1.0
 70
     8
 71
     3
 72
    23
 73
    19
 74
     0
 42
0.000000001
 43
0.00000001
 40
0.0
 40
0.0
 40
0.0
 40
0.0
 40
0.0695660886455626
 40
0.1367400278817919
 40
0.2020784391817761
 40
0.2654541770857261
 40
0.3289700421547143
 40
0.391760777091658
 40
0.4560640589846544
 40
0.5209050834634916
 40
0.5856373619875829
 40
0.647872641376898
 40
0.7078010866243185
 40
0.766344779936022
 40
0.8241067595132441
 40
0.8822738882014303
 40
0.9402706205257709
 40
1.0
 40
1.0
 40
1.0
 40
1.0
 10
1186.200994431417
 20
-823.3352098458989
 30
0.0
 10
1186.247501523277
 20
-823.33628854133
 30
0.0
 10
1186.338916480786
 20
-823.3384088393975
 30
0.0
 10
1186.47308054377
 20
-823.3562193136656
 30
0.0
 10
1186.600861692975
 20
-823.3853063603839
 30
0.0
 10
1186.723399388698
 20
-823.4246960772383
 30
0.0
 10
1186.839015350949
 20
-823.4772662005017
 30
0.0
 10
1186.949828373417
 20
-823.5405133257743
 30
0.0
 10
1187.053817655358
 20
-823.6160356910948
 30
0.0
 10
1187.151071149708
 20
-823.7019251686427
 30
0.0
 10
1187.239396771565
 20
-823.7950216477872
 30
0.0
 10
1187.317904138144
 20
-823.8924198004526
 30
0.0
 10
1187.383253233591
 20
-823.9942470907805
 30
0.0
 10
1187.437103954496
 20
-824.0992053576526
 30
0.0
 10
1187.479357845537
 20
-824.2081306545252
 30
0.0
 10
1187.509529973976
 20
-824.3205999493871
 30
0.0
 10
1187.527465139642
 20
-824.4371092856726
 30
0.0
 10
1187.529613205934
 20
-824.5158200234852
 30
0.0
 10
1187.530703046282
 20
-824.5557546094125
 30
0.0
  0
SPLINE
  5
B7
330
1F
100
AcDbEntity
  8
0
  6
Continuous
 62
     7
370
    25
100
AcDbSpline
210
0.0
220
0.0
230
1.0
 70
     8
 71
     3
 72
    15
 73
    11
 74
     0
 42
0.000000001
 43
0.00000001
 40
0.0
 40
0.0
 40
0.0
 40
0.0
 40
0.1276094144620961
 40
0.2499167177708539
 40
0.3720143427043059
 40
0.5005763638076214
 40
0.6284293671556697
 40
0.7514974778096084
 40
0.8734901284089581
 40
1.0
 40
1.0
 40
1.0
 40
1.0
 10
1186.861784127364
 20
-824.5987233594126
 30
0.0
 10
1186.859388753425
 20
-824.5539258044764
 30
0.0
 10
1186.854697532208
 20
-824.4661920119424
 30
0.0
 10
1186.815808218639
 20
-824.3403980104113
 30
0.0
 10
1186.752817595529
 20
-824.224915675748
 30
0.0
 10
1186.665904232151
 20
-824.123672247443
 30
0.0
 10
1186.563799139252
 20
-824.037384813736
 30
0.0
 10
1186.44817689957
 20
-823.9745312512306
 30
0.0
 10
1186.322083154118
 20
-823.9373338843535
 30
0.0
 10
1186.23491759201
 20
-823.932344487147
 30
0.0
 10
1186.190542573309
 20
-823.9298044404935
 30
0.0
  0
SPLINE
  5
B8
330
1F
100
AcDbEntity
  8
0
  6
Continuous
 62
     7
370
    25
100
AcDbSpline
210
0.0
220
0.0
230
1.0
 70
     8
 71
     3
 72
    15
 73
    11
 74
     0
 42
0.000000001
 43
0.00000001
 40
0.0
 40
0.0
 40
0.0
 40
0.0
 40
0.1435037183830797
 40
0.2760390562758073
 40
0.4060618464747797
 40
0.5360582087399485
 40
0.6624523876220383
 40
0.7790740198611369
 40
0.8891793093881576
 40
0.9999999999999999
 40
0.9999999999999999
 40
0.9999999999999999
 40
0.9999999999999999
 10
1185.226648992229
 20
-827.5716963323854
 30
0.0
 10
1185.228616305632
 20
-827.6191837442556
 30
0.0
 10
1185.232400565313
 20
-827.7105289756219
 30
0.0
 10
1185.269053443297
 20
-827.8406469447739
 30
0.0
 10
1185.32690995793
 20
-827.9576858274402
 30
0.0
 10
1185.409141961613
 20
-828.0564752649767
 30
0.0
 10
1185.502960465294
 20
-828.1371711132622
 30
0.0
 10
1185.603966513008
 20
-828.1964359470855
 30
0.0
 10
1185.710256779091
 20
-828.2341405621002
 30
0.0
 10
1185.783394827482
 20
-828.2384523674162
 30
0.0
 10
1185.820082269255
 20
-828.2406152513045
 30
0.0
  0
CIRCLE
  5
B9
330
1F
100
AcDbEntity
  8
0
  6
Continuous
 62
     7
370
    25
100
AcDbCircle
 10
1173.2940272063
 20
-833.1405631375
 30
0.0
 40
1.500000000000114
  0
CIRCLE
  5
BA
330
1F
100
AcDbEntity
  8
0
  6
Continuous
 62
     7
370
    25
100
AcDbCircle
 10
1173.2940272063
 20
-833.1405631375
 30
0.0
 40
0.7500000000001137
  0
SPLINE
  5
C0
330
1F
100
AcDbEntity
  8
0
  6
Continuous
 62
     7
370
    25
100
AcDbSpline
210
0.0
220
0.0
230
1.0
 70
     8
 71
     3
 72
    15
 73
    11
 74
     0
 42
0.000000001
 43
0.00000001
 40
0.0
 40
0.0
 40
0.0
 40
0.0
 40
0.1264029572855249
 40
0.2376210961698763
 40
0.3451274771355343
 40
0.4525814031671334
 40
0.5653850372925346
 40
0.6938013651786058
 40
0.8358900427402495
 40
1.0
 40
1.0
 40
1.0
 40
1.0
 10
1167.992696289526
 20
-828.8712106904935
 30
0.0
 10
1167.991538014898
 20
-828.8918202501782
 30
0.0
 10
1167.98936060946
 20
-828.9305635380648
 30
0.0
 10
1167.974229725263
 20
-828.9854041082488
 30
0.0
 10
1167.946811438972
 20
-829.0316154297005
 30
0.0
 10
1167.908745592541
 20
-829.0700553618506
 30
0.0
 10
1167.858628292904
 20
-829.0979470443797
 30
0.0
 10
1167.799417584314
 20
-829.1187768559192
 30
0.0
 10
1167.729068346139
 20
-829.1296679392639
 30
0.0
 10
1167.679172419958
 20
-829.1315164284957
 30
0.0
 10
1167.652430242228
 20
-829.1325071431962
 30
0.0
  0
SPLINE
  5
C1
330
1F
100
AcDbEntity
  8
0
  6
Continuous
 62
     7
370
    25
100
AcDbSpline
210
0.0
220
0.0
230
1.0
 70
     8
 71
     3
 72
    15
 73
    11
 74
     0
 42
0.000000001
 43
0.00000001
 40
0.0
 40
0.0
 40
0.0
 40
0.0
 40
0.1558000825475413
 40
0.2933664335182476
 40
0.4160028096424161
 40
0.5283380454780445
 40
0.6363337597612132
 40
0.7492426260628919
 40
0.8674075817596612
 40
1.0
 40
1.0
 40
1.0
 40
1.0
 10
1167.652430242228
 20
-829.1325071431962
 30
0.0
 10
1167.631863054813
 20
-829.1319301648166
 30
0.0
 10
1167.593135717057
 20
-829.1308437334957
 30
0.0
 10
1167.538981998929
 20
-829.1204894535572
 30
0.0
 10
1167.492644535951
 20
-829.103295424728
 30
0.0
 10
1167.454299534426
 20
-829.0785262485238
 30
0.0
 10
1167.423976979173
 20
-829.0460291016898
 30
0.0
 10
1167.403073629156
 20
-829.0058997198877
 30
0.0
 10
1167.391674830259
 20
-828.9589157457613
 30
0.0
 10
1167.389801638059
 20
-828.9258545483773
 30
0.0
 10
1167.388811154391
 20
-828.9083728526556
 30
0.0
  0
SPLINE
  5
C5
330
1F
100
AcDbEntity
  8
0
  6
Continuous
 62
     7
370
    25
100
AcDbSpline
210
0.0
220
0.0
230
1.0
 70
     8
 71
     3
 72
    15
 73
    11
 74
     0
 42
0.000000001
 43
0.00000001
 40
0.0
 40
0.0
 40
0.0
 40
0.0
 40
0.1137041187720161
 40
0.216942840467422
 40
0.3200287290343286
 40
0.4251741161265622
 40
0.5430984856672421
 40
0.6741923964392765
 40
0.8265563295142793
 40
1.0
 40
1.0
 40
1.0
 40
1.0
 10
1165.304246120607
 20
-828.9083728526556
 30
0.0
 10
1165.303060130017
 20
-828.9259054410913
 30
0.0
 10
1165.300797308141
 20
-828.9593569077316
 30
0.0
 10
1165.285383969232
 20
-829.0068860451529
 30
0.0
 10
1165.25811758557
 20
-829.0472037178085
 30
0.0
 10
1165.218919545173
 20
-829.0796516795732
 30
0.0
 10
1165.169313678962
 20
-829.1033348794881
 30
0.0
 10
1165.109761509634
 20
-829.1208127065843
 30
0.0
 10
1165.039797357957
 20
-829.130796680606
 30
0.0
 10
1164.989561704656
 20
-829.1319129155493
 30
0.0
 10
1164.962818755742
 20
-829.1325071431962
 30
0.0
  0
SPLINE
  5
C6
330
1F
100
AcDbEntity
  8
0
  6
Continuous
 62
     7
370
    25
100
AcDbSpline
210
0.0
220
0.0
230
1.0
 70
     8
 71
     3
 72
    15
 73
    11
 74
     0
 42
0.000000001
 43
0.00000001
 40
0.0
 40
0.0
 40
0.0
 40
0.0
 40
0.1469070492110245
 40
0.277275534318903
 40
0.3938111936935753
 40
0.502333907086582
 40
0.6141965596110776
 40
0.730732218985738
 40
0.8557984665798433
 40
1.0
 40
1.0
 40
1.0
 40
1.0
 10
1164.962818755742
 20
-829.1325071431962
 30
0.0
 10
1164.941884119931
 20
-829.1314689287177
 30
0.0
 10
1164.902371636619
 20
-829.1295093803103
 30
0.0
 10
1164.846721839728
 20
-829.1189819300776
 30
0.0
 10
1164.800412945703
 20
-829.097277204903
 30
0.0
 10
1164.761346947543
 20
-829.0686461526395
 30
0.0
 10
1164.730716237361
 20
-829.0308314624219
 30
0.0
 10
1164.709786662194
 20
-828.9844196965453
 30
0.0
 10
1164.698489315827
 20
-828.9301926477785
 30
0.0
 10
1164.69668303599
 20
-828.8917812343955
 30
0.0
 10
1164.695715715202
 20
-828.8712106904935
 30
0.0
  0
SPLINE
  5
C8
330
1F
100
AcDbEntity
  8
0
  6
Continuous
 62
     7
370
    25
100
AcDbSpline
210
0.0
220
0.0
230
1.0
 70
     8
 71
     3
 72
    15
 73
    11
 74
     0
 42
0.000000001
 43
0.00000001
 40
0.0
 40
0.0
 40
0.0
 40
0.0
 40
0.1442015334201561
 40
0.2692677810142608
 40
0.3858034403889326
 40
0.4976660929134176
 40
0.6061888063064237
 40
0.7227244656811008
 40
0.8530929507889762
 40
1.0
 40
1.0
 40
1.0
 40
1.0
 10
1164.695715715201
 20
-828.5019117040071
 30
0.0
 10
1164.69668303599
 20
-828.4813411601052
 30
0.0
 10
1164.698489315827
 20
-828.442929746722
 30
0.0
 10
1164.709786662194
 20
-828.3887026979553
 30
0.0
 10
1164.730716237361
 20
-828.3422909320785
 30
0.0
 10
1164.761346947543
 20
-828.3044762418612
 30
0.0
 10
1164.800412945704
 20
-828.2758451895978
 30
0.0
 10
1164.846721839728
 20
-828.254140464423
 30
0.0
 10
1164.902371636619
 20
-828.2436130141904
 30
0.0
 10
1164.941884119931
 20
-828.2416534657831
 30
0.0
 10
1164.962818755742
 20
-828.2406152513045
 30
0.0
  0
SPLINE
  5
CB
330
1F
100
AcDbEntity
  8
0
  6
Continuous
 62
     7
370
    25
100
AcDbSpline
210
0.0
220
0.0
230
1.0
 70
     8
 71
     3
 72
    15
 73
    11
 74
     0
 42
0.000000001
 43
0.00000001
 40
0.0
 40
0.0
 40
0.0
 40
0.0
 40
0.1442345664143176
 40
0.2721935918863084
 40
0.3895004132241304
 40
0.500736387951912
 40
0.6129889005466961
 40
0.7315684031395167
 40
0.8573207973780883
 40
1.0
 40
1.0
 40
1.0
 40
1.0
 10
1165.465669262499
 20
-823.5070848458989
 30
0.0
 10
1165.46829142986
 20
-823.4876621447505
 30
0.0
 10
1165.473239877173
 20
-823.4510084151963
 30
0.0
 10
1165.487578144258
 20
-823.3995886694689
 30
0.0
 10
1165.511844830672
 20
-823.3573308025296
 30
0.0
 10
1165.540845091715
 20
-823.3206911374555
 30
0.0
 10
1165.579577357764
 20
-823.2940158880396
 30
0.0
 10
1165.623986551469
 20
-823.2741503740316
 30
0.0
 10
1165.675649861199
 20
-823.2622243029048
 30
0.0
 10
1165.712189241749
 20
-823.2613501560548
 30
0.0
 10
1165.731610985472
 20
-823.2608855215747
 30
0.0
  0
SPLINE
  5
CD
330
1F
100
AcDbEntity
  8
0
  6
Continuous
 62
     7
370
    25
100
AcDbSpline
210
0.0
220
0.0
230
1.0
 70
     8
 71
     3
 72
    15
 73
    11
 74
     0
 42
0.000000001
 43
0.00000001
 40
0.0
 40
0.0
 40
0.0
 40
0.0
 40
0.1614740538086532
 40
0.3033294688029004
 40
0.4293020720699421
 40
0.543136442393906
 40
0.6487510557946645
 40
0.7581294614989633
 40
0.8714443198697274
 40
1.0
 40
1.0
 40
1.0
 40
1.0
 10
1167.275002032769
 20
-823.2608855215747
 30
0.0
 10
1167.301354412326
 20
-823.2619033211752
 30
0.0
 10
1167.350857432185
 20
-823.2638152606164
 30
0.0
 10
1167.420481816951
 20
-823.2744714650103
 30
0.0
 10
1167.479492976024
 20
-823.2955181565782
 30
0.0
 10
1167.528649143036
 20
-823.3242761723917
 30
0.0
 10
1167.566257593382
 20
-823.3634589563454
 30
0.0
 10
1167.593321242015
 20
-823.4103777913048
 30
0.0
 10
1167.608438968435
 20
-823.4663304794169
 30
0.0
 10
1167.610623196631
 20
-823.5058319629073
 30
0.0
 10
1167.611784127364
 20
-823.5268272445476
 30
0.0
  0
SPLINE
  5
D0
330
1F
100
AcDbEntity
  8
0
  6
Continuous
 62
     7
370
    25
100
AcDbSpline
210
0.0
220
0.0
230
1.0
 70
     8
 71
     3
 72
    15
 73
    11
 74
     0
 42
0.000000001
 43
0.00000001
 40
0.0
 40
0.0
 40
0.0
 40
0.0
 40
0.1641099572597499
 40
0.3061986348213911
 40
0.4346149627074656
 40
0.5474185968328665
 40
0.6548725228644572
 40
0.7623789038301244
 40
0.8735970427144756
 40
1.0
 40
1.0
 40
1.0
 40
1.0
 10
1167.652430242228
 20
-828.2406152513045
 30
0.0
 10
1167.679172419958
 20
-828.241605966005
 30
0.0
 10
1167.729068346139
 20
-828.2434544552366
 30
0.0
 10
1167.799417584314
 20
-828.2543455385813
 30
0.0
 10
1167.858628292904
 20
-828.275175350121
 30
0.0
 10
1167.908745592541
 20
-828.3030670326501
 30
0.0
 10
1167.946811438972
 20
-828.3415069648001
 30
0.0
 10
1167.974229725263
 20
-828.3877182862519
 30
0.0
 10
1167.98936060946
 20
-828.4425588564357
 30
0.0
 10
1167.991538014898
 20
-828.4813021443225
 30
0.0
 10
1167.992696289526
 20
-828.5019117040071
 30
0.0
  0
SPLINE
  5
201
330
1F
100
AcDbEntity
  8
0
  6
Continuous
 62
     7
370
    25
100
AcDbSpline
210
0.0
220
0.0
230
1.0
 70
     8
 71
     3
 72
     8
 73
     4
 74
     0
 42
0.000000001
 43
0.00000001
 40
0.3483870967741935
 40
0.3483870967741935
 40
0.3483870967741935
 40
0.3483870967741935
 40
0.3516129032258065
 40
0.3516129032258065
 40
0.3516129032258065
 40
0.3516129032258065
 10
1134.333379789007
 20
-824.8186368588621
 30
0.0
 10
1133.53268712234
 20
-824.9280261921953
 30
0.0
 10
1133.15410012234
 20
-825.0151058588621
 30
0.0
 10
1133.197618789007
 20
-825.0798758588619
 30
0.0
  0
SPLINE
  5
202
330
1F
100
AcDbEntity
  8
0
  6
Continuous
 62
     7
370
    25
100
AcDbSpline
210
0.0
220
0.0
230
1.0
 70
     8
 71
     3
 72
     8
 73
     4
 74
     0
 42
0.000000001
 43
0.00000001
 40
0.3451612903225806
 40
0.3451612903225806
 40
0.3451612903225806
 40
0.3451612903225806
 40
0.3483870967741935
 40
0.3483870967741935
 40
0.3483870967741935
 40
0.3483870967741935
 10
1134.333379789007
 20
-823.7813008588621
 30
0.0
 10
1135.111635789007
 20
-824.3650775255286
 30
0.0
 10
1135.111635789007
 20
-824.7108561921953
 30
0.0
 10
1134.333379789007
 20
-824.8186368588622
 30
0.0
  0
LINE
  5
203
330
1F
100
AcDbEntity
  8
0
  6
Continuous
 62
     7
370
    25
100
AcDbLine
 10
1171.7442165598
 20
-825.5649395756
 30
0.0
 11
1171.7442165598
 21
-823.595344981
 31
0.0
  0
LINE
  5
204
330
1F
100
AcDbEntity
  8
0
  6
Continuous
 62
     7
370
    25
100
AcDbLine
 10
1172.4131354787
 20
-823.6011515689
 30
0.0
 11
1172.4131354787
 21
-828.5692681229
 31
0.0
  0
LINE
  5
205
330
1F
100
AcDbEntity
  8
0
  6
Continuous
 62
     7
370
    25
100
AcDbLine
 10
1171.7442165598
 20
-828.5692681229
 30
0.0
 11
1171.7442165598
 21
-826.1595341702
 31
0.0
  0
LINE
  5
206
330
1F
100
AcDbEntity
  8
0
  6
Continuous
 62
     7
370
    25
100
AcDbLine
 10
1171.7442165598
 20
-826.1595341702
 30
0.0
 11
1170.1090814247
 21
-826.1595341702
 31
0.0
  0
LINE
  5
207
330
1F
100
AcDbEntity
  8
0
  6
Continuous
 62
     7
370
    25
100
AcDbLine
 10
1170.1090814247
 20
-826.1595341702
 30
0.0
 11
1170.1090814247
 21
-828.5692681229
 31
0.0
  0
LINE
  5
208
330
1F
100
AcDbEntity
  8
0
  6
Continuous
 62
     7
370
    25
100
AcDbLine
 10
1169.4401625057
 20
-828.5692681229
 30
0.0
 11
1169.4401625057
 21
-823.6011515689
 31
0.0
  0
LINE
  5
209
330
1F
100
AcDbEntity
  8
0
  6
Continuous
 62
     7
370
    25
100
AcDbLine
 10
1170.1090814247
 20
-823.595344981
 30
0.0
 11
1170.1090814247
 21
-825.5649395756
 31
0.0
  0
LINE
  5
20A
330
1F
100
AcDbEntity
  8
0
  6
Continuous
 62
     7
370
    25
100
AcDbLine
 10
1170.1090814247
 20
-825.5649395756
 30
0.0
 11
1171.7442165598
 21
-825.5649395756
 31
0.0
  0
LINE
  5
20B
330
1F
100
AcDbEntity
  8
0
  6
Continuous
 62
     7
370
    25
100
AcDbLine
 10
1173.7955679111
 20
-828.5681068054
 30
0.0
 11
1173.7955679111
 21
-823.5674733594
 31
0.0
  0
LINE
  5
20C
330
1F
100
AcDbEntity
  8
0
  6
Continuous
 62
     7
370
    25
100
AcDbLine
 10
1174.4644868301
 20
-823.5674733594
 30
0.0
 11
1174.4644868301
 21
-828.5681068054
 31
0.0
  0
LINE
  5
20D
330
1F
100
AcDbEntity
  8
0
  6
Continuous
 62
     7
370
    25
100
AcDbLine
 10
1178.1509733166
 20
-828.5727520756
 30
0.0
 11
1178.1509733166
 21
-823.9298044405
 31
0.0
  0
LINE
  5
20E
330
1F
100
AcDbEntity
  8
0
  6
Continuous
 62
     7
370
    25
100
AcDbLine
 10
1178.1509733166
 20
-823.9298044405
 30
0.0
 11
1176.5158381814
 21
-823.9298044405
 31
0.0
  0
LINE
  5
20F
330
1F
100
AcDbEntity
  8
0
  6
Continuous
 62
     7
370
    25
100
AcDbLine
 10
1176.5158381814
 20
-823.9298044405
 30
0.0
 11
1176.5158381814
 21
-828.5727520756
 31
0.0
  0
LINE
  5
210
330
1F
100
AcDbEntity
  8
0
  6
Continuous
 62
     7
370
    25
100
AcDbLine
 10
1175.8469192625
 20
-828.5692681229
 30
0.0
 11
1175.8469192625
 21
-823.6011515689
 31
0.0
  0
LINE
  5
211
330
1F
100
AcDbEntity
  8
0
  6
Continuous
 62
     7
370
    25
100
AcDbLine
 10
1176.1175062557
 20
-823.3352098459
 30
0.0
 11
1178.4749809179
 21
-823.3352098459
 31
0.0
  0
LINE
  5
212
330
1F
100
AcDbEntity
  8
0
  6
Continuous
 62
     7
370
    25
100
AcDbLine
 10
1178.8198922355
 20
-823.6011515689
 30
0.0
 11
1178.8198922355
 21
-828.5692681229
 31
0.0
  0
LINE
  5
213
330
1F
100
AcDbEntity
  8
0
  6
Continuous
 62
     7
370
    25
100
AcDbLine
 10
1182.506378722
 20
-825.2966752175
 30
0.0
 11
1182.506378722
 21
-824.5731743729
 31
0.0
  0
LINE
  5
214
330
1F
100
AcDbEntity
  8
0
  6
Continuous
 62
     7
370
    25
100
AcDbLine
 10
1181.8351371679
 20
-823.9298044405
 30
0.0
 11
1180.8712435868
 21
-823.9298044405
 31
0.0
  0
LINE
  5
215
330
1F
100
AcDbEntity
  8
0
  6
Continuous
 62
     7
370
    25
100
AcDbLine
 10
1180.8712435868
 20
-823.9298044405
 30
0.0
 11
1180.8712435868
 21
-825.9365611973
 31
0.0
  0
LINE
  5
216
330
1F
100
AcDbEntity
  8
0
  6
Continuous
 62
     7
370
    25
100
AcDbLine
 10
1180.8712435868
 20
-825.9365611973
 30
0.0
 11
1181.8351371679
 21
-825.9365611973
 31
0.0
  0
LINE
  5
217
330
1F
100
AcDbEntity
  8
0
  6
Continuous
 62
     7
370
    25
100
AcDbLine
 10
1180.8712435868
 20
-826.5311557918
 30
0.0
 11
1180.8712435868
 21
-828.5692681229
 31
0.0
  0
LINE
  5
218
330
1F
100
AcDbEntity
  8
0
  6
Continuous
 62
     7
370
    25
100
AcDbLine
 10
1180.2023246679
 20
-828.5692681229
 30
0.0
 11
1180.2023246679
 21
-823.6011515689
 31
0.0
  0
LINE
  5
219
330
1F
100
AcDbEntity
  8
0
  6
Continuous
 62
     7
370
    25
100
AcDbLine
 10
1180.4729116611
 20
-823.3352098459
 30
0.0
 11
1181.845589026
 21
-823.3352098459
 31
0.0
  0
LINE
  5
21A
330
1F
100
AcDbEntity
  8
0
  6
Continuous
 62
     7
370
    25
100
AcDbLine
 10
1183.1752976409
 20
-824.5511093391
 30
0.0
 11
1183.1752976409
 21
-825.3187402513
 31
0.0
  0
LINE
  5
21B
330
1F
100
AcDbEntity
  8
0
  6
Continuous
 62
     7
370
    25
100
AcDbLine
 10
1181.8722993301
 20
-826.5311557918
 30
0.0
 11
1180.8712435868
 21
-826.5311557918
 31
0.0
  0
LINE
  5
21C
330
1F
100
AcDbEntity
  8
0
  6
Continuous
 62
     7
370
    25
100
AcDbLine
 10
1186.1905425733
 20
-823.9298044405
 30
0.0
 11
1185.8200822693
 21
-823.9298044405
 31
0.0
  0
LINE
  5
21D
330
1F
100
AcDbEntity
  8
0
  6
Continuous
 62
     7
370
    25
100
AcDbLine
 10
1185.2266489922
 20
-824.5987233594
 30
0.0
 11
1185.2266489922
 21
-827.5716963324
 31
0.0
  0
LINE
  5
21E
330
1F
100
AcDbEntity
  8
0
  6
Continuous
 62
     7
370
    25
100
AcDbLine
 10
1185.8200822693
 20
-828.2406152513
 30
0.0
 11
1186.1905425733
 21
-828.2406152513
 31
0.0
  0
LINE
  5
21F
330
1F
100
AcDbEntity
  8
0
  6
Continuous
 62
     7
370
    25
100
AcDbLine
 10
1186.8617841274
 20
-827.5716963324
 30
0.0
 11
1186.8617841274
 21
-824.5987233594
 31
0.0
  0
LINE
  5
220
330
1F
100
AcDbEntity
  8
0
  6
Continuous
 62
     7
370
    25
100
AcDbLine
 10
1186.2009944314
 20
-828.8352098459
 30
0.0
 11
1185.8084690936
 21
-828.8352098459
 31
0.0
  0
LINE
  5
221
330
1F
100
AcDbEntity
  8
0
  6
Continuous
 62
     7
370
    25
100
AcDbLine
 10
1184.5577300733
 20
-827.6146650824
 30
0.0
 11
1184.5577300733
 21
-824.5557546094
 31
0.0
  0
LINE
  5
222
330
1F
100
AcDbEntity
  8
0
  6
Continuous
 62
     7
370
    25
100
AcDbLine
 10
1185.8084690936
 20
-823.3352098459
 30
0.0
 11
1186.2009944314
 21
-823.3352098459
 31
0.0
  0
LINE
  5
223
330
1F
100
AcDbEntity
  8
0
  6
Continuous
 62
     7
370
    25
100
AcDbLine
 10
1187.5307030463
 20
-824.5557546094
 30
0.0
 11
1187.5307030463
 21
-827.6146650824
 31
0.0
  0
LINE
  5
224
330
1F
100
AcDbEntity
  8
0
  6
Continuous
 62
     7
370
    25
100
AcDbLine
 10
1167.9926962895
 20
-828.501911704
 30
0.0
 11
1167.9926962895
 21
-828.8712106905
 31
0.0
  0
LINE
  5
225
330
1F
100
AcDbEntity
  8
0
  6
Continuous
 62
     7
370
    25
100
AcDbLine
 10
1165.9847782152
 20
-823.8554801162
 30
0.0
 11
1165.6387055801
 21
-828.2406152513
 31
0.0
  0
LINE
  5
226
330
1F
100
AcDbEntity
  8
0
  6
Continuous
 62
     7
370
    25
100
AcDbLine
 10
1166.9428652084
 20
-823.8554801162
 30
0.0
 11
1165.9847782152
 21
-823.8554801162
 31
0.0
  0
LINE
  5
227
330
1F
100
AcDbEntity
  8
0
  6
Continuous
 62
     7
370
    25
100
AcDbLine
 10
1166.9428652084
 20
-828.2406152513
 30
0.0
 11
1166.9428652084
 21
-823.8554801162
 31
0.0
  0
LINE
  5
228
330
1F
100
AcDbEntity
  8
0
  6
Continuous
 62
     7
370
    25
100
AcDbLine
 10
1165.6387055801
 20
-828.2406152513
 30
0.0
 11
1166.9428652084
 21
-828.2406152513
 31
0.0
  0
LINE
  5
229
330
1F
100
AcDbEntity
  8
0
  6
Continuous
 62
     7
370
    25
100
AcDbLine
 10
1167.3888111544
 20
-828.9083728527
 30
0.0
 11
1167.3888111544
 21
-828.8352098459
 31
0.0
  0
LINE
  5
22A
330
1F
100
AcDbEntity
  8
0
  6
Continuous
 62
     7
370
    25
100
AcDbLine
 10
1167.3888111544
 20
-828.8352098459
 30
0.0
 11
1165.3042461206
 21
-828.8352098459
 31
0.0
  0
LINE
  5
22B
330
1F
100
AcDbEntity
  8
0
  6
Continuous
 62
     7
370
    25
100
AcDbLine
 10
1165.3042461206
 20
-828.8352098459
 30
0.0
 11
1165.3042461206
 21
-828.9083728527
 31
0.0
  0
LINE
  5
22C
330
1F
100
AcDbEntity
  8
0
  6
Continuous
 62
     7
370
    25
100
AcDbLine
 10
1164.6957157152
 20
-828.8712106905
 30
0.0
 11
1164.6957157152
 21
-828.501911704
 31
0.0
  0
LINE
  5
22D
330
1F
100
AcDbEntity
  8
0
  6
Continuous
 62
     7
370
    25
100
AcDbLine
 10
1164.9628187557
 20
-828.2406152513
 30
0.0
 11
1165.0975315936
 21
-828.2406152513
 31
0.0
  0
LINE
  5
22E
330
1F
100
AcDbEntity
  8
0
  6
Continuous
 62
     7
370
    25
100
AcDbLine
 10
1165.0975315936
 20
-828.2406152513
 30
0.0
 11
1165.4656692625
 21
-823.5070848459
 31
0.0
  0
LINE
  5
22F
330
1F
100
AcDbEntity
  8
0
  6
Continuous
 62
     7
370
    25
100
AcDbLine
 10
1165.7316109855
 20
-823.2608855216
 30
0.0
 11
1167.2750020328
 21
-823.2608855216
 31
0.0
  0
LINE
  5
230
330
1F
100
AcDbEntity
  8
0
  6
Continuous
 62
     7
370
    25
100
AcDbLine
 10
1167.6117841274
 20
-823.5268272445
 30
0.0
 11
1167.6117841274
 21
-828.2406152513
 31
0.0
  0
LINE
  5
231
330
1F
100
AcDbEntity
  8
0
  6
Continuous
 62
     7
370
    25
100
AcDbLine
 10
1167.6117841274
 20
-828.2406152513
 30
0.0
 11
1167.6524302422
 21
-828.2406152513
 31
0.0
  0
LINE
  5
232
330
1F
100
AcDbEntity
  8
0
  6
Continuous
 62
     7
370
    25
100
AcDbLine
 10
1133.391420789
 20
-823.7813008589
 30
0.0
 11
1134.333379789
 21
-823.7813008589
 31
0.0
  0
LINE
  5
233
330
1F
100
AcDbEntity
  8
0
  6
Continuous
 62
     7
370
    25
100
AcDbLine
 10
1131.153045789
 20
-822.0934708589
 30
0.0
 11
1133.391420789
 21
-823.7813008589
 31
0.0
  0
LINE
  5
234
330
1F
100
AcDbEntity
  8
0
  6
Continuous
 62
     7
370
    25
100
AcDbLine
 10
1129.790081789
 20
-822.2559038589
 30
0.0
 11
1131.153045789
 21
-822.0934708589
 31
0.0
  0
LINE
  5
235
330
1F
100
AcDbEntity
  8
0
  6
Continuous
 62
     7
370
    25
100
AcDbLine
 10
1127.649242789
 20
-820.3737638589
 30
0.0
 11
1129.790081789
 21
-822.2559038589
 31
0.0
  0
LINE
  5
236
330
1F
100
AcDbEntity
  8
0
  6
Continuous
 62
     7
370
    25
100
AcDbLine
 10
1127.388130789
 20
-818.0701108589
 30
0.0
 11
1127.649242789
 21
-820.3737638589
 31
0.0
  0
LINE
  5
237
330
1F
100
AcDbEntity
  8
0
  6
Continuous
 62
     7
370
    25
100
AcDbLine
 10
1128.331359789
 20
-818.5895408589
 30
0.0
 11
1127.388130789
 21
-818.0701108589
 31
0.0
  0
LINE
  5
238
330
1F
100
AcDbEntity
  8
0
  6
Continuous
 62
     7
370
    25
100
AcDbLine
 10
1129.205627789
 20
-818.4920048589
 30
0.0
 11
1128.331359789
 21
-818.5895408589
 31
0.0
  0
LINE
  5
239
330
1F
100
AcDbEntity
  8
0
  6
Continuous
 62
     7
370
    25
100
AcDbLine
 10
1129.887617789
 20
-817.3886288589
 30
0.0
 11
1129.205627789
 21
-818.4920048589
 31
0.0
  0
LINE
  5
23A
330
1F
100
AcDbEntity
  8
0
  6
Continuous
 62
     7
370
    25
100
AcDbLine
 10
1131.575193789
 20
-817.3886288589
 30
0.0
 11
1129.887617789
 21
-817.3886288589
 31
0.0
  0
LINE
  5
23B
330
1F
100
AcDbEntity
  8
0
  6
Continuous
 62
     7
370
    25
100
AcDbLine
 10
1131.575193789
 20
-818.8490018589
 30
0.0
 11
1131.575193789
 21
-817.3886288589
 31
0.0
  0
LINE
  5
23C
330
1F
100
AcDbEntity
  8
0
  6
Continuous
 62
     7
370
    25
100
AcDbLine
 10
1134.073537789
 20
-819.0109268589
 30
0.0
 11
1131.575193789
 21
-818.8490018589
 31
0.0
  0
LINE
  5
23D
330
1F
100
AcDbEntity
  8
0
  6
Continuous
 62
     7
370
    25
100
AcDbLine
 10
1134.398530789
 20
-817.8097608589
 30
0.0
 11
1134.073537789
 21
-819.0109268589
 31
0.0
  0
LINE
  5
23E
330
1F
100
AcDbEntity
  8
0
  6
Continuous
 62
     7
370
    25
100
AcDbLine
 10
1134.917071789
 20
-817.7456258589
 30
0.0
 11
1134.398530789
 21
-817.8097608589
 31
0.0
  0
LINE
  5
23F
330
1F
100
AcDbEntity
  8
0
  6
Continuous
 62
     7
370
    25
100
AcDbLine
 10
1135.079377789
 20
-818.8490018589
 30
0.0
 11
1134.917071789
 21
-817.7456258589
 31
0.0
  0
LINE
  5
240
330
1F
100
AcDbEntity
  8
0
  6
Continuous
 62
     7
370
    25
100
AcDbLine
 10
1136.116713789
 20
-818.7514658589
 30
0.0
 11
1135.079377789
 21
-818.8490018589
 31
0.0
  0
LINE
  5
241
330
1F
100
AcDbEntity
  8
0
  6
Continuous
 62
     7
370
    25
100
AcDbLine
 10
1136.182372789
 20
-815.3444368589
 30
0.0
 11
1136.116713789
 21
-818.7514658589
 31
0.0
  0
LINE
  5
242
330
1F
100
AcDbEntity
  8
0
  6
Continuous
 62
     7
370
    25
100
AcDbLine
 10
1137.121791789
 20
-815.3444368589
 30
0.0
 11
1136.182372789
 21
-815.3444368589
 31
0.0
  0
LINE
  5
243
330
1F
100
AcDbEntity
  8
0
  6
Continuous
 62
     7
370
    25
100
AcDbLine
 10
1137.6074861933
 20
-813.7961517317
 30
0.0
 11
1137.121791789
 21
-815.3444368589
 31
0.0
  0
LINE
  5
244
330
1F
100
AcDbEntity
  8
0
  6
Continuous
 62
     7
370
    25
100
AcDbLine
 10
1139.427095789
 20
-814.1439058589
 30
0.0
 11
1137.6074861933
 21
-813.7961517317
 31
0.0
  0
LINE
  5
245
330
1F
100
AcDbEntity
  8
0
  6
Continuous
 62
     7
370
    25
100
AcDbLine
 10
1143.287387789
 20
-816.5448408589
 30
0.0
 11
1139.427095789
 21
-814.1439058589
 31
0.0
  0
LINE
  5
246
330
1F
100
AcDbEntity
  8
0
  6
Continuous
 62
     7
370
    25
100
AcDbLine
 10
1144.034274789
 20
-818.0701108589
 30
0.0
 11
1143.287387789
 21
-816.5448408589
 31
0.0
  0
LINE
  5
247
330
1F
100
AcDbEntity
  8
0
  6
Continuous
 62
     7
370
    25
100
AcDbLine
 10
1147.700764789
 20
-819.7894368589
 30
0.0
 11
1144.034274789
 21
-818.0701108589
 31
0.0
  0
LINE
  5
248
330
1F
100
AcDbEntity
  8
0
  6
Continuous
 62
     7
370
    25
100
AcDbLine
 10
1150.524482789
 20
-819.8544608589
 30
0.0
 11
1147.700764789
 21
-819.7894368589
 31
0.0
  0
LINE
  5
249
330
1F
100
AcDbEntity
  8
0
  6
Continuous
 62
     7
370
    25
100
AcDbLine
 10
1150.783562789
 20
-817.9720668589
 30
0.0
 11
1150.524482789
 21
-819.8544608589
 31
0.0
  0
LINE
  5
24A
330
1F
100
AcDbEntity
  8
0
  6
Continuous
 62
     7
370
    25
100
AcDbLine
 10
1149.680059789
 20
-817.9079318589
 30
0.0
 11
1150.783562789
 21
-817.9720668589
 31
0.0
  0
LINE
  5
24B
330
1F
100
AcDbEntity
  8
0
  6
Continuous
 62
     7
370
    25
100
AcDbLine
 10
1149.582523789
 20
-816.3825348589
 30
0.0
 11
1149.680059789
 21
-817.9079318589
 31
0.0
  0
LINE
  5
24C
330
1F
100
AcDbEntity
  8
0
  6
Continuous
 62
     7
370
    25
100
AcDbLine
 10
1151.367127789
 20
-816.1228198589
 30
0.0
 11
1149.582523789
 21
-816.3825348589
 31
0.0
  0
LINE
  5
24D
330
1F
100
AcDbEntity
  8
0
  6
Continuous
 62
     7
370
    25
100
AcDbLine
 10
1151.302865789
 20
-814.9871858589
 30
0.0
 11
1151.367127789
 21
-816.1228198589
 31
0.0
  0
LINE
  5
24E
330
1F
100
AcDbEntity
  8
0
  6
Continuous
 62
     7
370
    25
100
AcDbLine
 10
1149.842873789
 20
-813.1378118589
 30
0.0
 11
1151.302865789
 21
-814.9871858589
 31
0.0
  0
LINE
  5
24F
330
1F
100
AcDbEntity
  8
0
  6
Continuous
 62
     7
370
    25
100
AcDbLine
 10
1149.680059789
 20
-810.7377658589
 30
0.0
 11
1149.842873789
 21
-813.1378118589
 31
0.0
  0
LINE
  5
250
330
1F
100
AcDbEntity
  8
0
  6
Continuous
 62
     7
370
    25
100
AcDbLine
 10
1151.204059789
 20
-808.4337318589
 30
0.0
 11
1149.680059789
 21
-810.7377658589
 31
0.0
  0
LINE
  5
251
330
1F
100
AcDbEntity
  8
0
  6
Continuous
 62
     7
370
    25
100
AcDbLine
 10
1150.620748789
 20
-806.6486198589
 30
0.0
 11
1151.204059789
 21
-808.4337318589
 31
0.0
  0
LINE
  5
252
330
1F
100
AcDbEntity
  8
0
  6
Continuous
 62
     7
370
    25
100
AcDbLine
 10
1152.989044789
 20
-805.0267028589
 30
0.0
 11
1150.620748789
 21
-806.6486198589
 31
0.0
  0
LINE
  5
253
330
1F
100
AcDbEntity
  8
0
  6
Continuous
 62
     7
370
    25
100
AcDbLine
 10
1152.760317789
 20
-803.3063608589
 30
0.0
 11
1152.989044789
 21
-805.0267028589
 31
0.0
  0
LINE
  5
254
330
1F
100
AcDbEntity
  8
0
  6
Continuous
 62
     7
370
    25
100
AcDbLine
 10
1154.384774789
 20
-804.5075268589
 30
0.0
 11
1152.760317789
 21
-803.3063608589
 31
0.0
  0
LINE
  5
255
330
1F
100
AcDbEntity
  8
0
  6
Continuous
 62
     7
370
    25
100
AcDbLine
 10
1155.390233789
 20
-804.0857598589
 30
0.0
 11
1154.384774789
 21
-804.5075268589
 31
0.0
  0
LINE
  5
256
330
1F
100
AcDbEntity
  8
0
  6
Continuous
 62
     7
370
    25
100
AcDbLine
 10
1156.753197789
 20
-804.8320118589
 30
0.0
 11
1155.390233789
 21
-804.0857598589
 31
0.0
  0
LINE
  5
257
330
1F
100
AcDbEntity
  8
0
  6
Continuous
 62
     7
370
    25
100
AcDbLine
 10
1159.056723789
 20
-801.3598318589
 30
0.0
 11
1156.753197789
 21
-804.8320118589
 31
0.0
  0
LINE
  5
258
330
1F
100
AcDbEntity
  8
0
  6
Continuous
 62
     7
370
    25
100
AcDbLine
 10
1161.038304789
 20
-801.2630578589
 30
0.0
 11
1159.056723789
 21
-801.3598318589
 31
0.0
  0
LINE
  5
259
330
1F
100
AcDbEntity
  8
0
  6
Continuous
 62
     7
370
    25
100
AcDbLine
 10
1161.783794789
 20
-800.4834048589
 30
0.0
 11
1161.038304789
 21
-801.2630578589
 31
0.0
  0
LINE
  5
25A
330
1F
100
AcDbEntity
  8
0
  6
Continuous
 62
     7
370
    25
100
AcDbLine
 10
1162.820368789
 20
-800.3214798589
 30
0.0
 11
1161.783794789
 21
-800.4834048589
 31
0.0
  0
LINE
  5
25B
330
1F
100
AcDbEntity
  8
0
  6
Continuous
 62
     7
370
    25
100
AcDbLine
 10
1164.021407789
 20
-798.8619958589
 30
0.0
 11
1162.820368789
 21
-800.3214798589
 31
0.0
  0
LINE
  5
25C
330
1F
100
AcDbEntity
  8
0
  6
Continuous
 62
     7
370
    25
100
AcDbLine
 10
1164.702635789
 20
-798.9586428589
 30
0.0
 11
1164.021407789
 21
-798.8619958589
 31
0.0
  0
LINE
  5
25D
330
1F
100
AcDbEntity
  8
0
  6
Continuous
 62
     7
370
    25
100
AcDbLine
 10
1165.221049789
 20
-798.5375108589
 30
0.0
 11
1164.702635789
 21
-798.9586428589
 31
0.0
  0
LINE
  5
25E
330
1F
100
AcDbEntity
  8
0
  6
Continuous
 62
     7
370
    25
100
AcDbLine
 10
1166.746700789
 20
-798.5375108589
 30
0.0
 11
1165.221049789
 21
-798.5375108589
 31
0.0
  0
LINE
  5
25F
330
1F
100
AcDbEntity
  8
0
  6
Continuous
 62
     7
370
    25
100
AcDbLine
 10
1167.428817789
 20
-799.7376608589
 30
0.0
 11
1166.746700789
 21
-798.5375108589
 31
0.0
  0
LINE
  5
260
330
1F
100
AcDbEntity
  8
0
  6
Continuous
 62
     7
370
    25
100
AcDbLine
 10
1168.369887789
 20
-797.9204178589
 30
0.0
 11
1167.428817789
 21
-799.7376608589
 31
0.0
  0
LINE
  5
261
330
1F
100
AcDbEntity
  8
0
  6
Continuous
 62
     7
370
    25
100
AcDbLine
 10
1169.472120789
 20
-798.0179538589
 30
0.0
 11
1168.369887789
 21
-797.9204178589
 31
0.0
  0
LINE
  5
262
330
1F
100
AcDbEntity
  8
0
  6
Continuous
 62
     7
370
    25
100
AcDbLine
 10
1170.737802789
 20
-799.7376608589
 30
0.0
 11
1169.472120789
 21
-798.0179538589
 31
0.0
  0
LINE
  5
263
330
1F
100
AcDbEntity
  8
0
  6
Continuous
 62
     7
370
    25
100
AcDbLine
 10
1172.036377789
 20
-799.7376608589
 30
0.0
 11
1170.737802789
 21
-799.7376608589
 31
0.0
  0
LINE
  5
264
330
1F
100
AcDbEntity
  8
0
  6
Continuous
 62
     7
370
    25
100
AcDbLine
 10
1171.939730789
 20
-799.5103308589
 30
0.0
 11
1172.036377789
 21
-799.7376608589
 31
0.0
  0
LINE
  5
265
330
1F
100
AcDbEntity
  8
0
  6
Continuous
 62
     7
370
    25
100
AcDbLine
 10
1172.814760789
 20
-798.8619958589
 30
0.0
 11
1171.939730789
 21
-799.5103308589
 31
0.0
  0
LINE
  5
266
330
1F
100
AcDbEntity
  8
0
  6
Continuous
 62
     7
370
    25
100
AcDbLine
 10
1176.058213789
 20
-798.7963368589
 30
0.0
 11
1172.814760789
 21
-798.8619958589
 31
0.0
  0
LINE
  5
267
330
1F
100
AcDbEntity
  8
0
  6
Continuous
 62
     7
370
    25
100
AcDbLine
 10
1177.909365789
 20
-800.1599358589
 30
0.0
 11
1176.058213789
 21
-798.7963368589
 31
0.0
  0
LINE
  5
268
330
1F
100
AcDbEntity
  8
0
  6
Continuous
 62
     7
370
    25
100
AcDbLine
 10
1177.065323789
 20
-801.1010058589
 30
0.0
 11
1177.909365789
 21
-800.1599358589
 31
0.0
  0
LINE
  5
269
330
1F
100
AcDbEntity
  8
0
  6
Continuous
 62
     7
370
    25
100
AcDbLine
 10
1177.844214789
 20
-801.7815988589
 30
0.0
 11
1177.065323789
 21
-801.1010058589
 31
0.0
  0
LINE
  5
26A
330
1F
100
AcDbEntity
  8
0
  6
Continuous
 62
     7
370
    25
100
AcDbLine
 10
1178.685970789
 20
-801.1010058589
 30
0.0
 11
1177.844214789
 21
-801.7815988589
 31
0.0
  0
LINE
  5
26B
330
1F
100
AcDbEntity
  8
0
  6
Continuous
 62
     7
370
    25
100
AcDbLine
 10
1180.310046789
 20
-802.2040008589
 30
0.0
 11
1178.685970789
 21
-801.1010058589
 31
0.0
  0
LINE
  5
26C
330
1F
100
AcDbEntity
  8
0
  6
Continuous
 62
     7
370
    25
100
AcDbLine
 10
1180.472860789
 20
-803.1438008589
 30
0.0
 11
1180.310046789
 21
-802.2040008589
 31
0.0
  0
LINE
  5
26D
330
1F
100
AcDbEntity
  8
0
  6
Continuous
 62
     7
370
    25
100
AcDbLine
 10
1181.510577789
 20
-803.2420988589
 30
0.0
 11
1180.472860789
 21
-803.1438008589
 31
0.0
  0
LINE
  5
26E
330
1F
100
AcDbEntity
  8
0
  6
Continuous
 62
     7
370
    25
100
AcDbLine
 10
1182.970188789
 20
-805.0267028589
 30
0.0
 11
1181.510577789
 21
-803.2420988589
 31
0.0
  0
LINE
  5
26F
330
1F
100
AcDbEntity
  8
0
  6
Continuous
 62
     7
370
    25
100
AcDbLine
 10
1184.755808789
 20
-805.2864178589
 30
0.0
 11
1182.970188789
 21
-805.0267028589
 31
0.0
  0
LINE
  5
270
330
1F
100
AcDbEntity
  8
0
  6
Continuous
 62
     7
370
    25
100
AcDbLine
 10
1186.441987789
 20
-806.7125008589
 30
0.0
 11
1184.755808789
 21
-805.2864178589
 31
0.0
  0
LINE
  5
271
330
1F
100
AcDbEntity
  8
0
  6
Continuous
 62
     7
370
    25
100
AcDbLine
 10
1190.465982789
 20
-806.5514648589
 30
0.0
 11
1186.441987789
 21
-806.7125008589
 31
0.0
  0
LINE
  5
272
330
1F
100
AcDbEntity
  8
0
  6
Continuous
 62
     7
370
    25
100
AcDbLine
 10
1191.145813789
 20
-807.3957608589
 30
0.0
 11
1190.465982789
 21
-806.5514648589
 31
0.0
  0
LINE
  5
273
330
1F
100
AcDbEntity
  8
0
  6
Continuous
 62
     7
370
    25
100
AcDbLine
 10
1192.412003789
 20
-806.8106718589
 30
0.0
 11
1191.145813789
 21
-807.3957608589
 31
0.0
  0
LINE
  5
274
330
1F
100
AcDbEntity
  8
0
  6
Continuous
 62
     7
370
    25
100
AcDbLine
 10
1192.932703789
 20
-807.9144288589
 30
0.0
 11
1192.412003789
 21
-806.8106718589
 31
0.0
  0
LINE
  5
275
330
1F
100
AcDbEntity
  8
0
  6
Continuous
 62
     7
370
    25
100
AcDbLine
 10
1195.235467789
 20
-807.6544598589
 30
0.0
 11
1192.932703789
 21
-807.9144288589
 31
0.0
  0
LINE
  5
276
330
1F
100
AcDbEntity
  8
0
  6
Continuous
 62
     7
370
    25
100
AcDbLine
 10
1196.793503789
 20
-808.3361958589
 30
0.0
 11
1195.235467789
 21
-807.6544598589
 31
0.0
  0
LINE
  5
277
330
1F
100
AcDbEntity
  8
0
  6
Continuous
 62
     7
370
    25
100
AcDbLine
 10
1197.540263789
 20
-807.5903248589
 30
0.0
 11
1196.793503789
 21
-808.3361958589
 31
0.0
  0
LINE
  5
278
330
1F
100
AcDbEntity
  8
0
  6
Continuous
 62
     7
370
    25
100
AcDbLine
 10
1198.477904789
 20
-807.3301018589
 30
0.0
 11
1197.540263789
 21
-807.5903248589
 31
0.0
  0
LINE
  5
279
330
1F
100
AcDbEntity
  8
0
  6
Continuous
 62
     7
370
    25
100
AcDbLine
 10
1199.096140789
 20
-806.4543098589
 30
0.0
 11
1198.477904789
 21
-807.3301018589
 31
0.0
  0
LINE
  5
27A
330
1F
100
AcDbEntity
  8
0
  6
Continuous
 62
     7
370
    25
100
AcDbLine
 10
1200.037337789
 20
-805.9673918589
 30
0.0
 11
1199.096140789
 21
-806.4543098589
 31
0.0
  0
LINE
  5
27B
330
1F
100
AcDbEntity
  8
0
  6
Continuous
 62
     7
370
    25
100
AcDbLine
 10
1201.204594789
 20
-804.3452208589
 30
0.0
 11
1200.037337789
 21
-805.9673918589
 31
0.0
  0
LINE
  5
27C
330
1F
100
AcDbEntity
  8
0
  6
Continuous
 62
     7
370
    25
100
AcDbLine
 10
1202.764789789
 20
-805.6105218589
 30
0.0
 11
1201.204594789
 21
-804.3452208589
 31
0.0
  0
LINE
  5
27D
330
1F
100
AcDbEntity
  8
0
  6
Continuous
 62
     7
370
    25
100
AcDbLine
 10
1201.887600789
 20
-807.3957608589
 30
0.0
 11
1202.764789789
 21
-805.6105218589
 31
0.0
  0
LINE
  5
27E
330
1F
100
AcDbEntity
  8
0
  6
Continuous
 62
     7
370
    25
100
AcDbLine
 10
1203.022980789
 20
-807.9144288589
 30
0.0
 11
1201.887600789
 21
-807.3957608589
 31
0.0
  0
LINE
  5
27F
330
1F
100
AcDbEntity
  8
0
  6
Continuous
 62
     7
370
    25
100
AcDbLine
 10
1204.190745789
 20
-809.0171698589
 30
0.0
 11
1203.022980789
 21
-807.9144288589
 31
0.0
  0
LINE
  5
280
330
1F
100
AcDbEntity
  8
0
  6
Continuous
 62
     7
370
    25
100
AcDbLine
 10
1203.770248789
 20
-810.3154908589
 30
0.0
 11
1204.190745789
 21
-809.0171698589
 31
0.0
  0
LINE
  5
281
330
1F
100
AcDbEntity
  8
0
  6
Continuous
 62
     7
370
    25
100
AcDbLine
 10
1204.450206789
 20
-810.8344128589
 30
0.0
 11
1203.770248789
 21
-810.3154908589
 31
0.0
  0
LINE
  5
282
330
1F
100
AcDbEntity
  8
0
  6
Continuous
 62
     7
370
    25
100
AcDbLine
 10
1204.287392789
 20
-812.0021778589
 30
0.0
 11
1204.450206789
 21
-810.8344128589
 31
0.0
  0
LINE
  5
283
330
1F
100
AcDbEntity
  8
0
  6
Continuous
 62
     7
370
    25
100
AcDbLine
 10
1205.391276789
 20
-812.2622738589
 30
0.0
 11
1204.287392789
 21
-812.0021778589
 31
0.0
  0
LINE
  5
284
330
1F
100
AcDbEntity
  8
0
  6
Continuous
 62
     7
370
    25
100
AcDbLine
 10
1205.228970789
 20
-813.3655228589
 30
0.0
 11
1205.391276789
 21
-812.2622738589
 31
0.0
  0
LINE
  5
285
330
1F
100
AcDbEntity
  8
0
  6
Continuous
 62
     7
370
    25
100
AcDbLine
 10
1207.370698789
 20
-813.6246028589
 30
0.0
 11
1205.228970789
 21
-813.3655228589
 31
0.0
  0
LINE
  5
286
330
1F
100
AcDbEntity
  8
0
  6
Continuous
 62
     7
370
    25
100
AcDbLine
 10
1208.312276789
 20
-814.5012838589
 30
0.0
 11
1207.370698789
 21
-813.6246028589
 31
0.0
  0
LINE
  5
287
330
1F
100
AcDbEntity
  8
0
  6
Continuous
 62
     7
370
    25
100
AcDbLine
 10
1207.954771789
 20
-815.6684138589
 30
0.0
 11
1208.312276789
 21
-814.5012838589
 31
0.0
  0
LINE
  5
288
330
1F
100
AcDbEntity
  8
0
  6
Continuous
 62
     7
370
    25
100
AcDbLine
 10
1208.993504789
 20
-816.7075278589
 30
0.0
 11
1207.954771789
 21
-815.6684138589
 31
0.0
  0
LINE
  5
289
330
1F
100
AcDbEntity
  8
0
  6
Continuous
 62
     7
370
    25
100
AcDbLine
 10
1208.635999789
 20
-817.6487248589
 30
0.0
 11
1208.993504789
 21
-816.7075278589
 31
0.0
  0
LINE
  5
28A
330
1F
100
AcDbEntity
  8
0
  6
Continuous
 62
     7
370
    25
100
AcDbLine
 10
1210.419333789
 20
-818.6863148589
 30
0.0
 11
1208.635999789
 21
-817.6487248589
 31
0.0
  0
LINE
  5
28B
330
1F
100
AcDbEntity
  8
0
  6
Continuous
 62
     7
370
    25
100
AcDbLine
 10
1212.659994789
 20
-820.7957848589
 30
0.0
 11
1210.419333789
 21
-818.6863148589
 31
0.0
  0
LINE
  5
28C
330
1F
100
AcDbEntity
  8
0
  6
Continuous
 62
     7
370
    25
100
AcDbLine
 10
1211.977369789
 20
-822.0934708589
 30
0.0
 11
1212.659994789
 21
-820.7957848589
 31
0.0
  0
LINE
  5
28D
330
1F
100
AcDbEntity
  8
0
  6
Continuous
 62
     7
370
    25
100
AcDbLine
 10
1213.664945789
 20
-824.0396188589
 30
0.0
 11
1211.977369789
 21
-822.0934708589
 31
0.0
  0
LINE
  5
28E
330
1F
100
AcDbEntity
  8
0
  6
Continuous
 62
     7
370
    25
100
AcDbLine
 10
1213.081761789
 20
-825.4998648589
 30
0.0
 11
1213.664945789
 21
-824.0396188589
 31
0.0
  0
LINE
  5
28F
330
1F
100
AcDbEntity
  8
0
  6
Continuous
 62
     7
370
    25
100
AcDbLine
 10
1213.601064789
 20
-826.1826168589
 30
0.0
 11
1213.081761789
 21
-825.4998648589
 31
0.0
  0
LINE
  5
290
330
1F
100
AcDbEntity
  8
0
  6
Continuous
 62
     7
370
    25
100
AcDbLine
 10
1214.346173789
 20
-825.2409118589
 30
0.0
 11
1213.601064789
 21
-826.1826168589
 31
0.0
  0
LINE
  5
291
330
1F
100
AcDbEntity
  8
0
  6
Continuous
 62
     7
370
    25
100
AcDbLine
 10
1215.482823789
 20
-826.0841918589
 30
0.0
 11
1214.346173789
 21
-825.2409118589
 31
0.0
  0
LINE
  5
292
330
1F
100
AcDbEntity
  8
0
  6
Continuous
 62
     7
370
    25
100
AcDbLine
 10
1216.585437789
 20
-825.6629328589
 30
0.0
 11
1215.482823789
 21
-826.0841918589
 31
0.0
  0
LINE
  5
293
330
1F
100
AcDbEntity
  8
0
  6
Continuous
 62
     7
370
    25
100
AcDbLine
 10
1216.228440789
 20
-824.4622748589
 30
0.0
 11
1216.585437789
 21
-825.6629328589
 31
0.0
  0
LINE
  5
294
330
1F
100
AcDbEntity
  8
0
  6
Continuous
 62
     7
370
    25
100
AcDbLine
 10
1216.649826789
 20
-823.1967198589
 30
0.0
 11
1216.228440789
 21
-824.4622748589
 31
0.0
  0
LINE
  5
295
330
1F
100
AcDbEntity
  8
0
  6
Continuous
 62
     7
370
    25
100
AcDbLine
 10
1219.309968789
 20
-819.6927898589
 30
0.0
 11
1216.649826789
 21
-823.1967198589
 31
0.0
  0
LINE
  5
296
330
1F
100
AcDbEntity
  8
0
  6
Continuous
 62
     7
370
    25
100
AcDbLine
 10
1222.815803789
 20
-822.6132818589
 30
0.0
 11
1219.309968789
 21
-819.6927898589
 31
0.0
  0
LINE
  5
297
330
1F
100
AcDbEntity
  8
0
  6
Continuous
 62
     7
370
    25
100
AcDbLine
 10
1224.340184789
 20
-822.4177018589
 30
0.0
 11
1222.815803789
 21
-822.6132818589
 31
0.0
  0
LINE
  5
298
330
1F
100
AcDbEntity
  8
0
  6
Continuous
 62
     7
370
    25
100
AcDbLine
 10
1224.340184789
 20
-820.8928128589
 30
0.0
 11
1224.340184789
 21
-822.4177018589
 31
0.0
  0
LINE
  5
299
330
1F
100
AcDbEntity
  8
0
  6
Continuous
 62
     7
370
    25
100
AcDbLine
 10
1225.541604789
 20
-820.6325898589
 30
0.0
 11
1224.340184789
 21
-820.8928128589
 31
0.0
  0
LINE
  5
29A
330
1F
100
AcDbEntity
  8
0
  6
Continuous
 62
     7
370
    25
100
AcDbLine
 10
1225.800176789
 20
-821.3145798589
 30
0.0
 11
1225.541604789
 21
-820.6325898589
 31
0.0
  0
LINE
  5
29B
330
1F
100
AcDbEntity
  8
0
  6
Continuous
 62
     7
370
    25
100
AcDbLine
 10
1227.001596789
 20
-821.1847858589
 30
0.0
 11
1225.800176789
 21
-821.3145798589
 31
0.0
  0
LINE
  5
29C
330
1F
100
AcDbEntity
  8
0
  6
Continuous
 62
     7
370
    25
100
AcDbLine
 10
1227.487244789
 20
-821.9958078589
 30
0.0
 11
1227.001596789
 21
-821.1847858589
 31
0.0
  0
LINE
  5
29D
330
1F
100
AcDbEntity
  8
0
  6
Continuous
 62
     7
370
    25
100
AcDbLine
 10
1228.786327789
 20
-821.8321048589
 30
0.0
 11
1227.487244789
 21
-821.9958078589
 31
0.0
  0
LINE
  5
29E
330
1F
100
AcDbEntity
  8
0
  6
Continuous
 62
     7
370
    25
100
AcDbLine
 10
1229.370019789
 20
-823.0337788589
 30
0.0
 11
1228.786327789
 21
-821.8321048589
 31
0.0
  0
LINE
  5
29F
330
1F
100
AcDbEntity
  8
0
  6
Continuous
 62
     7
370
    25
100
AcDbLine
 10
1232.356932789
 20
-823.1967198589
 30
0.0
 11
1229.370019789
 21
-823.0337788589
 31
0.0
  0
LINE
  5
2A0
330
1F
100
AcDbEntity
  8
0
  6
Continuous
 62
     7
370
    25
100
AcDbLine
 10
1232.710881789
 20
-825.5976548589
 30
0.0
 11
1232.356932789
 21
-823.1967198589
 31
0.0
  0
LINE
  5
2A1
330
1F
100
AcDbEntity
  8
0
  6
Continuous
 62
     7
370
    25
100
AcDbLine
 10
1230.829122789
 20
-825.8249848589
 30
0.0
 11
1232.710881789
 21
-825.5976548589
 31
0.0
  0
LINE
  5
2A2
330
1F
100
AcDbEntity
  8
0
  6
Continuous
 62
     7
370
    25
100
AcDbLine
 10
1231.088583789
 20
-827.4477908589
 30
0.0
 11
1230.829122789
 21
-825.8249848589
 31
0.0
  0
LINE
  5
2A3
330
1F
100
AcDbEntity
  8
0
  6
Continuous
 62
     7
370
    25
100
AcDbLine
 10
1230.051247789
 20
-827.6413388589
 30
0.0
 11
1231.088583789
 21
-827.4477908589
 31
0.0
  0
LINE
  5
2A4
330
1F
100
AcDbEntity
  8
0
  6
Continuous
 62
     7
370
    25
100
AcDbLine
 10
1230.246319789
 20
-830.1069168589
 30
0.0
 11
1230.051247789
 21
-827.6413388589
 31
0.0
  0
LINE
  5
2A5
330
1F
100
AcDbEntity
  8
0
  6
Continuous
 62
     7
370
    25
100
AcDbLine
 10
1230.571820789
 20
-833.8719588589
 30
0.0
 11
1230.246319789
 21
-830.1069168589
 31
0.0
  0
LINE
  5
2A6
330
1F
100
AcDbEntity
  8
0
  6
Continuous
 62
     7
370
    25
100
AcDbLine
 10
1228.850208789
 20
-833.8719588589
 30
0.0
 11
1230.571820789
 21
-833.8719588589
 31
0.0
  0
LINE
  5
2A7
330
1F
100
AcDbEntity
  8
0
  6
Continuous
 62
     7
370
    25
100
AcDbLine
 10
1229.303852789
 20
-835.4938758589
 30
0.0
 11
1228.850208789
 21
-833.8719588589
 31
0.0
  0
LINE
  5
2A8
330
1F
100
AcDbEntity
  8
0
  6
Continuous
 62
     7
370
    25
100
AcDbLine
 10
1233.653348789
 20
-835.6561818589
 30
0.0
 11
1229.303852789
 21
-835.4938758589
 31
0.0
  0
LINE
  5
2A9
330
1F
100
AcDbEntity
  8
0
  6
Continuous
 62
     7
370
    25
100
AcDbLine
 10
1234.171381789
 20
-837.7975288589
 30
0.0
 11
1233.653348789
 21
-835.6561818589
 31
0.0
  0
LINE
  5
2AA
330
1F
100
AcDbEntity
  8
0
  6
Continuous
 62
     7
370
    25
100
AcDbLine
 10
1234.658426789
 20
-840.3608968589
 30
0.0
 11
1234.171381789
 21
-837.7975288589
 31
0.0
  0
LINE
  5
2AB
330
1F
100
AcDbEntity
  8
0
  6
Continuous
 62
     7
370
    25
100
AcDbLine
 10
1233.232089789
 20
-841.6265788589
 30
0.0
 11
1234.658426789
 21
-840.3608968589
 31
0.0
  0
LINE
  5
2AC
330
1F
100
AcDbEntity
  8
0
  6
Continuous
 62
     7
370
    25
100
AcDbLine
 10
1233.814384789
 20
-843.9953828589
 30
0.0
 11
1233.232089789
 21
-841.6265788589
 31
0.0
  0
LINE
  5
2AD
330
1F
100
AcDbEntity
  8
0
  6
Continuous
 62
     7
370
    25
100
AcDbLine
 10
1233.814384789
 20
-846.1047258589
 30
0.0
 11
1233.814384789
 21
-843.9953828589
 31
0.0
  0
LINE
  5
2AE
330
1F
100
AcDbEntity
  8
0
  6
Continuous
 62
     7
370
    25
100
AcDbLine
 10
1232.549972789
 20
-846.7845568589
 30
0.0
 11
1233.814384789
 21
-846.1047258589
 31
0.0
  0
LINE
  5
2AF
330
1F
100
AcDbEntity
  8
0
  6
Continuous
 62
     7
370
    25
100
AcDbLine
 10
1232.356932789
 20
-848.1470128589
 30
0.0
 11
1232.549972789
 21
-846.7845568589
 31
0.0
  0
LINE
  5
2B0
330
1F
100
AcDbEntity
  8
0
  6
Continuous
 62
     7
370
    25
100
AcDbLine
 10
1231.769811789
 20
-847.6613648589
 30
0.0
 11
1232.356932789
 21
-848.1470128589
 31
0.0
  0
LINE
  5
2B1
330
1F
100
AcDbEntity
  8
0
  6
Continuous
 62
     7
370
    25
100
AcDbLine
 10
1229.465777789
 20
-847.6613648589
 30
0.0
 11
1231.769811789
 21
-847.6613648589
 31
0.0
  0
LINE
  5
2B2
330
1F
100
AcDbEntity
  8
0
  6
Continuous
 62
     7
370
    25
100
AcDbLine
 10
1228.623132789
 20
-846.9792478589
 30
0.0
 11
1229.465777789
 21
-847.6613648589
 31
0.0
  0
LINE
  5
2B3
330
1F
100
AcDbEntity
  8
0
  6
Continuous
 62
     7
370
    25
100
AcDbLine
 10
1226.319098789
 20
-845.8439948589
 30
0.0
 11
1228.623132789
 21
-846.9792478589
 31
0.0
  0
LINE
  5
2B4
330
1F
100
AcDbEntity
  8
0
  6
Continuous
 62
     7
370
    25
100
AcDbLine
 10
1224.502490789
 20
-847.9855958589
 30
0.0
 11
1226.319098789
 21
-845.8439948589
 31
0.0
  0
LINE
  5
2B5
330
1F
100
AcDbEntity
  8
0
  6
Continuous
 62
     7
370
    25
100
AcDbLine
 10
1224.601804789
 20
-849.4464768589
 30
0.0
 11
1224.502490789
 21
-847.9855958589
 31
0.0
  0
LINE
  5
2B6
330
1F
100
AcDbEntity
  8
0
  6
Continuous
 62
     7
370
    25
100
AcDbLine
 10
1224.601804789
 20
-851.1646598589
 30
0.0
 11
1224.601804789
 21
-849.4464768589
 31
0.0
  0
LINE
  5
2B7
330
1F
100
AcDbEntity
  8
0
  6
Continuous
 62
     7
370
    25
100
AcDbLine
 10
1224.924257789
 20
-852.4313578589
 30
0.0
 11
1224.601804789
 21
-851.1646598589
 31
0.0
  0
LINE
  5
2B8
330
1F
100
AcDbEntity
  8
0
  6
Continuous
 62
     7
370
    25
100
AcDbLine
 10
1225.800176789
 20
-852.1718968589
 30
0.0
 11
1224.924257789
 21
-852.4313578589
 31
0.0
  0
LINE
  5
2B9
330
1F
100
AcDbEntity
  8
0
  6
Continuous
 62
     7
370
    25
100
AcDbLine
 10
1226.222832789
 20
-854.3778868589
 30
0.0
 11
1225.800176789
 21
-852.1718968589
 31
0.0
  0
LINE
  5
2BA
330
1F
100
AcDbEntity
  8
0
  6
Continuous
 62
     7
370
    25
100
AcDbLine
 10
1225.118059789
 20
-854.6377288589
 30
0.0
 11
1226.222832789
 21
-854.3778868589
 31
0.0
  0
LINE
  5
2BB
330
1F
100
AcDbEntity
  8
0
  6
Continuous
 62
     7
370
    25
100
AcDbLine
 10
1225.020904789
 20
-855.1575398589
 30
0.0
 11
1225.118059789
 21
-854.6377288589
 31
0.0
  0
LINE
  5
2BC
330
1F
100
AcDbEntity
  8
0
  6
Continuous
 62
     7
370
    25
100
AcDbLine
 10
1224.080723789
 20
-855.1575398589
 30
0.0
 11
1225.020904789
 21
-855.1575398589
 31
0.0
  0
LINE
  5
2BD
330
1F
100
AcDbEntity
  8
0
  6
Continuous
 62
     7
370
    25
100
AcDbLine
 10
1223.918798789
 20
-856.3568008589
 30
0.0
 11
1224.080723789
 21
-855.1575398589
 31
0.0
  0
LINE
  5
2BE
330
1F
100
AcDbEntity
  8
0
  6
Continuous
 62
     7
370
    25
100
AcDbLine
 10
1224.502490789
 20
-856.6180398589
 30
0.0
 11
1223.918798789
 21
-856.3568008589
 31
0.0
  0
LINE
  5
2BF
330
1F
100
AcDbEntity
  8
0
  6
Continuous
 62
     7
370
    25
100
AcDbLine
 10
1224.502490789
 20
-858.3698778589
 30
0.0
 11
1224.502490789
 21
-856.6180398589
 31
0.0
  0
LINE
  5
2C0
330
1F
100
AcDbEntity
  8
0
  6
Continuous
 62
     7
370
    25
100
AcDbLine
 10
1223.076534789
 20
-858.5632988589
 30
0.0
 11
1224.502490789
 21
-858.3698778589
 31
0.0
  0
LINE
  5
2C1
330
1F
100
AcDbEntity
  8
0
  6
Continuous
 62
     7
370
    25
100
AcDbLine
 10
1223.076534789
 20
-859.0831098589
 30
0.0
 11
1223.076534789
 21
-858.5632988589
 31
0.0
  0
LINE
  5
2C2
330
1F
100
AcDbEntity
  8
0
  6
Continuous
 62
     7
370
    25
100
AcDbLine
 10
1220.414233789
 20
-859.0831098589
 30
0.0
 11
1223.076534789
 21
-859.0831098589
 31
0.0
  0
LINE
  5
2C3
330
1F
100
AcDbEntity
  8
0
  6
Continuous
 62
     7
370
    25
100
AcDbLine
 10
1220.090383789
 20
-858.4989098589
 30
0.0
 11
1220.414233789
 21
-859.0831098589
 31
0.0
  0
LINE
  5
2C4
330
1F
100
AcDbEntity
  8
0
  6
Continuous
 62
     7
370
    25
100
AcDbLine
 10
1217.330927789
 20
-858.6599458589
 30
0.0
 11
1220.090383789
 21
-858.4989098589
 31
0.0
  0
LINE
  5
2C5
330
1F
100
AcDbEntity
  8
0
  6
Continuous
 62
     7
370
    25
100
AcDbLine
 10
1217.592166789
 20
-859.9266438589
 30
0.0
 11
1217.330927789
 21
-858.6599458589
 31
0.0
  0
LINE
  5
2C6
330
1F
100
AcDbEntity
  8
0
  6
Continuous
 62
     7
370
    25
100
AcDbLine
 10
1215.969360789
 20
-859.9266438589
 30
0.0
 11
1217.592166789
 21
-859.9266438589
 31
0.0
  0
LINE
  5
2C7
330
1F
100
AcDbEntity
  8
0
  6
Continuous
 62
     7
370
    25
100
AcDbLine
 10
1215.643859789
 20
-858.0771428589
 30
0.0
 11
1215.969360789
 21
-859.9266438589
 31
0.0
  0
LINE
  5
2C8
330
1F
100
AcDbEntity
  8
0
  6
Continuous
 62
     7
370
    25
100
AcDbLine
 10
1212.562839789
 20
-858.4989098589
 30
0.0
 11
1215.643859789
 21
-858.0771428589
 31
0.0
  0
LINE
  5
2C9
330
1F
100
AcDbEntity
  8
0
  6
Continuous
 62
     7
370
    25
100
AcDbLine
 10
1212.141072789
 20
-859.1792488589
 30
0.0
 11
1212.562839789
 21
-858.4989098589
 31
0.0
  0
LINE
  5
2CA
330
1F
100
AcDbEntity
  8
0
  6
Continuous
 62
     7
370
    25
100
AcDbLine
 10
1208.733154789
 20
-859.2440188589
 30
0.0
 11
1212.141072789
 21
-859.1792488589
 31
0.0
  0
LINE
  5
2CB
330
1F
100
AcDbEntity
  8
0
  6
Continuous
 62
     7
370
    25
100
AcDbLine
 10
1208.733154789
 20
-857.8164118589
 30
0.0
 11
1208.733154789
 21
-859.2440188589
 31
0.0
  0
LINE
  5
2CC
330
1F
100
AcDbEntity
  8
0
  6
Continuous
 62
     7
370
    25
100
AcDbLine
 10
1209.480930789
 20
-857.5578398589
 30
0.0
 11
1208.733154789
 21
-857.8164118589
 31
0.0
  0
LINE
  5
2CD
330
1F
100
AcDbEntity
  8
0
  6
Continuous
 62
     7
370
    25
100
AcDbLine
 10
1209.480930789
 20
-858.2390678589
 30
0.0
 11
1209.480930789
 21
-857.5578398589
 31
0.0
  0
LINE
  5
2CE
330
1F
100
AcDbEntity
  8
0
  6
Continuous
 62
     7
370
    25
100
AcDbLine
 10
1210.257535789
 20
-858.1424208589
 30
0.0
 11
1209.480930789
 21
-858.2390678589
 31
0.0
  0
LINE
  5
2CF
330
1F
100
AcDbEntity
  8
0
  6
Continuous
 62
     7
370
    25
100
AcDbLine
 10
1210.419333789
 20
-855.7731088589
 30
0.0
 11
1210.257535789
 21
-858.1424208589
 31
0.0
  0
LINE
  5
2D0
330
1F
100
AcDbEntity
  8
0
  6
Continuous
 62
     7
370
    25
100
AcDbLine
 10
1208.571737789
 20
-853.6315078589
 30
0.0
 11
1210.419333789
 21
-855.7731088589
 31
0.0
  0
LINE
  5
2D1
330
1F
100
AcDbEntity
  8
0
  6
Continuous
 62
     7
370
    25
100
AcDbLine
 10
1208.376538789
 20
-852.0729638589
 30
0.0
 11
1208.571737789
 21
-853.6315078589
 31
0.0
  0
LINE
  5
2D2
330
1F
100
AcDbEntity
  8
0
  6
Continuous
 62
     7
370
    25
100
AcDbLine
 10
1206.948931789
 20
-852.0729638589
 30
0.0
 11
1208.376538789
 21
-852.0729638589
 31
0.0
  0
LINE
  5
2D3
330
1F
100
AcDbEntity
  8
0
  6
Continuous
 62
     7
370
    25
100
AcDbLine
 10
1206.688581789
 20
-851.1646598589
 30
0.0
 11
1206.948931789
 21
-852.0729638589
 31
0.0
  0
LINE
  5
2D4
330
1F
100
AcDbEntity
  8
0
  6
Continuous
 62
     7
370
    25
100
AcDbLine
 10
1208.213343789
 20
-850.2891218589
 30
0.0
 11
1206.688581789
 21
-851.1646598589
 31
0.0
  0
LINE
  5
2D5
330
1F
100
AcDbEntity
  8
0
  6
Continuous
 62
     7
370
    25
100
AcDbLine
 10
1207.370698789
 20
-849.2841708589
 30
0.0
 11
1208.213343789
 21
-850.2891218589
 31
0.0
  0
LINE
  5
2D6
330
1F
100
AcDbEntity
  8
0
  6
Continuous
 62
     7
370
    25
100
AcDbLine
 10
1206.074663789
 20
-850.1277048589
 30
0.0
 11
1207.370698789
 21
-849.2841708589
 31
0.0
  0
LINE
  5
2D7
330
1F
100
AcDbEntity
  8
0
  6
Continuous
 62
     7
370
    25
100
AcDbLine
 10
1204.385055789
 20
-850.2891218589
 30
0.0
 11
1206.074663789
 21
-850.1277048589
 31
0.0
  0
LINE
  5
2D8
330
1F
100
AcDbEntity
  8
0
  6
Continuous
 62
     7
370
    25
100
AcDbLine
 10
1204.547742789
 20
-849.2841708589
 30
0.0
 11
1204.385055789
 21
-850.2891218589
 31
0.0
  0
LINE
  5
2D9
330
1F
100
AcDbEntity
  8
0
  6
Continuous
 62
     7
370
    25
100
AcDbLine
 10
1204.385055789
 20
-847.9855958589
 30
0.0
 11
1204.547742789
 21
-849.2841708589
 31
0.0
  0
LINE
  5
2DA
330
1F
100
AcDbEntity
  8
0
  6
Continuous
 62
     7
370
    25
100
AcDbLine
 10
1199.778638789
 20
-849.7064458589
 30
0.0
 11
1204.385055789
 21
-847.9855958589
 31
0.0
  0
LINE
  5
2DB
330
1F
100
AcDbEntity
  8
0
  6
Continuous
 62
     7
370
    25
100
AcDbLine
 10
1198.737873789
 20
-848.2459458589
 30
0.0
 11
1199.778638789
 21
-849.7064458589
 31
0.0
  0
LINE
  5
2DC
330
1F
100
AcDbEntity
  8
0
  6
Continuous
 62
     7
370
    25
100
AcDbLine
 10
1197.118115789
 20
-848.6033238589
 30
0.0
 11
1198.737873789
 21
-848.2459458589
 31
0.0
  0
LINE
  5
2DD
330
1F
100
AcDbEntity
  8
0
  6
Continuous
 62
     7
370
    25
100
AcDbLine
 10
1195.754389789
 20
-846.0385588589
 30
0.0
 11
1197.118115789
 21
-848.6033238589
 31
0.0
  0
LINE
  5
2DE
330
1F
100
AcDbEntity
  8
0
  6
Continuous
 62
     7
370
    25
100
AcDbLine
 10
1193.192164789
 20
-847.9208258589
 30
0.0
 11
1195.754389789
 21
-846.0385588589
 31
0.0
  0
LINE
  5
2DF
330
1F
100
AcDbEntity
  8
0
  6
Continuous
 62
     7
370
    25
100
AcDbLine
 10
1190.368827789
 20
-850.1277048589
 30
0.0
 11
1193.192164789
 21
-847.9208258589
 31
0.0
  0
LINE
  5
2E0
330
1F
100
AcDbEntity
  8
0
  6
Continuous
 62
     7
370
    25
100
AcDbLine
 10
1190.044596789
 20
-849.4464768589
 30
0.0
 11
1190.368827789
 21
-850.1277048589
 31
0.0
  0
LINE
  5
2E1
330
1F
100
AcDbEntity
  8
0
  6
Continuous
 62
     7
370
    25
100
AcDbLine
 10
1188.941093789
 20
-848.9280628589
 30
0.0
 11
1190.044596789
 21
-849.4464768589
 31
0.0
  0
LINE
  5
2E2
330
1F
100
AcDbEntity
  8
0
  6
Continuous
 62
     7
370
    25
100
AcDbLine
 10
1187.317525789
 20
-848.0823698589
 30
0.0
 11
1188.941093789
 21
-848.9280628589
 31
0.0
  0
LINE
  5
2E3
330
1F
100
AcDbEntity
  8
0
  6
Continuous
 62
     7
370
    25
100
AcDbLine
 10
1183.554261789
 20
-847.5638288589
 30
0.0
 11
1187.317525789
 21
-848.0823698589
 31
0.0
  0
LINE
  5
2E4
330
1F
100
AcDbEntity
  8
0
  6
Continuous
 62
     7
370
    25
100
AcDbLine
 10
1176.804084789
 20
-847.7261348589
 30
0.0
 11
1183.554261789
 21
-847.5638288589
 31
0.0
  0
LINE
  5
2E5
330
1F
100
AcDbEntity
  8
0
  6
Continuous
 62
     7
370
    25
100
AcDbLine
 10
1175.604442789
 20
-849.6084018589
 30
0.0
 11
1176.804084789
 21
-847.7261348589
 31
0.0
  0
LINE
  5
2E6
330
1F
100
AcDbEntity
  8
0
  6
Continuous
 62
     7
370
    25
100
AcDbLine
 10
1173.041836789
 20
-850.0301688589
 30
0.0
 11
1175.604442789
 21
-849.6084018589
 31
0.0
  0
LINE
  5
2E7
330
1F
100
AcDbEntity
  8
0
  6
Continuous
 62
     7
370
    25
100
AcDbLine
 10
1170.672270789
 20
-850.3867848589
 30
0.0
 11
1173.041836789
 21
-850.0301688589
 31
0.0
  0
LINE
  5
2E8
330
1F
100
AcDbEntity
  8
0
  6
Continuous
 62
     7
370
    25
100
AcDbLine
 10
1170.412809789
 20
-847.8236708589
 30
0.0
 11
1170.672270789
 21
-850.3867848589
 31
0.0
  0
LINE
  5
2E9
330
1F
100
AcDbEntity
  8
0
  6
Continuous
 62
     7
370
    25
100
AcDbLine
 10
1169.731962789
 20
-847.9208258589
 30
0.0
 11
1170.412809789
 21
-847.8236708589
 31
0.0
  0
LINE
  5
2EA
330
1F
100
AcDbEntity
  8
0
  6
Continuous
 62
     7
370
    25
100
AcDbLine
 10
1169.472120789
 20
-847.3048758589
 30
0.0
 11
1169.731962789
 21
-847.9208258589
 31
0.0
  0
LINE
  5
2EB
330
1F
100
AcDbEntity
  8
0
  6
Continuous
 62
     7
370
    25
100
AcDbLine
 10
1168.531431789
 20
-847.3048758589
 30
0.0
 11
1169.472120789
 21
-847.3048758589
 31
0.0
  0
LINE
  5
2EC
330
1F
100
AcDbEntity
  8
0
  6
Continuous
 62
     7
370
    25
100
AcDbLine
 10
1169.374457789
 20
-851.6529748589
 30
0.0
 11
1168.531431789
 21
-847.3048758589
 31
0.0
  0
LINE
  5
2ED
330
1F
100
AcDbEntity
  8
0
  6
Continuous
 62
     7
370
    25
100
AcDbLine
 10
1168.888428789
 20
-851.7496218589
 30
0.0
 11
1169.374457789
 21
-851.6529748589
 31
0.0
  0
LINE
  5
2EE
330
1F
100
AcDbEntity
  8
0
  6
Continuous
 62
     7
370
    25
100
AcDbLine
 10
1168.954087789
 20
-853.4695828589
 30
0.0
 11
1168.888428789
 21
-851.7496218589
 31
0.0
  0
LINE
  5
2EF
330
1F
100
AcDbEntity
  8
0
  6
Continuous
 62
     7
370
    25
100
AcDbLine
 10
1170.251265789
 20
-853.6975478589
 30
0.0
 11
1168.954087789
 21
-853.4695828589
 31
0.0
  0
LINE
  5
2F0
330
1F
100
AcDbEntity
  8
0
  6
Continuous
 62
     7
370
    25
100
AcDbLine
 10
1170.412809789
 20
-855.5784178589
 30
0.0
 11
1170.251265789
 21
-853.6975478589
 31
0.0
  0
LINE
  5
2F1
330
1F
100
AcDbEntity
  8
0
  6
Continuous
 62
     7
370
    25
100
AcDbLine
 10
1171.613721789
 20
-855.4161118589
 30
0.0
 11
1170.412809789
 21
-855.5784178589
 31
0.0
  0
LINE
  5
2F2
330
1F
100
AcDbEntity
  8
0
  6
Continuous
 62
     7
370
    25
100
AcDbLine
 10
1171.679380789
 20
-857.4606848589
 30
0.0
 11
1171.613721789
 21
-855.4161118589
 31
0.0
  0
LINE
  5
2F3
330
1F
100
AcDbEntity
  8
0
  6
Continuous
 62
     7
370
    25
100
AcDbLine
 10
1169.991042789
 20
-857.1355648589
 30
0.0
 11
1171.679380789
 21
-857.4606848589
 31
0.0
  0
LINE
  5
2F4
330
1F
100
AcDbEntity
  8
0
  6
Continuous
 62
     7
370
    25
100
AcDbLine
 10
1169.634426789
 20
-858.1424208589
 30
0.0
 11
1169.991042789
 21
-857.1355648589
 31
0.0
  0
LINE
  5
2F5
330
1F
100
AcDbEntity
  8
0
  6
Continuous
 62
     7
370
    25
100
AcDbLine
 10
1168.434276789
 20
-858.2390678589
 30
0.0
 11
1169.634426789
 21
-858.1424208589
 31
0.0
  0
LINE
  5
2F6
330
1F
100
AcDbEntity
  8
0
  6
Continuous
 62
     7
370
    25
100
AcDbLine
 10
1168.888428789
 20
-860.9639798589
 30
0.0
 11
1168.434276789
 21
-858.2390678589
 31
0.0
  0
LINE
  5
2F7
330
1F
100
AcDbEntity
  8
0
  6
Continuous
 62
     7
370
    25
100
AcDbLine
 10
1170.316035789
 20
-860.2845298589
 30
0.0
 11
1168.888428789
 21
-860.9639798589
 31
0.0
  0
LINE
  5
2F8
330
1F
100
AcDbEntity
  8
0
  6
Continuous
 62
     7
370
    25
100
AcDbLine
 10
1171.775265789
 20
-860.3807958589
 30
0.0
 11
1170.316035789
 21
-860.2845298589
 31
0.0
  0
LINE
  5
2F9
330
1F
100
AcDbEntity
  8
0
  6
Continuous
 62
     7
370
    25
100
AcDbLine
 10
1171.873182789
 20
-861.3870168589
 30
0.0
 11
1171.775265789
 21
-860.3807958589
 31
0.0
  0
LINE
  5
2FA
330
1F
100
AcDbEntity
  8
0
  6
Continuous
 62
     7
370
    25
100
AcDbLine
 10
1171.939730789
 20
-862.0678638589
 30
0.0
 11
1171.873182789
 21
-861.3870168589
 31
0.0
  0
LINE
  5
2FB
330
1F
100
AcDbEntity
  8
0
  6
Continuous
 62
     7
370
    25
100
AcDbLine
 10
1170.997644789
 20
-863.3646608589
 30
0.0
 11
1171.939730789
 21
-862.0678638589
 31
0.0
  0
LINE
  5
2FC
330
1F
100
AcDbEntity
  8
0
  6
Continuous
 62
     7
370
    25
100
AcDbLine
 10
1171.451923789
 20
-865.3129678589
 30
0.0
 11
1170.997644789
 21
-863.3646608589
 31
0.0
  0
LINE
  5
2FD
330
1F
100
AcDbEntity
  8
0
  6
Continuous
 62
     7
370
    25
100
AcDbLine
 10
1173.301678789
 20
-865.2158128589
 30
0.0
 11
1171.451923789
 21
-865.3129678589
 31
0.0
  0
LINE
  5
2FE
330
1F
100
AcDbEntity
  8
0
  6
Continuous
 62
     7
370
    25
100
AcDbLine
 10
1173.237797789
 20
-868.9143068589
 30
0.0
 11
1173.301678789
 21
-865.2158128589
 31
0.0
  0
LINE
  5
2FF
330
1F
100
AcDbEntity
  8
0
  6
Continuous
 62
     7
370
    25
100
AcDbLine
 10
1172.198302789
 20
-869.1413828589
 30
0.0
 11
1173.237797789
 21
-868.9143068589
 31
0.0
  0
LINE
  5
300
330
1F
100
AcDbEntity
  8
0
  6
Continuous
 62
     7
370
    25
100
AcDbLine
 10
1172.457382789
 20
-870.5366048589
 30
0.0
 11
1172.198302789
 21
-869.1413828589
 31
0.0
  0
LINE
  5
301
330
1F
100
AcDbEntity
  8
0
  6
Continuous
 62
     7
370
    25
100
AcDbLine
 10
1173.139372789
 20
-871.6404888589
 30
0.0
 11
1172.457382789
 21
-870.5366048589
 31
0.0
  0
LINE
  5
302
330
1F
100
AcDbEntity
  8
0
  6
Continuous
 62
     7
370
    25
100
AcDbLine
 10
1172.036377789
 20
-872.8406388589
 30
0.0
 11
1173.139372789
 21
-871.6404888589
 31
0.0
  0
LINE
  5
303
330
1F
100
AcDbEntity
  8
0
  6
Continuous
 62
     7
370
    25
100
AcDbLine
 10
1172.295838789
 20
-873.9432528589
 30
0.0
 11
1172.036377789
 21
-872.8406388589
 31
0.0
  0
LINE
  5
304
330
1F
100
AcDbEntity
  8
0
  6
Continuous
 62
     7
370
    25
100
AcDbLine
 10
1173.237797789
 20
-874.8843228589
 30
0.0
 11
1172.295838789
 21
-873.9432528589
 31
0.0
  0
LINE
  5
305
330
1F
100
AcDbEntity
  8
0
  6
Continuous
 62
     7
370
    25
100
AcDbLine
 10
1171.613721789
 20
-876.4095928589
 30
0.0
 11
1173.237797789
 21
-874.8843228589
 31
0.0
  0
LINE
  5
306
330
1F
100
AcDbEntity
  8
0
  6
Continuous
 62
     7
370
    25
100
AcDbLine
 10
1164.184602789
 20
-875.1442918589
 30
0.0
 11
1171.613721789
 21
-876.4095928589
 31
0.0
  0
LINE
  5
307
330
1F
100
AcDbEntity
  8
0
  6
Continuous
 62
     7
370
    25
100
AcDbLine
 10
1160.256365789
 20
-874.9473148589
 30
0.0
 11
1164.184602789
 21
-875.1442918589
 31
0.0
  0
LINE
  5
308
330
1F
100
AcDbEntity
  8
0
  6
Continuous
 62
     7
370
    25
100
AcDbLine
 10
1158.050883789
 20
-876.6690538589
 30
0.0
 11
1160.256365789
 21
-874.9473148589
 31
0.0
  0
LINE
  5
309
330
1F
100
AcDbEntity
  8
0
  6
Continuous
 62
     7
370
    25
100
AcDbLine
 10
1155.488277789
 20
-877.6748938589
 30
0.0
 11
1158.050883789
 21
-876.6690538589
 31
0.0
  0
LINE
  5
30A
330
1F
100
AcDbEntity
  8
0
  6
Continuous
 62
     7
370
    25
100
AcDbLine
 10
1151.886049789
 20
-878.7131188589
 30
0.0
 11
1155.488277789
 21
-877.6748938589
 31
0.0
  0
LINE
  5
30B
330
1F
100
AcDbEntity
  8
0
  6
Continuous
 62
     7
370
    25
100
AcDbLine
 10
1151.370934692
 20
-879.1326741802
 30
0.0
 11
1151.886049789
 21
-878.7131188589
 31
0.0
  0
LINE
  5
30C
330
1F
100
AcDbEntity
  8
0
  6
Continuous
 62
     7
370
    25
100
AcDbLine
 10
1151.302865789
 20
-878.8124328589
 30
0.0
 11
1151.370934692
 21
-879.1326741802
 31
0.0
  0
LINE
  5
30D
330
1F
100
AcDbEntity
  8
0
  6
Continuous
 62
     7
370
    25
100
AcDbLine
 10
1147.539347789
 20
-880.0737968589
 30
0.0
 11
1151.302865789
 21
-878.8124328589
 31
0.0
  0
LINE
  5
30E
330
1F
100
AcDbEntity
  8
0
  6
Continuous
 62
     7
370
    25
100
AcDbLine
 10
1144.228076789
 20
-881.5369638589
 30
0.0
 11
1147.539347789
 21
-880.0737968589
 31
0.0
  0
LINE
  5
30F
330
1F
100
AcDbEntity
  8
0
  6
Continuous
 62
     7
370
    25
100
AcDbLine
 10
1141.309743789
 20
-879.8157328589
 30
0.0
 11
1144.228076789
 21
-881.5369638589
 31
0.0
  0
LINE
  5
310
330
1F
100
AcDbEntity
  8
0
  6
Continuous
 62
     7
370
    25
100
AcDbLine
 10
1140.368673789
 20
-878.6155828589
 30
0.0
 11
1141.309743789
 21
-879.8157328589
 31
0.0
  0
LINE
  5
311
330
1F
100
AcDbEntity
  8
0
  6
Continuous
 62
     7
370
    25
100
AcDbLine
 10
1132.190381789
 20
-880.4978498589
 30
0.0
 11
1140.368673789
 21
-878.6155828589
 31
0.0
  0
LINE
  5
312
330
1F
100
AcDbEntity
  8
0
  6
Continuous
 62
     7
370
    25
100
AcDbLine
 10
1131.249692789
 20
-879.2980808589
 30
0.0
 11
1132.190381789
 21
-880.4978498589
 31
0.0
  0
LINE
  5
313
330
1F
100
AcDbEntity
  8
0
  6
Continuous
 62
     7
370
    25
100
AcDbLine
 10
1130.472198789
 20
-879.4909938589
 30
0.0
 11
1131.249692789
 21
-879.2980808589
 31
0.0
  0
LINE
  5
314
330
1F
100
AcDbEntity
  8
0
  6
Continuous
 62
     7
370
    25
100
AcDbLine
 10
1130.308114789
 20
-879.9789278589
 30
0.0
 11
1130.472198789
 21
-879.4909938589
 31
0.0
  0
LINE
  5
315
330
1F
100
AcDbEntity
  8
0
  6
Continuous
 62
     7
370
    25
100
AcDbLine
 10
1129.627775789
 20
-879.8157328589
 30
0.0
 11
1130.308114789
 21
-879.9789278589
 31
0.0
  0
LINE
  5
316
330
1F
100
AcDbEntity
  8
0
  6
Continuous
 62
     7
370
    25
100
AcDbLine
 10
1128.848503789
 20
-878.6155828589
 30
0.0
 11
1129.627775789
 21
-879.8157328589
 31
0.0
  0
LINE
  5
317
330
1F
100
AcDbEntity
  8
0
  6
Continuous
 62
     7
370
    25
100
AcDbLine
 10
1130.049161789
 20
-876.5718988589
 30
0.0
 11
1128.848503789
 21
-878.6155828589
 31
0.0
  0
LINE
  5
318
330
1F
100
AcDbEntity
  8
0
  6
Continuous
 62
     7
370
    25
100
AcDbLine
 10
1129.627775789
 20
-874.9473148589
 30
0.0
 11
1130.049161789
 21
-876.5718988589
 31
0.0
  0
LINE
  5
319
330
1F
100
AcDbEntity
  8
0
  6
Continuous
 62
     7
370
    25
100
AcDbLine
 10
1126.546755789
 20
-875.1442918589
 30
0.0
 11
1129.627775789
 21
-874.9473148589
 31
0.0
  0
LINE
  5
31A
330
1F
100
AcDbEntity
  8
0
  6
Continuous
 62
     7
370
    25
100
AcDbLine
 10
1126.285008789
 20
-876.0524688589
 30
0.0
 11
1126.546755789
 21
-875.1442918589
 31
0.0
  0
LINE
  5
31B
330
1F
100
AcDbEntity
  8
0
  6
Continuous
 62
     7
370
    25
100
AcDbLine
 10
1126.546755789
 20
-878.4545468589
 30
0.0
 11
1126.285008789
 21
-876.0524688589
 31
0.0
  0
LINE
  5
31C
330
1F
100
AcDbEntity
  8
0
  6
Continuous
 62
     7
370
    25
100
AcDbLine
 10
1123.657759789
 20
-878.7131188589
 30
0.0
 11
1126.546755789
 21
-878.4545468589
 31
0.0
  0
LINE
  5
31D
330
1F
100
AcDbEntity
  8
0
  6
Continuous
 62
     7
370
    25
100
AcDbLine
 10
1121.774984789
 20
-879.0697348589
 30
0.0
 11
1123.657759789
 21
-878.7131188589
 31
0.0
  0
LINE
  5
31E
330
1F
100
AcDbEntity
  8
0
  6
Continuous
 62
     7
370
    25
100
AcDbLine
 10
1121.418495789
 20
-881.1785698589
 30
0.0
 11
1121.774984789
 21
-879.0697348589
 31
0.0
  0
LINE
  5
31F
330
1F
100
AcDbEntity
  8
0
  6
Continuous
 62
     7
370
    25
100
AcDbLine
 10
1120.413925789
 20
-881.6004638589
 30
0.0
 11
1121.418495789
 21
-881.1785698589
 31
0.0
  0
LINE
  5
320
330
1F
100
AcDbEntity
  8
0
  6
Continuous
 62
     7
370
    25
100
AcDbLine
 10
1119.732697789
 20
-881.1155778589
 30
0.0
 11
1120.413925789
 21
-881.6004638589
 31
0.0
  0
LINE
  5
321
330
1F
100
AcDbEntity
  8
0
  6
Continuous
 62
     7
370
    25
100
AcDbLine
 10
1120.672878789
 20
-880.4978498589
 30
0.0
 11
1119.732697789
 21
-881.1155778589
 31
0.0
  0
LINE
  5
322
330
1F
100
AcDbEntity
  8
0
  6
Continuous
 62
     7
370
    25
100
AcDbLine
 10
1119.993047789
 20
-879.3943468589
 30
0.0
 11
1120.672878789
 21
-880.4978498589
 31
0.0
  0
LINE
  5
323
330
1F
100
AcDbEntity
  8
0
  6
Continuous
 62
     7
370
    25
100
AcDbLine
 10
1119.212886789
 20
-878.5513208589
 30
0.0
 11
1119.993047789
 21
-879.3943468589
 31
0.0
  0
LINE
  5
324
330
1F
100
AcDbEntity
  8
0
  6
Continuous
 62
     7
370
    25
100
AcDbLine
 10
1117.752894789
 20
-878.5513208589
 30
0.0
 11
1119.212886789
 21
-878.5513208589
 31
0.0
  0
LINE
  5
325
330
1F
100
AcDbEntity
  8
0
  6
Continuous
 62
     7
370
    25
100
AcDbLine
 10
1118.108621789
 20
-876.9294038589
 30
0.0
 11
1117.752894789
 21
-878.5513208589
 31
0.0
  0
LINE
  5
326
330
1F
100
AcDbEntity
  8
0
  6
Continuous
 62
     7
370
    25
100
AcDbLine
 10
1117.427393789
 20
-876.6690538589
 30
0.0
 11
1118.108621789
 21
-876.9294038589
 31
0.0
  0
LINE
  5
327
330
1F
100
AcDbEntity
  8
0
  6
Continuous
 62
     7
370
    25
100
AcDbLine
 10
1115.546015789
 20
-876.9294038589
 30
0.0
 11
1117.427393789
 21
-876.6690538589
 31
0.0
  0
LINE
  5
328
330
1F
100
AcDbEntity
  8
0
  6
Continuous
 62
     7
370
    25
100
AcDbLine
 10
1113.826054789
 20
-876.5718988589
 30
0.0
 11
1115.546015789
 21
-876.9294038589
 31
0.0
  0
LINE
  5
329
330
1F
100
AcDbEntity
  8
0
  6
Continuous
 62
     7
370
    25
100
AcDbLine
 10
1113.610345453
 20
-876.7864037876
 30
0.0
 11
1113.826054789
 21
-876.5718988589
 31
0.0
  0
LINE
  5
32A
330
1F
100
AcDbEntity
  8
0
  6
Continuous
 62
     7
370
    25
100
AcDbLine
 10
1113.826054789
 20
-875.9864288589
 30
0.0
 11
1113.610345453
 21
-876.7864037876
 31
0.0
  0
LINE
  5
32B
330
1F
100
AcDbEntity
  8
0
  6
Continuous
 62
     7
370
    25
100
AcDbLine
 10
1110.840792789
 20
-875.8901628589
 30
0.0
 11
1113.826054789
 21
-875.9864288589
 31
0.0
  0
LINE
  5
32C
330
1F
100
AcDbEntity
  8
0
  6
Continuous
 62
     7
370
    25
100
AcDbLine
 10
1109.900611789
 20
-869.4012248589
 30
0.0
 11
1110.840792789
 21
-875.8901628589
 31
0.0
  0
LINE
  5
32D
330
1F
100
AcDbEntity
  8
0
  6
Continuous
 62
     7
370
    25
100
AcDbLine
 10
1112.657400789
 20
-868.7191078589
 30
0.0
 11
1109.900611789
 21
-869.4012248589
 31
0.0
  0
LINE
  5
32E
330
1F
100
AcDbEntity
  8
0
  6
Continuous
 62
     7
370
    25
100
AcDbLine
 10
1112.301292789
 20
-864.6299618589
 30
0.0
 11
1112.657400789
 21
-868.7191078589
 31
0.0
  0
LINE
  5
32F
330
1F
100
AcDbEntity
  8
0
  6
Continuous
 62
     7
370
    25
100
AcDbLine
 10
1113.340025789
 20
-864.0476668589
 30
0.0
 11
1112.301292789
 21
-864.6299618589
 31
0.0
  0
LINE
  5
330
330
1F
100
AcDbEntity
  8
0
  6
Continuous
 62
     7
370
    25
100
AcDbLine
 10
1112.821103789
 20
-862.5871668589
 30
0.0
 11
1113.340025789
 21
-864.0476668589
 31
0.0
  0
LINE
  5
331
330
1F
100
AcDbEntity
  8
0
  6
Continuous
 62
     7
370
    25
100
AcDbLine
 10
1112.821103789
 20
-860.7036298589
 30
0.0
 11
1112.821103789
 21
-862.5871668589
 31
0.0
  0
LINE
  5
332
330
1F
100
AcDbEntity
  8
0
  6
Continuous
 62
     7
370
    25
100
AcDbLine
 10
1111.198297789
 20
-861.2234408589
 30
0.0
 11
1112.821103789
 21
-860.7036298589
 31
0.0
  0
LINE
  5
333
330
1F
100
AcDbEntity
  8
0
  6
Continuous
 62
     7
370
    25
100
AcDbLine
 10
1109.575491789
 20
-859.1792488589
 30
0.0
 11
1111.198297789
 21
-861.2234408589
 31
0.0
  0
LINE
  5
334
330
1F
100
AcDbEntity
  8
0
  6
Continuous
 62
     7
370
    25
100
AcDbLine
 10
1110.160453789
 20
-858.6599458589
 30
0.0
 11
1109.575491789
 21
-859.1792488589
 31
0.0
  0
LINE
  5
335
330
1F
100
AcDbEntity
  8
0
  6
Continuous
 62
     7
370
    25
100
AcDbLine
 10
1109.836730789
 20
-857.2983788589
 30
0.0
 11
1110.160453789
 21
-858.6599458589
 31
0.0
  0
LINE
  5
336
330
1F
100
AcDbEntity
  8
0
  6
Continuous
 62
     7
370
    25
100
AcDbLine
 10
1110.939725789
 20
-856.3568008589
 30
0.0
 11
1109.836730789
 21
-857.2983788589
 31
0.0
  0
LINE
  5
337
330
1F
100
AcDbEntity
  8
0
  6
Continuous
 62
     7
370
    25
100
AcDbLine
 10
1111.037261789
 20
-855.1575398589
 30
0.0
 11
1110.939725789
 21
-856.3568008589
 31
0.0
  0
LINE
  5
338
330
1F
100
AcDbEntity
  8
0
  6
Continuous
 62
     7
370
    25
100
AcDbLine
 10
1109.997258789
 20
-855.5784178589
 30
0.0
 11
1111.037261789
 21
-855.1575398589
 31
0.0
  0
LINE
  5
339
330
1F
100
AcDbEntity
  8
0
  6
Continuous
 62
     7
370
    25
100
AcDbLine
 10
1110.776022789
 20
-855.2534248589
 30
0.0
 11
1109.997258789
 21
-855.5784178589
 31
0.0
  0
LINE
  5
33A
330
1F
100
AcDbEntity
  8
0
  6
Continuous
 62
     7
370
    25
100
AcDbLine
 10
1111.198297789
 20
-854.8320388589
 30
0.0
 11
1110.776022789
 21
-855.2534248589
 31
0.0
  0
LINE
  5
33B
330
1F
100
AcDbEntity
  8
0
  6
Continuous
 62
     7
370
    25
100
AcDbLine
 10
1113.340025789
 20
-853.6315078589
 30
0.0
 11
1111.198297789
 21
-854.8320388589
 31
0.0
  0
LINE
  5
33C
330
1F
100
AcDbEntity
  8
0
  6
Continuous
 62
     7
370
    25
100
AcDbLine
 10
1116.810808789
 20
-852.2690518589
 30
0.0
 11
1113.340025789
 21
-853.6315078589
 31
0.0
  0
LINE
  5
33D
330
1F
100
AcDbEntity
  8
0
  6
Continuous
 62
     7
370
    25
100
AcDbLine
 10
1116.746546789
 20
-851.3935138589
 30
0.0
 11
1116.810808789
 21
-852.2690518589
 31
0.0
  0
LINE
  5
33E
330
1F
100
AcDbEntity
  8
0
  6
Continuous
 62
     7
370
    25
100
AcDbLine
 10
1115.285665789
 20
-851.6529748589
 30
0.0
 11
1116.746546789
 21
-851.3935138589
 31
0.0
  0
LINE
  5
33F
330
1F
100
AcDbEntity
  8
0
  6
Continuous
 62
     7
370
    25
100
AcDbLine
 10
1115.189399789
 20
-850.8103298589
 30
0.0
 11
1115.285665789
 21
-851.6529748589
 31
0.0
  0
LINE
  5
340
330
1F
100
AcDbEntity
  8
0
  6
Continuous
 62
     7
370
    25
100
AcDbLine
 10
1116.551347789
 20
-850.3867848589
 30
0.0
 11
1115.189399789
 21
-850.8103298589
 31
0.0
  0
LINE
  5
341
330
1F
100
AcDbEntity
  8
0
  6
Continuous
 62
     7
370
    25
100
AcDbLine
 10
1116.389041789
 20
-848.3431008589
 30
0.0
 11
1116.551347789
 21
-850.3867848589
 31
0.0
  0
LINE
  5
342
330
1F
100
AcDbEntity
  8
0
  6
Continuous
 62
     7
370
    25
100
AcDbLine
 10
1117.752894789
 20
-848.2459458589
 30
0.0
 11
1116.389041789
 21
-848.3431008589
 31
0.0
  0
LINE
  5
343
330
1F
100
AcDbEntity
  8
0
  6
Continuous
 62
     7
370
    25
100
AcDbLine
 10
1117.590588789
 20
-849.2841708589
 30
0.0
 11
1117.752894789
 21
-848.2459458589
 31
0.0
  0
LINE
  5
344
330
1F
100
AcDbEntity
  8
0
  6
Continuous
 62
     7
370
    25
100
AcDbLine
 10
1118.433614789
 20
-849.3485598589
 30
0.0
 11
1117.590588789
 21
-849.2841708589
 31
0.0
  0
LINE
  5
345
330
1F
100
AcDbEntity
  8
0
  6
Continuous
 62
     7
370
    25
100
AcDbLine
 10
1118.368463789
 20
-851.7496218589
 30
0.0
 11
1118.433614789
 21
-849.3485598589
 31
0.0
  0
LINE
  5
346
330
1F
100
AcDbEntity
  8
0
  6
Continuous
 62
     7
370
    25
100
AcDbLine
 10
1119.309533789
 20
-852.0729638589
 30
0.0
 11
1118.368463789
 21
-851.7496218589
 31
0.0
  0
LINE
  5
347
330
1F
100
AcDbEntity
  8
0
  6
Continuous
 62
     7
370
    25
100
AcDbLine
 10
1120.314992789
 20
-850.3867848589
 30
0.0
 11
1119.309533789
 21
-852.0729638589
 31
0.0
  0
LINE
  5
348
330
1F
100
AcDbEntity
  8
0
  6
Continuous
 62
     7
370
    25
100
AcDbLine
 10
1119.569883789
 20
-848.9280628589
 30
0.0
 11
1120.314992789
 21
-850.3867848589
 31
0.0
  0
LINE
  5
349
330
1F
100
AcDbEntity
  8
0
  6
Continuous
 62
     7
370
    25
100
AcDbLine
 10
1121.256189789
 20
-848.1470128589
 30
0.0
 11
1119.569883789
 21
-848.9280628589
 31
0.0
  0
LINE
  5
34A
330
1F
100
AcDbEntity
  8
0
  6
Continuous
 62
     7
370
    25
100
AcDbLine
 10
1122.717451789
 20
-848.0823698589
 30
0.0
 11
1121.256189789
 21
-848.1470128589
 31
0.0
  0
LINE
  5
34B
330
1F
100
AcDbEntity
  8
0
  6
Continuous
 62
     7
370
    25
100
AcDbLine
 10
1123.559715789
 20
-846.4612148589
 30
0.0
 11
1122.717451789
 21
-848.0823698589
 31
0.0
  0
LINE
  5
34C
330
1F
100
AcDbEntity
  8
0
  6
Continuous
 62
     7
370
    25
100
AcDbLine
 10
1125.279676789
 20
-846.2997978589
 30
0.0
 11
1123.559715789
 21
-846.4612148589
 31
0.0
  0
LINE
  5
34D
330
1F
100
AcDbEntity
  8
0
  6
Continuous
 62
     7
370
    25
100
AcDbLine
 10
1125.603018789
 20
-844.4819198589
 30
0.0
 11
1125.279676789
 21
-846.2997978589
 31
0.0
  0
LINE
  5
34E
330
1F
100
AcDbEntity
  8
0
  6
Continuous
 62
     7
370
    25
100
AcDbLine
 10
1126.967252789
 20
-845.3573308589
 30
0.0
 11
1125.603018789
 21
-844.4819198589
 31
0.0
  0
LINE
  5
34F
330
1F
100
AcDbEntity
  8
0
  6
Continuous
 62
     7
370
    25
100
AcDbLine
 10
1126.285008789
 20
-842.7952328589
 30
0.0
 11
1126.967252789
 21
-845.3573308589
 31
0.0
  0
LINE
  5
350
330
1F
100
AcDbEntity
  8
0
  6
Continuous
 62
     7
370
    25
100
AcDbLine
 10
1125.279676789
 20
-842.3734658589
 30
0.0
 11
1126.285008789
 21
-842.7952328589
 31
0.0
  0
LINE
  5
351
330
1F
100
AcDbEntity
  8
0
  6
Continuous
 62
     7
370
    25
100
AcDbLine
 10
1125.182521789
 20
-841.3671178589
 30
0.0
 11
1125.279676789
 21
-842.3734658589
 31
0.0
  0
LINE
  5
352
330
1F
100
AcDbEntity
  8
0
  6
Continuous
 62
     7
370
    25
100
AcDbLine
 10
1125.702713789
 20
-841.3671178589
 30
0.0
 11
1125.182521789
 21
-841.3671178589
 31
0.0
  0
LINE
  5
353
330
1F
100
AcDbEntity
  8
0
  6
Continuous
 62
     7
370
    25
100
AcDbLine
 10
1125.702713789
 20
-840.6862708589
 30
0.0
 11
1125.702713789
 21
-841.3671178589
 31
0.0
  0
LINE
  5
354
330
1F
100
AcDbEntity
  8
0
  6
Continuous
 62
     7
370
    25
100
AcDbLine
 10
1124.500785789
 20
-840.3608968589
 30
0.0
 11
1125.702713789
 21
-840.6862708589
 31
0.0
  0
LINE
  5
355
330
1F
100
AcDbEntity
  8
0
  6
Continuous
 62
     7
370
    25
100
AcDbLine
 10
1124.761135789
 20
-838.6401738589
 30
0.0
 11
1124.500785789
 21
-840.3608968589
 31
0.0
  0
LINE
  5
356
330
1F
100
AcDbEntity
  8
0
  6
Continuous
 62
     7
370
    25
100
AcDbLine
 10
1125.279676789
 20
-838.2839388589
 30
0.0
 11
1124.761135789
 21
-838.6401738589
 31
0.0
  0
LINE
  5
357
330
1F
100
AcDbEntity
  8
0
  6
Continuous
 62
     7
370
    25
100
AcDbLine
 10
1125.345335789
 20
-837.4404048589
 30
0.0
 11
1125.279676789
 21
-838.2839388589
 31
0.0
  0
LINE
  5
358
330
1F
100
AcDbEntity
  8
0
  6
Continuous
 62
     7
370
    25
100
AcDbLine
 10
1124.338987789
 20
-836.3381718589
 30
0.0
 11
1125.345335789
 21
-837.4404048589
 31
0.0
  0
LINE
  5
359
330
1F
100
AcDbEntity
  8
0
  6
Continuous
 62
     7
370
    25
100
AcDbLine
 10
1124.856512789
 20
-835.4938758589
 30
0.0
 11
1124.338987789
 21
-836.3381718589
 31
0.0
  0
LINE
  5
35A
330
1F
100
AcDbEntity
  8
0
  6
Continuous
 62
     7
370
    25
100
AcDbLine
 10
1124.240943789
 20
-831.4694998589
 30
0.0
 11
1124.856512789
 21
-835.4938758589
 31
0.0
  0
LINE
  5
35B
330
1F
100
AcDbEntity
  8
0
  6
Continuous
 62
     7
370
    25
100
AcDbLine
 10
1125.441982789
 20
-828.9071478589
 30
0.0
 11
1124.240943789
 21
-831.4694998589
 31
0.0
  0
LINE
  5
35C
330
1F
100
AcDbEntity
  8
0
  6
Continuous
 62
     7
370
    25
100
AcDbLine
 10
1127.388130789
 20
-828.6474328589
 30
0.0
 11
1125.441982789
 21
-828.9071478589
 31
0.0
  0
LINE
  5
35D
330
1F
100
AcDbEntity
  8
0
  6
Continuous
 62
     7
370
    25
100
AcDbLine
 10
1127.486555789
 20
-829.6868008589
 30
0.0
 11
1127.388130789
 21
-828.6474328589
 31
0.0
  0
LINE
  5
35E
330
1F
100
AcDbEntity
  8
0
  6
Continuous
 62
     7
370
    25
100
AcDbLine
 10
1129.009920789
 20
-829.2641448589
 30
0.0
 11
1127.486555789
 21
-829.6868008589
 31
0.0
  0
LINE
  5
35F
330
1F
100
AcDbEntity
  8
0
  6
Continuous
 62
     7
370
    25
100
AcDbLine
 10
1128.848503789
 20
-827.5444378589
 30
0.0
 11
1129.009920789
 21
-829.2641448589
 31
0.0
  0
LINE
  5
360
330
1F
100
AcDbEntity
  8
0
  6
Continuous
 62
     7
370
    25
100
AcDbLine
 10
1131.671459789
 20
-826.9612538589
 30
0.0
 11
1128.848503789
 21
-827.5444378589
 31
0.0
  0
LINE
  5
361
330
1F
100
AcDbEntity
  8
0
  6
Continuous
 62
     7
370
    25
100
AcDbLine
 10
1133.197618789
 20
-825.0798758589
 30
0.0
 11
1131.671459789
 21
-826.9612538589
 31
0.0
  0
ENDSEC
  0
SECTION
  2
OBJECTS
  0
DICTIONARY
  5
C
330
0
100
AcDbDictionary
281
     1
  3
ACAD_GROUP
350
D
  3
ACAD_LAYOUT
350
1A
  3
ACAD_MLINESTYLE
350
17
  3
ACAD_PLOTSETTINGS
350
19
  3
ACAD_PLOTSTYLENAME
350
E
  3
ACAD_SCALELIST
350
47
  0
DICTIONARY
  5
D
102
{ACAD_REACTORS
330
C
102
}
330
C
100
AcDbDictionary
281
     1
  0
DICTIONARY
  5
1A
102
{ACAD_REACTORS
330
C
102
}
330
C
100
AcDbDictionary
281
     1
  3
Layout1
350
1E
  3
Layout2
350
26
  3
Model
350
22
  0
DICTIONARY
  5
17
102
{ACAD_REACTORS
330
C
102
}
330
C
100
AcDbDictionary
281
     1
  3
Standard
350
18
  0
DICTIONARY
  5
19
102
{ACAD_REACTORS
330
C
102
}
330
C
100
AcDbDictionary
281
     1
  0
ACDBDICTIONARYWDFLT
  5
E
102
{ACAD_REACTORS
330
C
102
}
330
C
100
AcDbDictionary
281
     1
  3
Normal
350
F
100
AcDbDictionaryWithDefault
340
F
  0
DICTIONARY
  5
47
102
{ACAD_REACTORS
330
C
102
}
330
C
100
AcDbDictionary
281
     1
  3
A0
350
48
  3
A1
350
49
  3
A2
350
4A
  3
A3
350
4B
  3
A4
350
4C
  3
A5
350
4D
  3
A6
350
4E
  3
A7
350
4F
  3
A8
350
50
  3
A9
350
51
  3
B0
350
52
  3
B1
350
53
  3
B2
350
54
  3
B3
350
55
  3
B4
350
56
  3
B5
350
57
  3
B6
350
58
  3
B7
350
59
  3
B8
350
5A
  3
B9
350
5B
  3
C0
350
5C
  3
C1
350
5D
  3
C2
350
5E
  3
C3
350
5F
  3
C4
350
60
  3
C5
350
61
  3
C6
350
62
  3
C7
350
63
  3
C8
350
64
  3
C9
350
65
  3
D0
350
66
  3
D1
350
67
  3
D2
350
68
  0
LAYOUT
  5
1E
102
{ACAD_REACTORS
330
1A
102
}
330
1A
100
AcDbPlotSettings
  1

  2
none_device
  4

  6

 40
0.0
 41
0.0
 42
0.0
 43
0.0
 44
0.0
 45
0.0
 46
0.0
 47
0.0
 48
0.0
 49
0.0
140
0.0
141
0.0
142
1.0
143
1.0
 70
   688
 72
     1
 73
     0
 74
     5
  7

 75
    16
147
1.0
148
0.0
149
0.0
100
AcDbLayout
  1
Layout1
 70
     1
 71
     1
 10
0.0
 20
0.0
 11
420.0
 21
297.0
 12
0.0
 22
0.0
 32
0.0
 14
1.0000000000E+20
 24
1.0000000000E+20
 34
1.0000000000E+20
 15
-1.0000000000E+20
 25
-1.0000000000E+20
 35
-1.0000000000E+20
146
0.0
 13
0.0
 23
0.0
 33
0.0
 16
1.0
 26
0.0
 36
0.0
 17
0.0
 27
1.0
 37
0.0
 76
     0
330
1B
  0
LAYOUT
  5
26
102
{ACAD_REACTORS
330
1A
102
}
330
1A
100
AcDbPlotSettings
  1

  2
none_device
  4

  6

 40
0.0
 41
0.0
 42
0.0
 43
0.0
 44
0.0
 45
0.0
 46
0.0
 47
0.0
 48
0.0
 49
0.0
140
0.0
141
0.0
142
1.0
143
1.0
 70
   688
 72
     1
 73
     0
 74
     5
  7

 75
    16
147
1.0
148
0.0
149
0.0
100
AcDbLayout
  1
Layout2
 70
     1
 71
     2
 10
0.0
 20
0.0
 11
0.0
 21
0.0
 12
0.0
 22
0.0
 32
0.0
 14
0.0
 24
0.0
 34
0.0
 15
0.0
 25
0.0
 35
0.0
146
0.0
 13
0.0
 23
0.0
 33
0.0
 16
1.0
 26
0.0
 36
0.0
 17
0.0
 27
1.0
 37
0.0
 76
     0
330
23
  0
LAYOUT
  5
22
102
{ACAD_REACTORS
330
1A
102
}
330
1A
100
AcDbPlotSettings
  1

  2
none_device
  4
ANSI_A_(11.00_x_8.50_Inches)
  6

 40
6.35
 41
19.05
 42
6.35000508
 43
19.05000254
 44
279.4
 45
215.9
 46
-2458.646933545
 47
1945.9301084265
 48
0.0
 49
0.0
140
0.0
141
0.0
142
0.0870622359
143
1.0
 70
  1696
 72
     0
 73
     0
 74
     0
  7

 75
     0
147
0.0179189148
148
-1300.4909072572
149
0.0
100
AcDbLayout
  1
Model
 70
     1
 71
     0
 10
0.0
 20
0.0
 11
420.0
 21
297.0
 12
0.0
 22
0.0
 32
0.0
 14
1109.575491789
 24
-881.6004638589
 34
0.0
 15
1234.658426789
 25
-797.9204178589
 35
0.0
146
0.0
 13
0.0
 23
0.0
 33
0.0
 16
1.0
 26
0.0
 36
0.0
 17
0.0
 27
1.0
 37
0.0
 76
     0
330
1F
331
29
  0
MLINESTYLE
  5
18
102
{ACAD_REACTORS
330
17
102
}
330
17
100
AcDbMlineStyle
  2
Standard
 70
     0
  3

 62
   256
 51
90.0
 52
90.0
 71
     2
 49
0.5
 62
   256
  6
BYLAYER
 49
-0.5
 62
   256
  6
BYLAYER
  0
ACDBPLACEHOLDER
  5
F
102
{ACAD_REACTORS
330
E
102
}
330
E
  0
SCALE
  5
48
102
{ACAD_REACTORS
330
47
102
}
330
47
100
AcDbScale
 70
     0
300
1:1
140
1.0
141
1.0
290
     1
  0
SCALE
  5
49
102
{ACAD_REACTORS
330
47
102
}
330
47
100
AcDbScale
 70
     0
300
1:2
140
1.0
141
2.0
290
     0
  0
SCALE
  5
4A
102
{ACAD_REACTORS
330
47
102
}
330
47
100
AcDbScale
 70
     0
300
1:4
140
1.0
141
4.0
290
     0
  0
SCALE
  5
4B
102
{ACAD_REACTORS
330
47
102
}
330
47
100
AcDbScale
 70
     0
300
1:5
140
1.0
141
5.0
290
     0
  0
SCALE
  5
4C
102
{ACAD_REACTORS
330
47
102
}
330
47
100
AcDbScale
 70
     0
300
1:8
140
1.0
141
8.0
290
     0
  0
SCALE
  5
4D
102
{ACAD_REACTORS
330
47
102
}
330
47
100
AcDbScale
 70
     0
300
1:10
140
1.0
141
10.0
290
     0
  0
SCALE
  5
4E
102
{ACAD_REACTORS
330
47
102
}
330
47
100
AcDbScale
 70
     0
300
1:16
140
1.0
141
16.0
290
     0
  0
SCALE
  5
4F
102
{ACAD_REACTORS
330
47
102
}
330
47
100
AcDbScale
 70
     0
300
1:20
140
1.0
141
20.0
290
     0
  0
SCALE
  5
50
102
{ACAD_REACTORS
330
47
102
}
330
47
100
AcDbScale
 70
     0
300
1:30
140
1.0
141
30.0
290
     0
  0
SCALE
  5
51
102
{ACAD_REACTORS
330
47
102
}
330
47
100
AcDbScale
 70
     0
300
1:40
140
1.0
141
40.0
290
     0
  0
SCALE
  5
52
102
{ACAD_REACTORS
330
47
102
}
330
47
100
AcDbScale
 70
     0
300
1:50
140
1.0
141
50.0
290
     0
  0
SCALE
  5
53
102
{ACAD_REACTORS
330
47
102
}
330
47
100
AcDbScale
 70
     0
300
1:100
140
1.0
141
100.0
290
     0
  0
SCALE
  5
54
102
{ACAD_REACTORS
330
47
102
}
330
47
100
AcDbScale
 70
     0
300
2:1
140
2.0
141
1.0
290
     0
  0
SCALE
  5
55
102
{ACAD_REACTORS
330
47
102
}
330
47
100
AcDbScale
 70
     0
300
4:1
140
4.0
141
1.0
290
     0
  0
SCALE
  5
56
102
{ACAD_REACTORS
330
47
102
}
330
47
100
AcDbScale
 70
     0
300
8:1
140
8.0
141
1.0
290
     0
  0
SCALE
  5
57
102
{ACAD_REACTORS
330
47
102
}
330
47
100
AcDbScale
 70
     0
300
10:1
140
10.0
141
1.0
290
     0
  0
SCALE
  5
58
102
{ACAD_REACTORS
330
47
102
}
330
47
100
AcDbScale
 70
     0
300
100:1
140
100.0
141
1.0
290
     0
  0
SCALE
  5
59
102
{ACAD_REACTORS
330
47
102
}
330
47
100
AcDbScale
 70
     0
300
1/128" = 1'-0"
140
0.0078125
141
12.0
290
     0
  0
SCALE
  5
5A
102
{ACAD_REACTORS
330
47
102
}
330
47
100
AcDbScale
 70
     0
300
1/64" = 1'-0"
140
0.015625
141
12.0
290
     0
  0
SCALE
  5
5B
102
{ACAD_REACTORS
330
47
102
}
330
47
100
AcDbScale
 70
     0
300
1/32" = 1'-0"
140
0.03125
141
12.0
290
     0
  0
SCALE
  5
5C
102
{ACAD_REACTORS
330
47
102
}
330
47
100
AcDbScale
 70
     0
300
1/16" = 1'-0"
140
0.0625
141
12.0
290
     0
  0
SCALE
  5
5D
102
{ACAD_REACTORS
330
47
102
}
330
47
100
AcDbScale
 70
     0
300
3/32" = 1'-0"
140
0.09375
141
12.0
290
     0
  0
SCALE
  5
5E
102
{ACAD_REACTORS
330
47
102
}
330
47
100
AcDbScale
 70
     0
300
1/8" = 1'-0"
140
0.125
141
12.0
290
     0
  0
SCALE
  5
5F
102
{ACAD_REACTORS
330
47
102
}
330
47
100
AcDbScale
 70
     0
300
3/16" = 1'-0"
140
0.1875
141
12.0
290
     0
  0
SCALE
  5
60
102
{ACAD_REACTORS
330
47
102
}
330
47
100
AcDbScale
 70
     0
300
1/4" = 1'-0"
140
0.25
141
12.0
290
     0
  0
SCALE
  5
61
102
{ACAD_REACTORS
330
47
102
}
330
47
100
AcDbScale
 70
     0
300
3/8" = 1'-0"
140
0.375
141
12.0
290
     0
  0
SCALE
  5
62
102
{ACAD_REACTORS
330
47
102
}
330
47
100
AcDbScale
 70
     0
300
1/2" = 1'-0"
140
0.5
141
12.0
290
     0
  0
SCALE
  5
63
102
{ACAD_REACTORS
330
47
102
}
330
47
100
AcDbScale
 70
     0
300
3/4" = 1'-0"
140
0.75
141
12.0
290
     0
  0
SCALE
  5
64
102
{ACAD_REACTORS
330
47
102
}
330
47
100
AcDbScale
 70
     0
300
1" = 1'-0"
140
1.0
141
12.0
290
     0
  0
SCALE
  5
65
102
{ACAD_REACTORS
330
47
102
}
330
47
100
AcDbScale
 70
     0
300
1-1/2" = 1'-0"
140
1.5
141
12.0
290
     0
  0
SCALE
  5
66
102
{ACAD_REACTORS
330
47
102
}
330
47
100
AcDbScale
 70
     0
300
3" = 1'-0"
140
3.0
141
12.0
290
     0
  0
SCALE
  5
67
102
{ACAD_REACTORS
330
47
102
}
330
47
100
AcDbScale
 70
     0
300
6" = 1'-0"
140
6.0
141
12.0
290
     0
  0
SCALE
  5
68
102
{ACAD_REACTORS
330
47
102
}
330
47
100
AcDbScale
 70
     0
300
1'-0" = 1'-0"
140
12.0
141
12.0
290
     0
  0
ENDSEC
  0
EOF
