  0
SECTION
  2
HEADER
  9
$ACADVER
  1
AC1015
  9
$ACADMAINTVER
 70
     6
  9
$DWGCODEPAGE
  3
ANSI_1251
  9
$INSBASE
 10
0.0
 20
0.0
 30
0.0
  9
$EXTMIN
 10
-5159.5077447089
 20
8997.6581917289
 30
0.0
  9
$EXTMAX
 10
-5082.6421377089
 20
9097.8543337289
 30
0.0
  9
$LIMMIN
 10
0.0
 20
0.0
  9
$LIMMAX
 10
420.0
 20
297.0
  9
$ORTHOMODE
 70
     0
  9
$REGENMODE
 70
     1
  9
$FILLMODE
 70
     1
  9
$QTEXTMODE
 70
     0
  9
$MIRRTEXT
 70
     1
  9
$LTSCALE
 40
1.0
  9
$ATTMODE
 70
     1
  9
$TEXTSIZE
 40
4.0
  9
$TRACEWID
 40
1.0
  9
$TEXTSTYLE
  7
Standard
  9
$CLAYER
  8
0
  9
$CELTYPE
  6
ByLayer
  9
$CECOLOR
 62
   256
  9
$CELTSCALE
 40
1.0
  9
$DISPSILH
 70
     0
  9
$DIMSCALE
 40
1.0
  9
$DIMASZ
 40
6.0
  9
$DIMEXO
 40
1.0
  9
$DIMDLI
 40
3.75
  9
$DIMRND
 40
0.0
  9
$DIMDLE
 40
0.0
  9
$DIMEXE
 40
1.0
  9
$DIMTP
 40
0.0
  9
$DIMTM
 40
0.0
  9
$DIMTXT
 40
4.0
  9
$DIMCEN
 40
2.5
  9
$DIMTSZ
 40
0.0
  9
$DIMTOL
 70
     0
  9
$DIMLIM
 70
     0
  9
$DIMTIH
 70
     1
  9
$DIMTOH
 70
     1
  9
$DIMSE1
 70
     0
  9
$DIMSE2
 70
     0
  9
$DIMTAD
 70
     1
  9
$DIMZIN
 70
     0
  9
$DIMBLK
  1

  9
$DIMASO
 70
     1
  9
$DIMSHO
 70
     1
  9
$DIMPOST
  1

  9
$DIMAPOST
  1

  9
$DIMALT
 70
     0
  9
$DIMALTD
 70
     3
  9
$DIMALTF
 40
0.0393700787
  9
$DIMLFAC
 40
1.0
  9
$DIMTOFL
 70
     1
  9
$DIMTVP
 40
0.0
  9
$DIMTIX
 70
     0
  9
$DIMSOXD
 70
     0
  9
$DIMSAH
 70
     0
  9
$DIMBLK1
  1

  9
$DIMBLK2
  1

  9
$DIMSTYLE
  2
ISO-25
  9
$DIMCLRD
 70
     0
  9
$DIMCLRE
 70
     0
  9
$DIMCLRT
 70
     0
  9
$DIMTFAC
 40
1.0
  9
$DIMGAP
 40
3.0
  9
$DIMJUST
 70
     0
  9
$DIMSD1
 70
     0
  9
$DIMSD2
 70
     0
  9
$DIMTOLJ
 70
     0
  9
$DIMTZIN
 70
     0
  9
$DIMALTZ
 70
     0
  9
$DIMALTTZ
 70
     0
  9
$DIMUPT
 70
     0
  9
$DIMDEC
 70
     2
  9
$DIMTDEC
 70
     4
  9
$DIMALTU
 70
     2
  9
$DIMALTTD
 70
     3
  9
$DIMTXSTY
  7
Standard
  9
$DIMAUNIT
 70
     0
  9
$DIMADEC
 70
     2
  9
$DIMALTRND
 40
0.0
  9
$DIMAZIN
 70
     0
  9
$DIMDSEP
 70
    44
  9
$DIMATFIT
 70
     3
  9
$DIMFRAC
 70
     0
  9
$DIMLDRBLK
  1

  9
$DIMLUNIT
 70
     2
  9
$DIMLWD
 70
    -2
  9
$DIMLWE
 70
    -2
  9
$DIMTMOVE
 70
     0
  9
$LUNITS
 70
     2
  9
$LUPREC
 70
     2
  9
$SKETCHINC
 40
1.0
  9
$FILLETRAD
 40
10.0
  9
$AUNITS
 70
     1
  9
$AUPREC
 70
     2
  9
$MENU
  1
.
  9
$ELEVATION
 40
0.0
  9
$PELEVATION
 40
0.0
  9
$THICKNESS
 40
0.0
  9
$LIMCHECK
 70
     0
  9
$CHAMFERA
 40
0.0
  9
$CHAMFERB
 40
0.0
  9
$CHAMFERC
 40
0.0
  9
$CHAMFERD
 40
0.0
  9
$SKPOLY
 70
     0
  9
$TDCREATE
 40
2460368.656117813
  9
$TDUCREATE
 40
2460368.572784479
  9
$TDUPDATE
 40
2460368.656145533
  9
$TDUUPDATE
 40
2460368.572812199
  9
$TDINDWG
 40
0.0000000116
  9
$TDUSRTIMER
 40
0.0000000116
  9
$USRTIMER
 70
     1
  9
$ANGBASE
 50
0.0
  9
$ANGDIR
 70
     0
  9
$PDMODE
 70
     0
  9
$PDSIZE
 40
-1.0
  9
$PLINEWID
 40
0.0
  9
$SPLFRAME
 70
     0
  9
$SPLINETYPE
 70
     6
  9
$SPLINESEGS
 70
     8
  9
$HANDSEED
  5
2E9
  9
$SURFTAB1
 70
     6
  9
$SURFTAB2
 70
     6
  9
$SURFTYPE
 70
     6
  9
$SURFU
 70
     6
  9
$SURFV
 70
     6
  9
$UCSBASE
  2

  9
$UCSNAME
  2

  9
$UCSORG
 10
0.0
 20
0.0
 30
0.0
  9
$UCSXDIR
 10
1.0
 20
0.0
 30
0.0
  9
$UCSYDIR
 10
0.0
 20
1.0
 30
0.0
  9
$UCSORTHOREF
  2

  9
$UCSORTHOVIEW
 70
     0
  9
$UCSORGTOP
 10
0.0
 20
0.0
 30
0.0
  9
$UCSORGBOTTOM
 10
0.0
 20
0.0
 30
0.0
  9
$UCSORGLEFT
 10
0.0
 20
0.0
 30
0.0
  9
$UCSORGRIGHT
 10
0.0
 20
0.0
 30
0.0
  9
$UCSORGFRONT
 10
0.0
 20
0.0
 30
0.0
  9
$UCSORGBACK
 10
0.0
 20
0.0
 30
0.0
  9
$PUCSBASE
  2

  9
$PUCSNAME
  2

  9
$PUCSORG
 10
0.0
 20
0.0
 30
0.0
  9
$PUCSXDIR
 10
1.0
 20
0.0
 30
0.0
  9
$PUCSYDIR
 10
0.0
 20
1.0
 30
0.0
  9
$PUCSORTHOREF
  2

  9
$PUCSORTHOVIEW
 70
     0
  9
$PUCSORGTOP
 10
0.0
 20
0.0
 30
0.0
  9
$PUCSORGBOTTOM
 10
0.0
 20
0.0
 30
0.0
  9
$PUCSORGLEFT
 10
0.0
 20
0.0
 30
0.0
  9
$PUCSORGRIGHT
 10
0.0
 20
0.0
 30
0.0
  9
$PUCSORGFRONT
 10
0.0
 20
0.0
 30
0.0
  9
$PUCSORGBACK
 10
0.0
 20
0.0
 30
0.0
  9
$USERI1
 70
     0
  9
$USERI2
 70
     0
  9
$USERI3
 70
     0
  9
$USERI4
 70
     0
  9
$USERI5
 70
     0
  9
$USERR1
 40
0.0
  9
$USERR2
 40
0.0
  9
$USERR3
 40
0.0
  9
$USERR4
 40
0.0
  9
$USERR5
 40
0.0
  9
$WORLDVIEW
 70
     1
  9
$SHADEDGE
 70
     3
  9
$SHADEDIF
 70
    70
  9
$TILEMODE
 70
     1
  9
$MAXACTVP
 70
    64
  9
$PINSBASE
 10
0.0
 20
0.0
 30
0.0
  9
$PLIMCHECK
 70
     0
  9
$PEXTMIN
 10
1.0000000000E+20
 20
1.0000000000E+20
 30
1.0000000000E+20
  9
$PEXTMAX
 10
-1.0000000000E+20
 20
-1.0000000000E+20
 30
-1.0000000000E+20
  9
$PLIMMIN
 10
0.0
 20
0.0
  9
$PLIMMAX
 10
420.0
 20
297.0
  9
$UNITMODE
 70
     0
  9
$VISRETAIN
 70
     1
  9
$PLINEGEN
 70
     0
  9
$PSLTSCALE
 70
     1
  9
$TREEDEPTH
 70
  3020
  9
$CMLSTYLE
  2
Standard
  9
$CMLJUST
 70
     0
  9
$CMLSCALE
 40
20.0
  9
$PROXYGRAPHICS
 70
     1
  9
$MEASUREMENT
 70
     1
  9
$CELWEIGHT
370
    -1
  9
$ENDCAPS
280
     0
  9
$JOINSTYLE
280
     0
  9
$LWDISPLAY
290
     1
  9
$INSUNITS
 70
     4
  9
$HYPERLINKBASE
  1

  9
$STYLESHEET
  1

  9
$XEDIT
290
     1
  9
$CEPSNTYPE
380
     0
  9
$PSTYLEMODE
290
     1
  9
$FINGERPRINTGUID
  2
{7a2e566a-47e9-4526-860e-5cd9dedee093}
  9
$VERSIONGUID
  2
{FAEB1C32-E019-11D5-929B-00C0DF256EC4}
  9
$EXTNAMES
290
     1
  9
$PSVPSCALE
 40
0.0
  9
$OLESTARTUP
290
     0
  0
ENDSEC
  0
SECTION
  2
CLASSES
  0
CLASS
  1
ACDBDICTIONARYWDFLT
  2
AcDbDictionaryWithDefault
  3
ObjectDBX Classes
 90
        0
280
     0
281
     0
  0
CLASS
  1
VISUALSTYLE
  2
AcDbVisualStyle
  3
ObjectDBX Classes
 90
     4095
280
     0
281
     0
  0
CLASS
  1
MATERIAL
  2
AcDbMaterial
  3
ObjectDBX Classes
 90
     1153
280
     0
281
     0
  0
CLASS
  1
SCALE
  2
AcDbScale
  3
ObjectDBX Classes
 90
     1153
280
     0
281
     0
  0
CLASS
  1
TABLESTYLE
  2
AcDbTableStyle
  3
ObjectDBX Classes
 90
     4095
280
     0
281
     0
  0
CLASS
  1
MLEADERSTYLE
  2
AcDbMLeaderStyle
  3
ACDB_MLEADERSTYLE_CLASS
 90
     4095
280
     0
281
     0
  0
CLASS
  1
SUN
  2
AcDbSun
  3
SCENEOE
 90
     1153
280
     0
281
     0
  0
CLASS
  1
ACDBPLACEHOLDER
  2
AcDbPlaceHolder
  3
ObjectDBX Classes
 90
        0
280
     0
281
     0
  0
CLASS
  1
LAYOUT
  2
AcDbLayout
  3
ObjectDBX Classes
 90
        0
280
     0
281
     0
  0
ENDSEC
  0
SECTION
  2
TABLES
  0
TABLE
  2
VPORT
  5
8
330
0
100
AcDbSymbolTable
 70
     1
  0
VPORT
  5
29
330
8
100
AcDbSymbolTableRecord
100
AcDbViewportTableRecord
  2
*Active
 70
     0
 10
0.0
 20
0.0
 11
1.0
 21
1.0
 12
-5121.0749412089
 22
9047.7562627289
 13
0.0
 23
0.0
 14
10.0
 24
10.0
 15
10.0
 25
10.0
 16
0.0
 26
0.0
 36
1.0
 17
0.0
 27
0.0
 37
0.0
 40
102.20006484
 41
0.767151364
 42
50.0
 43
0.0
 44
0.0
 50
0.0
 51
0.0
 71
     0
 72
   100
 73
     1
 74
     3
 75
     0
 76
     0
 77
     0
 78
     0
281
     0
 65
     1
110
0.0
120
0.0
130
0.0
111
1.0
121
0.0
131
0.0
112
0.0
122
1.0
132
0.0
 79
     0
146
0.0
  0
ENDTAB
  0
TABLE
  2
LTYPE
  5
5
330
0
100
AcDbSymbolTable
 70
     6
  0
LTYPE
  5
14
330
5
100
AcDbSymbolTableRecord
100
AcDbLinetypeTableRecord
  2
ByBlock
 70
     0
  3

 72
    65
 73
     0
 40
0.0
  0
LTYPE
  5
15
330
5
100
AcDbSymbolTableRecord
100
AcDbLinetypeTableRecord
  2
ByLayer
 70
     0
  3

 72
    65
 73
     0
 40
0.0
  0
LTYPE
  5
16
330
5
100
AcDbSymbolTableRecord
100
AcDbLinetypeTableRecord
  2
Continuous
 70
     0
  3
Solid line
 72
    65
 73
     0
 40
0.0
  0
LTYPE
  5
6E
330
5
100
AcDbSymbolTableRecord
100
AcDbLinetypeTableRecord
  2
HIDDEN
 70
     0
  3
Hidden __ __ __ __ __ __ __ __ __ __ __ __ __ __
 72
    65
 73
     2
 40
1.905
 49
1.27
 74
     0
 49
-0.635
 74
     0
  0
LTYPE
  5
6F
330
5
100
AcDbSymbolTableRecord
100
AcDbLinetypeTableRecord
  2
PHANTOM
 70
     0
  3
Phantom ______  __  __  ______  __  __  ______
 72
    65
 73
     6
 40
12.7
 49
6.35
 74
     0
 49
-1.27
 74
     0
 49
1.27
 74
     0
 49
-1.27
 74
     0
 49
1.27
 74
     0
 49
-1.27
 74
     0
  0
LTYPE
  5
70
330
5
100
AcDbSymbolTableRecord
100
AcDbLinetypeTableRecord
  2
CENTER
 70
     0
  3
Center ____ _ ____ _ ____ _ ____ _ ____ _ ____
 72
    65
 73
     4
 40
10.16
 49
6.35
 74
     0
 49
-1.27
 74
     0
 49
1.27
 74
     0
 49
-1.27
 74
     0
  0
LTYPE
  5
71
330
5
100
AcDbSymbolTableRecord
100
AcDbLinetypeTableRecord
  2
CENTERX2
 70
     0
  3
Center (2x) ________  __  ________  __  _____
 72
    65
 73
     4
 40
20.32
 49
12.7
 74
     0
 49
-2.54
 74
     0
 49
2.54
 74
     0
 49
-2.54
 74
     0
  0
LTYPE
  5
72
330
5
100
AcDbSymbolTableRecord
100
AcDbLinetypeTableRecord
  2
DOT2
 70
     0
  3
Dot (.5x) ........................................
 72
    65
 73
     2
 40
0.635
 49
0.0
 74
     0
 49
-0.635
 74
     0
  0
ENDTAB
  0
TABLE
  2
LAYER
  5
2
330
0
100
AcDbSymbolTable
 70
     1
  0
LAYER
  5
10
330
2
100
AcDbSymbolTableRecord
100
AcDbLayerTableRecord
  2
0
 70
     0
 62
     7
  6
Continuous
370
    -3
390
F
  0
ENDTAB
  0
TABLE
  2
STYLE
  5
3
330
0
100
AcDbSymbolTable
 70
     1
  0
STYLE
  5
11
330
3
100
AcDbSymbolTableRecord
100
AcDbTextStyleTableRecord
  2
Standard
 70
     0
 40
0.0
 41
1.0
 50
0.0
 71
     0
 42
4.0
  3
txt
  4

  0
ENDTAB
  0
TABLE
  2
VIEW
  5
6
330
0
100
AcDbSymbolTable
 70
     0
  0
ENDTAB
  0
TABLE
  2
UCS
  5
7
330
0
100
AcDbSymbolTable
 70
     0
  0
ENDTAB
  0
TABLE
  2
APPID
  5
9
330
0
100
AcDbSymbolTable
 70
     1
  0
APPID
  5
12
330
9
100
AcDbSymbolTableRecord
100
AcDbRegAppTableRecord
  2
ACAD
 70
     0
  0
ENDTAB
  0
TABLE
  2
DIMSTYLE
  5
A
330
0
100
AcDbSymbolTable
 70
     1
100
AcDbDimStyleTable
  0
DIMSTYLE
105
27
330
A
100
AcDbSymbolTableRecord
100
AcDbDimStyleTableRecord
  2
ISO-25
 70
     0
 41
2.5
 42
0.625
 43
3.75
 44
1.25
 73
     0
 74
     0
 77
     1
 78
     8
140
2.5
141
2.5
143
0.0393700787
147
0.625
171
     3
172
     1
178
     0
271
     2
272
     2
274
     3
278
    44
283
     0
284
     8
340
11
  0
ENDTAB
  0
TABLE
  2
BLOCK_RECORD
  5
1
330
0
100
AcDbSymbolTable
 70
     1
  0
BLOCK_RECORD
  5
1F
330
1
100
AcDbSymbolTableRecord
100
AcDbBlockTableRecord
  2
*Model_Space
340
22
  0
BLOCK_RECORD
  5
1B
330
1
100
AcDbSymbolTableRecord
100
AcDbBlockTableRecord
  2
*Paper_Space
340
1E
  0
BLOCK_RECORD
  5
23
330
1
100
AcDbSymbolTableRecord
100
AcDbBlockTableRecord
  2
*Paper_Space0
340
26
  0
ENDTAB
  0
ENDSEC
  0
SECTION
  2
BLOCKS
  0
BLOCK
  5
20
330
1F
100
AcDbEntity
  8
0
100
AcDbBlockBegin
  2
*Model_Space
 70
     0
 10
0.0
 20
0.0
 30
0.0
  3
*Model_Space
  1

  0
ENDBLK
  5
21
330
1F
100
AcDbEntity
  8
0
100
AcDbBlockEnd
  0
BLOCK
  5
1C
330
1B
100
AcDbEntity
 67
     1
  8
0
100
AcDbBlockBegin
  2
*Paper_Space
 70
     0
 10
0.0
 20
0.0
 30
0.0
  3
*Paper_Space
  1

  0
ENDBLK
  5
1D
330
1B
100
AcDbEntity
 67
     1
  8
0
100
AcDbBlockEnd
  0
BLOCK
  5
24
330
23
100
AcDbEntity
  8
0
100
AcDbBlockBegin
  2
*Paper_Space0
 70
     0
 10
0.0
 20
0.0
 30
0.0
  3
*Paper_Space0
  1

  0
ENDBLK
  5
25
330
23
100
AcDbEntity
  8
0
100
AcDbBlockEnd
  0
ENDSEC
  0
SECTION
  2
ENTITIES
  0
SPLINE
  5
74
330
1F
100
AcDbEntity
  8
0
  6
Continuous
 62
     7
370
    25
100
AcDbSpline
210
0.0
220
0.0
230
1.0
 70
     8
 71
     3
 72
    15
 73
    11
 74
     0
 42
0.000000001
 43
0.00000001
 40
0.0
 40
0.0
 40
0.0
 40
0.0
 40
0.1373554302530965
 40
0.2604035025253632
 40
0.3715837235508905
 40
0.4813661282243635
 40
0.5925463492499308
 40
0.7131382304871559
 40
0.8474619951862875
 40
1.0
 40
1.0
 40
1.0
 40
1.0
 10
-5122.754424114312
 20
9041.043277961448
 30
0.0
 10
-5122.753623248438
 20
9041.064256863569
 30
0.0
 10
-5122.752104937306
 20
9041.104029441773
 30
0.0
 10
-5122.738436262264
 20
9041.159626236724
 30
0.0
 10
-5122.714304403446
 20
9041.206675698893
 30
0.0
 10
-5122.681566736314
 20
9041.246138286777
 30
0.0
 10
-5122.637852631772
 20
9041.275533221235
 30
0.0
 10
-5122.585747487364
 20
9041.296713522373
 30
0.0
 10
-5122.524131214931
 20
9041.307455296645
 30
0.0
 10
-5122.480387450654
 20
9041.309365340892
 30
0.0
 10
-5122.457126817015
 20
9041.310381001987
 30
0.0
  0
SPLINE
  5
75
330
1F
100
AcDbEntity
  8
0
  6
Continuous
 62
     7
370
    25
100
AcDbSpline
210
0.0
220
0.0
230
1.0
 70
     8
 71
     3
 72
    15
 73
    11
 74
     0
 42
0.000000001
 43
0.00000001
 40
0.0
 40
0.0
 40
0.0
 40
0.0
 40
0.167568003901162
 40
0.3142936742424036
 40
0.4434068668691145
 40
0.5582581848719965
 40
0.6655816592803213
 40
0.7689358058595132
 40
0.8790069126387333
 40
1.0
 40
1.0
 40
1.0
 40
1.0
 10
-5122.457126817015
 20
9041.310381001987
 30
0.0
 10
-5122.428067970904
 20
9041.309363215303
 30
0.0
 10
-5122.373564657021
 20
9041.307454235613
 30
0.0
 10
-5122.297056885914
 20
9041.296860177637
 30
0.0
 10
-5122.232270295987
 20
9041.275928065159
 30
0.0
 10
-5122.177948355955
 20
9041.24710716299
 30
0.0
 10
-5122.136526719906
 20
9041.207768871427
 30
0.0
 10
-5122.105938054861
 20
9041.160637749079
 30
0.0
 10
-5122.088430700047
 20
9041.104457539679
 30
0.0
 10
-5122.086510616552
 20
9041.064303818439
 30
0.0
 10
-5122.085505195393
 20
9041.043277961448
 30
0.0
  0
SPLINE
  5
77
330
1F
100
AcDbEntity
  8
0
  6
Continuous
 62
     7
370
    25
100
AcDbSpline
210
0.0
220
0.0
230
1.0
 70
     8
 71
     3
 72
    23
 73
    19
 74
     0
 42
0.000000001
 43
0.00000001
 40
0.0
 40
0.0
 40
0.0
 40
0.0
 40
0.0333964054255393
 40
0.0706152794128651
 40
0.1118491904857368
 40
0.1568612779401291
 40
0.2056604075302364
 40
0.2582535298716268
 40
0.3149813657476729
 40
0.375514466432198
 40
0.4397603508376045
 40
0.508252671092344
 40
0.5804605573355338
 40
0.6565848896394157
 40
0.7364261993995963
 40
0.820427949887618
 40
0.9083548486788564
 40
1.0
 40
1.0
 40
1.0
 40
1.0
 10
-5122.085505195393
 20
9036.97402120469
 30
0.0
 10
-5122.072665155773
 20
9037.022114812762
 30
0.0
 10
-5122.045515437896
 20
9037.123806702317
 30
0.0
 10
-5121.995680887978
 20
9037.282914097925
 30
0.0
 10
-5121.939099539047
 20
9037.458002749456
 30
0.0
 10
-5121.873851149171
 20
9037.648412266806
 30
0.0
 10
-5121.800577964037
 20
9037.853939542543
 30
0.0
 10
-5121.719198725942
 20
9038.075105376982
 30
0.0
 10
-5121.628590017525
 20
9038.311486168262
 30
0.0
 10
-5121.529442168951
 20
9038.56317077795
 30
0.0
 10
-5121.424436914311
 20
9038.8314046556
 30
0.0
 10
-5121.307373014247
 20
9039.113536145309
 30
0.0
 10
-5121.185148290558
 20
9039.412680673384
 30
0.0
 10
-5121.05191334652
 20
9039.725562883566
 30
0.0
 10
-5120.912898947728
 20
9040.055077638142
 30
0.0
 10
-5120.764381005702
 20
9040.399669771594
 30
0.0
 10
-5120.606022990918
 20
9040.759158434435
 30
0.0
 10
-5120.498352250386
 20
9041.004172020033
 30
0.0
 10
-5120.443402154852
 20
9041.129215461446
 30
0.0
  0
SPLINE
  5
78
330
1F
100
AcDbEntity
  8
0
  6
Continuous
 62
     7
370
    25
100
AcDbSpline
210
0.0
220
0.0
230
1.0
 70
     8
 71
     3
 72
    11
 73
     7
 74
     0
 42
0.000000001
 43
0.00000001
 40
0.0
 40
0.0
 40
0.0
 40
0.0
 40
0.2670118619318578
 40
0.5105832502389737
 40
0.747732469301617
 40
0.9999999999999999
 40
0.9999999999999999
 40
0.9999999999999999
 40
0.9999999999999999
 10
-5120.443402154852
 20
9041.129215461446
 30
0.0
 10
-5120.426170565467
 20
9041.15662572586
 30
0.0
 10
-5120.393220115807
 20
9041.209039958669
 30
0.0
 10
-5120.323286064447
 20
9041.26833548239
 30
0.0
 10
-5120.240578097253
 20
9041.304158735958
 30
0.0
 10
-5120.181303128114
 20
9041.308264635592
 30
0.0
 10
-5120.150750127826
 20
9041.310381001987
 30
0.0
  0
SPLINE
  5
79
330
1F
100
AcDbEntity
  8
0
  6
Continuous
 62
     7
370
    25
100
AcDbSpline
210
0.0
220
0.0
230
1.0
 70
     8
 71
     3
 72
    15
 73
    11
 74
     0
 42
0.000000001
 43
0.00000001
 40
0.0
 40
0.0
 40
0.0
 40
0.0
 40
0.1624566800598665
 40
0.3033020102420027
 40
0.4291664366097336
 40
0.5438062297013915
 40
0.6493516081969176
 40
0.7569385026546378
 40
0.8719246710993233
 40
1.0
 40
1.0
 40
1.0
 40
1.0
 10
-5120.150750127826
 20
9041.310381001987
 30
0.0
 10
-5120.12163227466
 20
9041.309694030044
 30
0.0
 10
-5120.067270069329
 20
9041.308411472924
 30
0.0
 10
-5119.991605003038
 20
9041.293850560623
 30
0.0
 10
-5119.926232688545
 20
9041.273004052027
 30
0.0
 10
-5119.872932208424
 20
9041.240135982622
 30
0.0
 10
-5119.831583617156
 20
9041.197723375346
 30
0.0
 10
-5119.801926111193
 20
9041.146378840052
 30
0.0
 10
-5119.784274192319
 20
9041.085430577488
 30
0.0
 10
-5119.782425345884
 20
9041.041852629538
 30
0.0
 10
-5119.781451141339
 20
9041.018890292527
 30
0.0
  0
SPLINE
  5
7B
330
1F
100
AcDbEntity
  8
0
  6
Continuous
 62
     7
370
    25
100
AcDbSpline
210
0.0
220
0.0
230
1.0
 70
     8
 71
     3
 72
    15
 73
    11
 74
     0
 42
0.000000001
 43
0.00000001
 40
0.0
 40
0.0
 40
0.0
 40
0.0
 40
0.1192175102583433
 40
0.2297017703973217
 40
0.3334438581369674
 40
0.4396463856239923
 40
0.5549287995729338
 40
0.6845266202812582
 40
0.8318030273727884
 40
1.0
 40
1.0
 40
1.0
 40
1.0
 10
-5119.781451141339
 20
9036.075161407392
 30
0.0
 10
-5119.782485097999
 20
9036.054520543563
 30
0.0
 10
-5119.784477269071
 20
9036.014750857432
 30
0.0
 10
-5119.801944864432
 20
9035.95902846318
 30
0.0
 10
-5119.832111334834
 20
9035.911823636814
 30
0.0
 10
-5119.874344179243
 20
9035.873759290022
 30
0.0
 10
-5119.928148654303
 20
9035.844761992605
 30
0.0
 10
-5119.993024535524
 20
9035.823924929626
 30
0.0
 10
-5120.069503940519
 20
9035.813300676265
 30
0.0
 10
-5120.124011599974
 20
9035.811396322386
 30
0.0
 10
-5120.153072762961
 20
9035.810381001987
 30
0.0
  0
SPLINE
  5
7C
330
1F
100
AcDbEntity
  8
0
  6
Continuous
 62
     7
370
    25
100
AcDbSpline
210
0.0
220
0.0
230
1.0
 70
     8
 71
     3
 72
    15
 73
    11
 74
     0
 42
0.000000001
 43
0.00000001
 40
0.0
 40
0.0
 40
0.0
 40
0.0
 40
0.1535989970092582
 40
0.2888570630726576
 40
0.4102877322893594
 40
0.5222412776215465
 40
0.6308521699903141
 40
0.7428057153224166
 40
0.8642363845390854
 40
1.0
 40
1.0
 40
1.0
 40
1.0
 10
-5120.153072762961
 20
9035.810381001987
 30
0.0
 10
-5120.176335321665
 20
9035.811395057463
 30
0.0
 10
-5120.220082706202
 20
9035.813302082202
 30
0.0
 10
-5120.281675109891
 20
9035.824063764421
 30
0.0
 10
-5120.333857743645
 20
9035.845179434844
 30
0.0
 10
-5120.377066734192
 20
9035.874625132486
 30
0.0
 10
-5120.410632599213
 20
9035.912987059646
 30
0.0
 10
-5120.43407629206
 20
9035.959711906924
 30
0.0
 10
-5120.448124385262
 20
9036.01435700987
 30
0.0
 10
-5120.449594198629
 20
9036.0533939125
 30
0.0
 10
-5120.450370060258
 20
9036.074000089824
 30
0.0
  0
SPLINE
  5
7E
330
1F
100
AcDbEntity
  8
0
  6
Continuous
 62
     7
370
    25
100
AcDbSpline
210
0.0
220
0.0
230
1.0
 70
     8
 71
     3
 72
    23
 73
    19
 74
     0
 42
0.000000001
 43
0.00000001
 40
0.0
 40
0.0
 40
0.0
 40
0.0
 40
0.033426202035347
 40
0.0709252559820527
 40
0.1118634144878429
 40
0.1569064398987449
 40
0.2059791538484591
 40
0.2585999398510793
 40
0.315260269714946
 40
0.3757213361297132
 40
0.4399866657894034
 40
0.5083974803188862
 40
0.5806187561822755
 40
0.6566525006816996
 40
0.7367390392849433
 40
0.8206408278564918
 40
0.9083591900053885
 40
1.0
 40
1.0
 40
1.0
 40
1.0
 10
-5120.450370060258
 20
9040.07241647496
 30
0.0
 10
-5120.463621964353
 20
9040.024327667086
 30
0.0
 10
-5120.491740465201
 20
9039.922290618284
 30
0.0
 10
-5120.542411686454
 20
9039.763225504468
 30
0.0
 10
-5120.599026703999
 20
9039.587886298397
 30
0.0
 10
-5120.665886613131
 20
9039.397765382795
 30
0.0
 10
-5120.739624816779
 20
9039.191602783105
 30
0.0
 10
-5120.822778466631
 20
9038.970423769597
 30
0.0
 10
-5120.913072009874
 20
9038.733785245251
 30
0.0
 10
-5121.011961301087
 20
9038.481839650942
 30
0.0
 10
-5121.118824186019
 20
9038.214193657792
 30
0.0
 10
-5121.23506292328
 20
9037.9314127503
 30
0.0
 10
-5121.359259598125
 20
9037.63292312524
 30
0.0
 10
-5121.4919978056
 20
9037.31912391359
 30
0.0
 10
-5121.632222370603
 20
9036.989568478437
 30
0.0
 10
-5121.781044766141
 20
9036.644729359727
 30
0.0
 10
-5121.937527589454
 20
9036.284417204535
 30
0.0
 10
-5122.046225907696
 20
9036.03985492023
 30
0.0
 10
-5122.101763641339
 20
9035.914899583067
 30
0.0
  0
SPLINE
  5
7F
330
1F
100
AcDbEntity
  8
0
  6
Continuous
 62
     7
370
    25
100
AcDbSpline
210
0.0
220
0.0
230
1.0
 70
     8
 71
     3
 72
    11
 73
     7
 74
     0
 42
0.000000001
 43
0.00000001
 40
0.0
 40
0.0
 40
0.0
 40
0.0
 40
0.232809054761687
 40
0.462943003560449
 40
0.7138780282479614
 40
1.0
 40
1.0
 40
1.0
 40
1.0
 10
-5122.101763641339
 20
9035.914899583067
 30
0.0
 10
-5122.119923578451
 20
9035.887504146582
 30
0.0
 10
-5122.156034784863
 20
9035.83302806246
 30
0.0
 10
-5122.240666996145
 20
9035.775718649626
 30
0.0
 10
-5122.343880688989
 20
9035.741721913522
 30
0.0
 10
-5122.419279861251
 20
9035.738025810157
 30
0.0
 10
-5122.45944945215
 20
9035.736056677662
 30
0.0
  0
SPLINE
  5
80
330
1F
100
AcDbEntity
  8
0
  6
Continuous
 62
     7
370
    25
100
AcDbSpline
210
0.0
220
0.0
230
1.0
 70
     8
 71
     3
 72
    15
 73
    11
 74
     0
 42
0.000000001
 43
0.00000001
 40
0.0
 40
0.0
 40
0.0
 40
0.0
 40
0.1464537970123363
 40
0.2740558316442768
 40
0.3917684023119356
 40
0.4994269965368882
 40
0.6105024493604783
 40
0.7260022282036026
 40
0.8559762080598654
 40
1.0
 40
1.0
 40
1.0
 40
1.0
 10
-5122.45944945215
 20
9035.736056677662
 30
0.0
 10
-5122.48276347082
 20
9035.736785546054
 30
0.0
 10
-5122.526390491121
 20
9035.738149461755
 30
0.0
 10
-5122.58743969062
 20
9035.752406613923
 30
0.0
 10
-5122.639119349418
 20
9035.77520328127
 30
0.0
 10
-5122.682153484117
 20
9035.807940065655
 30
0.0
 10
-5122.714707272368
 20
9035.85063004851
 30
0.0
 10
-5122.738567351954
 20
9035.902470330175
 30
0.0
 10
-5122.752048828594
 20
9035.96338644417
 30
0.0
 10
-5122.753605741085
 20
9036.006963986185
 30
0.0
 10
-5122.754424114312
 20
9036.029870022257
 30
0.0
  0
SPLINE
  5
82
330
1F
100
AcDbEntity
  8
0
  6
Continuous
 62
     7
370
    25
100
AcDbSpline
210
0.0
220
0.0
230
1.0
 70
     8
 71
     3
 72
    15
 73
    11
 74
     0
 42
0.000000001
 43
0.00000001
 40
0.0
 40
0.0
 40
0.0
 40
0.0
 40
0.1374180339176245
 40
0.2605221888670759
 40
0.371753083457231
 40
0.4796629016280723
 40
0.5923606405990774
 40
0.7130074850340788
 40
0.8473924716293944
 40
1.0
 40
1.0
 40
1.0
 40
1.0
 10
-5118.171400465662
 20
9040.641462083067
 30
0.0
 10
-5118.192387782999
 20
9040.64225415934
 30
0.0
 10
-5118.232176315076
 20
9040.643755806817
 30
0.0
 10
-5118.287666396787
 20
9040.657535942712
 30
0.0
 10
-5118.33480859489
 20
9040.681161606326
 30
0.0
 10
-5118.372987430391
 20
9040.715110827312
 30
0.0
 10
-5118.403912942471
 20
9040.757557913408
 30
0.0
 10
-5118.424730650475
 20
9040.81022096
 30
0.0
 10
-5118.435609691456
 20
9040.87173009065
 30
0.0
 10
-5118.437498915956
 20
9040.915490105517
 30
0.0
 10
-5118.438503506204
 20
9040.938759380366
 30
0.0
  0
SPLINE
  5
83
330
1F
100
AcDbEntity
  8
0
  6
Continuous
 62
     7
370
    25
100
AcDbSpline
210
0.0
220
0.0
230
1.0
 70
     8
 71
     3
 72
    15
 73
    11
 74
     0
 42
0.000000001
 43
0.00000001
 40
0.0
 40
0.0
 40
0.0
 40
0.0
 40
0.1526075283707744
 40
0.2869925149660679
 40
0.4076393594010495
 40
0.5203370983718786
 40
0.6282469165428302
 40
0.739477811132967
 40
0.8625819660823981
 40
1.0
 40
1.0
 40
1.0
 40
1.0
 10
-5118.438503506204
 20
9040.938759380366
 30
0.0
 10
-5118.437498915956
 20
9040.962028655214
 30
0.0
 10
-5118.435609691456
 20
9041.00578867008
 30
0.0
 10
-5118.424730650475
 20
9041.06729780073
 30
0.0
 10
-5118.403912942471
 20
9041.119960847322
 30
0.0
 10
-5118.372987430391
 20
9041.162407933418
 30
0.0
 10
-5118.33480859489
 20
9041.196357154406
 30
0.0
 10
-5118.287666396787
 20
9041.219982818018
 30
0.0
 10
-5118.232176315076
 20
9041.233762953914
 30
0.0
 10
-5118.192387782999
 20
9041.23526460139
 30
0.0
 10
-5118.171400465662
 20
9041.236056677662
 30
0.0
  0
SPLINE
  5
85
330
1F
100
AcDbEntity
  8
0
  6
Continuous
 62
     7
370
    25
100
AcDbSpline
210
0.0
220
0.0
230
1.0
 70
     8
 71
     3
 72
    15
 73
    11
 74
     0
 42
0.000000001
 43
0.00000001
 40
0.0
 40
0.0
 40
0.0
 40
0.0
 40
0.1551848740353312
 40
0.2903690234713007
 40
0.4133689253837456
 40
0.524844630790504
 40
0.6329919503392694
 40
0.7444676557459967
 40
0.8648158505639364
 40
1.0
 40
1.0
 40
1.0
 40
1.0
 10
-5115.797667357555
 20
9041.236056677662
 30
0.0
 10
-5115.770877929012
 20
9041.235329175897
 30
0.0
 10
-5115.720751779451
 20
9041.233967935132
 30
0.0
 10
-5115.65057536497
 20
9041.219755334709
 30
0.0
 10
-5115.590492354816
 20
9041.197327417349
 30
0.0
 10
-5115.541028618582
 20
9041.163907204653
 30
0.0
 10
-5115.502763127603
 20
9041.120784491048
 30
0.0
 10
-5115.475394469653
 20
9041.068251380453
 30
0.0
 10
-5115.460886373502
 20
9041.006094512268
 30
0.0
 10
-5115.458607108626
 20
9040.962056688466
 30
0.0
 10
-5115.457401310258
 20
9040.938759380366
 30
0.0
  0
SPLINE
  5
86
330
1F
100
AcDbEntity
  8
0
  6
Continuous
 62
     7
370
    25
100
AcDbSpline
210
0.0
220
0.0
230
1.0
 70
     8
 71
     3
 72
    15
 73
    11
 74
     0
 42
0.000000001
 43
0.00000001
 40
0.0
 40
0.0
 40
0.0
 40
0.0
 40
0.1351841494359114
 40
0.255532344253868
 40
0.3670080496606108
 40
0.4751553692095196
 40
0.5866310746161967
 40
0.7096309765286588
 40
0.8448151259646473
 40
1.0
 40
1.0
 40
1.0
 40
1.0
 10
-5115.457401310258
 20
9040.938759380366
 30
0.0
 10
-5115.458607108626
 20
9040.915462072266
 30
0.0
 10
-5115.460886373502
 20
9040.871424248464
 30
0.0
 10
-5115.475394469653
 20
9040.809267380277
 30
0.0
 10
-5115.502763127603
 20
9040.756734269684
 30
0.0
 10
-5115.541028618581
 20
9040.713611556079
 30
0.0
 10
-5115.590492354816
 20
9040.680191343383
 30
0.0
 10
-5115.65057536497
 20
9040.657763426023
 30
0.0
 10
-5115.720751779451
 20
9040.643550825602
 30
0.0
 10
-5115.770877929012
 20
9040.642189584833
 30
0.0
 10
-5115.797667357555
 20
9040.641462083067
 30
0.0
  0
SPLINE
  5
89
330
1F
100
AcDbEntity
  8
0
  6
Continuous
 62
     7
370
    25
100
AcDbSpline
210
0.0
220
0.0
230
1.0
 70
     8
 71
     3
 72
    15
 73
    11
 74
     0
 42
0.000000001
 43
0.00000001
 40
0.0
 40
0.0
 40
0.0
 40
0.0
 40
0.1196517683247759
 40
0.2283994244659908
 40
0.3325193999703355
 40
0.437605258639735
 40
0.5533075967934132
 40
0.6833774865705757
 40
0.8311903582105724
 40
1.0
 40
1.0
 40
1.0
 40
1.0
 10
-5116.615234925122
 20
9035.998514447932
 30
0.0
 10
-5116.616209047832
 20
9035.977850761354
 30
0.0
 10
-5116.61806851944
 20
9035.938406512527
 30
0.0
 10
-5116.636076040099
 20
9035.883321550498
 30
0.0
 10
-5116.665511479259
 20
9035.836310181983
 30
0.0
 10
-5116.708583147517
 20
9035.79955416869
 30
0.0
 10
-5116.761861159238
 20
9035.770360913466
 30
0.0
 10
-5116.826831208293
 20
9035.749625252722
 30
0.0
 10
-5116.903280697993
 20
9035.738968785838
 30
0.0
 10
-5116.957792940351
 20
9035.737069366938
 30
0.0
 10
-5116.986856546744
 20
9035.736056677662
 30
0.0
  0
SPLINE
  5
8A
330
1F
100
AcDbEntity
  8
0
  6
Continuous
 62
     7
370
    25
100
AcDbSpline
210
0.0
220
0.0
230
1.0
 70
     8
 71
     3
 72
    15
 73
    11
 74
     0
 42
0.000000001
 43
0.00000001
 40
0.0
 40
0.0
 40
0.0
 40
0.0
 40
0.1538927873091693
 40
0.2894095627950432
 40
0.4110724936372003
 40
0.5232401736076315
 40
0.6301460973349027
 40
0.7423137773054233
 40
0.863976708147638
 40
1.0
 40
1.0
 40
1.0
 40
1.0
 10
-5116.986856546744
 20
9035.736056677662
 30
0.0
 10
-5117.010121057695
 20
9035.737069019302
 30
0.0
 10
-5117.053872113612
 20
9035.738972821006
 30
0.0
 10
-5117.115440311522
 20
9035.749755753
 30
0.0
 10
-5117.167701528804
 20
9035.7708024365
 30
0.0
 10
-5117.210407971387
 20
9035.800313198777
 30
0.0
 10
-5117.244784328246
 20
9035.83755424503
 30
0.0
 10
-5117.267789711328
 20
9035.884287997744
 30
0.0
 10
-5117.28192886746
 20
9035.938853208696
 30
0.0
 10
-5117.283385133538
 20
9035.977901996728
 30
0.0
 10
-5117.284153844042
 20
9035.998514447932
 30
0.0
  0
SPLINE
  5
8C
330
1F
100
AcDbEntity
  8
0
  6
Continuous
 62
     7
370
    25
100
AcDbSpline
210
0.0
220
0.0
230
1.0
 70
     8
 71
     3
 72
    15
 73
    11
 74
     0
 42
0.000000001
 43
0.00000001
 40
0.0
 40
0.0
 40
0.0
 40
0.0
 40
0.1276094144621069
 40
0.2499167177708365
 40
0.3720143427043151
 40
0.5005763638076355
 40
0.6284293671556549
 40
0.7514974778095899
 40
0.8734901284089505
 40
0.9999999999999999
 40
0.9999999999999999
 40
0.9999999999999999
 40
0.9999999999999999
 10
-5111.739559249447
 20
9039.97254316415
 30
0.0
 10
-5111.741954623386
 20
9040.017340719085
 30
0.0
 10
-5111.746645844602
 20
9040.10507451162
 30
0.0
 10
-5111.785535158171
 20
9040.23086851315
 30
0.0
 10
-5111.848525781282
 20
9040.346350847814
 30
0.0
 10
-5111.93543914466
 20
9040.447594276118
 30
0.0
 10
-5112.037544237559
 20
9040.533881709825
 30
0.0
 10
-5112.153166477241
 20
9040.596735272331
 30
0.0
 10
-5112.279260222693
 20
9040.633932639208
 30
0.0
 10
-5112.3664257848
 20
9040.638922036414
 30
0.0
 10
-5112.410800803502
 20
9040.641462083067
 30
0.0
  0
SPLINE
  5
8E
330
1F
100
AcDbEntity
  8
0
  6
Continuous
 62
     7
370
    25
100
AcDbSpline
210
0.0
220
0.0
230
1.0
 70
     8
 71
     3
 72
    15
 73
    11
 74
     0
 42
0.000000001
 43
0.00000001
 40
0.0
 40
0.0
 40
0.0
 40
0.0
 40
0.1097146503989896
 40
0.2209919735938352
 40
0.3382709755251455
 40
0.4647338986157531
 40
0.5948009642718273
 40
0.7238485466785318
 40
0.8575872448702945
 40
1.0
 40
1.0
 40
1.0
 40
1.0
 10
-5112.781261107555
 20
9040.641462083067
 30
0.0
 10
-5112.817527074691
 20
9040.639191418657
 30
0.0
 10
-5112.890575547457
 20
9040.634617748616
 30
0.0
 10
-5112.997450904405
 20
9040.597800118907
 30
0.0
 10
-5113.098003001441
 20
9040.536591727778
 30
0.0
 10
-5113.192308874171
 20
9040.456292350127
 30
0.0
 10
-5113.274022675459
 20
9040.35752914643
 30
0.0
 10
-5113.332831335939
 20
9040.240948731895
 30
0.0
 10
-5113.368632062252
 20
9040.110900726451
 30
0.0
 10
-5113.372631733242
 20
9040.019618096125
 30
0.0
 10
-5113.374694384582
 20
9039.97254316415
 30
0.0
  0
SPLINE
  5
90
330
1F
100
AcDbEntity
  8
0
  6
Continuous
 62
     7
370
    25
100
AcDbSpline
210
0.0
220
0.0
230
1.0
 70
     8
 71
     3
 72
    15
 73
    11
 74
     0
 42
0.000000001
 43
0.00000001
 40
0.0
 40
0.0
 40
0.0
 40
0.0
 40
0.1435037183831097
 40
0.2760390562758808
 40
0.4060618464747999
 40
0.5360582087399748
 40
0.6624523876220433
 40
0.7790740198611519
 40
0.889179309388182
 40
1.0
 40
1.0
 40
1.0
 40
1.0
 10
-5113.374694384582
 20
9036.999570191176
 30
0.0
 10
-5113.372727071178
 20
9036.952082779306
 30
0.0
 10
-5113.368942811498
 20
9036.86073754794
 30
0.0
 10
-5113.332289933513
 20
9036.730619578788
 30
0.0
 10
-5113.27443341888
 20
9036.613580696121
 30
0.0
 10
-5113.192201415198
 20
9036.514791258584
 30
0.0
 10
-5113.098382911517
 20
9036.434095410299
 30
0.0
 10
-5112.997376863803
 20
9036.374830576475
 30
0.0
 10
-5112.89108659772
 20
9036.337125961461
 30
0.0
 10
-5112.817948549328
 20
9036.332814156145
 30
0.0
 10
-5112.781261107555
 20
9036.330651272257
 30
0.0
  0
SPLINE
  5
92
330
1F
100
AcDbEntity
  8
0
  6
Continuous
 62
     7
370
    25
100
AcDbSpline
210
0.0
220
0.0
230
1.0
 70
     8
 71
     3
 72
    15
 73
    11
 74
     0
 42
0.000000001
 43
0.00000001
 40
0.0
 40
0.0
 40
0.0
 40
0.0
 40
0.1274982018433448
 40
0.2493845348782838
 40
0.3723453906958135
 40
0.499384207042465
 40
0.6271257854820996
 40
0.7506154651216758
 40
0.8725017981566552
 40
1.0
 40
1.0
 40
1.0
 40
1.0
 10
-5112.410800803502
 20
9036.330651272257
 30
0.0
 10
-5112.366041052301
 20
9036.333166295748
 30
0.0
 10
-5112.278491662797
 20
9036.338085643272
 30
0.0
 10
-5112.151932407439
 20
9036.375302293009
 30
0.0
 10
-5112.036880257461
 20
9036.438409541608
 30
0.0
 10
-5111.933749187357
 20
9036.522865458475
 30
0.0
 10
-5111.848640604984
 20
9036.625619075037
 30
0.0
 10
-5111.784003183606
 20
9036.740391279674
 30
0.0
 10
-5111.747061736657
 20
9036.867295317621
 30
0.0
 10
-5111.742097316424
 20
9036.95482203244
 30
0.0
 10
-5111.739559249447
 20
9036.999570191176
 30
0.0
  0
SPLINE
  5
94
330
1F
100
AcDbEntity
  8
0
  6
Continuous
 62
     7
370
    25
100
AcDbSpline
210
0.0
220
0.0
230
1.0
 70
     8
 71
     3
 72
    23
 73
    19
 74
     0
 42
0.000000001
 43
0.00000001
 40
0.0
 40
0.0
 40
0.0
 40
0.0
 40
0.05969846776989
 40
0.1182376316334097
 40
0.1758156760585499
 40
0.234088014593998
 40
0.2926014098287057
 40
0.3524988403494319
 40
0.4143425792735314
 40
0.4790413569464316
 40
0.5438488242948591
 40
0.6077816006315272
 40
0.6708302096468911
 40
0.7340778404193581
 40
0.7981519974078953
 40
0.8633307390899762
 40
0.930469913844034
 40
1.0
 40
1.0
 40
1.0
 40
1.0
 10
-5111.070640330528
 20
9036.956601441176
 30
0.0
 10
-5111.071768756966
 20
9036.916674399188
 30
0.0
 10
-5111.074003696563
 20
9036.83759567139
 30
0.0
 10
-5111.091450311229
 20
9036.720972929137
 30
0.0
 10
-5111.122470491907
 20
9036.608360528437
 30
0.0
 10
-5111.163929377306
 20
9036.499168497234
 30
0.0
 10
-5111.218070512011
 20
9036.393896811423
 30
0.0
 10
-5111.283545871086
 20
9036.292504332208
 30
0.0
 10
-5111.360655598884
 20
9036.194283625971
 30
0.0
 10
-5111.449260555542
 20
9036.101782674803
 30
0.0
 10
-5111.545900471686
 20
9036.015440408532
 30
0.0
 10
-5111.65114786728
 20
9035.941860004916
 30
0.0
 10
-5111.760428789552
 20
9035.876267677984
 30
0.0
 10
-5111.877713250199
 20
9035.826125181833
 30
0.0
 10
-5111.999692149535
 20
9035.784354023403
 30
0.0
 10
-5112.128478395208
 20
9035.757572696566
 30
0.0
 10
-5112.262392109948
 20
9035.739119214384
 30
0.0
 10
-5112.353830123725
 20
9035.73708936009
 30
0.0
 10
-5112.400348945393
 20
9035.736056677662
 30
0.0
  0
SPLINE
  5
96
330
1F
100
AcDbEntity
  8
0
  6
Continuous
 62
     7
370
    25
100
AcDbSpline
210
0.0
220
0.0
230
1.0
 70
     8
 71
     3
 72
    23
 73
    19
 74
     0
 42
0.000000001
 43
0.00000001
 40
0.0
 40
0.0
 40
0.0
 40
0.0
 40
0.0651968273752574
 40
0.1284903554511312
 40
0.1911004981255701
 40
0.2525160380295052
 40
0.3137365289174566
 40
0.375629792652866
 40
0.4384931710491552
 40
0.5032476829196756
 40
0.5679249615742323
 40
0.6305493581231065
 40
0.692049130403982
 40
0.7524447192727337
 40
0.8129377656964781
 40
0.8738044202088507
 40
0.9359969093509922
 40
1.0
 40
1.0
 40
1.0
 40
1.0
 10
-5112.79287428323
 20
9035.736056677662
 30
0.0
 10
-5112.835121407336
 20
9035.7372311695
 30
0.0
 10
-5112.918382329864
 20
9035.739545866089
 30
0.0
 10
-5113.04130290482
 20
9035.75617729967
 30
0.0
 10
-5113.159752953105
 20
9035.78357647827
 30
0.0
 10
-5113.273037249547
 20
9035.823813493464
 30
0.0
 10
-5113.381934832182
 20
9035.873627873681
 30
0.0
 10
-5113.485352799341
 20
9035.935858917104
 30
0.0
 10
-5113.58484125816
 20
9036.008100125382
 30
0.0
 10
-5113.677853557099
 20
9036.091258176402
 30
0.0
 10
-5113.76331641363
 20
9036.181957968503
 30
0.0
 10
-5113.837819260269
 20
9036.279151917322
 30
0.0
 10
-5113.902665180761
 20
9036.379886761059
 30
0.0
 10
-5113.953348347161
 20
9036.486862554617
 30
0.0
 10
-5113.995108893962
 20
9036.597224284149
 30
0.0
 10
-5114.022017097467
 20
9036.713284450047
 30
0.0
 10
-5114.040518532634
 20
9036.833295293598
 30
0.0
 10
-5114.04257189296
 20
9036.915108119889
 30
0.0
 10
-5114.043613303501
 20
9036.956601441176
 30
0.0
  0
SPLINE
  5
98
330
1F
100
AcDbEntity
  8
0
  6
Continuous
 62
     7
370
    25
100
AcDbSpline
210
0.0
220
0.0
230
1.0
 70
     8
 71
     3
 72
    23
 73
    19
 74
     0
 42
0.000000001
 43
0.00000001
 40
0.0
 40
0.0
 40
0.0
 40
0.0
 40
0.064021907905769
 40
0.1262326819779809
 40
0.1865365373545988
 40
0.2470473690630113
 40
0.3074607145633798
 40
0.3689785681118007
 40
0.4316213765738721
 40
0.4963176707001306
 40
0.5610912207493383
 40
0.6243271406750944
 40
0.6867528751010428
 40
0.747991365146291
 40
0.8094249615530098
 40
0.8714718676855121
 40
0.9347840044028912
 40
1.0
 40
1.0
 40
1.0
 40
1.0
 10
-5114.043613303501
 20
9040.01551191415
 30
0.0
 10
-5114.042562177165
 20
9040.057002879299
 30
0.0
 10
-5114.040489660102
 20
9040.138811059967
 30
0.0
 10
-5114.022184780747
 20
9040.258483207335
 30
0.0
 10
-5113.994892255929
 20
9040.3740604753
 30
0.0
 10
-5113.953370917597
 20
9040.484095174226
 30
0.0
 10
-5113.902657951545
 20
9040.591062228923
 30
0.0
 10
-5113.837825347734
 20
9040.691806698744
 30
0.0
 10
-5113.763298911459
 20
9040.788970101037
 30
0.0
 10
-5113.67791957028
 20
9040.879786170226
 30
0.0
 10
-5113.584426546817
 20
9040.962663969338
 30
0.0
 10
-5113.485583872472
 20
9041.036782254196
 30
0.0
 10
-5113.380910606611
 20
9041.098078465828
 30
0.0
 10
-5113.271924866329
 20
9041.148391284487
 30
0.0
 10
-5113.158916655868
 20
9041.18831079186
 30
0.0
 10
-5113.04095733585
 20
9041.216099620546
 30
0.0
 10
-5112.918374905917
 20
9041.232538011836
 30
0.0
 10
-5112.83511890837
 20
9041.234872263469
 30
0.0
 10
-5112.79287428323
 20
9041.236056677662
 30
0.0
  0
SPLINE
  5
9A
330
1F
100
AcDbEntity
  8
0
  6
Continuous
 62
     7
370
    25
100
AcDbSpline
210
0.0
220
0.0
230
1.0
 70
     8
 71
     3
 72
    23
 73
    19
 74
     0
 42
0.000000001
 43
0.00000001
 40
0.0
 40
0.0
 40
0.0
 40
0.0
 40
0.0695660886455677
 40
0.136740027881797
 40
0.2020784391817885
 40
0.265454177085743
 40
0.3289700421547206
 40
0.3917607770916576
 40
0.4560640589846607
 40
0.5209050834634801
 40
0.5856373619875829
 40
0.6478726413769006
 40
0.7078010866243258
 40
0.7663447799360239
 40
0.8241067595132325
 40
0.8822738882014249
 40
0.9402706205257823
 40
1.0
 40
1.0
 40
1.0
 40
1.0
 10
-5112.400348945393
 20
9041.236056677662
 30
0.0
 10
-5112.353841853534
 20
9041.23497798223
 30
0.0
 10
-5112.262426896023
 20
9041.232857684165
 30
0.0
 10
-5112.12826283304
 20
9041.215047209897
 30
0.0
 10
-5112.000481683836
 20
9041.185960163179
 30
0.0
 10
-5111.877943988113
 20
9041.146570446323
 30
0.0
 10
-5111.762328025861
 20
9041.09400032306
 30
0.0
 10
-5111.651515003394
 20
9041.030753197787
 30
0.0
 10
-5111.547525721452
 20
9040.955230832466
 30
0.0
 10
-5111.450272227103
 20
9040.869341354919
 30
0.0
 10
-5111.361946605245
 20
9040.776244875775
 30
0.0
 10
-5111.283439238666
 20
9040.678846723109
 30
0.0
 10
-5111.21809014322
 20
9040.577019432782
 30
0.0
 10
-5111.164239422314
 20
9040.472061165909
 30
0.0
 10
-5111.121985531273
 20
9040.363135869036
 30
0.0
 10
-5111.091813402834
 20
9040.250666574175
 30
0.0
 10
-5111.073878237168
 20
9040.134157237888
 30
0.0
 10
-5111.071730170876
 20
9040.055446500077
 30
0.0
 10
-5111.070640330528
 20
9040.01551191415
 30
0.0
  0
SPLINE
  5
9C
330
1F
100
AcDbEntity
  8
0
  6
Continuous
 62
     7
370
    25
100
AcDbSpline
210
0.0
220
0.0
230
1.0
 70
     8
 71
     3
 72
    11
 73
     7
 74
     0
 42
0.000000001
 43
0.00000001
 40
0.0
 40
0.0
 40
0.0
 40
0.0
 40
0.2709176399661262
 40
0.518355237105173
 40
0.7516456497894745
 40
1.0
 40
1.0
 40
1.0
 40
1.0
 10
-5124.805775465664
 20
9041.16637762361
 30
0.0
 10
-5124.792143357713
 20
9041.18815984847
 30
0.0
 10
-5124.766060617033
 20
9041.229836464041
 30
0.0
 10
-5124.711073004284
 20
9041.27627950919
 30
0.0
 10
-5124.647355869864
 20
9041.305451329907
 30
0.0
 10
-5124.601699422422
 20
9041.30870386912
 30
0.0
 10
-5124.57815722242
 20
9041.310381001987
 30
0.0
  0
SPLINE
  5
9D
330
1F
100
AcDbEntity
  8
0
  6
Continuous
 62
     7
370
    25
100
AcDbSpline
210
0.0
220
0.0
230
1.0
 70
     8
 71
     3
 72
    15
 73
    11
 74
     0
 42
0.000000001
 43
0.00000001
 40
0.0
 40
0.0
 40
0.0
 40
0.0
 40
0.1634481711841284
 40
0.3077932699324857
 40
0.4342702607694167
 40
0.5497655524641226
 40
0.6554189183655962
 40
0.7626357660705345
 40
0.875353209317824
 40
1.0
 40
1.0
 40
1.0
 40
1.0
 10
-5124.57815722242
 20
9041.310381001987
 30
0.0
 10
-5124.550640545887
 20
9041.309358496133
 30
0.0
 10
-5124.498823215743
 20
9041.307432990225
 30
0.0
 10
-5124.426196080009
 20
9041.296822248096
 30
0.0
 10
-5124.364069926656
 20
9041.276019188655
 30
0.0
 10
-5124.313474835258
 20
9041.24568390251
 30
0.0
 10
-5124.27294747176
 20
9041.207227681396
 30
0.0
 10
-5124.244639989158
 20
9041.159483101519
 30
0.0
 10
-5124.228284977718
 20
9041.103151809479
 30
0.0
 10
-5124.226207582105
 20
9041.063132129579
 30
0.0
 10
-5124.22511668188
 20
9041.042116643877
 30
0.0
  0
SPLINE
  5
9E
330
1F
100
AcDbEntity
  8
0
  6
Continuous
 62
     7
370
    25
100
AcDbSpline
210
0.0
220
0.0
230
1.0
 70
     8
 71
     3
 72
     9
 73
     5
 74
     0
 42
0.000000001
 43
0.00000001
 40
0.0
 40
0.0
 40
0.0
 40
0.0
 40
0.5361226439299241
 40
1.0
 40
1.0
 40
1.0
 40
1.0
 10
-5124.22511668188
 20
9041.042116643877
 30
0.0
 10
-5124.225903200373
 20
9041.026821450385
 30
0.0
 10
-5124.227370249942
 20
9040.998292169506
 30
0.0
 10
-5124.244870386448
 20
9040.975870560926
 30
0.0
 10
-5124.2529883035
 20
9040.965469684419
 30
0.0
  0
SPLINE
  5
A1
330
1F
100
AcDbEntity
  8
0
  6
Continuous
 62
     7
370
    25
100
AcDbSpline
210
0.0
220
0.0
230
1.0
 70
     8
 71
     3
 72
     9
 73
     5
 74
     0
 42
0.000000001
 43
0.00000001
 40
0.0
 40
0.0
 40
0.0
 40
0.0
 40
0.5823723018135237
 40
0.9999999999999999
 40
0.9999999999999999
 40
0.9999999999999999
 40
0.9999999999999999
 10
-5124.262278844042
 20
9036.122775427662
 30
0.0
 10
-5124.251540509003
 20
9036.099173941191
 30
0.0
 10
-5124.233101556797
 20
9036.058647483462
 30
0.0
 10
-5124.227468995493
 20
9036.014591014513
 30
0.0
 10
-5124.22511668188
 20
9035.996191812797
 30
0.0
  0
SPLINE
  5
A2
330
1F
100
AcDbEntity
  8
0
  6
Continuous
 62
     7
370
    25
100
AcDbSpline
210
0.0
220
0.0
230
1.0
 70
     8
 71
     3
 72
    15
 73
    11
 74
     0
 42
0.000000001
 43
0.00000001
 40
0.0
 40
0.0
 40
0.0
 40
0.0
 40
0.1240341000265695
 40
0.237530590933519
 40
0.3429942595889151
 40
0.4504437371307358
 40
0.5652980375054935
 40
0.6914725624247252
 40
0.8358968367354146
 40
1.0
 40
1.0
 40
1.0
 40
1.0
 10
-5124.22511668188
 20
9035.996191812797
 30
0.0
 10
-5124.226377636244
 20
9035.976000150142
 30
0.0
 10
-5124.228792417625
 20
9035.93733225509
 30
0.0
 10
-5124.242996422347
 20
9035.882483315243
 30
0.0
 10
-5124.271446003819
 20
9035.836855259147
 30
0.0
 10
-5124.309160420471
 20
9035.798063144108
 30
0.0
 10
-5124.359889550759
 20
9035.771252353654
 30
0.0
 10
-5124.419005500835
 20
9035.74931255677
 30
0.0
 10
-5124.489572192417
 20
9035.739079673376
 30
0.0
 10
-5124.539818471305
 20
9035.737106298991
 30
0.0
 10
-5124.566544046745
 20
9035.736056677662
 30
0.0
  0
SPLINE
  5
A3
330
1F
100
AcDbEntity
  8
0
  6
Continuous
 62
     7
370
    25
100
AcDbSpline
210
0.0
220
0.0
230
1.0
 70
     8
 71
     3
 72
    11
 73
     7
 74
     0
 42
0.000000001
 43
0.00000001
 40
0.0
 40
0.0
 40
0.0
 40
0.0
 40
0.2588021066228638
 40
0.4952013581236359
 40
0.734652924324573
 40
1.0
 40
1.0
 40
1.0
 40
1.0
 10
-5124.566544046745
 20
9035.736056677662
 30
0.0
 10
-5124.593585878668
 20
9035.737902988514
 30
0.0
 10
-5124.645328702829
 20
9035.741435786804
 30
0.0
 10
-5124.716689262503
 20
9035.773361934043
 30
0.0
 10
-5124.773782284335
 20
9035.827494532792
 30
0.0
 10
-5124.798558468508
 20
9035.874128187206
 30
0.0
 10
-5124.8115820535
 20
9035.898641137122
 30
0.0
  0
SPLINE
  5
A6
330
1F
100
AcDbEntity
  8
0
  6
Continuous
 62
     7
370
    25
100
AcDbSpline
210
0.0
220
0.0
230
1.0
 70
     8
 71
     3
 72
    15
 73
    11
 74
     0
 42
0.000000001
 43
0.00000001
 40
0.0
 40
0.0
 40
0.0
 40
0.0
 40
0.1208158510018166
 40
0.2307257204519657
 40
0.3358108859966674
 40
0.4414612828647729
 40
0.5572426563437527
 40
0.686166717899291
 40
0.8326774575844241
 40
1.0
 40
1.0
 40
1.0
 40
1.0
 10
-5125.77199168188
 20
9036.00432103577
 30
0.0
 10
-5125.772967769444
 20
9035.983272878553
 30
0.0
 10
-5125.774831833678
 20
9035.943076569893
 30
0.0
 10
-5125.792823468302
 20
9035.886872796735
 30
0.0
 10
-5125.822192378901
 20
9035.838700789122
 30
0.0
 10
-5125.865248851731
 20
9035.800797456017
 30
0.0
 10
-5125.918289171618
 20
9035.770132531368
 30
0.0
 10
-5125.983634621835
 20
9035.749716995233
 30
0.0
 10
-5126.060023132357
 20
9035.738940623327
 30
0.0
 10
-5126.114544716477
 20
9035.73705957339
 30
0.0
 10
-5126.143613303501
 20
9035.736056677662
 30
0.0
  0
SPLINE
  5
A7
330
1F
100
AcDbEntity
  8
0
  6
Continuous
 62
     7
370
    25
100
AcDbSpline
210
0.0
220
0.0
230
1.0
 70
     8
 71
     3
 72
    15
 73
    11
 74
     0
 42
0.000000001
 43
0.00000001
 40
0.0
 40
0.0
 40
0.0
 40
0.0
 40
0.1522627887176805
 40
0.2863442002919155
 40
0.4067185041010805
 40
0.51916165943614
 40
0.626827709860709
 40
0.7400663294712525
 40
0.8628923927424316
 40
1.0
 40
1.0
 40
1.0
 40
1.0
 10
-5126.143613303501
 20
9035.736056677662
 30
0.0
 10
-5126.166882938409
 20
9035.73706109227
 30
0.0
 10
-5126.210643630399
 20
9035.738949986466
 30
0.0
 10
-5126.272148296702
 20
9035.749831205194
 30
0.0
 10
-5126.324825894745
 20
9035.770641814866
 30
0.0
 10
-5126.367223906001
 20
9035.801591266105
 30
0.0
 10
-5126.401580945236
 20
9035.839944648278
 30
0.0
 10
-5126.424539943017
 20
9035.887823154482
 30
0.0
 10
-5126.438679381516
 20
9035.943514060893
 30
0.0
 10
-5126.440140108777
 20
9035.983322970087
 30
0.0
 10
-5126.440910600799
 20
9036.00432103577
 30
0.0
  0
SPLINE
  5
AA
330
1F
100
AcDbEntity
  8
0
  6
Continuous
 62
     7
370
    25
100
AcDbSpline
210
0.0
220
0.0
230
1.0
 70
     8
 71
     3
 72
    11
 73
     7
 74
     0
 42
0.000000001
 43
0.00000001
 40
0.0
 40
0.0
 40
0.0
 40
0.0
 40
0.2296062225561203
 40
0.4584831004937969
 40
0.7079181528724623
 40
1.0
 40
1.0
 40
1.0
 40
1.0
 10
-5127.402481546745
 20
9035.890511914151
 30
0.0
 10
-5127.416920292887
 20
9035.866819822842
 30
0.0
 10
-5127.445751920466
 20
9035.819510898205
 30
0.0
 10
-5127.51672883672
 20
9035.769365390492
 30
0.0
 10
-5127.605386472531
 20
9035.739826099962
 30
0.0
 10
-5127.670477057203
 20
9035.7373774328
 30
0.0
 10
-5127.70558543188
 20
9035.736056677662
 30
0.0
  0
SPLINE
  5
AB
330
1F
100
AcDbEntity
  8
0
  6
Continuous
 62
     7
370
    25
100
AcDbSpline
210
0.0
220
0.0
230
1.0
 70
     8
 71
     3
 72
    15
 73
    11
 74
     0
 42
0.000000001
 43
0.00000001
 40
0.0
 40
0.0
 40
0.0
 40
0.0
 40
0.1480462576030797
 40
0.279676734611826
 40
0.3998883441164123
 40
0.5094342982499269
 40
0.6201256482431207
 40
0.7330091189634274
 40
0.8599852866970783
 40
1.0
 40
1.0
 40
1.0
 40
1.0
 10
-5127.70558543188
 20
9035.736056677662
 30
0.0
 10
-5127.726913738707
 20
9035.737077483958
 30
0.0
 10
-5127.76720541041
 20
9035.73900590671
 30
0.0
 10
-5127.824241565463
 20
9035.749840029875
 30
0.0
 10
-5127.872271782327
 20
9035.771007139174
 30
0.0
 10
-5127.912787478766
 20
9035.799538033541
 30
0.0
 10
-5127.943184026938
 20
9035.837532627922
 30
0.0
 10
-5127.964609661713
 20
9035.88372005483
 30
0.0
 10
-5127.977018100872
 20
9035.937485307635
 30
0.0
 10
-5127.978748779512
 20
9035.975996084278
 30
0.0
 10
-5127.979656377825
 20
9035.996191812797
 30
0.0
  0
SPLINE
  5
AC
330
1F
100
AcDbEntity
  8
0
  6
Continuous
 62
     7
370
    25
100
AcDbSpline
210
0.0
220
0.0
230
1.0
 70
     8
 71
     3
 72
     9
 73
     5
 74
     0
 42
0.000000001
 43
0.00000001
 40
0.0
 40
0.0
 40
0.0
 40
0.0
 40
0.4902628817703408
 40
1.0
 40
1.0
 40
1.0
 40
1.0
 10
-5127.979656377825
 20
9035.996191812797
 30
0.0
 10
-5127.978498455762
 20
9036.016601098987
 30
0.0
 10
-5127.97613661662
 20
9036.058230369626
 30
0.0
 10
-5127.959237530233
 20
9036.096367573737
 30
0.0
 10
-5127.950623438636
 20
9036.115807522257
 30
0.0
  0
SPLINE
  5
AF
330
1F
100
AcDbEntity
  8
0
  6
Continuous
 62
     7
370
    25
100
AcDbSpline
210
0.0
220
0.0
230
1.0
 70
     8
 71
     3
 72
     9
 73
     5
 74
     0
 42
0.000000001
 43
0.00000001
 40
0.0
 40
0.0
 40
0.0
 40
0.0
 40
0.5026169593351074
 40
1.0
 40
1.0
 40
1.0
 40
1.0
 10
-5127.944816850799
 20
9040.90856512361
 30
0.0
 10
-5127.954686951801
 20
9040.929890804258
 30
0.0
 10
-5127.974324373142
 20
9040.97232009411
 30
0.0
 10
-5127.977885255386
 20
9041.018932449047
 30
0.0
 10
-5127.979656377825
 20
9041.042116643877
 30
0.0
  0
SPLINE
  5
B0
330
1F
100
AcDbEntity
  8
0
  6
Continuous
 62
     7
370
    25
100
AcDbSpline
210
0.0
220
0.0
230
1.0
 70
     8
 71
     3
 72
    15
 73
    11
 74
     0
 42
0.000000001
 43
0.00000001
 40
0.0
 40
0.0
 40
0.0
 40
0.0
 40
0.1421675859462326
 40
0.2689025851804661
 40
0.3851698358189116
 40
0.4934236150103703
 40
0.603727538602719
 40
0.72129192852432
 40
0.8525951712909375
 40
1.0
 40
1.0
 40
1.0
 40
1.0
 10
-5127.979656377825
 20
9041.042116643877
 30
0.0
 10
-5127.978765388615
 20
9041.063088221503
 30
0.0
 10
-5127.977080128925
 20
9041.102754868441
 30
0.0
 10
-5127.964559263446
 20
9041.158529200638
 30
0.0
 10
-5127.94260606272
 20
9041.206016739483
 30
0.0
 10
-5127.910926601809
 20
9041.244400007306
 30
0.0
 10
-5127.871957712842
 20
9041.27578314306
 30
0.0
 10
-5127.822610246644
 20
9041.296629023878
 30
0.0
 10
-5127.764897170158
 20
9041.30743342949
 30
0.0
 10
-5127.723824332601
 20
9041.309361351048
 30
0.0
 10
-5127.702101479176
 20
9041.310381001987
 30
0.0
  0
SPLINE
  5
B1
330
1F
100
AcDbEntity
  8
0
  6
Continuous
 62
     7
370
    25
100
AcDbSpline
210
0.0
220
0.0
230
1.0
 70
     8
 71
     3
 72
    11
 73
     7
 74
     0
 42
0.000000001
 43
0.00000001
 40
0.0
 40
0.0
 40
0.0
 40
0.0
 40
0.2869044208512655
 40
0.5374329359183897
 40
0.7694662603606748
 40
1.0
 40
1.0
 40
1.0
 40
1.0
 10
-5127.702101479176
 20
9041.310381001987
 30
0.0
 10
-5127.669354698903
 20
9041.308787167913
 30
0.0
 10
-5127.608013022073
 20
9041.305801578068
 30
0.0
 10
-5127.523652254049
 20
9041.278874104604
 30
0.0
 10
-5127.454430538145
 20
9041.232829370403
 30
0.0
 10
-5127.425185756547
 20
9041.188480281133
 30
0.0
 10
-5127.410610769718
 20
9041.16637762361
 30
0.0
  0
SPLINE
  5
B4
330
1F
100
AcDbEntity
  8
0
  6
Continuous
 62
     7
370
    25
100
AcDbSpline
210
0.0
220
0.0
230
1.0
 70
     8
 71
     3
 72
    15
 73
    11
 74
     0
 42
0.000000001
 43
0.00000001
 40
0.0
 40
0.0
 40
0.0
 40
0.0
 40
0.1377080627419958
 40
0.2588409648667155
 40
0.373874336309383
 40
0.4819480430707779
 40
0.5934580224883041
 40
0.7121729627322362
 40
0.8473444115796319
 40
1.0
 40
1.0
 40
1.0
 40
1.0
 10
-5126.440910600799
 20
9041.038632691176
 30
0.0
 10
-5126.44014394662
 20
9041.060003200988
 30
0.0
 10
-5126.438702916204
 20
9041.100171970113
 30
0.0
 10
-5126.424652966016
 20
9041.156972450379
 30
0.0
 10
-5126.400113414355
 20
9041.204771633958
 30
0.0
 10
-5126.366807457198
 20
9041.245384650441
 30
0.0
 10
-5126.32216699238
 20
9041.274086928112
 30
0.0
 10
-5126.269475422497
 20
9041.295494240532
 30
0.0
 10
-5126.20725981299
 20
9041.30782209141
 30
0.0
 10
-5126.162635531596
 20
9041.309494174728
 30
0.0
 10
-5126.138968033231
 20
9041.310381001987
 30
0.0
  0
SPLINE
  5
B5
330
1F
100
AcDbEntity
  8
0
  6
Continuous
 62
     7
370
    25
100
AcDbSpline
210
0.0
220
0.0
230
1.0
 70
     8
 71
     3
 72
    15
 73
    11
 74
     0
 42
0.000000001
 43
0.00000001
 40
0.0
 40
0.0
 40
0.0
 40
0.0
 40
0.1655314163246809
 40
0.3105811605146606
 40
0.4398437168703988
 40
0.5528805432962471
 40
0.6603281741446102
 40
0.7664441925154973
 40
0.8766426343149856
 40
1.0
 40
1.0
 40
1.0
 40
1.0
 10
-5126.138968033231
 20
9041.310381001987
 30
0.0
 10
-5126.110260669122
 20
9041.309542575375
 30
0.0
 10
-5126.056397984574
 20
9041.307969463058
 30
0.0
 10
-5125.981038173446
 20
9041.295122464971
 30
0.0
 10
-5125.916555689647
 20
9041.275222718616
 30
0.0
 10
-5125.863299016472
 20
9041.245429311848
 30
0.0
 10
-5125.820824859997
 20
9041.206738414621
 30
0.0
 10
-5125.793321015458
 20
9041.157126938526
 30
0.0
 10
-5125.774580826382
 20
9041.100735632739
 30
0.0
 10
-5125.772886549509
 20
9041.060096889889
 30
0.0
 10
-5125.77199168188
 20
9041.038632691176
 30
0.0
  0
SPLINE
  5
B9
330
1F
100
AcDbEntity
  8
0
  6
Continuous
 62
     7
370
    25
100
AcDbSpline
210
0.0
220
0.0
230
1.0
 70
     8
 71
     3
 72
    23
 73
    19
 74
     0
 42
0.000000001
 43
0.00000001
 40
0.0
 40
0.0
 40
0.0
 40
0.0
 40
0.033426202035347
 40
0.0709252559820527
 40
0.1118634144878429
 40
0.1569064398987449
 40
0.2059791538484591
 40
0.2585999398510793
 40
0.315260269714946
 40
0.3757213361297132
 40
0.4399866657894034
 40
0.5083974803188862
 40
0.5806187561822755
 40
0.6566525006816996
 40
0.7367390392849433
 40
0.8206408278564918
 40
0.9083591900053885
 40
1.0
 40
1.0
 40
1.0
 40
1.0
 10
-5102.211180871069
 20
9040.07241647496
 30
0.0
 10
-5102.224432775165
 20
9040.024327667086
 30
0.0
 10
-5102.252551276012
 20
9039.922290618284
 30
0.0
 10
-5102.303222497265
 20
9039.763225504468
 30
0.0
 10
-5102.359837514809
 20
9039.587886298397
 30
0.0
 10
-5102.426697423942
 20
9039.397765382795
 30
0.0
 10
-5102.50043562759
 20
9039.191602783105
 30
0.0
 10
-5102.583589277441
 20
9038.970423769597
 30
0.0
 10
-5102.673882820684
 20
9038.733785245251
 30
0.0
 10
-5102.772772111898
 20
9038.481839650942
 30
0.0
 10
-5102.87963499683
 20
9038.214193657792
 30
0.0
 10
-5102.99587373409
 20
9037.9314127503
 30
0.0
 10
-5103.120070408936
 20
9037.63292312524
 30
0.0
 10
-5103.252808616411
 20
9037.31912391359
 30
0.0
 10
-5103.393033181414
 20
9036.989568478437
 30
0.0
 10
-5103.541855576953
 20
9036.644729359727
 30
0.0
 10
-5103.698338400264
 20
9036.284417204535
 30
0.0
 10
-5103.807036718507
 20
9036.03985492023
 30
0.0
 10
-5103.862574452151
 20
9035.914899583067
 30
0.0
  0
SPLINE
  5
BA
330
1F
100
AcDbEntity
  8
0
  6
Continuous
 62
     7
370
    25
100
AcDbSpline
210
0.0
220
0.0
230
1.0
 70
     8
 71
     3
 72
    11
 73
     7
 74
     0
 42
0.000000001
 43
0.00000001
 40
0.0
 40
0.0
 40
0.0
 40
0.0
 40
0.232809054761687
 40
0.462943003560449
 40
0.7138780282479614
 40
1.0
 40
1.0
 40
1.0
 40
1.0
 10
-5103.862574452151
 20
9035.914899583067
 30
0.0
 10
-5103.880734389261
 20
9035.887504146582
 30
0.0
 10
-5103.916845595673
 20
9035.83302806246
 30
0.0
 10
-5104.001477806957
 20
9035.775718649626
 30
0.0
 10
-5104.1046914998
 20
9035.741721913522
 30
0.0
 10
-5104.180090672062
 20
9035.738025810157
 30
0.0
 10
-5104.22026026296
 20
9035.736056677662
 30
0.0
  0
SPLINE
  5
BB
330
1F
100
AcDbEntity
  8
0
  6
Continuous
 62
     7
370
    25
100
AcDbSpline
210
0.0
220
0.0
230
1.0
 70
     8
 71
     3
 72
    15
 73
    11
 74
     0
 42
0.000000001
 43
0.00000001
 40
0.0
 40
0.0
 40
0.0
 40
0.0
 40
0.1464537970123363
 40
0.2740558316442768
 40
0.3917684023119356
 40
0.4994269965368882
 40
0.6105024493604783
 40
0.7260022282036026
 40
0.8559762080598654
 40
1.0
 40
1.0
 40
1.0
 40
1.0
 10
-5104.22026026296
 20
9035.736056677662
 30
0.0
 10
-5104.24357428163
 20
9035.736785546054
 30
0.0
 10
-5104.287201301931
 20
9035.738149461755
 30
0.0
 10
-5104.348250501431
 20
9035.752406613923
 30
0.0
 10
-5104.399930160228
 20
9035.77520328127
 30
0.0
 10
-5104.442964294929
 20
9035.807940065655
 30
0.0
 10
-5104.475518083179
 20
9035.85063004851
 30
0.0
 10
-5104.499378162764
 20
9035.902470330175
 30
0.0
 10
-5104.512859639404
 20
9035.96338644417
 30
0.0
 10
-5104.514416551896
 20
9036.006963986185
 30
0.0
 10
-5104.515234925123
 20
9036.029870022257
 30
0.0
  0
SPLINE
  5
BD
330
1F
100
AcDbEntity
  8
0
  6
Continuous
 62
     7
370
    25
100
AcDbSpline
210
0.0
220
0.0
230
1.0
 70
     8
 71
     3
 72
    15
 73
    11
 74
     0
 42
0.000000001
 43
0.00000001
 40
0.0
 40
0.0
 40
0.0
 40
0.0
 40
0.1373554302530965
 40
0.2604035025253632
 40
0.3715837235508905
 40
0.4813661282243635
 40
0.5925463492499308
 40
0.7131382304871559
 40
0.8474619951862875
 40
1.0
 40
1.0
 40
1.0
 40
1.0
 10
-5104.515234925123
 20
9041.043277961448
 30
0.0
 10
-5104.514434059248
 20
9041.064256863569
 30
0.0
 10
-5104.512915748117
 20
9041.104029441773
 30
0.0
 10
-5104.499247073076
 20
9041.159626236724
 30
0.0
 10
-5104.475115214256
 20
9041.206675698893
 30
0.0
 10
-5104.442377547126
 20
9041.246138286777
 30
0.0
 10
-5104.398663442584
 20
9041.275533221235
 30
0.0
 10
-5104.346558298174
 20
9041.296713522373
 30
0.0
 10
-5104.284942025743
 20
9041.307455296645
 30
0.0
 10
-5104.241198261465
 20
9041.309365340892
 30
0.0
 10
-5104.217937627825
 20
9041.310381001987
 30
0.0
  0
SPLINE
  5
BE
330
1F
100
AcDbEntity
  8
0
  6
Continuous
 62
     7
370
    25
100
AcDbSpline
210
0.0
220
0.0
230
1.0
 70
     8
 71
     3
 72
    15
 73
    11
 74
     0
 42
0.000000001
 43
0.00000001
 40
0.0
 40
0.0
 40
0.0
 40
0.0
 40
0.167568003901162
 40
0.3142936742424036
 40
0.4434068668691145
 40
0.5582581848719965
 40
0.6655816592803213
 40
0.7689358058595132
 40
0.8790069126387333
 40
1.0
 40
1.0
 40
1.0
 40
1.0
 10
-5104.217937627825
 20
9041.310381001987
 30
0.0
 10
-5104.188878781714
 20
9041.309363215303
 30
0.0
 10
-5104.134375467832
 20
9041.307454235613
 30
0.0
 10
-5104.057867696724
 20
9041.296860177637
 30
0.0
 10
-5103.993081106798
 20
9041.275928065159
 30
0.0
 10
-5103.938759166766
 20
9041.24710716299
 30
0.0
 10
-5103.897337530717
 20
9041.207768871427
 30
0.0
 10
-5103.866748865673
 20
9041.160637749079
 30
0.0
 10
-5103.849241510858
 20
9041.104457539679
 30
0.0
 10
-5103.847321427363
 20
9041.064303818439
 30
0.0
 10
-5103.846316006204
 20
9041.043277961448
 30
0.0
  0
SPLINE
  5
C0
330
1F
100
AcDbEntity
  8
0
  6
Continuous
 62
     7
370
    25
100
AcDbSpline
210
0.0
220
0.0
230
1.0
 70
     8
 71
     3
 72
    23
 73
    19
 74
     0
 42
0.000000001
 43
0.00000001
 40
0.0
 40
0.0
 40
0.0
 40
0.0
 40
0.0333964054255393
 40
0.0706152794128651
 40
0.1118491904857368
 40
0.1568612779401291
 40
0.2056604075302364
 40
0.2582535298716268
 40
0.3149813657476729
 40
0.375514466432198
 40
0.4397603508376045
 40
0.508252671092344
 40
0.5804605573355338
 40
0.6565848896394157
 40
0.7364261993995963
 40
0.820427949887618
 40
0.9083548486788564
 40
1.0
 40
1.0
 40
1.0
 40
1.0
 10
-5103.846316006204
 20
9036.97402120469
 30
0.0
 10
-5103.833475966584
 20
9037.022114812762
 30
0.0
 10
-5103.806326248707
 20
9037.123806702317
 30
0.0
 10
-5103.756491698789
 20
9037.282914097925
 30
0.0
 10
-5103.699910349857
 20
9037.458002749456
 30
0.0
 10
-5103.634661959983
 20
9037.648412266806
 30
0.0
 10
-5103.561388774848
 20
9037.853939542543
 30
0.0
 10
-5103.480009536753
 20
9038.075105376982
 30
0.0
 10
-5103.389400828336
 20
9038.311486168262
 30
0.0
 10
-5103.290252979762
 20
9038.56317077795
 30
0.0
 10
-5103.185247725122
 20
9038.8314046556
 30
0.0
 10
-5103.068183825058
 20
9039.113536145309
 30
0.0
 10
-5102.945959101367
 20
9039.412680673384
 30
0.0
 10
-5102.812724157331
 20
9039.725562883566
 30
0.0
 10
-5102.673709758537
 20
9040.055077638142
 30
0.0
 10
-5102.525191816513
 20
9040.399669771594
 30
0.0
 10
-5102.366833801728
 20
9040.759158434435
 30
0.0
 10
-5102.259163061198
 20
9041.004172020033
 30
0.0
 10
-5102.204212965663
 20
9041.129215461446
 30
0.0
  0
SPLINE
  5
C1
330
1F
100
AcDbEntity
  8
0
  6
Continuous
 62
     7
370
    25
100
AcDbSpline
210
0.0
220
0.0
230
1.0
 70
     8
 71
     3
 72
    11
 73
     7
 74
     0
 42
0.000000001
 43
0.00000001
 40
0.0
 40
0.0
 40
0.0
 40
0.0
 40
0.2670118619318578
 40
0.5105832502389737
 40
0.747732469301617
 40
0.9999999999999999
 40
0.9999999999999999
 40
0.9999999999999999
 40
0.9999999999999999
 10
-5102.204212965663
 20
9041.129215461446
 30
0.0
 10
-5102.186981376278
 20
9041.15662572586
 30
0.0
 10
-5102.154030926617
 20
9041.209039958669
 30
0.0
 10
-5102.084096875257
 20
9041.26833548239
 30
0.0
 10
-5102.001388908064
 20
9041.304158735958
 30
0.0
 10
-5101.942113938925
 20
9041.308264635592
 30
0.0
 10
-5101.911560938636
 20
9041.310381001987
 30
0.0
  0
SPLINE
  5
C2
330
1F
100
AcDbEntity
  8
0
  6
Continuous
 62
     7
370
    25
100
AcDbSpline
210
0.0
220
0.0
230
1.0
 70
     8
 71
     3
 72
    15
 73
    11
 74
     0
 42
0.000000001
 43
0.00000001
 40
0.0
 40
0.0
 40
0.0
 40
0.0
 40
0.1624566800598665
 40
0.3033020102420027
 40
0.4291664366097336
 40
0.5438062297013915
 40
0.6493516081969176
 40
0.7569385026546378
 40
0.8719246710993233
 40
1.0
 40
1.0
 40
1.0
 40
1.0
 10
-5101.911560938636
 20
9041.310381001987
 30
0.0
 10
-5101.882443085471
 20
9041.309694030044
 30
0.0
 10
-5101.828080880139
 20
9041.308411472924
 30
0.0
 10
-5101.752415813849
 20
9041.293850560623
 30
0.0
 10
-5101.687043499356
 20
9041.273004052027
 30
0.0
 10
-5101.633743019233
 20
9041.240135982622
 30
0.0
 10
-5101.592394427966
 20
9041.197723375346
 30
0.0
 10
-5101.562736922004
 20
9041.146378840052
 30
0.0
 10
-5101.545085003129
 20
9041.085430577488
 30
0.0
 10
-5101.543236156694
 20
9041.041852629538
 30
0.0
 10
-5101.54226195215
 20
9041.018890292527
 30
0.0
  0
SPLINE
  5
C4
330
1F
100
AcDbEntity
  8
0
  6
Continuous
 62
     7
370
    25
100
AcDbSpline
210
0.0
220
0.0
230
1.0
 70
     8
 71
     3
 72
    15
 73
    11
 74
     0
 42
0.000000001
 43
0.00000001
 40
0.0
 40
0.0
 40
0.0
 40
0.0
 40
0.1192175102583433
 40
0.2297017703973217
 40
0.3334438581369674
 40
0.4396463856239923
 40
0.5549287995729338
 40
0.6845266202812582
 40
0.8318030273727884
 40
1.0
 40
1.0
 40
1.0
 40
1.0
 10
-5101.54226195215
 20
9036.075161407392
 30
0.0
 10
-5101.543295908809
 20
9036.054520543563
 30
0.0
 10
-5101.545288079881
 20
9036.014750857432
 30
0.0
 10
-5101.562755675242
 20
9035.95902846318
 30
0.0
 10
-5101.592922145644
 20
9035.911823636814
 30
0.0
 10
-5101.635154990053
 20
9035.873759290022
 30
0.0
 10
-5101.688959465114
 20
9035.844761992605
 30
0.0
 10
-5101.753835346336
 20
9035.823924929626
 30
0.0
 10
-5101.83031475133
 20
9035.813300676265
 30
0.0
 10
-5101.884822410786
 20
9035.811396322386
 30
0.0
 10
-5101.913883573771
 20
9035.810381001987
 30
0.0
  0
SPLINE
  5
C5
330
1F
100
AcDbEntity
  8
0
  6
Continuous
 62
     7
370
    25
100
AcDbSpline
210
0.0
220
0.0
230
1.0
 70
     8
 71
     3
 72
    15
 73
    11
 74
     0
 42
0.000000001
 43
0.00000001
 40
0.0
 40
0.0
 40
0.0
 40
0.0
 40
0.1535989970092582
 40
0.2888570630726576
 40
0.4102877322893594
 40
0.5222412776215465
 40
0.6308521699903141
 40
0.7428057153224166
 40
0.8642363845390854
 40
1.0
 40
1.0
 40
1.0
 40
1.0
 10
-5101.913883573771
 20
9035.810381001987
 30
0.0
 10
-5101.937146132474
 20
9035.811395057463
 30
0.0
 10
-5101.980893517012
 20
9035.813302082202
 30
0.0
 10
-5102.042485920701
 20
9035.824063764421
 30
0.0
 10
-5102.094668554456
 20
9035.845179434844
 30
0.0
 10
-5102.137877545004
 20
9035.874625132486
 30
0.0
 10
-5102.171443410024
 20
9035.912987059646
 30
0.0
 10
-5102.194887102871
 20
9035.959711906924
 30
0.0
 10
-5102.208935196074
 20
9036.01435700987
 30
0.0
 10
-5102.210405009439
 20
9036.0533939125
 30
0.0
 10
-5102.211180871069
 20
9036.074000089824
 30
0.0
  0
SPLINE
  5
C6
330
1F
100
AcDbEntity
  8
0
  6
Continuous
 62
     7
370
    25
100
AcDbSpline
210
0.0
220
0.0
230
1.0
 70
     8
 71
     3
 72
    15
 73
    11
 74
     0
 42
0.000000001
 43
0.00000001
 40
0.0
 40
0.0
 40
0.0
 40
0.0
 40
0.1292358118054869
 40
0.2539569466684353
 40
0.3771968047857803
 40
0.5066544638822931
 40
0.6346707152581672
 40
0.7555544727616228
 40
0.8762798741111381
 40
1.0
 40
1.0
 40
1.0
 40
1.0
 10
-5098.527017019717
 20
9038.63470532631
 30
0.0
 10
-5098.482610269017
 20
9038.636706140358
 30
0.0
 10
-5098.395348056925
 20
9038.640637872735
 30
0.0
 10
-5098.270500015748
 20
9038.678657290842
 30
0.0
 10
-5098.154707772935
 20
9038.737832694202
 30
0.0
 10
-5098.052245097671
 20
9038.819868391809
 30
0.0
 10
-5097.964969296813
 20
9038.916857032715
 30
0.0
 10
-5097.90181437574
 20
9039.027692897502
 30
0.0
 10
-5097.8631006722
 20
9039.148191176924
 30
0.0
 10
-5097.858237062685
 20
9039.232115209334
 30
0.0
 10
-5097.855775465663
 20
9039.27459130604
 30
0.0
  0
SPLINE
  5
C8
330
1F
100
AcDbEntity
  8
0
  6
Continuous
 62
     7
370
    25
100
AcDbSpline
210
0.0
220
0.0
230
1.0
 70
     8
 71
     3
 72
    15
 73
    11
 74
     0
 42
0.000000001
 43
0.00000001
 40
0.0
 40
0.0
 40
0.0
 40
0.0
 40
0.1235134495526587
 40
0.2440371772983955
 40
0.3652811780136526
 40
0.4939311243358409
 40
0.6229953715115278
 40
0.7475489850495326
 40
0.8709800785673154
 40
1.0
 40
1.0
 40
1.0
 40
1.0
 10
-5097.855775465663
 20
9039.998092150636
 30
0.0
 10
-5097.858265939723
 20
9040.04055140644
 30
0.0
 10
-5097.863186604328
 20
9040.124442164688
 30
0.0
 10
-5097.901539175447
 20
9040.245371592731
 30
0.0
 10
-5097.966624202006
 20
9040.355652775519
 30
0.0
 10
-5098.053182549043
 20
9040.453562078606
 30
0.0
 10
-5098.15498582261
 20
9040.537749002404
 30
0.0
 10
-5098.2708548621
 20
9040.597126160541
 30
0.0
 10
-5098.395681526079
 20
9040.635675859505
 30
0.0
 10
-5098.48259713486
 20
9040.639505084413
 30
0.0
 10
-5098.527017019717
 20
9040.641462083067
 30
0.0
  0
SPLINE
  5
CD
330
1F
100
AcDbEntity
  8
0
  6
Continuous
 62
     7
370
    25
100
AcDbSpline
210
0.0
220
0.0
230
1.0
 70
     8
 71
     3
 72
    15
 73
    11
 74
     0
 42
0.000000001
 43
0.00000001
 40
0.0
 40
0.0
 40
0.0
 40
0.0
 40
0.152861285016292
 40
0.287469727713598
 40
0.4083171843914609
 40
0.5197330343307434
 40
0.6278222855467216
 40
0.7415060099346115
 40
0.862353466612507
 40
1.0
 40
1.0
 40
1.0
 40
1.0
 10
-5099.862532222421
 20
9035.736056677662
 30
0.0
 10
-5099.885795143615
 20
9035.737070555208
 30
0.0
 10
-5099.92954320985
 20
9035.738977245326
 30
0.0
 10
-5099.991131119035
 20
9035.749741133717
 30
0.0
 10
-5100.043328344098
 20
9035.770849641855
 30
0.0
 10
-5100.086488535017
 20
9035.800319293268
 30
0.0
 10
-5100.120461345598
 20
9035.83885728459
 30
0.0
 10
-5100.143241612619
 20
9035.886314849202
 30
0.0
 10
-5100.157742317399
 20
9035.94154107933
 30
0.0
 10
-5100.159104281711
 20
9035.98099135843
 30
0.0
 10
-5100.159829519717
 20
9036.001998400636
 30
0.0
  0
SPLINE
  5
CF
330
1F
100
AcDbEntity
  8
0
  6
Continuous
 62
     7
370
    25
100
AcDbSpline
210
0.0
220
0.0
230
1.0
 70
     8
 71
     3
 72
    15
 73
    11
 74
     0
 42
0.000000001
 43
0.00000001
 40
0.0
 40
0.0
 40
0.0
 40
0.0
 40
0.1446346493004979
 40
0.2709695536701091
 40
0.3881332050054684
 40
0.4966009700542541
 40
0.6071858555760526
 40
0.724349506911277
 40
0.8527014153097228
 40
0.9999999999999999
 40
0.9999999999999999
 40
0.9999999999999999
 40
0.9999999999999999
 10
-5100.159829519717
 20
9040.970114954689
 30
0.0
 10
-5100.159010422631
 20
9040.991104888599
 30
0.0
 10
-5100.157475863843
 20
9041.030429027387
 30
0.0
 10
-5100.144277603139
 20
9041.08545601183
 30
0.0
 10
-5100.123953999049
 20
9041.132619407326
 30
0.0
 10
-5100.093786643924
 20
9041.171674970812
 30
0.0
 10
-5100.054207536933
 20
9041.200918390778
 30
0.0
 10
-5100.006767556052
 20
9041.222264011629
 30
0.0
 10
-5099.950494187405
 20
9041.233198605427
 30
0.0
 10
-5099.910574368625
 20
9041.23506130962
 30
0.0
 10
-5099.889242526474
 20
9041.236056677662
 30
0.0
  0
SPLINE
  5
D1
330
1F
100
AcDbEntity
  8
0
  6
Continuous
 62
     7
370
    25
100
AcDbSpline
210
0.0
220
0.0
230
1.0
 70
     8
 71
     3
 72
    23
 73
    19
 74
     0
 42
0.000000001
 43
0.00000001
 40
0.0
 40
0.0
 40
0.0
 40
0.0
 40
0.0697099815833845
 40
0.1364473703020119
 40
0.2017947491632249
 40
0.2654843218801584
 40
0.3288955934619303
 40
0.3921073283569533
 40
0.4562055181824037
 40
0.5211806621105962
 40
0.5856274065120285
 40
0.6479914155361797
 40
0.7075565987987815
 40
0.7664878045377358
 40
0.8243692610195297
 40
0.8819472739614624
 40
0.9407267977401997
 40
1.0
 40
1.0
 40
1.0
 40
1.0
 10
-5098.516565161609
 20
9041.236056677662
 30
0.0
 10
-5098.470042442011
 20
9041.235049676543
 30
0.0
 10
-5098.378980837858
 20
9041.233078615129
 30
0.0
 10
-5098.245498177946
 20
9041.214380141453
 30
0.0
 10
-5098.117380459861
 20
9041.187989239124
 30
0.0
 10
-5097.995954119489
 20
9041.1457228409
 30
0.0
 10
-5097.87895447866
 20
9041.095880357598
 30
0.0
 10
-5097.769699452887
 20
9041.030234523512
 30
0.0
 10
-5097.664400887141
 20
9040.956713993335
 30
0.0
 10
-5097.568150727123
 20
9040.870370831397
 30
0.0
 10
-5097.478890007874
 20
9040.778600169318
 30
0.0
 10
-5097.401183049904
 20
9040.681288607417
 30
0.0
 10
-5097.33532502348
 20
9040.580035694666
 30
0.0
 10
-5097.280361412859
 20
9040.475814954973
 30
0.0
 10
-5097.238043581739
 20
9040.367123765238
 30
0.0
 10
-5097.209616793869
 20
9040.2542948308
 30
0.0
 10
-5097.18978646612
 20
9040.138533297864
 30
0.0
 10
-5097.187835905519
 20
9040.059725742623
 30
0.0
 10
-5097.186856546745
 20
9040.02015718442
 30
0.0
  0
SPLINE
  5
D3
330
1F
100
AcDbEntity
  8
0
  6
Continuous
 62
     7
370
    25
100
AcDbSpline
210
0.0
220
0.0
230
1.0
 70
     8
 71
     3
 72
    23
 73
    19
 74
     0
 42
0.000000001
 43
0.00000001
 40
0.0
 40
0.0
 40
0.0
 40
0.0
 40
0.059941698892438
 40
0.1187138469711236
 40
0.176941237815681
 40
0.2352661744248942
 40
0.2943277774127485
 40
0.3542464815027795
 40
0.4165885938737676
 40
0.480953665448889
 40
0.545785398236429
 40
0.6093099757948213
 40
0.6719250421333935
 40
0.7349787482748794
 40
0.7988306000017249
 40
0.8637685273449468
 40
0.9306766963489946
 40
1.0
 40
1.0
 40
1.0
 40
1.0
 10
-5097.186856546745
 20
9039.252526272257
 30
0.0
 10
-5097.187945987865
 20
9039.212975760633
 30
0.0
 10
-5097.190103613504
 20
9039.134646426104
 30
0.0
 10
-5097.208158679235
 20
9039.019050242188
 30
0.0
 10
-5097.237145815176
 20
9038.906927837317
 30
0.0
 10
-5097.278171306617
 20
9038.798391885806
 30
0.0
 10
-5097.330376891933
 20
9038.69349266157
 30
0.0
 10
-5097.395495834794
 20
9038.592983337998
 30
0.0
 10
-5097.470579197073
 20
9038.495214992186
 30
0.0
 10
-5097.557717930456
 20
9038.403584410358
 30
0.0
 10
-5097.651239674928
 20
9038.317138548757
 30
0.0
 10
-5097.754597476441
 20
9038.24474365162
 30
0.0
 10
-5097.861797609291
 20
9038.180504302592
 30
0.0
 10
-5097.976438232517
 20
9038.13012296519
 30
0.0
 10
-5098.096140083137
 20
9038.088430026179
 30
0.0
 10
-5098.222610009853
 20
9038.06161772882
 30
0.0
 10
-5098.354211946303
 20
9038.043172227168
 30
0.0
 10
-5098.444109315205
 20
9038.041143220391
 30
0.0
 10
-5098.489854857556
 20
9038.040110731718
 30
0.0
  0
SPLINE
  5
D5
330
1F
100
AcDbEntity
  8
0
  6
Continuous
 62
     7
370
    25
100
AcDbSpline
210
0.0
220
0.0
230
1.0
 70
     8
 71
     3
 72
    15
 73
    11
 74
     0
 42
0.000000001
 43
0.00000001
 40
0.0
 40
0.0
 40
0.0
 40
0.0
 40
0.1212059526124726
 40
0.2293436564902865
 40
0.3347681309251444
 40
0.4407596617558552
 40
0.5558130396878721
 40
0.6851533834087643
 40
0.8321371907837286
 40
1.0
 40
1.0
 40
1.0
 40
1.0
 10
-5099.490910600799
 20
9036.001998400636
 30
0.0
 10
-5099.491832657866
 20
9035.98093567536
 30
0.0
 10
-5099.493577357157
 20
9035.941081177076
 30
0.0
 10
-5099.512013770728
 20
9035.885399422576
 30
0.0
 10
-5099.541131107894
 20
9035.837608685228
 30
0.0
 10
-5099.583860479641
 20
9035.799467814995
 30
0.0
 10
-5099.637590255601
 20
9035.770427347761
 30
0.0
 10
-5099.702489729577
 20
9035.749603919414
 30
0.0
 10
-5099.778961639611
 20
9035.738975334596
 30
0.0
 10
-5099.833470447265
 20
9035.737071644277
 30
0.0
 10
-5099.862532222421
 20
9035.736056677662
 30
0.0
  0
SPLINE
  5
D6
330
1F
100
AcDbEntity
  8
0
  6
Continuous
 62
     7
370
    25
100
AcDbSpline
210
0.0
220
0.0
230
1.0
 70
     8
 71
     3
 72
    15
 73
    11
 74
     0
 42
0.000000001
 43
0.00000001
 40
0.0
 40
0.0
 40
0.0
 40
0.0
 40
0.1210437057282681
 40
0.2311608615820555
 40
0.3345582471448683
 40
0.4404078971910744
 40
0.5564076305372616
 40
0.6855748386380103
 40
0.8323618927656209
 40
1.0
 40
1.0
 40
1.0
 40
1.0
 10
-5105.97199168188
 20
9036.003159718204
 30
0.0
 10
-5105.972989896823
 20
9035.982125353208
 30
0.0
 10
-5105.974896218386
 20
9035.941955383974
 30
0.0
 10
-5105.992497767309
 20
9035.885886384629
 30
0.0
 10
-5106.022609151299
 20
9035.838585758896
 30
0.0
 10
-5106.065198541122
 20
9035.800766565037
 30
0.0
 10
-5106.118304870659
 20
9035.770142170662
 30
0.0
 10
-5106.183629599258
 20
9035.749713911344
 30
0.0
 10
-5106.260024674156
 20
9035.73894157
 30
0.0
 10
-5106.314545252641
 20
9035.737059902598
 30
0.0
 10
-5106.343613303501
 20
9035.736056677662
 30
0.0
  0
SPLINE
  5
D7
330
1F
100
AcDbEntity
  8
0
  6
Continuous
 62
     7
370
    25
100
AcDbSpline
210
0.0
220
0.0
230
1.0
 70
     8
 71
     3
 72
    15
 73
    11
 74
     0
 42
0.000000001
 43
0.00000001
 40
0.0
 40
0.0
 40
0.0
 40
0.0
 40
0.1526075283706816
 40
0.2869925149660316
 40
0.4076393594010112
 40
0.5203370983718955
 40
0.6282469165428451
 40
0.7394778111328938
 40
0.862581966082393
 40
0.9999999999999999
 40
0.9999999999999999
 40
0.9999999999999999
 40
0.9999999999999999
 10
-5106.343613303501
 20
9035.736056677662
 30
0.0
 10
-5106.36688257835
 20
9035.737061267911
 30
0.0
 10
-5106.410642593215
 20
9035.73895049241
 30
0.0
 10
-5106.472151723867
 20
9035.749829533392
 30
0.0
 10
-5106.524814770457
 20
9035.770647241396
 30
0.0
 10
-5106.567261856554
 20
9035.801572753477
 30
0.0
 10
-5106.601211077542
 20
9035.839751588977
 30
0.0
 10
-5106.624836741154
 20
9035.88689378708
 30
0.0
 10
-5106.638616877048
 20
9035.94238386879
 30
0.0
 10
-5106.640118524527
 20
9035.982172400869
 30
0.0
 10
-5106.640910600799
 20
9036.003159718204
 30
0.0
  0
SPLINE
  5
DA
330
1F
100
AcDbEntity
  8
0
  6
Continuous
 62
     7
370
    25
100
AcDbSpline
210
0.0
220
0.0
230
1.0
 70
     8
 71
     3
 72
    11
 73
     7
 74
     0
 42
0.000000001
 43
0.00000001
 40
0.0
 40
0.0
 40
0.0
 40
0.0
 40
0.2516368596472158
 40
0.4870032659251693
 40
0.7307233482108546
 40
1.0
 40
1.0
 40
1.0
 40
1.0
 10
-5107.582739148095
 20
9038.375731508744
 30
0.0
 10
-5107.598800238829
 20
9038.351619023964
 30
0.0
 10
-5107.629883934803
 20
9038.304953130686
 30
0.0
 10
-5107.699430646221
 20
9038.256400174158
 30
0.0
 10
-5107.779695249073
 20
9038.223790411426
 30
0.0
 10
-5107.838642591222
 20
9038.221380132185
 30
0.0
 10
-5107.869584587284
 20
9038.22011495469
 30
0.0
  0
SPLINE
  5
DB
330
1F
100
AcDbEntity
  8
0
  6
Continuous
 62
     7
370
    25
100
AcDbSpline
210
0.0
220
0.0
230
1.0
 70
     8
 71
     3
 72
    11
 73
     7
 74
     0
 42
0.000000001
 43
0.00000001
 40
0.0
 40
0.0
 40
0.0
 40
0.0
 40
0.1881087695287904
 40
0.4007936744045396
 40
0.6678239016035779
 40
1.0
 40
1.0
 40
1.0
 40
1.0
 10
-5107.869584587284
 20
9038.22011495469
 30
0.0
 10
-5107.891996132822
 20
9038.223313336886
 30
0.0
 10
-5107.93974725951
 20
9038.230127965227
 30
0.0
 10
-5108.002664988885
 20
9038.283101120545
 30
0.0
 10
-5108.057302756621
 20
9038.362252198613
 30
0.0
 10
-5108.086708208274
 20
9038.426959292907
 30
0.0
 10
-5108.103009418365
 20
9038.462830326313
 30
0.0
  0
SPLINE
  5
DE
330
1F
100
AcDbEntity
  8
0
  6
Continuous
 62
     7
370
    25
100
AcDbSpline
210
0.0
220
0.0
230
1.0
 70
     8
 71
     3
 72
    15
 73
    11
 74
     0
 42
0.000000001
 43
0.00000001
 40
0.0
 40
0.0
 40
0.0
 40
0.0
 40
0.1210437057282712
 40
0.2311608615820355
 40
0.3345582471448511
 40
0.4404078971910598
 40
0.5564076305372502
 40
0.6855748386380021
 40
0.8323618927656166
 40
1.0
 40
1.0
 40
1.0
 40
1.0
 10
-5109.019288979177
 20
9036.003159718204
 30
0.0
 10
-5109.02028719412
 20
9035.982125353208
 30
0.0
 10
-5109.022193515683
 20
9035.941955383974
 30
0.0
 10
-5109.039795064607
 20
9035.885886384629
 30
0.0
 10
-5109.069906448596
 20
9035.838585758896
 30
0.0
 10
-5109.11249583842
 20
9035.800766565037
 30
0.0
 10
-5109.165602167956
 20
9035.770142170662
 30
0.0
 10
-5109.230926896556
 20
9035.749713911344
 30
0.0
 10
-5109.307321971453
 20
9035.73894157
 30
0.0
 10
-5109.361842549937
 20
9035.737059902598
 30
0.0
 10
-5109.390910600798
 20
9035.736056677662
 30
0.0
  0
SPLINE
  5
DF
330
1F
100
AcDbEntity
  8
0
  6
Continuous
 62
     7
370
    25
100
AcDbSpline
210
0.0
220
0.0
230
1.0
 70
     8
 71
     3
 72
    15
 73
    11
 74
     0
 42
0.000000001
 43
0.00000001
 40
0.0
 40
0.0
 40
0.0
 40
0.0
 40
0.1526075283706816
 40
0.2869925149660316
 40
0.4076393594010112
 40
0.5203370983718955
 40
0.6282469165428451
 40
0.7394778111328938
 40
0.862581966082393
 40
0.9999999999999999
 40
0.9999999999999999
 40
0.9999999999999999
 40
0.9999999999999999
 10
-5109.390910600798
 20
9035.736056677662
 30
0.0
 10
-5109.414179875647
 20
9035.737061267911
 30
0.0
 10
-5109.457939890513
 20
9035.73895049241
 30
0.0
 10
-5109.519449021164
 20
9035.749829533392
 30
0.0
 10
-5109.572112067754
 20
9035.770647241396
 30
0.0
 10
-5109.614559153851
 20
9035.801572753477
 30
0.0
 10
-5109.648508374838
 20
9035.839751588977
 30
0.0
 10
-5109.672134038451
 20
9035.88689378708
 30
0.0
 10
-5109.685914174345
 20
9035.94238386879
 30
0.0
 10
-5109.687415821824
 20
9035.982172400869
 30
0.0
 10
-5109.688207898095
 20
9036.003159718204
 30
0.0
  0
SPLINE
  5
E1
330
1F
100
AcDbEntity
  8
0
  6
Continuous
 62
     7
370
    25
100
AcDbSpline
210
0.0
220
0.0
230
1.0
 70
     8
 71
     3
 72
    15
 73
    11
 74
     0
 42
0.000000001
 43
0.00000001
 40
0.0
 40
0.0
 40
0.0
 40
0.0
 40
0.1463969612499611
 40
0.2763205008283214
 40
0.3952399998509578
 40
0.5062723465334976
 40
0.6153932164829766
 40
0.7308481721936013
 40
0.8560321007862317
 40
1.0
 40
1.0
 40
1.0
 40
1.0
 10
-5109.688207898095
 20
9041.011922387122
 30
0.0
 10
-5109.687497558304
 20
9041.035255645345
 30
0.0
 10
-5109.686156810209
 20
9041.079296570397
 30
0.0
 10
-5109.67142700112
 20
9041.140656981222
 30
0.0
 10
-5109.650640476681
 20
9041.194535584484
 30
0.0
 10
-5109.616593026331
 20
9041.23721060124
 30
0.0
 10
-5109.574765506867
 20
9041.271092075389
 30
0.0
 10
-5109.523547572778
 20
9041.294007002458
 30
0.0
 10
-5109.463684755395
 20
9041.30830645008
 30
0.0
 10
-5109.42081129501
 20
9041.309658042372
 30
0.0
 10
-5109.397878506205
 20
9041.310381001987
 30
0.0
  0
SPLINE
  5
E2
330
1F
100
AcDbEntity
  8
0
  6
Continuous
 62
     7
370
    25
100
AcDbSpline
210
0.0
220
0.0
230
1.0
 70
     8
 71
     3
 72
    11
 73
     7
 74
     0
 42
0.000000001
 43
0.00000001
 40
0.0
 40
0.0
 40
0.0
 40
0.0
 40
0.2501973168891461
 40
0.4922106594254777
 40
0.7370311125846706
 40
1.0
 40
1.0
 40
1.0
 40
1.0
 10
-5109.397878506205
 20
9041.310381001987
 30
0.0
 10
-5109.361535372119
 20
9041.30837480955
 30
0.0
 10
-5109.290037890787
 20
9041.304428047395
 30
0.0
 10
-5109.18892925804
 20
9041.266096158137
 30
0.0
 10
-5109.097596051766
 20
9041.205441699329
 30
0.0
 10
-5109.049066335615
 20
9041.149866809194
 30
0.0
 10
-5109.023934249446
 20
9041.121086238474
 30
0.0
  0
SPLINE
  5
E5
330
1F
100
AcDbEntity
  8
0
  6
Continuous
 62
     7
370
    25
100
AcDbSpline
210
0.0
220
0.0
230
1.0
 70
     8
 71
     3
 72
    11
 73
     7
 74
     0
 42
0.000000001
 43
0.00000001
 40
0.0
 40
0.0
 40
0.0
 40
0.0
 40
0.2757923378405248
 40
0.5246605758499553
 40
0.7599072587123963
 40
1.0
 40
1.0
 40
1.0
 40
1.0
 10
-5106.63045874269
 20
9041.152441812797
 30
0.0
 10
-5106.6098262463
 20
9041.176811025924
 30
0.0
 10
-5106.57057549147
 20
9041.223170418978
 30
0.0
 10
-5106.497285921016
 20
9041.272344663432
 30
0.0
 10
-5106.419584596285
 20
9041.30601969613
 30
0.0
 10
-5106.364479063417
 20
9041.308917386106
 30
0.0
 10
-5106.336645398095
 20
9041.310381001987
 30
0.0
  0
SPLINE
  5
E6
330
1F
100
AcDbEntity
  8
0
  6
Continuous
 62
     7
370
    25
100
AcDbSpline
210
0.0
220
0.0
230
1.0
 70
     8
 71
     3
 72
    15
 73
    11
 74
     0
 42
0.000000001
 43
0.00000001
 40
0.0
 40
0.0
 40
0.0
 40
0.0
 40
0.1598288012744603
 40
0.2981437540206707
 40
0.4223367313965246
 40
0.5366418418244899
 40
0.6434366182474669
 40
0.7534283282818549
 40
0.870149453013495
 40
1.0
 40
1.0
 40
1.0
 40
1.0
 10
-5106.336645398095
 20
9041.310381001987
 30
0.0
 10
-5106.307932972727
 20
9041.309644291132
 30
0.0
 10
-5106.254372974665
 20
9041.308270034817
 30
0.0
 10
-5106.179487076392
 20
9041.294320099745
 30
0.0
 10
-5106.115578048424
 20
9041.271255104204
 30
0.0
 10
-5106.061994958141
 20
9041.239033689844
 30
0.0
 10
-5106.020392307701
 20
9041.195384514593
 30
0.0
 10
-5105.993038733755
 20
9041.141548296699
 30
0.0
 10
-5105.974667905563
 20
9041.079683016262
 30
0.0
 10
-5105.972914871564
 20
9041.035297082664
 30
0.0
 10
-5105.97199168188
 20
9041.011922387122
 30
0.0
  0
CIRCLE
  5
E8
330
1F
100
AcDbEntity
  8
0
  6
Continuous
 62
     7
370
    25
100
AcDbCircle
 10
-5116.0658335999
 20
9031.4681988702
 30
0.0
 40
1.5
  0
CIRCLE
  5
E9
330
1F
100
AcDbEntity
  8
0
  6
Continuous
 62
     7
370
    25
100
AcDbCircle
 10
-5116.0658335999
 20
9031.4681988702
 30
0.0
 40
0.75
  0
SPLINE
  5
EF
330
1F
100
AcDbEntity
  8
0
  6
Continuous
 62
     7
370
    25
100
AcDbSpline
210
0.0
220
0.0
230
1.0
 70
     8
 71
     3
 72
     8
 73
     4
 74
     0
 42
0.000000001
 43
0.00000001
 40
0.8898305084745762
 40
0.8898305084745762
 40
0.8898305084745762
 40
0.8898305084745762
 40
0.8940677966101694
 40
0.8940677966101694
 40
0.8940677966101694
 40
0.8940677966101694
 10
-5110.707613708906
 20
9010.993191728852
 30
0.0
 10
-5111.269969708907
 20
9011.664598395519
 30
0.0
 10
-5111.269969708907
 20
9012.032475062184
 30
0.0
 10
-5110.707613708906
 20
9012.096821728852
 30
0.0
  0
SPLINE
  5
104
330
1F
100
AcDbEntity
  8
0
  6
Continuous
 62
     7
370
    25
100
AcDbSpline
210
0.0
220
0.0
230
1.0
 70
     8
 71
     3
 72
     8
 73
     4
 74
     0
 42
0.000000001
 43
0.00000001
 40
0.8008474576271186
 40
0.8008474576271186
 40
0.8008474576271186
 40
0.8008474576271186
 40
0.8050847457627118
 40
0.8050847457627118
 40
0.8050847457627118
 40
0.8050847457627118
 10
-5139.813854708907
 20
9008.073715728853
 30
0.0
 10
-5139.22931604224
 20
9008.527867728852
 30
0.0
 10
-5138.850559708906
 20
9008.809003395518
 30
0.0
 10
-5138.677585708907
 20
9008.917122728852
 30
0.0
  0
SPLINE
  5
105
330
1F
100
AcDbEntity
  8
0
  6
Continuous
 62
     7
370
    25
100
AcDbSpline
210
0.0
220
0.0
230
1.0
 70
     8
 71
     3
 72
     8
 73
     4
 74
     0
 42
0.000000001
 43
0.00000001
 40
0.7966101694915254
 40
0.7966101694915254
 40
0.7966101694915254
 40
0.7966101694915254
 40
0.8008474576271186
 40
0.8008474576271186
 40
0.8008474576271186
 40
0.8008474576271186
 10
-5141.662466708906
 20
9007.911409728851
 30
0.0
 10
-5140.991991375573
 20
9007.565038395518
 30
0.0
 10
-5140.375787375573
 20
9007.61914039552
 30
0.0
 10
-5139.813854708907
 20
9008.073715728853
 30
0.0
  0
SPLINE
  5
11A
330
1F
100
AcDbEntity
  8
0
  6
Continuous
 62
     7
370
    25
100
AcDbSpline
210
0.0
220
0.0
230
1.0
 70
     8
 71
     3
 72
     8
 73
     4
 74
     0
 42
0.000000001
 43
0.00000001
 40
0.7076271186440678
 40
0.7076271186440678
 40
0.7076271186440678
 40
0.7076271186440678
 40
0.711864406779661
 40
0.711864406779661
 40
0.711864406779661
 40
0.711864406779661
 10
-5146.626642708906
 20
9029.48832872885
 30
0.0
 10
-5146.626642708906
 20
9028.68805939552
 30
0.0
 10
-5146.594257708906
 20
9028.179847728852
 30
0.0
 10
-5146.529487708907
 20
9027.963693728852
 30
0.0
  0
SPLINE
  5
11B
330
1F
100
AcDbEntity
  8
0
  6
Continuous
 62
     7
370
    25
100
AcDbSpline
210
0.0
220
0.0
230
1.0
 70
     8
 71
     3
 72
     8
 73
     4
 74
     0
 42
0.000000001
 43
0.00000001
 40
0.7033898305084746
 40
0.7033898305084746
 40
0.7033898305084746
 40
0.7033898305084746
 40
0.7076271186440678
 40
0.7076271186440678
 40
0.7076271186440678
 40
0.7076271186440678
 10
-5147.470557708907
 20
9030.267346728851
 30
0.0
 10
-5146.907947708906
 20
9030.549117395518
 30
0.0
 10
-5146.626642708906
 20
9030.28944472885
 30
0.0
 10
-5146.626642708906
 20
9029.48832872885
 30
0.0
  0
SPLINE
  5
141
330
1F
100
AcDbEntity
  8
0
  6
Continuous
 62
     7
370
    25
100
AcDbSpline
210
0.0
220
0.0
230
1.0
 70
     8
 71
     3
 72
     8
 73
     4
 74
     0
 42
0.000000001
 43
0.00000001
 40
0.5423728813559322
 40
0.5423728813559322
 40
0.5423728813559322
 40
0.5423728813559322
 40
0.5466101694915254
 40
0.5466101694915254
 40
0.5466101694915254
 40
0.5466101694915254
 10
-5153.699399708907
 20
9071.636834728854
 30
0.0
 10
-5153.829193708906
 20
9071.182682728851
 30
0.0
 10
-5153.948150375573
 20
9070.761042728853
 30
0.0
 10
-5154.056269708906
 20
9070.371914728852
 30
0.0
  0
SPLINE
  5
142
330
1F
100
AcDbEntity
  8
0
  6
Continuous
 62
     7
370
    25
100
AcDbSpline
210
0.0
220
0.0
230
1.0
 70
     8
 71
     3
 72
     8
 73
     4
 74
     0
 42
0.000000001
 43
0.00000001
 40
0.538135593220339
 40
0.538135593220339
 40
0.538135593220339
 40
0.538135593220339
 40
0.5423728813559322
 40
0.5423728813559322
 40
0.5423728813559322
 40
0.5423728813559322
 10
-5152.694702708906
 20
9074.394766728852
 30
0.0
 10
-5153.25672004224
 20
9073.031633395518
 30
0.0
 10
-5153.591619042239
 20
9072.112322728852
 30
0.0
 10
-5153.699399708907
 20
9071.636834728854
 30
0.0
  0
SPLINE
  5
1D3
330
1F
100
AcDbEntity
  8
0
  6
Continuous
 62
     7
370
    25
100
AcDbSpline
210
0.0
220
0.0
230
1.0
 70
     8
 71
     3
 72
     8
 73
     4
 74
     0
 42
0.000000001
 43
0.00000001
 40
0.9194915254237288
 40
0.9194915254237288
 40
0.9194915254237288
 40
0.9194915254237288
 40
0.923728813559322
 40
0.923728813559322
 40
0.923728813559322
 40
0.923728813559322
 10
-5107.041377708906
 20
9010.539166728853
 30
0.0
 10
-5107.084981042241
 20
9009.868606728853
 30
0.0
 10
-5106.77141804224
 20
9009.219679062186
 30
0.0
 10
-5106.100688708906
 20
9008.592383728852
 30
0.0
  0
SPLINE
  5
1D4
330
1F
100
AcDbEntity
  8
0
  6
Continuous
 62
     7
370
    25
100
AcDbSpline
210
0.0
220
0.0
230
1.0
 70
     8
 71
     3
 72
     8
 73
     4
 74
     0
 42
0.000000001
 43
0.00000001
 40
0.9152542372881356
 40
0.9152542372881356
 40
0.9152542372881356
 40
0.9152542372881356
 40
0.9194915254237288
 40
0.9194915254237288
 40
0.9194915254237288
 40
0.9194915254237288
 10
-5107.625450708906
 20
9011.837614728853
 30
0.0
 10
-5107.171129375573
 20
9011.664048062185
 30
0.0
 10
-5106.976438375573
 20
9011.231232062186
 30
0.0
 10
-5107.041377708906
 20
9010.539166728853
 30
0.0
  0
LINE
  5
1D5
330
1F
100
AcDbEntity
  8
0
  6
Continuous
 62
     7
370
    25
100
AcDbLine
 10
-5122.7544241143
 20
9036.0298700223
 30
0.0
 11
-5122.7544241143
 21
9041.0432779614
 31
0.0
  0
LINE
  5
1D6
330
1F
100
AcDbEntity
  8
0
  6
Continuous
 62
     7
370
    25
100
AcDbLine
 10
-5122.0855051954
 20
9041.0432779614
 30
0.0
 11
-5122.0855051954
 21
9036.9740212047
 31
0.0
  0
LINE
  5
1D7
330
1F
100
AcDbEntity
  8
0
  6
Continuous
 62
     7
370
    25
100
AcDbLine
 10
-5119.7814511413
 20
9041.0188902925
 30
0.0
 11
-5119.7814511413
 21
9036.0751614074
 31
0.0
  0
LINE
  5
1D8
330
1F
100
AcDbEntity
  8
0
  6
Continuous
 62
     7
370
    25
100
AcDbLine
 10
-5120.4503700603
 20
9036.0740000898
 30
0.0
 11
-5120.4503700603
 21
9040.072416475
 31
0.0
  0
LINE
  5
1D9
330
1F
100
AcDbEntity
  8
0
  6
Continuous
 62
     7
370
    25
100
AcDbLine
 10
-5117.284153844
 20
9040.6414620831
 30
0.0
 11
-5118.1714004657
 21
9040.6414620831
 31
0.0
  0
LINE
  5
1DA
330
1F
100
AcDbEntity
  8
0
  6
Continuous
 62
     7
370
    25
100
AcDbLine
 10
-5118.1714004657
 20
9041.2360566777
 30
0.0
 11
-5115.7976673576
 21
9041.2360566777
 31
0.0
  0
LINE
  5
1DB
330
1F
100
AcDbEntity
  8
0
  6
Continuous
 62
     7
370
    25
100
AcDbLine
 10
-5115.7976673576
 20
9040.6414620831
 30
0.0
 11
-5116.6152349251
 21
9040.6414620831
 31
0.0
  0
LINE
  5
1DC
330
1F
100
AcDbEntity
  8
0
  6
Continuous
 62
     7
370
    25
100
AcDbLine
 10
-5116.6152349251
 20
9040.6414620831
 30
0.0
 11
-5116.6152349251
 21
9035.9985144479
 31
0.0
  0
LINE
  5
1DD
330
1F
100
AcDbEntity
  8
0
  6
Continuous
 62
     7
370
    25
100
AcDbLine
 10
-5117.284153844
 20
9035.9985144479
 30
0.0
 11
-5117.284153844
 21
9040.6414620831
 31
0.0
  0
LINE
  5
1DE
330
1F
100
AcDbEntity
  8
0
  6
Continuous
 62
     7
370
    25
100
AcDbLine
 10
-5112.4108008035
 20
9040.6414620831
 30
0.0
 11
-5112.7812611076
 21
9040.6414620831
 31
0.0
  0
LINE
  5
1DF
330
1F
100
AcDbEntity
  8
0
  6
Continuous
 62
     7
370
    25
100
AcDbLine
 10
-5113.3746943846
 20
9039.9725431641
 30
0.0
 11
-5113.3746943846
 21
9036.9995701912
 31
0.0
  0
LINE
  5
1E0
330
1F
100
AcDbEntity
  8
0
  6
Continuous
 62
     7
370
    25
100
AcDbLine
 10
-5112.7812611076
 20
9036.3306512723
 30
0.0
 11
-5112.4108008035
 21
9036.3306512723
 31
0.0
  0
LINE
  5
1E1
330
1F
100
AcDbEntity
  8
0
  6
Continuous
 62
     7
370
    25
100
AcDbLine
 10
-5111.7395592494
 20
9036.9995701912
 30
0.0
 11
-5111.7395592494
 21
9039.9725431641
 31
0.0
  0
LINE
  5
1E2
330
1F
100
AcDbEntity
  8
0
  6
Continuous
 62
     7
370
    25
100
AcDbLine
 10
-5112.4003489454
 20
9035.7360566777
 30
0.0
 11
-5112.7928742832
 21
9035.7360566777
 31
0.0
  0
LINE
  5
1E3
330
1F
100
AcDbEntity
  8
0
  6
Continuous
 62
     7
370
    25
100
AcDbLine
 10
-5114.0436133035
 20
9036.9566014412
 30
0.0
 11
-5114.0436133035
 21
9040.0155119141
 31
0.0
  0
LINE
  5
1E4
330
1F
100
AcDbEntity
  8
0
  6
Continuous
 62
     7
370
    25
100
AcDbLine
 10
-5112.7928742832
 20
9041.2360566777
 30
0.0
 11
-5112.4003489454
 21
9041.2360566777
 31
0.0
  0
LINE
  5
1E5
330
1F
100
AcDbEntity
  8
0
  6
Continuous
 62
     7
370
    25
100
AcDbLine
 10
-5111.0706403305
 20
9040.0155119141
 30
0.0
 11
-5111.0706403305
 21
9036.9566014412
 31
0.0
  0
LINE
  5
1E6
330
1F
100
AcDbEntity
  8
0
  6
Continuous
 62
     7
370
    25
100
AcDbLine
 10
-5124.2529883035
 20
9040.9654696844
 30
0.0
 11
-5125.4561133035
 21
9038.7055456979
 31
0.0
  0
LINE
  5
1E7
330
1F
100
AcDbEntity
  8
0
  6
Continuous
 62
     7
370
    25
100
AcDbLine
 10
-5125.4561133035
 20
9038.7055456979
 30
0.0
 11
-5124.262278844
 21
9036.1227754277
 31
0.0
  0
LINE
  5
1E8
330
1F
100
AcDbEntity
  8
0
  6
Continuous
 62
     7
370
    25
100
AcDbLine
 10
-5124.8115820535
 20
9035.8986411371
 30
0.0
 11
-5125.7719916819
 21
9038.4001191777
 31
0.0
  0
LINE
  5
1E9
330
1F
100
AcDbEntity
  8
0
  6
Continuous
 62
     7
370
    25
100
AcDbLine
 10
-5125.7719916819
 20
9038.4001191777
 30
0.0
 11
-5125.7719916819
 21
9036.0043210358
 31
0.0
  0
LINE
  5
1EA
330
1F
100
AcDbEntity
  8
0
  6
Continuous
 62
     7
370
    25
100
AcDbLine
 10
-5126.4409106008
 20
9036.0043210358
 30
0.0
 11
-5126.4409106008
 21
9038.3850220493
 31
0.0
  0
LINE
  5
1EB
330
1F
100
AcDbEntity
  8
0
  6
Continuous
 62
     7
370
    25
100
AcDbLine
 10
-5126.4409106008
 20
9038.3850220493
 30
0.0
 11
-5127.4024815467
 21
9035.8905119142
 31
0.0
  0
LINE
  5
1EC
330
1F
100
AcDbEntity
  8
0
  6
Continuous
 62
     7
370
    25
100
AcDbLine
 10
-5127.9506234386
 20
9036.1158075223
 30
0.0
 11
-5126.7486597562
 21
9038.6997391101
 31
0.0
  0
LINE
  5
1ED
330
1F
100
AcDbEntity
  8
0
  6
Continuous
 62
     7
370
    25
100
AcDbLine
 10
-5126.7486597562
 20
9038.6997391101
 30
0.0
 11
-5127.9448168508
 21
9040.9085651236
 31
0.0
  0
LINE
  5
1EE
330
1F
100
AcDbEntity
  8
0
  6
Continuous
 62
     7
370
    25
100
AcDbLine
 10
-5127.4106107697
 20
9041.1663776236
 30
0.0
 11
-5126.4409106008
 21
9039.024908029
 31
0.0
  0
LINE
  5
1EF
330
1F
100
AcDbEntity
  8
0
  6
Continuous
 62
     7
370
    25
100
AcDbLine
 10
-5126.4409106008
 20
9039.024908029
 30
0.0
 11
-5126.4409106008
 21
9041.0386326912
 31
0.0
  0
LINE
  5
1F0
330
1F
100
AcDbEntity
  8
0
  6
Continuous
 62
     7
370
    25
100
AcDbLine
 10
-5125.7719916819
 20
9041.0386326912
 30
0.0
 11
-5125.7719916819
 21
9039.0098109006
 31
0.0
  0
LINE
  5
1F1
330
1F
100
AcDbEntity
  8
0
  6
Continuous
 62
     7
370
    25
100
AcDbLine
 10
-5125.7719916819
 20
9039.0098109006
 30
0.0
 11
-5124.8057754657
 21
9041.1663776236
 31
0.0
  0
LINE
  5
1F2
330
1F
100
AcDbEntity
  8
0
  6
Continuous
 62
     7
370
    25
100
AcDbLine
 10
-5102.2111808711
 20
9036.0740000898
 30
0.0
 11
-5102.2111808711
 21
9040.072416475
 31
0.0
  0
LINE
  5
1F3
330
1F
100
AcDbEntity
  8
0
  6
Continuous
 62
     7
370
    25
100
AcDbLine
 10
-5104.5152349251
 20
9036.0298700223
 30
0.0
 11
-5104.5152349251
 21
9041.0432779614
 31
0.0
  0
LINE
  5
1F4
330
1F
100
AcDbEntity
  8
0
  6
Continuous
 62
     7
370
    25
100
AcDbLine
 10
-5103.8463160062
 20
9041.0432779614
 30
0.0
 11
-5103.8463160062
 21
9036.9740212047
 31
0.0
  0
LINE
  5
1F5
330
1F
100
AcDbEntity
  8
0
  6
Continuous
 62
     7
370
    25
100
AcDbLine
 10
-5101.5422619521
 20
9041.0188902925
 30
0.0
 11
-5101.5422619521
 21
9036.0751614074
 31
0.0
  0
LINE
  5
1F6
330
1F
100
AcDbEntity
  8
0
  6
Continuous
 62
     7
370
    25
100
AcDbLine
 10
-5097.8557754657
 20
9039.274591306
 30
0.0
 11
-5097.8557754657
 21
9039.9980921506
 31
0.0
  0
LINE
  5
1F7
330
1F
100
AcDbEntity
  8
0
  6
Continuous
 62
     7
370
    25
100
AcDbLine
 10
-5098.5270170197
 20
9040.6414620831
 30
0.0
 11
-5099.4909106008
 21
9040.6414620831
 31
0.0
  0
LINE
  5
1F8
330
1F
100
AcDbEntity
  8
0
  6
Continuous
 62
     7
370
    25
100
AcDbLine
 10
-5099.4909106008
 20
9040.6414620831
 30
0.0
 11
-5099.4909106008
 21
9038.6347053263
 31
0.0
  0
LINE
  5
1F9
330
1F
100
AcDbEntity
  8
0
  6
Continuous
 62
     7
370
    25
100
AcDbLine
 10
-5099.4909106008
 20
9038.6347053263
 30
0.0
 11
-5098.5270170197
 21
9038.6347053263
 31
0.0
  0
LINE
  5
1FA
330
1F
100
AcDbEntity
  8
0
  6
Continuous
 62
     7
370
    25
100
AcDbLine
 10
-5099.4909106008
 20
9038.0401107317
 30
0.0
 11
-5099.4909106008
 21
9036.0019984006
 31
0.0
  0
LINE
  5
1FB
330
1F
100
AcDbEntity
  8
0
  6
Continuous
 62
     7
370
    25
100
AcDbLine
 10
-5100.1598295197
 20
9036.0019984006
 30
0.0
 11
-5100.1598295197
 21
9040.9701149547
 31
0.0
  0
LINE
  5
1FC
330
1F
100
AcDbEntity
  8
0
  6
Continuous
 62
     7
370
    25
100
AcDbLine
 10
-5099.8892425265
 20
9041.2360566777
 30
0.0
 11
-5098.5165651616
 21
9041.2360566777
 31
0.0
  0
LINE
  5
1FD
330
1F
100
AcDbEntity
  8
0
  6
Continuous
 62
     7
370
    25
100
AcDbLine
 10
-5097.1868565467
 20
9040.0201571844
 30
0.0
 11
-5097.1868565467
 21
9039.2525262723
 31
0.0
  0
LINE
  5
1FE
330
1F
100
AcDbEntity
  8
0
  6
Continuous
 62
     7
370
    25
100
AcDbLine
 10
-5098.4898548576
 20
9038.0401107317
 30
0.0
 11
-5099.4909106008
 21
9038.0401107317
 31
0.0
  0
LINE
  5
1FF
330
1F
100
AcDbEntity
  8
0
  6
Continuous
 62
     7
370
    25
100
AcDbLine
 10
-5106.6409106008
 20
9036.0031597182
 30
0.0
 11
-5106.6409106008
 21
9040.2512593804
 31
0.0
  0
LINE
  5
200
330
1F
100
AcDbEntity
  8
0
  6
Continuous
 62
     7
370
    25
100
AcDbLine
 10
-5106.6409106008
 20
9040.2512593804
 30
0.0
 11
-5107.5827391481
 21
9038.3757315087
 31
0.0
  0
LINE
  5
201
330
1F
100
AcDbEntity
  8
0
  6
Continuous
 62
     7
370
    25
100
AcDbLine
 10
-5108.1030094184
 20
9038.4628303263
 30
0.0
 11
-5109.0192889792
 21
9040.2512593804
 31
0.0
  0
LINE
  5
202
330
1F
100
AcDbEntity
  8
0
  6
Continuous
 62
     7
370
    25
100
AcDbLine
 10
-5109.0192889792
 20
9040.2512593804
 30
0.0
 11
-5109.0192889792
 21
9036.0031597182
 31
0.0
  0
LINE
  5
203
330
1F
100
AcDbEntity
  8
0
  6
Continuous
 62
     7
370
    25
100
AcDbLine
 10
-5109.6882078981
 20
9036.0031597182
 30
0.0
 11
-5109.6882078981
 21
9041.0119223871
 31
0.0
  0
LINE
  5
204
330
1F
100
AcDbEntity
  8
0
  6
Continuous
 62
     7
370
    25
100
AcDbLine
 10
-5109.0239342494
 20
9041.1210862385
 30
0.0
 11
-5107.838229013
 21
9038.9482610696
 31
0.0
  0
LINE
  5
205
330
1F
100
AcDbEntity
  8
0
  6
Continuous
 62
     7
370
    25
100
AcDbLine
 10
-5107.838229013
 20
9038.9482610696
 30
0.0
 11
-5106.6304587427
 21
9041.1524418128
 31
0.0
  0
LINE
  5
206
330
1F
100
AcDbEntity
  8
0
  6
Continuous
 62
     7
370
    25
100
AcDbLine
 10
-5105.9719916819
 20
9041.0119223871
 30
0.0
 11
-5105.9719916819
 21
9036.0031597182
 31
0.0
  0
LINE
  5
207
330
1F
100
AcDbEntity
  8
0
  6
Continuous
 62
     7
370
    25
100
AcDbLine
 10
-5108.5667747089
 20
9011.8376147289
 30
0.0
 11
-5107.6254507089
 21
9011.8376147289
 31
0.0
  0
LINE
  5
208
330
1F
100
AcDbEntity
  8
0
  6
Continuous
 62
     7
370
    25
100
AcDbLine
 10
-5108.6641837089
 20
9012.9408637289
 30
0.0
 11
-5108.5667747089
 21
9011.8376147289
 31
0.0
  0
LINE
  5
209
330
1F
100
AcDbEntity
  8
0
  6
Continuous
 62
     7
370
    25
100
AcDbLine
 10
-5109.5080987089
 20
9013.0377647289
 30
0.0
 11
-5108.6641837089
 21
9012.9408637289
 31
0.0
  0
LINE
  5
20A
330
1F
100
AcDbEntity
  8
0
  6
Continuous
 62
     7
370
    25
100
AcDbLine
 10
-5109.8644607089
 20
9012.1622267289
 30
0.0
 11
-5109.5080987089
 21
9013.0377647289
 31
0.0
  0
LINE
  5
20B
330
1F
100
AcDbEntity
  8
0
  6
Continuous
 62
     7
370
    25
100
AcDbLine
 10
-5110.7076137089
 20
9012.0968217289
 30
0.0
 11
-5109.8644607089
 21
9012.1622267289
 31
0.0
  0
LINE
  5
20C
330
1F
100
AcDbEntity
  8
0
  6
Continuous
 62
     7
370
    25
100
AcDbLine
 10
-5112.5898807089
 20
9011.1563867289
 30
0.0
 11
-5110.7076137089
 21
9010.9931917289
 31
0.0
  0
LINE
  5
20D
330
1F
100
AcDbEntity
  8
0
  6
Continuous
 62
     7
370
    25
100
AcDbLine
 10
-5112.7516787089
 20
9011.0587237289
 30
0.0
 11
-5112.5898807089
 21
9011.1563867289
 31
0.0
  0
LINE
  5
20E
330
1F
100
AcDbEntity
  8
0
  6
Continuous
 62
     7
370
    25
100
AcDbLine
 10
-5113.5309507089
 20
9008.9171227289
 30
0.0
 11
-5112.7516787089
 21
9011.0587237289
 31
0.0
  0
LINE
  5
20F
330
1F
100
AcDbEntity
  8
0
  6
Continuous
 62
     7
370
    25
100
AcDbLine
 10
-5114.9591927089
 20
9009.0146587289
 30
0.0
 11
-5113.5309507089
 21
9008.9171227289
 31
0.0
  0
LINE
  5
210
330
1F
100
AcDbEntity
  8
0
  6
Continuous
 62
     7
370
    25
100
AcDbLine
 10
-5115.8986117089
 20
9010.2145547289
 30
0.0
 11
-5114.9591927089
 21
9009.0146587289
 31
0.0
  0
LINE
  5
211
330
1F
100
AcDbEntity
  8
0
  6
Continuous
 62
     7
370
    25
100
AcDbLine
 10
-5117.0024957089
 20
9009.7930417289
 30
0.0
 11
-5115.8986117089
 21
9010.2145547289
 31
0.0
  0
LINE
  5
212
330
1F
100
AcDbEntity
  8
0
  6
Continuous
 62
     7
370
    25
100
AcDbLine
 10
-5117.8793037089
 20
9008.0737157289
 30
0.0
 11
-5117.0024957089
 21
9009.7930417289
 31
0.0
  0
LINE
  5
213
330
1F
100
AcDbEntity
  8
0
  6
Continuous
 62
     7
370
    25
100
AcDbLine
 10
-5118.4629957089
 20
9007.9114097289
 30
0.0
 11
-5117.8793037089
 21
9008.0737157289
 31
0.0
  0
LINE
  5
214
330
1F
100
AcDbEntity
  8
0
  6
Continuous
 62
     7
370
    25
100
AcDbLine
 10
-5120.2475997089
 20
9010.0525027289
 30
0.0
 11
-5118.4629957089
 21
9007.9114097289
 31
0.0
  0
LINE
  5
215
330
1F
100
AcDbEntity
  8
0
  6
Continuous
 62
     7
370
    25
100
AcDbLine
 10
-5121.1889237089
 20
9009.4357907289
 30
0.0
 11
-5120.2475997089
 21
9010.0525027289
 31
0.0
  0
LINE
  5
216
330
1F
100
AcDbEntity
  8
0
  6
Continuous
 62
     7
370
    25
100
AcDbLine
 10
-5121.9673067089
 20
9010.3123447289
 30
0.0
 11
-5121.1889237089
 21
9009.4357907289
 31
0.0
  0
LINE
  5
217
330
1F
100
AcDbEntity
  8
0
  6
Continuous
 62
     7
370
    25
100
AcDbLine
 10
-5122.9077417089
 20
9010.3771147289
 30
0.0
 11
-5121.9673067089
 21
9010.3123447289
 31
0.0
  0
LINE
  5
218
330
1F
100
AcDbEntity
  8
0
  6
Continuous
 62
     7
370
    25
100
AcDbLine
 10
-5123.5897317089
 20
9008.4953557289
 30
0.0
 11
-5122.9077417089
 21
9010.3771147289
 31
0.0
  0
LINE
  5
219
330
1F
100
AcDbEntity
  8
0
  6
Continuous
 62
     7
370
    25
100
AcDbLine
 10
-5128.2936847089
 20
9010.3771147289
 30
0.0
 11
-5123.5897317089
 21
9008.4953557289
 31
0.0
  0
LINE
  5
21A
330
1F
100
AcDbEntity
  8
0
  6
Continuous
 62
     7
370
    25
100
AcDbLine
 10
-5128.8782657089
 20
9009.3719097289
 30
0.0
 11
-5128.2936847089
 21
9010.3771147289
 31
0.0
  0
LINE
  5
21B
330
1F
100
AcDbEntity
  8
0
  6
Continuous
 62
     7
370
    25
100
AcDbLine
 10
-5131.5386617089
 20
9008.9171227289
 30
0.0
 11
-5128.8782657089
 21
9009.3719097289
 31
0.0
  0
LINE
  5
21C
330
1F
100
AcDbEntity
  8
0
  6
Continuous
 62
     7
370
    25
100
AcDbLine
 10
-5132.3821957089
 20
9008.1711247289
 30
0.0
 11
-5131.5386617089
 21
9008.9171227289
 31
0.0
  0
LINE
  5
21D
330
1F
100
AcDbEntity
  8
0
  6
Continuous
 62
     7
370
    25
100
AcDbLine
 10
-5136.9896287089
 20
9008.0737157289
 30
0.0
 11
-5132.3821957089
 21
9008.1711247289
 31
0.0
  0
LINE
  5
21E
330
1F
100
AcDbEntity
  8
0
  6
Continuous
 62
     7
370
    25
100
AcDbLine
 10
-5136.8927277089
 20
9008.5923837289
 30
0.0
 11
-5136.9896287089
 21
9008.0737157289
 31
0.0
  0
LINE
  5
21F
330
1F
100
AcDbEntity
  8
0
  6
Continuous
 62
     7
370
    25
100
AcDbLine
 10
-5138.6775857089
 20
9008.9171227289
 30
0.0
 11
-5136.8927277089
 21
9008.5923837289
 31
0.0
  0
LINE
  5
220
330
1F
100
AcDbEntity
  8
0
  6
Continuous
 62
     7
370
    25
100
AcDbLine
 10
-5142.0188287089
 20
9007.1328997289
 30
0.0
 11
-5141.6624667089
 21
9007.9114097289
 31
0.0
  0
LINE
  5
221
330
1F
100
AcDbEntity
  8
0
  6
Continuous
 62
     7
370
    25
100
AcDbLine
 10
-5143.4797097089
 20
9006.7111327289
 30
0.0
 11
-5142.0188287089
 21
9007.1328997289
 31
0.0
  0
LINE
  5
222
330
1F
100
AcDbEntity
  8
0
  6
Continuous
 62
     7
370
    25
100
AcDbLine
 10
-5144.2258347089
 20
9007.7488497289
 30
0.0
 11
-5143.4797097089
 21
9006.7111327289
 31
0.0
  0
LINE
  5
223
330
1F
100
AcDbEntity
  8
0
  6
Continuous
 62
     7
370
    25
100
AcDbLine
 10
-5146.4638287089
 20
9010.7343657289
 30
0.0
 11
-5144.2258347089
 21
9007.7488497289
 31
0.0
  0
LINE
  5
224
330
1F
100
AcDbEntity
  8
0
  6
Continuous
 62
     7
370
    25
100
AcDbLine
 10
-5147.6648677089
 20
9013.4592777289
 30
0.0
 11
-5146.4638287089
 21
9010.7343657289
 31
0.0
  0
LINE
  5
225
330
1F
100
AcDbEntity
  8
0
  6
Continuous
 62
     7
370
    25
100
AcDbLine
 10
-5147.5670777089
 20
9015.2437547289
 30
0.0
 11
-5147.6648677089
 21
9013.4592777289
 31
0.0
  0
LINE
  5
226
330
1F
100
AcDbEntity
  8
0
  6
Continuous
 62
     7
370
    25
100
AcDbLine
 10
-5149.5142417089
 20
9015.3415447289
 30
0.0
 11
-5147.5670777089
 21
9015.2437547289
 31
0.0
  0
LINE
  5
227
330
1F
100
AcDbEntity
  8
0
  6
Continuous
 62
     7
370
    25
100
AcDbLine
 10
-5149.0924747089
 20
9019.1698327289
 30
0.0
 11
-5149.5142417089
 21
9015.3415447289
 31
0.0
  0
LINE
  5
228
330
1F
100
AcDbEntity
  8
0
  6
Continuous
 62
     7
370
    25
100
AcDbLine
 10
-5150.0336717089
 20
9020.2737167289
 30
0.0
 11
-5149.0924747089
 21
9019.1698327289
 31
0.0
  0
LINE
  5
229
330
1F
100
AcDbEntity
  8
0
  6
Continuous
 62
     7
370
    25
100
AcDbLine
 10
-5149.7094407089
 20
9021.2142787289
 30
0.0
 11
-5150.0336717089
 21
9020.2737167289
 31
0.0
  0
LINE
  5
22A
330
1F
100
AcDbEntity
  8
0
  6
Continuous
 62
     7
370
    25
100
AcDbLine
 10
-5147.8919437089
 20
9020.1110297289
 30
0.0
 11
-5149.7094407089
 21
9021.2142787289
 31
0.0
  0
LINE
  5
22B
330
1F
100
AcDbEntity
  8
0
  6
Continuous
 62
     7
370
    25
100
AcDbLine
 10
-5146.9836397089
 20
9020.9548177289
 30
0.0
 11
-5147.8919437089
 21
9020.1110297289
 31
0.0
  0
LINE
  5
22C
330
1F
100
AcDbEntity
  8
0
  6
Continuous
 62
     7
370
    25
100
AcDbLine
 10
-5144.7450107089
 20
9021.0518457289
 30
0.0
 11
-5146.9836397089
 21
9020.9548177289
 31
0.0
  0
LINE
  5
22D
330
1F
100
AcDbEntity
  8
0
  6
Continuous
 62
     7
370
    25
100
AcDbLine
 10
-5145.3618497089
 20
9021.8958877289
 30
0.0
 11
-5144.7450107089
 21
9021.0518457289
 31
0.0
  0
LINE
  5
22E
330
1F
100
AcDbEntity
  8
0
  6
Continuous
 62
     7
370
    25
100
AcDbLine
 10
-5145.1023887089
 20
9022.7718067289
 30
0.0
 11
-5145.3618497089
 21
9021.8958877289
 31
0.0
  0
LINE
  5
22F
330
1F
100
AcDbEntity
  8
0
  6
Continuous
 62
     7
370
    25
100
AcDbLine
 10
-5146.8864847089
 20
9023.6149597289
 30
0.0
 11
-5145.1023887089
 21
9022.7718067289
 31
0.0
  0
LINE
  5
230
330
1F
100
AcDbEntity
  8
0
  6
Continuous
 62
     7
370
    25
100
AcDbLine
 10
-5146.7239247089
 20
9026.4386777289
 30
0.0
 11
-5146.8864847089
 21
9023.6149597289
 31
0.0
  0
LINE
  5
231
330
1F
100
AcDbEntity
  8
0
  6
Continuous
 62
     7
370
    25
100
AcDbLine
 10
-5145.2643137089
 20
9026.8604447289
 30
0.0
 11
-5146.7239247089
 21
9026.4386777289
 31
0.0
  0
LINE
  5
232
330
1F
100
AcDbEntity
  8
0
  6
Continuous
 62
     7
370
    25
100
AcDbLine
 10
-5145.2643137089
 20
9029.0019187289
 30
0.0
 11
-5145.2643137089
 21
9026.8604447289
 31
0.0
  0
LINE
  5
233
330
1F
100
AcDbEntity
  8
0
  6
Continuous
 62
     7
370
    25
100
AcDbLine
 10
-5146.5294877089
 20
9027.9636937289
 30
0.0
 11
-5145.2643137089
 21
9029.0019187289
 31
0.0
  0
LINE
  5
234
330
1F
100
AcDbEntity
  8
0
  6
Continuous
 62
     7
370
    25
100
AcDbLine
 10
-5147.1456917089
 20
9031.7270847289
 30
0.0
 11
-5147.4705577089
 21
9030.2673467289
 31
0.0
  0
LINE
  5
235
330
1F
100
AcDbEntity
  8
0
  6
Continuous
 62
     7
370
    25
100
AcDbLine
 10
-5147.9890987089
 20
9032.0518237289
 30
0.0
 11
-5147.1456917089
 21
9031.7270847289
 31
0.0
  0
LINE
  5
236
330
1F
100
AcDbEntity
  8
0
  6
Continuous
 62
     7
370
    25
100
AcDbLine
 10
-5148.4112467089
 20
9031.3055717289
 30
0.0
 11
-5147.9890987089
 21
9032.0518237289
 31
0.0
  0
LINE
  5
237
330
1F
100
AcDbEntity
  8
0
  6
Continuous
 62
     7
370
    25
100
AcDbLine
 10
-5149.1891217089
 20
9031.4676237289
 30
0.0
 11
-5148.4112467089
 21
9031.3055717289
 31
0.0
  0
LINE
  5
238
330
1F
100
AcDbEntity
  8
0
  6
Continuous
 62
     7
370
    25
100
AcDbLine
 10
-5149.7748457089
 20
9031.1102457289
 30
0.0
 11
-5149.1891217089
 21
9031.4676237289
 31
0.0
  0
LINE
  5
239
330
1F
100
AcDbEntity
  8
0
  6
Continuous
 62
     7
370
    25
100
AcDbLine
 10
-5150.4560737089
 20
9030.9479397289
 30
0.0
 11
-5149.7748457089
 21
9031.1102457289
 31
0.0
  0
LINE
  5
23A
330
1F
100
AcDbEntity
  8
0
  6
Continuous
 62
     7
370
    25
100
AcDbLine
 10
-5150.6500027089
 20
9032.1489787289
 30
0.0
 11
-5150.4560737089
 21
9030.9479397289
 31
0.0
  0
LINE
  5
23B
330
1F
100
AcDbEntity
  8
0
  6
Continuous
 62
     7
370
    25
100
AcDbLine
 10
-5151.9151767089
 20
9032.1489787289
 30
0.0
 11
-5150.6500027089
 21
9032.1489787289
 31
0.0
  0
LINE
  5
23C
330
1F
100
AcDbEntity
  8
0
  6
Continuous
 62
     7
370
    25
100
AcDbLine
 10
-5153.0186797089
 20
9033.2526087289
 30
0.0
 11
-5151.9151767089
 21
9032.1489787289
 31
0.0
  0
LINE
  5
23D
330
1F
100
AcDbEntity
  8
0
  6
Continuous
 62
     7
370
    25
100
AcDbLine
 10
-5152.9536557089
 20
9034.2901987289
 30
0.0
 11
-5153.0186797089
 21
9033.2526087289
 31
0.0
  0
LINE
  5
23E
330
1F
100
AcDbEntity
  8
0
  6
Continuous
 62
     7
370
    25
100
AcDbLine
 10
-5153.7968087089
 20
9034.8745257289
 30
0.0
 11
-5152.9536557089
 21
9034.2901987289
 31
0.0
  0
LINE
  5
23F
330
1F
100
AcDbEntity
  8
0
  6
Continuous
 62
     7
370
    25
100
AcDbLine
 10
-5155.8417627089
 20
9035.5558807289
 30
0.0
 11
-5153.7968087089
 21
9034.8745257289
 31
0.0
  0
LINE
  5
240
330
1F
100
AcDbEntity
  8
0
  6
Continuous
 62
     7
370
    25
100
AcDbLine
 10
-5155.6794567089
 20
9037.7623787289
 30
0.0
 11
-5155.8417627089
 21
9035.5558807289
 31
0.0
  0
LINE
  5
241
330
1F
100
AcDbEntity
  8
0
  6
Continuous
 62
     7
370
    25
100
AcDbLine
 10
-5157.7233947089
 20
9039.3191447289
 30
0.0
 11
-5155.6794567089
 21
9037.7623787289
 31
0.0
  0
LINE
  5
242
330
1F
100
AcDbEntity
  8
0
  6
Continuous
 62
     7
370
    25
100
AcDbLine
 10
-5155.4194877089
 20
9043.9273397289
 30
0.0
 11
-5157.7233947089
 21
9039.3191447289
 31
0.0
  0
LINE
  5
243
330
1F
100
AcDbEntity
  8
0
  6
Continuous
 62
     7
370
    25
100
AcDbLine
 10
-5156.6198917089
 20
9043.9273397289
 30
0.0
 11
-5155.4194877089
 21
9043.9273397289
 31
0.0
  0
LINE
  5
244
330
1F
100
AcDbEntity
  8
0
  6
Continuous
 62
     7
370
    25
100
AcDbLine
 10
-5156.8804957089
 20
9044.9331797289
 30
0.0
 11
-5156.6198917089
 21
9043.9273397289
 31
0.0
  0
LINE
  5
245
330
1F
100
AcDbEntity
  8
0
  6
Continuous
 62
     7
370
    25
100
AcDbLine
 10
-5158.0476257089
 20
9045.3549467289
 30
0.0
 11
-5156.8804957089
 21
9044.9331797289
 31
0.0
  0
LINE
  5
246
330
1F
100
AcDbEntity
  8
0
  6
Continuous
 62
     7
370
    25
100
AcDbLine
 10
-5158.4697737089
 20
9046.8797087289
 30
0.0
 11
-5158.0476257089
 21
9045.3549467289
 31
0.0
  0
LINE
  5
247
330
1F
100
AcDbEntity
  8
0
  6
Continuous
 62
     7
370
    25
100
AcDbLine
 10
-5157.5614697089
 20
9047.1724437289
 30
0.0
 11
-5158.4697737089
 21
9046.8797087289
 31
0.0
  0
LINE
  5
248
330
1F
100
AcDbEntity
  8
0
  6
Continuous
 62
     7
370
    25
100
AcDbLine
 10
-5157.7233947089
 20
9049.6372597289
 30
0.0
 11
-5157.5614697089
 21
9047.1724437289
 31
0.0
  0
LINE
  5
249
330
1F
100
AcDbEntity
  8
0
  6
Continuous
 62
     7
370
    25
100
AcDbLine
 10
-5158.5669287089
 20
9049.3780527289
 30
0.0
 11
-5157.7233947089
 21
9049.6372597289
 31
0.0
  0
LINE
  5
24A
330
1F
100
AcDbEntity
  8
0
  6
Continuous
 62
     7
370
    25
100
AcDbLine
 10
-5159.5077447089
 20
9050.1573247289
 30
0.0
 11
-5158.5669287089
 21
9049.3780527289
 31
0.0
  0
LINE
  5
24B
330
1F
100
AcDbEntity
  8
0
  6
Continuous
 62
     7
370
    25
100
AcDbLine
 10
-5158.2423167089
 20
9051.1627837289
 30
0.0
 11
-5159.5077447089
 21
9050.1573247289
 31
0.0
  0
LINE
  5
24C
330
1F
100
AcDbEntity
  8
0
  6
Continuous
 62
     7
370
    25
100
AcDbLine
 10
-5157.8206767089
 20
9052.5262557289
 30
0.0
 11
-5158.2423167089
 21
9051.1627837289
 31
0.0
  0
LINE
  5
24D
330
1F
100
AcDbEntity
  8
0
  6
Continuous
 62
     7
370
    25
100
AcDbLine
 10
-5156.7824517089
 20
9053.6612547289
 30
0.0
 11
-5157.8206767089
 21
9052.5262557289
 31
0.0
  0
LINE
  5
24E
330
1F
100
AcDbEntity
  8
0
  6
Continuous
 62
     7
370
    25
100
AcDbLine
 10
-5156.4257087089
 20
9053.9854857289
 30
0.0
 11
-5156.7824517089
 21
9053.6612547289
 31
0.0
  0
LINE
  5
24F
330
1F
100
AcDbEntity
  8
0
  6
Continuous
 62
     7
370
    25
100
AcDbLine
 10
-5155.5819207089
 20
9055.6082917289
 30
0.0
 11
-5156.4257087089
 21
9053.9854857289
 31
0.0
  0
LINE
  5
250
330
1F
100
AcDbEntity
  8
0
  6
Continuous
 62
     7
370
    25
100
AcDbLine
 10
-5155.9386637089
 20
9057.3931497289
 30
0.0
 11
-5155.5819207089
 21
9055.6082917289
 31
0.0
  0
LINE
  5
251
330
1F
100
AcDbEntity
  8
0
  6
Continuous
 62
     7
370
    25
100
AcDbLine
 10
-5156.6198917089
 20
9059.5337347289
 30
0.0
 11
-5155.9386637089
 21
9057.3931497289
 31
0.0
  0
LINE
  5
252
330
1F
100
AcDbEntity
  8
0
  6
Continuous
 62
     7
370
    25
100
AcDbLine
 10
-5156.0034337089
 20
9062.0005827289
 30
0.0
 11
-5156.6198917089
 21
9059.5337347289
 31
0.0
  0
LINE
  5
253
330
1F
100
AcDbEntity
  8
0
  6
Continuous
 62
     7
370
    25
100
AcDbLine
 10
-5156.1981247089
 20
9063.1035777289
 30
0.0
 11
-5156.0034337089
 21
9062.0005827289
 31
0.0
  0
LINE
  5
254
330
1F
100
AcDbEntity
  8
0
  6
Continuous
 62
     7
370
    25
100
AcDbLine
 10
-5157.2044727089
 20
9064.4985457289
 30
0.0
 11
-5156.1981247089
 21
9063.1035777289
 31
0.0
  0
LINE
  5
255
330
1F
100
AcDbEntity
  8
0
  6
Continuous
 62
     7
370
    25
100
AcDbLine
 10
-5156.3604307089
 20
9065.3427147289
 30
0.0
 11
-5157.2044727089
 21
9064.4985457289
 31
0.0
  0
LINE
  5
256
330
1F
100
AcDbEntity
  8
0
  6
Continuous
 62
     7
370
    25
100
AcDbLine
 10
-5157.4639337089
 20
9068.4241157289
 30
0.0
 11
-5156.3604307089
 21
9065.3427147289
 31
0.0
  0
LINE
  5
257
330
1F
100
AcDbEntity
  8
0
  6
Continuous
 62
     7
370
    25
100
AcDbLine
 10
-5156.1012237089
 20
9069.5271107289
 30
0.0
 11
-5157.4639337089
 21
9068.4241157289
 31
0.0
  0
LINE
  5
258
330
1F
100
AcDbEntity
  8
0
  6
Continuous
 62
     7
370
    25
100
AcDbLine
 10
-5154.0562697089
 20
9070.3719147289
 30
0.0
 11
-5156.1012237089
 21
9069.5271107289
 31
0.0
  0
LINE
  5
259
330
1F
100
AcDbEntity
  8
0
  6
Continuous
 62
     7
370
    25
100
AcDbLine
 10
-5150.8130707089
 20
9076.8602177289
 30
0.0
 11
-5152.6947027089
 21
9074.3947667289
 31
0.0
  0
LINE
  5
25A
330
1F
100
AcDbEntity
  8
0
  6
Continuous
 62
     7
370
    25
100
AcDbLine
 10
-5148.7678627089
 20
9078.3858687289
 30
0.0
 11
-5150.8130707089
 21
9076.8602177289
 31
0.0
  0
LINE
  5
25B
330
1F
100
AcDbEntity
  8
0
  6
Continuous
 62
     7
370
    25
100
AcDbLine
 10
-5149.6116507089
 20
9081.9874617289
 30
0.0
 11
-5148.7678627089
 21
9078.3858687289
 31
0.0
  0
LINE
  5
25C
330
1F
100
AcDbEntity
  8
0
  6
Continuous
 62
     7
370
    25
100
AcDbLine
 10
-5147.4051527089
 20
9082.7338407289
 30
0.0
 11
-5149.6116507089
 21
9081.9874617289
 31
0.0
  0
LINE
  5
25D
330
1F
100
AcDbEntity
  8
0
  6
Continuous
 62
     7
370
    25
100
AcDbLine
 10
-5146.8864847089
 20
9084.3563927289
 30
0.0
 11
-5147.4051527089
 21
9082.7338407289
 31
0.0
  0
LINE
  5
25E
330
1F
100
AcDbEntity
  8
0
  6
Continuous
 62
     7
370
    25
100
AcDbLine
 10
-5147.4705577089
 20
9084.7775247289
 30
0.0
 11
-5146.8864847089
 21
9084.3563927289
 31
0.0
  0
LINE
  5
25F
330
1F
100
AcDbEntity
  8
0
  6
Continuous
 62
     7
370
    25
100
AcDbLine
 10
-5147.8919437089
 20
9087.2762497289
 30
0.0
 11
-5147.4705577089
 21
9084.7775247289
 31
0.0
  0
LINE
  5
260
330
1F
100
AcDbEntity
  8
0
  6
Continuous
 62
     7
370
    25
100
AcDbLine
 10
-5147.3086327089
 20
9088.6393407289
 30
0.0
 11
-5147.8919437089
 21
9087.2762497289
 31
0.0
  0
LINE
  5
261
330
1F
100
AcDbEntity
  8
0
  6
Continuous
 62
     7
370
    25
100
AcDbLine
 10
-5146.7239247089
 20
9088.5410427289
 30
0.0
 11
-5147.3086327089
 21
9088.6393407289
 31
0.0
  0
LINE
  5
262
330
1F
100
AcDbEntity
  8
0
  6
Continuous
 62
     7
370
    25
100
AcDbLine
 10
-5146.5294877089
 20
9087.8605767289
 30
0.0
 11
-5146.7239247089
 21
9088.5410427289
 31
0.0
  0
LINE
  5
263
330
1F
100
AcDbEntity
  8
0
  6
Continuous
 62
     7
370
    25
100
AcDbLine
 10
-5145.7828547089
 20
9087.0156457289
 30
0.0
 11
-5146.5294877089
 21
9087.8605767289
 31
0.0
  0
LINE
  5
264
330
1F
100
AcDbEntity
  8
0
  6
Continuous
 62
     7
370
    25
100
AcDbLine
 10
-5144.1600487089
 20
9086.2377707289
 30
0.0
 11
-5145.7828547089
 21
9087.0156457289
 31
0.0
  0
LINE
  5
265
330
1F
100
AcDbEntity
  8
0
  6
Continuous
 62
     7
370
    25
100
AcDbLine
 10
-5144.0635287089
 20
9087.3410197289
 30
0.0
 11
-5144.1600487089
 21
9086.2377707289
 31
0.0
  0
LINE
  5
266
330
1F
100
AcDbEntity
  8
0
  6
Continuous
 62
     7
370
    25
100
AcDbLine
 10
-5144.8421657089
 20
9087.5360917289
 30
0.0
 11
-5144.0635287089
 21
9087.3410197289
 31
0.0
  0
LINE
  5
267
330
1F
100
AcDbEntity
  8
0
  6
Continuous
 62
     7
370
    25
100
AcDbLine
 10
-5144.9070627089
 20
9090.0011617289
 30
0.0
 11
-5144.8421657089
 21
9087.5360917289
 31
0.0
  0
LINE
  5
268
330
1F
100
AcDbEntity
  8
0
  6
Continuous
 62
     7
370
    25
100
AcDbLine
 10
-5143.9012227089
 20
9090.7810687289
 30
0.0
 11
-5144.9070627089
 21
9090.0011617289
 31
0.0
  0
LINE
  5
269
330
1F
100
AcDbEntity
  8
0
  6
Continuous
 62
     7
370
    25
100
AcDbLine
 10
-5141.7600027089
 20
9090.7810687289
 30
0.0
 11
-5143.9012227089
 21
9090.7810687289
 31
0.0
  0
LINE
  5
26A
330
1F
100
AcDbEntity
  8
0
  6
Continuous
 62
     7
370
    25
100
AcDbLine
 10
-5139.8772277089
 20
9089.5796487289
 30
0.0
 11
-5141.7600027089
 21
9090.7810687289
 31
0.0
  0
LINE
  5
26B
330
1F
100
AcDbEntity
  8
0
  6
Continuous
 62
     7
370
    25
100
AcDbLine
 10
-5138.4502557089
 20
9091.6237137289
 30
0.0
 11
-5139.8772277089
 21
9089.5796487289
 31
0.0
  0
LINE
  5
26C
330
1F
100
AcDbEntity
  8
0
  6
Continuous
 62
     7
370
    25
100
AcDbLine
 10
-5136.7299137089
 20
9092.3058307289
 30
0.0
 11
-5138.4502557089
 21
9091.6237137289
 31
0.0
  0
LINE
  5
26D
330
1F
100
AcDbEntity
  8
0
  6
Continuous
 62
     7
370
    25
100
AcDbLine
 10
-5136.3726627089
 20
9095.5496647289
 30
0.0
 11
-5136.7299137089
 21
9092.3058307289
 31
0.0
  0
LINE
  5
26E
330
1F
100
AcDbEntity
  8
0
  6
Continuous
 62
     7
370
    25
100
AcDbLine
 10
-5134.8490437089
 20
9095.8100147289
 30
0.0
 11
-5136.3726627089
 21
9095.5496647289
 31
0.0
  0
LINE
  5
26F
330
1F
100
AcDbEntity
  8
0
  6
Continuous
 62
     7
370
    25
100
AcDbLine
 10
-5133.6483857089
 20
9094.3497687289
 30
0.0
 11
-5134.8490437089
 21
9095.8100147289
 31
0.0
  0
LINE
  5
270
330
1F
100
AcDbEntity
  8
0
  6
Continuous
 62
     7
370
    25
100
AcDbLine
 10
-5133.3876547089
 20
9093.2465197289
 30
0.0
 11
-5133.6483857089
 21
9094.3497687289
 31
0.0
  0
LINE
  5
271
330
1F
100
AcDbEntity
  8
0
  6
Continuous
 62
     7
370
    25
100
AcDbLine
 10
-5129.1368377089
 20
9093.3114167289
 30
0.0
 11
-5133.3876547089
 21
9093.2465197289
 31
0.0
  0
LINE
  5
272
330
1F
100
AcDbEntity
  8
0
  6
Continuous
 62
     7
370
    25
100
AcDbLine
 10
-5125.0499777089
 20
9097.8543337289
 30
0.0
 11
-5129.1368377089
 21
9093.3114167289
 31
0.0
  0
LINE
  5
273
330
1F
100
AcDbEntity
  8
0
  6
Continuous
 62
     7
370
    25
100
AcDbLine
 10
-5124.1080187089
 20
9097.4310427289
 30
0.0
 11
-5125.0499777089
 21
9097.8543337289
 31
0.0
  0
LINE
  5
274
330
1F
100
AcDbEntity
  8
0
  6
Continuous
 62
     7
370
    25
100
AcDbLine
 10
-5124.3678607089
 20
9096.4907347289
 30
0.0
 11
-5124.1080187089
 21
9097.4310427289
 31
0.0
  0
LINE
  5
275
330
1F
100
AcDbEntity
  8
0
  6
Continuous
 62
     7
370
    25
100
AcDbLine
 10
-5124.3678607089
 20
9095.4531447289
 30
0.0
 11
-5124.3678607089
 21
9096.4907347289
 31
0.0
  0
LINE
  5
276
330
1F
100
AcDbEntity
  8
0
  6
Continuous
 62
     7
370
    25
100
AcDbLine
 10
-5122.3888197089
 20
9093.9274937289
 30
0.0
 11
-5124.3678607089
 21
9095.4531447289
 31
0.0
  0
LINE
  5
277
330
1F
100
AcDbEntity
  8
0
  6
Continuous
 62
     7
370
    25
100
AcDbLine
 10
-5121.9673067089
 20
9091.6237137289
 30
0.0
 11
-5122.3888197089
 21
9093.9274937289
 31
0.0
  0
LINE
  5
278
330
1F
100
AcDbEntity
  8
0
  6
Continuous
 62
     7
370
    25
100
AcDbLine
 10
-5120.7670297089
 20
9091.7857657289
 30
0.0
 11
-5121.9673067089
 21
9091.6237137289
 31
0.0
  0
LINE
  5
279
330
1F
100
AcDbEntity
  8
0
  6
Continuous
 62
     7
370
    25
100
AcDbLine
 10
-5117.2622107089
 20
9093.7651877289
 30
0.0
 11
-5120.7670297089
 21
9091.7857657289
 31
0.0
  0
LINE
  5
27A
330
1F
100
AcDbEntity
  8
0
  6
Continuous
 62
     7
370
    25
100
AcDbLine
 10
-5117.0999047089
 20
9093.6691757289
 30
0.0
 11
-5117.2622107089
 21
9093.7651877289
 31
0.0
  0
LINE
  5
27B
330
1F
100
AcDbEntity
  8
0
  6
Continuous
 62
     7
370
    25
100
AcDbLine
 10
-5113.3368947089
 20
9092.8899037289
 30
0.0
 11
-5117.0999047089
 21
9093.6691757289
 31
0.0
  0
LINE
  5
27C
330
1F
100
AcDbEntity
  8
0
  6
Continuous
 62
     7
370
    25
100
AcDbLine
 10
-5113.2717437089
 20
9090.2612577289
 30
0.0
 11
-5113.3368947089
 21
9092.8899037289
 31
0.0
  0
LINE
  5
27D
330
1F
100
AcDbEntity
  8
0
  6
Continuous
 62
     7
370
    25
100
AcDbLine
 10
-5111.9738037089
 20
9086.8547367289
 30
0.0
 11
-5113.2717437089
 21
9090.2612577289
 31
0.0
  0
LINE
  5
27E
330
1F
100
AcDbEntity
  8
0
  6
Continuous
 62
     7
370
    25
100
AcDbLine
 10
-5110.0267667089
 20
9088.2823437289
 30
0.0
 11
-5111.9738037089
 21
9086.8547367289
 31
0.0
  0
LINE
  5
27F
330
1F
100
AcDbEntity
  8
0
  6
Continuous
 62
     7
370
    25
100
AcDbLine
 10
-5107.6254507089
 20
9091.7857657289
 30
0.0
 11
-5110.0267667089
 21
9088.2823437289
 31
0.0
  0
LINE
  5
280
330
1F
100
AcDbEntity
  8
0
  6
Continuous
 62
     7
370
    25
100
AcDbLine
 10
-5104.2179137089
 20
9093.2465197289
 30
0.0
 11
-5107.6254507089
 21
9091.7857657289
 31
0.0
  0
LINE
  5
281
330
1F
100
AcDbEntity
  8
0
  6
Continuous
 62
     7
370
    25
100
AcDbLine
 10
-5102.6940407089
 20
9092.8899037289
 30
0.0
 11
-5104.2179137089
 21
9093.2465197289
 31
0.0
  0
LINE
  5
282
330
1F
100
AcDbEntity
  8
0
  6
Continuous
 62
     7
370
    25
100
AcDbLine
 10
-5100.8770517089
 20
9095.0312507289
 30
0.0
 11
-5102.6940407089
 21
9092.8899037289
 31
0.0
  0
LINE
  5
283
330
1F
100
AcDbEntity
  8
0
  6
Continuous
 62
     7
370
    25
100
AcDbLine
 10
-5099.3515277089
 20
9094.9340957289
 30
0.0
 11
-5100.8770517089
 21
9095.0312507289
 31
0.0
  0
LINE
  5
284
330
1F
100
AcDbEntity
  8
0
  6
Continuous
 62
     7
370
    25
100
AcDbLine
 10
-5099.0275507089
 20
9097.0753157289
 30
0.0
 11
-5099.3515277089
 21
9094.9340957289
 31
0.0
  0
LINE
  5
285
330
1F
100
AcDbEntity
  8
0
  6
Continuous
 62
     7
370
    25
100
AcDbLine
 10
-5096.7882867089
 20
9095.7128597289
 30
0.0
 11
-5099.0275507089
 21
9097.0753157289
 31
0.0
  0
LINE
  5
286
330
1F
100
AcDbEntity
  8
0
  6
Continuous
 62
     7
370
    25
100
AcDbLine
 10
-5097.0474937089
 20
9093.4090797289
 30
0.0
 11
-5096.7882867089
 21
9095.7128597289
 31
0.0
  0
LINE
  5
287
330
1F
100
AcDbEntity
  8
0
  6
Continuous
 62
     7
370
    25
100
AcDbLine
 10
-5095.3282947089
 20
9091.5265587289
 30
0.0
 11
-5097.0474937089
 21
9093.4090797289
 31
0.0
  0
LINE
  5
288
330
1F
100
AcDbEntity
  8
0
  6
Continuous
 62
     7
370
    25
100
AcDbLine
 10
-5095.8465817089
 20
9088.2164307289
 30
0.0
 11
-5095.3282947089
 21
9091.5265587289
 31
0.0
  0
LINE
  5
289
330
1F
100
AcDbEntity
  8
0
  6
Continuous
 62
     7
370
    25
100
AcDbLine
 10
-5093.9662197089
 20
9086.7578357289
 30
0.0
 11
-5095.8465817089
 21
9088.2164307289
 31
0.0
  0
LINE
  5
28A
330
1F
100
AcDbEntity
  8
0
  6
Continuous
 62
     7
370
    25
100
AcDbLine
 10
-5093.8035327089
 20
9083.4145607289
 30
0.0
 11
-5093.9662197089
 21
9086.7578357289
 31
0.0
  0
LINE
  5
28B
330
1F
100
AcDbEntity
  8
0
  6
Continuous
 62
     7
370
    25
100
AcDbLine
 10
-5092.7005377089
 20
9083.6100137289
 30
0.0
 11
-5093.8035327089
 21
9083.4145607289
 31
0.0
  0
LINE
  5
28C
330
1F
100
AcDbEntity
  8
0
  6
Continuous
 62
     7
370
    25
100
AcDbLine
 10
-5092.5377237089
 20
9082.4098637289
 30
0.0
 11
-5092.7005377089
 21
9083.6100137289
 31
0.0
  0
LINE
  5
28D
330
1F
100
AcDbEntity
  8
0
  6
Continuous
 62
     7
370
    25
100
AcDbLine
 10
-5091.3375737089
 20
9082.3115657289
 30
0.0
 11
-5092.5377237089
 21
9082.4098637289
 31
0.0
  0
LINE
  5
28E
330
1F
100
AcDbEntity
  8
0
  6
Continuous
 62
     7
370
    25
100
AcDbLine
 10
-5091.6620587089
 20
9079.8452257289
 30
0.0
 11
-5091.3375737089
 21
9082.3115657289
 31
0.0
  0
LINE
  5
28F
330
1F
100
AcDbEntity
  8
0
  6
Continuous
 62
     7
370
    25
100
AcDbLine
 10
-5092.9597447089
 20
9077.8021767289
 30
0.0
 11
-5091.6620587089
 21
9079.8452257289
 31
0.0
  0
LINE
  5
290
330
1F
100
AcDbEntity
  8
0
  6
Continuous
 62
     7
370
    25
100
AcDbLine
 10
-5093.8035327089
 20
9079.0025807289
 30
0.0
 11
-5092.9597447089
 21
9077.8021767289
 31
0.0
  0
LINE
  5
291
330
1F
100
AcDbEntity
  8
0
  6
Continuous
 62
     7
370
    25
100
AcDbLine
 10
-5095.7824467089
 20
9077.8665657289
 30
0.0
 11
-5093.8035327089
 21
9079.0025807289
 31
0.0
  0
LINE
  5
292
330
1F
100
AcDbEntity
  8
0
  6
Continuous
 62
     7
370
    25
100
AcDbLine
 10
-5094.8415037089
 20
9073.7130307289
 30
0.0
 11
-5095.7824467089
 21
9077.8665657289
 31
0.0
  0
LINE
  5
293
330
1F
100
AcDbEntity
  8
0
  6
Continuous
 62
     7
370
    25
100
AcDbLine
 10
-5094.0627397089
 20
9071.0533967289
 30
0.0
 11
-5094.8415037089
 21
9073.7130307289
 31
0.0
  0
LINE
  5
294
330
1F
100
AcDbEntity
  8
0
  6
Continuous
 62
     7
370
    25
100
AcDbLine
 10
-5093.6407187089
 20
9071.3126037289
 30
0.0
 11
-5094.0627397089
 21
9071.0533967289
 31
0.0
  0
LINE
  5
295
330
1F
100
AcDbEntity
  8
0
  6
Continuous
 62
     7
370
    25
100
AcDbLine
 10
-5093.3817657089
 20
9072.8373657289
 30
0.0
 11
-5093.6407187089
 21
9071.3126037289
 31
0.0
  0
LINE
  5
296
330
1F
100
AcDbEntity
  8
0
  6
Continuous
 62
     7
370
    25
100
AcDbLine
 10
-5092.8620817089
 20
9072.8373657289
 30
0.0
 11
-5093.3817657089
 21
9072.8373657289
 31
0.0
  0
LINE
  5
297
330
1F
100
AcDbEntity
  8
0
  6
Continuous
 62
     7
370
    25
100
AcDbLine
 10
-5090.1365347089
 20
9069.1715107289
 30
0.0
 11
-5092.8620817089
 21
9072.8373657289
 31
0.0
  0
LINE
  5
298
330
1F
100
AcDbEntity
  8
0
  6
Continuous
 62
     7
370
    25
100
AcDbLine
 10
-5088.9363847089
 20
9069.3340707289
 30
0.0
 11
-5090.1365347089
 21
9069.1715107289
 31
0.0
  0
LINE
  5
299
330
1F
100
AcDbEntity
  8
0
  6
Continuous
 62
     7
370
    25
100
AcDbLine
 10
-5087.9949337089
 20
9067.6454787289
 30
0.0
 11
-5088.9363847089
 21
9069.3340707289
 31
0.0
  0
LINE
  5
29A
330
1F
100
AcDbEntity
  8
0
  6
Continuous
 62
     7
370
    25
100
AcDbLine
 10
-5089.8770737089
 20
9066.3495707289
 30
0.0
 11
-5087.9949337089
 21
9067.6454787289
 31
0.0
  0
LINE
  5
29B
330
1F
100
AcDbEntity
  8
0
  6
Continuous
 62
     7
370
    25
100
AcDbLine
 10
-5090.1365347089
 20
9064.4013907289
 30
0.0
 11
-5089.8770737089
 21
9066.3495707289
 31
0.0
  0
LINE
  5
29C
330
1F
100
AcDbEntity
  8
0
  6
Continuous
 62
     7
370
    25
100
AcDbLine
 10
-5091.6620587089
 20
9064.2384497289
 30
0.0
 11
-5090.1365347089
 21
9064.4013907289
 31
0.0
  0
LINE
  5
29D
330
1F
100
AcDbEntity
  8
0
  6
Continuous
 62
     7
370
    25
100
AcDbLine
 10
-5091.5967807089
 20
9062.6167867289
 30
0.0
 11
-5091.6620587089
 21
9064.2384497289
 31
0.0
  0
LINE
  5
29E
330
1F
100
AcDbEntity
  8
0
  6
Continuous
 62
     7
370
    25
100
AcDbLine
 10
-5090.6560917089
 20
9062.6167867289
 30
0.0
 11
-5091.5967807089
 21
9062.6167867289
 31
0.0
  0
LINE
  5
29F
330
1F
100
AcDbEntity
  8
0
  6
Continuous
 62
     7
370
    25
100
AcDbLine
 10
-5089.9747367089
 20
9060.4755667289
 30
0.0
 11
-5090.6560917089
 21
9062.6167867289
 31
0.0
  0
LINE
  5
2A0
330
1F
100
AcDbEntity
  8
0
  6
Continuous
 62
     7
370
    25
100
AcDbLine
 10
-5088.3525657089
 20
9058.7543357289
 30
0.0
 11
-5089.9747367089
 21
9060.4755667289
 31
0.0
  0
LINE
  5
2A1
330
1F
100
AcDbEntity
  8
0
  6
Continuous
 62
     7
370
    25
100
AcDbLine
 10
-5089.1963537089
 20
9057.1336887289
 30
0.0
 11
-5088.3525657089
 21
9058.7543357289
 31
0.0
  0
LINE
  5
2A2
330
1F
100
AcDbEntity
  8
0
  6
Continuous
 62
     7
370
    25
100
AcDbLine
 10
-5087.9301637089
 20
9056.7114137289
 30
0.0
 11
-5089.1963537089
 21
9057.1336887289
 31
0.0
  0
LINE
  5
2A3
330
1F
100
AcDbEntity
  8
0
  6
Continuous
 62
     7
370
    25
100
AcDbLine
 10
-5088.1897517089
 20
9055.9650347289
 30
0.0
 11
-5087.9301637089
 21
9056.7114137289
 31
0.0
  0
LINE
  5
2A4
330
1F
100
AcDbEntity
  8
0
  6
Continuous
 62
     7
370
    25
100
AcDbLine
 10
-5089.5527157089
 20
9056.3865477289
 30
0.0
 11
-5088.1897517089
 21
9055.9650347289
 31
0.0
  0
LINE
  5
2A5
330
1F
100
AcDbEntity
  8
0
  6
Continuous
 62
     7
370
    25
100
AcDbLine
 10
-5089.7801727089
 20
9055.5106287289
 30
0.0
 11
-5089.5527157089
 21
9056.3865477289
 31
0.0
  0
LINE
  5
2A6
330
1F
100
AcDbEntity
  8
0
  6
Continuous
 62
     7
370
    25
100
AcDbLine
 10
-5089.0335397089
 20
9055.0240917289
 30
0.0
 11
-5089.7801727089
 21
9055.5106287289
 31
0.0
  0
LINE
  5
2A7
330
1F
100
AcDbEntity
  8
0
  6
Continuous
 62
     7
370
    25
100
AcDbLine
 10
-5089.9747367089
 20
9054.5701937289
 30
0.0
 11
-5089.0335397089
 21
9055.0240917289
 31
0.0
  0
LINE
  5
2A8
330
1F
100
AcDbEntity
  8
0
  6
Continuous
 62
     7
370
    25
100
AcDbLine
 10
-5089.8770737089
 20
9054.0827677289
 30
0.0
 11
-5089.9747367089
 21
9054.5701937289
 31
0.0
  0
LINE
  5
2A9
330
1F
100
AcDbEntity
  8
0
  6
Continuous
 62
     7
370
    25
100
AcDbLine
 10
-5087.1517807089
 20
9054.5050427289
 30
0.0
 11
-5089.8770737089
 21
9054.0827677289
 31
0.0
  0
LINE
  5
2AA
330
1F
100
AcDbEntity
  8
0
  6
Continuous
 62
     7
370
    25
100
AcDbLine
 10
-5086.4708067089
 20
9051.6820867289
 30
0.0
 11
-5087.1517807089
 21
9054.5050427289
 31
0.0
  0
LINE
  5
2AB
330
1F
100
AcDbEntity
  8
0
  6
Continuous
 62
     7
370
    25
100
AcDbLine
 10
-5087.7363617089
 20
9050.0599157289
 30
0.0
 11
-5086.4708067089
 21
9051.6820867289
 31
0.0
  0
LINE
  5
2AC
330
1F
100
AcDbEntity
  8
0
  6
Continuous
 62
     7
370
    25
100
AcDbLine
 10
-5089.7801727089
 20
9048.3724667289
 30
0.0
 11
-5087.7363617089
 21
9050.0599157289
 31
0.0
  0
LINE
  5
2AD
330
1F
100
AcDbEntity
  8
0
  6
Continuous
 62
     7
370
    25
100
AcDbLine
 10
-5090.9800687089
 20
9046.4908347289
 30
0.0
 11
-5089.7801727089
 21
9048.3724667289
 31
0.0
  0
LINE
  5
2AE
330
1F
100
AcDbEntity
  8
0
  6
Continuous
 62
     7
370
    25
100
AcDbLine
 10
-5089.1963537089
 20
9045.1923867289
 30
0.0
 11
-5090.9800687089
 21
9046.4908347289
 31
0.0
  0
LINE
  5
2AF
330
1F
100
AcDbEntity
  8
0
  6
Continuous
 62
     7
370
    25
100
AcDbLine
 10
-5089.1963537089
 20
9043.3117707289
 30
0.0
 11
-5089.1963537089
 21
9045.1923867289
 31
0.0
  0
LINE
  5
2B0
330
1F
100
AcDbEntity
  8
0
  6
Continuous
 62
     7
370
    25
100
AcDbLine
 10
-5090.4928967089
 20
9043.1488297289
 30
0.0
 11
-5089.1963537089
 21
9043.3117707289
 31
0.0
  0
LINE
  5
2B1
330
1F
100
AcDbEntity
  8
0
  6
Continuous
 62
     7
370
    25
100
AcDbLine
 10
-5090.0396337089
 20
9042.1428627289
 30
0.0
 11
-5090.4928967089
 21
9043.1488297289
 31
0.0
  0
LINE
  5
2B2
330
1F
100
AcDbEntity
  8
0
  6
Continuous
 62
     7
370
    25
100
AcDbLine
 10
-5089.3576437089
 20
9041.9477907289
 30
0.0
 11
-5090.0396337089
 21
9042.1428627289
 31
0.0
  0
LINE
  5
2B3
330
1F
100
AcDbEntity
  8
0
  6
Continuous
 62
     7
370
    25
100
AcDbLine
 10
-5089.0985637089
 20
9039.9044877289
 30
0.0
 11
-5089.3576437089
 21
9041.9477907289
 31
0.0
  0
LINE
  5
2B4
330
1F
100
AcDbEntity
  8
0
  6
Continuous
 62
     7
370
    25
100
AcDbLine
 10
-5091.1750137089
 20
9040.2599607289
 30
0.0
 11
-5089.0985637089
 21
9039.9044877289
 31
0.0
  0
LINE
  5
2B5
330
1F
100
AcDbEntity
  8
0
  6
Continuous
 62
     7
370
    25
100
AcDbLine
 10
-5091.4994987089
 20
9039.2217357289
 30
0.0
 11
-5091.1750137089
 21
9040.2599607289
 31
0.0
  0
LINE
  5
2B6
330
1F
100
AcDbEntity
  8
0
  6
Continuous
 62
     7
370
    25
100
AcDbLine
 10
-5089.9747367089
 20
9038.8983937289
 30
0.0
 11
-5091.4994987089
 21
9039.2217357289
 31
0.0
  0
LINE
  5
2B7
330
1F
100
AcDbEntity
  8
0
  6
Continuous
 62
     7
370
    25
100
AcDbLine
 10
-5089.7145137089
 20
9038.2813007289
 30
0.0
 11
-5089.9747367089
 21
9038.8983937289
 31
0.0
  0
LINE
  5
2B8
330
1F
100
AcDbEntity
  8
0
  6
Continuous
 62
     7
370
    25
100
AcDbLine
 10
-5091.1750137089
 20
9037.6981167289
 30
0.0
 11
-5089.7145137089
 21
9038.2813007289
 31
0.0
  0
LINE
  5
2B9
330
1F
100
AcDbEntity
  8
0
  6
Continuous
 62
     7
370
    25
100
AcDbLine
 10
-5090.7213697089
 20
9037.1786867289
 30
0.0
 11
-5091.1750137089
 21
9037.6981167289
 31
0.0
  0
LINE
  5
2BA
330
1F
100
AcDbEntity
  8
0
  6
Continuous
 62
     7
370
    25
100
AcDbLine
 10
-5087.7363617089
 20
9037.6004537289
 30
0.0
 11
-5090.7213697089
 21
9037.1786867289
 31
0.0
  0
LINE
  5
2BB
330
1F
100
AcDbEntity
  8
0
  6
Continuous
 62
     7
370
    25
100
AcDbLine
 10
-5087.0543717089
 20
9036.8219437289
 30
0.0
 11
-5087.7363617089
 21
9037.6004537289
 31
0.0
  0
LINE
  5
2BC
330
1F
100
AcDbEntity
  8
0
  6
Continuous
 62
     7
370
    25
100
AcDbLine
 10
-5086.7951647089
 20
9035.6532897289
 30
0.0
 11
-5087.0543717089
 21
9036.8219437289
 31
0.0
  0
LINE
  5
2BD
330
1F
100
AcDbEntity
  8
0
  6
Continuous
 62
     7
370
    25
100
AcDbLine
 10
-5085.6270187089
 20
9034.5175287289
 30
0.0
 11
-5086.7951647089
 21
9035.6532897289
 31
0.0
  0
LINE
  5
2BE
330
1F
100
AcDbEntity
  8
0
  6
Continuous
 62
     7
370
    25
100
AcDbLine
 10
-5086.7951647089
 20
9033.2526087289
 30
0.0
 11
-5085.6270187089
 21
9034.5175287289
 31
0.0
  0
LINE
  5
2BF
330
1F
100
AcDbEntity
  8
0
  6
Continuous
 62
     7
370
    25
100
AcDbLine
 10
-5084.6858217089
 20
9032.8956117289
 30
0.0
 11
-5086.7951647089
 21
9033.2526087289
 31
0.0
  0
LINE
  5
2C0
330
1F
100
AcDbEntity
  8
0
  6
Continuous
 62
     7
370
    25
100
AcDbLine
 10
-5084.5886667089
 20
9030.8511657289
 30
0.0
 11
-5084.6858217089
 21
9032.8956117289
 31
0.0
  0
LINE
  5
2C1
330
1F
100
AcDbEntity
  8
0
  6
Continuous
 62
     7
370
    25
100
AcDbLine
 10
-5085.1719777089
 20
9029.7481707289
 30
0.0
 11
-5084.5886667089
 21
9030.8511657289
 31
0.0
  0
LINE
  5
2C2
330
1F
100
AcDbEntity
  8
0
  6
Continuous
 62
     7
370
    25
100
AcDbLine
 10
-5083.8101567089
 20
9028.5476397289
 30
0.0
 11
-5085.1719777089
 21
9029.7481707289
 31
0.0
  0
LINE
  5
2C3
330
1F
100
AcDbEntity
  8
0
  6
Continuous
 62
     7
370
    25
100
AcDbLine
 10
-5085.6908997089
 20
9026.0812997289
 30
0.0
 11
-5083.8101567089
 21
9028.5476397289
 31
0.0
  0
LINE
  5
2C4
330
1F
100
AcDbEntity
  8
0
  6
Continuous
 62
     7
370
    25
100
AcDbLine
 10
-5084.9455367089
 20
9024.8159987289
 30
0.0
 11
-5085.6908997089
 21
9026.0812997289
 31
0.0
  0
LINE
  5
2C5
330
1F
100
AcDbEntity
  8
0
  6
Continuous
 62
     7
370
    25
100
AcDbLine
 10
-5084.3293327089
 20
9024.4593827289
 30
0.0
 11
-5084.9455367089
 21
9024.8159987289
 31
0.0
  0
LINE
  5
2C6
330
1F
100
AcDbEntity
  8
0
  6
Continuous
 62
     7
370
    25
100
AcDbLine
 10
-5084.4262337089
 20
9023.6806187289
 30
0.0
 11
-5084.3293327089
 21
9024.4593827289
 31
0.0
  0
LINE
  5
2C7
330
1F
100
AcDbEntity
  8
0
  6
Continuous
 62
     7
370
    25
100
AcDbLine
 10
-5085.4316927089
 20
9023.3561337289
 30
0.0
 11
-5084.4262337089
 21
9023.6806187289
 31
0.0
  0
LINE
  5
2C8
330
1F
100
AcDbEntity
  8
0
  6
Continuous
 62
     7
370
    25
100
AcDbLine
 10
-5084.1661377089
 20
9019.0725507289
 30
0.0
 11
-5085.4316927089
 21
9023.3561337289
 31
0.0
  0
LINE
  5
2C9
330
1F
100
AcDbEntity
  8
0
  6
Continuous
 62
     7
370
    25
100
AcDbLine
 10
-5084.7510997089
 20
9018.3268067289
 30
0.0
 11
-5084.1661377089
 21
9019.0725507289
 31
0.0
  0
LINE
  5
2CA
330
1F
100
AcDbEntity
  8
0
  6
Continuous
 62
     7
370
    25
100
AcDbLine
 10
-5082.6421377089
 20
9014.3033197289
 30
0.0
 11
-5084.7510997089
 21
9018.3268067289
 31
0.0
  0
LINE
  5
2CB
330
1F
100
AcDbEntity
  8
0
  6
Continuous
 62
     7
370
    25
100
AcDbLine
 10
-5084.3293327089
 20
9013.7189927289
 30
0.0
 11
-5082.6421377089
 21
9014.3033197289
 31
0.0
  0
LINE
  5
2CC
330
1F
100
AcDbEntity
  8
0
  6
Continuous
 62
     7
370
    25
100
AcDbLine
 10
-5084.6858217089
 20
9013.0377647289
 30
0.0
 11
-5084.3293327089
 21
9013.7189927289
 31
0.0
  0
LINE
  5
2CD
330
1F
100
AcDbEntity
  8
0
  6
Continuous
 62
     7
370
    25
100
AcDbLine
 10
-5087.4118767089
 20
9011.8376147289
 30
0.0
 11
-5084.6858217089
 21
9013.0377647289
 31
0.0
  0
LINE
  5
2CE
330
1F
100
AcDbEntity
  8
0
  6
Continuous
 62
     7
370
    25
100
AcDbLine
 10
-5087.3143407089
 20
9010.6369567289
 30
0.0
 11
-5087.4118767089
 21
9011.8376147289
 31
0.0
  0
LINE
  5
2CF
330
1F
100
AcDbEntity
  8
0
  6
Continuous
 62
     7
370
    25
100
AcDbLine
 10
-5090.6560917089
 20
9009.4357907289
 30
0.0
 11
-5087.3143407089
 21
9010.6369567289
 31
0.0
  0
LINE
  5
2D0
330
1F
100
AcDbEntity
  8
0
  6
Continuous
 62
     7
370
    25
100
AcDbLine
 10
-5090.7213697089
 20
9008.3327957289
 30
0.0
 11
-5090.6560917089
 21
9009.4357907289
 31
0.0
  0
LINE
  5
2D1
330
1F
100
AcDbEntity
  8
0
  6
Continuous
 62
     7
370
    25
100
AcDbLine
 10
-5091.3375737089
 20
9008.2358947289
 30
0.0
 11
-5090.7213697089
 21
9008.3327957289
 31
0.0
  0
LINE
  5
2D2
330
1F
100
AcDbEntity
  8
0
  6
Continuous
 62
     7
370
    25
100
AcDbLine
 10
-5091.9215197089
 20
9008.7549437289
 30
0.0
 11
-5091.3375737089
 21
9008.2358947289
 31
0.0
  0
LINE
  5
2D3
330
1F
100
AcDbEntity
  8
0
  6
Continuous
 62
     7
370
    25
100
AcDbLine
 10
-5092.6028747089
 20
9008.3327957289
 30
0.0
 11
-5091.9215197089
 21
9008.7549437289
 31
0.0
  0
LINE
  5
2D4
330
1F
100
AcDbEntity
  8
0
  6
Continuous
 62
     7
370
    25
100
AcDbLine
 10
-5091.9215197089
 20
9006.4509097289
 30
0.0
 11
-5092.6028747089
 21
9008.3327957289
 31
0.0
  0
LINE
  5
2D5
330
1F
100
AcDbEntity
  8
0
  6
Continuous
 62
     7
370
    25
100
AcDbLine
 10
-5092.1803457089
 20
9003.6283347289
 30
0.0
 11
-5091.9215197089
 21
9006.4509097289
 31
0.0
  0
LINE
  5
2D6
330
1F
100
AcDbEntity
  8
0
  6
Continuous
 62
     7
370
    25
100
AcDbLine
 10
-5091.3375737089
 20
9003.6283347289
 30
0.0
 11
-5092.1803457089
 21
9003.6283347289
 31
0.0
  0
LINE
  5
2D7
330
1F
100
AcDbEntity
  8
0
  6
Continuous
 62
     7
370
    25
100
AcDbLine
 10
-5091.4020897089
 20
9001.4215827289
 30
0.0
 11
-5091.3375737089
 21
9003.6283347289
 31
0.0
  0
LINE
  5
2D8
330
1F
100
AcDbEntity
  8
0
  6
Continuous
 62
     7
370
    25
100
AcDbLine
 10
-5090.7213697089
 20
9000.9029147289
 30
0.0
 11
-5091.4020897089
 21
9001.4215827289
 31
0.0
  0
LINE
  5
2D9
330
1F
100
AcDbEntity
  8
0
  6
Continuous
 62
     7
370
    25
100
AcDbLine
 10
-5091.4994987089
 20
9000.6428187289
 30
0.0
 11
-5090.7213697089
 21
9000.9029147289
 31
0.0
  0
LINE
  5
2DA
330
1F
100
AcDbEntity
  8
0
  6
Continuous
 62
     7
370
    25
100
AcDbLine
 10
-5093.2839757089
 20
9001.6810437289
 30
0.0
 11
-5091.4994987089
 21
9000.6428187289
 31
0.0
  0
LINE
  5
2DB
330
1F
100
AcDbEntity
  8
0
  6
Continuous
 62
     7
370
    25
100
AcDbLine
 10
-5094.3216927089
 20
9000.0591267289
 30
0.0
 11
-5093.2839757089
 21
9001.6810437289
 31
0.0
  0
LINE
  5
2DC
330
1F
100
AcDbEntity
  8
0
  6
Continuous
 62
     7
370
    25
100
AcDbLine
 10
-5096.7228817089
 20
9000.1566627289
 30
0.0
 11
-5094.3216927089
 21
9000.0591267289
 31
0.0
  0
LINE
  5
2DD
330
1F
100
AcDbEntity
  8
0
  6
Continuous
 62
     7
370
    25
100
AcDbLine
 10
-5097.1452837089
 20
8998.3394197289
 30
0.0
 11
-5096.7228817089
 21
9000.1566627289
 31
0.0
  0
LINE
  5
2DE
330
1F
100
AcDbEntity
  8
0
  6
Continuous
 62
     7
370
    25
100
AcDbLine
 10
-5097.8912817089
 20
8997.6581917289
 30
0.0
 11
-5097.1452837089
 21
8998.3394197289
 31
0.0
  0
LINE
  5
2DF
330
1F
100
AcDbEntity
  8
0
  6
Continuous
 62
     7
370
    25
100
AcDbLine
 10
-5098.6702997089
 20
8998.8585957289
 30
0.0
 11
-5097.8912817089
 21
8997.6581917289
 31
0.0
  0
LINE
  5
2E0
330
1F
100
AcDbEntity
  8
0
  6
Continuous
 62
     7
370
    25
100
AcDbLine
 10
-5100.6175907089
 20
8998.1767327289
 30
0.0
 11
-5098.6702997089
 21
8998.8585957289
 31
0.0
  0
LINE
  5
2E1
330
1F
100
AcDbEntity
  8
0
  6
Continuous
 62
     7
370
    25
100
AcDbLine
 10
-5106.1006887089
 20
8998.5343647289
 30
0.0
 11
-5100.6175907089
 21
8998.1767327289
 31
0.0
  0
LINE
  5
2E2
330
1F
100
AcDbEntity
  8
0
  6
Continuous
 62
     7
370
    25
100
AcDbLine
 10
-5106.7814087089
 20
8999.7995387289
 30
0.0
 11
-5106.1006887089
 21
8998.5343647289
 31
0.0
  0
LINE
  5
2E3
330
1F
100
AcDbEntity
  8
0
  6
Continuous
 62
     7
370
    25
100
AcDbLine
 10
-5105.1592377089
 20
9000.9029147289
 30
0.0
 11
-5106.7814087089
 21
8999.7995387289
 31
0.0
  0
LINE
  5
2E4
330
1F
100
AcDbEntity
  8
0
  6
Continuous
 62
     7
370
    25
100
AcDbLine
 10
-5107.1067827089
 20
9002.9474877289
 30
0.0
 11
-5105.1592377089
 21
9000.9029147289
 31
0.0
  0
LINE
  5
2E5
330
1F
100
AcDbEntity
  8
0
  6
Continuous
 62
     7
370
    25
100
AcDbLine
 10
-5105.6793027089
 20
9005.7051657289
 30
0.0
 11
-5107.1067827089
 21
9002.9474877289
 31
0.0
  0
LINE
  5
2E6
330
1F
100
AcDbEntity
  8
0
  6
Continuous
 62
     7
370
    25
100
AcDbLine
 10
-5106.7814087089
 20
9006.3862667289
 30
0.0
 11
-5105.6793027089
 21
9005.7051657289
 31
0.0
  0
LINE
  5
2E7
330
1F
100
AcDbEntity
  8
0
  6
Continuous
 62
     7
370
    25
100
AcDbLine
 10
-5106.8465597089
 20
9008.1711247289
 30
0.0
 11
-5106.7814087089
 21
9006.3862667289
 31
0.0
  0
LINE
  5
2E8
330
1F
100
AcDbEntity
  8
0
  6
Continuous
 62
     7
370
    25
100
AcDbLine
 10
-5106.1006887089
 20
9008.5923837289
 30
0.0
 11
-5106.8465597089
 21
9008.1711247289
 31
0.0
  0
ENDSEC
  0
SECTION
  2
OBJECTS
  0
DICTIONARY
  5
C
330
0
100
AcDbDictionary
281
     1
  3
ACAD_GROUP
350
D
  3
ACAD_LAYOUT
350
1A
  3
ACAD_MLINESTYLE
350
17
  3
ACAD_PLOTSETTINGS
350
19
  3
ACAD_PLOTSTYLENAME
350
E
  3
ACAD_SCALELIST
350
47
  0
DICTIONARY
  5
D
102
{ACAD_REACTORS
330
C
102
}
330
C
100
AcDbDictionary
281
     1
  0
DICTIONARY
  5
1A
102
{ACAD_REACTORS
330
C
102
}
330
C
100
AcDbDictionary
281
     1
  3
Layout1
350
1E
  3
Layout2
350
26
  3
Model
350
22
  0
DICTIONARY
  5
17
102
{ACAD_REACTORS
330
C
102
}
330
C
100
AcDbDictionary
281
     1
  3
Standard
350
18
  0
DICTIONARY
  5
19
102
{ACAD_REACTORS
330
C
102
}
330
C
100
AcDbDictionary
281
     1
  0
ACDBDICTIONARYWDFLT
  5
E
102
{ACAD_REACTORS
330
C
102
}
330
C
100
AcDbDictionary
281
     1
  3
Normal
350
F
100
AcDbDictionaryWithDefault
340
F
  0
DICTIONARY
  5
47
102
{ACAD_REACTORS
330
C
102
}
330
C
100
AcDbDictionary
281
     1
  3
A0
350
48
  3
A1
350
49
  3
A2
350
4A
  3
A3
350
4B
  3
A4
350
4C
  3
A5
350
4D
  3
A6
350
4E
  3
A7
350
4F
  3
A8
350
50
  3
A9
350
51
  3
B0
350
52
  3
B1
350
53
  3
B2
350
54
  3
B3
350
55
  3
B4
350
56
  3
B5
350
57
  3
B6
350
58
  3
B7
350
59
  3
B8
350
5A
  3
B9
350
5B
  3
C0
350
5C
  3
C1
350
5D
  3
C2
350
5E
  3
C3
350
5F
  3
C4
350
60
  3
C5
350
61
  3
C6
350
62
  3
C7
350
63
  3
C8
350
64
  3
C9
350
65
  3
D0
350
66
  3
D1
350
67
  3
D2
350
68
  0
LAYOUT
  5
1E
102
{ACAD_REACTORS
330
1A
102
}
330
1A
100
AcDbPlotSettings
  1

  2
none_device
  4

  6

 40
0.0
 41
0.0
 42
0.0
 43
0.0
 44
0.0
 45
0.0
 46
0.0
 47
0.0
 48
0.0
 49
0.0
140
0.0
141
0.0
142
1.0
143
1.0
 70
   688
 72
     1
 73
     0
 74
     5
  7

 75
    16
147
1.0
148
0.0
149
0.0
100
AcDbLayout
  1
Layout1
 70
     1
 71
     1
 10
0.0
 20
0.0
 11
420.0
 21
297.0
 12
0.0
 22
0.0
 32
0.0
 14
1.0000000000E+20
 24
1.0000000000E+20
 34
1.0000000000E+20
 15
-1.0000000000E+20
 25
-1.0000000000E+20
 35
-1.0000000000E+20
146
0.0
 13
0.0
 23
0.0
 33
0.0
 16
1.0
 26
0.0
 36
0.0
 17
0.0
 27
1.0
 37
0.0
 76
     0
330
1B
  0
LAYOUT
  5
26
102
{ACAD_REACTORS
330
1A
102
}
330
1A
100
AcDbPlotSettings
  1

  2
none_device
  4

  6

 40
0.0
 41
0.0
 42
0.0
 43
0.0
 44
0.0
 45
0.0
 46
0.0
 47
0.0
 48
0.0
 49
0.0
140
0.0
141
0.0
142
1.0
143
1.0
 70
   688
 72
     1
 73
     0
 74
     5
  7

 75
    16
147
1.0
148
0.0
149
0.0
100
AcDbLayout
  1
Layout2
 70
     1
 71
     2
 10
0.0
 20
0.0
 11
0.0
 21
0.0
 12
0.0
 22
0.0
 32
0.0
 14
0.0
 24
0.0
 34
0.0
 15
0.0
 25
0.0
 35
0.0
146
0.0
 13
0.0
 23
0.0
 33
0.0
 16
1.0
 26
0.0
 36
0.0
 17
0.0
 27
1.0
 37
0.0
 76
     0
330
23
  0
LAYOUT
  5
22
102
{ACAD_REACTORS
330
1A
102
}
330
1A
100
AcDbPlotSettings
  1

  2
none_device
  4
ANSI_A_(11.00_x_8.50_Inches)
  6

 40
6.35
 41
19.05
 42
6.35000508
 43
19.05000254
 44
279.4
 45
215.9
 46
11057.7594323954
 47
-19212.0075287466
 48
0.0
 49
0.0
140
0.0
141
0.0
142
0.0839852696
143
1.0
 70
  1696
 72
     0
 73
     0
 74
     0
  7

 75
     0
147
0.0179189148
148
-1300.4909072572
149
0.0
100
AcDbLayout
  1
Model
 70
     1
 71
     0
 10
0.0
 20
0.0
 11
420.0
 21
297.0
 12
0.0
 22
0.0
 32
0.0
 14
-5159.5077447089
 24
8997.6581917289
 34
0.0
 15
-5082.6421377089
 25
9097.8543337289
 35
0.0
146
0.0
 13
0.0
 23
0.0
 33
0.0
 16
1.0
 26
0.0
 36
0.0
 17
0.0
 27
1.0
 37
0.0
 76
     0
330
1F
331
29
  0
MLINESTYLE
  5
18
102
{ACAD_REACTORS
330
17
102
}
330
17
100
AcDbMlineStyle
  2
Standard
 70
     0
  3

 62
   256
 51
90.0
 52
90.0
 71
     2
 49
0.5
 62
   256
  6
BYLAYER
 49
-0.5
 62
   256
  6
BYLAYER
  0
ACDBPLACEHOLDER
  5
F
102
{ACAD_REACTORS
330
E
102
}
330
E
  0
SCALE
  5
48
102
{ACAD_REACTORS
330
47
102
}
330
47
100
AcDbScale
 70
     0
300
1:1
140
1.0
141
1.0
290
     1
  0
SCALE
  5
49
102
{ACAD_REACTORS
330
47
102
}
330
47
100
AcDbScale
 70
     0
300
1:2
140
1.0
141
2.0
290
     0
  0
SCALE
  5
4A
102
{ACAD_REACTORS
330
47
102
}
330
47
100
AcDbScale
 70
     0
300
1:4
140
1.0
141
4.0
290
     0
  0
SCALE
  5
4B
102
{ACAD_REACTORS
330
47
102
}
330
47
100
AcDbScale
 70
     0
300
1:5
140
1.0
141
5.0
290
     0
  0
SCALE
  5
4C
102
{ACAD_REACTORS
330
47
102
}
330
47
100
AcDbScale
 70
     0
300
1:8
140
1.0
141
8.0
290
     0
  0
SCALE
  5
4D
102
{ACAD_REACTORS
330
47
102
}
330
47
100
AcDbScale
 70
     0
300
1:10
140
1.0
141
10.0
290
     0
  0
SCALE
  5
4E
102
{ACAD_REACTORS
330
47
102
}
330
47
100
AcDbScale
 70
     0
300
1:16
140
1.0
141
16.0
290
     0
  0
SCALE
  5
4F
102
{ACAD_REACTORS
330
47
102
}
330
47
100
AcDbScale
 70
     0
300
1:20
140
1.0
141
20.0
290
     0
  0
SCALE
  5
50
102
{ACAD_REACTORS
330
47
102
}
330
47
100
AcDbScale
 70
     0
300
1:30
140
1.0
141
30.0
290
     0
  0
SCALE
  5
51
102
{ACAD_REACTORS
330
47
102
}
330
47
100
AcDbScale
 70
     0
300
1:40
140
1.0
141
40.0
290
     0
  0
SCALE
  5
52
102
{ACAD_REACTORS
330
47
102
}
330
47
100
AcDbScale
 70
     0
300
1:50
140
1.0
141
50.0
290
     0
  0
SCALE
  5
53
102
{ACAD_REACTORS
330
47
102
}
330
47
100
AcDbScale
 70
     0
300
1:100
140
1.0
141
100.0
290
     0
  0
SCALE
  5
54
102
{ACAD_REACTORS
330
47
102
}
330
47
100
AcDbScale
 70
     0
300
2:1
140
2.0
141
1.0
290
     0
  0
SCALE
  5
55
102
{ACAD_REACTORS
330
47
102
}
330
47
100
AcDbScale
 70
     0
300
4:1
140
4.0
141
1.0
290
     0
  0
SCALE
  5
56
102
{ACAD_REACTORS
330
47
102
}
330
47
100
AcDbScale
 70
     0
300
8:1
140
8.0
141
1.0
290
     0
  0
SCALE
  5
57
102
{ACAD_REACTORS
330
47
102
}
330
47
100
AcDbScale
 70
     0
300
10:1
140
10.0
141
1.0
290
     0
  0
SCALE
  5
58
102
{ACAD_REACTORS
330
47
102
}
330
47
100
AcDbScale
 70
     0
300
100:1
140
100.0
141
1.0
290
     0
  0
SCALE
  5
59
102
{ACAD_REACTORS
330
47
102
}
330
47
100
AcDbScale
 70
     0
300
1/128" = 1'-0"
140
0.0078125
141
12.0
290
     0
  0
SCALE
  5
5A
102
{ACAD_REACTORS
330
47
102
}
330
47
100
AcDbScale
 70
     0
300
1/64" = 1'-0"
140
0.015625
141
12.0
290
     0
  0
SCALE
  5
5B
102
{ACAD_REACTORS
330
47
102
}
330
47
100
AcDbScale
 70
     0
300
1/32" = 1'-0"
140
0.03125
141
12.0
290
     0
  0
SCALE
  5
5C
102
{ACAD_REACTORS
330
47
102
}
330
47
100
AcDbScale
 70
     0
300
1/16" = 1'-0"
140
0.0625
141
12.0
290
     0
  0
SCALE
  5
5D
102
{ACAD_REACTORS
330
47
102
}
330
47
100
AcDbScale
 70
     0
300
3/32" = 1'-0"
140
0.09375
141
12.0
290
     0
  0
SCALE
  5
5E
102
{ACAD_REACTORS
330
47
102
}
330
47
100
AcDbScale
 70
     0
300
1/8" = 1'-0"
140
0.125
141
12.0
290
     0
  0
SCALE
  5
5F
102
{ACAD_REACTORS
330
47
102
}
330
47
100
AcDbScale
 70
     0
300
3/16" = 1'-0"
140
0.1875
141
12.0
290
     0
  0
SCALE
  5
60
102
{ACAD_REACTORS
330
47
102
}
330
47
100
AcDbScale
 70
     0
300
1/4" = 1'-0"
140
0.25
141
12.0
290
     0
  0
SCALE
  5
61
102
{ACAD_REACTORS
330
47
102
}
330
47
100
AcDbScale
 70
     0
300
3/8" = 1'-0"
140
0.375
141
12.0
290
     0
  0
SCALE
  5
62
102
{ACAD_REACTORS
330
47
102
}
330
47
100
AcDbScale
 70
     0
300
1/2" = 1'-0"
140
0.5
141
12.0
290
     0
  0
SCALE
  5
63
102
{ACAD_REACTORS
330
47
102
}
330
47
100
AcDbScale
 70
     0
300
3/4" = 1'-0"
140
0.75
141
12.0
290
     0
  0
SCALE
  5
64
102
{ACAD_REACTORS
330
47
102
}
330
47
100
AcDbScale
 70
     0
300
1" = 1'-0"
140
1.0
141
12.0
290
     0
  0
SCALE
  5
65
102
{ACAD_REACTORS
330
47
102
}
330
47
100
AcDbScale
 70
     0
300
1-1/2" = 1'-0"
140
1.5
141
12.0
290
     0
  0
SCALE
  5
66
102
{ACAD_REACTORS
330
47
102
}
330
47
100
AcDbScale
 70
     0
300
3" = 1'-0"
140
3.0
141
12.0
290
     0
  0
SCALE
  5
67
102
{ACAD_REACTORS
330
47
102
}
330
47
100
AcDbScale
 70
     0
300
6" = 1'-0"
140
6.0
141
12.0
290
     0
  0
SCALE
  5
68
102
{ACAD_REACTORS
330
47
102
}
330
47
100
AcDbScale
 70
     0
300
1'-0" = 1'-0"
140
12.0
141
12.0
290
     0
  0
ENDSEC
  0
EOF
