  0
SECTION
  2
HEADER
  9
$ACADVER
  1
AC1015
  9
$ACADMAINTVER
 70
     6
  9
$DWGCODEPAGE
  3
ANSI_1251
  9
$INSBASE
 10
0.0
 20
0.0
 30
0.0
  9
$EXTMIN
 10
316.7960564329
 20
6197.0373346632
 30
0.0
  9
$EXTMAX
 10
404.1443704329
 20
6307.5515916632
 30
0.0
  9
$LIMMIN
 10
0.0
 20
0.0
  9
$LIMMAX
 10
420.0
 20
297.0
  9
$ORTHOMODE
 70
     0
  9
$REGENMODE
 70
     1
  9
$FILLMODE
 70
     1
  9
$QTEXTMODE
 70
     0
  9
$MIRRTEXT
 70
     1
  9
$LTSCALE
 40
1.0
  9
$ATTMODE
 70
     1
  9
$TEXTSIZE
 40
4.0
  9
$TRACEWID
 40
1.0
  9
$TEXTSTYLE
  7
Standard
  9
$CLAYER
  8
0
  9
$CELTYPE
  6
ByLayer
  9
$CECOLOR
 62
   256
  9
$CELTSCALE
 40
1.0
  9
$DISPSILH
 70
     0
  9
$DIMSCALE
 40
1.0
  9
$DIMASZ
 40
6.0
  9
$DIMEXO
 40
1.0
  9
$DIMDLI
 40
3.75
  9
$DIMRND
 40
0.0
  9
$DIMDLE
 40
0.0
  9
$DIMEXE
 40
1.0
  9
$DIMTP
 40
0.0
  9
$DIMTM
 40
0.0
  9
$DIMTXT
 40
4.0
  9
$DIMCEN
 40
2.5
  9
$DIMTSZ
 40
0.0
  9
$DIMTOL
 70
     0
  9
$DIMLIM
 70
     0
  9
$DIMTIH
 70
     1
  9
$DIMTOH
 70
     1
  9
$DIMSE1
 70
     0
  9
$DIMSE2
 70
     0
  9
$DIMTAD
 70
     1
  9
$DIMZIN
 70
     0
  9
$DIMBLK
  1

  9
$DIMASO
 70
     1
  9
$DIMSHO
 70
     1
  9
$DIMPOST
  1

  9
$DIMAPOST
  1

  9
$DIMALT
 70
     0
  9
$DIMALTD
 70
     3
  9
$DIMALTF
 40
0.0393700787
  9
$DIMLFAC
 40
1.0
  9
$DIMTOFL
 70
     1
  9
$DIMTVP
 40
0.0
  9
$DIMTIX
 70
     0
  9
$DIMSOXD
 70
     0
  9
$DIMSAH
 70
     0
  9
$DIMBLK1
  1

  9
$DIMBLK2
  1

  9
$DIMSTYLE
  2
ISO-25
  9
$DIMCLRD
 70
     0
  9
$DIMCLRE
 70
     0
  9
$DIMCLRT
 70
     0
  9
$DIMTFAC
 40
1.0
  9
$DIMGAP
 40
3.0
  9
$DIMJUST
 70
     0
  9
$DIMSD1
 70
     0
  9
$DIMSD2
 70
     0
  9
$DIMTOLJ
 70
     0
  9
$DIMTZIN
 70
     0
  9
$DIMALTZ
 70
     0
  9
$DIMALTTZ
 70
     0
  9
$DIMUPT
 70
     0
  9
$DIMDEC
 70
     2
  9
$DIMTDEC
 70
     4
  9
$DIMALTU
 70
     2
  9
$DIMALTTD
 70
     3
  9
$DIMTXSTY
  7
Standard
  9
$DIMAUNIT
 70
     0
  9
$DIMADEC
 70
     2
  9
$DIMALTRND
 40
0.0
  9
$DIMAZIN
 70
     0
  9
$DIMDSEP
 70
    44
  9
$DIMATFIT
 70
     3
  9
$DIMFRAC
 70
     0
  9
$DIMLDRBLK
  1

  9
$DIMLUNIT
 70
     2
  9
$DIMLWD
 70
    -2
  9
$DIMLWE
 70
    -2
  9
$DIMTMOVE
 70
     0
  9
$LUNITS
 70
     2
  9
$LUPREC
 70
     2
  9
$SKETCHINC
 40
1.0
  9
$FILLETRAD
 40
10.0
  9
$AUNITS
 70
     1
  9
$AUPREC
 70
     2
  9
$MENU
  1
.
  9
$ELEVATION
 40
0.0
  9
$PELEVATION
 40
0.0
  9
$THICKNESS
 40
0.0
  9
$LIMCHECK
 70
     0
  9
$CHAMFERA
 40
0.0
  9
$CHAMFERB
 40
0.0
  9
$CHAMFERC
 40
0.0
  9
$CHAMFERD
 40
0.0
  9
$SKPOLY
 70
     0
  9
$TDCREATE
 40
2460368.657836644
  9
$TDUCREATE
 40
2460368.57450331
  9
$TDUPDATE
 40
2460368.65786434
  9
$TDUUPDATE
 40
2460368.574531007
  9
$TDINDWG
 40
0.0000000116
  9
$TDUSRTIMER
 40
0.0000000116
  9
$USRTIMER
 70
     1
  9
$ANGBASE
 50
0.0
  9
$ANGDIR
 70
     0
  9
$PDMODE
 70
     0
  9
$PDSIZE
 40
-1.0
  9
$PLINEWID
 40
0.0
  9
$SPLFRAME
 70
     0
  9
$SPLINETYPE
 70
     6
  9
$SPLINESEGS
 70
     8
  9
$HANDSEED
  5
311
  9
$SURFTAB1
 70
     6
  9
$SURFTAB2
 70
     6
  9
$SURFTYPE
 70
     6
  9
$SURFU
 70
     6
  9
$SURFV
 70
     6
  9
$UCSBASE
  2

  9
$UCSNAME
  2

  9
$UCSORG
 10
0.0
 20
0.0
 30
0.0
  9
$UCSXDIR
 10
1.0
 20
0.0
 30
0.0
  9
$UCSYDIR
 10
0.0
 20
1.0
 30
0.0
  9
$UCSORTHOREF
  2

  9
$UCSORTHOVIEW
 70
     0
  9
$UCSORGTOP
 10
0.0
 20
0.0
 30
0.0
  9
$UCSORGBOTTOM
 10
0.0
 20
0.0
 30
0.0
  9
$UCSORGLEFT
 10
0.0
 20
0.0
 30
0.0
  9
$UCSORGRIGHT
 10
0.0
 20
0.0
 30
0.0
  9
$UCSORGFRONT
 10
0.0
 20
0.0
 30
0.0
  9
$UCSORGBACK
 10
0.0
 20
0.0
 30
0.0
  9
$PUCSBASE
  2

  9
$PUCSNAME
  2

  9
$PUCSORG
 10
0.0
 20
0.0
 30
0.0
  9
$PUCSXDIR
 10
1.0
 20
0.0
 30
0.0
  9
$PUCSYDIR
 10
0.0
 20
1.0
 30
0.0
  9
$PUCSORTHOREF
  2

  9
$PUCSORTHOVIEW
 70
     0
  9
$PUCSORGTOP
 10
0.0
 20
0.0
 30
0.0
  9
$PUCSORGBOTTOM
 10
0.0
 20
0.0
 30
0.0
  9
$PUCSORGLEFT
 10
0.0
 20
0.0
 30
0.0
  9
$PUCSORGRIGHT
 10
0.0
 20
0.0
 30
0.0
  9
$PUCSORGFRONT
 10
0.0
 20
0.0
 30
0.0
  9
$PUCSORGBACK
 10
0.0
 20
0.0
 30
0.0
  9
$USERI1
 70
     0
  9
$USERI2
 70
     0
  9
$USERI3
 70
     0
  9
$USERI4
 70
     0
  9
$USERI5
 70
     0
  9
$USERR1
 40
0.0
  9
$USERR2
 40
0.0
  9
$USERR3
 40
0.0
  9
$USERR4
 40
0.0
  9
$USERR5
 40
0.0
  9
$WORLDVIEW
 70
     1
  9
$SHADEDGE
 70
     3
  9
$SHADEDIF
 70
    70
  9
$TILEMODE
 70
     1
  9
$MAXACTVP
 70
    64
  9
$PINSBASE
 10
0.0
 20
0.0
 30
0.0
  9
$PLIMCHECK
 70
     0
  9
$PEXTMIN
 10
1.0000000000E+20
 20
1.0000000000E+20
 30
1.0000000000E+20
  9
$PEXTMAX
 10
-1.0000000000E+20
 20
-1.0000000000E+20
 30
-1.0000000000E+20
  9
$PLIMMIN
 10
0.0
 20
0.0
  9
$PLIMMAX
 10
420.0
 20
297.0
  9
$UNITMODE
 70
     0
  9
$VISRETAIN
 70
     1
  9
$PLINEGEN
 70
     0
  9
$PSLTSCALE
 70
     1
  9
$TREEDEPTH
 70
  3020
  9
$CMLSTYLE
  2
Standard
  9
$CMLJUST
 70
     0
  9
$CMLSCALE
 40
20.0
  9
$PROXYGRAPHICS
 70
     1
  9
$MEASUREMENT
 70
     1
  9
$CELWEIGHT
370
    -1
  9
$ENDCAPS
280
     0
  9
$JOINSTYLE
280
     0
  9
$LWDISPLAY
290
     1
  9
$INSUNITS
 70
     4
  9
$HYPERLINKBASE
  1

  9
$STYLESHEET
  1

  9
$XEDIT
290
     1
  9
$CEPSNTYPE
380
     0
  9
$PSTYLEMODE
290
     1
  9
$FINGERPRINTGUID
  2
{51f6f859-f800-4c49-9563-f14f479e43de}
  9
$VERSIONGUID
  2
{FAEB1C32-E019-11D5-929B-00C0DF256EC4}
  9
$EXTNAMES
290
     1
  9
$PSVPSCALE
 40
0.0
  9
$OLESTARTUP
290
     0
  0
ENDSEC
  0
SECTION
  2
CLASSES
  0
CLASS
  1
ACDBDICTIONARYWDFLT
  2
AcDbDictionaryWithDefault
  3
ObjectDBX Classes
 90
        0
280
     0
281
     0
  0
CLASS
  1
VISUALSTYLE
  2
AcDbVisualStyle
  3
ObjectDBX Classes
 90
     4095
280
     0
281
     0
  0
CLASS
  1
MATERIAL
  2
AcDbMaterial
  3
ObjectDBX Classes
 90
     1153
280
     0
281
     0
  0
CLASS
  1
SCALE
  2
AcDbScale
  3
ObjectDBX Classes
 90
     1153
280
     0
281
     0
  0
CLASS
  1
TABLESTYLE
  2
AcDbTableStyle
  3
ObjectDBX Classes
 90
     4095
280
     0
281
     0
  0
CLASS
  1
MLEADERSTYLE
  2
AcDbMLeaderStyle
  3
ACDB_MLEADERSTYLE_CLASS
 90
     4095
280
     0
281
     0
  0
CLASS
  1
SUN
  2
AcDbSun
  3
SCENEOE
 90
     1153
280
     0
281
     0
  0
CLASS
  1
ACDBPLACEHOLDER
  2
AcDbPlaceHolder
  3
ObjectDBX Classes
 90
        0
280
     0
281
     0
  0
CLASS
  1
LAYOUT
  2
AcDbLayout
  3
ObjectDBX Classes
 90
        0
280
     0
281
     0
  0
ENDSEC
  0
SECTION
  2
TABLES
  0
TABLE
  2
VPORT
  5
8
330
0
100
AcDbSymbolTable
 70
     1
  0
VPORT
  5
29
330
8
100
AcDbSymbolTableRecord
100
AcDbViewportTableRecord
  2
*Active
 70
     0
 10
0.0
 20
0.0
 11
1.0
 21
1.0
 12
360.4702134329
 22
6252.2944631632
 13
0.0
 23
0.0
 14
10.0
 24
10.0
 15
10.0
 25
10.0
 16
0.0
 26
0.0
 36
1.0
 17
0.0
 27
0.0
 37
0.0
 40
112.72454214
 41
0.7903805027
 42
50.0
 43
0.0
 44
0.0
 50
0.0
 51
0.0
 71
     0
 72
   100
 73
     1
 74
     3
 75
     0
 76
     0
 77
     0
 78
     0
281
     0
 65
     1
110
0.0
120
0.0
130
0.0
111
1.0
121
0.0
131
0.0
112
0.0
122
1.0
132
0.0
 79
     0
146
0.0
  0
ENDTAB
  0
TABLE
  2
LTYPE
  5
5
330
0
100
AcDbSymbolTable
 70
     6
  0
LTYPE
  5
14
330
5
100
AcDbSymbolTableRecord
100
AcDbLinetypeTableRecord
  2
ByBlock
 70
     0
  3

 72
    65
 73
     0
 40
0.0
  0
LTYPE
  5
15
330
5
100
AcDbSymbolTableRecord
100
AcDbLinetypeTableRecord
  2
ByLayer
 70
     0
  3

 72
    65
 73
     0
 40
0.0
  0
LTYPE
  5
16
330
5
100
AcDbSymbolTableRecord
100
AcDbLinetypeTableRecord
  2
Continuous
 70
     0
  3
Solid line
 72
    65
 73
     0
 40
0.0
  0
LTYPE
  5
6E
330
5
100
AcDbSymbolTableRecord
100
AcDbLinetypeTableRecord
  2
HIDDEN
 70
     0
  3
Hidden __ __ __ __ __ __ __ __ __ __ __ __ __ __
 72
    65
 73
     2
 40
1.905
 49
1.27
 74
     0
 49
-0.635
 74
     0
  0
LTYPE
  5
6F
330
5
100
AcDbSymbolTableRecord
100
AcDbLinetypeTableRecord
  2
PHANTOM
 70
     0
  3
Phantom ______  __  __  ______  __  __  ______
 72
    65
 73
     6
 40
12.7
 49
6.35
 74
     0
 49
-1.27
 74
     0
 49
1.27
 74
     0
 49
-1.27
 74
     0
 49
1.27
 74
     0
 49
-1.27
 74
     0
  0
LTYPE
  5
70
330
5
100
AcDbSymbolTableRecord
100
AcDbLinetypeTableRecord
  2
CENTER
 70
     0
  3
Center ____ _ ____ _ ____ _ ____ _ ____ _ ____
 72
    65
 73
     4
 40
10.16
 49
6.35
 74
     0
 49
-1.27
 74
     0
 49
1.27
 74
     0
 49
-1.27
 74
     0
  0
LTYPE
  5
71
330
5
100
AcDbSymbolTableRecord
100
AcDbLinetypeTableRecord
  2
CENTERX2
 70
     0
  3
Center (2x) ________  __  ________  __  _____
 72
    65
 73
     4
 40
20.32
 49
12.7
 74
     0
 49
-2.54
 74
     0
 49
2.54
 74
     0
 49
-2.54
 74
     0
  0
LTYPE
  5
72
330
5
100
AcDbSymbolTableRecord
100
AcDbLinetypeTableRecord
  2
DOT2
 70
     0
  3
Dot (.5x) ........................................
 72
    65
 73
     2
 40
0.635
 49
0.0
 74
     0
 49
-0.635
 74
     0
  0
ENDTAB
  0
TABLE
  2
LAYER
  5
2
330
0
100
AcDbSymbolTable
 70
     1
  0
LAYER
  5
10
330
2
100
AcDbSymbolTableRecord
100
AcDbLayerTableRecord
  2
0
 70
     0
 62
     7
  6
Continuous
370
    -3
390
F
  0
ENDTAB
  0
TABLE
  2
STYLE
  5
3
330
0
100
AcDbSymbolTable
 70
     1
  0
STYLE
  5
11
330
3
100
AcDbSymbolTableRecord
100
AcDbTextStyleTableRecord
  2
Standard
 70
     0
 40
0.0
 41
1.0
 50
0.0
 71
     0
 42
4.0
  3
txt
  4

  0
ENDTAB
  0
TABLE
  2
VIEW
  5
6
330
0
100
AcDbSymbolTable
 70
     0
  0
ENDTAB
  0
TABLE
  2
UCS
  5
7
330
0
100
AcDbSymbolTable
 70
     0
  0
ENDTAB
  0
TABLE
  2
APPID
  5
9
330
0
100
AcDbSymbolTable
 70
     1
  0
APPID
  5
12
330
9
100
AcDbSymbolTableRecord
100
AcDbRegAppTableRecord
  2
ACAD
 70
     0
  0
ENDTAB
  0
TABLE
  2
DIMSTYLE
  5
A
330
0
100
AcDbSymbolTable
 70
     1
100
AcDbDimStyleTable
  0
DIMSTYLE
105
27
330
A
100
AcDbSymbolTableRecord
100
AcDbDimStyleTableRecord
  2
ISO-25
 70
     0
 41
2.5
 42
0.625
 43
3.75
 44
1.25
 73
     0
 74
     0
 77
     1
 78
     8
140
2.5
141
2.5
143
0.0393700787
147
0.625
171
     3
172
     1
178
     0
271
     2
272
     2
274
     3
278
    44
283
     0
284
     8
340
11
  0
ENDTAB
  0
TABLE
  2
BLOCK_RECORD
  5
1
330
0
100
AcDbSymbolTable
 70
     1
  0
BLOCK_RECORD
  5
1F
330
1
100
AcDbSymbolTableRecord
100
AcDbBlockTableRecord
  2
*Model_Space
340
22
  0
BLOCK_RECORD
  5
1B
330
1
100
AcDbSymbolTableRecord
100
AcDbBlockTableRecord
  2
*Paper_Space
340
1E
  0
BLOCK_RECORD
  5
23
330
1
100
AcDbSymbolTableRecord
100
AcDbBlockTableRecord
  2
*Paper_Space0
340
26
  0
ENDTAB
  0
ENDSEC
  0
SECTION
  2
BLOCKS
  0
BLOCK
  5
20
330
1F
100
AcDbEntity
  8
0
100
AcDbBlockBegin
  2
*Model_Space
 70
     0
 10
0.0
 20
0.0
 30
0.0
  3
*Model_Space
  1

  0
ENDBLK
  5
21
330
1F
100
AcDbEntity
  8
0
100
AcDbBlockEnd
  0
BLOCK
  5
1C
330
1B
100
AcDbEntity
 67
     1
  8
0
100
AcDbBlockBegin
  2
*Paper_Space
 70
     0
 10
0.0
 20
0.0
 30
0.0
  3
*Paper_Space
  1

  0
ENDBLK
  5
1D
330
1B
100
AcDbEntity
 67
     1
  8
0
100
AcDbBlockEnd
  0
BLOCK
  5
24
330
23
100
AcDbEntity
  8
0
100
AcDbBlockBegin
  2
*Paper_Space0
 70
     0
 10
0.0
 20
0.0
 30
0.0
  3
*Paper_Space0
  1

  0
ENDBLK
  5
25
330
23
100
AcDbEntity
  8
0
100
AcDbBlockEnd
  0
ENDSEC
  0
SECTION
  2
ENTITIES
  0
SPLINE
  5
73
330
1F
100
AcDbEntity
  8
0
  6
Continuous
 62
     7
370
    25
100
AcDbSpline
210
0.0
220
0.0
230
1.0
 70
     8
 71
     3
 72
    15
 73
    11
 74
     0
 42
0.000000001
 43
0.00000001
 40
0.0
 40
0.0
 40
0.0
 40
0.0
 40
0.13943229226302
 40
0.263716792215504
 40
0.3777829569150377
 40
0.4864418619265347
 40
0.597764790083609
 40
0.7162014621905874
 40
0.8489977938012908
 40
1.0
 40
1.0
 40
1.0
 40
1.0
 10
357.8647796834368
 20
6253.032719510825
 30
0.0
 10
357.8656549808017
 20
6253.062391236763
 30
0.0
 10
357.8673104840536
 20
6253.118511180407
 30
0.0
 10
357.88652261196
 20
6253.197199679641
 30
0.0
 10
357.9195058019787
 20
6253.263759670531
 30
0.0
 10
357.9650008682923
 20
6253.319238928199
 30
0.0
 10
358.0244991135291
 20
6253.36098465777
 30
0.0
 10
358.0960357423925
 20
6253.390794355819
 30
0.0
 10
358.1802539970263
 20
6253.408273439502
 30
0.0
 10
358.2406066915779
 20
6253.410116984405
 30
0.0
 10
358.272718872626
 20
6253.411097889202
 30
0.0
  0
SPLINE
  5
74
330
1F
100
AcDbEntity
  8
0
  6
Continuous
 62
     7
370
    25
100
AcDbSpline
210
0.0
220
0.0
230
1.0
 70
     8
 71
     3
 72
    15
 73
    11
 74
     0
 42
0.000000001
 43
0.00000001
 40
0.0
 40
0.0
 40
0.0
 40
0.0
 40
0.163430873663714
 40
0.308131539900431
 40
0.4368446683524126
 40
0.549877441646775
 40
0.6565369632795238
 40
0.7631964849122357
 40
0.8756043968118808
 40
1.0
 40
1.0
 40
1.0
 40
1.0
 10
358.272718872626
 20
6253.411097889202
 30
0.0
 10
358.3117236735916
 20
6253.41012775019
 30
0.0
 10
358.3852630796757
 20
6253.408298656204
 30
0.0
 10
358.48826560091
 20
6253.390577953407
 30
0.0
 10
358.5765267322263
 20
6253.362386077504
 30
0.0
 10
358.6488055495927
 20
6253.319919222925
 30
0.0
 10
358.7053613538238
 20
6253.265330719476
 30
0.0
 10
358.7463397711945
 20
6253.198405875114
 30
0.0
 10
358.770495968512
 20
6253.119060883382
 30
0.0
 10
358.7726454621836
 20
6253.062455151296
 30
0.0
 10
358.7737746158692
 20
6253.032719510825
 30
0.0
  0
SPLINE
  5
75
330
1F
100
AcDbEntity
  8
0
  6
Continuous
 62
     7
370
    25
100
AcDbSpline
210
0.0
220
0.0
230
1.0
 70
     8
 71
     3
 72
    15
 73
    11
 74
     0
 42
0.000000001
 43
0.00000001
 40
0.0
 40
0.0
 40
0.0
 40
0.0
 40
0.1243956031881217
 40
0.2368035150877101
 40
0.343463036720477
 40
0.4501225583532282
 40
0.5631553316475613
 40
0.6918684600995656
 40
0.8365691263362857
 40
1.0
 40
1.0
 40
1.0
 40
1.0
 10
358.7737746158692
 20
6253.032719510825
 30
0.0
 10
358.7726454621836
 20
6253.002983870354
 30
0.0
 10
358.770495968512
 20
6252.946378138267
 30
0.0
 10
358.7463397711945
 20
6252.867033146535
 30
0.0
 10
358.7053613538238
 20
6252.800108302174
 30
0.0
 10
358.6488055495927
 20
6252.745519798725
 30
0.0
 10
358.5765267322262
 20
6252.703052944145
 30
0.0
 10
358.48826560091
 20
6252.674861068243
 30
0.0
 10
358.3852630796757
 20
6252.657140365444
 30
0.0
 10
358.3117236735916
 20
6252.655311271459
 30
0.0
 10
358.272718872626
 20
6252.654341132446
 30
0.0
  0
SPLINE
  5
76
330
1F
100
AcDbEntity
  8
0
  6
Continuous
 62
     7
370
    25
100
AcDbSpline
210
0.0
220
0.0
230
1.0
 70
     8
 71
     3
 72
    15
 73
    11
 74
     0
 42
0.000000001
 43
0.00000001
 40
0.0
 40
0.0
 40
0.0
 40
0.0
 40
0.1510022061987085
 40
0.2837985378094149
 40
0.4022352099164233
 40
0.5135581380734594
 40
0.622217043084959
 40
0.7362832077845575
 40
0.8605677077369768
 40
0.9999999999999999
 40
0.9999999999999999
 40
0.9999999999999999
 40
0.9999999999999999
 10
358.272718872626
 20
6252.654341132446
 30
0.0
 10
358.2406066915779
 20
6252.655322037244
 30
0.0
 10
358.1802539970263
 20
6252.657165582146
 30
0.0
 10
358.0960357423925
 20
6252.67464466583
 30
0.0
 10
358.0244991135291
 20
6252.704454363879
 30
0.0
 10
357.9650008682923
 20
6252.74620009345
 30
0.0
 10
357.9195058019786
 20
6252.801679351119
 30
0.0
 10
357.88652261196
 20
6252.868239342009
 30
0.0
 10
357.8673104840536
 20
6252.946927841242
 30
0.0
 10
357.8656549808017
 20
6253.003047784887
 30
0.0
 10
357.8647796834368
 20
6253.032719510825
 30
0.0
  0
SPLINE
  5
77
330
1F
100
AcDbEntity
  8
0
  6
Continuous
 62
     7
370
    25
100
AcDbSpline
210
0.0
220
0.0
230
1.0
 70
     8
 71
     3
 72
    15
 73
    11
 74
     0
 42
0.000000001
 43
0.00000001
 40
0.0
 40
0.0
 40
0.0
 40
0.0
 40
0.1397190621832485
 40
0.2642591776431473
 40
0.3785599418348142
 40
0.4874423252458707
 40
0.5971151537589998
 40
0.7179368127395971
 40
0.8510062661128787
 40
1.0
 40
1.0
 40
1.0
 40
1.0
 10
359.2763083996531
 20
6253.032719510825
 30
0.0
 10
359.2771821912006
 20
6253.062393481217
 30
0.0
 10
359.2788348464086
 20
6253.118517669935
 30
0.0
 10
359.2980660441824
 20
6253.197177745104
 30
0.0
 10
359.3309851910147
 20
6253.263833193799
 30
0.0
 10
359.3764497198439
 20
6253.318665867963
 30
0.0
 10
359.4350140456796
 20
6253.361857389004
 30
0.0
 10
359.5072870487051
 20
6253.390360829086
 30
0.0
 10
359.5912472412967
 20
6253.408273636097
 30
0.0
 10
359.6511350945078
 20
6253.410121693264
 30
0.0
 10
359.6827695483017
 20
6253.411097889202
 30
0.0
  0
SPLINE
  5
78
330
1F
100
AcDbEntity
  8
0
  6
Continuous
 62
     7
370
    25
100
AcDbSpline
210
0.0
220
0.0
230
1.0
 70
     8
 71
     3
 72
    15
 73
    11
 74
     0
 42
0.000000001
 43
0.00000001
 40
0.0
 40
0.0
 40
0.0
 40
0.0
 40
0.1634308736637109
 40
0.3081315399004247
 40
0.436844668352407
 40
0.5498774416467732
 40
0.6565369632795226
 40
0.7631964849122349
 40
0.8756043968118806
 40
0.9999999999999999
 40
0.9999999999999999
 40
0.9999999999999999
 40
0.9999999999999999
 10
359.6827695483017
 20
6253.411097889202
 30
0.0
 10
359.7217743492673
 20
6253.41012775019
 30
0.0
 10
359.7953137553514
 20
6253.408298656204
 30
0.0
 10
359.8983162765857
 20
6253.390577953407
 30
0.0
 10
359.9865774079019
 20
6253.362386077504
 30
0.0
 10
360.0588562252684
 20
6253.319919222925
 30
0.0
 10
360.1154120294994
 20
6253.265330719476
 30
0.0
 10
360.1563904468701
 20
6253.198405875114
 30
0.0
 10
360.1805466441876
 20
6253.119060883382
 30
0.0
 10
360.1826961378593
 20
6253.062455151296
 30
0.0
 10
360.183825291545
 20
6253.032719510825
 30
0.0
  0
SPLINE
  5
79
330
1F
100
AcDbEntity
  8
0
  6
Continuous
 62
     7
370
    25
100
AcDbSpline
210
0.0
220
0.0
230
1.0
 70
     8
 71
     3
 72
    15
 73
    11
 74
     0
 42
0.000000001
 43
0.00000001
 40
0.0
 40
0.0
 40
0.0
 40
0.0
 40
0.124395603188122
 40
0.2368035150877109
 40
0.3434630367204783
 40
0.45012255835323
 40
0.5631553316475669
 40
0.6918684600995719
 40
0.8365691263362888
 40
1.0
 40
1.0
 40
1.0
 40
1.0
 10
360.183825291545
 20
6253.032719510825
 30
0.0
 10
360.1826961378593
 20
6253.002983870354
 30
0.0
 10
360.1805466441876
 20
6252.946378138267
 30
0.0
 10
360.1563904468701
 20
6252.867033146535
 30
0.0
 10
360.1154120294995
 20
6252.800108302174
 30
0.0
 10
360.0588562252684
 20
6252.745519798725
 30
0.0
 10
359.9865774079019
 20
6252.703052944145
 30
0.0
 10
359.8983162765857
 20
6252.674861068243
 30
0.0
 10
359.7953137553514
 20
6252.657140365444
 30
0.0
 10
359.7217743492673
 20
6252.655311271459
 30
0.0
 10
359.6827695483017
 20
6252.654341132446
 30
0.0
  0
SPLINE
  5
7A
330
1F
100
AcDbEntity
  8
0
  6
Continuous
 62
     7
370
    25
100
AcDbSpline
210
0.0
220
0.0
230
1.0
 70
     8
 71
     3
 72
    15
 73
    11
 74
     0
 42
0.000000001
 43
0.00000001
 40
0.0
 40
0.0
 40
0.0
 40
0.0
 40
0.1489937338871206
 40
0.2820631872604054
 40
0.4028848462410324
 40
0.5125576747541228
 40
0.6214400581651819
 40
0.735740822356914
 40
0.8602809378167482
 40
1.0
 40
1.0
 40
1.0
 40
1.0
 10
359.6827695483017
 20
6252.654341132446
 30
0.0
 10
359.6511350945078
 20
6252.655317328385
 30
0.0
 10
359.5912472412967
 20
6252.657165385552
 30
0.0
 10
359.5072870487051
 20
6252.675078192564
 30
0.0
 10
359.4350140456796
 20
6252.703581632644
 30
0.0
 10
359.3764497198439
 20
6252.746773153685
 30
0.0
 10
359.3309851910147
 20
6252.801605827851
 30
0.0
 10
359.2980660441824
 20
6252.868261276546
 30
0.0
 10
359.2788348464086
 20
6252.946921351715
 30
0.0
 10
359.2771821912006
 20
6253.003045540431
 30
0.0
 10
359.2763083996531
 20
6253.032719510825
 30
0.0
  0
SPLINE
  5
7C
330
1F
100
AcDbEntity
  8
0
  6
Continuous
 62
     7
370
    25
100
AcDbSpline
210
0.0
220
0.0
230
1.0
 70
     8
 71
     3
 72
    15
 73
    11
 74
     0
 42
0.000000001
 43
0.00000001
 40
0.0
 40
0.0
 40
0.0
 40
0.0
 40
0.1208158510017991
 40
0.2307257204519987
 40
0.3358108859966003
 40
0.4414612828647962
 40
0.5572426563437051
 40
0.6861667178992478
 40
0.8326774575843846
 40
1.0
 40
1.0
 40
1.0
 40
1.0
 10
345.1187492780314
 20
6245.239011740555
 30
0.0
 10
345.1175069847667
 20
6245.212223176824
 30
0.0
 10
345.1151345393787
 20
6245.161064238527
 30
0.0
 10
345.0922360953114
 20
6245.089532163597
 30
0.0
 10
345.0548574818221
 20
6245.028222335726
 30
0.0
 10
345.0000583345843
 20
6244.979981729961
 30
0.0
 10
344.9325524729092
 20
6244.940953644042
 30
0.0
 10
344.8493855362681
 20
6244.914970234416
 30
0.0
 10
344.7521637956045
 20
6244.901254851989
 30
0.0
 10
344.6827726885425
 20
6244.898860788434
 30
0.0
 10
344.6457763050585
 20
6244.897584375689
 30
0.0
  0
SPLINE
  5
7D
330
1F
100
AcDbEntity
  8
0
  6
Continuous
 62
     7
370
    25
100
AcDbSpline
210
0.0
220
0.0
230
1.0
 70
     8
 71
     3
 72
    15
 73
    11
 74
     0
 42
0.000000001
 43
0.00000001
 40
0.0
 40
0.0
 40
0.0
 40
0.0
 40
0.1528612850162725
 40
0.2874697277135772
 40
0.4083171843914903
 40
0.5197330343307516
 40
0.6278222855466665
 40
0.741506009934623
 40
0.8623534666125303
 40
1.0
 40
1.0
 40
1.0
 40
1.0
 10
344.6457763050585
 20
6244.897584375689
 30
0.0
 10
344.6161689508105
 20
6244.898874765291
 30
0.0
 10
344.5604895937837
 20
6244.901301461806
 30
0.0
 10
344.4821049820934
 20
6244.915000956123
 30
0.0
 10
344.4156721501953
 20
6244.941866330116
 30
0.0
 10
344.3607409981154
 20
6244.979373159186
 30
0.0
 10
344.3175028755584
 20
6245.028421511778
 30
0.0
 10
344.2885098084414
 20
6245.088822048558
 30
0.0
 10
344.2700543659947
 20
6245.159109977812
 30
0.0
 10
344.2683209568705
 20
6245.209319423939
 30
0.0
 10
344.2673979266801
 20
6245.236055659473
 30
0.0
  0
SPLINE
  5
7F
330
1F
100
AcDbEntity
  8
0
  6
Continuous
 62
     7
370
    25
100
AcDbSpline
210
0.0
220
0.0
230
1.0
 70
     8
 71
     3
 72
    15
 73
    11
 74
     0
 42
0.000000001
 43
0.00000001
 40
0.0
 40
0.0
 40
0.0
 40
0.0
 40
0.1376465333875401
 40
0.2584939900653686
 40
0.3721777144533886
 40
0.4802669656692991
 40
0.5916828156085556
 40
0.7125302722864348
 40
0.8471387149837339
 40
0.9999999999999999
 40
0.9999999999999999
 40
0.9999999999999999
 40
0.9999999999999999
 10
344.2673979266801
 20
6251.559113091906
 30
0.0
 10
344.2683209568705
 20
6251.58584932744
 30
0.0
 10
344.2700543659947
 20
6251.636058773566
 30
0.0
 10
344.2885098084414
 20
6251.706346702822
 30
0.0
 10
344.3175028755584
 20
6251.766747239601
 30
0.0
 10
344.3607409981154
 20
6251.815795592193
 30
0.0
 10
344.4156721501953
 20
6251.853302421264
 30
0.0
 10
344.4821049820934
 20
6251.880167795257
 30
0.0
 10
344.5604895937837
 20
6251.893867289573
 30
0.0
 10
344.6161689508105
 20
6251.896293986088
 30
0.0
 10
344.6457763050585
 20
6251.89758437569
 30
0.0
  0
SPLINE
  5
80
330
1F
100
AcDbEntity
  8
0
  6
Continuous
 62
     7
370
    25
100
AcDbSpline
210
0.0
220
0.0
230
1.0
 70
     8
 71
     3
 72
    15
 73
    11
 74
     0
 42
0.000000001
 43
0.00000001
 40
0.0
 40
0.0
 40
0.0
 40
0.0
 40
0.1687372826956065
 40
0.3164867953631008
 40
0.4465009315750883
 40
0.5610794434177515
 40
0.6676231321872574
 40
0.7716984773789115
 40
0.8803995195840042
 40
1.0
 40
1.0
 40
1.0
 40
1.0
 10
344.6457763050585
 20
6251.89758437569
 30
0.0
 10
344.6827546107154
 20
6251.896276213244
 30
0.0
 10
344.7521118106675
 20
6251.893822599357
 30
0.0
 10
344.8495548829841
 20
6251.880495936981
 30
0.0
 10
344.9315670775555
 20
6251.853435943906
 30
0.0
 10
345.0009042172382
 20
6251.818628057541
 30
0.0
 10
345.0542479557928
 20
6251.769863641834
 30
0.0
 10
345.09231701812
 20
6251.710269176443
 30
0.0
 10
345.1151164904997
 20
6251.640016131491
 30
0.0
 10
345.1175004115971
 20
6251.589835418959
 30
0.0
 10
345.1187492780314
 20
6251.563547213528
 30
0.0
  0
SPLINE
  5
83
330
1F
100
AcDbEntity
  8
0
  6
Continuous
 62
     7
370
    25
100
AcDbSpline
210
0.0
220
0.0
230
1.0
 70
     8
 71
     3
 72
    11
 73
     7
 74
     0
 42
0.000000001
 43
0.00000001
 40
0.0
 40
0.0
 40
0.0
 40
0.0
 40
0.2504096255241434
 40
0.4931885185199719
 40
0.7386484867167796
 40
1.0
 40
1.0
 40
1.0
 40
1.0
 10
347.9240702239774
 20
6251.856199240554
 30
0.0
 10
347.9444238619477
 20
6251.876910482461
 30
0.0
 10
347.9845109014776
 20
6251.9177018326
 30
0.0
 10
348.0590433079938
 20
6251.961295820473
 30
0.0
 10
348.1426100138461
 20
6251.98719645326
 30
0.0
 10
348.2012587800291
 20
6251.990483772295
 30
0.0
 10
348.2315026564098
 20
6251.992178970284
 30
0.0
  0
SPLINE
  5
84
330
1F
100
AcDbEntity
  8
0
  6
Continuous
 62
     7
370
    25
100
AcDbSpline
210
0.0
220
0.0
230
1.0
 70
     8
 71
     3
 72
    15
 73
    11
 74
     0
 42
0.000000001
 43
0.00000001
 40
0.0
 40
0.0
 40
0.0
 40
0.0
 40
0.1524375775560013
 40
0.2972235470698083
 40
0.4354935542090948
 40
0.575630703894185
 40
0.7054165151033018
 40
0.8167980386388372
 40
0.9117821291513791
 40
1.0
 40
1.0
 40
1.0
 40
1.0
 10
348.2315026564098
 20
6251.992178970284
 30
0.0
 10
348.2651520770083
 20
6251.990879640238
 30
0.0
 10
348.3307618846915
 20
6251.988346200051
 30
0.0
 10
348.4244344025396
 20
6251.965181415906
 30
0.0
 10
348.511404129099
 20
6251.930004408354
 30
0.0
 10
348.5855063043844
 20
6251.878156060254
 30
0.0
 10
348.6486841047508
 20
6251.822241830325
 30
0.0
 10
348.695017924771
 20
6251.764416410534
 30
0.0
 10
348.7274353207213
 20
6251.70654267571
 30
0.0
 10
348.7308932777204
 20
6251.665892096893
 30
0.0
 10
348.732558399653
 20
6251.646317483797
 30
0.0
  0
SPLINE
  5
85
330
1F
100
AcDbEntity
  8
0
  6
Continuous
 62
     7
370
    25
100
AcDbSpline
210
0.0
220
0.0
230
1.0
 70
     8
 71
     3
 72
     9
 73
     5
 74
     0
 42
0.000000001
 43
0.00000001
 40
0.0
 40
0.0
 40
0.0
 40
0.0
 40
0.4596718734162978
 40
1.0
 40
1.0
 40
1.0
 40
1.0
 10
348.732558399653
 20
6251.646317483797
 30
0.0
 10
348.7281215487153
 20
6251.615646161057
 30
0.0
 10
348.7184693354861
 20
6251.548921776743
 30
0.0
 10
348.6738806501807
 20
6251.497964376228
 30
0.0
 10
348.6497881293828
 20
6251.470430659474
 30
0.0
  0
SPLINE
  5
88
330
1F
100
AcDbEntity
  8
0
  6
Continuous
 62
     7
370
    25
100
AcDbSpline
210
0.0
220
0.0
230
1.0
 70
     8
 71
     3
 72
     9
 73
     5
 74
     0
 42
0.000000001
 43
0.00000001
 40
0.0
 40
0.0
 40
0.0
 40
0.0
 40
0.5804704341752497
 40
1.0
 40
1.0
 40
1.0
 40
1.0
 10
348.6719587374909
 20
6245.386815794609
 30
0.0
 10
348.6879769540536
 20
6245.357974274306
 30
0.0
 10
348.715572186506
 20
6245.308287815521
 30
0.0
 10
348.7233733984367
 20
6245.252197149523
 30
0.0
 10
348.7266462374909
 20
6245.228665456771
 30
0.0
  0
SPLINE
  5
89
330
1F
100
AcDbEntity
  8
0
  6
Continuous
 62
     7
370
    25
100
AcDbSpline
210
0.0
220
0.0
230
1.0
 70
     8
 71
     3
 72
    15
 73
    11
 74
     0
 42
0.000000001
 43
0.00000001
 40
0.0
 40
0.0
 40
0.0
 40
0.0
 40
0.1136249697075142
 40
0.2195575022056172
 40
0.3209490787013046
 40
0.427349503513674
 40
0.542134364439823
 40
0.6763024871582154
 40
0.8279498363289646
 40
0.9999999999999999
 40
0.9999999999999999
 40
0.9999999999999999
 40
0.9999999999999999
 10
348.7266462374909
 20
6245.228665456771
 30
0.0
 10
348.7254291957502
 20
6245.202874698691
 30
0.0
 10
348.7230775062815
 20
6245.153039222928
 30
0.0
 10
348.6992317664325
 20
6245.082996082375
 30
0.0
 10
348.6568708594453
 20
6245.025034599656
 30
0.0
 10
348.6012726295975
 20
6244.976469376913
 30
0.0
 10
348.5281881452615
 20
6244.94117999992
 30
0.0
 10
348.4410309977952
 20
6244.91484621818
 30
0.0
 10
348.3378279445407
 20
6244.90133576279
 30
0.0
 10
348.2645427124986
 20
6244.898886301639
 30
0.0
 10
348.2255904942477
 20
6244.897584375689
 30
0.0
  0
SPLINE
  5
8A
330
1F
100
AcDbEntity
  8
0
  6
Continuous
 62
     7
370
    25
100
AcDbSpline
210
0.0
220
0.0
230
1.0
 70
     8
 71
     3
 72
    11
 73
     7
 74
     0
 42
0.000000001
 43
0.00000001
 40
0.0
 40
0.0
 40
0.0
 40
0.0
 40
0.3001143792382828
 40
0.5559015030612456
 40
0.7826046088767655
 40
1.0
 40
1.0
 40
1.0
 40
1.0
 10
348.2255904942477
 20
6244.897584375689
 30
0.0
 10
348.1904116660141
 20
6244.899015599914
 30
0.0
 10
348.1252499648637
 20
6244.901666654822
 30
0.0
 10
348.0363914710237
 20
6244.927495009275
 30
0.0
 10
347.9663911258282
 20
6244.974348103025
 30
0.0
 10
347.9389709884
 20
6245.019064639496
 30
0.0
 10
347.9255482645179
 20
6245.040954308121
 30
0.0
  0
SPLINE
  5
8D
330
1F
100
AcDbEntity
  8
0
  6
Continuous
 62
     7
370
    25
100
AcDbSpline
210
0.0
220
0.0
230
1.0
 70
     8
 71
     3
 72
    15
 73
    11
 74
     0
 42
0.000000001
 43
0.00000001
 40
0.0
 40
0.0
 40
0.0
 40
0.0
 40
0.1192175102583258
 40
0.2297017703973559
 40
0.3334438581370426
 40
0.4396463856240429
 40
0.5549287995728975
 40
0.6845266202812075
 40
0.8318030273728281
 40
1.0
 40
1.0
 40
1.0
 40
1.0
 10
355.5430736023557
 20
6245.329172213527
 30
0.0
 10
355.5417576575161
 20
6245.302902023198
 30
0.0
 10
355.5392221670606
 20
6245.25228605903
 30
0.0
 10
355.5169906820557
 20
6245.181366648166
 30
0.0
 10
355.4785969924536
 20
6245.121287778247
 30
0.0
 10
355.4248460995694
 20
6245.072842245964
 30
0.0
 10
355.3563676767648
 20
6245.035936594707
 30
0.0
 10
355.2737983733924
 20
6245.009416696367
 30
0.0
 10
355.1764609488538
 20
6244.995894919365
 30
0.0
 10
355.1070875640914
 20
6244.993471196245
 30
0.0
 10
355.0701006293828
 20
6244.992178970284
 30
0.0
  0
SPLINE
  5
8E
330
1F
100
AcDbEntity
  8
0
  6
Continuous
 62
     7
370
    25
100
AcDbSpline
210
0.0
220
0.0
230
1.0
 70
     8
 71
     3
 72
    15
 73
    11
 74
     0
 42
0.000000001
 43
0.00000001
 40
0.0
 40
0.0
 40
0.0
 40
0.0
 40
0.1535989970092522
 40
0.2888570630727537
 40
0.4102877322893912
 40
0.5222412776215651
 40
0.6308521699902752
 40
0.7428057153224303
 40
0.8642363845390946
 40
1.0
 40
1.0
 40
1.0
 40
1.0
 10
355.0701006293828
 20
6244.992178970284
 30
0.0
 10
355.0404937364872
 20
6244.993469586346
 30
0.0
 10
354.9848152470761
 20
6244.995896708738
 30
0.0
 10
354.9064249151077
 20
6245.009593395199
 30
0.0
 10
354.8400106539662
 20
6245.036467884828
 30
0.0
 10
354.7850173932687
 20
6245.073944227282
 30
0.0
 10
354.7422972014251
 20
6245.122768498213
 30
0.0
 10
354.7124597741652
 20
6245.182236485657
 30
0.0
 10
354.6945803828168
 20
6245.2517847985
 30
0.0
 10
354.6927097112596
 20
6245.301468129117
 30
0.0
 10
354.6917222510044
 20
6245.327694172986
 30
0.0
  0
SPLINE
  5
90
330
1F
100
AcDbEntity
  8
0
  6
Continuous
 62
     7
370
    25
100
AcDbSpline
210
0.0
220
0.0
230
1.0
 70
     8
 71
     3
 72
    23
 73
    19
 74
     0
 42
0.000000001
 43
0.00000001
 40
0.0
 40
0.0
 40
0.0
 40
0.0
 40
0.0334146642679959
 40
0.0706415875012511
 40
0.1119151205697348
 40
0.1568014428305732
 40
0.2057482928643355
 40
0.2585413223041758
 40
0.3151851552196729
 40
0.3755674573316671
 40
0.4401387745588043
 40
0.508451082750287
 40
0.5805295359398323
 40
0.6567787582296527
 40
0.7366782362750804
 40
0.8204433742931668
 40
0.9082878751387278
 40
1.0
 40
1.0
 40
1.0
 40
1.0
 10
354.6917222510044
 20
6250.416587754067
 30
0.0
 10
354.6653949740858
 20
6250.354880091842
 30
0.0
 10
354.6097367570469
 20
6250.224424577292
 30
0.0
 10
354.5156656282609
 20
6250.020353356698
 30
0.0
 10
354.4100261776339
 20
6249.796279480882
 30
0.0
 10
354.2892497912844
 20
6249.553385485117
 30
0.0
 10
354.1566165576432
 20
6249.290579435801
 30
0.0
 10
354.0101999410679
 20
6249.008299960529
 30
0.0
 10
353.850156991892
 20
6248.707255066072
 30
0.0
 10
353.6789675870231
 20
6248.38534796258
 30
0.0
 10
353.4921688644633
 20
6248.045251706589
 30
0.0
 10
353.2953900077414
 20
6247.683842007371
 30
0.0
 10
353.0803882164732
 20
6247.305739049775
 30
0.0
 10
352.857566677169
 20
6246.905355869971
 30
0.0
 10
352.6188218660865
 20
6246.487009588423
 30
0.0
 10
352.3672280845611
 20
6246.04920430616
 30
0.0
 10
352.1031078481474
 20
6245.591241372772
 30
0.0
 10
351.9215116176378
 20
6245.27982871714
 30
0.0
 10
351.8287577239774
 20
6245.120768497311
 30
0.0
  0
SPLINE
  5
91
330
1F
100
AcDbEntity
  8
0
  6
Continuous
 62
     7
370
    25
100
AcDbSpline
210
0.0
220
0.0
230
1.0
 70
     8
 71
     3
 72
    11
 73
     7
 74
     0
 42
0.000000001
 43
0.00000001
 40
0.0
 40
0.0
 40
0.0
 40
0.0
 40
0.2313873800035676
 40
0.4600929995060377
 40
0.7110696812174976
 40
1.0
 40
1.0
 40
1.0
 40
1.0
 10
351.8287577239774
 20
6245.120768497311
 30
0.0
 10
351.8061525574163
 20
6245.086358376206
 30
0.0
 10
351.7612042162957
 20
6245.017936944439
 30
0.0
 10
351.6545450796875
 20
6244.946898091127
 30
0.0
 10
351.5247433795215
 20
6244.902723637601
 30
0.0
 10
351.4291252431704
 20
6244.899375907692
 30
0.0
 10
351.3779553591125
 20
6244.897584375689
 30
0.0
  0
SPLINE
  5
92
330
1F
100
AcDbEntity
  8
0
  6
Continuous
 62
     7
370
    25
100
AcDbSpline
210
0.0
220
0.0
230
1.0
 70
     8
 71
     3
 72
    15
 73
    11
 74
     0
 42
0.000000001
 43
0.00000001
 40
0.0
 40
0.0
 40
0.0
 40
0.0
 40
0.1464537970123183
 40
0.2740558316442751
 40
0.3917684023119597
 40
0.4994269965368768
 40
0.6105024493604652
 40
0.7260022282037345
 40
0.8559762080598533
 40
1.0
 40
1.0
 40
1.0
 40
1.0
 10
351.3779553591125
 20
6244.897584375689
 30
0.0
 10
351.3482829717149
 20
6244.89851202637
 30
0.0
 10
351.2927576731495
 20
6244.90024791908
 30
0.0
 10
351.2150586919676
 20
6244.918393385477
 30
0.0
 10
351.1492845807717
 20
6244.947407325734
 30
0.0
 10
351.0945138638809
 20
6244.989072324044
 30
0.0
 10
351.0530817697437
 20
6245.043405029494
 30
0.0
 10
351.0227143957259
 20
6245.109383569797
 30
0.0
 10
351.0055561527292
 20
6245.186913169426
 30
0.0
 10
351.0035746277405
 20
6245.242375495627
 30
0.0
 10
351.0025330618151
 20
6245.271528632446
 30
0.0
  0
SPLINE
  5
94
330
1F
100
AcDbEntity
  8
0
  6
Continuous
 62
     7
370
    25
100
AcDbSpline
210
0.0
220
0.0
230
1.0
 70
     8
 71
     3
 72
    15
 73
    11
 74
     0
 42
0.000000001
 43
0.00000001
 40
0.0
 40
0.0
 40
0.0
 40
0.0
 40
0.1373554302531355
 40
0.2604035025254685
 40
0.3715837235509886
 40
0.4813661282244365
 40
0.5925463492499732
 40
0.7131382304872341
 40
0.8474619951863046
 40
1.0
 40
1.0
 40
1.0
 40
1.0
 10
351.0025330618151
 20
6251.652229645959
 30
0.0
 10
351.0035523456551
 20
6251.678930066842
 30
0.0
 10
351.0054847416404
 20
6251.729549711829
 30
0.0
 10
351.0228812371478
 20
6251.800309269038
 30
0.0
 10
351.0535945120084
 20
6251.860190402711
 30
0.0
 10
351.0952606338117
 20
6251.910415514562
 30
0.0
 10
351.1508967668656
 20
6251.947827249326
 30
0.0
 10
351.2172124052042
 20
6251.974783996228
 30
0.0
 10
351.2956331155723
 20
6251.988455345302
 30
0.0
 10
351.3513069973795
 20
6251.990886310709
 30
0.0
 10
351.3809114401936
 20
6251.992178970284
 30
0.0
  0
SPLINE
  5
95
330
1F
100
AcDbEntity
  8
0
  6
Continuous
 62
     7
370
    25
100
AcDbSpline
210
0.0
220
0.0
230
1.0
 70
     8
 71
     3
 72
    15
 73
    11
 74
     0
 42
0.000000001
 43
0.00000001
 40
0.0
 40
0.0
 40
0.0
 40
0.0
 40
0.167568003901192
 40
0.3142936742423773
 40
0.4434068668690795
 40
0.558258184871929
 40
0.6655816592802571
 40
0.7689358058594264
 40
0.8790069126387079
 40
1.0
 40
1.0
 40
1.0
 40
1.0
 10
351.3809114401936
 20
6251.992178970284
 30
0.0
 10
351.4178954261527
 20
6251.990883605416
 30
0.0
 10
351.4872632801856
 20
6251.988453994901
 30
0.0
 10
351.5846368070496
 20
6251.974970648384
 30
0.0
 10
351.6670924669554
 20
6251.948329777957
 30
0.0
 10
351.7362294815431
 20
6251.911648629743
 30
0.0
 10
351.7889479274223
 20
6251.861581713208
 30
0.0
 10
351.827878955661
 20
6251.801596648399
 30
0.0
 10
351.8501610436068
 20
6251.730094563713
 30
0.0
 10
351.8526047862363
 20
6251.678989827587
 30
0.0
 10
351.8538844131666
 20
6251.652229645959
 30
0.0
  0
SPLINE
  5
97
330
1F
100
AcDbEntity
  8
0
  6
Continuous
 62
     7
370
    25
100
AcDbSpline
210
0.0
220
0.0
230
1.0
 70
     8
 71
     3
 72
    23
 73
    19
 74
     0
 42
0.000000001
 43
0.00000001
 40
0.0
 40
0.0
 40
0.0
 40
0.0
 40
0.0333622918371896
 40
0.070537208863741
 40
0.1115383836035361
 40
0.1565969356893812
 40
0.2052786559003812
 40
0.2580290709847674
 40
0.3146334681774184
 40
0.3753126610659953
 40
0.4396363003125068
 40
0.508039201251163
 40
0.580307714191786
 40
0.656323593472297
 40
0.7363290306546062
 40
0.8202052542760319
 40
0.9081662505946182
 40
0.9999999999999999
 40
0.9999999999999999
 40
0.9999999999999999
 40
0.9999999999999999
 10
351.8538844131666
 20
6246.473175591906
 30
0.0
 10
351.8797257816626
 20
6246.534877522903
 30
0.0
 10
351.9343616566746
 20
6246.665332649165
 30
0.0
 10
352.0264957102125
 20
6246.869138324439
 30
0.0
 10
352.1319439109633
 20
6247.092596332347
 30
0.0
 10
352.249499360257
 20
6247.335851362468
 30
0.0
 10
352.3820730070778
 20
6247.597955820358
 30
0.0
 10
352.5264345707149
 20
6247.880029938453
 30
0.0
 10
352.685248284291
 20
6248.181706316115
 30
0.0
 10
352.8558336909622
 20
6248.503407430077
 30
0.0
 10
353.0416342087847
 20
6248.843785752081
 30
0.0
 10
353.2390913240055
 20
6249.204269885965
 30
0.0
 10
353.4509668405704
 20
6249.583569618071
 30
0.0
 10
353.673600188373
 20
6249.983507450271
 30
0.0
 10
353.9120020272931
 20
6250.401276990944
 30
0.0
 10
354.1635988515788
 20
6250.839080634457
 30
0.0
 10
354.4277182290512
 20
6251.297044030449
 30
0.0
 10
354.6093145797425
 20
6251.608456621353
 30
0.0
 10
354.7020685347882
 20
6251.767516808121
 30
0.0
  0
SPLINE
  5
98
330
1F
100
AcDbEntity
  8
0
  6
Continuous
 62
     7
370
    25
100
AcDbSpline
210
0.0
220
0.0
230
1.0
 70
     8
 71
     3
 72
    11
 73
     7
 74
     0
 42
0.000000001
 43
0.00000001
 40
0.0
 40
0.0
 40
0.0
 40
0.0
 40
0.2649126273671157
 40
0.5065558449239673
 40
0.7458461875178102
 40
1.0
 40
1.0
 40
1.0
 40
1.0
 10
354.7020685347882
 20
6251.767516808121
 30
0.0
 10
354.723318904284
 20
6251.80214390011
 30
0.0
 10
354.7639530521611
 20
6251.868356507692
 30
0.0
 10
354.8545590806062
 20
6251.939722932894
 30
0.0
 10
354.9584970672404
 20
6251.986237820352
 30
0.0
 10
355.0341109517201
 20
6251.990159213715
 30
0.0
 10
355.0730567104638
 20
6251.992178970284
 30
0.0
  0
SPLINE
  5
99
330
1F
100
AcDbEntity
  8
0
  6
Continuous
 62
     7
370
    25
100
AcDbSpline
210
0.0
220
0.0
230
1.0
 70
     8
 71
     3
 72
    15
 73
    11
 74
     0
 42
0.000000001
 43
0.00000001
 40
0.0
 40
0.0
 40
0.0
 40
0.0
 40
0.1624566800599305
 40
0.303302010242067
 40
0.4291664366098112
 40
0.5438062297015
 40
0.6493516081969701
 40
0.7569385026546543
 40
0.8719246710993079
 40
1.0
 40
1.0
 40
1.0
 40
1.0
 10
355.0730567104638
 20
6251.992178970284
 30
0.0
 10
355.1101157963105
 20
6251.991304642356
 30
0.0
 10
355.1793040576417
 20
6251.989672296932
 30
0.0
 10
355.275605051103
 20
6251.971140226731
 30
0.0
 10
355.3588061786384
 20
6251.944608306697
 30
0.0
 10
355.4266431533399
 20
6251.902776218363
 30
0.0
 10
355.4792686331347
 20
6251.848796536377
 30
0.0
 10
355.5170145498144
 20
6251.783448946004
 30
0.0
 10
355.5394806283813
 20
6251.705878430013
 30
0.0
 10
355.5418337056628
 20
6251.650415587168
 30
0.0
 10
355.5430736023557
 20
6251.621190794609
 30
0.0
  0
SPLINE
  5
9B
330
1F
100
AcDbEntity
  8
0
  6
Continuous
 62
     7
370
    25
100
AcDbSpline
210
0.0
220
0.0
230
1.0
 70
     8
 71
     3
 72
    15
 73
    11
 74
     0
 42
0.000000001
 43
0.00000001
 40
0.0
 40
0.0
 40
0.0
 40
0.0
 40
0.1210437057282522
 40
0.2311608615819353
 40
0.3345582471447495
 40
0.4404078971910528
 40
0.5564076305371797
 40
0.6855748386379428
 40
0.8323618927655642
 40
1.0
 40
1.0
 40
1.0
 40
1.0
 10
359.440370899653
 20
6245.237533700013
 30
0.0
 10
359.4391004442709
 20
6245.210762690021
 30
0.0
 10
359.4366742168271
 20
6245.159637274633
 30
0.0
 10
359.4142722454701
 20
6245.08827673001
 30
0.0
 10
359.3759486658473
 20
6245.028075933622
 30
0.0
 10
359.3217439878896
 20
6244.979942414167
 30
0.0
 10
359.2541541139338
 20
6244.940965912235
 30
0.0
 10
359.1710135502615
 20
6244.914966309466
 30
0.0
 10
359.073783454938
 20
6244.901256056844
 30
0.0
 10
359.004393627776
 20
6244.898861207424
 30
0.0
 10
358.9673979266801
 20
6244.897584375689
 30
0.0
  0
SPLINE
  5
9C
330
1F
100
AcDbEntity
  8
0
  6
Continuous
 62
     7
370
    25
100
AcDbSpline
210
0.0
220
0.0
230
1.0
 70
     8
 71
     3
 72
    15
 73
    11
 74
     0
 42
0.000000001
 43
0.00000001
 40
0.0
 40
0.0
 40
0.0
 40
0.0
 40
0.1526075283706792
 40
0.2869925149660431
 40
0.4076393594010843
 40
0.520337098371888
 40
0.6282469165429296
 40
0.739477811132997
 40
0.862581966082401
 40
1.0
 40
1.0
 40
1.0
 40
1.0
 10
358.9673979266801
 20
6244.897584375689
 30
0.0
 10
358.9377824859639
 20
6244.898862945096
 30
0.0
 10
358.8820879215887
 20
6244.901267412642
 30
0.0
 10
358.8038035734879
 20
6244.915113464799
 30
0.0
 10
358.736777877827
 20
6244.941608729531
 30
0.0
 10
358.682754313704
 20
6244.980968472179
 30
0.0
 10
358.6395462142654
 20
6245.029559717362
 30
0.0
 10
358.6094771878487
 20
6245.089558878583
 30
0.0
 10
358.5919388330752
 20
6245.160182618943
 30
0.0
 10
358.5900276453752
 20
6245.21082256886
 30
0.0
 10
358.5890195483017
 20
6245.237533700013
 30
0.0
  0
SPLINE
  5
9E
330
1F
100
AcDbEntity
  8
0
  6
Continuous
 62
     7
370
    25
100
AcDbSpline
210
0.0
220
0.0
230
1.0
 70
     8
 71
     3
 72
    15
 73
    11
 74
     0
 42
0.000000001
 43
0.00000001
 40
0.0
 40
0.0
 40
0.0
 40
0.0
 40
0.1373554302531342
 40
0.2604035025254664
 40
0.3715837235509881
 40
0.4813661282244353
 40
0.5925463492499713
 40
0.7131382304872315
 40
0.8474619951863107
 40
1.0
 40
1.0
 40
1.0
 40
1.0
 10
358.5890195483017
 20
6251.601976267581
 30
0.0
 10
358.5900388321416
 20
6251.628676688463
 30
0.0
 10
358.5919712281269
 20
6251.679296333449
 30
0.0
 10
358.6093677236343
 20
6251.750055890659
 30
0.0
 10
358.6400809984948
 20
6251.809937024334
 30
0.0
 10
358.6817471202982
 20
6251.860162136183
 30
0.0
 10
358.7373832533521
 20
6251.897573870948
 30
0.0
 10
358.8036988916907
 20
6251.924530617851
 30
0.0
 10
358.8821196020588
 20
6251.938201966922
 30
0.0
 10
358.937793483866
 20
6251.940632932331
 30
0.0
 10
358.9673979266801
 20
6251.941925591906
 30
0.0
  0
SPLINE
  5
9F
330
1F
100
AcDbEntity
  8
0
  6
Continuous
 62
     7
370
    25
100
AcDbSpline
210
0.0
220
0.0
230
1.0
 70
     8
 71
     3
 72
    15
 73
    11
 74
     0
 42
0.000000001
 43
0.00000001
 40
0.0
 40
0.0
 40
0.0
 40
0.0
 40
0.167568003901191
 40
0.3142936742423851
 40
0.443406866869082
 40
0.558258184871934
 40
0.6655816592802581
 40
0.7689358058594287
 40
0.879006912638709
 40
0.9999999999999999
 40
0.9999999999999999
 40
0.9999999999999999
 40
0.9999999999999999
 10
358.9673979266801
 20
6251.941925591906
 30
0.0
 10
359.0043819126392
 20
6251.940630227037
 30
0.0
 10
359.0737497666721
 20
6251.938200616522
 30
0.0
 10
359.1711232935361
 20
6251.924717270006
 30
0.0
 10
359.2535789534418
 20
6251.89807639958
 30
0.0
 10
359.3227159680297
 20
6251.861395251364
 30
0.0
 10
359.3754344139088
 20
6251.811328334828
 30
0.0
 10
359.4143654421475
 20
6251.75134327002
 30
0.0
 10
359.4366475300933
 20
6251.679841185334
 30
0.0
 10
359.4390912727227
 20
6251.628736449208
 30
0.0
 10
359.440370899653
 20
6251.601976267581
 30
0.0
  0
SPLINE
  5
A1
330
1F
100
AcDbEntity
  8
0
  6
Continuous
 62
     7
370
    25
100
AcDbSpline
210
0.0
220
0.0
230
1.0
 70
     8
 71
     3
 72
    15
 73
    11
 74
     0
 42
0.000000001
 43
0.00000001
 40
0.0
 40
0.0
 40
0.0
 40
0.0
 40
0.1439260333300627
 40
0.2784765853576784
 40
0.4092555968416737
 40
0.5399770629683089
 40
0.6654863431822337
 40
0.7798156449893177
 40
0.8896899780375731
 40
1.0
 40
1.0
 40
1.0
 40
1.0
 10
364.998985764518
 20
6245.654341132446
 30
0.0
 10
365.0721957073974
 20
6245.657290920943
 30
0.0
 10
365.2138466265233
 20
6245.662998345855
 30
0.0
 10
365.4171794372914
 20
6245.712149368996
 30
0.0
 10
365.6036078952873
 20
6245.790446828588
 30
0.0
 10
365.767515644847
 20
6245.901127792729
 30
0.0
 10
365.9042626839529
 20
6246.031928432826
 30
0.0
 10
366.0075361900314
 20
6246.177919493945
 30
0.0
 10
366.0703082856518
 20
6246.338797332309
 30
0.0
 10
366.0773723959862
 20
6246.450972138511
 30
0.0
 10
366.0809114401936
 20
6246.507170524338
 30
0.0
  0
SPLINE
  5
A3
330
1F
100
AcDbEntity
  8
0
  6
Continuous
 62
     7
370
    25
100
AcDbSpline
210
0.0
220
0.0
230
1.0
 70
     8
 71
     3
 72
    15
 73
    11
 74
     0
 42
0.000000001
 43
0.00000001
 40
0.0
 40
0.0
 40
0.0
 40
0.0
 40
0.1105551494240724
 40
0.2197648197004547
 40
0.334348180486482
 40
0.4601664006520263
 40
0.5906400458085316
 40
0.7220947096289276
 40
0.8567234004474616
 40
1.0
 40
1.0
 40
1.0
 40
1.0
 10
366.0809114401936
 20
6247.454594510824
 30
0.0
 10
366.077449445986
 20
6247.510824817892
 30
0.0
 10
366.07056759076
 20
6247.622601097502
 30
0.0
 10
366.0070228087873
 20
6247.782602853115
 30
0.0
 10
365.9047012583875
 20
6247.928759429939
 30
0.0
 10
365.7659859803623
 20
6248.0574207076
 30
0.0
 10
365.601396590351
 20
6248.166304591712
 30
0.0
 10
365.4163320260474
 20
6248.247574313417
 30
0.0
 10
365.212559347188
 20
6248.293573684437
 30
0.0
 10
365.0716386905133
 20
6248.299786636936
 30
0.0
 10
364.998985764518
 20
6248.302989781095
 30
0.0
  0
SPLINE
  5
A7
330
1F
100
AcDbEntity
  8
0
  6
Continuous
 62
     7
370
    25
100
AcDbSpline
210
0.0
220
0.0
230
1.0
 70
     8
 71
     3
 72
    15
 73
    11
 74
     0
 42
0.000000001
 43
0.00000001
 40
0.0
 40
0.0
 40
0.0
 40
0.0
 40
0.1271179310354498
 40
0.2485406975471945
 40
0.3675347633803843
 40
0.4854327846241233
 40
0.6056025366760966
 40
0.7302491543916751
 40
0.8613520659241202
 40
1.0
 40
1.0
 40
1.0
 40
1.0
 10
366.6484790077611
 20
6249.894839443257
 30
0.0
 10
366.6466119797547
 20
6249.837535214242
 30
0.0
 10
366.6429615707266
 20
6249.72549411244
 30
0.0
 10
366.6107386326167
 20
6249.562411297277
 30
0.0
 10
366.5592721594972
 20
6249.408950971405
 30
0.0
 10
366.485570694906
 20
6249.265349800754
 30
0.0
 10
366.3914372863135
 20
6249.131196814947
 30
0.0
 10
366.2761775530433
 20
6249.00665201467
 30
0.0
 10
366.1413310997779
 20
6248.890139217122
 30
0.0
 10
366.0389428747728
 20
6248.824487280988
 30
0.0
 10
365.986316845599
 20
6248.790743159473
 30
0.0
  0
SPLINE
  5
A8
330
1F
100
AcDbEntity
  8
0
  6
Continuous
 62
     7
370
    25
100
AcDbSpline
210
0.0
220
0.0
230
1.0
 70
     8
 71
     3
 72
    15
 73
    11
 74
     0
 42
0.000000001
 43
0.00000001
 40
0.0
 40
0.0
 40
0.0
 40
0.0
 40
0.1219393189546105
 40
0.2443626393273488
 40
0.3705155008832207
 40
0.5026440578766689
 40
0.6339248058427827
 40
0.759414998673193
 40
0.8795670418644045
 40
1.0
 40
1.0
 40
1.0
 40
1.0
 10
365.986316845599
 20
6248.790743159473
 30
0.0
 10
366.0508585194011
 20
6248.763116225191
 30
0.0
 10
366.1801980457498
 20
6248.707752699826
 30
0.0
 10
366.3582991338828
 20
6248.588480859818
 30
0.0
 10
366.5183426884129
 20
6248.438235475862
 30
0.0
 10
366.6610482744292
 20
6248.264880689831
 30
0.0
 10
366.7799718806759
 20
6248.074811397553
 30
0.0
 10
366.8689854043998
 20
6247.876433093358
 30
0.0
 10
366.92132919205
 20
6247.671078070965
 30
0.0
 10
366.9286154224993
 20
6247.53272170951
 30
0.0
 10
366.9322627915449
 20
6247.463462754068
 30
0.0
  0
SPLINE
  5
AA
330
1F
100
AcDbEntity
  8
0
  6
Continuous
 62
     7
370
    25
100
AcDbSpline
210
0.0
220
0.0
230
1.0
 70
     8
 71
     3
 72
    23
 73
    19
 74
     0
 42
0.000000001
 43
0.00000001
 40
0.0
 40
0.0
 40
0.0
 40
0.0
 40
0.0538534223544983
 40
0.1074162956005605
 40
0.1611353998371148
 40
0.2159909930043346
 40
0.2731503680699428
 40
0.3330354808941359
 40
0.3958113019461438
 40
0.462385077905311
 40
0.5301377754187964
 40
0.5966420634331737
 40
0.6622891550676949
 40
0.727874589685868
 40
0.7941939467957251
 40
0.8612499675157619
 40
0.9295273853094157
 40
1.0
 40
1.0
 40
1.0
 40
1.0
 10
366.9322627915449
 20
6246.474653632446
 30
0.0
 10
366.9305218249135
 20
6246.425281815179
 30
0.0
 10
366.9270492844856
 20
6246.326804550669
 30
0.0
 10
366.9000844248877
 20
6246.180937055414
 30
0.0
 10
366.8528183747972
 20
6246.039759174326
 30
0.0
 10
366.7909156115851
 20
6245.900681476161
 30
0.0
 10
366.7082600906162
 20
6245.766125620221
 30
0.0
 10
366.6091051006232
 20
6245.634189689199
 30
0.0
 10
366.4909909628431
 20
6245.5068158811
 30
0.0
 10
366.3579072499517
 20
6245.38449062775
 30
0.0
 10
366.2137953465415
 20
6245.269550697833
 30
0.0
 10
366.0591199274172
 20
6245.170882746962
 30
0.0
 10
365.899067654933
 20
6245.085338909372
 30
0.0
 10
365.7308432335489
 20
6245.017557666806
 30
0.0
 10
365.5562185891306
 20
6244.964254677022
 30
0.0
 10
365.3752069371841
 20
6244.92613109879
 30
0.0
 10
365.1878828579093
 20
6244.90122883065
 30
0.0
 10
365.0606517261475
 20
6244.898811940075
 30
0.0
 10
364.9960296834369
 20
6244.897584375689
 30
0.0
  0
SPLINE
  5
AD
330
1F
100
AcDbEntity
  8
0
  6
Continuous
 62
     7
370
    25
100
AcDbSpline
210
0.0
220
0.0
230
1.0
 70
     8
 71
     3
 72
    15
 73
    11
 74
     0
 42
0.000000001
 43
0.00000001
 40
0.0
 40
0.0
 40
0.0
 40
0.0
 40
0.105937260820786
 40
0.212231533795738
 40
0.3251295413071115
 40
0.4515120906552147
 40
0.5849614172120379
 40
0.7174301248415793
 40
0.8548322072058467
 40
1.0
 40
1.0
 40
1.0
 40
1.0
 10
365.7971276564098
 20
6250.329383362176
 30
0.0
 10
365.7937536032645
 20
6250.382249714718
 30
0.0
 10
365.7869941263007
 20
6250.488160581199
 30
0.0
 10
365.7207345176354
 20
6250.638564775898
 30
0.0
 10
365.6183502728541
 20
6250.777454602336
 30
0.0
 10
365.4795074699554
 20
6250.901552873656
 30
0.0
 10
365.3155636758194
 20
6251.008381554907
 30
0.0
 10
365.1300106415594
 20
6251.086420650669
 30
0.0
 10
364.9279030833654
 20
6251.133292754819
 30
0.0
 10
364.7873895665076
 20
6251.138270398294
 30
0.0
 10
364.7152019807341
 20
6251.140827618933
 30
0.0
  0
SPLINE
  5
AF
330
1F
100
AcDbEntity
  8
0
  6
Continuous
 62
     7
370
    25
100
AcDbSpline
210
0.0
220
0.0
230
1.0
 70
     8
 71
     3
 72
    15
 73
    11
 74
     0
 42
0.000000001
 43
0.00000001
 40
0.0
 40
0.0
 40
0.0
 40
0.0
 40
0.1447297704270959
 40
0.2829044928472487
 40
0.4145915407388673
 40
0.5476382036691688
 40
0.6736394123469198
 40
0.78780160540231
 40
0.8934006932838949
 40
1.0
 40
1.0
 40
1.0
 40
1.0
 10
364.7152019807341
 20
6249.059746537852
 30
0.0
 10
364.7874372525421
 20
6249.062139798635
 30
0.0
 10
364.9286361425577
 20
6249.066817925506
 30
0.0
 10
365.1304545145302
 20
6249.116232864684
 30
0.0
 10
365.3174553780214
 20
6249.191694254343
 30
0.0
 10
365.4808162866387
 20
6249.299261668236
 30
0.0
 10
365.6208207659697
 20
6249.423305196085
 30
0.0
 10
365.7217655629432
 20
6249.56423488264
 30
0.0
 10
365.7869220344771
 20
6249.716095911144
 30
0.0
 10
365.7937151091481
 20
6249.822281741944
 30
0.0
 10
365.7971276564098
 20
6249.87562491623
 30
0.0
  0
SPLINE
  5
B2
330
1F
100
AcDbEntity
  8
0
  6
Continuous
 62
     7
370
    25
100
AcDbSpline
210
0.0
220
0.0
230
1.0
 70
     8
 71
     3
 72
    15
 73
    11
 74
     0
 42
0.000000001
 43
0.00000001
 40
0.0
 40
0.0
 40
0.0
 40
0.0
 40
0.1541201025961557
 40
0.2900984006613126
 40
0.4099522426294512
 40
0.522532002376108
 40
0.629732537578221
 40
0.7436313623249706
 40
0.8634852042931012
 40
0.9999999999999999
 40
0.9999999999999999
 40
0.9999999999999999
 40
0.9999999999999999
 10
362.9652019807341
 20
6244.897584375689
 30
0.0
 10
362.9351162819777
 20
6244.898905511251
 30
0.0
 10
362.8784863359487
 20
6244.901392268703
 30
0.0
 10
362.7989435619476
 20
6244.914663451265
 30
0.0
 10
362.7319996453851
 20
6244.942348525923
 30
0.0
 10
362.6757457830039
 20
6244.978787940488
 30
0.0
 10
362.632798669069
 20
6245.028866634961
 30
0.0
 10
362.6016291268228
 20
6245.088358947743
 30
0.0
 10
362.5837020251237
 20
6245.159182488263
 30
0.0
 10
362.5818810818208
 20
6245.20934461907
 30
0.0
 10
362.5809114401936
 20
6245.236055659473
 30
0.0
  0
SPLINE
  5
B4
330
1F
100
AcDbEntity
  8
0
  6
Continuous
 62
     7
370
    25
100
AcDbSpline
210
0.0
220
0.0
230
1.0
 70
     8
 71
     3
 72
    15
 73
    11
 74
     0
 42
0.000000001
 43
0.00000001
 40
0.0
 40
0.0
 40
0.0
 40
0.0
 40
0.1361964818611087
 40
0.2557708586094361
 40
0.3694041035503645
 40
0.4763546774610122
 40
0.5886719330878335
 40
0.7105780266601054
 40
0.8462392618399833
 40
0.9999999999999999
 40
0.9999999999999999
 40
0.9999999999999999
 40
0.9999999999999999
 10
362.5809114401936
 20
6251.559113091906
 30
0.0
 10
362.5818809630577
 20
6251.585824430986
 30
0.0
 10
362.583701683329
 20
6251.635987122693
 30
0.0
 10
362.601630277687
 20
6251.706806909329
 30
0.0
 10
362.6327946760709
 20
6251.766312158401
 30
0.0
 10
362.6757600384877
 20
6251.816344959803
 30
0.0
 10
362.7323284011777
 20
6251.853217727007
 30
0.0
 10
362.8000649419577
 20
6251.880184019947
 30
0.0
 10
362.8799351514803
 20
6251.893850624098
 30
0.0
 10
362.9365841830005
 20
6251.896288963242
 30
0.0
 10
362.9666800212747
 20
6251.89758437569
 30
0.0
  0
SPLINE
  5
B6
330
1F
100
AcDbEntity
  8
0
  6
Continuous
 62
     7
370
    25
100
AcDbSpline
210
0.0
220
0.0
230
1.0
 70
     8
 71
     3
 72
    23
 73
    19
 74
     0
 42
0.000000001
 43
0.00000001
 40
0.0
 40
0.0
 40
0.0
 40
0.0
 40
0.0731999223018658
 40
0.1440477339473799
 40
0.2125890988116594
 40
0.2796494837241318
 40
0.3456685361581112
 40
0.4110956778397485
 40
0.4765183319092159
 40
0.5422990275307367
 40
0.6067814702031408
 40
0.6681279037175939
 40
0.7264391356092287
 40
0.7825670683159506
 40
0.8373663095748209
 40
0.8911870590563454
 40
0.9451766540909365
 40
0.9999999999999999
 40
0.9999999999999999
 40
0.9999999999999999
 40
0.9999999999999999
 10
364.712245899653
 20
6251.89758437569
 30
0.0
 10
364.7787994955549
 20
6251.896026390242
 30
0.0
 10
364.9097681410703
 20
6251.892960481612
 30
0.0
 10
365.1023386175482
 20
6251.872912036694
 30
0.0
 10
365.2864740679012
 20
6251.835137235648
 30
0.0
 10
365.4628614946698
 20
6251.784769671434
 30
0.0
 10
365.6325181571067
 20
6251.722184325346
 30
0.0
 10
365.7922436929072
 20
6251.640782182999
 30
0.0
 10
365.9455740077756
 20
6251.548340928583
 30
0.0
 10
366.0871234394616
 20
6251.440156496289
 30
0.0
 10
366.2185779188814
 20
6251.325429100199
 30
0.0
 10
366.3317559749672
 20
6251.201784449869
 30
0.0
 10
366.4317330193492
 20
6251.076622323665
 30
0.0
 10
366.5094986260897
 20
6250.943419697212
 30
0.0
 10
366.5733436356934
 20
6250.807476055494
 30
0.0
 10
366.615303453836
 20
6250.6653199035
 30
0.0
 10
366.6436269123433
 20
6250.519698840151
 30
0.0
 10
366.6468534019093
 20
6250.420664885569
 30
0.0
 10
366.6484790077611
 20
6250.370768497311
 30
0.0
  0
CIRCLE
  5
B8
330
1F
100
AcDbEntity
  8
0
  6
Continuous
 62
     7
370
    25
100
AcDbCircle
 10
355.7022638878
 20
6257.734074801
 30
0.0
 40
2.500000000000909
  0
CIRCLE
  5
B9
330
1F
100
AcDbEntity
  8
0
  6
Continuous
 62
     7
370
    25
100
AcDbCircle
 10
355.7022638878
 20
6257.734074801
 30
0.0
 40
1.249999999999091
  0
LINE
  5
1D8
330
1F
100
AcDbEntity
  8
0
  6
Continuous
 62
     7
370
    25
100
AcDbLine
 10
345.118749278
 20
6247.6127448487
 30
0.0
 11
345.118749278
 21
6245.2390117406
 31
0.0
  0
LINE
  5
1D9
330
1F
100
AcDbEntity
  8
0
  6
Continuous
 62
     7
370
    25
100
AcDbLine
 10
344.2673979267
 20
6245.2360556595
 30
0.0
 11
344.2673979267
 21
6251.5591130919
 31
0.0
  0
LINE
  5
1DA
330
1F
100
AcDbEntity
  8
0
  6
Continuous
 62
     7
370
    25
100
AcDbLine
 10
345.118749278
 20
6251.5635472135
 30
0.0
 11
345.118749278
 21
6248.5424323487
 31
0.0
  0
LINE
  5
1DB
330
1F
100
AcDbEntity
  8
0
  6
Continuous
 62
     7
370
    25
100
AcDbLine
 10
345.118749278
 20
6248.5424323487
 30
0.0
 11
347.924070224
 21
6251.8561992406
 31
0.0
  0
LINE
  5
1DC
330
1F
100
AcDbEntity
  8
0
  6
Continuous
 62
     7
370
    25
100
AcDbLine
 10
348.6497881294
 20
6251.4704306595
 30
0.0
 11
346.5287999537
 21
6249.1602532946
 31
0.0
  0
LINE
  5
1DD
330
1F
100
AcDbEntity
  8
0
  6
Continuous
 62
     7
370
    25
100
AcDbLine
 10
346.5287999537
 20
6249.1602532946
 30
0.0
 11
348.6719587375
 21
6245.3868157946
 31
0.0
  0
LINE
  5
1DE
330
1F
100
AcDbEntity
  8
0
  6
Continuous
 62
     7
370
    25
100
AcDbLine
 10
347.9255482645
 20
6245.0409543081
 30
0.0
 11
345.9405398186
 21
6248.6281587
 31
0.0
  0
LINE
  5
1DF
330
1F
100
AcDbEntity
  8
0
  6
Continuous
 62
     7
370
    25
100
AcDbLine
 10
345.9405398186
 20
6248.6281587
 30
0.0
 11
345.118749278
 21
6247.6127448487
 31
0.0
  0
LINE
  5
1E0
330
1F
100
AcDbEntity
  8
0
  6
Continuous
 62
     7
370
    25
100
AcDbLine
 10
354.691722251
 20
6245.327694173
 30
0.0
 11
354.691722251
 21
6250.4165877541
 31
0.0
  0
LINE
  5
1E1
330
1F
100
AcDbEntity
  8
0
  6
Continuous
 62
     7
370
    25
100
AcDbLine
 10
351.0025330618
 20
6245.2715286324
 30
0.0
 11
351.0025330618
 21
6251.652229646
 31
0.0
  0
LINE
  5
1E2
330
1F
100
AcDbEntity
  8
0
  6
Continuous
 62
     7
370
    25
100
AcDbLine
 10
351.8538844132
 20
6251.652229646
 30
0.0
 11
351.8538844132
 21
6246.4731755919
 31
0.0
  0
LINE
  5
1E3
330
1F
100
AcDbEntity
  8
0
  6
Continuous
 62
     7
370
    25
100
AcDbLine
 10
355.5430736024
 20
6251.6211907946
 30
0.0
 11
355.5430736024
 21
6245.3291722135
 31
0.0
  0
LINE
  5
1E4
330
1F
100
AcDbEntity
  8
0
  6
Continuous
 62
     7
370
    25
100
AcDbLine
 10
358.5890195483
 20
6245.2375337
 30
0.0
 11
358.5890195483
 21
6251.6019762676
 31
0.0
  0
LINE
  5
1E5
330
1F
100
AcDbEntity
  8
0
  6
Continuous
 62
     7
370
    25
100
AcDbLine
 10
359.4403708997
 20
6251.6019762676
 30
0.0
 11
359.4403708997
 21
6245.2375337
 31
0.0
  0
LINE
  5
1E6
330
1F
100
AcDbEntity
  8
0
  6
Continuous
 62
     7
370
    25
100
AcDbLine
 10
366.0809114402
 20
6246.5071705243
 30
0.0
 11
366.0809114402
 21
6247.4545945108
 31
0.0
  0
LINE
  5
1E7
330
1F
100
AcDbEntity
  8
0
  6
Continuous
 62
     7
370
    25
100
AcDbLine
 10
364.9989857645
 20
6248.3029897811
 30
0.0
 11
363.4322627915
 21
6248.3029897811
 31
0.0
  0
LINE
  5
1E8
330
1F
100
AcDbEntity
  8
0
  6
Continuous
 62
     7
370
    25
100
AcDbLine
 10
363.4322627915
 20
6248.3029897811
 30
0.0
 11
363.4322627915
 21
6245.6543411324
 31
0.0
  0
LINE
  5
1E9
330
1F
100
AcDbEntity
  8
0
  6
Continuous
 62
     7
370
    25
100
AcDbLine
 10
363.4322627915
 20
6245.6543411324
 30
0.0
 11
364.9989857645
 21
6245.6543411324
 31
0.0
  0
LINE
  5
1EA
330
1F
100
AcDbEntity
  8
0
  6
Continuous
 62
     7
370
    25
100
AcDbLine
 10
366.9322627915
 20
6247.4634627541
 30
0.0
 11
366.9322627915
 21
6246.4746536324
 31
0.0
  0
LINE
  5
1EB
330
1F
100
AcDbEntity
  8
0
  6
Continuous
 62
     7
370
    25
100
AcDbLine
 10
364.9960296834
 20
6244.8975843757
 30
0.0
 11
362.9652019807
 21
6244.8975843757
 31
0.0
  0
LINE
  5
1EC
330
1F
100
AcDbEntity
  8
0
  6
Continuous
 62
     7
370
    25
100
AcDbLine
 10
364.7152019807
 20
6251.1408276189
 30
0.0
 11
363.4322627915
 21
6251.1408276189
 31
0.0
  0
LINE
  5
1ED
330
1F
100
AcDbEntity
  8
0
  6
Continuous
 62
     7
370
    25
100
AcDbLine
 10
365.7971276564
 20
6249.8756249162
 30
0.0
 11
365.7971276564
 21
6250.3293833622
 31
0.0
  0
LINE
  5
1EE
330
1F
100
AcDbEntity
  8
0
  6
Continuous
 62
     7
370
    25
100
AcDbLine
 10
363.4322627915
 20
6249.0597465379
 30
0.0
 11
364.7152019807
 21
6249.0597465379
 31
0.0
  0
LINE
  5
1EF
330
1F
100
AcDbEntity
  8
0
  6
Continuous
 62
     7
370
    25
100
AcDbLine
 10
363.4322627915
 20
6251.1408276189
 30
0.0
 11
363.4322627915
 21
6249.0597465379
 31
0.0
  0
LINE
  5
1F0
330
1F
100
AcDbEntity
  8
0
  6
Continuous
 62
     7
370
    25
100
AcDbLine
 10
362.5809114402
 20
6245.2360556595
 30
0.0
 11
362.5809114402
 21
6251.5591130919
 31
0.0
  0
LINE
  5
1F1
330
1F
100
AcDbEntity
  8
0
  6
Continuous
 62
     7
370
    25
100
AcDbLine
 10
362.9666800213
 20
6251.8975843757
 30
0.0
 11
364.7122458997
 21
6251.8975843757
 31
0.0
  0
LINE
  5
1F2
330
1F
100
AcDbEntity
  8
0
  6
Continuous
 62
     7
370
    25
100
AcDbLine
 10
366.6484790078
 20
6250.3707684973
 30
0.0
 11
366.6484790078
 21
6249.8948394433
 31
0.0
  0
LINE
  5
1F3
330
1F
100
AcDbEntity
  8
0
  6
Continuous
 62
     7
370
    25
100
AcDbLine
 10
401.2551204329
 20
6244.8311176632
 30
0.0
 11
400.6706664329
 21
6244.8311176632
 31
0.0
  0
LINE
  5
1F4
330
1F
100
AcDbEntity
  8
0
  6
Continuous
 62
     7
370
    25
100
AcDbLine
 10
400.6706664329
 20
6244.8311176632
 30
0.0
 11
400.3149394329
 21
6245.6105166632
 31
0.0
  0
LINE
  5
1F5
330
1F
100
AcDbEntity
  8
0
  6
Continuous
 62
     7
370
    25
100
AcDbLine
 10
400.3149394329
 20
6245.6105166632
 30
0.0
 11
398.9515944329
 21
6245.7728226632
 31
0.0
  0
LINE
  5
1F6
330
1F
100
AcDbEntity
  8
0
  6
Continuous
 62
     7
370
    25
100
AcDbLine
 10
398.9515944329
 20
6245.7728226632
 30
0.0
 11
398.6263474329
 21
6243.5670866632
 31
0.0
  0
LINE
  5
1F7
330
1F
100
AcDbEntity
  8
0
  6
Continuous
 62
     7
370
    25
100
AcDbLine
 10
398.6263474329
 20
6243.5670866632
 30
0.0
 11
397.8488534329
 21
6242.3666826632
 31
0.0
  0
LINE
  5
1F8
330
1F
100
AcDbEntity
  8
0
  6
Continuous
 62
     7
370
    25
100
AcDbLine
 10
397.8488534329
 20
6242.3666826632
 30
0.0
 11
398.3658704329
 21
6241.4897476632
 31
0.0
  0
LINE
  5
1F9
330
1F
100
AcDbEntity
  8
0
  6
Continuous
 62
     7
370
    25
100
AcDbLine
 10
398.3658704329
 20
6241.4897476632
 30
0.0
 11
397.0686924329
 21
6240.8077576632
 31
0.0
  0
LINE
  5
1FA
330
1F
100
AcDbEntity
  8
0
  6
Continuous
 62
     7
370
    25
100
AcDbLine
 10
397.0686924329
 20
6240.8077576632
 30
0.0
 11
396.8082154329
 21
6238.9586376632
 31
0.0
  0
LINE
  5
1FB
330
1F
100
AcDbEntity
  8
0
  6
Continuous
 62
     7
370
    25
100
AcDbLine
 10
396.8082154329
 20
6238.9586376632
 30
0.0
 11
398.6912444329
 21
6238.5047396632
 31
0.0
  0
LINE
  5
1FC
330
1F
100
AcDbEntity
  8
0
  6
Continuous
 62
     7
370
    25
100
AcDbLine
 10
398.6912444329
 20
6238.5047396632
 30
0.0
 11
398.6912444329
 21
6237.4014906632
 31
0.0
  0
LINE
  5
1FD
330
1F
100
AcDbEntity
  8
0
  6
Continuous
 62
     7
370
    25
100
AcDbLine
 10
398.6912444329
 20
6237.4014906632
 30
0.0
 11
396.8082154329
 21
6236.7200086632
 31
0.0
  0
LINE
  5
1FE
330
1F
100
AcDbEntity
  8
0
  6
Continuous
 62
     7
370
    25
100
AcDbLine
 10
396.8082154329
 20
6236.7200086632
 30
0.0
 11
396.3229484329
 21
6235.3578066632
 31
0.0
  0
LINE
  5
1FF
330
1F
100
AcDbEntity
  8
0
  6
Continuous
 62
     7
370
    25
100
AcDbLine
 10
396.3229484329
 20
6235.3578066632
 30
0.0
 11
396.7459854329
 21
6233.9944616632
 31
0.0
  0
LINE
  5
200
330
1F
100
AcDbEntity
  8
0
  6
Continuous
 62
     7
370
    25
100
AcDbLine
 10
396.7459854329
 20
6233.9944616632
 30
0.0
 11
396.3877184329
 21
6232.6320056632
 31
0.0
  0
LINE
  5
201
330
1F
100
AcDbEntity
  8
0
  6
Continuous
 62
     7
370
    25
100
AcDbLine
 10
396.3877184329
 20
6232.6320056632
 30
0.0
 11
395.2861204329
 21
6233.4098806632
 31
0.0
  0
LINE
  5
202
330
1F
100
AcDbEntity
  8
0
  6
Continuous
 62
     7
370
    25
100
AcDbLine
 10
395.2861204329
 20
6233.4098806632
 30
0.0
 11
394.1807124329
 21
6233.4752856632
 31
0.0
  0
LINE
  5
203
330
1F
100
AcDbEntity
  8
0
  6
Continuous
 62
     7
370
    25
100
AcDbLine
 10
394.1807124329
 20
6233.4752856632
 30
0.0
 11
392.7209744329
 21
6231.1721406632
 31
0.0
  0
LINE
  5
204
330
1F
100
AcDbEntity
  8
0
  6
Continuous
 62
     7
370
    25
100
AcDbLine
 10
392.7209744329
 20
6231.1721406632
 30
0.0
 11
393.2405314329
 21
6230.2304356632
 31
0.0
  0
LINE
  5
205
330
1F
100
AcDbEntity
  8
0
  6
Continuous
 62
     7
370
    25
100
AcDbLine
 10
393.2405314329
 20
6230.2304356632
 30
0.0
 11
391.7793964329
 21
6230.1660466632
 31
0.0
  0
LINE
  5
206
330
1F
100
AcDbEntity
  8
0
  6
Continuous
 62
     7
370
    25
100
AcDbLine
 10
391.7793964329
 20
6230.1660466632
 30
0.0
 11
391.6181064329
 21
6228.3485496632
 31
0.0
  0
LINE
  5
207
330
1F
100
AcDbEntity
  8
0
  6
Continuous
 62
     7
370
    25
100
AcDbLine
 10
391.6181064329
 20
6228.3485496632
 30
0.0
 11
388.1151924329
 21
6228.2836526632
 31
0.0
  0
LINE
  5
208
330
1F
100
AcDbEntity
  8
0
  6
Continuous
 62
     7
370
    25
100
AcDbLine
 10
388.1151924329
 20
6228.2836526632
 30
0.0
 11
388.1151924329
 21
6230.8475286632
 31
0.0
  0
LINE
  5
209
330
1F
100
AcDbEntity
  8
0
  6
Continuous
 62
     7
370
    25
100
AcDbLine
 10
388.1151924329
 20
6230.8475286632
 30
0.0
 11
386.2335604329
 21
6230.7502466632
 31
0.0
  0
LINE
  5
20A
330
1F
100
AcDbEntity
  8
0
  6
Continuous
 62
     7
370
    25
100
AcDbLine
 10
386.2335604329
 20
6230.7502466632
 30
0.0
 11
385.6465664329
 21
6229.5493346632
 31
0.0
  0
LINE
  5
20B
330
1F
100
AcDbEntity
  8
0
  6
Continuous
 62
     7
370
    25
100
AcDbLine
 10
385.6465664329
 20
6229.5493346632
 30
0.0
 11
382.9873134329
 21
6230.0678756632
 31
0.0
  0
LINE
  5
20C
330
1F
100
AcDbEntity
  8
0
  6
Continuous
 62
     7
370
    25
100
AcDbLine
 10
382.9873134329
 20
6230.0678756632
 30
0.0
 11
382.7281064329
 21
6233.5721866632
 31
0.0
  0
LINE
  5
20D
330
1F
100
AcDbEntity
  8
0
  6
Continuous
 62
     7
370
    25
100
AcDbLine
 10
382.7281064329
 20
6233.5721866632
 30
0.0
 11
381.9810924329
 21
6235.0977106632
 31
0.0
  0
LINE
  5
20E
330
1F
100
AcDbEntity
  8
0
  6
Continuous
 62
     7
370
    25
100
AcDbLine
 10
381.9810924329
 20
6235.0977106632
 30
0.0
 11
378.0551414329
 21
6235.2609056632
 31
0.0
  0
LINE
  5
20F
330
1F
100
AcDbEntity
  8
0
  6
Continuous
 62
     7
370
    25
100
AcDbLine
 10
378.0551414329
 20
6235.2609056632
 30
0.0
 11
379.4831294329
 21
6233.3134876632
 31
0.0
  0
LINE
  5
210
330
1F
100
AcDbEntity
  8
0
  6
Continuous
 62
     7
370
    25
100
AcDbLine
 10
379.4831294329
 20
6233.3134876632
 30
0.0
 11
379.1578824329
 21
6232.5344696632
 31
0.0
  0
LINE
  5
211
330
1F
100
AcDbEntity
  8
0
  6
Continuous
 62
     7
370
    25
100
AcDbLine
 10
379.1578824329
 20
6232.5344696632
 30
0.0
 11
380.1006034329
 21
6232.1128296632
 31
0.0
  0
LINE
  5
212
330
1F
100
AcDbEntity
  8
0
  6
Continuous
 62
     7
370
    25
100
AcDbLine
 10
380.1006034329
 20
6232.1128296632
 30
0.0
 11
379.8401264329
 21
6230.9114096632
 31
0.0
  0
LINE
  5
213
330
1F
100
AcDbEntity
  8
0
  6
Continuous
 62
     7
370
    25
100
AcDbLine
 10
379.8401264329
 20
6230.9114096632
 30
0.0
 11
377.6345174329
 21
6230.0678756632
 31
0.0
  0
LINE
  5
214
330
1F
100
AcDbEntity
  8
0
  6
Continuous
 62
     7
370
    25
100
AcDbLine
 10
377.6345174329
 20
6230.0678756632
 30
0.0
 11
377.0183134329
 21
6228.8678526632
 31
0.0
  0
LINE
  5
215
330
1F
100
AcDbEntity
  8
0
  6
Continuous
 62
     7
370
    25
100
AcDbLine
 10
377.0183134329
 20
6228.8678526632
 30
0.0
 11
375.5571784329
 21
6229.9062046632
 31
0.0
  0
LINE
  5
216
330
1F
100
AcDbEntity
  8
0
  6
Continuous
 62
     7
370
    25
100
AcDbLine
 10
375.5571784329
 20
6229.9062046632
 30
0.0
 11
374.7147874329
 21
6228.7051656632
 31
0.0
  0
LINE
  5
217
330
1F
100
AcDbEntity
  8
0
  6
Continuous
 62
     7
370
    25
100
AcDbLine
 10
374.7147874329
 20
6228.7051656632
 30
0.0
 11
375.3946184329
 21
6227.7653656632
 31
0.0
  0
LINE
  5
218
330
1F
100
AcDbEntity
  8
0
  6
Continuous
 62
     7
370
    25
100
AcDbLine
 10
375.3946184329
 20
6227.7653656632
 30
0.0
 11
374.1939604329
 21
6225.1036996632
 31
0.0
  0
LINE
  5
219
330
1F
100
AcDbEntity
  8
0
  6
Continuous
 62
     7
370
    25
100
AcDbLine
 10
374.1939604329
 20
6225.1036996632
 30
0.0
 11
375.0681014329
 21
6224.0983676632
 31
0.0
  0
LINE
  5
21A
330
1F
100
AcDbEntity
  8
0
  6
Continuous
 62
     7
370
    25
100
AcDbLine
 10
375.0681014329
 20
6224.0983676632
 30
0.0
 11
374.8774744329
 21
6221.6960356632
 31
0.0
  0
LINE
  5
21B
330
1F
100
AcDbEntity
  8
0
  6
Continuous
 62
     7
370
    25
100
AcDbLine
 10
374.8774744329
 20
6221.6960356632
 30
0.0
 11
375.7528854329
 21
6221.2093716632
 31
0.0
  0
LINE
  5
21C
330
1F
100
AcDbEntity
  8
0
  6
Continuous
 62
     7
370
    25
100
AcDbLine
 10
375.7528854329
 20
6221.2093716632
 30
0.0
 11
373.9334834329
 21
6218.8093256632
 31
0.0
  0
LINE
  5
21D
330
1F
100
AcDbEntity
  8
0
  6
Continuous
 62
     7
370
    25
100
AcDbLine
 10
373.9334834329
 20
6218.8093256632
 30
0.0
 11
372.8306154329
 21
6216.0840326632
 31
0.0
  0
LINE
  5
21E
330
1F
100
AcDbEntity
  8
0
  6
Continuous
 62
     7
370
    25
100
AcDbLine
 10
372.8306154329
 20
6216.0840326632
 30
0.0
 11
373.4480894329
 21
6215.5643486632
 31
0.0
  0
LINE
  5
21F
330
1F
100
AcDbEntity
  8
0
  6
Continuous
 62
     7
370
    25
100
AcDbLine
 10
373.4480894329
 20
6215.5643486632
 30
0.0
 11
372.3452214329
 21
6214.2671706632
 31
0.0
  0
LINE
  5
220
330
1F
100
AcDbEntity
  8
0
  6
Continuous
 62
     7
370
    25
100
AcDbLine
 10
372.3452214329
 20
6214.2671706632
 30
0.0
 11
370.0430924329
 21
6212.4820586632
 31
0.0
  0
LINE
  5
221
330
1F
100
AcDbEntity
  8
0
  6
Continuous
 62
     7
370
    25
100
AcDbLine
 10
370.0430924329
 20
6212.4820586632
 30
0.0
 11
368.4192704329
 21
6210.8595066632
 31
0.0
  0
LINE
  5
222
330
1F
100
AcDbEntity
  8
0
  6
Continuous
 62
     7
370
    25
100
AcDbLine
 10
368.4192704329
 20
6210.8595066632
 30
0.0
 11
368.5806874329
 21
6209.4975586632
 31
0.0
  0
LINE
  5
223
330
1F
100
AcDbEntity
  8
0
  6
Continuous
 62
     7
370
    25
100
AcDbLine
 10
368.5806874329
 20
6209.4975586632
 30
0.0
 11
367.2186124329
 21
6209.2370816632
 31
0.0
  0
LINE
  5
224
330
1F
100
AcDbEntity
  8
0
  6
Continuous
 62
     7
370
    25
100
AcDbLine
 10
367.2186124329
 20
6209.2370816632
 30
0.0
 11
365.9201644329
 21
6208.7504176632
 31
0.0
  0
LINE
  5
225
330
1F
100
AcDbEntity
  8
0
  6
Continuous
 62
     7
370
    25
100
AcDbLine
 10
365.9201644329
 20
6208.7504176632
 30
0.0
 11
366.1806414329
 21
6206.0911646632
 31
0.0
  0
LINE
  5
226
330
1F
100
AcDbEntity
  8
0
  6
Continuous
 62
     7
370
    25
100
AcDbLine
 10
366.1806414329
 20
6206.0911646632
 30
0.0
 11
363.0321844329
 21
6205.2463606632
 31
0.0
  0
LINE
  5
227
330
1F
100
AcDbEntity
  8
0
  6
Continuous
 62
     7
370
    25
100
AcDbLine
 10
363.0321844329
 20
6205.2463606632
 30
0.0
 11
362.2546904329
 21
6204.6300296632
 31
0.0
  0
LINE
  5
228
330
1F
100
AcDbEntity
  8
0
  6
Continuous
 62
     7
370
    25
100
AcDbLine
 10
362.2546904329
 20
6204.6300296632
 30
0.0
 11
360.3068914329
 21
6204.2069926632
 31
0.0
  0
LINE
  5
229
330
1F
100
AcDbEntity
  8
0
  6
Continuous
 62
     7
370
    25
100
AcDbLine
 10
360.3068914329
 20
6204.2069926632
 30
0.0
 11
358.4582794329
 21
6205.9933746632
 31
0.0
  0
LINE
  5
22A
330
1F
100
AcDbEntity
  8
0
  6
Continuous
 62
     7
370
    25
100
AcDbLine
 10
358.4582794329
 20
6205.9933746632
 30
0.0
 11
357.3541414329
 21
6205.5054406632
 31
0.0
  0
LINE
  5
22B
330
1F
100
AcDbEntity
  8
0
  6
Continuous
 62
     7
370
    25
100
AcDbLine
 10
357.3541414329
 20
6205.5054406632
 30
0.0
 11
356.2182534329
 21
6206.0911646632
 31
0.0
  0
LINE
  5
22C
330
1F
100
AcDbEntity
  8
0
  6
Continuous
 62
     7
370
    25
100
AcDbLine
 10
356.2182534329
 20
6206.0911646632
 30
0.0
 11
353.7534374329
 21
6203.6250786632
 31
0.0
  0
LINE
  5
22D
330
1F
100
AcDbEntity
  8
0
  6
Continuous
 62
     7
370
    25
100
AcDbLine
 10
353.7534374329
 20
6203.6250786632
 30
0.0
 11
352.2288024329
 21
6205.5716076632
 31
0.0
  0
LINE
  5
22E
330
1F
100
AcDbEntity
  8
0
  6
Continuous
 62
     7
370
    25
100
AcDbLine
 10
352.2288024329
 20
6205.5716076632
 30
0.0
 11
350.9303544329
 21
6205.4076506632
 31
0.0
  0
LINE
  5
22F
330
1F
100
AcDbEntity
  8
0
  6
Continuous
 62
     7
370
    25
100
AcDbLine
 10
350.9303544329
 20
6205.4076506632
 30
0.0
 11
350.9303544329
 21
6204.5652596632
 31
0.0
  0
LINE
  5
230
330
1F
100
AcDbEntity
  8
0
  6
Continuous
 62
     7
370
    25
100
AcDbLine
 10
350.9303544329
 20
6204.5652596632
 30
0.0
 11
350.3459004329
 21
6204.0457026632
 31
0.0
  0
LINE
  5
231
330
1F
100
AcDbEntity
  8
0
  6
Continuous
 62
     7
370
    25
100
AcDbLine
 10
350.3459004329
 20
6204.0457026632
 30
0.0
 11
350.7676674329
 21
6203.2020416632
 31
0.0
  0
LINE
  5
232
330
1F
100
AcDbEntity
  8
0
  6
Continuous
 62
     7
370
    25
100
AcDbLine
 10
350.7676674329
 20
6203.2020416632
 30
0.0
 11
349.8274864329
 21
6202.5209406632
 31
0.0
  0
LINE
  5
233
330
1F
100
AcDbEntity
  8
0
  6
Continuous
 62
     7
370
    25
100
AcDbLine
 10
349.8274864329
 20
6202.5209406632
 30
0.0
 11
349.9889034329
 21
6199.7626276632
 31
0.0
  0
LINE
  5
234
330
1F
100
AcDbEntity
  8
0
  6
Continuous
 62
     7
370
    25
100
AcDbLine
 10
349.9889034329
 20
6199.7626276632
 30
0.0
 11
349.1452424329
 21
6199.6978576632
 31
0.0
  0
LINE
  5
235
330
1F
100
AcDbEntity
  8
0
  6
Continuous
 62
     7
370
    25
100
AcDbLine
 10
349.1452424329
 20
6199.6978576632
 30
0.0
 11
349.0804724329
 21
6200.5427886632
 31
0.0
  0
LINE
  5
236
330
1F
100
AcDbEntity
  8
0
  6
Continuous
 62
     7
370
    25
100
AcDbLine
 10
349.0804724329
 20
6200.5427886632
 30
0.0
 11
346.9382364329
 21
6201.5807596632
 31
0.0
  0
LINE
  5
237
330
1F
100
AcDbEntity
  8
0
  6
Continuous
 62
     7
370
    25
100
AcDbLine
 10
346.9382364329
 20
6201.5807596632
 30
0.0
 11
343.3375324329
 21
6202.0026536632
 31
0.0
  0
LINE
  5
238
330
1F
100
AcDbEntity
  8
0
  6
Continuous
 62
     7
370
    25
100
AcDbLine
 10
343.3375324329
 20
6202.0026536632
 30
0.0
 11
343.5319694329
 21
6204.3060526632
 31
0.0
  0
LINE
  5
239
330
1F
100
AcDbEntity
  8
0
  6
Continuous
 62
     7
370
    25
100
AcDbLine
 10
343.5319694329
 20
6204.3060526632
 30
0.0
 11
341.9095444329
 21
6204.7279466632
 31
0.0
  0
LINE
  5
23A
330
1F
100
AcDbEntity
  8
0
  6
Continuous
 62
     7
370
    25
100
AcDbLine
 10
341.9095444329
 20
6204.7279466632
 30
0.0
 11
341.1306534329
 21
6203.4293716632
 31
0.0
  0
LINE
  5
23B
330
1F
100
AcDbEntity
  8
0
  6
Continuous
 62
     7
370
    25
100
AcDbLine
 10
341.1306534329
 20
6203.4293716632
 30
0.0
 11
341.3911304329
 21
6202.2618606632
 31
0.0
  0
LINE
  5
23C
330
1F
100
AcDbEntity
  8
0
  6
Continuous
 62
     7
370
    25
100
AcDbLine
 10
341.3911304329
 20
6202.2618606632
 30
0.0
 11
340.5474694329
 21
6201.4816996632
 31
0.0
  0
LINE
  5
23D
330
1F
100
AcDbEntity
  8
0
  6
Continuous
 62
     7
370
    25
100
AcDbLine
 10
340.5474694329
 20
6201.4816996632
 30
0.0
 11
339.6707884329
 21
6201.8399666632
 31
0.0
  0
LINE
  5
23E
330
1F
100
AcDbEntity
  8
0
  6
Continuous
 62
     7
370
    25
100
AcDbLine
 10
339.6707884329
 20
6201.8399666632
 30
0.0
 11
339.3468114329
 21
6203.2668116632
 31
0.0
  0
LINE
  5
23F
330
1F
100
AcDbEntity
  8
0
  6
Continuous
 62
     7
370
    25
100
AcDbLine
 10
339.3468114329
 20
6203.2668116632
 30
0.0
 11
339.5082284329
 21
6204.3696796632
 31
0.0
  0
LINE
  5
240
330
1F
100
AcDbEntity
  8
0
  6
Continuous
 62
     7
370
    25
100
AcDbLine
 10
339.5082284329
 20
6204.3696796632
 30
0.0
 11
337.3672624329
 21
6204.3060526632
 31
0.0
  0
LINE
  5
241
330
1F
100
AcDbEntity
  8
0
  6
Continuous
 62
     7
370
    25
100
AcDbLine
 10
337.3672624329
 20
6204.3060526632
 30
0.0
 11
337.2047024329
 21
6203.4293716632
 31
0.0
  0
LINE
  5
242
330
1F
100
AcDbEntity
  8
0
  6
Continuous
 62
     7
370
    25
100
AcDbLine
 10
337.2047024329
 20
6203.4293716632
 30
0.0
 11
335.6800674329
 21
6203.4293716632
 31
0.0
  0
LINE
  5
243
330
1F
100
AcDbEntity
  8
0
  6
Continuous
 62
     7
370
    25
100
AcDbLine
 10
335.6800674329
 20
6203.4293716632
 30
0.0
 11
335.6800674329
 21
6200.9632856632
 31
0.0
  0
LINE
  5
244
330
1F
100
AcDbEntity
  8
0
  6
Continuous
 62
     7
370
    25
100
AcDbLine
 10
335.6800674329
 20
6200.9632856632
 30
0.0
 11
334.7386164329
 21
6200.8007256632
 31
0.0
  0
LINE
  5
245
330
1F
100
AcDbEntity
  8
0
  6
Continuous
 62
     7
370
    25
100
AcDbLine
 10
334.7386164329
 20
6200.8007256632
 30
0.0
 11
333.9609954329
 21
6198.7576766632
 31
0.0
  0
LINE
  5
246
330
1F
100
AcDbEntity
  8
0
  6
Continuous
 62
     7
370
    25
100
AcDbLine
 10
333.9609954329
 20
6198.7576766632
 30
0.0
 11
333.3765414329
 21
6197.7183086632
 31
0.0
  0
LINE
  5
247
330
1F
100
AcDbEntity
  8
0
  6
Continuous
 62
     7
370
    25
100
AcDbLine
 10
333.3765414329
 20
6197.7183086632
 30
0.0
 11
332.1746134329
 21
6197.1351246632
 31
0.0
  0
LINE
  5
248
330
1F
100
AcDbEntity
  8
0
  6
Continuous
 62
     7
370
    25
100
AcDbLine
 10
332.1746134329
 20
6197.1351246632
 30
0.0
 11
331.3334924329
 21
6197.3943316632
 31
0.0
  0
LINE
  5
249
330
1F
100
AcDbEntity
  8
0
  6
Continuous
 62
     7
370
    25
100
AcDbLine
 10
331.3334924329
 20
6197.3943316632
 30
0.0
 11
330.0350444329
 21
6197.0373346632
 31
0.0
  0
LINE
  5
24A
330
1F
100
AcDbEntity
  8
0
  6
Continuous
 62
     7
370
    25
100
AcDbLine
 10
330.0350444329
 20
6197.0373346632
 30
0.0
 11
329.3528004329
 21
6197.5570186632
 31
0.0
  0
LINE
  5
24B
330
1F
100
AcDbEntity
  8
0
  6
Continuous
 62
     7
370
    25
100
AcDbLine
 10
329.3528004329
 20
6197.5570186632
 30
0.0
 11
329.1901134329
 21
6199.6000676632
 31
0.0
  0
LINE
  5
24C
330
1F
100
AcDbEntity
  8
0
  6
Continuous
 62
     7
370
    25
100
AcDbLine
 10
329.1901134329
 20
6199.6000676632
 30
0.0
 11
329.0935934329
 21
6199.6000676632
 31
0.0
  0
LINE
  5
24D
330
1F
100
AcDbEntity
  8
0
  6
Continuous
 62
     7
370
    25
100
AcDbLine
 10
329.0935934329
 20
6199.6000676632
 30
0.0
 11
329.0935934329
 21
6200.6380386632
 31
0.0
  0
LINE
  5
24E
330
1F
100
AcDbEntity
  8
0
  6
Continuous
 62
     7
370
    25
100
AcDbLine
 10
329.0935934329
 20
6200.6380386632
 30
0.0
 11
328.3147024329
 21
6200.4436016632
 31
0.0
  0
LINE
  5
24F
330
1F
100
AcDbEntity
  8
0
  6
Continuous
 62
     7
370
    25
100
AcDbLine
 10
328.3147024329
 20
6200.4436016632
 30
0.0
 11
327.7302484329
 21
6199.8605446632
 31
0.0
  0
LINE
  5
250
330
1F
100
AcDbEntity
  8
0
  6
Continuous
 62
     7
370
    25
100
AcDbLine
 10
327.7302484329
 20
6199.8605446632
 30
0.0
 11
326.0099064329
 21
6200.3801016632
 31
0.0
  0
LINE
  5
251
330
1F
100
AcDbEntity
  8
0
  6
Continuous
 62
     7
370
    25
100
AcDbLine
 10
326.0099064329
 20
6200.3801016632
 30
0.0
 11
325.7838464329
 21
6202.2618606632
 31
0.0
  0
LINE
  5
252
330
1F
100
AcDbEntity
  8
0
  6
Continuous
 62
     7
370
    25
100
AcDbLine
 10
325.7838464329
 20
6202.2618606632
 30
0.0
 11
325.6871994329
 21
6203.2668116632
 31
0.0
  0
LINE
  5
253
330
1F
100
AcDbEntity
  8
0
  6
Continuous
 62
     7
370
    25
100
AcDbLine
 10
325.6871994329
 20
6203.2668116632
 30
0.0
 11
323.6417374329
 21
6203.4293716632
 31
0.0
  0
LINE
  5
254
330
1F
100
AcDbEntity
  8
0
  6
Continuous
 62
     7
370
    25
100
AcDbLine
 10
323.6417374329
 20
6203.4293716632
 30
0.0
 11
322.9606364329
 21
6205.8306876632
 31
0.0
  0
LINE
  5
255
330
1F
100
AcDbEntity
  8
0
  6
Continuous
 62
     7
370
    25
100
AcDbLine
 10
322.9606364329
 20
6205.8306876632
 30
0.0
 11
321.8578954329
 21
6206.4470186632
 31
0.0
  0
LINE
  5
256
330
1F
100
AcDbEntity
  8
0
  6
Continuous
 62
     7
370
    25
100
AcDbLine
 10
321.8578954329
 20
6206.4470186632
 30
0.0
 11
322.0191854329
 21
6208.0364236632
 31
0.0
  0
LINE
  5
257
330
1F
100
AcDbEntity
  8
0
  6
Continuous
 62
     7
370
    25
100
AcDbLine
 10
322.0191854329
 20
6208.0364236632
 30
0.0
 11
323.9020874329
 21
6208.1342136632
 31
0.0
  0
LINE
  5
258
330
1F
100
AcDbEntity
  8
0
  6
Continuous
 62
     7
370
    25
100
AcDbLine
 10
323.9020874329
 20
6208.1342136632
 30
0.0
 11
324.3887514329
 21
6209.8532856632
 31
0.0
  0
LINE
  5
259
330
1F
100
AcDbEntity
  8
0
  6
Continuous
 62
     7
370
    25
100
AcDbLine
 10
324.3887514329
 20
6209.8532856632
 30
0.0
 11
323.6417374329
 21
6211.6383976632
 31
0.0
  0
LINE
  5
25A
330
1F
100
AcDbEntity
  8
0
  6
Continuous
 62
     7
370
    25
100
AcDbLine
 10
323.6417374329
 20
6211.6383976632
 30
0.0
 11
324.1612944329
 21
6212.4172886632
 31
0.0
  0
LINE
  5
25B
330
1F
100
AcDbEntity
  8
0
  6
Continuous
 62
     7
370
    25
100
AcDbLine
 10
324.1612944329
 20
6212.4172886632
 30
0.0
 11
322.8641164329
 21
6214.2010036632
 31
0.0
  0
LINE
  5
25C
330
1F
100
AcDbEntity
  8
0
  6
Continuous
 62
     7
370
    25
100
AcDbLine
 10
322.8641164329
 20
6214.2010036632
 30
0.0
 11
321.6634584329
 21
6216.5705696632
 31
0.0
  0
LINE
  5
25D
330
1F
100
AcDbEntity
  8
0
  6
Continuous
 62
     7
370
    25
100
AcDbLine
 10
321.6634584329
 20
6216.5705696632
 30
0.0
 11
322.9606364329
 21
6217.9656646632
 31
0.0
  0
LINE
  5
25E
330
1F
100
AcDbEntity
  8
0
  6
Continuous
 62
     7
370
    25
100
AcDbLine
 10
322.9606364329
 20
6217.9656646632
 30
0.0
 11
321.7282284329
 21
6219.3620296632
 31
0.0
  0
LINE
  5
25F
330
1F
100
AcDbEntity
  8
0
  6
Continuous
 62
     7
370
    25
100
AcDbLine
 10
321.7282284329
 20
6219.3620296632
 30
0.0
 11
321.8578954329
 21
6219.3937796632
 31
0.0
  0
LINE
  5
260
330
1F
100
AcDbEntity
  8
0
  6
Continuous
 62
     7
370
    25
100
AcDbLine
 10
321.8578954329
 20
6219.3937796632
 30
0.0
 11
321.1767944329
 21
6219.9121936632
 31
0.0
  0
LINE
  5
261
330
1F
100
AcDbEntity
  8
0
  6
Continuous
 62
     7
370
    25
100
AcDbLine
 10
321.1767944329
 20
6219.9121936632
 30
0.0
 11
321.2415644329
 21
6222.1190726632
 31
0.0
  0
LINE
  5
262
330
1F
100
AcDbEntity
  8
0
  6
Continuous
 62
     7
370
    25
100
AcDbLine
 10
321.2415644329
 20
6222.1190726632
 30
0.0
 11
320.3980304329
 21
6222.1190726632
 31
0.0
  0
LINE
  5
263
330
1F
100
AcDbEntity
  8
0
  6
Continuous
 62
     7
370
    25
100
AcDbLine
 10
320.3980304329
 20
6222.1190726632
 30
0.0
 11
320.6572374329
 21
6224.9415206632
 31
0.0
  0
LINE
  5
264
330
1F
100
AcDbEntity
  8
0
  6
Continuous
 62
     7
370
    25
100
AcDbLine
 10
320.6572374329
 20
6224.9415206632
 30
0.0
 11
319.9761364329
 21
6226.8234066632
 31
0.0
  0
LINE
  5
265
330
1F
100
AcDbEntity
  8
0
  6
Continuous
 62
     7
370
    25
100
AcDbLine
 10
319.9761364329
 20
6226.8234066632
 30
0.0
 11
320.6572374329
 21
6227.2455546632
 31
0.0
  0
LINE
  5
266
330
1F
100
AcDbEntity
  8
0
  6
Continuous
 62
     7
370
    25
100
AcDbLine
 10
320.6572374329
 20
6227.2455546632
 30
0.0
 11
321.2415644329
 21
6226.7265056632
 31
0.0
  0
LINE
  5
267
330
1F
100
AcDbEntity
  8
0
  6
Continuous
 62
     7
370
    25
100
AcDbLine
 10
321.2415644329
 20
6226.7265056632
 30
0.0
 11
321.8578954329
 21
6226.8234066632
 31
0.0
  0
LINE
  5
268
330
1F
100
AcDbEntity
  8
0
  6
Continuous
 62
     7
370
    25
100
AcDbLine
 10
321.8578954329
 20
6226.8234066632
 30
0.0
 11
321.9226654329
 21
6227.9264016632
 31
0.0
  0
LINE
  5
269
330
1F
100
AcDbEntity
  8
0
  6
Continuous
 62
     7
370
    25
100
AcDbLine
 10
321.9226654329
 20
6227.9264016632
 30
0.0
 11
325.2641624329
 21
6229.1275676632
 31
0.0
  0
LINE
  5
26A
330
1F
100
AcDbEntity
  8
0
  6
Continuous
 62
     7
370
    25
100
AcDbLine
 10
325.2641624329
 20
6229.1275676632
 30
0.0
 11
325.1663724329
 21
6230.3282256632
 31
0.0
  0
LINE
  5
26B
330
1F
100
AcDbEntity
  8
0
  6
Continuous
 62
     7
370
    25
100
AcDbLine
 10
325.1663724329
 20
6230.3282256632
 30
0.0
 11
327.8929354329
 21
6231.5283756632
 31
0.0
  0
LINE
  5
26C
330
1F
100
AcDbEntity
  8
0
  6
Continuous
 62
     7
370
    25
100
AcDbLine
 10
327.8929354329
 20
6231.5283756632
 30
0.0
 11
328.2486624329
 21
6232.2096036632
 31
0.0
  0
LINE
  5
26D
330
1F
100
AcDbEntity
  8
0
  6
Continuous
 62
     7
370
    25
100
AcDbLine
 10
328.2486624329
 20
6232.2096036632
 30
0.0
 11
329.9359844329
 21
6232.7939306632
 31
0.0
  0
LINE
  5
26E
330
1F
100
AcDbEntity
  8
0
  6
Continuous
 62
     7
370
    25
100
AcDbLine
 10
329.9359844329
 20
6232.7939306632
 30
0.0
 11
327.8281654329
 21
6236.8174176632
 31
0.0
  0
LINE
  5
26F
330
1F
100
AcDbEntity
  8
0
  6
Continuous
 62
     7
370
    25
100
AcDbLine
 10
327.8281654329
 20
6236.8174176632
 30
0.0
 11
328.4124924329
 21
6237.5631616632
 31
0.0
  0
LINE
  5
270
330
1F
100
AcDbEntity
  8
0
  6
Continuous
 62
     7
370
    25
100
AcDbLine
 10
328.4124924329
 20
6237.5631616632
 30
0.0
 11
327.1470644329
 21
6241.8467446632
 31
0.0
  0
LINE
  5
271
330
1F
100
AcDbEntity
  8
0
  6
Continuous
 62
     7
370
    25
100
AcDbLine
 10
327.1470644329
 20
6241.8467446632
 30
0.0
 11
328.1521424329
 21
6242.1712296632
 31
0.0
  0
LINE
  5
272
330
1F
100
AcDbEntity
  8
0
  6
Continuous
 62
     7
370
    25
100
AcDbLine
 10
328.1521424329
 20
6242.1712296632
 30
0.0
 11
328.2486624329
 21
6242.9499936632
 31
0.0
  0
LINE
  5
273
330
1F
100
AcDbEntity
  8
0
  6
Continuous
 62
     7
370
    25
100
AcDbLine
 10
328.2486624329
 20
6242.9499936632
 30
0.0
 11
327.6324584329
 21
6243.3066096632
 31
0.0
  0
LINE
  5
274
330
1F
100
AcDbEntity
  8
0
  6
Continuous
 62
     7
370
    25
100
AcDbLine
 10
327.6324584329
 20
6243.3066096632
 30
0.0
 11
326.8878574329
 21
6244.5719106632
 31
0.0
  0
LINE
  5
275
330
1F
100
AcDbEntity
  8
0
  6
Continuous
 62
     7
370
    25
100
AcDbLine
 10
326.8878574329
 20
6244.5719106632
 30
0.0
 11
328.7683464329
 21
6247.0381236632
 31
0.0
  0
LINE
  5
276
330
1F
100
AcDbEntity
  8
0
  6
Continuous
 62
     7
370
    25
100
AcDbLine
 10
328.7683464329
 20
6247.0381236632
 30
0.0
 11
327.4062714329
 21
6248.2386546632
 31
0.0
  0
LINE
  5
277
330
1F
100
AcDbEntity
  8
0
  6
Continuous
 62
     7
370
    25
100
AcDbLine
 10
327.4062714329
 20
6248.2386546632
 30
0.0
 11
327.9894554329
 21
6249.3417766632
 31
0.0
  0
LINE
  5
278
330
1F
100
AcDbEntity
  8
0
  6
Continuous
 62
     7
370
    25
100
AcDbLine
 10
327.9894554329
 20
6249.3417766632
 30
0.0
 11
327.8929354329
 21
6251.3862226632
 31
0.0
  0
LINE
  5
279
330
1F
100
AcDbEntity
  8
0
  6
Continuous
 62
     7
370
    25
100
AcDbLine
 10
327.8929354329
 20
6251.3862226632
 30
0.0
 11
325.7838464329
 21
6251.7432196632
 31
0.0
  0
LINE
  5
27A
330
1F
100
AcDbEntity
  8
0
  6
Continuous
 62
     7
370
    25
100
AcDbLine
 10
325.7838464329
 20
6251.7432196632
 30
0.0
 11
326.9514844329
 21
6253.0080126632
 31
0.0
  0
LINE
  5
27B
330
1F
100
AcDbEntity
  8
0
  6
Continuous
 62
     7
370
    25
100
AcDbLine
 10
326.9514844329
 20
6253.0080126632
 30
0.0
 11
325.7838464329
 21
6254.1439006632
 31
0.0
  0
LINE
  5
27C
330
1F
100
AcDbEntity
  8
0
  6
Continuous
 62
     7
370
    25
100
AcDbLine
 10
325.7838464329
 20
6254.1439006632
 30
0.0
 11
325.5246394329
 21
6255.3125546632
 31
0.0
  0
LINE
  5
27D
330
1F
100
AcDbEntity
  8
0
  6
Continuous
 62
     7
370
    25
100
AcDbLine
 10
325.5246394329
 20
6255.3125546632
 30
0.0
 11
324.8423954329
 21
6256.0910646632
 31
0.0
  0
LINE
  5
27E
330
1F
100
AcDbEntity
  8
0
  6
Continuous
 62
     7
370
    25
100
AcDbLine
 10
324.8423954329
 20
6256.0910646632
 30
0.0
 11
321.8578954329
 21
6255.6691706632
 31
0.0
  0
LINE
  5
27F
330
1F
100
AcDbEntity
  8
0
  6
Continuous
 62
     7
370
    25
100
AcDbLine
 10
321.8578954329
 20
6255.6691706632
 30
0.0
 11
321.4029814329
 21
6256.1887276632
 31
0.0
  0
LINE
  5
280
330
1F
100
AcDbEntity
  8
0
  6
Continuous
 62
     7
370
    25
100
AcDbLine
 10
321.4029814329
 20
6256.1887276632
 30
0.0
 11
322.8641164329
 21
6256.7719116632
 31
0.0
  0
LINE
  5
281
330
1F
100
AcDbEntity
  8
0
  6
Continuous
 62
     7
370
    25
100
AcDbLine
 10
322.8641164329
 20
6256.7719116632
 30
0.0
 11
322.6036394329
 21
6257.3890046632
 31
0.0
  0
LINE
  5
282
330
1F
100
AcDbEntity
  8
0
  6
Continuous
 62
     7
370
    25
100
AcDbLine
 10
322.6036394329
 20
6257.3890046632
 30
0.0
 11
321.0790044329
 21
6257.7123466632
 31
0.0
  0
LINE
  5
283
330
1F
100
AcDbEntity
  8
0
  6
Continuous
 62
     7
370
    25
100
AcDbLine
 10
321.0790044329
 20
6257.7123466632
 30
0.0
 11
321.4029814329
 21
6258.7504446632
 31
0.0
  0
LINE
  5
284
330
1F
100
AcDbEntity
  8
0
  6
Continuous
 62
     7
370
    25
100
AcDbLine
 10
321.4029814329
 20
6258.7504446632
 30
0.0
 11
323.4803204329
 21
6258.3949716632
 31
0.0
  0
LINE
  5
285
330
1F
100
AcDbEntity
  8
0
  6
Continuous
 62
     7
370
    25
100
AcDbLine
 10
323.4803204329
 20
6258.3949716632
 30
0.0
 11
323.2211134329
 21
6260.4382746632
 31
0.0
  0
LINE
  5
286
330
1F
100
AcDbEntity
  8
0
  6
Continuous
 62
     7
370
    25
100
AcDbLine
 10
323.2211134329
 20
6260.4382746632
 30
0.0
 11
322.5388694329
 21
6260.6334736632
 31
0.0
  0
LINE
  5
287
330
1F
100
AcDbEntity
  8
0
  6
Continuous
 62
     7
370
    25
100
AcDbLine
 10
322.5388694329
 20
6260.6334736632
 30
0.0
 11
322.0852254329
 21
6261.6393136632
 31
0.0
  0
LINE
  5
288
330
1F
100
AcDbEntity
  8
0
  6
Continuous
 62
     7
370
    25
100
AcDbLine
 10
322.0852254329
 20
6261.6393136632
 30
0.0
 11
323.3825304329
 21
6261.8023816632
 31
0.0
  0
LINE
  5
289
330
1F
100
AcDbEntity
  8
0
  6
Continuous
 62
     7
370
    25
100
AcDbLine
 10
323.3825304329
 20
6261.8023816632
 30
0.0
 11
323.3825304329
 21
6263.6828706632
 31
0.0
  0
LINE
  5
28A
330
1F
100
AcDbEntity
  8
0
  6
Continuous
 62
     7
370
    25
100
AcDbLine
 10
323.3825304329
 20
6263.6828706632
 30
0.0
 11
321.5986884329
 21
6264.9813186632
 31
0.0
  0
LINE
  5
28B
330
1F
100
AcDbEntity
  8
0
  6
Continuous
 62
     7
370
    25
100
AcDbLine
 10
321.5986884329
 20
6264.9813186632
 30
0.0
 11
322.7980764329
 21
6266.8630776632
 31
0.0
  0
LINE
  5
28C
330
1F
100
AcDbEntity
  8
0
  6
Continuous
 62
     7
370
    25
100
AcDbLine
 10
322.7980764329
 20
6266.8630776632
 30
0.0
 11
324.8423954329
 21
6268.5503996632
 31
0.0
  0
LINE
  5
28D
330
1F
100
AcDbEntity
  8
0
  6
Continuous
 62
     7
370
    25
100
AcDbLine
 10
324.8423954329
 20
6268.5503996632
 30
0.0
 11
326.1078234329
 21
6270.1726976632
 31
0.0
  0
LINE
  5
28E
330
1F
100
AcDbEntity
  8
0
  6
Continuous
 62
     7
370
    25
100
AcDbLine
 10
326.1078234329
 20
6270.1726976632
 30
0.0
 11
325.4267224329
 21
6272.9955266632
 31
0.0
  0
LINE
  5
28F
330
1F
100
AcDbEntity
  8
0
  6
Continuous
 62
     7
370
    25
100
AcDbLine
 10
325.4267224329
 20
6272.9955266632
 30
0.0
 11
322.7014294329
 21
6272.5733786632
 31
0.0
  0
LINE
  5
290
330
1F
100
AcDbEntity
  8
0
  6
Continuous
 62
     7
370
    25
100
AcDbLine
 10
322.7014294329
 20
6272.5733786632
 30
0.0
 11
322.6036394329
 21
6273.0606776632
 31
0.0
  0
LINE
  5
291
330
1F
100
AcDbEntity
  8
0
  6
Continuous
 62
     7
370
    25
100
AcDbLine
 10
322.6036394329
 20
6273.0606776632
 30
0.0
 11
323.5450904329
 21
6273.5145756632
 31
0.0
  0
LINE
  5
292
330
1F
100
AcDbEntity
  8
0
  6
Continuous
 62
     7
370
    25
100
AcDbLine
 10
323.5450904329
 20
6273.5145756632
 30
0.0
 11
322.7980764329
 21
6274.0012396632
 31
0.0
  0
LINE
  5
293
330
1F
100
AcDbEntity
  8
0
  6
Continuous
 62
     7
370
    25
100
AcDbLine
 10
322.7980764329
 20
6274.0012396632
 30
0.0
 11
323.0254064329
 21
6274.8770316632
 31
0.0
  0
LINE
  5
294
330
1F
100
AcDbEntity
  8
0
  6
Continuous
 62
     7
370
    25
100
AcDbLine
 10
323.0254064329
 20
6274.8770316632
 30
0.0
 11
324.3887514329
 21
6274.4555186632
 31
0.0
  0
LINE
  5
295
330
1F
100
AcDbEntity
  8
0
  6
Continuous
 62
     7
370
    25
100
AcDbLine
 10
324.3887514329
 20
6274.4555186632
 30
0.0
 11
324.6479584329
 21
6275.2020246632
 31
0.0
  0
LINE
  5
296
330
1F
100
AcDbEntity
  8
0
  6
Continuous
 62
     7
370
    25
100
AcDbLine
 10
324.6479584329
 20
6275.2020246632
 30
0.0
 11
323.3825304329
 21
6275.6241726632
 31
0.0
  0
LINE
  5
297
330
1F
100
AcDbEntity
  8
0
  6
Continuous
 62
     7
370
    25
100
AcDbLine
 10
323.3825304329
 20
6275.6241726632
 30
0.0
 11
324.2260644329
 21
6277.2448196632
 31
0.0
  0
LINE
  5
298
330
1F
100
AcDbEntity
  8
0
  6
Continuous
 62
     7
370
    25
100
AcDbLine
 10
324.2260644329
 20
6277.2448196632
 30
0.0
 11
322.6036394329
 21
6278.9660506632
 31
0.0
  0
LINE
  5
299
330
1F
100
AcDbEntity
  8
0
  6
Continuous
 62
     7
370
    25
100
AcDbLine
 10
322.6036394329
 20
6278.9660506632
 30
0.0
 11
321.9226654329
 21
6281.1072706632
 31
0.0
  0
LINE
  5
29A
330
1F
100
AcDbEntity
  8
0
  6
Continuous
 62
     7
370
    25
100
AcDbLine
 10
321.9226654329
 20
6281.1072706632
 30
0.0
 11
320.9824844329
 21
6281.1072706632
 31
0.0
  0
LINE
  5
29B
330
1F
100
AcDbEntity
  8
0
  6
Continuous
 62
     7
370
    25
100
AcDbLine
 10
320.9824844329
 20
6281.1072706632
 30
0.0
 11
320.9163174329
 21
6282.7289336632
 31
0.0
  0
LINE
  5
29C
330
1F
100
AcDbEntity
  8
0
  6
Continuous
 62
     7
370
    25
100
AcDbLine
 10
320.9163174329
 20
6282.7289336632
 30
0.0
 11
322.4423494329
 21
6282.8918746632
 31
0.0
  0
LINE
  5
29D
330
1F
100
AcDbEntity
  8
0
  6
Continuous
 62
     7
370
    25
100
AcDbLine
 10
322.4423494329
 20
6282.8918746632
 30
0.0
 11
322.7014294329
 21
6284.8400546632
 31
0.0
  0
LINE
  5
29E
330
1F
100
AcDbEntity
  8
0
  6
Continuous
 62
     7
370
    25
100
AcDbLine
 10
322.7014294329
 20
6284.8400546632
 30
0.0
 11
324.5831884329
 21
6286.1359626632
 31
0.0
  0
LINE
  5
29F
330
1F
100
AcDbEntity
  8
0
  6
Continuous
 62
     7
370
    25
100
AcDbLine
 10
324.5831884329
 20
6286.1359626632
 30
0.0
 11
323.6417374329
 21
6287.8245546632
 31
0.0
  0
LINE
  5
2A0
330
1F
100
AcDbEntity
  8
0
  6
Continuous
 62
     7
370
    25
100
AcDbLine
 10
323.6417374329
 20
6287.8245546632
 30
0.0
 11
322.4423494329
 21
6287.6619946632
 31
0.0
  0
LINE
  5
2A1
330
1F
100
AcDbEntity
  8
0
  6
Continuous
 62
     7
370
    25
100
AcDbLine
 10
322.4423494329
 20
6287.6619946632
 30
0.0
 11
319.7169294329
 21
6291.3278496632
 31
0.0
  0
LINE
  5
2A2
330
1F
100
AcDbEntity
  8
0
  6
Continuous
 62
     7
370
    25
100
AcDbLine
 10
319.7169294329
 20
6291.3278496632
 30
0.0
 11
319.1973724329
 21
6291.3278496632
 31
0.0
  0
LINE
  5
2A3
330
1F
100
AcDbEntity
  8
0
  6
Continuous
 62
     7
370
    25
100
AcDbLine
 10
319.1973724329
 20
6291.3278496632
 30
0.0
 11
318.9381654329
 21
6289.8030876632
 31
0.0
  0
LINE
  5
2A4
330
1F
100
AcDbEntity
  8
0
  6
Continuous
 62
     7
370
    25
100
AcDbLine
 10
318.9381654329
 20
6289.8030876632
 30
0.0
 11
318.5162714329
 21
6289.5440076632
 31
0.0
  0
LINE
  5
2A5
330
1F
100
AcDbEntity
  8
0
  6
Continuous
 62
     7
370
    25
100
AcDbLine
 10
318.5162714329
 20
6289.5440076632
 30
0.0
 11
317.7375074329
 21
6292.2035146632
 31
0.0
  0
LINE
  5
2A6
330
1F
100
AcDbEntity
  8
0
  6
Continuous
 62
     7
370
    25
100
AcDbLine
 10
317.7375074329
 20
6292.2035146632
 30
0.0
 11
316.7960564329
 21
6296.3570496632
 31
0.0
  0
LINE
  5
2A7
330
1F
100
AcDbEntity
  8
0
  6
Continuous
 62
     7
370
    25
100
AcDbLine
 10
316.7960564329
 20
6296.3570496632
 30
0.0
 11
318.7754784329
 21
6297.4930646632
 31
0.0
  0
LINE
  5
2A8
330
1F
100
AcDbEntity
  8
0
  6
Continuous
 62
     7
370
    25
100
AcDbLine
 10
318.7754784329
 20
6297.4930646632
 30
0.0
 11
319.6191394329
 21
6296.2926606632
 31
0.0
  0
LINE
  5
2A9
330
1F
100
AcDbEntity
  8
0
  6
Continuous
 62
     7
370
    25
100
AcDbLine
 10
319.6191394329
 20
6296.2926606632
 30
0.0
 11
320.9163174329
 21
6298.3357096632
 31
0.0
  0
LINE
  5
2AA
330
1F
100
AcDbEntity
  8
0
  6
Continuous
 62
     7
370
    25
100
AcDbLine
 10
320.9163174329
 20
6298.3357096632
 30
0.0
 11
321.2415644329
 21
6300.8020496632
 31
0.0
  0
LINE
  5
2AB
330
1F
100
AcDbEntity
  8
0
  6
Continuous
 62
     7
370
    25
100
AcDbLine
 10
321.2415644329
 20
6300.8020496632
 30
0.0
 11
320.0409064329
 21
6300.9002206632
 31
0.0
  0
LINE
  5
2AC
330
1F
100
AcDbEntity
  8
0
  6
Continuous
 62
     7
370
    25
100
AcDbLine
 10
320.0409064329
 20
6300.9002206632
 30
0.0
 11
319.8783464329
 21
6302.1004976632
 31
0.0
  0
LINE
  5
2AD
330
1F
100
AcDbEntity
  8
0
  6
Continuous
 62
     7
370
    25
100
AcDbLine
 10
319.8783464329
 20
6302.1004976632
 30
0.0
 11
319.7486794329
 21
6302.0673506632
 31
0.0
  0
LINE
  5
2AE
330
1F
100
AcDbEntity
  8
0
  6
Continuous
 62
     7
370
    25
100
AcDbLine
 10
319.7486794329
 20
6302.0673506632
 30
0.0
 11
319.7818264329
 21
6302.1004976632
 31
0.0
  0
LINE
  5
2AF
330
1F
100
AcDbEntity
  8
0
  6
Continuous
 62
     7
370
    25
100
AcDbLine
 10
319.7818264329
 20
6302.1004976632
 30
0.0
 11
321.2415644329
 21
6303.2037466632
 31
0.0
  0
LINE
  5
2B0
330
1F
100
AcDbEntity
  8
0
  6
Continuous
 62
     7
370
    25
100
AcDbLine
 10
321.2415644329
 20
6303.2037466632
 30
0.0
 11
324.0635044329
 21
6302.5226456632
 31
0.0
  0
LINE
  5
2B1
330
1F
100
AcDbEntity
  8
0
  6
Continuous
 62
     7
370
    25
100
AcDbLine
 10
324.0635044329
 20
6302.5226456632
 30
0.0
 11
325.6871994329
 21
6305.5061296632
 31
0.0
  0
LINE
  5
2B2
330
1F
100
AcDbEntity
  8
0
  6
Continuous
 62
     7
370
    25
100
AcDbLine
 10
325.6871994329
 20
6305.5061296632
 30
0.0
 11
327.1470644329
 21
6305.1500216632
 31
0.0
  0
LINE
  5
2B3
330
1F
100
AcDbEntity
  8
0
  6
Continuous
 62
     7
370
    25
100
AcDbLine
 10
327.1470644329
 20
6305.1500216632
 30
0.0
 11
328.4124924329
 21
6307.0315266632
 31
0.0
  0
LINE
  5
2B4
330
1F
100
AcDbEntity
  8
0
  6
Continuous
 62
     7
370
    25
100
AcDbLine
 10
328.4124924329
 20
6307.0315266632
 30
0.0
 11
331.6561994329
 21
6307.5515916632
 31
0.0
  0
LINE
  5
2B5
330
1F
100
AcDbEntity
  8
0
  6
Continuous
 62
     7
370
    25
100
AcDbLine
 10
331.6561994329
 20
6307.5515916632
 30
0.0
 11
331.9166764329
 21
6305.1500216632
 31
0.0
  0
LINE
  5
2B6
330
1F
100
AcDbEntity
  8
0
  6
Continuous
 62
     7
370
    25
100
AcDbLine
 10
331.9166764329
 20
6305.1500216632
 30
0.0
 11
333.0195444329
 21
6304.2093326632
 31
0.0
  0
LINE
  5
2B7
330
1F
100
AcDbEntity
  8
0
  6
Continuous
 62
     7
370
    25
100
AcDbLine
 10
333.0195444329
 20
6304.2093326632
 30
0.0
 11
335.4195904329
 21
6304.2093326632
 31
0.0
  0
LINE
  5
2B8
330
1F
100
AcDbEntity
  8
0
  6
Continuous
 62
     7
370
    25
100
AcDbLine
 10
335.4195904329
 20
6304.2093326632
 30
0.0
 11
336.6202484329
 21
6305.5061296632
 31
0.0
  0
LINE
  5
2B9
330
1F
100
AcDbEntity
  8
0
  6
Continuous
 62
     7
370
    25
100
AcDbLine
 10
336.6202484329
 20
6305.5061296632
 30
0.0
 11
338.0483634329
 21
6305.5720426632
 31
0.0
  0
LINE
  5
2BA
330
1F
100
AcDbEntity
  8
0
  6
Continuous
 62
     7
370
    25
100
AcDbLine
 10
338.0483634329
 20
6305.5720426632
 30
0.0
 11
338.8283974329
 21
6304.9880966632
 31
0.0
  0
LINE
  5
2BB
330
1F
100
AcDbEntity
  8
0
  6
Continuous
 62
     7
370
    25
100
AcDbLine
 10
338.8283974329
 20
6304.9880966632
 30
0.0
 11
340.4496794329
 21
6306.6100136632
 31
0.0
  0
LINE
  5
2BC
330
1F
100
AcDbEntity
  8
0
  6
Continuous
 62
     7
370
    25
100
AcDbLine
 10
340.4496794329
 20
6306.6100136632
 30
0.0
 11
344.8940444329
 21
6306.8698556632
 31
0.0
  0
LINE
  5
2BD
330
1F
100
AcDbEntity
  8
0
  6
Continuous
 62
     7
370
    25
100
AcDbLine
 10
344.8940444329
 20
6306.8698556632
 30
0.0
 11
346.5812394329
 21
6306.0910916632
 31
0.0
  0
LINE
  5
2BE
330
1F
100
AcDbEntity
  8
0
  6
Continuous
 62
     7
370
    25
100
AcDbLine
 10
346.5812394329
 20
6306.0910916632
 30
0.0
 11
348.7233484329
 21
6303.0411866632
 31
0.0
  0
LINE
  5
2BF
330
1F
100
AcDbEntity
  8
0
  6
Continuous
 62
     7
370
    25
100
AcDbLine
 10
348.7233484329
 20
6303.0411866632
 30
0.0
 11
349.7614464329
 21
6302.8468766632
 31
0.0
  0
LINE
  5
2C0
330
1F
100
AcDbEntity
  8
0
  6
Continuous
 62
     7
370
    25
100
AcDbLine
 10
349.7614464329
 20
6302.8468766632
 30
0.0
 11
349.5670094329
 21
6300.4779456632
 31
0.0
  0
LINE
  5
2C1
330
1F
100
AcDbEntity
  8
0
  6
Continuous
 62
     7
370
    25
100
AcDbLine
 10
349.5670094329
 20
6300.4779456632
 30
0.0
 11
348.6268284329
 21
6298.9200366632
 31
0.0
  0
LINE
  5
2C2
330
1F
100
AcDbEntity
  8
0
  6
Continuous
 62
     7
370
    25
100
AcDbLine
 10
348.6268284329
 20
6298.9200366632
 30
0.0
 11
350.8655844329
 21
6297.6551166632
 31
0.0
  0
LINE
  5
2C3
330
1F
100
AcDbEntity
  8
0
  6
Continuous
 62
     7
370
    25
100
AcDbLine
 10
350.8655844329
 20
6297.6551166632
 30
0.0
 11
353.0711934329
 21
6297.1355596632
 31
0.0
  0
LINE
  5
2C4
330
1F
100
AcDbEntity
  8
0
  6
Continuous
 62
     7
370
    25
100
AcDbLine
 10
353.0711934329
 20
6297.1355596632
 30
0.0
 11
353.2337534329
 21
6296.6166376632
 31
0.0
  0
LINE
  5
2C5
330
1F
100
AcDbEntity
  8
0
  6
Continuous
 62
     7
370
    25
100
AcDbLine
 10
353.2337534329
 20
6296.6166376632
 30
0.0
 11
355.2133024329
 21
6295.2540546632
 31
0.0
  0
LINE
  5
2C6
330
1F
100
AcDbEntity
  8
0
  6
Continuous
 62
     7
370
    25
100
AcDbLine
 10
355.2133024329
 20
6295.2540546632
 30
0.0
 11
355.3098224329
 21
6293.6318836632
 31
0.0
  0
LINE
  5
2C7
330
1F
100
AcDbEntity
  8
0
  6
Continuous
 62
     7
370
    25
100
AcDbLine
 10
355.3098224329
 20
6293.6318836632
 30
0.0
 11
354.3696414329
 21
6293.5673676632
 31
0.0
  0
LINE
  5
2C8
330
1F
100
AcDbEntity
  8
0
  6
Continuous
 62
     7
370
    25
100
AcDbLine
 10
354.3696414329
 20
6293.5673676632
 30
0.0
 11
354.5323284329
 21
6292.2035146632
 31
0.0
  0
LINE
  5
2C9
330
1F
100
AcDbEntity
  8
0
  6
Continuous
 62
     7
370
    25
100
AcDbLine
 10
354.5323284329
 20
6292.2035146632
 30
0.0
 11
353.5908774329
 21
6290.7437766632
 31
0.0
  0
LINE
  5
2CA
330
1F
100
AcDbEntity
  8
0
  6
Continuous
 62
     7
370
    25
100
AcDbLine
 10
353.5908774329
 20
6290.7437766632
 30
0.0
 11
354.3696414329
 21
6288.9595536632
 31
0.0
  0
LINE
  5
2CB
330
1F
100
AcDbEntity
  8
0
  6
Continuous
 62
     7
370
    25
100
AcDbLine
 10
354.3696414329
 20
6288.9595536632
 30
0.0
 11
353.7534374329
 21
6287.4015176632
 31
0.0
  0
LINE
  5
2CC
330
1F
100
AcDbEntity
  8
0
  6
Continuous
 62
     7
370
    25
100
AcDbLine
 10
353.7534374329
 20
6287.4015176632
 30
0.0
 11
353.9148544329
 21
6284.5142996632
 31
0.0
  0
LINE
  5
2CD
330
1F
100
AcDbEntity
  8
0
  6
Continuous
 62
     7
370
    25
100
AcDbLine
 10
353.9148544329
 20
6284.5142996632
 30
0.0
 11
356.8993544329
 21
6284.5142996632
 31
0.0
  0
LINE
  5
2CE
330
1F
100
AcDbEntity
  8
0
  6
Continuous
 62
     7
370
    25
100
AcDbLine
 10
356.8993544329
 20
6284.5142996632
 30
0.0
 11
357.4189114329
 21
6283.5738646632
 31
0.0
  0
LINE
  5
2CF
330
1F
100
AcDbEntity
  8
0
  6
Continuous
 62
     7
370
    25
100
AcDbLine
 10
357.4189114329
 20
6283.5738646632
 30
0.0
 11
358.7174864329
 21
6283.3138956632
 31
0.0
  0
LINE
  5
2D0
330
1F
100
AcDbEntity
  8
0
  6
Continuous
 62
     7
370
    25
100
AcDbLine
 10
358.7174864329
 20
6283.3138956632
 30
0.0
 11
358.7822564329
 21
6280.8469206632
 31
0.0
  0
LINE
  5
2D1
330
1F
100
AcDbEntity
  8
0
  6
Continuous
 62
     7
370
    25
100
AcDbLine
 10
358.7822564329
 20
6280.8469206632
 30
0.0
 11
359.9498944329
 21
6278.4462396632
 31
0.0
  0
LINE
  5
2D2
330
1F
100
AcDbEntity
  8
0
  6
Continuous
 62
     7
370
    25
100
AcDbLine
 10
359.9498944329
 20
6278.4462396632
 30
0.0
 11
361.2483424329
 21
6278.0242186632
 31
0.0
  0
LINE
  5
2D3
330
1F
100
AcDbEntity
  8
0
  6
Continuous
 62
     7
370
    25
100
AcDbLine
 10
361.2483424329
 20
6278.0242186632
 30
0.0
 11
361.4097594329
 21
6275.3958266632
 31
0.0
  0
LINE
  5
2D4
330
1F
100
AcDbEntity
  8
0
  6
Continuous
 62
     7
370
    25
100
AcDbLine
 10
361.4097594329
 20
6275.3958266632
 30
0.0
 11
360.5673684329
 21
6274.9424366632
 31
0.0
  0
LINE
  5
2D5
330
1F
100
AcDbEntity
  8
0
  6
Continuous
 62
     7
370
    25
100
AcDbLine
 10
360.5673684329
 20
6274.9424366632
 30
0.0
 11
360.4695784329
 21
6273.9359616632
 31
0.0
  0
LINE
  5
2D6
330
1F
100
AcDbEntity
  8
0
  6
Continuous
 62
     7
370
    25
100
AcDbLine
 10
360.4695784329
 20
6273.9359616632
 30
0.0
 11
361.2483424329
 21
6273.8388066632
 31
0.0
  0
LINE
  5
2D7
330
1F
100
AcDbEntity
  8
0
  6
Continuous
 62
     7
370
    25
100
AcDbLine
 10
361.2483424329
 20
6273.8388066632
 30
0.0
 11
361.2483424329
 21
6272.7355576632
 31
0.0
  0
LINE
  5
2D8
330
1F
100
AcDbEntity
  8
0
  6
Continuous
 62
     7
370
    25
100
AcDbLine
 10
361.2483424329
 20
6272.7355576632
 30
0.0
 11
363.8758454329
 21
6272.5733786632
 31
0.0
  0
LINE
  5
2D9
330
1F
100
AcDbEntity
  8
0
  6
Continuous
 62
     7
370
    25
100
AcDbLine
 10
363.8758454329
 20
6272.5733786632
 30
0.0
 11
363.8758454329
 21
6271.3732286632
 31
0.0
  0
LINE
  5
2DA
330
1F
100
AcDbEntity
  8
0
  6
Continuous
 62
     7
370
    25
100
AcDbLine
 10
363.8758454329
 20
6271.3732286632
 30
0.0
 11
364.9799834329
 21
6271.6326896632
 31
0.0
  0
LINE
  5
2DB
330
1F
100
AcDbEntity
  8
0
  6
Continuous
 62
     7
370
    25
100
AcDbLine
 10
364.9799834329
 20
6271.6326896632
 30
0.0
 11
364.9799834329
 21
6272.4759696632
 31
0.0
  0
LINE
  5
2DC
330
1F
100
AcDbEntity
  8
0
  6
Continuous
 62
     7
370
    25
100
AcDbLine
 10
364.9799834329
 20
6272.4759696632
 30
0.0
 11
368.1587934329
 21
6271.6326896632
 31
0.0
  0
LINE
  5
2DD
330
1F
100
AcDbEntity
  8
0
  6
Continuous
 62
     7
370
    25
100
AcDbLine
 10
368.1587934329
 20
6271.6326896632
 30
0.0
 11
371.2081904329
 21
6271.6326896632
 31
0.0
  0
LINE
  5
2DE
330
1F
100
AcDbEntity
  8
0
  6
Continuous
 62
     7
370
    25
100
AcDbLine
 10
371.2081904329
 20
6271.6326896632
 30
0.0
 11
372.5066384329
 21
6272.8339826632
 31
0.0
  0
LINE
  5
2DF
330
1F
100
AcDbEntity
  8
0
  6
Continuous
 62
     7
370
    25
100
AcDbLine
 10
372.5066384329
 20
6272.8339826632
 30
0.0
 11
373.0910924329
 21
6272.4759696632
 31
0.0
  0
LINE
  5
2E0
330
1F
100
AcDbEntity
  8
0
  6
Continuous
 62
     7
370
    25
100
AcDbLine
 10
373.0910924329
 20
6272.4759696632
 30
0.0
 11
372.9284054329
 21
6270.9506996632
 31
0.0
  0
LINE
  5
2E1
330
1F
100
AcDbEntity
  8
0
  6
Continuous
 62
     7
370
    25
100
AcDbLine
 10
372.9284054329
 20
6270.9506996632
 30
0.0
 11
374.1290634329
 21
6269.7508036632
 31
0.0
  0
LINE
  5
2E2
330
1F
100
AcDbEntity
  8
0
  6
Continuous
 62
     7
370
    25
100
AcDbLine
 10
374.1290634329
 20
6269.7508036632
 30
0.0
 11
374.3895404329
 21
6268.3884746632
 31
0.0
  0
LINE
  5
2E3
330
1F
100
AcDbEntity
  8
0
  6
Continuous
 62
     7
370
    25
100
AcDbLine
 10
374.3895404329
 20
6268.3884746632
 30
0.0
 11
375.3309914329
 21
6268.5503996632
 31
0.0
  0
LINE
  5
2E4
330
1F
100
AcDbEntity
  8
0
  6
Continuous
 62
     7
370
    25
100
AcDbLine
 10
375.3309914329
 20
6268.5503996632
 30
0.0
 11
375.7528854329
 21
6266.7664306632
 31
0.0
  0
LINE
  5
2E5
330
1F
100
AcDbEntity
  8
0
  6
Continuous
 62
     7
370
    25
100
AcDbLine
 10
375.7528854329
 20
6266.7664306632
 30
0.0
 11
375.0681014329
 21
6266.2467466632
 31
0.0
  0
LINE
  5
2E6
330
1F
100
AcDbEntity
  8
0
  6
Continuous
 62
     7
370
    25
100
AcDbLine
 10
375.0681014329
 20
6266.2467466632
 30
0.0
 11
375.3946184329
 21
6264.2026816632
 31
0.0
  0
LINE
  5
2E7
330
1F
100
AcDbEntity
  8
0
  6
Continuous
 62
     7
370
    25
100
AcDbLine
 10
375.3946184329
 20
6264.2026816632
 30
0.0
 11
373.7072964329
 21
6264.1047646632
 31
0.0
  0
LINE
  5
2E8
330
1F
100
AcDbEntity
  8
0
  6
Continuous
 62
     7
370
    25
100
AcDbLine
 10
373.7072964329
 20
6264.1047646632
 30
0.0
 11
373.8699834329
 21
6262.4179506632
 31
0.0
  0
LINE
  5
2E9
330
1F
100
AcDbEntity
  8
0
  6
Continuous
 62
     7
370
    25
100
AcDbLine
 10
373.8699834329
 20
6262.4179506632
 30
0.0
 11
376.6930664329
 21
6262.0612076632
 31
0.0
  0
LINE
  5
2EA
330
1F
100
AcDbEntity
  8
0
  6
Continuous
 62
     7
370
    25
100
AcDbLine
 10
376.6930664329
 20
6262.0612076632
 30
0.0
 11
376.9522734329
 21
6260.7955256632
 31
0.0
  0
LINE
  5
2EB
330
1F
100
AcDbEntity
  8
0
  6
Continuous
 62
     7
370
    25
100
AcDbLine
 10
376.9522734329
 20
6260.7955256632
 30
0.0
 11
378.6381984329
 21
6260.3733776632
 31
0.0
  0
LINE
  5
2EC
330
1F
100
AcDbEntity
  8
0
  6
Continuous
 62
     7
370
    25
100
AcDbLine
 10
378.6381984329
 20
6260.3733776632
 30
0.0
 11
378.5416784329
 21
6259.0759456632
 31
0.0
  0
LINE
  5
2ED
330
1F
100
AcDbEntity
  8
0
  6
Continuous
 62
     7
370
    25
100
AcDbLine
 10
378.5416784329
 20
6259.0759456632
 30
0.0
 11
380.7804344329
 21
6260.4382746632
 31
0.0
  0
LINE
  5
2EE
330
1F
100
AcDbEntity
  8
0
  6
Continuous
 62
     7
370
    25
100
AcDbLine
 10
380.7804344329
 20
6260.4382746632
 30
0.0
 11
382.0458624329
 21
6258.9133856632
 31
0.0
  0
LINE
  5
2EF
330
1F
100
AcDbEntity
  8
0
  6
Continuous
 62
     7
370
    25
100
AcDbLine
 10
382.0458624329
 20
6258.9133856632
 30
0.0
 11
382.9225434329
 21
6259.1729736632
 31
0.0
  0
LINE
  5
2F0
330
1F
100
AcDbEntity
  8
0
  6
Continuous
 62
     7
370
    25
100
AcDbLine
 10
382.9225434329
 20
6259.1729736632
 30
0.0
 11
383.7674744329
 21
6260.1791946632
 31
0.0
  0
LINE
  5
2F1
330
1F
100
AcDbEntity
  8
0
  6
Continuous
 62
     7
370
    25
100
AcDbLine
 10
383.7674744329
 20
6260.1791946632
 30
0.0
 11
385.4851494329
 21
6260.3733776632
 31
0.0
  0
LINE
  5
2F2
330
1F
100
AcDbEntity
  8
0
  6
Continuous
 62
     7
370
    25
100
AcDbLine
 10
385.4851494329
 20
6260.3733776632
 30
0.0
 11
385.9718134329
 21
6259.4335776632
 31
0.0
  0
LINE
  5
2F3
330
1F
100
AcDbEntity
  8
0
  6
Continuous
 62
     7
370
    25
100
AcDbLine
 10
385.9718134329
 20
6259.4335776632
 30
0.0
 11
386.4914974329
 21
6260.4382746632
 31
0.0
  0
LINE
  5
2F4
330
1F
100
AcDbEntity
  8
0
  6
Continuous
 62
     7
370
    25
100
AcDbLine
 10
386.4914974329
 20
6260.4382746632
 30
0.0
 11
388.4721894329
 21
6259.7581896632
 31
0.0
  0
LINE
  5
2F5
330
1F
100
AcDbEntity
  8
0
  6
Continuous
 62
     7
370
    25
100
AcDbLine
 10
388.4721894329
 20
6259.7581896632
 30
0.0
 11
388.6971064329
 21
6261.5422856632
 31
0.0
  0
LINE
  5
2F6
330
1F
100
AcDbEntity
  8
0
  6
Continuous
 62
     7
370
    25
100
AcDbLine
 10
388.6971064329
 20
6261.5422856632
 30
0.0
 11
389.7364744329
 21
6261.4770076632
 31
0.0
  0
LINE
  5
2F7
330
1F
100
AcDbEntity
  8
0
  6
Continuous
 62
     7
370
    25
100
AcDbLine
 10
389.7364744329
 20
6261.4770076632
 30
0.0
 11
390.4187184329
 21
6262.0612076632
 31
0.0
  0
LINE
  5
2F8
330
1F
100
AcDbEntity
  8
0
  6
Continuous
 62
     7
370
    25
100
AcDbLine
 10
390.4187184329
 20
6262.0612076632
 30
0.0
 11
390.7757154329
 21
6262.0612076632
 31
0.0
  0
LINE
  5
2F9
330
1F
100
AcDbEntity
  8
0
  6
Continuous
 62
     7
370
    25
100
AcDbLine
 10
390.7757154329
 20
6262.0612076632
 30
0.0
 11
392.3968704329
 21
6261.8023816632
 31
0.0
  0
LINE
  5
2FA
330
1F
100
AcDbEntity
  8
0
  6
Continuous
 62
     7
370
    25
100
AcDbLine
 10
392.3968704329
 20
6261.8023816632
 30
0.0
 11
393.0779714329
 21
6263.6187356632
 31
0.0
  0
LINE
  5
2FB
330
1F
100
AcDbEntity
  8
0
  6
Continuous
 62
     7
370
    25
100
AcDbLine
 10
393.0779714329
 20
6263.6187356632
 30
0.0
 11
393.8237154329
 21
6263.6187356632
 31
0.0
  0
LINE
  5
2FC
330
1F
100
AcDbEntity
  8
0
  6
Continuous
 62
     7
370
    25
100
AcDbLine
 10
393.8237154329
 20
6263.6187356632
 30
0.0
 11
394.0181524329
 21
6264.8830206632
 31
0.0
  0
LINE
  5
2FD
330
1F
100
AcDbEntity
  8
0
  6
Continuous
 62
     7
370
    25
100
AcDbLine
 10
394.0181524329
 20
6264.8830206632
 30
0.0
 11
395.8693044329
 21
6264.7865006632
 31
0.0
  0
LINE
  5
2FE
330
1F
100
AcDbEntity
  8
0
  6
Continuous
 62
     7
370
    25
100
AcDbLine
 10
395.8693044329
 20
6264.7865006632
 30
0.0
 11
396.3229484329
 21
6262.7421816632
 31
0.0
  0
LINE
  5
2FF
330
1F
100
AcDbEntity
  8
0
  6
Continuous
 62
     7
370
    25
100
AcDbLine
 10
396.3229484329
 20
6262.7421816632
 30
0.0
 11
398.1715604329
 21
6260.6334736632
 31
0.0
  0
LINE
  5
300
330
1F
100
AcDbEntity
  8
0
  6
Continuous
 62
     7
370
    25
100
AcDbLine
 10
398.1715604329
 20
6260.6334736632
 30
0.0
 11
401.1586004329
 21
6260.7955256632
 31
0.0
  0
LINE
  5
301
330
1F
100
AcDbEntity
  8
0
  6
Continuous
 62
     7
370
    25
100
AcDbLine
 10
401.1586004329
 20
6260.7955256632
 30
0.0
 11
401.6121174329
 21
6259.8545826632
 31
0.0
  0
LINE
  5
302
330
1F
100
AcDbEntity
  8
0
  6
Continuous
 62
     7
370
    25
100
AcDbLine
 10
401.6121174329
 20
6259.8545826632
 30
0.0
 11
400.4763564329
 21
6258.8166116632
 31
0.0
  0
LINE
  5
303
330
1F
100
AcDbEntity
  8
0
  6
Continuous
 62
     7
370
    25
100
AcDbLine
 10
400.4763564329
 20
6258.8166116632
 30
0.0
 11
400.1522524329
 21
6259.4335776632
 31
0.0
  0
LINE
  5
304
330
1F
100
AcDbEntity
  8
0
  6
Continuous
 62
     7
370
    25
100
AcDbLine
 10
400.1522524329
 20
6259.4335776632
 30
0.0
 11
398.9515944329
 21
6259.3350256632
 31
0.0
  0
LINE
  5
305
330
1F
100
AcDbEntity
  8
0
  6
Continuous
 62
     7
370
    25
100
AcDbLine
 10
398.9515944329
 20
6259.3350256632
 30
0.0
 11
399.1142814329
 21
6256.9340906632
 31
0.0
  0
LINE
  5
306
330
1F
100
AcDbEntity
  8
0
  6
Continuous
 62
     7
370
    25
100
AcDbLine
 10
399.1142814329
 20
6256.9340906632
 30
0.0
 11
400.8333534329
 21
6254.8256366632
 31
0.0
  0
LINE
  5
307
330
1F
100
AcDbEntity
  8
0
  6
Continuous
 62
     7
370
    25
100
AcDbLine
 10
400.8333534329
 20
6254.8256366632
 30
0.0
 11
402.6171954329
 21
6254.9876886632
 31
0.0
  0
LINE
  5
308
330
1F
100
AcDbEntity
  8
0
  6
Continuous
 62
     7
370
    25
100
AcDbLine
 10
402.6171954329
 20
6254.9876886632
 30
0.0
 11
401.2551204329
 21
6252.2620146632
 31
0.0
  0
LINE
  5
309
330
1F
100
AcDbEntity
  8
0
  6
Continuous
 62
     7
370
    25
100
AcDbLine
 10
401.2551204329
 20
6252.2620146632
 30
0.0
 11
402.0340114329
 21
6252.0033156632
 31
0.0
  0
LINE
  5
30A
330
1F
100
AcDbEntity
  8
0
  6
Continuous
 62
     7
370
    25
100
AcDbLine
 10
402.0340114329
 20
6252.0033156632
 30
0.0
 11
403.8165834329
 21
6253.0080126632
 31
0.0
  0
LINE
  5
30B
330
1F
100
AcDbEntity
  8
0
  6
Continuous
 62
     7
370
    25
100
AcDbLine
 10
403.8165834329
 20
6253.0080126632
 30
0.0
 11
404.1443704329
 21
6251.8401206632
 31
0.0
  0
LINE
  5
30C
330
1F
100
AcDbEntity
  8
0
  6
Continuous
 62
     7
370
    25
100
AcDbLine
 10
404.1443704329
 20
6251.8401206632
 30
0.0
 11
404.0770604329
 21
6251.8401206632
 31
0.0
  0
LINE
  5
30D
330
1F
100
AcDbEntity
  8
0
  6
Continuous
 62
     7
370
    25
100
AcDbLine
 10
404.0770604329
 20
6251.8401206632
 30
0.0
 11
403.9816834329
 21
6249.9582346632
 31
0.0
  0
LINE
  5
30E
330
1F
100
AcDbEntity
  8
0
  6
Continuous
 62
     7
370
    25
100
AcDbLine
 10
403.9816834329
 20
6249.9582346632
 30
0.0
 11
401.6757444329
 21
6248.4979886632
 31
0.0
  0
LINE
  5
30F
330
1F
100
AcDbEntity
  8
0
  6
Continuous
 62
     7
370
    25
100
AcDbLine
 10
401.6757444329
 20
6248.4979886632
 30
0.0
 11
402.3249684329
 21
6246.0640336632
 31
0.0
  0
LINE
  5
310
330
1F
100
AcDbEntity
  8
0
  6
Continuous
 62
     7
370
    25
100
AcDbLine
 10
402.3249684329
 20
6246.0640336632
 30
0.0
 11
401.2551204329
 21
6244.8311176632
 31
0.0
  0
ENDSEC
  0
SECTION
  2
OBJECTS
  0
DICTIONARY
  5
C
330
0
100
AcDbDictionary
281
     1
  3
ACAD_GROUP
350
D
  3
ACAD_LAYOUT
350
1A
  3
ACAD_MLINESTYLE
350
17
  3
ACAD_PLOTSETTINGS
350
19
  3
ACAD_PLOTSTYLENAME
350
E
  3
ACAD_SCALELIST
350
47
  0
DICTIONARY
  5
D
102
{ACAD_REACTORS
330
C
102
}
330
C
100
AcDbDictionary
281
     1
  0
DICTIONARY
  5
1A
102
{ACAD_REACTORS
330
C
102
}
330
C
100
AcDbDictionary
281
     1
  3
Layout1
350
1E
  3
Layout2
350
26
  3
Model
350
22
  0
DICTIONARY
  5
17
102
{ACAD_REACTORS
330
C
102
}
330
C
100
AcDbDictionary
281
     1
  3
Standard
350
18
  0
DICTIONARY
  5
19
102
{ACAD_REACTORS
330
C
102
}
330
C
100
AcDbDictionary
281
     1
  0
ACDBDICTIONARYWDFLT
  5
E
102
{ACAD_REACTORS
330
C
102
}
330
C
100
AcDbDictionary
281
     1
  3
Normal
350
F
100
AcDbDictionaryWithDefault
340
F
  0
DICTIONARY
  5
47
102
{ACAD_REACTORS
330
C
102
}
330
C
100
AcDbDictionary
281
     1
  3
A0
350
48
  3
A1
350
49
  3
A2
350
4A
  3
A3
350
4B
  3
A4
350
4C
  3
A5
350
4D
  3
A6
350
4E
  3
A7
350
4F
  3
A8
350
50
  3
A9
350
51
  3
B0
350
52
  3
B1
350
53
  3
B2
350
54
  3
B3
350
55
  3
B4
350
56
  3
B5
350
57
  3
B6
350
58
  3
B7
350
59
  3
B8
350
5A
  3
B9
350
5B
  3
C0
350
5C
  3
C1
350
5D
  3
C2
350
5E
  3
C3
350
5F
  3
C4
350
60
  3
C5
350
61
  3
C6
350
62
  3
C7
350
63
  3
C8
350
64
  3
C9
350
65
  3
D0
350
66
  3
D1
350
67
  3
D2
350
68
  0
LAYOUT
  5
1E
102
{ACAD_REACTORS
330
1A
102
}
330
1A
100
AcDbPlotSettings
  1

  2
none_device
  4

  6

 40
0.0
 41
0.0
 42
0.0
 43
0.0
 44
0.0
 45
0.0
 46
0.0
 47
0.0
 48
0.0
 49
0.0
140
0.0
141
0.0
142
1.0
143
1.0
 70
   688
 72
     1
 73
     0
 74
     5
  7

 75
    16
147
1.0
148
0.0
149
0.0
100
AcDbLayout
  1
Layout1
 70
     1
 71
     1
 10
0.0
 20
0.0
 11
420.0
 21
297.0
 12
0.0
 22
0.0
 32
0.0
 14
1.0000000000E+20
 24
1.0000000000E+20
 34
1.0000000000E+20
 15
-1.0000000000E+20
 25
-1.0000000000E+20
 35
-1.0000000000E+20
146
0.0
 13
0.0
 23
0.0
 33
0.0
 16
1.0
 26
0.0
 36
0.0
 17
0.0
 27
1.0
 37
0.0
 76
     0
330
1B
  0
LAYOUT
  5
26
102
{ACAD_REACTORS
330
1A
102
}
330
1A
100
AcDbPlotSettings
  1

  2
none_device
  4

  6

 40
0.0
 41
0.0
 42
0.0
 43
0.0
 44
0.0
 45
0.0
 46
0.0
 47
0.0
 48
0.0
 49
0.0
140
0.0
141
0.0
142
1.0
143
1.0
 70
   688
 72
     1
 73
     0
 74
     5
  7

 75
    16
147
1.0
148
0.0
149
0.0
100
AcDbLayout
  1
Layout2
 70
     1
 71
     2
 10
0.0
 20
0.0
 11
0.0
 21
0.0
 12
0.0
 22
0.0
 32
0.0
 14
0.0
 24
0.0
 34
0.0
 15
0.0
 25
0.0
 35
0.0
146
0.0
 13
0.0
 23
0.0
 33
0.0
 16
1.0
 26
0.0
 36
0.0
 17
0.0
 27
1.0
 37
0.0
 76
     0
330
23
  0
LAYOUT
  5
22
102
{ACAD_REACTORS
330
1A
102
}
330
1A
100
AcDbPlotSettings
  1

  2
none_device
  4
ANSI_A_(11.00_x_8.50_Inches)
  6

 40
6.35
 41
19.05
 42
6.35000508
 43
19.05000254
 44
279.4
 45
215.9
 46
-563.8203584821
 47
-12003.4010955167
 48
0.0
 49
0.0
140
0.0
141
0.0
142
0.0761440219
143
1.0
 70
  1696
 72
     0
 73
     0
 74
     0
  7

 75
     0
147
0.0179189148
148
-1300.4909072572
149
0.0
100
AcDbLayout
  1
Model
 70
     1
 71
     0
 10
0.0
 20
0.0
 11
420.0
 21
297.0
 12
0.0
 22
0.0
 32
0.0
 14
316.7960564329
 24
6197.0373346632
 34
0.0
 15
404.1443704329
 25
6307.5515916632
 35
0.0
146
0.0
 13
0.0
 23
0.0
 33
0.0
 16
1.0
 26
0.0
 36
0.0
 17
0.0
 27
1.0
 37
0.0
 76
     0
330
1F
331
29
  0
MLINESTYLE
  5
18
102
{ACAD_REACTORS
330
17
102
}
330
17
100
AcDbMlineStyle
  2
Standard
 70
     0
  3

 62
   256
 51
90.0
 52
90.0
 71
     2
 49
0.5
 62
   256
  6
BYLAYER
 49
-0.5
 62
   256
  6
BYLAYER
  0
ACDBPLACEHOLDER
  5
F
102
{ACAD_REACTORS
330
E
102
}
330
E
  0
SCALE
  5
48
102
{ACAD_REACTORS
330
47
102
}
330
47
100
AcDbScale
 70
     0
300
1:1
140
1.0
141
1.0
290
     1
  0
SCALE
  5
49
102
{ACAD_REACTORS
330
47
102
}
330
47
100
AcDbScale
 70
     0
300
1:2
140
1.0
141
2.0
290
     0
  0
SCALE
  5
4A
102
{ACAD_REACTORS
330
47
102
}
330
47
100
AcDbScale
 70
     0
300
1:4
140
1.0
141
4.0
290
     0
  0
SCALE
  5
4B
102
{ACAD_REACTORS
330
47
102
}
330
47
100
AcDbScale
 70
     0
300
1:5
140
1.0
141
5.0
290
     0
  0
SCALE
  5
4C
102
{ACAD_REACTORS
330
47
102
}
330
47
100
AcDbScale
 70
     0
300
1:8
140
1.0
141
8.0
290
     0
  0
SCALE
  5
4D
102
{ACAD_REACTORS
330
47
102
}
330
47
100
AcDbScale
 70
     0
300
1:10
140
1.0
141
10.0
290
     0
  0
SCALE
  5
4E
102
{ACAD_REACTORS
330
47
102
}
330
47
100
AcDbScale
 70
     0
300
1:16
140
1.0
141
16.0
290
     0
  0
SCALE
  5
4F
102
{ACAD_REACTORS
330
47
102
}
330
47
100
AcDbScale
 70
     0
300
1:20
140
1.0
141
20.0
290
     0
  0
SCALE
  5
50
102
{ACAD_REACTORS
330
47
102
}
330
47
100
AcDbScale
 70
     0
300
1:30
140
1.0
141
30.0
290
     0
  0
SCALE
  5
51
102
{ACAD_REACTORS
330
47
102
}
330
47
100
AcDbScale
 70
     0
300
1:40
140
1.0
141
40.0
290
     0
  0
SCALE
  5
52
102
{ACAD_REACTORS
330
47
102
}
330
47
100
AcDbScale
 70
     0
300
1:50
140
1.0
141
50.0
290
     0
  0
SCALE
  5
53
102
{ACAD_REACTORS
330
47
102
}
330
47
100
AcDbScale
 70
     0
300
1:100
140
1.0
141
100.0
290
     0
  0
SCALE
  5
54
102
{ACAD_REACTORS
330
47
102
}
330
47
100
AcDbScale
 70
     0
300
2:1
140
2.0
141
1.0
290
     0
  0
SCALE
  5
55
102
{ACAD_REACTORS
330
47
102
}
330
47
100
AcDbScale
 70
     0
300
4:1
140
4.0
141
1.0
290
     0
  0
SCALE
  5
56
102
{ACAD_REACTORS
330
47
102
}
330
47
100
AcDbScale
 70
     0
300
8:1
140
8.0
141
1.0
290
     0
  0
SCALE
  5
57
102
{ACAD_REACTORS
330
47
102
}
330
47
100
AcDbScale
 70
     0
300
10:1
140
10.0
141
1.0
290
     0
  0
SCALE
  5
58
102
{ACAD_REACTORS
330
47
102
}
330
47
100
AcDbScale
 70
     0
300
100:1
140
100.0
141
1.0
290
     0
  0
SCALE
  5
59
102
{ACAD_REACTORS
330
47
102
}
330
47
100
AcDbScale
 70
     0
300
1/128" = 1'-0"
140
0.0078125
141
12.0
290
     0
  0
SCALE
  5
5A
102
{ACAD_REACTORS
330
47
102
}
330
47
100
AcDbScale
 70
     0
300
1/64" = 1'-0"
140
0.015625
141
12.0
290
     0
  0
SCALE
  5
5B
102
{ACAD_REACTORS
330
47
102
}
330
47
100
AcDbScale
 70
     0
300
1/32" = 1'-0"
140
0.03125
141
12.0
290
     0
  0
SCALE
  5
5C
102
{ACAD_REACTORS
330
47
102
}
330
47
100
AcDbScale
 70
     0
300
1/16" = 1'-0"
140
0.0625
141
12.0
290
     0
  0
SCALE
  5
5D
102
{ACAD_REACTORS
330
47
102
}
330
47
100
AcDbScale
 70
     0
300
3/32" = 1'-0"
140
0.09375
141
12.0
290
     0
  0
SCALE
  5
5E
102
{ACAD_REACTORS
330
47
102
}
330
47
100
AcDbScale
 70
     0
300
1/8" = 1'-0"
140
0.125
141
12.0
290
     0
  0
SCALE
  5
5F
102
{ACAD_REACTORS
330
47
102
}
330
47
100
AcDbScale
 70
     0
300
3/16" = 1'-0"
140
0.1875
141
12.0
290
     0
  0
SCALE
  5
60
102
{ACAD_REACTORS
330
47
102
}
330
47
100
AcDbScale
 70
     0
300
1/4" = 1'-0"
140
0.25
141
12.0
290
     0
  0
SCALE
  5
61
102
{ACAD_REACTORS
330
47
102
}
330
47
100
AcDbScale
 70
     0
300
3/8" = 1'-0"
140
0.375
141
12.0
290
     0
  0
SCALE
  5
62
102
{ACAD_REACTORS
330
47
102
}
330
47
100
AcDbScale
 70
     0
300
1/2" = 1'-0"
140
0.5
141
12.0
290
     0
  0
SCALE
  5
63
102
{ACAD_REACTORS
330
47
102
}
330
47
100
AcDbScale
 70
     0
300
3/4" = 1'-0"
140
0.75
141
12.0
290
     0
  0
SCALE
  5
64
102
{ACAD_REACTORS
330
47
102
}
330
47
100
AcDbScale
 70
     0
300
1" = 1'-0"
140
1.0
141
12.0
290
     0
  0
SCALE
  5
65
102
{ACAD_REACTORS
330
47
102
}
330
47
100
AcDbScale
 70
     0
300
1-1/2" = 1'-0"
140
1.5
141
12.0
290
     0
  0
SCALE
  5
66
102
{ACAD_REACTORS
330
47
102
}
330
47
100
AcDbScale
 70
     0
300
3" = 1'-0"
140
3.0
141
12.0
290
     0
  0
SCALE
  5
67
102
{ACAD_REACTORS
330
47
102
}
330
47
100
AcDbScale
 70
     0
300
6" = 1'-0"
140
6.0
141
12.0
290
     0
  0
SCALE
  5
68
102
{ACAD_REACTORS
330
47
102
}
330
47
100
AcDbScale
 70
     0
300
1'-0" = 1'-0"
140
12.0
141
12.0
290
     0
  0
ENDSEC
  0
EOF
