  0
SECTION
  2
HEADER
  9
$ACADVER
  1
AC1015
  9
$ACADMAINTVER
 70
     6
  9
$DWGCODEPAGE
  3
ANSI_1251
  9
$INSBASE
 10
0.0
 20
0.0
 30
0.0
  9
$EXTMIN
 10
-2118.7921201766
 20
2416.2592135063
 30
0.0
  9
$EXTMAX
 10
-2013.3398291766
 20
2558.6191126534
 30
0.0
  9
$LIMMIN
 10
0.0
 20
0.0
  9
$LIMMAX
 10
420.0
 20
297.0
  9
$ORTHOMODE
 70
     0
  9
$REGENMODE
 70
     1
  9
$FILLMODE
 70
     1
  9
$QTEXTMODE
 70
     0
  9
$MIRRTEXT
 70
     1
  9
$LTSCALE
 40
1.0
  9
$ATTMODE
 70
     1
  9
$TEXTSIZE
 40
4.0
  9
$TRACEWID
 40
1.0
  9
$TEXTSTYLE
  7
Standard
  9
$CLAYER
  8
0
  9
$CELTYPE
  6
ByLayer
  9
$CECOLOR
 62
   256
  9
$CELTSCALE
 40
1.0
  9
$DISPSILH
 70
     0
  9
$DIMSCALE
 40
1.0
  9
$DIMASZ
 40
6.0
  9
$DIMEXO
 40
1.0
  9
$DIMDLI
 40
3.75
  9
$DIMRND
 40
0.0
  9
$DIMDLE
 40
0.0
  9
$DIMEXE
 40
1.0
  9
$DIMTP
 40
0.0
  9
$DIMTM
 40
0.0
  9
$DIMTXT
 40
4.0
  9
$DIMCEN
 40
2.5
  9
$DIMTSZ
 40
0.0
  9
$DIMTOL
 70
     0
  9
$DIMLIM
 70
     0
  9
$DIMTIH
 70
     1
  9
$DIMTOH
 70
     1
  9
$DIMSE1
 70
     0
  9
$DIMSE2
 70
     0
  9
$DIMTAD
 70
     1
  9
$DIMZIN
 70
     0
  9
$DIMBLK
  1

  9
$DIMASO
 70
     1
  9
$DIMSHO
 70
     1
  9
$DIMPOST
  1

  9
$DIMAPOST
  1

  9
$DIMALT
 70
     0
  9
$DIMALTD
 70
     3
  9
$DIMALTF
 40
0.0393700787
  9
$DIMLFAC
 40
1.0
  9
$DIMTOFL
 70
     1
  9
$DIMTVP
 40
0.0
  9
$DIMTIX
 70
     0
  9
$DIMSOXD
 70
     0
  9
$DIMSAH
 70
     0
  9
$DIMBLK1
  1

  9
$DIMBLK2
  1

  9
$DIMSTYLE
  2
ISO-25
  9
$DIMCLRD
 70
     0
  9
$DIMCLRE
 70
     0
  9
$DIMCLRT
 70
     0
  9
$DIMTFAC
 40
1.0
  9
$DIMGAP
 40
3.0
  9
$DIMJUST
 70
     0
  9
$DIMSD1
 70
     0
  9
$DIMSD2
 70
     0
  9
$DIMTOLJ
 70
     0
  9
$DIMTZIN
 70
     0
  9
$DIMALTZ
 70
     0
  9
$DIMALTTZ
 70
     0
  9
$DIMUPT
 70
     0
  9
$DIMDEC
 70
     2
  9
$DIMTDEC
 70
     4
  9
$DIMALTU
 70
     2
  9
$DIMALTTD
 70
     3
  9
$DIMTXSTY
  7
Standard
  9
$DIMAUNIT
 70
     0
  9
$DIMADEC
 70
     2
  9
$DIMALTRND
 40
0.0
  9
$DIMAZIN
 70
     0
  9
$DIMDSEP
 70
    44
  9
$DIMATFIT
 70
     3
  9
$DIMFRAC
 70
     0
  9
$DIMLDRBLK
  1

  9
$DIMLUNIT
 70
     2
  9
$DIMLWD
 70
    -2
  9
$DIMLWE
 70
    -2
  9
$DIMTMOVE
 70
     0
  9
$LUNITS
 70
     2
  9
$LUPREC
 70
     2
  9
$SKETCHINC
 40
1.0
  9
$FILLETRAD
 40
10.0
  9
$AUNITS
 70
     1
  9
$AUPREC
 70
     2
  9
$MENU
  1
.
  9
$ELEVATION
 40
0.0
  9
$PELEVATION
 40
0.0
  9
$THICKNESS
 40
0.0
  9
$LIMCHECK
 70
     0
  9
$CHAMFERA
 40
0.0
  9
$CHAMFERB
 40
0.0
  9
$CHAMFERC
 40
0.0
  9
$CHAMFERD
 40
0.0
  9
$SKPOLY
 70
     0
  9
$TDCREATE
 40
2460389.709356667
  9
$TDUCREATE
 40
2460389.626023334
  9
$TDUPDATE
 40
2460389.709419606
  9
$TDUUPDATE
 40
2460389.626086273
  9
$TDINDWG
 40
0.0000000116
  9
$TDUSRTIMER
 40
0.0000000116
  9
$USRTIMER
 70
     1
  9
$ANGBASE
 50
0.0
  9
$ANGDIR
 70
     0
  9
$PDMODE
 70
     0
  9
$PDSIZE
 40
-1.0
  9
$PLINEWID
 40
0.0
  9
$SPLFRAME
 70
     0
  9
$SPLINETYPE
 70
     6
  9
$SPLINESEGS
 70
     8
  9
$HANDSEED
  5
34A
  9
$SURFTAB1
 70
     6
  9
$SURFTAB2
 70
     6
  9
$SURFTYPE
 70
     6
  9
$SURFU
 70
     6
  9
$SURFV
 70
     6
  9
$UCSBASE
  2

  9
$UCSNAME
  2

  9
$UCSORG
 10
0.0
 20
0.0
 30
0.0
  9
$UCSXDIR
 10
1.0
 20
0.0
 30
0.0
  9
$UCSYDIR
 10
0.0
 20
1.0
 30
0.0
  9
$UCSORTHOREF
  2

  9
$UCSORTHOVIEW
 70
     0
  9
$UCSORGTOP
 10
0.0
 20
0.0
 30
0.0
  9
$UCSORGBOTTOM
 10
0.0
 20
0.0
 30
0.0
  9
$UCSORGLEFT
 10
0.0
 20
0.0
 30
0.0
  9
$UCSORGRIGHT
 10
0.0
 20
0.0
 30
0.0
  9
$UCSORGFRONT
 10
0.0
 20
0.0
 30
0.0
  9
$UCSORGBACK
 10
0.0
 20
0.0
 30
0.0
  9
$PUCSBASE
  2

  9
$PUCSNAME
  2

  9
$PUCSORG
 10
0.0
 20
0.0
 30
0.0
  9
$PUCSXDIR
 10
1.0
 20
0.0
 30
0.0
  9
$PUCSYDIR
 10
0.0
 20
1.0
 30
0.0
  9
$PUCSORTHOREF
  2

  9
$PUCSORTHOVIEW
 70
     0
  9
$PUCSORGTOP
 10
0.0
 20
0.0
 30
0.0
  9
$PUCSORGBOTTOM
 10
0.0
 20
0.0
 30
0.0
  9
$PUCSORGLEFT
 10
0.0
 20
0.0
 30
0.0
  9
$PUCSORGRIGHT
 10
0.0
 20
0.0
 30
0.0
  9
$PUCSORGFRONT
 10
0.0
 20
0.0
 30
0.0
  9
$PUCSORGBACK
 10
0.0
 20
0.0
 30
0.0
  9
$USERI1
 70
     0
  9
$USERI2
 70
     0
  9
$USERI3
 70
     0
  9
$USERI4
 70
     0
  9
$USERI5
 70
     0
  9
$USERR1
 40
0.0
  9
$USERR2
 40
0.0
  9
$USERR3
 40
0.0
  9
$USERR4
 40
0.0
  9
$USERR5
 40
0.0
  9
$WORLDVIEW
 70
     1
  9
$SHADEDGE
 70
     3
  9
$SHADEDIF
 70
    70
  9
$TILEMODE
 70
     1
  9
$MAXACTVP
 70
    64
  9
$PINSBASE
 10
0.0
 20
0.0
 30
0.0
  9
$PLIMCHECK
 70
     0
  9
$PEXTMIN
 10
1.0000000000E+20
 20
1.0000000000E+20
 30
1.0000000000E+20
  9
$PEXTMAX
 10
-1.0000000000E+20
 20
-1.0000000000E+20
 30
-1.0000000000E+20
  9
$PLIMMIN
 10
0.0
 20
0.0
  9
$PLIMMAX
 10
420.0
 20
297.0
  9
$UNITMODE
 70
     0
  9
$VISRETAIN
 70
     1
  9
$PLINEGEN
 70
     0
  9
$PSLTSCALE
 70
     1
  9
$TREEDEPTH
 70
  3020
  9
$CMLSTYLE
  2
Standard
  9
$CMLJUST
 70
     0
  9
$CMLSCALE
 40
20.0
  9
$PROXYGRAPHICS
 70
     1
  9
$MEASUREMENT
 70
     1
  9
$CELWEIGHT
370
    -1
  9
$ENDCAPS
280
     0
  9
$JOINSTYLE
280
     0
  9
$LWDISPLAY
290
     1
  9
$INSUNITS
 70
     4
  9
$HYPERLINKBASE
  1

  9
$STYLESHEET
  1

  9
$XEDIT
290
     1
  9
$CEPSNTYPE
380
     0
  9
$PSTYLEMODE
290
     1
  9
$FINGERPRINTGUID
  2
{86bd13e6-a94a-4fe0-9d4c-47b54872a458}
  9
$VERSIONGUID
  2
{FAEB1C32-E019-11D5-929B-00C0DF256EC4}
  9
$EXTNAMES
290
     1
  9
$PSVPSCALE
 40
0.0
  9
$OLESTARTUP
290
     0
  0
ENDSEC
  0
SECTION
  2
CLASSES
  0
CLASS
  1
ACDBDICTIONARYWDFLT
  2
AcDbDictionaryWithDefault
  3
ObjectDBX Classes
 90
        0
280
     0
281
     0
  0
CLASS
  1
VISUALSTYLE
  2
AcDbVisualStyle
  3
ObjectDBX Classes
 90
     4095
280
     0
281
     0
  0
CLASS
  1
MATERIAL
  2
AcDbMaterial
  3
ObjectDBX Classes
 90
     1153
280
     0
281
     0
  0
CLASS
  1
SCALE
  2
AcDbScale
  3
ObjectDBX Classes
 90
     1153
280
     0
281
     0
  0
CLASS
  1
TABLESTYLE
  2
AcDbTableStyle
  3
ObjectDBX Classes
 90
     4095
280
     0
281
     0
  0
CLASS
  1
MLEADERSTYLE
  2
AcDbMLeaderStyle
  3
ACDB_MLEADERSTYLE_CLASS
 90
     4095
280
     0
281
     0
  0
CLASS
  1
SUN
  2
AcDbSun
  3
SCENEOE
 90
     1153
280
     0
281
     0
  0
CLASS
  1
ACDBPLACEHOLDER
  2
AcDbPlaceHolder
  3
ObjectDBX Classes
 90
        0
280
     0
281
     0
  0
CLASS
  1
LAYOUT
  2
AcDbLayout
  3
ObjectDBX Classes
 90
        0
280
     0
281
     0
  0
ENDSEC
  0
SECTION
  2
TABLES
  0
TABLE
  2
VPORT
  5
8
330
0
100
AcDbSymbolTable
 70
     1
  0
VPORT
  5
29
330
8
100
AcDbSymbolTableRecord
100
AcDbViewportTableRecord
  2
*Active
 70
     0
 10
0.0
 20
0.0
 11
1.0
 21
1.0
 12
-2066.0659746766
 22
2487.4391630799
 13
0.0
 23
0.0
 14
10.0
 24
10.0
 15
10.0
 25
10.0
 16
0.0
 26
0.0
 36
1.0
 17
0.0
 27
0.0
 37
0.0
 40
145.20709713
 41
0.7407443503
 42
50.0
 43
0.0
 44
0.0
 50
0.0
 51
0.0
 71
     0
 72
   100
 73
     1
 74
     3
 75
     0
 76
     0
 77
     0
 78
     0
281
     0
 65
     1
110
0.0
120
0.0
130
0.0
111
1.0
121
0.0
131
0.0
112
0.0
122
1.0
132
0.0
 79
     0
146
0.0
  0
ENDTAB
  0
TABLE
  2
LTYPE
  5
5
330
0
100
AcDbSymbolTable
 70
     6
  0
LTYPE
  5
14
330
5
100
AcDbSymbolTableRecord
100
AcDbLinetypeTableRecord
  2
ByBlock
 70
     0
  3

 72
    65
 73
     0
 40
0.0
  0
LTYPE
  5
15
330
5
100
AcDbSymbolTableRecord
100
AcDbLinetypeTableRecord
  2
ByLayer
 70
     0
  3

 72
    65
 73
     0
 40
0.0
  0
LTYPE
  5
16
330
5
100
AcDbSymbolTableRecord
100
AcDbLinetypeTableRecord
  2
Continuous
 70
     0
  3
Solid line
 72
    65
 73
     0
 40
0.0
  0
LTYPE
  5
6E
330
5
100
AcDbSymbolTableRecord
100
AcDbLinetypeTableRecord
  2
HIDDEN
 70
     0
  3
Hidden __ __ __ __ __ __ __ __ __ __ __ __ __ __
 72
    65
 73
     2
 40
1.905
 49
1.27
 74
     0
 49
-0.635
 74
     0
  0
LTYPE
  5
6F
330
5
100
AcDbSymbolTableRecord
100
AcDbLinetypeTableRecord
  2
PHANTOM
 70
     0
  3
Phantom ______  __  __  ______  __  __  ______
 72
    65
 73
     6
 40
12.7
 49
6.35
 74
     0
 49
-1.27
 74
     0
 49
1.27
 74
     0
 49
-1.27
 74
     0
 49
1.27
 74
     0
 49
-1.27
 74
     0
  0
LTYPE
  5
70
330
5
100
AcDbSymbolTableRecord
100
AcDbLinetypeTableRecord
  2
CENTER
 70
     0
  3
Center ____ _ ____ _ ____ _ ____ _ ____ _ ____
 72
    65
 73
     4
 40
10.16
 49
6.35
 74
     0
 49
-1.27
 74
     0
 49
1.27
 74
     0
 49
-1.27
 74
     0
  0
LTYPE
  5
71
330
5
100
AcDbSymbolTableRecord
100
AcDbLinetypeTableRecord
  2
CENTERX2
 70
     0
  3
Center (2x) ________  __  ________  __  _____
 72
    65
 73
     4
 40
20.32
 49
12.7
 74
     0
 49
-2.54
 74
     0
 49
2.54
 74
     0
 49
-2.54
 74
     0
  0
LTYPE
  5
72
330
5
100
AcDbSymbolTableRecord
100
AcDbLinetypeTableRecord
  2
DOT2
 70
     0
  3
Dot (.5x) ........................................
 72
    65
 73
     2
 40
0.635
 49
0.0
 74
     0
 49
-0.635
 74
     0
  0
ENDTAB
  0
TABLE
  2
LAYER
  5
2
330
0
100
AcDbSymbolTable
 70
     1
  0
LAYER
  5
10
330
2
100
AcDbSymbolTableRecord
100
AcDbLayerTableRecord
  2
0
 70
     0
 62
     7
  6
Continuous
370
    -3
390
F
  0
ENDTAB
  0
TABLE
  2
STYLE
  5
3
330
0
100
AcDbSymbolTable
 70
     1
  0
STYLE
  5
11
330
3
100
AcDbSymbolTableRecord
100
AcDbTextStyleTableRecord
  2
Standard
 70
     0
 40
0.0
 41
1.0
 50
0.0
 71
     0
 42
4.0
  3
txt
  4

  0
ENDTAB
  0
TABLE
  2
VIEW
  5
6
330
0
100
AcDbSymbolTable
 70
     0
  0
ENDTAB
  0
TABLE
  2
UCS
  5
7
330
0
100
AcDbSymbolTable
 70
     0
  0
ENDTAB
  0
TABLE
  2
APPID
  5
9
330
0
100
AcDbSymbolTable
 70
     1
  0
APPID
  5
12
330
9
100
AcDbSymbolTableRecord
100
AcDbRegAppTableRecord
  2
ACAD
 70
     0
  0
ENDTAB
  0
TABLE
  2
DIMSTYLE
  5
A
330
0
100
AcDbSymbolTable
 70
     1
100
AcDbDimStyleTable
  0
DIMSTYLE
105
27
330
A
100
AcDbSymbolTableRecord
100
AcDbDimStyleTableRecord
  2
ISO-25
 70
     0
 41
2.5
 42
0.625
 43
3.75
 44
1.25
 73
     0
 74
     0
 77
     1
 78
     8
140
2.5
141
2.5
143
0.0393700787
147
0.625
171
     3
172
     1
178
     0
271
     2
272
     2
274
     3
278
    44
283
     0
284
     8
340
11
  0
ENDTAB
  0
TABLE
  2
BLOCK_RECORD
  5
1
330
0
100
AcDbSymbolTable
 70
     1
  0
BLOCK_RECORD
  5
1F
330
1
100
AcDbSymbolTableRecord
100
AcDbBlockTableRecord
  2
*Model_Space
340
22
  0
BLOCK_RECORD
  5
1B
330
1
100
AcDbSymbolTableRecord
100
AcDbBlockTableRecord
  2
*Paper_Space
340
1E
  0
BLOCK_RECORD
  5
23
330
1
100
AcDbSymbolTableRecord
100
AcDbBlockTableRecord
  2
*Paper_Space0
340
26
  0
ENDTAB
  0
ENDSEC
  0
SECTION
  2
BLOCKS
  0
BLOCK
  5
20
330
1F
100
AcDbEntity
  8
0
100
AcDbBlockBegin
  2
*Model_Space
 70
     0
 10
0.0
 20
0.0
 30
0.0
  3
*Model_Space
  1

  0
ENDBLK
  5
21
330
1F
100
AcDbEntity
  8
0
100
AcDbBlockEnd
  0
BLOCK
  5
1C
330
1B
100
AcDbEntity
 67
     1
  8
0
100
AcDbBlockBegin
  2
*Paper_Space
 70
     0
 10
0.0
 20
0.0
 30
0.0
  3
*Paper_Space
  1

  0
ENDBLK
  5
1D
330
1B
100
AcDbEntity
 67
     1
  8
0
100
AcDbBlockEnd
  0
BLOCK
  5
24
330
23
100
AcDbEntity
  8
0
100
AcDbBlockBegin
  2
*Paper_Space0
 70
     0
 10
0.0
 20
0.0
 30
0.0
  3
*Paper_Space0
  1

  0
ENDBLK
  5
25
330
23
100
AcDbEntity
  8
0
100
AcDbBlockEnd
  0
ENDSEC
  0
SECTION
  2
ENTITIES
  0
SPLINE
  5
73
330
1F
100
AcDbEntity
  8
0
  6
Continuous
 62
     7
370
    25
100
AcDbSpline
210
0.0
220
0.0
230
1.0
 70
     8
 71
     3
 72
    15
 73
    11
 74
     0
 42
0.000000001
 43
0.00000001
 40
0.0
 40
0.0
 40
0.0
 40
0.0
 40
0.1276094144620864
 40
0.2499167177708551
 40
0.3720143427042987
 40
0.5005763638076149
 40
0.6284293671556708
 40
0.7514974778096029
 40
0.8734901284089578
 40
1.0
 40
1.0
 40
1.0
 40
1.0
 10
-2052.970960713885
 20
2483.890295695519
 30
0.0
 10
-2052.973356087824
 20
2483.935093250455
 30
0.0
 10
-2052.97804730904
 20
2484.022827042989
 30
0.0
 10
-2053.016936622609
 20
2484.14862104452
 30
0.0
 10
-2053.07992724572
 20
2484.264103379183
 30
0.0
 10
-2053.166840609098
 20
2484.365346807489
 30
0.0
 10
-2053.268945701996
 20
2484.451634241196
 30
0.0
 10
-2053.384567941679
 20
2484.514487803701
 30
0.0
 10
-2053.510661687131
 20
2484.551685170578
 30
0.0
 10
-2053.597827249238
 20
2484.556674567784
 30
0.0
 10
-2053.642202267939
 20
2484.559214614438
 30
0.0
  0
SPLINE
  5
75
330
1F
100
AcDbEntity
  8
0
  6
Continuous
 62
     7
370
    25
100
AcDbSpline
210
0.0
220
0.0
230
1.0
 70
     8
 71
     3
 72
    15
 73
    11
 74
     0
 42
0.000000001
 43
0.00000001
 40
0.0
 40
0.0
 40
0.0
 40
0.0
 40
0.1097146503990102
 40
0.2209919735938078
 40
0.3382709755251258
 40
0.464733898615746
 40
0.5948009642718219
 40
0.7238485466785444
 40
0.8575872448702743
 40
1.0
 40
1.0
 40
1.0
 40
1.0
 10
-2054.012662571993
 20
2484.559214614438
 30
0.0
 10
-2054.048928539129
 20
2484.556943950027
 30
0.0
 10
-2054.121977011895
 20
2484.552370279986
 30
0.0
 10
-2054.228852368843
 20
2484.515552650275
 30
0.0
 10
-2054.329404465879
 20
2484.454344259147
 30
0.0
 10
-2054.423710338609
 20
2484.374044881496
 30
0.0
 10
-2054.505424139896
 20
2484.2752816778
 30
0.0
 10
-2054.564232800377
 20
2484.158701263264
 30
0.0
 10
-2054.60003352669
 20
2484.028653257821
 30
0.0
 10
-2054.60403319768
 20
2483.937370627495
 30
0.0
 10
-2054.60609584902
 20
2483.890295695519
 30
0.0
  0
SPLINE
  5
77
330
1F
100
AcDbEntity
  8
0
  6
Continuous
 62
     7
370
    25
100
AcDbSpline
210
0.0
220
0.0
230
1.0
 70
     8
 71
     3
 72
    15
 73
    11
 74
     0
 42
0.000000001
 43
0.00000001
 40
0.0
 40
0.0
 40
0.0
 40
0.0
 40
0.1435037183830702
 40
0.2760390562757941
 40
0.406061846474778
 40
0.5360582087399441
 40
0.6624523876220318
 40
0.779074019861132
 40
0.8891793093881557
 40
1.0
 40
1.0
 40
1.0
 40
1.0
 10
-2054.60609584902
 20
2480.917322722546
 30
0.0
 10
-2054.604128535616
 20
2480.869835310676
 30
0.0
 10
-2054.600344275935
 20
2480.778490079309
 30
0.0
 10
-2054.563691397952
 20
2480.648372110158
 30
0.0
 10
-2054.505834883318
 20
2480.531333227491
 30
0.0
 10
-2054.423602879635
 20
2480.432543789954
 30
0.0
 10
-2054.329784375955
 20
2480.351847941669
 30
0.0
 10
-2054.22877832824
 20
2480.292583107846
 30
0.0
 10
-2054.122488062157
 20
2480.254878492831
 30
0.0
 10
-2054.049350013766
 20
2480.250566687515
 30
0.0
 10
-2054.012662571993
 20
2480.248403803627
 30
0.0
  0
SPLINE
  5
79
330
1F
100
AcDbEntity
  8
0
  6
Continuous
 62
     7
370
    25
100
AcDbSpline
210
0.0
220
0.0
230
1.0
 70
     8
 71
     3
 72
    15
 73
    11
 74
     0
 42
0.000000001
 43
0.00000001
 40
0.0
 40
0.0
 40
0.0
 40
0.0
 40
0.1274982018433445
 40
0.2493845348782871
 40
0.3723453906958332
 40
0.4993842070425033
 40
0.6271257854821339
 40
0.7506154651217162
 40
0.872501798156666
 40
1.0
 40
1.0
 40
1.0
 40
1.0
 10
-2053.642202267939
 20
2480.248403803627
 30
0.0
 10
-2053.597442516739
 20
2480.250918827118
 30
0.0
 10
-2053.509893127235
 20
2480.255838174642
 30
0.0
 10
-2053.383333871876
 20
2480.293054824376
 30
0.0
 10
-2053.268281721899
 20
2480.356162072978
 30
0.0
 10
-2053.165150651794
 20
2480.440617989846
 30
0.0
 10
-2053.080042069422
 20
2480.543371606407
 30
0.0
 10
-2053.015404648043
 20
2480.658143811044
 30
0.0
 10
-2052.978463201094
 20
2480.785047848991
 30
0.0
 10
-2052.973498780862
 20
2480.872574563811
 30
0.0
 10
-2052.970960713885
 20
2480.917322722546
 30
0.0
  0
SPLINE
  5
7B
330
1F
100
AcDbEntity
  8
0
  6
Continuous
 62
     7
370
    25
100
AcDbSpline
210
0.0
220
0.0
230
1.0
 70
     8
 71
     3
 72
    23
 73
    19
 74
     0
 42
0.000000001
 43
0.00000001
 40
0.0
 40
0.0
 40
0.0
 40
0.0
 40
0.0596984677699009
 40
0.1182376316334196
 40
0.1758156760585397
 40
0.2340880145940187
 40
0.2926014098287261
 40
0.3524988403494492
 40
0.4143425792735466
 40
0.4790413569464386
 40
0.5438488242948504
 40
0.6077816006315226
 40
0.6708302096469072
 40
0.7340778404193581
 40
0.7981519974079091
 40
0.863330739089989
 40
0.9304699138440398
 40
1.0
 40
1.0
 40
1.0
 40
1.0
 10
-2052.302041794966
 20
2480.874353972546
 30
0.0
 10
-2052.303170221403
 20
2480.834426930558
 30
0.0
 10
-2052.305405161
 20
2480.755348202759
 30
0.0
 10
-2052.322851775667
 20
2480.638725460507
 30
0.0
 10
-2052.353871956344
 20
2480.526113059805
 30
0.0
 10
-2052.395330841744
 20
2480.416921028602
 30
0.0
 10
-2052.449471976448
 20
2480.311649342795
 30
0.0
 10
-2052.514947335524
 20
2480.210256863579
 30
0.0
 10
-2052.592057063322
 20
2480.112036157339
 30
0.0
 10
-2052.68066201998
 20
2480.019535206172
 30
0.0
 10
-2052.777301936123
 20
2479.9331929399
 30
0.0
 10
-2052.882549331718
 20
2479.859612536285
 30
0.0
 10
-2052.99183025399
 20
2479.794020209355
 30
0.0
 10
-2053.109114714638
 20
2479.743877713203
 30
0.0
 10
-2053.231093613973
 20
2479.702106554772
 30
0.0
 10
-2053.359879859646
 20
2479.675325227935
 30
0.0
 10
-2053.493793574386
 20
2479.656871745753
 30
0.0
 10
-2053.585231588163
 20
2479.654841891459
 30
0.0
 10
-2053.631750409831
 20
2479.653809209033
 30
0.0
  0
SPLINE
  5
7D
330
1F
100
AcDbEntity
  8
0
  6
Continuous
 62
     7
370
    25
100
AcDbSpline
210
0.0
220
0.0
230
1.0
 70
     8
 71
     3
 72
    23
 73
    19
 74
     0
 42
0.000000001
 43
0.00000001
 40
0.0
 40
0.0
 40
0.0
 40
0.0
 40
0.0651968273752613
 40
0.1284903554511307
 40
0.1911004981255768
 40
0.2525160380295086
 40
0.313736528917443
 40
0.3756297926528547
 40
0.4384931710491535
 40
0.5032476829196594
 40
0.567924961574226
 40
0.6305493581231075
 40
0.6920491304039813
 40
0.7524447192727033
 40
0.8129377656964502
 40
0.8738044202088519
 40
0.9359969093510054
 40
1.0
 40
1.0
 40
1.0
 40
1.0
 10
-2054.024275747669
 20
2479.653809209033
 30
0.0
 10
-2054.066522871774
 20
2479.654983700871
 30
0.0
 10
-2054.149783794301
 20
2479.657298397457
 30
0.0
 10
-2054.272704369258
 20
2479.673929831041
 30
0.0
 10
-2054.391154417543
 20
2479.701329009639
 30
0.0
 10
-2054.504438713985
 20
2479.741566024833
 30
0.0
 10
-2054.61333629662
 20
2479.791380405049
 30
0.0
 10
-2054.716754263778
 20
2479.853611448475
 30
0.0
 10
-2054.816242722598
 20
2479.925852656752
 30
0.0
 10
-2054.909255021538
 20
2480.009010707771
 30
0.0
 10
-2054.994717878068
 20
2480.099710499873
 30
0.0
 10
-2055.069220724707
 20
2480.196904448691
 30
0.0
 10
-2055.134066645199
 20
2480.297639292427
 30
0.0
 10
-2055.184749811599
 20
2480.404615085988
 30
0.0
 10
-2055.2265103584
 20
2480.51497681552
 30
0.0
 10
-2055.253418561904
 20
2480.631036981416
 30
0.0
 10
-2055.271919997072
 20
2480.751047824967
 30
0.0
 10
-2055.273973357398
 20
2480.832860651258
 30
0.0
 10
-2055.275014767939
 20
2480.874353972546
 30
0.0
  0
SPLINE
  5
7F
330
1F
100
AcDbEntity
  8
0
  6
Continuous
 62
     7
370
    25
100
AcDbSpline
210
0.0
220
0.0
230
1.0
 70
     8
 71
     3
 72
    23
 73
    19
 74
     0
 42
0.000000001
 43
0.00000001
 40
0.0
 40
0.0
 40
0.0
 40
0.0
 40
0.0640219079057573
 40
0.1262326819779715
 40
0.1865365373545975
 40
0.2470473690630244
 40
0.3074607145633647
 40
0.3689785681117854
 40
0.4316213765738655
 40
0.4963176707001272
 40
0.5610912207493294
 40
0.6243271406750763
 40
0.6867528751010468
 40
0.7479913651462796
 40
0.8094249615529815
 40
0.871471867685511
 40
0.9347840044028858
 40
1.0
 40
1.0
 40
1.0
 40
1.0
 10
-2055.275014767939
 20
2483.933264445519
 30
0.0
 10
-2055.273963641603
 20
2483.974755410668
 30
0.0
 10
-2055.27189112454
 20
2484.056563591337
 30
0.0
 10
-2055.253586245185
 20
2484.176235738704
 30
0.0
 10
-2055.226293720366
 20
2484.291813006668
 30
0.0
 10
-2055.184772382035
 20
2484.401847705597
 30
0.0
 10
-2055.134059415982
 20
2484.508814760292
 30
0.0
 10
-2055.069226812172
 20
2484.609559230114
 30
0.0
 10
-2054.994700375897
 20
2484.706722632406
 30
0.0
 10
-2054.909321034719
 20
2484.797538701596
 30
0.0
 10
-2054.815828011255
 20
2484.880416500709
 30
0.0
 10
-2054.71698533691
 20
2484.954534785565
 30
0.0
 10
-2054.612312071048
 20
2485.015830997196
 30
0.0
 10
-2054.503326330767
 20
2485.066143815857
 30
0.0
 10
-2054.390318120305
 20
2485.106063323229
 30
0.0
 10
-2054.272358800288
 20
2485.133852151915
 30
0.0
 10
-2054.149776370355
 20
2485.150290543206
 30
0.0
 10
-2054.066520372808
 20
2485.152624794839
 30
0.0
 10
-2054.024275747669
 20
2485.153809209033
 30
0.0
  0
SPLINE
  5
81
330
1F
100
AcDbEntity
  8
0
  6
Continuous
 62
     7
370
    25
100
AcDbSpline
210
0.0
220
0.0
230
1.0
 70
     8
 71
     3
 72
    23
 73
    19
 74
     0
 42
0.000000001
 43
0.00000001
 40
0.0
 40
0.0
 40
0.0
 40
0.0
 40
0.0695660886455632
 40
0.1367400278817923
 40
0.2020784391817768
 40
0.2654541770857272
 40
0.3289700421547148
 40
0.3917607770916677
 40
0.4560640589846524
 40
0.5209050834634977
 40
0.5856373619875855
 40
0.6478726413768989
 40
0.7078010866243221
 40
0.7663447799360209
 40
0.8241067595132511
 40
0.882273888201435
 40
0.9402706205257815
 40
1.0
 40
1.0
 40
1.0
 40
1.0
 10
-2053.631750409831
 20
2485.153809209033
 30
0.0
 10
-2053.585243317971
 20
2485.152730513601
 30
0.0
 10
-2053.493828360462
 20
2485.150610215534
 30
0.0
 10
-2053.359664297478
 20
2485.132799741266
 30
0.0
 10
-2053.231883148273
 20
2485.103712694548
 30
0.0
 10
-2053.109345452551
 20
2485.064322977693
 30
0.0
 10
-2052.993729490299
 20
2485.01175285443
 30
0.0
 10
-2052.882916467831
 20
2484.948505729157
 30
0.0
 10
-2052.77892718589
 20
2484.872983363837
 30
0.0
 10
-2052.681673691541
 20
2484.787093886289
 30
0.0
 10
-2052.593348069683
 20
2484.693997407144
 30
0.0
 10
-2052.514840703104
 20
2484.596599254479
 30
0.0
 10
-2052.449491607658
 20
2484.494771964151
 30
0.0
 10
-2052.395640886752
 20
2484.389813697278
 30
0.0
 10
-2052.353386995711
 20
2484.280888400406
 30
0.0
 10
-2052.323214867272
 20
2484.168419105544
 30
0.0
 10
-2052.305279701606
 20
2484.051909769259
 30
0.0
 10
-2052.303131635314
 20
2483.973199031446
 30
0.0
 10
-2052.302041794966
 20
2483.933264445519
 30
0.0
  0
SPLINE
  5
87
330
1F
100
AcDbEntity
  8
0
  6
Continuous
 62
     7
370
    25
100
AcDbSpline
210
0.0
220
0.0
230
1.0
 70
     8
 71
     3
 72
    15
 73
    11
 74
     0
 42
0.000000001
 43
0.00000001
 40
0.0
 40
0.0
 40
0.0
 40
0.0
 40
0.1264029572855339
 40
0.2376210961698724
 40
0.3451274771355381
 40
0.4525814031671352
 40
0.5653850372925461
 40
0.6938013651786148
 40
0.8358900427402279
 40
1.0
 40
1.0
 40
1.0
 40
1.0
 10
-2047.565724227398
 20
2479.617808364438
 30
0.0
 10
-2047.566882502025
 20
2479.597198804753
 30
0.0
 10
-2047.569059907464
 20
2479.558455516866
 30
0.0
 10
-2047.584190791661
 20
2479.503614946683
 30
0.0
 10
-2047.611609077952
 20
2479.457403625231
 30
0.0
 10
-2047.649674924383
 20
2479.418963693081
 30
0.0
 10
-2047.69979222402
 20
2479.391072010552
 30
0.0
 10
-2047.75900293261
 20
2479.370242199012
 30
0.0
 10
-2047.829352170786
 20
2479.359351115667
 30
0.0
 10
-2047.879248096966
 20
2479.357502626436
 30
0.0
 10
-2047.905990274696
 20
2479.356511911735
 30
0.0
  0
SPLINE
  5
88
330
1F
100
AcDbEntity
  8
0
  6
Continuous
 62
     7
370
    25
100
AcDbSpline
210
0.0
220
0.0
230
1.0
 70
     8
 71
     3
 72
    15
 73
    11
 74
     0
 42
0.000000001
 43
0.00000001
 40
0.0
 40
0.0
 40
0.0
 40
0.0
 40
0.1558000825475398
 40
0.2933664335182442
 40
0.4160028096424209
 40
0.5283380454780247
 40
0.6363337597611815
 40
0.7492426260629081
 40
0.8674075817596213
 40
1.0
 40
1.0
 40
1.0
 40
1.0
 10
-2047.905990274696
 20
2479.356511911735
 30
0.0
 10
-2047.92655746211
 20
2479.357088890115
 30
0.0
 10
-2047.965284799867
 20
2479.358175321436
 30
0.0
 10
-2048.019438517995
 20
2479.368529601374
 30
0.0
 10
-2048.065775980973
 20
2479.385723630203
 30
0.0
 10
-2048.104120982498
 20
2479.410492806408
 30
0.0
 10
-2048.134443537751
 20
2479.442989953242
 30
0.0
 10
-2048.155346887768
 20
2479.483119335043
 30
0.0
 10
-2048.166745686665
 20
2479.53010330917
 30
0.0
 10
-2048.168618878865
 20
2479.563164506554
 30
0.0
 10
-2048.169609362533
 20
2479.580646202276
 30
0.0
  0
SPLINE
  5
8C
330
1F
100
AcDbEntity
  8
0
  6
Continuous
 62
     7
370
    25
100
AcDbSpline
210
0.0
220
0.0
230
1.0
 70
     8
 71
     3
 72
    15
 73
    11
 74
     0
 42
0.000000001
 43
0.00000001
 40
0.0
 40
0.0
 40
0.0
 40
0.0
 40
0.1137041187720503
 40
0.2169428404674092
 40
0.3200287290343542
 40
0.4251741161265787
 40
0.5430984856672408
 40
0.6741923964392804
 40
0.8265563295142812
 40
1.0
 40
1.0
 40
1.0
 40
1.0
 10
-2050.254174396317
 20
2479.580646202276
 30
0.0
 10
-2050.255360386907
 20
2479.56311361384
 30
0.0
 10
-2050.257623208783
 20
2479.5296621472
 30
0.0
 10
-2050.273036547691
 20
2479.482133009778
 30
0.0
 10
-2050.300302931354
 20
2479.441815337123
 30
0.0
 10
-2050.339500971751
 20
2479.409367375358
 30
0.0
 10
-2050.389106837962
 20
2479.385684175444
 30
0.0
 10
-2050.448659007289
 20
2479.368206348347
 30
0.0
 10
-2050.518623158967
 20
2479.358222374326
 30
0.0
 10
-2050.568858812268
 20
2479.357106139382
 30
0.0
 10
-2050.595601761182
 20
2479.356511911735
 30
0.0
  0
SPLINE
  5
8D
330
1F
100
AcDbEntity
  8
0
  6
Continuous
 62
     7
370
    25
100
AcDbSpline
210
0.0
220
0.0
230
1.0
 70
     8
 71
     3
 72
    15
 73
    11
 74
     0
 42
0.000000001
 43
0.00000001
 40
0.0
 40
0.0
 40
0.0
 40
0.0
 40
0.1469070492110241
 40
0.2772755343188916
 40
0.3938111936935613
 40
0.5023339070865811
 40
0.6141965596110742
 40
0.7307322189857438
 40
0.8557984665798337
 40
1.0
 40
1.0
 40
1.0
 40
1.0
 10
-2050.595601761182
 20
2479.356511911735
 30
0.0
 10
-2050.616536396993
 20
2479.357550126214
 30
0.0
 10
-2050.656048880305
 20
2479.359509674621
 30
0.0
 10
-2050.711698677196
 20
2479.370037124854
 30
0.0
 10
-2050.758007571221
 20
2479.391741850028
 30
0.0
 10
-2050.797073569381
 20
2479.420372902292
 30
0.0
 10
-2050.827704279563
 20
2479.45818759251
 30
0.0
 10
-2050.84863385473
 20
2479.504599358386
 30
0.0
 10
-2050.859931201097
 20
2479.558826407153
 30
0.0
 10
-2050.861737480934
 20
2479.597237820536
 30
0.0
 10
-2050.862704801723
 20
2479.617808364438
 30
0.0
  0
SPLINE
  5
8F
330
1F
100
AcDbEntity
  8
0
  6
Continuous
 62
     7
370
    25
100
AcDbSpline
210
0.0
220
0.0
230
1.0
 70
     8
 71
     3
 72
    15
 73
    11
 74
     0
 42
0.000000001
 43
0.00000001
 40
0.0
 40
0.0
 40
0.0
 40
0.0
 40
0.1442015334201699
 40
0.2692677810142629
 40
0.3858034403889353
 40
0.4976660929134311
 40
0.6061888063064222
 40
0.7227244656810947
 40
0.8530929507889762
 40
1.0
 40
1.0
 40
1.0
 40
1.0
 10
-2050.862704801723
 20
2479.987107350924
 30
0.0
 10
-2050.861737480934
 20
2480.007677894826
 30
0.0
 10
-2050.859931201097
 20
2480.04608930821
 30
0.0
 10
-2050.84863385473
 20
2480.100316356976
 30
0.0
 10
-2050.827704279563
 20
2480.146728122852
 30
0.0
 10
-2050.797073569381
 20
2480.18454281307
 30
0.0
 10
-2050.758007571221
 20
2480.213173865334
 30
0.0
 10
-2050.711698677196
 20
2480.234878590508
 30
0.0
 10
-2050.656048880305
 20
2480.245406040741
 30
0.0
 10
-2050.616536396993
 20
2480.247365589149
 30
0.0
 10
-2050.595601761182
 20
2480.248403803627
 30
0.0
  0
SPLINE
  5
92
330
1F
100
AcDbEntity
  8
0
  6
Continuous
 62
     7
370
    25
100
AcDbSpline
210
0.0
220
0.0
230
1.0
 70
     8
 71
     3
 72
    15
 73
    11
 74
     0
 42
0.000000001
 43
0.00000001
 40
0.0
 40
0.0
 40
0.0
 40
0.0
 40
0.1442345664143162
 40
0.2721935918862927
 40
0.3895004132241611
 40
0.5007363879518998
 40
0.6129889005466908
 40
0.7315684031395158
 40
0.8573207973780923
 40
1.0
 40
1.0
 40
1.0
 40
1.0
 10
-2050.092751254425
 20
2484.981934209033
 30
0.0
 10
-2050.090129087064
 20
2485.001356910181
 30
0.0
 10
-2050.085180639751
 20
2485.038010639735
 30
0.0
 10
-2050.070842372666
 20
2485.089430385462
 30
0.0
 10
-2050.046575686252
 20
2485.131688252402
 30
0.0
 10
-2050.017575425209
 20
2485.168327917476
 30
0.0
 10
-2049.97884315916
 20
2485.195003166892
 30
0.0
 10
-2049.934433965455
 20
2485.2148686809
 30
0.0
 10
-2049.882770655726
 20
2485.226794752027
 30
0.0
 10
-2049.846231275175
 20
2485.227668898876
 30
0.0
 10
-2049.826809531452
 20
2485.228133533356
 30
0.0
  0
SPLINE
  5
94
330
1F
100
AcDbEntity
  8
0
  6
Continuous
 62
     7
370
    25
100
AcDbSpline
210
0.0
220
0.0
230
1.0
 70
     8
 71
     3
 72
    15
 73
    11
 74
     0
 42
0.000000001
 43
0.00000001
 40
0.0
 40
0.0
 40
0.0
 40
0.0
 40
0.1614740538086556
 40
0.3033294688029073
 40
0.4293020720699515
 40
0.5431364423939175
 40
0.6487510557946778
 40
0.7581294614989591
 40
0.8714443198697363
 40
1.0
 40
1.0
 40
1.0
 40
1.0
 10
-2048.283418484155
 20
2485.228133533356
 30
0.0
 10
-2048.257066104598
 20
2485.227115733756
 30
0.0
 10
-2048.207563084739
 20
2485.225203794315
 30
0.0
 10
-2048.137938699973
 20
2485.214547589921
 30
0.0
 10
-2048.0789275409
 20
2485.193500898353
 30
0.0
 10
-2048.029771373888
 20
2485.164742882539
 30
0.0
 10
-2047.992162923542
 20
2485.125560098586
 30
0.0
 10
-2047.965099274909
 20
2485.078641263627
 30
0.0
 10
-2047.949981548489
 20
2485.022688575515
 30
0.0
 10
-2047.947797320293
 20
2484.983187092024
 30
0.0
 10
-2047.946636389561
 20
2484.962191810384
 30
0.0
  0
SPLINE
  5
97
330
1F
100
AcDbEntity
  8
0
  6
Continuous
 62
     7
370
    25
100
AcDbSpline
210
0.0
220
0.0
230
1.0
 70
     8
 71
     3
 72
    15
 73
    11
 74
     0
 42
0.000000001
 43
0.00000001
 40
0.0
 40
0.0
 40
0.0
 40
0.0
 40
0.1641099572597725
 40
0.3061986348213956
 40
0.4346149627074668
 40
0.5474185968328568
 40
0.6548725228644559
 40
0.7623789038301234
 40
0.8735970427144639
 40
1.0
 40
1.0
 40
1.0
 40
1.0
 10
-2047.905990274696
 20
2480.248403803627
 30
0.0
 10
-2047.879248096966
 20
2480.247413088926
 30
0.0
 10
-2047.829352170786
 20
2480.245564599695
 30
0.0
 10
-2047.75900293261
 20
2480.23467351635
 30
0.0
 10
-2047.69979222402
 20
2480.21384370481
 30
0.0
 10
-2047.649674924383
 20
2480.185952022282
 30
0.0
 10
-2047.611609077952
 20
2480.147512090131
 30
0.0
 10
-2047.584190791661
 20
2480.10130076868
 30
0.0
 10
-2047.569059907464
 20
2480.046460198496
 30
0.0
 10
-2047.566882502025
 20
2480.007716910609
 30
0.0
 10
-2047.565724227398
 20
2479.987107350924
 30
0.0
  0
SPLINE
  5
99
330
1F
100
AcDbEntity
  8
0
  6
Continuous
 62
     7
370
    25
100
AcDbSpline
210
0.0
220
0.0
230
1.0
 70
     8
 71
     3
 72
    15
 73
    11
 74
     0
 42
0.000000001
 43
0.00000001
 40
0.0
 40
0.0
 40
0.0
 40
0.0
 40
0.1349177303379246
 40
0.2550287445570745
 40
0.3662847551474486
 40
0.4742189394177712
 40
0.5873325155521224
 40
0.7080066021143374
 40
0.8451209622209662
 40
1.0
 40
1.0
 40
1.0
 40
1.0
 10
-2039.542413416587
 20
2484.856511911735
 30
0.0
 10
-2039.543620201582
 20
2484.833216206043
 30
0.0
 10
-2039.545901331433
 20
2484.789181411199
 30
0.0
 10
-2039.560396916638
 20
2484.72700422363
 30
0.0
 10
-2039.587808192757
 20
2484.674540330414
 30
0.0
 10
-2039.626134126679
 20
2484.630924016251
 30
0.0
 10
-2039.676263197615
 20
2484.598618695656
 30
0.0
 10
-2039.736168056517
 20
2484.574998806469
 30
0.0
 10
-2039.806602985592
 20
2484.561502925532
 30
0.0
 10
-2039.857071362378
 20
2484.560007707482
 30
0.0
 10
-2039.883840781453
 20
2484.559214614438
 30
0.0
  0
SPLINE
  5
9B
330
1F
100
AcDbEntity
  8
0
  6
Continuous
 62
     7
370
    25
100
AcDbSpline
210
0.0
220
0.0
230
1.0
 70
     8
 71
     3
 72
    15
 73
    11
 74
     0
 42
0.000000001
 43
0.00000001
 40
0.0
 40
0.0
 40
0.0
 40
0.0
 40
0.1149354247297774
 40
0.2288707708169365
 40
0.3476177967011608
 40
0.4735492141811262
 40
0.6025588394228811
 40
0.7278916335685058
 40
0.8600067485935363
 40
1.0
 40
1.0
 40
1.0
 40
1.0
 10
-2040.841927774696
 20
2484.559214614438
 30
0.0
 10
-2040.880918505517
 20
2484.557047668169
 30
0.0
 10
-2040.958560700156
 20
2484.552732630711
 30
0.0
 10
-2041.071425060453
 20
2484.515389188768
 30
0.0
 10
-2041.17835837694
 20
2484.456653803482
 30
0.0
 10
-2041.275835773101
 20
2484.3751248618
 30
0.0
 10
-2041.361238356812
 20
2484.277532396105
 30
0.0
 10
-2041.42138681143
 20
2484.16029140614
 30
0.0
 10
-2041.460112805232
 20
2484.03016716467
 30
0.0
 10
-2041.46370645933
 20
2483.937810825035
 30
0.0
 10
-2041.465555308479
 20
2483.890295695519
 30
0.0
  0
SPLINE
  5
9D
330
1F
100
AcDbEntity
  8
0
  6
Continuous
 62
     7
370
    25
100
AcDbSpline
210
0.0
220
0.0
230
1.0
 70
     8
 71
     3
 72
    15
 73
    11
 74
     0
 42
0.000000001
 43
0.00000001
 40
0.0
 40
0.0
 40
0.0
 40
0.0
 40
0.1409979526999627
 40
0.2715745442824291
 40
0.3983312247206615
 40
0.5264808775378861
 40
0.6531757505703492
 40
0.770258373369425
 40
0.8851746440773959
 40
1.0
 40
1.0
 40
1.0
 40
1.0
 10
-2041.465555308479
 20
2480.917322722546
 30
0.0
 10
-2041.46363442192
 20
2480.869454717866
 30
0.0
 10
-2041.459934624286
 20
2480.777256701457
 30
0.0
 10
-2041.422673167662
 20
2480.646171576519
 30
0.0
 10
-2041.361162651401
 20
2480.529910485979
 30
0.0
 10
-2041.277071363571
 20
2480.430536545412
 30
0.0
 10
-2041.178877041269
 20
2480.35039415339
 30
0.0
 10
-2041.071785233468
 20
2480.291832683511
 30
0.0
 10
-2040.95889023574
 20
2480.255033780978
 30
0.0
 10
-2040.880904974773
 20
2480.250613212966
 30
0.0
 10
-2040.841927774696
 20
2480.248403803627
 30
0.0
  0
SPLINE
  5
9F
330
1F
100
AcDbEntity
  8
0
  6
Continuous
 62
     7
370
    25
100
AcDbSpline
210
0.0
220
0.0
230
1.0
 70
     8
 71
     3
 72
    15
 73
    11
 74
     0
 42
0.000000001
 43
0.00000001
 40
0.0
 40
0.0
 40
0.0
 40
0.0
 40
0.1548790377790404
 40
0.2919933978856751
 40
0.4126674844478952
 40
0.5257810605822513
 40
0.6337152448525785
 40
0.7449712554429573
 40
0.8650822696621123
 40
1.0
 40
1.0
 40
1.0
 40
1.0
 10
-2039.883840781453
 20
2480.248403803627
 30
0.0
 10
-2039.857071362378
 20
2480.247610710583
 30
0.0
 10
-2039.806602985592
 20
2480.246115492533
 30
0.0
 10
-2039.736168056517
 20
2480.232619611597
 30
0.0
 10
-2039.676263197615
 20
2480.208999722409
 30
0.0
 10
-2039.626134126679
 20
2480.176694401814
 30
0.0
 10
-2039.587808192757
 20
2480.133078087651
 30
0.0
 10
-2039.560396916638
 20
2480.080614194435
 30
0.0
 10
-2039.545901331433
 20
2480.018437006866
 30
0.0
 10
-2039.543620201582
 20
2479.974402212022
 30
0.0
 10
-2039.542413416587
 20
2479.95110650633
 30
0.0
  0
SPLINE
  5
A0
330
1F
100
AcDbEntity
  8
0
  6
Continuous
 62
     7
370
    25
100
AcDbSpline
210
0.0
220
0.0
230
1.0
 70
     8
 71
     3
 72
    15
 73
    11
 74
     0
 42
0.000000001
 43
0.00000001
 40
0.0
 40
0.0
 40
0.0
 40
0.0
 40
0.1349177303379246
 40
0.2550287445570745
 40
0.3662847551474486
 40
0.4742189394177712
 40
0.5873325155521224
 40
0.7080066021143374
 40
0.8451209622209662
 40
1.0
 40
1.0
 40
1.0
 40
1.0
 10
-2039.542413416587
 20
2479.95110650633
 30
0.0
 10
-2039.543620201582
 20
2479.927810800637
 30
0.0
 10
-2039.545901331433
 20
2479.883776005794
 30
0.0
 10
-2039.560396916638
 20
2479.821598818225
 30
0.0
 10
-2039.587808192757
 20
2479.769134925009
 30
0.0
 10
-2039.626134126679
 20
2479.725518610846
 30
0.0
 10
-2039.676263197615
 20
2479.693213290251
 30
0.0
 10
-2039.736168056517
 20
2479.669593401063
 30
0.0
 10
-2039.806602985592
 20
2479.656097520126
 30
0.0
 10
-2039.857071362378
 20
2479.654602302076
 30
0.0
 10
-2039.883840781453
 20
2479.653809209033
 30
0.0
  0
SPLINE
  5
A2
330
1F
100
AcDbEntity
  8
0
  6
Continuous
 62
     7
370
    25
100
AcDbSpline
210
0.0
220
0.0
230
1.0
 70
     8
 71
     3
 72
    23
 73
    19
 74
     0
 42
0.000000001
 43
0.00000001
 40
0.0
 40
0.0
 40
0.0
 40
0.0
 40
0.0636792225567351
 40
0.1260706403090723
 40
0.1877884128189508
 40
0.2486942415156922
 40
0.3106504428495271
 40
0.3731862596610888
 40
0.4370721628481209
 40
0.5027572666284796
 40
0.5685610952128027
 40
0.6313045945878147
 40
0.6928901336675474
 40
0.754009183879161
 40
0.8140574441550914
 40
0.8743449816747405
 40
0.9363207774432593
 40
1.0
 40
1.0
 40
1.0
 40
1.0
 10
-2040.841927774696
 20
2479.653809209033
 30
0.0
 10
-2040.88378368468
 20
2479.655008482888
 30
0.0
 10
-2040.96664903951
 20
2479.65738277731
 30
0.0
 10
-2041.089231975741
 20
2479.673814870488
 30
0.0
 10
-2041.207743547931
 20
2479.701804330086
 30
0.0
 10
-2041.322881527875
 20
2479.740534802412
 30
0.0
 10
-2041.434388679151
 20
2479.790213169485
 30
0.0
 10
-2041.541568637244
 20
2479.852592130512
 30
0.0
 10
-2041.645151484183
 20
2479.924967022876
 30
0.0
 10
-2041.744638355437
 20
2480.006439944699
 30
0.0
 10
-2041.834855654883
 20
2480.097029630234
 30
0.0
 10
-2041.915137787317
 20
2480.193034804321
 30
0.0
 10
-2041.982883020705
 20
2480.294661287468
 30
0.0
 10
-2042.038568920834
 20
2480.401319771378
 30
0.0
 10
-2042.082254726427
 20
2480.51260223584
 30
0.0
 10
-2042.112123667949
 20
2480.628843832825
 30
0.0
 10
-2042.131575656042
 20
2480.749822710405
 30
0.0
 10
-2042.133499344199
 20
2480.83247008551
 30
0.0
 10
-2042.134474227398
 20
2480.874353972546
 30
0.0
  0
SPLINE
  5
A5
330
1F
100
AcDbEntity
  8
0
  6
Continuous
 62
     7
370
    25
100
AcDbSpline
210
0.0
220
0.0
230
1.0
 70
     8
 71
     3
 72
    15
 73
    11
 74
     0
 42
0.000000001
 43
0.00000001
 40
0.0
 40
0.0
 40
0.0
 40
0.0
 40
0.1548790377790404
 40
0.2919933978856751
 40
0.4126674844478952
 40
0.5257810605822513
 40
0.6337152448525785
 40
0.7449712554429573
 40
0.8650822696621123
 40
1.0
 40
1.0
 40
1.0
 40
1.0
 10
-2039.883840781453
 20
2485.153809209033
 30
0.0
 10
-2039.857071362378
 20
2485.153016115988
 30
0.0
 10
-2039.806602985592
 20
2485.151520897938
 30
0.0
 10
-2039.736168056517
 20
2485.138025017002
 30
0.0
 10
-2039.676263197615
 20
2485.114405127815
 30
0.0
 10
-2039.626134126679
 20
2485.082099807219
 30
0.0
 10
-2039.587808192757
 20
2485.038483493056
 30
0.0
 10
-2039.560396916638
 20
2484.98601959984
 30
0.0
 10
-2039.545901331433
 20
2484.923842412272
 30
0.0
 10
-2039.543620201582
 20
2484.879807617428
 30
0.0
 10
-2039.542413416587
 20
2484.856511911735
 30
0.0
  0
SPLINE
  5
A6
330
1F
100
AcDbEntity
  8
0
  6
Continuous
 62
     7
370
    25
100
AcDbSpline
210
0.0
220
0.0
230
1.0
 70
     8
 71
     3
 72
    23
 73
    19
 74
     0
 42
0.000000001
 43
0.00000001
 40
0.0
 40
0.0
 40
0.0
 40
0.0
 40
0.0636946562228189
 40
0.125103254463927
 40
0.1859753988458893
 40
0.24603821276681
 40
0.3066503712076514
 40
0.3682508365161906
 40
0.4310095427699891
 40
0.4968293199522616
 40
0.5629069775514947
 40
0.6268083644969403
 40
0.6895808951679891
 40
0.7512601910859612
 40
0.8127393982939801
 40
0.8738988044785992
 40
0.9363053437771754
 40
1.0
 40
1.0
 40
1.0
 40
1.0
 10
-2042.134474227398
 20
2483.933264445519
 30
0.0
 10
-2042.133534216144
 20
2483.975154113683
 30
0.0
 10
-2042.131687931479
 20
2484.057429992484
 30
0.0
 10
-2042.111816006661
 20
2484.178324459778
 30
0.0
 10
-2042.082445271684
 20
2484.294665972655
 30
0.0
 10
-2042.038848351133
 20
2484.406066413187
 30
0.0
 10
-2041.982536197087
 20
2484.511999748672
 30
0.0
 10
-2041.915169380943
 20
2484.6134322151
 30
0.0
 10
-2041.834890840415
 20
2484.709473546937
 30
0.0
 10
-2041.744279097732
 20
2484.799986759664
 30
0.0
 10
-2041.64545185521
 20
2484.882561550535
 30
0.0
 10
-2041.54175611508
 20
2484.955712083478
 30
0.0
 10
-2041.433010678309
 20
2485.015052105417
 30
0.0
 10
-2041.322713390247
 20
2485.068077140853
 30
0.0
 10
-2041.207150900862
 20
2485.105216770239
 30
0.0
 10
-2041.08891751523
 20
2485.134045217399
 30
0.0
 10
-2040.96663362681
 20
2485.150186196697
 30
0.0
 10
-2040.883778512245
 20
2485.152593341968
 30
0.0
 10
-2040.841927774696
 20
2485.153809209033
 30
0.0
  0
SPLINE
  5
AB
330
1F
100
AcDbEntity
  8
0
  6
Continuous
 62
     7
370
    25
100
AcDbSpline
210
0.0
220
0.0
230
1.0
 70
     8
 71
     3
 72
    15
 73
    11
 74
     0
 42
0.000000001
 43
0.00000001
 40
0.0
 40
0.0
 40
0.0
 40
0.0
 40
0.1160972656461918
 40
0.2306624149131658
 40
0.3402033629093777
 40
0.4508640089780914
 40
0.5714067874389185
 40
0.7001904132460137
 40
0.8420906465168223
 40
1.0
 40
1.0
 40
1.0
 40
1.0
 10
-2037.552611896317
 20
2479.844265290114
 30
0.0
 10
-2037.557418999082
 20
2479.829290209375
 30
0.0
 10
-2037.566969766071
 20
2479.799537671557
 30
0.0
 10
-2037.591751963125
 20
2479.760285234001
 30
0.0
 10
-2037.622654685535
 20
2479.727060989426
 30
0.0
 10
-2037.659742907525
 20
2479.699255345801
 30
0.0
 10
-2037.704266553854
 20
2479.679132916301
 30
0.0
 10
-2037.754908597389
 20
2479.663480154833
 30
0.0
 10
-2037.812549731194
 20
2479.656247350584
 30
0.0
 10
-2037.852994598781
 20
2479.65465034826
 30
0.0
 10
-2037.874296862533
 20
2479.653809209033
 30
0.0
  0
SPLINE
  5
AC
330
1F
100
AcDbEntity
  8
0
  6
Continuous
 62
     7
370
    25
100
AcDbSpline
210
0.0
220
0.0
230
1.0
 70
     8
 71
     3
 72
    15
 73
    11
 74
     0
 42
0.000000001
 43
0.00000001
 40
0.0
 40
0.0
 40
0.0
 40
0.0
 40
0.1494489483192981
 40
0.2804162969478413
 40
0.39833998519567
 40
0.5106686208066205
 40
0.6187215803246113
 40
0.7328059652649387
 40
0.858495735931471
 40
1.0
 40
1.0
 40
1.0
 40
1.0
 10
-2037.874296862533
 20
2479.653809209033
 30
0.0
 10
-2037.895688924425
 20
2479.654114047931
 30
0.0
 10
-2037.93582759952
 20
2479.654686027835
 30
0.0
 10
-2037.991326871574
 20
2479.668348723525
 30
0.0
 10
-2038.039594697164
 20
2479.687403018818
 30
0.0
 10
-2038.078423887556
 20
2479.717078543768
 30
0.0
 10
-2038.108708716977
 20
2479.754533849751
 30
0.0
 10
-2038.129600266947
 20
2479.800006685758
 30
0.0
 10
-2038.14239244542
 20
2479.853255497294
 30
0.0
 10
-2038.144021250794
 20
2479.891413482419
 30
0.0
 10
-2038.144883855776
 20
2479.911621709032
 30
0.0
  0
SPLINE
  5
AD
330
1F
100
AcDbEntity
  8
0
  6
Continuous
 62
     7
370
    25
100
AcDbSpline
210
0.0
220
0.0
230
1.0
 70
     8
 71
     3
 72
     9
 73
     5
 74
     0
 42
0.000000001
 43
0.00000001
 40
0.0
 40
0.0
 40
0.0
 40
0.0
 40
0.4666082467570076
 40
1.0
 40
1.0
 40
1.0
 40
1.0
 10
-2038.144883855776
 20
2479.911621709032
 30
0.0
 10
-2038.14440305131
 20
2479.923656507223
 30
0.0
 10
-2038.143372627029
 20
2479.949448589282
 30
0.0
 10
-2038.138299356107
 20
2479.974765067689
 30
0.0
 10
-2038.135593315236
 20
2479.988268668492
 30
0.0
  0
SPLINE
  5
AF
330
1F
100
AcDbEntity
  8
0
  6
Continuous
 62
     7
370
    25
100
AcDbSpline
210
0.0
220
0.0
230
1.0
 70
     8
 71
     3
 72
    11
 73
     7
 74
     0
 42
0.000000001
 43
0.00000001
 40
0.0
 40
0.0
 40
0.0
 40
0.0
 40
0.2872048350150619
 40
0.5292209857219792
 40
0.7570217140402771
 40
1.0
 40
1.0
 40
1.0
 40
1.0
 10
-2036.788464936858
 20
2484.926190965789
 30
0.0
 10
-2036.777772605034
 20
2484.9604587167
 30
0.0
 10
-2036.758070268243
 20
2485.023602545439
 30
0.0
 10
-2036.699548410894
 20
2485.099695818883
 30
0.0
 10
-2036.621282458357
 20
2485.147215496304
 30
0.0
 10
-2036.562270819202
 20
2485.151564567869
 30
0.0
 10
-2036.531813754425
 20
2485.153809209033
 30
0.0
  0
SPLINE
  5
B0
330
1F
100
AcDbEntity
  8
0
  6
Continuous
 62
     7
370
    25
100
AcDbSpline
210
0.0
220
0.0
230
1.0
 70
     8
 71
     3
 72
    15
 73
    11
 74
     0
 42
0.000000001
 43
0.00000001
 40
0.0
 40
0.0
 40
0.0
 40
0.0
 40
0.1449966807026391
 40
0.2785627095269343
 40
0.4015672591726349
 40
0.51796667545876
 40
0.63399499808113
 40
0.7483070616182039
 40
0.869427275072482
 40
1.0
 40
1.0
 40
1.0
 40
1.0
 10
-2036.531813754425
 20
2485.153809209033
 30
0.0
 10
-2036.510881107461
 20
2485.153149370459
 30
0.0
 10
-2036.470666015449
 20
2485.151881710951
 30
0.0
 10
-2036.413154992626
 20
2485.142049701638
 30
0.0
 10
-2036.362719963837
 20
2485.122631247177
 30
0.0
 10
-2036.317100715994
 20
2485.098529782837
 30
0.0
 10
-2036.279010762698
 20
2485.065500699367
 30
0.0
 10
-2036.246329091335
 20
2485.026312473318
 30
0.0
 10
-2036.22212112928
 20
2484.978860006793
 30
0.0
 10
-2036.211166524438
 20
2484.944181439073
 30
0.0
 10
-2036.205483517939
 20
2484.926190965789
 30
0.0
  0
SPLINE
  5
B2
330
1F
100
AcDbEntity
  8
0
  6
Continuous
 62
     7
370
    25
100
AcDbSpline
210
0.0
220
0.0
230
1.0
 70
     8
 71
     3
 72
     9
 73
     5
 74
     0
 42
0.000000001
 43
0.00000001
 40
0.0
 40
0.0
 40
0.0
 40
0.0
 40
0.5188677278480883
 40
1.0
 40
1.0
 40
1.0
 40
1.0
 10
-2034.859516457128
 20
2479.988268668492
 30
0.0
 10
-2034.856157708424
 20
2479.975158265438
 30
0.0
 10
-2034.849684481197
 20
2479.949890933611
 30
0.0
 10
-2034.846129665367
 20
2479.924053116626
 30
0.0
 10
-2034.84441932875
 20
2479.911621709032
 30
0.0
  0
SPLINE
  5
B3
330
1F
100
AcDbEntity
  8
0
  6
Continuous
 62
     7
370
    25
100
AcDbSpline
210
0.0
220
0.0
230
1.0
 70
     8
 71
     3
 72
    15
 73
    11
 74
     0
 42
0.000000001
 43
0.00000001
 40
0.0
 40
0.0
 40
0.0
 40
0.0
 40
0.123779485266873
 40
0.235445542937216
 40
0.3406927178488756
 40
0.4462594699381121
 40
0.5620718480008036
 40
0.6894502587040471
 40
0.8339864943265682
 40
1.0
 40
1.0
 40
1.0
 40
1.0
 10
-2034.84441932875
 20
2479.911621709032
 30
0.0
 10
-2034.845484420289
 20
2479.891365484539
 30
0.0
 10
-2034.84751037035
 20
2479.852835369767
 30
0.0
 10
-2034.864113407653
 20
2479.79907211743
 30
0.0
 10
-2034.8913746228
 20
2479.753314344853
 30
0.0
 10
-2034.930468165008
 20
2479.716194086807
 30
0.0
 10
-2034.97993491974
 20
2479.686843353638
 30
0.0
 10
-2035.040818406879
 20
2479.668226363729
 30
0.0
 10
-2035.11131091146
 20
2479.654666086368
 30
0.0
 10
-2035.162152029885
 20
2479.654107707105
 30
0.0
 10
-2035.189330646317
 20
2479.653809209033
 30
0.0
  0
SPLINE
  5
B4
330
1F
100
AcDbEntity
  8
0
  6
Continuous
 62
     7
370
    25
100
AcDbSpline
210
0.0
220
0.0
230
1.0
 70
     8
 71
     3
 72
    11
 73
     7
 74
     0
 42
0.000000001
 43
0.00000001
 40
0.0
 40
0.0
 40
0.0
 40
0.0
 40
0.265939187499587
 40
0.5003589885931911
 40
0.7349007245721245
 40
0.9999999999999999
 40
0.9999999999999999
 40
0.9999999999999999
 40
0.9999999999999999
 10
-2035.189330646317
 20
2479.653809209033
 30
0.0
 10
-2035.220020848902
 20
2479.655480955797
 30
0.0
 10
-2035.277763819654
 20
2479.658626312176
 30
0.0
 10
-2035.354837902017
 20
2479.697550755637
 30
0.0
 10
-2035.413594392079
 20
2479.760729961402
 30
0.0
 10
-2035.432478405661
 20
2479.815307543941
 30
0.0
 10
-2035.442497876047
 20
2479.844265290114
 30
0.0
  0
SPLINE
  5
B8
330
1F
100
AcDbEntity
  8
0
  6
Continuous
 62
     7
370
    25
100
AcDbSpline
210
0.0
220
0.0
230
1.0
 70
     8
 71
     3
 72
    15
 73
    11
 74
     0
 42
0.000000001
 43
0.00000001
 40
0.0
 40
0.0
 40
0.0
 40
0.0
 40
0.1548790377790404
 40
0.2919933978856751
 40
0.4126674844478952
 40
0.5257810605822513
 40
0.6337152448525785
 40
0.7449712554429573
 40
0.8650822696621123
 40
1.0
 40
1.0
 40
1.0
 40
1.0
 10
-2043.867624565236
 20
2480.248403803627
 30
0.0
 10
-2043.840855146162
 20
2480.247610710583
 30
0.0
 10
-2043.790386769376
 20
2480.246115492533
 30
0.0
 10
-2043.719951840302
 20
2480.232619611597
 30
0.0
 10
-2043.660046981399
 20
2480.208999722409
 30
0.0
 10
-2043.609917910464
 20
2480.176694401814
 30
0.0
 10
-2043.571591976541
 20
2480.133078087651
 30
0.0
 10
-2043.544180700421
 20
2480.080614194435
 30
0.0
 10
-2043.529685115216
 20
2480.018437006866
 30
0.0
 10
-2043.527403985365
 20
2479.974402212022
 30
0.0
 10
-2043.526197200371
 20
2479.95110650633
 30
0.0
  0
SPLINE
  5
B9
330
1F
100
AcDbEntity
  8
0
  6
Continuous
 62
     7
370
    25
100
AcDbSpline
210
0.0
220
0.0
230
1.0
 70
     8
 71
     3
 72
    15
 73
    11
 74
     0
 42
0.000000001
 43
0.00000001
 40
0.0
 40
0.0
 40
0.0
 40
0.0
 40
0.1349177303379246
 40
0.2550287445570745
 40
0.3662847551474486
 40
0.4742189394177712
 40
0.5873325155521224
 40
0.7080066021143374
 40
0.8451209622209662
 40
1.0
 40
1.0
 40
1.0
 40
1.0
 10
-2043.526197200371
 20
2479.95110650633
 30
0.0
 10
-2043.527403985365
 20
2479.927810800637
 30
0.0
 10
-2043.529685115216
 20
2479.883776005794
 30
0.0
 10
-2043.544180700421
 20
2479.821598818225
 30
0.0
 10
-2043.571591976541
 20
2479.769134925009
 30
0.0
 10
-2043.609917910464
 20
2479.725518610846
 30
0.0
 10
-2043.660046981399
 20
2479.693213290251
 30
0.0
 10
-2043.719951840302
 20
2479.669593401063
 30
0.0
 10
-2043.790386769376
 20
2479.656097520126
 30
0.0
 10
-2043.840855146162
 20
2479.654602302076
 30
0.0
 10
-2043.867624565236
 20
2479.653809209033
 30
0.0
  0
SPLINE
  5
BB
330
1F
100
AcDbEntity
  8
0
  6
Continuous
 62
     7
370
    25
100
AcDbSpline
210
0.0
220
0.0
230
1.0
 70
     8
 71
     3
 72
    15
 73
    11
 74
     0
 42
0.000000001
 43
0.00000001
 40
0.0
 40
0.0
 40
0.0
 40
0.0
 40
0.1528612850162651
 40
0.2874697277135633
 40
0.4083171843914741
 40
0.5197330343307317
 40
0.6278222855466393
 40
0.7415060099345971
 40
0.8623534666125018
 40
1.0
 40
1.0
 40
1.0
 40
1.0
 10
-2045.820960713884
 20
2479.653809209033
 30
0.0
 10
-2045.84422363508
 20
2479.654823086577
 30
0.0
 10
-2045.887971701315
 20
2479.656729776696
 30
0.0
 10
-2045.9495596105
 20
2479.667493665087
 30
0.0
 10
-2046.001756835563
 20
2479.688602173224
 30
0.0
 10
-2046.044917026483
 20
2479.718071824637
 30
0.0
 10
-2046.078889837063
 20
2479.756609815959
 30
0.0
 10
-2046.101670104084
 20
2479.804067380571
 30
0.0
 10
-2046.116170808863
 20
2479.859293610702
 30
0.0
 10
-2046.117532773175
 20
2479.8987438898
 30
0.0
 10
-2046.118258011182
 20
2479.919750932005
 30
0.0
  0
SPLINE
  5
BE
330
1F
100
AcDbEntity
  8
0
  6
Continuous
 62
     7
370
    25
100
AcDbSpline
210
0.0
220
0.0
230
1.0
 70
     8
 71
     3
 72
    15
 73
    11
 74
     0
 42
0.000000001
 43
0.00000001
 40
0.0
 40
0.0
 40
0.0
 40
0.0
 40
0.1376465333874982
 40
0.2584939900654028
 40
0.3721777144533606
 40
0.4802669656692684
 40
0.5916828156085259
 40
0.7125302722864367
 40
0.8471387149837349
 40
1.0
 40
1.0
 40
1.0
 40
1.0
 10
-2046.118258011182
 20
2484.887867486059
 30
0.0
 10
-2046.117532773175
 20
2484.908874528265
 30
0.0
 10
-2046.116170808863
 20
2484.948324807364
 30
0.0
 10
-2046.101670104084
 20
2485.003551037494
 30
0.0
 10
-2046.078889837063
 20
2485.051008602106
 30
0.0
 10
-2046.044917026483
 20
2485.089546593428
 30
0.0
 10
-2046.001756835563
 20
2485.119016244841
 30
0.0
 10
-2045.9495596105
 20
2485.140124752978
 30
0.0
 10
-2045.887971701315
 20
2485.150888641369
 30
0.0
 10
-2045.84422363508
 20
2485.152795331488
 30
0.0
 10
-2045.820960713884
 20
2485.153809209033
 30
0.0
  0
SPLINE
  5
C0
330
1F
100
AcDbEntity
  8
0
  6
Continuous
 62
     7
370
    25
100
AcDbSpline
210
0.0
220
0.0
230
1.0
 70
     8
 71
     3
 72
    15
 73
    11
 74
     0
 42
0.000000001
 43
0.00000001
 40
0.0
 40
0.0
 40
0.0
 40
0.0
 40
0.1548790377790404
 40
0.2919933978856751
 40
0.4126674844478952
 40
0.5257810605822513
 40
0.6337152448525785
 40
0.7449712554429573
 40
0.8650822696621123
 40
1.0
 40
1.0
 40
1.0
 40
1.0
 10
-2043.867624565236
 20
2485.153809209033
 30
0.0
 10
-2043.840855146162
 20
2485.153016115988
 30
0.0
 10
-2043.790386769376
 20
2485.151520897938
 30
0.0
 10
-2043.719951840302
 20
2485.138025017002
 30
0.0
 10
-2043.660046981399
 20
2485.114405127815
 30
0.0
 10
-2043.609917910464
 20
2485.082099807219
 30
0.0
 10
-2043.571591976541
 20
2485.038483493056
 30
0.0
 10
-2043.544180700421
 20
2484.98601959984
 30
0.0
 10
-2043.529685115216
 20
2484.923842412272
 30
0.0
 10
-2043.527403985365
 20
2484.879807617428
 30
0.0
 10
-2043.526197200371
 20
2484.856511911735
 30
0.0
  0
SPLINE
  5
C1
330
1F
100
AcDbEntity
  8
0
  6
Continuous
 62
     7
370
    25
100
AcDbSpline
210
0.0
220
0.0
230
1.0
 70
     8
 71
     3
 72
    15
 73
    11
 74
     0
 42
0.000000001
 43
0.00000001
 40
0.0
 40
0.0
 40
0.0
 40
0.0
 40
0.1349177303379246
 40
0.2550287445570745
 40
0.3662847551474486
 40
0.4742189394177712
 40
0.5873325155521224
 40
0.7080066021143374
 40
0.8451209622209662
 40
1.0
 40
1.0
 40
1.0
 40
1.0
 10
-2043.526197200371
 20
2484.856511911735
 30
0.0
 10
-2043.527403985365
 20
2484.833216206043
 30
0.0
 10
-2043.529685115216
 20
2484.789181411199
 30
0.0
 10
-2043.544180700421
 20
2484.72700422363
 30
0.0
 10
-2043.571591976541
 20
2484.674540330414
 30
0.0
 10
-2043.609917910464
 20
2484.630924016251
 30
0.0
 10
-2043.660046981399
 20
2484.598618695656
 30
0.0
 10
-2043.719951840302
 20
2484.574998806469
 30
0.0
 10
-2043.790386769376
 20
2484.561502925532
 30
0.0
 10
-2043.840855146162
 20
2484.560007707482
 30
0.0
 10
-2043.867624565236
 20
2484.559214614438
 30
0.0
  0
SPLINE
  5
C5
330
1F
100
AcDbEntity
  8
0
  6
Continuous
 62
     7
370
    25
100
AcDbSpline
210
0.0
220
0.0
230
1.0
 70
     8
 71
     3
 72
    15
 73
    11
 74
     0
 42
0.000000001
 43
0.00000001
 40
0.0
 40
0.0
 40
0.0
 40
0.0
 40
0.1548790377790337
 40
0.2919933978856626
 40
0.4126674844478776
 40
0.5257810605822288
 40
0.6337152448525514
 40
0.7449712554429255
 40
0.8650822696620755
 40
1.0
 40
1.0
 40
1.0
 40
1.0
 10
-2044.636416794966
 20
2482.924079479303
 30
0.0
 10
-2044.609647375892
 20
2482.923286386258
 30
0.0
 10
-2044.559178999106
 20
2482.921791168209
 30
0.0
 10
-2044.488744070031
 20
2482.908295287272
 30
0.0
 10
-2044.428839211128
 20
2482.884675398085
 30
0.0
 10
-2044.378710140193
 20
2482.852370077489
 30
0.0
 10
-2044.34038420627
 20
2482.808753763326
 30
0.0
 10
-2044.312972930151
 20
2482.75628987011
 30
0.0
 10
-2044.298477344946
 20
2482.694112682542
 30
0.0
 10
-2044.296196215096
 20
2482.650077887698
 30
0.0
 10
-2044.294989430101
 20
2482.626782182006
 30
0.0
  0
SPLINE
  5
C6
330
1F
100
AcDbEntity
  8
0
  6
Continuous
 62
     7
370
    25
100
AcDbSpline
210
0.0
220
0.0
230
1.0
 70
     8
 71
     3
 72
    15
 73
    11
 74
     0
 42
0.000000001
 43
0.00000001
 40
0.0
 40
0.0
 40
0.0
 40
0.0
 40
0.1349177303378877
 40
0.2550287445570427
 40
0.3662847551474215
 40
0.4742189394177488
 40
0.5873325155521049
 40
0.708006602114325
 40
0.8451209622209597
 40
1.0
 40
1.0
 40
1.0
 40
1.0
 10
-2044.294989430101
 20
2482.626782182006
 30
0.0
 10
-2044.296196215095
 20
2482.603486476313
 30
0.0
 10
-2044.298477344946
 20
2482.559451681469
 30
0.0
 10
-2044.312972930151
 20
2482.4972744939
 30
0.0
 10
-2044.34038420627
 20
2482.444810600684
 30
0.0
 10
-2044.378710140193
 20
2482.401194286522
 30
0.0
 10
-2044.428839211128
 20
2482.368888965926
 30
0.0
 10
-2044.488744070031
 20
2482.345269076739
 30
0.0
 10
-2044.559178999106
 20
2482.331773195802
 30
0.0
 10
-2044.609647375892
 20
2482.330277977752
 30
0.0
 10
-2044.636416794966
 20
2482.329484884709
 30
0.0
  0
CIRCLE
  5
C8
330
1F
100
AcDbEntity
  8
0
  6
Continuous
 62
     7
370
    25
100
AcDbCircle
 10
-2033.5706389611
 20
2476.2885475807
 30
0.0
 40
1.5
  0
CIRCLE
  5
C9
330
1F
100
AcDbEntity
  8
0
  6
Continuous
 62
     7
370
    25
100
AcDbCircle
 10
-2033.5706389611
 20
2476.2885475807
 30
0.0
 40
0.7500000000004547
  0
SPLINE
  5
188
330
1F
100
AcDbEntity
  8
0
  6
Continuous
 62
     7
370
    25
100
AcDbSpline
210
0.0
220
0.0
230
1.0
 70
     8
 71
     3
 72
     8
 73
     4
 74
     0
 42
0.000000001
 43
0.00000001
 40
0.0328358208955224
 40
0.0328358208955224
 40
0.0328358208955224
 40
0.0328358208955224
 40
0.0358208955223881
 40
0.0358208955223881
 40
0.0358208955223881
 40
0.0358208955223881
 10
-2046.629577176593
 20
2554.691510653436
 30
0.0
 10
-2046.565061176593
 20
2554.660395653436
 30
0.0
 10
-2046.467271176592
 20
2554.626740653436
 30
0.0
 10
-2046.371513176593
 20
2554.595244653436
 30
0.0
  0
SPLINE
  5
1D1
330
1F
100
AcDbEntity
  8
0
  6
Continuous
 62
     7
370
    25
100
AcDbSpline
210
0.0
220
0.0
230
1.0
 70
     8
 71
     3
 72
     8
 73
     4
 74
     0
 42
0.000000001
 43
0.00000001
 40
0.2537313432835821
 40
0.2537313432835821
 40
0.2537313432835821
 40
0.2537313432835821
 40
0.2567164179104477
 40
0.2567164179104477
 40
0.2567164179104477
 40
0.2567164179104477
 10
-2018.661891176593
 20
2482.303161653436
 30
0.0
 10
-2019.148047176593
 20
2482.238772653436
 30
0.0
 10
-2019.602199176592
 20
2482.141617653436
 30
0.0
 10
-2020.089117176592
 20
2482.141617653436
 30
0.0
  0
SPLINE
  5
1D2
330
1F
100
AcDbEntity
  8
0
  6
Continuous
 62
     7
370
    25
100
AcDbSpline
210
0.0
220
0.0
230
1.0
 70
     8
 71
     3
 72
     8
 73
     4
 74
     0
 42
0.000000001
 43
0.00000001
 40
0.2567164179104477
 40
0.2567164179104477
 40
0.2567164179104477
 40
0.2567164179104477
 40
0.2597014925373134
 40
0.2597014925373134
 40
0.2597014925373134
 40
0.2597014925373134
 10
-2020.089117176592
 20
2482.141617653436
 30
0.0
 10
-2020.769964176593
 20
2482.141617653436
 30
0.0
 10
-2021.483450176593
 20
2482.467626653436
 30
0.0
 10
-2022.132674176593
 20
2482.303161653436
 30
0.0
  0
SPLINE
  5
1D3
330
1F
100
AcDbEntity
  8
0
  6
Continuous
 62
     7
370
    25
100
AcDbSpline
210
0.0
220
0.0
230
1.0
 70
     8
 71
     3
 72
     8
 73
     4
 74
     0
 42
0.000000001
 43
0.00000001
 40
0.2597014925373134
 40
0.2597014925373134
 40
0.2597014925373134
 40
0.2597014925373134
 40
0.2626865671641791
 40
0.2626865671641791
 40
0.2626865671641791
 40
0.2626865671641791
 10
-2022.132674176593
 20
2482.303161653436
 30
0.0
 10
-2022.976208176593
 20
2482.108851653436
 30
0.0
 10
-2023.559519176593
 20
2481.363742653436
 30
0.0
 10
-2024.371938176593
 20
2481.135269653436
 30
0.0
  0
SPLINE
  5
1D4
330
1F
100
AcDbEntity
  8
0
  6
Continuous
 62
     7
370
    25
100
AcDbSpline
210
0.0
220
0.0
230
1.0
 70
     8
 71
     3
 72
     8
 73
     4
 74
     0
 42
0.000000001
 43
0.00000001
 40
0.2626865671641791
 40
0.2626865671641791
 40
0.2626865671641791
 40
0.2626865671641791
 40
0.2656716417910448
 40
0.2656716417910448
 40
0.2656716417910448
 40
0.2656716417910448
 10
-2024.371938176593
 20
2481.135269653436
 30
0.0
 10
-2024.955376176593
 20
2480.941467653436
 30
0.0
 10
-2025.668989176593
 20
2481.363742653436
 30
0.0
 10
-2026.252681176593
 20
2481.135269653436
 30
0.0
  0
SPLINE
  5
1D5
330
1F
100
AcDbEntity
  8
0
  6
Continuous
 62
     7
370
    25
100
AcDbSpline
210
0.0
220
0.0
230
1.0
 70
     8
 71
     3
 72
     8
 73
     4
 74
     0
 42
0.000000001
 43
0.00000001
 40
0.2656716417910448
 40
0.2656716417910448
 40
0.2656716417910448
 40
0.2656716417910448
 40
0.2686567164179104
 40
0.2686567164179104
 40
0.2686567164179104
 40
0.2686567164179104
 10
-2026.252681176593
 20
2481.135269653436
 30
0.0
 10
-2027.195529176593
 20
2480.746395653436
 30
0.0
 10
-2027.842848176593
 20
2479.773702653436
 30
0.0
 10
-2028.784426176593
 20
2479.417213653436
 30
0.0
  0
SPLINE
  5
1D6
330
1F
100
AcDbEntity
  8
0
  6
Continuous
 62
     7
370
    25
100
AcDbSpline
210
0.0
220
0.0
230
1.0
 70
     8
 71
     3
 72
     8
 73
     4
 74
     0
 42
0.000000001
 43
0.00000001
 40
0.2686567164179104
 40
0.2686567164179104
 40
0.2686567164179104
 40
0.2686567164179104
 40
0.2716417910447761
 40
0.2716417910447761
 40
0.2716417910447761
 40
0.2716417910447761
 10
-2028.784426176593
 20
2479.417213653436
 30
0.0
 10
-2029.433269176593
 20
2479.188359653436
 30
0.0
 10
-2030.179267176593
 20
2479.610507653436
 30
0.0
 10
-2030.861384176593
 20
2479.417213653436
 30
0.0
  0
SPLINE
  5
1D7
330
1F
100
AcDbEntity
  8
0
  6
Continuous
 62
     7
370
    25
100
AcDbSpline
210
0.0
220
0.0
230
1.0
 70
     8
 71
     3
 72
     8
 73
     4
 74
     0
 42
0.000000001
 43
0.00000001
 40
0.2716417910447761
 40
0.2716417910447761
 40
0.2716417910447761
 40
0.2716417910447761
 40
0.2746268656716418
 40
0.2746268656716418
 40
0.2746268656716418
 40
0.2746268656716418
 10
-2030.861384176593
 20
2479.417213653436
 30
0.0
 10
-2033.618427176593
 20
2478.604667653436
 30
0.0
 10
-2031.737049176593
 20
2477.665248653436
 30
0.0
 10
-2031.704029176593
 20
2476.009295653436
 30
0.0
  0
SPLINE
  5
1D8
330
1F
100
AcDbEntity
  8
0
  6
Continuous
 62
     7
370
    25
100
AcDbSpline
210
0.0
220
0.0
230
1.0
 70
     8
 71
     3
 72
     8
 73
     4
 74
     0
 42
0.000000001
 43
0.00000001
 40
0.2746268656716418
 40
0.2746268656716418
 40
0.2746268656716418
 40
0.2746268656716418
 40
0.2776119402985074
 40
0.2776119402985074
 40
0.2776119402985074
 40
0.2776119402985074
 10
-2031.704029176593
 20
2476.009295653436
 30
0.0
 10
-2031.640402176593
 20
2473.836960653436
 30
0.0
 10
-2031.704029176593
 20
2469.682155653436
 30
0.0
 10
-2034.559370176593
 20
2469.162852653436
 30
0.0
  0
SPLINE
  5
1D9
330
1F
100
AcDbEntity
  8
0
  6
Continuous
 62
     7
370
    25
100
AcDbSpline
210
0.0
220
0.0
230
1.0
 70
     8
 71
     3
 72
     8
 73
     4
 74
     0
 42
0.000000001
 43
0.00000001
 40
0.2776119402985074
 40
0.2776119402985074
 40
0.2776119402985074
 40
0.2776119402985074
 40
0.2805970149253731
 40
0.2805970149253731
 40
0.2805970149253731
 40
0.2805970149253731
 10
-2034.559370176593
 20
2469.162852653436
 30
0.0
 10
-2035.273364176593
 20
2469.064427653436
 30
0.0
 10
-2035.403285176593
 20
2470.588808653436
 30
0.0
 10
-2036.116771176593
 20
2470.719999653436
 30
0.0
  0
SPLINE
  5
1DA
330
1F
100
AcDbEntity
  8
0
  6
Continuous
 62
     7
370
    25
100
AcDbSpline
210
0.0
220
0.0
230
1.0
 70
     8
 71
     3
 72
     8
 73
     4
 74
     0
 42
0.000000001
 43
0.00000001
 40
0.2805970149253731
 40
0.2805970149253731
 40
0.2805970149253731
 40
0.2805970149253731
 40
0.2835820895522388
 40
0.2835820895522388
 40
0.2835820895522388
 40
0.2835820895522388
 10
-2036.116771176593
 20
2470.719999653436
 30
0.0
 10
-2036.538284176593
 20
2470.785150653436
 30
0.0
 10
-2036.700971176593
 20
2469.941616653436
 30
0.0
 10
-2036.603689176593
 20
2469.519468653436
 30
0.0
  0
SPLINE
  5
1DB
330
1F
100
AcDbEntity
  8
0
  6
Continuous
 62
     7
370
    25
100
AcDbSpline
210
0.0
220
0.0
230
1.0
 70
     8
 71
     3
 72
     8
 73
     4
 74
     0
 42
0.000000001
 43
0.00000001
 40
0.2835820895522388
 40
0.2835820895522388
 40
0.2835820895522388
 40
0.2835820895522388
 40
0.2865671641791045
 40
0.2865671641791045
 40
0.2865671641791045
 40
0.2865671641791045
 10
-2036.603689176593
 20
2469.519468653436
 30
0.0
 10
-2036.507169176592
 20
2469.000927653436
 30
0.0
 10
-2035.760409176592
 20
2468.838113653436
 30
0.0
 10
-2035.598484176593
 20
2468.318810653436
 30
0.0
  0
SPLINE
  5
1DC
330
1F
100
AcDbEntity
  8
0
  6
Continuous
 62
     7
370
    25
100
AcDbSpline
210
0.0
220
0.0
230
1.0
 70
     8
 71
     3
 72
     8
 73
     4
 74
     0
 42
0.000000001
 43
0.00000001
 40
0.2865671641791045
 40
0.2865671641791045
 40
0.2865671641791045
 40
0.2865671641791045
 40
0.2895522388059701
 40
0.2895522388059701
 40
0.2895522388059701
 40
0.2895522388059701
 10
-2035.598484176593
 20
2468.318810653436
 30
0.0
 10
-2034.819466176593
 20
2465.787827653436
 30
0.0
 10
-2036.829876176593
 20
2464.490903653436
 30
0.0
 10
-2037.998784176593
 20
2462.511608653436
 30
0.0
  0
SPLINE
  5
1DD
330
1F
100
AcDbEntity
  8
0
  6
Continuous
 62
     7
370
    25
100
AcDbSpline
210
0.0
220
0.0
230
1.0
 70
     8
 71
     3
 72
     8
 73
     4
 74
     0
 42
0.000000001
 43
0.00000001
 40
0.2895522388059701
 40
0.2895522388059701
 40
0.2895522388059701
 40
0.2895522388059701
 40
0.2925373134328358
 40
0.2925373134328358
 40
0.2925373134328358
 40
0.2925373134328358
 10
-2037.998784176593
 20
2462.511608653436
 30
0.0
 10
-2038.161344176593
 20
2462.219762653436
 30
0.0
 10
-2041.405940176593
 20
2455.177231653436
 30
0.0
 10
-2042.087676176593
 20
2456.541973653436
 30
0.0
  0
SPLINE
  5
1DE
330
1F
100
AcDbEntity
  8
0
  6
Continuous
 62
     7
370
    25
100
AcDbSpline
210
0.0
220
0.0
230
1.0
 70
     8
 71
     3
 72
     8
 73
     4
 74
     0
 42
0.000000001
 43
0.00000001
 40
0.2925373134328358
 40
0.2925373134328358
 40
0.2925373134328358
 40
0.2925373134328358
 40
0.2955223880597015
 40
0.2955223880597015
 40
0.2955223880597015
 40
0.2955223880597015
 10
-2042.087676176593
 20
2456.541973653436
 30
0.0
 10
-2042.509824176593
 20
2457.384110653436
 30
0.0
 10
-2041.113967176593
 20
2459.006916653436
 30
0.0
 10
-2041.210868176593
 20
2459.947605653436
 30
0.0
  0
SPLINE
  5
1DF
330
1F
100
AcDbEntity
  8
0
  6
Continuous
 62
     7
370
    25
100
AcDbSpline
210
0.0
220
0.0
230
1.0
 70
     8
 71
     3
 72
     8
 73
     4
 74
     0
 42
0.000000001
 43
0.00000001
 40
0.2955223880597015
 40
0.2955223880597015
 40
0.2955223880597015
 40
0.2955223880597015
 40
0.2985074626865671
 40
0.2985074626865671
 40
0.2985074626865671
 40
0.2985074626865671
 10
-2041.210868176593
 20
2459.947605653436
 30
0.0
 10
-2041.276273176593
 20
2460.370261653436
 30
0.0
 10
-2041.827961176593
 20
2460.499293653436
 30
0.0
 10
-2042.087676176593
 20
2460.822635653436
 30
0.0
  0
SPLINE
  5
1E0
330
1F
100
AcDbEntity
  8
0
  6
Continuous
 62
     7
370
    25
100
AcDbSpline
210
0.0
220
0.0
230
1.0
 70
     8
 71
     3
 72
     8
 73
     4
 74
     0
 42
0.000000001
 43
0.00000001
 40
0.3014925373134328
 40
0.3014925373134328
 40
0.3014925373134328
 40
0.3014925373134328
 40
0.3044776119402985
 40
0.3044776119402985
 40
0.3044776119402985
 40
0.3044776119402985
 10
-2043.450767176593
 20
2462.868986653436
 30
0.0
 10
-2043.547668176593
 20
2463.322757653436
 30
0.0
 10
-2042.930575176593
 20
2463.743635653436
 30
0.0
 10
-2042.930575176593
 20
2464.231061653436
 30
0.0
  0
SPLINE
  5
1E1
330
1F
100
AcDbEntity
  8
0
  6
Continuous
 62
     7
370
    25
100
AcDbSpline
210
0.0
220
0.0
230
1.0
 70
     8
 71
     3
 72
     8
 73
     4
 74
     0
 42
0.000000001
 43
0.00000001
 40
0.3044776119402985
 40
0.3044776119402985
 40
0.3044776119402985
 40
0.3044776119402985
 40
0.3074626865671642
 40
0.3074626865671642
 40
0.3074626865671642
 40
0.3074626865671642
 10
-2042.930575176593
 20
2464.231061653436
 30
0.0
 10
-2042.930575176593
 20
2466.469436653436
 30
0.0
 10
-2045.234355176593
 20
2465.691942653436
 30
0.0
 10
-2046.013881176593
 20
2466.956862653436
 30
0.0
  0
SPLINE
  5
1E2
330
1F
100
AcDbEntity
  8
0
  6
Continuous
 62
     7
370
    25
100
AcDbSpline
210
0.0
220
0.0
230
1.0
 70
     8
 71
     3
 72
     8
 73
     4
 74
     0
 42
0.000000001
 43
0.00000001
 40
0.3074626865671642
 40
0.3074626865671642
 40
0.3074626865671642
 40
0.3074626865671642
 40
0.3104477611940298
 40
0.3104477611940298
 40
0.3104477611940298
 40
0.3104477611940298
 10
-2046.013881176593
 20
2466.956862653436
 30
0.0
 10
-2046.481513707734
 20
2467.753324770844
 30
0.0
 10
-2045.470820150398
 20
2470.837339311581
 30
0.0
 10
-2047.23522474482
 20
2470.843295891601
 30
0.0
  0
SPLINE
  5
1E3
330
1F
100
AcDbEntity
  8
0
  6
Continuous
 62
     7
370
    25
100
AcDbSpline
210
0.0
220
0.0
230
1.0
 70
     8
 71
     3
 72
     8
 73
     4
 74
     0
 42
0.000000001
 43
0.00000001
 40
0.3104477611940298
 40
0.3104477611940298
 40
0.3104477611940298
 40
0.3104477611940298
 40
0.3134328358208955
 40
0.3134328358208955
 40
0.3134328358208955
 40
0.3134328358208955
 10
-2047.23522474482
 20
2470.843295891601
 30
0.0
 10
-2047.39478822134
 20
2470.814286841258
 30
0.0
 10
-2045.736641882499
 20
2468.213726175774
 30
0.0
 10
-2046.741957306174
 20
2468.13009203165
 30
0.0
  0
SPLINE
  5
1E4
330
1F
100
AcDbEntity
  8
0
  6
Continuous
 62
     7
370
    25
100
AcDbSpline
210
0.0
220
0.0
230
1.0
 70
     8
 71
     3
 72
     8
 73
     4
 74
     0
 42
0.000000001
 43
0.00000001
 40
0.3134328358208955
 40
0.3134328358208955
 40
0.3134328358208955
 40
0.3134328358208955
 40
0.3164179104477612
 40
0.3164179104477612
 40
0.3164179104477612
 40
0.3164179104477612
 10
-2046.741957306174
 20
2468.13009203165
 30
0.0
 10
-2048.923965077572
 20
2467.992870490455
 30
0.0
 10
-2048.378865991791
 20
2473.940952634931
 30
0.0
 10
-2051.883497987393
 20
2470.916079494256
 30
0.0
  0
SPLINE
  5
1E5
330
1F
100
AcDbEntity
  8
0
  6
Continuous
 62
     7
370
    25
100
AcDbSpline
210
0.0
220
0.0
230
1.0
 70
     8
 71
     3
 72
     8
 73
     4
 74
     0
 42
0.000000001
 43
0.00000001
 40
0.3164179104477612
 40
0.3164179104477612
 40
0.3164179104477612
 40
0.3164179104477612
 40
0.3194029850746269
 40
0.3194029850746269
 40
0.3194029850746269
 40
0.3194029850746269
 10
-2051.883497987393
 20
2470.916079494256
 30
0.0
 10
-2055.628061996938
 20
2468.902651527168
 30
0.0
 10
-2052.241746762197
 20
2464.665275715449
 30
0.0
 10
-2050.056122912481
 20
2462.958712584892
 30
0.0
  0
SPLINE
  5
1E6
330
1F
100
AcDbEntity
  8
0
  6
Continuous
 62
     7
370
    25
100
AcDbSpline
210
0.0
220
0.0
230
1.0
 70
     8
 71
     3
 72
     8
 73
     4
 74
     0
 42
0.000000001
 43
0.00000001
 40
0.3194029850746269
 40
0.3194029850746269
 40
0.3194029850746269
 40
0.3194029850746269
 40
0.3223880597014925
 40
0.3223880597014925
 40
0.3223880597014925
 40
0.3223880597014925
 10
-2050.056122912481
 20
2462.958712584892
 30
0.0
 10
-2048.535062271238
 20
2462.375908122265
 30
0.0
 10
-2046.321551320586
 20
2463.807327906932
 30
0.0
 10
-2044.813223176593
 20
2462.350953653436
 30
0.0
  0
SPLINE
  5
1E7
330
1F
100
AcDbEntity
  8
0
  6
Continuous
 62
     7
370
    25
100
AcDbSpline
210
0.0
220
0.0
230
1.0
 70
     8
 71
     3
 72
     8
 73
     4
 74
     0
 42
0.000000001
 43
0.00000001
 40
0.3223880597014925
 40
0.3223880597014925
 40
0.3223880597014925
 40
0.3223880597014925
 40
0.3253731343283582
 40
0.3253731343283582
 40
0.3253731343283582
 40
0.3253731343283582
 10
-2044.813223176593
 20
2462.350953653436
 30
0.0
 10
-2044.391202176593
 20
2461.666677653436
 30
0.0
 10
-2044.716068176593
 20
2460.726877653436
 30
0.0
 10
-2044.456480176593
 20
2459.947605653436
 30
0.0
  0
SPLINE
  5
1E8
330
1F
100
AcDbEntity
  8
0
  6
Continuous
 62
     7
370
    25
100
AcDbSpline
210
0.0
220
0.0
230
1.0
 70
     8
 71
     3
 72
     8
 73
     4
 74
     0
 42
0.000000001
 43
0.00000001
 40
0.3253731343283582
 40
0.3253731343283582
 40
0.3253731343283582
 40
0.3253731343283582
 40
0.3283582089552239
 40
0.3283582089552239
 40
0.3283582089552239
 40
0.3283582089552239
 10
-2044.456480176593
 20
2459.947605653436
 30
0.0
 10
-2044.131360176593
 20
2458.876995653436
 30
0.0
 10
-2043.450767176593
 20
2457.969199653436
 30
0.0
 10
-2043.093262176593
 20
2456.898462653436
 30
0.0
  0
SPLINE
  5
1E9
330
1F
100
AcDbEntity
  8
0
  6
Continuous
 62
     7
370
    25
100
AcDbSpline
210
0.0
220
0.0
230
1.0
 70
     8
 71
     3
 72
     8
 73
     4
 74
     0
 42
0.000000001
 43
0.00000001
 40
0.3283582089552239
 40
0.3283582089552239
 40
0.3283582089552239
 40
0.3283582089552239
 40
0.3313432835820895
 40
0.3313432835820895
 40
0.3313432835820895
 40
0.3313432835820895
 10
-2043.093262176593
 20
2456.898462653436
 30
0.0
 10
-2042.573070176592
 20
2455.210505653436
 30
0.0
 10
-2044.326559176592
 20
2454.787849653436
 30
0.0
 10
-2045.136946176593
 20
2453.652469653436
 30
0.0
  0
SPLINE
  5
1EA
330
1F
100
AcDbEntity
  8
0
  6
Continuous
 62
     7
370
    25
100
AcDbSpline
210
0.0
220
0.0
230
1.0
 70
     8
 71
     3
 72
     8
 73
     4
 74
     0
 42
0.000000001
 43
0.00000001
 40
0.3313432835820895
 40
0.3313432835820895
 40
0.3313432835820895
 40
0.3313432835820895
 40
0.3343283582089552
 40
0.3343283582089552
 40
0.3343283582089552
 40
0.3343283582089552
 10
-2045.136946176593
 20
2453.652469653436
 30
0.0
 10
-2045.786932176593
 20
2452.745562653436
 30
0.0
 10
-2046.013881176593
 20
2451.609674653436
 30
0.0
 10
-2046.695490176593
 20
2450.734136653436
 30
0.0
  0
SPLINE
  5
1EB
330
1F
100
AcDbEntity
  8
0
  6
Continuous
 62
     7
370
    25
100
AcDbSpline
210
0.0
220
0.0
230
1.0
 70
     8
 71
     3
 72
     8
 73
     4
 74
     0
 42
0.000000001
 43
0.00000001
 40
0.3343283582089552
 40
0.3343283582089552
 40
0.3343283582089552
 40
0.3343283582089552
 40
0.3373134328358209
 40
0.3373134328358209
 40
0.3373134328358209
 40
0.3373134328358209
 10
-2046.695490176593
 20
2450.734136653436
 30
0.0
 10
-2047.344079176593
 20
2449.856566653436
 30
0.0
 10
-2051.399062176593
 20
2445.217002653436
 30
0.0
 10
-2052.503200176593
 20
2445.281772653436
 30
0.0
  0
SPLINE
  5
1EC
330
1F
100
AcDbEntity
  8
0
  6
Continuous
 62
     7
370
    25
100
AcDbSpline
210
0.0
220
0.0
230
1.0
 70
     8
 71
     3
 72
     8
 73
     4
 74
     0
 42
0.000000001
 43
0.00000001
 40
0.3373134328358209
 40
0.3373134328358209
 40
0.3373134328358209
 40
0.3373134328358209
 40
0.3402985074626866
 40
0.3402985074626866
 40
0.3402985074626866
 40
0.3402985074626866
 10
-2052.503200176593
 20
2445.281772653436
 30
0.0
 10
-2053.313968176593
 20
2445.314919653436
 30
0.0
 10
-2052.762661176593
 20
2447.813263653436
 30
0.0
 10
-2053.508151176593
 20
2447.489032653436
 30
0.0
  0
SPLINE
  5
1ED
330
1F
100
AcDbEntity
  8
0
  6
Continuous
 62
     7
370
    25
100
AcDbSpline
210
0.0
220
0.0
230
1.0
 70
     8
 71
     3
 72
     8
 73
     4
 74
     0
 42
0.000000001
 43
0.00000001
 40
0.3402985074626866
 40
0.3402985074626866
 40
0.3402985074626866
 40
0.3402985074626866
 40
0.3432835820895522
 40
0.3432835820895522
 40
0.3432835820895522
 40
0.3432835820895522
 10
-2053.508151176593
 20
2447.489032653436
 30
0.0
 10
-2054.612289176593
 20
2447.064598653436
 30
0.0
 10
-2053.346734176593
 20
2443.757391653436
 30
0.0
 10
-2055.228112176593
 20
2444.081114653436
 30
0.0
  0
SPLINE
  5
1EE
330
1F
100
AcDbEntity
  8
0
  6
Continuous
 62
     7
370
    25
100
AcDbSpline
210
0.0
220
0.0
230
1.0
 70
     8
 71
     3
 72
     8
 73
     4
 74
     0
 42
0.000000001
 43
0.00000001
 40
0.3432835820895522
 40
0.3432835820895522
 40
0.3432835820895522
 40
0.3432835820895522
 40
0.3462686567164179
 40
0.3462686567164179
 40
0.3462686567164179
 40
0.3462686567164179
 10
-2055.228112176593
 20
2444.081114653436
 30
0.0
 10
-2055.618002176593
 20
2444.146265653436
 30
0.0
 10
-2055.715284176593
 20
2444.761961653436
 30
0.0
 10
-2056.072154176593
 20
2444.957033653436
 30
0.0
  0
SPLINE
  5
1EF
330
1F
100
AcDbEntity
  8
0
  6
Continuous
 62
     7
370
    25
100
AcDbSpline
210
0.0
220
0.0
230
1.0
 70
     8
 71
     3
 72
     8
 73
     4
 74
     0
 42
0.000000001
 43
0.00000001
 40
0.3462686567164179
 40
0.3462686567164179
 40
0.3462686567164179
 40
0.3462686567164179
 40
0.3492537313432836
 40
0.3492537313432836
 40
0.3492537313432836
 40
0.3492537313432836
 10
-2056.072154176593
 20
2444.957033653436
 30
0.0
 10
-2057.046117176593
 20
2445.413852653436
 30
0.0
 10
-2058.083453176593
 20
2446.190076653436
 30
0.0
 10
-2059.154444176593
 20
2445.963000653436
 30
0.0
  0
SPLINE
  5
1F0
330
1F
100
AcDbEntity
  8
0
  6
Continuous
 62
     7
370
    25
100
AcDbSpline
210
0.0
220
0.0
230
1.0
 70
     8
 71
     3
 72
     8
 73
     4
 74
     0
 42
0.000000001
 43
0.00000001
 40
0.3492537313432836
 40
0.3492537313432836
 40
0.3492537313432836
 40
0.3492537313432836
 40
0.3522388059701492
 40
0.3522388059701492
 40
0.3522388059701492
 40
0.3522388059701492
 10
-2059.154444176593
 20
2445.963000653436
 30
0.0
 10
-2059.706005176593
 20
2445.834730653436
 30
0.0
 10
-2059.024269176592
 20
2444.827112653436
 30
0.0
 10
-2059.154444176593
 20
2444.243928653436
 30
0.0
  0
SPLINE
  5
1F1
330
1F
100
AcDbEntity
  8
0
  6
Continuous
 62
     7
370
    25
100
AcDbSpline
210
0.0
220
0.0
230
1.0
 70
     8
 71
     3
 72
     8
 73
     4
 74
     0
 42
0.000000001
 43
0.00000001
 40
0.3522388059701492
 40
0.3522388059701492
 40
0.3522388059701492
 40
0.3522388059701492
 40
0.3552238805970149
 40
0.3552238805970149
 40
0.3552238805970149
 40
0.3552238805970149
 10
-2059.154444176593
 20
2444.243928653436
 30
0.0
 10
-2060.030617176593
 20
2440.250540653436
 30
0.0
 10
-2060.678571176593
 20
2447.034499653436
 30
0.0
 10
-2060.841385176593
 20
2443.399886653436
 30
0.0
  0
SPLINE
  5
1F2
330
1F
100
AcDbEntity
  8
0
  6
Continuous
 62
     7
370
    25
100
AcDbSpline
210
0.0
220
0.0
230
1.0
 70
     8
 71
     3
 72
     8
 73
     4
 74
     0
 42
0.000000001
 43
0.00000001
 40
0.3552238805970149
 40
0.3552238805970149
 40
0.3552238805970149
 40
0.3552238805970149
 40
0.3582089552238806
 40
0.3582089552238806
 40
0.3582089552238806
 40
0.3582089552238806
 10
-2060.841385176593
 20
2443.399886653436
 30
0.0
 10
-2060.906155176593
 20
2442.622900653436
 30
0.0
 10
-2060.452130176593
 20
2441.712818653436
 30
0.0
 10
-2060.841385176593
 20
2441.031082653436
 30
0.0
  0
SPLINE
  5
1F3
330
1F
100
AcDbEntity
  8
0
  6
Continuous
 62
     7
370
    25
100
AcDbSpline
210
0.0
220
0.0
230
1.0
 70
     8
 71
     3
 72
     8
 73
     4
 74
     0
 42
0.000000001
 43
0.00000001
 40
0.3582089552238806
 40
0.3582089552238806
 40
0.3582089552238806
 40
0.3582089552238806
 40
0.3611940298507463
 40
0.3611940298507463
 40
0.3611940298507463
 40
0.3611940298507463
 10
-2060.841385176593
 20
2441.031082653436
 30
0.0
 10
-2061.100846176593
 20
2440.578327653436
 30
0.0
 10
-2061.718447176593
 20
2443.368009653436
 30
0.0
 10
-2062.203841176593
 20
2443.075274653436
 30
0.0
  0
SPLINE
  5
1F4
330
1F
100
AcDbEntity
  8
0
  6
Continuous
 62
     7
370
    25
100
AcDbSpline
210
0.0
220
0.0
230
1.0
 70
     8
 71
     3
 72
     8
 73
     4
 74
     0
 42
0.000000001
 43
0.00000001
 40
0.3611940298507463
 40
0.3611940298507463
 40
0.3611940298507463
 40
0.3611940298507463
 40
0.3641791044776119
 40
0.3641791044776119
 40
0.3641791044776119
 40
0.3641791044776119
 10
-2062.203841176593
 20
2443.075274653436
 30
0.0
 10
-2062.626243176593
 20
2442.816702653436
 30
0.0
 10
-2062.074809176593
 20
2442.037430653436
 30
0.0
 10
-2062.398913176593
 20
2441.712818653436
 30
0.0
  0
SPLINE
  5
1F5
330
1F
100
AcDbEntity
  8
0
  6
Continuous
 62
     7
370
    25
100
AcDbSpline
210
0.0
220
0.0
230
1.0
 70
     8
 71
     3
 72
     8
 73
     4
 74
     0
 42
0.000000001
 43
0.00000001
 40
0.3641791044776119
 40
0.3641791044776119
 40
0.3641791044776119
 40
0.3641791044776119
 40
0.3671641791044776
 40
0.3671641791044776
 40
0.3671641791044776
 40
0.3671641791044776
 10
-2062.398913176593
 20
2441.712818653436
 30
0.0
 10
-2063.372495176593
 20
2440.707740653436
 30
0.0
 10
-2064.248160176593
 20
2442.944845653436
 30
0.0
 10
-2064.605792176593
 20
2442.719166653436
 30
0.0
  0
SPLINE
  5
1F6
330
1F
100
AcDbEntity
  8
0
  6
Continuous
 62
     7
370
    25
100
AcDbSpline
210
0.0
220
0.0
230
1.0
 70
     8
 71
     3
 72
     8
 73
     4
 74
     0
 42
0.000000001
 43
0.00000001
 40
0.3671641791044776
 40
0.3671641791044776
 40
0.3671641791044776
 40
0.3671641791044776
 40
0.3701492537313433
 40
0.3701492537313433
 40
0.3701492537313433
 40
0.3701492537313433
 10
-2064.605792176593
 20
2442.719166653436
 30
0.0
 10
-2064.864872176593
 20
2442.555463653436
 30
0.0
 10
-2064.930150176593
 20
2440.027528653436
 30
0.0
 10
-2064.768225176592
 20
2439.634971653436
 30
0.0
  0
SPLINE
  5
1F7
330
1F
100
AcDbEntity
  8
0
  6
Continuous
 62
     7
370
    25
100
AcDbSpline
210
0.0
220
0.0
230
1.0
 70
     8
 71
     3
 72
     8
 73
     4
 74
     0
 42
0.000000001
 43
0.00000001
 40
0.373134328358209
 40
0.373134328358209
 40
0.373134328358209
 40
0.373134328358209
 40
0.3761194029850746
 40
0.3761194029850746
 40
0.3761194029850746
 40
0.3761194029850746
 10
-2063.242574176593
 20
2437.593573653436
 30
0.0
 10
-2063.275340176593
 20
2436.944222653436
 30
0.0
 10
-2064.313438176593
 20
2436.780519653436
 30
0.0
 10
-2064.962662176593
 20
2436.586336653436
 30
0.0
  0
SPLINE
  5
1F8
330
1F
100
AcDbEntity
  8
0
  6
Continuous
 62
     7
370
    25
100
AcDbSpline
210
0.0
220
0.0
230
1.0
 70
     8
 71
     3
 72
     8
 73
     4
 74
     0
 42
0.000000001
 43
0.00000001
 40
0.3761194029850746
 40
0.3761194029850746
 40
0.3761194029850746
 40
0.3761194029850746
 40
0.3791044776119403
 40
0.3791044776119403
 40
0.3791044776119403
 40
0.3791044776119403
 10
-2064.962662176593
 20
2436.586336653436
 30
0.0
 10
-2065.222123176593
 20
2436.489562653436
 30
0.0
 10
-2065.579120176593
 20
2436.910567653436
 30
0.0
 10
-2065.805815176593
 20
2436.749531653436
 30
0.0
  0
SPLINE
  5
1F9
330
1F
100
AcDbEntity
  8
0
  6
Continuous
 62
     7
370
    25
100
AcDbSpline
210
0.0
220
0.0
230
1.0
 70
     8
 71
     3
 72
     8
 73
     4
 74
     0
 42
0.000000001
 43
0.00000001
 40
0.3791044776119403
 40
0.3791044776119403
 40
0.3791044776119403
 40
0.3791044776119403
 40
0.382089552238806
 40
0.382089552238806
 40
0.382089552238806
 40
0.382089552238806
 10
-2065.805815176593
 20
2436.749531653436
 30
0.0
 10
-2066.000506176592
 20
2436.619102653436
 30
0.0
 10
-2066.163066176593
 20
2434.737724653436
 30
0.0
 10
-2067.168906176592
 20
2435.548492653436
 30
0.0
  0
SPLINE
  5
1FA
330
1F
100
AcDbEntity
  8
0
  6
Continuous
 62
     7
370
    25
100
AcDbSpline
210
0.0
220
0.0
230
1.0
 70
     8
 71
     3
 72
     8
 73
     4
 74
     0
 42
0.000000001
 43
0.00000001
 40
0.382089552238806
 40
0.382089552238806
 40
0.382089552238806
 40
0.382089552238806
 40
0.3850746268656716
 40
0.3850746268656716
 40
0.3850746268656716
 40
0.3850746268656716
 10
-2067.168906176592
 20
2435.548492653436
 30
0.0
 10
-2067.298827176593
 20
2435.645647653436
 30
0.0
 10
-2067.136267176593
 20
2437.398374653436
 30
0.0
 10
-2067.492629176593
 20
2437.950062653436
 30
0.0
  0
SPLINE
  5
1FB
330
1F
100
AcDbEntity
  8
0
  6
Continuous
 62
     7
370
    25
100
AcDbSpline
210
0.0
220
0.0
230
1.0
 70
     8
 71
     3
 72
     8
 73
     4
 74
     0
 42
0.000000001
 43
0.00000001
 40
0.3850746268656716
 40
0.3850746268656716
 40
0.3850746268656716
 40
0.3850746268656716
 40
0.3880597014925373
 40
0.3880597014925373
 40
0.3880597014925373
 40
0.3880597014925373
 10
-2067.492629176593
 20
2437.950062653436
 30
0.0
 10
-2067.784729176592
 20
2438.371448653436
 30
0.0
 10
-2068.499612176593
 20
2438.502258653436
 30
0.0
 10
-2068.693922176592
 20
2438.954632653436
 30
0.0
  0
SPLINE
  5
1FC
330
1F
100
AcDbEntity
  8
0
  6
Continuous
 62
     7
370
    25
100
AcDbSpline
210
0.0
220
0.0
230
1.0
 70
     8
 71
     3
 72
     8
 73
     4
 74
     0
 42
0.000000001
 43
0.00000001
 40
0.3880597014925373
 40
0.3880597014925373
 40
0.3880597014925373
 40
0.3880597014925373
 40
0.391044776119403
 40
0.391044776119403
 40
0.391044776119403
 40
0.391044776119403
 10
-2068.693922176592
 20
2438.954632653436
 30
0.0
 10
-2068.855593176593
 20
2439.344014653436
 30
0.0
 10
-2068.564128176593
 20
2439.765781653436
 30
0.0
 10
-2068.531616176593
 20
2440.155163653436
 30
0.0
  0
SPLINE
  5
1FD
330
1F
100
AcDbEntity
  8
0
  6
Continuous
 62
     7
370
    25
100
AcDbSpline
210
0.0
220
0.0
230
1.0
 70
     8
 71
     3
 72
     8
 73
     4
 74
     0
 42
0.000000001
 43
0.00000001
 40
0.391044776119403
 40
0.391044776119403
 40
0.391044776119403
 40
0.391044776119403
 40
0.3940298507462687
 40
0.3940298507462687
 40
0.3940298507462687
 40
0.3940298507462687
 10
-2068.531616176593
 20
2440.155163653436
 30
0.0
 10
-2068.402076176592
 20
2441.257777653436
 30
0.0
 10
-2068.076956176593
 20
2442.329784653436
 30
0.0
 10
-2068.206877176593
 20
2443.399886653436
 30
0.0
  0
SPLINE
  5
1FE
330
1F
100
AcDbEntity
  8
0
  6
Continuous
 62
     7
370
    25
100
AcDbSpline
210
0.0
220
0.0
230
1.0
 70
     8
 71
     3
 72
     8
 73
     4
 74
     0
 42
0.000000001
 43
0.00000001
 40
0.3940298507462687
 40
0.3940298507462687
 40
0.3940298507462687
 40
0.3940298507462687
 40
0.3970149253731343
 40
0.3970149253731343
 40
0.3970149253731343
 40
0.3970149253731343
 10
-2068.206877176593
 20
2443.399886653436
 30
0.0
 10
-2068.239516176593
 20
2443.854038653436
 30
0.0
 10
-2068.822700176593
 20
2444.049237653436
 30
0.0
 10
-2069.050665176593
 20
2444.437730653436
 30
0.0
  0
SPLINE
  5
1FF
330
1F
100
AcDbEntity
  8
0
  6
Continuous
 62
     7
370
    25
100
AcDbSpline
210
0.0
220
0.0
230
1.0
 70
     8
 71
     3
 72
     8
 73
     4
 74
     0
 42
0.000000001
 43
0.00000001
 40
0.3970149253731343
 40
0.3970149253731343
 40
0.3970149253731343
 40
0.3970149253731343
 40
0.4
 40
0.4
 40
0.4
 40
0.4
 10
-2069.050665176593
 20
2444.437730653436
 30
0.0
 10
-2069.440174176593
 20
2445.087081653436
 30
0.0
 10
-2069.310634176593
 20
2446.612732653436
 30
0.0
 10
-2070.056759176593
 20
2446.481795653436
 30
0.0
  0
SPLINE
  5
200
330
1F
100
AcDbEntity
  8
0
  6
Continuous
 62
     7
370
    25
100
AcDbSpline
210
0.0
220
0.0
230
1.0
 70
     8
 71
     3
 72
     8
 73
     4
 74
     0
 42
0.000000001
 43
0.00000001
 40
0.4
 40
0.4
 40
0.4
 40
0.4
 40
0.4029850746268657
 40
0.4029850746268657
 40
0.4029850746268657
 40
0.4029850746268657
 10
-2070.056759176593
 20
2446.481795653436
 30
0.0
 10
-2070.803011176593
 20
2446.353271653436
 30
0.0
 10
-2069.958334176593
 20
2444.989037653436
 30
0.0
 10
-2070.056759176593
 20
2444.243928653436
 30
0.0
  0
SPLINE
  5
201
330
1F
100
AcDbEntity
  8
0
  6
Continuous
 62
     7
370
    25
100
AcDbSpline
210
0.0
220
0.0
230
1.0
 70
     8
 71
     3
 72
     8
 73
     4
 74
     0
 42
0.000000001
 43
0.00000001
 40
0.4029850746268657
 40
0.4029850746268657
 40
0.4029850746268657
 40
0.4029850746268657
 40
0.4059701492537313
 40
0.4059701492537313
 40
0.4059701492537313
 40
0.4059701492537313
 10
-2070.056759176593
 20
2444.243928653436
 30
0.0
 10
-2070.218684176593
 20
2443.108167653436
 30
0.0
 10
-2071.159627176592
 20
2441.778477653436
 30
0.0
 10
-2071.094222176593
 20
2440.674974653436
 30
0.0
  0
SPLINE
  5
202
330
1F
100
AcDbEntity
  8
0
  6
Continuous
 62
     7
370
    25
100
AcDbSpline
210
0.0
220
0.0
230
1.0
 70
     8
 71
     3
 72
     8
 73
     4
 74
     0
 42
0.000000001
 43
0.00000001
 40
0.4059701492537313
 40
0.4059701492537313
 40
0.4059701492537313
 40
0.4059701492537313
 40
0.408955223880597
 40
0.408955223880597
 40
0.408955223880597
 40
0.408955223880597
 10
-2071.094222176593
 20
2440.674974653436
 30
0.0
 10
-2071.061964176592
 20
2440.220441653436
 30
0.0
 10
-2070.315839176592
 20
2439.928595653436
 30
0.0
 10
-2070.413375176593
 20
2439.474443653436
 30
0.0
  0
SPLINE
  5
203
330
1F
100
AcDbEntity
  8
0
  6
Continuous
 62
     7
370
    25
100
AcDbSpline
210
0.0
220
0.0
230
1.0
 70
     8
 71
     3
 72
     8
 73
     4
 74
     0
 42
0.000000001
 43
0.00000001
 40
0.408955223880597
 40
0.408955223880597
 40
0.408955223880597
 40
0.408955223880597
 40
0.4119402985074627
 40
0.4119402985074627
 40
0.4119402985074627
 40
0.4119402985074627
 10
-2070.413375176593
 20
2439.474443653436
 30
0.0
 10
-2070.478526176593
 20
2439.085061653436
 30
0.0
 10
-2071.322060176592
 20
2439.182216653436
 30
0.0
 10
-2071.419215176593
 20
2438.792707653436
 30
0.0
  0
SPLINE
  5
204
330
1F
100
AcDbEntity
  8
0
  6
Continuous
 62
     7
370
    25
100
AcDbSpline
210
0.0
220
0.0
230
1.0
 70
     8
 71
     3
 72
     8
 73
     4
 74
     0
 42
0.000000001
 43
0.00000001
 40
0.4119402985074627
 40
0.4119402985074627
 40
0.4119402985074627
 40
0.4119402985074627
 40
0.4149253731343284
 40
0.4149253731343284
 40
0.4149253731343284
 40
0.4149253731343284
 10
-2071.419215176593
 20
2438.792707653436
 30
0.0
 10
-2071.776212176593
 20
2437.559410653436
 30
0.0
 10
-2072.782306176593
 20
2432.628000653436
 30
0.0
 10
-2071.613906176593
 20
2431.621652653436
 30
0.0
  0
SPLINE
  5
205
330
1F
100
AcDbEntity
  8
0
  6
Continuous
 62
     7
370
    25
100
AcDbSpline
210
0.0
220
0.0
230
1.0
 70
     8
 71
     3
 72
     8
 73
     4
 74
     0
 42
0.000000001
 43
0.00000001
 40
0.4149253731343284
 40
0.4149253731343284
 40
0.4149253731343284
 40
0.4149253731343284
 40
0.417910447761194
 40
0.417910447761194
 40
0.417910447761194
 40
0.417910447761194
 10
-2071.613906176593
 20
2431.621652653436
 30
0.0
 10
-2071.159627176592
 20
2431.263766653436
 30
0.0
 10
-2069.861941176593
 20
2432.043927653436
 30
0.0
 10
-2069.894199176593
 20
2431.459346653436
 30
0.0
  0
SPLINE
  5
206
330
1F
100
AcDbEntity
  8
0
  6
Continuous
 62
     7
370
    25
100
AcDbSpline
210
0.0
220
0.0
230
1.0
 70
     8
 71
     3
 72
     8
 73
     4
 74
     0
 42
0.000000001
 43
0.00000001
 40
0.417910447761194
 40
0.417910447761194
 40
0.417910447761194
 40
0.417910447761194
 40
0.4208955223880597
 40
0.4208955223880597
 40
0.4208955223880597
 40
0.4208955223880597
 10
-2069.894199176593
 20
2431.459346653436
 30
0.0
 10
-2069.958334176593
 20
2430.584316653436
 30
0.0
 10
-2071.516624176593
 20
2430.422391653436
 30
0.0
 10
-2071.776212176593
 20
2429.577968653436
 30
0.0
  0
SPLINE
  5
207
330
1F
100
AcDbEntity
  8
0
  6
Continuous
 62
     7
370
    25
100
AcDbSpline
210
0.0
220
0.0
230
1.0
 70
     8
 71
     3
 72
     8
 73
     4
 74
     0
 42
0.000000001
 43
0.00000001
 40
0.4208955223880597
 40
0.4208955223880597
 40
0.4208955223880597
 40
0.4208955223880597
 40
0.4238805970149254
 40
0.4238805970149254
 40
0.4238805970149254
 40
0.4238805970149254
 10
-2071.776212176593
 20
2429.577968653436
 30
0.0
 10
-2071.970522176593
 20
2428.961510653436
 30
0.0
 10
-2071.679184176593
 20
2428.052317653436
 30
0.0
 10
-2071.094222176593
 20
2427.695828653436
 30
0.0
  0
SPLINE
  5
208
330
1F
100
AcDbEntity
  8
0
  6
Continuous
 62
     7
370
    25
100
AcDbSpline
210
0.0
220
0.0
230
1.0
 70
     8
 71
     3
 72
     8
 73
     4
 74
     0
 42
0.000000001
 43
0.00000001
 40
0.2985074626865671
 40
0.2985074626865671
 40
0.2985074626865671
 40
0.2985074626865671
 40
0.3014925373134328
 40
0.3014925373134328
 40
0.3014925373134328
 40
0.3014925373134328
 10
-2042.087676176593
 20
2460.822635653436
 30
0.0
 10
-2042.573070176592
 20
2461.472875653436
 30
0.0
 10
-2043.255822176593
 20
2462.056948653436
 30
0.0
 10
-2043.450767176593
 20
2462.868986653436
 30
0.0
  0
SPLINE
  5
209
330
1F
100
AcDbEntity
  8
0
  6
Continuous
 62
     7
370
    25
100
AcDbSpline
210
0.0
220
0.0
230
1.0
 70
     8
 71
     3
 72
     8
 73
     4
 74
     0
 42
0.000000001
 43
0.00000001
 40
0.4358208955223881
 40
0.4358208955223881
 40
0.4358208955223881
 40
0.4358208955223881
 40
0.4388059701492537
 40
0.4388059701492537
 40
0.4388059701492537
 40
0.4388059701492537
 10
-2067.687193176593
 20
2426.851786653436
 30
0.0
 10
-2067.590673176593
 20
2426.397634653436
 30
0.0
 10
-2067.071497176593
 20
2426.106677653436
 30
0.0
 10
-2067.006092176593
 20
2425.651636653436
 30
0.0
  0
SPLINE
  5
20B
330
1F
100
AcDbEntity
  8
0
  6
Continuous
 62
     7
370
    25
100
AcDbSpline
210
0.0
220
0.0
230
1.0
 70
     8
 71
     3
 72
     8
 73
     4
 74
     0
 42
0.000000001
 43
0.00000001
 40
0.4238805970149254
 40
0.4238805970149254
 40
0.4238805970149254
 40
0.4238805970149254
 40
0.4268656716417911
 40
0.4268656716417911
 40
0.4268656716417911
 40
0.4268656716417911
 10
-2071.094222176593
 20
2427.695828653436
 30
0.0
 10
-2070.705856176593
 20
2427.469514653436
 30
0.0
 10
-2070.510022176592
 20
2428.440937653436
 30
0.0
 10
-2070.056759176593
 20
2428.570858653436
 30
0.0
  0
SPLINE
  5
20C
330
1F
100
AcDbEntity
  8
0
  6
Continuous
 62
     7
370
    25
100
AcDbSpline
210
0.0
220
0.0
230
1.0
 70
     8
 71
     3
 72
     8
 73
     4
 74
     0
 42
0.000000001
 43
0.00000001
 40
0.4268656716417911
 40
0.4268656716417911
 40
0.4268656716417911
 40
0.4268656716417911
 40
0.4298507462686567
 40
0.4298507462686567
 40
0.4298507462686567
 40
0.4298507462686567
 10
-2070.056759176593
 20
2428.570858653436
 30
0.0
 10
-2069.731639176593
 20
2428.636517653435
 30
0.0
 10
-2069.407535176592
 20
2428.215512653436
 30
0.0
 10
-2069.050665176593
 20
2428.215512653436
 30
0.0
  0
SPLINE
  5
20D
330
1F
100
AcDbEntity
  8
0
  6
Continuous
 62
     7
370
    25
100
AcDbSpline
210
0.0
220
0.0
230
1.0
 70
     8
 71
     3
 72
     8
 73
     4
 74
     0
 42
0.000000001
 43
0.00000001
 40
0.4298507462686567
 40
0.4298507462686567
 40
0.4298507462686567
 40
0.4298507462686567
 40
0.4328358208955224
 40
0.4328358208955224
 40
0.4328358208955224
 40
0.4328358208955224
 10
-2069.050665176593
 20
2428.215512653436
 30
0.0
 10
-2068.531616176593
 20
2428.215512653436
 30
0.0
 10
-2067.882900176593
 20
2428.928744653436
 30
0.0
 10
-2067.492629176593
 20
2428.570858653436
 30
0.0
  0
SPLINE
  5
20E
330
1F
100
AcDbEntity
  8
0
  6
Continuous
 62
     7
370
    25
100
AcDbSpline
210
0.0
220
0.0
230
1.0
 70
     8
 71
     3
 72
     8
 73
     4
 74
     0
 42
0.000000001
 43
0.00000001
 40
0.4328358208955224
 40
0.4328358208955224
 40
0.4328358208955224
 40
0.4328358208955224
 40
0.4358208955223881
 40
0.4358208955223881
 40
0.4358208955223881
 40
0.4358208955223881
 10
-2067.492629176593
 20
2428.570858653436
 30
0.0
 10
-2067.103247176593
 20
2428.149853653436
 30
0.0
 10
-2067.784729176592
 20
2427.403474653436
 30
0.0
 10
-2067.687193176593
 20
2426.851786653436
 30
0.0
  0
SPLINE
  5
20F
330
1F
100
AcDbEntity
  8
0
  6
Continuous
 62
     7
370
    25
100
AcDbSpline
210
0.0
220
0.0
230
1.0
 70
     8
 71
     3
 72
     8
 73
     4
 74
     0
 42
0.000000001
 43
0.00000001
 40
0.4537313432835821
 40
0.4537313432835821
 40
0.4537313432835821
 40
0.4537313432835821
 40
0.4567164179104478
 40
0.4567164179104478
 40
0.4567164179104478
 40
0.4567164179104478
 10
-2068.693922176592
 20
2416.274591653436
 30
0.0
 10
-2068.822700176593
 20
2416.274591653436
 30
0.0
 10
-2069.050665176593
 20
2416.404893653435
 30
0.0
 10
-2069.310634176593
 20
2416.565929653436
 30
0.0
  0
SPLINE
  5
210
330
1F
100
AcDbEntity
  8
0
  6
Continuous
 62
     7
370
    25
100
AcDbSpline
210
0.0
220
0.0
230
1.0
 70
     8
 71
     3
 72
     8
 73
     4
 74
     0
 42
0.000000001
 43
0.00000001
 40
0.4388059701492537
 40
0.4388059701492537
 40
0.4388059701492537
 40
0.4388059701492537
 40
0.4417910447761194
 40
0.4417910447761194
 40
0.4417910447761194
 40
0.4417910447761194
 10
-2067.006092176593
 20
2425.651636653436
 30
0.0
 10
-2066.844421176593
 20
2424.872364653436
 30
0.0
 10
-2067.071497176593
 20
2424.063374653436
 30
0.0
 10
-2067.006092176593
 20
2423.284229653436
 30
0.0
  0
SPLINE
  5
211
330
1F
100
AcDbEntity
  8
0
  6
Continuous
 62
     7
370
    25
100
AcDbSpline
210
0.0
220
0.0
230
1.0
 70
     8
 71
     3
 72
     8
 73
     4
 74
     0
 42
0.000000001
 43
0.00000001
 40
0.4417910447761194
 40
0.4417910447761194
 40
0.4417910447761194
 40
0.4417910447761194
 40
0.4447761194029851
 40
0.4447761194029851
 40
0.4447761194029851
 40
0.4447761194029851
 10
-2067.006092176593
 20
2423.284229653436
 30
0.0
 10
-2066.941576176593
 20
2422.796803653436
 30
0.0
 10
-2066.551940176593
 20
2422.374147653436
 30
0.0
 10
-2066.648968176593
 20
2421.888880653436
 30
0.0
  0
SPLINE
  5
212
330
1F
100
AcDbEntity
  8
0
  6
Continuous
 62
     7
370
    25
100
AcDbSpline
210
0.0
220
0.0
230
1.0
 70
     8
 71
     3
 72
     8
 73
     4
 74
     0
 42
0.000000001
 43
0.00000001
 40
0.4447761194029851
 40
0.4447761194029851
 40
0.4447761194029851
 40
0.4447761194029851
 40
0.4477611940298508
 40
0.4477611940298508
 40
0.4477611940298508
 40
0.4477611940298508
 10
-2066.648968176593
 20
2421.888880653436
 30
0.0
 10
-2066.812290176593
 20
2421.109735653436
 30
0.0
 10
-2067.168906176592
 20
2420.298459653436
 30
0.0
 10
-2067.687193176593
 20
2419.681620653436
 30
0.0
  0
SPLINE
  5
213
330
1F
100
AcDbEntity
  8
0
  6
Continuous
 62
     7
370
    25
100
AcDbSpline
210
0.0
220
0.0
230
1.0
 70
     8
 71
     3
 72
     8
 73
     4
 74
     0
 42
0.000000001
 43
0.00000001
 40
0.3701492537313433
 40
0.3701492537313433
 40
0.3701492537313433
 40
0.3701492537313433
 40
0.373134328358209
 40
0.373134328358209
 40
0.373134328358209
 40
0.373134328358209
 10
-2064.768225176592
 20
2439.634971653436
 30
0.0
 10
-2064.443359176593
 20
2438.856588653436
 30
0.0
 10
-2063.210570176593
 20
2438.468095653436
 30
0.0
 10
-2063.242574176593
 20
2437.593573653436
 30
0.0
  0
SPLINE
  5
214
330
1F
100
AcDbEntity
  8
0
  6
Continuous
 62
     7
370
    25
100
AcDbSpline
210
0.0
220
0.0
230
1.0
 70
     8
 71
     3
 72
     8
 73
     4
 74
     0
 42
0.000000001
 43
0.00000001
 40
0.4507462686567164
 40
0.4507462686567164
 40
0.4507462686567164
 40
0.4507462686567164
 40
0.4537313432835821
 40
0.4537313432835821
 40
0.4537313432835821
 40
0.4537313432835821
 10
-2068.531616176593
 20
2419.681620653436
 30
0.0
 10
-2068.304286176593
 20
2418.416700653436
 30
0.0
 10
-2065.514223176593
 20
2416.046118653436
 30
0.0
 10
-2068.693922176592
 20
2416.274591653436
 30
0.0
  0
SPLINE
  5
215
330
1F
100
AcDbEntity
  8
0
  6
Continuous
 62
     7
370
    25
100
AcDbSpline
210
0.0
220
0.0
230
1.0
 70
     8
 71
     3
 72
     8
 73
     4
 74
     0
 42
0.000000001
 43
0.00000001
 40
0.4477611940298508
 40
0.4477611940298508
 40
0.4477611940298508
 40
0.4477611940298508
 40
0.4507462686567164
 40
0.4507462686567164
 40
0.4507462686567164
 40
0.4507462686567164
 10
-2067.687193176593
 20
2419.681620653436
 30
0.0
 10
-2067.850388176593
 20
2419.454925653436
 30
0.0
 10
-2068.595497176593
 20
2419.974736653436
 30
0.0
 10
-2068.531616176593
 20
2419.681620653436
 30
0.0
  0
LINE
  5
216
330
1F
100
AcDbEntity
  8
0
  6
Continuous
 62
     7
370
    25
100
AcDbLine
 10
-2053.6422022679
 20
2484.5592146144
 30
0.0
 11
-2054.012662572
 21
2484.5592146144
 31
0.0
  0
LINE
  5
217
330
1F
100
AcDbEntity
  8
0
  6
Continuous
 62
     7
370
    25
100
AcDbLine
 10
-2054.606095849
 20
2483.8902956955
 30
0.0
 11
-2054.606095849
 21
2480.9173227225
 31
0.0
  0
LINE
  5
218
330
1F
100
AcDbEntity
  8
0
  6
Continuous
 62
     7
370
    25
100
AcDbLine
 10
-2054.012662572
 20
2480.2484038036
 30
0.0
 11
-2053.6422022679
 21
2480.2484038036
 31
0.0
  0
LINE
  5
219
330
1F
100
AcDbEntity
  8
0
  6
Continuous
 62
     7
370
    25
100
AcDbLine
 10
-2052.9709607139
 20
2480.9173227225
 30
0.0
 11
-2052.9709607139
 21
2483.8902956955
 31
0.0
  0
LINE
  5
21A
330
1F
100
AcDbEntity
  8
0
  6
Continuous
 62
     7
370
    25
100
AcDbLine
 10
-2053.6317504098
 20
2479.653809209
 30
0.0
 11
-2054.0242757477
 21
2479.653809209
 31
0.0
  0
LINE
  5
21B
330
1F
100
AcDbEntity
  8
0
  6
Continuous
 62
     7
370
    25
100
AcDbLine
 10
-2055.2750147679
 20
2480.8743539725
 30
0.0
 11
-2055.2750147679
 21
2483.9332644455
 31
0.0
  0
LINE
  5
21C
330
1F
100
AcDbEntity
  8
0
  6
Continuous
 62
     7
370
    25
100
AcDbLine
 10
-2054.0242757477
 20
2485.153809209
 30
0.0
 11
-2053.6317504098
 21
2485.153809209
 31
0.0
  0
LINE
  5
21D
330
1F
100
AcDbEntity
  8
0
  6
Continuous
 62
     7
370
    25
100
AcDbLine
 10
-2052.302041795
 20
2483.9332644455
 30
0.0
 11
-2052.302041795
 21
2480.8743539725
 31
0.0
  0
LINE
  5
21E
330
1F
100
AcDbEntity
  8
0
  6
Continuous
 62
     7
370
    25
100
AcDbLine
 10
-2048.6155553085
 20
2484.6335389388
 30
0.0
 11
-2049.5736423017
 21
2484.6335389388
 31
0.0
  0
LINE
  5
21F
330
1F
100
AcDbEntity
  8
0
  6
Continuous
 62
     7
370
    25
100
AcDbLine
 10
-2049.5736423017
 20
2484.6335389388
 30
0.0
 11
-2049.9197149369
 21
2480.2484038036
 31
0.0
  0
LINE
  5
220
330
1F
100
AcDbEntity
  8
0
  6
Continuous
 62
     7
370
    25
100
AcDbLine
 10
-2049.9197149369
 20
2480.2484038036
 30
0.0
 11
-2048.6155553085
 21
2480.2484038036
 31
0.0
  0
LINE
  5
221
330
1F
100
AcDbEntity
  8
0
  6
Continuous
 62
     7
370
    25
100
AcDbLine
 10
-2048.6155553085
 20
2480.2484038036
 30
0.0
 11
-2048.6155553085
 21
2484.6335389388
 31
0.0
  0
LINE
  5
222
330
1F
100
AcDbEntity
  8
0
  6
Continuous
 62
     7
370
    25
100
AcDbLine
 10
-2048.1696093625
 20
2479.5806462023
 30
0.0
 11
-2048.1696093625
 21
2479.653809209
 31
0.0
  0
LINE
  5
223
330
1F
100
AcDbEntity
  8
0
  6
Continuous
 62
     7
370
    25
100
AcDbLine
 10
-2048.1696093625
 20
2479.653809209
 30
0.0
 11
-2050.2541743963
 21
2479.653809209
 31
0.0
  0
LINE
  5
224
330
1F
100
AcDbEntity
  8
0
  6
Continuous
 62
     7
370
    25
100
AcDbLine
 10
-2050.2541743963
 20
2479.653809209
 30
0.0
 11
-2050.2541743963
 21
2479.5806462023
 31
0.0
  0
LINE
  5
225
330
1F
100
AcDbEntity
  8
0
  6
Continuous
 62
     7
370
    25
100
AcDbLine
 10
-2050.8627048017
 20
2479.6178083644
 30
0.0
 11
-2050.8627048017
 21
2479.9871073509
 31
0.0
  0
LINE
  5
226
330
1F
100
AcDbEntity
  8
0
  6
Continuous
 62
     7
370
    25
100
AcDbLine
 10
-2050.5956017612
 20
2480.2484038036
 30
0.0
 11
-2050.4608889233
 21
2480.2484038036
 31
0.0
  0
LINE
  5
227
330
1F
100
AcDbEntity
  8
0
  6
Continuous
 62
     7
370
    25
100
AcDbLine
 10
-2050.4608889233
 20
2480.2484038036
 30
0.0
 11
-2050.0927512544
 21
2484.981934209
 31
0.0
  0
LINE
  5
228
330
1F
100
AcDbEntity
  8
0
  6
Continuous
 62
     7
370
    25
100
AcDbLine
 10
-2049.8268095315
 20
2485.2281335334
 30
0.0
 11
-2048.2834184842
 21
2485.2281335334
 31
0.0
  0
LINE
  5
229
330
1F
100
AcDbEntity
  8
0
  6
Continuous
 62
     7
370
    25
100
AcDbLine
 10
-2047.9466363896
 20
2484.9621918104
 30
0.0
 11
-2047.9466363896
 21
2480.2484038036
 31
0.0
  0
LINE
  5
22A
330
1F
100
AcDbEntity
  8
0
  6
Continuous
 62
     7
370
    25
100
AcDbLine
 10
-2047.9466363896
 20
2480.2484038036
 30
0.0
 11
-2047.9059902747
 21
2480.2484038036
 31
0.0
  0
LINE
  5
22B
330
1F
100
AcDbEntity
  8
0
  6
Continuous
 62
     7
370
    25
100
AcDbLine
 10
-2047.5657242274
 20
2479.9871073509
 30
0.0
 11
-2047.5657242274
 21
2479.6178083644
 31
0.0
  0
LINE
  5
22C
330
1F
100
AcDbEntity
  8
0
  6
Continuous
 62
     7
370
    25
100
AcDbLine
 10
-2039.8838407815
 20
2484.5592146144
 30
0.0
 11
-2040.8419277747
 21
2484.5592146144
 31
0.0
  0
LINE
  5
22D
330
1F
100
AcDbEntity
  8
0
  6
Continuous
 62
     7
370
    25
100
AcDbLine
 10
-2041.4655553085
 20
2483.8902956955
 30
0.0
 11
-2041.4655553085
 21
2480.9173227225
 31
0.0
  0
LINE
  5
22E
330
1F
100
AcDbEntity
  8
0
  6
Continuous
 62
     7
370
    25
100
AcDbLine
 10
-2040.8419277747
 20
2480.2484038036
 30
0.0
 11
-2039.8838407815
 21
2480.2484038036
 31
0.0
  0
LINE
  5
22F
330
1F
100
AcDbEntity
  8
0
  6
Continuous
 62
     7
370
    25
100
AcDbLine
 10
-2039.8838407815
 20
2479.653809209
 30
0.0
 11
-2040.8419277747
 21
2479.653809209
 31
0.0
  0
LINE
  5
230
330
1F
100
AcDbEntity
  8
0
  6
Continuous
 62
     7
370
    25
100
AcDbLine
 10
-2042.1344742274
 20
2480.8743539725
 30
0.0
 11
-2042.1344742274
 21
2483.9332644455
 31
0.0
  0
LINE
  5
231
330
1F
100
AcDbEntity
  8
0
  6
Continuous
 62
     7
370
    25
100
AcDbLine
 10
-2040.8419277747
 20
2485.153809209
 30
0.0
 11
-2039.8838407815
 21
2485.153809209
 31
0.0
  0
LINE
  5
232
330
1F
100
AcDbEntity
  8
0
  6
Continuous
 62
     7
370
    25
100
AcDbLine
 10
-2036.4969742274
 20
2484.1213978915
 30
0.0
 11
-2037.0648585179
 21
2481.7348902901
 31
0.0
  0
LINE
  5
233
330
1F
100
AcDbEntity
  8
0
  6
Continuous
 62
     7
370
    25
100
AcDbLine
 10
-2037.0648585179
 20
2481.7348902901
 30
0.0
 11
-2035.9256059842
 21
2481.7348902901
 31
0.0
  0
LINE
  5
234
330
1F
100
AcDbEntity
  8
0
  6
Continuous
 62
     7
370
    25
100
AcDbLine
 10
-2035.9256059842
 20
2481.7348902901
 30
0.0
 11
-2036.4969742274
 21
2484.1213978915
 31
0.0
  0
LINE
  5
235
330
1F
100
AcDbEntity
  8
0
  6
Continuous
 62
     7
370
    25
100
AcDbLine
 10
-2037.1902808152
 20
2481.1402956955
 30
0.0
 11
-2037.5526118963
 21
2479.8442652901
 31
0.0
  0
LINE
  5
236
330
1F
100
AcDbEntity
  8
0
  6
Continuous
 62
     7
370
    25
100
AcDbLine
 10
-2038.1355933152
 20
2479.9882686685
 30
0.0
 11
-2036.7884649369
 21
2484.9261909658
 31
0.0
  0
LINE
  5
237
330
1F
100
AcDbEntity
  8
0
  6
Continuous
 62
     7
370
    25
100
AcDbLine
 10
-2036.2054835179
 20
2484.9261909658
 30
0.0
 11
-2034.8595164571
 21
2479.9882686685
 31
0.0
  0
LINE
  5
238
330
1F
100
AcDbEntity
  8
0
  6
Continuous
 62
     7
370
    25
100
AcDbLine
 10
-2035.442497876
 20
2479.8442652901
 30
0.0
 11
-2035.8048289571
 21
2481.1402956955
 31
0.0
  0
LINE
  5
239
330
1F
100
AcDbEntity
  8
0
  6
Continuous
 62
     7
370
    25
100
AcDbLine
 10
-2035.8048289571
 20
2481.1402956955
 30
0.0
 11
-2037.1902808152
 21
2481.1402956955
 31
0.0
  0
LINE
  5
23A
330
1F
100
AcDbEntity
  8
0
  6
Continuous
 62
     7
370
    25
100
AcDbLine
 10
-2045.4493390923
 20
2482.3294848847
 30
0.0
 11
-2045.4493390923
 21
2480.2484038036
 31
0.0
  0
LINE
  5
23B
330
1F
100
AcDbEntity
  8
0
  6
Continuous
 62
     7
370
    25
100
AcDbLine
 10
-2043.8676245652
 20
2479.653809209
 30
0.0
 11
-2045.8209607139
 21
2479.653809209
 31
0.0
  0
LINE
  5
23C
330
1F
100
AcDbEntity
  8
0
  6
Continuous
 62
     7
370
    25
100
AcDbLine
 10
-2045.4493390923
 20
2480.2484038036
 30
0.0
 11
-2043.8676245652
 21
2480.2484038036
 31
0.0
  0
LINE
  5
23D
330
1F
100
AcDbEntity
  8
0
  6
Continuous
 62
     7
370
    25
100
AcDbLine
 10
-2046.1182580112
 20
2479.919750932
 30
0.0
 11
-2046.1182580112
 21
2484.8878674861
 31
0.0
  0
LINE
  5
23E
330
1F
100
AcDbEntity
  8
0
  6
Continuous
 62
     7
370
    25
100
AcDbLine
 10
-2045.8209607139
 20
2485.153809209
 30
0.0
 11
-2043.8676245652
 21
2485.153809209
 31
0.0
  0
LINE
  5
23F
330
1F
100
AcDbEntity
  8
0
  6
Continuous
 62
     7
370
    25
100
AcDbLine
 10
-2043.8676245652
 20
2484.5592146144
 30
0.0
 11
-2045.4493390923
 21
2484.5592146144
 31
0.0
  0
LINE
  5
240
330
1F
100
AcDbEntity
  8
0
  6
Continuous
 62
     7
370
    25
100
AcDbLine
 10
-2045.4493390923
 20
2484.5592146144
 30
0.0
 11
-2045.4493390923
 21
2482.9240794793
 31
0.0
  0
LINE
  5
241
330
1F
100
AcDbEntity
  8
0
  6
Continuous
 62
     7
370
    25
100
AcDbLine
 10
-2045.4493390923
 20
2482.9240794793
 30
0.0
 11
-2044.636416795
 21
2482.9240794793
 31
0.0
  0
LINE
  5
242
330
1F
100
AcDbEntity
  8
0
  6
Continuous
 62
     7
370
    25
100
AcDbLine
 10
-2044.636416795
 20
2482.3294848847
 30
0.0
 11
-2045.4493390923
 21
2482.3294848847
 31
0.0
  0
LINE
  5
243
330
1F
100
AcDbEntity
  8
0
  6
Continuous
 62
     7
370
    25
100
AcDbLine
 10
-2069.3106341766
 20
2416.5659296534
 30
0.0
 11
-2069.6346111766
 21
2417.4760116534
 31
0.0
  0
LINE
  5
244
330
1F
100
AcDbEntity
  8
0
  6
Continuous
 62
     7
370
    25
100
AcDbLine
 10
-2069.6346111766
 20
2417.4760116534
 30
0.0
 11
-2070.1536601766
 21
2420.8830406534
 31
0.0
  0
LINE
  5
245
330
1F
100
AcDbEntity
  8
0
  6
Continuous
 62
     7
370
    25
100
AcDbLine
 10
-2070.1536601766
 20
2420.8830406534
 30
0.0
 11
-2071.1921391766
 21
2422.9267246534
 31
0.0
  0
LINE
  5
246
330
1F
100
AcDbEntity
  8
0
  6
Continuous
 62
     7
370
    25
100
AcDbLine
 10
-2071.1921391766
 20
2422.9267246534
 30
0.0
 11
-2072.7176631766
 21
2425.1339846534
 31
0.0
  0
LINE
  5
247
330
1F
100
AcDbEntity
  8
0
  6
Continuous
 62
     7
370
    25
100
AcDbLine
 10
-2072.7176631766
 20
2425.1339846534
 30
0.0
 11
-2075.5401111766
 21
2426.0082526534
 31
0.0
  0
LINE
  5
248
330
1F
100
AcDbEntity
  8
0
  6
Continuous
 62
     7
370
    25
100
AcDbLine
 10
-2075.5401111766
 20
2426.0082526534
 30
0.0
 11
-2077.5849381766
 21
2426.8517866534
 31
0.0
  0
LINE
  5
249
330
1F
100
AcDbEntity
  8
0
  6
Continuous
 62
     7
370
    25
100
AcDbLine
 10
-2077.5849381766
 20
2426.8517866534
 30
0.0
 11
-2080.7316171766
 21
2427.1112476534
 31
0.0
  0
LINE
  5
24A
330
1F
100
AcDbEntity
  8
0
  6
Continuous
 62
     7
370
    25
100
AcDbLine
 10
-2080.7316171766
 20
2427.1112476534
 30
0.0
 11
-2083.6518551766
 21
2426.5941036534
 31
0.0
  0
LINE
  5
24B
330
1F
100
AcDbEntity
  8
0
  6
Continuous
 62
     7
370
    25
100
AcDbLine
 10
-2083.6518551766
 20
2426.5941036534
 30
0.0
 11
-2088.4210861766
 21
2425.4902196534
 31
0.0
  0
LINE
  5
24C
330
1F
100
AcDbEntity
  8
0
  6
Continuous
 62
     7
370
    25
100
AcDbLine
 10
-2088.4210861766
 20
2425.4902196534
 30
0.0
 11
-2091.4063481766
 21
2423.3472216534
 31
0.0
  0
LINE
  5
24D
330
1F
100
AcDbEntity
  8
0
  6
Continuous
 62
     7
370
    25
100
AcDbLine
 10
-2091.4063481766
 20
2423.3472216534
 30
0.0
 11
-2092.7688041766
 21
2422.4081836534
 31
0.0
  0
LINE
  5
24E
330
1F
100
AcDbEntity
  8
0
  6
Continuous
 62
     7
370
    25
100
AcDbLine
 10
-2092.7688041766
 20
2422.4081836534
 30
0.0
 11
-2093.3540201766
 21
2420.7853776534
 31
0.0
  0
LINE
  5
24F
330
1F
100
AcDbEntity
  8
0
  6
Continuous
 62
     7
370
    25
100
AcDbLine
 10
-2093.3540201766
 20
2420.7853776534
 30
0.0
 11
-2094.6506901766
 21
2420.2651856534
 31
0.0
  0
LINE
  5
250
330
1F
100
AcDbEntity
  8
0
  6
Continuous
 62
     7
370
    25
100
AcDbLine
 10
-2094.6506901766
 20
2420.2651856534
 30
0.0
 11
-2096.0135271766
 21
2421.8888806534
 31
0.0
  0
LINE
  5
251
330
1F
100
AcDbEntity
  8
0
  6
Continuous
 62
     7
370
    25
100
AcDbLine
 10
-2096.0135271766
 20
2421.8888806534
 30
0.0
 11
-2097.1170301766
 21
2422.6668826534
 31
0.0
  0
LINE
  5
252
330
1F
100
AcDbEntity
  8
0
  6
Continuous
 62
     7
370
    25
100
AcDbLine
 10
-2097.1170301766
 20
2422.6668826534
 30
0.0
 11
-2098.6425541766
 21
2423.0247686534
 31
0.0
  0
LINE
  5
253
330
1F
100
AcDbEntity
  8
0
  6
Continuous
 62
     7
370
    25
100
AcDbLine
 10
-2098.6425541766
 20
2423.0247686534
 30
0.0
 11
-2098.5774031766
 21
2420.8830406534
 31
0.0
  0
LINE
  5
254
330
1F
100
AcDbEntity
  8
0
  6
Continuous
 62
     7
370
    25
100
AcDbLine
 10
-2098.5774031766
 20
2420.8830406534
 30
0.0
 11
-2098.5774031766
 21
2420.4603846534
 31
0.0
  0
LINE
  5
255
330
1F
100
AcDbEntity
  8
0
  6
Continuous
 62
     7
370
    25
100
AcDbLine
 10
-2098.5774031766
 20
2420.4603846534
 30
0.0
 11
-2099.8423231766
 21
2419.5835766534
 31
0.0
  0
LINE
  5
256
330
1F
100
AcDbEntity
  8
0
  6
Continuous
 62
     7
370
    25
100
AcDbLine
 10
-2099.8423231766
 20
2419.5835766534
 30
0.0
 11
-2099.6803981766
 21
2418.9023486534
 31
0.0
  0
LINE
  5
257
330
1F
100
AcDbEntity
  8
0
  6
Continuous
 62
     7
370
    25
100
AcDbLine
 10
-2099.6803981766
 20
2418.9023486534
 30
0.0
 11
-2100.5241861766
 21
2418.1568586534
 31
0.0
  0
LINE
  5
258
330
1F
100
AcDbEntity
  8
0
  6
Continuous
 62
     7
370
    25
100
AcDbLine
 10
-2100.5241861766
 20
2418.1568586534
 30
0.0
 11
-2104.9694401766
 21
2419.1618096534
 31
0.0
  0
LINE
  5
259
330
1F
100
AcDbEntity
  8
0
  6
Continuous
 62
     7
370
    25
100
AcDbLine
 10
-2104.9694401766
 20
2419.1618096534
 30
0.0
 11
-2108.7981091766
 21
2420.3632296534
 31
0.0
  0
LINE
  5
25A
330
1F
100
AcDbEntity
  8
0
  6
Continuous
 62
     7
370
    25
100
AcDbLine
 10
-2108.7981091766
 20
2420.3632296534
 30
0.0
 11
-2113.1467161766
 21
2422.9267246534
 31
0.0
  0
LINE
  5
25B
330
1F
100
AcDbEntity
  8
0
  6
Continuous
 62
     7
370
    25
100
AcDbLine
 10
-2113.1467161766
 20
2422.9267246534
 30
0.0
 11
-2114.6064541766
 21
2425.4902196534
 31
0.0
  0
LINE
  5
25C
330
1F
100
AcDbEntity
  8
0
  6
Continuous
 62
     7
370
    25
100
AcDbLine
 10
-2114.6064541766
 20
2425.4902196534
 30
0.0
 11
-2115.1258841766
 21
2428.2155126534
 31
0.0
  0
LINE
  5
25D
330
1F
100
AcDbEntity
  8
0
  6
Continuous
 62
     7
370
    25
100
AcDbLine
 10
-2115.1258841766
 20
2428.2155126534
 30
0.0
 11
-2118.7921201766
 21
2430.0968906534
 31
0.0
  0
LINE
  5
25E
330
1F
100
AcDbEntity
  8
0
  6
Continuous
 62
     7
370
    25
100
AcDbLine
 10
-2118.7921201766
 20
2430.0968906534
 30
0.0
 11
-2117.6888711766
 21
2431.4593466534
 31
0.0
  0
LINE
  5
25F
330
1F
100
AcDbEntity
  8
0
  6
Continuous
 62
     7
370
    25
100
AcDbLine
 10
-2117.6888711766
 20
2431.4593466534
 30
0.0
 11
-2115.9691641766
 21
2432.8226916534
 31
0.0
  0
LINE
  5
260
330
1F
100
AcDbEntity
  8
0
  6
Continuous
 62
     7
370
    25
100
AcDbLine
 10
-2115.9691641766
 20
2432.8226916534
 30
0.0
 11
-2110.7776581766
 21
2432.7255366534
 31
0.0
  0
LINE
  5
261
330
1F
100
AcDbEntity
  8
0
  6
Continuous
 62
     7
370
    25
100
AcDbLine
 10
-2110.7776581766
 20
2432.7255366534
 30
0.0
 11
-2110.0957951766
 21
2430.5182766534
 31
0.0
  0
LINE
  5
262
330
1F
100
AcDbEntity
  8
0
  6
Continuous
 62
     7
370
    25
100
AcDbLine
 10
-2110.0957951766
 20
2430.5182766534
 30
0.0
 11
-2108.5383941766
 21
2431.1989966534
 31
0.0
  0
LINE
  5
263
330
1F
100
AcDbEntity
  8
0
  6
Continuous
 62
     7
370
    25
100
AcDbLine
 10
-2108.5383941766
 20
2431.1989966534
 30
0.0
 11
-2108.3760881766
 21
2433.4063836534
 31
0.0
  0
LINE
  5
264
330
1F
100
AcDbEntity
  8
0
  6
Continuous
 62
     7
370
    25
100
AcDbLine
 10
-2108.3760881766
 20
2433.4063836534
 30
0.0
 11
-2106.2343601766
 21
2434.8659946534
 31
0.0
  0
LINE
  5
265
330
1F
100
AcDbEntity
  8
0
  6
Continuous
 62
     7
370
    25
100
AcDbLine
 10
-2106.2343601766
 20
2434.8659946534
 30
0.0
 11
-2107.3702481766
 21
2438.4680956534
 31
0.0
  0
LINE
  5
266
330
1F
100
AcDbEntity
  8
0
  6
Continuous
 62
     7
370
    25
100
AcDbLine
 10
-2107.3702481766
 20
2438.4680956534
 30
0.0
 11
-2108.4729891766
 21
2439.2144746534
 31
0.0
  0
LINE
  5
267
330
1F
100
AcDbEntity
  8
0
  6
Continuous
 62
     7
370
    25
100
AcDbLine
 10
-2108.4729891766
 20
2439.2144746534
 30
0.0
 11
-2108.7981091766
 21
2440.2505406534
 31
0.0
  0
LINE
  5
268
330
1F
100
AcDbEntity
  8
0
  6
Continuous
 62
     7
370
    25
100
AcDbLine
 10
-2108.7981091766
 20
2440.2505406534
 30
0.0
 11
-2106.4296861766
 21
2443.1404256534
 31
0.0
  0
LINE
  5
269
330
1F
100
AcDbEntity
  8
0
  6
Continuous
 62
     7
370
    25
100
AcDbLine
 10
-2106.4296861766
 20
2443.1404256534
 30
0.0
 11
-2105.3269451766
 21
2442.6229006534
 31
0.0
  0
LINE
  5
26A
330
1F
100
AcDbEntity
  8
0
  6
Continuous
 62
     7
370
    25
100
AcDbLine
 10
-2105.3269451766
 20
2442.6229006534
 30
0.0
 11
-2104.0281161766
 21
2443.9202056534
 31
0.0
  0
LINE
  5
26B
330
1F
100
AcDbEntity
  8
0
  6
Continuous
 62
     7
370
    25
100
AcDbLine
 10
-2104.0281161766
 20
2443.9202056534
 30
0.0
 11
-2101.9844321766
 21
2444.2439286534
 31
0.0
  0
LINE
  5
26C
330
1F
100
AcDbEntity
  8
0
  6
Continuous
 62
     7
370
    25
100
AcDbLine
 10
-2101.9844321766
 20
2444.2439286534
 30
0.0
 11
-2101.1402631766
 21
2444.7619616534
 31
0.0
  0
LINE
  5
26D
330
1F
100
AcDbEntity
  8
0
  6
Continuous
 62
     7
370
    25
100
AcDbLine
 10
-2101.1402631766
 20
2444.7619616534
 30
0.0
 11
-2101.8218721766
 21
2445.9630006534
 31
0.0
  0
LINE
  5
26E
330
1F
100
AcDbEntity
  8
0
  6
Continuous
 62
     7
370
    25
100
AcDbLine
 10
-2101.8218721766
 20
2445.9630006534
 30
0.0
 11
-2098.6425541766
 21
2446.3847676534
 31
0.0
  0
LINE
  5
26F
330
1F
100
AcDbEntity
  8
0
  6
Continuous
 62
     7
370
    25
100
AcDbLine
 10
-2098.6425541766
 20
2446.3847676534
 30
0.0
 11
-2099.3234011766
 21
2451.2530586534
 31
0.0
  0
LINE
  5
270
330
1F
100
AcDbEntity
  8
0
  6
Continuous
 62
     7
370
    25
100
AcDbLine
 10
-2099.3234011766
 20
2451.2530586534
 30
0.0
 11
-2098.5774031766
 21
2452.6160226534
 31
0.0
  0
LINE
  5
271
330
1F
100
AcDbEntity
  8
0
  6
Continuous
 62
     7
370
    25
100
AcDbLine
 10
-2098.5774031766
 20
2452.6160226534
 30
0.0
 11
-2093.7106361766
 21
2453.5553146534
 31
0.0
  0
LINE
  5
272
330
1F
100
AcDbEntity
  8
0
  6
Continuous
 62
     7
370
    25
100
AcDbLine
 10
-2093.7106361766
 20
2453.5553146534
 30
0.0
 11
-2092.4121881766
 21
2454.4965116534
 31
0.0
  0
LINE
  5
273
330
1F
100
AcDbEntity
  8
0
  6
Continuous
 62
     7
370
    25
100
AcDbLine
 10
-2092.4121881766
 20
2454.4965116534
 30
0.0
 11
-2091.1473951766
 21
2456.3795406534
 31
0.0
  0
LINE
  5
274
330
1F
100
AcDbEntity
  8
0
  6
Continuous
 62
     7
370
    25
100
AcDbLine
 10
-2091.1473951766
 20
2456.3795406534
 30
0.0
 11
-2092.4121881766
 21
2458.5199986534
 31
0.0
  0
LINE
  5
275
330
1F
100
AcDbEntity
  8
0
  6
Continuous
 62
     7
370
    25
100
AcDbLine
 10
-2092.4121881766
 20
2458.5199986534
 30
0.0
 11
-2088.4864911766
 21
2463.2916426534
 31
0.0
  0
LINE
  5
276
330
1F
100
AcDbEntity
  8
0
  6
Continuous
 62
     7
370
    25
100
AcDbLine
 10
-2088.4864911766
 20
2463.2916426534
 30
0.0
 11
-2092.1856201766
 21
2467.9954686534
 31
0.0
  0
LINE
  5
277
330
1F
100
AcDbEntity
  8
0
  6
Continuous
 62
     7
370
    25
100
AcDbLine
 10
-2092.1856201766
 20
2467.9954686534
 30
0.0
 11
-2091.0502401766
 21
2469.6821556534
 31
0.0
  0
LINE
  5
278
330
1F
100
AcDbEntity
  8
0
  6
Continuous
 62
     7
370
    25
100
AcDbLine
 10
-2091.0502401766
 20
2469.6821556534
 30
0.0
 11
-2092.6719031766
 21
2474.9054116534
 31
0.0
  0
LINE
  5
279
330
1F
100
AcDbEntity
  8
0
  6
Continuous
 62
     7
370
    25
100
AcDbLine
 10
-2092.6719031766
 20
2474.9054116534
 30
0.0
 11
-2089.6871491766
 21
2476.1719826534
 31
0.0
  0
LINE
  5
27A
330
1F
100
AcDbEntity
  8
0
  6
Continuous
 62
     7
370
    25
100
AcDbLine
 10
-2089.6871491766
 20
2476.1719826534
 30
0.0
 11
-2089.8815861766
 21
2476.9503656534
 31
0.0
  0
LINE
  5
27B
330
1F
100
AcDbEntity
  8
0
  6
Continuous
 62
     7
370
    25
100
AcDbLine
 10
-2089.8815861766
 20
2476.9503656534
 30
0.0
 11
-2087.8043741766
 21
2478.4747466534
 31
0.0
  0
LINE
  5
27C
330
1F
100
AcDbEntity
  8
0
  6
Continuous
 62
     7
370
    25
100
AcDbLine
 10
-2087.8043741766
 20
2478.4747466534
 30
0.0
 11
-2084.9182991766
 21
2478.4747466534
 31
0.0
  0
LINE
  5
27D
330
1F
100
AcDbEntity
  8
0
  6
Continuous
 62
     7
370
    25
100
AcDbLine
 10
-2084.9182991766
 20
2478.4747466534
 30
0.0
 11
-2084.6576951766
 21
2479.9352466534
 31
0.0
  0
LINE
  5
27E
330
1F
100
AcDbEntity
  8
0
  6
Continuous
 62
     7
370
    25
100
AcDbLine
 10
-2084.6576951766
 20
2479.9352466534
 30
0.0
 11
-2083.1974491766
 21
2479.8380916534
 31
0.0
  0
LINE
  5
27F
330
1F
100
AcDbEntity
  8
0
  6
Continuous
 62
     7
370
    25
100
AcDbLine
 10
-2083.1974491766
 20
2479.8380916534
 30
0.0
 11
-2082.7111661766
 21
2478.2152856534
 31
0.0
  0
LINE
  5
280
330
1F
100
AcDbEntity
  8
0
  6
Continuous
 62
     7
370
    25
100
AcDbLine
 10
-2082.7111661766
 20
2478.2152856534
 30
0.0
 11
-2082.6131221766
 21
2475.9130296534
 31
0.0
  0
LINE
  5
281
330
1F
100
AcDbEntity
  8
0
  6
Continuous
 62
     7
370
    25
100
AcDbLine
 10
-2082.6131221766
 20
2475.9130296534
 30
0.0
 11
-2083.1974491766
 21
2473.7700316534
 31
0.0
  0
LINE
  5
282
330
1F
100
AcDbEntity
  8
0
  6
Continuous
 62
     7
370
    25
100
AcDbLine
 10
-2083.1974491766
 20
2473.7700316534
 30
0.0
 11
-2083.9755781766
 21
2472.3431866534
 31
0.0
  0
LINE
  5
283
330
1F
100
AcDbEntity
  8
0
  6
Continuous
 62
     7
370
    25
100
AcDbLine
 10
-2083.9755781766
 20
2472.3431866534
 30
0.0
 11
-2082.3535341766
 21
2471.9861896534
 31
0.0
  0
LINE
  5
284
330
1F
100
AcDbEntity
  8
0
  6
Continuous
 62
     7
370
    25
100
AcDbLine
 10
-2082.3535341766
 20
2471.9861896534
 30
0.0
 11
-2081.1540191766
 21
2473.6072176534
 31
0.0
  0
LINE
  5
285
330
1F
100
AcDbEntity
  8
0
  6
Continuous
 62
     7
370
    25
100
AcDbLine
 10
-2081.1540191766
 20
2473.6072176534
 30
0.0
 11
-2080.3099771766
 21
2473.5420666534
 31
0.0
  0
LINE
  5
286
330
1F
100
AcDbEntity
  8
0
  6
Continuous
 62
     7
370
    25
100
AcDbLine
 10
-2080.3099771766
 20
2473.5420666534
 30
0.0
 11
-2081.1540191766
 21
2475.0673366534
 31
0.0
  0
LINE
  5
287
330
1F
100
AcDbEntity
  8
0
  6
Continuous
 62
     7
370
    25
100
AcDbLine
 10
-2081.1540191766
 20
2475.0673366534
 30
0.0
 11
-2079.9532341766
 21
2477.5349466534
 31
0.0
  0
LINE
  5
288
330
1F
100
AcDbEntity
  8
0
  6
Continuous
 62
     7
370
    25
100
AcDbLine
 10
-2079.9532341766
 20
2477.5349466534
 30
0.0
 11
-2079.1088111766
 21
2477.6963636534
 31
0.0
  0
LINE
  5
289
330
1F
100
AcDbEntity
  8
0
  6
Continuous
 62
     7
370
    25
100
AcDbLine
 10
-2079.1088111766
 20
2477.6963636534
 30
0.0
 11
-2077.7467361766
 21
2473.8679486534
 31
0.0
  0
LINE
  5
28A
330
1F
100
AcDbEntity
  8
0
  6
Continuous
 62
     7
370
    25
100
AcDbLine
 10
-2077.7467361766
 20
2473.8679486534
 30
0.0
 11
-2077.1624091766
 21
2474.1261396534
 31
0.0
  0
LINE
  5
28B
330
1F
100
AcDbEntity
  8
0
  6
Continuous
 62
     7
370
    25
100
AcDbLine
 10
-2077.1624091766
 20
2474.1261396534
 30
0.0
 11
-2076.9682261766
 21
2475.4894846534
 31
0.0
  0
LINE
  5
28C
330
1F
100
AcDbEntity
  8
0
  6
Continuous
 62
     7
370
    25
100
AcDbLine
 10
-2076.9682261766
 20
2475.4894846534
 30
0.0
 11
-2074.2426791766
 21
2477.9570946534
 31
0.0
  0
LINE
  5
28D
330
1F
100
AcDbEntity
  8
0
  6
Continuous
 62
     7
370
    25
100
AcDbLine
 10
-2074.2426791766
 20
2477.9570946534
 30
0.0
 11
-2073.3988911766
 21
2476.6909046534
 31
0.0
  0
LINE
  5
28E
330
1F
100
AcDbEntity
  8
0
  6
Continuous
 62
     7
370
    25
100
AcDbLine
 10
-2073.3988911766
 20
2476.6909046534
 30
0.0
 11
-2074.7617281766
 21
2474.9054116534
 31
0.0
  0
LINE
  5
28F
330
1F
100
AcDbEntity
  8
0
  6
Continuous
 62
     7
370
    25
100
AcDbLine
 10
-2074.7617281766
 20
2474.9054116534
 30
0.0
 11
-2073.1386681766
 21
2473.9647226534
 31
0.0
  0
LINE
  5
290
330
1F
100
AcDbEntity
  8
0
  6
Continuous
 62
     7
370
    25
100
AcDbLine
 10
-2073.1386681766
 20
2473.9647226534
 30
0.0
 11
-2072.1003161766
 21
2473.8679486534
 31
0.0
  0
LINE
  5
291
330
1F
100
AcDbEntity
  8
0
  6
Continuous
 62
     7
370
    25
100
AcDbLine
 10
-2072.1003161766
 20
2473.8679486534
 30
0.0
 11
-2071.1921391766
 21
2471.6619586534
 31
0.0
  0
LINE
  5
292
330
1F
100
AcDbEntity
  8
0
  6
Continuous
 62
     7
370
    25
100
AcDbLine
 10
-2071.1921391766
 20
2471.6619586534
 30
0.0
 11
-2069.1156891766
 21
2471.7254586534
 31
0.0
  0
LINE
  5
293
330
1F
100
AcDbEntity
  8
0
  6
Continuous
 62
     7
370
    25
100
AcDbLine
 10
-2069.1156891766
 20
2471.7254586534
 30
0.0
 11
-2069.6346111766
 21
2474.1261396534
 31
0.0
  0
LINE
  5
294
330
1F
100
AcDbEntity
  8
0
  6
Continuous
 62
     7
370
    25
100
AcDbLine
 10
-2069.6346111766
 20
2474.1261396534
 30
0.0
 11
-2068.7912041766
 21
2474.2241836534
 31
0.0
  0
LINE
  5
295
330
1F
100
AcDbEntity
  8
0
  6
Continuous
 62
     7
370
    25
100
AcDbLine
 10
-2068.7912041766
 20
2474.2241836534
 30
0.0
 11
-2068.2716471766
 21
2473.0879146534
 31
0.0
  0
LINE
  5
296
330
1F
100
AcDbEntity
  8
0
  6
Continuous
 62
     7
370
    25
100
AcDbLine
 10
-2068.2716471766
 20
2473.0879146534
 30
0.0
 11
-2066.7462501766
 21
2473.6072176534
 31
0.0
  0
LINE
  5
297
330
1F
100
AcDbEntity
  8
0
  6
Continuous
 62
     7
370
    25
100
AcDbLine
 10
-2066.7462501766
 20
2473.6072176534
 30
0.0
 11
-2067.0060921766
 21
2475.3927106534
 31
0.0
  0
LINE
  5
298
330
1F
100
AcDbEntity
  8
0
  6
Continuous
 62
     7
370
    25
100
AcDbLine
 10
-2067.0060921766
 20
2475.3927106534
 30
0.0
 11
-2066.0654031766
 21
2476.0735576534
 31
0.0
  0
LINE
  5
299
330
1F
100
AcDbEntity
  8
0
  6
Continuous
 62
     7
370
    25
100
AcDbLine
 10
-2066.0654031766
 20
2476.0735576534
 30
0.0
 11
-2064.3464581766
 21
2474.6459506534
 31
0.0
  0
LINE
  5
29A
330
1F
100
AcDbEntity
  8
0
  6
Continuous
 62
     7
370
    25
100
AcDbLine
 10
-2064.3464581766
 20
2474.6459506534
 30
0.0
 11
-2064.1832631766
 21
2470.8831946534
 31
0.0
  0
LINE
  5
29B
330
1F
100
AcDbEntity
  8
0
  6
Continuous
 62
     7
370
    25
100
AcDbLine
 10
-2064.1832631766
 20
2470.8831946534
 30
0.0
 11
-2061.2627711766
 21
2469.9416166534
 31
0.0
  0
LINE
  5
29C
330
1F
100
AcDbEntity
  8
0
  6
Continuous
 62
     7
370
    25
100
AcDbLine
 10
-2061.2627711766
 20
2469.9416166534
 30
0.0
 11
-2060.5830671766
 21
2471.9205306534
 31
0.0
  0
LINE
  5
29D
330
1F
100
AcDbEntity
  8
0
  6
Continuous
 62
     7
370
    25
100
AcDbLine
 10
-2060.5830671766
 20
2471.9205306534
 30
0.0
 11
-2059.0575431766
 21
2472.2451426534
 31
0.0
  0
LINE
  5
29E
330
1F
100
AcDbEntity
  8
0
  6
Continuous
 62
     7
370
    25
100
AcDbLine
 10
-2059.0575431766
 20
2472.2451426534
 30
0.0
 11
-2057.607904539
 21
2471.4928882135
 31
0.0
  0
LINE
  5
29F
330
1F
100
AcDbEntity
  8
0
  6
Continuous
 62
     7
370
    25
100
AcDbLine
 10
-2057.607904539
 20
2471.4928882135
 30
0.0
 11
-2055.6790195408
 21
2472.4780477206
 31
0.0
  0
LINE
  5
2A0
330
1F
100
AcDbEntity
  8
0
  6
Continuous
 62
     7
370
    25
100
AcDbLine
 10
-2055.6790195408
 20
2472.4780477206
 30
0.0
 11
-2054.2048349125
 21
2474.2699038513
 31
0.0
  0
LINE
  5
2A1
330
1F
100
AcDbEntity
  8
0
  6
Continuous
 62
     7
370
    25
100
AcDbLine
 10
-2054.2048349125
 20
2474.2699038513
 30
0.0
 11
-2057.5972971766
 21
2476.8537186534
 31
0.0
  0
LINE
  5
2A2
330
1F
100
AcDbEntity
  8
0
  6
Continuous
 62
     7
370
    25
100
AcDbLine
 10
-2057.5972971766
 20
2476.8537186534
 30
0.0
 11
-2060.6785711766
 21
2479.3182806534
 31
0.0
  0
LINE
  5
2A3
330
1F
100
AcDbEntity
  8
0
  6
Continuous
 62
     7
370
    25
100
AcDbLine
 10
-2060.6785711766
 20
2479.3182806534
 30
0.0
 11
-2058.9597531766
 21
2480.8763166534
 31
0.0
  0
LINE
  5
2A4
330
1F
100
AcDbEntity
  8
0
  6
Continuous
 62
     7
370
    25
100
AcDbLine
 10
-2058.9597531766
 20
2480.8763166534
 30
0.0
 11
-2058.1160921766
 21
2486.9102136534
 31
0.0
  0
LINE
  5
2A5
330
1F
100
AcDbEntity
  8
0
  6
Continuous
 62
     7
370
    25
100
AcDbLine
 10
-2058.1160921766
 20
2486.9102136534
 30
0.0
 11
-2058.2137551766
 21
2489.8319756534
 31
0.0
  0
LINE
  5
2A6
330
1F
100
AcDbEntity
  8
0
  6
Continuous
 62
     7
370
    25
100
AcDbLine
 10
-2058.2137551766
 20
2489.8319756534
 30
0.0
 11
-2059.4786751766
 21
2491.7795206534
 31
0.0
  0
LINE
  5
2A7
330
1F
100
AcDbEntity
  8
0
  6
Continuous
 62
     7
370
    25
100
AcDbLine
 10
-2059.4786751766
 20
2491.7795206534
 30
0.0
 11
-2060.7759801766
 21
2493.9185816534
 31
0.0
  0
LINE
  5
2A8
330
1F
100
AcDbEntity
  8
0
  6
Continuous
 62
     7
370
    25
100
AcDbLine
 10
-2060.7759801766
 20
2493.9185816534
 30
0.0
 11
-2062.4636831766
 21
2495.8021186534
 31
0.0
  0
LINE
  5
2A9
330
1F
100
AcDbEntity
  8
0
  6
Continuous
 62
     7
370
    25
100
AcDbLine
 10
-2062.4636831766
 20
2495.8021186534
 30
0.0
 11
-2064.2805451766
 21
2494.3412376534
 31
0.0
  0
LINE
  5
2AA
330
1F
100
AcDbEntity
  8
0
  6
Continuous
 62
     7
370
    25
100
AcDbLine
 10
-2064.2805451766
 20
2494.3412376534
 30
0.0
 11
-2065.9681211766
 21
2498.4294946534
 31
0.0
  0
LINE
  5
2AB
330
1F
100
AcDbEntity
  8
0
  6
Continuous
 62
     7
370
    25
100
AcDbLine
 10
-2065.9681211766
 20
2498.4294946534
 30
0.0
 11
-2068.6295331766
 21
2497.5876116534
 31
0.0
  0
LINE
  5
2AC
330
1F
100
AcDbEntity
  8
0
  6
Continuous
 62
     7
370
    25
100
AcDbLine
 10
-2068.6295331766
 20
2497.5876116534
 30
0.0
 11
-2069.2134791766
 21
2499.2082586534
 31
0.0
  0
LINE
  5
2AD
330
1F
100
AcDbEntity
  8
0
  6
Continuous
 62
     7
370
    25
100
AcDbLine
 10
-2069.2134791766
 20
2499.2082586534
 30
0.0
 11
-2070.4133751766
 21
2499.0459526534
 31
0.0
  0
LINE
  5
2AE
330
1F
100
AcDbEntity
  8
0
  6
Continuous
 62
     7
370
    25
100
AcDbLine
 10
-2070.4133751766
 20
2499.0459526534
 30
0.0
 11
-2071.0942221766
 21
2500.0517926534
 31
0.0
  0
LINE
  5
2AF
330
1F
100
AcDbEntity
  8
0
  6
Continuous
 62
     7
370
    25
100
AcDbLine
 10
-2071.0942221766
 20
2500.0517926534
 30
0.0
 11
-2069.7972981766
 21
2501.0914146534
 31
0.0
  0
LINE
  5
2B0
330
1F
100
AcDbEntity
  8
0
  6
Continuous
 62
     7
370
    25
100
AcDbLine
 10
-2069.7972981766
 20
2501.0914146534
 30
0.0
 11
-2070.2513231766
 21
2502.4538706534
 31
0.0
  0
LINE
  5
2B1
330
1F
100
AcDbEntity
  8
0
  6
Continuous
 62
     7
370
    25
100
AcDbLine
 10
-2070.2513231766
 20
2502.4538706534
 30
0.0
 11
-2069.3106341766
 21
2503.2317456534
 31
0.0
  0
LINE
  5
2B2
330
1F
100
AcDbEntity
  8
0
  6
Continuous
 62
     7
370
    25
100
AcDbLine
 10
-2069.3106341766
 20
2503.2317456534
 30
0.0
 11
-2069.5698411766
 21
2505.6014386534
 31
0.0
  0
LINE
  5
2B3
330
1F
100
AcDbEntity
  8
0
  6
Continuous
 62
     7
370
    25
100
AcDbLine
 10
-2069.5698411766
 20
2505.6014386534
 30
0.0
 11
-2072.2950071766
 21
2505.4395136534
 31
0.0
  0
LINE
  5
2B4
330
1F
100
AcDbEntity
  8
0
  6
Continuous
 62
     7
370
    25
100
AcDbLine
 10
-2072.2950071766
 20
2505.4395136534
 30
0.0
 11
-2073.2365851766
 21
2507.0592716534
 31
0.0
  0
LINE
  5
2B5
330
1F
100
AcDbEntity
  8
0
  6
Continuous
 62
     7
370
    25
100
AcDbLine
 10
-2073.2365851766
 20
2507.0592716534
 30
0.0
 11
-2070.9971941766
 21
2507.7413886534
 31
0.0
  0
LINE
  5
2B6
330
1F
100
AcDbEntity
  8
0
  6
Continuous
 62
     7
370
    25
100
AcDbLine
 10
-2070.9971941766
 20
2507.7413886534
 30
0.0
 11
-2070.9971941766
 21
2512.2832896534
 31
0.0
  0
LINE
  5
2B7
330
1F
100
AcDbEntity
  8
0
  6
Continuous
 62
     7
370
    25
100
AcDbLine
 10
-2070.9971941766
 20
2512.2832896534
 30
0.0
 11
-2069.9918621766
 21
2513.3885706534
 31
0.0
  0
LINE
  5
2B8
330
1F
100
AcDbEntity
  8
0
  6
Continuous
 62
     7
370
    25
100
AcDbLine
 10
-2069.9918621766
 20
2513.3885706534
 30
0.0
 11
-2070.7384951766
 21
2517.5747446534
 31
0.0
  0
LINE
  5
2B9
330
1F
100
AcDbEntity
  8
0
  6
Continuous
 62
     7
370
    25
100
AcDbLine
 10
-2070.7384951766
 20
2517.5747446534
 30
0.0
 11
-2072.0356731766
 21
2517.3787836534
 31
0.0
  0
LINE
  5
2BA
330
1F
100
AcDbEntity
  8
0
  6
Continuous
 62
     7
370
    25
100
AcDbLine
 10
-2072.0356731766
 20
2517.3787836534
 30
0.0
 11
-2073.9175591766
 21
2516.6336746534
 31
0.0
  0
LINE
  5
2BB
330
1F
100
AcDbEntity
  8
0
  6
Continuous
 62
     7
370
    25
100
AcDbLine
 10
-2073.9175591766
 20
2516.6336746534
 30
0.0
 11
-2073.8206581766
 21
2515.2689326534
 31
0.0
  0
LINE
  5
2BC
330
1F
100
AcDbEntity
  8
0
  6
Continuous
 62
     7
370
    25
100
AcDbLine
 10
-2073.8206581766
 20
2515.2689326534
 30
0.0
 11
-2074.8586291766
 21
2514.6538716534
 31
0.0
  0
LINE
  5
2BD
330
1F
100
AcDbEntity
  8
0
  6
Continuous
 62
     7
370
    25
100
AcDbLine
 10
-2074.8586291766
 20
2514.6538716534
 30
0.0
 11
-2076.3836451766
 21
2515.3350996534
 31
0.0
  0
LINE
  5
2BE
330
1F
100
AcDbEntity
  8
0
  6
Continuous
 62
     7
370
    25
100
AcDbLine
 10
-2076.3836451766
 20
2515.3350996534
 30
0.0
 11
-2077.3245881766
 21
2517.3787836534
 31
0.0
  0
LINE
  5
2BF
330
1F
100
AcDbEntity
  8
0
  6
Continuous
 62
     7
370
    25
100
AcDbLine
 10
-2077.3245881766
 20
2517.3787836534
 30
0.0
 11
-2077.0646191766
 21
2517.9956226534
 31
0.0
  0
LINE
  5
2C0
330
1F
100
AcDbEntity
  8
0
  6
Continuous
 62
     7
370
    25
100
AcDbLine
 10
-2077.0646191766
 20
2517.9956226534
 30
0.0
 11
-2077.4221241766
 21
2519.7812426534
 31
0.0
  0
LINE
  5
2C1
330
1F
100
AcDbEntity
  8
0
  6
Continuous
 62
     7
370
    25
100
AcDbLine
 10
-2077.4221241766
 20
2519.7812426534
 30
0.0
 11
-2078.5257541766
 21
2519.9408816534
 31
0.0
  0
LINE
  5
2C2
330
1F
100
AcDbEntity
  8
0
  6
Continuous
 62
     7
370
    25
100
AcDbLine
 10
-2078.5257541766
 20
2519.9408816534
 30
0.0
 11
-2078.6874251766
 21
2521.6621126534
 31
0.0
  0
LINE
  5
2C3
330
1F
100
AcDbEntity
  8
0
  6
Continuous
 62
     7
370
    25
100
AcDbLine
 10
-2078.6874251766
 20
2521.6621126534
 30
0.0
 11
-2080.1472901766
 21
2521.6621126534
 31
0.0
  0
LINE
  5
2C4
330
1F
100
AcDbEntity
  8
0
  6
Continuous
 62
     7
370
    25
100
AcDbLine
 10
-2080.1472901766
 20
2521.6621126534
 30
0.0
 11
-2080.8291531766
 21
2522.8636596534
 31
0.0
  0
LINE
  5
2C5
330
1F
100
AcDbEntity
  8
0
  6
Continuous
 62
     7
370
    25
100
AcDbLine
 10
-2080.8291531766
 20
2522.8636596534
 30
0.0
 11
-2083.2946041766
 21
2522.0847686534
 31
0.0
  0
LINE
  5
2C6
330
1F
100
AcDbEntity
  8
0
  6
Continuous
 62
     7
370
    25
100
AcDbLine
 10
-2083.2946041766
 20
2522.0847686534
 30
0.0
 11
-2082.8728371766
 21
2524.8096806534
 31
0.0
  0
LINE
  5
2C7
330
1F
100
AcDbEntity
  8
0
  6
Continuous
 62
     7
370
    25
100
AcDbLine
 10
-2082.8728371766
 20
2524.8096806534
 30
0.0
 11
-2083.5538111766
 21
2525.8471436534
 31
0.0
  0
LINE
  5
2C8
330
1F
100
AcDbEntity
  8
0
  6
Continuous
 62
     7
370
    25
100
AcDbLine
 10
-2083.5538111766
 20
2525.8471436534
 30
0.0
 11
-2084.3328291766
 21
2525.5889526534
 31
0.0
  0
LINE
  5
2C9
330
1F
100
AcDbEntity
  8
0
  6
Continuous
 62
     7
370
    25
100
AcDbLine
 10
-2084.3328291766
 20
2525.5889526534
 30
0.0
 11
-2084.4956431766
 21
2527.2742426534
 31
0.0
  0
LINE
  5
2CA
330
1F
100
AcDbEntity
  8
0
  6
Continuous
 62
     7
370
    25
100
AcDbLine
 10
-2084.4956431766
 20
2527.2742426534
 30
0.0
 11
-2082.4517051766
 21
2528.4761706534
 31
0.0
  0
LINE
  5
2CB
330
1F
100
AcDbEntity
  8
0
  6
Continuous
 62
     7
370
    25
100
AcDbLine
 10
-2082.4517051766
 20
2528.4761706534
 30
0.0
 11
-2082.0299381766
 21
2530.6182796534
 31
0.0
  0
LINE
  5
2CC
330
1F
100
AcDbEntity
  8
0
  6
Continuous
 62
     7
370
    25
100
AcDbLine
 10
-2082.0299381766
 20
2530.6182796534
 30
0.0
 11
-2082.2558711766
 21
2535.6464636534
 31
0.0
  0
LINE
  5
2CD
330
1F
100
AcDbEntity
  8
0
  6
Continuous
 62
     7
370
    25
100
AcDbLine
 10
-2082.2558711766
 20
2535.6464636534
 30
0.0
 11
-2079.5309591766
 21
2537.6257586534
 31
0.0
  0
LINE
  5
2CE
330
1F
100
AcDbEntity
  8
0
  6
Continuous
 62
     7
370
    25
100
AcDbLine
 10
-2079.5309591766
 20
2537.6257586534
 30
0.0
 11
-2079.1088111766
 21
2538.3069866534
 31
0.0
  0
LINE
  5
2CF
330
1F
100
AcDbEntity
  8
0
  6
Continuous
 62
     7
370
    25
100
AcDbLine
 10
-2079.1088111766
 20
2538.3069866534
 30
0.0
 11
-2079.5309591766
 21
2539.5722876534
 31
0.0
  0
LINE
  5
2D0
330
1F
100
AcDbEntity
  8
0
  6
Continuous
 62
     7
370
    25
100
AcDbLine
 10
-2079.5309591766
 20
2539.5722876534
 30
0.0
 11
-2081.5751511766
 21
2539.7342126534
 31
0.0
  0
LINE
  5
2D1
330
1F
100
AcDbEntity
  8
0
  6
Continuous
 62
     7
370
    25
100
AcDbLine
 10
-2081.5751511766
 20
2539.7342126534
 30
0.0
 11
-2081.5751511766
 21
2540.6101316534
 31
0.0
  0
LINE
  5
2D2
330
1F
100
AcDbEntity
  8
0
  6
Continuous
 62
     7
370
    25
100
AcDbLine
 10
-2081.5751511766
 20
2540.6101316534
 30
0.0
 11
-2079.6283681766
 21
2542.2329376534
 31
0.0
  0
LINE
  5
2D3
330
1F
100
AcDbEntity
  8
0
  6
Continuous
 62
     7
370
    25
100
AcDbLine
 10
-2079.6283681766
 20
2542.2329376534
 30
0.0
 11
-2081.8346121766
 21
2543.0782496534
 31
0.0
  0
LINE
  5
2D4
330
1F
100
AcDbEntity
  8
0
  6
Continuous
 62
     7
370
    25
100
AcDbLine
 10
-2081.8346121766
 20
2543.0782496534
 30
0.0
 11
-2082.7111661766
 21
2547.5882736534
 31
0.0
  0
LINE
  5
2D5
330
1F
100
AcDbEntity
  8
0
  6
Continuous
 62
     7
370
    25
100
AcDbLine
 10
-2082.7111661766
 20
2547.5882736534
 30
0.0
 11
-2085.5982571766
 21
2547.1638396534
 31
0.0
  0
LINE
  5
2D6
330
1F
100
AcDbEntity
  8
0
  6
Continuous
 62
     7
370
    25
100
AcDbLine
 10
-2085.5982571766
 20
2547.1638396534
 30
0.0
 11
-2087.0585031766
 21
2545.0235086534
 31
0.0
  0
LINE
  5
2D7
330
1F
100
AcDbEntity
  8
0
  6
Continuous
 62
     7
370
    25
100
AcDbLine
 10
-2087.0585031766
 20
2545.0235086534
 30
0.0
 11
-2090.4655321766
 21
2546.3211946534
 31
0.0
  0
LINE
  5
2D8
330
1F
100
AcDbEntity
  8
0
  6
Continuous
 62
     7
370
    25
100
AcDbLine
 10
-2090.4655321766
 20
2546.3211946534
 30
0.0
 11
-2092.3476721766
 21
2549.8901486534
 31
0.0
  0
LINE
  5
2D9
330
1F
100
AcDbEntity
  8
0
  6
Continuous
 62
     7
370
    25
100
AcDbLine
 10
-2092.3476721766
 20
2549.8901486534
 30
0.0
 11
-2092.6719031766
 21
2552.3883656534
 31
0.0
  0
LINE
  5
2DA
330
1F
100
AcDbEntity
  8
0
  6
Continuous
 62
     7
370
    25
100
AcDbLine
 10
-2092.6719031766
 20
2552.3883656534
 30
0.0
 11
-2092.6400261766
 21
2552.5830566534
 31
0.0
  0
LINE
  5
2DB
330
1F
100
AcDbEntity
  8
0
  6
Continuous
 62
     7
370
    25
100
AcDbLine
 10
-2092.6400261766
 20
2552.5830566534
 30
0.0
 11
-2092.6070061766
 21
2552.1936746534
 31
0.0
  0
LINE
  5
2DC
330
1F
100
AcDbEntity
  8
0
  6
Continuous
 62
     7
370
    25
100
AcDbLine
 10
-2092.6070061766
 20
2552.1936746534
 30
0.0
 11
-2090.8872991766
 21
2551.9351026534
 31
0.0
  0
LINE
  5
2DD
330
1F
100
AcDbEntity
  8
0
  6
Continuous
 62
     7
370
    25
100
AcDbLine
 10
-2090.8872991766
 20
2551.9351026534
 30
0.0
 11
-2089.9466101766
 21
2553.7517106534
 31
0.0
  0
LINE
  5
2DE
330
1F
100
AcDbEntity
  8
0
  6
Continuous
 62
     7
370
    25
100
AcDbLine
 10
-2089.9466101766
 20
2553.7517106534
 30
0.0
 11
-2089.9466101766
 21
2555.7962836534
 31
0.0
  0
LINE
  5
2DF
330
1F
100
AcDbEntity
  8
0
  6
Continuous
 62
     7
370
    25
100
AcDbLine
 10
-2089.9466101766
 20
2555.7962836534
 30
0.0
 11
-2087.5772981766
 21
2555.7962836534
 31
0.0
  0
LINE
  5
2E0
330
1F
100
AcDbEntity
  8
0
  6
Continuous
 62
     7
370
    25
100
AcDbLine
 10
-2087.5772981766
 20
2555.7962836534
 30
0.0
 11
-2086.7985341766
 21
2555.9582086534
 31
0.0
  0
LINE
  5
2E1
330
1F
100
AcDbEntity
  8
0
  6
Continuous
 62
     7
370
    25
100
AcDbLine
 10
-2086.7985341766
 20
2555.9582086534
 30
0.0
 11
-2087.3831151766
 21
2557.4820816534
 31
0.0
  0
LINE
  5
2E2
330
1F
100
AcDbEntity
  8
0
  6
Continuous
 62
     7
370
    25
100
AcDbLine
 10
-2087.3831151766
 20
2557.4820816534
 30
0.0
 11
-2086.2801201766
 21
2558.6191126534
 31
0.0
  0
LINE
  5
2E3
330
1F
100
AcDbEntity
  8
0
  6
Continuous
 62
     7
370
    25
100
AcDbLine
 10
-2086.2801201766
 20
2558.6191126534
 30
0.0
 11
-2082.9379881766
 21
2555.1141666534
 31
0.0
  0
LINE
  5
2E4
330
1F
100
AcDbEntity
  8
0
  6
Continuous
 62
     7
370
    25
100
AcDbLine
 10
-2082.9379881766
 20
2555.1141666534
 30
0.0
 11
-2080.6347161766
 21
2554.9203646534
 31
0.0
  0
LINE
  5
2E5
330
1F
100
AcDbEntity
  8
0
  6
Continuous
 62
     7
370
    25
100
AcDbLine
 10
-2080.6347161766
 20
2554.9203646534
 30
0.0
 11
-2079.2717521766
 21
2552.2917186534
 31
0.0
  0
LINE
  5
2E6
330
1F
100
AcDbEntity
  8
0
  6
Continuous
 62
     7
370
    25
100
AcDbLine
 10
-2079.2717521766
 20
2552.2917186534
 30
0.0
 11
-2077.0646191766
 21
2552.6172196534
 31
0.0
  0
LINE
  5
2E7
330
1F
100
AcDbEntity
  8
0
  6
Continuous
 62
     7
370
    25
100
AcDbLine
 10
-2077.0646191766
 20
2552.6172196534
 30
0.0
 11
-2076.2872521766
 21
2552.0322576534
 31
0.0
  0
LINE
  5
2E8
330
1F
100
AcDbEntity
  8
0
  6
Continuous
 62
     7
370
    25
100
AcDbLine
 10
-2076.2872521766
 20
2552.0322576534
 30
0.0
 11
-2075.3454201766
 21
2553.1361416534
 31
0.0
  0
LINE
  5
2E9
330
1F
100
AcDbEntity
  8
0
  6
Continuous
 62
     7
370
    25
100
AcDbLine
 10
-2075.3454201766
 20
2553.1361416534
 30
0.0
 11
-2072.7176631766
 21
2553.3294356534
 31
0.0
  0
LINE
  5
2EA
330
1F
100
AcDbEntity
  8
0
  6
Continuous
 62
     7
370
    25
100
AcDbLine
 10
-2072.7176631766
 20
2553.3294356534
 30
0.0
 11
-2072.2950071766
 21
2551.9351026534
 31
0.0
  0
LINE
  5
2EB
330
1F
100
AcDbEntity
  8
0
  6
Continuous
 62
     7
370
    25
100
AcDbLine
 10
-2072.2950071766
 20
2551.9351026534
 30
0.0
 11
-2069.7972981766
 21
2552.2917186534
 31
0.0
  0
LINE
  5
2EC
330
1F
100
AcDbEntity
  8
0
  6
Continuous
 62
     7
370
    25
100
AcDbLine
 10
-2069.7972981766
 20
2552.2917186534
 30
0.0
 11
-2068.4340801766
 21
2553.7517106534
 31
0.0
  0
LINE
  5
2ED
330
1F
100
AcDbEntity
  8
0
  6
Continuous
 62
     7
370
    25
100
AcDbLine
 10
-2068.4340801766
 20
2553.7517106534
 30
0.0
 11
-2066.6489681766
 21
2552.3883656534
 31
0.0
  0
LINE
  5
2EE
330
1F
100
AcDbEntity
  8
0
  6
Continuous
 62
     7
370
    25
100
AcDbLine
 10
-2066.6489681766
 20
2552.3883656534
 30
0.0
 11
-2065.7080251766
 21
2552.6172196534
 31
0.0
  0
LINE
  5
2EF
330
1F
100
AcDbEntity
  8
0
  6
Continuous
 62
     7
370
    25
100
AcDbLine
 10
-2065.7080251766
 20
2552.6172196534
 30
0.0
 11
-2065.7080251766
 21
2554.9203646534
 31
0.0
  0
LINE
  5
2F0
330
1F
100
AcDbEntity
  8
0
  6
Continuous
 62
     7
370
    25
100
AcDbLine
 10
-2065.7080251766
 20
2554.9203646534
 30
0.0
 11
-2066.8122901766
 21
2556.2180506534
 31
0.0
  0
LINE
  5
2F1
330
1F
100
AcDbEntity
  8
0
  6
Continuous
 62
     7
370
    25
100
AcDbLine
 10
-2066.8122901766
 20
2556.2180506534
 30
0.0
 11
-2066.1304271766
 21
2556.9973226534
 31
0.0
  0
LINE
  5
2F2
330
1F
100
AcDbEntity
  8
0
  6
Continuous
 62
     7
370
    25
100
AcDbLine
 10
-2066.1304271766
 20
2556.9973226534
 30
0.0
 11
-2065.5463541766
 21
2556.3794676534
 31
0.0
  0
LINE
  5
2F3
330
1F
100
AcDbEntity
  8
0
  6
Continuous
 62
     7
370
    25
100
AcDbLine
 10
-2065.5463541766
 20
2556.3794676534
 30
0.0
 11
-2063.1451651766
 21
2557.4199786534
 31
0.0
  0
LINE
  5
2F4
330
1F
100
AcDbEntity
  8
0
  6
Continuous
 62
     7
370
    25
100
AcDbLine
 10
-2063.1451651766
 20
2557.4199786534
 30
0.0
 11
-2063.0478831766
 21
2558.3912746534
 31
0.0
  0
LINE
  5
2F5
330
1F
100
AcDbEntity
  8
0
  6
Continuous
 62
     7
370
    25
100
AcDbLine
 10
-2063.0478831766
 20
2558.3912746534
 30
0.0
 11
-2062.8855771766
 21
2558.3592706534
 31
0.0
  0
LINE
  5
2F6
330
1F
100
AcDbEntity
  8
0
  6
Continuous
 62
     7
370
    25
100
AcDbLine
 10
-2062.8855771766
 20
2558.3592706534
 30
0.0
 11
-2060.9389211766
 21
2558.2626236534
 31
0.0
  0
LINE
  5
2F7
330
1F
100
AcDbEntity
  8
0
  6
Continuous
 62
     7
370
    25
100
AcDbLine
 10
-2060.9389211766
 20
2558.2626236534
 30
0.0
 11
-2060.0956411766
 21
2556.3794676534
 31
0.0
  0
LINE
  5
2F8
330
1F
100
AcDbEntity
  8
0
  6
Continuous
 62
     7
370
    25
100
AcDbLine
 10
-2060.0956411766
 20
2556.3794676534
 30
0.0
 11
-2058.8954911766
 21
2556.4770036534
 31
0.0
  0
LINE
  5
2F9
330
1F
100
AcDbEntity
  8
0
  6
Continuous
 62
     7
370
    25
100
AcDbLine
 10
-2058.8954911766
 20
2556.4770036534
 30
0.0
 11
-2059.0575431766
 21
2557.3206646534
 31
0.0
  0
LINE
  5
2FA
330
1F
100
AcDbEntity
  8
0
  6
Continuous
 62
     7
370
    25
100
AcDbLine
 10
-2059.0575431766
 20
2557.3206646534
 30
0.0
 11
-2058.0514491766
 21
2558.2626236534
 31
0.0
  0
LINE
  5
2FB
330
1F
100
AcDbEntity
  8
0
  6
Continuous
 62
     7
370
    25
100
AcDbLine
 10
-2058.0514491766
 20
2558.2626236534
 30
0.0
 11
-2057.5315111766
 21
2557.6771536534
 31
0.0
  0
LINE
  5
2FC
330
1F
100
AcDbEntity
  8
0
  6
Continuous
 62
     7
370
    25
100
AcDbLine
 10
-2057.5315111766
 20
2557.6771536534
 30
0.0
 11
-2056.6555921766
 21
2558.2626236534
 31
0.0
  0
LINE
  5
2FD
330
1F
100
AcDbEntity
  8
0
  6
Continuous
 62
     7
370
    25
100
AcDbLine
 10
-2056.6555921766
 20
2558.2626236534
 30
0.0
 11
-2053.9295371766
 21
2555.4387786534
 31
0.0
  0
LINE
  5
2FE
330
1F
100
AcDbEntity
  8
0
  6
Continuous
 62
     7
370
    25
100
AcDbLine
 10
-2053.9295371766
 20
2555.4387786534
 30
0.0
 11
-2052.5679701766
 21
2554.4977086534
 31
0.0
  0
LINE
  5
2FF
330
1F
100
AcDbEntity
  8
0
  6
Continuous
 62
     7
370
    25
100
AcDbLine
 10
-2052.5679701766
 20
2554.4977086534
 30
0.0
 11
-2049.8424231766
 21
2554.6915106534
 31
0.0
  0
LINE
  5
300
330
1F
100
AcDbEntity
  8
0
  6
Continuous
 62
     7
370
    25
100
AcDbLine
 10
-2049.8424231766
 20
2554.6915106534
 30
0.0
 11
-2046.6295771766
 21
2554.6915106534
 31
0.0
  0
LINE
  5
301
330
1F
100
AcDbEntity
  8
0
  6
Continuous
 62
     7
370
    25
100
AcDbLine
 10
-2046.3715131766
 20
2554.5952446534
 30
0.0
 11
-2046.1752981766
 21
2553.0699746534
 31
0.0
  0
LINE
  5
302
330
1F
100
AcDbEntity
  8
0
  6
Continuous
 62
     7
370
    25
100
AcDbLine
 10
-2046.1752981766
 20
2553.0699746534
 30
0.0
 11
-2044.6509171766
 21
2552.9715496534
 31
0.0
  0
LINE
  5
303
330
1F
100
AcDbEntity
  8
0
  6
Continuous
 62
     7
370
    25
100
AcDbLine
 10
-2044.6509171766
 20
2552.9715496534
 30
0.0
 11
-2044.6509171766
 21
2552.1936746534
 31
0.0
  0
LINE
  5
304
330
1F
100
AcDbEntity
  8
0
  6
Continuous
 62
     7
370
    25
100
AcDbLine
 10
-2044.6509171766
 20
2552.1936746534
 30
0.0
 11
-2046.1752981766
 21
2552.1289046534
 31
0.0
  0
LINE
  5
305
330
1F
100
AcDbEntity
  8
0
  6
Continuous
 62
     7
370
    25
100
AcDbLine
 10
-2046.1752981766
 20
2552.1289046534
 30
0.0
 11
-2047.7010761766
 21
2551.9351026534
 31
0.0
  0
LINE
  5
306
330
1F
100
AcDbEntity
  8
0
  6
Continuous
 62
     7
370
    25
100
AcDbLine
 10
-2047.7010761766
 20
2551.9351026534
 30
0.0
 11
-2049.0631511766
 21
2551.0915686534
 31
0.0
  0
LINE
  5
307
330
1F
100
AcDbEntity
  8
0
  6
Continuous
 62
     7
370
    25
100
AcDbLine
 10
-2049.0631511766
 20
2551.0915686534
 30
0.0
 11
-2047.8951321766
 21
2549.4039926534
 31
0.0
  0
LINE
  5
308
330
1F
100
AcDbEntity
  8
0
  6
Continuous
 62
     7
370
    25
100
AcDbLine
 10
-2047.8951321766
 20
2549.4039926534
 30
0.0
 11
-2048.3819231766
 21
2548.5284546534
 31
0.0
  0
LINE
  5
309
330
1F
100
AcDbEntity
  8
0
  6
Continuous
 62
     7
370
    25
100
AcDbLine
 10
-2048.3819231766
 20
2548.5284546534
 30
0.0
 11
-2048.3167721766
 21
2547.1004666534
 31
0.0
  0
LINE
  5
30A
330
1F
100
AcDbEntity
  8
0
  6
Continuous
 62
     7
370
    25
100
AcDbLine
 10
-2048.3167721766
 20
2547.1004666534
 30
0.0
 11
-2045.6570111766
 21
2544.5378606534
 31
0.0
  0
LINE
  5
30B
330
1F
100
AcDbEntity
  8
0
  6
Continuous
 62
     7
370
    25
100
AcDbLine
 10
-2045.6570111766
 20
2544.5378606534
 30
0.0
 11
-2046.8577961766
 21
2544.0175416534
 31
0.0
  0
LINE
  5
30C
330
1F
100
AcDbEntity
  8
0
  6
Continuous
 62
     7
370
    25
100
AcDbLine
 10
-2046.8577961766
 20
2544.0175416534
 30
0.0
 11
-2045.8186821766
 21
2541.2922486534
 31
0.0
  0
LINE
  5
30D
330
1F
100
AcDbEntity
  8
0
  6
Continuous
 62
     7
370
    25
100
AcDbLine
 10
-2045.8186821766
 20
2541.2922486534
 30
0.0
 11
-2045.2343551766
 21
2539.1519176534
 31
0.0
  0
LINE
  5
30E
330
1F
100
AcDbEntity
  8
0
  6
Continuous
 62
     7
370
    25
100
AcDbLine
 10
-2045.2343551766
 20
2539.1519176534
 30
0.0
 11
-2042.8336741766
 21
2539.6698236534
 31
0.0
  0
LINE
  5
30F
330
1F
100
AcDbEntity
  8
0
  6
Continuous
 62
     7
370
    25
100
AcDbLine
 10
-2042.8336741766
 20
2539.6698236534
 30
0.0
 11
-2042.9305751766
 21
2536.3280726534
 31
0.0
  0
LINE
  5
310
330
1F
100
AcDbEntity
  8
0
  6
Continuous
 62
     7
370
    25
100
AcDbLine
 10
-2042.9305751766
 20
2536.3280726534
 30
0.0
 11
-2044.2285151766
 21
2535.7448886534
 31
0.0
  0
LINE
  5
311
330
1F
100
AcDbEntity
  8
0
  6
Continuous
 62
     7
370
    25
100
AcDbLine
 10
-2044.2285151766
 20
2535.7448886534
 30
0.0
 11
-2043.2882071766
 21
2531.1359316534
 31
0.0
  0
LINE
  5
312
330
1F
100
AcDbEntity
  8
0
  6
Continuous
 62
     7
370
    25
100
AcDbLine
 10
-2043.2882071766
 20
2531.1359316534
 30
0.0
 11
-2042.3471371766
 21
2531.3971706534
 31
0.0
  0
LINE
  5
313
330
1F
100
AcDbEntity
  8
0
  6
Continuous
 62
     7
370
    25
100
AcDbLine
 10
-2042.3471371766
 20
2531.3971706534
 30
0.0
 11
-2041.8279611766
 21
2530.4555926534
 31
0.0
  0
LINE
  5
314
330
1F
100
AcDbEntity
  8
0
  6
Continuous
 62
     7
370
    25
100
AcDbLine
 10
-2041.8279611766
 20
2530.4555926534
 30
0.0
 11
-2035.8570561766
 21
2531.0392846534
 31
0.0
  0
LINE
  5
315
330
1F
100
AcDbEntity
  8
0
  6
Continuous
 62
     7
370
    25
100
AcDbLine
 10
-2035.8570561766
 20
2531.0392846534
 30
0.0
 11
-2035.0789271766
 21
2528.8345646534
 31
0.0
  0
LINE
  5
316
330
1F
100
AcDbEntity
  8
0
  6
Continuous
 62
     7
370
    25
100
AcDbLine
 10
-2035.0789271766
 20
2528.8345646534
 30
0.0
 11
-2033.5534031766
 21
2529.0926286534
 31
0.0
  0
LINE
  5
317
330
1F
100
AcDbEntity
  8
0
  6
Continuous
 62
     7
370
    25
100
AcDbLine
 10
-2033.5534031766
 20
2529.0926286534
 30
0.0
 11
-2033.5534031766
 21
2530.6182796534
 31
0.0
  0
LINE
  5
318
330
1F
100
AcDbEntity
  8
0
  6
Continuous
 62
     7
370
    25
100
AcDbLine
 10
-2033.5534031766
 20
2530.6182796534
 30
0.0
 11
-2032.4826661766
 21
2530.8773596534
 31
0.0
  0
LINE
  5
319
330
1F
100
AcDbEntity
  8
0
  6
Continuous
 62
     7
370
    25
100
AcDbLine
 10
-2032.4826661766
 20
2530.8773596534
 30
0.0
 11
-2031.6068741766
 21
2530.5216326534
 31
0.0
  0
LINE
  5
31A
330
1F
100
AcDbEntity
  8
0
  6
Continuous
 62
     7
370
    25
100
AcDbLine
 10
-2031.6068741766
 20
2530.5216326534
 30
0.0
 11
-2031.6068741766
 21
2528.4761706534
 31
0.0
  0
LINE
  5
31B
330
1F
100
AcDbEntity
  8
0
  6
Continuous
 62
     7
370
    25
100
AcDbLine
 10
-2031.6068741766
 20
2528.4761706534
 30
0.0
 11
-2031.3466511766
 21
2527.4690606534
 31
0.0
  0
LINE
  5
31C
330
1F
100
AcDbEntity
  8
0
  6
Continuous
 62
     7
370
    25
100
AcDbLine
 10
-2031.3466511766
 20
2527.4690606534
 30
0.0
 11
-2029.4002491766
 21
2527.6317476534
 31
0.0
  0
LINE
  5
31D
330
1F
100
AcDbEntity
  8
0
  6
Continuous
 62
     7
370
    25
100
AcDbLine
 10
-2029.4002491766
 20
2527.6317476534
 30
0.0
 11
-2029.0442681766
 21
2526.6928366534
 31
0.0
  0
LINE
  5
31E
330
1F
100
AcDbEntity
  8
0
  6
Continuous
 62
     7
370
    25
100
AcDbLine
 10
-2029.0442681766
 20
2526.6928366534
 30
0.0
 11
-2027.9402571766
 21
2526.4312166534
 31
0.0
  0
LINE
  5
31F
330
1F
100
AcDbEntity
  8
0
  6
Continuous
 62
     7
370
    25
100
AcDbLine
 10
-2027.9402571766
 20
2526.4312166534
 30
0.0
 11
-2027.6155181766
 21
2524.9694466534
 31
0.0
  0
LINE
  5
320
330
1F
100
AcDbEntity
  8
0
  6
Continuous
 62
     7
370
    25
100
AcDbLine
 10
-2027.6155181766
 20
2524.9694466534
 30
0.0
 11
-2028.9782281766
 21
2524.6461046534
 31
0.0
  0
LINE
  5
321
330
1F
100
AcDbEntity
  8
0
  6
Continuous
 62
     7
370
    25
100
AcDbLine
 10
-2028.9782281766
 20
2524.6461046534
 30
0.0
 11
-2028.8815811766
 21
2523.1877636534
 31
0.0
  0
LINE
  5
322
330
1F
100
AcDbEntity
  8
0
  6
Continuous
 62
     7
370
    25
100
AcDbLine
 10
-2028.8815811766
 20
2523.1877636534
 30
0.0
 11
-2029.9198061766
 21
2522.7647266534
 31
0.0
  0
LINE
  5
323
330
1F
100
AcDbEntity
  8
0
  6
Continuous
 62
     7
370
    25
100
AcDbLine
 10
-2029.9198061766
 20
2522.7647266534
 30
0.0
 11
-2029.4982931766
 21
2520.8168006534
 31
0.0
  0
LINE
  5
324
330
1F
100
AcDbEntity
  8
0
  6
Continuous
 62
     7
370
    25
100
AcDbLine
 10
-2029.4982931766
 20
2520.8168006534
 30
0.0
 11
-2028.2007341766
 21
2520.6235066534
 31
0.0
  0
LINE
  5
325
330
1F
100
AcDbEntity
  8
0
  6
Continuous
 62
     7
370
    25
100
AcDbLine
 10
-2028.2007341766
 20
2520.6235066534
 30
0.0
 11
-2027.9402571766
 21
2519.7812426534
 31
0.0
  0
LINE
  5
326
330
1F
100
AcDbEntity
  8
0
  6
Continuous
 62
     7
370
    25
100
AcDbLine
 10
-2028.7196561766
 20
2519.3580786534
 30
0.0
 11
-2027.8752331766
 21
2516.8931356534
 31
0.0
  0
LINE
  5
327
330
1F
100
AcDbEntity
  8
0
  6
Continuous
 62
     7
370
    25
100
AcDbLine
 10
-2027.8752331766
 20
2516.8931356534
 30
0.0
 11
-2028.8815811766
 21
2516.5352496534
 31
0.0
  0
LINE
  5
328
330
1F
100
AcDbEntity
  8
0
  6
Continuous
 62
     7
370
    25
100
AcDbLine
 10
-2028.8815811766
 20
2516.5352496534
 30
0.0
 11
-2028.8815811766
 21
2515.8535136534
 31
0.0
  0
LINE
  5
329
330
1F
100
AcDbEntity
  8
0
  6
Continuous
 62
     7
370
    25
100
AcDbLine
 10
-2028.8815811766
 20
2515.8535136534
 30
0.0
 11
-2028.0377931766
 21
2515.8535136534
 31
0.0
  0
LINE
  5
32A
330
1F
100
AcDbEntity
  8
0
  6
Continuous
 62
     7
370
    25
100
AcDbLine
 10
-2028.0377931766
 20
2515.8535136534
 30
0.0
 11
-2027.6155181766
 21
2514.3278626534
 31
0.0
  0
LINE
  5
32B
330
1F
100
AcDbEntity
  8
0
  6
Continuous
 62
     7
370
    25
100
AcDbLine
 10
-2027.6155181766
 20
2514.3278626534
 30
0.0
 11
-2025.0525311766
 21
2515.2689326534
 31
0.0
  0
LINE
  5
32C
330
1F
100
AcDbEntity
  8
0
  6
Continuous
 62
     7
370
    25
100
AcDbLine
 10
-2025.0525311766
 20
2515.2689326534
 30
0.0
 11
-2024.6951531766
 21
2513.7119126534
 31
0.0
  0
LINE
  5
32D
330
1F
100
AcDbEntity
  8
0
  6
Continuous
 62
     7
370
    25
100
AcDbLine
 10
-2024.6951531766
 20
2513.7119126534
 30
0.0
 11
-2023.5935551766
 21
2513.6466346534
 31
0.0
  0
LINE
  5
32E
330
1F
100
AcDbEntity
  8
0
  6
Continuous
 62
     7
370
    25
100
AcDbLine
 10
-2023.5935551766
 20
2513.6466346534
 30
0.0
 11
-2023.0094821766
 21
2512.1875316534
 31
0.0
  0
LINE
  5
32F
330
1F
100
AcDbEntity
  8
0
  6
Continuous
 62
     7
370
    25
100
AcDbLine
 10
-2023.0094821766
 20
2512.1875316534
 30
0.0
 11
-2021.1263261766
 21
2512.6101876534
 31
0.0
  0
LINE
  5
330
330
1F
100
AcDbEntity
  8
0
  6
Continuous
 62
     7
370
    25
100
AcDbLine
 10
-2021.1263261766
 20
2512.6101876534
 30
0.0
 11
-2020.7699641766
 21
2511.8300266534
 31
0.0
  0
LINE
  5
331
330
1F
100
AcDbEntity
  8
0
  6
Continuous
 62
     7
370
    25
100
AcDbLine
 10
-2020.7699641766
 20
2511.8300266534
 30
0.0
 11
-2018.4011601766
 21
2512.4464846534
 31
0.0
  0
LINE
  5
332
330
1F
100
AcDbEntity
  8
0
  6
Continuous
 62
     7
370
    25
100
AcDbLine
 10
-2018.4011601766
 20
2512.4464846534
 30
0.0
 11
-2018.1408101766
 21
2510.3056456534
 31
0.0
  0
LINE
  5
333
330
1F
100
AcDbEntity
  8
0
  6
Continuous
 62
     7
370
    25
100
AcDbLine
 10
-2018.1408101766
 20
2510.3056456534
 30
0.0
 11
-2020.2506611766
 21
2509.3654646534
 31
0.0
  0
LINE
  5
334
330
1F
100
AcDbEntity
  8
0
  6
Continuous
 62
     7
370
    25
100
AcDbLine
 10
-2020.2506611766
 20
2509.3654646534
 30
0.0
 11
-2019.5693061766
 21
2507.4167766534
 31
0.0
  0
LINE
  5
335
330
1F
100
AcDbEntity
  8
0
  6
Continuous
 62
     7
370
    25
100
AcDbLine
 10
-2019.5693061766
 20
2507.4167766534
 30
0.0
 11
-2017.2010101766
 21
2508.1005446534
 31
0.0
  0
LINE
  5
336
330
1F
100
AcDbEntity
  8
0
  6
Continuous
 62
     7
370
    25
100
AcDbLine
 10
-2017.2010101766
 20
2508.1005446534
 30
0.0
 11
-2016.5845521766
 21
2508.7799946534
 31
0.0
  0
LINE
  5
337
330
1F
100
AcDbEntity
  8
0
  6
Continuous
 62
     7
370
    25
100
AcDbLine
 10
-2016.5845521766
 20
2508.7799946534
 30
0.0
 11
-2014.6375151766
 21
2508.9423006534
 31
0.0
  0
LINE
  5
338
330
1F
100
AcDbEntity
  8
0
  6
Continuous
 62
     7
370
    25
100
AcDbLine
 10
-2014.6375151766
 20
2508.9423006534
 30
0.0
 11
-2013.5984011766
 21
2503.2974046534
 31
0.0
  0
LINE
  5
339
330
1F
100
AcDbEntity
  8
0
  6
Continuous
 62
     7
370
    25
100
AcDbLine
 10
-2013.5984011766
 20
2503.2974046534
 30
0.0
 11
-2013.3398291766
 21
2502.1291316534
 31
0.0
  0
LINE
  5
33A
330
1F
100
AcDbEntity
  8
0
  6
Continuous
 62
     7
370
    25
100
AcDbLine
 10
-2013.3398291766
 20
2502.1291316534
 30
0.0
 11
-2014.1191011766
 21
2501.6094476534
 31
0.0
  0
LINE
  5
33B
330
1F
100
AcDbEntity
  8
0
  6
Continuous
 62
     7
370
    25
100
AcDbLine
 10
-2014.1191011766
 20
2501.6094476534
 30
0.0
 11
-2014.2162561766
 21
2500.7339096534
 31
0.0
  0
LINE
  5
33C
330
1F
100
AcDbEntity
  8
0
  6
Continuous
 62
     7
370
    25
100
AcDbLine
 10
-2014.2162561766
 20
2500.7339096534
 30
0.0
 11
-2016.6817071766
 21
2500.8296676534
 31
0.0
  0
LINE
  5
33D
330
1F
100
AcDbEntity
  8
0
  6
Continuous
 62
     7
370
    25
100
AcDbLine
 10
-2016.6817071766
 20
2500.8296676534
 30
0.0
 11
-2016.7787351766
 21
2499.5652556534
 31
0.0
  0
LINE
  5
33E
330
1F
100
AcDbEntity
  8
0
  6
Continuous
 62
     7
370
    25
100
AcDbLine
 10
-2016.7787351766
 20
2499.5652556534
 30
0.0
 11
-2018.8229271766
 21
2499.3054136534
 31
0.0
  0
LINE
  5
33F
330
1F
100
AcDbEntity
  8
0
  6
Continuous
 62
     7
370
    25
100
AcDbLine
 10
-2018.8229271766
 20
2499.3054136534
 30
0.0
 11
-2018.9857411766
 21
2497.6843856534
 31
0.0
  0
LINE
  5
340
330
1F
100
AcDbEntity
  8
0
  6
Continuous
 62
     7
370
    25
100
AcDbLine
 10
-2018.9857411766
 20
2497.6843856534
 30
0.0
 11
-2020.7699641766
 21
2495.2840856534
 31
0.0
  0
LINE
  5
341
330
1F
100
AcDbEntity
  8
0
  6
Continuous
 62
     7
370
    25
100
AcDbLine
 10
-2020.7699641766
 20
2495.2840856534
 30
0.0
 11
-2020.5096141766
 21
2493.1398176534
 31
0.0
  0
LINE
  5
342
330
1F
100
AcDbEntity
  8
0
  6
Continuous
 62
     7
370
    25
100
AcDbLine
 10
-2020.5096141766
 20
2493.1398176534
 30
0.0
 11
-2019.0832771766
 21
2490.8374346534
 31
0.0
  0
LINE
  5
343
330
1F
100
AcDbEntity
  8
0
  6
Continuous
 62
     7
370
    25
100
AcDbLine
 10
-2019.0832771766
 20
2490.8374346534
 30
0.0
 11
-2019.1480471766
 21
2487.9498356534
 31
0.0
  0
LINE
  5
344
330
1F
100
AcDbEntity
  8
0
  6
Continuous
 62
     7
370
    25
100
AcDbLine
 10
-2019.1480471766
 20
2487.9498356534
 30
0.0
 11
-2018.4668191766
 21
2487.0082576534
 31
0.0
  0
LINE
  5
345
330
1F
100
AcDbEntity
  8
0
  6
Continuous
 62
     7
370
    25
100
AcDbLine
 10
-2018.4668191766
 20
2487.0082576534
 30
0.0
 11
-2018.4668191766
 21
2485.3858326534
 31
0.0
  0
LINE
  5
346
330
1F
100
AcDbEntity
  8
0
  6
Continuous
 62
     7
370
    25
100
AcDbLine
 10
-2018.4668191766
 20
2485.3858326534
 30
0.0
 11
-2018.2388541766
 21
2483.3750416534
 31
0.0
  0
LINE
  5
347
330
1F
100
AcDbEntity
  8
0
  6
Continuous
 62
     7
370
    25
100
AcDbLine
 10
-2018.2388541766
 20
2483.3750416534
 30
0.0
 11
-2018.4011601766
 21
2483.2455016534
 31
0.0
  0
LINE
  5
348
330
1F
100
AcDbEntity
  8
0
  6
Continuous
 62
     7
370
    25
100
AcDbLine
 10
-2018.4011601766
 20
2483.2455016534
 30
0.0
 11
-2018.6618911766
 21
2482.3031616534
 31
0.0
  0
LINE
  5
349
330
1F
100
AcDbEntity
  8
0
  6
Continuous
 62
     7
370
    25
100
AcDbLine
 10
-2027.9402571766
 20
2519.7812426534
 30
0.0
 11
-2028.7196561766
 21
2519.3580786534
 31
0.0
  0
ENDSEC
  0
SECTION
  2
OBJECTS
  0
DICTIONARY
  5
C
330
0
100
AcDbDictionary
281
     1
  3
ACAD_GROUP
350
D
  3
ACAD_LAYOUT
350
1A
  3
ACAD_MLINESTYLE
350
17
  3
ACAD_PLOTSETTINGS
350
19
  3
ACAD_PLOTSTYLENAME
350
E
  3
ACAD_SCALELIST
350
47
  0
DICTIONARY
  5
D
102
{ACAD_REACTORS
330
C
102
}
330
C
100
AcDbDictionary
281
     1
  0
DICTIONARY
  5
1A
102
{ACAD_REACTORS
330
C
102
}
330
C
100
AcDbDictionary
281
     1
  3
Layout1
350
1E
  3
Layout2
350
26
  3
Model
350
22
  0
DICTIONARY
  5
17
102
{ACAD_REACTORS
330
C
102
}
330
C
100
AcDbDictionary
281
     1
  3
Standard
350
18
  0
DICTIONARY
  5
19
102
{ACAD_REACTORS
330
C
102
}
330
C
100
AcDbDictionary
281
     1
  0
ACDBDICTIONARYWDFLT
  5
E
102
{ACAD_REACTORS
330
C
102
}
330
C
100
AcDbDictionary
281
     1
  3
Normal
350
F
100
AcDbDictionaryWithDefault
340
F
  0
DICTIONARY
  5
47
102
{ACAD_REACTORS
330
C
102
}
330
C
100
AcDbDictionary
281
     1
  3
A0
350
48
  3
A1
350
49
  3
A2
350
4A
  3
A3
350
4B
  3
A4
350
4C
  3
A5
350
4D
  3
A6
350
4E
  3
A7
350
4F
  3
A8
350
50
  3
A9
350
51
  3
B0
350
52
  3
B1
350
53
  3
B2
350
54
  3
B3
350
55
  3
B4
350
56
  3
B5
350
57
  3
B6
350
58
  3
B7
350
59
  3
B8
350
5A
  3
B9
350
5B
  3
C0
350
5C
  3
C1
350
5D
  3
C2
350
5E
  3
C3
350
5F
  3
C4
350
60
  3
C5
350
61
  3
C6
350
62
  3
C7
350
63
  3
C8
350
64
  3
C9
350
65
  3
D0
350
66
  3
D1
350
67
  3
D2
350
68
  0
LAYOUT
  5
1E
102
{ACAD_REACTORS
330
1A
102
}
330
1A
100
AcDbPlotSettings
  1

  2
none_device
  4

  6

 40
0.0
 41
0.0
 42
0.0
 43
0.0
 44
0.0
 45
0.0
 46
0.0
 47
0.0
 48
0.0
 49
0.0
140
0.0
141
0.0
142
1.0
143
1.0
 70
   688
 72
     1
 73
     0
 74
     5
  7

 75
    16
147
1.0
148
0.0
149
0.0
100
AcDbLayout
  1
Layout1
 70
     1
 71
     1
 10
0.0
 20
0.0
 11
420.0
 21
297.0
 12
0.0
 22
0.0
 32
0.0
 14
1.0000000000E+20
 24
1.0000000000E+20
 34
1.0000000000E+20
 15
-1.0000000000E+20
 25
-1.0000000000E+20
 35
-1.0000000000E+20
146
0.0
 13
0.0
 23
0.0
 33
0.0
 16
1.0
 26
0.0
 36
0.0
 17
0.0
 27
1.0
 37
0.0
 76
     0
330
1B
  0
LAYOUT
  5
26
102
{ACAD_REACTORS
330
1A
102
}
330
1A
100
AcDbPlotSettings
  1

  2
none_device
  4

  6

 40
0.0
 41
0.0
 42
0.0
 43
0.0
 44
0.0
 45
0.0
 46
0.0
 47
0.0
 48
0.0
 49
0.0
140
0.0
141
0.0
142
1.0
143
1.0
 70
   688
 72
     1
 73
     0
 74
     5
  7

 75
    16
147
1.0
148
0.0
149
0.0
100
AcDbLayout
  1
Layout2
 70
     1
 71
     2
 10
0.0
 20
0.0
 11
0.0
 21
0.0
 12
0.0
 22
0.0
 32
0.0
 14
0.0
 24
0.0
 34
0.0
 15
0.0
 25
0.0
 35
0.0
146
0.0
 13
0.0
 23
0.0
 33
0.0
 16
1.0
 26
0.0
 36
0.0
 17
0.0
 27
1.0
 37
0.0
 76
     0
330
23
  0
LAYOUT
  5
22
102
{ACAD_REACTORS
330
1A
102
}
330
1A
100
AcDbPlotSettings
  1

  2
none_device
  4
ANSI_A_(11.00_x_8.50_Inches)
  6

 40
6.35
 41
19.05
 42
6.35000508
 43
19.05000254
 44
279.4
 45
215.9
 46
3235.3682634119
 47
-3645.7734404983
 48
0.0
 49
0.0
140
0.0
141
0.0
142
0.0591107471
143
1.0
 70
  1696
 72
     0
 73
     0
 74
     0
  7

 75
     0
147
0.0179189148
148
-1300.4909072572
149
0.0
100
AcDbLayout
  1
Model
 70
     1
 71
     0
 10
0.0
 20
0.0
 11
420.0
 21
297.0
 12
0.0
 22
0.0
 32
0.0
 14
-2118.7921201766
 24
2416.2592135063
 34
0.0
 15
-2013.3398291766
 25
2558.6191126534
 35
0.0
146
0.0
 13
0.0
 23
0.0
 33
0.0
 16
1.0
 26
0.0
 36
0.0
 17
0.0
 27
1.0
 37
0.0
 76
     0
330
1F
331
29
  0
MLINESTYLE
  5
18
102
{ACAD_REACTORS
330
17
102
}
330
17
100
AcDbMlineStyle
  2
Standard
 70
     0
  3

 62
   256
 51
90.0
 52
90.0
 71
     2
 49
0.5
 62
   256
  6
BYLAYER
 49
-0.5
 62
   256
  6
BYLAYER
  0
ACDBPLACEHOLDER
  5
F
102
{ACAD_REACTORS
330
E
102
}
330
E
  0
SCALE
  5
48
102
{ACAD_REACTORS
330
47
102
}
330
47
100
AcDbScale
 70
     0
300
1:1
140
1.0
141
1.0
290
     1
  0
SCALE
  5
49
102
{ACAD_REACTORS
330
47
102
}
330
47
100
AcDbScale
 70
     0
300
1:2
140
1.0
141
2.0
290
     0
  0
SCALE
  5
4A
102
{ACAD_REACTORS
330
47
102
}
330
47
100
AcDbScale
 70
     0
300
1:4
140
1.0
141
4.0
290
     0
  0
SCALE
  5
4B
102
{ACAD_REACTORS
330
47
102
}
330
47
100
AcDbScale
 70
     0
300
1:5
140
1.0
141
5.0
290
     0
  0
SCALE
  5
4C
102
{ACAD_REACTORS
330
47
102
}
330
47
100
AcDbScale
 70
     0
300
1:8
140
1.0
141
8.0
290
     0
  0
SCALE
  5
4D
102
{ACAD_REACTORS
330
47
102
}
330
47
100
AcDbScale
 70
     0
300
1:10
140
1.0
141
10.0
290
     0
  0
SCALE
  5
4E
102
{ACAD_REACTORS
330
47
102
}
330
47
100
AcDbScale
 70
     0
300
1:16
140
1.0
141
16.0
290
     0
  0
SCALE
  5
4F
102
{ACAD_REACTORS
330
47
102
}
330
47
100
AcDbScale
 70
     0
300
1:20
140
1.0
141
20.0
290
     0
  0
SCALE
  5
50
102
{ACAD_REACTORS
330
47
102
}
330
47
100
AcDbScale
 70
     0
300
1:30
140
1.0
141
30.0
290
     0
  0
SCALE
  5
51
102
{ACAD_REACTORS
330
47
102
}
330
47
100
AcDbScale
 70
     0
300
1:40
140
1.0
141
40.0
290
     0
  0
SCALE
  5
52
102
{ACAD_REACTORS
330
47
102
}
330
47
100
AcDbScale
 70
     0
300
1:50
140
1.0
141
50.0
290
     0
  0
SCALE
  5
53
102
{ACAD_REACTORS
330
47
102
}
330
47
100
AcDbScale
 70
     0
300
1:100
140
1.0
141
100.0
290
     0
  0
SCALE
  5
54
102
{ACAD_REACTORS
330
47
102
}
330
47
100
AcDbScale
 70
     0
300
2:1
140
2.0
141
1.0
290
     0
  0
SCALE
  5
55
102
{ACAD_REACTORS
330
47
102
}
330
47
100
AcDbScale
 70
     0
300
4:1
140
4.0
141
1.0
290
     0
  0
SCALE
  5
56
102
{ACAD_REACTORS
330
47
102
}
330
47
100
AcDbScale
 70
     0
300
8:1
140
8.0
141
1.0
290
     0
  0
SCALE
  5
57
102
{ACAD_REACTORS
330
47
102
}
330
47
100
AcDbScale
 70
     0
300
10:1
140
10.0
141
1.0
290
     0
  0
SCALE
  5
58
102
{ACAD_REACTORS
330
47
102
}
330
47
100
AcDbScale
 70
     0
300
100:1
140
100.0
141
1.0
290
     0
  0
SCALE
  5
59
102
{ACAD_REACTORS
330
47
102
}
330
47
100
AcDbScale
 70
     0
300
1/128" = 1'-0"
140
0.0078125
141
12.0
290
     0
  0
SCALE
  5
5A
102
{ACAD_REACTORS
330
47
102
}
330
47
100
AcDbScale
 70
     0
300
1/64" = 1'-0"
140
0.015625
141
12.0
290
     0
  0
SCALE
  5
5B
102
{ACAD_REACTORS
330
47
102
}
330
47
100
AcDbScale
 70
     0
300
1/32" = 1'-0"
140
0.03125
141
12.0
290
     0
  0
SCALE
  5
5C
102
{ACAD_REACTORS
330
47
102
}
330
47
100
AcDbScale
 70
     0
300
1/16" = 1'-0"
140
0.0625
141
12.0
290
     0
  0
SCALE
  5
5D
102
{ACAD_REACTORS
330
47
102
}
330
47
100
AcDbScale
 70
     0
300
3/32" = 1'-0"
140
0.09375
141
12.0
290
     0
  0
SCALE
  5
5E
102
{ACAD_REACTORS
330
47
102
}
330
47
100
AcDbScale
 70
     0
300
1/8" = 1'-0"
140
0.125
141
12.0
290
     0
  0
SCALE
  5
5F
102
{ACAD_REACTORS
330
47
102
}
330
47
100
AcDbScale
 70
     0
300
3/16" = 1'-0"
140
0.1875
141
12.0
290
     0
  0
SCALE
  5
60
102
{ACAD_REACTORS
330
47
102
}
330
47
100
AcDbScale
 70
     0
300
1/4" = 1'-0"
140
0.25
141
12.0
290
     0
  0
SCALE
  5
61
102
{ACAD_REACTORS
330
47
102
}
330
47
100
AcDbScale
 70
     0
300
3/8" = 1'-0"
140
0.375
141
12.0
290
     0
  0
SCALE
  5
62
102
{ACAD_REACTORS
330
47
102
}
330
47
100
AcDbScale
 70
     0
300
1/2" = 1'-0"
140
0.5
141
12.0
290
     0
  0
SCALE
  5
63
102
{ACAD_REACTORS
330
47
102
}
330
47
100
AcDbScale
 70
     0
300
3/4" = 1'-0"
140
0.75
141
12.0
290
     0
  0
SCALE
  5
64
102
{ACAD_REACTORS
330
47
102
}
330
47
100
AcDbScale
 70
     0
300
1" = 1'-0"
140
1.0
141
12.0
290
     0
  0
SCALE
  5
65
102
{ACAD_REACTORS
330
47
102
}
330
47
100
AcDbScale
 70
     0
300
1-1/2" = 1'-0"
140
1.5
141
12.0
290
     0
  0
SCALE
  5
66
102
{ACAD_REACTORS
330
47
102
}
330
47
100
AcDbScale
 70
     0
300
3" = 1'-0"
140
3.0
141
12.0
290
     0
  0
SCALE
  5
67
102
{ACAD_REACTORS
330
47
102
}
330
47
100
AcDbScale
 70
     0
300
6" = 1'-0"
140
6.0
141
12.0
290
     0
  0
SCALE
  5
68
102
{ACAD_REACTORS
330
47
102
}
330
47
100
AcDbScale
 70
     0
300
1'-0" = 1'-0"
140
12.0
141
12.0
290
     0
  0
ENDSEC
  0
EOF
