  0
SECTION
  2
HEADER
  9
$ACADVER
  1
AC1015
  9
$ACADMAINTVER
 70
     6
  9
$DWGCODEPAGE
  3
ANSI_1251
  9
$INSBASE
 10
0.0
 20
0.0
 30
0.0
  9
$EXTMIN
 10
1472.4012451294
 20
8078.8402641907
 30
0.0
  9
$EXTMAX
 10
1557.5095331297
 20
8185.4923241906
 30
0.0
  9
$LIMMIN
 10
0.0
 20
0.0
  9
$LIMMAX
 10
420.0
 20
297.0
  9
$ORTHOMODE
 70
     0
  9
$REGENMODE
 70
     1
  9
$FILLMODE
 70
     1
  9
$QTEXTMODE
 70
     0
  9
$MIRRTEXT
 70
     1
  9
$LTSCALE
 40
1.0
  9
$ATTMODE
 70
     1
  9
$TEXTSIZE
 40
4.0
  9
$TRACEWID
 40
1.0
  9
$TEXTSTYLE
  7
Standard
  9
$CLAYER
  8
0
  9
$CELTYPE
  6
ByLayer
  9
$CECOLOR
 62
   256
  9
$CELTSCALE
 40
1.0
  9
$DISPSILH
 70
     0
  9
$DIMSCALE
 40
1.0
  9
$DIMASZ
 40
6.0
  9
$DIMEXO
 40
1.0
  9
$DIMDLI
 40
3.75
  9
$DIMRND
 40
0.0
  9
$DIMDLE
 40
0.0
  9
$DIMEXE
 40
1.0
  9
$DIMTP
 40
0.0
  9
$DIMTM
 40
0.0
  9
$DIMTXT
 40
4.0
  9
$DIMCEN
 40
2.5
  9
$DIMTSZ
 40
0.0
  9
$DIMTOL
 70
     0
  9
$DIMLIM
 70
     0
  9
$DIMTIH
 70
     1
  9
$DIMTOH
 70
     1
  9
$DIMSE1
 70
     0
  9
$DIMSE2
 70
     0
  9
$DIMTAD
 70
     1
  9
$DIMZIN
 70
     0
  9
$DIMBLK
  1

  9
$DIMASO
 70
     1
  9
$DIMSHO
 70
     1
  9
$DIMPOST
  1

  9
$DIMAPOST
  1

  9
$DIMALT
 70
     0
  9
$DIMALTD
 70
     3
  9
$DIMALTF
 40
0.0393700787
  9
$DIMLFAC
 40
1.0
  9
$DIMTOFL
 70
     1
  9
$DIMTVP
 40
0.0
  9
$DIMTIX
 70
     0
  9
$DIMSOXD
 70
     0
  9
$DIMSAH
 70
     0
  9
$DIMBLK1
  1

  9
$DIMBLK2
  1

  9
$DIMSTYLE
  2
ISO-25
  9
$DIMCLRD
 70
     0
  9
$DIMCLRE
 70
     0
  9
$DIMCLRT
 70
     0
  9
$DIMTFAC
 40
1.0
  9
$DIMGAP
 40
3.0
  9
$DIMJUST
 70
     0
  9
$DIMSD1
 70
     0
  9
$DIMSD2
 70
     0
  9
$DIMTOLJ
 70
     0
  9
$DIMTZIN
 70
     0
  9
$DIMALTZ
 70
     0
  9
$DIMALTTZ
 70
     0
  9
$DIMUPT
 70
     0
  9
$DIMDEC
 70
     2
  9
$DIMTDEC
 70
     4
  9
$DIMALTU
 70
     2
  9
$DIMALTTD
 70
     3
  9
$DIMTXSTY
  7
Standard
  9
$DIMAUNIT
 70
     0
  9
$DIMADEC
 70
     2
  9
$DIMALTRND
 40
0.0
  9
$DIMAZIN
 70
     0
  9
$DIMDSEP
 70
    44
  9
$DIMATFIT
 70
     3
  9
$DIMFRAC
 70
     0
  9
$DIMLDRBLK
  1

  9
$DIMLUNIT
 70
     2
  9
$DIMLWD
 70
    -2
  9
$DIMLWE
 70
    -2
  9
$DIMTMOVE
 70
     0
  9
$LUNITS
 70
     2
  9
$LUPREC
 70
     2
  9
$SKETCHINC
 40
1.0
  9
$FILLETRAD
 40
10.0
  9
$AUNITS
 70
     1
  9
$AUPREC
 70
     2
  9
$MENU
  1
.
  9
$ELEVATION
 40
0.0
  9
$PELEVATION
 40
0.0
  9
$THICKNESS
 40
0.0
  9
$LIMCHECK
 70
     0
  9
$CHAMFERA
 40
0.0
  9
$CHAMFERB
 40
0.0
  9
$CHAMFERC
 40
0.0
  9
$CHAMFERD
 40
0.0
  9
$SKPOLY
 70
     0
  9
$TDCREATE
 40
2460368.663260139
  9
$TDUCREATE
 40
2460368.579926806
  9
$TDUPDATE
 40
2460368.663287917
  9
$TDUUPDATE
 40
2460368.579954583
  9
$TDINDWG
 40
0.0000000116
  9
$TDUSRTIMER
 40
0.0000000116
  9
$USRTIMER
 70
     1
  9
$ANGBASE
 50
0.0
  9
$ANGDIR
 70
     0
  9
$PDMODE
 70
     0
  9
$PDSIZE
 40
-1.0
  9
$PLINEWID
 40
0.0
  9
$SPLFRAME
 70
     0
  9
$SPLINETYPE
 70
     6
  9
$SPLINESEGS
 70
     8
  9
$HANDSEED
  5
2AD
  9
$SURFTAB1
 70
     6
  9
$SURFTAB2
 70
     6
  9
$SURFTYPE
 70
     6
  9
$SURFU
 70
     6
  9
$SURFV
 70
     6
  9
$UCSBASE
  2

  9
$UCSNAME
  2

  9
$UCSORG
 10
0.0
 20
0.0
 30
0.0
  9
$UCSXDIR
 10
1.0
 20
0.0
 30
0.0
  9
$UCSYDIR
 10
0.0
 20
1.0
 30
0.0
  9
$UCSORTHOREF
  2

  9
$UCSORTHOVIEW
 70
     0
  9
$UCSORGTOP
 10
0.0
 20
0.0
 30
0.0
  9
$UCSORGBOTTOM
 10
0.0
 20
0.0
 30
0.0
  9
$UCSORGLEFT
 10
0.0
 20
0.0
 30
0.0
  9
$UCSORGRIGHT
 10
0.0
 20
0.0
 30
0.0
  9
$UCSORGFRONT
 10
0.0
 20
0.0
 30
0.0
  9
$UCSORGBACK
 10
0.0
 20
0.0
 30
0.0
  9
$PUCSBASE
  2

  9
$PUCSNAME
  2

  9
$PUCSORG
 10
0.0
 20
0.0
 30
0.0
  9
$PUCSXDIR
 10
1.0
 20
0.0
 30
0.0
  9
$PUCSYDIR
 10
0.0
 20
1.0
 30
0.0
  9
$PUCSORTHOREF
  2

  9
$PUCSORTHOVIEW
 70
     0
  9
$PUCSORGTOP
 10
0.0
 20
0.0
 30
0.0
  9
$PUCSORGBOTTOM
 10
0.0
 20
0.0
 30
0.0
  9
$PUCSORGLEFT
 10
0.0
 20
0.0
 30
0.0
  9
$PUCSORGRIGHT
 10
0.0
 20
0.0
 30
0.0
  9
$PUCSORGFRONT
 10
0.0
 20
0.0
 30
0.0
  9
$PUCSORGBACK
 10
0.0
 20
0.0
 30
0.0
  9
$USERI1
 70
     0
  9
$USERI2
 70
     0
  9
$USERI3
 70
     0
  9
$USERI4
 70
     0
  9
$USERI5
 70
     0
  9
$USERR1
 40
0.0
  9
$USERR2
 40
0.0
  9
$USERR3
 40
0.0
  9
$USERR4
 40
0.0
  9
$USERR5
 40
0.0
  9
$WORLDVIEW
 70
     1
  9
$SHADEDGE
 70
     3
  9
$SHADEDIF
 70
    70
  9
$TILEMODE
 70
     1
  9
$MAXACTVP
 70
    64
  9
$PINSBASE
 10
0.0
 20
0.0
 30
0.0
  9
$PLIMCHECK
 70
     0
  9
$PEXTMIN
 10
1.0000000000E+20
 20
1.0000000000E+20
 30
1.0000000000E+20
  9
$PEXTMAX
 10
-1.0000000000E+20
 20
-1.0000000000E+20
 30
-1.0000000000E+20
  9
$PLIMMIN
 10
0.0
 20
0.0
  9
$PLIMMAX
 10
420.0
 20
297.0
  9
$UNITMODE
 70
     0
  9
$VISRETAIN
 70
     1
  9
$PLINEGEN
 70
     0
  9
$PSLTSCALE
 70
     1
  9
$TREEDEPTH
 70
  3020
  9
$CMLSTYLE
  2
Standard
  9
$CMLJUST
 70
     0
  9
$CMLSCALE
 40
20.0
  9
$PROXYGRAPHICS
 70
     1
  9
$MEASUREMENT
 70
     1
  9
$CELWEIGHT
370
    -1
  9
$ENDCAPS
280
     0
  9
$JOINSTYLE
280
     0
  9
$LWDISPLAY
290
     1
  9
$INSUNITS
 70
     4
  9
$HYPERLINKBASE
  1

  9
$STYLESHEET
  1

  9
$XEDIT
290
     1
  9
$CEPSNTYPE
380
     0
  9
$PSTYLEMODE
290
     1
  9
$FINGERPRINTGUID
  2
{428a446b-9e01-4963-b4ef-8b1be90a123d}
  9
$VERSIONGUID
  2
{FAEB1C32-E019-11D5-929B-00C0DF256EC4}
  9
$EXTNAMES
290
     1
  9
$PSVPSCALE
 40
0.0
  9
$OLESTARTUP
290
     0
  0
ENDSEC
  0
SECTION
  2
CLASSES
  0
CLASS
  1
ACDBDICTIONARYWDFLT
  2
AcDbDictionaryWithDefault
  3
ObjectDBX Classes
 90
        0
280
     0
281
     0
  0
CLASS
  1
VISUALSTYLE
  2
AcDbVisualStyle
  3
ObjectDBX Classes
 90
     4095
280
     0
281
     0
  0
CLASS
  1
MATERIAL
  2
AcDbMaterial
  3
ObjectDBX Classes
 90
     1153
280
     0
281
     0
  0
CLASS
  1
SCALE
  2
AcDbScale
  3
ObjectDBX Classes
 90
     1153
280
     0
281
     0
  0
CLASS
  1
TABLESTYLE
  2
AcDbTableStyle
  3
ObjectDBX Classes
 90
     4095
280
     0
281
     0
  0
CLASS
  1
MLEADERSTYLE
  2
AcDbMLeaderStyle
  3
ACDB_MLEADERSTYLE_CLASS
 90
     4095
280
     0
281
     0
  0
CLASS
  1
SUN
  2
AcDbSun
  3
SCENEOE
 90
     1153
280
     0
281
     0
  0
CLASS
  1
ACDBPLACEHOLDER
  2
AcDbPlaceHolder
  3
ObjectDBX Classes
 90
        0
280
     0
281
     0
  0
CLASS
  1
LAYOUT
  2
AcDbLayout
  3
ObjectDBX Classes
 90
        0
280
     0
281
     0
  0
ENDSEC
  0
SECTION
  2
TABLES
  0
TABLE
  2
VPORT
  5
8
330
0
100
AcDbSymbolTable
 70
     1
  0
VPORT
  5
29
330
8
100
AcDbSymbolTableRecord
100
AcDbViewportTableRecord
  2
*Active
 70
     0
 10
0.0
 20
0.0
 11
1.0
 21
1.0
 12
1514.9553891296
 22
8132.1662941907
 13
0.0
 23
0.0
 14
10.0
 24
10.0
 15
10.0
 25
10.0
 16
0.0
 26
0.0
 36
1.0
 17
0.0
 27
0.0
 37
0.0
 40
108.7851011999
 41
0.7979994761
 42
50.0
 43
0.0
 44
0.0
 50
0.0
 51
0.0
 71
     0
 72
   100
 73
     1
 74
     3
 75
     0
 76
     0
 77
     0
 78
     0
281
     0
 65
     1
110
0.0
120
0.0
130
0.0
111
1.0
121
0.0
131
0.0
112
0.0
122
1.0
132
0.0
 79
     0
146
0.0
  0
ENDTAB
  0
TABLE
  2
LTYPE
  5
5
330
0
100
AcDbSymbolTable
 70
     6
  0
LTYPE
  5
14
330
5
100
AcDbSymbolTableRecord
100
AcDbLinetypeTableRecord
  2
ByBlock
 70
     0
  3

 72
    65
 73
     0
 40
0.0
  0
LTYPE
  5
15
330
5
100
AcDbSymbolTableRecord
100
AcDbLinetypeTableRecord
  2
ByLayer
 70
     0
  3

 72
    65
 73
     0
 40
0.0
  0
LTYPE
  5
16
330
5
100
AcDbSymbolTableRecord
100
AcDbLinetypeTableRecord
  2
Continuous
 70
     0
  3
Solid line
 72
    65
 73
     0
 40
0.0
  0
LTYPE
  5
6E
330
5
100
AcDbSymbolTableRecord
100
AcDbLinetypeTableRecord
  2
HIDDEN
 70
     0
  3
Hidden __ __ __ __ __ __ __ __ __ __ __ __ __ __
 72
    65
 73
     2
 40
1.905
 49
1.27
 74
     0
 49
-0.635
 74
     0
  0
LTYPE
  5
6F
330
5
100
AcDbSymbolTableRecord
100
AcDbLinetypeTableRecord
  2
PHANTOM
 70
     0
  3
Phantom ______  __  __  ______  __  __  ______
 72
    65
 73
     6
 40
12.7
 49
6.35
 74
     0
 49
-1.27
 74
     0
 49
1.27
 74
     0
 49
-1.27
 74
     0
 49
1.27
 74
     0
 49
-1.27
 74
     0
  0
LTYPE
  5
70
330
5
100
AcDbSymbolTableRecord
100
AcDbLinetypeTableRecord
  2
CENTER
 70
     0
  3
Center ____ _ ____ _ ____ _ ____ _ ____ _ ____
 72
    65
 73
     4
 40
10.16
 49
6.35
 74
     0
 49
-1.27
 74
     0
 49
1.27
 74
     0
 49
-1.27
 74
     0
  0
LTYPE
  5
71
330
5
100
AcDbSymbolTableRecord
100
AcDbLinetypeTableRecord
  2
CENTERX2
 70
     0
  3
Center (2x) ________  __  ________  __  _____
 72
    65
 73
     4
 40
20.32
 49
12.7
 74
     0
 49
-2.54
 74
     0
 49
2.54
 74
     0
 49
-2.54
 74
     0
  0
LTYPE
  5
72
330
5
100
AcDbSymbolTableRecord
100
AcDbLinetypeTableRecord
  2
DOT2
 70
     0
  3
Dot (.5x) ........................................
 72
    65
 73
     2
 40
0.635
 49
0.0
 74
     0
 49
-0.635
 74
     0
  0
ENDTAB
  0
TABLE
  2
LAYER
  5
2
330
0
100
AcDbSymbolTable
 70
     1
  0
LAYER
  5
10
330
2
100
AcDbSymbolTableRecord
100
AcDbLayerTableRecord
  2
0
 70
     0
 62
     7
  6
Continuous
370
    -3
390
F
  0
ENDTAB
  0
TABLE
  2
STYLE
  5
3
330
0
100
AcDbSymbolTable
 70
     1
  0
STYLE
  5
11
330
3
100
AcDbSymbolTableRecord
100
AcDbTextStyleTableRecord
  2
Standard
 70
     0
 40
0.0
 41
1.0
 50
0.0
 71
     0
 42
4.0
  3
txt
  4

  0
ENDTAB
  0
TABLE
  2
VIEW
  5
6
330
0
100
AcDbSymbolTable
 70
     0
  0
ENDTAB
  0
TABLE
  2
UCS
  5
7
330
0
100
AcDbSymbolTable
 70
     0
  0
ENDTAB
  0
TABLE
  2
APPID
  5
9
330
0
100
AcDbSymbolTable
 70
     1
  0
APPID
  5
12
330
9
100
AcDbSymbolTableRecord
100
AcDbRegAppTableRecord
  2
ACAD
 70
     0
  0
ENDTAB
  0
TABLE
  2
DIMSTYLE
  5
A
330
0
100
AcDbSymbolTable
 70
     1
100
AcDbDimStyleTable
  0
DIMSTYLE
105
27
330
A
100
AcDbSymbolTableRecord
100
AcDbDimStyleTableRecord
  2
ISO-25
 70
     0
 41
2.5
 42
0.625
 43
3.75
 44
1.25
 73
     0
 74
     0
 77
     1
 78
     8
140
2.5
141
2.5
143
0.0393700787
147
0.625
171
     3
172
     1
178
     0
271
     2
272
     2
274
     3
278
    44
283
     0
284
     8
340
11
  0
ENDTAB
  0
TABLE
  2
BLOCK_RECORD
  5
1
330
0
100
AcDbSymbolTable
 70
     1
  0
BLOCK_RECORD
  5
1F
330
1
100
AcDbSymbolTableRecord
100
AcDbBlockTableRecord
  2
*Model_Space
340
22
  0
BLOCK_RECORD
  5
1B
330
1
100
AcDbSymbolTableRecord
100
AcDbBlockTableRecord
  2
*Paper_Space
340
1E
  0
BLOCK_RECORD
  5
23
330
1
100
AcDbSymbolTableRecord
100
AcDbBlockTableRecord
  2
*Paper_Space0
340
26
  0
ENDTAB
  0
ENDSEC
  0
SECTION
  2
BLOCKS
  0
BLOCK
  5
20
330
1F
100
AcDbEntity
  8
0
100
AcDbBlockBegin
  2
*Model_Space
 70
     0
 10
0.0
 20
0.0
 30
0.0
  3
*Model_Space
  1

  0
ENDBLK
  5
21
330
1F
100
AcDbEntity
  8
0
100
AcDbBlockEnd
  0
BLOCK
  5
1C
330
1B
100
AcDbEntity
 67
     1
  8
0
100
AcDbBlockBegin
  2
*Paper_Space
 70
     0
 10
0.0
 20
0.0
 30
0.0
  3
*Paper_Space
  1

  0
ENDBLK
  5
1D
330
1B
100
AcDbEntity
 67
     1
  8
0
100
AcDbBlockEnd
  0
BLOCK
  5
24
330
23
100
AcDbEntity
  8
0
100
AcDbBlockBegin
  2
*Paper_Space0
 70
     0
 10
0.0
 20
0.0
 30
0.0
  3
*Paper_Space0
  1

  0
ENDBLK
  5
25
330
23
100
AcDbEntity
  8
0
100
AcDbBlockEnd
  0
ENDSEC
  0
SECTION
  2
ENTITIES
  0
SPLINE
  5
74
330
1F
100
AcDbEntity
  8
0
  6
Continuous
 62
     7
370
    25
100
AcDbSpline
210
0.0
220
0.0
230
1.0
 70
     8
 71
     3
 72
    15
 73
    11
 74
     0
 42
0.000000001
 43
0.00000001
 40
0.0
 40
0.0
 40
0.0
 40
0.0
 40
0.1354286630936426
 40
0.2590269151055566
 40
0.3707042516397975
 40
0.4790471821147504
 40
0.5907245186490536
 40
0.7118555973608178
 40
0.8467799583351006
 40
0.9999999999999999
 40
0.9999999999999999
 40
0.9999999999999999
 40
0.9999999999999999
 10
1512.967849557993
 20
8114.593865616596
 30
0.0
 10
1512.968671197794
 20
8114.614460734364
 30
0.0
 10
1512.970242702808
 20
8114.65385187727
 30
0.0
 10
1512.983906795318
 20
8114.708993132331
 30
0.0
 10
1513.007603601014
 20
8114.756036022395
 30
0.0
 10
1513.041148360613
 20
8114.794402966841
 30
0.0
 10
1513.084363212829
 20
8114.823847271017
 30
0.0
 10
1513.136544093918
 20
8114.844963358093
 30
0.0
 10
1513.198137037474
 20
8114.855724911972
 30
0.0
 10
1513.241884340127
 20
8114.857631956175
 30
0.0
 10
1513.26514685529
 20
8114.858646022004
 30
0.0
  0
SPLINE
  5
75
330
1F
100
AcDbEntity
  8
0
  6
Continuous
 62
     7
370
    25
100
AcDbSpline
210
0.0
220
0.0
230
1.0
 70
     8
 71
     3
 72
    15
 73
    11
 74
     0
 42
0.000000001
 43
0.00000001
 40
0.0
 40
0.0
 40
0.0
 40
0.0
 40
0.1691382693021194
 40
0.3176902073342272
 40
0.4474110356377807
 40
0.5634106106293776
 40
0.6687664326274023
 40
0.7731538901271297
 40
0.8800408488353593
 40
1.0
 40
1.0
 40
1.0
 40
1.0
 10
1513.26514685529
 20
8114.858646022004
 30
0.0
 10
1513.294256060818
 20
8114.858334127005
 30
0.0
 10
1513.348931502265
 20
8114.857748298691
 30
0.0
 10
1513.424795497191
 20
8114.844262151385
 30
0.0
 10
1513.490370308974
 20
8114.82587986915
 30
0.0
 10
1513.543384989164
 20
8114.796208393925
 30
0.0
 10
1513.586523283183
 20
8114.759586618078
 30
0.0
 10
1513.615637052885
 20
8114.712822813834
 30
0.0
 10
1513.634115506567
 20
8114.658302287332
 30
0.0
 10
1513.635850820502
 20
8114.619192596324
 30
0.0
 10
1513.636768476911
 20
8114.598510886868
 30
0.0
  0
SPLINE
  5
77
330
1F
100
AcDbEntity
  8
0
  6
Continuous
 62
     7
370
    25
100
AcDbSpline
210
0.0
220
0.0
230
1.0
 70
     8
 71
     3
 72
    15
 73
    11
 74
     0
 42
0.000000001
 43
0.00000001
 40
0.0
 40
0.0
 40
0.0
 40
0.0
 40
0.1435805382302476
 40
0.2773180907195725
 40
0.4047876967772023
 40
0.5341163941168761
 40
0.6605782338346072
 40
0.7766771723013535
 40
0.8879535422141097
 40
1.0
 40
1.0
 40
1.0
 40
1.0
 10
1513.636768476911
 20
8112.923890954436
 30
0.0
 10
1513.638792951132
 20
8112.876422166689
 30
0.0
 10
1513.642703114253
 20
8112.784738755073
 30
0.0
 10
1513.678575687655
 20
8112.654864099728
 30
0.0
 10
1513.736512575644
 20
8112.538757384348
 30
0.0
 10
1513.81692636807
 20
8112.44000147285
 30
0.0
 10
1513.910473866383
 20
8112.359425511419
 30
0.0
 10
1514.012382246329
 20
8112.301392439582
 30
0.0
 10
1514.119224434747
 20
8112.263735959882
 30
0.0
 10
1514.193124370743
 20
8112.259446697307
 30
0.0
 10
1514.230201753938
 20
8112.257294670652
 30
0.0
  0
SPLINE
  5
7A
330
1F
100
AcDbEntity
  8
0
  6
Continuous
 62
     7
370
    25
100
AcDbSpline
210
0.0
220
0.0
230
1.0
 70
     8
 71
     3
 72
    15
 73
    11
 74
     0
 42
0.000000001
 43
0.00000001
 40
0.0
 40
0.0
 40
0.0
 40
0.0
 40
0.1364411897142845
 40
0.2559957227679845
 40
0.3685080101434552
 40
0.4757423758333578
 40
0.5882546632087567
 40
0.7093427114891874
 40
0.8457839012034866
 40
1.0
 40
1.0
 40
1.0
 40
1.0
 10
1515.271903612047
 20
8114.598510886868
 30
0.0
 10
1515.272624061081
 20
8114.61913605982
 30
0.0
 10
1515.273975792709
 20
8114.657833729259
 30
0.0
 10
1515.288508754333
 20
8114.711888948626
 30
0.0
 10
1515.311245186792
 20
8114.75834385632
 30
0.0
 10
1515.345692076673
 20
8114.795442183022
 30
0.0
 10
1515.388082220944
 20
8114.82541743548
 30
0.0
 10
1515.441068059775
 20
8114.844181121785
 30
0.0
 10
1515.501932340344
 20
8114.85771885071
 30
0.0
 10
1515.545882148144
 20
8114.858324616533
 30
0.0
 10
1515.569200909344
 20
8114.858646022004
 30
0.0
  0
SPLINE
  5
7B
330
1F
100
AcDbEntity
  8
0
  6
Continuous
 62
     7
370
    25
100
AcDbSpline
210
0.0
220
0.0
230
1.0
 70
     8
 71
     3
 72
    15
 73
    11
 74
     0
 42
0.000000001
 43
0.00000001
 40
0.0
 40
0.0
 40
0.0
 40
0.0
 40
0.1678628092162976
 40
0.3148466165912565
 40
0.4441869603121395
 40
0.5592403382441481
 40
0.6652318690748097
 40
0.7706563435097099
 40
0.878794047387536
 40
1.0
 40
1.0
 40
1.0
 40
1.0
 10
1515.569200909344
 20
8114.858646022004
 30
0.0
 10
1515.598262684499
 20
8114.857631055388
 30
0.0
 10
1515.652771492153
 20
8114.855727365069
 30
0.0
 10
1515.729243402187
 20
8114.845098780251
 30
0.0
 10
1515.794142876162
 20
8114.824275351905
 30
0.0
 10
1515.847872652123
 20
8114.795234884669
 30
0.0
 10
1515.890602023869
 20
8114.757094014438
 30
0.0
 10
1515.919719361036
 20
8114.70930327709
 30
0.0
 10
1515.938155774607
 20
8114.653621522591
 30
0.0
 10
1515.939900473897
 20
8114.613767024308
 30
0.0
 10
1515.940822530965
 20
8114.59270429903
 30
0.0
  0
SPLINE
  5
7D
330
1F
100
AcDbEntity
  8
0
  6
Continuous
 62
     7
370
    25
100
AcDbSpline
210
0.0
220
0.0
230
1.0
 70
     8
 71
     3
 72
    23
 73
    19
 74
     0
 42
0.000000001
 43
0.00000001
 40
0.0
 40
0.0
 40
0.0
 40
0.0
 40
0.0603066210140963
 40
0.1194421281967425
 40
0.1780227147626743
 40
0.2361343677381731
 40
0.295503641532556
 40
0.355386274155875
 40
0.4170389405274454
 40
0.4815965223710664
 40
0.5461911773604479
 40
0.6093536377899117
 40
0.6725404596655145
 40
0.7353635899273242
 40
0.7989819471019777
 40
0.8636824083129424
 40
0.930345906371083
 40
1.0
 40
1.0
 40
1.0
 40
1.0
 10
1515.940822530965
 20
8110.579190785516
 30
0.0
 10
1515.939735755146
 20
8110.539252962324
 30
0.0
 10
1515.937583307959
 20
8110.46015288148
 30
0.0
 10
1515.919488238034
 20
8110.343414260168
 30
0.0
 10
1515.89075158484
 20
8110.230440740834
 30
0.0
 10
1515.84933425562
 20
8110.121244851431
 30
0.0
 10
1515.797041069092
 20
8110.015981029869
 30
0.0
 10
1515.734311303512
 20
8109.9136796695
 30
0.0
 10
1515.657304554519
 20
8109.817260610088
 30
0.0
 10
1515.571723618563
 20
8109.724250221219
 30
0.0
 10
1515.477253000703
 20
8109.638573692117
 30
0.0
 10
1515.375181280051
 20
8109.56373473458
 30
0.0
 10
1515.267497737185
 20
8109.499273456676
 30
0.0
 10
1515.152410615888
 20
8109.448652789871
 30
0.0
 10
1515.032697973974
 20
8109.406966769089
 30
0.0
 10
1514.90623111575
 20
8109.380152791127
 30
0.0
 10
1514.774244292531
 20
8109.361653116986
 30
0.0
 10
1514.68395782575
 20
8109.359662940787
 30
0.0
 10
1514.637824220154
 20
8109.358646022002
 30
0.0
  0
SPLINE
  5
7F
330
1F
100
AcDbEntity
  8
0
  6
Continuous
 62
     7
370
    25
100
AcDbSpline
210
0.0
220
0.0
230
1.0
 70
     8
 71
     3
 72
    15
 73
    11
 74
     0
 42
0.000000001
 43
0.00000001
 40
0.0
 40
0.0
 40
0.0
 40
0.0
 40
0.1376465333875119
 40
0.2584939900653793
 40
0.3721777144533733
 40
0.4802669656692743
 40
0.5916828156085248
 40
0.712530272286383
 40
0.8471387149837204
 40
1.0
 40
1.0
 40
1.0
 40
1.0
 10
1513.679737226911
 20
8109.358646022002
 30
0.0
 10
1513.658730184706
 20
8109.35937126001
 30
0.0
 10
1513.619279905607
 20
8109.360733224321
 30
0.0
 10
1513.564053675477
 20
8109.3752339291
 30
0.0
 10
1513.516596110865
 20
8109.398014196122
 30
0.0
 10
1513.478058119543
 20
8109.431987006701
 30
0.0
 10
1513.44858846813
 20
8109.475147197622
 30
0.0
 10
1513.427479959993
 20
8109.527344422686
 30
0.0
 10
1513.416716071602
 20
8109.588932331871
 30
0.0
 10
1513.414809381483
 20
8109.632680398106
 30
0.0
 10
1513.413795503938
 20
8109.6559433193
 30
0.0
  0
SPLINE
  5
80
330
1F
100
AcDbEntity
  8
0
  6
Continuous
 62
     7
370
    25
100
AcDbSpline
210
0.0
220
0.0
230
1.0
 70
     8
 71
     3
 72
    15
 73
    11
 74
     0
 42
0.000000001
 43
0.00000001
 40
0.0
 40
0.0
 40
0.0
 40
0.0
 40
0.1545651316740366
 40
0.2906739683079849
 40
0.4128684340414778
 40
0.5240800725849482
 40
0.6333741253266512
 40
0.7437509193892234
 40
0.8659453851226832
 40
1.0
 40
1.0
 40
1.0
 40
1.0
 10
1513.413795503938
 20
8109.6559433193
 30
0.0
 10
1513.414819725014
 20
8109.679198674483
 30
0.0
 10
1513.416745867095
 20
8109.722932512133
 30
0.0
 10
1513.427381506727
 20
8109.784614231817
 30
0.0
 10
1513.448822462694
 20
8109.836304613468
 30
0.0
 10
1513.476731941844
 20
8109.88032202423
 30
0.0
 10
1513.51513038626
 20
8109.913075870175
 30
0.0
 10
1513.56100671515
 20
8109.937263373462
 30
0.0
 10
1513.615109580253
 20
8109.950830810801
 30
0.0
 10
1513.653727821427
 20
8109.952412939094
 30
0.0
 10
1513.673930639073
 20
8109.953240616598
 30
0.0
  0
SPLINE
  5
82
330
1F
100
AcDbEntity
  8
0
  6
Continuous
 62
     7
370
    25
100
AcDbSpline
210
0.0
220
0.0
230
1.0
 70
     8
 71
     3
 72
    15
 73
    11
 74
     0
 42
0.000000001
 43
0.00000001
 40
0.0
 40
0.0
 40
0.0
 40
0.0
 40
0.1276214145536307
 40
0.2496255370571496
 40
0.3727052207490254
 40
0.4998668058614316
 40
0.6277318322075305
 40
0.7503744629428668
 40
0.8723785854463989
 40
1.0
 40
1.0
 40
1.0
 40
1.0
 10
1514.600662057992
 20
8109.953240616598
 30
0.0
 10
1514.645421535093
 20
8109.955755789912
 30
0.0
 10
1514.732970388462
 20
8109.96067543049
 30
0.0
 10
1514.85953354052
 20
8109.997889950278
 30
0.0
 10
1514.974570734136
 20
8110.061005374055
 30
0.0
 10
1515.077759727069
 20
8110.145429630199
 30
0.0
 10
1515.162435274861
 20
8110.24803895344
 30
0.0
 10
1515.227752563837
 20
8110.362040173037
 30
0.0
 10
1515.264349271159
 20
8110.488751663172
 30
0.0
 10
1515.269348003138
 20
8110.576259639364
 30
0.0
 10
1515.271903612047
 20
8110.620998217948
 30
0.0
  0
SPLINE
  5
85
330
1F
100
AcDbEntity
  8
0
  6
Continuous
 62
     7
370
    25
100
AcDbSpline
210
0.0
220
0.0
230
1.0
 70
     8
 71
     3
 72
    23
 73
    19
 74
     0
 42
0.000000001
 43
0.00000001
 40
0.0
 40
0.0
 40
0.0
 40
0.0
 40
0.0654089211841049
 40
0.1288954245590049
 40
0.1905242960456288
 40
0.2519389918315113
 40
0.3128299810523997
 40
0.3744618219611585
 40
0.4371389187316704
 40
0.501399012446055
 40
0.5660650739897878
 40
0.6282585326512506
 40
0.6898903735600004
 40
0.750234919292034
 40
0.8112789954642815
 40
0.8729078669508984
 40
0.9351954156187536
 40
1.0
 40
1.0
 40
1.0
 40
1.0
 10
1514.191878274209
 20
8111.662700076058
 30
0.0
 10
1514.150025912784
 20
8111.663903572276
 30
0.0
 10
1514.067551262583
 20
8111.66627519305
 30
0.0
 10
1513.946416623342
 20
8111.682386426136
 30
0.0
 10
1513.830388902625
 20
8111.7110234843
 30
0.0
 10
1513.718673981287
 20
8111.748679041163
 30
0.0
 10
1513.612123224621
 20
8111.799301713537
 30
0.0
 10
1513.51089841834
 20
8111.86128200104
 30
0.0
 10
1513.4142363573
 20
8111.93373600101
 30
0.0
 10
1513.322645508804
 20
8112.015532059731
 30
0.0
 10
1513.240442253596
 20
8112.106329987272
 30
0.0
 10
1513.167263089475
 20
8112.202405718483
 30
0.0
 10
1513.105857846394
 20
8112.303247988102
 30
0.0
 10
1513.055291383527
 20
8112.409078529341
 30
0.0
 10
1513.015624129563
 20
8112.519502815308
 30
0.0
 10
1512.987928754905
 20
8112.634767778607
 30
0.0
 10
1512.971290146317
 20
8112.754627180349
 30
0.0
 10
1512.969011463727
 20
8112.835964272682
 30
0.0
 10
1512.967849557993
 20
8112.877438251733
 30
0.0
  0
SPLINE
  5
87
330
1F
100
AcDbEntity
  8
0
  6
Continuous
 62
     7
370
    25
100
AcDbSpline
210
0.0
220
0.0
230
1.0
 70
     8
 71
     3
 72
    23
 73
    19
 74
     0
 42
0.000000001
 43
0.00000001
 40
0.0
 40
0.0
 40
0.0
 40
0.0
 40
0.0636792225567359
 40
0.126070640309074
 40
0.1877884128189558
 40
0.2486942415156909
 40
0.3106504428495312
 40
0.3731862596610881
 40
0.437072162848134
 40
0.5027572666284864
 40
0.5685610952128183
 40
0.6313045945878312
 40
0.6928901336675647
 40
0.7540091838791592
 40
0.8140574441551112
 40
0.87434498167475
 40
0.9363207774432697
 40
0.9999999999999999
 40
0.9999999999999999
 40
0.9999999999999999
 40
0.9999999999999999
 10
1510.276612226911
 20
8109.358646022002
 30
0.0
 10
1510.234756316927
 20
8109.359845295859
 30
0.0
 10
1510.151890962097
 20
8109.362219590279
 30
0.0
 10
1510.029308025865
 20
8109.378651683459
 30
0.0
 10
1509.910796453676
 20
8109.406641143057
 30
0.0
 10
1509.795658473732
 20
8109.445371615381
 30
0.0
 10
1509.684151322456
 20
8109.495049982456
 30
0.0
 10
1509.576971364362
 20
8109.557428943483
 30
0.0
 10
1509.473388517424
 20
8109.629803835847
 30
0.0
 10
1509.37390164617
 20
8109.71127675767
 30
0.0
 10
1509.283684346723
 20
8109.801866443205
 30
0.0
 10
1509.20340221429
 20
8109.897871617291
 30
0.0
 10
1509.135656980901
 20
8109.999498100439
 30
0.0
 10
1509.079971080773
 20
8110.106156584349
 30
0.0
 10
1509.03628527518
 20
8110.21743904881
 30
0.0
 10
1509.006416333658
 20
8110.333680645795
 30
0.0
 10
1508.986964345565
 20
8110.454659523375
 30
0.0
 10
1508.985040657408
 20
8110.537306898481
 30
0.0
 10
1508.984065774209
 20
8110.579190785516
 30
0.0
  0
SPLINE
  5
89
330
1F
100
AcDbEntity
  8
0
  6
Continuous
 62
     7
370
    25
100
AcDbSpline
210
0.0
220
0.0
230
1.0
 70
     8
 71
     3
 72
    23
 73
    19
 74
     0
 42
0.000000001
 43
0.00000001
 40
0.0
 40
0.0
 40
0.0
 40
0.0
 40
0.0636946562228408
 40
0.1251032544639371
 40
0.1859753988458988
 40
0.2460382127668188
 40
0.3066503712076595
 40
0.368250836516198
 40
0.4310095427699959
 40
0.4968293199522676
 40
0.5629069775515
 40
0.6268083644969386
 40
0.6895808951679923
 40
0.751260191085959
 40
0.8127393982939808
 40
0.8738988044785992
 40
0.9363053437771761
 40
1.0
 40
1.0
 40
1.0
 40
1.0
 10
1508.984065774209
 20
8113.63810125849
 30
0.0
 10
1508.985005785462
 20
8113.679990926654
 30
0.0
 10
1508.986852070128
 20
8113.762266805456
 30
0.0
 10
1509.006723994946
 20
8113.883161272749
 30
0.0
 10
1509.036094729923
 20
8113.999502785625
 30
0.0
 10
1509.079691650474
 20
8114.110903226157
 30
0.0
 10
1509.13600380452
 20
8114.216836561642
 30
0.0
 10
1509.203370620664
 20
8114.31826902807
 30
0.0
 10
1509.283649161192
 20
8114.414310359908
 30
0.0
 10
1509.374260903874
 20
8114.504823572634
 30
0.0
 10
1509.473088146397
 20
8114.587398363506
 30
0.0
 10
1509.576783886526
 20
8114.660548896449
 30
0.0
 10
1509.685529323298
 20
8114.719888918387
 30
0.0
 10
1509.79582661136
 20
8114.772913953823
 30
0.0
 10
1509.911389100745
 20
8114.810053583209
 30
0.0
 10
1510.029622486377
 20
8114.83888203037
 30
0.0
 10
1510.151906374796
 20
8114.855023009667
 30
0.0
 10
1510.234761489361
 20
8114.857430154938
 30
0.0
 10
1510.276612226911
 20
8114.858646022004
 30
0.0
  0
SPLINE
  5
8B
330
1F
100
AcDbEntity
  8
0
  6
Continuous
 62
     7
370
    25
100
AcDbSpline
210
0.0
220
0.0
230
1.0
 70
     8
 71
     3
 72
    15
 73
    11
 74
     0
 42
0.000000001
 43
0.00000001
 40
0.0
 40
0.0
 40
0.0
 40
0.0
 40
0.1548790377790354
 40
0.2919933978856743
 40
0.4126674844478747
 40
0.5257810605822272
 40
0.633715244852551
 40
0.7449712554429643
 40
0.8650822696620739
 40
1.0
 40
1.0
 40
1.0
 40
1.0
 10
1511.234699220155
 20
8114.858646022004
 30
0.0
 10
1511.261468639229
 20
8114.857852928958
 30
0.0
 10
1511.311937016014
 20
8114.85635771091
 30
0.0
 10
1511.382371945089
 20
8114.842861829972
 30
0.0
 10
1511.442276803992
 20
8114.819241940784
 30
0.0
 10
1511.492405874927
 20
8114.78693662019
 30
0.0
 10
1511.53073180885
 20
8114.743320306026
 30
0.0
 10
1511.55814308497
 20
8114.690856412811
 30
0.0
 10
1511.572638670174
 20
8114.628679225241
 30
0.0
 10
1511.574919800025
 20
8114.584644430398
 30
0.0
 10
1511.57612658502
 20
8114.561348724705
 30
0.0
  0
SPLINE
  5
8C
330
1F
100
AcDbEntity
  8
0
  6
Continuous
 62
     7
370
    25
100
AcDbSpline
210
0.0
220
0.0
230
1.0
 70
     8
 71
     3
 72
    15
 73
    11
 74
     0
 42
0.000000001
 43
0.00000001
 40
0.0
 40
0.0
 40
0.0
 40
0.0
 40
0.1349177303379231
 40
0.2550287445571132
 40
0.3662847551474481
 40
0.4742189394177695
 40
0.5873325155521195
 40
0.708006602114349
 40
0.845120962220968
 40
1.0
 40
1.0
 40
1.0
 40
1.0
 10
1511.57612658502
 20
8114.561348724705
 30
0.0
 10
1511.574919800025
 20
8114.538053019013
 30
0.0
 10
1511.572638670174
 20
8114.494018224169
 30
0.0
 10
1511.55814308497
 20
8114.4318410366
 30
0.0
 10
1511.53073180885
 20
8114.379377143385
 30
0.0
 10
1511.492405874927
 20
8114.335760829223
 30
0.0
 10
1511.442276803992
 20
8114.303455508626
 30
0.0
 10
1511.382371945089
 20
8114.27983561944
 30
0.0
 10
1511.311937016014
 20
8114.266339738503
 30
0.0
 10
1511.261468639229
 20
8114.264844520454
 30
0.0
 10
1511.234699220155
 20
8114.264051427408
 30
0.0
  0
SPLINE
  5
8E
330
1F
100
AcDbEntity
  8
0
  6
Continuous
 62
     7
370
    25
100
AcDbSpline
210
0.0
220
0.0
230
1.0
 70
     8
 71
     3
 72
    15
 73
    11
 74
     0
 42
0.000000001
 43
0.00000001
 40
0.0
 40
0.0
 40
0.0
 40
0.0
 40
0.1149354247297746
 40
0.228870770816931
 40
0.3476177967011418
 40
0.4735492141811182
 40
0.6025588394228699
 40
0.7278916335685109
 40
0.8600067485934961
 40
1.0
 40
1.0
 40
1.0
 40
1.0
 10
1510.276612226911
 20
8114.264051427408
 30
0.0
 10
1510.23762149609
 20
8114.261884481138
 30
0.0
 10
1510.15997930145
 20
8114.257569443682
 30
0.0
 10
1510.047114941154
 20
8114.220226001739
 30
0.0
 10
1509.940181624666
 20
8114.161490616451
 30
0.0
 10
1509.842704228506
 20
8114.07996167477
 30
0.0
 10
1509.757301644795
 20
8113.982369209076
 30
0.0
 10
1509.697153190177
 20
8113.86512821911
 30
0.0
 10
1509.658427196375
 20
8113.735003977639
 30
0.0
 10
1509.654833542276
 20
8113.642647638006
 30
0.0
 10
1509.652984693128
 20
8113.59513250849
 30
0.0
  0
SPLINE
  5
90
330
1F
100
AcDbEntity
  8
0
  6
Continuous
 62
     7
370
    25
100
AcDbSpline
210
0.0
220
0.0
230
1.0
 70
     8
 71
     3
 72
    15
 73
    11
 74
     0
 42
0.000000001
 43
0.00000001
 40
0.0
 40
0.0
 40
0.0
 40
0.0
 40
0.1409979526999626
 40
0.2715745442824498
 40
0.3983312247206628
 40
0.5264808775378705
 40
0.6531757505703474
 40
0.770258373369423
 40
0.8851746440774003
 40
1.0
 40
1.0
 40
1.0
 40
1.0
 10
1509.652984693128
 20
8110.622159535516
 30
0.0
 10
1509.654905579687
 20
8110.574291530836
 30
0.0
 10
1509.658605377321
 20
8110.482093514427
 30
0.0
 10
1509.695866833945
 20
8110.35100838949
 30
0.0
 10
1509.757377350206
 20
8110.23474729895
 30
0.0
 10
1509.841468638036
 20
8110.135373358382
 30
0.0
 10
1509.939662960338
 20
8110.055230966362
 30
0.0
 10
1510.046754768139
 20
8109.996669496482
 30
0.0
 10
1510.159649765867
 20
8109.959870593947
 30
0.0
 10
1510.237635026834
 20
8109.955450025936
 30
0.0
 10
1510.276612226911
 20
8109.953240616598
 30
0.0
  0
SPLINE
  5
92
330
1F
100
AcDbEntity
  8
0
  6
Continuous
 62
     7
370
    25
100
AcDbSpline
210
0.0
220
0.0
230
1.0
 70
     8
 71
     3
 72
    15
 73
    11
 74
     0
 42
0.000000001
 43
0.00000001
 40
0.0
 40
0.0
 40
0.0
 40
0.0
 40
0.1548790377790354
 40
0.2919933978856743
 40
0.4126674844478747
 40
0.5257810605822272
 40
0.633715244852551
 40
0.7449712554429643
 40
0.8650822696620739
 40
1.0
 40
1.0
 40
1.0
 40
1.0
 10
1511.234699220155
 20
8109.953240616598
 30
0.0
 10
1511.261468639229
 20
8109.952447523552
 30
0.0
 10
1511.311937016014
 20
8109.950952305503
 30
0.0
 10
1511.382371945089
 20
8109.937456424566
 30
0.0
 10
1511.442276803992
 20
8109.91383653538
 30
0.0
 10
1511.492405874927
 20
8109.881531214784
 30
0.0
 10
1511.53073180885
 20
8109.837914900621
 30
0.0
 10
1511.55814308497
 20
8109.785451007404
 30
0.0
 10
1511.572638670174
 20
8109.723273819837
 30
0.0
 10
1511.574919800025
 20
8109.679239024992
 30
0.0
 10
1511.57612658502
 20
8109.6559433193
 30
0.0
  0
SPLINE
  5
93
330
1F
100
AcDbEntity
  8
0
  6
Continuous
 62
     7
370
    25
100
AcDbSpline
210
0.0
220
0.0
230
1.0
 70
     8
 71
     3
 72
    15
 73
    11
 74
     0
 42
0.000000001
 43
0.00000001
 40
0.0
 40
0.0
 40
0.0
 40
0.0
 40
0.1349177303379231
 40
0.2550287445571132
 40
0.3662847551474481
 40
0.4742189394177695
 40
0.5873325155521195
 40
0.708006602114349
 40
0.845120962220968
 40
1.0
 40
1.0
 40
1.0
 40
1.0
 10
1511.57612658502
 20
8109.6559433193
 30
0.0
 10
1511.574919800025
 20
8109.632647613606
 30
0.0
 10
1511.572638670174
 20
8109.588612818763
 30
0.0
 10
1511.55814308497
 20
8109.526435631194
 30
0.0
 10
1511.53073180885
 20
8109.47397173798
 30
0.0
 10
1511.492405874927
 20
8109.430355423816
 30
0.0
 10
1511.442276803992
 20
8109.398050103222
 30
0.0
 10
1511.382371945089
 20
8109.374430214034
 30
0.0
 10
1511.311937016014
 20
8109.360934333097
 30
0.0
 10
1511.261468639229
 20
8109.359439115048
 30
0.0
 10
1511.234699220155
 20
8109.358646022002
 30
0.0
  0
SPLINE
  5
94
330
1F
100
AcDbEntity
  8
0
  6
Continuous
 62
     7
370
    25
100
AcDbSpline
210
0.0
220
0.0
230
1.0
 70
     8
 71
     3
 72
    15
 73
    11
 74
     0
 42
0.000000001
 43
0.00000001
 40
0.0
 40
0.0
 40
0.0
 40
0.0
 40
0.1526075283706581
 40
0.2869925149660273
 40
0.4076393594010351
 40
0.5203370983718306
 40
0.6282469165428426
 40
0.7394778111329606
 40
0.8625819660822897
 40
1.0
 40
1.0
 40
1.0
 40
1.0
 10
1520.667849557992
 20
8109.358646022002
 30
0.0
 10
1520.644580283144
 20
8109.359650612249
 30
0.0
 10
1520.600820268278
 20
8109.361539836751
 30
0.0
 10
1520.539311137627
 20
8109.372418877731
 30
0.0
 10
1520.486648091037
 20
8109.393236585736
 30
0.0
 10
1520.44420100494
 20
8109.424162097815
 30
0.0
 10
1520.410251783952
 20
8109.462340933318
 30
0.0
 10
1520.386626120339
 20
8109.50948313142
 30
0.0
 10
1520.372845984446
 20
8109.564973213131
 30
0.0
 10
1520.371344336967
 20
8109.604761745209
 30
0.0
 10
1520.370552260695
 20
8109.625749062543
 30
0.0
  0
SPLINE
  5
97
330
1F
100
AcDbEntity
  8
0
  6
Continuous
 62
     7
370
    25
100
AcDbSpline
210
0.0
220
0.0
230
1.0
 70
     8
 71
     3
 72
    11
 73
     7
 74
     0
 42
0.000000001
 43
0.00000001
 40
0.0
 40
0.0
 40
0.0
 40
0.0
 40
0.2516368596472376
 40
0.487003265925167
 40
0.7307233482108846
 40
1.0
 40
1.0
 40
1.0
 40
1.0
 10
1519.428723713398
 20
8111.998320853085
 30
0.0
 10
1519.412662622665
 20
8111.974208368304
 30
0.0
 10
1519.381578926691
 20
8111.927542475027
 30
0.0
 10
1519.312032215272
 20
8111.878989518498
 30
0.0
 10
1519.231767612421
 20
8111.846379755766
 30
0.0
 10
1519.172820270271
 20
8111.843969476526
 30
0.0
 10
1519.141878274208
 20
8111.842704299029
 30
0.0
  0
SPLINE
  5
98
330
1F
100
AcDbEntity
  8
0
  6
Continuous
 62
     7
370
    25
100
AcDbSpline
210
0.0
220
0.0
230
1.0
 70
     8
 71
     3
 72
    11
 73
     7
 74
     0
 42
0.000000001
 43
0.00000001
 40
0.0
 40
0.0
 40
0.0
 40
0.0
 40
0.1881087695287126
 40
0.4007936744045179
 40
0.6678239016034954
 40
1.0
 40
1.0
 40
1.0
 40
1.0
 10
1519.141878274208
 20
8111.842704299029
 30
0.0
 10
1519.119466728672
 20
8111.845902681224
 30
0.0
 10
1519.071715601983
 20
8111.852717309567
 30
0.0
 10
1519.008797872608
 20
8111.905690464885
 30
0.0
 10
1518.954160104873
 20
8111.984841542954
 30
0.0
 10
1518.924754653219
 20
8112.049548637248
 30
0.0
 10
1518.908453443128
 20
8112.085419670652
 30
0.0
  0
SPLINE
  5
9B
330
1F
100
AcDbEntity
  8
0
  6
Continuous
 62
     7
370
    25
100
AcDbSpline
210
0.0
220
0.0
230
1.0
 70
     8
 71
     3
 72
    15
 73
    11
 74
     0
 42
0.000000001
 43
0.00000001
 40
0.0
 40
0.0
 40
0.0
 40
0.0
 40
0.1210437057283496
 40
0.2311608615819665
 40
0.334558247144827
 40
0.4404078971911051
 40
0.5564076305372241
 40
0.6855748386379711
 40
0.8323618927655637
 40
1.0
 40
1.0
 40
1.0
 40
1.0
 10
1517.992173882317
 20
8109.625749062543
 30
0.0
 10
1517.991175667374
 20
8109.604714697548
 30
0.0
 10
1517.98926934581
 20
8109.564544728315
 30
0.0
 10
1517.971667796887
 20
8109.508475728969
 30
0.0
 10
1517.941556412898
 20
8109.461175103234
 30
0.0
 10
1517.898967023074
 20
8109.423355909378
 30
0.0
 10
1517.845860693537
 20
8109.392731515003
 30
0.0
 10
1517.780535964938
 20
8109.372303255685
 30
0.0
 10
1517.704140890041
 20
8109.36153091434
 30
0.0
 10
1517.649620311556
 20
8109.359649246937
 30
0.0
 10
1517.620552260695
 20
8109.358646022002
 30
0.0
  0
SPLINE
  5
9C
330
1F
100
AcDbEntity
  8
0
  6
Continuous
 62
     7
370
    25
100
AcDbSpline
210
0.0
220
0.0
230
1.0
 70
     8
 71
     3
 72
    15
 73
    11
 74
     0
 42
0.000000001
 43
0.00000001
 40
0.0
 40
0.0
 40
0.0
 40
0.0
 40
0.1526075283706596
 40
0.2869925149660061
 40
0.4076393594010375
 40
0.5203370983718144
 40
0.6282469165428434
 40
0.7394778111329626
 40
0.8625819660822868
 40
1.0
 40
1.0
 40
1.0
 40
1.0
 10
1517.620552260695
 20
8109.358646022002
 30
0.0
 10
1517.597282985847
 20
8109.359650612249
 30
0.0
 10
1517.55352297098
 20
8109.361539836751
 30
0.0
 10
1517.49201384033
 20
8109.372418877731
 30
0.0
 10
1517.439350793739
 20
8109.393236585736
 30
0.0
 10
1517.396903707643
 20
8109.424162097815
 30
0.0
 10
1517.362954486655
 20
8109.462340933318
 30
0.0
 10
1517.339328823042
 20
8109.50948313142
 30
0.0
 10
1517.325548687149
 20
8109.564973213131
 30
0.0
 10
1517.32404703967
 20
8109.604761745209
 30
0.0
 10
1517.323254963398
 20
8109.625749062543
 30
0.0
  0
SPLINE
  5
9E
330
1F
100
AcDbEntity
  8
0
  6
Continuous
 62
     7
370
    25
100
AcDbSpline
210
0.0
220
0.0
230
1.0
 70
     8
 71
     3
 72
    15
 73
    11
 74
     0
 42
0.000000001
 43
0.00000001
 40
0.0
 40
0.0
 40
0.0
 40
0.0
 40
0.1463969612500537
 40
0.2763205008282362
 40
0.3952399998510336
 40
0.506272346533572
 40
0.6153932164830097
 40
0.7308481721935908
 40
0.8560321007861977
 40
1.0
 40
1.0
 40
1.0
 40
1.0
 10
1517.323254963398
 20
8114.634511731463
 30
0.0
 10
1517.32396530319
 20
8114.657844989684
 30
0.0
 10
1517.325306051285
 20
8114.701885914736
 30
0.0
 10
1517.340035860374
 20
8114.76324632556
 30
0.0
 10
1517.360822384812
 20
8114.817124928825
 30
0.0
 10
1517.394869835162
 20
8114.859799945581
 30
0.0
 10
1517.436697354626
 20
8114.89368141973
 30
0.0
 10
1517.487915288716
 20
8114.916596346799
 30
0.0
 10
1517.547778106098
 20
8114.930895794421
 30
0.0
 10
1517.590651566484
 20
8114.93224738671
 30
0.0
 10
1517.61358435529
 20
8114.932970346327
 30
0.0
  0
SPLINE
  5
9F
330
1F
100
AcDbEntity
  8
0
  6
Continuous
 62
     7
370
    25
100
AcDbSpline
210
0.0
220
0.0
230
1.0
 70
     8
 71
     3
 72
    11
 73
     7
 74
     0
 42
0.000000001
 43
0.00000001
 40
0.0
 40
0.0
 40
0.0
 40
0.0
 40
0.2501973168891546
 40
0.4922106594253732
 40
0.7370311125845671
 40
1.0
 40
1.0
 40
1.0
 40
1.0
 10
1517.61358435529
 20
8114.932970346327
 30
0.0
 10
1517.649927489375
 20
8114.93096415389
 30
0.0
 10
1517.721424970706
 20
8114.927017391734
 30
0.0
 10
1517.822533603453
 20
8114.888685502478
 30
0.0
 10
1517.913866809727
 20
8114.82803104367
 30
0.0
 10
1517.962396525878
 20
8114.772456153535
 30
0.0
 10
1517.987528612046
 20
8114.743675582814
 30
0.0
  0
SPLINE
  5
A1
330
1F
100
AcDbEntity
  8
0
  6
Continuous
 62
     7
370
    25
100
AcDbSpline
210
0.0
220
0.0
230
1.0
 70
     8
 71
     3
 72
    15
 73
    11
 74
     0
 42
0.000000001
 43
0.00000001
 40
0.0
 40
0.0
 40
0.0
 40
0.0
 40
0.1210437057283525
 40
0.2311608615819637
 40
0.3345582471448249
 40
0.4404078971911195
 40
0.5564076305372209
 40
0.6855748386379688
 40
0.8323618927655836
 40
1.0
 40
1.0
 40
1.0
 40
1.0
 10
1521.039471179614
 20
8109.625749062543
 30
0.0
 10
1521.038472964671
 20
8109.604714697548
 30
0.0
 10
1521.036566643108
 20
8109.564544728315
 30
0.0
 10
1521.018965094185
 20
8109.508475728969
 30
0.0
 10
1520.988853710195
 20
8109.461175103234
 30
0.0
 10
1520.946264320371
 20
8109.423355909378
 30
0.0
 10
1520.893157990835
 20
8109.392731515003
 30
0.0
 10
1520.827833262235
 20
8109.372303255685
 30
0.0
 10
1520.751438187338
 20
8109.36153091434
 30
0.0
 10
1520.696917608854
 20
8109.359649246937
 30
0.0
 10
1520.667849557992
 20
8109.358646022002
 30
0.0
  0
SPLINE
  5
A3
330
1F
100
AcDbEntity
  8
0
  6
Continuous
 62
     7
370
    25
100
AcDbSpline
210
0.0
220
0.0
230
1.0
 70
     8
 71
     3
 72
    11
 73
     7
 74
     0
 42
0.000000001
 43
0.00000001
 40
0.0
 40
0.0
 40
0.0
 40
0.0
 40
0.2757923378403929
 40
0.5246605758499346
 40
0.759907258712332
 40
0.9999999999999999
 40
0.9999999999999999
 40
0.9999999999999999
 40
0.9999999999999999
 10
1520.381004118803
 20
8114.775031157137
 30
0.0
 10
1520.401636615193
 20
8114.799400370264
 30
0.0
 10
1520.440887370024
 20
8114.84575976332
 30
0.0
 10
1520.514176940477
 20
8114.894934007771
 30
0.0
 10
1520.591878265209
 20
8114.928609040468
 30
0.0
 10
1520.646983798076
 20
8114.931506730446
 30
0.0
 10
1520.674817463398
 20
8114.932970346327
 30
0.0
  0
SPLINE
  5
A4
330
1F
100
AcDbEntity
  8
0
  6
Continuous
 62
     7
370
    25
100
AcDbSpline
210
0.0
220
0.0
230
1.0
 70
     8
 71
     3
 72
    15
 73
    11
 74
     0
 42
0.000000001
 43
0.00000001
 40
0.0
 40
0.0
 40
0.0
 40
0.0
 40
0.1598288012744547
 40
0.2981437540206548
 40
0.4223367313964556
 40
0.5366418418243817
 40
0.6434366182474052
 40
0.7534283282819333
 40
0.8701494530134078
 40
0.9999999999999999
 40
0.9999999999999999
 40
0.9999999999999999
 40
0.9999999999999999
 10
1520.674817463398
 20
8114.932970346327
 30
0.0
 10
1520.703529888767
 20
8114.932233635473
 30
0.0
 10
1520.757089886828
 20
8114.930859379156
 30
0.0
 10
1520.831975785101
 20
8114.916909444086
 30
0.0
 10
1520.895884813069
 20
8114.893844448544
 30
0.0
 10
1520.949467903353
 20
8114.861623034186
 30
0.0
 10
1520.991070553792
 20
8114.817973858933
 30
0.0
 10
1521.018424127738
 20
8114.764137641039
 30
0.0
 10
1521.03679495593
 20
8114.702272360602
 30
0.0
 10
1521.03854798993
 20
8114.657886427006
 30
0.0
 10
1521.039471179614
 20
8114.634511731463
 30
0.0
  0
SPLINE
  5
A6
330
1F
100
AcDbEntity
  8
0
  6
Continuous
 62
     7
370
    25
100
AcDbSpline
210
0.0
220
0.0
230
1.0
 70
     8
 71
     3
 72
    15
 73
    11
 74
     0
 42
0.000000001
 43
0.00000001
 40
0.0
 40
0.0
 40
0.0
 40
0.0
 40
0.1192175102582617
 40
0.2297017703973186
 40
0.3334438581370628
 40
0.439646385624049
 40
0.5549287995728777
 40
0.684526620281206
 40
0.8318030273728304
 40
1.0
 40
1.0
 40
1.0
 40
1.0
 10
1525.469200909344
 20
8109.697750751733
 30
0.0
 10
1525.468166952684
 20
8109.677109887903
 30
0.0
 10
1525.466174781612
 20
8109.63734020177
 30
0.0
 10
1525.448707186251
 20
8109.581617807519
 30
0.0
 10
1525.418540715849
 20
8109.534412981155
 30
0.0
 10
1525.37630787144
 20
8109.496348634362
 30
0.0
 10
1525.322503396379
 20
8109.467351336945
 30
0.0
 10
1525.257627515158
 20
8109.446514273964
 30
0.0
 10
1525.181148110164
 20
8109.435890020604
 30
0.0
 10
1525.126640450708
 20
8109.433985666725
 30
0.0
 10
1525.097579287722
 20
8109.432970346328
 30
0.0
  0
SPLINE
  5
A7
330
1F
100
AcDbEntity
  8
0
  6
Continuous
 62
     7
370
    25
100
AcDbSpline
210
0.0
220
0.0
230
1.0
 70
     8
 71
     3
 72
    15
 73
    11
 74
     0
 42
0.000000001
 43
0.00000001
 40
0.0
 40
0.0
 40
0.0
 40
0.0
 40
0.1373554302530918
 40
0.2604035025254526
 40
0.3715837235509525
 40
0.4813661282244205
 40
0.5925463492499824
 40
0.7131382304872467
 40
0.847461995186306
 40
1.0
 40
1.0
 40
1.0
 40
1.0
 10
1522.496227936371
 20
8114.665867305786
 30
0.0
 10
1522.497028802245
 20
8114.686846207908
 30
0.0
 10
1522.498547113376
 20
8114.726618786113
 30
0.0
 10
1522.512215788418
 20
8114.782215581063
 30
0.0
 10
1522.536347647237
 20
8114.829265043234
 30
0.0
 10
1522.569085314368
 20
8114.868727631118
 30
0.0
 10
1522.61279941891
 20
8114.898122565575
 30
0.0
 10
1522.664904563319
 20
8114.919302866711
 30
0.0
 10
1522.726520835751
 20
8114.930044640983
 30
0.0
 10
1522.770264600028
 20
8114.931954685233
 30
0.0
 10
1522.793525233668
 20
8114.932970346327
 30
0.0
  0
SPLINE
  5
A8
330
1F
100
AcDbEntity
  8
0
  6
Continuous
 62
     7
370
    25
100
AcDbSpline
210
0.0
220
0.0
230
1.0
 70
     8
 71
     3
 72
    15
 73
    11
 74
     0
 42
0.000000001
 43
0.00000001
 40
0.0
 40
0.0
 40
0.0
 40
0.0
 40
0.1675680039012135
 40
0.3142936742423812
 40
0.4434068668690757
 40
0.5582581848719617
 40
0.6655816592802883
 40
0.768935805859444
 40
0.8790069126387509
 40
1.0
 40
1.0
 40
1.0
 40
1.0
 10
1522.793525233668
 20
8114.932970346327
 30
0.0
 10
1522.822584079779
 20
8114.931952559644
 30
0.0
 10
1522.877087393662
 20
8114.930043579955
 30
0.0
 10
1522.953595164769
 20
8114.919449521975
 30
0.0
 10
1523.018381754695
 20
8114.898517409499
 30
0.0
 10
1523.072703694728
 20
8114.86969650733
 30
0.0
 10
1523.114125330776
 20
8114.830358215768
 30
0.0
 10
1523.144713995821
 20
8114.783227093417
 30
0.0
 10
1523.162221350636
 20
8114.727046884021
 30
0.0
 10
1523.16414143413
 20
8114.68689316278
 30
0.0
 10
1523.16514685529
 20
8114.665867305786
 30
0.0
  0
SPLINE
  5
AA
330
1F
100
AcDbEntity
  8
0
  6
Continuous
 62
     7
370
    25
100
AcDbSpline
210
0.0
220
0.0
230
1.0
 70
     8
 71
     3
 72
    15
 73
    11
 74
     0
 42
0.000000001
 43
0.00000001
 40
0.0
 40
0.0
 40
0.0
 40
0.0
 40
0.1535989970092684
 40
0.2888570630727672
 40
0.4102877322894144
 40
0.522241277621578
 40
0.6308521699902678
 40
0.7428057153225027
 40
0.8642363845391662
 40
0.9999999999999999
 40
0.9999999999999999
 40
0.9999999999999999
 40
0.9999999999999999
 10
1525.097579287722
 20
8109.432970346328
 30
0.0
 10
1525.074316729018
 20
8109.433984401804
 30
0.0
 10
1525.030569344481
 20
8109.435891426541
 30
0.0
 10
1524.968976940792
 20
8109.44665310876
 30
0.0
 10
1524.916794307038
 20
8109.467768779183
 30
0.0
 10
1524.87358531649
 20
8109.497214476827
 30
0.0
 10
1524.84001945147
 20
8109.535576403985
 30
0.0
 10
1524.816575758623
 20
8109.582301251264
 30
0.0
 10
1524.80252766542
 20
8109.636946354211
 30
0.0
 10
1524.801057852054
 20
8109.67598325684
 30
0.0
 10
1524.800281990425
 20
8109.696589434165
 30
0.0
  0
SPLINE
  5
AC
330
1F
100
AcDbEntity
  8
0
  6
Continuous
 62
     7
370
    25
100
AcDbSpline
210
0.0
220
0.0
230
1.0
 70
     8
 71
     3
 72
    23
 73
    19
 74
     0
 42
0.000000001
 43
0.00000001
 40
0.0
 40
0.0
 40
0.0
 40
0.0
 40
0.0334262020353569
 40
0.0709252559820609
 40
0.1118634144878421
 40
0.1569064398987453
 40
0.2059791538484684
 40
0.2585999398510855
 40
0.3152602697149517
 40
0.3757213361297286
 40
0.439986665789409
 40
0.5083974803189004
 40
0.5806187561822729
 40
0.6566525006817053
 40
0.7367390392849463
 40
0.8206408278564933
 40
0.9083591900053911
 40
1.0
 40
1.0
 40
1.0
 40
1.0
 10
1524.800281990425
 20
8113.695005819301
 30
0.0
 10
1524.787030086329
 20
8113.646917011426
 30
0.0
 10
1524.758911585481
 20
8113.544879962625
 30
0.0
 10
1524.708240364228
 20
8113.385814848806
 30
0.0
 10
1524.651625346684
 20
8113.210475642736
 30
0.0
 10
1524.584765437552
 20
8113.020354727136
 30
0.0
 10
1524.511027233904
 20
8112.814192127443
 30
0.0
 10
1524.427873584052
 20
8112.593013113935
 30
0.0
 10
1524.337580040809
 20
8112.35637458959
 30
0.0
 10
1524.238690749595
 20
8112.104428995282
 30
0.0
 10
1524.131827864664
 20
8111.836783002133
 30
0.0
 10
1524.015589127403
 20
8111.554002094641
 30
0.0
 10
1523.891392452558
 20
8111.255512469581
 30
0.0
 10
1523.758654245082
 20
8110.941713257931
 30
0.0
 10
1523.61842968008
 20
8110.612157822777
 30
0.0
 10
1523.469607284541
 20
8110.267318704066
 30
0.0
 10
1523.313124461229
 20
8109.907006548875
 30
0.0
 10
1523.204426142986
 20
8109.66244426457
 30
0.0
 10
1523.148888409344
 20
8109.537488927408
 30
0.0
  0
SPLINE
  5
AD
330
1F
100
AcDbEntity
  8
0
  6
Continuous
 62
     7
370
    25
100
AcDbSpline
210
0.0
220
0.0
230
1.0
 70
     8
 71
     3
 72
    11
 73
     7
 74
     0
 42
0.000000001
 43
0.00000001
 40
0.0
 40
0.0
 40
0.0
 40
0.0
 40
0.2328090547617299
 40
0.4629430035605085
 40
0.7138780282479151
 40
1.0
 40
1.0
 40
1.0
 40
1.0
 10
1523.148888409344
 20
8109.537488927408
 30
0.0
 10
1523.130728472232
 20
8109.510093490921
 30
0.0
 10
1523.09461726582
 20
8109.4556174068
 30
0.0
 10
1523.009985054537
 20
8109.398307993967
 30
0.0
 10
1522.906771361693
 20
8109.364311257861
 30
0.0
 10
1522.831372189431
 20
8109.360615154496
 30
0.0
 10
1522.791202598533
 20
8109.358646022002
 30
0.0
  0
SPLINE
  5
AE
330
1F
100
AcDbEntity
  8
0
  6
Continuous
 62
     7
370
    25
100
AcDbSpline
210
0.0
220
0.0
230
1.0
 70
     8
 71
     3
 72
    15
 73
    11
 74
     0
 42
0.000000001
 43
0.00000001
 40
0.0
 40
0.0
 40
0.0
 40
0.0
 40
0.1464537970123145
 40
0.2740558316442603
 40
0.3917684023119677
 40
0.4994269965368874
 40
0.6105024493604834
 40
0.7260022282037629
 40
0.8559762080598563
 40
1.0
 40
1.0
 40
1.0
 40
1.0
 10
1522.791202598533
 20
8109.358646022002
 30
0.0
 10
1522.767888579863
 20
8109.359374890394
 30
0.0
 10
1522.724261559562
 20
8109.360738806096
 30
0.0
 10
1522.663212360062
 20
8109.374995958264
 30
0.0
 10
1522.611532701265
 20
8109.397792625609
 30
0.0
 10
1522.568498566565
 20
8109.430529409997
 30
0.0
 10
1522.535944778315
 20
8109.47321939285
 30
0.0
 10
1522.512084698729
 20
8109.525059674515
 30
0.0
 10
1522.498603222089
 20
8109.58597578851
 30
0.0
 10
1522.497046309598
 20
8109.629553330527
 30
0.0
 10
1522.496227936371
 20
8109.652459366599
 30
0.0
  0
SPLINE
  5
B0
330
1F
100
AcDbEntity
  8
0
  6
Continuous
 62
     7
370
    25
100
AcDbSpline
210
0.0
220
0.0
230
1.0
 70
     8
 71
     3
 72
    23
 73
    19
 74
     0
 42
0.000000001
 43
0.00000001
 40
0.0
 40
0.0
 40
0.0
 40
0.0
 40
0.0333964054255479
 40
0.0706152794128632
 40
0.1118491904857353
 40
0.1568612779401263
 40
0.2056604075302333
 40
0.2582535298716257
 40
0.3149813657476612
 40
0.3755144664322025
 40
0.4397603508375991
 40
0.5082526710923472
 40
0.5804605573355209
 40
0.6565848896394113
 40
0.7364261993995994
 40
0.8204279498876194
 40
0.9083548486788582
 40
0.9999999999999999
 40
0.9999999999999999
 40
0.9999999999999999
 40
0.9999999999999999
 10
1523.16514685529
 20
8110.596610549029
 30
0.0
 10
1523.177986894909
 20
8110.644704157101
 30
0.0
 10
1523.205136612787
 20
8110.746396046656
 30
0.0
 10
1523.254971162704
 20
8110.905503442266
 30
0.0
 10
1523.311552511636
 20
8111.080592093796
 30
0.0
 10
1523.376800901511
 20
8111.271001611147
 30
0.0
 10
1523.450074086646
 20
8111.476528886884
 30
0.0
 10
1523.53145332474
 20
8111.69769472132
 30
0.0
 10
1523.622062033158
 20
8111.934075512604
 30
0.0
 10
1523.721209881732
 20
8112.185760122289
 30
0.0
 10
1523.826215136371
 20
8112.45399399994
 30
0.0
 10
1523.943279036436
 20
8112.736125489649
 30
0.0
 10
1524.065503760126
 20
8113.035270017725
 30
0.0
 10
1524.198738704162
 20
8113.348152227905
 30
0.0
 10
1524.337753102955
 20
8113.677666982481
 30
0.0
 10
1524.486271044981
 20
8114.022259115935
 30
0.0
 10
1524.644629059765
 20
8114.381747778775
 30
0.0
 10
1524.752299800296
 20
8114.626761364372
 30
0.0
 10
1524.80724989583
 20
8114.751804805786
 30
0.0
  0
SPLINE
  5
B1
330
1F
100
AcDbEntity
  8
0
  6
Continuous
 62
     7
370
    25
100
AcDbSpline
210
0.0
220
0.0
230
1.0
 70
     8
 71
     3
 72
    11
 73
     7
 74
     0
 42
0.000000001
 43
0.00000001
 40
0.0
 40
0.0
 40
0.0
 40
0.0
 40
0.2670118619317393
 40
0.5105832502388942
 40
0.7477324693016009
 40
1.0
 40
1.0
 40
1.0
 40
1.0
 10
1524.80724989583
 20
8114.751804805786
 30
0.0
 10
1524.824481485216
 20
8114.779215070201
 30
0.0
 10
1524.857431934876
 20
8114.83162930301
 30
0.0
 10
1524.927365986236
 20
8114.890924826728
 30
0.0
 10
1525.01007395343
 20
8114.926748080298
 30
0.0
 10
1525.069348922569
 20
8114.930853979933
 30
0.0
 10
1525.099901922857
 20
8114.932970346327
 30
0.0
  0
SPLINE
  5
B2
330
1F
100
AcDbEntity
  8
0
  6
Continuous
 62
     7
370
    25
100
AcDbSpline
210
0.0
220
0.0
230
1.0
 70
     8
 71
     3
 72
    15
 73
    11
 74
     0
 42
0.000000001
 43
0.00000001
 40
0.0
 40
0.0
 40
0.0
 40
0.0
 40
0.1624566800599301
 40
0.3033020102420627
 40
0.4291664366098309
 40
0.5438062297014984
 40
0.649351608196945
 40
0.7569385026546235
 40
0.8719246710993127
 40
1.0
 40
1.0
 40
1.0
 40
1.0
 10
1525.099901922857
 20
8114.932970346327
 30
0.0
 10
1525.129019776022
 20
8114.932283374384
 30
0.0
 10
1525.183381981354
 20
8114.931000817265
 30
0.0
 10
1525.259047047645
 20
8114.916439904965
 30
0.0
 10
1525.324419362137
 20
8114.895593396365
 30
0.0
 10
1525.37771984226
 20
8114.862725326961
 30
0.0
 10
1525.419068433527
 20
8114.820312719685
 30
0.0
 10
1525.44872593949
 20
8114.768968184393
 30
0.0
 10
1525.466377858364
 20
8114.70801992183
 30
0.0
 10
1525.468226704799
 20
8114.66444197388
 30
0.0
 10
1525.469200909344
 20
8114.641479636868
 30
0.0
  0
CIRCLE
  5
B4
330
1F
100
AcDbEntity
  8
0
  6
Continuous
 62
     7
370
    25
100
AcDbCircle
 10
1527.817538133
 20
8117.0718418685
 30
0.0
 40
1.500000000000909
  0
CIRCLE
  5
B5
330
1F
100
AcDbEntity
  8
0
  6
Continuous
 62
     7
370
    25
100
AcDbCircle
 10
1527.817538133
 20
8117.0718418685
 30
0.0
 40
0.7500000000009095
  0
SPLINE
  5
FC
330
1F
100
AcDbEntity
  8
0
  6
Continuous
 62
     7
370
    25
100
AcDbSpline
210
0.0
220
0.0
230
1.0
 70
     8
 71
     3
 72
     8
 73
     4
 74
     0
 42
0.000000001
 43
0.00000001
 40
0.0946502057613169
 40
0.0946502057613169
 40
0.0946502057613169
 40
0.0946502057613169
 40
0.0987654320987654
 40
0.0987654320987654
 40
0.0987654320987654
 40
0.0987654320987654
 10
1473.60228412944
 20
8126.374078190713
 30
0.0
 10
1473.21264812944
 20
8125.81155285738
 30
0.0
 10
1473.01783012944
 20
8126.03862885738
 30
0.0
 10
1473.01783012944
 20
8127.055306190712
 30
0.0
  0
SPLINE
  5
FD
330
1F
100
AcDbEntity
  8
0
  6
Continuous
 62
     7
370
    25
100
AcDbSpline
210
0.0
220
0.0
230
1.0
 70
     8
 71
     3
 72
     8
 73
     4
 74
     0
 42
0.000000001
 43
0.00000001
 40
0.0987654320987654
 40
0.0987654320987654
 40
0.0987654320987654
 40
0.0987654320987654
 40
0.102880658436214
 40
0.102880658436214
 40
0.102880658436214
 40
0.102880658436214
 10
1473.01783012944
 20
8127.055306190712
 30
0.0
 10
1473.01783012944
 20
8128.072152857379
 30
0.0
 10
1473.125864796107
 20
8128.47220285738
 30
0.0
 10
1473.34193412944
 20
8128.255456190713
 30
0.0
  0
SPLINE
  5
13C
330
1F
100
AcDbEntity
  8
0
  6
Continuous
 62
     7
370
    25
100
AcDbSpline
210
0.0
220
0.0
230
1.0
 70
     8
 71
     3
 72
     8
 73
     4
 74
     0
 42
0.000000001
 43
0.00000001
 40
0.3580246913580247
 40
0.3580246913580247
 40
0.3580246913580247
 40
0.3580246913580247
 40
0.3621399176954733
 40
0.3621399176954733
 40
0.3621399176954733
 40
0.3621399176954733
 10
1482.654336129678
 20
8178.938108190649
 30
0.0
 10
1482.372565463012
 20
8179.002708857316
 30
0.0
 10
1482.286205463012
 20
8179.489330523984
 30
0.0
 10
1482.395256129679
 20
8180.397973190649
 30
0.0
  0
SPLINE
  5
13D
330
1F
100
AcDbEntity
  8
0
  6
Continuous
 62
     7
370
    25
100
AcDbSpline
210
0.0
220
0.0
230
1.0
 70
     8
 71
     3
 72
     8
 73
     4
 74
     0
 42
0.000000001
 43
0.00000001
 40
0.3621399176954733
 40
0.3621399176954733
 40
0.3621399176954733
 40
0.3621399176954733
 40
0.3662551440329218
 40
0.3662551440329218
 40
0.3662551440329218
 40
0.3662551440329218
 10
1482.395256129679
 20
8180.397973190649
 30
0.0
 10
1482.502613463012
 20
8181.30653119065
 30
0.0
 10
1482.761651129678
 20
8182.074584857318
 30
0.0
 10
1483.172369129679
 20
8182.70213419065
 30
0.0
  0
SPLINE
  5
18E
330
1F
100
AcDbEntity
  8
0
  6
Continuous
 62
     7
370
    25
100
AcDbSpline
210
0.0
220
0.0
230
1.0
 70
     8
 71
     3
 72
     8
 73
     4
 74
     0
 42
0.000000001
 43
0.00000001
 40
0.6954732510288066
 40
0.6954732510288066
 40
0.6954732510288066
 40
0.6954732510288066
 40
0.6995884773662552
 40
0.6995884773662552
 40
0.6995884773662552
 40
0.6995884773662552
 10
1555.010808129679
 20
8091.461651190651
 30
0.0
 10
1554.967374129679
 20
8091.526251857317
 30
0.0
 10
1554.653514796345
 20
8091.526251857317
 30
0.0
 10
1554.069230129678
 20
8091.461651190651
 30
0.0
  0
SPLINE
  5
18F
330
1F
100
AcDbEntity
  8
0
  6
Continuous
 62
     7
370
    25
100
AcDbSpline
210
0.0
220
0.0
230
1.0
 70
     8
 71
     3
 72
     8
 73
     4
 74
     0
 42
0.000000001
 43
0.00000001
 40
0.6995884773662552
 40
0.6995884773662552
 40
0.6995884773662552
 40
0.6995884773662552
 40
0.7037037037037037
 40
0.7037037037037037
 40
0.7037037037037037
 40
0.7037037037037037
 10
1554.069230129678
 20
8091.461651190651
 30
0.0
 10
1553.506535463011
 20
8091.417878523984
 30
0.0
 10
1553.225188129678
 20
8090.995942190651
 30
0.0
 10
1553.225188129678
 20
8090.195842190651
 30
0.0
  0
SPLINE
  5
1A6
330
1F
100
AcDbEntity
  8
0
  6
Continuous
 62
     7
370
    25
100
AcDbSpline
210
0.0
220
0.0
230
1.0
 70
     8
 71
     3
 72
     8
 73
     4
 74
     0
 42
0.000000001
 43
0.00000001
 40
0.7942386831275721
 40
0.7942386831275721
 40
0.7942386831275721
 40
0.7942386831275721
 40
0.7968722245022137
 40
0.7968722245022137
 40
0.7968722245022137
 40
0.7968722245022137
 10
1529.344997129678
 20
8081.142520190651
 30
0.0
 10
1528.389651638172
 20
8081.322676937432
 30
0.0
 10
1527.78860618472
 20
8081.445187979256
 30
0.0
 10
1527.541860769322
 20
8081.510053316121
 30
0.0
  0
SPLINE
  5
1A7
330
1F
100
AcDbEntity
  8
0
  6
Continuous
 62
     7
370
    25
100
AcDbSpline
210
0.0
220
0.0
230
1.0
 70
     8
 71
     3
 72
     8
 73
     4
 74
     0
 42
0.000000001
 43
0.00000001
 40
0.7990020986641362
 40
0.7990020986641362
 40
0.7990020986641362
 40
0.7990020986641362
 40
0.8024691358024691
 40
0.8024691358024691
 40
0.8024691358024691
 40
0.8024691358024691
 10
1527.541860769322
 20
8081.510053316121
 30
0.0
 10
1527.644308134366
 20
8081.314850935405
 30
0.0
 10
1527.531613587739
 20
8080.597598893602
 30
0.0
 10
1527.20377712944
 20
8079.358297190714
 30
0.0
  0
LINE
  5
1A8
330
1F
100
AcDbEntity
  8
0
  6
Continuous
 62
     7
370
    25
100
AcDbLine
 10
1512.967849558
 20
8112.8774382517
 30
0.0
 11
1512.967849558
 21
8114.5938656166
 31
0.0
  0
LINE
  5
1A9
330
1F
100
AcDbEntity
  8
0
  6
Continuous
 62
     7
370
    25
100
AcDbLine
 10
1513.6367684769
 20
8114.5985108869
 30
0.0
 11
1513.6367684769
 21
8112.9238909544
 31
0.0
  0
LINE
  5
1AA
330
1F
100
AcDbEntity
  8
0
  6
Continuous
 62
     7
370
    25
100
AcDbLine
 10
1514.2302017539
 20
8112.2572946707
 30
0.0
 11
1515.271903612
 21
8112.2572946707
 31
0.0
  0
LINE
  5
1AB
330
1F
100
AcDbEntity
  8
0
  6
Continuous
 62
     7
370
    25
100
AcDbLine
 10
1515.271903612
 20
8112.2572946707
 30
0.0
 11
1515.271903612
 21
8114.5985108869
 31
0.0
  0
LINE
  5
1AC
330
1F
100
AcDbEntity
  8
0
  6
Continuous
 62
     7
370
    25
100
AcDbLine
 10
1515.940822531
 20
8114.592704299
 30
0.0
 11
1515.940822531
 21
8110.5791907855
 31
0.0
  0
LINE
  5
1AD
330
1F
100
AcDbEntity
  8
0
  6
Continuous
 62
     7
370
    25
100
AcDbLine
 10
1514.6378242202
 20
8109.358646022
 30
0.0
 11
1513.6797372269
 21
8109.358646022
 31
0.0
  0
LINE
  5
1AE
330
1F
100
AcDbEntity
  8
0
  6
Continuous
 62
     7
370
    25
100
AcDbLine
 10
1513.6739306391
 20
8109.9532406166
 30
0.0
 11
1514.600662058
 21
8109.9532406166
 31
0.0
  0
LINE
  5
1AF
330
1F
100
AcDbEntity
  8
0
  6
Continuous
 62
     7
370
    25
100
AcDbLine
 10
1515.271903612
 20
8110.6209982179
 30
0.0
 11
1515.271903612
 21
8111.6627000761
 31
0.0
  0
LINE
  5
1B0
330
1F
100
AcDbEntity
  8
0
  6
Continuous
 62
     7
370
    25
100
AcDbLine
 10
1515.271903612
 20
8111.6627000761
 30
0.0
 11
1514.1918782742
 21
8111.6627000761
 31
0.0
  0
LINE
  5
1B1
330
1F
100
AcDbEntity
  8
0
  6
Continuous
 62
     7
370
    25
100
AcDbLine
 10
1511.2346992202
 20
8109.358646022
 30
0.0
 11
1510.2766122269
 21
8109.358646022
 31
0.0
  0
LINE
  5
1B2
330
1F
100
AcDbEntity
  8
0
  6
Continuous
 62
     7
370
    25
100
AcDbLine
 10
1508.9840657742
 20
8110.5791907855
 30
0.0
 11
1508.9840657742
 21
8113.6381012585
 31
0.0
  0
LINE
  5
1B3
330
1F
100
AcDbEntity
  8
0
  6
Continuous
 62
     7
370
    25
100
AcDbLine
 10
1510.2766122269
 20
8114.858646022
 30
0.0
 11
1511.2346992202
 21
8114.858646022
 31
0.0
  0
LINE
  5
1B4
330
1F
100
AcDbEntity
  8
0
  6
Continuous
 62
     7
370
    25
100
AcDbLine
 10
1511.2346992202
 20
8114.2640514274
 30
0.0
 11
1510.2766122269
 21
8114.2640514274
 31
0.0
  0
LINE
  5
1B5
330
1F
100
AcDbEntity
  8
0
  6
Continuous
 62
     7
370
    25
100
AcDbLine
 10
1509.6529846931
 20
8113.5951325085
 30
0.0
 11
1509.6529846931
 21
8110.6221595355
 31
0.0
  0
LINE
  5
1B6
330
1F
100
AcDbEntity
  8
0
  6
Continuous
 62
     7
370
    25
100
AcDbLine
 10
1510.2766122269
 20
8109.9532406166
 30
0.0
 11
1511.2346992202
 21
8109.9532406166
 31
0.0
  0
LINE
  5
1B7
330
1F
100
AcDbEntity
  8
0
  6
Continuous
 62
     7
370
    25
100
AcDbLine
 10
1520.3705522607
 20
8109.6257490625
 30
0.0
 11
1520.3705522607
 21
8113.8738487247
 31
0.0
  0
LINE
  5
1B8
330
1F
100
AcDbEntity
  8
0
  6
Continuous
 62
     7
370
    25
100
AcDbLine
 10
1520.3705522607
 20
8113.8738487247
 30
0.0
 11
1519.4287237134
 21
8111.9983208531
 31
0.0
  0
LINE
  5
1B9
330
1F
100
AcDbEntity
  8
0
  6
Continuous
 62
     7
370
    25
100
AcDbLine
 10
1518.9084534431
 20
8112.0854196707
 30
0.0
 11
1517.9921738823
 21
8113.8738487247
 31
0.0
  0
LINE
  5
1BA
330
1F
100
AcDbEntity
  8
0
  6
Continuous
 62
     7
370
    25
100
AcDbLine
 10
1517.9921738823
 20
8113.8738487247
 30
0.0
 11
1517.9921738823
 21
8109.6257490625
 31
0.0
  0
LINE
  5
1BB
330
1F
100
AcDbEntity
  8
0
  6
Continuous
 62
     7
370
    25
100
AcDbLine
 10
1517.3232549634
 20
8109.6257490625
 30
0.0
 11
1517.3232549634
 21
8114.6345117315
 31
0.0
  0
LINE
  5
1BC
330
1F
100
AcDbEntity
  8
0
  6
Continuous
 62
     7
370
    25
100
AcDbLine
 10
1517.987528612
 20
8114.7436755828
 30
0.0
 11
1519.1732338485
 21
8112.5708504139
 31
0.0
  0
LINE
  5
1BD
330
1F
100
AcDbEntity
  8
0
  6
Continuous
 62
     7
370
    25
100
AcDbLine
 10
1519.1732338485
 20
8112.5708504139
 30
0.0
 11
1520.3810041188
 21
8114.7750311571
 31
0.0
  0
LINE
  5
1BE
330
1F
100
AcDbEntity
  8
0
  6
Continuous
 62
     7
370
    25
100
AcDbLine
 10
1521.0394711796
 20
8114.6345117315
 30
0.0
 11
1521.0394711796
 21
8109.6257490625
 31
0.0
  0
LINE
  5
1BF
330
1F
100
AcDbEntity
  8
0
  6
Continuous
 62
     7
370
    25
100
AcDbLine
 10
1523.1651468553
 20
8114.6658673058
 30
0.0
 11
1523.1651468553
 21
8110.596610549
 31
0.0
  0
LINE
  5
1C0
330
1F
100
AcDbEntity
  8
0
  6
Continuous
 62
     7
370
    25
100
AcDbLine
 10
1524.8002819904
 20
8109.6965894342
 30
0.0
 11
1524.8002819904
 21
8113.6950058193
 31
0.0
  0
LINE
  5
1C1
330
1F
100
AcDbEntity
  8
0
  6
Continuous
 62
     7
370
    25
100
AcDbLine
 10
1522.4962279364
 20
8109.6524593666
 30
0.0
 11
1522.4962279364
 21
8114.6658673058
 31
0.0
  0
LINE
  5
1C2
330
1F
100
AcDbEntity
  8
0
  6
Continuous
 62
     7
370
    25
100
AcDbLine
 10
1525.4692009093
 20
8114.6414796369
 30
0.0
 11
1525.4692009093
 21
8109.6977507517
 31
0.0
  0
LINE
  5
1C3
330
1F
100
AcDbEntity
  8
0
  6
Continuous
 62
     7
370
    25
100
AcDbLine
 10
1527.2037771294
 20
8079.3582971907
 30
0.0
 11
1526.6835851294
 21
8079.0016811907
 31
0.0
  0
LINE
  5
1C4
330
1F
100
AcDbEntity
  8
0
  6
Continuous
 62
     7
370
    25
100
AcDbLine
 10
1526.6835851294
 20
8079.0016811907
 30
0.0
 11
1524.8988541294
 21
8078.8402641907
 31
0.0
  0
LINE
  5
1C5
330
1F
100
AcDbEntity
  8
0
  6
Continuous
 62
     7
370
    25
100
AcDbLine
 10
1524.8988541294
 20
8078.8402641907
 30
0.0
 11
1522.6604791294
 21
8079.6826551907
 31
0.0
  0
LINE
  5
1C6
330
1F
100
AcDbEntity
  8
0
  6
Continuous
 62
     7
370
    25
100
AcDbLine
 10
1522.6604791294
 20
8079.6826551907
 30
0.0
 11
1521.6559091294
 21
8080.3638831907
 31
0.0
  0
LINE
  5
1C7
330
1F
100
AcDbEntity
  8
0
  6
Continuous
 62
     7
370
    25
100
AcDbLine
 10
1521.6559091294
 20
8080.3638831907
 30
0.0
 11
1521.2989121294
 21
8082.3438131907
 31
0.0
  0
LINE
  5
1C8
330
1F
100
AcDbEntity
  8
0
  6
Continuous
 62
     7
370
    25
100
AcDbLine
 10
1521.2989121294
 20
8082.3438131907
 30
0.0
 11
1522.5948201294
 21
8083.6093681907
 31
0.0
  0
LINE
  5
1C9
330
1F
100
AcDbEntity
  8
0
  6
Continuous
 62
     7
370
    25
100
AcDbLine
 10
1522.5948201294
 20
8083.6093681907
 30
0.0
 11
1522.4981731294
 21
8084.8093911907
 31
0.0
  0
LINE
  5
1CA
330
1F
100
AcDbEntity
  8
0
  6
Continuous
 62
     7
370
    25
100
AcDbLine
 10
1522.4981731294
 20
8084.8093911907
 30
0.0
 11
1520.4548701294
 21
8085.3935911907
 31
0.0
  0
LINE
  5
1CB
330
1F
100
AcDbEntity
  8
0
  6
Continuous
 62
     7
370
    25
100
AcDbLine
 10
1520.4548701294
 20
8085.3935911907
 30
0.0
 11
1520.3568261294
 21
8086.5941221907
 31
0.0
  0
LINE
  5
1CC
330
1F
100
AcDbEntity
  8
0
  6
Continuous
 62
     7
370
    25
100
AcDbLine
 10
1520.3568261294
 20
8086.5941221907
 30
0.0
 11
1519.3518751294
 21
8086.6916581907
 31
0.0
  0
LINE
  5
1CD
330
1F
100
AcDbEntity
  8
0
  6
Continuous
 62
     7
370
    25
100
AcDbLine
 10
1519.3518751294
 20
8086.6916581907
 30
0.0
 11
1518.9279491294
 21
8086.5290981907
 31
0.0
  0
LINE
  5
1CE
330
1F
100
AcDbEntity
  8
0
  6
Continuous
 62
     7
370
    25
100
AcDbLine
 10
1518.9279491294
 20
8086.5290981907
 30
0.0
 11
1516.8855351294
 21
8088.0546221907
 31
0.0
  0
LINE
  5
1CF
330
1F
100
AcDbEntity
  8
0
  6
Continuous
 62
     7
370
    25
100
AcDbLine
 10
1516.8855351294
 20
8088.0546221907
 30
0.0
 11
1517.3078101294
 21
8089.3195421907
 31
0.0
  0
LINE
  5
1D0
330
1F
100
AcDbEntity
  8
0
  6
Continuous
 62
     7
370
    25
100
AcDbLine
 10
1517.3078101294
 20
8089.3195421907
 30
0.0
 11
1514.1278571294
 21
8094.1871981907
 31
0.0
  0
LINE
  5
1D1
330
1F
100
AcDbEntity
  8
0
  6
Continuous
 62
     7
370
    25
100
AcDbLine
 10
1514.1278571294
 20
8094.1871981907
 30
0.0
 11
1513.8993841294
 21
8098.4698921907
 31
0.0
  0
LINE
  5
1D2
330
1F
100
AcDbEntity
  8
0
  6
Continuous
 62
     7
370
    25
100
AcDbLine
 10
1513.8993841294
 20
8098.4698921907
 30
0.0
 11
1512.3431261294
 21
8099.1511201907
 31
0.0
  0
LINE
  5
1D3
330
1F
100
AcDbEntity
  8
0
  6
Continuous
 62
     7
370
    25
100
AcDbLine
 10
1512.3431261294
 20
8099.1511201907
 30
0.0
 11
1508.5794811294
 21
8097.6266121907
 31
0.0
  0
LINE
  5
1D4
330
1F
100
AcDbEntity
  8
0
  6
Continuous
 62
     7
370
    25
100
AcDbLine
 10
1508.5794811294
 20
8097.6266121907
 30
0.0
 11
1508.1573331294
 21
8096.3284181907
 31
0.0
  0
LINE
  5
1D5
330
1F
100
AcDbEntity
  8
0
  6
Continuous
 62
     7
370
    25
100
AcDbLine
 10
1508.1573331294
 20
8096.3284181907
 30
0.0
 11
1507.6699071294
 21
8096.1661121907
 31
0.0
  0
LINE
  5
1D6
330
1F
100
AcDbEntity
  8
0
  6
Continuous
 62
     7
370
    25
100
AcDbLine
 10
1507.6699071294
 20
8096.1661121907
 30
0.0
 11
1507.5736411294
 21
8097.1722061907
 31
0.0
  0
LINE
  5
1D7
330
1F
100
AcDbEntity
  8
0
  6
Continuous
 62
     7
370
    25
100
AcDbLine
 10
1507.5736411294
 20
8097.1722061907
 30
0.0
 11
1506.7283291294
 21
8097.5285681907
 31
0.0
  0
LINE
  5
1D8
330
1F
100
AcDbEntity
  8
0
  6
Continuous
 62
     7
370
    25
100
AcDbLine
 10
1506.7283291294
 20
8097.5285681907
 30
0.0
 11
1505.7876401294
 21
8096.8475941907
 31
0.0
  0
LINE
  5
1D9
330
1F
100
AcDbEntity
  8
0
  6
Continuous
 62
     7
370
    25
100
AcDbLine
 10
1505.7876401294
 20
8096.8475941907
 30
0.0
 11
1503.1283871294
 21
8098.1137841907
 31
0.0
  0
LINE
  5
1DA
330
1F
100
AcDbEntity
  8
0
  6
Continuous
 62
     7
370
    25
100
AcDbLine
 10
1503.1283871294
 20
8098.1137841907
 30
0.0
 11
1501.7650421294
 21
8096.8475941907
 31
0.0
  0
LINE
  5
1DB
330
1F
100
AcDbEntity
  8
0
  6
Continuous
 62
     7
370
    25
100
AcDbLine
 10
1501.7650421294
 20
8096.8475941907
 30
0.0
 11
1500.9223971294
 21
8096.8475941907
 31
0.0
  0
LINE
  5
1DC
330
1F
100
AcDbEntity
  8
0
  6
Continuous
 62
     7
370
    25
100
AcDbLine
 10
1500.9223971294
 20
8096.8475941907
 30
0.0
 11
1499.8194021294
 21
8096.5876251907
 31
0.0
  0
LINE
  5
1DD
330
1F
100
AcDbEntity
  8
0
  6
Continuous
 62
     7
370
    25
100
AcDbLine
 10
1499.8194021294
 20
8096.5876251907
 30
0.0
 11
1499.9804381294
 21
8095.6465551907
 31
0.0
  0
LINE
  5
1DE
330
1F
100
AcDbEntity
  8
0
  6
Continuous
 62
     7
370
    25
100
AcDbLine
 10
1499.9804381294
 20
8095.6465551907
 30
0.0
 11
1498.7806691294
 21
8094.8680451907
 31
0.0
  0
LINE
  5
1DF
330
1F
100
AcDbEntity
  8
0
  6
Continuous
 62
     7
370
    25
100
AcDbLine
 10
1498.7806691294
 20
8094.8680451907
 30
0.0
 11
1497.6767851294
 21
8093.6028711907
 31
0.0
  0
LINE
  5
1E0
330
1F
100
AcDbEntity
  8
0
  6
Continuous
 62
     7
370
    25
100
AcDbLine
 10
1497.6767851294
 20
8093.6028711907
 30
0.0
 11
1495.2769931294
 21
8094.6407151907
 31
0.0
  0
LINE
  5
1E1
330
1F
100
AcDbEntity
  8
0
  6
Continuous
 62
     7
370
    25
100
AcDbLine
 10
1495.2769931294
 20
8094.6407151907
 30
0.0
 11
1491.9657221294
 21
8095.9071591907
 31
0.0
  0
LINE
  5
1E2
330
1F
100
AcDbEntity
  8
0
  6
Continuous
 62
     7
370
    25
100
AcDbLine
 10
1491.9657221294
 20
8095.9071591907
 30
0.0
 11
1490.2471581294
 21
8094.8030211907
 31
0.0
  0
LINE
  5
1E3
330
1F
100
AcDbEntity
  8
0
  6
Continuous
 62
     7
370
    25
100
AcDbLine
 10
1490.2471581294
 20
8094.8030211907
 30
0.0
 11
1489.5659301294
 21
8095.5494001907
 31
0.0
  0
LINE
  5
1E4
330
1F
100
AcDbEntity
  8
0
  6
Continuous
 62
     7
370
    25
100
AcDbLine
 10
1489.5659301294
 20
8095.5494001907
 30
0.0
 11
1488.5263081294
 21
8095.9071591907
 31
0.0
  0
LINE
  5
1E5
330
1F
100
AcDbEntity
  8
0
  6
Continuous
 62
     7
370
    25
100
AcDbLine
 10
1488.5263081294
 20
8095.9071591907
 30
0.0
 11
1487.3585431294
 21
8094.8680451907
 31
0.0
  0
LINE
  5
1E6
330
1F
100
AcDbEntity
  8
0
  6
Continuous
 62
     7
370
    25
100
AcDbLine
 10
1487.3585431294
 20
8094.8680451907
 30
0.0
 11
1487.0987011294
 21
8096.4907241907
 31
0.0
  0
LINE
  5
1E7
330
1F
100
AcDbEntity
  8
0
  6
Continuous
 62
     7
370
    25
100
AcDbLine
 10
1487.0987011294
 20
8096.4907241907
 30
0.0
 11
1483.9196371294
 21
8096.6847801907
 31
0.0
  0
LINE
  5
1E8
330
1F
100
AcDbEntity
  8
0
  6
Continuous
 62
     7
370
    25
100
AcDbLine
 10
1483.9196371294
 20
8096.6847801907
 30
0.0
 11
1482.5562921294
 21
8098.1137841907
 31
0.0
  0
LINE
  5
1E9
330
1F
100
AcDbEntity
  8
0
  6
Continuous
 62
     7
370
    25
100
AcDbLine
 10
1482.5562921294
 20
8098.1137841907
 30
0.0
 11
1482.1363031294
 21
8096.4255731907
 31
0.0
  0
LINE
  5
1EA
330
1F
100
AcDbEntity
  8
0
  6
Continuous
 62
     7
370
    25
100
AcDbLine
 10
1482.1363031294
 20
8096.4255731907
 30
0.0
 11
1480.8701131294
 21
8096.1661121907
 31
0.0
  0
LINE
  5
1EB
330
1F
100
AcDbEntity
  8
0
  6
Continuous
 62
     7
370
    25
100
AcDbLine
 10
1480.8701131294
 20
8096.1661121907
 30
0.0
 11
1480.5129891294
 21
8097.0087571907
 31
0.0
  0
LINE
  5
1EC
330
1F
100
AcDbEntity
  8
0
  6
Continuous
 62
     7
370
    25
100
AcDbLine
 10
1480.5129891294
 20
8097.0087571907
 30
0.0
 11
1479.2473071294
 21
8097.1070551907
 31
0.0
  0
LINE
  5
1ED
330
1F
100
AcDbEntity
  8
0
  6
Continuous
 62
     7
370
    25
100
AcDbLine
 10
1479.2473071294
 20
8097.1070551907
 30
0.0
 11
1479.2473071294
 21
8096.4907241907
 31
0.0
  0
LINE
  5
1EE
330
1F
100
AcDbEntity
  8
0
  6
Continuous
 62
     7
370
    25
100
AcDbLine
 10
1479.2473071294
 20
8096.4907241907
 30
0.0
 11
1478.4671461294
 21
8096.4907241907
 31
0.0
  0
LINE
  5
1EF
330
1F
100
AcDbEntity
  8
0
  6
Continuous
 62
     7
370
    25
100
AcDbLine
 10
1478.4671461294
 20
8096.4907241907
 30
0.0
 11
1478.1438041294
 21
8096.9448761907
 31
0.0
  0
LINE
  5
1F0
330
1F
100
AcDbEntity
  8
0
  6
Continuous
 62
     7
370
    25
100
AcDbLine
 10
1478.1438041294
 20
8096.9448761907
 30
0.0
 11
1476.9778171294
 21
8097.1070551907
 31
0.0
  0
LINE
  5
1F1
330
1F
100
AcDbEntity
  8
0
  6
Continuous
 62
     7
370
    25
100
AcDbLine
 10
1476.9778171294
 20
8097.1070551907
 30
0.0
 11
1476.7818561294
 21
8097.1722061907
 31
0.0
  0
LINE
  5
1F2
330
1F
100
AcDbEntity
  8
0
  6
Continuous
 62
     7
370
    25
100
AcDbLine
 10
1476.7818561294
 20
8097.1722061907
 30
0.0
 11
1476.2615371294
 21
8097.6266121907
 31
0.0
  0
LINE
  5
1F3
330
1F
100
AcDbEntity
  8
0
  6
Continuous
 62
     7
370
    25
100
AcDbLine
 10
1476.2615371294
 20
8097.6266121907
 30
0.0
 11
1478.0462681294
 21
8101.8765401907
 31
0.0
  0
LINE
  5
1F4
330
1F
100
AcDbEntity
  8
0
  6
Continuous
 62
     7
370
    25
100
AcDbLine
 10
1478.0462681294
 20
8101.8765401907
 30
0.0
 11
1477.8857401294
 21
8103.0779601907
 31
0.0
  0
LINE
  5
1F5
330
1F
100
AcDbEntity
  8
0
  6
Continuous
 62
     7
370
    25
100
AcDbLine
 10
1477.8857401294
 20
8103.0779601907
 30
0.0
 11
1479.2473071294
 21
8103.0779601907
 31
0.0
  0
LINE
  5
1F6
330
1F
100
AcDbEntity
  8
0
  6
Continuous
 62
     7
370
    25
100
AcDbLine
 10
1479.2473071294
 20
8103.0779601907
 30
0.0
 11
1479.2473071294
 21
8105.2833151907
 31
0.0
  0
LINE
  5
1F7
330
1F
100
AcDbEntity
  8
0
  6
Continuous
 62
     7
370
    25
100
AcDbLine
 10
1479.2473071294
 20
8105.2833151907
 30
0.0
 11
1481.2909911294
 21
8105.1221521907
 31
0.0
  0
LINE
  5
1F8
330
1F
100
AcDbEntity
  8
0
  6
Continuous
 62
     7
370
    25
100
AcDbLine
 10
1481.2909911294
 20
8105.1221521907
 30
0.0
 11
1481.6156031294
 21
8107.0032761907
 31
0.0
  0
LINE
  5
1F9
330
1F
100
AcDbEntity
  8
0
  6
Continuous
 62
     7
370
    25
100
AcDbLine
 10
1481.6156031294
 20
8107.0032761907
 30
0.0
 11
1479.9272651294
 21
8107.3282691907
 31
0.0
  0
LINE
  5
1FA
330
1F
100
AcDbEntity
  8
0
  6
Continuous
 62
     7
370
    25
100
AcDbLine
 10
1479.9272651294
 20
8107.3282691907
 30
0.0
 11
1478.9887351294
 21
8109.8906211907
 31
0.0
  0
LINE
  5
1FB
330
1F
100
AcDbEntity
  8
0
  6
Continuous
 62
     7
370
    25
100
AcDbLine
 10
1478.9887351294
 20
8109.8906211907
 30
0.0
 11
1479.5067681294
 21
8110.9293541907
 31
0.0
  0
LINE
  5
1FC
330
1F
100
AcDbEntity
  8
0
  6
Continuous
 62
     7
370
    25
100
AcDbLine
 10
1479.5067681294
 20
8110.9293541907
 30
0.0
 11
1479.1492631294
 21
8112.9736731907
 31
0.0
  0
LINE
  5
1FD
330
1F
100
AcDbEntity
  8
0
  6
Continuous
 62
     7
370
    25
100
AcDbLine
 10
1479.1492631294
 20
8112.9736731907
 30
0.0
 11
1479.4099941294
 21
8114.4989431907
 31
0.0
  0
LINE
  5
1FE
330
1F
100
AcDbEntity
  8
0
  6
Continuous
 62
     7
370
    25
100
AcDbLine
 10
1479.4099941294
 20
8114.4989431907
 30
0.0
 11
1480.7064101294
 21
8114.4335381907
 31
0.0
  0
LINE
  5
1FF
330
1F
100
AcDbEntity
  8
0
  6
Continuous
 62
     7
370
    25
100
AcDbLine
 10
1480.7064101294
 20
8114.4335381907
 30
0.0
 11
1480.6097631294
 21
8118.4246401907
 31
0.0
  0
LINE
  5
200
330
1F
100
AcDbEntity
  8
0
  6
Continuous
 62
     7
370
    25
100
AcDbLine
 10
1480.6097631294
 20
8118.4246401907
 30
0.0
 11
1479.1492631294
 21
8118.4246401907
 31
0.0
  0
LINE
  5
201
330
1F
100
AcDbEntity
  8
0
  6
Continuous
 62
     7
370
    25
100
AcDbLine
 10
1479.1492631294
 20
8118.4246401907
 30
0.0
 11
1479.2473071294
 21
8119.0404631907
 31
0.0
  0
LINE
  5
202
330
1F
100
AcDbEntity
  8
0
  6
Continuous
 62
     7
370
    25
100
AcDbLine
 10
1479.2473071294
 20
8119.0404631907
 30
0.0
 11
1477.0089321294
 21
8120.5654791907
 31
0.0
  0
LINE
  5
203
330
1F
100
AcDbEntity
  8
0
  6
Continuous
 62
     7
370
    25
100
AcDbLine
 10
1477.0089321294
 20
8120.5654791907
 30
0.0
 11
1476.5206171294
 21
8119.2034041907
 31
0.0
  0
LINE
  5
204
330
1F
100
AcDbEntity
  8
0
  6
Continuous
 62
     7
370
    25
100
AcDbLine
 10
1476.5206171294
 20
8119.2034041907
 30
0.0
 11
1475.7422341294
 21
8119.2034041907
 31
0.0
  0
LINE
  5
205
330
1F
100
AcDbEntity
  8
0
  6
Continuous
 62
     7
370
    25
100
AcDbLine
 10
1475.7422341294
 20
8119.2034041907
 30
0.0
 11
1476.0020761294
 21
8121.7665181907
 31
0.0
  0
LINE
  5
206
330
1F
100
AcDbEntity
  8
0
  6
Continuous
 62
     7
370
    25
100
AcDbLine
 10
1476.0020761294
 20
8121.7665181907
 30
0.0
 11
1473.5362441294
 21
8123.7130471907
 31
0.0
  0
LINE
  5
207
330
1F
100
AcDbEntity
  8
0
  6
Continuous
 62
     7
370
    25
100
AcDbLine
 10
1473.5362441294
 20
8123.7130471907
 30
0.0
 11
1472.4012451294
 21
8123.9735241907
 31
0.0
  0
LINE
  5
208
330
1F
100
AcDbEntity
  8
0
  6
Continuous
 62
     7
370
    25
100
AcDbLine
 10
1472.4012451294
 20
8123.9735241907
 30
0.0
 11
1473.6022841294
 21
8126.3740781907
 31
0.0
  0
LINE
  5
209
330
1F
100
AcDbEntity
  8
0
  6
Continuous
 62
     7
370
    25
100
AcDbLine
 10
1473.3419341294
 20
8128.2554561907
 30
0.0
 11
1474.9638511294
 21
8128.8401641907
 31
0.0
  0
LINE
  5
20A
330
1F
100
AcDbEntity
  8
0
  6
Continuous
 62
     7
370
    25
100
AcDbLine
 10
1474.9638511294
 20
8128.8401641907
 30
0.0
 11
1474.8024341294
 21
8130.2026201907
 31
0.0
  0
LINE
  5
20B
330
1F
100
AcDbEntity
  8
0
  6
Continuous
 62
     7
370
    25
100
AcDbLine
 10
1474.8024341294
 20
8130.2026201907
 30
0.0
 11
1475.6450791294
 21
8131.3058691907
 31
0.0
  0
LINE
  5
20C
330
1F
100
AcDbEntity
  8
0
  6
Continuous
 62
     7
370
    25
100
AcDbLine
 10
1475.6450791294
 20
8131.3058691907
 30
0.0
 11
1475.7422341294
 21
8132.7657341907
 31
0.0
  0
LINE
  5
20D
330
1F
100
AcDbEntity
  8
0
  6
Continuous
 62
     7
370
    25
100
AcDbLine
 10
1475.7422341294
 20
8132.7657341907
 30
0.0
 11
1474.7052791294
 21
8133.6092681907
 31
0.0
  0
LINE
  5
20E
330
1F
100
AcDbEntity
  8
0
  6
Continuous
 62
     7
370
    25
100
AcDbLine
 10
1474.7052791294
 20
8133.6092681907
 30
0.0
 11
1476.0020761294
 21
8134.2263611907
 31
0.0
  0
LINE
  5
20F
330
1F
100
AcDbEntity
  8
0
  6
Continuous
 62
     7
370
    25
100
AcDbLine
 10
1476.0020761294
 20
8134.2263611907
 30
0.0
 11
1475.4832811294
 21
8135.8480241907
 31
0.0
  0
LINE
  5
210
330
1F
100
AcDbEntity
  8
0
  6
Continuous
 62
     7
370
    25
100
AcDbLine
 10
1475.4832811294
 20
8135.8480241907
 30
0.0
 11
1473.5362441294
 21
8138.6712341907
 31
0.0
  0
LINE
  5
211
330
1F
100
AcDbEntity
  8
0
  6
Continuous
 62
     7
370
    25
100
AcDbLine
 10
1473.5362441294
 20
8138.6712341907
 30
0.0
 11
1474.2831311294
 21
8140.0990951907
 31
0.0
  0
LINE
  5
212
330
1F
100
AcDbEntity
  8
0
  6
Continuous
 62
     7
370
    25
100
AcDbLine
 10
1474.2831311294
 20
8140.0990951907
 30
0.0
 11
1474.9013671294
 21
8139.7744831907
 31
0.0
  0
LINE
  5
213
330
1F
100
AcDbEntity
  8
0
  6
Continuous
 62
     7
370
    25
100
AcDbLine
 10
1474.9013671294
 20
8139.7744831907
 30
0.0
 11
1474.4773141294
 21
8138.8341751907
 31
0.0
  0
LINE
  5
214
330
1F
100
AcDbEntity
  8
0
  6
Continuous
 62
     7
370
    25
100
AcDbLine
 10
1474.4773141294
 20
8138.8341751907
 30
0.0
 11
1476.0020761294
 21
8136.2700451907
 31
0.0
  0
LINE
  5
215
330
1F
100
AcDbEntity
  8
0
  6
Continuous
 62
     7
370
    25
100
AcDbLine
 10
1476.0020761294
 20
8136.2700451907
 30
0.0
 11
1477.6887631294
 21
8136.3674541907
 31
0.0
  0
LINE
  5
216
330
1F
100
AcDbEntity
  8
0
  6
Continuous
 62
     7
370
    25
100
AcDbLine
 10
1477.6887631294
 20
8136.3674541907
 30
0.0
 11
1478.2094631294
 21
8138.8985641907
 31
0.0
  0
LINE
  5
217
330
1F
100
AcDbEntity
  8
0
  6
Continuous
 62
     7
370
    25
100
AcDbLine
 10
1478.2094631294
 20
8138.8985641907
 30
0.0
 11
1476.6841931294
 21
8140.3583021907
 31
0.0
  0
LINE
  5
218
330
1F
100
AcDbEntity
  8
0
  6
Continuous
 62
     7
370
    25
100
AcDbLine
 10
1476.6841931294
 20
8140.3583021907
 30
0.0
 11
1476.7818561294
 21
8143.2787941907
 31
0.0
  0
LINE
  5
219
330
1F
100
AcDbEntity
  8
0
  6
Continuous
 62
     7
370
    25
100
AcDbLine
 10
1476.7818561294
 20
8143.2787941907
 30
0.0
 11
1477.8857401294
 21
8143.3430561907
 31
0.0
  0
LINE
  5
21A
330
1F
100
AcDbEntity
  8
0
  6
Continuous
 62
     7
370
    25
100
AcDbLine
 10
1477.8857401294
 20
8143.3430561907
 30
0.0
 11
1478.7287661294
 21
8145.3229861907
 31
0.0
  0
LINE
  5
21B
330
1F
100
AcDbEntity
  8
0
  6
Continuous
 62
     7
370
    25
100
AcDbLine
 10
1478.7287661294
 20
8145.3229861907
 30
0.0
 11
1477.6245011294
 21
8145.4852921907
 31
0.0
  0
LINE
  5
21C
330
1F
100
AcDbEntity
  8
0
  6
Continuous
 62
     7
370
    25
100
AcDbLine
 10
1477.6245011294
 20
8145.4852921907
 30
0.0
 11
1477.6887631294
 21
8146.6854421907
 31
0.0
  0
LINE
  5
21D
330
1F
100
AcDbEntity
  8
0
  6
Continuous
 62
     7
370
    25
100
AcDbLine
 10
1477.6887631294
 20
8146.6854421907
 30
0.0
 11
1479.1492631294
 21
8146.6854421907
 31
0.0
  0
LINE
  5
21E
330
1F
100
AcDbEntity
  8
0
  6
Continuous
 62
     7
370
    25
100
AcDbLine
 10
1479.1492631294
 20
8146.6854421907
 30
0.0
 11
1478.2094631294
 21
8148.0485331907
 31
0.0
  0
LINE
  5
21F
330
1F
100
AcDbEntity
  8
0
  6
Continuous
 62
     7
370
    25
100
AcDbLine
 10
1478.2094631294
 20
8148.0485331907
 30
0.0
 11
1478.2094631294
 21
8149.7361091907
 31
0.0
  0
LINE
  5
220
330
1F
100
AcDbEntity
  8
0
  6
Continuous
 62
     7
370
    25
100
AcDbLine
 10
1478.2094631294
 20
8149.7361091907
 30
0.0
 11
1476.7818561297
 21
8149.7361091907
 31
0.0
  0
LINE
  5
221
330
1F
100
AcDbEntity
  8
0
  6
Continuous
 62
     7
370
    25
100
AcDbLine
 10
1476.7818561297
 20
8149.7361091907
 30
0.0
 11
1478.0462681297
 21
8151.8123051907
 31
0.0
  0
LINE
  5
222
330
1F
100
AcDbEntity
  8
0
  6
Continuous
 62
     7
370
    25
100
AcDbLine
 10
1478.0462681297
 20
8151.8123051907
 30
0.0
 11
1477.5268381297
 21
8152.9799431906
 31
0.0
  0
LINE
  5
223
330
1F
100
AcDbEntity
  8
0
  6
Continuous
 62
     7
370
    25
100
AcDbLine
 10
1477.5268381297
 20
8152.9799431906
 30
0.0
 11
1475.8402781297
 21
8153.8566241907
 31
0.0
  0
LINE
  5
224
330
1F
100
AcDbEntity
  8
0
  6
Continuous
 62
     7
370
    25
100
AcDbLine
 10
1475.8402781297
 20
8153.8566241907
 30
0.0
 11
1475.4832811297
 21
8155.5433111906
 31
0.0
  0
LINE
  5
225
330
1F
100
AcDbEntity
  8
0
  6
Continuous
 62
     7
370
    25
100
AcDbLine
 10
1475.4832811297
 20
8155.5433111906
 30
0.0
 11
1474.9638511297
 21
8157.0031761906
 31
0.0
  0
LINE
  5
226
330
1F
100
AcDbEntity
  8
0
  6
Continuous
 62
     7
370
    25
100
AcDbLine
 10
1474.9638511297
 20
8157.0031761906
 30
0.0
 11
1476.3268151297
 21
8158.3666481906
 31
0.0
  0
LINE
  5
227
330
1F
100
AcDbEntity
  8
0
  6
Continuous
 62
     7
370
    25
100
AcDbLine
 10
1476.3268151297
 20
8158.3666481906
 30
0.0
 11
1476.3268151297
 21
8160.1509981907
 31
0.0
  0
LINE
  5
228
330
1F
100
AcDbEntity
  8
0
  6
Continuous
 62
     7
370
    25
100
AcDbLine
 10
1476.3268151297
 20
8160.1509981907
 30
0.0
 11
1477.1059601297
 21
8161.0916871907
 31
0.0
  0
LINE
  5
229
330
1F
100
AcDbEntity
  8
0
  6
Continuous
 62
     7
370
    25
100
AcDbLine
 10
1477.1059601297
 20
8161.0916871907
 30
0.0
 11
1477.7855371297
 21
8162.1299121907
 31
0.0
  0
LINE
  5
22A
330
1F
100
AcDbEntity
  8
0
  6
Continuous
 62
     7
370
    25
100
AcDbLine
 10
1477.7855371297
 20
8162.1299121907
 30
0.0
 11
1478.8250321297
 21
8162.2925991906
 31
0.0
  0
LINE
  5
22B
330
1F
100
AcDbEntity
  8
0
  6
Continuous
 62
     7
370
    25
100
AcDbLine
 10
1478.8250321297
 20
8162.2925991906
 30
0.0
 11
1479.4099941297
 21
8162.8765451907
 31
0.0
  0
LINE
  5
22C
330
1F
100
AcDbEntity
  8
0
  6
Continuous
 62
     7
370
    25
100
AcDbLine
 10
1479.4099941297
 20
8162.8765451907
 30
0.0
 11
1480.4460601297
 21
8163.1362601907
 31
0.0
  0
LINE
  5
22D
330
1F
100
AcDbEntity
  8
0
  6
Continuous
 62
     7
370
    25
100
AcDbLine
 10
1480.4460601297
 20
8163.1362601907
 30
0.0
 11
1481.5508331297
 21
8164.0764411907
 31
0.0
  0
LINE
  5
22E
330
1F
100
AcDbEntity
  8
0
  6
Continuous
 62
     7
370
    25
100
AcDbLine
 10
1481.5508331297
 20
8164.0764411907
 30
0.0
 11
1482.1363031297
 21
8163.9147701906
 31
0.0
  0
LINE
  5
22F
330
1F
100
AcDbEntity
  8
0
  6
Continuous
 62
     7
370
    25
100
AcDbLine
 10
1482.1363031297
 20
8163.9147701906
 30
0.0
 11
1482.4924111297
 21
8163.4930031907
 31
0.0
  0
LINE
  5
230
330
1F
100
AcDbEntity
  8
0
  6
Continuous
 62
     7
370
    25
100
AcDbLine
 10
1482.4924111297
 20
8163.4930031907
 30
0.0
 11
1483.0109521297
 21
8163.4930031907
 31
0.0
  0
LINE
  5
231
330
1F
100
AcDbEntity
  8
0
  6
Continuous
 62
     7
370
    25
100
AcDbLine
 10
1483.0109521297
 20
8163.4930031907
 30
0.0
 11
1483.6921801297
 21
8164.4343271907
 31
0.0
  0
LINE
  5
232
330
1F
100
AcDbEntity
  8
0
  6
Continuous
 62
     7
370
    25
100
AcDbLine
 10
1483.6921801297
 20
8164.4343271907
 30
0.0
 11
1484.3734081297
 21
8164.7588121907
 31
0.0
  0
LINE
  5
233
330
1F
100
AcDbEntity
  8
0
  6
Continuous
 62
     7
370
    25
100
AcDbLine
 10
1484.3734081297
 20
8164.7588121907
 30
0.0
 11
1484.1790981297
 21
8166.3808561906
 31
0.0
  0
LINE
  5
234
330
1F
100
AcDbEntity
  8
0
  6
Continuous
 62
     7
370
    25
100
AcDbLine
 10
1484.1790981297
 20
8166.3808561906
 30
0.0
 11
1483.2384091297
 21
8166.6412061907
 31
0.0
  0
LINE
  5
235
330
1F
100
AcDbEntity
  8
0
  6
Continuous
 62
     7
370
    25
100
AcDbLine
 10
1483.2384091297
 20
8166.6412061907
 30
0.0
 11
1481.9726001297
 21
8167.1588581906
 31
0.0
  0
LINE
  5
236
330
1F
100
AcDbEntity
  8
0
  6
Continuous
 62
     7
370
    25
100
AcDbLine
 10
1481.9726001297
 20
8167.1588581906
 30
0.0
 11
1481.0328001297
 21
8167.5815141906
 31
0.0
  0
LINE
  5
237
330
1F
100
AcDbEntity
  8
0
  6
Continuous
 62
     7
370
    25
100
AcDbLine
 10
1481.0328001297
 20
8167.5815141906
 30
0.0
 11
1481.1938361297
 21
8169.1069111907
 31
0.0
  0
LINE
  5
238
330
1F
100
AcDbEntity
  8
0
  6
Continuous
 62
     7
370
    25
100
AcDbLine
 10
1481.1938361297
 20
8169.1069111907
 30
0.0
 11
1482.6543361297
 21
8169.5604281906
 31
0.0
  0
LINE
  5
239
330
1F
100
AcDbEntity
  8
0
  6
Continuous
 62
     7
370
    25
100
AcDbLine
 10
1482.6543361297
 20
8169.5604281906
 30
0.0
 11
1482.7509831297
 21
8170.1451361906
 31
0.0
  0
LINE
  5
23A
330
1F
100
AcDbEntity
  8
0
  6
Continuous
 62
     7
370
    25
100
AcDbLine
 10
1482.7509831297
 20
8170.1451361906
 30
0.0
 11
1483.5950251297
 21
8170.1451361906
 31
0.0
  0
LINE
  5
23B
330
1F
100
AcDbEntity
  8
0
  6
Continuous
 62
     7
370
    25
100
AcDbLine
 10
1483.5950251297
 20
8170.1451361906
 30
0.0
 11
1484.0171731297
 21
8168.5223301906
 31
0.0
  0
LINE
  5
23C
330
1F
100
AcDbEntity
  8
0
  6
Continuous
 62
     7
370
    25
100
AcDbLine
 10
1484.0171731297
 20
8168.5223301906
 30
0.0
 11
1485.0562871297
 21
8168.5223301906
 31
0.0
  0
LINE
  5
23D
330
1F
100
AcDbEntity
  8
0
  6
Continuous
 62
     7
370
    25
100
AcDbLine
 10
1485.0562871297
 20
8168.5223301906
 30
0.0
 11
1485.3796291297
 21
8169.7220991906
 31
0.0
  0
LINE
  5
23E
330
1F
100
AcDbEntity
  8
0
  6
Continuous
 62
     7
370
    25
100
AcDbLine
 10
1485.3796291297
 20
8169.7220991906
 30
0.0
 11
1486.9052801297
 21
8169.7875041906
 31
0.0
  0
LINE
  5
23F
330
1F
100
AcDbEntity
  8
0
  6
Continuous
 62
     7
370
    25
100
AcDbLine
 10
1486.9052801297
 20
8169.7875041906
 30
0.0
 11
1487.0024351297
 21
8171.4096751907
 31
0.0
  0
LINE
  5
240
330
1F
100
AcDbEntity
  8
0
  6
Continuous
 62
     7
370
    25
100
AcDbLine
 10
1487.0024351297
 20
8171.4096751907
 30
0.0
 11
1485.7367531297
 21
8171.6047471906
 31
0.0
  0
LINE
  5
241
330
1F
100
AcDbEntity
  8
0
  6
Continuous
 62
     7
370
    25
100
AcDbLine
 10
1485.7367531297
 20
8171.6047471906
 30
0.0
 11
1483.5950251297
 21
8173.9087811907
 31
0.0
  0
LINE
  5
242
330
1F
100
AcDbEntity
  8
0
  6
Continuous
 62
     7
370
    25
100
AcDbLine
 10
1483.5950251297
 20
8173.9087811907
 30
0.0
 11
1482.5562921297
 21
8174.3301671907
 31
0.0
  0
LINE
  5
243
330
1F
100
AcDbEntity
  8
0
  6
Continuous
 62
     7
370
    25
100
AcDbLine
 10
1482.5562921297
 20
8174.3301671907
 30
0.0
 11
1481.3890351297
 21
8173.9738051907
 31
0.0
  0
LINE
  5
244
330
1F
100
AcDbEntity
  8
0
  6
Continuous
 62
     7
370
    25
100
AcDbLine
 10
1481.3890351297
 20
8173.9738051907
 30
0.0
 11
1481.3890351297
 21
8177.4778621906
 31
0.0
  0
LINE
  5
245
330
1F
100
AcDbEntity
  8
0
  6
Continuous
 62
     7
370
    25
100
AcDbLine
 10
1481.3890351297
 20
8177.4778621906
 30
0.0
 11
1482.4924111297
 21
8178.0939391907
 31
0.0
  0
LINE
  5
246
330
1F
100
AcDbEntity
  8
0
  6
Continuous
 62
     7
370
    25
100
AcDbLine
 10
1482.4924111297
 20
8178.0939391907
 30
0.0
 11
1482.6543361297
 21
8178.9381081906
 31
0.0
  0
LINE
  5
247
330
1F
100
AcDbEntity
  8
0
  6
Continuous
 62
     7
370
    25
100
AcDbLine
 10
1483.1723691297
 20
8182.7021341907
 30
0.0
 11
1484.1790981297
 21
8183.8698991907
 31
0.0
  0
LINE
  5
248
330
1F
100
AcDbEntity
  8
0
  6
Continuous
 62
     7
370
    25
100
AcDbLine
 10
1484.1790981297
 20
8183.8698991907
 30
0.0
 11
1486.2245601297
 21
8184.5513811906
 31
0.0
  0
LINE
  5
249
330
1F
100
AcDbEntity
  8
0
  6
Continuous
 62
     7
370
    25
100
AcDbLine
 10
1486.2245601297
 20
8184.5513811906
 30
0.0
 11
1486.1576311297
 21
8182.8643131906
 31
0.0
  0
LINE
  5
24A
330
1F
100
AcDbEntity
  8
0
  6
Continuous
 62
     7
370
    25
100
AcDbLine
 10
1486.1576311297
 20
8182.8643131906
 30
0.0
 11
1487.3585431297
 21
8181.0797091906
 31
0.0
  0
LINE
  5
24B
330
1F
100
AcDbEntity
  8
0
  6
Continuous
 62
     7
370
    25
100
AcDbLine
 10
1487.3585431297
 20
8181.0797091906
 30
0.0
 11
1488.7218881297
 21
8182.1828311906
 31
0.0
  0
LINE
  5
24C
330
1F
100
AcDbEntity
  8
0
  6
Continuous
 62
     7
370
    25
100
AcDbLine
 10
1488.7218881297
 20
8182.1828311906
 30
0.0
 11
1489.4675051297
 21
8183.8044941907
 31
0.0
  0
LINE
  5
24D
330
1F
100
AcDbEntity
  8
0
  6
Continuous
 62
     7
370
    25
100
AcDbLine
 10
1489.4675051297
 20
8183.8044941907
 30
0.0
 11
1492.8101451297
 21
8185.4923241906
 31
0.0
  0
LINE
  5
24E
330
1F
100
AcDbEntity
  8
0
  6
Continuous
 62
     7
370
    25
100
AcDbLine
 10
1492.8101451297
 20
8185.4923241906
 30
0.0
 11
1495.2113341297
 21
8185.3300181906
 31
0.0
  0
LINE
  5
24F
330
1F
100
AcDbEntity
  8
0
  6
Continuous
 62
     7
370
    25
100
AcDbLine
 10
1495.2113341297
 20
8185.3300181906
 30
0.0
 11
1496.6371631297
 21
8182.7662691906
 31
0.0
  0
LINE
  5
250
330
1F
100
AcDbEntity
  8
0
  6
Continuous
 62
     7
370
    25
100
AcDbLine
 10
1496.6371631297
 20
8182.7662691906
 30
0.0
 11
1498.7806691297
 21
8182.4425461907
 31
0.0
  0
LINE
  5
251
330
1F
100
AcDbEntity
  8
0
  6
Continuous
 62
     7
370
    25
100
AcDbLine
 10
1498.7806691297
 20
8182.4425461907
 30
0.0
 11
1499.5585441297
 21
8180.3010721907
 31
0.0
  0
LINE
  5
252
330
1F
100
AcDbEntity
  8
0
  6
Continuous
 62
     7
370
    25
100
AcDbLine
 10
1499.5585441297
 20
8180.3010721907
 30
0.0
 11
1501.4404301297
 21
8177.6406761907
 31
0.0
  0
LINE
  5
253
330
1F
100
AcDbEntity
  8
0
  6
Continuous
 62
     7
370
    25
100
AcDbLine
 10
1501.4404301297
 20
8177.6406761907
 30
0.0
 11
1503.6476901297
 21
8177.4778621906
 31
0.0
  0
LINE
  5
254
330
1F
100
AcDbEntity
  8
0
  6
Continuous
 62
     7
370
    25
100
AcDbLine
 10
1503.6476901297
 20
8177.4778621906
 30
0.0
 11
1503.0627281297
 21
8175.5961031906
 31
0.0
  0
LINE
  5
255
330
1F
100
AcDbEntity
  8
0
  6
Continuous
 62
     7
370
    25
100
AcDbLine
 10
1503.0627281297
 20
8175.5961031906
 30
0.0
 11
1504.4904621297
 21
8175.5306981907
 31
0.0
  0
LINE
  5
256
330
1F
100
AcDbEntity
  8
0
  6
Continuous
 62
     7
370
    25
100
AcDbLine
 10
1504.4904621297
 20
8175.5306981907
 30
0.0
 11
1503.1283871297
 21
8173.5517841907
 31
0.0
  0
LINE
  5
257
330
1F
100
AcDbEntity
  8
0
  6
Continuous
 62
     7
370
    25
100
AcDbLine
 10
1503.1283871297
 20
8173.5517841907
 30
0.0
 11
1503.5497731297
 21
8170.9232651907
 31
0.0
  0
LINE
  5
258
330
1F
100
AcDbEntity
  8
0
  6
Continuous
 62
     7
370
    25
100
AcDbLine
 10
1503.5497731297
 20
8170.9232651907
 30
0.0
 11
1505.0106541297
 21
8168.1005631907
 31
0.0
  0
LINE
  5
259
330
1F
100
AcDbEntity
  8
0
  6
Continuous
 62
     7
370
    25
100
AcDbLine
 10
1505.0106541297
 20
8168.1005631907
 30
0.0
 11
1505.4319131297
 21
8166.7374721907
 31
0.0
  0
LINE
  5
25A
330
1F
100
AcDbEntity
  8
0
  6
Continuous
 62
     7
370
    25
100
AcDbLine
 10
1505.4319131297
 20
8166.7374721907
 30
0.0
 11
1506.3726021297
 21
8166.7374721907
 31
0.0
  0
LINE
  5
25B
330
1F
100
AcDbEntity
  8
0
  6
Continuous
 62
     7
370
    25
100
AcDbLine
 10
1506.3726021297
 20
8166.7374721907
 30
0.0
 11
1508.7729021297
 21
8162.3897541907
 31
0.0
  0
LINE
  5
25C
330
1F
100
AcDbEntity
  8
0
  6
Continuous
 62
     7
370
    25
100
AcDbLine
 10
1508.7729021297
 20
8162.3897541907
 30
0.0
 11
1512.6013171297
 21
8161.8714671907
 31
0.0
  0
LINE
  5
25D
330
1F
100
AcDbEntity
  8
0
  6
Continuous
 62
     7
370
    25
100
AcDbLine
 10
1512.6013171297
 20
8161.8714671907
 30
0.0
 11
1514.1278571297
 21
8159.5673061907
 31
0.0
  0
LINE
  5
25E
330
1F
100
AcDbEntity
  8
0
  6
Continuous
 62
     7
370
    25
100
AcDbLine
 10
1514.1278571297
 20
8159.5673061907
 30
0.0
 11
1515.2645071297
 21
8155.9650781907
 31
0.0
  0
LINE
  5
25F
330
1F
100
AcDbEntity
  8
0
  6
Continuous
 62
     7
370
    25
100
AcDbLine
 10
1515.2645071297
 20
8155.9650781907
 30
0.0
 11
1513.9645351297
 21
8154.3432881907
 31
0.0
  0
LINE
  5
260
330
1F
100
AcDbEntity
  8
0
  6
Continuous
 62
     7
370
    25
100
AcDbLine
 10
1513.9645351297
 20
8154.3432881907
 30
0.0
 11
1511.8233151297
 21
8154.7973131907
 31
0.0
  0
LINE
  5
261
330
1F
100
AcDbEntity
  8
0
  6
Continuous
 62
     7
370
    25
100
AcDbLine
 10
1511.8233151297
 20
8154.7973131907
 30
0.0
 11
1508.9373671297
 21
8153.8566241907
 31
0.0
  0
LINE
  5
262
330
1F
100
AcDbEntity
  8
0
  6
Continuous
 62
     7
370
    25
100
AcDbLine
 10
1508.9373671297
 20
8153.8566241907
 30
0.0
 11
1506.6325711297
 21
8153.5967821907
 31
0.0
  0
LINE
  5
263
330
1F
100
AcDbEntity
  8
0
  6
Continuous
 62
     7
370
    25
100
AcDbLine
 10
1506.6325711297
 20
8153.5967821907
 30
0.0
 11
1505.5286871297
 21
8152.4931521906
 31
0.0
  0
LINE
  5
264
330
1F
100
AcDbEntity
  8
0
  6
Continuous
 62
     7
370
    25
100
AcDbLine
 10
1505.5286871297
 20
8152.4931521906
 30
0.0
 11
1507.7364551297
 21
8149.9308001907
 31
0.0
  0
LINE
  5
265
330
1F
100
AcDbEntity
  8
0
  6
Continuous
 62
     7
370
    25
100
AcDbLine
 10
1507.7364551297
 20
8149.9308001907
 30
0.0
 11
1507.5736411297
 21
8147.5289761906
 31
0.0
  0
LINE
  5
266
330
1F
100
AcDbEntity
  8
0
  6
Continuous
 62
     7
370
    25
100
AcDbLine
 10
1507.5736411297
 20
8147.5289761906
 30
0.0
 11
1509.7788691297
 21
8146.5237711906
 31
0.0
  0
LINE
  5
267
330
1F
100
AcDbEntity
  8
0
  6
Continuous
 62
     7
370
    25
100
AcDbLine
 10
1509.7788691297
 20
8146.5237711906
 30
0.0
 11
1511.2401311297
 21
8144.9012191906
 31
0.0
  0
LINE
  5
268
330
1F
100
AcDbEntity
  8
0
  6
Continuous
 62
     7
370
    25
100
AcDbLine
 10
1511.2401311297
 20
8144.9012191906
 30
0.0
 11
1511.2401311297
 21
8144.2197371907
 31
0.0
  0
LINE
  5
269
330
1F
100
AcDbEntity
  8
0
  6
Continuous
 62
     7
370
    25
100
AcDbLine
 10
1511.2401311297
 20
8144.2197371907
 30
0.0
 11
1509.9748301297
 21
8143.0843571907
 31
0.0
  0
LINE
  5
26A
330
1F
100
AcDbEntity
  8
0
  6
Continuous
 62
     7
370
    25
100
AcDbLine
 10
1509.9748301297
 20
8143.0843571907
 30
0.0
 11
1509.7788691297
 21
8140.8778591907
 31
0.0
  0
LINE
  5
26B
330
1F
100
AcDbEntity
  8
0
  6
Continuous
 62
     7
370
    25
100
AcDbLine
 10
1509.7788691297
 20
8140.8778591907
 30
0.0
 11
1512.0832841297
 21
8138.2165741906
 31
0.0
  0
LINE
  5
26C
330
1F
100
AcDbEntity
  8
0
  6
Continuous
 62
     7
370
    25
100
AcDbLine
 10
1512.0832841297
 20
8138.2165741906
 30
0.0
 11
1511.5967471297
 21
8134.9729941907
 31
0.0
  0
LINE
  5
26D
330
1F
100
AcDbEntity
  8
0
  6
Continuous
 62
     7
370
    25
100
AcDbLine
 10
1511.5967471297
 20
8134.9729941907
 30
0.0
 11
1510.6555501297
 21
8132.9281671907
 31
0.0
  0
LINE
  5
26E
330
1F
100
AcDbEntity
  8
0
  6
Continuous
 62
     7
370
    25
100
AcDbLine
 10
1510.6555501297
 20
8132.9281671907
 30
0.0
 11
1512.0832841297
 21
8131.8254261906
 31
0.0
  0
LINE
  5
26F
330
1F
100
AcDbEntity
  8
0
  6
Continuous
 62
     7
370
    25
100
AcDbLine
 10
1512.0832841297
 20
8131.8254261906
 30
0.0
 11
1514.2248851297
 21
8133.3828271906
 31
0.0
  0
LINE
  5
270
330
1F
100
AcDbEntity
  8
0
  6
Continuous
 62
     7
370
    25
100
AcDbLine
 10
1514.2248851297
 20
8133.3828271906
 30
0.0
 11
1515.5883571297
 21
8132.9281671907
 31
0.0
  0
LINE
  5
271
330
1F
100
AcDbEntity
  8
0
  6
Continuous
 62
     7
370
    25
100
AcDbLine
 10
1515.5883571297
 20
8132.9281671907
 30
0.0
 11
1516.3671211297
 21
8133.7070581907
 31
0.0
  0
LINE
  5
272
330
1F
100
AcDbEntity
  8
0
  6
Continuous
 62
     7
370
    25
100
AcDbLine
 10
1516.3671211297
 20
8133.7070581907
 30
0.0
 11
1521.0380541297
 21
8132.4417571906
 31
0.0
  0
LINE
  5
273
330
1F
100
AcDbEntity
  8
0
  6
Continuous
 62
     7
370
    25
100
AcDbLine
 10
1521.0380541297
 20
8132.4417571906
 30
0.0
 11
1522.3362481297
 21
8132.7657341907
 31
0.0
  0
LINE
  5
274
330
1F
100
AcDbEntity
  8
0
  6
Continuous
 62
     7
370
    25
100
AcDbLine
 10
1522.3362481297
 20
8132.7657341907
 30
0.0
 11
1523.0187461297
 21
8130.2997751907
 31
0.0
  0
LINE
  5
275
330
1F
100
AcDbEntity
  8
0
  6
Continuous
 62
     7
370
    25
100
AcDbLine
 10
1523.0187461297
 20
8130.2997751907
 30
0.0
 11
1527.9501561297
 21
8130.8837211906
 31
0.0
  0
LINE
  5
276
330
1F
100
AcDbEntity
  8
0
  6
Continuous
 62
     7
370
    25
100
AcDbLine
 10
1527.9501561297
 20
8130.8837211906
 30
0.0
 11
1532.7516451297
 21
8133.4470891906
 31
0.0
  0
LINE
  5
277
330
1F
100
AcDbEntity
  8
0
  6
Continuous
 62
     7
370
    25
100
AcDbLine
 10
1532.7516451297
 20
8133.4470891906
 30
0.0
 11
1533.5951791297
 21
8132.6041901906
 31
0.0
  0
LINE
  5
278
330
1F
100
AcDbEntity
  8
0
  6
Continuous
 62
     7
370
    25
100
AcDbLine
 10
1533.5951791297
 20
8132.6041901906
 30
0.0
 11
1534.8946431297
 21
8133.8045941907
 31
0.0
  0
LINE
  5
279
330
1F
100
AcDbEntity
  8
0
  6
Continuous
 62
     7
370
    25
100
AcDbLine
 10
1534.8946431297
 20
8133.8045941907
 30
0.0
 11
1536.8406641297
 21
8133.0258301907
 31
0.0
  0
LINE
  5
27A
330
1F
100
AcDbEntity
  8
0
  6
Continuous
 62
     7
370
    25
100
AcDbLine
 10
1536.8406641297
 20
8133.0258301907
 30
0.0
 11
1537.0030971297
 21
8129.1967801907
 31
0.0
  0
LINE
  5
27B
330
1F
100
AcDbEntity
  8
0
  6
Continuous
 62
     7
370
    25
100
AcDbLine
 10
1537.0030971297
 20
8129.1967801907
 30
0.0
 11
1538.7868121297
 21
8127.0553061907
 31
0.0
  0
LINE
  5
27C
330
1F
100
AcDbEntity
  8
0
  6
Continuous
 62
     7
370
    25
100
AcDbLine
 10
1538.7868121297
 20
8127.0553061907
 30
0.0
 11
1538.7868121297
 21
8125.0763921907
 31
0.0
  0
LINE
  5
27D
330
1F
100
AcDbEntity
  8
0
  6
Continuous
 62
     7
370
    25
100
AcDbLine
 10
1538.7868121297
 20
8125.0763921907
 30
0.0
 11
1541.4474621297
 21
8124.9142131906
 31
0.0
  0
LINE
  5
27E
330
1F
100
AcDbEntity
  8
0
  6
Continuous
 62
     7
370
    25
100
AcDbLine
 10
1541.4474621297
 20
8124.9142131906
 30
0.0
 11
1543.3292211297
 21
8125.8554101907
 31
0.0
  0
LINE
  5
27F
330
1F
100
AcDbEntity
  8
0
  6
Continuous
 62
     7
370
    25
100
AcDbLine
 10
1543.3292211297
 20
8125.8554101907
 30
0.0
 11
1545.0159081297
 21
8125.0763921907
 31
0.0
  0
LINE
  5
280
330
1F
100
AcDbEntity
  8
0
  6
Continuous
 62
     7
370
    25
100
AcDbLine
 10
1545.0159081297
 20
8125.0763921907
 30
0.0
 11
1544.5950301297
 21
8123.4540941906
 31
0.0
  0
LINE
  5
281
330
1F
100
AcDbEntity
  8
0
  6
Continuous
 62
     7
370
    25
100
AcDbLine
 10
1544.5950301297
 20
8123.4540941906
 30
0.0
 11
1542.9074541297
 21
8122.6103061906
 31
0.0
  0
LINE
  5
282
330
1F
100
AcDbEntity
  8
0
  6
Continuous
 62
     7
370
    25
100
AcDbLine
 10
1542.9074541297
 20
8122.6103061906
 30
0.0
 11
1543.3961501297
 21
8119.7868421906
 31
0.0
  0
LINE
  5
283
330
1F
100
AcDbEntity
  8
0
  6
Continuous
 62
     7
370
    25
100
AcDbLine
 10
1543.3961501297
 20
8119.7868421906
 30
0.0
 11
1545.7299021297
 21
8119.7221991906
 31
0.0
  0
LINE
  5
284
330
1F
100
AcDbEntity
  8
0
  6
Continuous
 62
     7
370
    25
100
AcDbLine
 10
1545.7299021297
 20
8119.7221991906
 30
0.0
 11
1545.2105991297
 21
8116.8025961907
 31
0.0
  0
LINE
  5
285
330
1F
100
AcDbEntity
  8
0
  6
Continuous
 62
     7
370
    25
100
AcDbLine
 10
1545.2105991297
 20
8116.8025961907
 30
0.0
 11
1546.4767891297
 21
8115.6016841906
 31
0.0
  0
LINE
  5
286
330
1F
100
AcDbEntity
  8
0
  6
Continuous
 62
     7
370
    25
100
AcDbLine
 10
1546.4767891297
 20
8115.6016841906
 30
0.0
 11
1546.4107491297
 21
8113.7523101906
 31
0.0
  0
LINE
  5
287
330
1F
100
AcDbEntity
  8
0
  6
Continuous
 62
     7
370
    25
100
AcDbLine
 10
1546.4107491297
 20
8113.7523101906
 30
0.0
 11
1548.3590561297
 21
8113.2976501907
 31
0.0
  0
LINE
  5
288
330
1F
100
AcDbEntity
  8
0
  6
Continuous
 62
     7
370
    25
100
AcDbLine
 10
1548.3590561297
 20
8113.2976501907
 30
0.0
 11
1548.7808231297
 21
8109.3070561906
 31
0.0
  0
LINE
  5
289
330
1F
100
AcDbEntity
  8
0
  6
Continuous
 62
     7
370
    25
100
AcDbLine
 10
1548.7808231297
 20
8109.3070561906
 30
0.0
 11
1550.3379701297
 21
8107.1650741907
 31
0.0
  0
LINE
  5
28A
330
1F
100
AcDbEntity
  8
0
  6
Continuous
 62
     7
370
    25
100
AcDbLine
 10
1550.3379701297
 20
8107.1650741907
 30
0.0
 11
1547.3212121297
 21
8106.8413511907
 31
0.0
  0
LINE
  5
28B
330
1F
100
AcDbEntity
  8
0
  6
Continuous
 62
     7
370
    25
100
AcDbLine
 10
1547.3212121297
 20
8106.8413511907
 30
0.0
 11
1546.4107491297
 21
8105.4785141906
 31
0.0
  0
LINE
  5
28C
330
1F
100
AcDbEntity
  8
0
  6
Continuous
 62
     7
370
    25
100
AcDbLine
 10
1546.4107491297
 20
8105.4785141906
 30
0.0
 11
1547.2560611297
 21
8104.6998771907
 31
0.0
  0
LINE
  5
28D
330
1F
100
AcDbEntity
  8
0
  6
Continuous
 62
     7
370
    25
100
AcDbLine
 10
1547.2560611297
 20
8104.6998771907
 30
0.0
 11
1546.8325161297
 21
8102.9796621906
 31
0.0
  0
LINE
  5
28E
330
1F
100
AcDbEntity
  8
0
  6
Continuous
 62
     7
370
    25
100
AcDbLine
 10
1546.8325161297
 20
8102.9796621906
 30
0.0
 11
1548.5218701297
 21
8098.7943771907
 31
0.0
  0
LINE
  5
28F
330
1F
100
AcDbEntity
  8
0
  6
Continuous
 62
     7
370
    25
100
AcDbLine
 10
1548.5218701297
 20
8098.7943771907
 30
0.0
 11
1551.8632401297
 21
8097.6904931906
 31
0.0
  0
LINE
  5
290
330
1F
100
AcDbEntity
  8
0
  6
Continuous
 62
     7
370
    25
100
AcDbLine
 10
1551.8632401297
 20
8097.6904931906
 30
0.0
 11
1554.4909971297
 21
8092.9213891907
 31
0.0
  0
LINE
  5
291
330
1F
100
AcDbEntity
  8
0
  6
Continuous
 62
     7
370
    25
100
AcDbLine
 10
1554.4909971297
 20
8092.9213891907
 30
0.0
 11
1557.4753701297
 21
8092.8242341906
 31
0.0
  0
LINE
  5
292
330
1F
100
AcDbEntity
  8
0
  6
Continuous
 62
     7
370
    25
100
AcDbLine
 10
1557.4753701297
 20
8092.8242341906
 30
0.0
 11
1557.5095331297
 21
8092.7917221907
 31
0.0
  0
LINE
  5
293
330
1F
100
AcDbEntity
  8
0
  6
Continuous
 62
     7
370
    25
100
AcDbLine
 10
1557.5095331297
 20
8092.7917221907
 30
0.0
 11
1556.8921861297
 21
8092.7594641906
 31
0.0
  0
LINE
  5
294
330
1F
100
AcDbEntity
  8
0
  6
Continuous
 62
     7
370
    25
100
AcDbLine
 10
1556.8921861297
 20
8092.7594641906
 30
0.0
 11
1556.4716891297
 21
8091.0396301907
 31
0.0
  0
LINE
  5
295
330
1F
100
AcDbEntity
  8
0
  6
Continuous
 62
     7
370
    25
100
AcDbLine
 10
1556.4716891297
 20
8091.0396301907
 30
0.0
 11
1554.8488831297
 21
8090.5198191907
 31
0.0
  0
LINE
  5
296
330
1F
100
AcDbEntity
  8
0
  6
Continuous
 62
     7
370
    25
100
AcDbLine
 10
1554.8488831297
 20
8090.5198191907
 30
0.0
 11
1555.0108081297
 21
8091.4616511907
 31
0.0
  0
LINE
  5
297
330
1F
100
AcDbEntity
  8
0
  6
Continuous
 62
     7
370
    25
100
AcDbLine
 10
1553.2251881297
 20
8090.1958421907
 30
0.0
 11
1551.7651961297
 21
8090.6176091907
 31
0.0
  0
LINE
  5
298
330
1F
100
AcDbEntity
  8
0
  6
Continuous
 62
     7
370
    25
100
AcDbLine
 10
1551.7651961297
 20
8090.6176091907
 30
0.0
 11
1552.3821621297
 21
8089.2551531906
 31
0.0
  0
LINE
  5
299
330
1F
100
AcDbEntity
  8
0
  6
Continuous
 62
     7
370
    25
100
AcDbLine
 10
1552.3821621297
 20
8089.2551531906
 30
0.0
 11
1551.6032711297
 21
8088.8982831906
 31
0.0
  0
LINE
  5
29A
330
1F
100
AcDbEntity
  8
0
  6
Continuous
 62
     7
370
    25
100
AcDbLine
 10
1551.6032711297
 20
8088.8982831906
 30
0.0
 11
1548.8788671297
 21
8091.6239571907
 31
0.0
  0
LINE
  5
29B
330
1F
100
AcDbEntity
  8
0
  6
Continuous
 62
     7
370
    25
100
AcDbLine
 10
1548.8788671297
 20
8091.6239571907
 30
0.0
 11
1547.5159031297
 21
8091.2990911906
 31
0.0
  0
LINE
  5
29C
330
1F
100
AcDbEntity
  8
0
  6
Continuous
 62
     7
370
    25
100
AcDbLine
 10
1547.5159031297
 20
8091.2990911906
 30
0.0
 11
1547.4174781297
 21
8089.5795111906
 31
0.0
  0
LINE
  5
29D
330
1F
100
AcDbEntity
  8
0
  6
Continuous
 62
     7
370
    25
100
AcDbLine
 10
1547.4174781297
 20
8089.5795111906
 30
0.0
 11
1545.5357191297
 21
8090.4553031906
 31
0.0
  0
LINE
  5
29E
330
1F
100
AcDbEntity
  8
0
  6
Continuous
 62
     7
370
    25
100
AcDbLine
 10
1545.5357191297
 20
8090.4553031906
 30
0.0
 11
1545.3737941297
 21
8089.3195421906
 31
0.0
  0
LINE
  5
29F
330
1F
100
AcDbEntity
  8
0
  6
Continuous
 62
     7
370
    25
100
AcDbLine
 10
1545.3737941297
 20
8089.3195421906
 30
0.0
 11
1546.1521771297
 21
8088.1516501907
 31
0.0
  0
LINE
  5
2A0
330
1F
100
AcDbEntity
  8
0
  6
Continuous
 62
     7
370
    25
100
AcDbLine
 10
1546.1521771297
 20
8088.1516501907
 30
0.0
 11
1543.7531471297
 21
8087.6323471907
 31
0.0
  0
LINE
  5
2A1
330
1F
100
AcDbEntity
  8
0
  6
Continuous
 62
     7
370
    25
100
AcDbLine
 10
1543.7531471297
 20
8087.6323471907
 30
0.0
 11
1542.9731131297
 21
8085.9122591906
 31
0.0
  0
LINE
  5
2A2
330
1F
100
AcDbEntity
  8
0
  6
Continuous
 62
     7
370
    25
100
AcDbLine
 10
1542.9731131297
 20
8085.9122591906
 30
0.0
 11
1540.6690791297
 21
8086.5941221907
 31
0.0
  0
LINE
  5
2A3
330
1F
100
AcDbEntity
  8
0
  6
Continuous
 62
     7
370
    25
100
AcDbLine
 10
1540.6690791297
 20
8086.5941221907
 30
0.0
 11
1538.9811221297
 21
8084.9718241907
 31
0.0
  0
LINE
  5
2A4
330
1F
100
AcDbEntity
  8
0
  6
Continuous
 62
     7
370
    25
100
AcDbLine
 10
1538.9811221297
 20
8084.9718241907
 30
0.0
 11
1538.7212801297
 21
8082.5056111906
 31
0.0
  0
LINE
  5
2A5
330
1F
100
AcDbEntity
  8
0
  6
Continuous
 62
     7
370
    25
100
AcDbLine
 10
1538.7212801297
 20
8082.5056111906
 30
0.0
 11
1537.2616691297
 21
8082.4084561906
 31
0.0
  0
LINE
  5
2A6
330
1F
100
AcDbEntity
  8
0
  6
Continuous
 62
     7
370
    25
100
AcDbLine
 10
1537.2616691297
 20
8082.4084561906
 30
0.0
 11
1537.0997441297
 21
8083.4471891907
 31
0.0
  0
LINE
  5
2A7
330
1F
100
AcDbEntity
  8
0
  6
Continuous
 62
     7
370
    25
100
AcDbLine
 10
1537.0997441297
 20
8083.4471891907
 30
0.0
 11
1535.0555521297
 21
8083.2846291906
 31
0.0
  0
LINE
  5
2A8
330
1F
100
AcDbEntity
  8
0
  6
Continuous
 62
     7
370
    25
100
AcDbLine
 10
1535.0555521297
 20
8083.2846291906
 30
0.0
 11
1533.9509061297
 21
8081.6624581906
 31
0.0
  0
LINE
  5
2A9
330
1F
100
AcDbEntity
  8
0
  6
Continuous
 62
     7
370
    25
100
AcDbLine
 10
1533.9509061297
 20
8081.6624581906
 30
0.0
 11
1533.7254811297
 21
8081.3702311906
 31
0.0
  0
LINE
  5
2AA
330
1F
100
AcDbEntity
  8
0
  6
Continuous
 62
     7
370
    25
100
AcDbLine
 10
1533.7254811297
 20
8081.3702311906
 30
0.0
 11
1532.4916761297
 21
8081.9219191907
 31
0.0
  0
LINE
  5
2AB
330
1F
100
AcDbEntity
  8
0
  6
Continuous
 62
     7
370
    25
100
AcDbLine
 10
1532.4916761297
 20
8081.9219191907
 30
0.0
 11
1529.5720731297
 21
8080.3638831907
 31
0.0
  0
LINE
  5
2AC
330
1F
100
AcDbEntity
  8
0
  6
Continuous
 62
     7
370
    25
100
AcDbLine
 10
1529.5720731297
 20
8080.3638831907
 30
0.0
 11
1529.3449971297
 21
8081.1425201907
 31
0.0
  0
ENDSEC
  0
SECTION
  2
OBJECTS
  0
DICTIONARY
  5
C
330
0
100
AcDbDictionary
281
     1
  3
ACAD_GROUP
350
D
  3
ACAD_LAYOUT
350
1A
  3
ACAD_MLINESTYLE
350
17
  3
ACAD_PLOTSETTINGS
350
19
  3
ACAD_PLOTSTYLENAME
350
E
  3
ACAD_SCALELIST
350
47
  0
DICTIONARY
  5
D
102
{ACAD_REACTORS
330
C
102
}
330
C
100
AcDbDictionary
281
     1
  0
DICTIONARY
  5
1A
102
{ACAD_REACTORS
330
C
102
}
330
C
100
AcDbDictionary
281
     1
  3
Layout1
350
1E
  3
Layout2
350
26
  3
Model
350
22
  0
DICTIONARY
  5
17
102
{ACAD_REACTORS
330
C
102
}
330
C
100
AcDbDictionary
281
     1
  3
Standard
350
18
  0
DICTIONARY
  5
19
102
{ACAD_REACTORS
330
C
102
}
330
C
100
AcDbDictionary
281
     1
  0
ACDBDICTIONARYWDFLT
  5
E
102
{ACAD_REACTORS
330
C
102
}
330
C
100
AcDbDictionary
281
     1
  3
Normal
350
F
100
AcDbDictionaryWithDefault
340
F
  0
DICTIONARY
  5
47
102
{ACAD_REACTORS
330
C
102
}
330
C
100
AcDbDictionary
281
     1
  3
A0
350
48
  3
A1
350
49
  3
A2
350
4A
  3
A3
350
4B
  3
A4
350
4C
  3
A5
350
4D
  3
A6
350
4E
  3
A7
350
4F
  3
A8
350
50
  3
A9
350
51
  3
B0
350
52
  3
B1
350
53
  3
B2
350
54
  3
B3
350
55
  3
B4
350
56
  3
B5
350
57
  3
B6
350
58
  3
B7
350
59
  3
B8
350
5A
  3
B9
350
5B
  3
C0
350
5C
  3
C1
350
5D
  3
C2
350
5E
  3
C3
350
5F
  3
C4
350
60
  3
C5
350
61
  3
C6
350
62
  3
C7
350
63
  3
C8
350
64
  3
C9
350
65
  3
D0
350
66
  3
D1
350
67
  3
D2
350
68
  0
LAYOUT
  5
1E
102
{ACAD_REACTORS
330
1A
102
}
330
1A
100
AcDbPlotSettings
  1

  2
none_device
  4

  6

 40
0.0
 41
0.0
 42
0.0
 43
0.0
 44
0.0
 45
0.0
 46
0.0
 47
0.0
 48
0.0
 49
0.0
140
0.0
141
0.0
142
1.0
143
1.0
 70
   688
 72
     1
 73
     0
 74
     5
  7

 75
    16
147
1.0
148
0.0
149
0.0
100
AcDbLayout
  1
Layout1
 70
     1
 71
     1
 10
0.0
 20
0.0
 11
420.0
 21
297.0
 12
0.0
 22
0.0
 32
0.0
 14
1.0000000000E+20
 24
1.0000000000E+20
 34
1.0000000000E+20
 15
-1.0000000000E+20
 25
-1.0000000000E+20
 35
-1.0000000000E+20
146
0.0
 13
0.0
 23
0.0
 33
0.0
 16
1.0
 26
0.0
 36
0.0
 17
0.0
 27
1.0
 37
0.0
 76
     0
330
1B
  0
LAYOUT
  5
26
102
{ACAD_REACTORS
330
1A
102
}
330
1A
100
AcDbPlotSettings
  1

  2
none_device
  4

  6

 40
0.0
 41
0.0
 42
0.0
 43
0.0
 44
0.0
 45
0.0
 46
0.0
 47
0.0
 48
0.0
 49
0.0
140
0.0
141
0.0
142
1.0
143
1.0
 70
   688
 72
     1
 73
     0
 74
     5
  7

 75
    16
147
1.0
148
0.0
149
0.0
100
AcDbLayout
  1
Layout2
 70
     1
 71
     2
 10
0.0
 20
0.0
 11
0.0
 21
0.0
 12
0.0
 22
0.0
 32
0.0
 14
0.0
 24
0.0
 34
0.0
 15
0.0
 25
0.0
 35
0.0
146
0.0
 13
0.0
 23
0.0
 33
0.0
 16
1.0
 26
0.0
 36
0.0
 17
0.0
 27
1.0
 37
0.0
 76
     0
330
23
  0
LAYOUT
  5
22
102
{ACAD_REACTORS
330
1A
102
}
330
1A
100
AcDbPlotSettings
  1

  2
none_device
  4
ANSI_A_(11.00_x_8.50_Inches)
  6

 40
6.35
 41
19.05
 42
6.35000508
 43
19.05000254
 44
279.4
 45
215.9
 46
-2902.7665091329
 47
-16208.7444714064
 48
0.0
 49
0.0
140
0.0
141
0.0
142
0.0789014296
143
1.0
 70
  1696
 72
     0
 73
     0
 74
     0
  7

 75
     0
147
0.0179189148
148
-1300.4909072572
149
0.0
100
AcDbLayout
  1
Model
 70
     1
 71
     0
 10
0.0
 20
0.0
 11
420.0
 21
297.0
 12
0.0
 22
0.0
 32
0.0
 14
1472.4012451294
 24
8078.8402641907
 34
0.0
 15
1557.5095331297
 25
8185.4923241906
 35
0.0
146
0.0
 13
0.0
 23
0.0
 33
0.0
 16
1.0
 26
0.0
 36
0.0
 17
0.0
 27
1.0
 37
0.0
 76
     0
330
1F
331
29
  0
MLINESTYLE
  5
18
102
{ACAD_REACTORS
330
17
102
}
330
17
100
AcDbMlineStyle
  2
Standard
 70
     0
  3

 62
   256
 51
90.0
 52
90.0
 71
     2
 49
0.5
 62
   256
  6
BYLAYER
 49
-0.5
 62
   256
  6
BYLAYER
  0
ACDBPLACEHOLDER
  5
F
102
{ACAD_REACTORS
330
E
102
}
330
E
  0
SCALE
  5
48
102
{ACAD_REACTORS
330
47
102
}
330
47
100
AcDbScale
 70
     0
300
1:1
140
1.0
141
1.0
290
     1
  0
SCALE
  5
49
102
{ACAD_REACTORS
330
47
102
}
330
47
100
AcDbScale
 70
     0
300
1:2
140
1.0
141
2.0
290
     0
  0
SCALE
  5
4A
102
{ACAD_REACTORS
330
47
102
}
330
47
100
AcDbScale
 70
     0
300
1:4
140
1.0
141
4.0
290
     0
  0
SCALE
  5
4B
102
{ACAD_REACTORS
330
47
102
}
330
47
100
AcDbScale
 70
     0
300
1:5
140
1.0
141
5.0
290
     0
  0
SCALE
  5
4C
102
{ACAD_REACTORS
330
47
102
}
330
47
100
AcDbScale
 70
     0
300
1:8
140
1.0
141
8.0
290
     0
  0
SCALE
  5
4D
102
{ACAD_REACTORS
330
47
102
}
330
47
100
AcDbScale
 70
     0
300
1:10
140
1.0
141
10.0
290
     0
  0
SCALE
  5
4E
102
{ACAD_REACTORS
330
47
102
}
330
47
100
AcDbScale
 70
     0
300
1:16
140
1.0
141
16.0
290
     0
  0
SCALE
  5
4F
102
{ACAD_REACTORS
330
47
102
}
330
47
100
AcDbScale
 70
     0
300
1:20
140
1.0
141
20.0
290
     0
  0
SCALE
  5
50
102
{ACAD_REACTORS
330
47
102
}
330
47
100
AcDbScale
 70
     0
300
1:30
140
1.0
141
30.0
290
     0
  0
SCALE
  5
51
102
{ACAD_REACTORS
330
47
102
}
330
47
100
AcDbScale
 70
     0
300
1:40
140
1.0
141
40.0
290
     0
  0
SCALE
  5
52
102
{ACAD_REACTORS
330
47
102
}
330
47
100
AcDbScale
 70
     0
300
1:50
140
1.0
141
50.0
290
     0
  0
SCALE
  5
53
102
{ACAD_REACTORS
330
47
102
}
330
47
100
AcDbScale
 70
     0
300
1:100
140
1.0
141
100.0
290
     0
  0
SCALE
  5
54
102
{ACAD_REACTORS
330
47
102
}
330
47
100
AcDbScale
 70
     0
300
2:1
140
2.0
141
1.0
290
     0
  0
SCALE
  5
55
102
{ACAD_REACTORS
330
47
102
}
330
47
100
AcDbScale
 70
     0
300
4:1
140
4.0
141
1.0
290
     0
  0
SCALE
  5
56
102
{ACAD_REACTORS
330
47
102
}
330
47
100
AcDbScale
 70
     0
300
8:1
140
8.0
141
1.0
290
     0
  0
SCALE
  5
57
102
{ACAD_REACTORS
330
47
102
}
330
47
100
AcDbScale
 70
     0
300
10:1
140
10.0
141
1.0
290
     0
  0
SCALE
  5
58
102
{ACAD_REACTORS
330
47
102
}
330
47
100
AcDbScale
 70
     0
300
100:1
140
100.0
141
1.0
290
     0
  0
SCALE
  5
59
102
{ACAD_REACTORS
330
47
102
}
330
47
100
AcDbScale
 70
     0
300
1/128" = 1'-0"
140
0.0078125
141
12.0
290
     0
  0
SCALE
  5
5A
102
{ACAD_REACTORS
330
47
102
}
330
47
100
AcDbScale
 70
     0
300
1/64" = 1'-0"
140
0.015625
141
12.0
290
     0
  0
SCALE
  5
5B
102
{ACAD_REACTORS
330
47
102
}
330
47
100
AcDbScale
 70
     0
300
1/32" = 1'-0"
140
0.03125
141
12.0
290
     0
  0
SCALE
  5
5C
102
{ACAD_REACTORS
330
47
102
}
330
47
100
AcDbScale
 70
     0
300
1/16" = 1'-0"
140
0.0625
141
12.0
290
     0
  0
SCALE
  5
5D
102
{ACAD_REACTORS
330
47
102
}
330
47
100
AcDbScale
 70
     0
300
3/32" = 1'-0"
140
0.09375
141
12.0
290
     0
  0
SCALE
  5
5E
102
{ACAD_REACTORS
330
47
102
}
330
47
100
AcDbScale
 70
     0
300
1/8" = 1'-0"
140
0.125
141
12.0
290
     0
  0
SCALE
  5
5F
102
{ACAD_REACTORS
330
47
102
}
330
47
100
AcDbScale
 70
     0
300
3/16" = 1'-0"
140
0.1875
141
12.0
290
     0
  0
SCALE
  5
60
102
{ACAD_REACTORS
330
47
102
}
330
47
100
AcDbScale
 70
     0
300
1/4" = 1'-0"
140
0.25
141
12.0
290
     0
  0
SCALE
  5
61
102
{ACAD_REACTORS
330
47
102
}
330
47
100
AcDbScale
 70
     0
300
3/8" = 1'-0"
140
0.375
141
12.0
290
     0
  0
SCALE
  5
62
102
{ACAD_REACTORS
330
47
102
}
330
47
100
AcDbScale
 70
     0
300
1/2" = 1'-0"
140
0.5
141
12.0
290
     0
  0
SCALE
  5
63
102
{ACAD_REACTORS
330
47
102
}
330
47
100
AcDbScale
 70
     0
300
3/4" = 1'-0"
140
0.75
141
12.0
290
     0
  0
SCALE
  5
64
102
{ACAD_REACTORS
330
47
102
}
330
47
100
AcDbScale
 70
     0
300
1" = 1'-0"
140
1.0
141
12.0
290
     0
  0
SCALE
  5
65
102
{ACAD_REACTORS
330
47
102
}
330
47
100
AcDbScale
 70
     0
300
1-1/2" = 1'-0"
140
1.5
141
12.0
290
     0
  0
SCALE
  5
66
102
{ACAD_REACTORS
330
47
102
}
330
47
100
AcDbScale
 70
     0
300
3" = 1'-0"
140
3.0
141
12.0
290
     0
  0
SCALE
  5
67
102
{ACAD_REACTORS
330
47
102
}
330
47
100
AcDbScale
 70
     0
300
6" = 1'-0"
140
6.0
141
12.0
290
     0
  0
SCALE
  5
68
102
{ACAD_REACTORS
330
47
102
}
330
47
100
AcDbScale
 70
     0
300
1'-0" = 1'-0"
140
12.0
141
12.0
290
     0
  0
ENDSEC
  0
EOF
