  0
SECTION
  2
HEADER
  9
$ACADVER
  1
AC1015
  9
$ACADMAINTVER
 70
     6
  9
$DWGCODEPAGE
  3
ANSI_1251
  9
$INSBASE
 10
0.0
 20
0.0
 30
0.0
  9
$EXTMIN
 10
3533.1513269344
 20
6260.37007424
 30
0.0
  9
$EXTMAX
 10
3632.9254479344
 20
6354.14230224
 30
0.0
  9
$LIMMIN
 10
0.0
 20
0.0
  9
$LIMMAX
 10
420.0
 20
297.0
  9
$ORTHOMODE
 70
     0
  9
$REGENMODE
 70
     1
  9
$FILLMODE
 70
     1
  9
$QTEXTMODE
 70
     0
  9
$MIRRTEXT
 70
     1
  9
$LTSCALE
 40
1.0
  9
$ATTMODE
 70
     1
  9
$TEXTSIZE
 40
4.0
  9
$TRACEWID
 40
1.0
  9
$TEXTSTYLE
  7
Standard
  9
$CLAYER
  8
0
  9
$CELTYPE
  6
ByLayer
  9
$CECOLOR
 62
   256
  9
$CELTSCALE
 40
1.0
  9
$DISPSILH
 70
     0
  9
$DIMSCALE
 40
1.0
  9
$DIMASZ
 40
6.0
  9
$DIMEXO
 40
1.0
  9
$DIMDLI
 40
3.75
  9
$DIMRND
 40
0.0
  9
$DIMDLE
 40
0.0
  9
$DIMEXE
 40
1.0
  9
$DIMTP
 40
0.0
  9
$DIMTM
 40
0.0
  9
$DIMTXT
 40
4.0
  9
$DIMCEN
 40
2.5
  9
$DIMTSZ
 40
0.0
  9
$DIMTOL
 70
     0
  9
$DIMLIM
 70
     0
  9
$DIMTIH
 70
     1
  9
$DIMTOH
 70
     1
  9
$DIMSE1
 70
     0
  9
$DIMSE2
 70
     0
  9
$DIMTAD
 70
     1
  9
$DIMZIN
 70
     0
  9
$DIMBLK
  1

  9
$DIMASO
 70
     1
  9
$DIMSHO
 70
     1
  9
$DIMPOST
  1

  9
$DIMAPOST
  1

  9
$DIMALT
 70
     0
  9
$DIMALTD
 70
     3
  9
$DIMALTF
 40
0.0393700787
  9
$DIMLFAC
 40
1.0
  9
$DIMTOFL
 70
     1
  9
$DIMTVP
 40
0.0
  9
$DIMTIX
 70
     0
  9
$DIMSOXD
 70
     0
  9
$DIMSAH
 70
     0
  9
$DIMBLK1
  1

  9
$DIMBLK2
  1

  9
$DIMSTYLE
  2
ISO-25
  9
$DIMCLRD
 70
     0
  9
$DIMCLRE
 70
     0
  9
$DIMCLRT
 70
     0
  9
$DIMTFAC
 40
1.0
  9
$DIMGAP
 40
3.0
  9
$DIMJUST
 70
     0
  9
$DIMSD1
 70
     0
  9
$DIMSD2
 70
     0
  9
$DIMTOLJ
 70
     0
  9
$DIMTZIN
 70
     0
  9
$DIMALTZ
 70
     0
  9
$DIMALTTZ
 70
     0
  9
$DIMUPT
 70
     0
  9
$DIMDEC
 70
     2
  9
$DIMTDEC
 70
     4
  9
$DIMALTU
 70
     2
  9
$DIMALTTD
 70
     3
  9
$DIMTXSTY
  7
Standard
  9
$DIMAUNIT
 70
     0
  9
$DIMADEC
 70
     2
  9
$DIMALTRND
 40
0.0
  9
$DIMAZIN
 70
     0
  9
$DIMDSEP
 70
    44
  9
$DIMATFIT
 70
     3
  9
$DIMFRAC
 70
     0
  9
$DIMLDRBLK
  1

  9
$DIMLUNIT
 70
     2
  9
$DIMLWD
 70
    -2
  9
$DIMLWE
 70
    -2
  9
$DIMTMOVE
 70
     0
  9
$LUNITS
 70
     2
  9
$LUPREC
 70
     2
  9
$SKETCHINC
 40
1.0
  9
$FILLETRAD
 40
10.0
  9
$AUNITS
 70
     1
  9
$AUPREC
 70
     2
  9
$MENU
  1
.
  9
$ELEVATION
 40
0.0
  9
$PELEVATION
 40
0.0
  9
$THICKNESS
 40
0.0
  9
$LIMCHECK
 70
     0
  9
$CHAMFERA
 40
0.0
  9
$CHAMFERB
 40
0.0
  9
$CHAMFERC
 40
0.0
  9
$CHAMFERD
 40
0.0
  9
$SKPOLY
 70
     0
  9
$TDCREATE
 40
2460368.661506146
  9
$TDUCREATE
 40
2460368.578172813
  9
$TDUPDATE
 40
2460368.661534016
  9
$TDUUPDATE
 40
2460368.578200683
  9
$TDINDWG
 40
0.0000000116
  9
$TDUSRTIMER
 40
0.0000000116
  9
$USRTIMER
 70
     1
  9
$ANGBASE
 50
0.0
  9
$ANGDIR
 70
     0
  9
$PDMODE
 70
     0
  9
$PDSIZE
 40
-1.0
  9
$PLINEWID
 40
0.0
  9
$SPLFRAME
 70
     0
  9
$SPLINETYPE
 70
     6
  9
$SPLINESEGS
 70
     8
  9
$HANDSEED
  5
2F4
  9
$SURFTAB1
 70
     6
  9
$SURFTAB2
 70
     6
  9
$SURFTYPE
 70
     6
  9
$SURFU
 70
     6
  9
$SURFV
 70
     6
  9
$UCSBASE
  2

  9
$UCSNAME
  2

  9
$UCSORG
 10
0.0
 20
0.0
 30
0.0
  9
$UCSXDIR
 10
1.0
 20
0.0
 30
0.0
  9
$UCSYDIR
 10
0.0
 20
1.0
 30
0.0
  9
$UCSORTHOREF
  2

  9
$UCSORTHOVIEW
 70
     0
  9
$UCSORGTOP
 10
0.0
 20
0.0
 30
0.0
  9
$UCSORGBOTTOM
 10
0.0
 20
0.0
 30
0.0
  9
$UCSORGLEFT
 10
0.0
 20
0.0
 30
0.0
  9
$UCSORGRIGHT
 10
0.0
 20
0.0
 30
0.0
  9
$UCSORGFRONT
 10
0.0
 20
0.0
 30
0.0
  9
$UCSORGBACK
 10
0.0
 20
0.0
 30
0.0
  9
$PUCSBASE
  2

  9
$PUCSNAME
  2

  9
$PUCSORG
 10
0.0
 20
0.0
 30
0.0
  9
$PUCSXDIR
 10
1.0
 20
0.0
 30
0.0
  9
$PUCSYDIR
 10
0.0
 20
1.0
 30
0.0
  9
$PUCSORTHOREF
  2

  9
$PUCSORTHOVIEW
 70
     0
  9
$PUCSORGTOP
 10
0.0
 20
0.0
 30
0.0
  9
$PUCSORGBOTTOM
 10
0.0
 20
0.0
 30
0.0
  9
$PUCSORGLEFT
 10
0.0
 20
0.0
 30
0.0
  9
$PUCSORGRIGHT
 10
0.0
 20
0.0
 30
0.0
  9
$PUCSORGFRONT
 10
0.0
 20
0.0
 30
0.0
  9
$PUCSORGBACK
 10
0.0
 20
0.0
 30
0.0
  9
$USERI1
 70
     0
  9
$USERI2
 70
     0
  9
$USERI3
 70
     0
  9
$USERI4
 70
     0
  9
$USERI5
 70
     0
  9
$USERR1
 40
0.0
  9
$USERR2
 40
0.0
  9
$USERR3
 40
0.0
  9
$USERR4
 40
0.0
  9
$USERR5
 40
0.0
  9
$WORLDVIEW
 70
     1
  9
$SHADEDGE
 70
     3
  9
$SHADEDIF
 70
    70
  9
$TILEMODE
 70
     1
  9
$MAXACTVP
 70
    64
  9
$PINSBASE
 10
0.0
 20
0.0
 30
0.0
  9
$PLIMCHECK
 70
     0
  9
$PEXTMIN
 10
1.0000000000E+20
 20
1.0000000000E+20
 30
1.0000000000E+20
  9
$PEXTMAX
 10
-1.0000000000E+20
 20
-1.0000000000E+20
 30
-1.0000000000E+20
  9
$PLIMMIN
 10
0.0
 20
0.0
  9
$PLIMMAX
 10
420.0
 20
297.0
  9
$UNITMODE
 70
     0
  9
$VISRETAIN
 70
     1
  9
$PLINEGEN
 70
     0
  9
$PSLTSCALE
 70
     1
  9
$TREEDEPTH
 70
  3020
  9
$CMLSTYLE
  2
Standard
  9
$CMLJUST
 70
     0
  9
$CMLSCALE
 40
20.0
  9
$PROXYGRAPHICS
 70
     1
  9
$MEASUREMENT
 70
     1
  9
$CELWEIGHT
370
    -1
  9
$ENDCAPS
280
     0
  9
$JOINSTYLE
280
     0
  9
$LWDISPLAY
290
     1
  9
$INSUNITS
 70
     4
  9
$HYPERLINKBASE
  1

  9
$STYLESHEET
  1

  9
$XEDIT
290
     1
  9
$CEPSNTYPE
380
     0
  9
$PSTYLEMODE
290
     1
  9
$FINGERPRINTGUID
  2
{7d905277-71e1-43a9-b6cf-a2f84d53bcdf}
  9
$VERSIONGUID
  2
{FAEB1C32-E019-11D5-929B-00C0DF256EC4}
  9
$EXTNAMES
290
     1
  9
$PSVPSCALE
 40
0.0
  9
$OLESTARTUP
290
     0
  0
ENDSEC
  0
SECTION
  2
CLASSES
  0
CLASS
  1
ACDBDICTIONARYWDFLT
  2
AcDbDictionaryWithDefault
  3
ObjectDBX Classes
 90
        0
280
     0
281
     0
  0
CLASS
  1
VISUALSTYLE
  2
AcDbVisualStyle
  3
ObjectDBX Classes
 90
     4095
280
     0
281
     0
  0
CLASS
  1
MATERIAL
  2
AcDbMaterial
  3
ObjectDBX Classes
 90
     1153
280
     0
281
     0
  0
CLASS
  1
SCALE
  2
AcDbScale
  3
ObjectDBX Classes
 90
     1153
280
     0
281
     0
  0
CLASS
  1
TABLESTYLE
  2
AcDbTableStyle
  3
ObjectDBX Classes
 90
     4095
280
     0
281
     0
  0
CLASS
  1
MLEADERSTYLE
  2
AcDbMLeaderStyle
  3
ACDB_MLEADERSTYLE_CLASS
 90
     4095
280
     0
281
     0
  0
CLASS
  1
SUN
  2
AcDbSun
  3
SCENEOE
 90
     1153
280
     0
281
     0
  0
CLASS
  1
ACDBPLACEHOLDER
  2
AcDbPlaceHolder
  3
ObjectDBX Classes
 90
        0
280
     0
281
     0
  0
CLASS
  1
LAYOUT
  2
AcDbLayout
  3
ObjectDBX Classes
 90
        0
280
     0
281
     0
  0
ENDSEC
  0
SECTION
  2
TABLES
  0
TABLE
  2
VPORT
  5
8
330
0
100
AcDbSymbolTable
 70
     1
  0
VPORT
  5
29
330
8
100
AcDbSymbolTableRecord
100
AcDbViewportTableRecord
  2
*Active
 70
     0
 10
0.0
 20
0.0
 11
1.0
 21
1.0
 12
3583.0383874344
 22
6307.25618824
 13
0.0
 23
0.0
 14
10.0
 24
10.0
 15
10.0
 25
10.0
 16
0.0
 26
0.0
 36
1.0
 17
0.0
 27
0.0
 37
0.0
 40
95.64767256
 41
1.0640050165
 42
50.0
 43
0.0
 44
0.0
 50
0.0
 51
0.0
 71
     0
 72
   100
 73
     1
 74
     3
 75
     0
 76
     0
 77
     0
 78
     0
281
     0
 65
     1
110
0.0
120
0.0
130
0.0
111
1.0
121
0.0
131
0.0
112
0.0
122
1.0
132
0.0
 79
     0
146
0.0
  0
ENDTAB
  0
TABLE
  2
LTYPE
  5
5
330
0
100
AcDbSymbolTable
 70
     6
  0
LTYPE
  5
14
330
5
100
AcDbSymbolTableRecord
100
AcDbLinetypeTableRecord
  2
ByBlock
 70
     0
  3

 72
    65
 73
     0
 40
0.0
  0
LTYPE
  5
15
330
5
100
AcDbSymbolTableRecord
100
AcDbLinetypeTableRecord
  2
ByLayer
 70
     0
  3

 72
    65
 73
     0
 40
0.0
  0
LTYPE
  5
16
330
5
100
AcDbSymbolTableRecord
100
AcDbLinetypeTableRecord
  2
Continuous
 70
     0
  3
Solid line
 72
    65
 73
     0
 40
0.0
  0
LTYPE
  5
6E
330
5
100
AcDbSymbolTableRecord
100
AcDbLinetypeTableRecord
  2
HIDDEN
 70
     0
  3
Hidden __ __ __ __ __ __ __ __ __ __ __ __ __ __
 72
    65
 73
     2
 40
1.905
 49
1.27
 74
     0
 49
-0.635
 74
     0
  0
LTYPE
  5
6F
330
5
100
AcDbSymbolTableRecord
100
AcDbLinetypeTableRecord
  2
PHANTOM
 70
     0
  3
Phantom ______  __  __  ______  __  __  ______
 72
    65
 73
     6
 40
12.7
 49
6.35
 74
     0
 49
-1.27
 74
     0
 49
1.27
 74
     0
 49
-1.27
 74
     0
 49
1.27
 74
     0
 49
-1.27
 74
     0
  0
LTYPE
  5
70
330
5
100
AcDbSymbolTableRecord
100
AcDbLinetypeTableRecord
  2
CENTER
 70
     0
  3
Center ____ _ ____ _ ____ _ ____ _ ____ _ ____
 72
    65
 73
     4
 40
10.16
 49
6.35
 74
     0
 49
-1.27
 74
     0
 49
1.27
 74
     0
 49
-1.27
 74
     0
  0
LTYPE
  5
71
330
5
100
AcDbSymbolTableRecord
100
AcDbLinetypeTableRecord
  2
CENTERX2
 70
     0
  3
Center (2x) ________  __  ________  __  _____
 72
    65
 73
     4
 40
20.32
 49
12.7
 74
     0
 49
-2.54
 74
     0
 49
2.54
 74
     0
 49
-2.54
 74
     0
  0
LTYPE
  5
72
330
5
100
AcDbSymbolTableRecord
100
AcDbLinetypeTableRecord
  2
DOT2
 70
     0
  3
Dot (.5x) ........................................
 72
    65
 73
     2
 40
0.635
 49
0.0
 74
     0
 49
-0.635
 74
     0
  0
ENDTAB
  0
TABLE
  2
LAYER
  5
2
330
0
100
AcDbSymbolTable
 70
     1
  0
LAYER
  5
10
330
2
100
AcDbSymbolTableRecord
100
AcDbLayerTableRecord
  2
0
 70
     0
 62
     7
  6
Continuous
370
    -3
390
F
  0
ENDTAB
  0
TABLE
  2
STYLE
  5
3
330
0
100
AcDbSymbolTable
 70
     1
  0
STYLE
  5
11
330
3
100
AcDbSymbolTableRecord
100
AcDbTextStyleTableRecord
  2
Standard
 70
     0
 40
0.0
 41
1.0
 50
0.0
 71
     0
 42
4.0
  3
txt
  4

  0
ENDTAB
  0
TABLE
  2
VIEW
  5
6
330
0
100
AcDbSymbolTable
 70
     0
  0
ENDTAB
  0
TABLE
  2
UCS
  5
7
330
0
100
AcDbSymbolTable
 70
     0
  0
ENDTAB
  0
TABLE
  2
APPID
  5
9
330
0
100
AcDbSymbolTable
 70
     1
  0
APPID
  5
12
330
9
100
AcDbSymbolTableRecord
100
AcDbRegAppTableRecord
  2
ACAD
 70
     0
  0
ENDTAB
  0
TABLE
  2
DIMSTYLE
  5
A
330
0
100
AcDbSymbolTable
 70
     1
100
AcDbDimStyleTable
  0
DIMSTYLE
105
27
330
A
100
AcDbSymbolTableRecord
100
AcDbDimStyleTableRecord
  2
ISO-25
 70
     0
 41
2.5
 42
0.625
 43
3.75
 44
1.25
 73
     0
 74
     0
 77
     1
 78
     8
140
2.5
141
2.5
143
0.0393700787
147
0.625
171
     3
172
     1
178
     0
271
     2
272
     2
274
     3
278
    44
283
     0
284
     8
340
11
  0
ENDTAB
  0
TABLE
  2
BLOCK_RECORD
  5
1
330
0
100
AcDbSymbolTable
 70
     1
  0
BLOCK_RECORD
  5
1F
330
1
100
AcDbSymbolTableRecord
100
AcDbBlockTableRecord
  2
*Model_Space
340
22
  0
BLOCK_RECORD
  5
1B
330
1
100
AcDbSymbolTableRecord
100
AcDbBlockTableRecord
  2
*Paper_Space
340
1E
  0
BLOCK_RECORD
  5
23
330
1
100
AcDbSymbolTableRecord
100
AcDbBlockTableRecord
  2
*Paper_Space0
340
26
  0
ENDTAB
  0
ENDSEC
  0
SECTION
  2
BLOCKS
  0
BLOCK
  5
20
330
1F
100
AcDbEntity
  8
0
100
AcDbBlockBegin
  2
*Model_Space
 70
     0
 10
0.0
 20
0.0
 30
0.0
  3
*Model_Space
  1

  0
ENDBLK
  5
21
330
1F
100
AcDbEntity
  8
0
100
AcDbBlockEnd
  0
BLOCK
  5
1C
330
1B
100
AcDbEntity
 67
     1
  8
0
100
AcDbBlockBegin
  2
*Paper_Space
 70
     0
 10
0.0
 20
0.0
 30
0.0
  3
*Paper_Space
  1

  0
ENDBLK
  5
1D
330
1B
100
AcDbEntity
 67
     1
  8
0
100
AcDbBlockEnd
  0
BLOCK
  5
24
330
23
100
AcDbEntity
  8
0
100
AcDbBlockBegin
  2
*Paper_Space0
 70
     0
 10
0.0
 20
0.0
 30
0.0
  3
*Paper_Space0
  1

  0
ENDBLK
  5
25
330
23
100
AcDbEntity
  8
0
100
AcDbBlockEnd
  0
ENDSEC
  0
SECTION
  2
ENTITIES
  0
SPLINE
  5
73
330
1F
100
AcDbEntity
  8
0
  6
Continuous
 62
     7
370
    25
100
AcDbSpline
210
0.0
220
0.0
230
1.0
 70
     8
 71
     3
 72
    15
 73
    11
 74
     0
 42
0.000000001
 43
0.00000001
 40
0.0
 40
0.0
 40
0.0
 40
0.0
 40
0.1292358118054854
 40
0.2539569466684323
 40
0.377196804785737
 40
0.5066544638823186
 40
0.6346707152581409
 40
0.7555544727616219
 40
0.8762798741110944
 40
0.9999999999999999
 40
0.9999999999999999
 40
0.9999999999999999
 40
0.9999999999999999
 10
3587.421514946721
 20
6324.342161646488
 30
0.0
 10
3587.465921697422
 20
6324.344162460534
 30
0.0
 10
3587.553183909513
 20
6324.348094192911
 30
0.0
 10
3587.678031950691
 20
6324.386113611021
 30
0.0
 10
3587.793824193503
 20
6324.445289014378
 30
0.0
 10
3587.896286868768
 20
6324.527324711986
 30
0.0
 10
3587.983562669625
 20
6324.624313352892
 30
0.0
 10
3588.046717590698
 20
6324.735149217678
 30
0.0
 10
3588.085431294239
 20
6324.855647497101
 30
0.0
 10
3588.090294903755
 20
6324.93957152951
 30
0.0
 10
3588.092756500776
 20
6324.982047626218
 30
0.0
  0
SPLINE
  5
75
330
1F
100
AcDbEntity
  8
0
  6
Continuous
 62
     7
370
    25
100
AcDbSpline
210
0.0
220
0.0
230
1.0
 70
     8
 71
     3
 72
    15
 73
    11
 74
     0
 42
0.000000001
 43
0.00000001
 40
0.0
 40
0.0
 40
0.0
 40
0.0
 40
0.1235134495526263
 40
0.24403717729833
 40
0.3652811780136435
 40
0.4939311243357938
 40
0.6229953715115062
 40
0.74754898504954
 40
0.8709800785673066
 40
1.0
 40
1.0
 40
1.0
 40
1.0
 10
3588.092756500776
 20
6325.705548470813
 30
0.0
 10
3588.090266026717
 20
6325.748007726616
 30
0.0
 10
3588.085345362112
 20
6325.831898484865
 30
0.0
 10
3588.046992790992
 20
6325.952827912907
 30
0.0
 10
3587.981907764432
 20
6326.063109095697
 30
0.0
 10
3587.895349417395
 20
6326.161018398784
 30
0.0
 10
3587.793546143828
 20
6326.245205322582
 30
0.0
 10
3587.677677104339
 20
6326.30458248072
 30
0.0
 10
3587.552850440359
 20
6326.343132179683
 30
0.0
 10
3587.465934831578
 20
6326.346961404591
 30
0.0
 10
3587.421514946721
 20
6326.348918403245
 30
0.0
  0
SPLINE
  5
7A
330
1F
100
AcDbEntity
  8
0
  6
Continuous
 62
     7
370
    25
100
AcDbSpline
210
0.0
220
0.0
230
1.0
 70
     8
 71
     3
 72
    15
 73
    11
 74
     0
 42
0.000000001
 43
0.00000001
 40
0.0
 40
0.0
 40
0.0
 40
0.0
 40
0.1212059526124577
 40
0.2293436564902715
 40
0.3347681309252614
 40
0.4407596617559015
 40
0.5558130396878627
 40
0.6851533834087389
 40
0.8321371907837112
 40
1.0
 40
1.0
 40
1.0
 40
1.0
 10
3586.45762136564
 20
6321.709454720813
 30
0.0
 10
3586.456699308572
 20
6321.688391995536
 30
0.0
 10
3586.454954609282
 20
6321.648537497251
 30
0.0
 10
3586.436518195711
 20
6321.592855742753
 30
0.0
 10
3586.407400858544
 20
6321.545065005405
 30
0.0
 10
3586.364671486798
 20
6321.506924135173
 30
0.0
 10
3586.310941710837
 20
6321.477883667939
 30
0.0
 10
3586.246042236862
 20
6321.457060239592
 30
0.0
 10
3586.169570326827
 20
6321.446431654773
 30
0.0
 10
3586.115061519174
 20
6321.444527964455
 30
0.0
 10
3586.085999744019
 20
6321.44351299784
 30
0.0
  0
SPLINE
  5
7B
330
1F
100
AcDbEntity
  8
0
  6
Continuous
 62
     7
370
    25
100
AcDbSpline
210
0.0
220
0.0
230
1.0
 70
     8
 71
     3
 72
    15
 73
    11
 74
     0
 42
0.000000001
 43
0.00000001
 40
0.0
 40
0.0
 40
0.0
 40
0.0
 40
0.1528612850162332
 40
0.2874697277135725
 40
0.4083171843914323
 40
0.5197330343306964
 40
0.6278222855465667
 40
0.7415060099346058
 40
0.8623534666125106
 40
1.0
 40
1.0
 40
1.0
 40
1.0
 10
3586.085999744019
 20
6321.44351299784
 30
0.0
 10
3586.062736822824
 20
6321.444526875384
 30
0.0
 10
3586.018988756588
 20
6321.446433565503
 30
0.0
 10
3585.957400847404
 20
6321.457197453895
 30
0.0
 10
3585.905203622341
 20
6321.478305962031
 30
0.0
 10
3585.862043431421
 20
6321.507775613444
 30
0.0
 10
3585.82807062084
 20
6321.546313604767
 30
0.0
 10
3585.80529035382
 20
6321.593771169379
 30
0.0
 10
3585.790789649041
 20
6321.648997399509
 30
0.0
 10
3585.789427684729
 20
6321.688447678607
 30
0.0
 10
3585.788702446721
 20
6321.709454720813
 30
0.0
  0
SPLINE
  5
7D
330
1F
100
AcDbEntity
  8
0
  6
Continuous
 62
     7
370
    25
100
AcDbSpline
210
0.0
220
0.0
230
1.0
 70
     8
 71
     3
 72
    15
 73
    11
 74
     0
 42
0.000000001
 43
0.00000001
 40
0.0
 40
0.0
 40
0.0
 40
0.0
 40
0.1446346493005057
 40
0.2709695536701356
 40
0.3881332050053661
 40
0.4966009700542696
 40
0.6071858555760741
 40
0.7243495069113047
 40
0.8527014153097074
 40
1.0
 40
1.0
 40
1.0
 40
1.0
 10
3585.788702446721
 20
6326.677571274868
 30
0.0
 10
3585.789521543809
 20
6326.698561208776
 30
0.0
 10
3585.791056102596
 20
6326.737885347565
 30
0.0
 10
3585.804254363299
 20
6326.792912332006
 30
0.0
 10
3585.82457796739
 20
6326.840075727503
 30
0.0
 10
3585.854745322516
 20
6326.87913129099
 30
0.0
 10
3585.894324429505
 20
6326.908374710956
 30
0.0
 10
3585.941764410386
 20
6326.929720331804
 30
0.0
 10
3585.998037779034
 20
6326.940654925604
 30
0.0
 10
3586.037957597814
 20
6326.942517629798
 30
0.0
 10
3586.059289439965
 20
6326.94351299784
 30
0.0
  0
SPLINE
  5
7F
330
1F
100
AcDbEntity
  8
0
  6
Continuous
 62
     7
370
    25
100
AcDbSpline
210
0.0
220
0.0
230
1.0
 70
     8
 71
     3
 72
    23
 73
    19
 74
     0
 42
0.000000001
 43
0.00000001
 40
0.0
 40
0.0
 40
0.0
 40
0.0
 40
0.0697099815833825
 40
0.1364473703020138
 40
0.2017947491632094
 40
0.2654843218801445
 40
0.3288955934619147
 40
0.3921073283569567
 40
0.4562055181823871
 40
0.5211806621105861
 40
0.5856274065120243
 40
0.64799141553616
 40
0.7075565987987537
 40
0.766487804537701
 40
0.8243692610195141
 40
0.881947273961464
 40
0.9407267977402013
 40
1.0
 40
1.0
 40
1.0
 40
1.0
 10
3587.43196680483
 20
6326.94351299784
 30
0.0
 10
3587.478489524428
 20
6326.942505996719
 30
0.0
 10
3587.569551128582
 20
6326.940534935306
 30
0.0
 10
3587.703033788493
 20
6326.92183646163
 30
0.0
 10
3587.831151506577
 20
6326.895445559302
 30
0.0
 10
3587.952577846949
 20
6326.853179161079
 30
0.0
 10
3588.069577487779
 20
6326.803336677774
 30
0.0
 10
3588.178832513551
 20
6326.73769084369
 30
0.0
 10
3588.284131079299
 20
6326.664170313511
 30
0.0
 10
3588.380381239316
 20
6326.577827151576
 30
0.0
 10
3588.469641958565
 20
6326.486056489497
 30
0.0
 10
3588.547348916535
 20
6326.388744927594
 30
0.0
 10
3588.613206942958
 20
6326.287492014842
 30
0.0
 10
3588.668170553579
 20
6326.183271275148
 30
0.0
 10
3588.7104883847
 20
6326.074580085415
 30
0.0
 10
3588.738915172571
 20
6325.961751150978
 30
0.0
 10
3588.758745500318
 20
6325.845989618042
 30
0.0
 10
3588.76069606092
 20
6325.767182062801
 30
0.0
 10
3588.761675419694
 20
6325.727613504597
 30
0.0
  0
SPLINE
  5
81
330
1F
100
AcDbEntity
  8
0
  6
Continuous
 62
     7
370
    25
100
AcDbSpline
210
0.0
220
0.0
230
1.0
 70
     8
 71
     3
 72
    23
 73
    19
 74
     0
 42
0.000000001
 43
0.00000001
 40
0.0
 40
0.0
 40
0.0
 40
0.0
 40
0.0599416988924173
 40
0.1187138469710808
 40
0.1769412378156644
 40
0.2352661744249043
 40
0.2943277774127101
 40
0.3542464815027618
 40
0.4165885938737653
 40
0.4809536654488809
 40
0.5457853982364228
 40
0.6093099757947946
 40
0.6719250421333882
 40
0.7349787482748749
 40
0.7988306000017149
 40
0.8637685273449326
 40
0.9306766963489824
 40
1.0
 40
1.0
 40
1.0
 40
1.0
 10
3588.761675419694
 20
6324.959982592435
 30
0.0
 10
3588.760585978575
 20
6324.920432080809
 30
0.0
 10
3588.758428352935
 20
6324.842102746281
 30
0.0
 10
3588.740373287204
 20
6324.726506562367
 30
0.0
 10
3588.711386151263
 20
6324.614384157495
 30
0.0
 10
3588.670360659821
 20
6324.505848205983
 30
0.0
 10
3588.618155074505
 20
6324.400948981747
 30
0.0
 10
3588.553036131645
 20
6324.300439658174
 30
0.0
 10
3588.477952769366
 20
6324.202671312365
 30
0.0
 10
3588.390814035983
 20
6324.111040730536
 30
0.0
 10
3588.297292291511
 20
6324.024594868934
 30
0.0
 10
3588.193934489998
 20
6323.952199971795
 30
0.0
 10
3588.086734357148
 20
6323.887960622771
 30
0.0
 10
3587.972093733923
 20
6323.837579285368
 30
0.0
 10
3587.852391883301
 20
6323.795886346356
 30
0.0
 10
3587.725921956586
 20
6323.769074048996
 30
0.0
 10
3587.594320020136
 20
6323.750628547345
 30
0.0
 10
3587.504422651234
 20
6323.74859954057
 30
0.0
 10
3587.458677108884
 20
6323.747567051894
 30
0.0
  0
SPLINE
  5
84
330
1F
100
AcDbEntity
  8
0
  6
Continuous
 62
     7
370
    25
100
AcDbSpline
210
0.0
220
0.0
230
1.0
 70
     8
 71
     3
 72
    15
 73
    11
 74
     0
 42
0.000000001
 43
0.00000001
 40
0.0
 40
0.0
 40
0.0
 40
0.0
 40
0.1208158510018196
 40
0.2307257204520325
 40
0.3358108859966578
 40
0.4414612828648166
 40
0.5572426563437065
 40
0.6861667178992396
 40
0.8326774575843928
 40
1.0
 40
1.0
 40
1.0
 40
1.0
 10
3590.813026771046
 20
6321.711777355948
 30
0.0
 10
3590.812050683481
 20
6321.690729198732
 30
0.0
 10
3590.810186619247
 20
6321.65053289007
 30
0.0
 10
3590.792194984623
 20
6321.59432911691
 30
0.0
 10
3590.762826074024
 20
6321.546157109297
 30
0.0
 10
3590.719769601194
 20
6321.508253776196
 30
0.0
 10
3590.666729281307
 20
6321.477588851545
 30
0.0
 10
3590.601383831089
 20
6321.457173315412
 30
0.0
 10
3590.524995320568
 20
6321.446396943504
 30
0.0
 10
3590.470473736447
 20
6321.444515893568
 30
0.0
 10
3590.441405149425
 20
6321.44351299784
 30
0.0
  0
SPLINE
  5
85
330
1F
100
AcDbEntity
  8
0
  6
Continuous
 62
     7
370
    25
100
AcDbSpline
210
0.0
220
0.0
230
1.0
 70
     8
 71
     3
 72
    15
 73
    11
 74
     0
 42
0.000000001
 43
0.00000001
 40
0.0
 40
0.0
 40
0.0
 40
0.0
 40
0.1528612850162332
 40
0.2874697277135725
 40
0.4083171843914323
 40
0.5197330343306964
 40
0.6278222855465667
 40
0.7415060099346058
 40
0.8623534666125106
 40
1.0
 40
1.0
 40
1.0
 40
1.0
 10
3590.441405149425
 20
6321.44351299784
 30
0.0
 10
3590.418142228229
 20
6321.444526875384
 30
0.0
 10
3590.374394161994
 20
6321.446433565503
 30
0.0
 10
3590.312806252809
 20
6321.457197453895
 30
0.0
 10
3590.260609027746
 20
6321.478305962031
 30
0.0
 10
3590.217448836826
 20
6321.507775613444
 30
0.0
 10
3590.183476026245
 20
6321.546313604767
 30
0.0
 10
3590.160695759225
 20
6321.593771169379
 30
0.0
 10
3590.146195054445
 20
6321.648997399509
 30
0.0
 10
3590.144833090134
 20
6321.688447678607
 30
0.0
 10
3590.144107852127
 20
6321.709454720813
 30
0.0
  0
SPLINE
  5
87
330
1F
100
AcDbEntity
  8
0
  6
Continuous
 62
     7
370
    25
100
AcDbSpline
210
0.0
220
0.0
230
1.0
 70
     8
 71
     3
 72
    15
 73
    11
 74
     0
 42
0.000000001
 43
0.00000001
 40
0.0
 40
0.0
 40
0.0
 40
0.0
 40
0.1376465333874938
 40
0.2584939900654024
 40
0.3721777144533581
 40
0.4802669656692319
 40
0.591682815608555
 40
0.7125302722864186
 40
0.847138714983762
 40
1.0
 40
1.0
 40
1.0
 40
1.0
 10
3590.144107852127
 20
6326.677571274868
 30
0.0
 10
3590.144833090133
 20
6326.698578317072
 30
0.0
 10
3590.146195054445
 20
6326.738028596172
 30
0.0
 10
3590.160695759225
 20
6326.793254826301
 30
0.0
 10
3590.183476026245
 20
6326.840712390913
 30
0.0
 10
3590.217448836826
 20
6326.879250382236
 30
0.0
 10
3590.260609027746
 20
6326.908720033648
 30
0.0
 10
3590.312806252809
 20
6326.929828541786
 30
0.0
 10
3590.374394161994
 20
6326.940592430176
 30
0.0
 10
3590.418142228229
 20
6326.942499120296
 30
0.0
 10
3590.441405149425
 20
6326.94351299784
 30
0.0
  0
SPLINE
  5
88
330
1F
100
AcDbEntity
  8
0
  6
Continuous
 62
     7
370
    25
100
AcDbSpline
210
0.0
220
0.0
230
1.0
 70
     8
 71
     3
 72
    15
 73
    11
 74
     0
 42
0.000000001
 43
0.00000001
 40
0.0
 40
0.0
 40
0.0
 40
0.0
 40
0.1687372826956
 40
0.3164867953631126
 40
0.4465009315751127
 40
0.5610794434177758
 40
0.6676231321872454
 40
0.7716984773789043
 40
0.8803995195839881
 40
1.0
 40
1.0
 40
1.0
 40
1.0
 10
3590.441405149425
 20
6326.94351299784
 30
0.0
 10
3590.47045953244
 20
6326.942485155918
 30
0.0
 10
3590.52495447526
 20
6326.940557316435
 30
0.0
 10
3590.601516889223
 20
6326.930086367426
 30
0.0
 10
3590.6659550421
 20
6326.908824944297
 30
0.0
 10
3590.72043422328
 20
6326.881475890724
 30
0.0
 10
3590.762347160715
 20
6326.843160992668
 30
0.0
 10
3590.79225856683
 20
6326.79633676986
 30
0.0
 10
3590.810172437985
 20
6326.741137948827
 30
0.0
 10
3590.812045518847
 20
6326.701710246122
 30
0.0
 10
3590.813026771046
 20
6326.68105522757
 30
0.0
  0
SPLINE
  5
8B
330
1F
100
AcDbEntity
  8
0
  6
Continuous
 62
     7
370
    25
100
AcDbSpline
210
0.0
220
0.0
230
1.0
 70
     8
 71
     3
 72
    11
 73
     7
 74
     0
 42
0.000000001
 43
0.00000001
 40
0.0
 40
0.0
 40
0.0
 40
0.0
 40
0.2608513162073688
 40
0.5078905859945275
 40
0.7467957379978968
 40
1.0
 40
1.0
 40
1.0
 40
1.0
 10
3592.567777615641
 20
6326.90518951811
 30
0.0
 10
3592.581385297745
 20
6326.922151836353
 30
0.0
 10
3592.607880136792
 20
6326.95517832009
 30
0.0
 10
3592.658798479519
 20
6326.991969367387
 30
0.0
 10
3592.71702283078
 20
6327.014232509654
 30
0.0
 10
3592.758035322045
 20
6327.016612664787
 30
0.0
 10
3592.779137412938
 20
6327.017837322164
 30
0.0
  0
SPLINE
  5
8C
330
1F
100
AcDbEntity
  8
0
  6
Continuous
 62
     7
370
    25
100
AcDbSpline
210
0.0
220
0.0
230
1.0
 70
     8
 71
     3
 72
    15
 73
    11
 74
     0
 42
0.000000001
 43
0.00000001
 40
0.0
 40
0.0
 40
0.0
 40
0.0
 40
0.1540252339659297
 40
0.2977651209541533
 40
0.4351151610673477
 40
0.5718982006584087
 40
0.701017109918424
 40
0.8114907083375397
 40
0.9104177519505894
 40
0.9999999999999999
 40
0.9999999999999999
 40
0.9999999999999999
 40
0.9999999999999999
 10
3592.779137412938
 20
6327.017837322164
 30
0.0
 10
3592.804002570017
 20
6327.016770276978
 30
0.0
 10
3592.852072462948
 20
6327.014707440709
 30
0.0
 10
3592.920834734236
 20
6326.997463981208
 30
0.0
 10
3592.981037147134
 20
6326.966123904356
 30
0.0
 10
3593.032842779767
 20
6326.926125832513
 30
0.0
 10
3593.073050333421
 20
6326.880261631559
 30
0.0
 10
3593.10468889365
 20
6326.835742869587
 30
0.0
 10
3593.12513384257
 20
6326.791106194766
 30
0.0
 10
3593.127547159071
 20
6326.76059049707
 30
0.0
 10
3593.128694000775
 20
6326.746089011353
 30
0.0
  0
SPLINE
  5
8D
330
1F
100
AcDbEntity
  8
0
  6
Continuous
 62
     7
370
    25
100
AcDbSpline
210
0.0
220
0.0
230
1.0
 70
     8
 71
     3
 72
     9
 73
     5
 74
     0
 42
0.000000001
 43
0.00000001
 40
0.0
 40
0.0
 40
0.0
 40
0.0
 40
0.4684792731681853
 40
1.0
 40
1.0
 40
1.0
 40
1.0
 10
3593.128694000775
 20
6326.746089011353
 30
0.0
 10
3593.126075794796
 20
6326.723410962718
 30
0.0
 10
3593.120487060929
 20
6326.675003167678
 30
0.0
 10
3593.092481541725
 20
6326.634974744979
 30
0.0
 10
3593.077596027803
 20
6326.61369880865
 30
0.0
  0
SPLINE
  5
90
330
1F
100
AcDbEntity
  8
0
  6
Continuous
 62
     7
370
    25
100
AcDbSpline
210
0.0
220
0.0
230
1.0
 70
     8
 71
     3
 72
     9
 73
     5
 74
     0
 42
0.000000001
 43
0.00000001
 40
0.0
 40
0.0
 40
0.0
 40
0.0
 40
0.5715244711947975
 40
1.0
 40
1.0
 40
1.0
 40
1.0
 10
3593.091531838613
 20
6321.822102524867
 30
0.0
 10
3593.100951226602
 20
6321.80037195144
 30
0.0
 10
3593.117432389637
 20
6321.762349828991
 30
0.0
 10
3593.122064139173
 20
6321.721255883151
 30
0.0
 10
3593.124048730505
 20
6321.703648132975
 30
0.0
  0
SPLINE
  5
91
330
1F
100
AcDbEntity
  8
0
  6
Continuous
 62
     7
370
    25
100
AcDbSpline
210
0.0
220
0.0
230
1.0
 70
     8
 71
     3
 72
    15
 73
    11
 74
     0
 42
0.000000001
 43
0.00000001
 40
0.0
 40
0.0
 40
0.0
 40
0.0
 40
0.1226177230356827
 40
0.2354791129026428
 40
0.3397384650543922
 40
0.4476334423268421
 40
0.5611761921816946
 40
0.6903366021262403
 40
0.8354274431762272
 40
1.0
 40
1.0
 40
1.0
 40
1.0
 10
3593.124048730505
 20
6321.703648132975
 30
0.0
 10
3593.122928977526
 20
6321.683410706789
 30
0.0
 10
3593.120778567033
 20
6321.644546087156
 30
0.0
 10
3593.104653895533
 20
6321.59019673961
 30
0.0
 10
3593.076696761776
 20
6321.543844512689
 30
0.0
 10
3593.037645065944
 20
6321.50595089846
 30
0.0
 10
3592.986455647778
 20
6321.478089848977
 30
0.0
 10
3592.925737270638
 20
6321.457086537741
 30
0.0
 10
3592.853815119023
 20
6321.446464131664
 30
0.0
 10
3592.80277764579
 20
6321.444537120186
 30
0.0
 10
3592.775653460235
 20
6321.44351299784
 30
0.0
  0
SPLINE
  5
92
330
1F
100
AcDbEntity
  8
0
  6
Continuous
 62
     7
370
    25
100
AcDbSpline
210
0.0
220
0.0
230
1.0
 70
     8
 71
     3
 72
    11
 73
     7
 74
     0
 42
0.000000001
 43
0.00000001
 40
0.0
 40
0.0
 40
0.0
 40
0.0
 40
0.2028584217294079
 40
0.4177658904102448
 40
0.6762772160276737
 40
1.0
 40
1.0
 40
1.0
 40
1.0
 10
3592.775653460235
 20
6321.44351299784
 30
0.0
 10
3592.750082350931
 20
6321.446795356313
 30
0.0
 10
3592.697421302125
 20
6321.453555033325
 30
0.0
 10
3592.628575558994
 20
6321.508514774213
 30
0.0
 10
3592.574233883838
 20
6321.593024223142
 30
0.0
 10
3592.549933230441
 20
6321.661880189673
 30
0.0
 10
3592.536422041316
 20
6321.700164180272
 30
0.0
  0
SPLINE
  5
95
330
1F
100
AcDbEntity
  8
0
  6
Continuous
 62
     7
370
    25
100
AcDbSpline
210
0.0
220
0.0
230
1.0
 70
     8
 71
     3
 72
    15
 73
    11
 74
     0
 42
0.000000001
 43
0.00000001
 40
0.0
 40
0.0
 40
0.0
 40
0.0
 40
0.1210437057283509
 40
0.2311608615819608
 40
0.3345582471448437
 40
0.4404078971911054
 40
0.5564076305372053
 40
0.6855748386379515
 40
0.8323618927655856
 40
0.9999999999999999
 40
0.9999999999999999
 40
0.9999999999999999
 40
0.9999999999999999
 10
3595.168432176451
 20
6321.710616038381
 30
0.0
 10
3595.167433961508
 20
6321.689581673386
 30
0.0
 10
3595.165527639945
 20
6321.649411704152
 30
0.0
 10
3595.147926091022
 20
6321.593342704805
 30
0.0
 10
3595.117814707033
 20
6321.546042079073
 30
0.0
 10
3595.075225317209
 20
6321.508222885215
 30
0.0
 10
3595.022118987672
 20
6321.47759849084
 30
0.0
 10
3594.956794259072
 20
6321.457170231522
 30
0.0
 10
3594.880399184176
 20
6321.446397890176
 30
0.0
 10
3594.82587860569
 20
6321.444516222774
 30
0.0
 10
3594.796810554829
 20
6321.44351299784
 30
0.0
  0
SPLINE
  5
96
330
1F
100
AcDbEntity
  8
0
  6
Continuous
 62
     7
370
    25
100
AcDbSpline
210
0.0
220
0.0
230
1.0
 70
     8
 71
     3
 72
    15
 73
    11
 74
     0
 42
0.000000001
 43
0.00000001
 40
0.0
 40
0.0
 40
0.0
 40
0.0
 40
0.1526075283706368
 40
0.2869925149660325
 40
0.4076393594010201
 40
0.5203370983718375
 40
0.6282469165428355
 40
0.7394778111329557
 40
0.8625819660822871
 40
1.0
 40
1.0
 40
1.0
 40
1.0
 10
3594.796810554829
 20
6321.44351299784
 30
0.0
 10
3594.773541279981
 20
6321.444517588087
 30
0.0
 10
3594.729781265115
 20
6321.446406812588
 30
0.0
 10
3594.668272134465
 20
6321.457285853568
 30
0.0
 10
3594.615609087873
 20
6321.478103561573
 30
0.0
 10
3594.573162001777
 20
6321.509029073653
 30
0.0
 10
3594.53921278079
 20
6321.547207909153
 30
0.0
 10
3594.515587117176
 20
6321.594350107257
 30
0.0
 10
3594.501806981283
 20
6321.649840188968
 30
0.0
 10
3594.500305333805
 20
6321.689628721046
 30
0.0
 10
3594.499513257532
 20
6321.710616038381
 30
0.0
  0
SPLINE
  5
98
330
1F
100
AcDbEntity
  8
0
  6
Continuous
 62
     7
370
    25
100
AcDbSpline
210
0.0
220
0.0
230
1.0
 70
     8
 71
     3
 72
    15
 73
    11
 74
     0
 42
0.000000001
 43
0.00000001
 40
0.0
 40
0.0
 40
0.0
 40
0.0
 40
0.1373554302530982
 40
0.2604035025253785
 40
0.3715837235509715
 40
0.4813661282244146
 40
0.5925463492499676
 40
0.7131382304871943
 40
0.8474619951863277
 40
1.0
 40
1.0
 40
1.0
 40
1.0
 10
3594.499513257532
 20
6326.711249484326
 30
0.0
 10
3594.500314123406
 20
6326.732228386447
 30
0.0
 10
3594.501832434538
 20
6326.772000964653
 30
0.0
 10
3594.515501109579
 20
6326.827597759602
 30
0.0
 10
3594.539632968398
 20
6326.874647221774
 30
0.0
 10
3594.57237063553
 20
6326.914109809657
 30
0.0
 10
3594.616084740072
 20
6326.943504744115
 30
0.0
 10
3594.668189884481
 20
6326.964685045252
 30
0.0
 10
3594.729806156913
 20
6326.975426819523
 30
0.0
 10
3594.773549921189
 20
6326.977336863773
 30
0.0
 10
3594.796810554829
 20
6326.978352524868
 30
0.0
  0
SPLINE
  5
99
330
1F
100
AcDbEntity
  8
0
  6
Continuous
 62
     7
370
    25
100
AcDbSpline
210
0.0
220
0.0
230
1.0
 70
     8
 71
     3
 72
    15
 73
    11
 74
     0
 42
0.000000001
 43
0.00000001
 40
0.0
 40
0.0
 40
0.0
 40
0.0
 40
0.167568003901194
 40
0.3142936742424223
 40
0.4434068668691215
 40
0.5582581848719517
 40
0.6655816592802667
 40
0.768935805859521
 40
0.8790069126387442
 40
1.0
 40
1.0
 40
1.0
 40
1.0
 10
3594.796810554829
 20
6326.978352524868
 30
0.0
 10
3594.825869400941
 20
6326.977334738185
 30
0.0
 10
3594.880372714823
 20
6326.975425758495
 30
0.0
 10
3594.95688048593
 20
6326.964831700517
 30
0.0
 10
3595.021667075857
 20
6326.94389958804
 30
0.0
 10
3595.07598901589
 20
6326.91507868587
 30
0.0
 10
3595.117410651937
 20
6326.875740394307
 30
0.0
 10
3595.147999316983
 20
6326.828609271957
 30
0.0
 10
3595.165506671797
 20
6326.772429062562
 30
0.0
 10
3595.167426755292
 20
6326.732275341319
 30
0.0
 10
3595.168432176451
 20
6326.711249484326
 30
0.0
  0
SPLINE
  5
9B
330
1F
100
AcDbEntity
  8
0
  6
Continuous
 62
     7
370
    25
100
AcDbSpline
210
0.0
220
0.0
230
1.0
 70
     8
 71
     3
 72
    15
 73
    11
 74
     0
 42
0.000000001
 43
0.00000001
 40
0.0
 40
0.0
 40
0.0
 40
0.0
 40
0.167862809216294
 40
0.3148466165912708
 40
0.444186960312151
 40
0.5592403382441572
 40
0.6652318690748006
 40
0.7706563435097213
 40
0.8787940473875386
 40
1.0
 40
1.0
 40
1.0
 40
1.0
 10
3594.796810554829
 20
6328.132702187029
 30
0.0
 10
3594.825872329985
 20
6328.131687220414
 30
0.0
 10
3594.880381137639
 20
6328.129783530097
 30
0.0
 10
3594.956853047673
 20
6328.119154945278
 30
0.0
 10
3595.021752521648
 20
6328.098331516931
 30
0.0
 10
3595.075482297609
 20
6328.069291049695
 30
0.0
 10
3595.118211669355
 20
6328.031150179464
 30
0.0
 10
3595.147329006521
 20
6327.983359442117
 30
0.0
 10
3595.165765420093
 20
6327.927677687618
 30
0.0
 10
3595.167510119383
 20
6327.887823189332
 30
0.0
 10
3595.168432176451
 20
6327.866760464057
 30
0.0
  0
SPLINE
  5
9C
330
1F
100
AcDbEntity
  8
0
  6
Continuous
 62
     7
370
    25
100
AcDbSpline
210
0.0
220
0.0
230
1.0
 70
     8
 71
     3
 72
    15
 73
    11
 74
     0
 42
0.000000001
 43
0.00000001
 40
0.0
 40
0.0
 40
0.0
 40
0.0
 40
0.1226673979138255
 40
0.2322494730060126
 40
0.3370212333529644
 40
0.4438678834493358
 40
0.5582089319051416
 40
0.6867484913209431
 40
0.8331764790611281
 40
1.0
 40
1.0
 40
1.0
 40
1.0
 10
3595.168432176451
 20
6327.866760464057
 30
0.0
 10
3595.167484142376
 20
6327.845329077255
 30
0.0
 10
3595.165689204047
 20
6327.804752458081
 30
0.0
 10
3595.147674278695
 20
6327.748064592166
 30
0.0
 10
3595.117826137345
 20
6327.700061481838
 30
0.0
 10
3595.075935294919
 20
6327.66065859825
 30
0.0
 10
3595.021695586552
 20
6327.631699647871
 30
0.0
 10
3594.956759481952
 20
6327.611191277368
 30
0.0
 10
3594.880509067208
 20
6327.598649737291
 30
0.0
 10
3594.825895342979
 20
6327.597033960253
 30
0.0
 10
3594.796810554829
 20
6327.596173470813
 30
0.0
  0
SPLINE
  5
9D
330
1F
100
AcDbEntity
  8
0
  6
Continuous
 62
     7
370
    25
100
AcDbSpline
210
0.0
220
0.0
230
1.0
 70
     8
 71
     3
 72
    15
 73
    11
 74
     0
 42
0.000000001
 43
0.00000001
 40
0.0
 40
0.0
 40
0.0
 40
0.0
 40
0.1517345703398943
 40
0.2858502498746784
 40
0.4058069603899457
 40
0.5164015829446462
 40
0.6256057515998075
 40
0.7384515324842623
 40
0.8608514970058463
 40
1.0
 40
1.0
 40
1.0
 40
1.0
 10
3594.796810554829
 20
6327.596173470813
 30
0.0
 10
3594.773518689463
 20
6327.597036509939
 30
0.0
 10
3594.729639529163
 20
6327.59866237509
 30
0.0
 10
3594.668336781595
 20
6327.611330166143
 30
0.0
 10
3594.616056692637
 20
6327.632094162105
 30
0.0
 10
3594.572413310653
 20
6327.661617658843
 30
0.0
 10
3594.539264994173
 20
6327.70123181613
 30
0.0
 10
3594.515797157288
 20
6327.749019607039
 30
0.0
 10
3594.501675245167
 20
6327.805194468659
 30
0.0
 10
3594.500264042701
 20
6327.845380676523
 30
0.0
 10
3594.499513257532
 20
6327.866760464057
 30
0.0
  0
SPLINE
  5
9E
330
1F
100
AcDbEntity
  8
0
  6
Continuous
 62
     7
370
    25
100
AcDbSpline
210
0.0
220
0.0
230
1.0
 70
     8
 71
     3
 72
    15
 73
    11
 74
     0
 42
0.000000001
 43
0.00000001
 40
0.0
 40
0.0
 40
0.0
 40
0.0
 40
0.1376465333874938
 40
0.2584939900654024
 40
0.3721777144533581
 40
0.4802669656692319
 40
0.591682815608555
 40
0.7125302722864186
 40
0.847138714983762
 40
1.0
 40
1.0
 40
1.0
 40
1.0
 10
3594.499513257532
 20
6327.866760464057
 30
0.0
 10
3594.500238495539
 20
6327.887767506261
 30
0.0
 10
3594.501600459851
 20
6327.92721778536
 30
0.0
 10
3594.516101164631
 20
6327.98244401549
 30
0.0
 10
3594.538881431651
 20
6328.029901580102
 30
0.0
 10
3594.572854242232
 20
6328.068439571424
 30
0.0
 10
3594.616014433152
 20
6328.097909222837
 30
0.0
 10
3594.668211658214
 20
6328.119017730975
 30
0.0
 10
3594.729799567399
 20
6328.129781619366
 30
0.0
 10
3594.773547633635
 20
6328.131688309485
 30
0.0
 10
3594.796810554829
 20
6328.132702187029
 30
0.0
  0
SPLINE
  5
9F
330
1F
100
AcDbEntity
  8
0
  6
Continuous
 62
     7
370
    25
100
AcDbSpline
210
0.0
220
0.0
230
1.0
 70
     8
 71
     3
 72
    15
 73
    11
 74
     0
 42
0.000000001
 43
0.00000001
 40
0.0
 40
0.0
 40
0.0
 40
0.0
 40
0.1274086638640703
 40
0.2492093999587706
 40
0.3720839042325276
 40
0.4997357737771653
 40
0.6273876433217869
 40
0.7507906000412418
 40
0.8725913361359278
 40
1.0
 40
1.0
 40
1.0
 40
1.0
 10
3598.183677108884
 20
6322.038107592434
 30
0.0
 10
3598.228441293508
 20
6322.040617276087
 30
0.0
 10
3598.315999354723
 20
6322.045526178966
 30
0.0
 10
3598.44249558292
 20
6322.08281874178
 30
0.0
 10
3598.558007518561
 20
6322.14575332454
 30
0.0
 10
3598.660349836078
 20
6322.23155821892
 30
0.0
 10
3598.745894274131
 20
6322.33416806996
 30
0.0
 10
3598.810459994779
 20
6322.449026671349
 30
0.0
 10
3598.847420036659
 20
6322.575908303086
 30
0.0
 10
3598.8523819021
 20
6322.663438096335
 30
0.0
 10
3598.854918662938
 20
6322.708187828921
 30
0.0
  0
SPLINE
  5
A1
330
1F
100
AcDbEntity
  8
0
  6
Continuous
 62
     7
370
    25
100
AcDbSpline
210
0.0
220
0.0
230
1.0
 70
     8
 71
     3
 72
    15
 73
    11
 74
     0
 42
0.000000001
 43
0.00000001
 40
0.0
 40
0.0
 40
0.0
 40
0.0
 40
0.1276684251884593
 40
0.2497174891406464
 40
0.3724052965255798
 40
0.499469631743448
 40
0.627381758461246
 40
0.7490098240592443
 40
0.8724320578182829
 40
1.0
 40
1.0
 40
1.0
 40
1.0
 10
3598.854918662938
 20
6323.452592389732
 30
0.0
 10
3598.852369522461
 20
6323.497337135614
 30
0.0
 10
3598.847383442637
 20
6323.584857174942
 30
0.0
 10
3598.810694885592
 20
6323.711481091389
 30
0.0
 10
3598.745877805809
 20
6323.82555819426
 30
0.0
 10
3598.65993249464
 20
6323.926871303864
 30
0.0
 10
3598.558581821694
 20
6324.01269490226
 30
0.0
 10
3598.442549936829
 20
6324.074354318114
 30
0.0
 10
3598.316635096502
 20
6324.113462476808
 30
0.0
 10
3598.228481792934
 20
6324.117259038156
 30
0.0
 10
3598.183677108884
 20
6324.119188673516
 30
0.0
  0
SPLINE
  5
A5
330
1F
100
AcDbEntity
  8
0
  6
Continuous
 62
     7
370
    25
100
AcDbSpline
210
0.0
220
0.0
230
1.0
 70
     8
 71
     3
 72
    15
 73
    11
 74
     0
 42
0.000000001
 43
0.00000001
 40
0.0
 40
0.0
 40
0.0
 40
0.0
 40
0.1276284167036375
 40
0.2508071631833419
 40
0.374283648780193
 40
0.5036065028316304
 40
0.632787310711476
 40
0.7548054560999303
 40
0.8757928466041792
 40
0.9999999999999999
 40
0.9999999999999999
 40
0.9999999999999999
 40
0.9999999999999999
 10
3597.979285216992
 20
6324.71378326811
 30
0.0
 10
3598.022536036783
 20
6324.715789398317
 30
0.0
 10
3598.107529768566
 20
6324.719731716486
 30
0.0
 10
3598.229490634896
 20
6324.757857456468
 30
0.0
 10
3598.342307362047
 20
6324.817976516222
 30
0.0
 10
3598.441593142196
 20
6324.901747235055
 30
0.0
 10
3598.526012949962
 20
6324.999672534225
 30
0.0
 10
3598.588084785484
 20
6325.110001622206
 30
0.0
 10
3598.6258022754
 20
6325.229692822698
 30
0.0
 10
3598.629880036123
 20
6325.312754411134
 30
0.0
 10
3598.631945689965
 20
6325.354830565408
 30
0.0
  0
SPLINE
  5
A7
330
1F
100
AcDbEntity
  8
0
  6
Continuous
 62
     7
370
    25
100
AcDbSpline
210
0.0
220
0.0
230
1.0
 70
     8
 71
     3
 72
    15
 73
    11
 74
     0
 42
0.000000001
 43
0.00000001
 40
0.0
 40
0.0
 40
0.0
 40
0.0
 40
0.1245304651428718
 40
0.2458327863376676
 40
0.3671677054605089
 40
0.4958115956037876
 40
0.6247420892948293
 40
0.7485399847073085
 40
0.8720393659864566
 40
1.0
 40
1.0
 40
1.0
 40
1.0
 10
3598.631945689965
 20
6325.711355058651
 30
0.0
 10
3598.629866393622
 20
6325.753424185096
 30
0.0
 10
3598.625761701546
 20
6325.836471900057
 30
0.0
 10
3598.588344734724
 20
6325.955939721933
 30
0.0
 10
3598.525918629978
 20
6326.065366332347
 30
0.0
 10
3598.441593624631
 20
6326.16224002
 30
0.0
 10
3598.341937973941
 20
6326.244648236966
 30
0.0
 10
3598.229530111533
 20
6326.304894647533
 30
0.0
 10
3598.107519492737
 20
6326.342956827174
 30
0.0
 10
3598.022532571232
 20
6326.346907845688
 30
0.0
 10
3597.979285216992
 20
6326.348918403245
 30
0.0
  0
SPLINE
  5
AB
330
1F
100
AcDbEntity
  8
0
  6
Continuous
 62
     7
370
    25
100
AcDbSpline
210
0.0
220
0.0
230
1.0
 70
     8
 71
     3
 72
    15
 73
    11
 74
     0
 42
0.000000001
 43
0.00000001
 40
0.0
 40
0.0
 40
0.0
 40
0.0
 40
0.1472985846902878
 40
0.2756504930886866
 40
0.3928141444239134
 40
0.5033990299456528
 40
0.6118667949945528
 40
0.7290304463298729
 40
0.8553653506994987
 40
1.0
 40
1.0
 40
1.0
 40
1.0
 10
3596.821451602127
 20
6321.44351299784
 30
0.0
 10
3596.800119759976
 20
6321.444508365882
 30
0.0
 10
3596.760199941196
 20
6321.446371070076
 30
0.0
 10
3596.703926572549
 20
6321.457305663876
 30
0.0
 10
3596.656486591668
 20
6321.478651284725
 30
0.0
 10
3596.616907484678
 20
6321.507894704691
 30
0.0
 10
3596.586740129551
 20
6321.546950268176
 30
0.0
 10
3596.566416525462
 20
6321.594113663673
 30
0.0
 10
3596.553218264758
 20
6321.649140648116
 30
0.0
 10
3596.55168370597
 20
6321.688464786905
 30
0.0
 10
3596.550864608884
 20
6321.709454720813
 30
0.0
  0
SPLINE
  5
AD
330
1F
100
AcDbEntity
  8
0
  6
Continuous
 62
     7
370
    25
100
AcDbSpline
210
0.0
220
0.0
230
1.0
 70
     8
 71
     3
 72
    15
 73
    11
 74
     0
 42
0.000000001
 43
0.00000001
 40
0.0
 40
0.0
 40
0.0
 40
0.0
 40
0.1451733701004103
 40
0.2713822329809678
 40
0.3889822838668963
 40
0.4995248231294115
 40
0.6083965981540584
 40
0.725996649039966
 40
0.8548266298995897
 40
1.0
 40
1.0
 40
1.0
 40
1.0
 10
3596.550864608884
 20
6326.677571274868
 30
0.0
 10
3596.551826651913
 20
6326.698534537597
 30
0.0
 10
3596.553625062913
 20
6326.737722558417
 30
0.0
 10
3596.565014052421
 20
6326.792997434154
 30
0.0
 10
3596.58546079871
 20
6326.840543181913
 30
0.0
 10
3596.616908792143
 20
6326.878344017892
 30
0.0
 10
3596.655354183705
 20
6326.908801377233
 30
0.0
 10
3596.702842009489
 20
6326.929630594872
 30
0.0
 10
3596.75863451634
 20
6326.940602013838
 30
0.0
 10
3596.798177938864
 20
6326.942504837471
 30
0.0
 10
3596.819128966992
 20
6326.94351299784
 30
0.0
  0
SPLINE
  5
AF
330
1F
100
AcDbEntity
  8
0
  6
Continuous
 62
     7
370
    25
100
AcDbSpline
210
0.0
220
0.0
230
1.0
 70
     8
 71
     3
 72
    23
 73
    19
 74
     0
 42
0.000000001
 43
0.00000001
 40
0.0
 40
0.0
 40
0.0
 40
0.0
 40
0.0699971325042253
 40
0.1369889410780269
 40
0.2025818669322398
 40
0.2663268833207318
 40
0.3299959998499121
 40
0.393196874688303
 40
0.4576209660458723
 40
0.5225816115471971
 40
0.5870057029047572
 40
0.6493260697673596
 40
0.7088254174031478
 40
0.7677033068043776
 40
0.8250025883224703
 40
0.8828865868295699
 40
0.940570350960133
 40
1.0
 40
1.0
 40
1.0
 40
1.0
 10
3597.986253122398
 20
6326.94351299784
 30
0.0
 10
3598.032385799796
 20
6326.942496312532
 30
0.0
 10
3598.122670450035
 20
6326.940506593257
 30
0.0
 10
3598.255045279273
 20
6326.921951077626
 30
0.0
 10
3598.381707424418
 20
6326.895057514854
 30
0.0
 10
3598.502528893315
 20
6326.854755794246
 30
0.0
 10
3598.617679317396
 20
6326.804136897736
 30
0.0
 10
3598.726572824336
 20
6326.740284413617
 30
0.0
 10
3598.829891754944
 20
6326.666330136412
 30
0.0
 10
3598.925435447142
 20
6326.581397209065
 30
0.0
 10
3599.013463281653
 20
6326.490676813652
 30
0.0
 10
3599.09004604485
 20
6326.394551427404
 30
0.0
 10
3599.154706123044
 20
6326.294440416772
 30
0.0
 10
3599.208457085304
 20
6326.191701240291
 30
0.0
 10
3599.249217604211
 20
6326.084305905641
 30
0.0
 10
3599.279772666112
 20
6325.974441121706
 30
0.0
 10
3599.297607300071
 20
6325.86019813284
 30
0.0
 10
3599.299768101793
 20
6325.783030805621
 30
0.0
 10
3599.300864608883
 20
6325.743871950543
 30
0.0
  0
SPLINE
  5
B1
330
1F
100
AcDbEntity
  8
0
  6
Continuous
 62
     7
370
    25
100
AcDbSpline
210
0.0
220
0.0
230
1.0
 70
     8
 71
     3
 72
    15
 73
    11
 74
     0
 42
0.000000001
 43
0.00000001
 40
0.0
 40
0.0
 40
0.0
 40
0.0
 40
0.1326594996416407
 40
0.2606826456506495
 40
0.3835988237724193
 40
0.5044542511718662
 40
0.6251139792614028
 40
0.7464377970801951
 40
0.8714347708675838
 40
1.0
 40
1.0
 40
1.0
 40
1.0
 10
3599.300864608883
 20
6325.369927693786
 30
0.0
 10
3599.299355128261
 20
6325.325739740941
 30
0.0
 10
3599.296388922272
 20
6325.238908172267
 30
0.0
 10
3599.278162703923
 20
6325.112120821542
 30
0.0
 10
3599.245671896469
 20
6324.992200774028
 30
0.0
 10
3599.197989143817
 20
6324.880320542289
 30
0.0
 10
3599.14081023974
 20
6324.773444112671
 30
0.0
 10
3599.066907699745
 20
6324.675676741314
 30
0.0
 10
3598.982825140783
 20
6324.582874196466
 30
0.0
 10
3598.917217204349
 20
6324.529490792104
 30
0.0
 10
3598.883951602127
 20
6324.502423470813
 30
0.0
  0
SPLINE
  5
B2
330
1F
100
AcDbEntity
  8
0
  6
Continuous
 62
     7
370
    25
100
AcDbSpline
210
0.0
220
0.0
230
1.0
 70
     8
 71
     3
 72
    15
 73
    11
 74
     0
 42
0.000000001
 43
0.00000001
 40
0.0
 40
0.0
 40
0.0
 40
0.0
 40
0.1163154394521565
 40
0.2345647128656943
 40
0.3584180389837502
 40
0.4893481039549546
 40
0.6213683425081221
 40
0.7487484467134377
 40
0.8742380891698311
 40
1.0
 40
1.0
 40
1.0
 40
1.0
 10
3598.883951602127
 20
6324.502423470813
 30
0.0
 10
3598.928628217865
 20
6324.479927081451
 30
0.0
 10
3599.018724232563
 20
6324.43456028289
 30
0.0
 10
3599.138986714724
 20
6324.337197974417
 30
0.0
 10
3599.24923222227
 20
6324.220589247104
 30
0.0
 10
3599.343112680669
 20
6324.083112433558
 30
0.0
 10
3599.422888897239
 20
6323.935560594316
 30
0.0
 10
3599.482323644041
 20
6323.780957350571
 30
0.0
 10
3599.516779442002
 20
6323.621342319797
 30
0.0
 10
3599.521483169509
 20
6323.513526581479
 30
0.0
 10
3599.523837581857
 20
6323.459560295137
 30
0.0
  0
SPLINE
  5
B4
330
1F
100
AcDbEntity
  8
0
  6
Continuous
 62
     7
370
    25
100
AcDbSpline
210
0.0
220
0.0
230
1.0
 70
     8
 71
     3
 72
    23
 73
    19
 74
     0
 42
0.000000001
 43
0.00000001
 40
0.0
 40
0.0
 40
0.0
 40
0.0
 40
0.0573718688435185
 40
0.1142717744853549
 40
0.1712775514510571
 40
0.2292072316113898
 40
0.2887537053420817
 40
0.3497535252114249
 40
0.4136630964478203
 40
0.4804032883989323
 40
0.5476011670425165
 40
0.6128875258051872
 40
0.6770090262773645
 40
0.7404371873975993
 40
0.8035874726883392
 40
0.8673185838669387
 40
0.9327996288997126
 40
1.0
 40
1.0
 40
1.0
 40
1.0
 10
3599.523837581857
 20
6322.682638842434
 30
0.0
 10
3599.522843956871
 20
6322.64423267293
 30
0.0
 10
3599.520864880843
 20
6322.56773627794
 30
0.0
 10
3599.501096192334
 20
6322.454553860839
 30
0.0
 10
3599.471236605893
 20
6322.343401565927
 30
0.0
 10
3599.427701622253
 20
6322.234833902579
 30
0.0
 10
3599.371810818497
 20
6322.129110271832
 30
0.0
 10
3599.303247025842
 20
6322.026377483696
 30
0.0
 10
3599.224666347274
 20
6321.924907045302
 30
0.0
 10
3599.133359601824
 20
6321.828867470667
 30
0.0
 10
3599.034844184829
 20
6321.739001495799
 30
0.0
 10
3598.930132394275
 20
6321.659025353116
 30
0.0
 10
3598.819054245715
 20
6321.593040727448
 30
0.0
 10
3598.703891868475
 20
6321.537730513171
 30
0.0
 10
3598.583348835036
 20
6321.496020323882
 30
0.0
 10
3598.458161518588
 20
6321.465778122739
 30
0.0
 10
3598.327895426313
 20
6321.446442682216
 30
0.0
 10
3598.239101327063
 20
6321.444497959401
 30
0.0
 10
3598.194128966992
 20
6321.44351299784
 30
0.0
  0
SPLINE
  5
B7
330
1F
100
AcDbEntity
  8
0
  6
Continuous
 62
     7
370
    25
100
AcDbSpline
210
0.0
220
0.0
230
1.0
 70
     8
 71
     3
 72
    11
 73
     7
 74
     0
 42
0.000000001
 43
0.00000001
 40
0.0
 40
0.0
 40
0.0
 40
0.0
 40
0.2709176399660747
 40
0.5183552371052353
 40
0.7516456497894596
 40
1.0
 40
1.0
 40
1.0
 40
1.0
 10
3578.926709203479
 20
6326.873833943786
 30
0.0
 10
3578.940341311429
 20
6326.895616168647
 30
0.0
 10
3578.966424052108
 20
6326.937292784218
 30
0.0
 10
3579.021411664858
 20
6326.983735829365
 30
0.0
 10
3579.085128799277
 20
6327.012907650083
 30
0.0
 10
3579.13078524672
 20
6327.016160189296
 30
0.0
 10
3579.154327446722
 20
6327.017837322164
 30
0.0
  0
SPLINE
  5
B8
330
1F
100
AcDbEntity
  8
0
  6
Continuous
 62
     7
370
    25
100
AcDbSpline
210
0.0
220
0.0
230
1.0
 70
     8
 71
     3
 72
    15
 73
    11
 74
     0
 42
0.000000001
 43
0.00000001
 40
0.0
 40
0.0
 40
0.0
 40
0.0
 40
0.1634481711841869
 40
0.3077932699324475
 40
0.4342702607694238
 40
0.5497655524641786
 40
0.6554189183655624
 40
0.7626357660706244
 40
0.8753532093178205
 40
1.0
 40
1.0
 40
1.0
 40
1.0
 10
3579.154327446722
 20
6327.017837322164
 30
0.0
 10
3579.181844123254
 20
6327.016814816313
 30
0.0
 10
3579.233661453399
 20
6327.014889310402
 30
0.0
 10
3579.306288589133
 20
6327.004278568274
 30
0.0
 10
3579.368414742485
 20
6326.983475508832
 30
0.0
 10
3579.419009833883
 20
6326.953140222688
 30
0.0
 10
3579.459537197381
 20
6326.914684001574
 30
0.0
 10
3579.487844679983
 20
6326.866939421695
 30
0.0
 10
3579.504199691424
 20
6326.810608129656
 30
0.0
 10
3579.506277087038
 20
6326.770588449755
 30
0.0
 10
3579.507367987262
 20
6326.749572964056
 30
0.0
  0
SPLINE
  5
B9
330
1F
100
AcDbEntity
  8
0
  6
Continuous
 62
     7
370
    25
100
AcDbSpline
210
0.0
220
0.0
230
1.0
 70
     8
 71
     3
 72
     9
 73
     5
 74
     0
 42
0.000000001
 43
0.00000001
 40
0.0
 40
0.0
 40
0.0
 40
0.0
 40
0.4126719754693718
 40
1.0
 40
1.0
 40
1.0
 40
1.0
 10
3579.507367987262
 20
6326.749572964056
 30
0.0
 10
3579.504325712408
 20
6326.730338852556
 30
0.0
 10
3579.496953574159
 20
6326.683730135118
 30
0.0
 10
3579.474981447735
 20
6326.641805987912
 30
0.0
 10
3579.462076602127
 20
6326.617182761353
 30
0.0
  0
SPLINE
  5
BB
330
1F
100
AcDbEntity
  8
0
  6
Continuous
 62
     7
370
    25
100
AcDbSpline
210
0.0
220
0.0
230
1.0
 70
     8
 71
     3
 72
     9
 73
     5
 74
     0
 42
0.000000001
 43
0.00000001
 40
0.0
 40
0.0
 40
0.0
 40
0.0
 40
0.5921133496330037
 40
1.0
 40
1.0
 40
1.0
 40
1.0
 10
3579.462076602127
 20
6321.843006241083
 30
0.0
 10
3579.474962544223
 20
6321.818380684746
 30
0.0
 10
3579.496725171437
 20
6321.776791424255
 30
0.0
 10
3579.504284598058
 20
6321.73061294228
 30
0.0
 10
3579.507367987262
 20
6321.711777355948
 30
0.0
  0
SPLINE
  5
BC
330
1F
100
AcDbEntity
  8
0
  6
Continuous
 62
     7
370
    25
100
AcDbSpline
210
0.0
220
0.0
230
1.0
 70
     8
 71
     3
 72
    15
 73
    11
 74
     0
 42
0.000000001
 43
0.00000001
 40
0.0
 40
0.0
 40
0.0
 40
0.0
 40
0.1246467906821841
 40
0.2373642339293842
 40
0.3445810816344501
 40
0.4502344475358378
 40
0.5657297392305514
 40
0.6922067300675322
 40
0.836551828815812
 40
1.0
 40
1.0
 40
1.0
 40
1.0
 10
3579.507367987262
 20
6321.711777355948
 30
0.0
 10
3579.506277087038
 20
6321.690761870249
 30
0.0
 10
3579.504199691424
 20
6321.650742190348
 30
0.0
 10
3579.487844679983
 20
6321.594410898309
 30
0.0
 10
3579.459537197381
 20
6321.546666318431
 30
0.0
 10
3579.419009833883
 20
6321.508210097316
 30
0.0
 10
3579.368414742485
 20
6321.477874811173
 30
0.0
 10
3579.306288589133
 20
6321.457071751731
 30
0.0
 10
3579.233661453399
 20
6321.446461009602
 30
0.0
 10
3579.181844123254
 20
6321.444535503691
 30
0.0
 10
3579.154327446722
 20
6321.44351299784
 30
0.0
  0
SPLINE
  5
BD
330
1F
100
AcDbEntity
  8
0
  6
Continuous
 62
     7
370
    25
100
AcDbSpline
210
0.0
220
0.0
230
1.0
 70
     8
 71
     3
 72
    11
 73
     7
 74
     0
 42
0.000000001
 43
0.00000001
 40
0.0
 40
0.0
 40
0.0
 40
0.0
 40
0.2490100682574851
 40
0.4829164263988812
 40
0.7283670692181355
 40
1.0
 40
1.0
 40
1.0
 40
1.0
 10
3579.154327446722
 20
6321.44351299784
 30
0.0
 10
3579.130769419556
 20
6321.445171354228
 30
0.0
 10
3579.085082277781
 20
6321.448387479366
 30
0.0
 10
3579.021818329046
 20
6321.477718554193
 30
0.0
 10
3578.966056658955
 20
6321.522832003609
 30
0.0
 10
3578.940260415594
 20
6321.564477801719
 30
0.0
 10
3578.926709203479
 20
6321.586355058651
 30
0.0
  0
SPLINE
  5
BF
330
1F
100
AcDbEntity
  8
0
  6
Continuous
 62
     7
370
    25
100
AcDbSpline
210
0.0
220
0.0
230
1.0
 70
     8
 71
     3
 72
    11
 73
     7
 74
     0
 42
0.000000001
 43
0.00000001
 40
0.0
 40
0.0
 40
0.0
 40
0.0
 40
0.2296383273386748
 40
0.4615667334324675
 40
0.7108246957630683
 40
1.0
 40
1.0
 40
1.0
 40
1.0
 10
3576.76781984537
 20
6321.585193741083
 30
0.0
 10
3576.753240329092
 20
6321.563437677833
 30
0.0
 10
3576.72393590164
 20
6321.519708587994
 30
0.0
 10
3576.654694350401
 20
6321.475499128836
 30
0.0
 10
3576.571312193315
 20
6321.447825860904
 30
0.0
 10
3576.510272774879
 20
6321.445019958416
 30
0.0
 10
3576.477490453478
 20
6321.44351299784
 30
0.0
  0
SPLINE
  5
C0
330
1F
100
AcDbEntity
  8
0
  6
Continuous
 62
     7
370
    25
100
AcDbSpline
210
0.0
220
0.0
230
1.0
 70
     8
 71
     3
 72
    15
 73
    11
 74
     0
 42
0.000000001
 43
0.00000001
 40
0.0
 40
0.0
 40
0.0
 40
0.0
 40
0.1470997310271217
 40
0.2781312030835302
 40
0.3954522588948925
 40
0.5075976704011221
 40
0.615627386531766
 40
0.7316539878716252
 40
0.8581266717201754
 40
1.0
 40
1.0
 40
1.0
 40
1.0
 10
3576.477490453478
 20
6321.44351299784
 30
0.0
 10
3576.455773423691
 20
6321.444540252411
 30
0.0
 10
3576.414711597268
 20
6321.446482550657
 30
0.0
 10
3576.356925372011
 20
6321.457191449573
 30
0.0
 10
3576.307533137779
 20
6321.478471319732
 30
0.0
 10
3576.267560694124
 20
6321.50907429868
 30
0.0
 10
3576.235864272041
 20
6321.547929038363
 30
0.0
 10
3576.213859386519
 20
6321.59534920162
 30
0.0
 10
3576.201354026321
 20
6321.651143746287
 30
0.0
 10
3576.199666450827
 20
6321.690807374377
 30
0.0
 10
3576.198774237262
 20
6321.711777355948
 30
0.0
  0
SPLINE
  5
C1
330
1F
100
AcDbEntity
  8
0
  6
Continuous
 62
     7
370
    25
100
AcDbSpline
210
0.0
220
0.0
230
1.0
 70
     8
 71
     3
 72
     9
 73
     5
 74
     0
 42
0.000000001
 43
0.00000001
 40
0.0
 40
0.0
 40
0.0
 40
0.0
 40
0.4889243242648297
 40
1.0
 40
1.0
 40
1.0
 40
1.0
 10
3576.198774237262
 20
6321.711777355948
 30
0.0
 10
3576.20063646167
 20
6321.734166713707
 30
0.0
 10
3576.204445280982
 20
6321.779959808154
 30
0.0
 10
3576.223748406415
 20
6321.821682690695
 30
0.0
 10
3576.233613764289
 20
6321.843006241083
 30
0.0
  0
SPLINE
  5
C4
330
1F
100
AcDbEntity
  8
0
  6
Continuous
 62
     7
370
    25
100
AcDbSpline
210
0.0
220
0.0
230
1.0
 70
     8
 71
     3
 72
     9
 73
     5
 74
     0
 42
0.000000001
 43
0.00000001
 40
0.0
 40
0.0
 40
0.0
 40
0.0
 40
0.5068117066792818
 40
1.0
 40
1.0
 40
1.0
 40
1.0
 10
3576.233613764289
 20
6326.617182761353
 30
0.0
 10
3576.223745784521
 20
6326.6385073375
 30
0.0
 10
3576.204275082409
 20
6326.680583271946
 30
0.0
 10
3576.200591122944
 20
6326.726786213945
 30
0.0
 10
3576.198774237262
 20
6326.749572964056
 30
0.0
  0
SPLINE
  5
C5
330
1F
100
AcDbEntity
  8
0
  6
Continuous
 62
     7
370
    25
100
AcDbSpline
210
0.0
220
0.0
230
1.0
 70
     8
 71
     3
 72
    15
 73
    11
 74
     0
 42
0.000000001
 43
0.00000001
 40
0.0
 40
0.0
 40
0.0
 40
0.0
 40
0.1418733282798179
 40
0.268346012128362
 40
0.3843726134682156
 40
0.4924023295988543
 40
0.6045477411051394
 40
0.7218687969164961
 40
0.8529002689728783
 40
1.0
 40
1.0
 40
1.0
 40
1.0
 10
3576.198774237262
 20
6326.749572964056
 30
0.0
 10
3576.199666450827
 20
6326.770542945627
 30
0.0
 10
3576.201354026321
 20
6326.810206573718
 30
0.0
 10
3576.213859386518
 20
6326.866001118385
 30
0.0
 10
3576.235864272041
 20
6326.913421281642
 30
0.0
 10
3576.267560694125
 20
6326.952276021323
 30
0.0
 10
3576.307533137779
 20
6326.982879000273
 30
0.0
 10
3576.356925372011
 20
6327.004158870431
 30
0.0
 10
3576.414711597268
 20
6327.014867769348
 30
0.0
 10
3576.455773423691
 20
6327.016810067594
 30
0.0
 10
3576.477490453478
 20
6327.017837322164
 30
0.0
  0
SPLINE
  5
C6
330
1F
100
AcDbEntity
  8
0
  6
Continuous
 62
     7
370
    25
100
AcDbSpline
210
0.0
220
0.0
230
1.0
 70
     8
 71
     3
 72
    11
 73
     7
 74
     0
 42
0.000000001
 43
0.00000001
 40
0.0
 40
0.0
 40
0.0
 40
0.0
 40
0.2542831801163976
 40
0.4880420108718871
 40
0.7317194604867275
 40
1.0
 40
1.0
 40
1.0
 40
1.0
 10
3576.477490453478
 20
6327.017837322164
 30
0.0
 10
3576.51081643212
 20
6327.01560468187
 30
0.0
 10
3576.574778498441
 20
6327.01131960781
 30
0.0
 10
3576.663684907377
 20
6326.971334760749
 30
0.0
 10
3576.736944629728
 20
6326.904678433149
 30
0.0
 10
3576.770157667889
 20
6326.846339385012
 30
0.0
 10
3576.787562244019
 20
6326.815768065408
 30
0.0
  0
SPLINE
  5
CA
330
1F
100
AcDbEntity
  8
0
  6
Continuous
 62
     7
370
    25
100
AcDbSpline
210
0.0
220
0.0
230
1.0
 70
     8
 71
     3
 72
    15
 73
    11
 74
     0
 42
0.000000001
 43
0.00000001
 40
0.0
 40
0.0
 40
0.0
 40
0.0
 40
0.1237794852667881
 40
0.2354455429371427
 40
0.3406927178488456
 40
0.4462594699380552
 40
0.5620718480007554
 40
0.6894502587040043
 40
0.8339864943265177
 40
1.0
 40
1.0
 40
1.0
 40
1.0
 10
3584.293622210235
 20
6321.70132549784
 30
0.0
 10
3584.292557118696
 20
6321.681069273346
 30
0.0
 10
3584.290531168635
 20
6321.642539158574
 30
0.0
 10
3584.273928131332
 20
6321.588775906237
 30
0.0
 10
3584.246666916185
 20
6321.54301813366
 30
0.0
 10
3584.207573373977
 20
6321.505897875615
 30
0.0
 10
3584.158106619244
 20
6321.476547142445
 30
0.0
 10
3584.097223132106
 20
6321.457930152537
 30
0.0
 10
3584.026730627524
 20
6321.444369875177
 30
0.0
 10
3583.9758895091
 20
6321.443811495912
 30
0.0
 10
3583.948710892668
 20
6321.44351299784
 30
0.0
  0
SPLINE
  5
CB
330
1F
100
AcDbEntity
  8
0
  6
Continuous
 62
     7
370
    25
100
AcDbSpline
210
0.0
220
0.0
230
1.0
 70
     8
 71
     3
 72
    11
 73
     7
 74
     0
 42
0.000000001
 43
0.00000001
 40
0.0
 40
0.0
 40
0.0
 40
0.0
 40
0.2659391874995298
 40
0.500358988593169
 40
0.7349007245721304
 40
0.9999999999999999
 40
0.9999999999999999
 40
0.9999999999999999
 40
0.9999999999999999
 10
3583.948710892668
 20
6321.44351299784
 30
0.0
 10
3583.918020690082
 20
6321.445184744604
 30
0.0
 10
3583.860277719331
 20
6321.448330100984
 30
0.0
 10
3583.783203636968
 20
6321.487254544444
 30
0.0
 10
3583.724447146905
 20
6321.550433750209
 30
0.0
 10
3583.705563133324
 20
6321.605011332749
 30
0.0
 10
3583.695543662937
 20
6321.633969078921
 30
0.0
  0
SPLINE
  5
D2
330
1F
100
AcDbEntity
  8
0
  6
Continuous
 62
     7
370
    25
100
AcDbSpline
210
0.0
220
0.0
230
1.0
 70
     8
 71
     3
 72
    15
 73
    11
 74
     0
 42
0.000000001
 43
0.00000001
 40
0.0
 40
0.0
 40
0.0
 40
0.0
 40
0.1160972656462408
 40
0.2306624149131802
 40
0.3402033629094083
 40
0.4508640089780978
 40
0.5714067874388975
 40
0.7001904132460425
 40
0.8420906465168286
 40
1.0
 40
1.0
 40
1.0
 40
1.0
 10
3581.585429642667
 20
6321.633969078921
 30
0.0
 10
3581.580622539903
 20
6321.618993998182
 30
0.0
 10
3581.571071772913
 20
6321.589241460365
 30
0.0
 10
3581.546289575859
 20
6321.549989022809
 30
0.0
 10
3581.51538685345
 20
6321.516764778235
 30
0.0
 10
3581.47829863146
 20
6321.488959134608
 30
0.0
 10
3581.433774985131
 20
6321.468836705109
 30
0.0
 10
3581.383132941595
 20
6321.45318394364
 30
0.0
 10
3581.325491807791
 20
6321.445951139392
 30
0.0
 10
3581.285046940203
 20
6321.444354137067
 30
0.0
 10
3581.263744676452
 20
6321.44351299784
 30
0.0
  0
SPLINE
  5
D3
330
1F
100
AcDbEntity
  8
0
  6
Continuous
 62
     7
370
    25
100
AcDbSpline
210
0.0
220
0.0
230
1.0
 70
     8
 71
     3
 72
    15
 73
    11
 74
     0
 42
0.000000001
 43
0.00000001
 40
0.0
 40
0.0
 40
0.0
 40
0.0
 40
0.1494489483193037
 40
0.2804162969478659
 40
0.3983399851957252
 40
0.5106686208066925
 40
0.618721580324649
 40
0.7328059652650295
 40
0.8584957359315627
 40
1.0
 40
1.0
 40
1.0
 40
1.0
 10
3581.263744676452
 20
6321.44351299784
 30
0.0
 10
3581.242352614559
 20
6321.443817836738
 30
0.0
 10
3581.202213939464
 20
6321.444389816643
 30
0.0
 10
3581.14671466741
 20
6321.458052512332
 30
0.0
 10
3581.098446841821
 20
6321.477106807625
 30
0.0
 10
3581.059617651429
 20
6321.506782332576
 30
0.0
 10
3581.029332822007
 20
6321.544237638559
 30
0.0
 10
3581.008441272038
 20
6321.589710474565
 30
0.0
 10
3580.995649093564
 20
6321.642959286101
 30
0.0
 10
3580.994020288191
 20
6321.681117271227
 30
0.0
 10
3580.993157683208
 20
6321.70132549784
 30
0.0
  0
SPLINE
  5
D4
330
1F
100
AcDbEntity
  8
0
  6
Continuous
 62
     7
370
    25
100
AcDbSpline
210
0.0
220
0.0
230
1.0
 70
     8
 71
     3
 72
     9
 73
     5
 74
     0
 42
0.000000001
 43
0.00000001
 40
0.0
 40
0.0
 40
0.0
 40
0.0
 40
0.4666082467568641
 40
1.0
 40
1.0
 40
1.0
 40
1.0
 10
3580.993157683208
 20
6321.70132549784
 30
0.0
 10
3580.993638487675
 20
6321.71336029603
 30
0.0
 10
3580.994668911956
 20
6321.73915237809
 30
0.0
 10
3580.999742182877
 20
6321.764468856497
 30
0.0
 10
3581.002448223748
 20
6321.777972457299
 30
0.0
  0
SPLINE
  5
D6
330
1F
100
AcDbEntity
  8
0
  6
Continuous
 62
     7
370
    25
100
AcDbSpline
210
0.0
220
0.0
230
1.0
 70
     8
 71
     3
 72
    11
 73
     7
 74
     0
 42
0.000000001
 43
0.00000001
 40
0.0
 40
0.0
 40
0.0
 40
0.0
 40
0.2872048350150132
 40
0.5292209857218985
 40
0.7570217140401848
 40
1.0
 40
1.0
 40
1.0
 40
1.0
 10
3582.349576602127
 20
6326.715894754597
 30
0.0
 10
3582.36026893395
 20
6326.750162505507
 30
0.0
 10
3582.379971270741
 20
6326.813306334247
 30
0.0
 10
3582.438493128091
 20
6326.889399607691
 30
0.0
 10
3582.516759080627
 20
6326.936919285112
 30
0.0
 10
3582.575770719783
 20
6326.941268356677
 30
0.0
 10
3582.606227784559
 20
6326.94351299784
 30
0.0
  0
SPLINE
  5
D7
330
1F
100
AcDbEntity
  8
0
  6
Continuous
 62
     7
370
    25
100
AcDbSpline
210
0.0
220
0.0
230
1.0
 70
     8
 71
     3
 72
    15
 73
    11
 74
     0
 42
0.000000001
 43
0.00000001
 40
0.0
 40
0.0
 40
0.0
 40
0.0
 40
0.1449966807026331
 40
0.2785627095269159
 40
0.4015672591726583
 40
0.5179666754587969
 40
0.6339949980810922
 40
0.7483070616182492
 40
0.8694272750724695
 40
1.0
 40
1.0
 40
1.0
 40
1.0
 10
3582.606227784559
 20
6326.94351299784
 30
0.0
 10
3582.627160431523
 20
6326.942853159267
 30
0.0
 10
3582.667375523536
 20
6326.941585499759
 30
0.0
 10
3582.724886546358
 20
6326.931753490445
 30
0.0
 10
3582.775321575147
 20
6326.912335035985
 30
0.0
 10
3582.82094082299
 20
6326.888233571645
 30
0.0
 10
3582.859030776287
 20
6326.855204488175
 30
0.0
 10
3582.89171244765
 20
6326.816016262126
 30
0.0
 10
3582.915920409705
 20
6326.7685637956
 30
0.0
 10
3582.926875014546
 20
6326.733885227881
 30
0.0
 10
3582.932558021046
 20
6326.715894754597
 30
0.0
  0
SPLINE
  5
D9
330
1F
100
AcDbEntity
  8
0
  6
Continuous
 62
     7
370
    25
100
AcDbSpline
210
0.0
220
0.0
230
1.0
 70
     8
 71
     3
 72
     9
 73
     5
 74
     0
 42
0.000000001
 43
0.00000001
 40
0.0
 40
0.0
 40
0.0
 40
0.0
 40
0.5188677278482057
 40
1.0
 40
1.0
 40
1.0
 40
1.0
 10
3584.278525081857
 20
6321.777972457299
 30
0.0
 10
3584.281883830561
 20
6321.764862054246
 30
0.0
 10
3584.288357057789
 20
6321.739594722419
 30
0.0
 10
3584.291911873618
 20
6321.713756905433
 30
0.0
 10
3584.293622210235
 20
6321.70132549784
 30
0.0
  0
CIRCLE
  5
DA
330
1F
100
AcDbEntity
  8
0
  6
Continuous
 62
     7
370
    25
100
AcDbCircle
 10
3575.372047867
 20
6329.8420800219
 30
0.0
 40
1.5
  0
CIRCLE
  5
DB
330
1F
100
AcDbEntity
  8
0
  6
Continuous
 62
     7
370
    25
100
AcDbCircle
 10
3575.372047867
 20
6329.8420800219
 30
0.0
 40
0.75
  0
SPLINE
  5
155
330
1F
100
AcDbEntity
  8
0
  6
Continuous
 62
     7
370
    25
100
AcDbSpline
210
0.0
220
0.0
230
1.0
 70
     8
 71
     3
 72
     8
 73
     4
 74
     0
 42
0.000000001
 43
0.00000001
 40
0.0725806451612903
 40
0.0725806451612903
 40
0.0725806451612903
 40
0.0725806451612903
 40
0.0766129032258065
 40
0.0766129032258065
 40
0.0766129032258065
 40
0.0766129032258065
 10
3554.241327934402
 20
6342.299171240029
 30
0.0
 10
3554.241327934402
 20
6343.099271240028
 30
0.0
 10
3554.522675267736
 20
6343.521207573363
 30
0.0
 10
3555.085369934403
 20
6343.564980240028
 30
0.0
  0
SPLINE
  5
156
330
1F
100
AcDbEntity
  8
0
  6
Continuous
 62
     7
370
    25
100
AcDbSpline
210
0.0
220
0.0
230
1.0
 70
     8
 71
     3
 72
     8
 73
     4
 74
     0
 42
0.000000001
 43
0.00000001
 40
0.0766129032258065
 40
0.0766129032258065
 40
0.0766129032258065
 40
0.0766129032258065
 40
0.0806451612903226
 40
0.0806451612903226
 40
0.0806451612903226
 40
0.0806451612903226
 10
3555.085369934403
 20
6343.564980240028
 30
0.0
 10
3555.66965460107
 20
6343.629580906694
 30
0.0
 10
3555.983513934403
 20
6343.629580906696
 30
0.0
 10
3556.026947934402
 20
6343.564980240028
 30
0.0
  0
SPLINE
  5
1D0
330
1F
100
AcDbEntity
  8
0
  6
Continuous
 62
     7
370
    25
100
AcDbSpline
210
0.0
220
0.0
230
1.0
 70
     8
 71
     3
 72
     8
 73
     4
 74
     0
 42
0.000000001
 43
0.00000001
 40
0.5685483870967742
 40
0.5685483870967742
 40
0.5685483870967742
 40
0.5685483870967742
 40
0.5725806451612904
 40
0.5725806451612904
 40
0.5725806451612904
 40
0.5725806451612904
 10
3594.930095934403
 20
6270.624562240029
 30
0.0
 10
3595.687862601069
 20
6269.370140906695
 30
0.0
 10
3596.034233934402
 20
6268.710206573362
 30
0.0
 10
3595.969209934402
 20
6268.644759240029
 30
0.0
  0
SPLINE
  5
1D1
330
1F
100
AcDbEntity
  8
0
  6
Continuous
 62
     7
370
    25
100
AcDbSpline
210
0.0
220
0.0
230
1.0
 70
     8
 71
     3
 72
     8
 73
     4
 74
     0
 42
0.000000001
 43
0.00000001
 40
0.5725806451612904
 40
0.5725806451612904
 40
0.5725806451612904
 40
0.5725806451612904
 40
0.5766129032258065
 40
0.5766129032258065
 40
0.5766129032258065
 40
0.5766129032258065
 10
3595.969209934402
 20
6268.644759240029
 30
0.0
 10
3595.903847267736
 20
6268.602002573363
 30
0.0
 10
3595.644089934402
 20
6268.407311573363
 30
0.0
 10
3595.189937934402
 20
6268.060686240029
 30
0.0
  0
LINE
  5
1D2
330
1F
100
AcDbEntity
  8
0
  6
Continuous
 62
     7
370
    25
100
AcDbLine
 10
3588.0927565008
 20
6324.9820476262
 30
0.0
 11
3588.0927565008
 21
6325.7055484708
 31
0.0
  0
LINE
  5
1D3
330
1F
100
AcDbEntity
  8
0
  6
Continuous
 62
     7
370
    25
100
AcDbLine
 10
3587.4215149467
 20
6326.3489184032
 30
0.0
 11
3586.4576213656
 21
6326.3489184032
 31
0.0
  0
LINE
  5
1D4
330
1F
100
AcDbEntity
  8
0
  6
Continuous
 62
     7
370
    25
100
AcDbLine
 10
3586.4576213656
 20
6326.3489184032
 30
0.0
 11
3586.4576213656
 21
6324.3421616465
 31
0.0
  0
LINE
  5
1D5
330
1F
100
AcDbEntity
  8
0
  6
Continuous
 62
     7
370
    25
100
AcDbLine
 10
3586.4576213656
 20
6324.3421616465
 30
0.0
 11
3587.4215149467
 21
6324.3421616465
 31
0.0
  0
LINE
  5
1D6
330
1F
100
AcDbEntity
  8
0
  6
Continuous
 62
     7
370
    25
100
AcDbLine
 10
3586.4576213656
 20
6323.7475670519
 30
0.0
 11
3586.4576213656
 21
6321.7094547208
 31
0.0
  0
LINE
  5
1D7
330
1F
100
AcDbEntity
  8
0
  6
Continuous
 62
     7
370
    25
100
AcDbLine
 10
3585.7887024467
 20
6321.7094547208
 30
0.0
 11
3585.7887024467
 21
6326.6775712749
 31
0.0
  0
LINE
  5
1D8
330
1F
100
AcDbEntity
  8
0
  6
Continuous
 62
     7
370
    25
100
AcDbLine
 10
3586.05928944
 20
6326.9435129978
 30
0.0
 11
3587.4319668048
 21
6326.9435129978
 31
0.0
  0
LINE
  5
1D9
330
1F
100
AcDbEntity
  8
0
  6
Continuous
 62
     7
370
    25
100
AcDbLine
 10
3588.7616754197
 20
6325.7276135046
 30
0.0
 11
3588.7616754197
 21
6324.9599825924
 31
0.0
  0
LINE
  5
1DA
330
1F
100
AcDbEntity
  8
0
  6
Continuous
 62
     7
370
    25
100
AcDbLine
 10
3587.4586771089
 20
6323.7475670519
 30
0.0
 11
3586.4576213656
 21
6323.7475670519
 31
0.0
  0
LINE
  5
1DB
330
1F
100
AcDbEntity
  8
0
  6
Continuous
 62
     7
370
    25
100
AcDbLine
 10
3590.813026771
 20
6323.5803373222
 30
0.0
 11
3590.813026771
 21
6321.7117773559
 31
0.0
  0
LINE
  5
1DC
330
1F
100
AcDbEntity
  8
0
  6
Continuous
 62
     7
370
    25
100
AcDbLine
 10
3590.1441078521
 20
6321.7094547208
 30
0.0
 11
3590.1441078521
 21
6326.6775712749
 31
0.0
  0
LINE
  5
1DD
330
1F
100
AcDbEntity
  8
0
  6
Continuous
 62
     7
370
    25
100
AcDbLine
 10
3590.813026771
 20
6326.6810552276
 30
0.0
 11
3590.813026771
 21
6324.3073221195
 31
0.0
  0
LINE
  5
1DE
330
1F
100
AcDbEntity
  8
0
  6
Continuous
 62
     7
370
    25
100
AcDbLine
 10
3590.813026771
 20
6324.3073221195
 30
0.0
 11
3592.5677776156
 21
6326.9051895181
 31
0.0
  0
LINE
  5
1DF
330
1F
100
AcDbEntity
  8
0
  6
Continuous
 62
     7
370
    25
100
AcDbLine
 10
3593.0775960278
 20
6326.6136988087
 30
0.0
 11
3591.7165318386
 21
6324.7950754978
 31
0.0
  0
LINE
  5
1E0
330
1F
100
AcDbEntity
  8
0
  6
Continuous
 62
     7
370
    25
100
AcDbLine
 10
3591.7165318386
 20
6324.7950754978
 30
0.0
 11
3593.0915318386
 21
6321.8221025249
 31
0.0
  0
LINE
  5
1E1
330
1F
100
AcDbEntity
  8
0
  6
Continuous
 62
     7
370
    25
100
AcDbLine
 10
3592.5364220413
 20
6321.7001641803
 30
0.0
 11
3591.3135546427
 21
6324.3746785384
 31
0.0
  0
LINE
  5
1E2
330
1F
100
AcDbEntity
  8
0
  6
Continuous
 62
     7
370
    25
100
AcDbLine
 10
3591.3135546427
 20
6324.3746785384
 30
0.0
 11
3590.813026771
 21
6323.5803373222
 31
0.0
  0
LINE
  5
1E3
330
1F
100
AcDbEntity
  8
0
  6
Continuous
 62
     7
370
    25
100
AcDbLine
 10
3594.4995132575
 20
6321.7106160384
 30
0.0
 11
3594.4995132575
 21
6326.7112494843
 31
0.0
  0
LINE
  5
1E4
330
1F
100
AcDbEntity
  8
0
  6
Continuous
 62
     7
370
    25
100
AcDbLine
 10
3595.1684321765
 20
6326.7112494843
 30
0.0
 11
3595.1684321765
 21
6321.7106160384
 31
0.0
  0
LINE
  5
1E5
330
1F
100
AcDbEntity
  8
0
  6
Continuous
 62
     7
370
    25
100
AcDbLine
 10
3598.8549186629
 20
6322.7081878289
 30
0.0
 11
3598.8549186629
 21
6323.4525923897
 31
0.0
  0
LINE
  5
1E6
330
1F
100
AcDbEntity
  8
0
  6
Continuous
 62
     7
370
    25
100
AcDbLine
 10
3598.1836771089
 20
6324.1191886735
 30
0.0
 11
3597.2197835278
 21
6324.1191886735
 31
0.0
  0
LINE
  5
1E7
330
1F
100
AcDbEntity
  8
0
  6
Continuous
 62
     7
370
    25
100
AcDbLine
 10
3597.2197835278
 20
6324.1191886735
 30
0.0
 11
3597.2197835278
 21
6322.0381075924
 31
0.0
  0
LINE
  5
1E8
330
1F
100
AcDbEntity
  8
0
  6
Continuous
 62
     7
370
    25
100
AcDbLine
 10
3597.2197835278
 20
6322.0381075924
 30
0.0
 11
3598.1836771089
 21
6322.0381075924
 31
0.0
  0
LINE
  5
1E9
330
1F
100
AcDbEntity
  8
0
  6
Continuous
 62
     7
370
    25
100
AcDbLine
 10
3598.63194569
 20
6325.3548305654
 30
0.0
 11
3598.63194569
 21
6325.7113550587
 31
0.0
  0
LINE
  5
1EA
330
1F
100
AcDbEntity
  8
0
  6
Continuous
 62
     7
370
    25
100
AcDbLine
 10
3597.979285217
 20
6326.3489184032
 30
0.0
 11
3597.2197835278
 21
6326.3489184032
 31
0.0
  0
LINE
  5
1EB
330
1F
100
AcDbEntity
  8
0
  6
Continuous
 62
     7
370
    25
100
AcDbLine
 10
3597.2197835278
 20
6326.3489184032
 30
0.0
 11
3597.2197835278
 21
6324.7137832681
 31
0.0
  0
LINE
  5
1EC
330
1F
100
AcDbEntity
  8
0
  6
Continuous
 62
     7
370
    25
100
AcDbLine
 10
3597.2197835278
 20
6324.7137832681
 30
0.0
 11
3597.979285217
 21
6324.7137832681
 31
0.0
  0
LINE
  5
1ED
330
1F
100
AcDbEntity
  8
0
  6
Continuous
 62
     7
370
    25
100
AcDbLine
 10
3596.5508646089
 20
6321.7094547208
 30
0.0
 11
3596.5508646089
 21
6326.6775712749
 31
0.0
  0
LINE
  5
1EE
330
1F
100
AcDbEntity
  8
0
  6
Continuous
 62
     7
370
    25
100
AcDbLine
 10
3596.819128967
 20
6326.9435129978
 30
0.0
 11
3597.9862531224
 21
6326.9435129978
 31
0.0
  0
LINE
  5
1EF
330
1F
100
AcDbEntity
  8
0
  6
Continuous
 62
     7
370
    25
100
AcDbLine
 10
3599.3008646089
 20
6325.7438719505
 30
0.0
 11
3599.3008646089
 21
6325.3699276938
 31
0.0
  0
LINE
  5
1F0
330
1F
100
AcDbEntity
  8
0
  6
Continuous
 62
     7
370
    25
100
AcDbLine
 10
3599.5238375819
 20
6323.4595602951
 30
0.0
 11
3599.5238375819
 21
6322.6826388424
 31
0.0
  0
LINE
  5
1F1
330
1F
100
AcDbEntity
  8
0
  6
Continuous
 62
     7
370
    25
100
AcDbLine
 10
3598.194128967
 20
6321.4435129978
 30
0.0
 11
3596.8214516021
 21
6321.4435129978
 31
0.0
  0
LINE
  5
1F2
330
1F
100
AcDbEntity
  8
0
  6
Continuous
 62
     7
370
    25
100
AcDbLine
 10
3577.8478451832
 20
6324.7149445857
 30
0.0
 11
3578.9267092035
 21
6326.8738339438
 31
0.0
  0
LINE
  5
1F3
330
1F
100
AcDbEntity
  8
0
  6
Continuous
 62
     7
370
    25
100
AcDbLine
 10
3579.4620766021
 20
6326.6171827614
 30
0.0
 11
3578.1834659602
 21
6324.2295138424
 31
0.0
  0
LINE
  5
1F4
330
1F
100
AcDbEntity
  8
0
  6
Continuous
 62
     7
370
    25
100
AcDbLine
 10
3577.8478451832
 20
6323.7464057343
 30
0.0
 11
3576.7678198454
 21
6321.5851937411
 31
0.0
  0
LINE
  5
1F5
330
1F
100
AcDbEntity
  8
0
  6
Continuous
 62
     7
370
    25
100
AcDbLine
 10
3576.2336137643
 20
6321.8430062411
 30
0.0
 11
3577.5226762643
 21
6324.23067516
 31
0.0
  0
LINE
  5
1F6
330
1F
100
AcDbEntity
  8
0
  6
Continuous
 62
     7
370
    25
100
AcDbLine
 10
3577.5226762643
 20
6324.23067516
 30
0.0
 11
3576.2336137643
 21
6326.6171827614
 31
0.0
  0
LINE
  5
1F7
330
1F
100
AcDbEntity
  8
0
  6
Continuous
 62
     7
370
    25
100
AcDbLine
 10
3576.787562244
 20
6326.8157680654
 30
0.0
 11
3577.8478451832
 21
6324.7149445857
 31
0.0
  0
LINE
  5
1F8
330
1F
100
AcDbEntity
  8
0
  6
Continuous
 62
     7
370
    25
100
AcDbLine
 10
3578.1834659602
 20
6324.2295138424
 30
0.0
 11
3579.4620766021
 21
6321.8430062411
 31
0.0
  0
LINE
  5
1F9
330
1F
100
AcDbEntity
  8
0
  6
Continuous
 62
     7
370
    25
100
AcDbLine
 10
3578.9267092035
 20
6321.5863550587
 30
0.0
 11
3577.8478451832
 21
6323.7464057343
 31
0.0
  0
LINE
  5
1FA
330
1F
100
AcDbEntity
  8
0
  6
Continuous
 62
     7
370
    25
100
AcDbLine
 10
3583.6955436629
 20
6321.6339690789
 30
0.0
 11
3583.3332125819
 21
6322.9299994843
 31
0.0
  0
LINE
  5
1FB
330
1F
100
AcDbEntity
  8
0
  6
Continuous
 62
     7
370
    25
100
AcDbLine
 10
3583.3332125819
 20
6322.9299994843
 30
0.0
 11
3581.9477607237
 21
6322.9299994843
 31
0.0
  0
LINE
  5
1FC
330
1F
100
AcDbEntity
  8
0
  6
Continuous
 62
     7
370
    25
100
AcDbLine
 10
3582.6410673116
 20
6325.9111016803
 30
0.0
 11
3582.073183021
 21
6323.5245940789
 31
0.0
  0
LINE
  5
1FD
330
1F
100
AcDbEntity
  8
0
  6
Continuous
 62
     7
370
    25
100
AcDbLine
 10
3583.2124355548
 20
6323.5245940789
 30
0.0
 11
3582.6410673116
 21
6325.9111016803
 31
0.0
  0
LINE
  5
1FE
330
1F
100
AcDbEntity
  8
0
  6
Continuous
 62
     7
370
    25
100
AcDbLine
 10
3582.073183021
 20
6323.5245940789
 30
0.0
 11
3583.2124355548
 21
6323.5245940789
 31
0.0
  0
LINE
  5
1FF
330
1F
100
AcDbEntity
  8
0
  6
Continuous
 62
     7
370
    25
100
AcDbLine
 10
3581.9477607237
 20
6322.9299994843
 30
0.0
 11
3581.5854296427
 21
6321.6339690789
 31
0.0
  0
LINE
  5
200
330
1F
100
AcDbEntity
  8
0
  6
Continuous
 62
     7
370
    25
100
AcDbLine
 10
3581.0024482237
 20
6321.7779724573
 30
0.0
 11
3582.3495766021
 21
6326.7158947546
 31
0.0
  0
LINE
  5
201
330
1F
100
AcDbEntity
  8
0
  6
Continuous
 62
     7
370
    25
100
AcDbLine
 10
3582.932558021
 20
6326.7158947546
 30
0.0
 11
3584.2785250819
 21
6321.7779724573
 31
0.0
  0
LINE
  5
202
330
1F
100
AcDbEntity
  8
0
  6
Continuous
 62
     7
370
    25
100
AcDbLine
 10
3595.1899379344
 20
6268.06068624
 30
0.0
 11
3595.3842479344
 21
6266.50366624
 31
0.0
  0
LINE
  5
203
330
1F
100
AcDbEntity
  8
0
  6
Continuous
 62
     7
370
    25
100
AcDbLine
 10
3595.3842479344
 20
6266.50366624
 30
0.0
 11
3595.8711659344
 21
6266.50366624
 31
0.0
  0
LINE
  5
204
330
1F
100
AcDbEntity
  8
0
  6
Continuous
 62
     7
370
    25
100
AcDbLine
 10
3595.8711659344
 20
6266.50366624
 30
0.0
 11
3595.8711659344
 21
6265.65987824
 31
0.0
  0
LINE
  5
205
330
1F
100
AcDbEntity
  8
0
  6
Continuous
 62
     7
370
    25
100
AcDbLine
 10
3595.8711659344
 20
6265.65987824
 30
0.0
 11
3596.0524473515
 21
6265.3663605094
 31
0.0
  0
LINE
  5
206
330
1F
100
AcDbEntity
  8
0
  6
Continuous
 62
     7
370
    25
100
AcDbLine
 10
3596.0524473515
 20
6265.3663605094
 30
0.0
 11
3594.8653259344
 21
6265.23811124
 31
0.0
  0
LINE
  5
207
330
1F
100
AcDbEntity
  8
0
  6
Continuous
 62
     7
370
    25
100
AcDbLine
 10
3594.8653259344
 20
6265.23811124
 30
0.0
 11
3594.6067539344
 21
6265.92010124
 31
0.0
  0
LINE
  5
208
330
1F
100
AcDbEntity
  8
0
  6
Continuous
 62
     7
370
    25
100
AcDbLine
 10
3594.6067539344
 20
6265.92010124
 30
0.0
 11
3593.4053339344
 21
6265.65987824
 31
0.0
  0
LINE
  5
209
330
1F
100
AcDbEntity
  8
0
  6
Continuous
 62
     7
370
    25
100
AcDbLine
 10
3593.4053339344
 20
6265.65987824
 30
0.0
 11
3593.4053339344
 21
6264.13498924
 31
0.0
  0
LINE
  5
20A
330
1F
100
AcDbEntity
  8
0
  6
Continuous
 62
     7
370
    25
100
AcDbLine
 10
3593.4053339344
 20
6264.13498924
 30
0.0
 11
3591.8809529344
 21
6263.93940924
 31
0.0
  0
LINE
  5
20B
330
1F
100
AcDbEntity
  8
0
  6
Continuous
 62
     7
370
    25
100
AcDbLine
 10
3591.8809529344
 20
6263.93940924
 30
0.0
 11
3588.3751179344
 21
6266.85990124
 31
0.0
  0
LINE
  5
20C
330
1F
100
AcDbEntity
  8
0
  6
Continuous
 62
     7
370
    25
100
AcDbLine
 10
3588.3751179344
 20
6266.85990124
 30
0.0
 11
3585.7149759344
 21
6263.35597124
 31
0.0
  0
LINE
  5
20D
330
1F
100
AcDbEntity
  8
0
  6
Continuous
 62
     7
370
    25
100
AcDbLine
 10
3585.7149759344
 20
6263.35597124
 30
0.0
 11
3585.2935899344
 21
6262.09041624
 31
0.0
  0
LINE
  5
20E
330
1F
100
AcDbEntity
  8
0
  6
Continuous
 62
     7
370
    25
100
AcDbLine
 10
3585.2935899344
 20
6262.09041624
 30
0.0
 11
3585.6505869344
 21
6260.88975824
 31
0.0
  0
LINE
  5
20F
330
1F
100
AcDbEntity
  8
0
  6
Continuous
 62
     7
370
    25
100
AcDbLine
 10
3585.6505869344
 20
6260.88975824
 30
0.0
 11
3584.5479729344
 21
6260.46849924
 31
0.0
  0
LINE
  5
210
330
1F
100
AcDbEntity
  8
0
  6
Continuous
 62
     7
370
    25
100
AcDbLine
 10
3584.5479729344
 20
6260.46849924
 30
0.0
 11
3583.4113229344
 21
6261.31177924
 31
0.0
  0
LINE
  5
211
330
1F
100
AcDbEntity
  8
0
  6
Continuous
 62
     7
370
    25
100
AcDbLine
 10
3583.4113229344
 20
6261.31177924
 30
0.0
 11
3582.6662139344
 21
6260.37007424
 31
0.0
  0
LINE
  5
212
330
1F
100
AcDbEntity
  8
0
  6
Continuous
 62
     7
370
    25
100
AcDbLine
 10
3582.6662139344
 20
6260.37007424
 30
0.0
 11
3582.1469109344
 21
6261.05282624
 31
0.0
  0
LINE
  5
213
330
1F
100
AcDbEntity
  8
0
  6
Continuous
 62
     7
370
    25
100
AcDbLine
 10
3582.1469109344
 20
6261.05282624
 30
0.0
 11
3582.7300949344
 21
6262.51307224
 31
0.0
  0
LINE
  5
214
330
1F
100
AcDbEntity
  8
0
  6
Continuous
 62
     7
370
    25
100
AcDbLine
 10
3582.7300949344
 20
6262.51307224
 30
0.0
 11
3581.0425189344
 21
6264.45922024
 31
0.0
  0
LINE
  5
215
330
1F
100
AcDbEntity
  8
0
  6
Continuous
 62
     7
370
    25
100
AcDbLine
 10
3581.0425189344
 20
6264.45922024
 30
0.0
 11
3581.7251439344
 21
6265.75690624
 31
0.0
  0
LINE
  5
216
330
1F
100
AcDbEntity
  8
0
  6
Continuous
 62
     7
370
    25
100
AcDbLine
 10
3581.7251439344
 20
6265.75690624
 30
0.0
 11
3579.4844829344
 21
6267.86637624
 31
0.0
  0
LINE
  5
217
330
1F
100
AcDbEntity
  8
0
  6
Continuous
 62
     7
370
    25
100
AcDbLine
 10
3579.4844829344
 20
6267.86637624
 30
0.0
 11
3577.7011489344
 21
6268.90396624
 31
0.0
  0
LINE
  5
218
330
1F
100
AcDbEntity
  8
0
  6
Continuous
 62
     7
370
    25
100
AcDbLine
 10
3577.7011489344
 20
6268.90396624
 30
0.0
 11
3578.0586539344
 21
6269.84516324
 31
0.0
  0
LINE
  5
219
330
1F
100
AcDbEntity
  8
0
  6
Continuous
 62
     7
370
    25
100
AcDbLine
 10
3578.0586539344
 20
6269.84516324
 30
0.0
 11
3577.0199209344
 21
6270.88427724
 31
0.0
  0
LINE
  5
21A
330
1F
100
AcDbEntity
  8
0
  6
Continuous
 62
     7
370
    25
100
AcDbLine
 10
3577.0199209344
 20
6270.88427724
 30
0.0
 11
3577.3774259344
 21
6272.05140724
 31
0.0
  0
LINE
  5
21B
330
1F
100
AcDbEntity
  8
0
  6
Continuous
 62
     7
370
    25
100
AcDbLine
 10
3577.3774259344
 20
6272.05140724
 30
0.0
 11
3576.4358479344
 21
6272.92808824
 31
0.0
  0
LINE
  5
21C
330
1F
100
AcDbEntity
  8
0
  6
Continuous
 62
     7
370
    25
100
AcDbLine
 10
3576.4358479344
 20
6272.92808824
 30
0.0
 11
3574.2941199344
 21
6273.18716824
 31
0.0
  0
LINE
  5
21D
330
1F
100
AcDbEntity
  8
0
  6
Continuous
 62
     7
370
    25
100
AcDbLine
 10
3574.2941199344
 20
6273.18716824
 30
0.0
 11
3574.4564259344
 21
6274.29041724
 31
0.0
  0
LINE
  5
21E
330
1F
100
AcDbEntity
  8
0
  6
Continuous
 62
     7
370
    25
100
AcDbLine
 10
3574.4564259344
 20
6274.29041724
 30
0.0
 11
3573.3525419344
 21
6274.55051324
 31
0.0
  0
LINE
  5
21F
330
1F
100
AcDbEntity
  8
0
  6
Continuous
 62
     7
370
    25
100
AcDbLine
 10
3573.3525419344
 20
6274.55051324
 30
0.0
 11
3573.5153559344
 21
6275.71827824
 31
0.0
  0
LINE
  5
220
330
1F
100
AcDbEntity
  8
0
  6
Continuous
 62
     7
370
    25
100
AcDbLine
 10
3573.5153559344
 20
6275.71827824
 30
0.0
 11
3572.8353979344
 21
6276.23720024
 31
0.0
  0
LINE
  5
221
330
1F
100
AcDbEntity
  8
0
  6
Continuous
 62
     7
370
    25
100
AcDbLine
 10
3572.8353979344
 20
6276.23720024
 30
0.0
 11
3573.2558949344
 21
6277.53552124
 31
0.0
  0
LINE
  5
222
330
1F
100
AcDbEntity
  8
0
  6
Continuous
 62
     7
370
    25
100
AcDbLine
 10
3573.2558949344
 20
6277.53552124
 30
0.0
 11
3572.0881299344
 21
6278.63826224
 31
0.0
  0
LINE
  5
223
330
1F
100
AcDbEntity
  8
0
  6
Continuous
 62
     7
370
    25
100
AcDbLine
 10
3572.0881299344
 20
6278.63826224
 30
0.0
 11
3570.9527499344
 21
6279.15693024
 31
0.0
  0
LINE
  5
224
330
1F
100
AcDbEntity
  8
0
  6
Continuous
 62
     7
370
    25
100
AcDbLine
 10
3570.9527499344
 20
6279.15693024
 30
0.0
 11
3571.8299389344
 21
6280.94216924
 31
0.0
  0
LINE
  5
225
330
1F
100
AcDbEntity
  8
0
  6
Continuous
 62
     7
370
    25
100
AcDbLine
 10
3571.8299389344
 20
6280.94216924
 30
0.0
 11
3570.2697439344
 21
6282.20747024
 31
0.0
  0
LINE
  5
226
330
1F
100
AcDbEntity
  8
0
  6
Continuous
 62
     7
370
    25
100
AcDbLine
 10
3570.2697439344
 20
6282.20747024
 30
0.0
 11
3569.1024869344
 21
6280.58529924
 31
0.0
  0
LINE
  5
227
330
1F
100
AcDbEntity
  8
0
  6
Continuous
 62
     7
370
    25
100
AcDbLine
 10
3569.1024869344
 20
6280.58529924
 30
0.0
 11
3568.1612899344
 21
6280.09838124
 31
0.0
  0
LINE
  5
228
330
1F
100
AcDbEntity
  8
0
  6
Continuous
 62
     7
370
    25
100
AcDbLine
 10
3568.1612899344
 20
6280.09838124
 30
0.0
 11
3567.5430539344
 21
6279.22258924
 31
0.0
  0
LINE
  5
229
330
1F
100
AcDbEntity
  8
0
  6
Continuous
 62
     7
370
    25
100
AcDbLine
 10
3567.5430539344
 20
6279.22258924
 30
0.0
 11
3566.6054129344
 21
6278.96236624
 31
0.0
  0
LINE
  5
22A
330
1F
100
AcDbEntity
  8
0
  6
Continuous
 62
     7
370
    25
100
AcDbLine
 10
3566.6054129344
 20
6278.96236624
 30
0.0
 11
3565.8586529344
 21
6278.21649524
 31
0.0
  0
LINE
  5
22B
330
1F
100
AcDbEntity
  8
0
  6
Continuous
 62
     7
370
    25
100
AcDbLine
 10
3565.8586529344
 20
6278.21649524
 30
0.0
 11
3564.3006169344
 21
6278.89823124
 31
0.0
  0
LINE
  5
22C
330
1F
100
AcDbEntity
  8
0
  6
Continuous
 62
     7
370
    25
100
AcDbLine
 10
3564.3006169344
 20
6278.89823124
 30
0.0
 11
3561.9978529344
 21
6278.63826224
 31
0.0
  0
LINE
  5
22D
330
1F
100
AcDbEntity
  8
0
  6
Continuous
 62
     7
370
    25
100
AcDbLine
 10
3561.9978529344
 20
6278.63826224
 30
0.0
 11
3561.4771529344
 21
6279.74201924
 31
0.0
  0
LINE
  5
22E
330
1F
100
AcDbEntity
  8
0
  6
Continuous
 62
     7
370
    25
100
AcDbLine
 10
3561.4771529344
 20
6279.74201924
 30
0.0
 11
3560.2109629344
 21
6279.15693024
 31
0.0
  0
LINE
  5
22F
330
1F
100
AcDbEntity
  8
0
  6
Continuous
 62
     7
370
    25
100
AcDbLine
 10
3560.2109629344
 20
6279.15693024
 30
0.0
 11
3559.5311319344
 21
6280.00122624
 31
0.0
  0
LINE
  5
230
330
1F
100
AcDbEntity
  8
0
  6
Continuous
 62
     7
370
    25
100
AcDbLine
 10
3559.5311319344
 20
6280.00122624
 30
0.0
 11
3555.5071369344
 21
6279.84019024
 31
0.0
  0
LINE
  5
231
330
1F
100
AcDbEntity
  8
0
  6
Continuous
 62
     7
370
    25
100
AcDbLine
 10
3555.5071369344
 20
6279.84019024
 30
0.0
 11
3553.8209579344
 21
6281.26627324
 31
0.0
  0
LINE
  5
232
330
1F
100
AcDbEntity
  8
0
  6
Continuous
 62
     7
370
    25
100
AcDbLine
 10
3553.8209579344
 20
6281.26627324
 30
0.0
 11
3552.0353379344
 21
6281.52598824
 31
0.0
  0
LINE
  5
233
330
1F
100
AcDbEntity
  8
0
  6
Continuous
 62
     7
370
    25
100
AcDbLine
 10
3552.0353379344
 20
6281.52598824
 30
0.0
 11
3550.5757269344
 21
6283.31059224
 31
0.0
  0
LINE
  5
234
330
1F
100
AcDbEntity
  8
0
  6
Continuous
 62
     7
370
    25
100
AcDbLine
 10
3550.5757269344
 20
6283.31059224
 30
0.0
 11
3549.5380099344
 21
6283.40889024
 31
0.0
  0
LINE
  5
235
330
1F
100
AcDbEntity
  8
0
  6
Continuous
 62
     7
370
    25
100
AcDbLine
 10
3549.5380099344
 20
6283.40889024
 30
0.0
 11
3549.3751959344
 21
6284.34869024
 31
0.0
  0
LINE
  5
236
330
1F
100
AcDbEntity
  8
0
  6
Continuous
 62
     7
370
    25
100
AcDbLine
 10
3549.3751959344
 20
6284.34869024
 30
0.0
 11
3547.7511199344
 21
6285.45168524
 31
0.0
  0
LINE
  5
237
330
1F
100
AcDbEntity
  8
0
  6
Continuous
 62
     7
370
    25
100
AcDbLine
 10
3547.7511199344
 20
6285.45168524
 30
0.0
 11
3546.9093639344
 21
6284.77109224
 31
0.0
  0
LINE
  5
238
330
1F
100
AcDbEntity
  8
0
  6
Continuous
 62
     7
370
    25
100
AcDbLine
 10
3546.9093639344
 20
6284.77109224
 30
0.0
 11
3546.1304729344
 21
6285.45168524
 31
0.0
  0
LINE
  5
239
330
1F
100
AcDbEntity
  8
0
  6
Continuous
 62
     7
370
    25
100
AcDbLine
 10
3546.1304729344
 20
6285.45168524
 30
0.0
 11
3546.9745149344
 21
6286.39275524
 31
0.0
  0
LINE
  5
23A
330
1F
100
AcDbEntity
  8
0
  6
Continuous
 62
     7
370
    25
100
AcDbLine
 10
3546.9745149344
 20
6286.39275524
 30
0.0
 11
3545.1233629344
 21
6287.75635424
 31
0.0
  0
LINE
  5
23B
330
1F
100
AcDbEntity
  8
0
  6
Continuous
 62
     7
370
    25
100
AcDbLine
 10
3545.1233629344
 20
6287.75635424
 30
0.0
 11
3541.8799099344
 21
6287.69069524
 31
0.0
  0
LINE
  5
23C
330
1F
100
AcDbEntity
  8
0
  6
Continuous
 62
     7
370
    25
100
AcDbLine
 10
3541.8799099344
 20
6287.69069524
 30
0.0
 11
3541.0048799344
 21
6287.04236024
 31
0.0
  0
LINE
  5
23D
330
1F
100
AcDbEntity
  8
0
  6
Continuous
 62
     7
370
    25
100
AcDbLine
 10
3541.0048799344
 20
6287.04236024
 30
0.0
 11
3541.1015269344
 21
6286.81503024
 31
0.0
  0
LINE
  5
23E
330
1F
100
AcDbEntity
  8
0
  6
Continuous
 62
     7
370
    25
100
AcDbLine
 10
3541.1015269344
 20
6286.81503024
 30
0.0
 11
3540.8404149344
 21
6287.33458724
 31
0.0
  0
LINE
  5
23F
330
1F
100
AcDbEntity
  8
0
  6
Continuous
 62
     7
370
    25
100
AcDbLine
 10
3540.8404149344
 20
6287.33458724
 30
0.0
 11
3540.1595679344
 21
6289.31350124
 31
0.0
  0
LINE
  5
240
330
1F
100
AcDbEntity
  8
0
  6
Continuous
 62
     7
370
    25
100
AcDbLine
 10
3540.1595679344
 20
6289.31350124
 30
0.0
 11
3539.4779589344
 21
6289.54133924
 31
0.0
  0
LINE
  5
241
330
1F
100
AcDbEntity
  8
0
  6
Continuous
 62
     7
370
    25
100
AcDbLine
 10
3539.4779589344
 20
6289.54133924
 30
0.0
 11
3538.7971119344
 21
6291.35858224
 31
0.0
  0
LINE
  5
242
330
1F
100
AcDbEntity
  8
0
  6
Continuous
 62
     7
370
    25
100
AcDbLine
 10
3538.7971119344
 20
6291.35858224
 30
0.0
 11
3540.0627939344
 21
6295.34854124
 31
0.0
  0
LINE
  5
243
330
1F
100
AcDbEntity
  8
0
  6
Continuous
 62
     7
370
    25
100
AcDbLine
 10
3540.0627939344
 20
6295.34854124
 30
0.0
 11
3545.8692339344
 21
6294.14826424
 31
0.0
  0
LINE
  5
244
330
1F
100
AcDbEntity
  8
0
  6
Continuous
 62
     7
370
    25
100
AcDbLine
 10
3545.8692339344
 20
6294.14826424
 30
0.0
 11
3547.3302419344
 21
6294.34295524
 31
0.0
  0
LINE
  5
245
330
1F
100
AcDbEntity
  8
0
  6
Continuous
 62
     7
370
    25
100
AcDbLine
 10
3547.3302419344
 20
6294.34295524
 30
0.0
 11
3547.4268889344
 21
6293.72624324
 31
0.0
  0
LINE
  5
246
330
1F
100
AcDbEntity
  8
0
  6
Continuous
 62
     7
370
    25
100
AcDbLine
 10
3547.4268889344
 20
6293.72624324
 30
0.0
 11
3548.7915039344
 21
6294.34295524
 31
0.0
  0
LINE
  5
247
330
1F
100
AcDbEntity
  8
0
  6
Continuous
 62
     7
370
    25
100
AcDbLine
 10
3548.7915039344
 20
6294.34295524
 30
0.0
 11
3548.5320429344
 21
6295.86797124
 31
0.0
  0
LINE
  5
248
330
1F
100
AcDbEntity
  8
0
  6
Continuous
 62
     7
370
    25
100
AcDbLine
 10
3548.5320429344
 20
6295.86797124
 30
0.0
 11
3550.9008469344
 21
6298.78757424
 31
0.0
  0
LINE
  5
249
330
1F
100
AcDbEntity
  8
0
  6
Continuous
 62
     7
370
    25
100
AcDbLine
 10
3550.9008469344
 20
6298.78757424
 30
0.0
 11
3549.8950069344
 21
6299.01477724
 31
0.0
  0
LINE
  5
24A
330
1F
100
AcDbEntity
  8
0
  6
Continuous
 62
     7
370
    25
100
AcDbLine
 10
3549.8950069344
 20
6299.01477724
 30
0.0
 11
3549.9585069344
 21
6301.93577724
 31
0.0
  0
LINE
  5
24B
330
1F
100
AcDbEntity
  8
0
  6
Continuous
 62
     7
370
    25
100
AcDbLine
 10
3549.9585069344
 20
6301.93577724
 30
0.0
 11
3548.9529209344
 21
6302.00029324
 31
0.0
  0
LINE
  5
24C
330
1F
100
AcDbEntity
  8
0
  6
Continuous
 62
     7
370
    25
100
AcDbLine
 10
3548.9529209344
 20
6302.00029324
 30
0.0
 11
3549.3751959344
 21
6304.14151324
 31
0.0
  0
LINE
  5
24D
330
1F
100
AcDbEntity
  8
0
  6
Continuous
 62
     7
370
    25
100
AcDbLine
 10
3549.3751959344
 20
6304.14151324
 30
0.0
 11
3553.5600999344
 21
6303.55680524
 31
0.0
  0
LINE
  5
24E
330
1F
100
AcDbEntity
  8
0
  6
Continuous
 62
     7
370
    25
100
AcDbLine
 10
3553.5600999344
 20
6303.55680524
 30
0.0
 11
3554.1441729344
 21
6305.17961124
 31
0.0
  0
LINE
  5
24F
330
1F
100
AcDbEntity
  8
0
  6
Continuous
 62
     7
370
    25
100
AcDbLine
 10
3554.1441729344
 20
6305.17961124
 30
0.0
 11
3552.2615249344
 21
6305.60137824
 31
0.0
  0
LINE
  5
250
330
1F
100
AcDbEntity
  8
0
  6
Continuous
 62
     7
370
    25
100
AcDbLine
 10
3552.2615249344
 20
6305.60137824
 30
0.0
 11
3551.2560659344
 21
6307.22418424
 31
0.0
  0
LINE
  5
251
330
1F
100
AcDbEntity
  8
0
  6
Continuous
 62
     7
370
    25
100
AcDbLine
 10
3551.2560659344
 20
6307.22418424
 30
0.0
 11
3553.8852199344
 21
6307.64607824
 31
0.0
  0
LINE
  5
252
330
1F
100
AcDbEntity
  8
0
  6
Continuous
 62
     7
370
    25
100
AcDbLine
 10
3553.8852199344
 20
6307.64607824
 30
0.0
 11
3551.8393769344
 21
6312.15610224
 31
0.0
  0
LINE
  5
253
330
1F
100
AcDbEntity
  8
0
  6
Continuous
 62
     7
370
    25
100
AcDbLine
 10
3551.8393769344
 20
6312.15610224
 30
0.0
 11
3550.2208889344
 21
6311.83199824
 31
0.0
  0
LINE
  5
254
330
1F
100
AcDbEntity
  8
0
  6
Continuous
 62
     7
370
    25
100
AcDbLine
 10
3550.2208889344
 20
6311.83199824
 30
0.0
 11
3547.7511199344
 21
6312.15610224
 31
0.0
  0
LINE
  5
255
330
1F
100
AcDbEntity
  8
0
  6
Continuous
 62
     7
370
    25
100
AcDbLine
 10
3547.7511199344
 20
6312.15610224
 30
0.0
 11
3546.6490139344
 21
6313.87631724
 31
0.0
  0
LINE
  5
256
330
1F
100
AcDbEntity
  8
0
  6
Continuous
 62
     7
370
    25
100
AcDbLine
 10
3546.6490139344
 20
6313.87631724
 30
0.0
 11
3545.4488639344
 21
6314.39460424
 31
0.0
  0
LINE
  5
257
330
1F
100
AcDbEntity
  8
0
  6
Continuous
 62
     7
370
    25
100
AcDbLine
 10
3545.4488639344
 20
6314.39460424
 30
0.0
 11
3544.9290529344
 21
6319.52108624
 31
0.0
  0
LINE
  5
258
330
1F
100
AcDbEntity
  8
0
  6
Continuous
 62
     7
370
    25
100
AcDbLine
 10
3544.9290529344
 20
6319.52108624
 30
0.0
 11
3542.2045219344
 21
6320.26746524
 31
0.0
  0
LINE
  5
259
330
1F
100
AcDbEntity
  8
0
  6
Continuous
 62
     7
370
    25
100
AcDbLine
 10
3542.2045219344
 20
6320.26746524
 30
0.0
 11
3539.3164149344
 21
6320.10579424
 31
0.0
  0
LINE
  5
25A
330
1F
100
AcDbEntity
  8
0
  6
Continuous
 62
     7
370
    25
100
AcDbLine
 10
3539.3164149344
 20
6320.10579424
 30
0.0
 11
3539.3164149344
 21
6320.78676824
 31
0.0
  0
LINE
  5
25B
330
1F
100
AcDbEntity
  8
0
  6
Continuous
 62
     7
370
    25
100
AcDbLine
 10
3539.3164149344
 20
6320.78676824
 30
0.0
 11
3540.5170729344
 21
6321.89001724
 31
0.0
  0
LINE
  5
25C
330
1F
100
AcDbEntity
  8
0
  6
Continuous
 62
     7
370
    25
100
AcDbLine
 10
3540.5170729344
 20
6321.89001724
 30
0.0
 11
3539.0561919344
 21
6321.98691824
 31
0.0
  0
LINE
  5
25D
330
1F
100
AcDbEntity
  8
0
  6
Continuous
 62
     7
370
    25
100
AcDbLine
 10
3539.0561919344
 20
6321.98691824
 30
0.0
 11
3538.0192369344
 21
6320.94920124
 31
0.0
  0
LINE
  5
25E
330
1F
100
AcDbEntity
  8
0
  6
Continuous
 62
     7
370
    25
100
AcDbLine
 10
3538.0192369344
 20
6320.94920124
 30
0.0
 11
3535.3904639344
 21
6322.83096024
 31
0.0
  0
LINE
  5
25F
330
1F
100
AcDbEntity
  8
0
  6
Continuous
 62
     7
370
    25
100
AcDbLine
 10
3535.3904639344
 20
6322.83096024
 30
0.0
 11
3534.4493939344
 21
6323.09080224
 31
0.0
  0
LINE
  5
260
330
1F
100
AcDbEntity
  8
0
  6
Continuous
 62
     7
370
    25
100
AcDbLine
 10
3534.4493939344
 20
6323.09080224
 30
0.0
 11
3534.0267379344
 21
6324.71297324
 31
0.0
  0
LINE
  5
261
330
1F
100
AcDbEntity
  8
0
  6
Continuous
 62
     7
370
    25
100
AcDbLine
 10
3534.0267379344
 20
6324.71297324
 30
0.0
 11
3533.3463989344
 21
6324.81076324
 31
0.0
  0
LINE
  5
262
330
1F
100
AcDbEntity
  8
0
  6
Continuous
 62
     7
370
    25
100
AcDbLine
 10
3533.3463989344
 20
6324.81076324
 30
0.0
 11
3533.1513269344
 21
6325.75145224
 31
0.0
  0
LINE
  5
263
330
1F
100
AcDbEntity
  8
0
  6
Continuous
 62
     7
370
    25
100
AcDbLine
 10
3533.1513269344
 20
6325.75145224
 30
0.0
 11
3534.0918889344
 21
6327.69798124
 31
0.0
  0
LINE
  5
264
330
1F
100
AcDbEntity
  8
0
  6
Continuous
 62
     7
370
    25
100
AcDbLine
 10
3534.0918889344
 20
6327.69798124
 30
0.0
 11
3534.7740059344
 21
6330.09878924
 31
0.0
  0
LINE
  5
265
330
1F
100
AcDbEntity
  8
0
  6
Continuous
 62
     7
370
    25
100
AcDbLine
 10
3534.7740059344
 20
6330.09878924
 30
0.0
 11
3535.3904639344
 21
6331.52703124
 31
0.0
  0
LINE
  5
266
330
1F
100
AcDbEntity
  8
0
  6
Continuous
 62
     7
370
    25
100
AcDbLine
 10
3535.3904639344
 20
6331.52703124
 30
0.0
 11
3535.1958999344
 21
6333.24584924
 31
0.0
  0
LINE
  5
267
330
1F
100
AcDbEntity
  8
0
  6
Continuous
 62
     7
370
    25
100
AcDbLine
 10
3535.1958999344
 20
6333.24584924
 30
0.0
 11
3534.7416209344
 21
6333.47356024
 31
0.0
  0
LINE
  5
268
330
1F
100
AcDbEntity
  8
0
  6
Continuous
 62
     7
370
    25
100
AcDbLine
 10
3534.7416209344
 20
6333.47356024
 30
0.0
 11
3534.9670459344
 21
6333.76578724
 31
0.0
  0
LINE
  5
269
330
1F
100
AcDbEntity
  8
0
  6
Continuous
 62
     7
370
    25
100
AcDbLine
 10
3534.9670459344
 20
6333.76578724
 30
0.0
 11
3536.0716919344
 21
6335.38795824
 31
0.0
  0
LINE
  5
26A
330
1F
100
AcDbEntity
  8
0
  6
Continuous
 62
     7
370
    25
100
AcDbLine
 10
3536.0716919344
 20
6335.38795824
 30
0.0
 11
3538.1158839344
 21
6335.55051824
 31
0.0
  0
LINE
  5
26B
330
1F
100
AcDbEntity
  8
0
  6
Continuous
 62
     7
370
    25
100
AcDbLine
 10
3538.1158839344
 20
6335.55051824
 30
0.0
 11
3538.2778089344
 21
6334.51178524
 31
0.0
  0
LINE
  5
26C
330
1F
100
AcDbEntity
  8
0
  6
Continuous
 62
     7
370
    25
100
AcDbLine
 10
3538.2778089344
 20
6334.51178524
 30
0.0
 11
3539.7374199344
 21
6334.60894024
 31
0.0
  0
LINE
  5
26D
330
1F
100
AcDbEntity
  8
0
  6
Continuous
 62
     7
370
    25
100
AcDbLine
 10
3539.7374199344
 20
6334.60894024
 30
0.0
 11
3539.9972619344
 21
6337.07515324
 31
0.0
  0
LINE
  5
26E
330
1F
100
AcDbEntity
  8
0
  6
Continuous
 62
     7
370
    25
100
AcDbLine
 10
3539.9972619344
 20
6337.07515324
 30
0.0
 11
3541.6852189344
 21
6338.69745124
 31
0.0
  0
LINE
  5
26F
330
1F
100
AcDbEntity
  8
0
  6
Continuous
 62
     7
370
    25
100
AcDbLine
 10
3541.6852189344
 20
6338.69745124
 30
0.0
 11
3543.9892529344
 21
6338.01558824
 31
0.0
  0
LINE
  5
270
330
1F
100
AcDbEntity
  8
0
  6
Continuous
 62
     7
370
    25
100
AcDbLine
 10
3543.9892529344
 20
6338.01558824
 30
0.0
 11
3544.7692869344
 21
6339.73567624
 31
0.0
  0
LINE
  5
271
330
1F
100
AcDbEntity
  8
0
  6
Continuous
 62
     7
370
    25
100
AcDbLine
 10
3544.7692869344
 20
6339.73567624
 30
0.0
 11
3547.1683169344
 21
6340.25497924
 31
0.0
  0
LINE
  5
272
330
1F
100
AcDbEntity
  8
0
  6
Continuous
 62
     7
370
    25
100
AcDbLine
 10
3547.1683169344
 20
6340.25497924
 30
0.0
 11
3546.3899339344
 21
6341.42287124
 31
0.0
  0
LINE
  5
273
330
1F
100
AcDbEntity
  8
0
  6
Continuous
 62
     7
370
    25
100
AcDbLine
 10
3546.3899339344
 20
6341.42287124
 30
0.0
 11
3546.5518589344
 21
6342.55863224
 31
0.0
  0
LINE
  5
274
330
1F
100
AcDbEntity
  8
0
  6
Continuous
 62
     7
370
    25
100
AcDbLine
 10
3546.5518589344
 20
6342.55863224
 30
0.0
 11
3548.4336179344
 21
6341.68284024
 31
0.0
  0
LINE
  5
275
330
1F
100
AcDbEntity
  8
0
  6
Continuous
 62
     7
370
    25
100
AcDbLine
 10
3548.4336179344
 20
6341.68284024
 30
0.0
 11
3548.5320429344
 21
6343.40242024
 31
0.0
  0
LINE
  5
276
330
1F
100
AcDbEntity
  8
0
  6
Continuous
 62
     7
370
    25
100
AcDbLine
 10
3548.5320429344
 20
6343.40242024
 30
0.0
 11
3549.8950069344
 21
6343.72728624
 31
0.0
  0
LINE
  5
277
330
1F
100
AcDbEntity
  8
0
  6
Continuous
 62
     7
370
    25
100
AcDbLine
 10
3549.8950069344
 20
6343.72728624
 30
0.0
 11
3552.6194109344
 21
6341.00161224
 31
0.0
  0
LINE
  5
278
330
1F
100
AcDbEntity
  8
0
  6
Continuous
 62
     7
370
    25
100
AcDbLine
 10
3552.6194109344
 20
6341.00161224
 30
0.0
 11
3553.3983019344
 21
6341.35848224
 31
0.0
  0
LINE
  5
279
330
1F
100
AcDbEntity
  8
0
  6
Continuous
 62
     7
370
    25
100
AcDbLine
 10
3553.3983019344
 20
6341.35848224
 30
0.0
 11
3552.7813359344
 21
6342.72093824
 31
0.0
  0
LINE
  5
27A
330
1F
100
AcDbEntity
  8
0
  6
Continuous
 62
     7
370
    25
100
AcDbLine
 10
3552.7813359344
 20
6342.72093824
 30
0.0
 11
3554.2413279344
 21
6342.29917124
 31
0.0
  0
LINE
  5
27B
330
1F
100
AcDbEntity
  8
0
  6
Continuous
 62
     7
370
    25
100
AcDbLine
 10
3556.0269479344
 20
6343.56498024
 30
0.0
 11
3555.8650229344
 21
6342.62314824
 31
0.0
  0
LINE
  5
27C
330
1F
100
AcDbEntity
  8
0
  6
Continuous
 62
     7
370
    25
100
AcDbLine
 10
3555.8650229344
 20
6342.62314824
 30
0.0
 11
3557.4878289344
 21
6343.14295924
 31
0.0
  0
LINE
  5
27D
330
1F
100
AcDbEntity
  8
0
  6
Continuous
 62
     7
370
    25
100
AcDbLine
 10
3557.4878289344
 20
6343.14295924
 30
0.0
 11
3557.9083259344
 21
6344.86279324
 31
0.0
  0
LINE
  5
27E
330
1F
100
AcDbEntity
  8
0
  6
Continuous
 62
     7
370
    25
100
AcDbLine
 10
3557.9083259344
 20
6344.86279324
 30
0.0
 11
3559.6938189344
 21
6345.02471824
 31
0.0
  0
LINE
  5
27F
330
1F
100
AcDbEntity
  8
0
  6
Continuous
 62
     7
370
    25
100
AcDbLine
 10
3559.6938189344
 20
6345.02471824
 30
0.0
 11
3560.6348889344
 21
6346.38704724
 31
0.0
  0
LINE
  5
280
330
1F
100
AcDbEntity
  8
0
  6
Continuous
 62
     7
370
    25
100
AcDbLine
 10
3560.6348889344
 20
6346.38704724
 30
0.0
 11
3560.9907429344
 21
6348.01048824
 31
0.0
  0
LINE
  5
281
330
1F
100
AcDbEntity
  8
0
  6
Continuous
 62
     7
370
    25
100
AcDbLine
 10
3560.9907429344
 20
6348.01048824
 30
0.0
 11
3563.0365859344
 21
6348.78810924
 31
0.0
  0
LINE
  5
282
330
1F
100
AcDbEntity
  8
0
  6
Continuous
 62
     7
370
    25
100
AcDbLine
 10
3563.0365859344
 20
6348.78810924
 30
0.0
 11
3564.0406479344
 21
6350.21711324
 31
0.0
  0
LINE
  5
283
330
1F
100
AcDbEntity
  8
0
  6
Continuous
 62
     7
370
    25
100
AcDbLine
 10
3564.0406479344
 20
6350.21711324
 30
0.0
 11
3567.2209819344
 21
6350.47593924
 31
0.0
  0
LINE
  5
284
330
1F
100
AcDbEntity
  8
0
  6
Continuous
 62
     7
370
    25
100
AcDbLine
 10
3567.2209819344
 20
6350.47593924
 30
0.0
 11
3571.5686999344
 21
6349.37294424
 31
0.0
  0
LINE
  5
285
330
1F
100
AcDbEntity
  8
0
  6
Continuous
 62
     7
370
    25
100
AcDbLine
 10
3571.5686999344
 20
6349.37294424
 30
0.0
 11
3573.4502049344
 21
6347.84830924
 31
0.0
  0
LINE
  5
286
330
1F
100
AcDbEntity
  8
0
  6
Continuous
 62
     7
370
    25
100
AcDbLine
 10
3573.4502049344
 20
6347.84830924
 30
0.0
 11
3574.9762369344
 21
6346.12707824
 31
0.0
  0
LINE
  5
287
330
1F
100
AcDbEntity
  8
0
  6
Continuous
 62
     7
370
    25
100
AcDbLine
 10
3574.9762369344
 20
6346.12707824
 30
0.0
 11
3574.7167759344
 21
6344.24570024
 31
0.0
  0
LINE
  5
288
330
1F
100
AcDbEntity
  8
0
  6
Continuous
 62
     7
370
    25
100
AcDbLine
 10
3574.7167759344
 20
6344.24570024
 30
0.0
 11
3577.6368869344
 21
6343.14295924
 31
0.0
  0
LINE
  5
289
330
1F
100
AcDbEntity
  8
0
  6
Continuous
 62
     7
370
    25
100
AcDbLine
 10
3577.6368869344
 20
6343.14295924
 30
0.0
 11
3580.5249939344
 21
6345.12276224
 31
0.0
  0
LINE
  5
28A
330
1F
100
AcDbEntity
  8
0
  6
Continuous
 62
     7
370
    25
100
AcDbLine
 10
3580.5249939344
 20
6345.12276224
 30
0.0
 11
3585.0345099344
 21
6343.56498024
 31
0.0
  0
LINE
  5
28B
330
1F
100
AcDbEntity
  8
0
  6
Continuous
 62
     7
370
    25
100
AcDbLine
 10
3585.0345099344
 20
6343.56498024
 30
0.0
 11
3586.0714649344
 21
6340.83892524
 31
0.0
  0
LINE
  5
28C
330
1F
100
AcDbEntity
  8
0
  6
Continuous
 62
     7
370
    25
100
AcDbLine
 10
3586.0714649344
 20
6340.83892524
 30
0.0
 11
3587.8574659344
 21
6341.26069224
 31
0.0
  0
LINE
  5
28D
330
1F
100
AcDbEntity
  8
0
  6
Continuous
 62
     7
370
    25
100
AcDbLine
 10
3587.8574659344
 20
6341.26069224
 30
0.0
 11
3588.3751179344
 21
6343.40242024
 31
0.0
  0
LINE
  5
28E
330
1F
100
AcDbEntity
  8
0
  6
Continuous
 62
     7
370
    25
100
AcDbLine
 10
3588.3751179344
 20
6343.40242024
 30
0.0
 11
3596.0667459344
 21
6348.26944124
 31
0.0
  0
LINE
  5
28F
330
1F
100
AcDbEntity
  8
0
  6
Continuous
 62
     7
370
    25
100
AcDbLine
 10
3596.0667459344
 20
6348.26944124
 30
0.0
 11
3599.2130439344
 21
6347.58770524
 31
0.0
  0
LINE
  5
290
330
1F
100
AcDbEntity
  8
0
  6
Continuous
 62
     7
370
    25
100
AcDbLine
 10
3599.2130439344
 20
6347.58770524
 30
0.0
 11
3601.5170779344
 21
6348.95092324
 31
0.0
  0
LINE
  5
291
330
1F
100
AcDbEntity
  8
0
  6
Continuous
 62
     7
370
    25
100
AcDbLine
 10
3601.5170779344
 20
6348.95092324
 30
0.0
 11
3604.0800649344
 21
6349.11208624
 31
0.0
  0
LINE
  5
292
330
1F
100
AcDbEntity
  8
0
  6
Continuous
 62
     7
370
    25
100
AcDbLine
 10
3604.0800649344
 20
6349.11208624
 30
0.0
 11
3606.2221739344
 21
6351.15691324
 31
0.0
  0
LINE
  5
293
330
1F
100
AcDbEntity
  8
0
  6
Continuous
 62
     7
370
    25
100
AcDbLine
 10
3606.2221739344
 20
6351.15691324
 30
0.0
 11
3606.9030209344
 21
6352.51962324
 31
0.0
  0
LINE
  5
294
330
1F
100
AcDbEntity
  8
0
  6
Continuous
 62
     7
370
    25
100
AcDbLine
 10
3606.9030209344
 20
6352.51962324
 30
0.0
 11
3609.2070549344
 21
6352.61741324
 31
0.0
  0
LINE
  5
295
330
1F
100
AcDbEntity
  8
0
  6
Continuous
 62
     7
370
    25
100
AcDbLine
 10
3609.2070549344
 20
6352.61741324
 30
0.0
 11
3611.0560479344
 21
6354.14230224
 31
0.0
  0
LINE
  5
296
330
1F
100
AcDbEntity
  8
0
  6
Continuous
 62
     7
370
    25
100
AcDbLine
 10
3611.0560479344
 20
6354.14230224
 30
0.0
 11
3612.4512699344
 21
6353.81743624
 31
0.0
  0
LINE
  5
297
330
1F
100
AcDbEntity
  8
0
  6
Continuous
 62
     7
370
    25
100
AcDbLine
 10
3612.4512699344
 20
6353.81743624
 30
0.0
 11
3612.1918089344
 21
6352.35744424
 31
0.0
  0
LINE
  5
298
330
1F
100
AcDbEntity
  8
0
  6
Continuous
 62
     7
370
    25
100
AcDbLine
 10
3612.1918089344
 20
6352.35744424
 30
0.0
 11
3611.2516279344
 21
6352.35744424
 31
0.0
  0
LINE
  5
299
330
1F
100
AcDbEntity
  8
0
  6
Continuous
 62
     7
370
    25
100
AcDbLine
 10
3611.2516279344
 20
6352.35744424
 30
0.0
 11
3611.4126639344
 21
6349.95701724
 31
0.0
  0
LINE
  5
29A
330
1F
100
AcDbEntity
  8
0
  6
Continuous
 62
     7
370
    25
100
AcDbLine
 10
3611.4126639344
 20
6349.95701724
 30
0.0
 11
3614.6573869344
 21
6347.49067724
 31
0.0
  0
LINE
  5
29B
330
1F
100
AcDbEntity
  8
0
  6
Continuous
 62
     7
370
    25
100
AcDbLine
 10
3614.6573869344
 20
6347.49067724
 30
0.0
 11
3616.1177599344
 21
6348.33421124
 31
0.0
  0
LINE
  5
29C
330
1F
100
AcDbEntity
  8
0
  6
Continuous
 62
     7
370
    25
100
AcDbLine
 10
3616.1177599344
 20
6348.33421124
 30
0.0
 11
3617.1235999344
 21
6347.32811724
 31
0.0
  0
LINE
  5
29D
330
1F
100
AcDbEntity
  8
0
  6
Continuous
 62
     7
370
    25
100
AcDbLine
 10
3617.1235999344
 20
6347.32811724
 30
0.0
 11
3616.7994959344
 21
6343.24049524
 31
0.0
  0
LINE
  5
29E
330
1F
100
AcDbEntity
  8
0
  6
Continuous
 62
     7
370
    25
100
AcDbLine
 10
3616.7994959344
 20
6343.24049524
 30
0.0
 11
3617.7414549344
 21
6341.77986824
 31
0.0
  0
LINE
  5
29F
330
1F
100
AcDbEntity
  8
0
  6
Continuous
 62
     7
370
    25
100
AcDbLine
 10
3617.7414549344
 20
6341.77986824
 30
0.0
 11
3619.8494009344
 21
6339.99488324
 31
0.0
  0
LINE
  5
2A0
330
1F
100
AcDbEntity
  8
0
  6
Continuous
 62
     7
370
    25
100
AcDbLine
 10
3619.8494009344
 20
6339.99488324
 30
0.0
 11
3620.2707869344
 21
6338.43735524
 31
0.0
  0
LINE
  5
2A1
330
1F
100
AcDbEntity
  8
0
  6
Continuous
 62
     7
370
    25
100
AcDbLine
 10
3620.2707869344
 20
6338.43735524
 30
0.0
 11
3621.8288229344
 21
6337.33499524
 31
0.0
  0
LINE
  5
2A2
330
1F
100
AcDbEntity
  8
0
  6
Continuous
 62
     7
370
    25
100
AcDbLine
 10
3621.8288229344
 20
6337.33499524
 30
0.0
 11
3624.9116209344
 21
6336.65351324
 31
0.0
  0
LINE
  5
2A3
330
1F
100
AcDbEntity
  8
0
  6
Continuous
 62
     7
370
    25
100
AcDbLine
 10
3624.9116209344
 20
6336.65351324
 30
0.0
 11
3628.5784919344
 21
6333.24584924
 31
0.0
  0
LINE
  5
2A4
330
1F
100
AcDbEntity
  8
0
  6
Continuous
 62
     7
370
    25
100
AcDbLine
 10
3628.5784919344
 20
6333.24584924
 30
0.0
 11
3629.5835699344
 21
6333.50594524
 31
0.0
  0
LINE
  5
2A5
330
1F
100
AcDbEntity
  8
0
  6
Continuous
 62
     7
370
    25
100
AcDbLine
 10
3629.5835699344
 20
6333.50594524
 30
0.0
 11
3630.8812559344
 21
6332.14387024
 31
0.0
  0
LINE
  5
2A6
330
1F
100
AcDbEntity
  8
0
  6
Continuous
 62
     7
370
    25
100
AcDbLine
 10
3630.8812559344
 20
6332.14387024
 30
0.0
 11
3631.9527549344
 21
6331.00683924
 31
0.0
  0
LINE
  5
2A7
330
1F
100
AcDbEntity
  8
0
  6
Continuous
 62
     7
370
    25
100
AcDbLine
 10
3631.9527549344
 20
6331.00683924
 30
0.0
 11
3630.7837199344
 21
6330.00226924
 31
0.0
  0
LINE
  5
2A8
330
1F
100
AcDbEntity
  8
0
  6
Continuous
 62
     7
370
    25
100
AcDbLine
 10
3630.7837199344
 20
6330.00226924
 30
0.0
 11
3632.0499099344
 21
6328.05523224
 31
0.0
  0
LINE
  5
2A9
330
1F
100
AcDbEntity
  8
0
  6
Continuous
 62
     7
370
    25
100
AcDbLine
 10
3632.0499099344
 20
6328.05523224
 30
0.0
 11
3632.9254479344
 21
6327.11416224
 31
0.0
  0
LINE
  5
2AA
330
1F
100
AcDbEntity
  8
0
  6
Continuous
 62
     7
370
    25
100
AcDbLine
 10
3632.9254479344
 20
6327.11416224
 30
0.0
 11
3630.8812559344
 21
6326.85419324
 31
0.0
  0
LINE
  5
2AB
330
1F
100
AcDbEntity
  8
0
  6
Continuous
 62
     7
370
    25
100
AcDbLine
 10
3630.8812559344
 20
6326.85419324
 30
0.0
 11
3630.5246399344
 21
6325.65302724
 31
0.0
  0
LINE
  5
2AC
330
1F
100
AcDbEntity
  8
0
  6
Continuous
 62
     7
370
    25
100
AcDbLine
 10
3630.5246399344
 20
6325.65302724
 30
0.0
 11
3632.5040619344
 21
6324.61607224
 31
0.0
  0
LINE
  5
2AD
330
1F
100
AcDbEntity
  8
0
  6
Continuous
 62
     7
370
    25
100
AcDbLine
 10
3632.5040619344
 20
6324.61607224
 30
0.0
 11
3630.6865649344
 21
6322.83096024
 31
0.0
  0
LINE
  5
2AE
330
1F
100
AcDbEntity
  8
0
  6
Continuous
 62
     7
370
    25
100
AcDbLine
 10
3630.6865649344
 20
6322.83096024
 30
0.0
 11
3628.9032309344
 21
6322.66840024
 31
0.0
  0
LINE
  5
2AF
330
1F
100
AcDbEntity
  8
0
  6
Continuous
 62
     7
370
    25
100
AcDbLine
 10
3628.9032309344
 20
6322.66840024
 30
0.0
 11
3629.4216449344
 21
6321.30556324
 31
0.0
  0
LINE
  5
2B0
330
1F
100
AcDbEntity
  8
0
  6
Continuous
 62
     7
370
    25
100
AcDbLine
 10
3629.4216449344
 20
6321.30556324
 30
0.0
 11
3630.6865649344
 21
6321.14363824
 31
0.0
  0
LINE
  5
2B1
330
1F
100
AcDbEntity
  8
0
  6
Continuous
 62
     7
370
    25
100
AcDbLine
 10
3630.6865649344
 20
6321.14363824
 30
0.0
 11
3631.1074429344
 21
6319.32614124
 31
0.0
  0
LINE
  5
2B2
330
1F
100
AcDbEntity
  8
0
  6
Continuous
 62
     7
370
    25
100
AcDbLine
 10
3631.1074429344
 20
6319.32614124
 30
0.0
 11
3631.7265679344
 21
6318.32093624
 31
0.0
  0
LINE
  5
2B3
330
1F
100
AcDbEntity
  8
0
  6
Continuous
 62
     7
370
    25
100
AcDbLine
 10
3631.7265679344
 20
6318.32093624
 30
0.0
 11
3631.6281429344
 21
6317.38075524
 31
0.0
  0
LINE
  5
2B4
330
1F
100
AcDbEntity
  8
0
  6
Continuous
 62
     7
370
    25
100
AcDbLine
 10
3631.6281429344
 20
6317.38075524
 30
0.0
 11
3630.5246399344
 21
6316.95784524
 31
0.0
  0
LINE
  5
2B5
330
1F
100
AcDbEntity
  8
0
  6
Continuous
 62
     7
370
    25
100
AcDbLine
 10
3630.5246399344
 20
6316.95784524
 30
0.0
 11
3629.6811059344
 21
6313.35625224
 31
0.0
  0
LINE
  5
2B6
330
1F
100
AcDbEntity
  8
0
  6
Continuous
 62
     7
370
    25
100
AcDbLine
 10
3629.6811059344
 20
6313.35625224
 30
0.0
 11
3627.9629229344
 21
6313.45328024
 31
0.0
  0
LINE
  5
2B7
330
1F
100
AcDbEntity
  8
0
  6
Continuous
 62
     7
370
    25
100
AcDbLine
 10
3627.9629229344
 20
6313.45328024
 30
0.0
 11
3627.7030809344
 21
6312.41543624
 31
0.0
  0
LINE
  5
2B8
330
1F
100
AcDbEntity
  8
0
  6
Continuous
 62
     7
370
    25
100
AcDbLine
 10
3627.7030809344
 20
6312.41543624
 30
0.0
 11
3629.0646479344
 21
6312.25300324
 31
0.0
  0
LINE
  5
2B9
330
1F
100
AcDbEntity
  8
0
  6
Continuous
 62
     7
370
    25
100
AcDbLine
 10
3629.0646479344
 20
6312.25300324
 30
0.0
 11
3626.8577689344
 21
6310.98757524
 31
0.0
  0
LINE
  5
2BA
330
1F
100
AcDbEntity
  8
0
  6
Continuous
 62
     7
370
    25
100
AcDbLine
 10
3626.8577689344
 20
6310.98757524
 30
0.0
 11
3626.7606139344
 21
6306.96446924
 31
0.0
  0
LINE
  5
2BB
330
1F
100
AcDbEntity
  8
0
  6
Continuous
 62
     7
370
    25
100
AcDbLine
 10
3626.7606139344
 20
6306.96446924
 30
0.0
 11
3627.5389969344
 21
6306.80190924
 31
0.0
  0
LINE
  5
2BC
330
1F
100
AcDbEntity
  8
0
  6
Continuous
 62
     7
370
    25
100
AcDbLine
 10
3627.5389969344
 20
6306.80190924
 30
0.0
 11
3627.5389969344
 21
6305.43970724
 31
0.0
  0
LINE
  5
2BD
330
1F
100
AcDbEntity
  8
0
  6
Continuous
 62
     7
370
    25
100
AcDbLine
 10
3627.5389969344
 20
6305.43970724
 30
0.0
 11
3628.5784919344
 21
6304.56353424
 31
0.0
  0
LINE
  5
2BE
330
1F
100
AcDbEntity
  8
0
  6
Continuous
 62
     7
370
    25
100
AcDbLine
 10
3628.5784919344
 20
6304.56353424
 30
0.0
 11
3628.4800669344
 21
6301.93577724
 31
0.0
  0
LINE
  5
2BF
330
1F
100
AcDbEntity
  8
0
  6
Continuous
 62
     7
370
    25
100
AcDbLine
 10
3628.4800669344
 20
6301.93577724
 30
0.0
 11
3629.3241089344
 21
6301.31868424
 31
0.0
  0
LINE
  5
2C0
330
1F
100
AcDbEntity
  8
0
  6
Continuous
 62
     7
370
    25
100
AcDbLine
 10
3629.3241089344
 20
6301.31868424
 30
0.0
 11
3630.9460259344
 21
6301.15561624
 31
0.0
  0
LINE
  5
2C1
330
1F
100
AcDbEntity
  8
0
  6
Continuous
 62
     7
370
    25
100
AcDbLine
 10
3630.9460259344
 20
6301.15561624
 30
0.0
 11
3630.8812559344
 21
6300.21632424
 31
0.0
  0
LINE
  5
2C2
330
1F
100
AcDbEntity
  8
0
  6
Continuous
 62
     7
370
    25
100
AcDbLine
 10
3630.8812559344
 20
6300.21632424
 30
0.0
 11
3629.4216449344
 21
6300.05325624
 31
0.0
  0
LINE
  5
2C3
330
1F
100
AcDbEntity
  8
0
  6
Continuous
 62
     7
370
    25
100
AcDbLine
 10
3629.4216449344
 20
6300.05325624
 30
0.0
 11
3629.6811059344
 21
6299.01477724
 31
0.0
  0
LINE
  5
2C4
330
1F
100
AcDbEntity
  8
0
  6
Continuous
 62
     7
370
    25
100
AcDbLine
 10
3629.6811059344
 20
6299.01477724
 30
0.0
 11
3628.7407979344
 21
6298.07370724
 31
0.0
  0
LINE
  5
2C5
330
1F
100
AcDbEntity
  8
0
  6
Continuous
 62
     7
370
    25
100
AcDbLine
 10
3628.7407979344
 20
6298.07370724
 30
0.0
 11
3628.6423729344
 21
6297.32770924
 31
0.0
  0
LINE
  5
2C6
330
1F
100
AcDbEntity
  8
0
  6
Continuous
 62
     7
370
    25
100
AcDbLine
 10
3628.6423729344
 20
6297.32770924
 30
0.0
 11
3628.6752659344
 21
6297.00373224
 31
0.0
  0
LINE
  5
2C7
330
1F
100
AcDbEntity
  8
0
  6
Continuous
 62
     7
370
    25
100
AcDbLine
 10
3628.6752659344
 20
6297.00373224
 30
0.0
 11
3628.2214949344
 21
6295.96525324
 31
0.0
  0
LINE
  5
2C8
330
1F
100
AcDbEntity
  8
0
  6
Continuous
 62
     7
370
    25
100
AcDbLine
 10
3628.2214949344
 20
6295.96525324
 30
0.0
 11
3626.5007719344
 21
6296.12692424
 31
0.0
  0
LINE
  5
2C9
330
1F
100
AcDbEntity
  8
0
  6
Continuous
 62
     7
370
    25
100
AcDbLine
 10
3626.5007719344
 20
6296.12692424
 30
0.0
 11
3621.7312869344
 21
6297.16540324
 31
0.0
  0
LINE
  5
2CA
330
1F
100
AcDbEntity
  8
0
  6
Continuous
 62
     7
370
    25
100
AcDbLine
 10
3621.7312869344
 20
6297.16540324
 30
0.0
 11
3621.5698699344
 21
6296.64584624
 31
0.0
  0
LINE
  5
2CB
330
1F
100
AcDbEntity
  8
0
  6
Continuous
 62
     7
370
    25
100
AcDbLine
 10
3621.5698699344
 20
6296.64584624
 30
0.0
 11
3619.4263639344
 21
6296.54894524
 31
0.0
  0
LINE
  5
2CC
330
1F
100
AcDbEntity
  8
0
  6
Continuous
 62
     7
370
    25
100
AcDbLine
 10
3619.4263639344
 20
6296.54894524
 30
0.0
 11
3618.9092199344
 21
6295.77107024
 31
0.0
  0
LINE
  5
2CD
330
1F
100
AcDbEntity
  8
0
  6
Continuous
 62
     7
370
    25
100
AcDbLine
 10
3618.9092199344
 20
6295.77107024
 30
0.0
 11
3617.9672609344
 21
6293.66160024
 31
0.0
  0
LINE
  5
2CE
330
1F
100
AcDbEntity
  8
0
  6
Continuous
 62
     7
370
    25
100
AcDbLine
 10
3617.9672609344
 20
6293.66160024
 30
0.0
 11
3621.3086309344
 21
6292.10381824
 31
0.0
  0
LINE
  5
2CF
330
1F
100
AcDbEntity
  8
0
  6
Continuous
 62
     7
370
    25
100
AcDbLine
 10
3621.3086309344
 20
6292.10381824
 30
0.0
 11
3619.8494009344
 21
6290.93592624
 31
0.0
  0
LINE
  5
2D0
330
1F
100
AcDbEntity
  8
0
  6
Continuous
 62
     7
370
    25
100
AcDbLine
 10
3619.8494009344
 20
6290.93592624
 30
0.0
 11
3617.5454939344
 21
6290.48152024
 31
0.0
  0
LINE
  5
2D1
330
1F
100
AcDbEntity
  8
0
  6
Continuous
 62
     7
370
    25
100
AcDbLine
 10
3617.5454939344
 20
6290.48152024
 30
0.0
 11
3617.3835689344
 21
6289.73526824
 31
0.0
  0
LINE
  5
2D2
330
1F
100
AcDbEntity
  8
0
  6
Continuous
 62
     7
370
    25
100
AcDbLine
 10
3617.3835689344
 20
6289.73526824
 30
0.0
 11
3617.8049549344
 21
6288.17723224
 31
0.0
  0
LINE
  5
2D3
330
1F
100
AcDbEntity
  8
0
  6
Continuous
 62
     7
370
    25
100
AcDbLine
 10
3617.8049549344
 20
6288.17723224
 30
0.0
 11
3615.5016829344
 21
6286.91193124
 31
0.0
  0
LINE
  5
2D4
330
1F
100
AcDbEntity
  8
0
  6
Continuous
 62
     7
370
    25
100
AcDbLine
 10
3615.5016829344
 20
6286.91193124
 30
0.0
 11
3615.3407739344
 21
6284.60904024
 31
0.0
  0
LINE
  5
2D5
330
1F
100
AcDbEntity
  8
0
  6
Continuous
 62
     7
370
    25
100
AcDbLine
 10
3615.3407739344
 20
6284.60904024
 30
0.0
 11
3613.9774289344
 21
6284.77109224
 31
0.0
  0
LINE
  5
2D6
330
1F
100
AcDbEntity
  8
0
  6
Continuous
 62
     7
370
    25
100
AcDbLine
 10
3613.9774289344
 20
6284.77109224
 30
0.0
 11
3613.1324979344
 21
6283.57005324
 31
0.0
  0
LINE
  5
2D7
330
1F
100
AcDbEntity
  8
0
  6
Continuous
 62
     7
370
    25
100
AcDbLine
 10
3613.1324979344
 20
6283.57005324
 30
0.0
 11
3612.0942729344
 21
6283.66771624
 31
0.0
  0
LINE
  5
2D8
330
1F
100
AcDbEntity
  8
0
  6
Continuous
 62
     7
370
    25
100
AcDbLine
 10
3612.0942729344
 20
6283.66771624
 30
0.0
 11
3612.0942729344
 21
6282.82418224
 31
0.0
  0
LINE
  5
2D9
330
1F
100
AcDbEntity
  8
0
  6
Continuous
 62
     7
370
    25
100
AcDbLine
 10
3612.0942729344
 20
6282.82418224
 30
0.0
 11
3614.3007709344
 21
6281.26627324
 31
0.0
  0
LINE
  5
2DA
330
1F
100
AcDbEntity
  8
0
  6
Continuous
 62
     7
370
    25
100
AcDbLine
 10
3614.3007709344
 20
6281.26627324
 30
0.0
 11
3614.1388459344
 21
6280.58529924
 31
0.0
  0
LINE
  5
2DB
330
1F
100
AcDbEntity
  8
0
  6
Continuous
 62
     7
370
    25
100
AcDbLine
 10
3614.1388459344
 20
6280.58529924
 30
0.0
 11
3611.9328559344
 21
6280.94216924
 31
0.0
  0
LINE
  5
2DC
330
1F
100
AcDbEntity
  8
0
  6
Continuous
 62
     7
370
    25
100
AcDbLine
 10
3611.9328559344
 20
6280.94216924
 30
0.0
 11
3611.5114699344
 21
6280.42337424
 31
0.0
  0
LINE
  5
2DD
330
1F
100
AcDbEntity
  8
0
  6
Continuous
 62
     7
370
    25
100
AcDbLine
 10
3611.5114699344
 20
6280.42337424
 30
0.0
 11
3610.2116249344
 21
6280.16353224
 31
0.0
  0
LINE
  5
2DE
330
1F
100
AcDbEntity
  8
0
  6
Continuous
 62
     7
370
    25
100
AcDbLine
 10
3610.2116249344
 20
6280.16353224
 30
0.0
 11
3609.2070549344
 21
6278.28126524
 31
0.0
  0
LINE
  5
2DF
330
1F
100
AcDbEntity
  8
0
  6
Continuous
 62
     7
370
    25
100
AcDbLine
 10
3609.2070549344
 20
6278.28126524
 30
0.0
 11
3609.2070549344
 21
6275.65325424
 31
0.0
  0
LINE
  5
2E0
330
1F
100
AcDbEntity
  8
0
  6
Continuous
 62
     7
370
    25
100
AcDbLine
 10
3609.2070549344
 20
6275.65325424
 30
0.0
 11
3607.2290299344
 21
6276.23720024
 31
0.0
  0
LINE
  5
2E1
330
1F
100
AcDbEntity
  8
0
  6
Continuous
 62
     7
370
    25
100
AcDbLine
 10
3607.2290299344
 20
6276.23720024
 30
0.0
 11
3607.2290299344
 21
6277.69782724
 31
0.0
  0
LINE
  5
2E2
330
1F
100
AcDbEntity
  8
0
  6
Continuous
 62
     7
370
    25
100
AcDbLine
 10
3607.2290299344
 20
6277.69782724
 30
0.0
 11
3606.1251459344
 21
6277.79523624
 31
0.0
  0
LINE
  5
2E3
330
1F
100
AcDbEntity
  8
0
  6
Continuous
 62
     7
370
    25
100
AcDbLine
 10
3606.1251459344
 20
6277.79523624
 30
0.0
 11
3605.6048269344
 21
6275.39379324
 31
0.0
  0
LINE
  5
2E4
330
1F
100
AcDbEntity
  8
0
  6
Continuous
 62
     7
370
    25
100
AcDbLine
 10
3605.6048269344
 20
6275.39379324
 30
0.0
 11
3604.2423709344
 21
6275.97748524
 31
0.0
  0
LINE
  5
2E5
330
1F
100
AcDbEntity
  8
0
  6
Continuous
 62
     7
370
    25
100
AcDbLine
 10
3604.2423709344
 20
6275.97748524
 30
0.0
 11
3603.3025709344
 21
6274.61502924
 31
0.0
  0
LINE
  5
2E6
330
1F
100
AcDbEntity
  8
0
  6
Continuous
 62
     7
370
    25
100
AcDbLine
 10
3603.3025709344
 20
6274.61502924
 30
0.0
 11
3605.0216429344
 21
6272.73301624
 31
0.0
  0
LINE
  5
2E7
330
1F
100
AcDbEntity
  8
0
  6
Continuous
 62
     7
370
    25
100
AcDbLine
 10
3605.0216429344
 20
6272.73301624
 30
0.0
 11
3604.4051849344
 21
6272.05140724
 31
0.0
  0
LINE
  5
2E8
330
1F
100
AcDbEntity
  8
0
  6
Continuous
 62
     7
370
    25
100
AcDbLine
 10
3604.4051849344
 20
6272.05140724
 30
0.0
 11
3602.1991949344
 21
6274.61502924
 31
0.0
  0
LINE
  5
2E9
330
1F
100
AcDbEntity
  8
0
  6
Continuous
 62
     7
370
    25
100
AcDbLine
 10
3602.1991949344
 20
6274.61502924
 30
0.0
 11
3601.6797649344
 21
6273.93443624
 31
0.0
  0
LINE
  5
2EA
330
1F
100
AcDbEntity
  8
0
  6
Continuous
 62
     7
370
    25
100
AcDbLine
 10
3601.6797649344
 20
6273.93443624
 30
0.0
 11
3600.9328779344
 21
6274.61502924
 31
0.0
  0
LINE
  5
2EB
330
1F
100
AcDbEntity
  8
0
  6
Continuous
 62
     7
370
    25
100
AcDbLine
 10
3600.9328779344
 20
6274.61502924
 30
0.0
 11
3598.7925469344
 21
6274.45246924
 31
0.0
  0
LINE
  5
2EC
330
1F
100
AcDbEntity
  8
0
  6
Continuous
 62
     7
370
    25
100
AcDbLine
 10
3598.7925469344
 20
6274.45246924
 30
0.0
 11
3598.5309269344
 21
6272.99311224
 31
0.0
  0
LINE
  5
2ED
330
1F
100
AcDbEntity
  8
0
  6
Continuous
 62
     7
370
    25
100
AcDbLine
 10
3598.5309269344
 20
6272.99311224
 30
0.0
 11
3597.3316659344
 21
6272.92808824
 31
0.0
  0
LINE
  5
2EE
330
1F
100
AcDbEntity
  8
0
  6
Continuous
 62
     7
370
    25
100
AcDbLine
 10
3597.3316659344
 20
6272.92808824
 30
0.0
 11
3596.3913579344
 21
6274.19389724
 31
0.0
  0
LINE
  5
2EF
330
1F
100
AcDbEntity
  8
0
  6
Continuous
 62
     7
370
    25
100
AcDbLine
 10
3596.3913579344
 20
6274.19389724
 30
0.0
 11
3595.7097489344
 21
6273.67395924
 31
0.0
  0
LINE
  5
2F0
330
1F
100
AcDbEntity
  8
0
  6
Continuous
 62
     7
370
    25
100
AcDbLine
 10
3595.7097489344
 20
6273.67395924
 30
0.0
 11
3594.9300959344
 21
6273.93443624
 31
0.0
  0
LINE
  5
2F1
330
1F
100
AcDbEntity
  8
0
  6
Continuous
 62
     7
370
    25
100
AcDbLine
 10
3594.9300959344
 20
6273.93443624
 30
0.0
 11
3593.8262119344
 21
6272.73301624
 31
0.0
  0
LINE
  5
2F2
330
1F
100
AcDbEntity
  8
0
  6
Continuous
 62
     7
370
    25
100
AcDbLine
 10
3593.8262119344
 20
6272.73301624
 30
0.0
 11
3594.0860539344
 21
6271.30553624
 31
0.0
  0
LINE
  5
2F3
330
1F
100
AcDbEntity
  8
0
  6
Continuous
 62
     7
370
    25
100
AcDbLine
 10
3594.0860539344
 20
6271.30553624
 30
0.0
 11
3594.9300959344
 21
6270.62456224
 31
0.0
  0
ENDSEC
  0
SECTION
  2
OBJECTS
  0
DICTIONARY
  5
C
330
0
100
AcDbDictionary
281
     1
  3
ACAD_GROUP
350
D
  3
ACAD_LAYOUT
350
1A
  3
ACAD_MLINESTYLE
350
17
  3
ACAD_PLOTSETTINGS
350
19
  3
ACAD_PLOTSTYLENAME
350
E
  3
ACAD_SCALELIST
350
47
  0
DICTIONARY
  5
D
102
{ACAD_REACTORS
330
C
102
}
330
C
100
AcDbDictionary
281
     1
  0
DICTIONARY
  5
1A
102
{ACAD_REACTORS
330
C
102
}
330
C
100
AcDbDictionary
281
     1
  3
Layout1
350
1E
  3
Layout2
350
26
  3
Model
350
22
  0
DICTIONARY
  5
17
102
{ACAD_REACTORS
330
C
102
}
330
C
100
AcDbDictionary
281
     1
  3
Standard
350
18
  0
DICTIONARY
  5
19
102
{ACAD_REACTORS
330
C
102
}
330
C
100
AcDbDictionary
281
     1
  0
ACDBDICTIONARYWDFLT
  5
E
102
{ACAD_REACTORS
330
C
102
}
330
C
100
AcDbDictionary
281
     1
  3
Normal
350
F
100
AcDbDictionaryWithDefault
340
F
  0
DICTIONARY
  5
47
102
{ACAD_REACTORS
330
C
102
}
330
C
100
AcDbDictionary
281
     1
  3
A0
350
48
  3
A1
350
49
  3
A2
350
4A
  3
A3
350
4B
  3
A4
350
4C
  3
A5
350
4D
  3
A6
350
4E
  3
A7
350
4F
  3
A8
350
50
  3
A9
350
51
  3
B0
350
52
  3
B1
350
53
  3
B2
350
54
  3
B3
350
55
  3
B4
350
56
  3
B5
350
57
  3
B6
350
58
  3
B7
350
59
  3
B8
350
5A
  3
B9
350
5B
  3
C0
350
5C
  3
C1
350
5D
  3
C2
350
5E
  3
C3
350
5F
  3
C4
350
60
  3
C5
350
61
  3
C6
350
62
  3
C7
350
63
  3
C8
350
64
  3
C9
350
65
  3
D0
350
66
  3
D1
350
67
  3
D2
350
68
  0
LAYOUT
  5
1E
102
{ACAD_REACTORS
330
1A
102
}
330
1A
100
AcDbPlotSettings
  1

  2
none_device
  4

  6

 40
0.0
 41
0.0
 42
0.0
 43
0.0
 44
0.0
 45
0.0
 46
0.0
 47
0.0
 48
0.0
 49
0.0
140
0.0
141
0.0
142
1.0
143
1.0
 70
   688
 72
     1
 73
     0
 74
     5
  7

 75
    16
147
1.0
148
0.0
149
0.0
100
AcDbLayout
  1
Layout1
 70
     1
 71
     1
 10
0.0
 20
0.0
 11
420.0
 21
297.0
 12
0.0
 22
0.0
 32
0.0
 14
1.0000000000E+20
 24
1.0000000000E+20
 34
1.0000000000E+20
 15
-1.0000000000E+20
 25
-1.0000000000E+20
 35
-1.0000000000E+20
146
0.0
 13
0.0
 23
0.0
 33
0.0
 16
1.0
 26
0.0
 36
0.0
 17
0.0
 27
1.0
 37
0.0
 76
     0
330
1B
  0
LAYOUT
  5
26
102
{ACAD_REACTORS
330
1A
102
}
330
1A
100
AcDbPlotSettings
  1

  2
none_device
  4

  6

 40
0.0
 41
0.0
 42
0.0
 43
0.0
 44
0.0
 45
0.0
 46
0.0
 47
0.0
 48
0.0
 49
0.0
140
0.0
141
0.0
142
1.0
143
1.0
 70
   688
 72
     1
 73
     0
 74
     5
  7

 75
    16
147
1.0
148
0.0
149
0.0
100
AcDbLayout
  1
Layout2
 70
     1
 71
     2
 10
0.0
 20
0.0
 11
0.0
 21
0.0
 12
0.0
 22
0.0
 32
0.0
 14
0.0
 24
0.0
 34
0.0
 15
0.0
 25
0.0
 35
0.0
146
0.0
 13
0.0
 23
0.0
 33
0.0
 16
1.0
 26
0.0
 36
0.0
 17
0.0
 27
1.0
 37
0.0
 76
     0
330
23
  0
LAYOUT
  5
22
102
{ACAD_REACTORS
330
1A
102
}
330
1A
100
AcDbPlotSettings
  1

  2
none_device
  4
ANSI_A_(11.00_x_8.50_Inches)
  6

 40
6.35
 41
19.05
 42
6.35000508
 43
19.05000254
 44
279.4
 45
215.9
 46
-8033.697158214
 47
-14287.6299577792
 48
0.0
 49
0.0
140
0.0
141
0.0
142
0.0897387231
143
1.0
 70
  1696
 72
     0
 73
     0
 74
     0
  7

 75
     0
147
0.0179189148
148
-1300.4909072572
149
0.0
100
AcDbLayout
  1
Model
 70
     1
 71
     0
 10
0.0
 20
0.0
 11
420.0
 21
297.0
 12
0.0
 22
0.0
 32
0.0
 14
3533.1513269344
 24
6260.37007424
 34
0.0
 15
3632.9254479344
 25
6354.14230224
 35
0.0
146
0.0
 13
0.0
 23
0.0
 33
0.0
 16
1.0
 26
0.0
 36
0.0
 17
0.0
 27
1.0
 37
0.0
 76
     0
330
1F
331
29
  0
MLINESTYLE
  5
18
102
{ACAD_REACTORS
330
17
102
}
330
17
100
AcDbMlineStyle
  2
Standard
 70
     0
  3

 62
   256
 51
90.0
 52
90.0
 71
     2
 49
0.5
 62
   256
  6
BYLAYER
 49
-0.5
 62
   256
  6
BYLAYER
  0
ACDBPLACEHOLDER
  5
F
102
{ACAD_REACTORS
330
E
102
}
330
E
  0
SCALE
  5
48
102
{ACAD_REACTORS
330
47
102
}
330
47
100
AcDbScale
 70
     0
300
1:1
140
1.0
141
1.0
290
     1
  0
SCALE
  5
49
102
{ACAD_REACTORS
330
47
102
}
330
47
100
AcDbScale
 70
     0
300
1:2
140
1.0
141
2.0
290
     0
  0
SCALE
  5
4A
102
{ACAD_REACTORS
330
47
102
}
330
47
100
AcDbScale
 70
     0
300
1:4
140
1.0
141
4.0
290
     0
  0
SCALE
  5
4B
102
{ACAD_REACTORS
330
47
102
}
330
47
100
AcDbScale
 70
     0
300
1:5
140
1.0
141
5.0
290
     0
  0
SCALE
  5
4C
102
{ACAD_REACTORS
330
47
102
}
330
47
100
AcDbScale
 70
     0
300
1:8
140
1.0
141
8.0
290
     0
  0
SCALE
  5
4D
102
{ACAD_REACTORS
330
47
102
}
330
47
100
AcDbScale
 70
     0
300
1:10
140
1.0
141
10.0
290
     0
  0
SCALE
  5
4E
102
{ACAD_REACTORS
330
47
102
}
330
47
100
AcDbScale
 70
     0
300
1:16
140
1.0
141
16.0
290
     0
  0
SCALE
  5
4F
102
{ACAD_REACTORS
330
47
102
}
330
47
100
AcDbScale
 70
     0
300
1:20
140
1.0
141
20.0
290
     0
  0
SCALE
  5
50
102
{ACAD_REACTORS
330
47
102
}
330
47
100
AcDbScale
 70
     0
300
1:30
140
1.0
141
30.0
290
     0
  0
SCALE
  5
51
102
{ACAD_REACTORS
330
47
102
}
330
47
100
AcDbScale
 70
     0
300
1:40
140
1.0
141
40.0
290
     0
  0
SCALE
  5
52
102
{ACAD_REACTORS
330
47
102
}
330
47
100
AcDbScale
 70
     0
300
1:50
140
1.0
141
50.0
290
     0
  0
SCALE
  5
53
102
{ACAD_REACTORS
330
47
102
}
330
47
100
AcDbScale
 70
     0
300
1:100
140
1.0
141
100.0
290
     0
  0
SCALE
  5
54
102
{ACAD_REACTORS
330
47
102
}
330
47
100
AcDbScale
 70
     0
300
2:1
140
2.0
141
1.0
290
     0
  0
SCALE
  5
55
102
{ACAD_REACTORS
330
47
102
}
330
47
100
AcDbScale
 70
     0
300
4:1
140
4.0
141
1.0
290
     0
  0
SCALE
  5
56
102
{ACAD_REACTORS
330
47
102
}
330
47
100
AcDbScale
 70
     0
300
8:1
140
8.0
141
1.0
290
     0
  0
SCALE
  5
57
102
{ACAD_REACTORS
330
47
102
}
330
47
100
AcDbScale
 70
     0
300
10:1
140
10.0
141
1.0
290
     0
  0
SCALE
  5
58
102
{ACAD_REACTORS
330
47
102
}
330
47
100
AcDbScale
 70
     0
300
100:1
140
100.0
141
1.0
290
     0
  0
SCALE
  5
59
102
{ACAD_REACTORS
330
47
102
}
330
47
100
AcDbScale
 70
     0
300
1/128" = 1'-0"
140
0.0078125
141
12.0
290
     0
  0
SCALE
  5
5A
102
{ACAD_REACTORS
330
47
102
}
330
47
100
AcDbScale
 70
     0
300
1/64" = 1'-0"
140
0.015625
141
12.0
290
     0
  0
SCALE
  5
5B
102
{ACAD_REACTORS
330
47
102
}
330
47
100
AcDbScale
 70
     0
300
1/32" = 1'-0"
140
0.03125
141
12.0
290
     0
  0
SCALE
  5
5C
102
{ACAD_REACTORS
330
47
102
}
330
47
100
AcDbScale
 70
     0
300
1/16" = 1'-0"
140
0.0625
141
12.0
290
     0
  0
SCALE
  5
5D
102
{ACAD_REACTORS
330
47
102
}
330
47
100
AcDbScale
 70
     0
300
3/32" = 1'-0"
140
0.09375
141
12.0
290
     0
  0
SCALE
  5
5E
102
{ACAD_REACTORS
330
47
102
}
330
47
100
AcDbScale
 70
     0
300
1/8" = 1'-0"
140
0.125
141
12.0
290
     0
  0
SCALE
  5
5F
102
{ACAD_REACTORS
330
47
102
}
330
47
100
AcDbScale
 70
     0
300
3/16" = 1'-0"
140
0.1875
141
12.0
290
     0
  0
SCALE
  5
60
102
{ACAD_REACTORS
330
47
102
}
330
47
100
AcDbScale
 70
     0
300
1/4" = 1'-0"
140
0.25
141
12.0
290
     0
  0
SCALE
  5
61
102
{ACAD_REACTORS
330
47
102
}
330
47
100
AcDbScale
 70
     0
300
3/8" = 1'-0"
140
0.375
141
12.0
290
     0
  0
SCALE
  5
62
102
{ACAD_REACTORS
330
47
102
}
330
47
100
AcDbScale
 70
     0
300
1/2" = 1'-0"
140
0.5
141
12.0
290
     0
  0
SCALE
  5
63
102
{ACAD_REACTORS
330
47
102
}
330
47
100
AcDbScale
 70
     0
300
3/4" = 1'-0"
140
0.75
141
12.0
290
     0
  0
SCALE
  5
64
102
{ACAD_REACTORS
330
47
102
}
330
47
100
AcDbScale
 70
     0
300
1" = 1'-0"
140
1.0
141
12.0
290
     0
  0
SCALE
  5
65
102
{ACAD_REACTORS
330
47
102
}
330
47
100
AcDbScale
 70
     0
300
1-1/2" = 1'-0"
140
1.5
141
12.0
290
     0
  0
SCALE
  5
66
102
{ACAD_REACTORS
330
47
102
}
330
47
100
AcDbScale
 70
     0
300
3" = 1'-0"
140
3.0
141
12.0
290
     0
  0
SCALE
  5
67
102
{ACAD_REACTORS
330
47
102
}
330
47
100
AcDbScale
 70
     0
300
6" = 1'-0"
140
6.0
141
12.0
290
     0
  0
SCALE
  5
68
102
{ACAD_REACTORS
330
47
102
}
330
47
100
AcDbScale
 70
     0
300
1'-0" = 1'-0"
140
12.0
141
12.0
290
     0
  0
ENDSEC
  0
EOF
