  0
SECTION
  2
HEADER
  9
$ACADVER
  1
AC1015
  9
$ACADMAINTVER
 70
     6
  9
$DWGCODEPAGE
  3
ANSI_1251
  9
$INSBASE
 10
0.0
 20
0.0
 30
0.0
  9
$EXTMIN
 10
4719.0314819658
 20
1496.5304775491
 30
0.0
  9
$EXTMAX
 10
4829.6422589658
 20
1571.6469135491
 30
0.0
  9
$LIMMIN
 10
0.0
 20
0.0
  9
$LIMMAX
 10
420.0
 20
297.0
  9
$ORTHOMODE
 70
     0
  9
$REGENMODE
 70
     1
  9
$FILLMODE
 70
     1
  9
$QTEXTMODE
 70
     0
  9
$MIRRTEXT
 70
     1
  9
$LTSCALE
 40
1.0
  9
$ATTMODE
 70
     1
  9
$TEXTSIZE
 40
4.0
  9
$TRACEWID
 40
1.0
  9
$TEXTSTYLE
  7
Standard
  9
$CLAYER
  8
0
  9
$CELTYPE
  6
ByLayer
  9
$CECOLOR
 62
   256
  9
$CELTSCALE
 40
1.0
  9
$DISPSILH
 70
     0
  9
$DIMSCALE
 40
1.0
  9
$DIMASZ
 40
6.0
  9
$DIMEXO
 40
1.0
  9
$DIMDLI
 40
3.75
  9
$DIMRND
 40
0.0
  9
$DIMDLE
 40
0.0
  9
$DIMEXE
 40
1.0
  9
$DIMTP
 40
0.0
  9
$DIMTM
 40
0.0
  9
$DIMTXT
 40
4.0
  9
$DIMCEN
 40
2.5
  9
$DIMTSZ
 40
0.0
  9
$DIMTOL
 70
     0
  9
$DIMLIM
 70
     0
  9
$DIMTIH
 70
     1
  9
$DIMTOH
 70
     1
  9
$DIMSE1
 70
     0
  9
$DIMSE2
 70
     0
  9
$DIMTAD
 70
     1
  9
$DIMZIN
 70
     0
  9
$DIMBLK
  1

  9
$DIMASO
 70
     1
  9
$DIMSHO
 70
     1
  9
$DIMPOST
  1

  9
$DIMAPOST
  1

  9
$DIMALT
 70
     0
  9
$DIMALTD
 70
     3
  9
$DIMALTF
 40
0.0393700787
  9
$DIMLFAC
 40
1.0
  9
$DIMTOFL
 70
     1
  9
$DIMTVP
 40
0.0
  9
$DIMTIX
 70
     0
  9
$DIMSOXD
 70
     0
  9
$DIMSAH
 70
     0
  9
$DIMBLK1
  1

  9
$DIMBLK2
  1

  9
$DIMSTYLE
  2
ISO-25
  9
$DIMCLRD
 70
     0
  9
$DIMCLRE
 70
     0
  9
$DIMCLRT
 70
     0
  9
$DIMTFAC
 40
1.0
  9
$DIMGAP
 40
3.0
  9
$DIMJUST
 70
     0
  9
$DIMSD1
 70
     0
  9
$DIMSD2
 70
     0
  9
$DIMTOLJ
 70
     0
  9
$DIMTZIN
 70
     0
  9
$DIMALTZ
 70
     0
  9
$DIMALTTZ
 70
     0
  9
$DIMUPT
 70
     0
  9
$DIMDEC
 70
     2
  9
$DIMTDEC
 70
     4
  9
$DIMALTU
 70
     2
  9
$DIMALTTD
 70
     3
  9
$DIMTXSTY
  7
Standard
  9
$DIMAUNIT
 70
     0
  9
$DIMADEC
 70
     2
  9
$DIMALTRND
 40
0.0
  9
$DIMAZIN
 70
     0
  9
$DIMDSEP
 70
    44
  9
$DIMATFIT
 70
     3
  9
$DIMFRAC
 70
     0
  9
$DIMLDRBLK
  1

  9
$DIMLUNIT
 70
     2
  9
$DIMLWD
 70
    -2
  9
$DIMLWE
 70
    -2
  9
$DIMTMOVE
 70
     0
  9
$LUNITS
 70
     2
  9
$LUPREC
 70
     2
  9
$SKETCHINC
 40
1.0
  9
$FILLETRAD
 40
10.0
  9
$AUNITS
 70
     1
  9
$AUPREC
 70
     2
  9
$MENU
  1
.
  9
$ELEVATION
 40
0.0
  9
$PELEVATION
 40
0.0
  9
$THICKNESS
 40
0.0
  9
$LIMCHECK
 70
     0
  9
$CHAMFERA
 40
0.0
  9
$CHAMFERB
 40
0.0
  9
$CHAMFERC
 40
0.0
  9
$CHAMFERD
 40
0.0
  9
$SKPOLY
 70
     0
  9
$TDCREATE
 40
2460368.661812523
  9
$TDUCREATE
 40
2460368.57847919
  9
$TDUPDATE
 40
2460368.661840463
  9
$TDUUPDATE
 40
2460368.57850713
  9
$TDINDWG
 40
0.0000000116
  9
$TDUSRTIMER
 40
0.0000000116
  9
$USRTIMER
 70
     1
  9
$ANGBASE
 50
0.0
  9
$ANGDIR
 70
     0
  9
$PDMODE
 70
     0
  9
$PDSIZE
 40
-1.0
  9
$PLINEWID
 40
0.0
  9
$SPLFRAME
 70
     0
  9
$SPLINETYPE
 70
     6
  9
$SPLINESEGS
 70
     8
  9
$HANDSEED
  5
29D
  9
$SURFTAB1
 70
     6
  9
$SURFTAB2
 70
     6
  9
$SURFTYPE
 70
     6
  9
$SURFU
 70
     6
  9
$SURFV
 70
     6
  9
$UCSBASE
  2

  9
$UCSNAME
  2

  9
$UCSORG
 10
0.0
 20
0.0
 30
0.0
  9
$UCSXDIR
 10
1.0
 20
0.0
 30
0.0
  9
$UCSYDIR
 10
0.0
 20
1.0
 30
0.0
  9
$UCSORTHOREF
  2

  9
$UCSORTHOVIEW
 70
     0
  9
$UCSORGTOP
 10
0.0
 20
0.0
 30
0.0
  9
$UCSORGBOTTOM
 10
0.0
 20
0.0
 30
0.0
  9
$UCSORGLEFT
 10
0.0
 20
0.0
 30
0.0
  9
$UCSORGRIGHT
 10
0.0
 20
0.0
 30
0.0
  9
$UCSORGFRONT
 10
0.0
 20
0.0
 30
0.0
  9
$UCSORGBACK
 10
0.0
 20
0.0
 30
0.0
  9
$PUCSBASE
  2

  9
$PUCSNAME
  2

  9
$PUCSORG
 10
0.0
 20
0.0
 30
0.0
  9
$PUCSXDIR
 10
1.0
 20
0.0
 30
0.0
  9
$PUCSYDIR
 10
0.0
 20
1.0
 30
0.0
  9
$PUCSORTHOREF
  2

  9
$PUCSORTHOVIEW
 70
     0
  9
$PUCSORGTOP
 10
0.0
 20
0.0
 30
0.0
  9
$PUCSORGBOTTOM
 10
0.0
 20
0.0
 30
0.0
  9
$PUCSORGLEFT
 10
0.0
 20
0.0
 30
0.0
  9
$PUCSORGRIGHT
 10
0.0
 20
0.0
 30
0.0
  9
$PUCSORGFRONT
 10
0.0
 20
0.0
 30
0.0
  9
$PUCSORGBACK
 10
0.0
 20
0.0
 30
0.0
  9
$USERI1
 70
     0
  9
$USERI2
 70
     0
  9
$USERI3
 70
     0
  9
$USERI4
 70
     0
  9
$USERI5
 70
     0
  9
$USERR1
 40
0.0
  9
$USERR2
 40
0.0
  9
$USERR3
 40
0.0
  9
$USERR4
 40
0.0
  9
$USERR5
 40
0.0
  9
$WORLDVIEW
 70
     1
  9
$SHADEDGE
 70
     3
  9
$SHADEDIF
 70
    70
  9
$TILEMODE
 70
     1
  9
$MAXACTVP
 70
    64
  9
$PINSBASE
 10
0.0
 20
0.0
 30
0.0
  9
$PLIMCHECK
 70
     0
  9
$PEXTMIN
 10
1.0000000000E+20
 20
1.0000000000E+20
 30
1.0000000000E+20
  9
$PEXTMAX
 10
-1.0000000000E+20
 20
-1.0000000000E+20
 30
-1.0000000000E+20
  9
$PLIMMIN
 10
0.0
 20
0.0
  9
$PLIMMAX
 10
420.0
 20
297.0
  9
$UNITMODE
 70
     0
  9
$VISRETAIN
 70
     1
  9
$PLINEGEN
 70
     0
  9
$PSLTSCALE
 70
     1
  9
$TREEDEPTH
 70
  3020
  9
$CMLSTYLE
  2
Standard
  9
$CMLJUST
 70
     0
  9
$CMLSCALE
 40
20.0
  9
$PROXYGRAPHICS
 70
     1
  9
$MEASUREMENT
 70
     1
  9
$CELWEIGHT
370
    -1
  9
$ENDCAPS
280
     0
  9
$JOINSTYLE
280
     0
  9
$LWDISPLAY
290
     1
  9
$INSUNITS
 70
     4
  9
$HYPERLINKBASE
  1

  9
$STYLESHEET
  1

  9
$XEDIT
290
     1
  9
$CEPSNTYPE
380
     0
  9
$PSTYLEMODE
290
     1
  9
$FINGERPRINTGUID
  2
{0e08138b-995e-4280-973e-76a337613fcd}
  9
$VERSIONGUID
  2
{FAEB1C32-E019-11D5-929B-00C0DF256EC4}
  9
$EXTNAMES
290
     1
  9
$PSVPSCALE
 40
0.0
  9
$OLESTARTUP
290
     0
  0
ENDSEC
  0
SECTION
  2
CLASSES
  0
CLASS
  1
ACDBDICTIONARYWDFLT
  2
AcDbDictionaryWithDefault
  3
ObjectDBX Classes
 90
        0
280
     0
281
     0
  0
CLASS
  1
VISUALSTYLE
  2
AcDbVisualStyle
  3
ObjectDBX Classes
 90
     4095
280
     0
281
     0
  0
CLASS
  1
MATERIAL
  2
AcDbMaterial
  3
ObjectDBX Classes
 90
     1153
280
     0
281
     0
  0
CLASS
  1
SCALE
  2
AcDbScale
  3
ObjectDBX Classes
 90
     1153
280
     0
281
     0
  0
CLASS
  1
TABLESTYLE
  2
AcDbTableStyle
  3
ObjectDBX Classes
 90
     4095
280
     0
281
     0
  0
CLASS
  1
MLEADERSTYLE
  2
AcDbMLeaderStyle
  3
ACDB_MLEADERSTYLE_CLASS
 90
     4095
280
     0
281
     0
  0
CLASS
  1
SUN
  2
AcDbSun
  3
SCENEOE
 90
     1153
280
     0
281
     0
  0
CLASS
  1
ACDBPLACEHOLDER
  2
AcDbPlaceHolder
  3
ObjectDBX Classes
 90
        0
280
     0
281
     0
  0
CLASS
  1
LAYOUT
  2
AcDbLayout
  3
ObjectDBX Classes
 90
        0
280
     0
281
     0
  0
ENDSEC
  0
SECTION
  2
TABLES
  0
TABLE
  2
VPORT
  5
8
330
0
100
AcDbSymbolTable
 70
     1
  0
VPORT
  5
29
330
8
100
AcDbSymbolTableRecord
100
AcDbViewportTableRecord
  2
*Active
 70
     0
 10
0.0
 20
0.0
 11
1.0
 21
1.0
 12
4774.3368704658
 22
1534.0886955491
 13
0.0
 23
0.0
 14
10.0
 24
10.0
 15
10.0
 25
10.0
 16
0.0
 26
0.0
 36
1.0
 17
0.0
 27
0.0
 37
0.0
 40
76.61876472
 41
1.4725242955
 42
50.0
 43
0.0
 44
0.0
 50
0.0
 51
0.0
 71
     0
 72
   100
 73
     1
 74
     3
 75
     0
 76
     0
 77
     0
 78
     0
281
     0
 65
     1
110
0.0
120
0.0
130
0.0
111
1.0
121
0.0
131
0.0
112
0.0
122
1.0
132
0.0
 79
     0
146
0.0
  0
ENDTAB
  0
TABLE
  2
LTYPE
  5
5
330
0
100
AcDbSymbolTable
 70
     6
  0
LTYPE
  5
14
330
5
100
AcDbSymbolTableRecord
100
AcDbLinetypeTableRecord
  2
ByBlock
 70
     0
  3

 72
    65
 73
     0
 40
0.0
  0
LTYPE
  5
15
330
5
100
AcDbSymbolTableRecord
100
AcDbLinetypeTableRecord
  2
ByLayer
 70
     0
  3

 72
    65
 73
     0
 40
0.0
  0
LTYPE
  5
16
330
5
100
AcDbSymbolTableRecord
100
AcDbLinetypeTableRecord
  2
Continuous
 70
     0
  3
Solid line
 72
    65
 73
     0
 40
0.0
  0
LTYPE
  5
6E
330
5
100
AcDbSymbolTableRecord
100
AcDbLinetypeTableRecord
  2
HIDDEN
 70
     0
  3
Hidden __ __ __ __ __ __ __ __ __ __ __ __ __ __
 72
    65
 73
     2
 40
1.905
 49
1.27
 74
     0
 49
-0.635
 74
     0
  0
LTYPE
  5
6F
330
5
100
AcDbSymbolTableRecord
100
AcDbLinetypeTableRecord
  2
PHANTOM
 70
     0
  3
Phantom ______  __  __  ______  __  __  ______
 72
    65
 73
     6
 40
12.7
 49
6.35
 74
     0
 49
-1.27
 74
     0
 49
1.27
 74
     0
 49
-1.27
 74
     0
 49
1.27
 74
     0
 49
-1.27
 74
     0
  0
LTYPE
  5
70
330
5
100
AcDbSymbolTableRecord
100
AcDbLinetypeTableRecord
  2
CENTER
 70
     0
  3
Center ____ _ ____ _ ____ _ ____ _ ____ _ ____
 72
    65
 73
     4
 40
10.16
 49
6.35
 74
     0
 49
-1.27
 74
     0
 49
1.27
 74
     0
 49
-1.27
 74
     0
  0
LTYPE
  5
71
330
5
100
AcDbSymbolTableRecord
100
AcDbLinetypeTableRecord
  2
CENTERX2
 70
     0
  3
Center (2x) ________  __  ________  __  _____
 72
    65
 73
     4
 40
20.32
 49
12.7
 74
     0
 49
-2.54
 74
     0
 49
2.54
 74
     0
 49
-2.54
 74
     0
  0
LTYPE
  5
72
330
5
100
AcDbSymbolTableRecord
100
AcDbLinetypeTableRecord
  2
DOT2
 70
     0
  3
Dot (.5x) ........................................
 72
    65
 73
     2
 40
0.635
 49
0.0
 74
     0
 49
-0.635
 74
     0
  0
ENDTAB
  0
TABLE
  2
LAYER
  5
2
330
0
100
AcDbSymbolTable
 70
     1
  0
LAYER
  5
10
330
2
100
AcDbSymbolTableRecord
100
AcDbLayerTableRecord
  2
0
 70
     0
 62
     7
  6
Continuous
370
    -3
390
F
  0
ENDTAB
  0
TABLE
  2
STYLE
  5
3
330
0
100
AcDbSymbolTable
 70
     1
  0
STYLE
  5
11
330
3
100
AcDbSymbolTableRecord
100
AcDbTextStyleTableRecord
  2
Standard
 70
     0
 40
0.0
 41
1.0
 50
0.0
 71
     0
 42
4.0
  3
txt
  4

  0
ENDTAB
  0
TABLE
  2
VIEW
  5
6
330
0
100
AcDbSymbolTable
 70
     0
  0
ENDTAB
  0
TABLE
  2
UCS
  5
7
330
0
100
AcDbSymbolTable
 70
     0
  0
ENDTAB
  0
TABLE
  2
APPID
  5
9
330
0
100
AcDbSymbolTable
 70
     1
  0
APPID
  5
12
330
9
100
AcDbSymbolTableRecord
100
AcDbRegAppTableRecord
  2
ACAD
 70
     0
  0
ENDTAB
  0
TABLE
  2
DIMSTYLE
  5
A
330
0
100
AcDbSymbolTable
 70
     1
100
AcDbDimStyleTable
  0
DIMSTYLE
105
27
330
A
100
AcDbSymbolTableRecord
100
AcDbDimStyleTableRecord
  2
ISO-25
 70
     0
 41
2.5
 42
0.625
 43
3.75
 44
1.25
 73
     0
 74
     0
 77
     1
 78
     8
140
2.5
141
2.5
143
0.0393700787
147
0.625
171
     3
172
     1
178
     0
271
     2
272
     2
274
     3
278
    44
283
     0
284
     8
340
11
  0
ENDTAB
  0
TABLE
  2
BLOCK_RECORD
  5
1
330
0
100
AcDbSymbolTable
 70
     1
  0
BLOCK_RECORD
  5
1F
330
1
100
AcDbSymbolTableRecord
100
AcDbBlockTableRecord
  2
*Model_Space
340
22
  0
BLOCK_RECORD
  5
1B
330
1
100
AcDbSymbolTableRecord
100
AcDbBlockTableRecord
  2
*Paper_Space
340
1E
  0
BLOCK_RECORD
  5
23
330
1
100
AcDbSymbolTableRecord
100
AcDbBlockTableRecord
  2
*Paper_Space0
340
26
  0
ENDTAB
  0
ENDSEC
  0
SECTION
  2
BLOCKS
  0
BLOCK
  5
20
330
1F
100
AcDbEntity
  8
0
100
AcDbBlockBegin
  2
*Model_Space
 70
     0
 10
0.0
 20
0.0
 30
0.0
  3
*Model_Space
  1

  0
ENDBLK
  5
21
330
1F
100
AcDbEntity
  8
0
100
AcDbBlockEnd
  0
BLOCK
  5
1C
330
1B
100
AcDbEntity
 67
     1
  8
0
100
AcDbBlockBegin
  2
*Paper_Space
 70
     0
 10
0.0
 20
0.0
 30
0.0
  3
*Paper_Space
  1

  0
ENDBLK
  5
1D
330
1B
100
AcDbEntity
 67
     1
  8
0
100
AcDbBlockEnd
  0
BLOCK
  5
24
330
23
100
AcDbEntity
  8
0
100
AcDbBlockBegin
  2
*Paper_Space0
 70
     0
 10
0.0
 20
0.0
 30
0.0
  3
*Paper_Space0
  1

  0
ENDBLK
  5
25
330
23
100
AcDbEntity
  8
0
100
AcDbBlockEnd
  0
ENDSEC
  0
SECTION
  2
ENTITIES
  0
SPLINE
  5
73
330
1F
100
AcDbEntity
  8
0
  6
Continuous
 62
     7
370
    25
100
AcDbSpline
210
0.0
220
0.0
230
1.0
 70
     8
 71
     3
 72
    15
 73
    11
 74
     0
 42
0.000000001
 43
0.00000001
 40
0.0
 40
0.0
 40
0.0
 40
0.0
 40
0.134917730337932
 40
0.2550287445570884
 40
0.3662847551474496
 40
0.4742189394177941
 40
0.5873325155521574
 40
0.7080066021143869
 40
0.8451209622209351
 40
1.0
 40
1.0
 40
1.0
 40
1.0
 10
4755.565471544266
 20
1522.264913369571
 30
0.0
 10
4755.564264759271
 20
1522.241617663879
 30
0.0
 10
4755.561983629421
 20
1522.197582869035
 30
0.0
 10
4755.547488044215
 20
1522.135405681466
 30
0.0
 10
4755.520076768095
 20
1522.08294178825
 30
0.0
 10
4755.481750834174
 20
1522.039325474087
 30
0.0
 10
4755.431621763238
 20
1522.007020153492
 30
0.0
 10
4755.371716904336
 20
1521.983400264305
 30
0.0
 10
4755.30128197526
 20
1521.969904383368
 30
0.0
 10
4755.250813598475
 20
1521.968409165318
 30
0.0
 10
4755.224044179401
 20
1521.967616072274
 30
0.0
  0
SPLINE
  5
77
330
1F
100
AcDbEntity
  8
0
  6
Continuous
 62
     7
370
    25
100
AcDbSpline
210
0.0
220
0.0
230
1.0
 70
     8
 71
     3
 72
    15
 73
    11
 74
     0
 42
0.000000001
 43
0.00000001
 40
0.0
 40
0.0
 40
0.0
 40
0.0
 40
0.1548790377790518
 40
0.2919933978856725
 40
0.4126674844478919
 40
0.5257810605822457
 40
0.6337152448525811
 40
0.744971255442933
 40
0.8650822696620794
 40
1.0
 40
1.0
 40
1.0
 40
1.0
 10
4755.99283640913
 20
1519.886534991193
 30
0.0
 10
4756.019605828204
 20
1519.885741898149
 30
0.0
 10
4756.070074204991
 20
1519.884246680099
 30
0.0
 10
4756.140509134065
 20
1519.870750799162
 30
0.0
 10
4756.200413992968
 20
1519.847130909975
 30
0.0
 10
4756.250543063903
 20
1519.814825589379
 30
0.0
 10
4756.288868997825
 20
1519.771209275217
 30
0.0
 10
4756.316280273945
 20
1519.718745382001
 30
0.0
 10
4756.33077585915
 20
1519.656568194432
 30
0.0
 10
4756.333056989
 20
1519.612533399588
 30
0.0
 10
4756.334263773995
 20
1519.589237693895
 30
0.0
  0
SPLINE
  5
78
330
1F
100
AcDbEntity
  8
0
  6
Continuous
 62
     7
370
    25
100
AcDbSpline
210
0.0
220
0.0
230
1.0
 70
     8
 71
     3
 72
    15
 73
    11
 74
     0
 42
0.000000001
 43
0.00000001
 40
0.0
 40
0.0
 40
0.0
 40
0.0
 40
0.1349177303379009
 40
0.2550287445570486
 40
0.3662847551474207
 40
0.4742189394177413
 40
0.5873325155521084
 40
0.7080066021143211
 40
0.8451209622209476
 40
1.0
 40
1.0
 40
1.0
 40
1.0
 10
4756.334263773995
 20
1519.589237693895
 30
0.0
 10
4756.333056989
 20
1519.565941988203
 30
0.0
 10
4756.33077585915
 20
1519.521907193359
 30
0.0
 10
4756.316280273945
 20
1519.459730005791
 30
0.0
 10
4756.288868997825
 20
1519.407266112575
 30
0.0
 10
4756.250543063903
 20
1519.363649798412
 30
0.0
 10
4756.200413992968
 20
1519.331344477816
 30
0.0
 10
4756.140509134066
 20
1519.307724588629
 30
0.0
 10
4756.070074204991
 20
1519.294228707692
 30
0.0
 10
4756.019605828204
 20
1519.292733489642
 30
0.0
 10
4755.99283640913
 20
1519.291940396598
 30
0.0
  0
SPLINE
  5
7A
330
1F
100
AcDbEntity
  8
0
  6
Continuous
 62
     7
370
    25
100
AcDbSpline
210
0.0
220
0.0
230
1.0
 70
     8
 71
     3
 72
    15
 73
    11
 74
     0
 42
0.000000001
 43
0.00000001
 40
0.0
 40
0.0
 40
0.0
 40
0.0
 40
0.1528612850162797
 40
0.2874697277136171
 40
0.4083171843914752
 40
0.5197330343307257
 40
0.6278222855466267
 40
0.7415060099346207
 40
0.8623534666124881
 40
1.0
 40
1.0
 40
1.0
 40
1.0
 10
4754.039500260482
 20
1519.291940396598
 30
0.0
 10
4754.016237339287
 20
1519.292954274143
 30
0.0
 10
4753.972489273052
 20
1519.294860964262
 30
0.0
 10
4753.910901363866
 20
1519.305624852653
 30
0.0
 10
4753.858704138804
 20
1519.32673336079
 30
0.0
 10
4753.815543947883
 20
1519.356203012203
 30
0.0
 10
4753.781571137303
 20
1519.394741003525
 30
0.0
 10
4753.758790870283
 20
1519.442198568137
 30
0.0
 10
4753.744290165502
 20
1519.497424798267
 30
0.0
 10
4753.742928201192
 20
1519.536875077366
 30
0.0
 10
4753.742202963184
 20
1519.557882119571
 30
0.0
  0
SPLINE
  5
7C
330
1F
100
AcDbEntity
  8
0
  6
Continuous
 62
     7
370
    25
100
AcDbSpline
210
0.0
220
0.0
230
1.0
 70
     8
 71
     3
 72
    15
 73
    11
 74
     0
 42
0.000000001
 43
0.00000001
 40
0.0
 40
0.0
 40
0.0
 40
0.0
 40
0.1376465333874882
 40
0.2584939900653795
 40
0.372177714453374
 40
0.4802669656692753
 40
0.5916828156085262
 40
0.7125302722863849
 40
0.8471387149837183
 40
1.0
 40
1.0
 40
1.0
 40
1.0
 10
4753.742202963184
 20
1524.525998673625
 30
0.0
 10
4753.742928201192
 20
1524.547005715831
 30
0.0
 10
4753.744290165502
 20
1524.58645599493
 30
0.0
 10
4753.758790870283
 20
1524.641682225059
 30
0.0
 10
4753.781571137303
 20
1524.689139789672
 30
0.0
 10
4753.815543947883
 20
1524.727677780994
 30
0.0
 10
4753.858704138804
 20
1524.757147432406
 30
0.0
 10
4753.910901363866
 20
1524.778255940544
 30
0.0
 10
4753.972489273052
 20
1524.789019828935
 30
0.0
 10
4754.016237339287
 20
1524.790926519054
 30
0.0
 10
4754.039500260482
 20
1524.791940396598
 30
0.0
  0
SPLINE
  5
7E
330
1F
100
AcDbEntity
  8
0
  6
Continuous
 62
     7
370
    25
100
AcDbSpline
210
0.0
220
0.0
230
1.0
 70
     8
 71
     3
 72
    15
 73
    11
 74
     0
 42
0.000000001
 43
0.00000001
 40
0.0
 40
0.0
 40
0.0
 40
0.0
 40
0.1548790377790518
 40
0.2919933978856725
 40
0.4126674844478919
 40
0.5257810605822457
 40
0.6337152448525811
 40
0.744971255442933
 40
0.8650822696620794
 40
1.0
 40
1.0
 40
1.0
 40
1.0
 10
4755.99283640913
 20
1524.791940396598
 30
0.0
 10
4756.019605828204
 20
1524.791147303554
 30
0.0
 10
4756.070074204991
 20
1524.789652085504
 30
0.0
 10
4756.140509134065
 20
1524.776156204568
 30
0.0
 10
4756.200413992968
 20
1524.75253631538
 30
0.0
 10
4756.250543063903
 20
1524.720230994785
 30
0.0
 10
4756.288868997825
 20
1524.676614680622
 30
0.0
 10
4756.316280273945
 20
1524.624150787406
 30
0.0
 10
4756.33077585915
 20
1524.561973599838
 30
0.0
 10
4756.333056989
 20
1524.517938804993
 30
0.0
 10
4756.334263773995
 20
1524.494643099301
 30
0.0
  0
SPLINE
  5
7F
330
1F
100
AcDbEntity
  8
0
  6
Continuous
 62
     7
370
    25
100
AcDbSpline
210
0.0
220
0.0
230
1.0
 70
     8
 71
     3
 72
    15
 73
    11
 74
     0
 42
0.000000001
 43
0.00000001
 40
0.0
 40
0.0
 40
0.0
 40
0.0
 40
0.1349177303379009
 40
0.2550287445570486
 40
0.3662847551474207
 40
0.4742189394177413
 40
0.5873325155521084
 40
0.7080066021143211
 40
0.8451209622209476
 40
1.0
 40
1.0
 40
1.0
 40
1.0
 10
4756.334263773995
 20
1524.494643099301
 30
0.0
 10
4756.333056989
 20
1524.471347393609
 30
0.0
 10
4756.33077585915
 20
1524.427312598765
 30
0.0
 10
4756.316280273945
 20
1524.365135411196
 30
0.0
 10
4756.288868997825
 20
1524.31267151798
 30
0.0
 10
4756.250543063903
 20
1524.269055203817
 30
0.0
 10
4756.200413992968
 20
1524.236749883221
 30
0.0
 10
4756.140509134066
 20
1524.213129994034
 30
0.0
 10
4756.070074204991
 20
1524.199634113098
 30
0.0
 10
4756.019605828204
 20
1524.198138895048
 30
0.0
 10
4755.99283640913
 20
1524.197345802004
 30
0.0
  0
SPLINE
  5
83
330
1F
100
AcDbEntity
  8
0
  6
Continuous
 62
     7
370
    25
100
AcDbSpline
210
0.0
220
0.0
230
1.0
 70
     8
 71
     3
 72
    15
 73
    11
 74
     0
 42
0.000000001
 43
0.00000001
 40
0.0
 40
0.0
 40
0.0
 40
0.0
 40
0.1548790377790653
 40
0.2919933978856193
 40
0.4126674844478422
 40
0.5257810605822187
 40
0.6337152448525485
 40
0.74497125544293
 40
0.8650822696620878
 40
1.0
 40
1.0
 40
1.0
 40
1.0
 10
4755.224044179401
 20
1522.562210666869
 30
0.0
 10
4755.250813598475
 20
1522.561417573824
 30
0.0
 10
4755.30128197526
 20
1522.559922355775
 30
0.0
 10
4755.371716904336
 20
1522.546426474838
 30
0.0
 10
4755.431621763238
 20
1522.522806585651
 30
0.0
 10
4755.481750834174
 20
1522.490501265055
 30
0.0
 10
4755.520076768095
 20
1522.446884950892
 30
0.0
 10
4755.547488044215
 20
1522.394421057676
 30
0.0
 10
4755.561983629421
 20
1522.332243870108
 30
0.0
 10
4755.564264759271
 20
1522.288209075263
 30
0.0
 10
4755.565471544266
 20
1522.264913369571
 30
0.0
  0
SPLINE
  5
84
330
1F
100
AcDbEntity
  8
0
  6
Continuous
 62
     7
370
    25
100
AcDbSpline
210
0.0
220
0.0
230
1.0
 70
     8
 71
     3
 72
    15
 73
    11
 74
     0
 42
0.000000001
 43
0.00000001
 40
0.0
 40
0.0
 40
0.0
 40
0.0
 40
0.1292358118054837
 40
0.253956946668433
 40
0.3771968047857561
 40
0.5066544638823067
 40
0.6346707152581221
 40
0.7555544727615944
 40
0.8762798741110972
 40
1.0
 40
1.0
 40
1.0
 40
1.0
 10
4759.358799246967
 20
1522.190589045247
 30
0.0
 10
4759.40320599767
 20
1522.192589859292
 30
0.0
 10
4759.490468209759
 20
1522.19652159167
 30
0.0
 10
4759.615316250937
 20
1522.234541009779
 30
0.0
 10
4759.73110849375
 20
1522.293716413137
 30
0.0
 10
4759.833571169014
 20
1522.375752110744
 30
0.0
 10
4759.920846969872
 20
1522.47274075165
 30
0.0
 10
4759.984001890944
 20
1522.583576616436
 30
0.0
 10
4760.022715594486
 20
1522.704074895859
 30
0.0
 10
4760.027579204002
 20
1522.787998928269
 30
0.0
 10
4760.030040801023
 20
1522.830475024977
 30
0.0
  0
SPLINE
  5
86
330
1F
100
AcDbEntity
  8
0
  6
Continuous
 62
     7
370
    25
100
AcDbSpline
210
0.0
220
0.0
230
1.0
 70
     8
 71
     3
 72
    15
 73
    11
 74
     0
 42
0.000000001
 43
0.00000001
 40
0.0
 40
0.0
 40
0.0
 40
0.0
 40
0.1235134495526312
 40
0.2440371772983519
 40
0.3652811780136416
 40
0.4939311243358023
 40
0.622995371511501
 40
0.7475489850495453
 40
0.8709800785673114
 40
1.0
 40
1.0
 40
1.0
 40
1.0
 10
4760.030040801023
 20
1523.553975869571
 30
0.0
 10
4760.027550326962
 20
1523.596435125375
 30
0.0
 10
4760.022629662358
 20
1523.680325883622
 30
0.0
 10
4759.984277091237
 20
1523.801255311666
 30
0.0
 10
4759.919192064679
 20
1523.911536494455
 30
0.0
 10
4759.832633717642
 20
1524.009445797542
 30
0.0
 10
4759.730830444076
 20
1524.093632721339
 30
0.0
 10
4759.614961404585
 20
1524.153009879477
 30
0.0
 10
4759.490134740606
 20
1524.191559578441
 30
0.0
 10
4759.403219131826
 20
1524.195388803349
 30
0.0
 10
4759.358799246967
 20
1524.197345802004
 30
0.0
  0
SPLINE
  5
8B
330
1F
100
AcDbEntity
  8
0
  6
Continuous
 62
     7
370
    25
100
AcDbSpline
210
0.0
220
0.0
230
1.0
 70
     8
 71
     3
 72
    15
 73
    11
 74
     0
 42
0.000000001
 43
0.00000001
 40
0.0
 40
0.0
 40
0.0
 40
0.0
 40
0.1212059526124897
 40
0.2293436564902795
 40
0.3347681309252244
 40
0.4407596617558739
 40
0.555813039687866
 40
0.6851533834087536
 40
0.8321371907837389
 40
1.0
 40
1.0
 40
1.0
 40
1.0
 10
4758.394905665888
 20
1519.557882119571
 30
0.0
 10
4758.393983608819
 20
1519.536819394295
 30
0.0
 10
4758.392238909529
 20
1519.49696489601
 30
0.0
 10
4758.373802495958
 20
1519.441283141511
 30
0.0
 10
4758.344685158791
 20
1519.393492404163
 30
0.0
 10
4758.301955787045
 20
1519.355351533932
 30
0.0
 10
4758.248226011084
 20
1519.326311066696
 30
0.0
 10
4758.183326537108
 20
1519.30548763835
 30
0.0
 10
4758.106854627074
 20
1519.294859053531
 30
0.0
 10
4758.052345819421
 20
1519.292955363213
 30
0.0
 10
4758.023284044266
 20
1519.291940396598
 30
0.0
  0
SPLINE
  5
8C
330
1F
100
AcDbEntity
  8
0
  6
Continuous
 62
     7
370
    25
100
AcDbSpline
210
0.0
220
0.0
230
1.0
 70
     8
 71
     3
 72
    15
 73
    11
 74
     0
 42
0.000000001
 43
0.00000001
 40
0.0
 40
0.0
 40
0.0
 40
0.0
 40
0.1528612850162797
 40
0.2874697277136171
 40
0.4083171843914752
 40
0.5197330343307257
 40
0.6278222855466267
 40
0.7415060099346207
 40
0.8623534666124881
 40
1.0
 40
1.0
 40
1.0
 40
1.0
 10
4758.023284044266
 20
1519.291940396598
 30
0.0
 10
4758.000021123071
 20
1519.292954274143
 30
0.0
 10
4757.956273056835
 20
1519.294860964262
 30
0.0
 10
4757.89468514765
 20
1519.305624852653
 30
0.0
 10
4757.842487922587
 20
1519.32673336079
 30
0.0
 10
4757.799327731667
 20
1519.356203012203
 30
0.0
 10
4757.765354921086
 20
1519.394741003525
 30
0.0
 10
4757.742574654066
 20
1519.442198568137
 30
0.0
 10
4757.728073949287
 20
1519.497424798267
 30
0.0
 10
4757.726711984975
 20
1519.536875077366
 30
0.0
 10
4757.725986746968
 20
1519.557882119571
 30
0.0
  0
SPLINE
  5
8E
330
1F
100
AcDbEntity
  8
0
  6
Continuous
 62
     7
370
    25
100
AcDbSpline
210
0.0
220
0.0
230
1.0
 70
     8
 71
     3
 72
    15
 73
    11
 74
     0
 42
0.000000001
 43
0.00000001
 40
0.0
 40
0.0
 40
0.0
 40
0.0
 40
0.1446346493005003
 40
0.2709695536701135
 40
0.3881332050054049
 40
0.4966009700542729
 40
0.6071858555760424
 40
0.7243495069112686
 40
0.8527014153097112
 40
1.0
 40
1.0
 40
1.0
 40
1.0
 10
4757.725986746968
 20
1524.525998673625
 30
0.0
 10
4757.726805844055
 20
1524.546988607534
 30
0.0
 10
4757.728340402843
 20
1524.586312746322
 30
0.0
 10
4757.741538663546
 20
1524.641339730765
 30
0.0
 10
4757.761862267636
 20
1524.688503126262
 30
0.0
 10
4757.792029622762
 20
1524.727558689747
 30
0.0
 10
4757.831608729752
 20
1524.756802109714
 30
0.0
 10
4757.879048710633
 20
1524.778147730562
 30
0.0
 10
4757.93532207928
 20
1524.789082324363
 30
0.0
 10
4757.975241898061
 20
1524.790945028557
 30
0.0
 10
4757.996573740211
 20
1524.791940396598
 30
0.0
  0
SPLINE
  5
90
330
1F
100
AcDbEntity
  8
0
  6
Continuous
 62
     7
370
    25
100
AcDbSpline
210
0.0
220
0.0
230
1.0
 70
     8
 71
     3
 72
    23
 73
    19
 74
     0
 42
0.000000001
 43
0.00000001
 40
0.0
 40
0.0
 40
0.0
 40
0.0
 40
0.0697099815833834
 40
0.1364473703020149
 40
0.201794749163221
 40
0.2654843218801483
 40
0.3288955934619215
 40
0.3921073283569548
 40
0.4562055181824042
 40
0.5211806621105921
 40
0.5856274065120315
 40
0.6479914155361731
 40
0.7075565987987601
 40
0.7664878045377184
 40
0.8243692610195219
 40
0.8819472739614753
 40
0.9407267977402117
 40
1.0
 40
1.0
 40
1.0
 40
1.0
 10
4759.369251105077
 20
1524.791940396598
 30
0.0
 10
4759.415773824675
 20
1524.790933395478
 30
0.0
 10
4759.50683542883
 20
1524.788962334064
 30
0.0
 10
4759.640318088739
 20
1524.770263860389
 30
0.0
 10
4759.768435806825
 20
1524.74387295806
 30
0.0
 10
4759.889862147196
 20
1524.701606559837
 30
0.0
 10
4760.006861788025
 20
1524.651764076532
 30
0.0
 10
4760.116116813798
 20
1524.586118242449
 30
0.0
 10
4760.221415379547
 20
1524.51259771227
 30
0.0
 10
4760.317665539563
 20
1524.426254550334
 30
0.0
 10
4760.406926258812
 20
1524.334483888254
 30
0.0
 10
4760.484633216781
 20
1524.237172326353
 30
0.0
 10
4760.550491243204
 20
1524.1359194136
 30
0.0
 10
4760.605454853827
 20
1524.031698673906
 30
0.0
 10
4760.647772684947
 20
1523.923007484173
 30
0.0
 10
4760.676199472818
 20
1523.810178549736
 30
0.0
 10
4760.696029800565
 20
1523.6944170168
 30
0.0
 10
4760.697980361167
 20
1523.615609461559
 30
0.0
 10
4760.698959719942
 20
1523.576040903355
 30
0.0
  0
SPLINE
  5
92
330
1F
100
AcDbEntity
  8
0
  6
Continuous
 62
     7
370
    25
100
AcDbSpline
210
0.0
220
0.0
230
1.0
 70
     8
 71
     3
 72
    23
 73
    19
 74
     0
 42
0.000000001
 43
0.00000001
 40
0.0
 40
0.0
 40
0.0
 40
0.0
 40
0.0599416988924334
 40
0.1187138469711034
 40
0.1769412378156782
 40
0.2352661744249082
 40
0.2943277774127284
 40
0.3542464815027794
 40
0.4165885938737642
 40
0.4809536654488907
 40
0.5457853982364281
 40
0.6093099757948117
 40
0.6719250421333879
 40
0.7349787482748772
 40
0.7988306000017183
 40
0.863768527344945
 40
0.9306766963489934
 40
1.0
 40
1.0
 40
1.0
 40
1.0
 10
4760.698959719942
 20
1522.808409991193
 30
0.0
 10
4760.697870278821
 20
1522.768859479568
 30
0.0
 10
4760.695712653181
 20
1522.69053014504
 30
0.0
 10
4760.67765758745
 20
1522.574933961125
 30
0.0
 10
4760.648670451509
 20
1522.462811556253
 30
0.0
 10
4760.607644960068
 20
1522.354275604741
 30
0.0
 10
4760.555439374752
 20
1522.249376380506
 30
0.0
 10
4760.490320431891
 20
1522.148867056932
 30
0.0
 10
4760.415237069612
 20
1522.051098711124
 30
0.0
 10
4760.32809833623
 20
1521.959468129294
 30
0.0
 10
4760.234576591758
 20
1521.873022267693
 30
0.0
 10
4760.131218790245
 20
1521.800627370554
 30
0.0
 10
4760.024018657395
 20
1521.736388021529
 30
0.0
 10
4759.909378034169
 20
1521.686006684125
 30
0.0
 10
4759.789676183548
 20
1521.644313745115
 30
0.0
 10
4759.663206256831
 20
1521.617501447754
 30
0.0
 10
4759.531604320383
 20
1521.599055946103
 30
0.0
 10
4759.44170695148
 20
1521.597026939328
 30
0.0
 10
4759.395961409131
 20
1521.595994450652
 30
0.0
  0
SPLINE
  5
95
330
1F
100
AcDbEntity
  8
0
  6
Continuous
 62
     7
370
    25
100
AcDbSpline
210
0.0
220
0.0
230
1.0
 70
     8
 71
     3
 72
    23
 73
    19
 74
     0
 42
0.000000001
 43
0.00000001
 40
0.0
 40
0.0
 40
0.0
 40
0.0
 40
0.0636792225567515
 40
0.1260706403090875
 40
0.1877884128189558
 40
0.2486942415157057
 40
0.3106504428495424
 40
0.3731862596611057
 40
0.4370721628481346
 40
0.502757266628485
 40
0.5685610952128194
 40
0.6313045945878274
 40
0.6928901336675565
 40
0.7540091838791698
 40
0.8140574441551016
 40
0.8743449816747488
 40
0.9363207774432654
 40
1.0
 40
1.0
 40
1.0
 40
1.0
 10
4763.373938605077
 20
1519.291940396598
 30
0.0
 10
4763.332082695093
 20
1519.293139670454
 30
0.0
 10
4763.249217340262
 20
1519.295513964876
 30
0.0
 10
4763.12663440403
 20
1519.311946058054
 30
0.0
 10
4763.00812283184
 20
1519.339935517652
 30
0.0
 10
4762.892984851896
 20
1519.378665989977
 30
0.0
 10
4762.781477700621
 20
1519.428344357052
 30
0.0
 10
4762.674297742527
 20
1519.490723318078
 30
0.0
 10
4762.570714895589
 20
1519.563098210442
 30
0.0
 10
4762.471228024334
 20
1519.644571132265
 30
0.0
 10
4762.381010724889
 20
1519.7351608178
 30
0.0
 10
4762.300728592455
 20
1519.831165991887
 30
0.0
 10
4762.232983359067
 20
1519.932792475034
 30
0.0
 10
4762.177297458938
 20
1520.039450958944
 30
0.0
 10
4762.133611653345
 20
1520.150733423406
 30
0.0
 10
4762.103742711823
 20
1520.266975020391
 30
0.0
 10
4762.08429072373
 20
1520.387953897971
 30
0.0
 10
4762.082367035573
 20
1520.470601273076
 30
0.0
 10
4762.081392152374
 20
1520.512485160112
 30
0.0
  0
SPLINE
  5
97
330
1F
100
AcDbEntity
  8
0
  6
Continuous
 62
     7
370
    25
100
AcDbSpline
210
0.0
220
0.0
230
1.0
 70
     8
 71
     3
 72
    23
 73
    19
 74
     0
 42
0.000000001
 43
0.00000001
 40
0.0
 40
0.0
 40
0.0
 40
0.0
 40
0.0636946562228234
 40
0.1251032544639286
 40
0.1859753988458883
 40
0.2460382127668151
 40
0.3066503712076606
 40
0.3682508365161908
 40
0.4310095427699845
 40
0.4968293199522598
 40
0.5629069775514909
 40
0.626808364496926
 40
0.6895808951679836
 40
0.751260191085947
 40
0.8127393982939612
 40
0.8738988044785834
 40
0.9363053437771598
 40
1.0
 40
1.0
 40
1.0
 40
1.0
 10
4762.081392152374
 20
1523.571395633085
 30
0.0
 10
4762.082332163628
 20
1523.613285301248
 30
0.0
 10
4762.084178448294
 20
1523.69556118005
 30
0.0
 10
4762.104050373111
 20
1523.816455647344
 30
0.0
 10
4762.133421108088
 20
1523.932797160221
 30
0.0
 10
4762.177018028638
 20
1524.044197600753
 30
0.0
 10
4762.233330182685
 20
1524.150130936237
 30
0.0
 10
4762.300696998829
 20
1524.251563402665
 30
0.0
 10
4762.380975539357
 20
1524.347604734503
 30
0.0
 10
4762.471587282039
 20
1524.43811794723
 30
0.0
 10
4762.570414524562
 20
1524.520692738101
 30
0.0
 10
4762.674110264691
 20
1524.593843271044
 30
0.0
 10
4762.782855701463
 20
1524.653183292983
 30
0.0
 10
4762.893152989525
 20
1524.706208328419
 30
0.0
 10
4763.00871547891
 20
1524.743347957805
 30
0.0
 10
4763.126948864541
 20
1524.772176404965
 30
0.0
 10
4763.249232752961
 20
1524.788317384263
 30
0.0
 10
4763.332087867527
 20
1524.790724529533
 30
0.0
 10
4763.373938605077
 20
1524.791940396598
 30
0.0
  0
SPLINE
  5
99
330
1F
100
AcDbEntity
  8
0
  6
Continuous
 62
     7
370
    25
100
AcDbSpline
210
0.0
220
0.0
230
1.0
 70
     8
 71
     3
 72
    15
 73
    11
 74
     0
 42
0.000000001
 43
0.00000001
 40
0.0
 40
0.0
 40
0.0
 40
0.0
 40
0.1548790377790518
 40
0.2919933978856725
 40
0.4126674844478919
 40
0.5257810605822457
 40
0.6337152448525811
 40
0.744971255442933
 40
0.8650822696620794
 40
1.0
 40
1.0
 40
1.0
 40
1.0
 10
4764.33202559832
 20
1524.791940396598
 30
0.0
 10
4764.358795017394
 20
1524.791147303554
 30
0.0
 10
4764.40926339418
 20
1524.789652085504
 30
0.0
 10
4764.479698323254
 20
1524.776156204568
 30
0.0
 10
4764.539603182156
 20
1524.75253631538
 30
0.0
 10
4764.589732253092
 20
1524.720230994785
 30
0.0
 10
4764.628058187014
 20
1524.676614680622
 30
0.0
 10
4764.655469463134
 20
1524.624150787406
 30
0.0
 10
4764.66996504834
 20
1524.561973599838
 30
0.0
 10
4764.67224617819
 20
1524.517938804993
 30
0.0
 10
4764.673452963185
 20
1524.494643099301
 30
0.0
  0
SPLINE
  5
9A
330
1F
100
AcDbEntity
  8
0
  6
Continuous
 62
     7
370
    25
100
AcDbSpline
210
0.0
220
0.0
230
1.0
 70
     8
 71
     3
 72
    15
 73
    11
 74
     0
 42
0.000000001
 43
0.00000001
 40
0.0
 40
0.0
 40
0.0
 40
0.0
 40
0.1349177303379009
 40
0.2550287445570486
 40
0.3662847551474207
 40
0.4742189394177413
 40
0.5873325155521084
 40
0.7080066021143211
 40
0.8451209622209476
 40
1.0
 40
1.0
 40
1.0
 40
1.0
 10
4764.673452963185
 20
1524.494643099301
 30
0.0
 10
4764.67224617819
 20
1524.471347393609
 30
0.0
 10
4764.66996504834
 20
1524.427312598765
 30
0.0
 10
4764.655469463134
 20
1524.365135411196
 30
0.0
 10
4764.628058187014
 20
1524.31267151798
 30
0.0
 10
4764.589732253092
 20
1524.269055203817
 30
0.0
 10
4764.539603182156
 20
1524.236749883221
 30
0.0
 10
4764.479698323255
 20
1524.213129994034
 30
0.0
 10
4764.40926339418
 20
1524.199634113098
 30
0.0
 10
4764.358795017394
 20
1524.198138895048
 30
0.0
 10
4764.33202559832
 20
1524.197345802004
 30
0.0
  0
SPLINE
  5
9C
330
1F
100
AcDbEntity
  8
0
  6
Continuous
 62
     7
370
    25
100
AcDbSpline
210
0.0
220
0.0
230
1.0
 70
     8
 71
     3
 72
    15
 73
    11
 74
     0
 42
0.000000001
 43
0.00000001
 40
0.0
 40
0.0
 40
0.0
 40
0.0
 40
0.1149354247298162
 40
0.228870770816968
 40
0.347617796701178
 40
0.473549214181138
 40
0.6025588394228889
 40
0.7278916335685245
 40
0.8600067485935297
 40
1.0
 40
1.0
 40
1.0
 40
1.0
 10
4763.373938605077
 20
1524.197345802004
 30
0.0
 10
4763.334947874255
 20
1524.195178855734
 30
0.0
 10
4763.257305679615
 20
1524.190863818277
 30
0.0
 10
4763.144441319319
 20
1524.153520376334
 30
0.0
 10
4763.037508002832
 20
1524.094784991048
 30
0.0
 10
4762.940030606671
 20
1524.013256049366
 30
0.0
 10
4762.854628022959
 20
1523.915663583671
 30
0.0
 10
4762.794479568342
 20
1523.798422593706
 30
0.0
 10
4762.755753574541
 20
1523.668298352236
 30
0.0
 10
4762.752159920441
 20
1523.575942012601
 30
0.0
 10
4762.750311071292
 20
1523.528426883085
 30
0.0
  0
SPLINE
  5
9E
330
1F
100
AcDbEntity
  8
0
  6
Continuous
 62
     7
370
    25
100
AcDbSpline
210
0.0
220
0.0
230
1.0
 70
     8
 71
     3
 72
    15
 73
    11
 74
     0
 42
0.000000001
 43
0.00000001
 40
0.0
 40
0.0
 40
0.0
 40
0.0
 40
0.140997952699957
 40
0.271574544282439
 40
0.3983312247206714
 40
0.5264808775378671
 40
0.653175750570332
 40
0.7702583733694371
 40
0.8851746440773582
 40
1.0
 40
1.0
 40
1.0
 40
1.0
 10
4762.750311071292
 20
1520.555453910112
 30
0.0
 10
4762.752231957851
 20
1520.507585905432
 30
0.0
 10
4762.755931755486
 20
1520.415387889023
 30
0.0
 10
4762.793193212111
 20
1520.284302764085
 30
0.0
 10
4762.854703728371
 20
1520.168041673545
 30
0.0
 10
4762.938795016201
 20
1520.068667732978
 30
0.0
 10
4763.036989338503
 20
1519.988525340957
 30
0.0
 10
4763.144081146304
 20
1519.929963871077
 30
0.0
 10
4763.256976144032
 20
1519.893164968543
 30
0.0
 10
4763.334961404999
 20
1519.888744400532
 30
0.0
 10
4763.373938605077
 20
1519.886534991193
 30
0.0
  0
SPLINE
  5
A0
330
1F
100
AcDbEntity
  8
0
  6
Continuous
 62
     7
370
    25
100
AcDbSpline
210
0.0
220
0.0
230
1.0
 70
     8
 71
     3
 72
    15
 73
    11
 74
     0
 42
0.000000001
 43
0.00000001
 40
0.0
 40
0.0
 40
0.0
 40
0.0
 40
0.1548790377790518
 40
0.2919933978856725
 40
0.4126674844478919
 40
0.5257810605822457
 40
0.6337152448525811
 40
0.744971255442933
 40
0.8650822696620794
 40
1.0
 40
1.0
 40
1.0
 40
1.0
 10
4764.33202559832
 20
1519.886534991193
 30
0.0
 10
4764.358795017394
 20
1519.885741898149
 30
0.0
 10
4764.40926339418
 20
1519.884246680099
 30
0.0
 10
4764.479698323254
 20
1519.870750799162
 30
0.0
 10
4764.539603182156
 20
1519.847130909975
 30
0.0
 10
4764.589732253092
 20
1519.814825589379
 30
0.0
 10
4764.628058187014
 20
1519.771209275217
 30
0.0
 10
4764.655469463134
 20
1519.718745382001
 30
0.0
 10
4764.66996504834
 20
1519.656568194432
 30
0.0
 10
4764.67224617819
 20
1519.612533399588
 30
0.0
 10
4764.673452963185
 20
1519.589237693895
 30
0.0
  0
SPLINE
  5
A1
330
1F
100
AcDbEntity
  8
0
  6
Continuous
 62
     7
370
    25
100
AcDbSpline
210
0.0
220
0.0
230
1.0
 70
     8
 71
     3
 72
    15
 73
    11
 74
     0
 42
0.000000001
 43
0.00000001
 40
0.0
 40
0.0
 40
0.0
 40
0.0
 40
0.1349177303379009
 40
0.2550287445570486
 40
0.3662847551474207
 40
0.4742189394177413
 40
0.5873325155521084
 40
0.7080066021143211
 40
0.8451209622209476
 40
1.0
 40
1.0
 40
1.0
 40
1.0
 10
4764.673452963185
 20
1519.589237693895
 30
0.0
 10
4764.67224617819
 20
1519.565941988203
 30
0.0
 10
4764.66996504834
 20
1519.521907193359
 30
0.0
 10
4764.655469463134
 20
1519.459730005791
 30
0.0
 10
4764.628058187014
 20
1519.407266112575
 30
0.0
 10
4764.589732253092
 20
1519.363649798412
 30
0.0
 10
4764.539603182156
 20
1519.331344477816
 30
0.0
 10
4764.479698323255
 20
1519.307724588629
 30
0.0
 10
4764.40926339418
 20
1519.294228707692
 30
0.0
 10
4764.358795017394
 20
1519.292733489642
 30
0.0
 10
4764.33202559832
 20
1519.291940396598
 30
0.0
  0
SPLINE
  5
A2
330
1F
100
AcDbEntity
  8
0
  6
Continuous
 62
     7
370
    25
100
AcDbSpline
210
0.0
220
0.0
230
1.0
 70
     8
 71
     3
 72
    15
 73
    11
 74
     0
 42
0.000000001
 43
0.00000001
 40
0.0
 40
0.0
 40
0.0
 40
0.0
 40
0.1276094144620939
 40
0.2499167177708515
 40
0.3720143427043093
 40
0.500576363807611
 40
0.6284293671556751
 40
0.7514974778095976
 40
0.8734901284089588
 40
1.0
 40
1.0
 40
1.0
 40
1.0
 10
4768.369229990211
 20
1523.528426883085
 30
0.0
 10
4768.366834616272
 20
1523.573224438021
 30
0.0
 10
4768.362143395056
 20
1523.660958230555
 30
0.0
 10
4768.323254081487
 20
1523.786752232086
 30
0.0
 10
4768.260263458376
 20
1523.902234566749
 30
0.0
 10
4768.173350094999
 20
1524.003477995054
 30
0.0
 10
4768.0712450021
 20
1524.089765428761
 30
0.0
 10
4767.955622762417
 20
1524.152618991267
 30
0.0
 10
4767.829529016965
 20
1524.189816358144
 30
0.0
 10
4767.742363454858
 20
1524.19480575535
 30
0.0
 10
4767.697988436157
 20
1524.197345802004
 30
0.0
  0
SPLINE
  5
A4
330
1F
100
AcDbEntity
  8
0
  6
Continuous
 62
     7
370
    25
100
AcDbSpline
210
0.0
220
0.0
230
1.0
 70
     8
 71
     3
 72
    15
 73
    11
 74
     0
 42
0.000000001
 43
0.00000001
 40
0.0
 40
0.0
 40
0.0
 40
0.0
 40
0.109714650398988
 40
0.220991973593826
 40
0.33827097552513
 40
0.464733898615759
 40
0.5948009642717978
 40
0.7238485466785218
 40
0.8575872448702839
 40
1.0
 40
1.0
 40
1.0
 40
1.0
 10
4767.327528132103
 20
1524.197345802004
 30
0.0
 10
4767.291262164968
 20
1524.195075137593
 30
0.0
 10
4767.218213692201
 20
1524.190501467552
 30
0.0
 10
4767.111338335254
 20
1524.153683837841
 30
0.0
 10
4767.010786238217
 20
1524.092475446713
 30
0.0
 10
4766.916480365487
 20
1524.012176069062
 30
0.0
 10
4766.8347665642
 20
1523.913412865365
 30
0.0
 10
4766.77595790372
 20
1523.796832450829
 30
0.0
 10
4766.740157177405
 20
1523.666784445386
 30
0.0
 10
4766.736157506417
 20
1523.575501815061
 30
0.0
 10
4766.734094855076
 20
1523.528426883085
 30
0.0
  0
SPLINE
  5
A6
330
1F
100
AcDbEntity
  8
0
  6
Continuous
 62
     7
370
    25
100
AcDbSpline
210
0.0
220
0.0
230
1.0
 70
     8
 71
     3
 72
    15
 73
    11
 74
     0
 42
0.000000001
 43
0.00000001
 40
0.0
 40
0.0
 40
0.0
 40
0.0
 40
0.1435037183830817
 40
0.2760390562758147
 40
0.4060618464747888
 40
0.5360582087399427
 40
0.6624523876220306
 40
0.7790740198611268
 40
0.889179309388179
 40
1.0
 40
1.0
 40
1.0
 40
1.0
 10
4766.734094855076
 20
1520.555453910112
 30
0.0
 10
4766.73606216848
 20
1520.507966498242
 30
0.0
 10
4766.739846428161
 20
1520.416621266875
 30
0.0
 10
4766.776499306144
 20
1520.286503297724
 30
0.0
 10
4766.834355820778
 20
1520.169464415057
 30
0.0
 10
4766.91658782446
 20
1520.070674977521
 30
0.0
 10
4767.010406328141
 20
1519.989979129235
 30
0.0
 10
4767.111412375856
 20
1519.930714295412
 30
0.0
 10
4767.217702641939
 20
1519.893009680397
 30
0.0
 10
4767.29084069033
 20
1519.888697875081
 30
0.0
 10
4767.327528132103
 20
1519.886534991193
 30
0.0
  0
SPLINE
  5
A8
330
1F
100
AcDbEntity
  8
0
  6
Continuous
 62
     7
370
    25
100
AcDbSpline
210
0.0
220
0.0
230
1.0
 70
     8
 71
     3
 72
    15
 73
    11
 74
     0
 42
0.000000001
 43
0.00000001
 40
0.0
 40
0.0
 40
0.0
 40
0.0
 40
0.1274982018433523
 40
0.2493845348782993
 40
0.3723453906958191
 40
0.4993842070425027
 40
0.6271257854821265
 40
0.7506154651217264
 40
0.8725017981566603
 40
1.0
 40
1.0
 40
1.0
 40
1.0
 10
4767.697988436157
 20
1519.886534991193
 30
0.0
 10
4767.742748187357
 20
1519.889050014684
 30
0.0
 10
4767.830297576861
 20
1519.893969362209
 30
0.0
 10
4767.95685683222
 20
1519.931186011942
 30
0.0
 10
4768.071908982197
 20
1519.994293260543
 30
0.0
 10
4768.175040052302
 20
1520.078749177412
 30
0.0
 10
4768.260148634674
 20
1520.181502793973
 30
0.0
 10
4768.324786056053
 20
1520.29627499861
 30
0.0
 10
4768.361727503001
 20
1520.423179036557
 30
0.0
 10
4768.366691923234
 20
1520.510705751377
 30
0.0
 10
4768.369229990211
 20
1520.555453910112
 30
0.0
  0
SPLINE
  5
AA
330
1F
100
AcDbEntity
  8
0
  6
Continuous
 62
     7
370
    25
100
AcDbSpline
210
0.0
220
0.0
230
1.0
 70
     8
 71
     3
 72
    23
 73
    19
 74
     0
 42
0.000000001
 43
0.00000001
 40
0.0
 40
0.0
 40
0.0
 40
0.0
 40
0.0596984677698954
 40
0.1182376316334148
 40
0.1758156760585335
 40
0.2340880145940124
 40
0.2926014098287248
 40
0.3524988403494462
 40
0.4143425792735368
 40
0.4790413569464249
 40
0.5438488242948486
 40
0.6077816006315164
 40
0.6708302096468912
 40
0.7340778404193603
 40
0.7981519974078938
 40
0.863330739089978
 40
0.9304699138440342
 40
1.0
 40
1.0
 40
1.0
 40
1.0
 10
4769.038148909131
 20
1520.512485160112
 30
0.0
 10
4769.037020482693
 20
1520.472558118124
 30
0.0
 10
4769.034785543095
 20
1520.393479390325
 30
0.0
 10
4769.017338928429
 20
1520.276856648073
 30
0.0
 10
4768.986318747751
 20
1520.164244247371
 30
0.0
 10
4768.944859862352
 20
1520.055052216168
 30
0.0
 10
4768.890718727648
 20
1519.949780530361
 30
0.0
 10
4768.825243368572
 20
1519.848388051145
 30
0.0
 10
4768.748133640775
 20
1519.750167344905
 30
0.0
 10
4768.659528684118
 20
1519.657666393738
 30
0.0
 10
4768.562888767973
 20
1519.571324127466
 30
0.0
 10
4768.457641372378
 20
1519.497743723851
 30
0.0
 10
4768.348360450107
 20
1519.432151396921
 30
0.0
 10
4768.231075989458
 20
1519.38200890077
 30
0.0
 10
4768.109097090123
 20
1519.340237742338
 30
0.0
 10
4767.98031084445
 20
1519.3134564155
 30
0.0
 10
4767.84639712971
 20
1519.295002933319
 30
0.0
 10
4767.754959115933
 20
1519.292973079025
 30
0.0
 10
4767.708440294266
 20
1519.291940396598
 30
0.0
  0
SPLINE
  5
AC
330
1F
100
AcDbEntity
  8
0
  6
Continuous
 62
     7
370
    25
100
AcDbSpline
210
0.0
220
0.0
230
1.0
 70
     8
 71
     3
 72
    23
 73
    19
 74
     0
 42
0.000000001
 43
0.00000001
 40
0.0
 40
0.0
 40
0.0
 40
0.0
 40
0.0651968273752567
 40
0.128490355451132
 40
0.1911004981255638
 40
0.252516038029502
 40
0.3137365289174502
 40
0.3756297926528502
 40
0.4384931710491454
 40
0.5032476829196689
 40
0.5679249615742167
 40
0.6305493581231038
 40
0.6920491304039785
 40
0.752444719272709
 40
0.812937765696458
 40
0.873804420208858
 40
0.9359969093510043
 40
1.0
 40
1.0
 40
1.0
 40
1.0
 10
4767.315914956428
 20
1519.291940396598
 30
0.0
 10
4767.273667832323
 20
1519.293114888437
 30
0.0
 10
4767.190406909795
 20
1519.295429585023
 30
0.0
 10
4767.067486334838
 20
1519.312061018606
 30
0.0
 10
4766.949036286553
 20
1519.339460197206
 30
0.0
 10
4766.835751990111
 20
1519.379697212398
 30
0.0
 10
4766.726854407477
 20
1519.429511592615
 30
0.0
 10
4766.623436440319
 20
1519.49174263604
 30
0.0
 10
4766.523947981498
 20
1519.563983844318
 30
0.0
 10
4766.430935682559
 20
1519.647141895337
 30
0.0
 10
4766.345472826029
 20
1519.737841687439
 30
0.0
 10
4766.27096997939
 20
1519.835035636257
 30
0.0
 10
4766.206124058897
 20
1519.935770479992
 30
0.0
 10
4766.155440892497
 20
1520.042746273553
 30
0.0
 10
4766.113680345696
 20
1520.153108003086
 30
0.0
 10
4766.086772142192
 20
1520.269168168982
 30
0.0
 10
4766.068270707024
 20
1520.389179012533
 30
0.0
 10
4766.066217346698
 20
1520.470991838824
 30
0.0
 10
4766.065175936157
 20
1520.512485160112
 30
0.0
  0
SPLINE
  5
AE
330
1F
100
AcDbEntity
  8
0
  6
Continuous
 62
     7
370
    25
100
AcDbSpline
210
0.0
220
0.0
230
1.0
 70
     8
 71
     3
 72
    23
 73
    19
 74
     0
 42
0.000000001
 43
0.00000001
 40
0.0
 40
0.0
 40
0.0
 40
0.0
 40
0.0640219079057577
 40
0.126232681977981
 40
0.18653653735461
 40
0.2470473690630226
 40
0.3074607145633757
 40
0.368978568111792
 40
0.431621376573877
 40
0.4963176707001313
 40
0.5610912207493429
 40
0.6243271406750857
 40
0.6867528751010515
 40
0.747991365146295
 40
0.8094249615530026
 40
0.8714718676855088
 40
0.9347840044028911
 40
0.9999999999999999
 40
0.9999999999999999
 40
0.9999999999999999
 40
0.9999999999999999
 10
4766.065175936157
 20
1523.571395633085
 30
0.0
 10
4766.066227062493
 20
1523.612886598234
 30
0.0
 10
4766.068299579556
 20
1523.694694778903
 30
0.0
 10
4766.086604458912
 20
1523.81436692627
 30
0.0
 10
4766.11389698373
 20
1523.929944194234
 30
0.0
 10
4766.155418322061
 20
1524.039978893163
 30
0.0
 10
4766.206131288114
 20
1524.146945947858
 30
0.0
 10
4766.270963891924
 20
1524.247690417681
 30
0.0
 10
4766.3454903282
 20
1524.344853819971
 30
0.0
 10
4766.430869669377
 20
1524.435669889162
 30
0.0
 10
4766.524362692841
 20
1524.518547688275
 30
0.0
 10
4766.623205367186
 20
1524.592665973131
 30
0.0
 10
4766.727878633048
 20
1524.653962184762
 30
0.0
 10
4766.83686437333
 20
1524.704275003423
 30
0.0
 10
4766.94987258379
 20
1524.744194510796
 30
0.0
 10
4767.067831903808
 20
1524.77198333948
 30
0.0
 10
4767.190414333742
 20
1524.788421730773
 30
0.0
 10
4767.273670331288
 20
1524.790755982405
 30
0.0
 10
4767.315914956428
 20
1524.791940396598
 30
0.0
  0
SPLINE
  5
B0
330
1F
100
AcDbEntity
  8
0
  6
Continuous
 62
     7
370
    25
100
AcDbSpline
210
0.0
220
0.0
230
1.0
 70
     8
 71
     3
 72
    23
 73
    19
 74
     0
 42
0.000000001
 43
0.00000001
 40
0.0
 40
0.0
 40
0.0
 40
0.0
 40
0.0695660886455679
 40
0.1367400278818025
 40
0.2020784391817917
 40
0.2654541770857362
 40
0.3289700421547253
 40
0.3917607770916624
 40
0.4560640589846495
 40
0.5209050834634947
 40
0.5856373619875858
 40
0.647872641376895
 40
0.7078010866243205
 40
0.7663447799360237
 40
0.8241067595132429
 40
0.8822738882014302
 40
0.9402706205257712
 40
1.0
 40
1.0
 40
1.0
 40
1.0
 10
4767.708440294266
 20
1524.791940396598
 30
0.0
 10
4767.754947386125
 20
1524.790861701167
 30
0.0
 10
4767.846362343635
 20
1524.7887414031
 30
0.0
 10
4767.980526406618
 20
1524.770930928832
 30
0.0
 10
4768.108307555824
 20
1524.741843882113
 30
0.0
 10
4768.230845251545
 20
1524.702454165259
 30
0.0
 10
4768.346461213798
 20
1524.649884041996
 30
0.0
 10
4768.457274236264
 20
1524.586636916723
 30
0.0
 10
4768.561263518206
 20
1524.511114551402
 30
0.0
 10
4768.658517012555
 20
1524.425225073855
 30
0.0
 10
4768.746842634413
 20
1524.33212859471
 30
0.0
 10
4768.825350000992
 20
1524.234730442045
 30
0.0
 10
4768.890699096439
 20
1524.132903151717
 30
0.0
 10
4768.944549817344
 20
1524.027944884844
 30
0.0
 10
4768.986803708385
 20
1523.919019587972
 30
0.0
 10
4769.016975836825
 20
1523.80655029311
 30
0.0
 10
4769.03491100249
 20
1523.690040956825
 30
0.0
 10
4769.037059068782
 20
1523.611330219012
 30
0.0
 10
4769.038148909131
 20
1523.571395633085
 30
0.0
  0
SPLINE
  5
B3
330
1F
100
AcDbEntity
  8
0
  6
Continuous
 62
     7
370
    25
100
AcDbSpline
210
0.0
220
0.0
230
1.0
 70
     8
 71
     3
 72
    11
 73
     7
 74
     0
 42
0.000000001
 43
0.00000001
 40
0.0
 40
0.0
 40
0.0
 40
0.0
 40
0.2709176399661387
 40
0.5183552371052185
 40
0.7516456497894872
 40
1.0
 40
1.0
 40
1.0
 40
1.0
 10
4751.681561071293
 20
1524.722261342544
 30
0.0
 10
4751.695193179243
 20
1524.744043567405
 30
0.0
 10
4751.721275919922
 20
1524.785720182977
 30
0.0
 10
4751.776263532672
 20
1524.832163228124
 30
0.0
 10
4751.839980667091
 20
1524.861335048842
 30
0.0
 10
4751.885637114534
 20
1524.864587588055
 30
0.0
 10
4751.909179314536
 20
1524.866264720923
 30
0.0
  0
SPLINE
  5
B4
330
1F
100
AcDbEntity
  8
0
  6
Continuous
 62
     7
370
    25
100
AcDbSpline
210
0.0
220
0.0
230
1.0
 70
     8
 71
     3
 72
    15
 73
    11
 74
     0
 42
0.000000001
 43
0.00000001
 40
0.0
 40
0.0
 40
0.0
 40
0.0
 40
0.1634481711841417
 40
0.3077932699325029
 40
0.4342702607694476
 40
0.5497655524641709
 40
0.6554189183655887
 40
0.7626357660706267
 40
0.8753532093177956
 40
1.0
 40
1.0
 40
1.0
 40
1.0
 10
4751.909179314536
 20
1524.866264720923
 30
0.0
 10
4751.936695991069
 20
1524.865242215071
 30
0.0
 10
4751.988513321213
 20
1524.86331670916
 30
0.0
 10
4752.061140456948
 20
1524.852705967032
 30
0.0
 10
4752.1232666103
 20
1524.83190290759
 30
0.0
 10
4752.173861701696
 20
1524.801567621447
 30
0.0
 10
4752.214389065196
 20
1524.763111400332
 30
0.0
 10
4752.242696547798
 20
1524.715366820454
 30
0.0
 10
4752.259051559238
 20
1524.659035528415
 30
0.0
 10
4752.261128954852
 20
1524.619015848514
 30
0.0
 10
4752.262219855076
 20
1524.598000362815
 30
0.0
  0
SPLINE
  5
B5
330
1F
100
AcDbEntity
  8
0
  6
Continuous
 62
     7
370
    25
100
AcDbSpline
210
0.0
220
0.0
230
1.0
 70
     8
 71
     3
 72
     9
 73
     5
 74
     0
 42
0.000000001
 43
0.00000001
 40
0.0
 40
0.0
 40
0.0
 40
0.0
 40
0.4126719754695186
 40
1.0
 40
1.0
 40
1.0
 40
1.0
 10
4752.262219855076
 20
1524.598000362815
 30
0.0
 10
4752.259177580222
 20
1524.578766251315
 30
0.0
 10
4752.251805441973
 20
1524.532157533876
 30
0.0
 10
4752.229833315549
 20
1524.49023338667
 30
0.0
 10
4752.21692846994
 20
1524.465610160112
 30
0.0
  0
SPLINE
  5
B8
330
1F
100
AcDbEntity
  8
0
  6
Continuous
 62
     7
370
    25
100
AcDbSpline
210
0.0
220
0.0
230
1.0
 70
     8
 71
     3
 72
    15
 73
    11
 74
     0
 42
0.000000001
 43
0.00000001
 40
0.0
 40
0.0
 40
0.0
 40
0.0
 40
0.124646790682183
 40
0.2373642339293735
 40
0.344581081634412
 40
0.4502344475358303
 40
0.5657297392305541
 40
0.6922067300674922
 40
0.8365518288158575
 40
1.0
 40
1.0
 40
1.0
 40
1.0
 10
4752.262219855076
 20
1519.560204754707
 30
0.0
 10
4752.261128954852
 20
1519.539189269007
 30
0.0
 10
4752.259051559238
 20
1519.499169589107
 30
0.0
 10
4752.242696547798
 20
1519.442838297067
 30
0.0
 10
4752.214389065196
 20
1519.395093717189
 30
0.0
 10
4752.173861701696
 20
1519.356637496074
 30
0.0
 10
4752.1232666103
 20
1519.326302209931
 30
0.0
 10
4752.061140456948
 20
1519.305499150489
 30
0.0
 10
4751.988513321213
 20
1519.29488840836
 30
0.0
 10
4751.936695991069
 20
1519.29296290245
 30
0.0
 10
4751.909179314536
 20
1519.291940396598
 30
0.0
  0
SPLINE
  5
B9
330
1F
100
AcDbEntity
  8
0
  6
Continuous
 62
     7
370
    25
100
AcDbSpline
210
0.0
220
0.0
230
1.0
 70
     8
 71
     3
 72
    11
 73
     7
 74
     0
 42
0.000000001
 43
0.00000001
 40
0.0
 40
0.0
 40
0.0
 40
0.0
 40
0.2490100682574945
 40
0.4829164263989665
 40
0.7283670692180536
 40
1.0
 40
1.0
 40
1.0
 40
1.0
 10
4751.909179314536
 20
1519.291940396598
 30
0.0
 10
4751.885621287371
 20
1519.293598752986
 30
0.0
 10
4751.839934145595
 20
1519.296814878124
 30
0.0
 10
4751.77667019686
 20
1519.326145952951
 30
0.0
 10
4751.720908526769
 20
1519.371259402367
 30
0.0
 10
4751.695112283408
 20
1519.412905200477
 30
0.0
 10
4751.681561071293
 20
1519.434782457409
 30
0.0
  0
SPLINE
  5
BC
330
1F
100
AcDbEntity
  8
0
  6
Continuous
 62
     7
370
    25
100
AcDbSpline
210
0.0
220
0.0
230
1.0
 70
     8
 71
     3
 72
    11
 73
     7
 74
     0
 42
0.000000001
 43
0.00000001
 40
0.0
 40
0.0
 40
0.0
 40
0.0
 40
0.2296383273387382
 40
0.4615667334325056
 40
0.7108246957631811
 40
1.0
 40
1.0
 40
1.0
 40
1.0
 10
4749.522671713185
 20
1519.433621139842
 30
0.0
 10
4749.508092196907
 20
1519.411865076592
 30
0.0
 10
4749.478787769454
 20
1519.368135986753
 30
0.0
 10
4749.409546218216
 20
1519.323926527594
 30
0.0
 10
4749.32616406113
 20
1519.296253259662
 30
0.0
 10
4749.265124642693
 20
1519.293447357175
 30
0.0
 10
4749.232342321292
 20
1519.291940396598
 30
0.0
  0
SPLINE
  5
BD
330
1F
100
AcDbEntity
  8
0
  6
Continuous
 62
     7
370
    25
100
AcDbSpline
210
0.0
220
0.0
230
1.0
 70
     8
 71
     3
 72
    15
 73
    11
 74
     0
 42
0.000000001
 43
0.00000001
 40
0.0
 40
0.0
 40
0.0
 40
0.0
 40
0.147099731027162
 40
0.2781312030835129
 40
0.3954522588948674
 40
0.5075976704011448
 40
0.6156273865317815
 40
0.7316539878716557
 40
0.8581266717201846
 40
1.0
 40
1.0
 40
1.0
 40
1.0
 10
4749.232342321292
 20
1519.291940396598
 30
0.0
 10
4749.210625291505
 20
1519.292967651169
 30
0.0
 10
4749.169563465082
 20
1519.294909949414
 30
0.0
 10
4749.111777239825
 20
1519.305618848331
 30
0.0
 10
4749.062385005593
 20
1519.32689871849
 30
0.0
 10
4749.022412561939
 20
1519.357501697439
 30
0.0
 10
4748.990716139855
 20
1519.39635643712
 30
0.0
 10
4748.968711254333
 20
1519.443776600378
 30
0.0
 10
4748.956205894135
 20
1519.499571145046
 30
0.0
 10
4748.954518318641
 20
1519.539234773136
 30
0.0
 10
4748.953626105076
 20
1519.560204754707
 30
0.0
  0
SPLINE
  5
BE
330
1F
100
AcDbEntity
  8
0
  6
Continuous
 62
     7
370
    25
100
AcDbSpline
210
0.0
220
0.0
230
1.0
 70
     8
 71
     3
 72
     9
 73
     5
 74
     0
 42
0.000000001
 43
0.00000001
 40
0.0
 40
0.0
 40
0.0
 40
0.0
 40
0.4889243242648365
 40
1.0
 40
1.0
 40
1.0
 40
1.0
 10
4748.953626105076
 20
1519.560204754707
 30
0.0
 10
4748.955488329485
 20
1519.582594112465
 30
0.0
 10
4748.959297148796
 20
1519.628387206913
 30
0.0
 10
4748.978600274229
 20
1519.670110089453
 30
0.0
 10
4748.988465632104
 20
1519.691433639842
 30
0.0
  0
SPLINE
  5
C1
330
1F
100
AcDbEntity
  8
0
  6
Continuous
 62
     7
370
    25
100
AcDbSpline
210
0.0
220
0.0
230
1.0
 70
     8
 71
     3
 72
     9
 73
     5
 74
     0
 42
0.000000001
 43
0.00000001
 40
0.0
 40
0.0
 40
0.0
 40
0.0
 40
0.506811706679153
 40
1.0
 40
1.0
 40
1.0
 40
1.0
 10
4748.988465632104
 20
1524.465610160112
 30
0.0
 10
4748.978597652335
 20
1524.486934736259
 30
0.0
 10
4748.959126950223
 20
1524.529010670705
 30
0.0
 10
4748.955442990758
 20
1524.575213612704
 30
0.0
 10
4748.953626105076
 20
1524.598000362815
 30
0.0
  0
SPLINE
  5
C2
330
1F
100
AcDbEntity
  8
0
  6
Continuous
 62
     7
370
    25
100
AcDbSpline
210
0.0
220
0.0
230
1.0
 70
     8
 71
     3
 72
    15
 73
    11
 74
     0
 42
0.000000001
 43
0.00000001
 40
0.0
 40
0.0
 40
0.0
 40
0.0
 40
0.1418733282798395
 40
0.2683460121283434
 40
0.3843726134682169
 40
0.4924023295988531
 40
0.6045477411051298
 40
0.7218687969164937
 40
0.8529002689728388
 40
1.0
 40
1.0
 40
1.0
 40
1.0
 10
4748.953626105076
 20
1524.598000362815
 30
0.0
 10
4748.954518318641
 20
1524.618970344385
 30
0.0
 10
4748.956205894135
 20
1524.658633972475
 30
0.0
 10
4748.968711254333
 20
1524.714428517143
 30
0.0
 10
4748.990716139855
 20
1524.761848680401
 30
0.0
 10
4749.022412561939
 20
1524.800703420082
 30
0.0
 10
4749.062385005593
 20
1524.831306399031
 30
0.0
 10
4749.111777239826
 20
1524.85258626919
 30
0.0
 10
4749.169563465082
 20
1524.863295168107
 30
0.0
 10
4749.210625291505
 20
1524.865237466352
 30
0.0
 10
4749.232342321292
 20
1524.866264720923
 30
0.0
  0
SPLINE
  5
C3
330
1F
100
AcDbEntity
  8
0
  6
Continuous
 62
     7
370
    25
100
AcDbSpline
210
0.0
220
0.0
230
1.0
 70
     8
 71
     3
 72
    11
 73
     7
 74
     0
 42
0.000000001
 43
0.00000001
 40
0.0
 40
0.0
 40
0.0
 40
0.0
 40
0.2542831801163442
 40
0.488042010871843
 40
0.7317194604866931
 40
1.0
 40
1.0
 40
1.0
 40
1.0
 10
4749.232342321292
 20
1524.866264720923
 30
0.0
 10
4749.265668299935
 20
1524.864032080628
 30
0.0
 10
4749.329630366255
 20
1524.859747006569
 30
0.0
 10
4749.418536775191
 20
1524.819762159508
 30
0.0
 10
4749.491796497542
 20
1524.753105831908
 30
0.0
 10
4749.525009535703
 20
1524.69476678377
 30
0.0
 10
4749.542414111833
 20
1524.664195464166
 30
0.0
  0
SPLINE
  5
C5
330
1F
100
AcDbEntity
  8
0
  6
Continuous
 62
     7
370
    25
100
AcDbSpline
210
0.0
220
0.0
230
1.0
 70
     8
 71
     3
 72
     9
 73
     5
 74
     0
 42
0.000000001
 43
0.00000001
 40
0.0
 40
0.0
 40
0.0
 40
0.0
 40
0.5921133496329941
 40
1.0
 40
1.0
 40
1.0
 40
1.0
 10
4752.21692846994
 20
1519.691433639842
 30
0.0
 10
4752.229814412037
 20
1519.666808083504
 30
0.0
 10
4752.25157703925
 20
1519.625218823013
 30
0.0
 10
4752.259136465873
 20
1519.579040341038
 30
0.0
 10
4752.262219855076
 20
1519.560204754707
 30
0.0
  0
SPLINE
  5
C7
330
1F
100
AcDbEntity
  8
0
  6
Continuous
 62
     7
370
    25
100
AcDbSpline
210
0.0
220
0.0
230
1.0
 70
     8
 71
     3
 72
    15
 73
    11
 74
     0
 42
0.000000001
 43
0.00000001
 40
0.0
 40
0.0
 40
0.0
 40
0.0
 40
0.1678628092163385
 40
0.3148466165912281
 40
0.4441869603121089
 40
0.5592403382441694
 40
0.6652318690748134
 40
0.7706563435097072
 40
0.8787940473875381
 40
1.0
 40
1.0
 40
1.0
 40
1.0
 10
4773.021932692914
 20
1524.791940396598
 30
0.0
 10
4773.050994468069
 20
1524.790925429984
 30
0.0
 10
4773.105503275723
 20
1524.789021739665
 30
0.0
 10
4773.181975185757
 20
1524.778393154847
 30
0.0
 10
4773.246874659732
 20
1524.7575697265
 30
0.0
 10
4773.300604435693
 20
1524.728529259265
 30
0.0
 10
4773.343333807439
 20
1524.690388389033
 30
0.0
 10
4773.372451144605
 20
1524.642597651686
 30
0.0
 10
4773.390887558178
 20
1524.586915897187
 30
0.0
 10
4773.392632257468
 20
1524.547061398902
 30
0.0
 10
4773.393554314536
 20
1524.525998673625
 30
0.0
  0
SPLINE
  5
C9
330
1F
100
AcDbEntity
  8
0
  6
Continuous
 62
     7
370
    25
100
AcDbSpline
210
0.0
220
0.0
230
1.0
 70
     8
 71
     3
 72
    15
 73
    11
 74
     0
 42
0.000000001
 43
0.00000001
 40
0.0
 40
0.0
 40
0.0
 40
0.0
 40
0.1212059526124828
 40
0.2293436564902931
 40
0.3347681309251866
 40
0.4407596617558301
 40
0.5558130396878903
 40
0.6851533834087707
 40
0.8321371907836632
 40
1.0
 40
1.0
 40
1.0
 40
1.0
 10
4773.393554314536
 20
1519.557882119571
 30
0.0
 10
4773.392632257468
 20
1519.536819394295
 30
0.0
 10
4773.390887558178
 20
1519.49696489601
 30
0.0
 10
4773.372451144605
 20
1519.441283141511
 30
0.0
 10
4773.343333807439
 20
1519.393492404163
 30
0.0
 10
4773.300604435693
 20
1519.355351533932
 30
0.0
 10
4773.246874659732
 20
1519.326311066696
 30
0.0
 10
4773.181975185757
 20
1519.30548763835
 30
0.0
 10
4773.105503275722
 20
1519.294859053531
 30
0.0
 10
4773.050994468069
 20
1519.292955363213
 30
0.0
 10
4773.021932692914
 20
1519.291940396598
 30
0.0
  0
SPLINE
  5
CA
330
1F
100
AcDbEntity
  8
0
  6
Continuous
 62
     7
370
    25
100
AcDbSpline
210
0.0
220
0.0
230
1.0
 70
     8
 71
     3
 72
    15
 73
    11
 74
     0
 42
0.000000001
 43
0.00000001
 40
0.0
 40
0.0
 40
0.0
 40
0.0
 40
0.1528612850162834
 40
0.2874697277135287
 40
0.4083171843914797
 40
0.5197330343307329
 40
0.6278222855466364
 40
0.7415060099345898
 40
0.8623534666124847
 40
0.9999999999999999
 40
0.9999999999999999
 40
0.9999999999999999
 40
0.9999999999999999
 10
4773.021932692914
 20
1519.291940396598
 30
0.0
 10
4772.99866977172
 20
1519.292954274143
 30
0.0
 10
4772.954921705484
 20
1519.294860964262
 30
0.0
 10
4772.893333796299
 20
1519.305624852653
 30
0.0
 10
4772.841136571236
 20
1519.32673336079
 30
0.0
 10
4772.797976380316
 20
1519.356203012203
 30
0.0
 10
4772.764003569736
 20
1519.394741003525
 30
0.0
 10
4772.741223302716
 20
1519.442198568137
 30
0.0
 10
4772.726722597936
 20
1519.497424798267
 30
0.0
 10
4772.725360633623
 20
1519.536875077366
 30
0.0
 10
4772.724635395617
 20
1519.557882119571
 30
0.0
  0
SPLINE
  5
CB
330
1F
100
AcDbEntity
  8
0
  6
Continuous
 62
     7
370
    25
100
AcDbSpline
210
0.0
220
0.0
230
1.0
 70
     8
 71
     3
 72
    15
 73
    11
 74
     0
 42
0.000000001
 43
0.00000001
 40
0.0
 40
0.0
 40
0.0
 40
0.0
 40
0.1364411897143271
 40
0.2559957227680421
 40
0.3685080101434317
 40
0.4757423758333654
 40
0.5882546632087684
 40
0.7093427114892371
 40
0.8457839012034939
 40
1.0
 40
1.0
 40
1.0
 40
1.0
 10
4772.724635395617
 20
1524.531805261463
 30
0.0
 10
4772.725355844652
 20
1524.552430434417
 30
0.0
 10
4772.72670757628
 20
1524.591128103856
 30
0.0
 10
4772.741240537904
 20
1524.645183323223
 30
0.0
 10
4772.763976970362
 20
1524.691638230915
 30
0.0
 10
4772.798423860244
 20
1524.728736557617
 30
0.0
 10
4772.840814004515
 20
1524.758711810075
 30
0.0
 10
4772.893799843346
 20
1524.777475496381
 30
0.0
 10
4772.954664123915
 20
1524.791013225304
 30
0.0
 10
4772.998613931714
 20
1524.791618991129
 30
0.0
 10
4773.021932692914
 20
1524.791940396598
 30
0.0
  0
SPLINE
  5
CE
330
1F
100
AcDbEntity
  8
0
  6
Continuous
 62
     7
370
    25
100
AcDbSpline
210
0.0
220
0.0
230
1.0
 70
     8
 71
     3
 72
    15
 73
    11
 74
     0
 42
0.000000001
 43
0.00000001
 40
0.0
 40
0.0
 40
0.0
 40
0.0
 40
0.1212059526124897
 40
0.2293436564902795
 40
0.3347681309252244
 40
0.4407596617558739
 40
0.555813039687866
 40
0.6851533834087536
 40
0.8321371907837389
 40
1.0
 40
1.0
 40
1.0
 40
1.0
 10
4771.089500260482
 20
1519.557882119571
 30
0.0
 10
4771.088578203414
 20
1519.536819394295
 30
0.0
 10
4771.086833504124
 20
1519.49696489601
 30
0.0
 10
4771.068397090551
 20
1519.441283141511
 30
0.0
 10
4771.039279753385
 20
1519.393492404163
 30
0.0
 10
4770.996550381639
 20
1519.355351533932
 30
0.0
 10
4770.942820605678
 20
1519.326311066696
 30
0.0
 10
4770.877921131703
 20
1519.30548763835
 30
0.0
 10
4770.801449221669
 20
1519.294859053531
 30
0.0
 10
4770.746940414016
 20
1519.292955363213
 30
0.0
 10
4770.717878638859
 20
1519.291940396598
 30
0.0
  0
SPLINE
  5
CF
330
1F
100
AcDbEntity
  8
0
  6
Continuous
 62
     7
370
    25
100
AcDbSpline
210
0.0
220
0.0
230
1.0
 70
     8
 71
     3
 72
    15
 73
    11
 74
     0
 42
0.000000001
 43
0.00000001
 40
0.0
 40
0.0
 40
0.0
 40
0.0
 40
0.1528612850162797
 40
0.2874697277136171
 40
0.4083171843914752
 40
0.5197330343307257
 40
0.6278222855466267
 40
0.7415060099346207
 40
0.8623534666124881
 40
1.0
 40
1.0
 40
1.0
 40
1.0
 10
4770.717878638859
 20
1519.291940396598
 30
0.0
 10
4770.694615717665
 20
1519.292954274143
 30
0.0
 10
4770.65086765143
 20
1519.294860964262
 30
0.0
 10
4770.589279742245
 20
1519.305624852653
 30
0.0
 10
4770.537082517182
 20
1519.32673336079
 30
0.0
 10
4770.493922326263
 20
1519.356203012203
 30
0.0
 10
4770.459949515682
 20
1519.394741003525
 30
0.0
 10
4770.437169248661
 20
1519.442198568137
 30
0.0
 10
4770.422668543882
 20
1519.497424798267
 30
0.0
 10
4770.421306579569
 20
1519.536875077366
 30
0.0
 10
4770.420581341563
 20
1519.557882119571
 30
0.0
  0
SPLINE
  5
D1
330
1F
100
AcDbEntity
  8
0
  6
Continuous
 62
     7
370
    25
100
AcDbSpline
210
0.0
220
0.0
230
1.0
 70
     8
 71
     3
 72
    15
 73
    11
 74
     0
 42
0.000000001
 43
0.00000001
 40
0.0
 40
0.0
 40
0.0
 40
0.0
 40
0.1376465333874882
 40
0.2584939900653795
 40
0.372177714453374
 40
0.4802669656692753
 40
0.5916828156085262
 40
0.7125302722863849
 40
0.8471387149837183
 40
1.0
 40
1.0
 40
1.0
 40
1.0
 10
4770.420581341563
 20
1524.525998673625
 30
0.0
 10
4770.421306579569
 20
1524.547005715831
 30
0.0
 10
4770.422668543882
 20
1524.58645599493
 30
0.0
 10
4770.437169248661
 20
1524.641682225059
 30
0.0
 10
4770.459949515682
 20
1524.689139789672
 30
0.0
 10
4770.493922326263
 20
1524.727677780994
 30
0.0
 10
4770.537082517182
 20
1524.757147432406
 30
0.0
 10
4770.589279742245
 20
1524.778255940544
 30
0.0
 10
4770.65086765143
 20
1524.789019828935
 30
0.0
 10
4770.694615717665
 20
1524.790926519054
 30
0.0
 10
4770.717878638859
 20
1524.791940396598
 30
0.0
  0
SPLINE
  5
D2
330
1F
100
AcDbEntity
  8
0
  6
Continuous
 62
     7
370
    25
100
AcDbSpline
210
0.0
220
0.0
230
1.0
 70
     8
 71
     3
 72
    15
 73
    11
 74
     0
 42
0.000000001
 43
0.00000001
 40
0.0
 40
0.0
 40
0.0
 40
0.0
 40
0.1691382693020571
 40
0.3176902073342182
 40
0.4474110356377556
 40
0.5634106106293574
 40
0.6687664326273829
 40
0.7731538901270996
 40
0.8800408488353115
 40
1.0
 40
1.0
 40
1.0
 40
1.0
 10
4770.717878638859
 20
1524.791940396598
 30
0.0
 10
4770.746987844388
 20
1524.791628501599
 30
0.0
 10
4770.801663285834
 20
1524.791042673287
 30
0.0
 10
4770.877527280762
 20
1524.777556525981
 30
0.0
 10
4770.943102092544
 20
1524.759174243746
 30
0.0
 10
4770.996116772735
 20
1524.72950276852
 30
0.0
 10
4771.039255066754
 20
1524.692880992674
 30
0.0
 10
4771.068368836455
 20
1524.646117188429
 30
0.0
 10
4771.086847290138
 20
1524.591596661927
 30
0.0
 10
4771.088582604072
 20
1524.552486970919
 30
0.0
 10
4771.089500260482
 20
1524.531805261463
 30
0.0
  0
CIRCLE
  5
D6
330
1F
100
AcDbEntity
  8
0
  6
Continuous
 62
     7
370
    25
100
AcDbCircle
 10
4746.7476328704
 20
1527.820652163
 30
0.0
 40
1.499999999999091
  0
CIRCLE
  5
D7
330
1F
100
AcDbEntity
  8
0
  6
Continuous
 62
     7
370
    25
100
AcDbCircle
 10
4746.7476328704
 20
1527.820652163
 30
0.0
 40
0.75
  0
SPLINE
  5
D9
330
1F
100
AcDbEntity
  8
0
  6
Continuous
 62
     7
370
    25
100
AcDbSpline
210
0.0
220
0.0
230
1.0
 70
     8
 71
     3
 72
     8
 73
     4
 74
     0
 42
0.000000001
 43
0.00000001
 40
0.9744680851063829
 40
0.9744680851063829
 40
0.9744680851063829
 40
0.9744680851063829
 40
0.9787234042553191
 40
0.9787234042553191
 40
0.9787234042553191
 40
0.9787234042553191
 10
4821.855253965789
 20
1509.769211549085
 30
0.0
 10
4823.282860965789
 20
1510.614015549085
 30
0.0
 10
4825.133631965789
 20
1510.548356549085
 30
0.0
 10
4826.625627965789
 20
1511.293973549085
 30
0.0
  0
SPLINE
  5
DB
330
1F
100
AcDbEntity
  8
0
  6
Continuous
 62
     7
370
    25
100
AcDbSpline
210
0.0
220
0.0
230
1.0
 70
     8
 71
     3
 72
     8
 73
     4
 74
     0
 42
0.000000001
 43
0.00000001
 40
0.9659574468085106
 40
0.9659574468085106
 40
0.9659574468085106
 40
0.9659574468085106
 40
0.9702127659574468
 40
0.9702127659574468
 40
0.9702127659574468
 40
0.9702127659574468
 10
4820.29848796579
 20
1506.524488549085
 30
0.0
 10
4821.11014496579
 20
1507.043410549085
 30
0.0
 10
4820.916215965789
 20
1509.185011549085
 30
0.0
 10
4821.822868965789
 20
1509.769211549085
 30
0.0
  0
SPLINE
  5
DC
330
1F
100
AcDbEntity
  8
0
  6
Continuous
 62
     7
370
    25
100
AcDbSpline
210
0.0
220
0.0
230
1.0
 70
     8
 71
     3
 72
     8
 73
     4
 74
     0
 42
0.000000001
 43
0.00000001
 40
0.9617021276595744
 40
0.9617021276595744
 40
0.9617021276595744
 40
0.9617021276595744
 40
0.9659574468085106
 40
0.9659574468085106
 40
0.9659574468085106
 40
0.9659574468085106
 10
4815.009699965789
 20
1506.005185549085
 30
0.0
 10
4815.820848965789
 20
1510.287625549085
 30
0.0
 10
4819.032678965789
 20
1505.713339549085
 30
0.0
 10
4820.29848796579
 20
1506.524488549085
 30
0.0
  0
SPLINE
  5
DD
330
1F
100
AcDbEntity
  8
0
  6
Continuous
 62
     7
370
    25
100
AcDbSpline
210
0.0
220
0.0
230
1.0
 70
     8
 71
     3
 72
     8
 73
     4
 74
     0
 42
0.000000001
 43
0.00000001
 40
0.9574468085106383
 40
0.9574468085106383
 40
0.9574468085106383
 40
0.9574468085106383
 40
0.9617021276595744
 40
0.9617021276595744
 40
0.9617021276595744
 40
0.9617021276595744
 10
4815.366696965789
 20
1503.277987549085
 30
0.0
 10
4815.56049896579
 20
1504.188069549085
 30
0.0
 10
4814.84917196579
 20
1505.128758549085
 30
0.0
 10
4815.009699965789
 20
1506.005185549085
 30
0.0
  0
SPLINE
  5
DE
330
1F
100
AcDbEntity
  8
0
  6
Continuous
 62
     7
370
    25
100
AcDbSpline
210
0.0
220
0.0
230
1.0
 70
     8
 71
     3
 72
     8
 73
     4
 74
     0
 42
0.000000001
 43
0.00000001
 40
0.9531914893617022
 40
0.9531914893617022
 40
0.9531914893617022
 40
0.9531914893617022
 40
0.9574468085106383
 40
0.9574468085106383
 40
0.9574468085106383
 40
0.9574468085106383
 10
4813.48404896579
 20
1498.672205549085
 30
0.0
 10
4813.809168965789
 20
1500.293614549085
 30
0.0
 10
4815.009699965789
 20
1501.656959549085
 30
0.0
 10
4815.366696965789
 20
1503.277987549085
 30
0.0
  0
SPLINE
  5
DF
330
1F
100
AcDbEntity
  8
0
  6
Continuous
 62
     7
370
    25
100
AcDbSpline
210
0.0
220
0.0
230
1.0
 70
     8
 71
     3
 72
     8
 73
     4
 74
     0
 42
0.000000001
 43
0.00000001
 40
0.948936170212766
 40
0.948936170212766
 40
0.948936170212766
 40
0.948936170212766
 40
0.9531914893617022
 40
0.9531914893617022
 40
0.9531914893617022
 40
0.9531914893617022
 10
4813.517322965789
 20
1498.315208549085
 30
0.0
 10
4813.452044965789
 20
1498.412236549085
 30
0.0
 10
4813.452044965789
 20
1498.541776549085
 30
0.0
 10
4813.48404896579
 20
1498.672205549085
 30
0.0
  0
SPLINE
  5
EE
330
1F
100
AcDbEntity
  8
0
  6
Continuous
 62
     7
370
    25
100
AcDbSpline
210
0.0
220
0.0
230
1.0
 70
     8
 71
     3
 72
     8
 73
     4
 74
     0
 42
0.000000001
 43
0.00000001
 40
0.8851063829787233
 40
0.8851063829787233
 40
0.8851063829787233
 40
0.8851063829787233
 40
0.8893617021276595
 40
0.8893617021276595
 40
0.8893617021276595
 40
0.8893617021276595
 10
4778.506724965789
 20
1503.961882549085
 30
0.0
 10
4779.220337965789
 20
1504.610725549085
 30
0.0
 10
4779.902454965789
 20
1504.188069549085
 30
0.0
 10
4780.486146965789
 20
1503.441182549085
 30
0.0
  0
SPLINE
  5
EF
330
1F
100
AcDbEntity
  8
0
  6
Continuous
 62
     7
370
    25
100
AcDbSpline
210
0.0
220
0.0
230
1.0
 70
     8
 71
     3
 72
     8
 73
     4
 74
     0
 42
0.000000001
 43
0.00000001
 40
0.8808510638297873
 40
0.8808510638297873
 40
0.8808510638297873
 40
0.8808510638297873
 40
0.8851063829787233
 40
0.8851063829787233
 40
0.8851063829787233
 40
0.8851063829787233
 10
4779.513072965789
 20
1500.390769549085
 30
0.0
 10
4779.999228965788
 20
1501.332347549085
 30
0.0
 10
4777.695575965789
 20
1503.246491549085
 30
0.0
 10
4778.506724965789
 20
1503.961882549085
 30
0.0
  0
SPLINE
  5
F0
330
1F
100
AcDbEntity
  8
0
  6
Continuous
 62
     7
370
    25
100
AcDbSpline
210
0.0
220
0.0
230
1.0
 70
     8
 71
     3
 72
     8
 73
     4
 74
     0
 42
0.000000001
 43
0.00000001
 40
0.8765957446808511
 40
0.8765957446808511
 40
0.8765957446808511
 40
0.8765957446808511
 40
0.8808510638297873
 40
0.8808510638297873
 40
0.8808510638297873
 40
0.8808510638297873
 10
4777.468499965788
 20
1500.911469549085
 30
0.0
 10
4778.150616965789
 20
1501.041009549085
 30
0.0
 10
4779.220337965789
 20
1499.743196549085
 30
0.0
 10
4779.513072965789
 20
1500.390769549085
 30
0.0
  0
SPLINE
  5
F1
330
1F
100
AcDbEntity
  8
0
  6
Continuous
 62
     7
370
    25
100
AcDbSpline
210
0.0
220
0.0
230
1.0
 70
     8
 71
     3
 72
     8
 73
     4
 74
     0
 42
0.000000001
 43
0.00000001
 40
0.8723404255319149
 40
0.8723404255319149
 40
0.8723404255319149
 40
0.8723404255319149
 40
0.8765957446808511
 40
0.8765957446808511
 40
0.8765957446808511
 40
0.8765957446808511
 10
4777.144776965789
 20
1497.989580549085
 30
0.0
 10
4777.727579965789
 20
1498.218053549085
 30
0.0
 10
4776.266571965789
 20
1500.651119549085
 30
0.0
 10
4777.468499965788
 20
1500.911469549085
 30
0.0
  0
SPLINE
  5
F2
330
1F
100
AcDbEntity
  8
0
  6
Continuous
 62
     7
370
    25
100
AcDbSpline
210
0.0
220
0.0
230
1.0
 70
     8
 71
     3
 72
     8
 73
     4
 74
     0
 42
0.000000001
 43
0.00000001
 40
0.8680851063829788
 40
0.8680851063829788
 40
0.8680851063829788
 40
0.8680851063829788
 40
0.8723404255319149
 40
0.8723404255319149
 40
0.8723404255319149
 40
0.8723404255319149
 10
4775.587121965789
 20
1499.354322549085
 30
0.0
 10
4776.266571965789
 20
1499.257548549085
 30
0.0
 10
4776.495044965789
 20
1497.763012549085
 30
0.0
 10
4777.144776965789
 20
1497.989580549085
 30
0.0
  0
SPLINE
  5
F3
330
1F
100
AcDbEntity
  8
0
  6
Continuous
 62
     7
370
    25
100
AcDbSpline
210
0.0
220
0.0
230
1.0
 70
     8
 71
     3
 72
     8
 73
     4
 74
     0
 42
0.000000001
 43
0.00000001
 40
0.8638297872340426
 40
0.8638297872340426
 40
0.8638297872340426
 40
0.8638297872340426
 40
0.8680851063829788
 40
0.8680851063829788
 40
0.8680851063829788
 40
0.8680851063829788
 10
4774.743587965789
 20
1498.347974549085
 30
0.0
 10
4775.164973965789
 20
1498.153664549085
 30
0.0
 10
4775.164973965789
 20
1499.418203549085
 30
0.0
 10
4775.587121965789
 20
1499.354322549085
 30
0.0
  0
SPLINE
  5
F4
330
1F
100
AcDbEntity
  8
0
  6
Continuous
 62
     7
370
    25
100
AcDbSpline
210
0.0
220
0.0
230
1.0
 70
     8
 71
     3
 72
     8
 73
     4
 74
     0
 42
0.000000001
 43
0.00000001
 40
0.8595744680851064
 40
0.8595744680851064
 40
0.8595744680851064
 40
0.8595744680851064
 40
0.8638297872340426
 40
0.8638297872340426
 40
0.8638297872340426
 40
0.8638297872340426
 10
4773.705362965788
 20
1501.755003549085
 30
0.0
 10
4774.029085965789
 20
1501.462776549085
 30
0.0
 10
4772.892435965789
 20
1499.092194549085
 30
0.0
 10
4774.743587965789
 20
1498.347974549085
 30
0.0
  0
SPLINE
  5
F5
330
1F
100
AcDbEntity
  8
0
  6
Continuous
 62
     7
370
    25
100
AcDbSpline
210
0.0
220
0.0
230
1.0
 70
     8
 71
     3
 72
     8
 73
     4
 74
     0
 42
0.000000001
 43
0.00000001
 40
0.8553191489361702
 40
0.8553191489361702
 40
0.8553191489361702
 40
0.8553191489361702
 40
0.8595744680851064
 40
0.8595744680851064
 40
0.8595744680851064
 40
0.8595744680851064
 10
4771.660789965788
 20
1501.916928549085
 30
0.0
 10
4772.309632965789
 20
1502.210044549085
 30
0.0
 10
4773.218317965789
 20
1502.210044549085
 30
0.0
 10
4773.705362965788
 20
1501.755003549085
 30
0.0
  0
SPLINE
  5
F6
330
1F
100
AcDbEntity
  8
0
  6
Continuous
 62
     7
370
    25
100
AcDbSpline
210
0.0
220
0.0
230
1.0
 70
     8
 71
     3
 72
     8
 73
     4
 74
     0
 42
0.000000001
 43
0.00000001
 40
0.851063829787234
 40
0.851063829787234
 40
0.851063829787234
 40
0.851063829787234
 40
0.8553191489361702
 40
0.8553191489361702
 40
0.8553191489361702
 40
0.8553191489361702
 10
4770.978291965789
 20
1500.553964549085
 30
0.0
 10
4771.399550965788
 20
1500.812536549085
 30
0.0
 10
4771.20612996579
 20
1501.721729549085
 30
0.0
 10
4771.660789965788
 20
1501.916928549085
 30
0.0
  0
SPLINE
  5
F7
330
1F
100
AcDbEntity
  8
0
  6
Continuous
 62
     7
370
    25
100
AcDbSpline
210
0.0
220
0.0
230
1.0
 70
     8
 71
     3
 72
     8
 73
     4
 74
     0
 42
0.000000001
 43
0.00000001
 40
0.8468085106382979
 40
0.8468085106382979
 40
0.8468085106382979
 40
0.8468085106382979
 40
0.851063829787234
 40
0.851063829787234
 40
0.851063829787234
 40
0.851063829787234
 10
4769.779030965788
 20
1500.715889549085
 30
0.0
 10
4769.907681965789
 20
1500.326888549085
 30
0.0
 10
4770.655330965788
 20
1500.326888549085
 30
0.0
 10
4770.978291965789
 20
1500.553964549085
 30
0.0
  0
SPLINE
  5
F8
330
1F
100
AcDbEntity
  8
0
  6
Continuous
 62
     7
370
    25
100
AcDbSpline
210
0.0
220
0.0
230
1.0
 70
     8
 71
     3
 72
     8
 73
     4
 74
     0
 42
0.000000001
 43
0.00000001
 40
0.8425531914893617
 40
0.8425531914893617
 40
0.8425531914893617
 40
0.8425531914893617
 40
0.8468085106382979
 40
0.8468085106382979
 40
0.8468085106382979
 40
0.8468085106382979
 10
4770.460258965789
 20
1502.435342549085
 30
0.0
 10
4770.525409965789
 20
1501.819265549085
 30
0.0
 10
4769.616216965789
 20
1501.299073549085
 30
0.0
 10
4769.779030965788
 20
1500.715889549085
 30
0.0
  0
SPLINE
  5
F9
330
1F
100
AcDbEntity
  8
0
  6
Continuous
 62
     7
370
    25
100
AcDbSpline
210
0.0
220
0.0
230
1.0
 70
     8
 71
     3
 72
     8
 73
     4
 74
     0
 42
0.000000001
 43
0.00000001
 40
0.8382978723404255
 40
0.8382978723404255
 40
0.8382978723404255
 40
0.8382978723404255
 40
0.8425531914893617
 40
0.8425531914893617
 40
0.8425531914893617
 40
0.8425531914893617
 10
4768.415177965789
 20
1503.116570549085
 30
0.0
 10
4768.609487965789
 20
1503.182610549085
 30
0.0
 10
4770.460258965789
 20
1502.630033549085
 30
0.0
 10
4770.460258965789
 20
1502.435342549085
 30
0.0
  0
SPLINE
  5
FA
330
1F
100
AcDbEntity
  8
0
  6
Continuous
 62
     7
370
    25
100
AcDbSpline
210
0.0
220
0.0
230
1.0
 70
     8
 71
     3
 72
     8
 73
     4
 74
     0
 42
0.000000001
 43
0.00000001
 40
0.8340425531914893
 40
0.8340425531914893
 40
0.8340425531914893
 40
0.8340425531914893
 40
0.8382978723404255
 40
0.8382978723404255
 40
0.8382978723404255
 40
0.8382978723404255
 10
4767.411115965789
 20
1502.078726549085
 30
0.0
 10
4767.864378965789
 20
1501.981190549085
 30
0.0
 10
4767.962422965789
 20
1502.987030549085
 30
0.0
 10
4768.415177965789
 20
1503.116570549085
 30
0.0
  0
SPLINE
  5
FB
330
1F
100
AcDbEntity
  8
0
  6
Continuous
 62
     7
370
    25
100
AcDbSpline
210
0.0
220
0.0
230
1.0
 70
     8
 71
     3
 72
     8
 73
     4
 74
     0
 42
0.000000001
 43
0.00000001
 40
0.8297872340425532
 40
0.8297872340425532
 40
0.8297872340425532
 40
0.8297872340425532
 40
0.8340425531914893
 40
0.8340425531914893
 40
0.8340425531914893
 40
0.8340425531914893
 10
4766.728109965789
 20
1503.441182549085
 30
0.0
 10
4766.695343965788
 20
1502.955153549085
 30
0.0
 10
4766.891304965789
 20
1502.176770549085
 30
0.0
 10
4767.411115965789
 20
1502.078726549085
 30
0.0
  0
SPLINE
  5
FC
330
1F
100
AcDbEntity
  8
0
  6
Continuous
 62
     7
370
    25
100
AcDbSpline
210
0.0
220
0.0
230
1.0
 70
     8
 71
     3
 72
     8
 73
     4
 74
     0
 42
0.000000001
 43
0.00000001
 40
0.825531914893617
 40
0.825531914893617
 40
0.825531914893617
 40
0.825531914893617
 40
0.8297872340425532
 40
0.8297872340425532
 40
0.8297872340425532
 40
0.8297872340425532
 10
4767.735727965789
 20
1506.881485549085
 30
0.0
 10
4768.706642965789
 20
1505.745724549085
 30
0.0
 10
4766.76316196579
 20
1504.253220549085
 30
0.0
 10
4766.728109965789
 20
1503.441182549085
 30
0.0
  0
SPLINE
  5
FD
330
1F
100
AcDbEntity
  8
0
  6
Continuous
 62
     7
370
    25
100
AcDbSpline
210
0.0
220
0.0
230
1.0
 70
     8
 71
     3
 72
     8
 73
     4
 74
     0
 42
0.000000001
 43
0.00000001
 40
0.8212765957446808
 40
0.8212765957446808
 40
0.8212765957446808
 40
0.8212765957446808
 40
0.825531914893617
 40
0.825531914893617
 40
0.825531914893617
 40
0.825531914893617
 10
4766.534688965789
 20
1506.005185549085
 30
0.0
 10
4766.794149965789
 20
1506.459718549085
 30
0.0
 10
4767.411115965789
 20
1507.238990549085
 30
0.0
 10
4767.735727965789
 20
1506.881485549085
 30
0.0
  0
SPLINE
  5
FE
330
1F
100
AcDbEntity
  8
0
  6
Continuous
 62
     7
370
    25
100
AcDbSpline
210
0.0
220
0.0
230
1.0
 70
     8
 71
     3
 72
     8
 73
     4
 74
     0
 42
0.000000001
 43
0.00000001
 40
0.8170212765957446
 40
0.8170212765957446
 40
0.8170212765957446
 40
0.8170212765957446
 40
0.8212765957446808
 40
0.8212765957446808
 40
0.8212765957446808
 40
0.8212765957446808
 10
4766.209695965789
 20
1503.961882549085
 30
0.0
 10
4766.600347965789
 20
1504.544177549085
 30
0.0
 10
4766.242461965789
 20
1505.389489549085
 30
0.0
 10
4766.534688965789
 20
1506.005185549085
 30
0.0
  0
SPLINE
  5
FF
330
1F
100
AcDbEntity
  8
0
  6
Continuous
 62
     7
370
    25
100
AcDbSpline
210
0.0
220
0.0
230
1.0
 70
     8
 71
     3
 72
     8
 73
     4
 74
     0
 42
0.000000001
 43
0.00000001
 40
0.8127659574468085
 40
0.8127659574468085
 40
0.8127659574468085
 40
0.8127659574468085
 40
0.8170212765957446
 40
0.8170212765957446
 40
0.8170212765957446
 40
0.8170212765957446
 10
4761.245011965789
 20
1504.643110549085
 30
0.0
 10
4761.959132965789
 20
1505.290683549085
 30
0.0
 10
4763.709573965789
 20
1500.390769549085
 30
0.0
 10
4766.209695965789
 20
1503.961882549085
 30
0.0
  0
SPLINE
  5
100
330
1F
100
AcDbEntity
  8
0
  6
Continuous
 62
     7
370
    25
100
AcDbSpline
210
0.0
220
0.0
230
1.0
 70
     8
 71
     3
 72
     8
 73
     4
 74
     0
 42
0.000000001
 43
0.00000001
 40
0.8085106382978723
 40
0.8085106382978723
 40
0.8085106382978723
 40
0.8085106382978723
 40
0.8127659574468085
 40
0.8127659574468085
 40
0.8127659574468085
 40
0.8127659574468085
 10
4760.920399965789
 20
1502.078726549085
 30
0.0
 10
4761.634393965789
 20
1502.566152549085
 30
0.0
 10
4760.629823965789
 20
1504.058148549085
 30
0.0
 10
4761.245011965789
 20
1504.643110549085
 30
0.0
  0
SPLINE
  5
101
330
1F
100
AcDbEntity
  8
0
  6
Continuous
 62
     7
370
    25
100
AcDbSpline
210
0.0
220
0.0
230
1.0
 70
     8
 71
     3
 72
     8
 73
     4
 74
     0
 42
0.000000001
 43
0.00000001
 40
0.8042553191489362
 40
0.8042553191489362
 40
0.8042553191489362
 40
0.8042553191489362
 40
0.8085106382978723
 40
0.8085106382978723
 40
0.8085106382978723
 40
0.8085106382978723
 10
4754.268266965789
 20
1502.078726549085
 30
0.0
 10
4755.697143965789
 20
1501.916928549085
 30
0.0
 10
4759.914940965789
 20
1501.398006549085
 30
0.0
 10
4760.920399965789
 20
1502.078726549085
 30
0.0
  0
SPLINE
  5
102
330
1F
100
AcDbEntity
  8
0
  6
Continuous
 62
     7
370
    25
100
AcDbSpline
210
0.0
220
0.0
230
1.0
 70
     8
 71
     3
 72
     8
 73
     4
 74
     0
 42
0.000000001
 43
0.00000001
 40
0.8
 40
0.8
 40
0.8
 40
0.8
 40
0.8042553191489362
 40
0.8042553191489362
 40
0.8042553191489362
 40
0.8042553191489362
 10
4752.550083965789
 20
1502.435342549085
 30
0.0
 10
4753.134156965789
 20
1502.371842549085
 30
0.0
 10
4753.684955965789
 20
1502.144004549085
 30
0.0
 10
4754.268266965789
 20
1502.078726549085
 30
0.0
  0
SPLINE
  5
103
330
1F
100
AcDbEntity
  8
0
  6
Continuous
 62
     7
370
    25
100
AcDbSpline
210
0.0
220
0.0
230
1.0
 70
     8
 71
     3
 72
     8
 73
     4
 74
     0
 42
0.000000001
 43
0.00000001
 40
0.7957446808510639
 40
0.7957446808510639
 40
0.7957446808510639
 40
0.7957446808510639
 40
0.8
 40
0.8
 40
0.8
 40
0.8
 10
4751.543735965789
 20
1501.234303549085
 30
0.0
 10
4751.997506965788
 20
1501.430772549085
 30
0.0
 10
4752.030653965789
 20
1502.466457549085
 30
0.0
 10
4752.550083965789
 20
1502.435342549085
 30
0.0
  0
SPLINE
  5
104
330
1F
100
AcDbEntity
  8
0
  6
Continuous
 62
     7
370
    25
100
AcDbSpline
210
0.0
220
0.0
230
1.0
 70
     8
 71
     3
 72
     8
 73
     4
 74
     0
 42
0.000000001
 43
0.00000001
 40
0.7914893617021277
 40
0.7914893617021277
 40
0.7914893617021277
 40
0.7914893617021277
 40
0.7957446808510639
 40
0.7957446808510639
 40
0.7957446808510639
 40
0.7957446808510639
 10
4749.500051965789
 20
1501.074156549085
 30
0.0
 10
4750.148894965789
 20
1501.201537549085
 30
0.0
 10
4750.894892965789
 20
1500.976239549085
 30
0.0
 10
4751.543735965789
 20
1501.234303549085
 30
0.0
  0
SPLINE
  5
105
330
1F
100
AcDbEntity
  8
0
  6
Continuous
 62
     7
370
    25
100
AcDbSpline
210
0.0
220
0.0
230
1.0
 70
     8
 71
     3
 72
     8
 73
     4
 74
     0
 42
0.000000001
 43
0.00000001
 40
0.7872340425531915
 40
0.7872340425531915
 40
0.7872340425531915
 40
0.7872340425531915
 40
0.7914893617021277
 40
0.7914893617021277
 40
0.7914893617021277
 40
0.7914893617021277
 10
4746.05936796579
 20
1500.034153549085
 30
0.0
 10
4747.098481965789
 20
1500.618226549085
 30
0.0
 10
4748.331905965789
 20
1500.812536549085
 30
0.0
 10
4749.500051965789
 20
1501.074156549085
 30
0.0
  0
SPLINE
  5
106
330
1F
100
AcDbEntity
  8
0
  6
Continuous
 62
     7
370
    25
100
AcDbSpline
210
0.0
220
0.0
230
1.0
 70
     8
 71
     3
 72
     8
 73
     4
 74
     0
 42
0.000000001
 43
0.00000001
 40
0.7829787234042553
 40
0.7829787234042553
 40
0.7829787234042553
 40
0.7829787234042553
 40
0.7872340425531915
 40
0.7872340425531915
 40
0.7872340425531915
 40
0.7872340425531915
 10
4745.572830965789
 20
1498.834892549085
 30
0.0
 10
4745.994978965789
 20
1498.801618549085
 30
0.0
 10
4745.703132965789
 20
1499.839462549085
 30
0.0
 10
4746.05936796579
 20
1500.034153549085
 30
0.0
  0
SPLINE
  5
107
330
1F
100
AcDbEntity
  8
0
  6
Continuous
 62
     7
370
    25
100
AcDbSpline
210
0.0
220
0.0
230
1.0
 70
     8
 71
     3
 72
     8
 73
     4
 74
     0
 42
0.000000001
 43
0.00000001
 40
0.7787234042553192
 40
0.7787234042553192
 40
0.7787234042553192
 40
0.7787234042553192
 40
0.7829787234042553
 40
0.7829787234042553
 40
0.7829787234042553
 40
0.7829787234042553
 10
4740.447110965789
 20
1500.715889549085
 30
0.0
 10
4742.166182965789
 20
1500.196459549085
 30
0.0
 10
4743.75533396579
 20
1499.060698549085
 30
0.0
 10
4745.572830965789
 20
1498.834892549085
 30
0.0
  0
SPLINE
  5
108
330
1F
100
AcDbEntity
  8
0
  6
Continuous
 62
     7
370
    25
100
AcDbSpline
210
0.0
220
0.0
230
1.0
 70
     8
 71
     3
 72
     8
 73
     4
 74
     0
 42
0.000000001
 43
0.00000001
 40
0.774468085106383
 40
0.774468085106383
 40
0.774468085106383
 40
0.774468085106383
 40
0.7787234042553192
 40
0.7787234042553192
 40
0.7787234042553192
 40
0.7787234042553192
 10
4734.801325965789
 20
1502.078726549085
 30
0.0
 10
4736.51988996579
 20
1501.234303549085
 30
0.0
 10
4738.596847965789
 20
1501.268847549085
 30
0.0
 10
4740.447110965789
 20
1500.715889549085
 30
0.0
  0
SPLINE
  5
109
330
1F
100
AcDbEntity
  8
0
  6
Continuous
 62
     7
370
    25
100
AcDbSpline
210
0.0
220
0.0
230
1.0
 70
     8
 71
     3
 72
     8
 73
     4
 74
     0
 42
0.000000001
 43
0.00000001
 40
0.7702127659574468
 40
0.7702127659574468
 40
0.7702127659574468
 40
0.7702127659574468
 40
0.774468085106383
 40
0.774468085106383
 40
0.774468085106383
 40
0.774468085106383
 10
4734.962742965788
 20
1504.999218549085
 30
0.0
 10
4736.06662696579
 20
1504.155684549085
 30
0.0
 10
4734.606126965789
 20
1502.210044549085
 30
0.0
 10
4734.801325965789
 20
1502.078726549085
 30
0.0
  0
SPLINE
  5
10A
330
1F
100
AcDbEntity
  8
0
  6
Continuous
 62
     7
370
    25
100
AcDbSpline
210
0.0
220
0.0
230
1.0
 70
     8
 71
     3
 72
     8
 73
     4
 74
     0
 42
0.000000001
 43
0.00000001
 40
0.7659574468085106
 40
0.7659574468085106
 40
0.7659574468085106
 40
0.7659574468085106
 40
0.7702127659574468
 40
0.7702127659574468
 40
0.7702127659574468
 40
0.7702127659574468
 10
4733.794088965789
 20
1504.479026549085
 30
0.0
 10
4734.218522965789
 20
1504.448419549085
 30
0.0
 10
4734.639908965789
 20
1505.259187549085
 30
0.0
 10
4734.962742965788
 20
1504.999218549085
 30
0.0
  0
SPLINE
  5
10B
330
1F
100
AcDbEntity
  8
0
  6
Continuous
 62
     7
370
    25
100
AcDbSpline
210
0.0
220
0.0
230
1.0
 70
     8
 71
     3
 72
     8
 73
     4
 74
     0
 42
0.000000001
 43
0.00000001
 40
0.7617021276595745
 40
0.7617021276595745
 40
0.7617021276595745
 40
0.7617021276595745
 40
0.7659574468085106
 40
0.7659574468085106
 40
0.7659574468085106
 40
0.7659574468085106
 10
4730.356071965789
 20
1506.005185549085
 30
0.0
 10
4730.908140965788
 20
1505.063988549085
 30
0.0
 10
4732.790026965789
 20
1504.512681549085
 30
0.0
 10
4733.794088965789
 20
1504.479026549085
 30
0.0
  0
SPLINE
  5
10C
330
1F
100
AcDbEntity
  8
0
  6
Continuous
 62
     7
370
    25
100
AcDbSpline
210
0.0
220
0.0
230
1.0
 70
     8
 71
     3
 72
     8
 73
     4
 74
     0
 42
0.000000001
 43
0.00000001
 40
0.7574468085106383
 40
0.7574468085106383
 40
0.7574468085106383
 40
0.7574468085106383
 40
0.7617021276595745
 40
0.7617021276595745
 40
0.7617021276595745
 40
0.7617021276595745
 10
4729.673446965789
 20
1508.047980549085
 30
0.0
 10
4730.19287696579
 20
1507.563221549085
 30
0.0
 10
4729.998566965789
 20
1506.620754549085
 30
0.0
 10
4730.356071965789
 20
1506.005185549085
 30
0.0
  0
SPLINE
  5
10D
330
1F
100
AcDbEntity
  8
0
  6
Continuous
 62
     7
370
    25
100
AcDbSpline
210
0.0
220
0.0
230
1.0
 70
     8
 71
     3
 72
     8
 73
     4
 74
     0
 42
0.000000001
 43
0.00000001
 40
0.7531914893617021
 40
0.7531914893617021
 40
0.7531914893617021
 40
0.7531914893617021
 40
0.7574468085106383
 40
0.7574468085106383
 40
0.7574468085106383
 40
0.7574468085106383
 10
4726.624430965789
 20
1508.244830549085
 30
0.0
 10
4727.339694965789
 20
1507.920980549085
 30
0.0
 10
4729.416271965789
 20
1508.341985549085
 30
0.0
 10
4729.673446965789
 20
1508.047980549085
 30
0.0
  0
SPLINE
  5
10E
330
1F
100
AcDbEntity
  8
0
  6
Continuous
 62
     7
370
    25
100
AcDbSpline
210
0.0
220
0.0
230
1.0
 70
     8
 71
     3
 72
     8
 73
     4
 74
     0
 42
0.000000001
 43
0.00000001
 40
0.7489361702127659
 40
0.7489361702127659
 40
0.7489361702127659
 40
0.7489361702127659
 40
0.7531914893617021
 40
0.7531914893617021
 40
0.7531914893617021
 40
0.7531914893617021
 10
4723.37970796579
 20
1510.287625549085
 30
0.0
 10
4724.646278965789
 20
1510.158974549085
 30
0.0
 10
4725.456538965789
 20
1508.763752549085
 30
0.0
 10
4726.624430965789
 20
1508.244830549085
 30
0.0
  0
SPLINE
  5
10F
330
1F
100
AcDbEntity
  8
0
  6
Continuous
 62
     7
370
    25
100
AcDbSpline
210
0.0
220
0.0
230
1.0
 70
     8
 71
     3
 72
     8
 73
     4
 74
     0
 42
0.000000001
 43
0.00000001
 40
0.7446808510638298
 40
0.7446808510638298
 40
0.7446808510638298
 40
0.7446808510638298
 40
0.7489361702127659
 40
0.7489361702127659
 40
0.7489361702127659
 40
0.7489361702127659
 10
4722.860277965789
 20
1508.568553549085
 30
0.0
 10
4723.37970796579
 20
1508.860907549085
 30
0.0
 10
4722.796396965789
 20
1510.320899549085
 30
0.0
 10
4723.37970796579
 20
1510.287625549085
 30
0.0
  0
SPLINE
  5
110
330
1F
100
AcDbEntity
  8
0
  6
Continuous
 62
     7
370
    25
100
AcDbSpline
210
0.0
220
0.0
230
1.0
 70
     8
 71
     3
 72
     8
 73
     4
 74
     0
 42
0.000000001
 43
0.00000001
 40
0.7404255319148936
 40
0.7404255319148936
 40
0.7404255319148936
 40
0.7404255319148936
 40
0.7446808510638298
 40
0.7446808510638298
 40
0.7446808510638298
 40
0.7446808510638298
 10
4721.499218965789
 20
1509.248511549085
 30
0.0
 10
4722.018013965789
 20
1509.248511549085
 30
0.0
 10
4722.407522965788
 20
1508.341985549085
 30
0.0
 10
4722.860277965789
 20
1508.568553549085
 30
0.0
  0
SPLINE
  5
111
330
1F
100
AcDbEntity
  8
0
  6
Continuous
 62
     7
370
    25
100
AcDbSpline
210
0.0
220
0.0
230
1.0
 70
     8
 71
     3
 72
     8
 73
     4
 74
     0
 42
0.000000001
 43
0.00000001
 40
0.7361702127659574
 40
0.7361702127659574
 40
0.7361702127659574
 40
0.7361702127659574
 40
0.7404255319148936
 40
0.7404255319148936
 40
0.7404255319148936
 40
0.7404255319148936
 10
4719.97305996579
 20
1508.568553549085
 30
0.0
 10
4720.492489965789
 20
1508.373862549085
 30
0.0
 10
4720.945244965789
 20
1509.248511549085
 30
0.0
 10
4721.499218965789
 20
1509.248511549085
 30
0.0
  0
SPLINE
  5
112
330
1F
100
AcDbEntity
  8
0
  6
Continuous
 62
     7
370
    25
100
AcDbSpline
210
0.0
220
0.0
230
1.0
 70
     8
 71
     3
 72
     8
 73
     4
 74
     0
 42
0.000000001
 43
0.00000001
 40
0.7319148936170212
 40
0.7319148936170212
 40
0.7319148936170212
 40
0.7319148936170212
 40
0.7361702127659574
 40
0.7361702127659574
 40
0.7361702127659574
 40
0.7361702127659574
 10
4719.031481965789
 20
1509.736318549085
 30
0.0
 10
4719.063866965789
 20
1509.281785549085
 30
0.0
 10
4719.519415965789
 20
1508.730478549085
 30
0.0
 10
4719.97305996579
 20
1508.568553549085
 30
0.0
  0
SPLINE
  5
114
330
1F
100
AcDbEntity
  8
0
  6
Continuous
 62
     7
370
    25
100
AcDbSpline
210
0.0
220
0.0
230
1.0
 70
     8
 71
     3
 72
     8
 73
     4
 74
     0
 42
0.000000001
 43
0.00000001
 40
0.723404255319149
 40
0.723404255319149
 40
0.723404255319149
 40
0.723404255319149
 40
0.7276595744680852
 40
0.7276595744680852
 40
0.7276595744680852
 40
0.7276595744680852
 10
4719.096251965789
 20
1510.125319549085
 30
0.0
 10
4719.063866965789
 20
1510.027275549085
 30
0.0
 10
4719.031481965789
 20
1509.963394549085
 30
0.0
 10
4719.031481965789
 20
1509.866747549085
 30
0.0
  0
SPLINE
  5
115
330
1F
100
AcDbEntity
  8
0
  6
Continuous
 62
     7
370
    25
100
AcDbSpline
210
0.0
220
0.0
230
1.0
 70
     8
 71
     3
 72
     8
 73
     4
 74
     0
 42
0.000000001
 43
0.00000001
 40
0.7191489361702128
 40
0.7191489361702128
 40
0.7191489361702128
 40
0.7191489361702128
 40
0.723404255319149
 40
0.723404255319149
 40
0.723404255319149
 40
0.723404255319149
 10
4722.178668965789
 20
1511.813276549085
 30
0.0
 10
4721.044558965789
 20
1511.553434549085
 30
0.0
 10
4719.777987965789
 20
1511.067278549085
 30
0.0
 10
4719.096251965789
 20
1510.125319549085
 30
0.0
  0
SPLINE
  5
116
330
1F
100
AcDbEntity
  8
0
  6
Continuous
 62
     7
370
    25
100
AcDbSpline
210
0.0
220
0.0
230
1.0
 70
     8
 71
     3
 72
     8
 73
     4
 74
     0
 42
0.000000001
 43
0.00000001
 40
0.7148936170212766
 40
0.7148936170212766
 40
0.7148936170212766
 40
0.7148936170212766
 40
0.7191489361702128
 40
0.7191489361702128
 40
0.7191489361702128
 40
0.7191489361702128
 10
4726.26781496579
 20
1511.813276549085
 30
0.0
 10
4724.969620965789
 20
1511.358235549085
 30
0.0
 10
4723.510517965788
 20
1512.137507549085
 30
0.0
 10
4722.178668965789
 20
1511.813276549085
 30
0.0
  0
SPLINE
  5
117
330
1F
100
AcDbEntity
  8
0
  6
Continuous
 62
     7
370
    25
100
AcDbSpline
210
0.0
220
0.0
230
1.0
 70
     8
 71
     3
 72
     8
 73
     4
 74
     0
 42
0.000000001
 43
0.00000001
 40
0.7106382978723405
 40
0.7106382978723405
 40
0.7106382978723405
 40
0.7106382978723405
 40
0.7148936170212766
 40
0.7148936170212766
 40
0.7148936170212766
 40
0.7148936170212766
 10
4729.512918965788
 20
1514.376771549085
 30
0.0
 10
4728.861916965789
 20
1513.176240549085
 30
0.0
 10
4727.564611965789
 20
1512.267047549085
 30
0.0
 10
4726.26781496579
 20
1511.813276549085
 30
0.0
  0
SPLINE
  5
118
330
1F
100
AcDbEntity
  8
0
  6
Continuous
 62
     7
370
    25
100
AcDbSpline
210
0.0
220
0.0
230
1.0
 70
     8
 71
     3
 72
     8
 73
     4
 74
     0
 42
0.000000001
 43
0.00000001
 40
0.7063829787234043
 40
0.7063829787234043
 40
0.7063829787234043
 40
0.7063829787234043
 40
0.7106382978723405
 40
0.7106382978723405
 40
0.7106382978723405
 40
0.7106382978723405
 10
4727.111729965789
 20
1517.263608549085
 30
0.0
 10
4727.596996965789
 20
1517.166453549085
 30
0.0
 10
4729.739613965789
 20
1514.798538549085
 30
0.0
 10
4729.512918965788
 20
1514.376771549085
 30
0.0
  0
SPLINE
  5
119
330
1F
100
AcDbEntity
  8
0
  6
Continuous
 62
     7
370
    25
100
AcDbSpline
210
0.0
220
0.0
230
1.0
 70
     8
 71
     3
 72
     8
 73
     4
 74
     0
 42
0.000000001
 43
0.00000001
 40
0.7021276595744681
 40
0.7021276595744681
 40
0.7021276595744681
 40
0.7021276595744681
 40
0.7063829787234043
 40
0.7063829787234043
 40
0.7063829787234043
 40
0.7063829787234043
 10
4723.89901096579
 20
1517.100794549085
 30
0.0
 10
4724.937235965789
 20
1516.875115549085
 30
0.0
 10
4726.071726965789
 20
1517.556343549085
 30
0.0
 10
4727.111729965789
 20
1517.263608549085
 30
0.0
  0
SPLINE
  5
11A
330
1F
100
AcDbEntity
  8
0
  6
Continuous
 62
     7
370
    25
100
AcDbSpline
210
0.0
220
0.0
230
1.0
 70
     8
 71
     3
 72
     8
 73
     4
 74
     0
 42
0.000000001
 43
0.00000001
 40
0.6978723404255319
 40
0.6978723404255319
 40
0.6978723404255319
 40
0.6978723404255319
 40
0.7021276595744681
 40
0.7021276595744681
 40
0.7021276595744681
 40
0.7021276595744681
 10
4721.141332965789
 20
1518.301833549085
 30
0.0
 10
4721.204324965789
 20
1518.108031549085
 30
0.0
 10
4722.601705965789
 20
1517.394799549085
 30
0.0
 10
4723.89901096579
 20
1517.100794549085
 30
0.0
  0
SPLINE
  5
11E
330
1F
100
AcDbEntity
  8
0
  6
Continuous
 62
     7
370
    25
100
AcDbSpline
210
0.0
220
0.0
230
1.0
 70
     8
 71
     3
 72
     8
 73
     4
 74
     0
 42
0.000000001
 43
0.00000001
 40
0.6808510638297872
 40
0.6808510638297872
 40
0.6808510638297872
 40
0.6808510638297872
 40
0.6851063829787234
 40
0.6851063829787234
 40
0.6851063829787234
 40
0.6851063829787234
 10
4723.023091965788
 20
1520.508712549085
 30
0.0
 10
4722.698860965788
 20
1520.604978549085
 30
0.0
 10
4722.341355965788
 20
1520.314021549085
 30
0.0
 10
4722.018013965789
 20
1520.347295549085
 30
0.0
  0
SPLINE
  5
11F
330
1F
100
AcDbEntity
  8
0
  6
Continuous
 62
     7
370
    25
100
AcDbSpline
210
0.0
220
0.0
230
1.0
 70
     8
 71
     3
 72
     8
 73
     4
 74
     0
 42
0.000000001
 43
0.00000001
 40
0.676595744680851
 40
0.676595744680851
 40
0.676595744680851
 40
0.676595744680851
 40
0.6808510638297872
 40
0.6808510638297872
 40
0.6808510638297872
 40
0.6808510638297872
 10
4727.631540965789
 20
1519.144986549085
 30
0.0
 10
4726.071726965789
 20
1519.437213549085
 30
0.0
 10
4724.613004965789
 20
1520.184100549085
 30
0.0
 10
4723.023091965788
 20
1520.508712549085
 30
0.0
  0
SPLINE
  5
120
330
1F
100
AcDbEntity
  8
0
  6
Continuous
 62
     7
370
    25
100
AcDbSpline
210
0.0
220
0.0
230
1.0
 70
     8
 71
     3
 72
     8
 73
     4
 74
     0
 42
0.000000001
 43
0.00000001
 40
0.6723404255319149
 40
0.6723404255319149
 40
0.6723404255319149
 40
0.6723404255319149
 40
0.676595744680851
 40
0.676595744680851
 40
0.676595744680851
 40
0.676595744680851
 10
4729.869026965789
 20
1519.341455549085
 30
0.0
 10
4729.123917965789
 20
1519.372951549085
 30
0.0
 10
4728.376649965789
 20
1519.015446549085
 30
0.0
 10
4727.631540965789
 20
1519.144986549085
 30
0.0
  0
SPLINE
  5
121
330
1F
100
AcDbEntity
  8
0
  6
Continuous
 62
     7
370
    25
100
AcDbSpline
210
0.0
220
0.0
230
1.0
 70
     8
 71
     3
 72
     8
 73
     4
 74
     0
 42
0.000000001
 43
0.00000001
 40
0.6680851063829787
 40
0.6680851063829787
 40
0.6680851063829787
 40
0.6680851063829787
 40
0.6723404255319149
 40
0.6723404255319149
 40
0.6723404255319149
 40
0.6723404255319149
 10
4734.639908965789
 20
1518.659338549085
 30
0.0
 10
4733.048598965789
 20
1518.854029549085
 30
0.0
 10
4731.459447965789
 20
1519.209248549085
 30
0.0
 10
4729.869026965789
 20
1519.341455549085
 30
0.0
  0
SPLINE
  5
122
330
1F
100
AcDbEntity
  8
0
  6
Continuous
 62
     7
370
    25
100
AcDbSpline
210
0.0
220
0.0
230
1.0
 70
     8
 71
     3
 72
     8
 73
     4
 74
     0
 42
0.000000001
 43
0.00000001
 40
0.6638297872340425
 40
0.6638297872340425
 40
0.6638297872340425
 40
0.6638297872340425
 40
0.6680851063829787
 40
0.6680851063829787
 40
0.6680851063829787
 40
0.6680851063829787
 10
4737.527126965789
 20
1518.301833549085
 30
0.0
 10
4736.683084965789
 20
1517.849459549085
 30
0.0
 10
4735.611204965789
 20
1518.530179549085
 30
0.0
 10
4734.639908965789
 20
1518.659338549085
 30
0.0
  0
SPLINE
  5
123
330
1F
100
AcDbEntity
  8
0
  6
Continuous
 62
     7
370
    25
100
AcDbSpline
210
0.0
220
0.0
230
1.0
 70
     8
 71
     3
 72
     8
 73
     4
 74
     0
 42
0.000000001
 43
0.00000001
 40
0.6595744680851063
 40
0.6595744680851063
 40
0.6595744680851063
 40
0.6595744680851063
 40
0.6638297872340425
 40
0.6638297872340425
 40
0.6638297872340425
 40
0.6638297872340425
 10
4736.51988996579
 20
1519.666067549085
 30
0.0
 10
4736.552782965789
 20
1519.113490549085
 30
0.0
 10
4738.045159965789
 20
1518.563453549085
 30
0.0
 10
4737.527126965789
 20
1518.301833549085
 30
0.0
  0
SPLINE
  5
124
330
1F
100
AcDbEntity
  8
0
  6
Continuous
 62
     7
370
    25
100
AcDbSpline
210
0.0
220
0.0
230
1.0
 70
     8
 71
     3
 72
     8
 73
     4
 74
     0
 42
0.000000001
 43
0.00000001
 40
0.6553191489361702
 40
0.6553191489361702
 40
0.6553191489361702
 40
0.6553191489361702
 40
0.6595744680851063
 40
0.6595744680851063
 40
0.6595744680851063
 40
0.6595744680851063
 10
4737.040081965789
 20
1522.908504549085
 30
0.0
 10
4737.786968965788
 20
1521.838402549085
 30
0.0
 10
4736.422734965789
 20
1520.703403549085
 30
0.0
 10
4736.51988996579
 20
1519.666067549085
 30
0.0
  0
SPLINE
  5
125
330
1F
100
AcDbEntity
  8
0
  6
Continuous
 62
     7
370
    25
100
AcDbSpline
210
0.0
220
0.0
230
1.0
 70
     8
 71
     3
 72
     8
 73
     4
 74
     0
 42
0.000000001
 43
0.00000001
 40
0.6510638297872341
 40
0.6510638297872341
 40
0.6510638297872341
 40
0.6510638297872341
 40
0.6553191489361702
 40
0.6553191489361702
 40
0.6553191489361702
 40
0.6553191489361702
 10
4731.393915965788
 20
1522.229562549085
 30
0.0
 10
4733.016721965789
 20
1521.417016549085
 30
0.0
 10
4734.736174965788
 20
1526.120842549085
 30
0.0
 10
4737.040081965789
 20
1522.908504549085
 30
0.0
  0
SPLINE
  5
126
330
1F
100
AcDbEntity
  8
0
  6
Continuous
 62
     7
370
    25
100
AcDbSpline
210
0.0
220
0.0
230
1.0
 70
     8
 71
     3
 72
     8
 73
     4
 74
     0
 42
0.000000001
 43
0.00000001
 40
0.6468085106382979
 40
0.6468085106382979
 40
0.6468085106382979
 40
0.6468085106382979
 40
0.6510638297872341
 40
0.6510638297872341
 40
0.6510638297872341
 40
0.6510638297872341
 10
4730.712687965789
 20
1524.435044549085
 30
0.0
 10
4731.263994965789
 20
1523.915741549085
 30
0.0
 10
4730.712687965789
 20
1522.586051549085
 30
0.0
 10
4731.393915965788
 20
1522.229562549085
 30
0.0
  0
SPLINE
  5
127
330
1F
100
AcDbEntity
  8
0
  6
Continuous
 62
     7
370
    25
100
AcDbSpline
210
0.0
220
0.0
230
1.0
 70
     8
 71
     3
 72
     8
 73
     4
 74
     0
 42
0.000000001
 43
0.00000001
 40
0.6425531914893617
 40
0.6425531914893617
 40
0.6425531914893617
 40
0.6425531914893617
 40
0.6468085106382979
 40
0.6468085106382979
 40
0.6468085106382979
 40
0.6468085106382979
 10
4728.310990965789
 20
1525.115510549085
 30
0.0
 10
4728.992726965789
 20
1524.630243549085
 30
0.0
 10
4730.095340965789
 20
1525.018736549085
 30
0.0
 10
4730.712687965789
 20
1524.435044549085
 30
0.0
  0
SPLINE
  5
128
330
1F
100
AcDbEntity
  8
0
  6
Continuous
 62
     7
370
    25
100
AcDbSpline
210
0.0
220
0.0
230
1.0
 70
     8
 71
     3
 72
     8
 73
     4
 74
     0
 42
0.000000001
 43
0.00000001
 40
0.6382978723404256
 40
0.6382978723404256
 40
0.6382978723404256
 40
0.6382978723404256
 40
0.6425531914893617
 40
0.6425531914893617
 40
0.6425531914893617
 40
0.6425531914893617
 10
4726.203933965789
 20
1528.134300549085
 30
0.0
 10
4726.527275965789
 20
1527.030035549085
 30
0.0
 10
4727.045308965789
 20
1526.057850549085
 30
0.0
 10
4728.310990965789
 20
1525.115510549085
 30
0.0
  0
SPLINE
  5
1C0
330
1F
100
AcDbEntity
  8
0
  6
Continuous
 62
     7
370
    25
100
AcDbSpline
210
0.0
220
0.0
230
1.0
 70
     8
 71
     3
 72
     8
 73
     4
 74
     0
 42
0.000000001
 43
0.00000001
 40
0.9872340425531915
 40
0.9872340425531915
 40
0.9872340425531915
 40
0.9872340425531915
 40
0.9914893617021276
 40
0.9914893617021276
 40
0.9914893617021276
 40
0.9914893617021276
 10
4827.857654965789
 20
1512.105630549085
 30
0.0
 10
4828.636926965789
 20
1512.721199549085
 30
0.0
 10
4829.254654965789
 20
1513.499963549085
 30
0.0
 10
4829.642258965789
 20
1514.408648549085
 30
0.0
  0
SPLINE
  5
1C1
330
1F
100
AcDbEntity
  8
0
  6
Continuous
 62
     7
370
    25
100
AcDbSpline
210
0.0
220
0.0
230
1.0
 70
     8
 71
     3
 72
     8
 73
     4
 74
     0
 42
0.000000001
 43
0.00000001
 40
0.9829787234042553
 40
0.9829787234042553
 40
0.9829787234042553
 40
0.9829787234042553
 40
0.9872340425531915
 40
0.9872340425531915
 40
0.9872340425531915
 40
0.9872340425531915
 10
4826.689889965789
 20
1511.325469549085
 30
0.0
 10
4827.11203796579
 20
1511.553434549085
 30
0.0
 10
4827.501927965789
 20
1511.813276549085
 30
0.0
 10
4827.857654965789
 20
1512.105630549085
 30
0.0
  0
LINE
  5
1C2
330
1F
100
AcDbEntity
  8
0
  6
Continuous
 62
     7
370
    25
100
AcDbLine
 10
4755.2240441794
 20
1521.9676160723
 30
0.0
 11
4754.4111218821
 21
1521.9676160723
 31
0.0
  0
LINE
  5
1C3
330
1F
100
AcDbEntity
  8
0
  6
Continuous
 62
     7
370
    25
100
AcDbLine
 10
4754.4111218821
 20
1521.9676160723
 30
0.0
 11
4754.4111218821
 21
1519.8865349912
 31
0.0
  0
LINE
  5
1C4
330
1F
100
AcDbEntity
  8
0
  6
Continuous
 62
     7
370
    25
100
AcDbLine
 10
4754.4111218821
 20
1519.8865349912
 30
0.0
 11
4755.9928364091
 21
1519.8865349912
 31
0.0
  0
LINE
  5
1C5
330
1F
100
AcDbEntity
  8
0
  6
Continuous
 62
     7
370
    25
100
AcDbLine
 10
4755.9928364091
 20
1519.2919403966
 30
0.0
 11
4754.0395002605
 21
1519.2919403966
 31
0.0
  0
LINE
  5
1C6
330
1F
100
AcDbEntity
  8
0
  6
Continuous
 62
     7
370
    25
100
AcDbLine
 10
4753.7422029632
 20
1519.5578821196
 30
0.0
 11
4753.7422029632
 21
1524.5259986736
 31
0.0
  0
LINE
  5
1C7
330
1F
100
AcDbEntity
  8
0
  6
Continuous
 62
     7
370
    25
100
AcDbLine
 10
4754.0395002605
 20
1524.7919403966
 30
0.0
 11
4755.9928364091
 21
1524.7919403966
 31
0.0
  0
LINE
  5
1C8
330
1F
100
AcDbEntity
  8
0
  6
Continuous
 62
     7
370
    25
100
AcDbLine
 10
4755.9928364091
 20
1524.197345802
 30
0.0
 11
4754.4111218821
 21
1524.197345802
 31
0.0
  0
LINE
  5
1C9
330
1F
100
AcDbEntity
  8
0
  6
Continuous
 62
     7
370
    25
100
AcDbLine
 10
4754.4111218821
 20
1524.197345802
 30
0.0
 11
4754.4111218821
 21
1522.5622106669
 31
0.0
  0
LINE
  5
1CA
330
1F
100
AcDbEntity
  8
0
  6
Continuous
 62
     7
370
    25
100
AcDbLine
 10
4754.4111218821
 20
1522.5622106669
 30
0.0
 11
4755.2240441794
 21
1522.5622106669
 31
0.0
  0
LINE
  5
1CB
330
1F
100
AcDbEntity
  8
0
  6
Continuous
 62
     7
370
    25
100
AcDbLine
 10
4760.030040801
 20
1522.830475025
 30
0.0
 11
4760.030040801
 21
1523.5539758696
 31
0.0
  0
LINE
  5
1CC
330
1F
100
AcDbEntity
  8
0
  6
Continuous
 62
     7
370
    25
100
AcDbLine
 10
4759.358799247
 20
1524.197345802
 30
0.0
 11
4758.3949056659
 21
1524.197345802
 31
0.0
  0
LINE
  5
1CD
330
1F
100
AcDbEntity
  8
0
  6
Continuous
 62
     7
370
    25
100
AcDbLine
 10
4758.3949056659
 20
1524.197345802
 30
0.0
 11
4758.3949056659
 21
1522.1905890452
 31
0.0
  0
LINE
  5
1CE
330
1F
100
AcDbEntity
  8
0
  6
Continuous
 62
     7
370
    25
100
AcDbLine
 10
4758.3949056659
 20
1522.1905890452
 30
0.0
 11
4759.358799247
 21
1522.1905890452
 31
0.0
  0
LINE
  5
1CF
330
1F
100
AcDbEntity
  8
0
  6
Continuous
 62
     7
370
    25
100
AcDbLine
 10
4758.3949056659
 20
1521.5959944507
 30
0.0
 11
4758.3949056659
 21
1519.5578821196
 31
0.0
  0
LINE
  5
1D0
330
1F
100
AcDbEntity
  8
0
  6
Continuous
 62
     7
370
    25
100
AcDbLine
 10
4757.725986747
 20
1519.5578821196
 30
0.0
 11
4757.725986747
 21
1524.5259986736
 31
0.0
  0
LINE
  5
1D1
330
1F
100
AcDbEntity
  8
0
  6
Continuous
 62
     7
370
    25
100
AcDbLine
 10
4757.9965737402
 20
1524.7919403966
 30
0.0
 11
4759.3692511051
 21
1524.7919403966
 31
0.0
  0
LINE
  5
1D2
330
1F
100
AcDbEntity
  8
0
  6
Continuous
 62
     7
370
    25
100
AcDbLine
 10
4760.6989597199
 20
1523.5760409034
 30
0.0
 11
4760.6989597199
 21
1522.8084099912
 31
0.0
  0
LINE
  5
1D3
330
1F
100
AcDbEntity
  8
0
  6
Continuous
 62
     7
370
    25
100
AcDbLine
 10
4759.3959614091
 20
1521.5959944507
 30
0.0
 11
4758.3949056659
 21
1521.5959944507
 31
0.0
  0
LINE
  5
1D4
330
1F
100
AcDbEntity
  8
0
  6
Continuous
 62
     7
370
    25
100
AcDbLine
 10
4764.3320255983
 20
1519.2919403966
 30
0.0
 11
4763.3739386051
 21
1519.2919403966
 31
0.0
  0
LINE
  5
1D5
330
1F
100
AcDbEntity
  8
0
  6
Continuous
 62
     7
370
    25
100
AcDbLine
 10
4762.0813921524
 20
1520.5124851601
 30
0.0
 11
4762.0813921524
 21
1523.5713956331
 31
0.0
  0
LINE
  5
1D6
330
1F
100
AcDbEntity
  8
0
  6
Continuous
 62
     7
370
    25
100
AcDbLine
 10
4763.3739386051
 20
1524.7919403966
 30
0.0
 11
4764.3320255983
 21
1524.7919403966
 31
0.0
  0
LINE
  5
1D7
330
1F
100
AcDbEntity
  8
0
  6
Continuous
 62
     7
370
    25
100
AcDbLine
 10
4764.3320255983
 20
1524.197345802
 30
0.0
 11
4763.3739386051
 21
1524.197345802
 31
0.0
  0
LINE
  5
1D8
330
1F
100
AcDbEntity
  8
0
  6
Continuous
 62
     7
370
    25
100
AcDbLine
 10
4762.7503110713
 20
1523.5284268831
 30
0.0
 11
4762.7503110713
 21
1520.5554539101
 31
0.0
  0
LINE
  5
1D9
330
1F
100
AcDbEntity
  8
0
  6
Continuous
 62
     7
370
    25
100
AcDbLine
 10
4763.3739386051
 20
1519.8865349912
 30
0.0
 11
4764.3320255983
 21
1519.8865349912
 31
0.0
  0
LINE
  5
1DA
330
1F
100
AcDbEntity
  8
0
  6
Continuous
 62
     7
370
    25
100
AcDbLine
 10
4767.6979884362
 20
1524.197345802
 30
0.0
 11
4767.3275281321
 21
1524.197345802
 31
0.0
  0
LINE
  5
1DB
330
1F
100
AcDbEntity
  8
0
  6
Continuous
 62
     7
370
    25
100
AcDbLine
 10
4766.7340948551
 20
1523.5284268831
 30
0.0
 11
4766.7340948551
 21
1520.5554539101
 31
0.0
  0
LINE
  5
1DC
330
1F
100
AcDbEntity
  8
0
  6
Continuous
 62
     7
370
    25
100
AcDbLine
 10
4767.3275281321
 20
1519.8865349912
 30
0.0
 11
4767.6979884362
 21
1519.8865349912
 31
0.0
  0
LINE
  5
1DD
330
1F
100
AcDbEntity
  8
0
  6
Continuous
 62
     7
370
    25
100
AcDbLine
 10
4768.3692299902
 20
1520.5554539101
 30
0.0
 11
4768.3692299902
 21
1523.5284268831
 31
0.0
  0
LINE
  5
1DE
330
1F
100
AcDbEntity
  8
0
  6
Continuous
 62
     7
370
    25
100
AcDbLine
 10
4767.7084402943
 20
1519.2919403966
 30
0.0
 11
4767.3159149564
 21
1519.2919403966
 31
0.0
  0
LINE
  5
1DF
330
1F
100
AcDbEntity
  8
0
  6
Continuous
 62
     7
370
    25
100
AcDbLine
 10
4766.0651759362
 20
1520.5124851601
 30
0.0
 11
4766.0651759362
 21
1523.5713956331
 31
0.0
  0
LINE
  5
1E0
330
1F
100
AcDbEntity
  8
0
  6
Continuous
 62
     7
370
    25
100
AcDbLine
 10
4767.3159149564
 20
1524.7919403966
 30
0.0
 11
4767.7084402943
 21
1524.7919403966
 31
0.0
  0
LINE
  5
1E1
330
1F
100
AcDbEntity
  8
0
  6
Continuous
 62
     7
370
    25
100
AcDbLine
 10
4769.0381489091
 20
1523.5713956331
 30
0.0
 11
4769.0381489091
 21
1520.5124851601
 31
0.0
  0
LINE
  5
1E2
330
1F
100
AcDbEntity
  8
0
  6
Continuous
 62
     7
370
    25
100
AcDbLine
 10
4750.602697051
 20
1522.5633719844
 30
0.0
 11
4751.6815610713
 21
1524.7222613425
 31
0.0
  0
LINE
  5
1E3
330
1F
100
AcDbEntity
  8
0
  6
Continuous
 62
     7
370
    25
100
AcDbLine
 10
4752.2169284699
 20
1524.4656101601
 30
0.0
 11
4750.938317828
 21
1522.0779412412
 31
0.0
  0
LINE
  5
1E4
330
1F
100
AcDbEntity
  8
0
  6
Continuous
 62
     7
370
    25
100
AcDbLine
 10
4750.938317828
 20
1522.0779412412
 30
0.0
 11
4752.2169284699
 21
1519.6914336398
 31
0.0
  0
LINE
  5
1E5
330
1F
100
AcDbEntity
  8
0
  6
Continuous
 62
     7
370
    25
100
AcDbLine
 10
4751.6815610713
 20
1519.4347824574
 30
0.0
 11
4750.602697051
 21
1521.5948331331
 31
0.0
  0
LINE
  5
1E6
330
1F
100
AcDbEntity
  8
0
  6
Continuous
 62
     7
370
    25
100
AcDbLine
 10
4750.602697051
 20
1521.5948331331
 30
0.0
 11
4749.5226717132
 21
1519.4336211398
 31
0.0
  0
LINE
  5
1E7
330
1F
100
AcDbEntity
  8
0
  6
Continuous
 62
     7
370
    25
100
AcDbLine
 10
4748.9884656321
 20
1519.6914336398
 30
0.0
 11
4750.2775281321
 21
1522.0791025588
 31
0.0
  0
LINE
  5
1E8
330
1F
100
AcDbEntity
  8
0
  6
Continuous
 62
     7
370
    25
100
AcDbLine
 10
4750.2775281321
 20
1522.0791025588
 30
0.0
 11
4748.9884656321
 21
1524.4656101601
 31
0.0
  0
LINE
  5
1E9
330
1F
100
AcDbEntity
  8
0
  6
Continuous
 62
     7
370
    25
100
AcDbLine
 10
4749.5424141118
 20
1524.6641954642
 30
0.0
 11
4750.602697051
 21
1522.5633719844
 31
0.0
  0
LINE
  5
1EA
330
1F
100
AcDbEntity
  8
0
  6
Continuous
 62
     7
370
    25
100
AcDbLine
 10
4772.7246353956
 20
1522.5622106669
 30
0.0
 11
4772.7246353956
 21
1524.5318052615
 31
0.0
  0
LINE
  5
1EB
330
1F
100
AcDbEntity
  8
0
  6
Continuous
 62
     7
370
    25
100
AcDbLine
 10
4773.3935543145
 20
1524.5259986736
 30
0.0
 11
4773.3935543145
 21
1519.5578821196
 31
0.0
  0
LINE
  5
1EC
330
1F
100
AcDbEntity
  8
0
  6
Continuous
 62
     7
370
    25
100
AcDbLine
 10
4772.7246353956
 20
1521.9676160723
 30
0.0
 11
4771.0895002605
 21
1521.9676160723
 31
0.0
  0
LINE
  5
1ED
330
1F
100
AcDbEntity
  8
0
  6
Continuous
 62
     7
370
    25
100
AcDbLine
 10
4771.0895002605
 20
1521.9676160723
 30
0.0
 11
4771.0895002605
 21
1519.5578821196
 31
0.0
  0
LINE
  5
1EE
330
1F
100
AcDbEntity
  8
0
  6
Continuous
 62
     7
370
    25
100
AcDbLine
 10
4770.4205813416
 20
1519.5578821196
 30
0.0
 11
4770.4205813416
 21
1524.5259986736
 31
0.0
  0
LINE
  5
1EF
330
1F
100
AcDbEntity
  8
0
  6
Continuous
 62
     7
370
    25
100
AcDbLine
 10
4771.0895002605
 20
1524.5318052615
 30
0.0
 11
4771.0895002605
 21
1522.5622106669
 31
0.0
  0
LINE
  5
1F0
330
1F
100
AcDbEntity
  8
0
  6
Continuous
 62
     7
370
    25
100
AcDbLine
 10
4771.0895002605
 20
1522.5622106669
 30
0.0
 11
4772.7246353956
 21
1522.5622106669
 31
0.0
  0
LINE
  5
1F1
330
1F
100
AcDbEntity
  8
0
  6
Continuous
 62
     7
370
    25
100
AcDbLine
 10
4772.7246353956
 20
1519.5578821196
 30
0.0
 11
4772.7246353956
 21
1521.9676160723
 31
0.0
  0
LINE
  5
1F2
330
1F
100
AcDbEntity
  8
0
  6
Continuous
 62
     7
370
    25
100
AcDbLine
 10
4826.6256279658
 20
1511.2939735491
 30
0.0
 11
4826.6898899658
 21
1511.3254695491
 31
0.0
  0
LINE
  5
1F3
330
1F
100
AcDbEntity
  8
0
  6
Continuous
 62
     7
370
    25
100
AcDbLine
 10
4821.8228689658
 20
1509.7692115491
 30
0.0
 11
4821.8552539658
 21
1509.7692115491
 31
0.0
  0
LINE
  5
1F4
330
1F
100
AcDbEntity
  8
0
  6
Continuous
 62
     7
370
    25
100
AcDbLine
 10
4812.9646189658
 20
1498.1536645491
 30
0.0
 11
4813.5173229658
 21
1498.3152085491
 31
0.0
  0
LINE
  5
1F5
330
1F
100
AcDbEntity
  8
0
  6
Continuous
 62
     7
370
    25
100
AcDbLine
 10
4811.0198679658
 20
1496.6285215491
 30
0.0
 11
4812.9646189658
 21
1498.1536645491
 31
0.0
  0
LINE
  5
1F6
330
1F
100
AcDbEntity
  8
0
  6
Continuous
 62
     7
370
    25
100
AcDbLine
 10
4809.0387949658
 20
1496.5304775491
 30
0.0
 11
4811.0198679658
 21
1496.6285215491
 31
0.0
  0
LINE
  5
1F7
330
1F
100
AcDbEntity
  8
0
  6
Continuous
 62
     7
370
    25
100
AcDbLine
 10
4806.4769509658
 20
1500.8125365491
 30
0.0
 11
4809.0387949658
 21
1496.5304775491
 31
0.0
  0
LINE
  5
1F8
330
1F
100
AcDbEntity
  8
0
  6
Continuous
 62
     7
370
    25
100
AcDbLine
 10
4800.1805449658
 20
1501.1376565491
 30
0.0
 11
4806.4769509658
 21
1500.8125365491
 31
0.0
  0
LINE
  5
1F9
330
1F
100
AcDbEntity
  8
0
  6
Continuous
 62
     7
370
    25
100
AcDbLine
 10
4794.9577969658
 20
1503.5392265491
 30
0.0
 11
4800.1805449658
 21
1501.1376565491
 31
0.0
  0
LINE
  5
1FA
330
1F
100
AcDbEntity
  8
0
  6
Continuous
 62
     7
370
    25
100
AcDbLine
 10
4792.2307259658
 20
1505.3239575491
 30
0.0
 11
4794.9577969658
 21
1503.5392265491
 31
0.0
  0
LINE
  5
1FB
330
1F
100
AcDbEntity
  8
0
  6
Continuous
 62
     7
370
    25
100
AcDbLine
 10
4790.4486619658
 20
1506.9462555491
 30
0.0
 11
4792.2307259658
 21
1505.3239575491
 31
0.0
  0
LINE
  5
1FC
330
1F
100
AcDbEntity
  8
0
  6
Continuous
 62
     7
370
    25
100
AcDbLine
 10
4783.5370679658
 20
1507.1081805491
 30
0.0
 11
4790.4486619658
 21
1506.9462555491
 31
0.0
  0
LINE
  5
1FD
330
1F
100
AcDbEntity
  8
0
  6
Continuous
 62
     7
370
    25
100
AcDbLine
 10
4782.0769489658
 20
1508.3090925491
 30
0.0
 11
4783.5370679658
 21
1507.1081805491
 31
0.0
  0
LINE
  5
1FE
330
1F
100
AcDbEntity
  8
0
  6
Continuous
 62
     7
370
    25
100
AcDbLine
 10
4780.3889919658
 20
1507.6283725491
 30
0.0
 11
4782.0769489658
 21
1508.3090925491
 31
0.0
  0
LINE
  5
1FF
330
1F
100
AcDbEntity
  8
0
  6
Continuous
 62
     7
370
    25
100
AcDbLine
 10
4781.4933839658
 20
1504.3167205491
 30
0.0
 11
4780.3889919658
 21
1507.6283725491
 31
0.0
  0
LINE
  5
200
330
1F
100
AcDbEntity
  8
0
  6
Continuous
 62
     7
370
    25
100
AcDbLine
 10
4780.9730649658
 20
1503.8949535491
 30
0.0
 11
4781.4933839658
 21
1504.3167205491
 31
0.0
  0
LINE
  5
201
330
1F
100
AcDbEntity
  8
0
  6
Continuous
 62
     7
370
    25
100
AcDbLine
 10
4780.4861469658
 20
1503.4411825491
 30
0.0
 11
4780.9730649658
 21
1503.8949535491
 31
0.0
  0
LINE
  5
202
330
1F
100
AcDbEntity
  8
0
  6
Continuous
 62
     7
370
    25
100
AcDbLine
 10
4719.0314819658
 20
1509.8667475491
 30
0.0
 11
4719.0314819658
 21
1509.7363185491
 31
0.0
  0
LINE
  5
203
330
1F
100
AcDbEntity
  8
0
  6
Continuous
 62
     7
370
    25
100
AcDbLine
 10
4721.9188269658
 20
1520.2816365491
 30
0.0
 11
4721.1413329658
 21
1518.3018335491
 31
0.0
  0
LINE
  5
204
330
1F
100
AcDbEntity
  8
0
  6
Continuous
 62
     7
370
    25
100
AcDbLine
 10
4721.9857559658
 20
1520.3472955491
 30
0.0
 11
4721.9188269658
 21
1520.2816365491
 31
0.0
  0
LINE
  5
205
330
1F
100
AcDbEntity
  8
0
  6
Continuous
 62
     7
370
    25
100
AcDbLine
 10
4722.0180139658
 20
1520.3472955491
 30
0.0
 11
4721.9857559658
 21
1520.3472955491
 31
0.0
  0
LINE
  5
206
330
1F
100
AcDbEntity
  8
0
  6
Continuous
 62
     7
370
    25
100
AcDbLine
 10
4728.9288459658
 20
1528.8811875491
 30
0.0
 11
4726.2039339658
 21
1528.1343005491
 31
0.0
  0
LINE
  5
207
330
1F
100
AcDbEntity
  8
0
  6
Continuous
 62
     7
370
    25
100
AcDbLine
 10
4728.6672259658
 20
1530.1784925491
 30
0.0
 11
4728.9288459658
 21
1528.8811875491
 31
0.0
  0
LINE
  5
208
330
1F
100
AcDbEntity
  8
0
  6
Continuous
 62
     7
370
    25
100
AcDbLine
 10
4727.8253429658
 20
1530.3395285491
 30
0.0
 11
4728.6672259658
 21
1530.1784925491
 31
0.0
  0
LINE
  5
209
330
1F
100
AcDbEntity
  8
0
  6
Continuous
 62
     7
370
    25
100
AcDbLine
 10
4727.8253429658
 20
1531.0207565491
 30
0.0
 11
4727.8253429658
 21
1530.3395285491
 31
0.0
  0
LINE
  5
20A
330
1F
100
AcDbEntity
  8
0
  6
Continuous
 62
     7
370
    25
100
AcDbLine
 10
4729.9346859658
 20
1531.6048295491
 30
0.0
 11
4727.8253429658
 21
1531.0207565491
 31
0.0
  0
LINE
  5
20B
330
1F
100
AcDbEntity
  8
0
  6
Continuous
 62
     7
370
    25
100
AcDbLine
 10
4730.0314599658
 20
1531.1191815491
 30
0.0
 11
4729.9346859658
 21
1531.6048295491
 31
0.0
  0
LINE
  5
20C
330
1F
100
AcDbEntity
  8
0
  6
Continuous
 62
     7
370
    25
100
AcDbLine
 10
4731.9132189658
 20
1531.3471465491
 30
0.0
 11
4730.0314599658
 21
1531.1191815491
 31
0.0
  0
LINE
  5
20D
330
1F
100
AcDbEntity
  8
0
  6
Continuous
 62
     7
370
    25
100
AcDbLine
 10
4732.0746359658
 20
1532.2878355491
 30
0.0
 11
4731.9132189658
 21
1531.3471465491
 31
0.0
  0
LINE
  5
20E
330
1F
100
AcDbEntity
  8
0
  6
Continuous
 62
     7
370
    25
100
AcDbLine
 10
4733.6002869658
 20
1532.9025155491
 30
0.0
 11
4732.0746359658
 21
1532.2878355491
 31
0.0
  0
LINE
  5
20F
330
1F
100
AcDbEntity
  8
0
  6
Continuous
 62
     7
370
    25
100
AcDbLine
 10
4733.6987119658
 20
1534.1687055491
 30
0.0
 11
4733.6002869658
 21
1532.9025155491
 31
0.0
  0
LINE
  5
210
330
1F
100
AcDbEntity
  8
0
  6
Continuous
 62
     7
370
    25
100
AcDbLine
 10
4734.8013259658
 20
1534.5253215491
 30
0.0
 11
4733.6987119658
 21
1534.1687055491
 31
0.0
  0
LINE
  5
211
330
1F
100
AcDbEntity
  8
0
  6
Continuous
 62
     7
370
    25
100
AcDbLine
 10
4735.0607869658
 20
1535.7258525491
 30
0.0
 11
4734.8013259658
 21
1534.5253215491
 31
0.0
  0
LINE
  5
212
330
1F
100
AcDbEntity
  8
0
  6
Continuous
 62
     7
370
    25
100
AcDbLine
 10
4737.2672849658
 20
1535.8886665491
 30
0.0
 11
4735.0607869658
 21
1535.7258525491
 31
0.0
  0
LINE
  5
213
330
1F
100
AcDbEntity
  8
0
  6
Continuous
 62
     7
370
    25
100
AcDbLine
 10
4737.5271269658
 20
1534.5253215491
 30
0.0
 11
4737.2672849658
 21
1535.8886665491
 31
0.0
  0
LINE
  5
214
330
1F
100
AcDbEntity
  8
0
  6
Continuous
 62
     7
370
    25
100
AcDbLine
 10
4738.7267689658
 20
1534.5918695491
 30
0.0
 11
4737.5271269658
 21
1534.5253215491
 31
0.0
  0
LINE
  5
215
330
1F
100
AcDbEntity
  8
0
  6
Continuous
 62
     7
370
    25
100
AcDbLine
 10
4738.6619989658
 20
1535.7258525491
 30
0.0
 11
4738.7267689658
 21
1534.5918695491
 31
0.0
  0
LINE
  5
216
330
1F
100
AcDbEntity
  8
0
  6
Continuous
 62
     7
370
    25
100
AcDbLine
 10
4741.5493439658
 20
1536.1477465491
 30
0.0
 11
4738.6619989658
 21
1535.7258525491
 31
0.0
  0
LINE
  5
217
330
1F
100
AcDbEntity
  8
0
  6
Continuous
 62
     7
370
    25
100
AcDbLine
 10
4742.1343059658
 20
1535.2730975491
 30
0.0
 11
4741.5493439658
 21
1536.1477465491
 31
0.0
  0
LINE
  5
218
330
1F
100
AcDbEntity
  8
0
  6
Continuous
 62
     7
370
    25
100
AcDbLine
 10
4744.0151759658
 20
1535.6283165491
 30
0.0
 11
4742.1343059658
 21
1535.2730975491
 31
0.0
  0
LINE
  5
219
330
1F
100
AcDbEntity
  8
0
  6
Continuous
 62
     7
370
    25
100
AcDbLine
 10
4744.1141089658
 20
1537.6728895491
 30
0.0
 11
4744.0151759658
 21
1535.6283165491
 31
0.0
  0
LINE
  5
21A
330
1F
100
AcDbEntity
  8
0
  6
Continuous
 62
     7
370
    25
100
AcDbLine
 10
4745.3781399658
 20
1537.8348145491
 30
0.0
 11
4744.1141089658
 21
1537.6728895491
 31
0.0
  0
LINE
  5
21B
330
1F
100
AcDbEntity
  8
0
  6
Continuous
 62
     7
370
    25
100
AcDbLine
 10
4745.9949789658
 20
1536.6355535491
 30
0.0
 11
4745.3781399658
 21
1537.8348145491
 31
0.0
  0
LINE
  5
21C
330
1F
100
AcDbEntity
  8
0
  6
Continuous
 62
     7
370
    25
100
AcDbLine
 10
4748.9802409658
 20
1536.7309305491
 30
0.0
 11
4745.9949789658
 21
1536.6355535491
 31
0.0
  0
LINE
  5
21D
330
1F
100
AcDbEntity
  8
0
  6
Continuous
 62
     7
370
    25
100
AcDbLine
 10
4749.2397019658
 20
1535.1107915491
 30
0.0
 11
4748.9802409658
 21
1536.7309305491
 31
0.0
  0
LINE
  5
21E
330
1F
100
AcDbEntity
  8
0
  6
Continuous
 62
     7
370
    25
100
AcDbLine
 10
4750.2460499658
 20
1535.2070575491
 30
0.0
 11
4749.2397019658
 21
1535.1107915491
 31
0.0
  0
LINE
  5
21F
330
1F
100
AcDbEntity
  8
0
  6
Continuous
 62
     7
370
    25
100
AcDbLine
 10
4750.3426969658
 20
1535.8886665491
 30
0.0
 11
4750.2460499658
 21
1535.2070575491
 31
0.0
  0
LINE
  5
220
330
1F
100
AcDbEntity
  8
0
  6
Continuous
 62
     7
370
    25
100
AcDbLine
 10
4751.7060419658
 20
1535.8886665491
 30
0.0
 11
4750.3426969658
 21
1535.8886665491
 31
0.0
  0
LINE
  5
221
330
1F
100
AcDbEntity
  8
0
  6
Continuous
 62
     7
370
    25
100
AcDbLine
 10
4751.9637249658
 20
1535.2730975491
 30
0.0
 11
4751.7060419658
 21
1535.8886665491
 31
0.0
  0
LINE
  5
222
330
1F
100
AcDbEntity
  8
0
  6
Continuous
 62
     7
370
    25
100
AcDbLine
 10
4753.1656529658
 20
1535.5316695491
 30
0.0
 11
4751.9637249658
 21
1535.2730975491
 31
0.0
  0
LINE
  5
223
330
1F
100
AcDbEntity
  8
0
  6
Continuous
 62
     7
370
    25
100
AcDbLine
 10
4753.9125399658
 20
1536.4075885491
 30
0.0
 11
4753.1656529658
 21
1535.5316695491
 31
0.0
  0
LINE
  5
224
330
1F
100
AcDbEntity
  8
0
  6
Continuous
 62
     7
370
    25
100
AcDbLine
 10
4757.5790299658
 20
1536.9920425491
 30
0.0
 11
4753.9125399658
 21
1536.4075885491
 31
0.0
  0
LINE
  5
225
330
1F
100
AcDbEntity
  8
0
  6
Continuous
 62
     7
370
    25
100
AcDbLine
 10
4757.5151489658
 20
1538.2574705491
 30
0.0
 11
4757.5790299658
 21
1536.9920425491
 31
0.0
  0
LINE
  5
226
330
1F
100
AcDbEntity
  8
0
  6
Continuous
 62
     7
370
    25
100
AcDbLine
 10
4756.3136019658
 20
1537.6728895491
 30
0.0
 11
4757.5151489658
 21
1538.2574705491
 31
0.0
  0
LINE
  5
227
330
1F
100
AcDbEntity
  8
0
  6
Continuous
 62
     7
370
    25
100
AcDbLine
 10
4754.2682669658
 20
1537.6728895491
 30
0.0
 11
4756.3136019658
 21
1537.6728895491
 31
0.0
  0
LINE
  5
228
330
1F
100
AcDbEntity
  8
0
  6
Continuous
 62
     7
370
    25
100
AcDbLine
 10
4754.2682669658
 20
1539.1342785491
 30
0.0
 11
4754.2682669658
 21
1537.6728895491
 31
0.0
  0
LINE
  5
229
330
1F
100
AcDbEntity
  8
0
  6
Continuous
 62
     7
370
    25
100
AcDbLine
 10
4756.7353689658
 20
1539.3932315491
 30
0.0
 11
4754.2682669658
 21
1539.1342785491
 31
0.0
  0
LINE
  5
22A
330
1F
100
AcDbEntity
  8
0
  6
Continuous
 62
     7
370
    25
100
AcDbLine
 10
4757.0910959658
 20
1540.5609965491
 30
0.0
 11
4756.7353689658
 21
1539.3932315491
 31
0.0
  0
LINE
  5
22B
330
1F
100
AcDbEntity
  8
0
  6
Continuous
 62
     7
370
    25
100
AcDbLine
 10
4759.0394029658
 20
1540.5609965491
 30
0.0
 11
4757.0910959658
 21
1540.5609965491
 31
0.0
  0
LINE
  5
22C
330
1F
100
AcDbEntity
  8
0
  6
Continuous
 62
     7
370
    25
100
AcDbLine
 10
4759.2009469658
 20
1541.1783435491
 30
0.0
 11
4759.0394029658
 21
1540.5609965491
 31
0.0
  0
LINE
  5
22D
330
1F
100
AcDbEntity
  8
0
  6
Continuous
 62
     7
370
    25
100
AcDbLine
 10
4757.9999079658
 20
1541.5025745491
 30
0.0
 11
4759.2009469658
 21
1541.1783435491
 31
0.0
  0
LINE
  5
22E
330
1F
100
AcDbEntity
  8
0
  6
Continuous
 62
     7
370
    25
100
AcDbLine
 10
4757.9999079658
 20
1543.3830635491
 30
0.0
 11
4757.9999079658
 21
1541.5025745491
 31
0.0
  0
LINE
  5
22F
330
1F
100
AcDbEntity
  8
0
  6
Continuous
 62
     7
370
    25
100
AcDbLine
 10
4760.2391719658
 20
1542.7027245491
 30
0.0
 11
4757.9999079658
 21
1543.3830635491
 31
0.0
  0
LINE
  5
230
330
1F
100
AcDbEntity
  8
0
  6
Continuous
 62
     7
370
    25
100
AcDbLine
 10
4761.7657119658
 20
1544.6820195491
 30
0.0
 11
4760.2391719658
 21
1542.7027245491
 31
0.0
  0
LINE
  5
231
330
1F
100
AcDbEntity
  8
0
  6
Continuous
 62
     7
370
    25
100
AcDbLine
 10
4755.9562239658
 20
1548.1530565491
 30
0.0
 11
4761.7657119658
 21
1544.6820195491
 31
0.0
  0
LINE
  5
232
330
1F
100
AcDbEntity
  8
0
  6
Continuous
 62
     7
370
    25
100
AcDbLine
 10
4757.9999079658
 20
1552.0155075491
 30
0.0
 11
4755.9562239658
 21
1548.1530565491
 31
0.0
  0
LINE
  5
233
330
1F
100
AcDbEntity
  8
0
  6
Continuous
 62
     7
370
    25
100
AcDbLine
 10
4760.8232449658
 20
1551.7546495491
 30
0.0
 11
4757.9999079658
 21
1552.0155075491
 31
0.0
  0
LINE
  5
234
330
1F
100
AcDbEntity
  8
0
  6
Continuous
 62
     7
370
    25
100
AcDbLine
 10
4761.6020089658
 20
1553.0204585491
 30
0.0
 11
4760.8232449658
 21
1551.7546495491
 31
0.0
  0
LINE
  5
235
330
1F
100
AcDbEntity
  8
0
  6
Continuous
 62
     7
370
    25
100
AcDbLine
 10
4762.5435869658
 20
1553.1179945491
 30
0.0
 11
4761.6020089658
 21
1553.0204585491
 31
0.0
  0
LINE
  5
236
330
1F
100
AcDbEntity
  8
0
  6
Continuous
 62
     7
370
    25
100
AcDbLine
 10
4763.3215889658
 20
1552.6967355491
 30
0.0
 11
4762.5435869658
 21
1553.1179945491
 31
0.0
  0
LINE
  5
237
330
1F
100
AcDbEntity
  8
0
  6
Continuous
 62
     7
370
    25
100
AcDbLine
 10
4764.0028169658
 20
1552.7933825491
 30
0.0
 11
4763.3215889658
 21
1552.6967355491
 31
0.0
  0
LINE
  5
238
330
1F
100
AcDbEntity
  8
0
  6
Continuous
 62
     7
370
    25
100
AcDbLine
 10
4764.3278099658
 20
1553.7021945491
 30
0.0
 11
4764.0028169658
 21
1552.7933825491
 31
0.0
  0
LINE
  5
239
330
1F
100
AcDbEntity
  8
0
  6
Continuous
 62
     7
370
    25
100
AcDbLine
 10
4764.9442679658
 20
1554.4800695491
 30
0.0
 11
4764.3278099658
 21
1553.7021945491
 31
0.0
  0
LINE
  5
23A
330
1F
100
AcDbEntity
  8
0
  6
Continuous
 62
     7
370
    25
100
AcDbLine
 10
4762.0246649658
 20
1555.5830645491
 30
0.0
 11
4764.9442679658
 21
1554.4800695491
 31
0.0
  0
LINE
  5
23B
330
1F
100
AcDbEntity
  8
0
  6
Continuous
 62
     7
370
    25
100
AcDbLine
 10
4761.3425479658
 20
1557.8879875491
 30
0.0
 11
4762.0246649658
 21
1555.5830645491
 31
0.0
  0
LINE
  5
23C
330
1F
100
AcDbEntity
  8
0
  6
Continuous
 62
     7
370
    25
100
AcDbLine
 10
4763.0625089658
 20
1558.5044455491
 30
0.0
 11
4761.3425479658
 21
1557.8879875491
 31
0.0
  0
LINE
  5
23D
330
1F
100
AcDbEntity
  8
0
  6
Continuous
 62
     7
370
    25
100
AcDbLine
 10
4761.8610889658
 20
1561.3921715491
 30
0.0
 11
4763.0625089658
 21
1558.5044455491
 31
0.0
  0
LINE
  5
23E
330
1F
100
AcDbEntity
  8
0
  6
Continuous
 62
     7
370
    25
100
AcDbLine
 10
4759.3938599658
 20
1561.1330915491
 30
0.0
 11
4761.8610889658
 21
1561.3921715491
 31
0.0
  0
LINE
  5
23F
330
1F
100
AcDbEntity
  8
0
  6
Continuous
 62
     7
370
    25
100
AcDbLine
 10
4759.1361769658
 20
1563.0144695491
 30
0.0
 11
4759.3938599658
 21
1561.1330915491
 31
0.0
  0
LINE
  5
240
330
1F
100
AcDbEntity
  8
0
  6
Continuous
 62
     7
370
    25
100
AcDbLine
 10
4759.3938599658
 20
1565.3188845491
 30
0.0
 11
4759.1361769658
 21
1563.0144695491
 31
0.0
  0
LINE
  5
241
330
1F
100
AcDbEntity
  8
0
  6
Continuous
 62
     7
370
    25
100
AcDbLine
 10
4760.8232449658
 20
1565.5770755491
 30
0.0
 11
4759.3938599658
 21
1565.3188845491
 31
0.0
  0
LINE
  5
242
330
1F
100
AcDbEntity
  8
0
  6
Continuous
 62
     7
370
    25
100
AcDbLine
 10
4761.2450119658
 20
1562.4303965491
 30
0.0
 11
4760.8232449658
 21
1565.5770755491
 31
0.0
  0
LINE
  5
243
330
1F
100
AcDbEntity
  8
0
  6
Continuous
 62
     7
370
    25
100
AcDbLine
 10
4763.0625089658
 20
1562.8512745491
 30
0.0
 11
4761.2450119658
 21
1562.4303965491
 31
0.0
  0
LINE
  5
244
330
1F
100
AcDbEntity
  8
0
  6
Continuous
 62
     7
370
    25
100
AcDbLine
 10
4762.4473209658
 20
1565.4156585491
 30
0.0
 11
4763.0625089658
 21
1562.8512745491
 31
0.0
  0
LINE
  5
245
330
1F
100
AcDbEntity
  8
0
  6
Continuous
 62
     7
370
    25
100
AcDbLine
 10
4762.5435869658
 20
1568.1396815491
 30
0.0
 11
4762.4473209658
 21
1565.4156585491
 31
0.0
  0
LINE
  5
246
330
1F
100
AcDbEntity
  8
0
  6
Continuous
 62
     7
370
    25
100
AcDbLine
 10
4761.4405919658
 20
1568.0429075491
 30
0.0
 11
4762.5435869658
 21
1568.1396815491
 31
0.0
  0
LINE
  5
247
330
1F
100
AcDbEntity
  8
0
  6
Continuous
 62
     7
370
    25
100
AcDbLine
 10
4761.1802419658
 20
1569.4053635491
 30
0.0
 11
4761.4405919658
 21
1568.0429075491
 31
0.0
  0
LINE
  5
248
330
1F
100
AcDbEntity
  8
0
  6
Continuous
 62
     7
370
    25
100
AcDbLine
 10
4761.2770159658
 20
1569.7961425491
 30
0.0
 11
4761.1802419658
 21
1569.4053635491
 31
0.0
  0
LINE
  5
249
330
1F
100
AcDbEntity
  8
0
  6
Continuous
 62
     7
370
    25
100
AcDbLine
 10
4761.5044729658
 20
1570.0223295491
 30
0.0
 11
4761.2770159658
 21
1569.7961425491
 31
0.0
  0
LINE
  5
24A
330
1F
100
AcDbEntity
  8
0
  6
Continuous
 62
     7
370
    25
100
AcDbLine
 10
4763.2244339658
 20
1569.6648245491
 30
0.0
 11
4761.5044729658
 21
1570.0223295491
 31
0.0
  0
LINE
  5
24B
330
1F
100
AcDbEntity
  8
0
  6
Continuous
 62
     7
370
    25
100
AcDbLine
 10
4765.1058119658
 20
1569.9251745491
 30
0.0
 11
4763.2244339658
 21
1569.6648245491
 31
0.0
  0
LINE
  5
24C
330
1F
100
AcDbEntity
  8
0
  6
Continuous
 62
     7
370
    25
100
AcDbLine
 10
4765.7870399658
 20
1569.6648245491
 30
0.0
 11
4765.1058119658
 21
1569.9251745491
 31
0.0
  0
LINE
  5
24D
330
1F
100
AcDbEntity
  8
0
  6
Continuous
 62
     7
370
    25
100
AcDbLine
 10
4765.4313129658
 20
1568.0429075491
 30
0.0
 11
4765.7870399658
 21
1569.6648245491
 31
0.0
  0
LINE
  5
24E
330
1F
100
AcDbEntity
  8
0
  6
Continuous
 62
     7
370
    25
100
AcDbLine
 10
4766.8913049658
 20
1568.0429075491
 30
0.0
 11
4765.4313129658
 21
1568.0429075491
 31
0.0
  0
LINE
  5
24F
330
1F
100
AcDbEntity
  8
0
  6
Continuous
 62
     7
370
    25
100
AcDbLine
 10
4767.6714659658
 20
1567.1998815491
 30
0.0
 11
4766.8913049658
 21
1568.0429075491
 31
0.0
  0
LINE
  5
250
330
1F
100
AcDbEntity
  8
0
  6
Continuous
 62
     7
370
    25
100
AcDbLine
 10
4768.3512969658
 20
1566.0963785491
 30
0.0
 11
4767.6714659658
 21
1567.1998815491
 31
0.0
  0
LINE
  5
251
330
1F
100
AcDbEntity
  8
0
  6
Continuous
 62
     7
370
    25
100
AcDbLine
 10
4767.4111159658
 20
1565.4786505491
 30
0.0
 11
4768.3512969658
 21
1566.0963785491
 31
0.0
  0
LINE
  5
252
330
1F
100
AcDbEntity
  8
0
  6
Continuous
 62
     7
370
    25
100
AcDbLine
 10
4768.0923439658
 20
1564.9937645491
 30
0.0
 11
4767.4111159658
 21
1565.4786505491
 31
0.0
  0
LINE
  5
253
330
1F
100
AcDbEntity
  8
0
  6
Continuous
 62
     7
370
    25
100
AcDbLine
 10
4769.0969139658
 20
1565.4156585491
 30
0.0
 11
4768.0923439658
 21
1564.9937645491
 31
0.0
  0
LINE
  5
254
330
1F
100
AcDbEntity
  8
0
  6
Continuous
 62
     7
370
    25
100
AcDbLine
 10
4769.4534029658
 20
1567.5244935491
 30
0.0
 11
4769.0969139658
 21
1565.4156585491
 31
0.0
  0
LINE
  5
255
330
1F
100
AcDbEntity
  8
0
  6
Continuous
 62
     7
370
    25
100
AcDbLine
 10
4771.3361779658
 20
1567.8811095491
 30
0.0
 11
4769.4534029658
 21
1567.5244935491
 31
0.0
  0
LINE
  5
256
330
1F
100
AcDbEntity
  8
0
  6
Continuous
 62
     7
370
    25
100
AcDbLine
 10
4774.2251739658
 20
1568.1396815491
 30
0.0
 11
4771.3361779658
 21
1567.8811095491
 31
0.0
  0
LINE
  5
257
330
1F
100
AcDbEntity
  8
0
  6
Continuous
 62
     7
370
    25
100
AcDbLine
 10
4773.9634269658
 20
1570.5417595491
 30
0.0
 11
4774.2251739658
 21
1568.1396815491
 31
0.0
  0
LINE
  5
258
330
1F
100
AcDbEntity
  8
0
  6
Continuous
 62
     7
370
    25
100
AcDbLine
 10
4774.2251739658
 20
1571.4499365491
 30
0.0
 11
4773.9634269658
 21
1570.5417595491
 31
0.0
  0
LINE
  5
259
330
1F
100
AcDbEntity
  8
0
  6
Continuous
 62
     7
370
    25
100
AcDbLine
 10
4777.3061939658
 20
1571.6469135491
 30
0.0
 11
4774.2251739658
 21
1571.4499365491
 31
0.0
  0
LINE
  5
25A
330
1F
100
AcDbEntity
  8
0
  6
Continuous
 62
     7
370
    25
100
AcDbLine
 10
4777.7275799658
 20
1570.0223295491
 30
0.0
 11
4777.3061939658
 21
1571.6469135491
 31
0.0
  0
LINE
  5
25B
330
1F
100
AcDbEntity
  8
0
  6
Continuous
 62
     7
370
    25
100
AcDbLine
 10
4776.5269219658
 20
1567.9786455491
 30
0.0
 11
4777.7275799658
 21
1570.0223295491
 31
0.0
  0
LINE
  5
25C
330
1F
100
AcDbEntity
  8
0
  6
Continuous
 62
     7
370
    25
100
AcDbLine
 10
4777.3061939658
 20
1566.7784955491
 30
0.0
 11
4776.5269219658
 21
1567.9786455491
 31
0.0
  0
LINE
  5
25D
330
1F
100
AcDbEntity
  8
0
  6
Continuous
 62
     7
370
    25
100
AcDbLine
 10
4777.9865329658
 20
1566.6153005491
 30
0.0
 11
4777.3061939658
 21
1566.7784955491
 31
0.0
  0
LINE
  5
25E
330
1F
100
AcDbEntity
  8
0
  6
Continuous
 62
     7
370
    25
100
AcDbLine
 10
4778.1506169658
 20
1567.1032345491
 30
0.0
 11
4777.9865329658
 21
1566.6153005491
 31
0.0
  0
LINE
  5
25F
330
1F
100
AcDbEntity
  8
0
  6
Continuous
 62
     7
370
    25
100
AcDbLine
 10
4778.9281109658
 20
1567.2961475491
 30
0.0
 11
4778.1506169658
 21
1567.1032345491
 31
0.0
  0
LINE
  5
260
330
1F
100
AcDbEntity
  8
0
  6
Continuous
 62
     7
370
    25
100
AcDbLine
 10
4779.8687999658
 20
1566.0963785491
 30
0.0
 11
4778.9281109658
 21
1567.2961475491
 31
0.0
  0
LINE
  5
261
330
1F
100
AcDbEntity
  8
0
  6
Continuous
 62
     7
370
    25
100
AcDbLine
 10
4788.0470919658
 20
1567.9786455491
 30
0.0
 11
4779.8687999658
 21
1566.0963785491
 31
0.0
  0
LINE
  5
262
330
1F
100
AcDbEntity
  8
0
  6
Continuous
 62
     7
370
    25
100
AcDbLine
 10
4788.9881619658
 20
1566.7784955491
 30
0.0
 11
4788.0470919658
 21
1567.9786455491
 31
0.0
  0
LINE
  5
263
330
1F
100
AcDbEntity
  8
0
  6
Continuous
 62
     7
370
    25
100
AcDbLine
 10
4791.9064949658
 20
1565.0572645491
 30
0.0
 11
4788.9881619658
 21
1566.7784955491
 31
0.0
  0
LINE
  5
264
330
1F
100
AcDbEntity
  8
0
  6
Continuous
 62
     7
370
    25
100
AcDbLine
 10
4795.2177659658
 20
1566.5204315491
 30
0.0
 11
4791.9064949658
 21
1565.0572645491
 31
0.0
  0
LINE
  5
265
330
1F
100
AcDbEntity
  8
0
  6
Continuous
 62
     7
370
    25
100
AcDbLine
 10
4798.9812839658
 20
1567.7817955491
 30
0.0
 11
4795.2177659658
 21
1566.5204315491
 31
0.0
  0
LINE
  5
266
330
1F
100
AcDbEntity
  8
0
  6
Continuous
 62
     7
370
    25
100
AcDbLine
 10
4799.7600479658
 20
1564.1179725491
 30
0.0
 11
4798.9812839658
 21
1567.7817955491
 31
0.0
  0
LINE
  5
267
330
1F
100
AcDbEntity
  8
0
  6
Continuous
 62
     7
370
    25
100
AcDbLine
 10
4799.3064039658
 20
1562.1704275491
 30
0.0
 11
4799.7600479658
 21
1564.1179725491
 31
0.0
  0
LINE
  5
268
330
1F
100
AcDbEntity
  8
0
  6
Continuous
 62
     7
370
    25
100
AcDbLine
 10
4799.9219729658
 20
1560.9704045491
 30
0.0
 11
4799.3064039658
 21
1562.1704275491
 31
0.0
  0
LINE
  5
269
330
1F
100
AcDbEntity
  8
0
  6
Continuous
 62
     7
370
    25
100
AcDbLine
 10
4800.8626619658
 20
1560.2882875491
 30
0.0
 11
4799.9219729658
 21
1560.9704045491
 31
0.0
  0
LINE
  5
26A
330
1F
100
AcDbEntity
  8
0
  6
Continuous
 62
     7
370
    25
100
AcDbLine
 10
4801.3479289658
 20
1558.0812815491
 30
0.0
 11
4800.8626619658
 21
1560.2882875491
 31
0.0
  0
LINE
  5
26B
330
1F
100
AcDbEntity
  8
0
  6
Continuous
 62
     7
370
    25
100
AcDbLine
 10
4802.7449289658
 20
1558.5044455491
 30
0.0
 11
4801.3479289658
 21
1558.0812815491
 31
0.0
  0
LINE
  5
26C
330
1F
100
AcDbEntity
  8
0
  6
Continuous
 62
     7
370
    25
100
AcDbLine
 10
4803.6868879658
 20
1558.2437145491
 30
0.0
 11
4802.7449289658
 21
1558.5044455491
 31
0.0
  0
LINE
  5
26D
330
1F
100
AcDbEntity
  8
0
  6
Continuous
 62
     7
370
    25
100
AcDbLine
 10
4805.1119549658
 20
1558.5044455491
 30
0.0
 11
4803.6868879658
 21
1558.2437145491
 31
0.0
  0
LINE
  5
26E
330
1F
100
AcDbEntity
  8
0
  6
Continuous
 62
     7
370
    25
100
AcDbLine
 10
4805.7940719658
 20
1560.1258545491
 30
0.0
 11
4805.1119549658
 21
1558.5044455491
 31
0.0
  0
LINE
  5
26F
330
1F
100
AcDbEntity
  8
0
  6
Continuous
 62
     7
370
    25
100
AcDbLine
 10
4807.4168779658
 20
1560.5486375491
 30
0.0
 11
4805.7940719658
 21
1560.1258545491
 31
0.0
  0
LINE
  5
270
330
1F
100
AcDbEntity
  8
0
  6
Continuous
 62
     7
370
    25
100
AcDbLine
 10
4807.0912499658
 20
1557.8232175491
 30
0.0
 11
4807.4168779658
 21
1560.5486375491
 31
0.0
  0
LINE
  5
271
330
1F
100
AcDbEntity
  8
0
  6
Continuous
 62
     7
370
    25
100
AcDbLine
 10
4807.9347839658
 20
1557.4662205491
 30
0.0
 11
4807.0912499658
 21
1557.8232175491
 31
0.0
  0
LINE
  5
272
330
1F
100
AcDbEntity
  8
0
  6
Continuous
 62
     7
370
    25
100
AcDbLine
 10
4807.8390259658
 20
1556.3632255491
 30
0.0
 11
4807.9347839658
 21
1557.4662205491
 31
0.0
  0
LINE
  5
273
330
1F
100
AcDbEntity
  8
0
  6
Continuous
 62
     7
370
    25
100
AcDbLine
 10
4806.9946029658
 20
1556.1023675491
 30
0.0
 11
4807.8390259658
 21
1556.3632255491
 31
0.0
  0
LINE
  5
274
330
1F
100
AcDbEntity
  8
0
  6
Continuous
 62
     7
370
    25
100
AcDbLine
 10
4807.4168779658
 20
1554.2209895491
 30
0.0
 11
4806.9946029658
 21
1556.1023675491
 31
0.0
  0
LINE
  5
275
330
1F
100
AcDbEntity
  8
0
  6
Continuous
 62
     7
370
    25
100
AcDbLine
 10
4808.2931779658
 20
1550.5537375491
 30
0.0
 11
4807.4168779658
 21
1554.2209895491
 31
0.0
  0
LINE
  5
276
330
1F
100
AcDbEntity
  8
0
  6
Continuous
 62
     7
370
    25
100
AcDbLine
 10
4809.4622129658
 20
1550.5537375491
 30
0.0
 11
4808.2931779658
 21
1550.5537375491
 31
0.0
  0
LINE
  5
277
330
1F
100
AcDbEntity
  8
0
  6
Continuous
 62
     7
370
    25
100
AcDbLine
 10
4810.4025209658
 20
1546.4658615491
 30
0.0
 11
4809.4622129658
 21
1550.5537375491
 31
0.0
  0
LINE
  5
278
330
1F
100
AcDbEntity
  8
0
  6
Continuous
 62
     7
370
    25
100
AcDbLine
 10
4811.5042459658
 20
1546.6281675491
 30
0.0
 11
4810.4025209658
 21
1546.4658615491
 31
0.0
  0
LINE
  5
279
330
1F
100
AcDbEntity
  8
0
  6
Continuous
 62
     7
370
    25
100
AcDbLine
 10
4811.9596679658
 20
1544.8439445491
 30
0.0
 11
4811.5042459658
 21
1546.6281675491
 31
0.0
  0
LINE
  5
27A
330
1F
100
AcDbEntity
  8
0
  6
Continuous
 62
     7
370
    25
100
AcDbLine
 10
4813.4840489658
 20
1544.5841025491
 30
0.0
 11
4811.9596679658
 21
1544.8439445491
 31
0.0
  0
LINE
  5
27B
330
1F
100
AcDbEntity
  8
0
  6
Continuous
 62
     7
370
    25
100
AcDbLine
 10
4813.6472439658
 20
1543.9037635491
 30
0.0
 11
4813.4840489658
 21
1544.5841025491
 31
0.0
  0
LINE
  5
27C
330
1F
100
AcDbEntity
  8
0
  6
Continuous
 62
     7
370
    25
100
AcDbLine
 10
4814.5240519658
 20
1544.0004105491
 30
0.0
 11
4813.6472439658
 21
1543.9037635491
 31
0.0
  0
LINE
  5
27D
330
1F
100
AcDbEntity
  8
0
  6
Continuous
 62
     7
370
    25
100
AcDbLine
 10
4814.8491719658
 20
1543.3191825491
 30
0.0
 11
4814.5240519658
 21
1544.0004105491
 31
0.0
  0
LINE
  5
27E
330
1F
100
AcDbEntity
  8
0
  6
Continuous
 62
     7
370
    25
100
AcDbLine
 10
4815.9498809658
 20
1543.3191825491
 30
0.0
 11
4814.8491719658
 21
1543.3191825491
 31
0.0
  0
LINE
  5
27F
330
1F
100
AcDbEntity
  8
0
  6
Continuous
 62
     7
370
    25
100
AcDbLine
 10
4816.4700729658
 20
1540.6572625491
 30
0.0
 11
4815.9498809658
 21
1543.3191825491
 31
0.0
  0
LINE
  5
280
330
1F
100
AcDbEntity
  8
0
  6
Continuous
 62
     7
370
    25
100
AcDbLine
 10
4818.4162209658
 20
1540.9185015491
 30
0.0
 11
4816.4700729658
 21
1540.6572625491
 31
0.0
  0
LINE
  5
281
330
1F
100
AcDbEntity
  8
0
  6
Continuous
 62
     7
370
    25
100
AcDbLine
 10
4818.6105309658
 20
1539.0362345491
 30
0.0
 11
4818.4162209658
 21
1540.9185015491
 31
0.0
  0
LINE
  5
282
330
1F
100
AcDbEntity
  8
0
  6
Continuous
 62
     7
370
    25
100
AcDbLine
 10
4816.8263079658
 20
1538.6144675491
 30
0.0
 11
4818.6105309658
 21
1539.0362345491
 31
0.0
  0
LINE
  5
283
330
1F
100
AcDbEntity
  8
0
  6
Continuous
 62
     7
370
    25
100
AcDbLine
 10
4817.2502339658
 20
1535.2070575491
 30
0.0
 11
4816.8263079658
 21
1538.6144675491
 31
0.0
  0
LINE
  5
284
330
1F
100
AcDbEntity
  8
0
  6
Continuous
 62
     7
370
    25
100
AcDbLine
 10
4813.3872749658
 20
1533.4228345491
 30
0.0
 11
4817.2502339658
 21
1535.2070575491
 31
0.0
  0
LINE
  5
285
330
1F
100
AcDbEntity
  8
0
  6
Continuous
 62
     7
370
    25
100
AcDbLine
 10
4813.6472439658
 20
1531.8669575491
 30
0.0
 11
4813.3872749658
 21
1533.4228345491
 31
0.0
  0
LINE
  5
286
330
1F
100
AcDbEntity
  8
0
  6
Continuous
 62
     7
370
    25
100
AcDbLine
 10
4815.1072359658
 20
1532.1255295491
 30
0.0
 11
4813.6472439658
 21
1531.8669575491
 31
0.0
  0
LINE
  5
287
330
1F
100
AcDbEntity
  8
0
  6
Continuous
 62
     7
370
    25
100
AcDbLine
 10
4815.4300699658
 20
1531.5400595491
 30
0.0
 11
4815.1072359658
 21
1532.1255295491
 31
0.0
  0
LINE
  5
288
330
1F
100
AcDbEntity
  8
0
  6
Continuous
 62
     7
370
    25
100
AcDbLine
 10
4816.9889949658
 20
1531.7037625491
 30
0.0
 11
4815.4300699658
 21
1531.5400595491
 31
0.0
  0
LINE
  5
289
330
1F
100
AcDbEntity
  8
0
  6
Continuous
 62
     7
370
    25
100
AcDbLine
 10
4817.4103809658
 20
1529.2378035491
 30
0.0
 11
4816.9889949658
 21
1531.7037625491
 31
0.0
  0
LINE
  5
28A
330
1F
100
AcDbEntity
  8
0
  6
Continuous
 62
     7
370
    25
100
AcDbLine
 10
4816.3077669658
 20
1528.7176115491
 30
0.0
 11
4817.4103809658
 21
1529.2378035491
 31
0.0
  0
LINE
  5
28B
330
1F
100
AcDbEntity
  8
0
  6
Continuous
 62
     7
370
    25
100
AcDbLine
 10
4816.8263079658
 20
1526.7381895491
 30
0.0
 11
4816.3077669658
 21
1528.7176115491
 31
0.0
  0
LINE
  5
28C
330
1F
100
AcDbEntity
  8
0
  6
Continuous
 62
     7
370
    25
100
AcDbLine
 10
4817.9296839658
 20
1526.8358525491
 30
0.0
 11
4816.8263079658
 21
1526.7381895491
 31
0.0
  0
LINE
  5
28D
330
1F
100
AcDbEntity
  8
0
  6
Continuous
 62
     7
370
    25
100
AcDbLine
 10
4818.4162209658
 20
1525.3762415491
 30
0.0
 11
4817.9296839658
 21
1526.8358525491
 31
0.0
  0
LINE
  5
28E
330
1F
100
AcDbEntity
  8
0
  6
Continuous
 62
     7
370
    25
100
AcDbLine
 10
4821.5961739658
 20
1526.5772805491
 30
0.0
 11
4818.4162209658
 21
1525.3762415491
 31
0.0
  0
LINE
  5
28F
330
1F
100
AcDbEntity
  8
0
  6
Continuous
 62
     7
370
    25
100
AcDbLine
 10
4821.8228689658
 20
1525.9921915491
 30
0.0
 11
4821.5961739658
 21
1526.5772805491
 31
0.0
  0
LINE
  5
290
330
1F
100
AcDbEntity
  8
0
  6
Continuous
 62
     7
370
    25
100
AcDbLine
 10
4821.8228689658
 20
1524.8236645491
 30
0.0
 11
4821.8228689658
 21
1525.9921915491
 31
0.0
  0
LINE
  5
291
330
1F
100
AcDbEntity
  8
0
  6
Continuous
 62
     7
370
    25
100
AcDbLine
 10
4821.4999079658
 20
1524.6302435491
 30
0.0
 11
4821.8228689658
 21
1524.8236645491
 31
0.0
  0
LINE
  5
292
330
1F
100
AcDbEntity
  8
0
  6
Continuous
 62
     7
370
    25
100
AcDbLine
 10
4821.8228689658
 20
1523.9476185491
 30
0.0
 11
4821.4999079658
 21
1524.6302435491
 31
0.0
  0
LINE
  5
293
330
1F
100
AcDbEntity
  8
0
  6
Continuous
 62
     7
370
    25
100
AcDbLine
 10
4822.0200999658
 20
1523.4948635491
 30
0.0
 11
4821.8228689658
 21
1523.9476185491
 31
0.0
  0
LINE
  5
294
330
1F
100
AcDbEntity
  8
0
  6
Continuous
 62
     7
370
    25
100
AcDbLine
 10
4823.6394769658
 20
1524.0120075491
 30
0.0
 11
4822.0200999658
 21
1523.4948635491
 31
0.0
  0
LINE
  5
295
330
1F
100
AcDbEntity
  8
0
  6
Continuous
 62
     7
370
    25
100
AcDbLine
 10
4825.1007389658
 20
1522.8109685491
 30
0.0
 11
4823.6394769658
 21
1524.0120075491
 31
0.0
  0
LINE
  5
296
330
1F
100
AcDbEntity
  8
0
  6
Continuous
 62
     7
370
    25
100
AcDbLine
 10
4826.6898899658
 20
1522.7475955491
 30
0.0
 11
4825.1007389658
 21
1522.8109685491
 31
0.0
  0
LINE
  5
297
330
1F
100
AcDbEntity
  8
0
  6
Continuous
 62
     7
370
    25
100
AcDbLine
 10
4827.1453119658
 20
1522.7475955491
 30
0.0
 11
4826.6898899658
 21
1522.7475955491
 31
0.0
  0
LINE
  5
298
330
1F
100
AcDbEntity
  8
0
  6
Continuous
 62
     7
370
    25
100
AcDbLine
 10
4827.8576549658
 20
1520.7694435491
 30
0.0
 11
4827.1453119658
 21
1522.7475955491
 31
0.0
  0
LINE
  5
299
330
1F
100
AcDbEntity
  8
0
  6
Continuous
 62
     7
370
    25
100
AcDbLine
 10
4829.0275789658
 20
1517.7177605491
 30
0.0
 11
4827.8576549658
 21
1520.7694435491
 31
0.0
  0
LINE
  5
29A
330
1F
100
AcDbEntity
  8
0
  6
Continuous
 62
     7
370
    25
100
AcDbLine
 10
4827.8918179658
 20
1517.1992195491
 30
0.0
 11
4829.0275789658
 21
1517.7177605491
 31
0.0
  0
LINE
  5
29B
330
1F
100
AcDbEntity
  8
0
  6
Continuous
 62
     7
370
    25
100
AcDbLine
 10
4828.8341579658
 20
1514.4743075491
 30
0.0
 11
4827.8918179658
 21
1517.1992195491
 31
0.0
  0
LINE
  5
29C
330
1F
100
AcDbEntity
  8
0
  6
Continuous
 62
     7
370
    25
100
AcDbLine
 10
4829.6422589658
 20
1514.4086485491
 30
0.0
 11
4828.8341579658
 21
1514.4743075491
 31
0.0
  0
ENDSEC
  0
SECTION
  2
OBJECTS
  0
DICTIONARY
  5
C
330
0
100
AcDbDictionary
281
     1
  3
ACAD_GROUP
350
D
  3
ACAD_LAYOUT
350
1A
  3
ACAD_MLINESTYLE
350
17
  3
ACAD_PLOTSETTINGS
350
19
  3
ACAD_PLOTSTYLENAME
350
E
  3
ACAD_SCALELIST
350
47
  0
DICTIONARY
  5
D
102
{ACAD_REACTORS
330
C
102
}
330
C
100
AcDbDictionary
281
     1
  0
DICTIONARY
  5
1A
102
{ACAD_REACTORS
330
C
102
}
330
C
100
AcDbDictionary
281
     1
  3
Layout1
350
1E
  3
Layout2
350
26
  3
Model
350
22
  0
DICTIONARY
  5
17
102
{ACAD_REACTORS
330
C
102
}
330
C
100
AcDbDictionary
281
     1
  3
Standard
350
18
  0
DICTIONARY
  5
19
102
{ACAD_REACTORS
330
C
102
}
330
C
100
AcDbDictionary
281
     1
  0
ACDBDICTIONARYWDFLT
  5
E
102
{ACAD_REACTORS
330
C
102
}
330
C
100
AcDbDictionary
281
     1
  3
Normal
350
F
100
AcDbDictionaryWithDefault
340
F
  0
DICTIONARY
  5
47
102
{ACAD_REACTORS
330
C
102
}
330
C
100
AcDbDictionary
281
     1
  3
A0
350
48
  3
A1
350
49
  3
A2
350
4A
  3
A3
350
4B
  3
A4
350
4C
  3
A5
350
4D
  3
A6
350
4E
  3
A7
350
4F
  3
A8
350
50
  3
A9
350
51
  3
B0
350
52
  3
B1
350
53
  3
B2
350
54
  3
B3
350
55
  3
B4
350
56
  3
B5
350
57
  3
B6
350
58
  3
B7
350
59
  3
B8
350
5A
  3
B9
350
5B
  3
C0
350
5C
  3
C1
350
5D
  3
C2
350
5E
  3
C3
350
5F
  3
C4
350
60
  3
C5
350
61
  3
C6
350
62
  3
C7
350
63
  3
C8
350
64
  3
C9
350
65
  3
D0
350
66
  3
D1
350
67
  3
D2
350
68
  0
LAYOUT
  5
1E
102
{ACAD_REACTORS
330
1A
102
}
330
1A
100
AcDbPlotSettings
  1

  2
none_device
  4

  6

 40
0.0
 41
0.0
 42
0.0
 43
0.0
 44
0.0
 45
0.0
 46
0.0
 47
0.0
 48
0.0
 49
0.0
140
0.0
141
0.0
142
1.0
143
1.0
 70
   688
 72
     1
 73
     0
 74
     5
  7

 75
    16
147
1.0
148
0.0
149
0.0
100
AcDbLayout
  1
Layout1
 70
     1
 71
     1
 10
0.0
 20
0.0
 11
420.0
 21
297.0
 12
0.0
 22
0.0
 32
0.0
 14
1.0000000000E+20
 24
1.0000000000E+20
 34
1.0000000000E+20
 15
-1.0000000000E+20
 25
-1.0000000000E+20
 35
-1.0000000000E+20
146
0.0
 13
0.0
 23
0.0
 33
0.0
 16
1.0
 26
0.0
 36
0.0
 17
0.0
 27
1.0
 37
0.0
 76
     0
330
1B
  0
LAYOUT
  5
26
102
{ACAD_REACTORS
330
1A
102
}
330
1A
100
AcDbPlotSettings
  1

  2
none_device
  4

  6

 40
0.0
 41
0.0
 42
0.0
 43
0.0
 44
0.0
 45
0.0
 46
0.0
 47
0.0
 48
0.0
 49
0.0
140
0.0
141
0.0
142
1.0
143
1.0
 70
   688
 72
     1
 73
     0
 74
     5
  7

 75
    16
147
1.0
148
0.0
149
0.0
100
AcDbLayout
  1
Layout2
 70
     1
 71
     2
 10
0.0
 20
0.0
 11
0.0
 21
0.0
 12
0.0
 22
0.0
 32
0.0
 14
0.0
 24
0.0
 34
0.0
 15
0.0
 25
0.0
 35
0.0
146
0.0
 13
0.0
 23
0.0
 33
0.0
 16
1.0
 26
0.0
 36
0.0
 17
0.0
 27
1.0
 37
0.0
 76
     0
330
23
  0
LAYOUT
  5
22
102
{ACAD_REACTORS
330
1A
102
}
330
1A
100
AcDbPlotSettings
  1

  2
none_device
  4
ANSI_A_(11.00_x_8.50_Inches)
  6

 40
6.35
 41
19.05
 42
6.35000508
 43
19.05000254
 44
279.4
 45
215.9
 46
-11805.9045689559
 47
-3747.4182085008
 48
0.0
 49
0.0
140
0.0
141
0.0
142
0.0984533361
143
1.0
 70
  1696
 72
     0
 73
     0
 74
     0
  7

 75
     0
147
0.0179189148
148
-1300.4909072572
149
0.0
100
AcDbLayout
  1
Model
 70
     1
 71
     0
 10
0.0
 20
0.0
 11
420.0
 21
297.0
 12
0.0
 22
0.0
 32
0.0
 14
4719.0314819658
 24
1496.5304775491
 34
0.0
 15
4829.6422589658
 25
1571.6469135491
 35
0.0
146
0.0
 13
0.0
 23
0.0
 33
0.0
 16
1.0
 26
0.0
 36
0.0
 17
0.0
 27
1.0
 37
0.0
 76
     0
330
1F
331
29
  0
MLINESTYLE
  5
18
102
{ACAD_REACTORS
330
17
102
}
330
17
100
AcDbMlineStyle
  2
Standard
 70
     0
  3

 62
   256
 51
90.0
 52
90.0
 71
     2
 49
0.5
 62
   256
  6
BYLAYER
 49
-0.5
 62
   256
  6
BYLAYER
  0
ACDBPLACEHOLDER
  5
F
102
{ACAD_REACTORS
330
E
102
}
330
E
  0
SCALE
  5
48
102
{ACAD_REACTORS
330
47
102
}
330
47
100
AcDbScale
 70
     0
300
1:1
140
1.0
141
1.0
290
     1
  0
SCALE
  5
49
102
{ACAD_REACTORS
330
47
102
}
330
47
100
AcDbScale
 70
     0
300
1:2
140
1.0
141
2.0
290
     0
  0
SCALE
  5
4A
102
{ACAD_REACTORS
330
47
102
}
330
47
100
AcDbScale
 70
     0
300
1:4
140
1.0
141
4.0
290
     0
  0
SCALE
  5
4B
102
{ACAD_REACTORS
330
47
102
}
330
47
100
AcDbScale
 70
     0
300
1:5
140
1.0
141
5.0
290
     0
  0
SCALE
  5
4C
102
{ACAD_REACTORS
330
47
102
}
330
47
100
AcDbScale
 70
     0
300
1:8
140
1.0
141
8.0
290
     0
  0
SCALE
  5
4D
102
{ACAD_REACTORS
330
47
102
}
330
47
100
AcDbScale
 70
     0
300
1:10
140
1.0
141
10.0
290
     0
  0
SCALE
  5
4E
102
{ACAD_REACTORS
330
47
102
}
330
47
100
AcDbScale
 70
     0
300
1:16
140
1.0
141
16.0
290
     0
  0
SCALE
  5
4F
102
{ACAD_REACTORS
330
47
102
}
330
47
100
AcDbScale
 70
     0
300
1:20
140
1.0
141
20.0
290
     0
  0
SCALE
  5
50
102
{ACAD_REACTORS
330
47
102
}
330
47
100
AcDbScale
 70
     0
300
1:30
140
1.0
141
30.0
290
     0
  0
SCALE
  5
51
102
{ACAD_REACTORS
330
47
102
}
330
47
100
AcDbScale
 70
     0
300
1:40
140
1.0
141
40.0
290
     0
  0
SCALE
  5
52
102
{ACAD_REACTORS
330
47
102
}
330
47
100
AcDbScale
 70
     0
300
1:50
140
1.0
141
50.0
290
     0
  0
SCALE
  5
53
102
{ACAD_REACTORS
330
47
102
}
330
47
100
AcDbScale
 70
     0
300
1:100
140
1.0
141
100.0
290
     0
  0
SCALE
  5
54
102
{ACAD_REACTORS
330
47
102
}
330
47
100
AcDbScale
 70
     0
300
2:1
140
2.0
141
1.0
290
     0
  0
SCALE
  5
55
102
{ACAD_REACTORS
330
47
102
}
330
47
100
AcDbScale
 70
     0
300
4:1
140
4.0
141
1.0
290
     0
  0
SCALE
  5
56
102
{ACAD_REACTORS
330
47
102
}
330
47
100
AcDbScale
 70
     0
300
8:1
140
8.0
141
1.0
290
     0
  0
SCALE
  5
57
102
{ACAD_REACTORS
330
47
102
}
330
47
100
AcDbScale
 70
     0
300
10:1
140
10.0
141
1.0
290
     0
  0
SCALE
  5
58
102
{ACAD_REACTORS
330
47
102
}
330
47
100
AcDbScale
 70
     0
300
100:1
140
100.0
141
1.0
290
     0
  0
SCALE
  5
59
102
{ACAD_REACTORS
330
47
102
}
330
47
100
AcDbScale
 70
     0
300
1/128" = 1'-0"
140
0.0078125
141
12.0
290
     0
  0
SCALE
  5
5A
102
{ACAD_REACTORS
330
47
102
}
330
47
100
AcDbScale
 70
     0
300
1/64" = 1'-0"
140
0.015625
141
12.0
290
     0
  0
SCALE
  5
5B
102
{ACAD_REACTORS
330
47
102
}
330
47
100
AcDbScale
 70
     0
300
1/32" = 1'-0"
140
0.03125
141
12.0
290
     0
  0
SCALE
  5
5C
102
{ACAD_REACTORS
330
47
102
}
330
47
100
AcDbScale
 70
     0
300
1/16" = 1'-0"
140
0.0625
141
12.0
290
     0
  0
SCALE
  5
5D
102
{ACAD_REACTORS
330
47
102
}
330
47
100
AcDbScale
 70
     0
300
3/32" = 1'-0"
140
0.09375
141
12.0
290
     0
  0
SCALE
  5
5E
102
{ACAD_REACTORS
330
47
102
}
330
47
100
AcDbScale
 70
     0
300
1/8" = 1'-0"
140
0.125
141
12.0
290
     0
  0
SCALE
  5
5F
102
{ACAD_REACTORS
330
47
102
}
330
47
100
AcDbScale
 70
     0
300
3/16" = 1'-0"
140
0.1875
141
12.0
290
     0
  0
SCALE
  5
60
102
{ACAD_REACTORS
330
47
102
}
330
47
100
AcDbScale
 70
     0
300
1/4" = 1'-0"
140
0.25
141
12.0
290
     0
  0
SCALE
  5
61
102
{ACAD_REACTORS
330
47
102
}
330
47
100
AcDbScale
 70
     0
300
3/8" = 1'-0"
140
0.375
141
12.0
290
     0
  0
SCALE
  5
62
102
{ACAD_REACTORS
330
47
102
}
330
47
100
AcDbScale
 70
     0
300
1/2" = 1'-0"
140
0.5
141
12.0
290
     0
  0
SCALE
  5
63
102
{ACAD_REACTORS
330
47
102
}
330
47
100
AcDbScale
 70
     0
300
3/4" = 1'-0"
140
0.75
141
12.0
290
     0
  0
SCALE
  5
64
102
{ACAD_REACTORS
330
47
102
}
330
47
100
AcDbScale
 70
     0
300
1" = 1'-0"
140
1.0
141
12.0
290
     0
  0
SCALE
  5
65
102
{ACAD_REACTORS
330
47
102
}
330
47
100
AcDbScale
 70
     0
300
1-1/2" = 1'-0"
140
1.5
141
12.0
290
     0
  0
SCALE
  5
66
102
{ACAD_REACTORS
330
47
102
}
330
47
100
AcDbScale
 70
     0
300
3" = 1'-0"
140
3.0
141
12.0
290
     0
  0
SCALE
  5
67
102
{ACAD_REACTORS
330
47
102
}
330
47
100
AcDbScale
 70
     0
300
6" = 1'-0"
140
6.0
141
12.0
290
     0
  0
SCALE
  5
68
102
{ACAD_REACTORS
330
47
102
}
330
47
100
AcDbScale
 70
     0
300
1'-0" = 1'-0"
140
12.0
141
12.0
290
     0
  0
ENDSEC
  0
EOF
