  0
SECTION
  2
HEADER
  9
$ACADVER
  1
AC1015
  9
$ACADMAINTVER
 70
     6
  9
$DWGCODEPAGE
  3
ANSI_1251
  9
$INSBASE
 10
0.0
 20
0.0
 30
0.0
  9
$EXTMIN
 10
-3142.069817536
 20
8892.5583373192
 30
0.0
  9
$EXTMAX
 10
-3087.883362536
 20
8991.9754613192
 30
0.0
  9
$LIMMIN
 10
0.0
 20
0.0
  9
$LIMMAX
 10
420.0
 20
297.0
  9
$ORTHOMODE
 70
     0
  9
$REGENMODE
 70
     1
  9
$FILLMODE
 70
     1
  9
$QTEXTMODE
 70
     0
  9
$MIRRTEXT
 70
     1
  9
$LTSCALE
 40
1.0
  9
$ATTMODE
 70
     1
  9
$TEXTSIZE
 40
4.0
  9
$TRACEWID
 40
1.0
  9
$TEXTSTYLE
  7
Standard
  9
$CLAYER
  8
0
  9
$CELTYPE
  6
ByLayer
  9
$CECOLOR
 62
   256
  9
$CELTSCALE
 40
1.0
  9
$DISPSILH
 70
     0
  9
$DIMSCALE
 40
1.0
  9
$DIMASZ
 40
6.0
  9
$DIMEXO
 40
1.0
  9
$DIMDLI
 40
3.75
  9
$DIMRND
 40
0.0
  9
$DIMDLE
 40
0.0
  9
$DIMEXE
 40
1.0
  9
$DIMTP
 40
0.0
  9
$DIMTM
 40
0.0
  9
$DIMTXT
 40
4.0
  9
$DIMCEN
 40
2.5
  9
$DIMTSZ
 40
0.0
  9
$DIMTOL
 70
     0
  9
$DIMLIM
 70
     0
  9
$DIMTIH
 70
     1
  9
$DIMTOH
 70
     1
  9
$DIMSE1
 70
     0
  9
$DIMSE2
 70
     0
  9
$DIMTAD
 70
     1
  9
$DIMZIN
 70
     0
  9
$DIMBLK
  1

  9
$DIMASO
 70
     1
  9
$DIMSHO
 70
     1
  9
$DIMPOST
  1

  9
$DIMAPOST
  1

  9
$DIMALT
 70
     0
  9
$DIMALTD
 70
     3
  9
$DIMALTF
 40
0.0393700787
  9
$DIMLFAC
 40
1.0
  9
$DIMTOFL
 70
     1
  9
$DIMTVP
 40
0.0
  9
$DIMTIX
 70
     0
  9
$DIMSOXD
 70
     0
  9
$DIMSAH
 70
     0
  9
$DIMBLK1
  1

  9
$DIMBLK2
  1

  9
$DIMSTYLE
  2
ISO-25
  9
$DIMCLRD
 70
     0
  9
$DIMCLRE
 70
     0
  9
$DIMCLRT
 70
     0
  9
$DIMTFAC
 40
1.0
  9
$DIMGAP
 40
3.0
  9
$DIMJUST
 70
     0
  9
$DIMSD1
 70
     0
  9
$DIMSD2
 70
     0
  9
$DIMTOLJ
 70
     0
  9
$DIMTZIN
 70
     0
  9
$DIMALTZ
 70
     0
  9
$DIMALTTZ
 70
     0
  9
$DIMUPT
 70
     0
  9
$DIMDEC
 70
     2
  9
$DIMTDEC
 70
     4
  9
$DIMALTU
 70
     2
  9
$DIMALTTD
 70
     3
  9
$DIMTXSTY
  7
Standard
  9
$DIMAUNIT
 70
     0
  9
$DIMADEC
 70
     2
  9
$DIMALTRND
 40
0.0
  9
$DIMAZIN
 70
     0
  9
$DIMDSEP
 70
    44
  9
$DIMATFIT
 70
     3
  9
$DIMFRAC
 70
     0
  9
$DIMLDRBLK
  1

  9
$DIMLUNIT
 70
     2
  9
$DIMLWD
 70
    -2
  9
$DIMLWE
 70
    -2
  9
$DIMTMOVE
 70
     0
  9
$LUNITS
 70
     2
  9
$LUPREC
 70
     2
  9
$SKETCHINC
 40
1.0
  9
$FILLETRAD
 40
10.0
  9
$AUNITS
 70
     1
  9
$AUPREC
 70
     2
  9
$MENU
  1
.
  9
$ELEVATION
 40
0.0
  9
$PELEVATION
 40
0.0
  9
$THICKNESS
 40
0.0
  9
$LIMCHECK
 70
     0
  9
$CHAMFERA
 40
0.0
  9
$CHAMFERB
 40
0.0
  9
$CHAMFERC
 40
0.0
  9
$CHAMFERD
 40
0.0
  9
$SKPOLY
 70
     0
  9
$TDCREATE
 40
2460368.662061296
  9
$TDUCREATE
 40
2460368.578727963
  9
$TDUPDATE
 40
2460368.662089155
  9
$TDUUPDATE
 40
2460368.578755822
  9
$TDINDWG
 40
0.0000000116
  9
$TDUSRTIMER
 40
0.0000000116
  9
$USRTIMER
 70
     1
  9
$ANGBASE
 50
0.0
  9
$ANGDIR
 70
     0
  9
$PDMODE
 70
     0
  9
$PDSIZE
 40
-1.0
  9
$PLINEWID
 40
0.0
  9
$SPLFRAME
 70
     0
  9
$SPLINETYPE
 70
     6
  9
$SPLINESEGS
 70
     8
  9
$HANDSEED
  5
343
  9
$SURFTAB1
 70
     6
  9
$SURFTAB2
 70
     6
  9
$SURFTYPE
 70
     6
  9
$SURFU
 70
     6
  9
$SURFV
 70
     6
  9
$UCSBASE
  2

  9
$UCSNAME
  2

  9
$UCSORG
 10
0.0
 20
0.0
 30
0.0
  9
$UCSXDIR
 10
1.0
 20
0.0
 30
0.0
  9
$UCSYDIR
 10
0.0
 20
1.0
 30
0.0
  9
$UCSORTHOREF
  2

  9
$UCSORTHOVIEW
 70
     0
  9
$UCSORGTOP
 10
0.0
 20
0.0
 30
0.0
  9
$UCSORGBOTTOM
 10
0.0
 20
0.0
 30
0.0
  9
$UCSORGLEFT
 10
0.0
 20
0.0
 30
0.0
  9
$UCSORGRIGHT
 10
0.0
 20
0.0
 30
0.0
  9
$UCSORGFRONT
 10
0.0
 20
0.0
 30
0.0
  9
$UCSORGBACK
 10
0.0
 20
0.0
 30
0.0
  9
$PUCSBASE
  2

  9
$PUCSNAME
  2

  9
$PUCSORG
 10
0.0
 20
0.0
 30
0.0
  9
$PUCSXDIR
 10
1.0
 20
0.0
 30
0.0
  9
$PUCSYDIR
 10
0.0
 20
1.0
 30
0.0
  9
$PUCSORTHOREF
  2

  9
$PUCSORTHOVIEW
 70
     0
  9
$PUCSORGTOP
 10
0.0
 20
0.0
 30
0.0
  9
$PUCSORGBOTTOM
 10
0.0
 20
0.0
 30
0.0
  9
$PUCSORGLEFT
 10
0.0
 20
0.0
 30
0.0
  9
$PUCSORGRIGHT
 10
0.0
 20
0.0
 30
0.0
  9
$PUCSORGFRONT
 10
0.0
 20
0.0
 30
0.0
  9
$PUCSORGBACK
 10
0.0
 20
0.0
 30
0.0
  9
$USERI1
 70
     0
  9
$USERI2
 70
     0
  9
$USERI3
 70
     0
  9
$USERI4
 70
     0
  9
$USERI5
 70
     0
  9
$USERR1
 40
0.0
  9
$USERR2
 40
0.0
  9
$USERR3
 40
0.0
  9
$USERR4
 40
0.0
  9
$USERR5
 40
0.0
  9
$WORLDVIEW
 70
     1
  9
$SHADEDGE
 70
     3
  9
$SHADEDIF
 70
    70
  9
$TILEMODE
 70
     1
  9
$MAXACTVP
 70
    64
  9
$PINSBASE
 10
0.0
 20
0.0
 30
0.0
  9
$PLIMCHECK
 70
     0
  9
$PEXTMIN
 10
1.0000000000E+20
 20
1.0000000000E+20
 30
1.0000000000E+20
  9
$PEXTMAX
 10
-1.0000000000E+20
 20
-1.0000000000E+20
 30
-1.0000000000E+20
  9
$PLIMMIN
 10
0.0
 20
0.0
  9
$PLIMMAX
 10
420.0
 20
297.0
  9
$UNITMODE
 70
     0
  9
$VISRETAIN
 70
     1
  9
$PLINEGEN
 70
     0
  9
$PSLTSCALE
 70
     1
  9
$TREEDEPTH
 70
  3020
  9
$CMLSTYLE
  2
Standard
  9
$CMLJUST
 70
     0
  9
$CMLSCALE
 40
20.0
  9
$PROXYGRAPHICS
 70
     1
  9
$MEASUREMENT
 70
     1
  9
$CELWEIGHT
370
    -1
  9
$ENDCAPS
280
     0
  9
$JOINSTYLE
280
     0
  9
$LWDISPLAY
290
     1
  9
$INSUNITS
 70
     4
  9
$HYPERLINKBASE
  1

  9
$STYLESHEET
  1

  9
$XEDIT
290
     1
  9
$CEPSNTYPE
380
     0
  9
$PSTYLEMODE
290
     1
  9
$FINGERPRINTGUID
  2
{b5eba44f-fd46-4e81-ab07-7a016da886f2}
  9
$VERSIONGUID
  2
{FAEB1C32-E019-11D5-929B-00C0DF256EC4}
  9
$EXTNAMES
290
     1
  9
$PSVPSCALE
 40
0.0
  9
$OLESTARTUP
290
     0
  0
ENDSEC
  0
SECTION
  2
CLASSES
  0
CLASS
  1
ACDBDICTIONARYWDFLT
  2
AcDbDictionaryWithDefault
  3
ObjectDBX Classes
 90
        0
280
     0
281
     0
  0
CLASS
  1
VISUALSTYLE
  2
AcDbVisualStyle
  3
ObjectDBX Classes
 90
     4095
280
     0
281
     0
  0
CLASS
  1
MATERIAL
  2
AcDbMaterial
  3
ObjectDBX Classes
 90
     1153
280
     0
281
     0
  0
CLASS
  1
SCALE
  2
AcDbScale
  3
ObjectDBX Classes
 90
     1153
280
     0
281
     0
  0
CLASS
  1
TABLESTYLE
  2
AcDbTableStyle
  3
ObjectDBX Classes
 90
     4095
280
     0
281
     0
  0
CLASS
  1
MLEADERSTYLE
  2
AcDbMLeaderStyle
  3
ACDB_MLEADERSTYLE_CLASS
 90
     4095
280
     0
281
     0
  0
CLASS
  1
SUN
  2
AcDbSun
  3
SCENEOE
 90
     1153
280
     0
281
     0
  0
CLASS
  1
ACDBPLACEHOLDER
  2
AcDbPlaceHolder
  3
ObjectDBX Classes
 90
        0
280
     0
281
     0
  0
CLASS
  1
LAYOUT
  2
AcDbLayout
  3
ObjectDBX Classes
 90
        0
280
     0
281
     0
  0
ENDSEC
  0
SECTION
  2
TABLES
  0
TABLE
  2
VPORT
  5
8
330
0
100
AcDbSymbolTable
 70
     1
  0
VPORT
  5
29
330
8
100
AcDbSymbolTableRecord
100
AcDbViewportTableRecord
  2
*Active
 70
     0
 10
0.0
 20
0.0
 11
1.0
 21
1.0
 12
-3114.976590036
 22
8942.2668993192
 13
0.0
 23
0.0
 14
10.0
 24
10.0
 15
10.0
 25
10.0
 16
0.0
 26
0.0
 36
1.0
 17
0.0
 27
0.0
 37
0.0
 40
101.40546648
 41
0.5450414659
 42
50.0
 43
0.0
 44
0.0
 50
0.0
 51
0.0
 71
     0
 72
   100
 73
     1
 74
     3
 75
     0
 76
     0
 77
     0
 78
     0
281
     0
 65
     1
110
0.0
120
0.0
130
0.0
111
1.0
121
0.0
131
0.0
112
0.0
122
1.0
132
0.0
 79
     0
146
0.0
  0
ENDTAB
  0
TABLE
  2
LTYPE
  5
5
330
0
100
AcDbSymbolTable
 70
     6
  0
LTYPE
  5
14
330
5
100
AcDbSymbolTableRecord
100
AcDbLinetypeTableRecord
  2
ByBlock
 70
     0
  3

 72
    65
 73
     0
 40
0.0
  0
LTYPE
  5
15
330
5
100
AcDbSymbolTableRecord
100
AcDbLinetypeTableRecord
  2
ByLayer
 70
     0
  3

 72
    65
 73
     0
 40
0.0
  0
LTYPE
  5
16
330
5
100
AcDbSymbolTableRecord
100
AcDbLinetypeTableRecord
  2
Continuous
 70
     0
  3
Solid line
 72
    65
 73
     0
 40
0.0
  0
LTYPE
  5
6E
330
5
100
AcDbSymbolTableRecord
100
AcDbLinetypeTableRecord
  2
HIDDEN
 70
     0
  3
Hidden __ __ __ __ __ __ __ __ __ __ __ __ __ __
 72
    65
 73
     2
 40
1.905
 49
1.27
 74
     0
 49
-0.635
 74
     0
  0
LTYPE
  5
6F
330
5
100
AcDbSymbolTableRecord
100
AcDbLinetypeTableRecord
  2
PHANTOM
 70
     0
  3
Phantom ______  __  __  ______  __  __  ______
 72
    65
 73
     6
 40
12.7
 49
6.35
 74
     0
 49
-1.27
 74
     0
 49
1.27
 74
     0
 49
-1.27
 74
     0
 49
1.27
 74
     0
 49
-1.27
 74
     0
  0
LTYPE
  5
70
330
5
100
AcDbSymbolTableRecord
100
AcDbLinetypeTableRecord
  2
CENTER
 70
     0
  3
Center ____ _ ____ _ ____ _ ____ _ ____ _ ____
 72
    65
 73
     4
 40
10.16
 49
6.35
 74
     0
 49
-1.27
 74
     0
 49
1.27
 74
     0
 49
-1.27
 74
     0
  0
LTYPE
  5
71
330
5
100
AcDbSymbolTableRecord
100
AcDbLinetypeTableRecord
  2
CENTERX2
 70
     0
  3
Center (2x) ________  __  ________  __  _____
 72
    65
 73
     4
 40
20.32
 49
12.7
 74
     0
 49
-2.54
 74
     0
 49
2.54
 74
     0
 49
-2.54
 74
     0
  0
LTYPE
  5
72
330
5
100
AcDbSymbolTableRecord
100
AcDbLinetypeTableRecord
  2
DOT2
 70
     0
  3
Dot (.5x) ........................................
 72
    65
 73
     2
 40
0.635
 49
0.0
 74
     0
 49
-0.635
 74
     0
  0
ENDTAB
  0
TABLE
  2
LAYER
  5
2
330
0
100
AcDbSymbolTable
 70
     1
  0
LAYER
  5
10
330
2
100
AcDbSymbolTableRecord
100
AcDbLayerTableRecord
  2
0
 70
     0
 62
     7
  6
Continuous
370
    -3
390
F
  0
ENDTAB
  0
TABLE
  2
STYLE
  5
3
330
0
100
AcDbSymbolTable
 70
     1
  0
STYLE
  5
11
330
3
100
AcDbSymbolTableRecord
100
AcDbTextStyleTableRecord
  2
Standard
 70
     0
 40
0.0
 41
1.0
 50
0.0
 71
     0
 42
4.0
  3
txt
  4

  0
ENDTAB
  0
TABLE
  2
VIEW
  5
6
330
0
100
AcDbSymbolTable
 70
     0
  0
ENDTAB
  0
TABLE
  2
UCS
  5
7
330
0
100
AcDbSymbolTable
 70
     0
  0
ENDTAB
  0
TABLE
  2
APPID
  5
9
330
0
100
AcDbSymbolTable
 70
     1
  0
APPID
  5
12
330
9
100
AcDbSymbolTableRecord
100
AcDbRegAppTableRecord
  2
ACAD
 70
     0
  0
ENDTAB
  0
TABLE
  2
DIMSTYLE
  5
A
330
0
100
AcDbSymbolTable
 70
     1
100
AcDbDimStyleTable
  0
DIMSTYLE
105
27
330
A
100
AcDbSymbolTableRecord
100
AcDbDimStyleTableRecord
  2
ISO-25
 70
     0
 41
2.5
 42
0.625
 43
3.75
 44
1.25
 73
     0
 74
     0
 77
     1
 78
     8
140
2.5
141
2.5
143
0.0393700787
147
0.625
171
     3
172
     1
178
     0
271
     2
272
     2
274
     3
278
    44
283
     0
284
     8
340
11
  0
ENDTAB
  0
TABLE
  2
BLOCK_RECORD
  5
1
330
0
100
AcDbSymbolTable
 70
     1
  0
BLOCK_RECORD
  5
1F
330
1
100
AcDbSymbolTableRecord
100
AcDbBlockTableRecord
  2
*Model_Space
340
22
  0
BLOCK_RECORD
  5
1B
330
1
100
AcDbSymbolTableRecord
100
AcDbBlockTableRecord
  2
*Paper_Space
340
1E
  0
BLOCK_RECORD
  5
23
330
1
100
AcDbSymbolTableRecord
100
AcDbBlockTableRecord
  2
*Paper_Space0
340
26
  0
ENDTAB
  0
ENDSEC
  0
SECTION
  2
BLOCKS
  0
BLOCK
  5
20
330
1F
100
AcDbEntity
  8
0
100
AcDbBlockBegin
  2
*Model_Space
 70
     0
 10
0.0
 20
0.0
 30
0.0
  3
*Model_Space
  1

  0
ENDBLK
  5
21
330
1F
100
AcDbEntity
  8
0
100
AcDbBlockEnd
  0
BLOCK
  5
1C
330
1B
100
AcDbEntity
 67
     1
  8
0
100
AcDbBlockBegin
  2
*Paper_Space
 70
     0
 10
0.0
 20
0.0
 30
0.0
  3
*Paper_Space
  1

  0
ENDBLK
  5
1D
330
1B
100
AcDbEntity
 67
     1
  8
0
100
AcDbBlockEnd
  0
BLOCK
  5
24
330
23
100
AcDbEntity
  8
0
100
AcDbBlockBegin
  2
*Paper_Space0
 70
     0
 10
0.0
 20
0.0
 30
0.0
  3
*Paper_Space0
  1

  0
ENDBLK
  5
25
330
23
100
AcDbEntity
  8
0
100
AcDbBlockEnd
  0
ENDSEC
  0
SECTION
  2
ENTITIES
  0
SPLINE
  5
74
330
1F
100
AcDbEntity
  8
0
  6
Continuous
 62
     7
370
    25
100
AcDbSpline
210
0.0
220
0.0
230
1.0
 70
     8
 71
     3
 72
    11
 73
     7
 74
     0
 42
0.000000001
 43
0.00000001
 40
0.0
 40
0.0
 40
0.0
 40
0.0
 40
0.2709176399660459
 40
0.518355237105241
 40
0.7516456497894783
 40
0.9999999999999999
 40
0.9999999999999999
 40
0.9999999999999999
 40
0.9999999999999999
 10
-3133.119877772066
 20
8932.872160032828
 30
0.0
 10
-3133.107484946656
 20
8932.891962055426
 30
0.0
 10
-3133.08377336422
 20
8932.929849887765
 30
0.0
 10
-3133.033784625356
 20
8932.9720708379
 30
0.0
 10
-3132.975859957704
 20
8932.998590674917
 30
0.0
 10
-3132.934354096391
 20
8933.001547528746
 30
0.0
 10
-3132.912952096389
 20
8933.003072194992
 30
0.0
  0
SPLINE
  5
75
330
1F
100
AcDbEntity
  8
0
  6
Continuous
 62
     7
370
    25
100
AcDbSpline
210
0.0
220
0.0
230
1.0
 70
     8
 71
     3
 72
    15
 73
    11
 74
     0
 42
0.000000001
 43
0.00000001
 40
0.0
 40
0.0
 40
0.0
 40
0.0
 40
0.1634481711841495
 40
0.307793269932458
 40
0.4342702607694273
 40
0.549765552464169
 40
0.6554189183654588
 40
0.7626357660705406
 40
0.8753532093176926
 40
1.0
 40
1.0
 40
1.0
 40
1.0
 10
-3132.912952096389
 20
8933.003072194992
 30
0.0
 10
-3132.887936935905
 20
8933.002142644214
 30
0.0
 10
-3132.840830272138
 20
8933.000392184296
 30
0.0
 10
-3132.774805603288
 20
8932.990746055088
 30
0.0
 10
-3132.718327282059
 20
8932.971834182868
 30
0.0
 10
-3132.672331744425
 20
8932.944256650011
 30
0.0
 10
-3132.635488686699
 20
8932.909296448997
 30
0.0
 10
-3132.609754611606
 20
8932.865892285474
 30
0.0
 10
-3132.594886419387
 20
8932.814682019982
 30
0.0
 10
-3132.59299787792
 20
8932.778300492799
 30
0.0
 10
-3132.592006150443
 20
8932.759195505801
 30
0.0
  0
SPLINE
  5
76
330
1F
100
AcDbEntity
  8
0
  6
Continuous
 62
     7
370
    25
100
AcDbSpline
210
0.0
220
0.0
230
1.0
 70
     8
 71
     3
 72
     9
 73
     5
 74
     0
 42
0.000000001
 43
0.00000001
 40
0.0
 40
0.0
 40
0.0
 40
0.0
 40
0.4126719754693559
 40
1.0
 40
1.0
 40
1.0
 40
1.0
 10
-3132.592006150443
 20
8932.759195505801
 30
0.0
 10
-3132.594771854856
 20
8932.741709949893
 30
0.0
 10
-3132.601473798719
 20
8932.699338388584
 30
0.0
 10
-3132.621448459105
 20
8932.661225527489
 30
0.0
 10
-3132.63318013693
 20
8932.63884077607
 30
0.0
  0
SPLINE
  5
79
330
1F
100
AcDbEntity
  8
0
  6
Continuous
 62
     7
370
    25
100
AcDbSpline
210
0.0
220
0.0
230
1.0
 70
     8
 71
     3
 72
     9
 73
     5
 74
     0
 42
0.000000001
 43
0.00000001
 40
0.0
 40
0.0
 40
0.0
 40
0.0
 40
0.5921133496333562
 40
1.0
 40
1.0
 40
1.0
 40
1.0
 10
-3132.63318013693
 20
8928.2986803031
 30
0.0
 10
-3132.621465644116
 20
8928.276293433699
 30
0.0
 10
-3132.601681437558
 20
8928.23848501507
 30
0.0
 10
-3132.594809231538
 20
8928.196504576914
 30
0.0
 10
-3132.592006150443
 20
8928.17938131661
 30
0.0
  0
SPLINE
  5
7A
330
1F
100
AcDbEntity
  8
0
  6
Continuous
 62
     7
370
    25
100
AcDbSpline
210
0.0
220
0.0
230
1.0
 70
     8
 71
     3
 72
    15
 73
    11
 74
     0
 42
0.000000001
 43
0.00000001
 40
0.0
 40
0.0
 40
0.0
 40
0.0
 40
0.1246467906821267
 40
0.2373642339294748
 40
0.3445810816344009
 40
0.4502344475358354
 40
0.5657297392304881
 40
0.6922067300675326
 40
0.836551828815824
 40
1.0
 40
1.0
 40
1.0
 40
1.0
 10
-3132.592006150443
 20
8928.17938131661
 30
0.0
 10
-3132.59299787792
 20
8928.160276329612
 30
0.0
 10
-3132.594886419387
 20
8928.123894802431
 30
0.0
 10
-3132.609754611606
 20
8928.072684536939
 30
0.0
 10
-3132.635488686699
 20
8928.029280373414
 30
0.0
 10
-3132.672331744425
 20
8927.9943201724
 30
0.0
 10
-3132.718327282059
 20
8927.966742639543
 30
0.0
 10
-3132.774805603288
 20
8927.947830767322
 30
0.0
 10
-3132.840830272138
 20
8927.938184638113
 30
0.0
 10
-3132.887936935905
 20
8927.936434178197
 30
0.0
 10
-3132.912952096389
 20
8927.935504627423
 30
0.0
  0
SPLINE
  5
7B
330
1F
100
AcDbEntity
  8
0
  6
Continuous
 62
     7
370
    25
100
AcDbSpline
210
0.0
220
0.0
230
1.0
 70
     8
 71
     3
 72
    11
 73
     7
 74
     0
 42
0.000000001
 43
0.00000001
 40
0.0
 40
0.0
 40
0.0
 40
0.0
 40
0.2490100682574923
 40
0.4829164263989066
 40
0.7283670692181584
 40
1.0
 40
1.0
 40
1.0
 40
1.0
 10
-3132.912952096389
 20
8927.935504627423
 30
0.0
 10
-3132.934368484722
 20
8927.937012224138
 30
0.0
 10
-3132.975902249972
 20
8927.939935974264
 30
0.0
 10
-3133.03341493064
 20
8927.966600587743
 30
0.0
 10
-3133.084107357996
 20
8928.007612814485
 30
0.0
 10
-3133.107558488324
 20
8928.045472630947
 30
0.0
 10
-3133.119877772066
 20
8928.065361046341
 30
0.0
  0
SPLINE
  5
7E
330
1F
100
AcDbEntity
  8
0
  6
Continuous
 62
     7
370
    25
100
AcDbSpline
210
0.0
220
0.0
230
1.0
 70
     8
 71
     3
 72
    11
 73
     7
 74
     0
 42
0.000000001
 43
0.00000001
 40
0.0
 40
0.0
 40
0.0
 40
0.0
 40
0.2296383273386585
 40
0.4615667334324787
 40
0.7108246957631413
 40
1.0
 40
1.0
 40
1.0
 40
1.0
 10
-3135.082504461254
 20
8928.064305303098
 30
0.0
 10
-3135.095758566962
 20
8928.04452706378
 30
0.0
 10
-3135.122398955554
 20
8928.004773345745
 30
0.0
 10
-3135.185345820317
 20
8927.964582928327
 30
0.0
 10
-3135.261147781304
 20
8927.939425412025
 30
0.0
 10
-3135.316638161702
 20
8927.936874591582
 30
0.0
 10
-3135.346440272065
 20
8927.935504627423
 30
0.0
  0
SPLINE
  5
7F
330
1F
100
AcDbEntity
  8
0
  6
Continuous
 62
     7
370
    25
100
AcDbSpline
210
0.0
220
0.0
230
1.0
 70
     8
 71
     3
 72
    15
 73
    11
 74
     0
 42
0.000000001
 43
0.00000001
 40
0.0
 40
0.0
 40
0.0
 40
0.0
 40
0.1470997310271598
 40
0.2781312030835102
 40
0.3954522588949326
 40
0.5075976704010917
 40
0.6156273865318304
 40
0.7316539878715375
 40
0.8581266717202358
 40
1.0
 40
1.0
 40
1.0
 40
1.0
 10
-3135.346440272065
 20
8927.935504627423
 30
0.0
 10
-3135.366183026417
 20
8927.936438495215
 30
0.0
 10
-3135.403511959529
 20
8927.938204220893
 30
0.0
 10
-3135.456044891581
 20
8927.947939583542
 30
0.0
 10
-3135.500946922701
 20
8927.96728492005
 30
0.0
 10
-3135.537285507842
 20
8927.995105810003
 30
0.0
 10
-3135.566100437009
 20
8928.030428300623
 30
0.0
 10
-3135.586104878392
 20
8928.073537539949
 30
0.0
 10
-3135.597473387663
 20
8928.124259853283
 30
0.0
 10
-3135.599007547203
 20
8928.160317697002
 30
0.0
 10
-3135.599818650443
 20
8928.17938131661
 30
0.0
  0
SPLINE
  5
80
330
1F
100
AcDbEntity
  8
0
  6
Continuous
 62
     7
370
    25
100
AcDbSpline
210
0.0
220
0.0
230
1.0
 70
     8
 71
     3
 72
     9
 73
     5
 74
     0
 42
0.000000001
 43
0.00000001
 40
0.0
 40
0.0
 40
0.0
 40
0.0
 40
0.4889243242647754
 40
1.0
 40
1.0
 40
1.0
 40
1.0
 10
-3135.599818650443
 20
8928.17938131661
 30
0.0
 10
-3135.598125719163
 20
8928.199735278211
 30
0.0
 10
-3135.594663156152
 20
8928.24136536407
 30
0.0
 10
-3135.577114860304
 20
8928.279295257289
 30
0.0
 10
-3135.568146353146
 20
8928.2986803031
 30
0.0
  0
SPLINE
  5
83
330
1F
100
AcDbEntity
  8
0
  6
Continuous
 62
     7
370
    25
100
AcDbSpline
210
0.0
220
0.0
230
1.0
 70
     8
 71
     3
 72
     9
 73
     5
 74
     0
 42
0.000000001
 43
0.00000001
 40
0.0
 40
0.0
 40
0.0
 40
0.0
 40
0.5068117066789459
 40
1.0
 40
1.0
 40
1.0
 40
1.0
 10
-3135.568146353146
 20
8932.63884077607
 30
0.0
 10
-3135.577117243844
 20
8932.658226754385
 30
0.0
 10
-3135.594817882128
 20
8932.696477603882
 30
0.0
 10
-3135.598166936187
 20
8932.738480278427
 30
0.0
 10
-3135.599818650443
 20
8932.759195505801
 30
0.0
  0
SPLINE
  5
84
330
1F
100
AcDbEntity
  8
0
  6
Continuous
 62
     7
370
    25
100
AcDbSpline
210
0.0
220
0.0
230
1.0
 70
     8
 71
     3
 72
    15
 73
    11
 74
     0
 42
0.000000001
 43
0.00000001
 40
0.0
 40
0.0
 40
0.0
 40
0.0
 40
0.1418733282799687
 40
0.2683460121284389
 40
0.3843726134683328
 40
0.4924023295988889
 40
0.6045477411051698
 40
0.7218687969164912
 40
0.8529002689728716
 40
1.0
 40
1.0
 40
1.0
 40
1.0
 10
-3135.599818650443
 20
8932.759195505801
 30
0.0
 10
-3135.599007547203
 20
8932.778259125409
 30
0.0
 10
-3135.597473387663
 20
8932.814316969127
 30
0.0
 10
-3135.586104878392
 20
8932.865039282462
 30
0.0
 10
-3135.566100437009
 20
8932.908148521788
 30
0.0
 10
-3135.537285507842
 20
8932.943471012408
 30
0.0
 10
-3135.500946922701
 20
8932.97129190236
 30
0.0
 10
-3135.456044891581
 20
8932.990637238869
 30
0.0
 10
-3135.403511959529
 20
8933.000372601518
 30
0.0
 10
-3135.366183026417
 20
8933.002138327198
 30
0.0
 10
-3135.346440272065
 20
8933.003072194992
 30
0.0
  0
SPLINE
  5
85
330
1F
100
AcDbEntity
  8
0
  6
Continuous
 62
     7
370
    25
100
AcDbSpline
210
0.0
220
0.0
230
1.0
 70
     8
 71
     3
 72
    11
 73
     7
 74
     0
 42
0.000000001
 43
0.00000001
 40
0.0
 40
0.0
 40
0.0
 40
0.0
 40
0.2542831801163841
 40
0.4880420108718449
 40
0.7317194604867145
 40
1.0
 40
1.0
 40
1.0
 40
1.0
 10
-3135.346440272065
 20
8933.003072194992
 30
0.0
 10
-3135.316143927845
 20
8933.001042521993
 30
0.0
 10
-3135.257996594827
 20
8932.997147000122
 30
0.0
 10
-3135.177172586703
 20
8932.960797139158
 30
0.0
 10
-3135.110572839112
 20
8932.900200477703
 30
0.0
 10
-3135.080379168056
 20
8932.847164979396
 30
0.0
 10
-3135.064556826119
 20
8932.819372870666
 30
0.0
  0
SPLINE
  5
87
330
1F
100
AcDbEntity
  8
0
  6
Continuous
 62
     7
370
    25
100
AcDbSpline
210
0.0
220
0.0
230
1.0
 70
     8
 71
     3
 72
    15
 73
    11
 74
     0
 42
0.000000001
 43
0.00000001
 40
0.0
 40
0.0
 40
0.0
 40
0.0
 40
0.1210437057284028
 40
0.2311608615820484
 40
0.3345582471447717
 40
0.4404078971911067
 40
0.5564076305371795
 40
0.6855748386379746
 40
0.8323618927655686
 40
1.0
 40
1.0
 40
1.0
 40
1.0
 10
-3128.226296690984
 20
8928.178325573368
 30
0.0
 10
-3128.227204159115
 20
8928.159203423373
 30
0.0
 10
-3128.228937178717
 20
8928.122685269525
 30
0.0
 10
-3128.244938586829
 20
8928.071713451936
 30
0.0
 10
-3128.272312572274
 20
8928.02871288309
 30
0.0
 10
-3128.311030199386
 20
8927.994331797763
 30
0.0
 10
-3128.359308680784
 20
8927.966491439242
 30
0.0
 10
-3128.418694797692
 20
8927.947920294406
 30
0.0
 10
-3128.488144865781
 20
8927.938127256819
 30
0.0
 10
-3128.537709028039
 20
8927.936416650089
 30
0.0
 10
-3128.564134528822
 20
8927.935504627423
 30
0.0
  0
SPLINE
  5
88
330
1F
100
AcDbEntity
  8
0
  6
Continuous
 62
     7
370
    25
100
AcDbSpline
210
0.0
220
0.0
230
1.0
 70
     8
 71
     3
 72
    15
 73
    11
 74
     0
 42
0.000000001
 43
0.00000001
 40
0.0
 40
0.0
 40
0.0
 40
0.0
 40
0.1526075283706485
 40
0.2869925149659744
 40
0.4076393594010952
 40
0.5203370983718408
 40
0.6282469165429226
 40
0.7394778111328629
 40
0.8625819660822259
 40
1.0
 40
1.0
 40
1.0
 40
1.0
 10
-3128.564134528822
 20
8927.935504627423
 30
0.0
 10
-3128.585288415048
 20
8927.936417891284
 30
0.0
 10
-3128.625070246745
 20
8927.938135368102
 30
0.0
 10
-3128.680987638245
 20
8927.948025405356
 30
0.0
 10
-3128.728863135145
 20
8927.966950594453
 30
0.0
 10
-3128.767451395233
 20
8927.995064696344
 30
0.0
 10
-3128.798314323404
 20
8928.029772728616
 30
0.0
 10
-3128.819792199416
 20
8928.072629272347
 30
0.0
 10
-3128.832319595682
 20
8928.123074801175
 30
0.0
 10
-3128.833684729754
 20
8928.159246193973
 30
0.0
 10
-3128.834404799092
 20
8928.178325573368
 30
0.0
  0
SPLINE
  5
8B
330
1F
100
AcDbEntity
  8
0
  6
Continuous
 62
     7
370
    25
100
AcDbSpline
210
0.0
220
0.0
230
1.0
 70
     8
 71
     3
 72
    11
 73
     7
 74
     0
 42
0.000000001
 43
0.00000001
 40
0.0
 40
0.0
 40
0.0
 40
0.0
 40
0.2516368596471829
 40
0.4870032659251097
 40
0.7307233482108769
 40
1.0
 40
1.0
 40
1.0
 40
1.0
 10
-3129.690612569362
 20
8930.335209019313
 30
0.0
 10
-3129.705213560938
 20
8930.313288578605
 30
0.0
 10
-3129.733471466369
 20
8930.270865039261
 30
0.0
 10
-3129.796695749477
 20
8930.226725987872
 30
0.0
 10
-3129.86966357025
 20
8930.197080749023
 30
0.0
 10
-3129.923252063114
 20
8930.19488958608
 30
0.0
 10
-3129.951381150443
 20
8930.19373942472
 30
0.0
  0
SPLINE
  5
8C
330
1F
100
AcDbEntity
  8
0
  6
Continuous
 62
     7
370
    25
100
AcDbSpline
210
0.0
220
0.0
230
1.0
 70
     8
 71
     3
 72
    11
 73
     7
 74
     0
 42
0.000000001
 43
0.00000001
 40
0.0
 40
0.0
 40
0.0
 40
0.0
 40
0.1881087695287423
 40
0.4007936744046057
 40
0.6678239016034282
 40
1.0
 40
1.0
 40
1.0
 40
1.0
 10
-3129.951381150443
 20
8930.19373942472
 30
0.0
 10
-3129.97175528275
 20
8930.196647044897
 30
0.0
 10
-3130.015165397921
 20
8930.202842161572
 30
0.0
 10
-3130.072363333717
 20
8930.250999575495
 30
0.0
 10
-3130.122034031658
 20
8930.322955101014
 30
0.0
 10
-3130.148766260434
 20
8930.38177973219
 30
0.0
 10
-3130.163585542336
 20
8930.414389762556
 30
0.0
  0
SPLINE
  5
8F
330
1F
100
AcDbEntity
  8
0
  6
Continuous
 62
     7
370
    25
100
AcDbSpline
210
0.0
220
0.0
230
1.0
 70
     8
 71
     3
 72
    15
 73
    11
 74
     0
 42
0.000000001
 43
0.00000001
 40
0.0
 40
0.0
 40
0.0
 40
0.0
 40
0.1210437057284104
 40
0.231160861582059
 40
0.3345582471447597
 40
0.4404078971910977
 40
0.5564076305372144
 40
0.685574838638013
 40
0.832361892765611
 40
1.0
 40
1.0
 40
1.0
 40
1.0
 10
-3130.996566961254
 20
8928.178325573368
 30
0.0
 10
-3130.997474429385
 20
8928.159203423373
 30
0.0
 10
-3130.999207448987
 20
8928.122685269525
 30
0.0
 10
-3131.015208857099
 20
8928.071713451936
 30
0.0
 10
-3131.042582842544
 20
8928.02871288309
 30
0.0
 10
-3131.081300469657
 20
8927.994331797763
 30
0.0
 10
-3131.129578951054
 20
8927.966491439242
 30
0.0
 10
-3131.188965067963
 20
8927.947920294406
 30
0.0
 10
-3131.258415136051
 20
8927.938127256817
 30
0.0
 10
-3131.307979298309
 20
8927.936416650089
 30
0.0
 10
-3131.334404799092
 20
8927.935504627423
 30
0.0
  0
SPLINE
  5
90
330
1F
100
AcDbEntity
  8
0
  6
Continuous
 62
     7
370
    25
100
AcDbSpline
210
0.0
220
0.0
230
1.0
 70
     8
 71
     3
 72
    15
 73
    11
 74
     0
 42
0.000000001
 43
0.00000001
 40
0.0
 40
0.0
 40
0.0
 40
0.0
 40
0.1526075283706958
 40
0.2869925149660164
 40
0.4076393594010831
 40
0.5203370983718242
 40
0.628246916542937
 40
0.7394778111328729
 40
0.8625819660822313
 40
1.0
 40
1.0
 40
1.0
 40
1.0
 10
-3131.334404799092
 20
8927.935504627423
 30
0.0
 10
-3131.355558685318
 20
8927.936417891284
 30
0.0
 10
-3131.395340517015
 20
8927.938135368102
 30
0.0
 10
-3131.451257908515
 20
8927.948025405356
 30
0.0
 10
-3131.499133405416
 20
8927.966950594453
 30
0.0
 10
-3131.537721665504
 20
8927.995064696344
 30
0.0
 10
-3131.568584593674
 20
8928.029772728616
 30
0.0
 10
-3131.590062469686
 20
8928.072629272347
 30
0.0
 10
-3131.602589865953
 20
8928.123074801175
 30
0.0
 10
-3131.603955000024
 20
8928.159246193973
 30
0.0
 10
-3131.604675069363
 20
8928.178325573368
 30
0.0
  0
SPLINE
  5
92
330
1F
100
AcDbEntity
  8
0
  6
Continuous
 62
     7
370
    25
100
AcDbSpline
210
0.0
220
0.0
230
1.0
 70
     8
 71
     3
 72
    15
 73
    11
 74
     0
 42
0.000000001
 43
0.00000001
 40
0.0
 40
0.0
 40
0.0
 40
0.0
 40
0.1463969612499663
 40
0.276320500828207
 40
0.3952399998509945
 40
0.5062723465334875
 40
0.6153932164829955
 40
0.7308481721936291
 40
0.8560321007862678
 40
1.0
 40
1.0
 40
1.0
 40
1.0
 10
-3131.604675069363
 20
8932.731746181476
 30
0.0
 10
-3131.604029305915
 20
8932.752958234407
 30
0.0
 10
-3131.60281044401
 20
8932.792995438998
 30
0.0
 10
-3131.589419708475
 20
8932.848777630657
 30
0.0
 10
-3131.570522868076
 20
8932.897758179077
 30
0.0
 10
-3131.539570640486
 20
8932.936553648857
 30
0.0
 10
-3131.501545622792
 20
8932.967354988992
 30
0.0
 10
-3131.454983864528
 20
8932.988186740873
 30
0.0
 10
-3131.400563121453
 20
8933.001186238711
 30
0.0
 10
-3131.361587248375
 20
8933.002414958974
 30
0.0
 10
-3131.340739258551
 20
8933.003072194992
 30
0.0
  0
SPLINE
  5
93
330
1F
100
AcDbEntity
  8
0
  6
Continuous
 62
     7
370
    25
100
AcDbSpline
210
0.0
220
0.0
230
1.0
 70
     8
 71
     3
 72
    11
 73
     7
 74
     0
 42
0.000000001
 43
0.00000001
 40
0.0
 40
0.0
 40
0.0
 40
0.0
 40
0.2501973168891843
 40
0.4922106594254818
 40
0.7370311125846484
 40
1.0
 40
1.0
 40
1.0
 40
1.0
 10
-3131.340739258551
 20
8933.003072194992
 30
0.0
 10
-3131.307700045747
 20
8933.001248383684
 30
0.0
 10
-3131.242702335446
 20
8932.997660418087
 30
0.0
 10
-3131.150785396585
 20
8932.962813246035
 30
0.0
 10
-3131.067755209063
 20
8932.907672828938
 30
0.0
 10
-3131.02363728529
 20
8932.85715020154
 30
0.0
 10
-3131.000789934227
 20
8932.830986046341
 30
0.0
  0
SPLINE
  5
96
330
1F
100
AcDbEntity
  8
0
  6
Continuous
 62
     7
370
    25
100
AcDbSpline
210
0.0
220
0.0
230
1.0
 70
     8
 71
     3
 72
    11
 73
     7
 74
     0
 42
0.000000001
 43
0.00000001
 40
0.0
 40
0.0
 40
0.0
 40
0.0
 40
0.2757923378403405
 40
0.5246605758498536
 40
0.7599072587123458
 40
1.0
 40
1.0
 40
1.0
 40
1.0
 10
-3128.824903109903
 20
8932.859491113908
 30
0.0
 10
-3128.806146295004
 20
8932.881644944024
 30
0.0
 10
-3128.770463790611
 20
8932.923789846802
 30
0.0
 10
-3128.703836908381
 20
8932.968493705392
 30
0.0
 10
-3128.633199340443
 20
8932.999107371483
 30
0.0
 10
-3128.583103401474
 20
8933.001741635097
 30
0.0
 10
-3128.557800069363
 20
8933.003072194992
 30
0.0
  0
SPLINE
  5
97
330
1F
100
AcDbEntity
  8
0
  6
Continuous
 62
     7
370
    25
100
AcDbSpline
210
0.0
220
0.0
230
1.0
 70
     8
 71
     3
 72
    15
 73
    11
 74
     0
 42
0.000000001
 43
0.00000001
 40
0.0
 40
0.0
 40
0.0
 40
0.0
 40
0.1598288012744358
 40
0.2981437540206715
 40
0.4223367313964719
 40
0.5366418418244924
 40
0.6434366182474635
 40
0.7534283282819701
 40
0.8701494530134923
 40
1.0
 40
1.0
 40
1.0
 40
1.0
 10
-3128.557800069363
 20
8933.003072194992
 30
0.0
 10
-3128.531697864481
 20
8933.002402457849
 30
0.0
 10
-3128.483006957153
 20
8933.001153133924
 30
0.0
 10
-3128.414928867814
 20
8932.98847137477
 30
0.0
 10
-3128.356829751479
 20
8932.967503197005
 30
0.0
 10
-3128.308117851222
 20
8932.93821100213
 30
0.0
 10
-3128.270297259913
 20
8932.898529933722
 30
0.0
 10
-3128.245430374508
 20
8932.849587917455
 30
0.0
 10
-3128.228729621606
 20
8932.793346753422
 30
0.0
 10
-3128.227135954333
 20
8932.752995904699
 30
0.0
 10
-3128.226296690984
 20
8932.731746181476
 30
0.0
  0
SPLINE
  5
9B
330
1F
100
AcDbEntity
  8
0
  6
Continuous
 62
     7
370
    25
100
AcDbSpline
210
0.0
220
0.0
230
1.0
 70
     8
 71
     3
 72
    15
 73
    11
 74
     0
 42
0.000000001
 43
0.00000001
 40
0.0
 40
0.0
 40
0.0
 40
0.0
 40
0.1548790377790551
 40
0.2919933978856838
 40
0.4126674844479132
 40
0.525781060582271
 40
0.6337152448525596
 40
0.7449712554428168
 40
0.8650822696619751
 40
1.0
 40
1.0
 40
1.0
 40
1.0
 10
-3125.214050069363
 20
8928.476045167961
 30
0.0
 10
-3125.189714233841
 20
8928.475324174286
 30
0.0
 10
-3125.143833891308
 20
8928.47396488515
 30
0.0
 10
-3125.079802137604
 20
8928.46169590248
 30
0.0
 10
-3125.025343174965
 20
8928.440223275948
 30
0.0
 10
-3124.979771292296
 20
8928.410854802676
 30
0.0
 10
-3124.944929534185
 20
8928.371203607983
 30
0.0
 10
-3124.920010192258
 20
8928.323509159605
 30
0.0
 10
-3124.906832387526
 20
8928.266984443635
 30
0.0
 10
-3124.904758633116
 20
8928.226952811958
 30
0.0
 10
-3124.903661555849
 20
8928.205774897691
 30
0.0
  0
SPLINE
  5
9C
330
1F
100
AcDbEntity
  8
0
  6
Continuous
 62
     7
370
    25
100
AcDbSpline
210
0.0
220
0.0
230
1.0
 70
     8
 71
     3
 72
    15
 73
    11
 74
     0
 42
0.000000001
 43
0.00000001
 40
0.0
 40
0.0
 40
0.0
 40
0.0
 40
0.1349177303378494
 40
0.2550287445570185
 40
0.366284755147453
 40
0.4742189394177513
 40
0.5873325155521194
 40
0.7080066021142897
 40
0.8451209622209308
 40
0.9999999999999999
 40
0.9999999999999999
 40
0.9999999999999999
 40
0.9999999999999999
 10
-3124.903661555849
 20
8928.205774897691
 30
0.0
 10
-3124.904758633116
 20
8928.184596983427
 30
0.0
 10
-3124.906832387526
 20
8928.14456535175
 30
0.0
 10
-3124.920010192258
 20
8928.088040635777
 30
0.0
 10
-3124.944929534185
 20
8928.0403461874
 30
0.0
 10
-3124.979771292296
 20
8928.000694992708
 30
0.0
 10
-3125.025343174965
 20
8927.971326519439
 30
0.0
 10
-3125.079802137604
 20
8927.949853892906
 30
0.0
 10
-3125.143833891308
 20
8927.937584910234
 30
0.0
 10
-3125.189714233841
 20
8927.936225621099
 30
0.0
 10
-3125.214050069363
 20
8927.935504627423
 30
0.0
  0
SPLINE
  5
9E
330
1F
100
AcDbEntity
  8
0
  6
Continuous
 62
     7
370
    25
100
AcDbSpline
210
0.0
220
0.0
230
1.0
 70
     8
 71
     3
 72
    15
 73
    11
 74
     0
 42
0.000000001
 43
0.00000001
 40
0.0
 40
0.0
 40
0.0
 40
0.0
 40
0.1528612850162814
 40
0.2874697277135361
 40
0.4083171843914666
 40
0.5197330343306807
 40
0.6278222855464974
 40
0.7415060099344818
 40
0.8623534666123673
 40
1.0
 40
1.0
 40
1.0
 40
1.0
 10
-3126.989810204497
 20
8927.935504627423
 30
0.0
 10
-3127.010958314675
 20
8927.936426334281
 30
0.0
 10
-3127.050729283979
 20
8927.938159688933
 30
0.0
 10
-3127.10671829233
 20
8927.947945042017
 30
0.0
 10
-3127.154170315114
 20
8927.96713459487
 30
0.0
 10
-3127.193406852314
 20
8927.993925187062
 30
0.0
 10
-3127.224291225569
 20
8928.028959724628
 30
0.0
 10
-3127.245000559224
 20
8928.072102965185
 30
0.0
 10
-3127.258183018115
 20
8928.12230862894
 30
0.0
 10
-3127.259421167489
 20
8928.158172519028
 30
0.0
 10
-3127.260080474768
 20
8928.177269830125
 30
0.0
  0
SPLINE
  5
A0
330
1F
100
AcDbEntity
  8
0
  6
Continuous
 62
     7
370
    25
100
AcDbSpline
210
0.0
220
0.0
230
1.0
 70
     8
 71
     3
 72
    15
 73
    11
 74
     0
 42
0.000000001
 43
0.00000001
 40
0.0
 40
0.0
 40
0.0
 40
0.0
 40
0.1376465333874396
 40
0.2584939900653427
 40
0.3721777144533437
 40
0.4802669656691762
 40
0.5916828156085285
 40
0.7125302722863956
 40
0.8471387149837104
 40
1.0
 40
1.0
 40
1.0
 40
1.0
 10
-3127.260080474768
 20
8932.69373942472
 30
0.0
 10
-3127.259421167489
 20
8932.712836735815
 30
0.0
 10
-3127.258183018115
 20
8932.748700625905
 30
0.0
 10
-3127.245000559224
 20
8932.79890628966
 30
0.0
 10
-3127.224291225569
 20
8932.842049530216
 30
0.0
 10
-3127.193406852314
 20
8932.87708406778
 30
0.0
 10
-3127.154170315114
 20
8932.903874659976
 30
0.0
 10
-3127.10671829233
 20
8932.923064212828
 30
0.0
 10
-3127.050729283979
 20
8932.93284956591
 30
0.0
 10
-3127.010958314675
 20
8932.934582920565
 30
0.0
 10
-3126.989810204497
 20
8932.935504627421
 30
0.0
  0
SPLINE
  5
A2
330
1F
100
AcDbEntity
  8
0
  6
Continuous
 62
     7
370
    25
100
AcDbSpline
210
0.0
220
0.0
230
1.0
 70
     8
 71
     3
 72
    15
 73
    11
 74
     0
 42
0.000000001
 43
0.00000001
 40
0.0
 40
0.0
 40
0.0
 40
0.0
 40
0.1548790377790542
 40
0.2919933978857288
 40
0.4126674844478959
 40
0.525781060582261
 40
0.6337152448525566
 40
0.7449712554429881
 40
0.8650822696621541
 40
1.0
 40
1.0
 40
1.0
 40
1.0
 10
-3125.214050069363
 20
8932.935504627421
 30
0.0
 10
-3125.189714233841
 20
8932.934783633746
 30
0.0
 10
-3125.143833891308
 20
8932.93342434461
 30
0.0
 10
-3125.079802137604
 20
8932.921155361939
 30
0.0
 10
-3125.025343174965
 20
8932.899682735406
 30
0.0
 10
-3124.979771292296
 20
8932.870314262138
 30
0.0
 10
-3124.944929534185
 20
8932.830663067443
 30
0.0
 10
-3124.920010192258
 20
8932.782968619065
 30
0.0
 10
-3124.906832387526
 20
8932.726443903095
 30
0.0
 10
-3124.904758633116
 20
8932.686412271418
 30
0.0
 10
-3124.903661555849
 20
8932.665234357151
 30
0.0
  0
SPLINE
  5
A3
330
1F
100
AcDbEntity
  8
0
  6
Continuous
 62
     7
370
    25
100
AcDbSpline
210
0.0
220
0.0
230
1.0
 70
     8
 71
     3
 72
    15
 73
    11
 74
     0
 42
0.000000001
 43
0.00000001
 40
0.0
 40
0.0
 40
0.0
 40
0.0
 40
0.1349177303378414
 40
0.2550287445570034
 40
0.3662847551474314
 40
0.4742189394177233
 40
0.5873325155520847
 40
0.7080066021143179
 40
0.8451209622209509
 40
1.0
 40
1.0
 40
1.0
 40
1.0
 10
-3124.903661555849
 20
8932.665234357151
 30
0.0
 10
-3124.904758633116
 20
8932.644056442885
 30
0.0
 10
-3124.906832387526
 20
8932.604024811211
 30
0.0
 10
-3124.920010192258
 20
8932.547500095237
 30
0.0
 10
-3124.944929534185
 20
8932.49980564686
 30
0.0
 10
-3124.979771292296
 20
8932.460154452165
 30
0.0
 10
-3125.025343174965
 20
8932.430785978899
 30
0.0
 10
-3125.079802137604
 20
8932.409313352364
 30
0.0
 10
-3125.143833891308
 20
8932.397044369694
 30
0.0
 10
-3125.189714233841
 20
8932.395685080557
 30
0.0
 10
-3125.214050069363
 20
8932.394964086881
 30
0.0
  0
SPLINE
  5
A7
330
1F
100
AcDbEntity
  8
0
  6
Continuous
 62
     7
370
    25
100
AcDbSpline
210
0.0
220
0.0
230
1.0
 70
     8
 71
     3
 72
    15
 73
    11
 74
     0
 42
0.000000001
 43
0.00000001
 40
0.0
 40
0.0
 40
0.0
 40
0.0
 40
0.1548790377790691
 40
0.2919933978857103
 40
0.4126674844478805
 40
0.5257810605822486
 40
0.6337152448525469
 40
0.7449712554429815
 40
0.8650822696621505
 40
0.9999999999999999
 40
0.9999999999999999
 40
0.9999999999999999
 40
0.9999999999999999
 10
-3125.912952096389
 20
8930.908477600395
 30
0.0
 10
-3125.888616260868
 20
8930.907756606719
 30
0.0
 10
-3125.842735918335
 20
8930.906397317583
 30
0.0
 10
-3125.778704164631
 20
8930.894128334912
 30
0.0
 10
-3125.724245201992
 20
8930.87265570838
 30
0.0
 10
-3125.678673319323
 20
8930.84328723511
 30
0.0
 10
-3125.643831561212
 20
8930.803636040417
 30
0.0
 10
-3125.618912219285
 20
8930.755941592037
 30
0.0
 10
-3125.605734414553
 20
8930.699416876067
 30
0.0
 10
-3125.603660660143
 20
8930.65938524439
 30
0.0
 10
-3125.602563582876
 20
8930.638207330125
 30
0.0
  0
SPLINE
  5
A8
330
1F
100
AcDbEntity
  8
0
  6
Continuous
 62
     7
370
    25
100
AcDbSpline
210
0.0
220
0.0
230
1.0
 70
     8
 71
     3
 72
    15
 73
    11
 74
     0
 42
0.000000001
 43
0.00000001
 40
0.0
 40
0.0
 40
0.0
 40
0.0
 40
0.1349177303380265
 40
0.255028744557186
 40
0.3662847551474446
 40
0.4742189394177342
 40
0.5873325155520933
 40
0.708006602114324
 40
0.8451209622209541
 40
1.0
 40
1.0
 40
1.0
 40
1.0
 10
-3125.602563582876
 20
8930.638207330125
 30
0.0
 10
-3125.603660660143
 20
8930.61702941586
 30
0.0
 10
-3125.605734414553
 20
8930.576997784183
 30
0.0
 10
-3125.618912219285
 20
8930.520473068213
 30
0.0
 10
-3125.643831561212
 20
8930.472778619833
 30
0.0
 10
-3125.678673319323
 20
8930.43312742514
 30
0.0
 10
-3125.724245201992
 20
8930.40375895187
 30
0.0
 10
-3125.778704164631
 20
8930.382286325337
 30
0.0
 10
-3125.842735918335
 20
8930.370017342666
 30
0.0
 10
-3125.888616260868
 20
8930.368658053529
 30
0.0
 10
-3125.912952096389
 20
8930.367937059855
 30
0.0
  0
SPLINE
  5
AA
330
1F
100
AcDbEntity
  8
0
  6
Continuous
 62
     7
370
    25
100
AcDbSpline
210
0.0
220
0.0
230
1.0
 70
     8
 71
     3
 72
    15
 73
    11
 74
     0
 42
0.000000001
 43
0.00000001
 40
0.0
 40
0.0
 40
0.0
 40
0.0
 40
0.1212059526125878
 40
0.2293436564904134
 40
0.3347681309253275
 40
0.4407596617559082
 40
0.5558130396878618
 40
0.6851533834087795
 40
0.8321371907837035
 40
1.0
 40
1.0
 40
1.0
 40
1.0
 10
-3120.956026420714
 20
8928.177269830125
 30
0.0
 10
-3120.956864654412
 20
8928.158121898055
 30
0.0
 10
-3120.958450744676
 20
8928.121890535976
 30
0.0
 10
-3120.97521112065
 20
8928.07127075916
 30
0.0
 10
-3121.001681427165
 20
8928.027824634299
 30
0.0
 10
-3121.04052631057
 20
8927.993151115907
 30
0.0
 10
-3121.089371561444
 20
8927.966750691146
 30
0.0
 10
-3121.148371083239
 20
8927.94782030174
 30
0.0
 10
-3121.217891001452
 20
8927.938157951905
 30
0.0
 10
-3121.267444462956
 20
8927.936427324346
 30
0.0
 10
-3121.293864258551
 20
8927.935504627423
 30
0.0
  0
SPLINE
  5
AB
330
1F
100
AcDbEntity
  8
0
  6
Continuous
 62
     7
370
    25
100
AcDbSpline
210
0.0
220
0.0
230
1.0
 70
     8
 71
     3
 72
    15
 73
    11
 74
     0
 42
0.000000001
 43
0.00000001
 40
0.0
 40
0.0
 40
0.0
 40
0.0
 40
0.1538927873091809
 40
0.2894095627950226
 40
0.4110724936372652
 40
0.5232401736076439
 40
0.6301460973348867
 40
0.7423137773053291
 40
0.8639767081475401
 40
1.0
 40
1.0
 40
1.0
 40
1.0
 10
-3121.293864258551
 20
8927.935504627423
 30
0.0
 10
-3121.315013813961
 20
8927.936424938001
 30
0.0
 10
-3121.354787501158
 20
8927.938155666825
 30
0.0
 10
-3121.410758590167
 20
8927.947958332274
 30
0.0
 10
-3121.458268787696
 20
8927.96709168091
 30
0.0
 10
-3121.497092826408
 20
8927.993919646617
 30
0.0
 10
-3121.528344059917
 20
8928.02777514321
 30
0.0
 10
-3121.549258044538
 20
8928.07026037295
 30
0.0
 10
-3121.562111822838
 20
8928.11986511018
 30
0.0
 10
-3121.563435701091
 20
8928.155364008391
 30
0.0
 10
-3121.564134528822
 20
8928.174102600395
 30
0.0
  0
SPLINE
  5
AF
330
1F
100
AcDbEntity
  8
0
  6
Continuous
 62
     7
370
    25
100
AcDbSpline
210
0.0
220
0.0
230
1.0
 70
     8
 71
     3
 72
    11
 73
     7
 74
     0
 42
0.000000001
 43
0.00000001
 40
0.0
 40
0.0
 40
0.0
 40
0.0
 40
0.2301959670042955
 40
0.4560600787794431
 40
0.7031878330326338
 40
1.0
 40
1.0
 40
1.0
 40
1.0
 10
-3123.472918312606
 20
8928.105479289585
 30
0.0
 10
-3123.483719122231
 20
8928.079605139968
 30
0.0
 10
-3123.505117490556
 20
8928.028343743581
 30
0.0
 10
-3123.572028428373
 20
8927.97182100002
 30
0.0
 10
-3123.660645400018
 20
8927.939950398872
 30
0.0
 10
-3123.72634280273
 20
8927.937074125823
 30
0.0
 10
-3123.762191961254
 20
8927.935504627423
 30
0.0
  0
SPLINE
  5
B0
330
1F
100
AcDbEntity
  8
0
  6
Continuous
 62
     7
370
    25
100
AcDbSpline
210
0.0
220
0.0
230
1.0
 70
     8
 71
     3
 72
    15
 73
    11
 74
     0
 42
0.000000001
 43
0.00000001
 40
0.0
 40
0.0
 40
0.0
 40
0.0
 40
0.1490635051903498
 40
0.2818442409441403
 40
0.4007315270714978
 40
0.5112289549475914
 40
0.620700862467039
 40
0.7358837692991677
 40
0.8588803628871032
 40
1.0
 40
1.0
 40
1.0
 40
1.0
 10
-3123.762191961254
 20
8927.935504627423
 30
0.0
 10
-3123.781922519646
 20
8927.936454809524
 30
0.0
 10
-3123.819228393048
 20
8927.93825138175
 30
0.0
 10
-3123.871914514525
 20
8927.947781825738
 30
0.0
 10
-3123.915931272561
 20
8927.967627700475
 30
0.0
 10
-3123.953702895479
 20
8927.992800801982
 30
0.0
 10
-3123.981452194527
 20
8928.028260926269
 30
0.0
 10
-3124.001736274836
 20
8928.069953141588
 30
0.0
 10
-3124.013338242077
 20
8928.119308042504
 30
0.0
 10
-3124.014793032336
 20
8928.154332812754
 30
0.0
 10
-3124.015570339633
 20
8928.173046857151
 30
0.0
  0
SPLINE
  5
B1
330
1F
100
AcDbEntity
  8
0
  6
Continuous
 62
     7
370
    25
100
AcDbSpline
210
0.0
220
0.0
230
1.0
 70
     8
 71
     3
 72
     9
 73
     5
 74
     0
 42
0.000000001
 43
0.00000001
 40
0.0
 40
0.0
 40
0.0
 40
0.0
 40
0.4957413518333787
 40
1.0
 40
1.0
 40
1.0
 40
1.0
 10
-3124.015570339633
 20
8928.173046857151
 30
0.0
 10
-3124.014499812103
 20
8928.186122205023
 30
0.0
 10
-3124.012340364388
 20
8928.21249754737
 30
0.0
 10
-3124.006065550089
 20
8928.238207427668
 30
0.0
 10
-3124.002901420713
 20
8928.251171857151
 30
0.0
  0
SPLINE
  5
B3
330
1F
100
AcDbEntity
  8
0
  6
Continuous
 62
     7
370
    25
100
AcDbSpline
210
0.0
220
0.0
230
1.0
 70
     8
 71
     3
 72
    11
 73
     7
 74
     0
 42
0.000000001
 43
0.00000001
 40
0.0
 40
0.0
 40
0.0
 40
0.0
 40
0.2624685167006015
 40
0.4999991169493547
 40
0.7366564399761206
 40
1.0
 40
1.0
 40
1.0
 40
1.0
 10
-3122.600874393687
 20
8932.76552996526
 30
0.0
 10
-3122.590838053874
 20
8932.791048383151
 30
0.0
 10
-3122.571718956822
 20
8932.839660637954
 30
0.0
 10
-3122.518258241003
 20
8932.897096015402
 30
0.0
 10
-3122.447156878286
 20
8932.930492085145
 30
0.0
 10
-3122.395016666444
 20
8932.933775367794
 30
0.0
 10
-3122.36755513693
 20
8932.935504627421
 30
0.0
  0
SPLINE
  5
B5
330
1F
100
AcDbEntity
  8
0
  6
Continuous
 62
     7
370
    25
100
AcDbSpline
210
0.0
220
0.0
230
1.0
 70
     8
 71
     3
 72
    15
 73
    11
 74
     0
 42
0.000000001
 43
0.00000001
 40
0.0
 40
0.0
 40
0.0
 40
0.0
 40
0.1678628092163093
 40
0.3148466165912817
 40
0.4441869603121587
 40
0.559240338244219
 40
0.6652318690748142
 40
0.7706563435097427
 40
0.8787940473875828
 40
1.0
 40
1.0
 40
1.0
 40
1.0
 10
-3121.293864258551
 20
8932.935504627421
 30
0.0
 10
-3121.267444462956
 20
8932.9345819305
 30
0.0
 10
-3121.217891001452
 20
8932.932851302936
 30
0.0
 10
-3121.148371083239
 20
8932.923188953102
 30
0.0
 10
-3121.089371561444
 20
8932.904258563698
 30
0.0
 10
-3121.04052631057
 20
8932.877858138938
 30
0.0
 10
-3121.001681427165
 20
8932.843184620544
 30
0.0
 10
-3120.97521112065
 20
8932.799738495683
 30
0.0
 10
-3120.958450744676
 20
8932.749118718864
 30
0.0
 10
-3120.956864654412
 20
8932.712887356789
 30
0.0
 10
-3120.956026420714
 20
8932.69373942472
 30
0.0
  0
SPLINE
  5
B7
330
1F
100
AcDbEntity
  8
0
  6
Continuous
 62
     7
370
    25
100
AcDbSpline
210
0.0
220
0.0
230
1.0
 70
     8
 71
     3
 72
    15
 73
    11
 74
     0
 42
0.000000001
 43
0.00000001
 40
0.0
 40
0.0
 40
0.0
 40
0.0
 40
0.1257421127824277
 40
0.2483729038226337
 40
0.3698227131065371
 40
0.4987247648983887
 40
0.626915923670508
 40
0.7508402192895078
 40
0.873155525402734
 40
0.9999999999999999
 40
0.9999999999999999
 40
0.9999999999999999
 40
0.9999999999999999
 10
-3117.895215609903
 20
8929.761940438231
 30
0.0
 10
-3117.897469488631
 20
8929.80194456458
 30
0.0
 10
-3117.901921476849
 20
8929.880962968251
 30
0.0
 10
-3117.936735264454
 20
8929.994475496194
 30
0.0
 10
-3117.994645649629
 20
8930.098728488849
 30
0.0
 10
-3118.07319783939
 20
8930.190748024956
 30
0.0
 10
-3118.166426391924
 20
8930.268865564021
 30
0.0
 10
-3118.270902027828
 20
8930.327510596817
 30
0.0
 10
-3118.385893551324
 20
8930.361018841955
 30
0.0
 10
-3118.465108006134
 20
8930.365603209366
 30
0.0
 10
-3118.505435204498
 20
8930.367937059855
 30
0.0
  0
SPLINE
  5
BB
330
1F
100
AcDbEntity
  8
0
  6
Continuous
 62
     7
370
    25
100
AcDbSpline
210
0.0
220
0.0
230
1.0
 70
     8
 71
     3
 72
    15
 73
    11
 74
     0
 42
0.000000001
 43
0.00000001
 40
0.0
 40
0.0
 40
0.0
 40
0.0
 40
0.1274086638640686
 40
0.2492093999587938
 40
0.3720839042325382
 40
0.4997357737771739
 40
0.6273876433217918
 40
0.7507906000412348
 40
0.8725913361359247
 40
1.0
 40
1.0
 40
1.0
 40
1.0
 10
-3118.505435204498
 20
8928.476045167961
 30
0.0
 10
-3118.464740491203
 20
8928.478326698554
 30
0.0
 10
-3118.385142253734
 20
8928.482789337537
 30
0.0
 10
-3118.270145682647
 20
8928.516691667368
 30
0.0
 10
-3118.165134832063
 20
8928.573904924422
 30
0.0
 10
-3118.072096361594
 20
8928.651909373859
 30
0.0
 10
-3117.994328690637
 20
8928.74519105662
 30
0.0
 10
-3117.935632580957
 20
8928.849607966977
 30
0.0
 10
-3117.902032542884
 20
8928.964954904919
 30
0.0
 10
-3117.897521756119
 20
8929.044527444235
 30
0.0
 10
-3117.895215609903
 20
8929.085209019315
 30
0.0
  0
SPLINE
  5
BD
330
1F
100
AcDbEntity
  8
0
  6
Continuous
 62
     7
370
    25
100
AcDbSpline
210
0.0
220
0.0
230
1.0
 70
     8
 71
     3
 72
    23
 73
    19
 74
     0
 42
0.000000001
 43
0.00000001
 40
0.0
 40
0.0
 40
0.0
 40
0.0
 40
0.0602270928971048
 40
0.1192957320091908
 40
0.1779404947570684
 40
0.2364844162257912
 40
0.2954167439820681
 40
0.3556629103136801
 40
0.4181241147893666
 40
0.4821809927853116
 40
0.5466999757700495
 40
0.6101828950384229
 40
0.6730761809147078
 40
0.7353821562772263
 40
0.7989787332068709
 40
0.8641683702521883
 40
0.9306148387332193
 40
1.0
 40
1.0
 40
1.0
 40
1.0
 10
-3117.287107501795
 20
8929.068317127421
 30
0.0
 10
-3117.288132166406
 20
8929.031317468294
 30
0.0
 10
-3117.290161786447
 20
8928.958029829668
 30
0.0
 10
-3117.306091529817
 20
8928.84956865915
 30
0.0
 10
-3117.334315897398
 20
8928.744916300186
 30
0.0
 10
-3117.370557924286
 20
8928.64276497567
 30
0.0
 10
-3117.420194096614
 20
8928.545277427636
 30
0.0
 10
-3117.47939967063
 20
8928.450514400269
 30
0.0
 10
-3117.550572727973
 20
8928.360331462098
 30
0.0
 10
-3117.630056590664
 20
8928.273802978896
 30
0.0
 10
-3117.718484070959
 20
8928.19548786675
 30
0.0
 10
-3117.812252464253
 20
8928.124737066628
 30
0.0
 10
-3117.913106528654
 20
8928.067087376628
 30
0.0
 10
-3118.018793094681
 20
8928.019085587526
 30
0.0
 10
-3118.12989854336
 20
8927.980453811042
 30
0.0
 10
-3118.24725516279
 20
8927.954892832968
 30
0.0
 10
-3118.369825155955
 20
8927.938300800752
 30
0.0
 10
-3118.453295440677
 20
8927.936450032214
 30
0.0
 10
-3118.495933515308
 20
8927.935504627423
 30
0.0
  0
SPLINE
  5
BF
330
1F
100
AcDbEntity
  8
0
  6
Continuous
 62
     7
370
    25
100
AcDbSpline
210
0.0
220
0.0
230
1.0
 70
     8
 71
     3
 72
    15
 73
    11
 74
     0
 42
0.000000001
 43
0.00000001
 40
0.0
 40
0.0
 40
0.0
 40
0.0
 40
0.1472985846902703
 40
0.2756504930886641
 40
0.3928141444240014
 40
0.5033990299456614
 40
0.6118667949944803
 40
0.7290304463297255
 40
0.855365350699347
 40
0.9999999999999999
 40
0.9999999999999999
 40
0.9999999999999999
 40
0.9999999999999999
 10
-3119.743822028822
 20
8927.935504627423
 30
0.0
 10
-3119.763214612595
 20
8927.93640950746
 30
0.0
 10
-3119.799505356941
 20
8927.93810287491
 30
0.0
 10
-3119.850662964802
 20
8927.948043414728
 30
0.0
 10
-3119.893790220149
 20
8927.967448524589
 30
0.0
 10
-3119.929771226503
 20
8927.994033451832
 30
0.0
 10
-3119.957196094799
 20
8928.029538509547
 30
0.0
 10
-3119.975672098517
 20
8928.072414323633
 30
0.0
 10
-3119.987670517339
 20
8928.122438854945
 30
0.0
 10
-3119.989065570782
 20
8928.158188072026
 30
0.0
 10
-3119.989810204498
 20
8928.177269830125
 30
0.0
  0
SPLINE
  5
C1
330
1F
100
AcDbEntity
  8
0
  6
Continuous
 62
     7
370
    25
100
AcDbSpline
210
0.0
220
0.0
230
1.0
 70
     8
 71
     3
 72
    15
 73
    11
 74
     0
 42
0.000000001
 43
0.00000001
 40
0.0
 40
0.0
 40
0.0
 40
0.0
 40
0.1376465333874396
 40
0.2584939900653427
 40
0.3721777144533437
 40
0.4802669656691762
 40
0.5916828156085285
 40
0.7125302722863956
 40
0.8471387149837104
 40
1.0
 40
1.0
 40
1.0
 40
1.0
 10
-3119.989810204498
 20
8932.69373942472
 30
0.0
 10
-3119.989150897219
 20
8932.712836735815
 30
0.0
 10
-3119.987912747844
 20
8932.748700625905
 30
0.0
 10
-3119.974730288954
 20
8932.79890628966
 30
0.0
 10
-3119.954020955299
 20
8932.842049530216
 30
0.0
 10
-3119.923136582043
 20
8932.87708406778
 30
0.0
 10
-3119.883900044844
 20
8932.903874659976
 30
0.0
 10
-3119.83644802206
 20
8932.923064212828
 30
0.0
 10
-3119.780459013709
 20
8932.93284956591
 30
0.0
 10
-3119.740688044404
 20
8932.934582920565
 30
0.0
 10
-3119.719539934227
 20
8932.935504627421
 30
0.0
  0
SPLINE
  5
C2
330
1F
100
AcDbEntity
  8
0
  6
Continuous
 62
     7
370
    25
100
AcDbSpline
210
0.0
220
0.0
230
1.0
 70
     8
 71
     3
 72
    15
 73
    11
 74
     0
 42
0.000000001
 43
0.00000001
 40
0.0
 40
0.0
 40
0.0
 40
0.0
 40
0.1691382693020365
 40
0.3176902073341626
 40
0.44741103563768
 40
0.5634106106292838
 40
0.6687664326273864
 40
0.7731538901270967
 40
0.8800408488351784
 40
1.0
 40
1.0
 40
1.0
 40
1.0
 10
-3119.719539934227
 20
8932.935504627421
 30
0.0
 10
-3119.693077020111
 20
8932.935221086515
 30
0.0
 10
-3119.643372073341
 20
8932.93468851532
 30
0.0
 10
-3119.574404805226
 20
8932.922428381406
 30
0.0
 10
-3119.51479133997
 20
8932.905717215737
 30
0.0
 10
-3119.46659617616
 20
8932.87874314735
 30
0.0
 10
-3119.427379545233
 20
8932.845450623854
 30
0.0
 10
-3119.400912481868
 20
8932.802938074541
 30
0.0
 10
-3119.384113887611
 20
8932.753373959538
 30
0.0
 10
-3119.382536329489
 20
8932.717819694986
 30
0.0
 10
-3119.381702096389
 20
8932.699018140935
 30
0.0
  0
SPLINE
  5
C5
330
1F
100
AcDbEntity
  8
0
  6
Continuous
 62
     7
370
    25
100
AcDbSpline
210
0.0
220
0.0
230
1.0
 70
     8
 71
     3
 72
    23
 73
    19
 74
     0
 42
0.000000001
 43
0.00000001
 40
0.0
 40
0.0
 40
0.0
 40
0.0
 40
0.0685531417639217
 40
0.1347179803294563
 40
0.1991962546843855
 40
0.2623387307751855
 40
0.3251763369186011
 40
0.3873915998287826
 40
0.4512397782103725
 40
0.5161347178016004
 40
0.5810659883891666
 40
0.6431755650826992
 40
0.7039028057300829
 40
0.7628279826377472
 40
0.82159284978926
 40
0.8802974879193227
 40
0.9395647256157701
 40
1.0
 40
1.0
 40
1.0
 40
1.0
 10
-3118.471651420714
 20
8930.908477600395
 30
0.0
 10
-3118.430081868078
 20
8930.907468352132
 30
0.0
 10
-3118.348390992499
 20
8930.905485016516
 30
0.0
 10
-3118.228349281727
 20
8930.889698906027
 30
0.0
 10
-3118.114123275706
 20
8930.861604450634
 30
0.0
 10
-3118.004305626696
 20
8930.825237967863
 30
0.0
 10
-3117.901044057385
 20
8930.776117885192
 30
0.0
 10
-3117.802465439564
 20
8930.717497283084
 30
0.0
 10
-3117.70967986361
 20
8930.647841700338
 30
0.0
 10
-3117.62369605428
 20
8930.567591055395
 30
0.0
 10
-3117.545780616412
 20
8930.481023688659
 30
0.0
 10
-3117.475947288902
 20
8930.390899115442
 30
0.0
 10
-3117.418233895718
 20
8930.29680630334
 30
0.0
 10
-3117.369766233924
 20
8930.199914303006
 30
0.0
 10
-3117.332874815057
 20
8930.099283131853
 30
0.0
 10
-3117.30645521551
 20
8929.995293087948
 30
0.0
 10
-3117.290064729991
 20
8929.888094584947
 30
0.0
 10
-3117.28809963621
 20
8929.815489238592
 30
0.0
 10
-3117.287107501795
 20
8929.778832330125
 30
0.0
  0
SPLINE
  5
C8
330
1F
100
AcDbEntity
  8
0
  6
Continuous
 62
     7
370
    25
100
AcDbSpline
210
0.0
220
0.0
230
1.0
 70
     8
 71
     3
 72
    15
 73
    11
 74
     0
 42
0.000000001
 43
0.00000001
 40
0.0
 40
0.0
 40
0.0
 40
0.0
 40
0.1364411897144808
 40
0.2559957227680112
 40
0.3685080101434638
 40
0.4757423758334615
 40
0.5882546632088256
 40
0.7093427114892547
 40
0.8457839012035607
 40
1.0
 40
1.0
 40
1.0
 40
1.0
 10
-3114.293864258551
 20
8932.699018140935
 30
0.0
 10
-3114.293209304883
 20
8932.717768298167
 30
0.0
 10
-3114.291980457949
 20
8932.752947997657
 30
0.0
 10
-3114.278768674654
 20
8932.802089106171
 30
0.0
 10
-3114.258099190602
 20
8932.844320840437
 30
0.0
 10
-3114.226783836164
 20
8932.878046591986
 30
0.0
 10
-3114.188247341372
 20
8932.905296821491
 30
0.0
 10
-3114.14007839698
 20
8932.922354718134
 30
0.0
 10
-3114.084747232827
 20
8932.934661744428
 30
0.0
 10
-3114.044792862099
 20
8932.93521244063
 30
0.0
 10
-3114.023593988281
 20
8932.935504627421
 30
0.0
  0
SPLINE
  5
C9
330
1F
100
AcDbEntity
  8
0
  6
Continuous
 62
     7
370
    25
100
AcDbSpline
210
0.0
220
0.0
230
1.0
 70
     8
 71
     3
 72
    15
 73
    11
 74
     0
 42
0.000000001
 43
0.00000001
 40
0.0
 40
0.0
 40
0.0
 40
0.0
 40
0.1678628092163052
 40
0.314846616591274
 40
0.4441869603121477
 40
0.5592403382442053
 40
0.6652318690748326
 40
0.7706563435097584
 40
0.8787940473875815
 40
1.0
 40
1.0
 40
1.0
 40
1.0
 10
-3114.023593988281
 20
8932.935504627421
 30
0.0
 10
-3113.997174192686
 20
8932.9345819305
 30
0.0
 10
-3113.947620731182
 20
8932.932851302936
 30
0.0
 10
-3113.878100812969
 20
8932.923188953102
 30
0.0
 10
-3113.819101291174
 20
8932.904258563696
 30
0.0
 10
-3113.7702560403
 20
8932.877858138938
 30
0.0
 10
-3113.731411156895
 20
8932.843184620544
 30
0.0
 10
-3113.704940850379
 20
8932.799738495683
 30
0.0
 10
-3113.688180474405
 20
8932.749118718864
 30
0.0
 10
-3113.686594384142
 20
8932.712887356789
 30
0.0
 10
-3113.685756150444
 20
8932.69373942472
 30
0.0
  0
SPLINE
  5
CB
330
1F
100
AcDbEntity
  8
0
  6
Continuous
 62
     7
370
    25
100
AcDbSpline
210
0.0
220
0.0
230
1.0
 70
     8
 71
     3
 72
    15
 73
    11
 74
     0
 42
0.000000001
 43
0.00000001
 40
0.0
 40
0.0
 40
0.0
 40
0.0
 40
0.1212059526125892
 40
0.2293436564903975
 40
0.334768130925309
 40
0.4407596617559219
 40
0.5558130396878725
 40
0.6851533834087873
 40
0.8321371907837075
 40
1.0
 40
1.0
 40
1.0
 40
1.0
 10
-3113.685756150444
 20
8928.177269830125
 30
0.0
 10
-3113.686594384142
 20
8928.158121898055
 30
0.0
 10
-3113.688180474405
 20
8928.121890535976
 30
0.0
 10
-3113.70494085038
 20
8928.07127075916
 30
0.0
 10
-3113.731411156895
 20
8928.027824634299
 30
0.0
 10
-3113.7702560403
 20
8927.993151115907
 30
0.0
 10
-3113.819101291174
 20
8927.966750691146
 30
0.0
 10
-3113.878100812969
 20
8927.94782030174
 30
0.0
 10
-3113.947620731182
 20
8927.938157951905
 30
0.0
 10
-3113.997174192686
 20
8927.936427324346
 30
0.0
 10
-3114.023593988281
 20
8927.935504627423
 30
0.0
  0
SPLINE
  5
CC
330
1F
100
AcDbEntity
  8
0
  6
Continuous
 62
     7
370
    25
100
AcDbSpline
210
0.0
220
0.0
230
1.0
 70
     8
 71
     3
 72
    15
 73
    11
 74
     0
 42
0.000000001
 43
0.00000001
 40
0.0
 40
0.0
 40
0.0
 40
0.0
 40
0.1528612850162341
 40
0.287469727713494
 40
0.4083171843914787
 40
0.5197330343306972
 40
0.6278222855464829
 40
0.7415060099344717
 40
0.8623534666123619
 40
1.0
 40
1.0
 40
1.0
 40
1.0
 10
-3114.023593988281
 20
8927.935504627423
 30
0.0
 10
-3114.044742098458
 20
8927.936426334281
 30
0.0
 10
-3114.084513067764
 20
8927.938159688933
 30
0.0
 10
-3114.140502076114
 20
8927.947945042017
 30
0.0
 10
-3114.187954098898
 20
8927.96713459487
 30
0.0
 10
-3114.227190636097
 20
8927.993925187062
 30
0.0
 10
-3114.258075009353
 20
8928.028959724628
 30
0.0
 10
-3114.278784343008
 20
8928.072102965185
 30
0.0
 10
-3114.291966801899
 20
8928.12230862894
 30
0.0
 10
-3114.293204951273
 20
8928.158172519028
 30
0.0
 10
-3114.293864258551
 20
8928.177269830125
 30
0.0
  0
SPLINE
  5
D0
330
1F
100
AcDbEntity
  8
0
  6
Continuous
 62
     7
370
    25
100
AcDbSpline
210
0.0
220
0.0
230
1.0
 70
     8
 71
     3
 72
    15
 73
    11
 74
     0
 42
0.000000001
 43
0.00000001
 40
0.0
 40
0.0
 40
0.0
 40
0.0
 40
0.1212059526125942
 40
0.2293436564904069
 40
0.3347681309253227
 40
0.4407596617559051
 40
0.5558130396879016
 40
0.6851533834088216
 40
0.8321371907837478
 40
1.0
 40
1.0
 40
1.0
 40
1.0
 10
-3115.780350745038
 20
8928.177269830125
 30
0.0
 10
-3115.781188978736
 20
8928.158121898055
 30
0.0
 10
-3115.782775069
 20
8928.121890535976
 30
0.0
 10
-3115.799535444974
 20
8928.07127075916
 30
0.0
 10
-3115.826005751489
 20
8928.027824634299
 30
0.0
 10
-3115.864850634895
 20
8927.993151115907
 30
0.0
 10
-3115.913695885768
 20
8927.966750691146
 30
0.0
 10
-3115.972695407564
 20
8927.94782030174
 30
0.0
 10
-3116.042215325777
 20
8927.938157951905
 30
0.0
 10
-3116.09176878728
 20
8927.936427324346
 30
0.0
 10
-3116.118188582876
 20
8927.935504627423
 30
0.0
  0
SPLINE
  5
D1
330
1F
100
AcDbEntity
  8
0
  6
Continuous
 62
     7
370
    25
100
AcDbSpline
210
0.0
220
0.0
230
1.0
 70
     8
 71
     3
 72
    15
 73
    11
 74
     0
 42
0.000000001
 43
0.00000001
 40
0.0
 40
0.0
 40
0.0
 40
0.0
 40
0.1528612850162814
 40
0.2874697277135361
 40
0.4083171843914666
 40
0.5197330343306807
 40
0.6278222855464974
 40
0.7415060099344818
 40
0.8623534666123673
 40
1.0
 40
1.0
 40
1.0
 40
1.0
 10
-3116.118188582876
 20
8927.935504627423
 30
0.0
 10
-3116.139336693053
 20
8927.936426334281
 30
0.0
 10
-3116.179107662358
 20
8927.938159688933
 30
0.0
 10
-3116.235096670709
 20
8927.947945042017
 30
0.0
 10
-3116.282548693493
 20
8927.96713459487
 30
0.0
 10
-3116.321785230692
 20
8927.993925187062
 30
0.0
 10
-3116.352669603948
 20
8928.028959724628
 30
0.0
 10
-3116.373378937602
 20
8928.072102965185
 30
0.0
 10
-3116.386561396493
 20
8928.12230862894
 30
0.0
 10
-3116.387799545867
 20
8928.158172519028
 30
0.0
 10
-3116.388458853146
 20
8928.177269830125
 30
0.0
  0
SPLINE
  5
D3
330
1F
100
AcDbEntity
  8
0
  6
Continuous
 62
     7
370
    25
100
AcDbSpline
210
0.0
220
0.0
230
1.0
 70
     8
 71
     3
 72
    15
 73
    11
 74
     0
 42
0.000000001
 43
0.00000001
 40
0.0
 40
0.0
 40
0.0
 40
0.0
 40
0.1376465333874396
 40
0.2584939900653427
 40
0.3721777144533437
 40
0.4802669656691762
 40
0.5916828156085285
 40
0.7125302722863956
 40
0.8471387149837104
 40
1.0
 40
1.0
 40
1.0
 40
1.0
 10
-3116.388458853146
 20
8932.69373942472
 30
0.0
 10
-3116.387799545867
 20
8932.712836735815
 30
0.0
 10
-3116.386561396493
 20
8932.748700625905
 30
0.0
 10
-3116.373378937602
 20
8932.79890628966
 30
0.0
 10
-3116.352669603948
 20
8932.842049530216
 30
0.0
 10
-3116.321785230692
 20
8932.87708406778
 30
0.0
 10
-3116.282548693493
 20
8932.903874659976
 30
0.0
 10
-3116.235096670709
 20
8932.923064212828
 30
0.0
 10
-3116.179107662358
 20
8932.93284956591
 30
0.0
 10
-3116.139336693053
 20
8932.934582920565
 30
0.0
 10
-3116.118188582876
 20
8932.935504627421
 30
0.0
  0
SPLINE
  5
D4
330
1F
100
AcDbEntity
  8
0
  6
Continuous
 62
     7
370
    25
100
AcDbSpline
210
0.0
220
0.0
230
1.0
 70
     8
 71
     3
 72
    15
 73
    11
 74
     0
 42
0.000000001
 43
0.00000001
 40
0.0
 40
0.0
 40
0.0
 40
0.0
 40
0.1691382693020365
 40
0.3176902073341626
 40
0.44741103563768
 40
0.5634106106292838
 40
0.6687664326273864
 40
0.7731538901270967
 40
0.8800408488351784
 40
1.0
 40
1.0
 40
1.0
 40
1.0
 10
-3116.118188582876
 20
8932.935504627421
 30
0.0
 10
-3116.09172566876
 20
8932.935221086515
 30
0.0
 10
-3116.04202072199
 20
8932.93468851532
 30
0.0
 10
-3115.973053453874
 20
8932.922428381406
 30
0.0
 10
-3115.913439988618
 20
8932.905717215737
 30
0.0
 10
-3115.865244824809
 20
8932.87874314735
 30
0.0
 10
-3115.826028193881
 20
8932.845450623854
 30
0.0
 10
-3115.799561130516
 20
8932.802938074541
 30
0.0
 10
-3115.78276253626
 20
8932.753373959538
 30
0.0
 10
-3115.781184978137
 20
8932.717819694986
 30
0.0
 10
-3115.780350745038
 20
8932.699018140935
 30
0.0
  0
SPLINE
  5
D7
330
1F
100
AcDbEntity
  8
0
  6
Continuous
 62
     7
370
    25
100
AcDbSpline
210
0.0
220
0.0
230
1.0
 70
     8
 71
     3
 72
    15
 73
    11
 74
     0
 42
0.000000001
 43
0.00000001
 40
0.0
 40
0.0
 40
0.0
 40
0.0
 40
0.1192175102584368
 40
0.2297017703974251
 40
0.3334438581371501
 40
0.4396463856240859
 40
0.5549287995728964
 40
0.6845266202812545
 40
0.8318030273728381
 40
1.0
 40
1.0
 40
1.0
 40
1.0
 10
-3110.084404799092
 20
8928.24378165445
 30
0.0
 10
-3110.085344759692
 20
8928.225017232786
 30
0.0
 10
-3110.087155824303
 20
8928.188862972664
 30
0.0
 10
-3110.103035456449
 20
8928.13820625062
 30
0.0
 10
-3110.130459520451
 20
8928.095292772106
 30
0.0
 10
-3110.168853015368
 20
8928.060688820475
 30
0.0
 10
-3110.217766174515
 20
8928.034327641006
 30
0.0
 10
-3110.276744248352
 20
8928.015384856477
 30
0.0
 10
-3110.346270980165
 20
8928.005726444333
 30
0.0
 10
-3110.395823397852
 20
8928.003995213534
 30
0.0
 10
-3110.42224263693
 20
8928.003072194988
 30
0.0
  0
SPLINE
  5
D8
330
1F
100
AcDbEntity
  8
0
  6
Continuous
 62
     7
370
    25
100
AcDbSpline
210
0.0
220
0.0
230
1.0
 70
     8
 71
     3
 72
    15
 73
    11
 74
     0
 42
0.000000001
 43
0.00000001
 40
0.0
 40
0.0
 40
0.0
 40
0.0
 40
0.1535989970092404
 40
0.288857063072725
 40
0.4102877322894907
 40
0.5222412776216429
 40
0.6308521699902456
 40
0.742805715322486
 40
0.8642363845391569
 40
1.0
 40
1.0
 40
1.0
 40
1.0
 10
-3110.42224263693
 20
8928.003072194988
 30
0.0
 10
-3110.44339041757
 20
8928.003994063605
 30
0.0
 10
-3110.483160767149
 20
8928.005727722455
 30
0.0
 10
-3110.539153861412
 20
8928.015511069929
 30
0.0
 10
-3110.58659261937
 20
8928.03470713395
 30
0.0
 10
-3110.625873519868
 20
8928.061475949988
 30
0.0
 10
-3110.656387942614
 20
8928.096350429225
 30
0.0
 10
-3110.677700390657
 20
8928.138827563114
 30
0.0
 10
-3110.690471384477
 20
8928.188504929429
 30
0.0
 10
-3110.691807578447
 20
8928.223993022728
 30
0.0
 10
-3110.6925129072
 20
8928.242725911206
 30
0.0
  0
SPLINE
  5
DA
330
1F
100
AcDbEntity
  8
0
  6
Continuous
 62
     7
370
    25
100
AcDbSpline
210
0.0
220
0.0
230
1.0
 70
     8
 71
     3
 72
    23
 73
    19
 74
     0
 42
0.000000001
 43
0.00000001
 40
0.0
 40
0.0
 40
0.0
 40
0.0
 40
0.0334262020353667
 40
0.0709252559820507
 40
0.1118634144878344
 40
0.1569064398987504
 40
0.2059791538484771
 40
0.2585999398510822
 40
0.315260269714956
 40
0.3757213361297248
 40
0.439986665789415
 40
0.5083974803188978
 40
0.5806187561822873
 40
0.6566525006817043
 40
0.7367390392849411
 40
0.8206408278564992
 40
0.9083591900053859
 40
1.0
 40
1.0
 40
1.0
 40
1.0
 10
-3110.6925129072
 20
8931.877649897691
 30
0.0
 10
-3110.704560092742
 20
8931.833932799625
 30
0.0
 10
-3110.73012236624
 20
8931.741171846168
 30
0.0
 10
-3110.776187112833
 20
8931.596567197244
 30
0.0
 10
-3110.827655310601
 20
8931.437167918999
 30
0.0
 10
-3110.888437046176
 20
8931.264330722996
 30
0.0
 10
-3110.955471776766
 20
8931.076910177822
 30
0.0
 10
-3111.031066003903
 20
8930.87583834736
 30
0.0
 10
-3111.113151043214
 20
8930.660712416138
 30
0.0
 10
-3111.203050398864
 20
8930.431670966767
 30
0.0
 10
-3111.300198476074
 20
8930.188356427541
 30
0.0
 10
-3111.405870055401
 20
8929.931282875274
 30
0.0
 10
-3111.518776123443
 20
8929.659928670673
 30
0.0
 10
-3111.639447221148
 20
8929.374656660084
 30
0.0
 10
-3111.766924098423
 20
8929.07506080994
 30
0.0
 10
-3111.902217185277
 20
8928.761570702025
 30
0.0
 10
-3112.044474297378
 20
8928.434014197306
 30
0.0
 10
-3112.143290950326
 20
8928.211684847936
 30
0.0
 10
-3112.193779799092
 20
8928.09808908688
 30
0.0
  0
SPLINE
  5
DB
330
1F
100
AcDbEntity
  8
0
  6
Continuous
 62
     7
370
    25
100
AcDbSpline
210
0.0
220
0.0
230
1.0
 70
     8
 71
     3
 72
    11
 73
     7
 74
     0
 42
0.000000001
 43
0.00000001
 40
0.0
 40
0.0
 40
0.0
 40
0.0
 40
0.2328090547618146
 40
0.4629430035604931
 40
0.7138780282479495
 40
1.0
 40
1.0
 40
1.0
 40
1.0
 10
-3112.193779799092
 20
8928.09808908688
 30
0.0
 10
-3112.21028883283
 20
8928.073184144621
 30
0.0
 10
-3112.243117202296
 20
8928.023660431782
 30
0.0
 10
-3112.32005557619
 20
8927.971560965572
 30
0.0
 10
-3112.413886206047
 20
8927.94065484184
 30
0.0
 10
-3112.482430908103
 20
8927.937294747871
 30
0.0
 10
-3112.518948718011
 20
8927.935504627423
 30
0.0
  0
SPLINE
  5
DC
330
1F
100
AcDbEntity
  8
0
  6
Continuous
 62
     7
370
    25
100
AcDbSpline
210
0.0
220
0.0
230
1.0
 70
     8
 71
     3
 72
    15
 73
    11
 74
     0
 42
0.000000001
 43
0.00000001
 40
0.0
 40
0.0
 40
0.0
 40
0.0
 40
0.1464537970122922
 40
0.2740558316442756
 40
0.3917684023118881
 40
0.4994269965368433
 40
0.6105024493604148
 40
0.7260022282037628
 40
0.855976208059902
 40
1.0
 40
1.0
 40
1.0
 40
1.0
 10
-3112.518948718011
 20
8927.935504627423
 30
0.0
 10
-3112.540143280438
 20
8927.936167235051
 30
0.0
 10
-3112.579804207985
 20
8927.937407158415
 30
0.0
 10
-3112.635303480257
 20
8927.950368205842
 30
0.0
 10
-3112.682284988255
 20
8927.971092448883
 30
0.0
 10
-3112.721406928891
 20
8928.00085316196
 30
0.0
 10
-3112.751001281846
 20
8928.039662237283
 30
0.0
 10
-3112.772692263287
 20
8928.08678976607
 30
0.0
 10
-3112.784948151142
 20
8928.142168051521
 30
0.0
 10
-3112.786363526134
 20
8928.181783998805
 30
0.0
 10
-3112.787107501795
 20
8928.202607667961
 30
0.0
  0
SPLINE
  5
DE
330
1F
100
AcDbEntity
  8
0
  6
Continuous
 62
     7
370
    25
100
AcDbSpline
210
0.0
220
0.0
230
1.0
 70
     8
 71
     3
 72
    15
 73
    11
 74
     0
 42
0.000000001
 43
0.00000001
 40
0.0
 40
0.0
 40
0.0
 40
0.0
 40
0.137355430253226
 40
0.2604035025255109
 40
0.3715837235510894
 40
0.4813661282244203
 40
0.5925463492500329
 40
0.7131382304872359
 40
0.8474619951863104
 40
1.0
 40
1.0
 40
1.0
 40
1.0
 10
-3112.787107501795
 20
8932.760251249043
 30
0.0
 10
-3112.78637944191
 20
8932.779322978246
 30
0.0
 10
-3112.784999159062
 20
8932.815479867522
 30
0.0
 10
-3112.772573090843
 20
8932.866022408385
 30
0.0
 10
-3112.750635037371
 20
8932.908794646723
 30
0.0
 10
-3112.720873521797
 20
8932.944669726616
 30
0.0
 10
-3112.681133426759
 20
8932.971392394305
 30
0.0
 10
-3112.63376511366
 20
8932.99064721352
 30
0.0
 10
-3112.57775032054
 20
8933.000412462858
 30
0.0
 10
-3112.537983262106
 20
8933.002148866723
 30
0.0
 10
-3112.516837231524
 20
8933.003072194992
 30
0.0
  0
SPLINE
  5
DF
330
1F
100
AcDbEntity
  8
0
  6
Continuous
 62
     7
370
    25
100
AcDbSpline
210
0.0
220
0.0
230
1.0
 70
     8
 71
     3
 72
    15
 73
    11
 74
     0
 42
0.000000001
 43
0.00000001
 40
0.0
 40
0.0
 40
0.0
 40
0.0
 40
0.1675680039011324
 40
0.31429367424233
 40
0.4434068668690028
 40
0.5582581848719491
 40
0.6655816592801603
 40
0.7689358058593745
 40
0.879006912638619
 40
1.0
 40
1.0
 40
1.0
 40
1.0
 10
-3112.516837231524
 20
8933.003072194992
 30
0.0
 10
-3112.490420098697
 20
8933.002146934368
 30
0.0
 10
-3112.44087163153
 20
8933.000411498288
 30
0.0
 10
-3112.371319112342
 20
8932.99078053649
 30
0.0
 10
-3112.312422212409
 20
8932.97175134333
 30
0.0
 10
-3112.26303863056
 20
8932.945550523174
 30
0.0
 10
-3112.22538259779
 20
8932.909788439934
 30
0.0
 10
-3112.197574720476
 20
8932.866941965072
 30
0.0
 10
-3112.181658943372
 20
8932.815869047437
 30
0.0
 10
-3112.179913412923
 20
8932.779365664492
 30
0.0
 10
-3112.178999393687
 20
8932.760251249043
 30
0.0
  0
SPLINE
  5
E1
330
1F
100
AcDbEntity
  8
0
  6
Continuous
 62
     7
370
    25
100
AcDbSpline
210
0.0
220
0.0
230
1.0
 70
     8
 71
     3
 72
    23
 73
    19
 74
     0
 42
0.000000001
 43
0.00000001
 40
0.0
 40
0.0
 40
0.0
 40
0.0
 40
0.0333964054255562
 40
0.0706152794128788
 40
0.1118491904857455
 40
0.1568612779401294
 40
0.2056604075302471
 40
0.2582535298716439
 40
0.3149813657476763
 40
0.3755144664322007
 40
0.4397603508376068
 40
0.5082526710923455
 40
0.580460557335535
 40
0.6565848896394092
 40
0.7364261993995969
 40
0.8204279498876295
 40
0.9083548486788549
 40
1.0
 40
1.0
 40
1.0
 40
1.0
 10
-3112.178999393687
 20
8929.060926924718
 30
0.0
 10
-3112.167326630396
 20
8929.104648386603
 30
0.0
 10
-3112.142645068689
 20
8929.197095558924
 30
0.0
 10
-3112.097340932401
 20
8929.341738645844
 30
0.0
 10
-3112.045903342463
 20
8929.500910147233
 30
0.0
 10
-3111.986586624394
 20
8929.674009708462
 30
0.0
 10
-3111.919974637909
 20
8929.860852686405
 30
0.0
 10
-3111.845993512368
 20
8930.061912535892
 30
0.0
 10
-3111.763621959261
 20
8930.27680416433
 30
0.0
 10
-3111.673487551467
 20
8930.505608354953
 30
0.0
 10
-3111.578028229067
 20
8930.749457334636
 30
0.0
 10
-3111.471606501736
 20
8931.0059405071
 30
0.0
 10
-3111.360493116563
 20
8931.27789007808
 30
0.0
 10
-3111.239370440167
 20
8931.56232845097
 30
0.0
 10
-3111.112993713991
 20
8931.861887318766
 30
0.0
 10
-3110.977977403058
 20
8932.175152894633
 30
0.0
 10
-3110.834015571437
 20
8932.501960769941
 30
0.0
 10
-3110.736133080044
 20
8932.724700393212
 30
0.0
 10
-3110.686178447741
 20
8932.838376249043
 30
0.0
  0
SPLINE
  5
E2
330
1F
100
AcDbEntity
  8
0
  6
Continuous
 62
     7
370
    25
100
AcDbSpline
210
0.0
220
0.0
230
1.0
 70
     8
 71
     3
 72
    11
 73
     7
 74
     0
 42
0.000000001
 43
0.00000001
 40
0.0
 40
0.0
 40
0.0
 40
0.0
 40
0.2670118619317478
 40
0.5105832502390231
 40
0.7477324693016797
 40
1.0
 40
1.0
 40
1.0
 40
1.0
 10
-3110.686178447741
 20
8932.838376249043
 30
0.0
 10
-3110.670513366481
 20
8932.863294671239
 30
0.0
 10
-3110.640558412244
 20
8932.910943973791
 30
0.0
 10
-3110.576982001918
 20
8932.964848995352
 30
0.0
 10
-3110.501792940832
 20
8932.997415589509
 30
0.0
 10
-3110.447906605251
 20
8933.001148225541
 30
0.0
 10
-3110.420131150443
 20
8933.003072194992
 30
0.0
  0
SPLINE
  5
E4
330
1F
100
AcDbEntity
  8
0
  6
Continuous
 62
     7
370
    25
100
AcDbSpline
210
0.0
220
0.0
230
1.0
 70
     8
 71
     3
 72
    15
 73
    11
 74
     0
 42
0.000000001
 43
0.00000001
 40
0.0
 40
0.0
 40
0.0
 40
0.0
 40
0.1624566800599278
 40
0.3033020102420473
 40
0.4291664366098457
 40
0.5438062297015254
 40
0.6493516081970013
 40
0.756938502654645
 40
0.8719246710993442
 40
1.0
 40
1.0
 40
1.0
 40
1.0
 10
-3110.420131150443
 20
8933.003072194992
 30
0.0
 10
-3110.393660374839
 20
8933.002447675042
 30
0.0
 10
-3110.344240188173
 20
8933.001281714025
 30
0.0
 10
-3110.275453764273
 20
8932.988044521024
 30
0.0
 10
-3110.216024387462
 20
8932.96909314957
 30
0.0
 10
-3110.167569405532
 20
8932.939213086476
 30
0.0
 10
-3110.129979777107
 20
8932.90065617077
 30
0.0
 10
-3110.10301840805
 20
8932.853979320504
 30
0.0
 10
-3110.086971209074
 20
8932.798571809082
 30
0.0
 10
-3110.085290439587
 20
8932.758955492764
 30
0.0
 10
-3110.084404799092
 20
8932.738080640936
 30
0.0
  0
SPLINE
  5
E5
330
1F
100
AcDbEntity
  8
0
  6
Continuous
 62
     7
370
    25
100
AcDbSpline
210
0.0
220
0.0
230
1.0
 70
     8
 71
     3
 72
    15
 73
    11
 74
     0
 42
0.000000001
 43
0.00000001
 40
0.0
 40
0.0
 40
0.0
 40
0.0
 40
0.1222745217376952
 40
0.2336168933972761
 40
0.3380530932832907
 40
0.444557537512015
 40
0.5596238896565295
 40
0.687751765679223
 40
0.8337107774005551
 40
1.0
 40
1.0
 40
1.0
 40
1.0
 10
-3106.077648042335
 20
8927.507928613908
 30
0.0
 10
-3106.07855812369
 20
8927.488458158568
 30
0.0
 10
-3106.080296919114
 20
8927.451258035231
 30
0.0
 10
-3106.096274639548
 20
8927.39925289701
 30
0.0
 10
-3106.123633946396
 20
8927.355264156999
 30
0.0
 10
-3106.162016033848
 20
8927.319662701824
 30
0.0
 10
-3106.210697857492
 20
8927.291857505752
 30
0.0
 10
-3106.270135845751
 20
8927.273584296425
 30
0.0
 10
-3106.339378527609
 20
8927.262048607601
 30
0.0
 10
-3106.389038979708
 20
8927.260600270356
 30
0.0
 10
-3106.415485880173
 20
8927.259828951746
 30
0.0
  0
SPLINE
  5
E6
330
1F
100
AcDbEntity
  8
0
  6
Continuous
 62
     7
370
    25
100
AcDbSpline
210
0.0
220
0.0
230
1.0
 70
     8
 71
     3
 72
    15
 73
    11
 74
     0
 42
0.000000001
 43
0.00000001
 40
0.0
 40
0.0
 40
0.0
 40
0.0
 40
0.1542014472172151
 40
0.2899900261851835
 40
0.4118969741102862
 40
0.5228469369192582
 40
0.6318838259153711
 40
0.744276478520098
 40
0.8637038887549717
 40
1.0
 40
1.0
 40
1.0
 40
1.0
 10
-3106.415485880173
 20
8927.259828951746
 30
0.0
 10
-3106.43662750398
 20
8927.26075987322
 30
0.0
 10
-3106.476386275067
 20
8927.262510556806
 30
0.0
 10
-3106.532455707503
 20
8927.272181658478
 30
0.0
 10
-3106.579462674058
 20
8927.291665874758
 30
0.0
 10
-3106.619426388479
 20
8927.317063212124
 30
0.0
 10
-3106.649597324992
 20
8927.352120337273
 30
0.0
 10
-3106.670740246193
 20
8927.394216572739
 30
0.0
 10
-3106.683848539773
 20
8927.443466319311
 30
0.0
 10
-3106.685092918568
 20
8927.478629714271
 30
0.0
 10
-3106.685756150444
 20
8927.497371181476
 30
0.0
  0
SPLINE
  5
E9
330
1F
100
AcDbEntity
  8
0
  6
Continuous
 62
     7
370
    25
100
AcDbSpline
210
0.0
220
0.0
230
1.0
 70
     8
 71
     3
 72
    15
 73
    11
 74
     0
 42
0.000000001
 43
0.00000001
 40
0.0
 40
0.0
 40
0.0
 40
0.0
 40
0.1476670007642776
 40
0.2763399367291134
 40
0.3937966321051121
 40
0.5046581071775414
 40
0.6133971665381126
 40
0.7284171840211392
 40
0.8576739258690756
 40
1.0
 40
1.0
 40
1.0
 40
1.0
 10
-3108.939767974768
 20
8927.935504627423
 30
0.0
 10
-3108.959160248934
 20
8927.936409637463
 30
0.0
 10
-3108.995450413891
 20
8927.938103248194
 30
0.0
 10
-3109.046611831422
 20
8927.948042188345
 30
0.0
 10
-3109.089726464587
 20
8927.967452598223
 30
0.0
 10
-3109.125750970581
 20
8927.994019260104
 30
0.0
 10
-3109.152817047306
 20
8928.02933504809
 30
0.0
 10
-3109.172069339284
 20
8928.071893976712
 30
0.0
 10
-3109.18335295297
 20
8928.121801020423
 30
0.0
 10
-3109.184929790658
 20
8928.157503693566
 30
0.0
 10
-3109.185756150443
 20
8928.17621408688
 30
0.0
  0
SPLINE
  5
EB
330
1F
100
AcDbEntity
  8
0
  6
Continuous
 62
     7
370
    25
100
AcDbSpline
210
0.0
220
0.0
230
1.0
 70
     8
 71
     3
 72
    15
 73
    11
 74
     0
 42
0.000000001
 43
0.00000001
 40
0.0
 40
0.0
 40
0.0
 40
0.0
 40
0.1354286630936387
 40
0.2590269151054914
 40
0.3707042516398246
 40
0.4790471821146993
 40
0.5907245186490668
 40
0.7118555973607841
 40
0.84677995833508
 40
1.0
 40
1.0
 40
1.0
 40
1.0
 10
-3109.185756150443
 20
8932.694795167961
 30
0.0
 10
-3109.185009205169
 20
8932.713518002296
 30
0.0
 10
-3109.183580564247
 20
8932.74932813221
 30
0.0
 10
-3109.171158661965
 20
8932.7994565459
 30
0.0
 10
-3109.149616111333
 20
8932.842222809595
 30
0.0
 10
-3109.119120875334
 20
8932.87710185
 30
0.0
 10
-3109.079834646047
 20
8932.903869399253
 30
0.0
 10
-3109.032397481421
 20
8932.92306584205
 30
0.0
 10
-3108.976403896369
 20
8932.93284907285
 30
0.0
 10
-3108.93663362123
 20
8932.934582749396
 30
0.0
 10
-3108.915485880173
 20
8932.935504627421
 30
0.0
  0
SPLINE
  5
EC
330
1F
100
AcDbEntity
  8
0
  6
Continuous
 62
     7
370
    25
100
AcDbSpline
210
0.0
220
0.0
230
1.0
 70
     8
 71
     3
 72
    15
 73
    11
 74
     0
 42
0.000000001
 43
0.00000001
 40
0.0
 40
0.0
 40
0.0
 40
0.0
 40
0.1687372826955591
 40
0.3164867953630592
 40
0.4465009315750491
 40
0.5610794434177362
 40
0.6676231321872791
 40
0.7716984773789827
 40
0.8803995195840691
 40
1.0
 40
1.0
 40
1.0
 40
1.0
 10
-3108.915485880173
 20
8932.935504627421
 30
0.0
 10
-3108.889072804704
 20
8932.934570225674
 30
0.0
 10
-3108.839531947595
 20
8932.932817644327
 30
0.0
 10
-3108.769929753083
 20
8932.923298599773
 30
0.0
 10
-3108.711349614104
 20
8932.903970033292
 30
0.0
 10
-3108.661823085759
 20
8932.879107257315
 30
0.0
 10
-3108.623720415363
 20
8932.844275531812
 30
0.0
 10
-3108.596528227986
 20
8932.801708056531
 30
0.0
 10
-3108.580242890573
 20
8932.751527310136
 30
0.0
 10
-3108.578540089788
 20
8932.715683944043
 30
0.0
 10
-3108.577648042335
 20
8932.696906654448
 30
0.0
  0
SPLINE
  5
F0
330
1F
100
AcDbEntity
  8
0
  6
Continuous
 62
     7
370
    25
100
AcDbSpline
210
0.0
220
0.0
230
1.0
 70
     8
 71
     3
 72
    15
 73
    11
 74
     0
 42
0.000000001
 43
0.00000001
 40
0.0
 40
0.0
 40
0.0
 40
0.0
 40
0.1359589957906112
 40
0.2575644184868132
 40
0.369679078566414
 40
0.478446275198993
 40
0.5891218138384987
 40
0.7107272365347143
 40
0.8461799553810309
 40
1.0
 40
1.0
 40
1.0
 40
1.0
 10
-3107.091161555849
 20
8932.696906654448
 30
0.0
 10
-3107.090454732018
 20
8932.715637362555
 30
0.0
 10
-3107.089115705732
 20
8932.751121325302
 30
0.0
 10
-3107.076363750334
 20
8932.80082645661
 30
0.0
 10
-3107.054986664466
 20
8932.84320932487
 30
0.0
 10
-3107.024836111957
 20
8932.87827141983
 30
0.0
 10
-3106.984866790364
 20
8932.903667390116
 30
0.0
 10
-3106.937861514185
 20
8932.923152018524
 30
0.0
 10
-3106.881791559031
 20
8932.932822992752
 30
0.0
 10
-3106.842032867226
 20
8932.934573695667
 30
0.0
 10
-3106.820891285578
 20
8932.935504627421
 30
0.0
  0
SPLINE
  5
F1
330
1F
100
AcDbEntity
  8
0
  6
Continuous
 62
     7
370
    25
100
AcDbSpline
210
0.0
220
0.0
230
1.0
 70
     8
 71
     3
 72
    15
 73
    11
 74
     0
 42
0.000000001
 43
0.00000001
 40
0.0
 40
0.0
 40
0.0
 40
0.0
 40
0.1687372826955994
 40
0.3164867953630936
 40
0.4465009315750781
 40
0.561079443417719
 40
0.6676231321872924
 40
0.7716984773789919
 40
0.8803995195840739
 40
0.9999999999999999
 40
0.9999999999999999
 40
0.9999999999999999
 40
0.9999999999999999
 10
-3106.820891285578
 20
8932.935504627421
 30
0.0
 10
-3106.794478210109
 20
8932.934570225674
 30
0.0
 10
-3106.744937353001
 20
8932.932817644327
 30
0.0
 10
-3106.675335158488
 20
8932.923298599773
 30
0.0
 10
-3106.616755019509
 20
8932.90397003329
 30
0.0
 10
-3106.567228491164
 20
8932.879107257315
 30
0.0
 10
-3106.529125820769
 20
8932.844275531812
 30
0.0
 10
-3106.501933633392
 20
8932.801708056531
 30
0.0
 10
-3106.485648295978
 20
8932.751527310136
 30
0.0
 10
-3106.483945495194
 20
8932.715683944043
 30
0.0
 10
-3106.483053447741
 20
8932.696906654448
 30
0.0
  0
SPLINE
  5
F4
330
1F
100
AcDbEntity
  8
0
  6
Continuous
 62
     7
370
    25
100
AcDbSpline
210
0.0
220
0.0
230
1.0
 70
     8
 71
     3
 72
    15
 73
    11
 74
     0
 42
0.000000001
 43
0.00000001
 40
0.0
 40
0.0
 40
0.0
 40
0.0
 40
0.1656092688916442
 40
0.3131459933551965
 40
0.4407499567453907
 40
0.557260250443317
 40
0.6633291998719959
 40
0.7673383619727215
 40
0.8782254566322227
 40
1.0
 40
1.0
 40
1.0
 40
1.0
 10
-3106.41759736666
 20
8928.476045167961
 30
0.0
 10
-3106.391158984362
 20
8928.475237928216
 30
0.0
 10
-3106.341167377354
 20
8928.473711540872
 30
0.0
 10
-3106.271481038714
 20
8928.46249864669
 30
0.0
 10
-3106.211577843898
 20
8928.443710353098
 30
0.0
 10
-3106.162167973593
 20
8928.416555570222
 30
0.0
 10
-3106.123652615179
 20
8928.380576273048
 30
0.0
 10
-3106.096269352054
 20
8928.336630764503
 30
0.0
 10
-3106.080298432156
 20
8928.284613354042
 30
0.0
 10
-3106.07855864353
 20
8928.247415023037
 30
0.0
 10
-3106.077648042335
 20
8928.227945505801
 30
0.0
  0
SPLINE
  5
F6
330
1F
100
AcDbEntity
  8
0
  6
Continuous
 62
     7
370
    25
100
AcDbSpline
210
0.0
220
0.0
230
1.0
 70
     8
 71
     3
 72
    15
 73
    11
 74
     0
 42
0.000000001
 43
0.00000001
 40
0.0
 40
0.0
 40
0.0
 40
0.0
 40
0.1257421127824277
 40
0.2483729038226337
 40
0.3698227131065371
 40
0.4987247648983887
 40
0.626915923670508
 40
0.7508402192895078
 40
0.873155525402734
 40
0.9999999999999999
 40
0.9999999999999999
 40
0.9999999999999999
 40
0.9999999999999999
 10
-3103.084404799092
 20
8929.761940438231
 30
0.0
 10
-3103.086658677821
 20
8929.80194456458
 30
0.0
 10
-3103.091110666038
 20
8929.880962968251
 30
0.0
 10
-3103.125924453644
 20
8929.994475496194
 30
0.0
 10
-3103.183834838819
 20
8930.098728488849
 30
0.0
 10
-3103.262387028578
 20
8930.190748024956
 30
0.0
 10
-3103.355615581113
 20
8930.268865564021
 30
0.0
 10
-3103.460091217017
 20
8930.327510596817
 30
0.0
 10
-3103.575082740513
 20
8930.361018841955
 30
0.0
 10
-3103.654297195323
 20
8930.365603209366
 30
0.0
 10
-3103.694624393687
 20
8930.367937059855
 30
0.0
  0
SPLINE
  5
FA
330
1F
100
AcDbEntity
  8
0
  6
Continuous
 62
     7
370
    25
100
AcDbSpline
210
0.0
220
0.0
230
1.0
 70
     8
 71
     3
 72
    15
 73
    11
 74
     0
 42
0.000000001
 43
0.00000001
 40
0.0
 40
0.0
 40
0.0
 40
0.0
 40
0.1274086638640686
 40
0.2492093999587938
 40
0.3720839042325382
 40
0.4997357737771739
 40
0.6273876433217918
 40
0.7507906000412348
 40
0.8725913361359247
 40
1.0
 40
1.0
 40
1.0
 40
1.0
 10
-3103.694624393687
 20
8928.476045167961
 30
0.0
 10
-3103.653929680391
 20
8928.478326698554
 30
0.0
 10
-3103.574331442923
 20
8928.482789337537
 30
0.0
 10
-3103.459334871835
 20
8928.516691667368
 30
0.0
 10
-3103.354324021252
 20
8928.573904924422
 30
0.0
 10
-3103.261285550783
 20
8928.651909373859
 30
0.0
 10
-3103.183517879826
 20
8928.74519105662
 30
0.0
 10
-3103.124821770145
 20
8928.849607966977
 30
0.0
 10
-3103.091221732074
 20
8928.964954904919
 30
0.0
 10
-3103.086710945308
 20
8929.044527444235
 30
0.0
 10
-3103.084404799092
 20
8929.085209019315
 30
0.0
  0
SPLINE
  5
FC
330
1F
100
AcDbEntity
  8
0
  6
Continuous
 62
     7
370
    25
100
AcDbSpline
210
0.0
220
0.0
230
1.0
 70
     8
 71
     3
 72
    23
 73
    19
 74
     0
 42
0.000000001
 43
0.00000001
 40
0.0
 40
0.0
 40
0.0
 40
0.0
 40
0.0602270928971048
 40
0.1192957320091908
 40
0.1779404947570684
 40
0.2364844162257912
 40
0.2954167439820681
 40
0.3556629103136801
 40
0.4181241147893666
 40
0.4821809927853116
 40
0.5466999757700495
 40
0.6101828950384229
 40
0.6730761809147078
 40
0.7353821562772263
 40
0.7989787332068709
 40
0.8641683702521883
 40
0.9306148387332193
 40
1.0
 40
1.0
 40
1.0
 40
1.0
 10
-3102.476296690984
 20
8929.068317127421
 30
0.0
 10
-3102.477321355595
 20
8929.031317468294
 30
0.0
 10
-3102.479350975636
 20
8928.958029829668
 30
0.0
 10
-3102.495280719007
 20
8928.84956865915
 30
0.0
 10
-3102.523505086587
 20
8928.744916300186
 30
0.0
 10
-3102.559747113474
 20
8928.64276497567
 30
0.0
 10
-3102.609383285802
 20
8928.545277427636
 30
0.0
 10
-3102.668588859819
 20
8928.450514400269
 30
0.0
 10
-3102.739761917162
 20
8928.360331462098
 30
0.0
 10
-3102.819245779853
 20
8928.273802978896
 30
0.0
 10
-3102.907673260148
 20
8928.19548786675
 30
0.0
 10
-3103.001441653443
 20
8928.124737066628
 30
0.0
 10
-3103.102295717843
 20
8928.067087376628
 30
0.0
 10
-3103.20798228387
 20
8928.019085587526
 30
0.0
 10
-3103.319087732549
 20
8927.980453811042
 30
0.0
 10
-3103.436444351979
 20
8927.954892832968
 30
0.0
 10
-3103.559014345145
 20
8927.938300800752
 30
0.0
 10
-3103.642484629867
 20
8927.936450032214
 30
0.0
 10
-3103.685122704498
 20
8927.935504627423
 30
0.0
  0
SPLINE
  5
FE
330
1F
100
AcDbEntity
  8
0
  6
Continuous
 62
     7
370
    25
100
AcDbSpline
210
0.0
220
0.0
230
1.0
 70
     8
 71
     3
 72
    15
 73
    11
 74
     0
 42
0.000000001
 43
0.00000001
 40
0.0
 40
0.0
 40
0.0
 40
0.0
 40
0.1472985846902703
 40
0.2756504930886641
 40
0.3928141444240014
 40
0.5033990299456614
 40
0.6118667949944803
 40
0.7290304463297255
 40
0.855365350699347
 40
0.9999999999999999
 40
0.9999999999999999
 40
0.9999999999999999
 40
0.9999999999999999
 10
-3104.933011218011
 20
8927.935504627423
 30
0.0
 10
-3104.952403801784
 20
8927.93640950746
 30
0.0
 10
-3104.988694546129
 20
8927.93810287491
 30
0.0
 10
-3105.039852153991
 20
8927.948043414728
 30
0.0
 10
-3105.082979409338
 20
8927.967448524589
 30
0.0
 10
-3105.118960415693
 20
8927.994033451832
 30
0.0
 10
-3105.146385283989
 20
8928.029538509547
 30
0.0
 10
-3105.164861287707
 20
8928.072414323633
 30
0.0
 10
-3105.176859706528
 20
8928.122438854945
 30
0.0
 10
-3105.178254759971
 20
8928.158188072026
 30
0.0
 10
-3105.178999393686
 20
8928.177269830125
 30
0.0
  0
SPLINE
  5
100
330
1F
100
AcDbEntity
  8
0
  6
Continuous
 62
     7
370
    25
100
AcDbSpline
210
0.0
220
0.0
230
1.0
 70
     8
 71
     3
 72
    15
 73
    11
 74
     0
 42
0.000000001
 43
0.00000001
 40
0.0
 40
0.0
 40
0.0
 40
0.0
 40
0.1376465333874396
 40
0.2584939900653427
 40
0.3721777144533437
 40
0.4802669656691762
 40
0.5916828156085285
 40
0.7125302722863956
 40
0.8471387149837104
 40
1.0
 40
1.0
 40
1.0
 40
1.0
 10
-3105.178999393686
 20
8932.69373942472
 30
0.0
 10
-3105.178340086408
 20
8932.712836735815
 30
0.0
 10
-3105.177101937034
 20
8932.748700625905
 30
0.0
 10
-3105.163919478143
 20
8932.79890628966
 30
0.0
 10
-3105.143210144488
 20
8932.842049530216
 30
0.0
 10
-3105.112325771233
 20
8932.87708406778
 30
0.0
 10
-3105.073089234033
 20
8932.903874659976
 30
0.0
 10
-3105.025637211249
 20
8932.923064212828
 30
0.0
 10
-3104.969648202898
 20
8932.93284956591
 30
0.0
 10
-3104.929877233594
 20
8932.934582920565
 30
0.0
 10
-3104.908729123416
 20
8932.935504627421
 30
0.0
  0
SPLINE
  5
101
330
1F
100
AcDbEntity
  8
0
  6
Continuous
 62
     7
370
    25
100
AcDbSpline
210
0.0
220
0.0
230
1.0
 70
     8
 71
     3
 72
    15
 73
    11
 74
     0
 42
0.000000001
 43
0.00000001
 40
0.0
 40
0.0
 40
0.0
 40
0.0
 40
0.1691382693020365
 40
0.3176902073341626
 40
0.44741103563768
 40
0.5634106106292838
 40
0.6687664326273864
 40
0.7731538901270967
 40
0.8800408488351784
 40
1.0
 40
1.0
 40
1.0
 40
1.0
 10
-3104.908729123416
 20
8932.935504627421
 30
0.0
 10
-3104.8822662093
 20
8932.935221086515
 30
0.0
 10
-3104.83256126253
 20
8932.93468851532
 30
0.0
 10
-3104.763593994415
 20
8932.922428381406
 30
0.0
 10
-3104.703980529158
 20
8932.905717215737
 30
0.0
 10
-3104.655785365349
 20
8932.87874314735
 30
0.0
 10
-3104.616568734422
 20
8932.845450623854
 30
0.0
 10
-3104.590101671057
 20
8932.802938074541
 30
0.0
 10
-3104.5733030768
 20
8932.753373959538
 30
0.0
 10
-3104.571725518678
 20
8932.717819694986
 30
0.0
 10
-3104.570891285578
 20
8932.699018140935
 30
0.0
  0
SPLINE
  5
104
330
1F
100
AcDbEntity
  8
0
  6
Continuous
 62
     7
370
    25
100
AcDbSpline
210
0.0
220
0.0
230
1.0
 70
     8
 71
     3
 72
    23
 73
    19
 74
     0
 42
0.000000001
 43
0.00000001
 40
0.0
 40
0.0
 40
0.0
 40
0.0
 40
0.0685531417639217
 40
0.1347179803294563
 40
0.1991962546843855
 40
0.2623387307751855
 40
0.3251763369186011
 40
0.3873915998287826
 40
0.4512397782103725
 40
0.5161347178016004
 40
0.5810659883891666
 40
0.6431755650826992
 40
0.7039028057300829
 40
0.7628279826377472
 40
0.82159284978926
 40
0.8802974879193227
 40
0.9395647256157701
 40
1.0
 40
1.0
 40
1.0
 40
1.0
 10
-3103.660840609903
 20
8930.908477600395
 30
0.0
 10
-3103.619271057266
 20
8930.907468352132
 30
0.0
 10
-3103.537580181688
 20
8930.905485016516
 30
0.0
 10
-3103.417538470916
 20
8930.889698906027
 30
0.0
 10
-3103.303312464895
 20
8930.861604450634
 30
0.0
 10
-3103.193494815886
 20
8930.825237967863
 30
0.0
 10
-3103.090233246574
 20
8930.776117885192
 30
0.0
 10
-3102.991654628753
 20
8930.717497283084
 30
0.0
 10
-3102.898869052799
 20
8930.647841700338
 30
0.0
 10
-3102.812885243468
 20
8930.567591055395
 30
0.0
 10
-3102.734969805601
 20
8930.481023688659
 30
0.0
 10
-3102.665136478091
 20
8930.390899115442
 30
0.0
 10
-3102.607423084907
 20
8930.29680630334
 30
0.0
 10
-3102.558955423113
 20
8930.199914303006
 30
0.0
 10
-3102.522064004246
 20
8930.099283131853
 30
0.0
 10
-3102.4956444047
 20
8929.995293087948
 30
0.0
 10
-3102.47925391918
 20
8929.888094584947
 30
0.0
 10
-3102.4772888254
 20
8929.815489238592
 30
0.0
 10
-3102.476296690984
 20
8929.778832330125
 30
0.0
  0
SPLINE
  5
107
330
1F
100
AcDbEntity
  8
0
  6
Continuous
 62
     7
370
    25
100
AcDbSpline
210
0.0
220
0.0
230
1.0
 70
     8
 71
     3
 72
    15
 73
    11
 74
     0
 42
0.000000001
 43
0.00000001
 40
0.0
 40
0.0
 40
0.0
 40
0.0
 40
0.1208158510017742
 40
0.2307257204521206
 40
0.3358108859965899
 40
0.4414612828648222
 40
0.557242656343726
 40
0.6861667178993083
 40
0.832677457584422
 40
1.0
 40
1.0
 40
1.0
 40
1.0
 10
-3100.969539934227
 20
8928.17938131661
 30
0.0
 10
-3100.970427286559
 20
8928.160246628233
 30
0.0
 10
-3100.972121890408
 20
8928.12370452945
 30
0.0
 10
-3100.988477921884
 20
8928.072610190213
 30
0.0
 10
-3101.01517693152
 20
8928.028817456021
 30
0.0
 10
-3101.054319179546
 20
8927.994359880471
 30
0.0
 10
-3101.102537652172
 20
8927.966482676246
 30
0.0
 10
-3101.161942606916
 20
8927.947923097941
 30
0.0
 10
-3101.231386707389
 20
8927.938126396206
 30
0.0
 10
-3101.280951783862
 20
8927.93641635081
 30
0.0
 10
-3101.307377772065
 20
8927.935504627423
 30
0.0
  0
SPLINE
  5
108
330
1F
100
AcDbEntity
  8
0
  6
Continuous
 62
     7
370
    25
100
AcDbSpline
210
0.0
220
0.0
230
1.0
 70
     8
 71
     3
 72
    15
 73
    11
 74
     0
 42
0.000000001
 43
0.00000001
 40
0.0
 40
0.0
 40
0.0
 40
0.0
 40
0.1528612850162814
 40
0.2874697277135361
 40
0.4083171843914666
 40
0.5197330343306807
 40
0.6278222855464974
 40
0.7415060099344818
 40
0.8623534666123673
 40
1.0
 40
1.0
 40
1.0
 40
1.0
 10
-3101.307377772065
 20
8927.935504627423
 30
0.0
 10
-3101.328525882243
 20
8927.936426334281
 30
0.0
 10
-3101.368296851547
 20
8927.938159688933
 30
0.0
 10
-3101.424285859897
 20
8927.947945042017
 30
0.0
 10
-3101.471737882681
 20
8927.96713459487
 30
0.0
 10
-3101.510974419881
 20
8927.993925187062
 30
0.0
 10
-3101.541858793137
 20
8928.028959724628
 30
0.0
 10
-3101.562568126791
 20
8928.072102965185
 30
0.0
 10
-3101.575750585682
 20
8928.12230862894
 30
0.0
 10
-3101.576988735056
 20
8928.158172519028
 30
0.0
 10
-3101.577648042335
 20
8928.177269830125
 30
0.0
  0
SPLINE
  5
10A
330
1F
100
AcDbEntity
  8
0
  6
Continuous
 62
     7
370
    25
100
AcDbSpline
210
0.0
220
0.0
230
1.0
 70
     8
 71
     3
 72
    15
 73
    11
 74
     0
 42
0.000000001
 43
0.00000001
 40
0.0
 40
0.0
 40
0.0
 40
0.0
 40
0.1376465333874396
 40
0.2584939900653427
 40
0.3721777144533437
 40
0.4802669656691762
 40
0.5916828156085285
 40
0.7125302722863956
 40
0.8471387149837104
 40
1.0
 40
1.0
 40
1.0
 40
1.0
 10
-3101.577648042335
 20
8932.69373942472
 30
0.0
 10
-3101.576988735056
 20
8932.712836735815
 30
0.0
 10
-3101.575750585682
 20
8932.748700625905
 30
0.0
 10
-3101.562568126791
 20
8932.79890628966
 30
0.0
 10
-3101.541858793137
 20
8932.842049530216
 30
0.0
 10
-3101.510974419881
 20
8932.87708406778
 30
0.0
 10
-3101.471737882682
 20
8932.903874659976
 30
0.0
 10
-3101.424285859897
 20
8932.923064212828
 30
0.0
 10
-3101.368296851547
 20
8932.93284956591
 30
0.0
 10
-3101.328525882243
 20
8932.934582920565
 30
0.0
 10
-3101.307377772065
 20
8932.935504627421
 30
0.0
  0
SPLINE
  5
10B
330
1F
100
AcDbEntity
  8
0
  6
Continuous
 62
     7
370
    25
100
AcDbSpline
210
0.0
220
0.0
230
1.0
 70
     8
 71
     3
 72
    15
 73
    11
 74
     0
 42
0.000000001
 43
0.00000001
 40
0.0
 40
0.0
 40
0.0
 40
0.0
 40
0.1687372826955591
 40
0.3164867953630592
 40
0.4465009315750491
 40
0.5610794434177362
 40
0.6676231321872791
 40
0.7716984773789827
 40
0.8803995195840691
 40
1.0
 40
1.0
 40
1.0
 40
1.0
 10
-3101.307377772065
 20
8932.935504627421
 30
0.0
 10
-3101.280964696596
 20
8932.934570225674
 30
0.0
 10
-3101.231423839487
 20
8932.932817644327
 30
0.0
 10
-3101.161821644976
 20
8932.923298599773
 30
0.0
 10
-3101.103241505996
 20
8932.903970033292
 30
0.0
 10
-3101.053714977651
 20
8932.879107257315
 30
0.0
 10
-3101.015612307255
 20
8932.844275531812
 30
0.0
 10
-3100.988420119878
 20
8932.801708056531
 30
0.0
 10
-3100.972134782464
 20
8932.751527310136
 30
0.0
 10
-3100.970431981681
 20
8932.715683944043
 30
0.0
 10
-3100.969539934227
 20
8932.696906654448
 30
0.0
  0
SPLINE
  5
10E
330
1F
100
AcDbEntity
  8
0
  6
Continuous
 62
     7
370
    25
100
AcDbSpline
210
0.0
220
0.0
230
1.0
 70
     8
 71
     3
 72
    11
 73
     7
 74
     0
 42
0.000000001
 43
0.00000001
 40
0.0
 40
0.0
 40
0.0
 40
0.0
 40
0.2608513162076055
 40
0.5078905859947104
 40
0.7467957379980227
 40
1.0
 40
1.0
 40
1.0
 40
1.0
 10
-3099.374311893687
 20
8932.900665100397
 30
0.0
 10
-3099.361941273592
 20
8932.916085389706
 30
0.0
 10
-3099.337855056277
 20
8932.946109465829
 30
0.0
 10
-3099.291565653797
 20
8932.979555872465
 30
0.0
 10
-3099.238634425378
 20
8932.999795092706
 30
0.0
 10
-3099.20135034241
 20
8933.0019588701
 30
0.0
 10
-3099.182166623416
 20
8933.003072194992
 30
0.0
  0
SPLINE
  5
10F
330
1F
100
AcDbEntity
  8
0
  6
Continuous
 62
     7
370
    25
100
AcDbSpline
210
0.0
220
0.0
230
1.0
 70
     8
 71
     3
 72
    15
 73
    11
 74
     0
 42
0.000000001
 43
0.00000001
 40
0.0
 40
0.0
 40
0.0
 40
0.0
 40
0.1540252339659705
 40
0.2977651209541818
 40
0.4351151610674125
 40
0.5718982006584385
 40
0.7010171099184964
 40
0.8114907083374857
 40
0.9104177519506736
 40
1.0
 40
1.0
 40
1.0
 40
1.0
 10
-3099.182166623416
 20
8933.003072194992
 30
0.0
 10
-3099.159561935162
 20
8933.002102153912
 30
0.0
 10
-3099.115862032498
 20
8933.000226848213
 30
0.0
 10
-3099.053350876782
 20
8932.984550975938
 30
0.0
 10
-3098.998621410511
 20
8932.956059996981
 30
0.0
 10
-3098.951525380844
 20
8932.919698113488
 30
0.0
 10
-3098.914973059341
 20
8932.878003385347
 30
0.0
 10
-3098.886210731859
 20
8932.837531783554
 30
0.0
 10
-3098.86762441466
 20
8932.796952988265
 30
0.0
 10
-3098.865430490568
 20
8932.769211444906
 30
0.0
 10
-3098.864387907201
 20
8932.756028276071
 30
0.0
  0
SPLINE
  5
110
330
1F
100
AcDbEntity
  8
0
  6
Continuous
 62
     7
370
    25
100
AcDbSpline
210
0.0
220
0.0
230
1.0
 70
     8
 71
     3
 72
     9
 73
     5
 74
     0
 42
0.000000001
 43
0.00000001
 40
0.0
 40
0.0
 40
0.0
 40
0.0
 40
0.4684792731680213
 40
1.0
 40
1.0
 40
1.0
 40
1.0
 10
-3098.864387907201
 20
8932.756028276071
 30
0.0
 10
-3098.866768094455
 20
8932.73541186822
 30
0.0
 10
-3098.871848761606
 20
8932.69140478182
 30
0.0
 10
-3098.897308324519
 20
8932.655015306638
 30
0.0
 10
-3098.910840609903
 20
8932.635673546341
 30
0.0
  0
SPLINE
  5
113
330
1F
100
AcDbEntity
  8
0
  6
Continuous
 62
     7
370
    25
100
AcDbSpline
210
0.0
220
0.0
230
1.0
 70
     8
 71
     3
 72
    15
 73
    11
 74
     0
 42
0.000000001
 43
0.00000001
 40
0.0
 40
0.0
 40
0.0
 40
0.0
 40
0.1226177230356436
 40
0.2354791129026004
 40
0.3397384650544683
 40
0.4476334423268292
 40
0.5611761921816696
 40
0.6903366021262347
 40
0.8354274431761894
 40
1.0
 40
1.0
 40
1.0
 40
1.0
 10
-3098.868610880173
 20
8928.171991113908
 30
0.0
 10
-3098.869628837427
 20
8928.153593453739
 30
0.0
 10
-3098.871583756057
 20
8928.118261981346
 30
0.0
 10
-3098.88624254833
 20
8928.068853483577
 30
0.0
 10
-3098.911658124472
 20
8928.026715095466
 30
0.0
 10
-3098.947159666138
 20
8927.992266355259
 30
0.0
 10
-3098.993695500834
 20
8927.966938128457
 30
0.0
 10
-3099.048894025507
 20
8927.94784420915
 30
0.0
 10
-3099.114277799703
 20
8927.938187476351
 30
0.0
 10
-3099.160675502641
 20
8927.936435647738
 30
0.0
 10
-3099.185333853146
 20
8927.935504627423
 30
0.0
  0
SPLINE
  5
114
330
1F
100
AcDbEntity
  8
0
  6
Continuous
 62
     7
370
    25
100
AcDbSpline
210
0.0
220
0.0
230
1.0
 70
     8
 71
     3
 72
    11
 73
     7
 74
     0
 42
0.000000001
 43
0.00000001
 40
0.0
 40
0.0
 40
0.0
 40
0.0
 40
0.2028584217293597
 40
0.41776589041037
 40
0.6762772160275438
 40
1.0
 40
1.0
 40
1.0
 40
1.0
 10
-3099.185333853146
 20
8927.935504627423
 30
0.0
 10
-3099.20858031615
 20
8927.938488589669
 30
0.0
 10
-3099.256453996882
 20
8927.94463375059
 30
0.0
 10
-3099.319041036093
 20
8927.994597151397
 30
0.0
 10
-3099.368442558962
 20
8928.071423923151
 30
0.0
 10
-3099.390534062049
 20
8928.13402025636
 30
0.0
 10
-3099.402816961254
 20
8928.168823884178
 30
0.0
  0
SPLINE
  5
117
330
1F
100
AcDbEntity
  8
0
  6
Continuous
 62
     7
370
    25
100
AcDbSpline
210
0.0
220
0.0
230
1.0
 70
     8
 71
     3
 72
     9
 73
     5
 74
     0
 42
0.000000001
 43
0.00000001
 40
0.0
 40
0.0
 40
0.0
 40
0.0
 40
0.5715244711945061
 40
1.0
 40
1.0
 40
1.0
 40
1.0
 10
-3098.898171690984
 20
8928.279676924718
 30
0.0
 10
-3098.889608610995
 20
8928.259921857969
 30
0.0
 10
-3098.874625735508
 20
8928.225356292107
 30
0.0
 10
-3098.870415054111
 20
8928.187998159523
 30
0.0
 10
-3098.868610880173
 20
8928.171991113908
 30
0.0
  0
SPLINE
  5
118
330
1F
100
AcDbEntity
  8
0
  6
Continuous
 62
     7
370
    25
100
AcDbSpline
210
0.0
220
0.0
230
1.0
 70
     8
 71
     3
 72
    15
 73
    11
 74
     0
 42
0.000000001
 43
0.00000001
 40
0.0
 40
0.0
 40
0.0
 40
0.0
 40
0.1192175102584368
 40
0.2297017703974251
 40
0.3334438581371501
 40
0.4396463856240859
 40
0.5549287995728964
 40
0.6845266202812545
 40
0.8318030273728381
 40
1.0
 40
1.0
 40
1.0
 40
1.0
 10
-3095.273593988281
 20
8928.24378165445
 30
0.0
 10
-3095.274533948881
 20
8928.225017232786
 30
0.0
 10
-3095.276345013492
 20
8928.188862972664
 30
0.0
 10
-3095.292224645638
 20
8928.13820625062
 30
0.0
 10
-3095.31964870964
 20
8928.095292772106
 30
0.0
 10
-3095.358042204557
 20
8928.060688820475
 30
0.0
 10
-3095.406955363703
 20
8928.034327641006
 30
0.0
 10
-3095.465933437541
 20
8928.015384856477
 30
0.0
 10
-3095.535460169354
 20
8928.005726444333
 30
0.0
 10
-3095.585012587042
 20
8928.003995213534
 30
0.0
 10
-3095.611431826119
 20
8928.003072194988
 30
0.0
  0
SPLINE
  5
119
330
1F
100
AcDbEntity
  8
0
  6
Continuous
 62
     7
370
    25
100
AcDbSpline
210
0.0
220
0.0
230
1.0
 70
     8
 71
     3
 72
    15
 73
    11
 74
     0
 42
0.000000001
 43
0.00000001
 40
0.0
 40
0.0
 40
0.0
 40
0.0
 40
0.1535989970092404
 40
0.288857063072725
 40
0.4102877322894907
 40
0.5222412776216429
 40
0.6308521699902456
 40
0.742805715322486
 40
0.8642363845391569
 40
1.0
 40
1.0
 40
1.0
 40
1.0
 10
-3095.611431826119
 20
8928.003072194988
 30
0.0
 10
-3095.632579606759
 20
8928.003994063605
 30
0.0
 10
-3095.672349956338
 20
8928.005727722455
 30
0.0
 10
-3095.728343050601
 20
8928.015511069929
 30
0.0
 10
-3095.775781808559
 20
8928.03470713395
 30
0.0
 10
-3095.815062709058
 20
8928.061475949988
 30
0.0
 10
-3095.845577131803
 20
8928.096350429225
 30
0.0
 10
-3095.866889579846
 20
8928.138827563114
 30
0.0
 10
-3095.879660573667
 20
8928.188504929429
 30
0.0
 10
-3095.880996767636
 20
8928.223993022728
 30
0.0
 10
-3095.881702096389
 20
8928.242725911206
 30
0.0
  0
SPLINE
  5
11B
330
1F
100
AcDbEntity
  8
0
  6
Continuous
 62
     7
370
    25
100
AcDbSpline
210
0.0
220
0.0
230
1.0
 70
     8
 71
     3
 72
    23
 73
    19
 74
     0
 42
0.000000001
 43
0.00000001
 40
0.0
 40
0.0
 40
0.0
 40
0.0
 40
0.0334262020353667
 40
0.0709252559820507
 40
0.1118634144878344
 40
0.1569064398987504
 40
0.2059791538484771
 40
0.2585999398510822
 40
0.315260269714956
 40
0.3757213361297248
 40
0.439986665789415
 40
0.5083974803188978
 40
0.5806187561822873
 40
0.6566525006817043
 40
0.7367390392849411
 40
0.8206408278564992
 40
0.9083591900053859
 40
1.0
 40
1.0
 40
1.0
 40
1.0
 10
-3095.881702096389
 20
8931.877649897691
 30
0.0
 10
-3095.893749281931
 20
8931.833932799625
 30
0.0
 10
-3095.919311555429
 20
8931.741171846168
 30
0.0
 10
-3095.965376302022
 20
8931.596567197244
 30
0.0
 10
-3096.01684449979
 20
8931.437167918999
 30
0.0
 10
-3096.077626235365
 20
8931.264330722996
 30
0.0
 10
-3096.144660965955
 20
8931.076910177822
 30
0.0
 10
-3096.220255193092
 20
8930.87583834736
 30
0.0
 10
-3096.302340232404
 20
8930.660712416138
 30
0.0
 10
-3096.392239588052
 20
8930.431670966767
 30
0.0
 10
-3096.489387665264
 20
8930.188356427541
 30
0.0
 10
-3096.595059244591
 20
8929.931282875274
 30
0.0
 10
-3096.707965312632
 20
8929.659928670673
 30
0.0
 10
-3096.828636410338
 20
8929.374656660084
 30
0.0
 10
-3096.956113287612
 20
8929.07506080994
 30
0.0
 10
-3097.091406374465
 20
8928.761570702025
 30
0.0
 10
-3097.233663486567
 20
8928.434014197306
 30
0.0
 10
-3097.332480139516
 20
8928.211684847936
 30
0.0
 10
-3097.382968988281
 20
8928.09808908688
 30
0.0
  0
SPLINE
  5
11C
330
1F
100
AcDbEntity
  8
0
  6
Continuous
 62
     7
370
    25
100
AcDbSpline
210
0.0
220
0.0
230
1.0
 70
     8
 71
     3
 72
    11
 73
     7
 74
     0
 42
0.000000001
 43
0.00000001
 40
0.0
 40
0.0
 40
0.0
 40
0.0
 40
0.2328090547618146
 40
0.4629430035604931
 40
0.7138780282479495
 40
1.0
 40
1.0
 40
1.0
 40
1.0
 10
-3097.382968988281
 20
8928.09808908688
 30
0.0
 10
-3097.39947802202
 20
8928.073184144621
 30
0.0
 10
-3097.432306391485
 20
8928.023660431782
 30
0.0
 10
-3097.509244765378
 20
8927.971560965572
 30
0.0
 10
-3097.603075395236
 20
8927.94065484184
 30
0.0
 10
-3097.671620097293
 20
8927.937294747871
 30
0.0
 10
-3097.7081379072
 20
8927.935504627423
 30
0.0
  0
SPLINE
  5
11D
330
1F
100
AcDbEntity
  8
0
  6
Continuous
 62
     7
370
    25
100
AcDbSpline
210
0.0
220
0.0
230
1.0
 70
     8
 71
     3
 72
    15
 73
    11
 74
     0
 42
0.000000001
 43
0.00000001
 40
0.0
 40
0.0
 40
0.0
 40
0.0
 40
0.1464537970122922
 40
0.2740558316442756
 40
0.3917684023118881
 40
0.4994269965368433
 40
0.6105024493604148
 40
0.7260022282037628
 40
0.855976208059902
 40
1.0
 40
1.0
 40
1.0
 40
1.0
 10
-3097.7081379072
 20
8927.935504627423
 30
0.0
 10
-3097.729332469627
 20
8927.936167235051
 30
0.0
 10
-3097.768993397174
 20
8927.937407158415
 30
0.0
 10
-3097.824492669446
 20
8927.950368205842
 30
0.0
 10
-3097.871474177443
 20
8927.971092448883
 30
0.0
 10
-3097.91059611808
 20
8928.00085316196
 30
0.0
 10
-3097.940190471035
 20
8928.039662237283
 30
0.0
 10
-3097.961881452477
 20
8928.08678976607
 30
0.0
 10
-3097.974137340331
 20
8928.142168051521
 30
0.0
 10
-3097.975552715323
 20
8928.181783998805
 30
0.0
 10
-3097.976296690984
 20
8928.202607667961
 30
0.0
  0
SPLINE
  5
11F
330
1F
100
AcDbEntity
  8
0
  6
Continuous
 62
     7
370
    25
100
AcDbSpline
210
0.0
220
0.0
230
1.0
 70
     8
 71
     3
 72
    15
 73
    11
 74
     0
 42
0.000000001
 43
0.00000001
 40
0.0
 40
0.0
 40
0.0
 40
0.0
 40
0.137355430253226
 40
0.2604035025255109
 40
0.3715837235510894
 40
0.4813661282244203
 40
0.5925463492500329
 40
0.7131382304872359
 40
0.8474619951863104
 40
1.0
 40
1.0
 40
1.0
 40
1.0
 10
-3097.976296690984
 20
8932.760251249043
 30
0.0
 10
-3097.975568631099
 20
8932.779322978246
 30
0.0
 10
-3097.974188348252
 20
8932.815479867522
 30
0.0
 10
-3097.961762280032
 20
8932.866022408385
 30
0.0
 10
-3097.939824226561
 20
8932.908794646723
 30
0.0
 10
-3097.910062710986
 20
8932.944669726616
 30
0.0
 10
-3097.870322615948
 20
8932.971392394305
 30
0.0
 10
-3097.822954302849
 20
8932.99064721352
 30
0.0
 10
-3097.766939509729
 20
8933.000412462858
 30
0.0
 10
-3097.727172451295
 20
8933.002148866723
 30
0.0
 10
-3097.706026420714
 20
8933.003072194992
 30
0.0
  0
SPLINE
  5
120
330
1F
100
AcDbEntity
  8
0
  6
Continuous
 62
     7
370
    25
100
AcDbSpline
210
0.0
220
0.0
230
1.0
 70
     8
 71
     3
 72
    15
 73
    11
 74
     0
 42
0.000000001
 43
0.00000001
 40
0.0
 40
0.0
 40
0.0
 40
0.0
 40
0.1675680039011324
 40
0.31429367424233
 40
0.4434068668690028
 40
0.5582581848719491
 40
0.6655816592801603
 40
0.7689358058593745
 40
0.879006912638619
 40
1.0
 40
1.0
 40
1.0
 40
1.0
 10
-3097.706026420714
 20
8933.003072194992
 30
0.0
 10
-3097.679609287886
 20
8933.002146934368
 30
0.0
 10
-3097.63006082072
 20
8933.000411498288
 30
0.0
 10
-3097.560508301531
 20
8932.99078053649
 30
0.0
 10
-3097.501611401598
 20
8932.97175134333
 30
0.0
 10
-3097.45222781975
 20
8932.945550523174
 30
0.0
 10
-3097.414571786979
 20
8932.909788439934
 30
0.0
 10
-3097.386763909666
 20
8932.866941965072
 30
0.0
 10
-3097.370848132561
 20
8932.815869047437
 30
0.0
 10
-3097.369102602112
 20
8932.779365664492
 30
0.0
 10
-3097.368188582876
 20
8932.760251249043
 30
0.0
  0
SPLINE
  5
122
330
1F
100
AcDbEntity
  8
0
  6
Continuous
 62
     7
370
    25
100
AcDbSpline
210
0.0
220
0.0
230
1.0
 70
     8
 71
     3
 72
    23
 73
    19
 74
     0
 42
0.000000001
 43
0.00000001
 40
0.0
 40
0.0
 40
0.0
 40
0.0
 40
0.0333964054255562
 40
0.0706152794128788
 40
0.1118491904857455
 40
0.1568612779401294
 40
0.2056604075302471
 40
0.2582535298716439
 40
0.3149813657476763
 40
0.3755144664322007
 40
0.4397603508376068
 40
0.5082526710923455
 40
0.580460557335535
 40
0.6565848896394092
 40
0.7364261993995969
 40
0.8204279498876295
 40
0.9083548486788549
 40
1.0
 40
1.0
 40
1.0
 40
1.0
 10
-3097.368188582876
 20
8929.060926924718
 30
0.0
 10
-3097.356515819585
 20
8929.104648386603
 30
0.0
 10
-3097.331834257879
 20
8929.197095558924
 30
0.0
 10
-3097.28653012159
 20
8929.341738645844
 30
0.0
 10
-3097.235092531652
 20
8929.500910147233
 30
0.0
 10
-3097.175775813584
 20
8929.674009708462
 30
0.0
 10
-3097.109163827098
 20
8929.860852686405
 30
0.0
 10
-3097.035182701557
 20
8930.061912535892
 30
0.0
 10
-3096.95281114845
 20
8930.27680416433
 30
0.0
 10
-3096.862676740656
 20
8930.505608354953
 30
0.0
 10
-3096.767217418257
 20
8930.749457334636
 30
0.0
 10
-3096.660795690925
 20
8931.0059405071
 30
0.0
 10
-3096.549682305752
 20
8931.27789007808
 30
0.0
 10
-3096.428559629356
 20
8931.56232845097
 30
0.0
 10
-3096.30218290318
 20
8931.861887318766
 30
0.0
 10
-3096.167166592248
 20
8932.175152894633
 30
0.0
 10
-3096.023204760626
 20
8932.501960769941
 30
0.0
 10
-3095.925322269233
 20
8932.724700393212
 30
0.0
 10
-3095.87536763693
 20
8932.838376249043
 30
0.0
  0
SPLINE
  5
123
330
1F
100
AcDbEntity
  8
0
  6
Continuous
 62
     7
370
    25
100
AcDbSpline
210
0.0
220
0.0
230
1.0
 70
     8
 71
     3
 72
    11
 73
     7
 74
     0
 42
0.000000001
 43
0.00000001
 40
0.0
 40
0.0
 40
0.0
 40
0.0
 40
0.2670118619317478
 40
0.5105832502390231
 40
0.7477324693016797
 40
1.0
 40
1.0
 40
1.0
 40
1.0
 10
-3095.87536763693
 20
8932.838376249043
 30
0.0
 10
-3095.859702555671
 20
8932.863294671239
 30
0.0
 10
-3095.829747601434
 20
8932.910943973791
 30
0.0
 10
-3095.766171191107
 20
8932.964848995352
 30
0.0
 10
-3095.690982130021
 20
8932.997415589509
 30
0.0
 10
-3095.637095794441
 20
8933.001148225541
 30
0.0
 10
-3095.609320339633
 20
8933.003072194992
 30
0.0
  0
SPLINE
  5
124
330
1F
100
AcDbEntity
  8
0
  6
Continuous
 62
     7
370
    25
100
AcDbSpline
210
0.0
220
0.0
230
1.0
 70
     8
 71
     3
 72
    15
 73
    11
 74
     0
 42
0.000000001
 43
0.00000001
 40
0.0
 40
0.0
 40
0.0
 40
0.0
 40
0.1624566800599278
 40
0.3033020102420473
 40
0.4291664366098457
 40
0.5438062297015254
 40
0.6493516081970013
 40
0.756938502654645
 40
0.8719246710993442
 40
1.0
 40
1.0
 40
1.0
 40
1.0
 10
-3095.609320339633
 20
8933.003072194992
 30
0.0
 10
-3095.582849564028
 20
8933.002447675042
 30
0.0
 10
-3095.533429377363
 20
8933.001281714025
 30
0.0
 10
-3095.464642953462
 20
8932.988044521024
 30
0.0
 10
-3095.405213576651
 20
8932.96909314957
 30
0.0
 10
-3095.356758594722
 20
8932.939213086476
 30
0.0
 10
-3095.319168966296
 20
8932.90065617077
 30
0.0
 10
-3095.29220759724
 20
8932.853979320504
 30
0.0
 10
-3095.276160398263
 20
8932.798571809082
 30
0.0
 10
-3095.274479628776
 20
8932.758955492764
 30
0.0
 10
-3095.273593988281
 20
8932.738080640936
 30
0.0
  0
SPLINE
  5
126
330
1F
100
AcDbEntity
  8
0
  6
Continuous
 62
     7
370
    25
100
AcDbSpline
210
0.0
220
0.0
230
1.0
 70
     8
 71
     3
 72
    15
 73
    11
 74
     0
 42
0.000000001
 43
0.00000001
 40
0.0
 40
0.0
 40
0.0
 40
0.0
 40
0.1210437057284054
 40
0.2311608615820495
 40
0.3345582471447461
 40
0.4404078971911145
 40
0.5564076305371856
 40
0.685574838637979
 40
0.8323618927655709
 40
1.0
 40
1.0
 40
1.0
 40
1.0
 10
-3091.67224263693
 20
8928.178325573368
 30
0.0
 10
-3091.67315010506
 20
8928.159203423373
 30
0.0
 10
-3091.674883124663
 20
8928.122685269524
 30
0.0
 10
-3091.690884532775
 20
8928.071713451936
 30
0.0
 10
-3091.71825851822
 20
8928.02871288309
 30
0.0
 10
-3091.756976145332
 20
8927.994331797763
 30
0.0
 10
-3091.805254626729
 20
8927.966491439242
 30
0.0
 10
-3091.864640743638
 20
8927.947920294406
 30
0.0
 10
-3091.934090811726
 20
8927.938127256819
 30
0.0
 10
-3091.983654973985
 20
8927.936416650089
 30
0.0
 10
-3092.010080474768
 20
8927.935504627423
 30
0.0
  0
SPLINE
  5
129
330
1F
100
AcDbEntity
  8
0
  6
Continuous
 62
     7
370
    25
100
AcDbSpline
210
0.0
220
0.0
230
1.0
 70
     8
 71
     3
 72
    11
 73
     7
 74
     0
 42
0.000000001
 43
0.00000001
 40
0.0
 40
0.0
 40
0.0
 40
0.0
 40
0.2328090547618146
 40
0.4629430035604931
 40
0.7138780282479495
 40
1.0
 40
1.0
 40
1.0
 40
1.0
 10
-3093.78161763693
 20
8928.09808908688
 30
0.0
 10
-3093.798126670668
 20
8928.073184144621
 30
0.0
 10
-3093.830955040134
 20
8928.023660431782
 30
0.0
 10
-3093.907893414027
 20
8927.971560965572
 30
0.0
 10
-3094.001724043885
 20
8927.94065484184
 30
0.0
 10
-3094.070268745942
 20
8927.937294747871
 30
0.0
 10
-3094.106786555849
 20
8927.935504627423
 30
0.0
  0
SPLINE
  5
12A
330
1F
100
AcDbEntity
  8
0
  6
Continuous
 62
     7
370
    25
100
AcDbSpline
210
0.0
220
0.0
230
1.0
 70
     8
 71
     3
 72
    15
 73
    11
 74
     0
 42
0.000000001
 43
0.00000001
 40
0.0
 40
0.0
 40
0.0
 40
0.0
 40
0.1464537970122922
 40
0.2740558316442756
 40
0.3917684023118881
 40
0.4994269965368433
 40
0.6105024493604148
 40
0.7260022282037628
 40
0.855976208059902
 40
1.0
 40
1.0
 40
1.0
 40
1.0
 10
-3094.106786555849
 20
8927.935504627423
 30
0.0
 10
-3094.127981118276
 20
8927.936167235051
 30
0.0
 10
-3094.167642045823
 20
8927.937407158415
 30
0.0
 10
-3094.223141318095
 20
8927.950368205842
 30
0.0
 10
-3094.270122826092
 20
8927.971092448883
 30
0.0
 10
-3094.309244766729
 20
8928.00085316196
 30
0.0
 10
-3094.338839119684
 20
8928.039662237283
 30
0.0
 10
-3094.360530101125
 20
8928.08678976607
 30
0.0
 10
-3094.37278598898
 20
8928.142168051521
 30
0.0
 10
-3094.374201363972
 20
8928.181783998805
 30
0.0
 10
-3094.374945339633
 20
8928.202607667961
 30
0.0
  0
SPLINE
  5
12C
330
1F
100
AcDbEntity
  8
0
  6
Continuous
 62
     7
370
    25
100
AcDbSpline
210
0.0
220
0.0
230
1.0
 70
     8
 71
     3
 72
    15
 73
    11
 74
     0
 42
0.000000001
 43
0.00000001
 40
0.0
 40
0.0
 40
0.0
 40
0.0
 40
0.1526075283706485
 40
0.2869925149659744
 40
0.4076393594010952
 40
0.5203370983718408
 40
0.6282469165429226
 40
0.7394778111328629
 40
0.8625819660822259
 40
1.0
 40
1.0
 40
1.0
 40
1.0
 10
-3092.010080474768
 20
8927.935504627423
 30
0.0
 10
-3092.031234360993
 20
8927.936417891284
 30
0.0
 10
-3092.07101619269
 20
8927.938135368102
 30
0.0
 10
-3092.126933584191
 20
8927.948025405356
 30
0.0
 10
-3092.174809081092
 20
8927.966950594453
 30
0.0
 10
-3092.21339734118
 20
8927.995064696344
 30
0.0
 10
-3092.24426026935
 20
8928.029772728616
 30
0.0
 10
-3092.265738145361
 20
8928.072629272347
 30
0.0
 10
-3092.278265541629
 20
8928.123074801175
 30
0.0
 10
-3092.2796306757
 20
8928.159246193973
 30
0.0
 10
-3092.280350745038
 20
8928.178325573368
 30
0.0
  0
SPLINE
  5
12D
330
1F
100
AcDbEntity
  8
0
  6
Continuous
 62
     7
370
    25
100
AcDbSpline
210
0.0
220
0.0
230
1.0
 70
     8
 71
     3
 72
    15
 73
    11
 74
     0
 42
0.000000001
 43
0.00000001
 40
0.0
 40
0.0
 40
0.0
 40
0.0
 40
0.1675680039011324
 40
0.31429367424233
 40
0.4434068668690028
 40
0.5582581848719491
 40
0.6655816592801603
 40
0.7689358058593745
 40
0.879006912638619
 40
1.0
 40
1.0
 40
1.0
 40
1.0
 10
-3094.104675069362
 20
8933.003072194992
 30
0.0
 10
-3094.078257936535
 20
8933.002146934368
 30
0.0
 10
-3094.028709469369
 20
8933.000411498288
 30
0.0
 10
-3093.959156950179
 20
8932.99078053649
 30
0.0
 10
-3093.900260050247
 20
8932.97175134333
 30
0.0
 10
-3093.850876468398
 20
8932.945550523174
 30
0.0
 10
-3093.813220435627
 20
8932.909788439934
 30
0.0
 10
-3093.785412558314
 20
8932.866941965072
 30
0.0
 10
-3093.76949678121
 20
8932.815869047437
 30
0.0
 10
-3093.767751250761
 20
8932.779365664492
 30
0.0
 10
-3093.766837231525
 20
8932.760251249043
 30
0.0
  0
SPLINE
  5
130
330
1F
100
AcDbEntity
  8
0
  6
Continuous
 62
     7
370
    25
100
AcDbSpline
210
0.0
220
0.0
230
1.0
 70
     8
 71
     3
 72
    11
 73
     7
 74
     0
 42
0.000000001
 43
0.00000001
 40
0.0
 40
0.0
 40
0.0
 40
0.0
 40
0.2670118619317478
 40
0.5105832502390231
 40
0.7477324693016797
 40
1.0
 40
1.0
 40
1.0
 40
1.0
 10
-3092.274016285579
 20
8932.838376249043
 30
0.0
 10
-3092.258351204319
 20
8932.863294671239
 30
0.0
 10
-3092.228396250082
 20
8932.910943973791
 30
0.0
 10
-3092.164819839756
 20
8932.964848995352
 30
0.0
 10
-3092.08963077867
 20
8932.997415589509
 30
0.0
 10
-3092.03574444309
 20
8933.001148225541
 30
0.0
 10
-3092.007968988281
 20
8933.003072194992
 30
0.0
  0
SPLINE
  5
131
330
1F
100
AcDbEntity
  8
0
  6
Continuous
 62
     7
370
    25
100
AcDbSpline
210
0.0
220
0.0
230
1.0
 70
     8
 71
     3
 72
    15
 73
    11
 74
     0
 42
0.000000001
 43
0.00000001
 40
0.0
 40
0.0
 40
0.0
 40
0.0
 40
0.1619330347537503
 40
0.3023243793193985
 40
0.4285035570816408
 40
0.5416496008328412
 40
0.6484118311982211
 40
0.7556519416869434
 40
0.8723374952737101
 40
1.0
 40
1.0
 40
1.0
 40
1.0
 10
-3092.007968988281
 20
8933.003072194992
 30
0.0
 10
-3091.981521111649
 20
8933.002394510102
 30
0.0
 10
-3091.932143676717
 20
8933.001129291657
 30
0.0
 10
-3091.862962615166
 20
8932.988517079768
 30
0.0
 10
-3091.804495991993
 20
8932.967488344286
 30
0.0
 10
-3091.754669944305
 20
8932.939472131218
 30
0.0
 10
-3091.718222458002
 20
8932.899530145532
 30
0.0
 10
-3091.690540873722
 20
8932.852730764816
 30
0.0
 10
-3091.674979034831
 20
8932.796738118086
 30
0.0
 10
-3091.673181683948
 20
8932.756823180862
 30
0.0
 10
-3091.67224263693
 20
8932.735969154448
 30
0.0
  0
SPLINE
  5
133
330
1F
100
AcDbEntity
  8
0
  6
Continuous
 62
     7
370
    25
100
AcDbSpline
210
0.0
220
0.0
230
1.0
 70
     8
 71
     3
 72
    15
 73
    11
 74
     0
 42
0.000000001
 43
0.00000001
 40
0.0
 40
0.0
 40
0.0
 40
0.0
 40
0.137355430253226
 40
0.2604035025255109
 40
0.3715837235510894
 40
0.4813661282244203
 40
0.5925463492500329
 40
0.7131382304872359
 40
0.8474619951863104
 40
1.0
 40
1.0
 40
1.0
 40
1.0
 10
-3094.374945339633
 20
8932.760251249043
 30
0.0
 10
-3094.374217279747
 20
8932.779322978246
 30
0.0
 10
-3094.372836996901
 20
8932.815479867522
 30
0.0
 10
-3094.360410928681
 20
8932.866022408385
 30
0.0
 10
-3094.338472875209
 20
8932.908794646723
 30
0.0
 10
-3094.308711359635
 20
8932.944669726616
 30
0.0
 10
-3094.268971264597
 20
8932.971392394305
 30
0.0
 10
-3094.221602951498
 20
8932.99064721352
 30
0.0
 10
-3094.165588158377
 20
8933.000412462858
 30
0.0
 10
-3094.125821099944
 20
8933.002148866723
 30
0.0
 10
-3094.104675069362
 20
8933.003072194992
 30
0.0
  0
SPLINE
  5
136
330
1F
100
AcDbEntity
  8
0
  6
Continuous
 62
     7
370
    25
100
AcDbSpline
210
0.0
220
0.0
230
1.0
 70
     8
 71
     3
 72
    15
 73
    11
 74
     0
 42
0.000000001
 43
0.00000001
 40
0.0
 40
0.0
 40
0.0
 40
0.0
 40
0.1554074499271312
 40
0.2929896131308594
 40
0.4140754123057688
 40
0.5263432486265937
 40
0.6346456798525641
 40
0.7462812707166363
 40
0.8646219609675642
 40
1.0
 40
1.0
 40
1.0
 40
1.0
 10
-3092.718484190984
 20
8933.678747870665
 30
0.0
 10
-3092.694154428495
 20
8933.678017598037
 30
0.0
 10
-3092.648285535448
 20
8933.676640815298
 30
0.0
 10
-3092.58417844328
 20
8933.66448694183
 30
0.0
 10
-3092.530140498147
 20
8933.642717475492
 30
0.0
 10
-3092.483903926133
 20
8933.61473353309
 30
0.0
 10
-3092.449397033721
 20
8933.57489250357
 30
0.0
 10
-3092.424648600219
 20
8933.52758077693
 30
0.0
 10
-3092.411133137373
 20
8933.471479875181
 30
0.0
 10
-3092.409152497775
 20
8933.431774756325
 30
0.0
 10
-3092.40809567747
 20
8933.410589086881
 30
0.0
  0
SPLINE
  5
137
330
1F
100
AcDbEntity
  8
0
  6
Continuous
 62
     7
370
    25
100
AcDbSpline
210
0.0
220
0.0
230
1.0
 70
     8
 71
     3
 72
    15
 73
    11
 74
     0
 42
0.000000001
 43
0.00000001
 40
0.0
 40
0.0
 40
0.0
 40
0.0
 40
0.1344560931062149
 40
0.2563238532273756
 40
0.367199188004297
 40
0.4747640624892907
 40
0.5887445069532377
 40
0.7090056926231729
 40
0.8456508994653458
 40
1.0
 40
1.0
 40
1.0
 40
1.0
 10
-3092.40809567747
 20
8933.410589086881
 30
0.0
 10
-3092.409231312672
 20
8933.38941842486
 30
0.0
 10
-3092.411396260232
 20
8933.349059185359
 30
0.0
 10
-3092.424242896948
 20
8933.292113662052
 30
0.0
 10
-3092.449329678043
 20
8933.244037628296
 30
0.0
 10
-3092.484511125423
 20
8933.20456237065
 30
0.0
 10
-3092.529408904759
 20
8933.173831849024
 30
0.0
 10
-3092.584293780251
 20
8933.152641228755
 30
0.0
 10
-3092.648250579794
 20
8933.140261962817
 30
0.0
 10
-3092.694142313409
 20
8933.13891943387
 30
0.0
 10
-3092.718484190984
 20
8933.138207330125
 30
0.0
  0
SPLINE
  5
138
330
1F
100
AcDbEntity
  8
0
  6
Continuous
 62
     7
370
    25
100
AcDbSpline
210
0.0
220
0.0
230
1.0
 70
     8
 71
     3
 72
    15
 73
    11
 74
     0
 42
0.000000001
 43
0.00000001
 40
0.0
 40
0.0
 40
0.0
 40
0.0
 40
0.1534986399877913
 40
0.2861624950130259
 40
0.407513825038083
 40
0.5193942232497158
 40
0.6262704909467284
 40
0.7404282195072929
 40
0.8617795495322665
 40
1.0
 40
1.0
 40
1.0
 40
1.0
 10
-3093.663374393687
 20
8933.410589086881
 30
0.0
 10
-3093.662484054003
 20
8933.431740991211
 30
0.0
 10
-3093.660824222845
 20
8933.47117379477
 30
0.0
 10
-3093.650779391599
 20
8933.52677868589
 30
0.0
 10
-3093.631691971469
 20
8933.573823085228
 30
0.0
 10
-3093.605291909466
 20
8933.613180632676
 30
0.0
 10
-3093.569521846558
 20
8933.642840782944
 30
0.0
 10
-3093.52683121857
 20
8933.663731633373
 30
0.0
 10
-3093.476553943185
 20
8933.676831425753
 30
0.0
 10
-3093.440700786568
 20
8933.678081965556
 30
0.0
 10
-3093.421609190984
 20
8933.678747870665
 30
0.0
  0
SPLINE
  5
139
330
1F
100
AcDbEntity
  8
0
  6
Continuous
 62
     7
370
    25
100
AcDbSpline
210
0.0
220
0.0
230
1.0
 70
     8
 71
     3
 72
    15
 73
    11
 74
     0
 42
0.000000001
 43
0.00000001
 40
0.0
 40
0.0
 40
0.0
 40
0.0
 40
0.1370725060215398
 40
0.2574159925264771
 40
0.3706256216557738
 40
0.4799476769280954
 40
0.5908988893258318
 40
0.711242375830655
 40
0.8477761924315503
 40
1.0
 40
1.0
 40
1.0
 40
1.0
 10
-3093.421609190984
 20
8933.138207330125
 30
0.0
 10
-3093.440712087904
 20
8933.138860436144
 30
0.0
 10
-3093.476586467918
 20
8933.14008693983
 30
0.0
 10
-3093.526722144949
 20
8933.153347096464
 30
0.0
 10
-3093.570319067153
 20
8933.173891290715
 30
0.0
 10
-3093.604614617985
 20
8933.205973590342
 30
0.0
 10
-3093.631796194908
 20
8933.245106581346
 30
0.0
 10
-3093.651086247482
 20
8933.292963065773
 30
0.0
 10
-3093.660617400868
 20
8933.349334802107
 30
0.0
 10
-3093.662422698413
 20
8933.389444522083
 30
0.0
 10
-3093.663374393687
 20
8933.410589086881
 30
0.0
  0
CIRCLE
  5
13A
330
1F
100
AcDbEntity
  8
0
  6
Continuous
 62
     7
370
    25
100
AcDbCircle
 10
-3116.0349320683
 20
8937.0180038049
 30
0.0
 40
1.499999999998181
  0
CIRCLE
  5
13B
330
1F
100
AcDbEntity
  8
0
  6
Continuous
 62
     7
370
    25
100
AcDbCircle
 10
-3116.0349320683
 20
8937.0180038049
 30
0.0
 40
0.749999999998181
  0
SPLINE
  5
1DA
330
1F
100
AcDbEntity
  8
0
  6
Continuous
 62
     7
370
    25
100
AcDbSpline
210
0.0
220
0.0
230
1.0
 70
     8
 71
     3
 72
     8
 73
     4
 74
     0
 42
0.000000001
 43
0.00000001
 40
0.2339449541284404
 40
0.2339449541284404
 40
0.2339449541284404
 40
0.2339449541284404
 40
0.2385321100917431
 40
0.2385321100917431
 40
0.2385321100917431
 40
0.2385321100917431
 10
-3093.853251536034
 20
8973.091323319213
 30
0.0
 10
-3093.853251536034
 20
8973.892439319214
 30
0.0
 10
-3094.134556536033
 20
8974.152111985879
 30
0.0
 10
-3094.697166536033
 20
8973.870341319212
 30
0.0
  0
SPLINE
  5
1DB
330
1F
100
AcDbEntity
  8
0
  6
Continuous
 62
     7
370
    25
100
AcDbSpline
210
0.0
220
0.0
230
1.0
 70
     8
 71
     3
 72
     8
 73
     4
 74
     0
 42
0.000000001
 43
0.00000001
 40
0.2293577981651376
 40
0.2293577981651376
 40
0.2293577981651376
 40
0.2293577981651376
 40
0.2339449541284404
 40
0.2339449541284404
 40
0.2339449541284404
 40
0.2339449541284404
 10
-3093.756096536034
 20
8971.566688319212
 30
0.0
 10
-3093.820866536033
 20
8971.782842319213
 30
0.0
 10
-3093.853251536034
 20
8972.291053985879
 30
0.0
 10
-3093.853251536034
 20
8973.091323319213
 30
0.0
  0
SPLINE
  5
209
330
1F
100
AcDbEntity
  8
0
  6
Continuous
 62
     7
370
    25
100
AcDbSpline
210
0.0
220
0.0
230
1.0
 70
     8
 71
     3
 72
     8
 73
     4
 74
     0
 42
0.000000001
 43
0.00000001
 40
0.018348623853211
 40
0.018348623853211
 40
0.018348623853211
 40
0.018348623853211
 40
0.0229357798165138
 40
0.0229357798165138
 40
0.0229357798165138
 40
0.0229357798165138
 10
-3089.505660536034
 20
8930.002509319213
 30
0.0
 10
-3089.159627869367
 20
8930.110120652547
 30
0.0
 10
-3088.954099536034
 20
8930.477743319214
 30
0.0
 10
-3088.889075536034
 20
8931.105377319212
 30
0.0
  0
SPLINE
  5
20A
330
1F
100
AcDbEntity
  8
0
  6
Continuous
 62
     7
370
    25
100
AcDbSpline
210
0.0
220
0.0
230
1.0
 70
     8
 71
     3
 72
     8
 73
     4
 74
     0
 42
0.000000001
 43
0.00000001
 40
0.0137614678899083
 40
0.0137614678899083
 40
0.0137614678899083
 40
0.0137614678899083
 40
0.018348623853211
 40
0.018348623853211
 40
0.018348623853211
 40
0.018348623853211
 10
-3089.083893536033
 20
8927.795376319213
 30
0.0
 10
-3089.711019536033
 20
8929.15842498588
 30
0.0
 10
-3089.851608536033
 20
8929.89413598588
 30
0.0
 10
-3089.505660536034
 20
8930.002509319213
 30
0.0
  0
SPLINE
  5
213
330
1F
100
AcDbEntity
  8
0
  6
Continuous
 62
     7
370
    25
100
AcDbSpline
210
0.0
220
0.0
230
1.0
 70
     8
 71
     3
 72
     8
 73
     4
 74
     0
 42
0.000000001
 43
0.00000001
 40
0.9678899082568807
 40
0.9678899082568807
 40
0.9678899082568807
 40
0.9678899082568807
 40
0.9724770642201835
 40
0.9724770642201835
 40
0.9724770642201835
 40
0.9724770642201835
 10
-3093.074868536034
 20
8923.187816319212
 30
0.0
 10
-3092.8585452027
 20
8922.907230985878
 30
0.0
 10
-3092.123045869367
 20
8922.993802652545
 30
0.0
 10
-3090.868370536034
 20
8923.447531319212
 30
0.0
  0
LINE
  5
215
330
1F
100
AcDbEntity
  8
0
  6
Continuous
 62
     7
370
    25
100
AcDbLine
 10
-3134.100663245
 20
8930.9095333436
 30
0.0
 11
-3133.1198777721
 21
8932.8721600328
 31
0.0
  0
LINE
  5
216
330
1F
100
AcDbEntity
  8
0
  6
Continuous
 62
     7
370
    25
100
AcDbLine
 10
-3132.6331801369
 20
8932.6388407761
 30
0.0
 11
-3133.7955534477
 21
8930.468232668
 31
0.0
  0
LINE
  5
217
330
1F
100
AcDbEntity
  8
0
  6
Continuous
 62
     7
370
    25
100
AcDbLine
 10
-3133.7955534477
 20
8930.468232668
 30
0.0
 11
-3132.6331801369
 21
8928.2986803031
 31
0.0
  0
LINE
  5
218
330
1F
100
AcDbEntity
  8
0
  6
Continuous
 62
     7
370
    25
100
AcDbLine
 10
-3133.1198777721
 20
8928.0653610463
 30
0.0
 11
-3134.100663245
 21
8930.0290434788
 31
0.0
  0
LINE
  5
219
330
1F
100
AcDbEntity
  8
0
  6
Continuous
 62
     7
370
    25
100
AcDbLine
 10
-3134.100663245
 20
8930.0290434788
 30
0.0
 11
-3135.0825044613
 21
8928.0643053031
 31
0.0
  0
LINE
  5
21A
330
1F
100
AcDbEntity
  8
0
  6
Continuous
 62
     7
370
    25
100
AcDbLine
 10
-3135.5681463531
 20
8928.2986803031
 30
0.0
 11
-3134.3962713531
 21
8930.4692884112
 31
0.0
  0
LINE
  5
21B
330
1F
100
AcDbEntity
  8
0
  6
Continuous
 62
     7
370
    25
100
AcDbLine
 10
-3134.3962713531
 20
8930.4692884112
 30
0.0
 11
-3135.5681463531
 21
8932.6388407761
 31
0.0
  0
LINE
  5
21C
330
1F
100
AcDbEntity
  8
0
  6
Continuous
 62
     7
370
    25
100
AcDbLine
 10
-3135.0645568261
 20
8932.8193728707
 30
0.0
 11
-3134.100663245
 21
8930.9095333436
 31
0.0
  0
LINE
  5
21D
330
1F
100
AcDbEntity
  8
0
  6
Continuous
 62
     7
370
    25
100
AcDbLine
 10
-3128.8344047991
 20
8928.1783255734
 30
0.0
 11
-3128.8344047991
 21
8932.0402343572
 31
0.0
  0
LINE
  5
21E
330
1F
100
AcDbEntity
  8
0
  6
Continuous
 62
     7
370
    25
100
AcDbLine
 10
-3128.8344047991
 20
8932.0402343572
 30
0.0
 11
-3129.6906125694
 21
8930.3352090193
 31
0.0
  0
LINE
  5
21F
330
1F
100
AcDbEntity
  8
0
  6
Continuous
 62
     7
370
    25
100
AcDbLine
 10
-3130.1635855423
 20
8930.4143897626
 30
0.0
 11
-3130.9965669613
 21
8932.0402343572
 31
0.0
  0
LINE
  5
220
330
1F
100
AcDbEntity
  8
0
  6
Continuous
 62
     7
370
    25
100
AcDbLine
 10
-3130.9965669613
 20
8932.0402343572
 30
0.0
 11
-3130.9965669613
 21
8928.1783255734
 31
0.0
  0
LINE
  5
221
330
1F
100
AcDbEntity
  8
0
  6
Continuous
 62
     7
370
    25
100
AcDbLine
 10
-3131.6046750694
 20
8928.1783255734
 30
0.0
 11
-3131.6046750694
 21
8932.7317461815
 31
0.0
  0
LINE
  5
222
330
1F
100
AcDbEntity
  8
0
  6
Continuous
 62
     7
370
    25
100
AcDbLine
 10
-3131.0007899342
 20
8932.8309860463
 30
0.0
 11
-3129.9228760829
 21
8930.8556904382
 31
0.0
  0
LINE
  5
223
330
1F
100
AcDbEntity
  8
0
  6
Continuous
 62
     7
370
    25
100
AcDbLine
 10
-3129.9228760829
 20
8930.8556904382
 30
0.0
 11
-3128.8249031099
 21
8932.8594911139
 31
0.0
  0
LINE
  5
224
330
1F
100
AcDbEntity
  8
0
  6
Continuous
 62
     7
370
    25
100
AcDbLine
 10
-3128.226296691
 20
8932.7317461815
 30
0.0
 11
-3128.226296691
 21
8928.1783255734
 31
0.0
  0
LINE
  5
225
330
1F
100
AcDbEntity
  8
0
  6
Continuous
 62
     7
370
    25
100
AcDbLine
 10
-3126.6519723667
 20
8930.3679370599
 30
0.0
 11
-3126.6519723667
 21
8928.476045168
 31
0.0
  0
LINE
  5
226
330
1F
100
AcDbEntity
  8
0
  6
Continuous
 62
     7
370
    25
100
AcDbLine
 10
-3126.6519723667
 20
8928.476045168
 30
0.0
 11
-3125.2140500694
 21
8928.476045168
 31
0.0
  0
LINE
  5
227
330
1F
100
AcDbEntity
  8
0
  6
Continuous
 62
     7
370
    25
100
AcDbLine
 10
-3125.2140500694
 20
8927.9355046274
 30
0.0
 11
-3126.9898102045
 21
8927.9355046274
 31
0.0
  0
LINE
  5
228
330
1F
100
AcDbEntity
  8
0
  6
Continuous
 62
     7
370
    25
100
AcDbLine
 10
-3127.2600804748
 20
8928.1772698301
 30
0.0
 11
-3127.2600804748
 21
8932.6937394247
 31
0.0
  0
LINE
  5
229
330
1F
100
AcDbEntity
  8
0
  6
Continuous
 62
     7
370
    25
100
AcDbLine
 10
-3126.9898102045
 20
8932.9355046274
 30
0.0
 11
-3125.2140500694
 21
8932.9355046274
 31
0.0
  0
LINE
  5
22A
330
1F
100
AcDbEntity
  8
0
  6
Continuous
 62
     7
370
    25
100
AcDbLine
 10
-3125.2140500694
 20
8932.3949640869
 30
0.0
 11
-3126.6519723667
 21
8932.3949640869
 31
0.0
  0
LINE
  5
22B
330
1F
100
AcDbEntity
  8
0
  6
Continuous
 62
     7
370
    25
100
AcDbLine
 10
-3126.6519723667
 20
8932.3949640869
 30
0.0
 11
-3126.6519723667
 21
8930.9084776004
 31
0.0
  0
LINE
  5
22C
330
1F
100
AcDbEntity
  8
0
  6
Continuous
 62
     7
370
    25
100
AcDbLine
 10
-3126.6519723667
 20
8930.9084776004
 30
0.0
 11
-3125.9129520964
 21
8930.9084776004
 31
0.0
  0
LINE
  5
22D
330
1F
100
AcDbEntity
  8
0
  6
Continuous
 62
     7
370
    25
100
AcDbLine
 10
-3125.9129520964
 20
8930.3679370599
 30
0.0
 11
-3126.6519723667
 21
8930.3679370599
 31
0.0
  0
LINE
  5
22E
330
1F
100
AcDbEntity
  8
0
  6
Continuous
 62
     7
370
    25
100
AcDbLine
 10
-3121.5641345288
 20
8928.1741026004
 30
0.0
 11
-3121.5641345288
 21
8932.3949640869
 31
0.0
  0
LINE
  5
22F
330
1F
100
AcDbEntity
  8
0
  6
Continuous
 62
     7
370
    25
100
AcDbLine
 10
-3121.5641345288
 20
8932.3949640869
 30
0.0
 11
-3122.1236784477
 21
8932.3949640869
 31
0.0
  0
LINE
  5
230
330
1F
100
AcDbEntity
  8
0
  6
Continuous
 62
     7
370
    25
100
AcDbLine
 10
-3122.1236784477
 20
8932.3949640869
 30
0.0
 11
-3123.4729183126
 21
8928.1054792896
 31
0.0
  0
LINE
  5
231
330
1F
100
AcDbEntity
  8
0
  6
Continuous
 62
     7
370
    25
100
AcDbLine
 10
-3124.0029014207
 20
8928.2511718572
 30
0.0
 11
-3122.6008743937
 21
8932.7655299653
 31
0.0
  0
LINE
  5
232
330
1F
100
AcDbEntity
  8
0
  6
Continuous
 62
     7
370
    25
100
AcDbLine
 10
-3122.3675551369
 20
8932.9355046274
 30
0.0
 11
-3121.2938642586
 21
8932.9355046274
 31
0.0
  0
LINE
  5
233
330
1F
100
AcDbEntity
  8
0
  6
Continuous
 62
     7
370
    25
100
AcDbLine
 10
-3120.9560264207
 20
8932.6937394247
 30
0.0
 11
-3120.9560264207
 21
8928.1772698301
 31
0.0
  0
LINE
  5
234
330
1F
100
AcDbEntity
  8
0
  6
Continuous
 62
     7
370
    25
100
AcDbLine
 10
-3118.5054352045
 20
8930.3679370599
 30
0.0
 11
-3119.3817020964
 21
8930.3679370599
 31
0.0
  0
LINE
  5
235
330
1F
100
AcDbEntity
  8
0
  6
Continuous
 62
     7
370
    25
100
AcDbLine
 10
-3119.3817020964
 20
8930.3679370599
 30
0.0
 11
-3119.3817020964
 21
8928.476045168
 31
0.0
  0
LINE
  5
236
330
1F
100
AcDbEntity
  8
0
  6
Continuous
 62
     7
370
    25
100
AcDbLine
 10
-3119.3817020964
 20
8928.476045168
 30
0.0
 11
-3118.5054352045
 21
8928.476045168
 31
0.0
  0
LINE
  5
237
330
1F
100
AcDbEntity
  8
0
  6
Continuous
 62
     7
370
    25
100
AcDbLine
 10
-3117.8952156099
 20
8929.0852090193
 30
0.0
 11
-3117.8952156099
 21
8929.7619404382
 31
0.0
  0
LINE
  5
238
330
1F
100
AcDbEntity
  8
0
  6
Continuous
 62
     7
370
    25
100
AcDbLine
 10
-3118.4959335153
 20
8927.9355046274
 30
0.0
 11
-3119.7438220288
 21
8927.9355046274
 31
0.0
  0
LINE
  5
239
330
1F
100
AcDbEntity
  8
0
  6
Continuous
 62
     7
370
    25
100
AcDbLine
 10
-3119.9898102045
 20
8928.1772698301
 30
0.0
 11
-3119.9898102045
 21
8932.6937394247
 31
0.0
  0
LINE
  5
23A
330
1F
100
AcDbEntity
  8
0
  6
Continuous
 62
     7
370
    25
100
AcDbLine
 10
-3119.3817020964
 20
8932.6990181409
 30
0.0
 11
-3119.3817020964
 21
8930.9084776004
 31
0.0
  0
LINE
  5
23B
330
1F
100
AcDbEntity
  8
0
  6
Continuous
 62
     7
370
    25
100
AcDbLine
 10
-3119.3817020964
 20
8930.9084776004
 30
0.0
 11
-3118.4716514207
 21
8930.9084776004
 31
0.0
  0
LINE
  5
23C
330
1F
100
AcDbEntity
  8
0
  6
Continuous
 62
     7
370
    25
100
AcDbLine
 10
-3117.2871075018
 20
8929.7788323301
 30
0.0
 11
-3117.2871075018
 21
8929.0683171274
 31
0.0
  0
LINE
  5
23D
330
1F
100
AcDbEntity
  8
0
  6
Continuous
 62
     7
370
    25
100
AcDbLine
 10
-3114.2938642586
 20
8930.9084776004
 30
0.0
 11
-3114.2938642586
 21
8932.6990181409
 31
0.0
  0
LINE
  5
23E
330
1F
100
AcDbEntity
  8
0
  6
Continuous
 62
     7
370
    25
100
AcDbLine
 10
-3113.6857561504
 20
8932.6937394247
 30
0.0
 11
-3113.6857561504
 21
8928.1772698301
 31
0.0
  0
LINE
  5
23F
330
1F
100
AcDbEntity
  8
0
  6
Continuous
 62
     7
370
    25
100
AcDbLine
 10
-3114.2938642586
 20
8928.1772698301
 30
0.0
 11
-3114.2938642586
 21
8930.3679370599
 31
0.0
  0
LINE
  5
240
330
1F
100
AcDbEntity
  8
0
  6
Continuous
 62
     7
370
    25
100
AcDbLine
 10
-3114.2938642586
 20
8930.3679370599
 30
0.0
 11
-3115.780350745
 21
8930.3679370599
 31
0.0
  0
LINE
  5
241
330
1F
100
AcDbEntity
  8
0
  6
Continuous
 62
     7
370
    25
100
AcDbLine
 10
-3115.780350745
 20
8930.3679370599
 30
0.0
 11
-3115.780350745
 21
8928.1772698301
 31
0.0
  0
LINE
  5
242
330
1F
100
AcDbEntity
  8
0
  6
Continuous
 62
     7
370
    25
100
AcDbLine
 10
-3116.3884588531
 20
8928.1772698301
 30
0.0
 11
-3116.3884588531
 21
8932.6937394247
 31
0.0
  0
LINE
  5
243
330
1F
100
AcDbEntity
  8
0
  6
Continuous
 62
     7
370
    25
100
AcDbLine
 10
-3115.780350745
 20
8932.6990181409
 30
0.0
 11
-3115.780350745
 21
8930.9084776004
 31
0.0
  0
LINE
  5
244
330
1F
100
AcDbEntity
  8
0
  6
Continuous
 62
     7
370
    25
100
AcDbLine
 10
-3115.780350745
 20
8930.9084776004
 30
0.0
 11
-3114.2938642586
 21
8930.9084776004
 31
0.0
  0
LINE
  5
245
330
1F
100
AcDbEntity
  8
0
  6
Continuous
 62
     7
370
    25
100
AcDbLine
 10
-3110.6925129072
 20
8928.2427259112
 30
0.0
 11
-3110.6925129072
 21
8931.8776498977
 31
0.0
  0
LINE
  5
246
330
1F
100
AcDbEntity
  8
0
  6
Continuous
 62
     7
370
    25
100
AcDbLine
 10
-3112.7871075018
 20
8928.202607668
 30
0.0
 11
-3112.7871075018
 21
8932.760251249
 31
0.0
  0
LINE
  5
247
330
1F
100
AcDbEntity
  8
0
  6
Continuous
 62
     7
370
    25
100
AcDbLine
 10
-3112.1789993937
 20
8932.760251249
 30
0.0
 11
-3112.1789993937
 21
8929.0609269247
 31
0.0
  0
LINE
  5
248
330
1F
100
AcDbEntity
  8
0
  6
Continuous
 62
     7
370
    25
100
AcDbLine
 10
-3110.0844047991
 20
8932.7380806409
 30
0.0
 11
-3110.0844047991
 21
8928.2437816544
 31
0.0
  0
LINE
  5
249
330
1F
100
AcDbEntity
  8
0
  6
Continuous
 62
     7
370
    25
100
AcDbLine
 10
-3106.6857561504
 20
8927.4973711815
 30
0.0
 11
-3106.6857561504
 21
8927.9355046274
 31
0.0
  0
LINE
  5
24A
330
1F
100
AcDbEntity
  8
0
  6
Continuous
 62
     7
370
    25
100
AcDbLine
 10
-3106.6857561504
 20
8927.9355046274
 30
0.0
 11
-3108.9397679748
 21
8927.9355046274
 31
0.0
  0
LINE
  5
24B
330
1F
100
AcDbEntity
  8
0
  6
Continuous
 62
     7
370
    25
100
AcDbLine
 10
-3109.1857561504
 20
8928.1762140869
 30
0.0
 11
-3109.1857561504
 21
8932.694795168
 31
0.0
  0
LINE
  5
24C
330
1F
100
AcDbEntity
  8
0
  6
Continuous
 62
     7
370
    25
100
AcDbLine
 10
-3108.5776480423
 20
8932.6969066544
 30
0.0
 11
-3108.5776480423
 21
8928.476045168
 31
0.0
  0
LINE
  5
24D
330
1F
100
AcDbEntity
  8
0
  6
Continuous
 62
     7
370
    25
100
AcDbLine
 10
-3108.5776480423
 20
8928.476045168
 30
0.0
 11
-3107.0911615558
 21
8928.476045168
 31
0.0
  0
LINE
  5
24E
330
1F
100
AcDbEntity
  8
0
  6
Continuous
 62
     7
370
    25
100
AcDbLine
 10
-3107.0911615558
 20
8928.476045168
 30
0.0
 11
-3107.0911615558
 21
8932.6969066544
 31
0.0
  0
LINE
  5
24F
330
1F
100
AcDbEntity
  8
0
  6
Continuous
 62
     7
370
    25
100
AcDbLine
 10
-3106.4830534477
 20
8932.6969066544
 30
0.0
 11
-3106.4830534477
 21
8928.476045168
 31
0.0
  0
LINE
  5
250
330
1F
100
AcDbEntity
  8
0
  6
Continuous
 62
     7
370
    25
100
AcDbLine
 10
-3106.4830534477
 20
8928.476045168
 30
0.0
 11
-3106.4175973667
 21
8928.476045168
 31
0.0
  0
LINE
  5
251
330
1F
100
AcDbEntity
  8
0
  6
Continuous
 62
     7
370
    25
100
AcDbLine
 10
-3106.0776480423
 20
8928.2279455058
 30
0.0
 11
-3106.0776480423
 21
8927.5079286139
 31
0.0
  0
LINE
  5
252
330
1F
100
AcDbEntity
  8
0
  6
Continuous
 62
     7
370
    25
100
AcDbLine
 10
-3103.6946243937
 20
8930.3679370599
 30
0.0
 11
-3104.5708912856
 21
8930.3679370599
 31
0.0
  0
LINE
  5
253
330
1F
100
AcDbEntity
  8
0
  6
Continuous
 62
     7
370
    25
100
AcDbLine
 10
-3104.5708912856
 20
8930.3679370599
 30
0.0
 11
-3104.5708912856
 21
8928.476045168
 31
0.0
  0
LINE
  5
254
330
1F
100
AcDbEntity
  8
0
  6
Continuous
 62
     7
370
    25
100
AcDbLine
 10
-3104.5708912856
 20
8928.476045168
 30
0.0
 11
-3103.6946243937
 21
8928.476045168
 31
0.0
  0
LINE
  5
255
330
1F
100
AcDbEntity
  8
0
  6
Continuous
 62
     7
370
    25
100
AcDbLine
 10
-3103.0844047991
 20
8929.0852090193
 30
0.0
 11
-3103.0844047991
 21
8929.7619404382
 31
0.0
  0
LINE
  5
256
330
1F
100
AcDbEntity
  8
0
  6
Continuous
 62
     7
370
    25
100
AcDbLine
 10
-3103.6851227045
 20
8927.9355046274
 30
0.0
 11
-3104.933011218
 21
8927.9355046274
 31
0.0
  0
LINE
  5
257
330
1F
100
AcDbEntity
  8
0
  6
Continuous
 62
     7
370
    25
100
AcDbLine
 10
-3105.1789993937
 20
8928.1772698301
 30
0.0
 11
-3105.1789993937
 21
8932.6937394247
 31
0.0
  0
LINE
  5
258
330
1F
100
AcDbEntity
  8
0
  6
Continuous
 62
     7
370
    25
100
AcDbLine
 10
-3104.5708912856
 20
8932.6990181409
 30
0.0
 11
-3104.5708912856
 21
8930.9084776004
 31
0.0
  0
LINE
  5
259
330
1F
100
AcDbEntity
  8
0
  6
Continuous
 62
     7
370
    25
100
AcDbLine
 10
-3104.5708912856
 20
8930.9084776004
 30
0.0
 11
-3103.6608406099
 21
8930.9084776004
 31
0.0
  0
LINE
  5
25A
330
1F
100
AcDbEntity
  8
0
  6
Continuous
 62
     7
370
    25
100
AcDbLine
 10
-3102.476296691
 20
8929.7788323301
 30
0.0
 11
-3102.476296691
 21
8929.0683171274
 31
0.0
  0
LINE
  5
25B
330
1F
100
AcDbEntity
  8
0
  6
Continuous
 62
     7
370
    25
100
AcDbLine
 10
-3100.9695399342
 20
8929.878072195
 30
0.0
 11
-3100.9695399342
 21
8928.1793813166
 31
0.0
  0
LINE
  5
25C
330
1F
100
AcDbEntity
  8
0
  6
Continuous
 62
     7
370
    25
100
AcDbLine
 10
-3101.5776480423
 20
8928.1772698301
 30
0.0
 11
-3101.5776480423
 21
8932.6937394247
 31
0.0
  0
LINE
  5
25D
330
1F
100
AcDbEntity
  8
0
  6
Continuous
 62
     7
370
    25
100
AcDbLine
 10
-3100.9695399342
 20
8932.6969066544
 30
0.0
 11
-3100.9695399342
 21
8930.5389674653
 31
0.0
  0
LINE
  5
25E
330
1F
100
AcDbEntity
  8
0
  6
Continuous
 62
     7
370
    25
100
AcDbLine
 10
-3100.9695399342
 20
8930.5389674653
 30
0.0
 11
-3099.3743118937
 21
8932.9006651004
 31
0.0
  0
LINE
  5
25F
330
1F
100
AcDbEntity
  8
0
  6
Continuous
 62
     7
370
    25
100
AcDbLine
 10
-3098.9108406099
 20
8932.6356735463
 30
0.0
 11
-3100.148171691
 21
8930.9823796274
 31
0.0
  0
LINE
  5
260
330
1F
100
AcDbEntity
  8
0
  6
Continuous
 62
     7
370
    25
100
AcDbLine
 10
-3100.148171691
 20
8930.9823796274
 30
0.0
 11
-3098.898171691
 21
8928.2796769247
 31
0.0
  0
LINE
  5
261
330
1F
100
AcDbEntity
  8
0
  6
Continuous
 62
     7
370
    25
100
AcDbLine
 10
-3099.4028169613
 20
8928.1688238842
 30
0.0
 11
-3100.5145145964
 21
8930.6002005734
 31
0.0
  0
LINE
  5
262
330
1F
100
AcDbEntity
  8
0
  6
Continuous
 62
     7
370
    25
100
AcDbLine
 10
-3100.5145145964
 20
8930.6002005734
 30
0.0
 11
-3100.9695399342
 21
8929.878072195
 31
0.0
  0
LINE
  5
263
330
1F
100
AcDbEntity
  8
0
  6
Continuous
 62
     7
370
    25
100
AcDbLine
 10
-3095.8817020964
 20
8928.2427259112
 30
0.0
 11
-3095.8817020964
 21
8931.8776498977
 31
0.0
  0
LINE
  5
264
330
1F
100
AcDbEntity
  8
0
  6
Continuous
 62
     7
370
    25
100
AcDbLine
 10
-3097.976296691
 20
8928.202607668
 30
0.0
 11
-3097.976296691
 21
8932.760251249
 31
0.0
  0
LINE
  5
265
330
1F
100
AcDbEntity
  8
0
  6
Continuous
 62
     7
370
    25
100
AcDbLine
 10
-3097.3681885829
 20
8932.760251249
 30
0.0
 11
-3097.3681885829
 21
8929.0609269247
 31
0.0
  0
LINE
  5
266
330
1F
100
AcDbEntity
  8
0
  6
Continuous
 62
     7
370
    25
100
AcDbLine
 10
-3095.2735939883
 20
8932.7380806409
 30
0.0
 11
-3095.2735939883
 21
8928.2437816544
 31
0.0
  0
LINE
  5
267
330
1F
100
AcDbEntity
  8
0
  6
Continuous
 62
     7
370
    25
100
AcDbLine
 10
-3092.280350745
 20
8928.1783255734
 30
0.0
 11
-3092.280350745
 21
8931.8776498977
 31
0.0
  0
LINE
  5
268
330
1F
100
AcDbEntity
  8
0
  6
Continuous
 62
     7
370
    25
100
AcDbLine
 10
-3092.280350745
 20
8931.8776498977
 30
0.0
 11
-3093.7816176369
 21
8928.0980890869
 31
0.0
  0
LINE
  5
269
330
1F
100
AcDbEntity
  8
0
  6
Continuous
 62
     7
370
    25
100
AcDbLine
 10
-3094.3749453396
 20
8928.202607668
 30
0.0
 11
-3094.3749453396
 21
8932.760251249
 31
0.0
  0
LINE
  5
26A
330
1F
100
AcDbEntity
  8
0
  6
Continuous
 62
     7
370
    25
100
AcDbLine
 10
-3093.7668372315
 20
8932.760251249
 30
0.0
 11
-3093.7668372315
 21
8929.0609269247
 31
0.0
  0
LINE
  5
26B
330
1F
100
AcDbEntity
  8
0
  6
Continuous
 62
     7
370
    25
100
AcDbLine
 10
-3093.7668372315
 20
8929.0609269247
 30
0.0
 11
-3092.2740162856
 21
8932.838376249
 31
0.0
  0
LINE
  5
26C
330
1F
100
AcDbEntity
  8
0
  6
Continuous
 62
     7
370
    25
100
AcDbLine
 10
-3091.6722426369
 20
8932.7359691544
 30
0.0
 11
-3091.6722426369
 21
8928.1783255734
 31
0.0
  0
LINE
  5
26D
330
1F
100
AcDbEntity
  8
0
  6
Continuous
 62
     7
370
    25
100
AcDbLine
 10
-3092.718484191
 20
8933.1382073301
 30
0.0
 11
-3093.421609191
 21
8933.1382073301
 31
0.0
  0
LINE
  5
26E
330
1F
100
AcDbEntity
  8
0
  6
Continuous
 62
     7
370
    25
100
AcDbLine
 10
-3093.421609191
 20
8933.6787478707
 30
0.0
 11
-3092.718484191
 21
8933.6787478707
 31
0.0
  0
LINE
  5
26F
330
1F
100
AcDbEntity
  8
0
  6
Continuous
 62
     7
370
    25
100
AcDbLine
 10
-3094.956246536
 20
8924.1944183192
 30
0.0
 11
-3094.437324536
 21
8923.0255103192
 31
0.0
  0
LINE
  5
270
330
1F
100
AcDbEntity
  8
0
  6
Continuous
 62
     7
370
    25
100
AcDbLine
 10
-3096.936049536
 20
8924.2917003192
 30
0.0
 11
-3094.956246536
 21
8924.1944183192
 31
0.0
  0
LINE
  5
271
330
1F
100
AcDbEntity
  8
0
  6
Continuous
 62
     7
370
    25
100
AcDbLine
 10
-3096.936049536
 20
8922.6694023192
 30
0.0
 11
-3096.936049536
 21
8924.2917003192
 31
0.0
  0
LINE
  5
272
330
1F
100
AcDbEntity
  8
0
  6
Continuous
 62
     7
370
    25
100
AcDbLine
 10
-3097.779329536
 20
8922.4094333192
 30
0.0
 11
-3096.936049536
 21
8922.6694023192
 31
0.0
  0
LINE
  5
273
330
1F
100
AcDbEntity
  8
0
  6
Continuous
 62
     7
370
    25
100
AcDbLine
 10
-3098.363275536
 20
8923.0255103192
 30
0.0
 11
-3097.779329536
 21
8922.4094333192
 31
0.0
  0
LINE
  5
274
330
1F
100
AcDbEntity
  8
0
  6
Continuous
 62
     7
370
    25
100
AcDbLine
 10
-3099.563552536
 20
8922.6694023192
 30
0.0
 11
-3098.363275536
 21
8923.0255103192
 31
0.0
  0
LINE
  5
275
330
1F
100
AcDbEntity
  8
0
  6
Continuous
 62
     7
370
    25
100
AcDbLine
 10
-3100.505384536
 20
8921.8905113192
 30
0.0
 11
-3099.563552536
 21
8922.6694023192
 31
0.0
  0
LINE
  5
276
330
1F
100
AcDbEntity
  8
0
  6
Continuous
 62
     7
370
    25
100
AcDbLine
 10
-3100.342443536
 20
8919.9439823192
 30
0.0
 11
-3100.505384536
 21
8921.8905113192
 31
0.0
  0
LINE
  5
277
330
1F
100
AcDbEntity
  8
0
  6
Continuous
 62
     7
370
    25
100
AcDbLine
 10
-3101.608125536
 20
8919.7812953192
 30
0.0
 11
-3100.342443536
 21
8919.9439823192
 31
0.0
  0
LINE
  5
278
330
1F
100
AcDbEntity
  8
0
  6
Continuous
 62
     7
370
    25
100
AcDbLine
 10
-3103.230042536
 20
8917.9639253192
 30
0.0
 11
-3101.608125536
 21
8919.7812953192
 31
0.0
  0
LINE
  5
279
330
1F
100
AcDbEntity
  8
0
  6
Continuous
 62
     7
370
    25
100
AcDbLine
 10
-3104.009060536
 20
8916.4396713192
 30
0.0
 11
-3103.230042536
 21
8917.9639253192
 31
0.0
  0
LINE
  5
27A
330
1F
100
AcDbEntity
  8
0
  6
Continuous
 62
     7
370
    25
100
AcDbLine
 10
-3103.587039536
 20
8915.0763263192
 30
0.0
 11
-3104.009060536
 21
8916.4396713192
 31
0.0
  0
LINE
  5
27B
330
1F
100
AcDbEntity
  8
0
  6
Continuous
 62
     7
370
    25
100
AcDbLine
 10
-3104.528236536
 20
8914.2331733192
 30
0.0
 11
-3103.587039536
 21
8915.0763263192
 31
0.0
  0
LINE
  5
27C
330
1F
100
AcDbEntity
  8
0
  6
Continuous
 62
     7
370
    25
100
AcDbLine
 10
-3104.593641536
 20
8911.2481653192
 30
0.0
 11
-3104.528236536
 21
8914.2331733192
 31
0.0
  0
LINE
  5
27D
330
1F
100
AcDbEntity
  8
0
  6
Continuous
 62
     7
370
    25
100
AcDbLine
 10
-3103.846500536
 20
8910.3065873192
 30
0.0
 11
-3104.593641536
 21
8911.2481653192
 31
0.0
  0
LINE
  5
27E
330
1F
100
AcDbEntity
  8
0
  6
Continuous
 62
     7
370
    25
100
AcDbLine
 10
-3103.230042536
 20
8906.2831003192
 30
0.0
 11
-3103.846500536
 21
8910.3065873192
 31
0.0
  0
LINE
  5
27F
330
1F
100
AcDbEntity
  8
0
  6
Continuous
 62
     7
370
    25
100
AcDbLine
 10
-3104.528236536
 20
8904.6608023192
 30
0.0
 11
-3103.230042536
 21
8906.2831003192
 31
0.0
  0
LINE
  5
280
330
1F
100
AcDbEntity
  8
0
  6
Continuous
 62
     7
370
    25
100
AcDbLine
 10
-3104.009060536
 20
8903.3958823192
 30
0.0
 11
-3104.528236536
 21
8904.6608023192
 31
0.0
  0
LINE
  5
281
330
1F
100
AcDbEntity
  8
0
  6
Continuous
 62
     7
370
    25
100
AcDbLine
 10
-3104.788078536
 20
8901.5781313192
 30
0.0
 11
-3104.009060536
 21
8903.3958823192
 31
0.0
  0
LINE
  5
282
330
1F
100
AcDbEntity
  8
0
  6
Continuous
 62
     7
370
    25
100
AcDbLine
 10
-3105.015408536
 20
8899.3400103192
 30
0.0
 11
-3104.788078536
 21
8901.5781313192
 31
0.0
  0
LINE
  5
283
330
1F
100
AcDbEntity
  8
0
  6
Continuous
 62
     7
370
    25
100
AcDbLine
 10
-3105.274234536
 20
8899.4690423192
 30
0.0
 11
-3105.015408536
 21
8899.3400103192
 31
0.0
  0
LINE
  5
284
330
1F
100
AcDbEntity
  8
0
  6
Continuous
 62
     7
370
    25
100
AcDbLine
 10
-3106.897421536
 20
8899.4690423192
 30
0.0
 11
-3105.274234536
 21
8899.4690423192
 31
0.0
  0
LINE
  5
285
330
1F
100
AcDbEntity
  8
0
  6
Continuous
 62
     7
370
    25
100
AcDbLine
 10
-3109.719234536
 20
8899.5349553192
 30
0.0
 11
-3106.897421536
 21
8899.4690423192
 31
0.0
  0
LINE
  5
286
330
1F
100
AcDbEntity
  8
0
  6
Continuous
 62
     7
370
    25
100
AcDbLine
 10
-3110.076739536
 20
8897.8483953192
 30
0.0
 11
-3109.719234536
 21
8899.5349553192
 31
0.0
  0
LINE
  5
287
330
1F
100
AcDbEntity
  8
0
  6
Continuous
 62
     7
370
    25
100
AcDbLine
 10
-3112.380773536
 20
8898.0094313192
 30
0.0
 11
-3110.076739536
 21
8897.8483953192
 31
0.0
  0
LINE
  5
288
330
1F
100
AcDbEntity
  8
0
  6
Continuous
 62
     7
370
    25
100
AcDbLine
 10
-3113.646455536
 20
8897.6526883192
 30
0.0
 11
-3112.380773536
 21
8898.0094313192
 31
0.0
  0
LINE
  5
289
330
1F
100
AcDbEntity
  8
0
  6
Continuous
 62
     7
370
    25
100
AcDbLine
 10
-3115.430297536
 20
8897.9121493192
 30
0.0
 11
-3113.646455536
 21
8897.6526883192
 31
0.0
  0
LINE
  5
28A
330
1F
100
AcDbEntity
  8
0
  6
Continuous
 62
     7
370
    25
100
AcDbLine
 10
-3117.247540536
 20
8898.1704673192
 30
0.0
 11
-3115.430297536
 21
8897.9121493192
 31
0.0
  0
LINE
  5
28B
330
1F
100
AcDbEntity
  8
0
  6
Continuous
 62
     7
370
    25
100
AcDbLine
 10
-3119.551193536
 20
8897.8483953192
 30
0.0
 11
-3117.247540536
 21
8898.1704673192
 31
0.0
  0
LINE
  5
28C
330
1F
100
AcDbEntity
  8
0
  6
Continuous
 62
     7
370
    25
100
AcDbLine
 10
-3121.854211536
 20
8897.3280763192
 30
0.0
 11
-3119.551193536
 21
8897.8483953192
 31
0.0
  0
LINE
  5
28D
330
1F
100
AcDbEntity
  8
0
  6
Continuous
 62
     7
370
    25
100
AcDbLine
 10
-3122.699396536
 20
8899.2107243192
 30
0.0
 11
-3121.854211536
 21
8897.3280763192
 31
0.0
  0
LINE
  5
28E
330
1F
100
AcDbEntity
  8
0
  6
Continuous
 62
     7
370
    25
100
AcDbLine
 10
-3123.541533536
 20
8899.2107243192
 30
0.0
 11
-3122.699396536
 21
8899.2107243192
 31
0.0
  0
LINE
  5
28F
330
1F
100
AcDbEntity
  8
0
  6
Continuous
 62
     7
370
    25
100
AcDbLine
 10
-3124.320678536
 20
8897.9121493192
 30
0.0
 11
-3123.541533536
 21
8899.2107243192
 31
0.0
  0
LINE
  5
290
330
1F
100
AcDbEntity
  8
0
  6
Continuous
 62
     7
370
    25
100
AcDbLine
 10
-3125.520955536
 20
8898.5933773192
 30
0.0
 11
-3124.320678536
 21
8897.9121493192
 31
0.0
  0
LINE
  5
291
330
1F
100
AcDbEntity
  8
0
  6
Continuous
 62
     7
370
    25
100
AcDbLine
 10
-3125.683769536
 20
8897.3280763192
 30
0.0
 11
-3125.520955536
 21
8898.5933773192
 31
0.0
  0
LINE
  5
292
330
1F
100
AcDbEntity
  8
0
  6
Continuous
 62
     7
370
    25
100
AcDbLine
 10
-3126.462279536
 20
8896.9064363192
 30
0.0
 11
-3125.683769536
 21
8897.3280763192
 31
0.0
  0
LINE
  5
293
330
1F
100
AcDbEntity
  8
0
  6
Continuous
 62
     7
370
    25
100
AcDbLine
 10
-3127.987041536
 20
8897.3280763192
 30
0.0
 11
-3126.462279536
 21
8896.9064363192
 31
0.0
  0
LINE
  5
294
330
1F
100
AcDbEntity
  8
0
  6
Continuous
 62
     7
370
    25
100
AcDbLine
 10
-3128.084450536
 20
8896.6465943192
 30
0.0
 11
-3127.987041536
 21
8897.3280763192
 31
0.0
  0
LINE
  5
295
330
1F
100
AcDbEntity
  8
0
  6
Continuous
 62
     7
370
    25
100
AcDbLine
 10
-3126.786510536
 20
8895.4464443192
 30
0.0
 11
-3128.084450536
 21
8896.6465943192
 31
0.0
  0
LINE
  5
296
330
1F
100
AcDbEntity
  8
0
  6
Continuous
 62
     7
370
    25
100
AcDbLine
 10
-3126.623950536
 20
8894.6029103192
 30
0.0
 11
-3126.786510536
 21
8895.4464443192
 31
0.0
  0
LINE
  5
297
330
1F
100
AcDbEntity
  8
0
  6
Continuous
 62
     7
370
    25
100
AcDbLine
 10
-3127.566163536
 20
8894.4400963192
 30
0.0
 11
-3126.623950536
 21
8894.6029103192
 31
0.0
  0
LINE
  5
298
330
1F
100
AcDbEntity
  8
0
  6
Continuous
 62
     7
370
    25
100
AcDbLine
 10
-3129.090798536
 20
8894.8616093192
 30
0.0
 11
-3127.566163536
 21
8894.4400963192
 31
0.0
  0
LINE
  5
299
330
1F
100
AcDbEntity
  8
0
  6
Continuous
 62
     7
370
    25
100
AcDbLine
 10
-3128.928492536
 20
8893.1434263192
 30
0.0
 11
-3129.090798536
 21
8894.8616093192
 31
0.0
  0
LINE
  5
29A
330
1F
100
AcDbEntity
  8
0
  6
Continuous
 62
     7
370
    25
100
AcDbLine
 10
-3130.291329536
 20
8892.5583373192
 30
0.0
 11
-3128.928492536
 21
8893.1434263192
 31
0.0
  0
LINE
  5
29B
330
1F
100
AcDbEntity
  8
0
  6
Continuous
 62
     7
370
    25
100
AcDbLine
 10
-3131.816726536
 20
8893.3052243192
 30
0.0
 11
-3130.291329536
 21
8892.5583373192
 31
0.0
  0
LINE
  5
29C
330
1F
100
AcDbEntity
  8
0
  6
Continuous
 62
     7
370
    25
100
AcDbLine
 10
-3132.952106536
 20
8894.7643273192
 30
0.0
 11
-3131.816726536
 21
8893.3052243192
 31
0.0
  0
LINE
  5
29D
330
1F
100
AcDbEntity
  8
0
  6
Continuous
 62
     7
370
    25
100
AcDbLine
 10
-3133.860283536
 20
8896.1274183192
 30
0.0
 11
-3132.952106536
 21
8894.7643273192
 31
0.0
  0
LINE
  5
29E
330
1F
100
AcDbEntity
  8
0
  6
Continuous
 62
     7
370
    25
100
AcDbLine
 10
-3134.995663536
 20
8896.7441303192
 30
0.0
 11
-3133.860283536
 21
8896.1274183192
 31
0.0
  0
LINE
  5
29F
330
1F
100
AcDbEntity
  8
0
  6
Continuous
 62
     7
370
    25
100
AcDbLine
 10
-3135.709657536
 20
8896.5809353192
 30
0.0
 11
-3134.995663536
 21
8896.7441303192
 31
0.0
  0
LINE
  5
2A0
330
1F
100
AcDbEntity
  8
0
  6
Continuous
 62
     7
370
    25
100
AcDbLine
 10
-3135.742042536
 20
8897.0677263192
 30
0.0
 11
-3135.709657536
 21
8896.5809353192
 31
0.0
  0
LINE
  5
2A1
330
1F
100
AcDbEntity
  8
0
  6
Continuous
 62
     7
370
    25
100
AcDbLine
 10
-3136.261345536
 20
8897.9121493192
 30
0.0
 11
-3135.742042536
 21
8897.0677263192
 31
0.0
  0
LINE
  5
2A2
330
1F
100
AcDbEntity
  8
0
  6
Continuous
 62
     7
370
    25
100
AcDbLine
 10
-3136.683366536
 20
8897.8792563192
 30
0.0
 11
-3136.261345536
 21
8897.9121493192
 31
0.0
  0
LINE
  5
2A3
330
1F
100
AcDbEntity
  8
0
  6
Continuous
 62
     7
370
    25
100
AcDbLine
 10
-3137.201907536
 20
8897.8483953192
 30
0.0
 11
-3136.683366536
 21
8897.8792563192
 31
0.0
  0
LINE
  5
2A4
330
1F
100
AcDbEntity
  8
0
  6
Continuous
 62
     7
370
    25
100
AcDbLine
 10
-3138.045822536
 20
8898.5292423192
 30
0.0
 11
-3137.201907536
 21
8897.8483953192
 31
0.0
  0
LINE
  5
2A5
330
1F
100
AcDbEntity
  8
0
  6
Continuous
 62
     7
370
    25
100
AcDbLine
 10
-3137.786869536
 20
8899.5349553192
 30
0.0
 11
-3138.045822536
 21
8898.5292423192
 31
0.0
  0
LINE
  5
2A6
330
1F
100
AcDbEntity
  8
0
  6
Continuous
 62
     7
370
    25
100
AcDbLine
 10
-3138.922376536
 20
8899.9568493192
 30
0.0
 11
-3137.786869536
 21
8899.5349553192
 31
0.0
  0
LINE
  5
2A7
330
1F
100
AcDbEntity
  8
0
  6
Continuous
 62
     7
370
    25
100
AcDbLine
 10
-3139.602969536
 20
8901.1568723192
 30
0.0
 11
-3138.922376536
 21
8899.9568493192
 31
0.0
  0
LINE
  5
2A8
330
1F
100
AcDbEntity
  8
0
  6
Continuous
 62
     7
370
    25
100
AcDbLine
 10
-3139.083666536
 20
8902.0329183192
 30
0.0
 11
-3139.602969536
 21
8901.1568723192
 31
0.0
  0
LINE
  5
2A9
330
1F
100
AcDbEntity
  8
0
  6
Continuous
 62
     7
370
    25
100
AcDbLine
 10
-3140.090395536
 20
8903.4609063192
 30
0.0
 11
-3139.083666536
 21
8902.0329183192
 31
0.0
  0
LINE
  5
2AA
330
1F
100
AcDbEntity
  8
0
  6
Continuous
 62
     7
370
    25
100
AcDbLine
 10
-3141.387827536
 20
8903.8828003192
 30
0.0
 11
-3140.090395536
 21
8903.4609063192
 31
0.0
  0
LINE
  5
2AB
330
1F
100
AcDbEntity
  8
0
  6
Continuous
 62
     7
370
    25
100
AcDbLine
 10
-3141.485744536
 20
8905.0826963192
 30
0.0
 11
-3141.387827536
 21
8903.8828003192
 31
0.0
  0
LINE
  5
2AC
330
1F
100
AcDbEntity
  8
0
  6
Continuous
 62
     7
370
    25
100
AcDbLine
 10
-3140.966060536
 20
8905.7645593192
 30
0.0
 11
-3141.485744536
 21
8905.0826963192
 31
0.0
  0
LINE
  5
2AD
330
1F
100
AcDbEntity
  8
0
  6
Continuous
 62
     7
370
    25
100
AcDbLine
 10
-3140.868778536
 20
8907.8078623192
 30
0.0
 11
-3140.966060536
 21
8905.7645593192
 31
0.0
  0
LINE
  5
2AE
330
1F
100
AcDbEntity
  8
0
  6
Continuous
 62
     7
370
    25
100
AcDbLine
 10
-3141.128239536
 20
8909.7879193192
 30
0.0
 11
-3140.868778536
 21
8907.8078623192
 31
0.0
  0
LINE
  5
2AF
330
1F
100
AcDbEntity
  8
0
  6
Continuous
 62
     7
370
    25
100
AcDbLine
 10
-3140.025244536
 20
8910.2087973192
 30
0.0
 11
-3141.128239536
 21
8909.7879193192
 31
0.0
  0
LINE
  5
2B0
330
1F
100
AcDbEntity
  8
0
  6
Continuous
 62
     7
370
    25
100
AcDbLine
 10
-3139.862430536
 20
8910.9880693192
 30
0.0
 11
-3140.025244536
 21
8910.2087973192
 31
0.0
  0
LINE
  5
2B1
330
1F
100
AcDbEntity
  8
0
  6
Continuous
 62
     7
370
    25
100
AcDbLine
 10
-3141.291180536
 20
8911.9297743192
 30
0.0
 11
-3139.862430536
 21
8910.9880693192
 31
0.0
  0
LINE
  5
2B2
330
1F
100
AcDbEntity
  8
0
  6
Continuous
 62
     7
370
    25
100
AcDbLine
 10
-3140.609063536
 20
8915.4011923192
 30
0.0
 11
-3141.291180536
 21
8911.9297743192
 31
0.0
  0
LINE
  5
2B3
330
1F
100
AcDbEntity
  8
0
  6
Continuous
 62
     7
370
    25
100
AcDbLine
 10
-3141.712566536
 20
8915.2387593192
 30
0.0
 11
-3140.609063536
 21
8915.4011923192
 31
0.0
  0
LINE
  5
2B4
330
1F
100
AcDbEntity
  8
0
  6
Continuous
 62
     7
370
    25
100
AcDbLine
 10
-3141.291180536
 20
8916.9578313192
 30
0.0
 11
-3141.712566536
 21
8915.2387593192
 31
0.0
  0
LINE
  5
2B5
330
1F
100
AcDbEntity
  8
0
  6
Continuous
 62
     7
370
    25
100
AcDbLine
 10
-3142.069817536
 20
8917.8994093192
 30
0.0
 11
-3141.291180536
 21
8916.9578313192
 31
0.0
  0
LINE
  5
2B6
330
1F
100
AcDbEntity
  8
0
  6
Continuous
 62
     7
370
    25
100
AcDbLine
 10
-3141.906368536
 20
8918.3211763192
 30
0.0
 11
-3142.069817536
 21
8917.8994093192
 31
0.0
  0
LINE
  5
2B7
330
1F
100
AcDbEntity
  8
0
  6
Continuous
 62
     7
370
    25
100
AcDbLine
 10
-3141.128239536
 20
8918.4183313192
 30
0.0
 11
-3141.906368536
 21
8918.3211763192
 31
0.0
  0
LINE
  5
2B8
330
1F
100
AcDbEntity
  8
0
  6
Continuous
 62
     7
370
    25
100
AcDbLine
 10
-3140.771242536
 20
8920.0082443192
 30
0.0
 11
-3141.128239536
 21
8918.4183313192
 31
0.0
  0
LINE
  5
2B9
330
1F
100
AcDbEntity
  8
0
  6
Continuous
 62
     7
370
    25
100
AcDbLine
 10
-3141.225140536
 20
8921.8905113192
 30
0.0
 11
-3140.771242536
 21
8920.0082443192
 31
0.0
  0
LINE
  5
2BA
330
1F
100
AcDbEntity
  8
0
  6
Continuous
 62
     7
370
    25
100
AcDbLine
 10
-3140.771242536
 20
8924.4540063192
 30
0.0
 11
-3141.225140536
 21
8921.8905113192
 31
0.0
  0
LINE
  5
2BB
330
1F
100
AcDbEntity
  8
0
  6
Continuous
 62
     7
370
    25
100
AcDbLine
 10
-3140.545182536
 20
8925.8162083192
 30
0.0
 11
-3140.771242536
 21
8924.4540063192
 31
0.0
  0
LINE
  5
2BC
330
1F
100
AcDbEntity
  8
0
  6
Continuous
 62
     7
370
    25
100
AcDbLine
 10
-3140.025244536
 20
8927.5366773192
 30
0.0
 11
-3140.545182536
 21
8925.8162083192
 31
0.0
  0
LINE
  5
2BD
330
1F
100
AcDbEntity
  8
0
  6
Continuous
 62
     7
370
    25
100
AcDbLine
 10
-3140.284705536
 20
8928.4773663192
 30
0.0
 11
-3140.025244536
 21
8927.5366773192
 31
0.0
  0
LINE
  5
2BE
330
1F
100
AcDbEntity
  8
0
  6
Continuous
 62
     7
370
    25
100
AcDbLine
 10
-3139.862430536
 20
8929.7424133192
 30
0.0
 11
-3140.284705536
 21
8928.4773663192
 31
0.0
  0
LINE
  5
2BF
330
1F
100
AcDbEntity
  8
0
  6
Continuous
 62
     7
370
    25
100
AcDbLine
 10
-3139.765275536
 20
8930.8459163192
 30
0.0
 11
-3139.862430536
 21
8929.7424133192
 31
0.0
  0
LINE
  5
2C0
330
1F
100
AcDbEntity
  8
0
  6
Continuous
 62
     7
370
    25
100
AcDbLine
 10
-3138.662788536
 20
8931.4627553192
 30
0.0
 11
-3139.765275536
 21
8930.8459163192
 31
0.0
  0
LINE
  5
2C1
330
1F
100
AcDbEntity
  8
0
  6
Continuous
 62
     7
370
    25
100
AcDbLine
 10
-3138.143231536
 20
8933.5058043192
 30
0.0
 11
-3138.662788536
 21
8931.4627553192
 31
0.0
  0
LINE
  5
2C2
330
1F
100
AcDbEntity
  8
0
  6
Continuous
 62
     7
370
    25
100
AcDbLine
 10
-3139.148817536
 20
8934.8688953192
 30
0.0
 11
-3138.143231536
 21
8933.5058043192
 31
0.0
  0
LINE
  5
2C3
330
1F
100
AcDbEntity
  8
0
  6
Continuous
 62
     7
370
    25
100
AcDbLine
 10
-3138.824840536
 20
8937.1731833192
 30
0.0
 11
-3139.148817536
 21
8934.8688953192
 31
0.0
  0
LINE
  5
2C4
330
1F
100
AcDbEntity
  8
0
  6
Continuous
 62
     7
370
    25
100
AcDbLine
 10
-3139.765275536
 20
8940.5149343192
 30
0.0
 11
-3138.824840536
 21
8937.1731833192
 31
0.0
  0
LINE
  5
2C5
330
1F
100
AcDbEntity
  8
0
  6
Continuous
 62
     7
370
    25
100
AcDbLine
 10
-3139.765275536
 20
8942.6238963192
 30
0.0
 11
-3139.765275536
 21
8940.5149343192
 31
0.0
  0
LINE
  5
2C6
330
1F
100
AcDbEntity
  8
0
  6
Continuous
 62
     7
370
    25
100
AcDbLine
 10
-3140.545182536
 20
8943.4025333192
 30
0.0
 11
-3139.765275536
 21
8942.6238963192
 31
0.0
  0
LINE
  5
2C7
330
1F
100
AcDbEntity
  8
0
  6
Continuous
 62
     7
370
    25
100
AcDbLine
 10
-3140.706472536
 20
8945.0245773192
 30
0.0
 11
-3140.545182536
 21
8943.4025333192
 31
0.0
  0
LINE
  5
2C8
330
1F
100
AcDbEntity
  8
0
  6
Continuous
 62
     7
370
    25
100
AcDbLine
 10
-3139.927835536
 20
8945.8687463192
 30
0.0
 11
-3140.706472536
 21
8945.0245773192
 31
0.0
  0
LINE
  5
2C9
330
1F
100
AcDbEntity
  8
0
  6
Continuous
 62
     7
370
    25
100
AcDbLine
 10
-3138.662788536
 20
8945.8687463192
 30
0.0
 11
-3139.927835536
 21
8945.8687463192
 31
0.0
  0
LINE
  5
2CA
330
1F
100
AcDbEntity
  8
0
  6
Continuous
 62
     7
370
    25
100
AcDbLine
 10
-3138.662788536
 20
8947.2313293192
 30
0.0
 11
-3138.662788536
 21
8945.8687463192
 31
0.0
  0
LINE
  5
2CB
330
1F
100
AcDbEntity
  8
0
  6
Continuous
 62
     7
370
    25
100
AcDbLine
 10
-3137.721210536
 20
8948.6910673192
 30
0.0
 11
-3138.662788536
 21
8947.2313293192
 31
0.0
  0
LINE
  5
2CC
330
1F
100
AcDbEntity
  8
0
  6
Continuous
 62
     7
370
    25
100
AcDbLine
 10
-3136.942192536
 20
8948.6910673192
 30
0.0
 11
-3137.721210536
 21
8948.6910673192
 31
0.0
  0
LINE
  5
2CD
330
1F
100
AcDbEntity
  8
0
  6
Continuous
 62
     7
370
    25
100
AcDbLine
 10
-3136.779886536
 20
8950.2160833192
 30
0.0
 11
-3136.942192536
 21
8948.6910673192
 31
0.0
  0
LINE
  5
2CE
330
1F
100
AcDbEntity
  8
0
  6
Continuous
 62
     7
370
    25
100
AcDbLine
 10
-3137.299570536
 20
8951.7741193192
 30
0.0
 11
-3136.779886536
 21
8950.2160833192
 31
0.0
  0
LINE
  5
2CF
330
1F
100
AcDbEntity
  8
0
  6
Continuous
 62
     7
370
    25
100
AcDbLine
 10
-3138.662788536
 20
8952.8777493192
 30
0.0
 11
-3137.299570536
 21
8951.7741193192
 31
0.0
  0
LINE
  5
2D0
330
1F
100
AcDbEntity
  8
0
  6
Continuous
 62
     7
370
    25
100
AcDbLine
 10
-3137.461114536
 20
8953.6554973192
 30
0.0
 11
-3138.662788536
 21
8952.8777493192
 31
0.0
  0
LINE
  5
2D1
330
1F
100
AcDbEntity
  8
0
  6
Continuous
 62
     7
370
    25
100
AcDbLine
 10
-3137.721210536
 20
8957.7443893192
 30
0.0
 11
-3137.461114536
 21
8953.6554973192
 31
0.0
  0
LINE
  5
2D2
330
1F
100
AcDbEntity
  8
0
  6
Continuous
 62
     7
370
    25
100
AcDbLine
 10
-3139.083666536
 20
8959.2694053192
 30
0.0
 11
-3137.721210536
 21
8957.7443893192
 31
0.0
  0
LINE
  5
2D3
330
1F
100
AcDbEntity
  8
0
  6
Continuous
 62
     7
370
    25
100
AcDbLine
 10
-3138.726669536
 20
8960.7299053192
 30
0.0
 11
-3139.083666536
 21
8959.2694053192
 31
0.0
  0
LINE
  5
2D4
330
1F
100
AcDbEntity
  8
0
  6
Continuous
 62
     7
370
    25
100
AcDbLine
 10
-3139.602969536
 20
8962.6111563192
 30
0.0
 11
-3138.726669536
 21
8960.7299053192
 31
0.0
  0
LINE
  5
2D5
330
1F
100
AcDbEntity
  8
0
  6
Continuous
 62
     7
370
    25
100
AcDbLine
 10
-3139.083666536
 20
8964.2339623192
 30
0.0
 11
-3139.602969536
 21
8962.6111563192
 31
0.0
  0
LINE
  5
2D6
330
1F
100
AcDbEntity
  8
0
  6
Continuous
 62
     7
370
    25
100
AcDbLine
 10
-3139.083666536
 20
8965.5957833192
 30
0.0
 11
-3139.083666536
 21
8964.2339623192
 31
0.0
  0
LINE
  5
2D7
330
1F
100
AcDbEntity
  8
0
  6
Continuous
 62
     7
370
    25
100
AcDbLine
 10
-3137.883897536
 20
8965.6614423192
 30
0.0
 11
-3139.083666536
 21
8965.5957833192
 31
0.0
  0
LINE
  5
2D8
330
1F
100
AcDbEntity
  8
0
  6
Continuous
 62
     7
370
    25
100
AcDbLine
 10
-3137.105006536
 20
8966.8618463192
 30
0.0
 11
-3137.883897536
 21
8965.6614423192
 31
0.0
  0
LINE
  5
2D9
330
1F
100
AcDbEntity
  8
0
  6
Continuous
 62
     7
370
    25
100
AcDbLine
 10
-3137.624436536
 20
8967.4790663192
 30
0.0
 11
-3137.105006536
 21
8966.8618463192
 31
0.0
  0
LINE
  5
2DA
330
1F
100
AcDbEntity
  8
0
  6
Continuous
 62
     7
370
    25
100
AcDbLine
 10
-3137.105006536
 20
8968.5815533192
 30
0.0
 11
-3137.624436536
 21
8967.4790663192
 31
0.0
  0
LINE
  5
2DB
330
1F
100
AcDbEntity
  8
0
  6
Continuous
 62
     7
370
    25
100
AcDbLine
 10
-3137.201907536
 20
8970.5287173192
 30
0.0
 11
-3137.105006536
 21
8968.5815533192
 31
0.0
  0
LINE
  5
2DC
330
1F
100
AcDbEntity
  8
0
  6
Continuous
 62
     7
370
    25
100
AcDbLine
 10
-3136.683366536
 20
8970.6252373192
 30
0.0
 11
-3137.201907536
 21
8970.5287173192
 31
0.0
  0
LINE
  5
2DD
330
1F
100
AcDbEntity
  8
0
  6
Continuous
 62
     7
370
    25
100
AcDbLine
 10
-3135.417430536
 20
8970.8852063192
 30
0.0
 11
-3136.683366536
 21
8970.6252373192
 31
0.0
  0
LINE
  5
2DE
330
1F
100
AcDbEntity
  8
0
  6
Continuous
 62
     7
370
    25
100
AcDbLine
 10
-3135.158350536
 20
8971.6640973192
 30
0.0
 11
-3135.417430536
 21
8970.8852063192
 31
0.0
  0
LINE
  5
2DF
330
1F
100
AcDbEntity
  8
0
  6
Continuous
 62
     7
370
    25
100
AcDbLine
 10
-3136.683366536
 20
8973.0268073192
 30
0.0
 11
-3135.158350536
 21
8971.6640973192
 31
0.0
  0
LINE
  5
2E0
330
1F
100
AcDbEntity
  8
0
  6
Continuous
 62
     7
370
    25
100
AcDbLine
 10
-3136.683366536
 20
8974.0641433192
 30
0.0
 11
-3136.683366536
 21
8973.0268073192
 31
0.0
  0
LINE
  5
2E1
330
1F
100
AcDbEntity
  8
0
  6
Continuous
 62
     7
370
    25
100
AcDbLine
 10
-3134.216645536
 20
8974.9733363192
 30
0.0
 11
-3136.683366536
 21
8974.0641433192
 31
0.0
  0
LINE
  5
2E2
330
1F
100
AcDbEntity
  8
0
  6
Continuous
 62
     7
370
    25
100
AcDbLine
 10
-3131.330062536
 20
8978.3150873192
 30
0.0
 11
-3134.216645536
 21
8974.9733363192
 31
0.0
  0
LINE
  5
2E3
330
1F
100
AcDbEntity
  8
0
  6
Continuous
 62
     7
370
    25
100
AcDbLine
 10
-3128.928492536
 20
8978.3150873192
 30
0.0
 11
-3131.330062536
 21
8978.3150873192
 31
0.0
  0
LINE
  5
2E4
330
1F
100
AcDbEntity
  8
0
  6
Continuous
 62
     7
370
    25
100
AcDbLine
 10
-3128.246375536
 20
8978.8351523192
 30
0.0
 11
-3128.928492536
 21
8978.3150873192
 31
0.0
  0
LINE
  5
2E5
330
1F
100
AcDbEntity
  8
0
  6
Continuous
 62
     7
370
    25
100
AcDbLine
 10
-3127.208277536
 20
8978.8994143192
 30
0.0
 11
-3128.246375536
 21
8978.8351523192
 31
0.0
  0
LINE
  5
2E6
330
1F
100
AcDbEntity
  8
0
  6
Continuous
 62
     7
370
    25
100
AcDbLine
 10
-3126.527684536
 20
8979.6783053192
 30
0.0
 11
-3127.208277536
 21
8978.8994143192
 31
0.0
  0
LINE
  5
2E7
330
1F
100
AcDbEntity
  8
0
  6
Continuous
 62
     7
370
    25
100
AcDbLine
 10
-3125.942468536
 20
8979.6783053192
 30
0.0
 11
-3126.527684536
 21
8979.6783053192
 31
0.0
  0
LINE
  5
2E8
330
1F
100
AcDbEntity
  8
0
  6
Continuous
 62
     7
370
    25
100
AcDbLine
 10
-3123.541533536
 20
8982.9221393192
 30
0.0
 11
-3125.942468536
 21
8979.6783053192
 31
0.0
  0
LINE
  5
2E9
330
1F
100
AcDbEntity
  8
0
  6
Continuous
 62
     7
370
    25
100
AcDbLine
 10
-3122.179839536
 20
8982.8247303192
 30
0.0
 11
-3123.541533536
 21
8982.9221393192
 31
0.0
  0
LINE
  5
2EA
330
1F
100
AcDbEntity
  8
0
  6
Continuous
 62
     7
370
    25
100
AcDbLine
 10
-3121.757564536
 20
8984.8051683192
 30
0.0
 11
-3122.179839536
 21
8982.8247303192
 31
0.0
  0
LINE
  5
2EB
330
1F
100
AcDbEntity
  8
0
  6
Continuous
 62
     7
370
    25
100
AcDbLine
 10
-3120.557287536
 20
8984.8051683192
 30
0.0
 11
-3121.757564536
 21
8984.8051683192
 31
0.0
  0
LINE
  5
2EC
330
1F
100
AcDbEntity
  8
0
  6
Continuous
 62
     7
370
    25
100
AcDbLine
 10
-3120.135393536
 20
8985.6485753192
 30
0.0
 11
-3120.557287536
 21
8984.8051683192
 31
0.0
  0
LINE
  5
2ED
330
1F
100
AcDbEntity
  8
0
  6
Continuous
 62
     7
370
    25
100
AcDbLine
 10
-3119.355994536
 20
8987.9521013192
 30
0.0
 11
-3120.135393536
 21
8985.6485753192
 31
0.0
  0
LINE
  5
2EE
330
1F
100
AcDbEntity
  8
0
  6
Continuous
 62
     7
370
    25
100
AcDbLine
 10
-3118.187975536
 20
8989.1531403192
 30
0.0
 11
-3119.355994536
 21
8987.9521013192
 31
0.0
  0
LINE
  5
2EF
330
1F
100
AcDbEntity
  8
0
  6
Continuous
 62
     7
370
    25
100
AcDbLine
 10
-3116.889908536
 20
8989.1531403192
 30
0.0
 11
-3118.187975536
 21
8989.1531403192
 31
0.0
  0
LINE
  5
2F0
330
1F
100
AcDbEntity
  8
0
  6
Continuous
 62
     7
370
    25
100
AcDbLine
 10
-3116.727475536
 20
8989.8988843192
 30
0.0
 11
-3116.889908536
 21
8989.1531403192
 31
0.0
  0
LINE
  5
2F1
330
1F
100
AcDbEntity
  8
0
  6
Continuous
 62
     7
370
    25
100
AcDbLine
 10
-3114.425346536
 20
8990.5798583192
 30
0.0
 11
-3116.727475536
 21
8989.8988843192
 31
0.0
  0
LINE
  5
2F2
330
1F
100
AcDbEntity
  8
0
  6
Continuous
 62
     7
370
    25
100
AcDbLine
 10
-3112.120423536
 20
8989.4768633192
 30
0.0
 11
-3114.425346536
 21
8990.5798583192
 31
0.0
  0
LINE
  5
2F3
330
1F
100
AcDbEntity
  8
0
  6
Continuous
 62
     7
370
    25
100
AcDbLine
 10
-3111.341659536
 20
8990.6775213192
 30
0.0
 11
-3112.120423536
 21
8989.4768633192
 31
0.0
  0
LINE
  5
2F4
330
1F
100
AcDbEntity
  8
0
  6
Continuous
 62
     7
370
    25
100
AcDbLine
 10
-3110.141255536
 20
8990.5798583192
 30
0.0
 11
-3111.341659536
 21
8990.6775213192
 31
0.0
  0
LINE
  5
2F5
330
1F
100
AcDbEntity
  8
0
  6
Continuous
 62
     7
370
    25
100
AcDbLine
 10
-3108.875700536
 20
8991.9754613192
 30
0.0
 11
-3110.141255536
 21
8990.5798583192
 31
0.0
  0
LINE
  5
2F6
330
1F
100
AcDbEntity
  8
0
  6
Continuous
 62
     7
370
    25
100
AcDbLine
 10
-3107.513879536
 20
8991.9754613192
 30
0.0
 11
-3108.875700536
 21
8991.9754613192
 31
0.0
  0
LINE
  5
2F7
330
1F
100
AcDbEntity
  8
0
  6
Continuous
 62
     7
370
    25
100
AcDbLine
 10
-3107.253783536
 20
8990.7754383192
 30
0.0
 11
-3107.513879536
 21
8991.9754613192
 31
0.0
  0
LINE
  5
2F8
330
1F
100
AcDbEntity
  8
0
  6
Continuous
 62
     7
370
    25
100
AcDbLine
 10
-3106.150788536
 20
8990.3535443192
 30
0.0
 11
-3107.253783536
 21
8990.7754383192
 31
0.0
  0
LINE
  5
2F9
330
1F
100
AcDbEntity
  8
0
  6
Continuous
 62
     7
370
    25
100
AcDbLine
 10
-3105.696382536
 20
8990.4827033192
 30
0.0
 11
-3106.150788536
 21
8990.3535443192
 31
0.0
  0
LINE
  5
2FA
330
1F
100
AcDbEntity
  8
0
  6
Continuous
 62
     7
370
    25
100
AcDbLine
 10
-3105.274234536
 20
8988.9579413192
 30
0.0
 11
-3105.696382536
 21
8990.4827033192
 31
0.0
  0
LINE
  5
2FB
330
1F
100
AcDbEntity
  8
0
  6
Continuous
 62
     7
370
    25
100
AcDbLine
 10
-3104.107104536
 20
8988.5361743192
 30
0.0
 11
-3105.274234536
 21
8988.9579413192
 31
0.0
  0
LINE
  5
2FC
330
1F
100
AcDbEntity
  8
0
  6
Continuous
 62
     7
370
    25
100
AcDbLine
 10
-3103.846500536
 20
8987.5303343192
 30
0.0
 11
-3104.107104536
 21
8988.5361743192
 31
0.0
  0
LINE
  5
2FD
330
1F
100
AcDbEntity
  8
0
  6
Continuous
 62
     7
370
    25
100
AcDbLine
 10
-3102.646096536
 20
8987.5303343192
 30
0.0
 11
-3103.846500536
 21
8987.5303343192
 31
0.0
  0
LINE
  5
2FE
330
1F
100
AcDbEntity
  8
0
  6
Continuous
 62
     7
370
    25
100
AcDbLine
 10
-3104.950003536
 20
8982.9221393192
 30
0.0
 11
-3102.646096536
 21
8987.5303343192
 31
0.0
  0
LINE
  5
2FF
330
1F
100
AcDbEntity
  8
0
  6
Continuous
 62
     7
370
    25
100
AcDbLine
 10
-3102.906065536
 20
8981.3653733192
 30
0.0
 11
-3104.950003536
 21
8982.9221393192
 31
0.0
  0
LINE
  5
300
330
1F
100
AcDbEntity
  8
0
  6
Continuous
 62
     7
370
    25
100
AcDbLine
 10
-3103.068371536
 20
8979.1588753192
 30
0.0
 11
-3102.906065536
 21
8981.3653733192
 31
0.0
  0
LINE
  5
301
330
1F
100
AcDbEntity
  8
0
  6
Continuous
 62
     7
370
    25
100
AcDbLine
 10
-3101.023417536
 20
8978.4775203192
 30
0.0
 11
-3103.068371536
 21
8979.1588753192
 31
0.0
  0
LINE
  5
302
330
1F
100
AcDbEntity
  8
0
  6
Continuous
 62
     7
370
    25
100
AcDbLine
 10
-3100.180264536
 20
8977.8931933192
 30
0.0
 11
-3101.023417536
 21
8978.4775203192
 31
0.0
  0
LINE
  5
303
330
1F
100
AcDbEntity
  8
0
  6
Continuous
 62
     7
370
    25
100
AcDbLine
 10
-3100.245288536
 20
8976.8556033192
 30
0.0
 11
-3100.180264536
 21
8977.8931933192
 31
0.0
  0
LINE
  5
304
330
1F
100
AcDbEntity
  8
0
  6
Continuous
 62
     7
370
    25
100
AcDbLine
 10
-3099.141785536
 20
8975.7519733192
 30
0.0
 11
-3100.245288536
 21
8976.8556033192
 31
0.0
  0
LINE
  5
305
330
1F
100
AcDbEntity
  8
0
  6
Continuous
 62
     7
370
    25
100
AcDbLine
 10
-3097.876611536
 20
8975.7519733192
 30
0.0
 11
-3099.141785536
 21
8975.7519733192
 31
0.0
  0
LINE
  5
306
330
1F
100
AcDbEntity
  8
0
  6
Continuous
 62
     7
370
    25
100
AcDbLine
 10
-3097.682682536
 20
8974.5509343192
 30
0.0
 11
-3097.876611536
 21
8975.7519733192
 31
0.0
  0
LINE
  5
307
330
1F
100
AcDbEntity
  8
0
  6
Continuous
 62
     7
370
    25
100
AcDbLine
 10
-3097.001454536
 20
8974.7132403192
 30
0.0
 11
-3097.682682536
 21
8974.5509343192
 31
0.0
  0
LINE
  5
308
330
1F
100
AcDbEntity
  8
0
  6
Continuous
 62
     7
370
    25
100
AcDbLine
 10
-3096.415730536
 20
8975.0706183192
 30
0.0
 11
-3097.001454536
 21
8974.7132403192
 31
0.0
  0
LINE
  5
309
330
1F
100
AcDbEntity
  8
0
  6
Continuous
 62
     7
370
    25
100
AcDbLine
 10
-3095.637855536
 20
8974.9085663192
 30
0.0
 11
-3096.415730536
 21
8975.0706183192
 31
0.0
  0
LINE
  5
30A
330
1F
100
AcDbEntity
  8
0
  6
Continuous
 62
     7
370
    25
100
AcDbLine
 10
-3095.215707536
 20
8975.6548183192
 30
0.0
 11
-3095.637855536
 21
8974.9085663192
 31
0.0
  0
LINE
  5
30B
330
1F
100
AcDbEntity
  8
0
  6
Continuous
 62
     7
370
    25
100
AcDbLine
 10
-3094.372300536
 20
8975.3300793192
 30
0.0
 11
-3095.215707536
 21
8975.6548183192
 31
0.0
  0
LINE
  5
30C
330
1F
100
AcDbEntity
  8
0
  6
Continuous
 62
     7
370
    25
100
AcDbLine
 10
-3094.697166536
 20
8973.8703413192
 30
0.0
 11
-3094.372300536
 21
8975.3300793192
 31
0.0
  0
LINE
  5
30D
330
1F
100
AcDbEntity
  8
0
  6
Continuous
 62
     7
370
    25
100
AcDbLine
 10
-3092.490922536
 20
8972.6049133192
 30
0.0
 11
-3093.756096536
 21
8971.5666883192
 31
0.0
  0
LINE
  5
30E
330
1F
100
AcDbEntity
  8
0
  6
Continuous
 62
     7
370
    25
100
AcDbLine
 10
-3092.490922536
 20
8970.4634393192
 30
0.0
 11
-3092.490922536
 21
8972.6049133192
 31
0.0
  0
LINE
  5
30F
330
1F
100
AcDbEntity
  8
0
  6
Continuous
 62
     7
370
    25
100
AcDbLine
 10
-3093.950533536
 20
8970.0416723192
 30
0.0
 11
-3092.490922536
 21
8970.4634393192
 31
0.0
  0
LINE
  5
310
330
1F
100
AcDbEntity
  8
0
  6
Continuous
 62
     7
370
    25
100
AcDbLine
 10
-3094.113093536
 20
8967.2179543192
 30
0.0
 11
-3093.950533536
 21
8970.0416723192
 31
0.0
  0
LINE
  5
311
330
1F
100
AcDbEntity
  8
0
  6
Continuous
 62
     7
370
    25
100
AcDbLine
 10
-3092.328997536
 20
8966.3748013192
 30
0.0
 11
-3094.113093536
 21
8967.2179543192
 31
0.0
  0
LINE
  5
312
330
1F
100
AcDbEntity
  8
0
  6
Continuous
 62
     7
370
    25
100
AcDbLine
 10
-3092.588458536
 20
8965.4988823192
 30
0.0
 11
-3092.328997536
 21
8966.3748013192
 31
0.0
  0
LINE
  5
313
330
1F
100
AcDbEntity
  8
0
  6
Continuous
 62
     7
370
    25
100
AcDbLine
 10
-3091.971619536
 20
8964.6548403192
 30
0.0
 11
-3092.588458536
 21
8965.4988823192
 31
0.0
  0
LINE
  5
314
330
1F
100
AcDbEntity
  8
0
  6
Continuous
 62
     7
370
    25
100
AcDbLine
 10
-3094.210248536
 20
8964.5578123192
 30
0.0
 11
-3091.971619536
 21
8964.6548403192
 31
0.0
  0
LINE
  5
315
330
1F
100
AcDbEntity
  8
0
  6
Continuous
 62
     7
370
    25
100
AcDbLine
 10
-3095.118552536
 20
8963.7140243192
 30
0.0
 11
-3094.210248536
 21
8964.5578123192
 31
0.0
  0
LINE
  5
316
330
1F
100
AcDbEntity
  8
0
  6
Continuous
 62
     7
370
    25
100
AcDbLine
 10
-3096.936049536
 20
8964.8172733192
 30
0.0
 11
-3095.118552536
 21
8963.7140243192
 31
0.0
  0
LINE
  5
317
330
1F
100
AcDbEntity
  8
0
  6
Continuous
 62
     7
370
    25
100
AcDbLine
 10
-3097.260280536
 20
8963.8767113192
 30
0.0
 11
-3096.936049536
 21
8964.8172733192
 31
0.0
  0
LINE
  5
318
330
1F
100
AcDbEntity
  8
0
  6
Continuous
 62
     7
370
    25
100
AcDbLine
 10
-3096.319083536
 20
8962.7728273192
 30
0.0
 11
-3097.260280536
 21
8963.8767113192
 31
0.0
  0
LINE
  5
319
330
1F
100
AcDbEntity
  8
0
  6
Continuous
 62
     7
370
    25
100
AcDbLine
 10
-3096.740850536
 20
8958.9445393192
 30
0.0
 11
-3096.319083536
 21
8962.7728273192
 31
0.0
  0
LINE
  5
31A
330
1F
100
AcDbEntity
  8
0
  6
Continuous
 62
     7
370
    25
100
AcDbLine
 10
-3094.793686536
 20
8958.8467493192
 30
0.0
 11
-3096.740850536
 21
8958.9445393192
 31
0.0
  0
LINE
  5
31B
330
1F
100
AcDbEntity
  8
0
  6
Continuous
 62
     7
370
    25
100
AcDbLine
 10
-3094.891476536
 20
8957.0622723192
 30
0.0
 11
-3094.793686536
 21
8958.8467493192
 31
0.0
  0
LINE
  5
31C
330
1F
100
AcDbEntity
  8
0
  6
Continuous
 62
     7
370
    25
100
AcDbLine
 10
-3093.690437536
 20
8954.3373603192
 30
0.0
 11
-3094.891476536
 21
8957.0622723192
 31
0.0
  0
LINE
  5
31D
330
1F
100
AcDbEntity
  8
0
  6
Continuous
 62
     7
370
    25
100
AcDbLine
 10
-3091.452443536
 20
8951.3518443192
 30
0.0
 11
-3093.690437536
 21
8954.3373603192
 31
0.0
  0
LINE
  5
31E
330
1F
100
AcDbEntity
  8
0
  6
Continuous
 62
     7
370
    25
100
AcDbLine
 10
-3090.706318536
 20
8950.3141273192
 30
0.0
 11
-3091.452443536
 21
8951.3518443192
 31
0.0
  0
LINE
  5
31F
330
1F
100
AcDbEntity
  8
0
  6
Continuous
 62
     7
370
    25
100
AcDbLine
 10
-3089.245437536
 20
8950.7358943192
 30
0.0
 11
-3090.706318536
 21
8950.3141273192
 31
0.0
  0
LINE
  5
320
330
1F
100
AcDbEntity
  8
0
  6
Continuous
 62
     7
370
    25
100
AcDbLine
 10
-3089.213814536
 20
8950.8005373192
 30
0.0
 11
-3089.245437536
 21
8950.7358943192
 31
0.0
  0
LINE
  5
321
330
1F
100
AcDbEntity
  8
0
  6
Continuous
 62
     7
370
    25
100
AcDbLine
 10
-3088.401776536
 20
8950.2160833192
 30
0.0
 11
-3089.213814536
 21
8950.8005373192
 31
0.0
  0
LINE
  5
322
330
1F
100
AcDbEntity
  8
0
  6
Continuous
 62
     7
370
    25
100
AcDbLine
 10
-3088.565225536
 20
8949.3081603192
 30
0.0
 11
-3088.401776536
 21
8950.2160833192
 31
0.0
  0
LINE
  5
323
330
1F
100
AcDbEntity
  8
0
  6
Continuous
 62
     7
370
    25
100
AcDbLine
 10
-3088.401776536
 20
8949.2106243192
 30
0.0
 11
-3088.565225536
 21
8949.3081603192
 31
0.0
  0
LINE
  5
324
330
1F
100
AcDbEntity
  8
0
  6
Continuous
 62
     7
370
    25
100
AcDbLine
 10
-3090.284043536
 20
8949.2106243192
 30
0.0
 11
-3088.401776536
 21
8949.2106243192
 31
0.0
  0
LINE
  5
325
330
1F
100
AcDbEntity
  8
0
  6
Continuous
 62
     7
370
    25
100
AcDbLine
 10
-3090.608020536
 20
8948.1720183192
 30
0.0
 11
-3090.284043536
 21
8949.2106243192
 31
0.0
  0
LINE
  5
326
330
1F
100
AcDbEntity
  8
0
  6
Continuous
 62
     7
370
    25
100
AcDbLine
 10
-3088.823797536
 20
8946.4844423192
 30
0.0
 11
-3090.608020536
 21
8948.1720183192
 31
0.0
  0
LINE
  5
327
330
1F
100
AcDbEntity
  8
0
  6
Continuous
 62
     7
370
    25
100
AcDbLine
 10
-3089.245437536
 20
8945.2840383192
 30
0.0
 11
-3088.823797536
 21
8946.4844423192
 31
0.0
  0
LINE
  5
328
330
1F
100
AcDbEntity
  8
0
  6
Continuous
 62
     7
370
    25
100
AcDbLine
 10
-3089.765629536
 20
8945.7064403192
 30
0.0
 11
-3089.245437536
 21
8945.2840383192
 31
0.0
  0
LINE
  5
329
330
1F
100
AcDbEntity
  8
0
  6
Continuous
 62
     7
370
    25
100
AcDbLine
 10
-3090.706318536
 20
8944.7653703192
 30
0.0
 11
-3089.765629536
 21
8945.7064403192
 31
0.0
  0
LINE
  5
32A
330
1F
100
AcDbEntity
  8
0
  6
Continuous
 62
     7
370
    25
100
AcDbLine
 10
-3090.349321536
 20
8944.0835073192
 30
0.0
 11
-3090.706318536
 21
8944.7653703192
 31
0.0
  0
LINE
  5
32B
330
1F
100
AcDbEntity
  8
0
  6
Continuous
 62
     7
370
    25
100
AcDbLine
 10
-3091.127831536
 20
8942.5587453192
 30
0.0
 11
-3090.349321536
 21
8944.0835073192
 31
0.0
  0
LINE
  5
32C
330
1F
100
AcDbEntity
  8
0
  6
Continuous
 62
     7
370
    25
100
AcDbLine
 10
-3091.127831536
 20
8941.4561313192
 30
0.0
 11
-3091.127831536
 21
8942.5587453192
 31
0.0
  0
LINE
  5
32D
330
1F
100
AcDbEntity
  8
0
  6
Continuous
 62
     7
370
    25
100
AcDbLine
 10
-3092.133671536
 20
8940.7751573192
 30
0.0
 11
-3091.127831536
 21
8941.4561313192
 31
0.0
  0
LINE
  5
32E
330
1F
100
AcDbEntity
  8
0
  6
Continuous
 62
     7
370
    25
100
AcDbLine
 10
-3092.230572536
 20
8939.5742453192
 30
0.0
 11
-3092.133671536
 21
8940.7751573192
 31
0.0
  0
LINE
  5
32F
330
1F
100
AcDbEntity
  8
0
  6
Continuous
 62
     7
370
    25
100
AcDbLine
 10
-3090.771088536
 20
8939.6392693192
 30
0.0
 11
-3092.230572536
 21
8939.5742453192
 31
0.0
  0
LINE
  5
330
330
1F
100
AcDbEntity
  8
0
  6
Continuous
 62
     7
370
    25
100
AcDbLine
 10
-3090.771088536
 20
8938.8914933192
 30
0.0
 11
-3090.771088536
 21
8939.6392693192
 31
0.0
  0
LINE
  5
331
330
1F
100
AcDbEntity
  8
0
  6
Continuous
 62
     7
370
    25
100
AcDbLine
 10
-3092.068774536
 20
8937.1731833192
 30
0.0
 11
-3090.771088536
 21
8938.8914933192
 31
0.0
  0
LINE
  5
332
330
1F
100
AcDbEntity
  8
0
  6
Continuous
 62
     7
370
    25
100
AcDbLine
 10
-3091.808424536
 20
8936.7509083192
 30
0.0
 11
-3092.068774536
 21
8937.1731833192
 31
0.0
  0
LINE
  5
333
330
1F
100
AcDbEntity
  8
0
  6
Continuous
 62
     7
370
    25
100
AcDbLine
 10
-3091.030295536
 20
8936.9139763192
 30
0.0
 11
-3091.808424536
 21
8936.7509083192
 31
0.0
  0
LINE
  5
334
330
1F
100
AcDbEntity
  8
0
  6
Continuous
 62
     7
370
    25
100
AcDbLine
 10
-3090.511373536
 20
8936.2321133192
 30
0.0
 11
-3091.030295536
 21
8936.9139763192
 31
0.0
  0
LINE
  5
335
330
1F
100
AcDbEntity
  8
0
  6
Continuous
 62
     7
370
    25
100
AcDbLine
 10
-3089.667331536
 20
8936.3939113192
 30
0.0
 11
-3090.511373536
 21
8936.2321133192
 31
0.0
  0
LINE
  5
336
330
1F
100
AcDbEntity
  8
0
  6
Continuous
 62
     7
370
    25
100
AcDbLine
 10
-3088.467054536
 20
8935.9717633192
 30
0.0
 11
-3089.667331536
 21
8936.3939113192
 31
0.0
  0
LINE
  5
337
330
1F
100
AcDbEntity
  8
0
  6
Continuous
 62
     7
370
    25
100
AcDbLine
 10
-3090.284043536
 20
8933.6035943192
 30
0.0
 11
-3088.467054536
 21
8935.9717633192
 31
0.0
  0
LINE
  5
338
330
1F
100
AcDbEntity
  8
0
  6
Continuous
 62
     7
370
    25
100
AcDbLine
 10
-3089.829002536
 20
8931.8838873192
 30
0.0
 11
-3090.284043536
 21
8933.6035943192
 31
0.0
  0
LINE
  5
339
330
1F
100
AcDbEntity
  8
0
  6
Continuous
 62
     7
370
    25
100
AcDbLine
 10
-3088.889075536
 20
8931.1053773192
 30
0.0
 11
-3089.829002536
 21
8931.8838873192
 31
0.0
  0
LINE
  5
33A
330
1F
100
AcDbEntity
  8
0
  6
Continuous
 62
     7
370
    25
100
AcDbLine
 10
-3089.667331536
 20
8927.1791723192
 30
0.0
 11
-3089.083893536
 21
8927.7953763192
 31
0.0
  0
LINE
  5
33B
330
1F
100
AcDbEntity
  8
0
  6
Continuous
 62
     7
370
    25
100
AcDbLine
 10
-3089.505660536
 20
8926.2389913192
 30
0.0
 11
-3089.667331536
 21
8927.1791723192
 31
0.0
  0
LINE
  5
33C
330
1F
100
AcDbEntity
  8
0
  6
Continuous
 62
     7
370
    25
100
AcDbLine
 10
-3088.727150536
 20
8926.3358923192
 30
0.0
 11
-3089.505660536
 21
8926.2389913192
 31
0.0
  0
LINE
  5
33D
330
1F
100
AcDbEntity
  8
0
  6
Continuous
 62
     7
370
    25
100
AcDbLine
 10
-3087.883362536
 20
8924.8101143192
 30
0.0
 11
-3088.727150536
 21
8926.3358923192
 31
0.0
  0
LINE
  5
33E
330
1F
100
AcDbEntity
  8
0
  6
Continuous
 62
     7
370
    25
100
AcDbLine
 10
-3088.889075536
 20
8924.4540063192
 30
0.0
 11
-3087.883362536
 21
8924.8101143192
 31
0.0
  0
LINE
  5
33F
330
1F
100
AcDbEntity
  8
0
  6
Continuous
 62
     7
370
    25
100
AcDbLine
 10
-3089.408124536
 20
8925.1349803192
 30
0.0
 11
-3088.889075536
 21
8924.4540063192
 31
0.0
  0
LINE
  5
340
330
1F
100
AcDbEntity
  8
0
  6
Continuous
 62
     7
370
    25
100
AcDbLine
 10
-3091.127831536
 20
8924.5514153192
 30
0.0
 11
-3089.408124536
 21
8925.1349803192
 31
0.0
  0
LINE
  5
341
330
1F
100
AcDbEntity
  8
0
  6
Continuous
 62
     7
370
    25
100
AcDbLine
 10
-3090.868370536
 20
8923.4475313192
 30
0.0
 11
-3091.127831536
 21
8924.5514153192
 31
0.0
  0
LINE
  5
342
330
1F
100
AcDbEntity
  8
0
  6
Continuous
 62
     7
370
    25
100
AcDbLine
 10
-3094.437324536
 20
8923.0255103192
 30
0.0
 11
-3093.074868536
 21
8923.1878163192
 31
0.0
  0
ENDSEC
  0
SECTION
  2
OBJECTS
  0
DICTIONARY
  5
C
330
0
100
AcDbDictionary
281
     1
  3
ACAD_GROUP
350
D
  3
ACAD_LAYOUT
350
1A
  3
ACAD_MLINESTYLE
350
17
  3
ACAD_PLOTSETTINGS
350
19
  3
ACAD_PLOTSTYLENAME
350
E
  3
ACAD_SCALELIST
350
47
  0
DICTIONARY
  5
D
102
{ACAD_REACTORS
330
C
102
}
330
C
100
AcDbDictionary
281
     1
  0
DICTIONARY
  5
1A
102
{ACAD_REACTORS
330
C
102
}
330
C
100
AcDbDictionary
281
     1
  3
Layout1
350
1E
  3
Layout2
350
26
  3
Model
350
22
  0
DICTIONARY
  5
17
102
{ACAD_REACTORS
330
C
102
}
330
C
100
AcDbDictionary
281
     1
  3
Standard
350
18
  0
DICTIONARY
  5
19
102
{ACAD_REACTORS
330
C
102
}
330
C
100
AcDbDictionary
281
     1
  0
ACDBDICTIONARYWDFLT
  5
E
102
{ACAD_REACTORS
330
C
102
}
330
C
100
AcDbDictionary
281
     1
  3
Normal
350
F
100
AcDbDictionaryWithDefault
340
F
  0
DICTIONARY
  5
47
102
{ACAD_REACTORS
330
C
102
}
330
C
100
AcDbDictionary
281
     1
  3
A0
350
48
  3
A1
350
49
  3
A2
350
4A
  3
A3
350
4B
  3
A4
350
4C
  3
A5
350
4D
  3
A6
350
4E
  3
A7
350
4F
  3
A8
350
50
  3
A9
350
51
  3
B0
350
52
  3
B1
350
53
  3
B2
350
54
  3
B3
350
55
  3
B4
350
56
  3
B5
350
57
  3
B6
350
58
  3
B7
350
59
  3
B8
350
5A
  3
B9
350
5B
  3
C0
350
5C
  3
C1
350
5D
  3
C2
350
5E
  3
C3
350
5F
  3
C4
350
60
  3
C5
350
61
  3
C6
350
62
  3
C7
350
63
  3
C8
350
64
  3
C9
350
65
  3
D0
350
66
  3
D1
350
67
  3
D2
350
68
  0
LAYOUT
  5
1E
102
{ACAD_REACTORS
330
1A
102
}
330
1A
100
AcDbPlotSettings
  1

  2
none_device
  4

  6

 40
0.0
 41
0.0
 42
0.0
 43
0.0
 44
0.0
 45
0.0
 46
0.0
 47
0.0
 48
0.0
 49
0.0
140
0.0
141
0.0
142
1.0
143
1.0
 70
   688
 72
     1
 73
     0
 74
     5
  7

 75
    16
147
1.0
148
0.0
149
0.0
100
AcDbLayout
  1
Layout1
 70
     1
 71
     1
 10
0.0
 20
0.0
 11
420.0
 21
297.0
 12
0.0
 22
0.0
 32
0.0
 14
1.0000000000E+20
 24
1.0000000000E+20
 34
1.0000000000E+20
 15
-1.0000000000E+20
 25
-1.0000000000E+20
 35
-1.0000000000E+20
146
0.0
 13
0.0
 23
0.0
 33
0.0
 16
1.0
 26
0.0
 36
0.0
 17
0.0
 27
1.0
 37
0.0
 76
     0
330
1B
  0
LAYOUT
  5
26
102
{ACAD_REACTORS
330
1A
102
}
330
1A
100
AcDbPlotSettings
  1

  2
none_device
  4

  6

 40
0.0
 41
0.0
 42
0.0
 43
0.0
 44
0.0
 45
0.0
 46
0.0
 47
0.0
 48
0.0
 49
0.0
140
0.0
141
0.0
142
1.0
143
1.0
 70
   688
 72
     1
 73
     0
 74
     5
  7

 75
    16
147
1.0
148
0.0
149
0.0
100
AcDbLayout
  1
Layout2
 70
     1
 71
     2
 10
0.0
 20
0.0
 11
0.0
 21
0.0
 12
0.0
 22
0.0
 32
0.0
 14
0.0
 24
0.0
 34
0.0
 15
0.0
 25
0.0
 35
0.0
146
0.0
 13
0.0
 23
0.0
 33
0.0
 16
1.0
 26
0.0
 36
0.0
 17
0.0
 27
1.0
 37
0.0
 76
     0
330
23
  0
LAYOUT
  5
22
102
{ACAD_REACTORS
330
1A
102
}
330
1A
100
AcDbPlotSettings
  1

  2
none_device
  4
ANSI_A_(11.00_x_8.50_Inches)
  6

 40
6.35
 41
19.05
 42
6.35000508
 43
19.05000254
 44
279.4
 45
215.9
 46
6830.3674180293
 47
-19136.4506493877
 48
0.0
 49
0.0
140
0.0
141
0.0
142
0.0846433659
143
1.0
 70
  1696
 72
     0
 73
     0
 74
     0
  7

 75
     0
147
0.0179189148
148
-1300.4909072572
149
0.0
100
AcDbLayout
  1
Model
 70
     1
 71
     0
 10
0.0
 20
0.0
 11
420.0
 21
297.0
 12
0.0
 22
0.0
 32
0.0
 14
-3142.069817536
 24
8892.5583373192
 34
0.0
 15
-3087.883362536
 25
8991.9754613192
 35
0.0
146
0.0
 13
0.0
 23
0.0
 33
0.0
 16
1.0
 26
0.0
 36
0.0
 17
0.0
 27
1.0
 37
0.0
 76
     0
330
1F
331
29
  0
MLINESTYLE
  5
18
102
{ACAD_REACTORS
330
17
102
}
330
17
100
AcDbMlineStyle
  2
Standard
 70
     0
  3

 62
   256
 51
90.0
 52
90.0
 71
     2
 49
0.5
 62
   256
  6
BYLAYER
 49
-0.5
 62
   256
  6
BYLAYER
  0
ACDBPLACEHOLDER
  5
F
102
{ACAD_REACTORS
330
E
102
}
330
E
  0
SCALE
  5
48
102
{ACAD_REACTORS
330
47
102
}
330
47
100
AcDbScale
 70
     0
300
1:1
140
1.0
141
1.0
290
     1
  0
SCALE
  5
49
102
{ACAD_REACTORS
330
47
102
}
330
47
100
AcDbScale
 70
     0
300
1:2
140
1.0
141
2.0
290
     0
  0
SCALE
  5
4A
102
{ACAD_REACTORS
330
47
102
}
330
47
100
AcDbScale
 70
     0
300
1:4
140
1.0
141
4.0
290
     0
  0
SCALE
  5
4B
102
{ACAD_REACTORS
330
47
102
}
330
47
100
AcDbScale
 70
     0
300
1:5
140
1.0
141
5.0
290
     0
  0
SCALE
  5
4C
102
{ACAD_REACTORS
330
47
102
}
330
47
100
AcDbScale
 70
     0
300
1:8
140
1.0
141
8.0
290
     0
  0
SCALE
  5
4D
102
{ACAD_REACTORS
330
47
102
}
330
47
100
AcDbScale
 70
     0
300
1:10
140
1.0
141
10.0
290
     0
  0
SCALE
  5
4E
102
{ACAD_REACTORS
330
47
102
}
330
47
100
AcDbScale
 70
     0
300
1:16
140
1.0
141
16.0
290
     0
  0
SCALE
  5
4F
102
{ACAD_REACTORS
330
47
102
}
330
47
100
AcDbScale
 70
     0
300
1:20
140
1.0
141
20.0
290
     0
  0
SCALE
  5
50
102
{ACAD_REACTORS
330
47
102
}
330
47
100
AcDbScale
 70
     0
300
1:30
140
1.0
141
30.0
290
     0
  0
SCALE
  5
51
102
{ACAD_REACTORS
330
47
102
}
330
47
100
AcDbScale
 70
     0
300
1:40
140
1.0
141
40.0
290
     0
  0
SCALE
  5
52
102
{ACAD_REACTORS
330
47
102
}
330
47
100
AcDbScale
 70
     0
300
1:50
140
1.0
141
50.0
290
     0
  0
SCALE
  5
53
102
{ACAD_REACTORS
330
47
102
}
330
47
100
AcDbScale
 70
     0
300
1:100
140
1.0
141
100.0
290
     0
  0
SCALE
  5
54
102
{ACAD_REACTORS
330
47
102
}
330
47
100
AcDbScale
 70
     0
300
2:1
140
2.0
141
1.0
290
     0
  0
SCALE
  5
55
102
{ACAD_REACTORS
330
47
102
}
330
47
100
AcDbScale
 70
     0
300
4:1
140
4.0
141
1.0
290
     0
  0
SCALE
  5
56
102
{ACAD_REACTORS
330
47
102
}
330
47
100
AcDbScale
 70
     0
300
8:1
140
8.0
141
1.0
290
     0
  0
SCALE
  5
57
102
{ACAD_REACTORS
330
47
102
}
330
47
100
AcDbScale
 70
     0
300
10:1
140
10.0
141
1.0
290
     0
  0
SCALE
  5
58
102
{ACAD_REACTORS
330
47
102
}
330
47
100
AcDbScale
 70
     0
300
100:1
140
100.0
141
1.0
290
     0
  0
SCALE
  5
59
102
{ACAD_REACTORS
330
47
102
}
330
47
100
AcDbScale
 70
     0
300
1/128" = 1'-0"
140
0.0078125
141
12.0
290
     0
  0
SCALE
  5
5A
102
{ACAD_REACTORS
330
47
102
}
330
47
100
AcDbScale
 70
     0
300
1/64" = 1'-0"
140
0.015625
141
12.0
290
     0
  0
SCALE
  5
5B
102
{ACAD_REACTORS
330
47
102
}
330
47
100
AcDbScale
 70
     0
300
1/32" = 1'-0"
140
0.03125
141
12.0
290
     0
  0
SCALE
  5
5C
102
{ACAD_REACTORS
330
47
102
}
330
47
100
AcDbScale
 70
     0
300
1/16" = 1'-0"
140
0.0625
141
12.0
290
     0
  0
SCALE
  5
5D
102
{ACAD_REACTORS
330
47
102
}
330
47
100
AcDbScale
 70
     0
300
3/32" = 1'-0"
140
0.09375
141
12.0
290
     0
  0
SCALE
  5
5E
102
{ACAD_REACTORS
330
47
102
}
330
47
100
AcDbScale
 70
     0
300
1/8" = 1'-0"
140
0.125
141
12.0
290
     0
  0
SCALE
  5
5F
102
{ACAD_REACTORS
330
47
102
}
330
47
100
AcDbScale
 70
     0
300
3/16" = 1'-0"
140
0.1875
141
12.0
290
     0
  0
SCALE
  5
60
102
{ACAD_REACTORS
330
47
102
}
330
47
100
AcDbScale
 70
     0
300
1/4" = 1'-0"
140
0.25
141
12.0
290
     0
  0
SCALE
  5
61
102
{ACAD_REACTORS
330
47
102
}
330
47
100
AcDbScale
 70
     0
300
3/8" = 1'-0"
140
0.375
141
12.0
290
     0
  0
SCALE
  5
62
102
{ACAD_REACTORS
330
47
102
}
330
47
100
AcDbScale
 70
     0
300
1/2" = 1'-0"
140
0.5
141
12.0
290
     0
  0
SCALE
  5
63
102
{ACAD_REACTORS
330
47
102
}
330
47
100
AcDbScale
 70
     0
300
3/4" = 1'-0"
140
0.75
141
12.0
290
     0
  0
SCALE
  5
64
102
{ACAD_REACTORS
330
47
102
}
330
47
100
AcDbScale
 70
     0
300
1" = 1'-0"
140
1.0
141
12.0
290
     0
  0
SCALE
  5
65
102
{ACAD_REACTORS
330
47
102
}
330
47
100
AcDbScale
 70
     0
300
1-1/2" = 1'-0"
140
1.5
141
12.0
290
     0
  0
SCALE
  5
66
102
{ACAD_REACTORS
330
47
102
}
330
47
100
AcDbScale
 70
     0
300
3" = 1'-0"
140
3.0
141
12.0
290
     0
  0
SCALE
  5
67
102
{ACAD_REACTORS
330
47
102
}
330
47
100
AcDbScale
 70
     0
300
6" = 1'-0"
140
6.0
141
12.0
290
     0
  0
SCALE
  5
68
102
{ACAD_REACTORS
330
47
102
}
330
47
100
AcDbScale
 70
     0
300
1'-0" = 1'-0"
140
12.0
141
12.0
290
     0
  0
ENDSEC
  0
EOF
