  0
SECTION
  2
HEADER
  9
$ACADVER
  1
AC1015
  9
$ACADMAINTVER
 70
     6
  9
$DWGCODEPAGE
  3
ANSI_1251
  9
$INSBASE
 10
0.0
 20
0.0
 30
0.0
  9
$EXTMIN
 10
-4543.5424112161
 20
4010.3832135037
 30
0.0
  9
$EXTMAX
 10
-4458.7267312161
 20
4053.4392615037
 30
0.0
  9
$LIMMIN
 10
0.0
 20
0.0
  9
$LIMMAX
 10
420.0
 20
297.0
  9
$ORTHOMODE
 70
     0
  9
$REGENMODE
 70
     1
  9
$FILLMODE
 70
     1
  9
$QTEXTMODE
 70
     0
  9
$MIRRTEXT
 70
     1
  9
$LTSCALE
 40
1.0
  9
$ATTMODE
 70
     1
  9
$TEXTSIZE
 40
4.0
  9
$TRACEWID
 40
1.0
  9
$TEXTSTYLE
  7
Standard
  9
$CLAYER
  8
0
  9
$CELTYPE
  6
ByLayer
  9
$CECOLOR
 62
   256
  9
$CELTSCALE
 40
1.0
  9
$DISPSILH
 70
     0
  9
$DIMSCALE
 40
1.0
  9
$DIMASZ
 40
6.0
  9
$DIMEXO
 40
1.0
  9
$DIMDLI
 40
3.75
  9
$DIMRND
 40
0.0
  9
$DIMDLE
 40
0.0
  9
$DIMEXE
 40
1.0
  9
$DIMTP
 40
0.0
  9
$DIMTM
 40
0.0
  9
$DIMTXT
 40
4.0
  9
$DIMCEN
 40
2.5
  9
$DIMTSZ
 40
0.0
  9
$DIMTOL
 70
     0
  9
$DIMLIM
 70
     0
  9
$DIMTIH
 70
     1
  9
$DIMTOH
 70
     1
  9
$DIMSE1
 70
     0
  9
$DIMSE2
 70
     0
  9
$DIMTAD
 70
     1
  9
$DIMZIN
 70
     0
  9
$DIMBLK
  1

  9
$DIMASO
 70
     1
  9
$DIMSHO
 70
     1
  9
$DIMPOST
  1

  9
$DIMAPOST
  1

  9
$DIMALT
 70
     0
  9
$DIMALTD
 70
     3
  9
$DIMALTF
 40
0.0393700787
  9
$DIMLFAC
 40
1.0
  9
$DIMTOFL
 70
     1
  9
$DIMTVP
 40
0.0
  9
$DIMTIX
 70
     0
  9
$DIMSOXD
 70
     0
  9
$DIMSAH
 70
     0
  9
$DIMBLK1
  1

  9
$DIMBLK2
  1

  9
$DIMSTYLE
  2
ISO-25
  9
$DIMCLRD
 70
     0
  9
$DIMCLRE
 70
     0
  9
$DIMCLRT
 70
     0
  9
$DIMTFAC
 40
1.0
  9
$DIMGAP
 40
3.0
  9
$DIMJUST
 70
     0
  9
$DIMSD1
 70
     0
  9
$DIMSD2
 70
     0
  9
$DIMTOLJ
 70
     0
  9
$DIMTZIN
 70
     0
  9
$DIMALTZ
 70
     0
  9
$DIMALTTZ
 70
     0
  9
$DIMUPT
 70
     0
  9
$DIMDEC
 70
     2
  9
$DIMTDEC
 70
     4
  9
$DIMALTU
 70
     2
  9
$DIMALTTD
 70
     3
  9
$DIMTXSTY
  7
Standard
  9
$DIMAUNIT
 70
     0
  9
$DIMADEC
 70
     2
  9
$DIMALTRND
 40
0.0
  9
$DIMAZIN
 70
     0
  9
$DIMDSEP
 70
    44
  9
$DIMATFIT
 70
     3
  9
$DIMFRAC
 70
     0
  9
$DIMLDRBLK
  1

  9
$DIMLUNIT
 70
     2
  9
$DIMLWD
 70
    -2
  9
$DIMLWE
 70
    -2
  9
$DIMTMOVE
 70
     0
  9
$LUNITS
 70
     2
  9
$LUPREC
 70
     2
  9
$SKETCHINC
 40
1.0
  9
$FILLETRAD
 40
10.0
  9
$AUNITS
 70
     1
  9
$AUPREC
 70
     2
  9
$MENU
  1
.
  9
$ELEVATION
 40
0.0
  9
$PELEVATION
 40
0.0
  9
$THICKNESS
 40
0.0
  9
$LIMCHECK
 70
     0
  9
$CHAMFERA
 40
0.0
  9
$CHAMFERB
 40
0.0
  9
$CHAMFERC
 40
0.0
  9
$CHAMFERD
 40
0.0
  9
$SKPOLY
 70
     0
  9
$TDCREATE
 40
2460368.662581447
  9
$TDUCREATE
 40
2460368.579248114
  9
$TDUPDATE
 40
2460368.662609745
  9
$TDUUPDATE
 40
2460368.579276412
  9
$TDINDWG
 40
0.0000000116
  9
$TDUSRTIMER
 40
0.0000000116
  9
$USRTIMER
 70
     1
  9
$ANGBASE
 50
0.0
  9
$ANGDIR
 70
     0
  9
$PDMODE
 70
     0
  9
$PDSIZE
 40
-1.0
  9
$PLINEWID
 40
0.0
  9
$SPLFRAME
 70
     0
  9
$SPLINETYPE
 70
     6
  9
$SPLINESEGS
 70
     8
  9
$HANDSEED
  5
22C
  9
$SURFTAB1
 70
     6
  9
$SURFTAB2
 70
     6
  9
$SURFTYPE
 70
     6
  9
$SURFU
 70
     6
  9
$SURFV
 70
     6
  9
$UCSBASE
  2

  9
$UCSNAME
  2

  9
$UCSORG
 10
0.0
 20
0.0
 30
0.0
  9
$UCSXDIR
 10
1.0
 20
0.0
 30
0.0
  9
$UCSYDIR
 10
0.0
 20
1.0
 30
0.0
  9
$UCSORTHOREF
  2

  9
$UCSORTHOVIEW
 70
     0
  9
$UCSORGTOP
 10
0.0
 20
0.0
 30
0.0
  9
$UCSORGBOTTOM
 10
0.0
 20
0.0
 30
0.0
  9
$UCSORGLEFT
 10
0.0
 20
0.0
 30
0.0
  9
$UCSORGRIGHT
 10
0.0
 20
0.0
 30
0.0
  9
$UCSORGFRONT
 10
0.0
 20
0.0
 30
0.0
  9
$UCSORGBACK
 10
0.0
 20
0.0
 30
0.0
  9
$PUCSBASE
  2

  9
$PUCSNAME
  2

  9
$PUCSORG
 10
0.0
 20
0.0
 30
0.0
  9
$PUCSXDIR
 10
1.0
 20
0.0
 30
0.0
  9
$PUCSYDIR
 10
0.0
 20
1.0
 30
0.0
  9
$PUCSORTHOREF
  2

  9
$PUCSORTHOVIEW
 70
     0
  9
$PUCSORGTOP
 10
0.0
 20
0.0
 30
0.0
  9
$PUCSORGBOTTOM
 10
0.0
 20
0.0
 30
0.0
  9
$PUCSORGLEFT
 10
0.0
 20
0.0
 30
0.0
  9
$PUCSORGRIGHT
 10
0.0
 20
0.0
 30
0.0
  9
$PUCSORGFRONT
 10
0.0
 20
0.0
 30
0.0
  9
$PUCSORGBACK
 10
0.0
 20
0.0
 30
0.0
  9
$USERI1
 70
     0
  9
$USERI2
 70
     0
  9
$USERI3
 70
     0
  9
$USERI4
 70
     0
  9
$USERI5
 70
     0
  9
$USERR1
 40
0.0
  9
$USERR2
 40
0.0
  9
$USERR3
 40
0.0
  9
$USERR4
 40
0.0
  9
$USERR5
 40
0.0
  9
$WORLDVIEW
 70
     1
  9
$SHADEDGE
 70
     3
  9
$SHADEDIF
 70
    70
  9
$TILEMODE
 70
     1
  9
$MAXACTVP
 70
    64
  9
$PINSBASE
 10
0.0
 20
0.0
 30
0.0
  9
$PLIMCHECK
 70
     0
  9
$PEXTMIN
 10
1.0000000000E+20
 20
1.0000000000E+20
 30
1.0000000000E+20
  9
$PEXTMAX
 10
-1.0000000000E+20
 20
-1.0000000000E+20
 30
-1.0000000000E+20
  9
$PLIMMIN
 10
0.0
 20
0.0
  9
$PLIMMAX
 10
420.0
 20
297.0
  9
$UNITMODE
 70
     0
  9
$VISRETAIN
 70
     1
  9
$PLINEGEN
 70
     0
  9
$PSLTSCALE
 70
     1
  9
$TREEDEPTH
 70
  3020
  9
$CMLSTYLE
  2
Standard
  9
$CMLJUST
 70
     0
  9
$CMLSCALE
 40
20.0
  9
$PROXYGRAPHICS
 70
     1
  9
$MEASUREMENT
 70
     1
  9
$CELWEIGHT
370
    -1
  9
$ENDCAPS
280
     0
  9
$JOINSTYLE
280
     0
  9
$LWDISPLAY
290
     1
  9
$INSUNITS
 70
     4
  9
$HYPERLINKBASE
  1

  9
$STYLESHEET
  1

  9
$XEDIT
290
     1
  9
$CEPSNTYPE
380
     0
  9
$PSTYLEMODE
290
     1
  9
$FINGERPRINTGUID
  2
{75eb2613-e461-4d4e-84f8-b6c43c72edb4}
  9
$VERSIONGUID
  2
{FAEB1C32-E019-11D5-929B-00C0DF256EC4}
  9
$EXTNAMES
290
     1
  9
$PSVPSCALE
 40
0.0
  9
$OLESTARTUP
290
     0
  0
ENDSEC
  0
SECTION
  2
CLASSES
  0
CLASS
  1
ACDBDICTIONARYWDFLT
  2
AcDbDictionaryWithDefault
  3
ObjectDBX Classes
 90
        0
280
     0
281
     0
  0
CLASS
  1
VISUALSTYLE
  2
AcDbVisualStyle
  3
ObjectDBX Classes
 90
     4095
280
     0
281
     0
  0
CLASS
  1
MATERIAL
  2
AcDbMaterial
  3
ObjectDBX Classes
 90
     1153
280
     0
281
     0
  0
CLASS
  1
SCALE
  2
AcDbScale
  3
ObjectDBX Classes
 90
     1153
280
     0
281
     0
  0
CLASS
  1
TABLESTYLE
  2
AcDbTableStyle
  3
ObjectDBX Classes
 90
     4095
280
     0
281
     0
  0
CLASS
  1
MLEADERSTYLE
  2
AcDbMLeaderStyle
  3
ACDB_MLEADERSTYLE_CLASS
 90
     4095
280
     0
281
     0
  0
CLASS
  1
SUN
  2
AcDbSun
  3
SCENEOE
 90
     1153
280
     0
281
     0
  0
CLASS
  1
ACDBPLACEHOLDER
  2
AcDbPlaceHolder
  3
ObjectDBX Classes
 90
        0
280
     0
281
     0
  0
CLASS
  1
LAYOUT
  2
AcDbLayout
  3
ObjectDBX Classes
 90
        0
280
     0
281
     0
  0
ENDSEC
  0
SECTION
  2
TABLES
  0
TABLE
  2
VPORT
  5
8
330
0
100
AcDbSymbolTable
 70
     1
  0
VPORT
  5
29
330
8
100
AcDbSymbolTableRecord
100
AcDbViewportTableRecord
  2
*Active
 70
     0
 10
0.0
 20
0.0
 11
1.0
 21
1.0
 12
-4501.1345712161
 22
4031.9112375037
 13
0.0
 23
0.0
 14
10.0
 24
10.0
 15
10.0
 25
10.0
 16
0.0
 26
0.0
 36
1.0
 17
0.0
 27
0.0
 37
0.0
 40
43.91716896
 41
1.9698900373
 42
50.0
 43
0.0
 44
0.0
 50
0.0
 51
0.0
 71
     0
 72
   100
 73
     1
 74
     3
 75
     0
 76
     0
 77
     0
 78
     0
281
     0
 65
     1
110
0.0
120
0.0
130
0.0
111
1.0
121
0.0
131
0.0
112
0.0
122
1.0
132
0.0
 79
     0
146
0.0
  0
ENDTAB
  0
TABLE
  2
LTYPE
  5
5
330
0
100
AcDbSymbolTable
 70
     6
  0
LTYPE
  5
14
330
5
100
AcDbSymbolTableRecord
100
AcDbLinetypeTableRecord
  2
ByBlock
 70
     0
  3

 72
    65
 73
     0
 40
0.0
  0
LTYPE
  5
15
330
5
100
AcDbSymbolTableRecord
100
AcDbLinetypeTableRecord
  2
ByLayer
 70
     0
  3

 72
    65
 73
     0
 40
0.0
  0
LTYPE
  5
16
330
5
100
AcDbSymbolTableRecord
100
AcDbLinetypeTableRecord
  2
Continuous
 70
     0
  3
Solid line
 72
    65
 73
     0
 40
0.0
  0
LTYPE
  5
6E
330
5
100
AcDbSymbolTableRecord
100
AcDbLinetypeTableRecord
  2
HIDDEN
 70
     0
  3
Hidden __ __ __ __ __ __ __ __ __ __ __ __ __ __
 72
    65
 73
     2
 40
1.905
 49
1.27
 74
     0
 49
-0.635
 74
     0
  0
LTYPE
  5
6F
330
5
100
AcDbSymbolTableRecord
100
AcDbLinetypeTableRecord
  2
PHANTOM
 70
     0
  3
Phantom ______  __  __  ______  __  __  ______
 72
    65
 73
     6
 40
12.7
 49
6.35
 74
     0
 49
-1.27
 74
     0
 49
1.27
 74
     0
 49
-1.27
 74
     0
 49
1.27
 74
     0
 49
-1.27
 74
     0
  0
LTYPE
  5
70
330
5
100
AcDbSymbolTableRecord
100
AcDbLinetypeTableRecord
  2
CENTER
 70
     0
  3
Center ____ _ ____ _ ____ _ ____ _ ____ _ ____
 72
    65
 73
     4
 40
10.16
 49
6.35
 74
     0
 49
-1.27
 74
     0
 49
1.27
 74
     0
 49
-1.27
 74
     0
  0
LTYPE
  5
71
330
5
100
AcDbSymbolTableRecord
100
AcDbLinetypeTableRecord
  2
CENTERX2
 70
     0
  3
Center (2x) ________  __  ________  __  _____
 72
    65
 73
     4
 40
20.32
 49
12.7
 74
     0
 49
-2.54
 74
     0
 49
2.54
 74
     0
 49
-2.54
 74
     0
  0
LTYPE
  5
72
330
5
100
AcDbSymbolTableRecord
100
AcDbLinetypeTableRecord
  2
DOT2
 70
     0
  3
Dot (.5x) ........................................
 72
    65
 73
     2
 40
0.635
 49
0.0
 74
     0
 49
-0.635
 74
     0
  0
ENDTAB
  0
TABLE
  2
LAYER
  5
2
330
0
100
AcDbSymbolTable
 70
     1
  0
LAYER
  5
10
330
2
100
AcDbSymbolTableRecord
100
AcDbLayerTableRecord
  2
0
 70
     0
 62
     7
  6
Continuous
370
    -3
390
F
  0
ENDTAB
  0
TABLE
  2
STYLE
  5
3
330
0
100
AcDbSymbolTable
 70
     1
  0
STYLE
  5
11
330
3
100
AcDbSymbolTableRecord
100
AcDbTextStyleTableRecord
  2
Standard
 70
     0
 40
0.0
 41
1.0
 50
0.0
 71
     0
 42
4.0
  3
txt
  4

  0
ENDTAB
  0
TABLE
  2
VIEW
  5
6
330
0
100
AcDbSymbolTable
 70
     0
  0
ENDTAB
  0
TABLE
  2
UCS
  5
7
330
0
100
AcDbSymbolTable
 70
     0
  0
ENDTAB
  0
TABLE
  2
APPID
  5
9
330
0
100
AcDbSymbolTable
 70
     1
  0
APPID
  5
12
330
9
100
AcDbSymbolTableRecord
100
AcDbRegAppTableRecord
  2
ACAD
 70
     0
  0
ENDTAB
  0
TABLE
  2
DIMSTYLE
  5
A
330
0
100
AcDbSymbolTable
 70
     1
100
AcDbDimStyleTable
  0
DIMSTYLE
105
27
330
A
100
AcDbSymbolTableRecord
100
AcDbDimStyleTableRecord
  2
ISO-25
 70
     0
 41
2.5
 42
0.625
 43
3.75
 44
1.25
 73
     0
 74
     0
 77
     1
 78
     8
140
2.5
141
2.5
143
0.0393700787
147
0.625
171
     3
172
     1
178
     0
271
     2
272
     2
274
     3
278
    44
283
     0
284
     8
340
11
  0
ENDTAB
  0
TABLE
  2
BLOCK_RECORD
  5
1
330
0
100
AcDbSymbolTable
 70
     1
  0
BLOCK_RECORD
  5
1F
330
1
100
AcDbSymbolTableRecord
100
AcDbBlockTableRecord
  2
*Model_Space
340
22
  0
BLOCK_RECORD
  5
1B
330
1
100
AcDbSymbolTableRecord
100
AcDbBlockTableRecord
  2
*Paper_Space
340
1E
  0
BLOCK_RECORD
  5
23
330
1
100
AcDbSymbolTableRecord
100
AcDbBlockTableRecord
  2
*Paper_Space0
340
26
  0
ENDTAB
  0
ENDSEC
  0
SECTION
  2
BLOCKS
  0
BLOCK
  5
20
330
1F
100
AcDbEntity
  8
0
100
AcDbBlockBegin
  2
*Model_Space
 70
     0
 10
0.0
 20
0.0
 30
0.0
  3
*Model_Space
  1

  0
ENDBLK
  5
21
330
1F
100
AcDbEntity
  8
0
100
AcDbBlockEnd
  0
BLOCK
  5
1C
330
1B
100
AcDbEntity
 67
     1
  8
0
100
AcDbBlockBegin
  2
*Paper_Space
 70
     0
 10
0.0
 20
0.0
 30
0.0
  3
*Paper_Space
  1

  0
ENDBLK
  5
1D
330
1B
100
AcDbEntity
 67
     1
  8
0
100
AcDbBlockEnd
  0
BLOCK
  5
24
330
23
100
AcDbEntity
  8
0
100
AcDbBlockBegin
  2
*Paper_Space0
 70
     0
 10
0.0
 20
0.0
 30
0.0
  3
*Paper_Space0
  1

  0
ENDBLK
  5
25
330
23
100
AcDbEntity
  8
0
100
AcDbBlockEnd
  0
ENDSEC
  0
SECTION
  2
ENTITIES
  0
SPLINE
  5
75
330
1F
100
AcDbEntity
  8
0
  6
Continuous
 62
     7
370
    25
100
AcDbSpline
210
0.0
220
0.0
230
1.0
 70
     8
 71
     3
 72
    15
 73
    11
 74
     0
 42
0.000000001
 43
0.00000001
 40
0.0
 40
0.0
 40
0.0
 40
0.0
 40
0.1364411897142826
 40
0.2559957227680015
 40
0.3685080101434384
 40
0.4757423758333574
 40
0.5882546632087361
 40
0.7093427114892352
 40
0.8457839012034865
 40
1.0
 40
1.0
 40
1.0
 40
1.0
 10
-4529.508548605398
 20
4031.881967446277
 30
0.0
 10
-4529.507828156362
 20
4031.902592619232
 30
0.0
 10
-4529.506476424735
 20
4031.94129028867
 30
0.0
 10
-4529.49194346311
 20
4031.995345508038
 30
0.0
 10
-4529.469207030652
 20
4032.041800415729
 30
0.0
 10
-4529.434760140771
 20
4032.078898742433
 30
0.0
 10
-4529.3923699965
 20
4032.10887399489
 30
0.0
 10
-4529.339384157669
 20
4032.127637681195
 30
0.0
 10
-4529.2785198771
 20
4032.14117541012
 30
0.0
 10
-4529.2345700693
 20
4032.141781175944
 30
0.0
 10
-4529.211251308101
 20
4032.142102581413
 30
0.0
  0
SPLINE
  5
76
330
1F
100
AcDbEntity
  8
0
  6
Continuous
 62
     7
370
    25
100
AcDbSpline
210
0.0
220
0.0
230
1.0
 70
     8
 71
     3
 72
    15
 73
    11
 74
     0
 42
0.000000001
 43
0.00000001
 40
0.0
 40
0.0
 40
0.0
 40
0.0
 40
0.1678628092163385
 40
0.3148466165912324
 40
0.4441869603121141
 40
0.5592403382441214
 40
0.6652318690748292
 40
0.7706563435097057
 40
0.8787940473875373
 40
1.0
 40
1.0
 40
1.0
 40
1.0
 10
-4529.211251308101
 20
4032.142102581413
 30
0.0
 10
-4529.182189532946
 20
4032.141087614798
 30
0.0
 10
-4529.127680725291
 20
4032.139183924481
 30
0.0
 10
-4529.051208815256
 20
4032.128555339661
 30
0.0
 10
-4528.986309341281
 20
4032.107731911316
 30
0.0
 10
-4528.93257956532
 20
4032.07869144408
 30
0.0
 10
-4528.889850193575
 20
4032.040550573848
 30
0.0
 10
-4528.860732856409
 20
4031.992759836501
 30
0.0
 10
-4528.842296442836
 20
4031.937078082001
 30
0.0
 10
-4528.840551743547
 20
4031.897223583717
 30
0.0
 10
-4528.839629686478
 20
4031.87616085844
 30
0.0
  0
SPLINE
  5
78
330
1F
100
AcDbEntity
  8
0
  6
Continuous
 62
     7
370
    25
100
AcDbSpline
210
0.0
220
0.0
230
1.0
 70
     8
 71
     3
 72
    15
 73
    11
 74
     0
 42
0.000000001
 43
0.00000001
 40
0.0
 40
0.0
 40
0.0
 40
0.0
 40
0.1212059526124653
 40
0.2293436564902991
 40
0.3347681309251779
 40
0.4407596617558877
 40
0.5558130396878768
 40
0.6851533834087611
 40
0.8321371907836581
 40
1.0
 40
1.0
 40
1.0
 40
1.0
 10
-4528.839629686478
 20
4026.908044304386
 30
0.0
 10
-4528.840551743547
 20
4026.88698157911
 30
0.0
 10
-4528.842296442836
 20
4026.847127080824
 30
0.0
 10
-4528.860732856409
 20
4026.791445326325
 30
0.0
 10
-4528.889850193575
 20
4026.743654588978
 30
0.0
 10
-4528.93257956532
 20
4026.705513718746
 30
0.0
 10
-4528.986309341281
 20
4026.676473251511
 30
0.0
 10
-4529.051208815256
 20
4026.655649823165
 30
0.0
 10
-4529.127680725291
 20
4026.645021238346
 30
0.0
 10
-4529.182189532946
 20
4026.643117548028
 30
0.0
 10
-4529.211251308101
 20
4026.642102581412
 30
0.0
  0
SPLINE
  5
79
330
1F
100
AcDbEntity
  8
0
  6
Continuous
 62
     7
370
    25
100
AcDbSpline
210
0.0
220
0.0
230
1.0
 70
     8
 71
     3
 72
    15
 73
    11
 74
     0
 42
0.000000001
 43
0.00000001
 40
0.0
 40
0.0
 40
0.0
 40
0.0
 40
0.1528612850162868
 40
0.2874697277135351
 40
0.4083171843914889
 40
0.5197330343307446
 40
0.6278222855466505
 40
0.7415060099345848
 40
0.8623534666125059
 40
1.0
 40
1.0
 40
1.0
 40
1.0
 10
-4529.211251308101
 20
4026.642102581412
 30
0.0
 10
-4529.234514229294
 20
4026.643116458958
 30
0.0
 10
-4529.27826229553
 20
4026.645023149077
 30
0.0
 10
-4529.339850204716
 20
4026.655787037467
 30
0.0
 10
-4529.392047429778
 20
4026.676895545605
 30
0.0
 10
-4529.435207620698
 20
4026.706365197017
 30
0.0
 10
-4529.469180431279
 20
4026.74490318834
 30
0.0
 10
-4529.491960698298
 20
4026.792360752952
 30
0.0
 10
-4529.506461403079
 20
4026.847586983082
 30
0.0
 10
-4529.507823367391
 20
4026.88703726218
 30
0.0
 10
-4529.508548605398
 20
4026.908044304386
 30
0.0
  0
SPLINE
  5
7C
330
1F
100
AcDbEntity
  8
0
  6
Continuous
 62
     7
370
    25
100
AcDbSpline
210
0.0
220
0.0
230
1.0
 70
     8
 71
     3
 72
    23
 73
    19
 74
     0
 42
0.000000001
 43
0.00000001
 40
0.0
 40
0.0
 40
0.0
 40
0.0
 40
0.0677237149030667
 40
0.1335720745633692
 40
0.1975528367078029
 40
0.2606519708909009
 40
0.3236025239446294
 40
0.3865132188953009
 40
0.450192708502997
 40
0.514686293308382
 40
0.5788888265238478
 40
0.6409404219946213
 40
0.7009284845792398
 40
0.7601591271721392
 40
0.8185796184460464
 40
0.8777735481189325
 40
0.9380535928005171
 40
1.0
 40
1.0
 40
1.0
 40
1.0
 10
-4530.700060429722
 20
4028.946156635467
 30
0.0
 10
-4530.745394510061
 20
4028.947358362397
 30
0.0
 10
-4530.834807312767
 20
4028.94972853892
 30
0.0
 10
-4530.966311757296
 20
4028.965899391472
 30
0.0
 10
-4531.092476285355
 20
4028.994223640029
 30
0.0
 10
-4531.213990508413
 20
4029.032388534502
 30
0.0
 10
-4531.330496957215
 20
4029.0822934563
 30
0.0
 10
-4531.441178821616
 20
4029.144689270644
 30
0.0
 10
-4531.547198912594
 20
4029.216559597301
 30
0.0
 10
-4531.64634955544
 20
4029.298958228586
 30
0.0
 10
-4531.738011899171
 20
4029.388188067318
 30
0.0
 10
-4531.816507986813
 20
4029.485276125839
 30
0.0
 10
-4531.885490654116
 20
4029.585395818376
 30
0.0
 10
-4531.939344738327
 20
4029.691688923819
 30
0.0
 10
-4531.983674410353
 20
4029.801718387747
 30
0.0
 10
-4532.013021763452
 20
4029.917369580506
 30
0.0
 10
-4532.032715406384
 20
4030.037506770908
 30
0.0
 10
-4532.034613597476
 20
4030.119393333553
 30
0.0
 10
-4532.035575632424
 20
4030.160894811142
 30
0.0
  0
SPLINE
  5
7E
330
1F
100
AcDbEntity
  8
0
  6
Continuous
 62
     7
370
    25
100
AcDbSpline
210
0.0
220
0.0
230
1.0
 70
     8
 71
     3
 72
    15
 73
    11
 74
     0
 42
0.000000001
 43
0.00000001
 40
0.0
 40
0.0
 40
0.0
 40
0.0
 40
0.1354286630936352
 40
0.259026915105538
 40
0.3707042516397965
 40
0.4790471821147449
 40
0.5907245186490434
 40
0.7118555973607575
 40
0.8467799583350826
 40
1.0
 40
1.0
 40
1.0
 40
1.0
 10
-4532.035575632424
 20
4031.877322176008
 30
0.0
 10
-4532.034753992622
 20
4031.897917293775
 30
0.0
 10
-4532.033182487608
 20
4031.937308436681
 30
0.0
 10
-4532.019518395098
 20
4031.992449691739
 30
0.0
 10
-4531.995821589403
 20
4032.039492581805
 30
0.0
 10
-4531.962276829804
 20
4032.07785952625
 30
0.0
 10
-4531.919061977589
 20
4032.107303830428
 30
0.0
 10
-4531.866881096499
 20
4032.128419917502
 30
0.0
 10
-4531.805288152943
 20
4032.139181471382
 30
0.0
 10
-4531.76154085029
 20
4032.141088515585
 30
0.0
 10
-4531.738278335127
 20
4032.142102581413
 30
0.0
  0
SPLINE
  5
7F
330
1F
100
AcDbEntity
  8
0
  6
Continuous
 62
     7
370
    25
100
AcDbSpline
210
0.0
220
0.0
230
1.0
 70
     8
 71
     3
 72
    15
 73
    11
 74
     0
 42
0.000000001
 43
0.00000001
 40
0.0
 40
0.0
 40
0.0
 40
0.0
 40
0.1691382693020636
 40
0.3176902073342216
 40
0.4474110356377818
 40
0.563410610629366
 40
0.6687664326273801
 40
0.7731538901271362
 40
0.880040848835351
 40
1.0
 40
1.0
 40
1.0
 40
1.0
 10
-4531.738278335127
 20
4032.142102581413
 30
0.0
 10
-4531.709169129598
 20
4032.141790686414
 30
0.0
 10
-4531.654493688152
 20
4032.141204858102
 30
0.0
 10
-4531.578629693226
 20
4032.127718710796
 30
0.0
 10
-4531.513054881443
 20
4032.109336428561
 30
0.0
 10
-4531.460040201252
 20
4032.079664953334
 30
0.0
 10
-4531.416901907233
 20
4032.043043177488
 30
0.0
 10
-4531.387788137532
 20
4031.996279373244
 30
0.0
 10
-4531.369309683849
 20
4031.941758846741
 30
0.0
 10
-4531.367574369915
 20
4031.902649155734
 30
0.0
 10
-4531.366656713505
 20
4031.881967446278
 30
0.0
  0
SPLINE
  5
81
330
1F
100
AcDbEntity
  8
0
  6
Continuous
 62
     7
370
    25
100
AcDbSpline
210
0.0
220
0.0
230
1.0
 70
     8
 71
     3
 72
    15
 73
    11
 74
     0
 42
0.000000001
 43
0.00000001
 40
0.0
 40
0.0
 40
0.0
 40
0.0
 40
0.1339778460753626
 40
0.2585396759597965
 40
0.3819921237903419
 40
0.5082471279232935
 40
0.6346867604816847
 40
0.7564856546675702
 40
0.8759241120140212
 40
1.0
 40
1.0
 40
1.0
 40
1.0
 10
-4531.366656713505
 20
4030.207347513845
 30
0.0
 10
-4531.364430301548
 20
4030.159834390893
 30
0.0
 10
-4531.36013395075
 20
4030.068147386125
 30
0.0
 10
-4531.320250373544
 20
4029.937404028501
 30
0.0
 10
-4531.253797875039
 20
4029.821621142687
 30
0.0
 10
-4531.163774382812
 20
4029.722426756267
 30
0.0
 10
-4531.058028176975
 20
4029.641034852971
 30
0.0
 10
-4530.940188148814
 20
4029.584430516759
 30
0.0
 10
-4530.815376504998
 20
4029.546824303064
 30
0.0
 10
-4530.728982789844
 20
4029.542801126542
 30
0.0
 10
-4530.684963301343
 20
4029.540751230061
 30
0.0
  0
SPLINE
  5
84
330
1F
100
AcDbEntity
  8
0
  6
Continuous
 62
     7
370
    25
100
AcDbSpline
210
0.0
220
0.0
230
1.0
 70
     8
 71
     3
 72
    15
 73
    11
 74
     0
 42
0.000000001
 43
0.00000001
 40
0.0
 40
0.0
 40
0.0
 40
0.0
 40
0.1601327662513415
 40
0.2987107685923477
 40
0.4231399381637296
 40
0.5376624358834163
 40
0.6446603163245439
 40
0.7529593943232786
 40
0.8699025011612379
 40
1.0
 40
1.0
 40
1.0
 40
1.0
 10
-4524.69558407837
 20
4027.236697176007
 30
0.0
 10
-4524.666872076035
 20
4027.235960243554
 30
0.0
 10
-4524.613312867096
 20
4027.234585573869
 30
0.0
 10
-4524.538421831044
 20
4027.220638330135
 30
0.0
 10
-4524.474529404682
 20
4027.197564638137
 30
0.0
 10
-4524.420891521356
 20
4027.165371926137
 30
0.0
 10
-4524.379716407665
 20
4027.121873983697
 30
0.0
 10
-4524.351669033387
 20
4027.068808719871
 30
0.0
 10
-4524.33366806589
 20
4027.007127727719
 30
0.0
 10
-4524.331874759986
 20
4026.962763266425
 30
0.0
 10
-4524.330930362154
 20
4026.93939987871
 30
0.0
  0
SPLINE
  5
85
330
1F
100
AcDbEntity
  8
0
  6
Continuous
 62
     7
370
    25
100
AcDbSpline
210
0.0
220
0.0
230
1.0
 70
     8
 71
     3
 72
    15
 73
    11
 74
     0
 42
0.000000001
 43
0.00000001
 40
0.0
 40
0.0
 40
0.0
 40
0.0
 40
0.1300974988387979
 40
0.2470406056767524
 40
0.3553396836754827
 40
0.4623375641166058
 40
0.5768600618362878
 40
0.7012892314076646
 40
0.8398672337486652
 40
1.0
 40
1.0
 40
1.0
 40
1.0
 10
-4524.330930362154
 20
4026.93939987871
 30
0.0
 10
-4524.331874759986
 20
4026.916036490995
 30
0.0
 10
-4524.33366806589
 20
4026.871672029702
 30
0.0
 10
-4524.351669033387
 20
4026.80999103755
 30
0.0
 10
-4524.379716407665
 20
4026.756925773724
 30
0.0
 10
-4524.420891521356
 20
4026.713427831284
 30
0.0
 10
-4524.474529404682
 20
4026.681235119284
 30
0.0
 10
-4524.538421831044
 20
4026.658161427286
 30
0.0
 10
-4524.613312867096
 20
4026.644214183551
 30
0.0
 10
-4524.666872076035
 20
4026.642839513866
 30
0.0
 10
-4524.69558407837
 20
4026.642102581412
 30
0.0
  0
SPLINE
  5
87
330
1F
100
AcDbEntity
  8
0
  6
Continuous
 62
     7
370
    25
100
AcDbSpline
210
0.0
220
0.0
230
1.0
 70
     8
 71
     3
 72
    15
 73
    11
 74
     0
 42
0.000000001
 43
0.00000001
 40
0.0
 40
0.0
 40
0.0
 40
0.0
 40
0.1528612850162831
 40
0.2874697277136235
 40
0.4083171843914844
 40
0.5197330343307374
 40
0.6278222855466407
 40
0.7415060099346156
 40
0.8623534666125092
 40
1.0
 40
1.0
 40
1.0
 40
1.0
 10
-4526.862602659452
 20
4026.642102581412
 30
0.0
 10
-4526.885865580646
 20
4026.643116458958
 30
0.0
 10
-4526.929613646881
 20
4026.645023149077
 30
0.0
 10
-4526.991201556067
 20
4026.655787037467
 30
0.0
 10
-4527.04339878113
 20
4026.676895545605
 30
0.0
 10
-4527.08655897205
 20
4026.706365197017
 30
0.0
 10
-4527.12053178263
 20
4026.74490318834
 30
0.0
 10
-4527.14331204965
 20
4026.792360752952
 30
0.0
 10
-4527.15781275443
 20
4026.847586983082
 30
0.0
 10
-4527.159174718742
 20
4026.88703726218
 30
0.0
 10
-4527.15989995675
 20
4026.908044304386
 30
0.0
  0
SPLINE
  5
89
330
1F
100
AcDbEntity
  8
0
  6
Continuous
 62
     7
370
    25
100
AcDbSpline
210
0.0
220
0.0
230
1.0
 70
     8
 71
     3
 72
    15
 73
    11
 74
     0
 42
0.000000001
 43
0.00000001
 40
0.0
 40
0.0
 40
0.0
 40
0.0
 40
0.1376465333874869
 40
0.2584939900653772
 40
0.3721777144533489
 40
0.4802669656692492
 40
0.5916828156085269
 40
0.7125302722863844
 40
0.8471387149837212
 40
1.0
 40
1.0
 40
1.0
 40
1.0
 10
-4527.15989995675
 20
4031.87616085844
 30
0.0
 10
-4527.159174718742
 20
4031.897167900645
 30
0.0
 10
-4527.15781275443
 20
4031.936618179745
 30
0.0
 10
-4527.14331204965
 20
4031.991844409874
 30
0.0
 10
-4527.120531782631
 20
4032.039301974487
 30
0.0
 10
-4527.08655897205
 20
4032.077839965808
 30
0.0
 10
-4527.04339878113
 20
4032.107309617221
 30
0.0
 10
-4526.991201556067
 20
4032.12841812536
 30
0.0
 10
-4526.929613646881
 20
4032.13918201375
 30
0.0
 10
-4526.885865580646
 20
4032.141088703868
 30
0.0
 10
-4526.862602659452
 20
4032.142102581413
 30
0.0
  0
SPLINE
  5
8B
330
1F
100
AcDbEntity
  8
0
  6
Continuous
 62
     7
370
    25
100
AcDbSpline
210
0.0
220
0.0
230
1.0
 70
     8
 71
     3
 72
    15
 73
    11
 74
     0
 42
0.000000001
 43
0.00000001
 40
0.0
 40
0.0
 40
0.0
 40
0.0
 40
0.1601327662513365
 40
0.2987107685923461
 40
0.4231399381637099
 40
0.537662435883393
 40
0.6446603163245171
 40
0.752959394323285
 40
0.8699025011612008
 40
1.0
 40
1.0
 40
1.0
 40
1.0
 10
-4524.69558407837
 20
4032.142102581413
 30
0.0
 10
-4524.666872076035
 20
4032.14136564896
 30
0.0
 10
-4524.613312867096
 20
4032.139990979274
 30
0.0
 10
-4524.538421831044
 20
4032.126043735539
 30
0.0
 10
-4524.474529404682
 20
4032.102970043542
 30
0.0
 10
-4524.420891521356
 20
4032.070777331542
 30
0.0
 10
-4524.379716407665
 20
4032.027279389102
 30
0.0
 10
-4524.351669033387
 20
4031.974214125276
 30
0.0
 10
-4524.33366806589
 20
4031.912533133124
 30
0.0
 10
-4524.331874759986
 20
4031.868168671831
 30
0.0
 10
-4524.330930362154
 20
4031.844805284115
 30
0.0
  0
SPLINE
  5
8C
330
1F
100
AcDbEntity
  8
0
  6
Continuous
 62
     7
370
    25
100
AcDbSpline
210
0.0
220
0.0
230
1.0
 70
     8
 71
     3
 72
    15
 73
    11
 74
     0
 42
0.000000001
 43
0.00000001
 40
0.0
 40
0.0
 40
0.0
 40
0.0
 40
0.1300974988387975
 40
0.2470406056767912
 40
0.3553396836754849
 40
0.4623375641166075
 40
0.5768600618362891
 40
0.7012892314076655
 40
0.8398672337486657
 40
0.9999999999999999
 40
0.9999999999999999
 40
0.9999999999999999
 40
0.9999999999999999
 10
-4524.330930362154
 20
4031.844805284115
 30
0.0
 10
-4524.331874759986
 20
4031.821441896401
 30
0.0
 10
-4524.33366806589
 20
4031.777077435107
 30
0.0
 10
-4524.351669033387
 20
4031.715396442955
 30
0.0
 10
-4524.379716407665
 20
4031.66233117913
 30
0.0
 10
-4524.420891521356
 20
4031.618833236689
 30
0.0
 10
-4524.474529404682
 20
4031.586640524689
 30
0.0
 10
-4524.538421831044
 20
4031.563566832692
 30
0.0
 10
-4524.613312867096
 20
4031.549619588957
 30
0.0
 10
-4524.666872076035
 20
4031.548244919271
 30
0.0
 10
-4524.69558407837
 20
4031.547507986818
 30
0.0
  0
SPLINE
  5
90
330
1F
100
AcDbEntity
  8
0
  6
Continuous
 62
     7
370
    25
100
AcDbSpline
210
0.0
220
0.0
230
1.0
 70
     8
 71
     3
 72
    15
 73
    11
 74
     0
 42
0.000000001
 43
0.00000001
 40
0.0
 40
0.0
 40
0.0
 40
0.0
 40
0.1601327662513301
 40
0.2987107685923266
 40
0.4231399381636997
 40
0.5376624358834484
 40
0.6446603163245117
 40
0.7529593943232388
 40
0.8699025011612127
 40
1.0
 40
1.0
 40
1.0
 40
1.0
 10
-4525.559604348641
 20
4029.912372851683
 30
0.0
 10
-4525.530892346305
 20
4029.91163591923
 30
0.0
 10
-4525.477333137367
 20
4029.910261249545
 30
0.0
 10
-4525.402442101314
 20
4029.89631400581
 30
0.0
 10
-4525.338549674953
 20
4029.873240313812
 30
0.0
 10
-4525.284911791626
 20
4029.841047601813
 30
0.0
 10
-4525.243736677936
 20
4029.797549659373
 30
0.0
 10
-4525.215689303657
 20
4029.744484395546
 30
0.0
 10
-4525.19768833616
 20
4029.682803403395
 30
0.0
 10
-4525.195895030257
 20
4029.638438942101
 30
0.0
 10
-4525.194950632424
 20
4029.615075554385
 30
0.0
  0
SPLINE
  5
91
330
1F
100
AcDbEntity
  8
0
  6
Continuous
 62
     7
370
    25
100
AcDbSpline
210
0.0
220
0.0
230
1.0
 70
     8
 71
     3
 72
    15
 73
    11
 74
     0
 42
0.000000001
 43
0.00000001
 40
0.0
 40
0.0
 40
0.0
 40
0.0
 40
0.1300974988387514
 40
0.2470406056767301
 40
0.3553396836754617
 40
0.4623375641165293
 40
0.5768600618362828
 40
0.7012892314076611
 40
0.8398672337486633
 40
1.0
 40
1.0
 40
1.0
 40
1.0
 10
-4525.194950632424
 20
4029.615075554385
 30
0.0
 10
-4525.195895030257
 20
4029.591712166671
 30
0.0
 10
-4525.19768833616
 20
4029.547347705377
 30
0.0
 10
-4525.215689303657
 20
4029.485666713225
 30
0.0
 10
-4525.243736677936
 20
4029.432601449399
 30
0.0
 10
-4525.284911791626
 20
4029.38910350696
 30
0.0
 10
-4525.338549674953
 20
4029.356910794959
 30
0.0
 10
-4525.402442101314
 20
4029.333837102962
 30
0.0
 10
-4525.477333137366
 20
4029.319889859227
 30
0.0
 10
-4525.530892346305
 20
4029.318515189542
 30
0.0
 10
-4525.559604348641
 20
4029.317778257089
 30
0.0
  0
SPLINE
  5
93
330
1F
100
AcDbEntity
  8
0
  6
Continuous
 62
     7
370
    25
100
AcDbSpline
210
0.0
220
0.0
230
1.0
 70
     8
 71
     3
 72
    15
 73
    11
 74
     0
 42
0.000000001
 43
0.00000001
 40
0.0
 40
0.0
 40
0.0
 40
0.0
 40
0.1375323246206401
 40
0.2692883422761557
 40
0.3967433051655355
 40
0.52697038482207
 40
0.6530252558917037
 40
0.7712268327057521
 40
0.8843294327195459
 40
1.0
 40
1.0
 40
1.0
 40
1.0
 10
-4520.963806206749
 20
4029.540751230061
 30
0.0
 10
-4520.913240685097
 20
4029.542744773357
 30
0.0
 10
-4520.814233375074
 20
4029.546648131862
 30
0.0
 10
-4520.672462218686
 20
4029.584213257862
 30
0.0
 10
-4520.541385565479
 20
4029.642862490628
 30
0.0
 10
-4520.425935527693
 20
4029.724916684183
 30
0.0
 10
-4520.327967290724
 20
4029.822398814216
 30
0.0
 10
-4520.255430420138
 20
4029.932746621816
 30
0.0
 10
-4520.210798960954
 20
4030.05390047042
 30
0.0
 10
-4520.20571414591
 20
4030.138076672127
 30
0.0
 10
-4520.203143199992
 20
4030.180637209791
 30
0.0
  0
SPLINE
  5
95
330
1F
100
AcDbEntity
  8
0
  6
Continuous
 62
     7
370
    25
100
AcDbSpline
210
0.0
220
0.0
230
1.0
 70
     8
 71
     3
 72
    15
 73
    11
 74
     0
 42
0.000000001
 43
0.00000001
 40
0.0
 40
0.0
 40
0.0
 40
0.0
 40
0.1155565970085905
 40
0.2285477569700819
 40
0.3457503043862232
 40
0.4731712254279807
 40
0.6038788589352716
 40
0.7330481993050151
 40
0.8636538436165492
 40
1.0
 40
1.0
 40
1.0
 40
1.0
 10
-4520.203143199992
 20
4030.904138054386
 30
0.0
 10
-4520.205731106042
 20
4030.946687786882
 30
0.0
 10
-4520.210849464824
 20
4031.030842618135
 30
0.0
 10
-4520.255116939947
 20
4031.15184749017
 30
0.0
 10
-4520.328685604528
 20
4031.261794895424
 30
0.0
 10
-4520.426909094616
 20
4031.35956996822
 30
0.0
 10
-4520.542979555687
 20
4031.443078891247
 30
0.0
 10
-4520.673614253343
 20
4031.504079072062
 30
0.0
 10
-4520.815413567921
 20
4031.541532438428
 30
0.0
 10
-4520.913637924007
 20
4031.545487785524
 30
0.0
 10
-4520.963806206749
 20
4031.547507986818
 30
0.0
  0
SPLINE
  5
9A
330
1F
100
AcDbEntity
  8
0
  6
Continuous
 62
     7
370
    25
100
AcDbSpline
210
0.0
220
0.0
230
1.0
 70
     8
 71
     3
 72
    15
 73
    11
 74
     0
 42
0.000000001
 43
0.00000001
 40
0.0
 40
0.0
 40
0.0
 40
0.0
 40
0.1212059526124707
 40
0.229343656490283
 40
0.3347681309252117
 40
0.4407596617558633
 40
0.5558130396878576
 40
0.6851533834087478
 40
0.8321371907837358
 40
1.0
 40
1.0
 40
1.0
 40
1.0
 10
-4522.0612513081
 20
4026.908044304386
 30
0.0
 10
-4522.062173365168
 20
4026.88698157911
 30
0.0
 10
-4522.063918064458
 20
4026.847127080824
 30
0.0
 10
-4522.08235447803
 20
4026.791445326325
 30
0.0
 10
-4522.111471815197
 20
4026.743654588978
 30
0.0
 10
-4522.154201186942
 20
4026.705513718746
 30
0.0
 10
-4522.207930962903
 20
4026.676473251511
 30
0.0
 10
-4522.272830436878
 20
4026.655649823165
 30
0.0
 10
-4522.349302346913
 20
4026.645021238346
 30
0.0
 10
-4522.403811154566
 20
4026.643117548028
 30
0.0
 10
-4522.432872929721
 20
4026.642102581412
 30
0.0
  0
SPLINE
  5
9B
330
1F
100
AcDbEntity
  8
0
  6
Continuous
 62
     7
370
    25
100
AcDbSpline
210
0.0
220
0.0
230
1.0
 70
     8
 71
     3
 72
    15
 73
    11
 74
     0
 42
0.000000001
 43
0.00000001
 40
0.0
 40
0.0
 40
0.0
 40
0.0
 40
0.1528612850162831
 40
0.2874697277136235
 40
0.4083171843914844
 40
0.5197330343307374
 40
0.6278222855466407
 40
0.7415060099346156
 40
0.8623534666125092
 40
1.0
 40
1.0
 40
1.0
 40
1.0
 10
-4522.432872929721
 20
4026.642102581412
 30
0.0
 10
-4522.456135850916
 20
4026.643116458958
 30
0.0
 10
-4522.499883917152
 20
4026.645023149077
 30
0.0
 10
-4522.561471826337
 20
4026.655787037467
 30
0.0
 10
-4522.613669051399
 20
4026.676895545605
 30
0.0
 10
-4522.65682924232
 20
4026.706365197017
 30
0.0
 10
-4522.6908020529
 20
4026.74490318834
 30
0.0
 10
-4522.713582319921
 20
4026.792360752952
 30
0.0
 10
-4522.7280830247
 20
4026.847586983082
 30
0.0
 10
-4522.729444989011
 20
4026.88703726218
 30
0.0
 10
-4522.73017022702
 20
4026.908044304386
 30
0.0
  0
SPLINE
  5
9D
330
1F
100
AcDbEntity
  8
0
  6
Continuous
 62
     7
370
    25
100
AcDbSpline
210
0.0
220
0.0
230
1.0
 70
     8
 71
     3
 72
    15
 73
    11
 74
     0
 42
0.000000001
 43
0.00000001
 40
0.0
 40
0.0
 40
0.0
 40
0.0
 40
0.1402867790406176
 40
0.2628239228034171
 40
0.3786882539365082
 40
0.4871622699041442
 40
0.5964991609582015
 40
0.7172707065234039
 40
0.8493763695269072
 40
0.9999999999999999
 40
0.9999999999999999
 40
0.9999999999999999
 40
0.9999999999999999
 10
-4522.73017022702
 20
4031.87616085844
 30
0.0
 10
-4522.729290626458
 20
4031.897126922691
 30
0.0
 10
-4522.727642715861
 20
4031.936406342247
 30
0.0
 10
-4522.715121148261
 20
4031.992055929288
 30
0.0
 10
-4522.691810326093
 20
4032.03893351646
 30
0.0
 10
-4522.659407840314
 20
4032.077408713351
 30
0.0
 10
-4522.618236363795
 20
4032.107664392949
 30
0.0
 10
-4522.567616083006
 20
4032.128164038517
 30
0.0
 10
-4522.508057102013
 20
4032.139258600039
 30
0.0
 10
-4522.465824269505
 20
4032.141114078104
 30
0.0
 10
-4522.44332478783
 20
4032.142102581413
 30
0.0
  0
SPLINE
  5
9F
330
1F
100
AcDbEntity
  8
0
  6
Continuous
 62
     7
370
    25
100
AcDbSpline
210
0.0
220
0.0
230
1.0
 70
     8
 71
     3
 72
    23
 73
    19
 74
     0
 42
0.000000001
 43
0.00000001
 40
0.0
 40
0.0
 40
0.0
 40
0.0
 40
0.0710945843310207
 40
0.139851176086513
 40
0.2061119140013999
 40
0.2717487563772358
 40
0.335946880943688
 40
0.4007682675709642
 40
0.4653066586776962
 40
0.530914892810558
 40
0.595397506246154
 40
0.6572827618442227
 40
0.716260794681112
 40
0.7738511042104607
 40
0.8302612155035504
 40
0.8861978689581834
 40
0.9428459869782516
 40
1.0
 40
1.0
 40
1.0
 40
1.0
 10
-4520.959160936478
 20
4032.142102581413
 30
0.0
 10
-4520.909938611545
 20
4032.141057782123
 30
0.0
 10
-4520.813112670491
 20
4032.139002542458
 30
0.0
 10
-4520.671435608523
 20
4032.12073429422
 30
0.0
 10
-4520.535073722523
 20
4032.093569454783
 30
0.0
 10
-4520.405522793495
 20
4032.052409700887
 30
0.0
 10
-4520.280678117208
 20
4032.001290563127
 30
0.0
 10
-4520.16280895741
 20
4031.937167517677
 30
0.0
 10
-4520.050214234107
 20
4031.862458987365
 30
0.0
 10
-4519.945963302107
 20
4031.776902075411
 30
0.0
 10
-4519.849699267282
 20
4031.685078898852
 30
0.0
 10
-4519.766368545694
 20
4031.587325606937
 30
0.0
 10
-4519.694169309616
 20
4031.486887635277
 30
0.0
 10
-4519.636008258182
 20
4031.381938764083
 30
0.0
 10
-4519.59037744574
 20
4031.273318440426
 30
0.0
 10
-4519.557170375928
 20
4031.160884578804
 30
0.0
 10
-4519.538860606369
 20
4031.044482508594
 30
0.0
 10
-4519.535774296123
 20
4030.96574623283
 30
0.0
 10
-4519.534224281073
 20
4030.92620308817
 30
0.0
  0
SPLINE
  5
A1
330
1F
100
AcDbEntity
  8
0
  6
Continuous
 62
     7
370
    25
100
AcDbSpline
210
0.0
220
0.0
230
1.0
 70
     8
 71
     3
 72
    23
 73
    19
 74
     0
 42
0.000000001
 43
0.00000001
 40
0.0
 40
0.0
 40
0.0
 40
0.0
 40
0.0573739994865075
 40
0.1143616005067852
 40
0.1703884478485298
 40
0.2263109751766907
 40
0.2841534310703397
 40
0.343528063892919
 40
0.4048921136338522
 40
0.4692537240661077
 40
0.534714282534495
 40
0.5987563321429076
 40
0.6631007758819175
 40
0.7270614521198834
 40
0.7929856708148478
 40
0.8595365166367465
 40
0.928594143840304
 40
1.0
 40
1.0
 40
1.0
 40
1.0
 10
-4519.534224281073
 20
4030.158572176008
 30
0.0
 10
-4519.535126906575
 20
4030.118994987061
 30
0.0
 10
-4519.536926078639
 20
4030.040107150899
 30
0.0
 10
-4519.55794971936
 20
4029.924212161879
 30
0.0
 10
-4519.588817859695
 20
4029.811816806545
 30
0.0
 10
-4519.633720800549
 20
4029.70340724738
 30
0.0
 10
-4519.69239471655
 20
4029.599317513038
 30
0.0
 10
-4519.761980237663
 20
4029.497594156043
 30
0.0
 10
-4519.845509376627
 20
4029.400891524583
 30
0.0
 10
-4519.940087800836
 20
4029.309041039008
 30
0.0
 10
-4520.042924971234
 20
4029.223445993849
 30
0.0
 10
-4520.154696323241
 20
4029.149886733238
 30
0.0
 10
-4520.271667379588
 20
4029.087182825106
 30
0.0
 10
-4520.395329671689
 20
4029.035548414767
 30
0.0
 10
-4520.524644406364
 20
4028.994742530787
 30
0.0
 10
-4520.660977467776
 20
4028.967510215565
 30
0.0
 10
-4520.802662470497
 20
4028.949260555918
 30
0.0
 10
-4520.899487312267
 20
4028.94720274293
 30
0.0
 10
-4520.94870907837
 20
4028.946156635467
 30
0.0
  0
SPLINE
  5
A4
330
1F
100
AcDbEntity
  8
0
  6
Continuous
 62
     7
370
    25
100
AcDbSpline
210
0.0
220
0.0
230
1.0
 70
     8
 71
     3
 72
    15
 73
    11
 74
     0
 42
0.000000001
 43
0.00000001
 40
0.0
 40
0.0
 40
0.0
 40
0.0
 40
0.1364411897142826
 40
0.2559957227680015
 40
0.3685080101434384
 40
0.4757423758333574
 40
0.5882546632087361
 40
0.7093427114892352
 40
0.8457839012034865
 40
1.0
 40
1.0
 40
1.0
 40
1.0
 10
-4515.327467524316
 20
4031.881967446277
 30
0.0
 10
-4515.326747075281
 20
4031.902592619232
 30
0.0
 10
-4515.325395343653
 20
4031.94129028867
 30
0.0
 10
-4515.310862382029
 20
4031.995345508038
 30
0.0
 10
-4515.288125949571
 20
4032.041800415729
 30
0.0
 10
-4515.25367905969
 20
4032.078898742433
 30
0.0
 10
-4515.211288915419
 20
4032.10887399489
 30
0.0
 10
-4515.158303076588
 20
4032.127637681195
 30
0.0
 10
-4515.097438796019
 20
4032.14117541012
 30
0.0
 10
-4515.053488988219
 20
4032.141781175944
 30
0.0
 10
-4515.030170227019
 20
4032.142102581413
 30
0.0
  0
SPLINE
  5
A5
330
1F
100
AcDbEntity
  8
0
  6
Continuous
 62
     7
370
    25
100
AcDbSpline
210
0.0
220
0.0
230
1.0
 70
     8
 71
     3
 72
    15
 73
    11
 74
     0
 42
0.000000001
 43
0.00000001
 40
0.0
 40
0.0
 40
0.0
 40
0.0
 40
0.1678628092163385
 40
0.3148466165912324
 40
0.4441869603121141
 40
0.5592403382441214
 40
0.6652318690748292
 40
0.7706563435097057
 40
0.8787940473875373
 40
1.0
 40
1.0
 40
1.0
 40
1.0
 10
-4515.030170227019
 20
4032.142102581413
 30
0.0
 10
-4515.001108451864
 20
4032.141087614798
 30
0.0
 10
-4514.94659964421
 20
4032.139183924481
 30
0.0
 10
-4514.870127734176
 20
4032.128555339661
 30
0.0
 10
-4514.8052282602
 20
4032.107731911316
 30
0.0
 10
-4514.75149848424
 20
4032.07869144408
 30
0.0
 10
-4514.708769112494
 20
4032.040550573848
 30
0.0
 10
-4514.679651775327
 20
4031.992759836501
 30
0.0
 10
-4514.661215361755
 20
4031.937078082001
 30
0.0
 10
-4514.659470662466
 20
4031.897223583717
 30
0.0
 10
-4514.658548605397
 20
4031.87616085844
 30
0.0
  0
SPLINE
  5
A7
330
1F
100
AcDbEntity
  8
0
  6
Continuous
 62
     7
370
    25
100
AcDbSpline
210
0.0
220
0.0
230
1.0
 70
     8
 71
     3
 72
    15
 73
    11
 74
     0
 42
0.000000001
 43
0.00000001
 40
0.0
 40
0.0
 40
0.0
 40
0.0
 40
0.1212059526124653
 40
0.2293436564902991
 40
0.3347681309251779
 40
0.4407596617558877
 40
0.5558130396878768
 40
0.6851533834087611
 40
0.8321371907836581
 40
1.0
 40
1.0
 40
1.0
 40
1.0
 10
-4514.658548605397
 20
4026.908044304386
 30
0.0
 10
-4514.659470662466
 20
4026.88698157911
 30
0.0
 10
-4514.661215361755
 20
4026.847127080824
 30
0.0
 10
-4514.679651775327
 20
4026.791445326325
 30
0.0
 10
-4514.708769112494
 20
4026.743654588978
 30
0.0
 10
-4514.75149848424
 20
4026.705513718746
 30
0.0
 10
-4514.8052282602
 20
4026.676473251511
 30
0.0
 10
-4514.870127734176
 20
4026.655649823165
 30
0.0
 10
-4514.94659964421
 20
4026.645021238346
 30
0.0
 10
-4515.001108451864
 20
4026.643117548028
 30
0.0
 10
-4515.030170227019
 20
4026.642102581412
 30
0.0
  0
SPLINE
  5
A8
330
1F
100
AcDbEntity
  8
0
  6
Continuous
 62
     7
370
    25
100
AcDbSpline
210
0.0
220
0.0
230
1.0
 70
     8
 71
     3
 72
    15
 73
    11
 74
     0
 42
0.000000001
 43
0.00000001
 40
0.0
 40
0.0
 40
0.0
 40
0.0
 40
0.1528612850162868
 40
0.2874697277135351
 40
0.4083171843914889
 40
0.5197330343307446
 40
0.6278222855466505
 40
0.7415060099345848
 40
0.8623534666125059
 40
1.0
 40
1.0
 40
1.0
 40
1.0
 10
-4515.030170227019
 20
4026.642102581412
 30
0.0
 10
-4515.053433148213
 20
4026.643116458958
 30
0.0
 10
-4515.09718121445
 20
4026.645023149077
 30
0.0
 10
-4515.158769123635
 20
4026.655787037467
 30
0.0
 10
-4515.210966348697
 20
4026.676895545605
 30
0.0
 10
-4515.254126539617
 20
4026.706365197017
 30
0.0
 10
-4515.288099350198
 20
4026.74490318834
 30
0.0
 10
-4515.310879617217
 20
4026.792360752952
 30
0.0
 10
-4515.325380321998
 20
4026.847586983082
 30
0.0
 10
-4515.32674228631
 20
4026.88703726218
 30
0.0
 10
-4515.327467524316
 20
4026.908044304386
 30
0.0
  0
SPLINE
  5
AC
330
1F
100
AcDbEntity
  8
0
  6
Continuous
 62
     7
370
    25
100
AcDbSpline
210
0.0
220
0.0
230
1.0
 70
     8
 71
     3
 72
    15
 73
    11
 74
     0
 42
0.000000001
 43
0.00000001
 40
0.0
 40
0.0
 40
0.0
 40
0.0
 40
0.1212059526124707
 40
0.229343656490283
 40
0.3347681309252117
 40
0.4407596617558633
 40
0.5558130396878576
 40
0.6851533834087478
 40
0.8321371907837358
 40
1.0
 40
1.0
 40
1.0
 40
1.0
 10
-4517.185575632424
 20
4026.908044304386
 30
0.0
 10
-4517.186497689493
 20
4026.88698157911
 30
0.0
 10
-4517.188242388783
 20
4026.847127080824
 30
0.0
 10
-4517.206678802355
 20
4026.791445326325
 30
0.0
 10
-4517.235796139521
 20
4026.743654588978
 30
0.0
 10
-4517.278525511267
 20
4026.705513718746
 30
0.0
 10
-4517.332255287228
 20
4026.676473251511
 30
0.0
 10
-4517.397154761203
 20
4026.655649823165
 30
0.0
 10
-4517.473626671236
 20
4026.645021238346
 30
0.0
 10
-4517.52813547889
 20
4026.643117548028
 30
0.0
 10
-4517.557197254045
 20
4026.642102581412
 30
0.0
  0
SPLINE
  5
AD
330
1F
100
AcDbEntity
  8
0
  6
Continuous
 62
     7
370
    25
100
AcDbSpline
210
0.0
220
0.0
230
1.0
 70
     8
 71
     3
 72
    15
 73
    11
 74
     0
 42
0.000000001
 43
0.00000001
 40
0.0
 40
0.0
 40
0.0
 40
0.0
 40
0.1528612850162831
 40
0.2874697277136235
 40
0.4083171843914844
 40
0.5197330343307374
 40
0.6278222855466407
 40
0.7415060099346156
 40
0.8623534666125092
 40
1.0
 40
1.0
 40
1.0
 40
1.0
 10
-4517.557197254045
 20
4026.642102581412
 30
0.0
 10
-4517.580460175241
 20
4026.643116458958
 30
0.0
 10
-4517.624208241476
 20
4026.645023149077
 30
0.0
 10
-4517.685796150661
 20
4026.655787037467
 30
0.0
 10
-4517.737993375724
 20
4026.676895545605
 30
0.0
 10
-4517.781153566644
 20
4026.706365197017
 30
0.0
 10
-4517.815126377225
 20
4026.74490318834
 30
0.0
 10
-4517.837906644245
 20
4026.792360752952
 30
0.0
 10
-4517.852407349024
 20
4026.847586983082
 30
0.0
 10
-4517.853769313337
 20
4026.88703726218
 30
0.0
 10
-4517.854494551343
 20
4026.908044304386
 30
0.0
  0
SPLINE
  5
AF
330
1F
100
AcDbEntity
  8
0
  6
Continuous
 62
     7
370
    25
100
AcDbSpline
210
0.0
220
0.0
230
1.0
 70
     8
 71
     3
 72
    15
 73
    11
 74
     0
 42
0.000000001
 43
0.00000001
 40
0.0
 40
0.0
 40
0.0
 40
0.0
 40
0.1376465333874869
 40
0.2584939900653772
 40
0.3721777144533489
 40
0.4802669656692492
 40
0.5916828156085269
 40
0.7125302722863844
 40
0.8471387149837212
 40
1.0
 40
1.0
 40
1.0
 40
1.0
 10
-4517.854494551343
 20
4031.87616085844
 30
0.0
 10
-4517.853769313337
 20
4031.897167900645
 30
0.0
 10
-4517.852407349024
 20
4031.936618179745
 30
0.0
 10
-4517.837906644245
 20
4031.991844409874
 30
0.0
 10
-4517.815126377225
 20
4032.039301974487
 30
0.0
 10
-4517.781153566644
 20
4032.077839965808
 30
0.0
 10
-4517.737993375724
 20
4032.107309617221
 30
0.0
 10
-4517.685796150661
 20
4032.12841812536
 30
0.0
 10
-4517.624208241476
 20
4032.13918201375
 30
0.0
 10
-4517.580460175241
 20
4032.141088703868
 30
0.0
 10
-4517.557197254046
 20
4032.142102581413
 30
0.0
  0
SPLINE
  5
B0
330
1F
100
AcDbEntity
  8
0
  6
Continuous
 62
     7
370
    25
100
AcDbSpline
210
0.0
220
0.0
230
1.0
 70
     8
 71
     3
 72
    15
 73
    11
 74
     0
 42
0.000000001
 43
0.00000001
 40
0.0
 40
0.0
 40
0.0
 40
0.0
 40
0.1691382693020636
 40
0.3176902073342216
 40
0.4474110356377818
 40
0.563410610629366
 40
0.6687664326273801
 40
0.7731538901271362
 40
0.880040848835351
 40
1.0
 40
1.0
 40
1.0
 40
1.0
 10
-4517.557197254045
 20
4032.142102581413
 30
0.0
 10
-4517.528088048517
 20
4032.141790686414
 30
0.0
 10
-4517.473412607071
 20
4032.141204858102
 30
0.0
 10
-4517.397548612144
 20
4032.127718710796
 30
0.0
 10
-4517.331973800363
 20
4032.109336428561
 30
0.0
 10
-4517.278959120172
 20
4032.079664953334
 30
0.0
 10
-4517.235820826152
 20
4032.043043177488
 30
0.0
 10
-4517.206707056451
 20
4031.996279373244
 30
0.0
 10
-4517.188228602769
 20
4031.941758846741
 30
0.0
 10
-4517.186493288834
 20
4031.902649155734
 30
0.0
 10
-4517.185575632424
 20
4031.881967446278
 30
0.0
  0
SPLINE
  5
B3
330
1F
100
AcDbEntity
  8
0
  6
Continuous
 62
     7
370
    25
100
AcDbSpline
210
0.0
220
0.0
230
1.0
 70
     8
 71
     3
 72
    15
 73
    11
 74
     0
 42
0.000000001
 43
0.00000001
 40
0.0
 40
0.0
 40
0.0
 40
0.0
 40
0.1210437057282784
 40
0.2311608615819679
 40
0.3345582471448255
 40
0.4404078971910693
 40
0.5564076305372024
 40
0.6855748386379621
 40
0.8323618927656111
 40
1.0
 40
1.0
 40
1.0
 40
1.0
 10
-4512.309899956748
 20
4026.909205621954
 30
0.0
 10
-4512.310898171692
 20
4026.888171256959
 30
0.0
 10
-4512.312804493255
 20
4026.848001287725
 30
0.0
 10
-4512.330406042178
 20
4026.791932288378
 30
0.0
 10
-4512.360517426167
 20
4026.744631662646
 30
0.0
 10
-4512.40310681599
 20
4026.706812468788
 30
0.0
 10
-4512.456213145528
 20
4026.676188074413
 30
0.0
 10
-4512.521537874128
 20
4026.655759815095
 30
0.0
 10
-4512.597932949026
 20
4026.644987473749
 30
0.0
 10
-4512.652453527509
 20
4026.643105806347
 30
0.0
 10
-4512.681521578371
 20
4026.642102581412
 30
0.0
  0
SPLINE
  5
B4
330
1F
100
AcDbEntity
  8
0
  6
Continuous
 62
     7
370
    25
100
AcDbSpline
210
0.0
220
0.0
230
1.0
 70
     8
 71
     3
 72
    15
 73
    11
 74
     0
 42
0.000000001
 43
0.00000001
 40
0.0
 40
0.0
 40
0.0
 40
0.0
 40
0.1526075283706857
 40
0.2869925149660817
 40
0.4076393594010697
 40
0.5203370983718765
 40
0.6282469165428702
 40
0.7394778111329698
 40
0.8625819660823836
 40
1.0
 40
1.0
 40
1.0
 40
1.0
 10
-4512.681521578371
 20
4026.642102581412
 30
0.0
 10
-4512.704790853219
 20
4026.643107171661
 30
0.0
 10
-4512.748550868085
 20
4026.644996396161
 30
0.0
 10
-4512.810059998736
 20
4026.655875437142
 30
0.0
 10
-4512.862723045326
 20
4026.676693145146
 30
0.0
 10
-4512.905170131423
 20
4026.707618657226
 30
0.0
 10
-4512.93911935241
 20
4026.745797492727
 30
0.0
 10
-4512.962745016024
 20
4026.792939690829
 30
0.0
 10
-4512.976525151917
 20
4026.84842977254
 30
0.0
 10
-4512.978026799395
 20
4026.888218304618
 30
0.0
 10
-4512.978818875668
 20
4026.909205621954
 30
0.0
  0
SPLINE
  5
B6
330
1F
100
AcDbEntity
  8
0
  6
Continuous
 62
     7
370
    25
100
AcDbSpline
210
0.0
220
0.0
230
1.0
 70
     8
 71
     3
 72
    15
 73
    11
 74
     0
 42
0.000000001
 43
0.00000001
 40
0.0
 40
0.0
 40
0.0
 40
0.0
 40
0.1373554302530843
 40
0.2604035025254341
 40
0.3715837235509516
 40
0.481366128224415
 40
0.5925463492499723
 40
0.7131382304871867
 40
0.8474619951862883
 40
1.0
 40
1.0
 40
1.0
 40
1.0
 10
-4512.978818875668
 20
4031.909839067899
 30
0.0
 10
-4512.978018009793
 20
4031.930817970021
 30
0.0
 10
-4512.976499698662
 20
4031.970590548225
 30
0.0
 10
-4512.96283102362
 20
4032.026187343175
 30
0.0
 10
-4512.938699164802
 20
4032.073236805347
 30
0.0
 10
-4512.90596149767
 20
4032.11269939323
 30
0.0
 10
-4512.862247393128
 20
4032.142094327687
 30
0.0
 10
-4512.81014224872
 20
4032.163274628825
 30
0.0
 10
-4512.748525976287
 20
4032.174016403096
 30
0.0
 10
-4512.70478221201
 20
4032.175926447345
 30
0.0
 10
-4512.681521578371
 20
4032.17694210844
 30
0.0
  0
SPLINE
  5
B7
330
1F
100
AcDbEntity
  8
0
  6
Continuous
 62
     7
370
    25
100
AcDbSpline
210
0.0
220
0.0
230
1.0
 70
     8
 71
     3
 72
    15
 73
    11
 74
     0
 42
0.000000001
 43
0.00000001
 40
0.0
 40
0.0
 40
0.0
 40
0.0
 40
0.1675680039011581
 40
0.3142936742423754
 40
0.4434068668690763
 40
0.5582581848719494
 40
0.6655816592802659
 40
0.7689358058594498
 40
0.8790069126387426
 40
1.0
 40
1.0
 40
1.0
 40
1.0
 10
-4512.681521578371
 20
4032.17694210844
 30
0.0
 10
-4512.65246273226
 20
4032.175924321758
 30
0.0
 10
-4512.597959418376
 20
4032.174015342067
 30
0.0
 10
-4512.52145164727
 20
4032.16342128409
 30
0.0
 10
-4512.456665057342
 20
4032.142489171612
 30
0.0
 10
-4512.40234311731
 20
4032.113668269443
 30
0.0
 10
-4512.360921481262
 20
4032.07432997788
 30
0.0
 10
-4512.330332816217
 20
4032.02719885553
 30
0.0
 10
-4512.312825461403
 20
4031.971018646134
 30
0.0
 10
-4512.310905377908
 20
4031.930864924892
 30
0.0
 10
-4512.309899956749
 20
4031.909839067899
 30
0.0
  0
SPLINE
  5
B9
330
1F
100
AcDbEntity
  8
0
  6
Continuous
 62
     7
370
    25
100
AcDbSpline
210
0.0
220
0.0
230
1.0
 70
     8
 71
     3
 72
    15
 73
    11
 74
     0
 42
0.000000001
 43
0.00000001
 40
0.0
 40
0.0
 40
0.0
 40
0.0
 40
0.1678628092162654
 40
0.3148466165912415
 40
0.4441869603121592
 40
0.5592403382441336
 40
0.6652318690747859
 40
0.7706563435097155
 40
0.8787940473875285
 40
1.0
 40
1.0
 40
1.0
 40
1.0
 10
-4512.681521578371
 20
4033.331291770602
 30
0.0
 10
-4512.652459803216
 20
4033.330276803987
 30
0.0
 10
-4512.597950995561
 20
4033.328373113669
 30
0.0
 10
-4512.521479085527
 20
4033.31774452885
 30
0.0
 10
-4512.456579611552
 20
4033.296921100503
 30
0.0
 10
-4512.402849835591
 20
4033.267880633269
 30
0.0
 10
-4512.360120463845
 20
4033.229739763037
 30
0.0
 10
-4512.331003126678
 20
4033.18194902569
 30
0.0
 10
-4512.312566713107
 20
4033.126267271191
 30
0.0
 10
-4512.310822013817
 20
4033.086412772906
 30
0.0
 10
-4512.309899956748
 20
4033.065350047629
 30
0.0
  0
SPLINE
  5
BA
330
1F
100
AcDbEntity
  8
0
  6
Continuous
 62
     7
370
    25
100
AcDbSpline
210
0.0
220
0.0
230
1.0
 70
     8
 71
     3
 72
    15
 73
    11
 74
     0
 42
0.000000001
 43
0.00000001
 40
0.0
 40
0.0
 40
0.0
 40
0.0
 40
0.1226673979138291
 40
0.2322494730060874
 40
0.3370212333529702
 40
0.443867883449403
 40
0.5582089319051711
 40
0.6867484913209762
 40
0.8331764790611655
 40
0.9999999999999999
 40
0.9999999999999999
 40
0.9999999999999999
 40
0.9999999999999999
 10
-4512.309899956748
 20
4033.065350047629
 30
0.0
 10
-4512.310847990823
 20
4033.043918660828
 30
0.0
 10
-4512.312642929152
 20
4033.003342041653
 30
0.0
 10
-4512.330657854504
 20
4032.946654175739
 30
0.0
 10
-4512.360505995855
 20
4032.898651065412
 30
0.0
 10
-4512.402396838282
 20
4032.859248181822
 30
0.0
 10
-4512.456636546648
 20
4032.830289231444
 30
0.0
 10
-4512.521572651248
 20
4032.80978086094
 30
0.0
 10
-4512.597823065992
 20
4032.797239320865
 30
0.0
 10
-4512.652436790221
 20
4032.795623543825
 30
0.0
 10
-4512.681521578371
 20
4032.794763054386
 30
0.0
  0
SPLINE
  5
BB
330
1F
100
AcDbEntity
  8
0
  6
Continuous
 62
     7
370
    25
100
AcDbSpline
210
0.0
220
0.0
230
1.0
 70
     8
 71
     3
 72
    15
 73
    11
 74
     0
 42
0.000000001
 43
0.00000001
 40
0.0
 40
0.0
 40
0.0
 40
0.0
 40
0.151734570339931
 40
0.2858502498747051
 40
0.4058069603899633
 40
0.5164015829445608
 40
0.6256057515998186
 40
0.7384515324842004
 40
0.8608514970058568
 40
1.0
 40
1.0
 40
1.0
 40
1.0
 10
-4512.681521578371
 20
4032.794763054386
 30
0.0
 10
-4512.704813443736
 20
4032.795626093512
 30
0.0
 10
-4512.748692604037
 20
4032.797251958662
 30
0.0
 10
-4512.809995351605
 20
4032.809919749716
 30
0.0
 10
-4512.862275440562
 20
4032.830683745678
 30
0.0
 10
-4512.905918822546
 20
4032.860207242416
 30
0.0
 10
-4512.939067139027
 20
4032.899821399702
 30
0.0
 10
-4512.962534975913
 20
4032.947609190613
 30
0.0
 10
-4512.976656888034
 20
4033.003784052233
 30
0.0
 10
-4512.978068090499
 20
4033.043970260096
 30
0.0
 10
-4512.978818875668
 20
4033.065350047629
 30
0.0
  0
SPLINE
  5
BC
330
1F
100
AcDbEntity
  8
0
  6
Continuous
 62
     7
370
    25
100
AcDbSpline
210
0.0
220
0.0
230
1.0
 70
     8
 71
     3
 72
    15
 73
    11
 74
     0
 42
0.000000001
 43
0.00000001
 40
0.0
 40
0.0
 40
0.0
 40
0.0
 40
0.137646533387492
 40
0.2584939900653868
 40
0.3721777144533627
 40
0.480266965669267
 40
0.5916828156084933
 40
0.7125302722863921
 40
0.8471387149837154
 40
1.0
 40
1.0
 40
1.0
 40
1.0
 10
-4512.978818875668
 20
4033.065350047629
 30
0.0
 10
-4512.978093637661
 20
4033.086357089835
 30
0.0
 10
-4512.976731673349
 20
4033.125807368934
 30
0.0
 10
-4512.962230968569
 20
4033.181033599063
 30
0.0
 10
-4512.939450701549
 20
4033.228491163675
 30
0.0
 10
-4512.905477890969
 20
4033.267029154998
 30
0.0
 10
-4512.862317700049
 20
4033.29649880641
 30
0.0
 10
-4512.810120474986
 20
4033.317607314548
 30
0.0
 10
-4512.748532565801
 20
4033.328371202939
 30
0.0
 10
-4512.704784499565
 20
4033.330277893057
 30
0.0
 10
-4512.681521578371
 20
4033.331291770602
 30
0.0
  0
SPLINE
  5
BD
330
1F
100
AcDbEntity
  8
0
  6
Continuous
 62
     7
370
    25
100
AcDbSpline
210
0.0
220
0.0
230
1.0
 70
     8
 71
     3
 72
    15
 73
    11
 74
     0
 42
0.000000001
 43
0.00000001
 40
0.0
 40
0.0
 40
0.0
 40
0.0
 40
0.1388373929378643
 40
0.2701582847264166
 40
0.3989884324639285
 40
0.5279254652810667
 40
0.6536488833888827
 40
0.7707926869858449
 40
0.884205440851805
 40
1.0
 40
1.0
 40
1.0
 40
1.0
 10
-4508.894000463505
 20
4027.236697176007
 30
0.0
 10
-4508.840722674957
 20
4027.239051149784
 30
0.0
 10
-4508.737051497732
 20
4027.243631655829
 30
0.0
 10
-4508.588040868902
 20
4027.282341058021
 30
0.0
 10
-4508.451316642258
 20
4027.343868271298
 30
0.0
 10
-4508.331490216685
 20
4027.430313046604
 30
0.0
 10
-4508.230111833504
 20
4027.53168638826
 30
0.0
 10
-4508.156379862447
 20
4027.647728549469
 30
0.0
 10
-4508.110539661856
 20
4027.774175490549
 30
0.0
 10
-4508.105625708377
 20
4027.862271621852
 30
0.0
 10
-4508.103143199992
 20
4027.906777412494
 30
0.0
  0
SPLINE
  5
BF
330
1F
100
AcDbEntity
  8
0
  6
Continuous
 62
     7
370
    25
100
AcDbSpline
210
0.0
220
0.0
230
1.0
 70
     8
 71
     3
 72
    15
 73
    11
 74
     0
 42
0.000000001
 43
0.00000001
 40
0.0
 40
0.0
 40
0.0
 40
0.0
 40
0.1161210348514864
 40
0.2292383340715336
 40
0.3458576028265311
 40
0.4719354904504358
 40
0.6020627689764334
 40
0.7303354448450033
 40
0.8617808988784538
 40
1.0
 40
1.0
 40
1.0
 40
1.0
 10
-4508.103143199992
 20
4028.651181973305
 30
0.0
 10
-4508.10547413859
 20
4028.695735092126
 30
0.0
 10
-4508.110075720736
 20
4028.783688861648
 30
0.0
 10
-4508.157841685658
 20
4028.908924537438
 30
0.0
 10
-4508.231584999247
 20
4029.024056326414
 30
0.0
 10
-4508.33271250682
 20
4029.125814033011
 30
0.0
 10
-4508.453306967011
 20
4029.210964043391
 30
0.0
 10
-4508.589238467685
 20
4029.273972429801
 30
0.0
 10
-4508.738060826531
 20
4029.310294760364
 30
0.0
 10
-4508.84115736445
 20
4029.315242332507
 30
0.0
 10
-4508.894000463505
 20
4029.317778257089
 30
0.0
  0
SPLINE
  5
C3
330
1F
100
AcDbEntity
  8
0
  6
Continuous
 62
     7
370
    25
100
AcDbSpline
210
0.0
220
0.0
230
1.0
 70
     8
 71
     3
 72
    15
 73
    11
 74
     0
 42
0.000000001
 43
0.00000001
 40
0.0
 40
0.0
 40
0.0
 40
0.0
 40
0.1403308639606231
 40
0.2740905633270901
 40
0.4035553748505468
 40
0.5352749229318556
 40
0.6620896139612804
 40
0.7788218579225102
 40
0.8883833136163326
 40
1.0
 40
1.0
 40
1.0
 40
1.0
 10
-4509.111166848641
 20
4029.912372851683
 30
0.0
 10
-4509.058639253436
 20
4029.914223682211
 30
0.0
 10
-4508.956043732015
 20
4029.917838675862
 30
0.0
 10
-4508.809508974817
 20
4029.957202983452
 30
0.0
 10
-4508.67350837506
 20
4030.016216580902
 30
0.0
 10
-4508.555312457409
 20
4030.101373907475
 30
0.0
 10
-4508.453514104625
 20
4030.198841211162
 30
0.0
 10
-4508.380418075065
 20
4030.309617150619
 30
0.0
 10
-4508.333403412631
 20
4030.428655442548
 30
0.0
 10
-4508.328560254046
 20
4030.511575078328
 30
0.0
 10
-4508.326116172965
 20
4030.553420148981
 30
0.0
  0
SPLINE
  5
C5
330
1F
100
AcDbEntity
  8
0
  6
Continuous
 62
     7
370
    25
100
AcDbSpline
210
0.0
220
0.0
230
1.0
 70
     8
 71
     3
 72
    15
 73
    11
 74
     0
 42
0.000000001
 43
0.00000001
 40
0.0
 40
0.0
 40
0.0
 40
0.0
 40
0.1118414808861135
 40
0.2216235918754648
 40
0.3377252336209428
 40
0.4640672483531003
 40
0.5954580560274153
 40
0.725611246095538
 40
0.8593865115701875
 40
1.0
 40
1.0
 40
1.0
 40
1.0
 10
-4508.326116172965
 20
4030.909944642224
 30
0.0
 10
-4508.328573871211
 20
4030.951781015566
 30
0.0
 10
-4508.333444013389
 20
4031.034683416874
 30
0.0
 10
-4508.380135144295
 20
4031.153547219776
 30
0.0
 10
-4508.45364788126
 20
4031.263341289737
 30
0.0
 10
-4508.555283126035
 20
4031.359897346113
 30
0.0
 10
-4508.674182326725
 20
4031.443155695004
 30
0.0
 10
-4508.808969618908
 20
4031.504556829718
 30
0.0
 10
-4508.956290491831
 20
4031.541546789579
 30
0.0
 10
-4509.058690735056
 20
4031.545488179083
 30
0.0
 10
-4509.111166848641
 20
4031.547507986818
 30
0.0
  0
SPLINE
  5
C9
330
1F
100
AcDbEntity
  8
0
  6
Continuous
 62
     7
370
    25
100
AcDbSpline
210
0.0
220
0.0
230
1.0
 70
     8
 71
     3
 72
    15
 73
    11
 74
     0
 42
0.000000001
 43
0.00000001
 40
0.0
 40
0.0
 40
0.0
 40
0.0
 40
0.1519313110725252
 40
0.2854560573764227
 40
0.4052208957009307
 40
0.5157267620161289
 40
0.6249710359190489
 40
0.738743788718127
 40
0.8608826000178821
 40
1.0
 40
1.0
 40
1.0
 40
1.0
 10
-4510.413003841884
 20
4026.642102581412
 30
0.0
 10
-4510.435882971257
 20
4026.643112536539
 30
0.0
 10
-4510.478869410465
 20
4026.645010090152
 30
0.0
 10
-4510.539291482618
 20
4026.655798793869
 30
0.0
 10
-4510.590464411838
 20
4026.676833662543
 30
0.0
 10
-4510.632327820676
 20
4026.706797313804
 30
0.0
 10
-4510.666539259281
 20
4026.744568856618
 30
0.0
 10
-4510.687584388338
 20
4026.792712518316
 30
0.0
 10
-4510.702516809026
 20
4026.847531159187
 30
0.0
 10
-4510.703807347289
 20
4026.88701786511
 30
0.0
 10
-4510.704494551343
 20
4026.908044304386
 30
0.0
  0
SPLINE
  5
CB
330
1F
100
AcDbEntity
  8
0
  6
Continuous
 62
     7
370
    25
100
AcDbSpline
210
0.0
220
0.0
230
1.0
 70
     8
 71
     3
 72
    15
 73
    11
 74
     0
 42
0.000000001
 43
0.00000001
 40
0.0
 40
0.0
 40
0.0
 40
0.0
 40
0.139117399982114
 40
0.2612562112818657
 40
0.3750289640809405
 40
0.4842732379838574
 40
0.594779104299081
 40
0.7145439426235856
 40
0.8480686889274792
 40
1.0
 40
1.0
 40
1.0
 40
1.0
 10
-4510.704494551343
 20
4031.87616085844
 30
0.0
 10
-4510.703807347289
 20
4031.897187297715
 30
0.0
 10
-4510.702516809026
 20
4031.936674003638
 30
0.0
 10
-4510.687584388338
 20
4031.991492644511
 30
0.0
 10
-4510.666539259281
 20
4032.039636306208
 30
0.0
 10
-4510.632327820676
 20
4032.077407849022
 30
0.0
 10
-4510.590464411838
 20
4032.107371500284
 30
0.0
 10
-4510.539291482618
 20
4032.128406368957
 30
0.0
 10
-4510.478869410465
 20
4032.139195072674
 30
0.0
 10
-4510.435882971257
 20
4032.141092626287
 30
0.0
 10
-4510.413003841884
 20
4032.142102581413
 30
0.0
  0
SPLINE
  5
CD
330
1F
100
AcDbEntity
  8
0
  6
Continuous
 62
     7
370
    25
100
AcDbSpline
210
0.0
220
0.0
230
1.0
 70
     8
 71
     3
 72
    23
 73
    19
 74
     0
 42
0.000000001
 43
0.00000001
 40
0.0
 40
0.0
 40
0.0
 40
0.0
 40
0.0718986997679577
 40
0.1413975380846053
 40
0.2085747414307505
 40
0.2748290700987783
 40
0.3397784190395318
 40
0.4047874366643753
 40
0.4699751326407646
 40
0.5358209004014726
 40
0.6008299180263338
 40
0.661973788434883
 40
0.7213469353098383
 40
0.7779931110434948
 40
0.8336449324088063
 40
0.8888041014602485
 40
0.9436502881635042
 40
1.0
 40
1.0
 40
1.0
 40
1.0
 10
-4509.108844213506
 20
4032.142102581413
 30
0.0
 10
-4509.058875915985
 20
4032.140872702207
 30
0.0
 10
-4508.960607181302
 20
4032.138453995157
 30
0.0
 10
-4508.81619306589
 20
4032.122808810115
 30
0.0
 10
-4508.678243891703
 20
4032.092673638334
 30
0.0
 10
-4508.54560965461
 20
4032.054228025326
 30
0.0
 10
-4508.419515734477
 20
4032.001802965526
 30
0.0
 10
-4508.297887676586
 20
4031.941263797216
 30
0.0
 10
-4508.184197488129
 20
4031.865666479874
 30
0.0
 10
-4508.076658917659
 20
4031.78177194001
 30
0.0
 10
-4507.979418106182
 20
4031.690090907745
 30
0.0
 10
-4507.893328756885
 20
4031.59386272416
 30
0.0
 10
-4507.82025167098
 20
4031.494512182628
 30
0.0
 10
-4507.759701442144
 20
4031.391358725301
 30
0.0
 10
-4507.714498264837
 20
4031.283749052531
 30
0.0
 10
-4507.681985664602
 20
4031.173118207052
 30
0.0
 10
-4507.66126518558
 20
4031.058973183273
 30
0.0
 10
-4507.658565399527
 20
4030.981647268919
 30
0.0
 10
-4507.657197254046
 20
4030.942461534116
 30
0.0
  0
SPLINE
  5
CF
330
1F
100
AcDbEntity
  8
0
  6
Continuous
 62
     7
370
    25
100
AcDbSpline
210
0.0
220
0.0
230
1.0
 70
     8
 71
     3
 72
    15
 73
    11
 74
     0
 42
0.000000001
 43
0.00000001
 40
0.0
 40
0.0
 40
0.0
 40
0.0
 40
0.1286468806200984
 40
0.2521917006262839
 40
0.3729603368108383
 40
0.4923584454711025
 40
0.6125216175123903
 40
0.7360563452243593
 40
0.8648727179591723
 40
1.0
 40
1.0
 40
1.0
 40
1.0
 10
-4507.657197254046
 20
4030.568517277358
 30
0.0
 10
-4507.658917288788
 20
4030.523922789667
 30
0.0
 10
-4507.662289142692
 20
4030.436502405781
 30
0.0
 10
-4507.684149870167
 20
4030.308536652603
 30
0.0
 10
-4507.723393252352
 20
4030.188390128169
 30
0.0
 10
-4507.7751701969
 20
4030.07427970311
 30
0.0
 10
-4507.84512476387
 20
4029.969035367829
 30
0.0
 10
-4507.929573874623
 20
4029.871041462744
 30
0.0
 10
-4508.028502267351
 20
4029.779481388589
 30
0.0
 10
-4508.103984492402
 20
4029.727582798632
 30
0.0
 10
-4508.142627997289
 20
4029.701013054386
 30
0.0
  0
SPLINE
  5
D0
330
1F
100
AcDbEntity
  8
0
  6
Continuous
 62
     7
370
    25
100
AcDbSpline
210
0.0
220
0.0
230
1.0
 70
     8
 71
     3
 72
    15
 73
    11
 74
     0
 42
0.000000001
 43
0.00000001
 40
0.0
 40
0.0
 40
0.0
 40
0.0
 40
0.1205342075740712
 40
0.2420083469182716
 40
0.3672233021663348
 40
0.4989550292247418
 40
0.6307416090192723
 40
0.7554695578802083
 40
0.8783819005277395
 40
1.0
 40
1.0
 40
1.0
 40
1.0
 10
-4508.142627997289
 20
4029.701013054386
 30
0.0
 10
-4508.093804779327
 20
4029.678912033712
 30
0.0
 10
-4507.995777617513
 20
4029.6345376475
 30
0.0
 10
-4507.862117526438
 20
4029.539449167577
 30
0.0
 10
-4507.741813142248
 20
4029.421529644108
 30
0.0
 10
-4507.635646382525
 20
4029.28494909171
 30
0.0
 10
-4507.547033377055
 20
4029.136573481642
 30
0.0
 10
-4507.481573804568
 20
4028.980873440562
 30
0.0
 10
-4507.441742787067
 20
4028.820794485236
 30
0.0
 10
-4507.436721591061
 20
4028.712173111601
 30
0.0
 10
-4507.434224281073
 20
4028.65814987871
 30
0.0
  0
SPLINE
  5
D2
330
1F
100
AcDbEntity
  8
0
  6
Continuous
 62
     7
370
    25
100
AcDbSpline
210
0.0
220
0.0
230
1.0
 70
     8
 71
     3
 72
    23
 73
    19
 74
     0
 42
0.000000001
 43
0.00000001
 40
0.0
 40
0.0
 40
0.0
 40
0.0
 40
0.0551741895472729
 40
0.1094113227529328
 40
0.1646432072235046
 40
0.2206197145440077
 40
0.2783436147023571
 40
0.3382718497463073
 40
0.4018949642838542
 40
0.4684994644665731
 40
0.5361970994406301
 40
0.6020343598042225
 40
0.6673512507692976
 40
0.7320029948294138
 40
0.7973198857944905
 40
0.863329691034288
 40
0.9305507028318066
 40
1.0
 40
1.0
 40
1.0
 40
1.0
 10
-4507.434224281073
 20
4027.881228426008
 30
0.0
 10
-4507.435620553106
 20
4027.842431932225
 30
0.0
 10
-4507.438389383447
 20
4027.765497848775
 30
0.0
 10
-4507.45900105139
 20
4027.651251773405
 30
0.0
 10
-4507.492384199873
 20
4027.539569421957
 30
0.0
 10
-4507.541120851858
 20
4027.431016260014
 30
0.0
 10
-4507.601356642367
 20
4027.324616323656
 30
0.0
 10
-4507.677196512516
 20
4027.221933377648
 30
0.0
 10
-4507.765183817062
 20
4027.121139031922
 30
0.0
 10
-4507.86565202188
 20
4027.024695443092
 30
0.0
 10
-4507.974135020942
 20
4026.934871647817
 30
0.0
 10
-4508.090125365039
 20
4026.856513943212
 30
0.0
 10
-4508.210862858936
 20
4026.790013523784
 30
0.0
 10
-4508.337431244126
 20
4026.736331403146
 30
0.0
 10
-4508.468892296549
 20
4026.694510427034
 30
0.0
 10
-4508.605320554295
 20
4026.664524937121
 30
0.0
 10
-4508.746720741408
 20
4026.644961279771
 30
0.0
 10
-4508.842836439635
 20
4026.643065782321
 30
0.0
 10
-4508.89167782837
 20
4026.642102581412
 30
0.0
  0
SPLINE
  5
D4
330
1F
100
AcDbEntity
  8
0
  6
Continuous
 62
     7
370
    25
100
AcDbSpline
210
0.0
220
0.0
230
1.0
 70
     8
 71
     3
 72
    15
 73
    11
 74
     0
 42
0.000000001
 43
0.00000001
 40
0.0
 40
0.0
 40
0.0
 40
0.0
 40
0.1222745217376081
 40
0.2336168933972603
 40
0.3380530932832524
 40
0.444557537512071
 40
0.5596238896565459
 40
0.687751765679255
 40
0.8337107774006064
 40
1.0
 40
1.0
 40
1.0
 40
1.0
 10
-4502.112602659451
 20
4026.171768966548
 30
0.0
 10
-4502.113603748941
 20
4026.150351465674
 30
0.0
 10
-4502.115516423907
 20
4026.109431330004
 30
0.0
 10
-4502.133091916385
 20
4026.05222567796
 30
0.0
 10
-4502.163187153918
 20
4026.003838063948
 30
0.0
 10
-4502.205407450116
 20
4025.964676463256
 30
0.0
 10
-4502.258957456123
 20
4025.934090747576
 30
0.0
 10
-4502.324339243209
 20
4025.913990217315
 30
0.0
 10
-4502.400506193252
 20
4025.901300959608
 30
0.0
 10
-4502.455132690561
 20
4025.899707788641
 30
0.0
 10
-4502.484224281073
 20
4025.898859338169
 30
0.0
  0
SPLINE
  5
D5
330
1F
100
AcDbEntity
  8
0
  6
Continuous
 62
     7
370
    25
100
AcDbSpline
210
0.0
220
0.0
230
1.0
 70
     8
 71
     3
 72
    15
 73
    11
 74
     0
 42
0.000000001
 43
0.00000001
 40
0.0
 40
0.0
 40
0.0
 40
0.0
 40
0.1542014472171842
 40
0.2899900261851697
 40
0.4118969741102581
 40
0.5228469369192119
 40
0.6318838259152624
 40
0.7442764785201395
 40
0.863703888754939
 40
1.0
 40
1.0
 40
1.0
 40
1.0
 10
-4502.484224281073
 20
4025.898859338169
 30
0.0
 10
-4502.50748006726
 20
4025.899883351791
 30
0.0
 10
-4502.551214715456
 20
4025.901809103736
 30
0.0
 10
-4502.612891091135
 20
4025.912447315576
 30
0.0
 10
-4502.664598754346
 20
4025.933879953482
 30
0.0
 10
-4502.708558840209
 20
4025.961817024586
 30
0.0
 10
-4502.741746870373
 20
4026.000379862251
 30
0.0
 10
-4502.765004083694
 20
4026.046685721261
 30
0.0
 10
-4502.779423206633
 20
4026.100860442492
 30
0.0
 10
-4502.780792023308
 20
4026.139540176948
 30
0.0
 10
-4502.78152157837
 20
4026.160155790872
 30
0.0
  0
SPLINE
  5
D8
330
1F
100
AcDbEntity
  8
0
  6
Continuous
 62
     7
370
    25
100
AcDbSpline
210
0.0
220
0.0
230
1.0
 70
     8
 71
     3
 72
    15
 73
    11
 74
     0
 42
0.000000001
 43
0.00000001
 40
0.0
 40
0.0
 40
0.0
 40
0.0
 40
0.1522952383007615
 40
0.2861398218421599
 40
0.4061915377388018
 40
0.51696210323515
 40
0.6264680543757738
 40
0.7381925282498024
 40
0.8631175610742222
 40
1.0
 40
1.0
 40
1.0
 40
1.0
 10
-4505.537328166209
 20
4026.642102581412
 30
0.0
 10
-4505.560206913222
 20
4026.643112702405
 30
0.0
 10
-4505.603192634031
 20
4026.645010567655
 30
0.0
 10
-4505.663619434562
 20
4026.655797220224
 30
0.0
 10
-4505.714777030188
 20
4026.676838740545
 30
0.0
 10
-4505.756692059735
 20
4026.706779998967
 30
0.0
 10
-4505.790477324202
 20
4026.744371188772
 30
0.0
 10
-4505.812427403743
 20
4026.792121552291
 30
0.0
 10
-4505.826535134284
 20
4026.846839560139
 30
0.0
 10
-4505.82803479741
 20
4026.886268242213
 30
0.0
 10
-4505.828818875668
 20
4026.906882986818
 30
0.0
  0
SPLINE
  5
D9
330
1F
100
AcDbEntity
  8
0
  6
Continuous
 62
     7
370
    25
100
AcDbSpline
210
0.0
220
0.0
230
1.0
 70
     8
 71
     3
 72
    15
 73
    11
 74
     0
 42
0.000000001
 43
0.00000001
 40
0.0
 40
0.0
 40
0.0
 40
0.0
 40
0.1354286630936352
 40
0.259026915105538
 40
0.3707042516397965
 40
0.4790471821147449
 40
0.5907245186490434
 40
0.7118555973607575
 40
0.8467799583350826
 40
1.0
 40
1.0
 40
1.0
 40
1.0
 10
-4505.828818875668
 20
4031.877322176008
 30
0.0
 10
-4505.827997235865
 20
4031.897917293775
 30
0.0
 10
-4505.826425730851
 20
4031.937308436681
 30
0.0
 10
-4505.812761638342
 20
4031.992449691739
 30
0.0
 10
-4505.789064832646
 20
4032.039492581805
 30
0.0
 10
-4505.755520073048
 20
4032.07785952625
 30
0.0
 10
-4505.712305220832
 20
4032.107303830428
 30
0.0
 10
-4505.660124339743
 20
4032.128419917502
 30
0.0
 10
-4505.598531396186
 20
4032.139181471382
 30
0.0
 10
-4505.554784093532
 20
4032.141088515585
 30
0.0
 10
-4505.53152157837
 20
4032.142102581413
 30
0.0
  0
SPLINE
  5
DA
330
1F
100
AcDbEntity
  8
0
  6
Continuous
 62
     7
370
    25
100
AcDbSpline
210
0.0
220
0.0
230
1.0
 70
     8
 71
     3
 72
    15
 73
    11
 74
     0
 42
0.000000001
 43
0.00000001
 40
0.0
 40
0.0
 40
0.0
 40
0.0
 40
0.1687372826955666
 40
0.3164867953630874
 40
0.4465009315750949
 40
0.5610794434177645
 40
0.66762313218724
 40
0.7716984773789048
 40
0.8803995195839814
 40
1.0
 40
1.0
 40
1.0
 40
1.0
 10
-4505.53152157837
 20
4032.142102581413
 30
0.0
 10
-4505.502467195354
 20
4032.141074739491
 30
0.0
 10
-4505.447972252535
 20
4032.139146900008
 30
0.0
 10
-4505.371409838572
 20
4032.128675950999
 30
0.0
 10
-4505.306971685693
 20
4032.107414527869
 30
0.0
 10
-4505.252492504515
 20
4032.080065474296
 30
0.0
 10
-4505.21057956708
 20
4032.041750576242
 30
0.0
 10
-4505.180668160965
 20
4031.994926353433
 30
0.0
 10
-4505.162754289809
 20
4031.9397275324
 30
0.0
 10
-4505.160881208947
 20
4031.900299829695
 30
0.0
 10
-4505.159899956748
 20
4031.879644811143
 30
0.0
  0
SPLINE
  5
DE
330
1F
100
AcDbEntity
  8
0
  6
Continuous
 62
     7
370
    25
100
AcDbSpline
210
0.0
220
0.0
230
1.0
 70
     8
 71
     3
 72
    15
 73
    11
 74
     0
 42
0.000000001
 43
0.00000001
 40
0.0
 40
0.0
 40
0.0
 40
0.0
 40
0.1359589957907077
 40
0.2575644184869302
 40
0.3696790785664136
 40
0.4784462751989422
 40
0.589121813838469
 40
0.7107272365347242
 40
0.8461799553809768
 40
1.0
 40
1.0
 40
1.0
 40
1.0
 10
-4503.227467524316
 20
4031.879644811143
 30
0.0
 10
-4503.226690018102
 20
4031.900248590061
 30
0.0
 10
-4503.225217089188
 20
4031.93928094908
 30
0.0
 10
-4503.21118993825
 20
4031.99395659352
 30
0.0
 10
-4503.187675143795
 20
4032.040577748606
 30
0.0
 10
-4503.154509536036
 20
4032.079146053063
 30
0.0
 10
-4503.110543282282
 20
4032.107081620377
 30
0.0
 10
-4503.058837478487
 20
4032.128514711625
 30
0.0
 10
-4502.997160527817
 20
4032.139152783277
 30
0.0
 10
-4502.953425966833
 20
4032.141078556485
 30
0.0
 10
-4502.93017022702
 20
4032.142102581413
 30
0.0
  0
SPLINE
  5
DF
330
1F
100
AcDbEntity
  8
0
  6
Continuous
 62
     7
370
    25
100
AcDbSpline
210
0.0
220
0.0
230
1.0
 70
     8
 71
     3
 72
    15
 73
    11
 74
     0
 42
0.000000001
 43
0.00000001
 40
0.0
 40
0.0
 40
0.0
 40
0.0
 40
0.1687372826955592
 40
0.3164867953630736
 40
0.4465009315750754
 40
0.56107944341774
 40
0.6676231321872743
 40
0.7716984773788881
 40
0.8803995195839867
 40
1.0
 40
1.0
 40
1.0
 40
1.0
 10
-4502.93017022702
 20
4032.142102581413
 30
0.0
 10
-4502.901115844003
 20
4032.141074739491
 30
0.0
 10
-4502.846620901184
 20
4032.139146900008
 30
0.0
 10
-4502.77005848722
 20
4032.128675950999
 30
0.0
 10
-4502.705620334343
 20
4032.107414527869
 30
0.0
 10
-4502.651141153163
 20
4032.080065474296
 30
0.0
 10
-4502.609228215728
 20
4032.041750576242
 30
0.0
 10
-4502.579316809613
 20
4031.994926353433
 30
0.0
 10
-4502.561402938458
 20
4031.9397275324
 30
0.0
 10
-4502.559529857595
 20
4031.900299829695
 30
0.0
 10
-4502.558548605397
 20
4031.879644811143
 30
0.0
  0
SPLINE
  5
E2
330
1F
100
AcDbEntity
  8
0
  6
Continuous
 62
     7
370
    25
100
AcDbSpline
210
0.0
220
0.0
230
1.0
 70
     8
 71
     3
 72
    15
 73
    11
 74
     0
 42
0.000000001
 43
0.00000001
 40
0.0
 40
0.0
 40
0.0
 40
0.0
 40
0.1656092688917118
 40
0.3131459933551942
 40
0.440749956745395
 40
0.5572602504432778
 40
0.6633291998720141
 40
0.7673383619727459
 40
0.8782254566321333
 40
1.0
 40
1.0
 40
1.0
 40
1.0
 10
-4502.486546916209
 20
4027.236697176007
 30
0.0
 10
-4502.45746469568
 20
4027.235809212287
 30
0.0
 10
-4502.402473927971
 20
4027.234130186207
 30
0.0
 10
-4502.325818955469
 20
4027.221796002609
 30
0.0
 10
-4502.259925441172
 20
4027.20112887966
 30
0.0
 10
-4502.205574583835
 20
4027.171258618493
 30
0.0
 10
-4502.163207689579
 20
4027.131681391602
 30
0.0
 10
-4502.133086100141
 20
4027.083341332203
 30
0.0
 10
-4502.115518088255
 20
4027.026122180695
 30
0.0
 10
-4502.113604320765
 20
4026.98520401659
 30
0.0
 10
-4502.112602659451
 20
4026.963787547629
 30
0.0
  0
SPLINE
  5
E5
330
1F
100
AcDbEntity
  8
0
  6
Continuous
 62
     7
370
    25
100
AcDbSpline
210
0.0
220
0.0
230
1.0
 70
     8
 71
     3
 72
    15
 73
    11
 74
     0
 42
0.000000001
 43
0.00000001
 40
0.0
 40
0.0
 40
0.0
 40
0.0
 40
0.1210437057282784
 40
0.2311608615819679
 40
0.3345582471448255
 40
0.4404078971910693
 40
0.5564076305372024
 40
0.6855748386379621
 40
0.8323618927656111
 40
1.0
 40
1.0
 40
1.0
 40
1.0
 10
-4499.838278335127
 20
4026.909205621954
 30
0.0
 10
-4499.839276550069
 20
4026.888171256959
 30
0.0
 10
-4499.841182871633
 20
4026.848001287725
 30
0.0
 10
-4499.858784420556
 20
4026.791932288378
 30
0.0
 10
-4499.888895804545
 20
4026.744631662646
 30
0.0
 10
-4499.931485194369
 20
4026.706812468788
 30
0.0
 10
-4499.984591523907
 20
4026.676188074413
 30
0.0
 10
-4500.049916252507
 20
4026.655759815095
 30
0.0
 10
-4500.126311327403
 20
4026.644987473749
 30
0.0
 10
-4500.180831905887
 20
4026.643105806347
 30
0.0
 10
-4500.209899956749
 20
4026.642102581412
 30
0.0
  0
SPLINE
  5
E6
330
1F
100
AcDbEntity
  8
0
  6
Continuous
 62
     7
370
    25
100
AcDbSpline
210
0.0
220
0.0
230
1.0
 70
     8
 71
     3
 72
    15
 73
    11
 74
     0
 42
0.000000001
 43
0.00000001
 40
0.0
 40
0.0
 40
0.0
 40
0.0
 40
0.1526075283706857
 40
0.2869925149660817
 40
0.4076393594010697
 40
0.5203370983718765
 40
0.6282469165428702
 40
0.7394778111329698
 40
0.8625819660823836
 40
1.0
 40
1.0
 40
1.0
 40
1.0
 10
-4500.209899956749
 20
4026.642102581412
 30
0.0
 10
-4500.233169231597
 20
4026.643107171661
 30
0.0
 10
-4500.276929246464
 20
4026.644996396161
 30
0.0
 10
-4500.338438377114
 20
4026.655875437142
 30
0.0
 10
-4500.391101423705
 20
4026.676693145146
 30
0.0
 10
-4500.433548509801
 20
4026.707618657226
 30
0.0
 10
-4500.467497730789
 20
4026.745797492727
 30
0.0
 10
-4500.491123394401
 20
4026.792939690829
 30
0.0
 10
-4500.504903530295
 20
4026.84842977254
 30
0.0
 10
-4500.506405177774
 20
4026.888218304618
 30
0.0
 10
-4500.507197254045
 20
4026.909205621954
 30
0.0
  0
SPLINE
  5
E8
330
1F
100
AcDbEntity
  8
0
  6
Continuous
 62
     7
370
    25
100
AcDbSpline
210
0.0
220
0.0
230
1.0
 70
     8
 71
     3
 72
    15
 73
    11
 74
     0
 42
0.000000001
 43
0.00000001
 40
0.0
 40
0.0
 40
0.0
 40
0.0
 40
0.1373554302530914
 40
0.2604035025253534
 40
0.3715837235509629
 40
0.4813661282244319
 40
0.5925463492499397
 40
0.7131382304871602
 40
0.8474619951862868
 40
1.0
 40
1.0
 40
1.0
 40
1.0
 10
-4500.507197254045
 20
4031.909839067899
 30
0.0
 10
-4500.506396388172
 20
4031.930817970021
 30
0.0
 10
-4500.50487807704
 20
4031.970590548225
 30
0.0
 10
-4500.491209401999
 20
4032.026187343175
 30
0.0
 10
-4500.46707754318
 20
4032.073236805347
 30
0.0
 10
-4500.434339876048
 20
4032.11269939323
 30
0.0
 10
-4500.390625771506
 20
4032.142094327687
 30
0.0
 10
-4500.338520627097
 20
4032.163274628825
 30
0.0
 10
-4500.276904354665
 20
4032.174016403096
 30
0.0
 10
-4500.233160590388
 20
4032.175926447345
 30
0.0
 10
-4500.209899956749
 20
4032.17694210844
 30
0.0
  0
SPLINE
  5
E9
330
1F
100
AcDbEntity
  8
0
  6
Continuous
 62
     7
370
    25
100
AcDbSpline
210
0.0
220
0.0
230
1.0
 70
     8
 71
     3
 72
    15
 73
    11
 74
     0
 42
0.000000001
 43
0.00000001
 40
0.0
 40
0.0
 40
0.0
 40
0.0
 40
0.1675680039011606
 40
0.3142936742423971
 40
0.4434068668691035
 40
0.5582581848719401
 40
0.665581659280261
 40
0.7689358058595213
 40
0.8790069126387375
 40
1.0
 40
1.0
 40
1.0
 40
1.0
 10
-4500.209899956749
 20
4032.17694210844
 30
0.0
 10
-4500.180841110638
 20
4032.175924321758
 30
0.0
 10
-4500.126337796755
 20
4032.174015342067
 30
0.0
 10
-4500.049830025648
 20
4032.16342128409
 30
0.0
 10
-4499.985043435721
 20
4032.142489171612
 30
0.0
 10
-4499.930721495688
 20
4032.113668269443
 30
0.0
 10
-4499.889299859641
 20
4032.07432997788
 30
0.0
 10
-4499.858711194595
 20
4032.02719885553
 30
0.0
 10
-4499.841203839782
 20
4031.971018646134
 30
0.0
 10
-4499.839283756287
 20
4031.930864924892
 30
0.0
 10
-4499.838278335127
 20
4031.909839067899
 30
0.0
  0
SPLINE
  5
EB
330
1F
100
AcDbEntity
  8
0
  6
Continuous
 62
     7
370
    25
100
AcDbSpline
210
0.0
220
0.0
230
1.0
 70
     8
 71
     3
 72
    15
 73
    11
 74
     0
 42
0.000000001
 43
0.00000001
 40
0.0
 40
0.0
 40
0.0
 40
0.0
 40
0.1678628092162607
 40
0.3148466165912458
 40
0.4441869603121333
 40
0.559240338244146
 40
0.6652318690747954
 40
0.7706563435097218
 40
0.8787940473875319
 40
1.0
 40
1.0
 40
1.0
 40
1.0
 10
-4500.209899956749
 20
4033.331291770602
 30
0.0
 10
-4500.180838181594
 20
4033.330276803987
 30
0.0
 10
-4500.126329373939
 20
4033.32837311367
 30
0.0
 10
-4500.049857463906
 20
4033.31774452885
 30
0.0
 10
-4499.984957989929
 20
4033.296921100504
 30
0.0
 10
-4499.93122821397
 20
4033.267880633269
 30
0.0
 10
-4499.888498842224
 20
4033.229739763037
 30
0.0
 10
-4499.859381505056
 20
4033.18194902569
 30
0.0
 10
-4499.840945091485
 20
4033.126267271191
 30
0.0
 10
-4499.839200392195
 20
4033.086412772906
 30
0.0
 10
-4499.838278335127
 20
4033.065350047629
 30
0.0
  0
SPLINE
  5
EC
330
1F
100
AcDbEntity
  8
0
  6
Continuous
 62
     7
370
    25
100
AcDbSpline
210
0.0
220
0.0
230
1.0
 70
     8
 71
     3
 72
    15
 73
    11
 74
     0
 42
0.000000001
 43
0.00000001
 40
0.0
 40
0.0
 40
0.0
 40
0.0
 40
0.1517345703399349
 40
0.2858502498747125
 40
0.4058069603899738
 40
0.5164015829446292
 40
0.6256057515998161
 40
0.7384515324842871
 40
0.8608514970058532
 40
1.0
 40
1.0
 40
1.0
 40
1.0
 10
-4500.209899956749
 20
4032.794763054386
 30
0.0
 10
-4500.233191822115
 20
4032.795626093512
 30
0.0
 10
-4500.277070982416
 20
4032.797251958662
 30
0.0
 10
-4500.338373729982
 20
4032.809919749716
 30
0.0
 10
-4500.39065381894
 20
4032.830683745678
 30
0.0
 10
-4500.434297200924
 20
4032.860207242416
 30
0.0
 10
-4500.467445517405
 20
4032.899821399702
 30
0.0
 10
-4500.490913354291
 20
4032.947609190613
 30
0.0
 10
-4500.505035266411
 20
4033.003784052233
 30
0.0
 10
-4500.506446468877
 20
4033.043970260096
 30
0.0
 10
-4500.507197254045
 20
4033.065350047629
 30
0.0
  0
SPLINE
  5
ED
330
1F
100
AcDbEntity
  8
0
  6
Continuous
 62
     7
370
    25
100
AcDbSpline
210
0.0
220
0.0
230
1.0
 70
     8
 71
     3
 72
    15
 73
    11
 74
     0
 42
0.000000001
 43
0.00000001
 40
0.0
 40
0.0
 40
0.0
 40
0.0
 40
0.1376465333874869
 40
0.2584939900653772
 40
0.3721777144533489
 40
0.4802669656692492
 40
0.5916828156085269
 40
0.7125302722863844
 40
0.8471387149837212
 40
1.0
 40
1.0
 40
1.0
 40
1.0
 10
-4500.507197254045
 20
4033.065350047629
 30
0.0
 10
-4500.506472016039
 20
4033.086357089835
 30
0.0
 10
-4500.505110051728
 20
4033.125807368934
 30
0.0
 10
-4500.490609346947
 20
4033.181033599063
 30
0.0
 10
-4500.467829079927
 20
4033.228491163675
 30
0.0
 10
-4500.433856269347
 20
4033.267029154998
 30
0.0
 10
-4500.390696078426
 20
4033.29649880641
 30
0.0
 10
-4500.338498853364
 20
4033.317607314547
 30
0.0
 10
-4500.276910944179
 20
4033.328371202939
 30
0.0
 10
-4500.233162877943
 20
4033.330277893057
 30
0.0
 10
-4500.209899956749
 20
4033.331291770602
 30
0.0
  0
SPLINE
  5
EE
330
1F
100
AcDbEntity
  8
0
  6
Continuous
 62
     7
370
    25
100
AcDbSpline
210
0.0
220
0.0
230
1.0
 70
     8
 71
     3
 72
    15
 73
    11
 74
     0
 42
0.000000001
 43
0.00000001
 40
0.0
 40
0.0
 40
0.0
 40
0.0
 40
0.1226673979138323
 40
0.2322494730060125
 40
0.3370212333529701
 40
0.4438678834493474
 40
0.5582089319051596
 40
0.6867484913209682
 40
0.8331764790611613
 40
1.0
 40
1.0
 40
1.0
 40
1.0
 10
-4499.838278335127
 20
4033.065350047629
 30
0.0
 10
-4499.839226369202
 20
4033.043918660828
 30
0.0
 10
-4499.841021307531
 20
4033.003342041653
 30
0.0
 10
-4499.859036232883
 20
4032.946654175739
 30
0.0
 10
-4499.888884374232
 20
4032.898651065412
 30
0.0
 10
-4499.93077521666
 20
4032.859248181822
 30
0.0
 10
-4499.985014925026
 20
4032.830289231444
 30
0.0
 10
-4500.049951029627
 20
4032.80978086094
 30
0.0
 10
-4500.126201444369
 20
4032.797239320865
 30
0.0
 10
-4500.180815168599
 20
4032.795623543825
 30
0.0
 10
-4500.209899956749
 20
4032.794763054386
 30
0.0
  0
CIRCLE
  5
EF
330
1F
100
AcDbEntity
  8
0
  6
Continuous
 62
     7
370
    25
100
AcDbCircle
 10
-4508.3870904002
 20
4035.39515402
 30
0.0
 40
0.7499999999995453
  0
CIRCLE
  5
F0
330
1F
100
AcDbEntity
  8
0
  6
Continuous
 62
     7
370
    25
100
AcDbCircle
 10
-4508.3870904002
 20
4035.39515402
 30
0.0
 40
1.5
  0
LINE
  5
171
330
1F
100
AcDbEntity
  8
0
  6
Continuous
 62
     7
370
    25
100
AcDbLine
 10
-4530.6849633013
 20
4029.5407512301
 30
0.0
 11
-4529.5085486054
 21
4029.5407512301
 31
0.0
  0
LINE
  5
172
330
1F
100
AcDbEntity
  8
0
  6
Continuous
 62
     7
370
    25
100
AcDbLine
 10
-4529.5085486054
 20
4029.5407512301
 30
0.0
 11
-4529.5085486054
 21
4031.8819674463
 31
0.0
  0
LINE
  5
173
330
1F
100
AcDbEntity
  8
0
  6
Continuous
 62
     7
370
    25
100
AcDbLine
 10
-4528.8396296865
 20
4031.8761608584
 30
0.0
 11
-4528.8396296865
 21
4026.9080443044
 31
0.0
  0
LINE
  5
174
330
1F
100
AcDbEntity
  8
0
  6
Continuous
 62
     7
370
    25
100
AcDbLine
 10
-4529.5085486054
 20
4026.9080443044
 30
0.0
 11
-4529.5085486054
 21
4028.9461566355
 31
0.0
  0
LINE
  5
175
330
1F
100
AcDbEntity
  8
0
  6
Continuous
 62
     7
370
    25
100
AcDbLine
 10
-4529.5085486054
 20
4028.9461566355
 30
0.0
 11
-4530.7000604297
 21
4028.9461566355
 31
0.0
  0
LINE
  5
176
330
1F
100
AcDbEntity
  8
0
  6
Continuous
 62
     7
370
    25
100
AcDbLine
 10
-4532.0355756324
 20
4030.1608948111
 30
0.0
 11
-4532.0355756324
 21
4031.877322176
 31
0.0
  0
LINE
  5
177
330
1F
100
AcDbEntity
  8
0
  6
Continuous
 62
     7
370
    25
100
AcDbLine
 10
-4531.3666567135
 20
4031.8819674463
 30
0.0
 11
-4531.3666567135
 21
4030.2073475138
 31
0.0
  0
LINE
  5
178
330
1F
100
AcDbEntity
  8
0
  6
Continuous
 62
     7
370
    25
100
AcDbLine
 10
-4526.4909810378
 20
4029.3177782571
 30
0.0
 11
-4526.4909810378
 21
4027.236697176
 31
0.0
  0
LINE
  5
179
330
1F
100
AcDbEntity
  8
0
  6
Continuous
 62
     7
370
    25
100
AcDbLine
 10
-4526.4909810378
 20
4027.236697176
 30
0.0
 11
-4524.6955840784
 21
4027.236697176
 31
0.0
  0
LINE
  5
17A
330
1F
100
AcDbEntity
  8
0
  6
Continuous
 62
     7
370
    25
100
AcDbLine
 10
-4524.6955840784
 20
4026.6421025814
 30
0.0
 11
-4526.8626026595
 21
4026.6421025814
 31
0.0
  0
LINE
  5
17B
330
1F
100
AcDbEntity
  8
0
  6
Continuous
 62
     7
370
    25
100
AcDbLine
 10
-4527.1598999567
 20
4026.9080443044
 30
0.0
 11
-4527.1598999567
 21
4031.8761608584
 31
0.0
  0
LINE
  5
17C
330
1F
100
AcDbEntity
  8
0
  6
Continuous
 62
     7
370
    25
100
AcDbLine
 10
-4526.8626026595
 20
4032.1421025814
 30
0.0
 11
-4524.6955840784
 21
4032.1421025814
 31
0.0
  0
LINE
  5
17D
330
1F
100
AcDbEntity
  8
0
  6
Continuous
 62
     7
370
    25
100
AcDbLine
 10
-4524.6955840784
 20
4031.5475079868
 30
0.0
 11
-4526.4909810378
 21
4031.5475079868
 31
0.0
  0
LINE
  5
17E
330
1F
100
AcDbEntity
  8
0
  6
Continuous
 62
     7
370
    25
100
AcDbLine
 10
-4526.4909810378
 20
4031.5475079868
 30
0.0
 11
-4526.4909810378
 21
4029.9123728517
 31
0.0
  0
LINE
  5
17F
330
1F
100
AcDbEntity
  8
0
  6
Continuous
 62
     7
370
    25
100
AcDbLine
 10
-4526.4909810378
 20
4029.9123728517
 30
0.0
 11
-4525.5596043486
 21
4029.9123728517
 31
0.0
  0
LINE
  5
180
330
1F
100
AcDbEntity
  8
0
  6
Continuous
 62
     7
370
    25
100
AcDbLine
 10
-4525.5596043486
 20
4029.3177782571
 30
0.0
 11
-4526.4909810378
 21
4029.3177782571
 31
0.0
  0
LINE
  5
181
330
1F
100
AcDbEntity
  8
0
  6
Continuous
 62
     7
370
    25
100
AcDbLine
 10
-4520.2031432
 20
4030.1806372098
 30
0.0
 11
-4520.2031432
 21
4030.9041380544
 31
0.0
  0
LINE
  5
182
330
1F
100
AcDbEntity
  8
0
  6
Continuous
 62
     7
370
    25
100
AcDbLine
 10
-4520.9638062067
 20
4031.5475079868
 30
0.0
 11
-4522.0612513081
 21
4031.5475079868
 31
0.0
  0
LINE
  5
183
330
1F
100
AcDbEntity
  8
0
  6
Continuous
 62
     7
370
    25
100
AcDbLine
 10
-4522.0612513081
 20
4031.5475079868
 30
0.0
 11
-4522.0612513081
 21
4029.5407512301
 31
0.0
  0
LINE
  5
184
330
1F
100
AcDbEntity
  8
0
  6
Continuous
 62
     7
370
    25
100
AcDbLine
 10
-4522.0612513081
 20
4029.5407512301
 30
0.0
 11
-4520.9638062067
 21
4029.5407512301
 31
0.0
  0
LINE
  5
185
330
1F
100
AcDbEntity
  8
0
  6
Continuous
 62
     7
370
    25
100
AcDbLine
 10
-4522.0612513081
 20
4028.9461566355
 30
0.0
 11
-4522.0612513081
 21
4026.9080443044
 31
0.0
  0
LINE
  5
186
330
1F
100
AcDbEntity
  8
0
  6
Continuous
 62
     7
370
    25
100
AcDbLine
 10
-4522.730170227
 20
4026.9080443044
 30
0.0
 11
-4522.730170227
 21
4031.8761608584
 31
0.0
  0
LINE
  5
187
330
1F
100
AcDbEntity
  8
0
  6
Continuous
 62
     7
370
    25
100
AcDbLine
 10
-4522.4433247878
 20
4032.1421025814
 30
0.0
 11
-4520.9591609365
 21
4032.1421025814
 31
0.0
  0
LINE
  5
188
330
1F
100
AcDbEntity
  8
0
  6
Continuous
 62
     7
370
    25
100
AcDbLine
 10
-4519.5342242811
 20
4030.9262030882
 30
0.0
 11
-4519.5342242811
 21
4030.158572176
 31
0.0
  0
LINE
  5
189
330
1F
100
AcDbEntity
  8
0
  6
Continuous
 62
     7
370
    25
100
AcDbLine
 10
-4520.9487090784
 20
4028.9461566355
 30
0.0
 11
-4522.0612513081
 21
4028.9461566355
 31
0.0
  0
LINE
  5
18A
330
1F
100
AcDbEntity
  8
0
  6
Continuous
 62
     7
370
    25
100
AcDbLine
 10
-4515.3274675243
 20
4029.9123728517
 30
0.0
 11
-4515.3274675243
 21
4031.8819674463
 31
0.0
  0
LINE
  5
18B
330
1F
100
AcDbEntity
  8
0
  6
Continuous
 62
     7
370
    25
100
AcDbLine
 10
-4514.6585486054
 20
4031.8761608584
 30
0.0
 11
-4514.6585486054
 21
4026.9080443044
 31
0.0
  0
LINE
  5
18C
330
1F
100
AcDbEntity
  8
0
  6
Continuous
 62
     7
370
    25
100
AcDbLine
 10
-4515.3274675243
 20
4026.9080443044
 30
0.0
 11
-4515.3274675243
 21
4029.3177782571
 31
0.0
  0
LINE
  5
18D
330
1F
100
AcDbEntity
  8
0
  6
Continuous
 62
     7
370
    25
100
AcDbLine
 10
-4515.3274675243
 20
4029.3177782571
 30
0.0
 11
-4517.1855756324
 21
4029.3177782571
 31
0.0
  0
LINE
  5
18E
330
1F
100
AcDbEntity
  8
0
  6
Continuous
 62
     7
370
    25
100
AcDbLine
 10
-4517.1855756324
 20
4029.3177782571
 30
0.0
 11
-4517.1855756324
 21
4026.9080443044
 31
0.0
  0
LINE
  5
18F
330
1F
100
AcDbEntity
  8
0
  6
Continuous
 62
     7
370
    25
100
AcDbLine
 10
-4517.8544945513
 20
4026.9080443044
 30
0.0
 11
-4517.8544945513
 21
4031.8761608584
 31
0.0
  0
LINE
  5
190
330
1F
100
AcDbEntity
  8
0
  6
Continuous
 62
     7
370
    25
100
AcDbLine
 10
-4517.1855756324
 20
4031.8819674463
 30
0.0
 11
-4517.1855756324
 21
4029.9123728517
 31
0.0
  0
LINE
  5
191
330
1F
100
AcDbEntity
  8
0
  6
Continuous
 62
     7
370
    25
100
AcDbLine
 10
-4517.1855756324
 20
4029.9123728517
 30
0.0
 11
-4515.3274675243
 21
4029.9123728517
 31
0.0
  0
LINE
  5
192
330
1F
100
AcDbEntity
  8
0
  6
Continuous
 62
     7
370
    25
100
AcDbLine
 10
-4512.9788188757
 20
4026.909205622
 30
0.0
 11
-4512.9788188757
 21
4031.9098390679
 31
0.0
  0
LINE
  5
193
330
1F
100
AcDbEntity
  8
0
  6
Continuous
 62
     7
370
    25
100
AcDbLine
 10
-4512.3098999567
 20
4031.9098390679
 30
0.0
 11
-4512.3098999567
 21
4026.909205622
 31
0.0
  0
LINE
  5
194
330
1F
100
AcDbEntity
  8
0
  6
Continuous
 62
     7
370
    25
100
AcDbLine
 10
-4508.1031432
 20
4027.9067774125
 30
0.0
 11
-4508.1031432
 21
4028.6511819733
 31
0.0
  0
LINE
  5
195
330
1F
100
AcDbEntity
  8
0
  6
Continuous
 62
     7
370
    25
100
AcDbLine
 10
-4508.8940004635
 20
4029.3177782571
 30
0.0
 11
-4510.0355756324
 21
4029.3177782571
 31
0.0
  0
LINE
  5
196
330
1F
100
AcDbEntity
  8
0
  6
Continuous
 62
     7
370
    25
100
AcDbLine
 10
-4510.0355756324
 20
4029.3177782571
 30
0.0
 11
-4510.0355756324
 21
4027.236697176
 31
0.0
  0
LINE
  5
197
330
1F
100
AcDbEntity
  8
0
  6
Continuous
 62
     7
370
    25
100
AcDbLine
 10
-4510.0355756324
 20
4027.236697176
 30
0.0
 11
-4508.8940004635
 21
4027.236697176
 31
0.0
  0
LINE
  5
198
330
1F
100
AcDbEntity
  8
0
  6
Continuous
 62
     7
370
    25
100
AcDbLine
 10
-4508.326116173
 20
4030.553420149
 30
0.0
 11
-4508.326116173
 21
4030.9099446422
 31
0.0
  0
LINE
  5
199
330
1F
100
AcDbEntity
  8
0
  6
Continuous
 62
     7
370
    25
100
AcDbLine
 10
-4509.1111668486
 20
4031.5475079868
 30
0.0
 11
-4510.0355756324
 21
4031.5475079868
 31
0.0
  0
LINE
  5
19A
330
1F
100
AcDbEntity
  8
0
  6
Continuous
 62
     7
370
    25
100
AcDbLine
 10
-4510.0355756324
 20
4031.5475079868
 30
0.0
 11
-4510.0355756324
 21
4029.9123728517
 31
0.0
  0
LINE
  5
19B
330
1F
100
AcDbEntity
  8
0
  6
Continuous
 62
     7
370
    25
100
AcDbLine
 10
-4510.0355756324
 20
4029.9123728517
 30
0.0
 11
-4509.1111668486
 21
4029.9123728517
 31
0.0
  0
LINE
  5
19C
330
1F
100
AcDbEntity
  8
0
  6
Continuous
 62
     7
370
    25
100
AcDbLine
 10
-4510.7044945513
 20
4026.9080443044
 30
0.0
 11
-4510.7044945513
 21
4031.8761608584
 31
0.0
  0
LINE
  5
19D
330
1F
100
AcDbEntity
  8
0
  6
Continuous
 62
     7
370
    25
100
AcDbLine
 10
-4510.4130038419
 20
4032.1421025814
 30
0.0
 11
-4509.1088442135
 21
4032.1421025814
 31
0.0
  0
LINE
  5
19E
330
1F
100
AcDbEntity
  8
0
  6
Continuous
 62
     7
370
    25
100
AcDbLine
 10
-4507.657197254
 20
4030.9424615341
 30
0.0
 11
-4507.657197254
 21
4030.5685172774
 31
0.0
  0
LINE
  5
19F
330
1F
100
AcDbEntity
  8
0
  6
Continuous
 62
     7
370
    25
100
AcDbLine
 10
-4507.4342242811
 20
4028.6581498787
 30
0.0
 11
-4507.4342242811
 21
4027.881228426
 31
0.0
  0
LINE
  5
1A0
330
1F
100
AcDbEntity
  8
0
  6
Continuous
 62
     7
370
    25
100
AcDbLine
 10
-4508.8916778284
 20
4026.6421025814
 30
0.0
 11
-4510.4130038419
 21
4026.6421025814
 31
0.0
  0
LINE
  5
1A1
330
1F
100
AcDbEntity
  8
0
  6
Continuous
 62
     7
370
    25
100
AcDbLine
 10
-4502.7815215784
 20
4026.1601557909
 30
0.0
 11
-4502.7815215784
 21
4026.6421025814
 31
0.0
  0
LINE
  5
1A2
330
1F
100
AcDbEntity
  8
0
  6
Continuous
 62
     7
370
    25
100
AcDbLine
 10
-4502.7815215784
 20
4026.6421025814
 30
0.0
 11
-4505.5373281662
 21
4026.6421025814
 31
0.0
  0
LINE
  5
1A3
330
1F
100
AcDbEntity
  8
0
  6
Continuous
 62
     7
370
    25
100
AcDbLine
 10
-4505.1598999567
 20
4031.8796448111
 30
0.0
 11
-4505.1598999567
 21
4027.236697176
 31
0.0
  0
LINE
  5
1A4
330
1F
100
AcDbEntity
  8
0
  6
Continuous
 62
     7
370
    25
100
AcDbLine
 10
-4505.1598999567
 20
4027.236697176
 30
0.0
 11
-4503.2274675243
 21
4027.236697176
 31
0.0
  0
LINE
  5
1A5
330
1F
100
AcDbEntity
  8
0
  6
Continuous
 62
     7
370
    25
100
AcDbLine
 10
-4503.2274675243
 20
4027.236697176
 30
0.0
 11
-4503.2274675243
 21
4031.8796448111
 31
0.0
  0
LINE
  5
1A6
330
1F
100
AcDbEntity
  8
0
  6
Continuous
 62
     7
370
    25
100
AcDbLine
 10
-4502.5585486054
 20
4031.8796448111
 30
0.0
 11
-4502.5585486054
 21
4027.236697176
 31
0.0
  0
LINE
  5
1A7
330
1F
100
AcDbEntity
  8
0
  6
Continuous
 62
     7
370
    25
100
AcDbLine
 10
-4502.5585486054
 20
4027.236697176
 30
0.0
 11
-4502.4865469162
 21
4027.236697176
 31
0.0
  0
LINE
  5
1A8
330
1F
100
AcDbEntity
  8
0
  6
Continuous
 62
     7
370
    25
100
AcDbLine
 10
-4502.1126026595
 20
4026.9637875476
 30
0.0
 11
-4502.1126026595
 21
4026.1717689665
 31
0.0
  0
LINE
  5
1A9
330
1F
100
AcDbEntity
  8
0
  6
Continuous
 62
     7
370
    25
100
AcDbLine
 10
-4505.8288188757
 20
4026.9068829868
 30
0.0
 11
-4505.8288188757
 21
4031.877322176
 31
0.0
  0
LINE
  5
1AA
330
1F
100
AcDbEntity
  8
0
  6
Continuous
 62
     7
370
    25
100
AcDbLine
 10
-4500.507197254
 20
4026.909205622
 30
0.0
 11
-4500.507197254
 21
4031.9098390679
 31
0.0
  0
LINE
  5
1AB
330
1F
100
AcDbEntity
  8
0
  6
Continuous
 62
     7
370
    25
100
AcDbLine
 10
-4499.8382783351
 20
4031.9098390679
 30
0.0
 11
-4499.8382783351
 21
4026.909205622
 31
0.0
  0
LINE
  5
1AC
330
1F
100
AcDbEntity
  8
0
  6
Continuous
 62
     7
370
    25
100
AcDbLine
 10
-4543.2190692161
 20
4012.1670555037
 30
0.0
 11
-4541.0119362161
 21
4015.2480755037
 31
0.0
  0
LINE
  5
1AD
330
1F
100
AcDbEntity
  8
0
  6
Continuous
 62
     7
370
    25
100
AcDbLine
 10
-4541.0119362161
 20
4015.2480755037
 30
0.0
 11
-4541.2391392161
 21
4017.9759085037
 31
0.0
  0
LINE
  5
1AE
330
1F
100
AcDbEntity
  8
0
  6
Continuous
 62
     7
370
    25
100
AcDbLine
 10
-4541.2391392161
 20
4017.9759085037
 30
0.0
 11
-4542.0182842161
 21
4020.5361015037
 31
0.0
  0
LINE
  5
1AF
330
1F
100
AcDbEntity
  8
0
  6
Continuous
 62
     7
370
    25
100
AcDbLine
 10
-4542.0182842161
 20
4020.5361015037
 30
0.0
 11
-4542.6344882161
 21
4023.6857015037
 31
0.0
  0
LINE
  5
1B0
330
1F
100
AcDbEntity
  8
0
  6
Continuous
 62
     7
370
    25
100
AcDbLine
 10
-4542.6344882161
 20
4023.6857015037
 30
0.0
 11
-4540.8176262161
 21
4026.2484345037
 31
0.0
  0
LINE
  5
1B1
330
1F
100
AcDbEntity
  8
0
  6
Continuous
 62
     7
370
    25
100
AcDbLine
 10
-4540.8176262161
 20
4026.2484345037
 30
0.0
 11
-4539.6162062161
 21
4029.2342045037
 31
0.0
  0
LINE
  5
1B2
330
1F
100
AcDbEntity
  8
0
  6
Continuous
 62
     7
370
    25
100
AcDbLine
 10
-4539.6162062161
 20
4029.2342045037
 30
0.0
 11
-4538.2542582161
 21
4028.7145205037
 31
0.0
  0
LINE
  5
1B3
330
1F
100
AcDbEntity
  8
0
  6
Continuous
 62
     7
370
    25
100
AcDbLine
 10
-4538.2542582161
 20
4028.7145205037
 30
0.0
 11
-4536.4047572161
 21
4029.9799485037
 31
0.0
  0
LINE
  5
1B4
330
1F
100
AcDbEntity
  8
0
  6
Continuous
 62
     7
370
    25
100
AcDbLine
 10
-4536.4047572161
 20
4029.9799485037
 30
0.0
 11
-4536.4047572161
 21
4031.8617075037
 31
0.0
  0
LINE
  5
1B5
330
1F
100
AcDbEntity
  8
0
  6
Continuous
 62
     7
370
    25
100
AcDbLine
 10
-4536.4047572161
 20
4031.8617075037
 30
0.0
 11
-4535.6262472161
 21
4032.0242675037
 31
0.0
  0
LINE
  5
1B6
330
1F
100
AcDbEntity
  8
0
  6
Continuous
 62
     7
370
    25
100
AcDbLine
 10
-4535.6262472161
 20
4032.0242675037
 30
0.0
 11
-4535.0092812161
 21
4032.1221845037
 31
0.0
  0
LINE
  5
1B7
330
1F
100
AcDbEntity
  8
0
  6
Continuous
 62
     7
370
    25
100
AcDbLine
 10
-4535.0092812161
 20
4032.1221845037
 30
0.0
 11
-4535.2035912161
 21
4033.6468195037
 31
0.0
  0
LINE
  5
1B8
330
1F
100
AcDbEntity
  8
0
  6
Continuous
 62
     7
370
    25
100
AcDbLine
 10
-4535.2035912161
 20
4033.6468195037
 30
0.0
 11
-4533.9056512161
 21
4034.9122475037
 31
0.0
  0
LINE
  5
1B9
330
1F
100
AcDbEntity
  8
0
  6
Continuous
 62
     7
370
    25
100
AcDbLine
 10
-4533.9056512161
 20
4034.9122475037
 30
0.0
 11
-4532.4784252161
 21
4034.8474775037
 31
0.0
  0
LINE
  5
1BA
330
1F
100
AcDbEntity
  8
0
  6
Continuous
 62
     7
370
    25
100
AcDbLine
 10
-4532.4784252161
 20
4034.8474775037
 30
0.0
 11
-4531.6018712161
 21
4037.0530865037
 31
0.0
  0
LINE
  5
1BB
330
1F
100
AcDbEntity
  8
0
  6
Continuous
 62
     7
370
    25
100
AcDbLine
 10
-4531.6018712161
 20
4037.0530865037
 30
0.0
 11
-4529.8176482161
 21
4038.6742415037
 31
0.0
  0
LINE
  5
1BC
330
1F
100
AcDbEntity
  8
0
  6
Continuous
 62
     7
370
    25
100
AcDbLine
 10
-4529.8176482161
 20
4038.6742415037
 30
0.0
 11
-4527.5145032161
 21
4040.3945835037
 31
0.0
  0
LINE
  5
1BD
330
1F
100
AcDbEntity
  8
0
  6
Continuous
 62
     7
370
    25
100
AcDbLine
 10
-4527.5145032161
 20
4040.3945835037
 30
0.0
 11
-4525.2102152161
 21
4041.0768275037
 31
0.0
  0
LINE
  5
1BE
330
1F
100
AcDbEntity
  8
0
  6
Continuous
 62
     7
370
    25
100
AcDbLine
 10
-4525.2102152161
 20
4041.0768275037
 30
0.0
 11
-4522.9068162161
 21
4041.3360345037
 31
0.0
  0
LINE
  5
1BF
330
1F
100
AcDbEntity
  8
0
  6
Continuous
 62
     7
370
    25
100
AcDbLine
 10
-4522.9068162161
 20
4041.3360345037
 30
0.0
 11
-4521.4465702161
 21
4040.7198305037
 31
0.0
  0
LINE
  5
1C0
330
1F
100
AcDbEntity
  8
0
  6
Continuous
 62
     7
370
    25
100
AcDbLine
 10
-4521.4465702161
 20
4040.7198305037
 30
0.0
 11
-4519.6622202161
 21
4040.5585405037
 31
0.0
  0
LINE
  5
1C1
330
1F
100
AcDbEntity
  8
0
  6
Continuous
 62
     7
370
    25
100
AcDbLine
 10
-4519.6622202161
 20
4040.5585405037
 30
0.0
 11
-4518.2992562161
 21
4040.0388565037
 31
0.0
  0
LINE
  5
1C2
330
1F
100
AcDbEntity
  8
0
  6
Continuous
 62
     7
370
    25
100
AcDbLine
 10
-4518.2992562161
 20
4040.0388565037
 30
0.0
 11
-4518.5588442161
 21
4042.2776125037
 31
0.0
  0
LINE
  5
1C3
330
1F
100
AcDbEntity
  8
0
  6
Continuous
 62
     7
370
    25
100
AcDbLine
 10
-4518.5588442161
 20
4042.2776125037
 30
0.0
 11
-4518.7212772161
 21
4044.5810115037
 31
0.0
  0
LINE
  5
1C4
330
1F
100
AcDbEntity
  8
0
  6
Continuous
 62
     7
370
    25
100
AcDbLine
 10
-4518.7212772161
 20
4044.5810115037
 30
0.0
 11
-4518.2014662161
 21
4046.4296235037
 31
0.0
  0
LINE
  5
1C5
330
1F
100
AcDbEntity
  8
0
  6
Continuous
 62
     7
370
    25
100
AcDbLine
 10
-4518.2014662161
 20
4046.4296235037
 30
0.0
 11
-4518.6562532161
 21
4048.6683795037
 31
0.0
  0
LINE
  5
1C6
330
1F
100
AcDbEntity
  8
0
  6
Continuous
 62
     7
370
    25
100
AcDbLine
 10
-4518.6562532161
 20
4048.6683795037
 30
0.0
 11
-4519.1424092161
 21
4050.8752585037
 31
0.0
  0
LINE
  5
1C7
330
1F
100
AcDbEntity
  8
0
  6
Continuous
 62
     7
370
    25
100
AcDbLine
 10
-4519.1424092161
 20
4050.8752585037
 30
0.0
 11
-4519.2405802161
 21
4052.1738335037
 31
0.0
  0
LINE
  5
1C8
330
1F
100
AcDbEntity
  8
0
  6
Continuous
 62
     7
370
    25
100
AcDbLine
 10
-4519.2405802161
 20
4052.1738335037
 30
0.0
 11
-4517.0340822161
 21
4053.4392615037
 31
0.0
  0
LINE
  5
1C9
330
1F
100
AcDbEntity
  8
0
  6
Continuous
 62
     7
370
    25
100
AcDbLine
 10
-4517.0340822161
 20
4053.4392615037
 30
0.0
 11
-4514.2764042161
 21
4052.1738335037
 31
0.0
  0
LINE
  5
1CA
330
1F
100
AcDbEntity
  8
0
  6
Continuous
 62
     7
370
    25
100
AcDbLine
 10
-4514.2764042161
 20
4052.1738335037
 30
0.0
 11
-4512.7503722161
 21
4052.9195775037
 31
0.0
  0
LINE
  5
1CB
330
1F
100
AcDbEntity
  8
0
  6
Continuous
 62
     7
370
    25
100
AcDbLine
 10
-4512.7503722161
 20
4052.9195775037
 30
0.0
 11
-4511.3875352161
 21
4051.9793965037
 31
0.0
  0
LINE
  5
1CC
330
1F
100
AcDbEntity
  8
0
  6
Continuous
 62
     7
370
    25
100
AcDbLine
 10
-4511.3875352161
 20
4051.9793965037
 30
0.0
 11
-4510.7055452161
 21
4051.1357355037
 31
0.0
  0
LINE
  5
1CD
330
1F
100
AcDbEntity
  8
0
  6
Continuous
 62
     7
370
    25
100
AcDbLine
 10
-4510.7055452161
 20
4051.1357355037
 30
0.0
 11
-4510.3489292161
 21
4049.8690375037
 31
0.0
  0
LINE
  5
1CE
330
1F
100
AcDbEntity
  8
0
  6
Continuous
 62
     7
370
    25
100
AcDbLine
 10
-4510.3489292161
 20
4049.8690375037
 30
0.0
 11
-4508.2404752161
 21
4049.6746005037
 31
0.0
  0
LINE
  5
1CF
330
1F
100
AcDbEntity
  8
0
  6
Continuous
 62
     7
370
    25
100
AcDbLine
 10
-4508.2404752161
 20
4049.6746005037
 30
0.0
 11
-4506.9425352161
 21
4050.2920745037
 31
0.0
  0
LINE
  5
1D0
330
1F
100
AcDbEntity
  8
0
  6
Continuous
 62
     7
370
    25
100
AcDbLine
 10
-4506.9425352161
 20
4050.2920745037
 30
0.0
 11
-4506.3590972161
 21
4050.2920745037
 31
0.0
  0
LINE
  5
1D1
330
1F
100
AcDbEntity
  8
0
  6
Continuous
 62
     7
370
    25
100
AcDbLine
 10
-4506.3590972161
 20
4050.2920745037
 30
0.0
 11
-4505.2559752161
 21
4051.2322555037
 31
0.0
  0
LINE
  5
1D2
330
1F
100
AcDbEntity
  8
0
  6
Continuous
 62
     7
370
    25
100
AcDbLine
 10
-4505.2559752161
 20
4051.2322555037
 30
0.0
 11
-4504.4767032161
 21
4051.0709655037
 31
0.0
  0
LINE
  5
1D3
330
1F
100
AcDbEntity
  8
0
  6
Continuous
 62
     7
370
    25
100
AcDbLine
 10
-4504.4767032161
 20
4051.0709655037
 30
0.0
 11
-4504.0555712161
 21
4049.7725175037
 31
0.0
  0
LINE
  5
1D4
330
1F
100
AcDbEntity
  8
0
  6
Continuous
 62
     7
370
    25
100
AcDbLine
 10
-4504.0555712161
 20
4049.7725175037
 30
0.0
 11
-4503.9581622161
 21
4047.9874055037
 31
0.0
  0
LINE
  5
1D5
330
1F
100
AcDbEntity
  8
0
  6
Continuous
 62
     7
370
    25
100
AcDbLine
 10
-4503.9581622161
 20
4047.9874055037
 30
0.0
 11
-4503.1145012161
 21
4046.9493075037
 31
0.0
  0
LINE
  5
1D6
330
1F
100
AcDbEntity
  8
0
  6
Continuous
 62
     7
370
    25
100
AcDbLine
 10
-4503.1145012161
 20
4046.9493075037
 30
0.0
 11
-4502.1736852161
 21
4048.3126525037
 31
0.0
  0
LINE
  5
1D7
330
1F
100
AcDbEntity
  8
0
  6
Continuous
 62
     7
370
    25
100
AcDbLine
 10
-4502.1736852161
 20
4048.3126525037
 30
0.0
 11
-4501.6536202161
 21
4047.8907585037
 31
0.0
  0
LINE
  5
1D8
330
1F
100
AcDbEntity
  8
0
  6
Continuous
 62
     7
370
    25
100
AcDbLine
 10
-4501.6536202161
 20
4047.8907585037
 30
0.0
 11
-4500.9735352161
 21
4046.4296235037
 31
0.0
  0
LINE
  5
1D9
330
1F
100
AcDbEntity
  8
0
  6
Continuous
 62
     7
370
    25
100
AcDbLine
 10
-4500.9735352161
 20
4046.4296235037
 30
0.0
 11
-4499.6101902161
 21
4045.3268825037
 31
0.0
  0
LINE
  5
1DA
330
1F
100
AcDbEntity
  8
0
  6
Continuous
 62
     7
370
    25
100
AcDbLine
 10
-4499.6101902161
 20
4045.3268825037
 30
0.0
 11
-4498.0842852161
 21
4045.0676755037
 31
0.0
  0
LINE
  5
1DB
330
1F
100
AcDbEntity
  8
0
  6
Continuous
 62
     7
370
    25
100
AcDbLine
 10
-4498.0842852161
 20
4045.0676755037
 30
0.0
 11
-4496.7222102161
 21
4044.3854315037
 31
0.0
  0
LINE
  5
1DC
330
1F
100
AcDbEntity
  8
0
  6
Continuous
 62
     7
370
    25
100
AcDbLine
 10
-4496.7222102161
 20
4044.3854315037
 30
0.0
 11
-4495.1645552161
 21
4043.9635375037
 31
0.0
  0
LINE
  5
1DD
330
1F
100
AcDbEntity
  8
0
  6
Continuous
 62
     7
370
    25
100
AcDbLine
 10
-4495.1645552161
 20
4043.9635375037
 30
0.0
 11
-4493.7365672161
 21
4044.4844915037
 31
0.0
  0
LINE
  5
1DE
330
1F
100
AcDbEntity
  8
0
  6
Continuous
 62
     7
370
    25
100
AcDbLine
 10
-4493.7365672161
 20
4044.4844915037
 30
0.0
 11
-4492.1140152161
 21
4044.8402185037
 31
0.0
  0
LINE
  5
1DF
330
1F
100
AcDbEntity
  8
0
  6
Continuous
 62
     7
370
    25
100
AcDbLine
 10
-4492.1140152161
 20
4044.8402185037
 30
0.0
 11
-4490.9793972161
 21
4044.2240145037
 31
0.0
  0
LINE
  5
1E0
330
1F
100
AcDbEntity
  8
0
  6
Continuous
 62
     7
370
    25
100
AcDbLine
 10
-4490.9793972161
 20
4044.2240145037
 30
0.0
 11
-4490.0709662161
 21
4042.8606695037
 31
0.0
  0
LINE
  5
1E1
330
1F
100
AcDbEntity
  8
0
  6
Continuous
 62
     7
370
    25
100
AcDbLine
 10
-4490.0709662161
 20
4042.8606695037
 30
0.0
 11
-4488.9350782161
 21
4041.4022015037
 31
0.0
  0
LINE
  5
1E2
330
1F
100
AcDbEntity
  8
0
  6
Continuous
 62
     7
370
    25
100
AcDbLine
 10
-4488.9350782161
 20
4041.4022015037
 30
0.0
 11
-4487.4104432161
 21
4040.6550605037
 31
0.0
  0
LINE
  5
1E3
330
1F
100
AcDbEntity
  8
0
  6
Continuous
 62
     7
370
    25
100
AcDbLine
 10
-4487.4104432161
 20
4040.6550605037
 30
0.0
 11
-4486.0472252161
 21
4041.2395145037
 31
0.0
  0
LINE
  5
1E4
330
1F
100
AcDbEntity
  8
0
  6
Continuous
 62
     7
370
    25
100
AcDbLine
 10
-4486.0472252161
 20
4041.2395145037
 30
0.0
 11
-4486.2097852161
 21
4042.9585865037
 31
0.0
  0
LINE
  5
1E5
330
1F
100
AcDbEntity
  8
0
  6
Continuous
 62
     7
370
    25
100
AcDbLine
 10
-4486.2097852161
 20
4042.9585865037
 30
0.0
 11
-4484.6851502161
 21
4042.5366925037
 31
0.0
  0
LINE
  5
1E6
330
1F
100
AcDbEntity
  8
0
  6
Continuous
 62
     7
370
    25
100
AcDbLine
 10
-4484.6851502161
 20
4042.5366925037
 30
0.0
 11
-4483.7424292161
 21
4042.6993795037
 31
0.0
  0
LINE
  5
1E7
330
1F
100
AcDbEntity
  8
0
  6
Continuous
 62
     7
370
    25
100
AcDbLine
 10
-4483.7424292161
 20
4042.6993795037
 30
0.0
 11
-4483.9051162161
 21
4043.5430405037
 31
0.0
  0
LINE
  5
1E8
330
1F
100
AcDbEntity
  8
0
  6
Continuous
 62
     7
370
    25
100
AcDbLine
 10
-4483.9051162161
 20
4043.5430405037
 30
0.0
 11
-4485.2035642161
 21
4044.7424285037
 31
0.0
  0
LINE
  5
1E9
330
1F
100
AcDbEntity
  8
0
  6
Continuous
 62
     7
370
    25
100
AcDbLine
 10
-4485.2035642161
 20
4044.7424285037
 30
0.0
 11
-4485.1057742161
 21
4045.4246725037
 31
0.0
  0
LINE
  5
1EA
330
1F
100
AcDbEntity
  8
0
  6
Continuous
 62
     7
370
    25
100
AcDbLine
 10
-4485.1057742161
 20
4045.4246725037
 30
0.0
 11
-4483.5811392161
 21
4045.0029055037
 31
0.0
  0
LINE
  5
1EB
330
1F
100
AcDbEntity
  8
0
  6
Continuous
 62
     7
370
    25
100
AcDbLine
 10
-4483.5811392161
 20
4045.0029055037
 30
0.0
 11
-4482.8022482161
 21
4045.4246725037
 31
0.0
  0
LINE
  5
1EC
330
1F
100
AcDbEntity
  8
0
  6
Continuous
 62
     7
370
    25
100
AcDbLine
 10
-4482.8022482161
 20
4045.4246725037
 30
0.0
 11
-4482.6395612161
 21
4046.6901005037
 31
0.0
  0
LINE
  5
1ED
330
1F
100
AcDbEntity
  8
0
  6
Continuous
 62
     7
370
    25
100
AcDbLine
 10
-4482.6395612161
 20
4046.6901005037
 30
0.0
 11
-4481.4389032161
 21
4046.0091265037
 31
0.0
  0
LINE
  5
1EE
330
1F
100
AcDbEntity
  8
0
  6
Continuous
 62
     7
370
    25
100
AcDbLine
 10
-4481.4389032161
 20
4046.0091265037
 30
0.0
 11
-4480.6601392161
 21
4047.3075745037
 31
0.0
  0
LINE
  5
1EF
330
1F
100
AcDbEntity
  8
0
  6
Continuous
 62
     7
370
    25
100
AcDbLine
 10
-4480.6601392161
 20
4047.3075745037
 30
0.0
 11
-4479.8177482161
 21
4047.3075745037
 31
0.0
  0
LINE
  5
1F0
330
1F
100
AcDbEntity
  8
0
  6
Continuous
 62
     7
370
    25
100
AcDbLine
 10
-4479.8177482161
 20
4047.3075745037
 30
0.0
 11
-4478.9728172161
 21
4045.4246725037
 31
0.0
  0
LINE
  5
1F1
330
1F
100
AcDbEntity
  8
0
  6
Continuous
 62
     7
370
    25
100
AcDbLine
 10
-4478.9728172161
 20
4045.4246725037
 30
0.0
 11
-4476.6705612161
 21
4045.9443565037
 31
0.0
  0
LINE
  5
1F2
330
1F
100
AcDbEntity
  8
0
  6
Continuous
 62
     7
370
    25
100
AcDbLine
 10
-4476.6705612161
 20
4045.9443565037
 30
0.0
 11
-4474.3658922161
 21
4046.2670635037
 31
0.0
  0
LINE
  5
1F3
330
1F
100
AcDbEntity
  8
0
  6
Continuous
 62
     7
370
    25
100
AcDbLine
 10
-4474.3658922161
 20
4046.2670635037
 30
0.0
 11
-4472.5490302161
 21
4046.0091265037
 31
0.0
  0
LINE
  5
1F4
330
1F
100
AcDbEntity
  8
0
  6
Continuous
 62
     7
370
    25
100
AcDbLine
 10
-4472.5490302161
 20
4046.0091265037
 30
0.0
 11
-4470.7651882161
 21
4045.7486495037
 31
0.0
  0
LINE
  5
1F5
330
1F
100
AcDbEntity
  8
0
  6
Continuous
 62
     7
370
    25
100
AcDbLine
 10
-4470.7651882161
 20
4045.7486495037
 30
0.0
 11
-4469.4996332161
 21
4046.1056465037
 31
0.0
  0
LINE
  5
1F6
330
1F
100
AcDbEntity
  8
0
  6
Continuous
 62
     7
370
    25
100
AcDbLine
 10
-4469.4996332161
 20
4046.1056465037
 30
0.0
 11
-4467.1962342161
 21
4045.9443565037
 31
0.0
  0
LINE
  5
1F7
330
1F
100
AcDbEntity
  8
0
  6
Continuous
 62
     7
370
    25
100
AcDbLine
 10
-4467.1962342161
 20
4045.9443565037
 30
0.0
 11
-4466.8379672161
 21
4047.6315515037
 31
0.0
  0
LINE
  5
1F8
330
1F
100
AcDbEntity
  8
0
  6
Continuous
 62
     7
370
    25
100
AcDbLine
 10
-4466.8379672161
 20
4047.6315515037
 30
0.0
 11
-4464.0160272161
 21
4047.5655115037
 31
0.0
  0
LINE
  5
1F9
330
1F
100
AcDbEntity
  8
0
  6
Continuous
 62
     7
370
    25
100
AcDbLine
 10
-4464.0160272161
 20
4047.5655115037
 30
0.0
 11
-4462.3936022161
 21
4047.5655115037
 31
0.0
  0
LINE
  5
1FA
330
1F
100
AcDbEntity
  8
0
  6
Continuous
 62
     7
370
    25
100
AcDbLine
 10
-4462.3936022161
 20
4047.5655115037
 30
0.0
 11
-4461.2894642161
 21
4047.0470975037
 31
0.0
  0
LINE
  5
1FB
330
1F
100
AcDbEntity
  8
0
  6
Continuous
 62
     7
370
    25
100
AcDbLine
 10
-4461.2894642161
 20
4047.0470975037
 30
0.0
 11
-4460.2845132161
 21
4045.5860895037
 31
0.0
  0
LINE
  5
1FC
330
1F
100
AcDbEntity
  8
0
  6
Continuous
 62
     7
370
    25
100
AcDbLine
 10
-4460.2845132161
 20
4045.5860895037
 30
0.0
 11
-4459.7648292161
 21
4044.3218045037
 31
0.0
  0
LINE
  5
1FD
330
1F
100
AcDbEntity
  8
0
  6
Continuous
 62
     7
370
    25
100
AcDbLine
 10
-4459.7648292161
 20
4044.3218045037
 30
0.0
 11
-4459.5068922161
 21
4043.0233565037
 31
0.0
  0
LINE
  5
1FE
330
1F
100
AcDbEntity
  8
0
  6
Continuous
 62
     7
370
    25
100
AcDbLine
 10
-4459.5068922161
 20
4043.0233565037
 30
0.0
 11
-4459.6034122161
 21
4041.7579285037
 31
0.0
  0
LINE
  5
1FF
330
1F
100
AcDbEntity
  8
0
  6
Continuous
 62
     7
370
    25
100
AcDbLine
 10
-4459.6034122161
 20
4041.7579285037
 30
0.0
 11
-4459.4078322161
 21
4040.7198305037
 31
0.0
  0
LINE
  5
200
330
1F
100
AcDbEntity
  8
0
  6
Continuous
 62
     7
370
    25
100
AcDbLine
 10
-4459.4078322161
 20
4040.7198305037
 30
0.0
 11
-4458.7267312161
 21
4040.2980635037
 31
0.0
  0
LINE
  5
201
330
1F
100
AcDbEntity
  8
0
  6
Continuous
 62
     7
370
    25
100
AcDbLine
 10
-4458.7267312161
 20
4040.2980635037
 30
0.0
 11
-4459.5068922161
 21
4039.4544025037
 31
0.0
  0
LINE
  5
202
330
1F
100
AcDbEntity
  8
0
  6
Continuous
 62
     7
370
    25
100
AcDbLine
 10
-4459.5068922161
 20
4039.4544025037
 30
0.0
 11
-4460.2845132161
 21
4037.7340605037
 31
0.0
  0
LINE
  5
203
330
1F
100
AcDbEntity
  8
0
  6
Continuous
 62
     7
370
    25
100
AcDbLine
 10
-4460.2845132161
 20
4037.7340605037
 30
0.0
 11
-4461.6464612161
 21
4037.7340605037
 31
0.0
  0
LINE
  5
204
330
1F
100
AcDbEntity
  8
0
  6
Continuous
 62
     7
370
    25
100
AcDbLine
 10
-4461.6464612161
 20
4037.7340605037
 30
0.0
 11
-4462.7493292161
 21
4038.3502645037
 31
0.0
  0
LINE
  5
205
330
1F
100
AcDbEntity
  8
0
  6
Continuous
 62
     7
370
    25
100
AcDbLine
 10
-4462.7493292161
 20
4038.3502645037
 30
0.0
 11
-4463.5942602161
 21
4039.7136095037
 31
0.0
  0
LINE
  5
206
330
1F
100
AcDbEntity
  8
0
  6
Continuous
 62
     7
370
    25
100
AcDbLine
 10
-4463.5942602161
 20
4039.7136095037
 30
0.0
 11
-4465.1506452161
 21
4039.4544025037
 31
0.0
  0
LINE
  5
207
330
1F
100
AcDbEntity
  8
0
  6
Continuous
 62
     7
370
    25
100
AcDbLine
 10
-4465.1506452161
 20
4039.4544025037
 30
0.0
 11
-4465.9943062161
 21
4037.0530865037
 31
0.0
  0
LINE
  5
208
330
1F
100
AcDbEntity
  8
0
  6
Continuous
 62
     7
370
    25
100
AcDbLine
 10
-4465.9943062161
 20
4037.0530865037
 30
0.0
 11
-4467.6167312161
 21
4036.6313195037
 31
0.0
  0
LINE
  5
209
330
1F
100
AcDbEntity
  8
0
  6
Continuous
 62
     7
370
    25
100
AcDbLine
 10
-4467.6167312161
 20
4036.6313195037
 30
0.0
 11
-4468.3968922161
 21
4037.3135635037
 31
0.0
  0
LINE
  5
20A
330
1F
100
AcDbEntity
  8
0
  6
Continuous
 62
     7
370
    25
100
AcDbLine
 10
-4468.3968922161
 20
4037.3135635037
 30
0.0
 11
-4470.5047112161
 21
4036.3733825037
 31
0.0
  0
LINE
  5
20B
330
1F
100
AcDbEntity
  8
0
  6
Continuous
 62
     7
370
    25
100
AcDbLine
 10
-4470.5047112161
 20
4036.3733825037
 30
0.0
 11
-4472.3876132161
 21
4039.0326355037
 31
0.0
  0
LINE
  5
20C
330
1F
100
AcDbEntity
  8
0
  6
Continuous
 62
     7
370
    25
100
AcDbLine
 10
-4472.3876132161
 20
4039.0326355037
 30
0.0
 11
-4473.9122482161
 21
4037.8319775037
 31
0.0
  0
LINE
  5
20D
330
1F
100
AcDbEntity
  8
0
  6
Continuous
 62
     7
370
    25
100
AcDbLine
 10
-4473.9122482161
 20
4037.8319775037
 30
0.0
 11
-4473.0025472161
 21
4036.3060725037
 31
0.0
  0
LINE
  5
20E
330
1F
100
AcDbEntity
  8
0
  6
Continuous
 62
     7
370
    25
100
AcDbLine
 10
-4473.0025472161
 20
4036.3060725037
 30
0.0
 11
-4475.0468662161
 21
4035.8524285037
 31
0.0
  0
LINE
  5
20F
330
1F
100
AcDbEntity
  8
0
  6
Continuous
 62
     7
370
    25
100
AcDbLine
 10
-4475.0468662161
 20
4035.8524285037
 30
0.0
 11
-4477.2537452161
 21
4036.8903995037
 31
0.0
  0
LINE
  5
210
330
1F
100
AcDbEntity
  8
0
  6
Continuous
 62
     7
370
    25
100
AcDbLine
 10
-4477.2537452161
 20
4036.8903995037
 30
0.0
 11
-4478.1953232161
 21
4038.5129515037
 31
0.0
  0
LINE
  5
211
330
1F
100
AcDbEntity
  8
0
  6
Continuous
 62
     7
370
    25
100
AcDbLine
 10
-4478.1953232161
 20
4038.5129515037
 30
0.0
 11
-4481.9585872161
 21
4038.5129515037
 31
0.0
  0
LINE
  5
212
330
1F
100
AcDbEntity
  8
0
  6
Continuous
 62
     7
370
    25
100
AcDbLine
 10
-4481.9585872161
 20
4038.5129515037
 30
0.0
 11
-4483.1262252161
 21
4037.4748535037
 31
0.0
  0
LINE
  5
213
330
1F
100
AcDbEntity
  8
0
  6
Continuous
 62
     7
370
    25
100
AcDbLine
 10
-4483.1262252161
 20
4037.4748535037
 30
0.0
 11
-4480.7579292161
 21
4034.4890835037
 31
0.0
  0
LINE
  5
214
330
1F
100
AcDbEntity
  8
0
  6
Continuous
 62
     7
370
    25
100
AcDbLine
 10
-4480.7579292161
 20
4034.4890835037
 30
0.0
 11
-4481.7641502161
 21
4033.6468195037
 31
0.0
  0
LINE
  5
215
330
1F
100
AcDbEntity
  8
0
  6
Continuous
 62
     7
370
    25
100
AcDbLine
 10
-4481.7641502161
 20
4033.6468195037
 30
0.0
 11
-4484.3268832161
 21
4036.2094255037
 31
0.0
  0
LINE
  5
216
330
1F
100
AcDbEntity
  8
0
  6
Continuous
 62
     7
370
    25
100
AcDbLine
 10
-4484.3268832161
 20
4036.2094255037
 30
0.0
 11
-4486.0472252161
 21
4033.7433395037
 31
0.0
  0
LINE
  5
217
330
1F
100
AcDbEntity
  8
0
  6
Continuous
 62
     7
370
    25
100
AcDbLine
 10
-4486.0472252161
 20
4033.7433395037
 30
0.0
 11
-4488.1880642161
 21
4031.6990205037
 31
0.0
  0
LINE
  5
218
330
1F
100
AcDbEntity
  8
0
  6
Continuous
 62
     7
370
    25
100
AcDbLine
 10
-4488.1880642161
 20
4031.6990205037
 30
0.0
 11
-4488.1880642161
 21
4030.1413655037
 31
0.0
  0
LINE
  5
219
330
1F
100
AcDbEntity
  8
0
  6
Continuous
 62
     7
370
    25
100
AcDbLine
 10
-4488.1880642161
 20
4030.1413655037
 30
0.0
 11
-4490.5563602161
 21
4029.3954945037
 31
0.0
  0
LINE
  5
21A
330
1F
100
AcDbEntity
  8
0
  6
Continuous
 62
     7
370
    25
100
AcDbLine
 10
-4490.5563602161
 20
4029.3954945037
 30
0.0
 11
-4491.6604982161
 21
4029.9799485037
 31
0.0
  0
LINE
  5
21B
330
1F
100
AcDbEntity
  8
0
  6
Continuous
 62
     7
370
    25
100
AcDbLine
 10
-4491.6604982161
 20
4029.9799485037
 30
0.0
 11
-4492.8611562161
 21
4028.9089575037
 31
0.0
  0
LINE
  5
21C
330
1F
100
AcDbEntity
  8
0
  6
Continuous
 62
     7
370
    25
100
AcDbLine
 10
-4492.8611562161
 20
4028.9089575037
 30
0.0
 11
-4496.2674232161
 21
4028.8123105037
 31
0.0
  0
LINE
  5
21D
330
1F
100
AcDbEntity
  8
0
  6
Continuous
 62
     7
370
    25
100
AcDbLine
 10
-4496.2674232161
 20
4028.8123105037
 30
0.0
 11
-4497.3053942161
 21
4025.5025635037
 31
0.0
  0
LINE
  5
21E
330
1F
100
AcDbEntity
  8
0
  6
Continuous
 62
     7
370
    25
100
AcDbLine
 10
-4497.3053942161
 20
4025.5025635037
 30
0.0
 11
-4503.1145012161
 21
4019.7584805037
 31
0.0
  0
LINE
  5
21F
330
1F
100
AcDbEntity
  8
0
  6
Continuous
 62
     7
370
    25
100
AcDbLine
 10
-4503.1145012161
 20
4019.7584805037
 30
0.0
 11
-4507.8190892161
 21
4020.5361015037
 31
0.0
  0
LINE
  5
220
330
1F
100
AcDbEntity
  8
0
  6
Continuous
 62
     7
370
    25
100
AcDbLine
 10
-4507.8190892161
 20
4020.5361015037
 30
0.0
 11
-4508.4029082161
 21
4019.4345035037
 31
0.0
  0
LINE
  5
221
330
1F
100
AcDbEntity
  8
0
  6
Continuous
 62
     7
370
    25
100
AcDbLine
 10
-4508.4029082161
 20
4019.4345035037
 30
0.0
 11
-4512.1661722161
 21
4019.1752965037
 31
0.0
  0
LINE
  5
222
330
1F
100
AcDbEntity
  8
0
  6
Continuous
 62
     7
370
    25
100
AcDbLine
 10
-4512.1661722161
 20
4019.1752965037
 30
0.0
 11
-4514.5354842161
 21
4018.2338455037
 31
0.0
  0
LINE
  5
223
330
1F
100
AcDbEntity
  8
0
  6
Continuous
 62
     7
370
    25
100
AcDbLine
 10
-4514.5354842161
 20
4018.2338455037
 30
0.0
 11
-4520.0189632161
 21
4019.0775065037
 31
0.0
  0
LINE
  5
224
330
1F
100
AcDbEntity
  8
0
  6
Continuous
 62
     7
370
    25
100
AcDbLine
 10
-4520.0189632161
 20
4019.0775065037
 30
0.0
 11
-4525.1129332161
 21
4018.4943225037
 31
0.0
  0
LINE
  5
225
330
1F
100
AcDbEntity
  8
0
  6
Continuous
 62
     7
370
    25
100
AcDbLine
 10
-4525.1129332161
 20
4018.4943225037
 30
0.0
 11
-4530.7577022161
 21
4018.1373255037
 31
0.0
  0
LINE
  5
226
330
1F
100
AcDbEntity
  8
0
  6
Continuous
 62
     7
370
    25
100
AcDbLine
 10
-4530.7577022161
 20
4018.1373255037
 30
0.0
 11
-4532.5434492161
 21
4016.3522135037
 31
0.0
  0
LINE
  5
227
330
1F
100
AcDbEntity
  8
0
  6
Continuous
 62
     7
370
    25
100
AcDbLine
 10
-4532.5434492161
 20
4016.3522135037
 30
0.0
 11
-4534.6846692161
 21
4014.4691845037
 31
0.0
  0
LINE
  5
228
330
1F
100
AcDbEntity
  8
0
  6
Continuous
 62
     7
370
    25
100
AcDbLine
 10
-4534.6846692161
 20
4014.4691845037
 30
0.0
 11
-4535.6262472161
 21
4012.5240525037
 31
0.0
  0
LINE
  5
229
330
1F
100
AcDbEntity
  8
0
  6
Continuous
 62
     7
370
    25
100
AcDbLine
 10
-4535.6262472161
 20
4012.5240525037
 30
0.0
 11
-4538.2542582161
 21
4010.4797335037
 31
0.0
  0
LINE
  5
22A
330
1F
100
AcDbEntity
  8
0
  6
Continuous
 62
     7
370
    25
100
AcDbLine
 10
-4538.2542582161
 20
4010.4797335037
 30
0.0
 11
-4543.5424112161
 21
4010.3832135037
 31
0.0
  0
LINE
  5
22B
330
1F
100
AcDbEntity
  8
0
  6
Continuous
 62
     7
370
    25
100
AcDbLine
 10
-4543.5424112161
 20
4010.3832135037
 30
0.0
 11
-4543.2190692161
 21
4012.1670555037
 31
0.0
  0
ENDSEC
  0
SECTION
  2
OBJECTS
  0
DICTIONARY
  5
C
330
0
100
AcDbDictionary
281
     1
  3
ACAD_GROUP
350
D
  3
ACAD_LAYOUT
350
1A
  3
ACAD_MLINESTYLE
350
17
  3
ACAD_PLOTSETTINGS
350
19
  3
ACAD_PLOTSTYLENAME
350
E
  3
ACAD_SCALELIST
350
47
  0
DICTIONARY
  5
D
102
{ACAD_REACTORS
330
C
102
}
330
C
100
AcDbDictionary
281
     1
  0
DICTIONARY
  5
1A
102
{ACAD_REACTORS
330
C
102
}
330
C
100
AcDbDictionary
281
     1
  3
Layout1
350
1E
  3
Layout2
350
26
  3
Model
350
22
  0
DICTIONARY
  5
17
102
{ACAD_REACTORS
330
C
102
}
330
C
100
AcDbDictionary
281
     1
  3
Standard
350
18
  0
DICTIONARY
  5
19
102
{ACAD_REACTORS
330
C
102
}
330
C
100
AcDbDictionary
281
     1
  0
ACDBDICTIONARYWDFLT
  5
E
102
{ACAD_REACTORS
330
C
102
}
330
C
100
AcDbDictionary
281
     1
  3
Normal
350
F
100
AcDbDictionaryWithDefault
340
F
  0
DICTIONARY
  5
47
102
{ACAD_REACTORS
330
C
102
}
330
C
100
AcDbDictionary
281
     1
  3
A0
350
48
  3
A1
350
49
  3
A2
350
4A
  3
A3
350
4B
  3
A4
350
4C
  3
A5
350
4D
  3
A6
350
4E
  3
A7
350
4F
  3
A8
350
50
  3
A9
350
51
  3
B0
350
52
  3
B1
350
53
  3
B2
350
54
  3
B3
350
55
  3
B4
350
56
  3
B5
350
57
  3
B6
350
58
  3
B7
350
59
  3
B8
350
5A
  3
B9
350
5B
  3
C0
350
5C
  3
C1
350
5D
  3
C2
350
5E
  3
C3
350
5F
  3
C4
350
60
  3
C5
350
61
  3
C6
350
62
  3
C7
350
63
  3
C8
350
64
  3
C9
350
65
  3
D0
350
66
  3
D1
350
67
  3
D2
350
68
  0
LAYOUT
  5
1E
102
{ACAD_REACTORS
330
1A
102
}
330
1A
100
AcDbPlotSettings
  1

  2
none_device
  4

  6

 40
0.0
 41
0.0
 42
0.0
 43
0.0
 44
0.0
 45
0.0
 46
0.0
 47
0.0
 48
0.0
 49
0.0
140
0.0
141
0.0
142
1.0
143
1.0
 70
   688
 72
     1
 73
     0
 74
     5
  7

 75
    16
147
1.0
148
0.0
149
0.0
100
AcDbLayout
  1
Layout1
 70
     1
 71
     1
 10
0.0
 20
0.0
 11
420.0
 21
297.0
 12
0.0
 22
0.0
 32
0.0
 14
1.0000000000E+20
 24
1.0000000000E+20
 34
1.0000000000E+20
 15
-1.0000000000E+20
 25
-1.0000000000E+20
 35
-1.0000000000E+20
146
0.0
 13
0.0
 23
0.0
 33
0.0
 16
1.0
 26
0.0
 36
0.0
 17
0.0
 27
1.0
 37
0.0
 76
     0
330
1B
  0
LAYOUT
  5
26
102
{ACAD_REACTORS
330
1A
102
}
330
1A
100
AcDbPlotSettings
  1

  2
none_device
  4

  6

 40
0.0
 41
0.0
 42
0.0
 43
0.0
 44
0.0
 45
0.0
 46
0.0
 47
0.0
 48
0.0
 49
0.0
140
0.0
141
0.0
142
1.0
143
1.0
 70
   688
 72
     1
 73
     0
 74
     5
  7

 75
    16
147
1.0
148
0.0
149
0.0
100
AcDbLayout
  1
Layout2
 70
     1
 71
     2
 10
0.0
 20
0.0
 11
0.0
 21
0.0
 12
0.0
 22
0.0
 32
0.0
 14
0.0
 24
0.0
 34
0.0
 15
0.0
 25
0.0
 35
0.0
146
0.0
 13
0.0
 23
0.0
 33
0.0
 16
1.0
 26
0.0
 36
0.0
 17
0.0
 27
1.0
 37
0.0
 76
     0
330
23
  0
LAYOUT
  5
22
102
{ACAD_REACTORS
330
1A
102
}
330
1A
100
AcDbPlotSettings
  1

  2
none_device
  4
ANSI_A_(11.00_x_8.50_Inches)
  6

 40
6.35
 41
19.05
 42
6.35000508
 43
19.05000254
 44
279.4
 45
215.9
 46
14812.7209487489
 47
-13060.21157782
 48
0.0
 49
0.0
140
0.0
141
0.0
142
0.1283960702
143
1.0
 70
  1696
 72
     0
 73
     0
 74
     0
  7

 75
     0
147
0.0179189148
148
-1300.4909072572
149
0.0
100
AcDbLayout
  1
Model
 70
     1
 71
     0
 10
0.0
 20
0.0
 11
420.0
 21
297.0
 12
0.0
 22
0.0
 32
0.0
 14
-4543.5424112161
 24
4010.3832135037
 34
0.0
 15
-4458.7267312161
 25
4053.4392615037
 35
0.0
146
0.0
 13
0.0
 23
0.0
 33
0.0
 16
1.0
 26
0.0
 36
0.0
 17
0.0
 27
1.0
 37
0.0
 76
     0
330
1F
331
29
  0
MLINESTYLE
  5
18
102
{ACAD_REACTORS
330
17
102
}
330
17
100
AcDbMlineStyle
  2
Standard
 70
     0
  3

 62
   256
 51
90.0
 52
90.0
 71
     2
 49
0.5
 62
   256
  6
BYLAYER
 49
-0.5
 62
   256
  6
BYLAYER
  0
ACDBPLACEHOLDER
  5
F
102
{ACAD_REACTORS
330
E
102
}
330
E
  0
SCALE
  5
48
102
{ACAD_REACTORS
330
47
102
}
330
47
100
AcDbScale
 70
     0
300
1:1
140
1.0
141
1.0
290
     1
  0
SCALE
  5
49
102
{ACAD_REACTORS
330
47
102
}
330
47
100
AcDbScale
 70
     0
300
1:2
140
1.0
141
2.0
290
     0
  0
SCALE
  5
4A
102
{ACAD_REACTORS
330
47
102
}
330
47
100
AcDbScale
 70
     0
300
1:4
140
1.0
141
4.0
290
     0
  0
SCALE
  5
4B
102
{ACAD_REACTORS
330
47
102
}
330
47
100
AcDbScale
 70
     0
300
1:5
140
1.0
141
5.0
290
     0
  0
SCALE
  5
4C
102
{ACAD_REACTORS
330
47
102
}
330
47
100
AcDbScale
 70
     0
300
1:8
140
1.0
141
8.0
290
     0
  0
SCALE
  5
4D
102
{ACAD_REACTORS
330
47
102
}
330
47
100
AcDbScale
 70
     0
300
1:10
140
1.0
141
10.0
290
     0
  0
SCALE
  5
4E
102
{ACAD_REACTORS
330
47
102
}
330
47
100
AcDbScale
 70
     0
300
1:16
140
1.0
141
16.0
290
     0
  0
SCALE
  5
4F
102
{ACAD_REACTORS
330
47
102
}
330
47
100
AcDbScale
 70
     0
300
1:20
140
1.0
141
20.0
290
     0
  0
SCALE
  5
50
102
{ACAD_REACTORS
330
47
102
}
330
47
100
AcDbScale
 70
     0
300
1:30
140
1.0
141
30.0
290
     0
  0
SCALE
  5
51
102
{ACAD_REACTORS
330
47
102
}
330
47
100
AcDbScale
 70
     0
300
1:40
140
1.0
141
40.0
290
     0
  0
SCALE
  5
52
102
{ACAD_REACTORS
330
47
102
}
330
47
100
AcDbScale
 70
     0
300
1:50
140
1.0
141
50.0
290
     0
  0
SCALE
  5
53
102
{ACAD_REACTORS
330
47
102
}
330
47
100
AcDbScale
 70
     0
300
1:100
140
1.0
141
100.0
290
     0
  0
SCALE
  5
54
102
{ACAD_REACTORS
330
47
102
}
330
47
100
AcDbScale
 70
     0
300
2:1
140
2.0
141
1.0
290
     0
  0
SCALE
  5
55
102
{ACAD_REACTORS
330
47
102
}
330
47
100
AcDbScale
 70
     0
300
4:1
140
4.0
141
1.0
290
     0
  0
SCALE
  5
56
102
{ACAD_REACTORS
330
47
102
}
330
47
100
AcDbScale
 70
     0
300
8:1
140
8.0
141
1.0
290
     0
  0
SCALE
  5
57
102
{ACAD_REACTORS
330
47
102
}
330
47
100
AcDbScale
 70
     0
300
10:1
140
10.0
141
1.0
290
     0
  0
SCALE
  5
58
102
{ACAD_REACTORS
330
47
102
}
330
47
100
AcDbScale
 70
     0
300
100:1
140
100.0
141
1.0
290
     0
  0
SCALE
  5
59
102
{ACAD_REACTORS
330
47
102
}
330
47
100
AcDbScale
 70
     0
300
1/128" = 1'-0"
140
0.0078125
141
12.0
290
     0
  0
SCALE
  5
5A
102
{ACAD_REACTORS
330
47
102
}
330
47
100
AcDbScale
 70
     0
300
1/64" = 1'-0"
140
0.015625
141
12.0
290
     0
  0
SCALE
  5
5B
102
{ACAD_REACTORS
330
47
102
}
330
47
100
AcDbScale
 70
     0
300
1/32" = 1'-0"
140
0.03125
141
12.0
290
     0
  0
SCALE
  5
5C
102
{ACAD_REACTORS
330
47
102
}
330
47
100
AcDbScale
 70
     0
300
1/16" = 1'-0"
140
0.0625
141
12.0
290
     0
  0
SCALE
  5
5D
102
{ACAD_REACTORS
330
47
102
}
330
47
100
AcDbScale
 70
     0
300
3/32" = 1'-0"
140
0.09375
141
12.0
290
     0
  0
SCALE
  5
5E
102
{ACAD_REACTORS
330
47
102
}
330
47
100
AcDbScale
 70
     0
300
1/8" = 1'-0"
140
0.125
141
12.0
290
     0
  0
SCALE
  5
5F
102
{ACAD_REACTORS
330
47
102
}
330
47
100
AcDbScale
 70
     0
300
3/16" = 1'-0"
140
0.1875
141
12.0
290
     0
  0
SCALE
  5
60
102
{ACAD_REACTORS
330
47
102
}
330
47
100
AcDbScale
 70
     0
300
1/4" = 1'-0"
140
0.25
141
12.0
290
     0
  0
SCALE
  5
61
102
{ACAD_REACTORS
330
47
102
}
330
47
100
AcDbScale
 70
     0
300
3/8" = 1'-0"
140
0.375
141
12.0
290
     0
  0
SCALE
  5
62
102
{ACAD_REACTORS
330
47
102
}
330
47
100
AcDbScale
 70
     0
300
1/2" = 1'-0"
140
0.5
141
12.0
290
     0
  0
SCALE
  5
63
102
{ACAD_REACTORS
330
47
102
}
330
47
100
AcDbScale
 70
     0
300
3/4" = 1'-0"
140
0.75
141
12.0
290
     0
  0
SCALE
  5
64
102
{ACAD_REACTORS
330
47
102
}
330
47
100
AcDbScale
 70
     0
300
1" = 1'-0"
140
1.0
141
12.0
290
     0
  0
SCALE
  5
65
102
{ACAD_REACTORS
330
47
102
}
330
47
100
AcDbScale
 70
     0
300
1-1/2" = 1'-0"
140
1.5
141
12.0
290
     0
  0
SCALE
  5
66
102
{ACAD_REACTORS
330
47
102
}
330
47
100
AcDbScale
 70
     0
300
3" = 1'-0"
140
3.0
141
12.0
290
     0
  0
SCALE
  5
67
102
{ACAD_REACTORS
330
47
102
}
330
47
100
AcDbScale
 70
     0
300
6" = 1'-0"
140
6.0
141
12.0
290
     0
  0
SCALE
  5
68
102
{ACAD_REACTORS
330
47
102
}
330
47
100
AcDbScale
 70
     0
300
1'-0" = 1'-0"
140
12.0
141
12.0
290
     0
  0
ENDSEC
  0
EOF
