  0
SECTION
  2
HEADER
  9
$ACADVER
  1
AC1015
  9
$ACADMAINTVER
 70
     6
  9
$DWGCODEPAGE
  3
ANSI_1251
  9
$INSBASE
 10
0.0
 20
0.0
 30
0.0
  9
$EXTMIN
 10
-4.0
 20
4.4
 30
0.0
  9
$EXTMAX
 10
479.0
 20
130.0
 30
0.0
  9
$LIMMIN
 10
0.0
 20
0.0
  9
$LIMMAX
 10
420.0
 20
297.0
  9
$ORTHOMODE
 70
     0
  9
$REGENMODE
 70
     1
  9
$FILLMODE
 70
     1
  9
$QTEXTMODE
 70
     0
  9
$MIRRTEXT
 70
     1
  9
$LTSCALE
 40
1.0
  9
$ATTMODE
 70
     1
  9
$TEXTSIZE
 40
4.0
  9
$TRACEWID
 40
1.0
  9
$TEXTSTYLE
  7
Standard
  9
$CLAYER
  8
0
  9
$CELTYPE
  6
ByLayer
  9
$CECOLOR
 62
   256
  9
$CELTSCALE
 40
1.0
  9
$DISPSILH
 70
     0
  9
$DIMSCALE
 40
1.0
  9
$DIMASZ
 40
6.0
  9
$DIMEXO
 40
1.0
  9
$DIMDLI
 40
3.75
  9
$DIMRND
 40
0.0
  9
$DIMDLE
 40
0.0
  9
$DIMEXE
 40
1.0
  9
$DIMTP
 40
0.0
  9
$DIMTM
 40
0.0
  9
$DIMTXT
 40
4.0
  9
$DIMCEN
 40
2.5
  9
$DIMTSZ
 40
0.0
  9
$DIMTOL
 70
     0
  9
$DIMLIM
 70
     0
  9
$DIMTIH
 70
     1
  9
$DIMTOH
 70
     1
  9
$DIMSE1
 70
     0
  9
$DIMSE2
 70
     0
  9
$DIMTAD
 70
     1
  9
$DIMZIN
 70
     0
  9
$DIMBLK
  1

  9
$DIMASO
 70
     1
  9
$DIMSHO
 70
     1
  9
$DIMPOST
  1

  9
$DIMAPOST
  1

  9
$DIMALT
 70
     0
  9
$DIMALTD
 70
     3
  9
$DIMALTF
 40
0.0393700787
  9
$DIMLFAC
 40
1.0
  9
$DIMTOFL
 70
     1
  9
$DIMTVP
 40
0.0
  9
$DIMTIX
 70
     0
  9
$DIMSOXD
 70
     0
  9
$DIMSAH
 70
     0
  9
$DIMBLK1
  1

  9
$DIMBLK2
  1

  9
$DIMSTYLE
  2
ISO-25
  9
$DIMCLRD
 70
     0
  9
$DIMCLRE
 70
     0
  9
$DIMCLRT
 70
     0
  9
$DIMTFAC
 40
1.0
  9
$DIMGAP
 40
3.0
  9
$DIMJUST
 70
     0
  9
$DIMSD1
 70
     0
  9
$DIMSD2
 70
     0
  9
$DIMTOLJ
 70
     0
  9
$DIMTZIN
 70
     0
  9
$DIMALTZ
 70
     0
  9
$DIMALTTZ
 70
     0
  9
$DIMUPT
 70
     0
  9
$DIMDEC
 70
     2
  9
$DIMTDEC
 70
     4
  9
$DIMALTU
 70
     2
  9
$DIMALTTD
 70
     3
  9
$DIMTXSTY
  7
Standard
  9
$DIMAUNIT
 70
     0
  9
$DIMADEC
 70
     2
  9
$DIMALTRND
 40
0.0
  9
$DIMAZIN
 70
     0
  9
$DIMDSEP
 70
    44
  9
$DIMATFIT
 70
     3
  9
$DIMFRAC
 70
     0
  9
$DIMLDRBLK
  1

  9
$DIMLUNIT
 70
     2
  9
$DIMLWD
 70
    -2
  9
$DIMLWE
 70
    -2
  9
$DIMTMOVE
 70
     0
  9
$LUNITS
 70
     2
  9
$LUPREC
 70
     2
  9
$SKETCHINC
 40
1.0
  9
$FILLETRAD
 40
10.0
  9
$AUNITS
 70
     0
  9
$AUPREC
 70
     2
  9
$MENU
  1
.
  9
$ELEVATION
 40
0.0
  9
$PELEVATION
 40
0.0
  9
$THICKNESS
 40
0.0
  9
$LIMCHECK
 70
     0
  9
$CHAMFERA
 40
10.0
  9
$CHAMFERB
 40
10.0
  9
$CHAMFERC
 40
20.0
  9
$CHAMFERD
 40
0.0
  9
$SKPOLY
 70
     0
  9
$TDCREATE
 40
2460389.880575301
  9
$TDUCREATE
 40
2460389.797241968
  9
$TDUPDATE
 40
2460389.880602662
  9
$TDUUPDATE
 40
2460389.797269328
  9
$TDINDWG
 40
0.0000000116
  9
$TDUSRTIMER
 40
0.0000000116
  9
$USRTIMER
 70
     1
  9
$ANGBASE
 50
0.0
  9
$ANGDIR
 70
     0
  9
$PDMODE
 70
     0
  9
$PDSIZE
 40
-1.0
  9
$PLINEWID
 40
0.0
  9
$SPLFRAME
 70
     0
  9
$SPLINETYPE
 70
     6
  9
$SPLINESEGS
 70
     8
  9
$HANDSEED
  5
150
  9
$SURFTAB1
 70
     6
  9
$SURFTAB2
 70
     6
  9
$SURFTYPE
 70
     6
  9
$SURFU
 70
     6
  9
$SURFV
 70
     6
  9
$UCSBASE
  2

  9
$UCSNAME
  2

  9
$UCSORG
 10
0.0
 20
0.0
 30
0.0
  9
$UCSXDIR
 10
1.0
 20
0.0
 30
0.0
  9
$UCSYDIR
 10
0.0
 20
1.0
 30
0.0
  9
$UCSORTHOREF
  2

  9
$UCSORTHOVIEW
 70
     0
  9
$UCSORGTOP
 10
0.0
 20
0.0
 30
0.0
  9
$UCSORGBOTTOM
 10
0.0
 20
0.0
 30
0.0
  9
$UCSORGLEFT
 10
0.0
 20
0.0
 30
0.0
  9
$UCSORGRIGHT
 10
0.0
 20
0.0
 30
0.0
  9
$UCSORGFRONT
 10
0.0
 20
0.0
 30
0.0
  9
$UCSORGBACK
 10
0.0
 20
0.0
 30
0.0
  9
$PUCSBASE
  2

  9
$PUCSNAME
  2

  9
$PUCSORG
 10
0.0
 20
0.0
 30
0.0
  9
$PUCSXDIR
 10
1.0
 20
0.0
 30
0.0
  9
$PUCSYDIR
 10
0.0
 20
1.0
 30
0.0
  9
$PUCSORTHOREF
  2

  9
$PUCSORTHOVIEW
 70
     0
  9
$PUCSORGTOP
 10
0.0
 20
0.0
 30
0.0
  9
$PUCSORGBOTTOM
 10
0.0
 20
0.0
 30
0.0
  9
$PUCSORGLEFT
 10
0.0
 20
0.0
 30
0.0
  9
$PUCSORGRIGHT
 10
0.0
 20
0.0
 30
0.0
  9
$PUCSORGFRONT
 10
0.0
 20
0.0
 30
0.0
  9
$PUCSORGBACK
 10
0.0
 20
0.0
 30
0.0
  9
$USERI1
 70
     0
  9
$USERI2
 70
     0
  9
$USERI3
 70
     0
  9
$USERI4
 70
     0
  9
$USERI5
 70
     0
  9
$USERR1
 40
0.0
  9
$USERR2
 40
0.0
  9
$USERR3
 40
0.0
  9
$USERR4
 40
0.0
  9
$USERR5
 40
0.0
  9
$WORLDVIEW
 70
     1
  9
$SHADEDGE
 70
     3
  9
$SHADEDIF
 70
    70
  9
$TILEMODE
 70
     1
  9
$MAXACTVP
 70
    64
  9
$PINSBASE
 10
0.0
 20
0.0
 30
0.0
  9
$PLIMCHECK
 70
     0
  9
$PEXTMIN
 10
1.0000000000E+20
 20
1.0000000000E+20
 30
1.0000000000E+20
  9
$PEXTMAX
 10
-1.0000000000E+20
 20
-1.0000000000E+20
 30
-1.0000000000E+20
  9
$PLIMMIN
 10
0.0
 20
0.0
  9
$PLIMMAX
 10
420.0
 20
297.0
  9
$UNITMODE
 70
     0
  9
$VISRETAIN
 70
     1
  9
$PLINEGEN
 70
     0
  9
$PSLTSCALE
 70
     1
  9
$TREEDEPTH
 70
  3020
  9
$CMLSTYLE
  2
Standard
  9
$CMLJUST
 70
     0
  9
$CMLSCALE
 40
20.0
  9
$PROXYGRAPHICS
 70
     1
  9
$MEASUREMENT
 70
     1
  9
$CELWEIGHT
370
    -1
  9
$ENDCAPS
280
     0
  9
$JOINSTYLE
280
     0
  9
$LWDISPLAY
290
     1
  9
$INSUNITS
 70
     4
  9
$HYPERLINKBASE
  1

  9
$STYLESHEET
  1

  9
$XEDIT
290
     1
  9
$CEPSNTYPE
380
     0
  9
$PSTYLEMODE
290
     1
  9
$FINGERPRINTGUID
  2
{E1A80515-97A2-4805-9C20-A6BCB4A432F2}
  9
$VERSIONGUID
  2
{FAEB1C32-E019-11D5-929B-00C0DF256EC4}
  9
$EXTNAMES
290
     1
  9
$PSVPSCALE
 40
0.0
  9
$OLESTARTUP
290
     0
  0
ENDSEC
  0
SECTION
  2
CLASSES
  0
CLASS
  1
ACDBDICTIONARYWDFLT
  2
AcDbDictionaryWithDefault
  3
ObjectDBX Classes
 90
        0
280
     0
281
     0
  0
CLASS
  1
VISUALSTYLE
  2
AcDbVisualStyle
  3
ObjectDBX Classes
 90
     4095
280
     0
281
     0
  0
CLASS
  1
MATERIAL
  2
AcDbMaterial
  3
ObjectDBX Classes
 90
     1153
280
     0
281
     0
  0
CLASS
  1
ACDBPLACEHOLDER
  2
AcDbPlaceHolder
  3
ObjectDBX Classes
 90
        0
280
     0
281
     0
  0
CLASS
  1
LAYOUT
  2
AcDbLayout
  3
ObjectDBX Classes
 90
        0
280
     0
281
     0
  0
ENDSEC
  0
SECTION
  2
TABLES
  0
TABLE
  2
VPORT
  5
8
330
0
100
AcDbSymbolTable
 70
     1
  0
VPORT
  5
29
330
8
100
AcDbSymbolTableRecord
100
AcDbViewportTableRecord
  2
*Active
 70
     0
 10
0.0
 20
0.0
 11
1.0
 21
1.0
 12
237.5
 22
67.2
 13
0.0
 23
0.0
 14
10.0
 24
10.0
 15
10.0
 25
10.0
 16
0.0
 26
0.0
 36
1.0
 17
0.0
 27
0.0
 37
0.0
 40
128.112
 41
3.8455414013
 42
50.0
 43
0.0
 44
0.0
 50
0.0
 51
0.0
 71
     0
 72
   100
 73
     1
 74
     3
 75
     0
 76
     0
 77
     0
 78
     0
281
     0
 65
     1
110
0.0
120
0.0
130
0.0
111
1.0
121
0.0
131
0.0
112
0.0
122
1.0
132
0.0
 79
     0
146
0.0
  0
ENDTAB
  0
TABLE
  2
LTYPE
  5
5
330
0
100
AcDbSymbolTable
 70
     6
  0
LTYPE
  5
14
330
5
100
AcDbSymbolTableRecord
100
AcDbLinetypeTableRecord
  2
ByBlock
 70
     0
  3

 72
    65
 73
     0
 40
0.0
  0
LTYPE
  5
15
330
5
100
AcDbSymbolTableRecord
100
AcDbLinetypeTableRecord
  2
ByLayer
 70
     0
  3

 72
    65
 73
     0
 40
0.0
  0
LTYPE
  5
16
330
5
100
AcDbSymbolTableRecord
100
AcDbLinetypeTableRecord
  2
Continuous
 70
     0
  3
Solid line
 72
    65
 73
     0
 40
0.0
  0
LTYPE
  5
3F
330
5
100
AcDbSymbolTableRecord
100
AcDbLinetypeTableRecord
  2
HIDDEN
 70
     0
  3
Hidden __ __ __ __ __ __ __ __ __ __ __ __ __ __
 72
    65
 73
     2
 40
1.905
 49
1.27
 74
     0
 49
-0.635
 74
     0
  0
LTYPE
  5
40
330
5
100
AcDbSymbolTableRecord
100
AcDbLinetypeTableRecord
  2
PHANTOM
 70
     0
  3
Phantom ______  __  __  ______  __  __  ______
 72
    65
 73
     6
 40
12.7
 49
6.35
 74
     0
 49
-1.27
 74
     0
 49
1.27
 74
     0
 49
-1.27
 74
     0
 49
1.27
 74
     0
 49
-1.27
 74
     0
  0
LTYPE
  5
41
330
5
100
AcDbSymbolTableRecord
100
AcDbLinetypeTableRecord
  2
CENTER
 70
     0
  3
Center ____ _ ____ _ ____ _ ____ _ ____ _ ____
 72
    65
 73
     4
 40
10.16
 49
6.35
 74
     0
 49
-1.27
 74
     0
 49
1.27
 74
     0
 49
-1.27
 74
     0
  0
LTYPE
  5
42
330
5
100
AcDbSymbolTableRecord
100
AcDbLinetypeTableRecord
  2
CENTERX2
 70
     0
  3
Center (2x) ________  __  ________  __  _____
 72
    65
 73
     4
 40
20.32
 49
12.7
 74
     0
 49
-2.54
 74
     0
 49
2.54
 74
     0
 49
-2.54
 74
     0
  0
LTYPE
  5
43
330
5
100
AcDbSymbolTableRecord
100
AcDbLinetypeTableRecord
  2
DOT2
 70
     0
  3
Dot (.5x) ........................................
 72
    65
 73
     2
 40
0.635
 49
0.0
 74
     0
 49
-0.635
 74
     0
  0
ENDTAB
  0
TABLE
  2
LAYER
  5
2
330
0
100
AcDbSymbolTable
 70
     1
  0
LAYER
  5
10
330
2
100
AcDbSymbolTableRecord
100
AcDbLayerTableRecord
  2
0
 70
     0
 62
     7
  6
Continuous
370
    -3
390
F
  0
ENDTAB
  0
TABLE
  2
STYLE
  5
3
330
0
100
AcDbSymbolTable
 70
     1
  0
STYLE
  5
11
330
3
100
AcDbSymbolTableRecord
100
AcDbTextStyleTableRecord
  2
Standard
 70
     0
 40
0.0
 41
1.0
 50
0.0
 71
     0
 42
4.0
  3
txt
  4

  0
ENDTAB
  0
TABLE
  2
VIEW
  5
6
330
0
100
AcDbSymbolTable
 70
     0
  0
ENDTAB
  0
TABLE
  2
UCS
  5
7
330
0
100
AcDbSymbolTable
 70
     0
  0
ENDTAB
  0
TABLE
  2
APPID
  5
9
330
0
100
AcDbSymbolTable
 70
     1
  0
APPID
  5
12
330
9
100
AcDbSymbolTableRecord
100
AcDbRegAppTableRecord
  2
ACAD
 70
     0
  0
ENDTAB
  0
TABLE
  2
DIMSTYLE
  5
A
330
0
100
AcDbSymbolTable
 70
     1
100
AcDbDimStyleTable
  0
DIMSTYLE
105
27
330
A
100
AcDbSymbolTableRecord
100
AcDbDimStyleTableRecord
  2
ISO-25
 70
     0
 41
2.5
 42
0.625
 43
3.75
 44
1.25
 73
     0
 74
     0
 77
     1
 78
     8
140
2.5
141
2.5
143
0.0393700787
147
0.625
171
     3
172
     1
178
     0
271
     2
272
     2
274
     3
278
    44
283
     0
284
     8
340
11
  0
ENDTAB
  0
TABLE
  2
BLOCK_RECORD
  5
1
330
0
100
AcDbSymbolTable
 70
     1
  0
BLOCK_RECORD
  5
1F
330
1
100
AcDbSymbolTableRecord
100
AcDbBlockTableRecord
  2
*Model_Space
340
22
  0
BLOCK_RECORD
  5
1B
330
1
100
AcDbSymbolTableRecord
100
AcDbBlockTableRecord
  2
*Paper_Space
340
1E
  0
BLOCK_RECORD
  5
23
330
1
100
AcDbSymbolTableRecord
100
AcDbBlockTableRecord
  2
*Paper_Space0
340
26
  0
ENDTAB
  0
ENDSEC
  0
SECTION
  2
BLOCKS
  0
BLOCK
  5
20
330
1F
100
AcDbEntity
  8
0
100
AcDbBlockBegin
  2
*Model_Space
 70
     0
 10
0.0
 20
0.0
 30
0.0
  3
*Model_Space
  1

  0
ENDBLK
  5
21
330
1F
100
AcDbEntity
  8
0
100
AcDbBlockEnd
  0
BLOCK
  5
1C
330
1B
100
AcDbEntity
 67
     1
  8
0
100
AcDbBlockBegin
  2
*Paper_Space
 70
     0
 10
0.0
 20
0.0
 30
0.0
  3
*Paper_Space
  1

  0
ENDBLK
  5
1D
330
1B
100
AcDbEntity
 67
     1
  8
0
100
AcDbBlockEnd
  0
BLOCK
  5
24
330
23
100
AcDbEntity
  8
0
100
AcDbBlockBegin
  2
*Paper_Space0
 70
     0
 10
0.0
 20
0.0
 30
0.0
  3
*Paper_Space0
  1

  0
ENDBLK
  5
25
330
23
100
AcDbEntity
  8
0
100
AcDbBlockEnd
  0
ENDSEC
  0
SECTION
  2
ENTITIES
  0
SPLINE
  5
44
330
1F
100
AcDbEntity
  8
0
  6
Continuous
 62
     7
370
    15
100
AcDbSpline
210
0.0
220
0.0
230
1.0
 70
     8
 71
     3
 72
    15
 73
    11
 74
     0
 42
0.00000001
 43
0.00000001
 12
1.0
 22
0.0
 32
0.0
 13
1.0
 23
0.0
 33
0.0
 40
0.0
 40
0.0
 40
0.0
 40
0.0
 40
0.1284406196239551
 40
0.2549289633384365
 40
0.37871613373222
 40
0.5019943023285408
 40
0.6244069801949362
 40
0.7481941505887255
 40
0.8726200048728986
 40
1.0
 40
1.0
 40
1.0
 40
1.0
 10
405.7692307692308
 20
109.9459134615385
 30
0.0
 10
405.7652064048984
 20
109.7985816093803
 30
0.0
 10
405.7572188458976
 20
109.5061573245444
 30
0.0
 10
405.710497742333
 20
109.0734293738275
 30
0.0
 10
405.623278412651
 20
108.6534455125846
 30
0.0
 10
405.5121736323577
 20
108.2438397983754
 30
0.0
 10
405.3586253791402
 20
107.8480440521842
 30
0.0
 10
405.1764108582399
 20
107.4634779792175
 30
0.0
 10
404.958591277669
 20
107.0908321325086
 30
0.0
 10
404.7905401717547
 20
106.8557160547554
 30
0.0
 10
404.7055288461539
 20
106.7367788461539
 30
0.0
  0
SPLINE
  5
45
330
1F
100
AcDbEntity
  8
0
  6
Continuous
 62
     7
370
    15
100
AcDbSpline
210
0.0
220
0.0
230
1.0
 70
     8
 71
     3
 72
    23
 73
    19
 74
     0
 42
0.00000001
 43
0.00000001
 12
1.0
 22
0.0
 32
0.0
 13
1.0
 23
0.0
 33
0.0
 40
0.0
 40
0.0
 40
0.0
 40
0.0
 40
0.0609006207236224
 40
0.1203023179599361
 40
0.1780151448309675
 40
0.2355064872928581
 40
0.2936199844226701
 40
0.3519276448356888
 40
0.4122277714919692
 40
0.4742650492986268
 40
0.5374225968626525
 40
0.5997449214297663
 40
0.6623304766619192
 40
0.7259634480849598
 40
0.7907697220612204
 40
0.857969464633329
 40
0.9275234101076496
 40
1.0
 40
1.0
 40
1.0
 40
1.0
 10
401.4603365384616
 20
114.8076923076923
 30
0.0
 10
401.6077932073977
 20
114.8037241933601
 30
0.0
 10
401.8990772511542
 20
114.7958856303632
 30
0.0
 10
402.3262696130242
 20
114.7315727176304
 30
0.0
 10
402.736028305465
 20
114.6255784341932
 30
0.0
 10
403.1297369855594
 20
114.4780762935822
 30
0.0
 10
403.5045795755213
 20
114.2847394728345
 30
0.0
 10
403.8637874663281
 20
114.0510625128531
 30
0.0
 10
404.2021747918185
 20
113.7729904772286
 30
0.0
 10
404.5233773883138
 20
113.4585515715357
 30
0.0
 10
404.8162916182288
 20
113.110662742737
 30
0.0
 10
405.0692463562173
 20
112.7313076023845
 30
0.0
 10
405.2877260089147
 20
112.3299345086634
 30
0.0
 10
405.4655943445912
 20
111.9021087986843
 30
0.0
 10
405.5995342978205
 20
111.4472352737546
 30
0.0
 10
405.6998423756683
 20
110.9692307659332
 30
0.0
 10
405.7560342510304
 20
110.465076862417
 30
0.0
 10
405.7647719959547
 20
110.121325783377
 30
0.0
 10
405.7692307692308
 20
109.9459134615385
 30
0.0
  0
SPLINE
  5
46
330
1F
100
AcDbEntity
  8
0
  6
Continuous
 62
     7
370
    15
100
AcDbSpline
210
0.0
220
0.0
230
1.0
 70
     8
 71
     3
 72
    11
 73
     7
 74
     0
 42
0.00000001
 43
0.00000001
 12
1.0
 22
0.0
 32
0.0
 13
1.0
 23
0.0
 33
0.0
 40
0.0
 40
0.0
 40
0.0
 40
0.0
 40
0.2650129960900825
 40
0.5160880842204949
 40
0.7599173304198424
 40
1.0
 40
1.0
 40
1.0
 40
1.0
 10
399.6093750000001
 20
114.2457932692308
 30
0.0
 10
399.7594543896419
 20
114.3323843618402
 30
0.0
 10
400.0517199985891
 20
114.5010124357637
 30
0.0
 10
400.5183239879611
 20
114.6745995716787
 30
0.0
 10
400.9873249224142
 20
114.7860105906088
 30
0.0
 10
401.3034819240494
 20
114.8005024686745
 30
0.0
 10
401.4603365384616
 20
114.8076923076923
 30
0.0
  0
SPLINE
  5
4D
330
1F
100
AcDbEntity
  8
0
  6
Continuous
 62
     7
370
    15
100
AcDbSpline
210
0.0
220
0.0
230
1.0
 70
     8
 71
     3
 72
    15
 73
    11
 74
     0
 42
0.00000001
 43
0.00000001
 12
1.0
 22
0.0
 32
0.0
 13
1.0
 23
0.0
 33
0.0
 40
0.0
 40
0.0
 40
0.0
 40
0.0
 40
0.1164608859991735
 40
0.2323412937112432
 40
0.3483544577234409
 40
0.4675094081317181
 40
0.5904608793733833
 40
0.7188540747903254
 40
0.8550053441079687
 40
1.0
 40
1.0
 40
1.0
 40
1.0
 10
400.7722355769231
 20
112.3076923076923
 30
0.0
 10
400.6758331110179
 20
112.3042361378388
 30
0.0
 10
400.4835086799164
 20
112.2973410247872
 30
0.0
 10
400.1996032579297
 20
112.241290478717
 30
0.0
 10
399.9232664829732
 20
112.1500398001186
 30
0.0
 10
399.6547855739219
 20
112.0230125037039
 30
0.0
 10
399.3948708429073
 20
111.8591935234888
 30
0.0
 10
399.1446475916594
 20
111.6580395860889
 30
0.0
 10
398.8998206058698
 20
111.4230115342629
 30
0.0
 10
398.7494336652643
 20
111.2454298786599
 30
0.0
 10
398.671875
 20
111.1538461538462
 30
0.0
  0
SPLINE
  5
4E
330
1F
100
AcDbEntity
  8
0
  6
Continuous
 62
     7
370
    15
100
AcDbSpline
210
0.0
220
0.0
230
1.0
 70
     8
 71
     3
 72
    23
 73
    19
 74
     0
 42
0.00000001
 43
0.00000001
 12
1.0
 22
0.0
 32
0.0
 13
1.0
 23
0.0
 33
0.0
 40
0.0
 40
0.0
 40
0.0
 40
0.0
 40
0.080763516234085
 40
0.1560888091516232
 40
0.2271878732431891
 40
0.2947388902563179
 40
0.3588525225472291
 40
0.4200087027996097
 40
0.4789558966409248
 40
0.5367640192035282
 40
0.5938932380463835
 40
0.6497432151565209
 40
0.7055445742142535
 40
0.7611815336900474
 40
0.8184886332503793
 40
0.8766536536395139
 40
0.9373476407922379
 40
1.0
 40
1.0
 40
1.0
 40
1.0
 10
402.8846153846154
 20
109.8828125
 30
0.0
 10
402.8830559888242
 20
109.9810472257872
 30
0.0
 10
402.8800421993883
 20
110.1709020275646
 30
0.0
 10
402.8520812871549
 20
110.4459695823581
 30
0.0
 10
402.8091614408679
 20
110.7030227540536
 30
0.0
 10
402.7408827400911
 20
110.9401821074056
 30
0.0
 10
402.662903088929
 20
111.1618564617283
 30
0.0
 10
402.5577668609147
 20
111.3601889224244
 30
0.0
 10
402.442405617615
 20
111.5437954691184
 30
0.0
 10
402.3017977805262
 20
111.7027695974244
 30
0.0
 10
402.1485927029285
 20
111.8432334262974
 30
0.0
 10
401.9854298209659
 20
111.968384389612
 30
0.0
 10
401.8104775304661
 20
112.0728108240495
 30
0.0
 10
401.625477873416
 20
112.1624392855927
 30
0.0
 10
401.4272238908932
 20
112.22772422174
 30
0.0
 10
401.2173236750295
 20
112.2711579941629
 30
0.0
 10
400.9985995675924
 20
112.3037636829935
 30
0.0
 10
400.8484846992586
 20
112.3063689780215
 30
0.0
 10
400.7722355769231
 20
112.3076923076923
 30
0.0
  0
SPLINE
  5
4F
330
1F
100
AcDbEntity
  8
0
  6
Continuous
 62
     7
370
    15
100
AcDbSpline
210
0.0
220
0.0
230
1.0
 70
     8
 71
     3
 72
    23
 73
    19
 74
     0
 42
0.00000001
 43
0.00000001
 12
1.0
 22
0.0
 32
0.0
 13
1.0
 23
0.0
 33
0.0
 40
0.0
 40
0.0
 40
0.0
 40
0.0
 40
0.0613292552330893
 40
0.1200529602621836
 40
0.1782193636432878
 40
0.2346652732309008
 40
0.2909028561819883
 40
0.3475356045248306
 40
0.4040853896319991
 40
0.46274910107652
 40
0.5223753089003561
 40
0.5823107553566201
 40
0.6436973991754715
 40
0.7075764816682562
 40
0.7745019988245568
 40
0.8455657277207961
 40
0.9202690606734147
 40
1.0
 40
1.0
 40
1.0
 40
1.0
 10
400.5588942307692
 20
107.3076923076923
 30
0.0
 10
400.6391223971847
 20
107.3091018293321
 30
0.0
 10
400.7961702667208
 20
107.3118609896182
 30
0.0
 10
401.0276029342809
 20
107.3431809969203
 30
0.0
 10
401.2486847421027
 20
107.3940650525097
 30
0.0
 10
401.461507417177
 20
107.4631241686343
 30
0.0
 10
401.6638542775788
 20
107.5539515649432
 30
0.0
 10
401.8559052317162
 20
107.6651005278834
 30
0.0
 10
402.0383779900869
 20
107.7967272119488
 30
0.0
 10
402.2121961445513
 20
107.9455626503717
 30
0.0
 10
402.372805517683
 20
108.1154930750272
 30
0.0
 10
402.5070348643529
 20
108.3110955777331
 30
0.0
 10
402.6259451010754
 20
108.5223740888259
 30
0.0
 10
402.7228139727737
 20
108.7550683604601
 30
0.0
 10
402.7926429371236
 20
109.0099938716992
 30
0.0
 10
402.8481969078028
 20
109.282786458089
 30
0.0
 10
402.8765156364674
 20
109.5767395914964
 30
0.0
 10
402.8818575004544
 20
109.7785977008415
 30
0.0
 10
402.8846153846154
 20
109.8828125
 30
0.0
  0
SPLINE
  5
50
330
1F
100
AcDbEntity
  8
0
  6
Continuous
 62
     7
370
    15
100
AcDbSpline
210
0.0
220
0.0
230
1.0
 70
     8
 71
     3
 72
    15
 73
    11
 74
     0
 42
0.00000001
 43
0.00000001
 12
1.0
 22
0.0
 32
0.0
 13
1.0
 23
0.0
 33
0.0
 40
0.0
 40
0.0
 40
0.0
 40
0.0
 40
0.1443560809042939
 40
0.2779814235234693
 40
0.4056762364658245
 40
0.5317913282467994
 40
0.6541207714660084
 40
0.769533837188089
 40
0.8839695423837616
 40
1.0
 40
1.0
 40
1.0
 40
1.0
 10
398.2692307692308
 20
109.6153846153846
 30
0.0
 10
398.2968874973813
 20
109.4458426702761
 30
0.0
 10
398.3501450852371
 20
109.1193617146215
 30
0.0
 10
398.5154727391545
 20
108.6635692184711
 30
0.0
 10
398.7457141896999
 20
108.2620342316869
 30
0.0
 10
399.0416164346873
 20
107.9239259143141
 30
0.0
 10
399.378390332634
 20
107.648945133403
 30
0.0
 10
399.75044073422
 20
107.4529076669071
 30
0.0
 10
400.1464982941453
 20
107.3294824955632
 30
0.0
 10
400.4207962337774
 20
107.3149891334653
 30
0.0
 10
400.5588942307692
 20
107.3076923076923
 30
0.0
  0
SPLINE
  5
52
330
1F
100
AcDbEntity
  8
0
  6
Continuous
 62
     7
370
    15
100
AcDbSpline
210
0.0
220
0.0
230
1.0
 70
     8
 71
     3
 72
    23
 73
    19
 74
     0
 42
0.00000001
 43
0.00000001
 12
1.0
 22
0.0
 32
0.0
 13
1.0
 23
0.0
 33
0.0
 40
0.0
 40
0.0
 40
0.0
 40
0.0
 40
0.0686820088900112
 40
0.1341053709709371
 40
0.1975679288876525
 40
0.2586952636031342
 40
0.3189424287643839
 40
0.3783525933343512
 40
0.4377332491936434
 40
0.4977361043058601
 40
0.5581216416410237
 40
0.6177169549675972
 40
0.6778878797972693
 40
0.738931870506855
 40
0.8010022243488665
 40
0.8649586617602208
 40
0.9313520245996553
 40
1.0
 40
1.0
 40
1.0
 40
1.0
 10
400.6790865384615
 20
104.8076923076923
 30
0.0
 10
400.5106464906106
 20
104.8107347786369
 30
0.0
 10
400.1817581038484
 20
104.816675369212
 30
0.0
 10
399.7001084312657
 20
104.8754233722342
 30
0.0
 10
399.2436634524388
 20
104.9708671159137
 30
0.0
 10
398.8095435132278
 20
105.1033144531463
 30
0.0
 10
398.4003262468776
 20
105.2753317520837
 30
0.0
 10
398.0128321246262
 20
105.4830109568507
 30
0.0
 10
397.6502896345286
 20
105.730955257461
 30
0.0
 10
397.3143682549391
 20
106.0172915199089
 30
0.0
 10
397.0058996235297
 20
106.3337761236029
 30
0.0
 10
396.730759182498
 20
106.6800676331472
 30
0.0
 10
396.4859562611165
 20
107.0503744071328
 30
0.0
 10
396.2761612709397
 20
107.4484382312202
 30
0.0
 10
396.0973663552104
 20
107.8714674525776
 30
0.0
 10
395.9550023187757
 20
108.3216301002885
 30
0.0
 10
395.8377869511825
 20
108.7959240894649
 30
0.0
 10
395.7923357765974
 20
109.1240588043049
 30
0.0
 10
395.7692307692308
 20
109.2908653846154
 30
0.0
  0
SPLINE
  5
53
330
1F
100
AcDbEntity
  8
0
  6
Continuous
 62
     7
370
    15
100
AcDbSpline
210
0.0
220
0.0
230
1.0
 70
     8
 71
     3
 72
    15
 73
    11
 74
     0
 42
0.00000001
 43
0.00000001
 12
1.0
 22
0.0
 32
0.0
 13
1.0
 23
0.0
 33
0.0
 40
0.0
 40
0.0
 40
0.0
 40
0.0
 40
0.127265213834789
 40
0.2504727448331149
 40
0.3709183694476877
 40
0.4903519675537723
 40
0.612039162863207
 40
0.7361283332358934
 40
0.8651603406623681
 40
1.0
 40
1.0
 40
1.0
 40
1.0
 10
404.7055288461539
 20
106.7367788461539
 30
0.0
 10
404.5815993702171
 20
106.5836287235254
 30
0.0
 10
404.3376917455941
 20
106.2822114671486
 30
0.0
 10
403.9201543093751
 20
105.8859226906627
 30
0.0
 10
403.4660312007056
 20
105.5531093670348
 30
0.0
 10
402.9765523953249
 20
105.2797854578351
 30
0.0
 10
402.4522393491296
 20
105.0653010440328
 30
0.0
 10
401.8907264219891
 20
104.9161816109767
 30
0.0
 10
401.2961307052012
 20
104.8239234828774
 30
0.0
 10
400.8877638942139
 20
104.8131815074951
 30
0.0
 10
400.6790865384615
 20
104.8076923076923
 30
0.0
  0
SPLINE
  5
5F
330
1F
100
AcDbEntity
  8
0
  6
Continuous
 62
     7
370
    15
100
AcDbSpline
210
0.0
220
0.0
230
1.0
 70
     8
 71
     3
 72
    23
 73
    19
 74
     0
 42
0.00000001
 43
0.00000001
 12
1.0
 22
0.0
 32
0.0
 13
1.0
 23
0.0
 33
0.0
 40
0.0
 40
0.0
 40
0.0
 40
0.0
 40
0.0648363736258081
 40
0.1279449161034012
 40
0.1894280196116068
 40
0.2503554464126834
 40
0.3103592653539374
 40
0.3704596207746331
 40
0.4311232293228704
 40
0.4928228177782785
 40
0.5547568576995072
 40
0.61638123330072
 40
0.6775618660834184
 40
0.7393365758188236
 40
0.8019316697439374
 40
0.8659401578582695
 40
0.9321916958894068
 40
1.0
 40
1.0
 40
1.0
 40
1.0
 10
212.8425480769231
 20
113.0018028846154
 30
0.0
 10
212.9441262561141
 20
112.9773202472216
 30
0.0
 10
213.1445756472155
 20
112.9290074127403
 30
0.0
 10
213.4341489352732
 20
112.8305128520385
 30
0.0
 10
213.7053355876303
 20
112.7041709102102
 30
0.0
 10
213.964777456057
 20
112.5653509007242
 30
0.0
 10
214.2060362010122
 20
112.4007385867716
 30
0.0
 10
214.433788270037
 20
112.2183373262017
 30
0.0
 10
214.6393235160669
 20
112.0076125216288
 30
0.0
 10
214.8362723145972
 20
111.7849811364602
 30
0.0
 10
215.0084307312511
 20
111.5406522227481
 30
0.0
 10
215.1639869782591
 20
111.2864018155861
 30
0.0
 10
215.2889329083851
 20
111.0160264900841
 30
0.0
 10
215.3957993650707
 20
110.7364780696979
 30
0.0
 10
215.4754279437409
 20
110.44323811701
 30
0.0
 10
215.5377825888413
 20
110.1385005340249
 30
0.0
 10
215.5690368022414
 20
109.8203685464453
 30
0.0
 10
215.5742740462472
 20
109.6044202849451
 30
0.0
 10
215.5769230769231
 20
109.4951923076923
 30
0.0
  0
SPLINE
  5
60
330
1F
100
AcDbEntity
  8
0
  6
Continuous
 62
     7
370
    15
100
AcDbSpline
210
0.0
220
0.0
230
1.0
 70
     8
 71
     3
 72
    15
 73
    11
 74
     0
 42
0.00000001
 43
0.00000001
 12
1.0
 22
0.0
 32
0.0
 13
1.0
 23
0.0
 33
0.0
 40
0.0
 40
0.0
 40
0.0
 40
0.0
 40
0.1196964719965255
 40
0.2359437583202372
 40
0.3505624285330323
 40
0.4675738794453418
 40
0.5886790971730624
 40
0.7164321348375393
 40
0.8533140436686101
 40
1.0
 40
1.0
 40
1.0
 40
1.0
 10
215.0
 20
116.1538461538462
 30
0.0
 10
214.9941247987144
 20
115.9930207597599
 30
0.0
 10
214.982543696539
 20
115.676004332449
 30
0.0
 10
214.8762729713025
 20
115.2148395459201
 30
0.0
 10
214.7054670458702
 20
114.7788939563062
 30
0.0
 10
214.469291352029
 20
114.3665022476501
 30
0.0
 10
214.1613731068975
 20
113.9814912599582
 30
0.0
 10
213.7823144763632
 20
113.6273252659397
 30
0.0
 10
213.3432538056358
 20
113.290489119912
 30
0.0
 10
213.0132531235438
 20
113.1002243614013
 30
0.0
 10
212.8425480769231
 20
113.0018028846154
 30
0.0
  0
SPLINE
  5
61
330
1F
100
AcDbEntity
  8
0
  6
Continuous
 62
     7
370
    15
100
AcDbSpline
210
0.0
220
0.0
230
1.0
 70
     8
 71
     3
 72
    15
 73
    11
 74
     0
 42
0.00000001
 43
0.00000001
 12
1.0
 22
0.0
 32
0.0
 13
1.0
 23
0.0
 33
0.0
 40
0.0
 40
0.0
 40
0.0
 40
0.0
 40
0.1331978343624725
 40
0.2630795403811794
 40
0.3876611031449241
 40
0.5115071050662574
 40
0.6323856124295678
 40
0.7532592432015576
 40
0.8761016530293139
 40
1.0
 40
1.0
 40
1.0
 40
1.0
 10
213.9723557692308
 20
118.6508413461539
 30
0.0
 10
214.0541246016138
 20
118.5590558727179
 30
0.0
 10
214.2156265280063
 20
118.3777700411519
 30
0.0
 10
214.4253150285001
 20
118.0871212913103
 30
0.0
 10
214.6008130202021
 20
117.7851110089432
 30
0.0
 10
214.7496806991075
 20
117.4780407638752
 30
0.0
 10
214.8603879229946
 20
117.1587899247615
 30
0.0
 10
214.9429210424708
 20
116.8323699228669
 30
0.0
 10
214.9919427998577
 20
116.495888473892
 30
0.0
 10
214.9973066150638
 20
116.2681850825149
 30
0.0
 10
215.0000000000001
 20
116.1538461538462
 30
0.0
  0
SPLINE
  5
62
330
1F
100
AcDbEntity
  8
0
  6
Continuous
 62
     7
370
    15
100
AcDbSpline
210
0.0
220
0.0
230
1.0
 70
     8
 71
     3
 72
    15
 73
    11
 74
     0
 42
0.00000001
 43
0.00000001
 12
1.0
 22
0.0
 32
0.0
 13
1.0
 23
0.0
 33
0.0
 40
0.0
 40
0.0
 40
0.0
 40
0.0
 40
0.1371223374139042
 40
0.2679123640023217
 40
0.3935226983663876
 40
0.5160237818867045
 40
0.6367751505916612
 40
0.7569302398618479
 40
0.8771627914374638
 40
0.9999999999999999
 40
0.9999999999999999
 40
0.9999999999999999
 40
0.9999999999999999
 10
210.6610576923077
 20
120.0
 30
0.0
 10
210.8295345759774
 20
119.9961662968553
 30
0.0
 10
211.1587080792519
 20
119.9886759310131
 30
0.0
 10
211.6387210610307
 20
119.9242228246273
 30
0.0
 10
212.092895050695
 20
119.81951803669
 30
0.0
 10
212.5218631694256
 20
119.6714058523404
 30
0.0
 10
212.9276139712701
 20
119.4828248144852
 30
0.0
 10
213.3033738159942
 20
119.2455583136121
 30
0.0
 10
213.6570254995812
 20
118.9716891717125
 30
0.0
 10
213.8664974680441
 20
118.7585519246239
 30
0.0
 10
213.9723557692308
 20
118.6508413461539
 30
0.0
  0
SPLINE
  5
63
330
1F
100
AcDbEntity
  8
0
  6
Continuous
 62
     7
370
    15
100
AcDbSpline
210
0.0
220
0.0
230
1.0
 70
     8
 71
     3
 72
    19
 73
    15
 74
     0
 42
0.00000001
 43
0.00000001
 12
1.0
 22
0.0
 32
0.0
 13
1.0
 23
0.0
 33
0.0
 40
0.0
 40
0.0
 40
0.0
 40
0.0
 40
0.1017340290565201
 40
0.1947417213437007
 40
0.2792788916351184
 40
0.3566660711123604
 40
0.4309560396784015
 40
0.5058196632789127
 40
0.5820998940514586
 40
0.6615079801926975
 40
0.7432594774158062
 40
0.8260386158600269
 40
0.9112078215062809
 40
1.0
 40
1.0
 40
1.0
 40
1.0
 10
206.1538461538462
 20
116.0096153846154
 30
0.0
 10
206.2014103231263
 20
116.2298494574677
 30
0.0
 10
206.2924587981132
 20
116.6514268081686
 30
0.0
 10
206.4784846410011
 20
117.2420884397244
 30
0.0
 10
206.6967582689315
 20
117.7635063656787
 30
0.0
 10
206.9517787249826
 20
118.2215237682021
 30
0.0
 10
207.2538558132734
 20
118.624204988824
 30
0.0
 10
207.612513766258
 20
118.9737318927046
 30
0.0
 10
208.0223864515387
 20
119.2802469197683
 30
0.0
 10
208.4826912299432
 20
119.5370796345547
 30
0.0
 10
208.9831758295007
 20
119.742932746014
 30
0.0
 10
209.5158124896492
 20
119.8952899778459
 30
0.0
 10
210.0792427558566
 20
119.9826043384799
 30
0.0
 10
210.4644452651731
 20
119.994121492903
 30
0.0
 10
210.6610576923077
 20
120.0
 30
0.0
  0
SPLINE
  5
65
330
1F
100
AcDbEntity
  8
0
  6
Continuous
 62
     7
370
    15
100
AcDbSpline
210
0.0
220
0.0
230
1.0
 70
     8
 71
     3
 72
    15
 73
    11
 74
     0
 42
0.00000001
 43
0.00000001
 12
1.0
 22
0.0
 32
0.0
 13
1.0
 23
0.0
 33
0.0
 40
0.0
 40
0.0
 40
0.0
 40
0.0
 40
0.1112445267597471
 40
0.2186681940362471
 40
0.3280057699508629
 40
0.4429090160362676
 40
0.5650280044203796
 40
0.6953192066560051
 40
0.8398843030466739
 40
1.0
 40
1.0
 40
1.0
 40
1.0
 10
210.6850961538462
 20
117.5
 30
0.0
 10
210.5811189709351
 20
117.4948600937138
 30
0.0
 10
210.3767358568137
 20
117.4847568189024
 30
0.0
 10
210.0842784516979
 20
117.3848194100179
 30
0.0
 10
209.814470813777
 20
117.2301922936544
 30
0.0
 10
209.5763849571503
 20
117.0087518831993
 30
0.0
 10
209.3700307841104
 20
116.7333368604132
 30
0.0
 10
209.2101211989429
 20
116.3974472100401
 30
0.0
 10
209.0975052246698
 20
116.0063453012901
 30
0.0
 10
209.0588012380188
 20
115.7248528487202
 30
0.0
 10
209.0384615384616
 20
115.5769230769231
 30
0.0
  0
SPLINE
  5
66
330
1F
100
AcDbEntity
  8
0
  6
Continuous
 62
     7
370
    15
100
AcDbSpline
210
0.0
220
0.0
230
1.0
 70
     8
 71
     3
 72
    15
 73
    11
 74
     0
 42
0.00000001
 43
0.00000001
 12
1.0
 22
0.0
 32
0.0
 13
1.0
 23
0.0
 33
0.0
 40
0.0
 40
0.0
 40
0.0
 40
0.0
 40
0.1433711005354734
 40
0.2749037179736852
 40
0.3990371425867081
 40
0.5191877860943139
 40
0.6363136468940057
 40
0.752164774962474
 40
0.8714108513940201
 40
1.0
 40
1.0
 40
1.0
 40
1.0
 10
212.1153846153846
 20
115.9014423076923
 30
0.0
 10
212.1111684998169
 20
116.0170224754817
 30
0.0
 10
212.1030844030871
 20
116.2386390895038
 30
0.0
 10
212.0305645803415
 20
116.5539892757434
 30
0.0
 10
211.906788318442
 20
116.8324044657338
 30
0.0
 10
211.7336535969787
 20
117.0690519058611
 30
0.0
 10
211.5212753779231
 20
117.2612168715219
 30
0.0
 10
211.273038598011
 20
117.4032127813637
 30
0.0
 10
210.9887078370565
 20
117.4860153136056
 30
0.0
 10
210.7888119878475
 20
117.4952227351817
 30
0.0
 10
210.6850961538462
 20
117.5
 30
0.0
  0
SPLINE
  5
67
330
1F
100
AcDbEntity
  8
0
  6
Continuous
 62
     7
370
    15
100
AcDbSpline
210
0.0
220
0.0
230
1.0
 70
     8
 71
     3
 72
    19
 73
    15
 74
     0
 42
0.00000001
 43
0.00000001
 12
1.0
 22
0.0
 32
0.0
 13
1.0
 23
0.0
 33
0.0
 40
0.0
 40
0.0
 40
0.0
 40
0.0
 40
0.076395799076913
 40
0.1482456825776884
 40
0.2170085330069081
 40
0.2814161838437018
 40
0.343671143479903
 40
0.4026077297746924
 40
0.4616756899907009
 40
0.519888336438452
 40
0.6353224899631442
 40
0.7502102534132792
 40
0.8706548390889042
 40
0.9999999999999999
 40
0.9999999999999999
 40
0.9999999999999999
 40
0.9999999999999999
 10
210.078125
 20
114.0384615384616
 30
0.0
 10
210.1582865414003
 20
114.037086435534
 30
0.0
 10
210.3138396289385
 20
114.0344180548823
 30
0.0
 10
210.5409937996911
 20
114.0532512245128
 30
0.0
 10
210.7536171077557
 20
114.0876363848386
 30
0.0
 10
210.9512134340132
 20
114.1434261186996
 30
0.0
 10
211.133966762322
 20
114.2111104597539
 30
0.0
 10
211.3034754190467
 20
114.296150791581
 30
0.0
 10
211.4555924716834
 20
114.4019790948682
 30
0.0
 10
211.6408048438319
 20
114.5617263593846
 30
0.0
 10
211.8302938458136
 20
114.8010980692366
 30
0.0
 10
212.0016038922563
 20
115.129330454079
 30
0.0
 10
212.0970544164499
 20
115.5035847697912
 30
0.0
 10
212.1091311090895
 20
115.7657097590881
 30
0.0
 10
212.1153846153846
 20
115.9014423076923
 30
0.0
  0
SPLINE
  5
69
330
1F
100
AcDbEntity
  8
0
  6
Continuous
 62
     7
370
    15
100
AcDbSpline
210
0.0
220
0.0
230
1.0
 70
     8
 71
     3
 72
    11
 73
     7
 74
     0
 42
0.00000001
 43
0.00000001
 12
1.0
 22
0.0
 32
0.0
 13
1.0
 23
0.0
 33
0.0
 40
0.0
 40
0.0
 40
0.0
 40
0.0
 40
0.2136313786717045
 40
0.4528759807056739
 40
0.7136025858132736
 40
1.0
 40
1.0
 40
1.0
 40
1.0
 10
210.9525240384615
 20
111.9230769230769
 30
0.0
 10
210.8692225514153
 20
111.9209453887822
 30
0.0
 10
210.6926321887314
 20
111.9164267609939
 30
0.0
 10
210.4179554412874
 20
111.8694776994462
 30
0.0
 10
210.1184192574973
 20
111.8046858758019
 30
0.0
 10
209.9144578824786
 20
111.7423604369241
 30
0.0
 10
209.8076923076923
 20
111.7097355769231
 30
0.0
  0
SPLINE
  5
6A
330
1F
100
AcDbEntity
  8
0
  6
Continuous
 62
     7
370
    15
100
AcDbSpline
210
0.0
220
0.0
230
1.0
 70
     8
 71
     3
 72
    15
 73
    11
 74
     0
 42
0.00000001
 43
0.00000001
 12
1.0
 22
0.0
 32
0.0
 13
1.0
 23
0.0
 33
0.0
 40
0.0
 40
0.0
 40
0.0
 40
0.0
 40
0.1551891076953957
 40
0.2960401486453831
 40
0.4267637504064227
 40
0.5519118562685725
 40
0.6708037237520251
 40
0.7806745890737863
 40
0.8891194926079574
 40
1.0
 40
1.0
 40
1.0
 40
1.0
 10
212.6923076923077
 20
109.6844951923077
 30
0.0
 10
212.6860544968621
 20
109.8482097506195
 30
0.0
 10
212.6741258445444
 20
110.1605131261448
 30
0.0
 10
212.5819493471276
 20
110.6035870565975
 30
0.0
 10
212.4220988324714
 20
110.9930670208088
 30
0.0
 10
212.1981404292015
 20
111.321965937812
 30
0.0
 10
211.9320141162923
 20
111.5865404228949
 30
0.0
 10
211.6338978063858
 20
111.7854158268639
 30
0.0
 10
211.3009739222352
 20
111.8996682511195
 30
0.0
 10
211.069530723594
 20
111.9152164781848
 30
0.0
 10
210.9525240384615
 20
111.9230769230769
 30
0.0
  0
SPLINE
  5
6B
330
1F
100
AcDbEntity
  8
0
  6
Continuous
 62
     7
370
    15
100
AcDbSpline
210
0.0
220
0.0
230
1.0
 70
     8
 71
     3
 72
    23
 73
    19
 74
     0
 42
0.00000001
 43
0.00000001
 12
1.0
 22
0.0
 32
0.0
 13
1.0
 23
0.0
 33
0.0
 40
0.0
 40
0.0
 40
0.0
 40
0.0
 40
0.0594850524583279
 40
0.1178305957578905
 40
0.1748645467675659
 40
0.2313233068588222
 40
0.2875648537771764
 40
0.3441810636561458
 40
0.4028499236817928
 40
0.463752219098064
 40
0.525627272808517
 40
0.5872620807904969
 40
0.6504421584534601
 40
0.7150617611836844
 40
0.7821428128071689
 40
0.8514002647807353
 40
0.9241625797277031
 40
1.0
 40
1.0
 40
1.0
 40
1.0
 10
210.6820913461539
 20
107.3076923076923
 30
0.0
 10
210.7513118724502
 20
107.309178781869
 30
0.0
 10
210.8884269209387
 20
107.3121232549857
 30
0.0
 10
211.0899895469348
 20
107.3430165580868
 30
0.0
 10
211.2836596081861
 20
107.3937977933997
 30
0.0
 10
211.4675262656466
 20
107.4668682067191
 30
0.0
 10
211.6424672639312
 20
107.5576591900336
 30
0.0
 10
211.8107862909818
 20
107.6657789010923
 30
0.0
 10
211.9654125898629
 20
107.8008159227612
 30
0.0
 10
212.1163778012721
 20
107.9485607306218
 30
0.0
 10
212.2503460421301
 20
108.1167437572392
 30
0.0
 10
212.3683561083369
 20
108.2992152857712
 30
0.0
 10
212.4719455149284
 20
108.4941654699341
 30
0.0
 10
212.5522379219903
 20
108.7066208554153
 30
0.0
 10
212.6150888598429
 20
108.931979372151
 30
0.0
 10
212.6600212678536
 20
109.1712192581857
 30
0.0
 10
212.6873670932235
 20
109.4234387068083
 30
0.0
 10
212.6906382615563
 20
109.5962840832234
 30
0.0
 10
212.6923076923077
 20
109.6844951923077
 30
0.0
  0
SPLINE
  5
6C
330
1F
100
AcDbEntity
  8
0
  6
Continuous
 62
     7
370
    15
100
AcDbSpline
210
0.0
220
0.0
230
1.0
 70
     8
 71
     3
 72
    15
 73
    11
 74
     0
 42
0.00000001
 43
0.00000001
 12
1.0
 22
0.0
 32
0.0
 13
1.0
 23
0.0
 33
0.0
 40
0.0
 40
0.0
 40
0.0
 40
0.0
 40
0.1582898674923392
 40
0.3004564688815954
 40
0.4309052803870403
 40
0.5536134903141829
 40
0.6685453581737695
 40
0.7789529920314762
 40
0.8869019756104737
 40
1.0
 40
1.0
 40
1.0
 40
1.0
 10
208.6538461538462
 20
109.6153846153846
 30
0.0
 10
208.6787578010338
 20
109.4380157358238
 30
0.0
 10
208.7260436170282
 20
109.1013446141242
 30
0.0
 10
208.8734826794129
 20
108.6353490600135
 30
0.0
 10
209.0659570028376
 20
108.2298325942649
 30
0.0
 10
209.3207833504226
 20
107.8975715559296
 30
0.0
 10
209.615405502791
 20
107.6333177213712
 30
0.0
 10
209.9439773153396
 20
107.4447629946703
 30
0.0
 10
210.3035266953758
 20
107.3258567961495
 30
0.0
 10
210.5539586194617
 20
107.3138404396698
 30
0.0
 10
210.6820913461539
 20
107.3076923076923
 30
0.0
  0
SPLINE
  5
6E
330
1F
100
AcDbEntity
  8
0
  6
Continuous
 62
     7
370
    15
100
AcDbSpline
210
0.0
220
0.0
230
1.0
 70
     8
 71
     3
 72
    23
 73
    19
 74
     0
 42
0.00000001
 43
0.00000001
 12
1.0
 22
0.0
 32
0.0
 13
1.0
 23
0.0
 33
0.0
 40
0.0
 40
0.0
 40
0.0
 40
0.0
 40
0.0673455133324327
 40
0.1322824462207194
 40
0.1952047908892194
 40
0.2567077343438471
 40
0.3172116539569635
 40
0.3772857804954447
 40
0.4378685399479033
 40
0.4990881094029314
 40
0.5604008922052839
 40
0.6212069433372178
 40
0.6816699947735251
 40
0.7426314439894791
 40
0.8044371517266041
 40
0.8676392817943598
 40
0.9324421912064809
 40
1.0
 40
1.0
 40
1.0
 40
1.0
 10
210.6219951923077
 20
104.8076923076923
 30
0.0
 10
210.4585130706177
 20
104.8104330986228
 30
0.0
 10
210.1373956880273
 20
104.8158166573918
 30
0.0
 10
209.6673065958649
 20
104.8795936410362
 30
0.0
 10
209.2170661973211
 20
104.9734170868081
 30
0.0
 10
208.7893024759002
 20
105.1106706948094
 30
0.0
 10
208.3802892696251
 20
105.2797286773098
 30
0.0
 10
207.9977465505241
 20
105.4976612034298
 30
0.0
 10
207.6318270949411
 20
105.745359591927
 30
0.0
 10
207.2944858392254
 20
106.0355184759137
 30
0.0
 10
206.9808314368248
 20
106.3517619688755
 30
0.0
 10
206.7053236088344
 20
106.6995414871328
 30
0.0
 10
206.4598094095882
 20
107.06775710563
 30
0.0
 10
206.2486437009769
 20
107.4596733228472
 30
0.0
 10
206.0735960608673
 20
107.8763085563018
 30
0.0
 10
205.9372972556085
 20
108.3165873818373
 30
0.0
 10
205.8285963336861
 20
108.779161545029
 30
0.0
 10
205.7892919787274
 20
109.0980529636031
 30
0.0
 10
205.7692307692308
 20
109.2608173076923
 30
0.0
  0
SPLINE
  5
6F
330
1F
100
AcDbEntity
  8
0
  6
Continuous
 62
     7
370
    15
100
AcDbSpline
210
0.0
220
0.0
230
1.0
 70
     8
 71
     3
 72
    23
 73
    19
 74
     0
 42
0.00000001
 43
0.00000001
 12
1.0
 22
0.0
 32
0.0
 13
1.0
 23
0.0
 33
0.0
 40
0.0
 40
0.0
 40
0.0
 40
0.0
 40
0.0629075118173252
 40
0.1240620716016167
 40
0.1839778251218918
 40
0.2432433840714781
 40
0.3028139496866611
 40
0.3630210379278939
 40
0.4246932892410751
 40
0.4884396049175408
 40
0.5525805097987426
 40
0.6148866190330102
 40
0.6773955049790205
 40
0.7393205642850764
 40
0.802192054777854
 40
0.8657714949961212
 40
0.9319586810728189
 40
1.0
 40
1.0
 40
1.0
 40
1.0
 10
215.5769230769231
 20
109.4951923076923
 30
0.0
 10
215.573556947402
 20
109.3356591468464
 30
0.0
 10
215.5669184873899
 20
109.0210383034537
 30
0.0
 10
215.4940031150989
 20
108.5592877218106
 30
0.0
 10
215.3832223411844
 20
108.1155150773521
 30
0.0
 10
215.2305566074438
 20
107.6879275530176
 30
0.0
 10
215.0263865637978
 20
107.2817567025661
 30
0.0
 10
214.7822428289157
 20
106.891304315918
 30
0.0
 10
214.4914754341351
 20
106.5204597219132
 30
0.0
 10
214.1599072713628
 20
106.1720332463714
 30
0.0
 10
213.7976107672613
 20
105.8531246750498
 30
0.0
 10
213.4083243616992
 20
105.5730069772434
 30
0.0
 10
212.9978156805101
 20
105.3359226575387
 30
0.0
 10
212.5637326086754
 20
105.1420620810497
 30
0.0
 10
212.109849781417
 20
104.9912253570128
 30
0.0
 10
211.6322599202443
 20
104.8875562309166
 30
0.0
 10
211.1348370570639
 20
104.8183929229003
 30
0.0
 10
210.7945094912818
 20
104.8112918756256
 30
0.0
 10
210.6219951923077
 20
104.8076923076923
 30
0.0
  0
SPLINE
  5
70
330
1F
100
AcDbEntity
  8
0
  6
Continuous
 62
     7
370
    15
100
AcDbSpline
210
0.0
220
0.0
230
1.0
 70
     8
 71
     3
 72
    15
 73
    11
 74
     0
 42
0.00000001
 43
0.00000001
 12
1.0
 22
0.0
 32
0.0
 13
1.0
 23
0.0
 33
0.0
 40
0.0
 40
0.0
 40
0.0
 40
0.0
 40
0.1191762436674519
 40
0.2364273787594535
 40
0.3526638478564067
 40
0.4690860844274194
 40
0.5894629077907718
 40
0.7176014692905143
 40
0.8541894668533134
 40
1.0
 40
1.0
 40
1.0
 40
1.0
 10
120.5769230769231
 20
115.9194711538462
 30
0.0
 10
120.5732531613678
 20
115.7559642697304
 30
0.0
 10
120.565972612088
 20
115.4315917032608
 30
0.0
 10
120.4962667543134
 20
114.9520721431563
 30
0.0
 10
120.3897697741678
 20
114.4836102429989
 30
0.0
 10
120.2323756233582
 20
114.0250611262812
 30
0.0
 10
120.0328663190794
 20
113.5654252630523
 30
0.0
 10
119.775694041424
 20
113.1036709591527
 30
0.0
 10
119.4770975777467
 20
112.6258725240179
 30
0.0
 10
119.2433083152252
 20
112.316954986709
 30
0.0
 10
119.1225961538461
 20
112.1574519230769
 30
0.0
  0
SPLINE
  5
71
330
1F
100
AcDbEntity
  8
0
  6
Continuous
 62
     7
370
    15
100
AcDbSpline
210
0.0
220
0.0
230
1.0
 70
     8
 71
     3
 72
    23
 73
    19
 74
     0
 42
0.00000001
 43
0.00000001
 12
1.0
 22
0.0
 32
0.0
 13
1.0
 23
0.0
 33
0.0
 40
0.0
 40
0.0
 40
0.0
 40
0.0
 40
0.0756723023817887
 40
0.1473813099735548
 40
0.2160846766840672
 40
0.2816980378616601
 40
0.3454598829002496
 40
0.4074856092774483
 40
0.4687312995608511
 40
0.5297823575334726
 40
0.5900329257114996
 40
0.6485481210783026
 40
0.7059535135830405
 40
0.7631016442005197
 40
0.8202894288974423
 40
0.87847926304405
 40
0.9382260550877838
 40
0.9999999999999999
 40
0.9999999999999999
 40
0.9999999999999999
 40
0.9999999999999999
 10
115.9735576923077
 20
120.0
 30
0.0
 10
116.1479655777576
 20
119.996647971053
 30
0.0
 10
116.4876468325666
 20
119.9901194738123
 30
0.0
 10
116.9835211618138
 20
119.936207091448
 30
0.0
 10
117.4493594659923
 20
119.8422030416352
 30
0.0
 10
117.8892344301876
 20
119.7176813729175
 30
0.0
 10
118.2986287733793
 20
119.5514358405143
 30
0.0
 10
118.6809539646809
 20
119.3504519045845
 30
0.0
 10
119.0301928748293
 20
119.1071018174179
 30
0.0
 10
119.3515513833055
 20
118.8346564952423
 30
0.0
 10
119.6388201772769
 20
118.5350549782661
 30
0.0
 10
119.8904416471963
 20
118.2154793084275
 30
0.0
 10
120.1012492860521
 20
117.8761521329448
 30
0.0
 10
120.2781492680459
 20
117.5212094739756
 30
0.0
 10
120.4094963115479
 20
117.1449397912475
 30
0.0
 10
120.5052014779752
 20
116.7525458628307
 30
0.0
 10
120.568657858193
 20
116.3421970871493
 30
0.0
 10
120.574137534204
 20
116.0619381815345
 30
0.0
 10
120.5769230769231
 20
115.9194711538462
 30
0.0
  0
SPLINE
  5
72
330
1F
100
AcDbEntity
  8
0
  6
Continuous
 62
     7
370
    15
100
AcDbSpline
210
0.0
220
0.0
230
1.0
 70
     8
 71
     3
 72
    23
 73
    19
 74
     0
 42
0.00000001
 43
0.00000001
 12
1.0
 22
0.0
 32
0.0
 13
1.0
 23
0.0
 33
0.0
 40
0.0
 40
0.0
 40
0.0
 40
0.0
 40
0.0794357226761146
 40
0.154013174283943
 40
0.2241414790393977
 40
0.2899341692032351
 40
0.3527323106719892
 40
0.4127257792496902
 40
0.4703027418920653
 40
0.5271687617359284
 40
0.5835022647141642
 40
0.6399482172133524
 40
0.6965849669119865
 40
0.7537269142919271
 40
0.8127070377388648
 40
0.8729634806368322
 40
0.9350348604089698
 40
0.9999999999999999
 40
0.9999999999999999
 40
0.9999999999999999
 40
0.9999999999999999
 10
111.1538461538462
 20
115.4747596153846
 30
0.0
 10
111.1770380147768
 20
115.6695075125199
 30
0.0
 10
111.2220033276002
 20
116.0470925688707
 30
0.0
 10
111.3342150196351
 20
116.5894348986787
 30
0.0
 10
111.4763269693574
 20
117.0897701794333
 30
0.0
 10
111.6551141323395
 20
117.5471698789056
 30
0.0
 10
111.8631870187326
 20
117.9645426155701
 30
0.0
 10
112.1111590765561
 20
118.3356254507907
 30
0.0
 10
112.390365899747
 20
118.6645289327442
 30
0.0
 10
112.7010487857635
 20
118.9510780126681
 30
0.0
 10
113.0412326223781
 20
119.1961842780893
 30
0.0
 10
113.3981945185032
 20
119.4149792312907
 30
0.0
 10
113.7789105076683
 20
119.5944606451398
 30
0.0
 10
114.1791888945569
 20
119.7423802964699
 30
0.0
 10
114.5988487853501
 20
119.8605964988055
 30
0.0
 10
115.0398311645211
 20
119.9387594490397
 30
0.0
 10
115.4994144527228
 20
119.993739568619
 30
0.0
 10
115.8131279235569
 20
119.9978817381018
 30
0.0
 10
115.9735576923077
 20
120.0
 30
0.0
  0
SPLINE
  5
74
330
1F
100
AcDbEntity
  8
0
  6
Continuous
 62
     7
370
    15
100
AcDbSpline
210
0.0
220
0.0
230
1.0
 70
     8
 71
     3
 72
    19
 73
    15
 74
     0
 42
0.00000001
 43
0.00000001
 12
1.0
 22
0.0
 32
0.0
 13
1.0
 23
0.0
 33
0.0
 40
0.0
 40
0.0
 40
0.0
 40
0.0
 40
0.1168990281982792
 40
0.2258236839530653
 40
0.3300860790235561
 40
0.4354514863452296
 40
0.4903067309632201
 40
0.548244057167717
 40
0.6107668331470256
 40
0.6776750949389454
 40
0.749188602744901
 40
0.8268587199157832
 40
0.9101115940212842
 40
1.0
 40
1.0
 40
1.0
 40
1.0
 10
115.9134615384615
 20
117.5
 30
0.0
 10
115.7826279812013
 20
117.4940724268545
 30
0.0
 10
115.5298857955684
 20
117.4826216353016
 30
0.0
 10
115.1706843119856
 20
117.382589091569
 30
0.0
 10
114.8564493090817
 20
117.2094222350628
 30
0.0
 10
114.6325087334903
 20
117.012081897491
 30
0.0
 10
114.4812262525379
 20
116.8201827523183
 30
0.0
 10
114.3781476473998
 20
116.652955288361
 30
0.0
 10
114.2893019371587
 20
116.4629336067484
 30
0.0
 10
114.2105772249094
 20
116.2522570338362
 30
0.0
 10
114.1483936025967
 20
116.0185120475543
 30
0.0
 10
114.0983147750589
 20
115.7634788517687
 30
0.0
 10
114.0579584850414
 20
115.4857850056337
 30
0.0
 10
114.0451244725042
 20
115.2926013446351
 30
0.0
 10
114.0384615384615
 20
115.1923076923077
 30
0.0
  0
SPLINE
  5
75
330
1F
100
AcDbEntity
  8
0
  6
Continuous
 62
     7
370
    15
100
AcDbSpline
210
0.0
220
0.0
230
1.0
 70
     8
 71
     3
 72
    15
 73
    11
 74
     0
 42
0.00000001
 43
0.00000001
 12
1.0
 22
0.0
 32
0.0
 13
1.0
 23
0.0
 33
0.0
 40
0.0
 40
0.0
 40
0.0
 40
0.0
 40
0.1491402908464761
 40
0.282161798197631
 40
0.404655703035362
 40
0.5211096910238625
 40
0.634416453969821
 40
0.7487964497315254
 40
0.8687105535463923
 40
1.0
 40
1.0
 40
1.0
 40
1.0
 10
117.6923076923077
 20
115.5318509615385
 30
0.0
 10
117.6869051928136
 20
115.6815115550221
 30
0.0
 10
117.6766840851345
 20
115.9646577252286
 30
0.0
 10
117.5909783306049
 20
116.3642293292845
 30
0.0
 10
117.4389930830147
 20
116.70771772768
 30
0.0
 10
117.2297373662502
 20
116.9961772644183
 30
0.0
 10
116.9651330931206
 20
117.2221842072173
 30
0.0
 10
116.6558030029842
 20
117.3891813996638
 30
0.0
 10
116.2972189994864
 20
117.4815090825153
 30
0.0
 10
116.0451850080732
 20
117.493653054195
 30
0.0
 10
115.9134615384615
 20
117.5
 30
0.0
  0
SPLINE
  5
76
330
1F
100
AcDbEntity
  8
0
  6
Continuous
 62
     7
370
    15
100
AcDbSpline
210
0.0
220
0.0
230
1.0
 70
     8
 71
     3
 72
    11
 73
     7
 74
     0
 42
0.00000001
 43
0.00000001
 12
1.0
 22
0.0
 32
0.0
 13
1.0
 23
0.0
 33
0.0
 40
0.0
 40
0.0
 40
0.0
 40
0.0
 40
0.2727955500866114
 40
0.5261910092278127
 40
0.7669044194616181
 40
1.0
 40
1.0
 40
1.0
 40
1.0
 10
117.1213942307692
 20
113.7980769230769
 30
0.0
 10
117.2082434934768
 20
113.9423428264082
 30
0.0
 10
117.3757656586304
 20
114.2206150388653
 30
0.0
 10
117.5594676106661
 20
114.6582031253651
 30
0.0
 10
117.6697323697236
 20
115.0957008217023
 30
0.0
 10
117.6848636777445
 20
115.3880342793822
 30
0.0
 10
117.6923076923077
 20
115.5318509615385
 30
0.0
  0
SPLINE
  5
77
330
1F
100
AcDbEntity
  8
0
  6
Continuous
 62
     7
370
    15
100
AcDbSpline
210
0.0
220
0.0
230
1.0
 70
     8
 71
     3
 72
    15
 73
    11
 74
     0
 42
0.00000001
 43
0.00000001
 12
1.0
 22
0.0
 32
0.0
 13
1.0
 23
0.0
 33
0.0
 40
0.0
 40
0.0
 40
0.0
 40
0.0
 40
0.1850900618630627
 40
0.3523569643820082
 40
0.50307951175905
 40
0.6372794639743619
 40
0.7524732703005148
 40
0.8518857877882215
 40
0.9343394349213427
 40
1.0
 40
1.0
 40
1.0
 40
1.0
 10
114.8257211538461
 20
111.3762019230769
 30
0.0
 10
114.974026598433
 20
111.5193572795401
 30
0.0
 10
115.2563564854617
 20
111.7918829156041
 30
0.0
 10
115.6583947922721
 20
112.1821285807385
 30
0.0
 10
116.0118278919887
 20
112.5408752715844
 30
0.0
 10
116.3240455809193
 20
112.858826322302
 30
0.0
 10
116.5878351885539
 20
113.1440775714665
 30
0.0
 10
116.80666662576
 20
113.3921491937136
 30
0.0
 10
116.9833113652954
 20
113.6040514123399
 30
0.0
 10
117.0789823097296
 20
113.7384823121685
 30
0.0
 10
117.1213942307692
 20
113.7980769230769
 30
0.0
  0
SPLINE
  5
78
330
1F
100
AcDbEntity
  8
0
  6
Continuous
 62
     7
370
    15
100
AcDbSpline
210
0.0
220
0.0
230
1.0
 70
     8
 71
     3
 72
    19
 73
    15
 74
     0
 42
0.00000001
 43
0.00000001
 12
1.0
 22
0.0
 32
0.0
 13
1.0
 23
0.0
 33
0.0
 40
0.0
 40
0.0
 40
0.0
 40
0.0
 40
0.0963574538682384
 40
0.1926608788082152
 40
0.2894549334517493
 40
0.3884793011163924
 40
0.4419214173673359
 40
0.5015211030486822
 40
0.567882775817653
 40
0.640891650784354
 40
0.72037065881244
 40
0.8066369162819667
 40
0.9000159377788834
 40
1.0
 40
1.0
 40
1.0
 40
1.0
 10
110.7692307692308
 20
105.0
 30
0.0
 10
110.8024373430162
 20
105.2465322377044
 30
0.0
 10
110.8688318712118
 20
105.7394584791514
 30
0.0
 10
111.074100015339
 20
106.4594996488056
 30
0.0
 10
111.3480626759634
 20
107.1621368074237
 30
0.0
 10
111.645397106899
 20
107.7339129038749
 30
0.0
 10
111.9411291327244
 20
108.1941729863727
 30
0.0
 10
112.2094468162543
 20
108.5713136542214
 30
0.0
 10
112.5295399606167
 20
108.9725751370408
 30
0.0
 10
112.896763668562
 20
109.4011967270666
 30
0.0
 10
113.3090885107022
 20
109.8585182870884
 30
0.0
 10
113.769590696298
 20
110.3428395931074
 30
0.0
 10
114.2804668922491
 20
110.8518420633573
 30
0.0
 10
114.639877395785
 20
111.1974797859564
 30
0.0
 10
114.8257211538461
 20
111.3762019230769
 30
0.0
  0
SPLINE
  5
7C
330
1F
100
AcDbEntity
  8
0
  6
Continuous
 62
     7
370
    15
100
AcDbSpline
210
0.0
220
0.0
230
1.0
 70
     8
 71
     3
 72
    25
 73
    21
 74
     0
 42
0.00000001
 43
0.00000001
 12
1.0
 22
0.0
 32
0.0
 13
1.0
 23
0.0
 33
0.0
 40
0.0
 40
0.0
 40
0.0
 40
0.0
 40
0.0369753139213746
 40
0.0791925522967066
 40
0.126700944054956
 40
0.1791840785794698
 40
0.2373686428140497
 40
0.300558539744501
 40
0.3691531357212959
 40
0.4431123780003084
 40
0.5160183892506159
 40
0.582473178961277
 40
0.6421368079450552
 40
0.6946199424695707
 40
0.7406794327797188
 40
0.7795890342775182
 40
0.8120737912440682
 40
0.8378140957748635
 40
0.922564880965354
 40
1.0
 40
1.0
 40
1.0
 40
1.0
 10
119.1225961538461
 20
112.1574519230769
 30
0.0
 10
119.0769722566364
 20
112.099988489523
 30
0.0
 10
118.9792564435009
 20
111.9769151337011
 30
0.0
 10
118.8130161676004
 20
111.7882011755964
 30
0.0
 10
118.6203579863327
 20
111.5820660434046
 30
0.0
 10
118.404003111523
 20
111.3546513634648
 30
0.0
 10
118.1568049176664
 20
111.1140105113515
 30
0.0
 10
117.887657609704
 20
110.8500800740559
 30
0.0
 10
117.58471792227
 20
110.576360969314
 30
0.0
 10
117.270945816024
 20
110.2860252369556
 30
0.0
 10
116.9558098419406
 20
110.0034455514147
 30
0.0
 10
116.6661544473112
 20
109.7350574974005
 30
0.0
 10
116.4030509681582
 20
109.4975917130649
 30
0.0
 10
116.1787526263491
 20
109.2779389972913
 30
0.0
 10
115.9800662497869
 20
109.0910904911417
 30
0.0
 10
115.8141531540565
 20
108.9274648191535
 30
0.0
 10
115.6779087114918
 20
108.7910232254621
 30
0.0
 10
115.4901726380054
 20
108.5783453971337
 30
0.0
 10
115.251299789948
 20
108.2906985458339
 30
0.0
 10
115.0832429739647
 20
108.0158438448696
 30
0.0
 10
115.0030048076923
 20
107.8846153846154
 30
0.0
  0
SPLINE
  5
7D
330
1F
100
AcDbEntity
  8
0
  6
Continuous
 62
     7
370
    15
100
AcDbSpline
210
0.0
220
0.0
230
1.0
 70
     8
 71
     3
 72
    19
 73
    15
 74
     0
 42
0.00000001
 43
0.00000001
 12
1.0
 22
0.0
 32
0.0
 13
1.0
 23
0.0
 33
0.0
 40
0.0
 40
0.0
 40
0.0
 40
0.0
 40
0.1046725881823605
 40
0.217922411612757
 40
0.3405185375579564
 40
0.4735651107347253
 40
0.5421968301606596
 40
0.6097031823113819
 40
0.6755753979924268
 40
0.7416019791549904
 40
0.8061045072963652
 40
0.8709579598542413
 40
0.9351362548769806
 40
1.0
 40
1.0
 40
1.0
 40
1.0
 10
16.36363636363636
 20
116.2987012987013
 30
0.0
 10
16.53174845782549
 20
116.3734177772216
 30
0.0
 10
16.8817483348051
 20
116.5289732618916
 30
0.0
 10
17.3937800054893
 20
116.8412963042314
 30
0.0
 10
17.91091135170378
 20
117.2324151034002
 30
0.0
 10
18.3400028964423
 20
117.6078583622454
 30
0.0
 10
18.67467853069999
 20
117.9418908771393
 30
0.0
 10
18.91314681709497
 20
118.204982682334
 30
0.0
 10
19.12663741943771
 20
118.4828693619828
 30
0.0
 10
19.32448876343912
 20
118.7656315935976
 30
0.0
 10
19.49917855780653
 20
119.0613555825811
 30
0.0
 10
19.65340521998904
 20
119.3643641941362
 30
0.0
 10
19.79025768529047
 20
119.6766340139446
 30
0.0
 10
19.8616424009056
 20
119.8918303088694
 30
0.0
 10
19.89752435064934
 20
120.0
 30
0.0
  0
SPLINE
  5
7F
330
1F
100
AcDbEntity
  8
0
  6
Continuous
 62
     7
370
    15
100
AcDbSpline
210
0.0
220
0.0
230
1.0
 70
     8
 71
     3
 72
    15
 73
    11
 74
     0
 42
0.00000001
 43
0.00000001
 12
1.0
 22
0.0
 32
0.0
 13
1.0
 23
0.0
 33
0.0
 40
0.0
 40
0.0
 40
0.0
 40
0.0
 40
0.1291850431602388
 40
0.2562041821241478
 40
0.3820429862809632
 40
0.5053841222052815
 40
0.6299573653232363
 40
0.7528488117954791
 40
0.8762905154439995
 40
1.0
 40
1.0
 40
1.0
 40
1.0
 10
19.48051948051946
 20
115.9090909090909
 30
0.0
 10
19.36714335295464
 20
115.7901204588379
 30
0.0
 10
19.14229195124001
 20
115.5541742056311
 30
0.0
 10
18.78456993634592
 20
115.2247844386536
 30
0.0
 10
18.414476031229
 20
114.9211041789108
 30
0.0
 10
18.02956813496204
 20
114.6417566284381
 30
0.0
 10
17.63425050206158
 20
114.3840903943092
 30
0.0
 10
17.22352211392309
 20
114.1515126563845
 30
0.0
 10
16.80086572948444
 20
113.9435378164388
 30
0.0
 10
16.50948471978367
 20
113.8253777905847
 30
0.0
 10
16.36363636363636
 20
113.7662337662338
 30
0.0
  0
SPLINE
  5
84
330
1F
100
AcDbEntity
  8
0
  6
Continuous
 62
     7
370
    15
100
AcDbSpline
210
0.0
220
0.0
230
1.0
 70
     8
 71
     3
 72
    19
 73
    15
 74
     0
 42
0.00000001
 43
0.00000001
 12
1.0
 22
0.0
 32
0.0
 13
1.0
 23
0.0
 33
0.0
 40
0.0
 40
0.0
 40
0.0
 40
0.0
 40
0.1046725881823604
 40
0.2179224116127569
 40
0.3405185375579562
 40
0.4735651107347256
 40
0.5421968301606598
 40
0.609703182311382
 40
0.6755753979924268
 40
0.7416019791549904
 40
0.8061045072963652
 40
0.8709579598542411
 40
0.9351362548769806
 40
0.9999999999999999
 40
0.9999999999999999
 40
0.9999999999999999
 40
0.9999999999999999
 10
6.818181818181807
 20
116.2987012987013
 30
0.0
 10
6.986293912370933
 20
116.3734177772217
 30
0.0
 10
7.336293789350579
 20
116.5289732618916
 30
0.0
 10
7.84832546003475
 20
116.8412963042313
 30
0.0
 10
8.365456806249227
 20
117.2324151034001
 30
0.0
 10
8.794548350987752
 20
117.6078583622454
 30
0.0
 10
9.129223985245433
 20
117.9418908771393
 30
0.0
 10
9.367692271640415
 20
118.204982682334
 30
0.0
 10
9.581182873983158
 20
118.4828693619828
 30
0.0
 10
9.779034217984567
 20
118.7656315935976
 30
0.0
 10
9.953724012351978
 20
119.0613555825811
 30
0.0
 10
10.10795067453446
 20
119.3643641941362
 30
0.0
 10
10.24480313983594
 20
119.6766340139445
 30
0.0
 10
10.31618785545105
 20
119.8918303088694
 30
0.0
 10
10.35206980519479
 20
120.0
 30
0.0
  0
SPLINE
  5
86
330
1F
100
AcDbEntity
  8
0
  6
Continuous
 62
     7
370
    15
100
AcDbSpline
210
0.0
220
0.0
230
1.0
 70
     8
 71
     3
 72
    15
 73
    11
 74
     0
 42
0.00000001
 43
0.00000001
 12
1.0
 22
0.0
 32
0.0
 13
1.0
 23
0.0
 33
0.0
 40
0.0
 40
0.0
 40
0.0
 40
0.0
 40
0.1291850431602388
 40
0.2562041821241477
 40
0.3820429862809634
 40
0.5053841222052817
 40
0.6299573653232358
 40
0.7528488117954788
 40
0.8762905154439994
 40
1.0
 40
1.0
 40
1.0
 40
1.0
 10
9.935064935064908
 20
115.9090909090909
 30
0.0
 10
9.82168880750009
 20
115.7901204588379
 30
0.0
 10
9.596837405785458
 20
115.554174205631
 30
0.0
 10
9.239115390891367
 20
115.2247844386537
 30
0.0
 10
8.869021485774454
 20
114.9211041789107
 30
0.0
 10
8.484113589507514
 20
114.6417566284382
 30
0.0
 10
8.088795956607026
 20
114.3840903943092
 30
0.0
 10
7.678067568468561
 20
114.1515126563846
 30
0.0
 10
7.255411184029864
 20
113.9435378164387
 30
0.0
 10
6.964030174329117
 20
113.8253777905847
 30
0.0
 10
6.818181818181807
 20
113.7662337662338
 30
0.0
  0
SPLINE
  5
8B
330
1F
100
AcDbEntity
  8
0
  6
Continuous
 62
     7
370
    15
100
AcDbSpline
210
0.0
220
0.0
230
1.0
 70
     8
 71
     3
 72
    19
 73
    15
 74
     0
 42
0.00000001
 43
0.00000001
 12
1.0
 22
0.0
 32
0.0
 13
1.0
 23
0.0
 33
0.0
 40
0.0
 40
0.0
 40
0.0
 40
0.0
 40
0.1044728014505072
 40
0.2186534455744868
 40
0.3428558890245155
 40
0.479269462369065
 40
0.5495409926991612
 40
0.6174241096395696
 40
0.6835351858950318
 40
0.7485971287880192
 40
0.8121759604466003
 40
0.8748692871861451
 40
0.9374294362357425
 40
1.0
 40
1.0
 40
1.0
 40
1.0
 10
100.0
 20
116.1538461538462
 30
0.0
 10
100.1921068505518
 20
116.2258779789953
 30
0.0
 10
100.5941715430692
 20
116.376634985041
 30
0.0
 10
101.1874838188221
 20
116.6973027791353
 30
0.0
 10
101.8067678360266
 20
117.0943218607254
 30
0.0
 10
102.3270017622658
 20
117.4837056371199
 30
0.0
 10
102.740046113357
 20
117.8298989331779
 30
0.0
 10
103.0287327129711
 20
118.1081840213811
 30
0.0
 10
103.2962174466444
 20
118.3931623867734
 30
0.0
 10
103.5324460947644
 20
118.6940320870038
 30
0.0
 10
103.7436197716855
 20
119.0047101999224
 30
0.0
 10
103.9307288555434
 20
119.3246891785645
 30
0.0
 10
104.0954278609197
 20
119.654979817122
 30
0.0
 10
104.1816466385471
 20
119.8849868911587
 30
0.0
 10
104.2247596153846
 20
120.0
 30
0.0
  0
SPLINE
  5
8D
330
1F
100
AcDbEntity
  8
0
  6
Continuous
 62
     7
370
    15
100
AcDbSpline
210
0.0
220
0.0
230
1.0
 70
     8
 71
     3
 72
    15
 73
    11
 74
     0
 42
0.00000001
 43
0.00000001
 12
1.0
 22
0.0
 32
0.0
 13
1.0
 23
0.0
 33
0.0
 40
0.0
 40
0.0
 40
0.0
 40
0.0
 40
0.12657090956243
 40
0.2514247494891277
 40
0.3764250499327931
 40
0.5000934709746326
 40
0.6241806899120438
 40
0.7481334495533779
 40
0.8738690196222166
 40
1.0
 40
1.0
 40
1.0
 40
1.0
 10
103.6538461538461
 20
115.6790865384616
 30
0.0
 10
103.5230998886823
 20
115.5463546891217
 30
0.0
 10
103.2633810711505
 20
115.282691639809
 30
0.0
 10
102.8485692056867
 20
114.9149168441535
 30
0.0
 10
102.4179312474904
 20
114.5727893160609
 30
0.0
 10
101.9672056384571
 20
114.2595586426777
 30
0.0
 10
101.5022845138083
 20
113.9707618374284
 30
0.0
 10
101.0184166429384
 20
113.7086776226899
 30
0.0
 10
100.5191092677489
 20
113.4696796910723
 30
0.0
 10
100.1732174300757
 20
113.3361169707687
 30
0.0
 10
100.0
 20
113.2692307692308
 30
0.0
  0
SPLINE
  5
92
330
1F
100
AcDbEntity
  8
0
  6
Continuous
 62
     7
370
    15
100
AcDbSpline
210
0.0
220
0.0
230
1.0
 70
     8
 71
     3
 72
    19
 73
    15
 74
     0
 42
0.00000001
 43
0.00000001
 12
1.0
 22
0.0
 32
0.0
 13
1.0
 23
0.0
 33
0.0
 40
0.0
 40
0.0
 40
0.0
 40
0.0
 40
0.1044728014505073
 40
0.2186534455744871
 40
0.342855889024516
 40
0.4792694623690636
 40
0.5495409926991617
 40
0.617424109639572
 40
0.6835351858950325
 40
0.74859712878802
 40
0.8121759604466012
 40
0.874869287186146
 40
0.9374294362357424
 40
1.0
 40
1.0
 40
1.0
 40
1.0
 10
195.0
 20
116.1538461538462
 30
0.0
 10
195.1921068505519
 20
116.2258779789953
 30
0.0
 10
195.5941715430693
 20
116.376634985041
 30
0.0
 10
196.1874838188221
 20
116.6973027791353
 30
0.0
 10
196.8067678360266
 20
117.0943218607255
 30
0.0
 10
197.3270017622657
 20
117.4837056371198
 30
0.0
 10
197.7400461133571
 20
117.829898933178
 30
0.0
 10
198.0287327129712
 20
118.1081840213811
 30
0.0
 10
198.2962174466444
 20
118.3931623867734
 30
0.0
 10
198.5324460947644
 20
118.6940320870039
 30
0.0
 10
198.7436197716856
 20
119.0047101999224
 30
0.0
 10
198.9307288555435
 20
119.3246891785646
 30
0.0
 10
199.0954278609198
 20
119.654979817122
 30
0.0
 10
199.1816466385471
 20
119.8849868911588
 30
0.0
 10
199.2247596153846
 20
120.0000000000001
 30
0.0
  0
SPLINE
  5
94
330
1F
100
AcDbEntity
  8
0
  6
Continuous
 62
     7
370
    15
100
AcDbSpline
210
0.0
220
0.0
230
1.0
 70
     8
 71
     3
 72
    15
 73
    11
 74
     0
 42
0.00000001
 43
0.00000001
 12
1.0
 22
0.0
 32
0.0
 13
1.0
 23
0.0
 33
0.0
 40
0.0
 40
0.0
 40
0.0
 40
0.0
 40
0.12657090956243
 40
0.2514247494891277
 40
0.3764250499327907
 40
0.5000934709746302
 40
0.6241806899120467
 40
0.748133449553378
 40
0.8738690196222166
 40
1.0
 40
1.0
 40
1.0
 40
1.0
 10
198.6538461538462
 20
115.6790865384616
 30
0.0
 10
198.5230998886823
 20
115.5463546891217
 30
0.0
 10
198.2633810711505
 20
115.282691639809
 30
0.0
 10
197.8485692056867
 20
114.9149168441535
 30
0.0
 10
197.4179312474905
 20
114.5727893160609
 30
0.0
 10
196.9672056384572
 20
114.2595586426777
 30
0.0
 10
196.5022845138084
 20
113.9707618374285
 30
0.0
 10
196.0184166429385
 20
113.7086776226899
 30
0.0
 10
195.5191092677489
 20
113.4696796910723
 30
0.0
 10
195.1732174300757
 20
113.3361169707687
 30
0.0
 10
195.0
 20
113.2692307692308
 30
0.0
  0
SPLINE
  5
99
330
1F
100
AcDbEntity
  8
0
  6
Continuous
 62
     7
370
    15
100
AcDbSpline
210
0.0
220
0.0
230
1.0
 70
     8
 71
     3
 72
    19
 73
    15
 74
     0
 42
0.00000001
 43
0.00000001
 12
1.0
 22
0.0
 32
0.0
 13
1.0
 23
0.0
 33
0.0
 40
0.0
 40
0.0
 40
0.0
 40
0.0
 40
0.1044728014505117
 40
0.2186534455744872
 40
0.3428558890245121
 40
0.4792694623690635
 40
0.5495409926991616
 40
0.6174241096395684
 40
0.6835351858950323
 40
0.7485971287880168
 40
0.8121759604466032
 40
0.8748692871861456
 40
0.9374294362357442
 40
1.0
 40
1.0
 40
1.0
 40
1.0
 10
290.0
 20
116.1538461538462
 30
0.0
 10
290.1921068505519
 20
116.2258779789953
 30
0.0
 10
290.5941715430693
 20
116.376634985041
 30
0.0
 10
291.1874838188219
 20
116.6973027791351
 30
0.0
 10
291.8067678360267
 20
117.0943218607255
 30
0.0
 10
292.3270017622657
 20
117.4837056371199
 30
0.0
 10
292.740046113357
 20
117.8298989331779
 30
0.0
 10
293.0287327129711
 20
118.1081840213811
 30
0.0
 10
293.2962174466443
 20
118.3931623867733
 30
0.0
 10
293.5324460947643
 20
118.6940320870039
 30
0.0
 10
293.7436197716856
 20
119.0047101999224
 30
0.0
 10
293.9307288555434
 20
119.3246891785645
 30
0.0
 10
294.0954278609197
 20
119.654979817122
 30
0.0
 10
294.181646638547
 20
119.8849868911587
 30
0.0
 10
294.2247596153846
 20
120.0
 30
0.0
  0
SPLINE
  5
9B
330
1F
100
AcDbEntity
  8
0
  6
Continuous
 62
     7
370
    15
100
AcDbSpline
210
0.0
220
0.0
230
1.0
 70
     8
 71
     3
 72
    15
 73
    11
 74
     0
 42
0.00000001
 43
0.00000001
 12
1.0
 22
0.0
 32
0.0
 13
1.0
 23
0.0
 33
0.0
 40
0.0
 40
0.0
 40
0.0
 40
0.0
 40
0.126570909562434
 40
0.2514247494891358
 40
0.3764250499327933
 40
0.5000934709746374
 40
0.6241806899120481
 40
0.7481334495533789
 40
0.8738690196222172
 40
1.0
 40
1.0
 40
1.0
 40
1.0
 10
293.6538461538461
 20
115.6790865384616
 30
0.0
 10
293.5230998886823
 20
115.5463546891217
 30
0.0
 10
293.2633810711505
 20
115.282691639809
 30
0.0
 10
292.8485692056866
 20
114.9149168441535
 30
0.0
 10
292.4179312474904
 20
114.5727893160608
 30
0.0
 10
291.9672056384572
 20
114.2595586426778
 30
0.0
 10
291.5022845138083
 20
113.9707618374284
 30
0.0
 10
291.0184166429383
 20
113.7086776226899
 30
0.0
 10
290.5191092677489
 20
113.4696796910723
 30
0.0
 10
290.1732174300756
 20
113.3361169707687
 30
0.0
 10
290.0
 20
113.2692307692308
 30
0.0
  0
SPLINE
  5
A0
330
1F
100
AcDbEntity
  8
0
  6
Continuous
 62
     7
370
    15
100
AcDbSpline
210
0.0
220
0.0
230
1.0
 70
     8
 71
     3
 72
    19
 73
    15
 74
     0
 42
0.00000001
 43
0.00000001
 12
1.0
 22
0.0
 32
0.0
 13
1.0
 23
0.0
 33
0.0
 40
0.0
 40
0.0
 40
0.0
 40
0.0
 40
0.1044728014505117
 40
0.2186534455744872
 40
0.3428558890245121
 40
0.4792694623690635
 40
0.5495409926991616
 40
0.6174241096395684
 40
0.6835351858950323
 40
0.7485971287880168
 40
0.8121759604466032
 40
0.8748692871861456
 40
0.9374294362357442
 40
1.0
 40
1.0
 40
1.0
 40
1.0
 10
384.9999999999999
 20
116.1538461538462
 30
0.0
 10
385.1921068505519
 20
116.2258779789953
 30
0.0
 10
385.5941715430693
 20
116.376634985041
 30
0.0
 10
386.1874838188217
 20
116.6973027791351
 30
0.0
 10
386.8067678360266
 20
117.0943218607255
 30
0.0
 10
387.3270017622658
 20
117.4837056371199
 30
0.0
 10
387.7400461133569
 20
117.8298989331779
 30
0.0
 10
388.0287327129712
 20
118.1081840213811
 30
0.0
 10
388.2962174466443
 20
118.3931623867733
 30
0.0
 10
388.5324460947643
 20
118.6940320870039
 30
0.0
 10
388.7436197716856
 20
119.0047101999224
 30
0.0
 10
388.9307288555434
 20
119.3246891785645
 30
0.0
 10
389.0954278609196
 20
119.654979817122
 30
0.0
 10
389.181646638547
 20
119.8849868911587
 30
0.0
 10
389.2247596153845
 20
120.0
 30
0.0
  0
SPLINE
  5
A2
330
1F
100
AcDbEntity
  8
0
  6
Continuous
 62
     7
370
    15
100
AcDbSpline
210
0.0
220
0.0
230
1.0
 70
     8
 71
     3
 72
    15
 73
    11
 74
     0
 42
0.00000001
 43
0.00000001
 12
1.0
 22
0.0
 32
0.0
 13
1.0
 23
0.0
 33
0.0
 40
0.0
 40
0.0
 40
0.0
 40
0.0
 40
0.126570909562434
 40
0.2514247494891358
 40
0.3764250499327933
 40
0.5000934709746374
 40
0.6241806899120481
 40
0.7481334495533789
 40
0.8738690196222172
 40
1.0
 40
1.0
 40
1.0
 40
1.0
 10
388.6538461538461
 20
115.6790865384616
 30
0.0
 10
388.5230998886823
 20
115.5463546891217
 30
0.0
 10
388.2633810711504
 20
115.282691639809
 30
0.0
 10
387.8485692056865
 20
114.9149168441535
 30
0.0
 10
387.4179312474903
 20
114.5727893160608
 30
0.0
 10
386.9672056384572
 20
114.2595586426778
 30
0.0
 10
386.5022845138083
 20
113.9707618374284
 30
0.0
 10
386.0184166429384
 20
113.7086776226899
 30
0.0
 10
385.5191092677488
 20
113.4696796910723
 30
0.0
 10
385.1732174300757
 20
113.3361169707687
 30
0.0
 10
384.9999999999999
 20
113.2692307692308
 30
0.0
  0
LINE
  5
E0
330
1F
100
AcDbEntity
  8
0
  6
Continuous
 62
     7
370
    15
100
AcDbLine
 10
400.1983173077
 20
116.9230769231
 30
0.0
 11
399.609375
 21
114.2457932692
 31
0.0
  0
LINE
  5
E1
330
1F
100
AcDbEntity
  8
0
  6
Continuous
 62
     7
370
    15
100
AcDbLine
 10
405.1923076923
 20
116.9230769231
 30
0.0
 11
400.1983173077
 21
116.9230769231
 31
0.0
  0
LINE
  5
E2
330
1F
100
AcDbEntity
  8
0
  6
Continuous
 62
     7
370
    15
100
AcDbLine
 10
405.1923076923
 20
119.8076923077
 30
0.0
 11
405.1923076923
 21
116.9230769231
 31
0.0
  0
LINE
  5
E3
330
1F
100
AcDbEntity
  8
0
  6
Continuous
 62
     7
370
    15
100
AcDbLine
 10
397.8846153846
 20
119.8076923077
 30
0.0
 11
405.1923076923
 21
119.8076923077
 31
0.0
  0
LINE
  5
E4
330
1F
100
AcDbEntity
  8
0
  6
Continuous
 62
     7
370
    15
100
AcDbLine
 10
396.1538461538
 20
111.5084134615
 30
0.0
 11
397.8846153846
 21
119.8076923077
 31
0.0
  0
LINE
  5
E5
330
1F
100
AcDbEntity
  8
0
  6
Continuous
 62
     7
370
    15
100
AcDbLine
 10
398.671875
 20
111.1538461538
 30
0.0
 11
396.1538461538
 21
111.5084134615
 31
0.0
  0
LINE
  5
E6
330
1F
100
AcDbEntity
  8
0
  6
Continuous
 62
     7
370
    15
100
AcDbLine
 10
395.7692307692
 20
109.2908653846
 30
0.0
 11
398.2692307692
 21
109.6153846154
 31
0.0
  0
LINE
  5
E7
330
1F
100
AcDbEntity
  8
0
  6
Continuous
 62
     7
370
    15
100
AcDbLine
 10
311.1538461538
 20
108.0769230769
 30
0.0
 11
309.2307692308
 21
108.0769230769
 31
0.0
  0
LINE
  5
E8
330
1F
100
AcDbEntity
  8
0
  6
Continuous
 62
     7
370
    15
100
AcDbLine
 10
311.1538461538
 20
110.5769230769
 30
0.0
 11
311.1538461538
 21
108.0769230769
 31
0.0
  0
LINE
  5
E9
330
1F
100
AcDbEntity
  8
0
  6
Continuous
 62
     7
370
    15
100
AcDbLine
 10
309.2307692308
 20
110.5769230769
 30
0.0
 11
311.1538461538
 21
110.5769230769
 31
0.0
  0
LINE
  5
EA
330
1F
100
AcDbEntity
  8
0
  6
Continuous
 62
     7
370
    15
100
AcDbLine
 10
309.2307692308
 20
119.8076923077
 30
0.0
 11
309.2307692308
 21
110.5769230769
 31
0.0
  0
LINE
  5
EB
330
1F
100
AcDbEntity
  8
0
  6
Continuous
 62
     7
370
    15
100
AcDbLine
 10
306.7277644231
 20
119.8076923077
 30
0.0
 11
309.2307692308
 21
119.8076923077
 31
0.0
  0
LINE
  5
EC
330
1F
100
AcDbEntity
  8
0
  6
Continuous
 62
     7
370
    15
100
AcDbLine
 10
300.3846153846
 20
110.5679086538
 30
0.0
 11
306.7277644231
 21
119.8076923077
 31
0.0
  0
LINE
  5
ED
330
1F
100
AcDbEntity
  8
0
  6
Continuous
 62
     7
370
    15
100
AcDbLine
 10
300.3846153846
 20
108.0769230769
 30
0.0
 11
300.3846153846
 21
110.5679086538
 31
0.0
  0
LINE
  5
EE
330
1F
100
AcDbEntity
  8
0
  6
Continuous
 62
     7
370
    15
100
AcDbLine
 10
306.3461538462
 20
108.0769230769
 30
0.0
 11
300.3846153846
 21
108.0769230769
 31
0.0
  0
LINE
  5
EF
330
1F
100
AcDbEntity
  8
0
  6
Continuous
 62
     7
370
    15
100
AcDbLine
 10
306.3461538462
 20
105.0
 30
0.0
 11
306.3461538462
 21
108.0769230769
 31
0.0
  0
LINE
  5
F0
330
1F
100
AcDbEntity
  8
0
  6
Continuous
 62
     7
370
    15
100
AcDbLine
 10
309.2307692308
 20
105.0
 30
0.0
 11
306.3461538462
 21
105.0
 31
0.0
  0
LINE
  5
F1
330
1F
100
AcDbEntity
  8
0
  6
Continuous
 62
     7
370
    15
100
AcDbLine
 10
309.2307692308
 20
108.0769230769
 30
0.0
 11
309.2307692308
 21
105.0
 31
0.0
  0
LINE
  5
F2
330
1F
100
AcDbEntity
  8
0
  6
Continuous
 62
     7
370
    15
100
AcDbLine
 10
209.0384615385
 20
115.5769230769
 30
0.0
 11
206.1538461538
 21
116.0096153846
 31
0.0
  0
LINE
  5
F3
330
1F
100
AcDbEntity
  8
0
  6
Continuous
 62
     7
370
    15
100
AcDbLine
 10
209.8076923077
 20
111.7097355769
 30
0.0
 11
210.078125
 21
114.0384615385
 31
0.0
  0
LINE
  5
F4
330
1F
100
AcDbEntity
  8
0
  6
Continuous
 62
     7
370
    15
100
AcDbLine
 10
205.7692307692
 20
109.2608173077
 30
0.0
 11
208.6538461538
 21
109.6153846154
 31
0.0
  0
LINE
  5
F5
330
1F
100
AcDbEntity
  8
0
  6
Continuous
 62
     7
370
    15
100
AcDbLine
 10
114.0384615385
 20
115.1923076923
 30
0.0
 11
111.1538461538
 21
115.4747596154
 31
0.0
  0
LINE
  5
F6
330
1F
100
AcDbEntity
  8
0
  6
Continuous
 62
     7
370
    15
100
AcDbLine
 10
120.5769230769
 20
105.0
 30
0.0
 11
110.7692307692
 21
105.0
 31
0.0
  0
LINE
  5
F7
330
1F
100
AcDbEntity
  8
0
  6
Continuous
 62
     7
370
    15
100
AcDbLine
 10
120.5769230769
 20
107.8846153846
 30
0.0
 11
120.5769230769
 21
105.0
 31
0.0
  0
LINE
  5
F8
330
1F
100
AcDbEntity
  8
0
  6
Continuous
 62
     7
370
    15
100
AcDbLine
 10
115.0030048077
 20
107.8846153846
 30
0.0
 11
120.5769230769
 21
107.8846153846
 31
0.0
  0
LINE
  5
F9
330
1F
100
AcDbEntity
  8
0
  6
Continuous
 62
     7
370
    15
100
AcDbLine
 10
16.3636363636
 20
113.7662337662
 30
0.0
 11
16.3636363636
 21
116.2987012987
 31
0.0
  0
LINE
  5
FA
330
1F
100
AcDbEntity
  8
0
  6
Continuous
 62
     7
370
    15
100
AcDbLine
 10
19.4805194805
 20
105.0
 30
0.0
 11
19.4805194805
 21
115.9090909091
 31
0.0
  0
LINE
  5
FB
330
1F
100
AcDbEntity
  8
0
  6
Continuous
 62
     7
370
    15
100
AcDbLine
 10
21.8181818182
 20
105.0
 30
0.0
 11
19.4805194805
 21
105.0
 31
0.0
  0
LINE
  5
FC
330
1F
100
AcDbEntity
  8
0
  6
Continuous
 62
     7
370
    15
100
AcDbLine
 10
21.8181818182
 20
120.0
 30
0.0
 11
21.8181818182
 21
105.0
 31
0.0
  0
LINE
  5
FD
330
1F
100
AcDbEntity
  8
0
  6
Continuous
 62
     7
370
    15
100
AcDbLine
 10
19.8975243506
 20
120.0
 30
0.0
 11
21.8181818182
 21
120.0
 31
0.0
  0
LINE
  5
FE
330
1F
100
AcDbEntity
  8
0
  6
Continuous
 62
     7
370
    15
100
AcDbLine
 10
6.8181818182
 20
113.7662337662
 30
0.0
 11
6.8181818182
 21
116.2987012987
 31
0.0
  0
LINE
  5
FF
330
1F
100
AcDbEntity
  8
0
  6
Continuous
 62
     7
370
    15
100
AcDbLine
 10
9.9350649351
 20
105.0
 30
0.0
 11
9.9350649351
 21
115.9090909091
 31
0.0
  0
LINE
  5
100
330
1F
100
AcDbEntity
  8
0
  6
Continuous
 62
     7
370
    15
100
AcDbLine
 10
12.2727272727
 20
105.0
 30
0.0
 11
9.9350649351
 21
105.0
 31
0.0
  0
LINE
  5
101
330
1F
100
AcDbEntity
  8
0
  6
Continuous
 62
     7
370
    15
100
AcDbLine
 10
12.2727272727
 20
120.0
 30
0.0
 11
12.2727272727
 21
105.0
 31
0.0
  0
LINE
  5
102
330
1F
100
AcDbEntity
  8
0
  6
Continuous
 62
     7
370
    15
100
AcDbLine
 10
10.3520698052
 20
120.0
 30
0.0
 11
12.2727272727
 21
120.0
 31
0.0
  0
LINE
  5
103
330
1F
100
AcDbEntity
  8
0
  6
Continuous
 62
     7
370
    15
100
AcDbLine
 10
100.0
 20
113.2692307692
 30
0.0
 11
100.0
 21
116.1538461538
 31
0.0
  0
LINE
  5
104
330
1F
100
AcDbEntity
  8
0
  6
Continuous
 62
     7
370
    15
100
AcDbLine
 10
103.6538461538
 20
105.0
 30
0.0
 11
103.6538461538
 21
115.6790865385
 31
0.0
  0
LINE
  5
105
330
1F
100
AcDbEntity
  8
0
  6
Continuous
 62
     7
370
    15
100
AcDbLine
 10
106.5384615385
 20
105.0
 30
0.0
 11
103.6538461538
 21
105.0
 31
0.0
  0
LINE
  5
106
330
1F
100
AcDbEntity
  8
0
  6
Continuous
 62
     7
370
    15
100
AcDbLine
 10
106.5384615385
 20
120.0
 30
0.0
 11
106.5384615385
 21
105.0
 31
0.0
  0
LINE
  5
107
330
1F
100
AcDbEntity
  8
0
  6
Continuous
 62
     7
370
    15
100
AcDbLine
 10
104.2247596154
 20
120.0
 30
0.0
 11
106.5384615385
 21
120.0
 31
0.0
  0
LINE
  5
108
330
1F
100
AcDbEntity
  8
0
  6
Continuous
 62
     7
370
    15
100
AcDbLine
 10
195.0
 20
113.2692307692
 30
0.0
 11
195.0
 21
116.1538461538
 31
0.0
  0
LINE
  5
109
330
1F
100
AcDbEntity
  8
0
  6
Continuous
 62
     7
370
    15
100
AcDbLine
 10
198.6538461538
 20
105.0
 30
0.0
 11
198.6538461538
 21
115.6790865385
 31
0.0
  0
LINE
  5
10A
330
1F
100
AcDbEntity
  8
0
  6
Continuous
 62
     7
370
    15
100
AcDbLine
 10
201.5384615385
 20
105.0
 30
0.0
 11
198.6538461538
 21
105.0
 31
0.0
  0
LINE
  5
10B
330
1F
100
AcDbEntity
  8
0
  6
Continuous
 62
     7
370
    15
100
AcDbLine
 10
201.5384615385
 20
120.0
 30
0.0
 11
201.5384615385
 21
105.0
 31
0.0
  0
LINE
  5
10C
330
1F
100
AcDbEntity
  8
0
  6
Continuous
 62
     7
370
    15
100
AcDbLine
 10
199.2247596154
 20
120.0
 30
0.0
 11
201.5384615385
 21
120.0
 31
0.0
  0
LINE
  5
10D
330
1F
100
AcDbEntity
  8
0
  6
Continuous
 62
     7
370
    15
100
AcDbLine
 10
290.0
 20
113.2692307692
 30
0.0
 11
290.0
 21
116.1538461538
 31
0.0
  0
LINE
  5
10E
330
1F
100
AcDbEntity
  8
0
  6
Continuous
 62
     7
370
    15
100
AcDbLine
 10
293.6538461538
 20
105.0
 30
0.0
 11
293.6538461538
 21
115.6790865385
 31
0.0
  0
LINE
  5
10F
330
1F
100
AcDbEntity
  8
0
  6
Continuous
 62
     7
370
    15
100
AcDbLine
 10
296.5384615385
 20
105.0
 30
0.0
 11
293.6538461538
 21
105.0
 31
0.0
  0
LINE
  5
110
330
1F
100
AcDbEntity
  8
0
  6
Continuous
 62
     7
370
    15
100
AcDbLine
 10
296.5384615385
 20
120.0
 30
0.0
 11
296.5384615385
 21
105.0
 31
0.0
  0
LINE
  5
111
330
1F
100
AcDbEntity
  8
0
  6
Continuous
 62
     7
370
    15
100
AcDbLine
 10
294.2247596154
 20
120.0
 30
0.0
 11
296.5384615385
 21
120.0
 31
0.0
  0
LINE
  5
112
330
1F
100
AcDbEntity
  8
0
  6
Continuous
 62
     7
370
    15
100
AcDbLine
 10
385.0
 20
113.2692307692
 30
0.0
 11
385.0
 21
116.1538461538
 31
0.0
  0
LINE
  5
113
330
1F
100
AcDbEntity
  8
0
  6
Continuous
 62
     7
370
    15
100
AcDbLine
 10
388.6538461538
 20
105.0
 30
0.0
 11
388.6538461538
 21
115.6790865385
 31
0.0
  0
LINE
  5
114
330
1F
100
AcDbEntity
  8
0
  6
Continuous
 62
     7
370
    15
100
AcDbLine
 10
391.5384615385
 20
105.0
 30
0.0
 11
388.6538461538
 21
105.0
 31
0.0
  0
LINE
  5
115
330
1F
100
AcDbEntity
  8
0
  6
Continuous
 62
     7
370
    15
100
AcDbLine
 10
391.5384615385
 20
120.0
 30
0.0
 11
391.5384615385
 21
105.0
 31
0.0
  0
LINE
  5
116
330
1F
100
AcDbEntity
  8
0
  6
Continuous
 62
     7
370
    15
100
AcDbLine
 10
389.2247596154
 20
120.0
 30
0.0
 11
391.5384615385
 21
120.0
 31
0.0
  0
LINE
  5
117
330
1F
100
AcDbEntity
  8
0
  6
Continuous
 62
     7
370
    15
100
AcDbLine
 10
410.0
 20
100.0
 30
0.0
 11
410.0
 21
115.0
 31
0.0
  0
LINE
  5
118
330
1F
100
AcDbEntity
  8
0
  6
Continuous
 62
     7
370
    15
100
AcDbLine
 10
475.0
 20
100.0
 30
0.0
 11
410.0
 21
100.0
 31
0.0
  0
LINE
  5
119
330
1F
100
AcDbEntity
  8
0
  6
Continuous
 62
     7
370
    15
100
AcDbLine
 10
475.0
 20
80.0
 30
0.0
 11
475.0
 21
100.0
 31
0.0
  0
LINE
  5
11A
330
1F
100
AcDbEntity
  8
0
  6
Continuous
 62
     7
370
    15
100
AcDbLine
 10
479.0
 20
80.0
 30
0.0
 11
475.0
 21
80.0
 31
0.0
  0
LINE
  5
11B
330
1F
100
AcDbEntity
  8
0
  6
Continuous
 62
     7
370
    15
100
AcDbLine
 10
479.0
 20
60.0
 30
0.0
 11
479.0
 21
80.0
 31
0.0
  0
LINE
  5
11C
330
1F
100
AcDbEntity
  8
0
  6
Continuous
 62
     7
370
    15
100
AcDbLine
 10
475.0
 20
60.0
 30
0.0
 11
479.0
 21
60.0
 31
0.0
  0
LINE
  5
11D
330
1F
100
AcDbEntity
  8
0
  6
Continuous
 62
     7
370
    15
100
AcDbLine
 10
475.0
 20
40.0
 30
0.0
 11
475.0
 21
60.0
 31
0.0
  0
LINE
  5
11E
330
1F
100
AcDbEntity
  8
0
  6
Continuous
 62
     7
370
    15
100
AcDbLine
 10
479.0
 20
40.0
 30
0.0
 11
475.0
 21
40.0
 31
0.0
  0
LINE
  5
11F
330
1F
100
AcDbEntity
  8
0
  6
Continuous
 62
     7
370
    15
100
AcDbLine
 10
479.0
 20
20.0
 30
0.0
 11
479.0
 21
40.0
 31
0.0
  0
LINE
  5
120
330
1F
100
AcDbEntity
  8
0
  6
Continuous
 62
     7
370
    15
100
AcDbLine
 10
475.0
 20
20.0
 30
0.0
 11
479.0
 21
20.0
 31
0.0
  0
LINE
  5
121
330
1F
100
AcDbEntity
  8
0
  6
Continuous
 62
     7
370
    15
100
AcDbLine
 10
475.0
 20
8.4
 30
0.0
 11
475.0
 21
20.0
 31
0.0
  0
LINE
  5
122
330
1F
100
AcDbEntity
  8
0
  6
Continuous
 62
     7
370
    15
100
AcDbLine
 10
475.0
 20
8.4
 30
0.0
 11
347.5
 21
8.4
 31
0.0
  0
LINE
  5
123
330
1F
100
AcDbEntity
  8
0
  6
Continuous
 62
     7
370
    15
100
AcDbLine
 10
347.5
 20
4.4
 30
0.0
 11
347.5
 21
8.4
 31
0.0
  0
LINE
  5
124
330
1F
100
AcDbEntity
  8
0
  6
Continuous
 62
     7
370
    15
100
AcDbLine
 10
307.5
 20
4.4
 30
0.0
 11
347.5
 21
4.4
 31
0.0
  0
LINE
  5
125
330
1F
100
AcDbEntity
  8
0
  6
Continuous
 62
     7
370
    15
100
AcDbLine
 10
307.5
 20
8.4
 30
0.0
 11
307.5
 21
4.4
 31
0.0
  0
LINE
  5
126
330
1F
100
AcDbEntity
  8
0
  6
Continuous
 62
     7
370
    15
100
AcDbLine
 10
167.5
 20
4.4
 30
0.0
 11
167.5
 21
8.4
 31
0.0
  0
LINE
  5
127
330
1F
100
AcDbEntity
  8
0
  6
Continuous
 62
     7
370
    15
100
AcDbLine
 10
127.5
 20
4.4
 30
0.0
 11
167.5
 21
4.4
 31
0.0
  0
LINE
  5
128
330
1F
100
AcDbEntity
  8
0
  6
Continuous
 62
     7
370
    15
100
AcDbLine
 10
127.5
 20
8.4
 30
0.0
 11
127.5
 21
4.4
 31
0.0
  0
LINE
  5
129
330
1F
100
AcDbEntity
  8
0
  6
Continuous
 62
     7
370
    15
100
AcDbLine
 10
0.0
 20
20.0
 30
0.0
 11
0.0
 21
8.4
 31
0.0
  0
LINE
  5
12A
330
1F
100
AcDbEntity
  8
0
  6
Continuous
 62
     7
370
    15
100
AcDbLine
 10
-4.0
 20
20.0
 30
0.0
 11
0.0
 21
20.0
 31
0.0
  0
LINE
  5
12B
330
1F
100
AcDbEntity
  8
0
  6
Continuous
 62
     7
370
    15
100
AcDbLine
 10
-4.0
 20
40.0
 30
0.0
 11
-4.0
 21
20.0
 31
0.0
  0
LINE
  5
12C
330
1F
100
AcDbEntity
  8
0
  6
Continuous
 62
     7
370
    15
100
AcDbLine
 10
0.0
 20
40.0
 30
0.0
 11
-4.0
 21
40.0
 31
0.0
  0
LINE
  5
12D
330
1F
100
AcDbEntity
  8
0
  6
Continuous
 62
     7
370
    15
100
AcDbLine
 10
0.0
 20
60.0
 30
0.0
 11
0.0
 21
40.0
 31
0.0
  0
LINE
  5
12E
330
1F
100
AcDbEntity
  8
0
  6
Continuous
 62
     7
370
    15
100
AcDbLine
 10
-4.0
 20
60.0
 30
0.0
 11
0.0
 21
60.0
 31
0.0
  0
LINE
  5
12F
330
1F
100
AcDbEntity
  8
0
  6
Continuous
 62
     7
370
    15
100
AcDbLine
 10
-4.0
 20
80.0
 30
0.0
 11
-4.0
 21
60.0
 31
0.0
  0
LINE
  5
130
330
1F
100
AcDbEntity
  8
0
  6
Continuous
 62
     7
370
    15
100
AcDbLine
 10
0.0
 20
80.0
 30
0.0
 11
-4.0
 21
80.0
 31
0.0
  0
LINE
  5
131
330
1F
100
AcDbEntity
  8
0
  6
Continuous
 62
     7
370
    15
100
AcDbLine
 10
0.0
 20
115.0
 30
0.0
 11
0.0
 21
80.0
 31
0.0
  0
LINE
  5
132
330
1F
100
AcDbEntity
  8
0
  6
Continuous
 62
     7
370
    15
100
AcDbLine
 10
30.0
 20
100.0
 30
0.0
 11
30.0
 21
115.0
 31
0.0
  0
LINE
  5
133
330
1F
100
AcDbEntity
  8
0
  6
Continuous
 62
     7
370
    15
100
AcDbLine
 10
90.6
 20
100.0
 30
0.0
 11
30.0
 21
100.0
 31
0.0
  0
LINE
  5
134
330
1F
100
AcDbEntity
  8
0
  6
Continuous
 62
     7
370
    15
100
AcDbLine
 10
90.6
 20
100.0
 30
0.0
 11
90.6
 21
49.6
 31
0.0
  0
LINE
  5
135
330
1F
100
AcDbEntity
  8
0
  6
Continuous
 62
     7
370
    15
100
AcDbLine
 10
90.6
 20
49.6
 30
0.0
 11
95.0
 21
49.6
 31
0.0
  0
LINE
  5
136
330
1F
100
AcDbEntity
  8
0
  6
Continuous
 62
     7
370
    15
100
AcDbLine
 10
95.0
 20
115.0
 30
0.0
 11
95.0
 21
49.6
 31
0.0
  0
LINE
  5
137
330
1F
100
AcDbEntity
  8
0
  6
Continuous
 62
     7
370
    15
100
AcDbLine
 10
125.0
 20
100.0
 30
0.0
 11
125.0
 21
115.0
 31
0.0
  0
LINE
  5
138
330
1F
100
AcDbEntity
  8
0
  6
Continuous
 62
     7
370
    15
100
AcDbLine
 10
185.6
 20
100.0
 30
0.0
 11
125.0
 21
100.0
 31
0.0
  0
LINE
  5
139
330
1F
100
AcDbEntity
  8
0
  6
Continuous
 62
     7
370
    15
100
AcDbLine
 10
185.6
 20
100.0
 30
0.0
 11
185.6
 21
49.6
 31
0.0
  0
LINE
  5
13A
330
1F
100
AcDbEntity
  8
0
  6
Continuous
 62
     7
370
    15
100
AcDbLine
 10
185.6
 20
49.6
 30
0.0
 11
190.0
 21
49.6
 31
0.0
  0
LINE
  5
13B
330
1F
100
AcDbEntity
  8
0
  6
Continuous
 62
     7
370
    15
100
AcDbLine
 10
190.0
 20
115.0
 30
0.0
 11
190.0
 21
49.6
 31
0.0
  0
LINE
  5
13C
330
1F
100
AcDbEntity
  8
0
  6
Continuous
 62
     7
370
    15
100
AcDbLine
 10
220.0
 20
100.0
 30
0.0
 11
220.0
 21
115.0
 31
0.0
  0
LINE
  5
13D
330
1F
100
AcDbEntity
  8
0
  6
Continuous
 62
     7
370
    15
100
AcDbLine
 10
280.6
 20
100.0
 30
0.0
 11
220.0
 21
100.0
 31
0.0
  0
LINE
  5
13E
330
1F
100
AcDbEntity
  8
0
  6
Continuous
 62
     7
370
    15
100
AcDbLine
 10
280.6
 20
100.0
 30
0.0
 11
280.6
 21
49.6
 31
0.0
  0
LINE
  5
13F
330
1F
100
AcDbEntity
  8
0
  6
Continuous
 62
     7
370
    15
100
AcDbLine
 10
280.6
 20
49.6
 30
0.0
 11
285.0
 21
49.6
 31
0.0
  0
LINE
  5
140
330
1F
100
AcDbEntity
  8
0
  6
Continuous
 62
     7
370
    15
100
AcDbLine
 10
285.0
 20
115.0
 30
0.0
 11
285.0
 21
49.6
 31
0.0
  0
LINE
  5
141
330
1F
100
AcDbEntity
  8
0
  6
Continuous
 62
     7
370
    15
100
AcDbLine
 10
315.0
 20
100.0
 30
0.0
 11
315.0
 21
115.0
 31
0.0
  0
LINE
  5
142
330
1F
100
AcDbEntity
  8
0
  6
Continuous
 62
     7
370
    15
100
AcDbLine
 10
375.6
 20
100.0
 30
0.0
 11
315.0
 21
100.0
 31
0.0
  0
LINE
  5
143
330
1F
100
AcDbEntity
  8
0
  6
Continuous
 62
     7
370
    15
100
AcDbLine
 10
375.6
 20
100.0
 30
0.0
 11
375.6
 21
49.6
 31
0.0
  0
LINE
  5
144
330
1F
100
AcDbEntity
  8
0
  6
Continuous
 62
     7
370
    15
100
AcDbLine
 10
375.6
 20
49.6
 30
0.0
 11
380.0
 21
49.6
 31
0.0
  0
LINE
  5
145
330
1F
100
AcDbEntity
  8
0
  6
Continuous
 62
     7
370
    15
100
AcDbLine
 10
380.0
 20
115.0
 30
0.0
 11
380.0
 21
49.6
 31
0.0
  0
LINE
  5
146
330
1F
100
AcDbEntity
  8
0
  6
Continuous
 62
     7
370
    15
100
AcDbLine
 10
307.5
 20
8.4
 30
0.0
 11
167.5
 21
8.4
 31
0.0
  0
LINE
  5
147
330
1F
100
AcDbEntity
  8
0
  6
Continuous
 62
     7
370
    15
100
AcDbLine
 10
127.5
 20
8.4
 30
0.0
 11
0.0
 21
8.4
 31
0.0
  0
LINE
  5
148
330
1F
100
AcDbEntity
  8
0
  6
Continuous
 62
     7
370
    15
100
AcDbLine
 10
306.3461538462
 20
110.5769230769
 30
0.0
 11
306.3461538462
 21
115.5709134615
 31
0.0
  0
LINE
  5
149
330
1F
100
AcDbEntity
  8
0
  6
Continuous
 62
     7
370
    15
100
AcDbLine
 10
302.9146634615
 20
110.5769230769
 30
0.0
 11
306.3461538462
 21
110.5769230769
 31
0.0
  0
LINE
  5
14A
330
1F
100
AcDbEntity
  8
0
  6
Continuous
 62
     7
370
    15
100
AcDbLine
 10
306.3461538462
 20
115.5709134615
 30
0.0
 11
302.9146634615
 21
110.5769230769
 31
0.0
  0
ARC
  5
14B
330
1F
100
AcDbEntity
  8
0
  6
Continuous
 62
     7
370
    15
100
AcDbCircle
 10
395.0
 20
115.0
 30
0.0
 40
15.00000000000006
100
AcDbArc
 50
0.0
 51
180.0
  0
ARC
  5
14C
330
1F
100
AcDbEntity
  8
0
  6
Continuous
 62
     7
370
    15
100
AcDbCircle
 10
15.0
 20
115.0
 30
0.0
 40
15.0
100
AcDbArc
 50
0.0
 51
180.0
  0
ARC
  5
14D
330
1F
100
AcDbEntity
  8
0
  6
Continuous
 62
     7
370
    15
100
AcDbCircle
 10
110.0
 20
115.0
 30
0.0
 40
15.0
100
AcDbArc
 50
0.0
 51
180.0
  0
ARC
  5
14E
330
1F
100
AcDbEntity
  8
0
  6
Continuous
 62
     7
370
    15
100
AcDbCircle
 10
205.0
 20
115.0
 30
0.0
 40
15.00000000000003
100
AcDbArc
 50
0.0
 51
180.0
  0
ARC
  5
14F
330
1F
100
AcDbEntity
  8
0
  6
Continuous
 62
     7
370
    15
100
AcDbCircle
 10
300.0
 20
115.0
 30
0.0
 40
15.0
100
AcDbArc
 50
0.0
 51
180.0
  0
ENDSEC
  0
SECTION
  2
OBJECTS
  0
DICTIONARY
  5
C
330
0
100
AcDbDictionary
281
     1
  3
ACAD_GROUP
350
D
  3
ACAD_LAYOUT
350
1A
  3
ACAD_MLINESTYLE
350
17
  3
ACAD_PLOTSETTINGS
350
19
  3
ACAD_PLOTSTYLENAME
350
E
  0
DICTIONARY
  5
D
102
{ACAD_REACTORS
330
C
102
}
330
C
100
AcDbDictionary
281
     1
  0
DICTIONARY
  5
1A
102
{ACAD_REACTORS
330
C
102
}
330
C
100
AcDbDictionary
281
     1
  3
Layout1
350
1E
  3
Layout2
350
26
  3
Model
350
22
  0
DICTIONARY
  5
17
102
{ACAD_REACTORS
330
C
102
}
330
C
100
AcDbDictionary
281
     1
  3
Standard
350
18
  0
DICTIONARY
  5
19
102
{ACAD_REACTORS
330
C
102
}
330
C
100
AcDbDictionary
281
     1
  0
ACDBDICTIONARYWDFLT
  5
E
102
{ACAD_REACTORS
330
C
102
}
330
C
100
AcDbDictionary
281
     1
  3
Normal
350
F
100
AcDbDictionaryWithDefault
340
F
  0
LAYOUT
  5
1E
102
{ACAD_REACTORS
330
1A
102
}
330
1A
100
AcDbPlotSettings
  1

  2
none_device
  4

  6

 40
0.0
 41
0.0
 42
0.0
 43
0.0
 44
0.0
 45
0.0
 46
0.0
 47
0.0
 48
0.0
 49
0.0
140
0.0
141
0.0
142
1.0
143
1.0
 70
   688
 72
     0
 73
     0
 74
     5
  7

 75
    16
147
1.0
148
0.0
149
0.0
100
AcDbLayout
  1
Layout1
 70
     1
 71
     1
 10
0.0
 20
0.0
 11
420.0
 21
297.0
 12
0.0
 22
0.0
 32
0.0
 14
1.0000000000E+20
 24
1.0000000000E+20
 34
1.0000000000E+20
 15
-1.0000000000E+20
 25
-1.0000000000E+20
 35
-1.0000000000E+20
146
0.0
 13
0.0
 23
0.0
 33
0.0
 16
1.0
 26
0.0
 36
0.0
 17
0.0
 27
1.0
 37
0.0
 76
     0
330
1B
  0
LAYOUT
  5
26
102
{ACAD_REACTORS
330
1A
102
}
330
1A
100
AcDbPlotSettings
  1

  2
none_device
  4

  6

 40
0.0
 41
0.0
 42
0.0
 43
0.0
 44
0.0
 45
0.0
 46
0.0
 47
0.0
 48
0.0
 49
0.0
140
0.0
141
0.0
142
1.0
143
1.0
 70
   688
 72
     0
 73
     0
 74
     5
  7

 75
    16
147
1.0
148
0.0
149
0.0
100
AcDbLayout
  1
Layout2
 70
     1
 71
     2
 10
0.0
 20
0.0
 11
0.0
 21
0.0
 12
0.0
 22
0.0
 32
0.0
 14
0.0
 24
0.0
 34
0.0
 15
0.0
 25
0.0
 35
0.0
146
0.0
 13
0.0
 23
0.0
 33
0.0
 16
1.0
 26
0.0
 36
0.0
 17
0.0
 27
1.0
 37
0.0
 76
     0
330
23
  0
LAYOUT
  5
22
102
{ACAD_REACTORS
330
1A
102
}
330
1A
100
AcDbPlotSettings
  1

  2
none_device
  4
ANSI_A_(11.00_x_8.50_Inches)
  6

 40
6.35
 41
19.05
 42
6.35000508
 43
19.05000254
 44
279.4
 45
215.9
 46
-2.6622696207
 47
50.4156856865
 48
0.0
 49
0.0
140
0.0
141
0.0
142
0.0225465839
143
1.0
 70
  1696
 72
     0
 73
     0
 74
     0
  7

 75
     0
147
0.0179189148
148
0.0
149
0.0
100
AcDbLayout
  1
Model
 70
     1
 71
     0
 10
0.0
 20
0.0
 11
420.0
 21
297.0
 12
0.0
 22
0.0
 32
0.0
 14
-4.0
 24
4.4
 34
0.0
 15
479.0
 25
130.0
 35
0.0
146
0.0
 13
0.0
 23
0.0
 33
0.0
 16
1.0
 26
0.0
 36
0.0
 17
0.0
 27
1.0
 37
0.0
 76
     0
330
1F
331
29
  0
MLINESTYLE
  5
18
102
{ACAD_REACTORS
330
17
102
}
330
17
100
AcDbMlineStyle
  2
Standard
 70
     0
  3

 62
   256
 51
90.0
 52
90.0
 71
     2
 49
0.5
 62
   256
  6
BYLAYER
 49
-0.5
 62
   256
  6
BYLAYER
  0
ACDBPLACEHOLDER
  5
F
102
{ACAD_REACTORS
330
E
102
}
330
E
  0
ENDSEC
  0
EOF
