  0
SECTION
  2
HEADER
  9
$ACADVER
  1
AC1015
  9
$ACADMAINTVER
 70
     6
  9
$DWGCODEPAGE
  3
ANSI_1251
  9
$INSBASE
 10
0.0
 20
0.0
 30
0.0
  9
$EXTMIN
 10
-4.0
 20
4.4
 30
0.0
  9
$EXTMAX
 10
479.0
 20
130.0
 30
0.0
  9
$LIMMIN
 10
0.0
 20
0.0
  9
$LIMMAX
 10
420.0
 20
297.0
  9
$ORTHOMODE
 70
     0
  9
$REGENMODE
 70
     1
  9
$FILLMODE
 70
     1
  9
$QTEXTMODE
 70
     0
  9
$MIRRTEXT
 70
     1
  9
$LTSCALE
 40
1.0
  9
$ATTMODE
 70
     1
  9
$TEXTSIZE
 40
4.0
  9
$TRACEWID
 40
1.0
  9
$TEXTSTYLE
  7
Standard
  9
$CLAYER
  8
0
  9
$CELTYPE
  6
ByLayer
  9
$CECOLOR
 62
   256
  9
$CELTSCALE
 40
1.0
  9
$DISPSILH
 70
     0
  9
$DIMSCALE
 40
1.0
  9
$DIMASZ
 40
6.0
  9
$DIMEXO
 40
1.0
  9
$DIMDLI
 40
3.75
  9
$DIMRND
 40
0.0
  9
$DIMDLE
 40
0.0
  9
$DIMEXE
 40
1.0
  9
$DIMTP
 40
0.0
  9
$DIMTM
 40
0.0
  9
$DIMTXT
 40
4.0
  9
$DIMCEN
 40
2.5
  9
$DIMTSZ
 40
0.0
  9
$DIMTOL
 70
     0
  9
$DIMLIM
 70
     0
  9
$DIMTIH
 70
     1
  9
$DIMTOH
 70
     1
  9
$DIMSE1
 70
     0
  9
$DIMSE2
 70
     0
  9
$DIMTAD
 70
     1
  9
$DIMZIN
 70
     0
  9
$DIMBLK
  1

  9
$DIMASO
 70
     1
  9
$DIMSHO
 70
     1
  9
$DIMPOST
  1

  9
$DIMAPOST
  1

  9
$DIMALT
 70
     0
  9
$DIMALTD
 70
     3
  9
$DIMALTF
 40
0.0393700787
  9
$DIMLFAC
 40
1.0
  9
$DIMTOFL
 70
     1
  9
$DIMTVP
 40
0.0
  9
$DIMTIX
 70
     0
  9
$DIMSOXD
 70
     0
  9
$DIMSAH
 70
     0
  9
$DIMBLK1
  1

  9
$DIMBLK2
  1

  9
$DIMSTYLE
  2
ISO-25
  9
$DIMCLRD
 70
     0
  9
$DIMCLRE
 70
     0
  9
$DIMCLRT
 70
     0
  9
$DIMTFAC
 40
1.0
  9
$DIMGAP
 40
3.0
  9
$DIMJUST
 70
     0
  9
$DIMSD1
 70
     0
  9
$DIMSD2
 70
     0
  9
$DIMTOLJ
 70
     0
  9
$DIMTZIN
 70
     0
  9
$DIMALTZ
 70
     0
  9
$DIMALTTZ
 70
     0
  9
$DIMUPT
 70
     0
  9
$DIMDEC
 70
     2
  9
$DIMTDEC
 70
     4
  9
$DIMALTU
 70
     2
  9
$DIMALTTD
 70
     3
  9
$DIMTXSTY
  7
Standard
  9
$DIMAUNIT
 70
     0
  9
$DIMADEC
 70
     2
  9
$DIMALTRND
 40
0.0
  9
$DIMAZIN
 70
     0
  9
$DIMDSEP
 70
    44
  9
$DIMATFIT
 70
     3
  9
$DIMFRAC
 70
     0
  9
$DIMLDRBLK
  1

  9
$DIMLUNIT
 70
     2
  9
$DIMLWD
 70
    -2
  9
$DIMLWE
 70
    -2
  9
$DIMTMOVE
 70
     0
  9
$LUNITS
 70
     2
  9
$LUPREC
 70
     2
  9
$SKETCHINC
 40
1.0
  9
$FILLETRAD
 40
10.0
  9
$AUNITS
 70
     0
  9
$AUPREC
 70
     2
  9
$MENU
  1
.
  9
$ELEVATION
 40
0.0
  9
$PELEVATION
 40
0.0
  9
$THICKNESS
 40
0.0
  9
$LIMCHECK
 70
     0
  9
$CHAMFERA
 40
10.0
  9
$CHAMFERB
 40
10.0
  9
$CHAMFERC
 40
20.0
  9
$CHAMFERD
 40
0.0
  9
$SKPOLY
 70
     0
  9
$TDCREATE
 40
2460389.910170382
  9
$TDUCREATE
 40
2460389.826837048
  9
$TDUPDATE
 40
2460389.910210255
  9
$TDUUPDATE
 40
2460389.826876921
  9
$TDINDWG
 40
0.0000000116
  9
$TDUSRTIMER
 40
0.0000000116
  9
$USRTIMER
 70
     1
  9
$ANGBASE
 50
0.0
  9
$ANGDIR
 70
     0
  9
$PDMODE
 70
     0
  9
$PDSIZE
 40
-1.0
  9
$PLINEWID
 40
0.0
  9
$SPLFRAME
 70
     0
  9
$SPLINETYPE
 70
     6
  9
$SPLINESEGS
 70
     8
  9
$HANDSEED
  5
137
  9
$SURFTAB1
 70
     6
  9
$SURFTAB2
 70
     6
  9
$SURFTYPE
 70
     6
  9
$SURFU
 70
     6
  9
$SURFV
 70
     6
  9
$UCSBASE
  2

  9
$UCSNAME
  2

  9
$UCSORG
 10
0.0
 20
0.0
 30
0.0
  9
$UCSXDIR
 10
1.0
 20
0.0
 30
0.0
  9
$UCSYDIR
 10
0.0
 20
1.0
 30
0.0
  9
$UCSORTHOREF
  2

  9
$UCSORTHOVIEW
 70
     0
  9
$UCSORGTOP
 10
0.0
 20
0.0
 30
0.0
  9
$UCSORGBOTTOM
 10
0.0
 20
0.0
 30
0.0
  9
$UCSORGLEFT
 10
0.0
 20
0.0
 30
0.0
  9
$UCSORGRIGHT
 10
0.0
 20
0.0
 30
0.0
  9
$UCSORGFRONT
 10
0.0
 20
0.0
 30
0.0
  9
$UCSORGBACK
 10
0.0
 20
0.0
 30
0.0
  9
$PUCSBASE
  2

  9
$PUCSNAME
  2

  9
$PUCSORG
 10
0.0
 20
0.0
 30
0.0
  9
$PUCSXDIR
 10
1.0
 20
0.0
 30
0.0
  9
$PUCSYDIR
 10
0.0
 20
1.0
 30
0.0
  9
$PUCSORTHOREF
  2

  9
$PUCSORTHOVIEW
 70
     0
  9
$PUCSORGTOP
 10
0.0
 20
0.0
 30
0.0
  9
$PUCSORGBOTTOM
 10
0.0
 20
0.0
 30
0.0
  9
$PUCSORGLEFT
 10
0.0
 20
0.0
 30
0.0
  9
$PUCSORGRIGHT
 10
0.0
 20
0.0
 30
0.0
  9
$PUCSORGFRONT
 10
0.0
 20
0.0
 30
0.0
  9
$PUCSORGBACK
 10
0.0
 20
0.0
 30
0.0
  9
$USERI1
 70
     0
  9
$USERI2
 70
     0
  9
$USERI3
 70
     0
  9
$USERI4
 70
     0
  9
$USERI5
 70
     0
  9
$USERR1
 40
0.0
  9
$USERR2
 40
0.0
  9
$USERR3
 40
0.0
  9
$USERR4
 40
0.0
  9
$USERR5
 40
0.0
  9
$WORLDVIEW
 70
     1
  9
$SHADEDGE
 70
     3
  9
$SHADEDIF
 70
    70
  9
$TILEMODE
 70
     1
  9
$MAXACTVP
 70
    64
  9
$PINSBASE
 10
0.0
 20
0.0
 30
0.0
  9
$PLIMCHECK
 70
     0
  9
$PEXTMIN
 10
1.0000000000E+20
 20
1.0000000000E+20
 30
1.0000000000E+20
  9
$PEXTMAX
 10
-1.0000000000E+20
 20
-1.0000000000E+20
 30
-1.0000000000E+20
  9
$PLIMMIN
 10
0.0
 20
0.0
  9
$PLIMMAX
 10
420.0
 20
297.0
  9
$UNITMODE
 70
     0
  9
$VISRETAIN
 70
     1
  9
$PLINEGEN
 70
     0
  9
$PSLTSCALE
 70
     1
  9
$TREEDEPTH
 70
  3020
  9
$CMLSTYLE
  2
Standard
  9
$CMLJUST
 70
     0
  9
$CMLSCALE
 40
20.0
  9
$PROXYGRAPHICS
 70
     1
  9
$MEASUREMENT
 70
     1
  9
$CELWEIGHT
370
    -1
  9
$ENDCAPS
280
     0
  9
$JOINSTYLE
280
     0
  9
$LWDISPLAY
290
     1
  9
$INSUNITS
 70
     4
  9
$HYPERLINKBASE
  1

  9
$STYLESHEET
  1

  9
$XEDIT
290
     1
  9
$CEPSNTYPE
380
     0
  9
$PSTYLEMODE
290
     1
  9
$FINGERPRINTGUID
  2
{B1258BA8-9B0E-4865-85B5-90C462109E86}
  9
$VERSIONGUID
  2
{FAEB1C32-E019-11D5-929B-00C0DF256EC4}
  9
$EXTNAMES
290
     1
  9
$PSVPSCALE
 40
0.0
  9
$OLESTARTUP
290
     0
  0
ENDSEC
  0
SECTION
  2
CLASSES
  0
CLASS
  1
ACDBDICTIONARYWDFLT
  2
AcDbDictionaryWithDefault
  3
ObjectDBX Classes
 90
        0
280
     0
281
     0
  0
CLASS
  1
VISUALSTYLE
  2
AcDbVisualStyle
  3
ObjectDBX Classes
 90
     4095
280
     0
281
     0
  0
CLASS
  1
MATERIAL
  2
AcDbMaterial
  3
ObjectDBX Classes
 90
     1153
280
     0
281
     0
  0
CLASS
  1
ACDBPLACEHOLDER
  2
AcDbPlaceHolder
  3
ObjectDBX Classes
 90
        0
280
     0
281
     0
  0
CLASS
  1
LAYOUT
  2
AcDbLayout
  3
ObjectDBX Classes
 90
        0
280
     0
281
     0
  0
ENDSEC
  0
SECTION
  2
TABLES
  0
TABLE
  2
VPORT
  5
8
330
0
100
AcDbSymbolTable
 70
     1
  0
VPORT
  5
29
330
8
100
AcDbSymbolTableRecord
100
AcDbViewportTableRecord
  2
*Active
 70
     0
 10
0.0
 20
0.0
 11
1.0
 21
1.0
 12
237.5
 22
67.2
 13
0.0
 23
0.0
 14
10.0
 24
10.0
 15
10.0
 25
10.0
 16
0.0
 26
0.0
 36
1.0
 17
0.0
 27
0.0
 37
0.0
 40
128.112
 41
3.8455414013
 42
50.0
 43
0.0
 44
0.0
 50
0.0
 51
0.0
 71
     0
 72
   100
 73
     1
 74
     3
 75
     0
 76
     0
 77
     0
 78
     0
281
     0
 65
     1
110
0.0
120
0.0
130
0.0
111
1.0
121
0.0
131
0.0
112
0.0
122
1.0
132
0.0
 79
     0
146
0.0
  0
ENDTAB
  0
TABLE
  2
LTYPE
  5
5
330
0
100
AcDbSymbolTable
 70
     6
  0
LTYPE
  5
14
330
5
100
AcDbSymbolTableRecord
100
AcDbLinetypeTableRecord
  2
ByBlock
 70
     0
  3

 72
    65
 73
     0
 40
0.0
  0
LTYPE
  5
15
330
5
100
AcDbSymbolTableRecord
100
AcDbLinetypeTableRecord
  2
ByLayer
 70
     0
  3

 72
    65
 73
     0
 40
0.0
  0
LTYPE
  5
16
330
5
100
AcDbSymbolTableRecord
100
AcDbLinetypeTableRecord
  2
Continuous
 70
     0
  3
Solid line
 72
    65
 73
     0
 40
0.0
  0
LTYPE
  5
3F
330
5
100
AcDbSymbolTableRecord
100
AcDbLinetypeTableRecord
  2
HIDDEN
 70
     0
  3
Hidden __ __ __ __ __ __ __ __ __ __ __ __ __ __
 72
    65
 73
     2
 40
1.905
 49
1.27
 74
     0
 49
-0.635
 74
     0
  0
LTYPE
  5
40
330
5
100
AcDbSymbolTableRecord
100
AcDbLinetypeTableRecord
  2
PHANTOM
 70
     0
  3
Phantom ______  __  __  ______  __  __  ______
 72
    65
 73
     6
 40
12.7
 49
6.35
 74
     0
 49
-1.27
 74
     0
 49
1.27
 74
     0
 49
-1.27
 74
     0
 49
1.27
 74
     0
 49
-1.27
 74
     0
  0
LTYPE
  5
41
330
5
100
AcDbSymbolTableRecord
100
AcDbLinetypeTableRecord
  2
CENTER
 70
     0
  3
Center ____ _ ____ _ ____ _ ____ _ ____ _ ____
 72
    65
 73
     4
 40
10.16
 49
6.35
 74
     0
 49
-1.27
 74
     0
 49
1.27
 74
     0
 49
-1.27
 74
     0
  0
LTYPE
  5
42
330
5
100
AcDbSymbolTableRecord
100
AcDbLinetypeTableRecord
  2
CENTERX2
 70
     0
  3
Center (2x) ________  __  ________  __  _____
 72
    65
 73
     4
 40
20.32
 49
12.7
 74
     0
 49
-2.54
 74
     0
 49
2.54
 74
     0
 49
-2.54
 74
     0
  0
LTYPE
  5
43
330
5
100
AcDbSymbolTableRecord
100
AcDbLinetypeTableRecord
  2
DOT2
 70
     0
  3
Dot (.5x) ........................................
 72
    65
 73
     2
 40
0.635
 49
0.0
 74
     0
 49
-0.635
 74
     0
  0
ENDTAB
  0
TABLE
  2
LAYER
  5
2
330
0
100
AcDbSymbolTable
 70
     1
  0
LAYER
  5
10
330
2
100
AcDbSymbolTableRecord
100
AcDbLayerTableRecord
  2
0
 70
     0
 62
     7
  6
Continuous
370
    -3
390
F
  0
ENDTAB
  0
TABLE
  2
STYLE
  5
3
330
0
100
AcDbSymbolTable
 70
     1
  0
STYLE
  5
11
330
3
100
AcDbSymbolTableRecord
100
AcDbTextStyleTableRecord
  2
Standard
 70
     0
 40
0.0
 41
1.0
 50
0.0
 71
     0
 42
4.0
  3
txt
  4

  0
ENDTAB
  0
TABLE
  2
VIEW
  5
6
330
0
100
AcDbSymbolTable
 70
     0
  0
ENDTAB
  0
TABLE
  2
UCS
  5
7
330
0
100
AcDbSymbolTable
 70
     0
  0
ENDTAB
  0
TABLE
  2
APPID
  5
9
330
0
100
AcDbSymbolTable
 70
     1
  0
APPID
  5
12
330
9
100
AcDbSymbolTableRecord
100
AcDbRegAppTableRecord
  2
ACAD
 70
     0
  0
ENDTAB
  0
TABLE
  2
DIMSTYLE
  5
A
330
0
100
AcDbSymbolTable
 70
     1
100
AcDbDimStyleTable
  0
DIMSTYLE
105
27
330
A
100
AcDbSymbolTableRecord
100
AcDbDimStyleTableRecord
  2
ISO-25
 70
     0
 41
2.5
 42
0.625
 43
3.75
 44
1.25
 73
     0
 74
     0
 77
     1
 78
     8
140
2.5
141
2.5
143
0.0393700787
147
0.625
171
     3
172
     1
178
     0
271
     2
272
     2
274
     3
278
    44
283
     0
284
     8
340
11
  0
ENDTAB
  0
TABLE
  2
BLOCK_RECORD
  5
1
330
0
100
AcDbSymbolTable
 70
     1
  0
BLOCK_RECORD
  5
1F
330
1
100
AcDbSymbolTableRecord
100
AcDbBlockTableRecord
  2
*Model_Space
340
22
  0
BLOCK_RECORD
  5
1B
330
1
100
AcDbSymbolTableRecord
100
AcDbBlockTableRecord
  2
*Paper_Space
340
1E
  0
BLOCK_RECORD
  5
23
330
1
100
AcDbSymbolTableRecord
100
AcDbBlockTableRecord
  2
*Paper_Space0
340
26
  0
ENDTAB
  0
ENDSEC
  0
SECTION
  2
BLOCKS
  0
BLOCK
  5
20
330
1F
100
AcDbEntity
  8
0
100
AcDbBlockBegin
  2
*Model_Space
 70
     0
 10
0.0
 20
0.0
 30
0.0
  3
*Model_Space
  1

  0
ENDBLK
  5
21
330
1F
100
AcDbEntity
  8
0
100
AcDbBlockEnd
  0
BLOCK
  5
1C
330
1B
100
AcDbEntity
 67
     1
  8
0
100
AcDbBlockBegin
  2
*Paper_Space
 70
     0
 10
0.0
 20
0.0
 30
0.0
  3
*Paper_Space
  1

  0
ENDBLK
  5
1D
330
1B
100
AcDbEntity
 67
     1
  8
0
100
AcDbBlockEnd
  0
BLOCK
  5
24
330
23
100
AcDbEntity
  8
0
100
AcDbBlockBegin
  2
*Paper_Space0
 70
     0
 10
0.0
 20
0.0
 30
0.0
  3
*Paper_Space0
  1

  0
ENDBLK
  5
25
330
23
100
AcDbEntity
  8
0
100
AcDbBlockEnd
  0
ENDSEC
  0
SECTION
  2
ENTITIES
  0
SPLINE
  5
44
330
1F
100
AcDbEntity
  8
0
  6
Continuous
 62
     7
370
    15
100
AcDbSpline
210
0.0
220
0.0
230
1.0
 70
     8
 71
     3
 72
    31
 73
    27
 74
     0
 42
0.00000001
 43
0.00000001
 12
1.0
 22
0.0
 32
0.0
 13
1.0
 23
0.0
 33
0.0
 40
0.0
 40
0.0
 40
0.0
 40
0.0
 40
0.0524090873856007
 40
0.1026983221532904
 40
0.1514279672376032
 40
0.199592816480697
 40
0.2472247802437616
 40
0.2954960320817193
 40
0.3447701203765959
 40
0.3959133262698091
 40
0.422465534078465
 40
0.4502083595166742
 40
0.4790082724968172
 40
0.5089694303421395
 40
0.5405736681026462
 40
0.5736803336909938
 40
0.608384669260842
 40
0.6445548787253542
 40
0.6824623283749546
 40
0.7222194592881616
 40
0.7638231652842267
 40
0.807353317562668
 40
0.8525223229992446
 40
0.8996752531256795
 40
0.9488233660788431
 40
1.0
 40
1.0
 40
1.0
 40
1.0
 10
400.673076923077
 20
104.8076923076923
 30
0.0
 10
400.4934906911011
 20
104.8128598386526
 30
0.0
 10
400.1415821648173
 20
104.8229858833095
 30
0.0
 10
399.6277804618678
 20
104.903257926728
 30
0.0
 10
399.1393883613697
 20
105.0318532423446
 30
0.0
 10
398.6781591808916
 20
105.2154530673661
 30
0.0
 10
398.2447528575071
 20
105.4533849702474
 30
0.0
 10
397.835783451273
 20
105.7385997057642
 30
0.0
 10
397.4601484733124
 20
106.0840118773555
 30
0.0
 10
397.1660672751464
 20
106.4055715531548
 30
0.0
 10
396.9509165838689
 20
106.6961243669365
 30
0.0
 10
396.7991721451488
 20
106.9370611558031
 30
0.0
 10
396.6525273171636
 20
107.1948731372414
 30
0.0
 10
396.5259552033385
 20
107.4776208058158
 30
0.0
 10
396.4010805669541
 20
107.7769413354958
 30
0.0
 10
396.2904808806134
 20
108.099285493493
 30
0.0
 10
396.1929033059222
 20
108.4418814348103
 30
0.0
 10
396.1012841711498
 20
108.8031647645116
 30
0.0
 10
396.0248873115859
 20
109.1856240238478
 30
0.0
 10
395.9546134144631
 20
109.5881305580731
 30
0.0
 10
395.8992337934937
 20
110.0123961248088
 30
0.0
 10
395.8501340539347
 20
110.4560576221048
 30
0.0
 10
395.8155650269509
 20
110.9201623599716
 30
0.0
 10
395.7874905663402
 20
111.4039508561236
 30
0.0
 10
395.773413159726
 20
111.9089716989945
 30
0.0
 10
395.7706435660394
 20
112.2525976561528
 30
0.0
 10
395.7692307692308
 20
112.4278846153847
 30
0.0
  0
SPLINE
  5
45
330
1F
100
AcDbEntity
  8
0
  6
Continuous
 62
     7
370
    15
100
AcDbSpline
210
0.0
220
0.0
230
1.0
 70
     8
 71
     3
 72
    15
 73
    11
 74
     0
 42
0.00000001
 43
0.00000001
 12
1.0
 22
0.0
 32
0.0
 13
1.0
 23
0.0
 33
0.0
 40
0.0
 40
0.0
 40
0.0
 40
0.0
 40
0.1239539590100968
 40
0.2446910970343217
 40
0.3639282123713528
 40
0.4834467610619753
 40
0.6060135407011129
 40
0.7313153882149244
 40
0.8627627448661773
 40
1.0
 40
1.0
 40
1.0
 40
1.0
 10
404.0925480769231
 20
106.3311298076923
 30
0.0
 10
403.9882338361445
 20
106.2091958934568
 30
0.0
 10
403.7823124907009
 20
105.9684924622936
 30
0.0
 10
403.4263665657234
 20
105.65819233216
 30
0.0
 10
403.0426342827325
 20
105.3939824953379
 30
0.0
 10
402.6261606680031
 20
105.1797299189081
 30
0.0
 10
402.1810777649569
 20
105.0102303400472
 30
0.0
 10
401.7033879723364
 20
104.8949433354253
 30
0.0
 10
401.1982564385382
 20
104.8205225898478
 30
0.0
 10
400.8506337413422
 20
104.8120300703238
 30
0.0
 10
400.673076923077
 20
104.8076923076923
 30
0.0
  0
SPLINE
  5
46
330
1F
100
AcDbEntity
  8
0
  6
Continuous
 62
     7
370
    15
100
AcDbSpline
210
0.0
220
0.0
230
1.0
 70
     8
 71
     3
 72
    23
 73
    19
 74
     0
 42
0.00000001
 43
0.00000001
 12
1.0
 22
0.0
 32
0.0
 13
1.0
 23
0.0
 33
0.0
 40
0.0
 40
0.0
 40
0.0
 40
0.0
 40
0.081774197655007
 40
0.1602856044887694
 40
0.2360294122889206
 40
0.3091179242207138
 40
0.3795303287483518
 40
0.4473768333769211
 40
0.5123574098506742
 40
0.5747492166038553
 40
0.6349413611576089
 40
0.6929409366900141
 40
0.7487078215596595
 40
0.8027019362432201
 40
0.8542794711661318
 40
0.9042287096499334
 40
0.9527348360365508
 40
1.0
 40
1.0
 40
1.0
 40
1.0
 10
405.5769230769231
 20
112.3978365384616
 30
0.0
 10
405.5759284453988
 20
112.2245362991171
 30
0.0
 10
405.573978868152
 20
111.8848505006875
 30
0.0
 10
405.5539898545069
 20
111.3850346851869
 30
0.0
 10
405.5297818826361
 20
110.9037977858402
 30
0.0
 10
405.4856320800482
 20
110.4411857300461
 30
0.0
 10
405.4355831781024
 20
109.9961344610164
 30
0.0
 10
405.3745136878088
 20
109.5695982209501
 30
0.0
 10
405.2929768432546
 20
109.1639469517372
 30
0.0
 10
405.2122083201079
 20
108.7746884998172
 30
0.0
 10
405.112100939392
 20
108.4050938160271
 30
0.0
 10
405.0002736863891
 20
108.0538020582234
 30
0.0
 10
404.8819730870572
 20
107.7183537971301
 30
0.0
 10
404.7458793470787
 20
107.4044995482628
 30
0.0
 10
404.6019970113643
 20
107.1078352759324
 30
0.0
 10
404.44524231982
 20
106.8310357495448
 30
0.0
 10
404.2778764924138
 20
106.571131711423
 30
0.0
 10
404.1537882550811
 20
106.4104363689869
 30
0.0
 10
404.0925480769231
 20
106.3311298076923
 30
0.0
  0
SPLINE
  5
47
330
1F
100
AcDbEntity
  8
0
  6
Continuous
 62
     7
370
    15
100
AcDbSpline
210
0.0
220
0.0
230
1.0
 70
     8
 71
     3
 72
    23
 73
    19
 74
     0
 42
0.00000001
 43
0.00000001
 12
1.0
 22
0.0
 32
0.0
 13
1.0
 23
0.0
 33
0.0
 40
0.0
 40
0.0
 40
0.0
 40
0.0
 40
0.0466726066463378
 40
0.0952506114606183
 40
0.1448623308943122
 40
0.1963098397204802
 40
0.2497630016680539
 40
0.3057747701480915
 40
0.3632670724145934
 40
0.4235484122315147
 40
0.4860326738002557
 40
0.5514871797432994
 40
0.6194342221892237
 40
0.6899509667931072
 40
0.7631477843701738
 40
0.8390038325452136
 40
0.9181046258836107
 40
0.9999999999999999
 40
0.9999999999999999
 40
0.9999999999999999
 40
0.9999999999999999
 10
404.1045673076924
 20
118.4585336538462
 30
0.0
 10
404.1647876978735
 20
118.380206482395
 30
0.0
 10
404.2876869614739
 20
118.2203544511759
 30
0.0
 10
404.4532046436249
 20
117.9620512267026
 30
0.0
 10
404.6123273760059
 20
117.68804848156
 30
0.0
 10
404.7512259893139
 20
117.3917508703928
 30
0.0
 10
404.8842274333925
 20
117.0783001384548
 30
0.0
 10
405.0074819518599
 20
116.7469820731707
 30
0.0
 10
405.1145000103807
 20
116.3950592069964
 30
0.0
 10
405.215197744598
 20
116.0270314831645
 30
0.0
 10
405.2972571605808
 20
115.6371511970575
 30
0.0
 10
405.3730876523347
 20
115.2296273446485
 30
0.0
 10
405.4359545413147
 20
114.8026124347628
 30
0.0
 10
405.4855287928452
 20
114.3574726747239
 30
0.0
 10
405.5298035088804
 20
113.894885325918
 30
0.0
 10
405.5540639096822
 20
113.4126429698841
 30
0.0
 10
405.5739280075716
 20
112.9118224101125
 30
0.0
 10
405.5759132339148
 20
112.5711363782877
 30
0.0
 10
405.5769230769231
 20
112.3978365384616
 30
0.0
  0
SPLINE
  5
48
330
1F
100
AcDbEntity
  8
0
  6
Continuous
 62
     7
370
    15
100
AcDbSpline
210
0.0
220
0.0
230
1.0
 70
     8
 71
     3
 72
    15
 73
    11
 74
     0
 42
0.00000001
 43
0.00000001
 12
1.0
 22
0.0
 32
0.0
 13
1.0
 23
0.0
 33
0.0
 40
0.0
 40
0.0
 40
0.0
 40
0.0
 40
0.1373230954754149
 40
0.2673523260794567
 40
0.3929646164629456
 40
0.514920444987024
 40
0.6341998202965401
 40
0.7543524309255328
 40
0.8755754919798928
 40
0.9999999999999999
 40
0.9999999999999999
 40
0.9999999999999999
 40
0.9999999999999999
 10
400.673076923077
 20
120.0
 30
0.0
 10
400.8516268990862
 20
119.9956934905999
 30
0.0
 10
401.1992432358884
 20
119.9873092104361
 30
0.0
 10
401.70575851508
 20
119.9130396618467
 30
0.0
 10
402.1826678584513
 20
119.7939525825742
 30
0.0
 10
402.6299362686356
 20
119.6256145562206
 30
0.0
 10
403.0471447301373
 20
119.4070179017897
 30
0.0
 10
403.4315142132648
 20
119.1372284637029
 30
0.0
 10
403.7914437121386
 20
118.8243334601921
 30
0.0
 10
403.9992898449015
 20
118.5815217519912
 30
0.0
 10
404.1045673076923
 20
118.4585336538462
 30
0.0
  0
SPLINE
  5
49
330
1F
100
AcDbEntity
  8
0
  6
Continuous
 62
     7
370
    15
100
AcDbSpline
210
0.0
220
0.0
230
1.0
 70
     8
 71
     3
 72
    15
 73
    11
 74
     0
 42
0.00000001
 43
0.00000001
 12
1.0
 22
0.0
 32
0.0
 13
1.0
 23
0.0
 33
0.0
 40
0.0
 40
0.0
 40
0.0
 40
0.0
 40
0.1239584095619949
 40
0.2446998826385471
 40
0.3639412791697724
 40
0.4841523681816995
 40
0.6059993946649774
 40
0.731305741126445
 40
0.8627578173791423
 40
1.0
 40
1.0
 40
1.0
 40
1.0
 10
397.2536057692308
 20
118.4765625
 30
0.0
 10
397.3579142732564
 20
118.5985081442683
 30
0.0
 10
397.5638242940726
 20
118.839234731082
 30
0.0
 10
397.9198531231213
 20
119.1493653459062
 30
0.0
 10
398.3040096582559
 20
119.4147156272481
 30
0.0
 10
398.7217021107355
 20
119.6264037008333
 30
0.0
 10
399.1657646978192
 20
119.7982270422084
 30
0.0
 10
399.6428293424103
 20
119.9125940776191
 30
0.0
 10
400.147880392539
 20
119.987211243018
 30
0.0
 10
400.4955143522208
 20
119.9956762765256
 30
0.0
 10
400.673076923077
 20
120.0
 30
0.0
  0
SPLINE
  5
4A
330
1F
100
AcDbEntity
  8
0
  6
Continuous
 62
     7
370
    15
100
AcDbSpline
210
0.0
220
0.0
230
1.0
 70
     8
 71
     3
 72
    23
 73
    19
 74
     0
 42
0.00000001
 43
0.00000001
 12
1.0
 22
0.0
 32
0.0
 13
1.0
 23
0.0
 33
0.0
 40
0.0
 40
0.0
 40
0.0
 40
0.0
 40
0.0815293207370417
 40
0.1597869902075432
 40
0.2357429724720377
 40
0.3085642043478952
 40
0.3791738489489818
 40
0.4467415655470536
 40
0.5119041663922566
 40
0.574572994986333
 40
0.634354082343383
 40
0.6925161269835364
 40
0.7484392267210234
 40
0.8021492625368233
 40
0.8538712770701797
 40
0.9039604339608819
 40
0.9526024362914508
 40
1.0
 40
1.0
 40
1.0
 40
1.0
 10
395.7692307692308
 20
112.4278846153847
 30
0.0
 10
395.7702174585419
 20
112.6001839330333
 30
0.0
 10
395.7721512427791
 20
112.937868451106
 30
0.0
 10
395.7922860243018
 20
113.4356713922985
 30
0.0
 10
395.8161740848946
 20
113.9149322141306
 30
0.0
 10
395.8608044299037
 20
114.376489760573
 30
0.0
 10
395.9101513626986
 20
114.8196406175481
 30
0.0
 10
395.9723523730356
 20
115.2449690409393
 30
0.0
 10
396.0518619622229
 20
115.6502744566943
 30
0.0
 10
396.1384306932395
 20
116.0371745142611
 30
0.0
 10
396.2333906735342
 20
116.4070394083708
 30
0.0
 10
396.3462575022091
 20
116.7567774791436
 30
0.0
 10
396.4633757058818
 20
117.0916783346135
 30
0.0
 10
396.6010600983641
 20
117.4038584823176
 30
0.0
 10
396.7440590813802
 20
117.6998983679337
 30
0.0
 10
396.9009364326946
 20
117.9766460262013
 30
0.0
 10
397.0682713868142
 20
118.236563119454
 30
0.0
 10
397.1923636193534
 20
118.3972567724701
 30
0.0
 10
397.2536057692308
 20
118.4765625
 30
0.0
  0
SPLINE
  5
4B
330
1F
100
AcDbEntity
  8
0
  6
Continuous
 62
     7
370
    15
100
AcDbSpline
210
0.0
220
0.0
230
1.0
 70
     8
 71
     3
 72
    23
 73
    19
 74
     0
 42
0.00000001
 43
0.00000001
 12
1.0
 22
0.0
 32
0.0
 13
1.0
 23
0.0
 33
0.0
 40
0.0
 40
0.0
 40
0.0
 40
0.0
 40
0.0534282928165019
 40
0.1047665906471966
 40
0.1549900948249439
 40
0.2045909534925098
 40
0.2542004774278132
 40
0.3046451619956855
 40
0.3567538328657481
 40
0.4105189630472817
 40
0.4670647379806889
 40
0.5272751162564865
 40
0.5917399516749555
 40
0.6614170385233468
 40
0.7365739223556927
 40
0.817931497604647
 40
0.9055660786144746
 40
1.0
 40
1.0
 40
1.0
 40
1.0
 10
305.477764423077
 20
120.0000000000001
 30
0.0
 10
305.6603450540759
 20
119.9949551467832
 30
0.0
 10
306.0183641712816
 20
119.9850627836926
 30
0.0
 10
306.5430810213516
 20
119.9026875999969
 30
0.0
 10
307.0409535515668
 20
119.7625350469489
 30
0.0
 10
307.5169288265409
 20
119.5745928246968
 30
0.0
 10
307.9641462442568
 20
119.3242078838402
 30
0.0
 10
308.3884239736388
 20
119.0220160510127
 30
0.0
 10
308.7840932651558
 20
118.6618479002217
 30
0.0
 10
309.1580815480532
 20
118.2508360103607
 30
0.0
 10
309.4983481662602
 20
117.7759147904985
 30
0.0
 10
309.7880517054695
 20
117.2270289981473
 30
0.0
 10
310.0344764088815
 20
116.6093758482473
 30
0.0
 10
310.2333818762621
 20
115.9216289067944
 30
0.0
 10
310.3888031789654
 20
115.1639645085706
 30
0.0
 10
310.4960730939275
 20
114.3363972252923
 30
0.0
 10
310.5678517966761
 20
113.4387631155213
 30
0.0
 10
310.5738249609862
 20
112.816658781433
 30
0.0
 10
310.5769230769232
 20
112.4939903846154
 30
0.0
  0
SPLINE
  5
4C
330
1F
100
AcDbEntity
  8
0
  6
Continuous
 62
     7
370
    15
100
AcDbSpline
210
0.0
220
0.0
230
1.0
 70
     8
 71
     3
 72
    23
 73
    19
 74
     0
 42
0.00000001
 43
0.00000001
 12
1.0
 22
0.0
 32
0.0
 13
1.0
 23
0.0
 33
0.0
 40
0.0
 40
0.0
 40
0.0
 40
0.0
 40
0.0702401062491082
 40
0.1377810383236608
 40
0.2022781382994817
 40
0.2652493801263753
 40
0.3267062120892937
 40
0.3874492857403316
 40
0.4479538536530184
 40
0.5093841167997307
 40
0.5704959252253948
 40
0.6305089817313857
 40
0.6895451741904788
 40
0.7490025483064408
 40
0.8093527413258407
 40
0.8708550931277478
 40
0.9340936515016331
 40
0.9999999999999999
 40
0.9999999999999999
 40
0.9999999999999999
 40
0.9999999999999999
 10
300.7692307692308
 20
115.1171875
 30
0.0
 10
300.7730297982135
 20
115.2956835911176
 30
0.0
 10
300.7804818677763
 20
115.6458165576548
 30
0.0
 10
300.8458588767825
 20
116.1562783426663
 30
0.0
 10
300.9457036690241
 20
116.642193058123
 30
0.0
 10
301.094789747898
 20
117.0992546649784
 30
0.0
 10
301.2803057853394
 20
117.5323720320235
 30
0.0
 10
301.5108866641272
 20
117.9361135563158
 30
0.0
 10
301.7788938087897
 20
118.3160948620526
 30
0.0
 10
302.0920719628577
 20
118.661016886182
 30
0.0
 10
302.4325021184409
 20
118.9767594687959
 30
0.0
 10
302.7997445920004
 20
119.2515259509327
 30
0.0
 10
303.191668861151
 20
119.4811527264884
 30
0.0
 10
303.6048026923833
 20
119.6719808019188
 30
0.0
 10
304.0422452812327
 20
119.8189463805859
 30
0.0
 10
304.5012008498423
 20
119.9236769131907
 30
0.0
 10
304.9821156962904
 20
119.9886153360575
 30
0.0
 10
305.3102884554997
 20
119.9961532078946
 30
0.0
 10
305.477764423077
 20
120.0
 30
0.0
  0
SPLINE
  5
4D
330
1F
100
AcDbEntity
  8
0
  6
Continuous
 62
     7
370
    15
100
AcDbSpline
210
0.0
220
0.0
230
1.0
 70
     8
 71
     3
 72
    23
 73
    19
 74
     0
 42
0.00000001
 43
0.00000001
 12
1.0
 22
0.0
 32
0.0
 13
1.0
 23
0.0
 33
0.0
 40
0.0
 40
0.0
 40
0.0
 40
0.0
 40
0.0612668588685778
 40
0.1209662961677017
 40
0.1793269055240351
 40
0.2378002547117236
 40
0.2962617467870112
 40
0.3558812952642915
 40
0.4167494055312129
 40
0.4795073031032392
 40
0.5429135943641854
 40
0.6052002466384
 40
0.6676813715383232
 40
0.730875470541472
 40
0.7947284631359179
 40
0.860384066169982
 40
0.9287514343155139
 40
1.0
 40
1.0
 40
1.0
 40
1.0
 10
305.1712740384616
 20
110.3846153846154
 30
0.0
 10
305.0238485909159
 20
110.3888434368818
 30
0.0
 10
304.7327693568927
 20
110.3971913729781
 30
0.0
 10
304.304549768137
 20
110.457819200281
 30
0.0
 10
303.8919588862506
 20
110.5612049422422
 30
0.0
 10
303.4943380016418
 20
110.7045729515462
 30
0.0
 10
303.1136972076142
 20
110.8945998126622
 30
0.0
 10
302.7451828988362
 20
111.1186371257327
 30
0.0
 10
302.3967029883892
 20
111.3898203345706
 30
0.0
 10
302.0631728342166
 20
111.6928336378491
 30
0.0
 10
301.7632328440221
 20
112.0339617785414
 30
0.0
 10
301.4953615187031
 20
112.3997444877033
 30
0.0
 10
301.2686883166186
 20
112.7921935888097
 30
0.0
 10
301.085856641886
 20
113.2108919627761
 30
0.0
 10
300.944456622957
 20
113.653174530812
 30
0.0
 10
300.8416534212075
 20
114.1186698558371
 30
0.0
 10
300.7815865530072
 20
114.6098035184697
 30
0.0
 10
300.7734056392255
 20
114.9457485853484
 30
0.0
 10
300.7692307692308
 20
115.1171875
 30
0.0
  0
SPLINE
  5
4E
330
1F
100
AcDbEntity
  8
0
  6
Continuous
 62
     7
370
    15
100
AcDbSpline
210
0.0
220
0.0
230
1.0
 70
     8
 71
     3
 72
    15
 73
    11
 74
     0
 42
0.00000001
 43
0.00000001
 12
1.0
 22
0.0
 32
0.0
 13
1.0
 23
0.0
 33
0.0
 40
0.0
 40
0.0
 40
0.0
 40
0.0
 40
0.1301900769552758
 40
0.2566886321244237
 40
0.3796569215111025
 40
0.5012233733199273
 40
0.6223956310597776
 40
0.7448946318981984
 40
0.8707157349022343
 40
0.9999999999999999
 40
0.9999999999999999
 40
0.9999999999999999
 40
0.9999999999999999
 10
307.9206730769231
 20
111.6316105769231
 30
0.0
 10
307.8283912996419
 20
111.5325633357857
 30
0.0
 10
307.6464443822248
 20
111.3372773244563
 30
0.0
 10
307.3450986644856
 20
111.0810698235867
 30
0.0
 10
307.0242431562779
 20
110.8656663092022
 30
0.0
 10
306.6855193285746
 20
110.692043498116
 30
0.0
 10
306.3324608718893
 20
110.5501930334112
 30
0.0
 10
305.9592632106562
 20
110.4568863500517
 30
0.0
 10
305.5711226547514
 20
110.3928686940421
 30
0.0
 10
305.305757723875
 20
110.3873912738479
 30
0.0
 10
305.1712740384615
 20
110.3846153846154
 30
0.0
  0
SPLINE
  5
4F
330
1F
100
AcDbEntity
  8
0
  6
Continuous
 62
     7
370
    15
100
AcDbSpline
210
0.0
220
0.0
230
1.0
 70
     8
 71
     3
 72
    23
 73
    19
 74
     0
 42
0.00000001
 43
0.00000001
 12
1.0
 22
0.0
 32
0.0
 13
1.0
 23
0.0
 33
0.0
 40
0.0
 40
0.0
 40
0.0
 40
0.0
 40
0.0397939103511711
 40
0.0786441461908162
 40
0.1175749007403503
 40
0.1568659475868287
 40
0.1972185745122382
 40
0.2389183750035546
 40
0.2836471067761028
 40
0.3306660096206248
 40
0.3828731110497688
 40
0.443497684044183
 40
0.5126902889279831
 40
0.5905940151895247
 40
0.6783908545914189
 40
0.7757338267246143
 40
0.8827034224736395
 40
0.9999999999999999
 40
0.9999999999999999
 40
0.9999999999999999
 40
0.9999999999999999
 10
305.6640625000001
 20
107.3076923076923
 30
0.0
 10
305.7354351223222
 20
107.3093465634492
 30
0.0
 10
305.8764878335132
 20
107.3126158458703
 30
0.0
 10
306.0828308461658
 20
107.3587070760843
 30
0.0
 10
306.2825070146955
 20
107.4233238526282
 30
0.0
 10
306.4734582045193
 20
107.5178975282006
 30
0.0
 10
306.653858925651
 20
107.6396126375236
 30
0.0
 10
306.8281825325853
 20
107.7857217412595
 30
0.0
 10
306.9910819087635
 20
107.9609088509049
 30
0.0
 10
307.1528887195146
 20
108.1619918534087
 30
0.0
 10
307.2993499314965
 20
108.4090135075166
 30
0.0
 10
307.4286102154592
 20
108.708624817912
 30
0.0
 10
307.5492971754827
 20
109.0607427179101
 30
0.0
 10
307.6484347850072
 20
109.4697462928008
 30
0.0
 10
307.7376680397064
 20
109.9321105957335
 30
0.0
 10
307.8152962290286
 20
110.4493153178617
 30
0.0
 10
307.8782771276566
 20
111.0216764816831
 30
0.0
 10
307.9061138202762
 20
111.4221521927159
 30
0.0
 10
307.9206730769231
 20
111.6316105769231
 30
0.0
  0
SPLINE
  5
50
330
1F
100
AcDbEntity
  8
0
  6
Continuous
 62
     7
370
    15
100
AcDbSpline
210
0.0
220
0.0
230
1.0
 70
     8
 71
     3
 72
    15
 73
    11
 74
     0
 42
0.00000001
 43
0.00000001
 12
1.0
 22
0.0
 32
0.0
 13
1.0
 23
0.0
 33
0.0
 40
0.0
 40
0.0
 40
0.0
 40
0.0
 40
0.1576427908297452
 40
0.297977244428474
 40
0.4243479229964998
 40
0.5399023001429718
 40
0.6512049489192234
 40
0.7608288691813652
 40
0.8758862599684812
 40
0.9999999999999999
 40
0.9999999999999999
 40
0.9999999999999999
 40
0.9999999999999999
 10
304.0384615384616
 20
109.0384615384616
 30
0.0
 10
304.0573501611999
 20
108.9003547775314
 30
0.0
 10
304.0930535366919
 20
108.6393046410658
 30
0.0
 10
304.2072186512671
 20
108.2810871054152
 30
0.0
 10
304.3503078704741
 20
107.9735986788426
 30
0.0
 10
304.5447571391791
 20
107.7261543905257
 30
0.0
 10
304.7768110623771
 20
107.5372850022419
 30
0.0
 10
305.0425857761115
 20
107.4009991561141
 30
0.0
 10
305.3431419157071
 20
107.3224946297671
 30
0.0
 10
305.5544222227254
 20
107.3127494176941
 30
0.0
 10
305.6640625000001
 20
107.3076923076923
 30
0.0
  0
SPLINE
  5
52
330
1F
100
AcDbEntity
  8
0
  6
Continuous
 62
     7
370
    15
100
AcDbSpline
210
0.0
220
0.0
230
1.0
 70
     8
 71
     3
 72
    23
 73
    19
 74
     0
 42
0.00000001
 43
0.00000001
 12
1.0
 22
0.0
 32
0.0
 13
1.0
 23
0.0
 33
0.0
 40
0.0
 40
0.0
 40
0.0
 40
0.0
 40
0.066042188683248
 40
0.1295778492903685
 40
0.1906389490435832
 40
0.2496406897267387
 40
0.30692331473211
 40
0.3634138554911048
 40
0.420189127584303
 40
0.4768918382379009
 40
0.5343976327958695
 40
0.5933314940605722
 40
0.6539640631941075
 40
0.7166316030423112
 40
0.7824465528426812
 40
0.8512634545319313
 40
0.9236441324383486
 40
1.0
 40
1.0
 40
1.0
 40
1.0
 10
305.2554086538462
 20
104.8076923076923
 30
0.0
 10
305.1170731060197
 20
104.8105392018515
 30
0.0
 10
304.8456523199259
 20
104.8161249407504
 30
0.0
 10
304.4482733210328
 20
104.8610625725246
 30
0.0
 10
304.0712104765009
 20
104.9391496415787
 30
0.0
 10
303.7157188308771
 20
105.0482022760578
 30
0.0
 10
303.3790239224587
 20
105.1823032459166
 30
0.0
 10
303.0639842589601
 20
105.3524327110592
 30
0.0
 10
302.7705177560728
 20
105.5547019629514
 30
0.0
 10
302.4936273476335
 20
105.7828942703513
 30
0.0
 10
302.2444363678454
 20
106.0474072031522
 30
0.0
 10
302.0152103232915
 20
106.3394489495337
 30
0.0
 10
301.8095794270953
 20
106.6619417761119
 30
0.0
 10
301.634449715722
 20
107.0176576405211
 30
0.0
 10
301.4727877087183
 20
107.3983444060245
 30
0.0
 10
301.3425621548135
 20
107.8124396871962
 30
0.0
 10
301.2339514483365
 20
108.2552708078143
 30
0.0
 10
301.181019478681
 20
108.5623227554928
 30
0.0
 10
301.1538461538462
 20
108.719951923077
 30
0.0
  0
SPLINE
  5
53
330
1F
100
AcDbEntity
  8
0
  6
Continuous
 62
     7
370
    15
100
AcDbSpline
210
0.0
220
0.0
230
1.0
 70
     8
 71
     3
 72
    23
 73
    19
 74
     0
 42
0.00000001
 43
0.00000001
 12
1.0
 22
0.0
 32
0.0
 13
1.0
 23
0.0
 33
0.0
 40
0.0
 40
0.0
 40
0.0
 40
0.0
 40
0.0929684978981435
 40
0.1796190127418994
 40
0.2599307969998243
 40
0.3342928210780372
 40
0.4033594219391463
 40
0.4674866722224747
 40
0.5275080672266689
 40
0.5839739592262351
 40
0.6379088361798718
 40
0.6900487158246259
 40
0.7408323275431818
 40
0.7910762043891691
 40
0.8414806052123229
 40
0.8927076811809763
 40
0.9453694004147262
 40
1.0
 40
1.0
 40
1.0
 40
1.0
 10
310.5769230769232
 20
112.4939903846154
 30
0.0
 10
310.5724452141299
 20
112.1663300407434
 30
0.0
 10
310.5637937965822
 20
111.5332765999376
 30
0.0
 10
310.4939887390458
 20
110.6193793154861
 30
0.0
 10
310.3835000640478
 20
109.7755370771227
 30
0.0
 10
310.2210518046505
 20
109.0032575988871
 30
0.0
 10
310.0171903254766
 20
108.2997639979656
 30
0.0
 10
309.7608462047951
 20
107.6677360486767
 30
0.0
 10
309.4622900122517
 20
107.1039141409708
 30
0.0
 10
309.1127904377312
 20
106.6134897933443
 30
0.0
 10
308.7285639348371
 20
106.187255846205
 30
0.0
 10
308.3155938325348
 20
105.817992100115
 30
0.0
 10
307.8732881427345
 20
105.5068120521702
 30
0.0
 10
307.4054851834358
 20
105.2472472055907
 30
0.0
 10
306.905190278523
 20
105.0528698879279
 30
0.0
 10
306.379326522597
 20
104.9120473836903
 30
0.0
 10
305.8264793245658
 20
104.8208242268731
 30
0.0
 10
305.4480801635647
 20
104.8121228393652
 30
0.0
 10
305.2554086538462
 20
104.8076923076923
 30
0.0
  0
SPLINE
  5
54
330
1F
100
AcDbEntity
  8
0
  6
Continuous
 62
     7
370
    15
100
AcDbSpline
210
0.0
220
0.0
230
1.0
 70
     8
 71
     3
 72
    15
 73
    11
 74
     0
 42
0.00000001
 43
0.00000001
 12
1.0
 22
0.0
 32
0.0
 13
1.0
 23
0.0
 33
0.0
 40
0.0
 40
0.0
 40
0.0
 40
0.0
 40
0.1378250445885035
 40
0.269592783024251
 40
0.3978336502208065
 40
0.5216191754872626
 40
0.6434058357868958
 40
0.7629099350561935
 40
0.8811660440548124
 40
1.0
 40
1.0
 40
1.0
 40
1.0
 10
210.7542067307693
 20
104.8076923076923
 30
0.0
 10
210.5878342673882
 20
104.8115359679147
 30
0.0
 10
210.2624012841783
 20
104.8190543624084
 30
0.0
 10
209.7839680608106
 20
104.8668371484856
 30
0.0
 10
209.3277199500475
 20
104.9505059972248
 30
0.0
 10
208.8919000207394
 20
105.0689793133067
 30
0.0
 10
208.4759573548883
 20
105.2169067962605
 30
0.0
 10
208.0850655342493
 20
105.4066318281841
 30
0.0
 10
207.7106153615654
 20
105.6207321614415
 30
0.0
 10
207.4822496227516
 20
105.7937092937374
 30
0.0
 10
207.3677884615385
 20
105.8804086538462
 30
0.0
  0
SPLINE
  5
55
330
1F
100
AcDbEntity
  8
0
  6
Continuous
 62
     7
370
    15
100
AcDbSpline
210
0.0
220
0.0
230
1.0
 70
     8
 71
     3
 72
    23
 73
    19
 74
     0
 42
0.00000001
 43
0.00000001
 12
1.0
 22
0.0
 32
0.0
 13
1.0
 23
0.0
 33
0.0
 40
0.0
 40
0.0
 40
0.0
 40
0.0
 40
0.0668544831936687
 40
0.1313598400113226
 40
0.1933762637624024
 40
0.2537274522063264
 40
0.3133539521361047
 40
0.3725413800430923
 40
0.4319434273160819
 40
0.4924424313617355
 40
0.5529988943259269
 40
0.6131309643207256
 40
0.6732985147301087
 40
0.7343813225636241
 40
0.7972597157665736
 40
0.8619070579816477
 40
0.9295700761763761
 40
0.9999999999999999
 40
0.9999999999999999
 40
0.9999999999999999
 40
0.9999999999999999
 10
215.5769230769231
 20
109.4771634615385
 30
0.0
 10
215.5726447147682
 20
109.3087418115959
 30
0.0
 10
215.5642383231348
 20
108.977816495386
 30
0.0
 10
215.505267821348
 20
108.4932564577719
 30
0.0
 10
215.3987566115711
 20
108.0338680485327
 30
0.0
 10
215.2534365520177
 20
107.5984973925755
 30
0.0
 10
215.0722283374263
 20
107.1840283499536
 30
0.0
 10
214.8402646738174
 20
106.7984805809242
 30
0.0
 10
214.5719514335686
 20
106.4349300589459
 30
0.0
 10
214.263034475058
 20
106.1001846186175
 30
0.0
 10
213.9209851038829
 20
105.7969126979564
 30
0.0
 10
213.5502795474716
 20
105.5303927616564
 30
0.0
 10
213.1502581398643
 20
105.3078467893986
 30
0.0
 10
212.7242097865067
 20
105.1222334422089
 30
0.0
 10
212.2689722865671
 20
104.983287291847
 30
0.0
 10
211.7877330475586
 20
104.8797558307752
 30
0.0
 10
211.2795440992817
 20
104.8201439308303
 30
0.0
 10
210.931642767324
 20
104.8118979225804
 30
0.0
 10
210.7542067307693
 20
104.8076923076923
 30
0.0
  0
SPLINE
  5
56
330
1F
100
AcDbEntity
  8
0
  6
Continuous
 62
     7
370
    15
100
AcDbSpline
210
0.0
220
0.0
230
1.0
 70
     8
 71
     3
 72
    23
 73
    19
 74
     0
 42
0.00000001
 43
0.00000001
 12
1.0
 22
0.0
 32
0.0
 13
1.0
 23
0.0
 33
0.0
 40
0.0
 40
0.0
 40
0.0
 40
0.0
 40
0.0696652338645572
 40
0.136700853700299
 40
0.2019858007489297
 40
0.2654873028118535
 40
0.3277977822476782
 40
0.3890001484141338
 40
0.4494134412450138
 40
0.5103711257464475
 40
0.5703990966333327
 40
0.6307146596194237
 40
0.6900042834164052
 40
0.7502937583550022
 40
0.8105277586763463
 40
0.8722866668268923
 40
0.935378076622117
 40
1.0
 40
1.0
 40
1.0
 40
1.0
 10
213.0048076923077
 20
113.1550480769231
 30
0.0
 10
213.107639258457
 20
113.1124575738617
 30
0.0
 10
213.3094208660129
 20
113.0288842072764
 30
0.0
 10
213.5961652093584
 20
112.8801375489426
 30
0.0
 10
213.8632286577478
 20
112.7172056146819
 30
0.0
 10
214.1153121598821
 20
112.5444602709457
 30
0.0
 10
214.3427461294587
 20
112.350192370596
 30
0.0
 10
214.5538644327785
 20
112.1457542199057
 30
0.0
 10
214.7486905047541
 20
111.9283011001192
 30
0.0
 10
214.9210402532654
 20
111.6949474562226
 30
0.0
 10
215.0752727519659
 20
111.4496493474184
 30
0.0
 10
215.2106119390195
 20
111.1962823870121
 30
0.0
 10
215.3221761375307
 20
110.9311514699483
 30
0.0
 10
215.4150554432669
 20
110.65920024367
 30
0.0
 10
215.4885064082762
 20
110.3770867700678
 30
0.0
 10
215.5374594501537
 20
110.0854026545218
 30
0.0
 10
215.5736106855029
 20
109.7845508480911
 30
0.0
 10
215.5758101602983
 20
109.580441271844
 30
0.0
 10
215.5769230769231
 20
109.4771634615385
 30
0.0
  0
SPLINE
  5
57
330
1F
100
AcDbEntity
  8
0
  6
Continuous
 62
     7
370
    15
100
AcDbSpline
210
0.0
220
0.0
230
1.0
 70
     8
 71
     3
 72
    15
 73
    11
 74
     0
 42
0.00000001
 43
0.00000001
 12
1.0
 22
0.0
 32
0.0
 13
1.0
 23
0.0
 33
0.0
 40
0.0
 40
0.0
 40
0.0
 40
0.0
 40
0.1252106833553463
 40
0.2463899552640138
 40
0.3655558098681925
 40
0.4870965159204524
 40
0.6099111469796652
 40
0.7346825965243382
 40
0.864055060614313
 40
1.0
 40
1.0
 40
1.0
 40
1.0
 10
215.1923076923077
 20
116.2019230769231
 30
0.0
 10
215.1857268668661
 20
116.0350155241008
 30
0.0
 10
215.1727770989812
 20
115.7065743450331
 30
0.0
 10
215.0598324556306
 20
115.2303402723863
 30
0.0
 10
214.8820769807402
 20
114.7805240746276
 30
0.0
 10
214.626801335139
 20
114.3668018502431
 30
0.0
 10
214.3107641570625
 20
113.9879047607306
 30
0.0
 10
213.9288999511573
 20
113.6596617610512
 30
0.0
 10
213.4937605271712
 20
113.3722475796792
 30
0.0
 10
213.1704615710744
 20
113.2286337840349
 30
0.0
 10
213.0048076923077
 20
113.1550480769231
 30
0.0
  0
SPLINE
  5
58
330
1F
100
AcDbEntity
  8
0
  6
Continuous
 62
     7
370
    15
100
AcDbSpline
210
0.0
220
0.0
230
1.0
 70
     8
 71
     3
 72
    23
 73
    19
 74
     0
 42
0.00000001
 43
0.00000001
 12
1.0
 22
0.0
 32
0.0
 13
1.0
 23
0.0
 33
0.0
 40
0.0
 40
0.0
 40
0.0
 40
0.0
 40
0.0787148275647069
 40
0.1527638138658314
 40
0.2235310598104303
 40
0.2905448652951659
 40
0.3553678643938373
 40
0.4178465416295842
 40
0.4786690804427549
 40
0.5391106634316171
 40
0.5982548859921349
 40
0.6558015514215667
 40
0.711980408597164
 40
0.7675832446964935
 40
0.8239401076854008
 40
0.8808509972488231
 40
0.9393558415923853
 40
1.0
 40
1.0
 40
1.0
 40
1.0
 10
210.673076923077
 20
120.0000000000001
 30
0.0
 10
210.8474540162263
 20
119.996193325276
 30
0.0
 10
211.1858719563332
 20
119.9888056174325
 30
0.0
 10
211.6794363251699
 20
119.9415731181951
 30
0.0
 10
212.1416515040108
 20
119.8577324904172
 30
0.0
 10
212.5759092218057
 20
119.741382755654
 30
0.0
 10
212.9782545408667
 20
119.5867097505297
 30
0.0
 10
213.3544473851244
 20
119.4055232505937
 30
0.0
 10
213.6963779311648
 20
119.1827381222588
 30
0.0
 10
214.0073946399277
 20
118.9309174799377
 30
0.0
 10
214.2882797628376
 20
118.6556764427623
 30
0.0
 10
214.5280510865966
 20
118.3561637212908
 30
0.0
 10
214.7355344337771
 20
118.0428223015977
 30
0.0
 10
214.9018215500269
 20
117.7084825596047
 30
0.0
 10
215.0306477631056
 20
117.3564803016115
 30
0.0
 10
215.1237893136643
 20
116.986998654999
 30
0.0
 10
215.1832592626823
 20
116.6004869471367
 30
0.0
 10
215.1892556607621
 20
116.3363585044166
 30
0.0
 10
215.1923076923077
 20
116.2019230769231
 30
0.0
  0
SPLINE
  5
59
330
1F
100
AcDbEntity
  8
0
  6
Continuous
 62
     7
370
    15
100
AcDbSpline
210
0.0
220
0.0
230
1.0
 70
     8
 71
     3
 72
    23
 73
    19
 74
     0
 42
0.00000001
 43
0.00000001
 12
1.0
 22
0.0
 32
0.0
 13
1.0
 23
0.0
 33
0.0
 40
0.0
 40
0.0
 40
0.0
 40
0.0
 40
0.060587570737443
 40
0.1189732116422994
 40
0.1758309970860107
 40
0.232135272922942
 40
0.2876862254603171
 40
0.3435667514711567
 40
0.4007768999061048
 40
0.4595456756563656
 40
0.5195801399238579
 40
0.5807258242999904
 40
0.6427412166730775
 40
0.7075037287835692
 40
0.7753269745895308
 40
0.8460281869098306
 40
0.9209071953251285
 40
1.0
 40
1.0
 40
1.0
 40
1.0
 10
206.1538461538462
 20
116.2019230769231
 30
0.0
 10
206.157250399056
 20
116.3363069958574
 30
0.0
 10
206.163935169231
 20
116.6001909283882
 30
0.0
 10
206.2183564669885
 20
116.9872938235165
 30
0.0
 10
206.3128150087959
 20
117.3564137056017
 30
0.0
 10
206.4410923678886
 20
117.7085945250811
 30
0.0
 10
206.607996404937
 20
118.0419549835008
 30
0.0
 10
206.8118113158176
 20
118.3561711273767
 30
0.0
 10
207.0487653356557
 20
118.6556366429421
 30
0.0
 10
207.3267938570066
 20
118.9306300865216
 30
0.0
 10
207.6353737236334
 20
119.1846987696794
 30
0.0
 10
207.9787968561118
 20
119.4036401222467
 30
0.0
 10
208.3533860138182
 20
119.5875789353839
 30
0.0
 10
208.7570047470054
 20
119.7423667030814
 30
0.0
 10
209.1937292228479
 20
119.8567655947777
 30
0.0
 10
209.659612744709
 20
119.9422419980571
 30
0.0
 10
210.1563161690642
 20
119.9885594389104
 30
0.0
 10
210.497709002486
 20
119.9961175313855
 30
0.0
 10
210.6730769230769
 20
120.0
 30
0.0
  0
SPLINE
  5
5A
330
1F
100
AcDbEntity
  8
0
  6
Continuous
 62
     7
370
    15
100
AcDbSpline
210
0.0
220
0.0
230
1.0
 70
     8
 71
     3
 72
    19
 73
    15
 74
     0
 42
0.00000001
 43
0.00000001
 12
1.0
 22
0.0
 32
0.0
 13
1.0
 23
0.0
 33
0.0
 40
0.0
 40
0.0
 40
0.0
 40
0.0
 40
0.0748445853067877
 40
0.1469107447723018
 40
0.2165118234411284
 40
0.2823326684469351
 40
0.3465403327661351
 40
0.4093645297620193
 40
0.4707787155544131
 40
0.5307355663086527
 40
0.648994976664296
 40
0.7645288368638938
 40
0.8807476380811169
 40
1.0
 40
1.0
 40
1.0
 40
1.0
 10
208.3203125
 20
113.1550480769231
 30
0.0
 10
208.2285964509111
 20
113.1938834788176
 30
0.0
 10
208.04856909123
 20
113.2701126113925
 30
0.0
 10
207.7929646606862
 20
113.4033869957923
 30
0.0
 10
207.5560040447363
 20
113.5455253241393
 30
0.0
 10
207.3414099145482
 20
113.7021904448873
 30
0.0
 10
207.1402903984385
 20
113.8620541337394
 30
0.0
 10
206.9645557513838
 20
114.0414134876398
 30
0.0
 10
206.8038210342837
 20
114.2266743521697
 30
0.0
 10
206.6204678497018
 20
114.4879646451377
 30
0.0
 10
206.433426239377
 20
114.832870838133
 30
0.0
 10
206.2726820405105
 20
115.2711862294457
 30
0.0
 10
206.1727672171199
 20
115.7296921490229
 30
0.0
 10
206.1602071119615
 20
116.0431666101381
 30
0.0
 10
206.1538461538462
 20
116.2019230769231
 30
0.0
  0
SPLINE
  5
5B
330
1F
100
AcDbEntity
  8
0
  6
Continuous
 62
     7
370
    15
100
AcDbSpline
210
0.0
220
0.0
230
1.0
 70
     8
 71
     3
 72
    19
 73
    15
 74
     0
 42
0.00000001
 43
0.00000001
 12
1.0
 22
0.0
 32
0.0
 13
1.0
 23
0.0
 33
0.0
 40
0.0
 40
0.0
 40
0.0
 40
0.0
 40
0.1222275397197992
 40
0.2415823941005997
 40
0.3604211238518651
 40
0.4802613882638431
 40
0.5410818694598436
 40
0.601977168292985
 40
0.6642769329329823
 40
0.727555667509203
 40
0.7918663421677627
 40
0.8588587325927847
 40
0.9283231107530965
 40
1.0
 40
1.0
 40
1.0
 40
1.0
 10
205.7692307692308
 20
109.3539663461539
 30
0.0
 10
205.776801286327
 20
109.5528228521202
 30
0.0
 10
205.7917643924231
 20
109.9458621860048
 30
0.0
 10
205.9093853621982
 20
110.5228169157938
 30
0.0
 10
206.1035859807577
 20
111.0731332259371
 30
0.0
 10
206.3254657471378
 20
111.5087423775525
 30
0.0
 10
206.5439874313295
 20
111.8356275959349
 30
0.0
 10
206.7319878312841
 20
112.0689421101088
 30
0.0
 10
206.9424544547987
 20
112.287664995956
 30
0.0
 10
207.1737394680185
 20
112.4928047585524
 30
0.0
 10
207.4293293757666
 20
112.6800166591444
 30
0.0
 10
207.706287712954
 20
112.8530534029043
 30
0.0
 10
208.0025794041651
 20
113.0174714775907
 30
0.0
 10
208.2133003903272
 20
113.1087124501686
 30
0.0
 10
208.3203125
 20
113.1550480769231
 30
0.0
  0
SPLINE
  5
5C
330
1F
100
AcDbEntity
  8
0
  6
Continuous
 62
     7
370
    15
100
AcDbSpline
210
0.0
220
0.0
230
1.0
 70
     8
 71
     3
 72
    15
 73
    11
 74
     0
 42
0.00000001
 43
0.00000001
 12
1.0
 22
0.0
 32
0.0
 13
1.0
 23
0.0
 33
0.0
 40
0.0
 40
0.0
 40
0.0
 40
0.0
 40
0.1261687009336522
 40
0.2490639253941041
 40
0.368684889924391
 40
0.4890308293839466
 40
0.6101851070373705
 40
0.7355297117077702
 40
0.8642305085771045
 40
1.0
 40
1.0
 40
1.0
 40
1.0
 10
207.3677884615385
 20
105.8804086538462
 30
0.0
 10
207.2395805734066
 20
105.9874170491633
 30
0.0
 10
206.986491180805
 20
106.1986574819378
 30
0.0
 10
206.6638949258602
 20
106.5661747946692
 30
0.0
 10
206.3850719700677
 20
106.9574898976642
 30
0.0
 10
206.1596792885558
 20
107.3798200735
 30
0.0
 10
205.9838486360991
 20
107.8329313235746
 30
0.0
 10
205.8590468427875
 20
108.3138359270979
 30
0.0
 10
205.7812348099751
 20
108.8245913153072
 30
0.0
 10
205.7733027845313
 20
109.1743915453652
 30
0.0
 10
205.7692307692308
 20
109.3539663461539
 30
0.0
  0
SPLINE
  5
5E
330
1F
100
AcDbEntity
  8
0
  6
Continuous
 62
     7
370
    15
100
AcDbSpline
210
0.0
220
0.0
230
1.0
 70
     8
 71
     3
 72
    27
 73
    23
 74
     0
 42
0.00000001
 43
0.00000001
 12
1.0
 22
0.0
 32
0.0
 13
1.0
 23
0.0
 33
0.0
 40
0.0
 40
0.0
 40
0.0
 40
0.0
 40
0.0314272898339579
 40
0.0646054795207701
 40
0.0994393445169631
 40
0.1364563048065969
 40
0.1753519851952033
 40
0.2161008675321624
 40
0.2589775198518823
 40
0.3040074750734814
 40
0.3957568126458642
 40
0.487615630896669
 40
0.5798735059012292
 40
0.6727070790515445
 40
0.7186945783923679
 40
0.7630792377552902
 40
0.8058934434386095
 40
0.8473863361294182
 40
0.8876001486816204
 40
0.9263862120921257
 40
0.963754727860468
 40
1.0
 40
1.0
 40
1.0
 40
1.0
 10
120.5769230769231
 20
117.6923076923077
 30
0.0
 10
120.4746103360762
 20
117.5882078170014
 30
0.0
 10
120.2642847331233
 20
117.3742083790051
 30
0.0
 10
119.963013878443
 20
117.02397701651
 30
0.0
 10
119.6572792847796
 20
116.6439145314049
 30
0.0
 10
119.3534741721408
 20
116.2288995910098
 30
0.0
 10
119.0421549116141
 20
115.7854880815577
 30
0.0
 10
118.7370028868521
 20
115.3051800771771
 30
0.0
 10
118.4275104573157
 20
114.7942066111168
 30
0.0
 10
118.0108357955548
 20
114.0714336223884
 30
0.0
 10
117.5237951065549
 20
113.1272687787804
 30
0.0
 10
117.0085318231195
 20
111.9536236519968
 30
0.0
 10
116.5695510975124
 20
110.7439348052034
 30
0.0
 10
116.2689563672493
 20
109.7131907282938
 30
0.0
 10
116.0658562411216
 20
108.8870509369702
 30
0.0
 10
115.9331604473529
 20
108.282957940411
 30
0.0
 10
115.8214587491134
 20
107.6958649083229
 30
0.0
 10
115.7305894921091
 20
107.1247400393619
 30
0.0
 10
115.6627712073077
 20
106.5693227858394
 30
0.0
 10
115.6091831977853
 20
106.0315441418721
 30
0.0
 10
115.5827451309695
 20
105.5100927251023
 30
0.0
 10
115.5788439192572
 20
105.1682924433338
 30
0.0
 10
115.5769230769231
 20
105.0
 30
0.0
  0
SPLINE
  5
63
330
1F
100
AcDbEntity
  8
0
  6
Continuous
 62
     7
370
    15
100
AcDbSpline
210
0.0
220
0.0
230
1.0
 70
     8
 71
     3
 72
    23
 73
    19
 74
     0
 42
0.00000001
 43
0.00000001
 12
1.0
 22
0.0
 32
0.0
 13
1.0
 23
0.0
 33
0.0
 40
0.0
 40
0.0
 40
0.0
 40
0.0
 40
0.0589531092367044
 40
0.1185611431738026
 40
0.1785228682718519
 40
0.239353031656895
 40
0.3010260066553677
 40
0.3637735516132121
 40
0.4273825220979526
 40
0.4923338678875937
 40
0.5574758345064431
 40
0.6219603622633539
 40
0.6858892184262928
 40
0.7492545849121954
 40
0.8122671686462051
 40
0.8750355330743765
 40
0.9375335567344819
 40
1.0
 40
1.0
 40
1.0
 40
1.0
 10
112.6923076923077
 20
105.0
 30
0.0
 10
112.7019531949663
 20
105.2555430486915
 30
0.0
 10
112.7213513545627
 20
105.7694680371315
 30
0.0
 10
112.7939286025438
 20
106.5408526794498
 30
0.0
 10
112.9079189762423
 20
107.3151096227459
 30
0.0
 10
113.0495026715119
 20
108.0940283195999
 30
0.0
 10
113.2364284445916
 20
108.8757125201948
 30
0.0
 10
113.4497680219537
 20
109.6630578192075
 30
0.0
 10
113.708196841835
 20
110.4518590232073
 30
0.0
 10
113.9978886132783
 20
111.2406078993039
 30
0.0
 10
114.3176931018061
 20
112.0218159094934
 30
0.0
 10
114.6662349966544
 20
112.7857935438633
 30
0.0
 10
115.0426132823511
 20
113.5277745233752
 30
0.0
 10
115.4419332343316
 20
114.2503658052803
 30
0.0
 10
115.8688403651621
 20
114.951242764612
 30
0.0
 10
116.3236560912605
 20
115.6296443177063
 30
0.0
 10
116.7999289646359
 20
116.2904777903817
 30
0.0
 10
117.1404697517227
 20
116.7122460745684
 30
0.0
 10
117.3106971153846
 20
116.923076923077
 30
0.0
  0
SPLINE
  5
64
330
1F
100
AcDbEntity
  8
0
  6
Continuous
 62
     7
370
    15
100
AcDbSpline
210
0.0
220
0.0
230
1.0
 70
     8
 71
     3
 72
    23
 73
    19
 74
     0
 42
0.00000001
 43
0.00000001
 12
1.0
 22
0.0
 32
0.0
 13
1.0
 23
0.0
 33
0.0
 40
0.0
 40
0.0
 40
0.0
 40
0.0
 40
0.045930966321211
 40
0.0906953690752914
 40
0.1346879139170988
 40
0.179249235571351
 40
0.2248969069580336
 40
0.2727227121900691
 40
0.3227462779247647
 40
0.3759735277318671
 40
0.4331922434402993
 40
0.4950591647977308
 40
0.5628095946487078
 40
0.6364709576347567
 40
0.7169118652570408
 40
0.8040264816661912
 40
0.8984303394526727
 40
1.0
 40
1.0
 40
1.0
 40
1.0
 10
19.92796266233765
 20
104.8051948051948
 30
0.0
 10
19.78143429768495
 20
104.8102223166332
 30
0.0
 10
19.49209912412825
 20
104.8201496498019
 30
0.0
 10
19.06979293895497
 20
104.9061824284316
 30
0.0
 10
18.66494629439011
 20
105.0391554339893
 30
0.0
 10
18.28312724550421
 20
105.2351097773884
 30
0.0
 10
17.91651028441541
 20
105.480175012016
 30
0.0
 10
17.57317333865202
 20
105.7842540313173
 30
0.0
 10
17.24906265561715
 20
106.1413084156241
 30
0.0
 10
16.94208438914224
 20
106.5513904851419
 30
0.0
 10
16.66258407646581
 20
107.0258357637268
 30
0.0
 10
16.42796813491892
 20
107.5744022167092
 30
0.0
 10
16.22378174511491
 20
108.1900682855863
 30
0.0
 10
16.06327333349813
 20
108.8794173890306
 30
0.0
 10
15.93187453463141
 20
109.6373359338851
 30
0.0
 10
15.84397005361352
 20
110.46806095049
 30
0.0
 10
15.78863161797706
 20
111.3689626175297
 30
0.0
 10
15.78243327329148
 20
111.9936207182682
 30
0.0
 10
15.77922077922075
 20
112.3173701298702
 30
0.0
  0
SPLINE
  5
65
330
1F
100
AcDbEntity
  8
0
  6
Continuous
 62
     7
370
    15
100
AcDbSpline
210
0.0
220
0.0
230
1.0
 70
     8
 71
     3
 72
    23
 73
    19
 74
     0
 42
0.00000001
 43
0.00000001
 12
1.0
 22
0.0
 32
0.0
 13
1.0
 23
0.0
 33
0.0
 40
0.0
 40
0.0
 40
0.0
 40
0.0
 40
0.0811444250475191
 40
0.1578752458553646
 40
0.2305384789397113
 40
0.3000624438300483
 40
0.3668315472998351
 40
0.4313608900190715
 40
0.49406520540577
 40
0.5554307801750485
 40
0.6149810510549937
 40
0.6723949177250487
 40
0.7276697609744144
 40
0.7814810601225299
 40
0.8349559495357338
 40
0.8888903007894792
 40
0.9437051604956815
 40
1.0
 40
1.0
 40
1.0
 40
1.0
 10
23.76623376623374
 20
109.8488230519481
 30
0.0
 10
23.76272688645845
 20
109.6569341707702
 30
0.0
 10
23.75590387296878
 20
109.2835936205707
 30
0.0
 10
23.70314357372746
 20
108.7405349746868
 30
0.0
 10
23.619785432172
 20
108.2292028867978
 30
0.0
 10
23.49750097127162
 20
107.7498425756536
 30
0.0
 10
23.342356148009
 20
107.3005407172454
 30
0.0
 10
23.154677582753
 20
106.8811398624811
 30
0.0
 10
22.92831539727419
 20
106.4958559176473
 30
0.0
 10
22.66934057666453
 20
106.1464922812046
 30
0.0
 10
22.38657867208266
 20
105.8328813542576
 30
0.0
 10
22.08538564907514
 20
105.5577354350016
 30
0.0
 10
21.7672616444877
 20
105.3244662171425
 30
0.0
 10
21.43277251287065
 20
105.1333855346836
 30
0.0
 10
21.08008187205601
 20
104.9858499734468
 30
0.0
 10
20.70962019824818
 20
104.8839609465951
 30
0.0
 10
20.32405779807944
 20
104.8167546185741
 30
0.0
 10
20.06116163212787
 20
104.8090821420848
 30
0.0
 10
19.92796266233765
 20
104.8051948051948
 30
0.0
  0
SPLINE
  5
66
330
1F
100
AcDbEntity
  8
0
  6
Continuous
 62
     7
370
    15
100
AcDbSpline
210
0.0
220
0.0
230
1.0
 70
     8
 71
     3
 72
    23
 73
    19
 74
     0
 42
0.00000001
 43
0.00000001
 12
1.0
 22
0.0
 32
0.0
 13
1.0
 23
0.0
 33
0.0
 40
0.0
 40
0.0
 40
0.0
 40
0.0
 40
0.052026606320274
 40
0.103403055177849
 40
0.1542517610325685
 40
0.2060144741650792
 40
0.2596107053197228
 40
0.3147450565477841
 40
0.3733704900527838
 40
0.4350806949639069
 40
0.498782915913706
 40
0.563645552387806
 40
0.6296937742547091
 40
0.6976893321013472
 40
0.768507026176868
 40
0.8419708673374448
 40
0.9193415386299195
 40
1.0
 40
1.0
 40
1.0
 40
1.0
 10
20.25060876623375
 20
114.7402597402598
 30
0.0
 10
20.36649098992554
 20
114.7358307823204
 30
0.0
 10
20.59680729956087
 20
114.7270282135086
 30
0.0
 10
20.93655246434267
 20
114.666638032425
 30
0.0
 10
21.26233349316109
 20
114.5565236983591
 30
0.0
 10
21.57865845235365
 20
114.409888821979
 30
0.0
 10
21.88274729711731
 20
114.2202819038083
 30
0.0
 10
22.17565076404038
 20
113.9884978107373
 30
0.0
 10
22.45411014738125
 20
113.7133029455914
 30
0.0
 10
22.72036739022282
 20
113.4011371608404
 30
0.0
 10
22.96796865618522
 20
113.0561967058394
 30
0.0
 10
23.17904048330402
 20
112.6767369980655
 30
0.0
 10
23.36340217669749
 20
112.2733930410024
 30
0.0
 10
23.51374760883718
 20
111.8416988797413
 30
0.0
 10
23.62356891162498
 20
111.3811881949843
 30
0.0
 10
23.70563042047882
 20
110.8941480092761
 30
0.0
 10
23.75953919702336
 20
110.3806715344788
 30
0.0
 10
23.76397150516302
 20
110.0285478527146
 30
0.0
 10
23.76623376623374
 20
109.8488230519481
 30
0.0
  0
SPLINE
  5
67
330
1F
100
AcDbEntity
  8
0
  6
Continuous
 62
     7
370
    15
100
AcDbSpline
210
0.0
220
0.0
230
1.0
 70
     8
 71
     3
 72
    15
 73
    11
 74
     0
 42
0.00000001
 43
0.00000001
 12
1.0
 22
0.0
 32
0.0
 13
1.0
 23
0.0
 33
0.0
 40
0.0
 40
0.0
 40
0.0
 40
0.0
 40
0.1434402235577478
 40
0.2780654167806339
 40
0.4044994090607613
 40
0.5259531903245958
 40
0.6435510406462035
 40
0.7604909300026023
 40
0.8788187916204722
 40
1.0
 40
1.0
 40
1.0
 40
1.0
 10
18.11688311688309
 20
113.4679383116883
 30
0.0
 10
18.18903562704813
 20
113.5688498194968
 30
0.0
 10
18.32890655943506
 20
113.7644713807348
 30
0.0
 10
18.56376603979776
 20
114.0247734801515
 30
0.0
 10
18.81305484703938
 20
114.2429085078785
 30
0.0
 10
19.07225982837904
 20
114.4248253368582
 30
0.0
 10
19.34630389139425
 20
114.566899265001
 30
0.0
 10
19.63484373342489
 20
114.6688977241899
 30
0.0
 10
19.93886124774541
 20
114.7266965947064
 30
0.0
 10
20.14587086985981
 20
114.7357029266551
 30
0.0
 10
20.25060876623375
 20
114.7402597402598
 30
0.0
  0
SPLINE
  5
68
330
1F
100
AcDbEntity
  8
0
  6
Continuous
 62
     7
370
    15
100
AcDbSpline
210
0.0
220
0.0
230
1.0
 70
     8
 71
     3
 72
    23
 73
    19
 74
     0
 42
0.00000001
 43
0.00000001
 12
1.0
 22
0.0
 32
0.0
 13
1.0
 23
0.0
 33
0.0
 40
0.0
 40
0.0
 40
0.0
 40
0.0
 40
0.0360511350137355
 40
0.0710986199789547
 40
0.1064207428414623
 40
0.1430192623315518
 40
0.1811982950235408
 40
0.2212908914227341
 40
0.2642302684895664
 40
0.31056667069993
 40
0.3629138449657492
 40
0.4238531277963441
 40
0.494699631159613
 40
0.5750468845678478
 40
0.66575378310814
 40
0.7670801029792492
 40
0.8784619184413766
 40
0.9999999999999999
 40
0.9999999999999999
 40
0.9999999999999999
 40
0.9999999999999999
 10
19.94926948051945
 20
117.6623376623377
 30
0.0
 10
19.88915033278471
 20
117.6603939540164
 30
0.0
 10
19.77058573179163
 20
117.6565606494828
 30
0.0
 10
19.59760857079196
 20
117.6138889352954
 30
0.0
 10
19.43093562543138
 20
117.5501222120592
 30
0.0
 10
19.27168032112547
 20
117.4577626603353
 30
0.0
 10
19.12230273841009
 20
117.337472583638
 30
0.0
 10
18.98188806070589
 20
117.1921311580277
 30
0.0
 10
18.84694565635236
 20
117.0239305260882
 30
0.0
 10
18.71980100743867
 20
116.8249145192709
 30
0.0
 10
18.60214459558263
 20
116.5860085164479
 30
0.0
 10
18.50105738567026
 20
116.2961719047442
 30
0.0
 10
18.40749106818698
 20
115.9555625677472
 30
0.0
 10
18.32627660628394
 20
115.5609647104758
 30
0.0
 10
18.25821577895315
 20
115.1126742160064
 30
0.0
 10
18.19739708228685
 20
114.6113107329245
 30
0.0
 10
18.1490794217859
 20
114.057004212537
 30
0.0
 10
18.12792272486946
 20
113.6699197702175
 30
0.0
 10
18.11688311688309
 20
113.4679383116883
 30
0.0
  0
SPLINE
  5
69
330
1F
100
AcDbEntity
  8
0
  6
Continuous
 62
     7
370
    15
100
AcDbSpline
210
0.0
220
0.0
230
1.0
 70
     8
 71
     3
 72
    15
 73
    11
 74
     0
 42
0.00000001
 43
0.00000001
 12
1.0
 22
0.0
 32
0.0
 13
1.0
 23
0.0
 33
0.0
 40
0.0
 40
0.0
 40
0.0
 40
0.0
 40
0.1716554392580605
 40
0.3232824593589273
 40
0.4569349476744491
 40
0.5749662273160668
 40
0.6828952293538021
 40
0.7856673895944513
 40
0.8885090818439693
 40
1.0
 40
1.0
 40
1.0
 40
1.0
 10
21.23376623376621
 20
115.9090909090909
 30
0.0
 10
21.21838377349383
 20
116.0464995679241
 30
0.0
 10
21.18941364816992
 20
116.3052843134398
 30
0.0
 10
21.10514399611152
 20
116.6644954769713
 30
0.0
 10
20.99033255137503
 20
116.9690925365327
 30
0.0
 10
20.84843333657352
 20
117.2233854757152
 30
0.0
 10
20.66847823416745
 20
117.4211681281676
 30
0.0
 10
20.45615682070104
 20
117.5616993865735
 30
0.0
 10
20.21239567296099
 20
117.648834053044
 30
0.0
 10
20.03930650429031
 20
117.6577169714833
 30
0.0
 10
19.94926948051945
 20
117.6623376623377
 30
0.0
  0
SPLINE
  5
6B
330
1F
100
AcDbEntity
  8
0
  6
Continuous
 62
     7
370
    15
100
AcDbSpline
210
0.0
220
0.0
230
1.0
 70
     8
 71
     3
 72
    23
 73
    19
 74
     0
 42
0.00000001
 43
0.00000001
 12
1.0
 22
0.0
 32
0.0
 13
1.0
 23
0.0
 33
0.0
 40
0.0
 40
0.0
 40
0.0
 40
0.0
 40
0.058658852509009
 40
0.115581950196628
 40
0.1707065134433003
 40
0.2252623724032208
 40
0.2798841532789947
 40
0.3349188816262414
 40
0.3904472535162189
 40
0.4478033324857613
 40
0.506742692344951
 40
0.5675379361185346
 40
0.6308438632786254
 40
0.6967446215622968
 40
0.7664146372404441
 40
0.8399054409015553
 40
0.9178941136628224
 40
1.0
 40
1.0
 40
1.0
 40
1.0
 10
20.16538149350647
 20
120.0
 30
0.0
 10
20.27408892270147
 20
119.9969491732492
 30
0.0
 10
20.48828705529004
 20
119.990937795759
 30
0.0
 10
20.80216362471252
 20
119.9472718656671
 30
0.0
 10
21.1034001069747
 20
119.8778971731093
 30
0.0
 10
21.39130193138053
 20
119.7768561646814
 30
0.0
 10
21.66588599002206
 20
119.6446437579956
 30
0.0
 10
21.92844176668821
 20
119.4864632053472
 30
0.0
 10
22.17731487107921
 20
119.2987721275648
 30
0.0
 10
22.41096595503139
 20
119.0819316965627
 30
0.0
 10
22.63192291173555
 20
118.8386192018808
 30
0.0
 10
22.82995604190302
 20
118.562447694514
 30
0.0
 10
23.00621530450297
 20
118.2571180322549
 30
0.0
 10
23.16108591033264
 20
117.9223993581509
 30
0.0
 10
23.29956473668327
 20
117.560147952216
 30
0.0
 10
23.40927743222729
 20
117.1649930285796
 30
0.0
 10
23.50532084362703
 20
116.7427099020597
 30
0.0
 10
23.54901806935406
 20
116.4492200966932
 30
0.0
 10
23.57142857142855
 20
116.2987012987013
 30
0.0
  0
SPLINE
  5
6C
330
1F
100
AcDbEntity
  8
0
  6
Continuous
 62
     7
370
    15
100
AcDbSpline
210
0.0
220
0.0
230
1.0
 70
     8
 71
     3
 72
    23
 73
    19
 74
     0
 42
0.00000001
 43
0.00000001
 12
1.0
 22
0.0
 32
0.0
 13
1.0
 23
0.0
 33
0.0
 40
0.0
 40
0.0
 40
0.0
 40
0.0
 40
0.099772370851528
 40
0.1926306920502768
 40
0.2784824919625827
 40
0.35785038577282
 40
0.4304339645385363
 40
0.4977119482966563
 40
0.5594530058677731
 40
0.6163220914463383
 40
0.6697109111659144
 40
0.7200397813160707
 40
0.7682955470611514
 40
0.8150071338222218
 40
0.8604504074611218
 40
0.9058216573986344
 40
0.9521971925409364
 40
1.0
 40
1.0
 40
1.0
 40
1.0
 10
15.77922077922075
 20
112.3173701298702
 30
0.0
 10
15.78226508190253
 20
112.6461911272727
 30
0.0
 10
15.78814272244969
 20
113.2810464058404
 30
0.0
 10
15.84584129978703
 20
114.1974342406527
 30
0.0
 10
15.94222904046025
 20
115.0427968831893
 30
0.0
 10
16.07405485579591
 20
115.8157249303455
 30
0.0
 10
16.24229035573646
 20
116.5190975165821
 30
0.0
 10
16.45448213262615
 20
117.1496269471768
 30
0.0
 10
16.70238103292948
 20
117.7109008692235
 30
0.0
 10
16.99001900530647
 20
118.2011188360835
 30
0.0
 10
17.31356961666303
 20
118.6210433906028
 30
0.0
 10
17.65157539164719
 20
118.9915876394006
 30
0.0
 10
18.01525405589988
 20
119.3051680930689
 30
0.0
 10
18.4036331860335
 20
119.5590614619869
 30
0.0
 10
18.81303700998627
 20
119.7566367689518
 30
0.0
 10
19.24384044247302
 20
119.8971497374036
 30
0.0
 10
19.69706634147961
 20
119.9857027365655
 30
0.0
 10
20.00770718932612
 20
119.9951863375465
 30
0.0
 10
20.16538149350647
 20
120.0
 30
0.0
  0
SPLINE
  5
6D
330
1F
100
AcDbEntity
  8
0
  6
Continuous
 62
     7
370
    15
100
AcDbSpline
210
0.0
220
0.0
230
1.0
 70
     8
 71
     3
 72
    19
 73
    15
 74
     0
 42
0.00000001
 43
0.00000001
 12
1.0
 22
0.0
 32
0.0
 13
1.0
 23
0.0
 33
0.0
 40
0.0
 40
0.0
 40
0.0
 40
0.0
 40
0.1046725881823604
 40
0.2179224116127569
 40
0.3405185375579562
 40
0.4735651107347256
 40
0.5421968301606598
 40
0.609703182311382
 40
0.6755753979924268
 40
0.7416019791549904
 40
0.8061045072963652
 40
0.8709579598542411
 40
0.935136254876978
 40
0.9999999999999999
 40
0.9999999999999999
 40
0.9999999999999999
 40
0.9999999999999999
 10
6.818181818181807
 20
116.2987012987013
 30
0.0
 10
6.986293912370933
 20
116.3734177772217
 30
0.0
 10
7.336293789350579
 20
116.5289732618916
 30
0.0
 10
7.84832546003475
 20
116.8412963042313
 30
0.0
 10
8.365456806249227
 20
117.2324151034002
 30
0.0
 10
8.794548350987752
 20
117.6078583622454
 30
0.0
 10
9.129223985245433
 20
117.9418908771393
 30
0.0
 10
9.367692271640415
 20
118.204982682334
 30
0.0
 10
9.581182873983158
 20
118.4828693619828
 30
0.0
 10
9.779034217984567
 20
118.7656315935977
 30
0.0
 10
9.953724012351978
 20
119.0613555825811
 30
0.0
 10
10.10795067453446
 20
119.3643641941362
 30
0.0
 10
10.24480313983594
 20
119.6766340139445
 30
0.0
 10
10.31618785545105
 20
119.8918303088694
 30
0.0
 10
10.35206980519479
 20
120.0
 30
0.0
  0
SPLINE
  5
6F
330
1F
100
AcDbEntity
  8
0
  6
Continuous
 62
     7
370
    15
100
AcDbSpline
210
0.0
220
0.0
230
1.0
 70
     8
 71
     3
 72
    15
 73
    11
 74
     0
 42
0.00000001
 43
0.00000001
 12
1.0
 22
0.0
 32
0.0
 13
1.0
 23
0.0
 33
0.0
 40
0.0
 40
0.0
 40
0.0
 40
0.0
 40
0.1291850431602388
 40
0.2562041821241477
 40
0.3820429862809612
 40
0.5053841222052816
 40
0.6299573653232355
 40
0.7528488117954786
 40
0.8762905154440007
 40
1.0
 40
1.0
 40
1.0
 40
1.0
 10
9.935064935064908
 20
115.9090909090909
 30
0.0
 10
9.82168880750009
 20
115.7901204588379
 30
0.0
 10
9.596837405785458
 20
115.5541742056311
 30
0.0
 10
9.239115390891396
 20
115.2247844386537
 30
0.0
 10
8.869021485774454
 20
114.9211041789107
 30
0.0
 10
8.484113589507514
 20
114.6417566284381
 30
0.0
 10
8.088795956607026
 20
114.3840903943093
 30
0.0
 10
7.678067568468561
 20
114.1515126563846
 30
0.0
 10
7.255411184029892
 20
113.9435378164387
 30
0.0
 10
6.964030174329117
 20
113.8253777905847
 30
0.0
 10
6.818181818181807
 20
113.7662337662338
 30
0.0
  0
SPLINE
  5
74
330
1F
100
AcDbEntity
  8
0
  6
Continuous
 62
     7
370
    15
100
AcDbSpline
210
0.0
220
0.0
230
1.0
 70
     8
 71
     3
 72
    19
 73
    15
 74
     0
 42
0.00000001
 43
0.00000001
 12
1.0
 22
0.0
 32
0.0
 13
1.0
 23
0.0
 33
0.0
 40
0.0
 40
0.0
 40
0.0
 40
0.0
 40
0.1044728014505072
 40
0.2186534455744868
 40
0.3428558890245155
 40
0.4792694623690649
 40
0.5495409926991596
 40
0.6174241096395696
 40
0.6835351858950317
 40
0.7485971287880191
 40
0.8121759604466002
 40
0.8748692871861429
 40
0.9374294362357425
 40
1.0
 40
1.0
 40
1.0
 40
1.0
 10
100.0
 20
116.1538461538462
 30
0.0
 10
100.1921068505519
 20
116.2258779789954
 30
0.0
 10
100.5941715430692
 20
116.376634985041
 30
0.0
 10
101.187483818822
 20
116.6973027791353
 30
0.0
 10
101.8067678360266
 20
117.0943218607254
 30
0.0
 10
102.3270017622658
 20
117.4837056371199
 30
0.0
 10
102.740046113357
 20
117.829898933178
 30
0.0
 10
103.0287327129711
 20
118.1081840213811
 30
0.0
 10
103.2962174466444
 20
118.3931623867734
 30
0.0
 10
103.5324460947644
 20
118.6940320870038
 30
0.0
 10
103.7436197716856
 20
119.0047101999225
 30
0.0
 10
103.9307288555434
 20
119.3246891785645
 30
0.0
 10
104.0954278609197
 20
119.654979817122
 30
0.0
 10
104.1816466385471
 20
119.8849868911587
 30
0.0
 10
104.2247596153846
 20
120.0
 30
0.0
  0
SPLINE
  5
76
330
1F
100
AcDbEntity
  8
0
  6
Continuous
 62
     7
370
    15
100
AcDbSpline
210
0.0
220
0.0
230
1.0
 70
     8
 71
     3
 72
    15
 73
    11
 74
     0
 42
0.00000001
 43
0.00000001
 12
1.0
 22
0.0
 32
0.0
 13
1.0
 23
0.0
 33
0.0
 40
0.0
 40
0.0
 40
0.0
 40
0.0
 40
0.12657090956243
 40
0.2514247494891277
 40
0.3764250499327932
 40
0.5000934709746326
 40
0.6241806899120439
 40
0.748133449553378
 40
0.8738690196222154
 40
1.0
 40
1.0
 40
1.0
 40
1.0
 10
103.6538461538461
 20
115.6790865384616
 30
0.0
 10
103.5230998886823
 20
115.5463546891217
 30
0.0
 10
103.2633810711505
 20
115.282691639809
 30
0.0
 10
102.8485692056867
 20
114.9149168441535
 30
0.0
 10
102.4179312474904
 20
114.5727893160609
 30
0.0
 10
101.9672056384572
 20
114.2595586426777
 30
0.0
 10
101.5022845138083
 20
113.9707618374284
 30
0.0
 10
101.0184166429384
 20
113.7086776226898
 30
0.0
 10
100.5191092677489
 20
113.4696796910724
 30
0.0
 10
100.1732174300757
 20
113.3361169707687
 30
0.0
 10
100.0
 20
113.2692307692308
 30
0.0
  0
SPLINE
  5
7B
330
1F
100
AcDbEntity
  8
0
  6
Continuous
 62
     7
370
    15
100
AcDbSpline
210
0.0
220
0.0
230
1.0
 70
     8
 71
     3
 72
    19
 73
    15
 74
     0
 42
0.00000001
 43
0.00000001
 12
1.0
 22
0.0
 32
0.0
 13
1.0
 23
0.0
 33
0.0
 40
0.0
 40
0.0
 40
0.0
 40
0.0
 40
0.1044728014505073
 40
0.2186534455744871
 40
0.342855889024516
 40
0.4792694623690636
 40
0.5495409926991617
 40
0.617424109639572
 40
0.6835351858950325
 40
0.74859712878802
 40
0.8121759604466012
 40
0.874869287186146
 40
0.9374294362357424
 40
1.0
 40
1.0
 40
1.0
 40
1.0
 10
195.0
 20
116.1538461538462
 30
0.0
 10
195.1921068505519
 20
116.2258779789953
 30
0.0
 10
195.5941715430693
 20
116.376634985041
 30
0.0
 10
196.1874838188221
 20
116.6973027791353
 30
0.0
 10
196.8067678360266
 20
117.0943218607255
 30
0.0
 10
197.3270017622657
 20
117.4837056371198
 30
0.0
 10
197.7400461133571
 20
117.829898933178
 30
0.0
 10
198.0287327129712
 20
118.1081840213811
 30
0.0
 10
198.2962174466444
 20
118.3931623867734
 30
0.0
 10
198.5324460947644
 20
118.6940320870039
 30
0.0
 10
198.7436197716856
 20
119.0047101999224
 30
0.0
 10
198.9307288555435
 20
119.3246891785646
 30
0.0
 10
199.0954278609198
 20
119.654979817122
 30
0.0
 10
199.1816466385471
 20
119.8849868911588
 30
0.0
 10
199.2247596153846
 20
120.0000000000001
 30
0.0
  0
SPLINE
  5
7D
330
1F
100
AcDbEntity
  8
0
  6
Continuous
 62
     7
370
    15
100
AcDbSpline
210
0.0
220
0.0
230
1.0
 70
     8
 71
     3
 72
    15
 73
    11
 74
     0
 42
0.00000001
 43
0.00000001
 12
1.0
 22
0.0
 32
0.0
 13
1.0
 23
0.0
 33
0.0
 40
0.0
 40
0.0
 40
0.0
 40
0.0
 40
0.12657090956243
 40
0.2514247494891277
 40
0.3764250499327907
 40
0.5000934709746302
 40
0.6241806899120467
 40
0.748133449553378
 40
0.8738690196222166
 40
1.0
 40
1.0
 40
1.0
 40
1.0
 10
198.6538461538462
 20
115.6790865384616
 30
0.0
 10
198.5230998886823
 20
115.5463546891217
 30
0.0
 10
198.2633810711505
 20
115.282691639809
 30
0.0
 10
197.8485692056867
 20
114.9149168441535
 30
0.0
 10
197.4179312474905
 20
114.5727893160609
 30
0.0
 10
196.9672056384572
 20
114.2595586426777
 30
0.0
 10
196.5022845138084
 20
113.9707618374285
 30
0.0
 10
196.0184166429385
 20
113.7086776226899
 30
0.0
 10
195.5191092677489
 20
113.4696796910723
 30
0.0
 10
195.1732174300757
 20
113.3361169707687
 30
0.0
 10
195.0
 20
113.2692307692308
 30
0.0
  0
SPLINE
  5
82
330
1F
100
AcDbEntity
  8
0
  6
Continuous
 62
     7
370
    15
100
AcDbSpline
210
0.0
220
0.0
230
1.0
 70
     8
 71
     3
 72
    19
 73
    15
 74
     0
 42
0.00000001
 43
0.00000001
 12
1.0
 22
0.0
 32
0.0
 13
1.0
 23
0.0
 33
0.0
 40
0.0
 40
0.0
 40
0.0
 40
0.0
 40
0.1044728014505117
 40
0.2186534455744872
 40
0.342855889024512
 40
0.4792694623690635
 40
0.5495409926991599
 40
0.6174241096395684
 40
0.6835351858950321
 40
0.7485971287880167
 40
0.8121759604466031
 40
0.8748692871861434
 40
0.9374294362357442
 40
1.0
 40
1.0
 40
1.0
 40
1.0
 10
290.0
 20
116.1538461538462
 30
0.0
 10
290.1921068505519
 20
116.2258779789954
 30
0.0
 10
290.5941715430692
 20
116.376634985041
 30
0.0
 10
291.1874838188219
 20
116.6973027791352
 30
0.0
 10
291.8067678360266
 20
117.0943218607255
 30
0.0
 10
292.3270017622656
 20
117.4837056371198
 30
0.0
 10
292.7400461133571
 20
117.829898933178
 30
0.0
 10
293.028732712971
 20
118.1081840213811
 30
0.0
 10
293.2962174466444
 20
118.3931623867734
 30
0.0
 10
293.5324460947643
 20
118.6940320870039
 30
0.0
 10
293.7436197716855
 20
119.0047101999224
 30
0.0
 10
293.9307288555435
 20
119.3246891785646
 30
0.0
 10
294.0954278609197
 20
119.654979817122
 30
0.0
 10
294.1816466385471
 20
119.8849868911587
 30
0.0
 10
294.2247596153846
 20
120.0
 30
0.0
  0
SPLINE
  5
84
330
1F
100
AcDbEntity
  8
0
  6
Continuous
 62
     7
370
    15
100
AcDbSpline
210
0.0
220
0.0
230
1.0
 70
     8
 71
     3
 72
    15
 73
    11
 74
     0
 42
0.00000001
 43
0.00000001
 12
1.0
 22
0.0
 32
0.0
 13
1.0
 23
0.0
 33
0.0
 40
0.0
 40
0.0
 40
0.0
 40
0.0
 40
0.126570909562434
 40
0.2514247494891358
 40
0.3764250499327934
 40
0.5000934709746375
 40
0.6241806899120482
 40
0.748133449553379
 40
0.873869019622216
 40
0.9999999999999999
 40
0.9999999999999999
 40
0.9999999999999999
 40
0.9999999999999999
 10
293.6538461538461
 20
115.6790865384616
 30
0.0
 10
293.5230998886823
 20
115.5463546891217
 30
0.0
 10
293.2633810711505
 20
115.282691639809
 30
0.0
 10
292.8485692056866
 20
114.9149168441535
 30
0.0
 10
292.4179312474905
 20
114.5727893160609
 30
0.0
 10
291.9672056384572
 20
114.2595586426778
 30
0.0
 10
291.5022845138082
 20
113.9707618374284
 30
0.0
 10
291.0184166429383
 20
113.7086776226899
 30
0.0
 10
290.5191092677489
 20
113.4696796910724
 30
0.0
 10
290.1732174300757
 20
113.3361169707687
 30
0.0
 10
290.0
 20
113.2692307692308
 30
0.0
  0
SPLINE
  5
89
330
1F
100
AcDbEntity
  8
0
  6
Continuous
 62
     7
370
    15
100
AcDbSpline
210
0.0
220
0.0
230
1.0
 70
     8
 71
     3
 72
    15
 73
    11
 74
     0
 42
0.00000001
 43
0.00000001
 12
1.0
 22
0.0
 32
0.0
 13
1.0
 23
0.0
 33
0.0
 40
0.0
 40
0.0
 40
0.0
 40
0.0
 40
0.1191762436674481
 40
0.2364273787594527
 40
0.3526638478564086
 40
0.4690860844274211
 40
0.5894629077907659
 40
0.7176014692905142
 40
0.8541894668533077
 40
1.0
 40
1.0
 40
1.0
 40
1.0
 10
394.0384615384615
 20
115.9194711538462
 30
0.0
 10
394.0347916229063
 20
115.7559642697305
 30
0.0
 10
394.0275110736264
 20
115.4315917032608
 30
0.0
 10
393.9578052158518
 20
114.9520721431563
 30
0.0
 10
393.8513082357061
 20
114.4836102429989
 30
0.0
 10
393.6939140848966
 20
114.0250611262812
 30
0.0
 10
393.494404780618
 20
113.5654252630523
 30
0.0
 10
393.2372325029623
 20
113.1036709591527
 30
0.0
 10
392.9386360392851
 20
112.6258725240178
 30
0.0
 10
392.7048467767636
 20
112.316954986709
 30
0.0
 10
392.5841346153845
 20
112.157451923077
 30
0.0
  0
SPLINE
  5
8A
330
1F
100
AcDbEntity
  8
0
  6
Continuous
 62
     7
370
    15
100
AcDbSpline
210
0.0
220
0.0
230
1.0
 70
     8
 71
     3
 72
    23
 73
    19
 74
     0
 42
0.00000001
 43
0.00000001
 12
1.0
 22
0.0
 32
0.0
 13
1.0
 23
0.0
 33
0.0
 40
0.0
 40
0.0
 40
0.0
 40
0.0
 40
0.0756723023817946
 40
0.1473813099735565
 40
0.2160846766840688
 40
0.2816980378616596
 40
0.345459882900249
 40
0.4074856092774476
 40
0.4687312995608486
 40
0.5297823575334715
 40
0.5900329257115012
 40
0.6485481210783054
 40
0.7059535135830421
 40
0.7631016442005213
 40
0.8202894288974444
 40
0.8784792630440499
 40
0.9382260550877858
 40
1.0
 40
1.0
 40
1.0
 40
1.0
 10
389.4350961538461
 20
120.0
 30
0.0
 10
389.6095040392961
 20
119.996647971053
 30
0.0
 10
389.9491852941052
 20
119.9901194738124
 30
0.0
 10
390.4450596233521
 20
119.9362070914479
 30
0.0
 10
390.9108979275308
 20
119.8422030416352
 30
0.0
 10
391.350772891726
 20
119.7176813729176
 30
0.0
 10
391.7601672349177
 20
119.5514358405143
 30
0.0
 10
392.1424924262193
 20
119.3504519045846
 30
0.0
 10
392.4917313363677
 20
119.1071018174179
 30
0.0
 10
392.8130898448439
 20
118.8346564952423
 30
0.0
 10
393.1003586388151
 20
118.5350549782661
 30
0.0
 10
393.3519801087349
 20
118.2154793084276
 30
0.0
 10
393.5627877475904
 20
117.8761521329448
 30
0.0
 10
393.7396877295842
 20
117.5212094739756
 30
0.0
 10
393.8710347730864
 20
117.1449397912475
 30
0.0
 10
393.9667399395136
 20
116.7525458628307
 30
0.0
 10
394.0301963197314
 20
116.3421970871493
 30
0.0
 10
394.0356759957424
 20
116.0619381815345
 30
0.0
 10
394.0384615384615
 20
115.9194711538462
 30
0.0
  0
SPLINE
  5
8B
330
1F
100
AcDbEntity
  8
0
  6
Continuous
 62
     7
370
    15
100
AcDbSpline
210
0.0
220
0.0
230
1.0
 70
     8
 71
     3
 72
    23
 73
    19
 74
     0
 42
0.00000001
 43
0.00000001
 12
1.0
 22
0.0
 32
0.0
 13
1.0
 23
0.0
 33
0.0
 40
0.0
 40
0.0
 40
0.0
 40
0.0
 40
0.0794357226761146
 40
0.1540131742839436
 40
0.2241414790393979
 40
0.2899341692032369
 40
0.3527323106719904
 40
0.4127257792496904
 40
0.4703027418920657
 40
0.5271687617359319
 40
0.5835022647141632
 40
0.6399482172133515
 40
0.6965849669119858
 40
0.7537269142919283
 40
0.8127070377388643
 40
0.8729634806368337
 40
0.9350348604089697
 40
1.0
 40
1.0
 40
1.0
 40
1.0
 10
384.6153846153846
 20
115.4747596153847
 30
0.0
 10
384.6385764763152
 20
115.6695075125199
 30
0.0
 10
384.6835417891386
 20
116.0470925688707
 30
0.0
 10
384.7957534811736
 20
116.5894348986786
 30
0.0
 10
384.9378654308958
 20
117.0897701794334
 30
0.0
 10
385.116652593878
 20
117.5471698789055
 30
0.0
 10
385.3247254802712
 20
117.9645426155702
 30
0.0
 10
385.5726975380946
 20
118.3356254507907
 30
0.0
 10
385.8519043612854
 20
118.6645289327442
 30
0.0
 10
386.162587247302
 20
118.9510780126681
 30
0.0
 10
386.5027710839166
 20
119.1961842780893
 30
0.0
 10
386.8597329800417
 20
119.4149792312907
 30
0.0
 10
387.2404489692067
 20
119.5944606451398
 30
0.0
 10
387.6407273560953
 20
119.7423802964699
 30
0.0
 10
388.0603872468884
 20
119.8605964988054
 30
0.0
 10
388.5013696260595
 20
119.9387594490398
 30
0.0
 10
388.960952914261
 20
119.9937395686189
 30
0.0
 10
389.2746663850954
 20
119.9978817381018
 30
0.0
 10
389.4350961538461
 20
120.0
 30
0.0
  0
SPLINE
  5
8D
330
1F
100
AcDbEntity
  8
0
  6
Continuous
 62
     7
370
    15
100
AcDbSpline
210
0.0
220
0.0
230
1.0
 70
     8
 71
     3
 72
    19
 73
    15
 74
     0
 42
0.00000001
 43
0.00000001
 12
1.0
 22
0.0
 32
0.0
 13
1.0
 23
0.0
 33
0.0
 40
0.0
 40
0.0
 40
0.0
 40
0.0
 40
0.1168990281982904
 40
0.2258236839530795
 40
0.3300860790235692
 40
0.4354514863452323
 40
0.49030673096323
 40
0.5482440571677263
 40
0.6107668331470328
 40
0.6776750949389465
 40
0.7491886027449046
 40
0.8268587199157861
 40
0.9101115940212847
 40
1.0
 40
1.0
 40
1.0
 40
1.0
 10
389.3749999999999
 20
117.5
 30
0.0
 10
389.2441664427397
 20
117.4940724268545
 30
0.0
 10
388.9914242571069
 20
117.4826216353016
 30
0.0
 10
388.6322227735241
 20
117.382589091569
 30
0.0
 10
388.3179877706201
 20
117.2094222350629
 30
0.0
 10
388.0940471950287
 20
117.0120818974911
 30
0.0
 10
387.9427647140763
 20
116.8201827523183
 30
0.0
 10
387.8396861089382
 20
116.652955288361
 30
0.0
 10
387.7508403986972
 20
116.4629336067485
 30
0.0
 10
387.6721156864479
 20
116.2522570338362
 30
0.0
 10
387.6099320641353
 20
116.0185120475544
 30
0.0
 10
387.5598532365971
 20
115.7634788517687
 30
0.0
 10
387.5194969465799
 20
115.4857850056337
 30
0.0
 10
387.5066629340427
 20
115.2926013446352
 30
0.0
 10
387.4999999999999
 20
115.1923076923077
 30
0.0
  0
SPLINE
  5
8E
330
1F
100
AcDbEntity
  8
0
  6
Continuous
 62
     7
370
    15
100
AcDbSpline
210
0.0
220
0.0
230
1.0
 70
     8
 71
     3
 72
    15
 73
    11
 74
     0
 42
0.00000001
 43
0.00000001
 12
1.0
 22
0.0
 32
0.0
 13
1.0
 23
0.0
 33
0.0
 40
0.0
 40
0.0
 40
0.0
 40
0.0
 40
0.1491402908464719
 40
0.2821617981976283
 40
0.4046557030353662
 40
0.5211096910238625
 40
0.6344164539698288
 40
0.7487964497315259
 40
0.8687105535463909
 40
1.0
 40
1.0
 40
1.0
 40
1.0
 10
391.1538461538461
 20
115.5318509615385
 30
0.0
 10
391.148443654352
 20
115.6815115550221
 30
0.0
 10
391.138222546673
 20
115.9646577252286
 30
0.0
 10
391.0525167921434
 20
116.3642293292845
 30
0.0
 10
390.9005315445532
 20
116.70771772768
 30
0.0
 10
390.6912758277887
 20
116.9961772644184
 30
0.0
 10
390.426671554659
 20
117.2221842072173
 30
0.0
 10
390.1173414645227
 20
117.3891813996638
 30
0.0
 10
389.7587574610249
 20
117.4815090825153
 30
0.0
 10
389.5067234696116
 20
117.493653054195
 30
0.0
 10
389.3749999999999
 20
117.5
 30
0.0
  0
SPLINE
  5
8F
330
1F
100
AcDbEntity
  8
0
  6
Continuous
 62
     7
370
    15
100
AcDbSpline
210
0.0
220
0.0
230
1.0
 70
     8
 71
     3
 72
    11
 73
     7
 74
     0
 42
0.00000001
 43
0.00000001
 12
1.0
 22
0.0
 32
0.0
 13
1.0
 23
0.0
 33
0.0
 40
0.0
 40
0.0
 40
0.0
 40
0.0
 40
0.2727955500866146
 40
0.5261910092278097
 40
0.766904419461611
 40
1.0
 40
1.0
 40
1.0
 40
1.0
 10
390.5829326923076
 20
113.798076923077
 30
0.0
 10
390.6697819550151
 20
113.9423428264082
 30
0.0
 10
390.8373041201688
 20
114.2206150388653
 30
0.0
 10
391.0210060722046
 20
114.6582031253652
 30
0.0
 10
391.1312708312619
 20
115.0957008217023
 30
0.0
 10
391.1464021392831
 20
115.3880342793822
 30
0.0
 10
391.1538461538461
 20
115.5318509615385
 30
0.0
  0
SPLINE
  5
90
330
1F
100
AcDbEntity
  8
0
  6
Continuous
 62
     7
370
    15
100
AcDbSpline
210
0.0
220
0.0
230
1.0
 70
     8
 71
     3
 72
    15
 73
    11
 74
     0
 42
0.00000001
 43
0.00000001
 12
1.0
 22
0.0
 32
0.0
 13
1.0
 23
0.0
 33
0.0
 40
0.0
 40
0.0
 40
0.0
 40
0.0
 40
0.1850900618630599
 40
0.3523569643820054
 40
0.5030795117590442
 40
0.6372794639743533
 40
0.7524732703005176
 40
0.8518857877882166
 40
0.934339434921345
 40
0.9999999999999999
 40
0.9999999999999999
 40
0.9999999999999999
 40
0.9999999999999999
 10
388.2872596153846
 20
111.376201923077
 30
0.0
 10
388.4355650599713
 20
111.5193572795401
 30
0.0
 10
388.717894947
 20
111.7918829156041
 30
0.0
 10
389.1199332538106
 20
112.1821285807386
 30
0.0
 10
389.473366353527
 20
112.5408752715844
 30
0.0
 10
389.7855840424579
 20
112.8588263223021
 30
0.0
 10
390.0493736500923
 20
113.1440775714665
 30
0.0
 10
390.2682050872983
 20
113.3921491937136
 30
0.0
 10
390.4448498268339
 20
113.6040514123399
 30
0.0
 10
390.5405207712682
 20
113.7384823121685
 30
0.0
 10
390.5829326923076
 20
113.798076923077
 30
0.0
  0
SPLINE
  5
91
330
1F
100
AcDbEntity
  8
0
  6
Continuous
 62
     7
370
    15
100
AcDbSpline
210
0.0
220
0.0
230
1.0
 70
     8
 71
     3
 72
    19
 73
    15
 74
     0
 42
0.00000001
 43
0.00000001
 12
1.0
 22
0.0
 32
0.0
 13
1.0
 23
0.0
 33
0.0
 40
0.0
 40
0.0
 40
0.0
 40
0.0
 40
0.0963574538682384
 40
0.192660878808215
 40
0.2894549334517503
 40
0.3884793011163922
 40
0.4419214173673336
 40
0.501521103048683
 40
0.5678827758176527
 40
0.6408916507843547
 40
0.7203706588124381
 40
0.8066369162819647
 40
0.9000159377788826
 40
1.0
 40
1.0
 40
1.0
 40
1.0
 10
384.2307692307692
 20
105.0000000000001
 30
0.0
 10
384.2639758045547
 20
105.2465322377044
 30
0.0
 10
384.3303703327502
 20
105.7394584791514
 30
0.0
 10
384.5356384768773
 20
106.4594996488056
 30
0.0
 10
384.8096011375018
 20
107.1621368074237
 30
0.0
 10
385.1069355684375
 20
107.7339129038749
 30
0.0
 10
385.4026675942628
 20
108.1941729863727
 30
0.0
 10
385.6709852777926
 20
108.5713136542215
 30
0.0
 10
385.9910784221551
 20
108.9725751370407
 30
0.0
 10
386.3583021301005
 20
109.4011967270666
 30
0.0
 10
386.7706269722407
 20
109.8585182870885
 30
0.0
 10
387.2311291578363
 20
110.3428395931074
 30
0.0
 10
387.7420053537875
 20
110.8518420633573
 30
0.0
 10
388.1014158573234
 20
111.1974797859564
 30
0.0
 10
388.2872596153846
 20
111.376201923077
 30
0.0
  0
SPLINE
  5
95
330
1F
100
AcDbEntity
  8
0
  6
Continuous
 62
     7
370
    15
100
AcDbSpline
210
0.0
220
0.0
230
1.0
 70
     8
 71
     3
 72
    25
 73
    21
 74
     0
 42
0.00000001
 43
0.00000001
 12
1.0
 22
0.0
 32
0.0
 13
1.0
 23
0.0
 33
0.0
 40
0.0
 40
0.0
 40
0.0
 40
0.0
 40
0.0369753139213748
 40
0.0791925522967054
 40
0.1267009440549565
 40
0.179184078579469
 40
0.2373686428140491
 40
0.3005585397445008
 40
0.3691531357212958
 40
0.4431123780003051
 40
0.5160183892506146
 40
0.582473178961276
 40
0.6421368079450528
 40
0.6946199424695685
 40
0.7406794327797185
 40
0.779589034277523
 40
0.8120737912440699
 40
0.8378140957748652
 40
0.9225648809653575
 40
0.9999999999999999
 40
0.9999999999999999
 40
0.9999999999999999
 40
0.9999999999999999
 10
392.5841346153845
 20
112.157451923077
 30
0.0
 10
392.5385107181747
 20
112.099988489523
 30
0.0
 10
392.4407949050394
 20
111.9769151337012
 30
0.0
 10
392.2745546291389
 20
111.7882011755964
 30
0.0
 10
392.0818964478711
 20
111.5820660434046
 30
0.0
 10
391.8655415730612
 20
111.3546513634648
 30
0.0
 10
391.618343379205
 20
111.1140105113515
 30
0.0
 10
391.3491960712423
 20
110.8500800740558
 30
0.0
 10
391.0462563838084
 20
110.576360969314
 30
0.0
 10
390.7324842775625
 20
110.2860252369556
 30
0.0
 10
390.4173483034791
 20
110.0034455514147
 30
0.0
 10
390.1276929088496
 20
109.7350574974005
 30
0.0
 10
389.8645894296965
 20
109.4975917130649
 30
0.0
 10
389.6402910878876
 20
109.2779389972913
 30
0.0
 10
389.4416047113255
 20
109.0910904911417
 30
0.0
 10
389.2756916155949
 20
108.9274648191535
 30
0.0
 10
389.1394471730302
 20
108.7910232254621
 30
0.0
 10
388.9517110995438
 20
108.5783453971338
 30
0.0
 10
388.7128382514865
 20
108.290698545834
 30
0.0
 10
388.5447814355031
 20
108.0158438448697
 30
0.0
 10
388.4645432692307
 20
107.8846153846154
 30
0.0
  0
SPLINE
  5
CC
330
1F
100
AcDbEntity
  8
0
  6
Continuous
 62
     7
370
    15
100
AcDbSpline
210
0.0
220
0.0
230
1.0
 70
     8
 71
     3
 72
    23
 73
    19
 74
     0
 42
0.00000001
 43
0.00000001
 12
1.0
 22
0.0
 32
0.0
 13
1.0
 23
0.0
 33
0.0
 40
0.0
 40
0.0
 40
0.0
 40
0.0
 40
0.0917014566485832
 40
0.1784786234702855
 40
0.2607032917490389
 40
0.3371152801671899
 40
0.4102171366028666
 40
0.4781656762643627
 40
0.5434540387715556
 40
0.6063425282940144
 40
0.6650789398387669
 40
0.7203461980457105
 40
0.7720161073323353
 40
0.8207588898130354
 40
0.8663476624779668
 40
0.9114518991925068
 40
0.9557340852176972
 40
1.0
 40
1.0
 40
1.0
 40
1.0
 10
18.31168831168828
 20
109.9431818181819
 30
0.0
 10
18.3138971717689
 20
109.833574751165
 30
0.0
 10
18.31819627803213
 20
109.6202464229274
 30
0.0
 10
18.33833628218931
 20
109.3091220507379
 30
0.0
 10
18.3762345844396
 20
109.0178315029476
 30
0.0
 10
18.43683887763139
 20
108.7473252458186
 30
0.0
 10
18.50387048997829
 20
108.4959946840474
 30
0.0
 10
18.58968514001219
 20
108.2642494323587
 30
0.0
 10
18.69373906343541
 20
108.0537399359344
 30
0.0
 10
18.81113044917396
 20
107.8632273564993
 30
0.0
 10
18.93977769574362
 20
107.6949290782557
 30
0.0
 10
19.07397741910199
 20
107.5491412219756
 30
0.0
 10
19.21012383205423
 20
107.4214731850817
 30
0.0
 10
19.35440332502181
 20
107.3227014865086
 30
0.0
 10
19.49909321174403
 20
107.2387542142325
 30
0.0
 10
19.65229074814148
 20
107.1860061382679
 30
0.0
 10
19.80864994992621
 20
107.1503922445808
 30
0.0
 10
19.91457811664166
 20
107.1453685357195
 30
0.0
 10
19.96753246753244
 20
107.1428571428572
 30
0.0
  0
SPLINE
  5
CD
330
1F
100
AcDbEntity
  8
0
  6
Continuous
 62
     7
370
    15
100
AcDbSpline
210
0.0
220
0.0
230
1.0
 70
     8
 71
     3
 72
    19
 73
    15
 74
     0
 42
0.00000001
 43
0.00000001
 12
1.0
 22
0.0
 32
0.0
 13
1.0
 23
0.0
 33
0.0
 40
0.0
 40
0.0
 40
0.0
 40
0.0
 40
0.0924497033226472
 40
0.1826598079166727
 40
0.2766628542394773
 40
0.3812388536160439
 40
0.4386336524067132
 40
0.5008565921644829
 40
0.5682831460944684
 40
0.642034615230809
 40
0.7211386514548115
 40
0.806929597586165
 40
0.8998614408321339
 40
1.0
 40
1.0
 40
1.0
 40
1.0
 10
19.96753246753244
 20
107.1428571428572
 30
0.0
 10
20.06914441059412
 20
107.1492580172397
 30
0.0
 10
20.26990674226881
 20
107.1619047044999
 30
0.0
 10
20.55331443630984
 20
107.2834868740465
 30
0.0
 10
20.80591710140883
 20
107.4769783064263
 30
0.0
 10
20.9878121327069
 20
107.693260848792
 30
0.0
 10
21.11467505145889
 20
107.9036826857343
 30
0.0
 10
21.20031835129346
 20
108.0902399049064
 30
0.0
 10
21.26798187895965
 20
108.3026125606867
 30
0.0
 10
21.32981509291093
 20
108.535760883161
 30
0.0
 10
21.37513148576759
 20
108.7933658491645
 30
0.0
 10
21.40287121782369
 20
109.0742448548642
 30
0.0
 10
21.42660380831288
 20
109.3786684700893
 30
0.0
 10
21.42789943458934
 20
109.5900430551573
 30
0.0
 10
21.42857142857141
 20
109.6996753246754
 30
0.0
  0
SPLINE
  5
CE
330
1F
100
AcDbEntity
  8
0
  6
Continuous
 62
     7
370
    15
100
AcDbSpline
210
0.0
220
0.0
230
1.0
 70
     8
 71
     3
 72
    19
 73
    15
 74
     0
 42
0.00000001
 43
0.00000001
 12
1.0
 22
0.0
 32
0.0
 13
1.0
 23
0.0
 33
0.0
 40
0.0
 40
0.0
 40
0.0
 40
0.0
 40
0.0980377710792939
 40
0.1892642765742075
 40
0.2739371110361405
 40
0.3522171741877713
 40
0.4254519281862477
 40
0.4921566937387539
 40
0.5548113149480027
 40
0.6133515098103189
 40
0.7195826317642422
 40
0.8163820309457179
 40
0.9074025930405306
 40
1.0
 40
1.0
 40
1.0
 40
1.0
 10
21.42857142857141
 20
109.6996753246754
 30
0.0
 10
21.42769509345763
 20
109.8133428937713
 30
0.0
 10
21.42600330742941
 20
110.0327808715838
 30
0.0
 10
21.40489772320012
 20
110.3498857676262
 30
0.0
 10
21.36803780495239
 20
110.642350224796
 30
0.0
 10
21.32058229864867
 20
110.9122059646293
 30
0.0
 10
21.25721052045437
 20
111.157417139417
 30
0.0
 10
21.1810118686866
 20
111.3798015061579
 30
0.0
 10
21.09091944950456
 20
111.5787722940557
 30
0.0
 10
20.9514857123983
 20
111.8029848425053
 30
0.0
 10
20.7579111348529
 20
112.0393991127465
 30
0.0
 10
20.48599124687816
 20
112.2491663830351
 30
0.0
 10
20.18261773659538
 20
112.3816762677583
 30
0.0
 10
19.96881684491852
 20
112.3955838797997
 30
0.0
 10
19.86099837662336
 20
112.4025974025975
 30
0.0
  0
SPLINE
  5
CF
330
1F
100
AcDbEntity
  8
0
  6
Continuous
 62
     7
370
    15
100
AcDbSpline
210
0.0
220
0.0
230
1.0
 70
     8
 71
     3
 72
    19
 73
    15
 74
     0
 42
0.00000001
 43
0.00000001
 12
1.0
 22
0.0
 32
0.0
 13
1.0
 23
0.0
 33
0.0
 40
0.0
 40
0.0
 40
0.0
 40
0.0
 40
0.0967458161067068
 40
0.1930146422555584
 40
0.2933185369208804
 40
0.404664540237707
 40
0.4652105730110104
 40
0.5283265535043348
 40
0.5947301110651356
 40
0.6652959224899456
 40
0.7411343832362192
 40
0.8219020160768902
 40
0.9077748068224873
 40
0.9999999999999999
 40
0.9999999999999999
 40
0.9999999999999999
 40
0.9999999999999999
 10
19.86099837662336
 20
112.4025974025974
 30
0.0
 10
19.75640510682966
 20
112.3949084165756
 30
0.0
 10
19.54773424783043
 20
112.3795683538626
 30
0.0
 10
19.25063891447959
 20
112.2564349844733
 30
0.0
 10
18.98210703225847
 20
112.0568527756511
 30
0.0
 10
18.78972158359213
 20
111.8322721331706
 30
0.0
 10
18.65085512284032
 20
111.619935684389
 30
0.0
 10
18.55949536287582
 20
111.4358641879792
 30
0.0
 10
18.48446621701119
 20
111.2333381238996
 30
0.0
 10
18.41923247107749
 20
111.0130355072572
 30
0.0
 10
18.37271421494546
 20
110.7722549315408
 30
0.0
 10
18.33550841802545
 20
110.5133500668308
 30
0.0
 10
18.31424462762446
 20
110.234732157081
 30
0.0
 10
18.31256044086923
 20
110.0426490063613
 30
0.0
 10
18.31168831168828
 20
109.9431818181819
 30
0.0
  0
SPLINE
  5
D0
330
1F
100
AcDbEntity
  8
0
  6
Continuous
 62
     7
370
    15
100
AcDbSpline
210
0.0
220
0.0
230
1.0
 70
     8
 71
     3
 72
    19
 73
    15
 74
     0
 42
0.00000001
 43
0.00000001
 12
1.0
 22
0.0
 32
0.0
 13
1.0
 23
0.0
 33
0.0
 40
0.0
 40
0.0
 40
0.0
 40
0.0
 40
0.1164323807288873
 40
0.2266229944276429
 40
0.3348174843248023
 40
0.4447913643212237
 40
0.5014766242041406
 40
0.5605923454640762
 40
0.6217257867906717
 40
0.6868809963468862
 40
0.7575557825207272
 40
0.8323665149635312
 40
0.9136238093466021
 40
1.0
 40
1.0
 40
1.0
 40
1.0
 10
305.5378605769232
 20
117.5
 30
0.0
 10
305.4079581439724
 20
117.4941099461734
 30
0.0
 10
305.1551171545976
 20
117.4826455955591
 30
0.0
 10
304.793246447871
 20
117.3796089943268
 30
0.0
 10
304.4654287562529
 20
117.2123774737016
 30
0.0
 10
304.2266472992757
 20
117.0172794168737
 30
0.0
 10
304.0564804932682
 20
116.8311960107281
 30
0.0
 10
303.9498275524113
 20
116.6645072437318
 30
0.0
 10
303.8590142232199
 20
116.4787086728732
 30
0.0
 10
303.7838276909868
 20
116.2722161717424
 30
0.0
 10
303.7245007446891
 20
116.0449178397381
 30
0.0
 10
303.6824374172101
 20
115.7956014308257
 30
0.0
 10
303.6595401220267
 20
115.5262746693669
 30
0.0
 10
303.655782392219
 20
115.3395847742982
 30
0.0
 10
303.6538461538462
 20
115.243389423077
 30
0.0
  0
SPLINE
  5
D1
330
1F
100
AcDbEntity
  8
0
  6
Continuous
 62
     7
370
    15
100
AcDbSpline
210
0.0
220
0.0
230
1.0
 70
     8
 71
     3
 72
    19
 73
    15
 74
     0
 42
0.00000001
 43
0.00000001
 12
1.0
 22
0.0
 32
0.0
 13
1.0
 23
0.0
 33
0.0
 40
0.0
 40
0.0
 40
0.0
 40
0.0
 40
0.0781263688835345
 40
0.1518386126524775
 40
0.2214787026593687
 40
0.2883218449895905
 40
0.3535121359603153
 40
0.4164239604784981
 40
0.4789155420202555
 40
0.5411742382343309
 40
0.6613623320156016
 40
0.7750504512098734
 40
0.8860655164346456
 40
1.0
 40
1.0
 40
1.0
 40
1.0
 10
307.6923076923077
 20
115.0450721153847
 30
0.0
 10
307.6912452128597
 20
115.1403416796599
 30
0.0
 10
307.6891802838521
 20
115.3254980957877
 30
0.0
 10
307.6540640145989
 20
115.5936364961461
 30
0.0
 10
307.6031129517202
 20
115.8447328052574
 30
0.0
 10
307.5356325999535
 20
116.0815725711543
 30
0.0
 10
307.4414182081161
 20
116.3002401218998
 30
0.0
 10
307.3296699488194
 20
116.5041787771071
 30
0.0
 10
307.1976262450959
 20
116.6917532196616
 30
0.0
 10
306.9943532144438
 20
116.910881022404
 30
0.0
 10
306.7184276737394
 20
117.1467504929848
 30
0.0
 10
306.3487976180361
 20
117.3516283920238
 30
0.0
 10
305.9517906746656
 20
117.4793706800286
 30
0.0
 10
305.677025917912
 20
117.4930643208507
 30
0.0
 10
305.5378605769231
 20
117.5
 30
0.0
  0
SPLINE
  5
D2
330
1F
100
AcDbEntity
  8
0
  6
Continuous
 62
     7
370
    15
100
AcDbSpline
210
0.0
220
0.0
230
1.0
 70
     8
 71
     3
 72
    19
 73
    15
 74
     0
 42
0.00000001
 43
0.00000001
 12
1.0
 22
0.0
 32
0.0
 13
1.0
 23
0.0
 33
0.0
 40
0.0
 40
0.0
 40
0.0
 40
0.0
 40
0.0833435599031569
 40
0.1610751688675243
 40
0.2344455393451873
 40
0.3025182736756344
 40
0.3670882284496896
 40
0.4290542124686967
 40
0.4882469829995991
 40
0.546062629969524
 40
0.6585067581972018
 40
0.7683766796857693
 40
0.8814040714765995
 40
1.0
 40
1.0
 40
1.0
 40
1.0
 10
303.6538461538462
 20
115.243389423077
 30
0.0
 10
303.6553957491662
 20
115.145153425399
 30
0.0
 10
303.658390597576
 20
114.955296165483
 30
0.0
 10
303.6864837844633
 20
114.6802457771004
 30
0.0
 10
303.7286282874504
 20
114.4250380625734
 30
0.0
 10
303.7970876888953
 20
114.1916656477361
 30
0.0
 10
303.8775222977387
 20
113.9768063386233
 30
0.0
 10
303.9746523113191
 20
113.779806980641
 30
0.0
 10
304.0979975303266
 20
113.60794481303
 30
0.0
 10
304.2761755050351
 20
113.4040973425605
 30
0.0
 10
304.536858202458
 20
113.1965942591758
 30
0.0
 10
304.8903138601456
 20
113.0156614354725
 30
0.0
 10
305.2807798089113
 20
112.9038051995382
 30
0.0
 10
305.5541429812459
 20
112.8911136965343
 30
0.0
 10
305.6941105769232
 20
112.8846153846154
 30
0.0
  0
SPLINE
  5
D3
330
1F
100
AcDbEntity
  8
0
  6
Continuous
 62
     7
370
    15
100
AcDbSpline
210
0.0
220
0.0
230
1.0
 70
     8
 71
     3
 72
    19
 73
    15
 74
     0
 42
0.00000001
 43
0.00000001
 12
1.0
 22
0.0
 32
0.0
 13
1.0
 23
0.0
 33
0.0
 40
0.0
 40
0.0
 40
0.0
 40
0.0
 40
0.1225037676873468
 40
0.2390359490643357
 40
0.3522894876948653
 40
0.469531992367855
 40
0.5290396073246321
 40
0.5892849481570258
 40
0.6504265554625364
 40
0.7140851069771487
 40
0.7801833689944068
 40
0.8493595662544252
 40
0.9221710300352416
 40
1.0
 40
1.0
 40
1.0
 40
1.0
 10
305.6941105769232
 20
112.8846153846154
 30
0.0
 10
305.8301320552708
 20
112.8899451153645
 30
0.0
 10
306.0955444893841
 20
112.9003447730396
 30
0.0
 10
306.473153922621
 20
113.0114213273664
 30
0.0
 10
306.8198007162728
 20
113.1818003404238
 30
0.0
 10
307.0734120653661
 20
113.3828840098281
 30
0.0
 10
307.25471173194
 20
113.5733410108191
 30
0.0
 10
307.3713998184321
 20
113.7369006054168
 30
0.0
 10
307.4719937067613
 20
113.9159134643124
 30
0.0
 10
307.5523273052938
 20
114.1119696424945
 30
0.0
 10
307.6155077486166
 20
114.3233664561231
 30
0.0
 10
307.6599965955583
 20
114.5497585022811
 30
0.0
 10
307.6876264557868
 20
114.7919826981131
 30
0.0
 10
307.6907130113103
 20
114.9588562443081
 30
0.0
 10
307.6923076923077
 20
115.0450721153847
 30
0.0
  0
SPLINE
  5
D4
330
1F
100
AcDbEntity
  8
0
  6
Continuous
 62
     7
370
    15
100
AcDbSpline
210
0.0
220
0.0
230
1.0
 70
     8
 71
     3
 72
    15
 73
    11
 74
     0
 42
0.00000001
 43
0.00000001
 12
1.0
 22
0.0
 32
0.0
 13
1.0
 23
0.0
 33
0.0
 40
0.0
 40
0.0
 40
0.0
 40
0.0
 40
0.1441020100116731
 40
0.2759973636727563
 40
0.397646603313591
 40
0.516214829916869
 40
0.6324988206874368
 40
0.7491240398581279
 40
0.8691443994706113
 40
1.0
 40
1.0
 40
1.0
 40
1.0
 10
209.0384615384616
 20
115.9765625
 30
0.0
 10
209.0428997929525
 20
115.8468602693388
 30
0.0
 10
209.0514003443236
 20
115.5984426815337
 30
0.0
 10
209.1362056352649
 20
115.2483884410966
 30
0.0
 10
209.2765709207197
 20
114.9426182363534
 30
0.0
 10
209.4696541802335
 20
114.6833960840769
 30
0.0
 10
209.7144867196239
 20
114.4793188266731
 30
0.0
 10
209.9986521807635
 20
114.333156817188
 30
0.0
 10
210.3206469578458
 20
114.2473876152671
 30
0.0
 10
210.546341432031
 20
114.2364659268441
 30
0.0
 10
210.6640625
 20
114.2307692307693
 30
0.0
  0
SPLINE
  5
D5
330
1F
100
AcDbEntity
  8
0
  6
Continuous
 62
     7
370
    15
100
AcDbSpline
210
0.0
220
0.0
230
1.0
 70
     8
 71
     3
 72
    15
 73
    11
 74
     0
 42
0.00000001
 43
0.00000001
 12
1.0
 22
0.0
 32
0.0
 13
1.0
 23
0.0
 33
0.0
 40
0.0
 40
0.0
 40
0.0
 40
0.0
 40
0.1310086371648918
 40
0.2525834222364703
 40
0.3683626160393602
 40
0.4853615680104692
 40
0.6037384020403509
 40
0.7259757796170702
 40
0.8558397229390988
 40
1.0
 40
1.0
 40
1.0
 40
1.0
 10
210.6640625
 20
114.2307692307693
 30
0.0
 10
210.7828343164458
 20
114.2362703195998
 30
0.0
 10
211.0118252632438
 20
114.2468763672079
 30
0.0
 10
211.3363043840679
 20
114.3357706229694
 30
0.0
 10
211.6241439884737
 20
114.482669600453
 30
0.0
 10
211.8693431931608
 20
114.6893654554255
 30
0.0
 10
212.0673681164778
 20
114.9488095977924
 30
0.0
 10
212.209272737724
 20
115.255209904873
 30
0.0
 10
212.2952849651529
 20
115.6063436974193
 30
0.0
 10
212.3034151382874
 20
115.854844274651
 30
0.0
 10
212.3076923076923
 20
115.9855769230769
 30
0.0
  0
SPLINE
  5
D6
330
1F
100
AcDbEntity
  8
0
  6
Continuous
 62
     7
370
    15
100
AcDbSpline
210
0.0
220
0.0
230
1.0
 70
     8
 71
     3
 72
    15
 73
    11
 74
     0
 42
0.00000001
 43
0.00000001
 12
1.0
 22
0.0
 32
0.0
 13
1.0
 23
0.0
 33
0.0
 40
0.0
 40
0.0
 40
0.0
 40
0.0
 40
0.1400074214309607
 40
0.2677656987407733
 40
0.3896385346759663
 40
0.5102143617806368
 40
0.6285461194376405
 40
0.7463484746982557
 40
0.8678241140226173
 40
1.0
 40
1.0
 40
1.0
 40
1.0
 10
212.3076923076923
 20
115.9855769230769
 30
0.0
 10
212.3034403778016
 20
116.1093730218423
 30
0.0
 10
212.2953085161721
 20
116.3461343916933
 30
0.0
 10
212.2074305143882
 20
116.6810928143486
 30
0.0
 10
212.0696443989559
 20
116.9797562097419
 30
0.0
 10
211.8713616146797
 20
117.2316881136446
 30
0.0
 10
211.6334192328178
 20
117.4415472648145
 30
0.0
 10
211.3498568801745
 20
117.5857835861215
 30
0.0
 10
211.0321901305041
 20
117.6767967172449
 30
0.0
 10
210.8079536818632
 20
117.6869939773892
 30
0.0
 10
210.6911057692308
 20
117.6923076923077
 30
0.0
  0
SPLINE
  5
D7
330
1F
100
AcDbEntity
  8
0
  6
Continuous
 62
     7
370
    15
100
AcDbSpline
210
0.0
220
0.0
230
1.0
 70
     8
 71
     3
 72
    15
 73
    11
 74
     0
 42
0.00000001
 43
0.00000001
 12
1.0
 22
0.0
 32
0.0
 13
1.0
 23
0.0
 33
0.0
 40
0.0
 40
0.0
 40
0.0
 40
0.0
 40
0.134760323682769
 40
0.2577468619485215
 40
0.3763792396179593
 40
0.4954594572251961
 40
0.6143238685719459
 40
0.7349506473054405
 40
0.8619798003283142
 40
1.0
 40
1.0
 40
1.0
 40
1.0
 10
210.6911057692308
 20
117.6923076923077
 30
0.0
 10
210.5703151309893
 20
117.6869478703379
 30
0.0
 10
210.3392871317334
 20
117.6766965051321
 30
0.0
 10
210.0115132141394
 20
117.5871079885878
 30
0.0
 10
209.7221581895256
 20
117.4381516689804
 30
0.0
 10
209.4785699067179
 20
117.227947274457
 30
0.0
 10
209.2802826145289
 20
116.9728413759862
 30
0.0
 10
209.1372929375113
 20
116.675138096715
 30
0.0
 10
209.0514795115376
 20
116.3378789220213
 30
0.0
 10
209.0429191890897
 20
116.1002854763928
 30
0.0
 10
209.0384615384616
 20
115.9765625
 30
0.0
  0
SPLINE
  5
D8
330
1F
100
AcDbEntity
  8
0
  6
Continuous
 62
     7
370
    15
100
AcDbSpline
210
0.0
220
0.0
230
1.0
 70
     8
 71
     3
 72
    23
 73
    19
 74
     0
 42
0.00000001
 43
0.00000001
 12
1.0
 22
0.0
 32
0.0
 13
1.0
 23
0.0
 33
0.0
 40
0.0
 40
0.0
 40
0.0
 40
0.0
 40
0.0791402888703268
 40
0.1536679753815472
 40
0.2247881116543725
 40
0.2931532779537196
 40
0.3580593513672296
 40
0.4214412476421465
 40
0.4824933489160781
 40
0.5434898218401732
 40
0.6035044525186509
 40
0.6607929941529702
 40
0.7172398453985779
 40
0.7721564554531498
 40
0.8277061132014452
 40
0.8838635533477424
 40
0.9406222680232564
 40
1.0
 40
1.0
 40
1.0
 40
1.0
 10
208.6538461538462
 20
109.6274038461539
 30
0.0
 10
208.655428306282
 20
109.5311735104774
 30
0.0
 10
208.6585003971858
 20
109.3443215155608
 30
0.0
 10
208.6865329982514
 20
109.0722568248316
 30
0.0
 10
208.7297539423045
 20
108.8153491416344
 30
0.0
 10
208.7973294136827
 20
108.5759603655227
 30
0.0
 10
208.8769745912223
 20
108.3501621089491
 30
0.0
 10
208.9802938241206
 20
108.1439955834698
 30
0.0
 10
209.0976185315877
 20
107.9511042651241
 30
0.0
 10
209.236114758457
 20
107.7776898406202
 30
0.0
 10
209.3886932439807
 20
107.6234743275222
 30
0.0
 10
209.5487116175092
 20
107.4849677379406
 30
0.0
 10
209.7203813132079
 20
107.3720563960943
 30
0.0
 10
209.8997245655499
 20
107.2764465702558
 30
0.0
 10
210.0897241685495
 20
107.2044379780703
 30
0.0
 10
210.28861272282
 20
107.1550093001113
 30
0.0
 10
210.4954670756948
 20
107.1184375621144
 30
0.0
 10
210.6368493219518
 20
107.116417449621
 30
0.0
 10
210.7091346153846
 20
107.1153846153847
 30
0.0
  0
SPLINE
  5
D9
330
1F
100
AcDbEntity
  8
0
  6
Continuous
 62
     7
370
    15
100
AcDbSpline
210
0.0
220
0.0
230
1.0
 70
     8
 71
     3
 72
    23
 73
    19
 74
     0
 42
0.00000001
 43
0.00000001
 12
1.0
 22
0.0
 32
0.0
 13
1.0
 23
0.0
 33
0.0
 40
0.0
 40
0.0
 40
0.0
 40
0.0
 40
0.0588948490109607
 40
0.1150065439917402
 40
0.1706694140614747
 40
0.2254687457074824
 40
0.279613017124575
 40
0.334166813447212
 40
0.3908859514301888
 40
0.4491475365168985
 40
0.5090121825702828
 40
0.5701382589696324
 40
0.6336732406007339
 40
0.6996041339020515
 40
0.7683163621412937
 40
0.8415581431413564
 40
0.9184244257424511
 40
1.0
 40
1.0
 40
1.0
 40
1.0
 10
210.7091346153846
 20
107.1153846153847
 30
0.0
 10
210.77935916773
 20
107.1167862419498
 30
0.0
 10
210.9164897182659
 20
107.1195232593617
 30
0.0
 10
211.118083417435
 20
107.1508011850981
 30
0.0
 10
211.309960272295
 20
107.2024022684332
 30
0.0
 10
211.4945307747888
 20
107.270172436804
 30
0.0
 10
211.6667310919665
 20
107.3623820795295
 30
0.0
 10
211.8309173711997
 20
107.4718207327957
 30
0.0
 10
211.9874950745964
 20
107.6002646691322
 30
0.0
 10
212.1308712885751
 20
107.7519007966543
 30
0.0
 10
212.2644314124215
 20
107.9191694256953
 30
0.0
 10
212.3777734688829
 20
108.1080592126796
 30
0.0
 10
212.4789713284136
 20
108.3119201266752
 30
0.0
 10
212.5540540777159
 20
108.5362302392405
 30
0.0
 10
212.6204602445495
 20
108.7752083185709
 30
0.0
 10
212.6585782353517
 20
109.0335494582464
 30
0.0
 10
212.6879361359137
 20
109.3082232247659
 30
0.0
 10
212.6908219159556
 20
109.4971037144128
 30
0.0
 10
212.6923076923077
 20
109.5943509615385
 30
0.0
  0
SPLINE
  5
DA
330
1F
100
AcDbEntity
  8
0
  6
Continuous
 62
     7
370
    15
100
AcDbSpline
210
0.0
220
0.0
230
1.0
 70
     8
 71
     3
 72
    23
 73
    19
 74
     0
 42
0.00000001
 43
0.00000001
 12
1.0
 22
0.0
 32
0.0
 13
1.0
 23
0.0
 33
0.0
 40
0.0
 40
0.0
 40
0.0
 40
0.0
 40
0.0738108331002081
 40
0.1445370275377346
 40
0.2126154684030458
 40
0.2785357056299954
 40
0.3420292361891498
 40
0.4033505764014654
 40
0.4654529562026111
 40
0.5271233247858651
 40
0.5878770910859562
 40
0.6464342072273406
 40
0.7046818363333534
 40
0.7621222397772741
 40
0.8195101742415842
 40
0.8778159572987374
 40
0.9374625719392666
 40
0.9999999999999999
 40
0.9999999999999999
 40
0.9999999999999999
 40
0.9999999999999999
 10
212.6923076923077
 20
109.5943509615385
 30
0.0
 10
212.6906529866269
 20
109.6795608967865
 30
0.0
 10
212.6874127272976
 20
109.8464197471766
 30
0.0
 10
212.6597996709633
 20
110.0906233950957
 30
0.0
 10
212.6149997020537
 20
110.3228357435458
 30
0.0
 10
212.5526568115796
 20
110.5424791500125
 30
0.0
 10
212.4707830614998
 20
110.7471785454937
 30
0.0
 10
212.3737453125582
 20
110.9401841864826
 30
0.0
 10
212.2572561137785
 20
111.1198996461744
 30
0.0
 10
212.1211169411559
 20
111.2840775996924
 30
0.0
 10
211.9756433028872
 20
111.4343805722712
 30
0.0
 10
211.8172877153002
 20
111.5651298427004
 30
0.0
 10
211.6493758589531
 20
111.6764769473122
 30
0.0
 10
211.4710037621645
 20
111.7675137463297
 30
0.0
 10
211.2829385259626
 20
111.8361707274693
 30
0.0
 10
211.0870400984649
 20
111.8879996222643
 30
0.0
 10
210.88039261567
 20
111.9188760016298
 30
0.0
 10
210.7392885608372
 20
111.9216547017092
 30
0.0
 10
210.6670673076923
 20
111.923076923077
 30
0.0
  0
SPLINE
  5
DB
330
1F
100
AcDbEntity
  8
0
  6
Continuous
 62
     7
370
    15
100
AcDbSpline
210
0.0
220
0.0
230
1.0
 70
     8
 71
     3
 72
    19
 73
    15
 74
     0
 42
0.00000001
 43
0.00000001
 12
1.0
 22
0.0
 32
0.0
 13
1.0
 23
0.0
 33
0.0
 40
0.0
 40
0.0
 40
0.0
 40
0.0
 40
0.0720366426049832
 40
0.1394178950555384
 40
0.2039091466139898
 40
0.2661526216942828
 40
0.3266650300973703
 40
0.387387011408574
 40
0.4488149394067025
 40
0.51130531539711
 40
0.6368086029892521
 40
0.7577093031698178
 40
0.878594081746291
 40
0.9999999999999999
 40
0.9999999999999999
 40
0.9999999999999999
 40
0.9999999999999999
 10
210.6670673076923
 20
111.923076923077
 30
0.0
 10
210.5848358185133
 20
111.9206397040091
 30
0.0
 10
210.4256870754008
 20
111.9159227719042
 30
0.0
 10
210.1945648775524
 20
111.8832342561575
 30
0.0
 10
209.9802853097562
 20
111.8252433336739
 30
0.0
 10
209.7802198090074
 20
111.7484308995533
 30
0.0
 10
209.597429432964
 20
111.6444906045703
 30
0.0
 10
209.431915378631
 20
111.5169165384125
 30
0.0
 10
209.2801525872943
 20
111.3696930303282
 30
0.0
 10
209.106514508268
 20
111.1433541181185
 30
0.0
 10
208.9251177925509
 20
110.8389970722383
 30
0.0
 10
208.7719331528146
 20
110.4475980832275
 30
0.0
 10
208.6692493090636
 20
110.0433258706423
 30
0.0
 10
208.658987895962
 20
109.7662431787479
 30
0.0
 10
208.6538461538462
 20
109.6274038461539
 30
0.0
  0
SPLINE
  5
DC
330
1F
100
AcDbEntity
  8
0
  6
Continuous
 62
     7
370
    15
100
AcDbSpline
210
0.0
220
0.0
230
1.0
 70
     8
 71
     3
 72
    15
 73
    11
 74
     0
 42
0.00000001
 43
0.00000001
 12
1.0
 22
0.0
 32
0.0
 13
1.0
 23
0.0
 33
0.0
 40
0.0
 40
0.0
 40
0.0
 40
0.0
 40
0.0826430287340895
 40
0.1768120489030416
 40
0.2826378891715793
 40
0.4012643114922808
 40
0.5319943041057168
 40
0.6757009869892111
 40
0.831686010300773
 40
0.9999999999999999
 40
0.9999999999999999
 40
0.9999999999999999
 40
0.9999999999999999
 10
402.3707932692308
 20
108.7800480769231
 30
0.0
 10
402.3969781692655
 20
108.8769293592403
 30
0.0
 10
402.4529999039038
 20
109.084203684604
 30
0.0
 10
402.5174217554276
 20
109.421554363768
 30
0.0
 10
402.5703160476274
 20
109.8048136134872
 30
0.0
 10
402.6144358240448
 20
110.2338109723969
 30
0.0
 10
402.6510412279104
 20
110.7096688570594
 30
0.0
 10
402.6731750210348
 20
111.2318038884324
 30
0.0
 10
402.6886189896122
 20
111.7997880235256
 30
0.0
 10
402.6910473515044
 20
112.1934977755203
 30
0.0
 10
402.6923076923077
 20
112.3978365384616
 30
0.0
  0
SPLINE
  5
DD
330
1F
100
AcDbEntity
  8
0
  6
Continuous
 62
     7
370
    15
100
AcDbSpline
210
0.0
220
0.0
230
1.0
 70
     8
 71
     3
 72
    23
 73
    19
 74
     0
 42
0.00000001
 43
0.00000001
 12
1.0
 22
0.0
 32
0.0
 13
1.0
 23
0.0
 33
0.0
 40
0.0
 40
0.0
 40
0.0
 40
0.0
 40
0.1006966640060198
 40
0.1930338194557532
 40
0.277510994726261
 40
0.3537198601440038
 40
0.4216475357476383
 40
0.4819603511219252
 40
0.5341449468329088
 40
0.5790413149141714
 40
0.6553779565299808
 40
0.7205076573654853
 40
0.7762325984060058
 40
0.8240613854650081
 40
0.8681693643483445
 40
0.9108854661679484
 40
0.954949232055448
 40
1.0
 40
1.0
 40
1.0
 40
1.0
 10
402.6923076923077
 20
112.3978365384616
 30
0.0
 10
402.6924470470947
 20
112.6021823359771
 30
0.0
 10
402.6927141878885
 20
112.9939098095087
 30
0.0
 10
402.6750150866784
 20
113.5567693977782
 30
0.0
 10
402.6576449650523
 20
114.069988042601
 30
0.0
 10
402.6222243249833
 20
114.5325603815345
 30
0.0
 10
402.586747432768
 20
114.946048639188
 30
0.0
 10
402.5338956712842
 20
115.308382623789
 30
0.0
 10
402.4806516834499
 20
115.6235559160086
 30
0.0
 10
402.3896575797057
 20
115.9638240565512
 30
0.0
 10
402.2659958526067
 20
116.3217379897933
 30
0.0
 10
402.0970505443638
 20
116.6855272205643
 30
0.0
 10
401.9060753831548
 20
116.9719188094812
 30
0.0
 10
401.6890844142541
 20
117.1824309783495
 30
0.0
 10
401.4536863649237
 20
117.3243402937345
 30
0.0
 10
401.2077215522817
 20
117.4266755786229
 30
0.0
 10
400.9454304240231
 20
117.4874162784126
 30
0.0
 10
400.7645292897287
 20
117.4957745682855
 30
0.0
 10
400.673076923077
 20
117.5
 30
0.0
  0
SPLINE
  5
DE
330
1F
100
AcDbEntity
  8
0
  6
Continuous
 62
     7
370
    15
100
AcDbSpline
210
0.0
220
0.0
230
1.0
 70
     8
 71
     3
 72
    15
 73
    11
 74
     0
 42
0.00000001
 43
0.00000001
 12
1.0
 22
0.0
 32
0.0
 13
1.0
 23
0.0
 33
0.0
 40
0.0
 40
0.0
 40
0.0
 40
0.0
 40
0.1136384890722405
 40
0.2223861812653002
 40
0.3312523767958113
 40
0.4413103711807757
 40
0.5581281266397004
 40
0.6869862659608943
 40
0.8340526583991207
 40
1.0
 40
1.0
 40
1.0
 40
1.0
 10
400.673076923077
 20
107.3076923076923
 30
0.0
 10
400.7655964158228
 20
107.3116711272221
 30
0.0
 10
400.9466535281824
 20
107.319457525021
 30
0.0
 10
401.2099775702328
 20
107.3829503991787
 30
0.0
 10
401.4586936357701
 20
107.4812978079478
 30
0.0
 10
401.6920642365311
 20
107.6257317256444
 30
0.0
 10
401.9081928548572
 20
107.8212960604497
 30
0.0
 10
402.0913110188737
 20
108.085550892437
 30
0.0
 10
402.2496135784481
 20
108.4094692242145
 30
0.0
 10
402.3288077122322
 20
108.6516523082725
 30
0.0
 10
402.3707932692308
 20
108.7800480769231
 30
0.0
  0
SPLINE
  5
DF
330
1F
100
AcDbEntity
  8
0
  6
Continuous
 62
     7
370
    15
100
AcDbSpline
210
0.0
220
0.0
230
1.0
 70
     8
 71
     3
 72
    15
 73
    11
 74
     0
 42
0.00000001
 43
0.00000001
 12
1.0
 22
0.0
 32
0.0
 13
1.0
 23
0.0
 33
0.0
 40
0.0
 40
0.0
 40
0.0
 40
0.0
 40
0.0823733151293767
 40
0.1770420547701428
 40
0.2833367838970556
 40
0.4015760572897836
 40
0.5326993894125108
 40
0.6759370714854579
 40
0.831413022421968
 40
1.0
 40
1.0
 40
1.0
 40
1.0
 10
398.9753605769231
 20
116.0276442307693
 30
0.0
 10
398.9491377432745
 20
115.9307706350191
 30
0.0
 10
398.8927779337442
 20
115.7225636396148
 30
0.0
 10
398.8288118913006
 20
115.3830997073966
 30
0.0
 10
398.7760604141966
 20
114.9978440812007
 30
0.0
 10
398.7315171222175
 20
114.5668862909127
 30
0.0
 10
398.6952682704127
 20
114.0899982879816
 30
0.0
 10
398.6729449790146
 20
113.566876630867
 30
0.0
 10
398.6575155250563
 20
112.9978878696132
 30
0.0
 10
398.6551018289092
 20
112.6031767588889
 30
0.0
 10
398.6538461538462
 20
112.3978365384616
 30
0.0
  0
SPLINE
  5
E0
330
1F
100
AcDbEntity
  8
0
  6
Continuous
 62
     7
370
    15
100
AcDbSpline
210
0.0
220
0.0
230
1.0
 70
     8
 71
     3
 72
    23
 73
    19
 74
     0
 42
0.00000001
 43
0.00000001
 12
1.0
 22
0.0
 32
0.0
 13
1.0
 23
0.0
 33
0.0
 40
0.0
 40
0.0
 40
0.0
 40
0.0
 40
0.1008346167264757
 40
0.1932830494691829
 40
0.2774008451362985
 40
0.3536777434432215
 40
0.4222362183041928
 40
0.4825627035114591
 40
0.534907993999782
 40
0.5797418151953551
 40
0.6557138421667942
 40
0.721145455277196
 40
0.776666020078404
 40
0.8242181842260647
 40
0.8681270432663903
 40
0.9113574509853435
 40
0.9548891391678475
 40
1.0
 40
1.0
 40
1.0
 40
1.0
 10
398.6538461538462
 20
112.3978365384616
 30
0.0
 10
398.6555580416099
 20
112.1935121353097
 30
0.0
 10
398.6588394433554
 20
111.8018565213523
 30
0.0
 10
398.6681575374199
 20
111.2397104675218
 30
0.0
 10
398.6946071038001
 20
110.7279991398312
 30
0.0
 10
398.7210805647083
 20
110.2646833083793
 30
0.0
 10
398.7651732841309
 20
109.8512228355798
 30
0.0
 10
398.8095213882509
 20
109.4865012468828
 30
0.0
 10
398.8706479564475
 20
109.1730094312711
 30
0.0
 10
398.954051627159
 20
108.832030734544
 30
0.0
 10
399.0801889832471
 20
108.4751424317929
 30
0.0
 10
399.2532456706865
 20
108.1150945070655
 30
0.0
 10
399.4388216341634
 20
107.8259928843788
 30
0.0
 10
399.6573968442216
 20
107.6189980554828
 30
0.0
 10
399.8939592645261
 20
107.4801408451226
 30
0.0
 10
400.139321920767
 20
107.3781151562245
 30
0.0
 10
400.4020619386476
 20
107.3208648802821
 30
0.0
 10
400.5816720066713
 20
107.312135006309
 30
0.0
 10
400.673076923077
 20
107.3076923076923
 30
0.0
  0
SPLINE
  5
E1
330
1F
100
AcDbEntity
  8
0
  6
Continuous
 62
     7
370
    15
100
AcDbSpline
210
0.0
220
0.0
230
1.0
 70
     8
 71
     3
 72
    15
 73
    11
 74
     0
 42
0.00000001
 43
0.00000001
 12
1.0
 22
0.0
 32
0.0
 13
1.0
 23
0.0
 33
0.0
 40
0.0
 40
0.0
 40
0.0
 40
0.0
 40
0.1124239580708154
 40
0.2223848576202879
 40
0.3301224058542558
 40
0.4412431684841763
 40
0.5580749755162377
 40
0.6869486147035377
 40
0.8340326972108811
 40
1.0
 40
1.0
 40
1.0
 40
1.0
 10
400.673076923077
 20
117.5
 30
0.0
 10
400.5816093502012
 20
117.4958085980136
 30
0.0
 10
400.4006781366064
 20
117.4875176220509
 30
0.0
 10
400.1376986426052
 20
117.4260734325225
 30
0.0
 10
399.8893362007187
 20
117.3246771290159
 30
0.0
 10
399.6543935436131
 20
117.1831292037321
 30
0.0
 10
399.4380623061975
 20
116.9862165636541
 30
0.0
 10
399.25481036631
 20
116.7221989853024
 30
0.0
 10
399.0965501105752
 20
116.3982056269924
 30
0.0
 10
399.0173495442155
 20
116.1560339512095
 30
0.0
 10
398.9753605769231
 20
116.0276442307693
 30
0.0
  0
LINE
  5
E2
330
1F
100
AcDbEntity
  8
0
  6
Continuous
 62
     7
370
    15
100
AcDbLine
 10
301.1538461538
 20
108.7199519231
 30
0.0
 11
304.0384615385
 21
109.0384615385
 31
0.0
  0
LINE
  5
E3
330
1F
100
AcDbEntity
  8
0
  6
Continuous
 62
     7
370
    15
100
AcDbLine
 10
115.5769230769
 20
105.0
 30
0.0
 11
112.6923076923
 21
105.0
 31
0.0
  0
LINE
  5
E4
330
1F
100
AcDbEntity
  8
0
  6
Continuous
 62
     7
370
    15
100
AcDbLine
 10
120.5769230769
 20
119.8076923077
 30
0.0
 11
120.5769230769
 21
117.6923076923
 31
0.0
  0
LINE
  5
E5
330
1F
100
AcDbEntity
  8
0
  6
Continuous
 62
     7
370
    15
100
AcDbLine
 10
110.7692307692
 20
119.8076923077
 30
0.0
 11
120.5769230769
 21
119.8076923077
 31
0.0
  0
LINE
  5
E6
330
1F
100
AcDbEntity
  8
0
  6
Continuous
 62
     7
370
    15
100
AcDbLine
 10
110.7692307692
 20
116.9230769231
 30
0.0
 11
110.7692307692
 21
119.8076923077
 31
0.0
  0
LINE
  5
E7
330
1F
100
AcDbEntity
  8
0
  6
Continuous
 62
     7
370
    15
100
AcDbLine
 10
117.3106971154
 20
116.9230769231
 30
0.0
 11
110.7692307692
 21
116.9230769231
 31
0.0
  0
LINE
  5
E8
330
1F
100
AcDbEntity
  8
0
  6
Continuous
 62
     7
370
    15
100
AcDbLine
 10
23.5714285714
 20
116.2987012987
 30
0.0
 11
21.2337662338
 21
115.9090909091
 31
0.0
  0
LINE
  5
E9
330
1F
100
AcDbEntity
  8
0
  6
Continuous
 62
     7
370
    15
100
AcDbLine
 10
6.8181818182
 20
113.7662337662
 30
0.0
 11
6.8181818182
 21
116.2987012987
 31
0.0
  0
LINE
  5
EA
330
1F
100
AcDbEntity
  8
0
  6
Continuous
 62
     7
370
    15
100
AcDbLine
 10
9.9350649351
 20
105.0
 30
0.0
 11
9.9350649351
 21
115.9090909091
 31
0.0
  0
LINE
  5
EB
330
1F
100
AcDbEntity
  8
0
  6
Continuous
 62
     7
370
    15
100
AcDbLine
 10
12.2727272727
 20
105.0
 30
0.0
 11
9.9350649351
 21
105.0
 31
0.0
  0
LINE
  5
EC
330
1F
100
AcDbEntity
  8
0
  6
Continuous
 62
     7
370
    15
100
AcDbLine
 10
12.2727272727
 20
120.0
 30
0.0
 11
12.2727272727
 21
105.0
 31
0.0
  0
LINE
  5
ED
330
1F
100
AcDbEntity
  8
0
  6
Continuous
 62
     7
370
    15
100
AcDbLine
 10
10.3520698052
 20
120.0
 30
0.0
 11
12.2727272727
 21
120.0
 31
0.0
  0
LINE
  5
EE
330
1F
100
AcDbEntity
  8
0
  6
Continuous
 62
     7
370
    15
100
AcDbLine
 10
100.0
 20
113.2692307692
 30
0.0
 11
100.0
 21
116.1538461538
 31
0.0
  0
LINE
  5
EF
330
1F
100
AcDbEntity
  8
0
  6
Continuous
 62
     7
370
    15
100
AcDbLine
 10
103.6538461538
 20
105.0
 30
0.0
 11
103.6538461538
 21
115.6790865385
 31
0.0
  0
LINE
  5
F0
330
1F
100
AcDbEntity
  8
0
  6
Continuous
 62
     7
370
    15
100
AcDbLine
 10
106.5384615385
 20
105.0
 30
0.0
 11
103.6538461538
 21
105.0
 31
0.0
  0
LINE
  5
F1
330
1F
100
AcDbEntity
  8
0
  6
Continuous
 62
     7
370
    15
100
AcDbLine
 10
106.5384615385
 20
120.0
 30
0.0
 11
106.5384615385
 21
105.0
 31
0.0
  0
LINE
  5
F2
330
1F
100
AcDbEntity
  8
0
  6
Continuous
 62
     7
370
    15
100
AcDbLine
 10
104.2247596154
 20
120.0
 30
0.0
 11
106.5384615385
 21
120.0
 31
0.0
  0
LINE
  5
F3
330
1F
100
AcDbEntity
  8
0
  6
Continuous
 62
     7
370
    15
100
AcDbLine
 10
195.0
 20
113.2692307692
 30
0.0
 11
195.0
 21
116.1538461538
 31
0.0
  0
LINE
  5
F4
330
1F
100
AcDbEntity
  8
0
  6
Continuous
 62
     7
370
    15
100
AcDbLine
 10
198.6538461538
 20
105.0
 30
0.0
 11
198.6538461538
 21
115.6790865385
 31
0.0
  0
LINE
  5
F5
330
1F
100
AcDbEntity
  8
0
  6
Continuous
 62
     7
370
    15
100
AcDbLine
 10
201.5384615385
 20
105.0
 30
0.0
 11
198.6538461538
 21
105.0
 31
0.0
  0
LINE
  5
F6
330
1F
100
AcDbEntity
  8
0
  6
Continuous
 62
     7
370
    15
100
AcDbLine
 10
201.5384615385
 20
120.0
 30
0.0
 11
201.5384615385
 21
105.0
 31
0.0
  0
LINE
  5
F7
330
1F
100
AcDbEntity
  8
0
  6
Continuous
 62
     7
370
    15
100
AcDbLine
 10
199.2247596154
 20
120.0
 30
0.0
 11
201.5384615385
 21
120.0
 31
0.0
  0
LINE
  5
F8
330
1F
100
AcDbEntity
  8
0
  6
Continuous
 62
     7
370
    15
100
AcDbLine
 10
290.0
 20
113.2692307692
 30
0.0
 11
290.0
 21
116.1538461538
 31
0.0
  0
LINE
  5
F9
330
1F
100
AcDbEntity
  8
0
  6
Continuous
 62
     7
370
    15
100
AcDbLine
 10
293.6538461538
 20
105.0
 30
0.0
 11
293.6538461538
 21
115.6790865385
 31
0.0
  0
LINE
  5
FA
330
1F
100
AcDbEntity
  8
0
  6
Continuous
 62
     7
370
    15
100
AcDbLine
 10
296.5384615385
 20
105.0
 30
0.0
 11
293.6538461538
 21
105.0
 31
0.0
  0
LINE
  5
FB
330
1F
100
AcDbEntity
  8
0
  6
Continuous
 62
     7
370
    15
100
AcDbLine
 10
296.5384615385
 20
120.0
 30
0.0
 11
296.5384615385
 21
105.0
 31
0.0
  0
LINE
  5
FC
330
1F
100
AcDbEntity
  8
0
  6
Continuous
 62
     7
370
    15
100
AcDbLine
 10
294.2247596154
 20
120.0
 30
0.0
 11
296.5384615385
 21
120.0
 31
0.0
  0
LINE
  5
FD
330
1F
100
AcDbEntity
  8
0
  6
Continuous
 62
     7
370
    15
100
AcDbLine
 10
387.5
 20
115.1923076923
 30
0.0
 11
384.6153846154
 21
115.4747596154
 31
0.0
  0
LINE
  5
FE
330
1F
100
AcDbEntity
  8
0
  6
Continuous
 62
     7
370
    15
100
AcDbLine
 10
394.0384615385
 20
105.0
 30
0.0
 11
384.2307692308
 21
105.0
 31
0.0
  0
LINE
  5
FF
330
1F
100
AcDbEntity
  8
0
  6
Continuous
 62
     7
370
    15
100
AcDbLine
 10
394.0384615385
 20
107.8846153846
 30
0.0
 11
394.0384615385
 21
105.0
 31
0.0
  0
LINE
  5
100
330
1F
100
AcDbEntity
  8
0
  6
Continuous
 62
     7
370
    15
100
AcDbLine
 10
388.4645432692
 20
107.8846153846
 30
0.0
 11
394.0384615385
 21
107.8846153846
 31
0.0
  0
LINE
  5
101
330
1F
100
AcDbEntity
  8
0
  6
Continuous
 62
     7
370
    15
100
AcDbLine
 10
410.0
 20
100.0
 30
0.0
 11
410.0
 21
115.0
 31
0.0
  0
LINE
  5
102
330
1F
100
AcDbEntity
  8
0
  6
Continuous
 62
     7
370
    15
100
AcDbLine
 10
475.0
 20
100.0
 30
0.0
 11
410.0
 21
100.0
 31
0.0
  0
LINE
  5
103
330
1F
100
AcDbEntity
  8
0
  6
Continuous
 62
     7
370
    15
100
AcDbLine
 10
475.0
 20
80.0
 30
0.0
 11
475.0
 21
100.0
 31
0.0
  0
LINE
  5
104
330
1F
100
AcDbEntity
  8
0
  6
Continuous
 62
     7
370
    15
100
AcDbLine
 10
479.0
 20
80.0
 30
0.0
 11
475.0
 21
80.0
 31
0.0
  0
LINE
  5
105
330
1F
100
AcDbEntity
  8
0
  6
Continuous
 62
     7
370
    15
100
AcDbLine
 10
479.0
 20
60.0
 30
0.0
 11
479.0
 21
80.0
 31
0.0
  0
LINE
  5
106
330
1F
100
AcDbEntity
  8
0
  6
Continuous
 62
     7
370
    15
100
AcDbLine
 10
475.0
 20
60.0
 30
0.0
 11
479.0
 21
60.0
 31
0.0
  0
LINE
  5
107
330
1F
100
AcDbEntity
  8
0
  6
Continuous
 62
     7
370
    15
100
AcDbLine
 10
475.0
 20
40.0
 30
0.0
 11
475.0
 21
60.0
 31
0.0
  0
LINE
  5
108
330
1F
100
AcDbEntity
  8
0
  6
Continuous
 62
     7
370
    15
100
AcDbLine
 10
479.0
 20
40.0
 30
0.0
 11
475.0
 21
40.0
 31
0.0
  0
LINE
  5
109
330
1F
100
AcDbEntity
  8
0
  6
Continuous
 62
     7
370
    15
100
AcDbLine
 10
479.0
 20
20.0
 30
0.0
 11
479.0
 21
40.0
 31
0.0
  0
LINE
  5
10A
330
1F
100
AcDbEntity
  8
0
  6
Continuous
 62
     7
370
    15
100
AcDbLine
 10
475.0
 20
20.0
 30
0.0
 11
479.0
 21
20.0
 31
0.0
  0
LINE
  5
10B
330
1F
100
AcDbEntity
  8
0
  6
Continuous
 62
     7
370
    15
100
AcDbLine
 10
475.0
 20
8.4
 30
0.0
 11
475.0
 21
20.0
 31
0.0
  0
LINE
  5
10C
330
1F
100
AcDbEntity
  8
0
  6
Continuous
 62
     7
370
    15
100
AcDbLine
 10
475.0
 20
8.4
 30
0.0
 11
347.5
 21
8.4
 31
0.0
  0
LINE
  5
10D
330
1F
100
AcDbEntity
  8
0
  6
Continuous
 62
     7
370
    15
100
AcDbLine
 10
347.5
 20
4.4
 30
0.0
 11
347.5
 21
8.4
 31
0.0
  0
LINE
  5
10E
330
1F
100
AcDbEntity
  8
0
  6
Continuous
 62
     7
370
    15
100
AcDbLine
 10
307.5
 20
4.4
 30
0.0
 11
347.5
 21
4.4
 31
0.0
  0
LINE
  5
10F
330
1F
100
AcDbEntity
  8
0
  6
Continuous
 62
     7
370
    15
100
AcDbLine
 10
307.5
 20
8.4
 30
0.0
 11
307.5
 21
4.4
 31
0.0
  0
LINE
  5
110
330
1F
100
AcDbEntity
  8
0
  6
Continuous
 62
     7
370
    15
100
AcDbLine
 10
167.5
 20
4.4
 30
0.0
 11
167.5
 21
8.4
 31
0.0
  0
LINE
  5
111
330
1F
100
AcDbEntity
  8
0
  6
Continuous
 62
     7
370
    15
100
AcDbLine
 10
127.5
 20
4.4
 30
0.0
 11
167.5
 21
4.4
 31
0.0
  0
LINE
  5
112
330
1F
100
AcDbEntity
  8
0
  6
Continuous
 62
     7
370
    15
100
AcDbLine
 10
127.5
 20
8.4
 30
0.0
 11
0.0
 21
8.4
 31
0.0
  0
LINE
  5
113
330
1F
100
AcDbEntity
  8
0
  6
Continuous
 62
     7
370
    15
100
AcDbLine
 10
0.0
 20
20.0
 30
0.0
 11
0.0
 21
8.4
 31
0.0
  0
LINE
  5
114
330
1F
100
AcDbEntity
  8
0
  6
Continuous
 62
     7
370
    15
100
AcDbLine
 10
-4.0
 20
20.0
 30
0.0
 11
0.0
 21
20.0
 31
0.0
  0
LINE
  5
115
330
1F
100
AcDbEntity
  8
0
  6
Continuous
 62
     7
370
    15
100
AcDbLine
 10
-4.0
 20
40.0
 30
0.0
 11
-4.0
 21
20.0
 31
0.0
  0
LINE
  5
116
330
1F
100
AcDbEntity
  8
0
  6
Continuous
 62
     7
370
    15
100
AcDbLine
 10
0.0
 20
40.0
 30
0.0
 11
-4.0
 21
40.0
 31
0.0
  0
LINE
  5
117
330
1F
100
AcDbEntity
  8
0
  6
Continuous
 62
     7
370
    15
100
AcDbLine
 10
0.0
 20
60.0
 30
0.0
 11
0.0
 21
40.0
 31
0.0
  0
LINE
  5
118
330
1F
100
AcDbEntity
  8
0
  6
Continuous
 62
     7
370
    15
100
AcDbLine
 10
-4.0
 20
60.0
 30
0.0
 11
0.0
 21
60.0
 31
0.0
  0
LINE
  5
119
330
1F
100
AcDbEntity
  8
0
  6
Continuous
 62
     7
370
    15
100
AcDbLine
 10
-4.0
 20
80.0
 30
0.0
 11
-4.0
 21
60.0
 31
0.0
  0
LINE
  5
11A
330
1F
100
AcDbEntity
  8
0
  6
Continuous
 62
     7
370
    15
100
AcDbLine
 10
0.0
 20
80.0
 30
0.0
 11
-4.0
 21
80.0
 31
0.0
  0
LINE
  5
11B
330
1F
100
AcDbEntity
  8
0
  6
Continuous
 62
     7
370
    15
100
AcDbLine
 10
0.0
 20
115.0
 30
0.0
 11
0.0
 21
80.0
 31
0.0
  0
LINE
  5
11C
330
1F
100
AcDbEntity
  8
0
  6
Continuous
 62
     7
370
    15
100
AcDbLine
 10
30.0
 20
100.0
 30
0.0
 11
30.0
 21
115.0
 31
0.0
  0
LINE
  5
11D
330
1F
100
AcDbEntity
  8
0
  6
Continuous
 62
     7
370
    15
100
AcDbLine
 10
90.8
 20
100.0
 30
0.0
 11
30.0
 21
100.0
 31
0.0
  0
LINE
  5
11E
330
1F
100
AcDbEntity
  8
0
  6
Continuous
 62
     7
370
    15
100
AcDbLine
 10
90.8
 20
100.0
 30
0.0
 11
90.8
 21
49.6
 31
0.0
  0
LINE
  5
11F
330
1F
100
AcDbEntity
  8
0
  6
Continuous
 62
     7
370
    15
100
AcDbLine
 10
90.8
 20
49.6
 30
0.0
 11
95.0
 21
49.6
 31
0.0
  0
LINE
  5
120
330
1F
100
AcDbEntity
  8
0
  6
Continuous
 62
     7
370
    15
100
AcDbLine
 10
95.0
 20
115.0
 30
0.0
 11
95.0
 21
49.6
 31
0.0
  0
LINE
  5
121
330
1F
100
AcDbEntity
  8
0
  6
Continuous
 62
     7
370
    15
100
AcDbLine
 10
125.0
 20
100.0
 30
0.0
 11
125.0
 21
115.0
 31
0.0
  0
LINE
  5
122
330
1F
100
AcDbEntity
  8
0
  6
Continuous
 62
     7
370
    15
100
AcDbLine
 10
185.8
 20
100.0
 30
0.0
 11
125.0
 21
100.0
 31
0.0
  0
LINE
  5
123
330
1F
100
AcDbEntity
  8
0
  6
Continuous
 62
     7
370
    15
100
AcDbLine
 10
185.8
 20
100.0
 30
0.0
 11
185.8
 21
49.6
 31
0.0
  0
LINE
  5
124
330
1F
100
AcDbEntity
  8
0
  6
Continuous
 62
     7
370
    15
100
AcDbLine
 10
185.8
 20
49.6
 30
0.0
 11
190.0
 21
49.6
 31
0.0
  0
LINE
  5
125
330
1F
100
AcDbEntity
  8
0
  6
Continuous
 62
     7
370
    15
100
AcDbLine
 10
190.0
 20
115.0
 30
0.0
 11
190.0
 21
49.6
 31
0.0
  0
LINE
  5
126
330
1F
100
AcDbEntity
  8
0
  6
Continuous
 62
     7
370
    15
100
AcDbLine
 10
220.0
 20
100.0
 30
0.0
 11
220.0
 21
115.0
 31
0.0
  0
LINE
  5
127
330
1F
100
AcDbEntity
  8
0
  6
Continuous
 62
     7
370
    15
100
AcDbLine
 10
280.8
 20
100.0
 30
0.0
 11
220.0
 21
100.0
 31
0.0
  0
LINE
  5
128
330
1F
100
AcDbEntity
  8
0
  6
Continuous
 62
     7
370
    15
100
AcDbLine
 10
280.8
 20
100.0
 30
0.0
 11
280.8
 21
49.6
 31
0.0
  0
LINE
  5
129
330
1F
100
AcDbEntity
  8
0
  6
Continuous
 62
     7
370
    15
100
AcDbLine
 10
280.8
 20
49.6
 30
0.0
 11
285.0
 21
49.6
 31
0.0
  0
LINE
  5
12A
330
1F
100
AcDbEntity
  8
0
  6
Continuous
 62
     7
370
    15
100
AcDbLine
 10
285.0
 20
115.0
 30
0.0
 11
285.0
 21
49.6
 31
0.0
  0
LINE
  5
12B
330
1F
100
AcDbEntity
  8
0
  6
Continuous
 62
     7
370
    15
100
AcDbLine
 10
315.0
 20
100.0
 30
0.0
 11
315.0
 21
115.0
 31
0.0
  0
LINE
  5
12C
330
1F
100
AcDbEntity
  8
0
  6
Continuous
 62
     7
370
    15
100
AcDbLine
 10
375.8
 20
100.0
 30
0.0
 11
315.0
 21
100.0
 31
0.0
  0
LINE
  5
12D
330
1F
100
AcDbEntity
  8
0
  6
Continuous
 62
     7
370
    15
100
AcDbLine
 10
375.8
 20
100.0
 30
0.0
 11
375.8
 21
49.6
 31
0.0
  0
LINE
  5
12E
330
1F
100
AcDbEntity
  8
0
  6
Continuous
 62
     7
370
    15
100
AcDbLine
 10
375.8
 20
49.6
 30
0.0
 11
380.0
 21
49.6
 31
0.0
  0
LINE
  5
12F
330
1F
100
AcDbEntity
  8
0
  6
Continuous
 62
     7
370
    15
100
AcDbLine
 10
380.0
 20
115.0
 30
0.0
 11
380.0
 21
49.6
 31
0.0
  0
LINE
  5
130
330
1F
100
AcDbEntity
  8
0
  6
Continuous
 62
     7
370
    15
100
AcDbLine
 10
307.5
 20
8.4
 30
0.0
 11
167.5
 21
8.4
 31
0.0
  0
LINE
  5
131
330
1F
100
AcDbEntity
  8
0
  6
Continuous
 62
     7
370
    15
100
AcDbLine
 10
127.5
 20
8.4
 30
0.0
 11
127.5
 21
4.4
 31
0.0
  0
ARC
  5
132
330
1F
100
AcDbEntity
  8
0
  6
Continuous
 62
     7
370
    15
100
AcDbCircle
 10
395.0
 20
115.0
 30
0.0
 40
15.00000000000006
100
AcDbArc
 50
0.0
 51
180.0
  0
ARC
  5
133
330
1F
100
AcDbEntity
  8
0
  6
Continuous
 62
     7
370
    15
100
AcDbCircle
 10
15.0
 20
115.0
 30
0.0
 40
15.0
100
AcDbArc
 50
0.0
 51
180.0
  0
ARC
  5
134
330
1F
100
AcDbEntity
  8
0
  6
Continuous
 62
     7
370
    15
100
AcDbCircle
 10
110.0
 20
115.0
 30
0.0
 40
15.0
100
AcDbArc
 50
0.0
 51
180.0
  0
ARC
  5
135
330
1F
100
AcDbEntity
  8
0
  6
Continuous
 62
     7
370
    15
100
AcDbCircle
 10
205.0
 20
115.0
 30
0.0
 40
15.00000000000003
100
AcDbArc
 50
0.0
 51
180.0
  0
ARC
  5
136
330
1F
100
AcDbEntity
  8
0
  6
Continuous
 62
     7
370
    15
100
AcDbCircle
 10
300.0
 20
115.0
 30
0.0
 40
15.0
100
AcDbArc
 50
0.0
 51
180.0
  0
ENDSEC
  0
SECTION
  2
OBJECTS
  0
DICTIONARY
  5
C
330
0
100
AcDbDictionary
281
     1
  3
ACAD_GROUP
350
D
  3
ACAD_LAYOUT
350
1A
  3
ACAD_MLINESTYLE
350
17
  3
ACAD_PLOTSETTINGS
350
19
  3
ACAD_PLOTSTYLENAME
350
E
  0
DICTIONARY
  5
D
102
{ACAD_REACTORS
330
C
102
}
330
C
100
AcDbDictionary
281
     1
  0
DICTIONARY
  5
1A
102
{ACAD_REACTORS
330
C
102
}
330
C
100
AcDbDictionary
281
     1
  3
Layout1
350
1E
  3
Layout2
350
26
  3
Model
350
22
  0
DICTIONARY
  5
17
102
{ACAD_REACTORS
330
C
102
}
330
C
100
AcDbDictionary
281
     1
  3
Standard
350
18
  0
DICTIONARY
  5
19
102
{ACAD_REACTORS
330
C
102
}
330
C
100
AcDbDictionary
281
     1
  0
ACDBDICTIONARYWDFLT
  5
E
102
{ACAD_REACTORS
330
C
102
}
330
C
100
AcDbDictionary
281
     1
  3
Normal
350
F
100
AcDbDictionaryWithDefault
340
F
  0
LAYOUT
  5
1E
102
{ACAD_REACTORS
330
1A
102
}
330
1A
100
AcDbPlotSettings
  1

  2
none_device
  4

  6

 40
0.0
 41
0.0
 42
0.0
 43
0.0
 44
0.0
 45
0.0
 46
0.0
 47
0.0
 48
0.0
 49
0.0
140
0.0
141
0.0
142
1.0
143
1.0
 70
   688
 72
     0
 73
     0
 74
     5
  7

 75
    16
147
1.0
148
0.0
149
0.0
100
AcDbLayout
  1
Layout1
 70
     1
 71
     1
 10
0.0
 20
0.0
 11
420.0
 21
297.0
 12
0.0
 22
0.0
 32
0.0
 14
1.0000000000E+20
 24
1.0000000000E+20
 34
1.0000000000E+20
 15
-1.0000000000E+20
 25
-1.0000000000E+20
 35
-1.0000000000E+20
146
0.0
 13
0.0
 23
0.0
 33
0.0
 16
1.0
 26
0.0
 36
0.0
 17
0.0
 27
1.0
 37
0.0
 76
     0
330
1B
  0
LAYOUT
  5
26
102
{ACAD_REACTORS
330
1A
102
}
330
1A
100
AcDbPlotSettings
  1

  2
none_device
  4

  6

 40
0.0
 41
0.0
 42
0.0
 43
0.0
 44
0.0
 45
0.0
 46
0.0
 47
0.0
 48
0.0
 49
0.0
140
0.0
141
0.0
142
1.0
143
1.0
 70
   688
 72
     0
 73
     0
 74
     5
  7

 75
    16
147
1.0
148
0.0
149
0.0
100
AcDbLayout
  1
Layout2
 70
     1
 71
     2
 10
0.0
 20
0.0
 11
0.0
 21
0.0
 12
0.0
 22
0.0
 32
0.0
 14
0.0
 24
0.0
 34
0.0
 15
0.0
 25
0.0
 35
0.0
146
0.0
 13
0.0
 23
0.0
 33
0.0
 16
1.0
 26
0.0
 36
0.0
 17
0.0
 27
1.0
 37
0.0
 76
     0
330
23
  0
LAYOUT
  5
22
102
{ACAD_REACTORS
330
1A
102
}
330
1A
100
AcDbPlotSettings
  1

  2
none_device
  4
ANSI_A_(11.00_x_8.50_Inches)
  6

 40
6.35
 41
19.05
 42
6.35000508
 43
19.05000254
 44
279.4
 45
215.9
 46
-2.6622696207
 47
50.4156856865
 48
0.0
 49
0.0
140
0.0
141
0.0
142
0.0225465839
143
1.0
 70
  1696
 72
     0
 73
     0
 74
     0
  7

 75
     0
147
0.0179189148
148
0.0
149
0.0
100
AcDbLayout
  1
Model
 70
     1
 71
     0
 10
0.0
 20
0.0
 11
420.0
 21
297.0
 12
0.0
 22
0.0
 32
0.0
 14
-4.0
 24
4.4
 34
0.0
 15
479.0
 25
130.0
 35
0.0
146
0.0
 13
0.0
 23
0.0
 33
0.0
 16
1.0
 26
0.0
 36
0.0
 17
0.0
 27
1.0
 37
0.0
 76
     0
330
1F
331
29
  0
MLINESTYLE
  5
18
102
{ACAD_REACTORS
330
17
102
}
330
17
100
AcDbMlineStyle
  2
Standard
 70
     0
  3

 62
   256
 51
90.0
 52
90.0
 71
     2
 49
0.5
 62
   256
  6
BYLAYER
 49
-0.5
 62
   256
  6
BYLAYER
  0
ACDBPLACEHOLDER
  5
F
102
{ACAD_REACTORS
330
E
102
}
330
E
  0
ENDSEC
  0
EOF
