  0
SECTION
  2
HEADER
  9
$ACADVER
  1
AC1015
  9
$ACADMAINTVER
 70
     6
  9
$DWGCODEPAGE
  3
ANSI_1251
  9
$INSBASE
 10
0.0
 20
0.0
 30
0.0
  9
$EXTMIN
 10
-4.0
 20
4.4
 30
0.0
  9
$EXTMAX
 10
479.0
 20
130.0
 30
0.0
  9
$LIMMIN
 10
0.0
 20
0.0
  9
$LIMMAX
 10
420.0
 20
297.0
  9
$ORTHOMODE
 70
     0
  9
$REGENMODE
 70
     1
  9
$FILLMODE
 70
     1
  9
$QTEXTMODE
 70
     0
  9
$MIRRTEXT
 70
     1
  9
$LTSCALE
 40
1.0
  9
$ATTMODE
 70
     1
  9
$TEXTSIZE
 40
4.0
  9
$TRACEWID
 40
1.0
  9
$TEXTSTYLE
  7
Standard
  9
$CLAYER
  8
0
  9
$CELTYPE
  6
ByLayer
  9
$CECOLOR
 62
   256
  9
$CELTSCALE
 40
1.0
  9
$DISPSILH
 70
     0
  9
$DIMSCALE
 40
1.0
  9
$DIMASZ
 40
6.0
  9
$DIMEXO
 40
1.0
  9
$DIMDLI
 40
3.75
  9
$DIMRND
 40
0.0
  9
$DIMDLE
 40
0.0
  9
$DIMEXE
 40
1.0
  9
$DIMTP
 40
0.0
  9
$DIMTM
 40
0.0
  9
$DIMTXT
 40
4.0
  9
$DIMCEN
 40
2.5
  9
$DIMTSZ
 40
0.0
  9
$DIMTOL
 70
     0
  9
$DIMLIM
 70
     0
  9
$DIMTIH
 70
     1
  9
$DIMTOH
 70
     1
  9
$DIMSE1
 70
     0
  9
$DIMSE2
 70
     0
  9
$DIMTAD
 70
     1
  9
$DIMZIN
 70
     0
  9
$DIMBLK
  1

  9
$DIMASO
 70
     1
  9
$DIMSHO
 70
     1
  9
$DIMPOST
  1

  9
$DIMAPOST
  1

  9
$DIMALT
 70
     0
  9
$DIMALTD
 70
     3
  9
$DIMALTF
 40
0.0393700787
  9
$DIMLFAC
 40
1.0
  9
$DIMTOFL
 70
     1
  9
$DIMTVP
 40
0.0
  9
$DIMTIX
 70
     0
  9
$DIMSOXD
 70
     0
  9
$DIMSAH
 70
     0
  9
$DIMBLK1
  1

  9
$DIMBLK2
  1

  9
$DIMSTYLE
  2
ISO-25
  9
$DIMCLRD
 70
     0
  9
$DIMCLRE
 70
     0
  9
$DIMCLRT
 70
     0
  9
$DIMTFAC
 40
1.0
  9
$DIMGAP
 40
3.0
  9
$DIMJUST
 70
     0
  9
$DIMSD1
 70
     0
  9
$DIMSD2
 70
     0
  9
$DIMTOLJ
 70
     0
  9
$DIMTZIN
 70
     0
  9
$DIMALTZ
 70
     0
  9
$DIMALTTZ
 70
     0
  9
$DIMUPT
 70
     0
  9
$DIMDEC
 70
     2
  9
$DIMTDEC
 70
     4
  9
$DIMALTU
 70
     2
  9
$DIMALTTD
 70
     3
  9
$DIMTXSTY
  7
Standard
  9
$DIMAUNIT
 70
     0
  9
$DIMADEC
 70
     2
  9
$DIMALTRND
 40
0.0
  9
$DIMAZIN
 70
     0
  9
$DIMDSEP
 70
    44
  9
$DIMATFIT
 70
     3
  9
$DIMFRAC
 70
     0
  9
$DIMLDRBLK
  1

  9
$DIMLUNIT
 70
     2
  9
$DIMLWD
 70
    -2
  9
$DIMLWE
 70
    -2
  9
$DIMTMOVE
 70
     0
  9
$LUNITS
 70
     2
  9
$LUPREC
 70
     2
  9
$SKETCHINC
 40
1.0
  9
$FILLETRAD
 40
10.0
  9
$AUNITS
 70
     0
  9
$AUPREC
 70
     2
  9
$MENU
  1
.
  9
$ELEVATION
 40
0.0
  9
$PELEVATION
 40
0.0
  9
$THICKNESS
 40
0.0
  9
$LIMCHECK
 70
     0
  9
$CHAMFERA
 40
10.0
  9
$CHAMFERB
 40
10.0
  9
$CHAMFERC
 40
20.0
  9
$CHAMFERD
 40
0.0
  9
$SKPOLY
 70
     0
  9
$TDCREATE
 40
2460389.919196076
  9
$TDUCREATE
 40
2460389.835862743
  9
$TDUPDATE
 40
2460389.919261423
  9
$TDUUPDATE
 40
2460389.83592809
  9
$TDINDWG
 40
0.0000000116
  9
$TDUSRTIMER
 40
0.0000000116
  9
$USRTIMER
 70
     1
  9
$ANGBASE
 50
0.0
  9
$ANGDIR
 70
     0
  9
$PDMODE
 70
     0
  9
$PDSIZE
 40
-1.0
  9
$PLINEWID
 40
0.0
  9
$SPLFRAME
 70
     0
  9
$SPLINETYPE
 70
     6
  9
$SPLINESEGS
 70
     8
  9
$HANDSEED
  5
169
  9
$SURFTAB1
 70
     6
  9
$SURFTAB2
 70
     6
  9
$SURFTYPE
 70
     6
  9
$SURFU
 70
     6
  9
$SURFV
 70
     6
  9
$UCSBASE
  2

  9
$UCSNAME
  2

  9
$UCSORG
 10
0.0
 20
0.0
 30
0.0
  9
$UCSXDIR
 10
1.0
 20
0.0
 30
0.0
  9
$UCSYDIR
 10
0.0
 20
1.0
 30
0.0
  9
$UCSORTHOREF
  2

  9
$UCSORTHOVIEW
 70
     0
  9
$UCSORGTOP
 10
0.0
 20
0.0
 30
0.0
  9
$UCSORGBOTTOM
 10
0.0
 20
0.0
 30
0.0
  9
$UCSORGLEFT
 10
0.0
 20
0.0
 30
0.0
  9
$UCSORGRIGHT
 10
0.0
 20
0.0
 30
0.0
  9
$UCSORGFRONT
 10
0.0
 20
0.0
 30
0.0
  9
$UCSORGBACK
 10
0.0
 20
0.0
 30
0.0
  9
$PUCSBASE
  2

  9
$PUCSNAME
  2

  9
$PUCSORG
 10
0.0
 20
0.0
 30
0.0
  9
$PUCSXDIR
 10
1.0
 20
0.0
 30
0.0
  9
$PUCSYDIR
 10
0.0
 20
1.0
 30
0.0
  9
$PUCSORTHOREF
  2

  9
$PUCSORTHOVIEW
 70
     0
  9
$PUCSORGTOP
 10
0.0
 20
0.0
 30
0.0
  9
$PUCSORGBOTTOM
 10
0.0
 20
0.0
 30
0.0
  9
$PUCSORGLEFT
 10
0.0
 20
0.0
 30
0.0
  9
$PUCSORGRIGHT
 10
0.0
 20
0.0
 30
0.0
  9
$PUCSORGFRONT
 10
0.0
 20
0.0
 30
0.0
  9
$PUCSORGBACK
 10
0.0
 20
0.0
 30
0.0
  9
$USERI1
 70
     0
  9
$USERI2
 70
     0
  9
$USERI3
 70
     0
  9
$USERI4
 70
     0
  9
$USERI5
 70
     0
  9
$USERR1
 40
0.0
  9
$USERR2
 40
0.0
  9
$USERR3
 40
0.0
  9
$USERR4
 40
0.0
  9
$USERR5
 40
0.0
  9
$WORLDVIEW
 70
     1
  9
$SHADEDGE
 70
     3
  9
$SHADEDIF
 70
    70
  9
$TILEMODE
 70
     1
  9
$MAXACTVP
 70
    64
  9
$PINSBASE
 10
0.0
 20
0.0
 30
0.0
  9
$PLIMCHECK
 70
     0
  9
$PEXTMIN
 10
1.0000000000E+20
 20
1.0000000000E+20
 30
1.0000000000E+20
  9
$PEXTMAX
 10
-1.0000000000E+20
 20
-1.0000000000E+20
 30
-1.0000000000E+20
  9
$PLIMMIN
 10
0.0
 20
0.0
  9
$PLIMMAX
 10
420.0
 20
297.0
  9
$UNITMODE
 70
     0
  9
$VISRETAIN
 70
     1
  9
$PLINEGEN
 70
     0
  9
$PSLTSCALE
 70
     1
  9
$TREEDEPTH
 70
  3020
  9
$CMLSTYLE
  2
Standard
  9
$CMLJUST
 70
     0
  9
$CMLSCALE
 40
20.0
  9
$PROXYGRAPHICS
 70
     1
  9
$MEASUREMENT
 70
     1
  9
$CELWEIGHT
370
    -1
  9
$ENDCAPS
280
     0
  9
$JOINSTYLE
280
     0
  9
$LWDISPLAY
290
     1
  9
$INSUNITS
 70
     4
  9
$HYPERLINKBASE
  1

  9
$STYLESHEET
  1

  9
$XEDIT
290
     1
  9
$CEPSNTYPE
380
     0
  9
$PSTYLEMODE
290
     1
  9
$FINGERPRINTGUID
  2
{B0CF0320-B8A3-42BA-B3B8-98C581A0C12E}
  9
$VERSIONGUID
  2
{FAEB1C32-E019-11D5-929B-00C0DF256EC4}
  9
$EXTNAMES
290
     1
  9
$PSVPSCALE
 40
0.0
  9
$OLESTARTUP
290
     0
  0
ENDSEC
  0
SECTION
  2
CLASSES
  0
CLASS
  1
ACDBDICTIONARYWDFLT
  2
AcDbDictionaryWithDefault
  3
ObjectDBX Classes
 90
        0
280
     0
281
     0
  0
CLASS
  1
VISUALSTYLE
  2
AcDbVisualStyle
  3
ObjectDBX Classes
 90
     4095
280
     0
281
     0
  0
CLASS
  1
MATERIAL
  2
AcDbMaterial
  3
ObjectDBX Classes
 90
     1153
280
     0
281
     0
  0
CLASS
  1
ACDBPLACEHOLDER
  2
AcDbPlaceHolder
  3
ObjectDBX Classes
 90
        0
280
     0
281
     0
  0
CLASS
  1
LAYOUT
  2
AcDbLayout
  3
ObjectDBX Classes
 90
        0
280
     0
281
     0
  0
ENDSEC
  0
SECTION
  2
TABLES
  0
TABLE
  2
VPORT
  5
8
330
0
100
AcDbSymbolTable
 70
     1
  0
VPORT
  5
29
330
8
100
AcDbSymbolTableRecord
100
AcDbViewportTableRecord
  2
*Active
 70
     0
 10
0.0
 20
0.0
 11
1.0
 21
1.0
 12
237.5
 22
67.2
 13
0.0
 23
0.0
 14
10.0
 24
10.0
 15
10.0
 25
10.0
 16
0.0
 26
0.0
 36
1.0
 17
0.0
 27
0.0
 37
0.0
 40
128.112
 41
3.8455414013
 42
50.0
 43
0.0
 44
0.0
 50
0.0
 51
0.0
 71
     0
 72
   100
 73
     1
 74
     3
 75
     0
 76
     0
 77
     0
 78
     0
281
     0
 65
     1
110
0.0
120
0.0
130
0.0
111
1.0
121
0.0
131
0.0
112
0.0
122
1.0
132
0.0
 79
     0
146
0.0
  0
ENDTAB
  0
TABLE
  2
LTYPE
  5
5
330
0
100
AcDbSymbolTable
 70
     6
  0
LTYPE
  5
14
330
5
100
AcDbSymbolTableRecord
100
AcDbLinetypeTableRecord
  2
ByBlock
 70
     0
  3

 72
    65
 73
     0
 40
0.0
  0
LTYPE
  5
15
330
5
100
AcDbSymbolTableRecord
100
AcDbLinetypeTableRecord
  2
ByLayer
 70
     0
  3

 72
    65
 73
     0
 40
0.0
  0
LTYPE
  5
16
330
5
100
AcDbSymbolTableRecord
100
AcDbLinetypeTableRecord
  2
Continuous
 70
     0
  3
Solid line
 72
    65
 73
     0
 40
0.0
  0
LTYPE
  5
3F
330
5
100
AcDbSymbolTableRecord
100
AcDbLinetypeTableRecord
  2
HIDDEN
 70
     0
  3
Hidden __ __ __ __ __ __ __ __ __ __ __ __ __ __
 72
    65
 73
     2
 40
1.905
 49
1.27
 74
     0
 49
-0.635
 74
     0
  0
LTYPE
  5
40
330
5
100
AcDbSymbolTableRecord
100
AcDbLinetypeTableRecord
  2
PHANTOM
 70
     0
  3
Phantom ______  __  __  ______  __  __  ______
 72
    65
 73
     6
 40
12.7
 49
6.35
 74
     0
 49
-1.27
 74
     0
 49
1.27
 74
     0
 49
-1.27
 74
     0
 49
1.27
 74
     0
 49
-1.27
 74
     0
  0
LTYPE
  5
41
330
5
100
AcDbSymbolTableRecord
100
AcDbLinetypeTableRecord
  2
CENTER
 70
     0
  3
Center ____ _ ____ _ ____ _ ____ _ ____ _ ____
 72
    65
 73
     4
 40
10.16
 49
6.35
 74
     0
 49
-1.27
 74
     0
 49
1.27
 74
     0
 49
-1.27
 74
     0
  0
LTYPE
  5
42
330
5
100
AcDbSymbolTableRecord
100
AcDbLinetypeTableRecord
  2
CENTERX2
 70
     0
  3
Center (2x) ________  __  ________  __  _____
 72
    65
 73
     4
 40
20.32
 49
12.7
 74
     0
 49
-2.54
 74
     0
 49
2.54
 74
     0
 49
-2.54
 74
     0
  0
LTYPE
  5
43
330
5
100
AcDbSymbolTableRecord
100
AcDbLinetypeTableRecord
  2
DOT2
 70
     0
  3
Dot (.5x) ........................................
 72
    65
 73
     2
 40
0.635
 49
0.0
 74
     0
 49
-0.635
 74
     0
  0
ENDTAB
  0
TABLE
  2
LAYER
  5
2
330
0
100
AcDbSymbolTable
 70
     1
  0
LAYER
  5
10
330
2
100
AcDbSymbolTableRecord
100
AcDbLayerTableRecord
  2
0
 70
     0
 62
     7
  6
Continuous
370
    -3
390
F
  0
ENDTAB
  0
TABLE
  2
STYLE
  5
3
330
0
100
AcDbSymbolTable
 70
     1
  0
STYLE
  5
11
330
3
100
AcDbSymbolTableRecord
100
AcDbTextStyleTableRecord
  2
Standard
 70
     0
 40
0.0
 41
1.0
 50
0.0
 71
     0
 42
4.0
  3
txt
  4

  0
ENDTAB
  0
TABLE
  2
VIEW
  5
6
330
0
100
AcDbSymbolTable
 70
     0
  0
ENDTAB
  0
TABLE
  2
UCS
  5
7
330
0
100
AcDbSymbolTable
 70
     0
  0
ENDTAB
  0
TABLE
  2
APPID
  5
9
330
0
100
AcDbSymbolTable
 70
     1
  0
APPID
  5
12
330
9
100
AcDbSymbolTableRecord
100
AcDbRegAppTableRecord
  2
ACAD
 70
     0
  0
ENDTAB
  0
TABLE
  2
DIMSTYLE
  5
A
330
0
100
AcDbSymbolTable
 70
     1
100
AcDbDimStyleTable
  0
DIMSTYLE
105
27
330
A
100
AcDbSymbolTableRecord
100
AcDbDimStyleTableRecord
  2
ISO-25
 70
     0
 41
2.5
 42
0.625
 43
3.75
 44
1.25
 73
     0
 74
     0
 77
     1
 78
     8
140
2.5
141
2.5
143
0.0393700787
147
0.625
171
     3
172
     1
178
     0
271
     2
272
     2
274
     3
278
    44
283
     0
284
     8
340
11
  0
ENDTAB
  0
TABLE
  2
BLOCK_RECORD
  5
1
330
0
100
AcDbSymbolTable
 70
     1
  0
BLOCK_RECORD
  5
1F
330
1
100
AcDbSymbolTableRecord
100
AcDbBlockTableRecord
  2
*Model_Space
340
22
  0
BLOCK_RECORD
  5
1B
330
1
100
AcDbSymbolTableRecord
100
AcDbBlockTableRecord
  2
*Paper_Space
340
1E
  0
BLOCK_RECORD
  5
23
330
1
100
AcDbSymbolTableRecord
100
AcDbBlockTableRecord
  2
*Paper_Space0
340
26
  0
ENDTAB
  0
ENDSEC
  0
SECTION
  2
BLOCKS
  0
BLOCK
  5
20
330
1F
100
AcDbEntity
  8
0
100
AcDbBlockBegin
  2
*Model_Space
 70
     0
 10
0.0
 20
0.0
 30
0.0
  3
*Model_Space
  1

  0
ENDBLK
  5
21
330
1F
100
AcDbEntity
  8
0
100
AcDbBlockEnd
  0
BLOCK
  5
1C
330
1B
100
AcDbEntity
 67
     1
  8
0
100
AcDbBlockBegin
  2
*Paper_Space
 70
     0
 10
0.0
 20
0.0
 30
0.0
  3
*Paper_Space
  1

  0
ENDBLK
  5
1D
330
1B
100
AcDbEntity
 67
     1
  8
0
100
AcDbBlockEnd
  0
BLOCK
  5
24
330
23
100
AcDbEntity
  8
0
100
AcDbBlockBegin
  2
*Paper_Space0
 70
     0
 10
0.0
 20
0.0
 30
0.0
  3
*Paper_Space0
  1

  0
ENDBLK
  5
25
330
23
100
AcDbEntity
  8
0
100
AcDbBlockEnd
  0
ENDSEC
  0
SECTION
  2
ENTITIES
  0
SPLINE
  5
44
330
1F
100
AcDbEntity
  8
0
  6
Continuous
 62
     7
370
    15
100
AcDbSpline
210
0.0
220
0.0
230
1.0
 70
     8
 71
     3
 72
    15
 73
    11
 74
     0
 42
0.00000001
 43
0.00000001
 12
1.0
 22
0.0
 32
0.0
 13
1.0
 23
0.0
 33
0.0
 40
0.0
 40
0.0
 40
0.0
 40
0.0
 40
0.1284406196239551
 40
0.2549289633384365
 40
0.37871613373222
 40
0.5019943023285408
 40
0.6244069801949362
 40
0.7481941505887255
 40
0.8726200048728986
 40
1.0
 40
1.0
 40
1.0
 40
1.0
 10
405.7692307692308
 20
109.9459134615385
 30
0.0
 10
405.7652064048984
 20
109.7985816093803
 30
0.0
 10
405.7572188458976
 20
109.5061573245444
 30
0.0
 10
405.710497742333
 20
109.0734293738275
 30
0.0
 10
405.623278412651
 20
108.6534455125846
 30
0.0
 10
405.5121736323577
 20
108.2438397983755
 30
0.0
 10
405.3586253791402
 20
107.8480440521842
 30
0.0
 10
405.1764108582399
 20
107.4634779792175
 30
0.0
 10
404.958591277669
 20
107.0908321325086
 30
0.0
 10
404.7905401717547
 20
106.8557160547554
 30
0.0
 10
404.7055288461539
 20
106.7367788461539
 30
0.0
  0
SPLINE
  5
45
330
1F
100
AcDbEntity
  8
0
  6
Continuous
 62
     7
370
    15
100
AcDbSpline
210
0.0
220
0.0
230
1.0
 70
     8
 71
     3
 72
    23
 73
    19
 74
     0
 42
0.00000001
 43
0.00000001
 12
1.0
 22
0.0
 32
0.0
 13
1.0
 23
0.0
 33
0.0
 40
0.0
 40
0.0
 40
0.0
 40
0.0
 40
0.0609006207236224
 40
0.1203023179599359
 40
0.1780151448309673
 40
0.2355064872928579
 40
0.2936199844226699
 40
0.3519276448356886
 40
0.412227771491969
 40
0.4742650492986266
 40
0.5374225968626524
 40
0.5997449214297662
 40
0.6623304766619175
 40
0.7259634480849598
 40
0.7907697220612204
 40
0.857969464633329
 40
0.9275234101076496
 40
1.0
 40
1.0
 40
1.0
 40
1.0
 10
401.4603365384616
 20
114.8076923076923
 30
0.0
 10
401.6077932073978
 20
114.8037241933601
 30
0.0
 10
401.8990772511543
 20
114.7958856303632
 30
0.0
 10
402.3262696130244
 20
114.7315727176305
 30
0.0
 10
402.736028305465
 20
114.6255784341933
 30
0.0
 10
403.1297369855595
 20
114.4780762935822
 30
0.0
 10
403.5045795755211
 20
114.2847394728345
 30
0.0
 10
403.8637874663281
 20
114.0510625128532
 30
0.0
 10
404.2021747918183
 20
113.7729904772286
 30
0.0
 10
404.523377388314
 20
113.4585515715357
 30
0.0
 10
404.8162916182287
 20
113.110662742737
 30
0.0
 10
405.0692463562173
 20
112.7313076023845
 30
0.0
 10
405.2877260089146
 20
112.3299345086634
 30
0.0
 10
405.4655943445914
 20
111.9021087986843
 30
0.0
 10
405.5995342978205
 20
111.4472352737547
 30
0.0
 10
405.6998423756683
 20
110.9692307659332
 30
0.0
 10
405.7560342510304
 20
110.465076862417
 30
0.0
 10
405.7647719959547
 20
110.121325783377
 30
0.0
 10
405.7692307692308
 20
109.9459134615385
 30
0.0
  0
SPLINE
  5
46
330
1F
100
AcDbEntity
  8
0
  6
Continuous
 62
     7
370
    15
100
AcDbSpline
210
0.0
220
0.0
230
1.0
 70
     8
 71
     3
 72
    11
 73
     7
 74
     0
 42
0.00000001
 43
0.00000001
 12
1.0
 22
0.0
 32
0.0
 13
1.0
 23
0.0
 33
0.0
 40
0.0
 40
0.0
 40
0.0
 40
0.0
 40
0.2650129960900825
 40
0.5160880842204949
 40
0.7599173304198424
 40
1.0
 40
1.0
 40
1.0
 40
1.0
 10
399.6093750000001
 20
114.2457932692308
 30
0.0
 10
399.7594543896419
 20
114.3323843618402
 30
0.0
 10
400.0517199985891
 20
114.5010124357637
 30
0.0
 10
400.5183239879611
 20
114.6745995716787
 30
0.0
 10
400.9873249224142
 20
114.7860105906088
 30
0.0
 10
401.3034819240494
 20
114.8005024686746
 30
0.0
 10
401.4603365384616
 20
114.8076923076923
 30
0.0
  0
SPLINE
  5
4D
330
1F
100
AcDbEntity
  8
0
  6
Continuous
 62
     7
370
    15
100
AcDbSpline
210
0.0
220
0.0
230
1.0
 70
     8
 71
     3
 72
    15
 73
    11
 74
     0
 42
0.00000001
 43
0.00000001
 12
1.0
 22
0.0
 32
0.0
 13
1.0
 23
0.0
 33
0.0
 40
0.0
 40
0.0
 40
0.0
 40
0.0
 40
0.1164608859991735
 40
0.2323412937112432
 40
0.3483544577234409
 40
0.4675094081317181
 40
0.5904608793733833
 40
0.7188540747903254
 40
0.8550053441079687
 40
1.0
 40
1.0
 40
1.0
 40
1.0
 10
400.7722355769231
 20
112.3076923076923
 30
0.0
 10
400.6758331110179
 20
112.3042361378388
 30
0.0
 10
400.4835086799164
 20
112.2973410247872
 30
0.0
 10
400.1996032579297
 20
112.241290478717
 30
0.0
 10
399.9232664829732
 20
112.1500398001187
 30
0.0
 10
399.6547855739219
 20
112.0230125037039
 30
0.0
 10
399.3948708429073
 20
111.8591935234888
 30
0.0
 10
399.1446475916594
 20
111.6580395860889
 30
0.0
 10
398.8998206058698
 20
111.4230115342628
 30
0.0
 10
398.7494336652643
 20
111.2454298786599
 30
0.0
 10
398.671875
 20
111.1538461538462
 30
0.0
  0
SPLINE
  5
4E
330
1F
100
AcDbEntity
  8
0
  6
Continuous
 62
     7
370
    15
100
AcDbSpline
210
0.0
220
0.0
230
1.0
 70
     8
 71
     3
 72
    23
 73
    19
 74
     0
 42
0.00000001
 43
0.00000001
 12
1.0
 22
0.0
 32
0.0
 13
1.0
 23
0.0
 33
0.0
 40
0.0
 40
0.0
 40
0.0
 40
0.0
 40
0.080763516234085
 40
0.1560888091516232
 40
0.2271878732431891
 40
0.294738890256318
 40
0.3588525225472292
 40
0.4200087027996098
 40
0.4789558966409249
 40
0.5367640192035283
 40
0.5938932380463836
 40
0.649743215156521
 40
0.7055445742142537
 40
0.7611815336900476
 40
0.8184886332503796
 40
0.8766536536395132
 40
0.9373476407922376
 40
0.9999999999999999
 40
0.9999999999999999
 40
0.9999999999999999
 40
0.9999999999999999
 10
402.8846153846154
 20
109.8828125
 30
0.0
 10
402.8830559888243
 20
109.9810472257873
 30
0.0
 10
402.8800421993882
 20
110.1709020275646
 30
0.0
 10
402.8520812871549
 20
110.4459695823581
 30
0.0
 10
402.8091614408679
 20
110.7030227540536
 30
0.0
 10
402.7408827400912
 20
110.9401821074057
 30
0.0
 10
402.662903088929
 20
111.1618564617283
 30
0.0
 10
402.5577668609148
 20
111.3601889224244
 30
0.0
 10
402.442405617615
 20
111.5437954691184
 30
0.0
 10
402.3017977805261
 20
111.7027695974244
 30
0.0
 10
402.1485927029286
 20
111.8432334262974
 30
0.0
 10
401.9854298209659
 20
111.968384389612
 30
0.0
 10
401.810477530466
 20
112.0728108240495
 30
0.0
 10
401.6254778734159
 20
112.1624392855927
 30
0.0
 10
401.4272238908934
 20
112.22772422174
 30
0.0
 10
401.2173236750295
 20
112.2711579941629
 30
0.0
 10
400.9985995675922
 20
112.3037636829935
 30
0.0
 10
400.8484846992586
 20
112.3063689780215
 30
0.0
 10
400.7722355769231
 20
112.3076923076923
 30
0.0
  0
SPLINE
  5
4F
330
1F
100
AcDbEntity
  8
0
  6
Continuous
 62
     7
370
    15
100
AcDbSpline
210
0.0
220
0.0
230
1.0
 70
     8
 71
     3
 72
    23
 73
    19
 74
     0
 42
0.00000001
 43
0.00000001
 12
1.0
 22
0.0
 32
0.0
 13
1.0
 23
0.0
 33
0.0
 40
0.0
 40
0.0
 40
0.0
 40
0.0
 40
0.0613292552330893
 40
0.1200529602621835
 40
0.1782193636432877
 40
0.2346652732309008
 40
0.2909028561819868
 40
0.3475356045248308
 40
0.4040853896319994
 40
0.4627491010765202
 40
0.5223753089003563
 40
0.5823107553566202
 40
0.6436973991754716
 40
0.7075764816682563
 40
0.774501998824557
 40
0.8455657277207997
 40
0.9202690606734183
 40
1.0
 40
1.0
 40
1.0
 40
1.0
 10
400.5588942307692
 20
107.3076923076923
 30
0.0
 10
400.6391223971847
 20
107.3091018293321
 30
0.0
 10
400.796170266721
 20
107.3118609896182
 30
0.0
 10
401.0276029342809
 20
107.3431809969203
 30
0.0
 10
401.2486847421026
 20
107.3940650525097
 30
0.0
 10
401.461507417177
 20
107.4631241686344
 30
0.0
 10
401.6638542775788
 20
107.5539515649432
 30
0.0
 10
401.8559052317161
 20
107.6651005278834
 30
0.0
 10
402.038377990087
 20
107.7967272119488
 30
0.0
 10
402.2121961445513
 20
107.9455626503716
 30
0.0
 10
402.3728055176828
 20
108.1154930750271
 30
0.0
 10
402.5070348643531
 20
108.3110955777331
 30
0.0
 10
402.6259451010753
 20
108.5223740888259
 30
0.0
 10
402.7228139727738
 20
108.7550683604601
 30
0.0
 10
402.7926429371234
 20
109.0099938716992
 30
0.0
 10
402.8481969078027
 20
109.282786458089
 30
0.0
 10
402.8765156364676
 20
109.5767395914964
 30
0.0
 10
402.8818575004545
 20
109.7785977008415
 30
0.0
 10
402.8846153846154
 20
109.8828125
 30
0.0
  0
SPLINE
  5
50
330
1F
100
AcDbEntity
  8
0
  6
Continuous
 62
     7
370
    15
100
AcDbSpline
210
0.0
220
0.0
230
1.0
 70
     8
 71
     3
 72
    15
 73
    11
 74
     0
 42
0.00000001
 43
0.00000001
 12
1.0
 22
0.0
 32
0.0
 13
1.0
 23
0.0
 33
0.0
 40
0.0
 40
0.0
 40
0.0
 40
0.0
 40
0.1443560809042939
 40
0.2779814235234693
 40
0.4056762364658245
 40
0.5317913282467994
 40
0.6541207714660084
 40
0.769533837188089
 40
0.8839695423837616
 40
1.0
 40
1.0
 40
1.0
 40
1.0
 10
398.2692307692308
 20
109.6153846153847
 30
0.0
 10
398.2968874973813
 20
109.4458426702761
 30
0.0
 10
398.3501450852371
 20
109.1193617146215
 30
0.0
 10
398.5154727391545
 20
108.6635692184711
 30
0.0
 10
398.7457141896999
 20
108.2620342316869
 30
0.0
 10
399.0416164346873
 20
107.9239259143141
 30
0.0
 10
399.378390332634
 20
107.648945133403
 30
0.0
 10
399.75044073422
 20
107.4529076669072
 30
0.0
 10
400.1464982941453
 20
107.3294824955632
 30
0.0
 10
400.4207962337774
 20
107.3149891334653
 30
0.0
 10
400.5588942307692
 20
107.3076923076923
 30
0.0
  0
SPLINE
  5
52
330
1F
100
AcDbEntity
  8
0
  6
Continuous
 62
     7
370
    15
100
AcDbSpline
210
0.0
220
0.0
230
1.0
 70
     8
 71
     3
 72
    23
 73
    19
 74
     0
 42
0.00000001
 43
0.00000001
 12
1.0
 22
0.0
 32
0.0
 13
1.0
 23
0.0
 33
0.0
 40
0.0
 40
0.0
 40
0.0
 40
0.0
 40
0.0686820088900112
 40
0.1341053709709371
 40
0.1975679288876525
 40
0.2586952636031342
 40
0.3189424287643839
 40
0.3783525933343512
 40
0.4377332491936434
 40
0.4977361043058601
 40
0.5581216416410237
 40
0.6177169549675972
 40
0.6778878797972693
 40
0.738931870506855
 40
0.8010022243488665
 40
0.8649586617602208
 40
0.9313520245996553
 40
1.0
 40
1.0
 40
1.0
 40
1.0
 10
400.6790865384615
 20
104.8076923076923
 30
0.0
 10
400.5106464906106
 20
104.8107347786369
 30
0.0
 10
400.1817581038484
 20
104.816675369212
 30
0.0
 10
399.7001084312657
 20
104.8754233722342
 30
0.0
 10
399.2436634524388
 20
104.9708671159138
 30
0.0
 10
398.8095435132278
 20
105.1033144531463
 30
0.0
 10
398.4003262468776
 20
105.2753317520837
 30
0.0
 10
398.0128321246262
 20
105.4830109568508
 30
0.0
 10
397.6502896345286
 20
105.730955257461
 30
0.0
 10
397.3143682549391
 20
106.017291519909
 30
0.0
 10
397.0058996235297
 20
106.3337761236029
 30
0.0
 10
396.730759182498
 20
106.6800676331472
 30
0.0
 10
396.4859562611165
 20
107.0503744071328
 30
0.0
 10
396.2761612709397
 20
107.4484382312202
 30
0.0
 10
396.0973663552104
 20
107.8714674525777
 30
0.0
 10
395.9550023187757
 20
108.3216301002886
 30
0.0
 10
395.8377869511825
 20
108.7959240894649
 30
0.0
 10
395.7923357765974
 20
109.1240588043049
 30
0.0
 10
395.7692307692308
 20
109.2908653846154
 30
0.0
  0
SPLINE
  5
53
330
1F
100
AcDbEntity
  8
0
  6
Continuous
 62
     7
370
    15
100
AcDbSpline
210
0.0
220
0.0
230
1.0
 70
     8
 71
     3
 72
    15
 73
    11
 74
     0
 42
0.00000001
 43
0.00000001
 12
1.0
 22
0.0
 32
0.0
 13
1.0
 23
0.0
 33
0.0
 40
0.0
 40
0.0
 40
0.0
 40
0.0
 40
0.127265213834789
 40
0.2504727448331149
 40
0.3709183694476877
 40
0.4903519675537723
 40
0.612039162863207
 40
0.7361283332358934
 40
0.8651603406623681
 40
1.0
 40
1.0
 40
1.0
 40
1.0
 10
404.7055288461539
 20
106.7367788461539
 30
0.0
 10
404.5815993702171
 20
106.5836287235254
 30
0.0
 10
404.3376917455941
 20
106.2822114671486
 30
0.0
 10
403.9201543093751
 20
105.8859226906627
 30
0.0
 10
403.4660312007056
 20
105.5531093670348
 30
0.0
 10
402.9765523953249
 20
105.2797854578351
 30
0.0
 10
402.4522393491296
 20
105.0653010440328
 30
0.0
 10
401.8907264219891
 20
104.9161816109767
 30
0.0
 10
401.2961307052012
 20
104.8239234828774
 30
0.0
 10
400.8877638942139
 20
104.8131815074951
 30
0.0
 10
400.6790865384615
 20
104.8076923076923
 30
0.0
  0
SPLINE
  5
5F
330
1F
100
AcDbEntity
  8
0
  6
Continuous
 62
     7
370
    15
100
AcDbSpline
210
0.0
220
0.0
230
1.0
 70
     8
 71
     3
 72
    23
 73
    19
 74
     0
 42
0.00000001
 43
0.00000001
 12
1.0
 22
0.0
 32
0.0
 13
1.0
 23
0.0
 33
0.0
 40
0.0
 40
0.0
 40
0.0
 40
0.0
 40
0.0648363736258081
 40
0.1279449161034012
 40
0.1894280196116068
 40
0.2503554464126834
 40
0.3103592653539374
 40
0.3704596207746331
 40
0.4311232293228704
 40
0.4928228177782785
 40
0.5547568576995072
 40
0.61638123330072
 40
0.6775618660834184
 40
0.7393365758188236
 40
0.8019316697439374
 40
0.8659401578582695
 40
0.9321916958894068
 40
1.0
 40
1.0
 40
1.0
 40
1.0
 10
212.8425480769231
 20
113.0018028846154
 30
0.0
 10
212.9441262561141
 20
112.9773202472216
 30
0.0
 10
213.1445756472155
 20
112.9290074127403
 30
0.0
 10
213.4341489352732
 20
112.8305128520386
 30
0.0
 10
213.7053355876303
 20
112.7041709102102
 30
0.0
 10
213.964777456057
 20
112.5653509007243
 30
0.0
 10
214.2060362010122
 20
112.4007385867716
 30
0.0
 10
214.433788270037
 20
112.2183373262017
 30
0.0
 10
214.6393235160669
 20
112.0076125216289
 30
0.0
 10
214.8362723145972
 20
111.7849811364602
 30
0.0
 10
215.0084307312511
 20
111.5406522227481
 30
0.0
 10
215.1639869782591
 20
111.2864018155861
 30
0.0
 10
215.2889329083851
 20
111.0160264900841
 30
0.0
 10
215.3957993650707
 20
110.7364780696979
 30
0.0
 10
215.4754279437409
 20
110.4432381170101
 30
0.0
 10
215.5377825888413
 20
110.1385005340249
 30
0.0
 10
215.5690368022414
 20
109.8203685464453
 30
0.0
 10
215.5742740462472
 20
109.6044202849451
 30
0.0
 10
215.5769230769231
 20
109.4951923076923
 30
0.0
  0
SPLINE
  5
60
330
1F
100
AcDbEntity
  8
0
  6
Continuous
 62
     7
370
    15
100
AcDbSpline
210
0.0
220
0.0
230
1.0
 70
     8
 71
     3
 72
    15
 73
    11
 74
     0
 42
0.00000001
 43
0.00000001
 12
1.0
 22
0.0
 32
0.0
 13
1.0
 23
0.0
 33
0.0
 40
0.0
 40
0.0
 40
0.0
 40
0.0
 40
0.1196964719965255
 40
0.2359437583202371
 40
0.3505624285330354
 40
0.467573879445342
 40
0.5886790971730624
 40
0.7164321348375394
 40
0.8533140436686101
 40
1.0
 40
1.0
 40
1.0
 40
1.0
 10
215.0
 20
116.1538461538462
 30
0.0
 10
214.9941247987143
 20
115.9930207597599
 30
0.0
 10
214.9825436965389
 20
115.676004332449
 30
0.0
 10
214.8762729713025
 20
115.2148395459201
 30
0.0
 10
214.7054670458702
 20
114.7788939563062
 30
0.0
 10
214.469291352029
 20
114.3665022476501
 30
0.0
 10
214.1613731068975
 20
113.9814912599582
 30
0.0
 10
213.7823144763632
 20
113.6273252659397
 30
0.0
 10
213.3432538056357
 20
113.2904891199121
 30
0.0
 10
213.0132531235437
 20
113.1002243614013
 30
0.0
 10
212.8425480769231
 20
113.0018028846154
 30
0.0
  0
SPLINE
  5
61
330
1F
100
AcDbEntity
  8
0
  6
Continuous
 62
     7
370
    15
100
AcDbSpline
210
0.0
220
0.0
230
1.0
 70
     8
 71
     3
 72
    15
 73
    11
 74
     0
 42
0.00000001
 43
0.00000001
 12
1.0
 22
0.0
 32
0.0
 13
1.0
 23
0.0
 33
0.0
 40
0.0
 40
0.0
 40
0.0
 40
0.0
 40
0.1331978343624758
 40
0.2630795403811823
 40
0.3876611031449265
 40
0.5115071050662593
 40
0.6323856124295693
 40
0.7532592432015585
 40
0.8761016530293143
 40
1.0
 40
1.0
 40
1.0
 40
1.0
 10
213.9723557692308
 20
118.6508413461539
 30
0.0
 10
214.0541246016138
 20
118.5590558727179
 30
0.0
 10
214.2156265280063
 20
118.3777700411519
 30
0.0
 10
214.4253150285
 20
118.0871212913103
 30
0.0
 10
214.6008130202021
 20
117.7851110089432
 30
0.0
 10
214.7496806991075
 20
117.4780407638751
 30
0.0
 10
214.8603879229947
 20
117.1587899247616
 30
0.0
 10
214.9429210424708
 20
116.832369922867
 30
0.0
 10
214.9919427998577
 20
116.4958884738919
 30
0.0
 10
214.9973066150638
 20
116.2681850825149
 30
0.0
 10
215.0
 20
116.1538461538462
 30
0.0
  0
SPLINE
  5
62
330
1F
100
AcDbEntity
  8
0
  6
Continuous
 62
     7
370
    15
100
AcDbSpline
210
0.0
220
0.0
230
1.0
 70
     8
 71
     3
 72
    15
 73
    11
 74
     0
 42
0.00000001
 43
0.00000001
 12
1.0
 22
0.0
 32
0.0
 13
1.0
 23
0.0
 33
0.0
 40
0.0
 40
0.0
 40
0.0
 40
0.0
 40
0.1371223374139046
 40
0.2679123640023225
 40
0.3935226983663887
 40
0.5160237818867058
 40
0.636775150591663
 40
0.7569302398618499
 40
0.8771627914374661
 40
1.0
 40
1.0
 40
1.0
 40
1.0
 10
210.6610576923077
 20
120.0
 30
0.0
 10
210.8295345759774
 20
119.9961662968554
 30
0.0
 10
211.158708079252
 20
119.9886759310132
 30
0.0
 10
211.6387210610307
 20
119.9242228246273
 30
0.0
 10
212.092895050695
 20
119.81951803669
 30
0.0
 10
212.5218631694257
 20
119.6714058523405
 30
0.0
 10
212.92761397127
 20
119.4828248144852
 30
0.0
 10
213.3033738159942
 20
119.2455583136122
 30
0.0
 10
213.6570254995812
 20
118.9716891717125
 30
0.0
 10
213.866497468044
 20
118.7585519246239
 30
0.0
 10
213.9723557692308
 20
118.6508413461539
 30
0.0
  0
SPLINE
  5
63
330
1F
100
AcDbEntity
  8
0
  6
Continuous
 62
     7
370
    15
100
AcDbSpline
210
0.0
220
0.0
230
1.0
 70
     8
 71
     3
 72
    19
 73
    15
 74
     0
 42
0.00000001
 43
0.00000001
 12
1.0
 22
0.0
 32
0.0
 13
1.0
 23
0.0
 33
0.0
 40
0.0
 40
0.0
 40
0.0
 40
0.0
 40
0.10173402905652
 40
0.1947417213437006
 40
0.2792788916351183
 40
0.3566660711123602
 40
0.4309560396784012
 40
0.5058196632789124
 40
0.5820998940514595
 40
0.6615079801926972
 40
0.743259477415806
 40
0.8260386158600266
 40
0.9112078215062809
 40
1.0
 40
1.0
 40
1.0
 40
1.0
 10
206.1538461538462
 20
116.0096153846154
 30
0.0
 10
206.2014103231262
 20
116.2298494574677
 30
0.0
 10
206.2924587981132
 20
116.6514268081686
 30
0.0
 10
206.478484641001
 20
117.2420884397244
 30
0.0
 10
206.6967582689315
 20
117.7635063656787
 30
0.0
 10
206.9517787249825
 20
118.2215237682021
 30
0.0
 10
207.2538558132734
 20
118.6242049888241
 30
0.0
 10
207.612513766258
 20
118.9737318927047
 30
0.0
 10
208.0223864515387
 20
119.2802469197684
 30
0.0
 10
208.4826912299432
 20
119.5370796345547
 30
0.0
 10
208.9831758295006
 20
119.742932746014
 30
0.0
 10
209.5158124896491
 20
119.8952899778459
 30
0.0
 10
210.0792427558565
 20
119.9826043384799
 30
0.0
 10
210.4644452651731
 20
119.994121492903
 30
0.0
 10
210.6610576923077
 20
120.0
 30
0.0
  0
SPLINE
  5
65
330
1F
100
AcDbEntity
  8
0
  6
Continuous
 62
     7
370
    15
100
AcDbSpline
210
0.0
220
0.0
230
1.0
 70
     8
 71
     3
 72
    15
 73
    11
 74
     0
 42
0.00000001
 43
0.00000001
 12
1.0
 22
0.0
 32
0.0
 13
1.0
 23
0.0
 33
0.0
 40
0.0
 40
0.0
 40
0.0
 40
0.0
 40
0.111244526759747
 40
0.218668194036247
 40
0.3280057699508627
 40
0.4429090160362674
 40
0.5650280044203794
 40
0.6953192066560004
 40
0.839884303046674
 40
1.0
 40
1.0
 40
1.0
 40
1.0
 10
210.6850961538462
 20
117.5
 30
0.0
 10
210.5811189709352
 20
117.4948600937139
 30
0.0
 10
210.3767358568138
 20
117.4847568189025
 30
0.0
 10
210.0842784516978
 20
117.3848194100179
 30
0.0
 10
209.814470813777
 20
117.2301922936544
 30
0.0
 10
209.5763849571502
 20
117.0087518831993
 30
0.0
 10
209.3700307841104
 20
116.7333368604132
 30
0.0
 10
209.210121198943
 20
116.3974472100402
 30
0.0
 10
209.0975052246698
 20
116.0063453012902
 30
0.0
 10
209.0588012380189
 20
115.7248528487202
 30
0.0
 10
209.0384615384616
 20
115.5769230769231
 30
0.0
  0
SPLINE
  5
66
330
1F
100
AcDbEntity
  8
0
  6
Continuous
 62
     7
370
    15
100
AcDbSpline
210
0.0
220
0.0
230
1.0
 70
     8
 71
     3
 72
    15
 73
    11
 74
     0
 42
0.00000001
 43
0.00000001
 12
1.0
 22
0.0
 32
0.0
 13
1.0
 23
0.0
 33
0.0
 40
0.0
 40
0.0
 40
0.0
 40
0.0
 40
0.1433711005354734
 40
0.2749037179736852
 40
0.3990371425867081
 40
0.5191877860943139
 40
0.6363136468940057
 40
0.752164774962474
 40
0.8714108513940201
 40
1.0
 40
1.0
 40
1.0
 40
1.0
 10
212.1153846153846
 20
115.9014423076923
 30
0.0
 10
212.1111684998169
 20
116.0170224754817
 30
0.0
 10
212.1030844030871
 20
116.2386390895039
 30
0.0
 10
212.0305645803415
 20
116.5539892757434
 30
0.0
 10
211.906788318442
 20
116.8324044657338
 30
0.0
 10
211.7336535969787
 20
117.0690519058612
 30
0.0
 10
211.5212753779231
 20
117.2612168715219
 30
0.0
 10
211.273038598011
 20
117.4032127813637
 30
0.0
 10
210.9887078370565
 20
117.4860153136056
 30
0.0
 10
210.7888119878475
 20
117.4952227351817
 30
0.0
 10
210.6850961538462
 20
117.5
 30
0.0
  0
SPLINE
  5
67
330
1F
100
AcDbEntity
  8
0
  6
Continuous
 62
     7
370
    15
100
AcDbSpline
210
0.0
220
0.0
230
1.0
 70
     8
 71
     3
 72
    19
 73
    15
 74
     0
 42
0.00000001
 43
0.00000001
 12
1.0
 22
0.0
 32
0.0
 13
1.0
 23
0.0
 33
0.0
 40
0.0
 40
0.0
 40
0.0
 40
0.0
 40
0.076395799076913
 40
0.1482456825776884
 40
0.217008533006908
 40
0.2814161838437017
 40
0.343671143479903
 40
0.4026077297746923
 40
0.4616756899907008
 40
0.5198883364384519
 40
0.6353224899631441
 40
0.7502102534132751
 40
0.8706548390889044
 40
1.0
 40
1.0
 40
1.0
 40
1.0
 10
210.078125
 20
114.0384615384616
 30
0.0
 10
210.1582865414003
 20
114.037086435534
 30
0.0
 10
210.3138396289385
 20
114.0344180548823
 30
0.0
 10
210.5409937996912
 20
114.0532512245129
 30
0.0
 10
210.7536171077557
 20
114.0876363848386
 30
0.0
 10
210.9512134340132
 20
114.1434261186996
 30
0.0
 10
211.133966762322
 20
114.2111104597539
 30
0.0
 10
211.3034754190467
 20
114.296150791581
 30
0.0
 10
211.4555924716835
 20
114.4019790948682
 30
0.0
 10
211.6408048438319
 20
114.5617263593846
 30
0.0
 10
211.8302938458136
 20
114.8010980692366
 30
0.0
 10
212.0016038922563
 20
115.129330454079
 30
0.0
 10
212.0970544164499
 20
115.5035847697913
 30
0.0
 10
212.1091311090895
 20
115.7657097590882
 30
0.0
 10
212.1153846153846
 20
115.9014423076923
 30
0.0
  0
SPLINE
  5
69
330
1F
100
AcDbEntity
  8
0
  6
Continuous
 62
     7
370
    15
100
AcDbSpline
210
0.0
220
0.0
230
1.0
 70
     8
 71
     3
 72
    11
 73
     7
 74
     0
 42
0.00000001
 43
0.00000001
 12
1.0
 22
0.0
 32
0.0
 13
1.0
 23
0.0
 33
0.0
 40
0.0
 40
0.0
 40
0.0
 40
0.0
 40
0.2136313786717045
 40
0.4528759807056739
 40
0.7136025858132736
 40
1.0
 40
1.0
 40
1.0
 40
1.0
 10
210.9525240384615
 20
111.923076923077
 30
0.0
 10
210.8692225514153
 20
111.9209453887822
 30
0.0
 10
210.6926321887314
 20
111.9164267609939
 30
0.0
 10
210.4179554412874
 20
111.8694776994462
 30
0.0
 10
210.1184192574973
 20
111.8046858758019
 30
0.0
 10
209.9144578824786
 20
111.7423604369241
 30
0.0
 10
209.8076923076923
 20
111.7097355769231
 30
0.0
  0
SPLINE
  5
6A
330
1F
100
AcDbEntity
  8
0
  6
Continuous
 62
     7
370
    15
100
AcDbSpline
210
0.0
220
0.0
230
1.0
 70
     8
 71
     3
 72
    15
 73
    11
 74
     0
 42
0.00000001
 43
0.00000001
 12
1.0
 22
0.0
 32
0.0
 13
1.0
 23
0.0
 33
0.0
 40
0.0
 40
0.0
 40
0.0
 40
0.0
 40
0.1551891076953957
 40
0.2960401486453831
 40
0.4267637504064227
 40
0.5519118562685725
 40
0.6708037237520251
 40
0.7806745890737863
 40
0.8891194926079574
 40
1.0
 40
1.0
 40
1.0
 40
1.0
 10
212.6923076923077
 20
109.6844951923077
 30
0.0
 10
212.6860544968621
 20
109.8482097506195
 30
0.0
 10
212.6741258445444
 20
110.1605131261448
 30
0.0
 10
212.5819493471276
 20
110.6035870565975
 30
0.0
 10
212.4220988324714
 20
110.9930670208089
 30
0.0
 10
212.1981404292015
 20
111.321965937812
 30
0.0
 10
211.9320141162923
 20
111.5865404228949
 30
0.0
 10
211.6338978063858
 20
111.785415826864
 30
0.0
 10
211.3009739222352
 20
111.8996682511196
 30
0.0
 10
211.069530723594
 20
111.9152164781848
 30
0.0
 10
210.9525240384615
 20
111.923076923077
 30
0.0
  0
SPLINE
  5
6B
330
1F
100
AcDbEntity
  8
0
  6
Continuous
 62
     7
370
    15
100
AcDbSpline
210
0.0
220
0.0
230
1.0
 70
     8
 71
     3
 72
    23
 73
    19
 74
     0
 42
0.00000001
 43
0.00000001
 12
1.0
 22
0.0
 32
0.0
 13
1.0
 23
0.0
 33
0.0
 40
0.0
 40
0.0
 40
0.0
 40
0.0
 40
0.0594850524583279
 40
0.1178305957578904
 40
0.1748645467675659
 40
0.2313233068588221
 40
0.2875648537771763
 40
0.3441810636561456
 40
0.4028499236817927
 40
0.4637522190980637
 40
0.5256272728085167
 40
0.5872620807904967
 40
0.6504421584534598
 40
0.7150617611836804
 40
0.7821428128071687
 40
0.8514002647807312
 40
0.924162579727703
 40
0.9999999999999999
 40
0.9999999999999999
 40
0.9999999999999999
 40
0.9999999999999999
 10
210.6820913461539
 20
107.3076923076923
 30
0.0
 10
210.7513118724501
 20
107.309178781869
 30
0.0
 10
210.8884269209386
 20
107.3121232549857
 30
0.0
 10
211.0899895469347
 20
107.3430165580867
 30
0.0
 10
211.2836596081861
 20
107.3937977933997
 30
0.0
 10
211.4675262656466
 20
107.4668682067191
 30
0.0
 10
211.6424672639312
 20
107.5576591900336
 30
0.0
 10
211.8107862909818
 20
107.6657789010923
 30
0.0
 10
211.9654125898629
 20
107.8008159227613
 30
0.0
 10
212.1163778012721
 20
107.9485607306217
 30
0.0
 10
212.25034604213
 20
108.1167437572392
 30
0.0
 10
212.3683561083369
 20
108.2992152857712
 30
0.0
 10
212.4719455149283
 20
108.494165469934
 30
0.0
 10
212.5522379219905
 20
108.7066208554153
 30
0.0
 10
212.6150888598429
 20
108.931979372151
 30
0.0
 10
212.6600212678536
 20
109.1712192581857
 30
0.0
 10
212.6873670932234
 20
109.4234387068083
 30
0.0
 10
212.6906382615562
 20
109.5962840832234
 30
0.0
 10
212.6923076923077
 20
109.6844951923078
 30
0.0
  0
SPLINE
  5
6C
330
1F
100
AcDbEntity
  8
0
  6
Continuous
 62
     7
370
    15
100
AcDbSpline
210
0.0
220
0.0
230
1.0
 70
     8
 71
     3
 72
    15
 73
    11
 74
     0
 42
0.00000001
 43
0.00000001
 12
1.0
 22
0.0
 32
0.0
 13
1.0
 23
0.0
 33
0.0
 40
0.0
 40
0.0
 40
0.0
 40
0.0
 40
0.1582898674923391
 40
0.3004564688815951
 40
0.43090528038704
 40
0.5536134903141858
 40
0.6685453581737696
 40
0.7789529920314762
 40
0.8869019756104737
 40
0.9999999999999999
 40
0.9999999999999999
 40
0.9999999999999999
 40
0.9999999999999999
 10
208.6538461538462
 20
109.6153846153847
 30
0.0
 10
208.6787578010338
 20
109.4380157358238
 30
0.0
 10
208.7260436170282
 20
109.1013446141243
 30
0.0
 10
208.8734826794129
 20
108.6353490600135
 30
0.0
 10
209.0659570028375
 20
108.2298325942649
 30
0.0
 10
209.3207833504227
 20
107.8975715559296
 30
0.0
 10
209.615405502791
 20
107.6333177213712
 30
0.0
 10
209.9439773153396
 20
107.4447629946703
 30
0.0
 10
210.3035266953758
 20
107.3258567961495
 30
0.0
 10
210.5539586194616
 20
107.3138404396698
 30
0.0
 10
210.6820913461539
 20
107.3076923076923
 30
0.0
  0
SPLINE
  5
6E
330
1F
100
AcDbEntity
  8
0
  6
Continuous
 62
     7
370
    15
100
AcDbSpline
210
0.0
220
0.0
230
1.0
 70
     8
 71
     3
 72
    23
 73
    19
 74
     0
 42
0.00000001
 43
0.00000001
 12
1.0
 22
0.0
 32
0.0
 13
1.0
 23
0.0
 33
0.0
 40
0.0
 40
0.0
 40
0.0
 40
0.0
 40
0.0673455133324327
 40
0.1322824462207194
 40
0.1952047908892194
 40
0.2567077343438471
 40
0.3172116539569635
 40
0.3772857804954447
 40
0.4378685399479033
 40
0.4990881094029314
 40
0.5604008922052839
 40
0.6212069433372178
 40
0.6816699947735251
 40
0.7426314439894791
 40
0.8044371517266041
 40
0.8676392817943598
 40
0.9324421912064809
 40
1.0
 40
1.0
 40
1.0
 40
1.0
 10
210.6219951923077
 20
104.8076923076923
 30
0.0
 10
210.4585130706177
 20
104.8104330986228
 30
0.0
 10
210.1373956880273
 20
104.8158166573918
 30
0.0
 10
209.6673065958649
 20
104.8795936410362
 30
0.0
 10
209.2170661973211
 20
104.9734170868082
 30
0.0
 10
208.7893024759002
 20
105.1106706948095
 30
0.0
 10
208.3802892696251
 20
105.2797286773098
 30
0.0
 10
207.9977465505241
 20
105.4976612034298
 30
0.0
 10
207.6318270949411
 20
105.745359591927
 30
0.0
 10
207.2944858392254
 20
106.0355184759137
 30
0.0
 10
206.9808314368248
 20
106.3517619688755
 30
0.0
 10
206.7053236088344
 20
106.6995414871329
 30
0.0
 10
206.4598094095882
 20
107.06775710563
 30
0.0
 10
206.2486437009769
 20
107.4596733228472
 30
0.0
 10
206.0735960608673
 20
107.8763085563018
 30
0.0
 10
205.9372972556085
 20
108.3165873818372
 30
0.0
 10
205.8285963336861
 20
108.779161545029
 30
0.0
 10
205.7892919787274
 20
109.0980529636031
 30
0.0
 10
205.7692307692308
 20
109.2608173076923
 30
0.0
  0
SPLINE
  5
6F
330
1F
100
AcDbEntity
  8
0
  6
Continuous
 62
     7
370
    15
100
AcDbSpline
210
0.0
220
0.0
230
1.0
 70
     8
 71
     3
 72
    23
 73
    19
 74
     0
 42
0.00000001
 43
0.00000001
 12
1.0
 22
0.0
 32
0.0
 13
1.0
 23
0.0
 33
0.0
 40
0.0
 40
0.0
 40
0.0
 40
0.0
 40
0.0629075118173252
 40
0.1240620716016168
 40
0.1839778251218918
 40
0.2432433840714781
 40
0.3028139496866611
 40
0.363021037927894
 40
0.4246932892410752
 40
0.4884396049175396
 40
0.5525805097987426
 40
0.6148866190330102
 40
0.6773955049790205
 40
0.7393205642850765
 40
0.802192054777854
 40
0.8657714949961213
 40
0.9319586810728188
 40
1.0
 40
1.0
 40
1.0
 40
1.0
 10
215.5769230769231
 20
109.4951923076923
 30
0.0
 10
215.573556947402
 20
109.3356591468464
 30
0.0
 10
215.5669184873898
 20
109.0210383034537
 30
0.0
 10
215.4940031150989
 20
108.5592877218106
 30
0.0
 10
215.3832223411844
 20
108.1155150773521
 30
0.0
 10
215.2305566074438
 20
107.6879275530176
 30
0.0
 10
215.0263865637978
 20
107.2817567025661
 30
0.0
 10
214.7822428289157
 20
106.891304315918
 30
0.0
 10
214.4914754341352
 20
106.5204597219132
 30
0.0
 10
214.1599072713628
 20
106.1720332463714
 30
0.0
 10
213.7976107672615
 20
105.8531246750498
 30
0.0
 10
213.4083243616992
 20
105.5730069772435
 30
0.0
 10
212.9978156805101
 20
105.3359226575387
 30
0.0
 10
212.5637326086754
 20
105.1420620810497
 30
0.0
 10
212.109849781417
 20
104.9912253570128
 30
0.0
 10
211.6322599202443
 20
104.8875562309166
 30
0.0
 10
211.1348370570639
 20
104.8183929229004
 30
0.0
 10
210.7945094912819
 20
104.8112918756256
 30
0.0
 10
210.6219951923077
 20
104.8076923076923
 30
0.0
  0
SPLINE
  5
70
330
1F
100
AcDbEntity
  8
0
  6
Continuous
 62
     7
370
    15
100
AcDbSpline
210
0.0
220
0.0
230
1.0
 70
     8
 71
     3
 72
    15
 73
    11
 74
     0
 42
0.00000001
 43
0.00000001
 12
1.0
 22
0.0
 32
0.0
 13
1.0
 23
0.0
 33
0.0
 40
0.0
 40
0.0
 40
0.0
 40
0.0
 40
0.1191762436674486
 40
0.2364273787594535
 40
0.3526638478564068
 40
0.4690860844274195
 40
0.5894629077907688
 40
0.7176014692905142
 40
0.8541894668533134
 40
1.0
 40
1.0
 40
1.0
 40
1.0
 10
120.5769230769231
 20
115.9194711538462
 30
0.0
 10
120.5732531613678
 20
115.7559642697304
 30
0.0
 10
120.5659726120879
 20
115.4315917032608
 30
0.0
 10
120.4962667543134
 20
114.9520721431563
 30
0.0
 10
120.3897697741678
 20
114.4836102429989
 30
0.0
 10
120.2323756233582
 20
114.0250611262812
 30
0.0
 10
120.0328663190794
 20
113.5654252630523
 30
0.0
 10
119.775694041424
 20
113.1036709591528
 30
0.0
 10
119.4770975777466
 20
112.6258725240178
 30
0.0
 10
119.2433083152252
 20
112.316954986709
 30
0.0
 10
119.1225961538461
 20
112.157451923077
 30
0.0
  0
SPLINE
  5
71
330
1F
100
AcDbEntity
  8
0
  6
Continuous
 62
     7
370
    15
100
AcDbSpline
210
0.0
220
0.0
230
1.0
 70
     8
 71
     3
 72
    23
 73
    19
 74
     0
 42
0.00000001
 43
0.00000001
 12
1.0
 22
0.0
 32
0.0
 13
1.0
 23
0.0
 33
0.0
 40
0.0
 40
0.0
 40
0.0
 40
0.0
 40
0.0756723023817887
 40
0.1473813099735548
 40
0.2160846766840672
 40
0.2816980378616601
 40
0.3454598829002496
 40
0.4074856092774483
 40
0.4687312995608511
 40
0.5297823575334726
 40
0.5900329257114996
 40
0.6485481210783026
 40
0.7059535135830405
 40
0.7631016442005197
 40
0.8202894288974423
 40
0.87847926304405
 40
0.9382260550877858
 40
0.9999999999999999
 40
0.9999999999999999
 40
0.9999999999999999
 40
0.9999999999999999
 10
115.9735576923077
 20
120.0
 30
0.0
 10
116.1479655777576
 20
119.996647971053
 30
0.0
 10
116.4876468325666
 20
119.9901194738124
 30
0.0
 10
116.9835211618138
 20
119.936207091448
 30
0.0
 10
117.4493594659923
 20
119.8422030416352
 30
0.0
 10
117.8892344301876
 20
119.7176813729176
 30
0.0
 10
118.2986287733793
 20
119.5514358405143
 30
0.0
 10
118.6809539646809
 20
119.3504519045846
 30
0.0
 10
119.0301928748293
 20
119.1071018174179
 30
0.0
 10
119.3515513833055
 20
118.8346564952423
 30
0.0
 10
119.6388201772769
 20
118.5350549782661
 30
0.0
 10
119.8904416471963
 20
118.2154793084275
 30
0.0
 10
120.1012492860521
 20
117.8761521329448
 30
0.0
 10
120.2781492680459
 20
117.5212094739756
 30
0.0
 10
120.4094963115479
 20
117.1449397912475
 30
0.0
 10
120.5052014779752
 20
116.7525458628307
 30
0.0
 10
120.568657858193
 20
116.3421970871493
 30
0.0
 10
120.574137534204
 20
116.0619381815345
 30
0.0
 10
120.5769230769231
 20
115.9194711538462
 30
0.0
  0
SPLINE
  5
72
330
1F
100
AcDbEntity
  8
0
  6
Continuous
 62
     7
370
    15
100
AcDbSpline
210
0.0
220
0.0
230
1.0
 70
     8
 71
     3
 72
    23
 73
    19
 74
     0
 42
0.00000001
 43
0.00000001
 12
1.0
 22
0.0
 32
0.0
 13
1.0
 23
0.0
 33
0.0
 40
0.0
 40
0.0
 40
0.0
 40
0.0
 40
0.0794357226761146
 40
0.154013174283943
 40
0.2241414790393977
 40
0.2899341692032351
 40
0.3527323106719892
 40
0.4127257792496902
 40
0.4703027418920653
 40
0.5271687617359284
 40
0.5835022647141642
 40
0.6399482172133524
 40
0.6965849669119865
 40
0.7537269142919271
 40
0.8127070377388648
 40
0.8729634806368322
 40
0.9350348604089698
 40
0.9999999999999999
 40
0.9999999999999999
 40
0.9999999999999999
 40
0.9999999999999999
 10
111.1538461538462
 20
115.4747596153847
 30
0.0
 10
111.1770380147768
 20
115.6695075125199
 30
0.0
 10
111.2220033276002
 20
116.0470925688707
 30
0.0
 10
111.3342150196351
 20
116.5894348986787
 30
0.0
 10
111.4763269693574
 20
117.0897701794334
 30
0.0
 10
111.6551141323395
 20
117.5471698789056
 30
0.0
 10
111.8631870187326
 20
117.9645426155702
 30
0.0
 10
112.1111590765561
 20
118.3356254507907
 30
0.0
 10
112.390365899747
 20
118.6645289327442
 30
0.0
 10
112.7010487857635
 20
118.9510780126682
 30
0.0
 10
113.0412326223781
 20
119.1961842780893
 30
0.0
 10
113.3981945185032
 20
119.4149792312907
 30
0.0
 10
113.7789105076683
 20
119.5944606451398
 30
0.0
 10
114.1791888945569
 20
119.7423802964699
 30
0.0
 10
114.5988487853501
 20
119.8605964988055
 30
0.0
 10
115.0398311645211
 20
119.9387594490397
 30
0.0
 10
115.4994144527228
 20
119.993739568619
 30
0.0
 10
115.8131279235569
 20
119.9978817381018
 30
0.0
 10
115.9735576923077
 20
120.0
 30
0.0
  0
SPLINE
  5
74
330
1F
100
AcDbEntity
  8
0
  6
Continuous
 62
     7
370
    15
100
AcDbSpline
210
0.0
220
0.0
230
1.0
 70
     8
 71
     3
 72
    19
 73
    15
 74
     0
 42
0.00000001
 43
0.00000001
 12
1.0
 22
0.0
 32
0.0
 13
1.0
 23
0.0
 33
0.0
 40
0.0
 40
0.0
 40
0.0
 40
0.0
 40
0.1168990281982792
 40
0.2258236839530654
 40
0.3300860790235562
 40
0.4354514863452297
 40
0.4903067309632202
 40
0.5482440571677171
 40
0.6107668331470295
 40
0.6776750949389454
 40
0.749188602744901
 40
0.8268587199157832
 40
0.9101115940212843
 40
1.0
 40
1.0
 40
1.0
 40
1.0
 10
115.9134615384615
 20
117.5
 30
0.0
 10
115.7826279812013
 20
117.4940724268545
 30
0.0
 10
115.5298857955684
 20
117.4826216353016
 30
0.0
 10
115.1706843119856
 20
117.382589091569
 30
0.0
 10
114.8564493090818
 20
117.2094222350629
 30
0.0
 10
114.6325087334902
 20
117.012081897491
 30
0.0
 10
114.4812262525379
 20
116.8201827523183
 30
0.0
 10
114.3781476473998
 20
116.6529552883609
 30
0.0
 10
114.2893019371587
 20
116.4629336067484
 30
0.0
 10
114.2105772249094
 20
116.2522570338362
 30
0.0
 10
114.1483936025968
 20
116.0185120475544
 30
0.0
 10
114.0983147750589
 20
115.7634788517687
 30
0.0
 10
114.0579584850414
 20
115.4857850056337
 30
0.0
 10
114.0451244725043
 20
115.2926013446352
 30
0.0
 10
114.0384615384615
 20
115.1923076923077
 30
0.0
  0
SPLINE
  5
75
330
1F
100
AcDbEntity
  8
0
  6
Continuous
 62
     7
370
    15
100
AcDbSpline
210
0.0
220
0.0
230
1.0
 70
     8
 71
     3
 72
    15
 73
    11
 74
     0
 42
0.00000001
 43
0.00000001
 12
1.0
 22
0.0
 32
0.0
 13
1.0
 23
0.0
 33
0.0
 40
0.0
 40
0.0
 40
0.0
 40
0.0
 40
0.1491402908464722
 40
0.2821617981976277
 40
0.4046557030353593
 40
0.5211096910238603
 40
0.6344164539698224
 40
0.7487964497315229
 40
0.8687105535463917
 40
1.0
 40
1.0
 40
1.0
 40
1.0
 10
117.6923076923077
 20
115.5318509615385
 30
0.0
 10
117.6869051928136
 20
115.6815115550221
 30
0.0
 10
117.6766840851345
 20
115.9646577252286
 30
0.0
 10
117.5909783306049
 20
116.3642293292845
 30
0.0
 10
117.4389930830147
 20
116.7077177276801
 30
0.0
 10
117.2297373662502
 20
116.9961772644183
 30
0.0
 10
116.9651330931207
 20
117.2221842072174
 30
0.0
 10
116.6558030029843
 20
117.3891813996638
 30
0.0
 10
116.2972189994864
 20
117.4815090825153
 30
0.0
 10
116.0451850080732
 20
117.493653054195
 30
0.0
 10
115.9134615384615
 20
117.5
 30
0.0
  0
SPLINE
  5
76
330
1F
100
AcDbEntity
  8
0
  6
Continuous
 62
     7
370
    15
100
AcDbSpline
210
0.0
220
0.0
230
1.0
 70
     8
 71
     3
 72
    11
 73
     7
 74
     0
 42
0.00000001
 43
0.00000001
 12
1.0
 22
0.0
 32
0.0
 13
1.0
 23
0.0
 33
0.0
 40
0.0
 40
0.0
 40
0.0
 40
0.0
 40
0.2727955500866094
 40
0.5261910092278087
 40
0.7669044194616124
 40
1.0
 40
1.0
 40
1.0
 40
1.0
 10
117.1213942307692
 20
113.798076923077
 30
0.0
 10
117.2082434934768
 20
113.9423428264082
 30
0.0
 10
117.3757656586304
 20
114.2206150388653
 30
0.0
 10
117.5594676106661
 20
114.6582031253652
 30
0.0
 10
117.6697323697236
 20
115.0957008217023
 30
0.0
 10
117.6848636777445
 20
115.3880342793822
 30
0.0
 10
117.6923076923077
 20
115.5318509615385
 30
0.0
  0
SPLINE
  5
77
330
1F
100
AcDbEntity
  8
0
  6
Continuous
 62
     7
370
    15
100
AcDbSpline
210
0.0
220
0.0
230
1.0
 70
     8
 71
     3
 72
    15
 73
    11
 74
     0
 42
0.00000001
 43
0.00000001
 12
1.0
 22
0.0
 32
0.0
 13
1.0
 23
0.0
 33
0.0
 40
0.0
 40
0.0
 40
0.0
 40
0.0
 40
0.1850900618630598
 40
0.3523569643820082
 40
0.50307951175905
 40
0.6372794639743619
 40
0.7524732703005148
 40
0.8518857877882247
 40
0.9343394349213427
 40
1.0
 40
1.0
 40
1.0
 40
1.0
 10
114.8257211538461
 20
111.376201923077
 30
0.0
 10
114.974026598433
 20
111.5193572795401
 30
0.0
 10
115.2563564854617
 20
111.7918829156041
 30
0.0
 10
115.658394792272
 20
112.1821285807385
 30
0.0
 10
116.0118278919887
 20
112.5408752715844
 30
0.0
 10
116.3240455809193
 20
112.8588263223021
 30
0.0
 10
116.5878351885539
 20
113.1440775714665
 30
0.0
 10
116.80666662576
 20
113.3921491937136
 30
0.0
 10
116.9833113652954
 20
113.6040514123399
 30
0.0
 10
117.0789823097297
 20
113.7384823121685
 30
0.0
 10
117.1213942307692
 20
113.798076923077
 30
0.0
  0
SPLINE
  5
78
330
1F
100
AcDbEntity
  8
0
  6
Continuous
 62
     7
370
    15
100
AcDbSpline
210
0.0
220
0.0
230
1.0
 70
     8
 71
     3
 72
    19
 73
    15
 74
     0
 42
0.00000001
 43
0.00000001
 12
1.0
 22
0.0
 32
0.0
 13
1.0
 23
0.0
 33
0.0
 40
0.0
 40
0.0
 40
0.0
 40
0.0
 40
0.0963574538682384
 40
0.1926608788082152
 40
0.2894549334517493
 40
0.3884793011163924
 40
0.4419214173673359
 40
0.5015211030486822
 40
0.567882775817653
 40
0.640891650784354
 40
0.72037065881244
 40
0.8066369162819667
 40
0.9000159377788834
 40
1.0
 40
1.0
 40
1.0
 40
1.0
 10
110.7692307692308
 20
105.0
 30
0.0
 10
110.8024373430162
 20
105.2465322377044
 30
0.0
 10
110.8688318712118
 20
105.7394584791514
 30
0.0
 10
111.074100015339
 20
106.4594996488056
 30
0.0
 10
111.3480626759634
 20
107.1621368074237
 30
0.0
 10
111.645397106899
 20
107.7339129038749
 30
0.0
 10
111.9411291327244
 20
108.1941729863727
 30
0.0
 10
112.2094468162543
 20
108.5713136542214
 30
0.0
 10
112.5295399606167
 20
108.9725751370408
 30
0.0
 10
112.896763668562
 20
109.4011967270666
 30
0.0
 10
113.3090885107022
 20
109.8585182870885
 30
0.0
 10
113.769590696298
 20
110.3428395931074
 30
0.0
 10
114.2804668922491
 20
110.8518420633573
 30
0.0
 10
114.639877395785
 20
111.1974797859564
 30
0.0
 10
114.8257211538461
 20
111.376201923077
 30
0.0
  0
SPLINE
  5
7C
330
1F
100
AcDbEntity
  8
0
  6
Continuous
 62
     7
370
    15
100
AcDbSpline
210
0.0
220
0.0
230
1.0
 70
     8
 71
     3
 72
    25
 73
    21
 74
     0
 42
0.00000001
 43
0.00000001
 12
1.0
 22
0.0
 32
0.0
 13
1.0
 23
0.0
 33
0.0
 40
0.0
 40
0.0
 40
0.0
 40
0.0
 40
0.0369753139213746
 40
0.0791925522967066
 40
0.126700944054956
 40
0.1791840785794698
 40
0.2373686428140514
 40
0.3005585397445011
 40
0.3691531357212959
 40
0.4431123780003084
 40
0.5160183892506159
 40
0.582473178961277
 40
0.6421368079450552
 40
0.6946199424695707
 40
0.7406794327797188
 40
0.7795890342775182
 40
0.8120737912440682
 40
0.8378140957748635
 40
0.922564880965354
 40
1.0
 40
1.0
 40
1.0
 40
1.0
 10
119.1225961538461
 20
112.157451923077
 30
0.0
 10
119.0769722566364
 20
112.099988489523
 30
0.0
 10
118.9792564435009
 20
111.9769151337011
 30
0.0
 10
118.8130161676004
 20
111.7882011755964
 30
0.0
 10
118.6203579863328
 20
111.5820660434047
 30
0.0
 10
118.4040031115229
 20
111.3546513634648
 30
0.0
 10
118.1568049176665
 20
111.1140105113515
 30
0.0
 10
117.887657609704
 20
110.8500800740558
 30
0.0
 10
117.58471792227
 20
110.5763609693141
 30
0.0
 10
117.270945816024
 20
110.2860252369556
 30
0.0
 10
116.9558098419406
 20
110.0034455514147
 30
0.0
 10
116.6661544473112
 20
109.7350574974005
 30
0.0
 10
116.4030509681582
 20
109.497591713065
 30
0.0
 10
116.1787526263491
 20
109.2779389972913
 30
0.0
 10
115.9800662497869
 20
109.0910904911417
 30
0.0
 10
115.8141531540565
 20
108.9274648191535
 30
0.0
 10
115.6779087114918
 20
108.7910232254621
 30
0.0
 10
115.4901726380054
 20
108.5783453971337
 30
0.0
 10
115.251299789948
 20
108.2906985458339
 30
0.0
 10
115.0832429739647
 20
108.0158438448697
 30
0.0
 10
115.0030048076923
 20
107.8846153846154
 30
0.0
  0
SPLINE
  5
7D
330
1F
100
AcDbEntity
  8
0
  6
Continuous
 62
     7
370
    15
100
AcDbSpline
210
0.0
220
0.0
230
1.0
 70
     8
 71
     3
 72
    19
 73
    15
 74
     0
 42
0.00000001
 43
0.00000001
 12
1.0
 22
0.0
 32
0.0
 13
1.0
 23
0.0
 33
0.0
 40
0.0
 40
0.0
 40
0.0
 40
0.0
 40
0.1046725881823605
 40
0.217922411612757
 40
0.3405185375579564
 40
0.4735651107347253
 40
0.5421968301606596
 40
0.6097031823113819
 40
0.6755753979924268
 40
0.7416019791549904
 40
0.8061045072963652
 40
0.8709579598542413
 40
0.9351362548769782
 40
1.0
 40
1.0
 40
1.0
 40
1.0
 10
16.36363636363636
 20
116.2987012987013
 30
0.0
 10
16.53174845782549
 20
116.3734177772216
 30
0.0
 10
16.8817483348051
 20
116.5289732618916
 30
0.0
 10
17.3937800054893
 20
116.8412963042314
 30
0.0
 10
17.91091135170378
 20
117.2324151034002
 30
0.0
 10
18.3400028964423
 20
117.6078583622454
 30
0.0
 10
18.67467853069999
 20
117.9418908771393
 30
0.0
 10
18.91314681709497
 20
118.204982682334
 30
0.0
 10
19.12663741943771
 20
118.4828693619828
 30
0.0
 10
19.32448876343912
 20
118.7656315935976
 30
0.0
 10
19.49917855780653
 20
119.0613555825811
 30
0.0
 10
19.65340521998901
 20
119.3643641941362
 30
0.0
 10
19.7902576852905
 20
119.6766340139446
 30
0.0
 10
19.8616424009056
 20
119.8918303088694
 30
0.0
 10
19.89752435064934
 20
120.0
 30
0.0
  0
SPLINE
  5
7F
330
1F
100
AcDbEntity
  8
0
  6
Continuous
 62
     7
370
    15
100
AcDbSpline
210
0.0
220
0.0
230
1.0
 70
     8
 71
     3
 72
    15
 73
    11
 74
     0
 42
0.00000001
 43
0.00000001
 12
1.0
 22
0.0
 32
0.0
 13
1.0
 23
0.0
 33
0.0
 40
0.0
 40
0.0
 40
0.0
 40
0.0
 40
0.1291850431602388
 40
0.2562041821241478
 40
0.3820429862809609
 40
0.5053841222052814
 40
0.6299573653232361
 40
0.7528488117954789
 40
0.8762905154440008
 40
0.9999999999999999
 40
0.9999999999999999
 40
0.9999999999999999
 40
0.9999999999999999
 10
19.48051948051946
 20
115.9090909090909
 30
0.0
 10
19.36714335295464
 20
115.7901204588379
 30
0.0
 10
19.14229195123998
 20
115.554174205631
 30
0.0
 10
18.78456993634595
 20
115.2247844386537
 30
0.0
 10
18.41447603122898
 20
114.9211041789108
 30
0.0
 10
18.02956813496207
 20
114.6417566284381
 30
0.0
 10
17.63425050206158
 20
114.3840903943093
 30
0.0
 10
17.22352211392309
 20
114.1515126563846
 30
0.0
 10
16.80086572948441
 20
113.9435378164387
 30
0.0
 10
16.50948471978367
 20
113.8253777905847
 30
0.0
 10
16.36363636363636
 20
113.7662337662338
 30
0.0
  0
SPLINE
  5
84
330
1F
100
AcDbEntity
  8
0
  6
Continuous
 62
     7
370
    15
100
AcDbSpline
210
0.0
220
0.0
230
1.0
 70
     8
 71
     3
 72
    23
 73
    19
 74
     0
 42
0.00000001
 43
0.00000001
 12
1.0
 22
0.0
 32
0.0
 13
1.0
 23
0.0
 33
0.0
 40
0.0
 40
0.0
 40
0.0
 40
0.0
 40
0.0695355233855302
 40
0.1380491094433505
 40
0.2067556592868254
 40
0.2751841688940792
 40
0.3446084122002547
 40
0.4162313271679284
 40
0.4899227518536932
 40
0.5661907044333736
 40
0.6069271943486327
 40
0.6516091837135812
 40
0.6996604758182441
 40
0.7518555105046921
 40
0.8081376385094898
 40
0.868245380712919
 40
0.9321950013282013
 40
0.9999999999999999
 40
0.9999999999999999
 40
0.9999999999999999
 40
0.9999999999999999
 10
14.22077922077919
 20
115.8299512987013
 30
0.0
 10
14.21822150101043
 20
115.6765977736494
 30
0.0
 10
14.21314365131449
 20
115.3721445023907
 30
0.0
 10
14.16099406647683
 20
114.9187754829319
 30
0.0
 10
14.08397132780012
 20
114.4717244254355
 30
0.0
 10
13.96971541549891
 20
114.0303900908326
 30
0.0
 10
13.82197034421079
 20
113.5925274314373
 30
0.0
 10
13.64206093100062
 20
113.1543456351197
 30
0.0
 10
13.42888470930936
 20
112.7144065369829
 30
0.0
 10
13.21896570539341
 20
112.3498908709433
 30
0.0
 10
13.03087435711126
 20
112.0470569514597
 30
0.0
 10
12.86338479644594
 20
111.8049994523971
 30
0.0
 10
12.67250540505843
 20
111.5487864699524
 30
0.0
 10
12.46358775992357
 20
111.2741069688333
 30
0.0
 10
12.22844013003987
 20
110.986248245216
 30
0.0
 10
11.97279684908975
 20
110.6817846689033
 30
0.0
 10
11.6957640546011
 20
110.3621469266718
 30
0.0
 10
11.50193960825127
 20
110.1458234825777
 30
0.0
 10
11.40219155844152
 20
110.0344967532468
 30
0.0
  0
SPLINE
  5
85
330
1F
100
AcDbEntity
  8
0
  6
Continuous
 62
     7
370
    15
100
AcDbSpline
210
0.0
220
0.0
230
1.0
 70
     8
 71
     3
 72
    23
 73
    19
 74
     0
 42
0.00000001
 43
0.00000001
 12
1.0
 22
0.0
 32
0.0
 13
1.0
 23
0.0
 33
0.0
 40
0.0
 40
0.0
 40
0.0
 40
0.0
 40
0.0741126610358941
 40
0.1436507190320163
 40
0.2100516928803513
 40
0.2733649034018878
 40
0.3349952740509115
 40
0.3954468596327587
 40
0.4559474902146574
 40
0.517372535825687
 40
0.5790599188556802
 40
0.6394314938812995
 40
0.6987549640328697
 40
0.7576826860457231
 40
0.8173053891001104
 40
0.877150617166318
 40
0.9376149219385291
 40
1.0
 40
1.0
 40
1.0
 40
1.0
 10
10.23031655844153
 20
120.0
 30
0.0
 10
10.39088225752133
 20
119.9974141885514
 30
0.0
 10
10.70210273999081
 20
119.9924021748321
 30
0.0
 10
11.15294175380252
 20
119.9273611527228
 30
0.0
 10
11.57505681403445
 20
119.8346913891954
 30
0.0
 10
11.96429454569201
 20
119.6905461988462
 30
0.0
 10
12.32746011899477
 20
119.5171535977485
 30
0.0
 10
12.6540323137862
 20
119.292685006269
 30
0.0
 10
12.9574065341547
 20
119.0382766185616
 30
0.0
 10
13.21750937766791
 20
118.7362459243603
 30
0.0
 10
13.45427976791458
 20
118.4169980642097
 30
0.0
 10
13.65757411610616
 20
118.0805287821441
 30
0.0
 10
13.83359418550745
 20
117.7357699537741
 30
0.0
 10
13.97385755252503
 20
117.3765563288697
 30
0.0
 10
14.08305524980491
 20
117.0056776623793
 30
0.0
 10
14.16175001923536
 20
116.6239239184833
 30
0.0
 10
14.21329626517193
 20
116.231116420843
 30
0.0
 10
14.21825903761548
 20
115.965059622171
 30
0.0
 10
14.22077922077919
 20
115.8299512987013
 30
0.0
  0
SPLINE
  5
86
330
1F
100
AcDbEntity
  8
0
  6
Continuous
 62
     7
370
    15
100
AcDbSpline
210
0.0
220
0.0
230
1.0
 70
     8
 71
     3
 72
    23
 73
    19
 74
     0
 42
0.00000001
 43
0.00000001
 12
1.0
 22
0.0
 32
0.0
 13
1.0
 23
0.0
 33
0.0
 40
0.0
 40
0.0
 40
0.0
 40
0.0
 40
0.0785696204436296
 40
0.1524157624279547
 40
0.2221662873459987
 40
0.2878931881657482
 40
0.3501160166683492
 40
0.4098419974164507
 40
0.4674363432541007
 40
0.5238385366738978
 40
0.5795328812304132
 40
0.6350938630033676
 40
0.6915074927775959
 40
0.7489429418877878
 40
0.8077984992902626
 40
0.8692755760138993
 40
0.9331844849411529
 40
0.9999999999999999
 40
0.9999999999999999
 40
0.9999999999999999
 40
0.9999999999999999
 10
6.038961038961011
 20
115.9090909090909
 30
0.0
 10
6.058535757331562
 20
116.0799739709434
 30
0.0
 10
6.096508393675121
 20
116.4114668814502
 30
0.0
 10
6.1970579882277
 20
116.8876103829682
 30
0.0
 10
6.316137705317443
 20
117.3301893141376
 30
0.0
 10
6.465240087502849
 20
117.7369132314307
 30
0.0
 10
6.642057162458248
 20
118.1083126508736
 30
0.0
 10
6.847188013116234
 20
118.4439781767904
 30
0.0
 10
7.074718186754342
 20
118.7495579899909
 30
0.0
 10
7.336130591286016
 20
119.0147273991654
 30
0.0
 10
7.620993915465474
 20
119.2467158327527
 30
0.0
 10
7.927385552855909
 20
119.4497675293
 30
0.0
 10
8.257561246798245
 20
119.6195570447314
 30
0.0
 10
8.608641112577974
 20
119.7611425630517
 30
0.0
 10
8.983802634806331
 20
119.8659658887054
 30
0.0
 10
9.379229272089118
 20
119.9462129517569
 30
0.0
 10
9.79805273840756
 20
119.9914745388649
 30
0.0
 10
10.08410850595093
 20
119.9971163650267
 30
0.0
 10
10.23031655844153
 20
120.0
 30
0.0
  0
SPLINE
  5
88
330
1F
100
AcDbEntity
  8
0
  6
Continuous
 62
     7
370
    15
100
AcDbSpline
210
0.0
220
0.0
230
1.0
 70
     8
 71
     3
 72
    15
 73
    11
 74
     0
 42
0.00000001
 43
0.00000001
 12
1.0
 22
0.0
 32
0.0
 13
1.0
 23
0.0
 33
0.0
 40
0.0
 40
0.0
 40
0.0
 40
0.0
 40
0.1249901170823663
 40
0.2395654643902152
 40
0.3480573452428446
 40
0.4559505208701873
 40
0.5713566491068764
 40
0.6977519226627745
 40
0.8396543720940509
 40
1.0
 40
1.0
 40
1.0
 40
1.0
 10
10.1785714285714
 20
117.6623376623377
 30
0.0
 10
10.04695553881821
 20
117.6565862891126
 30
0.0
 10
9.794690619912034
 20
117.6455627743761
 30
0.0
 10
9.439889772961173
 20
117.5429328096182
 30
0.0
 10
9.131940882975059
 20
117.3737537002752
 30
0.0
 10
8.879586082899294
 20
117.1282149398758
 30
0.0
 10
8.672472074176845
 20
116.8214555557954
 30
0.0
 10
8.522939980071198
 20
116.4443792226168
 30
0.0
 10
8.42041758644746
 20
116.0041493250367
 30
0.0
 10
8.3918034579632
 20
115.6874778853601
 30
0.0
 10
8.376623376623343
 20
115.5194805194806
 30
0.0
  0
SPLINE
  5
89
330
1F
100
AcDbEntity
  8
0
  6
Continuous
 62
     7
370
    15
100
AcDbSpline
210
0.0
220
0.0
230
1.0
 70
     8
 71
     3
 72
    15
 73
    11
 74
     0
 42
0.00000001
 43
0.00000001
 12
1.0
 22
0.0
 32
0.0
 13
1.0
 23
0.0
 33
0.0
 40
0.0
 40
0.0
 40
0.0
 40
0.0
 40
0.1557263484003219
 40
0.2947999542160775
 40
0.4192464906763314
 40
0.536972255290281
 40
0.6500409756076685
 40
0.7614872025353343
 40
0.8771118895206295
 40
1.0
 40
1.0
 40
1.0
 40
1.0
 10
11.88311688311686
 20
115.6808035714286
 30
0.0
 10
11.87773020633282
 20
115.8344848482535
 30
0.0
 10
11.8675328820802
 20
116.1254133509588
 30
0.0
 10
11.78026150573178
 20
116.5318899257093
 30
0.0
 10
11.63436504194904
 20
116.8814541852263
 30
0.0
 10
11.42348616835381
 20
117.165271150879
 30
0.0
 10
11.16676008532466
 20
117.3880565781907
 30
0.0
 10
10.87064528690915
 20
117.5506285126617
 30
0.0
 10
10.53551566459771
 20
117.6469341000799
 30
0.0
 10
10.29994412506327
 20
117.6570999481568
 30
0.0
 10
10.1785714285714
 20
117.6623376623377
 30
0.0
  0
SPLINE
  5
8A
330
1F
100
AcDbEntity
  8
0
  6
Continuous
 62
     7
370
    15
100
AcDbSpline
210
0.0
220
0.0
230
1.0
 70
     8
 71
     3
 72
    11
 73
     7
 74
     0
 42
0.00000001
 43
0.00000001
 12
1.0
 22
0.0
 32
0.0
 13
1.0
 23
0.0
 33
0.0
 40
0.0
 40
0.0
 40
0.0
 40
0.0
 40
0.2650720260088943
 40
0.5174264585638215
 40
0.761377132603556
 40
1.0
 40
1.0
 40
1.0
 40
1.0
 10
11.33827110389607
 20
113.8514610389611
 30
0.0
 10
11.42156859234339
 20
114.0006776226636
 30
0.0
 10
11.58416713245905
 20
114.2919516949477
 30
0.0
 10
11.75348781319405
 20
114.7535270789191
 30
0.0
 10
11.86416273320856
 20
115.2159346202244
 30
0.0
 10
11.87684550746276
 20
115.5269919873145
 30
0.0
 10
11.88311688311686
 20
115.6808035714286
 30
0.0
  0
SPLINE
  5
8B
330
1F
100
AcDbEntity
  8
0
  6
Continuous
 62
     7
370
    15
100
AcDbSpline
210
0.0
220
0.0
230
1.0
 70
     8
 71
     3
 72
    15
 73
    11
 74
     0
 42
0.00000001
 43
0.00000001
 12
1.0
 22
0.0
 32
0.0
 13
1.0
 23
0.0
 33
0.0
 40
0.0
 40
0.0
 40
0.0
 40
0.0
 40
0.1832338588759574
 40
0.3505427301142029
 40
0.5011988372408085
 40
0.6339500770024658
 40
0.7500925720805977
 40
0.8504341224739819
 40
0.9336827195019096
 40
1.0
 40
1.0
 40
1.0
 40
1.0
 10
9.38108766233764
 20
111.4590097402598
 30
0.0
 10
9.507255946658411
 20
111.5997265255706
 30
0.0
 10
9.748627138156191
 20
111.8689302982703
 30
0.0
 10
10.08813668207562
 20
112.2587626381759
 30
0.0
 10
10.39352450056422
 20
112.6093168507046
 30
0.0
 10
10.65505828154817
 20
112.9278297921186
 30
0.0
 10
10.88195362315661
 20
113.2076415679199
 30
0.0
 10
11.06999413561549
 20
113.4530176511075
 30
0.0
 10
11.2214350133564
 20
113.6618309062513
 30
0.0
 10
11.30238015316357
 20
113.7932084415056
 30
0.0
 10
11.33827110389607
 20
113.8514610389611
 30
0.0
  0
SPLINE
  5
8C
330
1F
100
AcDbEntity
  8
0
  6
Continuous
 62
     7
370
    15
100
AcDbSpline
210
0.0
220
0.0
230
1.0
 70
     8
 71
     3
 72
    19
 73
    15
 74
     0
 42
0.00000001
 43
0.00000001
 12
1.0
 22
0.0
 32
0.0
 13
1.0
 23
0.0
 33
0.0
 40
0.0
 40
0.0
 40
0.0
 40
0.0
 40
0.1002236266426697
 40
0.2001749505460105
 40
0.2998639334848803
 40
0.4008683731365172
 40
0.4545499337922368
 40
0.5143828091139069
 40
0.5800153043773639
 40
0.6515740227081507
 40
0.7295439188579108
 40
0.8133326772065813
 40
0.9035606845620291
 40
0.9999999999999999
 40
0.9999999999999999
 40
0.9999999999999999
 40
0.9999999999999999
 10
5.844155844155818
 20
105.0
 30
0.0
 10
5.873628617078297
 20
105.2494218285452
 30
0.0
 10
5.932494086826695
 20
105.7475878186079
 30
0.0
 10
6.110741530869768
 20
106.4787452292836
 30
0.0
 10
6.351016395301862
 20
107.1930210379871
 30
0.0
 10
6.614118286269649
 20
107.7746372161659
 30
0.0
 10
6.875213987143026
 20
108.2442480789015
 30
0.0
 10
7.108781785374108
 20
108.6274123377106
 30
0.0
 10
7.386935714645465
 20
109.0351383777928
 30
0.0
 10
7.709343389479873
 20
109.4668737515226
 30
0.0
 10
8.066835170941284
 20
109.929016136254
 30
0.0
 10
8.467317575688998
 20
110.416718467542
 30
0.0
 10
8.90870489607351
 20
110.9304102280659
 30
0.0
 10
9.220172076296274
 20
111.2789441105194
 30
0.0
 10
9.38108766233764
 20
111.4590097402598
 30
0.0
  0
SPLINE
  5
90
330
1F
100
AcDbEntity
  8
0
  6
Continuous
 62
     7
370
    15
100
AcDbSpline
210
0.0
220
0.0
230
1.0
 70
     8
 71
     3
 72
    17
 73
    13
 74
     0
 42
0.00000001
 43
0.00000001
 12
1.0
 22
0.0
 32
0.0
 13
1.0
 23
0.0
 33
0.0
 40
0.0
 40
0.0
 40
0.0
 40
0.0
 40
0.1297038254702771
 40
0.247282509889646
 40
0.3534584971290395
 40
0.4474279189341963
 40
0.5292832013463612
 40
0.5990344773959794
 40
0.6574432517947064
 40
0.7036342243043844
 40
0.8573839243483374
 40
1.0
 40
1.0
 40
1.0
 40
1.0
 10
11.40219155844152
 20
110.0344967532468
 30
0.0
 10
11.30982776218092
 20
109.9320539151075
 30
0.0
 10
11.13373464172404
 20
109.7367449329441
 30
0.0
 10
10.88256605621874
 20
109.4570644886885
 30
0.0
 10
10.66268103585294
 20
109.200493698495
 30
0.0
 10
10.46339223325271
 20
108.9763700301207
 30
0.0
 10
10.29340856441344
 20
108.7781140527044
 30
0.0
 10
10.14839650453125
 20
108.6081893394655
 30
0.0
 10
10.03481079860774
 20
108.461592964563
 30
0.0
 10
9.86276877744266
 20
108.2474149870851
 30
0.0
 10
9.65615320496857
 20
107.945937541428
 30
0.0
 10
9.50949485818714
 20
107.6667953410014
 30
0.0
 10
9.438920454545418
 20
107.5324675324676
 30
0.0
  0
SPLINE
  5
91
330
1F
100
AcDbEntity
  8
0
  6
Continuous
 62
     7
370
    15
100
AcDbSpline
210
0.0
220
0.0
230
1.0
 70
     8
 71
     3
 72
    15
 73
    11
 74
     0
 42
0.00000001
 43
0.00000001
 12
1.0
 22
0.0
 32
0.0
 13
1.0
 23
0.0
 33
0.0
 40
0.0
 40
0.0
 40
0.0
 40
0.0
 40
0.1191762436674486
 40
0.2364273787594535
 40
0.3526638478564068
 40
0.4690860844274195
 40
0.5894629077907688
 40
0.7176014692905142
 40
0.8541894668533134
 40
1.0
 40
1.0
 40
1.0
 40
1.0
 10
109.0384615384615
 20
115.9194711538462
 30
0.0
 10
109.0347916229063
 20
115.7559642697304
 30
0.0
 10
109.0275110736265
 20
115.4315917032608
 30
0.0
 10
108.9578052158518
 20
114.9520721431563
 30
0.0
 10
108.8513082357063
 20
114.4836102429989
 30
0.0
 10
108.6939140848966
 20
114.0250611262812
 30
0.0
 10
108.4944047806179
 20
113.5654252630523
 30
0.0
 10
108.2372325029625
 20
113.1036709591528
 30
0.0
 10
107.9386360392851
 20
112.6258725240178
 30
0.0
 10
107.7048467767637
 20
112.316954986709
 30
0.0
 10
107.5841346153846
 20
112.157451923077
 30
0.0
  0
SPLINE
  5
92
330
1F
100
AcDbEntity
  8
0
  6
Continuous
 62
     7
370
    15
100
AcDbSpline
210
0.0
220
0.0
230
1.0
 70
     8
 71
     3
 72
    23
 73
    19
 74
     0
 42
0.00000001
 43
0.00000001
 12
1.0
 22
0.0
 32
0.0
 13
1.0
 23
0.0
 33
0.0
 40
0.0
 40
0.0
 40
0.0
 40
0.0
 40
0.0756723023817887
 40
0.1473813099735548
 40
0.2160846766840672
 40
0.2816980378616601
 40
0.3454598829002496
 40
0.4074856092774483
 40
0.4687312995608511
 40
0.5297823575334726
 40
0.5900329257114996
 40
0.6485481210783026
 40
0.7059535135830405
 40
0.7631016442005197
 40
0.8202894288974423
 40
0.87847926304405
 40
0.9382260550877858
 40
0.9999999999999999
 40
0.9999999999999999
 40
0.9999999999999999
 40
0.9999999999999999
 10
104.4350961538462
 20
120.0
 30
0.0
 10
104.6095040392961
 20
119.996647971053
 30
0.0
 10
104.9491852941051
 20
119.9901194738124
 30
0.0
 10
105.4450596233523
 20
119.936207091448
 30
0.0
 10
105.9108979275307
 20
119.8422030416352
 30
0.0
 10
106.3507728917261
 20
119.7176813729176
 30
0.0
 10
106.7601672349178
 20
119.5514358405143
 30
0.0
 10
107.1424924262194
 20
119.3504519045846
 30
0.0
 10
107.4917313363678
 20
119.1071018174179
 30
0.0
 10
107.813089844844
 20
118.8346564952423
 30
0.0
 10
108.1003586388153
 20
118.5350549782661
 30
0.0
 10
108.3519801087348
 20
118.2154793084275
 30
0.0
 10
108.5627877475905
 20
117.8761521329448
 30
0.0
 10
108.7396877295844
 20
117.5212094739756
 30
0.0
 10
108.8710347730864
 20
117.1449397912475
 30
0.0
 10
108.9667399395137
 20
116.7525458628307
 30
0.0
 10
109.0301963197315
 20
116.3421970871493
 30
0.0
 10
109.0356759957425
 20
116.0619381815345
 30
0.0
 10
109.0384615384616
 20
115.9194711538462
 30
0.0
  0
SPLINE
  5
93
330
1F
100
AcDbEntity
  8
0
  6
Continuous
 62
     7
370
    15
100
AcDbSpline
210
0.0
220
0.0
230
1.0
 70
     8
 71
     3
 72
    23
 73
    19
 74
     0
 42
0.00000001
 43
0.00000001
 12
1.0
 22
0.0
 32
0.0
 13
1.0
 23
0.0
 33
0.0
 40
0.0
 40
0.0
 40
0.0
 40
0.0
 40
0.0794357226761146
 40
0.154013174283943
 40
0.2241414790393977
 40
0.2899341692032351
 40
0.3527323106719892
 40
0.4127257792496902
 40
0.4703027418920653
 40
0.5271687617359284
 40
0.5835022647141642
 40
0.6399482172133524
 40
0.6965849669119865
 40
0.7537269142919271
 40
0.8127070377388648
 40
0.8729634806368322
 40
0.9350348604089698
 40
0.9999999999999999
 40
0.9999999999999999
 40
0.9999999999999999
 40
0.9999999999999999
 10
99.6153846153846
 20
115.4747596153847
 30
0.0
 10
99.6385764763153
 20
115.6695075125199
 30
0.0
 10
99.68354178913872
 20
116.0470925688707
 30
0.0
 10
99.79575348117359
 20
116.5894348986787
 30
0.0
 10
99.93786543089585
 20
117.0897701794334
 30
0.0
 10
100.116652593878
 20
117.5471698789056
 30
0.0
 10
100.3247254802711
 20
117.9645426155702
 30
0.0
 10
100.5726975380946
 20
118.3356254507907
 30
0.0
 10
100.8519043612854
 20
118.6645289327442
 30
0.0
 10
101.162587247302
 20
118.9510780126682
 30
0.0
 10
101.5027710839166
 20
119.1961842780893
 30
0.0
 10
101.8597329800417
 20
119.4149792312907
 30
0.0
 10
102.2404489692068
 20
119.5944606451398
 30
0.0
 10
102.6407273560954
 20
119.7423802964699
 30
0.0
 10
103.0603872468885
 20
119.8605964988055
 30
0.0
 10
103.5013696260595
 20
119.9387594490397
 30
0.0
 10
103.9609529142612
 20
119.993739568619
 30
0.0
 10
104.2746663850954
 20
119.9978817381018
 30
0.0
 10
104.4350961538462
 20
120.0
 30
0.0
  0
SPLINE
  5
95
330
1F
100
AcDbEntity
  8
0
  6
Continuous
 62
     7
370
    15
100
AcDbSpline
210
0.0
220
0.0
230
1.0
 70
     8
 71
     3
 72
    19
 73
    15
 74
     0
 42
0.00000001
 43
0.00000001
 12
1.0
 22
0.0
 32
0.0
 13
1.0
 23
0.0
 33
0.0
 40
0.0
 40
0.0
 40
0.0
 40
0.0
 40
0.1168990281982792
 40
0.2258236839530654
 40
0.3300860790235562
 40
0.4354514863452297
 40
0.4903067309632202
 40
0.5482440571677171
 40
0.6107668331470295
 40
0.6776750949389454
 40
0.749188602744901
 40
0.8268587199157832
 40
0.9101115940212843
 40
1.0
 40
1.0
 40
1.0
 40
1.0
 10
104.375
 20
117.5
 30
0.0
 10
104.2441664427398
 20
117.4940724268545
 30
0.0
 10
103.9914242571069
 20
117.4826216353016
 30
0.0
 10
103.6322227735241
 20
117.382589091569
 30
0.0
 10
103.3179877706203
 20
117.2094222350629
 30
0.0
 10
103.0940471950287
 20
117.012081897491
 30
0.0
 10
102.9427647140764
 20
116.8201827523183
 30
0.0
 10
102.8396861089383
 20
116.6529552883609
 30
0.0
 10
102.7508403986972
 20
116.4629336067484
 30
0.0
 10
102.6721156864479
 20
116.2522570338362
 30
0.0
 10
102.6099320641352
 20
116.0185120475544
 30
0.0
 10
102.5598532365974
 20
115.7634788517687
 30
0.0
 10
102.5194969465799
 20
115.4857850056337
 30
0.0
 10
102.5066629340427
 20
115.2926013446352
 30
0.0
 10
102.5
 20
115.1923076923077
 30
0.0
  0
SPLINE
  5
96
330
1F
100
AcDbEntity
  8
0
  6
Continuous
 62
     7
370
    15
100
AcDbSpline
210
0.0
220
0.0
230
1.0
 70
     8
 71
     3
 72
    15
 73
    11
 74
     0
 42
0.00000001
 43
0.00000001
 12
1.0
 22
0.0
 32
0.0
 13
1.0
 23
0.0
 33
0.0
 40
0.0
 40
0.0
 40
0.0
 40
0.0
 40
0.1491402908464722
 40
0.2821617981976277
 40
0.4046557030353593
 40
0.5211096910238603
 40
0.6344164539698224
 40
0.7487964497315229
 40
0.8687105535463917
 40
1.0
 40
1.0
 40
1.0
 40
1.0
 10
106.1538461538462
 20
115.5318509615385
 30
0.0
 10
106.148443654352
 20
115.6815115550221
 30
0.0
 10
106.138222546673
 20
115.9646577252286
 30
0.0
 10
106.0525167921434
 20
116.3642293292845
 30
0.0
 10
105.9005315445532
 20
116.7077177276801
 30
0.0
 10
105.6912758277887
 20
116.9961772644183
 30
0.0
 10
105.4266715546591
 20
117.2221842072174
 30
0.0
 10
105.1173414645227
 20
117.3891813996638
 30
0.0
 10
104.7587574610249
 20
117.4815090825153
 30
0.0
 10
104.5067234696117
 20
117.493653054195
 30
0.0
 10
104.375
 20
117.5
 30
0.0
  0
SPLINE
  5
97
330
1F
100
AcDbEntity
  8
0
  6
Continuous
 62
     7
370
    15
100
AcDbSpline
210
0.0
220
0.0
230
1.0
 70
     8
 71
     3
 72
    11
 73
     7
 74
     0
 42
0.00000001
 43
0.00000001
 12
1.0
 22
0.0
 32
0.0
 13
1.0
 23
0.0
 33
0.0
 40
0.0
 40
0.0
 40
0.0
 40
0.0
 40
0.2727955500866094
 40
0.5261910092278087
 40
0.7669044194616124
 40
1.0
 40
1.0
 40
1.0
 40
1.0
 10
105.5829326923077
 20
113.798076923077
 30
0.0
 10
105.6697819550153
 20
113.9423428264082
 30
0.0
 10
105.8373041201689
 20
114.2206150388653
 30
0.0
 10
106.0210060722046
 20
114.6582031253652
 30
0.0
 10
106.1312708312621
 20
115.0957008217023
 30
0.0
 10
106.146402139283
 20
115.3880342793822
 30
0.0
 10
106.1538461538462
 20
115.5318509615385
 30
0.0
  0
SPLINE
  5
98
330
1F
100
AcDbEntity
  8
0
  6
Continuous
 62
     7
370
    15
100
AcDbSpline
210
0.0
220
0.0
230
1.0
 70
     8
 71
     3
 72
    15
 73
    11
 74
     0
 42
0.00000001
 43
0.00000001
 12
1.0
 22
0.0
 32
0.0
 13
1.0
 23
0.0
 33
0.0
 40
0.0
 40
0.0
 40
0.0
 40
0.0
 40
0.1850900618630598
 40
0.3523569643820082
 40
0.50307951175905
 40
0.6372794639743619
 40
0.7524732703005148
 40
0.8518857877882247
 40
0.9343394349213427
 40
1.0
 40
1.0
 40
1.0
 40
1.0
 10
103.2872596153846
 20
111.376201923077
 30
0.0
 10
103.4355650599715
 20
111.5193572795401
 30
0.0
 10
103.7178949470002
 20
111.7918829156041
 30
0.0
 10
104.1199332538105
 20
112.1821285807385
 30
0.0
 10
104.4733663535271
 20
112.5408752715844
 30
0.0
 10
104.7855840424578
 20
112.8588263223021
 30
0.0
 10
105.0493736500924
 20
113.1440775714665
 30
0.0
 10
105.2682050872985
 20
113.3921491937136
 30
0.0
 10
105.4448498268339
 20
113.6040514123399
 30
0.0
 10
105.5405207712681
 20
113.7384823121685
 30
0.0
 10
105.5829326923077
 20
113.798076923077
 30
0.0
  0
SPLINE
  5
99
330
1F
100
AcDbEntity
  8
0
  6
Continuous
 62
     7
370
    15
100
AcDbSpline
210
0.0
220
0.0
230
1.0
 70
     8
 71
     3
 72
    19
 73
    15
 74
     0
 42
0.00000001
 43
0.00000001
 12
1.0
 22
0.0
 32
0.0
 13
1.0
 23
0.0
 33
0.0
 40
0.0
 40
0.0
 40
0.0
 40
0.0
 40
0.0963574538682384
 40
0.1926608788082152
 40
0.2894549334517493
 40
0.3884793011163924
 40
0.4419214173673359
 40
0.5015211030486822
 40
0.567882775817653
 40
0.640891650784354
 40
0.72037065881244
 40
0.8066369162819667
 40
0.9000159377788834
 40
1.0
 40
1.0
 40
1.0
 40
1.0
 10
99.23076923076923
 20
105.0
 30
0.0
 10
99.26397580455465
 20
105.2465322377044
 30
0.0
 10
99.33037033275025
 20
105.7394584791514
 30
0.0
 10
99.53563847687744
 20
106.4594996488056
 30
0.0
 10
99.80960113750187
 20
107.1621368074237
 30
0.0
 10
100.1069355684375
 20
107.7339129038749
 30
0.0
 10
100.4026675942629
 20
108.1941729863727
 30
0.0
 10
100.6709852777927
 20
108.5713136542214
 30
0.0
 10
100.9910784221551
 20
108.9725751370408
 30
0.0
 10
101.3583021301005
 20
109.4011967270666
 30
0.0
 10
101.7706269722407
 20
109.8585182870885
 30
0.0
 10
102.2311291578364
 20
110.3428395931074
 30
0.0
 10
102.7420053537876
 20
110.8518420633573
 30
0.0
 10
103.1014158573235
 20
111.1974797859564
 30
0.0
 10
103.2872596153846
 20
111.376201923077
 30
0.0
  0
SPLINE
  5
9D
330
1F
100
AcDbEntity
  8
0
  6
Continuous
 62
     7
370
    15
100
AcDbSpline
210
0.0
220
0.0
230
1.0
 70
     8
 71
     3
 72
    25
 73
    21
 74
     0
 42
0.00000001
 43
0.00000001
 12
1.0
 22
0.0
 32
0.0
 13
1.0
 23
0.0
 33
0.0
 40
0.0
 40
0.0
 40
0.0
 40
0.0
 40
0.0369753139213746
 40
0.0791925522967066
 40
0.126700944054956
 40
0.1791840785794698
 40
0.2373686428140514
 40
0.3005585397445011
 40
0.3691531357212959
 40
0.4431123780003084
 40
0.5160183892506159
 40
0.582473178961277
 40
0.6421368079450552
 40
0.6946199424695707
 40
0.7406794327797188
 40
0.7795890342775182
 40
0.8120737912440682
 40
0.8378140957748635
 40
0.922564880965354
 40
1.0
 40
1.0
 40
1.0
 40
1.0
 10
107.5841346153846
 20
112.157451923077
 30
0.0
 10
107.5385107181748
 20
112.099988489523
 30
0.0
 10
107.4407949050393
 20
111.9769151337011
 30
0.0
 10
107.2745546291389
 20
111.7882011755964
 30
0.0
 10
107.0818964478712
 20
111.5820660434047
 30
0.0
 10
106.8655415730614
 20
111.3546513634648
 30
0.0
 10
106.6183433792049
 20
111.1140105113515
 30
0.0
 10
106.3491960712425
 20
110.8500800740558
 30
0.0
 10
106.0462563838085
 20
110.5763609693141
 30
0.0
 10
105.7324842775624
 20
110.2860252369556
 30
0.0
 10
105.4173483034791
 20
110.0034455514147
 30
0.0
 10
105.1276929088497
 20
109.7350574974005
 30
0.0
 10
104.8645894296967
 20
109.497591713065
 30
0.0
 10
104.6402910878876
 20
109.2779389972913
 30
0.0
 10
104.4416047113254
 20
109.0910904911417
 30
0.0
 10
104.275691615595
 20
108.9274648191535
 30
0.0
 10
104.1394471730302
 20
108.7910232254621
 30
0.0
 10
103.9517110995439
 20
108.5783453971337
 30
0.0
 10
103.7128382514865
 20
108.2906985458339
 30
0.0
 10
103.5447814355032
 20
108.0158438448697
 30
0.0
 10
103.4645432692308
 20
107.8846153846154
 30
0.0
  0
SPLINE
  5
9E
330
1F
100
AcDbEntity
  8
0
  6
Continuous
 62
     7
370
    15
100
AcDbSpline
210
0.0
220
0.0
230
1.0
 70
     8
 71
     3
 72
    15
 73
    11
 74
     0
 42
0.00000001
 43
0.00000001
 12
1.0
 22
0.0
 32
0.0
 13
1.0
 23
0.0
 33
0.0
 40
0.0
 40
0.0
 40
0.0
 40
0.0
 40
0.1191762436674516
 40
0.236427378759453
 40
0.352663847856406
 40
0.4690860844274185
 40
0.589462907790772
 40
0.7176014692905109
 40
0.8541894668533118
 40
1.0
 40
1.0
 40
1.0
 40
1.0
 10
204.0384615384615
 20
115.9194711538462
 30
0.0
 10
204.0347916229063
 20
115.7559642697304
 30
0.0
 10
204.0275110736264
 20
115.4315917032608
 30
0.0
 10
203.957805215852
 20
114.9520721431564
 30
0.0
 10
203.8513082357063
 20
114.4836102429989
 30
0.0
 10
203.6939140848967
 20
114.0250611262812
 30
0.0
 10
203.4944047806179
 20
113.5654252630523
 30
0.0
 10
203.2372325029625
 20
113.1036709591527
 30
0.0
 10
202.9386360392852
 20
112.6258725240179
 30
0.0
 10
202.7048467767637
 20
112.316954986709
 30
0.0
 10
202.5841346153846
 20
112.157451923077
 30
0.0
  0
SPLINE
  5
9F
330
1F
100
AcDbEntity
  8
0
  6
Continuous
 62
     7
370
    15
100
AcDbSpline
210
0.0
220
0.0
230
1.0
 70
     8
 71
     3
 72
    23
 73
    19
 74
     0
 42
0.00000001
 43
0.00000001
 12
1.0
 22
0.0
 32
0.0
 13
1.0
 23
0.0
 33
0.0
 40
0.0
 40
0.0
 40
0.0
 40
0.0
 40
0.0756723023817869
 40
0.1473813099735531
 40
0.2160846766840658
 40
0.2816980378616608
 40
0.3454598829002467
 40
0.407485609277449
 40
0.4687312995608504
 40
0.5297823575334735
 40
0.5900329257114979
 40
0.6485481210783024
 40
0.7059535135830394
 40
0.7631016442005188
 40
0.8202894288974422
 40
0.87847926304405
 40
0.9382260550877837
 40
1.0
 40
1.0
 40
1.0
 40
1.0
 10
199.4350961538462
 20
120.0000000000001
 30
0.0
 10
199.6095040392962
 20
119.996647971053
 30
0.0
 10
199.9491852941051
 20
119.9901194738124
 30
0.0
 10
200.4450596233524
 20
119.936207091448
 30
0.0
 10
200.9108979275307
 20
119.8422030416351
 30
0.0
 10
201.3507728917261
 20
119.7176813729176
 30
0.0
 10
201.7601672349178
 20
119.5514358405143
 30
0.0
 10
202.1424924262194
 20
119.3504519045846
 30
0.0
 10
202.4917313363678
 20
119.1071018174179
 30
0.0
 10
202.813089844844
 20
118.8346564952423
 30
0.0
 10
203.1003586388153
 20
118.5350549782661
 30
0.0
 10
203.3519801087348
 20
118.2154793084276
 30
0.0
 10
203.5627877475906
 20
117.8761521329448
 30
0.0
 10
203.7396877295844
 20
117.5212094739756
 30
0.0
 10
203.8710347730865
 20
117.1449397912475
 30
0.0
 10
203.9667399395137
 20
116.7525458628307
 30
0.0
 10
204.0301963197315
 20
116.3421970871493
 30
0.0
 10
204.0356759957425
 20
116.0619381815345
 30
0.0
 10
204.0384615384615
 20
115.9194711538462
 30
0.0
  0
SPLINE
  5
A0
330
1F
100
AcDbEntity
  8
0
  6
Continuous
 62
     7
370
    15
100
AcDbSpline
210
0.0
220
0.0
230
1.0
 70
     8
 71
     3
 72
    23
 73
    19
 74
     0
 42
0.00000001
 43
0.00000001
 12
1.0
 22
0.0
 32
0.0
 13
1.0
 23
0.0
 33
0.0
 40
0.0
 40
0.0
 40
0.0
 40
0.0
 40
0.0794357226761147
 40
0.1540131742839426
 40
0.2241414790393976
 40
0.2899341692032349
 40
0.352732310671988
 40
0.4127257792496898
 40
0.4703027418920648
 40
0.5271687617359279
 40
0.5835022647141651
 40
0.6399482172133532
 40
0.696584966911987
 40
0.7537269142919258
 40
0.8127070377388615
 40
0.8729634806368307
 40
0.93503486040897
 40
1.0
 40
1.0
 40
1.0
 40
1.0
 10
194.6153846153846
 20
115.4747596153847
 30
0.0
 10
194.6385764763154
 20
115.6695075125199
 30
0.0
 10
194.6835417891388
 20
116.0470925688708
 30
0.0
 10
194.7957534811735
 20
116.5894348986786
 30
0.0
 10
194.937865430896
 20
117.0897701794334
 30
0.0
 10
195.1166525938779
 20
117.5471698789056
 30
0.0
 10
195.3247254802711
 20
117.9645426155702
 30
0.0
 10
195.5726975380946
 20
118.3356254507907
 30
0.0
 10
195.8519043612854
 20
118.6645289327442
 30
0.0
 10
196.1625872473021
 20
118.9510780126682
 30
0.0
 10
196.5027710839166
 20
119.1961842780892
 30
0.0
 10
196.8597329800419
 20
119.4149792312908
 30
0.0
 10
197.2404489692068
 20
119.5944606451398
 30
0.0
 10
197.6407273560954
 20
119.7423802964699
 30
0.0
 10
198.0603872468886
 20
119.8605964988054
 30
0.0
 10
198.5013696260596
 20
119.9387594490398
 30
0.0
 10
198.9609529142613
 20
119.993739568619
 30
0.0
 10
199.2746663850954
 20
119.9978817381017
 30
0.0
 10
199.4350961538462
 20
120.0000000000001
 30
0.0
  0
SPLINE
  5
A2
330
1F
100
AcDbEntity
  8
0
  6
Continuous
 62
     7
370
    15
100
AcDbSpline
210
0.0
220
0.0
230
1.0
 70
     8
 71
     3
 72
    19
 73
    15
 74
     0
 42
0.00000001
 43
0.00000001
 12
1.0
 22
0.0
 32
0.0
 13
1.0
 23
0.0
 33
0.0
 40
0.0
 40
0.0
 40
0.0
 40
0.0
 40
0.1168990281982833
 40
0.2258236839530653
 40
0.3300860790235561
 40
0.4354514863452326
 40
0.4903067309632205
 40
0.5482440571677173
 40
0.6107668331470242
 40
0.6776750949389453
 40
0.7491886027449018
 40
0.826858719915784
 40
0.9101115940212845
 40
0.9999999999999999
 40
0.9999999999999999
 40
0.9999999999999999
 40
0.9999999999999999
 10
199.375
 20
117.5
 30
0.0
 10
199.2441664427398
 20
117.4940724268545
 30
0.0
 10
198.9914242571069
 20
117.4826216353016
 30
0.0
 10
198.6322227735241
 20
117.382589091569
 30
0.0
 10
198.3179877706203
 20
117.2094222350628
 30
0.0
 10
198.0940471950288
 20
117.0120818974911
 30
0.0
 10
197.9427647140763
 20
116.8201827523183
 30
0.0
 10
197.8396861089384
 20
116.652955288361
 30
0.0
 10
197.7508403986972
 20
116.4629336067485
 30
0.0
 10
197.6721156864479
 20
116.2522570338362
 30
0.0
 10
197.6099320641353
 20
116.0185120475544
 30
0.0
 10
197.5598532365973
 20
115.7634788517687
 30
0.0
 10
197.5194969465799
 20
115.4857850056337
 30
0.0
 10
197.5066629340428
 20
115.2926013446352
 30
0.0
 10
197.5
 20
115.1923076923078
 30
0.0
  0
SPLINE
  5
A3
330
1F
100
AcDbEntity
  8
0
  6
Continuous
 62
     7
370
    15
100
AcDbSpline
210
0.0
220
0.0
230
1.0
 70
     8
 71
     3
 72
    15
 73
    11
 74
     0
 42
0.00000001
 43
0.00000001
 12
1.0
 22
0.0
 32
0.0
 13
1.0
 23
0.0
 33
0.0
 40
0.0
 40
0.0
 40
0.0
 40
0.0
 40
0.1491402908464764
 40
0.2821617981976316
 40
0.4046557030353647
 40
0.5211096910238654
 40
0.6344164539698206
 40
0.7487964497315291
 40
0.868710553546392
 40
1.0
 40
1.0
 40
1.0
 40
1.0
 10
201.1538461538462
 20
115.5318509615385
 30
0.0
 10
201.1484436543521
 20
115.6815115550221
 30
0.0
 10
201.138222546673
 20
115.9646577252286
 30
0.0
 10
201.0525167921433
 20
116.3642293292845
 30
0.0
 10
200.9005315445532
 20
116.70771772768
 30
0.0
 10
200.6912758277888
 20
116.9961772644184
 30
0.0
 10
200.4266715546591
 20
117.2221842072173
 30
0.0
 10
200.1173414645227
 20
117.3891813996638
 30
0.0
 10
199.7587574610249
 20
117.4815090825153
 30
0.0
 10
199.5067234696117
 20
117.4936530541951
 30
0.0
 10
199.375
 20
117.5
 30
0.0
  0
SPLINE
  5
A4
330
1F
100
AcDbEntity
  8
0
  6
Continuous
 62
     7
370
    15
100
AcDbSpline
210
0.0
220
0.0
230
1.0
 70
     8
 71
     3
 72
    11
 73
     7
 74
     0
 42
0.00000001
 43
0.00000001
 12
1.0
 22
0.0
 32
0.0
 13
1.0
 23
0.0
 33
0.0
 40
0.0
 40
0.0
 40
0.0
 40
0.0
 40
0.2727955500866087
 40
0.5261910092278109
 40
0.7669044194616174
 40
1.0
 40
1.0
 40
1.0
 40
1.0
 10
200.5829326923077
 20
113.798076923077
 30
0.0
 10
200.6697819550153
 20
113.9423428264082
 30
0.0
 10
200.8373041201689
 20
114.2206150388653
 30
0.0
 10
201.0210060722047
 20
114.6582031253652
 30
0.0
 10
201.131270831262
 20
115.0957008217023
 30
0.0
 10
201.146402139283
 20
115.3880342793822
 30
0.0
 10
201.1538461538462
 20
115.5318509615385
 30
0.0
  0
SPLINE
  5
A5
330
1F
100
AcDbEntity
  8
0
  6
Continuous
 62
     7
370
    15
100
AcDbSpline
210
0.0
220
0.0
230
1.0
 70
     8
 71
     3
 72
    15
 73
    11
 74
     0
 42
0.00000001
 43
0.00000001
 12
1.0
 22
0.0
 32
0.0
 13
1.0
 23
0.0
 33
0.0
 40
0.0
 40
0.0
 40
0.0
 40
0.0
 40
0.1850900618630628
 40
0.3523569643820054
 40
0.5030795117590501
 40
0.6372794639743592
 40
0.7524732703005123
 40
0.851885787788219
 40
0.9343394349213403
 40
1.0
 40
1.0
 40
1.0
 40
1.0
 10
198.2872596153846
 20
111.376201923077
 30
0.0
 10
198.4355650599715
 20
111.5193572795401
 30
0.0
 10
198.7178949470003
 20
111.7918829156041
 30
0.0
 10
199.1199332538105
 20
112.1821285807386
 30
0.0
 10
199.4733663535272
 20
112.5408752715844
 30
0.0
 10
199.7855840424578
 20
112.8588263223021
 30
0.0
 10
200.0493736500924
 20
113.1440775714665
 30
0.0
 10
200.2682050872986
 20
113.3921491937136
 30
0.0
 10
200.4448498268339
 20
113.6040514123399
 30
0.0
 10
200.5405207712682
 20
113.7384823121685
 30
0.0
 10
200.5829326923077
 20
113.798076923077
 30
0.0
  0
SPLINE
  5
A6
330
1F
100
AcDbEntity
  8
0
  6
Continuous
 62
     7
370
    15
100
AcDbSpline
210
0.0
220
0.0
230
1.0
 70
     8
 71
     3
 72
    19
 73
    15
 74
     0
 42
0.00000001
 43
0.00000001
 12
1.0
 22
0.0
 32
0.0
 13
1.0
 23
0.0
 33
0.0
 40
0.0
 40
0.0
 40
0.0
 40
0.0
 40
0.0963574538682385
 40
0.1926608788082143
 40
0.2894549334517483
 40
0.388479301116392
 40
0.4419214173673354
 40
0.5015211030486827
 40
0.5678827758176523
 40
0.6408916507843545
 40
0.7203706588124403
 40
0.8066369162819644
 40
0.9000159377788824
 40
1.0
 40
1.0
 40
1.0
 40
1.0
 10
194.2307692307693
 20
105.0000000000001
 30
0.0
 10
194.2639758045547
 20
105.2465322377044
 30
0.0
 10
194.3303703327504
 20
105.7394584791514
 30
0.0
 10
194.5356384768775
 20
106.4594996488056
 30
0.0
 10
194.8096011375018
 20
107.1621368074237
 30
0.0
 10
195.1069355684376
 20
107.7339129038749
 30
0.0
 10
195.4026675942629
 20
108.1941729863727
 30
0.0
 10
195.6709852777928
 20
108.5713136542215
 30
0.0
 10
195.9910784221552
 20
108.9725751370408
 30
0.0
 10
196.3583021301006
 20
109.4011967270666
 30
0.0
 10
196.7706269722407
 20
109.8585182870884
 30
0.0
 10
197.2311291578364
 20
110.3428395931074
 30
0.0
 10
197.7420053537876
 20
110.8518420633573
 30
0.0
 10
198.1014158573235
 20
111.1974797859564
 30
0.0
 10
198.2872596153846
 20
111.376201923077
 30
0.0
  0
SPLINE
  5
AA
330
1F
100
AcDbEntity
  8
0
  6
Continuous
 62
     7
370
    15
100
AcDbSpline
210
0.0
220
0.0
230
1.0
 70
     8
 71
     3
 72
    25
 73
    21
 74
     0
 42
0.00000001
 43
0.00000001
 12
1.0
 22
0.0
 32
0.0
 13
1.0
 23
0.0
 33
0.0
 40
0.0
 40
0.0
 40
0.0
 40
0.0
 40
0.0369753139213747
 40
0.0791925522967052
 40
0.1267009440549531
 40
0.1791840785794686
 40
0.2373686428140503
 40
0.3005585397445001
 40
0.369153135721295
 40
0.4431123780003077
 40
0.516018389250617
 40
0.5824731789612783
 40
0.642136807945055
 40
0.6946199424695706
 40
0.7406794327797206
 40
0.7795890342775182
 40
0.8120737912440683
 40
0.8378140957748637
 40
0.9225648809653528
 40
1.0
 40
1.0
 40
1.0
 40
1.0
 10
202.5841346153846
 20
112.157451923077
 30
0.0
 10
202.5385107181748
 20
112.099988489523
 30
0.0
 10
202.4407949050394
 20
111.9769151337012
 30
0.0
 10
202.2745546291389
 20
111.7882011755964
 30
0.0
 10
202.0818964478713
 20
111.5820660434047
 30
0.0
 10
201.8655415730614
 20
111.3546513634647
 30
0.0
 10
201.618343379205
 20
111.1140105113516
 30
0.0
 10
201.3491960712425
 20
110.8500800740558
 30
0.0
 10
201.0462563838085
 20
110.5763609693141
 30
0.0
 10
200.7324842775624
 20
110.2860252369556
 30
0.0
 10
200.4173483034792
 20
110.0034455514147
 30
0.0
 10
200.1276929088496
 20
109.7350574974005
 30
0.0
 10
199.8645894296967
 20
109.4975917130649
 30
0.0
 10
199.6402910878876
 20
109.2779389972913
 30
0.0
 10
199.4416047113254
 20
109.0910904911418
 30
0.0
 10
199.275691615595
 20
108.9274648191535
 30
0.0
 10
199.1394471730302
 20
108.7910232254621
 30
0.0
 10
198.951711099544
 20
108.5783453971338
 30
0.0
 10
198.7128382514865
 20
108.2906985458339
 30
0.0
 10
198.5447814355032
 20
108.0158438448697
 30
0.0
 10
198.4645432692308
 20
107.8846153846154
 30
0.0
  0
SPLINE
  5
AB
330
1F
100
AcDbEntity
  8
0
  6
Continuous
 62
     7
370
    15
100
AcDbSpline
210
0.0
220
0.0
230
1.0
 70
     8
 71
     3
 72
    15
 73
    11
 74
     0
 42
0.00000001
 43
0.00000001
 12
1.0
 22
0.0
 32
0.0
 13
1.0
 23
0.0
 33
0.0
 40
0.0
 40
0.0
 40
0.0
 40
0.0
 40
0.1191762436674481
 40
0.2364273787594527
 40
0.3526638478564086
 40
0.4690860844274211
 40
0.5894629077907659
 40
0.7176014692905142
 40
0.8541894668533077
 40
1.0
 40
1.0
 40
1.0
 40
1.0
 10
299.0384615384615
 20
115.9194711538462
 30
0.0
 10
299.0347916229063
 20
115.7559642697305
 30
0.0
 10
299.0275110736264
 20
115.4315917032608
 30
0.0
 10
298.9578052158519
 20
114.9520721431563
 30
0.0
 10
298.8513082357061
 20
114.4836102429989
 30
0.0
 10
298.6939140848966
 20
114.0250611262812
 30
0.0
 10
298.494404780618
 20
113.5654252630523
 30
0.0
 10
298.2372325029623
 20
113.1036709591527
 30
0.0
 10
297.9386360392851
 20
112.6258725240178
 30
0.0
 10
297.7048467767637
 20
112.316954986709
 30
0.0
 10
297.5841346153846
 20
112.157451923077
 30
0.0
  0
SPLINE
  5
AC
330
1F
100
AcDbEntity
  8
0
  6
Continuous
 62
     7
370
    15
100
AcDbSpline
210
0.0
220
0.0
230
1.0
 70
     8
 71
     3
 72
    23
 73
    19
 74
     0
 42
0.00000001
 43
0.00000001
 12
1.0
 22
0.0
 32
0.0
 13
1.0
 23
0.0
 33
0.0
 40
0.0
 40
0.0
 40
0.0
 40
0.0
 40
0.0756723023817946
 40
0.1473813099735565
 40
0.2160846766840688
 40
0.2816980378616596
 40
0.345459882900249
 40
0.4074856092774476
 40
0.4687312995608486
 40
0.5297823575334715
 40
0.5900329257115012
 40
0.6485481210783054
 40
0.7059535135830421
 40
0.7631016442005213
 40
0.8202894288974444
 40
0.8784792630440499
 40
0.9382260550877858
 40
1.0
 40
1.0
 40
1.0
 40
1.0
 10
294.4350961538461
 20
120.0
 30
0.0
 10
294.6095040392961
 20
119.996647971053
 30
0.0
 10
294.9491852941051
 20
119.9901194738124
 30
0.0
 10
295.4450596233522
 20
119.9362070914479
 30
0.0
 10
295.9108979275307
 20
119.8422030416352
 30
0.0
 10
296.3507728917261
 20
119.7176813729176
 30
0.0
 10
296.7601672349177
 20
119.5514358405143
 30
0.0
 10
297.1424924262193
 20
119.3504519045846
 30
0.0
 10
297.4917313363677
 20
119.1071018174179
 30
0.0
 10
297.8130898448439
 20
118.8346564952423
 30
0.0
 10
298.1003586388151
 20
118.5350549782661
 30
0.0
 10
298.3519801087349
 20
118.2154793084276
 30
0.0
 10
298.5627877475906
 20
117.8761521329448
 30
0.0
 10
298.7396877295842
 20
117.5212094739756
 30
0.0
 10
298.8710347730865
 20
117.1449397912475
 30
0.0
 10
298.9667399395136
 20
116.7525458628307
 30
0.0
 10
299.0301963197313
 20
116.3421970871493
 30
0.0
 10
299.0356759957425
 20
116.0619381815345
 30
0.0
 10
299.0384615384615
 20
115.9194711538462
 30
0.0
  0
SPLINE
  5
AD
330
1F
100
AcDbEntity
  8
0
  6
Continuous
 62
     7
370
    15
100
AcDbSpline
210
0.0
220
0.0
230
1.0
 70
     8
 71
     3
 72
    23
 73
    19
 74
     0
 42
0.00000001
 43
0.00000001
 12
1.0
 22
0.0
 32
0.0
 13
1.0
 23
0.0
 33
0.0
 40
0.0
 40
0.0
 40
0.0
 40
0.0
 40
0.0794357226761146
 40
0.1540131742839436
 40
0.2241414790393979
 40
0.2899341692032369
 40
0.3527323106719904
 40
0.4127257792496904
 40
0.4703027418920657
 40
0.5271687617359319
 40
0.5835022647141632
 40
0.6399482172133515
 40
0.6965849669119858
 40
0.7537269142919283
 40
0.8127070377388643
 40
0.8729634806368337
 40
0.9350348604089697
 40
1.0
 40
1.0
 40
1.0
 40
1.0
 10
289.6153846153846
 20
115.4747596153847
 30
0.0
 10
289.6385764763152
 20
115.6695075125199
 30
0.0
 10
289.6835417891388
 20
116.0470925688707
 30
0.0
 10
289.7957534811736
 20
116.5894348986786
 30
0.0
 10
289.9378654308958
 20
117.0897701794334
 30
0.0
 10
290.1166525938779
 20
117.5471698789055
 30
0.0
 10
290.3247254802712
 20
117.9645426155702
 30
0.0
 10
290.5726975380946
 20
118.3356254507907
 30
0.0
 10
290.8519043612854
 20
118.6645289327442
 30
0.0
 10
291.162587247302
 20
118.9510780126681
 30
0.0
 10
291.5027710839166
 20
119.1961842780893
 30
0.0
 10
291.8597329800418
 20
119.4149792312907
 30
0.0
 10
292.2404489692066
 20
119.5944606451398
 30
0.0
 10
292.6407273560953
 20
119.7423802964699
 30
0.0
 10
293.0603872468884
 20
119.8605964988054
 30
0.0
 10
293.5013696260595
 20
119.9387594490398
 30
0.0
 10
293.9609529142612
 20
119.9937395686189
 30
0.0
 10
294.2746663850954
 20
119.9978817381018
 30
0.0
 10
294.4350961538461
 20
120.0
 30
0.0
  0
SPLINE
  5
AF
330
1F
100
AcDbEntity
  8
0
  6
Continuous
 62
     7
370
    15
100
AcDbSpline
210
0.0
220
0.0
230
1.0
 70
     8
 71
     3
 72
    19
 73
    15
 74
     0
 42
0.00000001
 43
0.00000001
 12
1.0
 22
0.0
 32
0.0
 13
1.0
 23
0.0
 33
0.0
 40
0.0
 40
0.0
 40
0.0
 40
0.0
 40
0.1168990281982904
 40
0.2258236839530795
 40
0.3300860790235692
 40
0.4354514863452323
 40
0.49030673096323
 40
0.5482440571677263
 40
0.6107668331470328
 40
0.6776750949389465
 40
0.7491886027449046
 40
0.8268587199157861
 40
0.9101115940212847
 40
1.0
 40
1.0
 40
1.0
 40
1.0
 10
294.375
 20
117.5
 30
0.0
 10
294.2441664427397
 20
117.4940724268545
 30
0.0
 10
293.9914242571068
 20
117.4826216353016
 30
0.0
 10
293.6322227735241
 20
117.382589091569
 30
0.0
 10
293.3179877706202
 20
117.2094222350629
 30
0.0
 10
293.0940471950287
 20
117.0120818974911
 30
0.0
 10
292.9427647140764
 20
116.8201827523183
 30
0.0
 10
292.8396861089382
 20
116.652955288361
 30
0.0
 10
292.7508403986973
 20
116.4629336067485
 30
0.0
 10
292.6721156864479
 20
116.2522570338362
 30
0.0
 10
292.6099320641353
 20
116.0185120475544
 30
0.0
 10
292.5598532365972
 20
115.7634788517687
 30
0.0
 10
292.51949694658
 20
115.4857850056337
 30
0.0
 10
292.5066629340428
 20
115.2926013446352
 30
0.0
 10
292.5
 20
115.1923076923077
 30
0.0
  0
SPLINE
  5
B0
330
1F
100
AcDbEntity
  8
0
  6
Continuous
 62
     7
370
    15
100
AcDbSpline
210
0.0
220
0.0
230
1.0
 70
     8
 71
     3
 72
    15
 73
    11
 74
     0
 42
0.00000001
 43
0.00000001
 12
1.0
 22
0.0
 32
0.0
 13
1.0
 23
0.0
 33
0.0
 40
0.0
 40
0.0
 40
0.0
 40
0.0
 40
0.1491402908464719
 40
0.2821617981976283
 40
0.4046557030353662
 40
0.5211096910238625
 40
0.6344164539698288
 40
0.7487964497315259
 40
0.8687105535463909
 40
1.0
 40
1.0
 40
1.0
 40
1.0
 10
296.1538461538461
 20
115.5318509615385
 30
0.0
 10
296.148443654352
 20
115.6815115550221
 30
0.0
 10
296.138222546673
 20
115.9646577252286
 30
0.0
 10
296.0525167921434
 20
116.3642293292845
 30
0.0
 10
295.9005315445531
 20
116.70771772768
 30
0.0
 10
295.6912758277888
 20
116.9961772644184
 30
0.0
 10
295.426671554659
 20
117.2221842072173
 30
0.0
 10
295.1173414645228
 20
117.3891813996638
 30
0.0
 10
294.7587574610249
 20
117.4815090825153
 30
0.0
 10
294.5067234696116
 20
117.493653054195
 30
0.0
 10
294.375
 20
117.5
 30
0.0
  0
SPLINE
  5
B1
330
1F
100
AcDbEntity
  8
0
  6
Continuous
 62
     7
370
    15
100
AcDbSpline
210
0.0
220
0.0
230
1.0
 70
     8
 71
     3
 72
    11
 73
     7
 74
     0
 42
0.00000001
 43
0.00000001
 12
1.0
 22
0.0
 32
0.0
 13
1.0
 23
0.0
 33
0.0
 40
0.0
 40
0.0
 40
0.0
 40
0.0
 40
0.2727955500866146
 40
0.5261910092278097
 40
0.766904419461611
 40
1.0
 40
1.0
 40
1.0
 40
1.0
 10
295.5829326923077
 20
113.798076923077
 30
0.0
 10
295.6697819550153
 20
113.9423428264082
 30
0.0
 10
295.8373041201689
 20
114.2206150388653
 30
0.0
 10
296.0210060722046
 20
114.6582031253652
 30
0.0
 10
296.1312708312619
 20
115.0957008217023
 30
0.0
 10
296.146402139283
 20
115.3880342793822
 30
0.0
 10
296.1538461538461
 20
115.5318509615385
 30
0.0
  0
SPLINE
  5
B2
330
1F
100
AcDbEntity
  8
0
  6
Continuous
 62
     7
370
    15
100
AcDbSpline
210
0.0
220
0.0
230
1.0
 70
     8
 71
     3
 72
    15
 73
    11
 74
     0
 42
0.00000001
 43
0.00000001
 12
1.0
 22
0.0
 32
0.0
 13
1.0
 23
0.0
 33
0.0
 40
0.0
 40
0.0
 40
0.0
 40
0.0
 40
0.1850900618630599
 40
0.3523569643820054
 40
0.5030795117590442
 40
0.6372794639743533
 40
0.7524732703005176
 40
0.8518857877882166
 40
0.934339434921345
 40
0.9999999999999999
 40
0.9999999999999999
 40
0.9999999999999999
 40
0.9999999999999999
 10
293.2872596153846
 20
111.376201923077
 30
0.0
 10
293.4355650599715
 20
111.5193572795401
 30
0.0
 10
293.7178949470002
 20
111.7918829156041
 30
0.0
 10
294.1199332538106
 20
112.1821285807386
 30
0.0
 10
294.4733663535271
 20
112.5408752715844
 30
0.0
 10
294.7855840424577
 20
112.8588263223021
 30
0.0
 10
295.0493736500923
 20
113.1440775714665
 30
0.0
 10
295.2682050872984
 20
113.3921491937136
 30
0.0
 10
295.4448498268339
 20
113.6040514123399
 30
0.0
 10
295.5405207712681
 20
113.7384823121685
 30
0.0
 10
295.5829326923077
 20
113.798076923077
 30
0.0
  0
SPLINE
  5
B3
330
1F
100
AcDbEntity
  8
0
  6
Continuous
 62
     7
370
    15
100
AcDbSpline
210
0.0
220
0.0
230
1.0
 70
     8
 71
     3
 72
    19
 73
    15
 74
     0
 42
0.00000001
 43
0.00000001
 12
1.0
 22
0.0
 32
0.0
 13
1.0
 23
0.0
 33
0.0
 40
0.0
 40
0.0
 40
0.0
 40
0.0
 40
0.0963574538682384
 40
0.192660878808215
 40
0.2894549334517503
 40
0.3884793011163922
 40
0.4419214173673336
 40
0.501521103048683
 40
0.5678827758176527
 40
0.6408916507843547
 40
0.7203706588124381
 40
0.8066369162819647
 40
0.9000159377788826
 40
1.0
 40
1.0
 40
1.0
 40
1.0
 10
289.2307692307692
 20
105.0000000000001
 30
0.0
 10
289.2639758045547
 20
105.2465322377044
 30
0.0
 10
289.3303703327502
 20
105.7394584791514
 30
0.0
 10
289.5356384768773
 20
106.4594996488056
 30
0.0
 10
289.8096011375018
 20
107.1621368074237
 30
0.0
 10
290.1069355684376
 20
107.7339129038749
 30
0.0
 10
290.4026675942628
 20
108.1941729863727
 30
0.0
 10
290.6709852777927
 20
108.5713136542215
 30
0.0
 10
290.9910784221551
 20
108.9725751370407
 30
0.0
 10
291.3583021301006
 20
109.4011967270666
 30
0.0
 10
291.7706269722407
 20
109.8585182870885
 30
0.0
 10
292.2311291578363
 20
110.3428395931074
 30
0.0
 10
292.7420053537876
 20
110.8518420633573
 30
0.0
 10
293.1014158573234
 20
111.1974797859564
 30
0.0
 10
293.2872596153846
 20
111.376201923077
 30
0.0
  0
SPLINE
  5
B7
330
1F
100
AcDbEntity
  8
0
  6
Continuous
 62
     7
370
    15
100
AcDbSpline
210
0.0
220
0.0
230
1.0
 70
     8
 71
     3
 72
    25
 73
    21
 74
     0
 42
0.00000001
 43
0.00000001
 12
1.0
 22
0.0
 32
0.0
 13
1.0
 23
0.0
 33
0.0
 40
0.0
 40
0.0
 40
0.0
 40
0.0
 40
0.0369753139213748
 40
0.0791925522967054
 40
0.1267009440549565
 40
0.179184078579469
 40
0.2373686428140491
 40
0.3005585397445008
 40
0.3691531357212958
 40
0.4431123780003051
 40
0.5160183892506146
 40
0.582473178961276
 40
0.6421368079450528
 40
0.6946199424695685
 40
0.7406794327797185
 40
0.779589034277523
 40
0.8120737912440699
 40
0.8378140957748652
 40
0.9225648809653575
 40
0.9999999999999999
 40
0.9999999999999999
 40
0.9999999999999999
 40
0.9999999999999999
 10
297.5841346153846
 20
112.157451923077
 30
0.0
 10
297.5385107181747
 20
112.099988489523
 30
0.0
 10
297.4407949050394
 20
111.9769151337012
 30
0.0
 10
297.2745546291389
 20
111.7882011755964
 30
0.0
 10
297.0818964478711
 20
111.5820660434046
 30
0.0
 10
296.8655415730613
 20
111.3546513634648
 30
0.0
 10
296.618343379205
 20
111.1140105113515
 30
0.0
 10
296.3491960712424
 20
110.8500800740558
 30
0.0
 10
296.0462563838086
 20
110.576360969314
 30
0.0
 10
295.7324842775624
 20
110.2860252369556
 30
0.0
 10
295.4173483034791
 20
110.0034455514147
 30
0.0
 10
295.1276929088497
 20
109.7350574974005
 30
0.0
 10
294.8645894296966
 20
109.4975917130649
 30
0.0
 10
294.6402910878876
 20
109.2779389972913
 30
0.0
 10
294.4416047113253
 20
109.0910904911417
 30
0.0
 10
294.275691615595
 20
108.9274648191535
 30
0.0
 10
294.1394471730301
 20
108.7910232254621
 30
0.0
 10
293.951711099544
 20
108.5783453971338
 30
0.0
 10
293.7128382514864
 20
108.290698545834
 30
0.0
 10
293.5447814355031
 20
108.0158438448697
 30
0.0
 10
293.4645432692308
 20
107.8846153846154
 30
0.0
  0
SPLINE
  5
B8
330
1F
100
AcDbEntity
  8
0
  6
Continuous
 62
     7
370
    15
100
AcDbSpline
210
0.0
220
0.0
230
1.0
 70
     8
 71
     3
 72
    15
 73
    11
 74
     0
 42
0.00000001
 43
0.00000001
 12
1.0
 22
0.0
 32
0.0
 13
1.0
 23
0.0
 33
0.0
 40
0.0
 40
0.0
 40
0.0
 40
0.0
 40
0.1191762436674481
 40
0.2364273787594527
 40
0.3526638478564086
 40
0.4690860844274211
 40
0.5894629077907659
 40
0.7176014692905142
 40
0.8541894668533077
 40
1.0
 40
1.0
 40
1.0
 40
1.0
 10
394.0384615384615
 20
115.9194711538462
 30
0.0
 10
394.0347916229063
 20
115.7559642697305
 30
0.0
 10
394.0275110736264
 20
115.4315917032608
 30
0.0
 10
393.9578052158518
 20
114.9520721431563
 30
0.0
 10
393.8513082357061
 20
114.4836102429989
 30
0.0
 10
393.6939140848966
 20
114.0250611262812
 30
0.0
 10
393.494404780618
 20
113.5654252630523
 30
0.0
 10
393.2372325029623
 20
113.1036709591527
 30
0.0
 10
392.9386360392851
 20
112.6258725240178
 30
0.0
 10
392.7048467767636
 20
112.316954986709
 30
0.0
 10
392.5841346153845
 20
112.157451923077
 30
0.0
  0
SPLINE
  5
B9
330
1F
100
AcDbEntity
  8
0
  6
Continuous
 62
     7
370
    15
100
AcDbSpline
210
0.0
220
0.0
230
1.0
 70
     8
 71
     3
 72
    23
 73
    19
 74
     0
 42
0.00000001
 43
0.00000001
 12
1.0
 22
0.0
 32
0.0
 13
1.0
 23
0.0
 33
0.0
 40
0.0
 40
0.0
 40
0.0
 40
0.0
 40
0.0756723023817946
 40
0.1473813099735565
 40
0.2160846766840688
 40
0.2816980378616596
 40
0.345459882900249
 40
0.4074856092774476
 40
0.4687312995608486
 40
0.5297823575334715
 40
0.5900329257115012
 40
0.6485481210783054
 40
0.7059535135830421
 40
0.7631016442005213
 40
0.8202894288974444
 40
0.8784792630440499
 40
0.9382260550877858
 40
1.0
 40
1.0
 40
1.0
 40
1.0
 10
389.4350961538461
 20
120.0
 30
0.0
 10
389.6095040392961
 20
119.996647971053
 30
0.0
 10
389.9491852941052
 20
119.9901194738124
 30
0.0
 10
390.4450596233521
 20
119.9362070914479
 30
0.0
 10
390.9108979275308
 20
119.8422030416352
 30
0.0
 10
391.350772891726
 20
119.7176813729176
 30
0.0
 10
391.7601672349177
 20
119.5514358405143
 30
0.0
 10
392.1424924262193
 20
119.3504519045846
 30
0.0
 10
392.4917313363677
 20
119.1071018174179
 30
0.0
 10
392.8130898448439
 20
118.8346564952423
 30
0.0
 10
393.1003586388151
 20
118.5350549782661
 30
0.0
 10
393.3519801087349
 20
118.2154793084276
 30
0.0
 10
393.5627877475904
 20
117.8761521329448
 30
0.0
 10
393.7396877295842
 20
117.5212094739756
 30
0.0
 10
393.8710347730864
 20
117.1449397912475
 30
0.0
 10
393.9667399395136
 20
116.7525458628307
 30
0.0
 10
394.0301963197314
 20
116.3421970871493
 30
0.0
 10
394.0356759957424
 20
116.0619381815345
 30
0.0
 10
394.0384615384615
 20
115.9194711538462
 30
0.0
  0
SPLINE
  5
BA
330
1F
100
AcDbEntity
  8
0
  6
Continuous
 62
     7
370
    15
100
AcDbSpline
210
0.0
220
0.0
230
1.0
 70
     8
 71
     3
 72
    23
 73
    19
 74
     0
 42
0.00000001
 43
0.00000001
 12
1.0
 22
0.0
 32
0.0
 13
1.0
 23
0.0
 33
0.0
 40
0.0
 40
0.0
 40
0.0
 40
0.0
 40
0.0794357226761146
 40
0.1540131742839436
 40
0.2241414790393979
 40
0.2899341692032369
 40
0.3527323106719904
 40
0.4127257792496904
 40
0.4703027418920657
 40
0.5271687617359319
 40
0.5835022647141632
 40
0.6399482172133515
 40
0.6965849669119858
 40
0.7537269142919283
 40
0.8127070377388643
 40
0.8729634806368337
 40
0.9350348604089697
 40
1.0
 40
1.0
 40
1.0
 40
1.0
 10
384.6153846153846
 20
115.4747596153847
 30
0.0
 10
384.6385764763152
 20
115.6695075125199
 30
0.0
 10
384.6835417891386
 20
116.0470925688707
 30
0.0
 10
384.7957534811736
 20
116.5894348986786
 30
0.0
 10
384.9378654308958
 20
117.0897701794334
 30
0.0
 10
385.116652593878
 20
117.5471698789055
 30
0.0
 10
385.3247254802712
 20
117.9645426155702
 30
0.0
 10
385.5726975380946
 20
118.3356254507907
 30
0.0
 10
385.8519043612854
 20
118.6645289327442
 30
0.0
 10
386.162587247302
 20
118.9510780126681
 30
0.0
 10
386.5027710839166
 20
119.1961842780893
 30
0.0
 10
386.8597329800417
 20
119.4149792312907
 30
0.0
 10
387.2404489692067
 20
119.5944606451398
 30
0.0
 10
387.6407273560953
 20
119.7423802964699
 30
0.0
 10
388.0603872468884
 20
119.8605964988054
 30
0.0
 10
388.5013696260595
 20
119.9387594490398
 30
0.0
 10
388.960952914261
 20
119.9937395686189
 30
0.0
 10
389.2746663850954
 20
119.9978817381018
 30
0.0
 10
389.4350961538461
 20
120.0
 30
0.0
  0
SPLINE
  5
BC
330
1F
100
AcDbEntity
  8
0
  6
Continuous
 62
     7
370
    15
100
AcDbSpline
210
0.0
220
0.0
230
1.0
 70
     8
 71
     3
 72
    19
 73
    15
 74
     0
 42
0.00000001
 43
0.00000001
 12
1.0
 22
0.0
 32
0.0
 13
1.0
 23
0.0
 33
0.0
 40
0.0
 40
0.0
 40
0.0
 40
0.0
 40
0.1168990281982904
 40
0.2258236839530795
 40
0.3300860790235692
 40
0.4354514863452323
 40
0.49030673096323
 40
0.5482440571677263
 40
0.6107668331470328
 40
0.6776750949389465
 40
0.7491886027449046
 40
0.8268587199157861
 40
0.9101115940212847
 40
1.0
 40
1.0
 40
1.0
 40
1.0
 10
389.3749999999999
 20
117.5
 30
0.0
 10
389.2441664427397
 20
117.4940724268545
 30
0.0
 10
388.9914242571069
 20
117.4826216353016
 30
0.0
 10
388.6322227735241
 20
117.382589091569
 30
0.0
 10
388.3179877706201
 20
117.2094222350629
 30
0.0
 10
388.0940471950287
 20
117.0120818974911
 30
0.0
 10
387.9427647140763
 20
116.8201827523183
 30
0.0
 10
387.8396861089382
 20
116.652955288361
 30
0.0
 10
387.7508403986972
 20
116.4629336067485
 30
0.0
 10
387.6721156864479
 20
116.2522570338362
 30
0.0
 10
387.6099320641353
 20
116.0185120475544
 30
0.0
 10
387.5598532365971
 20
115.7634788517687
 30
0.0
 10
387.5194969465799
 20
115.4857850056337
 30
0.0
 10
387.5066629340427
 20
115.2926013446352
 30
0.0
 10
387.4999999999999
 20
115.1923076923077
 30
0.0
  0
SPLINE
  5
BD
330
1F
100
AcDbEntity
  8
0
  6
Continuous
 62
     7
370
    15
100
AcDbSpline
210
0.0
220
0.0
230
1.0
 70
     8
 71
     3
 72
    15
 73
    11
 74
     0
 42
0.00000001
 43
0.00000001
 12
1.0
 22
0.0
 32
0.0
 13
1.0
 23
0.0
 33
0.0
 40
0.0
 40
0.0
 40
0.0
 40
0.0
 40
0.1491402908464719
 40
0.2821617981976283
 40
0.4046557030353662
 40
0.5211096910238625
 40
0.6344164539698288
 40
0.7487964497315259
 40
0.8687105535463909
 40
1.0
 40
1.0
 40
1.0
 40
1.0
 10
391.1538461538461
 20
115.5318509615385
 30
0.0
 10
391.148443654352
 20
115.6815115550221
 30
0.0
 10
391.138222546673
 20
115.9646577252286
 30
0.0
 10
391.0525167921434
 20
116.3642293292845
 30
0.0
 10
390.9005315445532
 20
116.70771772768
 30
0.0
 10
390.6912758277887
 20
116.9961772644184
 30
0.0
 10
390.426671554659
 20
117.2221842072173
 30
0.0
 10
390.1173414645227
 20
117.3891813996638
 30
0.0
 10
389.7587574610249
 20
117.4815090825153
 30
0.0
 10
389.5067234696116
 20
117.493653054195
 30
0.0
 10
389.3749999999999
 20
117.5
 30
0.0
  0
SPLINE
  5
BE
330
1F
100
AcDbEntity
  8
0
  6
Continuous
 62
     7
370
    15
100
AcDbSpline
210
0.0
220
0.0
230
1.0
 70
     8
 71
     3
 72
    11
 73
     7
 74
     0
 42
0.00000001
 43
0.00000001
 12
1.0
 22
0.0
 32
0.0
 13
1.0
 23
0.0
 33
0.0
 40
0.0
 40
0.0
 40
0.0
 40
0.0
 40
0.2727955500866146
 40
0.5261910092278097
 40
0.766904419461611
 40
1.0
 40
1.0
 40
1.0
 40
1.0
 10
390.5829326923076
 20
113.798076923077
 30
0.0
 10
390.6697819550151
 20
113.9423428264082
 30
0.0
 10
390.8373041201688
 20
114.2206150388653
 30
0.0
 10
391.0210060722046
 20
114.6582031253652
 30
0.0
 10
391.1312708312619
 20
115.0957008217023
 30
0.0
 10
391.1464021392831
 20
115.3880342793822
 30
0.0
 10
391.1538461538461
 20
115.5318509615385
 30
0.0
  0
SPLINE
  5
BF
330
1F
100
AcDbEntity
  8
0
  6
Continuous
 62
     7
370
    15
100
AcDbSpline
210
0.0
220
0.0
230
1.0
 70
     8
 71
     3
 72
    15
 73
    11
 74
     0
 42
0.00000001
 43
0.00000001
 12
1.0
 22
0.0
 32
0.0
 13
1.0
 23
0.0
 33
0.0
 40
0.0
 40
0.0
 40
0.0
 40
0.0
 40
0.1850900618630599
 40
0.3523569643820054
 40
0.5030795117590442
 40
0.6372794639743533
 40
0.7524732703005176
 40
0.8518857877882166
 40
0.934339434921345
 40
0.9999999999999999
 40
0.9999999999999999
 40
0.9999999999999999
 40
0.9999999999999999
 10
388.2872596153846
 20
111.376201923077
 30
0.0
 10
388.4355650599713
 20
111.5193572795401
 30
0.0
 10
388.717894947
 20
111.7918829156041
 30
0.0
 10
389.1199332538106
 20
112.1821285807386
 30
0.0
 10
389.473366353527
 20
112.5408752715844
 30
0.0
 10
389.7855840424579
 20
112.8588263223021
 30
0.0
 10
390.0493736500923
 20
113.1440775714665
 30
0.0
 10
390.2682050872983
 20
113.3921491937136
 30
0.0
 10
390.4448498268339
 20
113.6040514123399
 30
0.0
 10
390.5405207712682
 20
113.7384823121685
 30
0.0
 10
390.5829326923076
 20
113.798076923077
 30
0.0
  0
SPLINE
  5
C0
330
1F
100
AcDbEntity
  8
0
  6
Continuous
 62
     7
370
    15
100
AcDbSpline
210
0.0
220
0.0
230
1.0
 70
     8
 71
     3
 72
    19
 73
    15
 74
     0
 42
0.00000001
 43
0.00000001
 12
1.0
 22
0.0
 32
0.0
 13
1.0
 23
0.0
 33
0.0
 40
0.0
 40
0.0
 40
0.0
 40
0.0
 40
0.0963574538682384
 40
0.192660878808215
 40
0.2894549334517503
 40
0.3884793011163922
 40
0.4419214173673336
 40
0.501521103048683
 40
0.5678827758176527
 40
0.6408916507843547
 40
0.7203706588124381
 40
0.8066369162819647
 40
0.9000159377788826
 40
1.0
 40
1.0
 40
1.0
 40
1.0
 10
384.2307692307692
 20
105.0000000000001
 30
0.0
 10
384.2639758045547
 20
105.2465322377044
 30
0.0
 10
384.3303703327502
 20
105.7394584791514
 30
0.0
 10
384.5356384768773
 20
106.4594996488056
 30
0.0
 10
384.8096011375018
 20
107.1621368074237
 30
0.0
 10
385.1069355684375
 20
107.7339129038749
 30
0.0
 10
385.4026675942628
 20
108.1941729863727
 30
0.0
 10
385.6709852777926
 20
108.5713136542215
 30
0.0
 10
385.9910784221551
 20
108.9725751370407
 30
0.0
 10
386.3583021301005
 20
109.4011967270666
 30
0.0
 10
386.7706269722407
 20
109.8585182870885
 30
0.0
 10
387.2311291578363
 20
110.3428395931074
 30
0.0
 10
387.7420053537875
 20
110.8518420633573
 30
0.0
 10
388.1014158573234
 20
111.1974797859564
 30
0.0
 10
388.2872596153846
 20
111.376201923077
 30
0.0
  0
SPLINE
  5
C4
330
1F
100
AcDbEntity
  8
0
  6
Continuous
 62
     7
370
    15
100
AcDbSpline
210
0.0
220
0.0
230
1.0
 70
     8
 71
     3
 72
    25
 73
    21
 74
     0
 42
0.00000001
 43
0.00000001
 12
1.0
 22
0.0
 32
0.0
 13
1.0
 23
0.0
 33
0.0
 40
0.0
 40
0.0
 40
0.0
 40
0.0
 40
0.0369753139213748
 40
0.0791925522967054
 40
0.1267009440549565
 40
0.179184078579469
 40
0.2373686428140491
 40
0.3005585397445008
 40
0.3691531357212958
 40
0.4431123780003051
 40
0.5160183892506146
 40
0.582473178961276
 40
0.6421368079450528
 40
0.6946199424695685
 40
0.7406794327797185
 40
0.779589034277523
 40
0.8120737912440699
 40
0.8378140957748652
 40
0.9225648809653575
 40
0.9999999999999999
 40
0.9999999999999999
 40
0.9999999999999999
 40
0.9999999999999999
 10
392.5841346153845
 20
112.157451923077
 30
0.0
 10
392.5385107181747
 20
112.099988489523
 30
0.0
 10
392.4407949050394
 20
111.9769151337012
 30
0.0
 10
392.2745546291389
 20
111.7882011755964
 30
0.0
 10
392.0818964478711
 20
111.5820660434046
 30
0.0
 10
391.8655415730612
 20
111.3546513634648
 30
0.0
 10
391.618343379205
 20
111.1140105113515
 30
0.0
 10
391.3491960712423
 20
110.8500800740558
 30
0.0
 10
391.0462563838084
 20
110.576360969314
 30
0.0
 10
390.7324842775625
 20
110.2860252369556
 30
0.0
 10
390.4173483034791
 20
110.0034455514147
 30
0.0
 10
390.1276929088496
 20
109.7350574974005
 30
0.0
 10
389.8645894296965
 20
109.4975917130649
 30
0.0
 10
389.6402910878876
 20
109.2779389972913
 30
0.0
 10
389.4416047113255
 20
109.0910904911417
 30
0.0
 10
389.2756916155949
 20
108.9274648191535
 30
0.0
 10
389.1394471730302
 20
108.7910232254621
 30
0.0
 10
388.9517110995438
 20
108.5783453971338
 30
0.0
 10
388.7128382514865
 20
108.290698545834
 30
0.0
 10
388.5447814355031
 20
108.0158438448697
 30
0.0
 10
388.4645432692307
 20
107.8846153846154
 30
0.0
  0
LINE
  5
FE
330
1F
100
AcDbEntity
  8
0
  6
Continuous
 62
     7
370
    15
100
AcDbLine
 10
400.1983173077
 20
116.9230769231
 30
0.0
 11
399.609375
 21
114.2457932692
 31
0.0
  0
LINE
  5
FF
330
1F
100
AcDbEntity
  8
0
  6
Continuous
 62
     7
370
    15
100
AcDbLine
 10
405.1923076923
 20
116.9230769231
 30
0.0
 11
400.1983173077
 21
116.9230769231
 31
0.0
  0
LINE
  5
100
330
1F
100
AcDbEntity
  8
0
  6
Continuous
 62
     7
370
    15
100
AcDbLine
 10
405.1923076923
 20
119.8076923077
 30
0.0
 11
405.1923076923
 21
116.9230769231
 31
0.0
  0
LINE
  5
101
330
1F
100
AcDbEntity
  8
0
  6
Continuous
 62
     7
370
    15
100
AcDbLine
 10
397.8846153846
 20
119.8076923077
 30
0.0
 11
405.1923076923
 21
119.8076923077
 31
0.0
  0
LINE
  5
102
330
1F
100
AcDbEntity
  8
0
  6
Continuous
 62
     7
370
    15
100
AcDbLine
 10
396.1538461538
 20
111.5084134615
 30
0.0
 11
397.8846153846
 21
119.8076923077
 31
0.0
  0
LINE
  5
103
330
1F
100
AcDbEntity
  8
0
  6
Continuous
 62
     7
370
    15
100
AcDbLine
 10
398.671875
 20
111.1538461538
 30
0.0
 11
396.1538461538
 21
111.5084134615
 31
0.0
  0
LINE
  5
104
330
1F
100
AcDbEntity
  8
0
  6
Continuous
 62
     7
370
    15
100
AcDbLine
 10
395.7692307692
 20
109.2908653846
 30
0.0
 11
398.2692307692
 21
109.6153846154
 31
0.0
  0
LINE
  5
105
330
1F
100
AcDbEntity
  8
0
  6
Continuous
 62
     7
370
    15
100
AcDbLine
 10
311.1538461538
 20
108.0769230769
 30
0.0
 11
309.2307692308
 21
108.0769230769
 31
0.0
  0
LINE
  5
106
330
1F
100
AcDbEntity
  8
0
  6
Continuous
 62
     7
370
    15
100
AcDbLine
 10
311.1538461538
 20
110.5769230769
 30
0.0
 11
311.1538461538
 21
108.0769230769
 31
0.0
  0
LINE
  5
107
330
1F
100
AcDbEntity
  8
0
  6
Continuous
 62
     7
370
    15
100
AcDbLine
 10
309.2307692308
 20
110.5769230769
 30
0.0
 11
311.1538461538
 21
110.5769230769
 31
0.0
  0
LINE
  5
108
330
1F
100
AcDbEntity
  8
0
  6
Continuous
 62
     7
370
    15
100
AcDbLine
 10
309.2307692308
 20
119.8076923077
 30
0.0
 11
309.2307692308
 21
110.5769230769
 31
0.0
  0
LINE
  5
109
330
1F
100
AcDbEntity
  8
0
  6
Continuous
 62
     7
370
    15
100
AcDbLine
 10
306.7277644231
 20
119.8076923077
 30
0.0
 11
309.2307692308
 21
119.8076923077
 31
0.0
  0
LINE
  5
10A
330
1F
100
AcDbEntity
  8
0
  6
Continuous
 62
     7
370
    15
100
AcDbLine
 10
300.3846153846
 20
110.5679086538
 30
0.0
 11
306.7277644231
 21
119.8076923077
 31
0.0
  0
LINE
  5
10B
330
1F
100
AcDbEntity
  8
0
  6
Continuous
 62
     7
370
    15
100
AcDbLine
 10
300.3846153846
 20
108.0769230769
 30
0.0
 11
300.3846153846
 21
110.5679086538
 31
0.0
  0
LINE
  5
10C
330
1F
100
AcDbEntity
  8
0
  6
Continuous
 62
     7
370
    15
100
AcDbLine
 10
306.3461538462
 20
108.0769230769
 30
0.0
 11
300.3846153846
 21
108.0769230769
 31
0.0
  0
LINE
  5
10D
330
1F
100
AcDbEntity
  8
0
  6
Continuous
 62
     7
370
    15
100
AcDbLine
 10
306.3461538462
 20
105.0
 30
0.0
 11
306.3461538462
 21
108.0769230769
 31
0.0
  0
LINE
  5
10E
330
1F
100
AcDbEntity
  8
0
  6
Continuous
 62
     7
370
    15
100
AcDbLine
 10
309.2307692308
 20
105.0
 30
0.0
 11
306.3461538462
 21
105.0
 31
0.0
  0
LINE
  5
10F
330
1F
100
AcDbEntity
  8
0
  6
Continuous
 62
     7
370
    15
100
AcDbLine
 10
309.2307692308
 20
108.0769230769
 30
0.0
 11
309.2307692308
 21
105.0
 31
0.0
  0
LINE
  5
110
330
1F
100
AcDbEntity
  8
0
  6
Continuous
 62
     7
370
    15
100
AcDbLine
 10
209.0384615385
 20
115.5769230769
 30
0.0
 11
206.1538461538
 21
116.0096153846
 31
0.0
  0
LINE
  5
111
330
1F
100
AcDbEntity
  8
0
  6
Continuous
 62
     7
370
    15
100
AcDbLine
 10
209.8076923077
 20
111.7097355769
 30
0.0
 11
210.078125
 21
114.0384615385
 31
0.0
  0
LINE
  5
112
330
1F
100
AcDbEntity
  8
0
  6
Continuous
 62
     7
370
    15
100
AcDbLine
 10
205.7692307692
 20
109.2608173077
 30
0.0
 11
208.6538461538
 21
109.6153846154
 31
0.0
  0
LINE
  5
113
330
1F
100
AcDbEntity
  8
0
  6
Continuous
 62
     7
370
    15
100
AcDbLine
 10
114.0384615385
 20
115.1923076923
 30
0.0
 11
111.1538461538
 21
115.4747596154
 31
0.0
  0
LINE
  5
114
330
1F
100
AcDbEntity
  8
0
  6
Continuous
 62
     7
370
    15
100
AcDbLine
 10
120.5769230769
 20
105.0
 30
0.0
 11
110.7692307692
 21
105.0
 31
0.0
  0
LINE
  5
115
330
1F
100
AcDbEntity
  8
0
  6
Continuous
 62
     7
370
    15
100
AcDbLine
 10
120.5769230769
 20
107.8846153846
 30
0.0
 11
120.5769230769
 21
105.0
 31
0.0
  0
LINE
  5
116
330
1F
100
AcDbEntity
  8
0
  6
Continuous
 62
     7
370
    15
100
AcDbLine
 10
115.0030048077
 20
107.8846153846
 30
0.0
 11
120.5769230769
 21
107.8846153846
 31
0.0
  0
LINE
  5
117
330
1F
100
AcDbEntity
  8
0
  6
Continuous
 62
     7
370
    15
100
AcDbLine
 10
16.3636363636
 20
113.7662337662
 30
0.0
 11
16.3636363636
 21
116.2987012987
 31
0.0
  0
LINE
  5
118
330
1F
100
AcDbEntity
  8
0
  6
Continuous
 62
     7
370
    15
100
AcDbLine
 10
19.4805194805
 20
105.0
 30
0.0
 11
19.4805194805
 21
115.9090909091
 31
0.0
  0
LINE
  5
119
330
1F
100
AcDbEntity
  8
0
  6
Continuous
 62
     7
370
    15
100
AcDbLine
 10
21.8181818182
 20
105.0
 30
0.0
 11
19.4805194805
 21
105.0
 31
0.0
  0
LINE
  5
11A
330
1F
100
AcDbEntity
  8
0
  6
Continuous
 62
     7
370
    15
100
AcDbLine
 10
21.8181818182
 20
120.0
 30
0.0
 11
21.8181818182
 21
105.0
 31
0.0
  0
LINE
  5
11B
330
1F
100
AcDbEntity
  8
0
  6
Continuous
 62
     7
370
    15
100
AcDbLine
 10
19.8975243506
 20
120.0
 30
0.0
 11
21.8181818182
 21
120.0
 31
0.0
  0
LINE
  5
11C
330
1F
100
AcDbEntity
  8
0
  6
Continuous
 62
     7
370
    15
100
AcDbLine
 10
8.3766233766
 20
115.5194805195
 30
0.0
 11
6.038961039
 21
115.9090909091
 31
0.0
  0
LINE
  5
11D
330
1F
100
AcDbEntity
  8
0
  6
Continuous
 62
     7
370
    15
100
AcDbLine
 10
14.2207792208
 20
105.0
 30
0.0
 11
5.8441558442
 21
105.0
 31
0.0
  0
LINE
  5
11E
330
1F
100
AcDbEntity
  8
0
  6
Continuous
 62
     7
370
    15
100
AcDbLine
 10
14.2207792208
 20
107.5324675325
 30
0.0
 11
14.2207792208
 21
105.0
 31
0.0
  0
LINE
  5
11F
330
1F
100
AcDbEntity
  8
0
  6
Continuous
 62
     7
370
    15
100
AcDbLine
 10
9.4389204545
 20
107.5324675325
 30
0.0
 11
14.2207792208
 21
107.5324675325
 31
0.0
  0
LINE
  5
120
330
1F
100
AcDbEntity
  8
0
  6
Continuous
 62
     7
370
    15
100
AcDbLine
 10
102.5
 20
115.1923076923
 30
0.0
 11
99.6153846154
 21
115.4747596154
 31
0.0
  0
LINE
  5
121
330
1F
100
AcDbEntity
  8
0
  6
Continuous
 62
     7
370
    15
100
AcDbLine
 10
109.0384615385
 20
105.0
 30
0.0
 11
99.2307692308
 21
105.0
 31
0.0
  0
LINE
  5
122
330
1F
100
AcDbEntity
  8
0
  6
Continuous
 62
     7
370
    15
100
AcDbLine
 10
109.0384615385
 20
107.8846153846
 30
0.0
 11
109.0384615385
 21
105.0
 31
0.0
  0
LINE
  5
123
330
1F
100
AcDbEntity
  8
0
  6
Continuous
 62
     7
370
    15
100
AcDbLine
 10
103.4645432692
 20
107.8846153846
 30
0.0
 11
109.0384615385
 21
107.8846153846
 31
0.0
  0
LINE
  5
124
330
1F
100
AcDbEntity
  8
0
  6
Continuous
 62
     7
370
    15
100
AcDbLine
 10
197.5
 20
115.1923076923
 30
0.0
 11
194.6153846154
 21
115.4747596154
 31
0.0
  0
LINE
  5
125
330
1F
100
AcDbEntity
  8
0
  6
Continuous
 62
     7
370
    15
100
AcDbLine
 10
204.0384615385
 20
105.0
 30
0.0
 11
194.2307692308
 21
105.0
 31
0.0
  0
LINE
  5
126
330
1F
100
AcDbEntity
  8
0
  6
Continuous
 62
     7
370
    15
100
AcDbLine
 10
204.0384615385
 20
107.8846153846
 30
0.0
 11
204.0384615385
 21
105.0
 31
0.0
  0
LINE
  5
127
330
1F
100
AcDbEntity
  8
0
  6
Continuous
 62
     7
370
    15
100
AcDbLine
 10
198.4645432692
 20
107.8846153846
 30
0.0
 11
204.0384615385
 21
107.8846153846
 31
0.0
  0
LINE
  5
128
330
1F
100
AcDbEntity
  8
0
  6
Continuous
 62
     7
370
    15
100
AcDbLine
 10
292.5
 20
115.1923076923
 30
0.0
 11
289.6153846154
 21
115.4747596154
 31
0.0
  0
LINE
  5
129
330
1F
100
AcDbEntity
  8
0
  6
Continuous
 62
     7
370
    15
100
AcDbLine
 10
299.0384615385
 20
105.0
 30
0.0
 11
289.2307692308
 21
105.0
 31
0.0
  0
LINE
  5
12A
330
1F
100
AcDbEntity
  8
0
  6
Continuous
 62
     7
370
    15
100
AcDbLine
 10
299.0384615385
 20
107.8846153846
 30
0.0
 11
299.0384615385
 21
105.0
 31
0.0
  0
LINE
  5
12B
330
1F
100
AcDbEntity
  8
0
  6
Continuous
 62
     7
370
    15
100
AcDbLine
 10
293.4645432692
 20
107.8846153846
 30
0.0
 11
299.0384615385
 21
107.8846153846
 31
0.0
  0
LINE
  5
12C
330
1F
100
AcDbEntity
  8
0
  6
Continuous
 62
     7
370
    15
100
AcDbLine
 10
387.5
 20
115.1923076923
 30
0.0
 11
384.6153846154
 21
115.4747596154
 31
0.0
  0
LINE
  5
12D
330
1F
100
AcDbEntity
  8
0
  6
Continuous
 62
     7
370
    15
100
AcDbLine
 10
394.0384615385
 20
105.0
 30
0.0
 11
384.2307692308
 21
105.0
 31
0.0
  0
LINE
  5
12E
330
1F
100
AcDbEntity
  8
0
  6
Continuous
 62
     7
370
    15
100
AcDbLine
 10
394.0384615385
 20
107.8846153846
 30
0.0
 11
394.0384615385
 21
105.0
 31
0.0
  0
LINE
  5
12F
330
1F
100
AcDbEntity
  8
0
  6
Continuous
 62
     7
370
    15
100
AcDbLine
 10
388.4645432692
 20
107.8846153846
 30
0.0
 11
394.0384615385
 21
107.8846153846
 31
0.0
  0
LINE
  5
130
330
1F
100
AcDbEntity
  8
0
  6
Continuous
 62
     7
370
    15
100
AcDbLine
 10
410.0
 20
100.0
 30
0.0
 11
410.0
 21
115.0
 31
0.0
  0
LINE
  5
131
330
1F
100
AcDbEntity
  8
0
  6
Continuous
 62
     7
370
    15
100
AcDbLine
 10
475.0
 20
100.0
 30
0.0
 11
410.0
 21
100.0
 31
0.0
  0
LINE
  5
132
330
1F
100
AcDbEntity
  8
0
  6
Continuous
 62
     7
370
    15
100
AcDbLine
 10
475.0
 20
80.0
 30
0.0
 11
475.0
 21
100.0
 31
0.0
  0
LINE
  5
133
330
1F
100
AcDbEntity
  8
0
  6
Continuous
 62
     7
370
    15
100
AcDbLine
 10
479.0
 20
80.0
 30
0.0
 11
475.0
 21
80.0
 31
0.0
  0
LINE
  5
134
330
1F
100
AcDbEntity
  8
0
  6
Continuous
 62
     7
370
    15
100
AcDbLine
 10
479.0
 20
60.0
 30
0.0
 11
479.0
 21
80.0
 31
0.0
  0
LINE
  5
135
330
1F
100
AcDbEntity
  8
0
  6
Continuous
 62
     7
370
    15
100
AcDbLine
 10
475.0
 20
60.0
 30
0.0
 11
479.0
 21
60.0
 31
0.0
  0
LINE
  5
136
330
1F
100
AcDbEntity
  8
0
  6
Continuous
 62
     7
370
    15
100
AcDbLine
 10
475.0
 20
40.0
 30
0.0
 11
475.0
 21
60.0
 31
0.0
  0
LINE
  5
137
330
1F
100
AcDbEntity
  8
0
  6
Continuous
 62
     7
370
    15
100
AcDbLine
 10
479.0
 20
40.0
 30
0.0
 11
475.0
 21
40.0
 31
0.0
  0
LINE
  5
138
330
1F
100
AcDbEntity
  8
0
  6
Continuous
 62
     7
370
    15
100
AcDbLine
 10
479.0
 20
20.0
 30
0.0
 11
479.0
 21
40.0
 31
0.0
  0
LINE
  5
139
330
1F
100
AcDbEntity
  8
0
  6
Continuous
 62
     7
370
    15
100
AcDbLine
 10
475.0
 20
20.0
 30
0.0
 11
479.0
 21
20.0
 31
0.0
  0
LINE
  5
13A
330
1F
100
AcDbEntity
  8
0
  6
Continuous
 62
     7
370
    15
100
AcDbLine
 10
475.0
 20
8.4
 30
0.0
 11
475.0
 21
20.0
 31
0.0
  0
LINE
  5
13B
330
1F
100
AcDbEntity
  8
0
  6
Continuous
 62
     7
370
    15
100
AcDbLine
 10
475.0
 20
8.4
 30
0.0
 11
347.5
 21
8.4
 31
0.0
  0
LINE
  5
13C
330
1F
100
AcDbEntity
  8
0
  6
Continuous
 62
     7
370
    15
100
AcDbLine
 10
347.5
 20
4.4
 30
0.0
 11
347.5
 21
8.4
 31
0.0
  0
LINE
  5
13D
330
1F
100
AcDbEntity
  8
0
  6
Continuous
 62
     7
370
    15
100
AcDbLine
 10
307.5
 20
4.4
 30
0.0
 11
347.5
 21
4.4
 31
0.0
  0
LINE
  5
13E
330
1F
100
AcDbEntity
  8
0
  6
Continuous
 62
     7
370
    15
100
AcDbLine
 10
307.5
 20
8.4
 30
0.0
 11
307.5
 21
4.4
 31
0.0
  0
LINE
  5
13F
330
1F
100
AcDbEntity
  8
0
  6
Continuous
 62
     7
370
    15
100
AcDbLine
 10
167.5
 20
4.4
 30
0.0
 11
167.5
 21
8.4
 31
0.0
  0
LINE
  5
140
330
1F
100
AcDbEntity
  8
0
  6
Continuous
 62
     7
370
    15
100
AcDbLine
 10
127.5
 20
4.4
 30
0.0
 11
167.5
 21
4.4
 31
0.0
  0
LINE
  5
141
330
1F
100
AcDbEntity
  8
0
  6
Continuous
 62
     7
370
    15
100
AcDbLine
 10
127.5
 20
8.4
 30
0.0
 11
127.5
 21
4.4
 31
0.0
  0
LINE
  5
142
330
1F
100
AcDbEntity
  8
0
  6
Continuous
 62
     7
370
    15
100
AcDbLine
 10
127.5
 20
8.4
 30
0.0
 11
0.0
 21
8.4
 31
0.0
  0
LINE
  5
143
330
1F
100
AcDbEntity
  8
0
  6
Continuous
 62
     7
370
    15
100
AcDbLine
 10
0.0
 20
20.0
 30
0.0
 11
0.0
 21
8.4
 31
0.0
  0
LINE
  5
144
330
1F
100
AcDbEntity
  8
0
  6
Continuous
 62
     7
370
    15
100
AcDbLine
 10
-4.0
 20
20.0
 30
0.0
 11
0.0
 21
20.0
 31
0.0
  0
LINE
  5
145
330
1F
100
AcDbEntity
  8
0
  6
Continuous
 62
     7
370
    15
100
AcDbLine
 10
-4.0
 20
40.0
 30
0.0
 11
-4.0
 21
20.0
 31
0.0
  0
LINE
  5
146
330
1F
100
AcDbEntity
  8
0
  6
Continuous
 62
     7
370
    15
100
AcDbLine
 10
0.0
 20
40.0
 30
0.0
 11
-4.0
 21
40.0
 31
0.0
  0
LINE
  5
147
330
1F
100
AcDbEntity
  8
0
  6
Continuous
 62
     7
370
    15
100
AcDbLine
 10
0.0
 20
60.0
 30
0.0
 11
0.0
 21
40.0
 31
0.0
  0
LINE
  5
148
330
1F
100
AcDbEntity
  8
0
  6
Continuous
 62
     7
370
    15
100
AcDbLine
 10
-4.0
 20
60.0
 30
0.0
 11
0.0
 21
60.0
 31
0.0
  0
LINE
  5
149
330
1F
100
AcDbEntity
  8
0
  6
Continuous
 62
     7
370
    15
100
AcDbLine
 10
-4.0
 20
80.0
 30
0.0
 11
-4.0
 21
60.0
 31
0.0
  0
LINE
  5
14A
330
1F
100
AcDbEntity
  8
0
  6
Continuous
 62
     7
370
    15
100
AcDbLine
 10
0.0
 20
80.0
 30
0.0
 11
-4.0
 21
80.0
 31
0.0
  0
LINE
  5
14B
330
1F
100
AcDbEntity
  8
0
  6
Continuous
 62
     7
370
    15
100
AcDbLine
 10
0.0
 20
115.0
 30
0.0
 11
0.0
 21
80.0
 31
0.0
  0
LINE
  5
14C
330
1F
100
AcDbEntity
  8
0
  6
Continuous
 62
     7
370
    15
100
AcDbLine
 10
30.0
 20
100.0
 30
0.0
 11
30.0
 21
115.0
 31
0.0
  0
LINE
  5
14D
330
1F
100
AcDbEntity
  8
0
  6
Continuous
 62
     7
370
    15
100
AcDbLine
 10
91.0
 20
100.0
 30
0.0
 11
30.0
 21
100.0
 31
0.0
  0
LINE
  5
14E
330
1F
100
AcDbEntity
  8
0
  6
Continuous
 62
     7
370
    15
100
AcDbLine
 10
91.0
 20
100.0
 30
0.0
 11
91.0
 21
49.6
 31
0.0
  0
LINE
  5
14F
330
1F
100
AcDbEntity
  8
0
  6
Continuous
 62
     7
370
    15
100
AcDbLine
 10
91.0
 20
49.6
 30
0.0
 11
95.0
 21
49.6
 31
0.0
  0
LINE
  5
150
330
1F
100
AcDbEntity
  8
0
  6
Continuous
 62
     7
370
    15
100
AcDbLine
 10
95.0
 20
115.0
 30
0.0
 11
95.0
 21
49.6
 31
0.0
  0
LINE
  5
151
330
1F
100
AcDbEntity
  8
0
  6
Continuous
 62
     7
370
    15
100
AcDbLine
 10
125.0
 20
100.0
 30
0.0
 11
125.0
 21
115.0
 31
0.0
  0
LINE
  5
152
330
1F
100
AcDbEntity
  8
0
  6
Continuous
 62
     7
370
    15
100
AcDbLine
 10
186.0
 20
100.0
 30
0.0
 11
125.0
 21
100.0
 31
0.0
  0
LINE
  5
153
330
1F
100
AcDbEntity
  8
0
  6
Continuous
 62
     7
370
    15
100
AcDbLine
 10
186.0
 20
100.0
 30
0.0
 11
186.0
 21
49.6
 31
0.0
  0
LINE
  5
154
330
1F
100
AcDbEntity
  8
0
  6
Continuous
 62
     7
370
    15
100
AcDbLine
 10
186.0
 20
49.6
 30
0.0
 11
190.0
 21
49.6
 31
0.0
  0
LINE
  5
155
330
1F
100
AcDbEntity
  8
0
  6
Continuous
 62
     7
370
    15
100
AcDbLine
 10
190.0
 20
115.0
 30
0.0
 11
190.0
 21
49.6
 31
0.0
  0
LINE
  5
156
330
1F
100
AcDbEntity
  8
0
  6
Continuous
 62
     7
370
    15
100
AcDbLine
 10
220.0
 20
100.0
 30
0.0
 11
220.0
 21
115.0
 31
0.0
  0
LINE
  5
157
330
1F
100
AcDbEntity
  8
0
  6
Continuous
 62
     7
370
    15
100
AcDbLine
 10
281.0
 20
100.0
 30
0.0
 11
220.0
 21
100.0
 31
0.0
  0
LINE
  5
158
330
1F
100
AcDbEntity
  8
0
  6
Continuous
 62
     7
370
    15
100
AcDbLine
 10
281.0
 20
100.0
 30
0.0
 11
281.0
 21
49.6
 31
0.0
  0
LINE
  5
159
330
1F
100
AcDbEntity
  8
0
  6
Continuous
 62
     7
370
    15
100
AcDbLine
 10
281.0
 20
49.6
 30
0.0
 11
285.0
 21
49.6
 31
0.0
  0
LINE
  5
15A
330
1F
100
AcDbEntity
  8
0
  6
Continuous
 62
     7
370
    15
100
AcDbLine
 10
285.0
 20
115.0
 30
0.0
 11
285.0
 21
49.6
 31
0.0
  0
LINE
  5
15B
330
1F
100
AcDbEntity
  8
0
  6
Continuous
 62
     7
370
    15
100
AcDbLine
 10
315.0
 20
100.0
 30
0.0
 11
315.0
 21
115.0
 31
0.0
  0
LINE
  5
15C
330
1F
100
AcDbEntity
  8
0
  6
Continuous
 62
     7
370
    15
100
AcDbLine
 10
376.0
 20
100.0
 30
0.0
 11
315.0
 21
100.0
 31
0.0
  0
LINE
  5
15D
330
1F
100
AcDbEntity
  8
0
  6
Continuous
 62
     7
370
    15
100
AcDbLine
 10
376.0
 20
100.0
 30
0.0
 11
376.0
 21
49.6
 31
0.0
  0
LINE
  5
15E
330
1F
100
AcDbEntity
  8
0
  6
Continuous
 62
     7
370
    15
100
AcDbLine
 10
376.0
 20
49.6
 30
0.0
 11
380.0
 21
49.6
 31
0.0
  0
LINE
  5
15F
330
1F
100
AcDbEntity
  8
0
  6
Continuous
 62
     7
370
    15
100
AcDbLine
 10
380.0
 20
115.0
 30
0.0
 11
380.0
 21
49.6
 31
0.0
  0
LINE
  5
160
330
1F
100
AcDbEntity
  8
0
  6
Continuous
 62
     7
370
    15
100
AcDbLine
 10
307.5
 20
8.4
 30
0.0
 11
167.5
 21
8.4
 31
0.0
  0
LINE
  5
161
330
1F
100
AcDbEntity
  8
0
  6
Continuous
 62
     7
370
    15
100
AcDbLine
 10
306.3461538462
 20
110.5769230769
 30
0.0
 11
306.3461538462
 21
115.5709134615
 31
0.0
  0
LINE
  5
162
330
1F
100
AcDbEntity
  8
0
  6
Continuous
 62
     7
370
    15
100
AcDbLine
 10
302.9146634615
 20
110.5769230769
 30
0.0
 11
306.3461538462
 21
110.5769230769
 31
0.0
  0
LINE
  5
163
330
1F
100
AcDbEntity
  8
0
  6
Continuous
 62
     7
370
    15
100
AcDbLine
 10
306.3461538462
 20
115.5709134615
 30
0.0
 11
302.9146634615
 21
110.5769230769
 31
0.0
  0
ARC
  5
164
330
1F
100
AcDbEntity
  8
0
  6
Continuous
 62
     7
370
    15
100
AcDbCircle
 10
395.0
 20
115.0
 30
0.0
 40
15.00000000000006
100
AcDbArc
 50
0.0
 51
180.0
  0
ARC
  5
165
330
1F
100
AcDbEntity
  8
0
  6
Continuous
 62
     7
370
    15
100
AcDbCircle
 10
15.0
 20
115.0
 30
0.0
 40
15.0
100
AcDbArc
 50
0.0
 51
180.0
  0
ARC
  5
166
330
1F
100
AcDbEntity
  8
0
  6
Continuous
 62
     7
370
    15
100
AcDbCircle
 10
110.0
 20
115.0
 30
0.0
 40
15.0
100
AcDbArc
 50
0.0
 51
180.0
  0
ARC
  5
167
330
1F
100
AcDbEntity
  8
0
  6
Continuous
 62
     7
370
    15
100
AcDbCircle
 10
205.0
 20
115.0
 30
0.0
 40
15.00000000000003
100
AcDbArc
 50
0.0
 51
180.0
  0
ARC
  5
168
330
1F
100
AcDbEntity
  8
0
  6
Continuous
 62
     7
370
    15
100
AcDbCircle
 10
300.0
 20
115.0
 30
0.0
 40
15.0
100
AcDbArc
 50
0.0
 51
180.0
  0
ENDSEC
  0
SECTION
  2
OBJECTS
  0
DICTIONARY
  5
C
330
0
100
AcDbDictionary
281
     1
  3
ACAD_GROUP
350
D
  3
ACAD_LAYOUT
350
1A
  3
ACAD_MLINESTYLE
350
17
  3
ACAD_PLOTSETTINGS
350
19
  3
ACAD_PLOTSTYLENAME
350
E
  0
DICTIONARY
  5
D
102
{ACAD_REACTORS
330
C
102
}
330
C
100
AcDbDictionary
281
     1
  0
DICTIONARY
  5
1A
102
{ACAD_REACTORS
330
C
102
}
330
C
100
AcDbDictionary
281
     1
  3
Layout1
350
1E
  3
Layout2
350
26
  3
Model
350
22
  0
DICTIONARY
  5
17
102
{ACAD_REACTORS
330
C
102
}
330
C
100
AcDbDictionary
281
     1
  3
Standard
350
18
  0
DICTIONARY
  5
19
102
{ACAD_REACTORS
330
C
102
}
330
C
100
AcDbDictionary
281
     1
  0
ACDBDICTIONARYWDFLT
  5
E
102
{ACAD_REACTORS
330
C
102
}
330
C
100
AcDbDictionary
281
     1
  3
Normal
350
F
100
AcDbDictionaryWithDefault
340
F
  0
LAYOUT
  5
1E
102
{ACAD_REACTORS
330
1A
102
}
330
1A
100
AcDbPlotSettings
  1

  2
none_device
  4

  6

 40
0.0
 41
0.0
 42
0.0
 43
0.0
 44
0.0
 45
0.0
 46
0.0
 47
0.0
 48
0.0
 49
0.0
140
0.0
141
0.0
142
1.0
143
1.0
 70
   688
 72
     0
 73
     0
 74
     5
  7

 75
    16
147
1.0
148
0.0
149
0.0
100
AcDbLayout
  1
Layout1
 70
     1
 71
     1
 10
0.0
 20
0.0
 11
420.0
 21
297.0
 12
0.0
 22
0.0
 32
0.0
 14
1.0000000000E+20
 24
1.0000000000E+20
 34
1.0000000000E+20
 15
-1.0000000000E+20
 25
-1.0000000000E+20
 35
-1.0000000000E+20
146
0.0
 13
0.0
 23
0.0
 33
0.0
 16
1.0
 26
0.0
 36
0.0
 17
0.0
 27
1.0
 37
0.0
 76
     0
330
1B
  0
LAYOUT
  5
26
102
{ACAD_REACTORS
330
1A
102
}
330
1A
100
AcDbPlotSettings
  1

  2
none_device
  4

  6

 40
0.0
 41
0.0
 42
0.0
 43
0.0
 44
0.0
 45
0.0
 46
0.0
 47
0.0
 48
0.0
 49
0.0
140
0.0
141
0.0
142
1.0
143
1.0
 70
   688
 72
     0
 73
     0
 74
     5
  7

 75
    16
147
1.0
148
0.0
149
0.0
100
AcDbLayout
  1
Layout2
 70
     1
 71
     2
 10
0.0
 20
0.0
 11
0.0
 21
0.0
 12
0.0
 22
0.0
 32
0.0
 14
0.0
 24
0.0
 34
0.0
 15
0.0
 25
0.0
 35
0.0
146
0.0
 13
0.0
 23
0.0
 33
0.0
 16
1.0
 26
0.0
 36
0.0
 17
0.0
 27
1.0
 37
0.0
 76
     0
330
23
  0
LAYOUT
  5
22
102
{ACAD_REACTORS
330
1A
102
}
330
1A
100
AcDbPlotSettings
  1

  2
none_device
  4
ANSI_A_(11.00_x_8.50_Inches)
  6

 40
6.35
 41
19.05
 42
6.35000508
 43
19.05000254
 44
279.4
 45
215.9
 46
-2.6622696207
 47
50.4156856865
 48
0.0
 49
0.0
140
0.0
141
0.0
142
0.0225465839
143
1.0
 70
  1696
 72
     0
 73
     0
 74
     0
  7

 75
     0
147
0.0179189148
148
0.0
149
0.0
100
AcDbLayout
  1
Model
 70
     1
 71
     0
 10
0.0
 20
0.0
 11
420.0
 21
297.0
 12
0.0
 22
0.0
 32
0.0
 14
-4.0
 24
4.4
 34
0.0
 15
479.0
 25
130.0
 35
0.0
146
0.0
 13
0.0
 23
0.0
 33
0.0
 16
1.0
 26
0.0
 36
0.0
 17
0.0
 27
1.0
 37
0.0
 76
     0
330
1F
331
29
  0
MLINESTYLE
  5
18
102
{ACAD_REACTORS
330
17
102
}
330
17
100
AcDbMlineStyle
  2
Standard
 70
     0
  3

 62
   256
 51
90.0
 52
90.0
 71
     2
 49
0.5
 62
   256
  6
BYLAYER
 49
-0.5
 62
   256
  6
BYLAYER
  0
ACDBPLACEHOLDER
  5
F
102
{ACAD_REACTORS
330
E
102
}
330
E
  0
ENDSEC
  0
EOF
