  0
SECTION
  2
HEADER
  9
$ACADVER
  1
AC1015
  9
$ACADMAINTVER
 70
     6
  9
$DWGCODEPAGE
  3
ANSI_1251
  9
$INSBASE
 10
0.0
 20
0.0
 30
0.0
  9
$EXTMIN
 10
-4.0
 20
4.4
 30
0.0
  9
$EXTMAX
 10
479.0
 20
130.0
 30
0.0
  9
$LIMMIN
 10
0.0
 20
0.0
  9
$LIMMAX
 10
420.0
 20
297.0
  9
$ORTHOMODE
 70
     0
  9
$REGENMODE
 70
     1
  9
$FILLMODE
 70
     1
  9
$QTEXTMODE
 70
     0
  9
$MIRRTEXT
 70
     1
  9
$LTSCALE
 40
1.0
  9
$ATTMODE
 70
     1
  9
$TEXTSIZE
 40
4.0
  9
$TRACEWID
 40
1.0
  9
$TEXTSTYLE
  7
Standard
  9
$CLAYER
  8
0
  9
$CELTYPE
  6
ByLayer
  9
$CECOLOR
 62
   256
  9
$CELTSCALE
 40
1.0
  9
$DISPSILH
 70
     0
  9
$DIMSCALE
 40
1.0
  9
$DIMASZ
 40
6.0
  9
$DIMEXO
 40
1.0
  9
$DIMDLI
 40
3.75
  9
$DIMRND
 40
0.0
  9
$DIMDLE
 40
0.0
  9
$DIMEXE
 40
1.0
  9
$DIMTP
 40
0.0
  9
$DIMTM
 40
0.0
  9
$DIMTXT
 40
4.0
  9
$DIMCEN
 40
2.5
  9
$DIMTSZ
 40
0.0
  9
$DIMTOL
 70
     0
  9
$DIMLIM
 70
     0
  9
$DIMTIH
 70
     1
  9
$DIMTOH
 70
     1
  9
$DIMSE1
 70
     0
  9
$DIMSE2
 70
     0
  9
$DIMTAD
 70
     1
  9
$DIMZIN
 70
     0
  9
$DIMBLK
  1

  9
$DIMASO
 70
     1
  9
$DIMSHO
 70
     1
  9
$DIMPOST
  1

  9
$DIMAPOST
  1

  9
$DIMALT
 70
     0
  9
$DIMALTD
 70
     3
  9
$DIMALTF
 40
0.0393700787
  9
$DIMLFAC
 40
1.0
  9
$DIMTOFL
 70
     1
  9
$DIMTVP
 40
0.0
  9
$DIMTIX
 70
     0
  9
$DIMSOXD
 70
     0
  9
$DIMSAH
 70
     0
  9
$DIMBLK1
  1

  9
$DIMBLK2
  1

  9
$DIMSTYLE
  2
ISO-25
  9
$DIMCLRD
 70
     0
  9
$DIMCLRE
 70
     0
  9
$DIMCLRT
 70
     0
  9
$DIMTFAC
 40
1.0
  9
$DIMGAP
 40
3.0
  9
$DIMJUST
 70
     0
  9
$DIMSD1
 70
     0
  9
$DIMSD2
 70
     0
  9
$DIMTOLJ
 70
     0
  9
$DIMTZIN
 70
     0
  9
$DIMALTZ
 70
     0
  9
$DIMALTTZ
 70
     0
  9
$DIMUPT
 70
     0
  9
$DIMDEC
 70
     2
  9
$DIMTDEC
 70
     4
  9
$DIMALTU
 70
     2
  9
$DIMALTTD
 70
     3
  9
$DIMTXSTY
  7
Standard
  9
$DIMAUNIT
 70
     0
  9
$DIMADEC
 70
     2
  9
$DIMALTRND
 40
0.0
  9
$DIMAZIN
 70
     0
  9
$DIMDSEP
 70
    44
  9
$DIMATFIT
 70
     3
  9
$DIMFRAC
 70
     0
  9
$DIMLDRBLK
  1

  9
$DIMLUNIT
 70
     2
  9
$DIMLWD
 70
    -2
  9
$DIMLWE
 70
    -2
  9
$DIMTMOVE
 70
     0
  9
$LUNITS
 70
     2
  9
$LUPREC
 70
     2
  9
$SKETCHINC
 40
1.0
  9
$FILLETRAD
 40
10.0
  9
$AUNITS
 70
     0
  9
$AUPREC
 70
     2
  9
$MENU
  1
.
  9
$ELEVATION
 40
0.0
  9
$PELEVATION
 40
0.0
  9
$THICKNESS
 40
0.0
  9
$LIMCHECK
 70
     0
  9
$CHAMFERA
 40
10.0
  9
$CHAMFERB
 40
10.0
  9
$CHAMFERC
 40
20.0
  9
$CHAMFERD
 40
0.0
  9
$SKPOLY
 70
     0
  9
$TDCREATE
 40
2460389.919473333
  9
$TDUCREATE
 40
2460389.83614
  9
$TDUPDATE
 40
2460389.919500208
  9
$TDUUPDATE
 40
2460389.836166875
  9
$TDINDWG
 40
0.0000000116
  9
$TDUSRTIMER
 40
0.0000000116
  9
$USRTIMER
 70
     1
  9
$ANGBASE
 50
0.0
  9
$ANGDIR
 70
     0
  9
$PDMODE
 70
     0
  9
$PDSIZE
 40
-1.0
  9
$PLINEWID
 40
0.0
  9
$SPLFRAME
 70
     0
  9
$SPLINETYPE
 70
     6
  9
$SPLINESEGS
 70
     8
  9
$HANDSEED
  5
14E
  9
$SURFTAB1
 70
     6
  9
$SURFTAB2
 70
     6
  9
$SURFTYPE
 70
     6
  9
$SURFU
 70
     6
  9
$SURFV
 70
     6
  9
$UCSBASE
  2

  9
$UCSNAME
  2

  9
$UCSORG
 10
0.0
 20
0.0
 30
0.0
  9
$UCSXDIR
 10
1.0
 20
0.0
 30
0.0
  9
$UCSYDIR
 10
0.0
 20
1.0
 30
0.0
  9
$UCSORTHOREF
  2

  9
$UCSORTHOVIEW
 70
     0
  9
$UCSORGTOP
 10
0.0
 20
0.0
 30
0.0
  9
$UCSORGBOTTOM
 10
0.0
 20
0.0
 30
0.0
  9
$UCSORGLEFT
 10
0.0
 20
0.0
 30
0.0
  9
$UCSORGRIGHT
 10
0.0
 20
0.0
 30
0.0
  9
$UCSORGFRONT
 10
0.0
 20
0.0
 30
0.0
  9
$UCSORGBACK
 10
0.0
 20
0.0
 30
0.0
  9
$PUCSBASE
  2

  9
$PUCSNAME
  2

  9
$PUCSORG
 10
0.0
 20
0.0
 30
0.0
  9
$PUCSXDIR
 10
1.0
 20
0.0
 30
0.0
  9
$PUCSYDIR
 10
0.0
 20
1.0
 30
0.0
  9
$PUCSORTHOREF
  2

  9
$PUCSORTHOVIEW
 70
     0
  9
$PUCSORGTOP
 10
0.0
 20
0.0
 30
0.0
  9
$PUCSORGBOTTOM
 10
0.0
 20
0.0
 30
0.0
  9
$PUCSORGLEFT
 10
0.0
 20
0.0
 30
0.0
  9
$PUCSORGRIGHT
 10
0.0
 20
0.0
 30
0.0
  9
$PUCSORGFRONT
 10
0.0
 20
0.0
 30
0.0
  9
$PUCSORGBACK
 10
0.0
 20
0.0
 30
0.0
  9
$USERI1
 70
     0
  9
$USERI2
 70
     0
  9
$USERI3
 70
     0
  9
$USERI4
 70
     0
  9
$USERI5
 70
     0
  9
$USERR1
 40
0.0
  9
$USERR2
 40
0.0
  9
$USERR3
 40
0.0
  9
$USERR4
 40
0.0
  9
$USERR5
 40
0.0
  9
$WORLDVIEW
 70
     1
  9
$SHADEDGE
 70
     3
  9
$SHADEDIF
 70
    70
  9
$TILEMODE
 70
     1
  9
$MAXACTVP
 70
    64
  9
$PINSBASE
 10
0.0
 20
0.0
 30
0.0
  9
$PLIMCHECK
 70
     0
  9
$PEXTMIN
 10
1.0000000000E+20
 20
1.0000000000E+20
 30
1.0000000000E+20
  9
$PEXTMAX
 10
-1.0000000000E+20
 20
-1.0000000000E+20
 30
-1.0000000000E+20
  9
$PLIMMIN
 10
0.0
 20
0.0
  9
$PLIMMAX
 10
420.0
 20
297.0
  9
$UNITMODE
 70
     0
  9
$VISRETAIN
 70
     1
  9
$PLINEGEN
 70
     0
  9
$PSLTSCALE
 70
     1
  9
$TREEDEPTH
 70
  3020
  9
$CMLSTYLE
  2
Standard
  9
$CMLJUST
 70
     0
  9
$CMLSCALE
 40
20.0
  9
$PROXYGRAPHICS
 70
     1
  9
$MEASUREMENT
 70
     1
  9
$CELWEIGHT
370
    -1
  9
$ENDCAPS
280
     0
  9
$JOINSTYLE
280
     0
  9
$LWDISPLAY
290
     1
  9
$INSUNITS
 70
     4
  9
$HYPERLINKBASE
  1

  9
$STYLESHEET
  1

  9
$XEDIT
290
     1
  9
$CEPSNTYPE
380
     0
  9
$PSTYLEMODE
290
     1
  9
$FINGERPRINTGUID
  2
{4A553CC3-B507-4926-A318-97AA391238CC}
  9
$VERSIONGUID
  2
{FAEB1C32-E019-11D5-929B-00C0DF256EC4}
  9
$EXTNAMES
290
     1
  9
$PSVPSCALE
 40
0.0
  9
$OLESTARTUP
290
     0
  0
ENDSEC
  0
SECTION
  2
CLASSES
  0
CLASS
  1
ACDBDICTIONARYWDFLT
  2
AcDbDictionaryWithDefault
  3
ObjectDBX Classes
 90
        0
280
     0
281
     0
  0
CLASS
  1
VISUALSTYLE
  2
AcDbVisualStyle
  3
ObjectDBX Classes
 90
     4095
280
     0
281
     0
  0
CLASS
  1
MATERIAL
  2
AcDbMaterial
  3
ObjectDBX Classes
 90
     1153
280
     0
281
     0
  0
CLASS
  1
ACDBPLACEHOLDER
  2
AcDbPlaceHolder
  3
ObjectDBX Classes
 90
        0
280
     0
281
     0
  0
CLASS
  1
LAYOUT
  2
AcDbLayout
  3
ObjectDBX Classes
 90
        0
280
     0
281
     0
  0
ENDSEC
  0
SECTION
  2
TABLES
  0
TABLE
  2
VPORT
  5
8
330
0
100
AcDbSymbolTable
 70
     1
  0
VPORT
  5
29
330
8
100
AcDbSymbolTableRecord
100
AcDbViewportTableRecord
  2
*Active
 70
     0
 10
0.0
 20
0.0
 11
1.0
 21
1.0
 12
237.5
 22
67.2
 13
0.0
 23
0.0
 14
10.0
 24
10.0
 15
10.0
 25
10.0
 16
0.0
 26
0.0
 36
1.0
 17
0.0
 27
0.0
 37
0.0
 40
128.112
 41
3.8455414013
 42
50.0
 43
0.0
 44
0.0
 50
0.0
 51
0.0
 71
     0
 72
   100
 73
     1
 74
     3
 75
     0
 76
     0
 77
     0
 78
     0
281
     0
 65
     1
110
0.0
120
0.0
130
0.0
111
1.0
121
0.0
131
0.0
112
0.0
122
1.0
132
0.0
 79
     0
146
0.0
  0
ENDTAB
  0
TABLE
  2
LTYPE
  5
5
330
0
100
AcDbSymbolTable
 70
     6
  0
LTYPE
  5
14
330
5
100
AcDbSymbolTableRecord
100
AcDbLinetypeTableRecord
  2
ByBlock
 70
     0
  3

 72
    65
 73
     0
 40
0.0
  0
LTYPE
  5
15
330
5
100
AcDbSymbolTableRecord
100
AcDbLinetypeTableRecord
  2
ByLayer
 70
     0
  3

 72
    65
 73
     0
 40
0.0
  0
LTYPE
  5
16
330
5
100
AcDbSymbolTableRecord
100
AcDbLinetypeTableRecord
  2
Continuous
 70
     0
  3
Solid line
 72
    65
 73
     0
 40
0.0
  0
LTYPE
  5
3F
330
5
100
AcDbSymbolTableRecord
100
AcDbLinetypeTableRecord
  2
HIDDEN
 70
     0
  3
Hidden __ __ __ __ __ __ __ __ __ __ __ __ __ __
 72
    65
 73
     2
 40
1.905
 49
1.27
 74
     0
 49
-0.635
 74
     0
  0
LTYPE
  5
40
330
5
100
AcDbSymbolTableRecord
100
AcDbLinetypeTableRecord
  2
PHANTOM
 70
     0
  3
Phantom ______  __  __  ______  __  __  ______
 72
    65
 73
     6
 40
12.7
 49
6.35
 74
     0
 49
-1.27
 74
     0
 49
1.27
 74
     0
 49
-1.27
 74
     0
 49
1.27
 74
     0
 49
-1.27
 74
     0
  0
LTYPE
  5
41
330
5
100
AcDbSymbolTableRecord
100
AcDbLinetypeTableRecord
  2
CENTER
 70
     0
  3
Center ____ _ ____ _ ____ _ ____ _ ____ _ ____
 72
    65
 73
     4
 40
10.16
 49
6.35
 74
     0
 49
-1.27
 74
     0
 49
1.27
 74
     0
 49
-1.27
 74
     0
  0
LTYPE
  5
42
330
5
100
AcDbSymbolTableRecord
100
AcDbLinetypeTableRecord
  2
CENTERX2
 70
     0
  3
Center (2x) ________  __  ________  __  _____
 72
    65
 73
     4
 40
20.32
 49
12.7
 74
     0
 49
-2.54
 74
     0
 49
2.54
 74
     0
 49
-2.54
 74
     0
  0
LTYPE
  5
43
330
5
100
AcDbSymbolTableRecord
100
AcDbLinetypeTableRecord
  2
DOT2
 70
     0
  3
Dot (.5x) ........................................
 72
    65
 73
     2
 40
0.635
 49
0.0
 74
     0
 49
-0.635
 74
     0
  0
ENDTAB
  0
TABLE
  2
LAYER
  5
2
330
0
100
AcDbSymbolTable
 70
     1
  0
LAYER
  5
10
330
2
100
AcDbSymbolTableRecord
100
AcDbLayerTableRecord
  2
0
 70
     0
 62
     7
  6
Continuous
370
    -3
390
F
  0
ENDTAB
  0
TABLE
  2
STYLE
  5
3
330
0
100
AcDbSymbolTable
 70
     1
  0
STYLE
  5
11
330
3
100
AcDbSymbolTableRecord
100
AcDbTextStyleTableRecord
  2
Standard
 70
     0
 40
0.0
 41
1.0
 50
0.0
 71
     0
 42
4.0
  3
txt
  4

  0
ENDTAB
  0
TABLE
  2
VIEW
  5
6
330
0
100
AcDbSymbolTable
 70
     0
  0
ENDTAB
  0
TABLE
  2
UCS
  5
7
330
0
100
AcDbSymbolTable
 70
     0
  0
ENDTAB
  0
TABLE
  2
APPID
  5
9
330
0
100
AcDbSymbolTable
 70
     1
  0
APPID
  5
12
330
9
100
AcDbSymbolTableRecord
100
AcDbRegAppTableRecord
  2
ACAD
 70
     0
  0
ENDTAB
  0
TABLE
  2
DIMSTYLE
  5
A
330
0
100
AcDbSymbolTable
 70
     1
100
AcDbDimStyleTable
  0
DIMSTYLE
105
27
330
A
100
AcDbSymbolTableRecord
100
AcDbDimStyleTableRecord
  2
ISO-25
 70
     0
 41
2.5
 42
0.625
 43
3.75
 44
1.25
 73
     0
 74
     0
 77
     1
 78
     8
140
2.5
141
2.5
143
0.0393700787
147
0.625
171
     3
172
     1
178
     0
271
     2
272
     2
274
     3
278
    44
283
     0
284
     8
340
11
  0
ENDTAB
  0
TABLE
  2
BLOCK_RECORD
  5
1
330
0
100
AcDbSymbolTable
 70
     1
  0
BLOCK_RECORD
  5
1F
330
1
100
AcDbSymbolTableRecord
100
AcDbBlockTableRecord
  2
*Model_Space
340
22
  0
BLOCK_RECORD
  5
1B
330
1
100
AcDbSymbolTableRecord
100
AcDbBlockTableRecord
  2
*Paper_Space
340
1E
  0
BLOCK_RECORD
  5
23
330
1
100
AcDbSymbolTableRecord
100
AcDbBlockTableRecord
  2
*Paper_Space0
340
26
  0
ENDTAB
  0
ENDSEC
  0
SECTION
  2
BLOCKS
  0
BLOCK
  5
20
330
1F
100
AcDbEntity
  8
0
100
AcDbBlockBegin
  2
*Model_Space
 70
     0
 10
0.0
 20
0.0
 30
0.0
  3
*Model_Space
  1

  0
ENDBLK
  5
21
330
1F
100
AcDbEntity
  8
0
100
AcDbBlockEnd
  0
BLOCK
  5
1C
330
1B
100
AcDbEntity
 67
     1
  8
0
100
AcDbBlockBegin
  2
*Paper_Space
 70
     0
 10
0.0
 20
0.0
 30
0.0
  3
*Paper_Space
  1

  0
ENDBLK
  5
1D
330
1B
100
AcDbEntity
 67
     1
  8
0
100
AcDbBlockEnd
  0
BLOCK
  5
24
330
23
100
AcDbEntity
  8
0
100
AcDbBlockBegin
  2
*Paper_Space0
 70
     0
 10
0.0
 20
0.0
 30
0.0
  3
*Paper_Space0
  1

  0
ENDBLK
  5
25
330
23
100
AcDbEntity
  8
0
100
AcDbBlockEnd
  0
ENDSEC
  0
SECTION
  2
ENTITIES
  0
SPLINE
  5
44
330
1F
100
AcDbEntity
  8
0
  6
Continuous
 62
     7
370
    15
100
AcDbSpline
210
0.0
220
0.0
230
1.0
 70
     8
 71
     3
 72
    31
 73
    27
 74
     0
 42
0.00000001
 43
0.00000001
 12
1.0
 22
0.0
 32
0.0
 13
1.0
 23
0.0
 33
0.0
 40
0.0
 40
0.0
 40
0.0
 40
0.0
 40
0.0524090873856007
 40
0.1026983221532904
 40
0.1514279672376032
 40
0.199592816480697
 40
0.2472247802437616
 40
0.2954960320817193
 40
0.3447701203765959
 40
0.3959133262698091
 40
0.422465534078465
 40
0.4502083595166742
 40
0.4790082724968172
 40
0.5089694303421395
 40
0.5405736681026462
 40
0.5736803336909938
 40
0.608384669260842
 40
0.6445548787253542
 40
0.6824623283749546
 40
0.7222194592881616
 40
0.7638231652842267
 40
0.807353317562668
 40
0.8525223229992446
 40
0.8996752531256795
 40
0.9488233660788431
 40
1.0
 40
1.0
 40
1.0
 40
1.0
 10
400.673076923077
 20
104.8076923076923
 30
0.0
 10
400.4934906911011
 20
104.8128598386526
 30
0.0
 10
400.1415821648173
 20
104.8229858833095
 30
0.0
 10
399.6277804618678
 20
104.903257926728
 30
0.0
 10
399.1393883613697
 20
105.0318532423445
 30
0.0
 10
398.6781591808916
 20
105.2154530673661
 30
0.0
 10
398.2447528575071
 20
105.4533849702474
 30
0.0
 10
397.835783451273
 20
105.7385997057642
 30
0.0
 10
397.4601484733124
 20
106.0840118773555
 30
0.0
 10
397.1660672751464
 20
106.4055715531548
 30
0.0
 10
396.9509165838689
 20
106.6961243669365
 30
0.0
 10
396.7991721451488
 20
106.9370611558031
 30
0.0
 10
396.6525273171636
 20
107.1948731372414
 30
0.0
 10
396.5259552033385
 20
107.4776208058158
 30
0.0
 10
396.4010805669541
 20
107.7769413354958
 30
0.0
 10
396.2904808806134
 20
108.099285493493
 30
0.0
 10
396.1929033059222
 20
108.4418814348103
 30
0.0
 10
396.1012841711498
 20
108.8031647645116
 30
0.0
 10
396.0248873115859
 20
109.1856240238478
 30
0.0
 10
395.9546134144631
 20
109.5881305580731
 30
0.0
 10
395.8992337934937
 20
110.0123961248087
 30
0.0
 10
395.8501340539347
 20
110.4560576221048
 30
0.0
 10
395.8155650269509
 20
110.9201623599715
 30
0.0
 10
395.7874905663402
 20
111.4039508561236
 30
0.0
 10
395.773413159726
 20
111.9089716989945
 30
0.0
 10
395.7706435660394
 20
112.2525976561528
 30
0.0
 10
395.7692307692308
 20
112.4278846153846
 30
0.0
  0
SPLINE
  5
45
330
1F
100
AcDbEntity
  8
0
  6
Continuous
 62
     7
370
    15
100
AcDbSpline
210
0.0
220
0.0
230
1.0
 70
     8
 71
     3
 72
    15
 73
    11
 74
     0
 42
0.00000001
 43
0.00000001
 12
1.0
 22
0.0
 32
0.0
 13
1.0
 23
0.0
 33
0.0
 40
0.0
 40
0.0
 40
0.0
 40
0.0
 40
0.1239539590100968
 40
0.2446910970343217
 40
0.3639282123713528
 40
0.4834467610619753
 40
0.6060135407011129
 40
0.7313153882149244
 40
0.8627627448661773
 40
1.0
 40
1.0
 40
1.0
 40
1.0
 10
404.0925480769231
 20
106.3311298076923
 30
0.0
 10
403.9882338361445
 20
106.2091958934568
 30
0.0
 10
403.7823124907009
 20
105.9684924622935
 30
0.0
 10
403.4263665657234
 20
105.65819233216
 30
0.0
 10
403.0426342827325
 20
105.3939824953378
 30
0.0
 10
402.6261606680031
 20
105.1797299189081
 30
0.0
 10
402.1810777649569
 20
105.0102303400472
 30
0.0
 10
401.7033879723364
 20
104.8949433354253
 30
0.0
 10
401.1982564385382
 20
104.8205225898478
 30
0.0
 10
400.8506337413422
 20
104.8120300703238
 30
0.0
 10
400.673076923077
 20
104.8076923076923
 30
0.0
  0
SPLINE
  5
46
330
1F
100
AcDbEntity
  8
0
  6
Continuous
 62
     7
370
    15
100
AcDbSpline
210
0.0
220
0.0
230
1.0
 70
     8
 71
     3
 72
    23
 73
    19
 74
     0
 42
0.00000001
 43
0.00000001
 12
1.0
 22
0.0
 32
0.0
 13
1.0
 23
0.0
 33
0.0
 40
0.0
 40
0.0
 40
0.0
 40
0.0
 40
0.081774197655007
 40
0.1602856044887694
 40
0.2360294122889206
 40
0.3091179242207138
 40
0.3795303287483518
 40
0.4473768333769211
 40
0.5123574098506742
 40
0.5747492166038553
 40
0.6349413611576089
 40
0.6929409366900141
 40
0.7487078215596595
 40
0.8027019362432201
 40
0.8542794711661318
 40
0.9042287096499334
 40
0.9527348360365508
 40
1.0
 40
1.0
 40
1.0
 40
1.0
 10
405.5769230769231
 20
112.3978365384616
 30
0.0
 10
405.5759284453988
 20
112.2245362991171
 30
0.0
 10
405.573978868152
 20
111.8848505006875
 30
0.0
 10
405.5539898545069
 20
111.3850346851869
 30
0.0
 10
405.5297818826361
 20
110.9037977858402
 30
0.0
 10
405.4856320800482
 20
110.4411857300461
 30
0.0
 10
405.4355831781024
 20
109.9961344610164
 30
0.0
 10
405.3745136878088
 20
109.5695982209501
 30
0.0
 10
405.2929768432546
 20
109.1639469517371
 30
0.0
 10
405.2122083201079
 20
108.7746884998172
 30
0.0
 10
405.112100939392
 20
108.4050938160271
 30
0.0
 10
405.0002736863891
 20
108.0538020582234
 30
0.0
 10
404.8819730870572
 20
107.7183537971301
 30
0.0
 10
404.7458793470787
 20
107.4044995482627
 30
0.0
 10
404.6019970113643
 20
107.1078352759324
 30
0.0
 10
404.44524231982
 20
106.8310357495447
 30
0.0
 10
404.2778764924138
 20
106.571131711423
 30
0.0
 10
404.1537882550811
 20
106.4104363689869
 30
0.0
 10
404.0925480769231
 20
106.3311298076923
 30
0.0
  0
SPLINE
  5
47
330
1F
100
AcDbEntity
  8
0
  6
Continuous
 62
     7
370
    15
100
AcDbSpline
210
0.0
220
0.0
230
1.0
 70
     8
 71
     3
 72
    23
 73
    19
 74
     0
 42
0.00000001
 43
0.00000001
 12
1.0
 22
0.0
 32
0.0
 13
1.0
 23
0.0
 33
0.0
 40
0.0
 40
0.0
 40
0.0
 40
0.0
 40
0.0466726066463378
 40
0.0952506114606183
 40
0.1448623308943122
 40
0.1963098397204802
 40
0.2497630016680518
 40
0.3057747701480935
 40
0.3632670724145934
 40
0.4235484122315147
 40
0.4860326738002557
 40
0.5514871797432994
 40
0.6194342221892237
 40
0.6899509667931072
 40
0.7631477843701738
 40
0.8390038325452136
 40
0.9181046258836107
 40
0.9999999999999999
 40
0.9999999999999999
 40
0.9999999999999999
 40
0.9999999999999999
 10
404.1045673076924
 20
118.4585336538462
 30
0.0
 10
404.1647876978735
 20
118.380206482395
 30
0.0
 10
404.2876869614739
 20
118.2203544511759
 30
0.0
 10
404.4532046436249
 20
117.9620512267026
 30
0.0
 10
404.6123273760057
 20
117.6880484815599
 30
0.0
 10
404.7512259893138
 20
117.3917508703928
 30
0.0
 10
404.8842274333924
 20
117.0783001384547
 30
0.0
 10
405.00748195186
 20
116.7469820731707
 30
0.0
 10
405.1145000103804
 20
116.3950592069964
 30
0.0
 10
405.2151977445981
 20
116.0270314831645
 30
0.0
 10
405.2972571605808
 20
115.6371511970575
 30
0.0
 10
405.3730876523347
 20
115.2296273446485
 30
0.0
 10
405.4359545413147
 20
114.8026124347628
 30
0.0
 10
405.4855287928452
 20
114.3574726747238
 30
0.0
 10
405.5298035088804
 20
113.894885325918
 30
0.0
 10
405.5540639096822
 20
113.4126429698841
 30
0.0
 10
405.5739280075716
 20
112.9118224101125
 30
0.0
 10
405.5759132339148
 20
112.5711363782876
 30
0.0
 10
405.5769230769231
 20
112.3978365384616
 30
0.0
  0
SPLINE
  5
48
330
1F
100
AcDbEntity
  8
0
  6
Continuous
 62
     7
370
    15
100
AcDbSpline
210
0.0
220
0.0
230
1.0
 70
     8
 71
     3
 72
    15
 73
    11
 74
     0
 42
0.00000001
 43
0.00000001
 12
1.0
 22
0.0
 32
0.0
 13
1.0
 23
0.0
 33
0.0
 40
0.0
 40
0.0
 40
0.0
 40
0.0
 40
0.1373230954754149
 40
0.2673523260794567
 40
0.3929646164629456
 40
0.514920444987024
 40
0.6341998202965401
 40
0.7543524309255328
 40
0.8755754919798928
 40
0.9999999999999999
 40
0.9999999999999999
 40
0.9999999999999999
 40
0.9999999999999999
 10
400.673076923077
 20
120.0
 30
0.0
 10
400.8516268990862
 20
119.9956934905998
 30
0.0
 10
401.1992432358884
 20
119.9873092104361
 30
0.0
 10
401.70575851508
 20
119.9130396618467
 30
0.0
 10
402.1826678584513
 20
119.7939525825742
 30
0.0
 10
402.6299362686356
 20
119.6256145562206
 30
0.0
 10
403.0471447301373
 20
119.4070179017897
 30
0.0
 10
403.4315142132648
 20
119.1372284637029
 30
0.0
 10
403.7914437121386
 20
118.8243334601921
 30
0.0
 10
403.9992898449015
 20
118.5815217519912
 30
0.0
 10
404.1045673076923
 20
118.4585336538462
 30
0.0
  0
SPLINE
  5
49
330
1F
100
AcDbEntity
  8
0
  6
Continuous
 62
     7
370
    15
100
AcDbSpline
210
0.0
220
0.0
230
1.0
 70
     8
 71
     3
 72
    15
 73
    11
 74
     0
 42
0.00000001
 43
0.00000001
 12
1.0
 22
0.0
 32
0.0
 13
1.0
 23
0.0
 33
0.0
 40
0.0
 40
0.0
 40
0.0
 40
0.0
 40
0.1239584095619949
 40
0.244699882638547
 40
0.3639412791697722
 40
0.484152368181701
 40
0.6059993946649777
 40
0.7313057411264451
 40
0.8627578173791424
 40
1.0
 40
1.0
 40
1.0
 40
1.0
 10
397.2536057692308
 20
118.4765625
 30
0.0
 10
397.3579142732564
 20
118.5985081442683
 30
0.0
 10
397.5638242940727
 20
118.839234731082
 30
0.0
 10
397.9198531231211
 20
119.1493653459061
 30
0.0
 10
398.304009658256
 20
119.4147156272481
 30
0.0
 10
398.7217021107354
 20
119.6264037008333
 30
0.0
 10
399.1657646978193
 20
119.7982270422084
 30
0.0
 10
399.6428293424104
 20
119.9125940776191
 30
0.0
 10
400.1478803925389
 20
119.987211243018
 30
0.0
 10
400.4955143522208
 20
119.9956762765256
 30
0.0
 10
400.673076923077
 20
120.0
 30
0.0
  0
SPLINE
  5
4A
330
1F
100
AcDbEntity
  8
0
  6
Continuous
 62
     7
370
    15
100
AcDbSpline
210
0.0
220
0.0
230
1.0
 70
     8
 71
     3
 72
    23
 73
    19
 74
     0
 42
0.00000001
 43
0.00000001
 12
1.0
 22
0.0
 32
0.0
 13
1.0
 23
0.0
 33
0.0
 40
0.0
 40
0.0
 40
0.0
 40
0.0
 40
0.0815293207370417
 40
0.1597869902075432
 40
0.2357429724720377
 40
0.3085642043478952
 40
0.3791738489489818
 40
0.4467415655470559
 40
0.5119041663922567
 40
0.574572994986333
 40
0.634354082343383
 40
0.6925161269835364
 40
0.7484392267210234
 40
0.8021492625368233
 40
0.8538712770701797
 40
0.9039604339608819
 40
0.9526024362914508
 40
1.0
 40
1.0
 40
1.0
 40
1.0
 10
395.7692307692308
 20
112.4278846153846
 30
0.0
 10
395.7702174585419
 20
112.6001839330332
 30
0.0
 10
395.7721512427791
 20
112.937868451106
 30
0.0
 10
395.7922860243018
 20
113.4356713922985
 30
0.0
 10
395.8161740848946
 20
113.9149322141306
 30
0.0
 10
395.8608044299037
 20
114.376489760573
 30
0.0
 10
395.9101513626986
 20
114.8196406175481
 30
0.0
 10
395.9723523730356
 20
115.2449690409392
 30
0.0
 10
396.0518619622228
 20
115.6502744566943
 30
0.0
 10
396.1384306932396
 20
116.0371745142611
 30
0.0
 10
396.2333906735341
 20
116.4070394083708
 30
0.0
 10
396.3462575022091
 20
116.7567774791436
 30
0.0
 10
396.4633757058818
 20
117.0916783346135
 30
0.0
 10
396.6010600983641
 20
117.4038584823176
 30
0.0
 10
396.7440590813802
 20
117.6998983679337
 30
0.0
 10
396.9009364326946
 20
117.9766460262013
 30
0.0
 10
397.0682713868142
 20
118.236563119454
 30
0.0
 10
397.1923636193534
 20
118.3972567724701
 30
0.0
 10
397.2536057692308
 20
118.4765625
 30
0.0
  0
SPLINE
  5
4B
330
1F
100
AcDbEntity
  8
0
  6
Continuous
 62
     7
370
    15
100
AcDbSpline
210
0.0
220
0.0
230
1.0
 70
     8
 71
     3
 72
    23
 73
    19
 74
     0
 42
0.00000001
 43
0.00000001
 12
1.0
 22
0.0
 32
0.0
 13
1.0
 23
0.0
 33
0.0
 40
0.0
 40
0.0
 40
0.0
 40
0.0
 40
0.0534282928165019
 40
0.1047665906471966
 40
0.1549900948249439
 40
0.2045909534925098
 40
0.2542004774278132
 40
0.3046451619956855
 40
0.3567538328657481
 40
0.4105189630472817
 40
0.4670647379806889
 40
0.5272751162564865
 40
0.5917399516749555
 40
0.6614170385233468
 40
0.7365739223556927
 40
0.817931497604647
 40
0.9055660786144746
 40
1.0
 40
1.0
 40
1.0
 40
1.0
 10
305.477764423077
 20
120.0
 30
0.0
 10
305.6603450540759
 20
119.9949551467832
 30
0.0
 10
306.0183641712816
 20
119.9850627836926
 30
0.0
 10
306.5430810213516
 20
119.9026875999969
 30
0.0
 10
307.0409535515668
 20
119.7625350469489
 30
0.0
 10
307.5169288265409
 20
119.5745928246968
 30
0.0
 10
307.9641462442568
 20
119.3242078838402
 30
0.0
 10
308.3884239736388
 20
119.0220160510127
 30
0.0
 10
308.7840932651558
 20
118.6618479002216
 30
0.0
 10
309.1580815480532
 20
118.2508360103607
 30
0.0
 10
309.4983481662602
 20
117.7759147904985
 30
0.0
 10
309.7880517054695
 20
117.2270289981473
 30
0.0
 10
310.0344764088815
 20
116.6093758482473
 30
0.0
 10
310.2333818762621
 20
115.9216289067943
 30
0.0
 10
310.3888031789654
 20
115.1639645085706
 30
0.0
 10
310.4960730939275
 20
114.3363972252923
 30
0.0
 10
310.5678517966761
 20
113.4387631155212
 30
0.0
 10
310.5738249609862
 20
112.816658781433
 30
0.0
 10
310.5769230769232
 20
112.4939903846154
 30
0.0
  0
SPLINE
  5
4C
330
1F
100
AcDbEntity
  8
0
  6
Continuous
 62
     7
370
    15
100
AcDbSpline
210
0.0
220
0.0
230
1.0
 70
     8
 71
     3
 72
    23
 73
    19
 74
     0
 42
0.00000001
 43
0.00000001
 12
1.0
 22
0.0
 32
0.0
 13
1.0
 23
0.0
 33
0.0
 40
0.0
 40
0.0
 40
0.0
 40
0.0
 40
0.0702401062491064
 40
0.1377810383236608
 40
0.2022781382994817
 40
0.2652493801263771
 40
0.3267062120892937
 40
0.3874492857403316
 40
0.447953853653017
 40
0.5093841167997306
 40
0.5704959252253947
 40
0.6305089817313856
 40
0.6895451741904787
 40
0.7490025483064408
 40
0.8093527413258407
 40
0.8708550931277478
 40
0.9340936515016331
 40
0.9999999999999999
 40
0.9999999999999999
 40
0.9999999999999999
 40
0.9999999999999999
 10
300.7692307692308
 20
115.1171875
 30
0.0
 10
300.7730297982136
 20
115.2956835911176
 30
0.0
 10
300.7804818677762
 20
115.6458165576548
 30
0.0
 10
300.8458588767825
 20
116.1562783426663
 30
0.0
 10
300.945703669024
 20
116.642193058123
 30
0.0
 10
301.0947897478979
 20
117.0992546649785
 30
0.0
 10
301.2803057853395
 20
117.5323720320235
 30
0.0
 10
301.5108866641271
 20
117.9361135563158
 30
0.0
 10
301.7788938087899
 20
118.3160948620526
 30
0.0
 10
302.0920719628577
 20
118.661016886182
 30
0.0
 10
302.432502118441
 20
118.9767594687959
 30
0.0
 10
302.7997445920003
 20
119.2515259509326
 30
0.0
 10
303.1916688611511
 20
119.4811527264885
 30
0.0
 10
303.6048026923832
 20
119.6719808019188
 30
0.0
 10
304.0422452812328
 20
119.8189463805859
 30
0.0
 10
304.5012008498422
 20
119.9236769131906
 30
0.0
 10
304.9821156962904
 20
119.9886153360575
 30
0.0
 10
305.3102884554997
 20
119.9961532078945
 30
0.0
 10
305.477764423077
 20
120.0
 30
0.0
  0
SPLINE
  5
4D
330
1F
100
AcDbEntity
  8
0
  6
Continuous
 62
     7
370
    15
100
AcDbSpline
210
0.0
220
0.0
230
1.0
 70
     8
 71
     3
 72
    23
 73
    19
 74
     0
 42
0.00000001
 43
0.00000001
 12
1.0
 22
0.0
 32
0.0
 13
1.0
 23
0.0
 33
0.0
 40
0.0
 40
0.0
 40
0.0
 40
0.0
 40
0.0612668588685778
 40
0.1209662961677017
 40
0.1793269055240351
 40
0.2378002547117236
 40
0.2962617467870112
 40
0.3558812952642915
 40
0.4167494055312129
 40
0.4795073031032392
 40
0.5429135943641854
 40
0.6052002466384
 40
0.6676813715383232
 40
0.730875470541472
 40
0.7947284631359179
 40
0.860384066169982
 40
0.9287514343155139
 40
1.0
 40
1.0
 40
1.0
 40
1.0
 10
305.1712740384616
 20
110.3846153846154
 30
0.0
 10
305.0238485909159
 20
110.3888434368818
 30
0.0
 10
304.7327693568927
 20
110.3971913729781
 30
0.0
 10
304.304549768137
 20
110.457819200281
 30
0.0
 10
303.8919588862506
 20
110.5612049422422
 30
0.0
 10
303.4943380016418
 20
110.7045729515462
 30
0.0
 10
303.1136972076142
 20
110.8945998126622
 30
0.0
 10
302.7451828988362
 20
111.1186371257327
 30
0.0
 10
302.3967029883892
 20
111.3898203345706
 30
0.0
 10
302.0631728342166
 20
111.6928336378491
 30
0.0
 10
301.7632328440221
 20
112.0339617785414
 30
0.0
 10
301.4953615187031
 20
112.3997444877033
 30
0.0
 10
301.2686883166186
 20
112.7921935888097
 30
0.0
 10
301.085856641886
 20
113.2108919627761
 30
0.0
 10
300.944456622957
 20
113.653174530812
 30
0.0
 10
300.8416534212075
 20
114.1186698558371
 30
0.0
 10
300.7815865530072
 20
114.6098035184697
 30
0.0
 10
300.7734056392255
 20
114.9457485853484
 30
0.0
 10
300.7692307692308
 20
115.1171875
 30
0.0
  0
SPLINE
  5
4E
330
1F
100
AcDbEntity
  8
0
  6
Continuous
 62
     7
370
    15
100
AcDbSpline
210
0.0
220
0.0
230
1.0
 70
     8
 71
     3
 72
    15
 73
    11
 74
     0
 42
0.00000001
 43
0.00000001
 12
1.0
 22
0.0
 32
0.0
 13
1.0
 23
0.0
 33
0.0
 40
0.0
 40
0.0
 40
0.0
 40
0.0
 40
0.1301900769552758
 40
0.2566886321244237
 40
0.3796569215111025
 40
0.5012233733199273
 40
0.6223956310597776
 40
0.7448946318981984
 40
0.8707157349022343
 40
0.9999999999999999
 40
0.9999999999999999
 40
0.9999999999999999
 40
0.9999999999999999
 10
307.9206730769231
 20
111.6316105769231
 30
0.0
 10
307.8283912996419
 20
111.5325633357857
 30
0.0
 10
307.6464443822248
 20
111.3372773244562
 30
0.0
 10
307.3450986644856
 20
111.0810698235867
 30
0.0
 10
307.0242431562779
 20
110.8656663092022
 30
0.0
 10
306.6855193285746
 20
110.692043498116
 30
0.0
 10
306.3324608718893
 20
110.5501930334112
 30
0.0
 10
305.9592632106562
 20
110.4568863500516
 30
0.0
 10
305.5711226547514
 20
110.3928686940421
 30
0.0
 10
305.305757723875
 20
110.3873912738478
 30
0.0
 10
305.1712740384615
 20
110.3846153846154
 30
0.0
  0
SPLINE
  5
4F
330
1F
100
AcDbEntity
  8
0
  6
Continuous
 62
     7
370
    15
100
AcDbSpline
210
0.0
220
0.0
230
1.0
 70
     8
 71
     3
 72
    23
 73
    19
 74
     0
 42
0.00000001
 43
0.00000001
 12
1.0
 22
0.0
 32
0.0
 13
1.0
 23
0.0
 33
0.0
 40
0.0
 40
0.0
 40
0.0
 40
0.0
 40
0.0397939103511711
 40
0.0786441461908162
 40
0.1175749007403503
 40
0.1568659475868287
 40
0.1972185745122382
 40
0.2389183750035546
 40
0.2836471067761009
 40
0.330666009620625
 40
0.382873111049769
 40
0.4434976840441832
 40
0.5126902889279856
 40
0.5905940151895247
 40
0.678390854591419
 40
0.7757338267246144
 40
0.8827034224736395
 40
0.9999999999999999
 40
0.9999999999999999
 40
0.9999999999999999
 40
0.9999999999999999
 10
305.6640625000001
 20
107.3076923076923
 30
0.0
 10
305.7354351223222
 20
107.3093465634492
 30
0.0
 10
305.8764878335132
 20
107.3126158458703
 30
0.0
 10
306.0828308461658
 20
107.3587070760843
 30
0.0
 10
306.2825070146955
 20
107.4233238526282
 30
0.0
 10
306.4734582045194
 20
107.5178975282005
 30
0.0
 10
306.653858925651
 20
107.6396126375235
 30
0.0
 10
306.8281825325854
 20
107.7857217412595
 30
0.0
 10
306.9910819087635
 20
107.9609088509048
 30
0.0
 10
307.1528887195145
 20
108.1619918534087
 30
0.0
 10
307.2993499314965
 20
108.4090135075166
 30
0.0
 10
307.4286102154592
 20
108.708624817912
 30
0.0
 10
307.5492971754826
 20
109.0607427179101
 30
0.0
 10
307.6484347850072
 20
109.4697462928008
 30
0.0
 10
307.7376680397065
 20
109.9321105957335
 30
0.0
 10
307.8152962290287
 20
110.4493153178617
 30
0.0
 10
307.8782771276565
 20
111.021676481683
 30
0.0
 10
307.9061138202762
 20
111.4221521927159
 30
0.0
 10
307.9206730769231
 20
111.6316105769231
 30
0.0
  0
SPLINE
  5
50
330
1F
100
AcDbEntity
  8
0
  6
Continuous
 62
     7
370
    15
100
AcDbSpline
210
0.0
220
0.0
230
1.0
 70
     8
 71
     3
 72
    15
 73
    11
 74
     0
 42
0.00000001
 43
0.00000001
 12
1.0
 22
0.0
 32
0.0
 13
1.0
 23
0.0
 33
0.0
 40
0.0
 40
0.0
 40
0.0
 40
0.0
 40
0.1576427908297452
 40
0.297977244428474
 40
0.4243479229964998
 40
0.5399023001429718
 40
0.6512049489192234
 40
0.7608288691813652
 40
0.8758862599684812
 40
0.9999999999999999
 40
0.9999999999999999
 40
0.9999999999999999
 40
0.9999999999999999
 10
304.0384615384616
 20
109.0384615384616
 30
0.0
 10
304.0573501611999
 20
108.9003547775314
 30
0.0
 10
304.0930535366919
 20
108.6393046410658
 30
0.0
 10
304.2072186512671
 20
108.2810871054151
 30
0.0
 10
304.3503078704741
 20
107.9735986788426
 30
0.0
 10
304.5447571391791
 20
107.7261543905257
 30
0.0
 10
304.7768110623771
 20
107.5372850022419
 30
0.0
 10
305.0425857761115
 20
107.400999156114
 30
0.0
 10
305.3431419157071
 20
107.322494629767
 30
0.0
 10
305.5544222227254
 20
107.3127494176941
 30
0.0
 10
305.6640625000001
 20
107.3076923076923
 30
0.0
  0
SPLINE
  5
52
330
1F
100
AcDbEntity
  8
0
  6
Continuous
 62
     7
370
    15
100
AcDbSpline
210
0.0
220
0.0
230
1.0
 70
     8
 71
     3
 72
    23
 73
    19
 74
     0
 42
0.00000001
 43
0.00000001
 12
1.0
 22
0.0
 32
0.0
 13
1.0
 23
0.0
 33
0.0
 40
0.0
 40
0.0
 40
0.0
 40
0.0
 40
0.066042188683248
 40
0.1295778492903685
 40
0.1906389490435832
 40
0.2496406897267387
 40
0.30692331473211
 40
0.3634138554911048
 40
0.420189127584303
 40
0.4768918382379009
 40
0.5343976327958695
 40
0.5933314940605722
 40
0.6539640631941075
 40
0.7166316030423112
 40
0.7824465528426812
 40
0.8512634545319313
 40
0.9236441324383486
 40
1.0
 40
1.0
 40
1.0
 40
1.0
 10
305.2554086538462
 20
104.8076923076923
 30
0.0
 10
305.1170731060197
 20
104.8105392018515
 30
0.0
 10
304.8456523199259
 20
104.8161249407504
 30
0.0
 10
304.4482733210328
 20
104.8610625725246
 30
0.0
 10
304.0712104765009
 20
104.9391496415787
 30
0.0
 10
303.7157188308771
 20
105.0482022760578
 30
0.0
 10
303.3790239224587
 20
105.1823032459166
 30
0.0
 10
303.0639842589601
 20
105.3524327110592
 30
0.0
 10
302.7705177560728
 20
105.5547019629514
 30
0.0
 10
302.4936273476335
 20
105.7828942703513
 30
0.0
 10
302.2444363678454
 20
106.0474072031522
 30
0.0
 10
302.0152103232915
 20
106.3394489495337
 30
0.0
 10
301.8095794270953
 20
106.6619417761119
 30
0.0
 10
301.634449715722
 20
107.0176576405211
 30
0.0
 10
301.4727877087183
 20
107.3983444060245
 30
0.0
 10
301.3425621548135
 20
107.8124396871962
 30
0.0
 10
301.2339514483365
 20
108.2552708078143
 30
0.0
 10
301.181019478681
 20
108.5623227554927
 30
0.0
 10
301.1538461538462
 20
108.7199519230769
 30
0.0
  0
SPLINE
  5
53
330
1F
100
AcDbEntity
  8
0
  6
Continuous
 62
     7
370
    15
100
AcDbSpline
210
0.0
220
0.0
230
1.0
 70
     8
 71
     3
 72
    23
 73
    19
 74
     0
 42
0.00000001
 43
0.00000001
 12
1.0
 22
0.0
 32
0.0
 13
1.0
 23
0.0
 33
0.0
 40
0.0
 40
0.0
 40
0.0
 40
0.0
 40
0.0929684978981435
 40
0.1796190127419007
 40
0.2599307969998242
 40
0.3342928210780384
 40
0.4033594219391463
 40
0.4674866722224748
 40
0.5275080672266689
 40
0.5839739592262351
 40
0.6379088361798718
 40
0.6900487158246258
 40
0.740832327543182
 40
0.7910762043891693
 40
0.8414806052123229
 40
0.8927076811809764
 40
0.9453694004147262
 40
1.0
 40
1.0
 40
1.0
 40
1.0
 10
310.5769230769232
 20
112.4939903846154
 30
0.0
 10
310.57244521413
 20
112.1663300407434
 30
0.0
 10
310.5637937965821
 20
111.5332765999376
 30
0.0
 10
310.493988739046
 20
110.6193793154862
 30
0.0
 10
310.3835000640478
 20
109.7755370771226
 30
0.0
 10
310.2210518046506
 20
109.0032575988872
 30
0.0
 10
310.0171903254765
 20
108.2997639979656
 30
0.0
 10
309.7608462047951
 20
107.6677360486767
 30
0.0
 10
309.4622900122516
 20
107.1039141409707
 30
0.0
 10
309.1127904377311
 20
106.6134897933443
 30
0.0
 10
308.7285639348372
 20
106.187255846205
 30
0.0
 10
308.3155938325347
 20
105.817992100115
 30
0.0
 10
307.8732881427345
 20
105.5068120521701
 30
0.0
 10
307.4054851834359
 20
105.2472472055907
 30
0.0
 10
306.905190278523
 20
105.0528698879279
 30
0.0
 10
306.379326522597
 20
104.9120473836902
 30
0.0
 10
305.8264793245659
 20
104.8208242268732
 30
0.0
 10
305.4480801635647
 20
104.8121228393652
 30
0.0
 10
305.2554086538462
 20
104.8076923076923
 30
0.0
  0
SPLINE
  5
54
330
1F
100
AcDbEntity
  8
0
  6
Continuous
 62
     7
370
    15
100
AcDbSpline
210
0.0
220
0.0
230
1.0
 70
     8
 71
     3
 72
    15
 73
    11
 74
     0
 42
0.00000001
 43
0.00000001
 12
1.0
 22
0.0
 32
0.0
 13
1.0
 23
0.0
 33
0.0
 40
0.0
 40
0.0
 40
0.0
 40
0.0
 40
0.1378250445885035
 40
0.269592783024251
 40
0.3978336502208065
 40
0.5216191754872626
 40
0.6434058357868958
 40
0.7629099350561935
 40
0.8811660440548124
 40
1.0
 40
1.0
 40
1.0
 40
1.0
 10
210.7542067307693
 20
104.8076923076923
 30
0.0
 10
210.5878342673882
 20
104.8115359679146
 30
0.0
 10
210.2624012841783
 20
104.8190543624084
 30
0.0
 10
209.7839680608106
 20
104.8668371484856
 30
0.0
 10
209.3277199500475
 20
104.9505059972248
 30
0.0
 10
208.8919000207394
 20
105.0689793133067
 30
0.0
 10
208.4759573548883
 20
105.2169067962605
 30
0.0
 10
208.0850655342493
 20
105.4066318281841
 30
0.0
 10
207.7106153615654
 20
105.6207321614415
 30
0.0
 10
207.4822496227516
 20
105.7937092937374
 30
0.0
 10
207.3677884615385
 20
105.8804086538462
 30
0.0
  0
SPLINE
  5
55
330
1F
100
AcDbEntity
  8
0
  6
Continuous
 62
     7
370
    15
100
AcDbSpline
210
0.0
220
0.0
230
1.0
 70
     8
 71
     3
 72
    23
 73
    19
 74
     0
 42
0.00000001
 43
0.00000001
 12
1.0
 22
0.0
 32
0.0
 13
1.0
 23
0.0
 33
0.0
 40
0.0
 40
0.0
 40
0.0
 40
0.0
 40
0.0668544831936687
 40
0.1313598400113226
 40
0.1933762637624024
 40
0.2537274522063264
 40
0.3133539521361047
 40
0.3725413800430923
 40
0.4319434273160819
 40
0.4924424313617355
 40
0.5529988943259269
 40
0.6131309643207256
 40
0.6732985147301087
 40
0.7343813225636241
 40
0.7972597157665736
 40
0.8619070579816477
 40
0.9295700761763761
 40
0.9999999999999999
 40
0.9999999999999999
 40
0.9999999999999999
 40
0.9999999999999999
 10
215.5769230769231
 20
109.4771634615385
 30
0.0
 10
215.5726447147682
 20
109.3087418115959
 30
0.0
 10
215.5642383231348
 20
108.977816495386
 30
0.0
 10
215.505267821348
 20
108.4932564577719
 30
0.0
 10
215.3987566115711
 20
108.0338680485327
 30
0.0
 10
215.2534365520177
 20
107.5984973925755
 30
0.0
 10
215.0722283374263
 20
107.1840283499536
 30
0.0
 10
214.8402646738174
 20
106.7984805809242
 30
0.0
 10
214.5719514335686
 20
106.4349300589459
 30
0.0
 10
214.263034475058
 20
106.1001846186175
 30
0.0
 10
213.9209851038829
 20
105.7969126979564
 30
0.0
 10
213.5502795474716
 20
105.5303927616564
 30
0.0
 10
213.1502581398643
 20
105.3078467893986
 30
0.0
 10
212.7242097865067
 20
105.1222334422089
 30
0.0
 10
212.2689722865671
 20
104.983287291847
 30
0.0
 10
211.7877330475586
 20
104.8797558307752
 30
0.0
 10
211.2795440992817
 20
104.8201439308302
 30
0.0
 10
210.931642767324
 20
104.8118979225804
 30
0.0
 10
210.7542067307693
 20
104.8076923076923
 30
0.0
  0
SPLINE
  5
56
330
1F
100
AcDbEntity
  8
0
  6
Continuous
 62
     7
370
    15
100
AcDbSpline
210
0.0
220
0.0
230
1.0
 70
     8
 71
     3
 72
    23
 73
    19
 74
     0
 42
0.00000001
 43
0.00000001
 12
1.0
 22
0.0
 32
0.0
 13
1.0
 23
0.0
 33
0.0
 40
0.0
 40
0.0
 40
0.0
 40
0.0
 40
0.069665233864556
 40
0.1367008537002992
 40
0.2019858007489298
 40
0.2654873028118535
 40
0.3277977822476782
 40
0.3890001484141338
 40
0.4494134412450116
 40
0.5103711257464477
 40
0.5703990966333328
 40
0.6307146596194239
 40
0.6900042834164052
 40
0.7502937583549996
 40
0.8105277586763465
 40
0.8722866668268923
 40
0.935378076622117
 40
1.0
 40
1.0
 40
1.0
 40
1.0
 10
213.0048076923077
 20
113.1550480769231
 30
0.0
 10
213.107639258457
 20
113.1124575738617
 30
0.0
 10
213.3094208660129
 20
113.0288842072764
 30
0.0
 10
213.5961652093583
 20
112.8801375489425
 30
0.0
 10
213.8632286577478
 20
112.7172056146819
 30
0.0
 10
214.115312159882
 20
112.5444602709456
 30
0.0
 10
214.3427461294587
 20
112.3501923705959
 30
0.0
 10
214.5538644327785
 20
112.1457542199056
 30
0.0
 10
214.7486905047542
 20
111.9283011001192
 30
0.0
 10
214.9210402532654
 20
111.6949474562226
 30
0.0
 10
215.075272751966
 20
111.4496493474184
 30
0.0
 10
215.2106119390194
 20
111.196282387012
 30
0.0
 10
215.3221761375306
 20
110.9311514699483
 30
0.0
 10
215.415055443267
 20
110.65920024367
 30
0.0
 10
215.4885064082761
 20
110.3770867700677
 30
0.0
 10
215.5374594501539
 20
110.0854026545219
 30
0.0
 10
215.5736106855029
 20
109.7845508480911
 30
0.0
 10
215.5758101602983
 20
109.580441271844
 30
0.0
 10
215.5769230769231
 20
109.4771634615385
 30
0.0
  0
SPLINE
  5
57
330
1F
100
AcDbEntity
  8
0
  6
Continuous
 62
     7
370
    15
100
AcDbSpline
210
0.0
220
0.0
230
1.0
 70
     8
 71
     3
 72
    15
 73
    11
 74
     0
 42
0.00000001
 43
0.00000001
 12
1.0
 22
0.0
 32
0.0
 13
1.0
 23
0.0
 33
0.0
 40
0.0
 40
0.0
 40
0.0
 40
0.0
 40
0.1252106833553498
 40
0.246389955264014
 40
0.3655558098681926
 40
0.4870965159204527
 40
0.6099111469796628
 40
0.734682596524338
 40
0.8640550606143129
 40
1.0
 40
1.0
 40
1.0
 40
1.0
 10
215.1923076923077
 20
116.2019230769231
 30
0.0
 10
215.1857268668661
 20
116.0350155241008
 30
0.0
 10
215.1727770989812
 20
115.7065743450331
 30
0.0
 10
215.0598324556306
 20
115.2303402723863
 30
0.0
 10
214.8820769807402
 20
114.7805240746276
 30
0.0
 10
214.626801335139
 20
114.366801850243
 30
0.0
 10
214.3107641570625
 20
113.9879047607306
 30
0.0
 10
213.9288999511572
 20
113.6596617610511
 30
0.0
 10
213.4937605271713
 20
113.3722475796792
 30
0.0
 10
213.1704615710744
 20
113.2286337840349
 30
0.0
 10
213.0048076923077
 20
113.1550480769231
 30
0.0
  0
SPLINE
  5
58
330
1F
100
AcDbEntity
  8
0
  6
Continuous
 62
     7
370
    15
100
AcDbSpline
210
0.0
220
0.0
230
1.0
 70
     8
 71
     3
 72
    23
 73
    19
 74
     0
 42
0.00000001
 43
0.00000001
 12
1.0
 22
0.0
 32
0.0
 13
1.0
 23
0.0
 33
0.0
 40
0.0
 40
0.0
 40
0.0
 40
0.0
 40
0.0787148275647069
 40
0.1527638138658314
 40
0.2235310598104306
 40
0.2905448652951658
 40
0.3553678643938371
 40
0.4178465416295831
 40
0.478669080442755
 40
0.5391106634316184
 40
0.5982548859921349
 40
0.6558015514215652
 40
0.7119804085971642
 40
0.7675832446964936
 40
0.8239401076854008
 40
0.8808509972488231
 40
0.9393558415923853
 40
1.0
 40
1.0
 40
1.0
 40
1.0
 10
210.673076923077
 20
120.0
 30
0.0
 10
210.8474540162263
 20
119.996193325276
 30
0.0
 10
211.1858719563332
 20
119.9888056174325
 30
0.0
 10
211.6794363251697
 20
119.941573118195
 30
0.0
 10
212.1416515040109
 20
119.8577324904172
 30
0.0
 10
212.5759092218057
 20
119.741382755654
 30
0.0
 10
212.9782545408667
 20
119.5867097505297
 30
0.0
 10
213.3544473851244
 20
119.4055232505938
 30
0.0
 10
213.6963779311648
 20
119.1827381222587
 30
0.0
 10
214.0073946399277
 20
118.9309174799377
 30
0.0
 10
214.2882797628376
 20
118.6556764427623
 30
0.0
 10
214.5280510865967
 20
118.3561637212907
 30
0.0
 10
214.7355344337771
 20
118.0428223015977
 30
0.0
 10
214.9018215500269
 20
117.7084825596046
 30
0.0
 10
215.0306477631057
 20
117.3564803016115
 30
0.0
 10
215.1237893136642
 20
116.9869986549989
 30
0.0
 10
215.1832592626823
 20
116.6004869471367
 30
0.0
 10
215.1892556607621
 20
116.3363585044166
 30
0.0
 10
215.1923076923077
 20
116.2019230769231
 30
0.0
  0
SPLINE
  5
59
330
1F
100
AcDbEntity
  8
0
  6
Continuous
 62
     7
370
    15
100
AcDbSpline
210
0.0
220
0.0
230
1.0
 70
     8
 71
     3
 72
    23
 73
    19
 74
     0
 42
0.00000001
 43
0.00000001
 12
1.0
 22
0.0
 32
0.0
 13
1.0
 23
0.0
 33
0.0
 40
0.0
 40
0.0
 40
0.0
 40
0.0
 40
0.060587570737443
 40
0.1189732116422994
 40
0.1758309970860107
 40
0.232135272922942
 40
0.2876862254603171
 40
0.3435667514711584
 40
0.4007768999061048
 40
0.4595456756563642
 40
0.5195801399238578
 40
0.5807258242999914
 40
0.6427412166730777
 40
0.7075037287835693
 40
0.7753269745895304
 40
0.8460281869098306
 40
0.9209071953251285
 40
1.0
 40
1.0
 40
1.0
 40
1.0
 10
206.1538461538462
 20
116.2019230769231
 30
0.0
 10
206.157250399056
 20
116.3363069958574
 30
0.0
 10
206.163935169231
 20
116.6001909283882
 30
0.0
 10
206.2183564669885
 20
116.9872938235164
 30
0.0
 10
206.3128150087959
 20
117.3564137056017
 30
0.0
 10
206.4410923678886
 20
117.7085945250811
 30
0.0
 10
206.6079964049371
 20
118.0419549835008
 30
0.0
 10
206.8118113158176
 20
118.3561711273767
 30
0.0
 10
207.0487653356557
 20
118.6556366429421
 30
0.0
 10
207.3267938570067
 20
118.9306300865216
 30
0.0
 10
207.6353737236334
 20
119.1846987696794
 30
0.0
 10
207.9787968561119
 20
119.4036401222468
 30
0.0
 10
208.3533860138182
 20
119.5875789353839
 30
0.0
 10
208.7570047470054
 20
119.7423667030814
 30
0.0
 10
209.1937292228479
 20
119.8567655947776
 30
0.0
 10
209.6596127447089
 20
119.942241998057
 30
0.0
 10
210.1563161690642
 20
119.9885594389104
 30
0.0
 10
210.497709002486
 20
119.9961175313855
 30
0.0
 10
210.6730769230769
 20
120.0
 30
0.0
  0
SPLINE
  5
5A
330
1F
100
AcDbEntity
  8
0
  6
Continuous
 62
     7
370
    15
100
AcDbSpline
210
0.0
220
0.0
230
1.0
 70
     8
 71
     3
 72
    19
 73
    15
 74
     0
 42
0.00000001
 43
0.00000001
 12
1.0
 22
0.0
 32
0.0
 13
1.0
 23
0.0
 33
0.0
 40
0.0
 40
0.0
 40
0.0
 40
0.0
 40
0.0748445853067877
 40
0.1469107447723001
 40
0.2165118234411285
 40
0.2823326684469352
 40
0.3465403327661351
 40
0.4093645297620193
 40
0.4707787155544105
 40
0.5307355663086528
 40
0.6489949766642961
 40
0.764528836863894
 40
0.8807476380811169
 40
1.0
 40
1.0
 40
1.0
 40
1.0
 10
208.3203125
 20
113.1550480769231
 30
0.0
 10
208.2285964509112
 20
113.1938834788177
 30
0.0
 10
208.04856909123
 20
113.2701126113925
 30
0.0
 10
207.7929646606861
 20
113.4033869957922
 30
0.0
 10
207.5560040447364
 20
113.5455253241393
 30
0.0
 10
207.3414099145482
 20
113.7021904448873
 30
0.0
 10
207.1402903984385
 20
113.8620541337394
 30
0.0
 10
206.9645557513837
 20
114.0414134876397
 30
0.0
 10
206.8038210342838
 20
114.2266743521697
 30
0.0
 10
206.6204678497018
 20
114.4879646451377
 30
0.0
 10
206.433426239377
 20
114.832870838133
 30
0.0
 10
206.2726820405105
 20
115.2711862294457
 30
0.0
 10
206.1727672171198
 20
115.7296921490228
 30
0.0
 10
206.1602071119615
 20
116.0431666101381
 30
0.0
 10
206.1538461538462
 20
116.2019230769231
 30
0.0
  0
SPLINE
  5
5B
330
1F
100
AcDbEntity
  8
0
  6
Continuous
 62
     7
370
    15
100
AcDbSpline
210
0.0
220
0.0
230
1.0
 70
     8
 71
     3
 72
    19
 73
    15
 74
     0
 42
0.00000001
 43
0.00000001
 12
1.0
 22
0.0
 32
0.0
 13
1.0
 23
0.0
 33
0.0
 40
0.0
 40
0.0
 40
0.0
 40
0.0
 40
0.1222275397197992
 40
0.2415823941005997
 40
0.3604211238518651
 40
0.4802613882638431
 40
0.5410818694598436
 40
0.601977168292985
 40
0.6642769329329823
 40
0.727555667509203
 40
0.7918663421677627
 40
0.8588587325927847
 40
0.9283231107530965
 40
1.0
 40
1.0
 40
1.0
 40
1.0
 10
205.7692307692308
 20
109.3539663461539
 30
0.0
 10
205.776801286327
 20
109.5528228521202
 30
0.0
 10
205.7917643924231
 20
109.9458621860048
 30
0.0
 10
205.9093853621982
 20
110.5228169157938
 30
0.0
 10
206.1035859807577
 20
111.0731332259371
 30
0.0
 10
206.3254657471378
 20
111.5087423775525
 30
0.0
 10
206.5439874313295
 20
111.8356275959349
 30
0.0
 10
206.7319878312841
 20
112.0689421101088
 30
0.0
 10
206.9424544547987
 20
112.287664995956
 30
0.0
 10
207.1737394680185
 20
112.4928047585524
 30
0.0
 10
207.4293293757666
 20
112.6800166591444
 30
0.0
 10
207.706287712954
 20
112.8530534029043
 30
0.0
 10
208.0025794041651
 20
113.0174714775907
 30
0.0
 10
208.2133003903272
 20
113.1087124501686
 30
0.0
 10
208.3203125
 20
113.1550480769231
 30
0.0
  0
SPLINE
  5
5C
330
1F
100
AcDbEntity
  8
0
  6
Continuous
 62
     7
370
    15
100
AcDbSpline
210
0.0
220
0.0
230
1.0
 70
     8
 71
     3
 72
    15
 73
    11
 74
     0
 42
0.00000001
 43
0.00000001
 12
1.0
 22
0.0
 32
0.0
 13
1.0
 23
0.0
 33
0.0
 40
0.0
 40
0.0
 40
0.0
 40
0.0
 40
0.1261687009336522
 40
0.2490639253941041
 40
0.368684889924391
 40
0.4890308293839466
 40
0.6101851070373705
 40
0.7355297117077702
 40
0.8642305085771045
 40
1.0
 40
1.0
 40
1.0
 40
1.0
 10
207.3677884615385
 20
105.8804086538462
 30
0.0
 10
207.2395805734066
 20
105.9874170491633
 30
0.0
 10
206.986491180805
 20
106.1986574819377
 30
0.0
 10
206.6638949258602
 20
106.5661747946692
 30
0.0
 10
206.3850719700677
 20
106.9574898976641
 30
0.0
 10
206.1596792885558
 20
107.3798200735
 30
0.0
 10
205.9838486360991
 20
107.8329313235746
 30
0.0
 10
205.8590468427875
 20
108.3138359270978
 30
0.0
 10
205.7812348099751
 20
108.8245913153072
 30
0.0
 10
205.7733027845313
 20
109.1743915453652
 30
0.0
 10
205.7692307692308
 20
109.3539663461539
 30
0.0
  0
SPLINE
  5
5E
330
1F
100
AcDbEntity
  8
0
  6
Continuous
 62
     7
370
    15
100
AcDbSpline
210
0.0
220
0.0
230
1.0
 70
     8
 71
     3
 72
    27
 73
    23
 74
     0
 42
0.00000001
 43
0.00000001
 12
1.0
 22
0.0
 32
0.0
 13
1.0
 23
0.0
 33
0.0
 40
0.0
 40
0.0
 40
0.0
 40
0.0
 40
0.0314272898339579
 40
0.0646054795207701
 40
0.0994393445169631
 40
0.1364563048065977
 40
0.1753519851952033
 40
0.2161008675321624
 40
0.2589775198518823
 40
0.3040074750734814
 40
0.3957568126458642
 40
0.487615630896669
 40
0.5798735059012292
 40
0.6727070790515445
 40
0.7186945783923679
 40
0.7630792377552902
 40
0.8058934434386095
 40
0.8473863361294182
 40
0.8876001486816204
 40
0.9263862120921257
 40
0.963754727860468
 40
1.0
 40
1.0
 40
1.0
 40
1.0
 10
120.5769230769231
 20
117.6923076923077
 30
0.0
 10
120.4746103360762
 20
117.5882078170014
 30
0.0
 10
120.2642847331233
 20
117.3742083790051
 30
0.0
 10
119.963013878443
 20
117.02397701651
 30
0.0
 10
119.6572792847796
 20
116.6439145314048
 30
0.0
 10
119.3534741721408
 20
116.2288995910098
 30
0.0
 10
119.0421549116141
 20
115.7854880815576
 30
0.0
 10
118.7370028868521
 20
115.3051800771771
 30
0.0
 10
118.4275104573157
 20
114.7942066111168
 30
0.0
 10
118.0108357955548
 20
114.0714336223884
 30
0.0
 10
117.5237951065549
 20
113.1272687787804
 30
0.0
 10
117.0085318231195
 20
111.9536236519968
 30
0.0
 10
116.5695510975124
 20
110.7439348052034
 30
0.0
 10
116.2689563672493
 20
109.7131907282938
 30
0.0
 10
116.0658562411216
 20
108.8870509369702
 30
0.0
 10
115.9331604473529
 20
108.282957940411
 30
0.0
 10
115.8214587491134
 20
107.6958649083229
 30
0.0
 10
115.7305894921091
 20
107.1247400393619
 30
0.0
 10
115.6627712073077
 20
106.5693227858394
 30
0.0
 10
115.6091831977853
 20
106.0315441418721
 30
0.0
 10
115.5827451309695
 20
105.5100927251022
 30
0.0
 10
115.5788439192572
 20
105.1682924433338
 30
0.0
 10
115.5769230769231
 20
105.0
 30
0.0
  0
SPLINE
  5
63
330
1F
100
AcDbEntity
  8
0
  6
Continuous
 62
     7
370
    15
100
AcDbSpline
210
0.0
220
0.0
230
1.0
 70
     8
 71
     3
 72
    23
 73
    19
 74
     0
 42
0.00000001
 43
0.00000001
 12
1.0
 22
0.0
 32
0.0
 13
1.0
 23
0.0
 33
0.0
 40
0.0
 40
0.0
 40
0.0
 40
0.0
 40
0.0589531092367044
 40
0.1185611431738026
 40
0.1785228682718519
 40
0.239353031656895
 40
0.3010260066553677
 40
0.3637735516132121
 40
0.4273825220979526
 40
0.4923338678875937
 40
0.5574758345064431
 40
0.6219603622633539
 40
0.6858892184262918
 40
0.7492545849121954
 40
0.8122671686462051
 40
0.8750355330743765
 40
0.9375335567344811
 40
1.0
 40
1.0
 40
1.0
 40
1.0
 10
112.6923076923077
 20
105.0
 30
0.0
 10
112.7019531949663
 20
105.2555430486915
 30
0.0
 10
112.7213513545627
 20
105.7694680371315
 30
0.0
 10
112.7939286025438
 20
106.5408526794498
 30
0.0
 10
112.9079189762423
 20
107.3151096227459
 30
0.0
 10
113.0495026715119
 20
108.0940283195999
 30
0.0
 10
113.2364284445916
 20
108.8757125201947
 30
0.0
 10
113.4497680219537
 20
109.6630578192075
 30
0.0
 10
113.708196841835
 20
110.4518590232073
 30
0.0
 10
113.9978886132783
 20
111.2406078993039
 30
0.0
 10
114.3176931018061
 20
112.0218159094933
 30
0.0
 10
114.6662349966545
 20
112.7857935438633
 30
0.0
 10
115.0426132823511
 20
113.5277745233751
 30
0.0
 10
115.4419332343316
 20
114.2503658052804
 30
0.0
 10
115.8688403651621
 20
114.9512427646119
 30
0.0
 10
116.3236560912604
 20
115.6296443177062
 30
0.0
 10
116.7999289646359
 20
116.2904777903817
 30
0.0
 10
117.1404697517227
 20
116.7122460745684
 30
0.0
 10
117.3106971153846
 20
116.9230769230769
 30
0.0
  0
SPLINE
  5
64
330
1F
100
AcDbEntity
  8
0
  6
Continuous
 62
     7
370
    15
100
AcDbSpline
210
0.0
220
0.0
230
1.0
 70
     8
 71
     3
 72
    23
 73
    19
 74
     0
 42
0.00000001
 43
0.00000001
 12
1.0
 22
0.0
 32
0.0
 13
1.0
 23
0.0
 33
0.0
 40
0.0
 40
0.0
 40
0.0
 40
0.0
 40
0.045930966321211
 40
0.0906953690752914
 40
0.1346879139170988
 40
0.179249235571351
 40
0.2248969069580336
 40
0.2727227121900691
 40
0.3227462779247647
 40
0.3759735277318671
 40
0.4331922434402993
 40
0.4950591647977308
 40
0.5628095946487078
 40
0.6364709576347567
 40
0.7169118652570408
 40
0.8040264816661912
 40
0.8984303394526741
 40
1.0
 40
1.0
 40
1.0
 40
1.0
 10
19.92796266233765
 20
104.8051948051948
 30
0.0
 10
19.78143429768495
 20
104.8102223166332
 30
0.0
 10
19.49209912412825
 20
104.8201496498019
 30
0.0
 10
19.06979293895497
 20
104.9061824284316
 30
0.0
 10
18.66494629439011
 20
105.0391554339893
 30
0.0
 10
18.28312724550421
 20
105.2351097773884
 30
0.0
 10
17.91651028441541
 20
105.480175012016
 30
0.0
 10
17.57317333865202
 20
105.7842540313172
 30
0.0
 10
17.24906265561715
 20
106.1413084156241
 30
0.0
 10
16.94208438914224
 20
106.5513904851419
 30
0.0
 10
16.66258407646581
 20
107.0258357637268
 30
0.0
 10
16.42796813491892
 20
107.5744022167092
 30
0.0
 10
16.22378174511491
 20
108.1900682855863
 30
0.0
 10
16.06327333349813
 20
108.8794173890306
 30
0.0
 10
15.93187453463141
 20
109.6373359338851
 30
0.0
 10
15.84397005361352
 20
110.46806095049
 30
0.0
 10
15.78863161797706
 20
111.3689626175297
 30
0.0
 10
15.78243327329148
 20
111.9936207182682
 30
0.0
 10
15.77922077922075
 20
112.3173701298702
 30
0.0
  0
SPLINE
  5
65
330
1F
100
AcDbEntity
  8
0
  6
Continuous
 62
     7
370
    15
100
AcDbSpline
210
0.0
220
0.0
230
1.0
 70
     8
 71
     3
 72
    23
 73
    19
 74
     0
 42
0.00000001
 43
0.00000001
 12
1.0
 22
0.0
 32
0.0
 13
1.0
 23
0.0
 33
0.0
 40
0.0
 40
0.0
 40
0.0
 40
0.0
 40
0.0811444250475173
 40
0.157875245855363
 40
0.2305384789397098
 40
0.3000624438300451
 40
0.3668315472998339
 40
0.4313608900190704
 40
0.494065205405769
 40
0.5554307801750477
 40
0.614981051054993
 40
0.6723949177250481
 40
0.7276697609744138
 40
0.7814810601225295
 40
0.8349559495357335
 40
0.8888903007894791
 40
0.9437051604956814
 40
1.0
 40
1.0
 40
1.0
 40
1.0
 10
23.76623376623374
 20
109.8488230519481
 30
0.0
 10
23.76272688645845
 20
109.6569341707702
 30
0.0
 10
23.75590387296878
 20
109.2835936205706
 30
0.0
 10
23.70314357372744
 20
108.7405349746867
 30
0.0
 10
23.619785432172
 20
108.2292028867978
 30
0.0
 10
23.49750097127162
 20
107.7498425756536
 30
0.0
 10
23.342356148009
 20
107.3005407172454
 30
0.0
 10
23.154677582753
 20
106.8811398624811
 30
0.0
 10
22.92831539727419
 20
106.4958559176473
 30
0.0
 10
22.6693405766645
 20
106.1464922812046
 30
0.0
 10
22.38657867208266
 20
105.8328813542576
 30
0.0
 10
22.08538564907517
 20
105.5577354350016
 30
0.0
 10
21.7672616444877
 20
105.3244662171425
 30
0.0
 10
21.43277251287065
 20
105.1333855346835
 30
0.0
 10
21.08008187205601
 20
104.9858499734468
 30
0.0
 10
20.70962019824818
 20
104.883960946595
 30
0.0
 10
20.32405779807944
 20
104.8167546185741
 30
0.0
 10
20.06116163212787
 20
104.8090821420847
 30
0.0
 10
19.92796266233765
 20
104.8051948051948
 30
0.0
  0
SPLINE
  5
66
330
1F
100
AcDbEntity
  8
0
  6
Continuous
 62
     7
370
    15
100
AcDbSpline
210
0.0
220
0.0
230
1.0
 70
     8
 71
     3
 72
    23
 73
    19
 74
     0
 42
0.00000001
 43
0.00000001
 12
1.0
 22
0.0
 32
0.0
 13
1.0
 23
0.0
 33
0.0
 40
0.0
 40
0.0
 40
0.0
 40
0.0
 40
0.0520266063202739
 40
0.1034030551778488
 40
0.1542517610325682
 40
0.2060144741650788
 40
0.2596107053197222
 40
0.3147450565477834
 40
0.373370490052783
 40
0.435080694963906
 40
0.498782915913705
 40
0.5636455523878048
 40
0.6296937742547077
 40
0.6976893321013478
 40
0.7685070261768663
 40
0.841970867337443
 40
0.9193415386299176
 40
0.9999999999999999
 40
0.9999999999999999
 40
0.9999999999999999
 40
0.9999999999999999
 10
20.25060876623375
 20
114.7402597402598
 30
0.0
 10
20.36649098992554
 20
114.7358307823205
 30
0.0
 10
20.5968072995609
 20
114.7270282135086
 30
0.0
 10
20.9365524643427
 20
114.666638032425
 30
0.0
 10
21.26233349316109
 20
114.5565236983591
 30
0.0
 10
21.57865845235365
 20
114.409888821979
 30
0.0
 10
21.88274729711731
 20
114.2202819038083
 30
0.0
 10
22.17565076404038
 20
113.9884978107373
 30
0.0
 10
22.45411014738125
 20
113.7133029455913
 30
0.0
 10
22.72036739022282
 20
113.4011371608404
 30
0.0
 10
22.96796865618522
 20
113.0561967058394
 30
0.0
 10
23.17904048330402
 20
112.6767369980655
 30
0.0
 10
23.36340217669749
 20
112.2733930410024
 30
0.0
 10
23.51374760883718
 20
111.8416988797413
 30
0.0
 10
23.62356891162498
 20
111.3811881949843
 30
0.0
 10
23.70563042047882
 20
110.8941480092761
 30
0.0
 10
23.75953919702336
 20
110.3806715344788
 30
0.0
 10
23.76397150516302
 20
110.0285478527145
 30
0.0
 10
23.76623376623374
 20
109.8488230519481
 30
0.0
  0
SPLINE
  5
67
330
1F
100
AcDbEntity
  8
0
  6
Continuous
 62
     7
370
    15
100
AcDbSpline
210
0.0
220
0.0
230
1.0
 70
     8
 71
     3
 72
    15
 73
    11
 74
     0
 42
0.00000001
 43
0.00000001
 12
1.0
 22
0.0
 32
0.0
 13
1.0
 23
0.0
 33
0.0
 40
0.0
 40
0.0
 40
0.0
 40
0.0
 40
0.1434402235577478
 40
0.2780654167806339
 40
0.4044994090607613
 40
0.5259531903245958
 40
0.6435510406462035
 40
0.7604909300026023
 40
0.8788187916204722
 40
1.0
 40
1.0
 40
1.0
 40
1.0
 10
18.11688311688309
 20
113.4679383116883
 30
0.0
 10
18.18903562704813
 20
113.5688498194968
 30
0.0
 10
18.32890655943506
 20
113.7644713807348
 30
0.0
 10
18.56376603979776
 20
114.0247734801514
 30
0.0
 10
18.81305484703938
 20
114.2429085078785
 30
0.0
 10
19.07225982837904
 20
114.4248253368582
 30
0.0
 10
19.34630389139425
 20
114.5668992650011
 30
0.0
 10
19.63484373342489
 20
114.6688977241899
 30
0.0
 10
19.93886124774541
 20
114.7266965947064
 30
0.0
 10
20.14587086985981
 20
114.7357029266551
 30
0.0
 10
20.25060876623375
 20
114.7402597402598
 30
0.0
  0
SPLINE
  5
68
330
1F
100
AcDbEntity
  8
0
  6
Continuous
 62
     7
370
    15
100
AcDbSpline
210
0.0
220
0.0
230
1.0
 70
     8
 71
     3
 72
    23
 73
    19
 74
     0
 42
0.00000001
 43
0.00000001
 12
1.0
 22
0.0
 32
0.0
 13
1.0
 23
0.0
 33
0.0
 40
0.0
 40
0.0
 40
0.0
 40
0.0
 40
0.0360511350137355
 40
0.0710986199789547
 40
0.1064207428414623
 40
0.1430192623315517
 40
0.181198295023539
 40
0.2212908914227343
 40
0.2642302684895667
 40
0.3105666706999303
 40
0.3629138449657494
 40
0.4238531277963443
 40
0.4946996311596158
 40
0.5750468845678507
 40
0.6657537831081402
 40
0.7670801029792521
 40
0.8784619184413766
 40
1.0
 40
1.0
 40
1.0
 40
1.0
 10
19.94926948051945
 20
117.6623376623377
 30
0.0
 10
19.88915033278471
 20
117.6603939540164
 30
0.0
 10
19.77058573179163
 20
117.6565606494828
 30
0.0
 10
19.59760857079196
 20
117.6138889352954
 30
0.0
 10
19.43093562543138
 20
117.5501222120592
 30
0.0
 10
19.2716803211255
 20
117.4577626603353
 30
0.0
 10
19.12230273841006
 20
117.337472583638
 30
0.0
 10
18.98188806070589
 20
117.1921311580277
 30
0.0
 10
18.84694565635236
 20
117.0239305260882
 30
0.0
 10
18.71980100743867
 20
116.8249145192709
 30
0.0
 10
18.60214459558263
 20
116.5860085164478
 30
0.0
 10
18.50105738567026
 20
116.2961719047443
 30
0.0
 10
18.40749106818698
 20
115.9555625677472
 30
0.0
 10
18.32627660628394
 20
115.5609647104758
 30
0.0
 10
18.25821577895315
 20
115.1126742160064
 30
0.0
 10
18.19739708228688
 20
114.6113107329245
 30
0.0
 10
18.14907942178587
 20
114.057004212537
 30
0.0
 10
18.12792272486946
 20
113.6699197702174
 30
0.0
 10
18.11688311688309
 20
113.4679383116883
 30
0.0
  0
SPLINE
  5
69
330
1F
100
AcDbEntity
  8
0
  6
Continuous
 62
     7
370
    15
100
AcDbSpline
210
0.0
220
0.0
230
1.0
 70
     8
 71
     3
 72
    15
 73
    11
 74
     0
 42
0.00000001
 43
0.00000001
 12
1.0
 22
0.0
 32
0.0
 13
1.0
 23
0.0
 33
0.0
 40
0.0
 40
0.0
 40
0.0
 40
0.0
 40
0.1716554392580605
 40
0.3232824593589273
 40
0.4569349476744491
 40
0.5749662273160668
 40
0.6828952293538021
 40
0.7856673895944513
 40
0.8885090818439693
 40
1.0
 40
1.0
 40
1.0
 40
1.0
 10
21.23376623376621
 20
115.9090909090909
 30
0.0
 10
21.21838377349383
 20
116.046499567924
 30
0.0
 10
21.18941364816992
 20
116.3052843134398
 30
0.0
 10
21.10514399611152
 20
116.6644954769713
 30
0.0
 10
20.99033255137503
 20
116.9690925365326
 30
0.0
 10
20.84843333657352
 20
117.2233854757152
 30
0.0
 10
20.66847823416745
 20
117.4211681281676
 30
0.0
 10
20.45615682070104
 20
117.5616993865734
 30
0.0
 10
20.21239567296099
 20
117.648834053044
 30
0.0
 10
20.03930650429031
 20
117.6577169714833
 30
0.0
 10
19.94926948051945
 20
117.6623376623377
 30
0.0
  0
SPLINE
  5
6B
330
1F
100
AcDbEntity
  8
0
  6
Continuous
 62
     7
370
    15
100
AcDbSpline
210
0.0
220
0.0
230
1.0
 70
     8
 71
     3
 72
    23
 73
    19
 74
     0
 42
0.00000001
 43
0.00000001
 12
1.0
 22
0.0
 32
0.0
 13
1.0
 23
0.0
 33
0.0
 40
0.0
 40
0.0
 40
0.0
 40
0.0
 40
0.058658852509009
 40
0.115581950196628
 40
0.1707065134433003
 40
0.2252623724032208
 40
0.2798841532789947
 40
0.3349188816262414
 40
0.3904472535162189
 40
0.4478033324857613
 40
0.506742692344951
 40
0.5675379361185346
 40
0.6308438632786254
 40
0.6967446215622968
 40
0.7664146372404441
 40
0.8399054409015553
 40
0.9178941136628224
 40
1.0
 40
1.0
 40
1.0
 40
1.0
 10
20.16538149350647
 20
120.0
 30
0.0
 10
20.27408892270147
 20
119.9969491732492
 30
0.0
 10
20.48828705529004
 20
119.990937795759
 30
0.0
 10
20.80216362471252
 20
119.9472718656671
 30
0.0
 10
21.1034001069747
 20
119.8778971731093
 30
0.0
 10
21.39130193138053
 20
119.7768561646814
 30
0.0
 10
21.66588599002206
 20
119.6446437579956
 30
0.0
 10
21.92844176668821
 20
119.4864632053472
 30
0.0
 10
22.17731487107921
 20
119.2987721275648
 30
0.0
 10
22.41096595503139
 20
119.0819316965627
 30
0.0
 10
22.63192291173555
 20
118.8386192018808
 30
0.0
 10
22.82995604190302
 20
118.562447694514
 30
0.0
 10
23.00621530450297
 20
118.2571180322549
 30
0.0
 10
23.16108591033264
 20
117.9223993581509
 30
0.0
 10
23.29956473668327
 20
117.560147952216
 30
0.0
 10
23.40927743222729
 20
117.1649930285796
 30
0.0
 10
23.50532084362703
 20
116.7427099020597
 30
0.0
 10
23.54901806935406
 20
116.4492200966932
 30
0.0
 10
23.57142857142855
 20
116.2987012987013
 30
0.0
  0
SPLINE
  5
6C
330
1F
100
AcDbEntity
  8
0
  6
Continuous
 62
     7
370
    15
100
AcDbSpline
210
0.0
220
0.0
230
1.0
 70
     8
 71
     3
 72
    23
 73
    19
 74
     0
 42
0.00000001
 43
0.00000001
 12
1.0
 22
0.0
 32
0.0
 13
1.0
 23
0.0
 33
0.0
 40
0.0
 40
0.0
 40
0.0
 40
0.0
 40
0.099772370851528
 40
0.1926306920502767
 40
0.2784824919625826
 40
0.3578503857728199
 40
0.4304339645385361
 40
0.4977119482966561
 40
0.5594530058677729
 40
0.6163220914463393
 40
0.6697109111659143
 40
0.7200397813160716
 40
0.7682955470611513
 40
0.8150071338222219
 40
0.8604504074611218
 40
0.9058216573986344
 40
0.9521971925409363
 40
1.0
 40
1.0
 40
1.0
 40
1.0
 10
15.77922077922075
 20
112.3173701298702
 30
0.0
 10
15.78226508190253
 20
112.6461911272727
 30
0.0
 10
15.78814272244969
 20
113.2810464058404
 30
0.0
 10
15.84584129978703
 20
114.1974342406526
 30
0.0
 10
15.94222904046025
 20
115.0427968831893
 30
0.0
 10
16.07405485579591
 20
115.8157249303455
 30
0.0
 10
16.24229035573646
 20
116.519097516582
 30
0.0
 10
16.45448213262615
 20
117.1496269471769
 30
0.0
 10
16.70238103292948
 20
117.7109008692235
 30
0.0
 10
16.99001900530647
 20
118.2011188360835
 30
0.0
 10
17.31356961666303
 20
118.6210433906028
 30
0.0
 10
17.65157539164719
 20
118.9915876394006
 30
0.0
 10
18.01525405589988
 20
119.3051680930689
 30
0.0
 10
18.4036331860335
 20
119.5590614619869
 30
0.0
 10
18.81303700998627
 20
119.7566367689518
 30
0.0
 10
19.24384044247302
 20
119.8971497374035
 30
0.0
 10
19.69706634147961
 20
119.9857027365655
 30
0.0
 10
20.00770718932612
 20
119.9951863375465
 30
0.0
 10
20.16538149350647
 20
120.0
 30
0.0
  0
SPLINE
  5
6D
330
1F
100
AcDbEntity
  8
0
  6
Continuous
 62
     7
370
    15
100
AcDbSpline
210
0.0
220
0.0
230
1.0
 70
     8
 71
     3
 72
    23
 73
    19
 74
     0
 42
0.00000001
 43
0.00000001
 12
1.0
 22
0.0
 32
0.0
 13
1.0
 23
0.0
 33
0.0
 40
0.0
 40
0.0
 40
0.0
 40
0.0
 40
0.0695355233855302
 40
0.1380491094433505
 40
0.2067556592868234
 40
0.2751841688940791
 40
0.3446084122002546
 40
0.4162313271679283
 40
0.4899227518536932
 40
0.5661907044333736
 40
0.6069271943486327
 40
0.6516091837135812
 40
0.6996604758182441
 40
0.7518555105046921
 40
0.8081376385094898
 40
0.868245380712919
 40
0.9321950013282013
 40
0.9999999999999999
 40
0.9999999999999999
 40
0.9999999999999999
 40
0.9999999999999999
 10
14.22077922077919
 20
115.8299512987013
 30
0.0
 10
14.21822150101043
 20
115.6765977736494
 30
0.0
 10
14.21314365131449
 20
115.3721445023907
 30
0.0
 10
14.16099406647683
 20
114.9187754829319
 30
0.0
 10
14.08397132780012
 20
114.4717244254355
 30
0.0
 10
13.96971541549891
 20
114.0303900908325
 30
0.0
 10
13.82197034421079
 20
113.5925274314372
 30
0.0
 10
13.64206093100062
 20
113.1543456351197
 30
0.0
 10
13.42888470930936
 20
112.7144065369828
 30
0.0
 10
13.21896570539341
 20
112.3498908709432
 30
0.0
 10
13.03087435711126
 20
112.0470569514597
 30
0.0
 10
12.86338479644594
 20
111.8049994523971
 30
0.0
 10
12.67250540505843
 20
111.5487864699524
 30
0.0
 10
12.46358775992357
 20
111.2741069688333
 30
0.0
 10
12.22844013003987
 20
110.986248245216
 30
0.0
 10
11.97279684908975
 20
110.6817846689033
 30
0.0
 10
11.6957640546011
 20
110.3621469266718
 30
0.0
 10
11.50193960825127
 20
110.1458234825777
 30
0.0
 10
11.40219155844152
 20
110.0344967532468
 30
0.0
  0
SPLINE
  5
6E
330
1F
100
AcDbEntity
  8
0
  6
Continuous
 62
     7
370
    15
100
AcDbSpline
210
0.0
220
0.0
230
1.0
 70
     8
 71
     3
 72
    23
 73
    19
 74
     0
 42
0.00000001
 43
0.00000001
 12
1.0
 22
0.0
 32
0.0
 13
1.0
 23
0.0
 33
0.0
 40
0.0
 40
0.0
 40
0.0
 40
0.0
 40
0.0741126610358941
 40
0.1436507190320163
 40
0.2100516928803513
 40
0.2733649034018878
 40
0.3349952740509115
 40
0.3954468596327587
 40
0.4559474902146574
 40
0.517372535825687
 40
0.5790599188556802
 40
0.6394314938812995
 40
0.6987549640328697
 40
0.7576826860457231
 40
0.8173053891001104
 40
0.8771506171663203
 40
0.9376149219385291
 40
1.0
 40
1.0
 40
1.0
 40
1.0
 10
10.23031655844153
 20
120.0
 30
0.0
 10
10.39088225752133
 20
119.9974141885513
 30
0.0
 10
10.70210273999081
 20
119.9924021748321
 30
0.0
 10
11.15294175380252
 20
119.9273611527227
 30
0.0
 10
11.57505681403445
 20
119.8346913891953
 30
0.0
 10
11.96429454569201
 20
119.6905461988462
 30
0.0
 10
12.32746011899477
 20
119.5171535977485
 30
0.0
 10
12.6540323137862
 20
119.292685006269
 30
0.0
 10
12.9574065341547
 20
119.0382766185616
 30
0.0
 10
13.21750937766791
 20
118.7362459243603
 30
0.0
 10
13.45427976791458
 20
118.4169980642097
 30
0.0
 10
13.65757411610616
 20
118.0805287821441
 30
0.0
 10
13.83359418550745
 20
117.7357699537741
 30
0.0
 10
13.97385755252503
 20
117.3765563288697
 30
0.0
 10
14.08305524980491
 20
117.0056776623793
 30
0.0
 10
14.16175001923534
 20
116.6239239184832
 30
0.0
 10
14.21329626517195
 20
116.2311164208431
 30
0.0
 10
14.21825903761548
 20
115.965059622171
 30
0.0
 10
14.22077922077919
 20
115.8299512987013
 30
0.0
  0
SPLINE
  5
6F
330
1F
100
AcDbEntity
  8
0
  6
Continuous
 62
     7
370
    15
100
AcDbSpline
210
0.0
220
0.0
230
1.0
 70
     8
 71
     3
 72
    23
 73
    19
 74
     0
 42
0.00000001
 43
0.00000001
 12
1.0
 22
0.0
 32
0.0
 13
1.0
 23
0.0
 33
0.0
 40
0.0
 40
0.0
 40
0.0
 40
0.0
 40
0.0785696204436317
 40
0.1524157624279547
 40
0.2221662873460007
 40
0.287893188165748
 40
0.3501160166683491
 40
0.4098419974164506
 40
0.4674363432541005
 40
0.5238385366738976
 40
0.579532881230413
 40
0.6350938630033673
 40
0.6915074927775956
 40
0.7489429418877875
 40
0.8077984992902623
 40
0.8692755760138995
 40
0.933184484941153
 40
1.0
 40
1.0
 40
1.0
 40
1.0
 10
6.038961038961011
 20
115.9090909090909
 30
0.0
 10
6.058535757331562
 20
116.0799739709434
 30
0.0
 10
6.096508393675121
 20
116.4114668814502
 30
0.0
 10
6.197057988227728
 20
116.8876103829682
 30
0.0
 10
6.316137705317443
 20
117.3301893141376
 30
0.0
 10
6.465240087502849
 20
117.7369132314308
 30
0.0
 10
6.642057162458248
 20
118.1083126508736
 30
0.0
 10
6.847188013116234
 20
118.4439781767904
 30
0.0
 10
7.074718186754342
 20
118.7495579899908
 30
0.0
 10
7.336130591286016
 20
119.0147273991654
 30
0.0
 10
7.620993915465474
 20
119.2467158327527
 30
0.0
 10
7.927385552855909
 20
119.4497675292999
 30
0.0
 10
8.257561246798245
 20
119.6195570447314
 30
0.0
 10
8.608641112578002
 20
119.7611425630518
 30
0.0
 10
8.98380263480636
 20
119.8659658887054
 30
0.0
 10
9.379229272089118
 20
119.9462129517569
 30
0.0
 10
9.79805273840756
 20
119.9914745388649
 30
0.0
 10
10.08410850595093
 20
119.9971163650267
 30
0.0
 10
10.23031655844153
 20
120.0
 30
0.0
  0
SPLINE
  5
71
330
1F
100
AcDbEntity
  8
0
  6
Continuous
 62
     7
370
    15
100
AcDbSpline
210
0.0
220
0.0
230
1.0
 70
     8
 71
     3
 72
    15
 73
    11
 74
     0
 42
0.00000001
 43
0.00000001
 12
1.0
 22
0.0
 32
0.0
 13
1.0
 23
0.0
 33
0.0
 40
0.0
 40
0.0
 40
0.0
 40
0.0
 40
0.124990117082367
 40
0.2395654643902165
 40
0.3480573452428485
 40
0.4559505208701888
 40
0.5713566491068786
 40
0.6977519226627774
 40
0.8396543720940545
 40
1.0
 40
1.0
 40
1.0
 40
1.0
 10
10.1785714285714
 20
117.6623376623377
 30
0.0
 10
10.04695553881821
 20
117.6565862891125
 30
0.0
 10
9.794690619912034
 20
117.6455627743761
 30
0.0
 10
9.439889772961173
 20
117.5429328096183
 30
0.0
 10
9.131940882975059
 20
117.3737537002751
 30
0.0
 10
8.879586082899294
 20
117.1282149398758
 30
0.0
 10
8.672472074176845
 20
116.8214555557953
 30
0.0
 10
8.522939980071198
 20
116.4443792226168
 30
0.0
 10
8.42041758644746
 20
116.0041493250366
 30
0.0
 10
8.3918034579632
 20
115.6874778853601
 30
0.0
 10
8.376623376623343
 20
115.5194805194806
 30
0.0
  0
SPLINE
  5
72
330
1F
100
AcDbEntity
  8
0
  6
Continuous
 62
     7
370
    15
100
AcDbSpline
210
0.0
220
0.0
230
1.0
 70
     8
 71
     3
 72
    15
 73
    11
 74
     0
 42
0.00000001
 43
0.00000001
 12
1.0
 22
0.0
 32
0.0
 13
1.0
 23
0.0
 33
0.0
 40
0.0
 40
0.0
 40
0.0
 40
0.0
 40
0.1557263484003219
 40
0.2947999542160775
 40
0.4192464906763314
 40
0.536972255290281
 40
0.6500409756076685
 40
0.7614872025353343
 40
0.8771118895206295
 40
1.0
 40
1.0
 40
1.0
 40
1.0
 10
11.88311688311686
 20
115.6808035714286
 30
0.0
 10
11.87773020633282
 20
115.8344848482535
 30
0.0
 10
11.8675328820802
 20
116.1254133509587
 30
0.0
 10
11.78026150573178
 20
116.5318899257093
 30
0.0
 10
11.63436504194904
 20
116.8814541852262
 30
0.0
 10
11.42348616835381
 20
117.165271150879
 30
0.0
 10
11.16676008532466
 20
117.3880565781906
 30
0.0
 10
10.87064528690915
 20
117.5506285126617
 30
0.0
 10
10.53551566459771
 20
117.6469341000799
 30
0.0
 10
10.29994412506327
 20
117.6570999481568
 30
0.0
 10
10.1785714285714
 20
117.6623376623377
 30
0.0
  0
SPLINE
  5
73
330
1F
100
AcDbEntity
  8
0
  6
Continuous
 62
     7
370
    15
100
AcDbSpline
210
0.0
220
0.0
230
1.0
 70
     8
 71
     3
 72
    11
 73
     7
 74
     0
 42
0.00000001
 43
0.00000001
 12
1.0
 22
0.0
 32
0.0
 13
1.0
 23
0.0
 33
0.0
 40
0.0
 40
0.0
 40
0.0
 40
0.0
 40
0.2650720260088943
 40
0.5174264585638215
 40
0.761377132603556
 40
1.0
 40
1.0
 40
1.0
 40
1.0
 10
11.33827110389607
 20
113.8514610389611
 30
0.0
 10
11.42156859234339
 20
114.0006776226636
 30
0.0
 10
11.58416713245905
 20
114.2919516949477
 30
0.0
 10
11.75348781319405
 20
114.7535270789191
 30
0.0
 10
11.86416273320856
 20
115.2159346202243
 30
0.0
 10
11.87684550746276
 20
115.5269919873145
 30
0.0
 10
11.88311688311686
 20
115.6808035714286
 30
0.0
  0
SPLINE
  5
74
330
1F
100
AcDbEntity
  8
0
  6
Continuous
 62
     7
370
    15
100
AcDbSpline
210
0.0
220
0.0
230
1.0
 70
     8
 71
     3
 72
    15
 73
    11
 74
     0
 42
0.00000001
 43
0.00000001
 12
1.0
 22
0.0
 32
0.0
 13
1.0
 23
0.0
 33
0.0
 40
0.0
 40
0.0
 40
0.0
 40
0.0
 40
0.1832338588759574
 40
0.3505427301142029
 40
0.5011988372408085
 40
0.6339500770024658
 40
0.7500925720805977
 40
0.8504341224739819
 40
0.9336827195019096
 40
1.0
 40
1.0
 40
1.0
 40
1.0
 10
9.38108766233764
 20
111.4590097402598
 30
0.0
 10
9.507255946658411
 20
111.5997265255706
 30
0.0
 10
9.748627138156191
 20
111.8689302982703
 30
0.0
 10
10.08813668207562
 20
112.2587626381759
 30
0.0
 10
10.39352450056422
 20
112.6093168507046
 30
0.0
 10
10.65505828154817
 20
112.9278297921186
 30
0.0
 10
10.88195362315661
 20
113.2076415679199
 30
0.0
 10
11.06999413561549
 20
113.4530176511075
 30
0.0
 10
11.2214350133564
 20
113.6618309062513
 30
0.0
 10
11.30238015316357
 20
113.7932084415055
 30
0.0
 10
11.33827110389607
 20
113.8514610389611
 30
0.0
  0
SPLINE
  5
75
330
1F
100
AcDbEntity
  8
0
  6
Continuous
 62
     7
370
    15
100
AcDbSpline
210
0.0
220
0.0
230
1.0
 70
     8
 71
     3
 72
    19
 73
    15
 74
     0
 42
0.00000001
 43
0.00000001
 12
1.0
 22
0.0
 32
0.0
 13
1.0
 23
0.0
 33
0.0
 40
0.0
 40
0.0
 40
0.0
 40
0.0
 40
0.1002236266426697
 40
0.2001749505460105
 40
0.2998639334848803
 40
0.4008683731365189
 40
0.4545499337922367
 40
0.5143828091139084
 40
0.580015304377364
 40
0.6515740227081508
 40
0.7295439188579109
 40
0.8133326772065814
 40
0.9035606845620292
 40
0.9999999999999999
 40
0.9999999999999999
 40
0.9999999999999999
 40
0.9999999999999999
 10
5.844155844155818
 20
105.0
 30
0.0
 10
5.873628617078297
 20
105.2494218285452
 30
0.0
 10
5.932494086826695
 20
105.7475878186079
 30
0.0
 10
6.110741530869768
 20
106.4787452292836
 30
0.0
 10
6.351016395301862
 20
107.1930210379871
 30
0.0
 10
6.614118286269649
 20
107.7746372161658
 30
0.0
 10
6.875213987143026
 20
108.2442480789015
 30
0.0
 10
7.108781785374108
 20
108.6274123377106
 30
0.0
 10
7.386935714645465
 20
109.0351383777927
 30
0.0
 10
7.709343389479873
 20
109.4668737515225
 30
0.0
 10
8.066835170941284
 20
109.929016136254
 30
0.0
 10
8.467317575688998
 20
110.416718467542
 30
0.0
 10
8.90870489607351
 20
110.9304102280659
 30
0.0
 10
9.220172076296274
 20
111.2789441105194
 30
0.0
 10
9.38108766233764
 20
111.4590097402598
 30
0.0
  0
SPLINE
  5
79
330
1F
100
AcDbEntity
  8
0
  6
Continuous
 62
     7
370
    15
100
AcDbSpline
210
0.0
220
0.0
230
1.0
 70
     8
 71
     3
 72
    17
 73
    13
 74
     0
 42
0.00000001
 43
0.00000001
 12
1.0
 22
0.0
 32
0.0
 13
1.0
 23
0.0
 33
0.0
 40
0.0
 40
0.0
 40
0.0
 40
0.0
 40
0.1297038254702771
 40
0.247282509889646
 40
0.3534584971290395
 40
0.4474279189341963
 40
0.5292832013463612
 40
0.5990344773959794
 40
0.6574432517947064
 40
0.7036342243043844
 40
0.8573839243483374
 40
1.0
 40
1.0
 40
1.0
 40
1.0
 10
11.40219155844152
 20
110.0344967532468
 30
0.0
 10
11.30982776218092
 20
109.9320539151075
 30
0.0
 10
11.13373464172404
 20
109.7367449329441
 30
0.0
 10
10.88256605621874
 20
109.4570644886885
 30
0.0
 10
10.66268103585294
 20
109.200493698495
 30
0.0
 10
10.46339223325271
 20
108.9763700301207
 30
0.0
 10
10.29340856441344
 20
108.7781140527044
 30
0.0
 10
10.14839650453125
 20
108.6081893394655
 30
0.0
 10
10.03481079860774
 20
108.461592964563
 30
0.0
 10
9.86276877744266
 20
108.2474149870851
 30
0.0
 10
9.65615320496857
 20
107.945937541428
 30
0.0
 10
9.50949485818714
 20
107.6667953410014
 30
0.0
 10
9.438920454545418
 20
107.5324675324676
 30
0.0
  0
SPLINE
  5
7A
330
1F
100
AcDbEntity
  8
0
  6
Continuous
 62
     7
370
    15
100
AcDbSpline
210
0.0
220
0.0
230
1.0
 70
     8
 71
     3
 72
    15
 73
    11
 74
     0
 42
0.00000001
 43
0.00000001
 12
1.0
 22
0.0
 32
0.0
 13
1.0
 23
0.0
 33
0.0
 40
0.0
 40
0.0
 40
0.0
 40
0.0
 40
0.1191762436674519
 40
0.2364273787594535
 40
0.3526638478564067
 40
0.4690860844274194
 40
0.5894629077907718
 40
0.7176014692905143
 40
0.8541894668533134
 40
1.0
 40
1.0
 40
1.0
 40
1.0
 10
109.0384615384616
 20
115.9194711538462
 30
0.0
 10
109.0347916229062
 20
115.7559642697304
 30
0.0
 10
109.0275110736265
 20
115.4315917032608
 30
0.0
 10
108.9578052158519
 20
114.9520721431563
 30
0.0
 10
108.8513082357063
 20
114.4836102429989
 30
0.0
 10
108.6939140848967
 20
114.0250611262812
 30
0.0
 10
108.4944047806179
 20
113.5654252630523
 30
0.0
 10
108.2372325029624
 20
113.1036709591527
 30
0.0
 10
107.9386360392852
 20
112.6258725240179
 30
0.0
 10
107.7048467767637
 20
112.316954986709
 30
0.0
 10
107.5841346153846
 20
112.1574519230769
 30
0.0
  0
SPLINE
  5
7B
330
1F
100
AcDbEntity
  8
0
  6
Continuous
 62
     7
370
    15
100
AcDbSpline
210
0.0
220
0.0
230
1.0
 70
     8
 71
     3
 72
    23
 73
    19
 74
     0
 42
0.00000001
 43
0.00000001
 12
1.0
 22
0.0
 32
0.0
 13
1.0
 23
0.0
 33
0.0
 40
0.0
 40
0.0
 40
0.0
 40
0.0
 40
0.0756723023817887
 40
0.1473813099735548
 40
0.2160846766840672
 40
0.2816980378616601
 40
0.3454598829002496
 40
0.4074856092774483
 40
0.4687312995608511
 40
0.5297823575334726
 40
0.5900329257114996
 40
0.6485481210783026
 40
0.7059535135830405
 40
0.7631016442005197
 40
0.8202894288974423
 40
0.87847926304405
 40
0.9382260550877838
 40
0.9999999999999999
 40
0.9999999999999999
 40
0.9999999999999999
 40
0.9999999999999999
 10
104.4350961538462
 20
120.0
 30
0.0
 10
104.6095040392961
 20
119.996647971053
 30
0.0
 10
104.9491852941051
 20
119.9901194738123
 30
0.0
 10
105.4450596233523
 20
119.936207091448
 30
0.0
 10
105.9108979275307
 20
119.8422030416352
 30
0.0
 10
106.3507728917261
 20
119.7176813729175
 30
0.0
 10
106.7601672349178
 20
119.5514358405143
 30
0.0
 10
107.1424924262194
 20
119.3504519045845
 30
0.0
 10
107.4917313363678
 20
119.1071018174179
 30
0.0
 10
107.813089844844
 20
118.8346564952423
 30
0.0
 10
108.1003586388153
 20
118.5350549782661
 30
0.0
 10
108.3519801087348
 20
118.2154793084275
 30
0.0
 10
108.5627877475905
 20
117.8761521329448
 30
0.0
 10
108.7396877295844
 20
117.5212094739756
 30
0.0
 10
108.8710347730864
 20
117.1449397912475
 30
0.0
 10
108.9667399395137
 20
116.7525458628307
 30
0.0
 10
109.0301963197314
 20
116.3421970871493
 30
0.0
 10
109.0356759957425
 20
116.0619381815345
 30
0.0
 10
109.0384615384615
 20
115.9194711538462
 30
0.0
  0
SPLINE
  5
7C
330
1F
100
AcDbEntity
  8
0
  6
Continuous
 62
     7
370
    15
100
AcDbSpline
210
0.0
220
0.0
230
1.0
 70
     8
 71
     3
 72
    23
 73
    19
 74
     0
 42
0.00000001
 43
0.00000001
 12
1.0
 22
0.0
 32
0.0
 13
1.0
 23
0.0
 33
0.0
 40
0.0
 40
0.0
 40
0.0
 40
0.0
 40
0.0794357226761146
 40
0.154013174283943
 40
0.2241414790393977
 40
0.2899341692032351
 40
0.3527323106719892
 40
0.4127257792496902
 40
0.4703027418920653
 40
0.5271687617359284
 40
0.5835022647141642
 40
0.6399482172133524
 40
0.6965849669119865
 40
0.7537269142919271
 40
0.8127070377388648
 40
0.8729634806368322
 40
0.9350348604089698
 40
0.9999999999999999
 40
0.9999999999999999
 40
0.9999999999999999
 40
0.9999999999999999
 10
99.6153846153846
 20
115.4747596153846
 30
0.0
 10
99.6385764763153
 20
115.6695075125199
 30
0.0
 10
99.68354178913872
 20
116.0470925688707
 30
0.0
 10
99.79575348117359
 20
116.5894348986787
 30
0.0
 10
99.93786543089585
 20
117.0897701794333
 30
0.0
 10
100.116652593878
 20
117.5471698789056
 30
0.0
 10
100.3247254802711
 20
117.9645426155701
 30
0.0
 10
100.5726975380946
 20
118.3356254507907
 30
0.0
 10
100.8519043612854
 20
118.6645289327442
 30
0.0
 10
101.162587247302
 20
118.9510780126681
 30
0.0
 10
101.5027710839166
 20
119.1961842780893
 30
0.0
 10
101.8597329800417
 20
119.4149792312907
 30
0.0
 10
102.2404489692068
 20
119.5944606451398
 30
0.0
 10
102.6407273560954
 20
119.7423802964699
 30
0.0
 10
103.0603872468885
 20
119.8605964988055
 30
0.0
 10
103.5013696260595
 20
119.9387594490397
 30
0.0
 10
103.9609529142612
 20
119.993739568619
 30
0.0
 10
104.2746663850954
 20
119.9978817381018
 30
0.0
 10
104.4350961538462
 20
120.0
 30
0.0
  0
SPLINE
  5
7E
330
1F
100
AcDbEntity
  8
0
  6
Continuous
 62
     7
370
    15
100
AcDbSpline
210
0.0
220
0.0
230
1.0
 70
     8
 71
     3
 72
    19
 73
    15
 74
     0
 42
0.00000001
 43
0.00000001
 12
1.0
 22
0.0
 32
0.0
 13
1.0
 23
0.0
 33
0.0
 40
0.0
 40
0.0
 40
0.0
 40
0.0
 40
0.1168990281982792
 40
0.2258236839530653
 40
0.3300860790235561
 40
0.4354514863452296
 40
0.4903067309632201
 40
0.548244057167717
 40
0.6107668331470256
 40
0.6776750949389454
 40
0.749188602744901
 40
0.8268587199157832
 40
0.9101115940212842
 40
1.0
 40
1.0
 40
1.0
 40
1.0
 10
104.375
 20
117.5
 30
0.0
 10
104.2441664427398
 20
117.4940724268545
 30
0.0
 10
103.9914242571069
 20
117.4826216353016
 30
0.0
 10
103.6322227735241
 20
117.382589091569
 30
0.0
 10
103.3179877706202
 20
117.2094222350628
 30
0.0
 10
103.0940471950287
 20
117.012081897491
 30
0.0
 10
102.9427647140764
 20
116.8201827523183
 30
0.0
 10
102.8396861089383
 20
116.652955288361
 30
0.0
 10
102.7508403986972
 20
116.4629336067484
 30
0.0
 10
102.6721156864479
 20
116.2522570338362
 30
0.0
 10
102.6099320641352
 20
116.0185120475543
 30
0.0
 10
102.5598532365974
 20
115.7634788517687
 30
0.0
 10
102.5194969465799
 20
115.4857850056337
 30
0.0
 10
102.5066629340427
 20
115.2926013446351
 30
0.0
 10
102.5
 20
115.1923076923077
 30
0.0
  0
SPLINE
  5
7F
330
1F
100
AcDbEntity
  8
0
  6
Continuous
 62
     7
370
    15
100
AcDbSpline
210
0.0
220
0.0
230
1.0
 70
     8
 71
     3
 72
    15
 73
    11
 74
     0
 42
0.00000001
 43
0.00000001
 12
1.0
 22
0.0
 32
0.0
 13
1.0
 23
0.0
 33
0.0
 40
0.0
 40
0.0
 40
0.0
 40
0.0
 40
0.1491402908464761
 40
0.282161798197631
 40
0.404655703035362
 40
0.5211096910238625
 40
0.634416453969821
 40
0.7487964497315254
 40
0.8687105535463923
 40
1.0
 40
1.0
 40
1.0
 40
1.0
 10
106.1538461538462
 20
115.5318509615385
 30
0.0
 10
106.1484436543521
 20
115.6815115550221
 30
0.0
 10
106.138222546673
 20
115.9646577252286
 30
0.0
 10
106.0525167921434
 20
116.3642293292845
 30
0.0
 10
105.9005315445532
 20
116.70771772768
 30
0.0
 10
105.6912758277887
 20
116.9961772644183
 30
0.0
 10
105.4266715546591
 20
117.2221842072173
 30
0.0
 10
105.1173414645227
 20
117.3891813996638
 30
0.0
 10
104.7587574610249
 20
117.4815090825153
 30
0.0
 10
104.5067234696117
 20
117.493653054195
 30
0.0
 10
104.375
 20
117.5
 30
0.0
  0
SPLINE
  5
80
330
1F
100
AcDbEntity
  8
0
  6
Continuous
 62
     7
370
    15
100
AcDbSpline
210
0.0
220
0.0
230
1.0
 70
     8
 71
     3
 72
    11
 73
     7
 74
     0
 42
0.00000001
 43
0.00000001
 12
1.0
 22
0.0
 32
0.0
 13
1.0
 23
0.0
 33
0.0
 40
0.0
 40
0.0
 40
0.0
 40
0.0
 40
0.2727955500866114
 40
0.5261910092278127
 40
0.7669044194616181
 40
1.0
 40
1.0
 40
1.0
 40
1.0
 10
105.5829326923077
 20
113.7980769230769
 30
0.0
 10
105.6697819550153
 20
113.9423428264082
 30
0.0
 10
105.8373041201689
 20
114.2206150388653
 30
0.0
 10
106.0210060722045
 20
114.6582031253651
 30
0.0
 10
106.1312708312621
 20
115.0957008217023
 30
0.0
 10
106.146402139283
 20
115.3880342793822
 30
0.0
 10
106.1538461538462
 20
115.5318509615385
 30
0.0
  0
SPLINE
  5
81
330
1F
100
AcDbEntity
  8
0
  6
Continuous
 62
     7
370
    15
100
AcDbSpline
210
0.0
220
0.0
230
1.0
 70
     8
 71
     3
 72
    15
 73
    11
 74
     0
 42
0.00000001
 43
0.00000001
 12
1.0
 22
0.0
 32
0.0
 13
1.0
 23
0.0
 33
0.0
 40
0.0
 40
0.0
 40
0.0
 40
0.0
 40
0.1850900618630627
 40
0.3523569643820082
 40
0.50307951175905
 40
0.6372794639743619
 40
0.7524732703005148
 40
0.8518857877882215
 40
0.9343394349213427
 40
1.0
 40
1.0
 40
1.0
 40
1.0
 10
103.2872596153846
 20
111.3762019230769
 30
0.0
 10
103.4355650599714
 20
111.5193572795401
 30
0.0
 10
103.7178949470002
 20
111.7918829156041
 30
0.0
 10
104.1199332538106
 20
112.1821285807385
 30
0.0
 10
104.4733663535272
 20
112.5408752715844
 30
0.0
 10
104.7855840424577
 20
112.858826322302
 30
0.0
 10
105.0493736500924
 20
113.1440775714665
 30
0.0
 10
105.2682050872985
 20
113.3921491937136
 30
0.0
 10
105.4448498268339
 20
113.6040514123399
 30
0.0
 10
105.5405207712681
 20
113.7384823121685
 30
0.0
 10
105.5829326923077
 20
113.7980769230769
 30
0.0
  0
SPLINE
  5
82
330
1F
100
AcDbEntity
  8
0
  6
Continuous
 62
     7
370
    15
100
AcDbSpline
210
0.0
220
0.0
230
1.0
 70
     8
 71
     3
 72
    19
 73
    15
 74
     0
 42
0.00000001
 43
0.00000001
 12
1.0
 22
0.0
 32
0.0
 13
1.0
 23
0.0
 33
0.0
 40
0.0
 40
0.0
 40
0.0
 40
0.0
 40
0.0963574538682384
 40
0.1926608788082152
 40
0.2894549334517493
 40
0.3884793011163924
 40
0.4419214173673359
 40
0.5015211030486822
 40
0.567882775817653
 40
0.640891650784354
 40
0.72037065881244
 40
0.8066369162819667
 40
0.9000159377788834
 40
1.0
 40
1.0
 40
1.0
 40
1.0
 10
99.23076923076923
 20
105.0
 30
0.0
 10
99.26397580455465
 20
105.2465322377044
 30
0.0
 10
99.33037033275025
 20
105.7394584791514
 30
0.0
 10
99.53563847687744
 20
106.4594996488056
 30
0.0
 10
99.80960113750187
 20
107.1621368074237
 30
0.0
 10
100.1069355684375
 20
107.7339129038749
 30
0.0
 10
100.4026675942629
 20
108.1941729863727
 30
0.0
 10
100.6709852777927
 20
108.5713136542214
 30
0.0
 10
100.9910784221551
 20
108.9725751370408
 30
0.0
 10
101.3583021301005
 20
109.4011967270666
 30
0.0
 10
101.7706269722407
 20
109.8585182870884
 30
0.0
 10
102.2311291578364
 20
110.3428395931074
 30
0.0
 10
102.7420053537876
 20
110.8518420633573
 30
0.0
 10
103.1014158573235
 20
111.1974797859564
 30
0.0
 10
103.2872596153846
 20
111.3762019230769
 30
0.0
  0
SPLINE
  5
86
330
1F
100
AcDbEntity
  8
0
  6
Continuous
 62
     7
370
    15
100
AcDbSpline
210
0.0
220
0.0
230
1.0
 70
     8
 71
     3
 72
    25
 73
    21
 74
     0
 42
0.00000001
 43
0.00000001
 12
1.0
 22
0.0
 32
0.0
 13
1.0
 23
0.0
 33
0.0
 40
0.0
 40
0.0
 40
0.0
 40
0.0
 40
0.0369753139213746
 40
0.0791925522967066
 40
0.126700944054956
 40
0.1791840785794698
 40
0.2373686428140497
 40
0.300558539744501
 40
0.3691531357212959
 40
0.4431123780003084
 40
0.5160183892506159
 40
0.582473178961277
 40
0.6421368079450552
 40
0.6946199424695707
 40
0.7406794327797188
 40
0.7795890342775182
 40
0.8120737912440682
 40
0.8378140957748635
 40
0.922564880965354
 40
1.0
 40
1.0
 40
1.0
 40
1.0
 10
107.5841346153846
 20
112.1574519230769
 30
0.0
 10
107.5385107181748
 20
112.099988489523
 30
0.0
 10
107.4407949050393
 20
111.9769151337011
 30
0.0
 10
107.2745546291389
 20
111.7882011755964
 30
0.0
 10
107.0818964478712
 20
111.5820660434046
 30
0.0
 10
106.8655415730614
 20
111.3546513634648
 30
0.0
 10
106.6183433792048
 20
111.1140105113515
 30
0.0
 10
106.3491960712425
 20
110.8500800740559
 30
0.0
 10
106.0462563838084
 20
110.576360969314
 30
0.0
 10
105.7324842775624
 20
110.2860252369556
 30
0.0
 10
105.4173483034791
 20
110.0034455514147
 30
0.0
 10
105.1276929088497
 20
109.7350574974005
 30
0.0
 10
104.8645894296967
 20
109.4975917130649
 30
0.0
 10
104.6402910878876
 20
109.2779389972913
 30
0.0
 10
104.4416047113254
 20
109.0910904911417
 30
0.0
 10
104.275691615595
 20
108.9274648191535
 30
0.0
 10
104.1394471730302
 20
108.7910232254621
 30
0.0
 10
103.9517110995439
 20
108.5783453971337
 30
0.0
 10
103.7128382514865
 20
108.2906985458339
 30
0.0
 10
103.5447814355032
 20
108.0158438448696
 30
0.0
 10
103.4645432692308
 20
107.8846153846154
 30
0.0
  0
SPLINE
  5
87
330
1F
100
AcDbEntity
  8
0
  6
Continuous
 62
     7
370
    15
100
AcDbSpline
210
0.0
220
0.0
230
1.0
 70
     8
 71
     3
 72
    15
 73
    11
 74
     0
 42
0.00000001
 43
0.00000001
 12
1.0
 22
0.0
 32
0.0
 13
1.0
 23
0.0
 33
0.0
 40
0.0
 40
0.0
 40
0.0
 40
0.0
 40
0.1191762436674516
 40
0.236427378759453
 40
0.352663847856406
 40
0.4690860844274185
 40
0.589462907790772
 40
0.7176014692905109
 40
0.8541894668533118
 40
1.0
 40
1.0
 40
1.0
 40
1.0
 10
204.0384615384615
 20
115.9194711538462
 30
0.0
 10
204.0347916229063
 20
115.7559642697304
 30
0.0
 10
204.0275110736264
 20
115.4315917032608
 30
0.0
 10
203.957805215852
 20
114.9520721431564
 30
0.0
 10
203.8513082357063
 20
114.4836102429989
 30
0.0
 10
203.6939140848967
 20
114.0250611262812
 30
0.0
 10
203.4944047806179
 20
113.5654252630523
 30
0.0
 10
203.2372325029625
 20
113.1036709591527
 30
0.0
 10
202.9386360392852
 20
112.6258725240179
 30
0.0
 10
202.7048467767637
 20
112.316954986709
 30
0.0
 10
202.5841346153846
 20
112.157451923077
 30
0.0
  0
SPLINE
  5
88
330
1F
100
AcDbEntity
  8
0
  6
Continuous
 62
     7
370
    15
100
AcDbSpline
210
0.0
220
0.0
230
1.0
 70
     8
 71
     3
 72
    23
 73
    19
 74
     0
 42
0.00000001
 43
0.00000001
 12
1.0
 22
0.0
 32
0.0
 13
1.0
 23
0.0
 33
0.0
 40
0.0
 40
0.0
 40
0.0
 40
0.0
 40
0.0756723023817869
 40
0.1473813099735531
 40
0.2160846766840658
 40
0.2816980378616608
 40
0.3454598829002467
 40
0.407485609277449
 40
0.4687312995608504
 40
0.5297823575334735
 40
0.5900329257114979
 40
0.6485481210783024
 40
0.7059535135830394
 40
0.7631016442005188
 40
0.8202894288974422
 40
0.87847926304405
 40
0.9382260550877837
 40
1.0
 40
1.0
 40
1.0
 40
1.0
 10
199.4350961538462
 20
120.0000000000001
 30
0.0
 10
199.6095040392962
 20
119.996647971053
 30
0.0
 10
199.9491852941051
 20
119.9901194738124
 30
0.0
 10
200.4450596233524
 20
119.936207091448
 30
0.0
 10
200.9108979275307
 20
119.8422030416351
 30
0.0
 10
201.3507728917261
 20
119.7176813729176
 30
0.0
 10
201.7601672349178
 20
119.5514358405143
 30
0.0
 10
202.1424924262194
 20
119.3504519045846
 30
0.0
 10
202.4917313363678
 20
119.1071018174179
 30
0.0
 10
202.813089844844
 20
118.8346564952423
 30
0.0
 10
203.1003586388153
 20
118.5350549782661
 30
0.0
 10
203.3519801087348
 20
118.2154793084276
 30
0.0
 10
203.5627877475906
 20
117.8761521329448
 30
0.0
 10
203.7396877295844
 20
117.5212094739756
 30
0.0
 10
203.8710347730865
 20
117.1449397912475
 30
0.0
 10
203.9667399395137
 20
116.7525458628307
 30
0.0
 10
204.0301963197315
 20
116.3421970871493
 30
0.0
 10
204.0356759957425
 20
116.0619381815345
 30
0.0
 10
204.0384615384615
 20
115.9194711538462
 30
0.0
  0
SPLINE
  5
89
330
1F
100
AcDbEntity
  8
0
  6
Continuous
 62
     7
370
    15
100
AcDbSpline
210
0.0
220
0.0
230
1.0
 70
     8
 71
     3
 72
    23
 73
    19
 74
     0
 42
0.00000001
 43
0.00000001
 12
1.0
 22
0.0
 32
0.0
 13
1.0
 23
0.0
 33
0.0
 40
0.0
 40
0.0
 40
0.0
 40
0.0
 40
0.0794357226761147
 40
0.1540131742839426
 40
0.2241414790393976
 40
0.2899341692032349
 40
0.352732310671988
 40
0.4127257792496898
 40
0.4703027418920648
 40
0.5271687617359279
 40
0.5835022647141651
 40
0.6399482172133532
 40
0.696584966911987
 40
0.7537269142919258
 40
0.8127070377388615
 40
0.8729634806368307
 40
0.93503486040897
 40
1.0
 40
1.0
 40
1.0
 40
1.0
 10
194.6153846153846
 20
115.4747596153847
 30
0.0
 10
194.6385764763154
 20
115.6695075125199
 30
0.0
 10
194.6835417891388
 20
116.0470925688708
 30
0.0
 10
194.7957534811735
 20
116.5894348986786
 30
0.0
 10
194.937865430896
 20
117.0897701794334
 30
0.0
 10
195.1166525938779
 20
117.5471698789056
 30
0.0
 10
195.3247254802711
 20
117.9645426155702
 30
0.0
 10
195.5726975380946
 20
118.3356254507907
 30
0.0
 10
195.8519043612854
 20
118.6645289327442
 30
0.0
 10
196.1625872473021
 20
118.9510780126682
 30
0.0
 10
196.5027710839166
 20
119.1961842780892
 30
0.0
 10
196.8597329800419
 20
119.4149792312908
 30
0.0
 10
197.2404489692068
 20
119.5944606451398
 30
0.0
 10
197.6407273560954
 20
119.7423802964699
 30
0.0
 10
198.0603872468886
 20
119.8605964988054
 30
0.0
 10
198.5013696260596
 20
119.9387594490398
 30
0.0
 10
198.9609529142613
 20
119.993739568619
 30
0.0
 10
199.2746663850954
 20
119.9978817381017
 30
0.0
 10
199.4350961538462
 20
120.0000000000001
 30
0.0
  0
SPLINE
  5
8B
330
1F
100
AcDbEntity
  8
0
  6
Continuous
 62
     7
370
    15
100
AcDbSpline
210
0.0
220
0.0
230
1.0
 70
     8
 71
     3
 72
    19
 73
    15
 74
     0
 42
0.00000001
 43
0.00000001
 12
1.0
 22
0.0
 32
0.0
 13
1.0
 23
0.0
 33
0.0
 40
0.0
 40
0.0
 40
0.0
 40
0.0
 40
0.1168990281982833
 40
0.2258236839530653
 40
0.3300860790235561
 40
0.4354514863452326
 40
0.4903067309632205
 40
0.5482440571677173
 40
0.6107668331470242
 40
0.6776750949389453
 40
0.7491886027449018
 40
0.826858719915784
 40
0.9101115940212845
 40
0.9999999999999999
 40
0.9999999999999999
 40
0.9999999999999999
 40
0.9999999999999999
 10
199.375
 20
117.5
 30
0.0
 10
199.2441664427398
 20
117.4940724268545
 30
0.0
 10
198.9914242571069
 20
117.4826216353016
 30
0.0
 10
198.6322227735241
 20
117.382589091569
 30
0.0
 10
198.3179877706203
 20
117.2094222350628
 30
0.0
 10
198.0940471950288
 20
117.0120818974911
 30
0.0
 10
197.9427647140763
 20
116.8201827523183
 30
0.0
 10
197.8396861089384
 20
116.652955288361
 30
0.0
 10
197.7508403986972
 20
116.4629336067485
 30
0.0
 10
197.6721156864479
 20
116.2522570338362
 30
0.0
 10
197.6099320641353
 20
116.0185120475544
 30
0.0
 10
197.5598532365973
 20
115.7634788517687
 30
0.0
 10
197.5194969465799
 20
115.4857850056337
 30
0.0
 10
197.5066629340428
 20
115.2926013446352
 30
0.0
 10
197.5
 20
115.1923076923078
 30
0.0
  0
SPLINE
  5
8C
330
1F
100
AcDbEntity
  8
0
  6
Continuous
 62
     7
370
    15
100
AcDbSpline
210
0.0
220
0.0
230
1.0
 70
     8
 71
     3
 72
    15
 73
    11
 74
     0
 42
0.00000001
 43
0.00000001
 12
1.0
 22
0.0
 32
0.0
 13
1.0
 23
0.0
 33
0.0
 40
0.0
 40
0.0
 40
0.0
 40
0.0
 40
0.1491402908464764
 40
0.2821617981976316
 40
0.4046557030353647
 40
0.5211096910238654
 40
0.6344164539698206
 40
0.7487964497315291
 40
0.868710553546392
 40
1.0
 40
1.0
 40
1.0
 40
1.0
 10
201.1538461538462
 20
115.5318509615385
 30
0.0
 10
201.1484436543521
 20
115.6815115550221
 30
0.0
 10
201.138222546673
 20
115.9646577252286
 30
0.0
 10
201.0525167921433
 20
116.3642293292845
 30
0.0
 10
200.9005315445532
 20
116.70771772768
 30
0.0
 10
200.6912758277888
 20
116.9961772644184
 30
0.0
 10
200.4266715546591
 20
117.2221842072173
 30
0.0
 10
200.1173414645227
 20
117.3891813996638
 30
0.0
 10
199.7587574610249
 20
117.4815090825153
 30
0.0
 10
199.5067234696117
 20
117.4936530541951
 30
0.0
 10
199.375
 20
117.5
 30
0.0
  0
SPLINE
  5
8D
330
1F
100
AcDbEntity
  8
0
  6
Continuous
 62
     7
370
    15
100
AcDbSpline
210
0.0
220
0.0
230
1.0
 70
     8
 71
     3
 72
    11
 73
     7
 74
     0
 42
0.00000001
 43
0.00000001
 12
1.0
 22
0.0
 32
0.0
 13
1.0
 23
0.0
 33
0.0
 40
0.0
 40
0.0
 40
0.0
 40
0.0
 40
0.2727955500866087
 40
0.5261910092278109
 40
0.7669044194616174
 40
1.0
 40
1.0
 40
1.0
 40
1.0
 10
200.5829326923077
 20
113.798076923077
 30
0.0
 10
200.6697819550153
 20
113.9423428264082
 30
0.0
 10
200.8373041201689
 20
114.2206150388653
 30
0.0
 10
201.0210060722047
 20
114.6582031253652
 30
0.0
 10
201.131270831262
 20
115.0957008217023
 30
0.0
 10
201.146402139283
 20
115.3880342793822
 30
0.0
 10
201.1538461538462
 20
115.5318509615385
 30
0.0
  0
SPLINE
  5
8E
330
1F
100
AcDbEntity
  8
0
  6
Continuous
 62
     7
370
    15
100
AcDbSpline
210
0.0
220
0.0
230
1.0
 70
     8
 71
     3
 72
    15
 73
    11
 74
     0
 42
0.00000001
 43
0.00000001
 12
1.0
 22
0.0
 32
0.0
 13
1.0
 23
0.0
 33
0.0
 40
0.0
 40
0.0
 40
0.0
 40
0.0
 40
0.1850900618630628
 40
0.3523569643820054
 40
0.5030795117590501
 40
0.6372794639743592
 40
0.7524732703005123
 40
0.851885787788219
 40
0.9343394349213403
 40
1.0
 40
1.0
 40
1.0
 40
1.0
 10
198.2872596153846
 20
111.376201923077
 30
0.0
 10
198.4355650599715
 20
111.5193572795401
 30
0.0
 10
198.7178949470003
 20
111.7918829156041
 30
0.0
 10
199.1199332538105
 20
112.1821285807386
 30
0.0
 10
199.4733663535272
 20
112.5408752715844
 30
0.0
 10
199.7855840424578
 20
112.8588263223021
 30
0.0
 10
200.0493736500924
 20
113.1440775714665
 30
0.0
 10
200.2682050872986
 20
113.3921491937136
 30
0.0
 10
200.4448498268339
 20
113.6040514123399
 30
0.0
 10
200.5405207712682
 20
113.7384823121685
 30
0.0
 10
200.5829326923077
 20
113.798076923077
 30
0.0
  0
SPLINE
  5
8F
330
1F
100
AcDbEntity
  8
0
  6
Continuous
 62
     7
370
    15
100
AcDbSpline
210
0.0
220
0.0
230
1.0
 70
     8
 71
     3
 72
    19
 73
    15
 74
     0
 42
0.00000001
 43
0.00000001
 12
1.0
 22
0.0
 32
0.0
 13
1.0
 23
0.0
 33
0.0
 40
0.0
 40
0.0
 40
0.0
 40
0.0
 40
0.0963574538682385
 40
0.1926608788082143
 40
0.2894549334517483
 40
0.388479301116392
 40
0.4419214173673354
 40
0.5015211030486827
 40
0.5678827758176523
 40
0.6408916507843545
 40
0.7203706588124403
 40
0.8066369162819644
 40
0.9000159377788824
 40
1.0
 40
1.0
 40
1.0
 40
1.0
 10
194.2307692307693
 20
105.0000000000001
 30
0.0
 10
194.2639758045547
 20
105.2465322377044
 30
0.0
 10
194.3303703327504
 20
105.7394584791514
 30
0.0
 10
194.5356384768775
 20
106.4594996488056
 30
0.0
 10
194.8096011375018
 20
107.1621368074237
 30
0.0
 10
195.1069355684376
 20
107.7339129038749
 30
0.0
 10
195.4026675942629
 20
108.1941729863727
 30
0.0
 10
195.6709852777928
 20
108.5713136542215
 30
0.0
 10
195.9910784221552
 20
108.9725751370408
 30
0.0
 10
196.3583021301006
 20
109.4011967270666
 30
0.0
 10
196.7706269722407
 20
109.8585182870884
 30
0.0
 10
197.2311291578364
 20
110.3428395931074
 30
0.0
 10
197.7420053537876
 20
110.8518420633573
 30
0.0
 10
198.1014158573235
 20
111.1974797859564
 30
0.0
 10
198.2872596153846
 20
111.376201923077
 30
0.0
  0
SPLINE
  5
93
330
1F
100
AcDbEntity
  8
0
  6
Continuous
 62
     7
370
    15
100
AcDbSpline
210
0.0
220
0.0
230
1.0
 70
     8
 71
     3
 72
    25
 73
    21
 74
     0
 42
0.00000001
 43
0.00000001
 12
1.0
 22
0.0
 32
0.0
 13
1.0
 23
0.0
 33
0.0
 40
0.0
 40
0.0
 40
0.0
 40
0.0
 40
0.0369753139213747
 40
0.0791925522967052
 40
0.1267009440549531
 40
0.1791840785794686
 40
0.2373686428140503
 40
0.3005585397445001
 40
0.369153135721295
 40
0.4431123780003077
 40
0.516018389250617
 40
0.5824731789612783
 40
0.642136807945055
 40
0.6946199424695706
 40
0.7406794327797206
 40
0.7795890342775182
 40
0.8120737912440683
 40
0.8378140957748637
 40
0.9225648809653528
 40
1.0
 40
1.0
 40
1.0
 40
1.0
 10
202.5841346153846
 20
112.157451923077
 30
0.0
 10
202.5385107181748
 20
112.099988489523
 30
0.0
 10
202.4407949050394
 20
111.9769151337012
 30
0.0
 10
202.2745546291389
 20
111.7882011755964
 30
0.0
 10
202.0818964478713
 20
111.5820660434047
 30
0.0
 10
201.8655415730614
 20
111.3546513634647
 30
0.0
 10
201.618343379205
 20
111.1140105113516
 30
0.0
 10
201.3491960712425
 20
110.8500800740558
 30
0.0
 10
201.0462563838085
 20
110.5763609693141
 30
0.0
 10
200.7324842775624
 20
110.2860252369556
 30
0.0
 10
200.4173483034792
 20
110.0034455514147
 30
0.0
 10
200.1276929088496
 20
109.7350574974005
 30
0.0
 10
199.8645894296967
 20
109.4975917130649
 30
0.0
 10
199.6402910878876
 20
109.2779389972913
 30
0.0
 10
199.4416047113254
 20
109.0910904911418
 30
0.0
 10
199.275691615595
 20
108.9274648191535
 30
0.0
 10
199.1394471730302
 20
108.7910232254621
 30
0.0
 10
198.951711099544
 20
108.5783453971338
 30
0.0
 10
198.7128382514865
 20
108.2906985458339
 30
0.0
 10
198.5447814355032
 20
108.0158438448697
 30
0.0
 10
198.4645432692308
 20
107.8846153846154
 30
0.0
  0
SPLINE
  5
94
330
1F
100
AcDbEntity
  8
0
  6
Continuous
 62
     7
370
    15
100
AcDbSpline
210
0.0
220
0.0
230
1.0
 70
     8
 71
     3
 72
    15
 73
    11
 74
     0
 42
0.00000001
 43
0.00000001
 12
1.0
 22
0.0
 32
0.0
 13
1.0
 23
0.0
 33
0.0
 40
0.0
 40
0.0
 40
0.0
 40
0.0
 40
0.1191762436674515
 40
0.2364273787594528
 40
0.3526638478564086
 40
0.4690860844274211
 40
0.589462907790769
 40
0.7176014692905143
 40
0.8541894668533078
 40
1.0
 40
1.0
 40
1.0
 40
1.0
 10
299.0384615384615
 20
115.9194711538462
 30
0.0
 10
299.0347916229062
 20
115.7559642697304
 30
0.0
 10
299.0275110736264
 20
115.4315917032608
 30
0.0
 10
298.957805215852
 20
114.9520721431564
 30
0.0
 10
298.8513082357063
 20
114.4836102429989
 30
0.0
 10
298.6939140848966
 20
114.0250611262812
 30
0.0
 10
298.494404780618
 20
113.5654252630523
 30
0.0
 10
298.2372325029624
 20
113.1036709591528
 30
0.0
 10
297.9386360392851
 20
112.6258725240178
 30
0.0
 10
297.7048467767638
 20
112.316954986709
 30
0.0
 10
297.5841346153846
 20
112.1574519230769
 30
0.0
  0
SPLINE
  5
95
330
1F
100
AcDbEntity
  8
0
  6
Continuous
 62
     7
370
    15
100
AcDbSpline
210
0.0
220
0.0
230
1.0
 70
     8
 71
     3
 72
    23
 73
    19
 74
     0
 42
0.00000001
 43
0.00000001
 12
1.0
 22
0.0
 32
0.0
 13
1.0
 23
0.0
 33
0.0
 40
0.0
 40
0.0
 40
0.0
 40
0.0
 40
0.0756723023817946
 40
0.1473813099735565
 40
0.2160846766840688
 40
0.2816980378616596
 40
0.345459882900249
 40
0.4074856092774476
 40
0.4687312995608486
 40
0.5297823575334715
 40
0.5900329257115012
 40
0.6485481210783054
 40
0.7059535135830421
 40
0.7631016442005213
 40
0.8202894288974444
 40
0.8784792630440499
 40
0.9382260550877838
 40
1.0
 40
1.0
 40
1.0
 40
1.0
 10
294.4350961538461
 20
120.0
 30
0.0
 10
294.6095040392961
 20
119.996647971053
 30
0.0
 10
294.9491852941051
 20
119.9901194738124
 30
0.0
 10
295.4450596233522
 20
119.9362070914479
 30
0.0
 10
295.9108979275307
 20
119.8422030416351
 30
0.0
 10
296.3507728917261
 20
119.7176813729176
 30
0.0
 10
296.7601672349177
 20
119.5514358405143
 30
0.0
 10
297.1424924262193
 20
119.3504519045845
 30
0.0
 10
297.4917313363677
 20
119.1071018174179
 30
0.0
 10
297.8130898448439
 20
118.8346564952422
 30
0.0
 10
298.1003586388151
 20
118.5350549782661
 30
0.0
 10
298.3519801087349
 20
118.2154793084276
 30
0.0
 10
298.5627877475906
 20
117.8761521329448
 30
0.0
 10
298.7396877295842
 20
117.5212094739756
 30
0.0
 10
298.8710347730866
 20
117.1449397912475
 30
0.0
 10
298.9667399395136
 20
116.7525458628307
 30
0.0
 10
299.0301963197314
 20
116.3421970871493
 30
0.0
 10
299.0356759957425
 20
116.0619381815345
 30
0.0
 10
299.0384615384615
 20
115.9194711538462
 30
0.0
  0
SPLINE
  5
96
330
1F
100
AcDbEntity
  8
0
  6
Continuous
 62
     7
370
    15
100
AcDbSpline
210
0.0
220
0.0
230
1.0
 70
     8
 71
     3
 72
    23
 73
    19
 74
     0
 42
0.00000001
 43
0.00000001
 12
1.0
 22
0.0
 32
0.0
 13
1.0
 23
0.0
 33
0.0
 40
0.0
 40
0.0
 40
0.0
 40
0.0
 40
0.0794357226761146
 40
0.1540131742839436
 40
0.2241414790393979
 40
0.2899341692032369
 40
0.3527323106719904
 40
0.4127257792496904
 40
0.4703027418920657
 40
0.5271687617359319
 40
0.5835022647141632
 40
0.6399482172133515
 40
0.6965849669119858
 40
0.7537269142919283
 40
0.8127070377388643
 40
0.8729634806368337
 40
0.9350348604089697
 40
1.0
 40
1.0
 40
1.0
 40
1.0
 10
289.6153846153846
 20
115.4747596153846
 30
0.0
 10
289.6385764763152
 20
115.6695075125199
 30
0.0
 10
289.6835417891388
 20
116.0470925688707
 30
0.0
 10
289.7957534811736
 20
116.5894348986786
 30
0.0
 10
289.9378654308958
 20
117.0897701794334
 30
0.0
 10
290.1166525938779
 20
117.5471698789055
 30
0.0
 10
290.3247254802712
 20
117.9645426155702
 30
0.0
 10
290.5726975380946
 20
118.3356254507907
 30
0.0
 10
290.8519043612854
 20
118.6645289327442
 30
0.0
 10
291.162587247302
 20
118.9510780126681
 30
0.0
 10
291.5027710839166
 20
119.1961842780892
 30
0.0
 10
291.8597329800418
 20
119.4149792312908
 30
0.0
 10
292.2404489692066
 20
119.5944606451397
 30
0.0
 10
292.6407273560953
 20
119.7423802964699
 30
0.0
 10
293.0603872468884
 20
119.8605964988054
 30
0.0
 10
293.5013696260595
 20
119.9387594490397
 30
0.0
 10
293.9609529142612
 20
119.9937395686189
 30
0.0
 10
294.2746663850954
 20
119.9978817381018
 30
0.0
 10
294.4350961538461
 20
120.0
 30
0.0
  0
SPLINE
  5
98
330
1F
100
AcDbEntity
  8
0
  6
Continuous
 62
     7
370
    15
100
AcDbSpline
210
0.0
220
0.0
230
1.0
 70
     8
 71
     3
 72
    19
 73
    15
 74
     0
 42
0.00000001
 43
0.00000001
 12
1.0
 22
0.0
 32
0.0
 13
1.0
 23
0.0
 33
0.0
 40
0.0
 40
0.0
 40
0.0
 40
0.0
 40
0.1168990281982904
 40
0.2258236839530795
 40
0.3300860790235692
 40
0.4354514863452323
 40
0.49030673096323
 40
0.5482440571677263
 40
0.6107668331470291
 40
0.6776750949389467
 40
0.7491886027449048
 40
0.8268587199157862
 40
0.9101115940212848
 40
1.0
 40
1.0
 40
1.0
 40
1.0
 10
294.375
 20
117.5
 30
0.0
 10
294.2441664427397
 20
117.4940724268544
 30
0.0
 10
293.9914242571068
 20
117.4826216353016
 30
0.0
 10
293.6322227735241
 20
117.382589091569
 30
0.0
 10
293.3179877706201
 20
117.2094222350628
 30
0.0
 10
293.0940471950288
 20
117.012081897491
 30
0.0
 10
292.9427647140762
 20
116.8201827523183
 30
0.0
 10
292.8396861089383
 20
116.652955288361
 30
0.0
 10
292.7508403986972
 20
116.4629336067484
 30
0.0
 10
292.6721156864479
 20
116.2522570338362
 30
0.0
 10
292.6099320641352
 20
116.0185120475544
 30
0.0
 10
292.5598532365972
 20
115.7634788517687
 30
0.0
 10
292.51949694658
 20
115.4857850056337
 30
0.0
 10
292.5066629340427
 20
115.2926013446351
 30
0.0
 10
292.5
 20
115.1923076923077
 30
0.0
  0
SPLINE
  5
99
330
1F
100
AcDbEntity
  8
0
  6
Continuous
 62
     7
370
    15
100
AcDbSpline
210
0.0
220
0.0
230
1.0
 70
     8
 71
     3
 72
    15
 73
    11
 74
     0
 42
0.00000001
 43
0.00000001
 12
1.0
 22
0.0
 32
0.0
 13
1.0
 23
0.0
 33
0.0
 40
0.0
 40
0.0
 40
0.0
 40
0.0
 40
0.1491402908464758
 40
0.2821617981976315
 40
0.4046557030353689
 40
0.5211096910238646
 40
0.6344164539698274
 40
0.7487964497315283
 40
0.8687105535463916
 40
1.0
 40
1.0
 40
1.0
 40
1.0
 10
296.1538461538461
 20
115.5318509615385
 30
0.0
 10
296.148443654352
 20
115.6815115550221
 30
0.0
 10
296.1382225466731
 20
115.9646577252286
 30
0.0
 10
296.0525167921434
 20
116.3642293292844
 30
0.0
 10
295.9005315445532
 20
116.70771772768
 30
0.0
 10
295.6912758277887
 20
116.9961772644183
 30
0.0
 10
295.4266715546591
 20
117.2221842072173
 30
0.0
 10
295.1173414645227
 20
117.3891813996638
 30
0.0
 10
294.7587574610249
 20
117.4815090825153
 30
0.0
 10
294.5067234696117
 20
117.493653054195
 30
0.0
 10
294.375
 20
117.5
 30
0.0
  0
SPLINE
  5
9A
330
1F
100
AcDbEntity
  8
0
  6
Continuous
 62
     7
370
    15
100
AcDbSpline
210
0.0
220
0.0
230
1.0
 70
     8
 71
     3
 72
    11
 73
     7
 74
     0
 42
0.00000001
 43
0.00000001
 12
1.0
 22
0.0
 32
0.0
 13
1.0
 23
0.0
 33
0.0
 40
0.0
 40
0.0
 40
0.0
 40
0.0
 40
0.2727955500866166
 40
0.5261910092278136
 40
0.7669044194616167
 40
0.9999999999999999
 40
0.9999999999999999
 40
0.9999999999999999
 40
0.9999999999999999
 10
295.5829326923077
 20
113.7980769230769
 30
0.0
 10
295.6697819550153
 20
113.9423428264082
 30
0.0
 10
295.8373041201689
 20
114.2206150388652
 30
0.0
 10
296.0210060722046
 20
114.6582031253652
 30
0.0
 10
296.131270831262
 20
115.0957008217023
 30
0.0
 10
296.146402139283
 20
115.3880342793822
 30
0.0
 10
296.1538461538461
 20
115.5318509615385
 30
0.0
  0
SPLINE
  5
9B
330
1F
100
AcDbEntity
  8
0
  6
Continuous
 62
     7
370
    15
100
AcDbSpline
210
0.0
220
0.0
230
1.0
 70
     8
 71
     3
 72
    15
 73
    11
 74
     0
 42
0.00000001
 43
0.00000001
 12
1.0
 22
0.0
 32
0.0
 13
1.0
 23
0.0
 33
0.0
 40
0.0
 40
0.0
 40
0.0
 40
0.0
 40
0.1850900618630628
 40
0.3523569643820053
 40
0.5030795117590441
 40
0.6372794639743531
 40
0.7524732703005175
 40
0.8518857877882132
 40
0.934339434921345
 40
0.9999999999999999
 40
0.9999999999999999
 40
0.9999999999999999
 40
0.9999999999999999
 10
293.2872596153846
 20
111.3762019230769
 30
0.0
 10
293.4355650599714
 20
111.51935727954
 30
0.0
 10
293.7178949470001
 20
111.7918829156041
 30
0.0
 10
294.1199332538105
 20
112.1821285807386
 30
0.0
 10
294.4733663535271
 20
112.5408752715844
 30
0.0
 10
294.7855840424577
 20
112.8588263223021
 30
0.0
 10
295.0493736500924
 20
113.1440775714665
 30
0.0
 10
295.2682050872984
 20
113.3921491937136
 30
0.0
 10
295.4448498268339
 20
113.6040514123399
 30
0.0
 10
295.5405207712681
 20
113.7384823121685
 30
0.0
 10
295.5829326923077
 20
113.7980769230769
 30
0.0
  0
SPLINE
  5
9C
330
1F
100
AcDbEntity
  8
0
  6
Continuous
 62
     7
370
    15
100
AcDbSpline
210
0.0
220
0.0
230
1.0
 70
     8
 71
     3
 72
    19
 73
    15
 74
     0
 42
0.00000001
 43
0.00000001
 12
1.0
 22
0.0
 32
0.0
 13
1.0
 23
0.0
 33
0.0
 40
0.0
 40
0.0
 40
0.0
 40
0.0
 40
0.0963574538682384
 40
0.192660878808215
 40
0.2894549334517503
 40
0.3884793011163922
 40
0.4419214173673336
 40
0.501521103048683
 40
0.5678827758176527
 40
0.6408916507843547
 40
0.7203706588124381
 40
0.8066369162819647
 40
0.9000159377788826
 40
1.0
 40
1.0
 40
1.0
 40
1.0
 10
289.2307692307692
 20
105.0
 30
0.0
 10
289.2639758045547
 20
105.2465322377044
 30
0.0
 10
289.3303703327502
 20
105.7394584791514
 30
0.0
 10
289.5356384768773
 20
106.4594996488056
 30
0.0
 10
289.8096011375018
 20
107.1621368074237
 30
0.0
 10
290.1069355684376
 20
107.7339129038749
 30
0.0
 10
290.4026675942628
 20
108.1941729863727
 30
0.0
 10
290.6709852777927
 20
108.5713136542214
 30
0.0
 10
290.9910784221551
 20
108.9725751370407
 30
0.0
 10
291.3583021301006
 20
109.4011967270666
 30
0.0
 10
291.7706269722407
 20
109.8585182870884
 30
0.0
 10
292.2311291578363
 20
110.3428395931074
 30
0.0
 10
292.7420053537876
 20
110.8518420633573
 30
0.0
 10
293.1014158573234
 20
111.1974797859564
 30
0.0
 10
293.2872596153846
 20
111.3762019230769
 30
0.0
  0
SPLINE
  5
A0
330
1F
100
AcDbEntity
  8
0
  6
Continuous
 62
     7
370
    15
100
AcDbSpline
210
0.0
220
0.0
230
1.0
 70
     8
 71
     3
 72
    25
 73
    21
 74
     0
 42
0.00000001
 43
0.00000001
 12
1.0
 22
0.0
 32
0.0
 13
1.0
 23
0.0
 33
0.0
 40
0.0
 40
0.0
 40
0.0
 40
0.0
 40
0.0369753139213748
 40
0.0791925522967054
 40
0.1267009440549565
 40
0.179184078579469
 40
0.2373686428140474
 40
0.3005585397445007
 40
0.3691531357212958
 40
0.4431123780003051
 40
0.5160183892506146
 40
0.582473178961276
 40
0.6421368079450528
 40
0.6946199424695685
 40
0.7406794327797185
 40
0.779589034277523
 40
0.8120737912440699
 40
0.8378140957748652
 40
0.9225648809653575
 40
0.9999999999999999
 40
0.9999999999999999
 40
0.9999999999999999
 40
0.9999999999999999
 10
297.5841346153846
 20
112.1574519230769
 30
0.0
 10
297.5385107181747
 20
112.099988489523
 30
0.0
 10
297.4407949050394
 20
111.9769151337012
 30
0.0
 10
297.2745546291389
 20
111.7882011755964
 30
0.0
 10
297.0818964478711
 20
111.5820660434046
 30
0.0
 10
296.8655415730614
 20
111.3546513634648
 30
0.0
 10
296.6183433792048
 20
111.1140105113515
 30
0.0
 10
296.3491960712424
 20
110.8500800740558
 30
0.0
 10
296.0462563838084
 20
110.576360969314
 30
0.0
 10
295.7324842775625
 20
110.2860252369556
 30
0.0
 10
295.417348303479
 20
110.0034455514147
 30
0.0
 10
295.1276929088497
 20
109.7350574974005
 30
0.0
 10
294.8645894296966
 20
109.4975917130649
 30
0.0
 10
294.6402910878876
 20
109.2779389972913
 30
0.0
 10
294.4416047113253
 20
109.0910904911417
 30
0.0
 10
294.275691615595
 20
108.9274648191535
 30
0.0
 10
294.1394471730301
 20
108.7910232254621
 30
0.0
 10
293.951711099544
 20
108.5783453971338
 30
0.0
 10
293.7128382514864
 20
108.2906985458339
 30
0.0
 10
293.5447814355031
 20
108.0158438448696
 30
0.0
 10
293.4645432692308
 20
107.8846153846154
 30
0.0
  0
SPLINE
  5
A1
330
1F
100
AcDbEntity
  8
0
  6
Continuous
 62
     7
370
    15
100
AcDbSpline
210
0.0
220
0.0
230
1.0
 70
     8
 71
     3
 72
    23
 73
    19
 74
     0
 42
0.00000001
 43
0.00000001
 12
1.0
 22
0.0
 32
0.0
 13
1.0
 23
0.0
 33
0.0
 40
0.0
 40
0.0
 40
0.0
 40
0.0
 40
0.0648363736258081
 40
0.1279449161034065
 40
0.189428019611612
 40
0.2503554464126834
 40
0.3103592653539375
 40
0.3704596207746331
 40
0.4311232293228743
 40
0.4928228177782786
 40
0.5547568576995072
 40
0.6163812333007199
 40
0.6775618660834207
 40
0.7393365758188238
 40
0.8019316697439375
 40
0.8659401578582696
 40
0.9321916958894062
 40
1.0
 40
1.0
 40
1.0
 40
1.0
 10
391.3040865384615
 20
113.0018028846154
 30
0.0
 10
391.4056647176524
 20
112.9773202472216
 30
0.0
 10
391.606114108754
 20
112.9290074127404
 30
0.0
 10
391.8956873968116
 20
112.8305128520385
 30
0.0
 10
392.1668740491685
 20
112.7041709102101
 30
0.0
 10
392.4263159175956
 20
112.5653509007243
 30
0.0
 10
392.6675746625504
 20
112.4007385867715
 30
0.0
 10
392.8953267315755
 20
112.2183373262017
 30
0.0
 10
393.1008619776052
 20
112.0076125216288
 30
0.0
 10
393.2978107761356
 20
111.7849811364602
 30
0.0
 10
393.4699691927896
 20
111.5406522227481
 30
0.0
 10
393.6255254397974
 20
111.286401815586
 30
0.0
 10
393.7504713699236
 20
111.0160264900841
 30
0.0
 10
393.857337826609
 20
110.7364780696979
 30
0.0
 10
393.9369664052792
 20
110.44323811701
 30
0.0
 10
393.9993210503798
 20
110.1385005340249
 30
0.0
 10
394.0305752637797
 20
109.8203685464453
 30
0.0
 10
394.0358125077855
 20
109.6044202849451
 30
0.0
 10
394.0384615384615
 20
109.4951923076923
 30
0.0
  0
SPLINE
  5
A2
330
1F
100
AcDbEntity
  8
0
  6
Continuous
 62
     7
370
    15
100
AcDbSpline
210
0.0
220
0.0
230
1.0
 70
     8
 71
     3
 72
    15
 73
    11
 74
     0
 42
0.00000001
 43
0.00000001
 12
1.0
 22
0.0
 32
0.0
 13
1.0
 23
0.0
 33
0.0
 40
0.0
 40
0.0
 40
0.0
 40
0.0
 40
0.1196964719965263
 40
0.2359437583202384
 40
0.3505624285330338
 40
0.4675738794453368
 40
0.5886790971730663
 40
0.7164321348375435
 40
0.8533140436686037
 40
1.0
 40
1.0
 40
1.0
 40
1.0
 10
393.4615384615384
 20
116.1538461538462
 30
0.0
 10
393.4556632602528
 20
115.9930207597599
 30
0.0
 10
393.4440821580774
 20
115.676004332449
 30
0.0
 10
393.3378114328409
 20
115.2148395459201
 30
0.0
 10
393.1670055074085
 20
114.7788939563063
 30
0.0
 10
392.9308298135674
 20
114.3665022476501
 30
0.0
 10
392.6229115684358
 20
113.9814912599582
 30
0.0
 10
392.2438529379016
 20
113.6273252659397
 30
0.0
 10
391.8047922671742
 20
113.290489119912
 30
0.0
 10
391.4747915850821
 20
113.1002243614013
 30
0.0
 10
391.3040865384615
 20
113.0018028846154
 30
0.0
  0
SPLINE
  5
A3
330
1F
100
AcDbEntity
  8
0
  6
Continuous
 62
     7
370
    15
100
AcDbSpline
210
0.0
220
0.0
230
1.0
 70
     8
 71
     3
 72
    15
 73
    11
 74
     0
 42
0.00000001
 43
0.00000001
 12
1.0
 22
0.0
 32
0.0
 13
1.0
 23
0.0
 33
0.0
 40
0.0
 40
0.0
 40
0.0
 40
0.0
 40
0.1331978343624725
 40
0.2630795403811795
 40
0.3876611031449242
 40
0.5115071050662575
 40
0.6323856124295713
 40
0.7532592432015562
 40
0.8761016530293138
 40
1.0
 40
1.0
 40
1.0
 40
1.0
 10
392.4338942307692
 20
118.6508413461539
 30
0.0
 10
392.5156630631523
 20
118.5590558727179
 30
0.0
 10
392.6771649895447
 20
118.3777700411519
 30
0.0
 10
392.8868534900384
 20
118.0871212913103
 30
0.0
 10
393.0623514817406
 20
117.7851110089432
 30
0.0
 10
393.2112191606459
 20
117.4780407638752
 30
0.0
 10
393.321926384533
 20
117.1587899247615
 30
0.0
 10
393.4044595040092
 20
116.832369922867
 30
0.0
 10
393.4534812613961
 20
116.495888473892
 30
0.0
 10
393.4588450766024
 20
116.2681850825149
 30
0.0
 10
393.4615384615385
 20
116.1538461538462
 30
0.0
  0
SPLINE
  5
A4
330
1F
100
AcDbEntity
  8
0
  6
Continuous
 62
     7
370
    15
100
AcDbSpline
210
0.0
220
0.0
230
1.0
 70
     8
 71
     3
 72
    15
 73
    11
 74
     0
 42
0.00000001
 43
0.00000001
 12
1.0
 22
0.0
 32
0.0
 13
1.0
 23
0.0
 33
0.0
 40
0.0
 40
0.0
 40
0.0
 40
0.0
 40
0.1371223374139043
 40
0.2679123640023144
 40
0.393522698366395
 40
0.5160237818867048
 40
0.6367751505916616
 40
0.7569302398618484
 40
0.8771627914374583
 40
1.0
 40
1.0
 40
1.0
 40
1.0
 10
389.1225961538461
 20
120.0
 30
0.0
 10
389.2910730375158
 20
119.9961662968554
 30
0.0
 10
389.6202465407903
 20
119.9886759310132
 30
0.0
 10
390.100259522569
 20
119.9242228246273
 30
0.0
 10
390.5544335122335
 20
119.8195180366901
 30
0.0
 10
390.983401630964
 20
119.6714058523404
 30
0.0
 10
391.3891524328085
 20
119.4828248144852
 30
0.0
 10
391.7649122775325
 20
119.2455583136121
 30
0.0
 10
392.1185639611195
 20
118.9716891717124
 30
0.0
 10
392.3280359295825
 20
118.7585519246239
 30
0.0
 10
392.4338942307692
 20
118.6508413461539
 30
0.0
  0
SPLINE
  5
A5
330
1F
100
AcDbEntity
  8
0
  6
Continuous
 62
     7
370
    15
100
AcDbSpline
210
0.0
220
0.0
230
1.0
 70
     8
 71
     3
 72
    19
 73
    15
 74
     0
 42
0.00000001
 43
0.00000001
 12
1.0
 22
0.0
 32
0.0
 13
1.0
 23
0.0
 33
0.0
 40
0.0
 40
0.0
 40
0.0
 40
0.0
 40
0.1017340290565202
 40
0.1947417213436997
 40
0.2792788916351175
 40
0.3566660711123576
 40
0.4309560396784038
 40
0.505819663278912
 40
0.582099894051458
 40
0.6615079801926971
 40
0.743259477415802
 40
0.8260386158600307
 40
0.9112078215062808
 40
1.0
 40
1.0
 40
1.0
 40
1.0
 10
384.6153846153846
 20
116.0096153846154
 30
0.0
 10
384.6629487846645
 20
116.2298494574676
 30
0.0
 10
384.7539972596517
 20
116.6514268081686
 30
0.0
 10
384.9400231025396
 20
117.2420884397244
 30
0.0
 10
385.1582967304699
 20
117.7635063656786
 30
0.0
 10
385.413317186521
 20
118.2215237682021
 30
0.0
 10
385.7153942748116
 20
118.6242049888239
 30
0.0
 10
386.0740522277965
 20
118.9737318927047
 30
0.0
 10
386.4839249130771
 20
119.2802469197684
 30
0.0
 10
386.9442296914816
 20
119.5370796345546
 30
0.0
 10
387.444714291039
 20
119.742932746014
 30
0.0
 10
387.9773509511876
 20
119.8952899778459
 30
0.0
 10
388.540781217395
 20
119.98260433848
 30
0.0
 10
388.9259837267115
 20
119.994121492903
 30
0.0
 10
389.1225961538461
 20
120.0
 30
0.0
  0
SPLINE
  5
A7
330
1F
100
AcDbEntity
  8
0
  6
Continuous
 62
     7
370
    15
100
AcDbSpline
210
0.0
220
0.0
230
1.0
 70
     8
 71
     3
 72
    15
 73
    11
 74
     0
 42
0.00000001
 43
0.00000001
 12
1.0
 22
0.0
 32
0.0
 13
1.0
 23
0.0
 33
0.0
 40
0.0
 40
0.0
 40
0.0
 40
0.0
 40
0.1112445267597565
 40
0.2186681940362372
 40
0.3280057699508611
 40
0.4429090160362728
 40
0.5650280044203843
 40
0.6953192066560092
 40
0.8398843030466747
 40
1.0
 40
1.0
 40
1.0
 40
1.0
 10
389.1466346153846
 20
117.5
 30
0.0
 10
389.0426574324736
 20
117.4948600937138
 30
0.0
 10
388.8382743183521
 20
117.4847568189025
 30
0.0
 10
388.5458169132361
 20
117.3848194100178
 30
0.0
 10
388.2760092753154
 20
117.2301922936544
 30
0.0
 10
388.0379234186887
 20
117.0087518831993
 30
0.0
 10
387.8315692456487
 20
116.7333368604131
 30
0.0
 10
387.6716596604813
 20
116.3974472100402
 30
0.0
 10
387.5590436862083
 20
116.0063453012901
 30
0.0
 10
387.5203396995572
 20
115.7248528487202
 30
0.0
 10
387.5
 20
115.5769230769231
 30
0.0
  0
SPLINE
  5
A8
330
1F
100
AcDbEntity
  8
0
  6
Continuous
 62
     7
370
    15
100
AcDbSpline
210
0.0
220
0.0
230
1.0
 70
     8
 71
     3
 72
    15
 73
    11
 74
     0
 42
0.00000001
 43
0.00000001
 12
1.0
 22
0.0
 32
0.0
 13
1.0
 23
0.0
 33
0.0
 40
0.0
 40
0.0
 40
0.0
 40
0.0
 40
0.1433711005354741
 40
0.2749037179736857
 40
0.3990371425867083
 40
0.519187786094314
 40
0.6363136468940056
 40
0.7521647749624638
 40
0.8714108513940317
 40
1.0
 40
1.0
 40
1.0
 40
1.0
 10
390.576923076923
 20
115.9014423076923
 30
0.0
 10
390.5727069613553
 20
116.0170224754817
 30
0.0
 10
390.5646228646256
 20
116.2386390895039
 30
0.0
 10
390.4921030418797
 20
116.5539892757433
 30
0.0
 10
390.3683267799806
 20
116.8324044657338
 30
0.0
 10
390.1951920585169
 20
117.0690519058611
 30
0.0
 10
389.9828138394615
 20
117.2612168715219
 30
0.0
 10
389.7345770595495
 20
117.4032127813637
 30
0.0
 10
389.4502462985948
 20
117.4860153136056
 30
0.0
 10
389.2503504493858
 20
117.4952227351817
 30
0.0
 10
389.1466346153846
 20
117.5
 30
0.0
  0
SPLINE
  5
A9
330
1F
100
AcDbEntity
  8
0
  6
Continuous
 62
     7
370
    15
100
AcDbSpline
210
0.0
220
0.0
230
1.0
 70
     8
 71
     3
 72
    19
 73
    15
 74
     0
 42
0.00000001
 43
0.00000001
 12
1.0
 22
0.0
 32
0.0
 13
1.0
 23
0.0
 33
0.0
 40
0.0
 40
0.0
 40
0.0
 40
0.0
 40
0.0763957990769133
 40
0.1482456825776801
 40
0.2170085330069088
 40
0.2814161838437027
 40
0.3436711434799042
 40
0.4026077297746859
 40
0.4616756899906946
 40
0.519888336438446
 40
0.6353224899631442
 40
0.7502102534132755
 40
0.8706548390889032
 40
1.0
 40
1.0
 40
1.0
 40
1.0
 10
388.5396634615384
 20
114.0384615384616
 30
0.0
 10
388.6198250029388
 20
114.0370864355339
 30
0.0
 10
388.7753780904769
 20
114.0344180548823
 30
0.0
 10
389.0025322612295
 20
114.0532512245128
 30
0.0
 10
389.2151555692941
 20
114.0876363848386
 30
0.0
 10
389.4127518955517
 20
114.1434261186996
 30
0.0
 10
389.5955052238604
 20
114.2111104597539
 30
0.0
 10
389.7650138805851
 20
114.296150791581
 30
0.0
 10
389.9171309332219
 20
114.4019790948683
 30
0.0
 10
390.1023433053703
 20
114.5617263593846
 30
0.0
 10
390.291832307352
 20
114.8010980692365
 30
0.0
 10
390.4631423537945
 20
115.129330454079
 30
0.0
 10
390.5585928779884
 20
115.5035847697913
 30
0.0
 10
390.5706695706278
 20
115.7657097590881
 30
0.0
 10
390.576923076923
 20
115.9014423076923
 30
0.0
  0
SPLINE
  5
AB
330
1F
100
AcDbEntity
  8
0
  6
Continuous
 62
     7
370
    15
100
AcDbSpline
210
0.0
220
0.0
230
1.0
 70
     8
 71
     3
 72
    11
 73
     7
 74
     0
 42
0.00000001
 43
0.00000001
 12
1.0
 22
0.0
 32
0.0
 13
1.0
 23
0.0
 33
0.0
 40
0.0
 40
0.0
 40
0.0
 40
0.0
 40
0.2136313786717232
 40
0.452875980705687
 40
0.7136025858132574
 40
1.0
 40
1.0
 40
1.0
 40
1.0
 10
389.4140624999999
 20
111.9230769230769
 30
0.0
 10
389.3307610129537
 20
111.9209453887822
 30
0.0
 10
389.1541706502697
 20
111.9164267609939
 30
0.0
 10
388.8794939028258
 20
111.8694776994462
 30
0.0
 10
388.5799577190356
 20
111.8046858758019
 30
0.0
 10
388.375996344017
 20
111.7423604369241
 30
0.0
 10
388.2692307692307
 20
111.7097355769231
 30
0.0
  0
SPLINE
  5
AC
330
1F
100
AcDbEntity
  8
0
  6
Continuous
 62
     7
370
    15
100
AcDbSpline
210
0.0
220
0.0
230
1.0
 70
     8
 71
     3
 72
    15
 73
    11
 74
     0
 42
0.00000001
 43
0.00000001
 12
1.0
 22
0.0
 32
0.0
 13
1.0
 23
0.0
 33
0.0
 40
0.0
 40
0.0
 40
0.0
 40
0.0
 40
0.155189107695395
 40
0.2960401486453823
 40
0.4267637504064185
 40
0.5519118562685732
 40
0.6708037237520257
 40
0.7806745890737868
 40
0.8891194926079662
 40
1.0
 40
1.0
 40
1.0
 40
1.0
 10
391.1538461538461
 20
109.6844951923077
 30
0.0
 10
391.1475929584007
 20
109.8482097506195
 30
0.0
 10
391.1356643060827
 20
110.1605131261448
 30
0.0
 10
391.0434878086659
 20
110.6035870565975
 30
0.0
 10
390.8836372940099
 20
110.9930670208089
 30
0.0
 10
390.6596788907398
 20
111.321965937812
 30
0.0
 10
390.3935525778308
 20
111.5865404228949
 30
0.0
 10
390.0954362679241
 20
111.7854158268639
 30
0.0
 10
389.7625123837736
 20
111.8996682511195
 30
0.0
 10
389.5310691851324
 20
111.9152164781848
 30
0.0
 10
389.4140624999999
 20
111.9230769230769
 30
0.0
  0
SPLINE
  5
AD
330
1F
100
AcDbEntity
  8
0
  6
Continuous
 62
     7
370
    15
100
AcDbSpline
210
0.0
220
0.0
230
1.0
 70
     8
 71
     3
 72
    23
 73
    19
 74
     0
 42
0.00000001
 43
0.00000001
 12
1.0
 22
0.0
 32
0.0
 13
1.0
 23
0.0
 33
0.0
 40
0.0
 40
0.0
 40
0.0
 40
0.0
 40
0.0594850524583354
 40
0.1178305957578975
 40
0.1748645467675726
 40
0.2313233068588358
 40
0.2875648537771825
 40
0.3441810636561515
 40
0.4028499236818042
 40
0.4637522190980692
 40
0.5256272728085267
 40
0.5872620807904976
 40
0.6504421584534602
 40
0.715061761183684
 40
0.7821428128071723
 40
0.8514002647807352
 40
0.9241625797277042
 40
1.0
 40
1.0
 40
1.0
 40
1.0
 10
389.1436298076923
 20
107.3076923076923
 30
0.0
 10
389.2128503339885
 20
107.309178781869
 30
0.0
 10
389.349965382477
 20
107.3121232549857
 30
0.0
 10
389.5515280084732
 20
107.3430165580867
 30
0.0
 10
389.7451980697246
 20
107.3937977933997
 30
0.0
 10
389.929064727185
 20
107.466868206719
 30
0.0
 10
390.1040057254696
 20
107.5576591900336
 30
0.0
 10
390.2723247525202
 20
107.6657789010922
 30
0.0
 10
390.4269510514015
 20
107.8008159227613
 30
0.0
 10
390.5779162628106
 20
107.9485607306218
 30
0.0
 10
390.7118845036684
 20
108.1167437572391
 30
0.0
 10
390.8298945698752
 20
108.2992152857712
 30
0.0
 10
390.9334839764667
 20
108.494165469934
 30
0.0
 10
391.0137763835288
 20
108.7066208554153
 30
0.0
 10
391.0766273213813
 20
108.931979372151
 30
0.0
 10
391.121559729392
 20
109.1712192581857
 30
0.0
 10
391.1489055547618
 20
109.4234387068083
 30
0.0
 10
391.1521767230946
 20
109.5962840832234
 30
0.0
 10
391.1538461538461
 20
109.6844951923077
 30
0.0
  0
SPLINE
  5
AE
330
1F
100
AcDbEntity
  8
0
  6
Continuous
 62
     7
370
    15
100
AcDbSpline
210
0.0
220
0.0
230
1.0
 70
     8
 71
     3
 72
    15
 73
    11
 74
     0
 42
0.00000001
 43
0.00000001
 12
1.0
 22
0.0
 32
0.0
 13
1.0
 23
0.0
 33
0.0
 40
0.0
 40
0.0
 40
0.0
 40
0.0
 40
0.1582898674923379
 40
0.3004564688815955
 40
0.4309052803870489
 40
0.5536134903141878
 40
0.6685453581737756
 40
0.7789529920314903
 40
0.8869019756104889
 40
1.0
 40
1.0
 40
1.0
 40
1.0
 10
387.1153846153846
 20
109.6153846153846
 30
0.0
 10
387.1402962625722
 20
109.4380157358238
 30
0.0
 10
387.1875820785665
 20
109.1013446141242
 30
0.0
 10
387.3350211409512
 20
108.6353490600135
 30
0.0
 10
387.527495464376
 20
108.229832594265
 30
0.0
 10
387.782321811961
 20
107.8975715559295
 30
0.0
 10
388.0769439643293
 20
107.6333177213712
 30
0.0
 10
388.4055157768779
 20
107.4447629946703
 30
0.0
 10
388.7650651569142
 20
107.3258567961495
 30
0.0
 10
389.015497081
 20
107.3138404396698
 30
0.0
 10
389.1436298076923
 20
107.3076923076923
 30
0.0
  0
SPLINE
  5
B0
330
1F
100
AcDbEntity
  8
0
  6
Continuous
 62
     7
370
    15
100
AcDbSpline
210
0.0
220
0.0
230
1.0
 70
     8
 71
     3
 72
    23
 73
    19
 74
     0
 42
0.00000001
 43
0.00000001
 12
1.0
 22
0.0
 32
0.0
 13
1.0
 23
0.0
 33
0.0
 40
0.0
 40
0.0
 40
0.0
 40
0.0
 40
0.0673455133324363
 40
0.1322824462207227
 40
0.1952047908892188
 40
0.2567077343438499
 40
0.3172116539569625
 40
0.3772857804954469
 40
0.4378685399479053
 40
0.4990881094029302
 40
0.5604008922052879
 40
0.6212069433372216
 40
0.6816699947735265
 40
0.7426314439894786
 40
0.8044371517266033
 40
0.8676392817943588
 40
0.9324421912064805
 40
0.9999999999999999
 40
0.9999999999999999
 40
0.9999999999999999
 40
0.9999999999999999
 10
389.0835336538461
 20
104.8076923076923
 30
0.0
 10
388.9200515321561
 20
104.8104330986228
 30
0.0
 10
388.5989341495658
 20
104.8158166573918
 30
0.0
 10
388.1288450574032
 20
104.8795936410361
 30
0.0
 10
387.6786046588596
 20
104.9734170868082
 30
0.0
 10
387.2508409374386
 20
105.1106706948094
 30
0.0
 10
386.8418277311636
 20
105.2797286773099
 30
0.0
 10
386.4592850120625
 20
105.4976612034298
 30
0.0
 10
386.0933655564796
 20
105.745359591927
 30
0.0
 10
385.756024300764
 20
106.0355184759137
 30
0.0
 10
385.442369898363
 20
106.3517619688754
 30
0.0
 10
385.1668620703729
 20
106.6995414871329
 30
0.0
 10
384.9213478711266
 20
107.06775710563
 30
0.0
 10
384.7101821625152
 20
107.4596733228472
 30
0.0
 10
384.5351345224055
 20
107.8763085563018
 30
0.0
 10
384.3988357171471
 20
108.3165873818373
 30
0.0
 10
384.2901347952244
 20
108.779161545029
 30
0.0
 10
384.2508304402658
 20
109.0980529636031
 30
0.0
 10
384.2307692307692
 20
109.2608173076923
 30
0.0
  0
SPLINE
  5
B1
330
1F
100
AcDbEntity
  8
0
  6
Continuous
 62
     7
370
    15
100
AcDbSpline
210
0.0
220
0.0
230
1.0
 70
     8
 71
     3
 72
    23
 73
    19
 74
     0
 42
0.00000001
 43
0.00000001
 12
1.0
 22
0.0
 32
0.0
 13
1.0
 23
0.0
 33
0.0
 40
0.0
 40
0.0
 40
0.0
 40
0.0
 40
0.0629075118173254
 40
0.1240620716016178
 40
0.1839778251218939
 40
0.2432433840714804
 40
0.3028139496866621
 40
0.3630210379278971
 40
0.4246932892410763
 40
0.4884396049175398
 40
0.5525805097987445
 40
0.6148866190330124
 40
0.6773955049790228
 40
0.7393205642850791
 40
0.8021920547778605
 40
0.8657714949961242
 40
0.9319586810728184
 40
1.0
 40
1.0
 40
1.0
 40
1.0
 10
394.0384615384615
 20
109.4951923076923
 30
0.0
 10
394.0350954089405
 20
109.3356591468464
 30
0.0
 10
394.0284569489284
 20
109.0210383034537
 30
0.0
 10
393.9555415766374
 20
108.5592877218106
 30
0.0
 10
393.8447608027227
 20
108.1155150773521
 30
0.0
 10
393.6920950689823
 20
107.6879275530176
 30
0.0
 10
393.4879250253361
 20
107.2817567025661
 30
0.0
 10
393.243781290454
 20
106.891304315918
 30
0.0
 10
392.9530138956735
 20
106.5204597219132
 30
0.0
 10
392.6214457329013
 20
106.1720332463714
 30
0.0
 10
392.2591492287999
 20
105.8531246750498
 30
0.0
 10
391.8698628232375
 20
105.5730069772434
 30
0.0
 10
391.4593541420484
 20
105.3359226575387
 30
0.0
 10
391.0252710702137
 20
105.1420620810497
 30
0.0
 10
390.5713882429553
 20
104.9912253570128
 30
0.0
 10
390.0937983817827
 20
104.8875562309166
 30
0.0
 10
389.5963755186024
 20
104.8183929229004
 30
0.0
 10
389.2560479528203
 20
104.8112918756256
 30
0.0
 10
389.0835336538461
 20
104.8076923076923
 30
0.0
  0
SPLINE
  5
E8
330
1F
100
AcDbEntity
  8
0
  6
Continuous
 62
     7
370
    15
100
AcDbSpline
210
0.0
220
0.0
230
1.0
 70
     8
 71
     3
 72
    23
 73
    19
 74
     0
 42
0.00000001
 43
0.00000001
 12
1.0
 22
0.0
 32
0.0
 13
1.0
 23
0.0
 33
0.0
 40
0.0
 40
0.0
 40
0.0
 40
0.0
 40
0.0917014566485832
 40
0.1784786234702855
 40
0.2607032917490389
 40
0.3371152801671861
 40
0.4102171366028666
 40
0.4781656762643626
 40
0.5434540387715556
 40
0.6063425282940142
 40
0.6650789398387668
 40
0.7203461980457104
 40
0.7720161073323352
 40
0.8207588898130352
 40
0.8663476624779667
 40
0.9114518991925067
 40
0.9557340852176971
 40
0.9999999999999999
 40
0.9999999999999999
 40
0.9999999999999999
 40
0.9999999999999999
 10
18.31168831168828
 20
109.9431818181818
 30
0.0
 10
18.3138971717689
 20
109.8335747511649
 30
0.0
 10
18.31819627803213
 20
109.6202464229274
 30
0.0
 10
18.33833628218931
 20
109.3091220507379
 30
0.0
 10
18.3762345844396
 20
109.0178315029476
 30
0.0
 10
18.43683887763139
 20
108.7473252458186
 30
0.0
 10
18.50387048997829
 20
108.4959946840474
 30
0.0
 10
18.58968514001219
 20
108.2642494323587
 30
0.0
 10
18.69373906343541
 20
108.0537399359344
 30
0.0
 10
18.81113044917396
 20
107.8632273564993
 30
0.0
 10
18.93977769574362
 20
107.6949290782557
 30
0.0
 10
19.07397741910199
 20
107.5491412219756
 30
0.0
 10
19.21012383205423
 20
107.4214731850816
 30
0.0
 10
19.35440332502181
 20
107.3227014865086
 30
0.0
 10
19.49909321174403
 20
107.2387542142325
 30
0.0
 10
19.65229074814148
 20
107.1860061382679
 30
0.0
 10
19.80864994992621
 20
107.1503922445808
 30
0.0
 10
19.91457811664166
 20
107.1453685357195
 30
0.0
 10
19.96753246753244
 20
107.1428571428572
 30
0.0
  0
SPLINE
  5
E9
330
1F
100
AcDbEntity
  8
0
  6
Continuous
 62
     7
370
    15
100
AcDbSpline
210
0.0
220
0.0
230
1.0
 70
     8
 71
     3
 72
    19
 73
    15
 74
     0
 42
0.00000001
 43
0.00000001
 12
1.0
 22
0.0
 32
0.0
 13
1.0
 23
0.0
 33
0.0
 40
0.0
 40
0.0
 40
0.0
 40
0.0
 40
0.0924497033226472
 40
0.1826598079166727
 40
0.2766628542394773
 40
0.3812388536160439
 40
0.4386336524067132
 40
0.5008565921644829
 40
0.5682831460944684
 40
0.642034615230809
 40
0.7211386514548115
 40
0.806929597586165
 40
0.8998614408321339
 40
1.0
 40
1.0
 40
1.0
 40
1.0
 10
19.96753246753244
 20
107.1428571428572
 30
0.0
 10
20.06914441059412
 20
107.1492580172397
 30
0.0
 10
20.26990674226881
 20
107.1619047044999
 30
0.0
 10
20.55331443630984
 20
107.2834868740464
 30
0.0
 10
20.80591710140883
 20
107.4769783064263
 30
0.0
 10
20.9878121327069
 20
107.693260848792
 30
0.0
 10
21.11467505145889
 20
107.9036826857343
 30
0.0
 10
21.20031835129346
 20
108.0902399049064
 30
0.0
 10
21.26798187895965
 20
108.3026125606866
 30
0.0
 10
21.32981509291093
 20
108.535760883161
 30
0.0
 10
21.37513148576759
 20
108.7933658491645
 30
0.0
 10
21.40287121782369
 20
109.0742448548641
 30
0.0
 10
21.42660380831288
 20
109.3786684700893
 30
0.0
 10
21.42789943458934
 20
109.5900430551572
 30
0.0
 10
21.42857142857141
 20
109.6996753246754
 30
0.0
  0
SPLINE
  5
EA
330
1F
100
AcDbEntity
  8
0
  6
Continuous
 62
     7
370
    15
100
AcDbSpline
210
0.0
220
0.0
230
1.0
 70
     8
 71
     3
 72
    19
 73
    15
 74
     0
 42
0.00000001
 43
0.00000001
 12
1.0
 22
0.0
 32
0.0
 13
1.0
 23
0.0
 33
0.0
 40
0.0
 40
0.0
 40
0.0
 40
0.0
 40
0.0980377710792939
 40
0.1892642765742075
 40
0.2739371110361405
 40
0.3522171741877713
 40
0.4254519281862477
 40
0.4921566937387539
 40
0.5548113149480027
 40
0.6133515098103189
 40
0.7195826317642422
 40
0.8163820309457179
 40
0.9074025930405306
 40
1.0
 40
1.0
 40
1.0
 40
1.0
 10
21.42857142857141
 20
109.6996753246754
 30
0.0
 10
21.42769509345763
 20
109.8133428937713
 30
0.0
 10
21.42600330742941
 20
110.0327808715838
 30
0.0
 10
21.40489772320012
 20
110.3498857676262
 30
0.0
 10
21.36803780495239
 20
110.642350224796
 30
0.0
 10
21.32058229864867
 20
110.9122059646293
 30
0.0
 10
21.25721052045437
 20
111.157417139417
 30
0.0
 10
21.1810118686866
 20
111.3798015061579
 30
0.0
 10
21.09091944950456
 20
111.5787722940557
 30
0.0
 10
20.9514857123983
 20
111.8029848425053
 30
0.0
 10
20.7579111348529
 20
112.0393991127465
 30
0.0
 10
20.48599124687816
 20
112.2491663830351
 30
0.0
 10
20.18261773659538
 20
112.3816762677583
 30
0.0
 10
19.96881684491852
 20
112.3955838797997
 30
0.0
 10
19.86099837662336
 20
112.4025974025974
 30
0.0
  0
SPLINE
  5
EB
330
1F
100
AcDbEntity
  8
0
  6
Continuous
 62
     7
370
    15
100
AcDbSpline
210
0.0
220
0.0
230
1.0
 70
     8
 71
     3
 72
    19
 73
    15
 74
     0
 42
0.00000001
 43
0.00000001
 12
1.0
 22
0.0
 32
0.0
 13
1.0
 23
0.0
 33
0.0
 40
0.0
 40
0.0
 40
0.0
 40
0.0
 40
0.0967458161067068
 40
0.1930146422555584
 40
0.2933185369208804
 40
0.404664540237707
 40
0.4652105730110104
 40
0.5283265535043348
 40
0.5947301110651356
 40
0.6652959224899456
 40
0.7411343832362192
 40
0.8219020160768902
 40
0.9077748068224917
 40
0.9999999999999999
 40
0.9999999999999999
 40
0.9999999999999999
 40
0.9999999999999999
 10
19.86099837662336
 20
112.4025974025974
 30
0.0
 10
19.75640510682966
 20
112.3949084165756
 30
0.0
 10
19.54773424783043
 20
112.3795683538626
 30
0.0
 10
19.25063891447959
 20
112.2564349844733
 30
0.0
 10
18.98210703225847
 20
112.056852775651
 30
0.0
 10
18.78972158359213
 20
111.8322721331706
 30
0.0
 10
18.65085512284032
 20
111.6199356843889
 30
0.0
 10
18.55949536287582
 20
111.4358641879792
 30
0.0
 10
18.48446621701119
 20
111.2333381238996
 30
0.0
 10
18.41923247107749
 20
111.0130355072571
 30
0.0
 10
18.37271421494546
 20
110.7722549315409
 30
0.0
 10
18.33550841802545
 20
110.5133500668307
 30
0.0
 10
18.31424462762446
 20
110.2347321570809
 30
0.0
 10
18.31256044086923
 20
110.0426490063613
 30
0.0
 10
18.31168831168828
 20
109.9431818181818
 30
0.0
  0
SPLINE
  5
EC
330
1F
100
AcDbEntity
  8
0
  6
Continuous
 62
     7
370
    15
100
AcDbSpline
210
0.0
220
0.0
230
1.0
 70
     8
 71
     3
 72
    15
 73
    11
 74
     0
 42
0.00000001
 43
0.00000001
 12
1.0
 22
0.0
 32
0.0
 13
1.0
 23
0.0
 33
0.0
 40
0.0
 40
0.0
 40
0.0
 40
0.0
 40
0.144102010011673
 40
0.2759973636727562
 40
0.3976466033135909
 40
0.5162148299168688
 40
0.6324988206874367
 40
0.7491240398581277
 40
0.8691443994706111
 40
1.0
 40
1.0
 40
1.0
 40
1.0
 10
209.0384615384616
 20
115.9765625
 30
0.0
 10
209.0428997929524
 20
115.8468602693388
 30
0.0
 10
209.0514003443236
 20
115.5984426815336
 30
0.0
 10
209.1362056352649
 20
115.2483884410965
 30
0.0
 10
209.2765709207197
 20
114.9426182363534
 30
0.0
 10
209.4696541802335
 20
114.6833960840769
 30
0.0
 10
209.7144867196238
 20
114.4793188266731
 30
0.0
 10
209.9986521807633
 20
114.333156817188
 30
0.0
 10
210.3206469578459
 20
114.2473876152671
 30
0.0
 10
210.546341432031
 20
114.236465926844
 30
0.0
 10
210.6640625
 20
114.2307692307692
 30
0.0
  0
SPLINE
  5
ED
330
1F
100
AcDbEntity
  8
0
  6
Continuous
 62
     7
370
    15
100
AcDbSpline
210
0.0
220
0.0
230
1.0
 70
     8
 71
     3
 72
    15
 73
    11
 74
     0
 42
0.00000001
 43
0.00000001
 12
1.0
 22
0.0
 32
0.0
 13
1.0
 23
0.0
 33
0.0
 40
0.0
 40
0.0
 40
0.0
 40
0.0
 40
0.1310086371648922
 40
0.2525834222364707
 40
0.3683626160393605
 40
0.4853615680104694
 40
0.603738402040351
 40
0.7259757796170704
 40
0.8558397229390989
 40
1.0
 40
1.0
 40
1.0
 40
1.0
 10
210.6640625
 20
114.2307692307692
 30
0.0
 10
210.7828343164458
 20
114.2362703195998
 30
0.0
 10
211.0118252632439
 20
114.2468763672079
 30
0.0
 10
211.3363043840679
 20
114.3357706229694
 30
0.0
 10
211.6241439884737
 20
114.4826696004529
 30
0.0
 10
211.8693431931609
 20
114.6893654554255
 30
0.0
 10
212.0673681164778
 20
114.9488095977924
 30
0.0
 10
212.209272737724
 20
115.255209904873
 30
0.0
 10
212.2952849651529
 20
115.6063436974193
 30
0.0
 10
212.3034151382874
 20
115.854844274651
 30
0.0
 10
212.3076923076923
 20
115.9855769230769
 30
0.0
  0
SPLINE
  5
EE
330
1F
100
AcDbEntity
  8
0
  6
Continuous
 62
     7
370
    15
100
AcDbSpline
210
0.0
220
0.0
230
1.0
 70
     8
 71
     3
 72
    15
 73
    11
 74
     0
 42
0.00000001
 43
0.00000001
 12
1.0
 22
0.0
 32
0.0
 13
1.0
 23
0.0
 33
0.0
 40
0.0
 40
0.0
 40
0.0
 40
0.0
 40
0.1400074214309555
 40
0.2677656987407732
 40
0.3896385346759662
 40
0.5102143617806368
 40
0.6285461194376405
 40
0.7463484746982557
 40
0.8678241140226173
 40
1.0
 40
1.0
 40
1.0
 40
1.0
 10
212.3076923076923
 20
115.9855769230769
 30
0.0
 10
212.3034403778016
 20
116.1093730218423
 30
0.0
 10
212.2953085161721
 20
116.3461343916933
 30
0.0
 10
212.2074305143882
 20
116.6810928143486
 30
0.0
 10
212.069644398956
 20
116.9797562097419
 30
0.0
 10
211.8713616146796
 20
117.2316881136446
 30
0.0
 10
211.6334192328179
 20
117.4415472648145
 30
0.0
 10
211.3498568801745
 20
117.5857835861215
 30
0.0
 10
211.0321901305041
 20
117.6767967172449
 30
0.0
 10
210.8079536818632
 20
117.6869939773892
 30
0.0
 10
210.6911057692308
 20
117.6923076923077
 30
0.0
  0
SPLINE
  5
EF
330
1F
100
AcDbEntity
  8
0
  6
Continuous
 62
     7
370
    15
100
AcDbSpline
210
0.0
220
0.0
230
1.0
 70
     8
 71
     3
 72
    15
 73
    11
 74
     0
 42
0.00000001
 43
0.00000001
 12
1.0
 22
0.0
 32
0.0
 13
1.0
 23
0.0
 33
0.0
 40
0.0
 40
0.0
 40
0.0
 40
0.0
 40
0.1347603236827689
 40
0.2577468619485214
 40
0.3763792396179593
 40
0.495459457225196
 40
0.6143238685719458
 40
0.7349506473054404
 40
0.8619798003283091
 40
1.0
 40
1.0
 40
1.0
 40
1.0
 10
210.6911057692308
 20
117.6923076923077
 30
0.0
 10
210.5703151309893
 20
117.6869478703379
 30
0.0
 10
210.3392871317334
 20
117.6766965051321
 30
0.0
 10
210.0115132141395
 20
117.5871079885878
 30
0.0
 10
209.7221581895256
 20
117.4381516689803
 30
0.0
 10
209.478569906718
 20
117.2279472744571
 30
0.0
 10
209.2802826145288
 20
116.9728413759861
 30
0.0
 10
209.1372929375114
 20
116.675138096715
 30
0.0
 10
209.0514795115375
 20
116.3378789220213
 30
0.0
 10
209.0429191890896
 20
116.1002854763927
 30
0.0
 10
209.0384615384616
 20
115.9765625
 30
0.0
  0
SPLINE
  5
F0
330
1F
100
AcDbEntity
  8
0
  6
Continuous
 62
     7
370
    15
100
AcDbSpline
210
0.0
220
0.0
230
1.0
 70
     8
 71
     3
 72
    23
 73
    19
 74
     0
 42
0.00000001
 43
0.00000001
 12
1.0
 22
0.0
 32
0.0
 13
1.0
 23
0.0
 33
0.0
 40
0.0
 40
0.0
 40
0.0
 40
0.0
 40
0.079140288870323
 40
0.1536679753815472
 40
0.2247881116543725
 40
0.2931532779537196
 40
0.3580593513672296
 40
0.4214412476421465
 40
0.4824933489160781
 40
0.5434898218401732
 40
0.6035044525186509
 40
0.6607929941529702
 40
0.7172398453985779
 40
0.7721564554531498
 40
0.8277061132014452
 40
0.8838635533477424
 40
0.9406222680232564
 40
1.0
 40
1.0
 40
1.0
 40
1.0
 10
208.6538461538462
 20
109.6274038461539
 30
0.0
 10
208.655428306282
 20
109.5311735104773
 30
0.0
 10
208.6585003971857
 20
109.3443215155607
 30
0.0
 10
208.6865329982515
 20
109.0722568248316
 30
0.0
 10
208.7297539423045
 20
108.8153491416344
 30
0.0
 10
208.7973294136827
 20
108.5759603655227
 30
0.0
 10
208.8769745912223
 20
108.3501621089492
 30
0.0
 10
208.9802938241206
 20
108.1439955834697
 30
0.0
 10
209.0976185315877
 20
107.9511042651241
 30
0.0
 10
209.236114758457
 20
107.7776898406202
 30
0.0
 10
209.3886932439807
 20
107.6234743275222
 30
0.0
 10
209.5487116175092
 20
107.4849677379406
 30
0.0
 10
209.7203813132079
 20
107.3720563960942
 30
0.0
 10
209.8997245655499
 20
107.2764465702558
 30
0.0
 10
210.0897241685495
 20
107.2044379780703
 30
0.0
 10
210.28861272282
 20
107.1550093001113
 30
0.0
 10
210.4954670756948
 20
107.1184375621144
 30
0.0
 10
210.6368493219518
 20
107.116417449621
 30
0.0
 10
210.7091346153846
 20
107.1153846153846
 30
0.0
  0
SPLINE
  5
F1
330
1F
100
AcDbEntity
  8
0
  6
Continuous
 62
     7
370
    15
100
AcDbSpline
210
0.0
220
0.0
230
1.0
 70
     8
 71
     3
 72
    23
 73
    19
 74
     0
 42
0.00000001
 43
0.00000001
 12
1.0
 22
0.0
 32
0.0
 13
1.0
 23
0.0
 33
0.0
 40
0.0
 40
0.0
 40
0.0
 40
0.0
 40
0.0588948490109607
 40
0.1150065439917396
 40
0.170669414061475
 40
0.2254687457074828
 40
0.2796130171245753
 40
0.3341668134472123
 40
0.3908859514301891
 40
0.4491475365168988
 40
0.5090121825702831
 40
0.5701382589696328
 40
0.6336732406007342
 40
0.6996041339020553
 40
0.7683163621412937
 40
0.8415581431413565
 40
0.9184244257424512
 40
1.0
 40
1.0
 40
1.0
 40
1.0
 10
210.7091346153846
 20
107.1153846153846
 30
0.0
 10
210.77935916773
 20
107.1167862419497
 30
0.0
 10
210.9164897182659
 20
107.1195232593617
 30
0.0
 10
211.118083417435
 20
107.150801185098
 30
0.0
 10
211.309960272295
 20
107.2024022684332
 30
0.0
 10
211.4945307747888
 20
107.270172436804
 30
0.0
 10
211.6667310919665
 20
107.3623820795295
 30
0.0
 10
211.8309173711997
 20
107.4718207327957
 30
0.0
 10
211.9874950745963
 20
107.6002646691321
 30
0.0
 10
212.1308712885753
 20
107.7519007966543
 30
0.0
 10
212.2644314124215
 20
107.9191694256953
 30
0.0
 10
212.3777734688829
 20
108.1080592126796
 30
0.0
 10
212.4789713284138
 20
108.3119201266752
 30
0.0
 10
212.5540540777158
 20
108.5362302392405
 30
0.0
 10
212.6204602445495
 20
108.7752083185709
 30
0.0
 10
212.6585782353517
 20
109.0335494582464
 30
0.0
 10
212.6879361359136
 20
109.3082232247659
 30
0.0
 10
212.6908219159556
 20
109.4971037144128
 30
0.0
 10
212.6923076923077
 20
109.5943509615385
 30
0.0
  0
SPLINE
  5
F2
330
1F
100
AcDbEntity
  8
0
  6
Continuous
 62
     7
370
    15
100
AcDbSpline
210
0.0
220
0.0
230
1.0
 70
     8
 71
     3
 72
    23
 73
    19
 74
     0
 42
0.00000001
 43
0.00000001
 12
1.0
 22
0.0
 32
0.0
 13
1.0
 23
0.0
 33
0.0
 40
0.0
 40
0.0
 40
0.0
 40
0.0
 40
0.0738108331002081
 40
0.1445370275377346
 40
0.2126154684030458
 40
0.2785357056299954
 40
0.3420292361891498
 40
0.4033505764014654
 40
0.4654529562026111
 40
0.5271233247858651
 40
0.5878770910859562
 40
0.6464342072273406
 40
0.7046818363333534
 40
0.7621222397772741
 40
0.8195101742415842
 40
0.8778159572987374
 40
0.9374625719392666
 40
0.9999999999999999
 40
0.9999999999999999
 40
0.9999999999999999
 40
0.9999999999999999
 10
212.6923076923077
 20
109.5943509615385
 30
0.0
 10
212.6906529866269
 20
109.6795608967865
 30
0.0
 10
212.6874127272976
 20
109.8464197471766
 30
0.0
 10
212.6597996709633
 20
110.0906233950957
 30
0.0
 10
212.6149997020537
 20
110.3228357435458
 30
0.0
 10
212.5526568115796
 20
110.5424791500125
 30
0.0
 10
212.4707830614998
 20
110.7471785454937
 30
0.0
 10
212.3737453125582
 20
110.9401841864826
 30
0.0
 10
212.2572561137785
 20
111.1198996461744
 30
0.0
 10
212.1211169411559
 20
111.2840775996924
 30
0.0
 10
211.9756433028872
 20
111.4343805722712
 30
0.0
 10
211.8172877153002
 20
111.5651298427004
 30
0.0
 10
211.6493758589531
 20
111.6764769473122
 30
0.0
 10
211.4710037621645
 20
111.7675137463297
 30
0.0
 10
211.2829385259626
 20
111.8361707274693
 30
0.0
 10
211.0870400984649
 20
111.8879996222643
 30
0.0
 10
210.88039261567
 20
111.9188760016298
 30
0.0
 10
210.7392885608372
 20
111.9216547017092
 30
0.0
 10
210.6670673076923
 20
111.9230769230769
 30
0.0
  0
SPLINE
  5
F3
330
1F
100
AcDbEntity
  8
0
  6
Continuous
 62
     7
370
    15
100
AcDbSpline
210
0.0
220
0.0
230
1.0
 70
     8
 71
     3
 72
    19
 73
    15
 74
     0
 42
0.00000001
 43
0.00000001
 12
1.0
 22
0.0
 32
0.0
 13
1.0
 23
0.0
 33
0.0
 40
0.0
 40
0.0
 40
0.0
 40
0.0
 40
0.0720366426049832
 40
0.1394178950555384
 40
0.2039091466139898
 40
0.2661526216942828
 40
0.3266650300973702
 40
0.3873870114085739
 40
0.4488149394067024
 40
0.51130531539711
 40
0.6368086029892485
 40
0.7577093031698178
 40
0.8785940817462911
 40
1.0
 40
1.0
 40
1.0
 40
1.0
 10
210.6670673076923
 20
111.9230769230769
 30
0.0
 10
210.5848358185133
 20
111.9206397040091
 30
0.0
 10
210.4256870754008
 20
111.9159227719042
 30
0.0
 10
210.1945648775525
 20
111.8832342561575
 30
0.0
 10
209.9802853097562
 20
111.8252433336739
 30
0.0
 10
209.7802198090074
 20
111.7484308995532
 30
0.0
 10
209.5974294329641
 20
111.6444906045703
 30
0.0
 10
209.431915378631
 20
111.5169165384125
 30
0.0
 10
209.2801525872943
 20
111.3696930303281
 30
0.0
 10
209.106514508268
 20
111.1433541181185
 30
0.0
 10
208.9251177925509
 20
110.8389970722383
 30
0.0
 10
208.7719331528147
 20
110.4475980832275
 30
0.0
 10
208.6692493090637
 20
110.0433258706423
 30
0.0
 10
208.6589878959621
 20
109.7662431787479
 30
0.0
 10
208.6538461538462
 20
109.6274038461539
 30
0.0
  0
SPLINE
  5
F4
330
1F
100
AcDbEntity
  8
0
  6
Continuous
 62
     7
370
    15
100
AcDbSpline
210
0.0
220
0.0
230
1.0
 70
     8
 71
     3
 72
    19
 73
    15
 74
     0
 42
0.00000001
 43
0.00000001
 12
1.0
 22
0.0
 32
0.0
 13
1.0
 23
0.0
 33
0.0
 40
0.0
 40
0.0
 40
0.0
 40
0.0
 40
0.0781263688835345
 40
0.1518386126524774
 40
0.2214787026593686
 40
0.2883218449895903
 40
0.3535121359603152
 40
0.4164239604784979
 40
0.4789155420202584
 40
0.5411742382343309
 40
0.6613623320156016
 40
0.7750504512098733
 40
0.8860655164346455
 40
0.9999999999999999
 40
0.9999999999999999
 40
0.9999999999999999
 40
0.9999999999999999
 10
307.6923076923077
 20
115.0450721153846
 30
0.0
 10
307.6912452128596
 20
115.1403416796599
 30
0.0
 10
307.6891802838521
 20
115.3254980957877
 30
0.0
 10
307.6540640145989
 20
115.5936364961461
 30
0.0
 10
307.6031129517201
 20
115.8447328052574
 30
0.0
 10
307.5356325999535
 20
116.0815725711543
 30
0.0
 10
307.4414182081162
 20
116.3002401218998
 30
0.0
 10
307.3296699488195
 20
116.5041787771071
 30
0.0
 10
307.1976262450958
 20
116.6917532196616
 30
0.0
 10
306.9943532144438
 20
116.910881022404
 30
0.0
 10
306.7184276737395
 20
117.1467504929848
 30
0.0
 10
306.348797618036
 20
117.3516283920237
 30
0.0
 10
305.9517906746656
 20
117.4793706800286
 30
0.0
 10
305.677025917912
 20
117.4930643208507
 30
0.0
 10
305.5378605769231
 20
117.5
 30
0.0
  0
SPLINE
  5
F5
330
1F
100
AcDbEntity
  8
0
  6
Continuous
 62
     7
370
    15
100
AcDbSpline
210
0.0
220
0.0
230
1.0
 70
     8
 71
     3
 72
    19
 73
    15
 74
     0
 42
0.00000001
 43
0.00000001
 12
1.0
 22
0.0
 32
0.0
 13
1.0
 23
0.0
 33
0.0
 40
0.0
 40
0.0
 40
0.0
 40
0.0
 40
0.1225037676873469
 40
0.239035949064337
 40
0.3522894876948647
 40
0.4695319923678546
 40
0.5290396073246316
 40
0.5892849481570255
 40
0.6504265554625361
 40
0.7140851069771444
 40
0.7801833689944067
 40
0.8493595662544251
 40
0.9221710300352458
 40
1.0
 40
1.0
 40
1.0
 40
1.0
 10
305.6941105769232
 20
112.8846153846154
 30
0.0
 10
305.8301320552707
 20
112.8899451153645
 30
0.0
 10
306.0955444893841
 20
112.9003447730396
 30
0.0
 10
306.473153922621
 20
113.0114213273663
 30
0.0
 10
306.8198007162729
 20
113.1818003404239
 30
0.0
 10
307.073412065366
 20
113.3828840098281
 30
0.0
 10
307.2547117319401
 20
113.5733410108191
 30
0.0
 10
307.3713998184321
 20
113.7369006054168
 30
0.0
 10
307.4719937067613
 20
113.9159134643124
 30
0.0
 10
307.5523273052937
 20
114.1119696424944
 30
0.0
 10
307.6155077486167
 20
114.3233664561231
 30
0.0
 10
307.6599965955583
 20
114.5497585022811
 30
0.0
 10
307.6876264557868
 20
114.7919826981131
 30
0.0
 10
307.6907130113103
 20
114.9588562443081
 30
0.0
 10
307.6923076923077
 20
115.0450721153846
 30
0.0
  0
SPLINE
  5
F6
330
1F
100
AcDbEntity
  8
0
  6
Continuous
 62
     7
370
    15
100
AcDbSpline
210
0.0
220
0.0
230
1.0
 70
     8
 71
     3
 72
    19
 73
    15
 74
     0
 42
0.00000001
 43
0.00000001
 12
1.0
 22
0.0
 32
0.0
 13
1.0
 23
0.0
 33
0.0
 40
0.0
 40
0.0
 40
0.0
 40
0.0
 40
0.0833435599031569
 40
0.1610751688675282
 40
0.2344455393451873
 40
0.3025182736756344
 40
0.3670882284496896
 40
0.4290542124686967
 40
0.488246982999599
 40
0.5460626299695241
 40
0.6585067581972018
 40
0.7683766796857693
 40
0.8814040714765995
 40
1.0
 40
1.0
 40
1.0
 40
1.0
 10
303.6538461538462
 20
115.2433894230769
 30
0.0
 10
303.6553957491662
 20
115.145153425399
 30
0.0
 10
303.658390597576
 20
114.955296165483
 30
0.0
 10
303.6864837844633
 20
114.6802457771004
 30
0.0
 10
303.7286282874504
 20
114.4250380625734
 30
0.0
 10
303.7970876888954
 20
114.1916656477361
 30
0.0
 10
303.8775222977387
 20
113.9768063386233
 30
0.0
 10
303.9746523113192
 20
113.779806980641
 30
0.0
 10
304.0979975303264
 20
113.6079448130299
 30
0.0
 10
304.2761755050352
 20
113.4040973425605
 30
0.0
 10
304.5368582024579
 20
113.1965942591757
 30
0.0
 10
304.8903138601456
 20
113.0156614354725
 30
0.0
 10
305.2807798089113
 20
112.9038051995381
 30
0.0
 10
305.5541429812459
 20
112.8911136965343
 30
0.0
 10
305.6941105769232
 20
112.8846153846154
 30
0.0
  0
SPLINE
  5
F7
330
1F
100
AcDbEntity
  8
0
  6
Continuous
 62
     7
370
    15
100
AcDbSpline
210
0.0
220
0.0
230
1.0
 70
     8
 71
     3
 72
    19
 73
    15
 74
     0
 42
0.00000001
 43
0.00000001
 12
1.0
 22
0.0
 32
0.0
 13
1.0
 23
0.0
 33
0.0
 40
0.0
 40
0.0
 40
0.0
 40
0.0
 40
0.1164323807288873
 40
0.2266229944276428
 40
0.3348174843248003
 40
0.4447913643212268
 40
0.5014766242041407
 40
0.5605923454640764
 40
0.6217257867906718
 40
0.6868809963468863
 40
0.7575557825207273
 40
0.8323665149635312
 40
0.9136238093466064
 40
1.0
 40
1.0
 40
1.0
 40
1.0
 10
305.5378605769231
 20
117.5
 30
0.0
 10
305.4079581439724
 20
117.4941099461734
 30
0.0
 10
305.1551171545977
 20
117.4826455955591
 30
0.0
 10
304.7932464478708
 20
117.3796089943267
 30
0.0
 10
304.465428756253
 20
117.2123774737016
 30
0.0
 10
304.2266472992756
 20
117.0172794168736
 30
0.0
 10
304.0564804932681
 20
116.8311960107281
 30
0.0
 10
303.9498275524114
 20
116.6645072437318
 30
0.0
 10
303.8590142232198
 20
116.4787086728731
 30
0.0
 10
303.7838276909868
 20
116.2722161717424
 30
0.0
 10
303.7245007446891
 20
116.0449178397381
 30
0.0
 10
303.6824374172101
 20
115.7956014308257
 30
0.0
 10
303.6595401220267
 20
115.5262746693669
 30
0.0
 10
303.655782392219
 20
115.3395847742982
 30
0.0
 10
303.6538461538462
 20
115.2433894230769
 30
0.0
  0
SPLINE
  5
F8
330
1F
100
AcDbEntity
  8
0
  6
Continuous
 62
     7
370
    15
100
AcDbSpline
210
0.0
220
0.0
230
1.0
 70
     8
 71
     3
 72
    15
 73
    11
 74
     0
 42
0.00000001
 43
0.00000001
 12
1.0
 22
0.0
 32
0.0
 13
1.0
 23
0.0
 33
0.0
 40
0.0
 40
0.0
 40
0.0
 40
0.0
 40
0.0823733151293767
 40
0.1770420547701428
 40
0.2833367838970556
 40
0.4015760572897836
 40
0.5326993894125108
 40
0.6759370714854579
 40
0.8314130224219717
 40
1.0
 40
1.0
 40
1.0
 40
1.0
 10
398.9753605769231
 20
116.0276442307693
 30
0.0
 10
398.9491377432745
 20
115.9307706350191
 30
0.0
 10
398.8927779337442
 20
115.7225636396147
 30
0.0
 10
398.8288118913006
 20
115.3830997073966
 30
0.0
 10
398.7760604141966
 20
114.9978440812007
 30
0.0
 10
398.7315171222174
 20
114.5668862909127
 30
0.0
 10
398.6952682704129
 20
114.0899982879816
 30
0.0
 10
398.6729449790146
 20
113.566876630867
 30
0.0
 10
398.6575155250562
 20
112.9978878696132
 30
0.0
 10
398.6551018289094
 20
112.6031767588888
 30
0.0
 10
398.6538461538462
 20
112.3978365384616
 30
0.0
  0
SPLINE
  5
F9
330
1F
100
AcDbEntity
  8
0
  6
Continuous
 62
     7
370
    15
100
AcDbSpline
210
0.0
220
0.0
230
1.0
 70
     8
 71
     3
 72
    15
 73
    11
 74
     0
 42
0.00000001
 43
0.00000001
 12
1.0
 22
0.0
 32
0.0
 13
1.0
 23
0.0
 33
0.0
 40
0.0
 40
0.0
 40
0.0
 40
0.0
 40
0.1136384890722405
 40
0.2223861812653002
 40
0.3312523767958113
 40
0.4413103711807757
 40
0.5581281266397004
 40
0.6869862659608943
 40
0.8340526583991207
 40
1.0
 40
1.0
 40
1.0
 40
1.0
 10
400.673076923077
 20
107.3076923076923
 30
0.0
 10
400.7655964158228
 20
107.3116711272221
 30
0.0
 10
400.9466535281824
 20
107.3194575250209
 30
0.0
 10
401.2099775702328
 20
107.3829503991787
 30
0.0
 10
401.4586936357701
 20
107.4812978079477
 30
0.0
 10
401.6920642365311
 20
107.6257317256444
 30
0.0
 10
401.9081928548572
 20
107.8212960604497
 30
0.0
 10
402.0913110188737
 20
108.085550892437
 30
0.0
 10
402.2496135784481
 20
108.4094692242144
 30
0.0
 10
402.3288077122322
 20
108.6516523082725
 30
0.0
 10
402.3707932692308
 20
108.7800480769231
 30
0.0
  0
SPLINE
  5
FA
330
1F
100
AcDbEntity
  8
0
  6
Continuous
 62
     7
370
    15
100
AcDbSpline
210
0.0
220
0.0
230
1.0
 70
     8
 71
     3
 72
    15
 73
    11
 74
     0
 42
0.00000001
 43
0.00000001
 12
1.0
 22
0.0
 32
0.0
 13
1.0
 23
0.0
 33
0.0
 40
0.0
 40
0.0
 40
0.0
 40
0.0
 40
0.0826430287340895
 40
0.1768120489030416
 40
0.2826378891715793
 40
0.4012643114922808
 40
0.5319943041057168
 40
0.6757009869892111
 40
0.831686010300773
 40
0.9999999999999999
 40
0.9999999999999999
 40
0.9999999999999999
 40
0.9999999999999999
 10
402.3707932692308
 20
108.7800480769231
 30
0.0
 10
402.3969781692655
 20
108.8769293592403
 30
0.0
 10
402.4529999039038
 20
109.0842036846039
 30
0.0
 10
402.5174217554276
 20
109.421554363768
 30
0.0
 10
402.5703160476274
 20
109.8048136134872
 30
0.0
 10
402.6144358240448
 20
110.2338109723968
 30
0.0
 10
402.6510412279104
 20
110.7096688570594
 30
0.0
 10
402.6731750210348
 20
111.2318038884324
 30
0.0
 10
402.6886189896122
 20
111.7997880235256
 30
0.0
 10
402.6910473515044
 20
112.1934977755202
 30
0.0
 10
402.6923076923077
 20
112.3978365384616
 30
0.0
  0
SPLINE
  5
FB
330
1F
100
AcDbEntity
  8
0
  6
Continuous
 62
     7
370
    15
100
AcDbSpline
210
0.0
220
0.0
230
1.0
 70
     8
 71
     3
 72
    23
 73
    19
 74
     0
 42
0.00000001
 43
0.00000001
 12
1.0
 22
0.0
 32
0.0
 13
1.0
 23
0.0
 33
0.0
 40
0.0
 40
0.0
 40
0.0
 40
0.0
 40
0.1006966640060198
 40
0.1930338194557532
 40
0.277510994726261
 40
0.3537198601440038
 40
0.4216475357476384
 40
0.4819603511219253
 40
0.5341449468329088
 40
0.5790413149141715
 40
0.6553779565299809
 40
0.7205076573654833
 40
0.7762325984060057
 40
0.8240613854650081
 40
0.8681693643483445
 40
0.9108854661679484
 40
0.954949232055448
 40
1.0
 40
1.0
 40
1.0
 40
1.0
 10
402.6923076923077
 20
112.3978365384616
 30
0.0
 10
402.6924470470946
 20
112.602182335977
 30
0.0
 10
402.6927141878885
 20
112.9939098095087
 30
0.0
 10
402.6750150866784
 20
113.5567693977782
 30
0.0
 10
402.6576449650523
 20
114.069988042601
 30
0.0
 10
402.6222243249832
 20
114.5325603815345
 30
0.0
 10
402.5867474327681
 20
114.946048639188
 30
0.0
 10
402.5338956712841
 20
115.308382623789
 30
0.0
 10
402.4806516834498
 20
115.6235559160085
 30
0.0
 10
402.3896575797058
 20
115.9638240565513
 30
0.0
 10
402.2659958526066
 20
116.3217379897932
 30
0.0
 10
402.0970505443639
 20
116.6855272205643
 30
0.0
 10
401.9060753831548
 20
116.9719188094812
 30
0.0
 10
401.6890844142541
 20
117.1824309783495
 30
0.0
 10
401.4536863649238
 20
117.3243402937345
 30
0.0
 10
401.2077215522817
 20
117.4266755786229
 30
0.0
 10
400.9454304240231
 20
117.4874162784126
 30
0.0
 10
400.7645292897287
 20
117.4957745682855
 30
0.0
 10
400.673076923077
 20
117.5
 30
0.0
  0
SPLINE
  5
FC
330
1F
100
AcDbEntity
  8
0
  6
Continuous
 62
     7
370
    15
100
AcDbSpline
210
0.0
220
0.0
230
1.0
 70
     8
 71
     3
 72
    15
 73
    11
 74
     0
 42
0.00000001
 43
0.00000001
 12
1.0
 22
0.0
 32
0.0
 13
1.0
 23
0.0
 33
0.0
 40
0.0
 40
0.0
 40
0.0
 40
0.0
 40
0.1124239580708154
 40
0.2223848576202879
 40
0.3301224058542558
 40
0.4412431684841763
 40
0.5580749755162377
 40
0.6869486147035377
 40
0.8340326972108811
 40
1.0
 40
1.0
 40
1.0
 40
1.0
 10
400.673076923077
 20
117.5
 30
0.0
 10
400.5816093502012
 20
117.4958085980135
 30
0.0
 10
400.4006781366064
 20
117.4875176220508
 30
0.0
 10
400.1376986426052
 20
117.4260734325225
 30
0.0
 10
399.8893362007187
 20
117.3246771290159
 30
0.0
 10
399.6543935436131
 20
117.1831292037321
 30
0.0
 10
399.4380623061975
 20
116.9862165636541
 30
0.0
 10
399.25481036631
 20
116.7221989853023
 30
0.0
 10
399.0965501105752
 20
116.3982056269924
 30
0.0
 10
399.0173495442155
 20
116.1560339512094
 30
0.0
 10
398.9753605769231
 20
116.0276442307693
 30
0.0
  0
SPLINE
  5
FD
330
1F
100
AcDbEntity
  8
0
  6
Continuous
 62
     7
370
    15
100
AcDbSpline
210
0.0
220
0.0
230
1.0
 70
     8
 71
     3
 72
    23
 73
    19
 74
     0
 42
0.00000001
 43
0.00000001
 12
1.0
 22
0.0
 32
0.0
 13
1.0
 23
0.0
 33
0.0
 40
0.0
 40
0.0
 40
0.0
 40
0.0
 40
0.1008346167264758
 40
0.193283049469183
 40
0.2774008451362986
 40
0.3536777434432216
 40
0.4222362183041929
 40
0.4825627035114593
 40
0.5349079939997822
 40
0.5797418151953553
 40
0.6557138421667944
 40
0.7211454552771962
 40
0.7766660200784044
 40
0.824218184226065
 40
0.8681270432663907
 40
0.9113574509853429
 40
0.9548891391678473
 40
0.9999999999999999
 40
0.9999999999999999
 40
0.9999999999999999
 40
0.9999999999999999
 10
398.6538461538462
 20
112.3978365384616
 30
0.0
 10
398.6555580416099
 20
112.1935121353097
 30
0.0
 10
398.6588394433552
 20
111.8018565213522
 30
0.0
 10
398.6681575374201
 20
111.2397104675219
 30
0.0
 10
398.6946071038001
 20
110.7279991398312
 30
0.0
 10
398.7210805647082
 20
110.2646833083793
 30
0.0
 10
398.7651732841308
 20
109.8512228355798
 30
0.0
 10
398.8095213882509
 20
109.4865012468828
 30
0.0
 10
398.8706479564476
 20
109.1730094312711
 30
0.0
 10
398.9540516271589
 20
108.832030734544
 30
0.0
 10
399.0801889832471
 20
108.4751424317929
 30
0.0
 10
399.2532456706863
 20
108.1150945070654
 30
0.0
 10
399.4388216341634
 20
107.8259928843788
 30
0.0
 10
399.6573968442216
 20
107.6189980554828
 30
0.0
 10
399.8939592645261
 20
107.4801408451226
 30
0.0
 10
400.1393219207671
 20
107.3781151562245
 30
0.0
 10
400.4020619386475
 20
107.3208648802821
 30
0.0
 10
400.5816720066713
 20
107.3121350063089
 30
0.0
 10
400.673076923077
 20
107.3076923076923
 30
0.0
  0
LINE
  5
FE
330
1F
100
AcDbEntity
  8
0
  6
Continuous
 62
     7
370
    15
100
AcDbLine
 10
301.1538461538
 20
108.7199519231
 30
0.0
 11
304.0384615385
 21
109.0384615385
 31
0.0
  0
LINE
  5
FF
330
1F
100
AcDbEntity
  8
0
  6
Continuous
 62
     7
370
    15
100
AcDbLine
 10
115.5769230769
 20
105.0
 30
0.0
 11
112.6923076923
 21
105.0
 31
0.0
  0
LINE
  5
100
330
1F
100
AcDbEntity
  8
0
  6
Continuous
 62
     7
370
    15
100
AcDbLine
 10
120.5769230769
 20
119.8076923077
 30
0.0
 11
120.5769230769
 21
117.6923076923
 31
0.0
  0
LINE
  5
101
330
1F
100
AcDbEntity
  8
0
  6
Continuous
 62
     7
370
    15
100
AcDbLine
 10
110.7692307692
 20
119.8076923077
 30
0.0
 11
120.5769230769
 21
119.8076923077
 31
0.0
  0
LINE
  5
102
330
1F
100
AcDbEntity
  8
0
  6
Continuous
 62
     7
370
    15
100
AcDbLine
 10
110.7692307692
 20
116.9230769231
 30
0.0
 11
110.7692307692
 21
119.8076923077
 31
0.0
  0
LINE
  5
103
330
1F
100
AcDbEntity
  8
0
  6
Continuous
 62
     7
370
    15
100
AcDbLine
 10
117.3106971154
 20
116.9230769231
 30
0.0
 11
110.7692307692
 21
116.9230769231
 31
0.0
  0
LINE
  5
104
330
1F
100
AcDbEntity
  8
0
  6
Continuous
 62
     7
370
    15
100
AcDbLine
 10
23.5714285714
 20
116.2987012987
 30
0.0
 11
21.2337662338
 21
115.9090909091
 31
0.0
  0
LINE
  5
105
330
1F
100
AcDbEntity
  8
0
  6
Continuous
 62
     7
370
    15
100
AcDbLine
 10
8.3766233766
 20
115.5194805195
 30
0.0
 11
6.038961039
 21
115.9090909091
 31
0.0
  0
LINE
  5
106
330
1F
100
AcDbEntity
  8
0
  6
Continuous
 62
     7
370
    15
100
AcDbLine
 10
14.2207792208
 20
105.0
 30
0.0
 11
5.8441558442
 21
105.0
 31
0.0
  0
LINE
  5
107
330
1F
100
AcDbEntity
  8
0
  6
Continuous
 62
     7
370
    15
100
AcDbLine
 10
14.2207792208
 20
107.5324675325
 30
0.0
 11
14.2207792208
 21
105.0
 31
0.0
  0
LINE
  5
108
330
1F
100
AcDbEntity
  8
0
  6
Continuous
 62
     7
370
    15
100
AcDbLine
 10
9.4389204545
 20
107.5324675325
 30
0.0
 11
14.2207792208
 21
107.5324675325
 31
0.0
  0
LINE
  5
109
330
1F
100
AcDbEntity
  8
0
  6
Continuous
 62
     7
370
    15
100
AcDbLine
 10
102.5
 20
115.1923076923
 30
0.0
 11
99.6153846154
 21
115.4747596154
 31
0.0
  0
LINE
  5
10A
330
1F
100
AcDbEntity
  8
0
  6
Continuous
 62
     7
370
    15
100
AcDbLine
 10
109.0384615385
 20
105.0
 30
0.0
 11
99.2307692308
 21
105.0
 31
0.0
  0
LINE
  5
10B
330
1F
100
AcDbEntity
  8
0
  6
Continuous
 62
     7
370
    15
100
AcDbLine
 10
109.0384615385
 20
107.8846153846
 30
0.0
 11
109.0384615385
 21
105.0
 31
0.0
  0
LINE
  5
10C
330
1F
100
AcDbEntity
  8
0
  6
Continuous
 62
     7
370
    15
100
AcDbLine
 10
103.4645432692
 20
107.8846153846
 30
0.0
 11
109.0384615385
 21
107.8846153846
 31
0.0
  0
LINE
  5
10D
330
1F
100
AcDbEntity
  8
0
  6
Continuous
 62
     7
370
    15
100
AcDbLine
 10
197.5
 20
115.1923076923
 30
0.0
 11
194.6153846154
 21
115.4747596154
 31
0.0
  0
LINE
  5
10E
330
1F
100
AcDbEntity
  8
0
  6
Continuous
 62
     7
370
    15
100
AcDbLine
 10
204.0384615385
 20
105.0
 30
0.0
 11
194.2307692308
 21
105.0
 31
0.0
  0
LINE
  5
10F
330
1F
100
AcDbEntity
  8
0
  6
Continuous
 62
     7
370
    15
100
AcDbLine
 10
204.0384615385
 20
107.8846153846
 30
0.0
 11
204.0384615385
 21
105.0
 31
0.0
  0
LINE
  5
110
330
1F
100
AcDbEntity
  8
0
  6
Continuous
 62
     7
370
    15
100
AcDbLine
 10
198.4645432692
 20
107.8846153846
 30
0.0
 11
204.0384615385
 21
107.8846153846
 31
0.0
  0
LINE
  5
111
330
1F
100
AcDbEntity
  8
0
  6
Continuous
 62
     7
370
    15
100
AcDbLine
 10
292.5
 20
115.1923076923
 30
0.0
 11
289.6153846154
 21
115.4747596154
 31
0.0
  0
LINE
  5
112
330
1F
100
AcDbEntity
  8
0
  6
Continuous
 62
     7
370
    15
100
AcDbLine
 10
299.0384615385
 20
105.0
 30
0.0
 11
289.2307692308
 21
105.0
 31
0.0
  0
LINE
  5
113
330
1F
100
AcDbEntity
  8
0
  6
Continuous
 62
     7
370
    15
100
AcDbLine
 10
299.0384615385
 20
107.8846153846
 30
0.0
 11
299.0384615385
 21
105.0
 31
0.0
  0
LINE
  5
114
330
1F
100
AcDbEntity
  8
0
  6
Continuous
 62
     7
370
    15
100
AcDbLine
 10
293.4645432692
 20
107.8846153846
 30
0.0
 11
299.0384615385
 21
107.8846153846
 31
0.0
  0
LINE
  5
115
330
1F
100
AcDbEntity
  8
0
  6
Continuous
 62
     7
370
    15
100
AcDbLine
 10
387.5
 20
115.5769230769
 30
0.0
 11
384.6153846154
 21
116.0096153846
 31
0.0
  0
LINE
  5
116
330
1F
100
AcDbEntity
  8
0
  6
Continuous
 62
     7
370
    15
100
AcDbLine
 10
388.2692307692
 20
111.7097355769
 30
0.0
 11
388.5396634615
 21
114.0384615385
 31
0.0
  0
LINE
  5
117
330
1F
100
AcDbEntity
  8
0
  6
Continuous
 62
     7
370
    15
100
AcDbLine
 10
384.2307692308
 20
109.2608173077
 30
0.0
 11
387.1153846154
 21
109.6153846154
 31
0.0
  0
LINE
  5
118
330
1F
100
AcDbEntity
  8
0
  6
Continuous
 62
     7
370
    15
100
AcDbLine
 10
410.0
 20
100.0
 30
0.0
 11
410.0
 21
115.0
 31
0.0
  0
LINE
  5
119
330
1F
100
AcDbEntity
  8
0
  6
Continuous
 62
     7
370
    15
100
AcDbLine
 10
475.0
 20
100.0
 30
0.0
 11
410.0
 21
100.0
 31
0.0
  0
LINE
  5
11A
330
1F
100
AcDbEntity
  8
0
  6
Continuous
 62
     7
370
    15
100
AcDbLine
 10
475.0
 20
80.0
 30
0.0
 11
475.0
 21
100.0
 31
0.0
  0
LINE
  5
11B
330
1F
100
AcDbEntity
  8
0
  6
Continuous
 62
     7
370
    15
100
AcDbLine
 10
479.0
 20
80.0
 30
0.0
 11
475.0
 21
80.0
 31
0.0
  0
LINE
  5
11C
330
1F
100
AcDbEntity
  8
0
  6
Continuous
 62
     7
370
    15
100
AcDbLine
 10
479.0
 20
60.0
 30
0.0
 11
479.0
 21
80.0
 31
0.0
  0
LINE
  5
11D
330
1F
100
AcDbEntity
  8
0
  6
Continuous
 62
     7
370
    15
100
AcDbLine
 10
475.0
 20
60.0
 30
0.0
 11
479.0
 21
60.0
 31
0.0
  0
LINE
  5
11E
330
1F
100
AcDbEntity
  8
0
  6
Continuous
 62
     7
370
    15
100
AcDbLine
 10
475.0
 20
40.0
 30
0.0
 11
475.0
 21
60.0
 31
0.0
  0
LINE
  5
11F
330
1F
100
AcDbEntity
  8
0
  6
Continuous
 62
     7
370
    15
100
AcDbLine
 10
479.0
 20
40.0
 30
0.0
 11
475.0
 21
40.0
 31
0.0
  0
LINE
  5
120
330
1F
100
AcDbEntity
  8
0
  6
Continuous
 62
     7
370
    15
100
AcDbLine
 10
479.0
 20
20.0
 30
0.0
 11
479.0
 21
40.0
 31
0.0
  0
LINE
  5
121
330
1F
100
AcDbEntity
  8
0
  6
Continuous
 62
     7
370
    15
100
AcDbLine
 10
475.0
 20
20.0
 30
0.0
 11
479.0
 21
20.0
 31
0.0
  0
LINE
  5
122
330
1F
100
AcDbEntity
  8
0
  6
Continuous
 62
     7
370
    15
100
AcDbLine
 10
475.0
 20
8.4
 30
0.0
 11
475.0
 21
20.0
 31
0.0
  0
LINE
  5
123
330
1F
100
AcDbEntity
  8
0
  6
Continuous
 62
     7
370
    15
100
AcDbLine
 10
475.0
 20
8.4
 30
0.0
 11
347.5
 21
8.4
 31
0.0
  0
LINE
  5
124
330
1F
100
AcDbEntity
  8
0
  6
Continuous
 62
     7
370
    15
100
AcDbLine
 10
347.5
 20
4.4
 30
0.0
 11
347.5
 21
8.4
 31
0.0
  0
LINE
  5
125
330
1F
100
AcDbEntity
  8
0
  6
Continuous
 62
     7
370
    15
100
AcDbLine
 10
307.5
 20
4.4
 30
0.0
 11
347.5
 21
4.4
 31
0.0
  0
LINE
  5
126
330
1F
100
AcDbEntity
  8
0
  6
Continuous
 62
     7
370
    15
100
AcDbLine
 10
307.5
 20
8.4
 30
0.0
 11
307.5
 21
4.4
 31
0.0
  0
LINE
  5
127
330
1F
100
AcDbEntity
  8
0
  6
Continuous
 62
     7
370
    15
100
AcDbLine
 10
167.5
 20
4.4
 30
0.0
 11
167.5
 21
8.4
 31
0.0
  0
LINE
  5
128
330
1F
100
AcDbEntity
  8
0
  6
Continuous
 62
     7
370
    15
100
AcDbLine
 10
127.5
 20
4.4
 30
0.0
 11
167.5
 21
4.4
 31
0.0
  0
LINE
  5
129
330
1F
100
AcDbEntity
  8
0
  6
Continuous
 62
     7
370
    15
100
AcDbLine
 10
127.5
 20
8.4
 30
0.0
 11
127.5
 21
4.4
 31
0.0
  0
LINE
  5
12A
330
1F
100
AcDbEntity
  8
0
  6
Continuous
 62
     7
370
    15
100
AcDbLine
 10
127.5
 20
8.4
 30
0.0
 11
0.0
 21
8.4
 31
0.0
  0
LINE
  5
12B
330
1F
100
AcDbEntity
  8
0
  6
Continuous
 62
     7
370
    15
100
AcDbLine
 10
0.0
 20
20.0
 30
0.0
 11
0.0
 21
8.4
 31
0.0
  0
LINE
  5
12C
330
1F
100
AcDbEntity
  8
0
  6
Continuous
 62
     7
370
    15
100
AcDbLine
 10
-4.0
 20
20.0
 30
0.0
 11
0.0
 21
20.0
 31
0.0
  0
LINE
  5
12D
330
1F
100
AcDbEntity
  8
0
  6
Continuous
 62
     7
370
    15
100
AcDbLine
 10
-4.0
 20
40.0
 30
0.0
 11
-4.0
 21
20.0
 31
0.0
  0
LINE
  5
12E
330
1F
100
AcDbEntity
  8
0
  6
Continuous
 62
     7
370
    15
100
AcDbLine
 10
0.0
 20
40.0
 30
0.0
 11
-4.0
 21
40.0
 31
0.0
  0
LINE
  5
12F
330
1F
100
AcDbEntity
  8
0
  6
Continuous
 62
     7
370
    15
100
AcDbLine
 10
0.0
 20
60.0
 30
0.0
 11
0.0
 21
40.0
 31
0.0
  0
LINE
  5
130
330
1F
100
AcDbEntity
  8
0
  6
Continuous
 62
     7
370
    15
100
AcDbLine
 10
-4.0
 20
60.0
 30
0.0
 11
0.0
 21
60.0
 31
0.0
  0
LINE
  5
131
330
1F
100
AcDbEntity
  8
0
  6
Continuous
 62
     7
370
    15
100
AcDbLine
 10
-4.0
 20
80.0
 30
0.0
 11
-4.0
 21
60.0
 31
0.0
  0
LINE
  5
132
330
1F
100
AcDbEntity
  8
0
  6
Continuous
 62
     7
370
    15
100
AcDbLine
 10
0.0
 20
80.0
 30
0.0
 11
-4.0
 21
80.0
 31
0.0
  0
LINE
  5
133
330
1F
100
AcDbEntity
  8
0
  6
Continuous
 62
     7
370
    15
100
AcDbLine
 10
0.0
 20
115.0
 30
0.0
 11
0.0
 21
80.0
 31
0.0
  0
LINE
  5
134
330
1F
100
AcDbEntity
  8
0
  6
Continuous
 62
     7
370
    15
100
AcDbLine
 10
30.0
 20
100.0
 30
0.0
 11
30.0
 21
115.0
 31
0.0
  0
LINE
  5
135
330
1F
100
AcDbEntity
  8
0
  6
Continuous
 62
     7
370
    15
100
AcDbLine
 10
91.0
 20
100.0
 30
0.0
 11
30.0
 21
100.0
 31
0.0
  0
LINE
  5
136
330
1F
100
AcDbEntity
  8
0
  6
Continuous
 62
     7
370
    15
100
AcDbLine
 10
91.0
 20
100.0
 30
0.0
 11
91.0
 21
49.6
 31
0.0
  0
LINE
  5
137
330
1F
100
AcDbEntity
  8
0
  6
Continuous
 62
     7
370
    15
100
AcDbLine
 10
91.0
 20
49.6
 30
0.0
 11
95.0
 21
49.6
 31
0.0
  0
LINE
  5
138
330
1F
100
AcDbEntity
  8
0
  6
Continuous
 62
     7
370
    15
100
AcDbLine
 10
95.0
 20
115.0
 30
0.0
 11
95.0
 21
49.6
 31
0.0
  0
LINE
  5
139
330
1F
100
AcDbEntity
  8
0
  6
Continuous
 62
     7
370
    15
100
AcDbLine
 10
125.0
 20
100.0
 30
0.0
 11
125.0
 21
115.0
 31
0.0
  0
LINE
  5
13A
330
1F
100
AcDbEntity
  8
0
  6
Continuous
 62
     7
370
    15
100
AcDbLine
 10
186.0
 20
100.0
 30
0.0
 11
125.0
 21
100.0
 31
0.0
  0
LINE
  5
13B
330
1F
100
AcDbEntity
  8
0
  6
Continuous
 62
     7
370
    15
100
AcDbLine
 10
186.0
 20
100.0
 30
0.0
 11
186.0
 21
49.6
 31
0.0
  0
LINE
  5
13C
330
1F
100
AcDbEntity
  8
0
  6
Continuous
 62
     7
370
    15
100
AcDbLine
 10
186.0
 20
49.6
 30
0.0
 11
190.0
 21
49.6
 31
0.0
  0
LINE
  5
13D
330
1F
100
AcDbEntity
  8
0
  6
Continuous
 62
     7
370
    15
100
AcDbLine
 10
190.0
 20
115.0
 30
0.0
 11
190.0
 21
49.6
 31
0.0
  0
LINE
  5
13E
330
1F
100
AcDbEntity
  8
0
  6
Continuous
 62
     7
370
    15
100
AcDbLine
 10
220.0
 20
100.0
 30
0.0
 11
220.0
 21
115.0
 31
0.0
  0
LINE
  5
13F
330
1F
100
AcDbEntity
  8
0
  6
Continuous
 62
     7
370
    15
100
AcDbLine
 10
281.0
 20
100.0
 30
0.0
 11
220.0
 21
100.0
 31
0.0
  0
LINE
  5
140
330
1F
100
AcDbEntity
  8
0
  6
Continuous
 62
     7
370
    15
100
AcDbLine
 10
281.0
 20
100.0
 30
0.0
 11
281.0
 21
49.6
 31
0.0
  0
LINE
  5
141
330
1F
100
AcDbEntity
  8
0
  6
Continuous
 62
     7
370
    15
100
AcDbLine
 10
281.0
 20
49.6
 30
0.0
 11
285.0
 21
49.6
 31
0.0
  0
LINE
  5
142
330
1F
100
AcDbEntity
  8
0
  6
Continuous
 62
     7
370
    15
100
AcDbLine
 10
285.0
 20
115.0
 30
0.0
 11
285.0
 21
49.6
 31
0.0
  0
LINE
  5
143
330
1F
100
AcDbEntity
  8
0
  6
Continuous
 62
     7
370
    15
100
AcDbLine
 10
315.0
 20
100.0
 30
0.0
 11
315.0
 21
115.0
 31
0.0
  0
LINE
  5
144
330
1F
100
AcDbEntity
  8
0
  6
Continuous
 62
     7
370
    15
100
AcDbLine
 10
376.0
 20
100.0
 30
0.0
 11
315.0
 21
100.0
 31
0.0
  0
LINE
  5
145
330
1F
100
AcDbEntity
  8
0
  6
Continuous
 62
     7
370
    15
100
AcDbLine
 10
376.0
 20
100.0
 30
0.0
 11
376.0
 21
49.6
 31
0.0
  0
LINE
  5
146
330
1F
100
AcDbEntity
  8
0
  6
Continuous
 62
     7
370
    15
100
AcDbLine
 10
376.0
 20
49.6
 30
0.0
 11
380.0
 21
49.6
 31
0.0
  0
LINE
  5
147
330
1F
100
AcDbEntity
  8
0
  6
Continuous
 62
     7
370
    15
100
AcDbLine
 10
380.0
 20
115.0
 30
0.0
 11
380.0
 21
49.6
 31
0.0
  0
LINE
  5
148
330
1F
100
AcDbEntity
  8
0
  6
Continuous
 62
     7
370
    15
100
AcDbLine
 10
307.5
 20
8.4
 30
0.0
 11
167.5
 21
8.4
 31
0.0
  0
ARC
  5
149
330
1F
100
AcDbEntity
  8
0
  6
Continuous
 62
     7
370
    15
100
AcDbCircle
 10
395.0
 20
115.0
 30
0.0
 40
15.00000000000006
100
AcDbArc
 50
0.0
 51
180.0
  0
ARC
  5
14A
330
1F
100
AcDbEntity
  8
0
  6
Continuous
 62
     7
370
    15
100
AcDbCircle
 10
15.0
 20
115.0
 30
0.0
 40
15.0
100
AcDbArc
 50
0.0
 51
180.0
  0
ARC
  5
14B
330
1F
100
AcDbEntity
  8
0
  6
Continuous
 62
     7
370
    15
100
AcDbCircle
 10
110.0
 20
115.0
 30
0.0
 40
15.0
100
AcDbArc
 50
0.0
 51
180.0
  0
ARC
  5
14C
330
1F
100
AcDbEntity
  8
0
  6
Continuous
 62
     7
370
    15
100
AcDbCircle
 10
205.0
 20
115.0
 30
0.0
 40
15.00000000000003
100
AcDbArc
 50
0.0
 51
180.0
  0
ARC
  5
14D
330
1F
100
AcDbEntity
  8
0
  6
Continuous
 62
     7
370
    15
100
AcDbCircle
 10
300.0
 20
115.0
 30
0.0
 40
15.0
100
AcDbArc
 50
0.0
 51
180.0
  0
ENDSEC
  0
SECTION
  2
OBJECTS
  0
DICTIONARY
  5
C
330
0
100
AcDbDictionary
281
     1
  3
ACAD_GROUP
350
D
  3
ACAD_LAYOUT
350
1A
  3
ACAD_MLINESTYLE
350
17
  3
ACAD_PLOTSETTINGS
350
19
  3
ACAD_PLOTSTYLENAME
350
E
  0
DICTIONARY
  5
D
102
{ACAD_REACTORS
330
C
102
}
330
C
100
AcDbDictionary
281
     1
  0
DICTIONARY
  5
1A
102
{ACAD_REACTORS
330
C
102
}
330
C
100
AcDbDictionary
281
     1
  3
Layout1
350
1E
  3
Layout2
350
26
  3
Model
350
22
  0
DICTIONARY
  5
17
102
{ACAD_REACTORS
330
C
102
}
330
C
100
AcDbDictionary
281
     1
  3
Standard
350
18
  0
DICTIONARY
  5
19
102
{ACAD_REACTORS
330
C
102
}
330
C
100
AcDbDictionary
281
     1
  0
ACDBDICTIONARYWDFLT
  5
E
102
{ACAD_REACTORS
330
C
102
}
330
C
100
AcDbDictionary
281
     1
  3
Normal
350
F
100
AcDbDictionaryWithDefault
340
F
  0
LAYOUT
  5
1E
102
{ACAD_REACTORS
330
1A
102
}
330
1A
100
AcDbPlotSettings
  1

  2
none_device
  4

  6

 40
0.0
 41
0.0
 42
0.0
 43
0.0
 44
0.0
 45
0.0
 46
0.0
 47
0.0
 48
0.0
 49
0.0
140
0.0
141
0.0
142
1.0
143
1.0
 70
   688
 72
     0
 73
     0
 74
     5
  7

 75
    16
147
1.0
148
0.0
149
0.0
100
AcDbLayout
  1
Layout1
 70
     1
 71
     1
 10
0.0
 20
0.0
 11
420.0
 21
297.0
 12
0.0
 22
0.0
 32
0.0
 14
1.0000000000E+20
 24
1.0000000000E+20
 34
1.0000000000E+20
 15
-1.0000000000E+20
 25
-1.0000000000E+20
 35
-1.0000000000E+20
146
0.0
 13
0.0
 23
0.0
 33
0.0
 16
1.0
 26
0.0
 36
0.0
 17
0.0
 27
1.0
 37
0.0
 76
     0
330
1B
  0
LAYOUT
  5
26
102
{ACAD_REACTORS
330
1A
102
}
330
1A
100
AcDbPlotSettings
  1

  2
none_device
  4

  6

 40
0.0
 41
0.0
 42
0.0
 43
0.0
 44
0.0
 45
0.0
 46
0.0
 47
0.0
 48
0.0
 49
0.0
140
0.0
141
0.0
142
1.0
143
1.0
 70
   688
 72
     0
 73
     0
 74
     5
  7

 75
    16
147
1.0
148
0.0
149
0.0
100
AcDbLayout
  1
Layout2
 70
     1
 71
     2
 10
0.0
 20
0.0
 11
0.0
 21
0.0
 12
0.0
 22
0.0
 32
0.0
 14
0.0
 24
0.0
 34
0.0
 15
0.0
 25
0.0
 35
0.0
146
0.0
 13
0.0
 23
0.0
 33
0.0
 16
1.0
 26
0.0
 36
0.0
 17
0.0
 27
1.0
 37
0.0
 76
     0
330
23
  0
LAYOUT
  5
22
102
{ACAD_REACTORS
330
1A
102
}
330
1A
100
AcDbPlotSettings
  1

  2
none_device
  4
ANSI_A_(11.00_x_8.50_Inches)
  6

 40
6.35
 41
19.05
 42
6.35000508
 43
19.05000254
 44
279.4
 45
215.9
 46
-2.6622696207
 47
50.4156856865
 48
0.0
 49
0.0
140
0.0
141
0.0
142
0.0225465839
143
1.0
 70
  1696
 72
     0
 73
     0
 74
     0
  7

 75
     0
147
0.0179189148
148
0.0
149
0.0
100
AcDbLayout
  1
Model
 70
     1
 71
     0
 10
0.0
 20
0.0
 11
420.0
 21
297.0
 12
0.0
 22
0.0
 32
0.0
 14
-4.0
 24
4.4
 34
0.0
 15
479.0
 25
130.0
 35
0.0
146
0.0
 13
0.0
 23
0.0
 33
0.0
 16
1.0
 26
0.0
 36
0.0
 17
0.0
 27
1.0
 37
0.0
 76
     0
330
1F
331
29
  0
MLINESTYLE
  5
18
102
{ACAD_REACTORS
330
17
102
}
330
17
100
AcDbMlineStyle
  2
Standard
 70
     0
  3

 62
   256
 51
90.0
 52
90.0
 71
     2
 49
0.5
 62
   256
  6
BYLAYER
 49
-0.5
 62
   256
  6
BYLAYER
  0
ACDBPLACEHOLDER
  5
F
102
{ACAD_REACTORS
330
E
102
}
330
E
  0
ENDSEC
  0
EOF
