  0
SECTION
  2
HEADER
  9
$ACADVER
  1
AC1015
  9
$ACADMAINTVER
 70
     6
  9
$DWGCODEPAGE
  3
ANSI_1251
  9
$INSBASE
 10
0.0
 20
0.0
 30
0.0
  9
$EXTMIN
 10
-4.0
 20
4.4
 30
0.0
  9
$EXTMAX
 10
479.0
 20
130.0
 30
0.0
  9
$LIMMIN
 10
0.0
 20
0.0
  9
$LIMMAX
 10
420.0
 20
297.0
  9
$ORTHOMODE
 70
     0
  9
$REGENMODE
 70
     1
  9
$FILLMODE
 70
     1
  9
$QTEXTMODE
 70
     0
  9
$MIRRTEXT
 70
     1
  9
$LTSCALE
 40
1.0
  9
$ATTMODE
 70
     1
  9
$TEXTSIZE
 40
4.0
  9
$TRACEWID
 40
1.0
  9
$TEXTSTYLE
  7
Standard
  9
$CLAYER
  8
0
  9
$CELTYPE
  6
ByLayer
  9
$CECOLOR
 62
   256
  9
$CELTSCALE
 40
1.0
  9
$DISPSILH
 70
     0
  9
$DIMSCALE
 40
1.0
  9
$DIMASZ
 40
6.0
  9
$DIMEXO
 40
1.0
  9
$DIMDLI
 40
3.75
  9
$DIMRND
 40
0.0
  9
$DIMDLE
 40
0.0
  9
$DIMEXE
 40
1.0
  9
$DIMTP
 40
0.0
  9
$DIMTM
 40
0.0
  9
$DIMTXT
 40
4.0
  9
$DIMCEN
 40
2.5
  9
$DIMTSZ
 40
0.0
  9
$DIMTOL
 70
     0
  9
$DIMLIM
 70
     0
  9
$DIMTIH
 70
     1
  9
$DIMTOH
 70
     1
  9
$DIMSE1
 70
     0
  9
$DIMSE2
 70
     0
  9
$DIMTAD
 70
     1
  9
$DIMZIN
 70
     0
  9
$DIMBLK
  1

  9
$DIMASO
 70
     1
  9
$DIMSHO
 70
     1
  9
$DIMPOST
  1

  9
$DIMAPOST
  1

  9
$DIMALT
 70
     0
  9
$DIMALTD
 70
     3
  9
$DIMALTF
 40
0.0393700787
  9
$DIMLFAC
 40
1.0
  9
$DIMTOFL
 70
     1
  9
$DIMTVP
 40
0.0
  9
$DIMTIX
 70
     0
  9
$DIMSOXD
 70
     0
  9
$DIMSAH
 70
     0
  9
$DIMBLK1
  1

  9
$DIMBLK2
  1

  9
$DIMSTYLE
  2
ISO-25
  9
$DIMCLRD
 70
     0
  9
$DIMCLRE
 70
     0
  9
$DIMCLRT
 70
     0
  9
$DIMTFAC
 40
1.0
  9
$DIMGAP
 40
3.0
  9
$DIMJUST
 70
     0
  9
$DIMSD1
 70
     0
  9
$DIMSD2
 70
     0
  9
$DIMTOLJ
 70
     0
  9
$DIMTZIN
 70
     0
  9
$DIMALTZ
 70
     0
  9
$DIMALTTZ
 70
     0
  9
$DIMUPT
 70
     0
  9
$DIMDEC
 70
     2
  9
$DIMTDEC
 70
     4
  9
$DIMALTU
 70
     2
  9
$DIMALTTD
 70
     3
  9
$DIMTXSTY
  7
Standard
  9
$DIMAUNIT
 70
     0
  9
$DIMADEC
 70
     2
  9
$DIMALTRND
 40
0.0
  9
$DIMAZIN
 70
     0
  9
$DIMDSEP
 70
    44
  9
$DIMATFIT
 70
     3
  9
$DIMFRAC
 70
     0
  9
$DIMLDRBLK
  1

  9
$DIMLUNIT
 70
     2
  9
$DIMLWD
 70
    -2
  9
$DIMLWE
 70
    -2
  9
$DIMTMOVE
 70
     0
  9
$LUNITS
 70
     2
  9
$LUPREC
 70
     2
  9
$SKETCHINC
 40
1.0
  9
$FILLETRAD
 40
10.0
  9
$AUNITS
 70
     0
  9
$AUPREC
 70
     2
  9
$MENU
  1
.
  9
$ELEVATION
 40
0.0
  9
$PELEVATION
 40
0.0
  9
$THICKNESS
 40
0.0
  9
$LIMCHECK
 70
     0
  9
$CHAMFERA
 40
10.0
  9
$CHAMFERB
 40
10.0
  9
$CHAMFERC
 40
20.0
  9
$CHAMFERD
 40
0.0
  9
$SKPOLY
 70
     0
  9
$TDCREATE
 40
2460389.863305023
  9
$TDUCREATE
 40
2460389.77997169
  9
$TDUPDATE
 40
2460389.863354595
  9
$TDUUPDATE
 40
2460389.780021261
  9
$TDINDWG
 40
0.0000000116
  9
$TDUSRTIMER
 40
0.0000000116
  9
$USRTIMER
 70
     1
  9
$ANGBASE
 50
0.0
  9
$ANGDIR
 70
     0
  9
$PDMODE
 70
     0
  9
$PDSIZE
 40
-1.0
  9
$PLINEWID
 40
0.0
  9
$SPLFRAME
 70
     0
  9
$SPLINETYPE
 70
     6
  9
$SPLINESEGS
 70
     8
  9
$HANDSEED
  5
102
  9
$SURFTAB1
 70
     6
  9
$SURFTAB2
 70
     6
  9
$SURFTYPE
 70
     6
  9
$SURFU
 70
     6
  9
$SURFV
 70
     6
  9
$UCSBASE
  2

  9
$UCSNAME
  2

  9
$UCSORG
 10
0.0
 20
0.0
 30
0.0
  9
$UCSXDIR
 10
1.0
 20
0.0
 30
0.0
  9
$UCSYDIR
 10
0.0
 20
1.0
 30
0.0
  9
$UCSORTHOREF
  2

  9
$UCSORTHOVIEW
 70
     0
  9
$UCSORGTOP
 10
0.0
 20
0.0
 30
0.0
  9
$UCSORGBOTTOM
 10
0.0
 20
0.0
 30
0.0
  9
$UCSORGLEFT
 10
0.0
 20
0.0
 30
0.0
  9
$UCSORGRIGHT
 10
0.0
 20
0.0
 30
0.0
  9
$UCSORGFRONT
 10
0.0
 20
0.0
 30
0.0
  9
$UCSORGBACK
 10
0.0
 20
0.0
 30
0.0
  9
$PUCSBASE
  2

  9
$PUCSNAME
  2

  9
$PUCSORG
 10
0.0
 20
0.0
 30
0.0
  9
$PUCSXDIR
 10
1.0
 20
0.0
 30
0.0
  9
$PUCSYDIR
 10
0.0
 20
1.0
 30
0.0
  9
$PUCSORTHOREF
  2

  9
$PUCSORTHOVIEW
 70
     0
  9
$PUCSORGTOP
 10
0.0
 20
0.0
 30
0.0
  9
$PUCSORGBOTTOM
 10
0.0
 20
0.0
 30
0.0
  9
$PUCSORGLEFT
 10
0.0
 20
0.0
 30
0.0
  9
$PUCSORGRIGHT
 10
0.0
 20
0.0
 30
0.0
  9
$PUCSORGFRONT
 10
0.0
 20
0.0
 30
0.0
  9
$PUCSORGBACK
 10
0.0
 20
0.0
 30
0.0
  9
$USERI1
 70
     0
  9
$USERI2
 70
     0
  9
$USERI3
 70
     0
  9
$USERI4
 70
     0
  9
$USERI5
 70
     0
  9
$USERR1
 40
0.0
  9
$USERR2
 40
0.0
  9
$USERR3
 40
0.0
  9
$USERR4
 40
0.0
  9
$USERR5
 40
0.0
  9
$WORLDVIEW
 70
     1
  9
$SHADEDGE
 70
     3
  9
$SHADEDIF
 70
    70
  9
$TILEMODE
 70
     1
  9
$MAXACTVP
 70
    64
  9
$PINSBASE
 10
0.0
 20
0.0
 30
0.0
  9
$PLIMCHECK
 70
     0
  9
$PEXTMIN
 10
1.0000000000E+20
 20
1.0000000000E+20
 30
1.0000000000E+20
  9
$PEXTMAX
 10
-1.0000000000E+20
 20
-1.0000000000E+20
 30
-1.0000000000E+20
  9
$PLIMMIN
 10
0.0
 20
0.0
  9
$PLIMMAX
 10
420.0
 20
297.0
  9
$UNITMODE
 70
     0
  9
$VISRETAIN
 70
     1
  9
$PLINEGEN
 70
     0
  9
$PSLTSCALE
 70
     1
  9
$TREEDEPTH
 70
  3020
  9
$CMLSTYLE
  2
Standard
  9
$CMLJUST
 70
     0
  9
$CMLSCALE
 40
20.0
  9
$PROXYGRAPHICS
 70
     1
  9
$MEASUREMENT
 70
     1
  9
$CELWEIGHT
370
    -1
  9
$ENDCAPS
280
     0
  9
$JOINSTYLE
280
     0
  9
$LWDISPLAY
290
     1
  9
$INSUNITS
 70
     4
  9
$HYPERLINKBASE
  1

  9
$STYLESHEET
  1

  9
$XEDIT
290
     1
  9
$CEPSNTYPE
380
     0
  9
$PSTYLEMODE
290
     1
  9
$FINGERPRINTGUID
  2
{3BAE1FEA-679B-477F-874C-71E867EACE1C}
  9
$VERSIONGUID
  2
{FAEB1C32-E019-11D5-929B-00C0DF256EC4}
  9
$EXTNAMES
290
     1
  9
$PSVPSCALE
 40
0.0
  9
$OLESTARTUP
290
     0
  0
ENDSEC
  0
SECTION
  2
CLASSES
  0
CLASS
  1
ACDBDICTIONARYWDFLT
  2
AcDbDictionaryWithDefault
  3
ObjectDBX Classes
 90
        0
280
     0
281
     0
  0
CLASS
  1
VISUALSTYLE
  2
AcDbVisualStyle
  3
ObjectDBX Classes
 90
     4095
280
     0
281
     0
  0
CLASS
  1
MATERIAL
  2
AcDbMaterial
  3
ObjectDBX Classes
 90
     1153
280
     0
281
     0
  0
CLASS
  1
ACDBPLACEHOLDER
  2
AcDbPlaceHolder
  3
ObjectDBX Classes
 90
        0
280
     0
281
     0
  0
CLASS
  1
LAYOUT
  2
AcDbLayout
  3
ObjectDBX Classes
 90
        0
280
     0
281
     0
  0
ENDSEC
  0
SECTION
  2
TABLES
  0
TABLE
  2
VPORT
  5
8
330
0
100
AcDbSymbolTable
 70
     1
  0
VPORT
  5
29
330
8
100
AcDbSymbolTableRecord
100
AcDbViewportTableRecord
  2
*Active
 70
     0
 10
0.0
 20
0.0
 11
1.0
 21
1.0
 12
237.5
 22
67.2
 13
0.0
 23
0.0
 14
10.0
 24
10.0
 15
10.0
 25
10.0
 16
0.0
 26
0.0
 36
1.0
 17
0.0
 27
0.0
 37
0.0
 40
128.112
 41
3.8455414013
 42
50.0
 43
0.0
 44
0.0
 50
0.0
 51
0.0
 71
     0
 72
   100
 73
     1
 74
     3
 75
     0
 76
     0
 77
     0
 78
     0
281
     0
 65
     1
110
0.0
120
0.0
130
0.0
111
1.0
121
0.0
131
0.0
112
0.0
122
1.0
132
0.0
 79
     0
146
0.0
  0
ENDTAB
  0
TABLE
  2
LTYPE
  5
5
330
0
100
AcDbSymbolTable
 70
     6
  0
LTYPE
  5
14
330
5
100
AcDbSymbolTableRecord
100
AcDbLinetypeTableRecord
  2
ByBlock
 70
     0
  3

 72
    65
 73
     0
 40
0.0
  0
LTYPE
  5
15
330
5
100
AcDbSymbolTableRecord
100
AcDbLinetypeTableRecord
  2
ByLayer
 70
     0
  3

 72
    65
 73
     0
 40
0.0
  0
LTYPE
  5
16
330
5
100
AcDbSymbolTableRecord
100
AcDbLinetypeTableRecord
  2
Continuous
 70
     0
  3
Solid line
 72
    65
 73
     0
 40
0.0
  0
LTYPE
  5
3F
330
5
100
AcDbSymbolTableRecord
100
AcDbLinetypeTableRecord
  2
HIDDEN
 70
     0
  3
Hidden __ __ __ __ __ __ __ __ __ __ __ __ __ __
 72
    65
 73
     2
 40
1.905
 49
1.27
 74
     0
 49
-0.635
 74
     0
  0
LTYPE
  5
40
330
5
100
AcDbSymbolTableRecord
100
AcDbLinetypeTableRecord
  2
PHANTOM
 70
     0
  3
Phantom ______  __  __  ______  __  __  ______
 72
    65
 73
     6
 40
12.7
 49
6.35
 74
     0
 49
-1.27
 74
     0
 49
1.27
 74
     0
 49
-1.27
 74
     0
 49
1.27
 74
     0
 49
-1.27
 74
     0
  0
LTYPE
  5
41
330
5
100
AcDbSymbolTableRecord
100
AcDbLinetypeTableRecord
  2
CENTER
 70
     0
  3
Center ____ _ ____ _ ____ _ ____ _ ____ _ ____
 72
    65
 73
     4
 40
10.16
 49
6.35
 74
     0
 49
-1.27
 74
     0
 49
1.27
 74
     0
 49
-1.27
 74
     0
  0
LTYPE
  5
42
330
5
100
AcDbSymbolTableRecord
100
AcDbLinetypeTableRecord
  2
CENTERX2
 70
     0
  3
Center (2x) ________  __  ________  __  _____
 72
    65
 73
     4
 40
20.32
 49
12.7
 74
     0
 49
-2.54
 74
     0
 49
2.54
 74
     0
 49
-2.54
 74
     0
  0
LTYPE
  5
43
330
5
100
AcDbSymbolTableRecord
100
AcDbLinetypeTableRecord
  2
DOT2
 70
     0
  3
Dot (.5x) ........................................
 72
    65
 73
     2
 40
0.635
 49
0.0
 74
     0
 49
-0.635
 74
     0
  0
ENDTAB
  0
TABLE
  2
LAYER
  5
2
330
0
100
AcDbSymbolTable
 70
     1
  0
LAYER
  5
10
330
2
100
AcDbSymbolTableRecord
100
AcDbLayerTableRecord
  2
0
 70
     0
 62
     7
  6
Continuous
370
    -3
390
F
  0
ENDTAB
  0
TABLE
  2
STYLE
  5
3
330
0
100
AcDbSymbolTable
 70
     1
  0
STYLE
  5
11
330
3
100
AcDbSymbolTableRecord
100
AcDbTextStyleTableRecord
  2
Standard
 70
     0
 40
0.0
 41
1.0
 50
0.0
 71
     0
 42
4.0
  3
txt
  4

  0
ENDTAB
  0
TABLE
  2
VIEW
  5
6
330
0
100
AcDbSymbolTable
 70
     0
  0
ENDTAB
  0
TABLE
  2
UCS
  5
7
330
0
100
AcDbSymbolTable
 70
     0
  0
ENDTAB
  0
TABLE
  2
APPID
  5
9
330
0
100
AcDbSymbolTable
 70
     1
  0
APPID
  5
12
330
9
100
AcDbSymbolTableRecord
100
AcDbRegAppTableRecord
  2
ACAD
 70
     0
  0
ENDTAB
  0
TABLE
  2
DIMSTYLE
  5
A
330
0
100
AcDbSymbolTable
 70
     1
100
AcDbDimStyleTable
  0
DIMSTYLE
105
27
330
A
100
AcDbSymbolTableRecord
100
AcDbDimStyleTableRecord
  2
ISO-25
 70
     0
 41
2.5
 42
0.625
 43
3.75
 44
1.25
 73
     0
 74
     0
 77
     1
 78
     8
140
2.5
141
2.5
143
0.0393700787
147
0.625
171
     3
172
     1
178
     0
271
     2
272
     2
274
     3
278
    44
283
     0
284
     8
340
11
  0
ENDTAB
  0
TABLE
  2
BLOCK_RECORD
  5
1
330
0
100
AcDbSymbolTable
 70
     1
  0
BLOCK_RECORD
  5
1F
330
1
100
AcDbSymbolTableRecord
100
AcDbBlockTableRecord
  2
*Model_Space
340
22
  0
BLOCK_RECORD
  5
1B
330
1
100
AcDbSymbolTableRecord
100
AcDbBlockTableRecord
  2
*Paper_Space
340
1E
  0
BLOCK_RECORD
  5
23
330
1
100
AcDbSymbolTableRecord
100
AcDbBlockTableRecord
  2
*Paper_Space0
340
26
  0
ENDTAB
  0
ENDSEC
  0
SECTION
  2
BLOCKS
  0
BLOCK
  5
20
330
1F
100
AcDbEntity
  8
0
100
AcDbBlockBegin
  2
*Model_Space
 70
     0
 10
0.0
 20
0.0
 30
0.0
  3
*Model_Space
  1

  0
ENDBLK
  5
21
330
1F
100
AcDbEntity
  8
0
100
AcDbBlockEnd
  0
BLOCK
  5
1C
330
1B
100
AcDbEntity
 67
     1
  8
0
100
AcDbBlockBegin
  2
*Paper_Space
 70
     0
 10
0.0
 20
0.0
 30
0.0
  3
*Paper_Space
  1

  0
ENDBLK
  5
1D
330
1B
100
AcDbEntity
 67
     1
  8
0
100
AcDbBlockEnd
  0
BLOCK
  5
24
330
23
100
AcDbEntity
  8
0
100
AcDbBlockBegin
  2
*Paper_Space0
 70
     0
 10
0.0
 20
0.0
 30
0.0
  3
*Paper_Space0
  1

  0
ENDBLK
  5
25
330
23
100
AcDbEntity
  8
0
100
AcDbBlockEnd
  0
ENDSEC
  0
SECTION
  2
ENTITIES
  0
SPLINE
  5
44
330
1F
100
AcDbEntity
  8
0
  6
Continuous
 62
     7
370
    15
100
AcDbSpline
210
0.0
220
0.0
230
1.0
 70
     8
 71
     3
 72
    31
 73
    27
 74
     0
 42
0.00000001
 43
0.00000001
 12
1.0
 22
0.0
 32
0.0
 13
1.0
 23
0.0
 33
0.0
 40
0.0
 40
0.0
 40
0.0
 40
0.0
 40
0.0524090873856007
 40
0.1026983221532904
 40
0.1514279672376032
 40
0.199592816480697
 40
0.2472247802437616
 40
0.2954960320817193
 40
0.3447701203765959
 40
0.3959133262698091
 40
0.422465534078465
 40
0.4502083595166742
 40
0.4790082724968172
 40
0.5089694303421395
 40
0.5405736681026462
 40
0.5736803336909938
 40
0.608384669260842
 40
0.6445548787253542
 40
0.6824623283749546
 40
0.7222194592881616
 40
0.7638231652842267
 40
0.807353317562668
 40
0.8525223229992446
 40
0.8996752531256795
 40
0.9488233660788431
 40
1.0
 40
1.0
 40
1.0
 40
1.0
 10
400.673076923077
 20
104.8076923076923
 30
0.0
 10
400.4934906911011
 20
104.8128598386526
 30
0.0
 10
400.1415821648173
 20
104.8229858833095
 30
0.0
 10
399.6277804618678
 20
104.903257926728
 30
0.0
 10
399.1393883613697
 20
105.0318532423446
 30
0.0
 10
398.6781591808916
 20
105.2154530673661
 30
0.0
 10
398.2447528575071
 20
105.4533849702474
 30
0.0
 10
397.835783451273
 20
105.7385997057642
 30
0.0
 10
397.4601484733124
 20
106.0840118773555
 30
0.0
 10
397.1660672751464
 20
106.4055715531548
 30
0.0
 10
396.9509165838689
 20
106.6961243669365
 30
0.0
 10
396.7991721451488
 20
106.9370611558031
 30
0.0
 10
396.6525273171636
 20
107.1948731372414
 30
0.0
 10
396.5259552033385
 20
107.4776208058158
 30
0.0
 10
396.4010805669541
 20
107.7769413354958
 30
0.0
 10
396.2904808806134
 20
108.099285493493
 30
0.0
 10
396.1929033059222
 20
108.4418814348103
 30
0.0
 10
396.1012841711498
 20
108.8031647645116
 30
0.0
 10
396.0248873115859
 20
109.1856240238478
 30
0.0
 10
395.9546134144631
 20
109.5881305580731
 30
0.0
 10
395.8992337934937
 20
110.0123961248088
 30
0.0
 10
395.8501340539347
 20
110.4560576221048
 30
0.0
 10
395.8155650269509
 20
110.9201623599716
 30
0.0
 10
395.7874905663402
 20
111.4039508561236
 30
0.0
 10
395.773413159726
 20
111.9089716989945
 30
0.0
 10
395.7706435660394
 20
112.2525976561528
 30
0.0
 10
395.7692307692308
 20
112.4278846153847
 30
0.0
  0
SPLINE
  5
45
330
1F
100
AcDbEntity
  8
0
  6
Continuous
 62
     7
370
    15
100
AcDbSpline
210
0.0
220
0.0
230
1.0
 70
     8
 71
     3
 72
    15
 73
    11
 74
     0
 42
0.00000001
 43
0.00000001
 12
1.0
 22
0.0
 32
0.0
 13
1.0
 23
0.0
 33
0.0
 40
0.0
 40
0.0
 40
0.0
 40
0.0
 40
0.1239539590100968
 40
0.2446910970343217
 40
0.3639282123713528
 40
0.4834467610619753
 40
0.6060135407011129
 40
0.7313153882149244
 40
0.8627627448661773
 40
1.0
 40
1.0
 40
1.0
 40
1.0
 10
404.0925480769231
 20
106.3311298076923
 30
0.0
 10
403.9882338361445
 20
106.2091958934568
 30
0.0
 10
403.7823124907009
 20
105.9684924622936
 30
0.0
 10
403.4263665657234
 20
105.65819233216
 30
0.0
 10
403.0426342827325
 20
105.3939824953379
 30
0.0
 10
402.6261606680031
 20
105.1797299189081
 30
0.0
 10
402.1810777649569
 20
105.0102303400472
 30
0.0
 10
401.7033879723364
 20
104.8949433354253
 30
0.0
 10
401.1982564385382
 20
104.8205225898478
 30
0.0
 10
400.8506337413422
 20
104.8120300703238
 30
0.0
 10
400.673076923077
 20
104.8076923076923
 30
0.0
  0
SPLINE
  5
46
330
1F
100
AcDbEntity
  8
0
  6
Continuous
 62
     7
370
    15
100
AcDbSpline
210
0.0
220
0.0
230
1.0
 70
     8
 71
     3
 72
    23
 73
    19
 74
     0
 42
0.00000001
 43
0.00000001
 12
1.0
 22
0.0
 32
0.0
 13
1.0
 23
0.0
 33
0.0
 40
0.0
 40
0.0
 40
0.0
 40
0.0
 40
0.081774197655007
 40
0.1602856044887694
 40
0.2360294122889206
 40
0.3091179242207138
 40
0.3795303287483518
 40
0.4473768333769211
 40
0.5123574098506742
 40
0.5747492166038553
 40
0.6349413611576089
 40
0.6929409366900141
 40
0.7487078215596595
 40
0.8027019362432201
 40
0.8542794711661318
 40
0.9042287096499334
 40
0.9527348360365508
 40
1.0
 40
1.0
 40
1.0
 40
1.0
 10
405.5769230769231
 20
112.3978365384616
 30
0.0
 10
405.5759284453988
 20
112.2245362991171
 30
0.0
 10
405.573978868152
 20
111.8848505006875
 30
0.0
 10
405.5539898545069
 20
111.3850346851869
 30
0.0
 10
405.5297818826361
 20
110.9037977858402
 30
0.0
 10
405.4856320800482
 20
110.4411857300461
 30
0.0
 10
405.4355831781024
 20
109.9961344610164
 30
0.0
 10
405.3745136878088
 20
109.5695982209501
 30
0.0
 10
405.2929768432546
 20
109.1639469517372
 30
0.0
 10
405.2122083201079
 20
108.7746884998172
 30
0.0
 10
405.112100939392
 20
108.4050938160271
 30
0.0
 10
405.0002736863891
 20
108.0538020582234
 30
0.0
 10
404.8819730870572
 20
107.7183537971301
 30
0.0
 10
404.7458793470787
 20
107.4044995482628
 30
0.0
 10
404.6019970113643
 20
107.1078352759324
 30
0.0
 10
404.44524231982
 20
106.8310357495448
 30
0.0
 10
404.2778764924138
 20
106.571131711423
 30
0.0
 10
404.1537882550811
 20
106.4104363689869
 30
0.0
 10
404.0925480769231
 20
106.3311298076923
 30
0.0
  0
SPLINE
  5
47
330
1F
100
AcDbEntity
  8
0
  6
Continuous
 62
     7
370
    15
100
AcDbSpline
210
0.0
220
0.0
230
1.0
 70
     8
 71
     3
 72
    23
 73
    19
 74
     0
 42
0.00000001
 43
0.00000001
 12
1.0
 22
0.0
 32
0.0
 13
1.0
 23
0.0
 33
0.0
 40
0.0
 40
0.0
 40
0.0
 40
0.0
 40
0.0466726066463378
 40
0.0952506114606183
 40
0.1448623308943122
 40
0.1963098397204802
 40
0.2497630016680539
 40
0.3057747701480915
 40
0.3632670724145934
 40
0.4235484122315147
 40
0.4860326738002557
 40
0.5514871797432994
 40
0.6194342221892237
 40
0.6899509667931072
 40
0.7631477843701738
 40
0.8390038325452136
 40
0.9181046258836107
 40
0.9999999999999999
 40
0.9999999999999999
 40
0.9999999999999999
 40
0.9999999999999999
 10
404.1045673076924
 20
118.4585336538462
 30
0.0
 10
404.1647876978735
 20
118.380206482395
 30
0.0
 10
404.2876869614739
 20
118.2203544511759
 30
0.0
 10
404.4532046436249
 20
117.9620512267026
 30
0.0
 10
404.6123273760059
 20
117.68804848156
 30
0.0
 10
404.7512259893139
 20
117.3917508703928
 30
0.0
 10
404.8842274333925
 20
117.0783001384548
 30
0.0
 10
405.0074819518599
 20
116.7469820731707
 30
0.0
 10
405.1145000103807
 20
116.3950592069964
 30
0.0
 10
405.215197744598
 20
116.0270314831645
 30
0.0
 10
405.2972571605808
 20
115.6371511970575
 30
0.0
 10
405.3730876523347
 20
115.2296273446485
 30
0.0
 10
405.4359545413147
 20
114.8026124347628
 30
0.0
 10
405.4855287928452
 20
114.3574726747239
 30
0.0
 10
405.5298035088804
 20
113.894885325918
 30
0.0
 10
405.5540639096822
 20
113.4126429698841
 30
0.0
 10
405.5739280075716
 20
112.9118224101125
 30
0.0
 10
405.5759132339148
 20
112.5711363782877
 30
0.0
 10
405.5769230769231
 20
112.3978365384616
 30
0.0
  0
SPLINE
  5
48
330
1F
100
AcDbEntity
  8
0
  6
Continuous
 62
     7
370
    15
100
AcDbSpline
210
0.0
220
0.0
230
1.0
 70
     8
 71
     3
 72
    15
 73
    11
 74
     0
 42
0.00000001
 43
0.00000001
 12
1.0
 22
0.0
 32
0.0
 13
1.0
 23
0.0
 33
0.0
 40
0.0
 40
0.0
 40
0.0
 40
0.0
 40
0.1373230954754149
 40
0.2673523260794567
 40
0.3929646164629456
 40
0.514920444987024
 40
0.6341998202965401
 40
0.7543524309255328
 40
0.8755754919798928
 40
0.9999999999999999
 40
0.9999999999999999
 40
0.9999999999999999
 40
0.9999999999999999
 10
400.673076923077
 20
120.0
 30
0.0
 10
400.8516268990862
 20
119.9956934905999
 30
0.0
 10
401.1992432358884
 20
119.9873092104361
 30
0.0
 10
401.70575851508
 20
119.9130396618467
 30
0.0
 10
402.1826678584513
 20
119.7939525825742
 30
0.0
 10
402.6299362686356
 20
119.6256145562206
 30
0.0
 10
403.0471447301373
 20
119.4070179017897
 30
0.0
 10
403.4315142132648
 20
119.1372284637029
 30
0.0
 10
403.7914437121386
 20
118.8243334601921
 30
0.0
 10
403.9992898449015
 20
118.5815217519912
 30
0.0
 10
404.1045673076923
 20
118.4585336538462
 30
0.0
  0
SPLINE
  5
49
330
1F
100
AcDbEntity
  8
0
  6
Continuous
 62
     7
370
    15
100
AcDbSpline
210
0.0
220
0.0
230
1.0
 70
     8
 71
     3
 72
    15
 73
    11
 74
     0
 42
0.00000001
 43
0.00000001
 12
1.0
 22
0.0
 32
0.0
 13
1.0
 23
0.0
 33
0.0
 40
0.0
 40
0.0
 40
0.0
 40
0.0
 40
0.1239584095619949
 40
0.2446998826385471
 40
0.3639412791697724
 40
0.4841523681816995
 40
0.6059993946649774
 40
0.731305741126445
 40
0.8627578173791423
 40
1.0
 40
1.0
 40
1.0
 40
1.0
 10
397.2536057692308
 20
118.4765625
 30
0.0
 10
397.3579142732564
 20
118.5985081442683
 30
0.0
 10
397.5638242940726
 20
118.839234731082
 30
0.0
 10
397.9198531231213
 20
119.1493653459062
 30
0.0
 10
398.3040096582559
 20
119.4147156272481
 30
0.0
 10
398.7217021107355
 20
119.6264037008333
 30
0.0
 10
399.1657646978192
 20
119.7982270422084
 30
0.0
 10
399.6428293424103
 20
119.9125940776191
 30
0.0
 10
400.147880392539
 20
119.987211243018
 30
0.0
 10
400.4955143522208
 20
119.9956762765256
 30
0.0
 10
400.673076923077
 20
120.0
 30
0.0
  0
SPLINE
  5
4A
330
1F
100
AcDbEntity
  8
0
  6
Continuous
 62
     7
370
    15
100
AcDbSpline
210
0.0
220
0.0
230
1.0
 70
     8
 71
     3
 72
    23
 73
    19
 74
     0
 42
0.00000001
 43
0.00000001
 12
1.0
 22
0.0
 32
0.0
 13
1.0
 23
0.0
 33
0.0
 40
0.0
 40
0.0
 40
0.0
 40
0.0
 40
0.0815293207370417
 40
0.1597869902075432
 40
0.2357429724720377
 40
0.3085642043478952
 40
0.3791738489489818
 40
0.4467415655470536
 40
0.5119041663922566
 40
0.574572994986333
 40
0.634354082343383
 40
0.6925161269835364
 40
0.7484392267210234
 40
0.8021492625368233
 40
0.8538712770701797
 40
0.9039604339608819
 40
0.9526024362914508
 40
1.0
 40
1.0
 40
1.0
 40
1.0
 10
395.7692307692308
 20
112.4278846153847
 30
0.0
 10
395.7702174585419
 20
112.6001839330333
 30
0.0
 10
395.7721512427791
 20
112.937868451106
 30
0.0
 10
395.7922860243018
 20
113.4356713922985
 30
0.0
 10
395.8161740848946
 20
113.9149322141306
 30
0.0
 10
395.8608044299037
 20
114.376489760573
 30
0.0
 10
395.9101513626986
 20
114.8196406175481
 30
0.0
 10
395.9723523730356
 20
115.2449690409393
 30
0.0
 10
396.0518619622229
 20
115.6502744566943
 30
0.0
 10
396.1384306932395
 20
116.0371745142611
 30
0.0
 10
396.2333906735342
 20
116.4070394083708
 30
0.0
 10
396.3462575022091
 20
116.7567774791436
 30
0.0
 10
396.4633757058818
 20
117.0916783346135
 30
0.0
 10
396.6010600983641
 20
117.4038584823176
 30
0.0
 10
396.7440590813802
 20
117.6998983679337
 30
0.0
 10
396.9009364326946
 20
117.9766460262013
 30
0.0
 10
397.0682713868142
 20
118.236563119454
 30
0.0
 10
397.1923636193534
 20
118.3972567724701
 30
0.0
 10
397.2536057692308
 20
118.4765625
 30
0.0
  0
SPLINE
  5
4B
330
1F
100
AcDbEntity
  8
0
  6
Continuous
 62
     7
370
    15
100
AcDbSpline
210
0.0
220
0.0
230
1.0
 70
     8
 71
     3
 72
    23
 73
    19
 74
     0
 42
0.00000001
 43
0.00000001
 12
1.0
 22
0.0
 32
0.0
 13
1.0
 23
0.0
 33
0.0
 40
0.0
 40
0.0
 40
0.0
 40
0.0
 40
0.0534282928165019
 40
0.1047665906471966
 40
0.1549900948249439
 40
0.2045909534925098
 40
0.2542004774278132
 40
0.3046451619956855
 40
0.3567538328657481
 40
0.4105189630472817
 40
0.4670647379806889
 40
0.5272751162564865
 40
0.5917399516749555
 40
0.6614170385233468
 40
0.7365739223556927
 40
0.817931497604647
 40
0.9055660786144746
 40
1.0
 40
1.0
 40
1.0
 40
1.0
 10
299.7085336538462
 20
120.0000000000001
 30
0.0
 10
299.8911142848452
 20
119.9949551467832
 30
0.0
 10
300.249133402051
 20
119.9850627836926
 30
0.0
 10
300.7738502521208
 20
119.9026875999969
 30
0.0
 10
301.271722782336
 20
119.7625350469489
 30
0.0
 10
301.7476980573102
 20
119.5745928246968
 30
0.0
 10
302.1949154750261
 20
119.3242078838402
 30
0.0
 10
302.6191932044081
 20
119.0220160510127
 30
0.0
 10
303.0148624959249
 20
118.6618479002217
 30
0.0
 10
303.3888507788224
 20
118.2508360103607
 30
0.0
 10
303.7291173970295
 20
117.7759147904985
 30
0.0
 10
304.0188209362388
 20
117.2270289981473
 30
0.0
 10
304.2652456396507
 20
116.6093758482473
 30
0.0
 10
304.4641511070313
 20
115.9216289067944
 30
0.0
 10
304.6195724097348
 20
115.1639645085706
 30
0.0
 10
304.7268423246967
 20
114.3363972252923
 30
0.0
 10
304.7986210274452
 20
113.4387631155213
 30
0.0
 10
304.8045941917554
 20
112.816658781433
 30
0.0
 10
304.8076923076924
 20
112.4939903846154
 30
0.0
  0
SPLINE
  5
4C
330
1F
100
AcDbEntity
  8
0
  6
Continuous
 62
     7
370
    15
100
AcDbSpline
210
0.0
220
0.0
230
1.0
 70
     8
 71
     3
 72
    23
 73
    19
 74
     0
 42
0.00000001
 43
0.00000001
 12
1.0
 22
0.0
 32
0.0
 13
1.0
 23
0.0
 33
0.0
 40
0.0
 40
0.0
 40
0.0
 40
0.0
 40
0.0702401062491082
 40
0.1377810383236608
 40
0.2022781382994817
 40
0.2652493801263753
 40
0.3267062120892937
 40
0.3874492857403316
 40
0.4479538536530184
 40
0.5093841167997307
 40
0.5704959252253948
 40
0.6305089817313857
 40
0.6895451741904788
 40
0.7490025483064408
 40
0.8093527413258407
 40
0.8708550931277478
 40
0.9340936515016331
 40
0.9999999999999999
 40
0.9999999999999999
 40
0.9999999999999999
 40
0.9999999999999999
 10
295.0000000000001
 20
115.1171875
 30
0.0
 10
295.0037990289828
 20
115.2956835911176
 30
0.0
 10
295.0112510985454
 20
115.6458165576548
 30
0.0
 10
295.0766281075519
 20
116.1562783426663
 30
0.0
 10
295.1764728997933
 20
116.642193058123
 30
0.0
 10
295.3255589786672
 20
117.0992546649784
 30
0.0
 10
295.5110750161086
 20
117.5323720320235
 30
0.0
 10
295.7416558948965
 20
117.9361135563158
 30
0.0
 10
296.009663039559
 20
118.3160948620526
 30
0.0
 10
296.322841193627
 20
118.661016886182
 30
0.0
 10
296.6632713492102
 20
118.9767594687959
 30
0.0
 10
297.0305138227696
 20
119.2515259509327
 30
0.0
 10
297.4224380919202
 20
119.4811527264884
 30
0.0
 10
297.8355719231527
 20
119.6719808019188
 30
0.0
 10
298.273014512002
 20
119.8189463805859
 30
0.0
 10
298.7319700806115
 20
119.9236769131907
 30
0.0
 10
299.2128849270597
 20
119.9886153360575
 30
0.0
 10
299.5410576862689
 20
119.9961532078946
 30
0.0
 10
299.7085336538462
 20
120.0
 30
0.0
  0
SPLINE
  5
4D
330
1F
100
AcDbEntity
  8
0
  6
Continuous
 62
     7
370
    15
100
AcDbSpline
210
0.0
220
0.0
230
1.0
 70
     8
 71
     3
 72
    23
 73
    19
 74
     0
 42
0.00000001
 43
0.00000001
 12
1.0
 22
0.0
 32
0.0
 13
1.0
 23
0.0
 33
0.0
 40
0.0
 40
0.0
 40
0.0
 40
0.0
 40
0.0612668588685778
 40
0.1209662961677017
 40
0.1793269055240351
 40
0.2378002547117236
 40
0.2962617467870112
 40
0.3558812952642915
 40
0.4167494055312129
 40
0.4795073031032392
 40
0.5429135943641854
 40
0.6052002466384
 40
0.6676813715383232
 40
0.730875470541472
 40
0.7947284631359179
 40
0.860384066169982
 40
0.9287514343155139
 40
1.0
 40
1.0
 40
1.0
 40
1.0
 10
299.4020432692309
 20
110.3846153846154
 30
0.0
 10
299.2546178216851
 20
110.3888434368818
 30
0.0
 10
298.963538587662
 20
110.3971913729781
 30
0.0
 10
298.5353189989063
 20
110.457819200281
 30
0.0
 10
298.1227281170197
 20
110.5612049422422
 30
0.0
 10
297.7251072324111
 20
110.7045729515462
 30
0.0
 10
297.3444664383834
 20
110.8945998126622
 30
0.0
 10
296.9759521296054
 20
111.1186371257327
 30
0.0
 10
296.6274722191584
 20
111.3898203345706
 30
0.0
 10
296.2939420649859
 20
111.6928336378491
 30
0.0
 10
295.9940020747914
 20
112.0339617785414
 30
0.0
 10
295.7261307494725
 20
112.3997444877033
 30
0.0
 10
295.4994575473878
 20
112.7921935888097
 30
0.0
 10
295.3166258726551
 20
113.2108919627761
 30
0.0
 10
295.1752258537263
 20
113.653174530812
 30
0.0
 10
295.0724226519768
 20
114.1186698558371
 30
0.0
 10
295.0123557837765
 20
114.6098035184697
 30
0.0
 10
295.0041748699948
 20
114.9457485853484
 30
0.0
 10
295.0000000000001
 20
115.1171875
 30
0.0
  0
SPLINE
  5
4E
330
1F
100
AcDbEntity
  8
0
  6
Continuous
 62
     7
370
    15
100
AcDbSpline
210
0.0
220
0.0
230
1.0
 70
     8
 71
     3
 72
    15
 73
    11
 74
     0
 42
0.00000001
 43
0.00000001
 12
1.0
 22
0.0
 32
0.0
 13
1.0
 23
0.0
 33
0.0
 40
0.0
 40
0.0
 40
0.0
 40
0.0
 40
0.1301900769552758
 40
0.2566886321244237
 40
0.3796569215111025
 40
0.5012233733199273
 40
0.6223956310597776
 40
0.7448946318981984
 40
0.8707157349022343
 40
0.9999999999999999
 40
0.9999999999999999
 40
0.9999999999999999
 40
0.9999999999999999
 10
302.1514423076924
 20
111.6316105769231
 30
0.0
 10
302.0591605304111
 20
111.5325633357857
 30
0.0
 10
301.8772136129941
 20
111.3372773244563
 30
0.0
 10
301.5758678952548
 20
111.0810698235867
 30
0.0
 10
301.2550123870471
 20
110.8656663092022
 30
0.0
 10
300.9162885593438
 20
110.692043498116
 30
0.0
 10
300.5632301026586
 20
110.5501930334112
 30
0.0
 10
300.1900324414254
 20
110.4568863500517
 30
0.0
 10
299.8018918855207
 20
110.3928686940421
 30
0.0
 10
299.5365269546443
 20
110.3873912738479
 30
0.0
 10
299.4020432692308
 20
110.3846153846154
 30
0.0
  0
SPLINE
  5
4F
330
1F
100
AcDbEntity
  8
0
  6
Continuous
 62
     7
370
    15
100
AcDbSpline
210
0.0
220
0.0
230
1.0
 70
     8
 71
     3
 72
    23
 73
    19
 74
     0
 42
0.00000001
 43
0.00000001
 12
1.0
 22
0.0
 32
0.0
 13
1.0
 23
0.0
 33
0.0
 40
0.0
 40
0.0
 40
0.0
 40
0.0
 40
0.0397939103511711
 40
0.0786441461908162
 40
0.1175749007403503
 40
0.1568659475868287
 40
0.1972185745122382
 40
0.2389183750035546
 40
0.2836471067761028
 40
0.3306660096206248
 40
0.3828731110497688
 40
0.443497684044183
 40
0.5126902889279831
 40
0.5905940151895247
 40
0.6783908545914189
 40
0.7757338267246143
 40
0.8827034224736395
 40
0.9999999999999999
 40
0.9999999999999999
 40
0.9999999999999999
 40
0.9999999999999999
 10
299.8948317307693
 20
107.3076923076923
 30
0.0
 10
299.9662043530915
 20
107.3093465634492
 30
0.0
 10
300.1072570642824
 20
107.3126158458703
 30
0.0
 10
300.3136000769351
 20
107.3587070760843
 30
0.0
 10
300.5132762454647
 20
107.4233238526282
 30
0.0
 10
300.7042274352886
 20
107.5178975282006
 30
0.0
 10
300.8846281564203
 20
107.6396126375236
 30
0.0
 10
301.0589517633546
 20
107.7857217412595
 30
0.0
 10
301.2218511395326
 20
107.9609088509049
 30
0.0
 10
301.3836579502839
 20
108.1619918534087
 30
0.0
 10
301.5301191622657
 20
108.4090135075166
 30
0.0
 10
301.6593794462285
 20
108.708624817912
 30
0.0
 10
301.7800664062519
 20
109.0607427179101
 30
0.0
 10
301.8792040157765
 20
109.4697462928008
 30
0.0
 10
301.9684372704757
 20
109.9321105957335
 30
0.0
 10
302.0460654597979
 20
110.4493153178617
 30
0.0
 10
302.1090463584258
 20
111.0216764816831
 30
0.0
 10
302.1368830510455
 20
111.4221521927159
 30
0.0
 10
302.1514423076924
 20
111.6316105769231
 30
0.0
  0
SPLINE
  5
50
330
1F
100
AcDbEntity
  8
0
  6
Continuous
 62
     7
370
    15
100
AcDbSpline
210
0.0
220
0.0
230
1.0
 70
     8
 71
     3
 72
    15
 73
    11
 74
     0
 42
0.00000001
 43
0.00000001
 12
1.0
 22
0.0
 32
0.0
 13
1.0
 23
0.0
 33
0.0
 40
0.0
 40
0.0
 40
0.0
 40
0.0
 40
0.1576427908297452
 40
0.297977244428474
 40
0.4243479229964998
 40
0.5399023001429718
 40
0.6512049489192234
 40
0.7608288691813652
 40
0.8758862599684812
 40
0.9999999999999999
 40
0.9999999999999999
 40
0.9999999999999999
 40
0.9999999999999999
 10
298.2692307692308
 20
109.0384615384616
 30
0.0
 10
298.2881193919692
 20
108.9003547775314
 30
0.0
 10
298.3238227674611
 20
108.6393046410658
 30
0.0
 10
298.4379878820363
 20
108.2810871054152
 30
0.0
 10
298.5810771012433
 20
107.9735986788426
 30
0.0
 10
298.7755263699484
 20
107.7261543905257
 30
0.0
 10
299.0075802931464
 20
107.5372850022419
 30
0.0
 10
299.2733550068808
 20
107.4009991561141
 30
0.0
 10
299.5739111464762
 20
107.3224946297671
 30
0.0
 10
299.7851914534946
 20
107.3127494176941
 30
0.0
 10
299.8948317307693
 20
107.3076923076923
 30
0.0
  0
SPLINE
  5
52
330
1F
100
AcDbEntity
  8
0
  6
Continuous
 62
     7
370
    15
100
AcDbSpline
210
0.0
220
0.0
230
1.0
 70
     8
 71
     3
 72
    23
 73
    19
 74
     0
 42
0.00000001
 43
0.00000001
 12
1.0
 22
0.0
 32
0.0
 13
1.0
 23
0.0
 33
0.0
 40
0.0
 40
0.0
 40
0.0
 40
0.0
 40
0.066042188683248
 40
0.1295778492903685
 40
0.1906389490435832
 40
0.2496406897267387
 40
0.30692331473211
 40
0.3634138554911048
 40
0.420189127584303
 40
0.4768918382379009
 40
0.5343976327958695
 40
0.5933314940605722
 40
0.6539640631941075
 40
0.7166316030423112
 40
0.7824465528426812
 40
0.8512634545319313
 40
0.9236441324383486
 40
1.0
 40
1.0
 40
1.0
 40
1.0
 10
299.4861778846155
 20
104.8076923076923
 30
0.0
 10
299.3478423367889
 20
104.8105392018515
 30
0.0
 10
299.0764215506952
 20
104.8161249407504
 30
0.0
 10
298.6790425518021
 20
104.8610625725246
 30
0.0
 10
298.3019797072701
 20
104.9391496415787
 30
0.0
 10
297.9464880616464
 20
105.0482022760578
 30
0.0
 10
297.6097931532279
 20
105.1823032459166
 30
0.0
 10
297.2947534897294
 20
105.3524327110592
 30
0.0
 10
297.001286986842
 20
105.5547019629514
 30
0.0
 10
296.7243965784028
 20
105.7828942703513
 30
0.0
 10
296.4752055986147
 20
106.0474072031522
 30
0.0
 10
296.2459795540607
 20
106.3394489495337
 30
0.0
 10
296.0403486578647
 20
106.6619417761119
 30
0.0
 10
295.8652189464913
 20
107.0176576405211
 30
0.0
 10
295.7035569394875
 20
107.3983444060245
 30
0.0
 10
295.5733313855828
 20
107.8124396871962
 30
0.0
 10
295.4647206791058
 20
108.2552708078143
 30
0.0
 10
295.4117887094502
 20
108.5623227554928
 30
0.0
 10
295.3846153846155
 20
108.719951923077
 30
0.0
  0
SPLINE
  5
53
330
1F
100
AcDbEntity
  8
0
  6
Continuous
 62
     7
370
    15
100
AcDbSpline
210
0.0
220
0.0
230
1.0
 70
     8
 71
     3
 72
    23
 73
    19
 74
     0
 42
0.00000001
 43
0.00000001
 12
1.0
 22
0.0
 32
0.0
 13
1.0
 23
0.0
 33
0.0
 40
0.0
 40
0.0
 40
0.0
 40
0.0
 40
0.0929684978981435
 40
0.1796190127418994
 40
0.2599307969998243
 40
0.3342928210780372
 40
0.4033594219391463
 40
0.4674866722224747
 40
0.5275080672266689
 40
0.5839739592262351
 40
0.6379088361798718
 40
0.6900487158246259
 40
0.7408323275431818
 40
0.7910762043891691
 40
0.8414806052123229
 40
0.8927076811809763
 40
0.9453694004147262
 40
1.0
 40
1.0
 40
1.0
 40
1.0
 10
304.8076923076924
 20
112.4939903846154
 30
0.0
 10
304.8032144448991
 20
112.1663300407434
 30
0.0
 10
304.7945630273514
 20
111.5332765999376
 30
0.0
 10
304.724757969815
 20
110.6193793154861
 30
0.0
 10
304.6142692948171
 20
109.7755370771227
 30
0.0
 10
304.4518210354198
 20
109.0032575988871
 30
0.0
 10
304.2479595562459
 20
108.2997639979656
 30
0.0
 10
303.9916154355644
 20
107.6677360486767
 30
0.0
 10
303.6930592430209
 20
107.1039141409708
 30
0.0
 10
303.3435596685005
 20
106.6134897933443
 30
0.0
 10
302.9593331656064
 20
106.187255846205
 30
0.0
 10
302.546363063304
 20
105.817992100115
 30
0.0
 10
302.1040573735038
 20
105.5068120521702
 30
0.0
 10
301.636254414205
 20
105.2472472055907
 30
0.0
 10
301.1359595092922
 20
105.0528698879279
 30
0.0
 10
300.6100957533663
 20
104.9120473836903
 30
0.0
 10
300.0572485553351
 20
104.8208242268731
 30
0.0
 10
299.678849394334
 20
104.8121228393652
 30
0.0
 10
299.4861778846155
 20
104.8076923076923
 30
0.0
  0
SPLINE
  5
55
330
1F
100
AcDbEntity
  8
0
  6
Continuous
 62
     7
370
    15
100
AcDbSpline
210
0.0
220
0.0
230
1.0
 70
     8
 71
     3
 72
    27
 73
    23
 74
     0
 42
0.00000001
 43
0.00000001
 12
1.0
 22
0.0
 32
0.0
 13
1.0
 23
0.0
 33
0.0
 40
0.0
 40
0.0
 40
0.0
 40
0.0
 40
0.0314272898339579
 40
0.0646054795207701
 40
0.0994393445169631
 40
0.1364563048065969
 40
0.1753519851952033
 40
0.2161008675321624
 40
0.2589775198518823
 40
0.3040074750734814
 40
0.3957568126458642
 40
0.487615630896669
 40
0.5798735059012292
 40
0.6727070790515445
 40
0.7186945783923679
 40
0.7630792377552902
 40
0.8058934434386095
 40
0.8473863361294182
 40
0.8876001486816204
 40
0.9263862120921257
 40
0.963754727860468
 40
1.0
 40
1.0
 40
1.0
 40
1.0
 10
114.8076923076923
 20
117.6923076923077
 30
0.0
 10
114.7053795668454
 20
117.5882078170014
 30
0.0
 10
114.4950539638926
 20
117.3742083790051
 30
0.0
 10
114.1937831092123
 20
117.02397701651
 30
0.0
 10
113.8880485155489
 20
116.6439145314049
 30
0.0
 10
113.58424340291
 20
116.2288995910098
 30
0.0
 10
113.2729241423833
 20
115.7854880815577
 30
0.0
 10
112.9677721176213
 20
115.3051800771771
 30
0.0
 10
112.6582796880849
 20
114.7942066111168
 30
0.0
 10
112.2416050263241
 20
114.0714336223884
 30
0.0
 10
111.7545643373241
 20
113.1272687787804
 30
0.0
 10
111.2393010538887
 20
111.9536236519968
 30
0.0
 10
110.8003203282816
 20
110.7439348052034
 30
0.0
 10
110.4997255980186
 20
109.7131907282938
 30
0.0
 10
110.2966254718908
 20
108.8870509369702
 30
0.0
 10
110.1639296781221
 20
108.282957940411
 30
0.0
 10
110.0522279798827
 20
107.6958649083229
 30
0.0
 10
109.9613587228783
 20
107.1247400393619
 30
0.0
 10
109.8935404380769
 20
106.5693227858394
 30
0.0
 10
109.8399524285545
 20
106.0315441418721
 30
0.0
 10
109.8135143617387
 20
105.5100927251023
 30
0.0
 10
109.8096131500264
 20
105.1682924433338
 30
0.0
 10
109.8076923076923
 20
105.0
 30
0.0
  0
SPLINE
  5
5A
330
1F
100
AcDbEntity
  8
0
  6
Continuous
 62
     7
370
    15
100
AcDbSpline
210
0.0
220
0.0
230
1.0
 70
     8
 71
     3
 72
    23
 73
    19
 74
     0
 42
0.00000001
 43
0.00000001
 12
1.0
 22
0.0
 32
0.0
 13
1.0
 23
0.0
 33
0.0
 40
0.0
 40
0.0
 40
0.0
 40
0.0
 40
0.0589531092367044
 40
0.1185611431738026
 40
0.1785228682718519
 40
0.239353031656895
 40
0.3010260066553677
 40
0.3637735516132121
 40
0.4273825220979526
 40
0.4923338678875937
 40
0.5574758345064431
 40
0.6219603622633539
 40
0.6858892184262928
 40
0.7492545849121954
 40
0.8122671686462051
 40
0.8750355330743765
 40
0.9375335567344819
 40
1.0
 40
1.0
 40
1.0
 40
1.0
 10
106.9230769230769
 20
105.0
 30
0.0
 10
106.9327224257355
 20
105.2555430486915
 30
0.0
 10
106.952120585332
 20
105.7694680371315
 30
0.0
 10
107.024697833313
 20
106.5408526794498
 30
0.0
 10
107.1386882070115
 20
107.3151096227459
 30
0.0
 10
107.2802719022811
 20
108.0940283195999
 30
0.0
 10
107.4671976753608
 20
108.8757125201948
 30
0.0
 10
107.6805372527229
 20
109.6630578192075
 30
0.0
 10
107.9389660726042
 20
110.4518590232073
 30
0.0
 10
108.2286578440476
 20
111.2406078993039
 30
0.0
 10
108.5484623325754
 20
112.0218159094934
 30
0.0
 10
108.8970042274237
 20
112.7857935438633
 30
0.0
 10
109.2733825131203
 20
113.5277745233752
 30
0.0
 10
109.6727024651008
 20
114.2503658052803
 30
0.0
 10
110.0996095959313
 20
114.951242764612
 30
0.0
 10
110.5544253220297
 20
115.6296443177063
 30
0.0
 10
111.0306981954051
 20
116.2904777903817
 30
0.0
 10
111.371238982492
 20
116.7122460745684
 30
0.0
 10
111.5414663461538
 20
116.923076923077
 30
0.0
  0
SPLINE
  5
5B
330
1F
100
AcDbEntity
  8
0
  6
Continuous
 62
     7
370
    15
100
AcDbSpline
210
0.0
220
0.0
230
1.0
 70
     8
 71
     3
 72
    23
 73
    19
 74
     0
 42
0.00000001
 43
0.00000001
 12
1.0
 22
0.0
 32
0.0
 13
1.0
 23
0.0
 33
0.0
 40
0.0
 40
0.0
 40
0.0
 40
0.0
 40
0.0459309663212112
 40
0.0906953690752914
 40
0.1346879139170988
 40
0.179249235571351
 40
0.2248969069580336
 40
0.2727227121900691
 40
0.3227462779247648
 40
0.375973527731867
 40
0.4331922434402993
 40
0.4950591647977308
 40
0.5628095946487078
 40
0.6364709576347568
 40
0.7169118652570409
 40
0.8040264816661912
 40
0.8984303394526727
 40
1.0
 40
1.0
 40
1.0
 40
1.0
 10
15.15523538961036
 20
104.8051948051948
 30
0.0
 10
15.00870702495766
 20
104.8102223166332
 30
0.0
 10
14.71937185140096
 20
104.8201496498019
 30
0.0
 10
14.29706566622768
 20
104.9061824284316
 30
0.0
 10
13.89221902166285
 20
105.0391554339893
 30
0.0
 10
13.51039997277692
 20
105.2351097773884
 30
0.0
 10
13.14378301168814
 20
105.480175012016
 30
0.0
 10
12.80044606592476
 20
105.7842540313173
 30
0.0
 10
12.47633538288989
 20
106.1413084156242
 30
0.0
 10
12.16935711641498
 20
106.5513904851419
 30
0.0
 10
11.88985680373852
 20
107.0258357637268
 30
0.0
 10
11.65524086219163
 20
107.5744022167091
 30
0.0
 10
11.45105447238764
 20
108.1900682855864
 30
0.0
 10
11.29054606077085
 20
108.8794173890306
 30
0.0
 10
11.15914726190415
 20
109.6373359338852
 30
0.0
 10
11.07124278088623
 20
110.46806095049
 30
0.0
 10
11.01590434524979
 20
111.3689626175297
 30
0.0
 10
11.00970600056422
 20
111.9936207182682
 30
0.0
 10
11.00649350649349
 20
112.3173701298702
 30
0.0
  0
SPLINE
  5
5C
330
1F
100
AcDbEntity
  8
0
  6
Continuous
 62
     7
370
    15
100
AcDbSpline
210
0.0
220
0.0
230
1.0
 70
     8
 71
     3
 72
    23
 73
    19
 74
     0
 42
0.00000001
 43
0.00000001
 12
1.0
 22
0.0
 32
0.0
 13
1.0
 23
0.0
 33
0.0
 40
0.0
 40
0.0
 40
0.0
 40
0.0
 40
0.0811444250475191
 40
0.1578752458553646
 40
0.2305384789397113
 40
0.3000624438300483
 40
0.3668315472998351
 40
0.4313608900190715
 40
0.49406520540577
 40
0.5554307801750485
 40
0.6149810510549937
 40
0.6723949177250487
 40
0.7276697609744144
 40
0.7814810601225299
 40
0.8349559495357338
 40
0.8888903007894792
 40
0.9437051604956815
 40
1.0
 40
1.0
 40
1.0
 40
1.0
 10
18.99350649350648
 20
109.8488230519481
 30
0.0
 10
18.98999961373116
 20
109.6569341707702
 30
0.0
 10
18.98317660024149
 20
109.2835936205707
 30
0.0
 10
18.93041630100018
 20
108.7405349746868
 30
0.0
 10
18.84705815944471
 20
108.2292028867978
 30
0.0
 10
18.72477369854436
 20
107.7498425756536
 30
0.0
 10
18.56962887528174
 20
107.3005407172454
 30
0.0
 10
18.38195031002574
 20
106.8811398624811
 30
0.0
 10
18.1555881245469
 20
106.4958559176473
 30
0.0
 10
17.89661330393724
 20
106.1464922812046
 30
0.0
 10
17.6138513993554
 20
105.8328813542576
 30
0.0
 10
17.31265837634788
 20
105.5577354350016
 30
0.0
 10
16.99453437176043
 20
105.3244662171425
 30
0.0
 10
16.66004524014336
 20
105.1333855346836
 30
0.0
 10
16.30735459932875
 20
104.9858499734468
 30
0.0
 10
15.93689292552089
 20
104.8839609465951
 30
0.0
 10
15.55133052535218
 20
104.8167546185741
 30
0.0
 10
15.28843435940061
 20
104.8090821420848
 30
0.0
 10
15.15523538961036
 20
104.8051948051948
 30
0.0
  0
SPLINE
  5
5D
330
1F
100
AcDbEntity
  8
0
  6
Continuous
 62
     7
370
    15
100
AcDbSpline
210
0.0
220
0.0
230
1.0
 70
     8
 71
     3
 72
    23
 73
    19
 74
     0
 42
0.00000001
 43
0.00000001
 12
1.0
 22
0.0
 32
0.0
 13
1.0
 23
0.0
 33
0.0
 40
0.0
 40
0.0
 40
0.0
 40
0.0
 40
0.0520266063202743
 40
0.1034030551778493
 40
0.1542517610325687
 40
0.2060144741650794
 40
0.259610705319723
 40
0.3147450565477843
 40
0.373370490052784
 40
0.4350806949639071
 40
0.4987829159137062
 40
0.5636455523878061
 40
0.6296937742547092
 40
0.6976893321013473
 40
0.7685070261768681
 40
0.8419708673374449
 40
0.9193415386299196
 40
1.0
 40
1.0
 40
1.0
 40
1.0
 10
15.47788149350648
 20
114.7402597402598
 30
0.0
 10
15.59376371719828
 20
114.7358307823204
 30
0.0
 10
15.82408002683361
 20
114.7270282135086
 30
0.0
 10
16.16382519161541
 20
114.6666380324251
 30
0.0
 10
16.48960622043383
 20
114.5565236983591
 30
0.0
 10
16.80593117962639
 20
114.4098888219791
 30
0.0
 10
17.11002002439002
 20
114.2202819038084
 30
0.0
 10
17.40292349131312
 20
113.9884978107373
 30
0.0
 10
17.68138287465398
 20
113.7133029455914
 30
0.0
 10
17.94764011749553
 20
113.4011371608404
 30
0.0
 10
18.19524138345796
 20
113.0561967058394
 30
0.0
 10
18.40631321057673
 20
112.6767369980655
 30
0.0
 10
18.59067490397021
 20
112.2733930410025
 30
0.0
 10
18.74102033610992
 20
111.8416988797413
 30
0.0
 10
18.85084163889769
 20
111.3811881949843
 30
0.0
 10
18.93290314775154
 20
110.8941480092761
 30
0.0
 10
18.98681192429611
 20
110.3806715344789
 30
0.0
 10
18.99124423243575
 20
110.0285478527146
 30
0.0
 10
18.99350649350648
 20
109.8488230519481
 30
0.0
  0
SPLINE
  5
5E
330
1F
100
AcDbEntity
  8
0
  6
Continuous
 62
     7
370
    15
100
AcDbSpline
210
0.0
220
0.0
230
1.0
 70
     8
 71
     3
 72
    15
 73
    11
 74
     0
 42
0.00000001
 43
0.00000001
 12
1.0
 22
0.0
 32
0.0
 13
1.0
 23
0.0
 33
0.0
 40
0.0
 40
0.0
 40
0.0
 40
0.0
 40
0.1434402235577475
 40
0.2780654167806342
 40
0.4044994090607613
 40
0.5259531903245958
 40
0.6435510406462036
 40
0.7604909300026027
 40
0.8788187916204727
 40
1.0
 40
1.0
 40
1.0
 40
1.0
 10
13.34415584415583
 20
113.4679383116883
 30
0.0
 10
13.41630835432087
 20
113.5688498194968
 30
0.0
 10
13.55617928670777
 20
113.7644713807349
 30
0.0
 10
13.7910387670705
 20
114.0247734801514
 30
0.0
 10
14.04032757431212
 20
114.2429085078785
 30
0.0
 10
14.29953255565178
 20
114.4248253368582
 30
0.0
 10
14.57357661866696
 20
114.5668992650011
 30
0.0
 10
14.86211646069763
 20
114.66889772419
 30
0.0
 10
15.16613397501815
 20
114.7266965947063
 30
0.0
 10
15.37314359713252
 20
114.7357029266551
 30
0.0
 10
15.47788149350646
 20
114.7402597402598
 30
0.0
  0
SPLINE
  5
5F
330
1F
100
AcDbEntity
  8
0
  6
Continuous
 62
     7
370
    15
100
AcDbSpline
210
0.0
220
0.0
230
1.0
 70
     8
 71
     3
 72
    23
 73
    19
 74
     0
 42
0.00000001
 43
0.00000001
 12
1.0
 22
0.0
 32
0.0
 13
1.0
 23
0.0
 33
0.0
 40
0.0
 40
0.0
 40
0.0
 40
0.0
 40
0.0360511350137355
 40
0.0710986199789548
 40
0.1064207428414623
 40
0.1430192623315518
 40
0.1811982950235406
 40
0.2212908914227341
 40
0.2642302684895663
 40
0.3105666706999302
 40
0.3629138449657492
 40
0.4238531277963442
 40
0.494699631159613
 40
0.5750468845678478
 40
0.6657537831081402
 40
0.7670801029792493
 40
0.8784619184413768
 40
1.0
 40
1.0
 40
1.0
 40
1.0
 10
15.17654220779219
 20
117.6623376623377
 30
0.0
 10
15.11642306005742
 20
117.6603939540164
 30
0.0
 10
14.99785845906434
 20
117.6565606494828
 30
0.0
 10
14.82488129806467
 20
117.6138889352954
 30
0.0
 10
14.65820835270409
 20
117.5501222120592
 30
0.0
 10
14.49895304839821
 20
117.4577626603353
 30
0.0
 10
14.3495754656828
 20
117.337472583638
 30
0.0
 10
14.2091607879786
 20
117.1921311580277
 30
0.0
 10
14.07421838362507
 20
117.0239305260882
 30
0.0
 10
13.94707373471141
 20
116.824914519271
 30
0.0
 10
13.82941732285536
 20
116.5860085164479
 30
0.0
 10
13.728330112943
 20
116.2961719047443
 30
0.0
 10
13.63476379545969
 20
115.9555625677472
 30
0.0
 10
13.55354933355665
 20
115.5609647104758
 30
0.0
 10
13.48548850622588
 20
115.1126742160064
 30
0.0
 10
13.42466980955959
 20
114.6113107329246
 30
0.0
 10
13.37635214905861
 20
114.057004212537
 30
0.0
 10
13.3551954521422
 20
113.6699197702175
 30
0.0
 10
13.34415584415583
 20
113.4679383116883
 30
0.0
  0
SPLINE
  5
60
330
1F
100
AcDbEntity
  8
0
  6
Continuous
 62
     7
370
    15
100
AcDbSpline
210
0.0
220
0.0
230
1.0
 70
     8
 71
     3
 72
    15
 73
    11
 74
     0
 42
0.00000001
 43
0.00000001
 12
1.0
 22
0.0
 32
0.0
 13
1.0
 23
0.0
 33
0.0
 40
0.0
 40
0.0
 40
0.0
 40
0.0
 40
0.1716554392580605
 40
0.3232824593589273
 40
0.4569349476744491
 40
0.5749662273160668
 40
0.6828952293538021
 40
0.7856673895944513
 40
0.8885090818439693
 40
1.0
 40
1.0
 40
1.0
 40
1.0
 10
16.46103896103893
 20
115.9090909090909
 30
0.0
 10
16.44565650076657
 20
116.0464995679241
 30
0.0
 10
16.41668637544263
 20
116.3052843134398
 30
0.0
 10
16.33241672338423
 20
116.6644954769713
 30
0.0
 10
16.21760527864777
 20
116.9690925365327
 30
0.0
 10
16.07570606384623
 20
117.2233854757152
 30
0.0
 10
15.89575096144016
 20
117.4211681281676
 30
0.0
 10
15.68342954797378
 20
117.5616993865735
 30
0.0
 10
15.4396684002337
 20
117.648834053044
 30
0.0
 10
15.26657923156305
 20
117.6577169714833
 30
0.0
 10
15.17654220779219
 20
117.6623376623377
 30
0.0
  0
SPLINE
  5
62
330
1F
100
AcDbEntity
  8
0
  6
Continuous
 62
     7
370
    15
100
AcDbSpline
210
0.0
220
0.0
230
1.0
 70
     8
 71
     3
 72
    23
 73
    19
 74
     0
 42
0.00000001
 43
0.00000001
 12
1.0
 22
0.0
 32
0.0
 13
1.0
 23
0.0
 33
0.0
 40
0.0
 40
0.0
 40
0.0
 40
0.0
 40
0.058658852509009
 40
0.115581950196628
 40
0.1707065134433003
 40
0.2252623724032208
 40
0.2798841532789947
 40
0.3349188816262414
 40
0.3904472535162189
 40
0.4478033324857613
 40
0.506742692344951
 40
0.5675379361185346
 40
0.6308438632786254
 40
0.6967446215622968
 40
0.7664146372404441
 40
0.8399054409015553
 40
0.9178941136628224
 40
1.0
 40
1.0
 40
1.0
 40
1.0
 10
15.39265422077921
 20
120.0
 30
0.0
 10
15.50136164997418
 20
119.9969491732492
 30
0.0
 10
15.71555978256275
 20
119.990937795759
 30
0.0
 10
16.02943635198523
 20
119.9472718656671
 30
0.0
 10
16.33067283424744
 20
119.8778971731093
 30
0.0
 10
16.61857465865324
 20
119.7768561646814
 30
0.0
 10
16.89315871729477
 20
119.6446437579956
 30
0.0
 10
17.15571449396091
 20
119.4864632053472
 30
0.0
 10
17.40458759835195
 20
119.2987721275648
 30
0.0
 10
17.6382386823041
 20
119.0819316965627
 30
0.0
 10
17.85919563900828
 20
118.8386192018808
 30
0.0
 10
18.05722876917573
 20
118.562447694514
 30
0.0
 10
18.23348803177569
 20
118.2571180322549
 30
0.0
 10
18.38835863760535
 20
117.9223993581509
 30
0.0
 10
18.526837463956
 20
117.560147952216
 30
0.0
 10
18.6365501595
 20
117.1649930285796
 30
0.0
 10
18.73259357089974
 20
116.7427099020597
 30
0.0
 10
18.77629079662676
 20
116.4492200966932
 30
0.0
 10
18.79870129870126
 20
116.2987012987013
 30
0.0
  0
SPLINE
  5
63
330
1F
100
AcDbEntity
  8
0
  6
Continuous
 62
     7
370
    15
100
AcDbSpline
210
0.0
220
0.0
230
1.0
 70
     8
 71
     3
 72
    23
 73
    19
 74
     0
 42
0.00000001
 43
0.00000001
 12
1.0
 22
0.0
 32
0.0
 13
1.0
 23
0.0
 33
0.0
 40
0.0
 40
0.0
 40
0.0
 40
0.0
 40
0.099772370851528
 40
0.1926306920502767
 40
0.2784824919625826
 40
0.3578503857728199
 40
0.4304339645385362
 40
0.4977119482966563
 40
0.5594530058677732
 40
0.6163220914463382
 40
0.6697109111659145
 40
0.7200397813160707
 40
0.7682955470611514
 40
0.8150071338222218
 40
0.8604504074611217
 40
0.9058216573986344
 40
0.9521971925409363
 40
0.9999999999999999
 40
0.9999999999999999
 40
0.9999999999999999
 40
0.9999999999999999
 10
11.00649350649349
 20
112.3173701298702
 30
0.0
 10
11.00953780917527
 20
112.6461911272727
 30
0.0
 10
11.0154154497224
 20
113.2810464058404
 30
0.0
 10
11.07311402705974
 20
114.1974342406526
 30
0.0
 10
11.16950176773299
 20
115.0427968831894
 30
0.0
 10
11.30132758306865
 20
115.8157249303455
 30
0.0
 10
11.46956308300917
 20
116.5190975165821
 30
0.0
 10
11.68175485989889
 20
117.1496269471768
 30
0.0
 10
11.92965376020219
 20
117.7109008692235
 30
0.0
 10
12.21729173257918
 20
118.2011188360835
 30
0.0
 10
12.54084234393574
 20
118.6210433906028
 30
0.0
 10
12.87884811891993
 20
118.9915876394006
 30
0.0
 10
13.24252678317259
 20
119.3051680930689
 30
0.0
 10
13.63090591330623
 20
119.5590614619869
 30
0.0
 10
14.04030973725898
 20
119.7566367689518
 30
0.0
 10
14.47111316974573
 20
119.8971497374036
 30
0.0
 10
14.92433906875232
 20
119.9857027365655
 30
0.0
 10
15.23497991659886
 20
119.9951863375465
 30
0.0
 10
15.39265422077921
 20
120.0
 30
0.0
  0
SPLINE
  5
64
330
1F
100
AcDbEntity
  8
0
  6
Continuous
 62
     7
370
    15
100
AcDbSpline
210
0.0
220
0.0
230
1.0
 70
     8
 71
     3
 72
    15
 73
    11
 74
     0
 42
0.00000001
 43
0.00000001
 12
1.0
 22
0.0
 32
0.0
 13
1.0
 23
0.0
 33
0.0
 40
0.0
 40
0.0
 40
0.0
 40
0.0
 40
0.1378250445885035
 40
0.269592783024251
 40
0.3978336502208065
 40
0.5216191754872626
 40
0.6434058357868958
 40
0.7629099350561935
 40
0.8811660440548124
 40
1.0
 40
1.0
 40
1.0
 40
1.0
 10
204.9849759615385
 20
104.8076923076923
 30
0.0
 10
204.8186034981574
 20
104.8115359679147
 30
0.0
 10
204.4931705149475
 20
104.8190543624084
 30
0.0
 10
204.0147372915798
 20
104.8668371484856
 30
0.0
 10
203.5584891808167
 20
104.9505059972248
 30
0.0
 10
203.1226692515086
 20
105.0689793133067
 30
0.0
 10
202.7067265856575
 20
105.2169067962605
 30
0.0
 10
202.3158347650185
 20
105.4066318281841
 30
0.0
 10
201.9413845923347
 20
105.6207321614415
 30
0.0
 10
201.7130188535209
 20
105.7937092937374
 30
0.0
 10
201.5985576923077
 20
105.8804086538462
 30
0.0
  0
SPLINE
  5
65
330
1F
100
AcDbEntity
  8
0
  6
Continuous
 62
     7
370
    15
100
AcDbSpline
210
0.0
220
0.0
230
1.0
 70
     8
 71
     3
 72
    23
 73
    19
 74
     0
 42
0.00000001
 43
0.00000001
 12
1.0
 22
0.0
 32
0.0
 13
1.0
 23
0.0
 33
0.0
 40
0.0
 40
0.0
 40
0.0
 40
0.0
 40
0.0668544831936687
 40
0.1313598400113226
 40
0.1933762637624016
 40
0.2537274522063267
 40
0.313353952136105
 40
0.3725413800430925
 40
0.4319434273160822
 40
0.4924424313617357
 40
0.552998894325927
 40
0.6131309643207257
 40
0.6732985147301088
 40
0.7343813225636241
 40
0.7972597157665736
 40
0.8619070579816478
 40
0.9295700761763762
 40
1.0
 40
1.0
 40
1.0
 40
1.0
 10
209.8076923076923
 20
109.4771634615385
 30
0.0
 10
209.8034139455374
 20
109.3087418115958
 30
0.0
 10
209.795007553904
 20
108.977816495386
 30
0.0
 10
209.7360370521173
 20
108.4932564577719
 30
0.0
 10
209.6295258423404
 20
108.0338680485327
 30
0.0
 10
209.484205782787
 20
107.5984973925755
 30
0.0
 10
209.3029975681956
 20
107.1840283499537
 30
0.0
 10
209.0710339045866
 20
106.7984805809242
 30
0.0
 10
208.8027206643379
 20
106.4349300589459
 30
0.0
 10
208.4938037058273
 20
106.1001846186175
 30
0.0
 10
208.1517543346521
 20
105.7969126979563
 30
0.0
 10
207.7810487782409
 20
105.5303927616564
 30
0.0
 10
207.3810273706335
 20
105.3078467893986
 30
0.0
 10
206.9549790172761
 20
105.1222334422089
 30
0.0
 10
206.4997415173363
 20
104.983287291847
 30
0.0
 10
206.0185022783278
 20
104.8797558307752
 30
0.0
 10
205.510313330051
 20
104.8201439308303
 30
0.0
 10
205.1624119980933
 20
104.8118979225804
 30
0.0
 10
204.9849759615385
 20
104.8076923076923
 30
0.0
  0
SPLINE
  5
66
330
1F
100
AcDbEntity
  8
0
  6
Continuous
 62
     7
370
    15
100
AcDbSpline
210
0.0
220
0.0
230
1.0
 70
     8
 71
     3
 72
    23
 73
    19
 74
     0
 42
0.00000001
 43
0.00000001
 12
1.0
 22
0.0
 32
0.0
 13
1.0
 23
0.0
 33
0.0
 40
0.0
 40
0.0
 40
0.0
 40
0.0
 40
0.0696652338645572
 40
0.136700853700299
 40
0.2019858007489297
 40
0.2654873028118535
 40
0.3277977822476782
 40
0.3890001484141338
 40
0.4494134412450138
 40
0.5103711257464475
 40
0.5703990966333327
 40
0.6307146596194237
 40
0.6900042834164052
 40
0.7502937583550022
 40
0.8105277586763463
 40
0.8722866668268923
 40
0.935378076622117
 40
1.0
 40
1.0
 40
1.0
 40
1.0
 10
207.2355769230769
 20
113.1550480769231
 30
0.0
 10
207.3384084892262
 20
113.1124575738617
 30
0.0
 10
207.5401900967821
 20
113.0288842072764
 30
0.0
 10
207.8269344401276
 20
112.8801375489426
 30
0.0
 10
208.093997888517
 20
112.7172056146819
 30
0.0
 10
208.3460813906512
 20
112.5444602709457
 30
0.0
 10
208.5735153602279
 20
112.350192370596
 30
0.0
 10
208.7846336635478
 20
112.1457542199057
 30
0.0
 10
208.9794597355234
 20
111.9283011001192
 30
0.0
 10
209.1518094840346
 20
111.6949474562226
 30
0.0
 10
209.3060419827351
 20
111.4496493474184
 30
0.0
 10
209.4413811697887
 20
111.1962823870121
 30
0.0
 10
209.5529453682999
 20
110.9311514699483
 30
0.0
 10
209.6458246740361
 20
110.65920024367
 30
0.0
 10
209.7192756390454
 20
110.3770867700678
 30
0.0
 10
209.7682286809229
 20
110.0854026545218
 30
0.0
 10
209.8043799162722
 20
109.7845508480911
 30
0.0
 10
209.8065793910675
 20
109.580441271844
 30
0.0
 10
209.8076923076923
 20
109.4771634615385
 30
0.0
  0
SPLINE
  5
67
330
1F
100
AcDbEntity
  8
0
  6
Continuous
 62
     7
370
    15
100
AcDbSpline
210
0.0
220
0.0
230
1.0
 70
     8
 71
     3
 72
    15
 73
    11
 74
     0
 42
0.00000001
 43
0.00000001
 12
1.0
 22
0.0
 32
0.0
 13
1.0
 23
0.0
 33
0.0
 40
0.0
 40
0.0
 40
0.0
 40
0.0
 40
0.1252106833553462
 40
0.246389955264012
 40
0.3655558098681931
 40
0.4870965159204531
 40
0.6099111469796656
 40
0.7346825965243384
 40
0.8640550606143131
 40
1.0
 40
1.0
 40
1.0
 40
1.0
 10
209.4230769230769
 20
116.2019230769231
 30
0.0
 10
209.4164960976353
 20
116.0350155241008
 30
0.0
 10
209.4035463297504
 20
115.706574345033
 30
0.0
 10
209.2906016863999
 20
115.2303402723863
 30
0.0
 10
209.1128462115094
 20
114.7805240746276
 30
0.0
 10
208.8575705659082
 20
114.3668018502431
 30
0.0
 10
208.5415333878317
 20
113.9879047607306
 30
0.0
 10
208.1596691819265
 20
113.6596617610511
 30
0.0
 10
207.7245297579405
 20
113.3722475796792
 30
0.0
 10
207.4012308018436
 20
113.2286337840349
 30
0.0
 10
207.2355769230769
 20
113.1550480769231
 30
0.0
  0
SPLINE
  5
68
330
1F
100
AcDbEntity
  8
0
  6
Continuous
 62
     7
370
    15
100
AcDbSpline
210
0.0
220
0.0
230
1.0
 70
     8
 71
     3
 72
    23
 73
    19
 74
     0
 42
0.00000001
 43
0.00000001
 12
1.0
 22
0.0
 32
0.0
 13
1.0
 23
0.0
 33
0.0
 40
0.0
 40
0.0
 40
0.0
 40
0.0
 40
0.0787148275647069
 40
0.1527638138658315
 40
0.2235310598104304
 40
0.2905448652951661
 40
0.3553678643938374
 40
0.4178465416295844
 40
0.4786690804427551
 40
0.5391106634316174
 40
0.5982548859921354
 40
0.6558015514215672
 40
0.7119804085971644
 40
0.7675832446964939
 40
0.8239401076854013
 40
0.8808509972488225
 40
0.9393558415923854
 40
1.0
 40
1.0
 40
1.0
 40
1.0
 10
204.9038461538462
 20
120.0
 30
0.0
 10
205.0782232469954
 20
119.996193325276
 30
0.0
 10
205.4166411871023
 20
119.9888056174325
 30
0.0
 10
205.9102055559391
 20
119.9415731181951
 30
0.0
 10
206.37242073478
 20
119.8577324904172
 30
0.0
 10
206.806678452575
 20
119.7413827556541
 30
0.0
 10
207.2090237716359
 20
119.5867097505297
 30
0.0
 10
207.5852166158936
 20
119.4055232505938
 30
0.0
 10
207.9271471619341
 20
119.1827381222588
 30
0.0
 10
208.2381638706968
 20
118.9309174799377
 30
0.0
 10
208.5190489936067
 20
118.6556764427623
 30
0.0
 10
208.758820317366
 20
118.3561637212908
 30
0.0
 10
208.9663036645463
 20
118.0428223015977
 30
0.0
 10
209.1325907807961
 20
117.7084825596046
 30
0.0
 10
209.2614169938749
 20
117.3564803016115
 30
0.0
 10
209.3545585444333
 20
116.986998654999
 30
0.0
 10
209.4140284934516
 20
116.6004869471367
 30
0.0
 10
209.4200248915314
 20
116.3363585044166
 30
0.0
 10
209.4230769230769
 20
116.2019230769231
 30
0.0
  0
SPLINE
  5
69
330
1F
100
AcDbEntity
  8
0
  6
Continuous
 62
     7
370
    15
100
AcDbSpline
210
0.0
220
0.0
230
1.0
 70
     8
 71
     3
 72
    23
 73
    19
 74
     0
 42
0.00000001
 43
0.00000001
 12
1.0
 22
0.0
 32
0.0
 13
1.0
 23
0.0
 33
0.0
 40
0.0
 40
0.0
 40
0.0
 40
0.0
 40
0.060587570737443
 40
0.1189732116422994
 40
0.1758309970860107
 40
0.232135272922942
 40
0.2876862254603171
 40
0.3435667514711567
 40
0.4007768999061048
 40
0.4595456756563656
 40
0.5195801399238579
 40
0.5807258242999904
 40
0.6427412166730775
 40
0.7075037287835692
 40
0.7753269745895348
 40
0.8460281869098265
 40
0.9209071953251285
 40
1.0
 40
1.0
 40
1.0
 40
1.0
 10
200.3846153846154
 20
116.2019230769231
 30
0.0
 10
200.3880196298252
 20
116.3363069958574
 30
0.0
 10
200.3947044000001
 20
116.6001909283882
 30
0.0
 10
200.4491256977578
 20
116.9872938235165
 30
0.0
 10
200.5435842395651
 20
117.3564137056017
 30
0.0
 10
200.6718615986578
 20
117.7085945250811
 30
0.0
 10
200.8387656357062
 20
118.0419549835008
 30
0.0
 10
201.0425805465868
 20
118.3561711273767
 30
0.0
 10
201.279534566425
 20
118.6556366429421
 30
0.0
 10
201.5575630877758
 20
118.9306300865216
 30
0.0
 10
201.8661429544027
 20
119.1846987696794
 30
0.0
 10
202.209566086881
 20
119.4036401222467
 30
0.0
 10
202.5841552445874
 20
119.5875789353839
 30
0.0
 10
202.9877739777746
 20
119.7423667030814
 30
0.0
 10
203.4244984536172
 20
119.8567655947777
 30
0.0
 10
203.8903819754781
 20
119.9422419980571
 30
0.0
 10
204.3870853998334
 20
119.9885594389104
 30
0.0
 10
204.7284782332553
 20
119.9961175313855
 30
0.0
 10
204.9038461538462
 20
120.0
 30
0.0
  0
SPLINE
  5
6A
330
1F
100
AcDbEntity
  8
0
  6
Continuous
 62
     7
370
    15
100
AcDbSpline
210
0.0
220
0.0
230
1.0
 70
     8
 71
     3
 72
    19
 73
    15
 74
     0
 42
0.00000001
 43
0.00000001
 12
1.0
 22
0.0
 32
0.0
 13
1.0
 23
0.0
 33
0.0
 40
0.0
 40
0.0
 40
0.0
 40
0.0
 40
0.0748445853067877
 40
0.1469107447723018
 40
0.2165118234411284
 40
0.2823326684469351
 40
0.3465403327661351
 40
0.4093645297620193
 40
0.4707787155544131
 40
0.5307355663086527
 40
0.648994976664296
 40
0.7645288368638938
 40
0.8807476380811169
 40
1.0
 40
1.0
 40
1.0
 40
1.0
 10
202.5510817307693
 20
113.1550480769231
 30
0.0
 10
202.4593656816804
 20
113.1938834788176
 30
0.0
 10
202.2793383219992
 20
113.2701126113925
 30
0.0
 10
202.0237338914554
 20
113.4033869957923
 30
0.0
 10
201.7867732755055
 20
113.5455253241393
 30
0.0
 10
201.5721791453174
 20
113.7021904448873
 30
0.0
 10
201.3710596292077
 20
113.8620541337394
 30
0.0
 10
201.195324982153
 20
114.0414134876398
 30
0.0
 10
201.0345902650529
 20
114.2266743521697
 30
0.0
 10
200.851237080471
 20
114.4879646451377
 30
0.0
 10
200.6641954701462
 20
114.832870838133
 30
0.0
 10
200.5034512712797
 20
115.2711862294457
 30
0.0
 10
200.4035364478891
 20
115.7296921490229
 30
0.0
 10
200.3909763427307
 20
116.0431666101381
 30
0.0
 10
200.3846153846154
 20
116.2019230769231
 30
0.0
  0
SPLINE
  5
6B
330
1F
100
AcDbEntity
  8
0
  6
Continuous
 62
     7
370
    15
100
AcDbSpline
210
0.0
220
0.0
230
1.0
 70
     8
 71
     3
 72
    19
 73
    15
 74
     0
 42
0.00000001
 43
0.00000001
 12
1.0
 22
0.0
 32
0.0
 13
1.0
 23
0.0
 33
0.0
 40
0.0
 40
0.0
 40
0.0
 40
0.0
 40
0.1222275397197992
 40
0.2415823941005997
 40
0.3604211238518651
 40
0.4802613882638431
 40
0.5410818694598436
 40
0.601977168292985
 40
0.6642769329329823
 40
0.727555667509203
 40
0.7918663421677627
 40
0.8588587325927847
 40
0.9283231107530965
 40
1.0
 40
1.0
 40
1.0
 40
1.0
 10
200.0
 20
109.3539663461539
 30
0.0
 10
200.0075705170962
 20
109.5528228521202
 30
0.0
 10
200.0225336231923
 20
109.9458621860048
 30
0.0
 10
200.1401545929675
 20
110.5228169157938
 30
0.0
 10
200.334355211527
 20
111.0731332259371
 30
0.0
 10
200.556234977907
 20
111.5087423775525
 30
0.0
 10
200.7747566620988
 20
111.8356275959349
 30
0.0
 10
200.9627570620533
 20
112.0689421101088
 30
0.0
 10
201.1732236855679
 20
112.287664995956
 30
0.0
 10
201.4045086987877
 20
112.4928047585524
 30
0.0
 10
201.6600986065358
 20
112.6800166591444
 30
0.0
 10
201.9370569437232
 20
112.8530534029043
 30
0.0
 10
202.2333486349343
 20
113.0174714775907
 30
0.0
 10
202.4440696210964
 20
113.1087124501686
 30
0.0
 10
202.5510817307693
 20
113.1550480769231
 30
0.0
  0
SPLINE
  5
6C
330
1F
100
AcDbEntity
  8
0
  6
Continuous
 62
     7
370
    15
100
AcDbSpline
210
0.0
220
0.0
230
1.0
 70
     8
 71
     3
 72
    15
 73
    11
 74
     0
 42
0.00000001
 43
0.00000001
 12
1.0
 22
0.0
 32
0.0
 13
1.0
 23
0.0
 33
0.0
 40
0.0
 40
0.0
 40
0.0
 40
0.0
 40
0.1261687009336522
 40
0.2490639253941041
 40
0.368684889924391
 40
0.4890308293839466
 40
0.6101851070373705
 40
0.7355297117077702
 40
0.8642305085771045
 40
1.0
 40
1.0
 40
1.0
 40
1.0
 10
201.5985576923077
 20
105.8804086538462
 30
0.0
 10
201.4703498041758
 20
105.9874170491633
 30
0.0
 10
201.2172604115742
 20
106.1986574819378
 30
0.0
 10
200.8946641566294
 20
106.5661747946692
 30
0.0
 10
200.615841200837
 20
106.9574898976642
 30
0.0
 10
200.390448519325
 20
107.3798200735
 30
0.0
 10
200.2146178668683
 20
107.8329313235746
 30
0.0
 10
200.0898160735567
 20
108.3138359270979
 30
0.0
 10
200.0120040407442
 20
108.8245913153072
 30
0.0
 10
200.0040720153005
 20
109.1743915453652
 30
0.0
 10
200.0
 20
109.3539663461539
 30
0.0
  0
SPLINE
  5
6D
330
1F
100
AcDbEntity
  8
0
  6
Continuous
 62
     7
370
    15
100
AcDbSpline
210
0.0
220
0.0
230
1.0
 70
     8
 71
     3
 72
    19
 73
    15
 74
     0
 42
0.00000001
 43
0.00000001
 12
1.0
 22
0.0
 32
0.0
 13
1.0
 23
0.0
 33
0.0
 40
0.0
 40
0.0
 40
0.0
 40
0.0
 40
0.1044728014505117
 40
0.2186534455744872
 40
0.342855889024512
 40
0.4792694623690635
 40
0.5495409926991599
 40
0.6174241096395684
 40
0.6835351858950321
 40
0.7485971287880167
 40
0.8121759604466031
 40
0.8748692871861434
 40
0.9374294362357442
 40
1.0
 40
1.0
 40
1.0
 40
1.0
 10
384.9999999999999
 20
116.1538461538462
 30
0.0
 10
385.1921068505519
 20
116.2258779789954
 30
0.0
 10
385.5941715430691
 20
116.376634985041
 30
0.0
 10
386.1874838188219
 20
116.6973027791352
 30
0.0
 10
386.8067678360264
 20
117.0943218607255
 30
0.0
 10
387.3270017622655
 20
117.4837056371198
 30
0.0
 10
387.7400461133571
 20
117.829898933178
 30
0.0
 10
388.028732712971
 20
118.1081840213811
 30
0.0
 10
388.2962174466444
 20
118.3931623867734
 30
0.0
 10
388.5324460947643
 20
118.6940320870039
 30
0.0
 10
388.7436197716855
 20
119.0047101999224
 30
0.0
 10
388.9307288555435
 20
119.3246891785646
 30
0.0
 10
389.0954278609196
 20
119.654979817122
 30
0.0
 10
389.181646638547
 20
119.8849868911587
 30
0.0
 10
389.2247596153845
 20
120.0
 30
0.0
  0
SPLINE
  5
6F
330
1F
100
AcDbEntity
  8
0
  6
Continuous
 62
     7
370
    15
100
AcDbSpline
210
0.0
220
0.0
230
1.0
 70
     8
 71
     3
 72
    15
 73
    11
 74
     0
 42
0.00000001
 43
0.00000001
 12
1.0
 22
0.0
 32
0.0
 13
1.0
 23
0.0
 33
0.0
 40
0.0
 40
0.0
 40
0.0
 40
0.0
 40
0.126570909562434
 40
0.2514247494891358
 40
0.3764250499327934
 40
0.5000934709746375
 40
0.6241806899120482
 40
0.748133449553379
 40
0.873869019622216
 40
0.9999999999999999
 40
0.9999999999999999
 40
0.9999999999999999
 40
0.9999999999999999
 10
388.6538461538461
 20
115.6790865384616
 30
0.0
 10
388.5230998886823
 20
115.5463546891217
 30
0.0
 10
388.2633810711505
 20
115.282691639809
 30
0.0
 10
387.8485692056865
 20
114.9149168441535
 30
0.0
 10
387.4179312474903
 20
114.5727893160609
 30
0.0
 10
386.9672056384572
 20
114.2595586426778
 30
0.0
 10
386.5022845138081
 20
113.9707618374284
 30
0.0
 10
386.0184166429385
 20
113.7086776226899
 30
0.0
 10
385.5191092677488
 20
113.4696796910724
 30
0.0
 10
385.1732174300757
 20
113.3361169707687
 30
0.0
 10
384.9999999999999
 20
113.2692307692308
 30
0.0
  0
SPLINE
  5
AA
330
1F
100
AcDbEntity
  8
0
  6
Continuous
 62
     7
370
    15
100
AcDbSpline
210
0.0
220
0.0
230
1.0
 70
     8
 71
     3
 72
    15
 73
    11
 74
     0
 42
0.00000001
 43
0.00000001
 12
1.0
 22
0.0
 32
0.0
 13
1.0
 23
0.0
 33
0.0
 40
0.0
 40
0.0
 40
0.0
 40
0.0
 40
0.1441020100116733
 40
0.2759973636727568
 40
0.3976466033135917
 40
0.5162148299168762
 40
0.6324988206874362
 40
0.7491240398581276
 40
0.8691443994706112
 40
1.0
 40
1.0
 40
1.0
 40
1.0
 10
203.2692307692308
 20
115.9765625
 30
0.0
 10
203.2736690237217
 20
115.8468602693388
 30
0.0
 10
203.2821695750929
 20
115.5984426815336
 30
0.0
 10
203.3669748660341
 20
115.2483884410965
 30
0.0
 10
203.5073401514889
 20
114.9426182363534
 30
0.0
 10
203.7004234110028
 20
114.683396084077
 30
0.0
 10
203.945255950393
 20
114.4793188266731
 30
0.0
 10
204.2294214115326
 20
114.333156817188
 30
0.0
 10
204.5514161886151
 20
114.2473876152671
 30
0.0
 10
204.7771106628002
 20
114.236465926844
 30
0.0
 10
204.8948317307693
 20
114.2307692307693
 30
0.0
  0
SPLINE
  5
AB
330
1F
100
AcDbEntity
  8
0
  6
Continuous
 62
     7
370
    15
100
AcDbSpline
210
0.0
220
0.0
230
1.0
 70
     8
 71
     3
 72
    15
 73
    11
 74
     0
 42
0.00000001
 43
0.00000001
 12
1.0
 22
0.0
 32
0.0
 13
1.0
 23
0.0
 33
0.0
 40
0.0
 40
0.0
 40
0.0
 40
0.0
 40
0.1310086371648918
 40
0.2525834222364703
 40
0.3683626160393602
 40
0.4853615680104692
 40
0.6037384020403509
 40
0.7259757796170702
 40
0.8558397229390988
 40
1.0
 40
1.0
 40
1.0
 40
1.0
 10
204.8948317307693
 20
114.2307692307693
 30
0.0
 10
205.013603547215
 20
114.2362703195998
 30
0.0
 10
205.2425944940131
 20
114.2468763672079
 30
0.0
 10
205.5670736148371
 20
114.3357706229694
 30
0.0
 10
205.854913219243
 20
114.482669600453
 30
0.0
 10
206.1001124239301
 20
114.6893654554255
 30
0.0
 10
206.298137347247
 20
114.9488095977924
 30
0.0
 10
206.4400419684933
 20
115.255209904873
 30
0.0
 10
206.5260541959221
 20
115.6063436974193
 30
0.0
 10
206.5341843690566
 20
115.854844274651
 30
0.0
 10
206.5384615384615
 20
115.9855769230769
 30
0.0
  0
SPLINE
  5
AC
330
1F
100
AcDbEntity
  8
0
  6
Continuous
 62
     7
370
    15
100
AcDbSpline
210
0.0
220
0.0
230
1.0
 70
     8
 71
     3
 72
    15
 73
    11
 74
     0
 42
0.00000001
 43
0.00000001
 12
1.0
 22
0.0
 32
0.0
 13
1.0
 23
0.0
 33
0.0
 40
0.0
 40
0.0
 40
0.0
 40
0.0
 40
0.1400074214309607
 40
0.2677656987407733
 40
0.3896385346759663
 40
0.5102143617806368
 40
0.6285461194376405
 40
0.7463484746982557
 40
0.8678241140226173
 40
1.0
 40
1.0
 40
1.0
 40
1.0
 10
206.5384615384615
 20
115.9855769230769
 30
0.0
 10
206.5342096085708
 20
116.1093730218423
 30
0.0
 10
206.5260777469413
 20
116.3461343916933
 30
0.0
 10
206.4381997451574
 20
116.6810928143486
 30
0.0
 10
206.3004136297251
 20
116.9797562097419
 30
0.0
 10
206.102130845449
 20
117.2316881136446
 30
0.0
 10
205.864188463587
 20
117.4415472648145
 30
0.0
 10
205.5806261109437
 20
117.5857835861215
 30
0.0
 10
205.2629593612733
 20
117.6767967172449
 30
0.0
 10
205.0387229126324
 20
117.6869939773892
 30
0.0
 10
204.921875
 20
117.6923076923077
 30
0.0
  0
SPLINE
  5
AD
330
1F
100
AcDbEntity
  8
0
  6
Continuous
 62
     7
370
    15
100
AcDbSpline
210
0.0
220
0.0
230
1.0
 70
     8
 71
     3
 72
    15
 73
    11
 74
     0
 42
0.00000001
 43
0.00000001
 12
1.0
 22
0.0
 32
0.0
 13
1.0
 23
0.0
 33
0.0
 40
0.0
 40
0.0
 40
0.0
 40
0.0
 40
0.134760323682769
 40
0.2577468619485215
 40
0.3763792396179593
 40
0.4954594572251961
 40
0.6143238685719459
 40
0.7349506473054405
 40
0.8619798003283142
 40
1.0
 40
1.0
 40
1.0
 40
1.0
 10
204.921875
 20
117.6923076923077
 30
0.0
 10
204.8010843617585
 20
117.6869478703379
 30
0.0
 10
204.5700563625027
 20
117.6766965051321
 30
0.0
 10
204.2422824449087
 20
117.5871079885878
 30
0.0
 10
203.9529274202948
 20
117.4381516689804
 30
0.0
 10
203.7093391374872
 20
117.227947274457
 30
0.0
 10
203.5110518452981
 20
116.9728413759862
 30
0.0
 10
203.3680621682805
 20
116.675138096715
 30
0.0
 10
203.2822487423068
 20
116.3378789220213
 30
0.0
 10
203.2736884198589
 20
116.1002854763928
 30
0.0
 10
203.2692307692308
 20
115.9765625
 30
0.0
  0
SPLINE
  5
AE
330
1F
100
AcDbEntity
  8
0
  6
Continuous
 62
     7
370
    15
100
AcDbSpline
210
0.0
220
0.0
230
1.0
 70
     8
 71
     3
 72
    23
 73
    19
 74
     0
 42
0.00000001
 43
0.00000001
 12
1.0
 22
0.0
 32
0.0
 13
1.0
 23
0.0
 33
0.0
 40
0.0
 40
0.0
 40
0.0
 40
0.0
 40
0.0791402888703268
 40
0.1536679753815472
 40
0.2247881116543725
 40
0.2931532779537196
 40
0.3580593513672296
 40
0.4214412476421465
 40
0.4824933489160781
 40
0.5434898218401732
 40
0.6035044525186509
 40
0.6607929941529702
 40
0.7172398453985779
 40
0.7721564554531498
 40
0.8277061132014452
 40
0.8838635533477424
 40
0.9406222680232564
 40
1.0
 40
1.0
 40
1.0
 40
1.0
 10
202.8846153846154
 20
109.6274038461539
 30
0.0
 10
202.8861975370512
 20
109.5311735104774
 30
0.0
 10
202.8892696279551
 20
109.3443215155608
 30
0.0
 10
202.9173022290206
 20
109.0722568248316
 30
0.0
 10
202.9605231730738
 20
108.8153491416344
 30
0.0
 10
203.0280986444519
 20
108.5759603655227
 30
0.0
 10
203.1077438219916
 20
108.3501621089491
 30
0.0
 10
203.2110630548898
 20
108.1439955834698
 30
0.0
 10
203.328387762357
 20
107.9511042651241
 30
0.0
 10
203.4668839892262
 20
107.7776898406202
 30
0.0
 10
203.61946247475
 20
107.6234743275222
 30
0.0
 10
203.7794808482784
 20
107.4849677379406
 30
0.0
 10
203.9511505439772
 20
107.3720563960943
 30
0.0
 10
204.1304937963191
 20
107.2764465702558
 30
0.0
 10
204.3204933993188
 20
107.2044379780703
 30
0.0
 10
204.5193819535893
 20
107.1550093001113
 30
0.0
 10
204.7262363064641
 20
107.1184375621144
 30
0.0
 10
204.867618552721
 20
107.116417449621
 30
0.0
 10
204.9399038461538
 20
107.1153846153847
 30
0.0
  0
SPLINE
  5
AF
330
1F
100
AcDbEntity
  8
0
  6
Continuous
 62
     7
370
    15
100
AcDbSpline
210
0.0
220
0.0
230
1.0
 70
     8
 71
     3
 72
    23
 73
    19
 74
     0
 42
0.00000001
 43
0.00000001
 12
1.0
 22
0.0
 32
0.0
 13
1.0
 23
0.0
 33
0.0
 40
0.0
 40
0.0
 40
0.0
 40
0.0
 40
0.058894849010953
 40
0.1150065439917401
 40
0.1706694140614746
 40
0.2254687457074823
 40
0.2796130171245749
 40
0.3341668134472119
 40
0.3908859514301887
 40
0.4491475365168984
 40
0.5090121825702827
 40
0.5701382589696323
 40
0.6336732406007338
 40
0.6996041339020513
 40
0.7683163621412936
 40
0.8415581431413562
 40
0.918424425742451
 40
0.9999999999999999
 40
0.9999999999999999
 40
0.9999999999999999
 40
0.9999999999999999
 10
204.9399038461538
 20
107.1153846153847
 30
0.0
 10
205.0101283984992
 20
107.1167862419497
 30
0.0
 10
205.1472589490352
 20
107.1195232593617
 30
0.0
 10
205.3488526482042
 20
107.150801185098
 30
0.0
 10
205.5407295030643
 20
107.2024022684332
 30
0.0
 10
205.725300005558
 20
107.270172436804
 30
0.0
 10
205.8975003227357
 20
107.3623820795295
 30
0.0
 10
206.061686601969
 20
107.4718207327958
 30
0.0
 10
206.2182643053655
 20
107.6002646691321
 30
0.0
 10
206.3616405193445
 20
107.7519007966543
 30
0.0
 10
206.4952006431907
 20
107.9191694256953
 30
0.0
 10
206.6085426996521
 20
108.1080592126796
 30
0.0
 10
206.7097405591829
 20
108.3119201266752
 30
0.0
 10
206.7848233084851
 20
108.5362302392405
 30
0.0
 10
206.8512294753188
 20
108.7752083185709
 30
0.0
 10
206.8893474661209
 20
109.0335494582464
 30
0.0
 10
206.9187053666829
 20
109.3082232247659
 30
0.0
 10
206.9215911467248
 20
109.4971037144128
 30
0.0
 10
206.9230769230769
 20
109.5943509615385
 30
0.0
  0
SPLINE
  5
B0
330
1F
100
AcDbEntity
  8
0
  6
Continuous
 62
     7
370
    15
100
AcDbSpline
210
0.0
220
0.0
230
1.0
 70
     8
 71
     3
 72
    23
 73
    19
 74
     0
 42
0.00000001
 43
0.00000001
 12
1.0
 22
0.0
 32
0.0
 13
1.0
 23
0.0
 33
0.0
 40
0.0
 40
0.0
 40
0.0
 40
0.0
 40
0.0738108331002081
 40
0.1445370275377346
 40
0.2126154684030458
 40
0.2785357056299952
 40
0.3420292361891497
 40
0.4033505764014652
 40
0.465452956202611
 40
0.5271233247858598
 40
0.5878770910859564
 40
0.6464342072273409
 40
0.7046818363333536
 40
0.7621222397772743
 40
0.8195101742415845
 40
0.8778159572987376
 40
0.9374625719392667
 40
1.0
 40
1.0
 40
1.0
 40
1.0
 10
206.9230769230769
 20
109.5943509615385
 30
0.0
 10
206.9214222173961
 20
109.6795608967865
 30
0.0
 10
206.9181819580669
 20
109.8464197471766
 30
0.0
 10
206.8905689017324
 20
110.0906233950957
 30
0.0
 10
206.845768932823
 20
110.3228357435458
 30
0.0
 10
206.7834260423488
 20
110.5424791500125
 30
0.0
 10
206.7015522922691
 20
110.7471785454938
 30
0.0
 10
206.6045145433273
 20
110.9401841864825
 30
0.0
 10
206.4880253445477
 20
111.1198996461744
 30
0.0
 10
206.3518861719251
 20
111.2840775996924
 30
0.0
 10
206.2064125336563
 20
111.4343805722712
 30
0.0
 10
206.0480569460695
 20
111.5651298427004
 30
0.0
 10
205.8801450897223
 20
111.6764769473122
 30
0.0
 10
205.7017729929337
 20
111.7675137463297
 30
0.0
 10
205.5137077567318
 20
111.8361707274693
 30
0.0
 10
205.317809329234
 20
111.8879996222643
 30
0.0
 10
205.1111618464394
 20
111.9188760016298
 30
0.0
 10
204.9700577916064
 20
111.9216547017092
 30
0.0
 10
204.8978365384615
 20
111.923076923077
 30
0.0
  0
SPLINE
  5
B1
330
1F
100
AcDbEntity
  8
0
  6
Continuous
 62
     7
370
    15
100
AcDbSpline
210
0.0
220
0.0
230
1.0
 70
     8
 71
     3
 72
    19
 73
    15
 74
     0
 42
0.00000001
 43
0.00000001
 12
1.0
 22
0.0
 32
0.0
 13
1.0
 23
0.0
 33
0.0
 40
0.0
 40
0.0
 40
0.0
 40
0.0
 40
0.0720366426049832
 40
0.1394178950555384
 40
0.2039091466139898
 40
0.2661526216942827
 40
0.3266650300973772
 40
0.3873870114085743
 40
0.4488149394067029
 40
0.5113053153971104
 40
0.6368086029892523
 40
0.7577093031698179
 40
0.8785940817462912
 40
1.0
 40
1.0
 40
1.0
 40
1.0
 10
204.8978365384615
 20
111.923076923077
 30
0.0
 10
204.8156050492825
 20
111.9206397040091
 30
0.0
 10
204.65645630617
 20
111.9159227719042
 30
0.0
 10
204.4253341083217
 20
111.8832342561575
 30
0.0
 10
204.2110545405253
 20
111.8252433336739
 30
0.0
 10
204.0109890397766
 20
111.7484308995533
 30
0.0
 10
203.8281986637332
 20
111.6444906045703
 30
0.0
 10
203.6626846094001
 20
111.5169165384125
 30
0.0
 10
203.5109218180635
 20
111.3696930303282
 30
0.0
 10
203.3372837390373
 20
111.1433541181185
 30
0.0
 10
203.15588702332
 20
110.8389970722382
 30
0.0
 10
203.0027023835839
 20
110.4475980832275
 30
0.0
 10
202.9000185398328
 20
110.0433258706423
 30
0.0
 10
202.8897571267313
 20
109.7662431787479
 30
0.0
 10
202.8846153846154
 20
109.6274038461539
 30
0.0
  0
SPLINE
  5
B2
330
1F
100
AcDbEntity
  8
0
  6
Continuous
 62
     7
370
    15
100
AcDbSpline
210
0.0
220
0.0
230
1.0
 70
     8
 71
     3
 72
    19
 73
    15
 74
     0
 42
0.00000001
 43
0.00000001
 12
1.0
 22
0.0
 32
0.0
 13
1.0
 23
0.0
 33
0.0
 40
0.0
 40
0.0
 40
0.0
 40
0.0
 40
0.0781263688835345
 40
0.1518386126524775
 40
0.2214787026593687
 40
0.2883218449895905
 40
0.3535121359603153
 40
0.4164239604784981
 40
0.4789155420202555
 40
0.5411742382343309
 40
0.6613623320156016
 40
0.7750504512098734
 40
0.8860655164346456
 40
1.0
 40
1.0
 40
1.0
 40
1.0
 10
301.923076923077
 20
115.0450721153847
 30
0.0
 10
301.9220144436289
 20
115.1403416796599
 30
0.0
 10
301.9199495146212
 20
115.3254980957877
 30
0.0
 10
301.8848332453683
 20
115.5936364961461
 30
0.0
 10
301.8338821824893
 20
115.8447328052574
 30
0.0
 10
301.7664018307228
 20
116.0815725711543
 30
0.0
 10
301.6721874388855
 20
116.3002401218998
 30
0.0
 10
301.5604391795886
 20
116.5041787771071
 30
0.0
 10
301.4283954758652
 20
116.6917532196616
 30
0.0
 10
301.225122445213
 20
116.910881022404
 30
0.0
 10
300.9491969045087
 20
117.1467504929848
 30
0.0
 10
300.5795668488054
 20
117.3516283920238
 30
0.0
 10
300.1825599054347
 20
117.4793706800286
 30
0.0
 10
299.9077951486812
 20
117.4930643208507
 30
0.0
 10
299.7686298076924
 20
117.5
 30
0.0
  0
SPLINE
  5
B3
330
1F
100
AcDbEntity
  8
0
  6
Continuous
 62
     7
370
    15
100
AcDbSpline
210
0.0
220
0.0
230
1.0
 70
     8
 71
     3
 72
    19
 73
    15
 74
     0
 42
0.00000001
 43
0.00000001
 12
1.0
 22
0.0
 32
0.0
 13
1.0
 23
0.0
 33
0.0
 40
0.0
 40
0.0
 40
0.0
 40
0.0
 40
0.1164323807288873
 40
0.2266229944276429
 40
0.3348174843248023
 40
0.4447913643212237
 40
0.5014766242041406
 40
0.5605923454640762
 40
0.6217257867906717
 40
0.6868809963468862
 40
0.7575557825207272
 40
0.8323665149635312
 40
0.9136238093466021
 40
1.0
 40
1.0
 40
1.0
 40
1.0
 10
299.7686298076924
 20
117.5
 30
0.0
 10
299.6387273747416
 20
117.4941099461734
 30
0.0
 10
299.3858863853669
 20
117.4826455955591
 30
0.0
 10
299.0240156786403
 20
117.3796089943268
 30
0.0
 10
298.6961979870222
 20
117.2123774737016
 30
0.0
 10
298.457416530045
 20
117.0172794168737
 30
0.0
 10
298.2872497240375
 20
116.8311960107281
 30
0.0
 10
298.1805967831805
 20
116.6645072437318
 30
0.0
 10
298.0897834539892
 20
116.4787086728732
 30
0.0
 10
298.014596921756
 20
116.2722161717424
 30
0.0
 10
297.9552699754583
 20
116.0449178397381
 30
0.0
 10
297.9132066479794
 20
115.7956014308257
 30
0.0
 10
297.8903093527959
 20
115.5262746693669
 30
0.0
 10
297.8865516229883
 20
115.3395847742982
 30
0.0
 10
297.8846153846155
 20
115.243389423077
 30
0.0
  0
SPLINE
  5
B4
330
1F
100
AcDbEntity
  8
0
  6
Continuous
 62
     7
370
    15
100
AcDbSpline
210
0.0
220
0.0
230
1.0
 70
     8
 71
     3
 72
    19
 73
    15
 74
     0
 42
0.00000001
 43
0.00000001
 12
1.0
 22
0.0
 32
0.0
 13
1.0
 23
0.0
 33
0.0
 40
0.0
 40
0.0
 40
0.0
 40
0.0
 40
0.0833435599031569
 40
0.1610751688675243
 40
0.2344455393451873
 40
0.3025182736756344
 40
0.3670882284496896
 40
0.4290542124686967
 40
0.4882469829995991
 40
0.546062629969524
 40
0.6585067581972018
 40
0.7683766796857693
 40
0.8814040714765995
 40
1.0
 40
1.0
 40
1.0
 40
1.0
 10
297.8846153846155
 20
115.243389423077
 30
0.0
 10
297.8861649799355
 20
115.145153425399
 30
0.0
 10
297.8891598283452
 20
114.955296165483
 30
0.0
 10
297.9172530152326
 20
114.6802457771004
 30
0.0
 10
297.9593975182196
 20
114.4250380625734
 30
0.0
 10
298.0278569196645
 20
114.1916656477361
 30
0.0
 10
298.1082915285079
 20
113.9768063386233
 30
0.0
 10
298.2054215420883
 20
113.779806980641
 30
0.0
 10
298.3287667610958
 20
113.60794481303
 30
0.0
 10
298.5069447358044
 20
113.4040973425605
 30
0.0
 10
298.7676274332273
 20
113.1965942591758
 30
0.0
 10
299.1210830909148
 20
113.0156614354725
 30
0.0
 10
299.5115490396806
 20
112.9038051995382
 30
0.0
 10
299.7849122120152
 20
112.8911136965343
 30
0.0
 10
299.9248798076924
 20
112.8846153846154
 30
0.0
  0
SPLINE
  5
B5
330
1F
100
AcDbEntity
  8
0
  6
Continuous
 62
     7
370
    15
100
AcDbSpline
210
0.0
220
0.0
230
1.0
 70
     8
 71
     3
 72
    19
 73
    15
 74
     0
 42
0.00000001
 43
0.00000001
 12
1.0
 22
0.0
 32
0.0
 13
1.0
 23
0.0
 33
0.0
 40
0.0
 40
0.0
 40
0.0
 40
0.0
 40
0.1225037676873468
 40
0.2390359490643357
 40
0.3522894876948653
 40
0.469531992367855
 40
0.5290396073246321
 40
0.5892849481570258
 40
0.6504265554625364
 40
0.7140851069771487
 40
0.7801833689944068
 40
0.8493595662544252
 40
0.9221710300352416
 40
1.0
 40
1.0
 40
1.0
 40
1.0
 10
299.9248798076924
 20
112.8846153846154
 30
0.0
 10
300.06090128604
 20
112.8899451153645
 30
0.0
 10
300.3263137201533
 20
112.9003447730396
 30
0.0
 10
300.7039231533903
 20
113.0114213273664
 30
0.0
 10
301.050569947042
 20
113.1818003404238
 30
0.0
 10
301.3041812961354
 20
113.3828840098281
 30
0.0
 10
301.4854809627093
 20
113.5733410108191
 30
0.0
 10
301.6021690492013
 20
113.7369006054168
 30
0.0
 10
301.7027629375306
 20
113.9159134643124
 30
0.0
 10
301.7830965360629
 20
114.1119696424945
 30
0.0
 10
301.8462769793859
 20
114.3233664561231
 30
0.0
 10
301.8907658263276
 20
114.5497585022811
 30
0.0
 10
301.9183956865559
 20
114.7919826981131
 30
0.0
 10
301.9214822420795
 20
114.9588562443081
 30
0.0
 10
301.923076923077
 20
115.0450721153847
 30
0.0
  0
SPLINE
  5
B6
330
1F
100
AcDbEntity
  8
0
  6
Continuous
 62
     7
370
    15
100
AcDbSpline
210
0.0
220
0.0
230
1.0
 70
     8
 71
     3
 72
    23
 73
    19
 74
     0
 42
0.00000001
 43
0.00000001
 12
1.0
 22
0.0
 32
0.0
 13
1.0
 23
0.0
 33
0.0
 40
0.0
 40
0.0
 40
0.0
 40
0.0
 40
0.0917014566485832
 40
0.1784786234702855
 40
0.2607032917490388
 40
0.3371152801671898
 40
0.4102171366028664
 40
0.4781656762643627
 40
0.5434540387715558
 40
0.6063425282940142
 40
0.6650789398387668
 40
0.7203461980457104
 40
0.7720161073323347
 40
0.8207588898130348
 40
0.8663476624779662
 40
0.9114518991925068
 40
0.9557340852176972
 40
1.0
 40
1.0
 40
1.0
 40
1.0
 10
13.53896103896102
 20
109.9431818181819
 30
0.0
 10
13.54116989904161
 20
109.833574751165
 30
0.0
 10
13.54546900530485
 20
109.6202464229274
 30
0.0
 10
13.56560900946202
 20
109.3091220507378
 30
0.0
 10
13.60350731171234
 20
109.0178315029476
 30
0.0
 10
13.66411160490411
 20
108.7473252458186
 30
0.0
 10
13.73114321725102
 20
108.4959946840474
 30
0.0
 10
13.81695786728493
 20
108.2642494323587
 30
0.0
 10
13.92101179070815
 20
108.0537399359345
 30
0.0
 10
14.03840317644667
 20
107.8632273564992
 30
0.0
 10
14.16705042301636
 20
107.6949290782557
 30
0.0
 10
14.30125014637473
 20
107.5491412219756
 30
0.0
 10
14.43739655932694
 20
107.4214731850816
 30
0.0
 10
14.58167605229455
 20
107.3227014865086
 30
0.0
 10
14.72636593901677
 20
107.2387542142325
 30
0.0
 10
14.87956347541422
 20
107.1860061382679
 30
0.0
 10
15.03592267719891
 20
107.1503922445808
 30
0.0
 10
15.14185084391439
 20
107.1453685357195
 30
0.0
 10
15.19480519480518
 20
107.1428571428572
 30
0.0
  0
SPLINE
  5
B7
330
1F
100
AcDbEntity
  8
0
  6
Continuous
 62
     7
370
    15
100
AcDbSpline
210
0.0
220
0.0
230
1.0
 70
     8
 71
     3
 72
    19
 73
    15
 74
     0
 42
0.00000001
 43
0.00000001
 12
1.0
 22
0.0
 32
0.0
 13
1.0
 23
0.0
 33
0.0
 40
0.0
 40
0.0
 40
0.0
 40
0.0
 40
0.0924497033226472
 40
0.1826598079166727
 40
0.2766628542394773
 40
0.3812388536160439
 40
0.4386336524067132
 40
0.5008565921644829
 40
0.5682831460944684
 40
0.642034615230809
 40
0.7211386514548115
 40
0.806929597586165
 40
0.8998614408321339
 40
1.0
 40
1.0
 40
1.0
 40
1.0
 10
15.19480519480518
 20
107.1428571428572
 30
0.0
 10
15.29641713786686
 20
107.1492580172397
 30
0.0
 10
15.49717946954152
 20
107.1619047044999
 30
0.0
 10
15.78058716358258
 20
107.2834868740465
 30
0.0
 10
16.03318982868154
 20
107.4769783064263
 30
0.0
 10
16.21508485997963
 20
107.693260848792
 30
0.0
 10
16.34194777873163
 20
107.9036826857343
 30
0.0
 10
16.4275910785662
 20
108.0902399049064
 30
0.0
 10
16.49525460623239
 20
108.3026125606867
 30
0.0
 10
16.55708782018367
 20
108.535760883161
 30
0.0
 10
16.60240421304032
 20
108.7933658491645
 30
0.0
 10
16.6301439450964
 20
109.0742448548642
 30
0.0
 10
16.65387653558562
 20
109.3786684700893
 30
0.0
 10
16.65517216186205
 20
109.5900430551573
 30
0.0
 10
16.65584415584415
 20
109.6996753246754
 30
0.0
  0
SPLINE
  5
B8
330
1F
100
AcDbEntity
  8
0
  6
Continuous
 62
     7
370
    15
100
AcDbSpline
210
0.0
220
0.0
230
1.0
 70
     8
 71
     3
 72
    19
 73
    15
 74
     0
 42
0.00000001
 43
0.00000001
 12
1.0
 22
0.0
 32
0.0
 13
1.0
 23
0.0
 33
0.0
 40
0.0
 40
0.0
 40
0.0
 40
0.0
 40
0.0980377710792939
 40
0.1892642765742075
 40
0.2739371110361405
 40
0.3522171741877713
 40
0.4254519281862477
 40
0.4921566937387539
 40
0.5548113149480027
 40
0.6133515098103189
 40
0.7195826317642422
 40
0.8163820309457179
 40
0.9074025930405306
 40
1.0
 40
1.0
 40
1.0
 40
1.0
 10
16.65584415584415
 20
109.6996753246754
 30
0.0
 10
16.65496782073034
 20
109.8133428937713
 30
0.0
 10
16.65327603470212
 20
110.0327808715838
 30
0.0
 10
16.63217045047283
 20
110.3498857676262
 30
0.0
 10
16.5953105322251
 20
110.642350224796
 30
0.0
 10
16.5478550259214
 20
110.9122059646293
 30
0.0
 10
16.48448324772711
 20
111.157417139417
 30
0.0
 10
16.40828459595933
 20
111.3798015061579
 30
0.0
 10
16.31819217677729
 20
111.5787722940557
 30
0.0
 10
16.17875843967101
 20
111.8029848425053
 30
0.0
 10
15.98518386212561
 20
112.0393991127465
 30
0.0
 10
15.7132639741509
 20
112.2491663830351
 30
0.0
 10
15.40989046386812
 20
112.3816762677583
 30
0.0
 10
15.19608957219124
 20
112.3955838797997
 30
0.0
 10
15.08827110389607
 20
112.4025974025975
 30
0.0
  0
SPLINE
  5
B9
330
1F
100
AcDbEntity
  8
0
  6
Continuous
 62
     7
370
    15
100
AcDbSpline
210
0.0
220
0.0
230
1.0
 70
     8
 71
     3
 72
    19
 73
    15
 74
     0
 42
0.00000001
 43
0.00000001
 12
1.0
 22
0.0
 32
0.0
 13
1.0
 23
0.0
 33
0.0
 40
0.0
 40
0.0
 40
0.0
 40
0.0
 40
0.0967458161067068
 40
0.1930146422555584
 40
0.2933185369208804
 40
0.404664540237707
 40
0.4652105730110104
 40
0.5283265535043348
 40
0.5947301110651356
 40
0.6652959224899456
 40
0.7411343832362192
 40
0.8219020160768902
 40
0.9077748068224873
 40
0.9999999999999999
 40
0.9999999999999999
 40
0.9999999999999999
 40
0.9999999999999999
 10
15.08827110389607
 20
112.4025974025974
 30
0.0
 10
14.9836778341024
 20
112.3949084165756
 30
0.0
 10
14.77500697510317
 20
112.3795683538626
 30
0.0
 10
14.4779116417523
 20
112.2564349844733
 30
0.0
 10
14.20937975953118
 20
112.0568527756511
 30
0.0
 10
14.01699431086484
 20
111.8322721331706
 30
0.0
 10
13.87812785011303
 20
111.619935684389
 30
0.0
 10
13.78676809014856
 20
111.4358641879792
 30
0.0
 10
13.7117389442839
 20
111.2333381238996
 30
0.0
 10
13.64650519835023
 20
111.0130355072572
 30
0.0
 10
13.5999869422182
 20
110.7722549315408
 30
0.0
 10
13.56278114529816
 20
110.5133500668308
 30
0.0
 10
13.54151735489717
 20
110.234732157081
 30
0.0
 10
13.53983316814197
 20
110.0426490063613
 30
0.0
 10
13.53896103896102
 20
109.9431818181819
 30
0.0
  0
SPLINE
  5
BA
330
1F
100
AcDbEntity
  8
0
  6
Continuous
 62
     7
370
    15
100
AcDbSpline
210
0.0
220
0.0
230
1.0
 70
     8
 71
     3
 72
    15
 73
    11
 74
     0
 42
0.00000001
 43
0.00000001
 12
1.0
 22
0.0
 32
0.0
 13
1.0
 23
0.0
 33
0.0
 40
0.0
 40
0.0
 40
0.0
 40
0.0
 40
0.1124239580708154
 40
0.2223848576202879
 40
0.3301224058542558
 40
0.4412431684841763
 40
0.5580749755162377
 40
0.6869486147035377
 40
0.8340326972108811
 40
1.0
 40
1.0
 40
1.0
 40
1.0
 10
400.673076923077
 20
117.5
 30
0.0
 10
400.5816093502012
 20
117.4958085980136
 30
0.0
 10
400.4006781366064
 20
117.4875176220509
 30
0.0
 10
400.1376986426052
 20
117.4260734325225
 30
0.0
 10
399.8893362007187
 20
117.3246771290159
 30
0.0
 10
399.6543935436131
 20
117.1831292037321
 30
0.0
 10
399.4380623061975
 20
116.9862165636541
 30
0.0
 10
399.25481036631
 20
116.7221989853024
 30
0.0
 10
399.0965501105752
 20
116.3982056269924
 30
0.0
 10
399.0173495442155
 20
116.1560339512095
 30
0.0
 10
398.9753605769231
 20
116.0276442307693
 30
0.0
  0
SPLINE
  5
BB
330
1F
100
AcDbEntity
  8
0
  6
Continuous
 62
     7
370
    15
100
AcDbSpline
210
0.0
220
0.0
230
1.0
 70
     8
 71
     3
 72
    15
 73
    11
 74
     0
 42
0.00000001
 43
0.00000001
 12
1.0
 22
0.0
 32
0.0
 13
1.0
 23
0.0
 33
0.0
 40
0.0
 40
0.0
 40
0.0
 40
0.0
 40
0.1136384890722405
 40
0.2223861812653002
 40
0.3312523767958113
 40
0.4413103711807757
 40
0.5581281266397004
 40
0.6869862659608943
 40
0.8340526583991207
 40
1.0
 40
1.0
 40
1.0
 40
1.0
 10
400.673076923077
 20
107.3076923076923
 30
0.0
 10
400.7655964158228
 20
107.3116711272221
 30
0.0
 10
400.9466535281824
 20
107.319457525021
 30
0.0
 10
401.2099775702328
 20
107.3829503991787
 30
0.0
 10
401.4586936357701
 20
107.4812978079478
 30
0.0
 10
401.6920642365311
 20
107.6257317256444
 30
0.0
 10
401.9081928548572
 20
107.8212960604497
 30
0.0
 10
402.0913110188737
 20
108.085550892437
 30
0.0
 10
402.2496135784481
 20
108.4094692242145
 30
0.0
 10
402.3288077122322
 20
108.6516523082725
 30
0.0
 10
402.3707932692308
 20
108.7800480769231
 30
0.0
  0
SPLINE
  5
BC
330
1F
100
AcDbEntity
  8
0
  6
Continuous
 62
     7
370
    15
100
AcDbSpline
210
0.0
220
0.0
230
1.0
 70
     8
 71
     3
 72
    15
 73
    11
 74
     0
 42
0.00000001
 43
0.00000001
 12
1.0
 22
0.0
 32
0.0
 13
1.0
 23
0.0
 33
0.0
 40
0.0
 40
0.0
 40
0.0
 40
0.0
 40
0.0826430287340895
 40
0.1768120489030416
 40
0.2826378891715793
 40
0.4012643114922808
 40
0.5319943041057168
 40
0.6757009869892111
 40
0.831686010300773
 40
0.9999999999999999
 40
0.9999999999999999
 40
0.9999999999999999
 40
0.9999999999999999
 10
402.3707932692308
 20
108.7800480769231
 30
0.0
 10
402.3969781692655
 20
108.8769293592403
 30
0.0
 10
402.4529999039038
 20
109.084203684604
 30
0.0
 10
402.5174217554276
 20
109.421554363768
 30
0.0
 10
402.5703160476274
 20
109.8048136134872
 30
0.0
 10
402.6144358240448
 20
110.2338109723969
 30
0.0
 10
402.6510412279104
 20
110.7096688570594
 30
0.0
 10
402.6731750210348
 20
111.2318038884324
 30
0.0
 10
402.6886189896122
 20
111.7997880235256
 30
0.0
 10
402.6910473515044
 20
112.1934977755203
 30
0.0
 10
402.6923076923077
 20
112.3978365384616
 30
0.0
  0
SPLINE
  5
BD
330
1F
100
AcDbEntity
  8
0
  6
Continuous
 62
     7
370
    15
100
AcDbSpline
210
0.0
220
0.0
230
1.0
 70
     8
 71
     3
 72
    15
 73
    11
 74
     0
 42
0.00000001
 43
0.00000001
 12
1.0
 22
0.0
 32
0.0
 13
1.0
 23
0.0
 33
0.0
 40
0.0
 40
0.0
 40
0.0
 40
0.0
 40
0.0823733151293767
 40
0.1770420547701428
 40
0.2833367838970556
 40
0.4015760572897836
 40
0.5326993894125108
 40
0.6759370714854579
 40
0.831413022421968
 40
1.0
 40
1.0
 40
1.0
 40
1.0
 10
398.9753605769231
 20
116.0276442307693
 30
0.0
 10
398.9491377432745
 20
115.9307706350191
 30
0.0
 10
398.8927779337442
 20
115.7225636396148
 30
0.0
 10
398.8288118913006
 20
115.3830997073966
 30
0.0
 10
398.7760604141966
 20
114.9978440812007
 30
0.0
 10
398.7315171222175
 20
114.5668862909127
 30
0.0
 10
398.6952682704127
 20
114.0899982879816
 30
0.0
 10
398.6729449790146
 20
113.566876630867
 30
0.0
 10
398.6575155250563
 20
112.9978878696132
 30
0.0
 10
398.6551018289092
 20
112.6031767588889
 30
0.0
 10
398.6538461538462
 20
112.3978365384616
 30
0.0
  0
SPLINE
  5
BE
330
1F
100
AcDbEntity
  8
0
  6
Continuous
 62
     7
370
    15
100
AcDbSpline
210
0.0
220
0.0
230
1.0
 70
     8
 71
     3
 72
    23
 73
    19
 74
     0
 42
0.00000001
 43
0.00000001
 12
1.0
 22
0.0
 32
0.0
 13
1.0
 23
0.0
 33
0.0
 40
0.0
 40
0.0
 40
0.0
 40
0.0
 40
0.1006966640060198
 40
0.1930338194557532
 40
0.277510994726261
 40
0.3537198601440038
 40
0.4216475357476383
 40
0.4819603511219252
 40
0.5341449468329088
 40
0.5790413149141714
 40
0.6553779565299808
 40
0.7205076573654853
 40
0.7762325984060058
 40
0.8240613854650081
 40
0.8681693643483445
 40
0.9108854661679484
 40
0.954949232055448
 40
1.0
 40
1.0
 40
1.0
 40
1.0
 10
402.6923076923077
 20
112.3978365384616
 30
0.0
 10
402.6924470470947
 20
112.6021823359771
 30
0.0
 10
402.6927141878885
 20
112.9939098095087
 30
0.0
 10
402.6750150866784
 20
113.5567693977782
 30
0.0
 10
402.6576449650523
 20
114.069988042601
 30
0.0
 10
402.6222243249833
 20
114.5325603815345
 30
0.0
 10
402.586747432768
 20
114.946048639188
 30
0.0
 10
402.5338956712842
 20
115.308382623789
 30
0.0
 10
402.4806516834499
 20
115.6235559160086
 30
0.0
 10
402.3896575797057
 20
115.9638240565512
 30
0.0
 10
402.2659958526067
 20
116.3217379897933
 30
0.0
 10
402.0970505443638
 20
116.6855272205643
 30
0.0
 10
401.9060753831548
 20
116.9719188094812
 30
0.0
 10
401.6890844142541
 20
117.1824309783495
 30
0.0
 10
401.4536863649237
 20
117.3243402937345
 30
0.0
 10
401.2077215522817
 20
117.4266755786229
 30
0.0
 10
400.9454304240231
 20
117.4874162784126
 30
0.0
 10
400.7645292897287
 20
117.4957745682855
 30
0.0
 10
400.673076923077
 20
117.5
 30
0.0
  0
SPLINE
  5
BF
330
1F
100
AcDbEntity
  8
0
  6
Continuous
 62
     7
370
    15
100
AcDbSpline
210
0.0
220
0.0
230
1.0
 70
     8
 71
     3
 72
    23
 73
    19
 74
     0
 42
0.00000001
 43
0.00000001
 12
1.0
 22
0.0
 32
0.0
 13
1.0
 23
0.0
 33
0.0
 40
0.0
 40
0.0
 40
0.0
 40
0.0
 40
0.1008346167264757
 40
0.1932830494691829
 40
0.2774008451362985
 40
0.3536777434432215
 40
0.4222362183041928
 40
0.4825627035114591
 40
0.534907993999782
 40
0.5797418151953551
 40
0.6557138421667942
 40
0.721145455277196
 40
0.776666020078404
 40
0.8242181842260647
 40
0.8681270432663903
 40
0.9113574509853435
 40
0.9548891391678475
 40
1.0
 40
1.0
 40
1.0
 40
1.0
 10
398.6538461538462
 20
112.3978365384616
 30
0.0
 10
398.6555580416099
 20
112.1935121353097
 30
0.0
 10
398.6588394433554
 20
111.8018565213523
 30
0.0
 10
398.6681575374199
 20
111.2397104675218
 30
0.0
 10
398.6946071038001
 20
110.7279991398312
 30
0.0
 10
398.7210805647083
 20
110.2646833083793
 30
0.0
 10
398.7651732841309
 20
109.8512228355798
 30
0.0
 10
398.8095213882509
 20
109.4865012468828
 30
0.0
 10
398.8706479564475
 20
109.1730094312711
 30
0.0
 10
398.954051627159
 20
108.832030734544
 30
0.0
 10
399.0801889832471
 20
108.4751424317929
 30
0.0
 10
399.2532456706865
 20
108.1150945070655
 30
0.0
 10
399.4388216341634
 20
107.8259928843788
 30
0.0
 10
399.6573968442216
 20
107.6189980554828
 30
0.0
 10
399.8939592645261
 20
107.4801408451226
 30
0.0
 10
400.139321920767
 20
107.3781151562245
 30
0.0
 10
400.4020619386476
 20
107.3208648802821
 30
0.0
 10
400.5816720066713
 20
107.312135006309
 30
0.0
 10
400.673076923077
 20
107.3076923076923
 30
0.0
  0
LINE
  5
C0
330
1F
100
AcDbEntity
  8
0
  6
Continuous
 62
     7
370
    15
100
AcDbLine
 10
295.3846153846
 20
108.7199519231
 30
0.0
 11
298.2692307692
 21
109.0384615385
 31
0.0
  0
LINE
  5
C1
330
1F
100
AcDbEntity
  8
0
  6
Continuous
 62
     7
370
    15
100
AcDbLine
 10
109.8076923077
 20
105.0
 30
0.0
 11
106.9230769231
 21
105.0
 31
0.0
  0
LINE
  5
C2
330
1F
100
AcDbEntity
  8
0
  6
Continuous
 62
     7
370
    15
100
AcDbLine
 10
114.8076923077
 20
119.8076923077
 30
0.0
 11
114.8076923077
 21
117.6923076923
 31
0.0
  0
LINE
  5
C3
330
1F
100
AcDbEntity
  8
0
  6
Continuous
 62
     7
370
    15
100
AcDbLine
 10
105.0
 20
119.8076923077
 30
0.0
 11
114.8076923077
 21
119.8076923077
 31
0.0
  0
LINE
  5
C4
330
1F
100
AcDbEntity
  8
0
  6
Continuous
 62
     7
370
    15
100
AcDbLine
 10
105.0
 20
116.9230769231
 30
0.0
 11
105.0
 21
119.8076923077
 31
0.0
  0
LINE
  5
C5
330
1F
100
AcDbEntity
  8
0
  6
Continuous
 62
     7
370
    15
100
AcDbLine
 10
111.5414663462
 20
116.9230769231
 30
0.0
 11
105.0
 21
116.9230769231
 31
0.0
  0
LINE
  5
C6
330
1F
100
AcDbEntity
  8
0
  6
Continuous
 62
     7
370
    15
100
AcDbLine
 10
18.7987012987
 20
116.2987012987
 30
0.0
 11
16.461038961
 21
115.9090909091
 31
0.0
  0
LINE
  5
C7
330
1F
100
AcDbEntity
  8
0
  6
Continuous
 62
     7
370
    15
100
AcDbLine
 10
385.0
 20
113.2692307692
 30
0.0
 11
385.0
 21
116.1538461538
 31
0.0
  0
LINE
  5
C8
330
1F
100
AcDbEntity
  8
0
  6
Continuous
 62
     7
370
    15
100
AcDbLine
 10
388.6538461538
 20
105.0
 30
0.0
 11
388.6538461538
 21
115.6790865385
 31
0.0
  0
LINE
  5
C9
330
1F
100
AcDbEntity
  8
0
  6
Continuous
 62
     7
370
    15
100
AcDbLine
 10
391.5384615385
 20
105.0
 30
0.0
 11
388.6538461538
 21
105.0
 31
0.0
  0
LINE
  5
CA
330
1F
100
AcDbEntity
  8
0
  6
Continuous
 62
     7
370
    15
100
AcDbLine
 10
391.5384615385
 20
120.0
 30
0.0
 11
391.5384615385
 21
105.0
 31
0.0
  0
LINE
  5
CB
330
1F
100
AcDbEntity
  8
0
  6
Continuous
 62
     7
370
    15
100
AcDbLine
 10
389.2247596154
 20
120.0
 30
0.0
 11
391.5384615385
 21
120.0
 31
0.0
  0
LINE
  5
CC
330
1F
100
AcDbEntity
  8
0
  6
Continuous
 62
     7
370
    15
100
AcDbLine
 10
410.0
 20
100.0
 30
0.0
 11
410.0
 21
115.0
 31
0.0
  0
LINE
  5
CD
330
1F
100
AcDbEntity
  8
0
  6
Continuous
 62
     7
370
    15
100
AcDbLine
 10
475.0
 20
100.0
 30
0.0
 11
410.0
 21
100.0
 31
0.0
  0
LINE
  5
CE
330
1F
100
AcDbEntity
  8
0
  6
Continuous
 62
     7
370
    15
100
AcDbLine
 10
475.0
 20
80.0
 30
0.0
 11
475.0
 21
100.0
 31
0.0
  0
LINE
  5
CF
330
1F
100
AcDbEntity
  8
0
  6
Continuous
 62
     7
370
    15
100
AcDbLine
 10
479.0
 20
80.0
 30
0.0
 11
475.0
 21
80.0
 31
0.0
  0
LINE
  5
D0
330
1F
100
AcDbEntity
  8
0
  6
Continuous
 62
     7
370
    15
100
AcDbLine
 10
479.0
 20
60.0
 30
0.0
 11
479.0
 21
80.0
 31
0.0
  0
LINE
  5
D1
330
1F
100
AcDbEntity
  8
0
  6
Continuous
 62
     7
370
    15
100
AcDbLine
 10
475.0
 20
60.0
 30
0.0
 11
479.0
 21
60.0
 31
0.0
  0
LINE
  5
D2
330
1F
100
AcDbEntity
  8
0
  6
Continuous
 62
     7
370
    15
100
AcDbLine
 10
475.0
 20
40.0
 30
0.0
 11
475.0
 21
60.0
 31
0.0
  0
LINE
  5
D3
330
1F
100
AcDbEntity
  8
0
  6
Continuous
 62
     7
370
    15
100
AcDbLine
 10
479.0
 20
40.0
 30
0.0
 11
475.0
 21
40.0
 31
0.0
  0
LINE
  5
D4
330
1F
100
AcDbEntity
  8
0
  6
Continuous
 62
     7
370
    15
100
AcDbLine
 10
479.0
 20
20.0
 30
0.0
 11
479.0
 21
40.0
 31
0.0
  0
LINE
  5
D5
330
1F
100
AcDbEntity
  8
0
  6
Continuous
 62
     7
370
    15
100
AcDbLine
 10
475.0
 20
20.0
 30
0.0
 11
479.0
 21
20.0
 31
0.0
  0
LINE
  5
D6
330
1F
100
AcDbEntity
  8
0
  6
Continuous
 62
     7
370
    15
100
AcDbLine
 10
475.0
 20
8.4
 30
0.0
 11
475.0
 21
20.0
 31
0.0
  0
LINE
  5
D7
330
1F
100
AcDbEntity
  8
0
  6
Continuous
 62
     7
370
    15
100
AcDbLine
 10
475.0
 20
8.4
 30
0.0
 11
347.5
 21
8.4
 31
0.0
  0
LINE
  5
D8
330
1F
100
AcDbEntity
  8
0
  6
Continuous
 62
     7
370
    15
100
AcDbLine
 10
347.5
 20
4.4
 30
0.0
 11
347.5
 21
8.4
 31
0.0
  0
LINE
  5
D9
330
1F
100
AcDbEntity
  8
0
  6
Continuous
 62
     7
370
    15
100
AcDbLine
 10
307.5
 20
4.4
 30
0.0
 11
347.5
 21
4.4
 31
0.0
  0
LINE
  5
DA
330
1F
100
AcDbEntity
  8
0
  6
Continuous
 62
     7
370
    15
100
AcDbLine
 10
307.5
 20
8.4
 30
0.0
 11
307.5
 21
4.4
 31
0.0
  0
LINE
  5
DB
330
1F
100
AcDbEntity
  8
0
  6
Continuous
 62
     7
370
    15
100
AcDbLine
 10
167.5
 20
4.4
 30
0.0
 11
167.5
 21
8.4
 31
0.0
  0
LINE
  5
DC
330
1F
100
AcDbEntity
  8
0
  6
Continuous
 62
     7
370
    15
100
AcDbLine
 10
127.5
 20
4.4
 30
0.0
 11
167.5
 21
4.4
 31
0.0
  0
LINE
  5
DD
330
1F
100
AcDbEntity
  8
0
  6
Continuous
 62
     7
370
    15
100
AcDbLine
 10
127.5
 20
8.4
 30
0.0
 11
0.0
 21
8.4
 31
0.0
  0
LINE
  5
DE
330
1F
100
AcDbEntity
  8
0
  6
Continuous
 62
     7
370
    15
100
AcDbLine
 10
0.0
 20
20.0
 30
0.0
 11
0.0
 21
8.4
 31
0.0
  0
LINE
  5
DF
330
1F
100
AcDbEntity
  8
0
  6
Continuous
 62
     7
370
    15
100
AcDbLine
 10
-4.0
 20
20.0
 30
0.0
 11
0.0
 21
20.0
 31
0.0
  0
LINE
  5
E0
330
1F
100
AcDbEntity
  8
0
  6
Continuous
 62
     7
370
    15
100
AcDbLine
 10
-4.0
 20
40.0
 30
0.0
 11
-4.0
 21
20.0
 31
0.0
  0
LINE
  5
E1
330
1F
100
AcDbEntity
  8
0
  6
Continuous
 62
     7
370
    15
100
AcDbLine
 10
0.0
 20
40.0
 30
0.0
 11
-4.0
 21
40.0
 31
0.0
  0
LINE
  5
E2
330
1F
100
AcDbEntity
  8
0
  6
Continuous
 62
     7
370
    15
100
AcDbLine
 10
0.0
 20
60.0
 30
0.0
 11
0.0
 21
40.0
 31
0.0
  0
LINE
  5
E3
330
1F
100
AcDbEntity
  8
0
  6
Continuous
 62
     7
370
    15
100
AcDbLine
 10
-4.0
 20
60.0
 30
0.0
 11
0.0
 21
60.0
 31
0.0
  0
LINE
  5
E4
330
1F
100
AcDbEntity
  8
0
  6
Continuous
 62
     7
370
    15
100
AcDbLine
 10
-4.0
 20
80.0
 30
0.0
 11
-4.0
 21
60.0
 31
0.0
  0
LINE
  5
E5
330
1F
100
AcDbEntity
  8
0
  6
Continuous
 62
     7
370
    15
100
AcDbLine
 10
0.0
 20
80.0
 30
0.0
 11
-4.0
 21
80.0
 31
0.0
  0
LINE
  5
E6
330
1F
100
AcDbEntity
  8
0
  6
Continuous
 62
     7
370
    15
100
AcDbLine
 10
0.0
 20
115.0
 30
0.0
 11
0.0
 21
80.0
 31
0.0
  0
LINE
  5
E7
330
1F
100
AcDbEntity
  8
0
  6
Continuous
 62
     7
370
    15
100
AcDbLine
 10
30.0
 20
100.0
 30
0.0
 11
30.0
 21
115.0
 31
0.0
  0
LINE
  5
E8
330
1F
100
AcDbEntity
  8
0
  6
Continuous
 62
     7
370
    15
100
AcDbLine
 10
90.6
 20
100.0
 30
0.0
 11
30.0
 21
100.0
 31
0.0
  0
LINE
  5
E9
330
1F
100
AcDbEntity
  8
0
  6
Continuous
 62
     7
370
    15
100
AcDbLine
 10
90.6
 20
100.0
 30
0.0
 11
90.6
 21
49.6
 31
0.0
  0
LINE
  5
EA
330
1F
100
AcDbEntity
  8
0
  6
Continuous
 62
     7
370
    15
100
AcDbLine
 10
90.6
 20
49.6
 30
0.0
 11
95.0
 21
49.6
 31
0.0
  0
LINE
  5
EB
330
1F
100
AcDbEntity
  8
0
  6
Continuous
 62
     7
370
    15
100
AcDbLine
 10
95.0
 20
115.0
 30
0.0
 11
95.0
 21
49.6
 31
0.0
  0
LINE
  5
EC
330
1F
100
AcDbEntity
  8
0
  6
Continuous
 62
     7
370
    15
100
AcDbLine
 10
125.0
 20
100.0
 30
0.0
 11
125.0
 21
115.0
 31
0.0
  0
LINE
  5
ED
330
1F
100
AcDbEntity
  8
0
  6
Continuous
 62
     7
370
    15
100
AcDbLine
 10
185.6
 20
100.0
 30
0.0
 11
125.0
 21
100.0
 31
0.0
  0
LINE
  5
EE
330
1F
100
AcDbEntity
  8
0
  6
Continuous
 62
     7
370
    15
100
AcDbLine
 10
185.6
 20
100.0
 30
0.0
 11
185.6
 21
49.6
 31
0.0
  0
LINE
  5
EF
330
1F
100
AcDbEntity
  8
0
  6
Continuous
 62
     7
370
    15
100
AcDbLine
 10
185.6
 20
49.6
 30
0.0
 11
190.0
 21
49.6
 31
0.0
  0
LINE
  5
F0
330
1F
100
AcDbEntity
  8
0
  6
Continuous
 62
     7
370
    15
100
AcDbLine
 10
190.0
 20
115.0
 30
0.0
 11
190.0
 21
49.6
 31
0.0
  0
LINE
  5
F1
330
1F
100
AcDbEntity
  8
0
  6
Continuous
 62
     7
370
    15
100
AcDbLine
 10
220.0
 20
100.0
 30
0.0
 11
220.0
 21
115.0
 31
0.0
  0
LINE
  5
F2
330
1F
100
AcDbEntity
  8
0
  6
Continuous
 62
     7
370
    15
100
AcDbLine
 10
280.6
 20
100.0
 30
0.0
 11
220.0
 21
100.0
 31
0.0
  0
LINE
  5
F3
330
1F
100
AcDbEntity
  8
0
  6
Continuous
 62
     7
370
    15
100
AcDbLine
 10
280.6
 20
100.0
 30
0.0
 11
280.6
 21
49.6
 31
0.0
  0
LINE
  5
F4
330
1F
100
AcDbEntity
  8
0
  6
Continuous
 62
     7
370
    15
100
AcDbLine
 10
280.6
 20
49.6
 30
0.0
 11
285.0
 21
49.6
 31
0.0
  0
LINE
  5
F5
330
1F
100
AcDbEntity
  8
0
  6
Continuous
 62
     7
370
    15
100
AcDbLine
 10
285.0
 20
115.0
 30
0.0
 11
285.0
 21
49.6
 31
0.0
  0
LINE
  5
F6
330
1F
100
AcDbEntity
  8
0
  6
Continuous
 62
     7
370
    15
100
AcDbLine
 10
315.0
 20
100.0
 30
0.0
 11
315.0
 21
115.0
 31
0.0
  0
LINE
  5
F7
330
1F
100
AcDbEntity
  8
0
  6
Continuous
 62
     7
370
    15
100
AcDbLine
 10
375.6
 20
100.0
 30
0.0
 11
315.0
 21
100.0
 31
0.0
  0
LINE
  5
F8
330
1F
100
AcDbEntity
  8
0
  6
Continuous
 62
     7
370
    15
100
AcDbLine
 10
375.6
 20
100.0
 30
0.0
 11
375.6
 21
49.6
 31
0.0
  0
LINE
  5
F9
330
1F
100
AcDbEntity
  8
0
  6
Continuous
 62
     7
370
    15
100
AcDbLine
 10
375.6
 20
49.6
 30
0.0
 11
380.0
 21
49.6
 31
0.0
  0
LINE
  5
FA
330
1F
100
AcDbEntity
  8
0
  6
Continuous
 62
     7
370
    15
100
AcDbLine
 10
380.0
 20
115.0
 30
0.0
 11
380.0
 21
49.6
 31
0.0
  0
LINE
  5
FB
330
1F
100
AcDbEntity
  8
0
  6
Continuous
 62
     7
370
    15
100
AcDbLine
 10
307.5
 20
8.4
 30
0.0
 11
167.5
 21
8.4
 31
0.0
  0
LINE
  5
FC
330
1F
100
AcDbEntity
  8
0
  6
Continuous
 62
     7
370
    15
100
AcDbLine
 10
127.5
 20
8.4
 30
0.0
 11
127.5
 21
4.4
 31
0.0
  0
ARC
  5
FD
330
1F
100
AcDbEntity
  8
0
  6
Continuous
 62
     7
370
    15
100
AcDbCircle
 10
395.0
 20
115.0
 30
0.0
 40
15.00000000000006
100
AcDbArc
 50
0.0
 51
180.0
  0
ARC
  5
FE
330
1F
100
AcDbEntity
  8
0
  6
Continuous
 62
     7
370
    15
100
AcDbCircle
 10
15.0
 20
115.0
 30
0.0
 40
15.0
100
AcDbArc
 50
0.0
 51
180.0
  0
ARC
  5
FF
330
1F
100
AcDbEntity
  8
0
  6
Continuous
 62
     7
370
    15
100
AcDbCircle
 10
110.0
 20
115.0
 30
0.0
 40
15.0
100
AcDbArc
 50
0.0
 51
180.0
  0
ARC
  5
100
330
1F
100
AcDbEntity
  8
0
  6
Continuous
 62
     7
370
    15
100
AcDbCircle
 10
205.0
 20
115.0
 30
0.0
 40
15.00000000000003
100
AcDbArc
 50
0.0
 51
180.0
  0
ARC
  5
101
330
1F
100
AcDbEntity
  8
0
  6
Continuous
 62
     7
370
    15
100
AcDbCircle
 10
300.0
 20
115.0
 30
0.0
 40
15.0
100
AcDbArc
 50
0.0
 51
180.0
  0
ENDSEC
  0
SECTION
  2
OBJECTS
  0
DICTIONARY
  5
C
330
0
100
AcDbDictionary
281
     1
  3
ACAD_GROUP
350
D
  3
ACAD_LAYOUT
350
1A
  3
ACAD_MLINESTYLE
350
17
  3
ACAD_PLOTSETTINGS
350
19
  3
ACAD_PLOTSTYLENAME
350
E
  0
DICTIONARY
  5
D
102
{ACAD_REACTORS
330
C
102
}
330
C
100
AcDbDictionary
281
     1
  0
DICTIONARY
  5
1A
102
{ACAD_REACTORS
330
C
102
}
330
C
100
AcDbDictionary
281
     1
  3
Layout1
350
1E
  3
Layout2
350
26
  3
Model
350
22
  0
DICTIONARY
  5
17
102
{ACAD_REACTORS
330
C
102
}
330
C
100
AcDbDictionary
281
     1
  3
Standard
350
18
  0
DICTIONARY
  5
19
102
{ACAD_REACTORS
330
C
102
}
330
C
100
AcDbDictionary
281
     1
  0
ACDBDICTIONARYWDFLT
  5
E
102
{ACAD_REACTORS
330
C
102
}
330
C
100
AcDbDictionary
281
     1
  3
Normal
350
F
100
AcDbDictionaryWithDefault
340
F
  0
LAYOUT
  5
1E
102
{ACAD_REACTORS
330
1A
102
}
330
1A
100
AcDbPlotSettings
  1

  2
none_device
  4

  6

 40
0.0
 41
0.0
 42
0.0
 43
0.0
 44
0.0
 45
0.0
 46
0.0
 47
0.0
 48
0.0
 49
0.0
140
0.0
141
0.0
142
1.0
143
1.0
 70
   688
 72
     0
 73
     0
 74
     5
  7

 75
    16
147
1.0
148
0.0
149
0.0
100
AcDbLayout
  1
Layout1
 70
     1
 71
     1
 10
0.0
 20
0.0
 11
420.0
 21
297.0
 12
0.0
 22
0.0
 32
0.0
 14
1.0000000000E+20
 24
1.0000000000E+20
 34
1.0000000000E+20
 15
-1.0000000000E+20
 25
-1.0000000000E+20
 35
-1.0000000000E+20
146
0.0
 13
0.0
 23
0.0
 33
0.0
 16
1.0
 26
0.0
 36
0.0
 17
0.0
 27
1.0
 37
0.0
 76
     0
330
1B
  0
LAYOUT
  5
26
102
{ACAD_REACTORS
330
1A
102
}
330
1A
100
AcDbPlotSettings
  1

  2
none_device
  4

  6

 40
0.0
 41
0.0
 42
0.0
 43
0.0
 44
0.0
 45
0.0
 46
0.0
 47
0.0
 48
0.0
 49
0.0
140
0.0
141
0.0
142
1.0
143
1.0
 70
   688
 72
     0
 73
     0
 74
     5
  7

 75
    16
147
1.0
148
0.0
149
0.0
100
AcDbLayout
  1
Layout2
 70
     1
 71
     2
 10
0.0
 20
0.0
 11
0.0
 21
0.0
 12
0.0
 22
0.0
 32
0.0
 14
0.0
 24
0.0
 34
0.0
 15
0.0
 25
0.0
 35
0.0
146
0.0
 13
0.0
 23
0.0
 33
0.0
 16
1.0
 26
0.0
 36
0.0
 17
0.0
 27
1.0
 37
0.0
 76
     0
330
23
  0
LAYOUT
  5
22
102
{ACAD_REACTORS
330
1A
102
}
330
1A
100
AcDbPlotSettings
  1

  2
none_device
  4
ANSI_A_(11.00_x_8.50_Inches)
  6

 40
6.35
 41
19.05
 42
6.35000508
 43
19.05000254
 44
279.4
 45
215.9
 46
-2.6622696207
 47
50.4156856865
 48
0.0
 49
0.0
140
0.0
141
0.0
142
0.0225465839
143
1.0
 70
  1696
 72
     0
 73
     0
 74
     0
  7

 75
     0
147
0.0179189148
148
0.0
149
0.0
100
AcDbLayout
  1
Model
 70
     1
 71
     0
 10
0.0
 20
0.0
 11
420.0
 21
297.0
 12
0.0
 22
0.0
 32
0.0
 14
-4.0
 24
4.4
 34
0.0
 15
479.0
 25
130.0
 35
0.0
146
0.0
 13
0.0
 23
0.0
 33
0.0
 16
1.0
 26
0.0
 36
0.0
 17
0.0
 27
1.0
 37
0.0
 76
     0
330
1F
331
29
  0
MLINESTYLE
  5
18
102
{ACAD_REACTORS
330
17
102
}
330
17
100
AcDbMlineStyle
  2
Standard
 70
     0
  3

 62
   256
 51
90.0
 52
90.0
 71
     2
 49
0.5
 62
   256
  6
BYLAYER
 49
-0.5
 62
   256
  6
BYLAYER
  0
ACDBPLACEHOLDER
  5
F
102
{ACAD_REACTORS
330
E
102
}
330
E
  0
ENDSEC
  0
EOF
