  0
SECTION
  2
HEADER
  9
$ACADVER
  1
AC1015
  9
$ACADMAINTVER
 70
     6
  9
$DWGCODEPAGE
  3
ANSI_1251
  9
$INSBASE
 10
0.0
 20
0.0
 30
0.0
  9
$EXTMIN
 10
-2156.079172521
 20
6574.3362847468
 30
0.0
  9
$EXTMAX
 10
-2073.566383521
 20
6659.5734777468
 30
0.0
  9
$LIMMIN
 10
0.0
 20
0.0
  9
$LIMMAX
 10
420.0
 20
297.0
  9
$ORTHOMODE
 70
     0
  9
$REGENMODE
 70
     1
  9
$FILLMODE
 70
     1
  9
$QTEXTMODE
 70
     0
  9
$MIRRTEXT
 70
     1
  9
$LTSCALE
 40
1.0
  9
$ATTMODE
 70
     1
  9
$TEXTSIZE
 40
4.0
  9
$TRACEWID
 40
1.0
  9
$TEXTSTYLE
  7
Standard
  9
$CLAYER
  8
0
  9
$CELTYPE
  6
ByLayer
  9
$CECOLOR
 62
   256
  9
$CELTSCALE
 40
1.0
  9
$DISPSILH
 70
     0
  9
$DIMSCALE
 40
1.0
  9
$DIMASZ
 40
6.0
  9
$DIMEXO
 40
1.0
  9
$DIMDLI
 40
3.75
  9
$DIMRND
 40
0.0
  9
$DIMDLE
 40
0.0
  9
$DIMEXE
 40
1.0
  9
$DIMTP
 40
0.0
  9
$DIMTM
 40
0.0
  9
$DIMTXT
 40
4.0
  9
$DIMCEN
 40
2.5
  9
$DIMTSZ
 40
0.0
  9
$DIMTOL
 70
     0
  9
$DIMLIM
 70
     0
  9
$DIMTIH
 70
     1
  9
$DIMTOH
 70
     1
  9
$DIMSE1
 70
     0
  9
$DIMSE2
 70
     0
  9
$DIMTAD
 70
     1
  9
$DIMZIN
 70
     0
  9
$DIMBLK
  1

  9
$DIMASO
 70
     1
  9
$DIMSHO
 70
     1
  9
$DIMPOST
  1

  9
$DIMAPOST
  1

  9
$DIMALT
 70
     0
  9
$DIMALTD
 70
     3
  9
$DIMALTF
 40
0.0393700787
  9
$DIMLFAC
 40
1.0
  9
$DIMTOFL
 70
     1
  9
$DIMTVP
 40
0.0
  9
$DIMTIX
 70
     0
  9
$DIMSOXD
 70
     0
  9
$DIMSAH
 70
     0
  9
$DIMBLK1
  1

  9
$DIMBLK2
  1

  9
$DIMSTYLE
  2
ISO-25
  9
$DIMCLRD
 70
     0
  9
$DIMCLRE
 70
     0
  9
$DIMCLRT
 70
     0
  9
$DIMTFAC
 40
1.0
  9
$DIMGAP
 40
3.0
  9
$DIMJUST
 70
     0
  9
$DIMSD1
 70
     0
  9
$DIMSD2
 70
     0
  9
$DIMTOLJ
 70
     0
  9
$DIMTZIN
 70
     0
  9
$DIMALTZ
 70
     0
  9
$DIMALTTZ
 70
     0
  9
$DIMUPT
 70
     0
  9
$DIMDEC
 70
     2
  9
$DIMTDEC
 70
     4
  9
$DIMALTU
 70
     2
  9
$DIMALTTD
 70
     3
  9
$DIMTXSTY
  7
Standard
  9
$DIMAUNIT
 70
     0
  9
$DIMADEC
 70
     2
  9
$DIMALTRND
 40
0.0
  9
$DIMAZIN
 70
     0
  9
$DIMDSEP
 70
    44
  9
$DIMATFIT
 70
     3
  9
$DIMFRAC
 70
     0
  9
$DIMLDRBLK
  1

  9
$DIMLUNIT
 70
     2
  9
$DIMLWD
 70
    -2
  9
$DIMLWE
 70
    -2
  9
$DIMTMOVE
 70
     0
  9
$LUNITS
 70
     2
  9
$LUPREC
 70
     2
  9
$SKETCHINC
 40
1.0
  9
$FILLETRAD
 40
10.0
  9
$AUNITS
 70
     1
  9
$AUPREC
 70
     2
  9
$MENU
  1
.
  9
$ELEVATION
 40
0.0
  9
$PELEVATION
 40
0.0
  9
$THICKNESS
 40
0.0
  9
$LIMCHECK
 70
     0
  9
$CHAMFERA
 40
0.0
  9
$CHAMFERB
 40
0.0
  9
$CHAMFERC
 40
0.0
  9
$CHAMFERD
 40
0.0
  9
$SKPOLY
 70
     0
  9
$TDCREATE
 40
2460368.655009468
  9
$TDUCREATE
 40
2460368.571676134
  9
$TDUPDATE
 40
2460368.655037153
  9
$TDUUPDATE
 40
2460368.57170382
  9
$TDINDWG
 40
0.0000000116
  9
$TDUSRTIMER
 40
0.0000000116
  9
$USRTIMER
 70
     1
  9
$ANGBASE
 50
0.0
  9
$ANGDIR
 70
     0
  9
$PDMODE
 70
     0
  9
$PDSIZE
 40
-1.0
  9
$PLINEWID
 40
0.0
  9
$SPLFRAME
 70
     0
  9
$SPLINETYPE
 70
     6
  9
$SPLINESEGS
 70
     8
  9
$HANDSEED
  5
2DC
  9
$SURFTAB1
 70
     6
  9
$SURFTAB2
 70
     6
  9
$SURFTYPE
 70
     6
  9
$SURFU
 70
     6
  9
$SURFV
 70
     6
  9
$UCSBASE
  2

  9
$UCSNAME
  2

  9
$UCSORG
 10
0.0
 20
0.0
 30
0.0
  9
$UCSXDIR
 10
1.0
 20
0.0
 30
0.0
  9
$UCSYDIR
 10
0.0
 20
1.0
 30
0.0
  9
$UCSORTHOREF
  2

  9
$UCSORTHOVIEW
 70
     0
  9
$UCSORGTOP
 10
0.0
 20
0.0
 30
0.0
  9
$UCSORGBOTTOM
 10
0.0
 20
0.0
 30
0.0
  9
$UCSORGLEFT
 10
0.0
 20
0.0
 30
0.0
  9
$UCSORGRIGHT
 10
0.0
 20
0.0
 30
0.0
  9
$UCSORGFRONT
 10
0.0
 20
0.0
 30
0.0
  9
$UCSORGBACK
 10
0.0
 20
0.0
 30
0.0
  9
$PUCSBASE
  2

  9
$PUCSNAME
  2

  9
$PUCSORG
 10
0.0
 20
0.0
 30
0.0
  9
$PUCSXDIR
 10
1.0
 20
0.0
 30
0.0
  9
$PUCSYDIR
 10
0.0
 20
1.0
 30
0.0
  9
$PUCSORTHOREF
  2

  9
$PUCSORTHOVIEW
 70
     0
  9
$PUCSORGTOP
 10
0.0
 20
0.0
 30
0.0
  9
$PUCSORGBOTTOM
 10
0.0
 20
0.0
 30
0.0
  9
$PUCSORGLEFT
 10
0.0
 20
0.0
 30
0.0
  9
$PUCSORGRIGHT
 10
0.0
 20
0.0
 30
0.0
  9
$PUCSORGFRONT
 10
0.0
 20
0.0
 30
0.0
  9
$PUCSORGBACK
 10
0.0
 20
0.0
 30
0.0
  9
$USERI1
 70
     0
  9
$USERI2
 70
     0
  9
$USERI3
 70
     0
  9
$USERI4
 70
     0
  9
$USERI5
 70
     0
  9
$USERR1
 40
0.0
  9
$USERR2
 40
0.0
  9
$USERR3
 40
0.0
  9
$USERR4
 40
0.0
  9
$USERR5
 40
0.0
  9
$WORLDVIEW
 70
     1
  9
$SHADEDGE
 70
     3
  9
$SHADEDIF
 70
    70
  9
$TILEMODE
 70
     1
  9
$MAXACTVP
 70
    64
  9
$PINSBASE
 10
0.0
 20
0.0
 30
0.0
  9
$PLIMCHECK
 70
     0
  9
$PEXTMIN
 10
1.0000000000E+20
 20
1.0000000000E+20
 30
1.0000000000E+20
  9
$PEXTMAX
 10
-1.0000000000E+20
 20
-1.0000000000E+20
 30
-1.0000000000E+20
  9
$PLIMMIN
 10
0.0
 20
0.0
  9
$PLIMMAX
 10
420.0
 20
297.0
  9
$UNITMODE
 70
     0
  9
$VISRETAIN
 70
     1
  9
$PLINEGEN
 70
     0
  9
$PSLTSCALE
 70
     1
  9
$TREEDEPTH
 70
  3020
  9
$CMLSTYLE
  2
Standard
  9
$CMLJUST
 70
     0
  9
$CMLSCALE
 40
20.0
  9
$PROXYGRAPHICS
 70
     1
  9
$MEASUREMENT
 70
     1
  9
$CELWEIGHT
370
    -1
  9
$ENDCAPS
280
     0
  9
$JOINSTYLE
280
     0
  9
$LWDISPLAY
290
     1
  9
$INSUNITS
 70
     4
  9
$HYPERLINKBASE
  1

  9
$STYLESHEET
  1

  9
$XEDIT
290
     1
  9
$CEPSNTYPE
380
     0
  9
$PSTYLEMODE
290
     1
  9
$FINGERPRINTGUID
  2
{6e4bafa6-f59c-4ad7-bf6d-b57668c51975}
  9
$VERSIONGUID
  2
{FAEB1C32-E019-11D5-929B-00C0DF256EC4}
  9
$EXTNAMES
290
     1
  9
$PSVPSCALE
 40
0.0
  9
$OLESTARTUP
290
     0
  0
ENDSEC
  0
SECTION
  2
CLASSES
  0
CLASS
  1
ACDBDICTIONARYWDFLT
  2
AcDbDictionaryWithDefault
  3
ObjectDBX Classes
 90
        0
280
     0
281
     0
  0
CLASS
  1
VISUALSTYLE
  2
AcDbVisualStyle
  3
ObjectDBX Classes
 90
     4095
280
     0
281
     0
  0
CLASS
  1
MATERIAL
  2
AcDbMaterial
  3
ObjectDBX Classes
 90
     1153
280
     0
281
     0
  0
CLASS
  1
SCALE
  2
AcDbScale
  3
ObjectDBX Classes
 90
     1153
280
     0
281
     0
  0
CLASS
  1
TABLESTYLE
  2
AcDbTableStyle
  3
ObjectDBX Classes
 90
     4095
280
     0
281
     0
  0
CLASS
  1
MLEADERSTYLE
  2
AcDbMLeaderStyle
  3
ACDB_MLEADERSTYLE_CLASS
 90
     4095
280
     0
281
     0
  0
CLASS
  1
SUN
  2
AcDbSun
  3
SCENEOE
 90
     1153
280
     0
281
     0
  0
CLASS
  1
ACDBPLACEHOLDER
  2
AcDbPlaceHolder
  3
ObjectDBX Classes
 90
        0
280
     0
281
     0
  0
CLASS
  1
LAYOUT
  2
AcDbLayout
  3
ObjectDBX Classes
 90
        0
280
     0
281
     0
  0
ENDSEC
  0
SECTION
  2
TABLES
  0
TABLE
  2
VPORT
  5
8
330
0
100
AcDbSymbolTable
 70
     1
  0
VPORT
  5
29
330
8
100
AcDbSymbolTableRecord
100
AcDbViewportTableRecord
  2
*Active
 70
     0
 10
0.0
 20
0.0
 11
1.0
 21
1.0
 12
-2114.822778021
 22
6616.9548812468
 13
0.0
 23
0.0
 14
10.0
 24
10.0
 15
10.0
 25
10.0
 16
0.0
 26
0.0
 36
1.0
 17
0.0
 27
0.0
 37
0.0
 40
86.94193686
 41
0.9680373801
 42
50.0
 43
0.0
 44
0.0
 50
0.0
 51
0.0
 71
     0
 72
   100
 73
     1
 74
     3
 75
     0
 76
     0
 77
     0
 78
     0
281
     0
 65
     1
110
0.0
120
0.0
130
0.0
111
1.0
121
0.0
131
0.0
112
0.0
122
1.0
132
0.0
 79
     0
146
0.0
  0
ENDTAB
  0
TABLE
  2
LTYPE
  5
5
330
0
100
AcDbSymbolTable
 70
     6
  0
LTYPE
  5
14
330
5
100
AcDbSymbolTableRecord
100
AcDbLinetypeTableRecord
  2
ByBlock
 70
     0
  3

 72
    65
 73
     0
 40
0.0
  0
LTYPE
  5
15
330
5
100
AcDbSymbolTableRecord
100
AcDbLinetypeTableRecord
  2
ByLayer
 70
     0
  3

 72
    65
 73
     0
 40
0.0
  0
LTYPE
  5
16
330
5
100
AcDbSymbolTableRecord
100
AcDbLinetypeTableRecord
  2
Continuous
 70
     0
  3
Solid line
 72
    65
 73
     0
 40
0.0
  0
LTYPE
  5
6E
330
5
100
AcDbSymbolTableRecord
100
AcDbLinetypeTableRecord
  2
HIDDEN
 70
     0
  3
Hidden __ __ __ __ __ __ __ __ __ __ __ __ __ __
 72
    65
 73
     2
 40
1.905
 49
1.27
 74
     0
 49
-0.635
 74
     0
  0
LTYPE
  5
6F
330
5
100
AcDbSymbolTableRecord
100
AcDbLinetypeTableRecord
  2
PHANTOM
 70
     0
  3
Phantom ______  __  __  ______  __  __  ______
 72
    65
 73
     6
 40
12.7
 49
6.35
 74
     0
 49
-1.27
 74
     0
 49
1.27
 74
     0
 49
-1.27
 74
     0
 49
1.27
 74
     0
 49
-1.27
 74
     0
  0
LTYPE
  5
70
330
5
100
AcDbSymbolTableRecord
100
AcDbLinetypeTableRecord
  2
CENTER
 70
     0
  3
Center ____ _ ____ _ ____ _ ____ _ ____ _ ____
 72
    65
 73
     4
 40
10.16
 49
6.35
 74
     0
 49
-1.27
 74
     0
 49
1.27
 74
     0
 49
-1.27
 74
     0
  0
LTYPE
  5
71
330
5
100
AcDbSymbolTableRecord
100
AcDbLinetypeTableRecord
  2
CENTERX2
 70
     0
  3
Center (2x) ________  __  ________  __  _____
 72
    65
 73
     4
 40
20.32
 49
12.7
 74
     0
 49
-2.54
 74
     0
 49
2.54
 74
     0
 49
-2.54
 74
     0
  0
LTYPE
  5
72
330
5
100
AcDbSymbolTableRecord
100
AcDbLinetypeTableRecord
  2
DOT2
 70
     0
  3
Dot (.5x) ........................................
 72
    65
 73
     2
 40
0.635
 49
0.0
 74
     0
 49
-0.635
 74
     0
  0
ENDTAB
  0
TABLE
  2
LAYER
  5
2
330
0
100
AcDbSymbolTable
 70
     1
  0
LAYER
  5
10
330
2
100
AcDbSymbolTableRecord
100
AcDbLayerTableRecord
  2
0
 70
     0
 62
     7
  6
Continuous
370
    -3
390
F
  0
ENDTAB
  0
TABLE
  2
STYLE
  5
3
330
0
100
AcDbSymbolTable
 70
     1
  0
STYLE
  5
11
330
3
100
AcDbSymbolTableRecord
100
AcDbTextStyleTableRecord
  2
Standard
 70
     0
 40
0.0
 41
1.0
 50
0.0
 71
     0
 42
4.0
  3
txt
  4

  0
ENDTAB
  0
TABLE
  2
VIEW
  5
6
330
0
100
AcDbSymbolTable
 70
     0
  0
ENDTAB
  0
TABLE
  2
UCS
  5
7
330
0
100
AcDbSymbolTable
 70
     0
  0
ENDTAB
  0
TABLE
  2
APPID
  5
9
330
0
100
AcDbSymbolTable
 70
     1
  0
APPID
  5
12
330
9
100
AcDbSymbolTableRecord
100
AcDbRegAppTableRecord
  2
ACAD
 70
     0
  0
ENDTAB
  0
TABLE
  2
DIMSTYLE
  5
A
330
0
100
AcDbSymbolTable
 70
     1
100
AcDbDimStyleTable
  0
DIMSTYLE
105
27
330
A
100
AcDbSymbolTableRecord
100
AcDbDimStyleTableRecord
  2
ISO-25
 70
     0
 41
2.5
 42
0.625
 43
3.75
 44
1.25
 73
     0
 74
     0
 77
     1
 78
     8
140
2.5
141
2.5
143
0.0393700787
147
0.625
171
     3
172
     1
178
     0
271
     2
272
     2
274
     3
278
    44
283
     0
284
     8
340
11
  0
ENDTAB
  0
TABLE
  2
BLOCK_RECORD
  5
1
330
0
100
AcDbSymbolTable
 70
     1
  0
BLOCK_RECORD
  5
1F
330
1
100
AcDbSymbolTableRecord
100
AcDbBlockTableRecord
  2
*Model_Space
340
22
  0
BLOCK_RECORD
  5
1B
330
1
100
AcDbSymbolTableRecord
100
AcDbBlockTableRecord
  2
*Paper_Space
340
1E
  0
BLOCK_RECORD
  5
23
330
1
100
AcDbSymbolTableRecord
100
AcDbBlockTableRecord
  2
*Paper_Space0
340
26
  0
ENDTAB
  0
ENDSEC
  0
SECTION
  2
BLOCKS
  0
BLOCK
  5
20
330
1F
100
AcDbEntity
  8
0
100
AcDbBlockBegin
  2
*Model_Space
 70
     0
 10
0.0
 20
0.0
 30
0.0
  3
*Model_Space
  1

  0
ENDBLK
  5
21
330
1F
100
AcDbEntity
  8
0
100
AcDbBlockEnd
  0
BLOCK
  5
1C
330
1B
100
AcDbEntity
 67
     1
  8
0
100
AcDbBlockBegin
  2
*Paper_Space
 70
     0
 10
0.0
 20
0.0
 30
0.0
  3
*Paper_Space
  1

  0
ENDBLK
  5
1D
330
1B
100
AcDbEntity
 67
     1
  8
0
100
AcDbBlockEnd
  0
BLOCK
  5
24
330
23
100
AcDbEntity
  8
0
100
AcDbBlockBegin
  2
*Paper_Space0
 70
     0
 10
0.0
 20
0.0
 30
0.0
  3
*Paper_Space0
  1

  0
ENDBLK
  5
25
330
23
100
AcDbEntity
  8
0
100
AcDbBlockEnd
  0
ENDSEC
  0
SECTION
  2
ENTITIES
  0
SPLINE
  5
73
330
1F
100
AcDbEntity
  8
0
  6
Continuous
 62
     7
370
    25
100
AcDbSpline
210
0.0
220
0.0
230
1.0
 70
     8
 71
     3
 72
    15
 73
    11
 74
     0
 42
0.000000001
 43
0.00000001
 40
0.0
 40
0.0
 40
0.0
 40
0.0
 40
0.1691382693020971
 40
0.3176902073342466
 40
0.4474110356377995
 40
0.5634106106293771
 40
0.6687664326273852
 40
0.7731538901271353
 40
0.8800408488353577
 40
0.9999999999999999
 40
0.9999999999999999
 40
0.9999999999999999
 40
0.9999999999999999
 10
-2127.113398425803
 20
6625.41274494142
 30
0.0
 10
-2127.084289220275
 20
6625.412433046421
 30
0.0
 10
-2127.029613778828
 20
6625.411847218108
 30
0.0
 10
-2126.953749783901
 20
6625.398361070802
 30
0.0
 10
-2126.888174972119
 20
6625.379978788569
 30
0.0
 10
-2126.835160291928
 20
6625.350307313342
 30
0.0
 10
-2126.792021997909
 20
6625.313685537495
 30
0.0
 10
-2126.762908228207
 20
6625.26692173325
 30
0.0
 10
-2126.744429774525
 20
6625.212401206749
 30
0.0
 10
-2126.74269446059
 20
6625.173291515741
 30
0.0
 10
-2126.741776804181
 20
6625.152609806284
 30
0.0
  0
SPLINE
  5
77
330
1F
100
AcDbEntity
  8
0
  6
Continuous
 62
     7
370
    25
100
AcDbSpline
210
0.0
220
0.0
230
1.0
 70
     8
 71
     3
 72
    15
 73
    11
 74
     0
 42
0.000000001
 43
0.00000001
 40
0.0
 40
0.0
 40
0.0
 40
0.0
 40
0.1364411897142876
 40
0.2559957227679984
 40
0.3685080101434619
 40
0.4757423758333848
 40
0.5882546632087677
 40
0.7093427114892256
 40
0.8457839012035299
 40
1.0
 40
1.0
 40
1.0
 40
1.0
 10
-2125.106641669046
 20
6625.152609806284
 30
0.0
 10
-2125.105921220012
 20
6625.173234979238
 30
0.0
 10
-2125.104569488383
 20
6625.211932648678
 30
0.0
 10
-2125.090036526759
 20
6625.265987868044
 30
0.0
 10
-2125.067300094301
 20
6625.312442775737
 30
0.0
 10
-2125.03285320442
 20
6625.34954110244
 30
0.0
 10
-2124.990463060148
 20
6625.379516354898
 30
0.0
 10
-2124.937477221317
 20
6625.398280041202
 30
0.0
 10
-2124.876612940749
 20
6625.411817770126
 30
0.0
 10
-2124.832663132949
 20
6625.41242353595
 30
0.0
 10
-2124.809344371749
 20
6625.41274494142
 30
0.0
  0
SPLINE
  5
78
330
1F
100
AcDbEntity
  8
0
  6
Continuous
 62
     7
370
    25
100
AcDbSpline
210
0.0
220
0.0
230
1.0
 70
     8
 71
     3
 72
    15
 73
    11
 74
     0
 42
0.000000001
 43
0.00000001
 40
0.0
 40
0.0
 40
0.0
 40
0.0
 40
0.1678628092162925
 40
0.3148466165912681
 40
0.4441869603121472
 40
0.5592403382441523
 40
0.6652318690748263
 40
0.7706563435097235
 40
0.8787940473875396
 40
1.0
 40
1.0
 40
1.0
 40
1.0
 10
-2124.809344371749
 20
6625.41274494142
 30
0.0
 10
-2124.780282596594
 20
6625.411729974805
 30
0.0
 10
-2124.72577378894
 20
6625.409826284486
 30
0.0
 10
-2124.649301878906
 20
6625.399197699669
 30
0.0
 10
-2124.584402404931
 20
6625.378374271321
 30
0.0
 10
-2124.53067262897
 20
6625.349333804087
 30
0.0
 10
-2124.487943257224
 20
6625.311192933855
 30
0.0
 10
-2124.458825920057
 20
6625.263402196507
 30
0.0
 10
-2124.440389506485
 20
6625.207720442009
 30
0.0
 10
-2124.438644807195
 20
6625.167865943723
 30
0.0
 10
-2124.437722750127
 20
6625.146803218447
 30
0.0
  0
SPLINE
  5
7A
330
1F
100
AcDbEntity
  8
0
  6
Continuous
 62
     7
370
    25
100
AcDbSpline
210
0.0
220
0.0
230
1.0
 70
     8
 71
     3
 72
    15
 73
    11
 74
     0
 42
0.000000001
 43
0.00000001
 40
0.0
 40
0.0
 40
0.0
 40
0.0
 40
0.1212059526124566
 40
0.2293436564902694
 40
0.3347681309252357
 40
0.4407596617559064
 40
0.5558130396878666
 40
0.6851533834087417
 40
0.8321371907837126
 40
1.0
 40
1.0
 40
1.0
 40
1.0
 10
-2124.437722750127
 20
6620.178686664393
 30
0.0
 10
-2124.438644807195
 20
6620.157623939116
 30
0.0
 10
-2124.440389506485
 20
6620.117769440831
 30
0.0
 10
-2124.458825920057
 20
6620.062087686333
 30
0.0
 10
-2124.487943257223
 20
6620.014296948985
 30
0.0
 10
-2124.53067262897
 20
6619.976156078754
 30
0.0
 10
-2124.584402404931
 20
6619.947115611519
 30
0.0
 10
-2124.649301878906
 20
6619.926292183171
 30
0.0
 10
-2124.72577378894
 20
6619.915663598353
 30
0.0
 10
-2124.780282596594
 20
6619.913759908035
 30
0.0
 10
-2124.809344371749
 20
6619.91274494142
 30
0.0
  0
SPLINE
  5
7B
330
1F
100
AcDbEntity
  8
0
  6
Continuous
 62
     7
370
    25
100
AcDbSpline
210
0.0
220
0.0
230
1.0
 70
     8
 71
     3
 72
    15
 73
    11
 74
     0
 42
0.000000001
 43
0.00000001
 40
0.0
 40
0.0
 40
0.0
 40
0.0
 40
0.1528612850162348
 40
0.2874697277135279
 40
0.4083171843914339
 40
0.5197330343306593
 40
0.6278222855465628
 40
0.741506009934603
 40
0.8623534666125091
 40
1.0
 40
1.0
 40
1.0
 40
1.0
 10
-2124.809344371749
 20
6619.91274494142
 30
0.0
 10
-2124.832607292944
 20
6619.913758818964
 30
0.0
 10
-2124.876355359179
 20
6619.915665509083
 30
0.0
 10
-2124.937943268365
 20
6619.926429397474
 30
0.0
 10
-2124.990140493427
 20
6619.947537905611
 30
0.0
 10
-2125.033300684347
 20
6619.977007557025
 30
0.0
 10
-2125.067273494927
 20
6620.015545548347
 30
0.0
 10
-2125.090053761948
 20
6620.063003112958
 30
0.0
 10
-2125.104554466728
 20
6620.118229343088
 30
0.0
 10
-2125.105916431039
 20
6620.157679622188
 30
0.0
 10
-2125.106641669046
 20
6620.178686664393
 30
0.0
  0
SPLINE
  5
7F
330
1F
100
AcDbEntity
  8
0
  6
Continuous
 62
     7
370
    25
100
AcDbSpline
210
0.0
220
0.0
230
1.0
 70
     8
 71
     3
 72
    15
 73
    11
 74
     0
 42
0.000000001
 43
0.00000001
 40
0.0
 40
0.0
 40
0.0
 40
0.0
 40
0.1212059526124577
 40
0.2293436564902715
 40
0.3347681309252614
 40
0.4407596617559015
 40
0.5558130396878627
 40
0.6851533834087389
 40
0.8321371907837112
 40
1.0
 40
1.0
 40
1.0
 40
1.0
 10
-2126.741776804181
 20
6620.178686664393
 30
0.0
 10
-2126.74269886125
 20
6620.157623939116
 30
0.0
 10
-2126.744443560539
 20
6620.117769440831
 30
0.0
 10
-2126.762879974111
 20
6620.062087686333
 30
0.0
 10
-2126.791997311278
 20
6620.014296948985
 30
0.0
 10
-2126.834726683024
 20
6619.976156078753
 30
0.0
 10
-2126.888456458984
 20
6619.947115611519
 30
0.0
 10
-2126.953355932959
 20
6619.926292183171
 30
0.0
 10
-2127.029827842994
 20
6619.915663598353
 30
0.0
 10
-2127.084336650648
 20
6619.913759908035
 30
0.0
 10
-2127.113398425803
 20
6619.91274494142
 30
0.0
  0
SPLINE
  5
80
330
1F
100
AcDbEntity
  8
0
  6
Continuous
 62
     7
370
    25
100
AcDbSpline
210
0.0
220
0.0
230
1.0
 70
     8
 71
     3
 72
    15
 73
    11
 74
     0
 42
0.000000001
 43
0.00000001
 40
0.0
 40
0.0
 40
0.0
 40
0.0
 40
0.1528612850162332
 40
0.2874697277135725
 40
0.4083171843914323
 40
0.5197330343306964
 40
0.6278222855465667
 40
0.7415060099346058
 40
0.8623534666125106
 40
1.0
 40
1.0
 40
1.0
 40
1.0
 10
-2127.113398425803
 20
6619.91274494142
 30
0.0
 10
-2127.136661346998
 20
6619.913758818964
 30
0.0
 10
-2127.180409413233
 20
6619.915665509083
 30
0.0
 10
-2127.241997322418
 20
6619.926429397474
 30
0.0
 10
-2127.294194547481
 20
6619.947537905611
 30
0.0
 10
-2127.337354738401
 20
6619.977007557025
 30
0.0
 10
-2127.371327548981
 20
6620.015545548347
 30
0.0
 10
-2127.394107816002
 20
6620.063003112959
 30
0.0
 10
-2127.408608520781
 20
6620.118229343088
 30
0.0
 10
-2127.409970485093
 20
6620.157679622188
 30
0.0
 10
-2127.4106957231
 20
6620.178686664393
 30
0.0
  0
SPLINE
  5
82
330
1F
100
AcDbEntity
  8
0
  6
Continuous
 62
     7
370
    25
100
AcDbSpline
210
0.0
220
0.0
230
1.0
 70
     8
 71
     3
 72
    15
 73
    11
 74
     0
 42
0.000000001
 43
0.00000001
 40
0.0
 40
0.0
 40
0.0
 40
0.0
 40
0.1376465333874938
 40
0.2584939900654024
 40
0.3721777144533581
 40
0.4802669656692319
 40
0.591682815608555
 40
0.7125302722864186
 40
0.847138714983762
 40
1.0
 40
1.0
 40
1.0
 40
1.0
 10
-2127.4106957231
 20
6625.146803218447
 30
0.0
 10
-2127.409970485093
 20
6625.167810260653
 30
0.0
 10
-2127.408608520782
 20
6625.207260539752
 30
0.0
 10
-2127.394107816002
 20
6625.262486769881
 30
0.0
 10
-2127.371327548981
 20
6625.309944334493
 30
0.0
 10
-2127.337354738401
 20
6625.348482325816
 30
0.0
 10
-2127.294194547481
 20
6625.377951977228
 30
0.0
 10
-2127.241997322418
 20
6625.399060485366
 30
0.0
 10
-2127.180409413233
 20
6625.409824373756
 30
0.0
 10
-2127.136661346998
 20
6625.411731063875
 30
0.0
 10
-2127.113398425803
 20
6625.41274494142
 30
0.0
  0
SPLINE
  5
84
330
1F
100
AcDbEntity
  8
0
  6
Continuous
 62
     7
370
    25
100
AcDbSpline
210
0.0
220
0.0
230
1.0
 70
     8
 71
     3
 72
    15
 73
    11
 74
     0
 42
0.000000001
 43
0.00000001
 40
0.0
 40
0.0
 40
0.0
 40
0.0
 40
0.1364411897142876
 40
0.2559957227679984
 40
0.3685080101434619
 40
0.4757423758333848
 40
0.5882546632087677
 40
0.7093427114892256
 40
0.8457839012035299
 40
1.0
 40
1.0
 40
1.0
 40
1.0
 10
-2120.751236263641
 20
6625.152609806284
 30
0.0
 10
-2120.750515814606
 20
6625.173234979238
 30
0.0
 10
-2120.749164082978
 20
6625.211932648678
 30
0.0
 10
-2120.734631121354
 20
6625.265987868044
 30
0.0
 10
-2120.711894688895
 20
6625.312442775737
 30
0.0
 10
-2120.677447799014
 20
6625.34954110244
 30
0.0
 10
-2120.635057654743
 20
6625.379516354898
 30
0.0
 10
-2120.582071815912
 20
6625.398280041202
 30
0.0
 10
-2120.521207535344
 20
6625.411817770126
 30
0.0
 10
-2120.477257727543
 20
6625.41242353595
 30
0.0
 10
-2120.453938966344
 20
6625.41274494142
 30
0.0
  0
SPLINE
  5
85
330
1F
100
AcDbEntity
  8
0
  6
Continuous
 62
     7
370
    25
100
AcDbSpline
210
0.0
220
0.0
230
1.0
 70
     8
 71
     3
 72
    15
 73
    11
 74
     0
 42
0.000000001
 43
0.00000001
 40
0.0
 40
0.0
 40
0.0
 40
0.0
 40
0.1678628092162925
 40
0.3148466165912681
 40
0.4441869603121472
 40
0.5592403382441523
 40
0.6652318690748263
 40
0.7706563435097235
 40
0.8787940473875396
 40
1.0
 40
1.0
 40
1.0
 40
1.0
 10
-2120.453938966344
 20
6625.41274494142
 30
0.0
 10
-2120.424877191188
 20
6625.411729974805
 30
0.0
 10
-2120.370368383534
 20
6625.409826284486
 30
0.0
 10
-2120.2938964735
 20
6625.399197699669
 30
0.0
 10
-2120.228996999525
 20
6625.378374271321
 30
0.0
 10
-2120.175267223564
 20
6625.349333804087
 30
0.0
 10
-2120.132537851818
 20
6625.311192933855
 30
0.0
 10
-2120.103420514652
 20
6625.263402196507
 30
0.0
 10
-2120.08498410108
 20
6625.207720442009
 30
0.0
 10
-2120.08323940179
 20
6625.167865943723
 30
0.0
 10
-2120.082317344722
 20
6625.146803218447
 30
0.0
  0
SPLINE
  5
87
330
1F
100
AcDbEntity
  8
0
  6
Continuous
 62
     7
370
    25
100
AcDbSpline
210
0.0
220
0.0
230
1.0
 70
     8
 71
     3
 72
    15
 73
    11
 74
     0
 42
0.000000001
 43
0.00000001
 40
0.0
 40
0.0
 40
0.0
 40
0.0
 40
0.1212059526124566
 40
0.2293436564902694
 40
0.3347681309252357
 40
0.4407596617559064
 40
0.5558130396878666
 40
0.6851533834087417
 40
0.8321371907837126
 40
1.0
 40
1.0
 40
1.0
 40
1.0
 10
-2120.082317344722
 20
6620.178686664393
 30
0.0
 10
-2120.08323940179
 20
6620.157623939116
 30
0.0
 10
-2120.08498410108
 20
6620.117769440831
 30
0.0
 10
-2120.103420514652
 20
6620.062087686333
 30
0.0
 10
-2120.132537851818
 20
6620.014296948985
 30
0.0
 10
-2120.175267223564
 20
6619.976156078754
 30
0.0
 10
-2120.228996999525
 20
6619.947115611519
 30
0.0
 10
-2120.2938964735
 20
6619.926292183171
 30
0.0
 10
-2120.370368383534
 20
6619.915663598353
 30
0.0
 10
-2120.424877191188
 20
6619.913759908035
 30
0.0
 10
-2120.453938966344
 20
6619.91274494142
 30
0.0
  0
SPLINE
  5
88
330
1F
100
AcDbEntity
  8
0
  6
Continuous
 62
     7
370
    25
100
AcDbSpline
210
0.0
220
0.0
230
1.0
 70
     8
 71
     3
 72
    15
 73
    11
 74
     0
 42
0.000000001
 43
0.00000001
 40
0.0
 40
0.0
 40
0.0
 40
0.0
 40
0.1528612850162348
 40
0.2874697277135279
 40
0.4083171843914339
 40
0.5197330343306593
 40
0.6278222855465628
 40
0.741506009934603
 40
0.8623534666125091
 40
1.0
 40
1.0
 40
1.0
 40
1.0
 10
-2120.453938966344
 20
6619.91274494142
 30
0.0
 10
-2120.477201887538
 20
6619.913758818964
 30
0.0
 10
-2120.520949953773
 20
6619.915665509083
 30
0.0
 10
-2120.582537862959
 20
6619.926429397474
 30
0.0
 10
-2120.634735088021
 20
6619.947537905611
 30
0.0
 10
-2120.677895278941
 20
6619.977007557025
 30
0.0
 10
-2120.711868089522
 20
6620.015545548347
 30
0.0
 10
-2120.734648356542
 20
6620.063003112959
 30
0.0
 10
-2120.749149061322
 20
6620.118229343089
 30
0.0
 10
-2120.750511025634
 20
6620.157679622188
 30
0.0
 10
-2120.751236263641
 20
6620.178686664393
 30
0.0
  0
SPLINE
  5
8C
330
1F
100
AcDbEntity
  8
0
  6
Continuous
 62
     7
370
    25
100
AcDbSpline
210
0.0
220
0.0
230
1.0
 70
     8
 71
     3
 72
    15
 73
    11
 74
     0
 42
0.000000001
 43
0.00000001
 40
0.0
 40
0.0
 40
0.0
 40
0.0
 40
0.1212059526124577
 40
0.2293436564902715
 40
0.3347681309252614
 40
0.4407596617559015
 40
0.5558130396878627
 40
0.6851533834087389
 40
0.8321371907837112
 40
1.0
 40
1.0
 40
1.0
 40
1.0
 10
-2122.386371398776
 20
6620.178686664393
 30
0.0
 10
-2122.387293455844
 20
6620.157623939116
 30
0.0
 10
-2122.389038155134
 20
6620.117769440831
 30
0.0
 10
-2122.407474568706
 20
6620.062087686333
 30
0.0
 10
-2122.436591905872
 20
6620.014296948985
 30
0.0
 10
-2122.479321277618
 20
6619.976156078754
 30
0.0
 10
-2122.53305105358
 20
6619.947115611519
 30
0.0
 10
-2122.597950527554
 20
6619.926292183171
 30
0.0
 10
-2122.674422437588
 20
6619.915663598353
 30
0.0
 10
-2122.728931245242
 20
6619.913759908035
 30
0.0
 10
-2122.757993020397
 20
6619.91274494142
 30
0.0
  0
SPLINE
  5
8D
330
1F
100
AcDbEntity
  8
0
  6
Continuous
 62
     7
370
    25
100
AcDbSpline
210
0.0
220
0.0
230
1.0
 70
     8
 71
     3
 72
    15
 73
    11
 74
     0
 42
0.000000001
 43
0.00000001
 40
0.0
 40
0.0
 40
0.0
 40
0.0
 40
0.1528612850162332
 40
0.2874697277135725
 40
0.4083171843914323
 40
0.5197330343306964
 40
0.6278222855465667
 40
0.7415060099346058
 40
0.8623534666125106
 40
1.0
 40
1.0
 40
1.0
 40
1.0
 10
-2122.757993020397
 20
6619.91274494142
 30
0.0
 10
-2122.781255941592
 20
6619.913758818964
 30
0.0
 10
-2122.825004007827
 20
6619.915665509083
 30
0.0
 10
-2122.886591917013
 20
6619.926429397474
 30
0.0
 10
-2122.938789142076
 20
6619.947537905611
 30
0.0
 10
-2122.981949332996
 20
6619.977007557025
 30
0.0
 10
-2123.015922143576
 20
6620.015545548347
 30
0.0
 10
-2123.038702410597
 20
6620.063003112959
 30
0.0
 10
-2123.053203115376
 20
6620.118229343089
 30
0.0
 10
-2123.054565079688
 20
6620.157679622188
 30
0.0
 10
-2123.055290317694
 20
6620.178686664393
 30
0.0
  0
SPLINE
  5
8F
330
1F
100
AcDbEntity
  8
0
  6
Continuous
 62
     7
370
    25
100
AcDbSpline
210
0.0
220
0.0
230
1.0
 70
     8
 71
     3
 72
    15
 73
    11
 74
     0
 42
0.000000001
 43
0.00000001
 40
0.0
 40
0.0
 40
0.0
 40
0.0
 40
0.1376465333874938
 40
0.2584939900654024
 40
0.3721777144533581
 40
0.4802669656692319
 40
0.591682815608555
 40
0.7125302722864186
 40
0.847138714983762
 40
1.0
 40
1.0
 40
1.0
 40
1.0
 10
-2123.055290317694
 20
6625.146803218447
 30
0.0
 10
-2123.054565079688
 20
6625.167810260653
 30
0.0
 10
-2123.053203115376
 20
6625.207260539752
 30
0.0
 10
-2123.038702410597
 20
6625.262486769881
 30
0.0
 10
-2123.015922143576
 20
6625.309944334494
 30
0.0
 10
-2122.981949332996
 20
6625.348482325816
 30
0.0
 10
-2122.938789142076
 20
6625.377951977228
 30
0.0
 10
-2122.886591917013
 20
6625.399060485366
 30
0.0
 10
-2122.825004007827
 20
6625.409824373756
 30
0.0
 10
-2122.781255941592
 20
6625.411731063875
 30
0.0
 10
-2122.757993020397
 20
6625.41274494142
 30
0.0
  0
SPLINE
  5
90
330
1F
100
AcDbEntity
  8
0
  6
Continuous
 62
     7
370
    25
100
AcDbSpline
210
0.0
220
0.0
230
1.0
 70
     8
 71
     3
 72
    15
 73
    11
 74
     0
 42
0.000000001
 43
0.00000001
 40
0.0
 40
0.0
 40
0.0
 40
0.0
 40
0.1691382693020971
 40
0.3176902073342466
 40
0.4474110356377995
 40
0.5634106106293771
 40
0.6687664326273852
 40
0.7731538901271353
 40
0.8800408488353577
 40
0.9999999999999999
 40
0.9999999999999999
 40
0.9999999999999999
 40
0.9999999999999999
 10
-2122.757993020397
 20
6625.41274494142
 30
0.0
 10
-2122.728883814869
 20
6625.412433046421
 30
0.0
 10
-2122.674208373423
 20
6625.411847218108
 30
0.0
 10
-2122.598344378496
 20
6625.398361070802
 30
0.0
 10
-2122.532769566713
 20
6625.379978788569
 30
0.0
 10
-2122.479754886523
 20
6625.350307313342
 30
0.0
 10
-2122.436616592504
 20
6625.313685537495
 30
0.0
 10
-2122.407502822802
 20
6625.266921733251
 30
0.0
 10
-2122.38902436912
 20
6625.212401206749
 30
0.0
 10
-2122.387289055185
 20
6625.173291515741
 30
0.0
 10
-2122.386371398776
 20
6625.152609806284
 30
0.0
  0
SPLINE
  5
93
330
1F
100
AcDbEntity
  8
0
  6
Continuous
 62
     7
370
    25
100
AcDbSpline
210
0.0
220
0.0
230
1.0
 70
     8
 71
     3
 72
    15
 73
    11
 74
     0
 42
0.000000001
 43
0.00000001
 40
0.0
 40
0.0
 40
0.0
 40
0.0
 40
0.1192175102582581
 40
0.2297017703973051
 40
0.3334438581370461
 40
0.4396463856240449
 40
0.55492879957287
 40
0.6845266202811945
 40
0.8318030273728355
 40
1.0
 40
1.0
 40
1.0
 40
1.0
 10
-2115.726911939316
 20
6620.251849671149
 30
0.0
 10
-2115.727945895976
 20
6620.231208807319
 30
0.0
 10
-2115.729938067048
 20
6620.191439121188
 30
0.0
 10
-2115.747405662409
 20
6620.135716726939
 30
0.0
 10
-2115.777572132811
 20
6620.088511900572
 30
0.0
 10
-2115.81980497722
 20
6620.050447553779
 30
0.0
 10
-2115.873609452281
 20
6620.021450256363
 30
0.0
 10
-2115.938485333502
 20
6620.000613193381
 30
0.0
 10
-2116.014964738496
 20
6619.989988940022
 30
0.0
 10
-2116.069472397953
 20
6619.988084586142
 30
0.0
 10
-2116.098533560938
 20
6619.987069265744
 30
0.0
  0
SPLINE
  5
94
330
1F
100
AcDbEntity
  8
0
  6
Continuous
 62
     7
370
    25
100
AcDbSpline
210
0.0
220
0.0
230
1.0
 70
     8
 71
     3
 72
    15
 73
    11
 74
     0
 42
0.000000001
 43
0.00000001
 40
0.0
 40
0.0
 40
0.0
 40
0.0
 40
0.1535989970092253
 40
0.2888570630727292
 40
0.4102877322894035
 40
0.522241277621551
 40
0.630852169990261
 40
0.7428057153224888
 40
0.8642363845391632
 40
1.0
 40
1.0
 40
1.0
 40
1.0
 10
-2116.098533560938
 20
6619.987069265744
 30
0.0
 10
-2116.121796119642
 20
6619.988083321221
 30
0.0
 10
-2116.165543504178
 20
6619.989990345958
 30
0.0
 10
-2116.227135907868
 20
6620.000752028178
 30
0.0
 10
-2116.279318541623
 20
6620.021867698601
 30
0.0
 10
-2116.322527532171
 20
6620.051313396243
 30
0.0
 10
-2116.356093397191
 20
6620.089675323404
 30
0.0
 10
-2116.379537090038
 20
6620.136400170681
 30
0.0
 10
-2116.39358518324
 20
6620.191045273627
 30
0.0
 10
-2116.395054996606
 20
6620.230082176256
 30
0.0
 10
-2116.395830858236
 20
6620.250688353583
 30
0.0
  0
SPLINE
  5
96
330
1F
100
AcDbEntity
  8
0
  6
Continuous
 62
     7
370
    25
100
AcDbSpline
210
0.0
220
0.0
230
1.0
 70
     8
 71
     3
 72
    23
 73
    19
 74
     0
 42
0.000000001
 43
0.00000001
 40
0.0
 40
0.0
 40
0.0
 40
0.0
 40
0.0334262020353576
 40
0.0709252559820615
 40
0.1118634144878435
 40
0.1569064398987466
 40
0.2059791538484681
 40
0.258599939851086
 40
0.3152602697149522
 40
0.37572133612973
 40
0.4399866657894084
 40
0.5083974803188999
 40
0.5806187561822722
 40
0.6566525006817047
 40
0.7367390392849456
 40
0.8206408278564934
 40
0.9083591900053912
 40
1.0
 40
1.0
 40
1.0
 40
1.0
 10
-2116.395830858236
 20
6624.249104738718
 30
0.0
 10
-2116.409082762331
 20
6624.201015930844
 30
0.0
 10
-2116.437201263179
 20
6624.098978882043
 30
0.0
 10
-2116.487872484432
 20
6623.939913768225
 30
0.0
 10
-2116.544487501975
 20
6623.764574562154
 30
0.0
 10
-2116.611347411108
 20
6623.574453646552
 30
0.0
 10
-2116.685085614757
 20
6623.368291046861
 30
0.0
 10
-2116.768239264608
 20
6623.147112033353
 30
0.0
 10
-2116.858532807851
 20
6622.910473509008
 30
0.0
 10
-2116.957422099065
 20
6622.658527914699
 30
0.0
 10
-2117.064284983996
 20
6622.39088192155
 30
0.0
 10
-2117.180523721257
 20
6622.108101014057
 30
0.0
 10
-2117.304720396103
 20
6621.809611388997
 30
0.0
 10
-2117.437458603578
 20
6621.495812177348
 30
0.0
 10
-2117.57768316858
 20
6621.166256742193
 30
0.0
 10
-2117.726505564119
 20
6620.821417623483
 30
0.0
 10
-2117.882988387431
 20
6620.461105468294
 30
0.0
 10
-2117.991686705674
 20
6620.216543183986
 30
0.0
 10
-2118.047224439316
 20
6620.091587846826
 30
0.0
  0
SPLINE
  5
97
330
1F
100
AcDbEntity
  8
0
  6
Continuous
 62
     7
370
    25
100
AcDbSpline
210
0.0
220
0.0
230
1.0
 70
     8
 71
     3
 72
    11
 73
     7
 74
     0
 42
0.000000001
 43
0.00000001
 40
0.0
 40
0.0
 40
0.0
 40
0.0
 40
0.2328090547617472
 40
0.4629430035605054
 40
0.7138780282479135
 40
1.0
 40
1.0
 40
1.0
 40
1.0
 10
-2118.047224439316
 20
6620.091587846826
 30
0.0
 10
-2118.065384376428
 20
6620.064192410338
 30
0.0
 10
-2118.101495582841
 20
6620.009716326215
 30
0.0
 10
-2118.186127794123
 20
6619.952406913383
 30
0.0
 10
-2118.289341486967
 20
6619.918410177279
 30
0.0
 10
-2118.364740659229
 20
6619.914714073913
 30
0.0
 10
-2118.404910250127
 20
6619.91274494142
 30
0.0
  0
SPLINE
  5
98
330
1F
100
AcDbEntity
  8
0
  6
Continuous
 62
     7
370
    25
100
AcDbSpline
210
0.0
220
0.0
230
1.0
 70
     8
 71
     3
 72
    15
 73
    11
 74
     0
 42
0.000000001
 43
0.00000001
 40
0.0
 40
0.0
 40
0.0
 40
0.0
 40
0.1464537970123386
 40
0.2740558316442625
 40
0.3917684023119706
 40
0.4994269965369094
 40
0.6105024493604774
 40
0.7260022282037576
 40
0.855976208059857
 40
1.0
 40
1.0
 40
1.0
 40
1.0
 10
-2118.404910250127
 20
6619.91274494142
 30
0.0
 10
-2118.428224268797
 20
6619.913473809811
 30
0.0
 10
-2118.471851289098
 20
6619.914837725513
 30
0.0
 10
-2118.532900488598
 20
6619.929094877681
 30
0.0
 10
-2118.584580147395
 20
6619.951891545027
 30
0.0
 10
-2118.627614282095
 20
6619.984628329412
 30
0.0
 10
-2118.660168070345
 20
6620.027318312266
 30
0.0
 10
-2118.684028149931
 20
6620.079158593933
 30
0.0
 10
-2118.697509626571
 20
6620.140074707926
 30
0.0
 10
-2118.699066539063
 20
6620.183652249942
 30
0.0
 10
-2118.69988491229
 20
6620.206558286014
 30
0.0
  0
SPLINE
  5
9A
330
1F
100
AcDbEntity
  8
0
  6
Continuous
 62
     7
370
    25
100
AcDbSpline
210
0.0
220
0.0
230
1.0
 70
     8
 71
     3
 72
    15
 73
    11
 74
     0
 42
0.000000001
 43
0.00000001
 40
0.0
 40
0.0
 40
0.0
 40
0.0
 40
0.1373554302530912
 40
0.2604035025254591
 40
0.37158372355096
 40
0.4813661282243975
 40
0.5925463492500002
 40
0.7131382304872207
 40
0.8474619951863289
 40
1.0
 40
1.0
 40
1.0
 40
1.0
 10
-2118.69988491229
 20
6625.219966225204
 30
0.0
 10
-2118.699084046415
 20
6625.240945127325
 30
0.0
 10
-2118.697565735284
 20
6625.280717705529
 30
0.0
 10
-2118.683897060243
 20
6625.33631450048
 30
0.0
 10
-2118.659765201423
 20
6625.383363962651
 30
0.0
 10
-2118.627027534292
 20
6625.422826550534
 30
0.0
 10
-2118.58331342975
 20
6625.452221484991
 30
0.0
 10
-2118.531208285341
 20
6625.47340178613
 30
0.0
 10
-2118.469592012909
 20
6625.484143560401
 30
0.0
 10
-2118.425848248632
 20
6625.48605360465
 30
0.0
 10
-2118.402587614992
 20
6625.487069265744
 30
0.0
  0
SPLINE
  5
9B
330
1F
100
AcDbEntity
  8
0
  6
Continuous
 62
     7
370
    25
100
AcDbSpline
210
0.0
220
0.0
230
1.0
 70
     8
 71
     3
 72
    15
 73
    11
 74
     0
 42
0.000000001
 43
0.00000001
 40
0.0
 40
0.0
 40
0.0
 40
0.0
 40
0.1675680039011914
 40
0.3142936742424005
 40
0.4434068668690942
 40
0.558258184871961
 40
0.6655816592802716
 40
0.7689358058594497
 40
0.8790069126387494
 40
1.0
 40
1.0
 40
1.0
 40
1.0
 10
-2118.402587614992
 20
6625.487069265744
 30
0.0
 10
-2118.373528768881
 20
6625.486051479062
 30
0.0
 10
-2118.319025454999
 20
6625.484142499372
 30
0.0
 10
-2118.242517683891
 20
6625.473548441395
 30
0.0
 10
-2118.177731093965
 20
6625.452616328916
 30
0.0
 10
-2118.123409153932
 20
6625.423795426747
 30
0.0
 10
-2118.081987517884
 20
6625.384457135184
 30
0.0
 10
-2118.051398852839
 20
6625.337326012835
 30
0.0
 10
-2118.033891498024
 20
6625.281145803438
 30
0.0
 10
-2118.03197141453
 20
6625.240992082196
 30
0.0
 10
-2118.030965993371
 20
6625.219966225204
 30
0.0
  0
SPLINE
  5
9D
330
1F
100
AcDbEntity
  8
0
  6
Continuous
 62
     7
370
    25
100
AcDbSpline
210
0.0
220
0.0
230
1.0
 70
     8
 71
     3
 72
    23
 73
    19
 74
     0
 42
0.000000001
 43
0.00000001
 40
0.0
 40
0.0
 40
0.0
 40
0.0
 40
0.0333964054255473
 40
0.0706152794128619
 40
0.1118491904857347
 40
0.156861277940125
 40
0.2056604075302337
 40
0.2582535298716253
 40
0.3149813657476618
 40
0.3755144664322012
 40
0.4397603508375979
 40
0.508252671092348
 40
0.5804605573355207
 40
0.6565848896394112
 40
0.7364261993995984
 40
0.8204279498876194
 40
0.9083548486788572
 40
1.0
 40
1.0
 40
1.0
 40
1.0
 10
-2118.030965993371
 20
6621.150709468447
 30
0.0
 10
-2118.018125953751
 20
6621.198803076521
 30
0.0
 10
-2117.990976235873
 20
6621.300494966074
 30
0.0
 10
-2117.941141685956
 20
6621.459602361684
 30
0.0
 10
-2117.884560337025
 20
6621.634691013212
 30
0.0
 10
-2117.819311947149
 20
6621.825100530564
 30
0.0
 10
-2117.746038762014
 20
6622.030627806301
 30
0.0
 10
-2117.66465952392
 20
6622.251793640738
 30
0.0
 10
-2117.574050815502
 20
6622.488174432021
 30
0.0
 10
-2117.474902966929
 20
6622.739859041707
 30
0.0
 10
-2117.369897712289
 20
6623.008092919356
 30
0.0
 10
-2117.252833812224
 20
6623.290224409066
 30
0.0
 10
-2117.130609088534
 20
6623.589368937144
 30
0.0
 10
-2116.997374144499
 20
6623.902251147323
 30
0.0
 10
-2116.858359745705
 20
6624.231765901898
 30
0.0
 10
-2116.709841803679
 20
6624.576358035351
 30
0.0
 10
-2116.551483788895
 20
6624.935846698192
 30
0.0
 10
-2116.443813048364
 20
6625.18086028379
 30
0.0
 10
-2116.38886295283
 20
6625.305903725203
 30
0.0
  0
SPLINE
  5
9E
330
1F
100
AcDbEntity
  8
0
  6
Continuous
 62
     7
370
    25
100
AcDbSpline
210
0.0
220
0.0
230
1.0
 70
     8
 71
     3
 72
    11
 73
     7
 74
     0
 42
0.000000001
 43
0.00000001
 40
0.0
 40
0.0
 40
0.0
 40
0.0
 40
0.2670118619317493
 40
0.5105832502389367
 40
0.7477324693016522
 40
0.9999999999999999
 40
0.9999999999999999
 40
0.9999999999999999
 40
0.9999999999999999
 10
-2116.38886295283
 20
6625.305903725203
 30
0.0
 10
-2116.371631363444
 20
6625.333313989618
 30
0.0
 10
-2116.338680913784
 20
6625.385728222426
 30
0.0
 10
-2116.268746862424
 20
6625.445023746144
 30
0.0
 10
-2116.18603889523
 20
6625.480846999714
 30
0.0
 10
-2116.126763926092
 20
6625.484952899349
 30
0.0
 10
-2116.096210925803
 20
6625.487069265744
 30
0.0
  0
SPLINE
  5
9F
330
1F
100
AcDbEntity
  8
0
  6
Continuous
 62
     7
370
    25
100
AcDbSpline
210
0.0
220
0.0
230
1.0
 70
     8
 71
     3
 72
    15
 73
    11
 74
     0
 42
0.000000001
 43
0.00000001
 40
0.0
 40
0.0
 40
0.0
 40
0.0
 40
0.1624566800599665
 40
0.3033020102420543
 40
0.4291664366098188
 40
0.5438062297015178
 40
0.6493516081969612
 40
0.7569385026546366
 40
0.8719246710993165
 40
1.0
 40
1.0
 40
1.0
 40
1.0
 10
-2116.096210925803
 20
6625.487069265744
 30
0.0
 10
-2116.067093072638
 20
6625.4863822938
 30
0.0
 10
-2116.012730867306
 20
6625.485099736682
 30
0.0
 10
-2115.937065801015
 20
6625.470538824381
 30
0.0
 10
-2115.871693486523
 20
6625.449692315783
 30
0.0
 10
-2115.8183930064
 20
6625.416824246378
 30
0.0
 10
-2115.777044415133
 20
6625.374411639103
 30
0.0
 10
-2115.74738690917
 20
6625.32306710381
 30
0.0
 10
-2115.729734990296
 20
6625.262118841247
 30
0.0
 10
-2115.727886143861
 20
6625.218540893296
 30
0.0
 10
-2115.726911939316
 20
6625.195578556284
 30
0.0
  0
SPLINE
  5
A1
330
1F
100
AcDbEntity
  8
0
  6
Continuous
 62
     7
370
    25
100
AcDbSpline
210
0.0
220
0.0
230
1.0
 70
     8
 71
     3
 72
    15
 73
    11
 74
     0
 42
0.000000001
 43
0.00000001
 40
0.0
 40
0.0
 40
0.0
 40
0.0
 40
0.1274086638640703
 40
0.2492093999587706
 40
0.3720839042325276
 40
0.4997357737771653
 40
0.6273876433217869
 40
0.7507906000412418
 40
0.8725913361359278
 40
1.0
 40
1.0
 40
1.0
 40
1.0
 10
-2132.184639979857
 20
6620.507339536015
 30
0.0
 10
-2132.139875795232
 20
6620.509849219666
 30
0.0
 10
-2132.052317734017
 20
6620.514758122546
 30
0.0
 10
-2131.925821505821
 20
6620.552050685359
 30
0.0
 10
-2131.810309570179
 20
6620.614985268119
 30
0.0
 10
-2131.707967252662
 20
6620.700790162501
 30
0.0
 10
-2131.62242281461
 20
6620.803400013539
 30
0.0
 10
-2131.557857093962
 20
6620.91825861493
 30
0.0
 10
-2131.520897052082
 20
6621.045140246666
 30
0.0
 10
-2131.515935186641
 20
6621.132670039914
 30
0.0
 10
-2131.513398425803
 20
6621.177419772501
 30
0.0
  0
SPLINE
  5
A3
330
1F
100
AcDbEntity
  8
0
  6
Continuous
 62
     7
370
    25
100
AcDbSpline
210
0.0
220
0.0
230
1.0
 70
     8
 71
     3
 72
    15
 73
    11
 74
     0
 42
0.000000001
 43
0.00000001
 40
0.0
 40
0.0
 40
0.0
 40
0.0
 40
0.1276684251884593
 40
0.2497174891406464
 40
0.3724052965255798
 40
0.499469631743448
 40
0.627381758461246
 40
0.7490098240592443
 40
0.8724320578182829
 40
1.0
 40
1.0
 40
1.0
 40
1.0
 10
-2131.513398425803
 20
6621.921824333313
 30
0.0
 10
-2131.515947566279
 20
6621.966569079194
 30
0.0
 10
-2131.520933646103
 20
6622.054089118523
 30
0.0
 10
-2131.557622203149
 20
6622.180713034969
 30
0.0
 10
-2131.622439282931
 20
6622.294790137839
 30
0.0
 10
-2131.708384594101
 20
6622.396103247444
 30
0.0
 10
-2131.809735267047
 20
6622.48192684584
 30
0.0
 10
-2131.925767151911
 20
6622.543586261695
 30
0.0
 10
-2132.051681992239
 20
6622.582694420387
 30
0.0
 10
-2132.139835295807
 20
6622.586490981736
 30
0.0
 10
-2132.184639979857
 20
6622.588420617095
 30
0.0
  0
SPLINE
  5
A7
330
1F
100
AcDbEntity
  8
0
  6
Continuous
 62
     7
370
    25
100
AcDbSpline
210
0.0
220
0.0
230
1.0
 70
     8
 71
     3
 72
    15
 73
    11
 74
     0
 42
0.000000001
 43
0.00000001
 40
0.0
 40
0.0
 40
0.0
 40
0.0
 40
0.1276284167036375
 40
0.2508071631833419
 40
0.374283648780193
 40
0.5036065028316304
 40
0.632787310711476
 40
0.7548054560999303
 40
0.8757928466041792
 40
0.9999999999999999
 40
0.9999999999999999
 40
0.9999999999999999
 40
0.9999999999999999
 10
-2132.389031871749
 20
6623.183015211691
 30
0.0
 10
-2132.345781051958
 20
6623.185021341897
 30
0.0
 10
-2132.260787320175
 20
6623.188963660066
 30
0.0
 10
-2132.138826453844
 20
6623.227089400048
 30
0.0
 10
-2132.026009726693
 20
6623.287208459802
 30
0.0
 10
-2131.926723946544
 20
6623.370979178635
 30
0.0
 10
-2131.842304138778
 20
6623.468904477807
 30
0.0
 10
-2131.780232303257
 20
6623.579233565787
 30
0.0
 10
-2131.742514813341
 20
6623.698924766278
 30
0.0
 10
-2131.738437052618
 20
6623.781986354714
 30
0.0
 10
-2131.736371398776
 20
6623.824062508987
 30
0.0
  0
SPLINE
  5
A9
330
1F
100
AcDbEntity
  8
0
  6
Continuous
 62
     7
370
    25
100
AcDbSpline
210
0.0
220
0.0
230
1.0
 70
     8
 71
     3
 72
    15
 73
    11
 74
     0
 42
0.000000001
 43
0.00000001
 40
0.0
 40
0.0
 40
0.0
 40
0.0
 40
0.1245304651428718
 40
0.2458327863376676
 40
0.3671677054605089
 40
0.4958115956037876
 40
0.6247420892948293
 40
0.7485399847073085
 40
0.8720393659864566
 40
1.0
 40
1.0
 40
1.0
 40
1.0
 10
-2131.736371398776
 20
6624.180587002231
 30
0.0
 10
-2131.738450695118
 20
6624.222656128677
 30
0.0
 10
-2131.742555387195
 20
6624.305703843636
 30
0.0
 10
-2131.779972354016
 20
6624.425171665514
 30
0.0
 10
-2131.842398458763
 20
6624.534598275928
 30
0.0
 10
-2131.926723464109
 20
6624.631471963581
 30
0.0
 10
-2132.0263791148
 20
6624.713880180547
 30
0.0
 10
-2132.138786977208
 20
6624.774126591112
 30
0.0
 10
-2132.260797596004
 20
6624.812188770754
 30
0.0
 10
-2132.345784517508
 20
6624.816139789267
 30
0.0
 10
-2132.389031871749
 20
6624.818150346825
 30
0.0
  0
SPLINE
  5
AD
330
1F
100
AcDbEntity
  8
0
  6
Continuous
 62
     7
370
    25
100
AcDbSpline
210
0.0
220
0.0
230
1.0
 70
     8
 71
     3
 72
    15
 73
    11
 74
     0
 42
0.000000001
 43
0.00000001
 40
0.0
 40
0.0
 40
0.0
 40
0.0
 40
0.1472985846902878
 40
0.2756504930886866
 40
0.3928141444239134
 40
0.5033990299456528
 40
0.6118667949945528
 40
0.7290304463298729
 40
0.8553653506994987
 40
1.0
 40
1.0
 40
1.0
 40
1.0
 10
-2133.546865486614
 20
6619.91274494142
 30
0.0
 10
-2133.568197328765
 20
6619.913740309461
 30
0.0
 10
-2133.608117147544
 20
6619.915603013656
 30
0.0
 10
-2133.664390516192
 20
6619.926537607456
 30
0.0
 10
-2133.711830497073
 20
6619.947883228304
 30
0.0
 10
-2133.751409604063
 20
6619.97712664827
 30
0.0
 10
-2133.781576959189
 20
6620.016182211756
 30
0.0
 10
-2133.801900563279
 20
6620.063345607253
 30
0.0
 10
-2133.815098823983
 20
6620.118372591695
 30
0.0
 10
-2133.81663338277
 20
6620.157696730485
 30
0.0
 10
-2133.817452479857
 20
6620.178686664393
 30
0.0
  0
SPLINE
  5
AF
330
1F
100
AcDbEntity
  8
0
  6
Continuous
 62
     7
370
    25
100
AcDbSpline
210
0.0
220
0.0
230
1.0
 70
     8
 71
     3
 72
    15
 73
    11
 74
     0
 42
0.000000001
 43
0.00000001
 40
0.0
 40
0.0
 40
0.0
 40
0.0
 40
0.1451733701004086
 40
0.2713822329809646
 40
0.3889822838668708
 40
0.4995248231294171
 40
0.6083965981540628
 40
0.725996649039969
 40
0.8548266298995912
 40
1.0
 40
1.0
 40
1.0
 40
1.0
 10
-2133.817452479857
 20
6625.146803218447
 30
0.0
 10
-2133.816490436827
 20
6625.167766481177
 30
0.0
 10
-2133.814692025827
 20
6625.206954501998
 30
0.0
 10
-2133.803303036319
 20
6625.262229377734
 30
0.0
 10
-2133.78285629003
 20
6625.309775125492
 30
0.0
 10
-2133.751408296598
 20
6625.347575961472
 30
0.0
 10
-2133.712962905036
 20
6625.378033320813
 30
0.0
 10
-2133.665475079251
 20
6625.398862538453
 30
0.0
 10
-2133.609682572401
 20
6625.409833957418
 30
0.0
 10
-2133.570139149877
 20
6625.41173678105
 30
0.0
 10
-2133.549188121749
 20
6625.41274494142
 30
0.0
  0
SPLINE
  5
B1
330
1F
100
AcDbEntity
  8
0
  6
Continuous
 62
     7
370
    25
100
AcDbSpline
210
0.0
220
0.0
230
1.0
 70
     8
 71
     3
 72
    23
 73
    19
 74
     0
 42
0.000000001
 43
0.00000001
 40
0.0
 40
0.0
 40
0.0
 40
0.0
 40
0.0699971325042253
 40
0.1369889410780269
 40
0.2025818669322398
 40
0.2663268833207318
 40
0.3299959998499121
 40
0.393196874688303
 40
0.4576209660458723
 40
0.5225816115471971
 40
0.5870057029047572
 40
0.6493260697673596
 40
0.7088254174031478
 40
0.7677033068043776
 40
0.8250025883224703
 40
0.8828865868295699
 40
0.940570350960133
 40
1.0
 40
1.0
 40
1.0
 40
1.0
 10
-2132.382063966344
 20
6625.41274494142
 30
0.0
 10
-2132.335931288945
 20
6625.411728256111
 30
0.0
 10
-2132.245646638706
 20
6625.409738536838
 30
0.0
 10
-2132.113271809468
 20
6625.391183021205
 30
0.0
 10
-2131.986609664324
 20
6625.364289458434
 30
0.0
 10
-2131.865788195426
 20
6625.323987737826
 30
0.0
 10
-2131.750637771344
 20
6625.273368841316
 30
0.0
 10
-2131.641744264404
 20
6625.209516357197
 30
0.0
 10
-2131.538425333797
 20
6625.135562079993
 30
0.0
 10
-2131.442881641599
 20
6625.050629152645
 30
0.0
 10
-2131.354853807089
 20
6624.959908757232
 30
0.0
 10
-2131.278271043891
 20
6624.863783370984
 30
0.0
 10
-2131.213610965696
 20
6624.763672360352
 30
0.0
 10
-2131.159860003437
 20
6624.660933183872
 30
0.0
 10
-2131.119099484529
 20
6624.55353784922
 30
0.0
 10
-2131.088544422628
 20
6624.443673065286
 30
0.0
 10
-2131.070709788669
 20
6624.329430076421
 30
0.0
 10
-2131.068548986947
 20
6624.252262749202
 30
0.0
 10
-2131.067452479857
 20
6624.213103894122
 30
0.0
  0
SPLINE
  5
B3
330
1F
100
AcDbEntity
  8
0
  6
Continuous
 62
     7
370
    25
100
AcDbSpline
210
0.0
220
0.0
230
1.0
 70
     8
 71
     3
 72
    15
 73
    11
 74
     0
 42
0.000000001
 43
0.00000001
 40
0.0
 40
0.0
 40
0.0
 40
0.0
 40
0.1326594996416407
 40
0.2606826456506495
 40
0.3835988237724193
 40
0.5044542511718662
 40
0.6251139792614028
 40
0.7464377970801951
 40
0.8714347708675838
 40
1.0
 40
1.0
 40
1.0
 40
1.0
 10
-2131.067452479857
 20
6623.839159637367
 30
0.0
 10
-2131.06896196048
 20
6623.794971684521
 30
0.0
 10
-2131.071928166468
 20
6623.708140115847
 30
0.0
 10
-2131.090154384818
 20
6623.581352765122
 30
0.0
 10
-2131.122645192272
 20
6623.461432717609
 30
0.0
 10
-2131.170327944923
 20
6623.349552485869
 30
0.0
 10
-2131.227506849
 20
6623.242676056252
 30
0.0
 10
-2131.301409388995
 20
6623.144908684892
 30
0.0
 10
-2131.385491947957
 20
6623.052106140046
 30
0.0
 10
-2131.451099884393
 20
6622.998722735683
 30
0.0
 10
-2131.484365486614
 20
6622.971655414392
 30
0.0
  0
SPLINE
  5
B4
330
1F
100
AcDbEntity
  8
0
  6
Continuous
 62
     7
370
    25
100
AcDbSpline
210
0.0
220
0.0
230
1.0
 70
     8
 71
     3
 72
    15
 73
    11
 74
     0
 42
0.000000001
 43
0.00000001
 40
0.0
 40
0.0
 40
0.0
 40
0.0
 40
0.1163154394521565
 40
0.2345647128656943
 40
0.3584180389837502
 40
0.4893481039549546
 40
0.6213683425081221
 40
0.7487484467134377
 40
0.8742380891698311
 40
1.0
 40
1.0
 40
1.0
 40
1.0
 10
-2131.484365486614
 20
6622.971655414392
 30
0.0
 10
-2131.439688870875
 20
6622.949159025031
 30
0.0
 10
-2131.349592856177
 20
6622.903792226471
 30
0.0
 10
-2131.229330374016
 20
6622.806429917997
 30
0.0
 10
-2131.11908486647
 20
6622.689821190685
 30
0.0
 10
-2131.025204408072
 20
6622.552344377138
 30
0.0
 10
-2130.945428191502
 20
6622.404792537896
 30
0.0
 10
-2130.8859934447
 20
6622.250189294151
 30
0.0
 10
-2130.851537646739
 20
6622.090574263377
 30
0.0
 10
-2130.846833919231
 20
6621.982758525059
 30
0.0
 10
-2130.844479506884
 20
6621.928792238717
 30
0.0
  0
SPLINE
  5
B6
330
1F
100
AcDbEntity
  8
0
  6
Continuous
 62
     7
370
    25
100
AcDbSpline
210
0.0
220
0.0
230
1.0
 70
     8
 71
     3
 72
    23
 73
    19
 74
     0
 42
0.000000001
 43
0.00000001
 40
0.0
 40
0.0
 40
0.0
 40
0.0
 40
0.0573718688435185
 40
0.1142717744853549
 40
0.1712775514510571
 40
0.2292072316113898
 40
0.2887537053420817
 40
0.3497535252114249
 40
0.4136630964478203
 40
0.4804032883989323
 40
0.5476011670425165
 40
0.6128875258051872
 40
0.6770090262773645
 40
0.7404371873975993
 40
0.8035874726883392
 40
0.8673185838669387
 40
0.9327996288997126
 40
1.0
 40
1.0
 40
1.0
 40
1.0
 10
-2130.844479506884
 20
6621.151870786014
 30
0.0
 10
-2130.84547313187
 20
6621.113464616511
 30
0.0
 10
-2130.847452207898
 20
6621.036968221519
 30
0.0
 10
-2130.867220896407
 20
6620.923785804419
 30
0.0
 10
-2130.897080482847
 20
6620.812633509506
 30
0.0
 10
-2130.940615466488
 20
6620.704065846159
 30
0.0
 10
-2130.996506270244
 20
6620.598342215412
 30
0.0
 10
-2131.065070062898
 20
6620.495609427277
 30
0.0
 10
-2131.143650741466
 20
6620.394138988882
 30
0.0
 10
-2131.234957486916
 20
6620.298099414248
 30
0.0
 10
-2131.333472903911
 20
6620.20823343938
 30
0.0
 10
-2131.438184694467
 20
6620.128257296697
 30
0.0
 10
-2131.549262843025
 20
6620.062272671028
 30
0.0
 10
-2131.664425220266
 20
6620.006962456752
 30
0.0
 10
-2131.784968253704
 20
6619.965252267462
 30
0.0
 10
-2131.910155570152
 20
6619.935010066319
 30
0.0
 10
-2132.040421662427
 20
6619.915674625796
 30
0.0
 10
-2132.129215761677
 20
6619.913729902982
 30
0.0
 10
-2132.174188121749
 20
6619.91274494142
 30
0.0
  0
SPLINE
  5
B8
330
1F
100
AcDbEntity
  8
0
  6
Continuous
 62
     7
370
    25
100
AcDbSpline
210
0.0
220
0.0
230
1.0
 70
     8
 71
     3
 72
    15
 73
    11
 74
     0
 42
0.000000001
 43
0.00000001
 40
0.0
 40
0.0
 40
0.0
 40
0.0
 40
0.1210437057283509
 40
0.2311608615819608
 40
0.3345582471448437
 40
0.4404078971911054
 40
0.5564076305372053
 40
0.6855748386379515
 40
0.8323618927655856
 40
0.9999999999999999
 40
0.9999999999999999
 40
0.9999999999999999
 40
0.9999999999999999
 10
-2128.793128155533
 20
6620.179847981961
 30
0.0
 10
-2128.794126370476
 20
6620.158813616965
 30
0.0
 10
-2128.796032692039
 20
6620.118643647732
 30
0.0
 10
-2128.813634240962
 20
6620.062574648386
 30
0.0
 10
-2128.843745624951
 20
6620.015274022653
 30
0.0
 10
-2128.886335014775
 20
6619.977454828795
 30
0.0
 10
-2128.939441344312
 20
6619.94683043442
 30
0.0
 10
-2129.004766072911
 20
6619.926402175102
 30
0.0
 10
-2129.081161147809
 20
6619.915629833756
 30
0.0
 10
-2129.135681726293
 20
6619.913748166354
 30
0.0
 10
-2129.164749777155
 20
6619.91274494142
 30
0.0
  0
SPLINE
  5
B9
330
1F
100
AcDbEntity
  8
0
  6
Continuous
 62
     7
370
    25
100
AcDbSpline
210
0.0
220
0.0
230
1.0
 70
     8
 71
     3
 72
    15
 73
    11
 74
     0
 42
0.000000001
 43
0.00000001
 40
0.0
 40
0.0
 40
0.0
 40
0.0
 40
0.1526075283706368
 40
0.2869925149660325
 40
0.4076393594010201
 40
0.5203370983718375
 40
0.6282469165428355
 40
0.7394778111329557
 40
0.8625819660822871
 40
1.0
 40
1.0
 40
1.0
 40
1.0
 10
-2129.164749777155
 20
6619.91274494142
 30
0.0
 10
-2129.188019052003
 20
6619.913749531666
 30
0.0
 10
-2129.231779066869
 20
6619.915638756168
 30
0.0
 10
-2129.293288197519
 20
6619.926517797148
 30
0.0
 10
-2129.34595124411
 20
6619.947335505152
 30
0.0
 10
-2129.388398330207
 20
6619.978261017232
 30
0.0
 10
-2129.422347551194
 20
6620.016439852733
 30
0.0
 10
-2129.445973214808
 20
6620.063582050837
 30
0.0
 10
-2129.459753350701
 20
6620.119072132547
 30
0.0
 10
-2129.461254998179
 20
6620.158860664626
 30
0.0
 10
-2129.462047074452
 20
6620.179847981961
 30
0.0
  0
SPLINE
  5
BB
330
1F
100
AcDbEntity
  8
0
  6
Continuous
 62
     7
370
    25
100
AcDbSpline
210
0.0
220
0.0
230
1.0
 70
     8
 71
     3
 72
    15
 73
    11
 74
     0
 42
0.000000001
 43
0.00000001
 40
0.0
 40
0.0
 40
0.0
 40
0.0
 40
0.1373554302530982
 40
0.2604035025253785
 40
0.3715837235509715
 40
0.4813661282244146
 40
0.5925463492499676
 40
0.7131382304871943
 40
0.8474619951863277
 40
1.0
 40
1.0
 40
1.0
 40
1.0
 10
-2129.462047074452
 20
6625.180481427906
 30
0.0
 10
-2129.461246208577
 20
6625.201460330027
 30
0.0
 10
-2129.459727897446
 20
6625.241232908233
 30
0.0
 10
-2129.446059222405
 20
6625.296829703181
 30
0.0
 10
-2129.421927363585
 20
6625.343879165353
 30
0.0
 10
-2129.389189696454
 20
6625.383341753237
 30
0.0
 10
-2129.345475591912
 20
6625.412736687695
 30
0.0
 10
-2129.293370447503
 20
6625.433916988832
 30
0.0
 10
-2129.231754175071
 20
6625.444658763105
 30
0.0
 10
-2129.188010410794
 20
6625.446568807352
 30
0.0
 10
-2129.164749777155
 20
6625.447584468447
 30
0.0
  0
SPLINE
  5
BC
330
1F
100
AcDbEntity
  8
0
  6
Continuous
 62
     7
370
    25
100
AcDbSpline
210
0.0
220
0.0
230
1.0
 70
     8
 71
     3
 72
    15
 73
    11
 74
     0
 42
0.000000001
 43
0.00000001
 40
0.0
 40
0.0
 40
0.0
 40
0.0
 40
0.167568003901194
 40
0.3142936742424223
 40
0.4434068668691215
 40
0.5582581848719517
 40
0.6655816592802667
 40
0.768935805859521
 40
0.8790069126387442
 40
1.0
 40
1.0
 40
1.0
 40
1.0
 10
-2129.164749777155
 20
6625.447584468447
 30
0.0
 10
-2129.135690931043
 20
6625.446566681764
 30
0.0
 10
-2129.081187617161
 20
6625.444657702075
 30
0.0
 10
-2129.004679846053
 20
6625.434063644097
 30
0.0
 10
-2128.939893256127
 20
6625.413131531619
 30
0.0
 10
-2128.885571316094
 20
6625.38431062945
 30
0.0
 10
-2128.844149680046
 20
6625.344972337887
 30
0.0
 10
-2128.813561015001
 20
6625.297841215538
 30
0.0
 10
-2128.796053660186
 20
6625.24166100614
 30
0.0
 10
-2128.794133576692
 20
6625.201507284899
 30
0.0
 10
-2128.793128155532
 20
6625.180481427906
 30
0.0
  0
SPLINE
  5
BE
330
1F
100
AcDbEntity
  8
0
  6
Continuous
 62
     7
370
    25
100
AcDbSpline
210
0.0
220
0.0
230
1.0
 70
     8
 71
     3
 72
    15
 73
    11
 74
     0
 42
0.000000001
 43
0.00000001
 40
0.0
 40
0.0
 40
0.0
 40
0.0
 40
0.167862809216294
 40
0.3148466165912708
 40
0.444186960312151
 40
0.5592403382441572
 40
0.6652318690748006
 40
0.7706563435097213
 40
0.8787940473875386
 40
1.0
 40
1.0
 40
1.0
 40
1.0
 10
-2129.164749777155
 20
6626.601934130609
 30
0.0
 10
-2129.135688001999
 20
6626.600919163994
 30
0.0
 10
-2129.081179194345
 20
6626.599015473676
 30
0.0
 10
-2129.004707284311
 20
6626.588386888859
 30
0.0
 10
-2128.939807810336
 20
6626.56756346051
 30
0.0
 10
-2128.886078034375
 20
6626.538522993276
 30
0.0
 10
-2128.843348662629
 20
6626.500382123045
 30
0.0
 10
-2128.814231325463
 20
6626.452591385697
 30
0.0
 10
-2128.795794911891
 20
6626.396909631198
 30
0.0
 10
-2128.794050212601
 20
6626.357055132913
 30
0.0
 10
-2128.793128155532
 20
6626.335992407636
 30
0.0
  0
SPLINE
  5
BF
330
1F
100
AcDbEntity
  8
0
  6
Continuous
 62
     7
370
    25
100
AcDbSpline
210
0.0
220
0.0
230
1.0
 70
     8
 71
     3
 72
    15
 73
    11
 74
     0
 42
0.000000001
 43
0.00000001
 40
0.0
 40
0.0
 40
0.0
 40
0.0
 40
0.1226673979138255
 40
0.2322494730060126
 40
0.3370212333529644
 40
0.4438678834493358
 40
0.5582089319051416
 40
0.6867484913209431
 40
0.8331764790611281
 40
1.0
 40
1.0
 40
1.0
 40
1.0
 10
-2128.793128155532
 20
6626.335992407636
 30
0.0
 10
-2128.794076189607
 20
6626.314561020836
 30
0.0
 10
-2128.795871127937
 20
6626.27398440166
 30
0.0
 10
-2128.813886053289
 20
6626.217296535746
 30
0.0
 10
-2128.843734194639
 20
6626.169293425417
 30
0.0
 10
-2128.885625037065
 20
6626.129890541829
 30
0.0
 10
-2128.939864745432
 20
6626.100931591452
 30
0.0
 10
-2129.004800850031
 20
6626.080423220948
 30
0.0
 10
-2129.081051264776
 20
6626.067881680872
 30
0.0
 10
-2129.135664989004
 20
6626.066265903832
 30
0.0
 10
-2129.164749777155
 20
6626.065405414393
 30
0.0
  0
SPLINE
  5
C0
330
1F
100
AcDbEntity
  8
0
  6
Continuous
 62
     7
370
    25
100
AcDbSpline
210
0.0
220
0.0
230
1.0
 70
     8
 71
     3
 72
    15
 73
    11
 74
     0
 42
0.000000001
 43
0.00000001
 40
0.0
 40
0.0
 40
0.0
 40
0.0
 40
0.1517345703398943
 40
0.2858502498746784
 40
0.4058069603899457
 40
0.5164015829446462
 40
0.6256057515998075
 40
0.7384515324842623
 40
0.8608514970058463
 40
1.0
 40
1.0
 40
1.0
 40
1.0
 10
-2129.164749777155
 20
6626.065405414393
 30
0.0
 10
-2129.188041642521
 20
6626.06626845352
 30
0.0
 10
-2129.231920802822
 20
6626.067894318669
 30
0.0
 10
-2129.293223550388
 20
6626.080562109722
 30
0.0
 10
-2129.345503639347
 20
6626.101326105685
 30
0.0
 10
-2129.389147021331
 20
6626.130849602423
 30
0.0
 10
-2129.422295337811
 20
6626.170463759709
 30
0.0
 10
-2129.445763174697
 20
6626.21825155062
 30
0.0
 10
-2129.459885086817
 20
6626.274426412239
 30
0.0
 10
-2129.461296289282
 20
6626.314612620103
 30
0.0
 10
-2129.462047074452
 20
6626.335992407636
 30
0.0
  0
SPLINE
  5
C1
330
1F
100
AcDbEntity
  8
0
  6
Continuous
 62
     7
370
    25
100
AcDbSpline
210
0.0
220
0.0
230
1.0
 70
     8
 71
     3
 72
    15
 73
    11
 74
     0
 42
0.000000001
 43
0.00000001
 40
0.0
 40
0.0
 40
0.0
 40
0.0
 40
0.1376465333874938
 40
0.2584939900654024
 40
0.3721777144533581
 40
0.4802669656692319
 40
0.591682815608555
 40
0.7125302722864186
 40
0.847138714983762
 40
1.0
 40
1.0
 40
1.0
 40
1.0
 10
-2129.462047074452
 20
6626.335992407636
 30
0.0
 10
-2129.461321836445
 20
6626.356999449841
 30
0.0
 10
-2129.459959872133
 20
6626.396449728941
 30
0.0
 10
-2129.445459167353
 20
6626.45167595907
 30
0.0
 10
-2129.422678900333
 20
6626.499133523682
 30
0.0
 10
-2129.388706089752
 20
6626.537671515004
 30
0.0
 10
-2129.345545898832
 20
6626.567141166418
 30
0.0
 10
-2129.293348673769
 20
6626.588249674554
 30
0.0
 10
-2129.231760764584
 20
6626.599013562945
 30
0.0
 10
-2129.188012698349
 20
6626.600920253065
 30
0.0
 10
-2129.164749777155
 20
6626.601934130609
 30
0.0
  0
SPLINE
  5
C2
330
1F
100
AcDbEntity
  8
0
  6
Continuous
 62
     7
370
    25
100
AcDbSpline
210
0.0
220
0.0
230
1.0
 70
     8
 71
     3
 72
    15
 73
    11
 74
     0
 42
0.000000001
 43
0.00000001
 40
0.0
 40
0.0
 40
0.0
 40
0.0
 40
0.1222745217376103
 40
0.2336168933973014
 40
0.3380530932832697
 40
0.4445575375120595
 40
0.5596238896565539
 40
0.6877517656792613
 40
0.8337107774005619
 40
1.0
 40
1.0
 40
1.0
 40
1.0
 10
-2110.925560587965
 20
6619.442411326554
 30
0.0
 10
-2110.926561677455
 20
6619.420993825681
 30
0.0
 10
-2110.928474352421
 20
6619.38007369001
 30
0.0
 10
-2110.946049844898
 20
6619.322868037966
 30
0.0
 10
-2110.976145082432
 20
6619.274480423956
 30
0.0
 10
-2111.018365378629
 20
6619.235318823264
 30
0.0
 10
-2111.071915384637
 20
6619.204733107584
 30
0.0
 10
-2111.137297171723
 20
6619.184632577323
 30
0.0
 10
-2111.213464121766
 20
6619.171943319614
 30
0.0
 10
-2111.268090619075
 20
6619.170350148647
 30
0.0
 10
-2111.297182209586
 20
6619.169501698178
 30
0.0
  0
SPLINE
  5
C3
330
1F
100
AcDbEntity
  8
0
  6
Continuous
 62
     7
370
    25
100
AcDbSpline
210
0.0
220
0.0
230
1.0
 70
     8
 71
     3
 72
    15
 73
    11
 74
     0
 42
0.000000001
 43
0.00000001
 40
0.0
 40
0.0
 40
0.0
 40
0.0
 40
0.1542014472171911
 40
0.2899900261851103
 40
0.4118969741102443
 40
0.5228469369192256
 40
0.6318838259152764
 40
0.744276478520175
 40
0.8637038887549874
 40
1.0
 40
1.0
 40
1.0
 40
1.0
 10
-2111.297182209586
 20
6619.169501698178
 30
0.0
 10
-2111.320437995773
 20
6619.170525711798
 30
0.0
 10
-2111.364172643969
 20
6619.172451463744
 30
0.0
 10
-2111.425849019649
 20
6619.183089675582
 30
0.0
 10
-2111.47755668286
 20
6619.204522313488
 30
0.0
 10
-2111.521516768723
 20
6619.232459384592
 30
0.0
 10
-2111.554704798887
 20
6619.271022222258
 30
0.0
 10
-2111.577962012208
 20
6619.317328081268
 30
0.0
 10
-2111.592381135147
 20
6619.371502802498
 30
0.0
 10
-2111.593749951821
 20
6619.410182536954
 30
0.0
 10
-2111.594479506884
 20
6619.430798150879
 30
0.0
  0
SPLINE
  5
C6
330
1F
100
AcDbEntity
  8
0
  6
Continuous
 62
     7
370
    25
100
AcDbSpline
210
0.0
220
0.0
230
1.0
 70
     8
 71
     3
 72
    15
 73
    11
 74
     0
 42
0.000000001
 43
0.00000001
 40
0.0
 40
0.0
 40
0.0
 40
0.0
 40
0.1476670007642705
 40
0.2763399367290898
 40
0.393796632104958
 40
0.5046581071774484
 40
0.6133971665380827
 40
0.7284171840211091
 40
0.8576739258690885
 40
1.0
 40
1.0
 40
1.0
 40
1.0
 10
-2114.073892513641
 20
6619.91274494142
 30
0.0
 10
-2114.095224015225
 20
6619.913740452465
 30
0.0
 10
-2114.135143196676
 20
6619.915603424271
 30
0.0
 10
-2114.19142075596
 20
6619.926536258436
 30
0.0
 10
-2114.238846852442
 20
6619.947887709299
 30
0.0
 10
-2114.278473809035
 20
6619.977111037371
 30
0.0
 10
-2114.308246493433
 20
6620.015958404155
 30
0.0
 10
-2114.329424014609
 20
6620.062773225638
 30
0.0
 10
-2114.341835989663
 20
6620.11767097372
 30
0.0
 10
-2114.34357051112
 20
6620.156943914179
 30
0.0
 10
-2114.344479506884
 20
6620.177525346826
 30
0.0
  0
SPLINE
  5
C8
330
1F
100
AcDbEntity
  8
0
  6
Continuous
 62
     7
370
    25
100
AcDbSpline
210
0.0
220
0.0
230
1.0
 70
     8
 71
     3
 72
    15
 73
    11
 74
     0
 42
0.000000001
 43
0.00000001
 40
0.0
 40
0.0
 40
0.0
 40
0.0
 40
0.1354286630936421
 40
0.2590269151055632
 40
0.3707042516398052
 40
0.4790471821147271
 40
0.5907245186490713
 40
0.7118555973607916
 40
0.8467799583351234
 40
1.0
 40
1.0
 40
1.0
 40
1.0
 10
-2114.344479506884
 20
6625.147964536016
 30
0.0
 10
-2114.343657867083
 20
6625.168559653782
 30
0.0
 10
-2114.342086362068
 20
6625.207950796687
 30
0.0
 10
-2114.328422269558
 20
6625.263092051746
 30
0.0
 10
-2114.304725463863
 20
6625.310134941812
 30
0.0
 10
-2114.271180704264
 20
6625.348501886257
 30
0.0
 10
-2114.227965852048
 20
6625.377946190435
 30
0.0
 10
-2114.175784970959
 20
6625.399062277509
 30
0.0
 10
-2114.114192027403
 20
6625.409823831389
 30
0.0
 10
-2114.070444724749
 20
6625.411730875593
 30
0.0
 10
-2114.047182209587
 20
6625.41274494142
 30
0.0
  0
SPLINE
  5
C9
330
1F
100
AcDbEntity
  8
0
  6
Continuous
 62
     7
370
    25
100
AcDbSpline
210
0.0
220
0.0
230
1.0
 70
     8
 71
     3
 72
    15
 73
    11
 74
     0
 42
0.000000001
 43
0.00000001
 40
0.0
 40
0.0
 40
0.0
 40
0.0
 40
0.1687372826956
 40
0.3164867953631126
 40
0.4465009315751127
 40
0.5610794434177758
 40
0.6676231321872454
 40
0.7716984773789043
 40
0.8803995195839881
 40
1.0
 40
1.0
 40
1.0
 40
1.0
 10
-2114.047182209587
 20
6625.41274494142
 30
0.0
 10
-2114.01812782657
 20
6625.411717099498
 30
0.0
 10
-2113.963632883751
 20
6625.409789260015
 30
0.0
 10
-2113.887070469788
 20
6625.399318311006
 30
0.0
 10
-2113.82263231691
 20
6625.378056887876
 30
0.0
 10
-2113.768153135731
 20
6625.350707834305
 30
0.0
 10
-2113.726240198295
 20
6625.312392936249
 30
0.0
 10
-2113.696328792182
 20
6625.265568713441
 30
0.0
 10
-2113.678414921026
 20
6625.210369892407
 30
0.0
 10
-2113.676541840163
 20
6625.170942189702
 30
0.0
 10
-2113.675560587965
 20
6625.15028717115
 30
0.0
  0
SPLINE
  5
CD
330
1F
100
AcDbEntity
  8
0
  6
Continuous
 62
     7
370
    25
100
AcDbSpline
210
0.0
220
0.0
230
1.0
 70
     8
 71
     3
 72
    15
 73
    11
 74
     0
 42
0.000000001
 43
0.00000001
 40
0.0
 40
0.0
 40
0.0
 40
0.0
 40
0.1359589957907127
 40
0.2575644184869272
 40
0.3696790785664368
 40
0.4784462751989694
 40
0.5891218138385003
 40
0.7107272365347147
 40
0.8461799553810201
 40
1.0
 40
1.0
 40
1.0
 40
1.0
 10
-2112.04042545283
 20
6625.15028717115
 30
0.0
 10
-2112.039647946616
 20
6625.170890950067
 30
0.0
 10
-2112.038175017702
 20
6625.209923309086
 30
0.0
 10
-2112.024147866763
 20
6625.264598953526
 30
0.0
 10
-2112.000633072309
 20
6625.311220108613
 30
0.0
 10
-2111.96746746455
 20
6625.34978841307
 30
0.0
 10
-2111.923501210796
 20
6625.377723980384
 30
0.0
 10
-2111.871795407
 20
6625.399157071633
 30
0.0
 10
-2111.810118456331
 20
6625.409795143284
 30
0.0
 10
-2111.766383895345
 20
6625.411720916492
 30
0.0
 10
-2111.743128155533
 20
6625.41274494142
 30
0.0
  0
SPLINE
  5
CE
330
1F
100
AcDbEntity
  8
0
  6
Continuous
 62
     7
370
    25
100
AcDbSpline
210
0.0
220
0.0
230
1.0
 70
     8
 71
     3
 72
    15
 73
    11
 74
     0
 42
0.000000001
 43
0.00000001
 40
0.0
 40
0.0
 40
0.0
 40
0.0
 40
0.1687372826955985
 40
0.3164867953631098
 40
0.4465009315751088
 40
0.5610794434177709
 40
0.6676231321872714
 40
0.7716984773789062
 40
0.8803995195839892
 40
1.0
 40
1.0
 40
1.0
 40
1.0
 10
-2111.743128155533
 20
6625.41274494142
 30
0.0
 10
-2111.714073772517
 20
6625.411717099498
 30
0.0
 10
-2111.659578829697
 20
6625.409789260015
 30
0.0
 10
-2111.583016415734
 20
6625.399318311006
 30
0.0
 10
-2111.518578262856
 20
6625.378056887876
 30
0.0
 10
-2111.464099081677
 20
6625.350707834305
 30
0.0
 10
-2111.422186144242
 20
6625.312392936249
 30
0.0
 10
-2111.392274738127
 20
6625.265568713441
 30
0.0
 10
-2111.374360866972
 20
6625.210369892407
 30
0.0
 10
-2111.37248778611
 20
6625.170942189702
 30
0.0
 10
-2111.371506533911
 20
6625.15028717115
 30
0.0
  0
SPLINE
  5
D1
330
1F
100
AcDbEntity
  8
0
  6
Continuous
 62
     7
370
    25
100
AcDbSpline
210
0.0
220
0.0
230
1.0
 70
     8
 71
     3
 72
    15
 73
    11
 74
     0
 42
0.000000001
 43
0.00000001
 40
0.0
 40
0.0
 40
0.0
 40
0.0
 40
0.1656092688916707
 40
0.3131459933552023
 40
0.4407499567454038
 40
0.5572602504432298
 40
0.6633291998720263
 40
0.7673383619727006
 40
0.8782254566321287
 40
1.0
 40
1.0
 40
1.0
 40
1.0
 10
-2111.299504844722
 20
6620.507339536015
 30
0.0
 10
-2111.270422624194
 20
6620.506451572294
 30
0.0
 10
-2111.215431856485
 20
6620.504772546214
 30
0.0
 10
-2111.138776883981
 20
6620.492438362615
 30
0.0
 10
-2111.072883369684
 20
6620.471771239666
 30
0.0
 10
-2111.018532512348
 20
6620.441900978501
 30
0.0
 10
-2110.976165618094
 20
6620.402323751609
 30
0.0
 10
-2110.946044028655
 20
6620.353983692211
 30
0.0
 10
-2110.928476016768
 20
6620.296764540702
 30
0.0
 10
-2110.926562249279
 20
6620.255846376597
 30
0.0
 10
-2110.925560587965
 20
6620.234429907637
 30
0.0
  0
SPLINE
  5
D4
330
1F
100
AcDbEntity
  8
0
  6
Continuous
 62
     7
370
    25
100
AcDbSpline
210
0.0
220
0.0
230
1.0
 70
     8
 71
     3
 72
    15
 73
    11
 74
     0
 42
0.000000001
 43
0.00000001
 40
0.0
 40
0.0
 40
0.0
 40
0.0
 40
0.1140175918123569
 40
0.2280164394661237
 40
0.3455714905414592
 40
0.471804641105449
 40
0.6006350514426593
 40
0.7271612959817122
 40
0.8586514430958058
 40
1.0
 40
1.0
 40
1.0
 40
1.0
 10
-2108.280775959587
 20
6624.818150346825
 30
0.0
 10
-2108.317812832476
 20
6624.815856542371
 30
0.0
 10
-2108.391880489502
 20
6624.811269310557
 30
0.0
 10
-2108.499373322102
 20
6624.77563683618
 30
0.0
 10
-2108.601192055971
 20
6624.718698422429
 30
0.0
 10
-2108.693636873636
 20
6624.639917644675
 30
0.0
 10
-2108.774433432452
 20
6624.545065653691
 30
0.0
 10
-2108.832123157274
 20
6624.432621928503
 30
0.0
 10
-2108.86833824929
 20
6624.307065834613
 30
0.0
 10
-2108.872205660782
 20
6624.218395103187
 30
0.0
 10
-2108.874209236613
 20
6624.172457779257
 30
0.0
  0
SPLINE
  5
D6
330
1F
100
AcDbEntity
  8
0
  6
Continuous
 62
     7
370
    25
100
AcDbSpline
210
0.0
220
0.0
230
1.0
 70
     8
 71
     3
 72
    15
 73
    11
 74
     0
 42
0.000000001
 43
0.00000001
 40
0.0
 40
0.0
 40
0.0
 40
0.0
 40
0.1414712241404165
 40
0.2727551916778919
 40
0.4004517727783758
 40
0.5284776203514258
 40
0.6532975159733451
 40
0.7709545854458406
 40
0.8846953292910743
 40
1.0
 40
1.0
 40
1.0
 40
1.0
 10
-2108.874209236613
 20
6623.453602204932
 30
0.0
 10
-2108.872093037149
 20
6623.407691963701
 30
0.0
 10
-2108.868013024453
 20
6623.319177449719
 30
0.0
 10
-2108.833291874613
 20
6623.193017113726
 30
0.0
 10
-2108.776109619808
 20
6623.080281473514
 30
0.0
 10
-2108.695146111993
 20
6622.985926841809
 30
0.0
 10
-2108.6015633058
 20
6622.909961502566
 30
0.0
 10
-2108.500842084632
 20
6622.8523040481
 30
0.0
 10
-2108.39242376325
 20
6622.818519173717
 30
0.0
 10
-2108.318160916896
 20
6622.813779571985
 30
0.0
 10
-2108.280775959587
 20
6622.811393590068
 30
0.0
  0
SPLINE
  5
D9
330
1F
100
AcDbEntity
  8
0
  6
Continuous
 62
     7
370
    25
100
AcDbSpline
210
0.0
220
0.0
230
1.0
 70
     8
 71
     3
 72
    15
 73
    11
 74
     0
 42
0.000000001
 43
0.00000001
 40
0.0
 40
0.0
 40
0.0
 40
0.0
 40
0.1212059526124603
 40
0.229343656490283
 40
0.3347681309252525
 40
0.4407596617559107
 40
0.5558130396878742
 40
0.6851533834087533
 40
0.8321371907837076
 40
1.0
 40
1.0
 40
1.0
 40
1.0
 10
-2106.570155182559
 20
6620.178686664393
 30
0.0
 10
-2106.571077239628
 20
6620.157623939116
 30
0.0
 10
-2106.572821938918
 20
6620.117769440831
 30
0.0
 10
-2106.59125835249
 20
6620.062087686333
 30
0.0
 10
-2106.620375689656
 20
6620.014296948985
 30
0.0
 10
-2106.663105061402
 20
6619.976156078753
 30
0.0
 10
-2106.716834837363
 20
6619.947115611519
 30
0.0
 10
-2106.781734311338
 20
6619.926292183171
 30
0.0
 10
-2106.858206221372
 20
6619.915663598353
 30
0.0
 10
-2106.912715029026
 20
6619.913759908035
 30
0.0
 10
-2106.941776804181
 20
6619.91274494142
 30
0.0
  0
SPLINE
  5
DA
330
1F
100
AcDbEntity
  8
0
  6
Continuous
 62
     7
370
    25
100
AcDbSpline
210
0.0
220
0.0
230
1.0
 70
     8
 71
     3
 72
    15
 73
    11
 74
     0
 42
0.000000001
 43
0.00000001
 40
0.0
 40
0.0
 40
0.0
 40
0.0
 40
0.1528612850162777
 40
0.2874697277135658
 40
0.4083171843914449
 40
0.5197330343306862
 40
0.6278222855465697
 40
0.7415060099346168
 40
0.8623534666125122
 40
1.0
 40
1.0
 40
1.0
 40
1.0
 10
-2106.941776804181
 20
6619.91274494142
 30
0.0
 10
-2106.965039725376
 20
6619.913758818964
 30
0.0
 10
-2107.008787791612
 20
6619.915665509083
 30
0.0
 10
-2107.070375700796
 20
6619.926429397474
 30
0.0
 10
-2107.122572925859
 20
6619.947537905611
 30
0.0
 10
-2107.165733116779
 20
6619.977007557025
 30
0.0
 10
-2107.19970592736
 20
6620.015545548347
 30
0.0
 10
-2107.222486194381
 20
6620.063003112958
 30
0.0
 10
-2107.23698689916
 20
6620.118229343089
 30
0.0
 10
-2107.238348863471
 20
6620.157679622188
 30
0.0
 10
-2107.239074101479
 20
6620.178686664393
 30
0.0
  0
SPLINE
  5
E0
330
1F
100
AcDbEntity
  8
0
  6
Continuous
 62
     7
370
    25
100
AcDbSpline
210
0.0
220
0.0
230
1.0
 70
     8
 71
     3
 72
    15
 73
    11
 74
     0
 42
0.000000001
 43
0.00000001
 40
0.0
 40
0.0
 40
0.0
 40
0.0
 40
0.163966598556062
 40
0.306215955688072
 40
0.4326931973574543
 40
0.5469961700258741
 40
0.6528275420541839
 40
0.760731476654062
 40
0.8731773094341482
 40
1.0
 40
1.0
 40
1.0
 40
1.0
 10
-2106.915066500127
 20
6625.41274494142
 30
0.0
 10
-2106.887938292417
 20
6625.411743684223
 30
0.0
 10
-2106.837274985848
 20
6625.409873785524
 30
0.0
 10
-2106.766141412929
 20
6625.399141759856
 30
0.0
 10
-2106.705953321295
 20
6625.378124719528
 30
0.0
 10
-2106.65580627024
 20
6625.349329241849
 30
0.0
 10
-2106.616703706579
 20
6625.310604699681
 30
0.0
 10
-2106.590145594541
 20
6625.263001092439
 30
0.0
 10
-2106.573079432982
 20
6625.207544421025
 30
0.0
 10
-2106.571168212352
 20
6625.167845413524
 30
0.0
 10
-2106.570155182559
 20
6625.146803218447
 30
0.0
  0
SPLINE
  5
E2
330
1F
100
AcDbEntity
  8
0
  6
Continuous
 62
     7
370
    25
100
AcDbSpline
210
0.0
220
0.0
230
1.0
 70
     8
 71
     3
 72
    23
 73
    19
 74
     0
 42
0.000000001
 43
0.00000001
 40
0.0
 40
0.0
 40
0.0
 40
0.0
 40
0.0580252432822532
 40
0.1155871964747825
 40
0.1733064280533876
 40
0.2312007215223924
 40
0.2904875696797323
 40
0.3511871278601219
 40
0.4143746853451342
 40
0.4805001730171393
 40
0.5472697501666135
 40
0.6119608846621194
 40
0.6756701267307348
 40
0.7390309471959666
 40
0.8028955335525298
 40
0.8668491895993933
 40
0.9324175649925486
 40
1.0
 40
1.0
 40
1.0
 40
1.0
 10
-2108.458457547425
 20
6622.221444265745
 30
0.0
 10
-2108.493001193083
 20
6622.223786584247
 30
0.0
 10
-2108.561812678081
 20
6622.228452519514
 30
0.0
 10
-2108.663357375823
 20
6622.248915929456
 30
0.0
 10
-2108.762320157302
 20
6622.278882818307
 30
0.0
 10
-2108.858270714692
 20
6622.320188362146
 30
0.0
 10
-2108.951395547906
 20
6622.371265496302
 30
0.0
 10
-2109.041282018374
 20
6622.433590150347
 30
0.0
 10
-2109.128488025705
 20
6622.506047600035
 30
0.0
 10
-2109.212608566421
 20
6622.587423071402
 30
0.0
 10
-2109.289321670068
 20
6622.677018197435
 30
0.0
 10
-2109.357448041385
 20
6622.771518643442
 30
0.0
 10
-2109.414766424472
 20
6622.870699484053
 30
0.0
 10
-2109.461018496019
 20
6622.974847039121
 30
0.0
 10
-2109.498949676915
 20
6623.082563826076
 30
0.0
 10
-2109.523643313466
 20
6623.195331910016
 30
0.0
 10
-2109.541242325317
 20
6623.311753854447
 30
0.0
 10
-2109.542493238293
 20
6623.391208783097
 30
0.0
 10
-2109.543128155532
 20
6623.431537171149
 30
0.0
  0
SPLINE
  5
E4
330
1F
100
AcDbEntity
  8
0
  6
Continuous
 62
     7
370
    25
100
AcDbSpline
210
0.0
220
0.0
230
1.0
 70
     8
 71
     3
 72
    23
 73
    19
 74
     0
 42
0.000000001
 43
0.00000001
 40
0.0
 40
0.0
 40
0.0
 40
0.0
 40
0.0634613961745659
 40
0.1257079853221084
 40
0.1860465579507599
 40
0.2465922260686153
 40
0.3065025226580907
 40
0.3677383176845461
 40
0.4300538145164606
 40
0.4947873546452326
 40
0.5595981951735859
 40
0.6228705203566287
 40
0.6848176238072231
 40
0.7460913691786745
 40
0.8081250111163268
 40
0.8702076379845289
 40
0.9341490542135036
 40
1.0
 40
1.0
 40
1.0
 40
1.0
 10
-2109.543128155532
 20
6624.194522813042
 30
0.0
 10
-2109.542058629967
 20
6624.235624709376
 30
0.0
 10
-2109.539940052185
 20
6624.317041710775
 30
0.0
 10
-2109.521717460894
 20
6624.436341621697
 30
0.0
 10
-2109.494343564379
 20
6624.551877686703
 30
0.0
 10
-2109.453245940871
 20
6624.661739382379
 30
0.0
 10
-2109.401690687011
 20
6624.767650651821
 30
0.0
 10
-2109.338606597841
 20
6624.868482164349
 30
0.0
 10
-2109.265160746777
 20
6624.965989948501
 30
0.0
 10
-2109.179699174206
 20
6625.056418858407
 30
0.0
 10
-2109.086305750034
 20
6625.139410858058
 30
0.0
 10
-2108.98758183142
 20
6625.213096550081
 30
0.0
 10
-2108.883709455038
 20
6625.275066030454
 30
0.0
 10
-2108.774602537063
 20
6625.325304145887
 30
0.0
 10
-2108.661067490104
 20
6625.364774046876
 30
0.0
 10
-2108.542437251609
 20
6625.392951872154
 30
0.0
 10
-2108.419039530822
 20
6625.40919512854
 30
0.0
 10
-2108.335017980713
 20
6625.411550121427
 30
0.0
 10
-2108.292389135263
 20
6625.41274494142
 30
0.0
  0
SPLINE
  5
E6
330
1F
100
AcDbEntity
  8
0
  6
Continuous
 62
     7
370
    25
100
AcDbSpline
210
0.0
220
0.0
230
1.0
 70
     8
 71
     3
 72
    11
 73
     7
 74
     0
 42
0.000000001
 43
0.00000001
 40
0.0
 40
0.0
 40
0.0
 40
0.0
 40
0.2216710829556577
 40
0.4516464836220316
 40
0.7079486239946101
 40
0.9999999999999999
 40
0.9999999999999999
 40
0.9999999999999999
 40
0.9999999999999999
 10
-2108.896274270397
 20
6620.052103049528
 30
0.0
 10
-2108.913355651733
 20
6620.030785880374
 30
0.0
 10
-2108.948158322937
 20
6619.987352951001
 30
0.0
 10
-2109.024429971691
 20
6619.942457011151
 30
0.0
 10
-2109.117331425735
 20
6619.917843284313
 30
0.0
 10
-2109.18450528395
 20
6619.914516680341
 30
0.0
 10
-2109.220281871749
 20
6619.91274494142
 30
0.0
  0
SPLINE
  5
E7
330
1F
100
AcDbEntity
  8
0
  6
Continuous
 62
     7
370
    25
100
AcDbSpline
210
0.0
220
0.0
230
1.0
 70
     8
 71
     3
 72
    15
 73
    11
 74
     0
 42
0.000000001
 43
0.00000001
 40
0.0
 40
0.0
 40
0.0
 40
0.0
 40
0.1581417571597609
 40
0.2986720649976439
 40
0.4208886146286288
 40
0.5333820766800766
 40
0.6415734614261327
 40
0.7524299916409032
 40
0.8685094909135622
 40
1.0
 40
1.0
 40
1.0
 40
1.0
 10
-2109.220281871749
 20
6619.91274494142
 30
0.0
 10
-2109.245470092373
 20
6619.913792977592
 30
0.0
 10
-2109.293041448619
 20
6619.915772335436
 30
0.0
 10
-2109.35968179774
 20
6619.926107287379
 30
0.0
 10
-2109.416005027892
 20
6619.947534704735
 30
0.0
 10
-2109.462517568363
 20
6619.976906728753
 30
0.0
 10
-2109.500174216204
 20
6620.014931115583
 30
0.0
 10
-2109.52547754046
 20
6620.062628083208
 30
0.0
 10
-2109.541305032121
 20
6620.118076920348
 30
0.0
 10
-2109.54249574088
 20
6620.157662037102
 30
0.0
 10
-2109.543128155532
 20
6620.178686664393
 30
0.0
  0
CIRCLE
  5
E8
330
1F
100
AcDbEntity
  8
0
  6
Continuous
 62
     7
370
    25
100
AcDbCircle
 10
-2121.6053239306
 20
6629.6675226219
 30
0.0
 40
1.5
  0
CIRCLE
  5
E9
330
1F
100
AcDbEntity
  8
0
  6
Continuous
 62
     7
370
    25
100
AcDbCircle
 10
-2121.6053239306
 20
6629.6675226219
 30
0.0
 40
0.75
  0
SPLINE
  5
EA
330
1F
100
AcDbEntity
  8
0
  6
Continuous
 62
     7
370
    25
100
AcDbSpline
210
0.0
220
0.0
230
1.0
 70
     8
 71
     3
 72
     8
 73
     4
 74
     0
 42
0.000000001
 43
0.00000001
 40
0.9122807017543859
 40
0.9122807017543859
 40
0.9122807017543859
 40
0.9122807017543859
 40
0.9166666666666666
 40
0.9166666666666666
 40
0.9166666666666666
 40
0.9166666666666666
 10
-2135.020286521049
 20
6583.648178746753
 30
0.0
 10
-2135.020286521049
 20
6583.582519746752
 30
0.0
 10
-2133.853156521048
 20
6583.387828746751
 30
0.0
 10
-2133.528163521049
 20
6584.167989746752
 30
0.0
  0
SPLINE
  5
EB
330
1F
100
AcDbEntity
  8
0
  6
Continuous
 62
     7
370
    25
100
AcDbSpline
210
0.0
220
0.0
230
1.0
 70
     8
 71
     3
 72
     8
 73
     4
 74
     0
 42
0.000000001
 43
0.00000001
 40
0.9078947368421053
 40
0.9078947368421053
 40
0.9078947368421053
 40
0.9078947368421053
 40
0.9122807017543859
 40
0.9122807017543859
 40
0.9122807017543859
 40
0.9122807017543859
 10
-2135.605248521048
 20
6586.860770746753
 30
0.0
 10
-2135.215273854382
 20
6584.784066746752
 30
0.0
 10
-2135.020286521049
 20
6583.713202746753
 30
0.0
 10
-2135.020286521049
 20
6583.648178746753
 30
0.0
  0
SPLINE
  5
112
330
1F
100
AcDbEntity
  8
0
  6
Continuous
 62
     7
370
    25
100
AcDbSpline
210
0.0
220
0.0
230
1.0
 70
     8
 71
     3
 72
     8
 73
     4
 74
     0
 42
0.000000001
 43
0.00000001
 40
0.7368421052631579
 40
0.7368421052631579
 40
0.7368421052631579
 40
0.7368421052631579
 40
0.7412280701754386
 40
0.7412280701754386
 40
0.7412280701754386
 40
0.7412280701754386
 10
-2141.932134521049
 20
6626.380249746752
 30
0.0
 10
-2143.186809854382
 20
6625.926521080085
 30
0.0
 10
-2143.922309187715
 20
6625.839949413418
 30
0.0
 10
-2144.138632521048
 20
6626.120534746753
 30
0.0
  0
SPLINE
  5
11B
330
1F
100
AcDbEntity
  8
0
  6
Continuous
 62
     7
370
    25
100
AcDbSpline
210
0.0
220
0.0
230
1.0
 70
     8
 71
     3
 72
     8
 73
     4
 74
     0
 42
0.000000001
 43
0.00000001
 40
0.6973684210526315
 40
0.6973684210526315
 40
0.6973684210526315
 40
0.6973684210526315
 40
0.7017543859649122
 40
0.7017543859649122
 40
0.7017543859649122
 40
0.7017543859649122
 10
-2140.569424521048
 20
6632.935227746752
 30
0.0
 10
-2140.915372521049
 20
6632.826854413419
 30
0.0
 10
-2140.774783521049
 20
6632.091143413419
 30
0.0
 10
-2140.147657521049
 20
6630.728094746753
 30
0.0
  0
SPLINE
  5
11C
330
1F
100
AcDbEntity
  8
0
  6
Continuous
 62
     7
370
    25
100
AcDbSpline
210
0.0
220
0.0
230
1.0
 70
     8
 71
     3
 72
     8
 73
     4
 74
     0
 42
0.000000001
 43
0.00000001
 40
0.6929824561403509
 40
0.6929824561403509
 40
0.6929824561403509
 40
0.6929824561403509
 40
0.6973684210526315
 40
0.6973684210526315
 40
0.6973684210526315
 40
0.6973684210526315
 10
-2139.952839521049
 20
6634.038095746752
 30
0.0
 10
-2140.017863521048
 20
6633.410461746752
 30
0.0
 10
-2140.223391854382
 20
6633.042839080086
 30
0.0
 10
-2140.569424521048
 20
6632.935227746752
 30
0.0
  0
SPLINE
  5
138
330
1F
100
AcDbEntity
  8
0
  6
Continuous
 62
     7
370
    25
100
AcDbSpline
210
0.0
220
0.0
230
1.0
 70
     8
 71
     3
 72
     8
 73
     4
 74
     0
 42
0.000000001
 43
0.00000001
 40
0.5701754385964912
 40
0.5701754385964912
 40
0.5701754385964912
 40
0.5701754385964912
 40
0.5745614035087719
 40
0.5745614035087719
 40
0.5745614035087719
 40
0.5745614035087719
 10
-2138.104227521049
 20
6654.609428746751
 30
0.0
 10
-2138.666160187715
 20
6654.154853413419
 30
0.0
 10
-2139.282364187716
 20
6654.100751413419
 30
0.0
 10
-2139.952839521049
 20
6654.447122746752
 30
0.0
  0
SPLINE
  5
139
330
1F
100
AcDbEntity
  8
0
  6
Continuous
 62
     7
370
    25
100
AcDbSpline
210
0.0
220
0.0
230
1.0
 70
     8
 71
     3
 72
     8
 73
     4
 74
     0
 42
0.000000001
 43
0.00000001
 40
0.5657894736842105
 40
0.5657894736842105
 40
0.5657894736842105
 40
0.5657894736842105
 40
0.5701754385964912
 40
0.5701754385964912
 40
0.5701754385964912
 40
0.5701754385964912
 10
-2136.967958521049
 20
6655.452835746753
 30
0.0
 10
-2137.140932521048
 20
6655.34471641342
 30
0.0
 10
-2137.519688854382
 20
6655.063580746752
 30
0.0
 10
-2138.104227521049
 20
6654.609428746751
 30
0.0
  0
SPLINE
  5
14E
330
1F
100
AcDbEntity
  8
0
  6
Continuous
 62
     7
370
    25
100
AcDbSpline
210
0.0
220
0.0
230
1.0
 70
     8
 71
     3
 72
     8
 73
     4
 74
     0
 42
0.000000001
 43
0.00000001
 40
0.4736842105263158
 40
0.4736842105263158
 40
0.4736842105263158
 40
0.4736842105263158
 40
0.4780701754385965
 40
0.4780701754385965
 40
0.4780701754385965
 40
0.4780701754385965
 10
-2108.997986521048
 20
6658.632534746754
 30
0.0
 10
-2109.560342521048
 20
6658.568188080085
 30
0.0
 10
-2109.560342521048
 20
6658.200311413418
 30
0.0
 10
-2108.997986521048
 20
6657.528904746752
 30
0.0
  0
SPLINE
  5
154
330
1F
100
AcDbEntity
  8
0
  6
Continuous
 62
     7
370
    25
100
AcDbSpline
210
0.0
220
0.0
230
1.0
 70
     8
 71
     3
 72
     8
 73
     4
 74
     0
 42
0.000000001
 43
0.00000001
 40
0.4473684210526316
 40
0.4473684210526316
 40
0.4473684210526316
 40
0.4473684210526316
 40
0.4517543859649123
 40
0.4517543859649123
 40
0.4517543859649123
 40
0.4517543859649123
 10
-2105.331750521048
 20
6657.074879746751
 30
0.0
 10
-2105.266811187715
 20
6657.766945080084
 30
0.0
 10
-2105.461502187715
 20
6658.199761080084
 30
0.0
 10
-2105.915823521049
 20
6658.373327746752
 30
0.0
  0
SPLINE
  5
155
330
1F
100
AcDbEntity
  8
0
  6
Continuous
 62
     7
370
    25
100
AcDbSpline
210
0.0
220
0.0
230
1.0
 70
     8
 71
     3
 72
     8
 73
     4
 74
     0
 42
0.000000001
 43
0.00000001
 40
0.4429824561403509
 40
0.4429824561403509
 40
0.4429824561403509
 40
0.4429824561403509
 40
0.4473684210526316
 40
0.4473684210526316
 40
0.4473684210526316
 40
0.4473684210526316
 10
-2104.391061521049
 20
6655.128096746753
 30
0.0
 10
-2105.061790854382
 20
6655.755392080085
 30
0.0
 10
-2105.375353854382
 20
6656.404319746751
 30
0.0
 10
-2105.331750521048
 20
6657.074879746751
 30
0.0
  0
SPLINE
  5
1CB
330
1F
100
AcDbEntity
  8
0
  6
Continuous
 62
     7
370
    25
100
AcDbSpline
210
0.0
220
0.0
230
1.0
 70
     8
 71
     3
 72
     8
 73
     4
 74
     0
 42
0.000000001
 43
0.00000001
 40
0.9210526315789473
 40
0.9210526315789473
 40
0.9210526315789473
 40
0.9210526315789473
 40
0.9254385964912281
 40
0.9254385964912281
 40
0.9254385964912281
 40
0.9254385964912281
 10
-2132.814042521049
 20
6584.394557746752
 30
0.0
 10
-2132.716887521049
 20
6584.394557746752
 30
0.0
 10
-2131.354304521049
 20
6582.024864746753
 30
0.0
 10
-2131.256514521048
 20
6582.024864746753
 30
0.0
  0
SPLINE
  5
1CC
330
1F
100
AcDbEntity
  8
0
  6
Continuous
 62
     7
370
    25
100
AcDbSpline
210
0.0
220
0.0
230
1.0
 70
     8
 71
     3
 72
     8
 73
     4
 74
     0
 42
0.000000001
 43
0.00000001
 40
0.9166666666666666
 40
0.9166666666666666
 40
0.9166666666666666
 40
0.9166666666666666
 40
0.9210526315789473
 40
0.9210526315789473
 40
0.9210526315789473
 40
0.9210526315789473
 10
-2133.528163521049
 20
6584.167989746752
 30
0.0
 10
-2133.399131521049
 20
6584.491331746752
 30
0.0
 10
-2132.846681521048
 20
6584.394557746752
 30
0.0
 10
-2132.814042521049
 20
6584.394557746752
 30
0.0
  0
LINE
  5
1CD
330
1F
100
AcDbEntity
  8
0
  6
Continuous
 62
     7
370
    25
100
AcDbLine
 10
-2126.7417768042
 20
6625.1526098063
 30
0.0
 11
-2126.7417768042
 21
6623.1830152117
 31
0.0
  0
LINE
  5
1CE
330
1F
100
AcDbEntity
  8
0
  6
Continuous
 62
     7
370
    25
100
AcDbLine
 10
-2126.7417768042
 20
6623.1830152117
 30
0.0
 11
-2125.106641669
 21
6623.1830152117
 31
0.0
  0
LINE
  5
1CF
330
1F
100
AcDbEntity
  8
0
  6
Continuous
 62
     7
370
    25
100
AcDbLine
 10
-2125.106641669
 20
6623.1830152117
 30
0.0
 11
-2125.106641669
 21
6625.1526098063
 31
0.0
  0
LINE
  5
1D0
330
1F
100
AcDbEntity
  8
0
  6
Continuous
 62
     7
370
    25
100
AcDbLine
 10
-2124.4377227501
 20
6625.1468032184
 30
0.0
 11
-2124.4377227501
 21
6620.1786866644
 31
0.0
  0
LINE
  5
1D1
330
1F
100
AcDbEntity
  8
0
  6
Continuous
 62
     7
370
    25
100
AcDbLine
 10
-2125.106641669
 20
6620.1786866644
 30
0.0
 11
-2125.106641669
 21
6622.5884206171
 31
0.0
  0
LINE
  5
1D2
330
1F
100
AcDbEntity
  8
0
  6
Continuous
 62
     7
370
    25
100
AcDbLine
 10
-2125.106641669
 20
6622.5884206171
 30
0.0
 11
-2126.7417768042
 21
6622.5884206171
 31
0.0
  0
LINE
  5
1D3
330
1F
100
AcDbEntity
  8
0
  6
Continuous
 62
     7
370
    25
100
AcDbLine
 10
-2126.7417768042
 20
6622.5884206171
 30
0.0
 11
-2126.7417768042
 21
6620.1786866644
 31
0.0
  0
LINE
  5
1D4
330
1F
100
AcDbEntity
  8
0
  6
Continuous
 62
     7
370
    25
100
AcDbLine
 10
-2127.4106957231
 20
6620.1786866644
 30
0.0
 11
-2127.4106957231
 21
6625.1468032184
 31
0.0
  0
LINE
  5
1D5
330
1F
100
AcDbEntity
  8
0
  6
Continuous
 62
     7
370
    25
100
AcDbLine
 10
-2120.7512362636
 20
6623.1830152117
 30
0.0
 11
-2120.7512362636
 21
6625.1526098063
 31
0.0
  0
LINE
  5
1D6
330
1F
100
AcDbEntity
  8
0
  6
Continuous
 62
     7
370
    25
100
AcDbLine
 10
-2120.0823173447
 20
6625.1468032184
 30
0.0
 11
-2120.0823173447
 21
6620.1786866644
 31
0.0
  0
LINE
  5
1D7
330
1F
100
AcDbEntity
  8
0
  6
Continuous
 62
     7
370
    25
100
AcDbLine
 10
-2120.7512362636
 20
6620.1786866644
 30
0.0
 11
-2120.7512362636
 21
6622.5884206171
 31
0.0
  0
LINE
  5
1D8
330
1F
100
AcDbEntity
  8
0
  6
Continuous
 62
     7
370
    25
100
AcDbLine
 10
-2120.7512362636
 20
6622.5884206171
 30
0.0
 11
-2122.3863713988
 21
6622.5884206171
 31
0.0
  0
LINE
  5
1D9
330
1F
100
AcDbEntity
  8
0
  6
Continuous
 62
     7
370
    25
100
AcDbLine
 10
-2122.3863713988
 20
6622.5884206171
 30
0.0
 11
-2122.3863713988
 21
6620.1786866644
 31
0.0
  0
LINE
  5
1DA
330
1F
100
AcDbEntity
  8
0
  6
Continuous
 62
     7
370
    25
100
AcDbLine
 10
-2123.0552903177
 20
6620.1786866644
 30
0.0
 11
-2123.0552903177
 21
6625.1468032184
 31
0.0
  0
LINE
  5
1DB
330
1F
100
AcDbEntity
  8
0
  6
Continuous
 62
     7
370
    25
100
AcDbLine
 10
-2122.3863713988
 20
6625.1526098063
 30
0.0
 11
-2122.3863713988
 21
6623.1830152117
 31
0.0
  0
LINE
  5
1DC
330
1F
100
AcDbEntity
  8
0
  6
Continuous
 62
     7
370
    25
100
AcDbLine
 10
-2122.3863713988
 20
6623.1830152117
 30
0.0
 11
-2120.7512362636
 21
6623.1830152117
 31
0.0
  0
LINE
  5
1DD
330
1F
100
AcDbEntity
  8
0
  6
Continuous
 62
     7
370
    25
100
AcDbLine
 10
-2116.3958308582
 20
6620.2506883536
 30
0.0
 11
-2116.3958308582
 21
6624.2491047387
 31
0.0
  0
LINE
  5
1DE
330
1F
100
AcDbEntity
  8
0
  6
Continuous
 62
     7
370
    25
100
AcDbLine
 10
-2118.6998849123
 20
6620.206558286
 30
0.0
 11
-2118.6998849123
 21
6625.2199662252
 31
0.0
  0
LINE
  5
1DF
330
1F
100
AcDbEntity
  8
0
  6
Continuous
 62
     7
370
    25
100
AcDbLine
 10
-2118.0309659934
 20
6625.2199662252
 30
0.0
 11
-2118.0309659934
 21
6621.1507094684
 31
0.0
  0
LINE
  5
1E0
330
1F
100
AcDbEntity
  8
0
  6
Continuous
 62
     7
370
    25
100
AcDbLine
 10
-2115.7269119393
 20
6625.1955785563
 30
0.0
 11
-2115.7269119393
 21
6620.2518496711
 31
0.0
  0
LINE
  5
1E1
330
1F
100
AcDbEntity
  8
0
  6
Continuous
 62
     7
370
    25
100
AcDbLine
 10
-2131.5133984258
 20
6621.1774197725
 30
0.0
 11
-2131.5133984258
 21
6621.9218243333
 31
0.0
  0
LINE
  5
1E2
330
1F
100
AcDbEntity
  8
0
  6
Continuous
 62
     7
370
    25
100
AcDbLine
 10
-2132.1846399799
 20
6622.5884206171
 30
0.0
 11
-2133.1485335609
 21
6622.5884206171
 31
0.0
  0
LINE
  5
1E3
330
1F
100
AcDbEntity
  8
0
  6
Continuous
 62
     7
370
    25
100
AcDbLine
 10
-2133.1485335609
 20
6622.5884206171
 30
0.0
 11
-2133.1485335609
 21
6620.507339536
 31
0.0
  0
LINE
  5
1E4
330
1F
100
AcDbEntity
  8
0
  6
Continuous
 62
     7
370
    25
100
AcDbLine
 10
-2133.1485335609
 20
6620.507339536
 30
0.0
 11
-2132.1846399799
 21
6620.507339536
 31
0.0
  0
LINE
  5
1E5
330
1F
100
AcDbEntity
  8
0
  6
Continuous
 62
     7
370
    25
100
AcDbLine
 10
-2131.7363713988
 20
6623.824062509
 30
0.0
 11
-2131.7363713988
 21
6624.1805870022
 31
0.0
  0
LINE
  5
1E6
330
1F
100
AcDbEntity
  8
0
  6
Continuous
 62
     7
370
    25
100
AcDbLine
 10
-2132.3890318717
 20
6624.8181503468
 30
0.0
 11
-2133.1485335609
 21
6624.8181503468
 31
0.0
  0
LINE
  5
1E7
330
1F
100
AcDbEntity
  8
0
  6
Continuous
 62
     7
370
    25
100
AcDbLine
 10
-2133.1485335609
 20
6624.8181503468
 30
0.0
 11
-2133.1485335609
 21
6623.1830152117
 31
0.0
  0
LINE
  5
1E8
330
1F
100
AcDbEntity
  8
0
  6
Continuous
 62
     7
370
    25
100
AcDbLine
 10
-2133.1485335609
 20
6623.1830152117
 30
0.0
 11
-2132.3890318717
 21
6623.1830152117
 31
0.0
  0
LINE
  5
1E9
330
1F
100
AcDbEntity
  8
0
  6
Continuous
 62
     7
370
    25
100
AcDbLine
 10
-2133.8174524799
 20
6620.1786866644
 30
0.0
 11
-2133.8174524799
 21
6625.1468032184
 31
0.0
  0
LINE
  5
1EA
330
1F
100
AcDbEntity
  8
0
  6
Continuous
 62
     7
370
    25
100
AcDbLine
 10
-2133.5491881217
 20
6625.4127449414
 30
0.0
 11
-2132.3820639663
 21
6625.4127449414
 31
0.0
  0
LINE
  5
1EB
330
1F
100
AcDbEntity
  8
0
  6
Continuous
 62
     7
370
    25
100
AcDbLine
 10
-2131.0674524799
 20
6624.2131038941
 30
0.0
 11
-2131.0674524799
 21
6623.8391596374
 31
0.0
  0
LINE
  5
1EC
330
1F
100
AcDbEntity
  8
0
  6
Continuous
 62
     7
370
    25
100
AcDbLine
 10
-2130.8444795069
 20
6621.9287922387
 30
0.0
 11
-2130.8444795069
 21
6621.151870786
 31
0.0
  0
LINE
  5
1ED
330
1F
100
AcDbEntity
  8
0
  6
Continuous
 62
     7
370
    25
100
AcDbLine
 10
-2132.1741881217
 20
6619.9127449414
 30
0.0
 11
-2133.5468654866
 21
6619.9127449414
 31
0.0
  0
LINE
  5
1EE
330
1F
100
AcDbEntity
  8
0
  6
Continuous
 62
     7
370
    25
100
AcDbLine
 10
-2129.4620470745
 20
6620.179847982
 30
0.0
 11
-2129.4620470745
 21
6625.1804814279
 31
0.0
  0
LINE
  5
1EF
330
1F
100
AcDbEntity
  8
0
  6
Continuous
 62
     7
370
    25
100
AcDbLine
 10
-2128.7931281555
 20
6625.1804814279
 30
0.0
 11
-2128.7931281555
 21
6620.179847982
 31
0.0
  0
LINE
  5
1F0
330
1F
100
AcDbEntity
  8
0
  6
Continuous
 62
     7
370
    25
100
AcDbLine
 10
-2111.5944795069
 20
6619.4307981509
 30
0.0
 11
-2111.5944795069
 21
6619.9127449414
 31
0.0
  0
LINE
  5
1F1
330
1F
100
AcDbEntity
  8
0
  6
Continuous
 62
     7
370
    25
100
AcDbLine
 10
-2111.5944795069
 20
6619.9127449414
 30
0.0
 11
-2114.0738925136
 21
6619.9127449414
 31
0.0
  0
LINE
  5
1F2
330
1F
100
AcDbEntity
  8
0
  6
Continuous
 62
     7
370
    25
100
AcDbLine
 10
-2114.3444795069
 20
6620.1775253468
 30
0.0
 11
-2114.3444795069
 21
6625.147964536
 31
0.0
  0
LINE
  5
1F3
330
1F
100
AcDbEntity
  8
0
  6
Continuous
 62
     7
370
    25
100
AcDbLine
 10
-2113.675560588
 20
6625.1502871712
 30
0.0
 11
-2113.675560588
 21
6620.507339536
 31
0.0
  0
LINE
  5
1F4
330
1F
100
AcDbEntity
  8
0
  6
Continuous
 62
     7
370
    25
100
AcDbLine
 10
-2113.675560588
 20
6620.507339536
 30
0.0
 11
-2112.0404254528
 21
6620.507339536
 31
0.0
  0
LINE
  5
1F5
330
1F
100
AcDbEntity
  8
0
  6
Continuous
 62
     7
370
    25
100
AcDbLine
 10
-2112.0404254528
 20
6620.507339536
 30
0.0
 11
-2112.0404254528
 21
6625.1502871712
 31
0.0
  0
LINE
  5
1F6
330
1F
100
AcDbEntity
  8
0
  6
Continuous
 62
     7
370
    25
100
AcDbLine
 10
-2111.3715065339
 20
6625.1502871712
 30
0.0
 11
-2111.3715065339
 21
6620.507339536
 31
0.0
  0
LINE
  5
1F7
330
1F
100
AcDbEntity
  8
0
  6
Continuous
 62
     7
370
    25
100
AcDbLine
 10
-2111.3715065339
 20
6620.507339536
 30
0.0
 11
-2111.2995048447
 21
6620.507339536
 31
0.0
  0
LINE
  5
1F8
330
1F
100
AcDbEntity
  8
0
  6
Continuous
 62
     7
370
    25
100
AcDbLine
 10
-2110.925560588
 20
6620.2344299076
 30
0.0
 11
-2110.925560588
 21
6619.4424113266
 31
0.0
  0
LINE
  5
1F9
330
1F
100
AcDbEntity
  8
0
  6
Continuous
 62
     7
370
    25
100
AcDbLine
 10
-2107.2390741015
 20
6624.8181503468
 30
0.0
 11
-2108.2807759596
 21
6624.8181503468
 31
0.0
  0
LINE
  5
1FA
330
1F
100
AcDbEntity
  8
0
  6
Continuous
 62
     7
370
    25
100
AcDbLine
 10
-2108.8742092366
 20
6624.1724577793
 30
0.0
 11
-2108.8742092366
 21
6623.4536022049
 31
0.0
  0
LINE
  5
1FB
330
1F
100
AcDbEntity
  8
0
  6
Continuous
 62
     7
370
    25
100
AcDbLine
 10
-2108.2807759596
 20
6622.8113935901
 30
0.0
 11
-2107.2390741015
 21
6622.8113935901
 31
0.0
  0
LINE
  5
1FC
330
1F
100
AcDbEntity
  8
0
  6
Continuous
 62
     7
370
    25
100
AcDbLine
 10
-2107.2390741015
 20
6622.8113935901
 30
0.0
 11
-2107.2390741015
 21
6624.8181503468
 31
0.0
  0
LINE
  5
1FD
330
1F
100
AcDbEntity
  8
0
  6
Continuous
 62
     7
370
    25
100
AcDbLine
 10
-2107.2390741015
 20
6620.1786866644
 30
0.0
 11
-2107.2390741015
 21
6622.2167989955
 31
0.0
  0
LINE
  5
1FE
330
1F
100
AcDbEntity
  8
0
  6
Continuous
 62
     7
370
    25
100
AcDbLine
 10
-2107.2390741015
 20
6622.2167989955
 30
0.0
 11
-2107.7837320407
 21
6622.2167989955
 31
0.0
  0
LINE
  5
1FF
330
1F
100
AcDbEntity
  8
0
  6
Continuous
 62
     7
370
    25
100
AcDbLine
 10
-2107.7837320407
 20
6622.2167989955
 30
0.0
 11
-2108.8962742704
 21
6620.0521030495
 31
0.0
  0
LINE
  5
200
330
1F
100
AcDbEntity
  8
0
  6
Continuous
 62
     7
370
    25
100
AcDbLine
 10
-2109.5431281555
 20
6620.1786866644
 30
0.0
 11
-2109.5431281555
 21
6620.2936571036
 31
0.0
  0
LINE
  5
201
330
1F
100
AcDbEntity
  8
0
  6
Continuous
 62
     7
370
    25
100
AcDbLine
 10
-2109.5431281555
 20
6620.2936571036
 30
0.0
 11
-2108.4584575474
 21
6622.2214442657
 31
0.0
  0
LINE
  5
202
330
1F
100
AcDbEntity
  8
0
  6
Continuous
 62
     7
370
    25
100
AcDbLine
 10
-2106.5701551826
 20
6625.1468032184
 30
0.0
 11
-2106.5701551826
 21
6620.1786866644
 31
0.0
  0
LINE
  5
203
330
1F
100
AcDbEntity
  8
0
  6
Continuous
 62
     7
370
    25
100
AcDbLine
 10
-2109.5431281555
 20
6623.4315371711
 30
0.0
 11
-2109.5431281555
 21
6624.194522813
 31
0.0
  0
LINE
  5
204
330
1F
100
AcDbEntity
  8
0
  6
Continuous
 62
     7
370
    25
100
AcDbLine
 10
-2108.2923891353
 20
6625.4127449414
 30
0.0
 11
-2106.9150665001
 21
6625.4127449414
 31
0.0
  0
LINE
  5
205
330
1F
100
AcDbEntity
  8
0
  6
Continuous
 62
     7
370
    25
100
AcDbLine
 10
-2137.162522521
 20
6587.6391537468
 30
0.0
 11
-2135.605248521
 21
6586.8607707468
 31
0.0
  0
LINE
  5
206
330
1F
100
AcDbEntity
  8
0
  6
Continuous
 62
     7
370
    25
100
AcDbLine
 10
-2140.407626521
 20
6589.5218017468
 30
0.0
 11
-2137.162522521
 21
6587.6391537468
 31
0.0
  0
LINE
  5
207
330
1F
100
AcDbEntity
  8
0
  6
Continuous
 62
     7
370
    25
100
AcDbLine
 10
-2142.191595521
 20
6591.8897167468
 30
0.0
 11
-2140.407626521
 21
6589.5218017468
 31
0.0
  0
LINE
  5
208
330
1F
100
AcDbEntity
  8
0
  6
Continuous
 62
     7
370
    25
100
AcDbLine
 10
-2144.073227521
 20
6592.9923307468
 30
0.0
 11
-2142.191595521
 21
6591.8897167468
 31
0.0
  0
LINE
  5
209
330
1F
100
AcDbEntity
  8
0
  6
Continuous
 62
     7
370
    25
100
AcDbLine
 10
-2148.843093521
 20
6593.0898667468
 30
0.0
 11
-2144.073227521
 21
6592.9923307468
 31
0.0
  0
LINE
  5
20A
330
1F
100
AcDbEntity
  8
0
  6
Continuous
 62
     7
370
    25
100
AcDbLine
 10
-2149.621857521
 20
6593.8688847468
 30
0.0
 11
-2148.843093521
 21
6593.0898667468
 31
0.0
  0
LINE
  5
20B
330
1F
100
AcDbEntity
  8
0
  6
Continuous
 62
     7
370
    25
100
AcDbLine
 10
-2150.043624521
 20
6595.0690347468
 30
0.0
 11
-2149.621857521
 21
6593.8688847468
 31
0.0
  0
LINE
  5
20C
330
1F
100
AcDbEntity
  8
0
  6
Continuous
 62
     7
370
    25
100
AcDbLine
 10
-2152.769298521
 20
6594.8749787468
 30
0.0
 11
-2150.043624521
 21
6595.0690347468
 31
0.0
  0
LINE
  5
20D
330
1F
100
AcDbEntity
  8
0
  6
Continuous
 62
     7
370
    25
100
AcDbLine
 10
-2152.995866521
 20
6594.7787127468
 30
0.0
 11
-2152.769298521
 21
6594.8749787468
 31
0.0
  0
LINE
  5
20E
330
1F
100
AcDbEntity
  8
0
  6
Continuous
 62
     7
370
    25
100
AcDbLine
 10
-2152.671889521
 20
6595.1346937468
 30
0.0
 11
-2152.995866521
 21
6594.7787127468
 31
0.0
  0
LINE
  5
20F
330
1F
100
AcDbEntity
  8
0
  6
Continuous
 62
     7
370
    25
100
AcDbLine
 10
-2153.352482521
 20
6595.5564607468
 30
0.0
 11
-2152.671889521
 21
6595.1346937468
 31
0.0
  0
LINE
  5
210
330
1F
100
AcDbEntity
  8
0
  6
Continuous
 62
     7
370
    25
100
AcDbLine
 10
-2153.548316521
 20
6596.5940507468
 30
0.0
 11
-2153.352482521
 21
6595.5564607468
 31
0.0
  0
LINE
  5
211
330
1F
100
AcDbEntity
  8
0
  6
Continuous
 62
     7
370
    25
100
AcDbLine
 10
-2153.451161521
 20
6597.8599867468
 30
0.0
 11
-2153.548316521
 21
6596.5940507468
 31
0.0
  0
LINE
  5
212
330
1F
100
AcDbEntity
  8
0
  6
Continuous
 62
     7
370
    25
100
AcDbLine
 10
-2153.709860521
 20
6599.1588157468
 30
0.0
 11
-2153.451161521
 21
6597.8599867468
 31
0.0
  0
LINE
  5
213
330
1F
100
AcDbEntity
  8
0
  6
Continuous
 62
     7
370
    25
100
AcDbLine
 10
-2154.229036521
 20
6600.4225927468
 30
0.0
 11
-2153.709860521
 21
6599.1588157468
 31
0.0
  0
LINE
  5
214
330
1F
100
AcDbEntity
  8
0
  6
Continuous
 62
     7
370
    25
100
AcDbLine
 10
-2155.234749521
 20
6601.8839817468
 30
0.0
 11
-2154.229036521
 21
6600.4225927468
 31
0.0
  0
LINE
  5
215
330
1F
100
AcDbEntity
  8
0
  6
Continuous
 62
     7
370
    25
100
AcDbLine
 10
-2156.079172521
 20
6602.2727287468
 30
0.0
 11
-2155.234749521
 21
6601.8839817468
 31
0.0
  0
LINE
  5
216
330
1F
100
AcDbEntity
  8
0
  6
Continuous
 62
     7
370
    25
100
AcDbLine
 10
-2155.851842521
 20
6604.5108497468
 30
0.0
 11
-2156.079172521
 21
6602.2727287468
 31
0.0
  0
LINE
  5
217
330
1F
100
AcDbEntity
  8
0
  6
Continuous
 62
     7
370
    25
100
AcDbLine
 10
-2155.072824521
 20
6606.3286007468
 30
0.0
 11
-2155.851842521
 21
6604.5108497468
 31
0.0
  0
LINE
  5
218
330
1F
100
AcDbEntity
  8
0
  6
Continuous
 62
     7
370
    25
100
AcDbLine
 10
-2155.592000521
 20
6607.5935207468
 30
0.0
 11
-2155.072824521
 21
6606.3286007468
 31
0.0
  0
LINE
  5
219
330
1F
100
AcDbEntity
  8
0
  6
Continuous
 62
     7
370
    25
100
AcDbLine
 10
-2154.293806521
 20
6609.2158187468
 30
0.0
 11
-2155.592000521
 21
6607.5935207468
 31
0.0
  0
LINE
  5
21A
330
1F
100
AcDbEntity
  8
0
  6
Continuous
 62
     7
370
    25
100
AcDbLine
 10
-2154.910264521
 20
6613.2393057468
 30
0.0
 11
-2154.293806521
 21
6609.2158187468
 31
0.0
  0
LINE
  5
21B
330
1F
100
AcDbEntity
  8
0
  6
Continuous
 62
     7
370
    25
100
AcDbLine
 10
-2155.657405521
 20
6614.1808837468
 30
0.0
 11
-2154.910264521
 21
6613.2393057468
 31
0.0
  0
LINE
  5
21C
330
1F
100
AcDbEntity
  8
0
  6
Continuous
 62
     7
370
    25
100
AcDbLine
 10
-2155.592000521
 20
6617.1658917468
 30
0.0
 11
-2155.657405521
 21
6614.1808837468
 31
0.0
  0
LINE
  5
21D
330
1F
100
AcDbEntity
  8
0
  6
Continuous
 62
     7
370
    25
100
AcDbLine
 10
-2154.650803521
 20
6618.0090447468
 30
0.0
 11
-2155.592000521
 21
6617.1658917468
 31
0.0
  0
LINE
  5
21E
330
1F
100
AcDbEntity
  8
0
  6
Continuous
 62
     7
370
    25
100
AcDbLine
 10
-2155.072824521
 20
6619.3723897468
 30
0.0
 11
-2154.650803521
 21
6618.0090447468
 31
0.0
  0
LINE
  5
21F
330
1F
100
AcDbEntity
  8
0
  6
Continuous
 62
     7
370
    25
100
AcDbLine
 10
-2154.293806521
 20
6620.8966437468
 30
0.0
 11
-2155.072824521
 21
6619.3723897468
 31
0.0
  0
LINE
  5
220
330
1F
100
AcDbEntity
  8
0
  6
Continuous
 62
     7
370
    25
100
AcDbLine
 10
-2152.671889521
 20
6622.7140137468
 30
0.0
 11
-2154.293806521
 21
6620.8966437468
 31
0.0
  0
LINE
  5
221
330
1F
100
AcDbEntity
  8
0
  6
Continuous
 62
     7
370
    25
100
AcDbLine
 10
-2151.406207521
 20
6622.8767007468
 30
0.0
 11
-2152.671889521
 21
6622.7140137468
 31
0.0
  0
LINE
  5
222
330
1F
100
AcDbEntity
  8
0
  6
Continuous
 62
     7
370
    25
100
AcDbLine
 10
-2151.569148521
 20
6624.8232297468
 30
0.0
 11
-2151.406207521
 21
6622.8767007468
 31
0.0
  0
LINE
  5
223
330
1F
100
AcDbEntity
  8
0
  6
Continuous
 62
     7
370
    25
100
AcDbLine
 10
-2150.627316521
 20
6625.6021207468
 30
0.0
 11
-2151.569148521
 21
6624.8232297468
 31
0.0
  0
LINE
  5
224
330
1F
100
AcDbEntity
  8
0
  6
Continuous
 62
     7
370
    25
100
AcDbLine
 10
-2149.427039521
 20
6625.9582287468
 30
0.0
 11
-2150.627316521
 21
6625.6021207468
 31
0.0
  0
LINE
  5
225
330
1F
100
AcDbEntity
  8
0
  6
Continuous
 62
     7
370
    25
100
AcDbLine
 10
-2148.843093521
 20
6625.3421517468
 30
0.0
 11
-2149.427039521
 21
6625.9582287468
 31
0.0
  0
LINE
  5
226
330
1F
100
AcDbEntity
  8
0
  6
Continuous
 62
     7
370
    25
100
AcDbLine
 10
-2147.999813521
 20
6625.6021207468
 30
0.0
 11
-2148.843093521
 21
6625.3421517468
 31
0.0
  0
LINE
  5
227
330
1F
100
AcDbEntity
  8
0
  6
Continuous
 62
     7
370
    25
100
AcDbLine
 10
-2147.999813521
 20
6627.2244187468
 30
0.0
 11
-2147.999813521
 21
6625.6021207468
 31
0.0
  0
LINE
  5
228
330
1F
100
AcDbEntity
  8
0
  6
Continuous
 62
     7
370
    25
100
AcDbLine
 10
-2146.020010521
 20
6627.1271367468
 30
0.0
 11
-2147.999813521
 21
6627.2244187468
 31
0.0
  0
LINE
  5
229
330
1F
100
AcDbEntity
  8
0
  6
Continuous
 62
     7
370
    25
100
AcDbLine
 10
-2145.501088521
 20
6625.9582287468
 30
0.0
 11
-2146.020010521
 21
6627.1271367468
 31
0.0
  0
LINE
  5
22A
330
1F
100
AcDbEntity
  8
0
  6
Continuous
 62
     7
370
    25
100
AcDbLine
 10
-2144.138632521
 20
6626.1205347468
 30
0.0
 11
-2145.501088521
 21
6625.9582287468
 31
0.0
  0
LINE
  5
22B
330
1F
100
AcDbEntity
  8
0
  6
Continuous
 62
     7
370
    25
100
AcDbLine
 10
-2142.191595521
 20
6627.4841337468
 30
0.0
 11
-2141.932134521
 21
6626.3802497468
 31
0.0
  0
LINE
  5
22C
330
1F
100
AcDbEntity
  8
0
  6
Continuous
 62
     7
370
    25
100
AcDbLine
 10
-2140.471888521
 20
6628.0676987468
 30
0.0
 11
-2142.191595521
 21
6627.4841337468
 31
0.0
  0
LINE
  5
22D
330
1F
100
AcDbEntity
  8
0
  6
Continuous
 62
     7
370
    25
100
AcDbLine
 10
-2139.952839521
 20
6627.3867247468
 30
0.0
 11
-2140.471888521
 21
6628.0676987468
 31
0.0
  0
LINE
  5
22E
330
1F
100
AcDbEntity
  8
0
  6
Continuous
 62
     7
370
    25
100
AcDbLine
 10
-2138.947126521
 20
6627.7428327468
 30
0.0
 11
-2139.952839521
 21
6627.3867247468
 31
0.0
  0
LINE
  5
22F
330
1F
100
AcDbEntity
  8
0
  6
Continuous
 62
     7
370
    25
100
AcDbLine
 10
-2139.790914521
 20
6629.2686107468
 30
0.0
 11
-2138.947126521
 21
6627.7428327468
 31
0.0
  0
LINE
  5
230
330
1F
100
AcDbEntity
  8
0
  6
Continuous
 62
     7
370
    25
100
AcDbLine
 10
-2140.569424521
 20
6629.1717097468
 30
0.0
 11
-2139.790914521
 21
6629.2686107468
 31
0.0
  0
LINE
  5
231
330
1F
100
AcDbEntity
  8
0
  6
Continuous
 62
     7
370
    25
100
AcDbLine
 10
-2140.731095521
 20
6630.1118907468
 30
0.0
 11
-2140.569424521
 21
6629.1717097468
 31
0.0
  0
LINE
  5
232
330
1F
100
AcDbEntity
  8
0
  6
Continuous
 62
     7
370
    25
100
AcDbLine
 10
-2140.147657521
 20
6630.7280947468
 30
0.0
 11
-2140.731095521
 21
6630.1118907468
 31
0.0
  0
LINE
  5
233
330
1F
100
AcDbEntity
  8
0
  6
Continuous
 62
     7
370
    25
100
AcDbLine
 10
-2140.892766521
 20
6634.8166057468
 30
0.0
 11
-2139.952839521
 21
6634.0380957468
 31
0.0
  0
LINE
  5
234
330
1F
100
AcDbEntity
  8
0
  6
Continuous
 62
     7
370
    25
100
AcDbLine
 10
-2141.347807521
 20
6636.5363127468
 30
0.0
 11
-2140.892766521
 21
6634.8166057468
 31
0.0
  0
LINE
  5
235
330
1F
100
AcDbEntity
  8
0
  6
Continuous
 62
     7
370
    25
100
AcDbLine
 10
-2139.530818521
 20
6638.9044817468
 30
0.0
 11
-2141.347807521
 21
6636.5363127468
 31
0.0
  0
LINE
  5
236
330
1F
100
AcDbEntity
  8
0
  6
Continuous
 62
     7
370
    25
100
AcDbLine
 10
-2140.731095521
 20
6639.3266297468
 30
0.0
 11
-2139.530818521
 21
6638.9044817468
 31
0.0
  0
LINE
  5
237
330
1F
100
AcDbEntity
  8
0
  6
Continuous
 62
     7
370
    25
100
AcDbLine
 10
-2141.575137521
 20
6639.1648317468
 30
0.0
 11
-2140.731095521
 21
6639.3266297468
 31
0.0
  0
LINE
  5
238
330
1F
100
AcDbEntity
  8
0
  6
Continuous
 62
     7
370
    25
100
AcDbLine
 10
-2142.094059521
 20
6639.8466947468
 30
0.0
 11
-2141.575137521
 21
6639.1648317468
 31
0.0
  0
LINE
  5
239
330
1F
100
AcDbEntity
  8
0
  6
Continuous
 62
     7
370
    25
100
AcDbLine
 10
-2142.872188521
 20
6639.6836267468
 30
0.0
 11
-2142.094059521
 21
6639.8466947468
 31
0.0
  0
LINE
  5
23A
330
1F
100
AcDbEntity
  8
0
  6
Continuous
 62
     7
370
    25
100
AcDbLine
 10
-2143.132538521
 20
6640.1059017468
 30
0.0
 11
-2142.872188521
 21
6639.6836267468
 31
0.0
  0
LINE
  5
23B
330
1F
100
AcDbEntity
  8
0
  6
Continuous
 62
     7
370
    25
100
AcDbLine
 10
-2141.834852521
 20
6641.8242117468
 30
0.0
 11
-2143.132538521
 21
6640.1059017468
 31
0.0
  0
LINE
  5
23C
330
1F
100
AcDbEntity
  8
0
  6
Continuous
 62
     7
370
    25
100
AcDbLine
 10
-2141.834852521
 20
6642.5719877468
 30
0.0
 11
-2141.834852521
 21
6641.8242117468
 31
0.0
  0
LINE
  5
23D
330
1F
100
AcDbEntity
  8
0
  6
Continuous
 62
     7
370
    25
100
AcDbLine
 10
-2143.294336521
 20
6642.5069637468
 30
0.0
 11
-2141.834852521
 21
6642.5719877468
 31
0.0
  0
LINE
  5
23E
330
1F
100
AcDbEntity
  8
0
  6
Continuous
 62
     7
370
    25
100
AcDbLine
 10
-2143.197435521
 20
6643.7078757468
 30
0.0
 11
-2143.294336521
 21
6642.5069637468
 31
0.0
  0
LINE
  5
23F
330
1F
100
AcDbEntity
  8
0
  6
Continuous
 62
     7
370
    25
100
AcDbLine
 10
-2142.191595521
 20
6644.3888497468
 30
0.0
 11
-2143.197435521
 21
6643.7078757468
 31
0.0
  0
LINE
  5
240
330
1F
100
AcDbEntity
  8
0
  6
Continuous
 62
     7
370
    25
100
AcDbLine
 10
-2142.191595521
 20
6645.4914637468
 30
0.0
 11
-2142.191595521
 21
6644.3888497468
 31
0.0
  0
LINE
  5
241
330
1F
100
AcDbEntity
  8
0
  6
Continuous
 62
     7
370
    25
100
AcDbLine
 10
-2141.413085521
 20
6647.0162257468
 30
0.0
 11
-2142.191595521
 21
6645.4914637468
 31
0.0
  0
LINE
  5
242
330
1F
100
AcDbEntity
  8
0
  6
Continuous
 62
     7
370
    25
100
AcDbLine
 10
-2141.770082521
 20
6647.6980887468
 30
0.0
 11
-2141.413085521
 21
6647.0162257468
 31
0.0
  0
LINE
  5
243
330
1F
100
AcDbEntity
  8
0
  6
Continuous
 62
     7
370
    25
100
AcDbLine
 10
-2140.829393521
 20
6648.6391587468
 30
0.0
 11
-2141.770082521
 21
6647.6980887468
 31
0.0
  0
LINE
  5
244
330
1F
100
AcDbEntity
  8
0
  6
Continuous
 62
     7
370
    25
100
AcDbLine
 10
-2140.309201521
 20
6648.2167567468
 30
0.0
 11
-2140.829393521
 21
6648.6391587468
 31
0.0
  0
LINE
  5
245
330
1F
100
AcDbEntity
  8
0
  6
Continuous
 62
     7
370
    25
100
AcDbLine
 10
-2139.887561521
 20
6649.4171607468
 30
0.0
 11
-2140.309201521
 21
6648.2167567468
 31
0.0
  0
LINE
  5
246
330
1F
100
AcDbEntity
  8
0
  6
Continuous
 62
     7
370
    25
100
AcDbLine
 10
-2141.671784521
 20
6651.1047367468
 30
0.0
 11
-2139.887561521
 21
6649.4171607468
 31
0.0
  0
LINE
  5
247
330
1F
100
AcDbEntity
  8
0
  6
Continuous
 62
     7
370
    25
100
AcDbLine
 10
-2141.347807521
 20
6652.1433427468
 30
0.0
 11
-2141.671784521
 21
6651.1047367468
 31
0.0
  0
LINE
  5
248
330
1F
100
AcDbEntity
  8
0
  6
Continuous
 62
     7
370
    25
100
AcDbLine
 10
-2139.465540521
 20
6652.1433427468
 30
0.0
 11
-2141.347807521
 21
6652.1433427468
 31
0.0
  0
LINE
  5
249
330
1F
100
AcDbEntity
  8
0
  6
Continuous
 62
     7
370
    25
100
AcDbLine
 10
-2139.628989521
 20
6652.2408787468
 30
0.0
 11
-2139.465540521
 21
6652.1433427468
 31
0.0
  0
LINE
  5
24A
330
1F
100
AcDbEntity
  8
0
  6
Continuous
 62
     7
370
    25
100
AcDbLine
 10
-2139.465540521
 20
6653.1488017468
 30
0.0
 11
-2139.628989521
 21
6652.2408787468
 31
0.0
  0
LINE
  5
24B
330
1F
100
AcDbEntity
  8
0
  6
Continuous
 62
     7
370
    25
100
AcDbLine
 10
-2140.277578521
 20
6653.7332557468
 30
0.0
 11
-2139.465540521
 21
6653.1488017468
 31
0.0
  0
LINE
  5
24C
330
1F
100
AcDbEntity
  8
0
  6
Continuous
 62
     7
370
    25
100
AcDbLine
 10
-2140.309201521
 20
6653.6686127468
 30
0.0
 11
-2140.277578521
 21
6653.7332557468
 31
0.0
  0
LINE
  5
24D
330
1F
100
AcDbEntity
  8
0
  6
Continuous
 62
     7
370
    25
100
AcDbLine
 10
-2139.952839521
 20
6654.4471227468
 30
0.0
 11
-2140.309201521
 21
6653.6686127468
 31
0.0
  0
LINE
  5
24E
330
1F
100
AcDbEntity
  8
0
  6
Continuous
 62
     7
370
    25
100
AcDbLine
 10
-2135.183100521
 20
6655.1280967468
 30
0.0
 11
-2136.967958521
 21
6655.4528357468
 31
0.0
  0
LINE
  5
24F
330
1F
100
AcDbEntity
  8
0
  6
Continuous
 62
     7
370
    25
100
AcDbLine
 10
-2135.280001521
 20
6654.6094287468
 30
0.0
 11
-2135.183100521
 21
6655.1280967468
 31
0.0
  0
LINE
  5
250
330
1F
100
AcDbEntity
  8
0
  6
Continuous
 62
     7
370
    25
100
AcDbLine
 10
-2130.672568521
 20
6654.7068377468
 30
0.0
 11
-2135.280001521
 21
6654.6094287468
 31
0.0
  0
LINE
  5
251
330
1F
100
AcDbEntity
  8
0
  6
Continuous
 62
     7
370
    25
100
AcDbLine
 10
-2129.829034521
 20
6655.4528357468
 30
0.0
 11
-2130.672568521
 21
6654.7068377468
 31
0.0
  0
LINE
  5
252
330
1F
100
AcDbEntity
  8
0
  6
Continuous
 62
     7
370
    25
100
AcDbLine
 10
-2127.168638521
 20
6655.9076227468
 30
0.0
 11
-2129.829034521
 21
6655.4528357468
 31
0.0
  0
LINE
  5
253
330
1F
100
AcDbEntity
  8
0
  6
Continuous
 62
     7
370
    25
100
AcDbLine
 10
-2126.584057521
 20
6656.9128277468
 30
0.0
 11
-2127.168638521
 21
6655.9076227468
 31
0.0
  0
LINE
  5
254
330
1F
100
AcDbEntity
  8
0
  6
Continuous
 62
     7
370
    25
100
AcDbLine
 10
-2121.880104521
 20
6655.0310687468
 30
0.0
 11
-2126.584057521
 21
6656.9128277468
 31
0.0
  0
LINE
  5
255
330
1F
100
AcDbEntity
  8
0
  6
Continuous
 62
     7
370
    25
100
AcDbLine
 10
-2121.198114521
 20
6656.9128277468
 30
0.0
 11
-2121.880104521
 21
6655.0310687468
 31
0.0
  0
LINE
  5
256
330
1F
100
AcDbEntity
  8
0
  6
Continuous
 62
     7
370
    25
100
AcDbLine
 10
-2120.257679521
 20
6656.8480577468
 30
0.0
 11
-2121.198114521
 21
6656.9128277468
 31
0.0
  0
LINE
  5
257
330
1F
100
AcDbEntity
  8
0
  6
Continuous
 62
     7
370
    25
100
AcDbLine
 10
-2119.479296521
 20
6655.9715037468
 30
0.0
 11
-2120.257679521
 21
6656.8480577468
 31
0.0
  0
LINE
  5
258
330
1F
100
AcDbEntity
  8
0
  6
Continuous
 62
     7
370
    25
100
AcDbLine
 10
-2118.537972521
 20
6656.5882157468
 30
0.0
 11
-2119.479296521
 21
6655.9715037468
 31
0.0
  0
LINE
  5
259
330
1F
100
AcDbEntity
  8
0
  6
Continuous
 62
     7
370
    25
100
AcDbLine
 10
-2116.753368521
 20
6654.4471227468
 30
0.0
 11
-2118.537972521
 21
6656.5882157468
 31
0.0
  0
LINE
  5
25A
330
1F
100
AcDbEntity
  8
0
  6
Continuous
 62
     7
370
    25
100
AcDbLine
 10
-2116.169676521
 20
6654.6094287468
 30
0.0
 11
-2116.753368521
 21
6654.4471227468
 31
0.0
  0
LINE
  5
25B
330
1F
100
AcDbEntity
  8
0
  6
Continuous
 62
     7
370
    25
100
AcDbLine
 10
-2115.292868521
 20
6656.3287547468
 30
0.0
 11
-2116.169676521
 21
6654.6094287468
 31
0.0
  0
LINE
  5
25C
330
1F
100
AcDbEntity
  8
0
  6
Continuous
 62
     7
370
    25
100
AcDbLine
 10
-2114.188984521
 20
6656.7502677468
 30
0.0
 11
-2115.292868521
 21
6656.3287547468
 31
0.0
  0
LINE
  5
25D
330
1F
100
AcDbEntity
  8
0
  6
Continuous
 62
     7
370
    25
100
AcDbLine
 10
-2113.249565521
 20
6655.5503717468
 30
0.0
 11
-2114.188984521
 21
6656.7502677468
 31
0.0
  0
LINE
  5
25E
330
1F
100
AcDbEntity
  8
0
  6
Continuous
 62
     7
370
    25
100
AcDbLine
 10
-2111.821323521
 20
6655.4528357468
 30
0.0
 11
-2113.249565521
 21
6655.5503717468
 31
0.0
  0
LINE
  5
25F
330
1F
100
AcDbEntity
  8
0
  6
Continuous
 62
     7
370
    25
100
AcDbLine
 10
-2111.042051521
 20
6657.5944367468
 30
0.0
 11
-2111.821323521
 21
6655.4528357468
 31
0.0
  0
LINE
  5
260
330
1F
100
AcDbEntity
  8
0
  6
Continuous
 62
     7
370
    25
100
AcDbLine
 10
-2110.880253521
 20
6657.6920997468
 30
0.0
 11
-2111.042051521
 21
6657.5944367468
 31
0.0
  0
LINE
  5
261
330
1F
100
AcDbEntity
  8
0
  6
Continuous
 62
     7
370
    25
100
AcDbLine
 10
-2108.997986521
 20
6657.5289047468
 30
0.0
 11
-2110.880253521
 21
6657.6920997468
 31
0.0
  0
LINE
  5
262
330
1F
100
AcDbEntity
  8
0
  6
Continuous
 62
     7
370
    25
100
AcDbLine
 10
-2108.154833521
 20
6658.6979397468
 30
0.0
 11
-2108.997986521
 21
6658.6325347468
 31
0.0
  0
LINE
  5
263
330
1F
100
AcDbEntity
  8
0
  6
Continuous
 62
     7
370
    25
100
AcDbLine
 10
-2107.798471521
 20
6659.5734777468
 30
0.0
 11
-2108.154833521
 21
6658.6979397468
 31
0.0
  0
LINE
  5
264
330
1F
100
AcDbEntity
  8
0
  6
Continuous
 62
     7
370
    25
100
AcDbLine
 10
-2106.954556521
 20
6659.4765767468
 30
0.0
 11
-2107.798471521
 21
6659.5734777468
 31
0.0
  0
LINE
  5
265
330
1F
100
AcDbEntity
  8
0
  6
Continuous
 62
     7
370
    25
100
AcDbLine
 10
-2106.857147521
 20
6658.3733277468
 30
0.0
 11
-2106.954556521
 21
6659.4765767468
 31
0.0
  0
LINE
  5
266
330
1F
100
AcDbEntity
  8
0
  6
Continuous
 62
     7
370
    25
100
AcDbLine
 10
-2105.915823521
 20
6658.3733277468
 30
0.0
 11
-2106.857147521
 21
6658.3733277468
 31
0.0
  0
LINE
  5
267
330
1F
100
AcDbEntity
  8
0
  6
Continuous
 62
     7
370
    25
100
AcDbLine
 10
-2105.136932521
 20
6654.7068377468
 30
0.0
 11
-2104.391061521
 21
6655.1280967468
 31
0.0
  0
LINE
  5
268
330
1F
100
AcDbEntity
  8
0
  6
Continuous
 62
     7
370
    25
100
AcDbLine
 10
-2105.071781521
 20
6652.9219797468
 30
0.0
 11
-2105.136932521
 21
6654.7068377468
 31
0.0
  0
LINE
  5
269
330
1F
100
AcDbEntity
  8
0
  6
Continuous
 62
     7
370
    25
100
AcDbLine
 10
-2103.969675521
 20
6652.2408787468
 30
0.0
 11
-2105.071781521
 21
6652.9219797468
 31
0.0
  0
LINE
  5
26A
330
1F
100
AcDbEntity
  8
0
  6
Continuous
 62
     7
370
    25
100
AcDbLine
 10
-2105.397155521
 20
6649.4832007468
 30
0.0
 11
-2103.969675521
 21
6652.2408787468
 31
0.0
  0
LINE
  5
26B
330
1F
100
AcDbEntity
  8
0
  6
Continuous
 62
     7
370
    25
100
AcDbLine
 10
-2103.449610521
 20
6647.4386277468
 30
0.0
 11
-2105.397155521
 21
6649.4832007468
 31
0.0
  0
LINE
  5
26C
330
1F
100
AcDbEntity
  8
0
  6
Continuous
 62
     7
370
    25
100
AcDbLine
 10
-2105.071781521
 20
6646.3352517468
 30
0.0
 11
-2103.449610521
 21
6647.4386277468
 31
0.0
  0
LINE
  5
26D
330
1F
100
AcDbEntity
  8
0
  6
Continuous
 62
     7
370
    25
100
AcDbLine
 10
-2104.391061521
 20
6645.0700777468
 30
0.0
 11
-2105.071781521
 21
6646.3352517468
 31
0.0
  0
LINE
  5
26E
330
1F
100
AcDbEntity
  8
0
  6
Continuous
 62
     7
370
    25
100
AcDbLine
 10
-2098.907963521
 20
6644.7124457468
 30
0.0
 11
-2104.391061521
 21
6645.0700777468
 31
0.0
  0
LINE
  5
26F
330
1F
100
AcDbEntity
  8
0
  6
Continuous
 62
     7
370
    25
100
AcDbLine
 10
-2096.960672521
 20
6645.3943087468
 30
0.0
 11
-2098.907963521
 21
6644.7124457468
 31
0.0
  0
LINE
  5
270
330
1F
100
AcDbEntity
  8
0
  6
Continuous
 62
     7
370
    25
100
AcDbLine
 10
-2096.181654521
 20
6644.1939047468
 30
0.0
 11
-2096.960672521
 21
6645.3943087468
 31
0.0
  0
LINE
  5
271
330
1F
100
AcDbEntity
  8
0
  6
Continuous
 62
     7
370
    25
100
AcDbLine
 10
-2095.435656521
 20
6644.8751327468
 30
0.0
 11
-2096.181654521
 21
6644.1939047468
 31
0.0
  0
LINE
  5
272
330
1F
100
AcDbEntity
  8
0
  6
Continuous
 62
     7
370
    25
100
AcDbLine
 10
-2095.013254521
 20
6646.6923757468
 30
0.0
 11
-2095.435656521
 21
6644.8751327468
 31
0.0
  0
LINE
  5
273
330
1F
100
AcDbEntity
  8
0
  6
Continuous
 62
     7
370
    25
100
AcDbLine
 10
-2092.612065521
 20
6646.5948397468
 30
0.0
 11
-2095.013254521
 21
6646.6923757468
 31
0.0
  0
LINE
  5
274
330
1F
100
AcDbEntity
  8
0
  6
Continuous
 62
     7
370
    25
100
AcDbLine
 10
-2091.574348521
 20
6648.2167567468
 30
0.0
 11
-2092.612065521
 21
6646.5948397468
 31
0.0
  0
LINE
  5
275
330
1F
100
AcDbEntity
  8
0
  6
Continuous
 62
     7
370
    25
100
AcDbLine
 10
-2089.789871521
 20
6647.1785317468
 30
0.0
 11
-2091.574348521
 21
6648.2167567468
 31
0.0
  0
LINE
  5
276
330
1F
100
AcDbEntity
  8
0
  6
Continuous
 62
     7
370
    25
100
AcDbLine
 10
-2089.141282521
 20
6647.4068777468
 30
0.0
 11
-2089.789871521
 21
6647.1785317468
 31
0.0
  0
LINE
  5
277
330
1F
100
AcDbEntity
  8
0
  6
Continuous
 62
     7
370
    25
100
AcDbLine
 10
-2087.907858521
 20
6646.0108937468
 30
0.0
 11
-2089.141282521
 21
6647.4068777468
 31
0.0
  0
LINE
  5
278
330
1F
100
AcDbEntity
  8
0
  6
Continuous
 62
     7
370
    25
100
AcDbLine
 10
-2089.205163521
 20
6644.6156717468
 30
0.0
 11
-2087.907858521
 21
6646.0108937468
 31
0.0
  0
LINE
  5
279
330
1F
100
AcDbEntity
  8
0
  6
Continuous
 62
     7
370
    25
100
AcDbLine
 10
-2088.004886521
 20
6642.2464867468
 30
0.0
 11
-2089.205163521
 21
6644.6156717468
 31
0.0
  0
LINE
  5
27A
330
1F
100
AcDbEntity
  8
0
  6
Continuous
 62
     7
370
    25
100
AcDbLine
 10
-2086.707327521
 20
6640.4620097468
 30
0.0
 11
-2088.004886521
 21
6642.2464867468
 31
0.0
  0
LINE
  5
27B
330
1F
100
AcDbEntity
  8
0
  6
Continuous
 62
     7
370
    25
100
AcDbLine
 10
-2087.226757521
 20
6639.6836267468
 30
0.0
 11
-2086.707327521
 21
6640.4620097468
 31
0.0
  0
LINE
  5
27C
330
1F
100
AcDbEntity
  8
0
  6
Continuous
 62
     7
370
    25
100
AcDbLine
 10
-2086.480124521
 20
6637.8987687468
 30
0.0
 11
-2087.226757521
 21
6639.6836267468
 31
0.0
  0
LINE
  5
27D
330
1F
100
AcDbEntity
  8
0
  6
Continuous
 62
     7
370
    25
100
AcDbLine
 10
-2086.967169521
 20
6636.1793157468
 30
0.0
 11
-2086.480124521
 21
6637.8987687468
 31
0.0
  0
LINE
  5
27E
330
1F
100
AcDbEntity
  8
0
  6
Continuous
 62
     7
370
    25
100
AcDbLine
 10
-2088.849182521
 20
6636.0817797468
 30
0.0
 11
-2086.967169521
 21
6636.1793157468
 31
0.0
  0
LINE
  5
27F
330
1F
100
AcDbEntity
  8
0
  6
Continuous
 62
     7
370
    25
100
AcDbLine
 10
-2089.011742521
 20
6634.4922477468
 30
0.0
 11
-2088.849182521
 21
6636.0817797468
 31
0.0
  0
LINE
  5
280
330
1F
100
AcDbEntity
  8
0
  6
Continuous
 62
     7
370
    25
100
AcDbLine
 10
-2087.907858521
 20
6633.8761707468
 30
0.0
 11
-2089.011742521
 21
6634.4922477468
 31
0.0
  0
LINE
  5
281
330
1F
100
AcDbEntity
  8
0
  6
Continuous
 62
     7
370
    25
100
AcDbLine
 10
-2087.226757521
 20
6631.4743467468
 30
0.0
 11
-2087.907858521
 21
6633.8761707468
 31
0.0
  0
LINE
  5
282
330
1F
100
AcDbEntity
  8
0
  6
Continuous
 62
     7
370
    25
100
AcDbLine
 10
-2085.182057521
 20
6631.3120407468
 30
0.0
 11
-2087.226757521
 21
6631.4743467468
 31
0.0
  0
LINE
  5
283
330
1F
100
AcDbEntity
  8
0
  6
Continuous
 62
     7
370
    25
100
AcDbLine
 10
-2085.085537521
 20
6630.3068357468
 30
0.0
 11
-2085.182057521
 21
6631.3120407468
 31
0.0
  0
LINE
  5
284
330
1F
100
AcDbEntity
  8
0
  6
Continuous
 62
     7
370
    25
100
AcDbLine
 10
-2084.858461521
 20
6628.4245687468
 30
0.0
 11
-2085.085537521
 21
6630.3068357468
 31
0.0
  0
LINE
  5
285
330
1F
100
AcDbEntity
  8
0
  6
Continuous
 62
     7
370
    25
100
AcDbLine
 10
-2083.138119521
 20
6627.9050117468
 30
0.0
 11
-2084.858461521
 21
6628.4245687468
 31
0.0
  0
LINE
  5
286
330
1F
100
AcDbEntity
  8
0
  6
Continuous
 62
     7
370
    25
100
AcDbLine
 10
-2082.553792521
 20
6628.4890847468
 30
0.0
 11
-2083.138119521
 21
6627.9050117468
 31
0.0
  0
LINE
  5
287
330
1F
100
AcDbEntity
  8
0
  6
Continuous
 62
     7
370
    25
100
AcDbLine
 10
-2081.775409521
 20
6628.6835217468
 30
0.0
 11
-2082.553792521
 21
6628.4890847468
 31
0.0
  0
LINE
  5
288
330
1F
100
AcDbEntity
  8
0
  6
Continuous
 62
     7
370
    25
100
AcDbLine
 10
-2081.775409521
 20
6627.3210657468
 30
0.0
 11
-2081.775409521
 21
6628.6835217468
 31
0.0
  0
LINE
  5
289
330
1F
100
AcDbEntity
  8
0
  6
Continuous
 62
     7
370
    25
100
AcDbLine
 10
-2083.301314521
 20
6626.8030327468
 30
0.0
 11
-2081.775409521
 21
6627.3210657468
 31
0.0
  0
LINE
  5
28A
330
1F
100
AcDbEntity
  8
0
  6
Continuous
 62
     7
370
    25
100
AcDbLine
 10
-2083.301314521
 20
6625.8615817468
 30
0.0
 11
-2083.301314521
 21
6626.8030327468
 31
0.0
  0
LINE
  5
28B
330
1F
100
AcDbEntity
  8
0
  6
Continuous
 62
     7
370
    25
100
AcDbLine
 10
-2082.553792521
 20
6625.5049657468
 30
0.0
 11
-2083.301314521
 21
6625.8615817468
 31
0.0
  0
LINE
  5
28C
330
1F
100
AcDbEntity
  8
0
  6
Continuous
 62
     7
370
    25
100
AcDbLine
 10
-2082.294585521
 20
6623.2980867468
 30
0.0
 11
-2082.553792521
 21
6625.5049657468
 31
0.0
  0
LINE
  5
28D
330
1F
100
AcDbEntity
  8
0
  6
Continuous
 62
     7
370
    25
100
AcDbLine
 10
-2081.678254521
 20
6623.0392607468
 30
0.0
 11
-2082.294585521
 21
6623.2980867468
 31
0.0
  0
LINE
  5
28E
330
1F
100
AcDbEntity
  8
0
  6
Continuous
 62
     7
370
    25
100
AcDbLine
 10
-2081.678254521
 20
6622.5194497468
 30
0.0
 11
-2081.678254521
 21
6623.0392607468
 31
0.0
  0
LINE
  5
28F
330
1F
100
AcDbEntity
  8
0
  6
Continuous
 62
     7
370
    25
100
AcDbLine
 10
-2083.041472521
 20
6622.2596077468
 30
0.0
 11
-2081.678254521
 21
6622.5194497468
 31
0.0
  0
LINE
  5
290
330
1F
100
AcDbEntity
  8
0
  6
Continuous
 62
     7
370
    25
100
AcDbLine
 10
-2083.138119521
 20
6621.4162007468
 30
0.0
 11
-2083.041472521
 21
6622.2596077468
 31
0.0
  0
LINE
  5
291
330
1F
100
AcDbEntity
  8
0
  6
Continuous
 62
     7
370
    25
100
AcDbLine
 10
-2084.079062521
 20
6621.5133557468
 30
0.0
 11
-2083.138119521
 21
6621.4162007468
 31
0.0
  0
LINE
  5
292
330
1F
100
AcDbEntity
  8
0
  6
Continuous
 62
     7
370
    25
100
AcDbLine
 10
-2084.338650521
 20
6620.1500107468
 30
0.0
 11
-2084.079062521
 21
6621.5133557468
 31
0.0
  0
LINE
  5
293
330
1F
100
AcDbEntity
  8
0
  6
Continuous
 62
     7
370
    25
100
AcDbLine
 10
-2085.279339521
 20
6619.8905497468
 30
0.0
 11
-2084.338650521
 21
6620.1500107468
 31
0.0
  0
LINE
  5
294
330
1F
100
AcDbEntity
  8
0
  6
Continuous
 62
     7
370
    25
100
AcDbLine
 10
-2084.922215521
 20
6617.6520477468
 30
0.0
 11
-2085.279339521
 21
6619.8905497468
 31
0.0
  0
LINE
  5
295
330
1F
100
AcDbEntity
  8
0
  6
Continuous
 62
     7
370
    25
100
AcDbLine
 10
-2083.561029521
 20
6617.6520477468
 30
0.0
 11
-2084.922215521
 21
6617.6520477468
 31
0.0
  0
LINE
  5
296
330
1F
100
AcDbEntity
  8
0
  6
Continuous
 62
     7
370
    25
100
AcDbLine
 10
-2083.462350521
 20
6615.8025467468
 30
0.0
 11
-2083.561029521
 21
6617.6520477468
 31
0.0
  0
LINE
  5
297
330
1F
100
AcDbEntity
  8
0
  6
Continuous
 62
     7
370
    25
100
AcDbLine
 10
-2085.279339521
 20
6614.7643217468
 30
0.0
 11
-2083.462350521
 21
6615.8025467468
 31
0.0
  0
LINE
  5
298
330
1F
100
AcDbEntity
  8
0
  6
Continuous
 62
     7
370
    25
100
AcDbLine
 10
-2085.085537521
 20
6613.2393057468
 30
0.0
 11
-2085.279339521
 21
6614.7643217468
 31
0.0
  0
LINE
  5
299
330
1F
100
AcDbEntity
  8
0
  6
Continuous
 62
     7
370
    25
100
AcDbLine
 10
-2083.981272521
 20
6612.4609227468
 30
0.0
 11
-2085.085537521
 21
6613.2393057468
 31
0.0
  0
LINE
  5
29A
330
1F
100
AcDbEntity
  8
0
  6
Continuous
 62
     7
370
    25
100
AcDbLine
 10
-2082.879039521
 20
6613.4025007468
 30
0.0
 11
-2083.981272521
 21
6612.4609227468
 31
0.0
  0
LINE
  5
29B
330
1F
100
AcDbEntity
  8
0
  6
Continuous
 62
     7
370
    25
100
AcDbLine
 10
-2081.937080521
 20
6612.9792097468
 30
0.0
 11
-2082.879039521
 21
6613.4025007468
 31
0.0
  0
LINE
  5
29C
330
1F
100
AcDbEntity
  8
0
  6
Continuous
 62
     7
370
    25
100
AcDbLine
 10
-2082.359609521
 20
6611.4220627468
 30
0.0
 11
-2081.937080521
 21
6612.9792097468
 31
0.0
  0
LINE
  5
29D
330
1F
100
AcDbEntity
  8
0
  6
Continuous
 62
     7
370
    25
100
AcDbLine
 10
-2081.094181521
 20
6605.8092977468
 30
0.0
 11
-2082.359609521
 21
6611.4220627468
 31
0.0
  0
LINE
  5
29E
330
1F
100
AcDbEntity
  8
0
  6
Continuous
 62
     7
370
    25
100
AcDbLine
 10
-2077.849458521
 20
6605.3872767468
 30
0.0
 11
-2081.094181521
 21
6605.8092977468
 31
0.0
  0
LINE
  5
29F
330
1F
100
AcDbEntity
  8
0
  6
Continuous
 62
     7
370
    25
100
AcDbLine
 10
-2076.907753521
 20
6604.1872537468
 30
0.0
 11
-2077.849458521
 21
6605.3872767468
 31
0.0
  0
LINE
  5
2A0
330
1F
100
AcDbEntity
  8
0
  6
Continuous
 62
     7
370
    25
100
AcDbLine
 10
-2078.173562521
 20
6604.0245667468
 30
0.0
 11
-2076.907753521
 21
6604.1872537468
 31
0.0
  0
LINE
  5
2A1
330
1F
100
AcDbEntity
  8
0
  6
Continuous
 62
     7
370
    25
100
AcDbLine
 10
-2078.173562521
 20
6602.8237817468
 30
0.0
 11
-2078.173562521
 21
6604.0245667468
 31
0.0
  0
LINE
  5
2A2
330
1F
100
AcDbEntity
  8
0
  6
Continuous
 62
     7
370
    25
100
AcDbLine
 10
-2075.643087521
 20
6601.2663807468
 30
0.0
 11
-2078.173562521
 21
6602.8237817468
 31
0.0
  0
LINE
  5
2A3
330
1F
100
AcDbEntity
  8
0
  6
Continuous
 62
     7
370
    25
100
AcDbLine
 10
-2075.026121521
 20
6598.8975767468
 30
0.0
 11
-2075.643087521
 21
6601.2663807468
 31
0.0
  0
LINE
  5
2A4
330
1F
100
AcDbEntity
  8
0
  6
Continuous
 62
     7
370
    25
100
AcDbLine
 10
-2074.020281521
 20
6598.4764447468
 30
0.0
 11
-2075.026121521
 21
6598.8975767468
 31
0.0
  0
LINE
  5
2A5
330
1F
100
AcDbEntity
  8
0
  6
Continuous
 62
     7
370
    25
100
AcDbLine
 10
-2073.923380521
 20
6597.8599867468
 30
0.0
 11
-2074.020281521
 21
6598.4764447468
 31
0.0
  0
LINE
  5
2A6
330
1F
100
AcDbEntity
  8
0
  6
Continuous
 62
     7
370
    25
100
AcDbLine
 10
-2075.124419521
 20
6597.5356287468
 30
0.0
 11
-2073.923380521
 21
6597.8599867468
 31
0.0
  0
LINE
  5
2A7
330
1F
100
AcDbEntity
  8
0
  6
Continuous
 62
     7
370
    25
100
AcDbLine
 10
-2075.286344521
 20
6596.5940507468
 30
0.0
 11
-2075.124419521
 21
6597.5356287468
 31
0.0
  0
LINE
  5
2A8
330
1F
100
AcDbEntity
  8
0
  6
Continuous
 62
     7
370
    25
100
AcDbLine
 10
-2073.762344521
 20
6596.3354787468
 30
0.0
 11
-2075.286344521
 21
6596.5940507468
 31
0.0
  0
LINE
  5
2A9
330
1F
100
AcDbEntity
  8
0
  6
Continuous
 62
     7
370
    25
100
AcDbLine
 10
-2073.566383521
 20
6594.8083037468
 30
0.0
 11
-2073.762344521
 21
6596.3354787468
 31
0.0
  0
LINE
  5
2AA
330
1F
100
AcDbEntity
  8
0
  6
Continuous
 62
     7
370
    25
100
AcDbLine
 10
-2074.442302521
 20
6592.9273067468
 30
0.0
 11
-2073.566383521
 21
6594.8083037468
 31
0.0
  0
LINE
  5
2AB
330
1F
100
AcDbEntity
  8
0
  6
Continuous
 62
     7
370
    25
100
AcDbLine
 10
-2073.566383521
 20
6592.3111027468
 30
0.0
 11
-2074.442302521
 21
6592.9273067468
 31
0.0
  0
LINE
  5
2AC
330
1F
100
AcDbEntity
  8
0
  6
Continuous
 62
     7
370
    25
100
AcDbLine
 10
-2075.870544521
 20
6590.2020137468
 30
0.0
 11
-2073.566383521
 21
6592.3111027468
 31
0.0
  0
LINE
  5
2AD
330
1F
100
AcDbEntity
  8
0
  6
Continuous
 62
     7
370
    25
100
AcDbLine
 10
-2077.233000521
 20
6590.4292167468
 30
0.0
 11
-2075.870544521
 21
6590.2020137468
 31
0.0
  0
LINE
  5
2AE
330
1F
100
AcDbEntity
  8
0
  6
Continuous
 62
     7
370
    25
100
AcDbLine
 10
-2078.790401521
 20
6589.5218017468
 30
0.0
 11
-2077.233000521
 21
6590.4292167468
 31
0.0
  0
LINE
  5
2AF
330
1F
100
AcDbEntity
  8
0
  6
Continuous
 62
     7
370
    25
100
AcDbLine
 10
-2078.693881521
 20
6588.5798427468
 30
0.0
 11
-2078.790401521
 21
6589.5218017468
 31
0.0
  0
LINE
  5
2B0
330
1F
100
AcDbEntity
  8
0
  6
Continuous
 62
     7
370
    25
100
AcDbLine
 10
-2079.796368521
 20
6587.8005707468
 30
0.0
 11
-2078.693881521
 21
6588.5798427468
 31
0.0
  0
LINE
  5
2B1
330
1F
100
AcDbEntity
  8
0
  6
Continuous
 62
     7
370
    25
100
AcDbLine
 10
-2082.456510521
 20
6584.0051757468
 30
0.0
 11
-2079.796368521
 21
6587.8005707468
 31
0.0
  0
LINE
  5
2B2
330
1F
100
AcDbEntity
  8
0
  6
Continuous
 62
     7
370
    25
100
AcDbLine
 10
-2081.158824521
 20
6582.1876787468
 30
0.0
 11
-2082.456510521
 21
6584.0051757468
 31
0.0
  0
LINE
  5
2B3
330
1F
100
AcDbEntity
  8
0
  6
Continuous
 62
     7
370
    25
100
AcDbLine
 10
-2081.418412521
 20
6579.8211607468
 30
0.0
 11
-2081.158824521
 21
6582.1876787468
 31
0.0
  0
LINE
  5
2B4
330
1F
100
AcDbEntity
  8
0
  6
Continuous
 62
     7
370
    25
100
AcDbLine
 10
-2083.819601521
 20
6578.7806497468
 30
0.0
 11
-2081.418412521
 21
6579.8211607468
 31
0.0
  0
LINE
  5
2B5
330
1F
100
AcDbEntity
  8
0
  6
Continuous
 62
     7
370
    25
100
AcDbLine
 10
-2084.403674521
 20
6579.3985047468
 30
0.0
 11
-2083.819601521
 21
6578.7806497468
 31
0.0
  0
LINE
  5
2B6
330
1F
100
AcDbEntity
  8
0
  6
Continuous
 62
     7
370
    25
100
AcDbLine
 10
-2085.085537521
 20
6578.6192327468
 30
0.0
 11
-2084.403674521
 21
6579.3985047468
 31
0.0
  0
LINE
  5
2B7
330
1F
100
AcDbEntity
  8
0
  6
Continuous
 62
     7
370
    25
100
AcDbLine
 10
-2083.981272521
 20
6577.3215467468
 30
0.0
 11
-2085.085537521
 21
6578.6192327468
 31
0.0
  0
LINE
  5
2B8
330
1F
100
AcDbEntity
  8
0
  6
Continuous
 62
     7
370
    25
100
AcDbLine
 10
-2083.981272521
 20
6575.0184017468
 30
0.0
 11
-2083.981272521
 21
6577.3215467468
 31
0.0
  0
LINE
  5
2B9
330
1F
100
AcDbEntity
  8
0
  6
Continuous
 62
     7
370
    25
100
AcDbLine
 10
-2084.922215521
 20
6574.7895477468
 30
0.0
 11
-2083.981272521
 21
6575.0184017468
 31
0.0
  0
LINE
  5
2BA
330
1F
100
AcDbEntity
  8
0
  6
Continuous
 62
     7
370
    25
100
AcDbLine
 10
-2086.707327521
 20
6576.1528927468
 30
0.0
 11
-2084.922215521
 21
6574.7895477468
 31
0.0
  0
LINE
  5
2BB
330
1F
100
AcDbEntity
  8
0
  6
Continuous
 62
     7
370
    25
100
AcDbLine
 10
-2088.070545521
 20
6574.6929007468
 30
0.0
 11
-2086.707327521
 21
6576.1528927468
 31
0.0
  0
LINE
  5
2BC
330
1F
100
AcDbEntity
  8
0
  6
Continuous
 62
     7
370
    25
100
AcDbLine
 10
-2090.568254521
 20
6574.3362847468
 30
0.0
 11
-2088.070545521
 21
6574.6929007468
 31
0.0
  0
LINE
  5
2BD
330
1F
100
AcDbEntity
  8
0
  6
Continuous
 62
     7
370
    25
100
AcDbLine
 10
-2090.990910521
 20
6575.7306177468
 30
0.0
 11
-2090.568254521
 21
6574.3362847468
 31
0.0
  0
LINE
  5
2BE
330
1F
100
AcDbEntity
  8
0
  6
Continuous
 62
     7
370
    25
100
AcDbLine
 10
-2093.618667521
 20
6575.5373237468
 30
0.0
 11
-2090.990910521
 21
6575.7306177468
 31
0.0
  0
LINE
  5
2BF
330
1F
100
AcDbEntity
  8
0
  6
Continuous
 62
     7
370
    25
100
AcDbLine
 10
-2094.560499521
 20
6574.4334397468
 30
0.0
 11
-2093.618667521
 21
6575.5373237468
 31
0.0
  0
LINE
  5
2C0
330
1F
100
AcDbEntity
  8
0
  6
Continuous
 62
     7
370
    25
100
AcDbLine
 10
-2095.337866521
 20
6575.0184017468
 30
0.0
 11
-2094.560499521
 21
6574.4334397468
 31
0.0
  0
LINE
  5
2C1
330
1F
100
AcDbEntity
  8
0
  6
Continuous
 62
     7
370
    25
100
AcDbLine
 10
-2097.544999521
 20
6574.6929007468
 30
0.0
 11
-2095.337866521
 21
6575.0184017468
 31
0.0
  0
LINE
  5
2C2
330
1F
100
AcDbEntity
  8
0
  6
Continuous
 62
     7
370
    25
100
AcDbLine
 10
-2098.907963521
 20
6577.3215467468
 30
0.0
 11
-2097.544999521
 21
6574.6929007468
 31
0.0
  0
LINE
  5
2C3
330
1F
100
AcDbEntity
  8
0
  6
Continuous
 62
     7
370
    25
100
AcDbLine
 10
-2101.211235521
 20
6577.5153487468
 30
0.0
 11
-2098.907963521
 21
6577.3215467468
 31
0.0
  0
LINE
  5
2C4
330
1F
100
AcDbEntity
  8
0
  6
Continuous
 62
     7
370
    25
100
AcDbLine
 10
-2104.553367521
 20
6581.0202947468
 30
0.0
 11
-2101.211235521
 21
6577.5153487468
 31
0.0
  0
LINE
  5
2C5
330
1F
100
AcDbEntity
  8
0
  6
Continuous
 62
     7
370
    25
100
AcDbLine
 10
-2105.656362521
 20
6579.8832637468
 30
0.0
 11
-2104.553367521
 21
6581.0202947468
 31
0.0
  0
LINE
  5
2C6
330
1F
100
AcDbEntity
  8
0
  6
Continuous
 62
     7
370
    25
100
AcDbLine
 10
-2105.071781521
 20
6578.3593907468
 30
0.0
 11
-2105.656362521
 21
6579.8832637468
 31
0.0
  0
LINE
  5
2C7
330
1F
100
AcDbEntity
  8
0
  6
Continuous
 62
     7
370
    25
100
AcDbLine
 10
-2105.850545521
 20
6578.1974657468
 30
0.0
 11
-2105.071781521
 21
6578.3593907468
 31
0.0
  0
LINE
  5
2C8
330
1F
100
AcDbEntity
  8
0
  6
Continuous
 62
     7
370
    25
100
AcDbLine
 10
-2108.219857521
 20
6578.1974657468
 30
0.0
 11
-2105.850545521
 21
6578.1974657468
 31
0.0
  0
LINE
  5
2C9
330
1F
100
AcDbEntity
  8
0
  6
Continuous
 62
     7
370
    25
100
AcDbLine
 10
-2108.219857521
 20
6576.1528927468
 30
0.0
 11
-2108.219857521
 21
6578.1974657468
 31
0.0
  0
LINE
  5
2CA
330
1F
100
AcDbEntity
  8
0
  6
Continuous
 62
     7
370
    25
100
AcDbLine
 10
-2109.160546521
 20
6574.3362847468
 30
0.0
 11
-2108.219857521
 21
6576.1528927468
 31
0.0
  0
LINE
  5
2CB
330
1F
100
AcDbEntity
  8
0
  6
Continuous
 62
     7
370
    25
100
AcDbLine
 10
-2110.880253521
 20
6574.5948567468
 30
0.0
 11
-2109.160546521
 21
6574.3362847468
 31
0.0
  0
LINE
  5
2CC
330
1F
100
AcDbEntity
  8
0
  6
Continuous
 62
     7
370
    25
100
AcDbLine
 10
-2111.042051521
 20
6576.3148177468
 30
0.0
 11
-2110.880253521
 21
6574.5948567468
 31
0.0
  0
LINE
  5
2CD
330
1F
100
AcDbEntity
  8
0
  6
Continuous
 62
     7
370
    25
100
AcDbLine
 10
-2114.449969521
 20
6577.0926927468
 30
0.0
 11
-2111.042051521
 21
6576.3148177468
 31
0.0
  0
LINE
  5
2CE
330
1F
100
AcDbEntity
  8
0
  6
Continuous
 62
     7
370
    25
100
AcDbLine
 10
-2115.909707521
 20
6578.0360487468
 30
0.0
 11
-2114.449969521
 21
6577.0926927468
 31
0.0
  0
LINE
  5
2CF
330
1F
100
AcDbEntity
  8
0
  6
Continuous
 62
     7
370
    25
100
AcDbLine
 10
-2117.596648521
 20
6578.0360487468
 30
0.0
 11
-2115.909707521
 21
6578.0360487468
 31
0.0
  0
LINE
  5
2D0
330
1F
100
AcDbEntity
  8
0
  6
Continuous
 62
     7
370
    25
100
AcDbLine
 10
-2119.219200521
 20
6578.9438447468
 30
0.0
 11
-2117.596648521
 21
6578.0360487468
 31
0.0
  0
LINE
  5
2D1
330
1F
100
AcDbEntity
  8
0
  6
Continuous
 62
     7
370
    25
100
AcDbLine
 10
-2120.679192521
 20
6578.7806497468
 30
0.0
 11
-2119.219200521
 21
6578.9438447468
 31
0.0
  0
LINE
  5
2D2
330
1F
100
AcDbEntity
  8
0
  6
Continuous
 62
     7
370
    25
100
AcDbLine
 10
-2122.041902521
 20
6576.3148177468
 30
0.0
 11
-2120.679192521
 21
6578.7806497468
 31
0.0
  0
LINE
  5
2D3
330
1F
100
AcDbEntity
  8
0
  6
Continuous
 62
     7
370
    25
100
AcDbLine
 10
-2122.885563521
 20
6575.4711567468
 30
0.0
 11
-2122.041902521
 21
6576.3148177468
 31
0.0
  0
LINE
  5
2D4
330
1F
100
AcDbEntity
  8
0
  6
Continuous
 62
     7
370
    25
100
AcDbLine
 10
-2123.664454521
 20
6576.7365847468
 30
0.0
 11
-2122.885563521
 21
6575.4711567468
 31
0.0
  0
LINE
  5
2D5
330
1F
100
AcDbEntity
  8
0
  6
Continuous
 62
     7
370
    25
100
AcDbLine
 10
-2124.183884521
 20
6579.4623857468
 30
0.0
 11
-2123.664454521
 21
6576.7365847468
 31
0.0
  0
LINE
  5
2D6
330
1F
100
AcDbEntity
  8
0
  6
Continuous
 62
     7
370
    25
100
AcDbLine
 10
-2125.286625521
 20
6579.7218467468
 30
0.0
 11
-2124.183884521
 21
6579.4623857468
 31
0.0
  0
LINE
  5
2D7
330
1F
100
AcDbEntity
  8
0
  6
Continuous
 62
     7
370
    25
100
AcDbLine
 10
-2127.071356521
 20
6578.0360487468
 30
0.0
 11
-2125.286625521
 21
6579.7218467468
 31
0.0
  0
LINE
  5
2D8
330
1F
100
AcDbEntity
  8
0
  6
Continuous
 62
     7
370
    25
100
AcDbLine
 10
-2127.947529521
 20
6579.2038137468
 30
0.0
 11
-2127.071356521
 21
6578.0360487468
 31
0.0
  0
LINE
  5
2D9
330
1F
100
AcDbEntity
  8
0
  6
Continuous
 62
     7
370
    25
100
AcDbLine
 10
-2126.487029521
 20
6581.4421887468
 30
0.0
 11
-2127.947529521
 21
6579.2038137468
 31
0.0
  0
LINE
  5
2DA
330
1F
100
AcDbEntity
  8
0
  6
Continuous
 62
     7
370
    25
100
AcDbLine
 10
-2127.168638521
 20
6582.5451837468
 30
0.0
 11
-2126.487029521
 21
6581.4421887468
 31
0.0
  0
LINE
  5
2DB
330
1F
100
AcDbEntity
  8
0
  6
Continuous
 62
     7
370
    25
100
AcDbLine
 10
-2131.256514521
 20
6582.0248647468
 30
0.0
 11
-2127.168638521
 21
6582.5451837468
 31
0.0
  0
ENDSEC
  0
SECTION
  2
OBJECTS
  0
DICTIONARY
  5
C
330
0
100
AcDbDictionary
281
     1
  3
ACAD_GROUP
350
D
  3
ACAD_LAYOUT
350
1A
  3
ACAD_MLINESTYLE
350
17
  3
ACAD_PLOTSETTINGS
350
19
  3
ACAD_PLOTSTYLENAME
350
E
  3
ACAD_SCALELIST
350
47
  0
DICTIONARY
  5
D
102
{ACAD_REACTORS
330
C
102
}
330
C
100
AcDbDictionary
281
     1
  0
DICTIONARY
  5
1A
102
{ACAD_REACTORS
330
C
102
}
330
C
100
AcDbDictionary
281
     1
  3
Layout1
350
1E
  3
Layout2
350
26
  3
Model
350
22
  0
DICTIONARY
  5
17
102
{ACAD_REACTORS
330
C
102
}
330
C
100
AcDbDictionary
281
     1
  3
Standard
350
18
  0
DICTIONARY
  5
19
102
{ACAD_REACTORS
330
C
102
}
330
C
100
AcDbDictionary
281
     1
  0
ACDBDICTIONARYWDFLT
  5
E
102
{ACAD_REACTORS
330
C
102
}
330
C
100
AcDbDictionary
281
     1
  3
Normal
350
F
100
AcDbDictionaryWithDefault
340
F
  0
DICTIONARY
  5
47
102
{ACAD_REACTORS
330
C
102
}
330
C
100
AcDbDictionary
281
     1
  3
A0
350
48
  3
A1
350
49
  3
A2
350
4A
  3
A3
350
4B
  3
A4
350
4C
  3
A5
350
4D
  3
A6
350
4E
  3
A7
350
4F
  3
A8
350
50
  3
A9
350
51
  3
B0
350
52
  3
B1
350
53
  3
B2
350
54
  3
B3
350
55
  3
B4
350
56
  3
B5
350
57
  3
B6
350
58
  3
B7
350
59
  3
B8
350
5A
  3
B9
350
5B
  3
C0
350
5C
  3
C1
350
5D
  3
C2
350
5E
  3
C3
350
5F
  3
C4
350
60
  3
C5
350
61
  3
C6
350
62
  3
C7
350
63
  3
C8
350
64
  3
C9
350
65
  3
D0
350
66
  3
D1
350
67
  3
D2
350
68
  0
LAYOUT
  5
1E
102
{ACAD_REACTORS
330
1A
102
}
330
1A
100
AcDbPlotSettings
  1

  2
none_device
  4

  6

 40
0.0
 41
0.0
 42
0.0
 43
0.0
 44
0.0
 45
0.0
 46
0.0
 47
0.0
 48
0.0
 49
0.0
140
0.0
141
0.0
142
1.0
143
1.0
 70
   688
 72
     1
 73
     0
 74
     5
  7

 75
    16
147
1.0
148
0.0
149
0.0
100
AcDbLayout
  1
Layout1
 70
     1
 71
     1
 10
0.0
 20
0.0
 11
420.0
 21
297.0
 12
0.0
 22
0.0
 32
0.0
 14
1.0000000000E+20
 24
1.0000000000E+20
 34
1.0000000000E+20
 15
-1.0000000000E+20
 25
-1.0000000000E+20
 35
-1.0000000000E+20
146
0.0
 13
0.0
 23
0.0
 33
0.0
 16
1.0
 26
0.0
 36
0.0
 17
0.0
 27
1.0
 37
0.0
 76
     0
330
1B
  0
LAYOUT
  5
26
102
{ACAD_REACTORS
330
1A
102
}
330
1A
100
AcDbPlotSettings
  1

  2
none_device
  4

  6

 40
0.0
 41
0.0
 42
0.0
 43
0.0
 44
0.0
 45
0.0
 46
0.0
 47
0.0
 48
0.0
 49
0.0
140
0.0
141
0.0
142
1.0
143
1.0
 70
   688
 72
     1
 73
     0
 74
     5
  7

 75
    16
147
1.0
148
0.0
149
0.0
100
AcDbLayout
  1
Layout2
 70
     1
 71
     2
 10
0.0
 20
0.0
 11
0.0
 21
0.0
 12
0.0
 22
0.0
 32
0.0
 14
0.0
 24
0.0
 34
0.0
 15
0.0
 25
0.0
 35
0.0
146
0.0
 13
0.0
 23
0.0
 33
0.0
 16
1.0
 26
0.0
 36
0.0
 17
0.0
 27
1.0
 37
0.0
 76
     0
330
23
  0
LAYOUT
  5
22
102
{ACAD_REACTORS
330
1A
102
}
330
1A
100
AcDbPlotSettings
  1

  2
none_device
  4
ANSI_A_(11.00_x_8.50_Inches)
  6

 40
6.35
 41
19.05
 42
6.35000508
 43
19.05000254
 44
279.4
 45
215.9
 46
5436.4849258593
 47
-16503.792738965
 48
0.0
 49
0.0
140
0.0
141
0.0
142
0.0987245087
143
1.0
 70
  1696
 72
     0
 73
     0
 74
     0
  7

 75
     0
147
0.0179189148
148
-1300.4909072572
149
0.0
100
AcDbLayout
  1
Model
 70
     1
 71
     0
 10
0.0
 20
0.0
 11
420.0
 21
297.0
 12
0.0
 22
0.0
 32
0.0
 14
-2156.079172521
 24
6574.3362847468
 34
0.0
 15
-2073.566383521
 25
6659.5734777468
 35
0.0
146
0.0
 13
0.0
 23
0.0
 33
0.0
 16
1.0
 26
0.0
 36
0.0
 17
0.0
 27
1.0
 37
0.0
 76
     0
330
1F
331
29
  0
MLINESTYLE
  5
18
102
{ACAD_REACTORS
330
17
102
}
330
17
100
AcDbMlineStyle
  2
Standard
 70
     0
  3

 62
   256
 51
90.0
 52
90.0
 71
     2
 49
0.5
 62
   256
  6
BYLAYER
 49
-0.5
 62
   256
  6
BYLAYER
  0
ACDBPLACEHOLDER
  5
F
102
{ACAD_REACTORS
330
E
102
}
330
E
  0
SCALE
  5
48
102
{ACAD_REACTORS
330
47
102
}
330
47
100
AcDbScale
 70
     0
300
1:1
140
1.0
141
1.0
290
     1
  0
SCALE
  5
49
102
{ACAD_REACTORS
330
47
102
}
330
47
100
AcDbScale
 70
     0
300
1:2
140
1.0
141
2.0
290
     0
  0
SCALE
  5
4A
102
{ACAD_REACTORS
330
47
102
}
330
47
100
AcDbScale
 70
     0
300
1:4
140
1.0
141
4.0
290
     0
  0
SCALE
  5
4B
102
{ACAD_REACTORS
330
47
102
}
330
47
100
AcDbScale
 70
     0
300
1:5
140
1.0
141
5.0
290
     0
  0
SCALE
  5
4C
102
{ACAD_REACTORS
330
47
102
}
330
47
100
AcDbScale
 70
     0
300
1:8
140
1.0
141
8.0
290
     0
  0
SCALE
  5
4D
102
{ACAD_REACTORS
330
47
102
}
330
47
100
AcDbScale
 70
     0
300
1:10
140
1.0
141
10.0
290
     0
  0
SCALE
  5
4E
102
{ACAD_REACTORS
330
47
102
}
330
47
100
AcDbScale
 70
     0
300
1:16
140
1.0
141
16.0
290
     0
  0
SCALE
  5
4F
102
{ACAD_REACTORS
330
47
102
}
330
47
100
AcDbScale
 70
     0
300
1:20
140
1.0
141
20.0
290
     0
  0
SCALE
  5
50
102
{ACAD_REACTORS
330
47
102
}
330
47
100
AcDbScale
 70
     0
300
1:30
140
1.0
141
30.0
290
     0
  0
SCALE
  5
51
102
{ACAD_REACTORS
330
47
102
}
330
47
100
AcDbScale
 70
     0
300
1:40
140
1.0
141
40.0
290
     0
  0
SCALE
  5
52
102
{ACAD_REACTORS
330
47
102
}
330
47
100
AcDbScale
 70
     0
300
1:50
140
1.0
141
50.0
290
     0
  0
SCALE
  5
53
102
{ACAD_REACTORS
330
47
102
}
330
47
100
AcDbScale
 70
     0
300
1:100
140
1.0
141
100.0
290
     0
  0
SCALE
  5
54
102
{ACAD_REACTORS
330
47
102
}
330
47
100
AcDbScale
 70
     0
300
2:1
140
2.0
141
1.0
290
     0
  0
SCALE
  5
55
102
{ACAD_REACTORS
330
47
102
}
330
47
100
AcDbScale
 70
     0
300
4:1
140
4.0
141
1.0
290
     0
  0
SCALE
  5
56
102
{ACAD_REACTORS
330
47
102
}
330
47
100
AcDbScale
 70
     0
300
8:1
140
8.0
141
1.0
290
     0
  0
SCALE
  5
57
102
{ACAD_REACTORS
330
47
102
}
330
47
100
AcDbScale
 70
     0
300
10:1
140
10.0
141
1.0
290
     0
  0
SCALE
  5
58
102
{ACAD_REACTORS
330
47
102
}
330
47
100
AcDbScale
 70
     0
300
100:1
140
100.0
141
1.0
290
     0
  0
SCALE
  5
59
102
{ACAD_REACTORS
330
47
102
}
330
47
100
AcDbScale
 70
     0
300
1/128" = 1'-0"
140
0.0078125
141
12.0
290
     0
  0
SCALE
  5
5A
102
{ACAD_REACTORS
330
47
102
}
330
47
100
AcDbScale
 70
     0
300
1/64" = 1'-0"
140
0.015625
141
12.0
290
     0
  0
SCALE
  5
5B
102
{ACAD_REACTORS
330
47
102
}
330
47
100
AcDbScale
 70
     0
300
1/32" = 1'-0"
140
0.03125
141
12.0
290
     0
  0
SCALE
  5
5C
102
{ACAD_REACTORS
330
47
102
}
330
47
100
AcDbScale
 70
     0
300
1/16" = 1'-0"
140
0.0625
141
12.0
290
     0
  0
SCALE
  5
5D
102
{ACAD_REACTORS
330
47
102
}
330
47
100
AcDbScale
 70
     0
300
3/32" = 1'-0"
140
0.09375
141
12.0
290
     0
  0
SCALE
  5
5E
102
{ACAD_REACTORS
330
47
102
}
330
47
100
AcDbScale
 70
     0
300
1/8" = 1'-0"
140
0.125
141
12.0
290
     0
  0
SCALE
  5
5F
102
{ACAD_REACTORS
330
47
102
}
330
47
100
AcDbScale
 70
     0
300
3/16" = 1'-0"
140
0.1875
141
12.0
290
     0
  0
SCALE
  5
60
102
{ACAD_REACTORS
330
47
102
}
330
47
100
AcDbScale
 70
     0
300
1/4" = 1'-0"
140
0.25
141
12.0
290
     0
  0
SCALE
  5
61
102
{ACAD_REACTORS
330
47
102
}
330
47
100
AcDbScale
 70
     0
300
3/8" = 1'-0"
140
0.375
141
12.0
290
     0
  0
SCALE
  5
62
102
{ACAD_REACTORS
330
47
102
}
330
47
100
AcDbScale
 70
     0
300
1/2" = 1'-0"
140
0.5
141
12.0
290
     0
  0
SCALE
  5
63
102
{ACAD_REACTORS
330
47
102
}
330
47
100
AcDbScale
 70
     0
300
3/4" = 1'-0"
140
0.75
141
12.0
290
     0
  0
SCALE
  5
64
102
{ACAD_REACTORS
330
47
102
}
330
47
100
AcDbScale
 70
     0
300
1" = 1'-0"
140
1.0
141
12.0
290
     0
  0
SCALE
  5
65
102
{ACAD_REACTORS
330
47
102
}
330
47
100
AcDbScale
 70
     0
300
1-1/2" = 1'-0"
140
1.5
141
12.0
290
     0
  0
SCALE
  5
66
102
{ACAD_REACTORS
330
47
102
}
330
47
100
AcDbScale
 70
     0
300
3" = 1'-0"
140
3.0
141
12.0
290
     0
  0
SCALE
  5
67
102
{ACAD_REACTORS
330
47
102
}
330
47
100
AcDbScale
 70
     0
300
6" = 1'-0"
140
6.0
141
12.0
290
     0
  0
SCALE
  5
68
102
{ACAD_REACTORS
330
47
102
}
330
47
100
AcDbScale
 70
     0
300
1'-0" = 1'-0"
140
12.0
141
12.0
290
     0
  0
ENDSEC
  0
EOF
