  0
SECTION
  2
HEADER
  9
$ACADVER
  1
AC1015
  9
$ACADMAINTVER
 70
     6
  9
$DWGCODEPAGE
  3
ANSI_1251
  9
$INSBASE
 10
0.0
 20
0.0
 30
0.0
  9
$EXTMIN
 10
6439.0302405095
 20
3061.7209930768
 30
0.0
  9
$EXTMAX
 10
6520.3416095095
 20
3174.4416210768
 30
0.0
  9
$LIMMIN
 10
0.0
 20
0.0
  9
$LIMMAX
 10
420.0
 20
297.0
  9
$ORTHOMODE
 70
     0
  9
$REGENMODE
 70
     1
  9
$FILLMODE
 70
     1
  9
$QTEXTMODE
 70
     0
  9
$MIRRTEXT
 70
     1
  9
$LTSCALE
 40
1.0
  9
$ATTMODE
 70
     1
  9
$TEXTSIZE
 40
4.0
  9
$TRACEWID
 40
1.0
  9
$TEXTSTYLE
  7
Standard
  9
$CLAYER
  8
0
  9
$CELTYPE
  6
ByLayer
  9
$CECOLOR
 62
   256
  9
$CELTSCALE
 40
1.0
  9
$DISPSILH
 70
     0
  9
$DIMSCALE
 40
1.0
  9
$DIMASZ
 40
6.0
  9
$DIMEXO
 40
1.0
  9
$DIMDLI
 40
3.75
  9
$DIMRND
 40
0.0
  9
$DIMDLE
 40
0.0
  9
$DIMEXE
 40
1.0
  9
$DIMTP
 40
0.0
  9
$DIMTM
 40
0.0
  9
$DIMTXT
 40
4.0
  9
$DIMCEN
 40
2.5
  9
$DIMTSZ
 40
0.0
  9
$DIMTOL
 70
     0
  9
$DIMLIM
 70
     0
  9
$DIMTIH
 70
     1
  9
$DIMTOH
 70
     1
  9
$DIMSE1
 70
     0
  9
$DIMSE2
 70
     0
  9
$DIMTAD
 70
     1
  9
$DIMZIN
 70
     0
  9
$DIMBLK
  1

  9
$DIMASO
 70
     1
  9
$DIMSHO
 70
     1
  9
$DIMPOST
  1

  9
$DIMAPOST
  1

  9
$DIMALT
 70
     0
  9
$DIMALTD
 70
     3
  9
$DIMALTF
 40
0.0393700787
  9
$DIMLFAC
 40
1.0
  9
$DIMTOFL
 70
     1
  9
$DIMTVP
 40
0.0
  9
$DIMTIX
 70
     0
  9
$DIMSOXD
 70
     0
  9
$DIMSAH
 70
     0
  9
$DIMBLK1
  1

  9
$DIMBLK2
  1

  9
$DIMSTYLE
  2
ISO-25
  9
$DIMCLRD
 70
     0
  9
$DIMCLRE
 70
     0
  9
$DIMCLRT
 70
     0
  9
$DIMTFAC
 40
1.0
  9
$DIMGAP
 40
3.0
  9
$DIMJUST
 70
     0
  9
$DIMSD1
 70
     0
  9
$DIMSD2
 70
     0
  9
$DIMTOLJ
 70
     0
  9
$DIMTZIN
 70
     0
  9
$DIMALTZ
 70
     0
  9
$DIMALTTZ
 70
     0
  9
$DIMUPT
 70
     0
  9
$DIMDEC
 70
     2
  9
$DIMTDEC
 70
     4
  9
$DIMALTU
 70
     2
  9
$DIMALTTD
 70
     3
  9
$DIMTXSTY
  7
Standard
  9
$DIMAUNIT
 70
     0
  9
$DIMADEC
 70
     2
  9
$DIMALTRND
 40
0.0
  9
$DIMAZIN
 70
     0
  9
$DIMDSEP
 70
    44
  9
$DIMATFIT
 70
     3
  9
$DIMFRAC
 70
     0
  9
$DIMLDRBLK
  1

  9
$DIMLUNIT
 70
     2
  9
$DIMLWD
 70
    -2
  9
$DIMLWE
 70
    -2
  9
$DIMTMOVE
 70
     0
  9
$LUNITS
 70
     2
  9
$LUPREC
 70
     2
  9
$SKETCHINC
 40
1.0
  9
$FILLETRAD
 40
10.0
  9
$AUNITS
 70
     1
  9
$AUPREC
 70
     2
  9
$MENU
  1
.
  9
$ELEVATION
 40
0.0
  9
$PELEVATION
 40
0.0
  9
$THICKNESS
 40
0.0
  9
$LIMCHECK
 70
     0
  9
$CHAMFERA
 40
0.0
  9
$CHAMFERB
 40
0.0
  9
$CHAMFERC
 40
0.0
  9
$CHAMFERD
 40
0.0
  9
$SKPOLY
 70
     0
  9
$TDCREATE
 40
2460368.655793982
  9
$TDUCREATE
 40
2460368.572460648
  9
$TDUPDATE
 40
2460368.655822257
  9
$TDUUPDATE
 40
2460368.572488924
  9
$TDINDWG
 40
0.0000000116
  9
$TDUSRTIMER
 40
0.0000000116
  9
$USRTIMER
 70
     1
  9
$ANGBASE
 50
0.0
  9
$ANGDIR
 70
     0
  9
$PDMODE
 70
     0
  9
$PDSIZE
 40
-1.0
  9
$PLINEWID
 40
0.0
  9
$SPLFRAME
 70
     0
  9
$SPLINETYPE
 70
     6
  9
$SPLINESEGS
 70
     8
  9
$HANDSEED
  5
2F5
  9
$SURFTAB1
 70
     6
  9
$SURFTAB2
 70
     6
  9
$SURFTYPE
 70
     6
  9
$SURFU
 70
     6
  9
$SURFV
 70
     6
  9
$UCSBASE
  2

  9
$UCSNAME
  2

  9
$UCSORG
 10
0.0
 20
0.0
 30
0.0
  9
$UCSXDIR
 10
1.0
 20
0.0
 30
0.0
  9
$UCSYDIR
 10
0.0
 20
1.0
 30
0.0
  9
$UCSORTHOREF
  2

  9
$UCSORTHOVIEW
 70
     0
  9
$UCSORGTOP
 10
0.0
 20
0.0
 30
0.0
  9
$UCSORGBOTTOM
 10
0.0
 20
0.0
 30
0.0
  9
$UCSORGLEFT
 10
0.0
 20
0.0
 30
0.0
  9
$UCSORGRIGHT
 10
0.0
 20
0.0
 30
0.0
  9
$UCSORGFRONT
 10
0.0
 20
0.0
 30
0.0
  9
$UCSORGBACK
 10
0.0
 20
0.0
 30
0.0
  9
$PUCSBASE
  2

  9
$PUCSNAME
  2

  9
$PUCSORG
 10
0.0
 20
0.0
 30
0.0
  9
$PUCSXDIR
 10
1.0
 20
0.0
 30
0.0
  9
$PUCSYDIR
 10
0.0
 20
1.0
 30
0.0
  9
$PUCSORTHOREF
  2

  9
$PUCSORTHOVIEW
 70
     0
  9
$PUCSORGTOP
 10
0.0
 20
0.0
 30
0.0
  9
$PUCSORGBOTTOM
 10
0.0
 20
0.0
 30
0.0
  9
$PUCSORGLEFT
 10
0.0
 20
0.0
 30
0.0
  9
$PUCSORGRIGHT
 10
0.0
 20
0.0
 30
0.0
  9
$PUCSORGFRONT
 10
0.0
 20
0.0
 30
0.0
  9
$PUCSORGBACK
 10
0.0
 20
0.0
 30
0.0
  9
$USERI1
 70
     0
  9
$USERI2
 70
     0
  9
$USERI3
 70
     0
  9
$USERI4
 70
     0
  9
$USERI5
 70
     0
  9
$USERR1
 40
0.0
  9
$USERR2
 40
0.0
  9
$USERR3
 40
0.0
  9
$USERR4
 40
0.0
  9
$USERR5
 40
0.0
  9
$WORLDVIEW
 70
     1
  9
$SHADEDGE
 70
     3
  9
$SHADEDIF
 70
    70
  9
$TILEMODE
 70
     1
  9
$MAXACTVP
 70
    64
  9
$PINSBASE
 10
0.0
 20
0.0
 30
0.0
  9
$PLIMCHECK
 70
     0
  9
$PEXTMIN
 10
1.0000000000E+20
 20
1.0000000000E+20
 30
1.0000000000E+20
  9
$PEXTMAX
 10
-1.0000000000E+20
 20
-1.0000000000E+20
 30
-1.0000000000E+20
  9
$PLIMMIN
 10
0.0
 20
0.0
  9
$PLIMMAX
 10
420.0
 20
297.0
  9
$UNITMODE
 70
     0
  9
$VISRETAIN
 70
     1
  9
$PLINEGEN
 70
     0
  9
$PSLTSCALE
 70
     1
  9
$TREEDEPTH
 70
  3020
  9
$CMLSTYLE
  2
Standard
  9
$CMLJUST
 70
     0
  9
$CMLSCALE
 40
20.0
  9
$PROXYGRAPHICS
 70
     1
  9
$MEASUREMENT
 70
     1
  9
$CELWEIGHT
370
    -1
  9
$ENDCAPS
280
     0
  9
$JOINSTYLE
280
     0
  9
$LWDISPLAY
290
     1
  9
$INSUNITS
 70
     4
  9
$HYPERLINKBASE
  1

  9
$STYLESHEET
  1

  9
$XEDIT
290
     1
  9
$CEPSNTYPE
380
     0
  9
$PSTYLEMODE
290
     1
  9
$FINGERPRINTGUID
  2
{bd45efa6-c2de-4d7c-adfe-e6bf3f9b043d}
  9
$VERSIONGUID
  2
{FAEB1C32-E019-11D5-929B-00C0DF256EC4}
  9
$EXTNAMES
290
     1
  9
$PSVPSCALE
 40
0.0
  9
$OLESTARTUP
290
     0
  0
ENDSEC
  0
SECTION
  2
CLASSES
  0
CLASS
  1
ACDBDICTIONARYWDFLT
  2
AcDbDictionaryWithDefault
  3
ObjectDBX Classes
 90
        0
280
     0
281
     0
  0
CLASS
  1
VISUALSTYLE
  2
AcDbVisualStyle
  3
ObjectDBX Classes
 90
     4095
280
     0
281
     0
  0
CLASS
  1
MATERIAL
  2
AcDbMaterial
  3
ObjectDBX Classes
 90
     1153
280
     0
281
     0
  0
CLASS
  1
SCALE
  2
AcDbScale
  3
ObjectDBX Classes
 90
     1153
280
     0
281
     0
  0
CLASS
  1
TABLESTYLE
  2
AcDbTableStyle
  3
ObjectDBX Classes
 90
     4095
280
     0
281
     0
  0
CLASS
  1
MLEADERSTYLE
  2
AcDbMLeaderStyle
  3
ACDB_MLEADERSTYLE_CLASS
 90
     4095
280
     0
281
     0
  0
CLASS
  1
SUN
  2
AcDbSun
  3
SCENEOE
 90
     1153
280
     0
281
     0
  0
CLASS
  1
ACDBPLACEHOLDER
  2
AcDbPlaceHolder
  3
ObjectDBX Classes
 90
        0
280
     0
281
     0
  0
CLASS
  1
LAYOUT
  2
AcDbLayout
  3
ObjectDBX Classes
 90
        0
280
     0
281
     0
  0
ENDSEC
  0
SECTION
  2
TABLES
  0
TABLE
  2
VPORT
  5
8
330
0
100
AcDbSymbolTable
 70
     1
  0
VPORT
  5
29
330
8
100
AcDbSymbolTableRecord
100
AcDbViewportTableRecord
  2
*Active
 70
     0
 10
0.0
 20
0.0
 11
1.0
 21
1.0
 12
6479.6859250095
 22
3118.0813070768
 13
0.0
 23
0.0
 14
10.0
 24
10.0
 15
10.0
 25
10.0
 16
0.0
 26
0.0
 36
1.0
 17
0.0
 27
0.0
 37
0.0
 40
114.97504056
 41
0.7213530517
 42
50.0
 43
0.0
 44
0.0
 50
0.0
 51
0.0
 71
     0
 72
   100
 73
     1
 74
     3
 75
     0
 76
     0
 77
     0
 78
     0
281
     0
 65
     1
110
0.0
120
0.0
130
0.0
111
1.0
121
0.0
131
0.0
112
0.0
122
1.0
132
0.0
 79
     0
146
0.0
  0
ENDTAB
  0
TABLE
  2
LTYPE
  5
5
330
0
100
AcDbSymbolTable
 70
     6
  0
LTYPE
  5
14
330
5
100
AcDbSymbolTableRecord
100
AcDbLinetypeTableRecord
  2
ByBlock
 70
     0
  3

 72
    65
 73
     0
 40
0.0
  0
LTYPE
  5
15
330
5
100
AcDbSymbolTableRecord
100
AcDbLinetypeTableRecord
  2
ByLayer
 70
     0
  3

 72
    65
 73
     0
 40
0.0
  0
LTYPE
  5
16
330
5
100
AcDbSymbolTableRecord
100
AcDbLinetypeTableRecord
  2
Continuous
 70
     0
  3
Solid line
 72
    65
 73
     0
 40
0.0
  0
LTYPE
  5
6E
330
5
100
AcDbSymbolTableRecord
100
AcDbLinetypeTableRecord
  2
HIDDEN
 70
     0
  3
Hidden __ __ __ __ __ __ __ __ __ __ __ __ __ __
 72
    65
 73
     2
 40
1.905
 49
1.27
 74
     0
 49
-0.635
 74
     0
  0
LTYPE
  5
6F
330
5
100
AcDbSymbolTableRecord
100
AcDbLinetypeTableRecord
  2
PHANTOM
 70
     0
  3
Phantom ______  __  __  ______  __  __  ______
 72
    65
 73
     6
 40
12.7
 49
6.35
 74
     0
 49
-1.27
 74
     0
 49
1.27
 74
     0
 49
-1.27
 74
     0
 49
1.27
 74
     0
 49
-1.27
 74
     0
  0
LTYPE
  5
70
330
5
100
AcDbSymbolTableRecord
100
AcDbLinetypeTableRecord
  2
CENTER
 70
     0
  3
Center ____ _ ____ _ ____ _ ____ _ ____ _ ____
 72
    65
 73
     4
 40
10.16
 49
6.35
 74
     0
 49
-1.27
 74
     0
 49
1.27
 74
     0
 49
-1.27
 74
     0
  0
LTYPE
  5
71
330
5
100
AcDbSymbolTableRecord
100
AcDbLinetypeTableRecord
  2
CENTERX2
 70
     0
  3
Center (2x) ________  __  ________  __  _____
 72
    65
 73
     4
 40
20.32
 49
12.7
 74
     0
 49
-2.54
 74
     0
 49
2.54
 74
     0
 49
-2.54
 74
     0
  0
LTYPE
  5
72
330
5
100
AcDbSymbolTableRecord
100
AcDbLinetypeTableRecord
  2
DOT2
 70
     0
  3
Dot (.5x) ........................................
 72
    65
 73
     2
 40
0.635
 49
0.0
 74
     0
 49
-0.635
 74
     0
  0
ENDTAB
  0
TABLE
  2
LAYER
  5
2
330
0
100
AcDbSymbolTable
 70
     1
  0
LAYER
  5
10
330
2
100
AcDbSymbolTableRecord
100
AcDbLayerTableRecord
  2
0
 70
     0
 62
     7
  6
Continuous
370
    -3
390
F
  0
ENDTAB
  0
TABLE
  2
STYLE
  5
3
330
0
100
AcDbSymbolTable
 70
     1
  0
STYLE
  5
11
330
3
100
AcDbSymbolTableRecord
100
AcDbTextStyleTableRecord
  2
Standard
 70
     0
 40
0.0
 41
1.0
 50
0.0
 71
     0
 42
4.0
  3
txt
  4

  0
ENDTAB
  0
TABLE
  2
VIEW
  5
6
330
0
100
AcDbSymbolTable
 70
     0
  0
ENDTAB
  0
TABLE
  2
UCS
  5
7
330
0
100
AcDbSymbolTable
 70
     0
  0
ENDTAB
  0
TABLE
  2
APPID
  5
9
330
0
100
AcDbSymbolTable
 70
     1
  0
APPID
  5
12
330
9
100
AcDbSymbolTableRecord
100
AcDbRegAppTableRecord
  2
ACAD
 70
     0
  0
ENDTAB
  0
TABLE
  2
DIMSTYLE
  5
A
330
0
100
AcDbSymbolTable
 70
     1
100
AcDbDimStyleTable
  0
DIMSTYLE
105
27
330
A
100
AcDbSymbolTableRecord
100
AcDbDimStyleTableRecord
  2
ISO-25
 70
     0
 41
2.5
 42
0.625
 43
3.75
 44
1.25
 73
     0
 74
     0
 77
     1
 78
     8
140
2.5
141
2.5
143
0.0393700787
147
0.625
171
     3
172
     1
178
     0
271
     2
272
     2
274
     3
278
    44
283
     0
284
     8
340
11
  0
ENDTAB
  0
TABLE
  2
BLOCK_RECORD
  5
1
330
0
100
AcDbSymbolTable
 70
     1
  0
BLOCK_RECORD
  5
1F
330
1
100
AcDbSymbolTableRecord
100
AcDbBlockTableRecord
  2
*Model_Space
340
22
  0
BLOCK_RECORD
  5
1B
330
1
100
AcDbSymbolTableRecord
100
AcDbBlockTableRecord
  2
*Paper_Space
340
1E
  0
BLOCK_RECORD
  5
23
330
1
100
AcDbSymbolTableRecord
100
AcDbBlockTableRecord
  2
*Paper_Space0
340
26
  0
ENDTAB
  0
ENDSEC
  0
SECTION
  2
BLOCKS
  0
BLOCK
  5
20
330
1F
100
AcDbEntity
  8
0
100
AcDbBlockBegin
  2
*Model_Space
 70
     0
 10
0.0
 20
0.0
 30
0.0
  3
*Model_Space
  1

  0
ENDBLK
  5
21
330
1F
100
AcDbEntity
  8
0
100
AcDbBlockEnd
  0
BLOCK
  5
1C
330
1B
100
AcDbEntity
 67
     1
  8
0
100
AcDbBlockBegin
  2
*Paper_Space
 70
     0
 10
0.0
 20
0.0
 30
0.0
  3
*Paper_Space
  1

  0
ENDBLK
  5
1D
330
1B
100
AcDbEntity
 67
     1
  8
0
100
AcDbBlockEnd
  0
BLOCK
  5
24
330
23
100
AcDbEntity
  8
0
100
AcDbBlockBegin
  2
*Paper_Space0
 70
     0
 10
0.0
 20
0.0
 30
0.0
  3
*Paper_Space0
  1

  0
ENDBLK
  5
25
330
23
100
AcDbEntity
  8
0
100
AcDbBlockEnd
  0
ENDSEC
  0
SECTION
  2
ENTITIES
  0
SPLINE
  5
74
330
1F
100
AcDbEntity
  8
0
  6
Continuous
 62
     7
370
    25
100
AcDbSpline
210
0.0
220
0.0
230
1.0
 70
     8
 71
     3
 72
    15
 73
    11
 74
     0
 42
0.000000001
 43
0.00000001
 40
0.0
 40
0.0
 40
0.0
 40
0.0
 40
0.136441189714282
 40
0.2559957227680478
 40
0.3685080101433969
 40
0.4757423758333518
 40
0.588254663208758
 40
0.7093427114892212
 40
0.8457839012034921
 40
1.0
 40
1.0
 40
1.0
 40
1.0
 10
6479.354445250099
 20
3124.937702869272
 30
0.0
 10
6479.355165699133
 20
3124.958328042226
 30
0.0
 10
6479.356517430761
 20
3124.997025711665
 30
0.0
 10
6479.371050392385
 20
3125.051080931032
 30
0.0
 10
6479.393786824843
 20
3125.097535838724
 30
0.0
 10
6479.428233714724
 20
3125.134634165427
 30
0.0
 10
6479.470623858996
 20
3125.164609417885
 30
0.0
 10
6479.523609697828
 20
3125.18337310419
 30
0.0
 10
6479.584473978395
 20
3125.196910833113
 30
0.0
 10
6479.628423786196
 20
3125.197516598938
 30
0.0
 10
6479.651742547396
 20
3125.197838004407
 30
0.0
  0
SPLINE
  5
75
330
1F
100
AcDbEntity
  8
0
  6
Continuous
 62
     7
370
    25
100
AcDbSpline
210
0.0
220
0.0
230
1.0
 70
     8
 71
     3
 72
    15
 73
    11
 74
     0
 42
0.000000001
 43
0.00000001
 40
0.0
 40
0.0
 40
0.0
 40
0.0
 40
0.16786280921634
 40
0.3148466165912353
 40
0.4441869603121181
 40
0.5592403382441805
 40
0.6652318690748261
 40
0.7706563435097036
 40
0.8787940473875362
 40
1.0
 40
1.0
 40
1.0
 40
1.0
 10
6479.651742547396
 20
3125.197838004407
 30
0.0
 10
6479.680804322552
 20
3125.196823037792
 30
0.0
 10
6479.735313130205
 20
3125.194919347475
 30
0.0
 10
6479.81178504024
 20
3125.184290762656
 30
0.0
 10
6479.876684514215
 20
3125.163467334309
 30
0.0
 10
6479.930414290175
 20
3125.134426867074
 30
0.0
 10
6479.973143661921
 20
3125.096285996842
 30
0.0
 10
6480.002260999088
 20
3125.048495259495
 30
0.0
 10
6480.020697412659
 20
3124.992813504996
 30
0.0
 10
6480.02244211195
 20
3124.952959006711
 30
0.0
 10
6480.023364169017
 20
3124.931896281435
 30
0.0
  0
SPLINE
  5
77
330
1F
100
AcDbEntity
  8
0
  6
Continuous
 62
     7
370
    25
100
AcDbSpline
210
0.0
220
0.0
230
1.0
 70
     8
 71
     3
 72
    15
 73
    11
 74
     0
 42
0.000000001
 43
0.00000001
 40
0.0
 40
0.0
 40
0.0
 40
0.0
 40
0.1212059526124638
 40
0.2293436564902964
 40
0.3347681309251739
 40
0.4407596617558195
 40
0.5558130396878819
 40
0.6851533834087647
 40
0.83213719078366
 40
1.0
 40
1.0
 40
1.0
 40
1.0
 10
6480.023364169017
 20
3119.96377972738
 30
0.0
 10
6480.022442111949
 20
3119.942717002104
 30
0.0
 10
6480.020697412659
 20
3119.902862503818
 30
0.0
 10
6480.002260999088
 20
3119.84718074932
 30
0.0
 10
6479.973143661919
 20
3119.799390011972
 30
0.0
 10
6479.930414290175
 20
3119.761249141741
 30
0.0
 10
6479.876684514215
 20
3119.732208674505
 30
0.0
 10
6479.81178504024
 20
3119.711385246158
 30
0.0
 10
6479.735313130205
 20
3119.70075666134
 30
0.0
 10
6479.680804322552
 20
3119.698852971022
 30
0.0
 10
6479.651742547396
 20
3119.697838004407
 30
0.0
  0
SPLINE
  5
78
330
1F
100
AcDbEntity
  8
0
  6
Continuous
 62
     7
370
    25
100
AcDbSpline
210
0.0
220
0.0
230
1.0
 70
     8
 71
     3
 72
    15
 73
    11
 74
     0
 42
0.000000001
 43
0.00000001
 40
0.0
 40
0.0
 40
0.0
 40
0.0
 40
0.1528612850162868
 40
0.2874697277135351
 40
0.4083171843914889
 40
0.5197330343307446
 40
0.6278222855466505
 40
0.7415060099345848
 40
0.8623534666125059
 40
1.0
 40
1.0
 40
1.0
 40
1.0
 10
6479.651742547396
 20
3119.697838004407
 30
0.0
 10
6479.6284796262
 20
3119.698851881952
 30
0.0
 10
6479.584731559965
 20
3119.700758572071
 30
0.0
 10
6479.52314365078
 20
3119.711522460462
 30
0.0
 10
6479.470946425718
 20
3119.732630968599
 30
0.0
 10
6479.427786234797
 20
3119.762100620012
 30
0.0
 10
6479.393813424217
 20
3119.800638611334
 30
0.0
 10
6479.371033157197
 20
3119.848096175946
 30
0.0
 10
6479.356532452417
 20
3119.903322406076
 30
0.0
 10
6479.355170488106
 20
3119.942772685175
 30
0.0
 10
6479.354445250099
 20
3119.96377972738
 30
0.0
  0
SPLINE
  5
7C
330
1F
100
AcDbEntity
  8
0
  6
Continuous
 62
     7
370
    25
100
AcDbSpline
210
0.0
220
0.0
230
1.0
 70
     8
 71
     3
 72
    15
 73
    11
 74
     0
 42
0.000000001
 43
0.00000001
 40
0.0
 40
0.0
 40
0.0
 40
0.0
 40
0.1212059526124707
 40
0.229343656490283
 40
0.3347681309252117
 40
0.4407596617558633
 40
0.5558130396878576
 40
0.6851533834087478
 40
0.8321371907837358
 40
1.0
 40
1.0
 40
1.0
 40
1.0
 10
6477.719310114963
 20
3119.96377972738
 30
0.0
 10
6477.718388057894
 20
3119.942717002104
 30
0.0
 10
6477.716643358604
 20
3119.902862503818
 30
0.0
 10
6477.698206945033
 20
3119.84718074932
 30
0.0
 10
6477.669089607866
 20
3119.799390011972
 30
0.0
 10
6477.62636023612
 20
3119.761249141741
 30
0.0
 10
6477.572630460159
 20
3119.732208674506
 30
0.0
 10
6477.507730986184
 20
3119.711385246158
 30
0.0
 10
6477.43125907615
 20
3119.70075666134
 30
0.0
 10
6477.376750268497
 20
3119.698852971022
 30
0.0
 10
6477.347688493343
 20
3119.697838004407
 30
0.0
  0
SPLINE
  5
7D
330
1F
100
AcDbEntity
  8
0
  6
Continuous
 62
     7
370
    25
100
AcDbSpline
210
0.0
220
0.0
230
1.0
 70
     8
 71
     3
 72
    15
 73
    11
 74
     0
 42
0.000000001
 43
0.00000001
 40
0.0
 40
0.0
 40
0.0
 40
0.0
 40
0.1528612850162831
 40
0.2874697277136235
 40
0.4083171843914844
 40
0.5197330343307374
 40
0.6278222855466407
 40
0.7415060099346156
 40
0.8623534666125092
 40
1.0
 40
1.0
 40
1.0
 40
1.0
 10
6477.347688493343
 20
3119.697838004407
 30
0.0
 10
6477.324425572147
 20
3119.698851881952
 30
0.0
 10
6477.280677505912
 20
3119.700758572071
 30
0.0
 10
6477.219089596726
 20
3119.711522460462
 30
0.0
 10
6477.166892371663
 20
3119.732630968599
 30
0.0
 10
6477.123732180743
 20
3119.762100620012
 30
0.0
 10
6477.089759370163
 20
3119.800638611334
 30
0.0
 10
6477.066979103142
 20
3119.848096175946
 30
0.0
 10
6477.052478398363
 20
3119.903322406076
 30
0.0
 10
6477.051116434051
 20
3119.942772685175
 30
0.0
 10
6477.050391196045
 20
3119.96377972738
 30
0.0
  0
SPLINE
  5
7F
330
1F
100
AcDbEntity
  8
0
  6
Continuous
 62
     7
370
    25
100
AcDbSpline
210
0.0
220
0.0
230
1.0
 70
     8
 71
     3
 72
    15
 73
    11
 74
     0
 42
0.000000001
 43
0.00000001
 40
0.0
 40
0.0
 40
0.0
 40
0.0
 40
0.1376465333874907
 40
0.2584939900653843
 40
0.3721777144533592
 40
0.4802669656692625
 40
0.5916828156085154
 40
0.7125302722863763
 40
0.8471387149837168
 40
1.0
 40
1.0
 40
1.0
 40
1.0
 10
6477.050391196045
 20
3124.931896281435
 30
0.0
 10
6477.051116434051
 20
3124.95290332364
 30
0.0
 10
6477.052478398363
 20
3124.992353602739
 30
0.0
 10
6477.066979103142
 20
3125.047579832868
 30
0.0
 10
6477.089759370164
 20
3125.095037397481
 30
0.0
 10
6477.123732180743
 20
3125.133575388803
 30
0.0
 10
6477.166892371663
 20
3125.163045040216
 30
0.0
 10
6477.219089596726
 20
3125.184153548353
 30
0.0
 10
6477.280677505912
 20
3125.194917436744
 30
0.0
 10
6477.324425572147
 20
3125.196824126863
 30
0.0
 10
6477.347688493343
 20
3125.197838004407
 30
0.0
  0
SPLINE
  5
80
330
1F
100
AcDbEntity
  8
0
  6
Continuous
 62
     7
370
    25
100
AcDbSpline
210
0.0
220
0.0
230
1.0
 70
     8
 71
     3
 72
    15
 73
    11
 74
     0
 42
0.000000001
 43
0.00000001
 40
0.0
 40
0.0
 40
0.0
 40
0.0
 40
0.1691382693020596
 40
0.3176902073342315
 40
0.4474110356377658
 40
0.5634106106293705
 40
0.6687664326274129
 40
0.773153890127096
 40
0.8800408488353514
 40
1.0
 40
1.0
 40
1.0
 40
1.0
 10
6477.347688493343
 20
3125.197838004407
 30
0.0
 10
6477.37679769887
 20
3125.197526109408
 30
0.0
 10
6477.431473140317
 20
3125.196940281096
 30
0.0
 10
6477.507337135244
 20
3125.18345413379
 30
0.0
 10
6477.572911947025
 20
3125.165071851555
 30
0.0
 10
6477.625926627215
 20
3125.135400376329
 30
0.0
 10
6477.669064921236
 20
3125.098778600482
 30
0.0
 10
6477.698178690938
 20
3125.052014796238
 30
0.0
 10
6477.716657144619
 20
3124.997494269736
 30
0.0
 10
6477.718392458553
 20
3124.958384578728
 30
0.0
 10
6477.719310114963
 20
3124.937702869272
 30
0.0
  0
SPLINE
  5
85
330
1F
100
AcDbEntity
  8
0
  6
Continuous
 62
     7
370
    25
100
AcDbSpline
210
0.0
220
0.0
230
1.0
 70
     8
 71
     3
 72
    15
 73
    11
 74
     0
 42
0.000000001
 43
0.00000001
 40
0.0
 40
0.0
 40
0.0
 40
0.0
 40
0.1548790377790556
 40
0.2919933978856851
 40
0.4126674844479004
 40
0.5257810605822698
 40
0.6337152448525929
 40
0.7449712554429674
 40
0.8650822696621177
 40
1.0
 40
1.0
 40
1.0
 40
1.0
 10
6483.656430047396
 20
3120.292432599002
 30
0.0
 10
6483.683199466469
 20
3120.291639505957
 30
0.0
 10
6483.733667843256
 20
3120.290144287908
 30
0.0
 10
6483.804102772331
 20
3120.276648406971
 30
0.0
 10
6483.864007631233
 20
3120.253028517784
 30
0.0
 10
6483.914136702168
 20
3120.220723197188
 30
0.0
 10
6483.952462636092
 20
3120.177106883025
 30
0.0
 10
6483.979873912211
 20
3120.12464298981
 30
0.0
 10
6483.994369497415
 20
3120.062465802241
 30
0.0
 10
6483.996650627266
 20
3120.018431007397
 30
0.0
 10
6483.99785741226
 20
3119.995135301705
 30
0.0
  0
SPLINE
  5
86
330
1F
100
AcDbEntity
  8
0
  6
Continuous
 62
     7
370
    25
100
AcDbSpline
210
0.0
220
0.0
230
1.0
 70
     8
 71
     3
 72
    15
 73
    11
 74
     0
 42
0.000000001
 43
0.00000001
 40
0.0
 40
0.0
 40
0.0
 40
0.0
 40
0.1349177303379193
 40
0.2550287445570645
 40
0.3662847551474342
 40
0.4742189394177526
 40
0.5873325155521172
 40
0.7080066021143274
 40
0.8451209622209509
 40
1.0
 40
1.0
 40
1.0
 40
1.0
 10
6483.99785741226
 20
3119.995135301705
 30
0.0
 10
6483.996650627266
 20
3119.971839596012
 30
0.0
 10
6483.994369497415
 20
3119.927804801168
 30
0.0
 10
6483.979873912211
 20
3119.8656276136
 30
0.0
 10
6483.95246263609
 20
3119.813163720384
 30
0.0
 10
6483.914136702168
 20
3119.769547406221
 30
0.0
 10
6483.864007631233
 20
3119.737242085625
 30
0.0
 10
6483.804102772331
 20
3119.713622196438
 30
0.0
 10
6483.733667843256
 20
3119.700126315502
 30
0.0
 10
6483.683199466469
 20
3119.698631097451
 30
0.0
 10
6483.656430047396
 20
3119.697838004407
 30
0.0
  0
SPLINE
  5
88
330
1F
100
AcDbEntity
  8
0
  6
Continuous
 62
     7
370
    25
100
AcDbSpline
210
0.0
220
0.0
230
1.0
 70
     8
 71
     3
 72
    15
 73
    11
 74
     0
 42
0.000000001
 43
0.00000001
 40
0.0
 40
0.0
 40
0.0
 40
0.0
 40
0.1528612850162831
 40
0.2874697277136235
 40
0.4083171843914844
 40
0.5197330343307374
 40
0.6278222855466407
 40
0.7415060099346156
 40
0.8623534666125092
 40
1.0
 40
1.0
 40
1.0
 40
1.0
 10
6481.703093898748
 20
3119.697838004407
 30
0.0
 10
6481.679830977552
 20
3119.698851881952
 30
0.0
 10
6481.636082911317
 20
3119.700758572071
 30
0.0
 10
6481.574495002132
 20
3119.711522460462
 30
0.0
 10
6481.522297777069
 20
3119.732630968599
 30
0.0
 10
6481.479137586149
 20
3119.762100620012
 30
0.0
 10
6481.445164775569
 20
3119.800638611334
 30
0.0
 10
6481.422384508548
 20
3119.848096175946
 30
0.0
 10
6481.407883803768
 20
3119.903322406076
 30
0.0
 10
6481.406521839457
 20
3119.942772685175
 30
0.0
 10
6481.40579660145
 20
3119.96377972738
 30
0.0
  0
SPLINE
  5
8A
330
1F
100
AcDbEntity
  8
0
  6
Continuous
 62
     7
370
    25
100
AcDbSpline
210
0.0
220
0.0
230
1.0
 70
     8
 71
     3
 72
    15
 73
    11
 74
     0
 42
0.000000001
 43
0.00000001
 40
0.0
 40
0.0
 40
0.0
 40
0.0
 40
0.1376465333874907
 40
0.2584939900653843
 40
0.3721777144533592
 40
0.4802669656692625
 40
0.5916828156085154
 40
0.7125302722863763
 40
0.8471387149837168
 40
1.0
 40
1.0
 40
1.0
 40
1.0
 10
6481.40579660145
 20
3124.931896281435
 30
0.0
 10
6481.406521839457
 20
3124.95290332364
 30
0.0
 10
6481.407883803769
 20
3124.992353602739
 30
0.0
 10
6481.422384508548
 20
3125.047579832868
 30
0.0
 10
6481.445164775569
 20
3125.095037397481
 30
0.0
 10
6481.479137586149
 20
3125.133575388803
 30
0.0
 10
6481.522297777069
 20
3125.163045040216
 30
0.0
 10
6481.574495002132
 20
3125.184153548353
 30
0.0
 10
6481.636082911317
 20
3125.194917436744
 30
0.0
 10
6481.679830977552
 20
3125.196824126863
 30
0.0
 10
6481.703093898748
 20
3125.197838004407
 30
0.0
  0
SPLINE
  5
8C
330
1F
100
AcDbEntity
  8
0
  6
Continuous
 62
     7
370
    25
100
AcDbSpline
210
0.0
220
0.0
230
1.0
 70
     8
 71
     3
 72
    15
 73
    11
 74
     0
 42
0.000000001
 43
0.00000001
 40
0.0
 40
0.0
 40
0.0
 40
0.0
 40
0.1548790377790556
 40
0.2919933978856851
 40
0.4126674844479004
 40
0.5257810605822698
 40
0.6337152448525929
 40
0.7449712554429674
 40
0.8650822696621177
 40
1.0
 40
1.0
 40
1.0
 40
1.0
 10
6483.656430047396
 20
3125.197838004407
 30
0.0
 10
6483.683199466469
 20
3125.197044911363
 30
0.0
 10
6483.733667843256
 20
3125.195549693313
 30
0.0
 10
6483.804102772331
 20
3125.182053812377
 30
0.0
 10
6483.864007631233
 20
3125.158433923189
 30
0.0
 10
6483.914136702168
 20
3125.126128602594
 30
0.0
 10
6483.952462636092
 20
3125.082512288431
 30
0.0
 10
6483.979873912211
 20
3125.030048395215
 30
0.0
 10
6483.994369497415
 20
3124.967871207646
 30
0.0
 10
6483.996650627266
 20
3124.923836412802
 30
0.0
 10
6483.99785741226
 20
3124.90054070711
 30
0.0
  0
SPLINE
  5
8D
330
1F
100
AcDbEntity
  8
0
  6
Continuous
 62
     7
370
    25
100
AcDbSpline
210
0.0
220
0.0
230
1.0
 70
     8
 71
     3
 72
    15
 73
    11
 74
     0
 42
0.000000001
 43
0.00000001
 40
0.0
 40
0.0
 40
0.0
 40
0.0
 40
0.1349177303379193
 40
0.2550287445570645
 40
0.3662847551474342
 40
0.4742189394177526
 40
0.5873325155521172
 40
0.7080066021143274
 40
0.8451209622209509
 40
1.0
 40
1.0
 40
1.0
 40
1.0
 10
6483.99785741226
 20
3124.90054070711
 30
0.0
 10
6483.996650627266
 20
3124.877245001418
 30
0.0
 10
6483.994369497415
 20
3124.833210206574
 30
0.0
 10
6483.979873912211
 20
3124.771033019005
 30
0.0
 10
6483.95246263609
 20
3124.718569125789
 30
0.0
 10
6483.914136702168
 20
3124.674952811626
 30
0.0
 10
6483.864007631233
 20
3124.642647491031
 30
0.0
 10
6483.804102772331
 20
3124.619027601843
 30
0.0
 10
6483.733667843256
 20
3124.605531720907
 30
0.0
 10
6483.683199466469
 20
3124.604036502857
 30
0.0
 10
6483.656430047396
 20
3124.603243409813
 30
0.0
  0
SPLINE
  5
91
330
1F
100
AcDbEntity
  8
0
  6
Continuous
 62
     7
370
    25
100
AcDbSpline
210
0.0
220
0.0
230
1.0
 70
     8
 71
     3
 72
    15
 73
    11
 74
     0
 42
0.000000001
 43
0.00000001
 40
0.0
 40
0.0
 40
0.0
 40
0.0
 40
0.154879037779062
 40
0.2919933978856131
 40
0.4126674844478334
 40
0.5257810605822075
 40
0.6337152448525349
 40
0.7449712554429141
 40
0.8650822696620694
 40
1.0
 40
1.0
 40
1.0
 40
1.0
 10
6482.887637817666
 20
3122.968108274677
 30
0.0
 10
6482.914407236741
 20
3122.967315181633
 30
0.0
 10
6482.964875613526
 20
3122.965819963584
 30
0.0
 10
6483.0353105426
 20
3122.952324082647
 30
0.0
 10
6483.095215401502
 20
3122.92870419346
 30
0.0
 10
6483.145344472438
 20
3122.896398872864
 30
0.0
 10
6483.183670406361
 20
3122.852782558701
 30
0.0
 10
6483.211081682481
 20
3122.800318665486
 30
0.0
 10
6483.225577267686
 20
3122.738141477917
 30
0.0
 10
6483.227858397538
 20
3122.694106683072
 30
0.0
 10
6483.229065182531
 20
3122.670810977381
 30
0.0
  0
SPLINE
  5
92
330
1F
100
AcDbEntity
  8
0
  6
Continuous
 62
     7
370
    25
100
AcDbSpline
210
0.0
220
0.0
230
1.0
 70
     8
 71
     3
 72
    15
 73
    11
 74
     0
 42
0.000000001
 43
0.00000001
 40
0.0
 40
0.0
 40
0.0
 40
0.0
 40
0.1349177303378937
 40
0.2550287445570541
 40
0.366284755147438
 40
0.47421893941777
 40
0.5873325155521489
 40
0.7080066021143745
 40
0.8451209622209314
 40
1.0
 40
1.0
 40
1.0
 40
1.0
 10
6483.229065182531
 20
3122.670810977381
 30
0.0
 10
6483.227858397538
 20
3122.647515271688
 30
0.0
 10
6483.225577267686
 20
3122.603480476844
 30
0.0
 10
6483.211081682481
 20
3122.541303289276
 30
0.0
 10
6483.183670406361
 20
3122.488839396059
 30
0.0
 10
6483.145344472439
 20
3122.445223081897
 30
0.0
 10
6483.095215401502
 20
3122.412917761301
 30
0.0
 10
6483.0353105426
 20
3122.389297872114
 30
0.0
 10
6482.964875613526
 20
3122.375801991177
 30
0.0
 10
6482.914407236741
 20
3122.374306773127
 30
0.0
 10
6482.887637817666
 20
3122.373513680083
 30
0.0
  0
SPLINE
  5
98
330
1F
100
AcDbEntity
  8
0
  6
Continuous
 62
     7
370
    25
100
AcDbSpline
210
0.0
220
0.0
230
1.0
 70
     8
 71
     3
 72
    15
 73
    11
 74
     0
 42
0.000000001
 43
0.00000001
 40
0.0
 40
0.0
 40
0.0
 40
0.0
 40
0.1264029572855311
 40
0.2376210961698673
 40
0.3451274771355307
 40
0.4525814031671255
 40
0.565385037292534
 40
0.6938013651786215
 40
0.8358900427402315
 40
1.0
 40
1.0
 40
1.0
 40
1.0
 10
6471.247519574423
 20
3119.661837159813
 30
0.0
 10
6471.246361299795
 20
3119.641227600128
 30
0.0
 10
6471.244183894356
 20
3119.602484312241
 30
0.0
 10
6471.22905301016
 20
3119.547643742058
 30
0.0
 10
6471.201634723868
 20
3119.501432420606
 30
0.0
 10
6471.163568877439
 20
3119.462992488456
 30
0.0
 10
6471.1134515778
 20
3119.435100805927
 30
0.0
 10
6471.054240869212
 20
3119.414270994387
 30
0.0
 10
6470.983891631036
 20
3119.403379911043
 30
0.0
 10
6470.933995704854
 20
3119.40153142181
 30
0.0
 10
6470.907253527125
 20
3119.40054070711
 30
0.0
  0
SPLINE
  5
99
330
1F
100
AcDbEntity
  8
0
  6
Continuous
 62
     7
370
    25
100
AcDbSpline
210
0.0
220
0.0
230
1.0
 70
     8
 71
     3
 72
    15
 73
    11
 74
     0
 42
0.000000001
 43
0.00000001
 40
0.0
 40
0.0
 40
0.0
 40
0.0
 40
0.1558000825475177
 40
0.2933664335182273
 40
0.4160028096423562
 40
0.5283380454779643
 40
0.6363337597611632
 40
0.7492426260628942
 40
0.8674075817596187
 40
1.0
 40
1.0
 40
1.0
 40
1.0
 10
6470.907253527125
 20
3119.40054070711
 30
0.0
 10
6470.886686339711
 20
3119.40111768549
 30
0.0
 10
6470.847959001954
 20
3119.40220411681
 30
0.0
 10
6470.793805283826
 20
3119.412558396749
 30
0.0
 10
6470.747467820847
 20
3119.429752425578
 30
0.0
 10
6470.709122819322
 20
3119.454521601783
 30
0.0
 10
6470.67880026407
 20
3119.487018748616
 30
0.0
 10
6470.657896914053
 20
3119.527148130418
 30
0.0
 10
6470.646498115156
 20
3119.574132104545
 30
0.0
 10
6470.644624922956
 20
3119.607193301929
 30
0.0
 10
6470.643634439288
 20
3119.624674997651
 30
0.0
  0
SPLINE
  5
9D
330
1F
100
AcDbEntity
  8
0
  6
Continuous
 62
     7
370
    25
100
AcDbSpline
210
0.0
220
0.0
230
1.0
 70
     8
 71
     3
 72
    15
 73
    11
 74
     0
 42
0.000000001
 43
0.00000001
 40
0.0
 40
0.0
 40
0.0
 40
0.0
 40
0.1137041187720561
 40
0.2169428404674202
 40
0.3200287290343704
 40
0.4251741161266002
 40
0.5430984856672898
 40
0.674192396439336
 40
0.8265563295143681
 40
1.0
 40
1.0
 40
1.0
 40
1.0
 10
6468.559069405504
 20
3119.624674997651
 30
0.0
 10
6468.557883414915
 20
3119.607142409215
 30
0.0
 10
6468.555620593039
 20
3119.573690942575
 30
0.0
 10
6468.540207254129
 20
3119.526161805153
 30
0.0
 10
6468.512940870467
 20
3119.485844132498
 30
0.0
 10
6468.47374283007
 20
3119.453396170733
 30
0.0
 10
6468.424136963858
 20
3119.429712970818
 30
0.0
 10
6468.364584794532
 20
3119.412235143722
 30
0.0
 10
6468.294620642855
 20
3119.402251169701
 30
0.0
 10
6468.244384989553
 20
3119.401134934757
 30
0.0
 10
6468.217642040639
 20
3119.40054070711
 30
0.0
  0
SPLINE
  5
9E
330
1F
100
AcDbEntity
  8
0
  6
Continuous
 62
     7
370
    25
100
AcDbSpline
210
0.0
220
0.0
230
1.0
 70
     8
 71
     3
 72
    15
 73
    11
 74
     0
 42
0.000000001
 43
0.00000001
 40
0.0
 40
0.0
 40
0.0
 40
0.0
 40
0.1469070492111184
 40
0.2772755343189018
 40
0.3938111936936113
 40
0.5023339070866244
 40
0.6141965596110942
 40
0.7307322189857567
 40
0.8557984665798444
 40
1.0
 40
1.0
 40
1.0
 40
1.0
 10
6468.217642040639
 20
3119.40054070711
 30
0.0
 10
6468.196707404828
 20
3119.401578921589
 30
0.0
 10
6468.157194921516
 20
3119.403538469996
 30
0.0
 10
6468.101545124626
 20
3119.414065920229
 30
0.0
 10
6468.055236230601
 20
3119.435770645403
 30
0.0
 10
6468.01617023244
 20
3119.464401697666
 30
0.0
 10
6467.985539522258
 20
3119.502216387884
 30
0.0
 10
6467.96460994709
 20
3119.548628153761
 30
0.0
 10
6467.953312600725
 20
3119.602855202528
 30
0.0
 10
6467.951506320886
 20
3119.641266615911
 30
0.0
 10
6467.950539000099
 20
3119.661837159813
 30
0.0
  0
SPLINE
  5
A0
330
1F
100
AcDbEntity
  8
0
  6
Continuous
 62
     7
370
    25
100
AcDbSpline
210
0.0
220
0.0
230
1.0
 70
     8
 71
     3
 72
    15
 73
    11
 74
     0
 42
0.000000001
 43
0.00000001
 40
0.0
 40
0.0
 40
0.0
 40
0.0
 40
0.1442015334201591
 40
0.2692677810142499
 40
0.3858034403889151
 40
0.4976660929133876
 40
0.6061888063063722
 40
0.7227244656810845
 40
0.8530929507888818
 40
1.0
 40
1.0
 40
1.0
 40
1.0
 10
6467.950539000099
 20
3120.031136146299
 30
0.0
 10
6467.951506320886
 20
3120.051706690201
 30
0.0
 10
6467.953312600725
 20
3120.090118103585
 30
0.0
 10
6467.96460994709
 20
3120.144345152351
 30
0.0
 10
6467.985539522258
 20
3120.190756918228
 30
0.0
 10
6468.01617023244
 20
3120.228571608445
 30
0.0
 10
6468.055236230601
 20
3120.257202660708
 30
0.0
 10
6468.101545124626
 20
3120.278907385883
 30
0.0
 10
6468.157194921516
 20
3120.289434836116
 30
0.0
 10
6468.196707404828
 20
3120.291394384523
 30
0.0
 10
6468.217642040639
 20
3120.292432599002
 30
0.0
  0
SPLINE
  5
A3
330
1F
100
AcDbEntity
  8
0
  6
Continuous
 62
     7
370
    25
100
AcDbSpline
210
0.0
220
0.0
230
1.0
 70
     8
 71
     3
 72
    15
 73
    11
 74
     0
 42
0.000000001
 43
0.00000001
 40
0.0
 40
0.0
 40
0.0
 40
0.0
 40
0.1442345664143202
 40
0.2721935918862963
 40
0.3895004132241979
 40
0.5007363879519082
 40
0.6129889005467057
 40
0.7315684031395624
 40
0.8573207973780808
 40
1.0
 40
1.0
 40
1.0
 40
1.0
 10
6468.720492547395
 20
3125.025963004407
 30
0.0
 10
6468.723114714758
 20
3125.045385705555
 30
0.0
 10
6468.72806316207
 20
3125.08203943511
 30
0.0
 10
6468.742401429154
 20
3125.133459180837
 30
0.0
 10
6468.76666811557
 20
3125.175717047777
 30
0.0
 10
6468.795668376612
 20
3125.212356712851
 30
0.0
 10
6468.834400642661
 20
3125.239031962267
 30
0.0
 10
6468.878809836366
 20
3125.258897476275
 30
0.0
 10
6468.930473146095
 20
3125.270823547402
 30
0.0
 10
6468.967012526647
 20
3125.271697694252
 30
0.0
 10
6468.98643427037
 20
3125.272162328732
 30
0.0
  0
SPLINE
  5
A5
330
1F
100
AcDbEntity
  8
0
  6
Continuous
 62
     7
370
    25
100
AcDbSpline
210
0.0
220
0.0
230
1.0
 70
     8
 71
     3
 72
    15
 73
    11
 74
     0
 42
0.000000001
 43
0.00000001
 40
0.0
 40
0.0
 40
0.0
 40
0.0
 40
0.1614740538086392
 40
0.3033294688028963
 40
0.4293020720699453
 40
0.5431364423939157
 40
0.6487510557946644
 40
0.7581294614989499
 40
0.8714443198697314
 40
1.0
 40
1.0
 40
1.0
 40
1.0
 10
6470.529825317666
 20
3125.272162328732
 30
0.0
 10
6470.556177697223
 20
3125.271144529131
 30
0.0
 10
6470.605680717083
 20
3125.26923258969
 30
0.0
 10
6470.675305101849
 20
3125.258576385296
 30
0.0
 10
6470.73431626092
 20
3125.237529693728
 30
0.0
 10
6470.783472427932
 20
3125.208771677915
 30
0.0
 10
6470.821080878278
 20
3125.169588893961
 30
0.0
 10
6470.848144526912
 20
3125.122670059001
 30
0.0
 10
6470.863262253331
 20
3125.06671737089
 30
0.0
 10
6470.865446481529
 20
3125.027215887399
 30
0.0
 10
6470.866607412261
 20
3125.006220605759
 30
0.0
  0
SPLINE
  5
A8
330
1F
100
AcDbEntity
  8
0
  6
Continuous
 62
     7
370
    25
100
AcDbSpline
210
0.0
220
0.0
230
1.0
 70
     8
 71
     3
 72
    15
 73
    11
 74
     0
 42
0.000000001
 43
0.00000001
 40
0.0
 40
0.0
 40
0.0
 40
0.0
 40
0.1641099572597689
 40
0.3061986348213891
 40
0.4346149627074789
 40
0.5474185968328664
 40
0.6548725228644632
 40
0.7623789038301285
 40
0.8735970427144666
 40
1.0
 40
1.0
 40
1.0
 40
1.0
 10
6470.907253527125
 20
3120.292432599002
 30
0.0
 10
6470.933995704854
 20
3120.291441884302
 30
0.0
 10
6470.983891631035
 20
3120.289593395069
 30
0.0
 10
6471.054240869212
 20
3120.278702311725
 30
0.0
 10
6471.1134515778
 20
3120.257872500185
 30
0.0
 10
6471.163568877439
 20
3120.229980817657
 30
0.0
 10
6471.201634723868
 20
3120.191540885506
 30
0.0
 10
6471.22905301016
 20
3120.145329564054
 30
0.0
 10
6471.244183894356
 20
3120.090488993871
 30
0.0
 10
6471.246361299795
 20
3120.051745705984
 30
0.0
 10
6471.247519574423
 20
3120.031136146299
 30
0.0
  0
SPLINE
  5
AA
330
1F
100
AcDbEntity
  8
0
  6
Continuous
 62
     7
370
    25
100
AcDbSpline
210
0.0
220
0.0
230
1.0
 70
     8
 71
     3
 72
    15
 73
    11
 74
     0
 42
0.000000001
 43
0.00000001
 40
0.0
 40
0.0
 40
0.0
 40
0.0
 40
0.1276094144620835
 40
0.2499167177708513
 40
0.3720143427043091
 40
0.500576363807611
 40
0.6284293671556819
 40
0.7514974778095945
 40
0.8734901284089588
 40
1.0
 40
1.0
 40
1.0
 40
1.0
 10
6474.999039844693
 20
3123.934324490894
 30
0.0
 10
6474.996644470754
 20
3123.97912204583
 30
0.0
 10
6474.991953249537
 20
3124.066855838364
 30
0.0
 10
6474.953063935968
 20
3124.192649839895
 30
0.0
 10
6474.890073312858
 20
3124.308132174559
 30
0.0
 10
6474.80315994948
 20
3124.409375602863
 30
0.0
 10
6474.701054856581
 20
3124.49566303657
 30
0.0
 10
6474.5854326169
 20
3124.558516599076
 30
0.0
 10
6474.459338871447
 20
3124.595713965953
 30
0.0
 10
6474.37217330934
 20
3124.600703363159
 30
0.0
 10
6474.327798290639
 20
3124.603243409813
 30
0.0
  0
SPLINE
  5
AC
330
1F
100
AcDbEntity
  8
0
  6
Continuous
 62
     7
370
    25
100
AcDbSpline
210
0.0
220
0.0
230
1.0
 70
     8
 71
     3
 72
    15
 73
    11
 74
     0
 42
0.000000001
 43
0.00000001
 40
0.0
 40
0.0
 40
0.0
 40
0.0
 40
0.1097146503989892
 40
0.2209919735938202
 40
0.33827097552513
 40
0.4647338986157517
 40
0.594800964271808
 40
0.7238485466785319
 40
0.8575872448702725
 40
1.0
 40
1.0
 40
1.0
 40
1.0
 10
6473.957337986585
 20
3124.603243409813
 30
0.0
 10
6473.921072019448
 20
3124.600972745402
 30
0.0
 10
6473.848023546683
 20
3124.596399075361
 30
0.0
 10
6473.741148189734
 20
3124.559581445651
 30
0.0
 10
6473.6405960927
 20
3124.498373054521
 30
0.0
 10
6473.546290219969
 20
3124.418073676871
 30
0.0
 10
6473.464576418682
 20
3124.319310473174
 30
0.0
 10
6473.405767758201
 20
3124.202730058638
 30
0.0
 10
6473.369967031887
 20
3124.072682053196
 30
0.0
 10
6473.365967360897
 20
3123.98139942287
 30
0.0
 10
6473.363904709558
 20
3123.934324490894
 30
0.0
  0
SPLINE
  5
AE
330
1F
100
AcDbEntity
  8
0
  6
Continuous
 62
     7
370
    25
100
AcDbSpline
210
0.0
220
0.0
230
1.0
 70
     8
 71
     3
 72
    15
 73
    11
 74
     0
 42
0.000000001
 43
0.00000001
 40
0.0
 40
0.0
 40
0.0
 40
0.0
 40
0.143503718383072
 40
0.2760390562758065
 40
0.406061846474792
 40
0.5360582087399385
 40
0.6624523876220278
 40
0.7790740198611197
 40
0.8891793093881766
 40
1.0
 40
1.0
 40
1.0
 40
1.0
 10
6473.363904709558
 20
3120.961351517921
 30
0.0
 10
6473.365872022961
 20
3120.91386410605
 30
0.0
 10
6473.369656282643
 20
3120.822518874684
 30
0.0
 10
6473.406309160627
 20
3120.692400905533
 30
0.0
 10
6473.46416567526
 20
3120.575362022866
 30
0.0
 10
6473.546397678942
 20
3120.476572585329
 30
0.0
 10
6473.640216182624
 20
3120.395876737044
 30
0.0
 10
6473.741222230336
 20
3120.336611903221
 30
0.0
 10
6473.84751249642
 20
3120.298907288206
 30
0.0
 10
6473.920650544812
 20
3120.29459548289
 30
0.0
 10
6473.957337986585
 20
3120.292432599002
 30
0.0
  0
SPLINE
  5
B0
330
1F
100
AcDbEntity
  8
0
  6
Continuous
 62
     7
370
    25
100
AcDbSpline
210
0.0
220
0.0
230
1.0
 70
     8
 71
     3
 72
    15
 73
    11
 74
     0
 42
0.000000001
 43
0.00000001
 40
0.0
 40
0.0
 40
0.0
 40
0.0
 40
0.1274982018433533
 40
0.2493845348783044
 40
0.3723453906958302
 40
0.4993842070425148
 40
0.6271257854821235
 40
0.7506154651217244
 40
0.8725017981566696
 40
1.0
 40
1.0
 40
1.0
 40
1.0
 10
6474.327798290639
 20
3120.292432599002
 30
0.0
 10
6474.37255804184
 20
3120.294947622493
 30
0.0
 10
6474.460107431342
 20
3120.299866970017
 30
0.0
 10
6474.586666686701
 20
3120.337083619751
 30
0.0
 10
6474.701718836679
 20
3120.400190868352
 30
0.0
 10
6474.804849906784
 20
3120.48464678522
 30
0.0
 10
6474.889958489155
 20
3120.587400401782
 30
0.0
 10
6474.954595910533
 20
3120.702172606419
 30
0.0
 10
6474.991537357482
 20
3120.829076644366
 30
0.0
 10
6474.996501777715
 20
3120.916603359186
 30
0.0
 10
6474.999039844693
 20
3120.961351517921
 30
0.0
  0
SPLINE
  5
B2
330
1F
100
AcDbEntity
  8
0
  6
Continuous
 62
     7
370
    25
100
AcDbSpline
210
0.0
220
0.0
230
1.0
 70
     8
 71
     3
 72
    23
 73
    19
 74
     0
 42
0.000000001
 43
0.00000001
 40
0.0
 40
0.0
 40
0.0
 40
0.0
 40
0.0596984677699006
 40
0.1182376316334197
 40
0.175815676058538
 40
0.2340880145940167
 40
0.2926014098287238
 40
0.3524988403494495
 40
0.4143425792735398
 40
0.4790413569464315
 40
0.5438488242948512
 40
0.6077816006315186
 40
0.6708302096468931
 40
0.7340778404193641
 40
0.7981519974078938
 40
0.8633307390899787
 40
0.9304699138440345
 40
1.0
 40
1.0
 40
1.0
 40
1.0
 10
6475.667958763612
 20
3120.918382767921
 30
0.0
 10
6475.666830337174
 20
3120.878455725933
 30
0.0
 10
6475.664595397577
 20
3120.799376998134
 30
0.0
 10
6475.647148782911
 20
3120.682754255882
 30
0.0
 10
6475.616128602233
 20
3120.57014185518
 30
0.0
 10
6475.574669716834
 20
3120.460949823977
 30
0.0
 10
6475.520528582129
 20
3120.355678138169
 30
0.0
 10
6475.455053223054
 20
3120.254285658953
 30
0.0
 10
6475.377943495255
 20
3120.156064952714
 30
0.0
 10
6475.289338538598
 20
3120.063564001547
 30
0.0
 10
6475.192698622454
 20
3119.977221735275
 30
0.0
 10
6475.08745122686
 20
3119.90364133166
 30
0.0
 10
6474.978170304587
 20
3119.83804900473
 30
0.0
 10
6474.86088584394
 20
3119.787906508579
 30
0.0
 10
6474.738906944605
 20
3119.746135350147
 30
0.0
 10
6474.610120698931
 20
3119.719354023309
 30
0.0
 10
6474.476206984192
 20
3119.700900541128
 30
0.0
 10
6474.384768970416
 20
3119.698870686834
 30
0.0
 10
6474.338250148747
 20
3119.697838004407
 30
0.0
  0
SPLINE
  5
B4
330
1F
100
AcDbEntity
  8
0
  6
Continuous
 62
     7
370
    25
100
AcDbSpline
210
0.0
220
0.0
230
1.0
 70
     8
 71
     3
 72
    23
 73
    19
 74
     0
 42
0.000000001
 43
0.00000001
 40
0.0
 40
0.0
 40
0.0
 40
0.0
 40
0.0651968273752563
 40
0.128490355451132
 40
0.1911004981255621
 40
0.2525160380295
 40
0.3137365289174454
 40
0.375629792652848
 40
0.4384931710491429
 40
0.5032476829196622
 40
0.5679249615742178
 40
0.6305493581231001
 40
0.6920491304039744
 40
0.7524447192727045
 40
0.8129377656964479
 40
0.873804420208853
 40
0.9359969093510048
 40
1.0
 40
1.0
 40
1.0
 40
1.0
 10
6473.945724810909
 20
3119.697838004407
 30
0.0
 10
6473.903477686804
 20
3119.699012496246
 30
0.0
 10
6473.820216764276
 20
3119.701327192832
 30
0.0
 10
6473.697296189321
 20
3119.717958626415
 30
0.0
 10
6473.578846141035
 20
3119.745357805014
 30
0.0
 10
6473.465561844593
 20
3119.785594820208
 30
0.0
 10
6473.356664261958
 20
3119.835409200424
 30
0.0
 10
6473.253246294799
 20
3119.897640243849
 30
0.0
 10
6473.153757835979
 20
3119.969881452127
 30
0.0
 10
6473.060745537039
 20
3120.053039503146
 30
0.0
 10
6472.97528268051
 20
3120.143739295248
 30
0.0
 10
6472.900779833871
 20
3120.240933244066
 30
0.0
 10
6472.835933913379
 20
3120.341668087802
 30
0.0
 10
6472.785250746978
 20
3120.448643881362
 30
0.0
 10
6472.743490200178
 20
3120.559005610895
 30
0.0
 10
6472.716581996673
 20
3120.675065776791
 30
0.0
 10
6472.698080561506
 20
3120.795076620341
 30
0.0
 10
6472.69602720118
 20
3120.876889446633
 30
0.0
 10
6472.694985790639
 20
3120.918382767921
 30
0.0
  0
SPLINE
  5
B6
330
1F
100
AcDbEntity
  8
0
  6
Continuous
 62
     7
370
    25
100
AcDbSpline
210
0.0
220
0.0
230
1.0
 70
     8
 71
     3
 72
    23
 73
    19
 74
     0
 42
0.000000001
 43
0.00000001
 40
0.0
 40
0.0
 40
0.0
 40
0.0
 40
0.0640219079057581
 40
0.1262326819779704
 40
0.1865365373545998
 40
0.2470473690630235
 40
0.3074607145633718
 40
0.3689785681117932
 40
0.4316213765738742
 40
0.4963176707001248
 40
0.5610912207493406
 40
0.6243271406750837
 40
0.6867528751010498
 40
0.7479913651462937
 40
0.8094249615530016
 40
0.8714718676855094
 40
0.9347840044028907
 40
1.0
 40
1.0
 40
1.0
 40
1.0
 10
6472.694985790639
 20
3123.977293240894
 30
0.0
 10
6472.696036916976
 20
3124.018784206044
 30
0.0
 10
6472.698109434038
 20
3124.100592386712
 30
0.0
 10
6472.716414313392
 20
3124.220264534079
 30
0.0
 10
6472.743706838211
 20
3124.335841802043
 30
0.0
 10
6472.785228176543
 20
3124.445876500971
 30
0.0
 10
6472.835941142595
 20
3124.552843555667
 30
0.0
 10
6472.900773746404
 20
3124.65358802549
 30
0.0
 10
6472.975300182681
 20
3124.75075142778
 30
0.0
 10
6473.060679523859
 20
3124.841567496971
 30
0.0
 10
6473.154172547323
 20
3124.924445296083
 30
0.0
 10
6473.253015221667
 20
3124.99856358094
 30
0.0
 10
6473.357688487529
 20
3125.059859792571
 30
0.0
 10
6473.466674227811
 20
3125.110172611232
 30
0.0
 10
6473.579682438272
 20
3125.150092118604
 30
0.0
 10
6473.69764175829
 20
3125.177880947289
 30
0.0
 10
6473.820224188224
 20
3125.194319338581
 30
0.0
 10
6473.903480185771
 20
3125.196653590214
 30
0.0
 10
6473.945724810909
 20
3125.197838004407
 30
0.0
  0
SPLINE
  5
B8
330
1F
100
AcDbEntity
  8
0
  6
Continuous
 62
     7
370
    25
100
AcDbSpline
210
0.0
220
0.0
230
1.0
 70
     8
 71
     3
 72
    23
 73
    19
 74
     0
 42
0.000000001
 43
0.00000001
 40
0.0
 40
0.0
 40
0.0
 40
0.0
 40
0.0695660886455684
 40
0.1367400278818026
 40
0.2020784391817923
 40
0.2654541770857372
 40
0.3289700421547244
 40
0.3917607770916675
 40
0.4560640589846517
 40
0.5209050834635011
 40
0.5856373619875883
 40
0.647872641376898
 40
0.707801086624324
 40
0.7663447799360226
 40
0.8241067595132525
 40
0.8822738882014347
 40
0.9402706205257817
 40
1.0
 40
1.0
 40
1.0
 40
1.0
 10
6474.338250148747
 20
3125.197838004407
 30
0.0
 10
6474.384757240607
 20
3125.196759308977
 30
0.0
 10
6474.476172198116
 20
3125.194639010909
 30
0.0
 10
6474.6103362611
 20
3125.17682853664
 30
0.0
 10
6474.738117410304
 20
3125.147741489922
 30
0.0
 10
6474.860655106027
 20
3125.108351773068
 30
0.0
 10
6474.976271068279
 20
3125.055781649804
 30
0.0
 10
6475.087084090746
 20
3124.992534524532
 30
0.0
 10
6475.191073372688
 20
3124.917012159212
 30
0.0
 10
6475.288326867038
 20
3124.831122681664
 30
0.0
 10
6475.376652488895
 20
3124.738026202519
 30
0.0
 10
6475.455159855473
 20
3124.640628049853
 30
0.0
 10
6475.520508950919
 20
3124.538800759526
 30
0.0
 10
6475.574359671827
 20
3124.433842492653
 30
0.0
 10
6475.616613562866
 20
3124.324917195781
 30
0.0
 10
6475.646785691305
 20
3124.212447900919
 30
0.0
 10
6475.66472085697
 20
3124.095938564634
 30
0.0
 10
6475.666868923263
 20
3124.017227826821
 30
0.0
 10
6475.667958763612
 20
3123.977293240894
 30
0.0
  0
SPLINE
  5
BA
330
1F
100
AcDbEntity
  8
0
  6
Continuous
 62
     7
370
    25
100
AcDbSpline
210
0.0
220
0.0
230
1.0
 70
     8
 71
     3
 72
    15
 73
    11
 74
     0
 42
0.000000001
 43
0.00000001
 40
0.0
 40
0.0
 40
0.0
 40
0.0
 40
0.1222745217376128
 40
0.2336168933972622
 40
0.338053093283207
 40
0.4445575375120845
 40
0.5596238896565565
 40
0.6877517656792627
 40
0.8337107774006105
 40
1.0
 40
1.0
 40
1.0
 40
1.0
 10
6488.808499304152
 20
3119.227504389542
 30
0.0
 10
6488.807498214662
 20
3119.206086888668
 30
0.0
 10
6488.805585539696
 20
3119.165166752998
 30
0.0
 10
6488.788010047219
 20
3119.107961100954
 30
0.0
 10
6488.757914809686
 20
3119.059573486943
 30
0.0
 10
6488.715694513488
 20
3119.020411886251
 30
0.0
 10
6488.662144507482
 20
3118.989826170571
 30
0.0
 10
6488.596762720395
 20
3118.969725640311
 30
0.0
 10
6488.520595770351
 20
3118.957036382602
 30
0.0
 10
6488.465969273043
 20
3118.955443211636
 30
0.0
 10
6488.436877682531
 20
3118.954594761164
 30
0.0
  0
SPLINE
  5
BB
330
1F
100
AcDbEntity
  8
0
  6
Continuous
 62
     7
370
    25
100
AcDbSpline
210
0.0
220
0.0
230
1.0
 70
     8
 71
     3
 72
    15
 73
    11
 74
     0
 42
0.000000001
 43
0.00000001
 40
0.0
 40
0.0
 40
0.0
 40
0.0
 40
0.1542014472171871
 40
0.2899900261851753
 40
0.411896974110266
 40
0.522846936919222
 40
0.6318838259152746
 40
0.7442764785201091
 40
0.8637038887549363
 40
1.0
 40
1.0
 40
1.0
 40
1.0
 10
6488.436877682531
 20
3118.954594761164
 30
0.0
 10
6488.413621896344
 20
3118.955618774786
 30
0.0
 10
6488.369887248147
 20
3118.957544526731
 30
0.0
 10
6488.308210872467
 20
3118.96818273857
 30
0.0
 10
6488.256503209257
 20
3118.989615376476
 30
0.0
 10
6488.212543123395
 20
3119.01755244758
 30
0.0
 10
6488.17935509323
 20
3119.056115285246
 30
0.0
 10
6488.156097879909
 20
3119.102421144255
 30
0.0
 10
6488.141678756971
 20
3119.156595865486
 30
0.0
 10
6488.140309940296
 20
3119.195275599942
 30
0.0
 10
6488.139580385234
 20
3119.215891213867
 30
0.0
  0
SPLINE
  5
BE
330
1F
100
AcDbEntity
  8
0
  6
Continuous
 62
     7
370
    25
100
AcDbSpline
210
0.0
220
0.0
230
1.0
 70
     8
 71
     3
 72
    15
 73
    11
 74
     0
 42
0.000000001
 43
0.00000001
 40
0.0
 40
0.0
 40
0.0
 40
0.0
 40
0.1476670007642653
 40
0.27633993672913
 40
0.3937966321049941
 40
0.5046581071775114
 40
0.6133971665381104
 40
0.7284171840211292
 40
0.8576739258690425
 40
1.0
 40
1.0
 40
1.0
 40
1.0
 10
6485.660167378476
 20
3119.697838004407
 30
0.0
 10
6485.638835876893
 20
3119.698833515452
 30
0.0
 10
6485.598916695441
 20
3119.700696487258
 30
0.0
 10
6485.542639136158
 20
3119.711629321424
 30
0.0
 10
6485.495213039676
 20
3119.732980772287
 30
0.0
 10
6485.455586083081
 20
3119.762204100359
 30
0.0
 10
6485.425813398685
 20
3119.801051467142
 30
0.0
 10
6485.404635877508
 20
3119.847866288626
 30
0.0
 10
6485.392223902455
 20
3119.902764036707
 30
0.0
 10
6485.390489380997
 20
3119.942036977166
 30
0.0
 10
6485.389580385235
 20
3119.962618409813
 30
0.0
  0
SPLINE
  5
C0
330
1F
100
AcDbEntity
  8
0
  6
Continuous
 62
     7
370
    25
100
AcDbSpline
210
0.0
220
0.0
230
1.0
 70
     8
 71
     3
 72
    15
 73
    11
 74
     0
 42
0.000000001
 43
0.00000001
 40
0.0
 40
0.0
 40
0.0
 40
0.0
 40
0.1354286630936814
 40
0.2590269151055349
 40
0.3707042516398349
 40
0.4790471821147815
 40
0.5907245186490504
 40
0.7118555973607624
 40
0.8467799583350851
 40
0.9999999999999999
 40
0.9999999999999999
 40
0.9999999999999999
 40
0.9999999999999999
 10
6485.389580385235
 20
3124.933057599002
 30
0.0
 10
6485.390402025037
 20
3124.953652716769
 30
0.0
 10
6485.39197353005
 20
3124.993043859674
 30
0.0
 10
6485.405637622559
 20
3125.048185114733
 30
0.0
 10
6485.429334428256
 20
3125.095228004799
 30
0.0
 10
6485.462879187854
 20
3125.133594949244
 30
0.0
 10
6485.506094040069
 20
3125.163039253422
 30
0.0
 10
6485.558274921158
 20
3125.184155340497
 30
0.0
 10
6485.619867864715
 20
3125.194916894377
 30
0.0
 10
6485.663615167368
 20
3125.19682393858
 30
0.0
 10
6485.686877682531
 20
3125.197838004407
 30
0.0
  0
SPLINE
  5
C1
330
1F
100
AcDbEntity
  8
0
  6
Continuous
 62
     7
370
    25
100
AcDbSpline
210
0.0
220
0.0
230
1.0
 70
     8
 71
     3
 72
    15
 73
    11
 74
     0
 42
0.000000001
 43
0.00000001
 40
0.0
 40
0.0
 40
0.0
 40
0.0
 40
0.168737282695571
 40
0.3164867953630958
 40
0.4465009315751068
 40
0.5610794434177593
 40
0.6676231321872377
 40
0.7716984773789415
 40
0.880399519584021
 40
1.0
 40
1.0
 40
1.0
 40
1.0
 10
6485.686877682531
 20
3125.197838004407
 30
0.0
 10
6485.715932065547
 20
3125.196810162485
 30
0.0
 10
6485.770427008366
 20
3125.194882323002
 30
0.0
 10
6485.846989422329
 20
3125.184411373993
 30
0.0
 10
6485.911427575207
 20
3125.163149950863
 30
0.0
 10
6485.965906756386
 20
3125.135800897291
 30
0.0
 10
6486.007819693822
 20
3125.097485999236
 30
0.0
 10
6486.037731099936
 20
3125.050661776428
 30
0.0
 10
6486.055644971092
 20
3124.995462955394
 30
0.0
 10
6486.057518051954
 20
3124.956035252689
 30
0.0
 10
6486.058499304154
 20
3124.935380234137
 30
0.0
  0
SPLINE
  5
C5
330
1F
100
AcDbEntity
  8
0
  6
Continuous
 62
     7
370
    25
100
AcDbSpline
210
0.0
220
0.0
230
1.0
 70
     8
 71
     3
 72
    15
 73
    11
 74
     0
 42
0.000000001
 43
0.00000001
 40
0.0
 40
0.0
 40
0.0
 40
0.0
 40
0.1359589957906634
 40
0.2575644184868898
 40
0.3696790785664202
 40
0.4784462751989524
 40
0.5891218138384556
 40
0.7107272365347149
 40
0.8461799553809718
 40
0.9999999999999999
 40
0.9999999999999999
 40
0.9999999999999999
 40
0.9999999999999999
 10
6487.693634439288
 20
3124.935380234137
 30
0.0
 10
6487.694411945502
 20
3124.955984013055
 30
0.0
 10
6487.695884874416
 20
3124.995016372074
 30
0.0
 10
6487.709912025355
 20
3125.049692016514
 30
0.0
 10
6487.733426819808
 20
3125.0963131716
 30
0.0
 10
6487.766592427568
 20
3125.134881476057
 30
0.0
 10
6487.810558681322
 20
3125.162817043371
 30
0.0
 10
6487.862264485117
 20
3125.18425013462
 30
0.0
 10
6487.923941435787
 20
3125.194888206272
 30
0.0
 10
6487.967675996772
 20
3125.19681397948
 30
0.0
 10
6487.990931736585
 20
3125.197838004407
 30
0.0
  0
SPLINE
  5
C6
330
1F
100
AcDbEntity
  8
0
  6
Continuous
 62
     7
370
    25
100
AcDbSpline
210
0.0
220
0.0
230
1.0
 70
     8
 71
     3
 72
    15
 73
    11
 74
     0
 42
0.000000001
 43
0.00000001
 40
0.0
 40
0.0
 40
0.0
 40
0.0
 40
0.1687372826956473
 40
0.3164867953630787
 40
0.4465009315750822
 40
0.5610794434178039
 40
0.6676231321872763
 40
0.7716984773789278
 40
0.8803995195840278
 40
1.0
 40
1.0
 40
1.0
 40
1.0
 10
6487.990931736585
 20
3125.197838004407
 30
0.0
 10
6488.019986119601
 20
3125.196810162485
 30
0.0
 10
6488.074481062421
 20
3125.194882323003
 30
0.0
 10
6488.151043476383
 20
3125.184411373993
 30
0.0
 10
6488.215481629261
 20
3125.163149950863
 30
0.0
 10
6488.269960810441
 20
3125.135800897291
 30
0.0
 10
6488.311873747875
 20
3125.097485999236
 30
0.0
 10
6488.341785153991
 20
3125.050661776428
 30
0.0
 10
6488.359699025146
 20
3124.995462955394
 30
0.0
 10
6488.361572106008
 20
3124.956035252689
 30
0.0
 10
6488.362553358207
 20
3124.935380234137
 30
0.0
  0
SPLINE
  5
C9
330
1F
100
AcDbEntity
  8
0
  6
Continuous
 62
     7
370
    25
100
AcDbSpline
210
0.0
220
0.0
230
1.0
 70
     8
 71
     3
 72
    15
 73
    11
 74
     0
 42
0.000000001
 43
0.00000001
 40
0.0
 40
0.0
 40
0.0
 40
0.0
 40
0.1656092688917078
 40
0.3131459933551865
 40
0.4407499567453843
 40
0.5572602504432641
 40
0.6633291998720592
 40
0.7673383619727437
 40
0.8782254566321284
 40
1.0
 40
1.0
 40
1.0
 40
1.0
 10
6488.434555047395
 20
3120.292432599002
 30
0.0
 10
6488.463637267923
 20
3120.291544635281
 30
0.0
 10
6488.518628035632
 20
3120.289865609201
 30
0.0
 10
6488.595283008135
 20
3120.277531425602
 30
0.0
 10
6488.661176522433
 20
3120.256864302653
 30
0.0
 10
6488.715527379769
 20
3120.226994041487
 30
0.0
 10
6488.757894274024
 20
3120.187416814597
 30
0.0
 10
6488.788015863463
 20
3120.139076755198
 30
0.0
 10
6488.805583875349
 20
3120.081857603689
 30
0.0
 10
6488.807497642839
 20
3120.040939439585
 30
0.0
 10
6488.808499304152
 20
3120.019522970623
 30
0.0
  0
SPLINE
  5
CB
330
1F
100
AcDbEntity
  8
0
  6
Continuous
 62
     7
370
    25
100
AcDbSpline
210
0.0
220
0.0
230
1.0
 70
     8
 71
     3
 72
    15
 73
    11
 74
     0
 42
0.000000001
 43
0.00000001
 40
0.0
 40
0.0
 40
0.0
 40
0.0
 40
0.1257421127823806
 40
0.2483729038226259
 40
0.3698227131065059
 40
0.4987247648983748
 40
0.626915923670503
 40
0.7508402192894971
 40
0.8731555254027328
 40
0.9999999999999999
 40
0.9999999999999999
 40
0.9999999999999999
 40
0.9999999999999999
 10
6492.494985790639
 20
3121.706917396299
 30
0.0
 10
6492.492506524038
 20
3121.750921935283
 30
0.0
 10
6492.487609336998
 20
3121.83784217932
 30
0.0
 10
6492.449314170633
 20
3121.962705960057
 30
0.0
 10
6492.38561274694
 20
3122.077384251977
 30
0.0
 10
6492.299205338203
 20
3122.178605741694
 30
0.0
 10
6492.196653930416
 20
3122.264535034668
 30
0.0
 10
6492.081730730923
 20
3122.329044570743
 30
0.0
 10
6491.955240055077
 20
3122.365903640393
 30
0.0
 10
6491.868104154784
 20
3122.370946444546
 30
0.0
 10
6491.823744236585
 20
3122.373513680083
 30
0.0
  0
SPLINE
  5
CE
330
1F
100
AcDbEntity
  8
0
  6
Continuous
 62
     7
370
    25
100
AcDbSpline
210
0.0
220
0.0
230
1.0
 70
     8
 71
     3
 72
    15
 73
    11
 74
     0
 42
0.000000001
 43
0.00000001
 40
0.0
 40
0.0
 40
0.0
 40
0.0
 40
0.1274086638640715
 40
0.2492093999587973
 40
0.372083904232525
 40
0.4997357737771647
 40
0.6273876433217747
 40
0.7507906000412308
 40
0.8725913361359304
 40
0.9999999999999999
 40
0.9999999999999999
 40
0.9999999999999999
 40
0.9999999999999999
 10
6491.823744236585
 20
3120.292432599002
 30
0.0
 10
6491.868508421209
 20
3120.294942282654
 30
0.0
 10
6491.956066482425
 20
3120.299851185533
 30
0.0
 10
6492.082562710621
 20
3120.337143748347
 30
0.0
 10
6492.198074646262
 20
3120.400078331108
 30
0.0
 10
6492.300416963779
 20
3120.485883225488
 30
0.0
 10
6492.385961401832
 20
3120.588493076527
 30
0.0
 10
6492.450527122481
 20
3120.703351677917
 30
0.0
 10
6492.48748716436
 20
3120.830233309654
 30
0.0
 10
6492.492449029802
 20
3120.917763102902
 30
0.0
 10
6492.494985790639
 20
3120.962512835488
 30
0.0
  0
SPLINE
  5
D0
330
1F
100
AcDbEntity
  8
0
  6
Continuous
 62
     7
370
    25
100
AcDbSpline
210
0.0
220
0.0
230
1.0
 70
     8
 71
     3
 72
    23
 73
    19
 74
     0
 42
0.000000001
 43
0.00000001
 40
0.0
 40
0.0
 40
0.0
 40
0.0
 40
0.0602270928970665
 40
0.1192957320091835
 40
0.1779404947570713
 40
0.2364844162257774
 40
0.2954167439820458
 40
0.3556629103136775
 40
0.4181241147893571
 40
0.4821809927853166
 40
0.5466999757700463
 40
0.6101828950384093
 40
0.6730761809147134
 40
0.7353821562772213
 40
0.7989787332068784
 40
0.8641683702521954
 40
0.9306148387332092
 40
1.0
 40
1.0
 40
1.0
 40
1.0
 10
6493.163904709558
 20
3120.943931754407
 30
0.0
 10
6493.162777578486
 20
3120.903232129367
 30
0.0
 10
6493.16054499644
 20
3120.822615726876
 30
0.0
 10
6493.143022278733
 20
3120.70330843931
 30
0.0
 10
6493.111975474393
 20
3120.588190844447
 30
0.0
 10
6493.072109244818
 20
3120.47582438748
 30
0.0
 10
6493.017509455257
 20
3120.368588084642
 30
0.0
 10
6492.952383323838
 20
3120.264348754538
 30
0.0
 10
6492.874092960763
 20
3120.165147522551
 30
0.0
 10
6492.786660711802
 20
3120.069966191029
 30
0.0
 10
6492.689390483477
 20
3119.983819567668
 30
0.0
 10
6492.586245250853
 20
3119.905993687535
 30
0.0
 10
6492.475305780014
 20
3119.842579028535
 30
0.0
 10
6492.359050557383
 20
3119.789777060521
 30
0.0
 10
6492.236834563837
 20
3119.747282106389
 30
0.0
 10
6492.107742282463
 20
3119.719165030508
 30
0.0
 10
6491.972915289981
 20
3119.700913795072
 30
0.0
 10
6491.881097976787
 20
3119.698877949678
 30
0.0
 10
6491.834196094694
 20
3119.697838004407
 30
0.0
  0
SPLINE
  5
D2
330
1F
100
AcDbEntity
  8
0
  6
Continuous
 62
     7
370
    25
100
AcDbSpline
210
0.0
220
0.0
230
1.0
 70
     8
 71
     3
 72
    15
 73
    11
 74
     0
 42
0.000000001
 43
0.00000001
 40
0.0
 40
0.0
 40
0.0
 40
0.0
 40
0.1472985846902899
 40
0.2756504930887403
 40
0.3928141444239688
 40
0.5033990299457405
 40
0.6118667949946106
 40
0.729030446329881
 40
0.8553653506994968
 40
1.0
 40
1.0
 40
1.0
 40
1.0
 10
6490.461518729828
 20
3119.697838004407
 30
0.0
 10
6490.440186887678
 20
3119.698833372449
 30
0.0
 10
6490.400267068897
 20
3119.700696076643
 30
0.0
 10
6490.34399370025
 20
3119.711630670443
 30
0.0
 10
6490.296553719368
 20
3119.732976291292
 30
0.0
 10
6490.256974612379
 20
3119.762219711258
 30
0.0
 10
6490.226807257253
 20
3119.801275274744
 30
0.0
 10
6490.206483653163
 20
3119.84843867024
 30
0.0
 10
6490.19328539246
 20
3119.903465654683
 30
0.0
 10
6490.191750833671
 20
3119.942789793472
 30
0.0
 10
6490.190931736585
 20
3119.96377972738
 30
0.0
  0
SPLINE
  5
D4
330
1F
100
AcDbEntity
  8
0
  6
Continuous
 62
     7
370
    25
100
AcDbSpline
210
0.0
220
0.0
230
1.0
 70
     8
 71
     3
 72
    15
 73
    11
 74
     0
 42
0.000000001
 43
0.00000001
 40
0.0
 40
0.0
 40
0.0
 40
0.0
 40
0.1376465333874907
 40
0.2584939900653843
 40
0.3721777144533592
 40
0.4802669656692625
 40
0.5916828156085154
 40
0.7125302722863763
 40
0.8471387149837168
 40
1.0
 40
1.0
 40
1.0
 40
1.0
 10
6490.190931736585
 20
3124.931896281435
 30
0.0
 10
6490.191656974592
 20
3124.95290332364
 30
0.0
 10
6490.193018938903
 20
3124.992353602739
 30
0.0
 10
6490.207519643683
 20
3125.047579832868
 30
0.0
 10
6490.230299910704
 20
3125.095037397481
 30
0.0
 10
6490.264272721283
 20
3125.133575388803
 30
0.0
 10
6490.307432912204
 20
3125.163045040216
 30
0.0
 10
6490.359630137266
 20
3125.184153548353
 30
0.0
 10
6490.421218046452
 20
3125.194917436744
 30
0.0
 10
6490.464966112687
 20
3125.196824126863
 30
0.0
 10
6490.488229033883
 20
3125.197838004407
 30
0.0
  0
SPLINE
  5
D7
330
1F
100
AcDbEntity
  8
0
  6
Continuous
 62
     7
370
    25
100
AcDbSpline
210
0.0
220
0.0
230
1.0
 70
     8
 71
     3
 72
    23
 73
    19
 74
     0
 42
0.000000001
 43
0.00000001
 40
0.0
 40
0.0
 40
0.0
 40
0.0
 40
0.0685531417639153
 40
0.1347179803294513
 40
0.1991962546843881
 40
0.2623387307751819
 40
0.325176336918606
 40
0.3873915998287825
 40
0.4512397782103598
 40
0.5161347178016022
 40
0.581065988389183
 40
0.6431755650826971
 40
0.7039028057300993
 40
0.7628279826377614
 40
0.8215928497892396
 40
0.8802974879192987
 40
0.9395647256157743
 40
1.0
 40
1.0
 40
1.0
 40
1.0
 10
6491.860906398746
 20
3122.968108274678
 30
0.0
 10
6491.906632906647
 20
3122.966998101588
 30
0.0
 10
6491.996492869785
 20
3122.964816432409
 30
0.0
 10
6492.128538751633
 20
3122.947451710872
 30
0.0
 10
6492.254187358256
 20
3122.91654780994
 30
0.0
 10
6492.374986772166
 20
3122.876544678892
 30
0.0
 10
6492.488574498409
 20
3122.822512587955
 30
0.0
 10
6492.597010978013
 20
3122.758029925636
 30
0.0
 10
6492.699075111562
 20
3122.681408784615
 30
0.0
 10
6492.793657301824
 20
3122.593133075178
 30
0.0
 10
6492.879364283479
 20
3122.497908971767
 30
0.0
 10
6492.95618094374
 20
3122.398771941229
 30
0.0
 10
6493.019665676243
 20
3122.295269847918
 30
0.0
 10
6493.072980104216
 20
3122.188688647551
 30
0.0
 10
6493.11356066497
 20
3122.077994359281
 30
0.0
 10
6493.142622224472
 20
3121.963605310986
 30
0.0
 10
6493.160651758542
 20
3121.845686957683
 30
0.0
 10
6493.162813361701
 20
3121.765821076694
 30
0.0
 10
6493.163904709558
 20
3121.72549847738
 30
0.0
  0
SPLINE
  5
D9
330
1F
100
AcDbEntity
  8
0
  6
Continuous
 62
     7
370
    25
100
AcDbSpline
210
0.0
220
0.0
230
1.0
 70
     8
 71
     3
 72
    15
 73
    11
 74
     0
 42
0.000000001
 43
0.00000001
 40
0.0
 40
0.0
 40
0.0
 40
0.0
 40
0.1691382693020596
 40
0.3176902073342315
 40
0.4474110356377658
 40
0.5634106106293705
 40
0.6687664326274129
 40
0.773153890127096
 40
0.8800408488353514
 40
1.0
 40
1.0
 40
1.0
 40
1.0
 10
6490.488229033883
 20
3125.197838004407
 30
0.0
 10
6490.51733823941
 20
3125.197526109408
 30
0.0
 10
6490.572013680858
 20
3125.196940281096
 30
0.0
 10
6490.647877675784
 20
3125.18345413379
 30
0.0
 10
6490.713452487566
 20
3125.165071851555
 30
0.0
 10
6490.766467167757
 20
3125.135400376329
 30
0.0
 10
6490.809605461776
 20
3125.098778600482
 30
0.0
 10
6490.838719231478
 20
3125.052014796238
 30
0.0
 10
6490.857197685159
 20
3124.997494269736
 30
0.0
 10
6490.858932999095
 20
3124.958384578728
 30
0.0
 10
6490.859850655504
 20
3124.937702869272
 30
0.0
  0
CIRCLE
  5
DB
330
1F
100
AcDbEntity
  8
0
  6
Continuous
 62
     7
370
    25
100
AcDbCircle
 10
6478.7795378085
 20
3115.736426782
 30
0.0
 40
1.499999999999545
  0
CIRCLE
  5
DC
330
1F
100
AcDbEntity
  8
0
  6
Continuous
 62
     7
370
    25
100
AcDbCircle
 10
6478.7795378085
 20
3115.736426782
 30
0.0
 40
0.7499999999990905
  0
SPLINE
  5
DE
330
1F
100
AcDbEntity
  8
0
  6
Continuous
 62
     7
370
    25
100
AcDbSpline
210
0.0
220
0.0
230
1.0
 70
     8
 71
     3
 72
    15
 73
    11
 74
     0
 42
0.000000001
 43
0.00000001
 40
0.0
 40
0.0
 40
0.0
 40
0.0
 40
0.1208158510018651
 40
0.2307257204520272
 40
0.3358108859966912
 40
0.4414612828648238
 40
0.5572426563437379
 40
0.6861667178992742
 40
0.8326774575844312
 40
1.0
 40
1.0
 40
1.0
 40
1.0
 10
6495.215256060909
 20
3119.966102362516
 30
0.0
 10
6495.214279973344
 20
3119.945054205299
 30
0.0
 10
6495.21241590911
 20
3119.904857896637
 30
0.0
 10
6495.194424274487
 20
3119.848654123478
 30
0.0
 10
6495.165055363887
 20
3119.800482115865
 30
0.0
 10
6495.121998891058
 20
3119.762578782764
 30
0.0
 10
6495.068958571171
 20
3119.731913858112
 30
0.0
 10
6495.003613120952
 20
3119.711498321979
 30
0.0
 10
6494.92722461043
 20
3119.700721950071
 30
0.0
 10
6494.87270302631
 20
3119.698840900135
 30
0.0
 10
6494.843634439289
 20
3119.697838004407
 30
0.0
  0
SPLINE
  5
DF
330
1F
100
AcDbEntity
  8
0
  6
Continuous
 62
     7
370
    25
100
AcDbSpline
210
0.0
220
0.0
230
1.0
 70
     8
 71
     3
 72
    15
 73
    11
 74
     0
 42
0.000000001
 43
0.00000001
 40
0.0
 40
0.0
 40
0.0
 40
0.0
 40
0.1528612850162831
 40
0.2874697277136235
 40
0.4083171843914844
 40
0.5197330343307374
 40
0.6278222855466407
 40
0.7415060099346156
 40
0.8623534666125092
 40
1.0
 40
1.0
 40
1.0
 40
1.0
 10
6494.843634439289
 20
3119.697838004407
 30
0.0
 10
6494.820371518093
 20
3119.698851881952
 30
0.0
 10
6494.776623451857
 20
3119.700758572071
 30
0.0
 10
6494.715035542672
 20
3119.711522460462
 30
0.0
 10
6494.662838317609
 20
3119.732630968599
 30
0.0
 10
6494.619678126689
 20
3119.762100620012
 30
0.0
 10
6494.585705316109
 20
3119.800638611334
 30
0.0
 10
6494.562925049088
 20
3119.848096175946
 30
0.0
 10
6494.548424344309
 20
3119.903322406076
 30
0.0
 10
6494.547062379997
 20
3119.942772685175
 30
0.0
 10
6494.54633714199
 20
3119.96377972738
 30
0.0
  0
SPLINE
  5
E0
330
1F
100
AcDbEntity
  8
0
  6
Continuous
 62
     7
370
    25
100
AcDbSpline
210
0.0
220
0.0
230
1.0
 70
     8
 71
     3
 72
    15
 73
    11
 74
     0
 42
0.000000001
 43
0.00000001
 40
0.0
 40
0.0
 40
0.0
 40
0.0
 40
0.1540252339659323
 40
0.2977651209541468
 40
0.4351151610673643
 40
0.5718982006583714
 40
0.7010171099184229
 40
0.8114907083374765
 40
0.9104177519505879
 40
1.0
 40
1.0
 40
1.0
 40
1.0
 10
6497.181366702801
 20
3125.272162328732
 30
0.0
 10
6497.206231859881
 20
3125.271095283545
 30
0.0
 10
6497.254301752811
 20
3125.269032447276
 30
0.0
 10
6497.323064024099
 20
3125.251788987775
 30
0.0
 10
6497.383266436998
 20
3125.220448910923
 30
0.0
 10
6497.435072069629
 20
3125.18045083908
 30
0.0
 10
6497.475279623284
 20
3125.134586638127
 30
0.0
 10
6497.506918183514
 20
3125.090067876155
 30
0.0
 10
6497.527363132433
 20
3125.045431201334
 30
0.0
 10
6497.529776448934
 20
3125.014915503637
 30
0.0
 10
6497.530923290639
 20
3125.000414017921
 30
0.0
  0
SPLINE
  5
E1
330
1F
100
AcDbEntity
  8
0
  6
Continuous
 62
     7
370
    25
100
AcDbSpline
210
0.0
220
0.0
230
1.0
 70
     8
 71
     3
 72
     9
 73
     5
 74
     0
 42
0.000000001
 43
0.00000001
 40
0.0
 40
0.0
 40
0.0
 40
0.0
 40
0.468479273168006
 40
1.0
 40
1.0
 40
1.0
 40
1.0
 10
6497.530923290639
 20
3125.000414017921
 30
0.0
 10
6497.528305084659
 20
3124.977735969285
 30
0.0
 10
6497.522716350793
 20
3124.929328174246
 30
0.0
 10
6497.494710831589
 20
3124.889299751546
 30
0.0
 10
6497.479825317666
 20
3124.868023815218
 30
0.0
  0
SPLINE
  5
E4
330
1F
100
AcDbEntity
  8
0
  6
Continuous
 62
     7
370
    25
100
AcDbSpline
210
0.0
220
0.0
230
1.0
 70
     8
 71
     3
 72
     9
 73
     5
 74
     0
 42
0.000000001
 43
0.00000001
 40
0.0
 40
0.0
 40
0.0
 40
0.0
 40
0.5715244711948542
 40
1.0
 40
1.0
 40
1.0
 40
1.0
 10
6497.493761128476
 20
3120.076427531435
 30
0.0
 10
6497.503180516465
 20
3120.054696958008
 30
0.0
 10
6497.519661679501
 20
3120.016674835559
 30
0.0
 10
6497.524293429037
 20
3119.975580889718
 30
0.0
 10
6497.526278020368
 20
3119.957973139542
 30
0.0
  0
SPLINE
  5
E6
330
1F
100
AcDbEntity
  8
0
  6
Continuous
 62
     7
370
    25
100
AcDbSpline
210
0.0
220
0.0
230
1.0
 70
     8
 71
     3
 72
    15
 73
    11
 74
     0
 42
0.000000001
 43
0.00000001
 40
0.0
 40
0.0
 40
0.0
 40
0.0
 40
0.1376465333874907
 40
0.2584939900653843
 40
0.3721777144533592
 40
0.4802669656692625
 40
0.5916828156085154
 40
0.7125302722863763
 40
0.8471387149837168
 40
1.0
 40
1.0
 40
1.0
 40
1.0
 10
6494.54633714199
 20
3124.931896281435
 30
0.0
 10
6494.547062379997
 20
3124.95290332364
 30
0.0
 10
6494.548424344309
 20
3124.992353602739
 30
0.0
 10
6494.562925049088
 20
3125.047579832868
 30
0.0
 10
6494.585705316109
 20
3125.095037397481
 30
0.0
 10
6494.619678126689
 20
3125.133575388803
 30
0.0
 10
6494.662838317609
 20
3125.163045040216
 30
0.0
 10
6494.715035542672
 20
3125.184153548353
 30
0.0
 10
6494.776623451857
 20
3125.194917436744
 30
0.0
 10
6494.820371518093
 20
3125.196824126863
 30
0.0
 10
6494.843634439289
 20
3125.197838004407
 30
0.0
  0
SPLINE
  5
E7
330
1F
100
AcDbEntity
  8
0
  6
Continuous
 62
     7
370
    25
100
AcDbSpline
210
0.0
220
0.0
230
1.0
 70
     8
 71
     3
 72
    15
 73
    11
 74
     0
 42
0.000000001
 43
0.00000001
 40
0.0
 40
0.0
 40
0.0
 40
0.0
 40
0.168737282695571
 40
0.3164867953630958
 40
0.4465009315751068
 40
0.5610794434177593
 40
0.6676231321872377
 40
0.7716984773789415
 40
0.880399519584021
 40
1.0
 40
1.0
 40
1.0
 40
1.0
 10
6494.843634439289
 20
3125.197838004407
 30
0.0
 10
6494.872688822304
 20
3125.196810162485
 30
0.0
 10
6494.927183765123
 20
3125.194882323002
 30
0.0
 10
6495.003746179086
 20
3125.184411373993
 30
0.0
 10
6495.068184331963
 20
3125.163149950863
 30
0.0
 10
6495.122663513143
 20
3125.135800897291
 30
0.0
 10
6495.164576450578
 20
3125.097485999236
 30
0.0
 10
6495.194487856693
 20
3125.050661776428
 30
0.0
 10
6495.212401727847
 20
3124.995462955394
 30
0.0
 10
6495.21427480871
 20
3124.956035252689
 30
0.0
 10
6495.215256060909
 20
3124.935380234137
 30
0.0
  0
SPLINE
  5
EA
330
1F
100
AcDbEntity
  8
0
  6
Continuous
 62
     7
370
    25
100
AcDbSpline
210
0.0
220
0.0
230
1.0
 70
     8
 71
     3
 72
    11
 73
     7
 74
     0
 42
0.000000001
 43
0.00000001
 40
0.0
 40
0.0
 40
0.0
 40
0.0
 40
0.2608513162073721
 40
0.5078905859945212
 40
0.7467957379979842
 40
1.0
 40
1.0
 40
1.0
 40
1.0
 10
6496.970006905504
 20
3125.159514524677
 30
0.0
 10
6496.983614587608
 20
3125.17647684292
 30
0.0
 10
6497.010109426656
 20
3125.209503326657
 30
0.0
 10
6497.061027769383
 20
3125.246294373955
 30
0.0
 10
6497.119252120644
 20
3125.268557516222
 30
0.0
 10
6497.160264611908
 20
3125.270937671355
 30
0.0
 10
6497.181366702801
 20
3125.272162328732
 30
0.0
  0
SPLINE
  5
EB
330
1F
100
AcDbEntity
  8
0
  6
Continuous
 62
     7
370
    25
100
AcDbSpline
210
0.0
220
0.0
230
1.0
 70
     8
 71
     3
 72
    11
 73
     7
 74
     0
 42
0.000000001
 43
0.00000001
 40
0.0
 40
0.0
 40
0.0
 40
0.0
 40
0.2028584217292994
 40
0.4177658904101916
 40
0.6762772160276294
 40
1.0
 40
1.0
 40
1.0
 40
1.0
 10
6497.177882750098
 20
3119.697838004407
 30
0.0
 10
6497.152311640794
 20
3119.70112036288
 30
0.0
 10
6497.099650591988
 20
3119.707880039893
 30
0.0
 10
6497.030804848857
 20
3119.762839780781
 30
0.0
 10
6496.976463173702
 20
3119.84734922971
 30
0.0
 10
6496.952162520305
 20
3119.91620519624
 30
0.0
 10
6496.938651331179
 20
3119.95448918684
 30
0.0
  0
SPLINE
  5
EE
330
1F
100
AcDbEntity
  8
0
  6
Continuous
 62
     7
370
    25
100
AcDbSpline
210
0.0
220
0.0
230
1.0
 70
     8
 71
     3
 72
    15
 73
    11
 74
     0
 42
0.000000001
 43
0.00000001
 40
0.0
 40
0.0
 40
0.0
 40
0.0
 40
0.1226177230356299
 40
0.2354791129025956
 40
0.3397384650544149
 40
0.4476334423268576
 40
0.5611761921817192
 40
0.6903366021261714
 40
0.8354274431761931
 40
1.0
 40
1.0
 40
1.0
 40
1.0
 10
6497.526278020368
 20
3119.957973139542
 30
0.0
 10
6497.52515826739
 20
3119.937735713356
 30
0.0
 10
6497.523007856896
 20
3119.898871093724
 30
0.0
 10
6497.506883185396
 20
3119.844521746178
 30
0.0
 10
6497.478926051641
 20
3119.798169519256
 30
0.0
 10
6497.439874355808
 20
3119.760275905028
 30
0.0
 10
6497.388684937641
 20
3119.732414855545
 30
0.0
 10
6497.327966560502
 20
3119.711411544309
 30
0.0
 10
6497.256044408886
 20
3119.700789138231
 30
0.0
 10
6497.205006935653
 20
3119.698862126754
 30
0.0
 10
6497.177882750098
 20
3119.697838004407
 30
0.0
  0
SPLINE
  5
14A
330
1F
100
AcDbEntity
  8
0
  6
Continuous
 62
     7
370
    25
100
AcDbSpline
210
0.0
220
0.0
230
1.0
 70
     8
 71
     3
 72
     8
 73
     4
 74
     0
 42
0.000000001
 43
0.00000001
 40
0.0127118644067797
 40
0.0127118644067797
 40
0.0127118644067797
 40
0.0127118644067797
 40
0.0169491525423729
 40
0.0169491525423729
 40
0.0169491525423729
 40
0.0169491525423729
 10
6441.236230509521
 20
3145.012038076781
 30
0.0
 10
6441.690382509521
 20
3145.358663410114
 30
0.0
 10
6441.950139842855
 20
3145.553354410114
 30
0.0
 10
6442.01550250952
 20
3145.596111076781
 30
0.0
  0
SPLINE
  5
14B
330
1F
100
AcDbEntity
  8
0
  6
Continuous
 62
     7
370
    25
100
AcDbSpline
210
0.0
220
0.0
230
1.0
 70
     8
 71
     3
 72
     8
 73
     4
 74
     0
 42
0.000000001
 43
0.00000001
 40
0.0169491525423729
 40
0.0169491525423729
 40
0.0169491525423729
 40
0.0169491525423729
 40
0.0211864406779661
 40
0.0211864406779661
 40
0.0211864406779661
 40
0.0211864406779661
 10
6442.01550250952
 20
3145.596111076781
 30
0.0
 10
6442.080526509521
 20
3145.661558410115
 30
0.0
 10
6441.734155176187
 20
3146.321492743448
 30
0.0
 10
6440.976388509522
 20
3147.575914076781
 30
0.0
  0
SPLINE
  5
1AA
330
1F
100
AcDbEntity
  8
0
  6
Continuous
 62
     7
370
    25
100
AcDbSpline
210
0.0
220
0.0
230
1.0
 70
     8
 71
     3
 72
     8
 73
     4
 74
     0
 42
0.000000001
 43
0.00000001
 40
0.4194915254237288
 40
0.4194915254237288
 40
0.4194915254237288
 40
0.4194915254237288
 40
0.423728813559322
 40
0.423728813559322
 40
0.423728813559322
 40
0.423728813559322
 10
6502.010175509521
 20
3130.507368076781
 30
0.0
 10
6503.090522176187
 20
3128.626582743448
 30
0.0
 10
6503.804262176186
 20
3127.653805076781
 30
0.0
 10
6504.151395509521
 20
3127.589035076781
 30
0.0
  0
SPLINE
  5
1AB
330
1F
100
AcDbEntity
  8
0
  6
Continuous
 62
     7
370
    25
100
AcDbSpline
210
0.0
220
0.0
230
1.0
 70
     8
 71
     3
 72
     8
 73
     4
 74
     0
 42
0.000000001
 43
0.00000001
 40
0.423728813559322
 40
0.423728813559322
 40
0.423728813559322
 40
0.423728813559322
 40
0.4279661016949153
 40
0.4279661016949153
 40
0.4279661016949153
 40
0.4279661016949153
 10
6504.151395509521
 20
3127.589035076781
 30
0.0
 10
6504.474822176187
 20
3127.545008410114
 30
0.0
 10
6504.950394842855
 20
3127.317720743447
 30
0.0
 10
6505.57811350952
 20
3126.907172076782
 30
0.0
  0
SPLINE
  5
1CD
330
1F
100
AcDbEntity
  8
0
  6
Continuous
 62
     7
370
    25
100
AcDbSpline
210
0.0
220
0.0
230
1.0
 70
     8
 71
     3
 72
     8
 73
     4
 74
     0
 42
0.000000001
 43
0.00000001
 40
0.5677966101694916
 40
0.5677966101694916
 40
0.5677966101694916
 40
0.5677966101694916
 40
0.5720338983050848
 40
0.5720338983050848
 40
0.5720338983050848
 40
0.5720338983050848
 10
6496.36426350952
 20
3075.575677076781
 30
0.0
 10
6495.97310350952
 20
3074.991096076781
 30
0.0
 10
6494.124618509521
 20
3072.005453076781
 30
0.0
 10
6492.858809509521
 20
3071.747389076781
 30
0.0
  0
SPLINE
  5
1CE
330
1F
100
AcDbEntity
  8
0
  6
Continuous
 62
     7
370
    25
100
AcDbSpline
210
0.0
220
0.0
230
1.0
 70
     8
 71
     3
 72
     8
 73
     4
 74
     0
 42
0.000000001
 43
0.00000001
 40
0.5720338983050848
 40
0.5720338983050848
 40
0.5720338983050848
 40
0.5720338983050848
 40
0.576271186440678
 40
0.576271186440678
 40
0.576271186440678
 40
0.576271186440678
 10
6492.858809509521
 20
3071.747389076781
 30
0.0
 10
6492.405927509521
 20
3071.617468076781
 30
0.0
 10
6493.345727509521
 20
3072.623689076781
 30
0.0
 10
6493.378112509522
 20
3073.110734076781
 30
0.0
  0
SPLINE
  5
1CF
330
1F
100
AcDbEntity
  8
0
  6
Continuous
 62
     7
370
    25
100
AcDbSpline
210
0.0
220
0.0
230
1.0
 70
     8
 71
     3
 72
     8
 73
     4
 74
     0
 42
0.000000001
 43
0.00000001
 40
0.576271186440678
 40
0.576271186440678
 40
0.576271186440678
 40
0.576271186440678
 40
0.5805084745762712
 40
0.5805084745762712
 40
0.5805084745762712
 40
0.5805084745762712
 10
6493.378112509522
 20
3073.110734076781
 30
0.0
 10
6493.540926509521
 20
3076.192643076781
 30
0.0
 10
6491.333539509521
 20
3074.960108076781
 30
0.0
 10
6489.452669509522
 20
3074.634988076781
 30
0.0
  0
SPLINE
  5
1D0
330
1F
100
AcDbEntity
  8
0
  6
Continuous
 62
     7
370
    25
100
AcDbSpline
210
0.0
220
0.0
230
1.0
 70
     8
 71
     3
 72
     8
 73
     4
 74
     0
 42
0.000000001
 43
0.00000001
 40
0.5805084745762712
 40
0.5805084745762712
 40
0.5805084745762712
 40
0.5805084745762712
 40
0.5847457627118644
 40
0.5847457627118644
 40
0.5847457627118644
 40
0.5847457627118644
 10
6489.452669509522
 20
3074.634988076781
 30
0.0
 10
6487.96029250952
 20
3074.376035076782
 30
0.0
 10
6486.435022509521
 20
3074.733032076781
 30
0.0
 10
6485.006907509521
 20
3074.472301076781
 30
0.0
  0
SPLINE
  5
1D1
330
1F
100
AcDbEntity
  8
0
  6
Continuous
 62
     7
370
    25
100
AcDbSpline
210
0.0
220
0.0
230
1.0
 70
     8
 71
     3
 72
     8
 73
     4
 74
     0
 42
0.000000001
 43
0.00000001
 40
0.5847457627118644
 40
0.5847457627118644
 40
0.5847457627118644
 40
0.5847457627118644
 40
0.5889830508474576
 40
0.5889830508474576
 40
0.5889830508474576
 40
0.5889830508474576
 10
6485.006907509521
 20
3074.472301076781
 30
0.0
 10
6484.294564509521
 20
3074.342761076781
 30
0.0
 10
6483.676836509521
 20
3073.825617076781
 30
0.0
 10
6482.961953509521
 20
3073.597144076781
 30
0.0
  0
SPLINE
  5
1D2
330
1F
100
AcDbEntity
  8
0
  6
Continuous
 62
     7
370
    25
100
AcDbSpline
210
0.0
220
0.0
230
1.0
 70
     8
 71
     3
 72
     8
 73
     4
 74
     0
 42
0.000000001
 43
0.00000001
 40
0.5889830508474576
 40
0.5889830508474576
 40
0.5889830508474576
 40
0.5889830508474576
 40
0.5932203389830508
 40
0.5932203389830508
 40
0.5932203389830508
 40
0.5932203389830508
 10
6482.961953509521
 20
3073.597144076781
 30
0.0
 10
6481.925379509521
 20
3073.273040076781
 30
0.0
 10
6480.853880509521
 20
3072.915916076781
 30
0.0
 10
6479.717230509521
 20
3072.753610076781
 30
0.0
  0
SPLINE
  5
1D3
330
1F
100
AcDbEntity
  8
0
  6
Continuous
 62
     7
370
    25
100
AcDbSpline
210
0.0
220
0.0
230
1.0
 70
     8
 71
     3
 72
     8
 73
     4
 74
     0
 42
0.000000001
 43
0.00000001
 40
0.5932203389830508
 40
0.5932203389830508
 40
0.5932203389830508
 40
0.5932203389830508
 40
0.597457627118644
 40
0.597457627118644
 40
0.597457627118644
 40
0.597457627118644
 10
6479.717230509521
 20
3072.753610076781
 30
0.0
 10
6478.485584509521
 20
3072.591304076781
 30
0.0
 10
6476.766512509521
 20
3073.531104076782
 30
0.0
 10
6475.629862509521
 20
3073.110734076781
 30
0.0
  0
SPLINE
  5
1D4
330
1F
100
AcDbEntity
  8
0
  6
Continuous
 62
     7
370
    25
100
AcDbSpline
210
0.0
220
0.0
230
1.0
 70
     8
 71
     3
 72
     8
 73
     4
 74
     0
 42
0.000000001
 43
0.00000001
 40
0.597457627118644
 40
0.597457627118644
 40
0.597457627118644
 40
0.597457627118644
 40
0.6016949152542372
 40
0.6016949152542372
 40
0.6016949152542372
 40
0.6016949152542372
 10
6475.629862509521
 20
3073.110734076781
 30
0.0
 10
6474.88259450952
 20
3072.818888076781
 30
0.0
 10
6474.429204509521
 20
3072.005453076781
 30
0.0
 10
6473.94317550952
 20
3071.389884076782
 30
0.0
  0
SPLINE
  5
1D5
330
1F
100
AcDbEntity
  8
0
  6
Continuous
 62
     7
370
    25
100
AcDbSpline
210
0.0
220
0.0
230
1.0
 70
     8
 71
     3
 72
     8
 73
     4
 74
     0
 42
0.000000001
 43
0.00000001
 40
0.6016949152542372
 40
0.6016949152542372
 40
0.6016949152542372
 40
0.6016949152542372
 40
0.6059322033898306
 40
0.6059322033898306
 40
0.6059322033898306
 40
0.6059322033898306
 10
6473.94317550952
 20
3071.389884076782
 30
0.0
 10
6472.841069509521
 20
3070.092579076781
 30
0.0
 10
6471.767792509521
 20
3068.730631076781
 30
0.0
 10
6470.860377509521
 20
3067.301246076781
 30
0.0
  0
SPLINE
  5
1D6
330
1F
100
AcDbEntity
  8
0
  6
Continuous
 62
     7
370
    25
100
AcDbSpline
210
0.0
220
0.0
230
1.0
 70
     8
 71
     3
 72
     8
 73
     4
 74
     0
 42
0.000000001
 43
0.00000001
 40
0.6059322033898306
 40
0.6059322033898306
 40
0.6059322033898306
 40
0.6059322033898306
 40
0.6101694915254238
 40
0.6101694915254238
 40
0.6101694915254238
 40
0.6101694915254238
 10
6470.860377509521
 20
3067.301246076781
 30
0.0
 10
6469.724489509521
 20
3065.550678076781
 30
0.0
 10
6469.30361150952
 20
3063.279410076781
 30
0.0
 10
6467.77757950952
 20
3061.851295076782
 30
0.0
  0
SPLINE
  5
1D7
330
1F
100
AcDbEntity
  8
0
  6
Continuous
 62
     7
370
    25
100
AcDbSpline
210
0.0
220
0.0
230
1.0
 70
     8
 71
     3
 72
     8
 73
     4
 74
     0
 42
0.000000001
 43
0.00000001
 40
0.6101694915254238
 40
0.6101694915254238
 40
0.6101694915254238
 40
0.6101694915254238
 40
0.614406779661017
 40
0.614406779661017
 40
0.614406779661017
 40
0.614406779661017
 10
6467.77757950952
 20
3061.851295076782
 30
0.0
 10
6467.193887509521
 20
3061.299226076781
 30
0.0
 10
6467.811615509522
 20
3063.441716076781
 30
0.0
 10
6467.616162509521
 20
3064.219718076781
 30
0.0
  0
SPLINE
  5
1D8
330
1F
100
AcDbEntity
  8
0
  6
Continuous
 62
     7
370
    25
100
AcDbSpline
210
0.0
220
0.0
230
1.0
 70
     8
 71
     3
 72
     8
 73
     4
 74
     0
 42
0.000000001
 43
0.00000001
 40
0.614406779661017
 40
0.614406779661017
 40
0.614406779661017
 40
0.614406779661017
 40
0.6186440677966102
 40
0.6186440677966102
 40
0.6186440677966102
 40
0.6186440677966102
 10
6467.616162509521
 20
3064.219718076781
 30
0.0
 10
6466.83727150952
 20
3067.367286076781
 30
0.0
 10
6463.00847550952
 20
3063.570367076781
 30
0.0
 10
6461.808833509522
 20
3062.856754076781
 30
0.0
  0
SPLINE
  5
1D9
330
1F
100
AcDbEntity
  8
0
  6
Continuous
 62
     7
370
    25
100
AcDbSpline
210
0.0
220
0.0
230
1.0
 70
     8
 71
     3
 72
     8
 73
     4
 74
     0
 42
0.000000001
 43
0.00000001
 40
0.6186440677966102
 40
0.6186440677966102
 40
0.6186440677966102
 40
0.6186440677966102
 40
0.6228813559322034
 40
0.6228813559322034
 40
0.6228813559322034
 40
0.6228813559322034
 10
6461.808833509522
 20
3062.856754076781
 30
0.0
 10
6461.69885150952
 20
3062.792915410114
 30
0.0
 10
6460.984645842854
 20
3062.414328410114
 30
0.0
 10
6459.666216509521
 20
3061.720993076781
 30
0.0
  0
LINE
  5
1DA
330
1F
100
AcDbEntity
  8
0
  6
Continuous
 62
     7
370
    25
100
AcDbLine
 10
6479.3544452501
 20
3122.9681082747
 30
0.0
 11
6479.3544452501
 21
3124.9377028693
 31
0.0
  0
LINE
  5
1DB
330
1F
100
AcDbEntity
  8
0
  6
Continuous
 62
     7
370
    25
100
AcDbLine
 10
6480.023364169
 20
3124.9318962814
 30
0.0
 11
6480.023364169
 21
3119.9637797274
 31
0.0
  0
LINE
  5
1DC
330
1F
100
AcDbEntity
  8
0
  6
Continuous
 62
     7
370
    25
100
AcDbLine
 10
6479.3544452501
 20
3119.9637797274
 30
0.0
 11
6479.3544452501
 21
3122.3735136801
 31
0.0
  0
LINE
  5
1DD
330
1F
100
AcDbEntity
  8
0
  6
Continuous
 62
     7
370
    25
100
AcDbLine
 10
6479.3544452501
 20
3122.3735136801
 30
0.0
 11
6477.719310115
 21
3122.3735136801
 31
0.0
  0
LINE
  5
1DE
330
1F
100
AcDbEntity
  8
0
  6
Continuous
 62
     7
370
    25
100
AcDbLine
 10
6477.719310115
 20
3122.3735136801
 30
0.0
 11
6477.719310115
 21
3119.9637797274
 31
0.0
  0
LINE
  5
1DF
330
1F
100
AcDbEntity
  8
0
  6
Continuous
 62
     7
370
    25
100
AcDbLine
 10
6477.050391196
 20
3119.9637797274
 30
0.0
 11
6477.050391196
 21
3124.9318962814
 31
0.0
  0
LINE
  5
1E0
330
1F
100
AcDbEntity
  8
0
  6
Continuous
 62
     7
370
    25
100
AcDbLine
 10
6477.719310115
 20
3124.9377028693
 30
0.0
 11
6477.719310115
 21
3122.9681082747
 31
0.0
  0
LINE
  5
1E1
330
1F
100
AcDbEntity
  8
0
  6
Continuous
 62
     7
370
    25
100
AcDbLine
 10
6477.719310115
 20
3122.9681082747
 30
0.0
 11
6479.3544452501
 21
3122.9681082747
 31
0.0
  0
LINE
  5
1E2
330
1F
100
AcDbEntity
  8
0
  6
Continuous
 62
     7
370
    25
100
AcDbLine
 10
6482.0747155204
 20
3122.3735136801
 30
0.0
 11
6482.0747155204
 21
3120.292432599
 31
0.0
  0
LINE
  5
1E3
330
1F
100
AcDbEntity
  8
0
  6
Continuous
 62
     7
370
    25
100
AcDbLine
 10
6482.0747155204
 20
3120.292432599
 30
0.0
 11
6483.6564300474
 21
3120.292432599
 31
0.0
  0
LINE
  5
1E4
330
1F
100
AcDbEntity
  8
0
  6
Continuous
 62
     7
370
    25
100
AcDbLine
 10
6483.6564300474
 20
3119.6978380044
 30
0.0
 11
6481.7030938987
 21
3119.6978380044
 31
0.0
  0
LINE
  5
1E5
330
1F
100
AcDbEntity
  8
0
  6
Continuous
 62
     7
370
    25
100
AcDbLine
 10
6481.4057966014
 20
3119.9637797274
 30
0.0
 11
6481.4057966014
 21
3124.9318962814
 31
0.0
  0
LINE
  5
1E6
330
1F
100
AcDbEntity
  8
0
  6
Continuous
 62
     7
370
    25
100
AcDbLine
 10
6481.7030938987
 20
3125.1978380044
 30
0.0
 11
6483.6564300474
 21
3125.1978380044
 31
0.0
  0
LINE
  5
1E7
330
1F
100
AcDbEntity
  8
0
  6
Continuous
 62
     7
370
    25
100
AcDbLine
 10
6483.6564300474
 20
3124.6032434098
 30
0.0
 11
6482.0747155204
 21
3124.6032434098
 31
0.0
  0
LINE
  5
1E8
330
1F
100
AcDbEntity
  8
0
  6
Continuous
 62
     7
370
    25
100
AcDbLine
 10
6482.0747155204
 20
3124.6032434098
 30
0.0
 11
6482.0747155204
 21
3122.9681082747
 31
0.0
  0
LINE
  5
1E9
330
1F
100
AcDbEntity
  8
0
  6
Continuous
 62
     7
370
    25
100
AcDbLine
 10
6482.0747155204
 20
3122.9681082747
 30
0.0
 11
6482.8876378177
 21
3122.9681082747
 31
0.0
  0
LINE
  5
1EA
330
1F
100
AcDbEntity
  8
0
  6
Continuous
 62
     7
370
    25
100
AcDbLine
 10
6482.8876378177
 20
3122.3735136801
 30
0.0
 11
6482.0747155204
 21
3122.3735136801
 31
0.0
  0
LINE
  5
1EB
330
1F
100
AcDbEntity
  8
0
  6
Continuous
 62
     7
370
    25
100
AcDbLine
 10
6470.1976884933
 20
3124.6775677341
 30
0.0
 11
6469.2396015001
 21
3124.6775677341
 31
0.0
  0
LINE
  5
1EC
330
1F
100
AcDbEntity
  8
0
  6
Continuous
 62
     7
370
    25
100
AcDbLine
 10
6469.2396015001
 20
3124.6775677341
 30
0.0
 11
6468.893528865
 21
3120.292432599
 31
0.0
  0
LINE
  5
1ED
330
1F
100
AcDbEntity
  8
0
  6
Continuous
 62
     7
370
    25
100
AcDbLine
 10
6468.893528865
 20
3120.292432599
 30
0.0
 11
6470.1976884933
 21
3120.292432599
 31
0.0
  0
LINE
  5
1EE
330
1F
100
AcDbEntity
  8
0
  6
Continuous
 62
     7
370
    25
100
AcDbLine
 10
6470.1976884933
 20
3120.292432599
 30
0.0
 11
6470.1976884933
 21
3124.6775677341
 31
0.0
  0
LINE
  5
1EF
330
1F
100
AcDbEntity
  8
0
  6
Continuous
 62
     7
370
    25
100
AcDbLine
 10
6470.6436344393
 20
3119.6246749977
 30
0.0
 11
6470.6436344393
 21
3119.6978380044
 31
0.0
  0
LINE
  5
1F0
330
1F
100
AcDbEntity
  8
0
  6
Continuous
 62
     7
370
    25
100
AcDbLine
 10
6470.6436344393
 20
3119.6978380044
 30
0.0
 11
6468.5590694055
 21
3119.6978380044
 31
0.0
  0
LINE
  5
1F1
330
1F
100
AcDbEntity
  8
0
  6
Continuous
 62
     7
370
    25
100
AcDbLine
 10
6468.5590694055
 20
3119.6978380044
 30
0.0
 11
6468.5590694055
 21
3119.6246749977
 31
0.0
  0
LINE
  5
1F2
330
1F
100
AcDbEntity
  8
0
  6
Continuous
 62
     7
370
    25
100
AcDbLine
 10
6467.9505390001
 20
3119.6618371598
 30
0.0
 11
6467.9505390001
 21
3120.0311361463
 31
0.0
  0
LINE
  5
1F3
330
1F
100
AcDbEntity
  8
0
  6
Continuous
 62
     7
370
    25
100
AcDbLine
 10
6468.2176420406
 20
3120.292432599
 30
0.0
 11
6468.3523548785
 21
3120.292432599
 31
0.0
  0
LINE
  5
1F4
330
1F
100
AcDbEntity
  8
0
  6
Continuous
 62
     7
370
    25
100
AcDbLine
 10
6468.3523548785
 20
3120.292432599
 30
0.0
 11
6468.7204925474
 21
3125.0259630044
 31
0.0
  0
LINE
  5
1F5
330
1F
100
AcDbEntity
  8
0
  6
Continuous
 62
     7
370
    25
100
AcDbLine
 10
6468.9864342704
 20
3125.2721623287
 30
0.0
 11
6470.5298253177
 21
3125.2721623287
 31
0.0
  0
LINE
  5
1F6
330
1F
100
AcDbEntity
  8
0
  6
Continuous
 62
     7
370
    25
100
AcDbLine
 10
6470.8666074123
 20
3125.0062206058
 30
0.0
 11
6470.8666074123
 21
3120.292432599
 31
0.0
  0
LINE
  5
1F7
330
1F
100
AcDbEntity
  8
0
  6
Continuous
 62
     7
370
    25
100
AcDbLine
 10
6470.8666074123
 20
3120.292432599
 30
0.0
 11
6470.9072535271
 21
3120.292432599
 31
0.0
  0
LINE
  5
1F8
330
1F
100
AcDbEntity
  8
0
  6
Continuous
 62
     7
370
    25
100
AcDbLine
 10
6471.2475195744
 20
3120.0311361463
 30
0.0
 11
6471.2475195744
 21
3119.6618371598
 31
0.0
  0
LINE
  5
1F9
330
1F
100
AcDbEntity
  8
0
  6
Continuous
 62
     7
370
    25
100
AcDbLine
 10
6474.3277982906
 20
3124.6032434098
 30
0.0
 11
6473.9573379866
 21
3124.6032434098
 31
0.0
  0
LINE
  5
1FA
330
1F
100
AcDbEntity
  8
0
  6
Continuous
 62
     7
370
    25
100
AcDbLine
 10
6473.3639047096
 20
3123.9343244909
 30
0.0
 11
6473.3639047096
 21
3120.9613515179
 31
0.0
  0
LINE
  5
1FB
330
1F
100
AcDbEntity
  8
0
  6
Continuous
 62
     7
370
    25
100
AcDbLine
 10
6473.9573379866
 20
3120.292432599
 30
0.0
 11
6474.3277982906
 21
3120.292432599
 31
0.0
  0
LINE
  5
1FC
330
1F
100
AcDbEntity
  8
0
  6
Continuous
 62
     7
370
    25
100
AcDbLine
 10
6474.9990398447
 20
3120.9613515179
 30
0.0
 11
6474.9990398447
 21
3123.9343244909
 31
0.0
  0
LINE
  5
1FD
330
1F
100
AcDbEntity
  8
0
  6
Continuous
 62
     7
370
    25
100
AcDbLine
 10
6474.3382501487
 20
3119.6978380044
 30
0.0
 11
6473.9457248109
 21
3119.6978380044
 31
0.0
  0
LINE
  5
1FE
330
1F
100
AcDbEntity
  8
0
  6
Continuous
 62
     7
370
    25
100
AcDbLine
 10
6472.6949857906
 20
3120.9183827679
 30
0.0
 11
6472.6949857906
 21
3123.9772932409
 31
0.0
  0
LINE
  5
1FF
330
1F
100
AcDbEntity
  8
0
  6
Continuous
 62
     7
370
    25
100
AcDbLine
 10
6473.9457248109
 20
3125.1978380044
 30
0.0
 11
6474.3382501487
 21
3125.1978380044
 31
0.0
  0
LINE
  5
200
330
1F
100
AcDbEntity
  8
0
  6
Continuous
 62
     7
370
    25
100
AcDbLine
 10
6475.6679587636
 20
3123.9772932409
 30
0.0
 11
6475.6679587636
 21
3120.9183827679
 31
0.0
  0
LINE
  5
201
330
1F
100
AcDbEntity
  8
0
  6
Continuous
 62
     7
370
    25
100
AcDbLine
 10
6488.1395803852
 20
3119.2158912139
 30
0.0
 11
6488.1395803852
 21
3119.6978380044
 31
0.0
  0
LINE
  5
202
330
1F
100
AcDbEntity
  8
0
  6
Continuous
 62
     7
370
    25
100
AcDbLine
 10
6488.1395803852
 20
3119.6978380044
 30
0.0
 11
6485.6601673785
 21
3119.6978380044
 31
0.0
  0
LINE
  5
203
330
1F
100
AcDbEntity
  8
0
  6
Continuous
 62
     7
370
    25
100
AcDbLine
 10
6485.3895803852
 20
3119.9626184098
 30
0.0
 11
6485.3895803852
 21
3124.933057599
 31
0.0
  0
LINE
  5
204
330
1F
100
AcDbEntity
  8
0
  6
Continuous
 62
     7
370
    25
100
AcDbLine
 10
6486.0584993042
 20
3124.9353802341
 30
0.0
 11
6486.0584993042
 21
3120.292432599
 31
0.0
  0
LINE
  5
205
330
1F
100
AcDbEntity
  8
0
  6
Continuous
 62
     7
370
    25
100
AcDbLine
 10
6486.0584993042
 20
3120.292432599
 30
0.0
 11
6487.6936344393
 21
3120.292432599
 31
0.0
  0
LINE
  5
206
330
1F
100
AcDbEntity
  8
0
  6
Continuous
 62
     7
370
    25
100
AcDbLine
 10
6487.6936344393
 20
3120.292432599
 30
0.0
 11
6487.6936344393
 21
3124.9353802341
 31
0.0
  0
LINE
  5
207
330
1F
100
AcDbEntity
  8
0
  6
Continuous
 62
     7
370
    25
100
AcDbLine
 10
6488.3625533582
 20
3124.9353802341
 30
0.0
 11
6488.3625533582
 21
3120.292432599
 31
0.0
  0
LINE
  5
208
330
1F
100
AcDbEntity
  8
0
  6
Continuous
 62
     7
370
    25
100
AcDbLine
 10
6488.3625533582
 20
3120.292432599
 30
0.0
 11
6488.4345550474
 21
3120.292432599
 31
0.0
  0
LINE
  5
209
330
1F
100
AcDbEntity
  8
0
  6
Continuous
 62
     7
370
    25
100
AcDbLine
 10
6488.8084993042
 20
3120.0195229706
 30
0.0
 11
6488.8084993042
 21
3119.2275043895
 31
0.0
  0
LINE
  5
20A
330
1F
100
AcDbEntity
  8
0
  6
Continuous
 62
     7
370
    25
100
AcDbLine
 10
6491.8237442366
 20
3122.3735136801
 30
0.0
 11
6490.8598506555
 21
3122.3735136801
 31
0.0
  0
LINE
  5
20B
330
1F
100
AcDbEntity
  8
0
  6
Continuous
 62
     7
370
    25
100
AcDbLine
 10
6490.8598506555
 20
3122.3735136801
 30
0.0
 11
6490.8598506555
 21
3120.292432599
 31
0.0
  0
LINE
  5
20C
330
1F
100
AcDbEntity
  8
0
  6
Continuous
 62
     7
370
    25
100
AcDbLine
 10
6492.4949857906
 20
3120.9625128355
 30
0.0
 11
6492.4949857906
 21
3121.7069173963
 31
0.0
  0
LINE
  5
20D
330
1F
100
AcDbEntity
  8
0
  6
Continuous
 62
     7
370
    25
100
AcDbLine
 10
6491.8341960947
 20
3119.6978380044
 30
0.0
 11
6490.4615187298
 21
3119.6978380044
 31
0.0
  0
LINE
  5
20E
330
1F
100
AcDbEntity
  8
0
  6
Continuous
 62
     7
370
    25
100
AcDbLine
 10
6490.1909317366
 20
3119.9637797274
 30
0.0
 11
6490.1909317366
 21
3124.9318962814
 31
0.0
  0
LINE
  5
20F
330
1F
100
AcDbEntity
  8
0
  6
Continuous
 62
     7
370
    25
100
AcDbLine
 10
6490.8598506555
 20
3124.9377028693
 30
0.0
 11
6490.8598506555
 21
3122.9681082747
 31
0.0
  0
LINE
  5
210
330
1F
100
AcDbEntity
  8
0
  6
Continuous
 62
     7
370
    25
100
AcDbLine
 10
6490.8598506555
 20
3122.9681082747
 30
0.0
 11
6491.8609063987
 21
3122.9681082747
 31
0.0
  0
LINE
  5
211
330
1F
100
AcDbEntity
  8
0
  6
Continuous
 62
     7
370
    25
100
AcDbLine
 10
6493.1639047096
 20
3121.7254984774
 30
0.0
 11
6493.1639047096
 21
3120.9439317544
 31
0.0
  0
LINE
  5
212
330
1F
100
AcDbEntity
  8
0
  6
Continuous
 62
     7
370
    25
100
AcDbLine
 10
6490.8598506555
 20
3120.292432599
 30
0.0
 11
6491.8237442366
 21
3120.292432599
 31
0.0
  0
LINE
  5
213
330
1F
100
AcDbEntity
  8
0
  6
Continuous
 62
     7
370
    25
100
AcDbLine
 10
6495.2152560609
 20
3121.8346623287
 30
0.0
 11
6495.2152560609
 21
3119.9661023625
 31
0.0
  0
LINE
  5
214
330
1F
100
AcDbEntity
  8
0
  6
Continuous
 62
     7
370
    25
100
AcDbLine
 10
6497.4798253177
 20
3124.8680238152
 30
0.0
 11
6496.1187611285
 21
3123.0494005044
 31
0.0
  0
LINE
  5
215
330
1F
100
AcDbEntity
  8
0
  6
Continuous
 62
     7
370
    25
100
AcDbLine
 10
6496.1187611285
 20
3123.0494005044
 30
0.0
 11
6497.4937611285
 21
3120.0764275314
 31
0.0
  0
LINE
  5
216
330
1F
100
AcDbEntity
  8
0
  6
Continuous
 62
     7
370
    25
100
AcDbLine
 10
6494.546337142
 20
3119.9637797274
 30
0.0
 11
6494.546337142
 21
3124.9318962814
 31
0.0
  0
LINE
  5
217
330
1F
100
AcDbEntity
  8
0
  6
Continuous
 62
     7
370
    25
100
AcDbLine
 10
6495.2152560609
 20
3124.9353802341
 30
0.0
 11
6495.2152560609
 21
3122.561647126
 31
0.0
  0
LINE
  5
218
330
1F
100
AcDbEntity
  8
0
  6
Continuous
 62
     7
370
    25
100
AcDbLine
 10
6495.2152560609
 20
3122.561647126
 30
0.0
 11
6496.9700069055
 21
3125.1595145247
 31
0.0
  0
LINE
  5
219
330
1F
100
AcDbEntity
  8
0
  6
Continuous
 62
     7
370
    25
100
AcDbLine
 10
6496.9386513312
 20
3119.9544891868
 30
0.0
 11
6495.7157839325
 21
3122.6290035449
 31
0.0
  0
LINE
  5
21A
330
1F
100
AcDbEntity
  8
0
  6
Continuous
 62
     7
370
    25
100
AcDbLine
 10
6495.7157839325
 20
3122.6290035449
 30
0.0
 11
6495.2152560609
 21
3121.8346623287
 31
0.0
  0
LINE
  5
21B
330
1F
100
AcDbEntity
  8
0
  6
Continuous
 62
     7
370
    25
100
AcDbLine
 10
6459.6662165095
 20
3061.7209930768
 30
0.0
 11
6459.4067555095
 21
3062.0141090768
 31
0.0
  0
LINE
  5
21C
330
1F
100
AcDbEntity
  8
0
  6
Continuous
 62
     7
370
    25
100
AcDbLine
 10
6459.4067555095
 20
3062.0141090768
 30
0.0
 11
6458.0417595095
 21
3063.7974430768
 31
0.0
  0
LINE
  5
21D
330
1F
100
AcDbEntity
  8
0
  6
Continuous
 62
     7
370
    25
100
AcDbLine
 10
6458.0417595095
 20
3063.7974430768
 30
0.0
 11
6458.9854965095
 21
3065.9391710768
 31
0.0
  0
LINE
  5
21E
330
1F
100
AcDbEntity
  8
0
  6
Continuous
 62
     7
370
    25
100
AcDbLine
 10
6458.9854965095
 20
3065.9391710768
 30
0.0
 11
6461.1267165095
 21
3065.5182930768
 31
0.0
  0
LINE
  5
21F
330
1F
100
AcDbEntity
  8
0
  6
Continuous
 62
     7
370
    25
100
AcDbLine
 10
6461.1267165095
 20
3065.5182930768
 30
0.0
 11
6462.2292035095
 21
3066.6207800768
 31
0.0
  0
LINE
  5
220
330
1F
100
AcDbEntity
  8
0
  6
Continuous
 62
     7
370
    25
100
AcDbLine
 10
6462.2292035095
 20
3066.6207800768
 30
0.0
 11
6460.8672555095
 21
3067.7233940768
 31
0.0
  0
LINE
  5
221
330
1F
100
AcDbEntity
  8
0
  6
Continuous
 62
     7
370
    25
100
AcDbLine
 10
6460.8672555095
 20
3067.7233940768
 30
0.0
 11
6461.7102815095
 21
3069.2477750768
 31
0.0
  0
LINE
  5
222
330
1F
100
AcDbEntity
  8
0
  6
Continuous
 62
     7
370
    25
100
AcDbLine
 10
6461.7102815095
 20
3069.2477750768
 30
0.0
 11
6460.0237215095
 21
3070.3835360768
 31
0.0
  0
LINE
  5
223
330
1F
100
AcDbEntity
  8
0
  6
Continuous
 62
     7
370
    25
100
AcDbLine
 10
6460.0237215095
 20
3070.3835360768
 30
0.0
 11
6458.9854965095
 21
3069.4442440768
 31
0.0
  0
LINE
  5
224
330
1F
100
AcDbEntity
  8
0
  6
Continuous
 62
     7
370
    25
100
AcDbLine
 10
6458.9854965095
 20
3069.4442440768
 30
0.0
 11
6457.2979205095
 21
3071.4870390768
 31
0.0
  0
LINE
  5
225
330
1F
100
AcDbEntity
  8
0
  6
Continuous
 62
     7
370
    25
100
AcDbLine
 10
6457.2979205095
 20
3071.4870390768
 30
0.0
 11
6456.0968815095
 21
3072.9159160768
 31
0.0
  0
LINE
  5
226
330
1F
100
AcDbEntity
  8
0
  6
Continuous
 62
     7
370
    25
100
AcDbLine
 10
6456.0968815095
 20
3072.9159160768
 30
0.0
 11
6454.3121505095
 21
3074.1165740768
 31
0.0
  0
LINE
  5
227
330
1F
100
AcDbEntity
  8
0
  6
Continuous
 62
     7
370
    25
100
AcDbLine
 10
6454.3121505095
 20
3074.1165740768
 30
0.0
 11
6452.2684665095
 21
3075.4790300768
 31
0.0
  0
LINE
  5
228
330
1F
100
AcDbEntity
  8
0
  6
Continuous
 62
     7
370
    25
100
AcDbLine
 10
6452.2684665095
 20
3075.4790300768
 30
0.0
 11
6455.1570815095
 21
3076.4192110768
 31
0.0
  0
LINE
  5
229
330
1F
100
AcDbEntity
  8
0
  6
Continuous
 62
     7
370
    25
100
AcDbLine
 10
6455.1570815095
 20
3076.4192110768
 30
0.0
 11
6453.8903835095
 21
3077.9777550768
 31
0.0
  0
LINE
  5
22A
330
1F
100
AcDbEntity
  8
0
  6
Continuous
 62
     7
370
    25
100
AcDbLine
 10
6453.8903835095
 20
3077.9777550768
 30
0.0
 11
6452.6894715095
 21
3080.8631950768
 31
0.0
  0
LINE
  5
22B
330
1F
100
AcDbEntity
  8
0
  6
Continuous
 62
     7
370
    25
100
AcDbLine
 10
6452.6894715095
 20
3080.8631950768
 30
0.0
 11
6453.1130165095
 21
3081.3842760768
 31
0.0
  0
LINE
  5
22C
330
1F
100
AcDbEntity
  8
0
  6
Continuous
 62
     7
370
    25
100
AcDbLine
 10
6453.1130165095
 20
3081.3842760768
 30
0.0
 11
6453.9551535095
 21
3080.7035560768
 31
0.0
  0
LINE
  5
22D
330
1F
100
AcDbEntity
  8
0
  6
Continuous
 62
     7
370
    25
100
AcDbLine
 10
6453.9551535095
 20
3080.7035560768
 30
0.0
 11
6455.5788485095
 21
3081.2210810768
 31
0.0
  0
LINE
  5
22E
330
1F
100
AcDbEntity
  8
0
  6
Continuous
 62
     7
370
    25
100
AcDbLine
 10
6455.5788485095
 20
3081.2210810768
 30
0.0
 11
6456.0968815095
 21
3080.1842530768
 31
0.0
  0
LINE
  5
22F
330
1F
100
AcDbEntity
  8
0
  6
Continuous
 62
     7
370
    25
100
AcDbLine
 10
6456.0968815095
 20
3080.1842530768
 30
0.0
 11
6459.7615935095
 21
3082.1302740768
 31
0.0
  0
LINE
  5
230
330
1F
100
AcDbEntity
  8
0
  6
Continuous
 62
     7
370
    25
100
AcDbLine
 10
6459.7615935095
 20
3082.1302740768
 30
0.0
 11
6459.6001765095
 21
3084.9527220768
 31
0.0
  0
LINE
  5
231
330
1F
100
AcDbEntity
  8
0
  6
Continuous
 62
     7
370
    25
100
AcDbLine
 10
6459.6001765095
 20
3084.9527220768
 30
0.0
 11
6460.6077945095
 21
3085.1479210768
 31
0.0
  0
LINE
  5
232
330
1F
100
AcDbEntity
  8
0
  6
Continuous
 62
     7
370
    25
100
AcDbLine
 10
6460.6077945095
 20
3085.1479210768
 30
0.0
 11
6461.2881335095
 21
3083.4302460768
 31
0.0
  0
LINE
  5
233
330
1F
100
AcDbEntity
  8
0
  6
Continuous
 62
     7
370
    25
100
AcDbLine
 10
6461.2881335095
 20
3083.4302460768
 30
0.0
 11
6462.4235135095
 21
3083.9473900768
 31
0.0
  0
LINE
  5
234
330
1F
100
AcDbEntity
  8
0
  6
Continuous
 62
     7
370
    25
100
AcDbLine
 10
6462.4235135095
 20
3083.9473900768
 30
0.0
 11
6462.3263585095
 21
3085.8291490768
 31
0.0
  0
LINE
  5
235
330
1F
100
AcDbEntity
  8
0
  6
Continuous
 62
     7
370
    25
100
AcDbLine
 10
6462.3263585095
 20
3085.8291490768
 30
0.0
 11
6463.1061385095
 21
3089.0436460768
 31
0.0
  0
LINE
  5
236
330
1F
100
AcDbEntity
  8
0
  6
Continuous
 62
     7
370
    25
100
AcDbLine
 10
6463.1061385095
 20
3089.0436460768
 30
0.0
 11
6462.0674055095
 21
3089.0436460768
 31
0.0
  0
LINE
  5
237
330
1F
100
AcDbEntity
  8
0
  6
Continuous
 62
     7
370
    25
100
AcDbLine
 10
6462.0674055095
 20
3089.0436460768
 30
0.0
 11
6461.9054805095
 21
3089.9170250768
 31
0.0
  0
LINE
  5
238
330
1F
100
AcDbEntity
  8
0
  6
Continuous
 62
     7
370
    25
100
AcDbLine
 10
6461.9054805095
 20
3089.9170250768
 30
0.0
 11
6460.9647915095
 21
3089.9170250768
 31
0.0
  0
LINE
  5
239
330
1F
100
AcDbEntity
  8
0
  6
Continuous
 62
     7
370
    25
100
AcDbLine
 10
6460.9647915095
 20
3089.9170250768
 30
0.0
 11
6460.4442185095
 21
3088.6197200768
 31
0.0
  0
LINE
  5
23A
330
1F
100
AcDbEntity
  8
0
  6
Continuous
 62
     7
370
    25
100
AcDbLine
 10
6460.4442185095
 20
3088.6197200768
 30
0.0
 11
6456.0968815095
 21
3092.4812820768
 31
0.0
  0
LINE
  5
23B
330
1F
100
AcDbEntity
  8
0
  6
Continuous
 62
     7
370
    25
100
AcDbLine
 10
6456.0968815095
 20
3092.4812820768
 30
0.0
 11
6455.4156535095
 21
3091.7996730768
 31
0.0
  0
LINE
  5
23C
330
1F
100
AcDbEntity
  8
0
  6
Continuous
 62
     7
370
    25
100
AcDbLine
 10
6455.4156535095
 20
3091.7996730768
 30
0.0
 11
6452.7537335095
 21
3093.7453130768
 31
0.0
  0
LINE
  5
23D
330
1F
100
AcDbEntity
  8
0
  6
Continuous
 62
     7
370
    25
100
AcDbLine
 10
6452.7537335095
 20
3093.7453130768
 30
0.0
 11
6451.4893215095
 21
3092.2214400768
 31
0.0
  0
LINE
  5
23E
330
1F
100
AcDbEntity
  8
0
  6
Continuous
 62
     7
370
    25
100
AcDbLine
 10
6451.4893215095
 20
3092.2214400768
 30
0.0
 11
6449.1856685095
 21
3095.3686270768
 31
0.0
  0
LINE
  5
23F
330
1F
100
AcDbEntity
  8
0
  6
Continuous
 62
     7
370
    25
100
AcDbLine
 10
6449.1856685095
 20
3095.3686270768
 30
0.0
 11
6447.3992865095
 21
3094.1679690768
 31
0.0
  0
LINE
  5
240
330
1F
100
AcDbEntity
  8
0
  6
Continuous
 62
     7
370
    25
100
AcDbLine
 10
6447.3992865095
 20
3094.1679690768
 30
0.0
 11
6445.4221505095
 21
3096.8290000768
 31
0.0
  0
LINE
  5
241
330
1F
100
AcDbEntity
  8
0
  6
Continuous
 62
     7
370
    25
100
AcDbLine
 10
6445.4221505095
 20
3096.8290000768
 30
0.0
 11
6447.3992865095
 21
3097.4126920768
 31
0.0
  0
LINE
  5
242
330
1F
100
AcDbEntity
  8
0
  6
Continuous
 62
     7
370
    25
100
AcDbLine
 10
6447.3992865095
 20
3097.4126920768
 30
0.0
 11
6446.9791705095
 21
3098.4518060768
 31
0.0
  0
LINE
  5
243
330
1F
100
AcDbEntity
  8
0
  6
Continuous
 62
     7
370
    25
100
AcDbLine
 10
6446.9791705095
 20
3098.4518060768
 30
0.0
 11
6443.9616505095
 21
3098.3528730768
 31
0.0
  0
LINE
  5
244
330
1F
100
AcDbEntity
  8
0
  6
Continuous
 62
     7
370
    25
100
AcDbLine
 10
6443.9616505095
 20
3098.3528730768
 30
0.0
 11
6443.9616505095
 21
3099.3919870768
 31
0.0
  0
LINE
  5
245
330
1F
100
AcDbEntity
  8
0
  6
Continuous
 62
     7
370
    25
100
AcDbLine
 10
6443.9616505095
 20
3099.3919870768
 30
0.0
 11
6444.9027205095
 21
3099.6519560768
 31
0.0
  0
LINE
  5
246
330
1F
100
AcDbEntity
  8
0
  6
Continuous
 62
     7
370
    25
100
AcDbLine
 10
6444.9027205095
 20
3099.6519560768
 30
0.0
 11
6444.9027205095
 21
3100.6569070768
 31
0.0
  0
LINE
  5
247
330
1F
100
AcDbEntity
  8
0
  6
Continuous
 62
     7
370
    25
100
AcDbLine
 10
6444.9027205095
 20
3100.6569070768
 30
0.0
 11
6443.4742245095
 21
3100.7544430768
 31
0.0
  0
LINE
  5
248
330
1F
100
AcDbEntity
  8
0
  6
Continuous
 62
     7
370
    25
100
AcDbLine
 10
6443.4742245095
 20
3100.7544430768
 30
0.0
 11
6443.1197675095
 21
3103.0593660768
 31
0.0
  0
LINE
  5
249
330
1F
100
AcDbEntity
  8
0
  6
Continuous
 62
     7
370
    25
100
AcDbLine
 10
6443.1197675095
 20
3103.0593660768
 30
0.0
 11
6440.6530465095
 21
3102.8957900768
 31
0.0
  0
LINE
  5
24A
330
1F
100
AcDbEntity
  8
0
  6
Continuous
 62
     7
370
    25
100
AcDbLine
 10
6440.6530465095
 20
3102.8957900768
 30
0.0
 11
6440.5558915095
 21
3103.9020110768
 31
0.0
  0
LINE
  5
24B
330
1F
100
AcDbEntity
  8
0
  6
Continuous
 62
     7
370
    25
100
AcDbLine
 10
6440.5558915095
 20
3103.9020110768
 30
0.0
 11
6441.6576165095
 21
3104.7456720768
 31
0.0
  0
LINE
  5
24C
330
1F
100
AcDbEntity
  8
0
  6
Continuous
 62
     7
370
    25
100
AcDbLine
 10
6441.6576165095
 20
3104.7456720768
 30
0.0
 11
6441.3342745095
 21
3105.6215910768
 31
0.0
  0
LINE
  5
24D
330
1F
100
AcDbEntity
  8
0
  6
Continuous
 62
     7
370
    25
100
AcDbLine
 10
6441.3342745095
 20
3105.6215910768
 30
0.0
 11
6439.8725045095
 21
3105.2002050768
 31
0.0
  0
LINE
  5
24E
330
1F
100
AcDbEntity
  8
0
  6
Continuous
 62
     7
370
    25
100
AcDbLine
 10
6439.8725045095
 20
3105.2002050768
 30
0.0
 11
6439.6139325095
 21
3105.1341650768
 31
0.0
  0
LINE
  5
24F
330
1F
100
AcDbEntity
  8
0
  6
Continuous
 62
     7
370
    25
100
AcDbLine
 10
6439.6139325095
 20
3105.1341650768
 30
0.0
 11
6439.6139325095
 21
3106.8860030768
 31
0.0
  0
LINE
  5
250
330
1F
100
AcDbEntity
  8
0
  6
Continuous
 62
     7
370
    25
100
AcDbLine
 10
6439.6139325095
 20
3106.8860030768
 30
0.0
 11
6439.0302405095
 21
3107.1472420768
 31
0.0
  0
LINE
  5
251
330
1F
100
AcDbEntity
  8
0
  6
Continuous
 62
     7
370
    25
100
AcDbLine
 10
6439.0302405095
 20
3107.1472420768
 30
0.0
 11
6439.1921655095
 21
3108.3465030768
 31
0.0
  0
LINE
  5
252
330
1F
100
AcDbEntity
  8
0
  6
Continuous
 62
     7
370
    25
100
AcDbLine
 10
6439.1921655095
 20
3108.3465030768
 30
0.0
 11
6440.1323465095
 21
3108.3465030768
 31
0.0
  0
LINE
  5
253
330
1F
100
AcDbEntity
  8
0
  6
Continuous
 62
     7
370
    25
100
AcDbLine
 10
6440.1323465095
 20
3108.3465030768
 30
0.0
 11
6440.2295015095
 21
3108.8663140768
 31
0.0
  0
LINE
  5
254
330
1F
100
AcDbEntity
  8
0
  6
Continuous
 62
     7
370
    25
100
AcDbLine
 10
6440.2295015095
 20
3108.8663140768
 30
0.0
 11
6441.3342745095
 21
3109.1261560768
 31
0.0
  0
LINE
  5
255
330
1F
100
AcDbEntity
  8
0
  6
Continuous
 62
     7
370
    25
100
AcDbLine
 10
6441.3342745095
 20
3109.1261560768
 30
0.0
 11
6440.9116185095
 21
3111.3321460768
 31
0.0
  0
LINE
  5
256
330
1F
100
AcDbEntity
  8
0
  6
Continuous
 62
     7
370
    25
100
AcDbLine
 10
6440.9116185095
 20
3111.3321460768
 30
0.0
 11
6440.0356995095
 21
3111.0726850768
 31
0.0
  0
LINE
  5
257
330
1F
100
AcDbEntity
  8
0
  6
Continuous
 62
     7
370
    25
100
AcDbLine
 10
6440.0356995095
 20
3111.0726850768
 30
0.0
 11
6439.7132465095
 21
3112.3393830768
 31
0.0
  0
LINE
  5
258
330
1F
100
AcDbEntity
  8
0
  6
Continuous
 62
     7
370
    25
100
AcDbLine
 10
6439.7132465095
 20
3112.3393830768
 30
0.0
 11
6439.7132465095
 21
3114.0575660768
 31
0.0
  0
LINE
  5
259
330
1F
100
AcDbEntity
  8
0
  6
Continuous
 62
     7
370
    25
100
AcDbLine
 10
6439.7132465095
 20
3114.0575660768
 30
0.0
 11
6439.6139325095
 21
3115.5184470768
 31
0.0
  0
LINE
  5
25A
330
1F
100
AcDbEntity
  8
0
  6
Continuous
 62
     7
370
    25
100
AcDbLine
 10
6439.6139325095
 20
3115.5184470768
 30
0.0
 11
6441.4305405095
 21
3117.6600480768
 31
0.0
  0
LINE
  5
25B
330
1F
100
AcDbEntity
  8
0
  6
Continuous
 62
     7
370
    25
100
AcDbLine
 10
6441.4305405095
 20
3117.6600480768
 30
0.0
 11
6443.7345745095
 21
3116.5247950768
 31
0.0
  0
LINE
  5
25C
330
1F
100
AcDbEntity
  8
0
  6
Continuous
 62
     7
370
    25
100
AcDbLine
 10
6443.7345745095
 20
3116.5247950768
 30
0.0
 11
6444.5772195095
 21
3115.8426780768
 31
0.0
  0
LINE
  5
25D
330
1F
100
AcDbEntity
  8
0
  6
Continuous
 62
     7
370
    25
100
AcDbLine
 10
6444.5772195095
 20
3115.8426780768
 30
0.0
 11
6446.8812535095
 21
3115.8426780768
 31
0.0
  0
LINE
  5
25E
330
1F
100
AcDbEntity
  8
0
  6
Continuous
 62
     7
370
    25
100
AcDbLine
 10
6446.8812535095
 20
3115.8426780768
 30
0.0
 11
6447.4683745095
 21
3115.3570300768
 31
0.0
  0
LINE
  5
25F
330
1F
100
AcDbEntity
  8
0
  6
Continuous
 62
     7
370
    25
100
AcDbLine
 10
6447.4683745095
 20
3115.3570300768
 30
0.0
 11
6447.6614145095
 21
3116.7194860768
 31
0.0
  0
LINE
  5
260
330
1F
100
AcDbEntity
  8
0
  6
Continuous
 62
     7
370
    25
100
AcDbLine
 10
6447.6614145095
 20
3116.7194860768
 30
0.0
 11
6448.9258265095
 21
3117.3993170768
 31
0.0
  0
LINE
  5
261
330
1F
100
AcDbEntity
  8
0
  6
Continuous
 62
     7
370
    25
100
AcDbLine
 10
6448.9258265095
 20
3117.3993170768
 30
0.0
 11
6448.9258265095
 21
3119.5086600768
 31
0.0
  0
LINE
  5
262
330
1F
100
AcDbEntity
  8
0
  6
Continuous
 62
     7
370
    25
100
AcDbLine
 10
6448.9258265095
 20
3119.5086600768
 30
0.0
 11
6448.3435315095
 21
3121.8774640768
 31
0.0
  0
LINE
  5
263
330
1F
100
AcDbEntity
  8
0
  6
Continuous
 62
     7
370
    25
100
AcDbLine
 10
6448.3435315095
 20
3121.8774640768
 30
0.0
 11
6449.7698685095
 21
3123.1431460768
 31
0.0
  0
LINE
  5
264
330
1F
100
AcDbEntity
  8
0
  6
Continuous
 62
     7
370
    25
100
AcDbLine
 10
6449.7698685095
 20
3123.1431460768
 30
0.0
 11
6449.2828235095
 21
3125.7065140768
 31
0.0
  0
LINE
  5
265
330
1F
100
AcDbEntity
  8
0
  6
Continuous
 62
     7
370
    25
100
AcDbLine
 10
6449.2828235095
 20
3125.7065140768
 30
0.0
 11
6448.7647905095
 21
3127.8478610768
 31
0.0
  0
LINE
  5
266
330
1F
100
AcDbEntity
  8
0
  6
Continuous
 62
     7
370
    25
100
AcDbLine
 10
6448.7647905095
 20
3127.8478610768
 30
0.0
 11
6444.4152945095
 21
3128.0101670768
 31
0.0
  0
LINE
  5
267
330
1F
100
AcDbEntity
  8
0
  6
Continuous
 62
     7
370
    25
100
AcDbLine
 10
6444.4152945095
 20
3128.0101670768
 30
0.0
 11
6443.9616505095
 21
3129.6320840768
 31
0.0
  0
LINE
  5
268
330
1F
100
AcDbEntity
  8
0
  6
Continuous
 62
     7
370
    25
100
AcDbLine
 10
6443.9616505095
 20
3129.6320840768
 30
0.0
 11
6445.6832625095
 21
3129.6320840768
 31
0.0
  0
LINE
  5
269
330
1F
100
AcDbEntity
  8
0
  6
Continuous
 62
     7
370
    25
100
AcDbLine
 10
6445.6832625095
 20
3129.6320840768
 30
0.0
 11
6445.3577615095
 21
3133.3971260768
 31
0.0
  0
LINE
  5
26A
330
1F
100
AcDbEntity
  8
0
  6
Continuous
 62
     7
370
    25
100
AcDbLine
 10
6445.3577615095
 20
3133.3971260768
 30
0.0
 11
6445.1626895095
 21
3135.8627040768
 31
0.0
  0
LINE
  5
26B
330
1F
100
AcDbEntity
  8
0
  6
Continuous
 62
     7
370
    25
100
AcDbLine
 10
6445.1626895095
 20
3135.8627040768
 30
0.0
 11
6446.2000255095
 21
3136.0562520768
 31
0.0
  0
LINE
  5
26C
330
1F
100
AcDbEntity
  8
0
  6
Continuous
 62
     7
370
    25
100
AcDbLine
 10
6446.2000255095
 20
3136.0562520768
 30
0.0
 11
6445.9405645095
 21
3137.6790580768
 31
0.0
  0
LINE
  5
26D
330
1F
100
AcDbEntity
  8
0
  6
Continuous
 62
     7
370
    25
100
AcDbLine
 10
6445.9405645095
 20
3137.6790580768
 30
0.0
 11
6447.8223235095
 21
3137.9063880768
 31
0.0
  0
LINE
  5
26E
330
1F
100
AcDbEntity
  8
0
  6
Continuous
 62
     7
370
    25
100
AcDbLine
 10
6447.8223235095
 20
3137.9063880768
 30
0.0
 11
6447.4683745095
 21
3140.3073230768
 31
0.0
  0
LINE
  5
26F
330
1F
100
AcDbEntity
  8
0
  6
Continuous
 62
     7
370
    25
100
AcDbLine
 10
6447.4683745095
 20
3140.3073230768
 30
0.0
 11
6444.4814615095
 21
3140.4702640768
 31
0.0
  0
LINE
  5
270
330
1F
100
AcDbEntity
  8
0
  6
Continuous
 62
     7
370
    25
100
AcDbLine
 10
6444.4814615095
 20
3140.4702640768
 30
0.0
 11
6443.8977695095
 21
3141.6719380768
 31
0.0
  0
LINE
  5
271
330
1F
100
AcDbEntity
  8
0
  6
Continuous
 62
     7
370
    25
100
AcDbLine
 10
6443.8977695095
 20
3141.6719380768
 30
0.0
 11
6442.5986865095
 21
3141.5082350768
 31
0.0
  0
LINE
  5
272
330
1F
100
AcDbEntity
  8
0
  6
Continuous
 62
     7
370
    25
100
AcDbLine
 10
6442.5986865095
 20
3141.5082350768
 30
0.0
 11
6441.9174585095
 21
3142.6112300768
 31
0.0
  0
LINE
  5
273
330
1F
100
AcDbEntity
  8
0
  6
Continuous
 62
     7
370
    25
100
AcDbLine
 10
6441.9174585095
 20
3142.6112300768
 30
0.0
 11
6441.9174585095
 21
3143.4550180768
 31
0.0
  0
LINE
  5
274
330
1F
100
AcDbEntity
  8
0
  6
Continuous
 62
     7
370
    25
100
AcDbLine
 10
6441.9174585095
 20
3143.4550180768
 30
0.0
 11
6441.4305405095
 21
3143.4550180768
 31
0.0
  0
LINE
  5
275
330
1F
100
AcDbEntity
  8
0
  6
Continuous
 62
     7
370
    25
100
AcDbLine
 10
6441.4305405095
 20
3143.4550180768
 30
0.0
 11
6441.2362305095
 21
3145.0120380768
 31
0.0
  0
LINE
  5
276
330
1F
100
AcDbEntity
  8
0
  6
Continuous
 62
     7
370
    25
100
AcDbLine
 10
6440.9763885095
 20
3147.5759140768
 30
0.0
 11
6440.1323465095
 21
3148.2568880768
 31
0.0
  0
LINE
  5
277
330
1F
100
AcDbEntity
  8
0
  6
Continuous
 62
     7
370
    25
100
AcDbLine
 10
6440.1323465095
 20
3148.2568880768
 30
0.0
 11
6439.8725045095
 21
3149.6843680768
 31
0.0
  0
LINE
  5
278
330
1F
100
AcDbEntity
  8
0
  6
Continuous
 62
     7
370
    25
100
AcDbLine
 10
6439.8725045095
 20
3149.6843680768
 30
0.0
 11
6440.9763885095
 21
3150.8857880768
 31
0.0
  0
LINE
  5
279
330
1F
100
AcDbEntity
  8
0
  6
Continuous
 62
     7
370
    25
100
AcDbLine
 10
6440.9763885095
 20
3150.8857880768
 30
0.0
 11
6441.7560415095
 21
3150.6253110768
 31
0.0
  0
LINE
  5
27A
330
1F
100
AcDbEntity
  8
0
  6
Continuous
 62
     7
370
    25
100
AcDbLine
 10
6441.7560415095
 20
3150.6253110768
 30
0.0
 11
6442.4376505095
 21
3151.1452490768
 31
0.0
  0
LINE
  5
27B
330
1F
100
AcDbEntity
  8
0
  6
Continuous
 62
     7
370
    25
100
AcDbLine
 10
6442.4376505095
 20
3151.1452490768
 30
0.0
 11
6443.3779585095
 21
3149.8794400768
 31
0.0
  0
LINE
  5
27C
330
1F
100
AcDbEntity
  8
0
  6
Continuous
 62
     7
370
    25
100
AcDbLine
 10
6443.3779585095
 20
3149.8794400768
 30
0.0
 11
6444.5772195095
 21
3149.9444640768
 31
0.0
  0
LINE
  5
27D
330
1F
100
AcDbEntity
  8
0
  6
Continuous
 62
     7
370
    25
100
AcDbLine
 10
6444.5772195095
 20
3149.9444640768
 30
0.0
 11
6444.8388395095
 21
3151.4038210768
 31
0.0
  0
LINE
  5
27E
330
1F
100
AcDbEntity
  8
0
  6
Continuous
 62
     7
370
    25
100
AcDbLine
 10
6444.8388395095
 20
3151.4038210768
 30
0.0
 11
6446.9791705095
 21
3151.5663810768
 31
0.0
  0
LINE
  5
27F
330
1F
100
AcDbEntity
  8
0
  6
Continuous
 62
     7
370
    25
100
AcDbLine
 10
6446.9791705095
 20
3151.5663810768
 30
0.0
 11
6447.7260575095
 21
3150.8857880768
 31
0.0
  0
LINE
  5
280
330
1F
100
AcDbEntity
  8
0
  6
Continuous
 62
     7
370
    25
100
AcDbLine
 10
6447.7260575095
 20
3150.8857880768
 30
0.0
 11
6448.2454875095
 21
3151.5663810768
 31
0.0
  0
LINE
  5
281
330
1F
100
AcDbEntity
  8
0
  6
Continuous
 62
     7
370
    25
100
AcDbLine
 10
6448.2454875095
 20
3151.5663810768
 30
0.0
 11
6450.4514775095
 21
3149.0027590768
 31
0.0
  0
LINE
  5
282
330
1F
100
AcDbEntity
  8
0
  6
Continuous
 62
     7
370
    25
100
AcDbLine
 10
6450.4514775095
 20
3149.0027590768
 30
0.0
 11
6451.0679355095
 21
3149.6843680768
 31
0.0
  0
LINE
  5
283
330
1F
100
AcDbEntity
  8
0
  6
Continuous
 62
     7
370
    25
100
AcDbLine
 10
6451.0679355095
 20
3149.6843680768
 30
0.0
 11
6449.3488635095
 21
3151.5663810768
 31
0.0
  0
LINE
  5
284
330
1F
100
AcDbEntity
  8
0
  6
Continuous
 62
     7
370
    25
100
AcDbLine
 10
6449.3488635095
 20
3151.5663810768
 30
0.0
 11
6450.2886635095
 21
3152.9288370768
 31
0.0
  0
LINE
  5
285
330
1F
100
AcDbEntity
  8
0
  6
Continuous
 62
     7
370
    25
100
AcDbLine
 10
6450.2886635095
 20
3152.9288370768
 30
0.0
 11
6451.6511195095
 21
3152.3451450768
 31
0.0
  0
LINE
  5
286
330
1F
100
AcDbEntity
  8
0
  6
Continuous
 62
     7
370
    25
100
AcDbLine
 10
6451.6511195095
 20
3152.3451450768
 30
0.0
 11
6452.1714385095
 21
3154.7465880768
 31
0.0
  0
LINE
  5
287
330
1F
100
AcDbEntity
  8
0
  6
Continuous
 62
     7
370
    25
100
AcDbLine
 10
6452.1714385095
 20
3154.7465880768
 30
0.0
 11
6453.2753225095
 21
3154.6491790768
 31
0.0
  0
LINE
  5
288
330
1F
100
AcDbEntity
  8
0
  6
Continuous
 62
     7
370
    25
100
AcDbLine
 10
6453.2753225095
 20
3154.6491790768
 30
0.0
 11
6453.2753225095
 21
3153.1885520768
 31
0.0
  0
LINE
  5
289
330
1F
100
AcDbEntity
  8
0
  6
Continuous
 62
     7
370
    25
100
AcDbLine
 10
6453.2753225095
 20
3153.1885520768
 30
0.0
 11
6455.2533475095
 21
3152.6046060768
 31
0.0
  0
LINE
  5
28A
330
1F
100
AcDbEntity
  8
0
  6
Continuous
 62
     7
370
    25
100
AcDbLine
 10
6455.2533475095
 20
3152.6046060768
 30
0.0
 11
6455.2533475095
 21
3155.2326170768
 31
0.0
  0
LINE
  5
28B
330
1F
100
AcDbEntity
  8
0
  6
Continuous
 62
     7
370
    25
100
AcDbLine
 10
6455.2533475095
 20
3155.2326170768
 30
0.0
 11
6456.2579175095
 21
3157.1148840768
 31
0.0
  0
LINE
  5
28C
330
1F
100
AcDbEntity
  8
0
  6
Continuous
 62
     7
370
    25
100
AcDbLine
 10
6456.2579175095
 20
3157.1148840768
 30
0.0
 11
6457.5577625095
 21
3157.3747260768
 31
0.0
  0
LINE
  5
28D
330
1F
100
AcDbEntity
  8
0
  6
Continuous
 62
     7
370
    25
100
AcDbLine
 10
6457.5577625095
 20
3157.3747260768
 30
0.0
 11
6457.9791485095
 21
3157.8935210768
 31
0.0
  0
LINE
  5
28E
330
1F
100
AcDbEntity
  8
0
  6
Continuous
 62
     7
370
    25
100
AcDbLine
 10
6457.9791485095
 20
3157.8935210768
 30
0.0
 11
6460.1851385095
 21
3157.5366510768
 31
0.0
  0
LINE
  5
28F
330
1F
100
AcDbEntity
  8
0
  6
Continuous
 62
     7
370
    25
100
AcDbLine
 10
6460.1851385095
 20
3157.5366510768
 30
0.0
 11
6460.3470635095
 21
3158.2176250768
 31
0.0
  0
LINE
  5
290
330
1F
100
AcDbEntity
  8
0
  6
Continuous
 62
     7
370
    25
100
AcDbLine
 10
6460.3470635095
 20
3158.2176250768
 30
0.0
 11
6458.1405655095
 21
3159.7755340768
 31
0.0
  0
LINE
  5
291
330
1F
100
AcDbEntity
  8
0
  6
Continuous
 62
     7
370
    25
100
AcDbLine
 10
6458.1405655095
 20
3159.7755340768
 30
0.0
 11
6458.1405655095
 21
3160.6190680768
 31
0.0
  0
LINE
  5
292
330
1F
100
AcDbEntity
  8
0
  6
Continuous
 62
     7
370
    25
100
AcDbLine
 10
6458.1405655095
 20
3160.6190680768
 30
0.0
 11
6459.1787905095
 21
3160.5214050768
 31
0.0
  0
LINE
  5
293
330
1F
100
AcDbEntity
  8
0
  6
Continuous
 62
     7
370
    25
100
AcDbLine
 10
6459.1787905095
 20
3160.5214050768
 30
0.0
 11
6460.0237215095
 21
3161.7224440768
 31
0.0
  0
LINE
  5
294
330
1F
100
AcDbEntity
  8
0
  6
Continuous
 62
     7
370
    25
100
AcDbLine
 10
6460.0237215095
 20
3161.7224440768
 30
0.0
 11
6461.3870665095
 21
3161.5603920768
 31
0.0
  0
LINE
  5
295
330
1F
100
AcDbEntity
  8
0
  6
Continuous
 62
     7
370
    25
100
AcDbLine
 10
6461.3870665095
 20
3161.5603920768
 30
0.0
 11
6461.5479755095
 21
3163.8632830768
 31
0.0
  0
LINE
  5
296
330
1F
100
AcDbEntity
  8
0
  6
Continuous
 62
     7
370
    25
100
AcDbLine
 10
6461.5479755095
 20
3163.8632830768
 30
0.0
 11
6463.8512475095
 21
3165.1285840768
 31
0.0
  0
LINE
  5
297
330
1F
100
AcDbEntity
  8
0
  6
Continuous
 62
     7
370
    25
100
AcDbLine
 10
6463.8512475095
 20
3165.1285840768
 30
0.0
 11
6463.4298615095
 21
3166.6866200768
 31
0.0
  0
LINE
  5
298
330
1F
100
AcDbEntity
  8
0
  6
Continuous
 62
     7
370
    25
100
AcDbLine
 10
6463.4298615095
 20
3166.6866200768
 30
0.0
 11
6463.5917865095
 21
3167.4328720768
 31
0.0
  0
LINE
  5
299
330
1F
100
AcDbEntity
  8
0
  6
Continuous
 62
     7
370
    25
100
AcDbLine
 10
6463.5917865095
 20
3167.4328720768
 30
0.0
 11
6465.8956935095
 21
3167.8872780768
 31
0.0
  0
LINE
  5
29A
330
1F
100
AcDbEntity
  8
0
  6
Continuous
 62
     7
370
    25
100
AcDbLine
 10
6465.8956935095
 20
3167.8872780768
 30
0.0
 11
6467.3549235095
 21
3169.0551700768
 31
0.0
  0
LINE
  5
29B
330
1F
100
AcDbEntity
  8
0
  6
Continuous
 62
     7
370
    25
100
AcDbLine
 10
6467.3549235095
 20
3169.0551700768
 30
0.0
 11
6464.0135535095
 21
3170.6129520768
 31
0.0
  0
LINE
  5
29C
330
1F
100
AcDbEntity
  8
0
  6
Continuous
 62
     7
370
    25
100
AcDbLine
 10
6464.0135535095
 20
3170.6129520768
 30
0.0
 11
6464.9555125095
 21
3172.7224220768
 31
0.0
  0
LINE
  5
29D
330
1F
100
AcDbEntity
  8
0
  6
Continuous
 62
     7
370
    25
100
AcDbLine
 10
6464.9555125095
 20
3172.7224220768
 30
0.0
 11
6465.4726565095
 21
3173.5002970768
 31
0.0
  0
LINE
  5
29E
330
1F
100
AcDbEntity
  8
0
  6
Continuous
 62
     7
370
    25
100
AcDbLine
 10
6465.4726565095
 20
3173.5002970768
 30
0.0
 11
6467.6161625095
 21
3173.5971980768
 31
0.0
  0
LINE
  5
29F
330
1F
100
AcDbEntity
  8
0
  6
Continuous
 62
     7
370
    25
100
AcDbLine
 10
6467.6161625095
 20
3173.5971980768
 30
0.0
 11
6467.7775795095
 21
3174.1167550768
 31
0.0
  0
LINE
  5
2A0
330
1F
100
AcDbEntity
  8
0
  6
Continuous
 62
     7
370
    25
100
AcDbLine
 10
6467.7775795095
 20
3174.1167550768
 30
0.0
 11
6472.5470645095
 21
3173.0782760768
 31
0.0
  0
LINE
  5
2A1
330
1F
100
AcDbEntity
  8
0
  6
Continuous
 62
     7
370
    25
100
AcDbLine
 10
6472.5470645095
 20
3173.0782760768
 30
0.0
 11
6474.2677875095
 21
3172.9166050768
 31
0.0
  0
LINE
  5
2A2
330
1F
100
AcDbEntity
  8
0
  6
Continuous
 62
     7
370
    25
100
AcDbLine
 10
6474.2677875095
 20
3172.9166050768
 30
0.0
 11
6474.9495235095
 21
3174.4416210768
 31
0.0
  0
LINE
  5
2A3
330
1F
100
AcDbEntity
  8
0
  6
Continuous
 62
     7
370
    25
100
AcDbLine
 10
6474.9495235095
 20
3174.4416210768
 30
0.0
 11
6476.2472095095
 21
3173.9226990768
 31
0.0
  0
LINE
  5
2A4
330
1F
100
AcDbEntity
  8
0
  6
Continuous
 62
     7
370
    25
100
AcDbLine
 10
6476.2472095095
 20
3173.9226990768
 30
0.0
 11
6476.8300125095
 21
3172.8193230768
 31
0.0
  0
LINE
  5
2A5
330
1F
100
AcDbEntity
  8
0
  6
Continuous
 62
     7
370
    25
100
AcDbLine
 10
6476.8300125095
 20
3172.8193230768
 30
0.0
 11
6476.3102015095
 21
3171.4567400768
 31
0.0
  0
LINE
  5
2A6
330
1F
100
AcDbEntity
  8
0
  6
Continuous
 62
     7
370
    25
100
AcDbLine
 10
6476.3102015095
 20
3171.4567400768
 30
0.0
 11
6479.7172305095
 21
3169.8332990768
 31
0.0
  0
LINE
  5
2A7
330
1F
100
AcDbEntity
  8
0
  6
Continuous
 62
     7
370
    25
100
AcDbLine
 10
6479.7172305095
 20
3169.8332990768
 30
0.0
 11
6480.7572335095
 21
3171.2943070768
 31
0.0
  0
LINE
  5
2A8
330
1F
100
AcDbEntity
  8
0
  6
Continuous
 62
     7
370
    25
100
AcDbLine
 10
6480.7572335095
 20
3171.2943070768
 30
0.0
 11
6482.1193085095
 21
3171.1971520768
 31
0.0
  0
LINE
  5
2A9
330
1F
100
AcDbEntity
  8
0
  6
Continuous
 62
     7
370
    25
100
AcDbLine
 10
6482.1193085095
 20
3171.1971520768
 30
0.0
 11
6481.0809565095
 21
3167.5310430768
 31
0.0
  0
LINE
  5
2AA
330
1F
100
AcDbEntity
  8
0
  6
Continuous
 62
     7
370
    25
100
AcDbLine
 10
6481.0809565095
 20
3167.5310430768
 30
0.0
 11
6482.8012985095
 21
3165.1285840768
 31
0.0
  0
LINE
  5
2AB
330
1F
100
AcDbEntity
  8
0
  6
Continuous
 62
     7
370
    25
100
AcDbLine
 10
6482.8012985095
 20
3165.1285840768
 30
0.0
 11
6481.1793815095
 21
3164.6420470768
 31
0.0
  0
LINE
  5
2AC
330
1F
100
AcDbEntity
  8
0
  6
Continuous
 62
     7
370
    25
100
AcDbLine
 10
6481.1793815095
 20
3164.6420470768
 30
0.0
 11
6480.9186505095
 21
3163.2792100768
 31
0.0
  0
LINE
  5
2AD
330
1F
100
AcDbEntity
  8
0
  6
Continuous
 62
     7
370
    25
100
AcDbLine
 10
6480.9186505095
 20
3163.2792100768
 30
0.0
 11
6480.3336885095
 21
3163.2792100768
 31
0.0
  0
LINE
  5
2AE
330
1F
100
AcDbEntity
  8
0
  6
Continuous
 62
     7
370
    25
100
AcDbLine
 10
6480.3336885095
 20
3163.2792100768
 30
0.0
 11
6480.3336885095
 21
3162.4030370768
 31
0.0
  0
LINE
  5
2AF
330
1F
100
AcDbEntity
  8
0
  6
Continuous
 62
     7
370
    25
100
AcDbLine
 10
6480.3336885095
 20
3162.4030370768
 30
0.0
 11
6481.6003865095
 21
3162.1442110768
 31
0.0
  0
LINE
  5
2B0
330
1F
100
AcDbEntity
  8
0
  6
Continuous
 62
     7
370
    25
100
AcDbLine
 10
6481.6003865095
 20
3162.1442110768
 30
0.0
 11
6480.3336885095
 21
3161.1386250768
 31
0.0
  0
LINE
  5
2B1
330
1F
100
AcDbEntity
  8
0
  6
Continuous
 62
     7
370
    25
100
AcDbLine
 10
6480.3336885095
 20
3161.1386250768
 30
0.0
 11
6480.7572335095
 21
3160.0998920768
 31
0.0
  0
LINE
  5
2B2
330
1F
100
AcDbEntity
  8
0
  6
Continuous
 62
     7
370
    25
100
AcDbLine
 10
6480.7572335095
 20
3160.0998920768
 30
0.0
 11
6482.1193085095
 21
3160.6190680768
 31
0.0
  0
LINE
  5
2B3
330
1F
100
AcDbEntity
  8
0
  6
Continuous
 62
     7
370
    25
100
AcDbLine
 10
6482.1193085095
 20
3160.6190680768
 30
0.0
 11
6483.8378725095
 21
3161.3980860768
 31
0.0
  0
LINE
  5
2B4
330
1F
100
AcDbEntity
  8
0
  6
Continuous
 62
     7
370
    25
100
AcDbLine
 10
6483.8378725095
 20
3161.3980860768
 30
0.0
 11
6485.2003285095
 21
3161.7224440768
 31
0.0
  0
LINE
  5
2B5
330
1F
100
AcDbEntity
  8
0
  6
Continuous
 62
     7
370
    25
100
AcDbLine
 10
6485.2003285095
 20
3161.7224440768
 30
0.0
 11
6486.9867105095
 21
3162.7609230768
 31
0.0
  0
LINE
  5
2B6
330
1F
100
AcDbEntity
  8
0
  6
Continuous
 62
     7
370
    25
100
AcDbLine
 10
6486.9867105095
 20
3162.7609230768
 30
0.0
 11
6487.2457905095
 21
3160.7811200768
 31
0.0
  0
LINE
  5
2B7
330
1F
100
AcDbEntity
  8
0
  6
Continuous
 62
     7
370
    25
100
AcDbLine
 10
6487.2457905095
 20
3160.7811200768
 30
0.0
 11
6487.8293555095
 21
3158.4773400768
 31
0.0
  0
LINE
  5
2B8
330
1F
100
AcDbEntity
  8
0
  6
Continuous
 62
     7
370
    25
100
AcDbLine
 10
6487.8293555095
 20
3158.4773400768
 30
0.0
 11
6489.0309025095
 21
3158.4130780768
 31
0.0
  0
LINE
  5
2B9
330
1F
100
AcDbEntity
  8
0
  6
Continuous
 62
     7
370
    25
100
AcDbLine
 10
6489.0309025095
 20
3158.4130780768
 30
0.0
 11
6489.2898555095
 21
3157.0497330768
 31
0.0
  0
LINE
  5
2BA
330
1F
100
AcDbEntity
  8
0
  6
Continuous
 62
     7
370
    25
100
AcDbLine
 10
6489.2898555095
 20
3157.0497330768
 30
0.0
 11
6491.0736975095
 21
3156.8554230768
 31
0.0
  0
LINE
  5
2BB
330
1F
100
AcDbEntity
  8
0
  6
Continuous
 62
     7
370
    25
100
AcDbLine
 10
6491.0736975095
 20
3156.8554230768
 30
0.0
 11
6490.9117725095
 21
3155.9137180768
 31
0.0
  0
LINE
  5
2BC
330
1F
100
AcDbEntity
  8
0
  6
Continuous
 62
     7
370
    25
100
AcDbLine
 10
6490.9117725095
 20
3155.9137180768
 30
0.0
 11
6489.8096665095
 21
3155.7512850768
 31
0.0
  0
LINE
  5
2BD
330
1F
100
AcDbEntity
  8
0
  6
Continuous
 62
     7
370
    25
100
AcDbLine
 10
6489.8096665095
 20
3155.7512850768
 30
0.0
 11
6489.9719725095
 21
3154.5518970768
 31
0.0
  0
LINE
  5
2BE
330
1F
100
AcDbEntity
  8
0
  6
Continuous
 62
     7
370
    25
100
AcDbLine
 10
6489.9719725095
 20
3154.5518970768
 30
0.0
 11
6489.1297085095
 21
3153.5450410768
 31
0.0
  0
LINE
  5
2BF
330
1F
100
AcDbEntity
  8
0
  6
Continuous
 62
     7
370
    25
100
AcDbLine
 10
6489.1297085095
 20
3153.5450410768
 30
0.0
 11
6490.1360565095
 21
3152.6046060768
 31
0.0
  0
LINE
  5
2C0
330
1F
100
AcDbEntity
  8
0
  6
Continuous
 62
     7
370
    25
100
AcDbLine
 10
6490.1360565095
 20
3152.6046060768
 30
0.0
 11
6491.3335395095
 21
3152.8640670768
 31
0.0
  0
LINE
  5
2C1
330
1F
100
AcDbEntity
  8
0
  6
Continuous
 62
     7
370
    25
100
AcDbLine
 10
6491.3335395095
 20
3152.8640670768
 30
0.0
 11
6491.6910445095
 21
3150.8203830768
 31
0.0
  0
LINE
  5
2C2
330
1F
100
AcDbEntity
  8
0
  6
Continuous
 62
     7
370
    25
100
AcDbLine
 10
6491.6910445095
 20
3150.8203830768
 30
0.0
 11
6491.0098165095
 21
3149.7819040768
 31
0.0
  0
LINE
  5
2C3
330
1F
100
AcDbEntity
  8
0
  6
Continuous
 62
     7
370
    25
100
AcDbLine
 10
6491.0098165095
 20
3149.7819040768
 30
0.0
 11
6490.0682385095
 21
3149.6195980768
 31
0.0
  0
LINE
  5
2C4
330
1F
100
AcDbEntity
  8
0
  6
Continuous
 62
     7
370
    25
100
AcDbLine
 10
6490.0682385095
 20
3149.6195980768
 30
0.0
 11
6488.9333665095
 21
3148.5168570768
 31
0.0
  0
LINE
  5
2C5
330
1F
100
AcDbEntity
  8
0
  6
Continuous
 62
     7
370
    25
100
AcDbLine
 10
6488.9333665095
 20
3148.5168570768
 30
0.0
 11
6489.2898555095
 21
3147.8356290768
 31
0.0
  0
LINE
  5
2C6
330
1F
100
AcDbEntity
  8
0
  6
Continuous
 62
     7
370
    25
100
AcDbLine
 10
6489.2898555095
 20
3147.8356290768
 30
0.0
 11
6490.3289695095
 21
3147.6400490768
 31
0.0
  0
LINE
  5
2C7
330
1F
100
AcDbEntity
  8
0
  6
Continuous
 62
     7
370
    25
100
AcDbLine
 10
6490.3289695095
 20
3147.6400490768
 30
0.0
 11
6490.8146175095
 21
3143.6495820768
 31
0.0
  0
LINE
  5
2C8
330
1F
100
AcDbEntity
  8
0
  6
Continuous
 62
     7
370
    25
100
AcDbLine
 10
6490.8146175095
 20
3143.6495820768
 30
0.0
 11
6493.0531195095
 21
3142.0919270768
 31
0.0
  0
LINE
  5
2C9
330
1F
100
AcDbEntity
  8
0
  6
Continuous
 62
     7
370
    25
100
AcDbLine
 10
6493.0531195095
 20
3142.0919270768
 30
0.0
 11
6493.2166955095
 21
3139.2049630768
 31
0.0
  0
LINE
  5
2CA
330
1F
100
AcDbEntity
  8
0
  6
Continuous
 62
     7
370
    25
100
AcDbLine
 10
6493.2166955095
 20
3139.2049630768
 30
0.0
 11
6493.6384625095
 21
3138.0041780768
 31
0.0
  0
LINE
  5
2CB
330
1F
100
AcDbEntity
  8
0
  6
Continuous
 62
     7
370
    25
100
AcDbLine
 10
6493.6384625095
 20
3138.0041780768
 30
0.0
 11
6495.6817655095
 21
3138.7829420768
 31
0.0
  0
LINE
  5
2CC
330
1F
100
AcDbEntity
  8
0
  6
Continuous
 62
     7
370
    25
100
AcDbLine
 10
6495.6817655095
 20
3138.7829420768
 30
0.0
 11
6496.5244105095
 21
3138.4241670768
 31
0.0
  0
LINE
  5
2CD
330
1F
100
AcDbEntity
  8
0
  6
Continuous
 62
     7
370
    25
100
AcDbLine
 10
6496.5244105095
 20
3138.4241670768
 30
0.0
 11
6496.4609105095
 21
3136.2844710768
 31
0.0
  0
LINE
  5
2CE
330
1F
100
AcDbEntity
  8
0
  6
Continuous
 62
     7
370
    25
100
AcDbLine
 10
6496.4609105095
 20
3136.2844710768
 30
0.0
 11
6498.5042135095
 21
3135.9596050768
 31
0.0
  0
LINE
  5
2CF
330
1F
100
AcDbEntity
  8
0
  6
Continuous
 62
     7
370
    25
100
AcDbLine
 10
6498.5042135095
 20
3135.9596050768
 30
0.0
 11
6498.9259805095
 21
3134.8566100768
 31
0.0
  0
LINE
  5
2D0
330
1F
100
AcDbEntity
  8
0
  6
Continuous
 62
     7
370
    25
100
AcDbLine
 10
6498.9259805095
 20
3134.8566100768
 30
0.0
 11
6497.8233665095
 21
3134.0768300768
 31
0.0
  0
LINE
  5
2D1
330
1F
100
AcDbEntity
  8
0
  6
Continuous
 62
     7
370
    25
100
AcDbLine
 10
6497.8233665095
 20
3134.0768300768
 30
0.0
 11
6497.7258305095
 21
3131.7745740768
 31
0.0
  0
LINE
  5
2D2
330
1F
100
AcDbEntity
  8
0
  6
Continuous
 62
     7
370
    25
100
AcDbLine
 10
6497.7258305095
 20
3131.7745740768
 30
0.0
 11
6499.6072085095
 21
3131.0918220768
 31
0.0
  0
LINE
  5
2D3
330
1F
100
AcDbEntity
  8
0
  6
Continuous
 62
     7
370
    25
100
AcDbLine
 10
6499.6072085095
 20
3131.0918220768
 30
0.0
 11
6502.0101755095
 21
3130.5073680768
 31
0.0
  0
LINE
  5
2D4
330
1F
100
AcDbEntity
  8
0
  6
Continuous
 62
     7
370
    25
100
AcDbLine
 10
6505.5781135095
 20
3126.9071720768
 30
0.0
 11
6508.2382555095
 21
3126.2259440768
 31
0.0
  0
LINE
  5
2D5
330
1F
100
AcDbEntity
  8
0
  6
Continuous
 62
     7
370
    25
100
AcDbLine
 10
6508.2382555095
 20
3126.2259440768
 30
0.0
 11
6511.1268705095
 21
3125.2201040768
 31
0.0
  0
LINE
  5
2D6
330
1F
100
AcDbEntity
  8
0
  6
Continuous
 62
     7
370
    25
100
AcDbLine
 10
6511.1268705095
 20
3125.2201040768
 30
0.0
 11
6510.7054845095
 21
3123.1431460768
 31
0.0
  0
LINE
  5
2D7
330
1F
100
AcDbEntity
  8
0
  6
Continuous
 62
     7
370
    25
100
AcDbLine
 10
6510.7054845095
 20
3123.1431460768
 30
0.0
 11
6511.9052535095
 21
3122.3958780768
 31
0.0
  0
LINE
  5
2D8
330
1F
100
AcDbEntity
  8
0
  6
Continuous
 62
     7
370
    25
100
AcDbLine
 10
6511.9052535095
 20
3122.3958780768
 30
0.0
 11
6511.7442175095
 21
3120.6453100768
 31
0.0
  0
LINE
  5
2D9
330
1F
100
AcDbEntity
  8
0
  6
Continuous
 62
     7
370
    25
100
AcDbLine
 10
6511.7442175095
 20
3120.6453100768
 30
0.0
 11
6514.9866545095
 21
3120.9691600768
 31
0.0
  0
LINE
  5
2DA
330
1F
100
AcDbEntity
  8
0
  6
Continuous
 62
     7
370
    25
100
AcDbLine
 10
6514.9866545095
 20
3120.9691600768
 30
0.0
 11
6518.2007705095
 21
3121.0666960768
 31
0.0
  0
LINE
  5
2DB
330
1F
100
AcDbEntity
  8
0
  6
Continuous
 62
     7
370
    25
100
AcDbLine
 10
6518.2007705095
 20
3121.0666960768
 30
0.0
 11
6518.1338415095
 21
3118.4061730768
 31
0.0
  0
LINE
  5
2DC
330
1F
100
AcDbEntity
  8
0
  6
Continuous
 62
     7
370
    25
100
AcDbLine
 10
6518.1338415095
 20
3118.4061730768
 30
0.0
 11
6520.2759505095
 21
3118.4061730768
 31
0.0
  0
LINE
  5
2DD
330
1F
100
AcDbEntity
  8
0
  6
Continuous
 62
     7
370
    25
100
AcDbLine
 10
6520.2759505095
 20
3118.4061730768
 30
0.0
 11
6519.4971865095
 21
3115.6803720768
 31
0.0
  0
LINE
  5
2DE
330
1F
100
AcDbEntity
  8
0
  6
Continuous
 62
     7
370
    25
100
AcDbLine
 10
6519.4971865095
 20
3115.6803720768
 30
0.0
 11
6520.3416095095
 21
3114.1554830768
 31
0.0
  0
LINE
  5
2DF
330
1F
100
AcDbEntity
  8
0
  6
Continuous
 62
     7
370
    25
100
AcDbLine
 10
6520.3416095095
 20
3114.1554830768
 30
0.0
 11
6519.0763085095
 21
3114.1554830768
 31
0.0
  0
LINE
  5
2E0
330
1F
100
AcDbEntity
  8
0
  6
Continuous
 62
     7
370
    25
100
AcDbLine
 10
6519.0763085095
 20
3114.1554830768
 30
0.0
 11
6513.1705545095
 21
3113.2149210768
 31
0.0
  0
LINE
  5
2E1
330
1F
100
AcDbEntity
  8
0
  6
Continuous
 62
     7
370
    25
100
AcDbLine
 10
6513.1705545095
 20
3113.2149210768
 30
0.0
 11
6510.7054845095
 21
3106.8860030768
 31
0.0
  0
LINE
  5
2E2
330
1F
100
AcDbEntity
  8
0
  6
Continuous
 62
     7
370
    25
100
AcDbLine
 10
6510.7054845095
 20
3106.8860030768
 30
0.0
 11
6511.1268705095
 21
3104.8440970768
 31
0.0
  0
LINE
  5
2E3
330
1F
100
AcDbEntity
  8
0
  6
Continuous
 62
     7
370
    25
100
AcDbLine
 10
6511.1268705095
 20
3104.8440970768
 30
0.0
 11
6509.2454925095
 21
3104.7456720768
 31
0.0
  0
LINE
  5
2E4
330
1F
100
AcDbEntity
  8
0
  6
Continuous
 62
     7
370
    25
100
AcDbLine
 10
6509.2454925095
 20
3104.7456720768
 30
0.0
 11
6507.9801915095
 21
3103.7397050768
 31
0.0
  0
LINE
  5
2E5
330
1F
100
AcDbEntity
  8
0
  6
Continuous
 62
     7
370
    25
100
AcDbLine
 10
6507.9801915095
 20
3103.7397050768
 30
0.0
 11
6507.4608885095
 21
3101.9551010768
 31
0.0
  0
LINE
  5
2E6
330
1F
100
AcDbEntity
  8
0
  6
Continuous
 62
     7
370
    25
100
AcDbLine
 10
6507.4608885095
 20
3101.9551010768
 30
0.0
 11
6502.8532015095
 21
3101.0809600768
 31
0.0
  0
LINE
  5
2E7
330
1F
100
AcDbEntity
  8
0
  6
Continuous
 62
     7
370
    25
100
AcDbLine
 10
6502.8532015095
 20
3101.0809600768
 30
0.0
 11
6501.8473615095
 21
3099.8790320768
 31
0.0
  0
LINE
  5
2E8
330
1F
100
AcDbEntity
  8
0
  6
Continuous
 62
     7
370
    25
100
AcDbLine
 10
6501.8473615095
 20
3099.8790320768
 30
0.0
 11
6499.7704035095
 21
3100.4946010768
 31
0.0
  0
LINE
  5
2E9
330
1F
100
AcDbEntity
  8
0
  6
Continuous
 62
     7
370
    25
100
AcDbLine
 10
6499.7704035095
 20
3100.4946010768
 30
0.0
 11
6498.6017495095
 21
3098.4518060768
 31
0.0
  0
LINE
  5
2EA
330
1F
100
AcDbEntity
  8
0
  6
Continuous
 62
     7
370
    25
100
AcDbLine
 10
6498.6017495095
 20
3098.4518060768
 30
0.0
 11
6497.5644135095
 21
3097.3479220768
 31
0.0
  0
LINE
  5
2EB
330
1F
100
AcDbEntity
  8
0
  6
Continuous
 62
     7
370
    25
100
AcDbLine
 10
6497.5644135095
 20
3097.3479220768
 30
0.0
 11
6496.7855225095
 21
3095.7260050768
 31
0.0
  0
LINE
  5
2EC
330
1F
100
AcDbEntity
  8
0
  6
Continuous
 62
     7
370
    25
100
AcDbLine
 10
6496.7855225095
 20
3095.7260050768
 30
0.0
 11
6496.7855225095
 21
3093.4863600768
 31
0.0
  0
LINE
  5
2ED
330
1F
100
AcDbEntity
  8
0
  6
Continuous
 62
     7
370
    25
100
AcDbLine
 10
6496.7855225095
 20
3093.4863600768
 30
0.0
 11
6497.6610605095
 21
3093.1633990768
 31
0.0
  0
LINE
  5
2EE
330
1F
100
AcDbEntity
  8
0
  6
Continuous
 62
     7
370
    25
100
AcDbLine
 10
6497.6610605095
 20
3093.1633990768
 30
0.0
 11
6497.9214105095
 21
3088.7176370768
 31
0.0
  0
LINE
  5
2EF
330
1F
100
AcDbEntity
  8
0
  6
Continuous
 62
     7
370
    25
100
AcDbLine
 10
6497.9214105095
 20
3088.7176370768
 30
0.0
 11
6495.1628435095
 21
3086.5112660768
 31
0.0
  0
LINE
  5
2F0
330
1F
100
AcDbEntity
  8
0
  6
Continuous
 62
     7
370
    25
100
AcDbLine
 10
6495.1628435095
 20
3086.5112660768
 30
0.0
 11
6495.1628435095
 21
3085.1479210768
 31
0.0
  0
LINE
  5
2F1
330
1F
100
AcDbEntity
  8
0
  6
Continuous
 62
     7
370
    25
100
AcDbLine
 10
6495.1628435095
 20
3085.1479210768
 30
0.0
 11
6500.2240475095
 21
3085.1479210768
 31
0.0
  0
LINE
  5
2F2
330
1F
100
AcDbEntity
  8
0
  6
Continuous
 62
     7
370
    25
100
AcDbLine
 10
6500.2240475095
 20
3085.1479210768
 30
0.0
 11
6496.7203715095
 21
3080.9621280768
 31
0.0
  0
LINE
  5
2F3
330
1F
100
AcDbEntity
  8
0
  6
Continuous
 62
     7
370
    25
100
AcDbLine
 10
6496.7203715095
 20
3080.9621280768
 30
0.0
 11
6496.7203715095
 21
3076.6152990768
 31
0.0
  0
LINE
  5
2F4
330
1F
100
AcDbEntity
  8
0
  6
Continuous
 62
     7
370
    25
100
AcDbLine
 10
6496.7203715095
 20
3076.6152990768
 30
0.0
 11
6496.3642635095
 21
3075.5756770768
 31
0.0
  0
ENDSEC
  0
SECTION
  2
OBJECTS
  0
DICTIONARY
  5
C
330
0
100
AcDbDictionary
281
     1
  3
ACAD_GROUP
350
D
  3
ACAD_LAYOUT
350
1A
  3
ACAD_MLINESTYLE
350
17
  3
ACAD_PLOTSETTINGS
350
19
  3
ACAD_PLOTSTYLENAME
350
E
  3
ACAD_SCALELIST
350
47
  0
DICTIONARY
  5
D
102
{ACAD_REACTORS
330
C
102
}
330
C
100
AcDbDictionary
281
     1
  0
DICTIONARY
  5
1A
102
{ACAD_REACTORS
330
C
102
}
330
C
100
AcDbDictionary
281
     1
  3
Layout1
350
1E
  3
Layout2
350
26
  3
Model
350
22
  0
DICTIONARY
  5
17
102
{ACAD_REACTORS
330
C
102
}
330
C
100
AcDbDictionary
281
     1
  3
Standard
350
18
  0
DICTIONARY
  5
19
102
{ACAD_REACTORS
330
C
102
}
330
C
100
AcDbDictionary
281
     1
  0
ACDBDICTIONARYWDFLT
  5
E
102
{ACAD_REACTORS
330
C
102
}
330
C
100
AcDbDictionary
281
     1
  3
Normal
350
F
100
AcDbDictionaryWithDefault
340
F
  0
DICTIONARY
  5
47
102
{ACAD_REACTORS
330
C
102
}
330
C
100
AcDbDictionary
281
     1
  3
A0
350
48
  3
A1
350
49
  3
A2
350
4A
  3
A3
350
4B
  3
A4
350
4C
  3
A5
350
4D
  3
A6
350
4E
  3
A7
350
4F
  3
A8
350
50
  3
A9
350
51
  3
B0
350
52
  3
B1
350
53
  3
B2
350
54
  3
B3
350
55
  3
B4
350
56
  3
B5
350
57
  3
B6
350
58
  3
B7
350
59
  3
B8
350
5A
  3
B9
350
5B
  3
C0
350
5C
  3
C1
350
5D
  3
C2
350
5E
  3
C3
350
5F
  3
C4
350
60
  3
C5
350
61
  3
C6
350
62
  3
C7
350
63
  3
C8
350
64
  3
C9
350
65
  3
D0
350
66
  3
D1
350
67
  3
D2
350
68
  0
LAYOUT
  5
1E
102
{ACAD_REACTORS
330
1A
102
}
330
1A
100
AcDbPlotSettings
  1

  2
none_device
  4

  6

 40
0.0
 41
0.0
 42
0.0
 43
0.0
 44
0.0
 45
0.0
 46
0.0
 47
0.0
 48
0.0
 49
0.0
140
0.0
141
0.0
142
1.0
143
1.0
 70
   688
 72
     1
 73
     0
 74
     5
  7

 75
    16
147
1.0
148
0.0
149
0.0
100
AcDbLayout
  1
Layout1
 70
     1
 71
     1
 10
0.0
 20
0.0
 11
420.0
 21
297.0
 12
0.0
 22
0.0
 32
0.0
 14
1.0000000000E+20
 24
1.0000000000E+20
 34
1.0000000000E+20
 15
-1.0000000000E+20
 25
-1.0000000000E+20
 35
-1.0000000000E+20
146
0.0
 13
0.0
 23
0.0
 33
0.0
 16
1.0
 26
0.0
 36
0.0
 17
0.0
 27
1.0
 37
0.0
 76
     0
330
1B
  0
LAYOUT
  5
26
102
{ACAD_REACTORS
330
1A
102
}
330
1A
100
AcDbPlotSettings
  1

  2
none_device
  4

  6

 40
0.0
 41
0.0
 42
0.0
 43
0.0
 44
0.0
 45
0.0
 46
0.0
 47
0.0
 48
0.0
 49
0.0
140
0.0
141
0.0
142
1.0
143
1.0
 70
   688
 72
     1
 73
     0
 74
     5
  7

 75
    16
147
1.0
148
0.0
149
0.0
100
AcDbLayout
  1
Layout2
 70
     1
 71
     2
 10
0.0
 20
0.0
 11
0.0
 21
0.0
 12
0.0
 22
0.0
 32
0.0
 14
0.0
 24
0.0
 34
0.0
 15
0.0
 25
0.0
 35
0.0
146
0.0
 13
0.0
 23
0.0
 33
0.0
 16
1.0
 26
0.0
 36
0.0
 17
0.0
 27
1.0
 37
0.0
 76
     0
330
23
  0
LAYOUT
  5
22
102
{ACAD_REACTORS
330
1A
102
}
330
1A
100
AcDbPlotSettings
  1

  2
none_device
  4
ANSI_A_(11.00_x_8.50_Inches)
  6

 40
6.35
 41
19.05
 42
6.35000508
 43
19.05000254
 44
279.4
 45
215.9
 46
-12153.4387995068
 47
-5823.6097918994
 48
0.0
 49
0.0
140
0.0
141
0.0
142
0.074653594
143
1.0
 70
  1696
 72
     0
 73
     0
 74
     0
  7

 75
     0
147
0.0179189148
148
-1300.4909072572
149
0.0
100
AcDbLayout
  1
Model
 70
     1
 71
     0
 10
0.0
 20
0.0
 11
420.0
 21
297.0
 12
0.0
 22
0.0
 32
0.0
 14
6439.0302405095
 24
3061.7209930768
 34
0.0
 15
6520.3416095095
 25
3174.4416210768
 35
0.0
146
0.0
 13
0.0
 23
0.0
 33
0.0
 16
1.0
 26
0.0
 36
0.0
 17
0.0
 27
1.0
 37
0.0
 76
     0
330
1F
331
29
  0
MLINESTYLE
  5
18
102
{ACAD_REACTORS
330
17
102
}
330
17
100
AcDbMlineStyle
  2
Standard
 70
     0
  3

 62
   256
 51
90.0
 52
90.0
 71
     2
 49
0.5
 62
   256
  6
BYLAYER
 49
-0.5
 62
   256
  6
BYLAYER
  0
ACDBPLACEHOLDER
  5
F
102
{ACAD_REACTORS
330
E
102
}
330
E
  0
SCALE
  5
48
102
{ACAD_REACTORS
330
47
102
}
330
47
100
AcDbScale
 70
     0
300
1:1
140
1.0
141
1.0
290
     1
  0
SCALE
  5
49
102
{ACAD_REACTORS
330
47
102
}
330
47
100
AcDbScale
 70
     0
300
1:2
140
1.0
141
2.0
290
     0
  0
SCALE
  5
4A
102
{ACAD_REACTORS
330
47
102
}
330
47
100
AcDbScale
 70
     0
300
1:4
140
1.0
141
4.0
290
     0
  0
SCALE
  5
4B
102
{ACAD_REACTORS
330
47
102
}
330
47
100
AcDbScale
 70
     0
300
1:5
140
1.0
141
5.0
290
     0
  0
SCALE
  5
4C
102
{ACAD_REACTORS
330
47
102
}
330
47
100
AcDbScale
 70
     0
300
1:8
140
1.0
141
8.0
290
     0
  0
SCALE
  5
4D
102
{ACAD_REACTORS
330
47
102
}
330
47
100
AcDbScale
 70
     0
300
1:10
140
1.0
141
10.0
290
     0
  0
SCALE
  5
4E
102
{ACAD_REACTORS
330
47
102
}
330
47
100
AcDbScale
 70
     0
300
1:16
140
1.0
141
16.0
290
     0
  0
SCALE
  5
4F
102
{ACAD_REACTORS
330
47
102
}
330
47
100
AcDbScale
 70
     0
300
1:20
140
1.0
141
20.0
290
     0
  0
SCALE
  5
50
102
{ACAD_REACTORS
330
47
102
}
330
47
100
AcDbScale
 70
     0
300
1:30
140
1.0
141
30.0
290
     0
  0
SCALE
  5
51
102
{ACAD_REACTORS
330
47
102
}
330
47
100
AcDbScale
 70
     0
300
1:40
140
1.0
141
40.0
290
     0
  0
SCALE
  5
52
102
{ACAD_REACTORS
330
47
102
}
330
47
100
AcDbScale
 70
     0
300
1:50
140
1.0
141
50.0
290
     0
  0
SCALE
  5
53
102
{ACAD_REACTORS
330
47
102
}
330
47
100
AcDbScale
 70
     0
300
1:100
140
1.0
141
100.0
290
     0
  0
SCALE
  5
54
102
{ACAD_REACTORS
330
47
102
}
330
47
100
AcDbScale
 70
     0
300
2:1
140
2.0
141
1.0
290
     0
  0
SCALE
  5
55
102
{ACAD_REACTORS
330
47
102
}
330
47
100
AcDbScale
 70
     0
300
4:1
140
4.0
141
1.0
290
     0
  0
SCALE
  5
56
102
{ACAD_REACTORS
330
47
102
}
330
47
100
AcDbScale
 70
     0
300
8:1
140
8.0
141
1.0
290
     0
  0
SCALE
  5
57
102
{ACAD_REACTORS
330
47
102
}
330
47
100
AcDbScale
 70
     0
300
10:1
140
10.0
141
1.0
290
     0
  0
SCALE
  5
58
102
{ACAD_REACTORS
330
47
102
}
330
47
100
AcDbScale
 70
     0
300
100:1
140
100.0
141
1.0
290
     0
  0
SCALE
  5
59
102
{ACAD_REACTORS
330
47
102
}
330
47
100
AcDbScale
 70
     0
300
1/128" = 1'-0"
140
0.0078125
141
12.0
290
     0
  0
SCALE
  5
5A
102
{ACAD_REACTORS
330
47
102
}
330
47
100
AcDbScale
 70
     0
300
1/64" = 1'-0"
140
0.015625
141
12.0
290
     0
  0
SCALE
  5
5B
102
{ACAD_REACTORS
330
47
102
}
330
47
100
AcDbScale
 70
     0
300
1/32" = 1'-0"
140
0.03125
141
12.0
290
     0
  0
SCALE
  5
5C
102
{ACAD_REACTORS
330
47
102
}
330
47
100
AcDbScale
 70
     0
300
1/16" = 1'-0"
140
0.0625
141
12.0
290
     0
  0
SCALE
  5
5D
102
{ACAD_REACTORS
330
47
102
}
330
47
100
AcDbScale
 70
     0
300
3/32" = 1'-0"
140
0.09375
141
12.0
290
     0
  0
SCALE
  5
5E
102
{ACAD_REACTORS
330
47
102
}
330
47
100
AcDbScale
 70
     0
300
1/8" = 1'-0"
140
0.125
141
12.0
290
     0
  0
SCALE
  5
5F
102
{ACAD_REACTORS
330
47
102
}
330
47
100
AcDbScale
 70
     0
300
3/16" = 1'-0"
140
0.1875
141
12.0
290
     0
  0
SCALE
  5
60
102
{ACAD_REACTORS
330
47
102
}
330
47
100
AcDbScale
 70
     0
300
1/4" = 1'-0"
140
0.25
141
12.0
290
     0
  0
SCALE
  5
61
102
{ACAD_REACTORS
330
47
102
}
330
47
100
AcDbScale
 70
     0
300
3/8" = 1'-0"
140
0.375
141
12.0
290
     0
  0
SCALE
  5
62
102
{ACAD_REACTORS
330
47
102
}
330
47
100
AcDbScale
 70
     0
300
1/2" = 1'-0"
140
0.5
141
12.0
290
     0
  0
SCALE
  5
63
102
{ACAD_REACTORS
330
47
102
}
330
47
100
AcDbScale
 70
     0
300
3/4" = 1'-0"
140
0.75
141
12.0
290
     0
  0
SCALE
  5
64
102
{ACAD_REACTORS
330
47
102
}
330
47
100
AcDbScale
 70
     0
300
1" = 1'-0"
140
1.0
141
12.0
290
     0
  0
SCALE
  5
65
102
{ACAD_REACTORS
330
47
102
}
330
47
100
AcDbScale
 70
     0
300
1-1/2" = 1'-0"
140
1.5
141
12.0
290
     0
  0
SCALE
  5
66
102
{ACAD_REACTORS
330
47
102
}
330
47
100
AcDbScale
 70
     0
300
3" = 1'-0"
140
3.0
141
12.0
290
     0
  0
SCALE
  5
67
102
{ACAD_REACTORS
330
47
102
}
330
47
100
AcDbScale
 70
     0
300
6" = 1'-0"
140
6.0
141
12.0
290
     0
  0
SCALE
  5
68
102
{ACAD_REACTORS
330
47
102
}
330
47
100
AcDbScale
 70
     0
300
1'-0" = 1'-0"
140
12.0
141
12.0
290
     0
  0
ENDSEC
  0
EOF
