  0
SECTION
  2
HEADER
  9
$ACADVER
  1
AC1015
  9
$ACADMAINTVER
 70
     6
  9
$DWGCODEPAGE
  3
ANSI_1251
  9
$INSBASE
 10
0.0
 20
0.0
 30
0.0
  9
$EXTMIN
 10
6113.8869473081
 20
5557.3874260987
 30
0.0
  9
$EXTMAX
 10
6188.5798383081
 20
5660.3425160987
 30
0.0
  9
$LIMMIN
 10
0.0
 20
0.0
  9
$LIMMAX
 10
420.0
 20
297.0
  9
$ORTHOMODE
 70
     0
  9
$REGENMODE
 70
     1
  9
$FILLMODE
 70
     1
  9
$QTEXTMODE
 70
     0
  9
$MIRRTEXT
 70
     1
  9
$LTSCALE
 40
1.0
  9
$ATTMODE
 70
     1
  9
$TEXTSIZE
 40
4.0
  9
$TRACEWID
 40
1.0
  9
$TEXTSTYLE
  7
Standard
  9
$CLAYER
  8
0
  9
$CELTYPE
  6
ByLayer
  9
$CECOLOR
 62
   256
  9
$CELTSCALE
 40
1.0
  9
$DISPSILH
 70
     0
  9
$DIMSCALE
 40
1.0
  9
$DIMASZ
 40
6.0
  9
$DIMEXO
 40
1.0
  9
$DIMDLI
 40
3.75
  9
$DIMRND
 40
0.0
  9
$DIMDLE
 40
0.0
  9
$DIMEXE
 40
1.0
  9
$DIMTP
 40
0.0
  9
$DIMTM
 40
0.0
  9
$DIMTXT
 40
4.0
  9
$DIMCEN
 40
2.5
  9
$DIMTSZ
 40
0.0
  9
$DIMTOL
 70
     0
  9
$DIMLIM
 70
     0
  9
$DIMTIH
 70
     1
  9
$DIMTOH
 70
     1
  9
$DIMSE1
 70
     0
  9
$DIMSE2
 70
     0
  9
$DIMTAD
 70
     1
  9
$DIMZIN
 70
     0
  9
$DIMBLK
  1

  9
$DIMASO
 70
     1
  9
$DIMSHO
 70
     1
  9
$DIMPOST
  1

  9
$DIMAPOST
  1

  9
$DIMALT
 70
     0
  9
$DIMALTD
 70
     3
  9
$DIMALTF
 40
0.0393700787
  9
$DIMLFAC
 40
1.0
  9
$DIMTOFL
 70
     1
  9
$DIMTVP
 40
0.0
  9
$DIMTIX
 70
     0
  9
$DIMSOXD
 70
     0
  9
$DIMSAH
 70
     0
  9
$DIMBLK1
  1

  9
$DIMBLK2
  1

  9
$DIMSTYLE
  2
ISO-25
  9
$DIMCLRD
 70
     0
  9
$DIMCLRE
 70
     0
  9
$DIMCLRT
 70
     0
  9
$DIMTFAC
 40
1.0
  9
$DIMGAP
 40
3.0
  9
$DIMJUST
 70
     0
  9
$DIMSD1
 70
     0
  9
$DIMSD2
 70
     0
  9
$DIMTOLJ
 70
     0
  9
$DIMTZIN
 70
     0
  9
$DIMALTZ
 70
     0
  9
$DIMALTTZ
 70
     0
  9
$DIMUPT
 70
     0
  9
$DIMDEC
 70
     2
  9
$DIMTDEC
 70
     4
  9
$DIMALTU
 70
     2
  9
$DIMALTTD
 70
     3
  9
$DIMTXSTY
  7
Standard
  9
$DIMAUNIT
 70
     0
  9
$DIMADEC
 70
     2
  9
$DIMALTRND
 40
0.0
  9
$DIMAZIN
 70
     0
  9
$DIMDSEP
 70
    44
  9
$DIMATFIT
 70
     3
  9
$DIMFRAC
 70
     0
  9
$DIMLDRBLK
  1

  9
$DIMLUNIT
 70
     2
  9
$DIMLWD
 70
    -2
  9
$DIMLWE
 70
    -2
  9
$DIMTMOVE
 70
     0
  9
$LUNITS
 70
     2
  9
$LUPREC
 70
     2
  9
$SKETCHINC
 40
1.0
  9
$FILLETRAD
 40
10.0
  9
$AUNITS
 70
     1
  9
$AUPREC
 70
     2
  9
$MENU
  1
.
  9
$ELEVATION
 40
0.0
  9
$PELEVATION
 40
0.0
  9
$THICKNESS
 40
0.0
  9
$LIMCHECK
 70
     0
  9
$CHAMFERA
 40
0.0
  9
$CHAMFERB
 40
0.0
  9
$CHAMFERC
 40
0.0
  9
$CHAMFERD
 40
0.0
  9
$SKPOLY
 70
     0
  9
$TDCREATE
 40
2460368.658807465
  9
$TDUCREATE
 40
2460368.575474132
  9
$TDUPDATE
 40
2460368.658835336
  9
$TDUUPDATE
 40
2460368.575502002
  9
$TDINDWG
 40
0.0000000116
  9
$TDUSRTIMER
 40
0.0000000116
  9
$USRTIMER
 70
     1
  9
$ANGBASE
 50
0.0
  9
$ANGDIR
 70
     0
  9
$PDMODE
 70
     0
  9
$PDSIZE
 40
-1.0
  9
$PLINEWID
 40
0.0
  9
$SPLFRAME
 70
     0
  9
$SPLINETYPE
 70
     6
  9
$SPLINESEGS
 70
     8
  9
$HANDSEED
  5
298
  9
$SURFTAB1
 70
     6
  9
$SURFTAB2
 70
     6
  9
$SURFTYPE
 70
     6
  9
$SURFU
 70
     6
  9
$SURFV
 70
     6
  9
$UCSBASE
  2

  9
$UCSNAME
  2

  9
$UCSORG
 10
0.0
 20
0.0
 30
0.0
  9
$UCSXDIR
 10
1.0
 20
0.0
 30
0.0
  9
$UCSYDIR
 10
0.0
 20
1.0
 30
0.0
  9
$UCSORTHOREF
  2

  9
$UCSORTHOVIEW
 70
     0
  9
$UCSORGTOP
 10
0.0
 20
0.0
 30
0.0
  9
$UCSORGBOTTOM
 10
0.0
 20
0.0
 30
0.0
  9
$UCSORGLEFT
 10
0.0
 20
0.0
 30
0.0
  9
$UCSORGRIGHT
 10
0.0
 20
0.0
 30
0.0
  9
$UCSORGFRONT
 10
0.0
 20
0.0
 30
0.0
  9
$UCSORGBACK
 10
0.0
 20
0.0
 30
0.0
  9
$PUCSBASE
  2

  9
$PUCSNAME
  2

  9
$PUCSORG
 10
0.0
 20
0.0
 30
0.0
  9
$PUCSXDIR
 10
1.0
 20
0.0
 30
0.0
  9
$PUCSYDIR
 10
0.0
 20
1.0
 30
0.0
  9
$PUCSORTHOREF
  2

  9
$PUCSORTHOVIEW
 70
     0
  9
$PUCSORGTOP
 10
0.0
 20
0.0
 30
0.0
  9
$PUCSORGBOTTOM
 10
0.0
 20
0.0
 30
0.0
  9
$PUCSORGLEFT
 10
0.0
 20
0.0
 30
0.0
  9
$PUCSORGRIGHT
 10
0.0
 20
0.0
 30
0.0
  9
$PUCSORGFRONT
 10
0.0
 20
0.0
 30
0.0
  9
$PUCSORGBACK
 10
0.0
 20
0.0
 30
0.0
  9
$USERI1
 70
     0
  9
$USERI2
 70
     0
  9
$USERI3
 70
     0
  9
$USERI4
 70
     0
  9
$USERI5
 70
     0
  9
$USERR1
 40
0.0
  9
$USERR2
 40
0.0
  9
$USERR3
 40
0.0
  9
$USERR4
 40
0.0
  9
$USERR5
 40
0.0
  9
$WORLDVIEW
 70
     1
  9
$SHADEDGE
 70
     3
  9
$SHADEDIF
 70
    70
  9
$TILEMODE
 70
     1
  9
$MAXACTVP
 70
    64
  9
$PINSBASE
 10
0.0
 20
0.0
 30
0.0
  9
$PLIMCHECK
 70
     0
  9
$PEXTMIN
 10
1.0000000000E+20
 20
1.0000000000E+20
 30
1.0000000000E+20
  9
$PEXTMAX
 10
-1.0000000000E+20
 20
-1.0000000000E+20
 30
-1.0000000000E+20
  9
$PLIMMIN
 10
0.0
 20
0.0
  9
$PLIMMAX
 10
420.0
 20
297.0
  9
$UNITMODE
 70
     0
  9
$VISRETAIN
 70
     1
  9
$PLINEGEN
 70
     0
  9
$PSLTSCALE
 70
     1
  9
$TREEDEPTH
 70
  3020
  9
$CMLSTYLE
  2
Standard
  9
$CMLJUST
 70
     0
  9
$CMLSCALE
 40
20.0
  9
$PROXYGRAPHICS
 70
     1
  9
$MEASUREMENT
 70
     1
  9
$CELWEIGHT
370
    -1
  9
$ENDCAPS
280
     0
  9
$JOINSTYLE
280
     0
  9
$LWDISPLAY
290
     1
  9
$INSUNITS
 70
     4
  9
$HYPERLINKBASE
  1

  9
$STYLESHEET
  1

  9
$XEDIT
290
     1
  9
$CEPSNTYPE
380
     0
  9
$PSTYLEMODE
290
     1
  9
$FINGERPRINTGUID
  2
{bf5ee6c3-6f67-4a6f-b2d8-1cc31694357d}
  9
$VERSIONGUID
  2
{FAEB1C32-E019-11D5-929B-00C0DF256EC4}
  9
$EXTNAMES
290
     1
  9
$PSVPSCALE
 40
0.0
  9
$OLESTARTUP
290
     0
  0
ENDSEC
  0
SECTION
  2
CLASSES
  0
CLASS
  1
ACDBDICTIONARYWDFLT
  2
AcDbDictionaryWithDefault
  3
ObjectDBX Classes
 90
        0
280
     0
281
     0
  0
CLASS
  1
VISUALSTYLE
  2
AcDbVisualStyle
  3
ObjectDBX Classes
 90
     4095
280
     0
281
     0
  0
CLASS
  1
MATERIAL
  2
AcDbMaterial
  3
ObjectDBX Classes
 90
     1153
280
     0
281
     0
  0
CLASS
  1
SCALE
  2
AcDbScale
  3
ObjectDBX Classes
 90
     1153
280
     0
281
     0
  0
CLASS
  1
TABLESTYLE
  2
AcDbTableStyle
  3
ObjectDBX Classes
 90
     4095
280
     0
281
     0
  0
CLASS
  1
MLEADERSTYLE
  2
AcDbMLeaderStyle
  3
ACDB_MLEADERSTYLE_CLASS
 90
     4095
280
     0
281
     0
  0
CLASS
  1
SUN
  2
AcDbSun
  3
SCENEOE
 90
     1153
280
     0
281
     0
  0
CLASS
  1
ACDBPLACEHOLDER
  2
AcDbPlaceHolder
  3
ObjectDBX Classes
 90
        0
280
     0
281
     0
  0
CLASS
  1
LAYOUT
  2
AcDbLayout
  3
ObjectDBX Classes
 90
        0
280
     0
281
     0
  0
ENDSEC
  0
SECTION
  2
TABLES
  0
TABLE
  2
VPORT
  5
8
330
0
100
AcDbSymbolTable
 70
     1
  0
VPORT
  5
29
330
8
100
AcDbSymbolTableRecord
100
AcDbViewportTableRecord
  2
*Active
 70
     0
 10
0.0
 20
0.0
 11
1.0
 21
1.0
 12
6151.2333928081
 22
5608.8649710987
 13
0.0
 23
0.0
 14
10.0
 24
10.0
 15
10.0
 25
10.0
 16
0.0
 26
0.0
 36
1.0
 17
0.0
 27
0.0
 37
0.0
 40
105.0141918
 41
0.7254900268
 42
50.0
 43
0.0
 44
0.0
 50
0.0
 51
0.0
 71
     0
 72
   100
 73
     1
 74
     3
 75
     0
 76
     0
 77
     0
 78
     0
281
     0
 65
     1
110
0.0
120
0.0
130
0.0
111
1.0
121
0.0
131
0.0
112
0.0
122
1.0
132
0.0
 79
     0
146
0.0
  0
ENDTAB
  0
TABLE
  2
LTYPE
  5
5
330
0
100
AcDbSymbolTable
 70
     6
  0
LTYPE
  5
14
330
5
100
AcDbSymbolTableRecord
100
AcDbLinetypeTableRecord
  2
ByBlock
 70
     0
  3

 72
    65
 73
     0
 40
0.0
  0
LTYPE
  5
15
330
5
100
AcDbSymbolTableRecord
100
AcDbLinetypeTableRecord
  2
ByLayer
 70
     0
  3

 72
    65
 73
     0
 40
0.0
  0
LTYPE
  5
16
330
5
100
AcDbSymbolTableRecord
100
AcDbLinetypeTableRecord
  2
Continuous
 70
     0
  3
Solid line
 72
    65
 73
     0
 40
0.0
  0
LTYPE
  5
6E
330
5
100
AcDbSymbolTableRecord
100
AcDbLinetypeTableRecord
  2
HIDDEN
 70
     0
  3
Hidden __ __ __ __ __ __ __ __ __ __ __ __ __ __
 72
    65
 73
     2
 40
1.905
 49
1.27
 74
     0
 49
-0.635
 74
     0
  0
LTYPE
  5
6F
330
5
100
AcDbSymbolTableRecord
100
AcDbLinetypeTableRecord
  2
PHANTOM
 70
     0
  3
Phantom ______  __  __  ______  __  __  ______
 72
    65
 73
     6
 40
12.7
 49
6.35
 74
     0
 49
-1.27
 74
     0
 49
1.27
 74
     0
 49
-1.27
 74
     0
 49
1.27
 74
     0
 49
-1.27
 74
     0
  0
LTYPE
  5
70
330
5
100
AcDbSymbolTableRecord
100
AcDbLinetypeTableRecord
  2
CENTER
 70
     0
  3
Center ____ _ ____ _ ____ _ ____ _ ____ _ ____
 72
    65
 73
     4
 40
10.16
 49
6.35
 74
     0
 49
-1.27
 74
     0
 49
1.27
 74
     0
 49
-1.27
 74
     0
  0
LTYPE
  5
71
330
5
100
AcDbSymbolTableRecord
100
AcDbLinetypeTableRecord
  2
CENTERX2
 70
     0
  3
Center (2x) ________  __  ________  __  _____
 72
    65
 73
     4
 40
20.32
 49
12.7
 74
     0
 49
-2.54
 74
     0
 49
2.54
 74
     0
 49
-2.54
 74
     0
  0
LTYPE
  5
72
330
5
100
AcDbSymbolTableRecord
100
AcDbLinetypeTableRecord
  2
DOT2
 70
     0
  3
Dot (.5x) ........................................
 72
    65
 73
     2
 40
0.635
 49
0.0
 74
     0
 49
-0.635
 74
     0
  0
ENDTAB
  0
TABLE
  2
LAYER
  5
2
330
0
100
AcDbSymbolTable
 70
     1
  0
LAYER
  5
10
330
2
100
AcDbSymbolTableRecord
100
AcDbLayerTableRecord
  2
0
 70
     0
 62
     7
  6
Continuous
370
    -3
390
F
  0
ENDTAB
  0
TABLE
  2
STYLE
  5
3
330
0
100
AcDbSymbolTable
 70
     1
  0
STYLE
  5
11
330
3
100
AcDbSymbolTableRecord
100
AcDbTextStyleTableRecord
  2
Standard
 70
     0
 40
0.0
 41
1.0
 50
0.0
 71
     0
 42
4.0
  3
txt
  4

  0
ENDTAB
  0
TABLE
  2
VIEW
  5
6
330
0
100
AcDbSymbolTable
 70
     0
  0
ENDTAB
  0
TABLE
  2
UCS
  5
7
330
0
100
AcDbSymbolTable
 70
     0
  0
ENDTAB
  0
TABLE
  2
APPID
  5
9
330
0
100
AcDbSymbolTable
 70
     1
  0
APPID
  5
12
330
9
100
AcDbSymbolTableRecord
100
AcDbRegAppTableRecord
  2
ACAD
 70
     0
  0
ENDTAB
  0
TABLE
  2
DIMSTYLE
  5
A
330
0
100
AcDbSymbolTable
 70
     1
100
AcDbDimStyleTable
  0
DIMSTYLE
105
27
330
A
100
AcDbSymbolTableRecord
100
AcDbDimStyleTableRecord
  2
ISO-25
 70
     0
 41
2.5
 42
0.625
 43
3.75
 44
1.25
 73
     0
 74
     0
 77
     1
 78
     8
140
2.5
141
2.5
143
0.0393700787
147
0.625
171
     3
172
     1
178
     0
271
     2
272
     2
274
     3
278
    44
283
     0
284
     8
340
11
  0
ENDTAB
  0
TABLE
  2
BLOCK_RECORD
  5
1
330
0
100
AcDbSymbolTable
 70
     1
  0
BLOCK_RECORD
  5
1F
330
1
100
AcDbSymbolTableRecord
100
AcDbBlockTableRecord
  2
*Model_Space
340
22
  0
BLOCK_RECORD
  5
1B
330
1
100
AcDbSymbolTableRecord
100
AcDbBlockTableRecord
  2
*Paper_Space
340
1E
  0
BLOCK_RECORD
  5
23
330
1
100
AcDbSymbolTableRecord
100
AcDbBlockTableRecord
  2
*Paper_Space0
340
26
  0
ENDTAB
  0
ENDSEC
  0
SECTION
  2
BLOCKS
  0
BLOCK
  5
20
330
1F
100
AcDbEntity
  8
0
100
AcDbBlockBegin
  2
*Model_Space
 70
     0
 10
0.0
 20
0.0
 30
0.0
  3
*Model_Space
  1

  0
ENDBLK
  5
21
330
1F
100
AcDbEntity
  8
0
100
AcDbBlockEnd
  0
BLOCK
  5
1C
330
1B
100
AcDbEntity
 67
     1
  8
0
100
AcDbBlockBegin
  2
*Paper_Space
 70
     0
 10
0.0
 20
0.0
 30
0.0
  3
*Paper_Space
  1

  0
ENDBLK
  5
1D
330
1B
100
AcDbEntity
 67
     1
  8
0
100
AcDbBlockEnd
  0
BLOCK
  5
24
330
23
100
AcDbEntity
  8
0
100
AcDbBlockBegin
  2
*Paper_Space0
 70
     0
 10
0.0
 20
0.0
 30
0.0
  3
*Paper_Space0
  1

  0
ENDBLK
  5
25
330
23
100
AcDbEntity
  8
0
100
AcDbBlockEnd
  0
ENDSEC
  0
SECTION
  2
ENTITIES
  0
SPLINE
  5
74
330
1F
100
AcDbEntity
  8
0
  6
Continuous
 62
     7
370
    25
100
AcDbSpline
210
0.0
220
0.0
230
1.0
 70
     8
 71
     3
 72
    15
 73
    11
 74
     0
 42
0.000000001
 43
0.00000001
 40
0.0
 40
0.0
 40
0.0
 40
0.0
 40
0.1364411897142826
 40
0.2559957227680015
 40
0.3685080101434384
 40
0.4757423758333574
 40
0.5882546632087361
 40
0.7093427114892352
 40
0.8457839012034865
 40
1.0
 40
1.0
 40
1.0
 40
1.0
 10
6157.70223184294
 20
5601.724776377232
 30
0.0
 10
6157.702952291975
 20
5601.745401550185
 30
0.0
 10
6157.704304023602
 20
5601.784099219624
 30
0.0
 10
6157.718836985227
 20
5601.838154438991
 30
0.0
 10
6157.741573417685
 20
5601.884609346684
 30
0.0
 10
6157.776020307566
 20
5601.921707673386
 30
0.0
 10
6157.818410451838
 20
5601.951682925844
 30
0.0
 10
6157.871396290669
 20
5601.970446612149
 30
0.0
 10
6157.932260571236
 20
5601.983984341073
 30
0.0
 10
6157.976210379037
 20
5601.984590106897
 30
0.0
 10
6157.999529140237
 20
5601.984911512367
 30
0.0
  0
SPLINE
  5
75
330
1F
100
AcDbEntity
  8
0
  6
Continuous
 62
     7
370
    25
100
AcDbSpline
210
0.0
220
0.0
230
1.0
 70
     8
 71
     3
 72
    15
 73
    11
 74
     0
 42
0.000000001
 43
0.00000001
 40
0.0
 40
0.0
 40
0.0
 40
0.0
 40
0.1678628092163366
 40
0.3148466165912288
 40
0.444186960312109
 40
0.5592403382441897
 40
0.6652318690748331
 40
0.7706563435097084
 40
0.8787940473875387
 40
1.0
 40
1.0
 40
1.0
 40
1.0
 10
6157.999529140237
 20
5601.984911512367
 30
0.0
 10
6158.028590915393
 20
5601.983896545752
 30
0.0
 10
6158.083099723046
 20
5601.981992855433
 30
0.0
 10
6158.159571633081
 20
5601.971364270616
 30
0.0
 10
6158.224471107055
 20
5601.950540842268
 30
0.0
 10
6158.278200883016
 20
5601.921500375034
 30
0.0
 10
6158.320930254763
 20
5601.883359504802
 30
0.0
 10
6158.350047591929
 20
5601.835568767454
 30
0.0
 10
6158.3684840055
 20
5601.779887012956
 30
0.0
 10
6158.370228704791
 20
5601.74003251467
 30
0.0
 10
6158.371150761859
 20
5601.718969789394
 30
0.0
  0
SPLINE
  5
77
330
1F
100
AcDbEntity
  8
0
  6
Continuous
 62
     7
370
    25
100
AcDbSpline
210
0.0
220
0.0
230
1.0
 70
     8
 71
     3
 72
    15
 73
    11
 74
     0
 42
0.000000001
 43
0.00000001
 40
0.0
 40
0.0
 40
0.0
 40
0.0
 40
0.1212059526124576
 40
0.2293436564902846
 40
0.3347681309252291
 40
0.4407596617558691
 40
0.5558130396879047
 40
0.685153383408781
 40
0.8321371907836687
 40
1.0
 40
1.0
 40
1.0
 40
1.0
 10
6158.371150761859
 20
5596.750853235339
 30
0.0
 10
6158.370228704791
 20
5596.729790510063
 30
0.0
 10
6158.3684840055
 20
5596.689936011778
 30
0.0
 10
6158.350047591929
 20
5596.634254257279
 30
0.0
 10
6158.320930254763
 20
5596.586463519931
 30
0.0
 10
6158.278200883017
 20
5596.548322649699
 30
0.0
 10
6158.224471107055
 20
5596.519282182465
 30
0.0
 10
6158.159571633081
 20
5596.498458754118
 30
0.0
 10
6158.083099723046
 20
5596.4878301693
 30
0.0
 10
6158.028590915393
 20
5596.485926478981
 30
0.0
 10
6157.999529140237
 20
5596.484911512366
 30
0.0
  0
SPLINE
  5
78
330
1F
100
AcDbEntity
  8
0
  6
Continuous
 62
     7
370
    25
100
AcDbSpline
210
0.0
220
0.0
230
1.0
 70
     8
 71
     3
 72
    15
 73
    11
 74
     0
 42
0.000000001
 43
0.00000001
 40
0.0
 40
0.0
 40
0.0
 40
0.0
 40
0.1528612850162778
 40
0.2874697277135181
 40
0.4083171843914647
 40
0.5197330343306861
 40
0.6278222855465857
 40
0.7415060099346001
 40
0.8623534666125141
 40
1.0
 40
1.0
 40
1.0
 40
1.0
 10
6157.999529140237
 20
5596.484911512366
 30
0.0
 10
6157.976266219042
 20
5596.485925389911
 30
0.0
 10
6157.932518152807
 20
5596.48783208003
 30
0.0
 10
6157.870930243622
 20
5596.498595968421
 30
0.0
 10
6157.818733018558
 20
5596.519704476558
 30
0.0
 10
6157.775572827639
 20
5596.549174127971
 30
0.0
 10
6157.741600017058
 20
5596.587712119293
 30
0.0
 10
6157.718819750037
 20
5596.635169683906
 30
0.0
 10
6157.704319045259
 20
5596.690395914035
 30
0.0
 10
6157.702957080946
 20
5596.729846193134
 30
0.0
 10
6157.70223184294
 20
5596.750853235339
 30
0.0
  0
SPLINE
  5
7C
330
1F
100
AcDbEntity
  8
0
  6
Continuous
 62
     7
370
    25
100
AcDbSpline
210
0.0
220
0.0
230
1.0
 70
     8
 71
     3
 72
    15
 73
    11
 74
     0
 42
0.000000001
 43
0.00000001
 40
0.0
 40
0.0
 40
0.0
 40
0.0
 40
0.1212059526124645
 40
0.2293436564902711
 40
0.3347681309252669
 40
0.440759661755913
 40
0.5558130396878804
 40
0.685153383408764
 40
0.8321371907837445
 40
1.0
 40
1.0
 40
1.0
 40
1.0
 10
6156.067096707805
 20
5596.750853235339
 30
0.0
 10
6156.066174650737
 20
5596.729790510063
 30
0.0
 10
6156.064429951447
 20
5596.689936011778
 30
0.0
 10
6156.045993537875
 20
5596.634254257279
 30
0.0
 10
6156.016876200709
 20
5596.586463519931
 30
0.0
 10
6155.974146828963
 20
5596.548322649699
 30
0.0
 10
6155.920417053002
 20
5596.519282182465
 30
0.0
 10
6155.855517579027
 20
5596.498458754118
 30
0.0
 10
6155.779045668992
 20
5596.4878301693
 30
0.0
 10
6155.724536861338
 20
5596.485926478981
 30
0.0
 10
6155.695475086183
 20
5596.484911512366
 30
0.0
  0
SPLINE
  5
7D
330
1F
100
AcDbEntity
  8
0
  6
Continuous
 62
     7
370
    25
100
AcDbSpline
210
0.0
220
0.0
230
1.0
 70
     8
 71
     3
 72
    15
 73
    11
 74
     0
 42
0.000000001
 43
0.00000001
 40
0.0
 40
0.0
 40
0.0
 40
0.0
 40
0.152861285016274
 40
0.2874697277136065
 40
0.4083171843914602
 40
0.5197330343306789
 40
0.6278222855465757
 40
0.7415060099346309
 40
0.8623534666125174
 40
1.0
 40
1.0
 40
1.0
 40
1.0
 10
6155.695475086183
 20
5596.484911512366
 30
0.0
 10
6155.672212164988
 20
5596.485925389911
 30
0.0
 10
6155.628464098753
 20
5596.48783208003
 30
0.0
 10
6155.566876189568
 20
5596.498595968421
 30
0.0
 10
6155.514678964504
 20
5596.519704476558
 30
0.0
 10
6155.471518773585
 20
5596.549174127971
 30
0.0
 10
6155.437545963005
 20
5596.587712119293
 30
0.0
 10
6155.414765695983
 20
5596.635169683906
 30
0.0
 10
6155.400264991204
 20
5596.690395914035
 30
0.0
 10
6155.398903026892
 20
5596.729846193134
 30
0.0
 10
6155.398177788886
 20
5596.750853235339
 30
0.0
  0
SPLINE
  5
7F
330
1F
100
AcDbEntity
  8
0
  6
Continuous
 62
     7
370
    25
100
AcDbSpline
210
0.0
220
0.0
230
1.0
 70
     8
 71
     3
 72
    15
 73
    11
 74
     0
 42
0.000000001
 43
0.00000001
 40
0.0
 40
0.0
 40
0.0
 40
0.0
 40
0.1376465333874869
 40
0.2584939900653772
 40
0.3721777144533489
 40
0.4802669656692492
 40
0.5916828156085269
 40
0.7125302722863844
 40
0.8471387149837212
 40
1.0
 40
1.0
 40
1.0
 40
1.0
 10
6155.398177788886
 20
5601.718969789394
 30
0.0
 10
6155.398903026892
 20
5601.739976831599
 30
0.0
 10
6155.400264991204
 20
5601.779427110699
 30
0.0
 10
6155.414765695983
 20
5601.834653340827
 30
0.0
 10
6155.437545963005
 20
5601.882110905441
 30
0.0
 10
6155.471518773585
 20
5601.920648896762
 30
0.0
 10
6155.514678964505
 20
5601.950118548174
 30
0.0
 10
6155.566876189568
 20
5601.971227056312
 30
0.0
 10
6155.628464098753
 20
5601.981990944703
 30
0.0
 10
6155.672212164989
 20
5601.983897634822
 30
0.0
 10
6155.695475086183
 20
5601.984911512367
 30
0.0
  0
SPLINE
  5
80
330
1F
100
AcDbEntity
  8
0
  6
Continuous
 62
     7
370
    25
100
AcDbSpline
210
0.0
220
0.0
230
1.0
 70
     8
 71
     3
 72
    15
 73
    11
 74
     0
 42
0.000000001
 43
0.00000001
 40
0.0
 40
0.0
 40
0.0
 40
0.0
 40
0.1691382693020636
 40
0.3176902073342216
 40
0.4474110356377818
 40
0.563410610629366
 40
0.6687664326273801
 40
0.7731538901271362
 40
0.880040848835351
 40
1.0
 40
1.0
 40
1.0
 40
1.0
 10
6155.695475086183
 20
5601.984911512367
 30
0.0
 10
6155.724584291711
 20
5601.984599617367
 30
0.0
 10
6155.779259733158
 20
5601.984013789055
 30
0.0
 10
6155.855123728084
 20
5601.97052764175
 30
0.0
 10
6155.920698539867
 20
5601.952145359515
 30
0.0
 10
6155.973713220057
 20
5601.922473884289
 30
0.0
 10
6156.016851514077
 20
5601.885852108442
 30
0.0
 10
6156.045965283779
 20
5601.839088304197
 30
0.0
 10
6156.06444373746
 20
5601.784567777695
 30
0.0
 10
6156.066179051396
 20
5601.745458086687
 30
0.0
 10
6156.067096707805
 20
5601.724776377232
 30
0.0
  0
SPLINE
  5
83
330
1F
100
AcDbEntity
  8
0
  6
Continuous
 62
     7
370
    25
100
AcDbSpline
210
0.0
220
0.0
230
1.0
 70
     8
 71
     3
 72
    15
 73
    11
 74
     0
 42
0.000000001
 43
0.00000001
 40
0.0
 40
0.0
 40
0.0
 40
0.0
 40
0.121205952612459
 40
0.2293436564902873
 40
0.3347681309252329
 40
0.4407596617559373
 40
0.5558130396878995
 40
0.6851533834087772
 40
0.8321371907836667
 40
0.9999999999999999
 40
0.9999999999999999
 40
0.9999999999999999
 40
0.9999999999999999
 10
6140.800880491589
 20
5596.750853235339
 30
0.0
 10
6140.799958434521
 20
5596.729790510063
 30
0.0
 10
6140.798213735231
 20
5596.689936011778
 30
0.0
 10
6140.779777321659
 20
5596.634254257279
 30
0.0
 10
6140.750659984492
 20
5596.586463519931
 30
0.0
 10
6140.707930612746
 20
5596.548322649699
 30
0.0
 10
6140.654200836785
 20
5596.519282182465
 30
0.0
 10
6140.589301362809
 20
5596.498458754118
 30
0.0
 10
6140.512829452776
 20
5596.4878301693
 30
0.0
 10
6140.458320645123
 20
5596.485926478981
 30
0.0
 10
6140.429258869967
 20
5596.484911512366
 30
0.0
  0
SPLINE
  5
84
330
1F
100
AcDbEntity
  8
0
  6
Continuous
 62
     7
370
    25
100
AcDbSpline
210
0.0
220
0.0
230
1.0
 70
     8
 71
     3
 72
    15
 73
    11
 74
     0
 42
0.000000001
 43
0.00000001
 40
0.0
 40
0.0
 40
0.0
 40
0.0
 40
0.1538927873091682
 40
0.2894095627949876
 40
0.4110724936372395
 40
0.5232401736076189
 40
0.6301460973349664
 40
0.7423137773053168
 40
0.8639767081475358
 40
1.0
 40
1.0
 40
1.0
 40
1.0
 10
6140.429258869967
 20
5596.484911512366
 30
0.0
 10
6140.405994359016
 20
5596.485923854005
 30
0.0
 10
6140.362243303099
 20
5596.48782765571
 30
0.0
 10
6140.30067510519
 20
5596.498610587705
 30
0.0
 10
6140.248413887907
 20
5596.519657271204
 30
0.0
 10
6140.205707445324
 20
5596.549168033482
 30
0.0
 10
6140.171331088463
 20
5596.586409079734
 30
0.0
 10
6140.148325705382
 20
5596.633142832447
 30
0.0
 10
6140.134186549252
 20
5596.6877080434
 30
0.0
 10
6140.132730283173
 20
5596.726756831434
 30
0.0
 10
6140.13196157267
 20
5596.747369282637
 30
0.0
  0
SPLINE
  5
88
330
1F
100
AcDbEntity
  8
0
  6
Continuous
 62
     7
370
    25
100
AcDbSpline
210
0.0
220
0.0
230
1.0
 70
     8
 71
     3
 72
    11
 73
     7
 74
     0
 42
0.000000001
 43
0.00000001
 40
0.0
 40
0.0
 40
0.0
 40
0.0
 40
0.2301959670043376
 40
0.456060078779444
 40
0.7031878330326398
 40
1.0
 40
1.0
 40
1.0
 40
1.0
 10
6138.032299410508
 20
5596.671883640745
 30
0.0
 10
6138.020418519919
 20
5596.643422076169
 30
0.0
 10
6137.996880314763
 20
5596.587034540141
 30
0.0
 10
6137.923278283164
 20
5596.524859522223
 30
0.0
 10
6137.825799614355
 20
5596.489801860961
 30
0.0
 10
6137.75353247137
 20
5596.486637960607
 30
0.0
 10
6137.714098396995
 20
5596.484911512366
 30
0.0
  0
SPLINE
  5
89
330
1F
100
AcDbEntity
  8
0
  6
Continuous
 62
     7
370
    25
100
AcDbSpline
210
0.0
220
0.0
230
1.0
 70
     8
 71
     3
 72
    15
 73
    11
 74
     0
 42
0.000000001
 43
0.00000001
 40
0.0
 40
0.0
 40
0.0
 40
0.0
 40
0.1490635051903569
 40
0.2818442409441522
 40
0.4007315270714448
 40
0.5112289549475054
 40
0.6207008624670909
 40
0.7358837692991376
 40
0.8588803628870061
 40
1.0
 40
1.0
 40
1.0
 40
1.0
 10
6137.714098396995
 20
5596.484911512366
 30
0.0
 10
6137.692394782763
 20
5596.48595671268
 30
0.0
 10
6137.651358322021
 20
5596.487932942127
 30
0.0
 10
6137.593403588397
 20
5596.498416430514
 30
0.0
 10
6137.544985154555
 20
5596.520246892725
 30
0.0
 10
6137.503436369347
 20
5596.547937304383
 30
0.0
 10
6137.472912140394
 20
5596.586943441099
 30
0.0
 10
6137.450599652054
 20
5596.632804877949
 30
0.0
 10
6137.437837488089
 20
5596.687095268958
 30
0.0
 10
6137.436237218804
 20
5596.725622516232
 30
0.0
 10
6137.435382180778
 20
5596.746207965069
 30
0.0
  0
SPLINE
  5
8A
330
1F
100
AcDbEntity
  8
0
  6
Continuous
 62
     7
370
    25
100
AcDbSpline
210
0.0
220
0.0
230
1.0
 70
     8
 71
     3
 72
     9
 73
     5
 74
     0
 42
0.000000001
 43
0.00000001
 40
0.0
 40
0.0
 40
0.0
 40
0.0
 40
0.4957413518341675
 40
1.0
 40
1.0
 40
1.0
 40
1.0
 10
6137.435382180778
 20
5596.746207965069
 30
0.0
 10
6137.436559761059
 20
5596.760590847727
 30
0.0
 10
6137.438935153547
 20
5596.789603724311
 30
0.0
 10
6137.445837449276
 20
5596.817884592638
 30
0.0
 10
6137.449317991589
 20
5596.83214546507
 30
0.0
  0
SPLINE
  5
8C
330
1F
100
AcDbEntity
  8
0
  6
Continuous
 62
     7
370
    25
100
AcDbSpline
210
0.0
220
0.0
230
1.0
 70
     8
 71
     3
 72
    11
 73
     7
 74
     0
 42
0.000000001
 43
0.00000001
 40
0.0
 40
0.0
 40
0.0
 40
0.0
 40
0.262468516700631
 40
0.4999991169493342
 40
0.7366564399761147
 40
1.0
 40
1.0
 40
1.0
 40
1.0
 10
6138.991547721318
 20
5601.797939383989
 30
0.0
 10
6139.002587695112
 20
5601.826009643669
 30
0.0
 10
6139.02361870187
 20
5601.879483123953
 30
0.0
 10
6139.08242548927
 20
5601.942662039145
 30
0.0
 10
6139.16063698826
 20
5601.979397715862
 30
0.0
 10
6139.217991221286
 20
5601.983009326776
 30
0.0
 10
6139.248198903751
 20
5601.984911512367
 30
0.0
  0
SPLINE
  5
8E
330
1F
100
AcDbEntity
  8
0
  6
Continuous
 62
     7
370
    25
100
AcDbSpline
210
0.0
220
0.0
230
1.0
 70
     8
 71
     3
 72
    15
 73
    11
 74
     0
 42
0.000000001
 43
0.00000001
 40
0.0
 40
0.0
 40
0.0
 40
0.0
 40
0.1678628092163385
 40
0.3148466165912324
 40
0.4441869603121141
 40
0.5592403382441214
 40
0.6652318690748292
 40
0.7706563435097057
 40
0.8787940473875373
 40
1.0
 40
1.0
 40
1.0
 40
1.0
 10
6140.429258869967
 20
5601.984911512367
 30
0.0
 10
6140.458320645123
 20
5601.983896545752
 30
0.0
 10
6140.512829452776
 20
5601.981992855433
 30
0.0
 10
6140.58930136281
 20
5601.971364270616
 30
0.0
 10
6140.654200836785
 20
5601.950540842268
 30
0.0
 10
6140.707930612746
 20
5601.921500375033
 30
0.0
 10
6140.750659984493
 20
5601.883359504802
 30
0.0
 10
6140.779777321658
 20
5601.835568767454
 30
0.0
 10
6140.798213735231
 20
5601.779887012956
 30
0.0
 10
6140.799958434521
 20
5601.74003251467
 30
0.0
 10
6140.800880491589
 20
5601.718969789394
 30
0.0
  0
SPLINE
  5
91
330
1F
100
AcDbEntity
  8
0
  6
Continuous
 62
     7
370
    25
100
AcDbSpline
210
0.0
220
0.0
230
1.0
 70
     8
 71
     3
 72
    23
 73
    19
 74
     0
 42
0.000000001
 43
0.00000001
 40
0.0
 40
0.0
 40
0.0
 40
0.0
 40
0.0654089211841
 40
0.1288954245589951
 40
0.1905242960456141
 40
0.2519389918314974
 40
0.3128299810523866
 40
0.3744618219611461
 40
0.4371389187316634
 40
0.5013990124460574
 40
0.5660650739897871
 40
0.6282585326512439
 40
0.6898903735600035
 40
0.7502349192920303
 40
0.8112789954642825
 40
0.8729078669508961
 40
0.9351954156187527
 40
1.0
 40
1.0
 40
1.0
 40
1.0
 10
6143.481665964561
 20
5598.78896556642
 30
0.0
 10
6143.439813603137
 20
5598.790169062641
 30
0.0
 10
6143.357338952936
 20
5598.792540683415
 30
0.0
 10
6143.236204313695
 20
5598.808651916499
 30
0.0
 10
6143.120176592978
 20
5598.837288974664
 30
0.0
 10
6143.008461671639
 20
5598.874944531527
 30
0.0
 10
6142.901910914975
 20
5598.925567203901
 30
0.0
 10
6142.800686108692
 20
5598.987547491403
 30
0.0
 10
6142.704024047653
 20
5599.060001491373
 30
0.0
 10
6142.612433199157
 20
5599.141797550094
 30
0.0
 10
6142.530229943949
 20
5599.232595477636
 30
0.0
 10
6142.457050779829
 20
5599.328671208847
 30
0.0
 10
6142.395645536748
 20
5599.429513478466
 30
0.0
 10
6142.345079073881
 20
5599.535344019705
 30
0.0
 10
6142.305411819915
 20
5599.645768305673
 30
0.0
 10
6142.277716445259
 20
5599.761033268971
 30
0.0
 10
6142.261077836669
 20
5599.880892670712
 30
0.0
 10
6142.258799154079
 20
5599.962229763047
 30
0.0
 10
6142.257637248345
 20
5600.003703742097
 30
0.0
  0
SPLINE
  5
93
330
1F
100
AcDbEntity
  8
0
  6
Continuous
 62
     7
370
    25
100
AcDbSpline
210
0.0
220
0.0
230
1.0
 70
     8
 71
     3
 72
    15
 73
    11
 74
     0
 42
0.000000001
 43
0.00000001
 40
0.0
 40
0.0
 40
0.0
 40
0.0
 40
0.1354286630936352
 40
0.259026915105538
 40
0.3707042516397965
 40
0.4790471821147449
 40
0.5907245186490434
 40
0.7118555973607575
 40
0.8467799583350826
 40
1.0
 40
1.0
 40
1.0
 40
1.0
 10
6142.257637248345
 20
5601.720131106961
 30
0.0
 10
6142.258458888147
 20
5601.740726224728
 30
0.0
 10
6142.260030393161
 20
5601.780117367633
 30
0.0
 10
6142.273694485672
 20
5601.835258622693
 30
0.0
 10
6142.297391291368
 20
5601.882301512758
 30
0.0
 10
6142.330936050966
 20
5601.920668457203
 30
0.0
 10
6142.374150903182
 20
5601.950112761381
 30
0.0
 10
6142.426331784271
 20
5601.971228848455
 30
0.0
 10
6142.487924727827
 20
5601.981990402336
 30
0.0
 10
6142.53167203048
 20
5601.983897446539
 30
0.0
 10
6142.554934545643
 20
5601.984911512367
 30
0.0
  0
SPLINE
  5
94
330
1F
100
AcDbEntity
  8
0
  6
Continuous
 62
     7
370
    25
100
AcDbSpline
210
0.0
220
0.0
230
1.0
 70
     8
 71
     3
 72
    15
 73
    11
 74
     0
 42
0.000000001
 43
0.00000001
 40
0.0
 40
0.0
 40
0.0
 40
0.0
 40
0.1691382693020636
 40
0.3176902073342216
 40
0.4474110356377818
 40
0.563410610629366
 40
0.6687664326273801
 40
0.7731538901271362
 40
0.880040848835351
 40
1.0
 40
1.0
 40
1.0
 40
1.0
 10
6142.554934545643
 20
5601.984911512367
 30
0.0
 10
6142.584043751171
 20
5601.984599617367
 30
0.0
 10
6142.638719192618
 20
5601.984013789055
 30
0.0
 10
6142.714583187544
 20
5601.97052764175
 30
0.0
 10
6142.780157999326
 20
5601.952145359515
 30
0.0
 10
6142.833172679517
 20
5601.922473884289
 30
0.0
 10
6142.876310973537
 20
5601.885852108442
 30
0.0
 10
6142.905424743239
 20
5601.839088304197
 30
0.0
 10
6142.92390319692
 20
5601.784567777695
 30
0.0
 10
6142.925638510855
 20
5601.745458086687
 30
0.0
 10
6142.926556167265
 20
5601.724776377232
 30
0.0
  0
SPLINE
  5
96
330
1F
100
AcDbEntity
  8
0
  6
Continuous
 62
     7
370
    25
100
AcDbSpline
210
0.0
220
0.0
230
1.0
 70
     8
 71
     3
 72
    15
 73
    11
 74
     0
 42
0.000000001
 43
0.00000001
 40
0.0
 40
0.0
 40
0.0
 40
0.0
 40
0.1435805382302502
 40
0.2773180907195862
 40
0.4047876967772133
 40
0.5341163941168893
 40
0.6605782338346228
 40
0.7766771723013711
 40
0.8879535422141188
 40
1.0
 40
1.0
 40
1.0
 40
1.0
 10
6142.926556167265
 20
5600.050156444799
 30
0.0
 10
6142.928580641485
 20
5600.002687657052
 30
0.0
 10
6142.932490804606
 20
5599.911004245436
 30
0.0
 10
6142.968363378008
 20
5599.781129590091
 30
0.0
 10
6143.026300265997
 20
5599.665022874712
 30
0.0
 10
6143.106714058423
 20
5599.566266963214
 30
0.0
 10
6143.200261556735
 20
5599.485691001783
 30
0.0
 10
6143.302169936682
 20
5599.427657929947
 30
0.0
 10
6143.4090121251
 20
5599.390001450245
 30
0.0
 10
6143.482912061096
 20
5599.385712187671
 30
0.0
 10
6143.519989444291
 20
5599.383560161015
 30
0.0
  0
SPLINE
  5
99
330
1F
100
AcDbEntity
  8
0
  6
Continuous
 62
     7
370
    25
100
AcDbSpline
210
0.0
220
0.0
230
1.0
 70
     8
 71
     3
 72
    15
 73
    11
 74
     0
 42
0.000000001
 43
0.00000001
 40
0.0
 40
0.0
 40
0.0
 40
0.0
 40
0.1364411897142826
 40
0.2559957227680015
 40
0.3685080101434384
 40
0.4757423758333574
 40
0.5882546632087361
 40
0.7093427114892352
 40
0.8457839012034865
 40
1.0
 40
1.0
 40
1.0
 40
1.0
 10
6144.5616913024
 20
5601.724776377232
 30
0.0
 10
6144.562411751434
 20
5601.745401550185
 30
0.0
 10
6144.563763483063
 20
5601.784099219624
 30
0.0
 10
6144.578296444687
 20
5601.838154438991
 30
0.0
 10
6144.601032877144
 20
5601.884609346684
 30
0.0
 10
6144.635479767026
 20
5601.921707673386
 30
0.0
 10
6144.677869911297
 20
5601.951682925844
 30
0.0
 10
6144.730855750128
 20
5601.970446612149
 30
0.0
 10
6144.791720030697
 20
5601.983984341073
 30
0.0
 10
6144.835669838496
 20
5601.984590106897
 30
0.0
 10
6144.858988599697
 20
5601.984911512367
 30
0.0
  0
SPLINE
  5
9A
330
1F
100
AcDbEntity
  8
0
  6
Continuous
 62
     7
370
    25
100
AcDbSpline
210
0.0
220
0.0
230
1.0
 70
     8
 71
     3
 72
    15
 73
    11
 74
     0
 42
0.000000001
 43
0.00000001
 40
0.0
 40
0.0
 40
0.0
 40
0.0
 40
0.1678628092163366
 40
0.3148466165912288
 40
0.444186960312109
 40
0.5592403382441897
 40
0.6652318690748331
 40
0.7706563435097084
 40
0.8787940473875387
 40
1.0
 40
1.0
 40
1.0
 40
1.0
 10
6144.858988599697
 20
5601.984911512367
 30
0.0
 10
6144.888050374852
 20
5601.983896545752
 30
0.0
 10
6144.942559182506
 20
5601.981992855433
 30
0.0
 10
6145.01903109254
 20
5601.971364270616
 30
0.0
 10
6145.083930566515
 20
5601.950540842268
 30
0.0
 10
6145.137660342476
 20
5601.921500375034
 30
0.0
 10
6145.180389714222
 20
5601.883359504802
 30
0.0
 10
6145.209507051388
 20
5601.835568767454
 30
0.0
 10
6145.22794346496
 20
5601.779887012956
 30
0.0
 10
6145.22968816425
 20
5601.74003251467
 30
0.0
 10
6145.230610221319
 20
5601.718969789394
 30
0.0
  0
SPLINE
  5
9B
330
1F
100
AcDbEntity
  8
0
  6
Continuous
 62
     7
370
    25
100
AcDbSpline
210
0.0
220
0.0
230
1.0
 70
     8
 71
     3
 72
    23
 73
    19
 74
     0
 42
0.000000001
 43
0.00000001
 40
0.0
 40
0.0
 40
0.0
 40
0.0
 40
0.0603066210140959
 40
0.1194421281967427
 40
0.1780227147626713
 40
0.2361343677381679
 40
0.2955036415325604
 40
0.355386274155876
 40
0.4170389405274358
 40
0.481596522371064
 40
0.5461911773604452
 40
0.6093536377899087
 40
0.6725404596655208
 40
0.7353635899273199
 40
0.7989819471019625
 40
0.8636824083129433
 40
0.930345906371078
 40
1.0
 40
1.0
 40
1.0
 40
1.0
 10
6145.230610221319
 20
5597.705456275879
 30
0.0
 10
6145.229523445499
 20
5597.665518452688
 30
0.0
 10
6145.227370998312
 20
5597.586418371843
 30
0.0
 10
6145.209275928387
 20
5597.469679750531
 30
0.0
 10
6145.180539275192
 20
5597.356706231197
 30
0.0
 10
6145.139121945974
 20
5597.247510341795
 30
0.0
 10
6145.086828759445
 20
5597.142246520232
 30
0.0
 10
6145.024098993865
 20
5597.039945159864
 30
0.0
 10
6144.947092244873
 20
5596.943526100452
 30
0.0
 10
6144.861511308915
 20
5596.850515711583
 30
0.0
 10
6144.767040691057
 20
5596.764839182481
 30
0.0
 10
6144.664968970404
 20
5596.690000224944
 30
0.0
 10
6144.557285427538
 20
5596.625538947042
 30
0.0
 10
6144.44219830624
 20
5596.574918280236
 30
0.0
 10
6144.322485664326
 20
5596.533232259452
 30
0.0
 10
6144.196018806103
 20
5596.50641828149
 30
0.0
 10
6144.064031982884
 20
5596.48791860735
 30
0.0
 10
6143.973745516103
 20
5596.48592843115
 30
0.0
 10
6143.927611910508
 20
5596.484911512366
 30
0.0
  0
SPLINE
  5
9D
330
1F
100
AcDbEntity
  8
0
  6
Continuous
 62
     7
370
    25
100
AcDbSpline
210
0.0
220
0.0
230
1.0
 70
     8
 71
     3
 72
    15
 73
    11
 74
     0
 42
0.000000001
 43
0.00000001
 40
0.0
 40
0.0
 40
0.0
 40
0.0
 40
0.1376465333874895
 40
0.2584939900653819
 40
0.3721777144533558
 40
0.4802669656692581
 40
0.5916828156085377
 40
0.7125302722863975
 40
0.8471387149837184
 40
1.0
 40
1.0
 40
1.0
 40
1.0
 10
6142.969524917265
 20
5596.484911512366
 30
0.0
 10
6142.948517875059
 20
5596.485636750373
 30
0.0
 10
6142.90906759596
 20
5596.486998714685
 30
0.0
 10
6142.853841365831
 20
5596.501499419465
 30
0.0
 10
6142.806383801219
 20
5596.524279686485
 30
0.0
 10
6142.767845809896
 20
5596.558252497066
 30
0.0
 10
6142.738376158483
 20
5596.601412687985
 30
0.0
 10
6142.717267650346
 20
5596.653609913048
 30
0.0
 10
6142.706503761955
 20
5596.715197822234
 30
0.0
 10
6142.704597071836
 20
5596.758945888469
 30
0.0
 10
6142.703583194291
 20
5596.782208809664
 30
0.0
  0
SPLINE
  5
9E
330
1F
100
AcDbEntity
  8
0
  6
Continuous
 62
     7
370
    25
100
AcDbSpline
210
0.0
220
0.0
230
1.0
 70
     8
 71
     3
 72
    15
 73
    11
 74
     0
 42
0.000000001
 43
0.00000001
 40
0.0
 40
0.0
 40
0.0
 40
0.0
 40
0.1545651316740382
 40
0.2906739683079694
 40
0.4128684340414637
 40
0.5240800725849488
 40
0.6333741253266529
 40
0.7437509193892698
 40
0.865945385122731
 40
1.0
 40
1.0
 40
1.0
 40
1.0
 10
6142.703583194291
 20
5596.782208809664
 30
0.0
 10
6142.704607415367
 20
5596.805464164846
 30
0.0
 10
6142.706533557448
 20
5596.849198002496
 30
0.0
 10
6142.717169197081
 20
5596.910879722181
 30
0.0
 10
6142.738610153046
 20
5596.962570103832
 30
0.0
 10
6142.766519632197
 20
5597.006587514596
 30
0.0
 10
6142.804918076614
 20
5597.039341360539
 30
0.0
 10
6142.850794405503
 20
5597.063528863826
 30
0.0
 10
6142.904897270606
 20
5597.077096301165
 30
0.0
 10
6142.94351551178
 20
5597.078678429458
 30
0.0
 10
6142.963718329426
 20
5597.079506106961
 30
0.0
  0
SPLINE
  5
A0
330
1F
100
AcDbEntity
  8
0
  6
Continuous
 62
     7
370
    25
100
AcDbSpline
210
0.0
220
0.0
230
1.0
 70
     8
 71
     3
 72
    15
 73
    11
 74
     0
 42
0.000000001
 43
0.00000001
 40
0.0
 40
0.0
 40
0.0
 40
0.0
 40
0.1276214145536395
 40
0.2496255370571669
 40
0.3727052207490225
 40
0.4998668058614432
 40
0.62773183220752
 40
0.7503744629428751
 40
0.8723785854464026
 40
0.9999999999999999
 40
0.9999999999999999
 40
0.9999999999999999
 40
0.9999999999999999
 10
6143.890449748345
 20
5597.079506106961
 30
0.0
 10
6143.935209225446
 20
5597.082021280276
 30
0.0
 10
6144.022758078815
 20
5597.086940920853
 30
0.0
 10
6144.149321230872
 20
5597.124155440642
 30
0.0
 10
6144.26435842449
 20
5597.187270864418
 30
0.0
 10
6144.367547417422
 20
5597.271695120564
 30
0.0
 10
6144.452222965214
 20
5597.374304443803
 30
0.0
 10
6144.517540254189
 20
5597.488305663401
 30
0.0
 10
6144.554136961513
 20
5597.615017153536
 30
0.0
 10
6144.559135693491
 20
5597.702525129728
 30
0.0
 10
6144.5616913024
 20
5597.747263708313
 30
0.0
  0
SPLINE
  5
A5
330
1F
100
AcDbEntity
  8
0
  6
Continuous
 62
     7
370
    25
100
AcDbSpline
210
0.0
220
0.0
230
1.0
 70
     8
 71
     3
 72
    15
 73
    11
 74
     0
 42
0.000000001
 43
0.00000001
 40
0.0
 40
0.0
 40
0.0
 40
0.0
 40
0.1196517683248694
 40
0.228399424466065
 40
0.3325193999703184
 40
0.4376052586397175
 40
0.5533075967933616
 40
0.6833774865705328
 40
0.8311903582105656
 40
1.0
 40
1.0
 40
1.0
 40
1.0
 10
6147.28196157267
 20
5596.747369282637
 30
0.0
 10
6147.28098744996
 20
5596.726705596056
 30
0.0
 10
6147.279127978351
 20
5596.687261347231
 30
0.0
 10
6147.261120457693
 20
5596.632176385202
 30
0.0
 10
6147.231685018533
 20
5596.585165016686
 30
0.0
 10
6147.188613350276
 20
5596.548409003395
 30
0.0
 10
6147.135335338555
 20
5596.519215748171
 30
0.0
 10
6147.070365289498
 20
5596.498480087424
 30
0.0
 10
6146.9939157998
 20
5596.487823620542
 30
0.0
 10
6146.939403557441
 20
5596.485924201643
 30
0.0
 10
6146.910339951049
 20
5596.484911512366
 30
0.0
  0
SPLINE
  5
A6
330
1F
100
AcDbEntity
  8
0
  6
Continuous
 62
     7
370
    25
100
AcDbSpline
210
0.0
220
0.0
230
1.0
 70
     8
 71
     3
 72
    15
 73
    11
 74
     0
 42
0.000000001
 43
0.00000001
 40
0.0
 40
0.0
 40
0.0
 40
0.0
 40
0.152861285016274
 40
0.2874697277136065
 40
0.4083171843914602
 40
0.5197330343306789
 40
0.6278222855465757
 40
0.7415060099346309
 40
0.8623534666125174
 40
1.0
 40
1.0
 40
1.0
 40
1.0
 10
6146.910339951049
 20
5596.484911512366
 30
0.0
 10
6146.887077029854
 20
5596.485925389911
 30
0.0
 10
6146.843328963618
 20
5596.48783208003
 30
0.0
 10
6146.781741054433
 20
5596.498595968421
 30
0.0
 10
6146.72954382937
 20
5596.519704476558
 30
0.0
 10
6146.68638363845
 20
5596.549174127971
 30
0.0
 10
6146.652410827869
 20
5596.587712119293
 30
0.0
 10
6146.629630560848
 20
5596.635169683906
 30
0.0
 10
6146.61512985607
 20
5596.690395914035
 30
0.0
 10
6146.613767891758
 20
5596.729846193134
 30
0.0
 10
6146.613042653751
 20
5596.750853235339
 30
0.0
  0
SPLINE
  5
A8
330
1F
100
AcDbEntity
  8
0
  6
Continuous
 62
     7
370
    25
100
AcDbSpline
210
0.0
220
0.0
230
1.0
 70
     8
 71
     3
 72
    15
 73
    11
 74
     0
 42
0.000000001
 43
0.00000001
 40
0.0
 40
0.0
 40
0.0
 40
0.0
 40
0.1376465333874869
 40
0.2584939900653772
 40
0.3721777144533489
 40
0.4802669656692492
 40
0.5916828156085269
 40
0.7125302722863844
 40
0.8471387149837212
 40
1.0
 40
1.0
 40
1.0
 40
1.0
 10
6146.613042653751
 20
5601.718969789394
 30
0.0
 10
6146.613767891758
 20
5601.739976831599
 30
0.0
 10
6146.61512985607
 20
5601.779427110698
 30
0.0
 10
6146.629630560848
 20
5601.834653340827
 30
0.0
 10
6146.652410827869
 20
5601.88211090544
 30
0.0
 10
6146.68638363845
 20
5601.920648896762
 30
0.0
 10
6146.72954382937
 20
5601.950118548174
 30
0.0
 10
6146.781741054433
 20
5601.971227056312
 30
0.0
 10
6146.843328963618
 20
5601.981990944703
 30
0.0
 10
6146.887077029854
 20
5601.983897634822
 30
0.0
 10
6146.910339951049
 20
5601.984911512367
 30
0.0
  0
SPLINE
  5
AA
330
1F
100
AcDbEntity
  8
0
  6
Continuous
 62
     7
370
    25
100
AcDbSpline
210
0.0
220
0.0
230
1.0
 70
     8
 71
     3
 72
    15
 73
    11
 74
     0
 42
0.000000001
 43
0.00000001
 40
0.0
 40
0.0
 40
0.0
 40
0.0
 40
0.1548790377790508
 40
0.2919933978856842
 40
0.4126674844478799
 40
0.5257810605822457
 40
0.6337152448525654
 40
0.7449712554429743
 40
0.8650822696620792
 40
1.0
 40
1.0
 40
1.0
 40
1.0
 10
6148.863676099697
 20
5601.984911512367
 30
0.0
 10
6148.890445518771
 20
5601.984118419322
 30
0.0
 10
6148.940913895557
 20
5601.982623201273
 30
0.0
 10
6149.011348824632
 20
5601.969127320336
 30
0.0
 10
6149.071253683534
 20
5601.945507431149
 30
0.0
 10
6149.121382754469
 20
5601.913202110552
 30
0.0
 10
6149.159708688391
 20
5601.869585796389
 30
0.0
 10
6149.187119964512
 20
5601.817121903175
 30
0.0
 10
6149.201615549717
 20
5601.754944715606
 30
0.0
 10
6149.203896679567
 20
5601.710909920762
 30
0.0
 10
6149.205103464562
 20
5601.68761421507
 30
0.0
  0
SPLINE
  5
AB
330
1F
100
AcDbEntity
  8
0
  6
Continuous
 62
     7
370
    25
100
AcDbSpline
210
0.0
220
0.0
230
1.0
 70
     8
 71
     3
 72
    15
 73
    11
 74
     0
 42
0.000000001
 43
0.00000001
 40
0.0
 40
0.0
 40
0.0
 40
0.0
 40
0.1349177303379178
 40
0.2550287445571033
 40
0.3662847551474338
 40
0.474218939417751
 40
0.5873325155521144
 40
0.7080066021143392
 40
0.8451209622209528
 40
1.0
 40
1.0
 40
1.0
 40
1.0
 10
6149.205103464562
 20
5601.68761421507
 30
0.0
 10
6149.203896679567
 20
5601.664318509376
 30
0.0
 10
6149.201615549717
 20
5601.620283714532
 30
0.0
 10
6149.187119964512
 20
5601.558106526964
 30
0.0
 10
6149.159708688391
 20
5601.505642633749
 30
0.0
 10
6149.121382754469
 20
5601.462026319586
 30
0.0
 10
6149.071253683534
 20
5601.42972099899
 30
0.0
 10
6149.011348824632
 20
5601.406101109802
 30
0.0
 10
6148.940913895557
 20
5601.392605228866
 30
0.0
 10
6148.890445518771
 20
5601.391110010816
 30
0.0
 10
6148.863676099697
 20
5601.390316917772
 30
0.0
  0
SPLINE
  5
AD
330
1F
100
AcDbEntity
  8
0
  6
Continuous
 62
     7
370
    25
100
AcDbSpline
210
0.0
220
0.0
230
1.0
 70
     8
 71
     3
 72
    11
 73
     7
 74
     0
 42
0.000000001
 43
0.00000001
 40
0.0
 40
0.0
 40
0.0
 40
0.0
 40
0.2872048350150347
 40
0.5292209857219572
 40
0.7570217140402435
 40
0.9999999999999999
 40
0.9999999999999999
 40
0.9999999999999999
 40
0.9999999999999999
 10
6151.959051944291
 20
5601.757293269124
 30
0.0
 10
6151.969744276114
 20
5601.791561020033
 30
0.0
 10
6151.989446612905
 20
5601.854704848774
 30
0.0
 10
6152.047968470256
 20
5601.930798122217
 30
0.0
 10
6152.126234422792
 20
5601.978317799638
 30
0.0
 10
6152.185246061947
 20
5601.982666871203
 30
0.0
 10
6152.215703126724
 20
5601.984911512367
 30
0.0
  0
SPLINE
  5
AE
330
1F
100
AcDbEntity
  8
0
  6
Continuous
 62
     7
370
    25
100
AcDbSpline
210
0.0
220
0.0
230
1.0
 70
     8
 71
     3
 72
    15
 73
    11
 74
     0
 42
0.000000001
 43
0.00000001
 40
0.0
 40
0.0
 40
0.0
 40
0.0
 40
0.1449966807026341
 40
0.278562709526918
 40
0.4015672591726613
 40
0.5179666754587559
 40
0.6339949980810909
 40
0.7483070616182164
 40
0.8694272750724853
 40
1.0
 40
1.0
 40
1.0
 40
1.0
 10
6152.215703126724
 20
5601.984911512367
 30
0.0
 10
6152.236635773687
 20
5601.984251673793
 30
0.0
 10
6152.2768508657
 20
5601.982984014286
 30
0.0
 10
6152.334361888523
 20
5601.973152004974
 30
0.0
 10
6152.384796917311
 20
5601.953733550511
 30
0.0
 10
6152.430416165154
 20
5601.929632086172
 30
0.0
 10
6152.468506118451
 20
5601.896603002701
 30
0.0
 10
6152.501187789814
 20
5601.857414776653
 30
0.0
 10
6152.525395751869
 20
5601.809962310127
 30
0.0
 10
6152.536350356711
 20
5601.775283742408
 30
0.0
 10
6152.54203336321
 20
5601.757293269124
 30
0.0
  0
SPLINE
  5
B0
330
1F
100
AcDbEntity
  8
0
  6
Continuous
 62
     7
370
    25
100
AcDbSpline
210
0.0
220
0.0
230
1.0
 70
     8
 71
     3
 72
     9
 73
     5
 74
     0
 42
0.000000001
 43
0.00000001
 40
0.0
 40
0.0
 40
0.0
 40
0.0
 40
0.5188677278482057
 40
1.0
 40
1.0
 40
1.0
 40
1.0
 10
6153.888000424021
 20
5596.819370971825
 30
0.0
 10
6153.891359172725
 20
5596.806260568773
 30
0.0
 10
6153.897832399953
 20
5596.780993236945
 30
0.0
 10
6153.901387215782
 20
5596.755155419961
 30
0.0
 10
6153.903097552399
 20
5596.742724012366
 30
0.0
  0
SPLINE
  5
B1
330
1F
100
AcDbEntity
  8
0
  6
Continuous
 62
     7
370
    25
100
AcDbSpline
210
0.0
220
0.0
230
1.0
 70
     8
 71
     3
 72
    15
 73
    11
 74
     0
 42
0.000000001
 43
0.00000001
 40
0.0
 40
0.0
 40
0.0
 40
0.0
 40
0.1237794852667885
 40
0.2354455429371433
 40
0.3406927178488466
 40
0.4462594699380564
 40
0.5620718480007958
 40
0.689450258703959
 40
0.8339864943265173
 40
1.0
 40
1.0
 40
1.0
 40
1.0
 10
6153.903097552399
 20
5596.742724012366
 30
0.0
 10
6153.90203246086
 20
5596.722467787873
 30
0.0
 10
6153.900006510799
 20
5596.6839376731
 30
0.0
 10
6153.883403473496
 20
5596.630174420763
 30
0.0
 10
6153.856142258348
 20
5596.584416648187
 30
0.0
 10
6153.817048716141
 20
5596.547296390141
 30
0.0
 10
6153.767581961408
 20
5596.517945656972
 30
0.0
 10
6153.706698474271
 20
5596.499328667064
 30
0.0
 10
6153.636205969688
 20
5596.485768389703
 30
0.0
 10
6153.585364851265
 20
5596.485210010439
 30
0.0
 10
6153.558186234833
 20
5596.484911512366
 30
0.0
  0
SPLINE
  5
B2
330
1F
100
AcDbEntity
  8
0
  6
Continuous
 62
     7
370
    25
100
AcDbSpline
210
0.0
220
0.0
230
1.0
 70
     8
 71
     3
 72
    11
 73
     7
 74
     0
 42
0.000000001
 43
0.00000001
 40
0.0
 40
0.0
 40
0.0
 40
0.0
 40
0.2659391874995923
 40
0.5003589885931721
 40
0.7349007245721321
 40
1.0
 40
1.0
 40
1.0
 40
1.0
 10
6153.558186234833
 20
5596.484911512366
 30
0.0
 10
6153.527496032247
 20
5596.48658325913
 30
0.0
 10
6153.469753061495
 20
5596.48972861551
 30
0.0
 10
6153.392678979132
 20
5596.528653058972
 30
0.0
 10
6153.333922489069
 20
5596.591832264736
 30
0.0
 10
6153.315038475489
 20
5596.646409847275
 30
0.0
 10
6153.305019005102
 20
5596.675367593448
 30
0.0
  0
SPLINE
  5
B9
330
1F
100
AcDbEntity
  8
0
  6
Continuous
 62
     7
370
    25
100
AcDbSpline
210
0.0
220
0.0
230
1.0
 70
     8
 71
     3
 72
    15
 73
    11
 74
     0
 42
0.000000001
 43
0.00000001
 40
0.0
 40
0.0
 40
0.0
 40
0.0
 40
0.1160972656462483
 40
0.2306624149132239
 40
0.3402033629094219
 40
0.4508640089781186
 40
0.5714067874389757
 40
0.700190413246024
 40
0.842090646516928
 40
1.0
 40
1.0
 40
1.0
 40
1.0
 10
6151.194904984832
 20
5596.675367593448
 30
0.0
 10
6151.190097882068
 20
5596.660392512709
 30
0.0
 10
6151.180547115077
 20
5596.630639974891
 30
0.0
 10
6151.155764918023
 20
5596.591387537335
 30
0.0
 10
6151.124862195615
 20
5596.558163292761
 30
0.0
 10
6151.087773973625
 20
5596.530357649135
 30
0.0
 10
6151.043250327294
 20
5596.510235219635
 30
0.0
 10
6150.99260828376
 20
5596.494582458167
 30
0.0
 10
6150.934967149954
 20
5596.487349653918
 30
0.0
 10
6150.894522282368
 20
5596.485752651594
 30
0.0
 10
6150.873220018616
 20
5596.484911512366
 30
0.0
  0
SPLINE
  5
BA
330
1F
100
AcDbEntity
  8
0
  6
Continuous
 62
     7
370
    25
100
AcDbSpline
210
0.0
220
0.0
230
1.0
 70
     8
 71
     3
 72
    15
 73
    11
 74
     0
 42
0.000000001
 43
0.00000001
 40
0.0
 40
0.0
 40
0.0
 40
0.0
 40
0.1494489483192946
 40
0.2804162969478995
 40
0.3983399851957039
 40
0.5106686208067057
 40
0.6187215803246884
 40
0.732805965265062
 40
0.8584957359315752
 40
1.0
 40
1.0
 40
1.0
 40
1.0
 10
6150.873220018616
 20
5596.484911512366
 30
0.0
 10
6150.851827956724
 20
5596.485216351265
 30
0.0
 10
6150.811689281628
 20
5596.48578833117
 30
0.0
 10
6150.756190009575
 20
5596.499451026858
 30
0.0
 10
6150.707922183985
 20
5596.518505322152
 30
0.0
 10
6150.669092993593
 20
5596.548180847103
 30
0.0
 10
6150.638808164171
 20
5596.585636153085
 30
0.0
 10
6150.617916614202
 20
5596.631108989091
 30
0.0
 10
6150.605124435728
 20
5596.684357800627
 30
0.0
 10
6150.603495630355
 20
5596.722515785754
 30
0.0
 10
6150.602633025372
 20
5596.742724012366
 30
0.0
  0
SPLINE
  5
BB
330
1F
100
AcDbEntity
  8
0
  6
Continuous
 62
     7
370
    25
100
AcDbSpline
210
0.0
220
0.0
230
1.0
 70
     8
 71
     3
 72
     9
 73
     5
 74
     0
 42
0.000000001
 43
0.00000001
 40
0.0
 40
0.0
 40
0.0
 40
0.0
 40
0.4666082467568543
 40
1.0
 40
1.0
 40
1.0
 40
1.0
 10
6150.602633025372
 20
5596.742724012366
 30
0.0
 10
6150.603113829839
 20
5596.754758810556
 30
0.0
 10
6150.60414425412
 20
5596.780550892617
 30
0.0
 10
6150.609217525041
 20
5596.805867371023
 30
0.0
 10
6150.611923565913
 20
5596.819370971825
 30
0.0
  0
SPLINE
  5
BC
330
1F
100
AcDbEntity
  8
0
  6
Continuous
 62
     7
370
    25
100
AcDbSpline
210
0.0
220
0.0
230
1.0
 70
     8
 71
     3
 72
    15
 73
    11
 74
     0
 42
0.000000001
 43
0.00000001
 40
0.0
 40
0.0
 40
0.0
 40
0.0
 40
0.12574211278242
 40
0.2483729038226222
 40
0.369822713106518
 40
0.4987247648984005
 40
0.6269159236704988
 40
0.7508402192895106
 40
0.8731555254027378
 40
1.0
 40
1.0
 40
1.0
 40
1.0
 10
6166.041421032129
 20
5598.493990904259
 30
0.0
 10
6166.038941765528
 20
5598.537995443242
 30
0.0
 10
6166.034044578489
 20
5598.624915687278
 30
0.0
 10
6165.995749412123
 20
5598.749779468015
 30
0.0
 10
6165.93204798843
 20
5598.864457759936
 30
0.0
 10
6165.845640579694
 20
5598.965679249653
 30
0.0
 10
6165.743089171906
 20
5599.051608542627
 30
0.0
 10
6165.628165972412
 20
5599.116118078701
 30
0.0
 10
6165.501675296566
 20
5599.152977148353
 30
0.0
 10
6165.414539396274
 20
5599.158019952505
 30
0.0
 10
6165.370179478075
 20
5599.160587188042
 30
0.0
  0
SPLINE
  5
C0
330
1F
100
AcDbEntity
  8
0
  6
Continuous
 62
     7
370
    25
100
AcDbSpline
210
0.0
220
0.0
230
1.0
 70
     8
 71
     3
 72
    15
 73
    11
 74
     0
 42
0.000000001
 43
0.00000001
 40
0.0
 40
0.0
 40
0.0
 40
0.0
 40
0.1274086638640698
 40
0.24920939995879
 40
0.3720839042325281
 40
0.4997357737771815
 40
0.6273876433217757
 40
0.7507906000412504
 40
0.8725913361359302
 40
1.0
 40
1.0
 40
1.0
 40
1.0
 10
6165.370179478075
 20
5597.079506106961
 30
0.0
 10
6165.4149436627
 20
5597.082015790613
 30
0.0
 10
6165.502501723915
 20
5597.086924693493
 30
0.0
 10
6165.628997952112
 20
5597.124217256306
 30
0.0
 10
6165.744509887752
 20
5597.187151839066
 30
0.0
 10
6165.84685220527
 20
5597.272956733447
 30
0.0
 10
6165.932396643321
 20
5597.375566584486
 30
0.0
 10
6165.996962363971
 20
5597.490425185876
 30
0.0
 10
6166.033922405849
 20
5597.617306817613
 30
0.0
 10
6166.038884271291
 20
5597.704836610862
 30
0.0
 10
6166.041421032129
 20
5597.749586343447
 30
0.0
  0
SPLINE
  5
C2
330
1F
100
AcDbEntity
  8
0
  6
Continuous
 62
     7
370
    25
100
AcDbSpline
210
0.0
220
0.0
230
1.0
 70
     8
 71
     3
 72
    23
 73
    19
 74
     0
 42
0.000000001
 43
0.00000001
 40
0.0
 40
0.0
 40
0.0
 40
0.0
 40
0.0602270928970656
 40
0.1192957320091926
 40
0.177940494757069
 40
0.2364844162257743
 40
0.2954167439820516
 40
0.3556629103136917
 40
0.4181241147893703
 40
0.482180992785314
 40
0.5466999757700518
 40
0.6101828950384205
 40
0.6730761809147238
 40
0.7353821562772261
 40
0.7989787332068823
 40
0.864168370252196
 40
0.9306148387332102
 40
1.0
 40
1.0
 40
1.0
 40
1.0
 10
6166.710339951049
 20
5597.731005262367
 30
0.0
 10
6166.709212819977
 20
5597.690305637325
 30
0.0
 10
6166.70698023793
 20
5597.609689234837
 30
0.0
 10
6166.689457520223
 20
5597.490381947269
 30
0.0
 10
6166.658410715883
 20
5597.375264352406
 30
0.0
 10
6166.618544486309
 20
5597.262897895441
 30
0.0
 10
6166.563944696747
 20
5597.155661592602
 30
0.0
 10
6166.498818565329
 20
5597.051422262497
 30
0.0
 10
6166.420528202252
 20
5596.95222103051
 30
0.0
 10
6166.333095953292
 20
5596.857039698989
 30
0.0
 10
6166.235825724968
 20
5596.770893075627
 30
0.0
 10
6166.132680492344
 20
5596.693067195493
 30
0.0
 10
6166.021741021504
 20
5596.629652536494
 30
0.0
 10
6165.905485798874
 20
5596.57685056848
 30
0.0
 10
6165.783269805327
 20
5596.534355614349
 30
0.0
 10
6165.654177523954
 20
5596.506238538467
 30
0.0
 10
6165.519350531472
 20
5596.487987303032
 30
0.0
 10
6165.427533218278
 20
5596.485951457637
 30
0.0
 10
6165.380631336183
 20
5596.484911512366
 30
0.0
  0
SPLINE
  5
C4
330
1F
100
AcDbEntity
  8
0
  6
Continuous
 62
     7
370
    25
100
AcDbSpline
210
0.0
220
0.0
230
1.0
 70
     8
 71
     3
 72
    15
 73
    11
 74
     0
 42
0.000000001
 43
0.00000001
 40
0.0
 40
0.0
 40
0.0
 40
0.0
 40
0.1472985846902807
 40
0.2756504930887231
 40
0.3928141444239444
 40
0.5033990299456783
 40
0.6118667949945417
 40
0.729030446329898
 40
0.8553653506995059
 40
1.0
 40
1.0
 40
1.0
 40
1.0
 10
6164.007953971318
 20
5596.484911512366
 30
0.0
 10
6163.986622129168
 20
5596.485906880408
 30
0.0
 10
6163.946702310388
 20
5596.487769584602
 30
0.0
 10
6163.890428941741
 20
5596.498704178403
 30
0.0
 10
6163.842988960859
 20
5596.520049799251
 30
0.0
 10
6163.80340985387
 20
5596.549293219217
 30
0.0
 10
6163.773242498743
 20
5596.588348782703
 30
0.0
 10
6163.752918894653
 20
5596.6355121782
 30
0.0
 10
6163.739720633949
 20
5596.690539162642
 30
0.0
 10
6163.738186075162
 20
5596.729863301431
 30
0.0
 10
6163.737366978075
 20
5596.750853235339
 30
0.0
  0
SPLINE
  5
C5
330
1F
100
AcDbEntity
  8
0
  6
Continuous
 62
     7
370
    25
100
AcDbSpline
210
0.0
220
0.0
230
1.0
 70
     8
 71
     3
 72
    15
 73
    11
 74
     0
 42
0.000000001
 43
0.00000001
 40
0.0
 40
0.0
 40
0.0
 40
0.0
 40
0.1376465333874869
 40
0.2584939900653772
 40
0.3721777144533489
 40
0.4802669656692492
 40
0.5916828156085269
 40
0.7125302722863844
 40
0.8471387149837212
 40
1.0
 40
1.0
 40
1.0
 40
1.0
 10
6163.737366978075
 20
5601.718969789394
 30
0.0
 10
6163.738092216082
 20
5601.739976831599
 30
0.0
 10
6163.739454180394
 20
5601.779427110699
 30
0.0
 10
6163.753954885174
 20
5601.834653340827
 30
0.0
 10
6163.776735152193
 20
5601.882110905441
 30
0.0
 10
6163.810707962774
 20
5601.920648896762
 30
0.0
 10
6163.853868153694
 20
5601.950118548174
 30
0.0
 10
6163.906065378757
 20
5601.971227056312
 30
0.0
 10
6163.967653287942
 20
5601.981990944703
 30
0.0
 10
6164.011401354178
 20
5601.983897634822
 30
0.0
 10
6164.034664275372
 20
5601.984911512367
 30
0.0
  0
SPLINE
  5
C6
330
1F
100
AcDbEntity
  8
0
  6
Continuous
 62
     7
370
    25
100
AcDbSpline
210
0.0
220
0.0
230
1.0
 70
     8
 71
     3
 72
    15
 73
    11
 74
     0
 42
0.000000001
 43
0.00000001
 40
0.0
 40
0.0
 40
0.0
 40
0.0
 40
0.1691382693020636
 40
0.3176902073342216
 40
0.4474110356377818
 40
0.563410610629366
 40
0.6687664326273801
 40
0.7731538901271362
 40
0.880040848835351
 40
1.0
 40
1.0
 40
1.0
 40
1.0
 10
6164.034664275372
 20
5601.984911512367
 30
0.0
 10
6164.063773480902
 20
5601.984599617367
 30
0.0
 10
6164.118448922348
 20
5601.984013789055
 30
0.0
 10
6164.194312917274
 20
5601.97052764175
 30
0.0
 10
6164.259887729056
 20
5601.952145359515
 30
0.0
 10
6164.312902409247
 20
5601.922473884289
 30
0.0
 10
6164.356040703266
 20
5601.885852108442
 30
0.0
 10
6164.385154472968
 20
5601.839088304197
 30
0.0
 10
6164.40363292665
 20
5601.784567777695
 30
0.0
 10
6164.405368240585
 20
5601.745458086687
 30
0.0
 10
6164.406285896995
 20
5601.724776377232
 30
0.0
  0
SPLINE
  5
C9
330
1F
100
AcDbEntity
  8
0
  6
Continuous
 62
     7
370
    25
100
AcDbSpline
210
0.0
220
0.0
230
1.0
 70
     8
 71
     3
 72
    23
 73
    19
 74
     0
 42
0.000000001
 43
0.00000001
 40
0.0
 40
0.0
 40
0.0
 40
0.0
 40
0.0685531417639155
 40
0.1347179803294531
 40
0.1991962546843876
 40
0.2623387307751816
 40
0.3251763369186059
 40
0.3873915998287825
 40
0.4512397782103667
 40
0.5161347178016017
 40
0.581065988389191
 40
0.6431755650826965
 40
0.7039028057300893
 40
0.7628279826377715
 40
0.8215928497892498
 40
0.8802974879192983
 40
0.9395647256157742
 40
1.0
 40
1.0
 40
1.0
 40
1.0
 10
6165.407341640237
 20
5599.755181782637
 30
0.0
 10
6165.453068148137
 20
5599.754071609546
 30
0.0
 10
6165.542928111274
 20
5599.751889940369
 30
0.0
 10
6165.674973993122
 20
5599.734525218832
 30
0.0
 10
6165.800622599746
 20
5599.703621317899
 30
0.0
 10
6165.921422013657
 20
5599.663618186852
 30
0.0
 10
6166.0350097399
 20
5599.609586095915
 30
0.0
 10
6166.143446219502
 20
5599.545103433595
 30
0.0
 10
6166.245510353051
 20
5599.468482292575
 30
0.0
 10
6166.340092543315
 20
5599.380206583136
 30
0.0
 10
6166.425799524969
 20
5599.284982479727
 30
0.0
 10
6166.50261618523
 20
5599.185845449188
 30
0.0
 10
6166.566100917733
 20
5599.082343355878
 30
0.0
 10
6166.619415345707
 20
5598.975762155511
 30
0.0
 10
6166.65999590646
 20
5598.865067867241
 30
0.0
 10
6166.689057465962
 20
5598.750678818945
 30
0.0
 10
6166.707087000033
 20
5598.632760465643
 30
0.0
 10
6166.709248603192
 20
5598.552894584654
 30
0.0
 10
6166.710339951049
 20
5598.512571985339
 30
0.0
  0
CIRCLE
  5
CC
330
1F
100
AcDbEntity
  8
0
  6
Continuous
 62
     7
370
    25
100
AcDbCircle
 10
6163.3553867898
 20
5593.1881231844
 30
0.0
 40
0.75
  0
CIRCLE
  5
CD
330
1F
100
AcDbEntity
  8
0
  6
Continuous
 62
     7
370
    25
100
AcDbCircle
 10
6163.3553867898
 20
5593.1881231844
 30
0.0
 40
1.499999999999091
  0
SPLINE
  5
D0
330
1F
100
AcDbEntity
  8
0
  6
Continuous
 62
     7
370
    25
100
AcDbSpline
210
0.0
220
0.0
230
1.0
 70
     8
 71
     3
 72
    23
 73
    19
 74
     0
 42
0.000000001
 43
0.00000001
 40
0.0
 40
0.0
 40
0.0
 40
0.0
 40
0.0636946562228399
 40
0.1251032544639336
 40
0.185975398845893
 40
0.2460382127668143
 40
0.3066503712076595
 40
0.3682508365161939
 40
0.4310095427699874
 40
0.4968293199522663
 40
0.5629069775514934
 40
0.6268083644969218
 40
0.6895808951679845
 40
0.7512601910859452
 40
0.8127393982939608
 40
0.873898804478584
 40
0.9363053437771601
 40
1.0
 40
1.0
 40
1.0
 40
1.0
 10
6159.753583194291
 20
5600.764366748854
 30
0.0
 10
6159.754523205545
 20
5600.806256417016
 30
0.0
 10
6159.756369490211
 20
5600.888532295819
 30
0.0
 10
6159.776241415029
 20
5601.009426763113
 30
0.0
 10
6159.805612150006
 20
5601.125768275988
 30
0.0
 10
6159.849209070556
 20
5601.237168716521
 30
0.0
 10
6159.905521224603
 20
5601.343102052006
 30
0.0
 10
6159.972888040747
 20
5601.444534518434
 30
0.0
 10
6160.053166581274
 20
5601.540575850271
 30
0.0
 10
6160.143778323956
 20
5601.631089062998
 30
0.0
 10
6160.242605566479
 20
5601.71366385387
 30
0.0
 10
6160.346301306608
 20
5601.786814386813
 30
0.0
 10
6160.45504674338
 20
5601.84615440875
 30
0.0
 10
6160.565344031443
 20
5601.899179444187
 30
0.0
 10
6160.680906520827
 20
5601.936319073573
 30
0.0
 10
6160.799139906459
 20
5601.965147520733
 30
0.0
 10
6160.921423794878
 20
5601.981288500031
 30
0.0
 10
6161.004278909444
 20
5601.983695645302
 30
0.0
 10
6161.046129646994
 20
5601.984911512367
 30
0.0
  0
SPLINE
  5
D2
330
1F
100
AcDbEntity
  8
0
  6
Continuous
 62
     7
370
    25
100
AcDbSpline
210
0.0
220
0.0
230
1.0
 70
     8
 71
     3
 72
    15
 73
    11
 74
     0
 42
0.000000001
 43
0.00000001
 40
0.0
 40
0.0
 40
0.0
 40
0.0
 40
0.1548790377790508
 40
0.2919933978856842
 40
0.4126674844478799
 40
0.5257810605822457
 40
0.6337152448525654
 40
0.7449712554429743
 40
0.8650822696620792
 40
1.0
 40
1.0
 40
1.0
 40
1.0
 10
6162.004216640238
 20
5601.984911512367
 30
0.0
 10
6162.030986059312
 20
5601.984118419322
 30
0.0
 10
6162.081454436097
 20
5601.982623201273
 30
0.0
 10
6162.151889365172
 20
5601.969127320336
 30
0.0
 10
6162.211794224074
 20
5601.945507431149
 30
0.0
 10
6162.261923295009
 20
5601.913202110552
 30
0.0
 10
6162.300249228932
 20
5601.869585796389
 30
0.0
 10
6162.327660505052
 20
5601.817121903175
 30
0.0
 10
6162.342156090257
 20
5601.754944715606
 30
0.0
 10
6162.344437220107
 20
5601.710909920762
 30
0.0
 10
6162.345644005102
 20
5601.68761421507
 30
0.0
  0
SPLINE
  5
D3
330
1F
100
AcDbEntity
  8
0
  6
Continuous
 62
     7
370
    25
100
AcDbSpline
210
0.0
220
0.0
230
1.0
 70
     8
 71
     3
 72
    15
 73
    11
 74
     0
 42
0.000000001
 43
0.00000001
 40
0.0
 40
0.0
 40
0.0
 40
0.0
 40
0.1349177303379178
 40
0.2550287445571033
 40
0.3662847551474338
 40
0.474218939417751
 40
0.5873325155521144
 40
0.7080066021143392
 40
0.8451209622209528
 40
1.0
 40
1.0
 40
1.0
 40
1.0
 10
6162.345644005102
 20
5601.68761421507
 30
0.0
 10
6162.344437220107
 20
5601.664318509377
 30
0.0
 10
6162.342156090257
 20
5601.620283714532
 30
0.0
 10
6162.327660505052
 20
5601.558106526964
 30
0.0
 10
6162.300249228932
 20
5601.505642633749
 30
0.0
 10
6162.261923295009
 20
5601.462026319586
 30
0.0
 10
6162.211794224074
 20
5601.42972099899
 30
0.0
 10
6162.151889365172
 20
5601.406101109802
 30
0.0
 10
6162.081454436097
 20
5601.392605228866
 30
0.0
 10
6162.030986059312
 20
5601.391110010816
 30
0.0
 10
6162.004216640238
 20
5601.390316917772
 30
0.0
  0
SPLINE
  5
D5
330
1F
100
AcDbEntity
  8
0
  6
Continuous
 62
     7
370
    25
100
AcDbSpline
210
0.0
220
0.0
230
1.0
 70
     8
 71
     3
 72
    15
 73
    11
 74
     0
 42
0.000000001
 43
0.00000001
 40
0.0
 40
0.0
 40
0.0
 40
0.0
 40
0.1149354247298147
 40
0.2288707708169573
 40
0.3476177967011645
 40
0.4735492141811287
 40
0.6025588394228766
 40
0.727891633568519
 40
0.8600067485935002
 40
1.0
 40
1.0
 40
1.0
 40
1.0
 10
6161.046129646994
 20
5601.390316917772
 30
0.0
 10
6161.007138916172
 20
5601.388149971503
 30
0.0
 10
6160.929496721533
 20
5601.383834934045
 30
0.0
 10
6160.816632361236
 20
5601.346491492102
 30
0.0
 10
6160.709699044749
 20
5601.287756106816
 30
0.0
 10
6160.612221648588
 20
5601.206227165134
 30
0.0
 10
6160.526819064878
 20
5601.10863469944
 30
0.0
 10
6160.466670610259
 20
5600.991393709474
 30
0.0
 10
6160.427944616458
 20
5600.861269468003
 30
0.0
 10
6160.424350962358
 20
5600.76891312837
 30
0.0
 10
6160.422502113211
 20
5600.721397998854
 30
0.0
  0
SPLINE
  5
D7
330
1F
100
AcDbEntity
  8
0
  6
Continuous
 62
     7
370
    25
100
AcDbSpline
210
0.0
220
0.0
230
1.0
 70
     8
 71
     3
 72
    15
 73
    11
 74
     0
 42
0.000000001
 43
0.00000001
 40
0.0
 40
0.0
 40
0.0
 40
0.0
 40
0.1409979526999586
 40
0.2715745442824421
 40
0.3983312247206566
 40
0.5264808775378537
 40
0.653175750570327
 40
0.770258373369428
 40
0.8851746440773602
 40
1.0
 40
1.0
 40
1.0
 40
1.0
 10
6160.422502113211
 20
5597.74842502588
 30
0.0
 10
6160.424422999769
 20
5597.7005570212
 30
0.0
 10
6160.428122797403
 20
5597.608359004791
 30
0.0
 10
6160.465384254028
 20
5597.477273879853
 30
0.0
 10
6160.526894770289
 20
5597.361012789313
 30
0.0
 10
6160.610986058119
 20
5597.261638848746
 30
0.0
 10
6160.709180380421
 20
5597.181496456725
 30
0.0
 10
6160.816272188222
 20
5597.122934986846
 30
0.0
 10
6160.92916718595
 20
5597.086136084312
 30
0.0
 10
6161.007152446917
 20
5597.081715516299
 30
0.0
 10
6161.046129646994
 20
5597.079506106961
 30
0.0
  0
SPLINE
  5
D8
330
1F
100
AcDbEntity
  8
0
  6
Continuous
 62
     7
370
    25
100
AcDbSpline
210
0.0
220
0.0
230
1.0
 70
     8
 71
     3
 72
    15
 73
    11
 74
     0
 42
0.000000001
 43
0.00000001
 40
0.0
 40
0.0
 40
0.0
 40
0.0
 40
0.1548790377790508
 40
0.2919933978856842
 40
0.4126674844478799
 40
0.5257810605822457
 40
0.6337152448525654
 40
0.7449712554429743
 40
0.8650822696620792
 40
1.0
 40
1.0
 40
1.0
 40
1.0
 10
6162.004216640238
 20
5597.079506106961
 30
0.0
 10
6162.030986059312
 20
5597.078713013917
 30
0.0
 10
6162.081454436097
 20
5597.077217795867
 30
0.0
 10
6162.151889365172
 20
5597.063721914931
 30
0.0
 10
6162.211794224074
 20
5597.040102025744
 30
0.0
 10
6162.261923295009
 20
5597.007796705147
 30
0.0
 10
6162.300249228932
 20
5596.964180390984
 30
0.0
 10
6162.327660505052
 20
5596.911716497768
 30
0.0
 10
6162.342156090257
 20
5596.8495393102
 30
0.0
 10
6162.344437220107
 20
5596.805504515355
 30
0.0
 10
6162.345644005102
 20
5596.782208809664
 30
0.0
  0
SPLINE
  5
D9
330
1F
100
AcDbEntity
  8
0
  6
Continuous
 62
     7
370
    25
100
AcDbSpline
210
0.0
220
0.0
230
1.0
 70
     8
 71
     3
 72
    23
 73
    19
 74
     0
 42
0.000000001
 43
0.00000001
 40
0.0
 40
0.0
 40
0.0
 40
0.0
 40
0.0636792225567519
 40
0.1260706403090892
 40
0.1877884128189592
 40
0.2486942415157042
 40
0.3106504428495437
 40
0.3731862596611046
 40
0.4370721628481404
 40
0.5027572666284876
 40
0.5685610952128266
 40
0.631304594587835
 40
0.6928901336675646
 40
0.7540091838791635
 40
0.8140574441551168
 40
0.8743449816747536
 40
0.9363207774432706
 40
1.0
 40
1.0
 40
1.0
 40
1.0
 10
6161.046129646994
 20
5596.484911512366
 30
0.0
 10
6161.00427373701
 20
5596.486110786223
 30
0.0
 10
6160.92140838218
 20
5596.488485080644
 30
0.0
 10
6160.798825445948
 20
5596.504917173823
 30
0.0
 10
6160.680313873759
 20
5596.532906633421
 30
0.0
 10
6160.565175893814
 20
5596.571637105746
 30
0.0
 10
6160.453668742538
 20
5596.62131547282
 30
0.0
 10
6160.346488784445
 20
5596.683694433846
 30
0.0
 10
6160.242905937506
 20
5596.75606932621
 30
0.0
 10
6160.143419066251
 20
5596.837542248032
 30
0.0
 10
6160.053201766807
 20
5596.928131933568
 30
0.0
 10
6159.972919634372
 20
5597.024137107655
 30
0.0
 10
6159.905174400984
 20
5597.125763590802
 30
0.0
 10
6159.849488500855
 20
5597.232422074713
 30
0.0
 10
6159.805802695263
 20
5597.343704539174
 30
0.0
 10
6159.77593375374
 20
5597.459946136159
 30
0.0
 10
6159.756481765648
 20
5597.580925013739
 30
0.0
 10
6159.75455807749
 20
5597.663572388844
 30
0.0
 10
6159.753583194291
 20
5597.705456275879
 30
0.0
  0
SPLINE
  5
DB
330
1F
100
AcDbEntity
  8
0
  6
Continuous
 62
     7
370
    25
100
AcDbSpline
210
0.0
220
0.0
230
1.0
 70
     8
 71
     3
 72
    15
 73
    11
 74
     0
 42
0.000000001
 43
0.00000001
 40
0.0
 40
0.0
 40
0.0
 40
0.0
 40
0.1349177303379178
 40
0.2550287445571033
 40
0.3662847551474338
 40
0.474218939417751
 40
0.5873325155521144
 40
0.7080066021143392
 40
0.8451209622209528
 40
1.0
 40
1.0
 40
1.0
 40
1.0
 10
6162.345644005102
 20
5596.782208809664
 30
0.0
 10
6162.344437220107
 20
5596.758913103971
 30
0.0
 10
6162.342156090257
 20
5596.714878309127
 30
0.0
 10
6162.327660505052
 20
5596.652701121558
 30
0.0
 10
6162.300249228932
 20
5596.600237228343
 30
0.0
 10
6162.261923295009
 20
5596.55662091418
 30
0.0
 10
6162.211794224074
 20
5596.524315593584
 30
0.0
 10
6162.151889365172
 20
5596.500695704397
 30
0.0
 10
6162.081454436097
 20
5596.48719982346
 30
0.0
 10
6162.030986059312
 20
5596.485704605411
 30
0.0
 10
6162.004216640238
 20
5596.484911512366
 30
0.0
  0
SPLINE
  5
DE
330
1F
100
AcDbEntity
  8
0
  6
Continuous
 62
     7
370
    25
100
AcDbSpline
210
0.0
220
0.0
230
1.0
 70
     8
 71
     3
 72
    15
 73
    11
 74
     0
 42
0.000000001
 43
0.00000001
 40
0.0
 40
0.0
 40
0.0
 40
0.0
 40
0.154025233965931
 40
0.2977651209541557
 40
0.4351151610673513
 40
0.5718982006584135
 40
0.7010171099184298
 40
0.8114907083375204
 40
0.9104177519505887
 40
1.0
 40
1.0
 40
1.0
 40
1.0
 10
6170.727801944292
 20
5602.059235836691
 30
0.0
 10
6170.752667101371
 20
5602.058168791505
 30
0.0
 10
6170.800736994302
 20
5602.056105955235
 30
0.0
 10
6170.869499265588
 20
5602.038862495735
 30
0.0
 10
6170.929701678488
 20
5602.007522418882
 30
0.0
 10
6170.98150731112
 20
5601.96752434704
 30
0.0
 10
6171.021714864774
 20
5601.921660146086
 30
0.0
 10
6171.053353425003
 20
5601.877141384114
 30
0.0
 10
6171.073798373925
 20
5601.832504709293
 30
0.0
 10
6171.076211690424
 20
5601.801989011597
 30
0.0
 10
6171.077358532129
 20
5601.78748752588
 30
0.0
  0
SPLINE
  5
E0
330
1F
100
AcDbEntity
  8
0
  6
Continuous
 62
     7
370
    25
100
AcDbSpline
210
0.0
220
0.0
230
1.0
 70
     8
 71
     3
 72
    15
 73
    11
 74
     0
 42
0.000000001
 43
0.00000001
 40
0.0
 40
0.0
 40
0.0
 40
0.0
 40
0.1208158510018263
 40
0.2307257204520324
 40
0.3358108859966634
 40
0.4414612828648281
 40
0.5572426563437244
 40
0.6861667178992646
 40
0.832677457584426
 40
0.9999999999999999
 40
0.9999999999999999
 40
0.9999999999999999
 40
0.9999999999999999
 10
6168.761691302399
 20
5596.753175870475
 30
0.0
 10
6168.760715214834
 20
5596.732127713258
 30
0.0
 10
6168.758851150601
 20
5596.691931404596
 30
0.0
 10
6168.740859515976
 20
5596.635727631437
 30
0.0
 10
6168.711490605378
 20
5596.587555623823
 30
0.0
 10
6168.668434132548
 20
5596.549652290722
 30
0.0
 10
6168.615393812661
 20
5596.518987366071
 30
0.0
 10
6168.550048362443
 20
5596.498571829938
 30
0.0
 10
6168.473659851921
 20
5596.487795458031
 30
0.0
 10
6168.419138267801
 20
5596.485914408095
 30
0.0
 10
6168.390069680778
 20
5596.484911512366
 30
0.0
  0
SPLINE
  5
E1
330
1F
100
AcDbEntity
  8
0
  6
Continuous
 62
     7
370
    25
100
AcDbSpline
210
0.0
220
0.0
230
1.0
 70
     8
 71
     3
 72
    15
 73
    11
 74
     0
 42
0.000000001
 43
0.00000001
 40
0.0
 40
0.0
 40
0.0
 40
0.0
 40
0.152861285016274
 40
0.2874697277136065
 40
0.4083171843914602
 40
0.5197330343306789
 40
0.6278222855465757
 40
0.7415060099346309
 40
0.8623534666125174
 40
1.0
 40
1.0
 40
1.0
 40
1.0
 10
6168.390069680778
 20
5596.484911512366
 30
0.0
 10
6168.366806759583
 20
5596.485925389911
 30
0.0
 10
6168.323058693347
 20
5596.48783208003
 30
0.0
 10
6168.261470784163
 20
5596.498595968421
 30
0.0
 10
6168.2092735591
 20
5596.519704476558
 30
0.0
 10
6168.16611336818
 20
5596.549174127971
 30
0.0
 10
6168.132140557599
 20
5596.587712119293
 30
0.0
 10
6168.109360290579
 20
5596.635169683906
 30
0.0
 10
6168.094859585799
 20
5596.690395914035
 30
0.0
 10
6168.093497621488
 20
5596.729846193134
 30
0.0
 10
6168.09277238348
 20
5596.750853235339
 30
0.0
  0
SPLINE
  5
E3
330
1F
100
AcDbEntity
  8
0
  6
Continuous
 62
     7
370
    25
100
AcDbSpline
210
0.0
220
0.0
230
1.0
 70
     8
 71
     3
 72
    15
 73
    11
 74
     0
 42
0.000000001
 43
0.00000001
 40
0.0
 40
0.0
 40
0.0
 40
0.0
 40
0.1376465333874869
 40
0.2584939900653772
 40
0.3721777144533489
 40
0.4802669656692492
 40
0.5916828156085269
 40
0.7125302722863844
 40
0.8471387149837212
 40
1.0
 40
1.0
 40
1.0
 40
1.0
 10
6168.09277238348
 20
5601.718969789394
 30
0.0
 10
6168.093497621488
 20
5601.739976831599
 30
0.0
 10
6168.094859585799
 20
5601.779427110699
 30
0.0
 10
6168.109360290579
 20
5601.834653340827
 30
0.0
 10
6168.132140557599
 20
5601.882110905441
 30
0.0
 10
6168.16611336818
 20
5601.920648896762
 30
0.0
 10
6168.2092735591
 20
5601.950118548174
 30
0.0
 10
6168.261470784163
 20
5601.971227056312
 30
0.0
 10
6168.323058693347
 20
5601.981990944703
 30
0.0
 10
6168.366806759583
 20
5601.983897634822
 30
0.0
 10
6168.390069680778
 20
5601.984911512367
 30
0.0
  0
SPLINE
  5
E4
330
1F
100
AcDbEntity
  8
0
  6
Continuous
 62
     7
370
    25
100
AcDbSpline
210
0.0
220
0.0
230
1.0
 70
     8
 71
     3
 72
    15
 73
    11
 74
     0
 42
0.000000001
 43
0.00000001
 40
0.0
 40
0.0
 40
0.0
 40
0.0
 40
0.1687372826955666
 40
0.3164867953630874
 40
0.4465009315750949
 40
0.5610794434177645
 40
0.66762313218724
 40
0.7716984773789048
 40
0.8803995195839814
 40
1.0
 40
1.0
 40
1.0
 40
1.0
 10
6168.390069680778
 20
5601.984911512367
 30
0.0
 10
6168.419124063794
 20
5601.983883670445
 30
0.0
 10
6168.473619006613
 20
5601.981955830961
 30
0.0
 10
6168.550181420576
 20
5601.971484881953
 30
0.0
 10
6168.614619573454
 20
5601.950223458823
 30
0.0
 10
6168.669098754634
 20
5601.922874405251
 30
0.0
 10
6168.711011692068
 20
5601.884559507195
 30
0.0
 10
6168.740923098183
 20
5601.837735284388
 30
0.0
 10
6168.758836969339
 20
5601.782536463354
 30
0.0
 10
6168.760710050201
 20
5601.743108760648
 30
0.0
 10
6168.761691302399
 20
5601.722453742096
 30
0.0
  0
SPLINE
  5
E5
330
1F
100
AcDbEntity
  8
0
  6
Continuous
 62
     7
370
    25
100
AcDbSpline
210
0.0
220
0.0
230
1.0
 70
     8
 71
     3
 72
    11
 73
     7
 74
     0
 42
0.000000001
 43
0.00000001
 40
0.0
 40
0.0
 40
0.0
 40
0.0
 40
0.2608513162074325
 40
0.5078905859945235
 40
0.7467957379979807
 40
1.0
 40
1.0
 40
1.0
 40
1.0
 10
6170.516442146994
 20
5601.946588032637
 30
0.0
 10
6170.530049829098
 20
5601.96355035088
 30
0.0
 10
6170.556544668145
 20
5601.996576834616
 30
0.0
 10
6170.607463010871
 20
5602.033367881915
 30
0.0
 10
6170.665687362134
 20
5602.055631024181
 30
0.0
 10
6170.706699853398
 20
5602.058011179314
 30
0.0
 10
6170.727801944292
 20
5602.059235836691
 30
0.0
  0
SPLINE
  5
E6
330
1F
100
AcDbEntity
  8
0
  6
Continuous
 62
     7
370
    25
100
AcDbSpline
210
0.0
220
0.0
230
1.0
 70
     8
 71
     3
 72
     9
 73
     5
 74
     0
 42
0.000000001
 43
0.00000001
 40
0.0
 40
0.0
 40
0.0
 40
0.0
 40
0.468479273168149
 40
1.0
 40
1.0
 40
1.0
 40
1.0
 10
6171.077358532129
 20
5601.78748752588
 30
0.0
 10
6171.074740326148
 20
5601.764809477245
 30
0.0
 10
6171.069151592282
 20
5601.716401682205
 30
0.0
 10
6171.041146073078
 20
5601.676373259505
 30
0.0
 10
6171.026260559156
 20
5601.655097323178
 30
0.0
  0
SPLINE
  5
E9
330
1F
100
AcDbEntity
  8
0
  6
Continuous
 62
     7
370
    25
100
AcDbSpline
210
0.0
220
0.0
230
1.0
 70
     8
 71
     3
 72
     9
 73
     5
 74
     0
 42
0.000000001
 43
0.00000001
 40
0.0
 40
0.0
 40
0.0
 40
0.0
 40
0.5715244711947817
 40
1.0
 40
1.0
 40
1.0
 40
1.0
 10
6171.040196369967
 20
5596.863501039394
 30
0.0
 10
6171.049615757955
 20
5596.841770465968
 30
0.0
 10
6171.06609692099
 20
5596.803748343518
 30
0.0
 10
6171.070728670526
 20
5596.762654397677
 30
0.0
 10
6171.072713261859
 20
5596.745046647502
 30
0.0
  0
SPLINE
  5
EA
330
1F
100
AcDbEntity
  8
0
  6
Continuous
 62
     7
370
    25
100
AcDbSpline
210
0.0
220
0.0
230
1.0
 70
     8
 71
     3
 72
    15
 73
    11
 74
     0
 42
0.000000001
 43
0.00000001
 40
0.0
 40
0.0
 40
0.0
 40
0.0
 40
0.1226177230356758
 40
0.2354791129026426
 40
0.3397384650543861
 40
0.4476334423268299
 40
0.5611761921817149
 40
0.6903366021261684
 40
0.8354274431761914
 40
1.0
 40
1.0
 40
1.0
 40
1.0
 10
6171.072713261859
 20
5596.745046647502
 30
0.0
 10
6171.07159350888
 20
5596.724809221315
 30
0.0
 10
6171.069443098386
 20
5596.685944601684
 30
0.0
 10
6171.053318426886
 20
5596.631595254137
 30
0.0
 10
6171.025361293131
 20
5596.585243027215
 30
0.0
 10
6170.986309597297
 20
5596.547349412986
 30
0.0
 10
6170.935120179131
 20
5596.519488363504
 30
0.0
 10
6170.874401801992
 20
5596.498485052268
 30
0.0
 10
6170.802479650376
 20
5596.48786264619
 30
0.0
 10
6170.751442177144
 20
5596.485935634713
 30
0.0
 10
6170.724317991589
 20
5596.484911512366
 30
0.0
  0
SPLINE
  5
EB
330
1F
100
AcDbEntity
  8
0
  6
Continuous
 62
     7
370
    25
100
AcDbSpline
210
0.0
220
0.0
230
1.0
 70
     8
 71
     3
 72
    11
 73
     7
 74
     0
 42
0.000000001
 43
0.00000001
 40
0.0
 40
0.0
 40
0.0
 40
0.0
 40
0.2028584217293105
 40
0.4177658904102144
 40
0.6762772160276664
 40
0.9999999999999999
 40
0.9999999999999999
 40
0.9999999999999999
 40
0.9999999999999999
 10
6170.724317991589
 20
5596.484911512366
 30
0.0
 10
6170.698746882284
 20
5596.48819387084
 30
0.0
 10
6170.646085833479
 20
5596.494953547852
 30
0.0
 10
6170.577240090347
 20
5596.54991328874
 30
0.0
 10
6170.522898415191
 20
5596.634422737669
 30
0.0
 10
6170.498597761795
 20
5596.703278704199
 30
0.0
 10
6170.485086572669
 20
5596.741562694799
 30
0.0
  0
SPLINE
  5
1A5
330
1F
100
AcDbEntity
  8
0
  6
Continuous
 62
     7
370
    25
100
AcDbSpline
210
0.0
220
0.0
230
1.0
 70
     8
 71
     3
 72
     8
 73
     4
 74
     0
 42
0.000000001
 43
0.00000001
 40
0.4408602150537634
 40
0.4408602150537634
 40
0.4408602150537634
 40
0.4408602150537634
 40
0.4462365591397849
 40
0.4462365591397849
 40
0.4462365591397849
 40
0.4462365591397849
 10
6145.231436308069
 20
5572.28274809873
 30
0.0
 10
6145.554862974734
 20
5572.238721432064
 30
0.0
 10
6146.030435641401
 20
5572.011433765397
 30
0.0
 10
6146.658154308068
 20
5571.600885098729
 30
0.0
  0
SPLINE
  5
1A6
330
1F
100
AcDbEntity
  8
0
  6
Continuous
 62
     7
370
    25
100
AcDbSpline
210
0.0
220
0.0
230
1.0
 70
     8
 71
     3
 72
     8
 73
     4
 74
     0
 42
0.000000001
 43
0.00000001
 40
0.4354838709677419
 40
0.4354838709677419
 40
0.4354838709677419
 40
0.4354838709677419
 40
0.4408602150537634
 40
0.4408602150537634
 40
0.4408602150537634
 40
0.4408602150537634
 10
6143.090216308066
 20
5575.20108109873
 30
0.0
 10
6144.170562974733
 20
5573.320295765396
 30
0.0
 10
6144.884302974733
 20
5572.34751809873
 30
0.0
 10
6145.231436308069
 20
5572.28274809873
 30
0.0
  0
LINE
  5
1A7
330
1F
100
AcDbEntity
  8
0
  6
Continuous
 62
     7
370
    25
100
AcDbLine
 10
6157.7022318429
 20
5599.7551817826
 30
0.0
 11
6157.7022318429
 21
5601.7247763772
 31
0.0
  0
LINE
  5
1A8
330
1F
100
AcDbEntity
  8
0
  6
Continuous
 62
     7
370
    25
100
AcDbLine
 10
6158.3711507619
 20
5601.7189697894
 30
0.0
 11
6158.3711507619
 21
5596.7508532353
 31
0.0
  0
LINE
  5
1A9
330
1F
100
AcDbEntity
  8
0
  6
Continuous
 62
     7
370
    25
100
AcDbLine
 10
6157.7022318429
 20
5596.7508532353
 30
0.0
 11
6157.7022318429
 21
5599.160587188
 31
0.0
  0
LINE
  5
1AA
330
1F
100
AcDbEntity
  8
0
  6
Continuous
 62
     7
370
    25
100
AcDbLine
 10
6157.7022318429
 20
5599.160587188
 30
0.0
 11
6156.0670967078
 21
5599.160587188
 31
0.0
  0
LINE
  5
1AB
330
1F
100
AcDbEntity
  8
0
  6
Continuous
 62
     7
370
    25
100
AcDbLine
 10
6156.0670967078
 20
5599.160587188
 30
0.0
 11
6156.0670967078
 21
5596.7508532353
 31
0.0
  0
LINE
  5
1AC
330
1F
100
AcDbEntity
  8
0
  6
Continuous
 62
     7
370
    25
100
AcDbLine
 10
6155.3981777889
 20
5596.7508532353
 30
0.0
 11
6155.3981777889
 21
5601.7189697894
 31
0.0
  0
LINE
  5
1AD
330
1F
100
AcDbEntity
  8
0
  6
Continuous
 62
     7
370
    25
100
AcDbLine
 10
6156.0670967078
 20
5601.7247763772
 30
0.0
 11
6156.0670967078
 21
5599.7551817826
 31
0.0
  0
LINE
  5
1AE
330
1F
100
AcDbEntity
  8
0
  6
Continuous
 62
     7
370
    25
100
AcDbLine
 10
6156.0670967078
 20
5599.7551817826
 30
0.0
 11
6157.7022318429
 21
5599.7551817826
 31
0.0
  0
LINE
  5
1AF
330
1F
100
AcDbEntity
  8
0
  6
Continuous
 62
     7
370
    25
100
AcDbLine
 10
6140.1319615727
 20
5596.7473692826
 30
0.0
 11
6140.1319615727
 21
5601.3903169178
 31
0.0
  0
LINE
  5
1B0
330
1F
100
AcDbEntity
  8
0
  6
Continuous
 62
     7
370
    25
100
AcDbLine
 10
6140.1319615727
 20
5601.3903169178
 30
0.0
 11
6139.5164632619
 21
5601.3903169178
 31
0.0
  0
LINE
  5
1B1
330
1F
100
AcDbEntity
  8
0
  6
Continuous
 62
     7
370
    25
100
AcDbLine
 10
6139.5164632619
 20
5601.3903169178
 30
0.0
 11
6138.0322994105
 21
5596.6718836407
 31
0.0
  0
LINE
  5
1B2
330
1F
100
AcDbEntity
  8
0
  6
Continuous
 62
     7
370
    25
100
AcDbLine
 10
6137.4493179916
 20
5596.8321454651
 30
0.0
 11
6138.9915477213
 21
5601.797939384
 31
0.0
  0
LINE
  5
1B3
330
1F
100
AcDbEntity
  8
0
  6
Continuous
 62
     7
370
    25
100
AcDbLine
 10
6139.2481989038
 20
5601.9849115124
 30
0.0
 11
6140.42925887
 21
5601.9849115124
 31
0.0
  0
LINE
  5
1B4
330
1F
100
AcDbEntity
  8
0
  6
Continuous
 62
     7
370
    25
100
AcDbLine
 10
6140.8008804916
 20
5601.7189697894
 30
0.0
 11
6140.8008804916
 21
5596.7508532353
 31
0.0
  0
LINE
  5
1B5
330
1F
100
AcDbEntity
  8
0
  6
Continuous
 62
     7
370
    25
100
AcDbLine
 10
6144.5616913024
 20
5598.7889655664
 30
0.0
 11
6143.4816659646
 21
5598.7889655664
 31
0.0
  0
LINE
  5
1B6
330
1F
100
AcDbEntity
  8
0
  6
Continuous
 62
     7
370
    25
100
AcDbLine
 10
6142.2576372483
 20
5600.0037037421
 30
0.0
 11
6142.2576372483
 21
5601.720131107
 31
0.0
  0
LINE
  5
1B7
330
1F
100
AcDbEntity
  8
0
  6
Continuous
 62
     7
370
    25
100
AcDbLine
 10
6142.9265561673
 20
5601.7247763772
 30
0.0
 11
6142.9265561673
 21
5600.0501564448
 31
0.0
  0
LINE
  5
1B8
330
1F
100
AcDbEntity
  8
0
  6
Continuous
 62
     7
370
    25
100
AcDbLine
 10
6143.5199894443
 20
5599.383560161
 30
0.0
 11
6144.5616913024
 21
5599.383560161
 31
0.0
  0
LINE
  5
1B9
330
1F
100
AcDbEntity
  8
0
  6
Continuous
 62
     7
370
    25
100
AcDbLine
 10
6144.5616913024
 20
5599.383560161
 30
0.0
 11
6144.5616913024
 21
5601.7247763772
 31
0.0
  0
LINE
  5
1BA
330
1F
100
AcDbEntity
  8
0
  6
Continuous
 62
     7
370
    25
100
AcDbLine
 10
6143.9276119105
 20
5596.4849115124
 30
0.0
 11
6142.9695249173
 21
5596.4849115124
 31
0.0
  0
LINE
  5
1BB
330
1F
100
AcDbEntity
  8
0
  6
Continuous
 62
     7
370
    25
100
AcDbLine
 10
6142.9637183294
 20
5597.079506107
 30
0.0
 11
6143.8904497483
 21
5597.079506107
 31
0.0
  0
LINE
  5
1BC
330
1F
100
AcDbEntity
  8
0
  6
Continuous
 62
     7
370
    25
100
AcDbLine
 10
6144.5616913024
 20
5597.7472637083
 30
0.0
 11
6144.5616913024
 21
5598.7889655664
 31
0.0
  0
LINE
  5
1BD
330
1F
100
AcDbEntity
  8
0
  6
Continuous
 62
     7
370
    25
100
AcDbLine
 10
6145.2306102213
 20
5601.7189697894
 30
0.0
 11
6145.2306102213
 21
5597.7054562759
 31
0.0
  0
LINE
  5
1BE
330
1F
100
AcDbEntity
  8
0
  6
Continuous
 62
     7
370
    25
100
AcDbLine
 10
6148.8636760997
 20
5601.3903169178
 30
0.0
 11
6147.2819615727
 21
5601.3903169178
 31
0.0
  0
LINE
  5
1BF
330
1F
100
AcDbEntity
  8
0
  6
Continuous
 62
     7
370
    25
100
AcDbLine
 10
6147.2819615727
 20
5601.3903169178
 30
0.0
 11
6147.2819615727
 21
5596.7473692826
 31
0.0
  0
LINE
  5
1C0
330
1F
100
AcDbEntity
  8
0
  6
Continuous
 62
     7
370
    25
100
AcDbLine
 10
6146.6130426538
 20
5596.7508532353
 30
0.0
 11
6146.6130426538
 21
5601.7189697894
 31
0.0
  0
LINE
  5
1C1
330
1F
100
AcDbEntity
  8
0
  6
Continuous
 62
     7
370
    25
100
AcDbLine
 10
6146.910339951
 20
5601.9849115124
 30
0.0
 11
6148.8636760997
 21
5601.9849115124
 31
0.0
  0
LINE
  5
1C2
330
1F
100
AcDbEntity
  8
0
  6
Continuous
 62
     7
370
    25
100
AcDbLine
 10
6150.6119235659
 20
5596.8193709718
 30
0.0
 11
6151.9590519443
 21
5601.7572932691
 31
0.0
  0
LINE
  5
1C3
330
1F
100
AcDbEntity
  8
0
  6
Continuous
 62
     7
370
    25
100
AcDbLine
 10
6152.5420333632
 20
5601.7572932691
 30
0.0
 11
6153.888000424
 21
5596.8193709718
 31
0.0
  0
LINE
  5
1C4
330
1F
100
AcDbEntity
  8
0
  6
Continuous
 62
     7
370
    25
100
AcDbLine
 10
6153.3050190051
 20
5596.6753675934
 30
0.0
 11
6152.942687924
 21
5597.9713979989
 31
0.0
  0
LINE
  5
1C5
330
1F
100
AcDbEntity
  8
0
  6
Continuous
 62
     7
370
    25
100
AcDbLine
 10
6152.942687924
 20
5597.9713979989
 30
0.0
 11
6151.5572360659
 21
5597.9713979989
 31
0.0
  0
LINE
  5
1C6
330
1F
100
AcDbEntity
  8
0
  6
Continuous
 62
     7
370
    25
100
AcDbLine
 10
6152.2505426538
 20
5600.9525001948
 30
0.0
 11
6151.6826583632
 21
5598.5659925934
 31
0.0
  0
LINE
  5
1C7
330
1F
100
AcDbEntity
  8
0
  6
Continuous
 62
     7
370
    25
100
AcDbLine
 10
6152.821910897
 20
5598.5659925934
 30
0.0
 11
6152.2505426538
 21
5600.9525001948
 31
0.0
  0
LINE
  5
1C8
330
1F
100
AcDbEntity
  8
0
  6
Continuous
 62
     7
370
    25
100
AcDbLine
 10
6151.6826583632
 20
5598.5659925934
 30
0.0
 11
6152.821910897
 21
5598.5659925934
 31
0.0
  0
LINE
  5
1C9
330
1F
100
AcDbEntity
  8
0
  6
Continuous
 62
     7
370
    25
100
AcDbLine
 10
6151.5572360659
 20
5597.9713979989
 30
0.0
 11
6151.1949049848
 21
5596.6753675934
 31
0.0
  0
LINE
  5
1CA
330
1F
100
AcDbEntity
  8
0
  6
Continuous
 62
     7
370
    25
100
AcDbLine
 10
6165.3701794781
 20
5599.160587188
 30
0.0
 11
6164.406285897
 21
5599.160587188
 31
0.0
  0
LINE
  5
1CB
330
1F
100
AcDbEntity
  8
0
  6
Continuous
 62
     7
370
    25
100
AcDbLine
 10
6164.406285897
 20
5599.160587188
 30
0.0
 11
6164.406285897
 21
5597.079506107
 31
0.0
  0
LINE
  5
1CC
330
1F
100
AcDbEntity
  8
0
  6
Continuous
 62
     7
370
    25
100
AcDbLine
 10
6164.406285897
 20
5597.079506107
 30
0.0
 11
6165.3701794781
 21
5597.079506107
 31
0.0
  0
LINE
  5
1CD
330
1F
100
AcDbEntity
  8
0
  6
Continuous
 62
     7
370
    25
100
AcDbLine
 10
6166.0414210321
 20
5597.7495863434
 30
0.0
 11
6166.0414210321
 21
5598.4939909043
 31
0.0
  0
LINE
  5
1CE
330
1F
100
AcDbEntity
  8
0
  6
Continuous
 62
     7
370
    25
100
AcDbLine
 10
6165.3806313362
 20
5596.4849115124
 30
0.0
 11
6164.0079539713
 21
5596.4849115124
 31
0.0
  0
LINE
  5
1CF
330
1F
100
AcDbEntity
  8
0
  6
Continuous
 62
     7
370
    25
100
AcDbLine
 10
6164.406285897
 20
5601.7247763772
 30
0.0
 11
6164.406285897
 21
5599.7551817826
 31
0.0
  0
LINE
  5
1D0
330
1F
100
AcDbEntity
  8
0
  6
Continuous
 62
     7
370
    25
100
AcDbLine
 10
6164.406285897
 20
5599.7551817826
 30
0.0
 11
6165.4073416402
 21
5599.7551817826
 31
0.0
  0
LINE
  5
1D1
330
1F
100
AcDbEntity
  8
0
  6
Continuous
 62
     7
370
    25
100
AcDbLine
 10
6166.710339951
 20
5598.5125719853
 30
0.0
 11
6166.710339951
 21
5597.7310052624
 31
0.0
  0
LINE
  5
1D2
330
1F
100
AcDbEntity
  8
0
  6
Continuous
 62
     7
370
    25
100
AcDbLine
 10
6163.7373669781
 20
5596.7508532353
 30
0.0
 11
6163.7373669781
 21
5601.7189697894
 31
0.0
  0
LINE
  5
1D3
330
1F
100
AcDbEntity
  8
0
  6
Continuous
 62
     7
370
    25
100
AcDbLine
 10
6162.0042166402
 20
5596.4849115124
 30
0.0
 11
6161.046129647
 21
5596.4849115124
 31
0.0
  0
LINE
  5
1D4
330
1F
100
AcDbEntity
  8
0
  6
Continuous
 62
     7
370
    25
100
AcDbLine
 10
6159.7535831943
 20
5597.7054562759
 30
0.0
 11
6159.7535831943
 21
5600.7643667489
 31
0.0
  0
LINE
  5
1D5
330
1F
100
AcDbEntity
  8
0
  6
Continuous
 62
     7
370
    25
100
AcDbLine
 10
6161.046129647
 20
5601.9849115124
 30
0.0
 11
6162.0042166402
 21
5601.9849115124
 31
0.0
  0
LINE
  5
1D6
330
1F
100
AcDbEntity
  8
0
  6
Continuous
 62
     7
370
    25
100
AcDbLine
 10
6162.0042166402
 20
5601.3903169178
 30
0.0
 11
6161.046129647
 21
5601.3903169178
 31
0.0
  0
LINE
  5
1D7
330
1F
100
AcDbEntity
  8
0
  6
Continuous
 62
     7
370
    25
100
AcDbLine
 10
6160.4225021132
 20
5600.7213979989
 30
0.0
 11
6160.4225021132
 21
5597.7484250259
 31
0.0
  0
LINE
  5
1D8
330
1F
100
AcDbEntity
  8
0
  6
Continuous
 62
     7
370
    25
100
AcDbLine
 10
6161.046129647
 20
5597.079506107
 30
0.0
 11
6162.0042166402
 21
5597.079506107
 31
0.0
  0
LINE
  5
1D9
330
1F
100
AcDbEntity
  8
0
  6
Continuous
 62
     7
370
    25
100
AcDbLine
 10
6168.7616913024
 20
5599.348720634
 30
0.0
 11
6170.516442147
 21
5601.9465880326
 31
0.0
  0
LINE
  5
1DA
330
1F
100
AcDbEntity
  8
0
  6
Continuous
 62
     7
370
    25
100
AcDbLine
 10
6168.7616913024
 20
5601.7224537421
 30
0.0
 11
6168.7616913024
 21
5599.348720634
 31
0.0
  0
LINE
  5
1DB
330
1F
100
AcDbEntity
  8
0
  6
Continuous
 62
     7
370
    25
100
AcDbLine
 10
6168.7616913024
 20
5598.6217358367
 30
0.0
 11
6168.7616913024
 21
5596.7531758705
 31
0.0
  0
LINE
  5
1DC
330
1F
100
AcDbEntity
  8
0
  6
Continuous
 62
     7
370
    25
100
AcDbLine
 10
6168.0927723835
 20
5596.7508532353
 30
0.0
 11
6168.0927723835
 21
5601.7189697894
 31
0.0
  0
LINE
  5
1DD
330
1F
100
AcDbEntity
  8
0
  6
Continuous
 62
     7
370
    25
100
AcDbLine
 10
6171.0262605592
 20
5601.6550973232
 30
0.0
 11
6169.66519637
 21
5599.8364740124
 31
0.0
  0
LINE
  5
1DE
330
1F
100
AcDbEntity
  8
0
  6
Continuous
 62
     7
370
    25
100
AcDbLine
 10
6169.66519637
 20
5599.8364740124
 30
0.0
 11
6171.04019637
 21
5596.8635010394
 31
0.0
  0
LINE
  5
1DF
330
1F
100
AcDbEntity
  8
0
  6
Continuous
 62
     7
370
    25
100
AcDbLine
 10
6170.4850865727
 20
5596.7415626948
 30
0.0
 11
6169.262219174
 21
5599.4160770529
 31
0.0
  0
LINE
  5
1E0
330
1F
100
AcDbEntity
  8
0
  6
Continuous
 62
     7
370
    25
100
AcDbLine
 10
6169.262219174
 20
5599.4160770529
 30
0.0
 11
6168.7616913024
 21
5598.6217358367
 31
0.0
  0
LINE
  5
1E1
330
1F
100
AcDbEntity
  8
0
  6
Continuous
 62
     7
370
    25
100
AcDbLine
 10
6140.6872493081
 20
5575.7855350987
 30
0.0
 11
6143.0902163081
 21
5575.2010810987
 31
0.0
  0
LINE
  5
1E2
330
1F
100
AcDbEntity
  8
0
  6
Continuous
 62
     7
370
    25
100
AcDbLine
 10
6138.8058713081
 20
5576.4682870987
 30
0.0
 11
6140.6872493081
 21
5575.7855350987
 31
0.0
  0
LINE
  5
1E3
330
1F
100
AcDbEntity
  8
0
  6
Continuous
 62
     7
370
    25
100
AcDbLine
 10
6138.9034073081
 20
5578.7705430987
 30
0.0
 11
6138.8058713081
 21
5576.4682870987
 31
0.0
  0
LINE
  5
1E4
330
1F
100
AcDbEntity
  8
0
  6
Continuous
 62
     7
370
    25
100
AcDbLine
 10
6140.0060213081
 20
5579.5503230987
 30
0.0
 11
6138.9034073081
 21
5578.7705430987
 31
0.0
  0
LINE
  5
1E5
330
1F
100
AcDbEntity
  8
0
  6
Continuous
 62
     7
370
    25
100
AcDbLine
 10
6139.5842543081
 20
5580.6533180987
 30
0.0
 11
6140.0060213081
 21
5579.5503230987
 31
0.0
  0
LINE
  5
1E6
330
1F
100
AcDbEntity
  8
0
  6
Continuous
 62
     7
370
    25
100
AcDbLine
 10
6137.5409513081
 20
5580.9781840987
 30
0.0
 11
6139.5842543081
 21
5580.6533180987
 31
0.0
  0
LINE
  5
1E7
330
1F
100
AcDbEntity
  8
0
  6
Continuous
 62
     7
370
    25
100
AcDbLine
 10
6137.6044513081
 20
5583.1178800987
 30
0.0
 11
6137.5409513081
 21
5580.9781840987
 31
0.0
  0
LINE
  5
1E8
330
1F
100
AcDbEntity
  8
0
  6
Continuous
 62
     7
370
    25
100
AcDbLine
 10
6136.7618063081
 20
5583.4766550987
 30
0.0
 11
6137.6044513081
 21
5583.1178800987
 31
0.0
  0
LINE
  5
1E9
330
1F
100
AcDbEntity
  8
0
  6
Continuous
 62
     7
370
    25
100
AcDbLine
 10
6134.7185033081
 20
5582.6978910987
 30
0.0
 11
6136.7618063081
 21
5583.4766550987
 31
0.0
  0
LINE
  5
1EA
330
1F
100
AcDbEntity
  8
0
  6
Continuous
 62
     7
370
    25
100
AcDbLine
 10
6134.2967363081
 20
5583.8986760987
 30
0.0
 11
6134.7185033081
 21
5582.6978910987
 31
0.0
  0
LINE
  5
1EB
330
1F
100
AcDbEntity
  8
0
  6
Continuous
 62
     7
370
    25
100
AcDbLine
 10
6134.1331603081
 20
5586.7856400987
 30
0.0
 11
6134.2967363081
 21
5583.8986760987
 31
0.0
  0
LINE
  5
1EC
330
1F
100
AcDbEntity
  8
0
  6
Continuous
 62
     7
370
    25
100
AcDbLine
 10
6131.8946583081
 20
5588.3432950987
 30
0.0
 11
6134.1331603081
 21
5586.7856400987
 31
0.0
  0
LINE
  5
1ED
330
1F
100
AcDbEntity
  8
0
  6
Continuous
 62
     7
370
    25
100
AcDbLine
 10
6131.4090103081
 20
5592.3337620987
 30
0.0
 11
6131.8946583081
 21
5588.3432950987
 31
0.0
  0
LINE
  5
1EE
330
1F
100
AcDbEntity
  8
0
  6
Continuous
 62
     7
370
    25
100
AcDbLine
 10
6130.3698963081
 20
5592.5293420987
 30
0.0
 11
6131.4090103081
 21
5592.3337620987
 31
0.0
  0
LINE
  5
1EF
330
1F
100
AcDbEntity
  8
0
  6
Continuous
 62
     7
370
    25
100
AcDbLine
 10
6130.0134073081
 20
5593.2105700987
 30
0.0
 11
6130.3698963081
 21
5592.5293420987
 31
0.0
  0
LINE
  5
1F0
330
1F
100
AcDbEntity
  8
0
  6
Continuous
 62
     7
370
    25
100
AcDbLine
 10
6131.1482793081
 20
5594.3133110987
 30
0.0
 11
6130.0134073081
 21
5593.2105700987
 31
0.0
  0
LINE
  5
1F1
330
1F
100
AcDbEntity
  8
0
  6
Continuous
 62
     7
370
    25
100
AcDbLine
 10
6132.0898573081
 20
5594.4756170987
 30
0.0
 11
6131.1482793081
 21
5594.3133110987
 31
0.0
  0
LINE
  5
1F2
330
1F
100
AcDbEntity
  8
0
  6
Continuous
 62
     7
370
    25
100
AcDbLine
 10
6132.7710853081
 20
5595.5140960987
 30
0.0
 11
6132.0898573081
 21
5594.4756170987
 31
0.0
  0
LINE
  5
1F3
330
1F
100
AcDbEntity
  8
0
  6
Continuous
 62
     7
370
    25
100
AcDbLine
 10
6132.4135803081
 20
5597.5577800987
 30
0.0
 11
6132.7710853081
 21
5595.5140960987
 31
0.0
  0
LINE
  5
1F4
330
1F
100
AcDbEntity
  8
0
  6
Continuous
 62
     7
370
    25
100
AcDbLine
 10
6131.2160973081
 20
5597.2983190987
 30
0.0
 11
6132.4135803081
 21
5597.5577800987
 31
0.0
  0
LINE
  5
1F5
330
1F
100
AcDbEntity
  8
0
  6
Continuous
 62
     7
370
    25
100
AcDbLine
 10
6130.2097493081
 20
5598.2387540987
 30
0.0
 11
6131.2160973081
 21
5597.2983190987
 31
0.0
  0
LINE
  5
1F6
330
1F
100
AcDbEntity
  8
0
  6
Continuous
 62
     7
370
    25
100
AcDbLine
 10
6131.0520133081
 20
5599.2456100987
 30
0.0
 11
6130.2097493081
 21
5598.2387540987
 31
0.0
  0
LINE
  5
1F7
330
1F
100
AcDbEntity
  8
0
  6
Continuous
 62
     7
370
    25
100
AcDbLine
 10
6130.8897073081
 20
5600.4449980987
 30
0.0
 11
6131.0520133081
 21
5599.2456100987
 31
0.0
  0
LINE
  5
1F8
330
1F
100
AcDbEntity
  8
0
  6
Continuous
 62
     7
370
    25
100
AcDbLine
 10
6131.9918133081
 20
5600.6074310987
 30
0.0
 11
6130.8897073081
 21
5600.4449980987
 31
0.0
  0
LINE
  5
1F9
330
1F
100
AcDbEntity
  8
0
  6
Continuous
 62
     7
370
    25
100
AcDbLine
 10
6132.1537383081
 20
5601.5491360987
 30
0.0
 11
6131.9918133081
 21
5600.6074310987
 31
0.0
  0
LINE
  5
1FA
330
1F
100
AcDbEntity
  8
0
  6
Continuous
 62
     7
370
    25
100
AcDbLine
 10
6130.3698963081
 20
5601.7434460987
 30
0.0
 11
6132.1537383081
 21
5601.5491360987
 31
0.0
  0
LINE
  5
1FB
330
1F
100
AcDbEntity
  8
0
  6
Continuous
 62
     7
370
    25
100
AcDbLine
 10
6130.1109433081
 20
5603.1067910987
 30
0.0
 11
6130.3698963081
 21
5601.7434460987
 31
0.0
  0
LINE
  5
1FC
330
1F
100
AcDbEntity
  8
0
  6
Continuous
 62
     7
370
    25
100
AcDbLine
 10
6128.9093963081
 20
5603.1710530987
 30
0.0
 11
6130.1109433081
 21
5603.1067910987
 31
0.0
  0
LINE
  5
1FD
330
1F
100
AcDbEntity
  8
0
  6
Continuous
 62
     7
370
    25
100
AcDbLine
 10
6128.3258313081
 20
5605.4748330987
 30
0.0
 11
6128.9093963081
 21
5603.1710530987
 31
0.0
  0
LINE
  5
1FE
330
1F
100
AcDbEntity
  8
0
  6
Continuous
 62
     7
370
    25
100
AcDbLine
 10
6128.0667513081
 20
5607.4546360987
 30
0.0
 11
6128.3258313081
 21
5605.4748330987
 31
0.0
  0
LINE
  5
1FF
330
1F
100
AcDbEntity
  8
0
  6
Continuous
 62
     7
370
    25
100
AcDbLine
 10
6126.2803693081
 20
5606.4161570987
 30
0.0
 11
6128.0667513081
 21
5607.4546360987
 31
0.0
  0
LINE
  5
200
330
1F
100
AcDbEntity
  8
0
  6
Continuous
 62
     7
370
    25
100
AcDbLine
 10
6124.9179133081
 20
5606.0917990987
 30
0.0
 11
6126.2803693081
 21
5606.4161570987
 31
0.0
  0
LINE
  5
201
330
1F
100
AcDbEntity
  8
0
  6
Continuous
 62
     7
370
    25
100
AcDbLine
 10
6123.1993493081
 20
5605.3127810987
 30
0.0
 11
6124.9179133081
 21
5606.0917990987
 31
0.0
  0
LINE
  5
202
330
1F
100
AcDbEntity
  8
0
  6
Continuous
 62
     7
370
    25
100
AcDbLine
 10
6121.8372743081
 20
5604.7936050987
 30
0.0
 11
6123.1993493081
 21
5605.3127810987
 31
0.0
  0
LINE
  5
203
330
1F
100
AcDbEntity
  8
0
  6
Continuous
 62
     7
370
    25
100
AcDbLine
 10
6121.4137293081
 20
5605.8323380987
 30
0.0
 11
6121.8372743081
 21
5604.7936050987
 31
0.0
  0
LINE
  5
204
330
1F
100
AcDbEntity
  8
0
  6
Continuous
 62
     7
370
    25
100
AcDbLine
 10
6122.6804273081
 20
5606.8379240987
 30
0.0
 11
6121.4137293081
 21
5605.8323380987
 31
0.0
  0
LINE
  5
205
330
1F
100
AcDbEntity
  8
0
  6
Continuous
 62
     7
370
    25
100
AcDbLine
 10
6121.4137293081
 20
5607.0967500987
 30
0.0
 11
6122.6804273081
 21
5606.8379240987
 31
0.0
  0
LINE
  5
206
330
1F
100
AcDbEntity
  8
0
  6
Continuous
 62
     7
370
    25
100
AcDbLine
 10
6121.4137293081
 20
5607.9729230987
 30
0.0
 11
6121.4137293081
 21
5607.0967500987
 31
0.0
  0
LINE
  5
207
330
1F
100
AcDbEntity
  8
0
  6
Continuous
 62
     7
370
    25
100
AcDbLine
 10
6121.9986913081
 20
5607.9729230987
 30
0.0
 11
6121.4137293081
 21
5607.9729230987
 31
0.0
  0
LINE
  5
208
330
1F
100
AcDbEntity
  8
0
  6
Continuous
 62
     7
370
    25
100
AcDbLine
 10
6122.2594223081
 20
5609.3357600987
 30
0.0
 11
6121.9986913081
 21
5607.9729230987
 31
0.0
  0
LINE
  5
209
330
1F
100
AcDbEntity
  8
0
  6
Continuous
 62
     7
370
    25
100
AcDbLine
 10
6123.8813393081
 20
5609.8222970987
 30
0.0
 11
6122.2594223081
 21
5609.3357600987
 31
0.0
  0
LINE
  5
20A
330
1F
100
AcDbEntity
  8
0
  6
Continuous
 62
     7
370
    25
100
AcDbLine
 10
6122.1609973081
 20
5612.2247560987
 30
0.0
 11
6123.8813393081
 21
5609.8222970987
 31
0.0
  0
LINE
  5
20B
330
1F
100
AcDbEntity
  8
0
  6
Continuous
 62
     7
370
    25
100
AcDbLine
 10
6123.1993493081
 20
5615.8908650987
 30
0.0
 11
6122.1609973081
 21
5612.2247560987
 31
0.0
  0
LINE
  5
20C
330
1F
100
AcDbEntity
  8
0
  6
Continuous
 62
     7
370
    25
100
AcDbLine
 10
6121.8372743081
 20
5615.9880200987
 30
0.0
 11
6123.1993493081
 21
5615.8908650987
 31
0.0
  0
LINE
  5
20D
330
1F
100
AcDbEntity
  8
0
  6
Continuous
 62
     7
370
    25
100
AcDbLine
 10
6120.7972713081
 20
5614.5270120987
 30
0.0
 11
6121.8372743081
 21
5615.9880200987
 31
0.0
  0
LINE
  5
20E
330
1F
100
AcDbEntity
  8
0
  6
Continuous
 62
     7
370
    25
100
AcDbLine
 10
6117.3902423081
 20
5616.1504530987
 30
0.0
 11
6120.7972713081
 21
5614.5270120987
 31
0.0
  0
LINE
  5
20F
330
1F
100
AcDbEntity
  8
0
  6
Continuous
 62
     7
370
    25
100
AcDbLine
 10
6117.9100533081
 20
5617.5130360987
 30
0.0
 11
6117.3902423081
 21
5616.1504530987
 31
0.0
  0
LINE
  5
210
330
1F
100
AcDbEntity
  8
0
  6
Continuous
 62
     7
370
    25
100
AcDbLine
 10
6117.3272503081
 20
5618.6164120987
 30
0.0
 11
6117.9100533081
 21
5617.5130360987
 31
0.0
  0
LINE
  5
211
330
1F
100
AcDbEntity
  8
0
  6
Continuous
 62
     7
370
    25
100
AcDbLine
 10
6116.0295643081
 20
5619.1353340987
 30
0.0
 11
6117.3272503081
 21
5618.6164120987
 31
0.0
  0
LINE
  5
212
330
1F
100
AcDbEntity
  8
0
  6
Continuous
 62
     7
370
    25
100
AcDbLine
 10
6115.8015993081
 20
5618.6487970987
 30
0.0
 11
6116.0295643081
 21
5619.1353340987
 31
0.0
  0
LINE
  5
213
330
1F
100
AcDbEntity
  8
0
  6
Continuous
 62
     7
370
    25
100
AcDbLine
 10
6115.7687063081
 20
5618.9727740987
 30
0.0
 11
6115.8015993081
 21
5618.6487970987
 31
0.0
  0
LINE
  5
214
330
1F
100
AcDbEntity
  8
0
  6
Continuous
 62
     7
370
    25
100
AcDbLine
 10
6115.8671313081
 20
5619.7187720987
 30
0.0
 11
6115.7687063081
 21
5618.9727740987
 31
0.0
  0
LINE
  5
215
330
1F
100
AcDbEntity
  8
0
  6
Continuous
 62
     7
370
    25
100
AcDbLine
 10
6116.8074393081
 20
5620.6598420987
 30
0.0
 11
6115.8671313081
 21
5619.7187720987
 31
0.0
  0
LINE
  5
216
330
1F
100
AcDbEntity
  8
0
  6
Continuous
 62
     7
370
    25
100
AcDbLine
 10
6116.5479783081
 20
5621.6983210987
 30
0.0
 11
6116.8074393081
 21
5620.6598420987
 31
0.0
  0
LINE
  5
217
330
1F
100
AcDbEntity
  8
0
  6
Continuous
 62
     7
370
    25
100
AcDbLine
 10
6118.0075893081
 20
5621.8613890987
 30
0.0
 11
6116.5479783081
 21
5621.6983210987
 31
0.0
  0
LINE
  5
218
330
1F
100
AcDbEntity
  8
0
  6
Continuous
 62
     7
370
    25
100
AcDbLine
 10
6118.0723593081
 20
5622.8006810987
 30
0.0
 11
6118.0075893081
 21
5621.8613890987
 31
0.0
  0
LINE
  5
219
330
1F
100
AcDbEntity
  8
0
  6
Continuous
 62
     7
370
    25
100
AcDbLine
 10
6116.4504423081
 20
5622.9637490987
 30
0.0
 11
6118.0723593081
 21
5622.8006810987
 31
0.0
  0
LINE
  5
21A
330
1F
100
AcDbEntity
  8
0
  6
Continuous
 62
     7
370
    25
100
AcDbLine
 10
6115.6064003081
 20
5623.5808420987
 30
0.0
 11
6116.4504423081
 21
5622.9637490987
 31
0.0
  0
LINE
  5
21B
330
1F
100
AcDbEntity
  8
0
  6
Continuous
 62
     7
370
    25
100
AcDbLine
 10
6115.7048253081
 20
5626.2085990987
 30
0.0
 11
6115.6064003081
 21
5623.5808420987
 31
0.0
  0
LINE
  5
21C
330
1F
100
AcDbEntity
  8
0
  6
Continuous
 62
     7
370
    25
100
AcDbLine
 10
6114.6653303081
 20
5627.0847720987
 30
0.0
 11
6115.7048253081
 21
5626.2085990987
 31
0.0
  0
LINE
  5
21D
330
1F
100
AcDbEntity
  8
0
  6
Continuous
 62
     7
370
    25
100
AcDbLine
 10
6114.6653303081
 20
5628.4469740987
 30
0.0
 11
6114.6653303081
 21
5627.0847720987
 31
0.0
  0
LINE
  5
21E
330
1F
100
AcDbEntity
  8
0
  6
Continuous
 62
     7
370
    25
100
AcDbLine
 10
6113.8869473081
 20
5628.6095340987
 30
0.0
 11
6114.6653303081
 21
5628.4469740987
 31
0.0
  0
LINE
  5
21F
330
1F
100
AcDbEntity
  8
0
  6
Continuous
 62
     7
370
    25
100
AcDbLine
 10
6113.9841023081
 20
5632.6326400987
 30
0.0
 11
6113.8869473081
 21
5628.6095340987
 31
0.0
  0
LINE
  5
220
330
1F
100
AcDbEntity
  8
0
  6
Continuous
 62
     7
370
    25
100
AcDbLine
 10
6116.1909813081
 20
5633.8980680987
 30
0.0
 11
6113.9841023081
 21
5632.6326400987
 31
0.0
  0
LINE
  5
221
330
1F
100
AcDbEntity
  8
0
  6
Continuous
 62
     7
370
    25
100
AcDbLine
 10
6114.8294143081
 20
5634.0605010987
 30
0.0
 11
6116.1909813081
 21
5633.8980680987
 31
0.0
  0
LINE
  5
222
330
1F
100
AcDbEntity
  8
0
  6
Continuous
 62
     7
370
    25
100
AcDbLine
 10
6115.0892563081
 20
5635.0983450987
 30
0.0
 11
6114.8294143081
 21
5634.0605010987
 31
0.0
  0
LINE
  5
223
330
1F
100
AcDbEntity
  8
0
  6
Continuous
 62
     7
370
    25
100
AcDbLine
 10
6116.8074393081
 20
5635.0013170987
 30
0.0
 11
6115.0892563081
 21
5635.0983450987
 31
0.0
  0
LINE
  5
224
330
1F
100
AcDbEntity
  8
0
  6
Continuous
 62
     7
370
    25
100
AcDbLine
 10
6117.6509733081
 20
5638.6029100987
 30
0.0
 11
6116.8074393081
 21
5635.0013170987
 31
0.0
  0
LINE
  5
225
330
1F
100
AcDbEntity
  8
0
  6
Continuous
 62
     7
370
    25
100
AcDbLine
 10
6118.7544763081
 20
5639.0258200987
 30
0.0
 11
6117.6509733081
 21
5638.6029100987
 31
0.0
  0
LINE
  5
226
330
1F
100
AcDbEntity
  8
0
  6
Continuous
 62
     7
370
    25
100
AcDbLine
 10
6118.8529013081
 20
5639.9660010987
 30
0.0
 11
6118.7544763081
 21
5639.0258200987
 31
0.0
  0
LINE
  5
227
330
1F
100
AcDbEntity
  8
0
  6
Continuous
 62
     7
370
    25
100
AcDbLine
 10
6118.2337763081
 20
5640.9712060987
 30
0.0
 11
6118.8529013081
 21
5639.9660010987
 31
0.0
  0
LINE
  5
228
330
1F
100
AcDbEntity
  8
0
  6
Continuous
 62
     7
370
    25
100
AcDbLine
 10
6117.8128983081
 20
5642.7887030987
 30
0.0
 11
6118.2337763081
 21
5640.9712060987
 31
0.0
  0
LINE
  5
229
330
1F
100
AcDbEntity
  8
0
  6
Continuous
 62
     7
370
    25
100
AcDbLine
 10
6116.5479783081
 20
5642.9506280987
 30
0.0
 11
6117.8128983081
 21
5642.7887030987
 31
0.0
  0
LINE
  5
22A
330
1F
100
AcDbEntity
  8
0
  6
Continuous
 62
     7
370
    25
100
AcDbLine
 10
6116.0295643081
 20
5644.3134650987
 30
0.0
 11
6116.5479783081
 21
5642.9506280987
 31
0.0
  0
LINE
  5
22B
330
1F
100
AcDbEntity
  8
0
  6
Continuous
 62
     7
370
    25
100
AcDbLine
 10
6117.8128983081
 20
5644.4760250987
 30
0.0
 11
6116.0295643081
 21
5644.3134650987
 31
0.0
  0
LINE
  5
22C
330
1F
100
AcDbEntity
  8
0
  6
Continuous
 62
     7
370
    25
100
AcDbLine
 10
6119.6303953081
 20
5646.2611370987
 30
0.0
 11
6117.8128983081
 21
5644.4760250987
 31
0.0
  0
LINE
  5
22D
330
1F
100
AcDbEntity
  8
0
  6
Continuous
 62
     7
370
    25
100
AcDbLine
 10
6117.6509733081
 20
5647.2980920987
 30
0.0
 11
6119.6303953081
 21
5646.2611370987
 31
0.0
  0
LINE
  5
22E
330
1F
100
AcDbEntity
  8
0
  6
Continuous
 62
     7
370
    25
100
AcDbLine
 10
6118.0075893081
 20
5648.4992580987
 30
0.0
 11
6117.6509733081
 21
5647.2980920987
 31
0.0
  0
LINE
  5
22F
330
1F
100
AcDbEntity
  8
0
  6
Continuous
 62
     7
370
    25
100
AcDbLine
 10
6120.0517813081
 20
5648.7592270987
 30
0.0
 11
6118.0075893081
 21
5648.4992580987
 31
0.0
  0
LINE
  5
230
330
1F
100
AcDbEntity
  8
0
  6
Continuous
 62
     7
370
    25
100
AcDbLine
 10
6119.1762433081
 20
5649.7002970987
 30
0.0
 11
6120.0517813081
 21
5648.7592270987
 31
0.0
  0
LINE
  5
231
330
1F
100
AcDbEntity
  8
0
  6
Continuous
 62
     7
370
    25
100
AcDbLine
 10
6117.9100533081
 20
5651.6473340987
 30
0.0
 11
6119.1762433081
 21
5649.7002970987
 31
0.0
  0
LINE
  5
232
330
1F
100
AcDbEntity
  8
0
  6
Continuous
 62
     7
370
    25
100
AcDbLine
 10
6119.8569633081
 20
5653.3664060987
 30
0.0
 11
6117.9100533081
 21
5651.6473340987
 31
0.0
  0
LINE
  5
233
330
1F
100
AcDbEntity
  8
0
  6
Continuous
 62
     7
370
    25
100
AcDbLine
 10
6121.8372743081
 20
5654.0473800987
 30
0.0
 11
6119.8569633081
 21
5653.3664060987
 31
0.0
  0
LINE
  5
234
330
1F
100
AcDbEntity
  8
0
  6
Continuous
 62
     7
370
    25
100
AcDbLine
 10
6121.4137293081
 20
5659.7584430987
 30
0.0
 11
6121.8372743081
 21
5654.0473800987
 31
0.0
  0
LINE
  5
235
330
1F
100
AcDbEntity
  8
0
  6
Continuous
 62
     7
370
    25
100
AcDbLine
 10
6125.7623363081
 20
5660.3425160987
 30
0.0
 11
6121.4137293081
 21
5659.7584430987
 31
0.0
  0
LINE
  5
236
330
1F
100
AcDbEntity
  8
0
  6
Continuous
 62
     7
370
    25
100
AcDbLine
 10
6127.4826783081
 20
5656.0922070987
 30
0.0
 11
6125.7623363081
 21
5660.3425160987
 31
0.0
  0
LINE
  5
237
330
1F
100
AcDbEntity
  8
0
  6
Continuous
 62
     7
370
    25
100
AcDbLine
 10
6130.0134073081
 20
5656.8383320987
 30
0.0
 11
6127.4826783081
 21
5656.0922070987
 31
0.0
  0
LINE
  5
238
330
1F
100
AcDbEntity
  8
0
  6
Continuous
 62
     7
370
    25
100
AcDbLine
 10
6131.6365943081
 20
5655.2481650987
 30
0.0
 11
6130.0134073081
 21
5656.8383320987
 31
0.0
  0
LINE
  5
239
330
1F
100
AcDbEntity
  8
0
  6
Continuous
 62
     7
370
    25
100
AcDbLine
 10
6134.5561973081
 20
5656.3523030987
 30
0.0
 11
6131.6365943081
 21
5655.2481650987
 31
0.0
  0
LINE
  5
23A
330
1F
100
AcDbEntity
  8
0
  6
Continuous
 62
     7
370
    25
100
AcDbLine
 10
6136.4392263081
 20
5656.4172000987
 30
0.0
 11
6134.5561973081
 21
5656.3523030987
 31
0.0
  0
LINE
  5
23B
330
1F
100
AcDbEntity
  8
0
  6
Continuous
 62
     7
370
    25
100
AcDbLine
 10
6136.7618063081
 20
5657.9742200987
 30
0.0
 11
6136.4392263081
 21
5656.4172000987
 31
0.0
  0
LINE
  5
23C
330
1F
100
AcDbEntity
  8
0
  6
Continuous
 62
     7
370
    25
100
AcDbLine
 10
6138.4803703081
 20
5657.6176040987
 30
0.0
 11
6136.7618063081
 21
5657.9742200987
 31
0.0
  0
LINE
  5
23D
330
1F
100
AcDbEntity
  8
0
  6
Continuous
 62
     7
370
    25
100
AcDbLine
 10
6138.9034073081
 20
5654.4691470987
 30
0.0
 11
6138.4803703081
 21
5657.6176040987
 31
0.0
  0
LINE
  5
23E
330
1F
100
AcDbEntity
  8
0
  6
Continuous
 62
     7
370
    25
100
AcDbLine
 10
6144.4534343081
 20
5652.5886580987
 30
0.0
 11
6138.9034073081
 21
5654.4691470987
 31
0.0
  0
LINE
  5
23F
330
1F
100
AcDbEntity
  8
0
  6
Continuous
 62
     7
370
    25
100
AcDbLine
 10
6145.2314363081
 20
5649.7646860987
 30
0.0
 11
6144.4534343081
 21
5652.5886580987
 31
0.0
  0
LINE
  5
240
330
1F
100
AcDbEntity
  8
0
  6
Continuous
 62
     7
370
    25
100
AcDbLine
 10
6146.3339233081
 20
5649.0184340987
 30
0.0
 11
6145.2314363081
 21
5649.7646860987
 31
0.0
  0
LINE
  5
241
330
1F
100
AcDbEntity
  8
0
  6
Continuous
 62
     7
370
    25
100
AcDbLine
 10
6148.6366873081
 20
5650.8035460987
 30
0.0
 11
6146.3339233081
 21
5649.0184340987
 31
0.0
  0
LINE
  5
242
330
1F
100
AcDbEntity
  8
0
  6
Continuous
 62
     7
370
    25
100
AcDbLine
 10
6151.2001823081
 20
5651.0627530987
 30
0.0
 11
6148.6366873081
 21
5650.8035460987
 31
0.0
  0
LINE
  5
243
330
1F
100
AcDbEntity
  8
0
  6
Continuous
 62
     7
370
    25
100
AcDbLine
 10
6151.9487203081
 20
5653.7889350987
 30
0.0
 11
6151.2001823081
 21
5651.0627530987
 31
0.0
  0
LINE
  5
244
330
1F
100
AcDbEntity
  8
0
  6
Continuous
 62
     7
370
    25
100
AcDbLine
 10
6153.5693673081
 20
5653.9508600987
 30
0.0
 11
6151.9487203081
 21
5653.7889350987
 31
0.0
  0
LINE
  5
245
330
1F
100
AcDbEntity
  8
0
  6
Continuous
 62
     7
370
    25
100
AcDbLine
 10
6154.7690093081
 20
5650.1868340987
 30
0.0
 11
6153.5693673081
 21
5653.9508600987
 31
0.0
  0
LINE
  5
246
330
1F
100
AcDbEntity
  8
0
  6
Continuous
 62
     7
370
    25
100
AcDbLine
 10
6158.5340513081
 20
5648.1427690987
 30
0.0
 11
6154.7690093081
 21
5650.1868340987
 31
0.0
  0
LINE
  5
247
330
1F
100
AcDbEntity
  8
0
  6
Continuous
 62
     7
370
    25
100
AcDbLine
 10
6161.0961493081
 20
5649.5052250987
 30
0.0
 11
6158.5340513081
 21
5648.1427690987
 31
0.0
  0
LINE
  5
248
330
1F
100
AcDbEntity
  8
0
  6
Continuous
 62
     7
370
    25
100
AcDbLine
 10
6166.8075933081
 20
5648.7592270987
 30
0.0
 11
6161.0961493081
 21
5649.5052250987
 31
0.0
  0
LINE
  5
249
330
1F
100
AcDbEntity
  8
0
  6
Continuous
 62
     7
370
    25
100
AcDbLine
 10
6166.7091683081
 20
5646.6181340987
 30
0.0
 11
6166.8075933081
 21
5648.7592270987
 31
0.0
  0
LINE
  5
24A
330
1F
100
AcDbEntity
  8
0
  6
Continuous
 62
     7
370
    25
100
AcDbLine
 10
6167.4879323081
 20
5644.3134650987
 30
0.0
 11
6166.7091683081
 21
5646.6181340987
 31
0.0
  0
LINE
  5
24B
330
1F
100
AcDbEntity
  8
0
  6
Continuous
 62
     7
370
    25
100
AcDbLine
 10
6171.6751223081
 20
5642.9506280987
 30
0.0
 11
6167.4879323081
 21
5644.3134650987
 31
0.0
  0
LINE
  5
24C
330
1F
100
AcDbEntity
  8
0
  6
Continuous
 62
     7
370
    25
100
AcDbLine
 10
6173.6220323081
 20
5641.4912710987
 30
0.0
 11
6171.6751223081
 21
5642.9506280987
 31
0.0
  0
LINE
  5
24D
330
1F
100
AcDbEntity
  8
0
  6
Continuous
 62
     7
370
    25
100
AcDbLine
 10
6177.3861853081
 20
5641.9125300987
 30
0.0
 11
6173.6220323081
 21
5641.4912710987
 31
0.0
  0
LINE
  5
24E
330
1F
100
AcDbEntity
  8
0
  6
Continuous
 62
     7
370
    25
100
AcDbLine
 10
6179.1051303081
 20
5644.6389660987
 30
0.0
 11
6177.3861853081
 21
5641.9125300987
 31
0.0
  0
LINE
  5
24F
330
1F
100
AcDbEntity
  8
0
  6
Continuous
 62
     7
370
    25
100
AcDbLine
 10
6184.8167013081
 20
5644.7358670987
 30
0.0
 11
6179.1051303081
 21
5644.6389660987
 31
0.0
  0
LINE
  5
250
330
1F
100
AcDbEntity
  8
0
  6
Continuous
 62
     7
370
    25
100
AcDbLine
 10
6185.0756543081
 20
5643.2107240987
 30
0.0
 11
6184.8167013081
 21
5644.7358670987
 31
0.0
  0
LINE
  5
251
330
1F
100
AcDbEntity
  8
0
  6
Continuous
 62
     7
370
    25
100
AcDbLine
 10
6181.0495003081
 20
5641.2319370987
 30
0.0
 11
6185.0756543081
 21
5643.2107240987
 31
0.0
  0
LINE
  5
252
330
1F
100
AcDbEntity
  8
0
  6
Continuous
 62
     7
370
    25
100
AcDbLine
 10
6180.9546313081
 20
5637.0457630987
 30
0.0
 11
6181.0495003081
 21
5641.2319370987
 31
0.0
  0
LINE
  5
253
330
1F
100
AcDbEntity
  8
0
  6
Continuous
 62
     7
370
    25
100
AcDbLine
 10
6186.0811133081
 20
5632.9576330987
 30
0.0
 11
6180.9546313081
 21
5637.0457630987
 31
0.0
  0
LINE
  5
254
330
1F
100
AcDbEntity
  8
0
  6
Continuous
 62
     7
370
    25
100
AcDbLine
 10
6186.0150733081
 20
5631.0107230987
 30
0.0
 11
6186.0811133081
 21
5632.9576330987
 31
0.0
  0
LINE
  5
255
330
1F
100
AcDbEntity
  8
0
  6
Continuous
 62
     7
370
    25
100
AcDbLine
 10
6188.3856553081
 20
5630.2314510987
 30
0.0
 11
6186.0150733081
 21
5631.0107230987
 31
0.0
  0
LINE
  5
256
330
1F
100
AcDbEntity
  8
0
  6
Continuous
 62
     7
370
    25
100
AcDbLine
 10
6188.3856553081
 20
5629.1287100987
 30
0.0
 11
6188.3856553081
 21
5630.2314510987
 31
0.0
  0
LINE
  5
257
330
1F
100
AcDbEntity
  8
0
  6
Continuous
 62
     7
370
    25
100
AcDbLine
 10
6186.1786493081
 20
5628.3499460987
 30
0.0
 11
6188.3856553081
 21
5629.1287100987
 31
0.0
  0
LINE
  5
258
330
1F
100
AcDbEntity
  8
0
  6
Continuous
 62
     7
370
    25
100
AcDbLine
 10
6184.8167013081
 20
5626.4035440987
 30
0.0
 11
6186.1786493081
 21
5628.3499460987
 31
0.0
  0
LINE
  5
259
330
1F
100
AcDbEntity
  8
0
  6
Continuous
 62
     7
370
    25
100
AcDbLine
 10
6181.0495003081
 20
5621.5366500987
 30
0.0
 11
6184.8167013081
 21
5626.4035440987
 31
0.0
  0
LINE
  5
25A
330
1F
100
AcDbEntity
  8
0
  6
Continuous
 62
     7
370
    25
100
AcDbLine
 10
6180.6286223081
 20
5619.6546370987
 30
0.0
 11
6181.0495003081
 21
5621.5366500987
 31
0.0
  0
LINE
  5
25B
330
1F
100
AcDbEntity
  8
0
  6
Continuous
 62
     7
370
    25
100
AcDbLine
 10
6177.0623353081
 20
5618.5510070987
 30
0.0
 11
6180.6286223081
 21
5619.6546370987
 31
0.0
  0
LINE
  5
25C
330
1F
100
AcDbEntity
  8
0
  6
Continuous
 62
     7
370
    25
100
AcDbLine
 10
6176.0232213081
 20
5617.4161350987
 30
0.0
 11
6177.0623353081
 21
5618.5510070987
 31
0.0
  0
LINE
  5
25D
330
1F
100
AcDbEntity
  8
0
  6
Continuous
 62
     7
370
    25
100
AcDbLine
 10
6173.9782673081
 20
5616.6687400987
 30
0.0
 11
6176.0232213081
 21
5617.4161350987
 31
0.0
  0
LINE
  5
25E
330
1F
100
AcDbEntity
  8
0
  6
Continuous
 62
     7
370
    25
100
AcDbLine
 10
6173.8807313081
 20
5615.0461880987
 30
0.0
 11
6173.9782673081
 21
5616.6687400987
 31
0.0
  0
LINE
  5
25F
330
1F
100
AcDbEntity
  8
0
  6
Continuous
 62
     7
370
    25
100
AcDbLine
 10
6176.8003343081
 20
5612.6457610987
 30
0.0
 11
6173.8807313081
 21
5615.0461880987
 31
0.0
  0
LINE
  5
260
330
1F
100
AcDbEntity
  8
0
  6
Continuous
 62
     7
370
    25
100
AcDbLine
 10
6178.2284493081
 20
5610.5037790987
 30
0.0
 11
6176.8003343081
 21
5612.6457610987
 31
0.0
  0
LINE
  5
261
330
1F
100
AcDbEntity
  8
0
  6
Continuous
 62
     7
370
    25
100
AcDbLine
 10
6180.4672053081
 20
5610.7636210987
 30
0.0
 11
6178.2284493081
 21
5610.5037790987
 31
0.0
  0
LINE
  5
262
330
1F
100
AcDbEntity
  8
0
  6
Continuous
 62
     7
370
    25
100
AcDbLine
 10
6183.6152813081
 20
5609.8222970987
 30
0.0
 11
6180.4672053081
 21
5610.7636210987
 31
0.0
  0
LINE
  5
263
330
1F
100
AcDbEntity
  8
0
  6
Continuous
 62
     7
370
    25
100
AcDbLine
 10
6184.8805823081
 20
5611.5420040987
 30
0.0
 11
6183.6152813081
 21
5609.8222970987
 31
0.0
  0
LINE
  5
264
330
1F
100
AcDbEntity
  8
0
  6
Continuous
 62
     7
370
    25
100
AcDbLine
 10
6185.9179183081
 20
5611.4453570987
 30
0.0
 11
6184.8805823081
 21
5611.5420040987
 31
0.0
  0
LINE
  5
265
330
1F
100
AcDbEntity
  8
0
  6
Continuous
 62
     7
370
    25
100
AcDbLine
 10
6185.9179183081
 20
5609.2391130987
 30
0.0
 11
6185.9179183081
 21
5611.4453570987
 31
0.0
  0
LINE
  5
266
330
1F
100
AcDbEntity
  8
0
  6
Continuous
 62
     7
370
    25
100
AcDbLine
 10
6184.4588153081
 20
5605.8971080987
 30
0.0
 11
6185.9179183081
 21
5609.2391130987
 31
0.0
  0
LINE
  5
267
330
1F
100
AcDbEntity
  8
0
  6
Continuous
 62
     7
370
    25
100
AcDbLine
 10
6183.3562013081
 20
5606.2541050987
 30
0.0
 11
6184.4588153081
 21
5605.8971080987
 31
0.0
  0
LINE
  5
268
330
1F
100
AcDbEntity
  8
0
  6
Continuous
 62
     7
370
    25
100
AcDbLine
 10
6178.9104393081
 20
5606.7727730987
 30
0.0
 11
6183.3562013081
 21
5606.2541050987
 31
0.0
  0
LINE
  5
269
330
1F
100
AcDbEntity
  8
0
  6
Continuous
 62
     7
370
    25
100
AcDbLine
 10
6176.7044493081
 20
5604.2743020987
 30
0.0
 11
6178.9104393081
 21
5606.7727730987
 31
0.0
  0
LINE
  5
26A
330
1F
100
AcDbEntity
  8
0
  6
Continuous
 62
     7
370
    25
100
AcDbLine
 10
6176.2826823081
 20
5601.6462910987
 30
0.0
 11
6176.7044493081
 21
5604.2743020987
 31
0.0
  0
LINE
  5
26B
330
1F
100
AcDbEntity
  8
0
  6
Continuous
 62
     7
370
    25
100
AcDbLine
 10
6176.2826823081
 20
5598.4010600987
 30
0.0
 11
6176.2826823081
 21
5601.6462910987
 31
0.0
  0
LINE
  5
26C
330
1F
100
AcDbEntity
  8
0
  6
Continuous
 62
     7
370
    25
100
AcDbLine
 10
6175.7642683081
 20
5595.5795010987
 30
0.0
 11
6176.2826823081
 21
5598.4010600987
 31
0.0
  0
LINE
  5
26D
330
1F
100
AcDbEntity
  8
0
  6
Continuous
 62
     7
370
    25
100
AcDbLine
 10
6180.3705583081
 20
5595.5140960987
 30
0.0
 11
6175.7642683081
 21
5595.5795010987
 31
0.0
  0
LINE
  5
26E
330
1F
100
AcDbEntity
  8
0
  6
Continuous
 62
     7
370
    25
100
AcDbLine
 10
6181.9924753081
 20
5593.0153710987
 30
0.0
 11
6180.3705583081
 21
5595.5140960987
 31
0.0
  0
LINE
  5
26F
330
1F
100
AcDbEntity
  8
0
  6
Continuous
 62
     7
370
    25
100
AcDbLine
 10
6181.9924753081
 20
5589.8680570987
 30
0.0
 11
6181.9924753081
 21
5593.0153710987
 31
0.0
  0
LINE
  5
270
330
1F
100
AcDbEntity
  8
0
  6
Continuous
 62
     7
370
    25
100
AcDbLine
 10
6185.4970403081
 20
5586.4610280987
 30
0.0
 11
6181.9924753081
 21
5589.8680570987
 31
0.0
  0
LINE
  5
271
330
1F
100
AcDbEntity
  8
0
  6
Continuous
 62
     7
370
    25
100
AcDbLine
 10
6187.1198463081
 20
5585.5199580987
 30
0.0
 11
6185.4970403081
 21
5586.4610280987
 31
0.0
  0
LINE
  5
272
330
1F
100
AcDbEntity
  8
0
  6
Continuous
 62
     7
370
    25
100
AcDbLine
 10
6183.6152813081
 20
5583.1178800987
 30
0.0
 11
6187.1198463081
 21
5585.5199580987
 31
0.0
  0
LINE
  5
273
330
1F
100
AcDbEntity
  8
0
  6
Continuous
 62
     7
370
    25
100
AcDbLine
 10
6183.8755043081
 20
5582.2754890987
 30
0.0
 11
6183.6152813081
 21
5583.1178800987
 31
0.0
  0
LINE
  5
274
330
1F
100
AcDbEntity
  8
0
  6
Continuous
 62
     7
370
    25
100
AcDbLine
 10
6188.3856553081
 20
5582.9568440987
 30
0.0
 11
6183.8755043081
 21
5582.2754890987
 31
0.0
  0
LINE
  5
275
330
1F
100
AcDbEntity
  8
0
  6
Continuous
 62
     7
370
    25
100
AcDbLine
 10
6188.5798383081
 20
5580.4911390987
 30
0.0
 11
6188.3856553081
 21
5582.9568440987
 31
0.0
  0
LINE
  5
276
330
1F
100
AcDbEntity
  8
0
  6
Continuous
 62
     7
370
    25
100
AcDbLine
 10
6186.5987653081
 20
5578.7705430987
 30
0.0
 11
6188.5798383081
 21
5580.4911390987
 31
0.0
  0
LINE
  5
277
330
1F
100
AcDbEntity
  8
0
  6
Continuous
 62
     7
370
    25
100
AcDbLine
 10
6186.1786493081
 20
5575.6888880987
 30
0.0
 11
6186.5987653081
 21
5578.7705430987
 31
0.0
  0
LINE
  5
278
330
1F
100
AcDbEntity
  8
0
  6
Continuous
 62
     7
370
    25
100
AcDbLine
 10
6185.7568823081
 20
5572.9628330987
 30
0.0
 11
6186.1786493081
 21
5575.6888880987
 31
0.0
  0
LINE
  5
279
330
1F
100
AcDbEntity
  8
0
  6
Continuous
 62
     7
370
    25
100
AcDbLine
 10
6184.9781183081
 20
5571.0823440987
 30
0.0
 11
6185.7568823081
 21
5572.9628330987
 31
0.0
  0
LINE
  5
27A
330
1F
100
AcDbEntity
  8
0
  6
Continuous
 62
     7
370
    25
100
AcDbLine
 10
6183.7128173081
 20
5568.9735090987
 30
0.0
 11
6184.9781183081
 21
5571.0823440987
 31
0.0
  0
LINE
  5
27B
330
1F
100
AcDbEntity
  8
0
  6
Continuous
 62
     7
370
    25
100
AcDbLine
 10
6184.2986683081
 20
5566.9272850987
 30
0.0
 11
6183.7128173081
 21
5568.9735090987
 31
0.0
  0
LINE
  5
27C
330
1F
100
AcDbEntity
  8
0
  6
Continuous
 62
     7
370
    25
100
AcDbLine
 10
6183.2581573081
 20
5564.1381110987
 30
0.0
 11
6184.2986683081
 21
5566.9272850987
 31
0.0
  0
LINE
  5
27D
330
1F
100
AcDbEntity
  8
0
  6
Continuous
 62
     7
370
    25
100
AcDbLine
 10
6183.7128173081
 20
5560.2769300987
 30
0.0
 11
6183.2581573081
 21
5564.1381110987
 31
0.0
  0
LINE
  5
27E
330
1F
100
AcDbEntity
  8
0
  6
Continuous
 62
     7
370
    25
100
AcDbLine
 10
6181.8965903081
 20
5559.8546550987
 30
0.0
 11
6183.7128173081
 21
5560.2769300987
 31
0.0
  0
LINE
  5
27F
330
1F
100
AcDbEntity
  8
0
  6
Continuous
 62
     7
370
    25
100
AcDbLine
 10
6181.5705813081
 20
5559.0111210987
 30
0.0
 11
6181.8965903081
 21
5559.8546550987
 31
0.0
  0
LINE
  5
280
330
1F
100
AcDbEntity
  8
0
  6
Continuous
 62
     7
370
    25
100
AcDbLine
 10
6178.4899423081
 20
5559.5944320987
 30
0.0
 11
6181.5705813081
 21
5559.0111210987
 31
0.0
  0
LINE
  5
281
330
1F
100
AcDbEntity
  8
0
  6
Continuous
 62
     7
370
    25
100
AcDbLine
 10
6176.5421433081
 20
5559.0111210987
 30
0.0
 11
6178.4899423081
 21
5559.5944320987
 31
0.0
  0
LINE
  5
282
330
1F
100
AcDbEntity
  8
0
  6
Continuous
 62
     7
370
    25
100
AcDbLine
 10
6173.9782673081
 20
5559.0111210987
 30
0.0
 11
6176.5421433081
 21
5559.0111210987
 31
0.0
  0
LINE
  5
283
330
1F
100
AcDbEntity
  8
0
  6
Continuous
 62
     7
370
    25
100
AcDbLine
 10
6173.1347333081
 20
5557.6486650987
 30
0.0
 11
6173.9782673081
 21
5559.0111210987
 31
0.0
  0
LINE
  5
284
330
1F
100
AcDbEntity
  8
0
  6
Continuous
 62
     7
370
    25
100
AcDbLine
 10
6171.8378093081
 20
5557.7453120987
 30
0.0
 11
6173.1347333081
 21
5557.6486650987
 31
0.0
  0
LINE
  5
285
330
1F
100
AcDbEntity
  8
0
  6
Continuous
 62
     7
370
    25
100
AcDbLine
 10
6171.4147723081
 20
5559.9518100987
 30
0.0
 11
6171.8378093081
 21
5557.7453120987
 31
0.0
  0
LINE
  5
286
330
1F
100
AcDbEntity
  8
0
  6
Continuous
 62
     7
370
    25
100
AcDbLine
 10
6169.9551613081
 20
5560.2769300987
 30
0.0
 11
6171.4147723081
 21
5559.9518100987
 31
0.0
  0
LINE
  5
287
330
1F
100
AcDbEntity
  8
0
  6
Continuous
 62
     7
370
    25
100
AcDbLine
 10
6168.5284433081
 20
5559.1743160987
 30
0.0
 11
6169.9551613081
 21
5560.2769300987
 31
0.0
  0
LINE
  5
288
330
1F
100
AcDbEntity
  8
0
  6
Continuous
 62
     7
370
    25
100
AcDbLine
 10
6164.5040673081
 20
5558.2336270987
 30
0.0
 11
6168.5284433081
 21
5559.1743160987
 31
0.0
  0
LINE
  5
289
330
1F
100
AcDbEntity
  8
0
  6
Continuous
 62
     7
370
    25
100
AcDbLine
 10
6163.8241093081
 20
5557.3874260987
 30
0.0
 11
6164.5040673081
 21
5558.2336270987
 31
0.0
  0
LINE
  5
28A
330
1F
100
AcDbEntity
  8
0
  6
Continuous
 62
     7
370
    25
100
AcDbLine
 10
6161.6802223081
 20
5558.5893540987
 30
0.0
 11
6163.8241093081
 21
5557.3874260987
 31
0.0
  0
LINE
  5
28B
330
1F
100
AcDbEntity
  8
0
  6
Continuous
 62
     7
370
    25
100
AcDbLine
 10
6161.1959713081
 20
5558.8491960987
 30
0.0
 11
6161.6802223081
 21
5558.5893540987
 31
0.0
  0
LINE
  5
28C
330
1F
100
AcDbEntity
  8
0
  6
Continuous
 62
     7
370
    25
100
AcDbLine
 10
6161.4216503081
 20
5558.8491960987
 30
0.0
 11
6161.1959713081
 21
5558.8491960987
 31
0.0
  0
LINE
  5
28D
330
1F
100
AcDbEntity
  8
0
  6
Continuous
 62
     7
370
    25
100
AcDbLine
 10
6160.5772273081
 20
5560.3740850987
 30
0.0
 11
6161.4216503081
 21
5558.8491960987
 31
0.0
  0
LINE
  5
28E
330
1F
100
AcDbEntity
  8
0
  6
Continuous
 62
     7
370
    25
100
AcDbLine
 10
6161.3559913081
 20
5563.0998860987
 30
0.0
 11
6160.5772273081
 21
5560.3740850987
 31
0.0
  0
LINE
  5
28F
330
1F
100
AcDbEntity
  8
0
  6
Continuous
 62
     7
370
    25
100
AcDbLine
 10
6159.2138823081
 20
5563.0998860987
 30
0.0
 11
6161.3559913081
 21
5563.0998860987
 31
0.0
  0
LINE
  5
290
330
1F
100
AcDbEntity
  8
0
  6
Continuous
 62
     7
370
    25
100
AcDbLine
 10
6159.2808113081
 20
5565.7604090987
 30
0.0
 11
6159.2138823081
 21
5563.0998860987
 31
0.0
  0
LINE
  5
291
330
1F
100
AcDbEntity
  8
0
  6
Continuous
 62
     7
370
    25
100
AcDbLine
 10
6156.0666953081
 20
5565.6628730987
 30
0.0
 11
6159.2808113081
 21
5565.7604090987
 31
0.0
  0
LINE
  5
292
330
1F
100
AcDbEntity
  8
0
  6
Continuous
 62
     7
370
    25
100
AcDbLine
 10
6152.8242583081
 20
5565.3390230987
 30
0.0
 11
6156.0666953081
 21
5565.6628730987
 31
0.0
  0
LINE
  5
293
330
1F
100
AcDbEntity
  8
0
  6
Continuous
 62
     7
370
    25
100
AcDbLine
 10
6152.9852943081
 20
5567.0895910987
 30
0.0
 11
6152.8242583081
 21
5565.3390230987
 31
0.0
  0
LINE
  5
294
330
1F
100
AcDbEntity
  8
0
  6
Continuous
 62
     7
370
    25
100
AcDbLine
 10
6151.7855253081
 20
5567.8368590987
 30
0.0
 11
6152.9852943081
 21
5567.0895910987
 31
0.0
  0
LINE
  5
295
330
1F
100
AcDbEntity
  8
0
  6
Continuous
 62
     7
370
    25
100
AcDbLine
 10
6152.2069113081
 20
5569.9138170987
 30
0.0
 11
6151.7855253081
 21
5567.8368590987
 31
0.0
  0
LINE
  5
296
330
1F
100
AcDbEntity
  8
0
  6
Continuous
 62
     7
370
    25
100
AcDbLine
 10
6149.3182963081
 20
5570.9196570987
 30
0.0
 11
6152.2069113081
 21
5569.9138170987
 31
0.0
  0
LINE
  5
297
330
1F
100
AcDbEntity
  8
0
  6
Continuous
 62
     7
370
    25
100
AcDbLine
 10
6146.6581543081
 20
5571.6008850987
 30
0.0
 11
6149.3182963081
 21
5570.9196570987
 31
0.0
  0
ENDSEC
  0
SECTION
  2
OBJECTS
  0
DICTIONARY
  5
C
330
0
100
AcDbDictionary
281
     1
  3
ACAD_GROUP
350
D
  3
ACAD_LAYOUT
350
1A
  3
ACAD_MLINESTYLE
350
17
  3
ACAD_PLOTSETTINGS
350
19
  3
ACAD_PLOTSTYLENAME
350
E
  3
ACAD_SCALELIST
350
47
  0
DICTIONARY
  5
D
102
{ACAD_REACTORS
330
C
102
}
330
C
100
AcDbDictionary
281
     1
  0
DICTIONARY
  5
1A
102
{ACAD_REACTORS
330
C
102
}
330
C
100
AcDbDictionary
281
     1
  3
Layout1
350
1E
  3
Layout2
350
26
  3
Model
350
22
  0
DICTIONARY
  5
17
102
{ACAD_REACTORS
330
C
102
}
330
C
100
AcDbDictionary
281
     1
  3
Standard
350
18
  0
DICTIONARY
  5
19
102
{ACAD_REACTORS
330
C
102
}
330
C
100
AcDbDictionary
281
     1
  0
ACDBDICTIONARYWDFLT
  5
E
102
{ACAD_REACTORS
330
C
102
}
330
C
100
AcDbDictionary
281
     1
  3
Normal
350
F
100
AcDbDictionaryWithDefault
340
F
  0
DICTIONARY
  5
47
102
{ACAD_REACTORS
330
C
102
}
330
C
100
AcDbDictionary
281
     1
  3
A0
350
48
  3
A1
350
49
  3
A2
350
4A
  3
A3
350
4B
  3
A4
350
4C
  3
A5
350
4D
  3
A6
350
4E
  3
A7
350
4F
  3
A8
350
50
  3
A9
350
51
  3
B0
350
52
  3
B1
350
53
  3
B2
350
54
  3
B3
350
55
  3
B4
350
56
  3
B5
350
57
  3
B6
350
58
  3
B7
350
59
  3
B8
350
5A
  3
B9
350
5B
  3
C0
350
5C
  3
C1
350
5D
  3
C2
350
5E
  3
C3
350
5F
  3
C4
350
60
  3
C5
350
61
  3
C6
350
62
  3
C7
350
63
  3
C8
350
64
  3
C9
350
65
  3
D0
350
66
  3
D1
350
67
  3
D2
350
68
  0
LAYOUT
  5
1E
102
{ACAD_REACTORS
330
1A
102
}
330
1A
100
AcDbPlotSettings
  1

  2
none_device
  4

  6

 40
0.0
 41
0.0
 42
0.0
 43
0.0
 44
0.0
 45
0.0
 46
0.0
 47
0.0
 48
0.0
 49
0.0
140
0.0
141
0.0
142
1.0
143
1.0
 70
   688
 72
     1
 73
     0
 74
     5
  7

 75
    16
147
1.0
148
0.0
149
0.0
100
AcDbLayout
  1
Layout1
 70
     1
 71
     1
 10
0.0
 20
0.0
 11
420.0
 21
297.0
 12
0.0
 22
0.0
 32
0.0
 14
1.0000000000E+20
 24
1.0000000000E+20
 34
1.0000000000E+20
 15
-1.0000000000E+20
 25
-1.0000000000E+20
 35
-1.0000000000E+20
146
0.0
 13
0.0
 23
0.0
 33
0.0
 16
1.0
 26
0.0
 36
0.0
 17
0.0
 27
1.0
 37
0.0
 76
     0
330
1B
  0
LAYOUT
  5
26
102
{ACAD_REACTORS
330
1A
102
}
330
1A
100
AcDbPlotSettings
  1

  2
none_device
  4

  6

 40
0.0
 41
0.0
 42
0.0
 43
0.0
 44
0.0
 45
0.0
 46
0.0
 47
0.0
 48
0.0
 49
0.0
140
0.0
141
0.0
142
1.0
143
1.0
 70
   688
 72
     1
 73
     0
 74
     5
  7

 75
    16
147
1.0
148
0.0
149
0.0
100
AcDbLayout
  1
Layout2
 70
     1
 71
     2
 10
0.0
 20
0.0
 11
0.0
 21
0.0
 12
0.0
 22
0.0
 32
0.0
 14
0.0
 24
0.0
 34
0.0
 15
0.0
 25
0.0
 35
0.0
146
0.0
 13
0.0
 23
0.0
 33
0.0
 16
1.0
 26
0.0
 36
0.0
 17
0.0
 27
1.0
 37
0.0
 76
     0
330
23
  0
LAYOUT
  5
22
102
{ACAD_REACTORS
330
1A
102
}
330
1A
100
AcDbPlotSettings
  1

  2
none_device
  4
ANSI_A_(11.00_x_8.50_Inches)
  6

 40
6.35
 41
19.05
 42
6.35000508
 43
19.05000254
 44
279.4
 45
215.9
 46
-12636.9829371446
 47
-11555.4432560582
 48
0.0
 49
0.0
140
0.0
141
0.0
142
0.081734667
143
1.0
 70
  1696
 72
     0
 73
     0
 74
     0
  7

 75
     0
147
0.0179189148
148
-1300.4909072572
149
0.0
100
AcDbLayout
  1
Model
 70
     1
 71
     0
 10
0.0
 20
0.0
 11
420.0
 21
297.0
 12
0.0
 22
0.0
 32
0.0
 14
6113.8869473081
 24
5557.3874260987
 34
0.0
 15
6188.5798383081
 25
5660.3425160987
 35
0.0
146
0.0
 13
0.0
 23
0.0
 33
0.0
 16
1.0
 26
0.0
 36
0.0
 17
0.0
 27
1.0
 37
0.0
 76
     0
330
1F
331
29
  0
MLINESTYLE
  5
18
102
{ACAD_REACTORS
330
17
102
}
330
17
100
AcDbMlineStyle
  2
Standard
 70
     0
  3

 62
   256
 51
90.0
 52
90.0
 71
     2
 49
0.5
 62
   256
  6
BYLAYER
 49
-0.5
 62
   256
  6
BYLAYER
  0
ACDBPLACEHOLDER
  5
F
102
{ACAD_REACTORS
330
E
102
}
330
E
  0
SCALE
  5
48
102
{ACAD_REACTORS
330
47
102
}
330
47
100
AcDbScale
 70
     0
300
1:1
140
1.0
141
1.0
290
     1
  0
SCALE
  5
49
102
{ACAD_REACTORS
330
47
102
}
330
47
100
AcDbScale
 70
     0
300
1:2
140
1.0
141
2.0
290
     0
  0
SCALE
  5
4A
102
{ACAD_REACTORS
330
47
102
}
330
47
100
AcDbScale
 70
     0
300
1:4
140
1.0
141
4.0
290
     0
  0
SCALE
  5
4B
102
{ACAD_REACTORS
330
47
102
}
330
47
100
AcDbScale
 70
     0
300
1:5
140
1.0
141
5.0
290
     0
  0
SCALE
  5
4C
102
{ACAD_REACTORS
330
47
102
}
330
47
100
AcDbScale
 70
     0
300
1:8
140
1.0
141
8.0
290
     0
  0
SCALE
  5
4D
102
{ACAD_REACTORS
330
47
102
}
330
47
100
AcDbScale
 70
     0
300
1:10
140
1.0
141
10.0
290
     0
  0
SCALE
  5
4E
102
{ACAD_REACTORS
330
47
102
}
330
47
100
AcDbScale
 70
     0
300
1:16
140
1.0
141
16.0
290
     0
  0
SCALE
  5
4F
102
{ACAD_REACTORS
330
47
102
}
330
47
100
AcDbScale
 70
     0
300
1:20
140
1.0
141
20.0
290
     0
  0
SCALE
  5
50
102
{ACAD_REACTORS
330
47
102
}
330
47
100
AcDbScale
 70
     0
300
1:30
140
1.0
141
30.0
290
     0
  0
SCALE
  5
51
102
{ACAD_REACTORS
330
47
102
}
330
47
100
AcDbScale
 70
     0
300
1:40
140
1.0
141
40.0
290
     0
  0
SCALE
  5
52
102
{ACAD_REACTORS
330
47
102
}
330
47
100
AcDbScale
 70
     0
300
1:50
140
1.0
141
50.0
290
     0
  0
SCALE
  5
53
102
{ACAD_REACTORS
330
47
102
}
330
47
100
AcDbScale
 70
     0
300
1:100
140
1.0
141
100.0
290
     0
  0
SCALE
  5
54
102
{ACAD_REACTORS
330
47
102
}
330
47
100
AcDbScale
 70
     0
300
2:1
140
2.0
141
1.0
290
     0
  0
SCALE
  5
55
102
{ACAD_REACTORS
330
47
102
}
330
47
100
AcDbScale
 70
     0
300
4:1
140
4.0
141
1.0
290
     0
  0
SCALE
  5
56
102
{ACAD_REACTORS
330
47
102
}
330
47
100
AcDbScale
 70
     0
300
8:1
140
8.0
141
1.0
290
     0
  0
SCALE
  5
57
102
{ACAD_REACTORS
330
47
102
}
330
47
100
AcDbScale
 70
     0
300
10:1
140
10.0
141
1.0
290
     0
  0
SCALE
  5
58
102
{ACAD_REACTORS
330
47
102
}
330
47
100
AcDbScale
 70
     0
300
100:1
140
100.0
141
1.0
290
     0
  0
SCALE
  5
59
102
{ACAD_REACTORS
330
47
102
}
330
47
100
AcDbScale
 70
     0
300
1/128" = 1'-0"
140
0.0078125
141
12.0
290
     0
  0
SCALE
  5
5A
102
{ACAD_REACTORS
330
47
102
}
330
47
100
AcDbScale
 70
     0
300
1/64" = 1'-0"
140
0.015625
141
12.0
290
     0
  0
SCALE
  5
5B
102
{ACAD_REACTORS
330
47
102
}
330
47
100
AcDbScale
 70
     0
300
1/32" = 1'-0"
140
0.03125
141
12.0
290
     0
  0
SCALE
  5
5C
102
{ACAD_REACTORS
330
47
102
}
330
47
100
AcDbScale
 70
     0
300
1/16" = 1'-0"
140
0.0625
141
12.0
290
     0
  0
SCALE
  5
5D
102
{ACAD_REACTORS
330
47
102
}
330
47
100
AcDbScale
 70
     0
300
3/32" = 1'-0"
140
0.09375
141
12.0
290
     0
  0
SCALE
  5
5E
102
{ACAD_REACTORS
330
47
102
}
330
47
100
AcDbScale
 70
     0
300
1/8" = 1'-0"
140
0.125
141
12.0
290
     0
  0
SCALE
  5
5F
102
{ACAD_REACTORS
330
47
102
}
330
47
100
AcDbScale
 70
     0
300
3/16" = 1'-0"
140
0.1875
141
12.0
290
     0
  0
SCALE
  5
60
102
{ACAD_REACTORS
330
47
102
}
330
47
100
AcDbScale
 70
     0
300
1/4" = 1'-0"
140
0.25
141
12.0
290
     0
  0
SCALE
  5
61
102
{ACAD_REACTORS
330
47
102
}
330
47
100
AcDbScale
 70
     0
300
3/8" = 1'-0"
140
0.375
141
12.0
290
     0
  0
SCALE
  5
62
102
{ACAD_REACTORS
330
47
102
}
330
47
100
AcDbScale
 70
     0
300
1/2" = 1'-0"
140
0.5
141
12.0
290
     0
  0
SCALE
  5
63
102
{ACAD_REACTORS
330
47
102
}
330
47
100
AcDbScale
 70
     0
300
3/4" = 1'-0"
140
0.75
141
12.0
290
     0
  0
SCALE
  5
64
102
{ACAD_REACTORS
330
47
102
}
330
47
100
AcDbScale
 70
     0
300
1" = 1'-0"
140
1.0
141
12.0
290
     0
  0
SCALE
  5
65
102
{ACAD_REACTORS
330
47
102
}
330
47
100
AcDbScale
 70
     0
300
1-1/2" = 1'-0"
140
1.5
141
12.0
290
     0
  0
SCALE
  5
66
102
{ACAD_REACTORS
330
47
102
}
330
47
100
AcDbScale
 70
     0
300
3" = 1'-0"
140
3.0
141
12.0
290
     0
  0
SCALE
  5
67
102
{ACAD_REACTORS
330
47
102
}
330
47
100
AcDbScale
 70
     0
300
6" = 1'-0"
140
6.0
141
12.0
290
     0
  0
SCALE
  5
68
102
{ACAD_REACTORS
330
47
102
}
330
47
100
AcDbScale
 70
     0
300
1'-0" = 1'-0"
140
12.0
141
12.0
290
     0
  0
ENDSEC
  0
EOF
