  0
SECTION
  2
HEADER
  9
$ACADVER
  1
AC1015
  9
$ACADMAINTVER
 70
     6
  9
$DWGCODEPAGE
  3
ANSI_1251
  9
$INSBASE
 10
0.0
 20
0.0
 30
0.0
  9
$EXTMIN
 10
-9198.3076581695
 20
9056.2335614873
 30
0.0
  9
$EXTMAX
 10
-9126.5346241695
 20
9134.9169194873
 30
0.0
  9
$LIMMIN
 10
0.0
 20
0.0
  9
$LIMMAX
 10
420.0
 20
297.0
  9
$ORTHOMODE
 70
     0
  9
$REGENMODE
 70
     1
  9
$FILLMODE
 70
     1
  9
$QTEXTMODE
 70
     0
  9
$MIRRTEXT
 70
     1
  9
$LTSCALE
 40
1.0
  9
$ATTMODE
 70
     1
  9
$TEXTSIZE
 40
4.0
  9
$TRACEWID
 40
1.0
  9
$TEXTSTYLE
  7
Standard
  9
$CLAYER
  8
0
  9
$CELTYPE
  6
ByLayer
  9
$CECOLOR
 62
   256
  9
$CELTSCALE
 40
1.0
  9
$DISPSILH
 70
     0
  9
$DIMSCALE
 40
1.0
  9
$DIMASZ
 40
6.0
  9
$DIMEXO
 40
1.0
  9
$DIMDLI
 40
3.75
  9
$DIMRND
 40
0.0
  9
$DIMDLE
 40
0.0
  9
$DIMEXE
 40
1.0
  9
$DIMTP
 40
0.0
  9
$DIMTM
 40
0.0
  9
$DIMTXT
 40
4.0
  9
$DIMCEN
 40
2.5
  9
$DIMTSZ
 40
0.0
  9
$DIMTOL
 70
     0
  9
$DIMLIM
 70
     0
  9
$DIMTIH
 70
     1
  9
$DIMTOH
 70
     1
  9
$DIMSE1
 70
     0
  9
$DIMSE2
 70
     0
  9
$DIMTAD
 70
     1
  9
$DIMZIN
 70
     0
  9
$DIMBLK
  1

  9
$DIMASO
 70
     1
  9
$DIMSHO
 70
     1
  9
$DIMPOST
  1

  9
$DIMAPOST
  1

  9
$DIMALT
 70
     0
  9
$DIMALTD
 70
     3
  9
$DIMALTF
 40
0.0393700787
  9
$DIMLFAC
 40
1.0
  9
$DIMTOFL
 70
     1
  9
$DIMTVP
 40
0.0
  9
$DIMTIX
 70
     0
  9
$DIMSOXD
 70
     0
  9
$DIMSAH
 70
     0
  9
$DIMBLK1
  1

  9
$DIMBLK2
  1

  9
$DIMSTYLE
  2
ISO-25
  9
$DIMCLRD
 70
     0
  9
$DIMCLRE
 70
     0
  9
$DIMCLRT
 70
     0
  9
$DIMTFAC
 40
1.0
  9
$DIMGAP
 40
3.0
  9
$DIMJUST
 70
     0
  9
$DIMSD1
 70
     0
  9
$DIMSD2
 70
     0
  9
$DIMTOLJ
 70
     0
  9
$DIMTZIN
 70
     0
  9
$DIMALTZ
 70
     0
  9
$DIMALTTZ
 70
     0
  9
$DIMUPT
 70
     0
  9
$DIMDEC
 70
     2
  9
$DIMTDEC
 70
     4
  9
$DIMALTU
 70
     2
  9
$DIMALTTD
 70
     3
  9
$DIMTXSTY
  7
Standard
  9
$DIMAUNIT
 70
     0
  9
$DIMADEC
 70
     2
  9
$DIMALTRND
 40
0.0
  9
$DIMAZIN
 70
     0
  9
$DIMDSEP
 70
    44
  9
$DIMATFIT
 70
     3
  9
$DIMFRAC
 70
     0
  9
$DIMLDRBLK
  1

  9
$DIMLUNIT
 70
     2
  9
$DIMLWD
 70
    -2
  9
$DIMLWE
 70
    -2
  9
$DIMTMOVE
 70
     0
  9
$LUNITS
 70
     2
  9
$LUPREC
 70
     2
  9
$SKETCHINC
 40
1.0
  9
$FILLETRAD
 40
10.0
  9
$AUNITS
 70
     1
  9
$AUPREC
 70
     2
  9
$MENU
  1
.
  9
$ELEVATION
 40
0.0
  9
$PELEVATION
 40
0.0
  9
$THICKNESS
 40
0.0
  9
$LIMCHECK
 70
     0
  9
$CHAMFERA
 40
0.0
  9
$CHAMFERB
 40
0.0
  9
$CHAMFERC
 40
0.0
  9
$CHAMFERD
 40
0.0
  9
$SKPOLY
 70
     0
  9
$TDCREATE
 40
2460368.65906015
  9
$TDUCREATE
 40
2460368.575726817
  9
$TDUPDATE
 40
2460368.659075972
  9
$TDUUPDATE
 40
2460368.575742639
  9
$TDINDWG
 40
0.0000000116
  9
$TDUSRTIMER
 40
0.0000000116
  9
$USRTIMER
 70
     1
  9
$ANGBASE
 50
0.0
  9
$ANGDIR
 70
     0
  9
$PDMODE
 70
     0
  9
$PDSIZE
 40
-1.0
  9
$PLINEWID
 40
0.0
  9
$SPLFRAME
 70
     0
  9
$SPLINETYPE
 70
     6
  9
$SPLINESEGS
 70
     8
  9
$HANDSEED
  5
261
  9
$SURFTAB1
 70
     6
  9
$SURFTAB2
 70
     6
  9
$SURFTYPE
 70
     6
  9
$SURFU
 70
     6
  9
$SURFV
 70
     6
  9
$UCSBASE
  2

  9
$UCSNAME
  2

  9
$UCSORG
 10
0.0
 20
0.0
 30
0.0
  9
$UCSXDIR
 10
1.0
 20
0.0
 30
0.0
  9
$UCSYDIR
 10
0.0
 20
1.0
 30
0.0
  9
$UCSORTHOREF
  2

  9
$UCSORTHOVIEW
 70
     0
  9
$UCSORGTOP
 10
0.0
 20
0.0
 30
0.0
  9
$UCSORGBOTTOM
 10
0.0
 20
0.0
 30
0.0
  9
$UCSORGLEFT
 10
0.0
 20
0.0
 30
0.0
  9
$UCSORGRIGHT
 10
0.0
 20
0.0
 30
0.0
  9
$UCSORGFRONT
 10
0.0
 20
0.0
 30
0.0
  9
$UCSORGBACK
 10
0.0
 20
0.0
 30
0.0
  9
$PUCSBASE
  2

  9
$PUCSNAME
  2

  9
$PUCSORG
 10
0.0
 20
0.0
 30
0.0
  9
$PUCSXDIR
 10
1.0
 20
0.0
 30
0.0
  9
$PUCSYDIR
 10
0.0
 20
1.0
 30
0.0
  9
$PUCSORTHOREF
  2

  9
$PUCSORTHOVIEW
 70
     0
  9
$PUCSORGTOP
 10
0.0
 20
0.0
 30
0.0
  9
$PUCSORGBOTTOM
 10
0.0
 20
0.0
 30
0.0
  9
$PUCSORGLEFT
 10
0.0
 20
0.0
 30
0.0
  9
$PUCSORGRIGHT
 10
0.0
 20
0.0
 30
0.0
  9
$PUCSORGFRONT
 10
0.0
 20
0.0
 30
0.0
  9
$PUCSORGBACK
 10
0.0
 20
0.0
 30
0.0
  9
$USERI1
 70
     0
  9
$USERI2
 70
     0
  9
$USERI3
 70
     0
  9
$USERI4
 70
     0
  9
$USERI5
 70
     0
  9
$USERR1
 40
0.0
  9
$USERR2
 40
0.0
  9
$USERR3
 40
0.0
  9
$USERR4
 40
0.0
  9
$USERR5
 40
0.0
  9
$WORLDVIEW
 70
     1
  9
$SHADEDGE
 70
     3
  9
$SHADEDIF
 70
    70
  9
$TILEMODE
 70
     1
  9
$MAXACTVP
 70
    64
  9
$PINSBASE
 10
0.0
 20
0.0
 30
0.0
  9
$PLIMCHECK
 70
     0
  9
$PEXTMIN
 10
1.0000000000E+20
 20
1.0000000000E+20
 30
1.0000000000E+20
  9
$PEXTMAX
 10
-1.0000000000E+20
 20
-1.0000000000E+20
 30
-1.0000000000E+20
  9
$PLIMMIN
 10
0.0
 20
0.0
  9
$PLIMMAX
 10
420.0
 20
297.0
  9
$UNITMODE
 70
     0
  9
$VISRETAIN
 70
     1
  9
$PLINEGEN
 70
     0
  9
$PSLTSCALE
 70
     1
  9
$TREEDEPTH
 70
  3020
  9
$CMLSTYLE
  2
Standard
  9
$CMLJUST
 70
     0
  9
$CMLSCALE
 40
20.0
  9
$PROXYGRAPHICS
 70
     1
  9
$MEASUREMENT
 70
     1
  9
$CELWEIGHT
370
    -1
  9
$ENDCAPS
280
     0
  9
$JOINSTYLE
280
     0
  9
$LWDISPLAY
290
     1
  9
$INSUNITS
 70
     4
  9
$HYPERLINKBASE
  1

  9
$STYLESHEET
  1

  9
$XEDIT
290
     1
  9
$CEPSNTYPE
380
     0
  9
$PSTYLEMODE
290
     1
  9
$FINGERPRINTGUID
  2
{f5725e57-b1e8-4745-b73e-de0dbff5525a}
  9
$VERSIONGUID
  2
{FAEB1C32-E019-11D5-929B-00C0DF256EC4}
  9
$EXTNAMES
290
     1
  9
$PSVPSCALE
 40
0.0
  9
$OLESTARTUP
290
     0
  0
ENDSEC
  0
SECTION
  2
CLASSES
  0
CLASS
  1
ACDBDICTIONARYWDFLT
  2
AcDbDictionaryWithDefault
  3
ObjectDBX Classes
 90
        0
280
     0
281
     0
  0
CLASS
  1
VISUALSTYLE
  2
AcDbVisualStyle
  3
ObjectDBX Classes
 90
     4095
280
     0
281
     0
  0
CLASS
  1
MATERIAL
  2
AcDbMaterial
  3
ObjectDBX Classes
 90
     1153
280
     0
281
     0
  0
CLASS
  1
SCALE
  2
AcDbScale
  3
ObjectDBX Classes
 90
     1153
280
     0
281
     0
  0
CLASS
  1
TABLESTYLE
  2
AcDbTableStyle
  3
ObjectDBX Classes
 90
     4095
280
     0
281
     0
  0
CLASS
  1
MLEADERSTYLE
  2
AcDbMLeaderStyle
  3
ACDB_MLEADERSTYLE_CLASS
 90
     4095
280
     0
281
     0
  0
CLASS
  1
SUN
  2
AcDbSun
  3
SCENEOE
 90
     1153
280
     0
281
     0
  0
CLASS
  1
ACDBPLACEHOLDER
  2
AcDbPlaceHolder
  3
ObjectDBX Classes
 90
        0
280
     0
281
     0
  0
CLASS
  1
LAYOUT
  2
AcDbLayout
  3
ObjectDBX Classes
 90
        0
280
     0
281
     0
  0
ENDSEC
  0
SECTION
  2
TABLES
  0
TABLE
  2
VPORT
  5
8
330
0
100
AcDbSymbolTable
 70
     1
  0
VPORT
  5
29
330
8
100
AcDbSymbolTableRecord
100
AcDbViewportTableRecord
  2
*Active
 70
     0
 10
0.0
 20
0.0
 11
1.0
 21
1.0
 12
-9162.4211411695
 22
9095.5752404873
 13
0.0
 23
0.0
 14
10.0
 24
10.0
 15
10.0
 25
10.0
 16
0.0
 26
0.0
 36
1.0
 17
0.0
 27
0.0
 37
0.0
 40
80.25702516
 41
0.9121755327
 42
50.0
 43
0.0
 44
0.0
 50
0.0
 51
0.0
 71
     0
 72
   100
 73
     1
 74
     3
 75
     0
 76
     0
 77
     0
 78
     0
281
     0
 65
     1
110
0.0
120
0.0
130
0.0
111
1.0
121
0.0
131
0.0
112
0.0
122
1.0
132
0.0
 79
     0
146
0.0
  0
ENDTAB
  0
TABLE
  2
LTYPE
  5
5
330
0
100
AcDbSymbolTable
 70
     6
  0
LTYPE
  5
14
330
5
100
AcDbSymbolTableRecord
100
AcDbLinetypeTableRecord
  2
ByBlock
 70
     0
  3

 72
    65
 73
     0
 40
0.0
  0
LTYPE
  5
15
330
5
100
AcDbSymbolTableRecord
100
AcDbLinetypeTableRecord
  2
ByLayer
 70
     0
  3

 72
    65
 73
     0
 40
0.0
  0
LTYPE
  5
16
330
5
100
AcDbSymbolTableRecord
100
AcDbLinetypeTableRecord
  2
Continuous
 70
     0
  3
Solid line
 72
    65
 73
     0
 40
0.0
  0
LTYPE
  5
6E
330
5
100
AcDbSymbolTableRecord
100
AcDbLinetypeTableRecord
  2
HIDDEN
 70
     0
  3
Hidden __ __ __ __ __ __ __ __ __ __ __ __ __ __
 72
    65
 73
     2
 40
1.905
 49
1.27
 74
     0
 49
-0.635
 74
     0
  0
LTYPE
  5
6F
330
5
100
AcDbSymbolTableRecord
100
AcDbLinetypeTableRecord
  2
PHANTOM
 70
     0
  3
Phantom ______  __  __  ______  __  __  ______
 72
    65
 73
     6
 40
12.7
 49
6.35
 74
     0
 49
-1.27
 74
     0
 49
1.27
 74
     0
 49
-1.27
 74
     0
 49
1.27
 74
     0
 49
-1.27
 74
     0
  0
LTYPE
  5
70
330
5
100
AcDbSymbolTableRecord
100
AcDbLinetypeTableRecord
  2
CENTER
 70
     0
  3
Center ____ _ ____ _ ____ _ ____ _ ____ _ ____
 72
    65
 73
     4
 40
10.16
 49
6.35
 74
     0
 49
-1.27
 74
     0
 49
1.27
 74
     0
 49
-1.27
 74
     0
  0
LTYPE
  5
71
330
5
100
AcDbSymbolTableRecord
100
AcDbLinetypeTableRecord
  2
CENTERX2
 70
     0
  3
Center (2x) ________  __  ________  __  _____
 72
    65
 73
     4
 40
20.32
 49
12.7
 74
     0
 49
-2.54
 74
     0
 49
2.54
 74
     0
 49
-2.54
 74
     0
  0
LTYPE
  5
72
330
5
100
AcDbSymbolTableRecord
100
AcDbLinetypeTableRecord
  2
DOT2
 70
     0
  3
Dot (.5x) ........................................
 72
    65
 73
     2
 40
0.635
 49
0.0
 74
     0
 49
-0.635
 74
     0
  0
ENDTAB
  0
TABLE
  2
LAYER
  5
2
330
0
100
AcDbSymbolTable
 70
     1
  0
LAYER
  5
10
330
2
100
AcDbSymbolTableRecord
100
AcDbLayerTableRecord
  2
0
 70
     0
 62
     7
  6
Continuous
370
    -3
390
F
  0
ENDTAB
  0
TABLE
  2
STYLE
  5
3
330
0
100
AcDbSymbolTable
 70
     1
  0
STYLE
  5
11
330
3
100
AcDbSymbolTableRecord
100
AcDbTextStyleTableRecord
  2
Standard
 70
     0
 40
0.0
 41
1.0
 50
0.0
 71
     0
 42
4.0
  3
txt
  4

  0
ENDTAB
  0
TABLE
  2
VIEW
  5
6
330
0
100
AcDbSymbolTable
 70
     0
  0
ENDTAB
  0
TABLE
  2
UCS
  5
7
330
0
100
AcDbSymbolTable
 70
     0
  0
ENDTAB
  0
TABLE
  2
APPID
  5
9
330
0
100
AcDbSymbolTable
 70
     1
  0
APPID
  5
12
330
9
100
AcDbSymbolTableRecord
100
AcDbRegAppTableRecord
  2
ACAD
 70
     0
  0
ENDTAB
  0
TABLE
  2
DIMSTYLE
  5
A
330
0
100
AcDbSymbolTable
 70
     1
100
AcDbDimStyleTable
  0
DIMSTYLE
105
27
330
A
100
AcDbSymbolTableRecord
100
AcDbDimStyleTableRecord
  2
ISO-25
 70
     0
 41
2.5
 42
0.625
 43
3.75
 44
1.25
 73
     0
 74
     0
 77
     1
 78
     8
140
2.5
141
2.5
143
0.0393700787
147
0.625
171
     3
172
     1
178
     0
271
     2
272
     2
274
     3
278
    44
283
     0
284
     8
340
11
  0
ENDTAB
  0
TABLE
  2
BLOCK_RECORD
  5
1
330
0
100
AcDbSymbolTable
 70
     1
  0
BLOCK_RECORD
  5
1F
330
1
100
AcDbSymbolTableRecord
100
AcDbBlockTableRecord
  2
*Model_Space
340
22
  0
BLOCK_RECORD
  5
1B
330
1
100
AcDbSymbolTableRecord
100
AcDbBlockTableRecord
  2
*Paper_Space
340
1E
  0
BLOCK_RECORD
  5
23
330
1
100
AcDbSymbolTableRecord
100
AcDbBlockTableRecord
  2
*Paper_Space0
340
26
  0
ENDTAB
  0
ENDSEC
  0
SECTION
  2
BLOCKS
  0
BLOCK
  5
20
330
1F
100
AcDbEntity
  8
0
100
AcDbBlockBegin
  2
*Model_Space
 70
     0
 10
0.0
 20
0.0
 30
0.0
  3
*Model_Space
  1

  0
ENDBLK
  5
21
330
1F
100
AcDbEntity
  8
0
100
AcDbBlockEnd
  0
BLOCK
  5
1C
330
1B
100
AcDbEntity
 67
     1
  8
0
100
AcDbBlockBegin
  2
*Paper_Space
 70
     0
 10
0.0
 20
0.0
 30
0.0
  3
*Paper_Space
  1

  0
ENDBLK
  5
1D
330
1B
100
AcDbEntity
 67
     1
  8
0
100
AcDbBlockEnd
  0
BLOCK
  5
24
330
23
100
AcDbEntity
  8
0
100
AcDbBlockBegin
  2
*Paper_Space0
 70
     0
 10
0.0
 20
0.0
 30
0.0
  3
*Paper_Space0
  1

  0
ENDBLK
  5
25
330
23
100
AcDbEntity
  8
0
100
AcDbBlockEnd
  0
ENDSEC
  0
SECTION
  2
ENTITIES
  0
SPLINE
  5
74
330
1F
100
AcDbEntity
  8
0
  6
Continuous
 62
     7
370
    25
100
AcDbSpline
210
0.0
220
0.0
230
1.0
 70
     8
 71
     3
 72
    23
 73
    19
 74
     0
 42
0.000000001
 43
0.00000001
 40
0.0
 40
0.0
 40
0.0
 40
0.0
 40
0.0603066210140957
 40
0.1194421281967422
 40
0.1780227147626761
 40
0.2361343677381646
 40
0.2955036415325769
 40
0.3553862741558923
 40
0.4170389405274342
 40
0.4815965223710938
 40
0.5461911773604747
 40
0.6093536377899019
 40
0.6725404596655216
 40
0.7353635899273204
 40
0.7989819471019627
 40
0.8636824083129214
 40
0.9303459063710559
 40
1.0
 40
1.0
 40
1.0
 40
1.0
 10
-9158.073084830658
 20
9082.474220218272
 30
0.0
 10
-9158.074171606477
 20
9082.434282395077
 30
0.0
 10
-9158.076324053665
 20
9082.355182314235
 30
0.0
 10
-9158.094419123589
 20
9082.23844369292
 30
0.0
 10
-9158.123155776782
 20
9082.125470173587
 30
0.0
 10
-9158.164573106003
 20
9082.016274284184
 30
0.0
 10
-9158.216866292532
 20
9081.911010462625
 30
0.0
 10
-9158.279596058112
 20
9081.808709102253
 30
0.0
 10
-9158.356602807104
 20
9081.712290042842
 30
0.0
 10
-9158.44218374306
 20
9081.619279653974
 30
0.0
 10
-9158.536654360922
 20
9081.53360312487
 30
0.0
 10
-9158.638726081572
 20
9081.458764167335
 30
0.0
 10
-9158.746409624438
 20
9081.39430288943
 30
0.0
 10
-9158.861496745734
 20
9081.343682222625
 30
0.0
 10
-9158.98120938765
 20
9081.301996201842
 30
0.0
 10
-9159.107676245872
 20
9081.275182223882
 30
0.0
 10
-9159.239663069093
 20
9081.256682549742
 30
0.0
 10
-9159.329949535871
 20
9081.254692373539
 30
0.0
 10
-9159.37608314147
 20
9081.253675454756
 30
0.0
  0
SPLINE
  5
76
330
1F
100
AcDbEntity
  8
0
  6
Continuous
 62
     7
370
    25
100
AcDbSpline
210
0.0
220
0.0
230
1.0
 70
     8
 71
     3
 72
    15
 73
    11
 74
     0
 42
0.000000001
 43
0.00000001
 40
0.0
 40
0.0
 40
0.0
 40
0.0
 40
0.1376465333874953
 40
0.2584939900653621
 40
0.3721777144534217
 40
0.4802669656692498
 40
0.5916828156085284
 40
0.712530272286387
 40
0.8471387149836294
 40
1.0
 40
1.0
 40
1.0
 40
1.0
 10
-9160.33417013471
 20
9081.253675454756
 30
0.0
 10
-9160.355177176916
 20
9081.254400692764
 30
0.0
 10
-9160.394627456017
 20
9081.255762657076
 30
0.0
 10
-9160.449853686147
 20
9081.270263361856
 30
0.0
 10
-9160.497311250758
 20
9081.293043628875
 30
0.0
 10
-9160.53584924208
 20
9081.327016439456
 30
0.0
 10
-9160.565318893494
 20
9081.370176630377
 30
0.0
 10
-9160.586427401631
 20
9081.42237385544
 30
0.0
 10
-9160.59719129002
 20
9081.483961764623
 30
0.0
 10
-9160.599097980139
 20
9081.527709830858
 30
0.0
 10
-9160.600111857684
 20
9081.550972752053
 30
0.0
  0
SPLINE
  5
77
330
1F
100
AcDbEntity
  8
0
  6
Continuous
 62
     7
370
    25
100
AcDbSpline
210
0.0
220
0.0
230
1.0
 70
     8
 71
     3
 72
    15
 73
    11
 74
     0
 42
0.000000001
 43
0.00000001
 40
0.0
 40
0.0
 40
0.0
 40
0.0
 40
0.1545651316739335
 40
0.2906739683080763
 40
0.4128684340414795
 40
0.5240800725850191
 40
0.6333741253266492
 40
0.7437509193893118
 40
0.8659453851227233
 40
1.0
 40
1.0
 40
1.0
 40
1.0
 10
-9160.600111857684
 20
9081.550972752053
 30
0.0
 10
-9160.59908763661
 20
9081.574228107236
 30
0.0
 10
-9160.597161494527
 20
9081.617961944887
 30
0.0
 10
-9160.586525854897
 20
9081.679643664569
 30
0.0
 10
-9160.565084898928
 20
9081.731334046222
 30
0.0
 10
-9160.53717541978
 20
9081.775351456985
 30
0.0
 10
-9160.498776975362
 20
9081.80810530293
 30
0.0
 10
-9160.452900646475
 20
9081.832292806217
 30
0.0
 10
-9160.398797781369
 20
9081.845860243555
 30
0.0
 10
-9160.360179540197
 20
9081.847442371849
 30
0.0
 10
-9160.33997672255
 20
9081.848270049353
 30
0.0
  0
SPLINE
  5
79
330
1F
100
AcDbEntity
  8
0
  6
Continuous
 62
     7
370
    25
100
AcDbSpline
210
0.0
220
0.0
230
1.0
 70
     8
 71
     3
 72
    15
 73
    11
 74
     0
 42
0.000000001
 43
0.00000001
 40
0.0
 40
0.0
 40
0.0
 40
0.0
 40
0.1276214145535592
 40
0.2496255370571308
 40
0.37270522074899
 40
0.4998668058613878
 40
0.627731832207528
 40
0.7503744629428661
 40
0.8723785854463567
 40
0.9999999999999999
 40
0.9999999999999999
 40
0.9999999999999999
 40
0.9999999999999999
 10
-9159.41324530363
 20
9081.848270049353
 30
0.0
 10
-9159.368485826531
 20
9081.850785222667
 30
0.0
 10
-9159.28093697316
 20
9081.855704863243
 30
0.0
 10
-9159.154373821102
 20
9081.892919383034
 30
0.0
 10
-9159.039336627488
 20
9081.956034806808
 30
0.0
 10
-9158.936147634555
 20
9082.040459062953
 30
0.0
 10
-9158.85147208676
 20
9082.143068386193
 30
0.0
 10
-9158.786154797786
 20
9082.257069605792
 30
0.0
 10
-9158.749558090463
 20
9082.383781095927
 30
0.0
 10
-9158.744559358485
 20
9082.471289072117
 30
0.0
 10
-9158.742003749578
 20
9082.516027650703
 30
0.0
  0
SPLINE
  5
7C
330
1F
100
AcDbEntity
  8
0
  6
Continuous
 62
     7
370
    25
100
AcDbSpline
210
0.0
220
0.0
230
1.0
 70
     8
 71
     3
 72
    23
 73
    19
 74
     0
 42
0.000000001
 43
0.00000001
 40
0.0
 40
0.0
 40
0.0
 40
0.0
 40
0.0654089211840998
 40
0.1288954245590197
 40
0.1905242960456097
 40
0.2519389918315137
 40
0.3128299810523907
 40
0.374461821961125
 40
0.4371389187316502
 40
0.5013990124460121
 40
0.5660650739897577
 40
0.6282585326512411
 40
0.6898903735599754
 40
0.7502349192920111
 40
0.8112789954642327
 40
0.8729078669508784
 40
0.9351954156187309
 40
1.0
 40
1.0
 40
1.0
 40
1.0
 10
-9159.822029087414
 20
9083.55772950881
 30
0.0
 10
-9159.863881448839
 20
9083.558933005032
 30
0.0
 10
-9159.946356099039
 20
9083.561304625806
 30
0.0
 10
-9160.067490738282
 20
9083.577415858888
 30
0.0
 10
-9160.183518458998
 20
9083.606052917054
 30
0.0
 10
-9160.295233380337
 20
9083.643708473917
 30
0.0
 10
-9160.401784137
 20
9083.694331146293
 30
0.0
 10
-9160.503008943284
 20
9083.756311433794
 30
0.0
 10
-9160.599671004322
 20
9083.828765433764
 30
0.0
 10
-9160.691261852819
 20
9083.910561492487
 30
0.0
 10
-9160.773465108028
 20
9084.001359420026
 30
0.0
 10
-9160.846644272147
 20
9084.097435151236
 30
0.0
 10
-9160.908049515228
 20
9084.198277420857
 30
0.0
 10
-9160.958615978094
 20
9084.304107962096
 30
0.0
 10
-9160.99828323206
 20
9084.414532248064
 30
0.0
 10
-9161.025978606718
 20
9084.529797211362
 30
0.0
 10
-9161.042617215306
 20
9084.649656613103
 30
0.0
 10
-9161.044895897896
 20
9084.730993705436
 30
0.0
 10
-9161.046057803629
 20
9084.772467684486
 30
0.0
  0
SPLINE
  5
7E
330
1F
100
AcDbEntity
  8
0
  6
Continuous
 62
     7
370
    25
100
AcDbSpline
210
0.0
220
0.0
230
1.0
 70
     8
 71
     3
 72
    15
 73
    11
 74
     0
 42
0.000000001
 43
0.00000001
 40
0.0
 40
0.0
 40
0.0
 40
0.0
 40
0.1354286630937094
 40
0.2590269151055278
 40
0.3707042516399469
 40
0.4790471821148096
 40
0.5907245186490954
 40
0.7118555973607955
 40
0.8467799583350094
 40
1.0
 40
1.0
 40
1.0
 40
1.0
 10
-9161.046057803629
 20
9086.488895049351
 30
0.0
 10
-9161.045236163827
 20
9086.509490167118
 30
0.0
 10
-9161.043664658815
 20
9086.548881310024
 30
0.0
 10
-9161.030000566305
 20
9086.604022565081
 30
0.0
 10
-9161.006303760609
 20
9086.65106545515
 30
0.0
 10
-9160.97275900101
 20
9086.689432399593
 30
0.0
 10
-9160.929544148794
 20
9086.71887670377
 30
0.0
 10
-9160.877363267706
 20
9086.739992790845
 30
0.0
 10
-9160.815770324149
 20
9086.750754344726
 30
0.0
 10
-9160.772023021496
 20
9086.752661388928
 30
0.0
 10
-9160.748760506332
 20
9086.753675454756
 30
0.0
  0
SPLINE
  5
7F
330
1F
100
AcDbEntity
  8
0
  6
Continuous
 62
     7
370
    25
100
AcDbSpline
210
0.0
220
0.0
230
1.0
 70
     8
 71
     3
 72
    15
 73
    11
 74
     0
 42
0.000000001
 43
0.00000001
 40
0.0
 40
0.0
 40
0.0
 40
0.0
 40
0.1691382693020629
 40
0.3176902073341384
 40
0.447411035637783
 40
0.5634106106293356
 40
0.668766432627416
 40
0.7731538901271011
 40
0.8800408488352632
 40
1.0
 40
1.0
 40
1.0
 40
1.0
 10
-9160.748760506332
 20
9086.753675454756
 30
0.0
 10
-9160.719651300806
 20
9086.753363559757
 30
0.0
 10
-9160.664975859358
 20
9086.752777731446
 30
0.0
 10
-9160.58911186443
 20
9086.73929158414
 30
0.0
 10
-9160.52353705265
 20
9086.720909301905
 30
0.0
 10
-9160.470522372458
 20
9086.691237826679
 30
0.0
 10
-9160.427384078439
 20
9086.654616050833
 30
0.0
 10
-9160.398270308739
 20
9086.607852246587
 30
0.0
 10
-9160.379791855055
 20
9086.553331720084
 30
0.0
 10
-9160.37805654112
 20
9086.514222029078
 30
0.0
 10
-9160.37713888471
 20
9086.493540319621
 30
0.0
  0
SPLINE
  5
81
330
1F
100
AcDbEntity
  8
0
  6
Continuous
 62
     7
370
    25
100
AcDbSpline
210
0.0
220
0.0
230
1.0
 70
     8
 71
     3
 72
    15
 73
    11
 74
     0
 42
0.000000001
 43
0.00000001
 40
0.0
 40
0.0
 40
0.0
 40
0.0
 40
0.1435805382302058
 40
0.2773180907195186
 40
0.404787696777146
 40
0.5341163941168574
 40
0.660578233834591
 40
0.7766771723013565
 40
0.8879535422141185
 40
1.0
 40
1.0
 40
1.0
 40
1.0
 10
-9160.37713888471
 20
9084.818920387192
 30
0.0
 10
-9160.37511441049
 20
9084.771451599443
 30
0.0
 10
-9160.37120424737
 20
9084.679768187825
 30
0.0
 10
-9160.335331673969
 20
9084.549893532481
 30
0.0
 10
-9160.277394785979
 20
9084.4337868171
 30
0.0
 10
-9160.196980993553
 20
9084.335030905604
 30
0.0
 10
-9160.103433495238
 20
9084.254454944172
 30
0.0
 10
-9160.001525115294
 20
9084.196421872337
 30
0.0
 10
-9159.894682926875
 20
9084.158765392634
 30
0.0
 10
-9159.82078299088
 20
9084.154476130061
 30
0.0
 10
-9159.783705607686
 20
9084.152324103405
 30
0.0
  0
SPLINE
  5
84
330
1F
100
AcDbEntity
  8
0
  6
Continuous
 62
     7
370
    25
100
AcDbSpline
210
0.0
220
0.0
230
1.0
 70
     8
 71
     3
 72
    15
 73
    11
 74
     0
 42
0.000000001
 43
0.00000001
 40
0.0
 40
0.0
 40
0.0
 40
0.0
 40
0.1364411897143918
 40
0.2559957227679688
 40
0.3685080101433665
 40
0.4757423758332885
 40
0.5882546632087265
 40
0.7093427114891376
 40
0.8457839012035848
 40
1.0
 40
1.0
 40
1.0
 40
1.0
 10
-9158.742003749578
 20
9086.493540319621
 30
0.0
 10
-9158.741283300542
 20
9086.514165492576
 30
0.0
 10
-9158.739931568914
 20
9086.552863162015
 30
0.0
 10
-9158.72539860729
 20
9086.606918381382
 30
0.0
 10
-9158.70266217483
 20
9086.653373289073
 30
0.0
 10
-9158.66821528495
 20
9086.690471615777
 30
0.0
 10
-9158.62582514068
 20
9086.720446868232
 30
0.0
 10
-9158.572839301847
 20
9086.739210554539
 30
0.0
 10
-9158.511975021278
 20
9086.752748283465
 30
0.0
 10
-9158.468025213479
 20
9086.753354049288
 30
0.0
 10
-9158.44470645228
 20
9086.753675454756
 30
0.0
  0
SPLINE
  5
85
330
1F
100
AcDbEntity
  8
0
  6
Continuous
 62
     7
370
    25
100
AcDbSpline
210
0.0
220
0.0
230
1.0
 70
     8
 71
     3
 72
    15
 73
    11
 74
     0
 42
0.000000001
 43
0.00000001
 40
0.0
 40
0.0
 40
0.0
 40
0.0
 40
0.1678628092162475
 40
0.3148466165913094
 40
0.444186960312109
 40
0.5592403382441904
 40
0.6652318690747135
 40
0.7706563435097071
 40
0.878794047387538
 40
0.9999999999999999
 40
0.9999999999999999
 40
0.9999999999999999
 40
0.9999999999999999
 10
-9158.44470645228
 20
9086.753675454756
 30
0.0
 10
-9158.415644677123
 20
9086.752660488142
 30
0.0
 10
-9158.361135869469
 20
9086.750756797825
 30
0.0
 10
-9158.284663959435
 20
9086.740128213005
 30
0.0
 10
-9158.21976448546
 20
9086.719304784658
 30
0.0
 10
-9158.1660347095
 20
9086.690264317423
 30
0.0
 10
-9158.123305337753
 20
9086.652123447193
 30
0.0
 10
-9158.094188000588
 20
9086.604332709845
 30
0.0
 10
-9158.075751587015
 20
9086.548650955345
 30
0.0
 10
-9158.074006887726
 20
9086.508796457061
 30
0.0
 10
-9158.073084830658
 20
9086.487733731785
 30
0.0
  0
SPLINE
  5
86
330
1F
100
AcDbEntity
  8
0
  6
Continuous
 62
     7
370
    25
100
AcDbSpline
210
0.0
220
0.0
230
1.0
 70
     8
 71
     3
 72
    15
 73
    11
 74
     0
 42
0.000000001
 43
0.00000001
 40
0.0
 40
0.0
 40
0.0
 40
0.0
 40
0.122274521737696
 40
0.2336168933972232
 40
0.3380530932832837
 40
0.444557537512037
 40
0.5596238896565602
 40
0.6877517656791846
 40
0.8337107774006075
 40
1.0
 40
1.0
 40
1.0
 40
1.0
 10
-9153.271733479305
 20
9080.783341839891
 30
0.0
 10
-9153.272734568796
 20
9080.761924339018
 30
0.0
 10
-9153.274647243763
 20
9080.721004203348
 30
0.0
 10
-9153.29222273624
 20
9080.663798551304
 30
0.0
 10
-9153.322317973772
 20
9080.615410937291
 30
0.0
 10
-9153.36453826997
 20
9080.5762493366
 30
0.0
 10
-9153.418088275977
 20
9080.54566362092
 30
0.0
 10
-9153.483470063064
 20
9080.525563090658
 30
0.0
 10
-9153.559637013106
 20
9080.512873832951
 30
0.0
 10
-9153.614263510417
 20
9080.511280661985
 30
0.0
 10
-9153.643355100929
 20
9080.510432211513
 30
0.0
  0
SPLINE
  5
87
330
1F
100
AcDbEntity
  8
0
  6
Continuous
 62
     7
370
    25
100
AcDbSpline
210
0.0
220
0.0
230
1.0
 70
     8
 71
     3
 72
    15
 73
    11
 74
     0
 42
0.000000001
 43
0.00000001
 40
0.0
 40
0.0
 40
0.0
 40
0.0
 40
0.1542014472171014
 40
0.2899900261851909
 40
0.4118969741102861
 40
0.5228469369192188
 40
0.6318838259153491
 40
0.7442764785201889
 40
0.863703888754875
 40
1.0
 40
1.0
 40
1.0
 40
1.0
 10
-9153.643355100927
 20
9080.510432211513
 30
0.0
 10
-9153.666610887114
 20
9080.511456225135
 30
0.0
 10
-9153.710345535312
 20
9080.513381977082
 30
0.0
 10
-9153.77202191099
 20
9080.52402018892
 30
0.0
 10
-9153.823729574202
 20
9080.545452826826
 30
0.0
 10
-9153.867689660065
 20
9080.57338989793
 30
0.0
 10
-9153.900877690228
 20
9080.611952735595
 30
0.0
 10
-9153.92413490355
 20
9080.658258594605
 30
0.0
 10
-9153.938554026487
 20
9080.712433315837
 30
0.0
 10
-9153.939922843163
 20
9080.751113050292
 30
0.0
 10
-9153.940652398225
 20
9080.771728664216
 30
0.0
  0
SPLINE
  5
8A
330
1F
100
AcDbEntity
  8
0
  6
Continuous
 62
     7
370
    25
100
AcDbSpline
210
0.0
220
0.0
230
1.0
 70
     8
 71
     3
 72
    15
 73
    11
 74
     0
 42
0.000000001
 43
0.00000001
 40
0.0
 40
0.0
 40
0.0
 40
0.0
 40
0.1476670007643715
 40
0.2763399367290906
 40
0.3937966321050455
 40
0.504658107177428
 40
0.6133971665381682
 40
0.728417184021095
 40
0.8576739258690022
 40
1.0
 40
1.0
 40
1.0
 40
1.0
 10
-9156.420065404982
 20
9081.253675454756
 30
0.0
 10
-9156.441396906566
 20
9081.254670965802
 30
0.0
 10
-9156.481316088017
 20
9081.256533937609
 30
0.0
 10
-9156.537593647301
 20
9081.267466771773
 30
0.0
 10
-9156.585019743783
 20
9081.288818222636
 30
0.0
 10
-9156.624646700378
 20
9081.318041550707
 30
0.0
 10
-9156.654419384773
 20
9081.356888917491
 30
0.0
 10
-9156.67559690595
 20
9081.403703738977
 30
0.0
 10
-9156.688008881003
 20
9081.458601487055
 30
0.0
 10
-9156.689743402461
 20
9081.497874427516
 30
0.0
 10
-9156.690652398223
 20
9081.518455860161
 30
0.0
  0
SPLINE
  5
8C
330
1F
100
AcDbEntity
  8
0
  6
Continuous
 62
     7
370
    25
100
AcDbSpline
210
0.0
220
0.0
230
1.0
 70
     8
 71
     3
 72
    15
 73
    11
 74
     0
 42
0.000000001
 43
0.00000001
 40
0.0
 40
0.0
 40
0.0
 40
0.0
 40
0.1354286630937094
 40
0.2590269151055278
 40
0.3707042516399469
 40
0.4790471821148096
 40
0.5907245186490954
 40
0.7118555973607955
 40
0.8467799583350094
 40
1.0
 40
1.0
 40
1.0
 40
1.0
 10
-9156.690652398223
 20
9086.488895049351
 30
0.0
 10
-9156.689830758422
 20
9086.509490167118
 30
0.0
 10
-9156.68825925341
 20
9086.548881310024
 30
0.0
 10
-9156.6745951609
 20
9086.604022565081
 30
0.0
 10
-9156.650898355203
 20
9086.65106545515
 30
0.0
 10
-9156.617353595606
 20
9086.689432399593
 30
0.0
 10
-9156.57413874339
 20
9086.71887670377
 30
0.0
 10
-9156.521957862302
 20
9086.739992790845
 30
0.0
 10
-9156.460364918743
 20
9086.750754344726
 30
0.0
 10
-9156.41661761609
 20
9086.752661388928
 30
0.0
 10
-9156.393355100929
 20
9086.753675454756
 30
0.0
  0
SPLINE
  5
8D
330
1F
100
AcDbEntity
  8
0
  6
Continuous
 62
     7
370
    25
100
AcDbSpline
210
0.0
220
0.0
230
1.0
 70
     8
 71
     3
 72
    15
 73
    11
 74
     0
 42
0.000000001
 43
0.00000001
 40
0.0
 40
0.0
 40
0.0
 40
0.0
 40
0.1687372826955638
 40
0.3164867953630014
 40
0.4465009315750919
 40
0.5610794434177274
 40
0.6676231321872097
 40
0.7716984773788755
 40
0.8803995195839801
 40
1.0
 40
1.0
 40
1.0
 40
1.0
 10
-9156.393355100929
 20
9086.753675454756
 30
0.0
 10
-9156.36430071791
 20
9086.752647612835
 30
0.0
 10
-9156.309805775094
 20
9086.750719773352
 30
0.0
 10
-9156.233243361128
 20
9086.740248824342
 30
0.0
 10
-9156.168805208252
 20
9086.718987401213
 30
0.0
 10
-9156.114326027073
 20
9086.691638347642
 30
0.0
 10
-9156.072413089638
 20
9086.653323449586
 30
0.0
 10
-9156.042501683523
 20
9086.606499226778
 30
0.0
 10
-9156.024587812366
 20
9086.551300405743
 30
0.0
 10
-9156.022714731504
 20
9086.51187270304
 30
0.0
 10
-9156.021733479305
 20
9086.491217684488
 30
0.0
  0
SPLINE
  5
91
330
1F
100
AcDbEntity
  8
0
  6
Continuous
 62
     7
370
    25
100
AcDbSpline
210
0.0
220
0.0
230
1.0
 70
     8
 71
     3
 72
    15
 73
    11
 74
     0
 42
0.000000001
 43
0.00000001
 40
0.0
 40
0.0
 40
0.0
 40
0.0
 40
0.1359589957907177
 40
0.2575644184868931
 40
0.3696790785664231
 40
0.4784462751988803
 40
0.5891218138384635
 40
0.7107272365346307
 40
0.8461799553810779
 40
1.0
 40
1.0
 40
1.0
 40
1.0
 10
-9154.386598344172
 20
9086.491217684488
 30
0.0
 10
-9154.385820837957
 20
9086.511821463404
 30
0.0
 10
-9154.384347909043
 20
9086.550853822424
 30
0.0
 10
-9154.370320758102
 20
9086.605529466864
 30
0.0
 10
-9154.34680596365
 20
9086.652150621949
 30
0.0
 10
-9154.313640355891
 20
9086.690718926406
 30
0.0
 10
-9154.269674102137
 20
9086.718654493721
 30
0.0
 10
-9154.217968298342
 20
9086.740087584969
 30
0.0
 10
-9154.156291347672
 20
9086.75072565662
 30
0.0
 10
-9154.112556786686
 20
9086.75265142983
 30
0.0
 10
-9154.089301046874
 20
9086.753675454756
 30
0.0
  0
SPLINE
  5
92
330
1F
100
AcDbEntity
  8
0
  6
Continuous
 62
     7
370
    25
100
AcDbSpline
210
0.0
220
0.0
230
1.0
 70
     8
 71
     3
 72
    15
 73
    11
 74
     0
 42
0.000000001
 43
0.00000001
 40
0.0
 40
0.0
 40
0.0
 40
0.0
 40
0.1687372826955586
 40
0.3164867953631614
 40
0.4465009315750846
 40
0.5610794434178681
 40
0.6676231321872201
 40
0.7716984773788828
 40
0.8803995195839839
 40
1.0
 40
1.0
 40
1.0
 40
1.0
 10
-9154.089301046874
 20
9086.753675454756
 30
0.0
 10
-9154.06024666386
 20
9086.752647612835
 30
0.0
 10
-9154.005751721037
 20
9086.750719773352
 30
0.0
 10
-9153.929189307075
 20
9086.740248824342
 30
0.0
 10
-9153.864751154197
 20
9086.718987401213
 30
0.0
 10
-9153.810271973018
 20
9086.69163834764
 30
0.0
 10
-9153.768359035583
 20
9086.653323449586
 30
0.0
 10
-9153.738447629468
 20
9086.606499226778
 30
0.0
 10
-9153.720533758313
 20
9086.551300405743
 30
0.0
 10
-9153.71866067745
 20
9086.51187270304
 30
0.0
 10
-9153.717679425252
 20
9086.491217684488
 30
0.0
  0
SPLINE
  5
95
330
1F
100
AcDbEntity
  8
0
  6
Continuous
 62
     7
370
    25
100
AcDbSpline
210
0.0
220
0.0
230
1.0
 70
     8
 71
     3
 72
    15
 73
    11
 74
     0
 42
0.000000001
 43
0.00000001
 40
0.0
 40
0.0
 40
0.0
 40
0.0
 40
0.1656092688916272
 40
0.3131459933551812
 40
0.4407499567454584
 40
0.5572602504433168
 40
0.6633291998720175
 40
0.767338361972782
 40
0.8782254566320453
 40
1.0
 40
1.0
 40
1.0
 40
1.0
 10
-9153.645677736064
 20
9081.848270049353
 30
0.0
 10
-9153.616595515536
 20
9081.84738208563
 30
0.0
 10
-9153.561604747827
 20
9081.845703059551
 30
0.0
 10
-9153.484949775324
 20
9081.833368875954
 30
0.0
 10
-9153.419056261026
 20
9081.812701753004
 30
0.0
 10
-9153.364705403688
 20
9081.782831491835
 30
0.0
 10
-9153.322338509435
 20
9081.743254264946
 30
0.0
 10
-9153.292216919996
 20
9081.694914205547
 30
0.0
 10
-9153.27464890811
 20
9081.63769505404
 30
0.0
 10
-9153.27273514062
 20
9081.596776889935
 30
0.0
 10
-9153.271733479305
 20
9081.575360420973
 30
0.0
  0
SPLINE
  5
97
330
1F
100
AcDbEntity
  8
0
  6
Continuous
 62
     7
370
    25
100
AcDbSpline
210
0.0
220
0.0
230
1.0
 70
     8
 71
     3
 72
    15
 73
    11
 74
     0
 42
0.000000001
 43
0.00000001
 40
0.0
 40
0.0
 40
0.0
 40
0.0
 40
0.1257421127823828
 40
0.2483729038226831
 40
0.3698227131065057
 40
0.4987247648984477
 40
0.6269159236705131
 40
0.7508402192895836
 40
0.8731555254027747
 40
1.0
 40
1.0
 40
1.0
 40
1.0
 10
-9149.58524699282
 20
9083.262754846648
 30
0.0
 10
-9149.58772625942
 20
9083.306759385632
 30
0.0
 10
-9149.59262344646
 20
9083.39367962967
 30
0.0
 10
-9149.630918612827
 20
9083.518543410406
 30
0.0
 10
-9149.694620036518
 20
9083.633221702326
 30
0.0
 10
-9149.781027445255
 20
9083.734443192045
 30
0.0
 10
-9149.883578853041
 20
9083.820372485017
 30
0.0
 10
-9149.998502052536
 20
9083.884882021091
 30
0.0
 10
-9150.124992728382
 20
9083.921741090742
 30
0.0
 10
-9150.212128628673
 20
9083.926783894896
 30
0.0
 10
-9150.256488546873
 20
9083.929351130433
 30
0.0
  0
SPLINE
  5
9B
330
1F
100
AcDbEntity
  8
0
  6
Continuous
 62
     7
370
    25
100
AcDbSpline
210
0.0
220
0.0
230
1.0
 70
     8
 71
     3
 72
    15
 73
    11
 74
     0
 42
0.000000001
 43
0.00000001
 40
0.0
 40
0.0
 40
0.0
 40
0.0
 40
0.1274086638639912
 40
0.2492093999587568
 40
0.3720839042324999
 40
0.4997357737771587
 40
0.6273876433218174
 40
0.7507906000412401
 40
0.8725913361359249
 40
1.0
 40
1.0
 40
1.0
 40
1.0
 10
-9150.256488546873
 20
9081.848270049353
 30
0.0
 10
-9150.211724362249
 20
9081.850779733002
 30
0.0
 10
-9150.124166301033
 20
9081.855688635882
 30
0.0
 10
-9149.997670072837
 20
9081.892981198696
 30
0.0
 10
-9149.882158137196
 20
9081.955915781456
 30
0.0
 10
-9149.779815819678
 20
9082.041720675837
 30
0.0
 10
-9149.694271381626
 20
9082.144330526877
 30
0.0
 10
-9149.629705660978
 20
9082.259189128266
 30
0.0
 10
-9149.592745619098
 20
9082.386070760003
 30
0.0
 10
-9149.587783753657
 20
9082.473600553252
 30
0.0
 10
-9149.58524699282
 20
9082.518350285838
 30
0.0
  0
SPLINE
  5
9D
330
1F
100
AcDbEntity
  8
0
  6
Continuous
 62
     7
370
    25
100
AcDbSpline
210
0.0
220
0.0
230
1.0
 70
     8
 71
     3
 72
    23
 73
    19
 74
     0
 42
0.000000001
 43
0.00000001
 40
0.0
 40
0.0
 40
0.0
 40
0.0
 40
0.0602270928970662
 40
0.1192957320091938
 40
0.1779404947570919
 40
0.2364844162257846
 40
0.2954167439820625
 40
0.3556629103136799
 40
0.4181241147893688
 40
0.4821809927852981
 40
0.5466999757700657
 40
0.610182895038409
 40
0.6730761809147237
 40
0.7353821562771977
 40
0.7989787332068545
 40
0.864168370252195
 40
0.9306148387332315
 40
1.0
 40
1.0
 40
1.0
 40
1.0
 10
-9148.9163280739
 20
9082.499769204756
 30
0.0
 10
-9148.917455204972
 20
9082.459069579716
 30
0.0
 10
-9148.919687787018
 20
9082.378453177225
 30
0.0
 10
-9148.937210504724
 20
9082.25914588966
 30
0.0
 10
-9148.968257309065
 20
9082.144028294797
 30
0.0
 10
-9149.00812353864
 20
9082.03166183783
 30
0.0
 10
-9149.062723328201
 20
9081.924425534991
 30
0.0
 10
-9149.12784945962
 20
9081.820186204886
 30
0.0
 10
-9149.206139822694
 20
9081.720984972902
 30
0.0
 10
-9149.293572071656
 20
9081.625803641378
 30
0.0
 10
-9149.390842299981
 20
9081.539657018018
 30
0.0
 10
-9149.493987532607
 20
9081.461831137885
 30
0.0
 10
-9149.604927003445
 20
9081.398416478884
 30
0.0
 10
-9149.721182226076
 20
9081.345614510872
 30
0.0
 10
-9149.843398219622
 20
9081.30311955674
 30
0.0
 10
-9149.972490500995
 20
9081.275002480857
 30
0.0
 10
-9150.107317493477
 20
9081.25675124542
 30
0.0
 10
-9150.199134806671
 20
9081.254715400026
 30
0.0
 10
-9150.246036688764
 20
9081.253675454756
 30
0.0
  0
SPLINE
  5
9F
330
1F
100
AcDbEntity
  8
0
  6
Continuous
 62
     7
370
    25
100
AcDbSpline
210
0.0
220
0.0
230
1.0
 70
     8
 71
     3
 72
    15
 73
    11
 74
     0
 42
0.000000001
 43
0.00000001
 40
0.0
 40
0.0
 40
0.0
 40
0.0
 40
0.1472985846904026
 40
0.2756504930887137
 40
0.3928141444240382
 40
0.5033990299456805
 40
0.6118667949946965
 40
0.7290304463298347
 40
0.855365350699501
 40
1.0
 40
1.0
 40
1.0
 40
1.0
 10
-9151.618714053631
 20
9081.253675454756
 30
0.0
 10
-9151.64004589578
 20
9081.2546708228
 30
0.0
 10
-9151.679965714562
 20
9081.256533526994
 30
0.0
 10
-9151.736239083208
 20
9081.267468120792
 30
0.0
 10
-9151.78367906409
 20
9081.288813741641
 30
0.0
 10
-9151.82325817108
 20
9081.318057161609
 30
0.0
 10
-9151.853425526206
 20
9081.357112725093
 30
0.0
 10
-9151.873749130296
 20
9081.404276120591
 30
0.0
 10
-9151.886947390998
 20
9081.459303105034
 30
0.0
 10
-9151.888481949789
 20
9081.498627243822
 30
0.0
 10
-9151.889301046873
 20
9081.519617177732
 30
0.0
  0
SPLINE
  5
A1
330
1F
100
AcDbEntity
  8
0
  6
Continuous
 62
     7
370
    25
100
AcDbSpline
210
0.0
220
0.0
230
1.0
 70
     8
 71
     3
 72
    15
 73
    11
 74
     0
 42
0.000000001
 43
0.00000001
 40
0.0
 40
0.0
 40
0.0
 40
0.0
 40
0.1376465333874761
 40
0.2584939900653877
 40
0.3721777144534434
 40
0.4802669656692677
 40
0.5916828156085424
 40
0.7125302722863969
 40
0.8471387149836347
 40
1.0
 40
1.0
 40
1.0
 40
1.0
 10
-9151.889301046873
 20
9086.487733731785
 30
0.0
 10
-9151.888575808867
 20
9086.50874077399
 30
0.0
 10
-9151.887213844555
 20
9086.548191053089
 30
0.0
 10
-9151.872713139775
 20
9086.603417283219
 30
0.0
 10
-9151.849932872756
 20
9086.65087484783
 30
0.0
 10
-9151.815960062175
 20
9086.689412839152
 30
0.0
 10
-9151.772799871254
 20
9086.718882490564
 30
0.0
 10
-9151.720602646192
 20
9086.739990998703
 30
0.0
 10
-9151.659014737006
 20
9086.750754887094
 30
0.0
 10
-9151.615266670773
 20
9086.752661577213
 30
0.0
 10
-9151.592003749576
 20
9086.753675454756
 30
0.0
  0
SPLINE
  5
A2
330
1F
100
AcDbEntity
  8
0
  6
Continuous
 62
     7
370
    25
100
AcDbSpline
210
0.0
220
0.0
230
1.0
 70
     8
 71
     3
 72
    15
 73
    11
 74
     0
 42
0.000000001
 43
0.00000001
 40
0.0
 40
0.0
 40
0.0
 40
0.0
 40
0.1691382693020629
 40
0.3176902073341384
 40
0.447411035637783
 40
0.5634106106293356
 40
0.668766432627416
 40
0.7731538901271011
 40
0.8800408488352632
 40
1.0
 40
1.0
 40
1.0
 40
1.0
 10
-9151.592003749576
 20
9086.753675454756
 30
0.0
 10
-9151.562894544048
 20
9086.753363559757
 30
0.0
 10
-9151.508219102601
 20
9086.752777731446
 30
0.0
 10
-9151.432355107674
 20
9086.73929158414
 30
0.0
 10
-9151.366780295893
 20
9086.720909301905
 30
0.0
 10
-9151.313765615703
 20
9086.691237826679
 30
0.0
 10
-9151.270627321683
 20
9086.654616050833
 30
0.0
 10
-9151.24151355198
 20
9086.607852246587
 30
0.0
 10
-9151.223035098299
 20
9086.553331720084
 30
0.0
 10
-9151.221299784364
 20
9086.514222029078
 30
0.0
 10
-9151.220382127955
 20
9086.493540319621
 30
0.0
  0
SPLINE
  5
A5
330
1F
100
AcDbEntity
  8
0
  6
Continuous
 62
     7
370
    25
100
AcDbSpline
210
0.0
220
0.0
230
1.0
 70
     8
 71
     3
 72
    23
 73
    19
 74
     0
 42
0.000000001
 43
0.00000001
 40
0.0
 40
0.0
 40
0.0
 40
0.0
 40
0.0685531417639142
 40
0.1347179803294506
 40
0.1991962546843621
 40
0.2623387307752041
 40
0.3251763369186071
 40
0.3873915998287902
 40
0.4512397782103554
 40
0.5161347178015742
 40
0.5810659883891637
 40
0.6431755650826949
 40
0.7039028057300939
 40
0.7628279826377351
 40
0.8215928497892047
 40
0.8802974879193004
 40
0.9395647256157532
 40
1.0
 40
1.0
 40
1.0
 40
1.0
 10
-9150.219326384713
 20
9084.523945725028
 30
0.0
 10
-9150.173599876813
 20
9084.522835551938
 30
0.0
 10
-9150.083739913674
 20
9084.520653882759
 30
0.0
 10
-9149.951694031826
 20
9084.503289161223
 30
0.0
 10
-9149.826045425203
 20
9084.47238526029
 30
0.0
 10
-9149.705246011292
 20
9084.432382129242
 30
0.0
 10
-9149.591658285051
 20
9084.378350038305
 30
0.0
 10
-9149.483221805445
 20
9084.313867375986
 30
0.0
 10
-9149.381157671896
 20
9084.237246234965
 30
0.0
 10
-9149.286575481634
 20
9084.148970525528
 30
0.0
 10
-9149.20086849998
 20
9084.053746422116
 30
0.0
 10
-9149.124051839719
 20
9083.95460939158
 30
0.0
 10
-9149.060567107217
 20
9083.85110729827
 30
0.0
 10
-9149.007252679243
 20
9083.7445260979
 30
0.0
 10
-9148.96667211849
 20
9083.633831809631
 30
0.0
 10
-9148.937610558987
 20
9083.519442761335
 30
0.0
 10
-9148.919581024917
 20
9083.401524408033
 30
0.0
 10
-9148.917419421758
 20
9083.321658527044
 30
0.0
 10
-9148.9163280739
 20
9083.28133592773
 30
0.0
  0
SPLINE
  5
A7
330
1F
100
AcDbEntity
  8
0
  6
Continuous
 62
     7
370
    25
100
AcDbSpline
210
0.0
220
0.0
230
1.0
 70
     8
 71
     3
 72
    15
 73
    11
 74
     0
 42
0.000000001
 43
0.00000001
 40
0.0
 40
0.0
 40
0.0
 40
0.0
 40
0.1212059526124676
 40
0.2293436564903036
 40
0.3347681309251571
 40
0.4407596617558006
 40
0.5558130396878873
 40
0.6851533834086929
 40
0.8321371907837356
 40
1.0
 40
1.0
 40
1.0
 40
1.0
 10
-9162.502814560386
 20
9081.519617177732
 30
0.0
 10
-9162.503736617457
 20
9081.498554452453
 30
0.0
 10
-9162.505481316746
 20
9081.458699954168
 30
0.0
 10
-9162.523917730317
 20
9081.40301819967
 30
0.0
 10
-9162.553035067484
 20
9081.355227462323
 30
0.0
 10
-9162.59576443923
 20
9081.317086592091
 30
0.0
 10
-9162.649494215191
 20
9081.288046124855
 30
0.0
 10
-9162.714393689166
 20
9081.26722269651
 30
0.0
 10
-9162.790865599201
 20
9081.25659411169
 30
0.0
 10
-9162.845374406856
 20
9081.254690421372
 30
0.0
 10
-9162.874436182008
 20
9081.253675454756
 30
0.0
  0
SPLINE
  5
A8
330
1F
100
AcDbEntity
  8
0
  6
Continuous
 62
     7
370
    25
100
AcDbSpline
210
0.0
220
0.0
230
1.0
 70
     8
 71
     3
 72
    15
 73
    11
 74
     0
 42
0.000000001
 43
0.00000001
 40
0.0
 40
0.0
 40
0.0
 40
0.0
 40
0.1538927873090715
 40
0.2894095627950413
 40
0.4110724936371982
 40
0.5232401736076294
 40
0.6301460973349005
 40
0.7423137773054655
 40
0.8639767081476308
 40
1.0
 40
1.0
 40
1.0
 40
1.0
 10
-9162.874436182008
 20
9081.253675454756
 30
0.0
 10
-9162.897700692958
 20
9081.254687796394
 30
0.0
 10
-9162.941451748877
 20
9081.2565915981
 30
0.0
 10
-9163.003019946786
 20
9081.267374530094
 30
0.0
 10
-9163.055281164068
 20
9081.288421213592
 30
0.0
 10
-9163.09798760665
 20
9081.317931975873
 30
0.0
 10
-9163.13236396351
 20
9081.355173022122
 30
0.0
 10
-9163.155369346594
 20
9081.401906774838
 30
0.0
 10
-9163.169508502724
 20
9081.45647198579
 30
0.0
 10
-9163.170964768802
 20
9081.495520773824
 30
0.0
 10
-9163.171733479307
 20
9081.516133225028
 30
0.0
  0
SPLINE
  5
AC
330
1F
100
AcDbEntity
  8
0
  6
Continuous
 62
     7
370
    25
100
AcDbSpline
210
0.0
220
0.0
230
1.0
 70
     8
 71
     3
 72
    11
 73
     7
 74
     0
 42
0.000000001
 43
0.00000001
 40
0.0
 40
0.0
 40
0.0
 40
0.0
 40
0.2301959670042968
 40
0.4560600787793769
 40
0.7031878330326753
 40
1.0
 40
1.0
 40
1.0
 40
1.0
 10
-9165.271395641468
 20
9081.440647583135
 30
0.0
 10
-9165.283276532056
 20
9081.412186018559
 30
0.0
 10
-9165.306814737212
 20
9081.355798482531
 30
0.0
 10
-9165.380416768812
 20
9081.293623464613
 30
0.0
 10
-9165.477895437622
 20
9081.258565803351
 30
0.0
 10
-9165.550162580606
 20
9081.255401902998
 30
0.0
 10
-9165.589596654982
 20
9081.253675454756
 30
0.0
  0
SPLINE
  5
AD
330
1F
100
AcDbEntity
  8
0
  6
Continuous
 62
     7
370
    25
100
AcDbSpline
210
0.0
220
0.0
230
1.0
 70
     8
 71
     3
 72
    15
 73
    11
 74
     0
 42
0.000000001
 43
0.00000001
 40
0.0
 40
0.0
 40
0.0
 40
0.0
 40
0.149063505190345
 40
0.2818442409440826
 40
0.40073152707136
 40
0.5112289549476309
 40
0.6207008624670595
 40
0.7358837692992295
 40
0.8588803628870318
 40
1.0
 40
1.0
 40
1.0
 40
1.0
 10
-9165.589596654982
 20
9081.253675454756
 30
0.0
 10
-9165.611300269213
 20
9081.25472065507
 30
0.0
 10
-9165.652336729954
 20
9081.256696884519
 30
0.0
 10
-9165.71029146358
 20
9081.267180372904
 30
0.0
 10
-9165.75870989742
 20
9081.289010835117
 30
0.0
 10
-9165.800258682628
 20
9081.316701246771
 30
0.0
 10
-9165.830782911582
 20
9081.355707383489
 30
0.0
 10
-9165.853095399923
 20
9081.401568820338
 30
0.0
 10
-9165.865857563887
 20
9081.45585921135
 30
0.0
 10
-9165.86745783317
 20
9081.49438645862
 30
0.0
 10
-9165.868312871196
 20
9081.51497190746
 30
0.0
  0
SPLINE
  5
AE
330
1F
100
AcDbEntity
  8
0
  6
Continuous
 62
     7
370
    25
100
AcDbSpline
210
0.0
220
0.0
230
1.0
 70
     8
 71
     3
 72
     9
 73
     5
 74
     0
 42
0.000000001
 43
0.00000001
 40
0.0
 40
0.0
 40
0.0
 40
0.0
 40
0.4957413518332841
 40
0.9999999999999999
 40
0.9999999999999999
 40
0.9999999999999999
 40
0.9999999999999999
 10
-9165.868312871196
 20
9081.51497190746
 30
0.0
 10
-9165.867135290915
 20
9081.529354790118
 30
0.0
 10
-9165.864759898428
 20
9081.5583676667
 30
0.0
 10
-9165.857857602701
 20
9081.586648535029
 30
0.0
 10
-9165.854377060388
 20
9081.60090940746
 30
0.0
  0
SPLINE
  5
B0
330
1F
100
AcDbEntity
  8
0
  6
Continuous
 62
     7
370
    25
100
AcDbSpline
210
0.0
220
0.0
230
1.0
 70
     8
 71
     3
 72
    11
 73
     7
 74
     0
 42
0.000000001
 43
0.00000001
 40
0.0
 40
0.0
 40
0.0
 40
0.0
 40
0.2624685167007787
 40
0.499999116949376
 40
0.7366564399761396
 40
1.0
 40
1.0
 40
1.0
 40
1.0
 10
-9164.312147330656
 20
9086.566703326378
 30
0.0
 10
-9164.301107356863
 20
9086.59477358606
 30
0.0
 10
-9164.280076350107
 20
9086.648247066343
 30
0.0
 10
-9164.221269562706
 20
9086.711425981535
 30
0.0
 10
-9164.143058063715
 20
9086.748161658252
 30
0.0
 10
-9164.085703830691
 20
9086.751773269165
 30
0.0
 10
-9164.055496148227
 20
9086.753675454756
 30
0.0
  0
SPLINE
  5
B2
330
1F
100
AcDbEntity
  8
0
  6
Continuous
 62
     7
370
    25
100
AcDbSpline
210
0.0
220
0.0
230
1.0
 70
     8
 71
     3
 72
    15
 73
    11
 74
     0
 42
0.000000001
 43
0.00000001
 40
0.0
 40
0.0
 40
0.0
 40
0.0
 40
0.1678628092162475
 40
0.3148466165913094
 40
0.444186960312109
 40
0.5592403382441904
 40
0.6652318690747135
 40
0.7706563435097071
 40
0.878794047387538
 40
0.9999999999999999
 40
0.9999999999999999
 40
0.9999999999999999
 40
0.9999999999999999
 10
-9162.874436182008
 20
9086.753675454756
 30
0.0
 10
-9162.845374406856
 20
9086.752660488142
 30
0.0
 10
-9162.790865599201
 20
9086.750756797825
 30
0.0
 10
-9162.714393689166
 20
9086.740128213005
 30
0.0
 10
-9162.649494215191
 20
9086.719304784658
 30
0.0
 10
-9162.59576443923
 20
9086.690264317423
 30
0.0
 10
-9162.553035067484
 20
9086.652123447193
 30
0.0
 10
-9162.523917730317
 20
9086.604332709845
 30
0.0
 10
-9162.505481316746
 20
9086.548650955345
 30
0.0
 10
-9162.503736617457
 20
9086.508796457061
 30
0.0
 10
-9162.502814560386
 20
9086.487733731785
 30
0.0
  0
SPLINE
  5
B5
330
1F
100
AcDbEntity
  8
0
  6
Continuous
 62
     7
370
    25
100
AcDbSpline
210
0.0
220
0.0
230
1.0
 70
     8
 71
     3
 72
    15
 73
    11
 74
     0
 42
0.000000001
 43
0.00000001
 40
0.0
 40
0.0
 40
0.0
 40
0.0
 40
0.1226177230355958
 40
0.2354791129025451
 40
0.3397384650543734
 40
0.447633442326763
 40
0.5611761921816232
 40
0.6903366021262564
 40
0.8354274431760843
 40
1.0
 40
1.0
 40
1.0
 40
1.0
 10
-9144.55395476309
 20
9081.513810589891
 30
0.0
 10
-9144.555074516069
 20
9081.493573163705
 30
0.0
 10
-9144.557224926564
 20
9081.454708544074
 30
0.0
 10
-9144.573349598062
 20
9081.400359196527
 30
0.0
 10
-9144.601306731818
 20
9081.354006969605
 30
0.0
 10
-9144.64035842765
 20
9081.316113355377
 30
0.0
 10
-9144.691547845816
 20
9081.288252305894
 30
0.0
 10
-9144.752266222957
 20
9081.267248994658
 30
0.0
 10
-9144.824188374572
 20
9081.256626588582
 30
0.0
 10
-9144.875225847803
 20
9081.254699577103
 30
0.0
 10
-9144.90235003336
 20
9081.253675454756
 30
0.0
  0
SPLINE
  5
B6
330
1F
100
AcDbEntity
  8
0
  6
Continuous
 62
     7
370
    25
100
AcDbSpline
210
0.0
220
0.0
230
1.0
 70
     8
 71
     3
 72
    11
 73
     7
 74
     0
 42
0.000000001
 43
0.00000001
 40
0.0
 40
0.0
 40
0.0
 40
0.0
 40
0.2028584217293738
 40
0.4177658904102491
 40
0.6762772160276
 40
1.0
 40
1.0
 40
1.0
 40
1.0
 10
-9144.90235003336
 20
9081.253675454756
 30
0.0
 10
-9144.927921142666
 20
9081.25695781323
 30
0.0
 10
-9144.98058219147
 20
9081.263717490243
 30
0.0
 10
-9145.0494279346
 20
9081.31867723113
 30
0.0
 10
-9145.103769609757
 20
9081.40318668006
 30
0.0
 10
-9145.128070263154
 20
9081.47204264659
 30
0.0
 10
-9145.141581452279
 20
9081.51032663719
 30
0.0
  0
SPLINE
  5
B9
330
1F
100
AcDbEntity
  8
0
  6
Continuous
 62
     7
370
    25
100
AcDbSpline
210
0.0
220
0.0
230
1.0
 70
     8
 71
     3
 72
    15
 73
    11
 74
     0
 42
0.000000001
 43
0.00000001
 40
0.0
 40
0.0
 40
0.0
 40
0.0
 40
0.1208158510018252
 40
0.230725720451975
 40
0.3358108859966774
 40
0.4414612828648464
 40
0.5572426563437533
 40
0.6861667178993732
 40
0.8326774575844231
 40
1.0
 40
1.0
 40
1.0
 40
1.0
 10
-9146.864976722549
 20
9081.521939812865
 30
0.0
 10
-9146.865952810116
 20
9081.500891655649
 30
0.0
 10
-9146.867816874348
 20
9081.460695346987
 30
0.0
 10
-9146.885808508972
 20
9081.404491573827
 30
0.0
 10
-9146.91517741957
 20
9081.356319566215
 30
0.0
 10
-9146.958233892401
 20
9081.318416233113
 30
0.0
 10
-9147.011274212287
 20
9081.287751308462
 30
0.0
 10
-9147.076619662506
 20
9081.267335772327
 30
0.0
 10
-9147.153008173025
 20
9081.25655940042
 30
0.0
 10
-9147.207529757148
 20
9081.254678350484
 30
0.0
 10
-9147.23659834417
 20
9081.253675454756
 30
0.0
  0
SPLINE
  5
BA
330
1F
100
AcDbEntity
  8
0
  6
Continuous
 62
     7
370
    25
100
AcDbSpline
210
0.0
220
0.0
230
1.0
 70
     8
 71
     3
 72
    15
 73
    11
 74
     0
 42
0.000000001
 43
0.00000001
 40
0.0
 40
0.0
 40
0.0
 40
0.0
 40
0.1528612850163862
 40
0.2874697277135941
 40
0.4083171843914547
 40
0.5197330343307351
 40
0.6278222855467114
 40
0.741506009934599
 40
0.8623534666125168
 40
1.0
 40
1.0
 40
1.0
 40
1.0
 10
-9147.23659834417
 20
9081.253675454756
 30
0.0
 10
-9147.259861265367
 20
9081.254689332303
 30
0.0
 10
-9147.3036093316
 20
9081.25659602242
 30
0.0
 10
-9147.365197240786
 20
9081.267359910811
 30
0.0
 10
-9147.417394465849
 20
9081.288468418948
 30
0.0
 10
-9147.46055465677
 20
9081.31793807036
 30
0.0
 10
-9147.49452746735
 20
9081.356476061685
 30
0.0
 10
-9147.51730773437
 20
9081.403933626296
 30
0.0
 10
-9147.53180843915
 20
9081.459159856426
 30
0.0
 10
-9147.533170403462
 20
9081.498610135524
 30
0.0
 10
-9147.533895641467
 20
9081.519617177732
 30
0.0
  0
SPLINE
  5
BC
330
1F
100
AcDbEntity
  8
0
  6
Continuous
 62
     7
370
    25
100
AcDbSpline
210
0.0
220
0.0
230
1.0
 70
     8
 71
     3
 72
    15
 73
    11
 74
     0
 42
0.000000001
 43
0.00000001
 40
0.0
 40
0.0
 40
0.0
 40
0.0
 40
0.1376465333874761
 40
0.2584939900653877
 40
0.3721777144534434
 40
0.4802669656692677
 40
0.5916828156085424
 40
0.7125302722863969
 40
0.8471387149836347
 40
1.0
 40
1.0
 40
1.0
 40
1.0
 10
-9147.533895641467
 20
9086.487733731785
 30
0.0
 10
-9147.533170403462
 20
9086.50874077399
 30
0.0
 10
-9147.53180843915
 20
9086.548191053089
 30
0.0
 10
-9147.51730773437
 20
9086.603417283219
 30
0.0
 10
-9147.49452746735
 20
9086.65087484783
 30
0.0
 10
-9147.46055465677
 20
9086.689412839152
 30
0.0
 10
-9147.417394465849
 20
9086.718882490564
 30
0.0
 10
-9147.365197240786
 20
9086.739990998703
 30
0.0
 10
-9147.3036093316
 20
9086.750754887094
 30
0.0
 10
-9147.259861265367
 20
9086.752661577213
 30
0.0
 10
-9147.23659834417
 20
9086.753675454756
 30
0.0
  0
SPLINE
  5
BD
330
1F
100
AcDbEntity
  8
0
  6
Continuous
 62
     7
370
    25
100
AcDbSpline
210
0.0
220
0.0
230
1.0
 70
     8
 71
     3
 72
    15
 73
    11
 74
     0
 42
0.000000001
 43
0.00000001
 40
0.0
 40
0.0
 40
0.0
 40
0.0
 40
0.1687372826955638
 40
0.3164867953630014
 40
0.4465009315750919
 40
0.5610794434177274
 40
0.6676231321872097
 40
0.7716984773788755
 40
0.8803995195839801
 40
1.0
 40
1.0
 40
1.0
 40
1.0
 10
-9147.23659834417
 20
9086.753675454756
 30
0.0
 10
-9147.207543961154
 20
9086.752647612835
 30
0.0
 10
-9147.153049018334
 20
9086.750719773352
 30
0.0
 10
-9147.076486604374
 20
9086.740248824342
 30
0.0
 10
-9147.012048451494
 20
9086.718987401213
 30
0.0
 10
-9146.957569270317
 20
9086.691638347642
 30
0.0
 10
-9146.91565633288
 20
9086.653323449586
 30
0.0
 10
-9146.885744926765
 20
9086.606499226778
 30
0.0
 10
-9146.867831055608
 20
9086.551300405743
 30
0.0
 10
-9146.865957974747
 20
9086.51187270304
 30
0.0
 10
-9146.864976722549
 20
9086.491217684488
 30
0.0
  0
SPLINE
  5
C0
330
1F
100
AcDbEntity
  8
0
  6
Continuous
 62
     7
370
    25
100
AcDbSpline
210
0.0
220
0.0
230
1.0
 70
     8
 71
     3
 72
    11
 73
     7
 74
     0
 42
0.000000001
 43
0.00000001
 40
0.0
 40
0.0
 40
0.0
 40
0.0
 40
0.2608513162076729
 40
0.507890585994898
 40
0.7467957379980111
 40
1.0
 40
1.0
 40
1.0
 40
1.0
 10
-9145.110225877956
 20
9086.715351975028
 30
0.0
 10
-9145.09661819585
 20
9086.732314293271
 30
0.0
 10
-9145.070123356803
 20
9086.765340777005
 30
0.0
 10
-9145.019205014076
 20
9086.802131824305
 30
0.0
 10
-9144.960980662814
 20
9086.824394966572
 30
0.0
 10
-9144.919968171549
 20
9086.826775121706
 30
0.0
 10
-9144.898866080657
 20
9086.82799977908
 30
0.0
  0
SPLINE
  5
C1
330
1F
100
AcDbEntity
  8
0
  6
Continuous
 62
     7
370
    25
100
AcDbSpline
210
0.0
220
0.0
230
1.0
 70
     8
 71
     3
 72
    15
 73
    11
 74
     0
 42
0.000000001
 43
0.00000001
 40
0.0
 40
0.0
 40
0.0
 40
0.0
 40
0.1540252339659229
 40
0.2977651209542289
 40
0.4351151610674172
 40
0.571898200658287
 40
0.7010171099184875
 40
0.8114907083375722
 40
0.9104177519506843
 40
1.0
 40
1.0
 40
1.0
 40
1.0
 10
-9144.898866080657
 20
9086.82799977908
 30
0.0
 10
-9144.874000923577
 20
9086.826932733895
 30
0.0
 10
-9144.825931030648
 20
9086.824869897626
 30
0.0
 10
-9144.75716875936
 20
9086.807626438125
 30
0.0
 10
-9144.69696634646
 20
9086.776286361273
 30
0.0
 10
-9144.645160713826
 20
9086.73628828943
 30
0.0
 10
-9144.604953160175
 20
9086.690424088478
 30
0.0
 10
-9144.573314599944
 20
9086.645905326504
 30
0.0
 10
-9144.552869651026
 20
9086.601268651682
 30
0.0
 10
-9144.550456334524
 20
9086.570752953987
 30
0.0
 10
-9144.54930949282
 20
9086.55625146827
 30
0.0
  0
SPLINE
  5
C2
330
1F
100
AcDbEntity
  8
0
  6
Continuous
 62
     7
370
    25
100
AcDbSpline
210
0.0
220
0.0
230
1.0
 70
     8
 71
     3
 72
     9
 73
     5
 74
     0
 42
0.000000001
 43
0.00000001
 40
0.0
 40
0.0
 40
0.0
 40
0.0
 40
0.4684792731677068
 40
1.0
 40
1.0
 40
1.0
 40
1.0
 10
-9144.54930949282
 20
9086.55625146827
 30
0.0
 10
-9144.5519276988
 20
9086.533573419634
 30
0.0
 10
-9144.557516432666
 20
9086.485165624596
 30
0.0
 10
-9144.585521951869
 20
9086.445137201896
 30
0.0
 10
-9144.600407465794
 20
9086.423861265568
 30
0.0
  0
SPLINE
  5
C5
330
1F
100
AcDbEntity
  8
0
  6
Continuous
 62
     7
370
    25
100
AcDbSpline
210
0.0
220
0.0
230
1.0
 70
     8
 71
     3
 72
     9
 73
     5
 74
     0
 42
0.000000001
 43
0.00000001
 40
0.0
 40
0.0
 40
0.0
 40
0.0
 40
0.5715244711947484
 40
1.0
 40
1.0
 40
1.0
 40
1.0
 10
-9144.58647165498
 20
9081.632264981783
 30
0.0
 10
-9144.577052266994
 20
9081.610534408357
 30
0.0
 10
-9144.560571103957
 20
9081.572512285908
 30
0.0
 10
-9144.555939354423
 20
9081.531418340068
 30
0.0
 10
-9144.55395476309
 20
9081.513810589891
 30
0.0
  0
CIRCLE
  5
C6
330
1F
100
AcDbEntity
  8
0
  6
Continuous
 62
     7
370
    25
100
AcDbCircle
 10
-9151.770352121
 20
9077.4399636828
 30
0.0
 40
1.5
  0
CIRCLE
  5
C7
330
1F
100
AcDbEntity
  8
0
  6
Continuous
 62
     7
370
    25
100
AcDbCircle
 10
-9151.770352121
 20
9077.4399636828
 30
0.0
 40
0.749999999998181
  0
LINE
  5
180
330
1F
100
AcDbEntity
  8
0
  6
Continuous
 62
     7
370
    25
100
AcDbLine
 10
-9158.0730848307
 20
9086.4877337318
 30
0.0
 11
-9158.0730848307
 21
9082.4742202183
 31
0.0
  0
LINE
  5
181
330
1F
100
AcDbEntity
  8
0
  6
Continuous
 62
     7
370
    25
100
AcDbLine
 10
-9159.3760831415
 20
9081.2536754548
 30
0.0
 11
-9160.3341701347
 21
9081.2536754548
 31
0.0
  0
LINE
  5
182
330
1F
100
AcDbEntity
  8
0
  6
Continuous
 62
     7
370
    25
100
AcDbLine
 10
-9160.3399767225
 20
9081.8482700494
 30
0.0
 11
-9159.4132453036
 21
9081.8482700494
 31
0.0
  0
LINE
  5
183
330
1F
100
AcDbEntity
  8
0
  6
Continuous
 62
     7
370
    25
100
AcDbLine
 10
-9158.7420037496
 20
9082.5160276507
 30
0.0
 11
-9158.7420037496
 21
9083.5577295088
 31
0.0
  0
LINE
  5
184
330
1F
100
AcDbEntity
  8
0
  6
Continuous
 62
     7
370
    25
100
AcDbLine
 10
-9158.7420037496
 20
9083.5577295088
 30
0.0
 11
-9159.8220290874
 21
9083.5577295088
 31
0.0
  0
LINE
  5
185
330
1F
100
AcDbEntity
  8
0
  6
Continuous
 62
     7
370
    25
100
AcDbLine
 10
-9161.0460578036
 20
9084.7724676845
 30
0.0
 11
-9161.0460578036
 21
9086.4888950494
 31
0.0
  0
LINE
  5
186
330
1F
100
AcDbEntity
  8
0
  6
Continuous
 62
     7
370
    25
100
AcDbLine
 10
-9160.3771388847
 20
9086.4935403196
 30
0.0
 11
-9160.3771388847
 21
9084.8189203872
 31
0.0
  0
LINE
  5
187
330
1F
100
AcDbEntity
  8
0
  6
Continuous
 62
     7
370
    25
100
AcDbLine
 10
-9159.7837056077
 20
9084.1523241034
 30
0.0
 11
-9158.7420037496
 21
9084.1523241034
 31
0.0
  0
LINE
  5
188
330
1F
100
AcDbEntity
  8
0
  6
Continuous
 62
     7
370
    25
100
AcDbLine
 10
-9158.7420037496
 20
9084.1523241034
 30
0.0
 11
-9158.7420037496
 21
9086.4935403196
 31
0.0
  0
LINE
  5
189
330
1F
100
AcDbEntity
  8
0
  6
Continuous
 62
     7
370
    25
100
AcDbLine
 10
-9153.9406523982
 20
9080.7717286642
 30
0.0
 11
-9153.9406523982
 21
9081.2536754548
 31
0.0
  0
LINE
  5
18A
330
1F
100
AcDbEntity
  8
0
  6
Continuous
 62
     7
370
    25
100
AcDbLine
 10
-9153.9406523982
 20
9081.2536754548
 30
0.0
 11
-9156.420065405
 21
9081.2536754548
 31
0.0
  0
LINE
  5
18B
330
1F
100
AcDbEntity
  8
0
  6
Continuous
 62
     7
370
    25
100
AcDbLine
 10
-9156.6906523982
 20
9081.5184558602
 30
0.0
 11
-9156.6906523982
 21
9086.4888950494
 31
0.0
  0
LINE
  5
18C
330
1F
100
AcDbEntity
  8
0
  6
Continuous
 62
     7
370
    25
100
AcDbLine
 10
-9156.0217334793
 20
9086.4912176845
 30
0.0
 11
-9156.0217334793
 21
9081.8482700494
 31
0.0
  0
LINE
  5
18D
330
1F
100
AcDbEntity
  8
0
  6
Continuous
 62
     7
370
    25
100
AcDbLine
 10
-9156.0217334793
 20
9081.8482700494
 30
0.0
 11
-9154.3865983442
 21
9081.8482700494
 31
0.0
  0
LINE
  5
18E
330
1F
100
AcDbEntity
  8
0
  6
Continuous
 62
     7
370
    25
100
AcDbLine
 10
-9154.3865983442
 20
9081.8482700494
 30
0.0
 11
-9154.3865983442
 21
9086.4912176845
 31
0.0
  0
LINE
  5
18F
330
1F
100
AcDbEntity
  8
0
  6
Continuous
 62
     7
370
    25
100
AcDbLine
 10
-9153.7176794253
 20
9086.4912176845
 30
0.0
 11
-9153.7176794253
 21
9081.8482700494
 31
0.0
  0
LINE
  5
190
330
1F
100
AcDbEntity
  8
0
  6
Continuous
 62
     7
370
    25
100
AcDbLine
 10
-9153.7176794253
 20
9081.8482700494
 30
0.0
 11
-9153.6456777361
 21
9081.8482700494
 31
0.0
  0
LINE
  5
191
330
1F
100
AcDbEntity
  8
0
  6
Continuous
 62
     7
370
    25
100
AcDbLine
 10
-9153.2717334793
 20
9081.575360421
 30
0.0
 11
-9153.2717334793
 21
9080.7833418399
 31
0.0
  0
LINE
  5
192
330
1F
100
AcDbEntity
  8
0
  6
Continuous
 62
     7
370
    25
100
AcDbLine
 10
-9150.2564885469
 20
9083.9293511304
 30
0.0
 11
-9151.220382128
 21
9083.9293511304
 31
0.0
  0
LINE
  5
193
330
1F
100
AcDbEntity
  8
0
  6
Continuous
 62
     7
370
    25
100
AcDbLine
 10
-9151.220382128
 20
9083.9293511304
 30
0.0
 11
-9151.220382128
 21
9081.8482700494
 31
0.0
  0
LINE
  5
194
330
1F
100
AcDbEntity
  8
0
  6
Continuous
 62
     7
370
    25
100
AcDbLine
 10
-9151.220382128
 20
9081.8482700494
 30
0.0
 11
-9150.2564885469
 21
9081.8482700494
 31
0.0
  0
LINE
  5
195
330
1F
100
AcDbEntity
  8
0
  6
Continuous
 62
     7
370
    25
100
AcDbLine
 10
-9149.5852469928
 20
9082.5183502858
 30
0.0
 11
-9149.5852469928
 21
9083.2627548466
 31
0.0
  0
LINE
  5
196
330
1F
100
AcDbEntity
  8
0
  6
Continuous
 62
     7
370
    25
100
AcDbLine
 10
-9150.2460366888
 20
9081.2536754548
 30
0.0
 11
-9151.6187140536
 21
9081.2536754548
 31
0.0
  0
LINE
  5
197
330
1F
100
AcDbEntity
  8
0
  6
Continuous
 62
     7
370
    25
100
AcDbLine
 10
-9151.8893010469
 20
9081.5196171777
 30
0.0
 11
-9151.8893010469
 21
9086.4877337318
 31
0.0
  0
LINE
  5
198
330
1F
100
AcDbEntity
  8
0
  6
Continuous
 62
     7
370
    25
100
AcDbLine
 10
-9151.220382128
 20
9086.4935403196
 30
0.0
 11
-9151.220382128
 21
9084.523945725
 31
0.0
  0
LINE
  5
199
330
1F
100
AcDbEntity
  8
0
  6
Continuous
 62
     7
370
    25
100
AcDbLine
 10
-9151.220382128
 20
9084.523945725
 30
0.0
 11
-9150.2193263847
 21
9084.523945725
 31
0.0
  0
LINE
  5
19A
330
1F
100
AcDbEntity
  8
0
  6
Continuous
 62
     7
370
    25
100
AcDbLine
 10
-9148.9163280739
 20
9083.2813359277
 30
0.0
 11
-9148.9163280739
 21
9082.4997692048
 31
0.0
  0
LINE
  5
19B
330
1F
100
AcDbEntity
  8
0
  6
Continuous
 62
     7
370
    25
100
AcDbLine
 10
-9163.1717334793
 20
9081.516133225
 30
0.0
 11
-9163.1717334793
 21
9086.1590808602
 31
0.0
  0
LINE
  5
19C
330
1F
100
AcDbEntity
  8
0
  6
Continuous
 62
     7
370
    25
100
AcDbLine
 10
-9163.1717334793
 20
9086.1590808602
 30
0.0
 11
-9163.7872317901
 21
9086.1590808602
 31
0.0
  0
LINE
  5
19D
330
1F
100
AcDbEntity
  8
0
  6
Continuous
 62
     7
370
    25
100
AcDbLine
 10
-9163.7872317901
 20
9086.1590808602
 30
0.0
 11
-9165.2713956415
 21
9081.4406475831
 31
0.0
  0
LINE
  5
19E
330
1F
100
AcDbEntity
  8
0
  6
Continuous
 62
     7
370
    25
100
AcDbLine
 10
-9165.8543770604
 20
9081.6009094075
 30
0.0
 11
-9164.3121473307
 21
9086.5667033264
 31
0.0
  0
LINE
  5
19F
330
1F
100
AcDbEntity
  8
0
  6
Continuous
 62
     7
370
    25
100
AcDbLine
 10
-9164.0554961482
 20
9086.7536754548
 30
0.0
 11
-9162.874436182
 21
9086.7536754548
 31
0.0
  0
LINE
  5
1A0
330
1F
100
AcDbEntity
  8
0
  6
Continuous
 62
     7
370
    25
100
AcDbLine
 10
-9162.5028145604
 20
9086.4877337318
 30
0.0
 11
-9162.5028145604
 21
9081.5196171777
 31
0.0
  0
LINE
  5
1A1
330
1F
100
AcDbEntity
  8
0
  6
Continuous
 62
     7
370
    25
100
AcDbLine
 10
-9146.8649767225
 20
9083.3904997791
 30
0.0
 11
-9146.8649767225
 21
9081.5219398129
 31
0.0
  0
LINE
  5
1A2
330
1F
100
AcDbEntity
  8
0
  6
Continuous
 62
     7
370
    25
100
AcDbLine
 10
-9145.1415814523
 20
9081.5103266372
 30
0.0
 11
-9146.3644488509
 21
9084.1848409953
 31
0.0
  0
LINE
  5
1A3
330
1F
100
AcDbEntity
  8
0
  6
Continuous
 62
     7
370
    25
100
AcDbLine
 10
-9146.3644488509
 20
9084.1848409953
 30
0.0
 11
-9146.8649767225
 21
9083.3904997791
 31
0.0
  0
LINE
  5
1A4
330
1F
100
AcDbEntity
  8
0
  6
Continuous
 62
     7
370
    25
100
AcDbLine
 10
-9147.5338956415
 20
9081.5196171777
 30
0.0
 11
-9147.5338956415
 21
9086.4877337318
 31
0.0
  0
LINE
  5
1A5
330
1F
100
AcDbEntity
  8
0
  6
Continuous
 62
     7
370
    25
100
AcDbLine
 10
-9146.8649767225
 20
9086.4912176845
 30
0.0
 11
-9146.8649767225
 21
9084.1174845764
 31
0.0
  0
LINE
  5
1A6
330
1F
100
AcDbEntity
  8
0
  6
Continuous
 62
     7
370
    25
100
AcDbLine
 10
-9146.8649767225
 20
9084.1174845764
 30
0.0
 11
-9145.110225878
 21
9086.715351975
 31
0.0
  0
LINE
  5
1A7
330
1F
100
AcDbEntity
  8
0
  6
Continuous
 62
     7
370
    25
100
AcDbLine
 10
-9144.6004074658
 20
9086.4238612656
 30
0.0
 11
-9145.961471655
 21
9084.6052379548
 31
0.0
  0
LINE
  5
1A8
330
1F
100
AcDbEntity
  8
0
  6
Continuous
 62
     7
370
    25
100
AcDbLine
 10
-9145.961471655
 20
9084.6052379548
 30
0.0
 11
-9144.586471655
 21
9081.6322649818
 31
0.0
  0
LINE
  5
1A9
330
1F
100
AcDbEntity
  8
0
  6
Continuous
 62
     7
370
    25
100
AcDbLine
 10
-9127.5738651695
 20
9087.7069554873
 30
0.0
 11
-9126.5346241695
 21
9087.9660354873
 31
0.0
  0
LINE
  5
1AA
330
1F
100
AcDbEntity
  8
0
  6
Continuous
 62
     7
370
    25
100
AcDbLine
 10
-9127.6386351695
 20
9086.3444994873
 30
0.0
 11
-9127.5738651695
 21
9087.7069554873
 31
0.0
  0
LINE
  5
1AB
330
1F
100
AcDbEntity
  8
0
  6
Continuous
 62
     7
370
    25
100
AcDbLine
 10
-9130.2991581695
 20
9085.4027944873
 30
0.0
 11
-9127.6386351695
 21
9086.3444994873
 31
0.0
  0
LINE
  5
1AC
330
1F
100
AcDbEntity
  8
0
  6
Continuous
 62
     7
370
    25
100
AcDbLine
 10
-9129.7794741695
 20
9084.4621054873
 30
0.0
 11
-9130.2991581695
 21
9085.4027944873
 31
0.0
  0
LINE
  5
1AD
330
1F
100
AcDbEntity
  8
0
  6
Continuous
 62
     7
370
    25
100
AcDbLine
 10
-9130.6244051695
 20
9081.8991184873
 30
0.0
 11
-9129.7794741695
 21
9084.4621054873
 31
0.0
  0
LINE
  5
1AE
330
1F
100
AcDbEntity
  8
0
  6
Continuous
 62
     7
370
    25
100
AcDbLine
 10
-9128.7415031695
 20
9080.7304644873
 30
0.0
 11
-9130.6244051695
 21
9081.8991184873
 31
0.0
  0
LINE
  5
1AF
330
1F
100
AcDbEntity
  8
0
  6
Continuous
 62
     7
370
    25
100
AcDbLine
 10
-9129.1962901695
 20
9079.3673734873
 30
0.0
 11
-9128.7415031695
 21
9080.7304644873
 31
0.0
  0
LINE
  5
1B0
330
1F
100
AcDbEntity
  8
0
  6
Continuous
 62
     7
370
    25
100
AcDbLine
 10
-9131.5645861695
 20
9079.7897754873
 30
0.0
 11
-9129.1962901695
 21
9079.3673734873
 31
0.0
  0
LINE
  5
1B1
330
1F
100
AcDbEntity
  8
0
  6
Continuous
 62
     7
370
    25
100
AcDbLine
 10
-9133.1223681695
 20
9079.8547994873
 30
0.0
 11
-9131.5645861695
 21
9079.7897754873
 31
0.0
  0
LINE
  5
1B2
330
1F
100
AcDbEntity
  8
0
  6
Continuous
 62
     7
370
    25
100
AcDbLine
 10
-9134.0631841695
 20
9078.4266844873
 30
0.0
 11
-9133.1223681695
 21
9079.8547994873
 31
0.0
  0
LINE
  5
1B3
330
1F
100
AcDbEntity
  8
0
  6
Continuous
 62
     7
370
    25
100
AcDbLine
 10
-9133.9655211695
 20
9076.7067234873
 30
0.0
 11
-9134.0631841695
 21
9078.4266844873
 31
0.0
  0
LINE
  5
1B4
330
1F
100
AcDbEntity
  8
0
  6
Continuous
 62
     7
370
    25
100
AcDbLine
 10
-9135.0694051695
 20
9072.9433324873
 30
0.0
 11
-9133.9655211695
 21
9076.7067234873
 31
0.0
  0
LINE
  5
1B5
330
1F
100
AcDbEntity
  8
0
  6
Continuous
 62
     7
370
    25
100
AcDbLine
 10
-9136.1721461695
 20
9072.6184664873
 30
0.0
 11
-9135.0694051695
 21
9072.9433324873
 31
0.0
  0
LINE
  5
1B6
330
1F
100
AcDbEntity
  8
0
  6
Continuous
 62
     7
370
    25
100
AcDbLine
 10
-9136.3667101695
 20
9070.2168964873
 30
0.0
 11
-9136.1721461695
 21
9072.6184664873
 31
0.0
  0
LINE
  5
1B7
330
1F
100
AcDbEntity
  8
0
  6
Continuous
 62
     7
370
    25
100
AcDbLine
 10
-9137.1133431695
 20
9070.1530154873
 30
0.0
 11
-9136.3667101695
 21
9070.2168964873
 31
0.0
  0
LINE
  5
1B8
330
1F
100
AcDbEntity
  8
0
  6
Continuous
 62
     7
370
    25
100
AcDbLine
 10
-9137.5348561695
 20
9072.4566684873
 30
0.0
 11
-9137.1133431695
 21
9070.1530154873
 31
0.0
  0
LINE
  5
1B9
330
1F
100
AcDbEntity
  8
0
  6
Continuous
 62
     7
370
    25
100
AcDbLine
 10
-9138.5728271695
 20
9072.6184664873
 30
0.0
 11
-9137.5348561695
 21
9072.4566684873
 31
0.0
  0
LINE
  5
1BA
330
1F
100
AcDbEntity
  8
0
  6
Continuous
 62
     7
370
    25
100
AcDbLine
 10
-9139.1570271695
 20
9072.6837444873
 30
0.0
 11
-9138.5728271695
 21
9072.6184664873
 31
0.0
  0
LINE
  5
1BB
330
1F
100
AcDbEntity
  8
0
  6
Continuous
 62
     7
370
    25
100
AcDbLine
 10
-9140.0989861695
 20
9074.9870164873
 30
0.0
 11
-9139.1570271695
 21
9072.6837444873
 31
0.0
  0
LINE
  5
1BC
330
1F
100
AcDbEntity
  8
0
  6
Continuous
 62
     7
370
    25
100
AcDbLine
 10
-9141.2991361695
 20
9074.9870164873
 30
0.0
 11
-9140.0989861695
 21
9074.9870164873
 31
0.0
  0
LINE
  5
1BD
330
1F
100
AcDbEntity
  8
0
  6
Continuous
 62
     7
370
    25
100
AcDbLine
 10
-9142.6614651695
 20
9075.6041094873
 30
0.0
 11
-9141.2991361695
 21
9074.9870164873
 31
0.0
  0
LINE
  5
1BE
330
1F
100
AcDbEntity
  8
0
  6
Continuous
 62
     7
370
    25
100
AcDbLine
 10
-9143.0833591695
 20
9074.2417804873
 30
0.0
 11
-9142.6614651695
 21
9075.6041094873
 31
0.0
  0
LINE
  5
1BF
330
1F
100
AcDbEntity
  8
0
  6
Continuous
 62
     7
370
    25
100
AcDbLine
 10
-9144.3807911695
 20
9074.0783314873
 30
0.0
 11
-9143.0833591695
 21
9074.2417804873
 31
0.0
  0
LINE
  5
1C0
330
1F
100
AcDbEntity
  8
0
  6
Continuous
 62
     7
370
    25
100
AcDbLine
 10
-9146.9445401695
 20
9073.2031744873
 30
0.0
 11
-9144.3807911695
 21
9074.0783314873
 31
0.0
  0
LINE
  5
1C1
330
1F
100
AcDbEntity
  8
0
  6
Continuous
 62
     7
370
    25
100
AcDbLine
 10
-9149.1514191695
 20
9073.7217154873
 30
0.0
 11
-9146.9445401695
 21
9073.2031744873
 31
0.0
  0
LINE
  5
1C2
330
1F
100
AcDbEntity
  8
0
  6
Continuous
 62
     7
370
    25
100
AcDbLine
 10
-9150.3515691695
 20
9072.8781814873
 30
0.0
 11
-9149.1514191695
 21
9073.7217154873
 31
0.0
  0
LINE
  5
1C3
330
1F
100
AcDbEntity
  8
0
  6
Continuous
 62
     7
370
    25
100
AcDbLine
 10
-9149.4102451695
 20
9071.1584744873
 30
0.0
 11
-9150.3515691695
 21
9072.8781814873
 31
0.0
  0
LINE
  5
1C4
330
1F
100
AcDbEntity
  8
0
  6
Continuous
 62
     7
370
    25
100
AcDbLine
 10
-9151.1953571695
 20
9070.8997754873
 30
0.0
 11
-9149.4102451695
 21
9071.1584744873
 31
0.0
  0
LINE
  5
1C5
330
1F
100
AcDbEntity
  8
0
  6
Continuous
 62
     7
370
    25
100
AcDbLine
 10
-9152.1363001695
 20
9072.0017544873
 30
0.0
 11
-9151.1953571695
 21
9070.8997754873
 31
0.0
  0
LINE
  5
1C6
330
1F
100
AcDbEntity
  8
0
  6
Continuous
 62
     7
370
    25
100
AcDbLine
 10
-9152.2978441695
 20
9070.6400604873
 30
0.0
 11
-9152.1363001695
 21
9072.0017544873
 31
0.0
  0
LINE
  5
1C7
330
1F
100
AcDbEntity
  8
0
  6
Continuous
 62
     7
370
    25
100
AcDbLine
 10
-9152.2332011695
 20
9068.6925154873
 30
0.0
 11
-9152.2978441695
 21
9070.6400604873
 31
0.0
  0
LINE
  5
1C8
330
1F
100
AcDbEntity
  8
0
  6
Continuous
 62
     7
370
    25
100
AcDbLine
 10
-9153.4337321695
 20
9067.7515724873
 30
0.0
 11
-9152.2332011695
 21
9068.6925154873
 31
0.0
  0
LINE
  5
1C9
330
1F
100
AcDbEntity
  8
0
  6
Continuous
 62
     7
370
    25
100
AcDbLine
 10
-9156.3209501695
 20
9068.8552024873
 30
0.0
 11
-9153.4337321695
 21
9067.7515724873
 31
0.0
  0
LINE
  5
1CA
330
1F
100
AcDbEntity
  8
0
  6
Continuous
 62
     7
370
    25
100
AcDbLine
 10
-9157.9440101695
 20
9068.6925154873
 30
0.0
 11
-9156.3209501695
 21
9068.8552024873
 31
0.0
  0
LINE
  5
1CB
330
1F
100
AcDbEntity
  8
0
  6
Continuous
 62
     7
370
    25
100
AcDbLine
 10
-9158.3667931695
 20
9067.4931274873
 30
0.0
 11
-9157.9440101695
 21
9068.6925154873
 31
0.0
  0
LINE
  5
1CC
330
1F
100
AcDbEntity
  8
0
  6
Continuous
 62
     7
370
    25
100
AcDbLine
 10
-9156.6460701695
 20
9066.9082924873
 30
0.0
 11
-9158.3667931695
 21
9067.4931274873
 31
0.0
  0
LINE
  5
1CD
330
1F
100
AcDbEntity
  8
0
  6
Continuous
 62
     7
370
    25
100
AcDbLine
 10
-9156.4837641695
 20
9066.2268104873
 30
0.0
 11
-9156.6460701695
 21
9066.9082924873
 31
0.0
  0
LINE
  5
1CE
330
1F
100
AcDbEntity
  8
0
  6
Continuous
 62
     7
370
    25
100
AcDbLine
 10
-9156.7436061695
 20
9064.4100754873
 30
0.0
 11
-9156.4837641695
 21
9066.2268104873
 31
0.0
  0
LINE
  5
1CF
330
1F
100
AcDbEntity
  8
0
  6
Continuous
 62
     7
370
    25
100
AcDbLine
 10
-9157.0999681695
 20
9063.4038544873
 30
0.0
 11
-9156.7436061695
 21
9064.4100754873
 31
0.0
  0
LINE
  5
1D0
330
1F
100
AcDbEntity
  8
0
  6
Continuous
 62
     7
370
    25
100
AcDbLine
 10
-9156.9059121695
 20
9061.8460724873
 30
0.0
 11
-9157.0999681695
 21
9063.4038544873
 31
0.0
  0
LINE
  5
1D1
330
1F
100
AcDbEntity
  8
0
  6
Continuous
 62
     7
370
    25
100
AcDbLine
 10
-9155.9004531695
 20
9060.3218184873
 30
0.0
 11
-9156.9059121695
 21
9061.8460724873
 31
0.0
  0
LINE
  5
1D2
330
1F
100
AcDbEntity
  8
0
  6
Continuous
 62
     7
370
    25
100
AcDbLine
 10
-9156.4837641695
 20
9059.7376184873
 30
0.0
 11
-9155.9004531695
 21
9060.3218184873
 31
0.0
  0
LINE
  5
1D3
330
1F
100
AcDbEntity
  8
0
  6
Continuous
 62
     7
370
    25
100
AcDbLine
 10
-9157.8463471695
 20
9060.3218184873
 30
0.0
 11
-9156.4837641695
 21
9059.7376184873
 31
0.0
  0
LINE
  5
1D4
330
1F
100
AcDbEntity
  8
0
  6
Continuous
 62
     7
370
    25
100
AcDbLine
 10
-9157.6842951695
 20
9058.1160824873
 30
0.0
 11
-9157.8463471695
 21
9060.3218184873
 31
0.0
  0
LINE
  5
1D5
330
1F
100
AcDbEntity
  8
0
  6
Continuous
 62
     7
370
    25
100
AcDbLine
 10
-9159.0467511695
 20
9057.9203754873
 30
0.0
 11
-9157.6842951695
 21
9058.1160824873
 31
0.0
  0
LINE
  5
1D6
330
1F
100
AcDbEntity
  8
0
  6
Continuous
 62
     7
370
    25
100
AcDbLine
 10
-9159.5666891695
 20
9057.0116904873
 30
0.0
 11
-9159.0467511695
 21
9057.9203754873
 31
0.0
  0
LINE
  5
1D7
330
1F
100
AcDbEntity
  8
0
  6
Continuous
 62
     7
370
    25
100
AcDbLine
 10
-9159.7284871695
 20
9056.3948514873
 30
0.0
 11
-9159.5666891695
 21
9057.0116904873
 31
0.0
  0
LINE
  5
1D8
330
1F
100
AcDbEntity
  8
0
  6
Continuous
 62
     7
370
    25
100
AcDbLine
 10
-9159.6633361695
 20
9056.2335614873
 30
0.0
 11
-9159.7284871695
 21
9056.3948514873
 31
0.0
  0
LINE
  5
1D9
330
1F
100
AcDbEntity
  8
0
  6
Continuous
 62
     7
370
    25
100
AcDbLine
 10
-9161.0261731695
 20
9057.0116904873
 30
0.0
 11
-9159.6633361695
 21
9056.2335614873
 31
0.0
  0
LINE
  5
1DA
330
1F
100
AcDbEntity
  8
0
  6
Continuous
 62
     7
370
    25
100
AcDbLine
 10
-9160.2471551695
 20
9058.7965484873
 30
0.0
 11
-9161.0261731695
 21
9057.0116904873
 31
0.0
  0
LINE
  5
1DB
330
1F
100
AcDbEntity
  8
0
  6
Continuous
 62
     7
370
    25
100
AcDbLine
 10
-9160.8309741695
 20
9059.7376184873
 30
0.0
 11
-9160.2471551695
 21
9058.7965484873
 31
0.0
  0
LINE
  5
1DC
330
1F
100
AcDbEntity
  8
0
  6
Continuous
 62
     7
370
    25
100
AcDbLine
 10
-9162.0322671695
 20
9059.7376184873
 30
0.0
 11
-9160.8309741695
 21
9059.7376184873
 31
0.0
  0
LINE
  5
1DD
330
1F
100
AcDbEntity
  8
0
  6
Continuous
 62
     7
370
    25
100
AcDbLine
 10
-9163.0711271695
 20
9061.1004554873
 30
0.0
 11
-9162.0322671695
 21
9059.7376184873
 31
0.0
  0
LINE
  5
1DE
330
1F
100
AcDbEntity
  8
0
  6
Continuous
 62
     7
370
    25
100
AcDbLine
 10
-9163.9144071695
 20
9061.2626344873
 30
0.0
 11
-9163.0711271695
 21
9061.1004554873
 31
0.0
  0
LINE
  5
1DF
330
1F
100
AcDbEntity
  8
0
  6
Continuous
 62
     7
370
    25
100
AcDbLine
 10
-9164.0106731695
 20
9059.3159784873
 30
0.0
 11
-9163.9144071695
 21
9061.2626344873
 31
0.0
  0
LINE
  5
1E0
330
1F
100
AcDbEntity
  8
0
  6
Continuous
 62
     7
370
    25
100
AcDbLine
 10
-9165.3746531695
 20
9059.1207794873
 30
0.0
 11
-9164.0106731695
 21
9059.3159784873
 31
0.0
  0
LINE
  5
1E1
330
1F
100
AcDbEntity
  8
0
  6
Continuous
 62
     7
370
    25
100
AcDbLine
 10
-9165.5370861695
 20
9060.8409944873
 30
0.0
 11
-9165.3746531695
 21
9059.1207794873
 31
0.0
  0
LINE
  5
1E2
330
1F
100
AcDbEntity
  8
0
  6
Continuous
 62
     7
370
    25
100
AcDbLine
 10
-9166.3797311695
 20
9059.3798594873
 30
0.0
 11
-9165.5370861695
 21
9060.8409944873
 31
0.0
  0
LINE
  5
1E3
330
1F
100
AcDbEntity
  8
0
  6
Continuous
 62
     7
370
    25
100
AcDbLine
 10
-9168.8788371695
 20
9059.1207794873
 30
0.0
 11
-9166.3797311695
 21
9059.3798594873
 31
0.0
  0
LINE
  5
1E4
330
1F
100
AcDbEntity
  8
0
  6
Continuous
 62
     7
370
    25
100
AcDbLine
 10
-9170.7283381695
 20
9060.0614684873
 30
0.0
 11
-9168.8788371695
 21
9059.1207794873
 31
0.0
  0
LINE
  5
1E5
330
1F
100
AcDbEntity
  8
0
  6
Continuous
 62
     7
370
    25
100
AcDbLine
 10
-9170.9877991695
 20
9062.1061684873
 30
0.0
 11
-9170.7283381695
 21
9060.0614684873
 31
0.0
  0
LINE
  5
1E6
330
1F
100
AcDbEntity
  8
0
  6
Continuous
 62
     7
370
    25
100
AcDbLine
 10
-9172.9667131695
 20
9063.0468574873
 30
0.0
 11
-9170.9877991695
 21
9062.1061684873
 31
0.0
  0
LINE
  5
1E7
330
1F
100
AcDbEntity
  8
0
  6
Continuous
 62
     7
370
    25
100
AcDbLine
 10
-9172.8699391695
 20
9064.0852094873
 30
0.0
 11
-9172.9667131695
 21
9063.0468574873
 31
0.0
  0
LINE
  5
1E8
330
1F
100
AcDbEntity
  8
0
  6
Continuous
 62
     7
370
    25
100
AcDbLine
 10
-9173.8106281695
 20
9063.9235384873
 30
0.0
 11
-9172.8699391695
 21
9064.0852094873
 31
0.0
  0
LINE
  5
1E9
330
1F
100
AcDbEntity
  8
0
  6
Continuous
 62
     7
370
    25
100
AcDbLine
 10
-9174.7515711695
 20
9064.2475154873
 30
0.0
 11
-9173.8106281695
 21
9063.9235384873
 31
0.0
  0
LINE
  5
1EA
330
1F
100
AcDbEntity
  8
0
  6
Continuous
 62
     7
370
    25
100
AcDbLine
 10
-9173.6479411695
 20
9068.0110334873
 30
0.0
 11
-9174.7515711695
 21
9064.2475154873
 31
0.0
  0
LINE
  5
1EB
330
1F
100
AcDbEntity
  8
0
  6
Continuous
 62
     7
370
    25
100
AcDbLine
 10
-9174.2331571695
 20
9068.3357724873
 30
0.0
 11
-9173.6479411695
 21
9068.0110334873
 31
0.0
  0
LINE
  5
1EC
330
1F
100
AcDbEntity
  8
0
  6
Continuous
 62
     7
370
    25
100
AcDbLine
 10
-9175.0107781695
 20
9067.5895204873
 30
0.0
 11
-9174.2331571695
 21
9068.3357724873
 31
0.0
  0
LINE
  5
1ED
330
1F
100
AcDbEntity
  8
0
  6
Continuous
 62
     7
370
    25
100
AcDbLine
 10
-9175.8550741695
 20
9070.5747824873
 30
0.0
 11
-9175.0107781695
 21
9067.5895204873
 31
0.0
  0
LINE
  5
1EE
330
1F
100
AcDbEntity
  8
0
  6
Continuous
 62
     7
370
    25
100
AcDbLine
 10
-9178.3209061695
 20
9070.3151944873
 30
0.0
 11
-9175.8550741695
 21
9070.5747824873
 31
0.0
  0
LINE
  5
1EF
330
1F
100
AcDbEntity
  8
0
  6
Continuous
 62
     7
370
    25
100
AcDbLine
 10
-9180.0402321695
 20
9071.7431824873
 30
0.0
 11
-9178.3209061695
 21
9070.3151944873
 31
0.0
  0
LINE
  5
1F0
330
1F
100
AcDbEntity
  8
0
  6
Continuous
 62
     7
370
    25
100
AcDbLine
 10
-9179.4562861695
 20
9072.7812804873
 30
0.0
 11
-9180.0402321695
 21
9071.7431824873
 31
0.0
  0
LINE
  5
1F1
330
1F
100
AcDbEntity
  8
0
  6
Continuous
 62
     7
370
    25
100
AcDbLine
 10
-9180.4626341695
 20
9073.6249414873
 30
0.0
 11
-9179.4562861695
 21
9072.7812804873
 31
0.0
  0
LINE
  5
1F2
330
1F
100
AcDbEntity
  8
0
  6
Continuous
 62
     7
370
    25
100
AcDbLine
 10
-9181.7598121695
 20
9073.3653534873
 30
0.0
 11
-9180.4626341695
 21
9073.6249414873
 31
0.0
  0
LINE
  5
1F3
330
1F
100
AcDbEntity
  8
0
  6
Continuous
 62
     7
370
    25
100
AcDbLine
 10
-9182.4415481695
 20
9072.1970804873
 30
0.0
 11
-9181.7598121695
 21
9073.3653534873
 31
0.0
  0
LINE
  5
1F4
330
1F
100
AcDbEntity
  8
0
  6
Continuous
 62
     7
370
    25
100
AcDbLine
 10
-9184.6474111695
 20
9072.9433324873
 30
0.0
 11
-9182.4415481695
 21
9072.1970804873
 31
0.0
  0
LINE
  5
1F5
330
1F
100
AcDbEntity
  8
0
  6
Continuous
 62
     7
370
    25
100
AcDbLine
 10
-9187.5671411695
 20
9076.1232854873
 30
0.0
 11
-9184.6474111695
 21
9072.9433324873
 31
0.0
  0
LINE
  5
1F6
330
1F
100
AcDbEntity
  8
0
  6
Continuous
 62
     7
370
    25
100
AcDbLine
 10
-9189.2548441695
 20
9076.0256224873
 30
0.0
 11
-9187.5671411695
 21
9076.1232854873
 31
0.0
  0
LINE
  5
1F7
330
1F
100
AcDbEntity
  8
0
  6
Continuous
 62
     7
370
    25
100
AcDbLine
 10
-9189.3527611695
 20
9079.9520814873
 30
0.0
 11
-9189.2548441695
 21
9076.0256224873
 31
0.0
  0
LINE
  5
1F8
330
1F
100
AcDbEntity
  8
0
  6
Continuous
 62
     7
370
    25
100
AcDbLine
 10
-9190.7802411695
 20
9080.4711304873
 30
0.0
 11
-9189.3527611695
 21
9079.9520814873
 31
0.0
  0
LINE
  5
1F9
330
1F
100
AcDbEntity
  8
0
  6
Continuous
 62
     7
370
    25
100
AcDbLine
 10
-9190.7802411695
 20
9083.0348794873
 30
0.0
 11
-9190.7802411695
 21
9080.4711304873
 31
0.0
  0
LINE
  5
1FA
330
1F
100
AcDbEntity
  8
0
  6
Continuous
 62
     7
370
    25
100
AcDbLine
 10
-9191.9156211695
 20
9084.3969544873
 30
0.0
 11
-9190.7802411695
 21
9083.0348794873
 31
0.0
  0
LINE
  5
1FB
330
1F
100
AcDbEntity
  8
0
  6
Continuous
 62
     7
370
    25
100
AcDbLine
 10
-9190.0336081695
 20
9085.6626364873
 30
0.0
 11
-9191.9156211695
 21
9084.3969544873
 31
0.0
  0
LINE
  5
1FC
330
1F
100
AcDbEntity
  8
0
  6
Continuous
 62
     7
370
    25
100
AcDbLine
 10
-9187.8925151695
 20
9085.2409964873
 30
0.0
 11
-9190.0336081695
 21
9085.6626364873
 31
0.0
  0
LINE
  5
1FD
330
1F
100
AcDbEntity
  8
0
  6
Continuous
 62
     7
370
    25
100
AcDbLine
 10
-9186.4316341695
 20
9085.9214624873
 30
0.0
 11
-9187.8925151695
 21
9085.2409964873
 31
0.0
  0
LINE
  5
1FE
330
1F
100
AcDbEntity
  8
0
  6
Continuous
 62
     7
370
    25
100
AcDbLine
 10
-9186.4316341695
 20
9087.6420584873
 30
0.0
 11
-9186.4316341695
 21
9085.9214624873
 31
0.0
  0
LINE
  5
1FF
330
1F
100
AcDbEntity
  8
0
  6
Continuous
 62
     7
370
    25
100
AcDbLine
 10
-9188.3135201695
 20
9088.4855924873
 30
0.0
 11
-9186.4316341695
 21
9087.6420584873
 31
0.0
  0
LINE
  5
200
330
1F
100
AcDbEntity
  8
0
  6
Continuous
 62
     7
370
    25
100
AcDbLine
 10
-9189.3527611695
 20
9089.4262814873
 30
0.0
 11
-9188.3135201695
 21
9088.4855924873
 31
0.0
  0
LINE
  5
201
330
1F
100
AcDbEntity
  8
0
  6
Continuous
 62
     7
370
    25
100
AcDbLine
 10
-9190.1957871695
 20
9090.8860194873
 30
0.0
 11
-9189.3527611695
 21
9089.4262814873
 31
0.0
  0
LINE
  5
202
330
1F
100
AcDbEntity
  8
0
  6
Continuous
 62
     7
370
    25
100
AcDbLine
 10
-9190.4556291695
 20
9092.6707504873
 30
0.0
 11
-9190.1957871695
 21
9090.8860194873
 31
0.0
  0
LINE
  5
203
330
1F
100
AcDbEntity
  8
0
  6
Continuous
 62
     7
370
    25
100
AcDbLine
 10
-9191.5596401695
 20
9094.0332064873
 30
0.0
 11
-9190.4556291695
 21
9092.6707504873
 31
0.0
  0
LINE
  5
204
330
1F
100
AcDbEntity
  8
0
  6
Continuous
 62
     7
370
    25
100
AcDbLine
 10
-9191.6555251695
 20
9096.6621064873
 30
0.0
 11
-9191.5596401695
 21
9094.0332064873
 31
0.0
  0
LINE
  5
205
330
1F
100
AcDbEntity
  8
0
  6
Continuous
 62
     7
370
    25
100
AcDbLine
 10
-9193.4402561695
 20
9098.9004814873
 30
0.0
 11
-9191.6555251695
 21
9096.6621064873
 31
0.0
  0
LINE
  5
206
330
1F
100
AcDbEntity
  8
0
  6
Continuous
 62
     7
370
    25
100
AcDbLine
 10
-9192.5972301695
 20
9101.6264094873
 30
0.0
 11
-9193.4402561695
 21
9098.9004814873
 31
0.0
  0
LINE
  5
207
330
1F
100
AcDbEntity
  8
0
  6
Continuous
 62
     7
370
    25
100
AcDbLine
 10
-9193.7004791695
 20
9101.9503864873
 30
0.0
 11
-9192.5972301695
 21
9101.6264094873
 31
0.0
  0
LINE
  5
208
330
1F
100
AcDbEntity
  8
0
  6
Continuous
 62
     7
370
    25
100
AcDbLine
 10
-9195.7444171695
 20
9104.9682874873
 30
0.0
 11
-9193.7004791695
 21
9101.9503864873
 31
0.0
  0
LINE
  5
209
330
1F
100
AcDbEntity
  8
0
  6
Continuous
 62
     7
370
    25
100
AcDbLine
 10
-9196.0042591695
 20
9107.0781384873
 30
0.0
 11
-9195.7444171695
 21
9104.9682874873
 31
0.0
  0
LINE
  5
20A
330
1F
100
AcDbEntity
  8
0
  6
Continuous
 62
     7
370
    25
100
AcDbLine
 10
-9198.0481971695
 20
9107.7584774873
 30
0.0
 11
-9196.0042591695
 21
9107.0781384873
 31
0.0
  0
LINE
  5
20B
330
1F
100
AcDbEntity
  8
0
  6
Continuous
 62
     7
370
    25
100
AcDbLine
 10
-9198.3076581695
 20
9110.4844054873
 30
0.0
 11
-9198.0481971695
 21
9107.7584774873
 31
0.0
  0
LINE
  5
20C
330
1F
100
AcDbEntity
  8
0
  6
Continuous
 62
     7
370
    25
100
AcDbLine
 10
-9195.8415721695
 20
9113.0479004873
 30
0.0
 11
-9198.3076581695
 21
9110.4844054873
 31
0.0
  0
LINE
  5
20D
330
1F
100
AcDbEntity
  8
0
  6
Continuous
 62
     7
370
    25
100
AcDbLine
 10
-9196.2633391695
 20
9115.1887394873
 30
0.0
 11
-9195.8415721695
 21
9113.0479004873
 31
0.0
  0
LINE
  5
20E
330
1F
100
AcDbEntity
  8
0
  6
Continuous
 62
     7
370
    25
100
AcDbLine
 10
-9197.3668421695
 20
9116.0327814873
 30
0.0
 11
-9196.2633391695
 21
9115.1887394873
 31
0.0
  0
LINE
  5
20F
330
1F
100
AcDbEntity
  8
0
  6
Continuous
 62
     7
370
    25
100
AcDbLine
 10
-9196.9448211695
 20
9118.2716644873
 30
0.0
 11
-9197.3668421695
 21
9116.0327814873
 31
0.0
  0
LINE
  5
210
330
1F
100
AcDbEntity
  8
0
  6
Continuous
 62
     7
370
    25
100
AcDbLine
 10
-9195.8415721695
 20
9119.1153254873
 30
0.0
 11
-9196.9448211695
 21
9118.2716644873
 31
0.0
  0
LINE
  5
211
330
1F
100
AcDbEntity
  8
0
  6
Continuous
 62
     7
370
    25
100
AcDbLine
 10
-9195.8415721695
 20
9119.7311484873
 30
0.0
 11
-9195.8415721695
 21
9119.1153254873
 31
0.0
  0
LINE
  5
212
330
1F
100
AcDbEntity
  8
0
  6
Continuous
 62
     7
370
    25
100
AcDbLine
 10
-9196.5879511695
 20
9120.7374964873
 30
0.0
 11
-9195.8415721695
 21
9119.7311484873
 31
0.0
  0
LINE
  5
213
330
1F
100
AcDbEntity
  8
0
  6
Continuous
 62
     7
370
    25
100
AcDbLine
 10
-9196.1021761695
 20
9121.7759754873
 30
0.0
 11
-9196.5879511695
 21
9120.7374964873
 31
0.0
  0
LINE
  5
214
330
1F
100
AcDbEntity
  8
0
  6
Continuous
 62
     7
370
    25
100
AcDbLine
 10
-9197.2690521695
 20
9123.1383044873
 30
0.0
 11
-9196.1021761695
 21
9121.7759754873
 31
0.0
  0
LINE
  5
215
330
1F
100
AcDbEntity
  8
0
  6
Continuous
 62
     7
370
    25
100
AcDbLine
 10
-9197.2049171695
 20
9124.3385814873
 30
0.0
 11
-9197.2690521695
 21
9123.1383044873
 31
0.0
  0
LINE
  5
216
330
1F
100
AcDbEntity
  8
0
  6
Continuous
 62
     7
370
    25
100
AcDbLine
 10
-9192.9215881695
 20
9125.0855954873
 30
0.0
 11
-9197.2049171695
 21
9124.3385814873
 31
0.0
  0
LINE
  5
217
330
1F
100
AcDbEntity
  8
0
  6
Continuous
 62
     7
370
    25
100
AcDbLine
 10
-9191.8180851695
 20
9124.0796284873
 30
0.0
 11
-9192.9215881695
 21
9125.0855954873
 31
0.0
  0
LINE
  5
218
330
1F
100
AcDbEntity
  8
0
  6
Continuous
 62
     7
370
    25
100
AcDbLine
 10
-9188.5736161695
 20
9123.7223774873
 30
0.0
 11
-9191.8180851695
 21
9124.0796284873
 31
0.0
  0
LINE
  5
219
330
1F
100
AcDbEntity
  8
0
  6
Continuous
 62
     7
370
    25
100
AcDbLine
 10
-9188.8337121695
 20
9122.0355634873
 30
0.0
 11
-9188.5736161695
 21
9123.7223774873
 31
0.0
  0
LINE
  5
21A
330
1F
100
AcDbEntity
  8
0
  6
Continuous
 62
     7
370
    25
100
AcDbLine
 10
-9186.6924921695
 20
9121.1588824873
 30
0.0
 11
-9188.8337121695
 21
9122.0355634873
 31
0.0
  0
LINE
  5
21B
330
1F
100
AcDbEntity
  8
0
  6
Continuous
 62
     7
370
    25
100
AcDbLine
 10
-9183.2855901695
 20
9123.3984004873
 30
0.0
 11
-9186.6924921695
 21
9121.1588824873
 31
0.0
  0
LINE
  5
21C
330
1F
100
AcDbEntity
  8
0
  6
Continuous
 62
     7
370
    25
100
AcDbLine
 10
-9181.3376641695
 20
9125.4424654873
 30
0.0
 11
-9183.2855901695
 21
9123.3984004873
 31
0.0
  0
LINE
  5
21D
330
1F
100
AcDbEntity
  8
0
  6
Continuous
 62
     7
370
    25
100
AcDbLine
 10
-9176.7952551695
 20
9127.2266884873
 30
0.0
 11
-9181.3376641695
 21
9125.4424654873
 31
0.0
  0
LINE
  5
21E
330
1F
100
AcDbEntity
  8
0
  6
Continuous
 62
     7
370
    25
100
AcDbLine
 10
-9176.5355401695
 20
9129.9523624873
 30
0.0
 11
-9176.7952551695
 21
9127.2266884873
 31
0.0
  0
LINE
  5
21F
330
1F
100
AcDbEntity
  8
0
  6
Continuous
 62
     7
370
    25
100
AcDbLine
 10
-9175.8550741695
 20
9132.5161114873
 30
0.0
 11
-9176.5355401695
 21
9129.9523624873
 31
0.0
  0
LINE
  5
220
330
1F
100
AcDbEntity
  8
0
  6
Continuous
 62
     7
370
    25
100
AcDbLine
 10
-9174.3296771695
 20
9134.1379014873
 30
0.0
 11
-9175.8550741695
 21
9132.5161114873
 31
0.0
  0
LINE
  5
221
330
1F
100
AcDbEntity
  8
0
  6
Continuous
 62
     7
370
    25
100
AcDbLine
 10
-9169.3656281695
 20
9133.8780594873
 30
0.0
 11
-9174.3296771695
 21
9134.1379014873
 31
0.0
  0
LINE
  5
222
330
1F
100
AcDbEntity
  8
0
  6
Continuous
 62
     7
370
    25
100
AcDbLine
 10
-9166.1206511695
 20
9133.7156264873
 30
0.0
 11
-9169.3656281695
 21
9133.8780594873
 31
0.0
  0
LINE
  5
223
330
1F
100
AcDbEntity
  8
0
  6
Continuous
 62
     7
370
    25
100
AcDbLine
 10
-9162.2917281695
 20
9132.6776554873
 30
0.0
 11
-9166.1206511695
 21
9133.7156264873
 31
0.0
  0
LINE
  5
224
330
1F
100
AcDbEntity
  8
0
  6
Continuous
 62
     7
370
    25
100
AcDbLine
 10
-9161.1886061695
 20
9133.3600264873
 30
0.0
 11
-9162.2917281695
 21
9132.6776554873
 31
0.0
  0
LINE
  5
225
330
1F
100
AcDbEntity
  8
0
  6
Continuous
 62
     7
370
    25
100
AcDbLine
 10
-9159.2095651695
 20
9132.5161114873
 30
0.0
 11
-9161.1886061695
 21
9133.3600264873
 31
0.0
  0
LINE
  5
226
330
1F
100
AcDbEntity
  8
0
  6
Continuous
 62
     7
370
    25
100
AcDbLine
 10
-9158.2686221695
 20
9133.5544634873
 30
0.0
 11
-9159.2095651695
 21
9132.5161114873
 31
0.0
  0
LINE
  5
227
330
1F
100
AcDbEntity
  8
0
  6
Continuous
 62
     7
370
    25
100
AcDbLine
 10
-9156.7436061695
 20
9132.6776554873
 30
0.0
 11
-9158.2686221695
 21
9133.5544634873
 31
0.0
  0
LINE
  5
228
330
1F
100
AcDbEntity
  8
0
  6
Continuous
 62
     7
370
    25
100
AcDbLine
 10
-9150.5132401695
 20
9134.9169194873
 30
0.0
 11
-9156.7436061695
 21
9132.6776554873
 31
0.0
  0
LINE
  5
229
330
1F
100
AcDbEntity
  8
0
  6
Continuous
 62
     7
370
    25
100
AcDbLine
 10
-9148.1125591695
 20
9134.5596684873
 30
0.0
 11
-9150.5132401695
 21
9134.9169194873
 31
0.0
  0
LINE
  5
22A
330
1F
100
AcDbEntity
  8
0
  6
Continuous
 62
     7
370
    25
100
AcDbLine
 10
-9146.6844441695
 20
9133.7805234873
 30
0.0
 11
-9148.1125591695
 21
9134.5596684873
 31
0.0
  0
LINE
  5
22B
330
1F
100
AcDbEntity
  8
0
  6
Continuous
 62
     7
370
    25
100
AcDbLine
 10
-9144.3807911695
 20
9132.9376244873
 30
0.0
 11
-9146.6844441695
 21
9133.7805234873
 31
0.0
  0
LINE
  5
22C
330
1F
100
AcDbEntity
  8
0
  6
Continuous
 62
     7
370
    25
100
AcDbLine
 10
-9142.2389361695
 20
9132.7753184873
 30
0.0
 11
-9144.3807911695
 21
9132.9376244873
 31
0.0
  0
LINE
  5
22D
330
1F
100
AcDbEntity
  8
0
  6
Continuous
 62
     7
370
    25
100
AcDbLine
 10
-9138.9953561695
 20
9132.9376244873
 30
0.0
 11
-9142.2389361695
 21
9132.7753184873
 31
0.0
  0
LINE
  5
22E
330
1F
100
AcDbEntity
  8
0
  6
Continuous
 62
     7
370
    25
100
AcDbLine
 10
-9138.5728271695
 20
9132.4517224873
 30
0.0
 11
-9138.9953561695
 21
9132.9376244873
 31
0.0
  0
LINE
  5
22F
330
1F
100
AcDbEntity
  8
0
  6
Continuous
 62
     7
370
    25
100
AcDbLine
 10
-9137.6325191695
 20
9131.4129894873
 30
0.0
 11
-9138.5728271695
 21
9132.4517224873
 31
0.0
  0
LINE
  5
230
330
1F
100
AcDbEntity
  8
0
  6
Continuous
 62
     7
370
    25
100
AcDbLine
 10
-9135.9119231695
 20
9130.6339714873
 30
0.0
 11
-9137.6325191695
 21
9131.4129894873
 31
0.0
  0
LINE
  5
231
330
1F
100
AcDbEntity
  8
0
  6
Continuous
 62
     7
370
    25
100
AcDbLine
 10
-9136.4322421695
 20
9129.9523624873
 30
0.0
 11
-9135.9119231695
 21
9130.6339714873
 31
0.0
  0
LINE
  5
232
330
1F
100
AcDbEntity
  8
0
  6
Continuous
 62
     7
370
    25
100
AcDbLine
 10
-9137.4694511695
 20
9129.1083204873
 30
0.0
 11
-9136.4322421695
 21
9129.9523624873
 31
0.0
  0
LINE
  5
233
330
1F
100
AcDbEntity
  8
0
  6
Continuous
 62
     7
370
    25
100
AcDbLine
 10
-9137.3722961695
 20
9127.4858954873
 30
0.0
 11
-9137.4694511695
 21
9129.1083204873
 31
0.0
  0
LINE
  5
234
330
1F
100
AcDbEntity
  8
0
  6
Continuous
 62
     7
370
    25
100
AcDbLine
 10
-9137.9892621695
 20
9126.6428694873
 30
0.0
 11
-9137.3722961695
 21
9127.4858954873
 31
0.0
  0
LINE
  5
235
330
1F
100
AcDbEntity
  8
0
  6
Continuous
 62
     7
370
    25
100
AcDbLine
 10
-9137.4694511695
 20
9125.8638514873
 30
0.0
 11
-9137.9892621695
 21
9126.6428694873
 31
0.0
  0
LINE
  5
236
330
1F
100
AcDbEntity
  8
0
  6
Continuous
 62
     7
370
    25
100
AcDbLine
 10
-9137.6325191695
 20
9124.6634474873
 30
0.0
 11
-9137.4694511695
 21
9125.8638514873
 31
0.0
  0
LINE
  5
237
330
1F
100
AcDbEntity
  8
0
  6
Continuous
 62
     7
370
    25
100
AcDbLine
 10
-9136.6917031695
 20
9124.1446524873
 30
0.0
 11
-9137.6325191695
 21
9124.6634474873
 31
0.0
  0
LINE
  5
238
330
1F
100
AcDbEntity
  8
0
  6
Continuous
 62
     7
370
    25
100
AcDbLine
 10
-9138.5728271695
 20
9120.9977194873
 30
0.0
 11
-9136.6917031695
 21
9124.1446524873
 31
0.0
  0
LINE
  5
239
330
1F
100
AcDbEntity
  8
0
  6
Continuous
 62
     7
370
    25
100
AcDbLine
 10
-9139.3514641695
 20
9119.7311484873
 30
0.0
 11
-9138.5728271695
 21
9120.9977194873
 31
0.0
  0
LINE
  5
23A
330
1F
100
AcDbEntity
  8
0
  6
Continuous
 62
     7
370
    25
100
AcDbLine
 10
-9140.2931691695
 20
9119.0174084873
 30
0.0
 11
-9139.3514641695
 21
9119.7311484873
 31
0.0
  0
LINE
  5
23B
330
1F
100
AcDbEntity
  8
0
  6
Continuous
 62
     7
370
    25
100
AcDbLine
 10
-9140.5198641695
 20
9119.7311484873
 30
0.0
 11
-9140.2931691695
 21
9119.0174084873
 31
0.0
  0
LINE
  5
23C
330
1F
100
AcDbEntity
  8
0
  6
Continuous
 62
     7
370
    25
100
AcDbLine
 10
-9141.2991361695
 20
9119.5365844873
 30
0.0
 11
-9140.5198641695
 21
9119.7311484873
 31
0.0
  0
LINE
  5
23D
330
1F
100
AcDbEntity
  8
0
  6
Continuous
 62
     7
370
    25
100
AcDbLine
 10
-9141.3969261695
 20
9118.7907134873
 30
0.0
 11
-9141.2991361695
 21
9119.5365844873
 31
0.0
  0
LINE
  5
23E
330
1F
100
AcDbEntity
  8
0
  6
Continuous
 62
     7
370
    25
100
AcDbLine
 10
-9138.9953561695
 20
9115.8708564873
 30
0.0
 11
-9141.3969261695
 21
9118.7907134873
 31
0.0
  0
LINE
  5
23F
330
1F
100
AcDbEntity
  8
0
  6
Continuous
 62
     7
370
    25
100
AcDbLine
 10
-9140.2931691695
 20
9114.7677344873
 30
0.0
 11
-9138.9953561695
 21
9115.8708564873
 31
0.0
  0
LINE
  5
240
330
1F
100
AcDbEntity
  8
0
  6
Continuous
 62
     7
370
    25
100
AcDbLine
 10
-9139.5142781695
 20
9113.7287474873
 30
0.0
 11
-9140.2931691695
 21
9114.7677344873
 31
0.0
  0
LINE
  5
241
330
1F
100
AcDbEntity
  8
0
  6
Continuous
 62
     7
370
    25
100
AcDbLine
 10
-9140.7798331695
 20
9113.6637234873
 30
0.0
 11
-9139.5142781695
 21
9113.7287474873
 31
0.0
  0
LINE
  5
242
330
1F
100
AcDbEntity
  8
0
  6
Continuous
 62
     7
370
    25
100
AcDbLine
 10
-9140.6174001695
 20
9112.8858484873
 30
0.0
 11
-9140.7798331695
 21
9113.6637234873
 31
0.0
  0
LINE
  5
243
330
1F
100
AcDbEntity
  8
0
  6
Continuous
 62
     7
370
    25
100
AcDbLine
 10
-9138.8331771695
 20
9112.6260064873
 30
0.0
 11
-9140.6174001695
 21
9112.8858484873
 31
0.0
  0
LINE
  5
244
330
1F
100
AcDbEntity
  8
0
  6
Continuous
 62
     7
370
    25
100
AcDbLine
 10
-9138.5728271695
 20
9111.3934714873
 30
0.0
 11
-9138.8331771695
 21
9112.6260064873
 31
0.0
  0
LINE
  5
245
330
1F
100
AcDbEntity
  8
0
  6
Continuous
 62
     7
370
    25
100
AcDbLine
 10
-9138.5728271695
 20
9110.1281704873
 30
0.0
 11
-9138.5728271695
 21
9111.3934714873
 31
0.0
  0
LINE
  5
246
330
1F
100
AcDbEntity
  8
0
  6
Continuous
 62
     7
370
    25
100
AcDbLine
 10
-9138.8976931695
 20
9109.3809024873
 30
0.0
 11
-9138.5728271695
 21
9110.1281704873
 31
0.0
  0
LINE
  5
247
330
1F
100
AcDbEntity
  8
0
  6
Continuous
 62
     7
370
    25
100
AcDbLine
 10
-9138.5728271695
 20
9108.2122484873
 30
0.0
 11
-9138.8976931695
 21
9109.3809024873
 31
0.0
  0
LINE
  5
248
330
1F
100
AcDbEntity
  8
0
  6
Continuous
 62
     7
370
    25
100
AcDbLine
 10
-9138.5728271695
 20
9108.1803714873
 30
0.0
 11
-9138.5728271695
 21
9108.2122484873
 31
0.0
  0
LINE
  5
249
330
1F
100
AcDbEntity
  8
0
  6
Continuous
 62
     7
370
    25
100
AcDbLine
 10
-9137.7300551695
 20
9108.1803714873
 30
0.0
 11
-9138.5728271695
 21
9108.1803714873
 31
0.0
  0
LINE
  5
24A
330
1F
100
AcDbEntity
  8
0
  6
Continuous
 62
     7
370
    25
100
AcDbLine
 10
-9136.5941671695
 20
9106.9150704873
 30
0.0
 11
-9137.7300551695
 21
9108.1803714873
 31
0.0
  0
LINE
  5
24B
330
1F
100
AcDbEntity
  8
0
  6
Continuous
 62
     7
370
    25
100
AcDbLine
 10
-9136.1721461695
 20
9107.7584774873
 30
0.0
 11
-9136.5941671695
 21
9106.9150704873
 31
0.0
  0
LINE
  5
24C
330
1F
100
AcDbEntity
  8
0
  6
Continuous
 62
     7
370
    25
100
AcDbLine
 10
-9135.3288661695
 20
9107.7584774873
 30
0.0
 11
-9136.1721461695
 21
9107.7584774873
 31
0.0
  0
LINE
  5
24D
330
1F
100
AcDbEntity
  8
0
  6
Continuous
 62
     7
370
    25
100
AcDbLine
 10
-9134.9719961695
 20
9106.9150704873
 30
0.0
 11
-9135.3288661695
 21
9107.7584774873
 31
0.0
  0
LINE
  5
24E
330
1F
100
AcDbEntity
  8
0
  6
Continuous
 62
     7
370
    25
100
AcDbLine
 10
-9134.4845701695
 20
9106.5907124873
 30
0.0
 11
-9134.9719961695
 21
9106.9150704873
 31
0.0
  0
LINE
  5
24F
330
1F
100
AcDbEntity
  8
0
  6
Continuous
 62
     7
370
    25
100
AcDbLine
 10
-9133.3814481695
 20
9107.4996514873
 30
0.0
 11
-9134.4845701695
 21
9106.5907124873
 31
0.0
  0
LINE
  5
250
330
1F
100
AcDbEntity
  8
0
  6
Continuous
 62
     7
370
    25
100
AcDbLine
 10
-9132.6687241695
 20
9107.3372184873
 30
0.0
 11
-9133.3814481695
 21
9107.4996514873
 31
0.0
  0
LINE
  5
251
330
1F
100
AcDbEntity
  8
0
  6
Continuous
 62
     7
370
    25
100
AcDbLine
 10
-9133.6089051695
 20
9105.3894194873
 30
0.0
 11
-9132.6687241695
 21
9107.3372184873
 31
0.0
  0
LINE
  5
252
330
1F
100
AcDbEntity
  8
0
  6
Continuous
 62
     7
370
    25
100
AcDbLine
 10
-9132.9279311695
 20
9104.6116714873
 30
0.0
 11
-9133.6089051695
 21
9105.3894194873
 31
0.0
  0
LINE
  5
253
330
1F
100
AcDbEntity
  8
0
  6
Continuous
 62
     7
370
    25
100
AcDbLine
 10
-9132.5048941695
 20
9103.1511714873
 30
0.0
 11
-9132.9279311695
 21
9104.6116714873
 31
0.0
  0
LINE
  5
254
330
1F
100
AcDbEntity
  8
0
  6
Continuous
 62
     7
370
    25
100
AcDbLine
 10
-9130.6244051695
 20
9100.6858474873
 30
0.0
 11
-9132.5048941695
 21
9103.1511714873
 31
0.0
  0
LINE
  5
255
330
1F
100
AcDbEntity
  8
0
  6
Continuous
 62
     7
370
    25
100
AcDbLine
 10
-9130.5583651695
 20
9098.9004814873
 30
0.0
 11
-9130.6244051695
 21
9100.6858474873
 31
0.0
  0
LINE
  5
256
330
1F
100
AcDbEntity
  8
0
  6
Continuous
 62
     7
370
    25
100
AcDbLine
 10
-9129.2611871695
 20
9098.5441194873
 30
0.0
 11
-9130.5583651695
 21
9098.9004814873
 31
0.0
  0
LINE
  5
257
330
1F
100
AcDbEntity
  8
0
  6
Continuous
 62
     7
370
    25
100
AcDbLine
 10
-9128.0605291695
 20
9097.3439694873
 30
0.0
 11
-9129.2611871695
 21
9098.5441194873
 31
0.0
  0
LINE
  5
258
330
1F
100
AcDbEntity
  8
0
  6
Continuous
 62
     7
370
    25
100
AcDbLine
 10
-9127.5738651695
 20
9095.2991424873
 30
0.0
 11
-9128.0605291695
 21
9097.3439694873
 31
0.0
  0
LINE
  5
259
330
1F
100
AcDbEntity
  8
0
  6
Continuous
 62
     7
370
    25
100
AcDbLine
 10
-9128.2561091695
 20
9094.0332064873
 30
0.0
 11
-9127.5738651695
 21
9095.2991424873
 31
0.0
  0
LINE
  5
25A
330
1F
100
AcDbEntity
  8
0
  6
Continuous
 62
     7
370
    25
100
AcDbLine
 10
-9130.2013681695
 20
9094.1307424873
 30
0.0
 11
-9128.2561091695
 21
9094.0332064873
 31
0.0
  0
LINE
  5
25B
330
1F
100
AcDbEntity
  8
0
  6
Continuous
 62
     7
370
    25
100
AcDbLine
 10
-9130.9801321695
 20
9093.6123284873
 30
0.0
 11
-9130.2013681695
 21
9094.1307424873
 31
0.0
  0
LINE
  5
25C
330
1F
100
AcDbEntity
  8
0
  6
Continuous
 62
     7
370
    25
100
AcDbLine
 10
-9130.5583651695
 20
9092.8330564873
 30
0.0
 11
-9130.9801321695
 21
9093.6123284873
 31
0.0
  0
LINE
  5
25D
330
1F
100
AcDbEntity
  8
0
  6
Continuous
 62
     7
370
    25
100
AcDbLine
 10
-9130.6244051695
 20
9091.3730644873
 30
0.0
 11
-9130.5583651695
 21
9092.8330564873
 31
0.0
  0
LINE
  5
25E
330
1F
100
AcDbEntity
  8
0
  6
Continuous
 62
     7
370
    25
100
AcDbLine
 10
-9128.4175261695
 20
9091.5677554873
 30
0.0
 11
-9130.6244051695
 21
9091.3730644873
 31
0.0
  0
LINE
  5
25F
330
1F
100
AcDbEntity
  8
0
  6
Continuous
 62
     7
370
    25
100
AcDbLine
 10
-9126.6984541695
 20
9090.3669704873
 30
0.0
 11
-9128.4175261695
 21
9091.5677554873
 31
0.0
  0
LINE
  5
260
330
1F
100
AcDbEntity
  8
0
  6
Continuous
 62
     7
370
    25
100
AcDbLine
 10
-9126.5346241695
 20
9087.9660354873
 30
0.0
 11
-9126.6984541695
 21
9090.3669704873
 31
0.0
  0
ENDSEC
  0
SECTION
  2
OBJECTS
  0
DICTIONARY
  5
C
330
0
100
AcDbDictionary
281
     1
  3
ACAD_GROUP
350
D
  3
ACAD_LAYOUT
350
1A
  3
ACAD_MLINESTYLE
350
17
  3
ACAD_PLOTSETTINGS
350
19
  3
ACAD_PLOTSTYLENAME
350
E
  3
ACAD_SCALELIST
350
47
  0
DICTIONARY
  5
D
102
{ACAD_REACTORS
330
C
102
}
330
C
100
AcDbDictionary
281
     1
  0
DICTIONARY
  5
1A
102
{ACAD_REACTORS
330
C
102
}
330
C
100
AcDbDictionary
281
     1
  3
Layout1
350
1E
  3
Layout2
350
26
  3
Model
350
22
  0
DICTIONARY
  5
17
102
{ACAD_REACTORS
330
C
102
}
330
C
100
AcDbDictionary
281
     1
  3
Standard
350
18
  0
DICTIONARY
  5
19
102
{ACAD_REACTORS
330
C
102
}
330
C
100
AcDbDictionary
281
     1
  0
ACDBDICTIONARYWDFLT
  5
E
102
{ACAD_REACTORS
330
C
102
}
330
C
100
AcDbDictionary
281
     1
  3
Normal
350
F
100
AcDbDictionaryWithDefault
340
F
  0
DICTIONARY
  5
47
102
{ACAD_REACTORS
330
C
102
}
330
C
100
AcDbDictionary
281
     1
  3
A0
350
48
  3
A1
350
49
  3
A2
350
4A
  3
A3
350
4B
  3
A4
350
4C
  3
A5
350
4D
  3
A6
350
4E
  3
A7
350
4F
  3
A8
350
50
  3
A9
350
51
  3
B0
350
52
  3
B1
350
53
  3
B2
350
54
  3
B3
350
55
  3
B4
350
56
  3
B5
350
57
  3
B6
350
58
  3
B7
350
59
  3
B8
350
5A
  3
B9
350
5B
  3
C0
350
5C
  3
C1
350
5D
  3
C2
350
5E
  3
C3
350
5F
  3
C4
350
60
  3
C5
350
61
  3
C6
350
62
  3
C7
350
63
  3
C8
350
64
  3
C9
350
65
  3
D0
350
66
  3
D1
350
67
  3
D2
350
68
  0
LAYOUT
  5
1E
102
{ACAD_REACTORS
330
1A
102
}
330
1A
100
AcDbPlotSettings
  1

  2
none_device
  4

  6

 40
0.0
 41
0.0
 42
0.0
 43
0.0
 44
0.0
 45
0.0
 46
0.0
 47
0.0
 48
0.0
 49
0.0
140
0.0
141
0.0
142
1.0
143
1.0
 70
   688
 72
     1
 73
     0
 74
     5
  7

 75
    16
147
1.0
148
0.0
149
0.0
100
AcDbLayout
  1
Layout1
 70
     1
 71
     1
 10
0.0
 20
0.0
 11
420.0
 21
297.0
 12
0.0
 22
0.0
 32
0.0
 14
1.0000000000E+20
 24
1.0000000000E+20
 34
1.0000000000E+20
 15
-1.0000000000E+20
 25
-1.0000000000E+20
 35
-1.0000000000E+20
146
0.0
 13
0.0
 23
0.0
 33
0.0
 16
1.0
 26
0.0
 36
0.0
 17
0.0
 27
1.0
 37
0.0
 76
     0
330
1B
  0
LAYOUT
  5
26
102
{ACAD_REACTORS
330
1A
102
}
330
1A
100
AcDbPlotSettings
  1

  2
none_device
  4

  6

 40
0.0
 41
0.0
 42
0.0
 43
0.0
 44
0.0
 45
0.0
 46
0.0
 47
0.0
 48
0.0
 49
0.0
140
0.0
141
0.0
142
1.0
143
1.0
 70
   688
 72
     1
 73
     0
 74
     5
  7

 75
    16
147
1.0
148
0.0
149
0.0
100
AcDbLayout
  1
Layout2
 70
     1
 71
     2
 10
0.0
 20
0.0
 11
0.0
 21
0.0
 12
0.0
 22
0.0
 32
0.0
 14
0.0
 24
0.0
 34
0.0
 15
0.0
 25
0.0
 35
0.0
146
0.0
 13
0.0
 23
0.0
 33
0.0
 16
1.0
 26
0.0
 36
0.0
 17
0.0
 27
1.0
 37
0.0
 76
     0
330
23
  0
LAYOUT
  5
22
102
{ACAD_REACTORS
330
1A
102
}
330
1A
100
AcDbPlotSettings
  1

  2
none_device
  4
ANSI_A_(11.00_x_8.50_Inches)
  6

 40
6.35
 41
19.05
 42
6.35000508
 43
19.05000254
 44
279.4
 45
215.9
 46
25022.7943083473
 47
-24618.9594126198
 48
0.0
 49
0.0
140
0.0
141
0.0
142
0.106947647
143
1.0
 70
  1696
 72
     0
 73
     0
 74
     0
  7

 75
     0
147
0.0179189148
148
-1300.4909072572
149
0.0
100
AcDbLayout
  1
Model
 70
     1
 71
     0
 10
0.0
 20
0.0
 11
420.0
 21
297.0
 12
0.0
 22
0.0
 32
0.0
 14
-9198.3076581695
 24
9056.2335614873
 34
0.0
 15
-9126.5346241695
 25
9134.9169194873
 35
0.0
146
0.0
 13
0.0
 23
0.0
 33
0.0
 16
1.0
 26
0.0
 36
0.0
 17
0.0
 27
1.0
 37
0.0
 76
     0
330
1F
331
29
  0
MLINESTYLE
  5
18
102
{ACAD_REACTORS
330
17
102
}
330
17
100
AcDbMlineStyle
  2
Standard
 70
     0
  3

 62
   256
 51
90.0
 52
90.0
 71
     2
 49
0.5
 62
   256
  6
BYLAYER
 49
-0.5
 62
   256
  6
BYLAYER
  0
ACDBPLACEHOLDER
  5
F
102
{ACAD_REACTORS
330
E
102
}
330
E
  0
SCALE
  5
48
102
{ACAD_REACTORS
330
47
102
}
330
47
100
AcDbScale
 70
     0
300
1:1
140
1.0
141
1.0
290
     1
  0
SCALE
  5
49
102
{ACAD_REACTORS
330
47
102
}
330
47
100
AcDbScale
 70
     0
300
1:2
140
1.0
141
2.0
290
     0
  0
SCALE
  5
4A
102
{ACAD_REACTORS
330
47
102
}
330
47
100
AcDbScale
 70
     0
300
1:4
140
1.0
141
4.0
290
     0
  0
SCALE
  5
4B
102
{ACAD_REACTORS
330
47
102
}
330
47
100
AcDbScale
 70
     0
300
1:5
140
1.0
141
5.0
290
     0
  0
SCALE
  5
4C
102
{ACAD_REACTORS
330
47
102
}
330
47
100
AcDbScale
 70
     0
300
1:8
140
1.0
141
8.0
290
     0
  0
SCALE
  5
4D
102
{ACAD_REACTORS
330
47
102
}
330
47
100
AcDbScale
 70
     0
300
1:10
140
1.0
141
10.0
290
     0
  0
SCALE
  5
4E
102
{ACAD_REACTORS
330
47
102
}
330
47
100
AcDbScale
 70
     0
300
1:16
140
1.0
141
16.0
290
     0
  0
SCALE
  5
4F
102
{ACAD_REACTORS
330
47
102
}
330
47
100
AcDbScale
 70
     0
300
1:20
140
1.0
141
20.0
290
     0
  0
SCALE
  5
50
102
{ACAD_REACTORS
330
47
102
}
330
47
100
AcDbScale
 70
     0
300
1:30
140
1.0
141
30.0
290
     0
  0
SCALE
  5
51
102
{ACAD_REACTORS
330
47
102
}
330
47
100
AcDbScale
 70
     0
300
1:40
140
1.0
141
40.0
290
     0
  0
SCALE
  5
52
102
{ACAD_REACTORS
330
47
102
}
330
47
100
AcDbScale
 70
     0
300
1:50
140
1.0
141
50.0
290
     0
  0
SCALE
  5
53
102
{ACAD_REACTORS
330
47
102
}
330
47
100
AcDbScale
 70
     0
300
1:100
140
1.0
141
100.0
290
     0
  0
SCALE
  5
54
102
{ACAD_REACTORS
330
47
102
}
330
47
100
AcDbScale
 70
     0
300
2:1
140
2.0
141
1.0
290
     0
  0
SCALE
  5
55
102
{ACAD_REACTORS
330
47
102
}
330
47
100
AcDbScale
 70
     0
300
4:1
140
4.0
141
1.0
290
     0
  0
SCALE
  5
56
102
{ACAD_REACTORS
330
47
102
}
330
47
100
AcDbScale
 70
     0
300
8:1
140
8.0
141
1.0
290
     0
  0
SCALE
  5
57
102
{ACAD_REACTORS
330
47
102
}
330
47
100
AcDbScale
 70
     0
300
10:1
140
10.0
141
1.0
290
     0
  0
SCALE
  5
58
102
{ACAD_REACTORS
330
47
102
}
330
47
100
AcDbScale
 70
     0
300
100:1
140
100.0
141
1.0
290
     0
  0
SCALE
  5
59
102
{ACAD_REACTORS
330
47
102
}
330
47
100
AcDbScale
 70
     0
300
1/128" = 1'-0"
140
0.0078125
141
12.0
290
     0
  0
SCALE
  5
5A
102
{ACAD_REACTORS
330
47
102
}
330
47
100
AcDbScale
 70
     0
300
1/64" = 1'-0"
140
0.015625
141
12.0
290
     0
  0
SCALE
  5
5B
102
{ACAD_REACTORS
330
47
102
}
330
47
100
AcDbScale
 70
     0
300
1/32" = 1'-0"
140
0.03125
141
12.0
290
     0
  0
SCALE
  5
5C
102
{ACAD_REACTORS
330
47
102
}
330
47
100
AcDbScale
 70
     0
300
1/16" = 1'-0"
140
0.0625
141
12.0
290
     0
  0
SCALE
  5
5D
102
{ACAD_REACTORS
330
47
102
}
330
47
100
AcDbScale
 70
     0
300
3/32" = 1'-0"
140
0.09375
141
12.0
290
     0
  0
SCALE
  5
5E
102
{ACAD_REACTORS
330
47
102
}
330
47
100
AcDbScale
 70
     0
300
1/8" = 1'-0"
140
0.125
141
12.0
290
     0
  0
SCALE
  5
5F
102
{ACAD_REACTORS
330
47
102
}
330
47
100
AcDbScale
 70
     0
300
3/16" = 1'-0"
140
0.1875
141
12.0
290
     0
  0
SCALE
  5
60
102
{ACAD_REACTORS
330
47
102
}
330
47
100
AcDbScale
 70
     0
300
1/4" = 1'-0"
140
0.25
141
12.0
290
     0
  0
SCALE
  5
61
102
{ACAD_REACTORS
330
47
102
}
330
47
100
AcDbScale
 70
     0
300
3/8" = 1'-0"
140
0.375
141
12.0
290
     0
  0
SCALE
  5
62
102
{ACAD_REACTORS
330
47
102
}
330
47
100
AcDbScale
 70
     0
300
1/2" = 1'-0"
140
0.5
141
12.0
290
     0
  0
SCALE
  5
63
102
{ACAD_REACTORS
330
47
102
}
330
47
100
AcDbScale
 70
     0
300
3/4" = 1'-0"
140
0.75
141
12.0
290
     0
  0
SCALE
  5
64
102
{ACAD_REACTORS
330
47
102
}
330
47
100
AcDbScale
 70
     0
300
1" = 1'-0"
140
1.0
141
12.0
290
     0
  0
SCALE
  5
65
102
{ACAD_REACTORS
330
47
102
}
330
47
100
AcDbScale
 70
     0
300
1-1/2" = 1'-0"
140
1.5
141
12.0
290
     0
  0
SCALE
  5
66
102
{ACAD_REACTORS
330
47
102
}
330
47
100
AcDbScale
 70
     0
300
3" = 1'-0"
140
3.0
141
12.0
290
     0
  0
SCALE
  5
67
102
{ACAD_REACTORS
330
47
102
}
330
47
100
AcDbScale
 70
     0
300
6" = 1'-0"
140
6.0
141
12.0
290
     0
  0
SCALE
  5
68
102
{ACAD_REACTORS
330
47
102
}
330
47
100
AcDbScale
 70
     0
300
1'-0" = 1'-0"
140
12.0
141
12.0
290
     0
  0
ENDSEC
  0
EOF
