  0
SECTION
  2
HEADER
  9
$ACADVER
  1
AC1015
  9
$ACADMAINTVER
 70
     6
  9
$DWGCODEPAGE
  3
ANSI_1251
  9
$INSBASE
 10
0.0
 20
0.0
 30
0.0
  9
$EXTMIN
 10
-9424.1518188422
 20
6308.0019137302
 30
0.0
  9
$EXTMAX
 10
-9336.7732788422
 20
6396.2568807302
 30
0.0
  9
$LIMMIN
 10
0.0
 20
0.0
  9
$LIMMAX
 10
420.0
 20
297.0
  9
$ORTHOMODE
 70
     0
  9
$REGENMODE
 70
     1
  9
$FILLMODE
 70
     1
  9
$QTEXTMODE
 70
     0
  9
$MIRRTEXT
 70
     1
  9
$LTSCALE
 40
1.0
  9
$ATTMODE
 70
     1
  9
$TEXTSIZE
 40
4.0
  9
$TRACEWID
 40
1.0
  9
$TEXTSTYLE
  7
Standard
  9
$CLAYER
  8
0
  9
$CELTYPE
  6
ByLayer
  9
$CECOLOR
 62
   256
  9
$CELTSCALE
 40
1.0
  9
$DISPSILH
 70
     0
  9
$DIMSCALE
 40
1.0
  9
$DIMASZ
 40
6.0
  9
$DIMEXO
 40
1.0
  9
$DIMDLI
 40
3.75
  9
$DIMRND
 40
0.0
  9
$DIMDLE
 40
0.0
  9
$DIMEXE
 40
1.0
  9
$DIMTP
 40
0.0
  9
$DIMTM
 40
0.0
  9
$DIMTXT
 40
4.0
  9
$DIMCEN
 40
2.5
  9
$DIMTSZ
 40
0.0
  9
$DIMTOL
 70
     0
  9
$DIMLIM
 70
     0
  9
$DIMTIH
 70
     1
  9
$DIMTOH
 70
     1
  9
$DIMSE1
 70
     0
  9
$DIMSE2
 70
     0
  9
$DIMTAD
 70
     1
  9
$DIMZIN
 70
     0
  9
$DIMBLK
  1

  9
$DIMASO
 70
     1
  9
$DIMSHO
 70
     1
  9
$DIMPOST
  1

  9
$DIMAPOST
  1

  9
$DIMALT
 70
     0
  9
$DIMALTD
 70
     3
  9
$DIMALTF
 40
0.0393700787
  9
$DIMLFAC
 40
1.0
  9
$DIMTOFL
 70
     1
  9
$DIMTVP
 40
0.0
  9
$DIMTIX
 70
     0
  9
$DIMSOXD
 70
     0
  9
$DIMSAH
 70
     0
  9
$DIMBLK1
  1

  9
$DIMBLK2
  1

  9
$DIMSTYLE
  2
ISO-25
  9
$DIMCLRD
 70
     0
  9
$DIMCLRE
 70
     0
  9
$DIMCLRT
 70
     0
  9
$DIMTFAC
 40
1.0
  9
$DIMGAP
 40
3.0
  9
$DIMJUST
 70
     0
  9
$DIMSD1
 70
     0
  9
$DIMSD2
 70
     0
  9
$DIMTOLJ
 70
     0
  9
$DIMTZIN
 70
     0
  9
$DIMALTZ
 70
     0
  9
$DIMALTTZ
 70
     0
  9
$DIMUPT
 70
     0
  9
$DIMDEC
 70
     2
  9
$DIMTDEC
 70
     4
  9
$DIMALTU
 70
     2
  9
$DIMALTTD
 70
     3
  9
$DIMTXSTY
  7
Standard
  9
$DIMAUNIT
 70
     0
  9
$DIMADEC
 70
     2
  9
$DIMALTRND
 40
0.0
  9
$DIMAZIN
 70
     0
  9
$DIMDSEP
 70
    44
  9
$DIMATFIT
 70
     3
  9
$DIMFRAC
 70
     0
  9
$DIMLDRBLK
  1

  9
$DIMLUNIT
 70
     2
  9
$DIMLWD
 70
    -2
  9
$DIMLWE
 70
    -2
  9
$DIMTMOVE
 70
     0
  9
$LUNITS
 70
     2
  9
$LUPREC
 70
     2
  9
$SKETCHINC
 40
1.0
  9
$FILLETRAD
 40
10.0
  9
$AUNITS
 70
     1
  9
$AUPREC
 70
     2
  9
$MENU
  1
.
  9
$ELEVATION
 40
0.0
  9
$PELEVATION
 40
0.0
  9
$THICKNESS
 40
0.0
  9
$LIMCHECK
 70
     0
  9
$CHAMFERA
 40
0.0
  9
$CHAMFERB
 40
0.0
  9
$CHAMFERC
 40
0.0
  9
$CHAMFERD
 40
0.0
  9
$SKPOLY
 70
     0
  9
$TDCREATE
 40
2460367.441654479
  9
$TDUCREATE
 40
2460367.358321146
  9
$TDUPDATE
 40
2460367.44168162
  9
$TDUUPDATE
 40
2460367.358348287
  9
$TDINDWG
 40
0.0000000116
  9
$TDUSRTIMER
 40
0.0000000116
  9
$USRTIMER
 70
     1
  9
$ANGBASE
 50
0.0
  9
$ANGDIR
 70
     0
  9
$PDMODE
 70
     0
  9
$PDSIZE
 40
-1.0
  9
$PLINEWID
 40
0.0
  9
$SPLFRAME
 70
     0
  9
$SPLINETYPE
 70
     6
  9
$SPLINESEGS
 70
     8
  9
$HANDSEED
  5
21B
  9
$SURFTAB1
 70
     6
  9
$SURFTAB2
 70
     6
  9
$SURFTYPE
 70
     6
  9
$SURFU
 70
     6
  9
$SURFV
 70
     6
  9
$UCSBASE
  2

  9
$UCSNAME
  2

  9
$UCSORG
 10
0.0
 20
0.0
 30
0.0
  9
$UCSXDIR
 10
1.0
 20
0.0
 30
0.0
  9
$UCSYDIR
 10
0.0
 20
1.0
 30
0.0
  9
$UCSORTHOREF
  2

  9
$UCSORTHOVIEW
 70
     0
  9
$UCSORGTOP
 10
0.0
 20
0.0
 30
0.0
  9
$UCSORGBOTTOM
 10
0.0
 20
0.0
 30
0.0
  9
$UCSORGLEFT
 10
0.0
 20
0.0
 30
0.0
  9
$UCSORGRIGHT
 10
0.0
 20
0.0
 30
0.0
  9
$UCSORGFRONT
 10
0.0
 20
0.0
 30
0.0
  9
$UCSORGBACK
 10
0.0
 20
0.0
 30
0.0
  9
$PUCSBASE
  2

  9
$PUCSNAME
  2

  9
$PUCSORG
 10
0.0
 20
0.0
 30
0.0
  9
$PUCSXDIR
 10
1.0
 20
0.0
 30
0.0
  9
$PUCSYDIR
 10
0.0
 20
1.0
 30
0.0
  9
$PUCSORTHOREF
  2

  9
$PUCSORTHOVIEW
 70
     0
  9
$PUCSORGTOP
 10
0.0
 20
0.0
 30
0.0
  9
$PUCSORGBOTTOM
 10
0.0
 20
0.0
 30
0.0
  9
$PUCSORGLEFT
 10
0.0
 20
0.0
 30
0.0
  9
$PUCSORGRIGHT
 10
0.0
 20
0.0
 30
0.0
  9
$PUCSORGFRONT
 10
0.0
 20
0.0
 30
0.0
  9
$PUCSORGBACK
 10
0.0
 20
0.0
 30
0.0
  9
$USERI1
 70
     0
  9
$USERI2
 70
     0
  9
$USERI3
 70
     0
  9
$USERI4
 70
     0
  9
$USERI5
 70
     0
  9
$USERR1
 40
0.0
  9
$USERR2
 40
0.0
  9
$USERR3
 40
0.0
  9
$USERR4
 40
0.0
  9
$USERR5
 40
0.0
  9
$WORLDVIEW
 70
     1
  9
$SHADEDGE
 70
     3
  9
$SHADEDIF
 70
    70
  9
$TILEMODE
 70
     1
  9
$MAXACTVP
 70
    64
  9
$PINSBASE
 10
0.0
 20
0.0
 30
0.0
  9
$PLIMCHECK
 70
     0
  9
$PEXTMIN
 10
1.0000000000E+20
 20
1.0000000000E+20
 30
1.0000000000E+20
  9
$PEXTMAX
 10
-1.0000000000E+20
 20
-1.0000000000E+20
 30
-1.0000000000E+20
  9
$PLIMMIN
 10
0.0
 20
0.0
  9
$PLIMMAX
 10
420.0
 20
297.0
  9
$UNITMODE
 70
     0
  9
$VISRETAIN
 70
     1
  9
$PLINEGEN
 70
     0
  9
$PSLTSCALE
 70
     1
  9
$TREEDEPTH
 70
  3020
  9
$CMLSTYLE
  2
Standard
  9
$CMLJUST
 70
     0
  9
$CMLSCALE
 40
20.0
  9
$PROXYGRAPHICS
 70
     1
  9
$MEASUREMENT
 70
     1
  9
$CELWEIGHT
370
    -1
  9
$ENDCAPS
280
     0
  9
$JOINSTYLE
280
     0
  9
$LWDISPLAY
290
     1
  9
$INSUNITS
 70
     4
  9
$HYPERLINKBASE
  1

  9
$STYLESHEET
  1

  9
$XEDIT
290
     1
  9
$CEPSNTYPE
380
     0
  9
$PSTYLEMODE
290
     1
  9
$FINGERPRINTGUID
  2
{94817fa6-fe0b-48f9-9538-14209ccfe5f0}
  9
$VERSIONGUID
  2
{FAEB1C32-E019-11D5-929B-00C0DF256EC4}
  9
$EXTNAMES
290
     1
  9
$PSVPSCALE
 40
0.0
  9
$OLESTARTUP
290
     0
  0
ENDSEC
  0
SECTION
  2
CLASSES
  0
CLASS
  1
ACDBDICTIONARYWDFLT
  2
AcDbDictionaryWithDefault
  3
ObjectDBX Classes
 90
        0
280
     0
281
     0
  0
CLASS
  1
VISUALSTYLE
  2
AcDbVisualStyle
  3
ObjectDBX Classes
 90
     4095
280
     0
281
     0
  0
CLASS
  1
MATERIAL
  2
AcDbMaterial
  3
ObjectDBX Classes
 90
     1153
280
     0
281
     0
  0
CLASS
  1
SCALE
  2
AcDbScale
  3
ObjectDBX Classes
 90
     1153
280
     0
281
     0
  0
CLASS
  1
TABLESTYLE
  2
AcDbTableStyle
  3
ObjectDBX Classes
 90
     4095
280
     0
281
     0
  0
CLASS
  1
MLEADERSTYLE
  2
AcDbMLeaderStyle
  3
ACDB_MLEADERSTYLE_CLASS
 90
     4095
280
     0
281
     0
  0
CLASS
  1
SUN
  2
AcDbSun
  3
SCENEOE
 90
     1153
280
     0
281
     0
  0
CLASS
  1
ACDBPLACEHOLDER
  2
AcDbPlaceHolder
  3
ObjectDBX Classes
 90
        0
280
     0
281
     0
  0
CLASS
  1
LAYOUT
  2
AcDbLayout
  3
ObjectDBX Classes
 90
        0
280
     0
281
     0
  0
ENDSEC
  0
SECTION
  2
TABLES
  0
TABLE
  2
VPORT
  5
8
330
0
100
AcDbSymbolTable
 70
     1
  0
VPORT
  5
29
330
8
100
AcDbSymbolTableRecord
100
AcDbViewportTableRecord
  2
*Active
 70
     0
 10
0.0
 20
0.0
 11
1.0
 21
1.0
 12
-9380.4625488422
 22
6352.1293972302
 13
0.0
 23
0.0
 14
10.0
 24
10.0
 15
10.0
 25
10.0
 16
0.0
 26
0.0
 36
1.0
 17
0.0
 27
0.0
 37
0.0
 40
90.02006634
 41
0.9900693748
 42
50.0
 43
0.0
 44
0.0
 50
0.0
 51
0.0
 71
     0
 72
   100
 73
     1
 74
     3
 75
     0
 76
     0
 77
     0
 78
     0
281
     0
 65
     1
110
0.0
120
0.0
130
0.0
111
1.0
121
0.0
131
0.0
112
0.0
122
1.0
132
0.0
 79
     0
146
0.0
  0
ENDTAB
  0
TABLE
  2
LTYPE
  5
5
330
0
100
AcDbSymbolTable
 70
     6
  0
LTYPE
  5
14
330
5
100
AcDbSymbolTableRecord
100
AcDbLinetypeTableRecord
  2
ByBlock
 70
     0
  3

 72
    65
 73
     0
 40
0.0
  0
LTYPE
  5
15
330
5
100
AcDbSymbolTableRecord
100
AcDbLinetypeTableRecord
  2
ByLayer
 70
     0
  3

 72
    65
 73
     0
 40
0.0
  0
LTYPE
  5
16
330
5
100
AcDbSymbolTableRecord
100
AcDbLinetypeTableRecord
  2
Continuous
 70
     0
  3
Solid line
 72
    65
 73
     0
 40
0.0
  0
LTYPE
  5
6E
330
5
100
AcDbSymbolTableRecord
100
AcDbLinetypeTableRecord
  2
HIDDEN
 70
     0
  3
Hidden __ __ __ __ __ __ __ __ __ __ __ __ __ __
 72
    65
 73
     2
 40
1.905
 49
1.27
 74
     0
 49
-0.635
 74
     0
  0
LTYPE
  5
6F
330
5
100
AcDbSymbolTableRecord
100
AcDbLinetypeTableRecord
  2
PHANTOM
 70
     0
  3
Phantom ______  __  __  ______  __  __  ______
 72
    65
 73
     6
 40
12.7
 49
6.35
 74
     0
 49
-1.27
 74
     0
 49
1.27
 74
     0
 49
-1.27
 74
     0
 49
1.27
 74
     0
 49
-1.27
 74
     0
  0
LTYPE
  5
70
330
5
100
AcDbSymbolTableRecord
100
AcDbLinetypeTableRecord
  2
CENTER
 70
     0
  3
Center ____ _ ____ _ ____ _ ____ _ ____ _ ____
 72
    65
 73
     4
 40
10.16
 49
6.35
 74
     0
 49
-1.27
 74
     0
 49
1.27
 74
     0
 49
-1.27
 74
     0
  0
LTYPE
  5
71
330
5
100
AcDbSymbolTableRecord
100
AcDbLinetypeTableRecord
  2
CENTERX2
 70
     0
  3
Center (2x) ________  __  ________  __  _____
 72
    65
 73
     4
 40
20.32
 49
12.7
 74
     0
 49
-2.54
 74
     0
 49
2.54
 74
     0
 49
-2.54
 74
     0
  0
LTYPE
  5
72
330
5
100
AcDbSymbolTableRecord
100
AcDbLinetypeTableRecord
  2
DOT2
 70
     0
  3
Dot (.5x) ........................................
 72
    65
 73
     2
 40
0.635
 49
0.0
 74
     0
 49
-0.635
 74
     0
  0
ENDTAB
  0
TABLE
  2
LAYER
  5
2
330
0
100
AcDbSymbolTable
 70
     1
  0
LAYER
  5
10
330
2
100
AcDbSymbolTableRecord
100
AcDbLayerTableRecord
  2
0
 70
     0
 62
     7
  6
Continuous
370
    -3
390
F
  0
ENDTAB
  0
TABLE
  2
STYLE
  5
3
330
0
100
AcDbSymbolTable
 70
     1
  0
STYLE
  5
11
330
3
100
AcDbSymbolTableRecord
100
AcDbTextStyleTableRecord
  2
Standard
 70
     0
 40
0.0
 41
1.0
 50
0.0
 71
     0
 42
4.0
  3
txt
  4

  0
ENDTAB
  0
TABLE
  2
VIEW
  5
6
330
0
100
AcDbSymbolTable
 70
     0
  0
ENDTAB
  0
TABLE
  2
UCS
  5
7
330
0
100
AcDbSymbolTable
 70
     0
  0
ENDTAB
  0
TABLE
  2
APPID
  5
9
330
0
100
AcDbSymbolTable
 70
     1
  0
APPID
  5
12
330
9
100
AcDbSymbolTableRecord
100
AcDbRegAppTableRecord
  2
ACAD
 70
     0
  0
ENDTAB
  0
TABLE
  2
DIMSTYLE
  5
A
330
0
100
AcDbSymbolTable
 70
     1
100
AcDbDimStyleTable
  0
DIMSTYLE
105
27
330
A
100
AcDbSymbolTableRecord
100
AcDbDimStyleTableRecord
  2
ISO-25
 70
     0
 41
2.5
 42
0.625
 43
3.75
 44
1.25
 73
     0
 74
     0
 77
     1
 78
     8
140
2.5
141
2.5
143
0.0393700787
147
0.625
171
     3
172
     1
178
     0
271
     2
272
     2
274
     3
278
    44
283
     0
284
     8
340
11
  0
ENDTAB
  0
TABLE
  2
BLOCK_RECORD
  5
1
330
0
100
AcDbSymbolTable
 70
     1
  0
BLOCK_RECORD
  5
1F
330
1
100
AcDbSymbolTableRecord
100
AcDbBlockTableRecord
  2
*Model_Space
340
22
  0
BLOCK_RECORD
  5
1B
330
1
100
AcDbSymbolTableRecord
100
AcDbBlockTableRecord
  2
*Paper_Space
340
1E
  0
BLOCK_RECORD
  5
23
330
1
100
AcDbSymbolTableRecord
100
AcDbBlockTableRecord
  2
*Paper_Space0
340
26
  0
ENDTAB
  0
ENDSEC
  0
SECTION
  2
BLOCKS
  0
BLOCK
  5
20
330
1F
100
AcDbEntity
  8
0
100
AcDbBlockBegin
  2
*Model_Space
 70
     0
 10
0.0
 20
0.0
 30
0.0
  3
*Model_Space
  1

  0
ENDBLK
  5
21
330
1F
100
AcDbEntity
  8
0
100
AcDbBlockEnd
  0
BLOCK
  5
1C
330
1B
100
AcDbEntity
 67
     1
  8
0
100
AcDbBlockBegin
  2
*Paper_Space
 70
     0
 10
0.0
 20
0.0
 30
0.0
  3
*Paper_Space
  1

  0
ENDBLK
  5
1D
330
1B
100
AcDbEntity
 67
     1
  8
0
100
AcDbBlockEnd
  0
BLOCK
  5
24
330
23
100
AcDbEntity
  8
0
100
AcDbBlockBegin
  2
*Paper_Space0
 70
     0
 10
0.0
 20
0.0
 30
0.0
  3
*Paper_Space0
  1

  0
ENDBLK
  5
25
330
23
100
AcDbEntity
  8
0
100
AcDbBlockEnd
  0
ENDSEC
  0
SECTION
  2
ENTITIES
  0
SPLINE
  5
73
330
1F
100
AcDbEntity
  8
0
  6
Continuous
 62
     7
370
    25
100
AcDbSpline
210
0.0
220
0.0
230
1.0
 70
     8
 71
     3
 72
    15
 73
    11
 74
     0
 42
0.000000001
 43
0.00000001
 40
0.0
 40
0.0
 40
0.0
 40
0.0
 40
0.1212059526124594
 40
0.2293436564902881
 40
0.3347681309252795
 40
0.4407596617558581
 40
0.5558130396878956
 40
0.6851533834086926
 40
0.8321371907837514
 40
1.0
 40
1.0
 40
1.0
 40
1.0
 10
-9382.565832008318
 20
6363.589040687389
 30
0.0
 10
-9382.566754065387
 20
6363.567977962112
 30
0.0
 10
-9382.568498764676
 20
6363.528123463826
 30
0.0
 10
-9382.58693517825
 20
6363.472441709328
 30
0.0
 10
-9382.616052515416
 20
6363.424650971981
 30
0.0
 10
-9382.658781887161
 20
6363.386510101748
 30
0.0
 10
-9382.712511663121
 20
6363.357469634513
 30
0.0
 10
-9382.777411137096
 20
6363.336646206167
 30
0.0
 10
-9382.853883047132
 20
6363.326017621348
 30
0.0
 10
-9382.908391854786
 20
6363.32411393103
 30
0.0
 10
-9382.93745362994
 20
6363.323098964414
 30
0.0
  0
SPLINE
  5
74
330
1F
100
AcDbEntity
  8
0
  6
Continuous
 62
     7
370
    25
100
AcDbSpline
210
0.0
220
0.0
230
1.0
 70
     8
 71
     3
 72
    15
 73
    11
 74
     0
 42
0.000000001
 43
0.00000001
 40
0.0
 40
0.0
 40
0.0
 40
0.0
 40
0.1538927873090695
 40
0.2894095627950802
 40
0.4110724936372407
 40
0.5232401736076194
 40
0.6301460973349662
 40
0.7423137773053604
 40
0.8639767081475291
 40
1.0
 40
1.0
 40
1.0
 40
1.0
 10
-9382.93745362994
 20
6363.323098964414
 30
0.0
 10
-9382.960718140892
 20
6363.324111306054
 30
0.0
 10
-9383.004469196809
 20
6363.326015107759
 30
0.0
 10
-9383.066037394718
 20
6363.336798039753
 30
0.0
 10
-9383.118298612
 20
6363.357844723253
 30
0.0
 10
-9383.161005054584
 20
6363.38735548553
 30
0.0
 10
-9383.195381411444
 20
6363.424596531782
 30
0.0
 10
-9383.218386794524
 20
6363.471330284496
 30
0.0
 10
-9383.232525950654
 20
6363.525895495449
 30
0.0
 10
-9383.233982216736
 20
6363.564944283482
 30
0.0
 10
-9383.234750927239
 20
6363.585556734685
 30
0.0
  0
SPLINE
  5
78
330
1F
100
AcDbEntity
  8
0
  6
Continuous
 62
     7
370
    25
100
AcDbSpline
210
0.0
220
0.0
230
1.0
 70
     8
 71
     3
 72
    11
 73
     7
 74
     0
 42
0.000000001
 43
0.00000001
 40
0.0
 40
0.0
 40
0.0
 40
0.0
 40
0.2301959670043825
 40
0.4560600787794491
 40
0.703187833032693
 40
1.0
 40
1.0
 40
1.0
 40
1.0
 10
-9385.334413089402
 20
6363.510071092794
 30
0.0
 10
-9385.346293979988
 20
6363.481609528218
 30
0.0
 10
-9385.369832185144
 20
6363.42522199219
 30
0.0
 10
-9385.443434216744
 20
6363.363046974271
 30
0.0
 10
-9385.540912885554
 20
6363.32798931301
 30
0.0
 10
-9385.613180028537
 20
6363.324825412656
 30
0.0
 10
-9385.652614102915
 20
6363.323098964414
 30
0.0
  0
SPLINE
  5
79
330
1F
100
AcDbEntity
  8
0
  6
Continuous
 62
     7
370
    25
100
AcDbSpline
210
0.0
220
0.0
230
1.0
 70
     8
 71
     3
 72
    15
 73
    11
 74
     0
 42
0.000000001
 43
0.00000001
 40
0.0
 40
0.0
 40
0.0
 40
0.0
 40
0.1490635051903423
 40
0.2818442409441245
 40
0.4007315270714056
 40
0.5112289549476212
 40
0.6207008624671319
 40
0.7358837692991229
 40
0.8588803628870276
 40
1.0
 40
1.0
 40
1.0
 40
1.0
 10
-9385.652614102915
 20
6363.323098964414
 30
0.0
 10
-9385.674317717145
 20
6363.324144164728
 30
0.0
 10
-9385.715354177886
 20
6363.326120394177
 30
0.0
 10
-9385.77330891151
 20
6363.336603882563
 30
0.0
 10
-9385.82172734535
 20
6363.358434344775
 30
0.0
 10
-9385.86327613056
 20
6363.386124756431
 30
0.0
 10
-9385.893800359514
 20
6363.425130893147
 30
0.0
 10
-9385.916112847854
 20
6363.470992329997
 30
0.0
 10
-9385.92887501182
 20
6363.525282721007
 30
0.0
 10
-9385.930475281104
 20
6363.56380996828
 30
0.0
 10
-9385.93133031913
 20
6363.584395417118
 30
0.0
  0
SPLINE
  5
7A
330
1F
100
AcDbEntity
  8
0
  6
Continuous
 62
     7
370
    25
100
AcDbSpline
210
0.0
220
0.0
230
1.0
 70
     8
 71
     3
 72
     9
 73
     5
 74
     0
 42
0.000000001
 43
0.00000001
 40
0.0
 40
0.0
 40
0.0
 40
0.0
 40
0.4957413518340332
 40
1.0
 40
1.0
 40
1.0
 40
1.0
 10
-9385.93133031913
 20
6363.584395417118
 30
0.0
 10
-9385.930152738847
 20
6363.598778299776
 30
0.0
 10
-9385.92777734636
 20
6363.627791176359
 30
0.0
 10
-9385.920875050631
 20
6363.656072044687
 30
0.0
 10
-9385.917394508318
 20
6363.670332917118
 30
0.0
  0
SPLINE
  5
7C
330
1F
100
AcDbEntity
  8
0
  6
Continuous
 62
     7
370
    25
100
AcDbSpline
210
0.0
220
0.0
230
1.0
 70
     8
 71
     3
 72
    11
 73
     7
 74
     0
 42
0.000000001
 43
0.00000001
 40
0.0
 40
0.0
 40
0.0
 40
0.0
 40
0.2624685167006878
 40
0.4999991169492145
 40
0.7366564399761133
 40
1.0
 40
1.0
 40
1.0
 40
1.0
 10
-9384.37516477859
 20
6368.636126836037
 30
0.0
 10
-9384.364124804795
 20
6368.664197095718
 30
0.0
 10
-9384.343093798037
 20
6368.717670576002
 30
0.0
 10
-9384.284287010636
 20
6368.780849491194
 30
0.0
 10
-9384.206075511647
 20
6368.81758516791
 30
0.0
 10
-9384.148721278621
 20
6368.821196778824
 30
0.0
 10
-9384.118513596157
 20
6368.823098964416
 30
0.0
  0
SPLINE
  5
7E
330
1F
100
AcDbEntity
  8
0
  6
Continuous
 62
     7
370
    25
100
AcDbSpline
210
0.0
220
0.0
230
1.0
 70
     8
 71
     3
 72
    15
 73
    11
 74
     0
 42
0.000000001
 43
0.00000001
 40
0.0
 40
0.0
 40
0.0
 40
0.0
 40
0.1678628092162538
 40
0.3148466165913172
 40
0.4441869603121182
 40
0.5592403382442007
 40
0.6652318690747827
 40
0.7706563435097048
 40
0.8787940473875369
 40
1.0
 40
1.0
 40
1.0
 40
1.0
 10
-9382.93745362994
 20
6368.823098964416
 30
0.0
 10
-9382.908391854786
 20
6368.8220839978
 30
0.0
 10
-9382.853883047132
 20
6368.820180307483
 30
0.0
 10
-9382.777411137096
 20
6368.809551722664
 30
0.0
 10
-9382.712511663121
 20
6368.788728294317
 30
0.0
 10
-9382.658781887161
 20
6368.759687827082
 30
0.0
 10
-9382.616052515416
 20
6368.72154695685
 30
0.0
 10
-9382.58693517825
 20
6368.673756219503
 30
0.0
 10
-9382.568498764676
 20
6368.618074465005
 30
0.0
 10
-9382.566754065387
 20
6368.578219966719
 30
0.0
 10
-9382.565832008318
 20
6368.557157241442
 30
0.0
  0
SPLINE
  5
80
330
1F
100
AcDbEntity
  8
0
  6
Continuous
 62
     7
370
    25
100
AcDbSpline
210
0.0
220
0.0
230
1.0
 70
     8
 71
     3
 72
    15
 73
    11
 74
     0
 42
0.000000001
 43
0.00000001
 40
0.0
 40
0.0
 40
0.0
 40
0.0
 40
0.125742112782426
 40
0.2483729038226463
 40
0.3698227131065071
 40
0.4987247648984502
 40
0.6269159236704895
 40
0.7508402192895814
 40
0.8731555254027737
 40
1.0
 40
1.0
 40
1.0
 40
1.0
 10
-9378.805021197508
 20
6365.332178356308
 30
0.0
 10
-9378.807500464109
 20
6365.37618289529
 30
0.0
 10
-9378.812397651149
 20
6365.463103139327
 30
0.0
 10
-9378.850692817516
 20
6365.587966920065
 30
0.0
 10
-9378.914394241207
 20
6365.702645211985
 30
0.0
 10
-9379.000801649943
 20
6365.803866701703
 30
0.0
 10
-9379.103353057732
 20
6365.889795994676
 30
0.0
 10
-9379.218276257225
 20
6365.95430553075
 30
0.0
 10
-9379.34476693307
 20
6365.991164600401
 30
0.0
 10
-9379.431902833363
 20
6365.996207404554
 30
0.0
 10
-9379.476262751561
 20
6365.998774640091
 30
0.0
  0
SPLINE
  5
84
330
1F
100
AcDbEntity
  8
0
  6
Continuous
 62
     7
370
    25
100
AcDbSpline
210
0.0
220
0.0
230
1.0
 70
     8
 71
     3
 72
    23
 73
    19
 74
     0
 42
0.000000001
 43
0.00000001
 40
0.0
 40
0.0
 40
0.0
 40
0.0
 40
0.0602270928970658
 40
0.1192957320091929
 40
0.1779404947570694
 40
0.2364844162257823
 40
0.2954167439820598
 40
0.3556629103136768
 40
0.4181241147893825
 40
0.4821809927853114
 40
0.5466999757700494
 40
0.6101828950384182
 40
0.6730761809147217
 40
0.7353821562772042
 40
0.7989787332068606
 40
0.8641683702521958
 40
0.9306148387332319
 40
1.0
 40
1.0
 40
1.0
 40
1.0
 10
-9378.13610227859
 20
6364.569192714415
 30
0.0
 10
-9378.13722940966
 20
6364.528493089374
 30
0.0
 10
-9378.139461991706
 20
6364.447876686885
 30
0.0
 10
-9378.156984709412
 20
6364.328569399318
 30
0.0
 10
-9378.188031513753
 20
6364.213451804456
 30
0.0
 10
-9378.227897743327
 20
6364.101085347489
 30
0.0
 10
-9378.28249753289
 20
6363.99384904465
 30
0.0
 10
-9378.34762366431
 20
6363.889609714546
 30
0.0
 10
-9378.425914027386
 20
6363.79040848256
 30
0.0
 10
-9378.513346276344
 20
6363.695227151037
 30
0.0
 10
-9378.61061650467
 20
6363.609080527675
 30
0.0
 10
-9378.713761737294
 20
6363.531254647542
 30
0.0
 10
-9378.824701208134
 20
6363.467839988542
 30
0.0
 10
-9378.940956430764
 20
6363.415038020529
 30
0.0
 10
-9379.06317242431
 20
6363.372543066397
 30
0.0
 10
-9379.192264705685
 20
6363.344425990515
 30
0.0
 10
-9379.327091698166
 20
6363.326174755081
 30
0.0
 10
-9379.41890901136
 20
6363.324138909686
 30
0.0
 10
-9379.465810893455
 20
6363.323098964414
 30
0.0
  0
SPLINE
  5
86
330
1F
100
AcDbEntity
  8
0
  6
Continuous
 62
     7
370
    25
100
AcDbSpline
210
0.0
220
0.0
230
1.0
 70
     8
 71
     3
 72
    15
 73
    11
 74
     0
 42
0.000000001
 43
0.00000001
 40
0.0
 40
0.0
 40
0.0
 40
0.0
 40
0.1472985846903836
 40
0.275650493088727
 40
0.3928141444240422
 40
0.503399029945614
 40
0.611866794994541
 40
0.7290304463298561
 40
0.8553653506995125
 40
1.0
 40
1.0
 40
1.0
 40
1.0
 10
-9380.838488258318
 20
6363.323098964414
 30
0.0
 10
-9380.85982010047
 20
6363.324094332457
 30
0.0
 10
-9380.899739919249
 20
6363.325957036651
 30
0.0
 10
-9380.956013287898
 20
6363.336891630452
 30
0.0
 10
-9381.003453268779
 20
6363.358237251299
 30
0.0
 10
-9381.043032375768
 20
6363.387480671267
 30
0.0
 10
-9381.073199730894
 20
6363.426536234751
 30
0.0
 10
-9381.093523334985
 20
6363.473699630248
 30
0.0
 10
-9381.106721595686
 20
6363.528726614691
 30
0.0
 10
-9381.108256154475
 20
6363.56805075348
 30
0.0
 10
-9381.109075251561
 20
6363.589040687388
 30
0.0
  0
SPLINE
  5
88
330
1F
100
AcDbEntity
  8
0
  6
Continuous
 62
     7
370
    25
100
AcDbSpline
210
0.0
220
0.0
230
1.0
 70
     8
 71
     3
 72
    15
 73
    11
 74
     0
 42
0.000000001
 43
0.00000001
 40
0.0
 40
0.0
 40
0.0
 40
0.0
 40
0.1376465333874771
 40
0.2584939900653896
 40
0.3721777144533592
 40
0.4802669656692575
 40
0.5916828156085331
 40
0.7125302722863883
 40
0.847138714983627
 40
1.0
 40
1.0
 40
1.0
 40
1.0
 10
-9381.109075251561
 20
6368.557157241442
 30
0.0
 10
-9381.108350013556
 20
6368.578164283647
 30
0.0
 10
-9381.106988049243
 20
6368.617614562747
 30
0.0
 10
-9381.092487344464
 20
6368.672840792877
 30
0.0
 10
-9381.069707077444
 20
6368.720298357489
 30
0.0
 10
-9381.035734266863
 20
6368.75883634881
 30
0.0
 10
-9380.992574075943
 20
6368.788306000223
 30
0.0
 10
-9380.94037685088
 20
6368.809414508361
 30
0.0
 10
-9380.878788941694
 20
6368.820178396752
 30
0.0
 10
-9380.83504087546
 20
6368.822085086871
 30
0.0
 10
-9380.811777954264
 20
6368.823098964415
 30
0.0
  0
SPLINE
  5
89
330
1F
100
AcDbEntity
  8
0
  6
Continuous
 62
     7
370
    25
100
AcDbSpline
210
0.0
220
0.0
230
1.0
 70
     8
 71
     3
 72
    15
 73
    11
 74
     0
 42
0.000000001
 43
0.00000001
 40
0.0
 40
0.0
 40
0.0
 40
0.0
 40
0.1691382693020613
 40
0.3176902073341323
 40
0.4474110356377731
 40
0.5634106106292803
 40
0.6687664326273575
 40
0.7731538901271122
 40
0.8800408488353527
 40
1.0
 40
1.0
 40
1.0
 40
1.0
 10
-9380.811777954264
 20
6368.823098964415
 30
0.0
 10
-9380.782668748736
 20
6368.822787069416
 30
0.0
 10
-9380.72799330729
 20
6368.822201241104
 30
0.0
 10
-9380.652129312362
 20
6368.808715093798
 30
0.0
 10
-9380.586554500582
 20
6368.790332811564
 30
0.0
 10
-9380.533539820392
 20
6368.760661336337
 30
0.0
 10
-9380.490401526371
 20
6368.72403956049
 30
0.0
 10
-9380.461287756669
 20
6368.677275756246
 30
0.0
 10
-9380.442809302987
 20
6368.622755229744
 30
0.0
 10
-9380.441073989052
 20
6368.583645538736
 30
0.0
 10
-9380.440156332643
 20
6368.56296382928
 30
0.0
  0
SPLINE
  5
8C
330
1F
100
AcDbEntity
  8
0
  6
Continuous
 62
     7
370
    25
100
AcDbSpline
210
0.0
220
0.0
230
1.0
 70
     8
 71
     3
 72
    23
 73
    19
 74
     0
 42
0.000000001
 43
0.00000001
 40
0.0
 40
0.0
 40
0.0
 40
0.0
 40
0.0685531417639155
 40
0.1347179803294531
 40
0.199196254684366
 40
0.262338730775202
 40
0.3251763369186062
 40
0.3873915998288019
 40
0.4512397782103684
 40
0.5161347178016035
 40
0.5810659883891778
 40
0.6431755650827102
 40
0.7039028057300915
 40
0.7628279826377736
 40
0.8215928497892443
 40
0.8802974879192982
 40
0.9395647256157742
 40
1.0
 40
1.0
 40
1.0
 40
1.0
 10
-9379.4391005894
 20
6366.593369234685
 30
0.0
 10
-9379.393374081501
 20
6366.592259061596
 30
0.0
 10
-9379.303514118365
 20
6366.590077392418
 30
0.0
 10
-9379.171468236516
 20
6366.57271267088
 30
0.0
 10
-9379.045819629893
 20
6366.541808769948
 30
0.0
 10
-9378.92502021598
 20
6366.5018056389
 30
0.0
 10
-9378.81143248974
 20
6366.447773547963
 30
0.0
 10
-9378.702996010135
 20
6366.383290885645
 30
0.0
 10
-9378.600931876585
 20
6366.306669744623
 30
0.0
 10
-9378.506349686322
 20
6366.218394035186
 30
0.0
 10
-9378.420642704667
 20
6366.123169931775
 30
0.0
 10
-9378.343826044405
 20
6366.024032901237
 30
0.0
 10
-9378.280341311905
 20
6365.920530807926
 30
0.0
 10
-9378.227026883931
 20
6365.813949607559
 30
0.0
 10
-9378.186446323178
 20
6365.703255319289
 30
0.0
 10
-9378.157384763677
 20
6365.588866270994
 30
0.0
 10
-9378.139355229605
 20
6365.470947917692
 30
0.0
 10
-9378.137193626446
 20
6365.391082036703
 30
0.0
 10
-9378.13610227859
 20
6365.350759437388
 30
0.0
  0
SPLINE
  5
8F
330
1F
100
AcDbEntity
  8
0
  6
Continuous
 62
     7
370
    25
100
AcDbSpline
210
0.0
220
0.0
230
1.0
 70
     8
 71
     3
 72
    15
 73
    11
 74
     0
 42
0.000000001
 43
0.00000001
 40
0.0
 40
0.0
 40
0.0
 40
0.0
 40
0.1274086638639906
 40
0.2492093999587557
 40
0.3720839042324983
 40
0.4997357737771565
 40
0.6273876433217822
 40
0.7507906000412413
 40
0.8725913361359255
 40
1.0
 40
1.0
 40
1.0
 40
1.0
 10
-9379.476262751561
 20
6363.91769355901
 30
0.0
 10
-9379.431498566937
 20
6363.920203242661
 30
0.0
 10
-9379.343940505722
 20
6363.925112145541
 30
0.0
 10
-9379.217444277525
 20
6363.962404708354
 30
0.0
 10
-9379.101932341884
 20
6364.025339291115
 30
0.0
 10
-9378.999590024367
 20
6364.111144185496
 30
0.0
 10
-9378.914045586314
 20
6364.213754036535
 30
0.0
 10
-9378.849479865667
 20
6364.328612637924
 30
0.0
 10
-9378.812519823787
 20
6364.455494269662
 30
0.0
 10
-9378.807557958344
 20
6364.54302406291
 30
0.0
 10
-9378.805021197508
 20
6364.587773795496
 30
0.0
  0
SPLINE
  5
90
330
1F
100
AcDbEntity
  8
0
  6
Continuous
 62
     7
370
    25
100
AcDbSpline
210
0.0
220
0.0
230
1.0
 70
     8
 71
     3
 72
    15
 73
    11
 74
     0
 42
0.000000001
 43
0.00000001
 40
0.0
 40
0.0
 40
0.0
 40
0.0
 40
0.1163154394521568
 40
0.2345647128656814
 40
0.3584180389837495
 40
0.4893481039549444
 40
0.6213683425081122
 40
0.7487484467134403
 40
0.8742380891698308
 40
1.0
 40
1.0
 40
1.0
 40
1.0
 10
-9374.420582852914
 20
6366.382009437389
 30
0.0
 10
-9374.375906237176
 20
6366.359513048026
 30
0.0
 10
-9374.285810222478
 20
6366.314146249465
 30
0.0
 10
-9374.165547740316
 20
6366.216783940992
 30
0.0
 10
-9374.055302232771
 20
6366.100175213679
 30
0.0
 10
-9373.961421774371
 20
6365.962698400134
 30
0.0
 10
-9373.881645557802
 20
6365.815146560892
 30
0.0
 10
-9373.822210810999
 20
6365.660543317147
 30
0.0
 10
-9373.78775501304
 20
6365.500928286373
 30
0.0
 10
-9373.783051285533
 20
6365.393112548055
 30
0.0
 10
-9373.780696873184
 20
6365.339146261713
 30
0.0
  0
SPLINE
  5
92
330
1F
100
AcDbEntity
  8
0
  6
Continuous
 62
     7
370
    25
100
AcDbSpline
210
0.0
220
0.0
230
1.0
 70
     8
 71
     3
 72
    23
 73
    19
 74
     0
 42
0.000000001
 43
0.00000001
 40
0.0
 40
0.0
 40
0.0
 40
0.0
 40
0.0573718688435185
 40
0.1142717744853532
 40
0.1712775514510554
 40
0.2292072316113964
 40
0.2887537053420934
 40
0.3497535252114185
 40
0.4136630964478275
 40
0.4804032883989472
 40
0.5476011670425152
 40
0.612887525805177
 40
0.6770090262773544
 40
0.7404371873975992
 40
0.8035874726883286
 40
0.8673185838669389
 40
0.9327996288997346
 40
1.0
 40
1.0
 40
1.0
 40
1.0
 10
-9373.780696873184
 20
6364.56222480901
 30
0.0
 10
-9373.78169049817
 20
6364.523818639505
 30
0.0
 10
-9373.783669574199
 20
6364.447322244515
 30
0.0
 10
-9373.803438262707
 20
6364.334139827414
 30
0.0
 10
-9373.833297849147
 20
6364.222987532503
 30
0.0
 10
-9373.876832832786
 20
6364.114419869155
 30
0.0
 10
-9373.932723636543
 20
6364.008696238408
 30
0.0
 10
-9374.001287429199
 20
6363.905963450272
 30
0.0
 10
-9374.079868107765
 20
6363.804493011878
 30
0.0
 10
-9374.171174853214
 20
6363.708453437244
 30
0.0
 10
-9374.26969027021
 20
6363.618587462374
 30
0.0
 10
-9374.374402060766
 20
6363.538611319691
 30
0.0
 10
-9374.485480209325
 20
6363.472626694023
 30
0.0
 10
-9374.600642586565
 20
6363.417316479748
 30
0.0
 10
-9374.721185620005
 20
6363.375606290459
 30
0.0
 10
-9374.846372936452
 20
6363.345364089313
 30
0.0
 10
-9374.976639028728
 20
6363.32602864879
 30
0.0
 10
-9375.065433127977
 20
6363.324083925977
 30
0.0
 10
-9375.110405488049
 20
6363.323098964414
 30
0.0
  0
SPLINE
  5
95
330
1F
100
AcDbEntity
  8
0
  6
Continuous
 62
     7
370
    25
100
AcDbSpline
210
0.0
220
0.0
230
1.0
 70
     8
 71
     3
 72
    15
 73
    11
 74
     0
 42
0.000000001
 43
0.00000001
 40
0.0
 40
0.0
 40
0.0
 40
0.0
 40
0.127668425188462
 40
0.2497174891406477
 40
0.3724052965255857
 40
0.4994696317434587
 40
0.6273817584612776
 40
0.7490098240592992
 40
0.8724320578183624
 40
1.0
 40
1.0
 40
1.0
 40
1.0
 10
-9374.449615792102
 20
6365.332178356308
 30
0.0
 10
-9374.452164932578
 20
6365.376923102188
 30
0.0
 10
-9374.457151012404
 20
6365.464443141517
 30
0.0
 10
-9374.49383956945
 20
6365.591067057965
 30
0.0
 10
-9374.558656649231
 20
6365.705144160835
 30
0.0
 10
-9374.6446019604
 20
6365.80645727044
 30
0.0
 10
-9374.745952633346
 20
6365.892280868836
 30
0.0
 10
-9374.86198451821
 20
6365.95394028469
 30
0.0
 10
-9374.987899358539
 20
6365.993048443383
 30
0.0
 10
-9375.076052662107
 20
6365.996845004731
 30
0.0
 10
-9375.120857346157
 20
6365.998774640091
 30
0.0
  0
SPLINE
  5
97
330
1F
100
AcDbEntity
  8
0
  6
Continuous
 62
     7
370
    25
100
AcDbSpline
210
0.0
220
0.0
230
1.0
 70
     8
 71
     3
 72
    15
 73
    11
 74
     0
 42
0.000000001
 43
0.00000001
 40
0.0
 40
0.0
 40
0.0
 40
0.0
 40
0.1274086638639906
 40
0.2492093999587557
 40
0.3720839042324983
 40
0.4997357737771565
 40
0.6273876433217822
 40
0.7507906000412413
 40
0.8725913361359255
 40
1.0
 40
1.0
 40
1.0
 40
1.0
 10
-9375.120857346157
 20
6363.91769355901
 30
0.0
 10
-9375.076093161531
 20
6363.920203242661
 30
0.0
 10
-9374.988535100316
 20
6363.925112145541
 30
0.0
 10
-9374.862038872121
 20
6363.962404708354
 30
0.0
 10
-9374.746526936478
 20
6364.025339291115
 30
0.0
 10
-9374.644184618963
 20
6364.111144185496
 30
0.0
 10
-9374.558640180909
 20
6364.213754036535
 30
0.0
 10
-9374.494074460263
 20
6364.328612637924
 30
0.0
 10
-9374.457114418381
 20
6364.455494269662
 30
0.0
 10
-9374.452152552938
 20
6364.54302406291
 30
0.0
 10
-9374.449615792102
 20
6364.587773795496
 30
0.0
  0
SPLINE
  5
9B
330
1F
100
AcDbEntity
  8
0
  6
Continuous
 62
     7
370
    25
100
AcDbSpline
210
0.0
220
0.0
230
1.0
 70
     8
 71
     3
 72
    15
 73
    11
 74
     0
 42
0.000000001
 43
0.00000001
 40
0.0
 40
0.0
 40
0.0
 40
0.0
 40
0.1245304651428737
 40
0.2458327863376714
 40
0.3671677054605038
 40
0.4958115956038132
 40
0.6247420892947888
 40
0.7485399847073473
 40
0.8720393659864762
 40
1.0
 40
1.0
 40
1.0
 40
1.0
 10
-9374.672588765075
 20
6367.590941025226
 30
0.0
 10
-9374.674668061418
 20
6367.633010151672
 30
0.0
 10
-9374.678772753496
 20
6367.716057866632
 30
0.0
 10
-9374.716189720315
 20
6367.835525688508
 30
0.0
 10
-9374.778615825064
 20
6367.944952298923
 30
0.0
 10
-9374.86294083041
 20
6368.041825986576
 30
0.0
 10
-9374.962596481098
 20
6368.124234203542
 30
0.0
 10
-9375.075004343505
 20
6368.184480614108
 30
0.0
 10
-9375.197014962303
 20
6368.222542793749
 30
0.0
 10
-9375.282001883808
 20
6368.226493812263
 30
0.0
 10
-9375.325249238049
 20
6368.228504369821
 30
0.0
  0
SPLINE
  5
9D
330
1F
100
AcDbEntity
  8
0
  6
Continuous
 62
     7
370
    25
100
AcDbSpline
210
0.0
220
0.0
230
1.0
 70
     8
 71
     3
 72
    15
 73
    11
 74
     0
 42
0.000000001
 43
0.00000001
 40
0.0
 40
0.0
 40
0.0
 40
0.0
 40
0.1276284167036177
 40
0.250807163183303
 40
0.3742836487802331
 40
0.503606502831605
 40
0.6327873107114809
 40
0.7548054560999266
 40
0.8757928466041773
 40
1.0
 40
1.0
 40
1.0
 40
1.0
 10
-9375.325249238049
 20
6366.593369234685
 30
0.0
 10
-9375.281998418257
 20
6366.595375364892
 30
0.0
 10
-9375.197004686475
 20
6366.599317683061
 30
0.0
 10
-9375.075043820145
 20
6366.637443423043
 30
0.0
 10
-9374.962227092994
 20
6366.697562482797
 30
0.0
 10
-9374.862941312846
 20
6366.78133320163
 30
0.0
 10
-9374.778521505077
 20
6366.879258500802
 30
0.0
 10
-9374.716449669557
 20
6366.989587588781
 30
0.0
 10
-9374.67873217964
 20
6367.109278789273
 30
0.0
 10
-9374.674654418917
 20
6367.192340377709
 30
0.0
 10
-9374.672588765075
 20
6367.234416531983
 30
0.0
  0
SPLINE
  5
A0
330
1F
100
AcDbEntity
  8
0
  6
Continuous
 62
     7
370
    25
100
AcDbSpline
210
0.0
220
0.0
230
1.0
 70
     8
 71
     3
 72
    15
 73
    11
 74
     0
 42
0.000000001
 43
0.00000001
 40
0.0
 40
0.0
 40
0.0
 40
0.0
 40
0.1472985846903836
 40
0.275650493088727
 40
0.3928141444240422
 40
0.503399029945614
 40
0.611866794994541
 40
0.7290304463298561
 40
0.8553653506995125
 40
1.0
 40
1.0
 40
1.0
 40
1.0
 10
-9376.483082852912
 20
6363.323098964414
 30
0.0
 10
-9376.504414695064
 20
6363.324094332457
 30
0.0
 10
-9376.544334513843
 20
6363.325957036651
 30
0.0
 10
-9376.600607882492
 20
6363.336891630452
 30
0.0
 10
-9376.648047863373
 20
6363.358237251299
 30
0.0
 10
-9376.687626970364
 20
6363.387480671267
 30
0.0
 10
-9376.717794325488
 20
6363.426536234751
 30
0.0
 10
-9376.738117929579
 20
6363.473699630248
 30
0.0
 10
-9376.751316190283
 20
6363.528726614691
 30
0.0
 10
-9376.75285074907
 20
6363.56805075348
 30
0.0
 10
-9376.753669846157
 20
6363.589040687388
 30
0.0
  0
SPLINE
  5
A2
330
1F
100
AcDbEntity
  8
0
  6
Continuous
 62
     7
370
    25
100
AcDbSpline
210
0.0
220
0.0
230
1.0
 70
     8
 71
     3
 72
    15
 73
    11
 74
     0
 42
0.000000001
 43
0.00000001
 40
0.0
 40
0.0
 40
0.0
 40
0.0
 40
0.1451733701003992
 40
0.2713822329809646
 40
0.3889822838668692
 40
0.4995248231295111
 40
0.6083965981540747
 40
0.7259966490400729
 40
0.8548266298995932
 40
1.0
 40
1.0
 40
1.0
 40
1.0
 10
-9376.753669846157
 20
6368.557157241442
 30
0.0
 10
-9376.752707803125
 20
6368.578120504171
 30
0.0
 10
-9376.750909392127
 20
6368.617308524993
 30
0.0
 10
-9376.73952040262
 20
6368.672583400729
 30
0.0
 10
-9376.71907365633
 20
6368.720129148488
 30
0.0
 10
-9376.687625662898
 20
6368.757929984467
 30
0.0
 10
-9376.649180271335
 20
6368.788387343809
 30
0.0
 10
-9376.601692445553
 20
6368.809216561448
 30
0.0
 10
-9376.5458999387
 20
6368.820187980412
 30
0.0
 10
-9376.506356516178
 20
6368.822090804046
 30
0.0
 10
-9376.485405488049
 20
6368.823098964415
 30
0.0
  0
SPLINE
  5
A4
330
1F
100
AcDbEntity
  8
0
  6
Continuous
 62
     7
370
    25
100
AcDbSpline
210
0.0
220
0.0
230
1.0
 70
     8
 71
     3
 72
    23
 73
    19
 74
     0
 42
0.000000001
 43
0.00000001
 40
0.0
 40
0.0
 40
0.0
 40
0.0
 40
0.0699971325042474
 40
0.1369889410780487
 40
0.2025818669322393
 40
0.266326883320763
 40
0.3299959998499123
 40
0.3931968746882932
 40
0.4576209660458713
 40
0.5225816115472209
 40
0.5870057029047575
 40
0.6493260697673666
 40
0.7088254174031422
 40
0.7677033068043719
 40
0.8250025883224723
 40
0.8828865868295687
 40
0.9405703509601332
 40
1.0
 40
1.0
 40
1.0
 40
1.0
 10
-9375.318281332644
 20
6368.823098964415
 30
0.0
 10
-9375.272148655245
 20
6368.822082279108
 30
0.0
 10
-9375.181864005006
 20
6368.820092559833
 30
0.0
 10
-9375.049489175768
 20
6368.801537044202
 30
0.0
 10
-9374.922827030623
 20
6368.774643481429
 30
0.0
 10
-9374.802005561723
 20
6368.734341760822
 30
0.0
 10
-9374.686855137645
 20
6368.683722864312
 30
0.0
 10
-9374.577961630705
 20
6368.619870380193
 30
0.0
 10
-9374.474642700097
 20
6368.545916102988
 30
0.0
 10
-9374.379099007898
 20
6368.460983175642
 30
0.0
 10
-9374.29107117339
 20
6368.370262780229
 30
0.0
 10
-9374.214488410189
 20
6368.274137393979
 30
0.0
 10
-9374.149828331996
 20
6368.174026383348
 30
0.0
 10
-9374.096077369735
 20
6368.071287206867
 30
0.0
 10
-9374.055316850829
 20
6367.963891872216
 30
0.0
 10
-9374.024761788929
 20
6367.854027088281
 30
0.0
 10
-9374.00692715497
 20
6367.739784099416
 30
0.0
 10
-9374.004766353248
 20
6367.662616772196
 30
0.0
 10
-9374.003669846157
 20
6367.623457917119
 30
0.0
  0
SPLINE
  5
A6
330
1F
100
AcDbEntity
  8
0
  6
Continuous
 62
     7
370
    25
100
AcDbSpline
210
0.0
220
0.0
230
1.0
 70
     8
 71
     3
 72
    15
 73
    11
 74
     0
 42
0.000000001
 43
0.00000001
 40
0.0
 40
0.0
 40
0.0
 40
0.0
 40
0.1326594996416399
 40
0.2606826456506589
 40
0.3835988237724055
 40
0.5044542511718698
 40
0.6251139792614282
 40
0.7464377970802077
 40
0.8714347708675666
 40
1.0
 40
1.0
 40
1.0
 40
1.0
 10
-9374.003669846157
 20
6367.249513660361
 30
0.0
 10
-9374.00517932678
 20
6367.205325707517
 30
0.0
 10
-9374.008145532767
 20
6367.118494138842
 30
0.0
 10
-9374.026371751117
 20
6366.991706788118
 30
0.0
 10
-9374.058862558571
 20
6366.871786740603
 30
0.0
 10
-9374.106545311222
 20
6366.759906508864
 30
0.0
 10
-9374.1637242153
 20
6366.653030079247
 30
0.0
 10
-9374.237626755294
 20
6366.555262707889
 30
0.0
 10
-9374.321709314258
 20
6366.462460163041
 30
0.0
 10
-9374.387317250692
 20
6366.409076758679
 30
0.0
 10
-9374.420582852914
 20
6366.382009437389
 30
0.0
  0
SPLINE
  5
A7
330
1F
100
AcDbEntity
  8
0
  6
Continuous
 62
     7
370
    25
100
AcDbSpline
210
0.0
220
0.0
230
1.0
 70
     8
 71
     3
 72
    15
 73
    11
 74
     0
 42
0.000000001
 43
0.00000001
 40
0.0
 40
0.0
 40
0.0
 40
0.0
 40
0.122667397913831
 40
0.2322494730060359
 40
0.3370212333529924
 40
0.4438678834494304
 40
0.5582089319051672
 40
0.6867484913210551
 40
0.833176479061163
 40
0.9999999999999999
 40
0.9999999999999999
 40
0.9999999999999999
 40
0.9999999999999999
 10
-9371.729345521833
 20
6369.746346430631
 30
0.0
 10
-9371.730293555907
 20
6369.724915043831
 30
0.0
 10
-9371.732088494236
 20
6369.684338424655
 30
0.0
 10
-9371.750103419588
 20
6369.627650558741
 30
0.0
 10
-9371.779951560937
 20
6369.579647448414
 30
0.0
 10
-9371.821842403366
 20
6369.540244564824
 30
0.0
 10
-9371.87608211173
 20
6369.511285614446
 30
0.0
 10
-9371.941018216332
 20
6369.490777243943
 30
0.0
 10
-9372.017268631074
 20
6369.478235703867
 30
0.0
 10
-9372.071882355305
 20
6369.476619926827
 30
0.0
 10
-9372.100967143453
 20
6369.475759437389
 30
0.0
  0
SPLINE
  5
A8
330
1F
100
AcDbEntity
  8
0
  6
Continuous
 62
     7
370
    25
100
AcDbSpline
210
0.0
220
0.0
230
1.0
 70
     8
 71
     3
 72
    15
 73
    11
 74
     0
 42
0.000000001
 43
0.00000001
 40
0.0
 40
0.0
 40
0.0
 40
0.0
 40
0.1517345703400284
 40
0.285850249874709
 40
0.4058069603899681
 40
0.5164015829446214
 40
0.6256057515998064
 40
0.7384515324842752
 40
0.8608514970058627
 40
0.9999999999999999
 40
0.9999999999999999
 40
0.9999999999999999
 40
0.9999999999999999
 10
-9372.100967143453
 20
6369.475759437389
 30
0.0
 10
-9372.124259008819
 20
6369.476622476515
 30
0.0
 10
-9372.168138169121
 20
6369.478248341665
 30
0.0
 10
-9372.229440916688
 20
6369.490916132718
 30
0.0
 10
-9372.281721005647
 20
6369.51168012868
 30
0.0
 10
-9372.32536438763
 20
6369.541203625417
 30
0.0
 10
-9372.35851270411
 20
6369.580817782705
 30
0.0
 10
-9372.381980540997
 20
6369.628605573615
 30
0.0
 10
-9372.396102453116
 20
6369.684780435236
 30
0.0
 10
-9372.397513655584
 20
6369.724966643098
 30
0.0
 10
-9372.398264440752
 20
6369.746346430631
 30
0.0
  0
SPLINE
  5
A9
330
1F
100
AcDbEntity
  8
0
  6
Continuous
 62
     7
370
    25
100
AcDbSpline
210
0.0
220
0.0
230
1.0
 70
     8
 71
     3
 72
    15
 73
    11
 74
     0
 42
0.000000001
 43
0.00000001
 40
0.0
 40
0.0
 40
0.0
 40
0.0
 40
0.1376465333874771
 40
0.2584939900653896
 40
0.3721777144533592
 40
0.4802669656692575
 40
0.5916828156085331
 40
0.7125302722863883
 40
0.847138714983627
 40
1.0
 40
1.0
 40
1.0
 40
1.0
 10
-9372.398264440752
 20
6369.746346430631
 30
0.0
 10
-9372.397539202744
 20
6369.767353472837
 30
0.0
 10
-9372.396177238434
 20
6369.806803751936
 30
0.0
 10
-9372.381676533652
 20
6369.862029982066
 30
0.0
 10
-9372.358896266633
 20
6369.909487546678
 30
0.0
 10
-9372.324923456052
 20
6369.948025538
 30
0.0
 10
-9372.281763265131
 20
6369.977495189413
 30
0.0
 10
-9372.229566040069
 20
6369.99860369755
 30
0.0
 10
-9372.167978130885
 20
6370.009367585941
 30
0.0
 10
-9372.124230064648
 20
6370.011274276059
 30
0.0
 10
-9372.100967143453
 20
6370.012288153604
 30
0.0
  0
SPLINE
  5
AA
330
1F
100
AcDbEntity
  8
0
  6
Continuous
 62
     7
370
    25
100
AcDbSpline
210
0.0
220
0.0
230
1.0
 70
     8
 71
     3
 72
    15
 73
    11
 74
     0
 42
0.000000001
 43
0.00000001
 40
0.0
 40
0.0
 40
0.0
 40
0.0
 40
0.1678628092162588
 40
0.3148466165911576
 40
0.4441869603121248
 40
0.5592403382440615
 40
0.6652318690747727
 40
0.770656343509698
 40
0.8787940473875333
 40
1.0
 40
1.0
 40
1.0
 40
1.0
 10
-9372.100967143453
 20
6370.012288153604
 30
0.0
 10
-9372.071905368299
 20
6370.011273186989
 30
0.0
 10
-9372.017396560645
 20
6370.009369496672
 30
0.0
 10
-9371.940924650611
 20
6369.998740911853
 30
0.0
 10
-9371.876025176636
 20
6369.977917483507
 30
0.0
 10
-9371.822295400674
 20
6369.948877016271
 30
0.0
 10
-9371.779566028928
 20
6369.910736146039
 30
0.0
 10
-9371.750448691762
 20
6369.862945408692
 30
0.0
 10
-9371.732012278191
 20
6369.807263654194
 30
0.0
 10
-9371.730267578901
 20
6369.767409155908
 30
0.0
 10
-9371.729345521833
 20
6369.746346430631
 30
0.0
  0
SPLINE
  5
AB
330
1F
100
AcDbEntity
  8
0
  6
Continuous
 62
     7
370
    25
100
AcDbSpline
210
0.0
220
0.0
230
1.0
 70
     8
 71
     3
 72
    15
 73
    11
 74
     0
 42
0.000000001
 43
0.00000001
 40
0.0
 40
0.0
 40
0.0
 40
0.0
 40
0.1274086638639906
 40
0.2492093999587557
 40
0.3720839042324983
 40
0.4997357737771565
 40
0.6273876433217822
 40
0.7507906000412413
 40
0.8725913361359255
 40
1.0
 40
1.0
 40
1.0
 40
1.0
 10
-9368.7141005894
 20
6363.91769355901
 30
0.0
 10
-9368.669336404777
 20
6363.920203242661
 30
0.0
 10
-9368.58177834356
 20
6363.925112145541
 30
0.0
 10
-9368.455282115363
 20
6363.962404708354
 30
0.0
 10
-9368.339770179722
 20
6364.025339291116
 30
0.0
 10
-9368.237427862205
 20
6364.111144185496
 30
0.0
 10
-9368.151883424152
 20
6364.213754036535
 30
0.0
 10
-9368.087317703503
 20
6364.328612637924
 30
0.0
 10
-9368.050357661625
 20
6364.455494269662
 30
0.0
 10
-9368.045395796184
 20
6364.543024062911
 30
0.0
 10
-9368.042859035348
 20
6364.587773795496
 30
0.0
  0
SPLINE
  5
AD
330
1F
100
AcDbEntity
  8
0
  6
Continuous
 62
     7
370
    25
100
AcDbSpline
210
0.0
220
0.0
230
1.0
 70
     8
 71
     3
 72
    15
 73
    11
 74
     0
 42
0.000000001
 43
0.00000001
 40
0.0
 40
0.0
 40
0.0
 40
0.0
 40
0.127668425188462
 40
0.2497174891406477
 40
0.3724052965255857
 40
0.4994696317434587
 40
0.6273817584612776
 40
0.7490098240592992
 40
0.8724320578183624
 40
1.0
 40
1.0
 40
1.0
 40
1.0
 10
-9368.042859035348
 20
6365.332178356308
 30
0.0
 10
-9368.045408175822
 20
6365.376923102188
 30
0.0
 10
-9368.050394255646
 20
6365.464443141517
 30
0.0
 10
-9368.087082812692
 20
6365.591067057965
 30
0.0
 10
-9368.151899892475
 20
6365.705144160836
 30
0.0
 10
-9368.237845203643
 20
6365.80645727044
 30
0.0
 10
-9368.33919587659
 20
6365.892280868836
 30
0.0
 10
-9368.455227761455
 20
6365.95394028469
 30
0.0
 10
-9368.581142601783
 20
6365.993048443383
 30
0.0
 10
-9368.669295905349
 20
6365.996845004731
 30
0.0
 10
-9368.7141005894
 20
6365.998774640091
 30
0.0
  0
SPLINE
  5
AF
330
1F
100
AcDbEntity
  8
0
  6
Continuous
 62
     7
370
    25
100
AcDbSpline
210
0.0
220
0.0
230
1.0
 70
     8
 71
     3
 72
    15
 73
    11
 74
     0
 42
0.000000001
 43
0.00000001
 40
0.0
 40
0.0
 40
0.0
 40
0.0
 40
0.1276284167036177
 40
0.250807163183303
 40
0.3742836487802331
 40
0.503606502831605
 40
0.6327873107114809
 40
0.7548054560999266
 40
0.8757928466041773
 40
1.0
 40
1.0
 40
1.0
 40
1.0
 10
-9368.918492481293
 20
6366.593369234685
 30
0.0
 10
-9368.8752416615
 20
6366.595375364892
 30
0.0
 10
-9368.790247929719
 20
6366.599317683061
 30
0.0
 10
-9368.668287063387
 20
6366.637443423043
 30
0.0
 10
-9368.555470336236
 20
6366.697562482797
 30
0.0
 10
-9368.456184556086
 20
6366.78133320163
 30
0.0
 10
-9368.37176474832
 20
6366.879258500802
 30
0.0
 10
-9368.3096929128
 20
6366.989587588781
 30
0.0
 10
-9368.271975422884
 20
6367.109278789273
 30
0.0
 10
-9368.267897662161
 20
6367.192340377709
 30
0.0
 10
-9368.26583200832
 20
6367.234416531983
 30
0.0
  0
SPLINE
  5
B1
330
1F
100
AcDbEntity
  8
0
  6
Continuous
 62
     7
370
    25
100
AcDbSpline
210
0.0
220
0.0
230
1.0
 70
     8
 71
     3
 72
    15
 73
    11
 74
     0
 42
0.000000001
 43
0.00000001
 40
0.0
 40
0.0
 40
0.0
 40
0.0
 40
0.1245304651428737
 40
0.2458327863376714
 40
0.3671677054605038
 40
0.4958115956038132
 40
0.6247420892947888
 40
0.7485399847073473
 40
0.8720393659864762
 40
1.0
 40
1.0
 40
1.0
 40
1.0
 10
-9368.26583200832
 20
6367.590941025226
 30
0.0
 10
-9368.267911304662
 20
6367.633010151672
 30
0.0
 10
-9368.272015996738
 20
6367.716057866632
 30
0.0
 10
-9368.30943296356
 20
6367.835525688508
 30
0.0
 10
-9368.371859068306
 20
6367.944952298923
 30
0.0
 10
-9368.456184073653
 20
6368.041825986576
 30
0.0
 10
-9368.555839724342
 20
6368.124234203542
 30
0.0
 10
-9368.668247586751
 20
6368.184480614108
 30
0.0
 10
-9368.790258205549
 20
6368.222542793749
 30
0.0
 10
-9368.875245127052
 20
6368.226493812263
 30
0.0
 10
-9368.918492481293
 20
6368.228504369821
 30
0.0
  0
SPLINE
  5
B4
330
1F
100
AcDbEntity
  8
0
  6
Continuous
 62
     7
370
    25
100
AcDbSpline
210
0.0
220
0.0
230
1.0
 70
     8
 71
     3
 72
    15
 73
    11
 74
     0
 42
0.000000001
 43
0.00000001
 40
0.0
 40
0.0
 40
0.0
 40
0.0
 40
0.1472985846903836
 40
0.275650493088727
 40
0.3928141444240422
 40
0.503399029945614
 40
0.611866794994541
 40
0.7290304463298561
 40
0.8553653506995125
 40
1.0
 40
1.0
 40
1.0
 40
1.0
 10
-9370.076326096158
 20
6363.323098964414
 30
0.0
 10
-9370.097657938308
 20
6363.324094332457
 30
0.0
 10
-9370.137577757088
 20
6363.325957036651
 30
0.0
 10
-9370.193851125734
 20
6363.336891630452
 30
0.0
 10
-9370.241291106617
 20
6363.3582372513
 30
0.0
 10
-9370.280870213606
 20
6363.387480671267
 30
0.0
 10
-9370.311037568732
 20
6363.426536234751
 30
0.0
 10
-9370.33136117282
 20
6363.473699630248
 30
0.0
 10
-9370.344559433524
 20
6363.528726614692
 30
0.0
 10
-9370.346093992313
 20
6363.56805075348
 30
0.0
 10
-9370.3469130894
 20
6363.589040687389
 30
0.0
  0
SPLINE
  5
B6
330
1F
100
AcDbEntity
  8
0
  6
Continuous
 62
     7
370
    25
100
AcDbSpline
210
0.0
220
0.0
230
1.0
 70
     8
 71
     3
 72
    15
 73
    11
 74
     0
 42
0.000000001
 43
0.00000001
 40
0.0
 40
0.0
 40
0.0
 40
0.0
 40
0.1451733701003992
 40
0.2713822329809646
 40
0.3889822838668692
 40
0.4995248231295111
 40
0.6083965981540747
 40
0.7259966490400729
 40
0.8548266298995932
 40
1.0
 40
1.0
 40
1.0
 40
1.0
 10
-9370.3469130894
 20
6368.557157241442
 30
0.0
 10
-9370.34595104637
 20
6368.578120504171
 30
0.0
 10
-9370.34415263537
 20
6368.617308524993
 30
0.0
 10
-9370.332763645862
 20
6368.672583400729
 30
0.0
 10
-9370.312316899573
 20
6368.720129148488
 30
0.0
 10
-9370.28086890614
 20
6368.757929984467
 30
0.0
 10
-9370.242423514579
 20
6368.788387343809
 30
0.0
 10
-9370.194935688794
 20
6368.809216561448
 30
0.0
 10
-9370.139143181943
 20
6368.820187980412
 30
0.0
 10
-9370.099599759418
 20
6368.822090804046
 30
0.0
 10
-9370.078648731293
 20
6368.823098964416
 30
0.0
  0
SPLINE
  5
B8
330
1F
100
AcDbEntity
  8
0
  6
Continuous
 62
     7
370
    25
100
AcDbSpline
210
0.0
220
0.0
230
1.0
 70
     8
 71
     3
 72
    23
 73
    19
 74
     0
 42
0.000000001
 43
0.00000001
 40
0.0
 40
0.0
 40
0.0
 40
0.0
 40
0.0699971325042474
 40
0.1369889410780487
 40
0.2025818669322393
 40
0.266326883320763
 40
0.3299959998499123
 40
0.3931968746882932
 40
0.4576209660458713
 40
0.5225816115472209
 40
0.5870057029047575
 40
0.6493260697673666
 40
0.7088254174031422
 40
0.7677033068043719
 40
0.8250025883224723
 40
0.8828865868295687
 40
0.9405703509601332
 40
1.0
 40
1.0
 40
1.0
 40
1.0
 10
-9368.911524575886
 20
6368.823098964416
 30
0.0
 10
-9368.86539189849
 20
6368.822082279108
 30
0.0
 10
-9368.77510724825
 20
6368.820092559833
 30
0.0
 10
-9368.64273241901
 20
6368.801537044202
 30
0.0
 10
-9368.516070273867
 20
6368.774643481429
 30
0.0
 10
-9368.395248804969
 20
6368.734341760822
 30
0.0
 10
-9368.280098380888
 20
6368.683722864312
 30
0.0
 10
-9368.171204873948
 20
6368.619870380193
 30
0.0
 10
-9368.06788594334
 20
6368.545916102988
 30
0.0
 10
-9367.972342251142
 20
6368.460983175642
 30
0.0
 10
-9367.884314416631
 20
6368.370262780229
 30
0.0
 10
-9367.807731653435
 20
6368.274137393979
 30
0.0
 10
-9367.74307157524
 20
6368.174026383348
 30
0.0
 10
-9367.68932061298
 20
6368.071287206867
 30
0.0
 10
-9367.648560094074
 20
6367.963891872216
 30
0.0
 10
-9367.618005032171
 20
6367.854027088281
 30
0.0
 10
-9367.600170398211
 20
6367.739784099416
 30
0.0
 10
-9367.59800959649
 20
6367.662616772196
 30
0.0
 10
-9367.596913089401
 20
6367.623457917119
 30
0.0
  0
SPLINE
  5
BA
330
1F
100
AcDbEntity
  8
0
  6
Continuous
 62
     7
370
    25
100
AcDbSpline
210
0.0
220
0.0
230
1.0
 70
     8
 71
     3
 72
    15
 73
    11
 74
     0
 42
0.000000001
 43
0.00000001
 40
0.0
 40
0.0
 40
0.0
 40
0.0
 40
0.1326594996416399
 40
0.2606826456506589
 40
0.3835988237724055
 40
0.5044542511718698
 40
0.6251139792614282
 40
0.7464377970802077
 40
0.8714347708675666
 40
1.0
 40
1.0
 40
1.0
 40
1.0
 10
-9367.596913089401
 20
6367.249513660361
 30
0.0
 10
-9367.598422570023
 20
6367.205325707517
 30
0.0
 10
-9367.601388776011
 20
6367.118494138842
 30
0.0
 10
-9367.61961499436
 20
6366.991706788118
 30
0.0
 10
-9367.652105801815
 20
6366.871786740603
 30
0.0
 10
-9367.699788554466
 20
6366.759906508864
 30
0.0
 10
-9367.756967458543
 20
6366.653030079247
 30
0.0
 10
-9367.83086999854
 20
6366.555262707889
 30
0.0
 10
-9367.9149525575
 20
6366.462460163041
 30
0.0
 10
-9367.980560493936
 20
6366.409076758679
 30
0.0
 10
-9368.013826096158
 20
6366.382009437389
 30
0.0
  0
SPLINE
  5
BB
330
1F
100
AcDbEntity
  8
0
  6
Continuous
 62
     7
370
    25
100
AcDbSpline
210
0.0
220
0.0
230
1.0
 70
     8
 71
     3
 72
    15
 73
    11
 74
     0
 42
0.000000001
 43
0.00000001
 40
0.0
 40
0.0
 40
0.0
 40
0.0
 40
0.1163154394521568
 40
0.2345647128656814
 40
0.3584180389837495
 40
0.4893481039549444
 40
0.6213683425081122
 40
0.7487484467134403
 40
0.8742380891698308
 40
1.0
 40
1.0
 40
1.0
 40
1.0
 10
-9368.013826096158
 20
6366.382009437389
 30
0.0
 10
-9367.96914948042
 20
6366.359513048026
 30
0.0
 10
-9367.87905346572
 20
6366.314146249465
 30
0.0
 10
-9367.75879098356
 20
6366.216783940992
 30
0.0
 10
-9367.648545476013
 20
6366.100175213679
 30
0.0
 10
-9367.554665017615
 20
6365.962698400134
 30
0.0
 10
-9367.474888801045
 20
6365.815146560892
 30
0.0
 10
-9367.415454054244
 20
6365.660543317147
 30
0.0
 10
-9367.380998256282
 20
6365.500928286373
 30
0.0
 10
-9367.376294528774
 20
6365.393112548055
 30
0.0
 10
-9367.373940116428
 20
6365.339146261713
 30
0.0
  0
SPLINE
  5
BD
330
1F
100
AcDbEntity
  8
0
  6
Continuous
 62
     7
370
    25
100
AcDbSpline
210
0.0
220
0.0
230
1.0
 70
     8
 71
     3
 72
    23
 73
    19
 74
     0
 42
0.000000001
 43
0.00000001
 40
0.0
 40
0.0
 40
0.0
 40
0.0
 40
0.0573718688435185
 40
0.1142717744853532
 40
0.1712775514510554
 40
0.2292072316113964
 40
0.2887537053420934
 40
0.3497535252114185
 40
0.4136630964478275
 40
0.4804032883989472
 40
0.5476011670425152
 40
0.612887525805177
 40
0.6770090262773544
 40
0.7404371873975992
 40
0.8035874726883286
 40
0.8673185838669389
 40
0.9327996288997346
 40
1.0
 40
1.0
 40
1.0
 40
1.0
 10
-9367.373940116428
 20
6364.56222480901
 30
0.0
 10
-9367.374933741414
 20
6364.523818639505
 30
0.0
 10
-9367.37691281744
 20
6364.447322244515
 30
0.0
 10
-9367.39668150595
 20
6364.334139827414
 30
0.0
 10
-9367.42654109239
 20
6364.222987532503
 30
0.0
 10
-9367.47007607603
 20
6364.114419869155
 30
0.0
 10
-9367.525966879788
 20
6364.008696238408
 30
0.0
 10
-9367.594530672439
 20
6363.905963450272
 30
0.0
 10
-9367.673111351009
 20
6363.804493011878
 30
0.0
 10
-9367.76441809646
 20
6363.708453437244
 30
0.0
 10
-9367.862933513456
 20
6363.618587462374
 30
0.0
 10
-9367.96764530401
 20
6363.538611319691
 30
0.0
 10
-9368.078723452567
 20
6363.472626694023
 30
0.0
 10
-9368.193885829809
 20
6363.417316479748
 30
0.0
 10
-9368.314428863247
 20
6363.375606290459
 30
0.0
 10
-9368.439616179694
 20
6363.345364089314
 30
0.0
 10
-9368.56988227197
 20
6363.32602864879
 30
0.0
 10
-9368.65867637122
 20
6363.324083925977
 30
0.0
 10
-9368.70364873129
 20
6363.323098964414
 30
0.0
  0
SPLINE
  5
C2
330
1F
100
AcDbEntity
  8
0
  6
Continuous
 62
     7
370
    25
100
AcDbSpline
210
0.0
220
0.0
230
1.0
 70
     8
 71
     3
 72
    15
 73
    11
 74
     0
 42
0.000000001
 43
0.00000001
 40
0.0
 40
0.0
 40
0.0
 40
0.0
 40
0.1526075283707715
 40
0.2869925149660625
 40
0.4076393594010417
 40
0.520337098371812
 40
0.6282469165428344
 40
0.7394778111329691
 40
0.8625819660823038
 40
1.0
 40
1.0
 40
1.0
 40
1.0
 10
-9372.100967143453
 20
6363.323098964414
 30
0.0
 10
-9372.124236418304
 20
6363.324103554663
 30
0.0
 10
-9372.167996433169
 20
6363.325992779163
 30
0.0
 10
-9372.229505563819
 20
6363.336871820145
 30
0.0
 10
-9372.282168610409
 20
6363.357689528149
 30
0.0
 10
-9372.324615696507
 20
6363.388615040229
 30
0.0
 10
-9372.358564917495
 20
6363.426793875729
 30
0.0
 10
-9372.382190581106
 20
6363.473936073831
 30
0.0
 10
-9372.395970717002
 20
6363.529426155543
 30
0.0
 10
-9372.397472364479
 20
6363.569214687621
 30
0.0
 10
-9372.398264440752
 20
6363.590202004956
 30
0.0
  0
SPLINE
  5
C3
330
1F
100
AcDbEntity
  8
0
  6
Continuous
 62
     7
370
    25
100
AcDbSpline
210
0.0
220
0.0
230
1.0
 70
     8
 71
     3
 72
    15
 73
    11
 74
     0
 42
0.000000001
 43
0.00000001
 40
0.0
 40
0.0
 40
0.0
 40
0.0
 40
0.1210437057283563
 40
0.2311608615819839
 40
0.3345582471448714
 40
0.4404078971912008
 40
0.5564076305372317
 40
0.6855748386380649
 40
0.832361892765621
 40
1.0
 40
1.0
 40
1.0
 40
1.0
 10
-9371.729345521833
 20
6363.590202004956
 30
0.0
 10
-9371.730343736775
 20
6363.569167639961
 30
0.0
 10
-9371.732250058338
 20
6363.528997670727
 30
0.0
 10
-9371.749851607261
 20
6363.472928671381
 30
0.0
 10
-9371.779962991252
 20
6363.425628045647
 30
0.0
 10
-9371.822552381074
 20
6363.38780885179
 30
0.0
 10
-9371.875658710613
 20
6363.357184457415
 30
0.0
 10
-9371.940983439212
 20
6363.336756198098
 30
0.0
 10
-9372.017378514109
 20
6363.325983856751
 30
0.0
 10
-9372.071899092594
 20
6363.324102189349
 30
0.0
 10
-9372.100967143453
 20
6363.323098964414
 30
0.0
  0
SPLINE
  5
C5
330
1F
100
AcDbEntity
  8
0
  6
Continuous
 62
     7
370
    25
100
AcDbSpline
210
0.0
220
0.0
230
1.0
 70
     8
 71
     3
 72
    15
 73
    11
 74
     0
 42
0.000000001
 43
0.00000001
 40
0.0
 40
0.0
 40
0.0
 40
0.0
 40
0.1373554302530816
 40
0.2604035025253654
 40
0.3715837235509729
 40
0.4813661282244399
 40
0.5925463492499455
 40
0.7131382304871638
 40
0.8474619951861929
 40
1.0
 40
1.0
 40
1.0
 40
1.0
 10
-9372.398264440752
 20
6368.590835450903
 30
0.0
 10
-9372.397463574876
 20
6368.611814353024
 30
0.0
 10
-9372.395945263746
 20
6368.651586931227
 30
0.0
 10
-9372.382276588703
 20
6368.707183726177
 30
0.0
 10
-9372.358144729886
 20
6368.75423318835
 30
0.0
 10
-9372.325407062754
 20
6368.793695776232
 30
0.0
 10
-9372.281692958211
 20
6368.82309071069
 30
0.0
 10
-9372.229587813803
 20
6368.844271011827
 30
0.0
 10
-9372.16797154137
 20
6368.855012786099
 30
0.0
 10
-9372.124227777093
 20
6368.856922830348
 30
0.0
 10
-9372.100967143453
 20
6368.857938491442
 30
0.0
  0
SPLINE
  5
C6
330
1F
100
AcDbEntity
  8
0
  6
Continuous
 62
     7
370
    25
100
AcDbSpline
210
0.0
220
0.0
230
1.0
 70
     8
 71
     3
 72
    15
 73
    11
 74
     0
 42
0.000000001
 43
0.00000001
 40
0.0
 40
0.0
 40
0.0
 40
0.0
 40
0.1675680039011589
 40
0.3142936742423096
 40
0.4434068668690958
 40
0.5582581848718565
 40
0.6655816592802385
 40
0.7689358058594975
 40
0.8790069126387388
 40
0.9999999999999999
 40
0.9999999999999999
 40
0.9999999999999999
 40
0.9999999999999999
 10
-9372.100967143453
 20
6368.857938491442
 30
0.0
 10
-9372.071908297343
 20
6368.856920704759
 30
0.0
 10
-9372.01740498346
 20
6368.855011725071
 30
0.0
 10
-9371.940897212353
 20
6368.844417667092
 30
0.0
 10
-9371.876110622426
 20
6368.823485554614
 30
0.0
 10
-9371.821788682395
 20
6368.794664652445
 30
0.0
 10
-9371.780367046347
 20
6368.755326360882
 30
0.0
 10
-9371.7497783813
 20
6368.708195238532
 30
0.0
 10
-9371.732271026487
 20
6368.652015029136
 30
0.0
 10
-9371.730350942991
 20
6368.611861307894
 30
0.0
 10
-9371.729345521833
 20
6368.590835450903
 30
0.0
  0
CIRCLE
  5
C8
330
1F
100
AcDbEntity
  8
0
  6
Continuous
 62
     7
370
    25
100
AcDbCircle
 10
-9381.373001596
 20
6358.1541975214
 30
0.0
 40
0.75
  0
CIRCLE
  5
C9
330
1F
100
AcDbEntity
  8
0
  6
Continuous
 62
     7
370
    25
100
AcDbCircle
 10
-9381.373001596
 20
6358.1541975214
 30
0.0
 40
1.5
  0
SPLINE
  5
15C
330
1F
100
AcDbEntity
  8
0
  6
Continuous
 62
     7
370
    25
100
AcDbSpline
210
0.0
220
0.0
230
1.0
 70
     8
 71
     3
 72
     8
 73
     4
 74
     0
 42
0.000000001
 43
0.00000001
 40
0.4733333333333333
 40
0.4733333333333333
 40
0.4733333333333333
 40
0.4733333333333333
 40
0.48
 40
0.48
 40
0.48
 40
0.48
 10
-9342.225134842229
 20
6369.97435773021
 30
0.0
 10
-9342.808234175562
 20
6370.753714396877
 30
0.0
 10
-9343.034844508895
 20
6371.31623973021
 30
0.0
 10
-9342.904965842228
 20
6371.66193373021
 30
0.0
  0
SPLINE
  5
15D
330
1F
100
AcDbEntity
  8
0
  6
Continuous
 62
     7
370
    25
100
AcDbSpline
210
0.0
220
0.0
230
1.0
 70
     8
 71
     3
 72
     8
 73
     4
 74
     0
 42
0.000000001
 43
0.00000001
 40
0.4666666666666667
 40
0.4666666666666667
 40
0.4666666666666667
 40
0.4666666666666667
 40
0.4733333333333333
 40
0.4733333333333333
 40
0.4733333333333333
 40
0.4733333333333333
 10
-9343.425411842229
 20
6369.29338373021
 30
0.0
 10
-9342.061516508897
 20
6368.947266396877
 30
0.0
 10
-9341.661424175563
 20
6369.17425773021
 30
0.0
 10
-9342.225134842229
 20
6369.97435773021
 30
0.0
  0
LINE
  5
15E
330
1F
100
AcDbEntity
  8
0
  6
Continuous
 62
     7
370
    25
100
AcDbLine
 10
-9383.2347509272
 20
6363.5855567347
 30
0.0
 11
-9383.2347509272
 21
6368.2285043698
 31
0.0
  0
LINE
  5
15F
330
1F
100
AcDbEntity
  8
0
  6
Continuous
 62
     7
370
    25
100
AcDbLine
 10
-9383.2347509272
 20
6368.2285043698
 30
0.0
 11
-9383.8502492381
 21
6368.2285043698
 31
0.0
  0
LINE
  5
160
330
1F
100
AcDbEntity
  8
0
  6
Continuous
 62
     7
370
    25
100
AcDbLine
 10
-9383.8502492381
 20
6368.2285043698
 30
0.0
 11
-9385.3344130894
 21
6363.5100710928
 31
0.0
  0
LINE
  5
161
330
1F
100
AcDbEntity
  8
0
  6
Continuous
 62
     7
370
    25
100
AcDbLine
 10
-9385.9173945083
 20
6363.6703329171
 30
0.0
 11
-9384.3751647786
 21
6368.636126836
 31
0.0
  0
LINE
  5
162
330
1F
100
AcDbEntity
  8
0
  6
Continuous
 62
     7
370
    25
100
AcDbLine
 10
-9384.1185135962
 20
6368.8230989644
 30
0.0
 11
-9382.9374536299
 21
6368.8230989644
 31
0.0
  0
LINE
  5
163
330
1F
100
AcDbEntity
  8
0
  6
Continuous
 62
     7
370
    25
100
AcDbLine
 10
-9382.5658320083
 20
6368.5571572414
 30
0.0
 11
-9382.5658320083
 21
6363.5890406874
 31
0.0
  0
LINE
  5
164
330
1F
100
AcDbEntity
  8
0
  6
Continuous
 62
     7
370
    25
100
AcDbLine
 10
-9379.4762627516
 20
6365.9987746401
 30
0.0
 11
-9380.4401563326
 21
6365.9987746401
 31
0.0
  0
LINE
  5
165
330
1F
100
AcDbEntity
  8
0
  6
Continuous
 62
     7
370
    25
100
AcDbLine
 10
-9380.4401563326
 20
6365.9987746401
 30
0.0
 11
-9380.4401563326
 21
6363.917693559
 31
0.0
  0
LINE
  5
166
330
1F
100
AcDbEntity
  8
0
  6
Continuous
 62
     7
370
    25
100
AcDbLine
 10
-9380.4401563326
 20
6363.917693559
 30
0.0
 11
-9379.4762627516
 21
6363.917693559
 31
0.0
  0
LINE
  5
167
330
1F
100
AcDbEntity
  8
0
  6
Continuous
 62
     7
370
    25
100
AcDbLine
 10
-9379.4658108935
 20
6363.3230989644
 30
0.0
 11
-9380.8384882583
 21
6363.3230989644
 31
0.0
  0
LINE
  5
168
330
1F
100
AcDbEntity
  8
0
  6
Continuous
 62
     7
370
    25
100
AcDbLine
 10
-9381.1090752516
 20
6363.5890406874
 30
0.0
 11
-9381.1090752516
 21
6368.5571572414
 31
0.0
  0
LINE
  5
169
330
1F
100
AcDbEntity
  8
0
  6
Continuous
 62
     7
370
    25
100
AcDbLine
 10
-9380.4401563326
 20
6368.5629638293
 30
0.0
 11
-9380.4401563326
 21
6366.5933692347
 31
0.0
  0
LINE
  5
16A
330
1F
100
AcDbEntity
  8
0
  6
Continuous
 62
     7
370
    25
100
AcDbLine
 10
-9380.4401563326
 20
6366.5933692347
 30
0.0
 11
-9379.4391005894
 21
6366.5933692347
 31
0.0
  0
LINE
  5
16B
330
1F
100
AcDbEntity
  8
0
  6
Continuous
 62
     7
370
    25
100
AcDbLine
 10
-9378.1361022786
 20
6365.3507594374
 30
0.0
 11
-9378.1361022786
 21
6364.5691927144
 31
0.0
  0
LINE
  5
16C
330
1F
100
AcDbEntity
  8
0
  6
Continuous
 62
     7
370
    25
100
AcDbLine
 10
-9378.8050211975
 20
6364.5877737955
 30
0.0
 11
-9378.8050211975
 21
6365.3321783563
 31
0.0
  0
LINE
  5
16D
330
1F
100
AcDbEntity
  8
0
  6
Continuous
 62
     7
370
    25
100
AcDbLine
 10
-9373.7806968732
 20
6365.3391462617
 30
0.0
 11
-9373.7806968732
 21
6364.562224809
 31
0.0
  0
LINE
  5
16E
330
1F
100
AcDbEntity
  8
0
  6
Continuous
 62
     7
370
    25
100
AcDbLine
 10
-9375.110405488
 20
6363.3230989644
 30
0.0
 11
-9376.4830828529
 21
6363.3230989644
 31
0.0
  0
LINE
  5
16F
330
1F
100
AcDbEntity
  8
0
  6
Continuous
 62
     7
370
    25
100
AcDbLine
 10
-9375.1208573462
 20
6365.9987746401
 30
0.0
 11
-9376.0847509272
 21
6365.9987746401
 31
0.0
  0
LINE
  5
170
330
1F
100
AcDbEntity
  8
0
  6
Continuous
 62
     7
370
    25
100
AcDbLine
 10
-9374.4496157921
 20
6364.5877737955
 30
0.0
 11
-9374.4496157921
 21
6365.3321783563
 31
0.0
  0
LINE
  5
171
330
1F
100
AcDbEntity
  8
0
  6
Continuous
 62
     7
370
    25
100
AcDbLine
 10
-9376.0847509272
 20
6363.917693559
 30
0.0
 11
-9375.1208573462
 21
6363.917693559
 31
0.0
  0
LINE
  5
172
330
1F
100
AcDbEntity
  8
0
  6
Continuous
 62
     7
370
    25
100
AcDbLine
 10
-9376.0847509272
 20
6365.9987746401
 30
0.0
 11
-9376.0847509272
 21
6363.917693559
 31
0.0
  0
LINE
  5
173
330
1F
100
AcDbEntity
  8
0
  6
Continuous
 62
     7
370
    25
100
AcDbLine
 10
-9375.325249238
 20
6368.2285043698
 30
0.0
 11
-9376.0847509272
 21
6368.2285043698
 31
0.0
  0
LINE
  5
174
330
1F
100
AcDbEntity
  8
0
  6
Continuous
 62
     7
370
    25
100
AcDbLine
 10
-9374.6725887651
 20
6367.234416532
 30
0.0
 11
-9374.6725887651
 21
6367.5909410252
 31
0.0
  0
LINE
  5
175
330
1F
100
AcDbEntity
  8
0
  6
Continuous
 62
     7
370
    25
100
AcDbLine
 10
-9376.0847509272
 20
6366.5933692347
 30
0.0
 11
-9375.325249238
 21
6366.5933692347
 31
0.0
  0
LINE
  5
176
330
1F
100
AcDbEntity
  8
0
  6
Continuous
 62
     7
370
    25
100
AcDbLine
 10
-9376.0847509272
 20
6368.2285043698
 30
0.0
 11
-9376.0847509272
 21
6366.5933692347
 31
0.0
  0
LINE
  5
177
330
1F
100
AcDbEntity
  8
0
  6
Continuous
 62
     7
370
    25
100
AcDbLine
 10
-9376.7536698462
 20
6363.5890406874
 30
0.0
 11
-9376.7536698462
 21
6368.5571572414
 31
0.0
  0
LINE
  5
178
330
1F
100
AcDbEntity
  8
0
  6
Continuous
 62
     7
370
    25
100
AcDbLine
 10
-9376.485405488
 20
6368.8230989644
 30
0.0
 11
-9375.3182813326
 21
6368.8230989644
 31
0.0
  0
LINE
  5
179
330
1F
100
AcDbEntity
  8
0
  6
Continuous
 62
     7
370
    25
100
AcDbLine
 10
-9374.0036698462
 20
6367.6234579171
 30
0.0
 11
-9374.0036698462
 21
6367.2495136604
 31
0.0
  0
LINE
  5
17A
330
1F
100
AcDbEntity
  8
0
  6
Continuous
 62
     7
370
    25
100
AcDbLine
 10
-9368.0428590353
 20
6364.5877737955
 30
0.0
 11
-9368.0428590353
 21
6365.3321783563
 31
0.0
  0
LINE
  5
17B
330
1F
100
AcDbEntity
  8
0
  6
Continuous
 62
     7
370
    25
100
AcDbLine
 10
-9369.6779941705
 20
6363.917693559
 30
0.0
 11
-9368.7141005894
 21
6363.917693559
 31
0.0
  0
LINE
  5
17C
330
1F
100
AcDbEntity
  8
0
  6
Continuous
 62
     7
370
    25
100
AcDbLine
 10
-9368.2658320083
 20
6367.234416532
 30
0.0
 11
-9368.2658320083
 21
6367.5909410252
 31
0.0
  0
LINE
  5
17D
330
1F
100
AcDbEntity
  8
0
  6
Continuous
 62
     7
370
    25
100
AcDbLine
 10
-9369.6779941705
 20
6368.2285043698
 30
0.0
 11
-9369.6779941705
 21
6366.5933692347
 31
0.0
  0
LINE
  5
17E
330
1F
100
AcDbEntity
  8
0
  6
Continuous
 62
     7
370
    25
100
AcDbLine
 10
-9369.6779941705
 20
6366.5933692347
 30
0.0
 11
-9368.9184924813
 21
6366.5933692347
 31
0.0
  0
LINE
  5
17F
330
1F
100
AcDbEntity
  8
0
  6
Continuous
 62
     7
370
    25
100
AcDbLine
 10
-9370.3469130894
 20
6363.5890406874
 30
0.0
 11
-9370.3469130894
 21
6368.5571572414
 31
0.0
  0
LINE
  5
180
330
1F
100
AcDbEntity
  8
0
  6
Continuous
 62
     7
370
    25
100
AcDbLine
 10
-9370.0786487313
 20
6368.8230989644
 30
0.0
 11
-9368.9115245759
 21
6368.8230989644
 31
0.0
  0
LINE
  5
181
330
1F
100
AcDbEntity
  8
0
  6
Continuous
 62
     7
370
    25
100
AcDbLine
 10
-9367.5969130894
 20
6367.6234579171
 30
0.0
 11
-9367.5969130894
 21
6367.2495136604
 31
0.0
  0
LINE
  5
182
330
1F
100
AcDbEntity
  8
0
  6
Continuous
 62
     7
370
    25
100
AcDbLine
 10
-9367.3739401164
 20
6365.3391462617
 30
0.0
 11
-9367.3739401164
 21
6364.562224809
 31
0.0
  0
LINE
  5
183
330
1F
100
AcDbEntity
  8
0
  6
Continuous
 62
     7
370
    25
100
AcDbLine
 10
-9368.7036487313
 20
6363.3230989644
 30
0.0
 11
-9370.0763260962
 21
6363.3230989644
 31
0.0
  0
LINE
  5
184
330
1F
100
AcDbEntity
  8
0
  6
Continuous
 62
     7
370
    25
100
AcDbLine
 10
-9368.7141005894
 20
6365.9987746401
 30
0.0
 11
-9369.6779941705
 21
6365.9987746401
 31
0.0
  0
LINE
  5
185
330
1F
100
AcDbEntity
  8
0
  6
Continuous
 62
     7
370
    25
100
AcDbLine
 10
-9369.6779941705
 20
6365.9987746401
 30
0.0
 11
-9369.6779941705
 21
6363.917693559
 31
0.0
  0
LINE
  5
186
330
1F
100
AcDbEntity
  8
0
  6
Continuous
 62
     7
370
    25
100
AcDbLine
 10
-9368.9184924813
 20
6368.2285043698
 30
0.0
 11
-9369.6779941705
 21
6368.2285043698
 31
0.0
  0
LINE
  5
187
330
1F
100
AcDbEntity
  8
0
  6
Continuous
 62
     7
370
    25
100
AcDbLine
 10
-9372.3982644408
 20
6363.590202005
 30
0.0
 11
-9372.3982644408
 21
6368.5908354509
 31
0.0
  0
LINE
  5
188
330
1F
100
AcDbEntity
  8
0
  6
Continuous
 62
     7
370
    25
100
AcDbLine
 10
-9371.7293455218
 20
6368.5908354509
 30
0.0
 11
-9371.7293455218
 21
6363.590202005
 31
0.0
  0
LINE
  5
189
330
1F
100
AcDbEntity
  8
0
  6
Continuous
 62
     7
370
    25
100
AcDbLine
 10
-9342.9049658422
 20
6367.4763947302
 30
0.0
 11
-9343.4254118422
 21
6369.2933837302
 31
0.0
  0
LINE
  5
18A
330
1F
100
AcDbEntity
  8
0
  6
Continuous
 62
     7
370
    25
100
AcDbLine
 10
-9341.0237148422
 20
6366.3085027302
 30
0.0
 11
-9342.9049658422
 21
6367.4763947302
 31
0.0
  0
LINE
  5
18B
330
1F
100
AcDbEntity
  8
0
  6
Continuous
 62
     7
370
    25
100
AcDbLine
 10
-9340.1149028422
 20
6364.4264897302
 30
0.0
 11
-9341.0237148422
 21
6366.3085027302
 31
0.0
  0
LINE
  5
18C
330
1F
100
AcDbEntity
  8
0
  6
Continuous
 62
     7
370
    25
100
AcDbLine
 10
-9338.7203158422
 20
6363.2253237302
 30
0.0
 11
-9340.1149028422
 21
6364.4264897302
 31
0.0
  0
LINE
  5
18D
330
1F
100
AcDbEntity
  8
0
  6
Continuous
 62
     7
370
    25
100
AcDbLine
 10
-9336.7732788422
 20
6361.6036607302
 30
0.0
 11
-9338.7203158422
 21
6363.2253237302
 31
0.0
  0
LINE
  5
18E
330
1F
100
AcDbEntity
  8
0
  6
Continuous
 62
     7
370
    25
100
AcDbLine
 10
-9337.0329938422
 20
6359.5597227302
 30
0.0
 11
-9336.7732788422
 21
6361.6036607302
 31
0.0
  0
LINE
  5
18F
330
1F
100
AcDbEntity
  8
0
  6
Continuous
 62
     7
370
    25
100
AcDbLine
 10
-9338.2332708422
 20
6355.9577487302
 30
0.0
 11
-9337.0329938422
 21
6359.5597227302
 31
0.0
  0
LINE
  5
190
330
1F
100
AcDbEntity
  8
0
  6
Continuous
 62
     7
370
    25
100
AcDbLine
 10
-9340.1149028422
 20
6355.5359817302
 30
0.0
 11
-9338.2332708422
 21
6355.9577487302
 31
0.0
  0
LINE
  5
191
330
1F
100
AcDbEntity
  8
0
  6
Continuous
 62
     7
370
    25
100
AcDbLine
 10
-9340.9590718422
 20
6354.5301417302
 30
0.0
 11
-9340.1149028422
 21
6355.5359817302
 31
0.0
  0
LINE
  5
192
330
1F
100
AcDbEntity
  8
0
  6
Continuous
 62
     7
370
    25
100
AcDbLine
 10
-9343.9428098422
 20
6354.5301417302
 30
0.0
 11
-9340.9590718422
 21
6354.5301417302
 31
0.0
  0
LINE
  5
193
330
1F
100
AcDbEntity
  8
0
  6
Continuous
 62
     7
370
    25
100
AcDbLine
 10
-9344.2681838422
 20
6355.2761397302
 30
0.0
 11
-9343.9428098422
 21
6354.5301417302
 31
0.0
  0
LINE
  5
194
330
1F
100
AcDbEntity
  8
0
  6
Continuous
 62
     7
370
    25
100
AcDbLine
 10
-9346.1501968422
 20
6354.1737797302
 30
0.0
 11
-9344.2681838422
 21
6355.2761397302
 31
0.0
  0
LINE
  5
195
330
1F
100
AcDbEntity
  8
0
  6
Continuous
 62
     7
370
    25
100
AcDbLine
 10
-9347.2529378422
 20
6354.5949117302
 30
0.0
 11
-9346.1501968422
 21
6354.1737797302
 31
0.0
  0
LINE
  5
196
330
1F
100
AcDbEntity
  8
0
  6
Continuous
 62
     7
370
    25
100
AcDbLine
 10
-9347.6104428422
 20
6352.5503387302
 30
0.0
 11
-9347.2529378422
 21
6354.5949117302
 31
0.0
  0
LINE
  5
197
330
1F
100
AcDbEntity
  8
0
  6
Continuous
 62
     7
370
    25
100
AcDbLine
 10
-9346.9289608422
 20
6351.3504427302
 30
0.0
 11
-9347.6104428422
 21
6352.5503387302
 31
0.0
  0
LINE
  5
198
330
1F
100
AcDbEntity
  8
0
  6
Continuous
 62
     7
370
    25
100
AcDbLine
 10
-9348.3889528422
 20
6349.2408457302
 30
0.0
 11
-9346.9289608422
 21
6351.3504427302
 31
0.0
  0
LINE
  5
199
330
1F
100
AcDbEntity
  8
0
  6
Continuous
 62
     7
370
    25
100
AcDbLine
 10
-9349.3301498422
 20
6350.1495307302
 30
0.0
 11
-9348.3889528422
 21
6349.2408457302
 31
0.0
  0
LINE
  5
19A
330
1F
100
AcDbEntity
  8
0
  6
Continuous
 62
     7
370
    25
100
AcDbLine
 10
-9350.1730488422
 20
6349.9223277302
 30
0.0
 11
-9349.3301498422
 21
6350.1495307302
 31
0.0
  0
LINE
  5
19B
330
1F
100
AcDbEntity
  8
0
  6
Continuous
 62
     7
370
    25
100
AcDbLine
 10
-9351.6981918422
 20
6346.3212427302
 30
0.0
 11
-9350.1730488422
 21
6349.9223277302
 31
0.0
  0
LINE
  5
19C
330
1F
100
AcDbEntity
  8
0
  6
Continuous
 62
     7
370
    25
100
AcDbLine
 10
-9357.4090008422
 20
6343.3353457302
 30
0.0
 11
-9351.6981918422
 21
6346.3212427302
 31
0.0
  0
LINE
  5
19D
330
1F
100
AcDbEntity
  8
0
  6
Continuous
 62
     7
370
    25
100
AcDbLine
 10
-9358.7719648422
 20
6343.3353457302
 30
0.0
 11
-9357.4090008422
 21
6343.3353457302
 31
0.0
  0
LINE
  5
19E
330
1F
100
AcDbEntity
  8
0
  6
Continuous
 62
     7
370
    25
100
AcDbLine
 10
-9359.3884228422
 20
6340.1880317302
 30
0.0
 11
-9358.7719648422
 21
6343.3353457302
 31
0.0
  0
LINE
  5
19F
330
1F
100
AcDbEntity
  8
0
  6
Continuous
 62
     7
370
    25
100
AcDbLine
 10
-9360.5892078422
 20
6340.1880317302
 30
0.0
 11
-9359.3884228422
 21
6340.1880317302
 31
0.0
  0
LINE
  5
1A0
330
1F
100
AcDbEntity
  8
0
  6
Continuous
 62
     7
370
    25
100
AcDbLine
 10
-9364.1581618422
 20
6342.0709337302
 30
0.0
 11
-9360.5892078422
 21
6340.1880317302
 31
0.0
  0
LINE
  5
1A1
330
1F
100
AcDbEntity
  8
0
  6
Continuous
 62
     7
370
    25
100
AcDbLine
 10
-9365.6175188422
 20
6341.3888167302
 30
0.0
 11
-9364.1581618422
 21
6342.0709337302
 31
0.0
  0
LINE
  5
1A2
330
1F
100
AcDbEntity
  8
0
  6
Continuous
 62
     7
370
    25
100
AcDbLine
 10
-9366.4621958422
 20
6342.1358307302
 30
0.0
 11
-9365.6175188422
 21
6341.3888167302
 31
0.0
  0
LINE
  5
1A3
330
1F
100
AcDbEntity
  8
0
  6
Continuous
 62
     7
370
    25
100
AcDbLine
 10
-9366.1370758422
 20
6343.2388257302
 30
0.0
 11
-9366.4621958422
 21
6342.1358307302
 31
0.0
  0
LINE
  5
1A4
330
1F
100
AcDbEntity
  8
0
  6
Continuous
 62
     7
370
    25
100
AcDbLine
 10
-9367.7596278422
 20
6343.6928507302
 30
0.0
 11
-9366.1370758422
 21
6343.2388257302
 31
0.0
  0
LINE
  5
1A5
330
1F
100
AcDbEntity
  8
0
  6
Continuous
 62
     7
370
    25
100
AcDbLine
 10
-9368.7643248422
 20
6340.0912577302
 30
0.0
 11
-9367.7596278422
 21
6343.6928507302
 31
0.0
  0
LINE
  5
1A6
330
1F
100
AcDbEntity
  8
0
  6
Continuous
 62
     7
370
    25
100
AcDbLine
 10
-9369.0254368422
 20
6338.0473197302
 30
0.0
 11
-9368.7643248422
 21
6340.0912577302
 31
0.0
  0
LINE
  5
1A7
330
1F
100
AcDbEntity
  8
0
  6
Continuous
 62
     7
370
    25
100
AcDbLine
 10
-9369.9661258422
 20
6336.8470427302
 30
0.0
 11
-9369.0254368422
 21
6338.0473197302
 31
0.0
  0
LINE
  5
1A8
330
1F
100
AcDbEntity
  8
0
  6
Continuous
 62
     7
370
    25
100
AcDbLine
 10
-9369.1220838422
 20
6335.2244907302
 30
0.0
 11
-9369.9661258422
 21
6336.8470427302
 31
0.0
  0
LINE
  5
1A9
330
1F
100
AcDbEntity
  8
0
  6
Continuous
 62
     7
370
    25
100
AcDbLine
 10
-9370.7450168422
 20
6334.2826587302
 30
0.0
 11
-9369.1220838422
 21
6335.2244907302
 31
0.0
  0
LINE
  5
1AA
330
1F
100
AcDbEntity
  8
0
  6
Continuous
 62
     7
370
    25
100
AcDbLine
 10
-9371.4903798422
 20
6333.0173577302
 30
0.0
 11
-9370.7450168422
 21
6334.2826587302
 31
0.0
  0
LINE
  5
1AB
330
1F
100
AcDbEntity
  8
0
  6
Continuous
 62
     7
370
    25
100
AcDbLine
 10
-9372.1077268422
 20
6333.6023197302
 30
0.0
 11
-9371.4903798422
 21
6333.0173577302
 31
0.0
  0
LINE
  5
1AC
330
1F
100
AcDbEntity
  8
0
  6
Continuous
 62
     7
370
    25
100
AcDbLine
 10
-9373.7955568422
 20
6332.0770497302
 30
0.0
 11
-9372.1077268422
 21
6333.6023197302
 31
0.0
  0
LINE
  5
1AD
330
1F
100
AcDbEntity
  8
0
  6
Continuous
 62
     7
370
    25
100
AcDbLine
 10
-9372.4317038422
 20
6331.5568577302
 30
0.0
 11
-9373.7955568422
 21
6332.0770497302
 31
0.0
  0
LINE
  5
1AE
330
1F
100
AcDbEntity
  8
0
  6
Continuous
 62
     7
370
    25
100
AcDbLine
 10
-9372.2692708422
 20
6329.5139357302
 30
0.0
 11
-9372.4317038422
 21
6331.5568577302
 31
0.0
  0
LINE
  5
1AF
330
1F
100
AcDbEntity
  8
0
  6
Continuous
 62
     7
370
    25
100
AcDbLine
 10
-9371.1662758422
 20
6328.7354257302
 30
0.0
 11
-9372.2692708422
 21
6329.5139357302
 31
0.0
  0
LINE
  5
1B0
330
1F
100
AcDbEntity
  8
0
  6
Continuous
 62
     7
370
    25
100
AcDbLine
 10
-9369.3819258422
 20
6328.4749487302
 30
0.0
 11
-9371.1662758422
 21
6328.7354257302
 31
0.0
  0
LINE
  5
1B1
330
1F
100
AcDbEntity
  8
0
  6
Continuous
 62
     7
370
    25
100
AcDbLine
 10
-9368.3443358422
 20
6328.1507177302
 30
0.0
 11
-9369.3819258422
 21
6328.4749487302
 31
0.0
  0
LINE
  5
1B2
330
1F
100
AcDbEntity
  8
0
  6
Continuous
 62
     7
370
    25
100
AcDbLine
 10
-9368.8622418422
 20
6325.6848857302
 30
0.0
 11
-9368.3443358422
 21
6328.1507177302
 31
0.0
  0
LINE
  5
1B3
330
1F
100
AcDbEntity
  8
0
  6
Continuous
 62
     7
370
    25
100
AcDbLine
 10
-9369.8687168422
 20
6325.7497827302
 30
0.0
 11
-9368.8622418422
 21
6325.6848857302
 31
0.0
  0
LINE
  5
1B4
330
1F
100
AcDbEntity
  8
0
  6
Continuous
 62
     7
370
    25
100
AcDbLine
 10
-9370.5499448422
 20
6326.7873727302
 30
0.0
 11
-9369.8687168422
 21
6325.7497827302
 31
0.0
  0
LINE
  5
1B5
330
1F
100
AcDbEntity
  8
0
  6
Continuous
 62
     7
370
    25
100
AcDbLine
 10
-9371.3287088422
 20
6326.8526507302
 30
0.0
 11
-9370.5499448422
 21
6326.7873727302
 31
0.0
  0
LINE
  5
1B6
330
1F
100
AcDbEntity
  8
0
  6
Continuous
 62
     7
370
    25
100
AcDbLine
 10
-9371.8481388422
 20
6325.8466837302
 30
0.0
 11
-9371.3287088422
 21
6326.8526507302
 31
0.0
  0
LINE
  5
1B7
330
1F
100
AcDbEntity
  8
0
  6
Continuous
 62
     7
370
    25
100
AcDbLine
 10
-9374.9954528422
 20
6325.7497827302
 30
0.0
 11
-9371.8481388422
 21
6325.8466837302
 31
0.0
  0
LINE
  5
1B8
330
1F
100
AcDbEntity
  8
0
  6
Continuous
 62
     7
370
    25
100
AcDbLine
 10
-9375.8389868422
 20
6325.3285237302
 30
0.0
 11
-9374.9954528422
 21
6325.7497827302
 31
0.0
  0
LINE
  5
1B9
330
1F
100
AcDbEntity
  8
0
  6
Continuous
 62
     7
370
    25
100
AcDbLine
 10
-9376.8768308422
 20
6325.7497827302
 30
0.0
 11
-9375.8389868422
 21
6325.3285237302
 31
0.0
  0
LINE
  5
1BA
330
1F
100
AcDbEntity
  8
0
  6
Continuous
 62
     7
370
    25
100
AcDbLine
 10
-9378.0767268422
 20
6325.0028957302
 30
0.0
 11
-9376.8768308422
 21
6325.7497827302
 31
0.0
  0
LINE
  5
1BB
330
1F
100
AcDbEntity
  8
0
  6
Continuous
 62
     7
370
    25
100
AcDbLine
 10
-9379.2780198422
 20
6325.4249167302
 30
0.0
 11
-9378.0767268422
 21
6325.0028957302
 31
0.0
  0
LINE
  5
1BC
330
1F
100
AcDbEntity
  8
0
  6
Continuous
 62
     7
370
    25
100
AcDbLine
 10
-9380.0246528422
 20
6326.1069067302
 30
0.0
 11
-9379.2780198422
 21
6325.4249167302
 31
0.0
  0
LINE
  5
1BD
330
1F
100
AcDbEntity
  8
0
  6
Continuous
 62
     7
370
    25
100
AcDbLine
 10
-9381.5817998422
 20
6325.9451087302
 30
0.0
 11
-9380.0246528422
 21
6326.1069067302
 31
0.0
  0
LINE
  5
1BE
330
1F
100
AcDbEntity
  8
0
  6
Continuous
 62
     7
370
    25
100
AcDbLine
 10
-9382.8474818422
 20
6324.8089667302
 30
0.0
 11
-9381.5817998422
 21
6325.9451087302
 31
0.0
  0
LINE
  5
1BF
330
1F
100
AcDbEntity
  8
0
  6
Continuous
 62
     7
370
    25
100
AcDbLine
 10
-9384.3723708422
 20
6325.9451087302
 30
0.0
 11
-9382.8474818422
 21
6324.8089667302
 31
0.0
  0
LINE
  5
1C0
330
1F
100
AcDbEntity
  8
0
  6
Continuous
 62
     7
370
    25
100
AcDbLine
 10
-9385.8323628422
 20
6324.8089667302
 30
0.0
 11
-9384.3723708422
 21
6325.9451087302
 31
0.0
  0
LINE
  5
1C1
330
1F
100
AcDbEntity
  8
0
  6
Continuous
 62
     7
370
    25
100
AcDbLine
 10
-9387.1954538422
 20
6325.2631187302
 30
0.0
 11
-9385.8323628422
 21
6324.8089667302
 31
0.0
  0
LINE
  5
1C2
330
1F
100
AcDbEntity
  8
0
  6
Continuous
 62
     7
370
    25
100
AcDbLine
 10
-9388.7526008422
 20
6324.6470417302
 30
0.0
 11
-9387.1954538422
 21
6325.2631187302
 31
0.0
  0
LINE
  5
1C3
330
1F
100
AcDbEntity
  8
0
  6
Continuous
 62
     7
370
    25
100
AcDbLine
 10
-9390.6990028422
 20
6326.0092437302
 30
0.0
 11
-9388.7526008422
 21
6324.6470417302
 31
0.0
  0
LINE
  5
1C4
330
1F
100
AcDbEntity
  8
0
  6
Continuous
 62
     7
370
    25
100
AcDbLine
 10
-9391.6398188422
 20
6326.0092437302
 30
0.0
 11
-9390.6990028422
 21
6326.0092437302
 31
0.0
  0
LINE
  5
1C5
330
1F
100
AcDbEntity
  8
0
  6
Continuous
 62
     7
370
    25
100
AcDbLine
 10
-9391.8023788422
 20
6325.2631187302
 30
0.0
 11
-9391.6398188422
 21
6326.0092437302
 31
0.0
  0
LINE
  5
1C6
330
1F
100
AcDbEntity
  8
0
  6
Continuous
 62
     7
370
    25
100
AcDbLine
 10
-9393.4246768422
 20
6324.0628417302
 30
0.0
 11
-9391.8023788422
 21
6325.2631187302
 31
0.0
  0
LINE
  5
1C7
330
1F
100
AcDbEntity
  8
0
  6
Continuous
 62
     7
370
    25
100
AcDbLine
 10
-9393.4246768422
 20
6322.0183957302
 30
0.0
 11
-9393.4246768422
 21
6324.0628417302
 31
0.0
  0
LINE
  5
1C8
330
1F
100
AcDbEntity
  8
0
  6
Continuous
 62
     7
370
    25
100
AcDbLine
 10
-9394.7873868422
 20
6322.0183957302
 30
0.0
 11
-9393.4246768422
 21
6322.0183957302
 31
0.0
  0
LINE
  5
1C9
330
1F
100
AcDbEntity
  8
0
  6
Continuous
 62
     7
370
    25
100
AcDbLine
 10
-9396.7668088422
 20
6319.9425807302
 30
0.0
 11
-9394.7873868422
 21
6322.0183957302
 31
0.0
  0
LINE
  5
1CA
330
1F
100
AcDbEntity
  8
0
  6
Continuous
 62
     7
370
    25
100
AcDbLine
 10
-9396.6699078422
 20
6319.0982847302
 30
0.0
 11
-9396.7668088422
 21
6319.9425807302
 31
0.0
  0
LINE
  5
1CB
330
1F
100
AcDbEntity
  8
0
  6
Continuous
 62
     7
370
    25
100
AcDbLine
 10
-9397.7731568422
 20
6316.5346627302
 30
0.0
 11
-9396.6699078422
 21
6319.0982847302
 31
0.0
  0
LINE
  5
1CC
330
1F
100
AcDbEntity
  8
0
  6
Continuous
 62
     7
370
    25
100
AcDbLine
 10
-9396.6051378422
 20
6315.1071827302
 30
0.0
 11
-9397.7731568422
 21
6316.5346627302
 31
0.0
  0
LINE
  5
1CD
330
1F
100
AcDbEntity
  8
0
  6
Continuous
 62
     7
370
    25
100
AcDbLine
 10
-9398.1298998422
 20
6314.5885147302
 30
0.0
 11
-9396.6051378422
 21
6315.1071827302
 31
0.0
  0
LINE
  5
1CE
330
1F
100
AcDbEntity
  8
0
  6
Continuous
 62
     7
370
    25
100
AcDbLine
 10
-9400.0115318422
 20
6308.5202007302
 30
0.0
 11
-9398.1298998422
 21
6314.5885147302
 31
0.0
  0
LINE
  5
1CF
330
1F
100
AcDbEntity
  8
0
  6
Continuous
 62
     7
370
    25
100
AcDbLine
 10
-9400.0115318422
 20
6308.1635847302
 30
0.0
 11
-9400.0115318422
 21
6308.5202007302
 31
0.0
  0
LINE
  5
1D0
330
1F
100
AcDbEntity
  8
0
  6
Continuous
 62
     7
370
    25
100
AcDbLine
 10
-9401.6980918422
 20
6308.0019137302
 30
0.0
 11
-9400.0115318422
 21
6308.1635847302
 31
0.0
  0
LINE
  5
1D1
330
1F
100
AcDbEntity
  8
0
  6
Continuous
 62
     7
370
    25
100
AcDbLine
 10
-9403.7422838422
 20
6308.5203277302
 30
0.0
 11
-9401.6980918422
 21
6308.0019137302
 31
0.0
  0
LINE
  5
1D2
330
1F
100
AcDbEntity
  8
0
  6
Continuous
 62
     7
370
    25
100
AcDbLine
 10
-9406.1441078422
 20
6309.9812087302
 30
0.0
 11
-9403.7422838422
 21
6308.5203277302
 31
0.0
  0
LINE
  5
1D3
330
1F
100
AcDbEntity
  8
0
  6
Continuous
 62
     7
370
    25
100
AcDbLine
 10
-9406.5658748422
 20
6309.1049087302
 30
0.0
 11
-9406.1441078422
 21
6309.9812087302
 31
0.0
  0
LINE
  5
1D4
330
1F
100
AcDbEntity
  8
0
  6
Continuous
 62
     7
370
    25
100
AcDbLine
 10
-9407.5068178422
 20
6310.8247427302
 30
0.0
 11
-9406.5658748422
 21
6309.1049087302
 31
0.0
  0
LINE
  5
1D5
330
1F
100
AcDbEntity
  8
0
  6
Continuous
 62
     7
370
    25
100
AcDbLine
 10
-9410.4930958422
 20
6310.8247427302
 30
0.0
 11
-9407.5068178422
 21
6310.8247427302
 31
0.0
  0
LINE
  5
1D6
330
1F
100
AcDbEntity
  8
0
  6
Continuous
 62
     7
370
    25
100
AcDbLine
 10
-9411.7901468422
 20
6313.3873487302
 30
0.0
 11
-9410.4930958422
 21
6310.8247427302
 31
0.0
  0
LINE
  5
1D7
330
1F
100
AcDbEntity
  8
0
  6
Continuous
 62
     7
370
    25
100
AcDbLine
 10
-9412.7958598422
 20
6315.9510977302
 30
0.0
 11
-9411.7901468422
 21
6313.3873487302
 31
0.0
  0
LINE
  5
1D8
330
1F
100
AcDbEntity
  8
0
  6
Continuous
 62
     7
370
    25
100
AcDbLine
 10
-9414.8399248422
 20
6316.0153597302
 30
0.0
 11
-9412.7958598422
 21
6315.9510977302
 31
0.0
  0
LINE
  5
1D9
330
1F
100
AcDbEntity
  8
0
  6
Continuous
 62
     7
370
    25
100
AcDbLine
 10
-9416.0409638422
 20
6315.0104087302
 30
0.0
 11
-9414.8399248422
 21
6316.0153597302
 31
0.0
  0
LINE
  5
1DA
330
1F
100
AcDbEntity
  8
0
  6
Continuous
 62
     7
370
    25
100
AcDbLine
 10
-9419.6421758422
 20
6319.7148697302
 30
0.0
 11
-9416.0409638422
 21
6315.0104087302
 31
0.0
  0
LINE
  5
1DB
330
1F
100
AcDbEntity
  8
0
  6
Continuous
 62
     7
370
    25
100
AcDbLine
 10
-9419.4479928422
 20
6321.3372947302
 30
0.0
 11
-9419.6421758422
 21
6319.7148697302
 31
0.0
  0
LINE
  5
1DC
330
1F
100
AcDbEntity
  8
0
  6
Continuous
 62
     7
370
    25
100
AcDbLine
 10
-9417.8255678422
 20
6321.4020647302
 30
0.0
 11
-9419.4479928422
 21
6321.3372947302
 31
0.0
  0
LINE
  5
1DD
330
1F
100
AcDbEntity
  8
0
  6
Continuous
 62
     7
370
    25
100
AcDbLine
 10
-9417.4036738422
 20
6322.2453447302
 30
0.0
 11
-9417.8255678422
 21
6321.4020647302
 31
0.0
  0
LINE
  5
1DE
330
1F
100
AcDbEntity
  8
0
  6
Continuous
 62
     7
370
    25
100
AcDbLine
 10
-9419.4479928422
 20
6323.9659407302
 30
0.0
 11
-9417.4036738422
 21
6322.2453447302
 31
0.0
  0
LINE
  5
1DF
330
1F
100
AcDbEntity
  8
0
  6
Continuous
 62
     7
370
    25
100
AcDbLine
 10
-9419.5445128422
 20
6323.9980717302
 30
0.0
 11
-9419.4479928422
 21
6323.9659407302
 31
0.0
  0
LINE
  5
1E0
330
1F
100
AcDbEntity
  8
0
  6
Continuous
 62
     7
370
    25
100
AcDbLine
 10
-9419.5445128422
 20
6324.0629687302
 30
0.0
 11
-9419.5445128422
 21
6323.9980717302
 31
0.0
  0
LINE
  5
1E1
330
1F
100
AcDbEntity
  8
0
  6
Continuous
 62
     7
370
    25
100
AcDbLine
 10
-9418.5067958422
 20
6327.6319227302
 30
0.0
 11
-9419.5445128422
 21
6324.0629687302
 31
0.0
  0
LINE
  5
1E2
330
1F
100
AcDbEntity
  8
0
  6
Continuous
 62
     7
370
    25
100
AcDbLine
 10
-9422.0097098422
 20
6331.4922147302
 30
0.0
 11
-9418.5067958422
 21
6327.6319227302
 31
0.0
  0
LINE
  5
1E3
330
1F
100
AcDbEntity
  8
0
  6
Continuous
 62
     7
370
    25
100
AcDbLine
 10
-9424.1518188422
 20
6330.4546247302
 30
0.0
 11
-9422.0097098422
 21
6331.4922147302
 31
0.0
  0
LINE
  5
1E4
330
1F
100
AcDbEntity
  8
0
  6
Continuous
 62
     7
370
    25
100
AcDbLine
 10
-9423.7952028422
 20
6333.1802987302
 30
0.0
 11
-9424.1518188422
 21
6330.4546247302
 31
0.0
  0
LINE
  5
1E5
330
1F
100
AcDbEntity
  8
0
  6
Continuous
 62
     7
370
    25
100
AcDbLine
 10
-9422.8862638422
 20
6334.0240867302
 30
0.0
 11
-9423.7952028422
 21
6333.1802987302
 31
0.0
  0
LINE
  5
1E6
330
1F
100
AcDbEntity
  8
0
  6
Continuous
 62
     7
370
    25
100
AcDbLine
 10
-9421.7505028422
 20
6335.8410757302
 30
0.0
 11
-9422.8862638422
 21
6334.0240867302
 31
0.0
  0
LINE
  5
1E7
330
1F
100
AcDbEntity
  8
0
  6
Continuous
 62
     7
370
    25
100
AcDbLine
 10
-9421.3291168422
 20
6340.7732477302
 30
0.0
 11
-9421.7505028422
 21
6335.8410757302
 31
0.0
  0
LINE
  5
1E8
330
1F
100
AcDbEntity
  8
0
  6
Continuous
 62
     7
370
    25
100
AcDbLine
 10
-9421.5889588422
 20
6346.3213697302
 30
0.0
 11
-9421.3291168422
 21
6340.7732477302
 31
0.0
  0
LINE
  5
1E9
330
1F
100
AcDbEntity
  8
0
  6
Continuous
 62
     7
370
    25
100
AcDbLine
 10
-9423.8928658422
 20
6348.3654347302
 30
0.0
 11
-9421.5889588422
 21
6346.3213697302
 31
0.0
  0
LINE
  5
1EA
330
1F
100
AcDbEntity
  8
0
  6
Continuous
 62
     7
370
    25
100
AcDbLine
 10
-9402.0552158422
 20
6371.7597237302
 30
0.0
 11
-9423.8928658422
 21
6348.3654347302
 31
0.0
  0
LINE
  5
1EB
330
1F
100
AcDbEntity
  8
0
  6
Continuous
 62
     7
370
    25
100
AcDbLine
 10
-9400.4984498422
 20
6373.9662217302
 30
0.0
 11
-9402.0552158422
 21
6371.7597237302
 31
0.0
  0
LINE
  5
1EC
330
1F
100
AcDbEntity
  8
0
  6
Continuous
 62
     7
370
    25
100
AcDbLine
 10
-9397.3513898422
 20
6375.6851667302
 30
0.0
 11
-9400.4984498422
 21
6373.9662217302
 31
0.0
  0
LINE
  5
1ED
330
1F
100
AcDbEntity
  8
0
  6
Continuous
 62
     7
370
    25
100
AcDbLine
 10
-9394.7231248422
 20
6377.7293587302
 30
0.0
 11
-9397.3513898422
 21
6375.6851667302
 31
0.0
  0
LINE
  5
1EE
330
1F
100
AcDbEntity
  8
0
  6
Continuous
 62
     7
370
    25
100
AcDbLine
 10
-9389.7581868422
 20
6381.5581547302
 30
0.0
 11
-9394.7231248422
 21
6377.7293587302
 31
0.0
  0
LINE
  5
1EF
330
1F
100
AcDbEntity
  8
0
  6
Continuous
 62
     7
370
    25
100
AcDbLine
 10
-9387.6178558422
 20
6383.3747627302
 30
0.0
 11
-9389.7581868422
 21
6381.5581547302
 31
0.0
  0
LINE
  5
1F0
330
1F
100
AcDbEntity
  8
0
  6
Continuous
 62
     7
370
    25
100
AcDbLine
 10
-9386.7727978422
 20
6385.9059997302
 30
0.0
 11
-9387.6178558422
 21
6383.3747627302
 31
0.0
  0
LINE
  5
1F1
330
1F
100
AcDbEntity
  8
0
  6
Continuous
 62
     7
370
    25
100
AcDbLine
 10
-9384.3070928422
 20
6386.2631237302
 30
0.0
 11
-9386.7727978422
 21
6385.9059997302
 31
0.0
  0
LINE
  5
1F2
330
1F
100
AcDbEntity
  8
0
  6
Continuous
 62
     7
370
    25
100
AcDbLine
 10
-9381.3220848422
 20
6386.2631237302
 30
0.0
 11
-9384.3070928422
 21
6386.2631237302
 31
0.0
  0
LINE
  5
1F3
330
1F
100
AcDbEntity
  8
0
  6
Continuous
 62
     7
370
    25
100
AcDbLine
 10
-9378.2399218422
 20
6386.5872277302
 30
0.0
 11
-9381.3220848422
 21
6386.2631237302
 31
0.0
  0
LINE
  5
1F4
330
1F
100
AcDbEntity
  8
0
  6
Continuous
 62
     7
370
    25
100
AcDbLine
 10
-9376.3581628422
 20
6388.2099067302
 30
0.0
 11
-9378.2399218422
 21
6386.5872277302
 31
0.0
  0
LINE
  5
1F5
330
1F
100
AcDbEntity
  8
0
  6
Continuous
 62
     7
370
    25
100
AcDbLine
 10
-9375.3518148422
 20
6389.7667997302
 30
0.0
 11
-9376.3581628422
 21
6388.2099067302
 31
0.0
  0
LINE
  5
1F6
330
1F
100
AcDbEntity
  8
0
  6
Continuous
 62
     7
370
    25
100
AcDbLine
 10
-9374.9954528422
 20
6391.8767777302
 30
0.0
 11
-9375.3518148422
 21
6389.7667997302
 31
0.0
  0
LINE
  5
1F7
330
1F
100
AcDbEntity
  8
0
  6
Continuous
 62
     7
370
    25
100
AcDbLine
 10
-9374.4765308422
 20
6394.2119267302
 30
0.0
 11
-9374.9954528422
 21
6391.8767777302
 31
0.0
  0
LINE
  5
1F8
330
1F
100
AcDbEntity
  8
0
  6
Continuous
 62
     7
370
    25
100
AcDbLine
 10
-9374.4113798422
 20
6396.1590907302
 30
0.0
 11
-9374.4765308422
 21
6394.2119267302
 31
0.0
  0
LINE
  5
1F9
330
1F
100
AcDbEntity
  8
0
  6
Continuous
 62
     7
370
    25
100
AcDbLine
 10
-9372.6257598422
 20
6396.2568807302
 30
0.0
 11
-9374.4113798422
 21
6396.1590907302
 31
0.0
  0
LINE
  5
1FA
330
1F
100
AcDbEntity
  8
0
  6
Continuous
 62
     7
370
    25
100
AcDbLine
 10
-9369.7061568422
 20
6393.0769277302
 30
0.0
 11
-9372.6257598422
 21
6396.2568807302
 31
0.0
  0
LINE
  5
1FB
330
1F
100
AcDbEntity
  8
0
  6
Continuous
 62
     7
370
    25
100
AcDbLine
 10
-9367.5001668422
 20
6392.3306757302
 30
0.0
 11
-9369.7061568422
 21
6393.0769277302
 31
0.0
  0
LINE
  5
1FC
330
1F
100
AcDbEntity
  8
0
  6
Continuous
 62
     7
370
    25
100
AcDbLine
 10
-9366.8185578422
 20
6393.4989487302
 30
0.0
 11
-9367.5001668422
 21
6392.3306757302
 31
0.0
  0
LINE
  5
1FD
330
1F
100
AcDbEntity
  8
0
  6
Continuous
 62
     7
370
    25
100
AcDbLine
 10
-9365.5212528422
 20
6393.7584097302
 30
0.0
 11
-9366.8185578422
 21
6393.4989487302
 31
0.0
  0
LINE
  5
1FE
330
1F
100
AcDbEntity
  8
0
  6
Continuous
 62
     7
370
    25
100
AcDbLine
 10
-9364.5149048422
 20
6392.9148757302
 30
0.0
 11
-9365.5212528422
 21
6393.7584097302
 31
0.0
  0
LINE
  5
1FF
330
1F
100
AcDbEntity
  8
0
  6
Continuous
 62
     7
370
    25
100
AcDbLine
 10
-9365.0988508422
 20
6391.8767777302
 30
0.0
 11
-9364.5149048422
 21
6392.9148757302
 31
0.0
  0
LINE
  5
200
330
1F
100
AcDbEntity
  8
0
  6
Continuous
 62
     7
370
    25
100
AcDbLine
 10
-9363.3795248422
 20
6390.4486627302
 30
0.0
 11
-9365.0988508422
 21
6391.8767777302
 31
0.0
  0
LINE
  5
201
330
1F
100
AcDbEntity
  8
0
  6
Continuous
 62
     7
370
    25
100
AcDbLine
 10
-9360.9136928422
 20
6390.7083777302
 30
0.0
 11
-9363.3795248422
 21
6390.4486627302
 31
0.0
  0
LINE
  5
202
330
1F
100
AcDbEntity
  8
0
  6
Continuous
 62
     7
370
    25
100
AcDbLine
 10
-9360.0693968422
 20
6387.7231157302
 30
0.0
 11
-9360.9136928422
 21
6390.7083777302
 31
0.0
  0
LINE
  5
203
330
1F
100
AcDbEntity
  8
0
  6
Continuous
 62
     7
370
    25
100
AcDbLine
 10
-9359.2917758422
 20
6388.4693677302
 30
0.0
 11
-9360.0693968422
 21
6387.7231157302
 31
0.0
  0
LINE
  5
204
330
1F
100
AcDbEntity
  8
0
  6
Continuous
 62
     7
370
    25
100
AcDbLine
 10
-9358.7066868422
 20
6388.1446287302
 30
0.0
 11
-9359.2917758422
 21
6388.4693677302
 31
0.0
  0
LINE
  5
205
330
1F
100
AcDbEntity
  8
0
  6
Continuous
 62
     7
370
    25
100
AcDbLine
 10
-9359.8101898422
 20
6384.3811107302
 30
0.0
 11
-9358.7066868422
 21
6388.1446287302
 31
0.0
  0
LINE
  5
206
330
1F
100
AcDbEntity
  8
0
  6
Continuous
 62
     7
370
    25
100
AcDbLine
 10
-9358.8692468422
 20
6384.0571337302
 30
0.0
 11
-9359.8101898422
 21
6384.3811107302
 31
0.0
  0
LINE
  5
207
330
1F
100
AcDbEntity
  8
0
  6
Continuous
 62
     7
370
    25
100
AcDbLine
 10
-9357.9285578422
 20
6384.2186777302
 30
0.0
 11
-9358.8692468422
 21
6384.0571337302
 31
0.0
  0
LINE
  5
208
330
1F
100
AcDbEntity
  8
0
  6
Continuous
 62
     7
370
    25
100
AcDbLine
 10
-9358.0253318422
 20
6383.1804527302
 30
0.0
 11
-9357.9285578422
 21
6384.2186777302
 31
0.0
  0
LINE
  5
209
330
1F
100
AcDbEntity
  8
0
  6
Continuous
 62
     7
370
    25
100
AcDbLine
 10
-9356.0465448422
 20
6382.2397637302
 30
0.0
 11
-9358.0253318422
 21
6383.1804527302
 31
0.0
  0
LINE
  5
20A
330
1F
100
AcDbEntity
  8
0
  6
Continuous
 62
     7
370
    25
100
AcDbLine
 10
-9355.7870838422
 20
6380.1950637302
 30
0.0
 11
-9356.0465448422
 21
6382.2397637302
 31
0.0
  0
LINE
  5
20B
330
1F
100
AcDbEntity
  8
0
  6
Continuous
 62
     7
370
    25
100
AcDbLine
 10
-9353.9374558422
 20
6379.2543747302
 30
0.0
 11
-9355.7870838422
 21
6380.1950637302
 31
0.0
  0
LINE
  5
20C
330
1F
100
AcDbEntity
  8
0
  6
Continuous
 62
     7
370
    25
100
AcDbLine
 10
-9351.4383498422
 20
6379.5133277302
 30
0.0
 11
-9353.9374558422
 21
6379.2543747302
 31
0.0
  0
LINE
  5
20D
330
1F
100
AcDbEntity
  8
0
  6
Continuous
 62
     7
370
    25
100
AcDbLine
 10
-9350.5957048422
 20
6380.9744627302
 30
0.0
 11
-9351.4383498422
 21
6379.5133277302
 31
0.0
  0
LINE
  5
20E
330
1F
100
AcDbEntity
  8
0
  6
Continuous
 62
     7
370
    25
100
AcDbLine
 10
-9350.4332718422
 20
6379.2543747302
 30
0.0
 11
-9350.5957048422
 21
6380.9744627302
 31
0.0
  0
LINE
  5
20F
330
1F
100
AcDbEntity
  8
0
  6
Continuous
 62
     7
370
    25
100
AcDbLine
 10
-9349.0692918422
 20
6379.4494467302
 30
0.0
 11
-9350.4332718422
 21
6379.2543747302
 31
0.0
  0
LINE
  5
210
330
1F
100
AcDbEntity
  8
0
  6
Continuous
 62
     7
370
    25
100
AcDbLine
 10
-9348.9730258422
 20
6381.3962297302
 30
0.0
 11
-9349.0692918422
 21
6379.4494467302
 31
0.0
  0
LINE
  5
211
330
1F
100
AcDbEntity
  8
0
  6
Continuous
 62
     7
370
    25
100
AcDbLine
 10
-9348.1297458422
 20
6381.2339237302
 30
0.0
 11
-9348.9730258422
 21
6381.3962297302
 31
0.0
  0
LINE
  5
212
330
1F
100
AcDbEntity
  8
0
  6
Continuous
 62
     7
370
    25
100
AcDbLine
 10
-9347.0908858422
 20
6379.8712137302
 30
0.0
 11
-9348.1297458422
 21
6381.2339237302
 31
0.0
  0
LINE
  5
213
330
1F
100
AcDbEntity
  8
0
  6
Continuous
 62
     7
370
    25
100
AcDbLine
 10
-9345.8895928422
 20
6379.8712137302
 30
0.0
 11
-9347.0908858422
 21
6379.8712137302
 31
0.0
  0
LINE
  5
214
330
1F
100
AcDbEntity
  8
0
  6
Continuous
 62
     7
370
    25
100
AcDbLine
 10
-9345.3057738422
 20
6378.9301437302
 30
0.0
 11
-9345.8895928422
 21
6379.8712137302
 31
0.0
  0
LINE
  5
215
330
1F
100
AcDbEntity
  8
0
  6
Continuous
 62
     7
370
    25
100
AcDbLine
 10
-9346.0847918422
 20
6377.1452857302
 30
0.0
 11
-9345.3057738422
 21
6378.9301437302
 31
0.0
  0
LINE
  5
216
330
1F
100
AcDbEntity
  8
0
  6
Continuous
 62
     7
370
    25
100
AcDbLine
 10
-9344.7220818422
 20
6376.3671567302
 30
0.0
 11
-9346.0847918422
 21
6377.1452857302
 31
0.0
  0
LINE
  5
217
330
1F
100
AcDbEntity
  8
0
  6
Continuous
 62
     7
370
    25
100
AcDbLine
 10
-9341.7046888422
 20
6376.5283197302
 30
0.0
 11
-9344.7220818422
 21
6376.3671567302
 31
0.0
  0
LINE
  5
218
330
1F
100
AcDbEntity
  8
0
  6
Continuous
 62
     7
370
    25
100
AcDbLine
 10
-9341.6399188422
 20
6374.4852707302
 30
0.0
 11
-9341.7046888422
 21
6376.5283197302
 31
0.0
  0
LINE
  5
219
330
1F
100
AcDbEntity
  8
0
  6
Continuous
 62
     7
370
    25
100
AcDbLine
 10
-9343.2622168422
 20
6373.9005627302
 30
0.0
 11
-9341.6399188422
 21
6374.4852707302
 31
0.0
  0
LINE
  5
21A
330
1F
100
AcDbEntity
  8
0
  6
Continuous
 62
     7
370
    25
100
AcDbLine
 10
-9342.9049658422
 20
6371.6619337302
 30
0.0
 11
-9343.2622168422
 21
6373.9005627302
 31
0.0
  0
ENDSEC
  0
SECTION
  2
OBJECTS
  0
DICTIONARY
  5
C
330
0
100
AcDbDictionary
281
     1
  3
ACAD_GROUP
350
D
  3
ACAD_LAYOUT
350
1A
  3
ACAD_MLINESTYLE
350
17
  3
ACAD_PLOTSETTINGS
350
19
  3
ACAD_PLOTSTYLENAME
350
E
  3
ACAD_SCALELIST
350
47
  0
DICTIONARY
  5
D
102
{ACAD_REACTORS
330
C
102
}
330
C
100
AcDbDictionary
281
     1
  0
DICTIONARY
  5
1A
102
{ACAD_REACTORS
330
C
102
}
330
C
100
AcDbDictionary
281
     1
  3
Layout1
350
1E
  3
Layout2
350
26
  3
Model
350
22
  0
DICTIONARY
  5
17
102
{ACAD_REACTORS
330
C
102
}
330
C
100
AcDbDictionary
281
     1
  3
Standard
350
18
  0
DICTIONARY
  5
19
102
{ACAD_REACTORS
330
C
102
}
330
C
100
AcDbDictionary
281
     1
  0
ACDBDICTIONARYWDFLT
  5
E
102
{ACAD_REACTORS
330
C
102
}
330
C
100
AcDbDictionary
281
     1
  3
Normal
350
F
100
AcDbDictionaryWithDefault
340
F
  0
DICTIONARY
  5
47
102
{ACAD_REACTORS
330
C
102
}
330
C
100
AcDbDictionary
281
     1
  3
A0
350
48
  3
A1
350
49
  3
A2
350
4A
  3
A3
350
4B
  3
A4
350
4C
  3
A5
350
4D
  3
A6
350
4E
  3
A7
350
4F
  3
A8
350
50
  3
A9
350
51
  3
B0
350
52
  3
B1
350
53
  3
B2
350
54
  3
B3
350
55
  3
B4
350
56
  3
B5
350
57
  3
B6
350
58
  3
B7
350
59
  3
B8
350
5A
  3
B9
350
5B
  3
C0
350
5C
  3
C1
350
5D
  3
C2
350
5E
  3
C3
350
5F
  3
C4
350
60
  3
C5
350
61
  3
C6
350
62
  3
C7
350
63
  3
C8
350
64
  3
C9
350
65
  3
D0
350
66
  3
D1
350
67
  3
D2
350
68
  0
LAYOUT
  5
1E
102
{ACAD_REACTORS
330
1A
102
}
330
1A
100
AcDbPlotSettings
  1

  2
none_device
  4

  6

 40
0.0
 41
0.0
 42
0.0
 43
0.0
 44
0.0
 45
0.0
 46
0.0
 47
0.0
 48
0.0
 49
0.0
140
0.0
141
0.0
142
1.0
143
1.0
 70
   688
 72
     1
 73
     0
 74
     5
  7

 75
    16
147
1.0
148
0.0
149
0.0
100
AcDbLayout
  1
Layout1
 70
     1
 71
     1
 10
0.0
 20
0.0
 11
420.0
 21
297.0
 12
0.0
 22
0.0
 32
0.0
 14
1.0000000000E+20
 24
1.0000000000E+20
 34
1.0000000000E+20
 15
-1.0000000000E+20
 25
-1.0000000000E+20
 35
-1.0000000000E+20
146
0.0
 13
0.0
 23
0.0
 33
0.0
 16
1.0
 26
0.0
 36
0.0
 17
0.0
 27
1.0
 37
0.0
 76
     0
330
1B
  0
LAYOUT
  5
26
102
{ACAD_REACTORS
330
1A
102
}
330
1A
100
AcDbPlotSettings
  1

  2
none_device
  4

  6

 40
0.0
 41
0.0
 42
0.0
 43
0.0
 44
0.0
 45
0.0
 46
0.0
 47
0.0
 48
0.0
 49
0.0
140
0.0
141
0.0
142
1.0
143
1.0
 70
   688
 72
     1
 73
     0
 74
     5
  7

 75
    16
147
1.0
148
0.0
149
0.0
100
AcDbLayout
  1
Layout2
 70
     1
 71
     2
 10
0.0
 20
0.0
 11
0.0
 21
0.0
 12
0.0
 22
0.0
 32
0.0
 14
0.0
 24
0.0
 34
0.0
 15
0.0
 25
0.0
 35
0.0
146
0.0
 13
0.0
 23
0.0
 33
0.0
 16
1.0
 26
0.0
 36
0.0
 17
0.0
 27
1.0
 37
0.0
 76
     0
330
23
  0
LAYOUT
  5
22
102
{ACAD_REACTORS
330
1A
102
}
330
1A
100
AcDbPlotSettings
  1

  2
none_device
  4
ANSI_A_(11.00_x_8.50_Inches)
  6

 40
6.35
 41
19.05
 42
6.35000508
 43
19.05000254
 44
279.4
 45
215.9
 46
22851.4984916075
 47
-15295.055552388
 48
0.0
 49
0.0
140
0.0
141
0.0
142
0.0953487411
143
1.0
 70
  1696
 72
     0
 73
     0
 74
     0
  7

 75
     0
147
0.0179189148
148
-1300.4909072572
149
0.0
100
AcDbLayout
  1
Model
 70
     1
 71
     0
 10
0.0
 20
0.0
 11
420.0
 21
297.0
 12
0.0
 22
0.0
 32
0.0
 14
-9424.1518188422
 24
6308.0019137302
 34
0.0
 15
-9336.7732788422
 25
6396.2568807302
 35
0.0
146
0.0
 13
0.0
 23
0.0
 33
0.0
 16
1.0
 26
0.0
 36
0.0
 17
0.0
 27
1.0
 37
0.0
 76
     0
330
1F
331
29
  0
MLINESTYLE
  5
18
102
{ACAD_REACTORS
330
17
102
}
330
17
100
AcDbMlineStyle
  2
Standard
 70
     0
  3

 62
   256
 51
90.0
 52
90.0
 71
     2
 49
0.5
 62
   256
  6
BYLAYER
 49
-0.5
 62
   256
  6
BYLAYER
  0
ACDBPLACEHOLDER
  5
F
102
{ACAD_REACTORS
330
E
102
}
330
E
  0
SCALE
  5
48
102
{ACAD_REACTORS
330
47
102
}
330
47
100
AcDbScale
 70
     0
300
1:1
140
1.0
141
1.0
290
     1
  0
SCALE
  5
49
102
{ACAD_REACTORS
330
47
102
}
330
47
100
AcDbScale
 70
     0
300
1:2
140
1.0
141
2.0
290
     0
  0
SCALE
  5
4A
102
{ACAD_REACTORS
330
47
102
}
330
47
100
AcDbScale
 70
     0
300
1:4
140
1.0
141
4.0
290
     0
  0
SCALE
  5
4B
102
{ACAD_REACTORS
330
47
102
}
330
47
100
AcDbScale
 70
     0
300
1:5
140
1.0
141
5.0
290
     0
  0
SCALE
  5
4C
102
{ACAD_REACTORS
330
47
102
}
330
47
100
AcDbScale
 70
     0
300
1:8
140
1.0
141
8.0
290
     0
  0
SCALE
  5
4D
102
{ACAD_REACTORS
330
47
102
}
330
47
100
AcDbScale
 70
     0
300
1:10
140
1.0
141
10.0
290
     0
  0
SCALE
  5
4E
102
{ACAD_REACTORS
330
47
102
}
330
47
100
AcDbScale
 70
     0
300
1:16
140
1.0
141
16.0
290
     0
  0
SCALE
  5
4F
102
{ACAD_REACTORS
330
47
102
}
330
47
100
AcDbScale
 70
     0
300
1:20
140
1.0
141
20.0
290
     0
  0
SCALE
  5
50
102
{ACAD_REACTORS
330
47
102
}
330
47
100
AcDbScale
 70
     0
300
1:30
140
1.0
141
30.0
290
     0
  0
SCALE
  5
51
102
{ACAD_REACTORS
330
47
102
}
330
47
100
AcDbScale
 70
     0
300
1:40
140
1.0
141
40.0
290
     0
  0
SCALE
  5
52
102
{ACAD_REACTORS
330
47
102
}
330
47
100
AcDbScale
 70
     0
300
1:50
140
1.0
141
50.0
290
     0
  0
SCALE
  5
53
102
{ACAD_REACTORS
330
47
102
}
330
47
100
AcDbScale
 70
     0
300
1:100
140
1.0
141
100.0
290
     0
  0
SCALE
  5
54
102
{ACAD_REACTORS
330
47
102
}
330
47
100
AcDbScale
 70
     0
300
2:1
140
2.0
141
1.0
290
     0
  0
SCALE
  5
55
102
{ACAD_REACTORS
330
47
102
}
330
47
100
AcDbScale
 70
     0
300
4:1
140
4.0
141
1.0
290
     0
  0
SCALE
  5
56
102
{ACAD_REACTORS
330
47
102
}
330
47
100
AcDbScale
 70
     0
300
8:1
140
8.0
141
1.0
290
     0
  0
SCALE
  5
57
102
{ACAD_REACTORS
330
47
102
}
330
47
100
AcDbScale
 70
     0
300
10:1
140
10.0
141
1.0
290
     0
  0
SCALE
  5
58
102
{ACAD_REACTORS
330
47
102
}
330
47
100
AcDbScale
 70
     0
300
100:1
140
100.0
141
1.0
290
     0
  0
SCALE
  5
59
102
{ACAD_REACTORS
330
47
102
}
330
47
100
AcDbScale
 70
     0
300
1/128" = 1'-0"
140
0.0078125
141
12.0
290
     0
  0
SCALE
  5
5A
102
{ACAD_REACTORS
330
47
102
}
330
47
100
AcDbScale
 70
     0
300
1/64" = 1'-0"
140
0.015625
141
12.0
290
     0
  0
SCALE
  5
5B
102
{ACAD_REACTORS
330
47
102
}
330
47
100
AcDbScale
 70
     0
300
1/32" = 1'-0"
140
0.03125
141
12.0
290
     0
  0
SCALE
  5
5C
102
{ACAD_REACTORS
330
47
102
}
330
47
100
AcDbScale
 70
     0
300
1/16" = 1'-0"
140
0.0625
141
12.0
290
     0
  0
SCALE
  5
5D
102
{ACAD_REACTORS
330
47
102
}
330
47
100
AcDbScale
 70
     0
300
3/32" = 1'-0"
140
0.09375
141
12.0
290
     0
  0
SCALE
  5
5E
102
{ACAD_REACTORS
330
47
102
}
330
47
100
AcDbScale
 70
     0
300
1/8" = 1'-0"
140
0.125
141
12.0
290
     0
  0
SCALE
  5
5F
102
{ACAD_REACTORS
330
47
102
}
330
47
100
AcDbScale
 70
     0
300
3/16" = 1'-0"
140
0.1875
141
12.0
290
     0
  0
SCALE
  5
60
102
{ACAD_REACTORS
330
47
102
}
330
47
100
AcDbScale
 70
     0
300
1/4" = 1'-0"
140
0.25
141
12.0
290
     0
  0
SCALE
  5
61
102
{ACAD_REACTORS
330
47
102
}
330
47
100
AcDbScale
 70
     0
300
3/8" = 1'-0"
140
0.375
141
12.0
290
     0
  0
SCALE
  5
62
102
{ACAD_REACTORS
330
47
102
}
330
47
100
AcDbScale
 70
     0
300
1/2" = 1'-0"
140
0.5
141
12.0
290
     0
  0
SCALE
  5
63
102
{ACAD_REACTORS
330
47
102
}
330
47
100
AcDbScale
 70
     0
300
3/4" = 1'-0"
140
0.75
141
12.0
290
     0
  0
SCALE
  5
64
102
{ACAD_REACTORS
330
47
102
}
330
47
100
AcDbScale
 70
     0
300
1" = 1'-0"
140
1.0
141
12.0
290
     0
  0
SCALE
  5
65
102
{ACAD_REACTORS
330
47
102
}
330
47
100
AcDbScale
 70
     0
300
1-1/2" = 1'-0"
140
1.5
141
12.0
290
     0
  0
SCALE
  5
66
102
{ACAD_REACTORS
330
47
102
}
330
47
100
AcDbScale
 70
     0
300
3" = 1'-0"
140
3.0
141
12.0
290
     0
  0
SCALE
  5
67
102
{ACAD_REACTORS
330
47
102
}
330
47
100
AcDbScale
 70
     0
300
6" = 1'-0"
140
6.0
141
12.0
290
     0
  0
SCALE
  5
68
102
{ACAD_REACTORS
330
47
102
}
330
47
100
AcDbScale
 70
     0
300
1'-0" = 1'-0"
140
12.0
141
12.0
290
     0
  0
ENDSEC
  0
EOF
