  0
SECTION
  2
HEADER
  9
$ACADVER
  1
AC1015
  9
$ACADMAINTVER
 70
     6
  9
$DWGCODEPAGE
  3
ANSI_1251
  9
$INSBASE
 10
0.0
 20
0.0
 30
0.0
  9
$EXTMIN
 10
1093.5821411242
 20
2712.5255419542
 30
0.0
  9
$EXTMAX
 10
1189.7217761242
 20
2789.0276831398
 30
0.0
  9
$LIMMIN
 10
0.0
 20
0.0
  9
$LIMMAX
 10
420.0
 20
297.0
  9
$ORTHOMODE
 70
     0
  9
$REGENMODE
 70
     1
  9
$FILLMODE
 70
     1
  9
$QTEXTMODE
 70
     0
  9
$MIRRTEXT
 70
     1
  9
$LTSCALE
 40
1.0
  9
$ATTMODE
 70
     1
  9
$TEXTSIZE
 40
4.0
  9
$TRACEWID
 40
1.0
  9
$TEXTSTYLE
  7
Standard
  9
$CLAYER
  8
0
  9
$CELTYPE
  6
ByLayer
  9
$CECOLOR
 62
   256
  9
$CELTSCALE
 40
1.0
  9
$DISPSILH
 70
     0
  9
$DIMSCALE
 40
1.0
  9
$DIMASZ
 40
6.0
  9
$DIMEXO
 40
1.0
  9
$DIMDLI
 40
3.75
  9
$DIMRND
 40
0.0
  9
$DIMDLE
 40
0.0
  9
$DIMEXE
 40
1.0
  9
$DIMTP
 40
0.0
  9
$DIMTM
 40
0.0
  9
$DIMTXT
 40
4.0
  9
$DIMCEN
 40
2.5
  9
$DIMTSZ
 40
0.0
  9
$DIMTOL
 70
     0
  9
$DIMLIM
 70
     0
  9
$DIMTIH
 70
     1
  9
$DIMTOH
 70
     1
  9
$DIMSE1
 70
     0
  9
$DIMSE2
 70
     0
  9
$DIMTAD
 70
     1
  9
$DIMZIN
 70
     0
  9
$DIMBLK
  1

  9
$DIMASO
 70
     1
  9
$DIMSHO
 70
     1
  9
$DIMPOST
  1

  9
$DIMAPOST
  1

  9
$DIMALT
 70
     0
  9
$DIMALTD
 70
     3
  9
$DIMALTF
 40
0.0393700787
  9
$DIMLFAC
 40
1.0
  9
$DIMTOFL
 70
     1
  9
$DIMTVP
 40
0.0
  9
$DIMTIX
 70
     0
  9
$DIMSOXD
 70
     0
  9
$DIMSAH
 70
     0
  9
$DIMBLK1
  1

  9
$DIMBLK2
  1

  9
$DIMSTYLE
  2
ISO-25
  9
$DIMCLRD
 70
     0
  9
$DIMCLRE
 70
     0
  9
$DIMCLRT
 70
     0
  9
$DIMTFAC
 40
1.0
  9
$DIMGAP
 40
3.0
  9
$DIMJUST
 70
     0
  9
$DIMSD1
 70
     0
  9
$DIMSD2
 70
     0
  9
$DIMTOLJ
 70
     0
  9
$DIMTZIN
 70
     0
  9
$DIMALTZ
 70
     0
  9
$DIMALTTZ
 70
     0
  9
$DIMUPT
 70
     0
  9
$DIMDEC
 70
     2
  9
$DIMTDEC
 70
     4
  9
$DIMALTU
 70
     2
  9
$DIMALTTD
 70
     3
  9
$DIMTXSTY
  7
Standard
  9
$DIMAUNIT
 70
     0
  9
$DIMADEC
 70
     2
  9
$DIMALTRND
 40
0.0
  9
$DIMAZIN
 70
     0
  9
$DIMDSEP
 70
    44
  9
$DIMATFIT
 70
     3
  9
$DIMFRAC
 70
     0
  9
$DIMLDRBLK
  1

  9
$DIMLUNIT
 70
     2
  9
$DIMLWD
 70
    -2
  9
$DIMLWE
 70
    -2
  9
$DIMTMOVE
 70
     0
  9
$LUNITS
 70
     2
  9
$LUPREC
 70
     2
  9
$SKETCHINC
 40
1.0
  9
$FILLETRAD
 40
10.0
  9
$AUNITS
 70
     1
  9
$AUPREC
 70
     2
  9
$MENU
  1
.
  9
$ELEVATION
 40
0.0
  9
$PELEVATION
 40
0.0
  9
$THICKNESS
 40
0.0
  9
$LIMCHECK
 70
     0
  9
$CHAMFERA
 40
0.0
  9
$CHAMFERB
 40
0.0
  9
$CHAMFERC
 40
0.0
  9
$CHAMFERD
 40
0.0
  9
$SKPOLY
 70
     0
  9
$TDCREATE
 40
2460368.659444097
  9
$TDUCREATE
 40
2460368.576110764
  9
$TDUPDATE
 40
2460368.659472222
  9
$TDUUPDATE
 40
2460368.576138889
  9
$TDINDWG
 40
0.0000000116
  9
$TDUSRTIMER
 40
0.0000000116
  9
$USRTIMER
 70
     1
  9
$ANGBASE
 50
0.0
  9
$ANGDIR
 70
     0
  9
$PDMODE
 70
     0
  9
$PDSIZE
 40
-1.0
  9
$PLINEWID
 40
0.0
  9
$SPLFRAME
 70
     0
  9
$SPLINETYPE
 70
     6
  9
$SPLINESEGS
 70
     8
  9
$HANDSEED
  5
347
  9
$SURFTAB1
 70
     6
  9
$SURFTAB2
 70
     6
  9
$SURFTYPE
 70
     6
  9
$SURFU
 70
     6
  9
$SURFV
 70
     6
  9
$UCSBASE
  2

  9
$UCSNAME
  2

  9
$UCSORG
 10
0.0
 20
0.0
 30
0.0
  9
$UCSXDIR
 10
1.0
 20
0.0
 30
0.0
  9
$UCSYDIR
 10
0.0
 20
1.0
 30
0.0
  9
$UCSORTHOREF
  2

  9
$UCSORTHOVIEW
 70
     0
  9
$UCSORGTOP
 10
0.0
 20
0.0
 30
0.0
  9
$UCSORGBOTTOM
 10
0.0
 20
0.0
 30
0.0
  9
$UCSORGLEFT
 10
0.0
 20
0.0
 30
0.0
  9
$UCSORGRIGHT
 10
0.0
 20
0.0
 30
0.0
  9
$UCSORGFRONT
 10
0.0
 20
0.0
 30
0.0
  9
$UCSORGBACK
 10
0.0
 20
0.0
 30
0.0
  9
$PUCSBASE
  2

  9
$PUCSNAME
  2

  9
$PUCSORG
 10
0.0
 20
0.0
 30
0.0
  9
$PUCSXDIR
 10
1.0
 20
0.0
 30
0.0
  9
$PUCSYDIR
 10
0.0
 20
1.0
 30
0.0
  9
$PUCSORTHOREF
  2

  9
$PUCSORTHOVIEW
 70
     0
  9
$PUCSORGTOP
 10
0.0
 20
0.0
 30
0.0
  9
$PUCSORGBOTTOM
 10
0.0
 20
0.0
 30
0.0
  9
$PUCSORGLEFT
 10
0.0
 20
0.0
 30
0.0
  9
$PUCSORGRIGHT
 10
0.0
 20
0.0
 30
0.0
  9
$PUCSORGFRONT
 10
0.0
 20
0.0
 30
0.0
  9
$PUCSORGBACK
 10
0.0
 20
0.0
 30
0.0
  9
$USERI1
 70
     0
  9
$USERI2
 70
     0
  9
$USERI3
 70
     0
  9
$USERI4
 70
     0
  9
$USERI5
 70
     0
  9
$USERR1
 40
0.0
  9
$USERR2
 40
0.0
  9
$USERR3
 40
0.0
  9
$USERR4
 40
0.0
  9
$USERR5
 40
0.0
  9
$WORLDVIEW
 70
     1
  9
$SHADEDGE
 70
     3
  9
$SHADEDIF
 70
    70
  9
$TILEMODE
 70
     1
  9
$MAXACTVP
 70
    64
  9
$PINSBASE
 10
0.0
 20
0.0
 30
0.0
  9
$PLIMCHECK
 70
     0
  9
$PEXTMIN
 10
1.0000000000E+20
 20
1.0000000000E+20
 30
1.0000000000E+20
  9
$PEXTMAX
 10
-1.0000000000E+20
 20
-1.0000000000E+20
 30
-1.0000000000E+20
  9
$PLIMMIN
 10
0.0
 20
0.0
  9
$PLIMMAX
 10
420.0
 20
297.0
  9
$UNITMODE
 70
     0
  9
$VISRETAIN
 70
     1
  9
$PLINEGEN
 70
     0
  9
$PSLTSCALE
 70
     1
  9
$TREEDEPTH
 70
  3020
  9
$CMLSTYLE
  2
Standard
  9
$CMLJUST
 70
     0
  9
$CMLSCALE
 40
20.0
  9
$PROXYGRAPHICS
 70
     1
  9
$MEASUREMENT
 70
     1
  9
$CELWEIGHT
370
    -1
  9
$ENDCAPS
280
     0
  9
$JOINSTYLE
280
     0
  9
$LWDISPLAY
290
     1
  9
$INSUNITS
 70
     4
  9
$HYPERLINKBASE
  1

  9
$STYLESHEET
  1

  9
$XEDIT
290
     1
  9
$CEPSNTYPE
380
     0
  9
$PSTYLEMODE
290
     1
  9
$FINGERPRINTGUID
  2
{eba814be-8c4b-46fb-93ab-262928a7b0b1}
  9
$VERSIONGUID
  2
{FAEB1C32-E019-11D5-929B-00C0DF256EC4}
  9
$EXTNAMES
290
     1
  9
$PSVPSCALE
 40
0.0
  9
$OLESTARTUP
290
     0
  0
ENDSEC
  0
SECTION
  2
CLASSES
  0
CLASS
  1
ACDBDICTIONARYWDFLT
  2
AcDbDictionaryWithDefault
  3
ObjectDBX Classes
 90
        0
280
     0
281
     0
  0
CLASS
  1
VISUALSTYLE
  2
AcDbVisualStyle
  3
ObjectDBX Classes
 90
     4095
280
     0
281
     0
  0
CLASS
  1
MATERIAL
  2
AcDbMaterial
  3
ObjectDBX Classes
 90
     1153
280
     0
281
     0
  0
CLASS
  1
SCALE
  2
AcDbScale
  3
ObjectDBX Classes
 90
     1153
280
     0
281
     0
  0
CLASS
  1
TABLESTYLE
  2
AcDbTableStyle
  3
ObjectDBX Classes
 90
     4095
280
     0
281
     0
  0
CLASS
  1
MLEADERSTYLE
  2
AcDbMLeaderStyle
  3
ACDB_MLEADERSTYLE_CLASS
 90
     4095
280
     0
281
     0
  0
CLASS
  1
SUN
  2
AcDbSun
  3
SCENEOE
 90
     1153
280
     0
281
     0
  0
CLASS
  1
ACDBPLACEHOLDER
  2
AcDbPlaceHolder
  3
ObjectDBX Classes
 90
        0
280
     0
281
     0
  0
CLASS
  1
LAYOUT
  2
AcDbLayout
  3
ObjectDBX Classes
 90
        0
280
     0
281
     0
  0
ENDSEC
  0
SECTION
  2
TABLES
  0
TABLE
  2
VPORT
  5
8
330
0
100
AcDbSymbolTable
 70
     1
  0
VPORT
  5
29
330
8
100
AcDbSymbolTableRecord
100
AcDbViewportTableRecord
  2
*Active
 70
     0
 10
0.0
 20
0.0
 11
1.0
 21
1.0
 12
1141.6519586242
 22
2750.776612547
 13
0.0
 23
0.0
 14
10.0
 24
10.0
 15
10.0
 25
10.0
 16
0.0
 26
0.0
 36
1.0
 17
0.0
 27
0.0
 37
0.0
 40
78.0321840093
 41
1.2566920809
 42
50.0
 43
0.0
 44
0.0
 50
0.0
 51
0.0
 71
     0
 72
   100
 73
     1
 74
     3
 75
     0
 76
     0
 77
     0
 78
     0
281
     0
 65
     1
110
0.0
120
0.0
130
0.0
111
1.0
121
0.0
131
0.0
112
0.0
122
1.0
132
0.0
 79
     0
146
0.0
  0
ENDTAB
  0
TABLE
  2
LTYPE
  5
5
330
0
100
AcDbSymbolTable
 70
     6
  0
LTYPE
  5
14
330
5
100
AcDbSymbolTableRecord
100
AcDbLinetypeTableRecord
  2
ByBlock
 70
     0
  3

 72
    65
 73
     0
 40
0.0
  0
LTYPE
  5
15
330
5
100
AcDbSymbolTableRecord
100
AcDbLinetypeTableRecord
  2
ByLayer
 70
     0
  3

 72
    65
 73
     0
 40
0.0
  0
LTYPE
  5
16
330
5
100
AcDbSymbolTableRecord
100
AcDbLinetypeTableRecord
  2
Continuous
 70
     0
  3
Solid line
 72
    65
 73
     0
 40
0.0
  0
LTYPE
  5
6E
330
5
100
AcDbSymbolTableRecord
100
AcDbLinetypeTableRecord
  2
HIDDEN
 70
     0
  3
Hidden __ __ __ __ __ __ __ __ __ __ __ __ __ __
 72
    65
 73
     2
 40
1.905
 49
1.27
 74
     0
 49
-0.635
 74
     0
  0
LTYPE
  5
6F
330
5
100
AcDbSymbolTableRecord
100
AcDbLinetypeTableRecord
  2
PHANTOM
 70
     0
  3
Phantom ______  __  __  ______  __  __  ______
 72
    65
 73
     6
 40
12.7
 49
6.35
 74
     0
 49
-1.27
 74
     0
 49
1.27
 74
     0
 49
-1.27
 74
     0
 49
1.27
 74
     0
 49
-1.27
 74
     0
  0
LTYPE
  5
70
330
5
100
AcDbSymbolTableRecord
100
AcDbLinetypeTableRecord
  2
CENTER
 70
     0
  3
Center ____ _ ____ _ ____ _ ____ _ ____ _ ____
 72
    65
 73
     4
 40
10.16
 49
6.35
 74
     0
 49
-1.27
 74
     0
 49
1.27
 74
     0
 49
-1.27
 74
     0
  0
LTYPE
  5
71
330
5
100
AcDbSymbolTableRecord
100
AcDbLinetypeTableRecord
  2
CENTERX2
 70
     0
  3
Center (2x) ________  __  ________  __  _____
 72
    65
 73
     4
 40
20.32
 49
12.7
 74
     0
 49
-2.54
 74
     0
 49
2.54
 74
     0
 49
-2.54
 74
     0
  0
LTYPE
  5
72
330
5
100
AcDbSymbolTableRecord
100
AcDbLinetypeTableRecord
  2
DOT2
 70
     0
  3
Dot (.5x) ........................................
 72
    65
 73
     2
 40
0.635
 49
0.0
 74
     0
 49
-0.635
 74
     0
  0
ENDTAB
  0
TABLE
  2
LAYER
  5
2
330
0
100
AcDbSymbolTable
 70
     1
  0
LAYER
  5
10
330
2
100
AcDbSymbolTableRecord
100
AcDbLayerTableRecord
  2
0
 70
     0
 62
     7
  6
Continuous
370
    -3
390
F
  0
ENDTAB
  0
TABLE
  2
STYLE
  5
3
330
0
100
AcDbSymbolTable
 70
     1
  0
STYLE
  5
11
330
3
100
AcDbSymbolTableRecord
100
AcDbTextStyleTableRecord
  2
Standard
 70
     0
 40
0.0
 41
1.0
 50
0.0
 71
     0
 42
4.0
  3
txt
  4

  0
ENDTAB
  0
TABLE
  2
VIEW
  5
6
330
0
100
AcDbSymbolTable
 70
     0
  0
ENDTAB
  0
TABLE
  2
UCS
  5
7
330
0
100
AcDbSymbolTable
 70
     0
  0
ENDTAB
  0
TABLE
  2
APPID
  5
9
330
0
100
AcDbSymbolTable
 70
     1
  0
APPID
  5
12
330
9
100
AcDbSymbolTableRecord
100
AcDbRegAppTableRecord
  2
ACAD
 70
     0
  0
ENDTAB
  0
TABLE
  2
DIMSTYLE
  5
A
330
0
100
AcDbSymbolTable
 70
     1
100
AcDbDimStyleTable
  0
DIMSTYLE
105
27
330
A
100
AcDbSymbolTableRecord
100
AcDbDimStyleTableRecord
  2
ISO-25
 70
     0
 41
2.5
 42
0.625
 43
3.75
 44
1.25
 73
     0
 74
     0
 77
     1
 78
     8
140
2.5
141
2.5
143
0.0393700787
147
0.625
171
     3
172
     1
178
     0
271
     2
272
     2
274
     3
278
    44
283
     0
284
     8
340
11
  0
ENDTAB
  0
TABLE
  2
BLOCK_RECORD
  5
1
330
0
100
AcDbSymbolTable
 70
     1
  0
BLOCK_RECORD
  5
1F
330
1
100
AcDbSymbolTableRecord
100
AcDbBlockTableRecord
  2
*Model_Space
340
22
  0
BLOCK_RECORD
  5
1B
330
1
100
AcDbSymbolTableRecord
100
AcDbBlockTableRecord
  2
*Paper_Space
340
1E
  0
BLOCK_RECORD
  5
23
330
1
100
AcDbSymbolTableRecord
100
AcDbBlockTableRecord
  2
*Paper_Space0
340
26
  0
ENDTAB
  0
ENDSEC
  0
SECTION
  2
BLOCKS
  0
BLOCK
  5
20
330
1F
100
AcDbEntity
  8
0
100
AcDbBlockBegin
  2
*Model_Space
 70
     0
 10
0.0
 20
0.0
 30
0.0
  3
*Model_Space
  1

  0
ENDBLK
  5
21
330
1F
100
AcDbEntity
  8
0
100
AcDbBlockEnd
  0
BLOCK
  5
1C
330
1B
100
AcDbEntity
 67
     1
  8
0
100
AcDbBlockBegin
  2
*Paper_Space
 70
     0
 10
0.0
 20
0.0
 30
0.0
  3
*Paper_Space
  1

  0
ENDBLK
  5
1D
330
1B
100
AcDbEntity
 67
     1
  8
0
100
AcDbBlockEnd
  0
BLOCK
  5
24
330
23
100
AcDbEntity
  8
0
100
AcDbBlockBegin
  2
*Paper_Space0
 70
     0
 10
0.0
 20
0.0
 30
0.0
  3
*Paper_Space0
  1

  0
ENDBLK
  5
25
330
23
100
AcDbEntity
  8
0
100
AcDbBlockEnd
  0
ENDSEC
  0
SECTION
  2
ENTITIES
  0
SPLINE
  5
73
330
1F
100
AcDbEntity
  8
0
  6
Continuous
 62
     7
370
    25
100
AcDbSpline
210
0.0
220
0.0
230
1.0
 70
     8
 71
     3
 72
     9
 73
     5
 74
     0
 42
0.000000001
 43
0.00000001
 40
0.0
 40
0.0
 40
0.0
 40
0.0
 40
0.5715244711949214
 40
1.0
 40
1.0
 40
1.0
 40
1.0
 10
1162.133668173356
 20
2733.112007603797
 30
0.0
 10
1162.142231253346
 20
2733.092252537046
 30
0.0
 10
1162.157214128832
 20
2733.057686971183
 30
0.0
 10
1162.161424810229
 20
2733.0203288386
 30
0.0
 10
1162.163228984167
 20
2733.004321792986
 30
0.0
  0
SPLINE
  5
74
330
1F
100
AcDbEntity
  8
0
  6
Continuous
 62
     7
370
    25
100
AcDbSpline
210
0.0
220
0.0
230
1.0
 70
     8
 71
     3
 72
    15
 73
    11
 74
     0
 42
0.000000001
 43
0.00000001
 40
0.0
 40
0.0
 40
0.0
 40
0.0
 40
0.1226177230356462
 40
0.235479112902622
 40
0.3397384650544096
 40
0.4476334423268259
 40
0.5611761921816955
 40
0.6903366021262012
 40
0.8354274431762101
 40
1.0
 40
1.0
 40
1.0
 40
1.0
 10
1162.163228984167
 20
2733.004321792986
 30
0.0
 10
1162.162211026913
 20
2732.985924132817
 30
0.0
 10
1162.160256108283
 20
2732.950592660425
 30
0.0
 10
1162.14559731601
 20
2732.901184162655
 30
0.0
 10
1162.120181739868
 20
2732.859045774544
 30
0.0
 10
1162.084680198202
 20
2732.824597034336
 30
0.0
 10
1162.038144363506
 20
2732.799268807534
 30
0.0
 10
1161.982945838834
 20
2732.780174888228
 30
0.0
 10
1161.917562064637
 20
2732.77051815543
 30
0.0
 10
1161.871164361699
 20
2732.768766326815
 30
0.0
 10
1161.846506011194
 20
2732.7678353065
 30
0.0
  0
SPLINE
  5
75
330
1F
100
AcDbEntity
  8
0
  6
Continuous
 62
     7
370
    25
100
AcDbSpline
210
0.0
220
0.0
230
1.0
 70
     8
 71
     3
 72
    11
 73
     7
 74
     0
 42
0.000000001
 43
0.00000001
 40
0.0
 40
0.0
 40
0.0
 40
0.0
 40
0.2028584217293779
 40
0.4177658904102243
 40
0.6762772160276195
 40
1.0
 40
1.0
 40
1.0
 40
1.0
 10
1161.846506011194
 20
2732.7678353065
 30
0.0
 10
1161.82325954819
 20
2732.770819268748
 30
0.0
 10
1161.775385867458
 20
2732.776964429668
 30
0.0
 10
1161.712798828248
 20
2732.826927830475
 30
0.0
 10
1161.663397305378
 20
2732.90375460223
 30
0.0
 10
1161.641305802291
 20
2732.966350935439
 30
0.0
 10
1161.629022903086
 20
2733.001154563256
 30
0.0
  0
SPLINE
  5
79
330
1F
100
AcDbEntity
  8
0
  6
Continuous
 62
     7
370
    25
100
AcDbSpline
210
0.0
220
0.0
230
1.0
 70
     8
 71
     3
 72
    15
 73
    11
 74
     0
 42
0.000000001
 43
0.00000001
 40
0.0
 40
0.0
 40
0.0
 40
0.0
 40
0.1208158510018598
 40
0.2307257204520297
 40
0.3358108859966531
 40
0.4414612828648345
 40
0.5572426563437394
 40
0.6861667178992573
 40
0.8326774575843855
 40
1.0
 40
1.0
 40
1.0
 40
1.0
 10
1160.062299930113
 20
2733.011711995689
 30
0.0
 10
1160.061412577781
 20
2732.99257730731
 30
0.0
 10
1160.059717973932
 20
2732.956035208527
 30
0.0
 10
1160.043361942456
 20
2732.904940869291
 30
0.0
 10
1160.016662932821
 20
2732.861148135098
 30
0.0
 10
1159.977520684793
 20
2732.826690559551
 30
0.0
 10
1159.929302212169
 20
2732.798813355323
 30
0.0
 10
1159.869897257425
 20
2732.780253777019
 30
0.0
 10
1159.800453156951
 20
2732.770457075285
 30
0.0
 10
1159.750888080478
 20
2732.768747029889
 30
0.0
 10
1159.724462092275
 20
2732.7678353065
 30
0.0
  0
SPLINE
  5
7A
330
1F
100
AcDbEntity
  8
0
  6
Continuous
 62
     7
370
    25
100
AcDbSpline
210
0.0
220
0.0
230
1.0
 70
     8
 71
     3
 72
    15
 73
    11
 74
     0
 42
0.000000001
 43
0.00000001
 40
0.0
 40
0.0
 40
0.0
 40
0.0
 40
0.1528612850162731
 40
0.2874697277135774
 40
0.4083171843914689
 40
0.5197330343307295
 40
0.6278222855466471
 40
0.7415060099346
 40
0.8623534666125094
 40
1.0
 40
1.0
 40
1.0
 40
1.0
 10
1159.724462092275
 20
2732.7678353065
 30
0.0
 10
1159.703313982098
 20
2732.768757013359
 30
0.0
 10
1159.663543012793
 20
2732.770490368012
 30
0.0
 10
1159.607554004443
 20
2732.780275721094
 30
0.0
 10
1159.560101981659
 20
2732.799465273947
 30
0.0
 10
1159.520865444459
 20
2732.82625586614
 30
0.0
 10
1159.489981071204
 20
2732.861290403706
 30
0.0
 10
1159.469271737549
 20
2732.904433644263
 30
0.0
 10
1159.456089278658
 20
2732.954639308017
 30
0.0
 10
1159.454851129284
 20
2732.990503198106
 30
0.0
 10
1159.454191822005
 20
2733.009600509202
 30
0.0
  0
SPLINE
  5
7C
330
1F
100
AcDbEntity
  8
0
  6
Continuous
 62
     7
370
    25
100
AcDbSpline
210
0.0
220
0.0
230
1.0
 70
     8
 71
     3
 72
    15
 73
    11
 74
     0
 42
0.000000001
 43
0.00000001
 40
0.0
 40
0.0
 40
0.0
 40
0.0
 40
0.1376465333875379
 40
0.2584939900654422
 40
0.37217771445339
 40
0.4802669656692627
 40
0.591682815608549
 40
0.7125302722864352
 40
0.8471387149837336
 40
1.0
 40
1.0
 40
1.0
 40
1.0
 10
1159.454191822005
 20
2737.526070103797
 30
0.0
 10
1159.454851129284
 20
2737.545167414893
 30
0.0
 10
1159.456089278658
 20
2737.581031304983
 30
0.0
 10
1159.469271737549
 20
2737.631236968737
 30
0.0
 10
1159.489981071204
 20
2737.674380209294
 30
0.0
 10
1159.520865444459
 20
2737.70941474686
 30
0.0
 10
1159.560101981659
 20
2737.736205339053
 30
0.0
 10
1159.607554004443
 20
2737.755394891905
 30
0.0
 10
1159.663543012793
 20
2737.765180244988
 30
0.0
 10
1159.703313982098
 20
2737.766913599641
 30
0.0
 10
1159.724462092275
 20
2737.7678353065
 30
0.0
  0
SPLINE
  5
7D
330
1F
100
AcDbEntity
  8
0
  6
Continuous
 62
     7
370
    25
100
AcDbSpline
210
0.0
220
0.0
230
1.0
 70
     8
 71
     3
 72
    15
 73
    11
 74
     0
 42
0.000000001
 43
0.00000001
 40
0.0
 40
0.0
 40
0.0
 40
0.0
 40
0.1687372826956148
 40
0.3164867953631086
 40
0.4465009315750991
 40
0.5610794434177675
 40
0.6676231321872647
 40
0.771698477378929
 40
0.8803995195840236
 40
1.0
 40
1.0
 40
1.0
 40
1.0
 10
1159.724462092275
 20
2737.7678353065
 30
0.0
 10
1159.750875167744
 20
2737.766900904753
 30
0.0
 10
1159.800416024853
 20
2737.765148323405
 30
0.0
 10
1159.870018219365
 20
2737.755629278851
 30
0.0
 10
1159.928598358345
 20
2737.736300712369
 30
0.0
 10
1159.978124886689
 20
2737.711437936394
 30
0.0
 10
1160.016227557086
 20
2737.67660621089
 30
0.0
 10
1160.043419744462
 20
2737.63403873561
 30
0.0
 10
1160.059705081876
 20
2737.583857989216
 30
0.0
 10
1160.06140788266
 20
2737.54801462312
 30
0.0
 10
1160.062299930113
 20
2737.529237333527
 30
0.0
  0
SPLINE
  5
80
330
1F
100
AcDbEntity
  8
0
  6
Continuous
 62
     7
370
    25
100
AcDbSpline
210
0.0
220
0.0
230
1.0
 70
     8
 71
     3
 72
    11
 73
     7
 74
     0
 42
0.000000001
 43
0.00000001
 40
0.0
 40
0.0
 40
0.0
 40
0.0
 40
0.2608513162073802
 40
0.507890585994529
 40
0.746795737997947
 40
1.0
 40
1.0
 40
1.0
 40
1.0
 10
1161.657527970654
 20
2737.732995779472
 30
0.0
 10
1161.669898590749
 20
2737.748416068785
 30
0.0
 10
1161.693984808064
 20
2737.778440144908
 30
0.0
 10
1161.740274210543
 20
2737.811886551543
 30
0.0
 10
1161.793205438962
 20
2737.832125771785
 30
0.0
 10
1161.83048952193
 20
2737.834289549179
 30
0.0
 10
1161.849673240924
 20
2737.835402874067
 30
0.0
  0
SPLINE
  5
81
330
1F
100
AcDbEntity
  8
0
  6
Continuous
 62
     7
370
    25
100
AcDbSpline
210
0.0
220
0.0
230
1.0
 70
     8
 71
     3
 72
    15
 73
    11
 74
     0
 42
0.000000001
 43
0.00000001
 40
0.0
 40
0.0
 40
0.0
 40
0.0
 40
0.1540252339659089
 40
0.2977651209541514
 40
0.4351151610673523
 40
0.5718982006583718
 40
0.7010171099184236
 40
0.8114907083374909
 40
0.9104177519505812
 40
1.0
 40
1.0
 40
1.0
 40
1.0
 10
1161.849673240924
 20
2737.835402874067
 30
0.0
 10
1161.872277929178
 20
2737.834432832989
 30
0.0
 10
1161.915977831842
 20
2737.832557527289
 30
0.0
 10
1161.978488987558
 20
2737.816881655016
 30
0.0
 10
1162.03321845383
 20
2737.788390676059
 30
0.0
 10
1162.080314483496
 20
2737.752028792566
 30
0.0
 10
1162.116866804999
 20
2737.710334064427
 30
0.0
 10
1162.145629132481
 20
2737.669862462634
 30
0.0
 10
1162.164215449681
 20
2737.629283667342
 30
0.0
 10
1162.166409373772
 20
2737.601542123981
 30
0.0
 10
1162.16745195714
 20
2737.588358955149
 30
0.0
  0
SPLINE
  5
82
330
1F
100
AcDbEntity
  8
0
  6
Continuous
 62
     7
370
    25
100
AcDbSpline
210
0.0
220
0.0
230
1.0
 70
     8
 71
     3
 72
     9
 73
     5
 74
     0
 42
0.000000001
 43
0.00000001
 40
0.0
 40
0.0
 40
0.0
 40
0.0
 40
0.4684792731679243
 40
1.0
 40
1.0
 40
1.0
 40
1.0
 10
1162.16745195714
 20
2737.588358955149
 30
0.0
 10
1162.165071769886
 20
2737.567742547298
 30
0.0
 10
1162.159991102734
 20
2737.523735460898
 30
0.0
 10
1162.134531539821
 20
2737.487345985716
 30
0.0
 10
1162.120999254437
 20
2737.468004225419
 30
0.0
  0
SPLINE
  5
85
330
1F
100
AcDbEntity
  8
0
  6
Continuous
 62
     7
370
    25
100
AcDbSpline
210
0.0
220
0.0
230
1.0
 70
     8
 71
     3
 72
    15
 73
    11
 74
     0
 42
0.000000001
 43
0.00000001
 40
0.0
 40
0.0
 40
0.0
 40
0.0
 40
0.1276094144621054
 40
0.2499167177708528
 40
0.3720143427043059
 40
0.5005763638076219
 40
0.6284293671556725
 40
0.7514974778096072
 40
0.8734901284089567
 40
1.0
 40
1.0
 40
1.0
 40
1.0
 10
1165.150137767951
 20
2736.619186657851
 30
0.0
 10
1165.147960155279
 20
2736.659911707793
 30
0.0
 10
1165.143695408718
 20
2736.739669701006
 30
0.0
 10
1165.108341487292
 20
2736.854027884216
 30
0.0
 10
1165.051077284465
 20
2736.959011824819
 30
0.0
 10
1164.972065135939
 20
2737.051051305096
 30
0.0
 10
1164.879242324213
 20
2737.129494426648
 30
0.0
 10
1164.774131197229
 20
2737.186634028926
 30
0.0
 10
1164.659500519545
 20
2737.220449816995
 30
0.0
 10
1164.580259099448
 20
2737.224985632638
 30
0.0
 10
1164.539918173356
 20
2737.227294765959
 30
0.0
  0
SPLINE
  5
87
330
1F
100
AcDbEntity
  8
0
  6
Continuous
 62
     7
370
    25
100
AcDbSpline
210
0.0
220
0.0
230
1.0
 70
     8
 71
     3
 72
    15
 73
    11
 74
     0
 42
0.000000001
 43
0.00000001
 40
0.0
 40
0.0
 40
0.0
 40
0.0
 40
0.1097146503990162
 40
0.2209919735938142
 40
0.3382709755251182
 40
0.4647338986157554
 40
0.5948009642718053
 40
0.7238485466785299
 40
0.8575872448702718
 40
1.0
 40
1.0
 40
1.0
 40
1.0
 10
1164.203136078762
 20
2737.227294765959
 30
0.0
 10
1164.170167017729
 20
2737.225230525585
 30
0.0
 10
1164.103759315215
 20
2737.22107264373
 30
0.0
 10
1164.006599899807
 20
2737.187602071266
 30
0.0
 10
1163.915188902502
 20
2737.131958079331
 30
0.0
 10
1163.829456290929
 20
2737.058958645103
 30
0.0
 10
1163.755171017031
 20
2736.96917391447
 30
0.0
 10
1163.701708598413
 20
2736.863191719437
 30
0.0
 10
1163.669162483582
 20
2736.744966259943
 30
0.0
 10
1163.665526419046
 20
2736.661982050556
 30
0.0
 10
1163.663651281464
 20
2736.619186657851
 30
0.0
  0
SPLINE
  5
89
330
1F
100
AcDbEntity
  8
0
  6
Continuous
 62
     7
370
    25
100
AcDbSpline
210
0.0
220
0.0
230
1.0
 70
     8
 71
     3
 72
    15
 73
    11
 74
     0
 42
0.000000001
 43
0.00000001
 40
0.0
 40
0.0
 40
0.0
 40
0.0
 40
0.143503718383092
 40
0.2760390562758077
 40
0.406061846474791
 40
0.5360582087399478
 40
0.6624523876220357
 40
0.7790740198611347
 40
0.8891793093881648
 40
1.0
 40
1.0
 40
1.0
 40
1.0
 10
1163.663651281464
 20
2733.916483955149
 30
0.0
 10
1163.665439748195
 20
2733.873313580721
 30
0.0
 10
1163.668879984269
 20
2733.790272461297
 30
0.0
 10
1163.702200782435
 20
2733.671983398432
 30
0.0
 10
1163.754797613921
 20
2733.565584414189
 30
0.0
 10
1163.829553980905
 20
2733.475775834611
 30
0.0
 10
1163.914843529705
 20
2733.402415972533
 30
0.0
 10
1164.006667209446
 20
2733.348538850876
 30
0.0
 10
1164.103294724067
 20
2733.314261928135
 30
0.0
 10
1164.169783858967
 20
2733.310342105121
 30
0.0
 10
1164.203136078762
 20
2733.30837584704
 30
0.0
  0
SPLINE
  5
8B
330
1F
100
AcDbEntity
  8
0
  6
Continuous
 62
     7
370
    25
100
AcDbSpline
210
0.0
220
0.0
230
1.0
 70
     8
 71
     3
 72
    15
 73
    11
 74
     0
 42
0.000000001
 43
0.00000001
 40
0.0
 40
0.0
 40
0.0
 40
0.0
 40
0.1274982018433534
 40
0.2493845348782787
 40
0.3723453906958267
 40
0.4993842070424835
 40
0.6271257854821314
 40
0.7506154651217192
 40
0.8725017981566476
 40
1.0
 40
1.0
 40
1.0
 40
1.0
 10
1164.539918173356
 20
2733.30837584704
 30
0.0
 10
1164.580608856265
 20
2733.310662232032
 30
0.0
 10
1164.66019921036
 20
2733.315134366146
 30
0.0
 10
1164.775253078868
 20
2733.348967684085
 30
0.0
 10
1164.879845942483
 20
2733.406337910086
 30
0.0
 10
1164.973601460761
 20
2733.48311601633
 30
0.0
 10
1165.05097289928
 20
2733.576528395023
 30
0.0
 10
1165.109734191443
 20
2733.680866762874
 30
0.0
 10
1165.143317325033
 20
2733.796234070098
 30
0.0
 10
1165.147830434335
 20
2733.875803810844
 30
0.0
 10
1165.150137767951
 20
2733.916483955149
 30
0.0
  0
SPLINE
  5
8D
330
1F
100
AcDbEntity
  8
0
  6
Continuous
 62
     7
370
    25
100
AcDbSpline
210
0.0
220
0.0
230
1.0
 70
     8
 71
     3
 72
    23
 73
    19
 74
     0
 42
0.000000001
 43
0.00000001
 40
0.0
 40
0.0
 40
0.0
 40
0.0
 40
0.0596984677698955
 40
0.1182376316334125
 40
0.1758156760585385
 40
0.2340880145940157
 40
0.2926014098287254
 40
0.3524988403494428
 40
0.4143425792735433
 40
0.47904135694643
 40
0.5438488242948523
 40
0.6077816006315245
 40
0.6708302096469052
 40
0.7340778404193519
 40
0.7981519974079117
 40
0.8633307390899901
 40
0.9304699138440421
 40
1.0
 40
1.0
 40
1.0
 40
1.0
 10
1165.758245876059
 20
2733.877421455148
 30
0.0
 10
1165.757220033843
 20
2733.84112414425
 30
0.0
 10
1165.755188270573
 20
2733.769234391706
 30
0.0
 10
1165.739327711785
 20
2733.663213716931
 30
0.0
 10
1165.711127547533
 20
2733.560838807202
 30
0.0
 10
1165.673437651715
 20
2733.46157332429
 30
0.0
 10
1165.624218438348
 20
2733.365871791738
 30
0.0
 10
1165.564695384642
 20
2733.273696810633
 30
0.0
 10
1165.494595632099
 20
2733.184405259506
 30
0.0
 10
1165.414045671501
 20
2733.100313485718
 30
0.0
 10
1165.326191202279
 20
2733.02182051638
 30
0.0
 10
1165.230511751739
 20
2732.954929240366
 30
0.0
 10
1165.131165458764
 20
2732.895299852247
 30
0.0
 10
1165.024543221812
 20
2732.849715764838
 30
0.0
 10
1164.913653313325
 20
2732.811741984445
 30
0.0
 10
1164.796574908168
 20
2732.787395323683
 30
0.0
 10
1164.674835167495
 20
2732.770619430792
 30
0.0
 10
1164.591709700426
 20
2732.768774108706
 30
0.0
 10
1164.549419862545
 20
2732.7678353065
 30
0.0
  0
SPLINE
  5
8F
330
1F
100
AcDbEntity
  8
0
  6
Continuous
 62
     7
370
    25
100
AcDbSpline
210
0.0
220
0.0
230
1.0
 70
     8
 71
     3
 72
    23
 73
    19
 74
     0
 42
0.000000001
 43
0.00000001
 40
0.0
 40
0.0
 40
0.0
 40
0.0
 40
0.0651968273752586
 40
0.1284903554511315
 40
0.1911004981255766
 40
0.2525160380295048
 40
0.3137365289174452
 40
0.3756297926528566
 40
0.4384931710491589
 40
0.5032476829196605
 40
0.5679249615742236
 40
0.6305493581231076
 40
0.6920491304039873
 40
0.7524447192727121
 40
0.8129377656964516
 40
0.8738044202088573
 40
0.9359969093510049
 40
1.0
 40
1.0
 40
1.0
 40
1.0
 10
1164.192578646329
 20
2732.7678353065
 30
0.0
 10
1164.15417216987
 20
2732.768903026352
 30
0.0
 10
1164.078480422118
 20
2732.771007295977
 30
0.0
 10
1163.966734444884
 20
2732.786126781052
 30
0.0
 10
1163.859052582807
 20
2732.811035125234
 30
0.0
 10
1163.756066858769
 20
2732.847614229955
 30
0.0
 10
1163.657069056374
 20
2732.892900030151
 30
0.0
 10
1163.563052722593
 20
2732.949473705992
 30
0.0
 10
1163.472608669121
 20
2733.015147531699
 30
0.0
 10
1163.388052033721
 20
2733.090745759899
 30
0.0
 10
1163.310358527785
 20
2733.173200116355
 30
0.0
 10
1163.242628667203
 20
2733.261558251644
 30
0.0
 10
1163.183677830393
 20
2733.353135382313
 30
0.0
 10
1163.137602224574
 20
2733.450386103731
 30
0.0
 10
1163.099638091119
 20
2733.550714948761
 30
0.0
 10
1163.075176087933
 20
2733.656224190485
 30
0.0
 10
1163.058356601417
 20
2733.765324957349
 30
0.0
 10
1163.056489910212
 20
2733.839700253978
 30
0.0
 10
1163.055543173356
 20
2733.877421455148
 30
0.0
  0
SPLINE
  5
91
330
1F
100
AcDbEntity
  8
0
  6
Continuous
 62
     7
370
    25
100
AcDbSpline
210
0.0
220
0.0
230
1.0
 70
     8
 71
     3
 72
    23
 73
    19
 74
     0
 42
0.000000001
 43
0.00000001
 40
0.0
 40
0.0
 40
0.0
 40
0.0
 40
0.0640219079057573
 40
0.1262326819779762
 40
0.1865365373546069
 40
0.2470473690630154
 40
0.3074607145633579
 40
0.3689785681117842
 40
0.4316213765738664
 40
0.4963176707001322
 40
0.5610912207493306
 40
0.6243271406750792
 40
0.6867528751010472
 40
0.7479913651462857
 40
0.8094249615529835
 40
0.8714718676855104
 40
0.9347840044028883
 40
1.0
 40
1.0
 40
1.0
 40
1.0
 10
1163.055543173356
 20
2736.658249157851
 30
0.0
 10
1163.056498742753
 20
2736.695968217078
 30
0.0
 10
1163.058382849173
 20
2736.770339290413
 30
0.0
 10
1163.075023648587
 20
2736.879132151656
 30
0.0
 10
1163.099835034786
 20
2736.98420239526
 30
0.0
 10
1163.137581705997
 20
2737.08423393974
 30
0.0
 10
1163.183684402407
 20
2737.181476716736
 30
0.0
 10
1163.242623133144
 20
2737.273062598392
 30
0.0
 10
1163.310374438849
 20
2737.361392964112
 30
0.0
 10
1163.387992021738
 20
2737.443953027012
 30
0.0
 10
1163.472985679433
 20
2737.519296480751
 30
0.0
 10
1163.56284265611
 20
2737.586676739711
 30
0.0
 10
1163.65800017053
 20
2737.642400568467
 30
0.0
 10
1163.75707811624
 20
2737.688139494522
 30
0.0
 10
1163.859812853023
 20
2737.72442995577
 30
0.0
 10
1163.967048598493
 20
2737.749692527302
 30
0.0
 10
1164.07848717116
 20
2737.764636519385
 30
0.0
 10
1164.154174441657
 20
2737.766758566323
 30
0.0
 10
1164.192578646329
 20
2737.7678353065
 30
0.0
  0
SPLINE
  5
93
330
1F
100
AcDbEntity
  8
0
  6
Continuous
 62
     7
370
    25
100
AcDbSpline
210
0.0
220
0.0
230
1.0
 70
     8
 71
     3
 72
    23
 73
    19
 74
     0
 42
0.000000001
 43
0.00000001
 40
0.0
 40
0.0
 40
0.0
 40
0.0
 40
0.0695660886455611
 40
0.1367400278817897
 40
0.2020784391817745
 40
0.265454177085726
 40
0.3289700421547185
 40
0.3917607770916625
 40
0.4560640589846521
 40
0.5209050834634964
 40
0.5856373619875906
 40
0.6478726413769057
 40
0.707801086624323
 40
0.7663447799360238
 40
0.8241067595132542
 40
0.8822738882014415
 40
0.9402706205257761
 40
1.0
 40
1.0
 40
1.0
 40
1.0
 10
1164.549419862545
 20
2737.7678353065
 30
0.0
 10
1164.591699036963
 20
2737.76685467429
 30
0.0
 10
1164.674803543789
 20
2737.764927130592
 30
0.0
 10
1164.796770873775
 20
2737.748735790348
 30
0.0
 10
1164.91293555487
 20
2737.722293020604
 30
0.0
 10
1165.024333460073
 20
2737.6864841871
 30
0.0
 10
1165.129438880301
 20
2737.638693165952
 30
0.0
 10
1165.230177991636
 20
2737.58119577934
 30
0.0
 10
1165.324713702491
 20
2737.512539083594
 30
0.0
 10
1165.413125970082
 20
2737.434457740369
 30
0.0
 10
1165.493421989953
 20
2737.34982457751
 30
0.0
 10
1165.564792323206
 20
2737.26128080236
 30
0.0
 10
1165.624200591794
 20
2737.168710538425
 30
0.0
 10
1165.673155792617
 20
2737.073293932178
 30
0.0
 10
1165.711568420836
 20
2736.974270935021
 30
0.0
 10
1165.738997628508
 20
2736.87202612151
 30
0.0
 10
1165.755302324567
 20
2736.766108543069
 30
0.0
 10
1165.757255112106
 20
2736.694553326876
 30
0.0
 10
1165.758245876059
 20
2736.658249157851
 30
0.0
  0
SPLINE
  5
95
330
1F
100
AcDbEntity
  8
0
  6
Continuous
 62
     7
370
    25
100
AcDbSpline
210
0.0
220
0.0
230
1.0
 70
     8
 71
     3
 72
    15
 73
    11
 74
     0
 42
0.000000001
 43
0.00000001
 40
0.0
 40
0.0
 40
0.0
 40
0.0
 40
0.1212059526124605
 40
0.2293436564902885
 40
0.3347681309251722
 40
0.4407596617558749
 40
0.5558130396878616
 40
0.6851533834087324
 40
0.832137190783691
 40
1.0
 40
1.0
 40
1.0
 40
1.0
 10
1169.697435065248
 20
2733.009600509202
 30
0.0
 10
1169.69659683155
 20
2732.990452577133
 30
0.0
 10
1169.695010741286
 20
2732.954221215055
 30
0.0
 10
1169.678250365312
 20
2732.903601438238
 30
0.0
 10
1169.651780058797
 20
2732.860155313377
 30
0.0
 10
1169.612935175391
 20
2732.825481794985
 30
0.0
 10
1169.564089924518
 20
2732.799081370225
 30
0.0
 10
1169.505090402723
 20
2732.780150980819
 30
0.0
 10
1169.435570484509
 20
2732.770488630984
 30
0.0
 10
1169.386017023006
 20
2732.768758003422
 30
0.0
 10
1169.35959722741
 20
2732.7678353065
 30
0.0
  0
SPLINE
  5
96
330
1F
100
AcDbEntity
  8
0
  6
Continuous
 62
     7
370
    25
100
AcDbSpline
210
0.0
220
0.0
230
1.0
 70
     8
 71
     3
 72
    15
 73
    11
 74
     0
 42
0.000000001
 43
0.00000001
 40
0.0
 40
0.0
 40
0.0
 40
0.0
 40
0.1538927873091533
 40
0.2894095627950281
 40
0.4110724936372164
 40
0.5232401736076057
 40
0.6301460973349123
 40
0.7423137773053335
 40
0.8639767081475332
 40
1.0
 40
1.0
 40
1.0
 40
1.0
 10
1169.35959722741
 20
2732.7678353065
 30
0.0
 10
1169.338447672001
 20
2732.76875561708
 30
0.0
 10
1169.298673984803
 20
2732.770486345903
 30
0.0
 10
1169.242702895794
 20
2732.780289011353
 30
0.0
 10
1169.195192698265
 20
2732.799422359988
 30
0.0
 10
1169.156368659553
 20
2732.826250325696
 30
0.0
 10
1169.125117426044
 20
2732.860105822288
 30
0.0
 10
1169.104203441424
 20
2732.902591052028
 30
0.0
 10
1169.091349663124
 20
2732.952195789257
 30
0.0
 10
1169.09002578487
 20
2732.987694687469
 30
0.0
 10
1169.08932695714
 20
2733.006433279473
 30
0.0
  0
SPLINE
  5
9A
330
1F
100
AcDbEntity
  8
0
  6
Continuous
 62
     7
370
    25
100
AcDbSpline
210
0.0
220
0.0
230
1.0
 70
     8
 71
     3
 72
    11
 73
     7
 74
     0
 42
0.000000001
 43
0.00000001
 40
0.0
 40
0.0
 40
0.0
 40
0.0
 40
0.2301959670043078
 40
0.4560600787794269
 40
0.7031878330326239
 40
1.0
 40
1.0
 40
1.0
 40
1.0
 10
1167.180543173356
 20
2732.937809968662
 30
0.0
 10
1167.169742363731
 20
2732.911935819047
 30
0.0
 10
1167.148343995406
 20
2732.860674422659
 30
0.0
 10
1167.081433057589
 20
2732.804151679097
 30
0.0
 10
1166.992816085944
 20
2732.772281077949
 30
0.0
 10
1166.927118683232
 20
2732.7694048049
 30
0.0
 10
1166.891269524708
 20
2732.7678353065
 30
0.0
  0
SPLINE
  5
9B
330
1F
100
AcDbEntity
  8
0
  6
Continuous
 62
     7
370
    25
100
AcDbSpline
210
0.0
220
0.0
230
1.0
 70
     8
 71
     3
 72
    15
 73
    11
 74
     0
 42
0.000000001
 43
0.00000001
 40
0.0
 40
0.0
 40
0.0
 40
0.0
 40
0.1490635051903186
 40
0.2818442409441432
 40
0.400731527071437
 40
0.5112289549475403
 40
0.6207008624670751
 40
0.735883769299154
 40
0.8588803628870492
 40
1.0
 40
1.0
 40
1.0
 40
1.0
 10
1166.891269524708
 20
2732.7678353065
 30
0.0
 10
1166.871538966315
 20
2732.768785488602
 30
0.0
 10
1166.834233092914
 20
2732.770582060828
 30
0.0
 10
1166.781546971437
 20
2732.780112504816
 30
0.0
 10
1166.737530213401
 20
2732.799958379553
 30
0.0
 10
1166.699758590483
 20
2732.825131481059
 30
0.0
 10
1166.672009291435
 20
2732.860591605347
 30
0.0
 10
1166.651725211125
 20
2732.902283820666
 30
0.0
 10
1166.640123243885
 20
2732.951638721583
 30
0.0
 10
1166.638668453626
 20
2732.986663491832
 30
0.0
 10
1166.637891146329
 20
2733.00537753623
 30
0.0
  0
SPLINE
  5
9C
330
1F
100
AcDbEntity
  8
0
  6
Continuous
 62
     7
370
    25
100
AcDbSpline
210
0.0
220
0.0
230
1.0
 70
     8
 71
     3
 72
     9
 73
     5
 74
     0
 42
0.000000001
 43
0.00000001
 40
0.0
 40
0.0
 40
0.0
 40
0.0
 40
0.4957413518337537
 40
1.0
 40
1.0
 40
1.0
 40
1.0
 10
1166.637891146329
 20
2733.00537753623
 30
0.0
 10
1166.638961673859
 20
2733.0184528841
 30
0.0
 10
1166.641121121574
 20
2733.044828226449
 30
0.0
 10
1166.647395935873
 20
2733.070538106746
 30
0.0
 10
1166.650560065248
 20
2733.08350253623
 30
0.0
  0
SPLINE
  5
9E
330
1F
100
AcDbEntity
  8
0
  6
Continuous
 62
     7
370
    25
100
AcDbSpline
210
0.0
220
0.0
230
1.0
 70
     8
 71
     3
 72
    11
 73
     7
 74
     0
 42
0.000000001
 43
0.00000001
 40
0.0
 40
0.0
 40
0.0
 40
0.0
 40
0.2624685167006562
 40
0.4999991169493485
 40
0.7366564399761042
 40
1.0
 40
1.0
 40
1.0
 40
1.0
 10
1168.052587092275
 20
2737.597860644338
 30
0.0
 10
1168.062623432088
 20
2737.623379062229
 30
0.0
 10
1168.08174252914
 20
2737.671991317033
 30
0.0
 10
1168.135203244959
 20
2737.72942669448
 30
0.0
 10
1168.206304607676
 20
2737.762822764222
 30
0.0
 10
1168.258444819518
 20
2737.766106046871
 30
0.0
 10
1168.285906349032
 20
2737.7678353065
 30
0.0
  0
SPLINE
  5
A0
330
1F
100
AcDbEntity
  8
0
  6
Continuous
 62
     7
370
    25
100
AcDbSpline
210
0.0
220
0.0
230
1.0
 70
     8
 71
     3
 72
    15
 73
    11
 74
     0
 42
0.000000001
 43
0.00000001
 40
0.0
 40
0.0
 40
0.0
 40
0.0
 40
0.1678628092163027
 40
0.3148466165912556
 40
0.4441869603121216
 40
0.5592403382441268
 40
0.6652318690747937
 40
0.7706563435096734
 40
0.8787940473874973
 40
1.0
 40
1.0
 40
1.0
 40
1.0
 10
1169.35959722741
 20
2737.7678353065
 30
0.0
 10
1169.386017023006
 20
2737.766912609578
 30
0.0
 10
1169.435570484509
 20
2737.765181982015
 30
0.0
 10
1169.505090402723
 20
2737.75551963218
 30
0.0
 10
1169.564089924518
 20
2737.736589242774
 30
0.0
 10
1169.612935175391
 20
2737.710188818015
 30
0.0
 10
1169.651780058797
 20
2737.675515299623
 30
0.0
 10
1169.678250365312
 20
2737.632069174761
 30
0.0
 10
1169.695010741286
 20
2737.581449397944
 30
0.0
 10
1169.69659683155
 20
2737.545218035867
 30
0.0
 10
1169.697435065248
 20
2737.526070103797
 30
0.0
  0
SPLINE
  5
A6
330
1F
100
AcDbEntity
  8
0
  6
Continuous
 62
     7
370
    25
100
AcDbSpline
210
0.0
220
0.0
230
1.0
 70
     8
 71
     3
 72
    15
 73
    11
 74
     0
 42
0.000000001
 43
0.00000001
 40
0.0
 40
0.0
 40
0.0
 40
0.0
 40
0.1160972656461875
 40
0.2306624149131476
 40
0.3402033629093814
 40
0.4508640089780951
 40
0.5714067874388904
 40
0.7001904132460138
 40
0.8420906465168314
 40
1.0
 40
1.0
 40
1.0
 40
1.0
 10
1171.207359051735
 20
2732.940977198391
 30
0.0
 10
1171.202988958313
 20
2732.927363488629
 30
0.0
 10
1171.194306442867
 20
2732.900315726976
 30
0.0
 10
1171.171777172818
 20
2732.864631692835
 30
0.0
 10
1171.14368378881
 20
2732.834427834131
 30
0.0
 10
1171.109967223364
 20
2732.809149976289
 30
0.0
 10
1171.069491181247
 20
2732.790856858562
 30
0.0
 10
1171.023452959851
 20
2732.77662707541
 30
0.0
 10
1170.971051929119
 20
2732.77005179882
 30
0.0
 10
1170.934283867676
 20
2732.768599978526
 30
0.0
 10
1170.914918173356
 20
2732.7678353065
 30
0.0
  0
SPLINE
  5
A7
330
1F
100
AcDbEntity
  8
0
  6
Continuous
 62
     7
370
    25
100
AcDbSpline
210
0.0
220
0.0
230
1.0
 70
     8
 71
     3
 72
    15
 73
    11
 74
     0
 42
0.000000001
 43
0.00000001
 40
0.0
 40
0.0
 40
0.0
 40
0.0
 40
0.1494489483192853
 40
0.280416296947852
 40
0.3983399851956618
 40
0.5106686208066447
 40
0.6187215803245983
 40
0.7328059652649279
 40
0.8584957359315141
 40
1.0
 40
1.0
 40
1.0
 40
1.0
 10
1170.914918173356
 20
2732.7678353065
 30
0.0
 10
1170.895470844363
 20
2732.768112432771
 30
0.0
 10
1170.858981139732
 20
2732.768632414502
 30
0.0
 10
1170.808527256047
 20
2732.781053046947
 30
0.0
 10
1170.764647414601
 20
2732.798375133577
 30
0.0
 10
1170.729348150608
 20
2732.825352883532
 30
0.0
 10
1170.701816487498
 20
2732.859403161699
 30
0.0
 10
1170.682824169344
 20
2732.900742103523
 30
0.0
 10
1170.671194916186
 20
2732.94915011401
 30
0.0
 10
1170.669714184028
 20
2732.983839191397
 30
0.0
 10
1170.66892999768
 20
2733.0022103065
 30
0.0
  0
SPLINE
  5
A8
330
1F
100
AcDbEntity
  8
0
  6
Continuous
 62
     7
370
    25
100
AcDbSpline
210
0.0
220
0.0
230
1.0
 70
     8
 71
     3
 72
     9
 73
     5
 74
     0
 42
0.000000001
 43
0.00000001
 40
0.0
 40
0.0
 40
0.0
 40
0.0
 40
0.4666082467570629
 40
0.9999999999999999
 40
0.9999999999999999
 40
0.9999999999999999
 40
0.9999999999999999
 10
1170.66892999768
 20
2733.0022103065
 30
0.0
 10
1170.669367092651
 20
2733.013151032127
 30
0.0
 10
1170.670303841997
 20
2733.036598379455
 30
0.0
 10
1170.674915906471
 20
2733.059613359824
 30
0.0
 10
1170.677375943627
 20
2733.071889360554
 30
0.0
  0
SPLINE
  5
AA
330
1F
100
AcDbEntity
  8
0
  6
Continuous
 62
     7
370
    25
100
AcDbSpline
210
0.0
220
0.0
230
1.0
 70
     8
 71
     3
 72
    11
 73
     7
 74
     0
 42
0.000000001
 43
0.00000001
 40
0.0
 40
0.0
 40
0.0
 40
0.0
 40
0.2872048350150601
 40
0.5292209857219706
 40
0.7570217140402326
 40
1.0
 40
1.0
 40
1.0
 40
1.0
 10
1171.902038105789
 20
2737.560909630824
 30
0.0
 10
1171.911758407447
 20
2737.592062131652
 30
0.0
 10
1171.929669622711
 20
2737.649465612325
 30
0.0
 10
1171.98287131121
 20
2737.718641315455
 30
0.0
 10
1172.054022177153
 20
2737.761841022202
 30
0.0
 10
1172.107669121839
 20
2737.765794723624
 30
0.0
 10
1172.135357362545
 20
2737.7678353065
 30
0.0
  0
SPLINE
  5
AB
330
1F
100
AcDbEntity
  8
0
  6
Continuous
 62
     7
370
    25
100
AcDbSpline
210
0.0
220
0.0
230
1.0
 70
     8
 71
     3
 72
    15
 73
    11
 74
     0
 42
0.000000001
 43
0.00000001
 40
0.0
 40
0.0
 40
0.0
 40
0.0
 40
0.144996680702643
 40
0.2785627095269284
 40
0.4015672591726503
 40
0.5179666754587371
 40
0.6339949980810955
 40
0.7483070616181993
 40
0.8694272750724794
 40
1.0
 40
1.0
 40
1.0
 40
1.0
 10
1172.135357362545
 20
2737.7678353065
 30
0.0
 10
1172.154387041604
 20
2737.767235453251
 30
0.0
 10
1172.19094621616
 20
2737.766083035517
 30
0.0
 10
1172.243228964181
 20
2737.757144845233
 30
0.0
 10
1172.289078990353
 20
2737.739491704813
 30
0.0
 10
1172.330551033846
 20
2737.717581282686
 30
0.0
 10
1172.365178264116
 20
2737.687554843168
 30
0.0
 10
1172.394888874446
 20
2737.651929183123
 30
0.0
 10
1172.416896112677
 20
2737.608790577191
 30
0.0
 10
1172.426854844352
 20
2737.577264606537
 30
0.0
 10
1172.432021213897
 20
2737.560909630824
 30
0.0
  0
SPLINE
  5
AD
330
1F
100
AcDbEntity
  8
0
  6
Continuous
 62
     7
370
    25
100
AcDbSpline
210
0.0
220
0.0
230
1.0
 70
     8
 71
     3
 72
     9
 73
     5
 74
     0
 42
0.000000001
 43
0.00000001
 40
0.0
 40
0.0
 40
0.0
 40
0.0
 40
0.5188677278480824
 40
0.9999999999999999
 40
0.9999999999999999
 40
0.9999999999999999
 40
0.9999999999999999
 10
1173.655627632816
 20
2733.071889360554
 30
0.0
 10
1173.658681040728
 20
2733.059970812323
 30
0.0
 10
1173.664565792753
 20
2733.037000510662
 30
0.0
 10
1173.667797443508
 20
2733.01351158613
 30
0.0
 10
1173.669352294978
 20
2733.0022103065
 30
0.0
  0
SPLINE
  5
AE
330
1F
100
AcDbEntity
  8
0
  6
Continuous
 62
     7
370
    25
100
AcDbSpline
210
0.0
220
0.0
230
1.0
 70
     8
 71
     3
 72
    15
 73
    11
 74
     0
 42
0.000000001
 43
0.00000001
 40
0.0
 40
0.0
 40
0.0
 40
0.0
 40
0.123779485266832
 40
0.2354455429372345
 40
0.3406927178488926
 40
0.4462594699380862
 40
0.5620718480007945
 40
0.6894502587040252
 40
0.8339864943265558
 40
1.0
 40
1.0
 40
1.0
 40
1.0
 10
1173.669352294978
 20
2733.0022103065
 30
0.0
 10
1173.668384029942
 20
2732.98379555696
 30
0.0
 10
1173.66654225716
 20
2732.948768179895
 30
0.0
 10
1173.651448586884
 20
2732.899892495952
 30
0.0
 10
1173.626665664023
 20
2732.858294520882
 30
0.0
 10
1173.591126080197
 20
2732.824548831749
 30
0.0
 10
1173.546156303168
 20
2732.79786634705
 30
0.0
 10
1173.490807678496
 20
2732.78094181077
 30
0.0
 10
1173.426723583422
 20
2732.768614285896
 30
0.0
 10
1173.380504384855
 20
2732.768106668384
 30
0.0
 10
1173.355796551735
 20
2732.7678353065
 30
0.0
  0
SPLINE
  5
AF
330
1F
100
AcDbEntity
  8
0
  6
Continuous
 62
     7
370
    25
100
AcDbSpline
210
0.0
220
0.0
230
1.0
 70
     8
 71
     3
 72
    11
 73
     7
 74
     0
 42
0.000000001
 43
0.00000001
 40
0.0
 40
0.0
 40
0.0
 40
0.0
 40
0.2659391874995495
 40
0.5003589885931853
 40
0.7349007245721427
 40
1.0
 40
1.0
 40
1.0
 40
1.0
 10
1173.355796551735
 20
2732.7678353065
 30
0.0
 10
1173.327896367566
 20
2732.769355076286
 30
0.0
 10
1173.275402757792
 20
2732.772214491176
 30
0.0
 10
1173.205335410189
 20
2732.807600348867
 30
0.0
 10
1173.151920419224
 20
2732.865035990472
 30
0.0
 10
1173.13475313415
 20
2732.914651974598
 30
0.0
 10
1173.125644524708
 20
2732.940977198391
 30
0.0
  0
SPLINE
  5
B2
330
1F
100
AcDbEntity
  8
0
  6
Continuous
 62
     7
370
    25
100
AcDbSpline
210
0.0
220
0.0
230
1.0
 70
     8
 71
     3
 72
    15
 73
    11
 74
     0
 42
0.000000001
 43
0.00000001
 40
0.0
 40
0.0
 40
0.0
 40
0.0
 40
0.1504769280573863
 40
0.2834809983592356
 40
0.4024434553508534
 40
0.5135677867674976
 40
0.6237868132327027
 40
0.7356972790789187
 40
0.8595089008915873
 40
1.0
 40
1.0
 40
1.0
 40
1.0
 10
1174.682021213897
 20
2738.578646117311
 30
0.0
 10
1174.682798593823
 20
2738.599824971884
 30
0.0
 10
1174.68426308702
 20
2738.639723466065
 30
0.0
 10
1174.695868846831
 20
2738.695398105815
 30
0.0
 10
1174.714529454858
 20
2738.743294772098
 30
0.0
 10
1174.74268871814
 20
2738.782726804895
 30
0.0
 10
1174.779501967451
 20
2738.812483808547
 30
0.0
 10
1174.823347790991
 20
2738.834371576402
 30
0.0
 10
1174.875248326348
 20
2738.846886943376
 30
0.0
 10
1174.912455010519
 20
2738.84821203185
 30
0.0
 10
1174.932232362546
 20
2738.848916387581
 30
0.0
  0
SPLINE
  5
B3
330
1F
100
AcDbEntity
  8
0
  6
Continuous
 62
     7
370
    25
100
AcDbSpline
210
0.0
220
0.0
230
1.0
 70
     8
 71
     3
 72
    15
 73
    11
 74
     0
 42
0.000000001
 43
0.00000001
 40
0.0
 40
0.0
 40
0.0
 40
0.0
 40
0.1554571418647459
 40
0.2932984832696235
 40
0.4168265367452558
 40
0.5287456997276374
 40
0.6370258708302051
 40
0.747107083073398
 40
0.866506921919157
 40
1.0
 40
1.0
 40
1.0
 40
1.0
 10
1174.932232362546
 20
2738.848916387581
 30
0.0
 10
1174.956931491098
 20
2738.848219078138
 30
0.0
 10
1175.003530938738
 20
2738.846903475656
 30
0.0
 10
1175.068768329423
 20
2738.834253345928
 30
0.0
 10
1175.124758794685
 20
2738.813709978831
 30
0.0
 10
1175.17065807072
 20
2738.783329739763
 30
0.0
 10
1175.20681071847
 20
2738.744503876493
 30
0.0
 10
1175.23120454834
 20
2738.69615836642
 30
0.0
 10
1175.246178441478
 20
2738.640060283736
 30
0.0
 10
1175.247995942223
 20
2738.599864189963
 30
0.0
 10
1175.248955335519
 20
2738.578646117311
 30
0.0
  0
SPLINE
  5
B4
330
1F
100
AcDbEntity
  8
0
  6
Continuous
 62
     7
370
    25
100
AcDbSpline
210
0.0
220
0.0
230
1.0
 70
     8
 71
     3
 72
    15
 73
    11
 74
     0
 42
0.000000001
 43
0.00000001
 40
0.0
 40
0.0
 40
0.0
 40
0.0
 40
0.1334930780807979
 40
0.2528929169265584
 40
0.3629741291697939
 40
0.4712543002723629
 40
0.5831734632547457
 40
0.7067015167303794
 40
0.8445428581352497
 40
0.9999999999999999
 40
0.9999999999999999
 40
0.9999999999999999
 40
0.9999999999999999
 10
1175.248955335519
 20
2738.578646117311
 30
0.0
 10
1175.247995942223
 20
2738.557428044659
 30
0.0
 10
1175.246178441478
 20
2738.517231950886
 30
0.0
 10
1175.23120454834
 20
2738.461133868202
 30
0.0
 10
1175.20681071847
 20
2738.412788358129
 30
0.0
 10
1175.17065807072
 20
2738.373962494858
 30
0.0
 10
1175.124758794685
 20
2738.343582255791
 30
0.0
 10
1175.068768329424
 20
2738.323038888693
 30
0.0
 10
1175.003530938738
 20
2738.310388758965
 30
0.0
 10
1174.956931491098
 20
2738.309073156483
 30
0.0
 10
1174.932232362546
 20
2738.308375847041
 30
0.0
  0
SPLINE
  5
B5
330
1F
100
AcDbEntity
  8
0
  6
Continuous
 62
     7
370
    25
100
AcDbSpline
210
0.0
220
0.0
230
1.0
 70
     8
 71
     3
 72
    15
 73
    11
 74
     0
 42
0.000000001
 43
0.00000001
 40
0.0
 40
0.0
 40
0.0
 40
0.0
 40
0.1404910991084182
 40
0.2643027209210757
 40
0.3762131867672931
 40
0.4864322132324996
 40
0.5975565446491452
 40
0.7165190016408132
 40
0.8495230719426642
 40
1.0
 40
1.0
 40
1.0
 40
1.0
 10
1174.932232362546
 20
2738.308375847041
 30
0.0
 10
1174.912455010519
 20
2738.309080202771
 30
0.0
 10
1174.875248326348
 20
2738.310405291245
 30
0.0
 10
1174.823347790991
 20
2738.322920658219
 30
0.0
 10
1174.779501967451
 20
2738.344808426074
 30
0.0
 10
1174.74268871814
 20
2738.374565429726
 30
0.0
 10
1174.714529454858
 20
2738.413997462524
 30
0.0
 10
1174.695868846831
 20
2738.461894128807
 30
0.0
 10
1174.68426308702
 20
2738.517568768556
 30
0.0
 10
1174.682798593823
 20
2738.557467262737
 30
0.0
 10
1174.682021213897
 20
2738.578646117311
 30
0.0
  0
SPLINE
  5
B6
330
1F
100
AcDbEntity
  8
0
  6
Continuous
 62
     7
370
    25
100
AcDbSpline
210
0.0
220
0.0
230
1.0
 70
     8
 71
     3
 72
    15
 73
    11
 74
     0
 42
0.000000001
 43
0.00000001
 40
0.0
 40
0.0
 40
0.0
 40
0.0
 40
0.1210437057282685
 40
0.2311608615819695
 40
0.3345582471447893
 40
0.4404078971910816
 40
0.5564076305372051
 40
0.6855748386379459
 40
0.8323618927655659
 40
1.0
 40
1.0
 40
1.0
 40
1.0
 10
1154.886624254437
 20
2733.010656252446
 30
0.0
 10
1154.885716786307
 20
2732.99153410245
 30
0.0
 10
1154.883983766704
 20
2732.955015948602
 30
0.0
 10
1154.867982358593
 20
2732.904044131014
 30
0.0
 10
1154.840608373147
 20
2732.861043562166
 30
0.0
 10
1154.801890746035
 20
2732.826662476841
 30
0.0
 10
1154.753612264638
 20
2732.798822118317
 30
0.0
 10
1154.694226147729
 20
2732.780250973483
 30
0.0
 10
1154.624776079641
 20
2732.770457935896
 30
0.0
 10
1154.575211917382
 20
2732.768747329167
 30
0.0
 10
1154.5487864166
 20
2732.7678353065
 30
0.0
  0
SPLINE
  5
B7
330
1F
100
AcDbEntity
  8
0
  6
Continuous
 62
     7
370
    25
100
AcDbSpline
210
0.0
220
0.0
230
1.0
 70
     8
 71
     3
 72
    15
 73
    11
 74
     0
 42
0.000000001
 43
0.00000001
 40
0.0
 40
0.0
 40
0.0
 40
0.0
 40
0.1526075283706762
 40
0.2869925149660365
 40
0.4076393594010555
 40
0.520337098371867
 40
0.6282469165428718
 40
0.7394778111329581
 40
0.8625819660823832
 40
1.0
 40
1.0
 40
1.0
 40
1.0
 10
1154.5487864166
 20
2732.7678353065
 30
0.0
 10
1154.527632530373
 20
2732.768748570361
 30
0.0
 10
1154.487850698677
 20
2732.77046604718
 30
0.0
 10
1154.431933307176
 20
2732.780356084435
 30
0.0
 10
1154.384057810276
 20
2732.79928127353
 30
0.0
 10
1154.345469550188
 20
2732.827395375421
 30
0.0
 10
1154.314606622018
 20
2732.862103407694
 30
0.0
 10
1154.293128746006
 20
2732.904959951424
 30
0.0
 10
1154.280601349739
 20
2732.955405480252
 30
0.0
 10
1154.279236215667
 20
2732.99157687305
 30
0.0
 10
1154.278516146329
 20
2733.010656252446
 30
0.0
  0
SPLINE
  5
B9
330
1F
100
AcDbEntity
  8
0
  6
Continuous
 62
     7
370
    25
100
AcDbSpline
210
0.0
220
0.0
230
1.0
 70
     8
 71
     3
 72
    11
 73
     7
 74
     0
 42
0.000000001
 43
0.00000001
 40
0.0
 40
0.0
 40
0.0
 40
0.0
 40
0.2516368596472546
 40
0.4870032659251885
 40
0.7307233482109053
 40
1.0
 40
1.0
 40
1.0
 40
1.0
 10
1153.422308376059
 20
2735.167539698391
 30
0.0
 10
1153.407707384484
 20
2735.145619257683
 30
0.0
 10
1153.379449479052
 20
2735.10319571834
 30
0.0
 10
1153.316225195945
 20
2735.05905666695
 30
0.0
 10
1153.243257375171
 20
2735.029411428102
 30
0.0
 10
1153.189668882308
 20
2735.027220265157
 30
0.0
 10
1153.161539794978
 20
2735.026070103797
 30
0.0
  0
SPLINE
  5
BA
330
1F
100
AcDbEntity
  8
0
  6
Continuous
 62
     7
370
    25
100
AcDbSpline
210
0.0
220
0.0
230
1.0
 70
     8
 71
     3
 72
    11
 73
     7
 74
     0
 42
0.000000001
 43
0.00000001
 40
0.0
 40
0.0
 40
0.0
 40
0.0
 40
0.1881087695287534
 40
0.4007936744045705
 40
0.6678239016034979
 40
1.0
 40
1.0
 40
1.0
 40
1.0
 10
1153.161539794978
 20
2735.026070103797
 30
0.0
 10
1153.141165662671
 20
2735.028977723975
 30
0.0
 10
1153.0977555475
 20
2735.03517284065
 30
0.0
 10
1153.040557611704
 20
2735.083330254573
 30
0.0
 10
1152.990886913763
 20
2735.155285780091
 30
0.0
 10
1152.964154684988
 20
2735.214110411268
 30
0.0
 10
1152.949335403086
 20
2735.246720441635
 30
0.0
  0
SPLINE
  5
BD
330
1F
100
AcDbEntity
  8
0
  6
Continuous
 62
     7
370
    25
100
AcDbSpline
210
0.0
220
0.0
230
1.0
 70
     8
 71
     3
 72
    15
 73
    11
 74
     0
 42
0.000000001
 43
0.00000001
 40
0.0
 40
0.0
 40
0.0
 40
0.0
 40
0.1210437057282685
 40
0.2311608615819695
 40
0.3345582471447893
 40
0.4404078971910816
 40
0.5564076305372051
 40
0.6855748386379459
 40
0.8323618927655659
 40
1.0
 40
1.0
 40
1.0
 40
1.0
 10
1152.116353984167
 20
2733.010656252446
 30
0.0
 10
1152.115446516037
 20
2732.99153410245
 30
0.0
 10
1152.113713496434
 20
2732.955015948602
 30
0.0
 10
1152.097712088322
 20
2732.904044131014
 30
0.0
 10
1152.070338102877
 20
2732.861043562166
 30
0.0
 10
1152.031620475765
 20
2732.826662476841
 30
0.0
 10
1151.983341994368
 20
2732.798822118317
 30
0.0
 10
1151.923955877459
 20
2732.780250973483
 30
0.0
 10
1151.85450580937
 20
2732.770457935896
 30
0.0
 10
1151.804941647112
 20
2732.768747329167
 30
0.0
 10
1151.778516146329
 20
2732.7678353065
 30
0.0
  0
SPLINE
  5
BE
330
1F
100
AcDbEntity
  8
0
  6
Continuous
 62
     7
370
    25
100
AcDbSpline
210
0.0
220
0.0
230
1.0
 70
     8
 71
     3
 72
    15
 73
    11
 74
     0
 42
0.000000001
 43
0.00000001
 40
0.0
 40
0.0
 40
0.0
 40
0.0
 40
0.1526075283706762
 40
0.2869925149660365
 40
0.4076393594010555
 40
0.520337098371867
 40
0.6282469165428718
 40
0.7394778111329581
 40
0.8625819660823832
 40
1.0
 40
1.0
 40
1.0
 40
1.0
 10
1151.778516146329
 20
2732.7678353065
 30
0.0
 10
1151.757362260103
 20
2732.768748570361
 30
0.0
 10
1151.717580428407
 20
2732.77046604718
 30
0.0
 10
1151.661663036906
 20
2732.780356084435
 30
0.0
 10
1151.613787540006
 20
2732.79928127353
 30
0.0
 10
1151.575199279918
 20
2732.827395375421
 30
0.0
 10
1151.544336351747
 20
2732.862103407694
 30
0.0
 10
1151.522858475735
 20
2732.904959951424
 30
0.0
 10
1151.510331079469
 20
2732.955405480252
 30
0.0
 10
1151.508965945397
 20
2732.99157687305
 30
0.0
 10
1151.508245876059
 20
2733.010656252446
 30
0.0
  0
SPLINE
  5
C0
330
1F
100
AcDbEntity
  8
0
  6
Continuous
 62
     7
370
    25
100
AcDbSpline
210
0.0
220
0.0
230
1.0
 70
     8
 71
     3
 72
    15
 73
    11
 74
     0
 42
0.000000001
 43
0.00000001
 40
0.0
 40
0.0
 40
0.0
 40
0.0
 40
0.1463969612500585
 40
0.2763205008282976
 40
0.3952399998510112
 40
0.5062723465335541
 40
0.6153932164830238
 40
0.7308481721936078
 40
0.8560321007862145
 40
1.0
 40
1.0
 40
1.0
 40
1.0
 10
1151.508245876059
 20
2737.564076860554
 30
0.0
 10
1151.508891639506
 20
2737.585288913484
 30
0.0
 10
1151.510110501411
 20
2737.625326118075
 30
0.0
 10
1151.523501236946
 20
2737.681108309735
 30
0.0
 10
1151.542398077345
 20
2737.730088858155
 30
0.0
 10
1151.573350304935
 20
2737.768884327934
 30
0.0
 10
1151.61137532263
 20
2737.79968566807
 30
0.0
 10
1151.657937080894
 20
2737.820517419951
 30
0.0
 10
1151.712357823969
 20
2737.833516917789
 30
0.0
 10
1151.751333697047
 20
2737.834745638052
 30
0.0
 10
1151.77218168687
 20
2737.835402874067
 30
0.0
  0
SPLINE
  5
C1
330
1F
100
AcDbEntity
  8
0
  6
Continuous
 62
     7
370
    25
100
AcDbSpline
210
0.0
220
0.0
230
1.0
 70
     8
 71
     3
 72
    11
 73
     7
 74
     0
 42
0.000000001
 43
0.00000001
 40
0.0
 40
0.0
 40
0.0
 40
0.0
 40
0.2501973168891544
 40
0.4922106594254018
 40
0.7370311125845994
 40
1.0
 40
1.0
 40
1.0
 40
1.0
 10
1151.77218168687
 20
2737.835402874067
 30
0.0
 10
1151.805220899674
 20
2737.833579062762
 30
0.0
 10
1151.870218609976
 20
2737.829991097165
 30
0.0
 10
1151.962135548837
 20
2737.795143925114
 30
0.0
 10
1152.045165736359
 20
2737.740003508015
 30
0.0
 10
1152.089283660132
 20
2737.689480880618
 30
0.0
 10
1152.112131011194
 20
2737.663316725419
 30
0.0
  0
SPLINE
  5
C4
330
1F
100
AcDbEntity
  8
0
  6
Continuous
 62
     7
370
    25
100
AcDbSpline
210
0.0
220
0.0
230
1.0
 70
     8
 71
     3
 72
    11
 73
     7
 74
     0
 42
0.000000001
 43
0.00000001
 40
0.0
 40
0.0
 40
0.0
 40
0.0
 40
0.2757923378403681
 40
0.5246605758499395
 40
0.7599072587123588
 40
1.0
 40
1.0
 40
1.0
 40
1.0
 10
1154.288017835518
 20
2737.691821792987
 30
0.0
 10
1154.306774650418
 20
2737.713975623101
 30
0.0
 10
1154.34245715481
 20
2737.756120525879
 30
0.0
 10
1154.40908403704
 20
2737.800824384471
 30
0.0
 10
1154.479721604978
 20
2737.83143805056
 30
0.0
 10
1154.529817543948
 20
2737.834072314176
 30
0.0
 10
1154.555120876059
 20
2737.835402874067
 30
0.0
  0
SPLINE
  5
C5
330
1F
100
AcDbEntity
  8
0
  6
Continuous
 62
     7
370
    25
100
AcDbSpline
210
0.0
220
0.0
230
1.0
 70
     8
 71
     3
 72
    15
 73
    11
 74
     0
 42
0.000000001
 43
0.00000001
 40
0.0
 40
0.0
 40
0.0
 40
0.0
 40
0.1598288012744608
 40
0.2981437540206699
 40
0.4223367313964562
 40
0.5366418418244105
 40
0.6434366182474269
 40
0.7534283282818796
 40
0.8701494530134043
 40
1.0
 40
1.0
 40
1.0
 40
1.0
 10
1154.555120876059
 20
2737.835402874067
 30
0.0
 10
1154.581223080939
 20
2737.834733136926
 30
0.0
 10
1154.629913988269
 20
2737.833483813002
 30
0.0
 10
1154.697992077607
 20
2737.820802053848
 30
0.0
 10
1154.756091193942
 20
2737.799833876083
 30
0.0
 10
1154.8048030942
 20
2737.77054168121
 30
0.0
 10
1154.842623685509
 20
2737.7308606128
 30
0.0
 10
1154.867490570913
 20
2737.681918596532
 30
0.0
 10
1154.884191323815
 20
2737.6256774325
 30
0.0
 10
1154.885784991088
 20
2737.585326583775
 30
0.0
 10
1154.886624254437
 20
2737.564076860554
 30
0.0
  0
SPLINE
  5
C8
330
1F
100
AcDbEntity
  8
0
  6
Continuous
 62
     7
370
    25
100
AcDbSpline
210
0.0
220
0.0
230
1.0
 70
     8
 71
     3
 72
    15
 73
    11
 74
     0
 42
0.000000001
 43
0.00000001
 40
0.0
 40
0.0
 40
0.0
 40
0.0
 40
0.1192175102583104
 40
0.229701770397314
 40
0.3334438581370263
 40
0.4396463856240055
 40
0.5549287995728982
 40
0.6845266202812156
 40
0.831803027372841
 40
0.9999999999999999
 40
0.9999999999999999
 40
0.9999999999999999
 40
0.9999999999999999
 10
1158.555543173356
 20
2733.076112333526
 30
0.0
 10
1158.554603212757
 20
2733.057347911863
 30
0.0
 10
1158.552792148145
 20
2733.021193651743
 30
0.0
 10
1158.536912515999
 20
2732.970536929698
 30
0.0
 10
1158.509488451998
 20
2732.927623451184
 30
0.0
 10
1158.47109495708
 20
2732.893019499553
 30
0.0
 10
1158.422181797934
 20
2732.866658320084
 30
0.0
 10
1158.363203724097
 20
2732.847715535556
 30
0.0
 10
1158.293676992284
 20
2732.838057123411
 30
0.0
 10
1158.244124574596
 20
2732.836325892611
 30
0.0
 10
1158.217705335519
 20
2732.835402874068
 30
0.0
  0
SPLINE
  5
C9
330
1F
100
AcDbEntity
  8
0
  6
Continuous
 62
     7
370
    25
100
AcDbSpline
210
0.0
220
0.0
230
1.0
 70
     8
 71
     3
 72
    15
 73
    11
 74
     0
 42
0.000000001
 43
0.00000001
 40
0.0
 40
0.0
 40
0.0
 40
0.0
 40
0.153598997009281
 40
0.2888570630727877
 40
0.4102877322894149
 40
0.5222412776216214
 40
0.630852169990316
 40
0.7428057153225017
 40
0.8642363845391651
 40
1.0
 40
1.0
 40
1.0
 40
1.0
 10
1158.217705335519
 20
2732.835402874068
 30
0.0
 10
1158.196557554879
 20
2732.836324742683
 30
0.0
 10
1158.156787205299
 20
2732.838058401534
 30
0.0
 10
1158.100794111036
 20
2732.847841749007
 30
0.0
 10
1158.053355353078
 20
2732.867037813028
 30
0.0
 10
1158.01407445258
 20
2732.893806629067
 30
0.0
 10
1157.983560029835
 20
2732.928681108303
 30
0.0
 10
1157.962247581792
 20
2732.971158242191
 30
0.0
 10
1157.949476587971
 20
2733.020835608507
 30
0.0
 10
1157.948140394002
 20
2733.056323701806
 30
0.0
 10
1157.947435065248
 20
2733.075056590284
 30
0.0
  0
SPLINE
  5
CB
330
1F
100
AcDbEntity
  8
0
  6
Continuous
 62
     7
370
    25
100
AcDbSpline
210
0.0
220
0.0
230
1.0
 70
     8
 71
     3
 72
    23
 73
    19
 74
     0
 42
0.000000001
 43
0.00000001
 40
0.0
 40
0.0
 40
0.0
 40
0.0
 40
0.033426202035356
 40
0.0709252559820608
 40
0.1118634144878435
 40
0.1569064398987447
 40
0.205979153848467
 40
0.2585999398510904
 40
0.3152602697149487
 40
0.3757213361297294
 40
0.4399866657894134
 40
0.5083974803189009
 40
0.5806187561822812
 40
0.6566525006817069
 40
0.7367390392849483
 40
0.8206408278564922
 40
0.9083591900053924
 40
1.0
 40
1.0
 40
1.0
 40
1.0
 10
1157.947435065248
 20
2736.70998057677
 30
0.0
 10
1157.935387879706
 20
2736.666263478703
 30
0.0
 10
1157.909825606208
 20
2736.573502525247
 30
0.0
 10
1157.863760859615
 20
2736.428897876322
 30
0.0
 10
1157.812292661848
 20
2736.269498598077
 30
0.0
 10
1157.751510926272
 20
2736.096661402074
 30
0.0
 10
1157.684476195683
 20
2735.9092408569
 30
0.0
 10
1157.608881968546
 20
2735.708169026439
 30
0.0
 10
1157.526796929234
 20
2735.493043095215
 30
0.0
 10
1157.436897573585
 20
2735.264001645845
 30
0.0
 10
1157.339749496374
 20
2735.020687106618
 30
0.0
 10
1157.234077917047
 20
2734.763613554351
 30
0.0
 10
1157.121171849005
 20
2734.492259349752
 30
0.0
 10
1157.0005007513
 20
2734.206987339162
 30
0.0
 10
1156.873023874025
 20
2733.90739148902
 30
0.0
 10
1156.737730787172
 20
2733.593901381103
 30
0.0
 10
1156.59547367507
 20
2733.266344876384
 30
0.0
 10
1156.496657022122
 20
2733.044015527014
 30
0.0
 10
1156.446168173356
 20
2732.930419765959
 30
0.0
  0
SPLINE
  5
CC
330
1F
100
AcDbEntity
  8
0
  6
Continuous
 62
     7
370
    25
100
AcDbSpline
210
0.0
220
0.0
230
1.0
 70
     8
 71
     3
 72
    11
 73
     7
 74
     0
 42
0.000000001
 43
0.00000001
 40
0.0
 40
0.0
 40
0.0
 40
0.0
 40
0.2328090547617858
 40
0.4629430035604977
 40
0.7138780282479263
 40
1.0
 40
1.0
 40
1.0
 40
1.0
 10
1156.446168173356
 20
2732.930419765959
 30
0.0
 10
1156.429659139618
 20
2732.905514823698
 30
0.0
 10
1156.396830770153
 20
2732.85599111086
 30
0.0
 10
1156.319892396259
 20
2732.803891644649
 30
0.0
 10
1156.226061766401
 20
2732.772985520917
 30
0.0
 10
1156.157517064345
 20
2732.769625426949
 30
0.0
 10
1156.120999254437
 20
2732.7678353065
 30
0.0
  0
SPLINE
  5
CD
330
1F
100
AcDbEntity
  8
0
  6
Continuous
 62
     7
370
    25
100
AcDbSpline
210
0.0
220
0.0
230
1.0
 70
     8
 71
     3
 72
    15
 73
    11
 74
     0
 42
0.000000001
 43
0.00000001
 40
0.0
 40
0.0
 40
0.0
 40
0.0
 40
0.1464537970123205
 40
0.2740558316442595
 40
0.3917684023119426
 40
0.4994269965368913
 40
0.610502449360436
 40
0.7260022282036962
 40
0.8559762080598465
 40
1.0
 40
1.0
 40
1.0
 40
1.0
 10
1156.120999254437
 20
2732.7678353065
 30
0.0
 10
1156.099804692011
 20
2732.768497914129
 30
0.0
 10
1156.060143764464
 20
2732.769737837494
 30
0.0
 10
1156.004644492191
 20
2732.78269888492
 30
0.0
 10
1155.957662984194
 20
2732.80342312796
 30
0.0
 10
1155.918541043558
 20
2732.833183841039
 30
0.0
 10
1155.888946690603
 20
2732.87199291636
 30
0.0
 10
1155.867255709161
 20
2732.919120445148
 30
0.0
 10
1155.854999821306
 20
2732.974498730597
 30
0.0
 10
1155.853584446314
 20
2733.014114677884
 30
0.0
 10
1155.852840470654
 20
2733.034938347041
 30
0.0
  0
SPLINE
  5
CF
330
1F
100
AcDbEntity
  8
0
  6
Continuous
 62
     7
370
    25
100
AcDbSpline
210
0.0
220
0.0
230
1.0
 70
     8
 71
     3
 72
    15
 73
    11
 74
     0
 42
0.000000001
 43
0.00000001
 40
0.0
 40
0.0
 40
0.0
 40
0.0
 40
0.1373554302530859
 40
0.2604035025254482
 40
0.3715837235509966
 40
0.4813661282244321
 40
0.5925463492499707
 40
0.7131382304872173
 40
0.8474619951863026
 40
1.0
 40
1.0
 40
1.0
 40
1.0
 10
1155.852840470654
 20
2737.592581928121
 30
0.0
 10
1155.853568530539
 20
2737.611653657323
 30
0.0
 10
1155.854948813386
 20
2737.647810546599
 30
0.0
 10
1155.867374881605
 20
2737.698353087463
 30
0.0
 10
1155.889312935077
 20
2737.741125325801
 30
0.0
 10
1155.919074450651
 20
2737.777000405695
 30
0.0
 10
1155.95881454569
 20
2737.803723073383
 30
0.0
 10
1156.006182858789
 20
2737.822977892599
 30
0.0
 10
1156.062197651909
 20
2737.832743141937
 30
0.0
 10
1156.101964710342
 20
2737.8344795458
 30
0.0
 10
1156.123110740924
 20
2737.835402874067
 30
0.0
  0
SPLINE
  5
D0
330
1F
100
AcDbEntity
  8
0
  6
Continuous
 62
     7
370
    25
100
AcDbSpline
210
0.0
220
0.0
230
1.0
 70
     8
 71
     3
 72
    15
 73
    11
 74
     0
 42
0.000000001
 43
0.00000001
 40
0.0
 40
0.0
 40
0.0
 40
0.0
 40
0.1675680039011999
 40
0.3142936742424018
 40
0.4434068668690848
 40
0.5582581848719306
 40
0.665581659280264
 40
0.7689358058594467
 40
0.8790069126387517
 40
1.0
 40
1.0
 40
1.0
 40
1.0
 10
1156.123110740924
 20
2737.835402874067
 30
0.0
 10
1156.149527873752
 20
2737.834477613447
 30
0.0
 10
1156.199076340918
 20
2737.832742177365
 30
0.0
 10
1156.268628860107
 20
2737.823111215567
 30
0.0
 10
1156.327525760039
 20
2737.804082022406
 30
0.0
 10
1156.376909341888
 20
2737.777881202252
 30
0.0
 10
1156.414565374659
 20
2737.742119119013
 30
0.0
 10
1156.442373251972
 20
2737.699272644149
 30
0.0
 10
1156.458289029076
 20
2737.648199726516
 30
0.0
 10
1156.460034559526
 20
2737.611696343569
 30
0.0
 10
1156.460948578762
 20
2737.592581928121
 30
0.0
  0
SPLINE
  5
D2
330
1F
100
AcDbEntity
  8
0
  6
Continuous
 62
     7
370
    25
100
AcDbSpline
210
0.0
220
0.0
230
1.0
 70
     8
 71
     3
 72
    23
 73
    19
 74
     0
 42
0.000000001
 43
0.00000001
 40
0.0
 40
0.0
 40
0.0
 40
0.0
 40
0.0333964054255412
 40
0.0706152794128572
 40
0.111849190485731
 40
0.1568612779401194
 40
0.2056604075302322
 40
0.2582535298716241
 40
0.3149813657476618
 40
0.3755144664321967
 40
0.439760350837598
 40
0.5082526710923421
 40
0.5804605573355229
 40
0.6565848896394125
 40
0.7364261993996005
 40
0.8204279498876174
 40
0.9083548486788582
 40
1.0
 40
1.0
 40
1.0
 40
1.0
 10
1156.460948578762
 20
2733.893257603797
 30
0.0
 10
1156.472621342052
 20
2733.936979065682
 30
0.0
 10
1156.497302903759
 20
2734.029426238003
 30
0.0
 10
1156.542607040047
 20
2734.174069324921
 30
0.0
 10
1156.594044629986
 20
2734.333240826311
 30
0.0
 10
1156.653361348054
 20
2734.50634038754
 30
0.0
 10
1156.71997333454
 20
2734.693183365483
 30
0.0
 10
1156.79395446008
 20
2734.89424321497
 30
0.0
 10
1156.876326013187
 20
2735.109134843409
 30
0.0
 10
1156.966460420982
 20
2735.337939034033
 30
0.0
 10
1157.061919743381
 20
2735.581788013715
 30
0.0
 10
1157.168341470713
 20
2735.838271186178
 30
0.0
 10
1157.279454855885
 20
2736.110220757158
 30
0.0
 10
1157.400577532281
 20
2736.394659130047
 30
0.0
 10
1157.526954258458
 20
2736.694217997844
 30
0.0
 10
1157.66197056939
 20
2737.007483573711
 30
0.0
 10
1157.805932401012
 20
2737.33429144902
 30
0.0
 10
1157.903814892404
 20
2737.55703107229
 30
0.0
 10
1157.953769524708
 20
2737.670706928121
 30
0.0
  0
SPLINE
  5
D3
330
1F
100
AcDbEntity
  8
0
  6
Continuous
 62
     7
370
    25
100
AcDbSpline
210
0.0
220
0.0
230
1.0
 70
     8
 71
     3
 72
    11
 73
     7
 74
     0
 42
0.000000001
 43
0.00000001
 40
0.0
 40
0.0
 40
0.0
 40
0.0
 40
0.2670118619317375
 40
0.5105832502389152
 40
0.7477324693016116
 40
0.9999999999999999
 40
0.9999999999999999
 40
0.9999999999999999
 40
0.9999999999999999
 10
1157.953769524708
 20
2737.670706928121
 30
0.0
 10
1157.969434605967
 20
2737.695625350315
 30
0.0
 10
1157.999389560204
 20
2737.743274652869
 30
0.0
 10
1158.062965970531
 20
2737.797179674432
 30
0.0
 10
1158.138155031617
 20
2737.829746268586
 30
0.0
 10
1158.192041367197
 20
2737.833478904618
 30
0.0
 10
1158.219816822005
 20
2737.835402874067
 30
0.0
  0
SPLINE
  5
D5
330
1F
100
AcDbEntity
  8
0
  6
Continuous
 62
     7
370
    25
100
AcDbSpline
210
0.0
220
0.0
230
1.0
 70
     8
 71
     3
 72
    15
 73
    11
 74
     0
 42
0.000000001
 43
0.00000001
 40
0.0
 40
0.0
 40
0.0
 40
0.0
 40
0.1624566800599234
 40
0.3033020102420552
 40
0.4291664366098
 40
0.5438062297014474
 40
0.6493516081969325
 40
0.7569385026546191
 40
0.87192467109931
 40
1.0
 40
1.0
 40
1.0
 40
1.0
 10
1158.219816822005
 20
2737.835402874067
 30
0.0
 10
1158.24628759761
 20
2737.834778354119
 30
0.0
 10
1158.295707784275
 20
2737.833612393102
 30
0.0
 10
1158.364494208176
 20
2737.820375200101
 30
0.0
 10
1158.423923584987
 20
2737.801423828648
 30
0.0
 10
1158.472378566916
 20
2737.771543765552
 30
0.0
 10
1158.509968195341
 20
2737.732986849847
 30
0.0
 10
1158.536929564398
 20
2737.686309999582
 30
0.0
 10
1158.552976763374
 20
2737.63090248816
 30
0.0
 10
1158.554657532861
 20
2737.591286171842
 30
0.0
 10
1158.555543173356
 20
2737.570411320014
 30
0.0
  0
SPLINE
  5
D6
330
1F
100
AcDbEntity
  8
0
  6
Continuous
 62
     7
370
    25
100
AcDbSpline
210
0.0
220
0.0
230
1.0
 70
     8
 71
     3
 72
    15
 73
    11
 74
     0
 42
0.000000001
 43
0.00000001
 40
0.0
 40
0.0
 40
0.0
 40
0.0
 40
0.1508045077457602
 40
0.2840981203213945
 40
0.4033195517956296
 40
0.5146857945426428
 40
0.6232205922551057
 40
0.7376232601897794
 40
0.8617044128402584
 40
1.0
 40
1.0
 40
1.0
 40
1.0
 10
1175.504445200383
 20
2738.578646117311
 30
0.0
 10
1175.505221062985
 20
2738.599826943066
 30
0.0
 10
1175.506682697721
 20
2738.639729150725
 30
0.0
 10
1175.518307333983
 20
2738.695379267747
 30
0.0
 10
1175.536906574292
 20
2738.743355657904
 30
0.0
 10
1175.565114901124
 20
2738.782295082674
 30
0.0
 10
1175.601123675421
 20
2738.81314526547
 30
0.0
 10
1175.64560766328
 20
2738.834042621088
 30
0.0
 10
1175.697284938046
 20
2738.846878142564
 30
0.0
 10
1175.734162756423
 20
2738.848212869338
 30
0.0
 10
1175.753600605789
 20
2738.848916387581
 30
0.0
  0
SPLINE
  5
D7
330
1F
100
AcDbEntity
  8
0
  6
Continuous
 62
     7
370
    25
100
AcDbSpline
210
0.0
220
0.0
230
1.0
 70
     8
 71
     3
 72
    15
 73
    11
 74
     0
 42
0.000000001
 43
0.00000001
 40
0.0
 40
0.0
 40
0.0
 40
0.0
 40
0.1554571418647234
 40
0.2932984832696247
 40
0.4168265367452576
 40
0.5287456997276397
 40
0.637025870830208
 40
0.7471070830733907
 40
0.8665069219191563
 40
1.0
 40
1.0
 40
1.0
 40
1.0
 10
1175.753600605789
 20
2738.848916387581
 30
0.0
 10
1175.778299734341
 20
2738.848219078138
 30
0.0
 10
1175.824899181981
 20
2738.846903475656
 30
0.0
 10
1175.890136572667
 20
2738.834253345928
 30
0.0
 10
1175.946127037928
 20
2738.813709978831
 30
0.0
 10
1175.992026313963
 20
2738.783329739763
 30
0.0
 10
1176.028178961714
 20
2738.744503876493
 30
0.0
 10
1176.052572791584
 20
2738.69615836642
 30
0.0
 10
1176.067546684721
 20
2738.640060283736
 30
0.0
 10
1176.069364185466
 20
2738.599864189963
 30
0.0
 10
1176.070323578762
 20
2738.578646117311
 30
0.0
  0
SPLINE
  5
D8
330
1F
100
AcDbEntity
  8
0
  6
Continuous
 62
     7
370
    25
100
AcDbSpline
210
0.0
220
0.0
230
1.0
 70
     8
 71
     3
 72
    15
 73
    11
 74
     0
 42
0.000000001
 43
0.00000001
 40
0.0
 40
0.0
 40
0.0
 40
0.0
 40
0.1334930780807986
 40
0.2528929169265657
 40
0.362974129169791
 40
0.4712543002723605
 40
0.5831734632547438
 40
0.7067015167303783
 40
0.8445428581352721
 40
1.0
 40
1.0
 40
1.0
 40
1.0
 10
1176.070323578762
 20
2738.578646117311
 30
0.0
 10
1176.069364185466
 20
2738.557428044659
 30
0.0
 10
1176.067546684721
 20
2738.517231950886
 30
0.0
 10
1176.052572791584
 20
2738.461133868202
 30
0.0
 10
1176.028178961714
 20
2738.412788358129
 30
0.0
 10
1175.992026313963
 20
2738.373962494858
 30
0.0
 10
1175.946127037928
 20
2738.343582255791
 30
0.0
 10
1175.890136572667
 20
2738.323038888693
 30
0.0
 10
1175.824899181981
 20
2738.310388758965
 30
0.0
 10
1175.778299734341
 20
2738.309073156483
 30
0.0
 10
1175.753600605789
 20
2738.308375847041
 30
0.0
  0
SPLINE
  5
D9
330
1F
100
AcDbEntity
  8
0
  6
Continuous
 62
     7
370
    25
100
AcDbSpline
210
0.0
220
0.0
230
1.0
 70
     8
 71
     3
 72
    15
 73
    11
 74
     0
 42
0.000000001
 43
0.00000001
 40
0.0
 40
0.0
 40
0.0
 40
0.0
 40
0.1382955871597473
 40
0.2623767398102151
 40
0.3767794077448902
 40
0.4853142054573545
 40
0.5966804482043692
 40
0.7159018796786546
 40
0.8491954922542906
 40
1.0
 40
1.0
 40
1.0
 40
1.0
 10
1175.753600605789
 20
2738.308375847041
 30
0.0
 10
1175.734162756423
 20
2738.309079365283
 30
0.0
 10
1175.697284938046
 20
2738.310414092057
 30
0.0
 10
1175.64560766328
 20
2738.323249613533
 30
0.0
 10
1175.601123675421
 20
2738.344146969151
 30
0.0
 10
1175.565114901124
 20
2738.374997151947
 30
0.0
 10
1175.536906574292
 20
2738.413936576718
 30
0.0
 10
1175.518307333983
 20
2738.461912966874
 30
0.0
 10
1175.506682697721
 20
2738.517563083896
 30
0.0
 10
1175.505221062985
 20
2738.557465291555
 30
0.0
 10
1175.504445200383
 20
2738.578646117311
 30
0.0
  0
SPLINE
  5
DA
330
1F
100
AcDbEntity
  8
0
  6
Continuous
 62
     7
370
    25
100
AcDbSpline
210
0.0
220
0.0
230
1.0
 70
     8
 71
     3
 72
    15
 73
    11
 74
     0
 42
0.000000001
 43
0.00000001
 40
0.0
 40
0.0
 40
0.0
 40
0.0
 40
0.1210437057282675
 40
0.2311608615819604
 40
0.3345582471447919
 40
0.4404078971910661
 40
0.5564076305372089
 40
0.6855748386379485
 40
0.8323618927655673
 40
1.0
 40
1.0
 40
1.0
 40
1.0
 10
1175.683921551735
 20
2733.010656252446
 30
0.0
 10
1175.683014083605
 20
2732.99153410245
 30
0.0
 10
1175.681281064002
 20
2732.955015948602
 30
0.0
 10
1175.66527965589
 20
2732.904044131014
 30
0.0
 10
1175.637905670445
 20
2732.861043562166
 30
0.0
 10
1175.599188043332
 20
2732.826662476841
 30
0.0
 10
1175.550909561935
 20
2732.798822118317
 30
0.0
 10
1175.491523445027
 20
2732.780250973483
 30
0.0
 10
1175.422073376938
 20
2732.770457935896
 30
0.0
 10
1175.37250921468
 20
2732.768747329167
 30
0.0
 10
1175.346083713897
 20
2732.7678353065
 30
0.0
  0
SPLINE
  5
DB
330
1F
100
AcDbEntity
  8
0
  6
Continuous
 62
     7
370
    25
100
AcDbSpline
210
0.0
220
0.0
230
1.0
 70
     8
 71
     3
 72
    15
 73
    11
 74
     0
 42
0.000000001
 43
0.00000001
 40
0.0
 40
0.0
 40
0.0
 40
0.0
 40
0.152607528370678
 40
0.2869925149660399
 40
0.4076393594010356
 40
0.5203370983718485
 40
0.6282469165428721
 40
0.7394778111329597
 40
0.8625819660823797
 40
1.0
 40
1.0
 40
1.0
 40
1.0
 10
1175.346083713897
 20
2732.7678353065
 30
0.0
 10
1175.324929827671
 20
2732.768748570361
 30
0.0
 10
1175.285147995974
 20
2732.77046604718
 30
0.0
 10
1175.229230604474
 20
2732.780356084435
 30
0.0
 10
1175.181355107573
 20
2732.79928127353
 30
0.0
 10
1175.142766847486
 20
2732.827395375421
 30
0.0
 10
1175.111903919315
 20
2732.862103407694
 30
0.0
 10
1175.090426043303
 20
2732.904959951424
 30
0.0
 10
1175.077898647036
 20
2732.955405480252
 30
0.0
 10
1175.076533512965
 20
2732.99157687305
 30
0.0
 10
1175.075813443627
 20
2733.010656252446
 30
0.0
  0
SPLINE
  5
DE
330
1F
100
AcDbEntity
  8
0
  6
Continuous
 62
     7
370
    25
100
AcDbSpline
210
0.0
220
0.0
230
1.0
 70
     8
 71
     3
 72
    15
 73
    11
 74
     0
 42
0.000000001
 43
0.00000001
 40
0.0
 40
0.0
 40
0.0
 40
0.0
 40
0.1373554302531397
 40
0.2604035025254426
 40
0.3715837235509899
 40
0.4813661282244416
 40
0.5925463492499793
 40
0.71313823048722
 40
0.8474619951863042
 40
1.0
 40
1.0
 40
1.0
 40
1.0
 10
1175.075813443627
 20
2737.556686657851
 30
0.0
 10
1175.076541503512
 20
2737.575758387052
 30
0.0
 10
1175.077921786359
 20
2737.611915276329
 30
0.0
 10
1175.090347854578
 20
2737.662457817192
 30
0.0
 10
1175.11228590805
 20
2737.705230055531
 30
0.0
 10
1175.142047423624
 20
2737.741105135424
 30
0.0
 10
1175.181787518663
 20
2737.767827803113
 30
0.0
 10
1175.229155831761
 20
2737.787082622329
 30
0.0
 10
1175.285170624882
 20
2737.796847871667
 30
0.0
 10
1175.324937683316
 20
2737.798584275529
 30
0.0
 10
1175.346083713897
 20
2737.799507603797
 30
0.0
  0
SPLINE
  5
DF
330
1F
100
AcDbEntity
  8
0
  6
Continuous
 62
     7
370
    25
100
AcDbSpline
210
0.0
220
0.0
230
1.0
 70
     8
 71
     3
 72
    15
 73
    11
 74
     0
 42
0.000000001
 43
0.00000001
 40
0.0
 40
0.0
 40
0.0
 40
0.0
 40
0.1675680039011956
 40
0.3142936742423939
 40
0.443406866869088
 40
0.5582581848719514
 40
0.665581659280265
 40
0.7689358058594576
 40
0.8790069126387081
 40
1.0
 40
1.0
 40
1.0
 40
1.0
 10
1175.346083713897
 20
2737.799507603797
 30
0.0
 10
1175.372500846725
 20
2737.798582343176
 30
0.0
 10
1175.422049313891
 20
2737.796846907095
 30
0.0
 10
1175.49160183308
 20
2737.787215945297
 30
0.0
 10
1175.550498733012
 20
2737.768186752136
 30
0.0
 10
1175.599882314861
 20
2737.741985931982
 30
0.0
 10
1175.637538347632
 20
2737.706223848742
 30
0.0
 10
1175.665346224945
 20
2737.663377373879
 30
0.0
 10
1175.681262002049
 20
2737.612304456246
 30
0.0
 10
1175.683007532499
 20
2737.575801073299
 30
0.0
 10
1175.683921551735
 20
2737.556686657851
 30
0.0
  0
SPLINE
  5
E1
330
1F
100
AcDbEntity
  8
0
  6
Continuous
 62
     7
370
    25
100
AcDbSpline
210
0.0
220
0.0
230
1.0
 70
     8
 71
     3
 72
    15
 73
    11
 74
     0
 42
0.000000001
 43
0.00000001
 40
0.0
 40
0.0
 40
0.0
 40
0.0
 40
0.1276684251884629
 40
0.2497174891406319
 40
0.3724052965255604
 40
0.4994696317434468
 40
0.6273817584612364
 40
0.7490098240592358
 40
0.8724320578182765
 40
1.0
 40
1.0
 40
1.0
 40
1.0
 10
1179.082570200383
 20
2734.594271117311
 30
0.0
 10
1179.080252799951
 20
2734.63494815902
 30
0.0
 10
1179.07572000011
 20
2734.714511831138
 30
0.0
 10
1179.042366766432
 20
2734.829624482453
 30
0.0
 10
1178.983442148448
 20
2734.933330939609
 30
0.0
 10
1178.905310047385
 20
2735.025433766521
 30
0.0
 10
1178.81317307198
 20
2735.103455219609
 30
0.0
 10
1178.707689540285
 20
2735.159509234022
 30
0.0
 10
1178.593221503623
 20
2735.195062105562
 30
0.0
 10
1178.513082136743
 20
2735.198513524969
 30
0.0
 10
1178.472350605789
 20
2735.200267738932
 30
0.0
  0
SPLINE
  5
E5
330
1F
100
AcDbEntity
  8
0
  6
Continuous
 62
     7
370
    25
100
AcDbSpline
210
0.0
220
0.0
230
1.0
 70
     8
 71
     3
 72
    15
 73
    11
 74
     0
 42
0.000000001
 43
0.00000001
 40
0.0
 40
0.0
 40
0.0
 40
0.0
 40
0.1245304651428252
 40
0.2458327863376217
 40
0.3671677054605054
 40
0.4958115956037673
 40
0.6247420892948234
 40
0.7485399847072984
 40
0.8720393659864559
 40
0.9999999999999999
 40
0.9999999999999999
 40
0.9999999999999999
 40
0.9999999999999999
 10
1178.879867497681
 20
2736.647691725419
 30
0.0
 10
1178.877977228278
 20
2736.685936385824
 30
0.0
 10
1178.874245690027
 20
2736.761434308515
 30
0.0
 10
1178.840230265644
 20
2736.870041419311
 30
0.0
 10
1178.783479261329
 20
2736.969520156052
 30
0.0
 10
1178.70682016556
 20
2737.057587144828
 30
0.0
 10
1178.616224119477
 20
2737.132503705705
 30
0.0
 10
1178.514035153652
 20
2737.187273169857
 30
0.0
 10
1178.403116409291
 20
2737.221875151349
 30
0.0
 10
1178.32585557156
 20
2737.225466986361
 30
0.0
 10
1178.286539794978
 20
2737.227294765959
 30
0.0
  0
SPLINE
  5
E7
330
1F
100
AcDbEntity
  8
0
  6
Continuous
 62
     7
370
    25
100
AcDbSpline
210
0.0
220
0.0
230
1.0
 70
     8
 71
     3
 72
    15
 73
    11
 74
     0
 42
0.000000001
 43
0.00000001
 40
0.0
 40
0.0
 40
0.0
 40
0.0
 40
0.1274086638640752
 40
0.2492093999587787
 40
0.372083904232532
 40
0.4997357737771596
 40
0.627387643321796
 40
0.7507906000412424
 40
0.8725913361359491
 40
1.0
 40
1.0
 40
1.0
 40
1.0
 10
1178.472350605789
 20
2733.30837584704
 30
0.0
 10
1178.513045319084
 20
2733.310657377633
 30
0.0
 10
1178.592643556552
 20
2733.315120016614
 30
0.0
 10
1178.70764012764
 20
2733.349022346445
 30
0.0
 10
1178.812650978223
 20
2733.4062356035
 30
0.0
 10
1178.905689448693
 20
2733.484240052936
 30
0.0
 10
1178.98345711965
 20
2733.577521735699
 30
0.0
 10
1179.04215322933
 20
2733.681938646054
 30
0.0
 10
1179.075753267402
 20
2733.797285583997
 30
0.0
 10
1179.080264054167
 20
2733.876858123313
 30
0.0
 10
1179.082570200383
 20
2733.917539698391
 30
0.0
  0
SPLINE
  5
E9
330
1F
100
AcDbEntity
  8
0
  6
Continuous
 62
     7
370
    25
100
AcDbSpline
210
0.0
220
0.0
230
1.0
 70
     8
 71
     3
 72
    15
 73
    11
 74
     0
 42
0.000000001
 43
0.00000001
 40
0.0
 40
0.0
 40
0.0
 40
0.0
 40
0.127628416703636
 40
0.2508071631833479
 40
0.3742836487801929
 40
0.5036065028316414
 40
0.6327873107114814
 40
0.7548054560999362
 40
0.875792846604184
 40
1.0
 40
1.0
 40
1.0
 40
1.0
 10
1178.286539794978
 20
2735.740808279473
 30
0.0
 10
1178.325858722061
 20
2735.742632034206
 30
0.0
 10
1178.403125750955
 20
2735.746215959814
 30
0.0
 10
1178.513999265801
 20
2735.780875723434
 30
0.0
 10
1178.616559926847
 20
2735.83552941412
 30
0.0
 10
1178.706819726982
 20
2735.911684613059
 30
0.0
 10
1178.78356500677
 20
2736.000707612306
 30
0.0
 10
1178.839993948153
 20
2736.101006783196
 30
0.0
 10
1178.874282575349
 20
2736.209816965461
 30
0.0
 10
1178.877989630551
 20
2736.285327500403
 30
0.0
 10
1178.879867497681
 20
2736.323578549743
 30
0.0
  0
SPLINE
  5
EC
330
1F
100
AcDbEntity
  8
0
  6
Continuous
 62
     7
370
    25
100
AcDbSpline
210
0.0
220
0.0
230
1.0
 70
     8
 71
     3
 72
    15
 73
    11
 74
     0
 42
0.000000001
 43
0.00000001
 40
0.0
 40
0.0
 40
0.0
 40
0.0
 40
0.147298584690287
 40
0.2756504930887066
 40
0.3928141444239427
 40
0.5033990299456972
 40
0.6118667949946468
 40
0.7290304463298574
 40
0.8553653506994968
 40
1.0
 40
1.0
 40
1.0
 40
1.0
 10
1177.233963781464
 20
2732.7678353065
 30
0.0
 10
1177.214571197691
 20
2732.768740186538
 30
0.0
 10
1177.178280453345
 20
2732.770433553987
 30
0.0
 10
1177.127122845484
 20
2732.780374093805
 30
0.0
 10
1177.083995590137
 20
2732.799779203667
 30
0.0
 10
1177.048014583783
 20
2732.826364130909
 30
0.0
 10
1177.020589715487
 20
2732.861869188624
 30
0.0
 10
1177.002113711769
 20
2732.904745002711
 30
0.0
 10
1176.990115292947
 20
2732.954769534023
 30
0.0
 10
1176.988720239504
 20
2732.990518751104
 30
0.0
 10
1176.987975605789
 20
2733.009600509202
 30
0.0
  0
SPLINE
  5
EE
330
1F
100
AcDbEntity
  8
0
  6
Continuous
 62
     7
370
    25
100
AcDbSpline
210
0.0
220
0.0
230
1.0
 70
     8
 71
     3
 72
    15
 73
    11
 74
     0
 42
0.000000001
 43
0.00000001
 40
0.0
 40
0.0
 40
0.0
 40
0.0
 40
0.1451733701004592
 40
0.2713822329810225
 40
0.3889822838669176
 40
0.4995248231294428
 40
0.6083965981540739
 40
0.7259966490400088
 40
0.8548266298995949
 40
1.0
 40
1.0
 40
1.0
 40
1.0
 10
1176.987975605789
 20
2737.526070103797
 30
0.0
 10
1176.988850190361
 20
2737.54512761537
 30
0.0
 10
1176.990485109452
 20
2737.580753088843
 30
0.0
 10
1177.000838736277
 20
2737.631002975876
 30
0.0
 10
1177.019426687449
 20
2737.674226382929
 30
0.0
 10
1177.048015772388
 20
2737.708590779274
 30
0.0
 10
1177.082966128353
 20
2737.736279287767
 30
0.0
 10
1177.126136879067
 20
2737.755214940165
 30
0.0
 10
1177.17685733984
 20
2737.765188957406
 30
0.0
 10
1177.212805905771
 20
2737.766918797073
 30
0.0
 10
1177.231852294978
 20
2737.7678353065
 30
0.0
  0
SPLINE
  5
EF
330
1F
100
AcDbEntity
  8
0
  6
Continuous
 62
     7
370
    25
100
AcDbSpline
210
0.0
220
0.0
230
1.0
 70
     8
 71
     3
 72
    23
 73
    19
 74
     0
 42
0.000000001
 43
0.00000001
 40
0.0
 40
0.0
 40
0.0
 40
0.0
 40
0.0699971325042252
 40
0.1369889410780279
 40
0.2025818669322436
 40
0.2663268833207383
 40
0.3299959998499111
 40
0.3931968746882998
 40
0.4576209660458654
 40
0.5225816115471996
 40
0.5870057029047615
 40
0.6493260697673687
 40
0.7088254174031644
 40
0.7677033068043778
 40
0.8250025883224732
 40
0.8828865868295784
 40
0.9405703509601349
 40
1.0
 40
1.0
 40
1.0
 40
1.0
 10
1178.292874254437
 20
2737.7678353065
 30
0.0
 10
1178.334813052072
 20
2737.766911047129
 30
0.0
 10
1178.416890006835
 20
2737.765102211425
 30
0.0
 10
1178.537230760688
 20
2737.748233560851
 30
0.0
 10
1178.652378165365
 20
2737.723784867421
 30
0.0
 10
1178.762215864362
 20
2737.687146939596
 30
0.0
 10
1178.866898068073
 20
2737.641129760951
 30
0.0
 10
1178.965892165291
 20
2737.583082048115
 30
0.0
 10
1179.059818465843
 20
2737.51585088702
 30
0.0
 10
1179.146676367842
 20
2737.438639134886
 30
0.0
 10
1179.226701671942
 20
2737.356166048147
 30
0.0
 10
1179.296322365758
 20
2737.268779333376
 30
0.0
 10
1179.355104255026
 20
2737.177769323711
 30
0.0
 10
1179.403968766171
 20
2737.084370072365
 30
0.0
 10
1179.441023783359
 20
2736.986737949955
 30
0.0
 10
1179.46880111236
 20
2736.88686087365
 30
0.0
 10
1179.48501441596
 20
2736.783003611046
 30
0.0
 10
1179.486978781161
 20
2736.712851495392
 30
0.0
 10
1179.487975605789
 20
2736.677252536229
 30
0.0
  0
SPLINE
  5
F1
330
1F
100
AcDbEntity
  8
0
  6
Continuous
 62
     7
370
    25
100
AcDbSpline
210
0.0
220
0.0
230
1.0
 70
     8
 71
     3
 72
    15
 73
    11
 74
     0
 42
0.000000001
 43
0.00000001
 40
0.0
 40
0.0
 40
0.0
 40
0.0
 40
0.1326594996416438
 40
0.2606826456506458
 40
0.3835988237724083
 40
0.5044542511718451
 40
0.625113979261383
 40
0.746437797080192
 40
0.871434770867575
 40
1.0
 40
1.0
 40
1.0
 40
1.0
 10
1179.487975605789
 20
2736.337303211905
 30
0.0
 10
1179.486603350677
 20
2736.297132345683
 30
0.0
 10
1179.483906799778
 20
2736.218194555979
 30
0.0
 10
1179.46733751037
 20
2736.102933328047
 30
0.0
 10
1179.437800412684
 20
2735.993915103034
 30
0.0
 10
1179.394452455728
 20
2735.892205801453
 30
0.0
 10
1179.34247163384
 20
2735.795045410892
 30
0.0
 10
1179.275287506572
 20
2735.706165982384
 30
0.0
 10
1179.198848816606
 20
2735.621800032523
 30
0.0
 10
1179.139205238029
 20
2735.573269664922
 30
0.0
 10
1179.108963781464
 20
2735.548663009203
 30
0.0
  0
SPLINE
  5
F2
330
1F
100
AcDbEntity
  8
0
  6
Continuous
 62
     7
370
    25
100
AcDbSpline
210
0.0
220
0.0
230
1.0
 70
     8
 71
     3
 72
    15
 73
    11
 74
     0
 42
0.000000001
 43
0.00000001
 40
0.0
 40
0.0
 40
0.0
 40
0.0
 40
0.1163154394521578
 40
0.2345647128656793
 40
0.3584180389837443
 40
0.4893481039549467
 40
0.6213683425081263
 40
0.7487484467134544
 40
0.8742380891698521
 40
1.0
 40
1.0
 40
1.0
 40
1.0
 10
1179.108963781464
 20
2735.548663009203
 30
0.0
 10
1179.149578886681
 20
2735.528211746147
 30
0.0
 10
1179.231484354588
 20
2735.486969201999
 30
0.0
 10
1179.340813883826
 20
2735.398458012479
 30
0.0
 10
1179.441037072504
 20
2735.292450078558
 30
0.0
 10
1179.526382943775
 20
2735.167471157153
 30
0.0
 10
1179.598906777021
 20
2735.033333121478
 30
0.0
 10
1179.652938365022
 20
2734.892784718074
 30
0.0
 10
1179.684261817714
 20
2734.747680144642
 30
0.0
 10
1179.68853793363
 20
2734.649665837081
 30
0.0
 10
1179.690678308491
 20
2734.60060557677
 30
0.0
  0
SPLINE
  5
F3
330
1F
100
AcDbEntity
  8
0
  6
Continuous
 62
     7
370
    25
100
AcDbSpline
210
0.0
220
0.0
230
1.0
 70
     8
 71
     3
 72
    23
 73
    19
 74
     0
 42
0.000000001
 43
0.00000001
 40
0.0
 40
0.0
 40
0.0
 40
0.0
 40
0.0573718688435193
 40
0.1142717744853488
 40
0.17127755145106
 40
0.2292072316113798
 40
0.2887537053420721
 40
0.3497535252114114
 40
0.4136630964478049
 40
0.480403288398936
 40
0.5476011670425219
 40
0.612887525805192
 40
0.6770090262773623
 40
0.7404371873976027
 40
0.8035874726883411
 40
0.8673185838669378
 40
0.9327996288997249
 40
0.9999999999999999
 40
0.9999999999999999
 40
0.9999999999999999
 40
0.9999999999999999
 10
1179.690678308491
 20
2733.89431334704
 30
0.0
 10
1179.689775013049
 20
2733.859398647491
 30
0.0
 10
1179.687975853024
 20
2733.789856470226
 30
0.0
 10
1179.670004318016
 20
2733.686963363772
 30
0.0
 10
1179.642859239434
 20
2733.585915822942
 30
0.0
 10
1179.603281981579
 20
2733.487217947173
 30
0.0
 10
1179.552472159983
 20
2733.391105555584
 30
0.0
 10
1179.490141439388
 20
2733.297712111824
 30
0.0
 10
1179.418704458871
 20
2733.205466258738
 30
0.0
 10
1179.335698326644
 20
2733.118157554525
 30
0.0
 10
1179.246138856648
 20
2733.036461213735
 30
0.0
 10
1179.15094631978
 20
2732.963755629478
 30
0.0
 10
1179.049966184727
 20
2732.903769606144
 30
0.0
 10
1178.945273114508
 20
2732.853487593165
 30
0.0
 10
1178.835688538655
 20
2732.815569239266
 30
0.0
 10
1178.721881887339
 20
2732.788076329134
 30
0.0
 10
1178.603458167088
 20
2732.770498655932
 30
0.0
 10
1178.522736258679
 20
2732.768730726101
 30
0.0
 10
1178.481852294978
 20
2732.7678353065
 30
0.0
  0
CIRCLE
  5
F7
330
1F
100
AcDbEntity
  8
0
  6
Continuous
 62
     7
370
    25
100
AcDbCircle
 10
1152.5765890188
 20
2729.5041730828
 30
0.0
 40
1.5
  0
CIRCLE
  5
F8
330
1F
100
AcDbEntity
  8
0
  6
Continuous
 62
     7
370
    25
100
AcDbCircle
 10
1152.5765890188
 20
2729.5041730828
 30
0.0
 40
0.75
  0
SPLINE
  5
1EB
330
1F
100
AcDbEntity
  8
0
  6
Continuous
 62
     7
370
    25
100
AcDbSpline
210
0.0
220
0.0
230
1.0
 70
     8
 71
     3
 72
     8
 73
     4
 74
     0
 42
0.000000001
 43
0.00000001
 40
0.6028368794326241
 40
0.6028368794326241
 40
0.6028368794326241
 40
0.6028368794326241
 40
0.6063829787234043
 40
0.6063829787234043
 40
0.6063829787234043
 40
0.6063829787234043
 10
1150.981442124221
 20
2716.34774213977
 30
0.0
 10
1150.753477124221
 20
2717.06135513977
 30
0.0
 10
1150.623048124221
 20
2717.87047213977
 30
0.0
 10
1150.364476124221
 20
2718.81332013977
 30
0.0
  0
SPLINE
  5
1EC
330
1F
100
AcDbEntity
  8
0
  6
Continuous
 62
     7
370
    25
100
AcDbSpline
210
0.0
220
0.0
230
1.0
 70
     8
 71
     3
 72
     8
 73
     4
 74
     0
 42
0.000000001
 43
0.00000001
 40
0.6063829787234043
 40
0.6063829787234043
 40
0.6063829787234043
 40
0.6063829787234043
 40
0.6099290780141844
 40
0.6099290780141844
 40
0.6099290780141844
 40
0.6099290780141844
 10
1150.364476124221
 20
2718.81332013977
 30
0.0
 10
1150.038594124221
 20
2719.948192139771
 30
0.0
 10
1149.227826124221
 20
2721.181616139771
 30
0.0
 10
1149.844665124221
 20
2722.38214713977
 30
0.0
  0
SPLINE
  5
1ED
330
1F
100
AcDbEntity
  8
0
  6
Continuous
 62
     7
370
    25
100
AcDbSpline
210
0.0
220
0.0
230
1.0
 70
     8
 71
     3
 72
     8
 73
     4
 74
     0
 42
0.000000001
 43
0.00000001
 40
0.6099290780141844
 40
0.6099290780141844
 40
0.6099290780141844
 40
0.6099290780141844
 40
0.6134751773049646
 40
0.6134751773049646
 40
0.6134751773049646
 40
0.6134751773049646
 10
1149.844665124221
 20
2722.38214713977
 30
0.0
 10
1150.655941124221
 20
2723.90830613977
 30
0.0
 10
1152.958197124221
 20
2725.270254139771
 30
0.0
 10
1152.083548124221
 20
2727.34772013977
 30
0.0
  0
SPLINE
  5
1EE
330
1F
100
AcDbEntity
  8
0
  6
Continuous
 62
     7
370
    25
100
AcDbSpline
210
0.0
220
0.0
230
1.0
 70
     8
 71
     3
 72
     8
 73
     4
 74
     0
 42
0.000000001
 43
0.00000001
 40
0.6134751773049646
 40
0.6134751773049646
 40
0.6134751773049646
 40
0.6134751773049646
 40
0.6170212765957447
 40
0.6170212765957447
 40
0.6170212765957447
 40
0.6170212765957447
 10
1152.083548124221
 20
2727.34772013977
 30
0.0
 10
1151.822817124221
 20
2727.89674113977
 30
0.0
 10
1150.915275124221
 20
2727.86524513977
 30
0.0
 10
1150.526401124221
 20
2728.35140113977
 30
0.0
  0
SPLINE
  5
1EF
330
1F
100
AcDbEntity
  8
0
  6
Continuous
 62
     7
370
    25
100
AcDbSpline
210
0.0
220
0.0
230
1.0
 70
     8
 71
     3
 72
     8
 73
     4
 74
     0
 42
0.000000001
 43
0.00000001
 40
0.6170212765957447
 40
0.6170212765957447
 40
0.6170212765957447
 40
0.6170212765957447
 40
0.6205673758865248
 40
0.6205673758865248
 40
0.6205673758865248
 40
0.6205673758865248
 10
1150.526401124221
 20
2728.35140113977
 30
0.0
 10
1149.423787124221
 20
2729.81228213977
 30
0.0
 10
1152.925812124221
 20
2730.55866113977
 30
0.0
 10
1150.038594124221
 20
2731.95401013977
 30
0.0
  0
SPLINE
  5
1F0
330
1F
100
AcDbEntity
  8
0
  6
Continuous
 62
     7
370
    25
100
AcDbSpline
210
0.0
220
0.0
230
1.0
 70
     8
 71
     3
 72
     8
 73
     4
 74
     0
 42
0.000000001
 43
0.00000001
 40
0.6205673758865248
 40
0.6205673758865248
 40
0.6205673758865248
 40
0.6205673758865248
 40
0.624113475177305
 40
0.624113475177305
 40
0.624113475177305
 40
0.624113475177305
 10
1150.038594124221
 20
2731.95401013977
 30
0.0
 10
1149.292596124221
 20
2732.278622139771
 30
0.0
 10
1148.352796124221
 20
2731.72693413977
 30
0.0
 10
1147.637786124221
 20
2732.117205139771
 30
0.0
  0
SPLINE
  5
1F1
330
1F
100
AcDbEntity
  8
0
  6
Continuous
 62
     7
370
    25
100
AcDbSpline
210
0.0
220
0.0
230
1.0
 70
     8
 71
     3
 72
     8
 73
     4
 74
     0
 42
0.000000001
 43
0.00000001
 40
0.624113475177305
 40
0.624113475177305
 40
0.624113475177305
 40
0.624113475177305
 40
0.6276595744680851
 40
0.6276595744680851
 40
0.6276595744680851
 40
0.6276595744680851
 10
1147.637786124221
 20
2732.117205139771
 30
0.0
 10
1147.345940124221
 20
2732.278622139771
 30
0.0
 10
1148.189601124221
 20
2734.06462313977
 30
0.0
 10
1148.157216124221
 20
2734.51788613977
 30
0.0
  0
SPLINE
  5
1F2
330
1F
100
AcDbEntity
  8
0
  6
Continuous
 62
     7
370
    25
100
AcDbSpline
210
0.0
220
0.0
230
1.0
 70
     8
 71
     3
 72
     8
 73
     4
 74
     0
 42
0.000000001
 43
0.00000001
 40
0.6276595744680851
 40
0.6276595744680851
 40
0.6276595744680851
 40
0.6276595744680851
 40
0.6312056737588653
 40
0.6312056737588653
 40
0.6312056737588653
 40
0.6312056737588653
 10
1148.157216124221
 20
2734.51788613977
 30
0.0
 10
1148.092446124221
 20
2735.10107013977
 30
0.0
 10
1147.734941124221
 20
2735.65148813977
 30
0.0
 10
1147.476369124221
 20
2736.20457313977
 30
0.0
  0
SPLINE
  5
1F3
330
1F
100
AcDbEntity
  8
0
  6
Continuous
 62
     7
370
    25
100
AcDbSpline
210
0.0
220
0.0
230
1.0
 70
     8
 71
     3
 72
     8
 73
     4
 74
     0
 42
0.000000001
 43
0.00000001
 40
0.6312056737588653
 40
0.6312056737588653
 40
0.6312056737588653
 40
0.6312056737588653
 40
0.6347517730496454
 40
0.6347517730496454
 40
0.6347517730496454
 40
0.6347517730496454
 10
1147.476369124221
 20
2736.20457313977
 30
0.0
 10
1147.412107124221
 20
2736.33500213977
 30
0.0
 10
1144.978533124221
 20
2740.64982713977
 30
0.0
 10
1144.750568124221
 20
2739.45018513977
 30
0.0
  0
SPLINE
  5
1F4
330
1F
100
AcDbEntity
  8
0
  6
Continuous
 62
     7
370
    25
100
AcDbSpline
210
0.0
220
0.0
230
1.0
 70
     8
 71
     3
 72
     8
 73
     4
 74
     0
 42
0.000000001
 43
0.00000001
 40
0.6347517730496454
 40
0.6347517730496454
 40
0.6347517730496454
 40
0.6347517730496454
 40
0.6382978723404256
 40
0.6382978723404256
 40
0.6382978723404256
 40
0.6382978723404256
 10
1144.750568124221
 20
2739.45018513977
 30
0.0
 10
1144.263650124221
 20
2737.14564313977
 30
0.0
 10
1148.059172124221
 20
2735.719306139771
 30
0.0
 10
1147.281678124221
 20
2733.64145913977
 30
0.0
  0
SPLINE
  5
1F5
330
1F
100
AcDbEntity
  8
0
  6
Continuous
 62
     7
370
    25
100
AcDbSpline
210
0.0
220
0.0
230
1.0
 70
     8
 71
     3
 72
     8
 73
     4
 74
     0
 42
0.000000001
 43
0.00000001
 40
0.6382978723404256
 40
0.6382978723404256
 40
0.6382978723404256
 40
0.6382978723404256
 40
0.6418439716312057
 40
0.6418439716312057
 40
0.6418439716312057
 40
0.6418439716312057
 10
1147.281678124221
 20
2733.64145913977
 30
0.0
 10
1147.055491124221
 20
2733.02462013977
 30
0.0
 10
1145.949448124221
 20
2732.96112013977
 30
0.0
 10
1145.755519124221
 20
2732.278622139771
 30
0.0
  0
SPLINE
  5
1F6
330
1F
100
AcDbEntity
  8
0
  6
Continuous
 62
     7
370
    25
100
AcDbSpline
210
0.0
220
0.0
230
1.0
 70
     8
 71
     3
 72
     8
 73
     4
 74
     0
 42
0.000000001
 43
0.00000001
 40
0.6418439716312057
 40
0.6418439716312057
 40
0.6418439716312057
 40
0.6418439716312057
 40
0.6453900709219859
 40
0.6453900709219859
 40
0.6453900709219859
 40
0.6453900709219859
 10
1145.755519124221
 20
2732.278622139771
 30
0.0
 10
1145.236216124221
 20
2730.298819139771
 30
0.0
 10
1149.064631124221
 20
2731.663434139771
 30
0.0
 10
1149.683248124221
 20
2731.07758313977
 30
0.0
  0
SPLINE
  5
1F7
330
1F
100
AcDbEntity
  8
0
  6
Continuous
 62
     7
370
    25
100
AcDbSpline
210
0.0
220
0.0
230
1.0
 70
     8
 71
     3
 72
     8
 73
     4
 74
     0
 42
0.000000001
 43
0.00000001
 40
0.6453900709219859
 40
0.6453900709219859
 40
0.6453900709219859
 40
0.6453900709219859
 40
0.648936170212766
 40
0.648936170212766
 40
0.648936170212766
 40
0.648936170212766
 10
1149.683248124221
 20
2731.07758313977
 30
0.0
 10
1150.202170124221
 20
2730.624320139771
 30
0.0
 10
1148.643245124221
 20
2730.07174313977
 30
0.0
 10
1148.482717124221
 20
2729.39178513977
 30
0.0
  0
SPLINE
  5
1F8
330
1F
100
AcDbEntity
  8
0
  6
Continuous
 62
     7
370
    25
100
AcDbSpline
210
0.0
220
0.0
230
1.0
 70
     8
 71
     3
 72
     8
 73
     4
 74
     0
 42
0.000000001
 43
0.00000001
 40
0.648936170212766
 40
0.648936170212766
 40
0.648936170212766
 40
0.648936170212766
 40
0.6524822695035462
 40
0.6524822695035462
 40
0.6524822695035462
 40
0.6524822695035462
 10
1148.482717124221
 20
2729.39178513977
 30
0.0
 10
1147.832096124221
 20
2726.697988139771
 30
0.0
 10
1150.753477124221
 20
2727.930904139771
 30
0.0
 10
1150.882509124221
 20
2727.15214013977
 30
0.0
  0
SPLINE
  5
1F9
330
1F
100
AcDbEntity
  8
0
  6
Continuous
 62
     7
370
    25
100
AcDbSpline
210
0.0
220
0.0
230
1.0
 70
     8
 71
     3
 72
     8
 73
     4
 74
     0
 42
0.000000001
 43
0.00000001
 40
0.6524822695035462
 40
0.6524822695035462
 40
0.6524822695035462
 40
0.6524822695035462
 40
0.6560283687943262
 40
0.6560283687943262
 40
0.6560283687943262
 40
0.6560283687943262
 10
1150.882509124221
 20
2727.15214013977
 30
0.0
 10
1151.045323124221
 20
2726.07975213977
 30
0.0
 10
1150.007987124221
 20
2725.10883713977
 30
0.0
 10
1149.357747124221
 20
2724.263525139771
 30
0.0
  0
SPLINE
  5
1FA
330
1F
100
AcDbEntity
  8
0
  6
Continuous
 62
     7
370
    25
100
AcDbSpline
210
0.0
220
0.0
230
1.0
 70
     8
 71
     3
 72
     8
 73
     4
 74
     0
 42
0.000000001
 43
0.00000001
 40
0.6560283687943262
 40
0.6560283687943262
 40
0.6560283687943262
 40
0.6560283687943262
 40
0.6595744680851063
 40
0.6595744680851063
 40
0.6595744680851063
 40
0.6595744680851063
 10
1149.357747124221
 20
2724.263525139771
 30
0.0
 10
1148.902706124221
 20
2723.71361513977
 30
0.0
 10
1148.092446124221
 20
2723.583186139771
 30
0.0
 10
1147.637786124221
 20
2723.06248613977
 30
0.0
  0
SPLINE
  5
1FB
330
1F
100
AcDbEntity
  8
0
  6
Continuous
 62
     7
370
    25
100
AcDbSpline
210
0.0
220
0.0
230
1.0
 70
     8
 71
     3
 72
     8
 73
     4
 74
     0
 42
0.000000001
 43
0.00000001
 40
0.6595744680851063
 40
0.6595744680851063
 40
0.6595744680851063
 40
0.6595744680851063
 40
0.6631205673758865
 40
0.6631205673758865
 40
0.6631205673758865
 40
0.6631205673758865
 10
1147.637786124221
 20
2723.06248613977
 30
0.0
 10
1146.892677124221
 20
2722.22034913977
 30
0.0
 10
1146.988054124221
 20
2720.40450313977
 30
0.0
 10
1147.476369124221
 20
2719.49531013977
 30
0.0
  0
SPLINE
  5
1FC
330
1F
100
AcDbEntity
  8
0
  6
Continuous
 62
     7
370
    25
100
AcDbSpline
210
0.0
220
0.0
230
1.0
 70
     8
 71
     3
 72
     8
 73
     4
 74
     0
 42
0.000000001
 43
0.00000001
 40
0.6631205673758865
 40
0.6631205673758865
 40
0.6631205673758865
 40
0.6631205673758865
 40
0.6666666666666666
 40
0.6666666666666666
 40
0.6666666666666666
 40
0.6666666666666666
 10
1147.476369124221
 20
2719.49531013977
 30
0.0
 10
1147.734941124221
 20
2718.97562613977
 30
0.0
 10
1148.611368124221
 20
2718.97562613977
 30
0.0
 10
1148.839333124221
 20
2718.45530713977
 30
0.0
  0
SPLINE
  5
1FD
330
1F
100
AcDbEntity
  8
0
  6
Continuous
 62
     7
370
    25
100
AcDbSpline
210
0.0
220
0.0
230
1.0
 70
     8
 71
     3
 72
     8
 73
     4
 74
     0
 42
0.000000001
 43
0.00000001
 40
0.6666666666666666
 40
0.6666666666666666
 40
0.6666666666666666
 40
0.6666666666666666
 40
0.6702127659574468
 40
0.6702127659574468
 40
0.6702127659574468
 40
0.6702127659574468
 10
1148.839333124221
 20
2718.45530713977
 30
0.0
 10
1148.968365124221
 20
2718.162699139771
 30
0.0
 10
1148.384292124221
 20
2717.93600413977
 30
0.0
 10
1148.319522124221
 20
2717.61317013977
 30
0.0
  0
SPLINE
  5
1FE
330
1F
100
AcDbEntity
  8
0
  6
Continuous
 62
     7
370
    25
100
AcDbSpline
210
0.0
220
0.0
230
1.0
 70
     8
 71
     3
 72
     8
 73
     4
 74
     0
 42
0.000000001
 43
0.00000001
 40
0.6702127659574468
 40
0.6702127659574468
 40
0.6702127659574468
 40
0.6702127659574468
 40
0.6737588652482269
 40
0.6737588652482269
 40
0.6737588652482269
 40
0.6737588652482269
 10
1148.319522124221
 20
2717.61317013977
 30
0.0
 10
1148.092446124221
 20
2716.510175139771
 30
0.0
 10
1148.676519124221
 20
2714.886861139771
 30
0.0
 10
1147.476369124221
 20
2714.01056113977
 30
0.0
  0
SPLINE
  5
1FF
330
1F
100
AcDbEntity
  8
0
  6
Continuous
 62
     7
370
    25
100
AcDbSpline
210
0.0
220
0.0
230
1.0
 70
     8
 71
     3
 72
     8
 73
     4
 74
     0
 42
0.000000001
 43
0.00000001
 40
0.6737588652482269
 40
0.6737588652482269
 40
0.6737588652482269
 40
0.6737588652482269
 40
0.6773049645390071
 40
0.6773049645390071
 40
0.6773049645390071
 40
0.6773049645390071
 10
1147.476369124221
 20
2714.01056113977
 30
0.0
 10
1146.631565124221
 20
2713.42686913977
 30
0.0
 10
1143.484886124221
 20
2713.62117913977
 30
0.0
 10
1142.511304124221
 20
2713.84825513977
 30
0.0
  0
SPLINE
  5
200
330
1F
100
AcDbEntity
  8
0
  6
Continuous
 62
     7
370
    25
100
AcDbSpline
210
0.0
220
0.0
230
1.0
 70
     8
 71
     3
 72
     8
 73
     4
 74
     0
 42
0.000000001
 43
0.00000001
 40
0.6773049645390071
 40
0.6773049645390071
 40
0.6773049645390071
 40
0.6773049645390071
 40
0.6808510638297872
 40
0.6808510638297872
 40
0.6808510638297872
 40
0.6808510638297872
 10
1142.511304124221
 20
2713.84825513977
 30
0.0
 10
1141.960124124221
 20
2713.97817613977
 30
0.0
 10
1141.570615124221
 20
2714.59463413977
 30
0.0
 10
1140.986034124221
 20
2714.69305913977
 30
0.0
  0
SPLINE
  5
201
330
1F
100
AcDbEntity
  8
0
  6
Continuous
 62
     7
370
    25
100
AcDbSpline
210
0.0
220
0.0
230
1.0
 70
     8
 71
     3
 72
     8
 73
     4
 74
     0
 42
0.000000001
 43
0.00000001
 40
0.6808510638297872
 40
0.6808510638297872
 40
0.6808510638297872
 40
0.6808510638297872
 40
0.6843971631205674
 40
0.6843971631205674
 40
0.6843971631205674
 40
0.6843971631205674
 10
1140.986034124221
 20
2714.69305913977
 30
0.0
 10
1140.143008124221
 20
2714.886861139771
 30
0.0
 10
1139.200541124221
 20
2715.01729013977
 30
0.0
 10
1138.423047124221
 20
2714.69305913977
 30
0.0
  0
SPLINE
  5
202
330
1F
100
AcDbEntity
  8
0
  6
Continuous
 62
     7
370
    25
100
AcDbSpline
210
0.0
220
0.0
230
1.0
 70
     8
 71
     3
 72
     8
 73
     4
 74
     0
 42
0.000000001
 43
0.00000001
 40
0.6843971631205674
 40
0.6843971631205674
 40
0.6843971631205674
 40
0.6843971631205674
 40
0.6879432624113475
 40
0.6879432624113475
 40
0.6879432624113475
 40
0.6879432624113475
 10
1138.423047124221
 20
2714.69305913977
 30
0.0
 10
1137.579513124221
 20
2714.368447139771
 30
0.0
 10
1137.287286124221
 20
2713.069872139771
 30
0.0
 10
1136.378982124221
 20
2712.84368513977
 30
0.0
  0
SPLINE
  5
203
330
1F
100
AcDbEntity
  8
0
  6
Continuous
 62
     7
370
    25
100
AcDbSpline
210
0.0
220
0.0
230
1.0
 70
     8
 71
     3
 72
     8
 73
     4
 74
     0
 42
0.000000001
 43
0.00000001
 40
0.6879432624113475
 40
0.6879432624113475
 40
0.6879432624113475
 40
0.6879432624113475
 40
0.6914893617021277
 40
0.6914893617021277
 40
0.6914893617021277
 40
0.6914893617021277
 10
1136.378982124221
 20
2712.84368513977
 30
0.0
 10
1135.243094124221
 20
2712.55133113977
 30
0.0
 10
1133.880638124221
 20
2712.64848613977
 30
0.0
 10
1132.972334124221
 20
2713.328952139771
 30
0.0
  0
SPLINE
  5
204
330
1F
100
AcDbEntity
  8
0
  6
Continuous
 62
     7
370
    25
100
AcDbSpline
210
0.0
220
0.0
230
1.0
 70
     8
 71
     3
 72
     8
 73
     4
 74
     0
 42
0.000000001
 43
0.00000001
 40
0.6914893617021277
 40
0.6914893617021277
 40
0.6914893617021277
 40
0.6914893617021277
 40
0.6950354609929078
 40
0.6950354609929078
 40
0.6950354609929078
 40
0.6950354609929078
 10
1132.972334124221
 20
2713.328952139771
 30
0.0
 10
1132.518182124221
 20
2713.68683813977
 30
0.0
 10
1133.945027124221
 20
2713.94668013977
 30
0.0
 10
1134.335679124221
 20
2714.368447139771
 30
0.0
  0
SPLINE
  5
205
330
1F
100
AcDbEntity
  8
0
  6
Continuous
 62
     7
370
    25
100
AcDbSpline
210
0.0
220
0.0
230
1.0
 70
     8
 71
     3
 72
     8
 73
     4
 74
     0
 42
0.000000001
 43
0.00000001
 40
0.6950354609929078
 40
0.6950354609929078
 40
0.6950354609929078
 40
0.6950354609929078
 40
0.6985815602836879
 40
0.6985815602836879
 40
0.6985815602836879
 40
0.6985815602836879
 10
1134.335679124221
 20
2714.368447139771
 30
0.0
 10
1134.821327124221
 20
2714.886861139771
 30
0.0
 10
1135.924322124221
 20
2716.41162313977
 30
0.0
 10
1136.215787124221
 20
2717.09462913977
 30
0.0
  0
SPLINE
  5
206
330
1F
100
AcDbEntity
  8
0
  6
Continuous
 62
     7
370
    25
100
AcDbSpline
210
0.0
220
0.0
230
1.0
 70
     8
 71
     3
 72
     8
 73
     4
 74
     0
 42
0.000000001
 43
0.00000001
 40
0.6985815602836879
 40
0.6985815602836879
 40
0.6985815602836879
 40
0.6985815602836879
 40
0.7021276595744681
 40
0.7021276595744681
 40
0.7021276595744681
 40
0.7021276595744681
 10
1136.215787124221
 20
2717.09462913977
 30
0.0
 10
1136.443752124221
 20
2717.74309113977
 30
0.0
 10
1136.411367124221
 20
2718.52096613977
 30
0.0
 10
1136.702705124221
 20
2719.13793213977
 30
0.0
  0
SPLINE
  5
207
330
1F
100
AcDbEntity
  8
0
  6
Continuous
 62
     7
370
    25
100
AcDbSpline
210
0.0
220
0.0
230
1.0
 70
     8
 71
     3
 72
     8
 73
     4
 74
     0
 42
0.000000001
 43
0.00000001
 40
0.7021276595744681
 40
0.7021276595744681
 40
0.7021276595744681
 40
0.7021276595744681
 40
0.7056737588652482
 40
0.7056737588652482
 40
0.7056737588652482
 40
0.7056737588652482
 10
1136.702705124221
 20
2719.13793213977
 30
0.0
 10
1137.124472124221
 20
2720.013470139771
 30
0.0
 10
1138.001280124221
 20
2720.63081713977
 30
0.0
 10
1138.260360124221
 20
2721.53823213977
 30
0.0
  0
SPLINE
  5
208
330
1F
100
AcDbEntity
  8
0
  6
Continuous
 62
     7
370
    25
100
AcDbSpline
210
0.0
220
0.0
230
1.0
 70
     8
 71
     3
 72
     8
 73
     4
 74
     0
 42
0.000000001
 43
0.00000001
 40
0.7056737588652482
 40
0.7056737588652482
 40
0.7056737588652482
 40
0.7056737588652482
 40
0.7092198581560284
 40
0.7092198581560284
 40
0.7092198581560284
 40
0.7092198581560284
 10
1138.260360124221
 20
2721.53823213977
 30
0.0
 10
1138.391551124221
 20
2722.05753513977
 30
0.0
 10
1138.260360124221
 20
2723.22530013977
 30
0.0
 10
1137.740930124221
 20
2723.06248613977
 30
0.0
  0
SPLINE
  5
209
330
1F
100
AcDbEntity
  8
0
  6
Continuous
 62
     7
370
    25
100
AcDbSpline
210
0.0
220
0.0
230
1.0
 70
     8
 71
     3
 72
     8
 73
     4
 74
     0
 42
0.000000001
 43
0.00000001
 40
0.7092198581560284
 40
0.7092198581560284
 40
0.7092198581560284
 40
0.7092198581560284
 40
0.7127659574468085
 40
0.7127659574468085
 40
0.7127659574468085
 40
0.7127659574468085
 10
1137.740930124221
 20
2723.06248613977
 30
0.0
 10
1137.028206124221
 20
2722.83591813977
 30
0.0
 10
1137.222516124221
 20
2721.604653139771
 30
0.0
 10
1136.702705124221
 20
2721.020199139771
 30
0.0
  0
SPLINE
  5
20A
330
1F
100
AcDbEntity
  8
0
  6
Continuous
 62
     7
370
    25
100
AcDbSpline
210
0.0
220
0.0
230
1.0
 70
     8
 71
     3
 72
     8
 73
     4
 74
     0
 42
0.000000001
 43
0.00000001
 40
0.7127659574468085
 40
0.7127659574468085
 40
0.7127659574468085
 40
0.7127659574468085
 40
0.7163120567375887
 40
0.7163120567375887
 40
0.7163120567375887
 40
0.7163120567375887
 10
1136.702705124221
 20
2721.020199139771
 30
0.0
 10
1136.443752124221
 20
2720.69596813977
 30
0.0
 10
1135.794782124221
 20
2720.85776613977
 30
0.0
 10
1135.535448124221
 20
2720.50127713977
 30
0.0
  0
SPLINE
  5
20B
330
1F
100
AcDbEntity
  8
0
  6
Continuous
 62
     7
370
    25
100
AcDbSpline
210
0.0
220
0.0
230
1.0
 70
     8
 71
     3
 72
     8
 73
     4
 74
     0
 42
0.000000001
 43
0.00000001
 40
0.7163120567375887
 40
0.7163120567375887
 40
0.7163120567375887
 40
0.7163120567375887
 40
0.7198581560283688
 40
0.7198581560283688
 40
0.7198581560283688
 40
0.7198581560283688
 10
1135.535448124221
 20
2720.50127713977
 30
0.0
 10
1135.145558124221
 20
2720.04623613977
 30
0.0
 10
1135.569103124221
 20
2719.00712213977
 30
0.0
 10
1135.015637124221
 20
2718.81332013977
 30
0.0
  0
SPLINE
  5
20C
330
1F
100
AcDbEntity
  8
0
  6
Continuous
 62
     7
370
    25
100
AcDbSpline
210
0.0
220
0.0
230
1.0
 70
     8
 71
     3
 72
     8
 73
     4
 74
     0
 42
0.000000001
 43
0.00000001
 40
0.7198581560283688
 40
0.7198581560283688
 40
0.7198581560283688
 40
0.7198581560283688
 40
0.723404255319149
 40
0.723404255319149
 40
0.723404255319149
 40
0.723404255319149
 10
1135.015637124221
 20
2718.81332013977
 30
0.0
 10
1134.270909124221
 20
2718.55297013977
 30
0.0
 10
1133.589681124221
 20
2721.66815313977
 30
0.0
 10
1132.615337124221
 20
2721.53823213977
 30
0.0
  0
SPLINE
  5
20D
330
1F
100
AcDbEntity
  8
0
  6
Continuous
 62
     7
370
    25
100
AcDbSpline
210
0.0
220
0.0
230
1.0
 70
     8
 71
     3
 72
     8
 73
     4
 74
     0
 42
0.000000001
 43
0.00000001
 40
0.723404255319149
 40
0.723404255319149
 40
0.723404255319149
 40
0.723404255319149
 40
0.7269503546099291
 40
0.7269503546099291
 40
0.7269503546099291
 40
0.7269503546099291
 10
1132.615337124221
 20
2721.53823213977
 30
0.0
 10
1132.064030124221
 20
2721.44145813977
 30
0.0
 10
1132.550567124221
 20
2720.33897113977
 30
0.0
 10
1132.777643124221
 20
2719.81827113977
 30
0.0
  0
SPLINE
  5
20E
330
1F
100
AcDbEntity
  8
0
  6
Continuous
 62
     7
370
    25
100
AcDbSpline
210
0.0
220
0.0
230
1.0
 70
     8
 71
     3
 72
     8
 73
     4
 74
     0
 42
0.000000001
 43
0.00000001
 40
0.7269503546099291
 40
0.7269503546099291
 40
0.7269503546099291
 40
0.7269503546099291
 40
0.7304964539007093
 40
0.7304964539007093
 40
0.7304964539007093
 40
0.7304964539007093
 10
1132.777643124221
 20
2719.81827113977
 30
0.0
 10
1133.522371124221
 20
2718.22962813977
 30
0.0
 10
1135.762905124221
 20
2718.65101413977
 30
0.0
 10
1134.335679124221
 20
2716.41162313977
 30
0.0
  0
SPLINE
  5
20F
330
1F
100
AcDbEntity
  8
0
  6
Continuous
 62
     7
370
    25
100
AcDbSpline
210
0.0
220
0.0
230
1.0
 70
     8
 71
     3
 72
     8
 73
     4
 74
     0
 42
0.000000001
 43
0.00000001
 40
0.7304964539007093
 40
0.7304964539007093
 40
0.7304964539007093
 40
0.7304964539007093
 40
0.7340425531914894
 40
0.7340425531914894
 40
0.7340425531914894
 40
0.7340425531914894
 10
1134.335679124221
 20
2716.41162313977
 30
0.0
 10
1133.749447124221
 20
2715.53570413977
 30
0.0
 10
1132.810028124221
 20
2715.34063213977
 30
0.0
 10
1132.290217124221
 20
2714.69305913977
 30
0.0
  0
SPLINE
  5
210
330
1F
100
AcDbEntity
  8
0
  6
Continuous
 62
     7
370
    25
100
AcDbSpline
210
0.0
220
0.0
230
1.0
 70
     8
 71
     3
 72
     8
 73
     4
 74
     0
 42
0.000000001
 43
0.00000001
 40
0.7340425531914894
 40
0.7340425531914894
 40
0.7340425531914894
 40
0.7340425531914894
 40
0.7375886524822695
 40
0.7375886524822695
 40
0.7375886524822695
 40
0.7375886524822695
 10
1132.290217124221
 20
2714.69305913977
 30
0.0
 10
1131.997482124221
 20
2714.368447139771
 30
0.0
 10
1132.096034124221
 20
2713.78386613977
 30
0.0
 10
1131.771422124221
 20
2713.525294139771
 30
0.0
  0
SPLINE
  5
211
330
1F
100
AcDbEntity
  8
0
  6
Continuous
 62
     7
370
    25
100
AcDbSpline
210
0.0
220
0.0
230
1.0
 70
     8
 71
     3
 72
     8
 73
     4
 74
     0
 42
0.000000001
 43
0.00000001
 40
0.7375886524822695
 40
0.7375886524822695
 40
0.7375886524822695
 40
0.7375886524822695
 40
0.7411347517730497
 40
0.7411347517730497
 40
0.7411347517730497
 40
0.7411347517730497
 10
1131.771422124221
 20
2713.525294139771
 30
0.0
 10
1129.368836124221
 20
2711.44973313977
 30
0.0
 10
1127.067977124221
 20
2713.23217813977
 30
0.0
 10
1124.633514124221
 20
2713.328952139771
 30
0.0
  0
SPLINE
  5
215
330
1F
100
AcDbEntity
  8
0
  6
Continuous
 62
     7
370
    25
100
AcDbSpline
210
0.0
220
0.0
230
1.0
 70
     8
 71
     3
 72
     8
 73
     4
 74
     0
 42
0.000000001
 43
0.00000001
 40
0.6153846153846154
 40
0.6153846153846154
 40
0.6153846153846154
 40
0.6153846153846154
 40
0.6923076923076923
 40
0.6923076923076923
 40
0.6923076923076923
 40
0.6923076923076923
 10
1157.734667124221
 20
2723.48272913977
 30
0.0
 10
1157.767941124221
 20
2723.51333613977
 30
0.0
 10
1157.767941124221
 20
2723.58026513977
 30
0.0
 10
1157.767941124221
 20
2723.64325713977
 30
0.0
  0
SPLINE
  5
217
330
1F
100
AcDbEntity
  8
0
  6
Continuous
 62
     7
370
    25
100
AcDbSpline
210
0.0
220
0.0
230
1.0
 70
     8
 71
     3
 72
     8
 73
     4
 74
     0
 42
0.000000001
 43
0.00000001
 40
0.8461538461538461
 40
0.8461538461538461
 40
0.8461538461538461
 40
0.8461538461538461
 40
1.0
 40
1.0
 40
1.0
 40
1.0
 10
1157.767941124221
 20
2723.87249213977
 30
0.0
 10
1157.767941124221
 20
2724.13030213977
 30
0.0
 10
1157.734667124221
 20
2724.390144139771
 30
0.0
 10
1157.701393124221
 20
2724.618109139771
 30
0.0
  0
LINE
  5
218
330
1F
100
AcDbEntity
  8
0
  6
Continuous
 62
     7
370
    25
100
AcDbLine
 10
1161.6290229031
 20
2733.0011545633
 30
0.0
 11
1160.517325268
 21
2735.4325312524
 31
0.0
  0
LINE
  5
219
330
1F
100
AcDbEntity
  8
0
  6
Continuous
 62
     7
370
    25
100
AcDbLine
 10
1160.517325268
 20
2735.4325312524
 30
0.0
 11
1160.0622999301
 21
2734.7104028741
 31
0.0
  0
LINE
  5
21A
330
1F
100
AcDbEntity
  8
0
  6
Continuous
 62
     7
370
    25
100
AcDbLine
 10
1160.0622999301
 20
2734.7104028741
 30
0.0
 11
1160.0622999301
 21
2733.0117119957
 31
0.0
  0
LINE
  5
21B
330
1F
100
AcDbEntity
  8
0
  6
Continuous
 62
     7
370
    25
100
AcDbLine
 10
1159.454191822
 20
2733.0096005092
 30
0.0
 11
1159.454191822
 21
2737.5260701038
 31
0.0
  0
LINE
  5
21C
330
1F
100
AcDbEntity
  8
0
  6
Continuous
 62
     7
370
    25
100
AcDbLine
 10
1160.0622999301
 20
2737.5292373335
 30
0.0
 11
1160.0622999301
 21
2735.3712981443
 31
0.0
  0
LINE
  5
21D
330
1F
100
AcDbEntity
  8
0
  6
Continuous
 62
     7
370
    25
100
AcDbLine
 10
1160.0622999301
 20
2735.3712981443
 30
0.0
 11
1161.6575279707
 21
2737.7329957795
 31
0.0
  0
LINE
  5
21E
330
1F
100
AcDbEntity
  8
0
  6
Continuous
 62
     7
370
    25
100
AcDbLine
 10
1162.1209992544
 20
2737.4680042254
 30
0.0
 11
1160.8836681734
 21
2735.8147103065
 31
0.0
  0
LINE
  5
21F
330
1F
100
AcDbEntity
  8
0
  6
Continuous
 62
     7
370
    25
100
AcDbLine
 10
1160.8836681734
 20
2735.8147103065
 30
0.0
 11
1162.1336681734
 21
2733.1120076038
 31
0.0
  0
LINE
  5
220
330
1F
100
AcDbEntity
  8
0
  6
Continuous
 62
     7
370
    25
100
AcDbLine
 10
1164.5399181734
 20
2737.227294766
 30
0.0
 11
1164.2031360788
 21
2737.227294766
 31
0.0
  0
LINE
  5
221
330
1F
100
AcDbEntity
  8
0
  6
Continuous
 62
     7
370
    25
100
AcDbLine
 10
1163.6636512815
 20
2736.6191866579
 30
0.0
 11
1163.6636512815
 21
2733.9164839551
 31
0.0
  0
LINE
  5
222
330
1F
100
AcDbEntity
  8
0
  6
Continuous
 62
     7
370
    25
100
AcDbLine
 10
1164.2031360788
 20
2733.308375847
 30
0.0
 11
1164.5399181734
 21
2733.308375847
 31
0.0
  0
LINE
  5
223
330
1F
100
AcDbEntity
  8
0
  6
Continuous
 62
     7
370
    25
100
AcDbLine
 10
1165.150137768
 20
2733.9164839551
 30
0.0
 11
1165.150137768
 21
2736.6191866579
 31
0.0
  0
LINE
  5
224
330
1F
100
AcDbEntity
  8
0
  6
Continuous
 62
     7
370
    25
100
AcDbLine
 10
1164.5494198625
 20
2732.7678353065
 30
0.0
 11
1164.1925786463
 21
2732.7678353065
 31
0.0
  0
LINE
  5
225
330
1F
100
AcDbEntity
  8
0
  6
Continuous
 62
     7
370
    25
100
AcDbLine
 10
1163.0555431734
 20
2733.8774214551
 30
0.0
 11
1163.0555431734
 21
2736.6582491579
 31
0.0
  0
LINE
  5
226
330
1F
100
AcDbEntity
  8
0
  6
Continuous
 62
     7
370
    25
100
AcDbLine
 10
1164.1925786463
 20
2737.7678353065
 30
0.0
 11
1164.5494198625
 21
2737.7678353065
 31
0.0
  0
LINE
  5
227
330
1F
100
AcDbEntity
  8
0
  6
Continuous
 62
     7
370
    25
100
AcDbLine
 10
1165.7582458761
 20
2736.6582491579
 30
0.0
 11
1165.7582458761
 21
2733.8774214551
 31
0.0
  0
LINE
  5
228
330
1F
100
AcDbEntity
  8
0
  6
Continuous
 62
     7
370
    25
100
AcDbLine
 10
1169.0893269571
 20
2733.0064332795
 30
0.0
 11
1169.0893269571
 21
2737.227294766
 31
0.0
  0
LINE
  5
229
330
1F
100
AcDbEntity
  8
0
  6
Continuous
 62
     7
370
    25
100
AcDbLine
 10
1169.0893269571
 20
2737.227294766
 30
0.0
 11
1168.5297830382
 21
2737.227294766
 31
0.0
  0
LINE
  5
22A
330
1F
100
AcDbEntity
  8
0
  6
Continuous
 62
     7
370
    25
100
AcDbLine
 10
1168.5297830382
 20
2737.227294766
 30
0.0
 11
1167.1805431734
 21
2732.9378099687
 31
0.0
  0
LINE
  5
22B
330
1F
100
AcDbEntity
  8
0
  6
Continuous
 62
     7
370
    25
100
AcDbLine
 10
1166.6505600652
 20
2733.0835025362
 30
0.0
 11
1168.0525870923
 21
2737.5978606443
 31
0.0
  0
LINE
  5
22C
330
1F
100
AcDbEntity
  8
0
  6
Continuous
 62
     7
370
    25
100
AcDbLine
 10
1168.285906349
 20
2737.7678353065
 30
0.0
 11
1169.3595972274
 21
2737.7678353065
 31
0.0
  0
LINE
  5
22D
330
1F
100
AcDbEntity
  8
0
  6
Continuous
 62
     7
370
    25
100
AcDbLine
 10
1169.6974350652
 20
2737.5260701038
 30
0.0
 11
1169.6974350652
 21
2733.0096005092
 31
0.0
  0
LINE
  5
22E
330
1F
100
AcDbEntity
  8
0
  6
Continuous
 62
     7
370
    25
100
AcDbLine
 10
1172.1670296598
 20
2736.8292795633
 30
0.0
 11
1171.6507712139
 21
2734.6597271984
 31
0.0
  0
LINE
  5
22F
330
1F
100
AcDbEntity
  8
0
  6
Continuous
 62
     7
370
    25
100
AcDbLine
 10
1171.6507712139
 20
2734.6597271984
 30
0.0
 11
1172.6864553355
 21
2734.6597271984
 31
0.0
  0
LINE
  5
230
330
1F
100
AcDbEntity
  8
0
  6
Continuous
 62
     7
370
    25
100
AcDbLine
 10
1172.6864553355
 20
2734.6597271984
 30
0.0
 11
1172.1670296598
 21
2736.8292795633
 31
0.0
  0
LINE
  5
231
330
1F
100
AcDbEntity
  8
0
  6
Continuous
 62
     7
370
    25
100
AcDbLine
 10
1171.5367509436
 20
2734.1191866579
 30
0.0
 11
1171.2073590517
 21
2732.9409771984
 31
0.0
  0
LINE
  5
232
330
1F
100
AcDbEntity
  8
0
  6
Continuous
 62
     7
370
    25
100
AcDbLine
 10
1170.6773759436
 20
2733.0718893606
 30
0.0
 11
1171.9020381058
 21
2737.5609096308
 31
0.0
  0
LINE
  5
233
330
1F
100
AcDbEntity
  8
0
  6
Continuous
 62
     7
370
    25
100
AcDbLine
 10
1172.4320212139
 20
2737.5609096308
 30
0.0
 11
1173.6556276328
 21
2733.0718893606
 31
0.0
  0
LINE
  5
234
330
1F
100
AcDbEntity
  8
0
  6
Continuous
 62
     7
370
    25
100
AcDbLine
 10
1173.1256445247
 20
2732.9409771984
 30
0.0
 11
1172.7962526328
 21
2734.1191866579
 31
0.0
  0
LINE
  5
235
330
1F
100
AcDbEntity
  8
0
  6
Continuous
 62
     7
370
    25
100
AcDbLine
 10
1172.7962526328
 20
2734.1191866579
 30
0.0
 11
1171.5367509436
 21
2734.1191866579
 31
0.0
  0
LINE
  5
236
330
1F
100
AcDbEntity
  8
0
  6
Continuous
 62
     7
370
    25
100
AcDbLine
 10
1154.2785161463
 20
2736.8725650362
 30
0.0
 11
1153.4223083761
 21
2735.1675396984
 31
0.0
  0
LINE
  5
237
330
1F
100
AcDbEntity
  8
0
  6
Continuous
 62
     7
370
    25
100
AcDbLine
 10
1152.9493354031
 20
2735.2467204416
 30
0.0
 11
1152.1163539842
 21
2736.8725650362
 31
0.0
  0
LINE
  5
238
330
1F
100
AcDbEntity
  8
0
  6
Continuous
 62
     7
370
    25
100
AcDbLine
 10
1152.1163539842
 20
2736.8725650362
 30
0.0
 11
1152.1163539842
 21
2733.0106562524
 31
0.0
  0
LINE
  5
239
330
1F
100
AcDbEntity
  8
0
  6
Continuous
 62
     7
370
    25
100
AcDbLine
 10
1151.5082458761
 20
2733.0106562524
 30
0.0
 11
1151.5082458761
 21
2737.5640768606
 31
0.0
  0
LINE
  5
23A
330
1F
100
AcDbEntity
  8
0
  6
Continuous
 62
     7
370
    25
100
AcDbLine
 10
1152.1121310112
 20
2737.6633167254
 30
0.0
 11
1153.1900448625
 21
2735.6880211173
 31
0.0
  0
LINE
  5
23B
330
1F
100
AcDbEntity
  8
0
  6
Continuous
 62
     7
370
    25
100
AcDbLine
 10
1153.1900448625
 20
2735.6880211173
 30
0.0
 11
1154.2880178355
 21
2737.691821793
 31
0.0
  0
LINE
  5
23C
330
1F
100
AcDbEntity
  8
0
  6
Continuous
 62
     7
370
    25
100
AcDbLine
 10
1154.8866242544
 20
2737.5640768606
 30
0.0
 11
1154.8866242544
 21
2733.0106562524
 31
0.0
  0
LINE
  5
23D
330
1F
100
AcDbEntity
  8
0
  6
Continuous
 62
     7
370
    25
100
AcDbLine
 10
1154.2785161463
 20
2733.0106562524
 30
0.0
 11
1154.2785161463
 21
2736.8725650362
 31
0.0
  0
LINE
  5
23E
330
1F
100
AcDbEntity
  8
0
  6
Continuous
 62
     7
370
    25
100
AcDbLine
 10
1157.9474350652
 20
2733.0750565903
 30
0.0
 11
1157.9474350652
 21
2736.7099805768
 31
0.0
  0
LINE
  5
23F
330
1F
100
AcDbEntity
  8
0
  6
Continuous
 62
     7
370
    25
100
AcDbLine
 10
1155.8528404707
 20
2733.034938347
 30
0.0
 11
1155.8528404707
 21
2737.5925819281
 31
0.0
  0
LINE
  5
240
330
1F
100
AcDbEntity
  8
0
  6
Continuous
 62
     7
370
    25
100
AcDbLine
 10
1156.4609485788
 20
2737.5925819281
 30
0.0
 11
1156.4609485788
 21
2733.8932576038
 31
0.0
  0
LINE
  5
241
330
1F
100
AcDbEntity
  8
0
  6
Continuous
 62
     7
370
    25
100
AcDbLine
 10
1158.5555431734
 20
2737.57041132
 30
0.0
 11
1158.5555431734
 21
2733.0761123335
 31
0.0
  0
LINE
  5
242
330
1F
100
AcDbEntity
  8
0
  6
Continuous
 62
     7
370
    25
100
AcDbLine
 10
1175.0758134436
 20
2733.0106562524
 30
0.0
 11
1175.0758134436
 21
2737.5566866579
 31
0.0
  0
LINE
  5
243
330
1F
100
AcDbEntity
  8
0
  6
Continuous
 62
     7
370
    25
100
AcDbLine
 10
1175.6839215517
 20
2737.5566866579
 30
0.0
 11
1175.6839215517
 21
2733.0106562524
 31
0.0
  0
LINE
  5
244
330
1F
100
AcDbEntity
  8
0
  6
Continuous
 62
     7
370
    25
100
AcDbLine
 10
1179.0825702004
 20
2733.9175396984
 30
0.0
 11
1179.0825702004
 21
2734.5942711173
 31
0.0
  0
LINE
  5
245
330
1F
100
AcDbEntity
  8
0
  6
Continuous
 62
     7
370
    25
100
AcDbLine
 10
1178.4723506058
 20
2735.2002677389
 30
0.0
 11
1177.5960837139
 21
2735.2002677389
 31
0.0
  0
LINE
  5
246
330
1F
100
AcDbEntity
  8
0
  6
Continuous
 62
     7
370
    25
100
AcDbLine
 10
1177.5960837139
 20
2735.2002677389
 30
0.0
 11
1177.5960837139
 21
2733.308375847
 31
0.0
  0
LINE
  5
247
330
1F
100
AcDbEntity
  8
0
  6
Continuous
 62
     7
370
    25
100
AcDbLine
 10
1177.5960837139
 20
2733.308375847
 30
0.0
 11
1178.4723506058
 21
2733.308375847
 31
0.0
  0
LINE
  5
248
330
1F
100
AcDbEntity
  8
0
  6
Continuous
 62
     7
370
    25
100
AcDbLine
 10
1178.286539795
 20
2737.227294766
 30
0.0
 11
1177.5960837139
 21
2737.227294766
 31
0.0
  0
LINE
  5
249
330
1F
100
AcDbEntity
  8
0
  6
Continuous
 62
     7
370
    25
100
AcDbLine
 10
1178.8798674977
 20
2736.3235785497
 30
0.0
 11
1178.8798674977
 21
2736.6476917254
 31
0.0
  0
LINE
  5
24A
330
1F
100
AcDbEntity
  8
0
  6
Continuous
 62
     7
370
    25
100
AcDbLine
 10
1177.5960837139
 20
2735.7408082795
 30
0.0
 11
1178.286539795
 21
2735.7408082795
 31
0.0
  0
LINE
  5
24B
330
1F
100
AcDbEntity
  8
0
  6
Continuous
 62
     7
370
    25
100
AcDbLine
 10
1177.5960837139
 20
2737.227294766
 30
0.0
 11
1177.5960837139
 21
2735.7408082795
 31
0.0
  0
LINE
  5
24C
330
1F
100
AcDbEntity
  8
0
  6
Continuous
 62
     7
370
    25
100
AcDbLine
 10
1176.9879756058
 20
2733.0096005092
 30
0.0
 11
1176.9879756058
 21
2737.5260701038
 31
0.0
  0
LINE
  5
24D
330
1F
100
AcDbEntity
  8
0
  6
Continuous
 62
     7
370
    25
100
AcDbLine
 10
1179.4879756058
 20
2736.6772525362
 30
0.0
 11
1179.4879756058
 21
2736.3373032119
 31
0.0
  0
LINE
  5
24E
330
1F
100
AcDbEntity
  8
0
  6
Continuous
 62
     7
370
    25
100
AcDbLine
 10
1178.481852295
 20
2732.7678353065
 30
0.0
 11
1177.2339637815
 21
2732.7678353065
 31
0.0
  0
LINE
  5
24F
330
1F
100
AcDbEntity
  8
0
  6
Continuous
 62
     7
370
    25
100
AcDbLine
 10
1177.231852295
 20
2737.7678353065
 30
0.0
 11
1178.2928742544
 21
2737.7678353065
 31
0.0
  0
LINE
  5
250
330
1F
100
AcDbEntity
  8
0
  6
Continuous
 62
     7
370
    25
100
AcDbLine
 10
1179.6906783085
 20
2734.6006055768
 30
0.0
 11
1179.6906783085
 21
2733.894313347
 31
0.0
  0
LINE
  5
251
330
1F
100
AcDbEntity
  8
0
  6
Continuous
 62
     7
370
    25
100
AcDbLine
 10
1124.6335141242
 20
2713.3289521398
 30
0.0
 11
1124.4388231242
 21
2714.2712921398
 31
0.0
  0
LINE
  5
252
330
1F
100
AcDbEntity
  8
0
  6
Continuous
 62
     7
370
    25
100
AcDbLine
 10
1124.4388231242
 20
2714.2712921398
 30
0.0
 11
1124.1784731242
 21
2716.4116231398
 31
0.0
  0
LINE
  5
253
330
1F
100
AcDbEntity
  8
0
  6
Continuous
 62
     7
370
    25
100
AcDbLine
 10
1124.1784731242
 20
2716.4116231398
 30
0.0
 11
1124.1784731242
 21
2718.0340481398
 31
0.0
  0
LINE
  5
254
330
1F
100
AcDbEntity
  8
0
  6
Continuous
 62
     7
370
    25
100
AcDbLine
 10
1124.1784731242
 20
2718.0340481398
 30
0.0
 11
1123.4972451242
 21
2718.9756261398
 31
0.0
  0
LINE
  5
255
330
1F
100
AcDbEntity
  8
0
  6
Continuous
 62
     7
370
    25
100
AcDbLine
 10
1123.4972451242
 20
2718.9756261398
 30
0.0
 11
1123.5620151242
 21
2721.8632251398
 31
0.0
  0
LINE
  5
256
330
1F
100
AcDbEntity
  8
0
  6
Continuous
 62
     7
370
    25
100
AcDbLine
 10
1123.5620151242
 20
2721.8632251398
 30
0.0
 11
1122.1356781242
 21
2724.1656081398
 31
0.0
  0
LINE
  5
257
330
1F
100
AcDbEntity
  8
0
  6
Continuous
 62
     7
370
    25
100
AcDbLine
 10
1122.1356781242
 20
2724.1656081398
 30
0.0
 11
1121.8753281242
 21
2726.3098761398
 31
0.0
  0
LINE
  5
258
330
1F
100
AcDbEntity
  8
0
  6
Continuous
 62
     7
370
    25
100
AcDbLine
 10
1121.8753281242
 20
2726.3098761398
 30
0.0
 11
1123.6595511242
 21
2728.7101761398
 31
0.0
  0
LINE
  5
259
330
1F
100
AcDbEntity
  8
0
  6
Continuous
 62
     7
370
    25
100
AcDbLine
 10
1123.6595511242
 20
2728.7101761398
 30
0.0
 11
1123.8223651242
 21
2730.3312041398
 31
0.0
  0
LINE
  5
25A
330
1F
100
AcDbEntity
  8
0
  6
Continuous
 62
     7
370
    25
100
AcDbLine
 10
1123.8223651242
 20
2730.3312041398
 30
0.0
 11
1125.8665571242
 21
2730.5910461398
 31
0.0
  0
LINE
  5
25B
330
1F
100
AcDbEntity
  8
0
  6
Continuous
 62
     7
370
    25
100
AcDbLine
 10
1125.8665571242
 20
2730.5910461398
 30
0.0
 11
1125.9635851242
 21
2731.8554581398
 31
0.0
  0
LINE
  5
25C
330
1F
100
AcDbEntity
  8
0
  6
Continuous
 62
     7
370
    25
100
AcDbLine
 10
1125.9635851242
 20
2731.8554581398
 30
0.0
 11
1128.4290361242
 21
2731.7597001398
 31
0.0
  0
LINE
  5
25D
330
1F
100
AcDbEntity
  8
0
  6
Continuous
 62
     7
370
    25
100
AcDbLine
 10
1128.4290361242
 20
2731.7597001398
 30
0.0
 11
1128.5261911242
 21
2732.6352381398
 31
0.0
  0
LINE
  5
25E
330
1F
100
AcDbEntity
  8
0
  6
Continuous
 62
     7
370
    25
100
AcDbLine
 10
1128.5261911242
 20
2732.6352381398
 30
0.0
 11
1129.3054631242
 21
2733.1549221398
 31
0.0
  0
LINE
  5
25F
330
1F
100
AcDbEntity
  8
0
  6
Continuous
 62
     7
370
    25
100
AcDbLine
 10
1129.3054631242
 20
2733.1549221398
 30
0.0
 11
1129.0468911242
 21
2734.3231951398
 31
0.0
  0
LINE
  5
260
330
1F
100
AcDbEntity
  8
0
  6
Continuous
 62
     7
370
    25
100
AcDbLine
 10
1129.0468911242
 20
2734.3231951398
 30
0.0
 11
1128.0077771242
 21
2739.9680911398
 31
0.0
  0
LINE
  5
261
330
1F
100
AcDbEntity
  8
0
  6
Continuous
 62
     7
370
    25
100
AcDbLine
 10
1128.0077771242
 20
2739.9680911398
 30
0.0
 11
1126.0607401242
 21
2739.8057851398
 31
0.0
  0
LINE
  5
262
330
1F
100
AcDbEntity
  8
0
  6
Continuous
 62
     7
370
    25
100
AcDbLine
 10
1126.0607401242
 20
2739.8057851398
 30
0.0
 11
1125.4442821242
 21
2739.1263351398
 31
0.0
  0
LINE
  5
263
330
1F
100
AcDbEntity
  8
0
  6
Continuous
 62
     7
370
    25
100
AcDbLine
 10
1125.4442821242
 20
2739.1263351398
 30
0.0
 11
1123.0759861242
 21
2738.4425671398
 31
0.0
  0
LINE
  5
264
330
1F
100
AcDbEntity
  8
0
  6
Continuous
 62
     7
370
    25
100
AcDbLine
 10
1123.0759861242
 20
2738.4425671398
 30
0.0
 11
1122.3946311242
 21
2740.3912551398
 31
0.0
  0
LINE
  5
265
330
1F
100
AcDbEntity
  8
0
  6
Continuous
 62
     7
370
    25
100
AcDbLine
 10
1122.3946311242
 20
2740.3912551398
 30
0.0
 11
1124.5044821242
 21
2741.3314361398
 31
0.0
  0
LINE
  5
266
330
1F
100
AcDbEntity
  8
0
  6
Continuous
 62
     7
370
    25
100
AcDbLine
 10
1124.5044821242
 20
2741.3314361398
 30
0.0
 11
1124.2441321242
 21
2743.4722751398
 31
0.0
  0
LINE
  5
267
330
1F
100
AcDbEntity
  8
0
  6
Continuous
 62
     7
370
    25
100
AcDbLine
 10
1124.2441321242
 20
2743.4722751398
 30
0.0
 11
1121.8753281242
 21
2742.8558171398
 31
0.0
  0
LINE
  5
268
330
1F
100
AcDbEntity
  8
0
  6
Continuous
 62
     7
370
    25
100
AcDbLine
 10
1121.8753281242
 20
2742.8558171398
 30
0.0
 11
1121.5189661242
 21
2743.6359781398
 31
0.0
  0
LINE
  5
269
330
1F
100
AcDbEntity
  8
0
  6
Continuous
 62
     7
370
    25
100
AcDbLine
 10
1121.5189661242
 20
2743.6359781398
 30
0.0
 11
1119.6358101242
 21
2743.2133221398
 31
0.0
  0
LINE
  5
26A
330
1F
100
AcDbEntity
  8
0
  6
Continuous
 62
     7
370
    25
100
AcDbLine
 10
1119.6358101242
 20
2743.2133221398
 30
0.0
 11
1119.0517371242
 21
2744.6724251398
 31
0.0
  0
LINE
  5
26B
330
1F
100
AcDbEntity
  8
0
  6
Continuous
 62
     7
370
    25
100
AcDbLine
 10
1119.0517371242
 20
2744.6724251398
 30
0.0
 11
1117.9501391242
 21
2744.7377031398
 31
0.0
  0
LINE
  5
26C
330
1F
100
AcDbEntity
  8
0
  6
Continuous
 62
     7
370
    25
100
AcDbLine
 10
1117.9501391242
 20
2744.7377031398
 30
0.0
 11
1117.5927611242
 21
2746.2947231398
 31
0.0
  0
LINE
  5
26D
330
1F
100
AcDbEntity
  8
0
  6
Continuous
 62
     7
370
    25
100
AcDbLine
 10
1117.5927611242
 20
2746.2947231398
 30
0.0
 11
1115.0297741242
 21
2745.3536531398
 31
0.0
  0
LINE
  5
26E
330
1F
100
AcDbEntity
  8
0
  6
Continuous
 62
     7
370
    25
100
AcDbLine
 10
1115.0297741242
 20
2745.3536531398
 30
0.0
 11
1114.6074991242
 21
2746.8793041398
 31
0.0
  0
LINE
  5
26F
330
1F
100
AcDbEntity
  8
0
  6
Continuous
 62
     7
370
    25
100
AcDbLine
 10
1114.6074991242
 20
2746.8793041398
 30
0.0
 11
1113.7637111242
 21
2746.8793041398
 31
0.0
  0
LINE
  5
270
330
1F
100
AcDbEntity
  8
0
  6
Continuous
 62
     7
370
    25
100
AcDbLine
 10
1113.7637111242
 20
2746.8793041398
 30
0.0
 11
1113.7637111242
 21
2747.5610401398
 31
0.0
  0
LINE
  5
271
330
1F
100
AcDbEntity
  8
0
  6
Continuous
 62
     7
370
    25
100
AcDbLine
 10
1113.7637111242
 20
2747.5610401398
 30
0.0
 11
1114.7700591242
 21
2747.9189261398
 31
0.0
  0
LINE
  5
272
330
1F
100
AcDbEntity
  8
0
  6
Continuous
 62
     7
370
    25
100
AcDbLine
 10
1114.7700591242
 20
2747.9189261398
 30
0.0
 11
1113.9256361242
 21
2750.3838691398
 31
0.0
  0
LINE
  5
273
330
1F
100
AcDbEntity
  8
0
  6
Continuous
 62
     7
370
    25
100
AcDbLine
 10
1113.9256361242
 20
2750.3838691398
 30
0.0
 11
1114.7050351242
 21
2750.8070331398
 31
0.0
  0
LINE
  5
274
330
1F
100
AcDbEntity
  8
0
  6
Continuous
 62
     7
370
    25
100
AcDbLine
 10
1114.7050351242
 20
2750.8070331398
 30
0.0
 11
1114.4445581242
 21
2751.6492971398
 31
0.0
  0
LINE
  5
275
330
1F
100
AcDbEntity
  8
0
  6
Continuous
 62
     7
370
    25
100
AcDbLine
 10
1114.4445581242
 20
2751.6492971398
 30
0.0
 11
1113.1469991242
 21
2751.8425911398
 31
0.0
  0
LINE
  5
276
330
1F
100
AcDbEntity
  8
0
  6
Continuous
 62
     7
370
    25
100
AcDbLine
 10
1113.1469991242
 20
2751.8425911398
 30
0.0
 11
1112.7254861242
 21
2753.7905171398
 31
0.0
  0
LINE
  5
277
330
1F
100
AcDbEntity
  8
0
  6
Continuous
 62
     7
370
    25
100
AcDbLine
 10
1112.7254861242
 20
2753.7905171398
 30
0.0
 11
1113.7637111242
 21
2754.2135541398
 31
0.0
  0
LINE
  5
278
330
1F
100
AcDbEntity
  8
0
  6
Continuous
 62
     7
370
    25
100
AcDbLine
 10
1113.7637111242
 20
2754.2135541398
 30
0.0
 11
1113.6670641242
 21
2755.6718951398
 31
0.0
  0
LINE
  5
279
330
1F
100
AcDbEntity
  8
0
  6
Continuous
 62
     7
370
    25
100
AcDbLine
 10
1113.6670641242
 20
2755.6718951398
 30
0.0
 11
1115.0297741242
 21
2755.9952371398
 31
0.0
  0
LINE
  5
27A
330
1F
100
AcDbEntity
  8
0
  6
Continuous
 62
     7
370
    25
100
AcDbLine
 10
1115.0297741242
 20
2755.9952371398
 30
0.0
 11
1114.7050351242
 21
2757.4570071398
 31
0.0
  0
LINE
  5
27B
330
1F
100
AcDbEntity
  8
0
  6
Continuous
 62
     7
370
    25
100
AcDbLine
 10
1114.7050351242
 20
2757.4570071398
 30
0.0
 11
1113.6010241242
 21
2757.7186271398
 31
0.0
  0
LINE
  5
27C
330
1F
100
AcDbEntity
  8
0
  6
Continuous
 62
     7
370
    25
100
AcDbLine
 10
1113.6010241242
 20
2757.7186271398
 30
0.0
 11
1113.2450431242
 21
2758.6575381398
 31
0.0
  0
LINE
  5
27D
330
1F
100
AcDbEntity
  8
0
  6
Continuous
 62
     7
370
    25
100
AcDbLine
 10
1113.2450431242
 20
2758.6575381398
 30
0.0
 11
1111.2986411242
 21
2758.4948511398
 31
0.0
  0
LINE
  5
27E
330
1F
100
AcDbEntity
  8
0
  6
Continuous
 62
     7
370
    25
100
AcDbLine
 10
1111.2986411242
 20
2758.4948511398
 30
0.0
 11
1111.0384181242
 21
2759.5019611398
 31
0.0
  0
LINE
  5
27F
330
1F
100
AcDbEntity
  8
0
  6
Continuous
 62
     7
370
    25
100
AcDbLine
 10
1111.0384181242
 20
2759.5019611398
 30
0.0
 11
1111.0384181242
 21
2761.5474231398
 31
0.0
  0
LINE
  5
280
330
1F
100
AcDbEntity
  8
0
  6
Continuous
 62
     7
370
    25
100
AcDbLine
 10
1111.0384181242
 20
2761.5474231398
 30
0.0
 11
1110.1626261242
 21
2761.9031501398
 31
0.0
  0
LINE
  5
281
330
1F
100
AcDbEntity
  8
0
  6
Continuous
 62
     7
370
    25
100
AcDbLine
 10
1110.1626261242
 20
2761.9031501398
 30
0.0
 11
1109.0918891242
 21
2761.6440701398
 31
0.0
  0
LINE
  5
282
330
1F
100
AcDbEntity
  8
0
  6
Continuous
 62
     7
370
    25
100
AcDbLine
 10
1109.0918891242
 20
2761.6440701398
 30
0.0
 11
1109.0918891242
 21
2760.1184191398
 31
0.0
  0
LINE
  5
283
330
1F
100
AcDbEntity
  8
0
  6
Continuous
 62
     7
370
    25
100
AcDbLine
 10
1109.0918891242
 20
2760.1184191398
 30
0.0
 11
1107.5663651242
 21
2759.8603551398
 31
0.0
  0
LINE
  5
284
330
1F
100
AcDbEntity
  8
0
  6
Continuous
 62
     7
370
    25
100
AcDbLine
 10
1107.5663651242
 20
2759.8603551398
 30
0.0
 11
1106.7882361242
 21
2762.0650751398
 31
0.0
  0
LINE
  5
285
330
1F
100
AcDbEntity
  8
0
  6
Continuous
 62
     7
370
    25
100
AcDbLine
 10
1106.7882361242
 20
2762.0650751398
 30
0.0
 11
1100.8173311242
 21
2761.4813831398
 31
0.0
  0
LINE
  5
286
330
1F
100
AcDbEntity
  8
0
  6
Continuous
 62
     7
370
    25
100
AcDbLine
 10
1100.8173311242
 20
2761.4813831398
 30
0.0
 11
1100.2981551242
 21
2762.4229611398
 31
0.0
  0
LINE
  5
287
330
1F
100
AcDbEntity
  8
0
  6
Continuous
 62
     7
370
    25
100
AcDbLine
 10
1100.2981551242
 20
2762.4229611398
 30
0.0
 11
1099.3570851242
 21
2762.1617221398
 31
0.0
  0
LINE
  5
288
330
1F
100
AcDbEntity
  8
0
  6
Continuous
 62
     7
370
    25
100
AcDbLine
 10
1099.3570851242
 20
2762.1617221398
 30
0.0
 11
1098.4167771242
 21
2766.7706791398
 31
0.0
  0
LINE
  5
289
330
1F
100
AcDbEntity
  8
0
  6
Continuous
 62
     7
370
    25
100
AcDbLine
 10
1098.4167771242
 20
2766.7706791398
 30
0.0
 11
1099.7147171242
 21
2767.3538631398
 31
0.0
  0
LINE
  5
28A
330
1F
100
AcDbEntity
  8
0
  6
Continuous
 62
     7
370
    25
100
AcDbLine
 10
1099.7147171242
 20
2767.3538631398
 30
0.0
 11
1099.8116181242
 21
2770.6956141398
 31
0.0
  0
LINE
  5
28B
330
1F
100
AcDbEntity
  8
0
  6
Continuous
 62
     7
370
    25
100
AcDbLine
 10
1099.8116181242
 20
2770.6956141398
 30
0.0
 11
1097.4109371242
 21
2770.1777081398
 31
0.0
  0
LINE
  5
28C
330
1F
100
AcDbEntity
  8
0
  6
Continuous
 62
     7
370
    25
100
AcDbLine
 10
1097.4109371242
 20
2770.1777081398
 30
0.0
 11
1096.8266101242
 21
2772.3180391398
 31
0.0
  0
LINE
  5
28D
330
1F
100
AcDbEntity
  8
0
  6
Continuous
 62
     7
370
    25
100
AcDbLine
 10
1096.8266101242
 20
2772.3180391398
 30
0.0
 11
1095.7874961242
 21
2775.0433321398
 31
0.0
  0
LINE
  5
28E
330
1F
100
AcDbEntity
  8
0
  6
Continuous
 62
     7
370
    25
100
AcDbLine
 10
1095.7874961242
 20
2775.0433321398
 30
0.0
 11
1096.9882811242
 21
2775.5636511398
 31
0.0
  0
LINE
  5
28F
330
1F
100
AcDbEntity
  8
0
  6
Continuous
 62
     7
370
    25
100
AcDbLine
 10
1096.9882811242
 20
2775.5636511398
 30
0.0
 11
1094.3285201242
 21
2778.1262571398
 31
0.0
  0
LINE
  5
290
330
1F
100
AcDbEntity
  8
0
  6
Continuous
 62
     7
370
    25
100
AcDbLine
 10
1094.3285201242
 20
2778.1262571398
 30
0.0
 11
1094.2633691242
 21
2779.5542451398
 31
0.0
  0
LINE
  5
291
330
1F
100
AcDbEntity
  8
0
  6
Continuous
 62
     7
370
    25
100
AcDbLine
 10
1094.2633691242
 20
2779.5542451398
 30
0.0
 11
1094.7501601242
 21
2780.4297831398
 31
0.0
  0
LINE
  5
292
330
1F
100
AcDbEntity
  8
0
  6
Continuous
 62
     7
370
    25
100
AcDbLine
 10
1094.7501601242
 20
2780.4297831398
 30
0.0
 11
1093.5821411242
 21
2782.1173591398
 31
0.0
  0
LINE
  5
293
330
1F
100
AcDbEntity
  8
0
  6
Continuous
 62
     7
370
    25
100
AcDbLine
 10
1093.5821411242
 20
2782.1173591398
 30
0.0
 11
1094.9442161242
 21
2782.9608931398
 31
0.0
  0
LINE
  5
294
330
1F
100
AcDbEntity
  8
0
  6
Continuous
 62
     7
370
    25
100
AcDbLine
 10
1094.9442161242
 20
2782.9608931398
 30
0.0
 11
1096.4699941242
 21
2783.1546951398
 31
0.0
  0
LINE
  5
295
330
1F
100
AcDbEntity
  8
0
  6
Continuous
 62
     7
370
    25
100
AcDbLine
 10
1096.4699941242
 20
2783.1546951398
 30
0.0
 11
1097.9943751242
 21
2783.2194651398
 31
0.0
  0
LINE
  5
296
330
1F
100
AcDbEntity
  8
0
  6
Continuous
 62
     7
370
    25
100
AcDbLine
 10
1097.9943751242
 20
2783.2194651398
 30
0.0
 11
1097.9943751242
 21
2783.9973401398
 31
0.0
  0
LINE
  5
297
330
1F
100
AcDbEntity
  8
0
  6
Continuous
 62
     7
370
    25
100
AcDbLine
 10
1097.9943751242
 20
2783.9973401398
 30
0.0
 11
1096.4699941242
 21
2784.0957651398
 31
0.0
  0
LINE
  5
298
330
1F
100
AcDbEntity
  8
0
  6
Continuous
 62
     7
370
    25
100
AcDbLine
 10
1096.4699941242
 20
2784.0957651398
 30
0.0
 11
1096.2431721242
 21
2785.6525311398
 31
0.0
  0
LINE
  5
299
330
1F
100
AcDbEntity
  8
0
  6
Continuous
 62
     7
370
    25
100
AcDbLine
 10
1096.2431721242
 20
2785.6525311398
 30
0.0
 11
1097.4109371242
 21
2785.9461551398
 31
0.0
  0
LINE
  5
29A
330
1F
100
AcDbEntity
  8
0
  6
Continuous
 62
     7
370
    25
100
AcDbLine
 10
1097.4109371242
 20
2785.9461551398
 30
0.0
 11
1098.0917841242
 21
2786.8868441398
 31
0.0
  0
LINE
  5
29B
330
1F
100
AcDbEntity
  8
0
  6
Continuous
 62
     7
370
    25
100
AcDbLine
 10
1098.0917841242
 20
2786.8868441398
 30
0.0
 11
1099.1297551242
 21
2786.8868441398
 31
0.0
  0
LINE
  5
29C
330
1F
100
AcDbEntity
  8
0
  6
Continuous
 62
     7
370
    25
100
AcDbLine
 10
1099.1297551242
 20
2786.8868441398
 30
0.0
 11
1099.9746861242
 21
2786.2043461398
 31
0.0
  0
LINE
  5
29D
330
1F
100
AcDbEntity
  8
0
  6
Continuous
 62
     7
370
    25
100
AcDbLine
 10
1099.9746861242
 20
2786.2043461398
 30
0.0
 11
1101.5966031242
 21
2786.7253001398
 31
0.0
  0
LINE
  5
29E
330
1F
100
AcDbEntity
  8
0
  6
Continuous
 62
     7
370
    25
100
AcDbLine
 10
1101.5966031242
 20
2786.7253001398
 30
0.0
 11
1103.0567221242
 21
2785.7842301398
 31
0.0
  0
LINE
  5
29F
330
1F
100
AcDbEntity
  8
0
  6
Continuous
 62
     7
370
    25
100
AcDbLine
 10
1103.0567221242
 20
2785.7842301398
 30
0.0
 11
1103.7378231242
 21
2786.5617241398
 31
0.0
  0
LINE
  5
2A0
330
1F
100
AcDbEntity
  8
0
  6
Continuous
 62
     7
370
    25
100
AcDbLine
 10
1103.7378231242
 20
2786.5617241398
 30
0.0
 11
1105.3599941242
 21
2785.6210351398
 31
0.0
  0
LINE
  5
2A1
330
1F
100
AcDbEntity
  8
0
  6
Continuous
 62
     7
370
    25
100
AcDbLine
 10
1105.3599941242
 20
2785.6210351398
 30
0.0
 11
1106.7225771242
 21
2785.8796071398
 31
0.0
  0
LINE
  5
2A2
330
1F
100
AcDbEntity
  8
0
  6
Continuous
 62
     7
370
    25
100
AcDbLine
 10
1106.7225771242
 20
2785.8796071398
 30
0.0
 11
1106.7225771242
 21
2787.1463051398
 31
0.0
  0
LINE
  5
2A3
330
1F
100
AcDbEntity
  8
0
  6
Continuous
 62
     7
370
    25
100
AcDbLine
 10
1106.7225771242
 20
2787.1463051398
 30
0.0
 11
1109.4816521242
 21
2787.9245611398
 31
0.0
  0
LINE
  5
2A4
330
1F
100
AcDbEntity
  8
0
  6
Continuous
 62
     7
370
    25
100
AcDbLine
 10
1109.4816521242
 20
2787.9245611398
 30
0.0
 11
1109.8380141242
 21
2787.0815351398
 31
0.0
  0
LINE
  5
2A5
330
1F
100
AcDbEntity
  8
0
  6
Continuous
 62
     7
370
    25
100
AcDbLine
 10
1109.8380141242
 20
2787.0815351398
 30
0.0
 11
1111.2007241242
 21
2787.0815351398
 31
0.0
  0
LINE
  5
2A6
330
1F
100
AcDbEntity
  8
0
  6
Continuous
 62
     7
370
    25
100
AcDbLine
 10
1111.2007241242
 20
2787.0815351398
 30
0.0
 11
1111.4596771242
 21
2785.9461551398
 31
0.0
  0
LINE
  5
2A7
330
1F
100
AcDbEntity
  8
0
  6
Continuous
 62
     7
370
    25
100
AcDbLine
 10
1111.4596771242
 20
2785.9461551398
 30
0.0
 11
1112.4660251242
 21
2785.9461551398
 31
0.0
  0
LINE
  5
2A8
330
1F
100
AcDbEntity
  8
0
  6
Continuous
 62
     7
370
    25
100
AcDbLine
 10
1112.4660251242
 20
2785.9461551398
 30
0.0
 11
1112.3037191242
 21
2786.8220741398
 31
0.0
  0
LINE
  5
2A9
330
1F
100
AcDbEntity
  8
0
  6
Continuous
 62
     7
370
    25
100
AcDbLine
 10
1112.3037191242
 20
2786.8220741398
 30
0.0
 11
1113.9256361242
 21
2786.9839991398
 31
0.0
  0
LINE
  5
2AA
330
1F
100
AcDbEntity
  8
0
  6
Continuous
 62
     7
370
    25
100
AcDbLine
 10
1113.9256361242
 20
2786.9839991398
 30
0.0
 11
1114.2828871242
 21
2786.3985291398
 31
0.0
  0
LINE
  5
2AB
330
1F
100
AcDbEntity
  8
0
  6
Continuous
 62
     7
370
    25
100
AcDbLine
 10
1114.2828871242
 20
2786.3985291398
 30
0.0
 11
1115.8067601242
 21
2786.4645691398
 31
0.0
  0
LINE
  5
2AC
330
1F
100
AcDbEntity
  8
0
  6
Continuous
 62
     7
370
    25
100
AcDbLine
 10
1115.8067601242
 20
2786.4645691398
 30
0.0
 11
1116.2299241242
 21
2786.8220741398
 31
0.0
  0
LINE
  5
2AD
330
1F
100
AcDbEntity
  8
0
  6
Continuous
 62
     7
370
    25
100
AcDbLine
 10
1116.2299241242
 20
2786.8220741398
 30
0.0
 11
1117.5927611242
 21
2786.8220741398
 31
0.0
  0
LINE
  5
2AE
330
1F
100
AcDbEntity
  8
0
  6
Continuous
 62
     7
370
    25
100
AcDbLine
 10
1117.5927611242
 20
2786.8220741398
 30
0.0
 11
1117.5276101242
 21
2788.6057891398
 31
0.0
  0
LINE
  5
2AF
330
1F
100
AcDbEntity
  8
0
  6
Continuous
 62
     7
370
    25
100
AcDbLine
 10
1117.5276101242
 20
2788.6057891398
 30
0.0
 11
1120.2535381242
 21
2789.0276831398
 31
0.0
  0
LINE
  5
2B0
330
1F
100
AcDbEntity
  8
0
  6
Continuous
 62
     7
370
    25
100
AcDbLine
 10
1120.2535381242
 20
2789.0276831398
 30
0.0
 11
1120.3174191242
 21
2787.8284221398
 31
0.0
  0
LINE
  5
2B1
330
1F
100
AcDbEntity
  8
0
  6
Continuous
 62
     7
370
    25
100
AcDbLine
 10
1120.3174191242
 20
2787.8284221398
 30
0.0
 11
1124.1784731242
 21
2787.6652271398
 31
0.0
  0
LINE
  5
2B2
330
1F
100
AcDbEntity
  8
0
  6
Continuous
 62
     7
370
    25
100
AcDbLine
 10
1124.1784731242
 20
2787.6652271398
 30
0.0
 11
1124.5044821242
 21
2785.6210351398
 31
0.0
  0
LINE
  5
2B3
330
1F
100
AcDbEntity
  8
0
  6
Continuous
 62
     7
370
    25
100
AcDbLine
 10
1124.5044821242
 20
2785.6210351398
 30
0.0
 11
1126.0607401242
 21
2784.9394261398
 31
0.0
  0
LINE
  5
2B4
330
1F
100
AcDbEntity
  8
0
  6
Continuous
 62
     7
370
    25
100
AcDbLine
 10
1126.0607401242
 20
2784.9394261398
 30
0.0
 11
1127.2297751242
 21
2783.5755731398
 31
0.0
  0
LINE
  5
2B5
330
1F
100
AcDbEntity
  8
0
  6
Continuous
 62
     7
370
    25
100
AcDbLine
 10
1127.2297751242
 20
2783.5755731398
 30
0.0
 11
1128.2672381242
 21
2784.0957651398
 31
0.0
  0
LINE
  5
2B6
330
1F
100
AcDbEntity
  8
0
  6
Continuous
 62
     7
370
    25
100
AcDbLine
 10
1128.2672381242
 20
2784.0957651398
 30
0.0
 11
1128.7878111242
 21
2783.0580481398
 31
0.0
  0
LINE
  5
2B7
330
1F
100
AcDbEntity
  8
0
  6
Continuous
 62
     7
370
    25
100
AcDbLine
 10
1128.7878111242
 20
2783.0580481398
 30
0.0
 11
1130.9925311242
 21
2783.4807041398
 31
0.0
  0
LINE
  5
2B8
330
1F
100
AcDbEntity
  8
0
  6
Continuous
 62
     7
370
    25
100
AcDbLine
 10
1130.9925311242
 20
2783.4807041398
 30
0.0
 11
1131.9341091242
 21
2784.7775011398
 31
0.0
  0
LINE
  5
2B9
330
1F
100
AcDbEntity
  8
0
  6
Continuous
 62
     7
370
    25
100
AcDbLine
 10
1131.9341091242
 20
2784.7775011398
 30
0.0
 11
1132.0312641242
 21
2782.7347061398
 31
0.0
  0
LINE
  5
2BA
330
1F
100
AcDbEntity
  8
0
  6
Continuous
 62
     7
370
    25
100
AcDbLine
 10
1132.0312641242
 20
2782.7347061398
 30
0.0
 11
1134.4970961242
 21
2782.9608931398
 31
0.0
  0
LINE
  5
2BB
330
1F
100
AcDbEntity
  8
0
  6
Continuous
 62
     7
370
    25
100
AcDbLine
 10
1134.4970961242
 20
2782.9608931398
 30
0.0
 11
1134.4970961242
 21
2781.5336671398
 31
0.0
  0
LINE
  5
2BC
330
1F
100
AcDbEntity
  8
0
  6
Continuous
 62
     7
370
    25
100
AcDbLine
 10
1134.4970961242
 20
2781.5336671398
 30
0.0
 11
1133.9795711242
 21
2780.7535061398
 31
0.0
  0
LINE
  5
2BD
330
1F
100
AcDbEntity
  8
0
  6
Continuous
 62
     7
370
    25
100
AcDbLine
 10
1133.9795711242
 20
2780.7535061398
 30
0.0
 11
1136.1186321242
 21
2780.5917081398
 31
0.0
  0
LINE
  5
2BE
330
1F
100
AcDbEntity
  8
0
  6
Continuous
 62
     7
370
    25
100
AcDbLine
 10
1136.1186321242
 20
2780.5917081398
 30
0.0
 11
1136.0219851242
 21
2781.7927471398
 31
0.0
  0
LINE
  5
2BF
330
1F
100
AcDbEntity
  8
0
  6
Continuous
 62
     7
370
    25
100
AcDbLine
 10
1136.0219851242
 20
2781.7927471398
 30
0.0
 11
1137.5795131242
 21
2781.4370201398
 31
0.0
  0
LINE
  5
2C0
330
1F
100
AcDbEntity
  8
0
  6
Continuous
 62
     7
370
    25
100
AcDbLine
 10
1137.5795131242
 20
2781.4370201398
 30
0.0
 11
1137.3200521242
 21
2782.3763121398
 31
0.0
  0
LINE
  5
2C1
330
1F
100
AcDbEntity
  8
0
  6
Continuous
 62
     7
370
    25
100
AcDbLine
 10
1137.3200521242
 20
2782.3763121398
 30
0.0
 11
1139.0067391242
 21
2782.7980791398
 31
0.0
  0
LINE
  5
2C2
330
1F
100
AcDbEntity
  8
0
  6
Continuous
 62
     7
370
    25
100
AcDbLine
 10
1139.0067391242
 20
2782.7980791398
 30
0.0
 11
1139.0067391242
 21
2782.1173591398
 31
0.0
  0
LINE
  5
2C3
330
1F
100
AcDbEntity
  8
0
  6
Continuous
 62
     7
370
    25
100
AcDbLine
 10
1139.0067391242
 20
2782.1173591398
 30
0.0
 11
1140.0454721242
 21
2782.3763121398
 31
0.0
  0
LINE
  5
2C4
330
1F
100
AcDbEntity
  8
0
  6
Continuous
 62
     7
370
    25
100
AcDbLine
 10
1140.0454721242
 20
2782.3763121398
 30
0.0
 11
1140.7261921242
 21
2781.0151261398
 31
0.0
  0
LINE
  5
2C5
330
1F
100
AcDbEntity
  8
0
  6
Continuous
 62
     7
370
    25
100
AcDbLine
 10
1140.7261921242
 20
2781.0151261398
 30
0.0
 11
1142.7707651242
 21
2781.9554341398
 31
0.0
  0
LINE
  5
2C6
330
1F
100
AcDbEntity
  8
0
  6
Continuous
 62
     7
370
    25
100
AcDbLine
 10
1142.7707651242
 20
2781.9554341398
 30
0.0
 11
1143.6139181242
 21
2780.1699411398
 31
0.0
  0
LINE
  5
2C7
330
1F
100
AcDbEntity
  8
0
  6
Continuous
 62
     7
370
    25
100
AcDbLine
 10
1143.6139181242
 20
2780.1699411398
 30
0.0
 11
1141.9932711242
 21
2778.1262571398
 31
0.0
  0
LINE
  5
2C8
330
1F
100
AcDbEntity
  8
0
  6
Continuous
 62
     7
370
    25
100
AcDbLine
 10
1141.9932711242
 20
2778.1262571398
 30
0.0
 11
1143.3557271242
 21
2775.0433321398
 31
0.0
  0
LINE
  5
2C9
330
1F
100
AcDbEntity
  8
0
  6
Continuous
 62
     7
370
    25
100
AcDbLine
 10
1143.3557271242
 20
2775.0433321398
 30
0.0
 11
1145.8544521242
 21
2775.2056381398
 31
0.0
  0
LINE
  5
2CA
330
1F
100
AcDbEntity
  8
0
  6
Continuous
 62
     7
370
    25
100
AcDbLine
 10
1145.8544521242
 20
2775.2056381398
 30
0.0
 11
1146.2767271242
 21
2773.3243871398
 31
0.0
  0
LINE
  5
2CB
330
1F
100
AcDbEntity
  8
0
  6
Continuous
 62
     7
370
    25
100
AcDbLine
 10
1146.2767271242
 20
2773.3243871398
 30
0.0
 11
1147.0554911242
 21
2771.4430091398
 31
0.0
  0
LINE
  5
2CC
330
1F
100
AcDbEntity
  8
0
  6
Continuous
 62
     7
370
    25
100
AcDbLine
 10
1147.0554911242
 20
2771.4430091398
 30
0.0
 11
1147.2165271242
 21
2770.3382361398
 31
0.0
  0
LINE
  5
2CD
330
1F
100
AcDbEntity
  8
0
  6
Continuous
 62
     7
370
    25
100
AcDbLine
 10
1147.2165271242
 20
2770.3382361398
 30
0.0
 11
1146.1783021242
 21
2770.0792831398
 31
0.0
  0
LINE
  5
2CE
330
1F
100
AcDbEntity
  8
0
  6
Continuous
 62
     7
370
    25
100
AcDbLine
 10
1146.1783021242
 20
2770.0792831398
 30
0.0
 11
1146.1783021242
 21
2768.8782441398
 31
0.0
  0
LINE
  5
2CF
330
1F
100
AcDbEntity
  8
0
  6
Continuous
 62
     7
370
    25
100
AcDbLine
 10
1146.1783021242
 20
2768.8782441398
 30
0.0
 11
1145.1723351242
 21
2768.0347101398
 31
0.0
  0
LINE
  5
2D0
330
1F
100
AcDbEntity
  8
0
  6
Continuous
 62
     7
370
    25
100
AcDbLine
 10
1145.1723351242
 20
2768.0347101398
 30
0.0
 11
1145.4309071242
 21
2767.1915571398
 31
0.0
  0
LINE
  5
2D1
330
1F
100
AcDbEntity
  8
0
  6
Continuous
 62
     7
370
    25
100
AcDbLine
 10
1145.4309071242
 20
2767.1915571398
 30
0.0
 11
1147.4763691242
 21
2767.1915571398
 31
0.0
  0
LINE
  5
2D2
330
1F
100
AcDbEntity
  8
0
  6
Continuous
 62
     7
370
    25
100
AcDbLine
 10
1147.4763691242
 20
2767.1915571398
 30
0.0
 11
1150.7858621242
 21
2769.3984361398
 31
0.0
  0
LINE
  5
2D3
330
1F
100
AcDbEntity
  8
0
  6
Continuous
 62
     7
370
    25
100
AcDbLine
 10
1150.7858621242
 20
2769.3984361398
 30
0.0
 11
1153.6088181242
 21
2769.1371971398
 31
0.0
  0
LINE
  5
2D4
330
1F
100
AcDbEntity
  8
0
  6
Continuous
 62
     7
370
    25
100
AcDbLine
 10
1153.6088181242
 20
2769.1371971398
 30
0.0
 11
1155.2298461242
 21
2765.8933631398
 31
0.0
  0
LINE
  5
2D5
330
1F
100
AcDbEntity
  8
0
  6
Continuous
 62
     7
370
    25
100
AcDbLine
 10
1155.2298461242
 20
2765.8933631398
 30
0.0
 11
1156.9514581242
 21
2766.0885621398
 31
0.0
  0
LINE
  5
2D6
330
1F
100
AcDbEntity
  8
0
  6
Continuous
 62
     7
370
    25
100
AcDbLine
 10
1156.9514581242
 20
2766.0885621398
 30
0.0
 11
1156.9514581242
 21
2767.1915571398
 31
0.0
  0
LINE
  5
2D7
330
1F
100
AcDbEntity
  8
0
  6
Continuous
 62
     7
370
    25
100
AcDbLine
 10
1156.9514581242
 20
2767.1915571398
 30
0.0
 11
1157.9556471242
 21
2767.4510181398
 31
0.0
  0
LINE
  5
2D8
330
1F
100
AcDbEntity
  8
0
  6
Continuous
 62
     7
370
    25
100
AcDbLine
 10
1157.9556471242
 20
2767.4510181398
 30
0.0
 11
1157.9556471242
 21
2768.8138551398
 31
0.0
  0
LINE
  5
2D9
330
1F
100
AcDbEntity
  8
0
  6
Continuous
 62
     7
370
    25
100
AcDbLine
 10
1157.9556471242
 20
2768.8138551398
 30
0.0
 11
1159.9354501242
 21
2769.3984361398
 31
0.0
  0
LINE
  5
2DA
330
1F
100
AcDbEntity
  8
0
  6
Continuous
 62
     7
370
    25
100
AcDbLine
 10
1159.9354501242
 20
2769.3984361398
 30
0.0
 11
1162.0447931242
 21
2767.4510181398
 31
0.0
  0
LINE
  5
2DB
330
1F
100
AcDbEntity
  8
0
  6
Continuous
 62
     7
370
    25
100
AcDbLine
 10
1162.0447931242
 20
2767.4510181398
 30
0.0
 11
1165.1261941242
 21
2768.6515491398
 31
0.0
  0
LINE
  5
2DC
330
1F
100
AcDbEntity
  8
0
  6
Continuous
 62
     7
370
    25
100
AcDbLine
 10
1165.1261941242
 20
2768.6515491398
 30
0.0
 11
1165.4836991242
 21
2767.7090821398
 31
0.0
  0
LINE
  5
2DD
330
1F
100
AcDbEntity
  8
0
  6
Continuous
 62
     7
370
    25
100
AcDbLine
 10
1165.4836991242
 20
2767.7090821398
 30
0.0
 11
1167.4293391242
 21
2768.1326271398
 31
0.0
  0
LINE
  5
2DE
330
1F
100
AcDbEntity
  8
0
  6
Continuous
 62
     7
370
    25
100
AcDbLine
 10
1167.4293391242
 20
2768.1326271398
 30
0.0
 11
1169.3121141242
 21
2768.3911991398
 31
0.0
  0
LINE
  5
2DF
330
1F
100
AcDbEntity
  8
0
  6
Continuous
 62
     7
370
    25
100
AcDbLine
 10
1169.3121141242
 20
2768.3911991398
 30
0.0
 11
1171.6177991242
 21
2769.3327771398
 31
0.0
  0
LINE
  5
2E0
330
1F
100
AcDbEntity
  8
0
  6
Continuous
 62
     7
370
    25
100
AcDbLine
 10
1171.6177991242
 20
2769.3327771398
 30
0.0
 11
1172.2006021242
 21
2770.6956141398
 31
0.0
  0
LINE
  5
2E1
330
1F
100
AcDbEntity
  8
0
  6
Continuous
 62
     7
370
    25
100
AcDbLine
 10
1172.2006021242
 20
2770.6956141398
 30
0.0
 11
1172.0379151242
 21
2771.7982281398
 31
0.0
  0
LINE
  5
2E2
330
1F
100
AcDbEntity
  8
0
  6
Continuous
 62
     7
370
    25
100
AcDbLine
 10
1172.0379151242
 20
2771.7982281398
 30
0.0
 11
1172.7204131242
 21
2771.8944941398
 31
0.0
  0
LINE
  5
2E3
330
1F
100
AcDbEntity
  8
0
  6
Continuous
 62
     7
370
    25
100
AcDbLine
 10
1172.7204131242
 20
2771.8944941398
 30
0.0
 11
1172.8170601242
 21
2773.0649261398
 31
0.0
  0
LINE
  5
2E4
330
1F
100
AcDbEntity
  8
0
  6
Continuous
 62
     7
370
    25
100
AcDbLine
 10
1172.8170601242
 20
2773.0649261398
 30
0.0
 11
1172.1349431242
 21
2772.9988861398
 31
0.0
  0
LINE
  5
2E5
330
1F
100
AcDbEntity
  8
0
  6
Continuous
 62
     7
370
    25
100
AcDbLine
 10
1172.1349431242
 20
2772.9988861398
 30
0.0
 11
1171.8759901242
 21
2774.0051071398
 31
0.0
  0
LINE
  5
2E6
330
1F
100
AcDbEntity
  8
0
  6
Continuous
 62
     7
370
    25
100
AcDbLine
 10
1171.8759901242
 20
2774.0051071398
 30
0.0
 11
1175.1202051242
 21
2774.6872241398
 31
0.0
  0
LINE
  5
2E7
330
1F
100
AcDbEntity
  8
0
  6
Continuous
 62
     7
370
    25
100
AcDbLine
 10
1175.1202051242
 20
2774.6872241398
 30
0.0
 11
1174.6984381242
 21
2775.6284211398
 31
0.0
  0
LINE
  5
2E8
330
1F
100
AcDbEntity
  8
0
  6
Continuous
 62
     7
370
    25
100
AcDbLine
 10
1174.6984381242
 20
2775.6284211398
 30
0.0
 11
1172.8818301242
 21
2775.3675631398
 31
0.0
  0
LINE
  5
2E9
330
1F
100
AcDbEntity
  8
0
  6
Continuous
 62
     7
370
    25
100
AcDbLine
 10
1172.8818301242
 20
2775.3675631398
 30
0.0
 11
1172.8818301242
 21
2776.4054071398
 31
0.0
  0
LINE
  5
2EA
330
1F
100
AcDbEntity
  8
0
  6
Continuous
 62
     7
370
    25
100
AcDbLine
 10
1172.8818301242
 20
2776.4054071398
 30
0.0
 11
1176.3869031242
 21
2777.2498301398
 31
0.0
  0
LINE
  5
2EB
330
1F
100
AcDbEntity
  8
0
  6
Continuous
 62
     7
370
    25
100
AcDbLine
 10
1176.3869031242
 20
2777.2498301398
 30
0.0
 11
1177.0668611242
 21
2776.3087601398
 31
0.0
  0
LINE
  5
2EC
330
1F
100
AcDbEntity
  8
0
  6
Continuous
 62
     7
370
    25
100
AcDbLine
 10
1177.0668611242
 20
2776.3087601398
 30
0.0
 11
1179.0457751242
 21
2776.9252181398
 31
0.0
  0
LINE
  5
2ED
330
1F
100
AcDbEntity
  8
0
  6
Continuous
 62
     7
370
    25
100
AcDbLine
 10
1179.0457751242
 20
2776.9252181398
 30
0.0
 11
1178.2677731242
 21
2779.6501301398
 31
0.0
  0
LINE
  5
2EE
330
1F
100
AcDbEntity
  8
0
  6
Continuous
 62
     7
370
    25
100
AcDbLine
 10
1178.2677731242
 20
2779.6501301398
 30
0.0
 11
1180.3128541242
 21
2780.4940451398
 31
0.0
  0
LINE
  5
2EF
330
1F
100
AcDbEntity
  8
0
  6
Continuous
 62
     7
370
    25
100
AcDbLine
 10
1180.3128541242
 20
2780.4940451398
 30
0.0
 11
1180.8312681242
 21
2779.5542451398
 31
0.0
  0
LINE
  5
2F0
330
1F
100
AcDbEntity
  8
0
  6
Continuous
 62
     7
370
    25
100
AcDbLine
 10
1180.8312681242
 20
2779.5542451398
 30
0.0
 11
1182.0314181242
 21
2780.2350921398
 31
0.0
  0
LINE
  5
2F1
330
1F
100
AcDbEntity
  8
0
  6
Continuous
 62
     7
370
    25
100
AcDbLine
 10
1182.0314181242
 20
2780.2350921398
 30
0.0
 11
1182.4531851242
 21
2779.2292521398
 31
0.0
  0
LINE
  5
2F2
330
1F
100
AcDbEntity
  8
0
  6
Continuous
 62
     7
370
    25
100
AcDbLine
 10
1182.4531851242
 20
2779.2292521398
 30
0.0
 11
1183.4931881242
 21
2779.6501301398
 31
0.0
  0
LINE
  5
2F3
330
1F
100
AcDbEntity
  8
0
  6
Continuous
 62
     7
370
    25
100
AcDbLine
 10
1183.4931881242
 20
2779.6501301398
 30
0.0
 11
1183.3956521242
 21
2778.4508691398
 31
0.0
  0
LINE
  5
2F4
330
1F
100
AcDbEntity
  8
0
  6
Continuous
 62
     7
370
    25
100
AcDbLine
 10
1183.3956521242
 20
2778.4508691398
 30
0.0
 11
1182.2926571242
 21
2777.5092911398
 31
0.0
  0
LINE
  5
2F5
330
1F
100
AcDbEntity
  8
0
  6
Continuous
 62
     7
370
    25
100
AcDbLine
 10
1182.2926571242
 20
2777.5092911398
 30
0.0
 11
1182.6163801242
 21
2776.1477241398
 31
0.0
  0
LINE
  5
2F6
330
1F
100
AcDbEntity
  8
0
  6
Continuous
 62
     7
370
    25
100
AcDbLine
 10
1182.6163801242
 20
2776.1477241398
 30
0.0
 11
1182.0314181242
 21
2775.6284211398
 31
0.0
  0
LINE
  5
2F7
330
1F
100
AcDbEntity
  8
0
  6
Continuous
 62
     7
370
    25
100
AcDbLine
 10
1182.0314181242
 20
2775.6284211398
 30
0.0
 11
1183.6542241242
 21
2773.5842291398
 31
0.0
  0
LINE
  5
2F8
330
1F
100
AcDbEntity
  8
0
  6
Continuous
 62
     7
370
    25
100
AcDbLine
 10
1183.6542241242
 20
2773.5842291398
 30
0.0
 11
1185.2770301242
 21
2774.1040401398
 31
0.0
  0
LINE
  5
2F9
330
1F
100
AcDbEntity
  8
0
  6
Continuous
 62
     7
370
    25
100
AcDbLine
 10
1185.2770301242
 20
2774.1040401398
 30
0.0
 11
1185.2770301242
 21
2772.2205031398
 31
0.0
  0
LINE
  5
2FA
330
1F
100
AcDbEntity
  8
0
  6
Continuous
 62
     7
370
    25
100
AcDbLine
 10
1185.2770301242
 20
2772.2205031398
 30
0.0
 11
1185.7959521242
 21
2770.7600031398
 31
0.0
  0
LINE
  5
2FB
330
1F
100
AcDbEntity
  8
0
  6
Continuous
 62
     7
370
    25
100
AcDbLine
 10
1185.7959521242
 20
2770.7600031398
 30
0.0
 11
1184.7572191242
 21
2770.1777081398
 31
0.0
  0
LINE
  5
2FC
330
1F
100
AcDbEntity
  8
0
  6
Continuous
 62
     7
370
    25
100
AcDbLine
 10
1184.7572191242
 20
2770.1777081398
 30
0.0
 11
1185.1133271242
 21
2766.0885621398
 31
0.0
  0
LINE
  5
2FD
330
1F
100
AcDbEntity
  8
0
  6
Continuous
 62
     7
370
    25
100
AcDbLine
 10
1185.1133271242
 20
2766.0885621398
 30
0.0
 11
1182.3565381242
 21
2765.4064451398
 31
0.0
  0
LINE
  5
2FE
330
1F
100
AcDbEntity
  8
0
  6
Continuous
 62
     7
370
    25
100
AcDbLine
 10
1182.3565381242
 20
2765.4064451398
 30
0.0
 11
1183.2967191242
 21
2758.9175071398
 31
0.0
  0
LINE
  5
2FF
330
1F
100
AcDbEntity
  8
0
  6
Continuous
 62
     7
370
    25
100
AcDbLine
 10
1183.2967191242
 20
2758.9175071398
 30
0.0
 11
1186.2819811242
 21
2758.8212411398
 31
0.0
  0
LINE
  5
300
330
1F
100
AcDbEntity
  8
0
  6
Continuous
 62
     7
370
    25
100
AcDbLine
 10
1186.2819811242
 20
2758.8212411398
 30
0.0
 11
1185.9577501242
 21
2757.6188051398
 31
0.0
  0
LINE
  5
301
330
1F
100
AcDbEntity
  8
0
  6
Continuous
 62
     7
370
    25
100
AcDbLine
 10
1185.9577501242
 20
2757.6188051398
 30
0.0
 11
1186.2181001242
 21
2756.2563491398
 31
0.0
  0
LINE
  5
302
330
1F
100
AcDbEntity
  8
0
  6
Continuous
 62
     7
370
    25
100
AcDbLine
 10
1186.2181001242
 20
2756.2563491398
 30
0.0
 11
1187.3210951242
 21
2756.3531231398
 31
0.0
  0
LINE
  5
303
330
1F
100
AcDbEntity
  8
0
  6
Continuous
 62
     7
370
    25
100
AcDbLine
 10
1187.3210951242
 20
2756.3531231398
 30
0.0
 11
1187.2248291242
 21
2753.6291001398
 31
0.0
  0
LINE
  5
304
330
1F
100
AcDbEntity
  8
0
  6
Continuous
 62
     7
370
    25
100
AcDbLine
 10
1187.2248291242
 20
2753.6291001398
 30
0.0
 11
1187.8400171242
 21
2751.0647161398
 31
0.0
  0
LINE
  5
305
330
1F
100
AcDbEntity
  8
0
  6
Continuous
 62
     7
370
    25
100
AcDbLine
 10
1187.8400171242
 20
2751.0647161398
 30
0.0
 11
1186.0225201242
 21
2750.6438381398
 31
0.0
  0
LINE
  5
306
330
1F
100
AcDbEntity
  8
0
  6
Continuous
 62
     7
370
    25
100
AcDbLine
 10
1186.0225201242
 20
2750.6438381398
 30
0.0
 11
1185.6007531242
 21
2753.7905171398
 31
0.0
  0
LINE
  5
307
330
1F
100
AcDbEntity
  8
0
  6
Continuous
 62
     7
370
    25
100
AcDbLine
 10
1185.6007531242
 20
2753.7905171398
 30
0.0
 11
1184.1713681242
 21
2753.5323261398
 31
0.0
  0
LINE
  5
308
330
1F
100
AcDbEntity
  8
0
  6
Continuous
 62
     7
370
    25
100
AcDbLine
 10
1184.1713681242
 20
2753.5323261398
 30
0.0
 11
1183.9136851242
 21
2751.2279111398
 31
0.0
  0
LINE
  5
309
330
1F
100
AcDbEntity
  8
0
  6
Continuous
 62
     7
370
    25
100
AcDbLine
 10
1183.9136851242
 20
2751.2279111398
 30
0.0
 11
1184.1713681242
 21
2749.3465331398
 31
0.0
  0
LINE
  5
30A
330
1F
100
AcDbEntity
  8
0
  6
Continuous
 62
     7
370
    25
100
AcDbLine
 10
1184.1713681242
 20
2749.3465331398
 30
0.0
 11
1186.6385971242
 21
2749.6056131398
 31
0.0
  0
LINE
  5
30B
330
1F
100
AcDbEntity
  8
0
  6
Continuous
 62
     7
370
    25
100
AcDbLine
 10
1186.6385971242
 20
2749.6056131398
 30
0.0
 11
1187.8400171242
 21
2746.7178871398
 31
0.0
  0
LINE
  5
30C
330
1F
100
AcDbEntity
  8
0
  6
Continuous
 62
     7
370
    25
100
AcDbLine
 10
1187.8400171242
 20
2746.7178871398
 30
0.0
 11
1186.1200561242
 21
2746.1014291398
 31
0.0
  0
LINE
  5
30D
330
1F
100
AcDbEntity
  8
0
  6
Continuous
 62
     7
370
    25
100
AcDbLine
 10
1186.1200561242
 20
2746.1014291398
 30
0.0
 11
1186.8021731242
 21
2743.7965061398
 31
0.0
  0
LINE
  5
30E
330
1F
100
AcDbEntity
  8
0
  6
Continuous
 62
     7
370
    25
100
AcDbLine
 10
1186.8021731242
 20
2743.7965061398
 30
0.0
 11
1189.7217761242
 21
2742.6935111398
 31
0.0
  0
LINE
  5
30F
330
1F
100
AcDbEntity
  8
0
  6
Continuous
 62
     7
370
    25
100
AcDbLine
 10
1189.7217761242
 20
2742.6935111398
 30
0.0
 11
1189.1053181242
 21
2741.9156361398
 31
0.0
  0
LINE
  5
310
330
1F
100
AcDbEntity
  8
0
  6
Continuous
 62
     7
370
    25
100
AcDbLine
 10
1189.1053181242
 20
2741.9156361398
 30
0.0
 11
1188.7803251242
 21
2741.0068241398
 31
0.0
  0
LINE
  5
311
330
1F
100
AcDbEntity
  8
0
  6
Continuous
 62
     7
370
    25
100
AcDbLine
 10
1188.7803251242
 20
2741.0068241398
 30
0.0
 11
1188.0990971242
 21
2740.9101771398
 31
0.0
  0
LINE
  5
312
330
1F
100
AcDbEntity
  8
0
  6
Continuous
 62
     7
370
    25
100
AcDbLine
 10
1188.0990971242
 20
2740.9101771398
 30
0.0
 11
1187.3210951242
 21
2741.3314361398
 31
0.0
  0
LINE
  5
313
330
1F
100
AcDbEntity
  8
0
  6
Continuous
 62
     7
370
    25
100
AcDbLine
 10
1187.3210951242
 20
2741.3314361398
 30
0.0
 11
1186.3795171242
 21
2741.2339001398
 31
0.0
  0
LINE
  5
314
330
1F
100
AcDbEntity
  8
0
  6
Continuous
 62
     7
370
    25
100
AcDbLine
 10
1186.3795171242
 20
2741.2339001398
 30
0.0
 11
1185.6007531242
 21
2739.9680911398
 31
0.0
  0
LINE
  5
315
330
1F
100
AcDbEntity
  8
0
  6
Continuous
 62
     7
370
    25
100
AcDbLine
 10
1185.6007531242
 20
2739.9680911398
 30
0.0
 11
1182.7774161242
 21
2740.2289491398
 31
0.0
  0
LINE
  5
316
330
1F
100
AcDbEntity
  8
0
  6
Continuous
 62
     7
370
    25
100
AcDbLine
 10
1182.7774161242
 20
2740.2289491398
 30
0.0
 11
1180.7337321242
 21
2736.3664981398
 31
0.0
  0
LINE
  5
317
330
1F
100
AcDbEntity
  8
0
  6
Continuous
 62
     7
370
    25
100
AcDbLine
 10
1180.7337321242
 20
2736.3664981398
 30
0.0
 11
1186.5432201242
 21
2732.8954611398
 31
0.0
  0
LINE
  5
318
330
1F
100
AcDbEntity
  8
0
  6
Continuous
 62
     7
370
    25
100
AcDbLine
 10
1186.5432201242
 20
2732.8954611398
 30
0.0
 11
1185.0166801242
 21
2730.9161661398
 31
0.0
  0
LINE
  5
319
330
1F
100
AcDbEntity
  8
0
  6
Continuous
 62
     7
370
    25
100
AcDbLine
 10
1185.0166801242
 20
2730.9161661398
 30
0.0
 11
1182.7774161242
 21
2731.5965051398
 31
0.0
  0
LINE
  5
31A
330
1F
100
AcDbEntity
  8
0
  6
Continuous
 62
     7
370
    25
100
AcDbLine
 10
1182.7774161242
 20
2731.5965051398
 30
0.0
 11
1182.7774161242
 21
2729.7160161398
 31
0.0
  0
LINE
  5
31B
330
1F
100
AcDbEntity
  8
0
  6
Continuous
 62
     7
370
    25
100
AcDbLine
 10
1182.7774161242
 20
2729.7160161398
 30
0.0
 11
1183.9784551242
 21
2729.3917851398
 31
0.0
  0
LINE
  5
31C
330
1F
100
AcDbEntity
  8
0
  6
Continuous
 62
     7
370
    25
100
AcDbLine
 10
1183.9784551242
 20
2729.3917851398
 30
0.0
 11
1183.8169111242
 21
2728.7744381398
 31
0.0
  0
LINE
  5
31D
330
1F
100
AcDbEntity
  8
0
  6
Continuous
 62
     7
370
    25
100
AcDbLine
 10
1183.8169111242
 20
2728.7744381398
 30
0.0
 11
1181.8686041242
 21
2728.7744381398
 31
0.0
  0
LINE
  5
31E
330
1F
100
AcDbEntity
  8
0
  6
Continuous
 62
     7
370
    25
100
AcDbLine
 10
1181.8686041242
 20
2728.7744381398
 30
0.0
 11
1181.5128771242
 21
2727.6066731398
 31
0.0
  0
LINE
  5
31F
330
1F
100
AcDbEntity
  8
0
  6
Continuous
 62
     7
370
    25
100
AcDbLine
 10
1181.5128771242
 20
2727.6066731398
 30
0.0
 11
1179.0457751242
 21
2727.3477201398
 31
0.0
  0
LINE
  5
320
330
1F
100
AcDbEntity
  8
0
  6
Continuous
 62
     7
370
    25
100
AcDbLine
 10
1179.0457751242
 20
2727.3477201398
 30
0.0
 11
1179.0457751242
 21
2725.8863311398
 31
0.0
  0
LINE
  5
321
330
1F
100
AcDbEntity
  8
0
  6
Continuous
 62
     7
370
    25
100
AcDbLine
 10
1179.0457751242
 20
2725.8863311398
 30
0.0
 11
1181.0911101242
 21
2725.8863311398
 31
0.0
  0
LINE
  5
322
330
1F
100
AcDbEntity
  8
0
  6
Continuous
 62
     7
370
    25
100
AcDbLine
 10
1181.0911101242
 20
2725.8863311398
 30
0.0
 11
1182.2926571242
 21
2726.4709121398
 31
0.0
  0
LINE
  5
323
330
1F
100
AcDbEntity
  8
0
  6
Continuous
 62
     7
370
    25
100
AcDbLine
 10
1182.2926571242
 20
2726.4709121398
 30
0.0
 11
1182.3565381242
 21
2725.2054841398
 31
0.0
  0
LINE
  5
324
330
1F
100
AcDbEntity
  8
0
  6
Continuous
 62
     7
370
    25
100
AcDbLine
 10
1182.3565381242
 20
2725.2054841398
 30
0.0
 11
1178.6900481242
 21
2724.6210301398
 31
0.0
  0
LINE
  5
325
330
1F
100
AcDbEntity
  8
0
  6
Continuous
 62
     7
370
    25
100
AcDbLine
 10
1178.6900481242
 20
2724.6210301398
 30
0.0
 11
1177.9431611242
 21
2723.7451111398
 31
0.0
  0
LINE
  5
326
330
1F
100
AcDbEntity
  8
0
  6
Continuous
 62
     7
370
    25
100
AcDbLine
 10
1177.9431611242
 20
2723.7451111398
 30
0.0
 11
1176.7412331242
 21
2723.4865391398
 31
0.0
  0
LINE
  5
327
330
1F
100
AcDbEntity
  8
0
  6
Continuous
 62
     7
370
    25
100
AcDbLine
 10
1176.7412331242
 20
2723.4865391398
 30
0.0
 11
1176.4835501242
 21
2724.1021081398
 31
0.0
  0
LINE
  5
328
330
1F
100
AcDbEntity
  8
0
  6
Continuous
 62
     7
370
    25
100
AcDbLine
 10
1176.4835501242
 20
2724.1021081398
 30
0.0
 11
1175.1202051242
 21
2724.1021081398
 31
0.0
  0
LINE
  5
329
330
1F
100
AcDbEntity
  8
0
  6
Continuous
 62
     7
370
    25
100
AcDbLine
 10
1175.1202051242
 20
2724.1021081398
 30
0.0
 11
1175.0235581242
 21
2723.4204991398
 31
0.0
  0
LINE
  5
32A
330
1F
100
AcDbEntity
  8
0
  6
Continuous
 62
     7
370
    25
100
AcDbLine
 10
1175.0235581242
 20
2723.4204991398
 30
0.0
 11
1174.0172101242
 21
2723.3242331398
 31
0.0
  0
LINE
  5
32B
330
1F
100
AcDbEntity
  8
0
  6
Continuous
 62
     7
370
    25
100
AcDbLine
 10
1174.0172101242
 20
2723.3242331398
 30
0.0
 11
1173.7577491242
 21
2724.9443721398
 31
0.0
  0
LINE
  5
32C
330
1F
100
AcDbEntity
  8
0
  6
Continuous
 62
     7
370
    25
100
AcDbLine
 10
1173.7577491242
 20
2724.9443721398
 30
0.0
 11
1170.7724871242
 21
2724.8489951398
 31
0.0
  0
LINE
  5
32D
330
1F
100
AcDbEntity
  8
0
  6
Continuous
 62
     7
370
    25
100
AcDbLine
 10
1170.7724871242
 20
2724.8489951398
 30
0.0
 11
1170.1556481242
 21
2726.0482561398
 31
0.0
  0
LINE
  5
32E
330
1F
100
AcDbEntity
  8
0
  6
Continuous
 62
     7
370
    25
100
AcDbLine
 10
1170.1556481242
 20
2726.0482561398
 30
0.0
 11
1168.8916171242
 21
2725.8863311398
 31
0.0
  0
LINE
  5
32F
330
1F
100
AcDbEntity
  8
0
  6
Continuous
 62
     7
370
    25
100
AcDbLine
 10
1168.8916171242
 20
2725.8863311398
 30
0.0
 11
1168.7926841242
 21
2723.8417581398
 31
0.0
  0
LINE
  5
330
330
1F
100
AcDbEntity
  8
0
  6
Continuous
 62
     7
370
    25
100
AcDbLine
 10
1168.7926841242
 20
2723.8417581398
 30
0.0
 11
1166.9118141242
 21
2723.4865391398
 31
0.0
  0
LINE
  5
331
330
1F
100
AcDbEntity
  8
0
  6
Continuous
 62
     7
370
    25
100
AcDbLine
 10
1166.9118141242
 20
2723.4865391398
 30
0.0
 11
1166.3268521242
 21
2724.3611881398
 31
0.0
  0
LINE
  5
332
330
1F
100
AcDbEntity
  8
0
  6
Continuous
 62
     7
370
    25
100
AcDbLine
 10
1166.3268521242
 20
2724.3611881398
 30
0.0
 11
1163.4395071242
 21
2723.9392941398
 31
0.0
  0
LINE
  5
333
330
1F
100
AcDbEntity
  8
0
  6
Continuous
 62
     7
370
    25
100
AcDbLine
 10
1163.4395071242
 20
2723.9392941398
 30
0.0
 11
1163.5042771242
 21
2722.8053111398
 31
0.0
  0
LINE
  5
334
330
1F
100
AcDbEntity
  8
0
  6
Continuous
 62
     7
370
    25
100
AcDbLine
 10
1163.5042771242
 20
2722.8053111398
 30
0.0
 11
1162.3046351242
 21
2722.7387631398
 31
0.0
  0
LINE
  5
335
330
1F
100
AcDbEntity
  8
0
  6
Continuous
 62
     7
370
    25
100
AcDbLine
 10
1162.3046351242
 20
2722.7387631398
 30
0.0
 11
1162.0447931242
 21
2724.1021081398
 31
0.0
  0
LINE
  5
336
330
1F
100
AcDbEntity
  8
0
  6
Continuous
 62
     7
370
    25
100
AcDbLine
 10
1162.0447931242
 20
2724.1021081398
 30
0.0
 11
1159.8382951242
 21
2723.9392941398
 31
0.0
  0
LINE
  5
337
330
1F
100
AcDbEntity
  8
0
  6
Continuous
 62
     7
370
    25
100
AcDbLine
 10
1159.8382951242
 20
2723.9392941398
 30
0.0
 11
1159.5788341242
 21
2722.7387631398
 31
0.0
  0
LINE
  5
338
330
1F
100
AcDbEntity
  8
0
  6
Continuous
 62
     7
370
    25
100
AcDbLine
 10
1159.5788341242
 20
2722.7387631398
 30
0.0
 11
1158.4762201242
 21
2722.3821471398
 31
0.0
  0
LINE
  5
339
330
1F
100
AcDbEntity
  8
0
  6
Continuous
 62
     7
370
    25
100
AcDbLine
 10
1158.4762201242
 20
2722.3821471398
 30
0.0
 11
1158.3777951242
 21
2721.1159571398
 31
0.0
  0
LINE
  5
33A
330
1F
100
AcDbEntity
  8
0
  6
Continuous
 62
     7
370
    25
100
AcDbLine
 10
1158.3777951242
 20
2721.1159571398
 30
0.0
 11
1156.8521441242
 21
2720.5012771398
 31
0.0
  0
LINE
  5
33B
330
1F
100
AcDbEntity
  8
0
  6
Continuous
 62
     7
370
    25
100
AcDbLine
 10
1156.8521441242
 20
2720.5012771398
 30
0.0
 11
1156.6907271242
 21
2719.5605881398
 31
0.0
  0
LINE
  5
33C
330
1F
100
AcDbEntity
  8
0
  6
Continuous
 62
     7
370
    25
100
AcDbLine
 10
1156.6907271242
 20
2719.5605881398
 30
0.0
 11
1154.8089681242
 21
2719.3326231398
 31
0.0
  0
LINE
  5
33D
330
1F
100
AcDbEntity
  8
0
  6
Continuous
 62
     7
370
    25
100
AcDbLine
 10
1154.8089681242
 20
2719.3326231398
 30
0.0
 11
1154.7121941242
 21
2719.8182711398
 31
0.0
  0
LINE
  5
33E
330
1F
100
AcDbEntity
  8
0
  6
Continuous
 62
     7
370
    25
100
AcDbLine
 10
1154.7121941242
 20
2719.8182711398
 30
0.0
 11
1152.6028511242
 21
2719.2341981398
 31
0.0
  0
LINE
  5
33F
330
1F
100
AcDbEntity
  8
0
  6
Continuous
 62
     7
370
    25
100
AcDbLine
 10
1152.6028511242
 20
2719.2341981398
 30
0.0
 11
1152.6028511242
 21
2718.5529701398
 31
0.0
  0
LINE
  5
340
330
1F
100
AcDbEntity
  8
0
  6
Continuous
 62
     7
370
    25
100
AcDbLine
 10
1152.6028511242
 20
2718.5529701398
 30
0.0
 11
1153.4447341242
 21
2718.3919341398
 31
0.0
  0
LINE
  5
341
330
1F
100
AcDbEntity
  8
0
  6
Continuous
 62
     7
370
    25
100
AcDbLine
 10
1153.4447341242
 20
2718.3919341398
 30
0.0
 11
1153.7063541242
 21
2717.0946291398
 31
0.0
  0
LINE
  5
342
330
1F
100
AcDbEntity
  8
0
  6
Continuous
 62
     7
370
    25
100
AcDbLine
 10
1153.7063541242
 20
2717.0946291398
 30
0.0
 11
1150.9814421242
 21
2716.3477421398
 31
0.0
  0
LINE
  5
343
330
1F
100
AcDbEntity
  8
0
  6
Continuous
 62
     7
370
    25
100
AcDbLine
 10
1157.7013931242
 20
2724.6181091398
 30
0.0
 11
1157.7013931242
 21
2723.2218711398
 31
0.0
  0
LINE
  5
344
330
1F
100
AcDbEntity
  8
0
  6
Continuous
 62
     7
370
    25
100
AcDbLine
 10
1157.7013931242
 20
2723.2218711398
 30
0.0
 11
1157.7346671242
 21
2723.2538751398
 31
0.0
  0
LINE
  5
345
330
1F
100
AcDbEntity
  8
0
  6
Continuous
 62
     7
370
    25
100
AcDbLine
 10
1157.7346671242
 20
2723.2538751398
 30
0.0
 11
1157.7346671242
 21
2723.4827291398
 31
0.0
  0
LINE
  5
346
330
1F
100
AcDbEntity
  8
0
  6
Continuous
 62
     7
370
    25
100
AcDbLine
 10
1157.7679411242
 20
2723.6432571398
 30
0.0
 11
1157.7679411242
 21
2723.8724921398
 31
0.0
  0
ENDSEC
  0
SECTION
  2
OBJECTS
  0
DICTIONARY
  5
C
330
0
100
AcDbDictionary
281
     1
  3
ACAD_GROUP
350
D
  3
ACAD_LAYOUT
350
1A
  3
ACAD_MLINESTYLE
350
17
  3
ACAD_PLOTSETTINGS
350
19
  3
ACAD_PLOTSTYLENAME
350
E
  3
ACAD_SCALELIST
350
47
  0
DICTIONARY
  5
D
102
{ACAD_REACTORS
330
C
102
}
330
C
100
AcDbDictionary
281
     1
  0
DICTIONARY
  5
1A
102
{ACAD_REACTORS
330
C
102
}
330
C
100
AcDbDictionary
281
     1
  3
Layout1
350
1E
  3
Layout2
350
26
  3
Model
350
22
  0
DICTIONARY
  5
17
102
{ACAD_REACTORS
330
C
102
}
330
C
100
AcDbDictionary
281
     1
  3
Standard
350
18
  0
DICTIONARY
  5
19
102
{ACAD_REACTORS
330
C
102
}
330
C
100
AcDbDictionary
281
     1
  0
ACDBDICTIONARYWDFLT
  5
E
102
{ACAD_REACTORS
330
C
102
}
330
C
100
AcDbDictionary
281
     1
  3
Normal
350
F
100
AcDbDictionaryWithDefault
340
F
  0
DICTIONARY
  5
47
102
{ACAD_REACTORS
330
C
102
}
330
C
100
AcDbDictionary
281
     1
  3
A0
350
48
  3
A1
350
49
  3
A2
350
4A
  3
A3
350
4B
  3
A4
350
4C
  3
A5
350
4D
  3
A6
350
4E
  3
A7
350
4F
  3
A8
350
50
  3
A9
350
51
  3
B0
350
52
  3
B1
350
53
  3
B2
350
54
  3
B3
350
55
  3
B4
350
56
  3
B5
350
57
  3
B6
350
58
  3
B7
350
59
  3
B8
350
5A
  3
B9
350
5B
  3
C0
350
5C
  3
C1
350
5D
  3
C2
350
5E
  3
C3
350
5F
  3
C4
350
60
  3
C5
350
61
  3
C6
350
62
  3
C7
350
63
  3
C8
350
64
  3
C9
350
65
  3
D0
350
66
  3
D1
350
67
  3
D2
350
68
  0
LAYOUT
  5
1E
102
{ACAD_REACTORS
330
1A
102
}
330
1A
100
AcDbPlotSettings
  1

  2
none_device
  4

  6

 40
0.0
 41
0.0
 42
0.0
 43
0.0
 44
0.0
 45
0.0
 46
0.0
 47
0.0
 48
0.0
 49
0.0
140
0.0
141
0.0
142
1.0
143
1.0
 70
   688
 72
     1
 73
     0
 74
     5
  7

 75
    16
147
1.0
148
0.0
149
0.0
100
AcDbLayout
  1
Layout1
 70
     1
 71
     1
 10
0.0
 20
0.0
 11
420.0
 21
297.0
 12
0.0
 22
0.0
 32
0.0
 14
1.0000000000E+20
 24
1.0000000000E+20
 34
1.0000000000E+20
 15
-1.0000000000E+20
 25
-1.0000000000E+20
 35
-1.0000000000E+20
146
0.0
 13
0.0
 23
0.0
 33
0.0
 16
1.0
 26
0.0
 36
0.0
 17
0.0
 27
1.0
 37
0.0
 76
     0
330
1B
  0
LAYOUT
  5
26
102
{ACAD_REACTORS
330
1A
102
}
330
1A
100
AcDbPlotSettings
  1

  2
none_device
  4

  6

 40
0.0
 41
0.0
 42
0.0
 43
0.0
 44
0.0
 45
0.0
 46
0.0
 47
0.0
 48
0.0
 49
0.0
140
0.0
141
0.0
142
1.0
143
1.0
 70
   688
 72
     1
 73
     0
 74
     5
  7

 75
    16
147
1.0
148
0.0
149
0.0
100
AcDbLayout
  1
Layout2
 70
     1
 71
     2
 10
0.0
 20
0.0
 11
0.0
 21
0.0
 12
0.0
 22
0.0
 32
0.0
 14
0.0
 24
0.0
 34
0.0
 15
0.0
 25
0.0
 35
0.0
146
0.0
 13
0.0
 23
0.0
 33
0.0
 16
1.0
 26
0.0
 36
0.0
 17
0.0
 27
1.0
 37
0.0
 76
     0
330
23
  0
LAYOUT
  5
22
102
{ACAD_REACTORS
330
1A
102
}
330
1A
100
AcDbPlotSettings
  1

  2
none_device
  4
ANSI_A_(11.00_x_8.50_Inches)
  6

 40
6.35
 41
19.05
 42
6.35000508
 43
19.05000254
 44
279.4
 45
215.9
 46
-3056.3362976787
 47
-7596.5547458163
 48
0.0
 49
0.0
140
0.0
141
0.0
142
0.1099969213
143
1.0
 70
  1696
 72
     0
 73
     0
 74
     0
  7

 75
     0
147
0.0179189148
148
-1300.4909072572
149
0.0
100
AcDbLayout
  1
Model
 70
     1
 71
     0
 10
0.0
 20
0.0
 11
420.0
 21
297.0
 12
0.0
 22
0.0
 32
0.0
 14
1093.5821411242
 24
2712.5255419542
 34
0.0
 15
1189.7217761242
 25
2789.0276831398
 35
0.0
146
0.0
 13
0.0
 23
0.0
 33
0.0
 16
1.0
 26
0.0
 36
0.0
 17
0.0
 27
1.0
 37
0.0
 76
     0
330
1F
331
29
  0
MLINESTYLE
  5
18
102
{ACAD_REACTORS
330
17
102
}
330
17
100
AcDbMlineStyle
  2
Standard
 70
     0
  3

 62
   256
 51
90.0
 52
90.0
 71
     2
 49
0.5
 62
   256
  6
BYLAYER
 49
-0.5
 62
   256
  6
BYLAYER
  0
ACDBPLACEHOLDER
  5
F
102
{ACAD_REACTORS
330
E
102
}
330
E
  0
SCALE
  5
48
102
{ACAD_REACTORS
330
47
102
}
330
47
100
AcDbScale
 70
     0
300
1:1
140
1.0
141
1.0
290
     1
  0
SCALE
  5
49
102
{ACAD_REACTORS
330
47
102
}
330
47
100
AcDbScale
 70
     0
300
1:2
140
1.0
141
2.0
290
     0
  0
SCALE
  5
4A
102
{ACAD_REACTORS
330
47
102
}
330
47
100
AcDbScale
 70
     0
300
1:4
140
1.0
141
4.0
290
     0
  0
SCALE
  5
4B
102
{ACAD_REACTORS
330
47
102
}
330
47
100
AcDbScale
 70
     0
300
1:5
140
1.0
141
5.0
290
     0
  0
SCALE
  5
4C
102
{ACAD_REACTORS
330
47
102
}
330
47
100
AcDbScale
 70
     0
300
1:8
140
1.0
141
8.0
290
     0
  0
SCALE
  5
4D
102
{ACAD_REACTORS
330
47
102
}
330
47
100
AcDbScale
 70
     0
300
1:10
140
1.0
141
10.0
290
     0
  0
SCALE
  5
4E
102
{ACAD_REACTORS
330
47
102
}
330
47
100
AcDbScale
 70
     0
300
1:16
140
1.0
141
16.0
290
     0
  0
SCALE
  5
4F
102
{ACAD_REACTORS
330
47
102
}
330
47
100
AcDbScale
 70
     0
300
1:20
140
1.0
141
20.0
290
     0
  0
SCALE
  5
50
102
{ACAD_REACTORS
330
47
102
}
330
47
100
AcDbScale
 70
     0
300
1:30
140
1.0
141
30.0
290
     0
  0
SCALE
  5
51
102
{ACAD_REACTORS
330
47
102
}
330
47
100
AcDbScale
 70
     0
300
1:40
140
1.0
141
40.0
290
     0
  0
SCALE
  5
52
102
{ACAD_REACTORS
330
47
102
}
330
47
100
AcDbScale
 70
     0
300
1:50
140
1.0
141
50.0
290
     0
  0
SCALE
  5
53
102
{ACAD_REACTORS
330
47
102
}
330
47
100
AcDbScale
 70
     0
300
1:100
140
1.0
141
100.0
290
     0
  0
SCALE
  5
54
102
{ACAD_REACTORS
330
47
102
}
330
47
100
AcDbScale
 70
     0
300
2:1
140
2.0
141
1.0
290
     0
  0
SCALE
  5
55
102
{ACAD_REACTORS
330
47
102
}
330
47
100
AcDbScale
 70
     0
300
4:1
140
4.0
141
1.0
290
     0
  0
SCALE
  5
56
102
{ACAD_REACTORS
330
47
102
}
330
47
100
AcDbScale
 70
     0
300
8:1
140
8.0
141
1.0
290
     0
  0
SCALE
  5
57
102
{ACAD_REACTORS
330
47
102
}
330
47
100
AcDbScale
 70
     0
300
10:1
140
10.0
141
1.0
290
     0
  0
SCALE
  5
58
102
{ACAD_REACTORS
330
47
102
}
330
47
100
AcDbScale
 70
     0
300
100:1
140
100.0
141
1.0
290
     0
  0
SCALE
  5
59
102
{ACAD_REACTORS
330
47
102
}
330
47
100
AcDbScale
 70
     0
300
1/128" = 1'-0"
140
0.0078125
141
12.0
290
     0
  0
SCALE
  5
5A
102
{ACAD_REACTORS
330
47
102
}
330
47
100
AcDbScale
 70
     0
300
1/64" = 1'-0"
140
0.015625
141
12.0
290
     0
  0
SCALE
  5
5B
102
{ACAD_REACTORS
330
47
102
}
330
47
100
AcDbScale
 70
     0
300
1/32" = 1'-0"
140
0.03125
141
12.0
290
     0
  0
SCALE
  5
5C
102
{ACAD_REACTORS
330
47
102
}
330
47
100
AcDbScale
 70
     0
300
1/16" = 1'-0"
140
0.0625
141
12.0
290
     0
  0
SCALE
  5
5D
102
{ACAD_REACTORS
330
47
102
}
330
47
100
AcDbScale
 70
     0
300
3/32" = 1'-0"
140
0.09375
141
12.0
290
     0
  0
SCALE
  5
5E
102
{ACAD_REACTORS
330
47
102
}
330
47
100
AcDbScale
 70
     0
300
1/8" = 1'-0"
140
0.125
141
12.0
290
     0
  0
SCALE
  5
5F
102
{ACAD_REACTORS
330
47
102
}
330
47
100
AcDbScale
 70
     0
300
3/16" = 1'-0"
140
0.1875
141
12.0
290
     0
  0
SCALE
  5
60
102
{ACAD_REACTORS
330
47
102
}
330
47
100
AcDbScale
 70
     0
300
1/4" = 1'-0"
140
0.25
141
12.0
290
     0
  0
SCALE
  5
61
102
{ACAD_REACTORS
330
47
102
}
330
47
100
AcDbScale
 70
     0
300
3/8" = 1'-0"
140
0.375
141
12.0
290
     0
  0
SCALE
  5
62
102
{ACAD_REACTORS
330
47
102
}
330
47
100
AcDbScale
 70
     0
300
1/2" = 1'-0"
140
0.5
141
12.0
290
     0
  0
SCALE
  5
63
102
{ACAD_REACTORS
330
47
102
}
330
47
100
AcDbScale
 70
     0
300
3/4" = 1'-0"
140
0.75
141
12.0
290
     0
  0
SCALE
  5
64
102
{ACAD_REACTORS
330
47
102
}
330
47
100
AcDbScale
 70
     0
300
1" = 1'-0"
140
1.0
141
12.0
290
     0
  0
SCALE
  5
65
102
{ACAD_REACTORS
330
47
102
}
330
47
100
AcDbScale
 70
     0
300
1-1/2" = 1'-0"
140
1.5
141
12.0
290
     0
  0
SCALE
  5
66
102
{ACAD_REACTORS
330
47
102
}
330
47
100
AcDbScale
 70
     0
300
3" = 1'-0"
140
3.0
141
12.0
290
     0
  0
SCALE
  5
67
102
{ACAD_REACTORS
330
47
102
}
330
47
100
AcDbScale
 70
     0
300
6" = 1'-0"
140
6.0
141
12.0
290
     0
  0
SCALE
  5
68
102
{ACAD_REACTORS
330
47
102
}
330
47
100
AcDbScale
 70
     0
300
1'-0" = 1'-0"
140
12.0
141
12.0
290
     0
  0
ENDSEC
  0
EOF
