  0
SECTION
  2
HEADER
  9
$ACADVER
  1
AC1015
  9
$ACADMAINTVER
 70
     6
  9
$DWGCODEPAGE
  3
ANSI_1251
  9
$INSBASE
 10
0.0
 20
0.0
 30
0.0
  9
$EXTMIN
 10
-6944.5498385503
 20
3785.2838126783
 30
0.0
  9
$EXTMAX
 10
-6838.7409315503
 20
3869.8400316783
 30
0.0
  9
$LIMMIN
 10
0.0
 20
0.0
  9
$LIMMAX
 10
420.0
 20
297.0
  9
$ORTHOMODE
 70
     0
  9
$REGENMODE
 70
     1
  9
$FILLMODE
 70
     1
  9
$QTEXTMODE
 70
     0
  9
$MIRRTEXT
 70
     1
  9
$LTSCALE
 40
1.0
  9
$ATTMODE
 70
     1
  9
$TEXTSIZE
 40
4.0
  9
$TRACEWID
 40
1.0
  9
$TEXTSTYLE
  7
Standard
  9
$CLAYER
  8
0
  9
$CELTYPE
  6
ByLayer
  9
$CECOLOR
 62
   256
  9
$CELTSCALE
 40
1.0
  9
$DISPSILH
 70
     0
  9
$DIMSCALE
 40
1.0
  9
$DIMASZ
 40
6.0
  9
$DIMEXO
 40
1.0
  9
$DIMDLI
 40
3.75
  9
$DIMRND
 40
0.0
  9
$DIMDLE
 40
0.0
  9
$DIMEXE
 40
1.0
  9
$DIMTP
 40
0.0
  9
$DIMTM
 40
0.0
  9
$DIMTXT
 40
4.0
  9
$DIMCEN
 40
2.5
  9
$DIMTSZ
 40
0.0
  9
$DIMTOL
 70
     0
  9
$DIMLIM
 70
     0
  9
$DIMTIH
 70
     1
  9
$DIMTOH
 70
     1
  9
$DIMSE1
 70
     0
  9
$DIMSE2
 70
     0
  9
$DIMTAD
 70
     1
  9
$DIMZIN
 70
     0
  9
$DIMBLK
  1

  9
$DIMASO
 70
     1
  9
$DIMSHO
 70
     1
  9
$DIMPOST
  1

  9
$DIMAPOST
  1

  9
$DIMALT
 70
     0
  9
$DIMALTD
 70
     3
  9
$DIMALTF
 40
0.0393700787
  9
$DIMLFAC
 40
1.0
  9
$DIMTOFL
 70
     1
  9
$DIMTVP
 40
0.0
  9
$DIMTIX
 70
     0
  9
$DIMSOXD
 70
     0
  9
$DIMSAH
 70
     0
  9
$DIMBLK1
  1

  9
$DIMBLK2
  1

  9
$DIMSTYLE
  2
ISO-25
  9
$DIMCLRD
 70
     0
  9
$DIMCLRE
 70
     0
  9
$DIMCLRT
 70
     0
  9
$DIMTFAC
 40
1.0
  9
$DIMGAP
 40
3.0
  9
$DIMJUST
 70
     0
  9
$DIMSD1
 70
     0
  9
$DIMSD2
 70
     0
  9
$DIMTOLJ
 70
     0
  9
$DIMTZIN
 70
     0
  9
$DIMALTZ
 70
     0
  9
$DIMALTTZ
 70
     0
  9
$DIMUPT
 70
     0
  9
$DIMDEC
 70
     2
  9
$DIMTDEC
 70
     4
  9
$DIMALTU
 70
     2
  9
$DIMALTTD
 70
     3
  9
$DIMTXSTY
  7
Standard
  9
$DIMAUNIT
 70
     0
  9
$DIMADEC
 70
     2
  9
$DIMALTRND
 40
0.0
  9
$DIMAZIN
 70
     0
  9
$DIMDSEP
 70
    44
  9
$DIMATFIT
 70
     3
  9
$DIMFRAC
 70
     0
  9
$DIMLDRBLK
  1

  9
$DIMLUNIT
 70
     2
  9
$DIMLWD
 70
    -2
  9
$DIMLWE
 70
    -2
  9
$DIMTMOVE
 70
     0
  9
$LUNITS
 70
     2
  9
$LUPREC
 70
     2
  9
$SKETCHINC
 40
1.0
  9
$FILLETRAD
 40
10.0
  9
$AUNITS
 70
     1
  9
$AUPREC
 70
     2
  9
$MENU
  1
.
  9
$ELEVATION
 40
0.0
  9
$PELEVATION
 40
0.0
  9
$THICKNESS
 40
0.0
  9
$LIMCHECK
 70
     0
  9
$CHAMFERA
 40
0.0
  9
$CHAMFERB
 40
0.0
  9
$CHAMFERC
 40
0.0
  9
$CHAMFERD
 40
0.0
  9
$SKPOLY
 70
     0
  9
$TDCREATE
 40
2460368.660831239
  9
$TDUCREATE
 40
2460368.577497905
  9
$TDUPDATE
 40
2460368.660859074
  9
$TDUUPDATE
 40
2460368.577525741
  9
$TDINDWG
 40
0.0000000116
  9
$TDUSRTIMER
 40
0.0000000116
  9
$USRTIMER
 70
     1
  9
$ANGBASE
 50
0.0
  9
$ANGDIR
 70
     0
  9
$PDMODE
 70
     0
  9
$PDSIZE
 40
-1.0
  9
$PLINEWID
 40
0.0
  9
$SPLFRAME
 70
     0
  9
$SPLINETYPE
 70
     6
  9
$SPLINESEGS
 70
     8
  9
$HANDSEED
  5
2BE
  9
$SURFTAB1
 70
     6
  9
$SURFTAB2
 70
     6
  9
$SURFTYPE
 70
     6
  9
$SURFU
 70
     6
  9
$SURFV
 70
     6
  9
$UCSBASE
  2

  9
$UCSNAME
  2

  9
$UCSORG
 10
0.0
 20
0.0
 30
0.0
  9
$UCSXDIR
 10
1.0
 20
0.0
 30
0.0
  9
$UCSYDIR
 10
0.0
 20
1.0
 30
0.0
  9
$UCSORTHOREF
  2

  9
$UCSORTHOVIEW
 70
     0
  9
$UCSORGTOP
 10
0.0
 20
0.0
 30
0.0
  9
$UCSORGBOTTOM
 10
0.0
 20
0.0
 30
0.0
  9
$UCSORGLEFT
 10
0.0
 20
0.0
 30
0.0
  9
$UCSORGRIGHT
 10
0.0
 20
0.0
 30
0.0
  9
$UCSORGFRONT
 10
0.0
 20
0.0
 30
0.0
  9
$UCSORGBACK
 10
0.0
 20
0.0
 30
0.0
  9
$PUCSBASE
  2

  9
$PUCSNAME
  2

  9
$PUCSORG
 10
0.0
 20
0.0
 30
0.0
  9
$PUCSXDIR
 10
1.0
 20
0.0
 30
0.0
  9
$PUCSYDIR
 10
0.0
 20
1.0
 30
0.0
  9
$PUCSORTHOREF
  2

  9
$PUCSORTHOVIEW
 70
     0
  9
$PUCSORGTOP
 10
0.0
 20
0.0
 30
0.0
  9
$PUCSORGBOTTOM
 10
0.0
 20
0.0
 30
0.0
  9
$PUCSORGLEFT
 10
0.0
 20
0.0
 30
0.0
  9
$PUCSORGRIGHT
 10
0.0
 20
0.0
 30
0.0
  9
$PUCSORGFRONT
 10
0.0
 20
0.0
 30
0.0
  9
$PUCSORGBACK
 10
0.0
 20
0.0
 30
0.0
  9
$USERI1
 70
     0
  9
$USERI2
 70
     0
  9
$USERI3
 70
     0
  9
$USERI4
 70
     0
  9
$USERI5
 70
     0
  9
$USERR1
 40
0.0
  9
$USERR2
 40
0.0
  9
$USERR3
 40
0.0
  9
$USERR4
 40
0.0
  9
$USERR5
 40
0.0
  9
$WORLDVIEW
 70
     1
  9
$SHADEDGE
 70
     3
  9
$SHADEDIF
 70
    70
  9
$TILEMODE
 70
     1
  9
$MAXACTVP
 70
    64
  9
$PINSBASE
 10
0.0
 20
0.0
 30
0.0
  9
$PLIMCHECK
 70
     0
  9
$PEXTMIN
 10
1.0000000000E+20
 20
1.0000000000E+20
 30
1.0000000000E+20
  9
$PEXTMAX
 10
-1.0000000000E+20
 20
-1.0000000000E+20
 30
-1.0000000000E+20
  9
$PLIMMIN
 10
0.0
 20
0.0
  9
$PLIMMAX
 10
420.0
 20
297.0
  9
$UNITMODE
 70
     0
  9
$VISRETAIN
 70
     1
  9
$PLINEGEN
 70
     0
  9
$PSLTSCALE
 70
     1
  9
$TREEDEPTH
 70
  3020
  9
$CMLSTYLE
  2
Standard
  9
$CMLJUST
 70
     0
  9
$CMLSCALE
 40
20.0
  9
$PROXYGRAPHICS
 70
     1
  9
$MEASUREMENT
 70
     1
  9
$CELWEIGHT
370
    -1
  9
$ENDCAPS
280
     0
  9
$JOINSTYLE
280
     0
  9
$LWDISPLAY
290
     1
  9
$INSUNITS
 70
     4
  9
$HYPERLINKBASE
  1

  9
$STYLESHEET
  1

  9
$XEDIT
290
     1
  9
$CEPSNTYPE
380
     0
  9
$PSTYLEMODE
290
     1
  9
$FINGERPRINTGUID
  2
{9bcc883d-4f6b-4076-a91d-8a175f69dfc0}
  9
$VERSIONGUID
  2
{FAEB1C32-E019-11D5-929B-00C0DF256EC4}
  9
$EXTNAMES
290
     1
  9
$PSVPSCALE
 40
0.0
  9
$OLESTARTUP
290
     0
  0
ENDSEC
  0
SECTION
  2
CLASSES
  0
CLASS
  1
ACDBDICTIONARYWDFLT
  2
AcDbDictionaryWithDefault
  3
ObjectDBX Classes
 90
        0
280
     0
281
     0
  0
CLASS
  1
VISUALSTYLE
  2
AcDbVisualStyle
  3
ObjectDBX Classes
 90
     4095
280
     0
281
     0
  0
CLASS
  1
MATERIAL
  2
AcDbMaterial
  3
ObjectDBX Classes
 90
     1153
280
     0
281
     0
  0
CLASS
  1
SCALE
  2
AcDbScale
  3
ObjectDBX Classes
 90
     1153
280
     0
281
     0
  0
CLASS
  1
TABLESTYLE
  2
AcDbTableStyle
  3
ObjectDBX Classes
 90
     4095
280
     0
281
     0
  0
CLASS
  1
MLEADERSTYLE
  2
AcDbMLeaderStyle
  3
ACDB_MLEADERSTYLE_CLASS
 90
     4095
280
     0
281
     0
  0
CLASS
  1
SUN
  2
AcDbSun
  3
SCENEOE
 90
     1153
280
     0
281
     0
  0
CLASS
  1
ACDBPLACEHOLDER
  2
AcDbPlaceHolder
  3
ObjectDBX Classes
 90
        0
280
     0
281
     0
  0
CLASS
  1
LAYOUT
  2
AcDbLayout
  3
ObjectDBX Classes
 90
        0
280
     0
281
     0
  0
ENDSEC
  0
SECTION
  2
TABLES
  0
TABLE
  2
VPORT
  5
8
330
0
100
AcDbSymbolTable
 70
     1
  0
VPORT
  5
29
330
8
100
AcDbSymbolTableRecord
100
AcDbViewportTableRecord
  2
*Active
 70
     0
 10
0.0
 20
0.0
 11
1.0
 21
1.0
 12
-6891.6453850503
 22
3827.5619221783
 13
0.0
 23
0.0
 14
10.0
 24
10.0
 15
10.0
 25
10.0
 16
0.0
 26
0.0
 36
1.0
 17
0.0
 27
0.0
 37
0.0
 40
86.24734338
 41
1.2513438781
 42
50.0
 43
0.0
 44
0.0
 50
0.0
 51
0.0
 71
     0
 72
   100
 73
     1
 74
     3
 75
     0
 76
     0
 77
     0
 78
     0
281
     0
 65
     1
110
0.0
120
0.0
130
0.0
111
1.0
121
0.0
131
0.0
112
0.0
122
1.0
132
0.0
 79
     0
146
0.0
  0
ENDTAB
  0
TABLE
  2
LTYPE
  5
5
330
0
100
AcDbSymbolTable
 70
     6
  0
LTYPE
  5
14
330
5
100
AcDbSymbolTableRecord
100
AcDbLinetypeTableRecord
  2
ByBlock
 70
     0
  3

 72
    65
 73
     0
 40
0.0
  0
LTYPE
  5
15
330
5
100
AcDbSymbolTableRecord
100
AcDbLinetypeTableRecord
  2
ByLayer
 70
     0
  3

 72
    65
 73
     0
 40
0.0
  0
LTYPE
  5
16
330
5
100
AcDbSymbolTableRecord
100
AcDbLinetypeTableRecord
  2
Continuous
 70
     0
  3
Solid line
 72
    65
 73
     0
 40
0.0
  0
LTYPE
  5
6E
330
5
100
AcDbSymbolTableRecord
100
AcDbLinetypeTableRecord
  2
HIDDEN
 70
     0
  3
Hidden __ __ __ __ __ __ __ __ __ __ __ __ __ __
 72
    65
 73
     2
 40
1.905
 49
1.27
 74
     0
 49
-0.635
 74
     0
  0
LTYPE
  5
6F
330
5
100
AcDbSymbolTableRecord
100
AcDbLinetypeTableRecord
  2
PHANTOM
 70
     0
  3
Phantom ______  __  __  ______  __  __  ______
 72
    65
 73
     6
 40
12.7
 49
6.35
 74
     0
 49
-1.27
 74
     0
 49
1.27
 74
     0
 49
-1.27
 74
     0
 49
1.27
 74
     0
 49
-1.27
 74
     0
  0
LTYPE
  5
70
330
5
100
AcDbSymbolTableRecord
100
AcDbLinetypeTableRecord
  2
CENTER
 70
     0
  3
Center ____ _ ____ _ ____ _ ____ _ ____ _ ____
 72
    65
 73
     4
 40
10.16
 49
6.35
 74
     0
 49
-1.27
 74
     0
 49
1.27
 74
     0
 49
-1.27
 74
     0
  0
LTYPE
  5
71
330
5
100
AcDbSymbolTableRecord
100
AcDbLinetypeTableRecord
  2
CENTERX2
 70
     0
  3
Center (2x) ________  __  ________  __  _____
 72
    65
 73
     4
 40
20.32
 49
12.7
 74
     0
 49
-2.54
 74
     0
 49
2.54
 74
     0
 49
-2.54
 74
     0
  0
LTYPE
  5
72
330
5
100
AcDbSymbolTableRecord
100
AcDbLinetypeTableRecord
  2
DOT2
 70
     0
  3
Dot (.5x) ........................................
 72
    65
 73
     2
 40
0.635
 49
0.0
 74
     0
 49
-0.635
 74
     0
  0
ENDTAB
  0
TABLE
  2
LAYER
  5
2
330
0
100
AcDbSymbolTable
 70
     1
  0
LAYER
  5
10
330
2
100
AcDbSymbolTableRecord
100
AcDbLayerTableRecord
  2
0
 70
     0
 62
     7
  6
Continuous
370
    -3
390
F
  0
ENDTAB
  0
TABLE
  2
STYLE
  5
3
330
0
100
AcDbSymbolTable
 70
     1
  0
STYLE
  5
11
330
3
100
AcDbSymbolTableRecord
100
AcDbTextStyleTableRecord
  2
Standard
 70
     0
 40
0.0
 41
1.0
 50
0.0
 71
     0
 42
4.0
  3
txt
  4

  0
ENDTAB
  0
TABLE
  2
VIEW
  5
6
330
0
100
AcDbSymbolTable
 70
     0
  0
ENDTAB
  0
TABLE
  2
UCS
  5
7
330
0
100
AcDbSymbolTable
 70
     0
  0
ENDTAB
  0
TABLE
  2
APPID
  5
9
330
0
100
AcDbSymbolTable
 70
     1
  0
APPID
  5
12
330
9
100
AcDbSymbolTableRecord
100
AcDbRegAppTableRecord
  2
ACAD
 70
     0
  0
ENDTAB
  0
TABLE
  2
DIMSTYLE
  5
A
330
0
100
AcDbSymbolTable
 70
     1
100
AcDbDimStyleTable
  0
DIMSTYLE
105
27
330
A
100
AcDbSymbolTableRecord
100
AcDbDimStyleTableRecord
  2
ISO-25
 70
     0
 41
2.5
 42
0.625
 43
3.75
 44
1.25
 73
     0
 74
     0
 77
     1
 78
     8
140
2.5
141
2.5
143
0.0393700787
147
0.625
171
     3
172
     1
178
     0
271
     2
272
     2
274
     3
278
    44
283
     0
284
     8
340
11
  0
ENDTAB
  0
TABLE
  2
BLOCK_RECORD
  5
1
330
0
100
AcDbSymbolTable
 70
     1
  0
BLOCK_RECORD
  5
1F
330
1
100
AcDbSymbolTableRecord
100
AcDbBlockTableRecord
  2
*Model_Space
340
22
  0
BLOCK_RECORD
  5
1B
330
1
100
AcDbSymbolTableRecord
100
AcDbBlockTableRecord
  2
*Paper_Space
340
1E
  0
BLOCK_RECORD
  5
23
330
1
100
AcDbSymbolTableRecord
100
AcDbBlockTableRecord
  2
*Paper_Space0
340
26
  0
ENDTAB
  0
ENDSEC
  0
SECTION
  2
BLOCKS
  0
BLOCK
  5
20
330
1F
100
AcDbEntity
  8
0
100
AcDbBlockBegin
  2
*Model_Space
 70
     0
 10
0.0
 20
0.0
 30
0.0
  3
*Model_Space
  1

  0
ENDBLK
  5
21
330
1F
100
AcDbEntity
  8
0
100
AcDbBlockEnd
  0
BLOCK
  5
1C
330
1B
100
AcDbEntity
 67
     1
  8
0
100
AcDbBlockBegin
  2
*Paper_Space
 70
     0
 10
0.0
 20
0.0
 30
0.0
  3
*Paper_Space
  1

  0
ENDBLK
  5
1D
330
1B
100
AcDbEntity
 67
     1
  8
0
100
AcDbBlockEnd
  0
BLOCK
  5
24
330
23
100
AcDbEntity
  8
0
100
AcDbBlockBegin
  2
*Paper_Space0
 70
     0
 10
0.0
 20
0.0
 30
0.0
  3
*Paper_Space0
  1

  0
ENDBLK
  5
25
330
23
100
AcDbEntity
  8
0
100
AcDbBlockEnd
  0
ENDSEC
  0
SECTION
  2
ENTITIES
  0
SPLINE
  5
73
330
1F
100
AcDbEntity
  8
0
  6
Continuous
 62
     7
370
    25
100
AcDbSpline
210
0.0
220
0.0
230
1.0
 70
     8
 71
     3
 72
    15
 73
    11
 74
     0
 42
0.000000001
 43
0.00000001
 40
0.0
 40
0.0
 40
0.0
 40
0.0
 40
0.1490635051903622
 40
0.2818442409441622
 40
0.400731527071459
 40
0.5112289549474943
 40
0.6207008624670837
 40
0.73588376929918
 40
0.8588803628871023
 40
1.0
 40
1.0
 40
1.0
 40
1.0
 10
-6875.53729376295
 20
3816.067968630864
 30
0.0
 10
-6875.558997377179
 20
3816.069013831176
 30
0.0
 10
-6875.600033837922
 20
3816.070990060624
 30
0.0
 10
-6875.657988571546
 20
3816.081473549012
 30
0.0
 10
-6875.706407005386
 20
3816.103304011222
 30
0.0
 10
-6875.747955790595
 20
3816.130994422879
 30
0.0
 10
-6875.778480019548
 20
3816.170000559595
 30
0.0
 10
-6875.800792507888
 20
3816.215861996446
 30
0.0
 10
-6875.813554671854
 20
3816.270152387455
 30
0.0
 10
-6875.815154941139
 20
3816.308679634729
 30
0.0
 10
-6875.816009979165
 20
3816.329265083566
 30
0.0
  0
SPLINE
  5
74
330
1F
100
AcDbEntity
  8
0
  6
Continuous
 62
     7
370
    25
100
AcDbSpline
210
0.0
220
0.0
230
1.0
 70
     8
 71
     3
 72
     9
 73
     5
 74
     0
 42
0.000000001
 43
0.00000001
 40
0.0
 40
0.0
 40
0.0
 40
0.0
 40
0.4957413518339207
 40
1.0
 40
1.0
 40
1.0
 40
1.0
 10
-6875.816009979165
 20
3816.329265083566
 30
0.0
 10
-6875.814832398883
 20
3816.343647966224
 30
0.0
 10
-6875.812457006396
 20
3816.372660842808
 30
0.0
 10
-6875.805554710667
 20
3816.400941711135
 30
0.0
 10
-6875.802074168354
 20
3816.415202583566
 30
0.0
  0
SPLINE
  5
76
330
1F
100
AcDbEntity
  8
0
  6
Continuous
 62
     7
370
    25
100
AcDbSpline
210
0.0
220
0.0
230
1.0
 70
     8
 71
     3
 72
    11
 73
     7
 74
     0
 42
0.000000001
 43
0.00000001
 40
0.0
 40
0.0
 40
0.0
 40
0.0
 40
0.2624685167005725
 40
0.4999991169493702
 40
0.736656439976123
 40
1.0
 40
1.0
 40
1.0
 40
1.0
 10
-6874.259844438625
 20
3821.380996502485
 30
0.0
 10
-6874.248804464831
 20
3821.409066762166
 30
0.0
 10
-6874.227773458073
 20
3821.46254024245
 30
0.0
 10
-6874.168966670672
 20
3821.525719157642
 30
0.0
 10
-6874.090755171684
 20
3821.562454834358
 30
0.0
 10
-6874.033400938657
 20
3821.566066445272
 30
0.0
 10
-6874.003193256192
 20
3821.567968630864
 30
0.0
  0
SPLINE
  5
78
330
1F
100
AcDbEntity
  8
0
  6
Continuous
 62
     7
370
    25
100
AcDbSpline
210
0.0
220
0.0
230
1.0
 70
     8
 71
     3
 72
    15
 73
    11
 74
     0
 42
0.000000001
 43
0.00000001
 40
0.0
 40
0.0
 40
0.0
 40
0.0
 40
0.1678628092162568
 40
0.3148466165912384
 40
0.4441869603121228
 40
0.5592403382441119
 40
0.6652318690748218
 40
0.7706563435097006
 40
0.8787940473875346
 40
0.9999999999999999
 40
0.9999999999999999
 40
0.9999999999999999
 40
0.9999999999999999
 10
-6872.822133289976
 20
3821.567968630864
 30
0.0
 10
-6872.79307151482
 20
3821.566953664249
 30
0.0
 10
-6872.738562707167
 20
3821.56504997393
 30
0.0
 10
-6872.662090797133
 20
3821.554421389113
 30
0.0
 10
-6872.597191323158
 20
3821.533597960765
 30
0.0
 10
-6872.543461547197
 20
3821.504557493531
 30
0.0
 10
-6872.50073217545
 20
3821.466416623299
 30
0.0
 10
-6872.471614838284
 20
3821.41862588595
 30
0.0
 10
-6872.453178424713
 20
3821.362944131453
 30
0.0
 10
-6872.451433725422
 20
3821.323089633167
 30
0.0
 10
-6872.450511668354
 20
3821.30202690789
 30
0.0
  0
SPLINE
  5
7A
330
1F
100
AcDbEntity
  8
0
  6
Continuous
 62
     7
370
    25
100
AcDbSpline
210
0.0
220
0.0
230
1.0
 70
     8
 71
     3
 72
    15
 73
    11
 74
     0
 42
0.000000001
 43
0.00000001
 40
0.0
 40
0.0
 40
0.0
 40
0.0
 40
0.1212059526124654
 40
0.2293436564902993
 40
0.3347681309251781
 40
0.440759661755888
 40
0.5558130396878771
 40
0.6851533834087616
 40
0.8321371907837432
 40
0.9999999999999999
 40
0.9999999999999999
 40
0.9999999999999999
 40
0.9999999999999999
 10
-6872.450511668354
 20
3816.333910353836
 30
0.0
 10
-6872.451433725422
 20
3816.31284762856
 30
0.0
 10
-6872.453178424713
 20
3816.272993130275
 30
0.0
 10
-6872.471614838284
 20
3816.217311375776
 30
0.0
 10
-6872.50073217545
 20
3816.169520638428
 30
0.0
 10
-6872.543461547197
 20
3816.131379768197
 30
0.0
 10
-6872.597191323158
 20
3816.102339300961
 30
0.0
 10
-6872.662090797133
 20
3816.081515872615
 30
0.0
 10
-6872.738562707167
 20
3816.070887287796
 30
0.0
 10
-6872.79307151482
 20
3816.068983597478
 30
0.0
 10
-6872.822133289976
 20
3816.067968630864
 30
0.0
  0
SPLINE
  5
7B
330
1F
100
AcDbEntity
  8
0
  6
Continuous
 62
     7
370
    25
100
AcDbSpline
210
0.0
220
0.0
230
1.0
 70
     8
 71
     3
 72
    15
 73
    11
 74
     0
 42
0.000000001
 43
0.00000001
 40
0.0
 40
0.0
 40
0.0
 40
0.0
 40
0.1538927873091609
 40
0.2894095627949738
 40
0.4110724936372199
 40
0.5232401736076219
 40
0.6301460973348917
 40
0.7423137773052803
 40
0.8639767081474935
 40
1.0
 40
1.0
 40
1.0
 40
1.0
 10
-6872.822133289976
 20
3816.067968630864
 30
0.0
 10
-6872.845397800927
 20
3816.068980972501
 30
0.0
 10
-6872.889148856842
 20
3816.070884774207
 30
0.0
 10
-6872.950717054754
 20
3816.081667706202
 30
0.0
 10
-6873.002978272036
 20
3816.1027143897
 30
0.0
 10
-6873.045684714619
 20
3816.132225151979
 30
0.0
 10
-6873.080061071479
 20
3816.169466198231
 30
0.0
 10
-6873.103066454561
 20
3816.216199950944
 30
0.0
 10
-6873.11720561069
 20
3816.270765161897
 30
0.0
 10
-6873.11866187677
 20
3816.30981394993
 30
0.0
 10
-6873.119430587272
 20
3816.330426401134
 30
0.0
  0
SPLINE
  5
7F
330
1F
100
AcDbEntity
  8
0
  6
Continuous
 62
     7
370
    25
100
AcDbSpline
210
0.0
220
0.0
230
1.0
 70
     8
 71
     3
 72
    11
 73
     7
 74
     0
 42
0.000000001
 43
0.00000001
 40
0.0
 40
0.0
 40
0.0
 40
0.0
 40
0.2301959670042993
 40
0.456060078779417
 40
0.703187833032625
 40
1.0
 40
1.0
 40
1.0
 40
1.0
 10
-6875.219092749436
 20
3816.254940759242
 30
0.0
 10
-6875.230973640024
 20
3816.226479194665
 30
0.0
 10
-6875.25451184518
 20
3816.170091658638
 30
0.0
 10
-6875.32811387678
 20
3816.10791664072
 30
0.0
 10
-6875.425592545588
 20
3816.072858979458
 30
0.0
 10
-6875.497859688572
 20
3816.069695079104
 30
0.0
 10
-6875.53729376295
 20
3816.067968630864
 30
0.0
  0
SPLINE
  5
81
330
1F
100
AcDbEntity
  8
0
  6
Continuous
 62
     7
370
    25
100
AcDbSpline
210
0.0
220
0.0
230
1.0
 70
     8
 71
     3
 72
    15
 73
    11
 74
     0
 42
0.000000001
 43
0.00000001
 40
0.0
 40
0.0
 40
0.0
 40
0.0
 40
0.1374180339176135
 40
0.2605221888670364
 40
0.3717530834571546
 40
0.4796629016281094
 40
0.5923606405989421
 40
0.7130074850339723
 40
0.8473924716293176
 40
1.0
 40
1.0
 40
1.0
 40
1.0
 10
-6870.766136668354
 20
3820.973374036269
 30
0.0
 10
-6870.78712398569
 20
3820.974166112541
 30
0.0
 10
-6870.826912517768
 20
3820.975667760019
 30
0.0
 10
-6870.882402599477
 20
3820.989447895913
 30
0.0
 10
-6870.929544797581
 20
3821.013073559526
 30
0.0
 10
-6870.967723633081
 20
3821.047022780514
 30
0.0
 10
-6870.998649145162
 20
3821.08946986661
 30
0.0
 10
-6871.019466853167
 20
3821.142132913201
 30
0.0
 10
-6871.030345894147
 20
3821.203642043852
 30
0.0
 10
-6871.032235118648
 20
3821.247402058717
 30
0.0
 10
-6871.033239708895
 20
3821.270671333566
 30
0.0
  0
SPLINE
  5
82
330
1F
100
AcDbEntity
  8
0
  6
Continuous
 62
     7
370
    25
100
AcDbSpline
210
0.0
220
0.0
230
1.0
 70
     8
 71
     3
 72
    15
 73
    11
 74
     0
 42
0.000000001
 43
0.00000001
 40
0.0
 40
0.0
 40
0.0
 40
0.0
 40
0.1526075283706413
 40
0.2869925149659932
 40
0.4076393594010292
 40
0.5203370983718674
 40
0.6282469165428275
 40
0.739477811132951
 40
0.8625819660823799
 40
1.0
 40
1.0
 40
1.0
 40
1.0
 10
-6871.033239708895
 20
3821.270671333566
 30
0.0
 10
-6871.032235118648
 20
3821.293940608415
 30
0.0
 10
-6871.030345894147
 20
3821.33770062328
 30
0.0
 10
-6871.019466853167
 20
3821.399209753931
 30
0.0
 10
-6870.998649145162
 20
3821.451872800522
 30
0.0
 10
-6870.967723633081
 20
3821.494319886619
 30
0.0
 10
-6870.929544797581
 20
3821.528269107606
 30
0.0
 10
-6870.882402599477
 20
3821.551894771219
 30
0.0
 10
-6870.826912517768
 20
3821.565674907113
 30
0.0
 10
-6870.78712398569
 20
3821.567176554591
 30
0.0
 10
-6870.766136668354
 20
3821.567968630864
 30
0.0
  0
SPLINE
  5
84
330
1F
100
AcDbEntity
  8
0
  6
Continuous
 62
     7
370
    25
100
AcDbSpline
210
0.0
220
0.0
230
1.0
 70
     8
 71
     3
 72
    15
 73
    11
 74
     0
 42
0.000000001
 43
0.00000001
 40
0.0
 40
0.0
 40
0.0
 40
0.0
 40
0.1551848740353466
 40
0.2903690234713168
 40
0.4133689253837544
 40
0.5248446307905204
 40
0.632991950339293
 40
0.7444676557460659
 40
0.8648158505640556
 40
1.0
 40
1.0
 40
1.0
 40
1.0
 10
-6868.392403560247
 20
3821.567968630864
 30
0.0
 10
-6868.365614131703
 20
3821.567241129098
 30
0.0
 10
-6868.315487982141
 20
3821.565879888331
 30
0.0
 10
-6868.24531156766
 20
3821.551667287909
 30
0.0
 10
-6868.185228557507
 20
3821.52923937055
 30
0.0
 10
-6868.135764821272
 20
3821.495819157852
 30
0.0
 10
-6868.097499330294
 20
3821.452696444247
 30
0.0
 10
-6868.070130672345
 20
3821.400163333654
 30
0.0
 10
-6868.055622576193
 20
3821.338006465467
 30
0.0
 10
-6868.053343311317
 20
3821.293968641666
 30
0.0
 10
-6868.052137512949
 20
3821.270671333566
 30
0.0
  0
SPLINE
  5
85
330
1F
100
AcDbEntity
  8
0
  6
Continuous
 62
     7
370
    25
100
AcDbSpline
210
0.0
220
0.0
230
1.0
 70
     8
 71
     3
 72
    15
 73
    11
 74
     0
 42
0.000000001
 43
0.00000001
 40
0.0
 40
0.0
 40
0.0
 40
0.0
 40
0.1351841494359815
 40
0.255532344253966
 40
0.3670080496607341
 40
0.4751553692095022
 40
0.5866310746162634
 40
0.7096309765286958
 40
0.84481512596466
 40
1.0
 40
1.0
 40
1.0
 40
1.0
 10
-6868.052137512949
 20
3821.270671333566
 30
0.0
 10
-6868.053343311317
 20
3821.247374025466
 30
0.0
 10
-6868.055622576193
 20
3821.203336201665
 30
0.0
 10
-6868.070130672345
 20
3821.141179333479
 30
0.0
 10
-6868.097499330294
 20
3821.088646222885
 30
0.0
 10
-6868.135764821272
 20
3821.04552350928
 30
0.0
 10
-6868.185228557507
 20
3821.012103296582
 30
0.0
 10
-6868.24531156766
 20
3820.989675379223
 30
0.0
 10
-6868.315487982141
 20
3820.975462778802
 30
0.0
 10
-6868.365614131703
 20
3820.974101538034
 30
0.0
 10
-6868.392403560247
 20
3820.973374036269
 30
0.0
  0
SPLINE
  5
88
330
1F
100
AcDbEntity
  8
0
  6
Continuous
 62
     7
370
    25
100
AcDbSpline
210
0.0
220
0.0
230
1.0
 70
     8
 71
     3
 72
    15
 73
    11
 74
     0
 42
0.000000001
 43
0.00000001
 40
0.0
 40
0.0
 40
0.0
 40
0.0
 40
0.1196517683249018
 40
0.2283994244661145
 40
0.3325193999703485
 40
0.4376052586397458
 40
0.5533075967934007
 40
0.6833774865705605
 40
0.8311903582105803
 40
1.0
 40
1.0
 40
1.0
 40
1.0
 10
-6869.209971127813
 20
3816.330426401134
 30
0.0
 10
-6869.210945250522
 20
3816.309762714553
 30
0.0
 10
-6869.212804722131
 20
3816.270318465727
 30
0.0
 10
-6869.23081224279
 20
3816.215233503699
 30
0.0
 10
-6869.26024768195
 20
3816.168222135183
 30
0.0
 10
-6869.303319350208
 20
3816.131466121892
 30
0.0
 10
-6869.356597361929
 20
3816.102272866668
 30
0.0
 10
-6869.421567410985
 20
3816.081537205922
 30
0.0
 10
-6869.498016900685
 20
3816.070880739039
 30
0.0
 10
-6869.552529143042
 20
3816.068981320139
 30
0.0
 10
-6869.581592749436
 20
3816.067968630864
 30
0.0
  0
SPLINE
  5
89
330
1F
100
AcDbEntity
  8
0
  6
Continuous
 62
     7
370
    25
100
AcDbSpline
210
0.0
220
0.0
230
1.0
 70
     8
 71
     3
 72
    15
 73
    11
 74
     0
 42
0.000000001
 43
0.00000001
 40
0.0
 40
0.0
 40
0.0
 40
0.0
 40
0.15389278730916
 40
0.2894095627950683
 40
0.4110724936372231
 40
0.5232401736076245
 40
0.6301460973348937
 40
0.7423137773052817
 40
0.8639767081474943
 40
1.0
 40
1.0
 40
1.0
 40
1.0
 10
-6869.581592749436
 20
3816.067968630864
 30
0.0
 10
-6869.604857260386
 20
3816.068980972501
 30
0.0
 10
-6869.648608316303
 20
3816.070884774207
 30
0.0
 10
-6869.710176514212
 20
3816.081667706202
 30
0.0
 10
-6869.762437731495
 20
3816.1027143897
 30
0.0
 10
-6869.805144174077
 20
3816.132225151979
 30
0.0
 10
-6869.839520530938
 20
3816.169466198231
 30
0.0
 10
-6869.862525914019
 20
3816.216199950944
 30
0.0
 10
-6869.876665070151
 20
3816.270765161897
 30
0.0
 10
-6869.87812133623
 20
3816.30981394993
 30
0.0
 10
-6869.878890046733
 20
3816.330426401134
 30
0.0
  0
SPLINE
  5
8F
330
1F
100
AcDbEntity
  8
0
  6
Continuous
 62
     7
370
    25
100
AcDbSpline
210
0.0
220
0.0
230
1.0
 70
     8
 71
     3
 72
    15
 73
    11
 74
     0
 42
0.000000001
 43
0.00000001
 40
0.0
 40
0.0
 40
0.0
 40
0.0
 40
0.116097265646198
 40
0.2306624149132213
 40
0.3402033629094203
 40
0.450864008978118
 40
0.5714067874389762
 40
0.7001904132460258
 40
0.8420906465169233
 40
0.9999999999999999
 40
0.9999999999999999
 40
0.9999999999999999
 40
0.9999999999999999
 10
-6866.040270958894
 20
3816.258424711944
 30
0.0
 10
-6866.045078061659
 20
3816.243449631206
 30
0.0
 10
-6866.054628828649
 20
3816.213697093388
 30
0.0
 10
-6866.079411025703
 20
3816.174444655832
 30
0.0
 10
-6866.110313748113
 20
3816.141220411257
 30
0.0
 10
-6866.147401970103
 20
3816.113414767632
 30
0.0
 10
-6866.191925616431
 20
3816.093292338132
 30
0.0
 10
-6866.242567659967
 20
3816.077639576664
 30
0.0
 10
-6866.300208793771
 20
3816.070406772415
 30
0.0
 10
-6866.340653661358
 20
3816.068809770091
 30
0.0
 10
-6866.361955925111
 20
3816.067968630864
 30
0.0
  0
SPLINE
  5
90
330
1F
100
AcDbEntity
  8
0
  6
Continuous
 62
     7
370
    25
100
AcDbSpline
210
0.0
220
0.0
230
1.0
 70
     8
 71
     3
 72
    15
 73
    11
 74
     0
 42
0.000000001
 43
0.00000001
 40
0.0
 40
0.0
 40
0.0
 40
0.0
 40
0.149448948319289
 40
0.2804162969478746
 40
0.3983399851956723
 40
0.5106686208066366
 40
0.6187215803246533
 40
0.7328059652649737
 40
0.8584957359314798
 40
1.0
 40
1.0
 40
1.0
 40
1.0
 10
-6866.361955925111
 20
3816.067968630864
 30
0.0
 10
-6866.383347987003
 20
3816.068273469763
 30
0.0
 10
-6866.423486662097
 20
3816.068845449667
 30
0.0
 10
-6866.478985934151
 20
3816.082508145355
 30
0.0
 10
-6866.527253759742
 20
3816.101562440649
 30
0.0
 10
-6866.566082950134
 20
3816.131237965599
 30
0.0
 10
-6866.596367779554
 20
3816.168693271582
 30
0.0
 10
-6866.617259329525
 20
3816.214166107588
 30
0.0
 10
-6866.630051507997
 20
3816.267414919124
 30
0.0
 10
-6866.631680313371
 20
3816.305572904251
 30
0.0
 10
-6866.632542918353
 20
3816.325781130864
 30
0.0
  0
SPLINE
  5
91
330
1F
100
AcDbEntity
  8
0
  6
Continuous
 62
     7
370
    25
100
AcDbSpline
210
0.0
220
0.0
230
1.0
 70
     8
 71
     3
 72
     9
 73
     5
 74
     0
 42
0.000000001
 43
0.00000001
 40
0.0
 40
0.0
 40
0.0
 40
0.0
 40
0.4666082467569863
 40
1.0
 40
1.0
 40
1.0
 40
1.0
 10
-6866.632542918353
 20
3816.325781130864
 30
0.0
 10
-6866.632062113887
 20
3816.337815929054
 30
0.0
 10
-6866.631031689606
 20
3816.363608011113
 30
0.0
 10
-6866.625958418685
 20
3816.388924489519
 30
0.0
 10
-6866.623252377814
 20
3816.402428090323
 30
0.0
  0
SPLINE
  5
93
330
1F
100
AcDbEntity
  8
0
  6
Continuous
 62
     7
370
    25
100
AcDbSpline
210
0.0
220
0.0
230
1.0
 70
     8
 71
     3
 72
    11
 73
     7
 74
     0
 42
0.000000001
 43
0.00000001
 40
0.0
 40
0.0
 40
0.0
 40
0.0
 40
0.2872048350150663
 40
0.5292209857220151
 40
0.7570217140402824
 40
0.9999999999999999
 40
0.9999999999999999
 40
0.9999999999999999
 40
0.9999999999999999
 10
-6865.276123999435
 20
3821.34035038762
 30
0.0
 10
-6865.265431667611
 20
3821.374618138531
 30
0.0
 10
-6865.245729330821
 20
3821.43776196727
 30
0.0
 10
-6865.187207473472
 20
3821.513855240715
 30
0.0
 10
-6865.108941520934
 20
3821.561374918135
 30
0.0
 10
-6865.049929881779
 20
3821.5657239897
 30
0.0
 10
-6865.019472817003
 20
3821.567968630864
 30
0.0
  0
SPLINE
  5
94
330
1F
100
AcDbEntity
  8
0
  6
Continuous
 62
     7
370
    25
100
AcDbSpline
210
0.0
220
0.0
230
1.0
 70
     8
 71
     3
 72
    15
 73
    11
 74
     0
 42
0.000000001
 43
0.00000001
 40
0.0
 40
0.0
 40
0.0
 40
0.0
 40
0.1449966807026199
 40
0.2785627095268958
 40
0.4015672591726497
 40
0.5179666754587126
 40
0.6339949980811072
 40
0.748307061618186
 40
0.8694272750724932
 40
1.0
 40
1.0
 40
1.0
 40
1.0
 10
-6865.019472817003
 20
3821.567968630864
 30
0.0
 10
-6864.998540170039
 20
3821.567308792291
 30
0.0
 10
-6864.958325078025
 20
3821.566041132783
 30
0.0
 10
-6864.900814055204
 20
3821.55620912347
 30
0.0
 10
-6864.850379026414
 20
3821.536790669008
 30
0.0
 10
-6864.804759778572
 20
3821.512689204669
 30
0.0
 10
-6864.766669825276
 20
3821.479660121198
 30
0.0
 10
-6864.733988153913
 20
3821.44047189515
 30
0.0
 10
-6864.709780191858
 20
3821.393019428624
 30
0.0
 10
-6864.698825587016
 20
3821.358340860904
 30
0.0
 10
-6864.693142580517
 20
3821.34035038762
 30
0.0
  0
SPLINE
  5
96
330
1F
100
AcDbEntity
  8
0
  6
Continuous
 62
     7
370
    25
100
AcDbSpline
210
0.0
220
0.0
230
1.0
 70
     8
 71
     3
 72
     9
 73
     5
 74
     0
 42
0.000000001
 43
0.00000001
 40
0.0
 40
0.0
 40
0.0
 40
0.0
 40
0.5188677278480727
 40
1.0
 40
1.0
 40
1.0
 40
1.0
 10
-6863.347175519705
 20
3816.402428090323
 30
0.0
 10
-6863.343816771002
 20
3816.389317687269
 30
0.0
 10
-6863.337343543773
 20
3816.364050355442
 30
0.0
 10
-6863.333788727944
 20
3816.338212538457
 30
0.0
 10
-6863.332078391327
 20
3816.325781130864
 30
0.0
  0
SPLINE
  5
97
330
1F
100
AcDbEntity
  8
0
  6
Continuous
 62
     7
370
    25
100
AcDbSpline
210
0.0
220
0.0
230
1.0
 70
     8
 71
     3
 72
    15
 73
    11
 74
     0
 42
0.000000001
 43
0.00000001
 40
0.0
 40
0.0
 40
0.0
 40
0.0
 40
0.123779485266872
 40
0.2354455429372209
 40
0.3406927178488797
 40
0.4462594699381153
 40
0.5620718480008253
 40
0.6894502587039818
 40
0.8339864943265243
 40
1.0
 40
1.0
 40
1.0
 40
1.0
 10
-6863.332078391327
 20
3816.325781130864
 30
0.0
 10
-6863.333143482866
 20
3816.30552490637
 30
0.0
 10
-6863.335169432927
 20
3816.266994791597
 30
0.0
 10
-6863.351772470231
 20
3816.213231539261
 30
0.0
 10
-6863.379033685376
 20
3816.167473766684
 30
0.0
 10
-6863.418127227586
 20
3816.130353508639
 30
0.0
 10
-6863.467593982317
 20
3816.101002775468
 30
0.0
 10
-6863.528477469457
 20
3816.082385785561
 30
0.0
 10
-6863.598969974038
 20
3816.0688255082
 30
0.0
 10
-6863.649811092462
 20
3816.068267128936
 30
0.0
 10
-6863.676989708894
 20
3816.067968630864
 30
0.0
  0
SPLINE
  5
98
330
1F
100
AcDbEntity
  8
0
  6
Continuous
 62
     7
370
    25
100
AcDbSpline
210
0.0
220
0.0
230
1.0
 70
     8
 71
     3
 72
    11
 73
     7
 74
     0
 42
0.000000001
 43
0.00000001
 40
0.0
 40
0.0
 40
0.0
 40
0.0
 40
0.2659391874995923
 40
0.5003589885931721
 40
0.7349007245721321
 40
1.0
 40
1.0
 40
1.0
 40
1.0
 10
-6863.676989708894
 20
3816.067968630864
 30
0.0
 10
-6863.70767991148
 20
3816.069640377627
 30
0.0
 10
-6863.765422882231
 20
3816.072785734008
 30
0.0
 10
-6863.842496964594
 20
3816.111710177468
 30
0.0
 10
-6863.901253454656
 20
3816.174889383233
 30
0.0
 10
-6863.920137468238
 20
3816.229466965772
 30
0.0
 10
-6863.930156938623
 20
3816.258424711944
 30
0.0
  0
SPLINE
  5
9B
330
1F
100
AcDbEntity
  8
0
  6
Continuous
 62
     7
370
    25
100
AcDbSpline
210
0.0
220
0.0
230
1.0
 70
     8
 71
     3
 72
    15
 73
    11
 74
     0
 42
0.000000001
 43
0.00000001
 40
0.0
 40
0.0
 40
0.0
 40
0.0
 40
0.1274086638640715
 40
0.2492093999587973
 40
0.372083904232525
 40
0.4997357737771647
 40
0.6273876433217747
 40
0.7507906000412308
 40
0.8725913361359304
 40
0.9999999999999999
 40
0.9999999999999999
 40
0.9999999999999999
 40
0.9999999999999999
 10
-6860.20418565484
 20
3816.662563225458
 30
0.0
 10
-6860.159421470216
 20
3816.66507290911
 30
0.0
 10
-6860.071863409001
 20
3816.66998181199
 30
0.0
 10
-6859.945367180804
 20
3816.707274374803
 30
0.0
 10
-6859.829855245163
 20
3816.770208957564
 30
0.0
 10
-6859.727512927646
 20
3816.856013851944
 30
0.0
 10
-6859.641968489595
 20
3816.958623702983
 30
0.0
 10
-6859.577402768945
 20
3817.073482304373
 30
0.0
 10
-6859.540442727066
 20
3817.20036393611
 30
0.0
 10
-6859.535480861624
 20
3817.287893729359
 30
0.0
 10
-6859.532944100787
 20
3817.332643461944
 30
0.0
  0
SPLINE
  5
9D
330
1F
100
AcDbEntity
  8
0
  6
Continuous
 62
     7
370
    25
100
AcDbSpline
210
0.0
220
0.0
230
1.0
 70
     8
 71
     3
 72
    15
 73
    11
 74
     0
 42
0.000000001
 43
0.00000001
 40
0.0
 40
0.0
 40
0.0
 40
0.0
 40
0.12766842518844
 40
0.2497174891406248
 40
0.3724052965255639
 40
0.499469631743425
 40
0.627381758461243
 40
0.7490098240592535
 40
0.8724320578182756
 40
1.0
 40
1.0
 40
1.0
 40
1.0
 10
-6859.532944100787
 20
3818.077048022755
 30
0.0
 10
-6859.535493241262
 20
3818.121792768636
 30
0.0
 10
-6859.540479321087
 20
3818.209312807966
 30
0.0
 10
-6859.577167878133
 20
3818.335936724412
 30
0.0
 10
-6859.641984957915
 20
3818.450013827283
 30
0.0
 10
-6859.727930269084
 20
3818.551326936887
 30
0.0
 10
-6859.82928094203
 20
3818.637150535283
 30
0.0
 10
-6859.945312826895
 20
3818.698809951138
 30
0.0
 10
-6860.071227667223
 20
3818.737918109832
 30
0.0
 10
-6860.159380970791
 20
3818.741714671179
 30
0.0
 10
-6860.20418565484
 20
3818.743644306539
 30
0.0
  0
SPLINE
  5
A1
330
1F
100
AcDbEntity
  8
0
  6
Continuous
 62
     7
370
    25
100
AcDbSpline
210
0.0
220
0.0
230
1.0
 70
     8
 71
     3
 72
    15
 73
    11
 74
     0
 42
0.000000001
 43
0.00000001
 40
0.0
 40
0.0
 40
0.0
 40
0.0
 40
0.1276284167036157
 40
0.2508071631833411
 40
0.3742836487801921
 40
0.5036065028316296
 40
0.6327873107114751
 40
0.7548054560998997
 40
0.8757928466041615
 40
0.9999999999999999
 40
0.9999999999999999
 40
0.9999999999999999
 40
0.9999999999999999
 10
-6860.408577546733
 20
3819.338238901134
 30
0.0
 10
-6860.365326726941
 20
3819.34024503134
 30
0.0
 10
-6860.280332995159
 20
3819.34418734951
 30
0.0
 10
-6860.158372128828
 20
3819.382313089491
 30
0.0
 10
-6860.045555401676
 20
3819.442432149246
 30
0.0
 10
-6859.946269621528
 20
3819.526202868079
 30
0.0
 10
-6859.861849813761
 20
3819.624128167249
 30
0.0
 10
-6859.799777978241
 20
3819.734457255229
 30
0.0
 10
-6859.762060488325
 20
3819.854148455721
 30
0.0
 10
-6859.7579827276
 20
3819.937210044157
 30
0.0
 10
-6859.75591707376
 20
3819.979286198431
 30
0.0
  0
SPLINE
  5
A3
330
1F
100
AcDbEntity
  8
0
  6
Continuous
 62
     7
370
    25
100
AcDbSpline
210
0.0
220
0.0
230
1.0
 70
     8
 71
     3
 72
    15
 73
    11
 74
     0
 42
0.000000001
 43
0.00000001
 40
0.0
 40
0.0
 40
0.0
 40
0.0
 40
0.1245304651428489
 40
0.2458327863376394
 40
0.3671677054605111
 40
0.4958115956037763
 40
0.6247420892948211
 40
0.7485399847073033
 40
0.8720393659864752
 40
1.0
 40
1.0
 40
1.0
 40
1.0
 10
-6859.75591707376
 20
3820.335810691674
 30
0.0
 10
-6859.757996370103
 20
3820.377879818121
 30
0.0
 10
-6859.762101062178
 20
3820.46092753308
 30
0.0
 10
-6859.799518029
 20
3820.580395354956
 30
0.0
 10
-6859.861944133747
 20
3820.689821965371
 30
0.0
 10
-6859.946269139093
 20
3820.786695653024
 30
0.0
 10
-6860.045924789783
 20
3820.86910386999
 30
0.0
 10
-6860.15833265219
 20
3820.929350280557
 30
0.0
 10
-6860.280343270988
 20
3820.967412460197
 30
0.0
 10
-6860.365330192492
 20
3820.971363478712
 30
0.0
 10
-6860.408577546733
 20
3820.973374036269
 30
0.0
  0
SPLINE
  5
A7
330
1F
100
AcDbEntity
  8
0
  6
Continuous
 62
     7
370
    25
100
AcDbSpline
210
0.0
220
0.0
230
1.0
 70
     8
 71
     3
 72
    15
 73
    11
 74
     0
 42
0.000000001
 43
0.00000001
 40
0.0
 40
0.0
 40
0.0
 40
0.0
 40
0.1472985846902899
 40
0.2756504930887403
 40
0.3928141444239688
 40
0.5033990299457405
 40
0.6118667949946106
 40
0.729030446329881
 40
0.8553653506994968
 40
1.0
 40
1.0
 40
1.0
 40
1.0
 10
-6861.566411161597
 20
3816.067968630864
 30
0.0
 10
-6861.587743003747
 20
3816.068963998905
 30
0.0
 10
-6861.627662822528
 20
3816.070826703099
 30
0.0
 10
-6861.683936191174
 20
3816.0817612969
 30
0.0
 10
-6861.731376172057
 20
3816.103106917747
 30
0.0
 10
-6861.770955279046
 20
3816.132350337714
 30
0.0
 10
-6861.801122634173
 20
3816.1714059012
 30
0.0
 10
-6861.821446238263
 20
3816.218569296696
 30
0.0
 10
-6861.834644498967
 20
3816.273596281139
 30
0.0
 10
-6861.836179057754
 20
3816.312920419928
 30
0.0
 10
-6861.83699815484
 20
3816.333910353836
 30
0.0
  0
SPLINE
  5
A9
330
1F
100
AcDbEntity
  8
0
  6
Continuous
 62
     7
370
    25
100
AcDbSpline
210
0.0
220
0.0
230
1.0
 70
     8
 71
     3
 72
    15
 73
    11
 74
     0
 42
0.000000001
 43
0.00000001
 40
0.0
 40
0.0
 40
0.0
 40
0.0
 40
0.1451733701004163
 40
0.27138223298099
 40
0.3889822838669024
 40
0.4995248231294221
 40
0.6083965981540421
 40
0.7259966490399545
 40
0.8548266298995837
 40
1.0
 40
1.0
 40
1.0
 40
1.0
 10
-6861.83699815484
 20
3821.30202690789
 30
0.0
 10
-6861.83603611181
 20
3821.32299017062
 30
0.0
 10
-6861.834237700811
 20
3821.362178191441
 30
0.0
 10
-6861.822848711303
 20
3821.417453067177
 30
0.0
 10
-6861.802401965014
 20
3821.464998814935
 30
0.0
 10
-6861.770953971582
 20
3821.502799650916
 30
0.0
 10
-6861.732508580018
 20
3821.533257010257
 30
0.0
 10
-6861.685020754235
 20
3821.554086227896
 30
0.0
 10
-6861.629228247384
 20
3821.565057646861
 30
0.0
 10
-6861.58968482486
 20
3821.566960470494
 30
0.0
 10
-6861.568733796732
 20
3821.567968630864
 30
0.0
  0
SPLINE
  5
AB
330
1F
100
AcDbEntity
  8
0
  6
Continuous
 62
     7
370
    25
100
AcDbSpline
210
0.0
220
0.0
230
1.0
 70
     8
 71
     3
 72
    23
 73
    19
 74
     0
 42
0.000000001
 43
0.00000001
 40
0.0
 40
0.0
 40
0.0
 40
0.0
 40
0.0699971325042043
 40
0.1369889410780282
 40
0.2025818669322401
 40
0.2663268833207263
 40
0.3299959998498931
 40
0.3931968746882952
 40
0.4576209660458567
 40
0.5225816115471913
 40
0.5870057029047769
 40
0.6493260697673648
 40
0.7088254174031636
 40
0.7677033068043849
 40
0.8250025883224787
 40
0.8828865868295765
 40
0.9405703509601427
 40
1.0
 40
1.0
 40
1.0
 40
1.0
 10
-6860.401609641326
 20
3821.567968630864
 30
0.0
 10
-6860.355476963929
 20
3821.566951945556
 30
0.0
 10
-6860.26519231369
 20
3821.56496222628
 30
0.0
 10
-6860.132817484452
 20
3821.54640671065
 30
0.0
 10
-6860.006155339306
 20
3821.519513147877
 30
0.0
 10
-6859.885333870408
 20
3821.479211427269
 30
0.0
 10
-6859.770183446329
 20
3821.42859253076
 30
0.0
 10
-6859.661289939388
 20
3821.364740046641
 30
0.0
 10
-6859.55797100878
 20
3821.290785769436
 30
0.0
 10
-6859.462427316583
 20
3821.205852842088
 30
0.0
 10
-6859.374399482072
 20
3821.115132446675
 30
0.0
 10
-6859.297816718874
 20
3821.019007060427
 30
0.0
 10
-6859.23315664068
 20
3820.918896049795
 30
0.0
 10
-6859.17940567842
 20
3820.816156873315
 30
0.0
 10
-6859.138645159514
 20
3820.708761538664
 30
0.0
 10
-6859.108090097611
 20
3820.59889675473
 30
0.0
 10
-6859.090255463652
 20
3820.484653765864
 30
0.0
 10
-6859.088094661932
 20
3820.407486438644
 30
0.0
 10
-6859.086998154841
 20
3820.368327583566
 30
0.0
  0
SPLINE
  5
AD
330
1F
100
AcDbEntity
  8
0
  6
Continuous
 62
     7
370
    25
100
AcDbSpline
210
0.0
220
0.0
230
1.0
 70
     8
 71
     3
 72
    15
 73
    11
 74
     0
 42
0.000000001
 43
0.00000001
 40
0.0
 40
0.0
 40
0.0
 40
0.0
 40
0.1326594996416431
 40
0.2606826456506499
 40
0.3835988237723993
 40
0.5044542511718474
 40
0.625113979261385
 40
0.7464377970802096
 40
0.8714347708675995
 40
1.0
 40
1.0
 40
1.0
 40
1.0
 10
-6859.086998154841
 20
3819.99438332681
 30
0.0
 10
-6859.088507635463
 20
3819.950195373965
 30
0.0
 10
-6859.091473841451
 20
3819.863363805291
 30
0.0
 10
-6859.109700059801
 20
3819.736576454565
 30
0.0
 10
-6859.142190867256
 20
3819.616656407051
 30
0.0
 10
-6859.189873619907
 20
3819.504776175313
 30
0.0
 10
-6859.247052523983
 20
3819.397899745695
 30
0.0
 10
-6859.320955063979
 20
3819.300132374337
 30
0.0
 10
-6859.405037622941
 20
3819.207329829489
 30
0.0
 10
-6859.470645559376
 20
3819.153946425127
 30
0.0
 10
-6859.503911161598
 20
3819.126879103836
 30
0.0
  0
SPLINE
  5
AE
330
1F
100
AcDbEntity
  8
0
  6
Continuous
 62
     7
370
    25
100
AcDbSpline
210
0.0
220
0.0
230
1.0
 70
     8
 71
     3
 72
    15
 73
    11
 74
     0
 42
0.000000001
 43
0.00000001
 40
0.0
 40
0.0
 40
0.0
 40
0.0
 40
0.1163154394521647
 40
0.2345647128656675
 40
0.3584180389837352
 40
0.4893481039549494
 40
0.6213683425081308
 40
0.7487484467134584
 40
0.8742380891698484
 40
1.0
 40
1.0
 40
1.0
 40
1.0
 10
-6859.503911161598
 20
3819.126879103836
 30
0.0
 10
-6859.45923454586
 20
3819.104382714474
 30
0.0
 10
-6859.369138531161
 20
3819.059015915913
 30
0.0
 10
-6859.248876049001
 20
3818.96165360744
 30
0.0
 10
-6859.138630541453
 20
3818.845044880128
 30
0.0
 10
-6859.044750083055
 20
3818.707568066582
 30
0.0
 10
-6858.964973866485
 20
3818.560016227339
 30
0.0
 10
-6858.905539119684
 20
3818.405412983595
 30
0.0
 10
-6858.871083321723
 20
3818.24579795282
 30
0.0
 10
-6858.866379594216
 20
3818.137982214503
 30
0.0
 10
-6858.864025181868
 20
3818.084015928161
 30
0.0
  0
SPLINE
  5
B0
330
1F
100
AcDbEntity
  8
0
  6
Continuous
 62
     7
370
    25
100
AcDbSpline
210
0.0
220
0.0
230
1.0
 70
     8
 71
     3
 72
    23
 73
    19
 74
     0
 42
0.000000001
 43
0.00000001
 40
0.0
 40
0.0
 40
0.0
 40
0.0
 40
0.0573718688435296
 40
0.1142717744853534
 40
0.1712775514510721
 40
0.2292072316113945
 40
0.2887537053420813
 40
0.3497535252114093
 40
0.4136630964478047
 40
0.4804032883989324
 40
0.5476011670425167
 40
0.6128875258051786
 40
0.6770090262773691
 40
0.7404371873975989
 40
0.803587472688332
 40
0.8673185838669369
 40
0.9327996288997125
 40
1.0
 40
1.0
 40
1.0
 40
1.0
 10
-6858.864025181868
 20
3817.307094475458
 30
0.0
 10
-6858.865018806853
 20
3817.268688305954
 30
0.0
 10
-6858.866997882882
 20
3817.192191910963
 30
0.0
 10
-6858.886766571391
 20
3817.079009493862
 30
0.0
 10
-6858.91662615783
 20
3816.96785719895
 30
0.0
 10
-6858.960161141472
 20
3816.859289535604
 30
0.0
 10
-6859.016051945227
 20
3816.753565904856
 30
0.0
 10
-6859.084615737882
 20
3816.65083311672
 30
0.0
 10
-6859.16319641645
 20
3816.549362678326
 30
0.0
 10
-6859.254503161899
 20
3816.453323103692
 30
0.0
 10
-6859.353018578895
 20
3816.363457128823
 30
0.0
 10
-6859.45773036945
 20
3816.28348098614
 30
0.0
 10
-6859.568808518009
 20
3816.217496360471
 30
0.0
 10
-6859.683970895249
 20
3816.162186146196
 30
0.0
 10
-6859.804513928689
 20
3816.120475956906
 30
0.0
 10
-6859.929701245136
 20
3816.090233755762
 30
0.0
 10
-6860.059967337411
 20
3816.070898315239
 30
0.0
 10
-6860.148761436661
 20
3816.068953592425
 30
0.0
 10
-6860.193733796734
 20
3816.067968630864
 30
0.0
  0
SPLINE
  5
B2
330
1F
100
AcDbEntity
  8
0
  6
Continuous
 62
     7
370
    25
100
AcDbSpline
210
0.0
220
0.0
230
1.0
 70
     8
 71
     3
 72
    15
 73
    11
 74
     0
 42
0.000000001
 43
0.00000001
 40
0.0
 40
0.0
 40
0.0
 40
0.0
 40
0.1212059526124638
 40
0.2293436564902964
 40
0.3347681309251739
 40
0.4407596617558195
 40
0.5558130396878819
 40
0.6851533834087647
 40
0.83213719078366
 40
1.0
 40
1.0
 40
1.0
 40
1.0
 10
-6881.532944100787
 20
3816.333910353836
 30
0.0
 10
-6881.533866157854
 20
3816.31284762856
 30
0.0
 10
-6881.535610857146
 20
3816.272993130275
 30
0.0
 10
-6881.554047270716
 20
3816.217311375776
 30
0.0
 10
-6881.583164607882
 20
3816.169520638428
 30
0.0
 10
-6881.625893979629
 20
3816.131379768196
 30
0.0
 10
-6881.679623755589
 20
3816.102339300961
 30
0.0
 10
-6881.744523229564
 20
3816.081515872615
 30
0.0
 10
-6881.820995139598
 20
3816.070887287796
 30
0.0
 10
-6881.875503947253
 20
3816.068983597478
 30
0.0
 10
-6881.904565722408
 20
3816.067968630864
 30
0.0
  0
SPLINE
  5
B3
330
1F
100
AcDbEntity
  8
0
  6
Continuous
 62
     7
370
    25
100
AcDbSpline
210
0.0
220
0.0
230
1.0
 70
     8
 71
     3
 72
    15
 73
    11
 74
     0
 42
0.000000001
 43
0.00000001
 40
0.0
 40
0.0
 40
0.0
 40
0.0
 40
0.1538927873091609
 40
0.2894095627949738
 40
0.4110724936372199
 40
0.5232401736076219
 40
0.6301460973348917
 40
0.7423137773052803
 40
0.8639767081474935
 40
1.0
 40
1.0
 40
1.0
 40
1.0
 10
-6881.904565722408
 20
3816.067968630864
 30
0.0
 10
-6881.927830233359
 20
3816.068980972501
 30
0.0
 10
-6881.971581289275
 20
3816.070884774207
 30
0.0
 10
-6882.033149487185
 20
3816.081667706202
 30
0.0
 10
-6882.085410704469
 20
3816.1027143897
 30
0.0
 10
-6882.128117147051
 20
3816.132225151979
 30
0.0
 10
-6882.162493503912
 20
3816.169466198231
 30
0.0
 10
-6882.185498886992
 20
3816.216199950944
 30
0.0
 10
-6882.199638043123
 20
3816.270765161897
 30
0.0
 10
-6882.201094309203
 20
3816.30981394993
 30
0.0
 10
-6882.201863019705
 20
3816.330426401134
 30
0.0
  0
SPLINE
  5
B7
330
1F
100
AcDbEntity
  8
0
  6
Continuous
 62
     7
370
    25
100
AcDbSpline
210
0.0
220
0.0
230
1.0
 70
     8
 71
     3
 72
    15
 73
    11
 74
     0
 42
0.000000001
 43
0.00000001
 40
0.0
 40
0.0
 40
0.0
 40
0.0
 40
0.1196517683249071
 40
0.228399424466098
 40
0.3325193999703831
 40
0.4376052586397207
 40
0.5533075967933808
 40
0.6833774865705464
 40
0.8311903582105727
 40
1.0
 40
1.0
 40
1.0
 40
1.0
 10
-6883.83699815484
 20
3816.330426401134
 30
0.0
 10
-6883.837972277551
 20
3816.309762714553
 30
0.0
 10
-6883.83983174916
 20
3816.270318465727
 30
0.0
 10
-6883.857839269817
 20
3816.215233503699
 30
0.0
 10
-6883.887274708977
 20
3816.168222135183
 30
0.0
 10
-6883.930346377234
 20
3816.131466121892
 30
0.0
 10
-6883.983624388956
 20
3816.102272866668
 30
0.0
 10
-6884.048594438011
 20
3816.081537205922
 30
0.0
 10
-6884.12504392771
 20
3816.070880739039
 30
0.0
 10
-6884.179556170067
 20
3816.068981320139
 30
0.0
 10
-6884.208619776462
 20
3816.067968630864
 30
0.0
  0
SPLINE
  5
B8
330
1F
100
AcDbEntity
  8
0
  6
Continuous
 62
     7
370
    25
100
AcDbSpline
210
0.0
220
0.0
230
1.0
 70
     8
 71
     3
 72
    15
 73
    11
 74
     0
 42
0.000000001
 43
0.00000001
 40
0.0
 40
0.0
 40
0.0
 40
0.0
 40
0.1528612850162831
 40
0.2874697277136235
 40
0.4083171843914844
 40
0.5197330343307374
 40
0.6278222855466407
 40
0.7415060099346156
 40
0.8623534666125092
 40
1.0
 40
1.0
 40
1.0
 40
1.0
 10
-6884.208619776462
 20
3816.067968630864
 30
0.0
 10
-6884.231882697657
 20
3816.068982508408
 30
0.0
 10
-6884.275630763892
 20
3816.070889198527
 30
0.0
 10
-6884.337218673078
 20
3816.081653086918
 30
0.0
 10
-6884.38941589814
 20
3816.102761595055
 30
0.0
 10
-6884.432576089061
 20
3816.132231246468
 30
0.0
 10
-6884.46654889964
 20
3816.17076923779
 30
0.0
 10
-6884.489329166661
 20
3816.218226802403
 30
0.0
 10
-6884.503829871441
 20
3816.273453032532
 30
0.0
 10
-6884.505191835753
 20
3816.312903311631
 30
0.0
 10
-6884.505917073759
 20
3816.333910353836
 30
0.0
  0
SPLINE
  5
BA
330
1F
100
AcDbEntity
  8
0
  6
Continuous
 62
     7
370
    25
100
AcDbSpline
210
0.0
220
0.0
230
1.0
 70
     8
 71
     3
 72
    15
 73
    11
 74
     0
 42
0.000000001
 43
0.00000001
 40
0.0
 40
0.0
 40
0.0
 40
0.0
 40
0.1446346493005032
 40
0.2709695536701189
 40
0.3881332050053894
 40
0.4966009700542595
 40
0.6071858555760312
 40
0.7243495069112598
 40
0.8527014153097102
 40
1.0
 40
1.0
 40
1.0
 40
1.0
 10
-6884.505917073759
 20
3821.30202690789
 30
0.0
 10
-6884.505097976673
 20
3821.323016841799
 30
0.0
 10
-6884.503563417885
 20
3821.362340980588
 30
0.0
 10
-6884.490365157181
 20
3821.41736796503
 30
0.0
 10
-6884.470041553092
 20
3821.464531360527
 30
0.0
 10
-6884.439874197965
 20
3821.503586924013
 30
0.0
 10
-6884.400295090976
 20
3821.532830343979
 30
0.0
 10
-6884.352855110094
 20
3821.554175964827
 30
0.0
 10
-6884.296581741447
 20
3821.565110558628
 30
0.0
 10
-6884.256661922667
 20
3821.566973262822
 30
0.0
 10
-6884.235330080516
 20
3821.567968630864
 30
0.0
  0
SPLINE
  5
BC
330
1F
100
AcDbEntity
  8
0
  6
Continuous
 62
     7
370
    25
100
AcDbSpline
210
0.0
220
0.0
230
1.0
 70
     8
 71
     3
 72
    15
 73
    11
 74
     0
 42
0.000000001
 43
0.00000001
 40
0.0
 40
0.0
 40
0.0
 40
0.0
 40
0.1639665985561083
 40
0.3062159556881419
 40
0.4326931973574411
 40
0.5469961700258583
 40
0.6528275420541693
 40
0.7607314766540596
 40
0.873177309434147
 40
1.0
 40
1.0
 40
1.0
 40
1.0
 10
-6881.877855418355
 20
3821.567968630864
 30
0.0
 10
-6881.850727210644
 20
3821.566967373666
 30
0.0
 10
-6881.800063904073
 20
3821.565097474966
 30
0.0
 10
-6881.728930331156
 20
3821.5543654493
 30
0.0
 10
-6881.668742239521
 20
3821.533348408972
 30
0.0
 10
-6881.618595188467
 20
3821.504552931293
 30
0.0
 10
-6881.579492624806
 20
3821.465828389125
 30
0.0
 10
-6881.552934512768
 20
3821.418224781882
 30
0.0
 10
-6881.53586835121
 20
3821.362768110469
 30
0.0
 10
-6881.533957130579
 20
3821.323069102968
 30
0.0
 10
-6881.532944100787
 20
3821.30202690789
 30
0.0
  0
SPLINE
  5
BE
330
1F
100
AcDbEntity
  8
0
  6
Continuous
 62
     7
370
    25
100
AcDbSpline
210
0.0
220
0.0
230
1.0
 70
     8
 71
     3
 72
    15
 73
    11
 74
     0
 42
0.000000001
 43
0.00000001
 40
0.0
 40
0.0
 40
0.0
 40
0.0
 40
0.1276094144620835
 40
0.2499167177708513
 40
0.3720143427043091
 40
0.500576363807611
 40
0.6284293671556819
 40
0.7514974778095945
 40
0.8734901284089588
 40
1.0
 40
1.0
 40
1.0
 40
1.0
 10
-6877.846457614301
 20
3820.30445511735
 30
0.0
 10
-6877.848852988239
 20
3820.349252672287
 30
0.0
 10
-6877.853544209455
 20
3820.43698646482
 30
0.0
 10
-6877.892433523025
 20
3820.562780466351
 30
0.0
 10
-6877.955424146135
 20
3820.678262801014
 30
0.0
 10
-6878.042337509512
 20
3820.77950622932
 30
0.0
 10
-6878.144442602412
 20
3820.865793663027
 30
0.0
 10
-6878.260064842095
 20
3820.928647225532
 30
0.0
 10
-6878.386158587546
 20
3820.965844592409
 30
0.0
 10
-6878.473324149652
 20
3820.970833989616
 30
0.0
 10
-6878.517699168355
 20
3820.973374036269
 30
0.0
  0
SPLINE
  5
C0
330
1F
100
AcDbEntity
  8
0
  6
Continuous
 62
     7
370
    25
100
AcDbSpline
210
0.0
220
0.0
230
1.0
 70
     8
 71
     3
 72
    15
 73
    11
 74
     0
 42
0.000000001
 43
0.00000001
 40
0.0
 40
0.0
 40
0.0
 40
0.0
 40
0.1097146503989892
 40
0.2209919735938202
 40
0.33827097552513
 40
0.4647338986157517
 40
0.594800964271808
 40
0.7238485466785319
 40
0.8575872448702725
 40
1.0
 40
1.0
 40
1.0
 40
1.0
 10
-6878.888159472408
 20
3820.973374036269
 30
0.0
 10
-6878.924425439544
 20
3820.971103371858
 30
0.0
 10
-6878.99747391231
 20
3820.966529701816
 30
0.0
 10
-6879.104349269259
 20
3820.929712072106
 30
0.0
 10
-6879.204901366294
 20
3820.868503680978
 30
0.0
 10
-6879.299207239023
 20
3820.788204303326
 30
0.0
 10
-6879.380921040311
 20
3820.689441099631
 30
0.0
 10
-6879.439729700792
 20
3820.572860685094
 30
0.0
 10
-6879.475530427105
 20
3820.442812679652
 30
0.0
 10
-6879.479530098095
 20
3820.351530049326
 30
0.0
 10
-6879.481592749435
 20
3820.30445511735
 30
0.0
  0
SPLINE
  5
C2
330
1F
100
AcDbEntity
  8
0
  6
Continuous
 62
     7
370
    25
100
AcDbSpline
210
0.0
220
0.0
230
1.0
 70
     8
 71
     3
 72
    15
 73
    11
 74
     0
 42
0.000000001
 43
0.00000001
 40
0.0
 40
0.0
 40
0.0
 40
0.0
 40
0.143503718383072
 40
0.2760390562758065
 40
0.406061846474792
 40
0.5360582087399385
 40
0.6624523876220278
 40
0.7790740198611197
 40
0.8891793093881766
 40
1.0
 40
1.0
 40
1.0
 40
1.0
 10
-6879.481592749435
 20
3817.331482144377
 30
0.0
 10
-6879.479625436031
 20
3817.283994732507
 30
0.0
 10
-6879.475841176351
 20
3817.192649501141
 30
0.0
 10
-6879.439188298366
 20
3817.062531531988
 30
0.0
 10
-6879.381331783733
 20
3816.945492649323
 30
0.0
 10
-6879.299099780051
 20
3816.846703211786
 30
0.0
 10
-6879.20528127637
 20
3816.7660073635
 30
0.0
 10
-6879.104275228656
 20
3816.706742529677
 30
0.0
 10
-6878.997984962572
 20
3816.669037914663
 30
0.0
 10
-6878.924846914181
 20
3816.664726109346
 30
0.0
 10
-6878.888159472408
 20
3816.662563225458
 30
0.0
  0
SPLINE
  5
C4
330
1F
100
AcDbEntity
  8
0
  6
Continuous
 62
     7
370
    25
100
AcDbSpline
210
0.0
220
0.0
230
1.0
 70
     8
 71
     3
 72
    15
 73
    11
 74
     0
 42
0.000000001
 43
0.00000001
 40
0.0
 40
0.0
 40
0.0
 40
0.0
 40
0.1274982018433533
 40
0.2493845348783044
 40
0.3723453906958302
 40
0.4993842070425148
 40
0.6271257854821235
 40
0.7506154651217244
 40
0.8725017981566696
 40
1.0
 40
1.0
 40
1.0
 40
1.0
 10
-6878.517699168355
 20
3816.662563225458
 30
0.0
 10
-6878.472939417155
 20
3816.665078248949
 30
0.0
 10
-6878.38539002765
 20
3816.669997596473
 30
0.0
 10
-6878.258830772293
 20
3816.707214246208
 30
0.0
 10
-6878.143778622314
 20
3816.770321494809
 30
0.0
 10
-6878.040647552209
 20
3816.854777411676
 30
0.0
 10
-6877.955538969838
 20
3816.957531028238
 30
0.0
 10
-6877.890901548459
 20
3817.072303232875
 30
0.0
 10
-6877.85396010151
 20
3817.199207270822
 30
0.0
 10
-6877.848995681278
 20
3817.286733985642
 30
0.0
 10
-6877.846457614301
 20
3817.331482144377
 30
0.0
  0
SPLINE
  5
C6
330
1F
100
AcDbEntity
  8
0
  6
Continuous
 62
     7
370
    25
100
AcDbSpline
210
0.0
220
0.0
230
1.0
 70
     8
 71
     3
 72
    23
 73
    19
 74
     0
 42
0.000000001
 43
0.00000001
 40
0.0
 40
0.0
 40
0.0
 40
0.0
 40
0.0596984677699006
 40
0.1182376316334197
 40
0.175815676058538
 40
0.2340880145940167
 40
0.2926014098287238
 40
0.3524988403494495
 40
0.4143425792735398
 40
0.4790413569464315
 40
0.5438488242948512
 40
0.6077816006315186
 40
0.6708302096468931
 40
0.7340778404193641
 40
0.7981519974078938
 40
0.8633307390899787
 40
0.9304699138440345
 40
1.0
 40
1.0
 40
1.0
 40
1.0
 10
-6877.177538695381
 20
3817.288513394377
 30
0.0
 10
-6877.178667121818
 20
3817.248586352389
 30
0.0
 10
-6877.180902061416
 20
3817.16950762459
 30
0.0
 10
-6877.198348676082
 20
3817.052884882337
 30
0.0
 10
-6877.229368856759
 20
3816.940272481636
 30
0.0
 10
-6877.270827742159
 20
3816.831080450433
 30
0.0
 10
-6877.324968876863
 20
3816.725808764626
 30
0.0
 10
-6877.39044423594
 20
3816.624416285409
 30
0.0
 10
-6877.467553963737
 20
3816.52619557917
 30
0.0
 10
-6877.556158920395
 20
3816.433694628003
 30
0.0
 10
-6877.65279883654
 20
3816.347352361731
 30
0.0
 10
-6877.758046232133
 20
3816.273771958116
 30
0.0
 10
-6877.867327154405
 20
3816.208179631185
 30
0.0
 10
-6877.984611615053
 20
3816.158037135035
 30
0.0
 10
-6878.106590514389
 20
3816.116265976603
 30
0.0
 10
-6878.235376760062
 20
3816.089484649765
 30
0.0
 10
-6878.3692904748
 20
3816.071031167584
 30
0.0
 10
-6878.460728488577
 20
3816.06900131329
 30
0.0
 10
-6878.507247310246
 20
3816.067968630864
 30
0.0
  0
SPLINE
  5
C8
330
1F
100
AcDbEntity
  8
0
  6
Continuous
 62
     7
370
    25
100
AcDbSpline
210
0.0
220
0.0
230
1.0
 70
     8
 71
     3
 72
    23
 73
    19
 74
     0
 42
0.000000001
 43
0.00000001
 40
0.0
 40
0.0
 40
0.0
 40
0.0
 40
0.0651968273752563
 40
0.128490355451132
 40
0.1911004981255621
 40
0.2525160380295
 40
0.3137365289174454
 40
0.375629792652848
 40
0.4384931710491429
 40
0.5032476829196622
 40
0.5679249615742178
 40
0.6305493581231001
 40
0.6920491304039744
 40
0.7524447192727045
 40
0.8129377656964479
 40
0.873804420208853
 40
0.9359969093510048
 40
1.0
 40
1.0
 40
1.0
 40
1.0
 10
-6878.899772648083
 20
3816.067968630864
 30
0.0
 10
-6878.942019772189
 20
3816.069143122702
 30
0.0
 10
-6879.025280694716
 20
3816.071457819287
 30
0.0
 10
-6879.148201269673
 20
3816.088089252871
 30
0.0
 10
-6879.266651317959
 20
3816.115488431471
 30
0.0
 10
-6879.379935614399
 20
3816.155725446664
 30
0.0
 10
-6879.488833197034
 20
3816.20553982688
 30
0.0
 10
-6879.592251164194
 20
3816.267770870305
 30
0.0
 10
-6879.691739623013
 20
3816.340012078583
 30
0.0
 10
-6879.784751921953
 20
3816.423170129603
 30
0.0
 10
-6879.870214778482
 20
3816.513869921704
 30
0.0
 10
-6879.944717625122
 20
3816.611063870522
 30
0.0
 10
-6880.009563545615
 20
3816.711798714257
 30
0.0
 10
-6880.060246712014
 20
3816.818774507818
 30
0.0
 10
-6880.102007258814
 20
3816.929136237351
 30
0.0
 10
-6880.128915462319
 20
3817.045196403247
 30
0.0
 10
-6880.147416897488
 20
3817.165207246797
 30
0.0
 10
-6880.149470257813
 20
3817.24702007309
 30
0.0
 10
-6880.150511668354
 20
3817.288513394377
 30
0.0
  0
SPLINE
  5
CA
330
1F
100
AcDbEntity
  8
0
  6
Continuous
 62
     7
370
    25
100
AcDbSpline
210
0.0
220
0.0
230
1.0
 70
     8
 71
     3
 72
    23
 73
    19
 74
     0
 42
0.000000001
 43
0.00000001
 40
0.0
 40
0.0
 40
0.0
 40
0.0
 40
0.0640219079057581
 40
0.1262326819779704
 40
0.1865365373545998
 40
0.2470473690630235
 40
0.3074607145633718
 40
0.3689785681117932
 40
0.4316213765738742
 40
0.4963176707001248
 40
0.5610912207493406
 40
0.6243271406750837
 40
0.6867528751010498
 40
0.7479913651462937
 40
0.8094249615530016
 40
0.8714718676855094
 40
0.9347840044028907
 40
1.0
 40
1.0
 40
1.0
 40
1.0
 10
-6880.150511668354
 20
3820.34742386735
 30
0.0
 10
-6880.149460542018
 20
3820.388914832499
 30
0.0
 10
-6880.147388024955
 20
3820.470723013168
 30
0.0
 10
-6880.129083145601
 20
3820.590395160535
 30
0.0
 10
-6880.101790620782
 20
3820.705972428499
 30
0.0
 10
-6880.06026928245
 20
3820.816007127428
 30
0.0
 10
-6880.009556316397
 20
3820.922974182123
 30
0.0
 10
-6879.944723712588
 20
3821.023718651945
 30
0.0
 10
-6879.870197276311
 20
3821.120882054237
 30
0.0
 10
-6879.784817935134
 20
3821.211698123427
 30
0.0
 10
-6879.691324911671
 20
3821.29457592254
 30
0.0
 10
-6879.592482237325
 20
3821.368694207396
 30
0.0
 10
-6879.487808971463
 20
3821.429990419027
 30
0.0
 10
-6879.378823231182
 20
3821.480303237688
 30
0.0
 10
-6879.265815020721
 20
3821.52022274506
 30
0.0
 10
-6879.147855700703
 20
3821.548011573745
 30
0.0
 10
-6879.02527327077
 20
3821.564449965038
 30
0.0
 10
-6878.942017273223
 20
3821.566784216669
 30
0.0
 10
-6878.899772648083
 20
3821.567968630864
 30
0.0
  0
SPLINE
  5
CC
330
1F
100
AcDbEntity
  8
0
  6
Continuous
 62
     7
370
    25
100
AcDbSpline
210
0.0
220
0.0
230
1.0
 70
     8
 71
     3
 72
    23
 73
    19
 74
     0
 42
0.000000001
 43
0.00000001
 40
0.0
 40
0.0
 40
0.0
 40
0.0
 40
0.0695660886455684
 40
0.1367400278818026
 40
0.2020784391817923
 40
0.2654541770857372
 40
0.3289700421547244
 40
0.3917607770916675
 40
0.4560640589846517
 40
0.5209050834635011
 40
0.5856373619875883
 40
0.647872641376898
 40
0.707801086624324
 40
0.7663447799360226
 40
0.8241067595132525
 40
0.8822738882014347
 40
0.9402706205257817
 40
1.0
 40
1.0
 40
1.0
 40
1.0
 10
-6878.507247310246
 20
3821.567968630864
 30
0.0
 10
-6878.460740218386
 20
3821.566889935432
 30
0.0
 10
-6878.369325260877
 20
3821.564769637364
 30
0.0
 10
-6878.235161197892
 20
3821.546959163097
 30
0.0
 10
-6878.107380048688
 20
3821.517872116378
 30
0.0
 10
-6877.984842352966
 20
3821.478482399524
 30
0.0
 10
-6877.869226390714
 20
3821.425912276261
 30
0.0
 10
-6877.758413368248
 20
3821.362665150988
 30
0.0
 10
-6877.654424086305
 20
3821.287142785668
 30
0.0
 10
-6877.557170591956
 20
3821.20125330812
 30
0.0
 10
-6877.468844970098
 20
3821.108156828975
 30
0.0
 10
-6877.39033760352
 20
3821.01075867631
 30
0.0
 10
-6877.324988508073
 20
3820.908931385982
 30
0.0
 10
-6877.271137787167
 20
3820.803973119109
 30
0.0
 10
-6877.228883896127
 20
3820.695047822237
 30
0.0
 10
-6877.198711767687
 20
3820.582578527375
 30
0.0
 10
-6877.180776602022
 20
3820.46606919109
 30
0.0
 10
-6877.17862853573
 20
3820.387358453278
 30
0.0
 10
-6877.177538695381
 20
3820.34742386735
 30
0.0
  0
SPLINE
  5
D1
330
1F
100
AcDbEntity
  8
0
  6
Continuous
 62
     7
370
    25
100
AcDbSpline
210
0.0
220
0.0
230
1.0
 70
     8
 71
     3
 72
    15
 73
    11
 74
     0
 42
0.000000001
 43
0.00000001
 40
0.0
 40
0.0
 40
0.0
 40
0.0
 40
0.116097265646198
 40
0.2306624149132213
 40
0.3402033629094203
 40
0.450864008978118
 40
0.5714067874389762
 40
0.7001904132460258
 40
0.8420906465169233
 40
0.9999999999999999
 40
0.9999999999999999
 40
0.9999999999999999
 40
0.9999999999999999
 10
-6856.883514202138
 20
3816.258424711944
 30
0.0
 10
-6856.888321304902
 20
3816.243449631206
 30
0.0
 10
-6856.897872071892
 20
3816.213697093388
 30
0.0
 10
-6856.922654268947
 20
3816.174444655832
 30
0.0
 10
-6856.953556991356
 20
3816.141220411257
 30
0.0
 10
-6856.990645213345
 20
3816.113414767632
 30
0.0
 10
-6857.035168859675
 20
3816.093292338132
 30
0.0
 10
-6857.085810903211
 20
3816.077639576664
 30
0.0
 10
-6857.143452037015
 20
3816.070406772415
 30
0.0
 10
-6857.183896904601
 20
3816.068809770091
 30
0.0
 10
-6857.205199168354
 20
3816.067968630864
 30
0.0
  0
SPLINE
  5
D2
330
1F
100
AcDbEntity
  8
0
  6
Continuous
 62
     7
370
    25
100
AcDbSpline
210
0.0
220
0.0
230
1.0
 70
     8
 71
     3
 72
    15
 73
    11
 74
     0
 42
0.000000001
 43
0.00000001
 40
0.0
 40
0.0
 40
0.0
 40
0.0
 40
0.149448948319289
 40
0.2804162969478746
 40
0.3983399851956723
 40
0.5106686208066366
 40
0.6187215803246533
 40
0.7328059652649737
 40
0.8584957359314798
 40
1.0
 40
1.0
 40
1.0
 40
1.0
 10
-6857.205199168354
 20
3816.067968630864
 30
0.0
 10
-6857.226591230246
 20
3816.068273469763
 30
0.0
 10
-6857.266729905341
 20
3816.068845449667
 30
0.0
 10
-6857.322229177395
 20
3816.082508145355
 30
0.0
 10
-6857.370497002986
 20
3816.101562440649
 30
0.0
 10
-6857.409326193377
 20
3816.131237965599
 30
0.0
 10
-6857.439611022798
 20
3816.168693271582
 30
0.0
 10
-6857.460502572768
 20
3816.214166107588
 30
0.0
 10
-6857.473294751241
 20
3816.267414919124
 30
0.0
 10
-6857.474923556615
 20
3816.305572904251
 30
0.0
 10
-6857.475786161597
 20
3816.325781130864
 30
0.0
  0
SPLINE
  5
D3
330
1F
100
AcDbEntity
  8
0
  6
Continuous
 62
     7
370
    25
100
AcDbSpline
210
0.0
220
0.0
230
1.0
 70
     8
 71
     3
 72
     9
 73
     5
 74
     0
 42
0.000000001
 43
0.00000001
 40
0.0
 40
0.0
 40
0.0
 40
0.0
 40
0.4666082467569863
 40
1.0
 40
1.0
 40
1.0
 40
1.0
 10
-6857.475786161597
 20
3816.325781130864
 30
0.0
 10
-6857.47530535713
 20
3816.337815929054
 30
0.0
 10
-6857.47427493285
 20
3816.363608011113
 30
0.0
 10
-6857.469201661928
 20
3816.388924489519
 30
0.0
 10
-6857.466495621057
 20
3816.402428090323
 30
0.0
  0
SPLINE
  5
D5
330
1F
100
AcDbEntity
  8
0
  6
Continuous
 62
     7
370
    25
100
AcDbSpline
210
0.0
220
0.0
230
1.0
 70
     8
 71
     3
 72
    11
 73
     7
 74
     0
 42
0.000000001
 43
0.00000001
 40
0.0
 40
0.0
 40
0.0
 40
0.0
 40
0.2872048350150663
 40
0.5292209857220151
 40
0.7570217140402824
 40
0.9999999999999999
 40
0.9999999999999999
 40
0.9999999999999999
 40
0.9999999999999999
 10
-6856.119367242679
 20
3821.34035038762
 30
0.0
 10
-6856.108674910854
 20
3821.374618138531
 30
0.0
 10
-6856.088972574064
 20
3821.43776196727
 30
0.0
 10
-6856.030450716715
 20
3821.513855240715
 30
0.0
 10
-6855.952184764177
 20
3821.561374918135
 30
0.0
 10
-6855.893173125023
 20
3821.5657239897
 30
0.0
 10
-6855.862716060245
 20
3821.567968630864
 30
0.0
  0
SPLINE
  5
D6
330
1F
100
AcDbEntity
  8
0
  6
Continuous
 62
     7
370
    25
100
AcDbSpline
210
0.0
220
0.0
230
1.0
 70
     8
 71
     3
 72
    15
 73
    11
 74
     0
 42
0.000000001
 43
0.00000001
 40
0.0
 40
0.0
 40
0.0
 40
0.0
 40
0.1449966807026199
 40
0.2785627095268958
 40
0.4015672591726497
 40
0.5179666754587126
 40
0.6339949980811072
 40
0.748307061618186
 40
0.8694272750724932
 40
1.0
 40
1.0
 40
1.0
 40
1.0
 10
-6855.862716060245
 20
3821.567968630864
 30
0.0
 10
-6855.841783413282
 20
3821.567308792291
 30
0.0
 10
-6855.801568321269
 20
3821.566041132783
 30
0.0
 10
-6855.744057298447
 20
3821.55620912347
 30
0.0
 10
-6855.693622269659
 20
3821.536790669008
 30
0.0
 10
-6855.648003021814
 20
3821.512689204669
 30
0.0
 10
-6855.609913068519
 20
3821.479660121198
 30
0.0
 10
-6855.577231397155
 20
3821.44047189515
 30
0.0
 10
-6855.5530234351
 20
3821.393019428624
 30
0.0
 10
-6855.542068830259
 20
3821.358340860904
 30
0.0
 10
-6855.536385823761
 20
3821.34035038762
 30
0.0
  0
SPLINE
  5
D8
330
1F
100
AcDbEntity
  8
0
  6
Continuous
 62
     7
370
    25
100
AcDbSpline
210
0.0
220
0.0
230
1.0
 70
     8
 71
     3
 72
     9
 73
     5
 74
     0
 42
0.000000001
 43
0.00000001
 40
0.0
 40
0.0
 40
0.0
 40
0.0
 40
0.5188677278480727
 40
1.0
 40
1.0
 40
1.0
 40
1.0
 10
-6854.190418762949
 20
3816.402428090323
 30
0.0
 10
-6854.187060014245
 20
3816.389317687269
 30
0.0
 10
-6854.180586787017
 20
3816.364050355442
 30
0.0
 10
-6854.177031971188
 20
3816.338212538457
 30
0.0
 10
-6854.175321634571
 20
3816.325781130864
 30
0.0
  0
SPLINE
  5
D9
330
1F
100
AcDbEntity
  8
0
  6
Continuous
 62
     7
370
    25
100
AcDbSpline
210
0.0
220
0.0
230
1.0
 70
     8
 71
     3
 72
    15
 73
    11
 74
     0
 42
0.000000001
 43
0.00000001
 40
0.0
 40
0.0
 40
0.0
 40
0.0
 40
0.123779485266872
 40
0.2354455429372209
 40
0.3406927178488797
 40
0.4462594699381153
 40
0.5620718480008253
 40
0.6894502587039818
 40
0.8339864943265243
 40
1.0
 40
1.0
 40
1.0
 40
1.0
 10
-6854.175321634571
 20
3816.325781130864
 30
0.0
 10
-6854.17638672611
 20
3816.30552490637
 30
0.0
 10
-6854.17841267617
 20
3816.266994791597
 30
0.0
 10
-6854.195015713474
 20
3816.213231539261
 30
0.0
 10
-6854.222276928621
 20
3816.167473766684
 30
0.0
 10
-6854.261370470829
 20
3816.130353508639
 30
0.0
 10
-6854.310837225561
 20
3816.101002775468
 30
0.0
 10
-6854.371720712701
 20
3816.082385785561
 30
0.0
 10
-6854.442213217282
 20
3816.0688255082
 30
0.0
 10
-6854.493054335706
 20
3816.068267128936
 30
0.0
 10
-6854.520232952137
 20
3816.067968630864
 30
0.0
  0
SPLINE
  5
DA
330
1F
100
AcDbEntity
  8
0
  6
Continuous
 62
     7
370
    25
100
AcDbSpline
210
0.0
220
0.0
230
1.0
 70
     8
 71
     3
 72
    11
 73
     7
 74
     0
 42
0.000000001
 43
0.00000001
 40
0.0
 40
0.0
 40
0.0
 40
0.0
 40
0.2659391874995923
 40
0.5003589885931721
 40
0.7349007245721321
 40
1.0
 40
1.0
 40
1.0
 40
1.0
 10
-6854.520232952137
 20
3816.067968630864
 30
0.0
 10
-6854.550923154723
 20
3816.069640377627
 30
0.0
 10
-6854.608666125476
 20
3816.072785734008
 30
0.0
 10
-6854.685740207838
 20
3816.111710177468
 30
0.0
 10
-6854.744496697901
 20
3816.174889383233
 30
0.0
 10
-6854.763380711481
 20
3816.229466965772
 30
0.0
 10
-6854.773400181867
 20
3816.258424711944
 30
0.0
  0
CIRCLE
  5
DE
330
1F
100
AcDbEntity
  8
0
  6
Continuous
 62
     7
370
    25
100
AcDbCircle
 10
-6866.6419351701
 20
3825.2588213572
 30
0.0
 40
0.7499999999990905
  0
CIRCLE
  5
DF
330
1F
100
AcDbEntity
  8
0
  6
Continuous
 62
     7
370
    25
100
AcDbCircle
 10
-6866.6419351701
 20
3825.2588213572
 30
0.0
 40
1.500000000000455
  0
SPLINE
  5
17D
330
1F
100
AcDbEntity
  8
0
  6
Continuous
 62
     7
370
    25
100
AcDbSpline
210
0.0
220
0.0
230
1.0
 70
     8
 71
     3
 72
     8
 73
     4
 74
     0
 42
0.000000001
 43
0.00000001
 40
0.375
 40
0.375
 40
0.375
 40
0.375
 40
0.3796296296296297
 40
0.3796296296296297
 40
0.3796296296296297
 40
0.3796296296296297
 10
-6926.28253955027
 20
3859.944064678338
 30
0.0
 10
-6926.974435550271
 20
3858.862194011672
 30
0.0
 10
-6926.746639883604
 20
3858.602394345005
 30
0.0
 10
-6925.599152550272
 20
3859.164665678339
 30
0.0
  0
SPLINE
  5
17E
330
1F
100
AcDbEntity
  8
0
  6
Continuous
 62
     7
370
    25
100
AcDbSpline
210
0.0
220
0.0
230
1.0
 70
     8
 71
     3
 72
     8
 73
     4
 74
     0
 42
0.000000001
 43
0.00000001
 40
0.3796296296296297
 40
0.3796296296296297
 40
0.3796296296296297
 40
0.3796296296296297
 40
0.3842592592592592
 40
0.3842592592592592
 40
0.3842592592592592
 40
0.3842592592592592
 10
-6925.59915255027
 20
3859.164665678339
 30
0.0
 10
-6924.454035883606
 20
3859.727191011671
 30
0.0
 10
-6923.567618216938
 20
3859.846401678338
 30
0.0
 10
-6922.939899550272
 20
3859.522297678338
 30
0.0
  0
SPLINE
  5
181
330
1F
100
AcDbEntity
  8
0
  6
Continuous
 62
     7
370
    25
100
AcDbSpline
210
0.0
220
0.0
230
1.0
 70
     8
 71
     3
 72
     8
 73
     4
 74
     0
 42
0.000000001
 43
0.00000001
 40
0.3935185185185185
 40
0.3935185185185185
 40
0.3935185185185185
 40
0.3935185185185185
 40
0.3981481481481481
 40
0.3981481481481481
 40
0.3981481481481481
 40
0.3981481481481481
 10
-6920.993370550271
 20
3861.144214678338
 30
0.0
 10
-6920.474194550271
 20
3860.387040678338
 30
0.0
 10
-6920.192720216939
 20
3860.581816345004
 30
0.0
 10
-6920.148947550271
 20
3861.728541678338
 30
0.0
  0
SPLINE
  5
182
330
1F
100
AcDbEntity
  8
0
  6
Continuous
 62
     7
370
    25
100
AcDbSpline
210
0.0
220
0.0
230
1.0
 70
     8
 71
     3
 72
     8
 73
     4
 74
     0
 42
0.000000001
 43
0.00000001
 40
0.3981481481481481
 40
0.3981481481481481
 40
0.3981481481481481
 40
0.3981481481481481
 40
0.4027777777777778
 40
0.4027777777777778
 40
0.4027777777777778
 40
0.4027777777777778
 10
-6920.148947550271
 20
3861.728541678339
 30
0.0
 10
-6920.084431550271
 20
3862.875097678339
 30
0.0
 10
-6919.965559550271
 20
3863.383351678338
 30
0.0
 10
-6919.792331550272
 20
3863.253303678338
 30
0.0
  0
SPLINE
  5
1B5
330
1F
100
AcDbEntity
  8
0
  6
Continuous
 62
     7
370
    25
100
AcDbSpline
210
0.0
220
0.0
230
1.0
 70
     8
 71
     3
 72
     8
 73
     4
 74
     0
 42
0.000000001
 43
0.00000001
 40
0.6342592592592593
 40
0.6342592592592593
 40
0.6342592592592593
 40
0.6342592592592593
 40
0.6381596760414955
 40
0.6381596760414955
 40
0.6381596760414955
 40
0.6381596760414955
 10
-6864.665187550272
 20
3850.047208678338
 30
0.0
 10
-6864.337351091837
 20
3851.286510381739
 30
0.0
 10
-6864.224656545253
 20
3852.003762423622
 30
0.0
 10
-6864.327103910516
 20
3852.198964803988
 30
0.0
  0
SPLINE
  5
1B6
330
1F
100
AcDbEntity
  8
0
  6
Continuous
 62
     7
370
    25
100
AcDbSpline
210
0.0
220
0.0
230
1.0
 70
     8
 71
     3
 72
     8
 73
     4
 74
     0
 42
0.000000001
 43
0.00000001
 40
0.6405557844731699
 40
0.6405557844731699
 40
0.6405557844731699
 40
0.6405557844731699
 40
0.6435185185185185
 40
0.6435185185185185
 40
0.6435185185185185
 40
0.6435185185185185
 10
-6864.327103910571
 20
3852.198964803781
 30
0.0
 10
-6864.080358494966
 20
3852.134099466888
 30
0.0
 10
-6863.479313041533
 20
3852.011588425074
 30
0.0
 10
-6862.523967550272
 20
3851.831431678338
 30
0.0
  0
LINE
  5
1B7
330
1F
100
AcDbEntity
  8
0
  6
Continuous
 62
     7
370
    25
100
AcDbLine
 10
-6875.8020741684
 20
3816.4152025836
 30
0.0
 11
-6874.2598444386
 21
3821.3809965025
 31
0.0
  0
LINE
  5
1B8
330
1F
100
AcDbEntity
  8
0
  6
Continuous
 62
     7
370
    25
100
AcDbLine
 10
-6874.0031932562
 20
3821.5679686309
 30
0.0
 11
-6872.82213329
 21
3821.5679686309
 31
0.0
  0
LINE
  5
1B9
330
1F
100
AcDbEntity
  8
0
  6
Continuous
 62
     7
370
    25
100
AcDbLine
 10
-6872.4505116684
 20
3821.3020269079
 30
0.0
 11
-6872.4505116684
 21
3816.3339103538
 31
0.0
  0
LINE
  5
1BA
330
1F
100
AcDbEntity
  8
0
  6
Continuous
 62
     7
370
    25
100
AcDbLine
 10
-6873.1194305873
 20
3816.3304264011
 30
0.0
 11
-6873.1194305873
 21
3820.9733740363
 31
0.0
  0
LINE
  5
1BB
330
1F
100
AcDbEntity
  8
0
  6
Continuous
 62
     7
370
    25
100
AcDbLine
 10
-6873.1194305873
 20
3820.9733740363
 30
0.0
 11
-6873.7349288981
 21
3820.9733740363
 31
0.0
  0
LINE
  5
1BC
330
1F
100
AcDbEntity
  8
0
  6
Continuous
 62
     7
370
    25
100
AcDbLine
 10
-6873.7349288981
 20
3820.9733740363
 30
0.0
 11
-6875.2190927494
 21
3816.2549407592
 31
0.0
  0
LINE
  5
1BD
330
1F
100
AcDbEntity
  8
0
  6
Continuous
 62
     7
370
    25
100
AcDbLine
 10
-6869.8788900467
 20
3820.9733740363
 30
0.0
 11
-6870.7661366684
 21
3820.9733740363
 31
0.0
  0
LINE
  5
1BE
330
1F
100
AcDbEntity
  8
0
  6
Continuous
 62
     7
370
    25
100
AcDbLine
 10
-6870.7661366684
 20
3821.5679686309
 30
0.0
 11
-6868.3924035602
 21
3821.5679686309
 31
0.0
  0
LINE
  5
1BF
330
1F
100
AcDbEntity
  8
0
  6
Continuous
 62
     7
370
    25
100
AcDbLine
 10
-6868.3924035602
 20
3820.9733740363
 30
0.0
 11
-6869.2099711278
 21
3820.9733740363
 31
0.0
  0
LINE
  5
1C0
330
1F
100
AcDbEntity
  8
0
  6
Continuous
 62
     7
370
    25
100
AcDbLine
 10
-6869.2099711278
 20
3820.9733740363
 30
0.0
 11
-6869.2099711278
 21
3816.3304264011
 31
0.0
  0
LINE
  5
1C1
330
1F
100
AcDbEntity
  8
0
  6
Continuous
 62
     7
370
    25
100
AcDbLine
 10
-6869.8788900467
 20
3816.3304264011
 30
0.0
 11
-6869.8788900467
 21
3820.9733740363
 31
0.0
  0
LINE
  5
1C2
330
1F
100
AcDbEntity
  8
0
  6
Continuous
 62
     7
370
    25
100
AcDbLine
 10
-6864.98463329
 20
3820.5355573133
 30
0.0
 11
-6865.5525175805
 21
3818.1490497119
 31
0.0
  0
LINE
  5
1C3
330
1F
100
AcDbEntity
  8
0
  6
Continuous
 62
     7
370
    25
100
AcDbLine
 10
-6865.5525175805
 20
3818.1490497119
 30
0.0
 11
-6864.4132650467
 21
3818.1490497119
 31
0.0
  0
LINE
  5
1C4
330
1F
100
AcDbEntity
  8
0
  6
Continuous
 62
     7
370
    25
100
AcDbLine
 10
-6864.4132650467
 20
3818.1490497119
 30
0.0
 11
-6864.98463329
 21
3820.5355573133
 31
0.0
  0
LINE
  5
1C5
330
1F
100
AcDbEntity
  8
0
  6
Continuous
 62
     7
370
    25
100
AcDbLine
 10
-6865.6779398778
 20
3817.5544551173
 30
0.0
 11
-6866.0402709589
 21
3816.2584247119
 31
0.0
  0
LINE
  5
1C6
330
1F
100
AcDbEntity
  8
0
  6
Continuous
 62
     7
370
    25
100
AcDbLine
 10
-6866.6232523778
 20
3816.4024280903
 30
0.0
 11
-6865.2761239994
 21
3821.3403503876
 31
0.0
  0
LINE
  5
1C7
330
1F
100
AcDbEntity
  8
0
  6
Continuous
 62
     7
370
    25
100
AcDbLine
 10
-6864.6931425805
 20
3821.3403503876
 30
0.0
 11
-6863.3471755197
 21
3816.4024280903
 31
0.0
  0
LINE
  5
1C8
330
1F
100
AcDbEntity
  8
0
  6
Continuous
 62
     7
370
    25
100
AcDbLine
 10
-6863.9301569386
 20
3816.2584247119
 30
0.0
 11
-6864.2924880197
 21
3817.5544551173
 31
0.0
  0
LINE
  5
1C9
330
1F
100
AcDbEntity
  8
0
  6
Continuous
 62
     7
370
    25
100
AcDbLine
 10
-6864.2924880197
 20
3817.5544551173
 30
0.0
 11
-6865.6779398778
 21
3817.5544551173
 31
0.0
  0
LINE
  5
1CA
330
1F
100
AcDbEntity
  8
0
  6
Continuous
 62
     7
370
    25
100
AcDbLine
 10
-6859.5329441008
 20
3817.3326434619
 30
0.0
 11
-6859.5329441008
 21
3818.0770480228
 31
0.0
  0
LINE
  5
1CB
330
1F
100
AcDbEntity
  8
0
  6
Continuous
 62
     7
370
    25
100
AcDbLine
 10
-6860.2041856548
 20
3818.7436443065
 30
0.0
 11
-6861.1680792359
 21
3818.7436443065
 31
0.0
  0
LINE
  5
1CC
330
1F
100
AcDbEntity
  8
0
  6
Continuous
 62
     7
370
    25
100
AcDbLine
 10
-6861.1680792359
 20
3818.7436443065
 30
0.0
 11
-6861.1680792359
 21
3816.6625632255
 31
0.0
  0
LINE
  5
1CD
330
1F
100
AcDbEntity
  8
0
  6
Continuous
 62
     7
370
    25
100
AcDbLine
 10
-6861.1680792359
 20
3816.6625632255
 30
0.0
 11
-6860.2041856548
 21
3816.6625632255
 31
0.0
  0
LINE
  5
1CE
330
1F
100
AcDbEntity
  8
0
  6
Continuous
 62
     7
370
    25
100
AcDbLine
 10
-6859.7559170738
 20
3819.9792861984
 30
0.0
 11
-6859.7559170738
 21
3820.3358106917
 31
0.0
  0
LINE
  5
1CF
330
1F
100
AcDbEntity
  8
0
  6
Continuous
 62
     7
370
    25
100
AcDbLine
 10
-6860.4085775467
 20
3820.9733740363
 30
0.0
 11
-6861.1680792359
 21
3820.9733740363
 31
0.0
  0
LINE
  5
1D0
330
1F
100
AcDbEntity
  8
0
  6
Continuous
 62
     7
370
    25
100
AcDbLine
 10
-6861.1680792359
 20
3820.9733740363
 30
0.0
 11
-6861.1680792359
 21
3819.3382389011
 31
0.0
  0
LINE
  5
1D1
330
1F
100
AcDbEntity
  8
0
  6
Continuous
 62
     7
370
    25
100
AcDbLine
 10
-6861.1680792359
 20
3819.3382389011
 30
0.0
 11
-6860.4085775467
 21
3819.3382389011
 31
0.0
  0
LINE
  5
1D2
330
1F
100
AcDbEntity
  8
0
  6
Continuous
 62
     7
370
    25
100
AcDbLine
 10
-6861.8369981548
 20
3816.3339103538
 30
0.0
 11
-6861.8369981548
 21
3821.3020269079
 31
0.0
  0
LINE
  5
1D3
330
1F
100
AcDbEntity
  8
0
  6
Continuous
 62
     7
370
    25
100
AcDbLine
 10
-6861.5687337967
 20
3821.5679686309
 30
0.0
 11
-6860.4016096413
 21
3821.5679686309
 31
0.0
  0
LINE
  5
1D4
330
1F
100
AcDbEntity
  8
0
  6
Continuous
 62
     7
370
    25
100
AcDbLine
 10
-6859.0869981548
 20
3820.3683275836
 30
0.0
 11
-6859.0869981548
 21
3819.9943833268
 31
0.0
  0
LINE
  5
1D5
330
1F
100
AcDbEntity
  8
0
  6
Continuous
 62
     7
370
    25
100
AcDbLine
 10
-6858.8640251819
 20
3818.0840159282
 30
0.0
 11
-6858.8640251819
 21
3817.3070944755
 31
0.0
  0
LINE
  5
1D6
330
1F
100
AcDbEntity
  8
0
  6
Continuous
 62
     7
370
    25
100
AcDbLine
 10
-6860.1937337967
 20
3816.0679686309
 30
0.0
 11
-6861.5664111616
 21
3816.0679686309
 31
0.0
  0
LINE
  5
1D7
330
1F
100
AcDbEntity
  8
0
  6
Continuous
 62
     7
370
    25
100
AcDbLine
 10
-6882.2018630197
 20
3816.3304264011
 30
0.0
 11
-6882.2018630197
 21
3820.9733740363
 31
0.0
  0
LINE
  5
1D8
330
1F
100
AcDbEntity
  8
0
  6
Continuous
 62
     7
370
    25
100
AcDbLine
 10
-6882.2018630197
 20
3820.9733740363
 30
0.0
 11
-6883.8369981548
 21
3820.9733740363
 31
0.0
  0
LINE
  5
1D9
330
1F
100
AcDbEntity
  8
0
  6
Continuous
 62
     7
370
    25
100
AcDbLine
 10
-6883.8369981548
 20
3820.9733740363
 30
0.0
 11
-6883.8369981548
 21
3816.3304264011
 31
0.0
  0
LINE
  5
1DA
330
1F
100
AcDbEntity
  8
0
  6
Continuous
 62
     7
370
    25
100
AcDbLine
 10
-6884.5059170738
 20
3816.3339103538
 30
0.0
 11
-6884.5059170738
 21
3821.3020269079
 31
0.0
  0
LINE
  5
1DB
330
1F
100
AcDbEntity
  8
0
  6
Continuous
 62
     7
370
    25
100
AcDbLine
 10
-6884.2353300805
 20
3821.5679686309
 30
0.0
 11
-6881.8778554184
 21
3821.5679686309
 31
0.0
  0
LINE
  5
1DC
330
1F
100
AcDbEntity
  8
0
  6
Continuous
 62
     7
370
    25
100
AcDbLine
 10
-6881.5329441008
 20
3821.3020269079
 30
0.0
 11
-6881.5329441008
 21
3816.3339103538
 31
0.0
  0
LINE
  5
1DD
330
1F
100
AcDbEntity
  8
0
  6
Continuous
 62
     7
370
    25
100
AcDbLine
 10
-6878.5176991684
 20
3820.9733740363
 30
0.0
 11
-6878.8881594724
 21
3820.9733740363
 31
0.0
  0
LINE
  5
1DE
330
1F
100
AcDbEntity
  8
0
  6
Continuous
 62
     7
370
    25
100
AcDbLine
 10
-6879.4815927494
 20
3820.3044551174
 30
0.0
 11
-6879.4815927494
 21
3817.3314821444
 31
0.0
  0
LINE
  5
1DF
330
1F
100
AcDbEntity
  8
0
  6
Continuous
 62
     7
370
    25
100
AcDbLine
 10
-6878.8881594724
 20
3816.6625632255
 30
0.0
 11
-6878.5176991684
 21
3816.6625632255
 31
0.0
  0
LINE
  5
1E0
330
1F
100
AcDbEntity
  8
0
  6
Continuous
 62
     7
370
    25
100
AcDbLine
 10
-6877.8464576143
 20
3817.3314821444
 30
0.0
 11
-6877.8464576143
 21
3820.3044551174
 31
0.0
  0
LINE
  5
1E1
330
1F
100
AcDbEntity
  8
0
  6
Continuous
 62
     7
370
    25
100
AcDbLine
 10
-6878.5072473102
 20
3816.0679686309
 30
0.0
 11
-6878.8997726481
 21
3816.0679686309
 31
0.0
  0
LINE
  5
1E2
330
1F
100
AcDbEntity
  8
0
  6
Continuous
 62
     7
370
    25
100
AcDbLine
 10
-6880.1505116684
 20
3817.2885133944
 30
0.0
 11
-6880.1505116684
 21
3820.3474238674
 31
0.0
  0
LINE
  5
1E3
330
1F
100
AcDbEntity
  8
0
  6
Continuous
 62
     7
370
    25
100
AcDbLine
 10
-6878.8997726481
 20
3821.5679686309
 30
0.0
 11
-6878.5072473102
 21
3821.5679686309
 31
0.0
  0
LINE
  5
1E4
330
1F
100
AcDbEntity
  8
0
  6
Continuous
 62
     7
370
    25
100
AcDbLine
 10
-6877.1775386954
 20
3820.3474238674
 30
0.0
 11
-6877.1775386954
 21
3817.2885133944
 31
0.0
  0
LINE
  5
1E5
330
1F
100
AcDbEntity
  8
0
  6
Continuous
 62
     7
370
    25
100
AcDbLine
 10
-6855.8278765332
 20
3820.5355573133
 30
0.0
 11
-6856.3957608238
 21
3818.1490497119
 31
0.0
  0
LINE
  5
1E6
330
1F
100
AcDbEntity
  8
0
  6
Continuous
 62
     7
370
    25
100
AcDbLine
 10
-6855.25650829
 20
3818.1490497119
 30
0.0
 11
-6855.8278765332
 21
3820.5355573133
 31
0.0
  0
LINE
  5
1E7
330
1F
100
AcDbEntity
  8
0
  6
Continuous
 62
     7
370
    25
100
AcDbLine
 10
-6856.5211831211
 20
3817.5544551173
 30
0.0
 11
-6856.8835142021
 21
3816.2584247119
 31
0.0
  0
LINE
  5
1E8
330
1F
100
AcDbEntity
  8
0
  6
Continuous
 62
     7
370
    25
100
AcDbLine
 10
-6857.4664956211
 20
3816.4024280903
 30
0.0
 11
-6856.1193672427
 21
3821.3403503876
 31
0.0
  0
LINE
  5
1E9
330
1F
100
AcDbEntity
  8
0
  6
Continuous
 62
     7
370
    25
100
AcDbLine
 10
-6855.5363858238
 20
3821.3403503876
 30
0.0
 11
-6854.1904187629
 21
3816.4024280903
 31
0.0
  0
LINE
  5
1EA
330
1F
100
AcDbEntity
  8
0
  6
Continuous
 62
     7
370
    25
100
AcDbLine
 10
-6854.7734001819
 20
3816.2584247119
 30
0.0
 11
-6855.1357312629
 21
3817.5544551173
 31
0.0
  0
LINE
  5
1EB
330
1F
100
AcDbEntity
  8
0
  6
Continuous
 62
     7
370
    25
100
AcDbLine
 10
-6855.1357312629
 20
3817.5544551173
 30
0.0
 11
-6856.5211831211
 21
3817.5544551173
 31
0.0
  0
LINE
  5
1EC
330
1F
100
AcDbEntity
  8
0
  6
Continuous
 62
     7
370
    25
100
AcDbLine
 10
-6856.3957608238
 20
3818.1490497119
 30
0.0
 11
-6855.25650829
 21
3818.1490497119
 31
0.0
  0
LINE
  5
1ED
330
1F
100
AcDbEntity
  8
0
  6
Continuous
 62
     7
370
    25
100
AcDbLine
 10
-6862.5239675503
 20
3851.8314316783
 30
0.0
 11
-6862.2968915503
 21
3851.0527946783
 31
0.0
  0
LINE
  5
1EE
330
1F
100
AcDbEntity
  8
0
  6
Continuous
 62
     7
370
    25
100
AcDbLine
 10
-6862.2968915503
 20
3851.0527946783
 30
0.0
 11
-6859.3772885503
 21
3852.6108306783
 31
0.0
  0
LINE
  5
1EF
330
1F
100
AcDbEntity
  8
0
  6
Continuous
 62
     7
370
    25
100
AcDbLine
 10
-6859.3772885503
 20
3852.6108306783
 30
0.0
 11
-6857.6892045503
 21
3851.8314316783
 31
0.0
  0
LINE
  5
1F0
330
1F
100
AcDbEntity
  8
0
  6
Continuous
 62
     7
370
    25
100
AcDbLine
 10
-6857.6892045503
 20
3851.8314316783
 30
0.0
 11
-6857.4946405503
 21
3850.1126136783
 31
0.0
  0
LINE
  5
1F1
330
1F
100
AcDbEntity
  8
0
  6
Continuous
 62
     7
370
    25
100
AcDbLine
 10
-6857.4946405503
 20
3850.1126136783
 30
0.0
 11
-6858.1110985503
 21
3848.6843716783
 31
0.0
  0
LINE
  5
1F2
330
1F
100
AcDbEntity
  8
0
  6
Continuous
 62
     7
370
    25
100
AcDbLine
 10
-6858.1110985503
 20
3848.6843716783
 30
0.0
 11
-6858.7932155503
 21
3846.2835636783
 31
0.0
  0
LINE
  5
1F3
330
1F
100
AcDbEntity
  8
0
  6
Continuous
 62
     7
370
    25
100
AcDbLine
 10
-6858.7932155503
 20
3846.2835636783
 30
0.0
 11
-6859.7337775503
 21
3844.3370346783
 31
0.0
  0
LINE
  5
1F4
330
1F
100
AcDbEntity
  8
0
  6
Continuous
 62
     7
370
    25
100
AcDbLine
 10
-6859.7337775503
 20
3844.3370346783
 30
0.0
 11
-6859.5387055503
 21
3843.3963456783
 31
0.0
  0
LINE
  5
1F5
330
1F
100
AcDbEntity
  8
0
  6
Continuous
 62
     7
370
    25
100
AcDbLine
 10
-6859.5387055503
 20
3843.3963456783
 30
0.0
 11
-6858.8583665503
 21
3843.2985556783
 31
0.0
  0
LINE
  5
1F6
330
1F
100
AcDbEntity
  8
0
  6
Continuous
 62
     7
370
    25
100
AcDbLine
 10
-6858.8583665503
 20
3843.2985556783
 30
0.0
 11
-6858.4357105503
 21
3841.6763846783
 31
0.0
  0
LINE
  5
1F7
330
1F
100
AcDbEntity
  8
0
  6
Continuous
 62
     7
370
    25
100
AcDbLine
 10
-6858.4357105503
 20
3841.6763846783
 30
0.0
 11
-6857.4946405503
 21
3841.4165426783
 31
0.0
  0
LINE
  5
1F8
330
1F
100
AcDbEntity
  8
0
  6
Continuous
 62
     7
370
    25
100
AcDbLine
 10
-6857.4946405503
 20
3841.4165426783
 30
0.0
 11
-6854.8658675503
 21
3839.5347836783
 31
0.0
  0
LINE
  5
1F9
330
1F
100
AcDbEntity
  8
0
  6
Continuous
 62
     7
370
    25
100
AcDbLine
 10
-6854.8658675503
 20
3839.5347836783
 30
0.0
 11
-6853.8289125503
 21
3840.5725006783
 31
0.0
  0
LINE
  5
1FA
330
1F
100
AcDbEntity
  8
0
  6
Continuous
 62
     7
370
    25
100
AcDbLine
 10
-6853.8289125503
 20
3840.5725006783
 30
0.0
 11
-6852.3680315503
 21
3840.4755996783
 31
0.0
  0
LINE
  5
1FB
330
1F
100
AcDbEntity
  8
0
  6
Continuous
 62
     7
370
    25
100
AcDbLine
 10
-6852.3680315503
 20
3840.4755996783
 30
0.0
 11
-6853.5686895503
 21
3839.3723506783
 31
0.0
  0
LINE
  5
1FC
330
1F
100
AcDbEntity
  8
0
  6
Continuous
 62
     7
370
    25
100
AcDbLine
 10
-6853.5686895503
 20
3839.3723506783
 30
0.0
 11
-6853.5686895503
 21
3838.6913766783
 31
0.0
  0
LINE
  5
1FD
330
1F
100
AcDbEntity
  8
0
  6
Continuous
 62
     7
370
    25
100
AcDbLine
 10
-6853.5686895503
 20
3838.6913766783
 30
0.0
 11
-6850.6805825503
 21
3838.8530476783
 31
0.0
  0
LINE
  5
1FE
330
1F
100
AcDbEntity
  8
0
  6
Continuous
 62
     7
370
    25
100
AcDbLine
 10
-6850.6805825503
 20
3838.8530476783
 30
0.0
 11
-6847.9560515503
 21
3838.1066686783
 31
0.0
  0
LINE
  5
1FF
330
1F
100
AcDbEntity
  8
0
  6
Continuous
 62
     7
370
    25
100
AcDbLine
 10
-6847.9560515503
 20
3838.1066686783
 30
0.0
 11
-6847.4362405503
 21
3832.9801866783
 31
0.0
  0
LINE
  5
200
330
1F
100
AcDbEntity
  8
0
  6
Continuous
 62
     7
370
    25
100
AcDbLine
 10
-6847.4362405503
 20
3832.9801866783
 30
0.0
 11
-6846.2360905503
 21
3832.4618996783
 31
0.0
  0
LINE
  5
201
330
1F
100
AcDbEntity
  8
0
  6
Continuous
 62
     7
370
    25
100
AcDbLine
 10
-6846.2360905503
 20
3832.4618996783
 30
0.0
 11
-6845.1339845503
 21
3830.7416846783
 31
0.0
  0
LINE
  5
202
330
1F
100
AcDbEntity
  8
0
  6
Continuous
 62
     7
370
    25
100
AcDbLine
 10
-6845.1339845503
 20
3830.7416846783
 30
0.0
 11
-6842.6642155503
 21
3830.4175806783
 31
0.0
  0
LINE
  5
203
330
1F
100
AcDbEntity
  8
0
  6
Continuous
 62
     7
370
    25
100
AcDbLine
 10
-6842.6642155503
 20
3830.4175806783
 30
0.0
 11
-6841.0457275503
 21
3830.7416846783
 31
0.0
  0
LINE
  5
204
330
1F
100
AcDbEntity
  8
0
  6
Continuous
 62
     7
370
    25
100
AcDbLine
 10
-6841.0457275503
 20
3830.7416846783
 30
0.0
 11
-6838.9998845503
 21
3826.2316606783
 31
0.0
  0
LINE
  5
205
330
1F
100
AcDbEntity
  8
0
  6
Continuous
 62
     7
370
    25
100
AcDbLine
 10
-6838.9998845503
 20
3826.2316606783
 30
0.0
 11
-6841.6290385503
 21
3825.8097666783
 31
0.0
  0
LINE
  5
206
330
1F
100
AcDbEntity
  8
0
  6
Continuous
 62
     7
370
    25
100
AcDbLine
 10
-6841.6290385503
 20
3825.8097666783
 30
0.0
 11
-6840.6235795503
 21
3824.1869606783
 31
0.0
  0
LINE
  5
207
330
1F
100
AcDbEntity
  8
0
  6
Continuous
 62
     7
370
    25
100
AcDbLine
 10
-6840.6235795503
 20
3824.1869606783
 30
0.0
 11
-6838.7409315503
 21
3823.7651936783
 31
0.0
  0
LINE
  5
208
330
1F
100
AcDbEntity
  8
0
  6
Continuous
 62
     7
370
    25
100
AcDbLine
 10
-6838.7409315503
 20
3823.7651936783
 30
0.0
 11
-6839.3250045503
 21
3822.1423876783
 31
0.0
  0
LINE
  5
209
330
1F
100
AcDbEntity
  8
0
  6
Continuous
 62
     7
370
    25
100
AcDbLine
 10
-6839.3250045503
 20
3822.1423876783
 30
0.0
 11
-6843.5099085503
 21
3822.7270956783
 31
0.0
  0
LINE
  5
20A
330
1F
100
AcDbEntity
  8
0
  6
Continuous
 62
     7
370
    25
100
AcDbLine
 10
-6843.5099085503
 20
3822.7270956783
 30
0.0
 11
-6843.9321835503
 21
3820.5858756783
 31
0.0
  0
LINE
  5
20B
330
1F
100
AcDbEntity
  8
0
  6
Continuous
 62
     7
370
    25
100
AcDbLine
 10
-6843.9321835503
 20
3820.5858756783
 30
0.0
 11
-6842.9265975503
 21
3820.5213596783
 31
0.0
  0
LINE
  5
20C
330
1F
100
AcDbEntity
  8
0
  6
Continuous
 62
     7
370
    25
100
AcDbLine
 10
-6842.9265975503
 20
3820.5213596783
 30
0.0
 11
-6842.9900975503
 21
3817.6003596783
 31
0.0
  0
LINE
  5
20D
330
1F
100
AcDbEntity
  8
0
  6
Continuous
 62
     7
370
    25
100
AcDbLine
 10
-6842.9900975503
 20
3817.6003596783
 30
0.0
 11
-6841.9842575503
 21
3817.3731566783
 31
0.0
  0
LINE
  5
20E
330
1F
100
AcDbEntity
  8
0
  6
Continuous
 62
     7
370
    25
100
AcDbLine
 10
-6841.9842575503
 20
3817.3731566783
 30
0.0
 11
-6844.3530615503
 21
3814.4535536783
 31
0.0
  0
LINE
  5
20F
330
1F
100
AcDbEntity
  8
0
  6
Continuous
 62
     7
370
    25
100
AcDbLine
 10
-6844.3530615503
 20
3814.4535536783
 30
0.0
 11
-6844.0936005503
 21
3812.9285376783
 31
0.0
  0
LINE
  5
210
330
1F
100
AcDbEntity
  8
0
  6
Continuous
 62
     7
370
    25
100
AcDbLine
 10
-6844.0936005503
 20
3812.9285376783
 30
0.0
 11
-6845.4582155503
 21
3812.3118256783
 31
0.0
  0
LINE
  5
211
330
1F
100
AcDbEntity
  8
0
  6
Continuous
 62
     7
370
    25
100
AcDbLine
 10
-6845.4582155503
 20
3812.3118256783
 30
0.0
 11
-6845.5548625503
 21
3812.9285376783
 31
0.0
  0
LINE
  5
212
330
1F
100
AcDbEntity
  8
0
  6
Continuous
 62
     7
370
    25
100
AcDbLine
 10
-6845.5548625503
 20
3812.9285376783
 30
0.0
 11
-6847.0158705503
 21
3812.7338466783
 31
0.0
  0
LINE
  5
213
330
1F
100
AcDbEntity
  8
0
  6
Continuous
 62
     7
370
    25
100
AcDbLine
 10
-6847.0158705503
 20
3812.7338466783
 30
0.0
 11
-6852.8223105503
 21
3813.9341236783
 31
0.0
  0
LINE
  5
214
330
1F
100
AcDbEntity
  8
0
  6
Continuous
 62
     7
370
    25
100
AcDbLine
 10
-6852.8223105503
 20
3813.9341236783
 30
0.0
 11
-6854.0879925503
 21
3809.9441646783
 31
0.0
  0
LINE
  5
215
330
1F
100
AcDbEntity
  8
0
  6
Continuous
 62
     7
370
    25
100
AcDbLine
 10
-6854.0879925503
 20
3809.9441646783
 30
0.0
 11
-6853.4071455503
 21
3808.1269216783
 31
0.0
  0
LINE
  5
216
330
1F
100
AcDbEntity
  8
0
  6
Continuous
 62
     7
370
    25
100
AcDbLine
 10
-6853.4071455503
 20
3808.1269216783
 30
0.0
 11
-6852.7255365503
 21
3807.8990836783
 31
0.0
  0
LINE
  5
217
330
1F
100
AcDbEntity
  8
0
  6
Continuous
 62
     7
370
    25
100
AcDbLine
 10
-6852.7255365503
 20
3807.8990836783
 30
0.0
 11
-6852.0446895503
 21
3805.9201696783
 31
0.0
  0
LINE
  5
218
330
1F
100
AcDbEntity
  8
0
  6
Continuous
 62
     7
370
    25
100
AcDbLine
 10
-6852.0446895503
 20
3805.9201696783
 30
0.0
 11
-6851.7835775503
 21
3805.4006126783
 31
0.0
  0
LINE
  5
219
330
1F
100
AcDbEntity
  8
0
  6
Continuous
 62
     7
370
    25
100
AcDbLine
 10
-6851.7835775503
 20
3805.4006126783
 30
0.0
 11
-6853.0821525503
 21
3805.4006126783
 31
0.0
  0
LINE
  5
21A
330
1F
100
AcDbEntity
  8
0
  6
Continuous
 62
     7
370
    25
100
AcDbLine
 10
-6853.0821525503
 20
3805.4006126783
 30
0.0
 11
-6854.3478345503
 21
3807.1203196783
 31
0.0
  0
LINE
  5
21B
330
1F
100
AcDbEntity
  8
0
  6
Continuous
 62
     7
370
    25
100
AcDbLine
 10
-6854.3478345503
 20
3807.1203196783
 30
0.0
 11
-6855.4500675503
 21
3807.2178556783
 31
0.0
  0
LINE
  5
21C
330
1F
100
AcDbEntity
  8
0
  6
Continuous
 62
     7
370
    25
100
AcDbLine
 10
-6855.4500675503
 20
3807.2178556783
 30
0.0
 11
-6856.3911375503
 21
3805.4006126783
 31
0.0
  0
LINE
  5
21D
330
1F
100
AcDbEntity
  8
0
  6
Continuous
 62
     7
370
    25
100
AcDbLine
 10
-6856.3911375503
 20
3805.4006126783
 30
0.0
 11
-6857.0732545503
 21
3806.6007626783
 31
0.0
  0
LINE
  5
21E
330
1F
100
AcDbEntity
  8
0
  6
Continuous
 62
     7
370
    25
100
AcDbLine
 10
-6857.0732545503
 20
3806.6007626783
 30
0.0
 11
-6858.5989055503
 21
3806.6007626783
 31
0.0
  0
LINE
  5
21F
330
1F
100
AcDbEntity
  8
0
  6
Continuous
 62
     7
370
    25
100
AcDbLine
 10
-6858.5989055503
 20
3806.6007626783
 30
0.0
 11
-6859.1173195503
 21
3806.1796306783
 31
0.0
  0
LINE
  5
220
330
1F
100
AcDbEntity
  8
0
  6
Continuous
 62
     7
370
    25
100
AcDbLine
 10
-6859.1173195503
 20
3806.1796306783
 30
0.0
 11
-6859.7985475503
 21
3806.2762776783
 31
0.0
  0
LINE
  5
221
330
1F
100
AcDbEntity
  8
0
  6
Continuous
 62
     7
370
    25
100
AcDbLine
 10
-6859.7985475503
 20
3806.2762776783
 30
0.0
 11
-6860.9995865503
 21
3804.8167936783
 31
0.0
  0
LINE
  5
222
330
1F
100
AcDbEntity
  8
0
  6
Continuous
 62
     7
370
    25
100
AcDbLine
 10
-6860.9995865503
 20
3804.8167936783
 30
0.0
 11
-6862.0361605503
 21
3804.6548686783
 31
0.0
  0
LINE
  5
223
330
1F
100
AcDbEntity
  8
0
  6
Continuous
 62
     7
370
    25
100
AcDbLine
 10
-6862.0361605503
 20
3804.6548686783
 30
0.0
 11
-6862.7816505503
 21
3803.8752156783
 31
0.0
  0
LINE
  5
224
330
1F
100
AcDbEntity
  8
0
  6
Continuous
 62
     7
370
    25
100
AcDbLine
 10
-6862.7816505503
 20
3803.8752156783
 30
0.0
 11
-6864.7632315503
 21
3803.7784416783
 31
0.0
  0
LINE
  5
225
330
1F
100
AcDbEntity
  8
0
  6
Continuous
 62
     7
370
    25
100
AcDbLine
 10
-6864.7632315503
 20
3803.7784416783
 30
0.0
 11
-6867.0667575503
 21
3800.3062616783
 31
0.0
  0
LINE
  5
226
330
1F
100
AcDbEntity
  8
0
  6
Continuous
 62
     7
370
    25
100
AcDbLine
 10
-6867.0667575503
 20
3800.3062616783
 30
0.0
 11
-6868.4297215503
 21
3801.0525136783
 31
0.0
  0
LINE
  5
227
330
1F
100
AcDbEntity
  8
0
  6
Continuous
 62
     7
370
    25
100
AcDbLine
 10
-6868.4297215503
 20
3801.0525136783
 30
0.0
 11
-6869.4351805503
 21
3800.6307466783
 31
0.0
  0
LINE
  5
228
330
1F
100
AcDbEntity
  8
0
  6
Continuous
 62
     7
370
    25
100
AcDbLine
 10
-6869.4351805503
 20
3800.6307466783
 30
0.0
 11
-6871.0596375503
 21
3801.8319126783
 31
0.0
  0
LINE
  5
229
330
1F
100
AcDbEntity
  8
0
  6
Continuous
 62
     7
370
    25
100
AcDbLine
 10
-6871.0596375503
 20
3801.8319126783
 30
0.0
 11
-6870.8309105503
 21
3800.1115706783
 31
0.0
  0
LINE
  5
22A
330
1F
100
AcDbEntity
  8
0
  6
Continuous
 62
     7
370
    25
100
AcDbLine
 10
-6870.8309105503
 20
3800.1115706783
 30
0.0
 11
-6873.1992065503
 21
3798.4896536783
 31
0.0
  0
LINE
  5
22B
330
1F
100
AcDbEntity
  8
0
  6
Continuous
 62
     7
370
    25
100
AcDbLine
 10
-6873.1992065503
 20
3798.4896536783
 30
0.0
 11
-6872.6158955503
 21
3796.7045416783
 31
0.0
  0
LINE
  5
22C
330
1F
100
AcDbEntity
  8
0
  6
Continuous
 62
     7
370
    25
100
AcDbLine
 10
-6872.6158955503
 20
3796.7045416783
 30
0.0
 11
-6874.1398955503
 21
3794.4005076783
 31
0.0
  0
LINE
  5
22D
330
1F
100
AcDbEntity
  8
0
  6
Continuous
 62
     7
370
    25
100
AcDbLine
 10
-6874.1398955503
 20
3794.4005076783
 30
0.0
 11
-6873.9770815503
 21
3792.0004616783
 31
0.0
  0
LINE
  5
22E
330
1F
100
AcDbEntity
  8
0
  6
Continuous
 62
     7
370
    25
100
AcDbLine
 10
-6873.9770815503
 20
3792.0004616783
 30
0.0
 11
-6872.5170895503
 21
3790.1510876783
 31
0.0
  0
LINE
  5
22F
330
1F
100
AcDbEntity
  8
0
  6
Continuous
 62
     7
370
    25
100
AcDbLine
 10
-6872.5170895503
 20
3790.1510876783
 30
0.0
 11
-6872.4528275503
 21
3789.0154536783
 31
0.0
  0
LINE
  5
230
330
1F
100
AcDbEntity
  8
0
  6
Continuous
 62
     7
370
    25
100
AcDbLine
 10
-6872.4528275503
 20
3789.0154536783
 30
0.0
 11
-6874.2374315503
 21
3788.7557386783
 31
0.0
  0
LINE
  5
231
330
1F
100
AcDbEntity
  8
0
  6
Continuous
 62
     7
370
    25
100
AcDbLine
 10
-6874.2374315503
 20
3788.7557386783
 30
0.0
 11
-6874.1398955503
 21
3787.2303416783
 31
0.0
  0
LINE
  5
232
330
1F
100
AcDbEntity
  8
0
  6
Continuous
 62
     7
370
    25
100
AcDbLine
 10
-6874.1398955503
 20
3787.2303416783
 30
0.0
 11
-6873.0363925503
 21
3787.1662066783
 31
0.0
  0
LINE
  5
233
330
1F
100
AcDbEntity
  8
0
  6
Continuous
 62
     7
370
    25
100
AcDbLine
 10
-6873.0363925503
 20
3787.1662066783
 30
0.0
 11
-6873.2954725503
 21
3785.2838126783
 31
0.0
  0
LINE
  5
234
330
1F
100
AcDbEntity
  8
0
  6
Continuous
 62
     7
370
    25
100
AcDbLine
 10
-6873.2954725503
 20
3785.2838126783
 30
0.0
 11
-6876.1191905503
 21
3785.3488366783
 31
0.0
  0
LINE
  5
235
330
1F
100
AcDbEntity
  8
0
  6
Continuous
 62
     7
370
    25
100
AcDbLine
 10
-6876.1191905503
 20
3785.3488366783
 30
0.0
 11
-6879.7856805503
 21
3787.0681626783
 31
0.0
  0
LINE
  5
236
330
1F
100
AcDbEntity
  8
0
  6
Continuous
 62
     7
370
    25
100
AcDbLine
 10
-6879.7856805503
 20
3787.0681626783
 30
0.0
 11
-6880.5325675503
 21
3788.5934326783
 31
0.0
  0
LINE
  5
237
330
1F
100
AcDbEntity
  8
0
  6
Continuous
 62
     7
370
    25
100
AcDbLine
 10
-6880.5325675503
 20
3788.5934326783
 30
0.0
 11
-6884.3928595503
 21
3790.9943676783
 31
0.0
  0
LINE
  5
238
330
1F
100
AcDbEntity
  8
0
  6
Continuous
 62
     7
370
    25
100
AcDbLine
 10
-6884.3928595503
 20
3790.9943676783
 30
0.0
 11
-6886.5997385503
 21
3791.4161346783
 31
0.0
  0
LINE
  5
239
330
1F
100
AcDbEntity
  8
0
  6
Continuous
 62
     7
370
    25
100
AcDbLine
 10
-6886.5997385503
 20
3791.4161346783
 30
0.0
 11
-6889.0643005503
 21
3793.7195336783
 31
0.0
  0
LINE
  5
23A
330
1F
100
AcDbEntity
  8
0
  6
Continuous
 62
     7
370
    25
100
AcDbLine
 10
-6889.0643005503
 20
3793.7195336783
 30
0.0
 11
-6891.5626445503
 21
3794.3038606783
 31
0.0
  0
LINE
  5
23B
330
1F
100
AcDbEntity
  8
0
  6
Continuous
 62
     7
370
    25
100
AcDbLine
 10
-6891.5626445503
 20
3794.3038606783
 30
0.0
 11
-6892.9268785503
 21
3794.4005076783
 31
0.0
  0
LINE
  5
23C
330
1F
100
AcDbEntity
  8
0
  6
Continuous
 62
     7
370
    25
100
AcDbLine
 10
-6892.9268785503
 20
3794.4005076783
 30
0.0
 11
-6894.9714515503
 21
3795.2445496783
 31
0.0
  0
LINE
  5
23D
330
1F
100
AcDbEntity
  8
0
  6
Continuous
 62
     7
370
    25
100
AcDbLine
 10
-6894.9714515503
 20
3795.2445496783
 30
0.0
 11
-6895.6517905503
 21
3794.6606036783
 31
0.0
  0
LINE
  5
23E
330
1F
100
AcDbEntity
  8
0
  6
Continuous
 62
     7
370
    25
100
AcDbLine
 10
-6895.6517905503
 20
3794.6606036783
 30
0.0
 11
-6895.9776725503
 21
3792.2595416783
 31
0.0
  0
LINE
  5
23F
330
1F
100
AcDbEntity
  8
0
  6
Continuous
 62
     7
370
    25
100
AcDbLine
 10
-6895.9776725503
 20
3792.2595416783
 30
0.0
 11
-6897.5349465503
 21
3792.2595416783
 31
0.0
  0
LINE
  5
240
330
1F
100
AcDbEntity
  8
0
  6
Continuous
 62
     7
370
    25
100
AcDbLine
 10
-6897.5349465503
 20
3792.2595416783
 30
0.0
 11
-6897.7930105503
 21
3793.4603266783
 31
0.0
  0
LINE
  5
241
330
1F
100
AcDbEntity
  8
0
  6
Continuous
 62
     7
370
    25
100
AcDbLine
 10
-6897.7930105503
 20
3793.4603266783
 30
0.0
 11
-6900.4207675503
 21
3793.2006116783
 31
0.0
  0
LINE
  5
242
330
1F
100
AcDbEntity
  8
0
  6
Continuous
 62
     7
370
    25
100
AcDbLine
 10
-6900.4207675503
 20
3793.2006116783
 30
0.0
 11
-6900.4207675503
 21
3794.3038606783
 31
0.0
  0
LINE
  5
243
330
1F
100
AcDbEntity
  8
0
  6
Continuous
 62
     7
370
    25
100
AcDbLine
 10
-6900.4207675503
 20
3794.3038606783
 30
0.0
 11
-6902.4653405503
 21
3794.1413006783
 31
0.0
  0
LINE
  5
244
330
1F
100
AcDbEntity
  8
0
  6
Continuous
 62
     7
370
    25
100
AcDbLine
 10
-6902.4653405503
 20
3794.1413006783
 30
0.0
 11
-6902.4653405503
 21
3792.7794796783
 31
0.0
  0
LINE
  5
245
330
1F
100
AcDbEntity
  8
0
  6
Continuous
 62
     7
370
    25
100
AcDbLine
 10
-6902.4653405503
 20
3792.7794796783
 30
0.0
 11
-6906.2293665503
 21
3797.6454846783
 31
0.0
  0
LINE
  5
246
330
1F
100
AcDbEntity
  8
0
  6
Continuous
 62
     7
370
    25
100
AcDbLine
 10
-6906.2293665503
 20
3797.6454846783
 30
0.0
 11
-6904.8665295503
 21
3798.1654226783
 31
0.0
  0
LINE
  5
247
330
1F
100
AcDbEntity
  8
0
  6
Continuous
 62
     7
370
    25
100
AcDbLine
 10
-6904.8665295503
 20
3798.1654226783
 30
0.0
 11
-6906.3925615503
 21
3800.7286636783
 31
0.0
  0
LINE
  5
248
330
1F
100
AcDbEntity
  8
0
  6
Continuous
 62
     7
370
    25
100
AcDbLine
 10
-6906.3925615503
 20
3800.7286636783
 30
0.0
 11
-6905.1259905503
 21
3801.9944726783
 31
0.0
  0
LINE
  5
249
330
1F
100
AcDbEntity
  8
0
  6
Continuous
 62
     7
370
    25
100
AcDbLine
 10
-6905.1259905503
 20
3801.9944726783
 30
0.0
 11
-6905.7113335503
 21
3802.9342726783
 31
0.0
  0
LINE
  5
24A
330
1F
100
AcDbEntity
  8
0
  6
Continuous
 62
     7
370
    25
100
AcDbLine
 10
-6905.7113335503
 20
3802.9342726783
 30
0.0
 11
-6906.9119915503
 21
3802.8376256783
 31
0.0
  0
LINE
  5
24B
330
1F
100
AcDbEntity
  8
0
  6
Continuous
 62
     7
370
    25
100
AcDbLine
 10
-6906.9119915503
 20
3802.8376256783
 30
0.0
 11
-6907.3323615503
 21
3803.8752156783
 31
0.0
  0
LINE
  5
24C
330
1F
100
AcDbEntity
  8
0
  6
Continuous
 62
     7
370
    25
100
AcDbLine
 10
-6907.3323615503
 20
3803.8752156783
 30
0.0
 11
-6908.4358645503
 21
3803.4538296783
 31
0.0
  0
LINE
  5
24D
330
1F
100
AcDbEntity
  8
0
  6
Continuous
 62
     7
370
    25
100
AcDbLine
 10
-6908.4358645503
 20
3803.4538296783
 30
0.0
 11
-6908.7928615503
 21
3801.4746616783
 31
0.0
  0
LINE
  5
24E
330
1F
100
AcDbEntity
  8
0
  6
Continuous
 62
     7
370
    25
100
AcDbLine
 10
-6908.7928615503
 20
3801.4746616783
 30
0.0
 11
-6912.4589705503
 21
3802.8376256783
 31
0.0
  0
LINE
  5
24F
330
1F
100
AcDbEntity
  8
0
  6
Continuous
 62
     7
370
    25
100
AcDbLine
 10
-6912.4589705503
 20
3802.8376256783
 30
0.0
 11
-6916.2868775503
 21
3803.2915236783
 31
0.0
  0
LINE
  5
250
330
1F
100
AcDbEntity
  8
0
  6
Continuous
 62
     7
370
    25
100
AcDbLine
 10
-6916.2868775503
 20
3803.2915236783
 30
0.0
 11
-6916.9051135503
 21
3804.7190036783
 31
0.0
  0
LINE
  5
251
330
1F
100
AcDbEntity
  8
0
  6
Continuous
 62
     7
370
    25
100
AcDbLine
 10
-6916.9051135503
 20
3804.7190036783
 30
0.0
 11
-6918.3327205503
 21
3804.3951536783
 31
0.0
  0
LINE
  5
252
330
1F
100
AcDbEntity
  8
0
  6
Continuous
 62
     7
370
    25
100
AcDbLine
 10
-6918.3327205503
 20
3804.3951536783
 30
0.0
 11
-6920.1165625503
 21
3804.9462066783
 31
0.0
  0
LINE
  5
253
330
1F
100
AcDbEntity
  8
0
  6
Continuous
 62
     7
370
    25
100
AcDbLine
 10
-6920.1165625503
 20
3804.9462066783
 30
0.0
 11
-6920.0521735503
 21
3805.0757466783
 31
0.0
  0
LINE
  5
254
330
1F
100
AcDbEntity
  8
0
  6
Continuous
 62
     7
370
    25
100
AcDbLine
 10
-6920.0521735503
 20
3805.0757466783
 30
0.0
 11
-6921.7708645503
 21
3806.0168166783
 31
0.0
  0
LINE
  5
255
330
1F
100
AcDbEntity
  8
0
  6
Continuous
 62
     7
370
    25
100
AcDbLine
 10
-6921.7708645503
 20
3806.0168166783
 30
0.0
 11
-6923.7177745503
 21
3806.6980446783
 31
0.0
  0
LINE
  5
256
330
1F
100
AcDbEntity
  8
0
  6
Continuous
 62
     7
370
    25
100
AcDbLine
 10
-6923.7177745503
 20
3806.6980446783
 30
0.0
 11
-6924.6580825503
 21
3808.1269216783
 31
0.0
  0
LINE
  5
257
330
1F
100
AcDbEntity
  8
0
  6
Continuous
 62
     7
370
    25
100
AcDbLine
 10
-6924.6580825503
 20
3808.1269216783
 30
0.0
 11
-6925.9255425503
 21
3807.8990836783
 31
0.0
  0
LINE
  5
258
330
1F
100
AcDbEntity
  8
0
  6
Continuous
 62
     7
370
    25
100
AcDbLine
 10
-6925.9255425503
 20
3807.8990836783
 30
0.0
 11
-6928.2283065503
 21
3810.7861746783
 31
0.0
  0
LINE
  5
259
330
1F
100
AcDbEntity
  8
0
  6
Continuous
 62
     7
370
    25
100
AcDbLine
 10
-6928.2283065503
 20
3810.7861746783
 30
0.0
 11
-6929.2670395503
 21
3810.7861746783
 31
0.0
  0
LINE
  5
25A
330
1F
100
AcDbEntity
  8
0
  6
Continuous
 62
     7
370
    25
100
AcDbLine
 10
-6929.2670395503
 20
3810.7861746783
 30
0.0
 11
-6929.5259925503
 21
3813.3506856783
 31
0.0
  0
LINE
  5
25B
330
1F
100
AcDbEntity
  8
0
  6
Continuous
 62
     7
370
    25
100
AcDbLine
 10
-6929.5259925503
 20
3813.3506856783
 30
0.0
 11
-6926.8645805503
 21
3812.9285376783
 31
0.0
  0
LINE
  5
25C
330
1F
100
AcDbEntity
  8
0
  6
Continuous
 62
     7
370
    25
100
AcDbLine
 10
-6926.8645805503
 20
3812.9285376783
 30
0.0
 11
-6925.2434255503
 21
3812.4082186783
 31
0.0
  0
LINE
  5
25D
330
1F
100
AcDbEntity
  8
0
  6
Continuous
 62
     7
370
    25
100
AcDbLine
 10
-6925.2434255503
 20
3812.4082186783
 30
0.0
 11
-6924.0752795503
 21
3815.9132916783
 31
0.0
  0
LINE
  5
25E
330
1F
100
AcDbEntity
  8
0
  6
Continuous
 62
     7
370
    25
100
AcDbLine
 10
-6924.0752795503
 20
3815.9132916783
 30
0.0
 11
-6924.6580825503
 21
3820.3585456783
 31
0.0
  0
LINE
  5
25F
330
1F
100
AcDbEntity
  8
0
  6
Continuous
 62
     7
370
    25
100
AcDbLine
 10
-6924.6580825503
 20
3820.3585456783
 30
0.0
 11
-6925.0172385503
 21
3824.0901866783
 31
0.0
  0
LINE
  5
260
330
1F
100
AcDbEntity
  8
0
  6
Continuous
 62
     7
370
    25
100
AcDbLine
 10
-6925.0172385503
 20
3824.0901866783
 30
0.0
 11
-6925.0172385503
 21
3826.7514716783
 31
0.0
  0
LINE
  5
261
330
1F
100
AcDbEntity
  8
0
  6
Continuous
 62
     7
370
    25
100
AcDbLine
 10
-6925.0172385503
 20
3826.7514716783
 30
0.0
 11
-6925.7646335503
 21
3828.0163916783
 31
0.0
  0
LINE
  5
262
330
1F
100
AcDbEntity
  8
0
  6
Continuous
 62
     7
370
    25
100
AcDbLine
 10
-6925.7646335503
 20
3828.0163916783
 30
0.0
 11
-6928.5849225503
 21
3828.6325956783
 31
0.0
  0
LINE
  5
263
330
1F
100
AcDbEntity
  8
0
  6
Continuous
 62
     7
370
    25
100
AcDbLine
 10
-6928.5849225503
 20
3828.6325956783
 30
0.0
 11
-6929.3640675503
 21
3830.2552746783
 31
0.0
  0
LINE
  5
264
330
1F
100
AcDbEntity
  8
0
  6
Continuous
 62
     7
370
    25
100
AcDbLine
 10
-6929.3640675503
 20
3830.2552746783
 30
0.0
 11
-6929.0070705503
 21
3830.9368836783
 31
0.0
  0
LINE
  5
265
330
1F
100
AcDbEntity
  8
0
  6
Continuous
 62
     7
370
    25
100
AcDbLine
 10
-6929.0070705503
 20
3830.9368836783
 30
0.0
 11
-6929.5259925503
 21
3832.2993396783
 31
0.0
  0
LINE
  5
266
330
1F
100
AcDbEntity
  8
0
  6
Continuous
 62
     7
370
    25
100
AcDbLine
 10
-6929.5259925503
 20
3832.2993396783
 30
0.0
 11
-6931.0512625503
 21
3832.8827776783
 31
0.0
  0
LINE
  5
267
330
1F
100
AcDbEntity
  8
0
  6
Continuous
 62
     7
370
    25
100
AcDbLine
 10
-6931.0512625503
 20
3832.8827776783
 30
0.0
 11
-6932.6087905503
 21
3832.7208526783
 31
0.0
  0
LINE
  5
268
330
1F
100
AcDbEntity
  8
0
  6
Continuous
 62
     7
370
    25
100
AcDbLine
 10
-6932.6087905503
 20
3832.7208526783
 30
0.0
 11
-6934.4582915503
 21
3835.7054796783
 31
0.0
  0
LINE
  5
269
330
1F
100
AcDbEntity
  8
0
  6
Continuous
 62
     7
370
    25
100
AcDbLine
 10
-6934.4582915503
 20
3835.7054796783
 30
0.0
 11
-6933.1933715503
 21
3837.2307496783
 31
0.0
  0
LINE
  5
26A
330
1F
100
AcDbEntity
  8
0
  6
Continuous
 62
     7
370
    25
100
AcDbLine
 10
-6933.1933715503
 20
3837.2307496783
 30
0.0
 11
-6933.5516385503
 21
3837.9117236783
 31
0.0
  0
LINE
  5
26B
330
1F
100
AcDbEntity
  8
0
  6
Continuous
 62
     7
370
    25
100
AcDbLine
 10
-6933.5516385503
 20
3837.9117236783
 30
0.0
 11
-6933.0310655503
 21
3840.3138016783
 31
0.0
  0
LINE
  5
26C
330
1F
100
AcDbEntity
  8
0
  6
Continuous
 62
     7
370
    25
100
AcDbLine
 10
-6933.0310655503
 20
3840.3138016783
 30
0.0
 11
-6934.7194035503
 21
3840.2161386783
 31
0.0
  0
LINE
  5
26D
330
1F
100
AcDbEntity
  8
0
  6
Continuous
 62
     7
370
    25
100
AcDbLine
 10
-6934.7194035503
 20
3840.2161386783
 30
0.0
 11
-6935.2370555503
 21
3843.8831366783
 31
0.0
  0
LINE
  5
26E
330
1F
100
AcDbEntity
  8
0
  6
Continuous
 62
     7
370
    25
100
AcDbLine
 10
-6935.2370555503
 20
3843.8831366783
 30
0.0
 11
-6935.7559775503
 21
3844.4990866783
 31
0.0
  0
LINE
  5
26F
330
1F
100
AcDbEntity
  8
0
  6
Continuous
 62
     7
370
    25
100
AcDbLine
 10
-6935.7559775503
 20
3844.4990866783
 30
0.0
 11
-6937.4763195503
 21
3844.4018046783
 31
0.0
  0
LINE
  5
270
330
1F
100
AcDbEntity
  8
0
  6
Continuous
 62
     7
370
    25
100
AcDbLine
 10
-6937.4763195503
 20
3844.4018046783
 30
0.0
 11
-6938.9044345503
 21
3847.6456386783
 31
0.0
  0
LINE
  5
271
330
1F
100
AcDbEntity
  8
0
  6
Continuous
 62
     7
370
    25
100
AcDbLine
 10
-6938.9044345503
 20
3847.6456386783
 30
0.0
 11
-6937.6381175503
 21
3848.5878516783
 31
0.0
  0
LINE
  5
272
330
1F
100
AcDbEntity
  8
0
  6
Continuous
 62
     7
370
    25
100
AcDbLine
 10
-6937.6381175503
 20
3848.5878516783
 30
0.0
 11
-6937.7996615503
 21
3849.1715436783
 31
0.0
  0
LINE
  5
273
330
1F
100
AcDbEntity
  8
0
  6
Continuous
 62
     7
370
    25
100
AcDbLine
 10
-6937.7996615503
 20
3849.1715436783
 30
0.0
 11
-6941.3054965503
 21
3849.9503076783
 31
0.0
  0
LINE
  5
274
330
1F
100
AcDbEntity
  8
0
  6
Continuous
 62
     7
370
    25
100
AcDbLine
 10
-6941.3054965503
 20
3849.9503076783
 30
0.0
 11
-6943.4459545503
 21
3852.7731366783
 31
0.0
  0
LINE
  5
275
330
1F
100
AcDbEntity
  8
0
  6
Continuous
 62
     7
370
    25
100
AcDbLine
 10
-6943.4459545503
 20
3852.7731366783
 30
0.0
 11
-6943.8668325503
 21
3853.0000856783
 31
0.0
  0
LINE
  5
276
330
1F
100
AcDbEntity
  8
0
  6
Continuous
 62
     7
370
    25
100
AcDbLine
 10
-6943.8668325503
 20
3853.0000856783
 30
0.0
 11
-6944.5498385503
 21
3855.4983026783
 31
0.0
  0
LINE
  5
277
330
1F
100
AcDbEntity
  8
0
  6
Continuous
 62
     7
370
    25
100
AcDbLine
 10
-6944.5498385503
 20
3855.4983026783
 30
0.0
 11
-6942.2449155503
 21
3856.9585486783
 31
0.0
  0
LINE
  5
278
330
1F
100
AcDbEntity
  8
0
  6
Continuous
 62
     7
370
    25
100
AcDbLine
 10
-6942.2449155503
 20
3856.9585486783
 30
0.0
 11
-6942.1490305503
 21
3858.8405616783
 31
0.0
  0
LINE
  5
279
330
1F
100
AcDbEntity
  8
0
  6
Continuous
 62
     7
370
    25
100
AcDbLine
 10
-6942.1490305503
 20
3858.8405616783
 30
0.0
 11
-6940.5272405503
 21
3858.7435336783
 31
0.0
  0
LINE
  5
27A
330
1F
100
AcDbEntity
  8
0
  6
Continuous
 62
     7
370
    25
100
AcDbLine
 10
-6940.5272405503
 20
3858.7435336783
 30
0.0
 11
-6939.8449965503
 21
3858.1586986783
 31
0.0
  0
LINE
  5
27B
330
1F
100
AcDbEntity
  8
0
  6
Continuous
 62
     7
370
    25
100
AcDbLine
 10
-6939.8449965503
 20
3858.1586986783
 30
0.0
 11
-6938.9044345503
 21
3858.3212586783
 31
0.0
  0
LINE
  5
27C
330
1F
100
AcDbEntity
  8
0
  6
Continuous
 62
     7
370
    25
100
AcDbLine
 10
-6938.9044345503
 20
3858.3212586783
 30
0.0
 11
-6938.7425095503
 21
3859.3277336783
 31
0.0
  0
LINE
  5
27D
330
1F
100
AcDbEntity
  8
0
  6
Continuous
 62
     7
370
    25
100
AcDbLine
 10
-6938.7425095503
 20
3859.3277336783
 30
0.0
 11
-6937.8980865503
 21
3859.7811236783
 31
0.0
  0
LINE
  5
27E
330
1F
100
AcDbEntity
  8
0
  6
Continuous
 62
     7
370
    25
100
AcDbLine
 10
-6937.8980865503
 20
3859.7811236783
 30
0.0
 11
-6937.8980865503
 21
3860.6250386783
 31
0.0
  0
LINE
  5
27F
330
1F
100
AcDbEntity
  8
0
  6
Continuous
 62
     7
370
    25
100
AcDbLine
 10
-6937.8980865503
 20
3860.6250386783
 30
0.0
 11
-6936.9565085503
 21
3860.7230826783
 31
0.0
  0
LINE
  5
280
330
1F
100
AcDbEntity
  8
0
  6
Continuous
 62
     7
370
    25
100
AcDbLine
 10
-6936.9565085503
 20
3860.7230826783
 30
0.0
 11
-6936.8584645503
 21
3861.8905936783
 31
0.0
  0
LINE
  5
281
330
1F
100
AcDbEntity
  8
0
  6
Continuous
 62
     7
370
    25
100
AcDbLine
 10
-6936.8584645503
 20
3861.8905936783
 30
0.0
 11
-6936.0162005503
 21
3861.8905936783
 31
0.0
  0
LINE
  5
282
330
1F
100
AcDbEntity
  8
0
  6
Continuous
 62
     7
370
    25
100
AcDbLine
 10
-6936.0162005503
 20
3861.8905936783
 30
0.0
 11
-6935.8538945503
 21
3861.3065206783
 31
0.0
  0
LINE
  5
283
330
1F
100
AcDbEntity
  8
0
  6
Continuous
 62
     7
370
    25
100
AcDbLine
 10
-6935.8538945503
 20
3861.3065206783
 30
0.0
 11
-6932.5116355503
 21
3861.6313866783
 31
0.0
  0
LINE
  5
284
330
1F
100
AcDbEntity
  8
0
  6
Continuous
 62
     7
370
    25
100
AcDbLine
 10
-6932.5116355503
 20
3861.6313866783
 30
0.0
 11
-6932.3502185503
 21
3859.7811236783
 31
0.0
  0
LINE
  5
285
330
1F
100
AcDbEntity
  8
0
  6
Continuous
 62
     7
370
    25
100
AcDbLine
 10
-6932.3502185503
 20
3859.7811236783
 30
0.0
 11
-6930.5331025503
 21
3858.9052046783
 31
0.0
  0
LINE
  5
286
330
1F
100
AcDbEntity
  8
0
  6
Continuous
 62
     7
370
    25
100
AcDbLine
 10
-6930.5331025503
 20
3858.9052046783
 30
0.0
 11
-6929.9490295503
 21
3859.5871946783
 31
0.0
  0
LINE
  5
287
330
1F
100
AcDbEntity
  8
0
  6
Continuous
 62
     7
370
    25
100
AcDbLine
 10
-6929.9490295503
 20
3859.5871946783
 30
0.0
 11
-6927.5461895503
 21
3859.5222976783
 31
0.0
  0
LINE
  5
288
330
1F
100
AcDbEntity
  8
0
  6
Continuous
 62
     7
370
    25
100
AcDbLine
 10
-6927.5461895503
 20
3859.5222976783
 30
0.0
 11
-6927.3203835503
 21
3860.1059896783
 31
0.0
  0
LINE
  5
289
330
1F
100
AcDbEntity
  8
0
  6
Continuous
 62
     7
370
    25
100
AcDbLine
 10
-6927.3203835503
 20
3860.1059896783
 30
0.0
 11
-6926.2825395503
 21
3859.9440646783
 31
0.0
  0
LINE
  5
28A
330
1F
100
AcDbEntity
  8
0
  6
Continuous
 62
     7
370
    25
100
AcDbLine
 10
-6922.9398995503
 20
3859.5222976783
 30
0.0
 11
-6922.2586715503
 21
3860.7873446783
 31
0.0
  0
LINE
  5
28B
330
1F
100
AcDbEntity
  8
0
  6
Continuous
 62
     7
370
    25
100
AcDbLine
 10
-6922.2586715503
 20
3860.7873446783
 30
0.0
 11
-6920.9933705503
 21
3861.1442146783
 31
0.0
  0
LINE
  5
28C
330
1F
100
AcDbEntity
  8
0
  6
Continuous
 62
     7
370
    25
100
AcDbLine
 10
-6919.7923315503
 20
3863.2533036783
 30
0.0
 11
-6918.1047555503
 21
3863.5131456783
 31
0.0
  0
LINE
  5
28D
330
1F
100
AcDbEntity
  8
0
  6
Continuous
 62
     7
370
    25
100
AcDbLine
 10
-6918.1047555503
 20
3863.5131456783
 30
0.0
 11
-6917.8444055503
 21
3865.3296266783
 31
0.0
  0
LINE
  5
28E
330
1F
100
AcDbEntity
  8
0
  6
Continuous
 62
     7
370
    25
100
AcDbLine
 10
-6917.8444055503
 20
3865.3296266783
 30
0.0
 11
-6916.5472275503
 21
3864.8761096783
 31
0.0
  0
LINE
  5
28F
330
1F
100
AcDbEntity
  8
0
  6
Continuous
 62
     7
370
    25
100
AcDbLine
 10
-6916.5472275503
 20
3864.8761096783
 30
0.0
 11
-6914.9248025503
 21
3867.7959666783
 31
0.0
  0
LINE
  5
290
330
1F
100
AcDbEntity
  8
0
  6
Continuous
 62
     7
370
    25
100
AcDbLine
 10
-6914.9248025503
 20
3867.7959666783
 30
0.0
 11
-6913.7251605503
 21
3867.6337876783
 31
0.0
  0
LINE
  5
291
330
1F
100
AcDbEntity
  8
0
  6
Continuous
 62
     7
370
    25
100
AcDbLine
 10
-6913.7251605503
 20
3867.6337876783
 30
0.0
 11
-6913.4018185503
 21
3867.1796356783
 31
0.0
  0
LINE
  5
292
330
1F
100
AcDbEntity
  8
0
  6
Continuous
 62
     7
370
    25
100
AcDbLine
 10
-6913.4018185503
 20
3867.1796356783
 30
0.0
 11
-6912.6216575503
 21
3867.1796356783
 31
0.0
  0
LINE
  5
293
330
1F
100
AcDbEntity
  8
0
  6
Continuous
 62
     7
370
    25
100
AcDbLine
 10
-6912.6216575503
 20
3867.1796356783
 30
0.0
 11
-6912.6216575503
 21
3867.7959666783
 31
0.0
  0
LINE
  5
294
330
1F
100
AcDbEntity
  8
0
  6
Continuous
 62
     7
370
    25
100
AcDbLine
 10
-6912.6216575503
 20
3867.7959666783
 30
0.0
 11
-6911.3559755503
 21
3867.6976686783
 31
0.0
  0
LINE
  5
295
330
1F
100
AcDbEntity
  8
0
  6
Continuous
 62
     7
370
    25
100
AcDbLine
 10
-6911.3559755503
 20
3867.6976686783
 30
0.0
 11
-6910.9988515503
 21
3866.8550236783
 31
0.0
  0
LINE
  5
296
330
1F
100
AcDbEntity
  8
0
  6
Continuous
 62
     7
370
    25
100
AcDbLine
 10
-6910.9988515503
 20
3866.8550236783
 30
0.0
 11
-6909.7326615503
 21
3867.1144846783
 31
0.0
  0
LINE
  5
297
330
1F
100
AcDbEntity
  8
0
  6
Continuous
 62
     7
370
    25
100
AcDbLine
 10
-6909.7326615503
 20
3867.1144846783
 30
0.0
 11
-6909.3126725503
 21
3868.8026956783
 31
0.0
  0
LINE
  5
298
330
1F
100
AcDbEntity
  8
0
  6
Continuous
 62
     7
370
    25
100
AcDbLine
 10
-6909.3126725503
 20
3868.8026956783
 30
0.0
 11
-6907.9493275503
 21
3867.3736916783
 31
0.0
  0
LINE
  5
299
330
1F
100
AcDbEntity
  8
0
  6
Continuous
 62
     7
370
    25
100
AcDbLine
 10
-6907.9493275503
 20
3867.3736916783
 30
0.0
 11
-6904.7702635503
 21
3867.1796356783
 31
0.0
  0
LINE
  5
29A
330
1F
100
AcDbEntity
  8
0
  6
Continuous
 62
     7
370
    25
100
AcDbLine
 10
-6904.7702635503
 20
3867.1796356783
 30
0.0
 11
-6904.5104215503
 21
3865.5569566783
 31
0.0
  0
LINE
  5
29B
330
1F
100
AcDbEntity
  8
0
  6
Continuous
 62
     7
370
    25
100
AcDbLine
 10
-6904.5104215503
 20
3865.5569566783
 30
0.0
 11
-6903.3426565503
 21
3866.5960706783
 31
0.0
  0
LINE
  5
29C
330
1F
100
AcDbEntity
  8
0
  6
Continuous
 62
     7
370
    25
100
AcDbLine
 10
-6903.3426565503
 20
3866.5960706783
 30
0.0
 11
-6902.3030345503
 21
3866.2383116783
 31
0.0
  0
LINE
  5
29D
330
1F
100
AcDbEntity
  8
0
  6
Continuous
 62
     7
370
    25
100
AcDbLine
 10
-6902.3030345503
 20
3866.2383116783
 30
0.0
 11
-6901.6218065503
 21
3865.4919326783
 31
0.0
  0
LINE
  5
29E
330
1F
100
AcDbEntity
  8
0
  6
Continuous
 62
     7
370
    25
100
AcDbLine
 10
-6901.6218065503
 20
3865.4919326783
 30
0.0
 11
-6899.9032425503
 21
3866.5960706783
 31
0.0
  0
LINE
  5
29F
330
1F
100
AcDbEntity
  8
0
  6
Continuous
 62
     7
370
    25
100
AcDbLine
 10
-6899.9032425503
 20
3866.5960706783
 30
0.0
 11
-6896.5919715503
 21
3865.3296266783
 31
0.0
  0
LINE
  5
2A0
330
1F
100
AcDbEntity
  8
0
  6
Continuous
 62
     7
370
    25
100
AcDbLine
 10
-6896.5919715503
 20
3865.3296266783
 30
0.0
 11
-6894.1921795503
 21
3864.2917826783
 31
0.0
  0
LINE
  5
2A1
330
1F
100
AcDbEntity
  8
0
  6
Continuous
 62
     7
370
    25
100
AcDbLine
 10
-6894.1921795503
 20
3864.2917826783
 30
0.0
 11
-6893.0882955503
 21
3865.5569566783
 31
0.0
  0
LINE
  5
2A2
330
1F
100
AcDbEntity
  8
0
  6
Continuous
 62
     7
370
    25
100
AcDbLine
 10
-6893.0882955503
 20
3865.5569566783
 30
0.0
 11
-6891.8885265503
 21
3866.3354666783
 31
0.0
  0
LINE
  5
2A3
330
1F
100
AcDbEntity
  8
0
  6
Continuous
 62
     7
370
    25
100
AcDbLine
 10
-6891.8885265503
 20
3866.3354666783
 30
0.0
 11
-6892.0495625503
 21
3867.2765366783
 31
0.0
  0
LINE
  5
2A4
330
1F
100
AcDbEntity
  8
0
  6
Continuous
 62
     7
370
    25
100
AcDbLine
 10
-6892.0495625503
 20
3867.2765366783
 30
0.0
 11
-6890.9465675503
 21
3867.5365056783
 31
0.0
  0
LINE
  5
2A5
330
1F
100
AcDbEntity
  8
0
  6
Continuous
 62
     7
370
    25
100
AcDbLine
 10
-6890.9465675503
 20
3867.5365056783
 30
0.0
 11
-6890.1039225503
 21
3867.5365056783
 31
0.0
  0
LINE
  5
2A6
330
1F
100
AcDbEntity
  8
0
  6
Continuous
 62
     7
370
    25
100
AcDbLine
 10
-6890.1039225503
 20
3867.5365056783
 30
0.0
 11
-6888.7405775503
 21
3868.8026956783
 31
0.0
  0
LINE
  5
2A7
330
1F
100
AcDbEntity
  8
0
  6
Continuous
 62
     7
370
    25
100
AcDbLine
 10
-6888.7405775503
 20
3868.8026956783
 30
0.0
 11
-6886.0813245503
 21
3867.5365056783
 31
0.0
  0
LINE
  5
2A8
330
1F
100
AcDbEntity
  8
0
  6
Continuous
 62
     7
370
    25
100
AcDbLine
 10
-6886.0813245503
 20
3867.5365056783
 30
0.0
 11
-6885.1406355503
 21
3868.2174796783
 31
0.0
  0
LINE
  5
2A9
330
1F
100
AcDbEntity
  8
0
  6
Continuous
 62
     7
370
    25
100
AcDbLine
 10
-6885.1406355503
 20
3868.2174796783
 30
0.0
 11
-6884.2953235503
 21
3867.8611176783
 31
0.0
  0
LINE
  5
2AA
330
1F
100
AcDbEntity
  8
0
  6
Continuous
 62
     7
370
    25
100
AcDbLine
 10
-6884.2953235503
 20
3867.8611176783
 30
0.0
 11
-6884.1990575503
 21
3866.8550236783
 31
0.0
  0
LINE
  5
2AB
330
1F
100
AcDbEntity
  8
0
  6
Continuous
 62
     7
370
    25
100
AcDbLine
 10
-6884.1990575503
 20
3866.8550236783
 30
0.0
 11
-6883.7116315503
 21
3867.0173296783
 31
0.0
  0
LINE
  5
2AC
330
1F
100
AcDbEntity
  8
0
  6
Continuous
 62
     7
370
    25
100
AcDbLine
 10
-6883.7116315503
 20
3867.0173296783
 30
0.0
 11
-6883.2894835503
 21
3868.3155236783
 31
0.0
  0
LINE
  5
2AD
330
1F
100
AcDbEntity
  8
0
  6
Continuous
 62
     7
370
    25
100
AcDbLine
 10
-6883.2894835503
 20
3868.3155236783
 30
0.0
 11
-6879.5258385503
 21
3869.8400316783
 31
0.0
  0
LINE
  5
2AE
330
1F
100
AcDbEntity
  8
0
  6
Continuous
 62
     7
370
    25
100
AcDbLine
 10
-6879.5258385503
 20
3869.8400316783
 30
0.0
 11
-6877.9695805503
 21
3869.1588036783
 31
0.0
  0
LINE
  5
2AF
330
1F
100
AcDbEntity
  8
0
  6
Continuous
 62
     7
370
    25
100
AcDbLine
 10
-6877.9695805503
 20
3869.1588036783
 30
0.0
 11
-6877.7411075503
 21
3864.8761096783
 31
0.0
  0
LINE
  5
2B0
330
1F
100
AcDbEntity
  8
0
  6
Continuous
 62
     7
370
    25
100
AcDbLine
 10
-6877.7411075503
 20
3864.8761096783
 30
0.0
 11
-6874.5611545503
 21
3860.0084536783
 31
0.0
  0
LINE
  5
2B1
330
1F
100
AcDbEntity
  8
0
  6
Continuous
 62
     7
370
    25
100
AcDbLine
 10
-6874.5611545503
 20
3860.0084536783
 30
0.0
 11
-6874.9834295503
 21
3858.7435336783
 31
0.0
  0
LINE
  5
2B2
330
1F
100
AcDbEntity
  8
0
  6
Continuous
 62
     7
370
    25
100
AcDbLine
 10
-6874.9834295503
 20
3858.7435336783
 30
0.0
 11
-6872.9410155503
 21
3857.2180096783
 31
0.0
  0
LINE
  5
2B3
330
1F
100
AcDbEntity
  8
0
  6
Continuous
 62
     7
370
    25
100
AcDbLine
 10
-6872.9410155503
 20
3857.2180096783
 30
0.0
 11
-6872.5170895503
 21
3857.3805696783
 31
0.0
  0
LINE
  5
2B4
330
1F
100
AcDbEntity
  8
0
  6
Continuous
 62
     7
370
    25
100
AcDbLine
 10
-6872.5170895503
 20
3857.3805696783
 30
0.0
 11
-6871.5121385503
 21
3857.2830336783
 31
0.0
  0
LINE
  5
2B5
330
1F
100
AcDbEntity
  8
0
  6
Continuous
 62
     7
370
    25
100
AcDbLine
 10
-6871.5121385503
 20
3857.2830336783
 30
0.0
 11
-6871.4140945503
 21
3856.0825026783
 31
0.0
  0
LINE
  5
2B6
330
1F
100
AcDbEntity
  8
0
  6
Continuous
 62
     7
370
    25
100
AcDbLine
 10
-6871.4140945503
 20
3856.0825026783
 30
0.0
 11
-6869.3707915503
 21
3855.4983026783
 31
0.0
  0
LINE
  5
2B7
330
1F
100
AcDbEntity
  8
0
  6
Continuous
 62
     7
370
    25
100
AcDbLine
 10
-6869.3707915503
 20
3855.4983026783
 30
0.0
 11
-6869.2741445503
 21
3854.2982796783
 31
0.0
  0
LINE
  5
2B8
330
1F
100
AcDbEntity
  8
0
  6
Continuous
 62
     7
370
    25
100
AcDbLine
 10
-6869.2741445503
 20
3854.2982796783
 30
0.0
 11
-6870.5700525503
 21
3853.0327246783
 31
0.0
  0
LINE
  5
2B9
330
1F
100
AcDbEntity
  8
0
  6
Continuous
 62
     7
370
    25
100
AcDbLine
 10
-6870.5700525503
 20
3853.0327246783
 30
0.0
 11
-6870.2130555503
 21
3851.0527946783
 31
0.0
  0
LINE
  5
2BA
330
1F
100
AcDbEntity
  8
0
  6
Continuous
 62
     7
370
    25
100
AcDbLine
 10
-6870.2130555503
 20
3851.0527946783
 30
0.0
 11
-6869.2084855503
 21
3850.3715666783
 31
0.0
  0
LINE
  5
2BB
330
1F
100
AcDbEntity
  8
0
  6
Continuous
 62
     7
370
    25
100
AcDbLine
 10
-6869.2084855503
 20
3850.3715666783
 30
0.0
 11
-6866.9701105503
 21
3849.5291756783
 31
0.0
  0
LINE
  5
2BC
330
1F
100
AcDbEntity
  8
0
  6
Continuous
 62
     7
370
    25
100
AcDbLine
 10
-6866.9701105503
 20
3849.5291756783
 30
0.0
 11
-6865.1853795503
 21
3849.6905926783
 31
0.0
  0
LINE
  5
2BD
330
1F
100
AcDbEntity
  8
0
  6
Continuous
 62
     7
370
    25
100
AcDbLine
 10
-6865.1853795503
 20
3849.6905926783
 30
0.0
 11
-6864.6651875503
 21
3850.0472086783
 31
0.0
  0
ENDSEC
  0
SECTION
  2
OBJECTS
  0
DICTIONARY
  5
C
330
0
100
AcDbDictionary
281
     1
  3
ACAD_GROUP
350
D
  3
ACAD_LAYOUT
350
1A
  3
ACAD_MLINESTYLE
350
17
  3
ACAD_PLOTSETTINGS
350
19
  3
ACAD_PLOTSTYLENAME
350
E
  3
ACAD_SCALELIST
350
47
  0
DICTIONARY
  5
D
102
{ACAD_REACTORS
330
C
102
}
330
C
100
AcDbDictionary
281
     1
  0
DICTIONARY
  5
1A
102
{ACAD_REACTORS
330
C
102
}
330
C
100
AcDbDictionary
281
     1
  3
Layout1
350
1E
  3
Layout2
350
26
  3
Model
350
22
  0
DICTIONARY
  5
17
102
{ACAD_REACTORS
330
C
102
}
330
C
100
AcDbDictionary
281
     1
  3
Standard
350
18
  0
DICTIONARY
  5
19
102
{ACAD_REACTORS
330
C
102
}
330
C
100
AcDbDictionary
281
     1
  0
ACDBDICTIONARYWDFLT
  5
E
102
{ACAD_REACTORS
330
C
102
}
330
C
100
AcDbDictionary
281
     1
  3
Normal
350
F
100
AcDbDictionaryWithDefault
340
F
  0
DICTIONARY
  5
47
102
{ACAD_REACTORS
330
C
102
}
330
C
100
AcDbDictionary
281
     1
  3
A0
350
48
  3
A1
350
49
  3
A2
350
4A
  3
A3
350
4B
  3
A4
350
4C
  3
A5
350
4D
  3
A6
350
4E
  3
A7
350
4F
  3
A8
350
50
  3
A9
350
51
  3
B0
350
52
  3
B1
350
53
  3
B2
350
54
  3
B3
350
55
  3
B4
350
56
  3
B5
350
57
  3
B6
350
58
  3
B7
350
59
  3
B8
350
5A
  3
B9
350
5B
  3
C0
350
5C
  3
C1
350
5D
  3
C2
350
5E
  3
C3
350
5F
  3
C4
350
60
  3
C5
350
61
  3
C6
350
62
  3
C7
350
63
  3
C8
350
64
  3
C9
350
65
  3
D0
350
66
  3
D1
350
67
  3
D2
350
68
  0
LAYOUT
  5
1E
102
{ACAD_REACTORS
330
1A
102
}
330
1A
100
AcDbPlotSettings
  1

  2
none_device
  4

  6

 40
0.0
 41
0.0
 42
0.0
 43
0.0
 44
0.0
 45
0.0
 46
0.0
 47
0.0
 48
0.0
 49
0.0
140
0.0
141
0.0
142
1.0
143
1.0
 70
   688
 72
     1
 73
     0
 74
     5
  7

 75
    16
147
1.0
148
0.0
149
0.0
100
AcDbLayout
  1
Layout1
 70
     1
 71
     1
 10
0.0
 20
0.0
 11
420.0
 21
297.0
 12
0.0
 22
0.0
 32
0.0
 14
1.0000000000E+20
 24
1.0000000000E+20
 34
1.0000000000E+20
 15
-1.0000000000E+20
 25
-1.0000000000E+20
 35
-1.0000000000E+20
146
0.0
 13
0.0
 23
0.0
 33
0.0
 16
1.0
 26
0.0
 36
0.0
 17
0.0
 27
1.0
 37
0.0
 76
     0
330
1B
  0
LAYOUT
  5
26
102
{ACAD_REACTORS
330
1A
102
}
330
1A
100
AcDbPlotSettings
  1

  2
none_device
  4

  6

 40
0.0
 41
0.0
 42
0.0
 43
0.0
 44
0.0
 45
0.0
 46
0.0
 47
0.0
 48
0.0
 49
0.0
140
0.0
141
0.0
142
1.0
143
1.0
 70
   688
 72
     1
 73
     0
 74
     5
  7

 75
    16
147
1.0
148
0.0
149
0.0
100
AcDbLayout
  1
Layout2
 70
     1
 71
     2
 10
0.0
 20
0.0
 11
0.0
 21
0.0
 12
0.0
 22
0.0
 32
0.0
 14
0.0
 24
0.0
 34
0.0
 15
0.0
 25
0.0
 35
0.0
146
0.0
 13
0.0
 23
0.0
 33
0.0
 16
1.0
 26
0.0
 36
0.0
 17
0.0
 27
1.0
 37
0.0
 76
     0
330
23
  0
LAYOUT
  5
22
102
{ACAD_REACTORS
330
1A
102
}
330
1A
100
AcDbPlotSettings
  1

  2
none_device
  4
ANSI_A_(11.00_x_8.50_Inches)
  6

 40
6.35
 41
19.05
 42
6.35000508
 43
19.05000254
 44
279.4
 45
215.9
 46
17554.0340543717
 47
-9586.4015046204
 48
0.0
 49
0.0
140
0.0
141
0.0
142
0.0995195871
143
1.0
 70
  1696
 72
     0
 73
     0
 74
     0
  7

 75
     0
147
0.0179189148
148
-1300.4909072572
149
0.0
100
AcDbLayout
  1
Model
 70
     1
 71
     0
 10
0.0
 20
0.0
 11
420.0
 21
297.0
 12
0.0
 22
0.0
 32
0.0
 14
-6944.5498385503
 24
3785.2838126783
 34
0.0
 15
-6838.7409315503
 25
3869.8400316783
 35
0.0
146
0.0
 13
0.0
 23
0.0
 33
0.0
 16
1.0
 26
0.0
 36
0.0
 17
0.0
 27
1.0
 37
0.0
 76
     0
330
1F
331
29
  0
MLINESTYLE
  5
18
102
{ACAD_REACTORS
330
17
102
}
330
17
100
AcDbMlineStyle
  2
Standard
 70
     0
  3

 62
   256
 51
90.0
 52
90.0
 71
     2
 49
0.5
 62
   256
  6
BYLAYER
 49
-0.5
 62
   256
  6
BYLAYER
  0
ACDBPLACEHOLDER
  5
F
102
{ACAD_REACTORS
330
E
102
}
330
E
  0
SCALE
  5
48
102
{ACAD_REACTORS
330
47
102
}
330
47
100
AcDbScale
 70
     0
300
1:1
140
1.0
141
1.0
290
     1
  0
SCALE
  5
49
102
{ACAD_REACTORS
330
47
102
}
330
47
100
AcDbScale
 70
     0
300
1:2
140
1.0
141
2.0
290
     0
  0
SCALE
  5
4A
102
{ACAD_REACTORS
330
47
102
}
330
47
100
AcDbScale
 70
     0
300
1:4
140
1.0
141
4.0
290
     0
  0
SCALE
  5
4B
102
{ACAD_REACTORS
330
47
102
}
330
47
100
AcDbScale
 70
     0
300
1:5
140
1.0
141
5.0
290
     0
  0
SCALE
  5
4C
102
{ACAD_REACTORS
330
47
102
}
330
47
100
AcDbScale
 70
     0
300
1:8
140
1.0
141
8.0
290
     0
  0
SCALE
  5
4D
102
{ACAD_REACTORS
330
47
102
}
330
47
100
AcDbScale
 70
     0
300
1:10
140
1.0
141
10.0
290
     0
  0
SCALE
  5
4E
102
{ACAD_REACTORS
330
47
102
}
330
47
100
AcDbScale
 70
     0
300
1:16
140
1.0
141
16.0
290
     0
  0
SCALE
  5
4F
102
{ACAD_REACTORS
330
47
102
}
330
47
100
AcDbScale
 70
     0
300
1:20
140
1.0
141
20.0
290
     0
  0
SCALE
  5
50
102
{ACAD_REACTORS
330
47
102
}
330
47
100
AcDbScale
 70
     0
300
1:30
140
1.0
141
30.0
290
     0
  0
SCALE
  5
51
102
{ACAD_REACTORS
330
47
102
}
330
47
100
AcDbScale
 70
     0
300
1:40
140
1.0
141
40.0
290
     0
  0
SCALE
  5
52
102
{ACAD_REACTORS
330
47
102
}
330
47
100
AcDbScale
 70
     0
300
1:50
140
1.0
141
50.0
290
     0
  0
SCALE
  5
53
102
{ACAD_REACTORS
330
47
102
}
330
47
100
AcDbScale
 70
     0
300
1:100
140
1.0
141
100.0
290
     0
  0
SCALE
  5
54
102
{ACAD_REACTORS
330
47
102
}
330
47
100
AcDbScale
 70
     0
300
2:1
140
2.0
141
1.0
290
     0
  0
SCALE
  5
55
102
{ACAD_REACTORS
330
47
102
}
330
47
100
AcDbScale
 70
     0
300
4:1
140
4.0
141
1.0
290
     0
  0
SCALE
  5
56
102
{ACAD_REACTORS
330
47
102
}
330
47
100
AcDbScale
 70
     0
300
8:1
140
8.0
141
1.0
290
     0
  0
SCALE
  5
57
102
{ACAD_REACTORS
330
47
102
}
330
47
100
AcDbScale
 70
     0
300
10:1
140
10.0
141
1.0
290
     0
  0
SCALE
  5
58
102
{ACAD_REACTORS
330
47
102
}
330
47
100
AcDbScale
 70
     0
300
100:1
140
100.0
141
1.0
290
     0
  0
SCALE
  5
59
102
{ACAD_REACTORS
330
47
102
}
330
47
100
AcDbScale
 70
     0
300
1/128" = 1'-0"
140
0.0078125
141
12.0
290
     0
  0
SCALE
  5
5A
102
{ACAD_REACTORS
330
47
102
}
330
47
100
AcDbScale
 70
     0
300
1/64" = 1'-0"
140
0.015625
141
12.0
290
     0
  0
SCALE
  5
5B
102
{ACAD_REACTORS
330
47
102
}
330
47
100
AcDbScale
 70
     0
300
1/32" = 1'-0"
140
0.03125
141
12.0
290
     0
  0
SCALE
  5
5C
102
{ACAD_REACTORS
330
47
102
}
330
47
100
AcDbScale
 70
     0
300
1/16" = 1'-0"
140
0.0625
141
12.0
290
     0
  0
SCALE
  5
5D
102
{ACAD_REACTORS
330
47
102
}
330
47
100
AcDbScale
 70
     0
300
3/32" = 1'-0"
140
0.09375
141
12.0
290
     0
  0
SCALE
  5
5E
102
{ACAD_REACTORS
330
47
102
}
330
47
100
AcDbScale
 70
     0
300
1/8" = 1'-0"
140
0.125
141
12.0
290
     0
  0
SCALE
  5
5F
102
{ACAD_REACTORS
330
47
102
}
330
47
100
AcDbScale
 70
     0
300
3/16" = 1'-0"
140
0.1875
141
12.0
290
     0
  0
SCALE
  5
60
102
{ACAD_REACTORS
330
47
102
}
330
47
100
AcDbScale
 70
     0
300
1/4" = 1'-0"
140
0.25
141
12.0
290
     0
  0
SCALE
  5
61
102
{ACAD_REACTORS
330
47
102
}
330
47
100
AcDbScale
 70
     0
300
3/8" = 1'-0"
140
0.375
141
12.0
290
     0
  0
SCALE
  5
62
102
{ACAD_REACTORS
330
47
102
}
330
47
100
AcDbScale
 70
     0
300
1/2" = 1'-0"
140
0.5
141
12.0
290
     0
  0
SCALE
  5
63
102
{ACAD_REACTORS
330
47
102
}
330
47
100
AcDbScale
 70
     0
300
3/4" = 1'-0"
140
0.75
141
12.0
290
     0
  0
SCALE
  5
64
102
{ACAD_REACTORS
330
47
102
}
330
47
100
AcDbScale
 70
     0
300
1" = 1'-0"
140
1.0
141
12.0
290
     0
  0
SCALE
  5
65
102
{ACAD_REACTORS
330
47
102
}
330
47
100
AcDbScale
 70
     0
300
1-1/2" = 1'-0"
140
1.5
141
12.0
290
     0
  0
SCALE
  5
66
102
{ACAD_REACTORS
330
47
102
}
330
47
100
AcDbScale
 70
     0
300
3" = 1'-0"
140
3.0
141
12.0
290
     0
  0
SCALE
  5
67
102
{ACAD_REACTORS
330
47
102
}
330
47
100
AcDbScale
 70
     0
300
6" = 1'-0"
140
6.0
141
12.0
290
     0
  0
SCALE
  5
68
102
{ACAD_REACTORS
330
47
102
}
330
47
100
AcDbScale
 70
     0
300
1'-0" = 1'-0"
140
12.0
141
12.0
290
     0
  0
ENDSEC
  0
EOF
