  0
SECTION
  2
HEADER
  9
$ACADVER
  1
AC1015
  9
$ACADMAINTVER
 70
     6
  9
$DWGCODEPAGE
  3
ANSI_1251
  9
$INSBASE
 10
0.0
 20
0.0
 30
0.0
  9
$EXTMIN
 10
-7202.8020336436
 20
9045.0652685773
 30
0.0
  9
$EXTMAX
 10
-7119.8673506436
 20
9135.0080655773
 30
0.0
  9
$LIMMIN
 10
0.0
 20
0.0
  9
$LIMMAX
 10
420.0
 20
297.0
  9
$ORTHOMODE
 70
     0
  9
$REGENMODE
 70
     1
  9
$FILLMODE
 70
     1
  9
$QTEXTMODE
 70
     0
  9
$MIRRTEXT
 70
     1
  9
$LTSCALE
 40
1.0
  9
$ATTMODE
 70
     1
  9
$TEXTSIZE
 40
4.0
  9
$TRACEWID
 40
1.0
  9
$TEXTSTYLE
  7
Standard
  9
$CLAYER
  8
0
  9
$CELTYPE
  6
ByLayer
  9
$CECOLOR
 62
   256
  9
$CELTSCALE
 40
1.0
  9
$DISPSILH
 70
     0
  9
$DIMSCALE
 40
1.0
  9
$DIMASZ
 40
6.0
  9
$DIMEXO
 40
1.0
  9
$DIMDLI
 40
3.75
  9
$DIMRND
 40
0.0
  9
$DIMDLE
 40
0.0
  9
$DIMEXE
 40
1.0
  9
$DIMTP
 40
0.0
  9
$DIMTM
 40
0.0
  9
$DIMTXT
 40
4.0
  9
$DIMCEN
 40
2.5
  9
$DIMTSZ
 40
0.0
  9
$DIMTOL
 70
     0
  9
$DIMLIM
 70
     0
  9
$DIMTIH
 70
     1
  9
$DIMTOH
 70
     1
  9
$DIMSE1
 70
     0
  9
$DIMSE2
 70
     0
  9
$DIMTAD
 70
     1
  9
$DIMZIN
 70
     0
  9
$DIMBLK
  1

  9
$DIMASO
 70
     1
  9
$DIMSHO
 70
     1
  9
$DIMPOST
  1

  9
$DIMAPOST
  1

  9
$DIMALT
 70
     0
  9
$DIMALTD
 70
     3
  9
$DIMALTF
 40
0.0393700787
  9
$DIMLFAC
 40
1.0
  9
$DIMTOFL
 70
     1
  9
$DIMTVP
 40
0.0
  9
$DIMTIX
 70
     0
  9
$DIMSOXD
 70
     0
  9
$DIMSAH
 70
     0
  9
$DIMBLK1
  1

  9
$DIMBLK2
  1

  9
$DIMSTYLE
  2
ISO-25
  9
$DIMCLRD
 70
     0
  9
$DIMCLRE
 70
     0
  9
$DIMCLRT
 70
     0
  9
$DIMTFAC
 40
1.0
  9
$DIMGAP
 40
3.0
  9
$DIMJUST
 70
     0
  9
$DIMSD1
 70
     0
  9
$DIMSD2
 70
     0
  9
$DIMTOLJ
 70
     0
  9
$DIMTZIN
 70
     0
  9
$DIMALTZ
 70
     0
  9
$DIMALTTZ
 70
     0
  9
$DIMUPT
 70
     0
  9
$DIMDEC
 70
     2
  9
$DIMTDEC
 70
     4
  9
$DIMALTU
 70
     2
  9
$DIMALTTD
 70
     3
  9
$DIMTXSTY
  7
Standard
  9
$DIMAUNIT
 70
     0
  9
$DIMADEC
 70
     2
  9
$DIMALTRND
 40
0.0
  9
$DIMAZIN
 70
     0
  9
$DIMDSEP
 70
    44
  9
$DIMATFIT
 70
     3
  9
$DIMFRAC
 70
     0
  9
$DIMLDRBLK
  1

  9
$DIMLUNIT
 70
     2
  9
$DIMLWD
 70
    -2
  9
$DIMLWE
 70
    -2
  9
$DIMTMOVE
 70
     0
  9
$LUNITS
 70
     2
  9
$LUPREC
 70
     2
  9
$SKETCHINC
 40
1.0
  9
$FILLETRAD
 40
10.0
  9
$AUNITS
 70
     1
  9
$AUPREC
 70
     2
  9
$MENU
  1
.
  9
$ELEVATION
 40
0.0
  9
$PELEVATION
 40
0.0
  9
$THICKNESS
 40
0.0
  9
$LIMCHECK
 70
     0
  9
$CHAMFERA
 40
0.0
  9
$CHAMFERB
 40
0.0
  9
$CHAMFERC
 40
0.0
  9
$CHAMFERD
 40
0.0
  9
$SKPOLY
 70
     0
  9
$TDCREATE
 40
2460368.661103217
  9
$TDUCREATE
 40
2460368.577769884
  9
$TDUPDATE
 40
2460368.661131088
  9
$TDUUPDATE
 40
2460368.577797755
  9
$TDINDWG
 40
0.0000000116
  9
$TDUSRTIMER
 40
0.0000000116
  9
$USRTIMER
 70
     1
  9
$ANGBASE
 50
0.0
  9
$ANGDIR
 70
     0
  9
$PDMODE
 70
     0
  9
$PDSIZE
 40
-1.0
  9
$PLINEWID
 40
0.0
  9
$SPLFRAME
 70
     0
  9
$SPLINETYPE
 70
     6
  9
$SPLINESEGS
 70
     8
  9
$HANDSEED
  5
2C0
  9
$SURFTAB1
 70
     6
  9
$SURFTAB2
 70
     6
  9
$SURFTYPE
 70
     6
  9
$SURFU
 70
     6
  9
$SURFV
 70
     6
  9
$UCSBASE
  2

  9
$UCSNAME
  2

  9
$UCSORG
 10
0.0
 20
0.0
 30
0.0
  9
$UCSXDIR
 10
1.0
 20
0.0
 30
0.0
  9
$UCSYDIR
 10
0.0
 20
1.0
 30
0.0
  9
$UCSORTHOREF
  2

  9
$UCSORTHOVIEW
 70
     0
  9
$UCSORGTOP
 10
0.0
 20
0.0
 30
0.0
  9
$UCSORGBOTTOM
 10
0.0
 20
0.0
 30
0.0
  9
$UCSORGLEFT
 10
0.0
 20
0.0
 30
0.0
  9
$UCSORGRIGHT
 10
0.0
 20
0.0
 30
0.0
  9
$UCSORGFRONT
 10
0.0
 20
0.0
 30
0.0
  9
$UCSORGBACK
 10
0.0
 20
0.0
 30
0.0
  9
$PUCSBASE
  2

  9
$PUCSNAME
  2

  9
$PUCSORG
 10
0.0
 20
0.0
 30
0.0
  9
$PUCSXDIR
 10
1.0
 20
0.0
 30
0.0
  9
$PUCSYDIR
 10
0.0
 20
1.0
 30
0.0
  9
$PUCSORTHOREF
  2

  9
$PUCSORTHOVIEW
 70
     0
  9
$PUCSORGTOP
 10
0.0
 20
0.0
 30
0.0
  9
$PUCSORGBOTTOM
 10
0.0
 20
0.0
 30
0.0
  9
$PUCSORGLEFT
 10
0.0
 20
0.0
 30
0.0
  9
$PUCSORGRIGHT
 10
0.0
 20
0.0
 30
0.0
  9
$PUCSORGFRONT
 10
0.0
 20
0.0
 30
0.0
  9
$PUCSORGBACK
 10
0.0
 20
0.0
 30
0.0
  9
$USERI1
 70
     0
  9
$USERI2
 70
     0
  9
$USERI3
 70
     0
  9
$USERI4
 70
     0
  9
$USERI5
 70
     0
  9
$USERR1
 40
0.0
  9
$USERR2
 40
0.0
  9
$USERR3
 40
0.0
  9
$USERR4
 40
0.0
  9
$USERR5
 40
0.0
  9
$WORLDVIEW
 70
     1
  9
$SHADEDGE
 70
     3
  9
$SHADEDIF
 70
    70
  9
$TILEMODE
 70
     1
  9
$MAXACTVP
 70
    64
  9
$PINSBASE
 10
0.0
 20
0.0
 30
0.0
  9
$PLIMCHECK
 70
     0
  9
$PEXTMIN
 10
1.0000000000E+20
 20
1.0000000000E+20
 30
1.0000000000E+20
  9
$PEXTMAX
 10
-1.0000000000E+20
 20
-1.0000000000E+20
 30
-1.0000000000E+20
  9
$PLIMMIN
 10
0.0
 20
0.0
  9
$PLIMMAX
 10
420.0
 20
297.0
  9
$UNITMODE
 70
     0
  9
$VISRETAIN
 70
     1
  9
$PLINEGEN
 70
     0
  9
$PSLTSCALE
 70
     1
  9
$TREEDEPTH
 70
  3020
  9
$CMLSTYLE
  2
Standard
  9
$CMLJUST
 70
     0
  9
$CMLSCALE
 40
20.0
  9
$PROXYGRAPHICS
 70
     1
  9
$MEASUREMENT
 70
     1
  9
$CELWEIGHT
370
    -1
  9
$ENDCAPS
280
     0
  9
$JOINSTYLE
280
     0
  9
$LWDISPLAY
290
     1
  9
$INSUNITS
 70
     4
  9
$HYPERLINKBASE
  1

  9
$STYLESHEET
  1

  9
$XEDIT
290
     1
  9
$CEPSNTYPE
380
     0
  9
$PSTYLEMODE
290
     1
  9
$FINGERPRINTGUID
  2
{e457cda3-fbbd-4c0d-9f0f-d6e7f4490eab}
  9
$VERSIONGUID
  2
{FAEB1C32-E019-11D5-929B-00C0DF256EC4}
  9
$EXTNAMES
290
     1
  9
$PSVPSCALE
 40
0.0
  9
$OLESTARTUP
290
     0
  0
ENDSEC
  0
SECTION
  2
CLASSES
  0
CLASS
  1
ACDBDICTIONARYWDFLT
  2
AcDbDictionaryWithDefault
  3
ObjectDBX Classes
 90
        0
280
     0
281
     0
  0
CLASS
  1
VISUALSTYLE
  2
AcDbVisualStyle
  3
ObjectDBX Classes
 90
     4095
280
     0
281
     0
  0
CLASS
  1
MATERIAL
  2
AcDbMaterial
  3
ObjectDBX Classes
 90
     1153
280
     0
281
     0
  0
CLASS
  1
SCALE
  2
AcDbScale
  3
ObjectDBX Classes
 90
     1153
280
     0
281
     0
  0
CLASS
  1
TABLESTYLE
  2
AcDbTableStyle
  3
ObjectDBX Classes
 90
     4095
280
     0
281
     0
  0
CLASS
  1
MLEADERSTYLE
  2
AcDbMLeaderStyle
  3
ACDB_MLEADERSTYLE_CLASS
 90
     4095
280
     0
281
     0
  0
CLASS
  1
SUN
  2
AcDbSun
  3
SCENEOE
 90
     1153
280
     0
281
     0
  0
CLASS
  1
ACDBPLACEHOLDER
  2
AcDbPlaceHolder
  3
ObjectDBX Classes
 90
        0
280
     0
281
     0
  0
CLASS
  1
LAYOUT
  2
AcDbLayout
  3
ObjectDBX Classes
 90
        0
280
     0
281
     0
  0
ENDSEC
  0
SECTION
  2
TABLES
  0
TABLE
  2
VPORT
  5
8
330
0
100
AcDbSymbolTable
 70
     1
  0
VPORT
  5
29
330
8
100
AcDbSymbolTableRecord
100
AcDbViewportTableRecord
  2
*Active
 70
     0
 10
0.0
 20
0.0
 11
1.0
 21
1.0
 12
-7161.3346921436
 22
9090.0366670773
 13
0.0
 23
0.0
 14
10.0
 24
10.0
 15
10.0
 25
10.0
 16
0.0
 26
0.0
 36
1.0
 17
0.0
 27
0.0
 37
0.0
 40
91.74165294
 41
0.9220825432
 42
50.0
 43
0.0
 44
0.0
 50
0.0
 51
0.0
 71
     0
 72
   100
 73
     1
 74
     3
 75
     0
 76
     0
 77
     0
 78
     0
281
     0
 65
     1
110
0.0
120
0.0
130
0.0
111
1.0
121
0.0
131
0.0
112
0.0
122
1.0
132
0.0
 79
     0
146
0.0
  0
ENDTAB
  0
TABLE
  2
LTYPE
  5
5
330
0
100
AcDbSymbolTable
 70
     6
  0
LTYPE
  5
14
330
5
100
AcDbSymbolTableRecord
100
AcDbLinetypeTableRecord
  2
ByBlock
 70
     0
  3

 72
    65
 73
     0
 40
0.0
  0
LTYPE
  5
15
330
5
100
AcDbSymbolTableRecord
100
AcDbLinetypeTableRecord
  2
ByLayer
 70
     0
  3

 72
    65
 73
     0
 40
0.0
  0
LTYPE
  5
16
330
5
100
AcDbSymbolTableRecord
100
AcDbLinetypeTableRecord
  2
Continuous
 70
     0
  3
Solid line
 72
    65
 73
     0
 40
0.0
  0
LTYPE
  5
6E
330
5
100
AcDbSymbolTableRecord
100
AcDbLinetypeTableRecord
  2
HIDDEN
 70
     0
  3
Hidden __ __ __ __ __ __ __ __ __ __ __ __ __ __
 72
    65
 73
     2
 40
1.905
 49
1.27
 74
     0
 49
-0.635
 74
     0
  0
LTYPE
  5
6F
330
5
100
AcDbSymbolTableRecord
100
AcDbLinetypeTableRecord
  2
PHANTOM
 70
     0
  3
Phantom ______  __  __  ______  __  __  ______
 72
    65
 73
     6
 40
12.7
 49
6.35
 74
     0
 49
-1.27
 74
     0
 49
1.27
 74
     0
 49
-1.27
 74
     0
 49
1.27
 74
     0
 49
-1.27
 74
     0
  0
LTYPE
  5
70
330
5
100
AcDbSymbolTableRecord
100
AcDbLinetypeTableRecord
  2
CENTER
 70
     0
  3
Center ____ _ ____ _ ____ _ ____ _ ____ _ ____
 72
    65
 73
     4
 40
10.16
 49
6.35
 74
     0
 49
-1.27
 74
     0
 49
1.27
 74
     0
 49
-1.27
 74
     0
  0
LTYPE
  5
71
330
5
100
AcDbSymbolTableRecord
100
AcDbLinetypeTableRecord
  2
CENTERX2
 70
     0
  3
Center (2x) ________  __  ________  __  _____
 72
    65
 73
     4
 40
20.32
 49
12.7
 74
     0
 49
-2.54
 74
     0
 49
2.54
 74
     0
 49
-2.54
 74
     0
  0
LTYPE
  5
72
330
5
100
AcDbSymbolTableRecord
100
AcDbLinetypeTableRecord
  2
DOT2
 70
     0
  3
Dot (.5x) ........................................
 72
    65
 73
     2
 40
0.635
 49
0.0
 74
     0
 49
-0.635
 74
     0
  0
ENDTAB
  0
TABLE
  2
LAYER
  5
2
330
0
100
AcDbSymbolTable
 70
     1
  0
LAYER
  5
10
330
2
100
AcDbSymbolTableRecord
100
AcDbLayerTableRecord
  2
0
 70
     0
 62
     7
  6
Continuous
370
    -3
390
F
  0
ENDTAB
  0
TABLE
  2
STYLE
  5
3
330
0
100
AcDbSymbolTable
 70
     1
  0
STYLE
  5
11
330
3
100
AcDbSymbolTableRecord
100
AcDbTextStyleTableRecord
  2
Standard
 70
     0
 40
0.0
 41
1.0
 50
0.0
 71
     0
 42
4.0
  3
txt
  4

  0
ENDTAB
  0
TABLE
  2
VIEW
  5
6
330
0
100
AcDbSymbolTable
 70
     0
  0
ENDTAB
  0
TABLE
  2
UCS
  5
7
330
0
100
AcDbSymbolTable
 70
     0
  0
ENDTAB
  0
TABLE
  2
APPID
  5
9
330
0
100
AcDbSymbolTable
 70
     1
  0
APPID
  5
12
330
9
100
AcDbSymbolTableRecord
100
AcDbRegAppTableRecord
  2
ACAD
 70
     0
  0
ENDTAB
  0
TABLE
  2
DIMSTYLE
  5
A
330
0
100
AcDbSymbolTable
 70
     1
100
AcDbDimStyleTable
  0
DIMSTYLE
105
27
330
A
100
AcDbSymbolTableRecord
100
AcDbDimStyleTableRecord
  2
ISO-25
 70
     0
 41
2.5
 42
0.625
 43
3.75
 44
1.25
 73
     0
 74
     0
 77
     1
 78
     8
140
2.5
141
2.5
143
0.0393700787
147
0.625
171
     3
172
     1
178
     0
271
     2
272
     2
274
     3
278
    44
283
     0
284
     8
340
11
  0
ENDTAB
  0
TABLE
  2
BLOCK_RECORD
  5
1
330
0
100
AcDbSymbolTable
 70
     1
  0
BLOCK_RECORD
  5
1F
330
1
100
AcDbSymbolTableRecord
100
AcDbBlockTableRecord
  2
*Model_Space
340
22
  0
BLOCK_RECORD
  5
1B
330
1
100
AcDbSymbolTableRecord
100
AcDbBlockTableRecord
  2
*Paper_Space
340
1E
  0
BLOCK_RECORD
  5
23
330
1
100
AcDbSymbolTableRecord
100
AcDbBlockTableRecord
  2
*Paper_Space0
340
26
  0
ENDTAB
  0
ENDSEC
  0
SECTION
  2
BLOCKS
  0
BLOCK
  5
20
330
1F
100
AcDbEntity
  8
0
100
AcDbBlockBegin
  2
*Model_Space
 70
     0
 10
0.0
 20
0.0
 30
0.0
  3
*Model_Space
  1

  0
ENDBLK
  5
21
330
1F
100
AcDbEntity
  8
0
100
AcDbBlockEnd
  0
BLOCK
  5
1C
330
1B
100
AcDbEntity
 67
     1
  8
0
100
AcDbBlockBegin
  2
*Paper_Space
 70
     0
 10
0.0
 20
0.0
 30
0.0
  3
*Paper_Space
  1

  0
ENDBLK
  5
1D
330
1B
100
AcDbEntity
 67
     1
  8
0
100
AcDbBlockEnd
  0
BLOCK
  5
24
330
23
100
AcDbEntity
  8
0
100
AcDbBlockBegin
  2
*Paper_Space0
 70
     0
 10
0.0
 20
0.0
 30
0.0
  3
*Paper_Space0
  1

  0
ENDBLK
  5
25
330
23
100
AcDbEntity
  8
0
100
AcDbBlockEnd
  0
ENDSEC
  0
SECTION
  2
ENTITIES
  0
SPLINE
  5
73
330
1F
100
AcDbEntity
  8
0
  6
Continuous
 62
     7
370
    25
100
AcDbSpline
210
0.0
220
0.0
230
1.0
 70
     8
 71
     3
 72
    15
 73
    11
 74
     0
 42
0.000000001
 43
0.00000001
 40
0.0
 40
0.0
 40
0.0
 40
0.0
 40
0.1210437057282712
 40
0.2311608615820355
 40
0.3345582471448511
 40
0.4404078971910598
 40
0.5564076305372502
 40
0.6855748386380021
 40
0.8323618927656166
 40
1.0
 40
1.0
 40
1.0
 40
1.0
 10
-7159.797733391551
 20
9073.958640832392
 30
0.0
 10
-7159.798731606493
 20
9073.937606467398
 30
0.0
 10
-7159.800637928057
 20
9073.897436498164
 30
0.0
 10
-7159.81823947698
 20
9073.841367498819
 30
0.0
 10
-7159.848350860969
 20
9073.794066873084
 30
0.0
 10
-7159.890940250793
 20
9073.756247679228
 30
0.0
 10
-7159.94404658033
 20
9073.72562328485
 30
0.0
 10
-7160.00937130893
 20
9073.705195025534
 30
0.0
 10
-7160.085766383827
 20
9073.69442268419
 30
0.0
 10
-7160.140286962312
 20
9073.692541016786
 30
0.0
 10
-7160.169355013173
 20
9073.691537791852
 30
0.0
  0
SPLINE
  5
74
330
1F
100
AcDbEntity
  8
0
  6
Continuous
 62
     7
370
    25
100
AcDbSpline
210
0.0
220
0.0
230
1.0
 70
     8
 71
     3
 72
    15
 73
    11
 74
     0
 42
0.000000001
 43
0.00000001
 40
0.0
 40
0.0
 40
0.0
 40
0.0
 40
0.1526075283706816
 40
0.2869925149660316
 40
0.4076393594010112
 40
0.5203370983718955
 40
0.6282469165428451
 40
0.7394778111328938
 40
0.862581966082393
 40
0.9999999999999999
 40
0.9999999999999999
 40
0.9999999999999999
 40
0.9999999999999999
 10
-7160.169355013173
 20
9073.691537791852
 30
0.0
 10
-7160.192624288022
 20
9073.6925423821
 30
0.0
 10
-7160.236384302888
 20
9073.6944316066
 30
0.0
 10
-7160.297893433537
 20
9073.705310647581
 30
0.0
 10
-7160.350556480129
 20
9073.726128355587
 30
0.0
 10
-7160.393003566224
 20
9073.757053867665
 30
0.0
 10
-7160.426952787212
 20
9073.795232703165
 30
0.0
 10
-7160.450578450825
 20
9073.842374901269
 30
0.0
 10
-7160.464358586719
 20
9073.89786498298
 30
0.0
 10
-7160.465860234197
 20
9073.937653515059
 30
0.0
 10
-7160.46665231047
 20
9073.958640832392
 30
0.0
  0
SPLINE
  5
76
330
1F
100
AcDbEntity
  8
0
  6
Continuous
 62
     7
370
    25
100
AcDbSpline
210
0.0
220
0.0
230
1.0
 70
     8
 71
     3
 72
    15
 73
    11
 74
     0
 42
0.000000001
 43
0.00000001
 40
0.0
 40
0.0
 40
0.0
 40
0.0
 40
0.137355430253074
 40
0.2604035025255084
 40
0.3715837235510175
 40
0.4813661282244726
 40
0.5925463492500215
 40
0.7131382304872268
 40
0.8474619951862998
 40
1.0
 40
1.0
 40
1.0
 40
1.0
 10
-7160.46665231047
 20
9078.959274278339
 30
0.0
 10
-7160.465851444596
 20
9078.98025318046
 30
0.0
 10
-7160.464333133465
 20
9079.020025758664
 30
0.0
 10
-7160.450664458423
 20
9079.075622553615
 30
0.0
 10
-7160.426532599605
 20
9079.122672015787
 30
0.0
 10
-7160.393794932472
 20
9079.162134603668
 30
0.0
 10
-7160.35008082793
 20
9079.191529538128
 30
0.0
 10
-7160.297975683521
 20
9079.212709839265
 30
0.0
 10
-7160.236359411088
 20
9079.223451613534
 30
0.0
 10
-7160.192615646813
 20
9079.225361657784
 30
0.0
 10
-7160.169355013173
 20
9079.22637731888
 30
0.0
  0
SPLINE
  5
77
330
1F
100
AcDbEntity
  8
0
  6
Continuous
 62
     7
370
    25
100
AcDbSpline
210
0.0
220
0.0
230
1.0
 70
     8
 71
     3
 72
    15
 73
    11
 74
     0
 42
0.000000001
 43
0.00000001
 40
0.0
 40
0.0
 40
0.0
 40
0.0
 40
0.1675680039011467
 40
0.3142936742423409
 40
0.443406866869033
 40
0.5582581848718983
 40
0.6655816592802074
 40
0.7689358058593841
 40
0.879006912638751
 40
1.0
 40
1.0
 40
1.0
 40
1.0
 10
-7160.169355013173
 20
9079.22637731888
 30
0.0
 10
-7160.140296167062
 20
9079.225359532196
 30
0.0
 10
-7160.085792853179
 20
9079.223450552507
 30
0.0
 10
-7160.009285082072
 20
9079.212856494529
 30
0.0
 10
-7159.944498492145
 20
9079.191924382052
 30
0.0
 10
-7159.890176552112
 20
9079.163103479883
 30
0.0
 10
-7159.848754916065
 20
9079.123765188318
 30
0.0
 10
-7159.818166251019
 20
9079.076634065968
 30
0.0
 10
-7159.800658896206
 20
9079.020453856574
 30
0.0
 10
-7159.79873881271
 20
9078.980300135332
 30
0.0
 10
-7159.797733391551
 20
9078.959274278339
 30
0.0
  0
SPLINE
  5
79
330
1F
100
AcDbEntity
  8
0
  6
Continuous
 62
     7
370
    25
100
AcDbSpline
210
0.0
220
0.0
230
1.0
 70
     8
 71
     3
 72
    15
 73
    11
 74
     0
 42
0.000000001
 43
0.00000001
 40
0.0
 40
0.0
 40
0.0
 40
0.0
 40
0.1678628092162764
 40
0.3148466165912451
 40
0.4441869603121943
 40
0.5592403382441316
 40
0.6652318690748455
 40
0.7706563435097066
 40
0.8787940473875238
 40
0.9999999999999999
 40
0.9999999999999999
 40
0.9999999999999999
 40
0.9999999999999999
 10
-7160.169355013173
 20
9080.38072698104
 30
0.0
 10
-7160.140293238017
 20
9080.379712014426
 30
0.0
 10
-7160.085784430364
 20
9080.377808324109
 30
0.0
 10
-7160.009312520329
 20
9080.367179739289
 30
0.0
 10
-7159.944413046353
 20
9080.346356310944
 30
0.0
 10
-7159.890683270394
 20
9080.317315843708
 30
0.0
 10
-7159.847953898648
 20
9080.279174973477
 30
0.0
 10
-7159.818836561481
 20
9080.231384236129
 30
0.0
 10
-7159.800400147908
 20
9080.17570248163
 30
0.0
 10
-7159.798655448619
 20
9080.135847983345
 30
0.0
 10
-7159.797733391551
 20
9080.114785258069
 30
0.0
  0
SPLINE
  5
7A
330
1F
100
AcDbEntity
  8
0
  6
Continuous
 62
     7
370
    25
100
AcDbSpline
210
0.0
220
0.0
230
1.0
 70
     8
 71
     3
 72
    15
 73
    11
 74
     0
 42
0.000000001
 43
0.00000001
 40
0.0
 40
0.0
 40
0.0
 40
0.0
 40
0.1226673979139083
 40
0.2322494730060809
 40
0.3370212333530311
 40
0.4438678834494592
 40
0.5582089319051808
 40
0.6867484913209804
 40
0.8331764790611775
 40
1.0
 40
1.0
 40
1.0
 40
1.0
 10
-7159.797733391551
 20
9080.114785258069
 30
0.0
 10
-7159.798681425626
 20
9080.093353871269
 30
0.0
 10
-7159.800476363955
 20
9080.052777252093
 30
0.0
 10
-7159.818491289307
 20
9079.996089386177
 30
0.0
 10
-7159.848339430656
 20
9079.94808627585
 30
0.0
 10
-7159.890230273084
 20
9079.908683392261
 30
0.0
 10
-7159.94446998145
 20
9079.879724441882
 30
0.0
 10
-7160.009406086051
 20
9079.85921607138
 30
0.0
 10
-7160.085656500793
 20
9079.846674531304
 30
0.0
 10
-7160.140270225023
 20
9079.845058754265
 30
0.0
 10
-7160.169355013173
 20
9079.844198264824
 30
0.0
  0
SPLINE
  5
7B
330
1F
100
AcDbEntity
  8
0
  6
Continuous
 62
     7
370
    25
100
AcDbSpline
210
0.0
220
0.0
230
1.0
 70
     8
 71
     3
 72
    15
 73
    11
 74
     0
 42
0.000000001
 43
0.00000001
 40
0.0
 40
0.0
 40
0.0
 40
0.0
 40
0.1517345703399174
 40
0.2858502498747051
 40
0.4058069603899577
 40
0.5164015829444949
 40
0.6256057515997474
 40
0.7384515324842102
 40
0.8608514970057671
 40
1.0
 40
1.0
 40
1.0
 40
1.0
 10
-7160.169355013173
 20
9079.844198264824
 30
0.0
 10
-7160.19264687854
 20
9079.845061303953
 30
0.0
 10
-7160.236526038841
 20
9079.846687169102
 30
0.0
 10
-7160.297828786406
 20
9079.859354960154
 30
0.0
 10
-7160.350108875365
 20
9079.880118956116
 30
0.0
 10
-7160.393752257349
 20
9079.909642452854
 30
0.0
 10
-7160.426900573829
 20
9079.94925661014
 30
0.0
 10
-7160.450368410714
 20
9079.997044401052
 30
0.0
 10
-7160.464490322835
 20
9080.05321926267
 30
0.0
 10
-7160.465901525301
 20
9080.093405470536
 30
0.0
 10
-7160.46665231047
 20
9080.114785258069
 30
0.0
  0
SPLINE
  5
7C
330
1F
100
AcDbEntity
  8
0
  6
Continuous
 62
     7
370
    25
100
AcDbSpline
210
0.0
220
0.0
230
1.0
 70
     8
 71
     3
 72
    15
 73
    11
 74
     0
 42
0.000000001
 43
0.00000001
 40
0.0
 40
0.0
 40
0.0
 40
0.0
 40
0.1376465333874981
 40
0.2584939900653982
 40
0.3721777144532922
 40
0.4802669656692746
 40
0.5916828156084504
 40
0.7125302722863913
 40
0.8471387149837023
 40
1.0
 40
1.0
 40
1.0
 40
1.0
 10
-7160.46665231047
 20
9080.114785258069
 30
0.0
 10
-7160.465927072462
 20
9080.135792300274
 30
0.0
 10
-7160.464565108152
 20
9080.175242579373
 30
0.0
 10
-7160.450064403371
 20
9080.230468809501
 30
0.0
 10
-7160.427284136351
 20
9080.277926374114
 30
0.0
 10
-7160.39331132577
 20
9080.316464365436
 30
0.0
 10
-7160.35015113485
 20
9080.345934016848
 30
0.0
 10
-7160.297953909788
 20
9080.367042524987
 30
0.0
 10
-7160.236366000602
 20
9080.377806413378
 30
0.0
 10
-7160.192617934367
 20
9080.379713103497
 30
0.0
 10
-7160.169355013173
 20
9080.38072698104
 30
0.0
  0
SPLINE
  5
7D
330
1F
100
AcDbEntity
  8
0
  6
Continuous
 62
     7
370
    25
100
AcDbSpline
210
0.0
220
0.0
230
1.0
 70
     8
 71
     3
 72
    15
 73
    11
 74
     0
 42
0.000000001
 43
0.00000001
 40
0.0
 40
0.0
 40
0.0
 40
0.0
 40
0.1274086638640704
 40
0.2492093999587912
 40
0.3720839042325297
 40
0.4997357737771838
 40
0.6273876433218109
 40
0.7507906000412494
 40
0.8725913361359297
 40
1.0
 40
1.0
 40
1.0
 40
1.0
 10
-7156.782488459118
 20
9074.286132386445
 30
0.0
 10
-7156.737724274494
 20
9074.2886420701
 30
0.0
 10
-7156.650166213279
 20
9074.293550972978
 30
0.0
 10
-7156.523669985082
 20
9074.330843535792
 30
0.0
 10
-7156.408158049441
 20
9074.393778118554
 30
0.0
 10
-7156.305815731924
 20
9074.479583012931
 30
0.0
 10
-7156.220271293872
 20
9074.58219286397
 30
0.0
 10
-7156.155705573223
 20
9074.697051465362
 30
0.0
 10
-7156.118745531344
 20
9074.8239330971
 30
0.0
 10
-7156.113783665902
 20
9074.911462890346
 30
0.0
 10
-7156.111246905065
 20
9074.956212622934
 30
0.0
  0
SPLINE
  5
7F
330
1F
100
AcDbEntity
  8
0
  6
Continuous
 62
     7
370
    25
100
AcDbSpline
210
0.0
220
0.0
230
1.0
 70
     8
 71
     3
 72
    15
 73
    11
 74
     0
 42
0.000000001
 43
0.00000001
 40
0.0
 40
0.0
 40
0.0
 40
0.0
 40
0.1276684251884596
 40
0.2497174891406025
 40
0.3724052965255587
 40
0.4994696317434667
 40
0.6273817584612292
 40
0.7490098240592684
 40
0.872432057818277
 40
1.0
 40
1.0
 40
1.0
 40
1.0
 10
-7156.111246905065
 20
9075.700617183744
 30
0.0
 10
-7156.11379604554
 20
9075.745361929625
 30
0.0
 10
-7156.118782125365
 20
9075.832881968954
 30
0.0
 10
-7156.155470682411
 20
9075.959505885403
 30
0.0
 10
-7156.220287762193
 20
9076.073582988272
 30
0.0
 10
-7156.306233073362
 20
9076.174896097875
 30
0.0
 10
-7156.407583746308
 20
9076.260719696273
 30
0.0
 10
-7156.523615631173
 20
9076.322379112125
 30
0.0
 10
-7156.649530471501
 20
9076.361487270822
 30
0.0
 10
-7156.737683775069
 20
9076.365283832167
 30
0.0
 10
-7156.782488459118
 20
9076.367213467527
 30
0.0
  0
SPLINE
  5
83
330
1F
100
AcDbEntity
  8
0
  6
Continuous
 62
     7
370
    25
100
AcDbSpline
210
0.0
220
0.0
230
1.0
 70
     8
 71
     3
 72
    15
 73
    11
 74
     0
 42
0.000000001
 43
0.00000001
 40
0.0
 40
0.0
 40
0.0
 40
0.0
 40
0.1276284167036204
 40
0.2508071631833503
 40
0.3742836487802059
 40
0.5036065028316481
 40
0.6327873107115318
 40
0.7548054560999632
 40
0.8757928466041748
 40
1.0
 40
1.0
 40
1.0
 40
1.0
 10
-7156.986880351011
 20
9076.961808062122
 30
0.0
 10
-7156.943629531219
 20
9076.96381419233
 30
0.0
 10
-7156.858635799437
 20
9076.967756510498
 30
0.0
 10
-7156.736674933106
 20
9077.00588225048
 30
0.0
 10
-7156.623858205954
 20
9077.066001310233
 30
0.0
 10
-7156.524572425806
 20
9077.149772029066
 30
0.0
 10
-7156.440152618039
 20
9077.247697328237
 30
0.0
 10
-7156.378080782519
 20
9077.35802641622
 30
0.0
 10
-7156.340363292603
 20
9077.47771761671
 30
0.0
 10
-7156.336285531878
 20
9077.560779205147
 30
0.0
 10
-7156.334219878037
 20
9077.602855359419
 30
0.0
  0
SPLINE
  5
85
330
1F
100
AcDbEntity
  8
0
  6
Continuous
 62
     7
370
    25
100
AcDbSpline
210
0.0
220
0.0
230
1.0
 70
     8
 71
     3
 72
    15
 73
    11
 74
     0
 42
0.000000001
 43
0.00000001
 40
0.0
 40
0.0
 40
0.0
 40
0.0
 40
0.124530465142825
 40
0.2458327863376597
 40
0.3671677054605471
 40
0.4958115956037893
 40
0.6247420892948555
 40
0.7485399847072902
 40
0.8720393659864815
 40
1.0
 40
1.0
 40
1.0
 40
1.0
 10
-7156.334219878037
 20
9077.959379852662
 30
0.0
 10
-7156.336299174381
 20
9078.001448979108
 30
0.0
 10
-7156.340403866456
 20
9078.08449669407
 30
0.0
 10
-7156.377820833278
 20
9078.203964515944
 30
0.0
 10
-7156.440246938025
 20
9078.31339112636
 30
0.0
 10
-7156.524571943371
 20
9078.410264814014
 30
0.0
 10
-7156.62422759406
 20
9078.492673030978
 30
0.0
 10
-7156.736635456468
 20
9078.552919441545
 30
0.0
 10
-7156.858646075266
 20
9078.590981621186
 30
0.0
 10
-7156.94363299677
 20
9078.594932639702
 30
0.0
 10
-7156.986880351011
 20
9078.596943197259
 30
0.0
  0
SPLINE
  5
89
330
1F
100
AcDbEntity
  8
0
  6
Continuous
 62
     7
370
    25
100
AcDbSpline
210
0.0
220
0.0
230
1.0
 70
     8
 71
     3
 72
    15
 73
    11
 74
     0
 42
0.000000001
 43
0.00000001
 40
0.0
 40
0.0
 40
0.0
 40
0.0
 40
0.1472985846902998
 40
0.2756504930887099
 40
0.3928141444239404
 40
0.5033990299457447
 40
0.6118667949946972
 40
0.7290304463298765
 40
0.8553653506994944
 40
1.0
 40
1.0
 40
1.0
 40
1.0
 10
-7158.144713965875
 20
9073.691537791852
 30
0.0
 10
-7158.166045808025
 20
9073.692533159894
 30
0.0
 10
-7158.205965626806
 20
9073.694395864088
 30
0.0
 10
-7158.262238995452
 20
9073.70533045789
 30
0.0
 10
-7158.309678976335
 20
9073.726676078737
 30
0.0
 10
-7158.349258083324
 20
9073.755919498702
 30
0.0
 10
-7158.379425438451
 20
9073.794975062188
 30
0.0
 10
-7158.399749042541
 20
9073.842138457685
 30
0.0
 10
-7158.412947303244
 20
9073.897165442128
 30
0.0
 10
-7158.414481862032
 20
9073.936489580916
 30
0.0
 10
-7158.415300959118
 20
9073.957479514824
 30
0.0
  0
SPLINE
  5
8B
330
1F
100
AcDbEntity
  8
0
  6
Continuous
 62
     7
370
    25
100
AcDbSpline
210
0.0
220
0.0
230
1.0
 70
     8
 71
     3
 72
    15
 73
    11
 74
     0
 42
0.000000001
 43
0.00000001
 40
0.0
 40
0.0
 40
0.0
 40
0.0
 40
0.1451733701004108
 40
0.2713822329809796
 40
0.3889822838669811
 40
0.4995248231294172
 40
0.6083965981540645
 40
0.7259966490399725
 40
0.8548266298995967
 40
1.0
 40
1.0
 40
1.0
 40
1.0
 10
-7158.415300959118
 20
9078.925596068879
 30
0.0
 10
-7158.414338916089
 20
9078.946559331609
 30
0.0
 10
-7158.412540505089
 20
9078.98574735243
 30
0.0
 10
-7158.401151515581
 20
9079.041022228166
 30
0.0
 10
-7158.380704769292
 20
9079.088567975925
 30
0.0
 10
-7158.34925677586
 20
9079.126368811903
 30
0.0
 10
-7158.310811384297
 20
9079.156826171245
 30
0.0
 10
-7158.263323558513
 20
9079.177655388885
 30
0.0
 10
-7158.207531051662
 20
9079.188626807849
 30
0.0
 10
-7158.167987629138
 20
9079.190529631482
 30
0.0
 10
-7158.14703660101
 20
9079.191537791852
 30
0.0
  0
SPLINE
  5
8D
330
1F
100
AcDbEntity
  8
0
  6
Continuous
 62
     7
370
    25
100
AcDbSpline
210
0.0
220
0.0
230
1.0
 70
     8
 71
     3
 72
    23
 73
    19
 74
     0
 42
0.000000001
 43
0.00000001
 40
0.0
 40
0.0
 40
0.0
 40
0.0
 40
0.0699971325042034
 40
0.136988941078022
 40
0.2025818669322403
 40
0.2663268833207222
 40
0.3299959998498836
 40
0.3931968746882848
 40
0.4576209660458456
 40
0.5225816115471942
 40
0.5870057029047789
 40
0.6493260697673573
 40
0.7088254174031459
 40
0.7677033068043764
 40
0.8250025883224485
 40
0.882886586829589
 40
0.94057035096011
 40
1.0
 40
1.0
 40
1.0
 40
1.0
 10
-7156.979912445604
 20
9079.191537791852
 30
0.0
 10
-7156.933779768206
 20
9079.190521106546
 30
0.0
 10
-7156.843495117967
 20
9079.188531387268
 30
0.0
 10
-7156.71112028873
 20
9079.169975871639
 30
0.0
 10
-7156.584458143584
 20
9079.143082308865
 30
0.0
 10
-7156.463636674687
 20
9079.102780588259
 30
0.0
 10
-7156.348486250607
 20
9079.052161691749
 30
0.0
 10
-7156.239592743666
 20
9078.988309207629
 30
0.0
 10
-7156.136273813058
 20
9078.914354930424
 30
0.0
 10
-7156.040730120861
 20
9078.829422003077
 30
0.0
 10
-7155.952702286349
 20
9078.738701607665
 30
0.0
 10
-7155.876119523152
 20
9078.642576221417
 30
0.0
 10
-7155.811459444958
 20
9078.542465210785
 30
0.0
 10
-7155.757708482698
 20
9078.439726034305
 30
0.0
 10
-7155.716947963791
 20
9078.332330699652
 30
0.0
 10
-7155.686392901889
 20
9078.222465915718
 30
0.0
 10
-7155.668558267931
 20
9078.108222926852
 30
0.0
 10
-7155.66639746621
 20
9078.031055599633
 30
0.0
 10
-7155.665300959119
 20
9077.991896744556
 30
0.0
  0
SPLINE
  5
8F
330
1F
100
AcDbEntity
  8
0
  6
Continuous
 62
     7
370
    25
100
AcDbSpline
210
0.0
220
0.0
230
1.0
 70
     8
 71
     3
 72
    15
 73
    11
 74
     0
 42
0.000000001
 43
0.00000001
 40
0.0
 40
0.0
 40
0.0
 40
0.0
 40
0.1326594996416816
 40
0.2606826456507268
 40
0.3835988237724066
 40
0.5044542511718902
 40
0.6251139792613837
 40
0.7464377970802208
 40
0.8714347708676051
 40
1.0
 40
1.0
 40
1.0
 40
1.0
 10
-7155.665300959119
 20
9077.617952487797
 30
0.0
 10
-7155.66681043974
 20
9077.573764534955
 30
0.0
 10
-7155.669776645729
 20
9077.48693296628
 30
0.0
 10
-7155.688002864079
 20
9077.360145615554
 30
0.0
 10
-7155.720493671534
 20
9077.240225568039
 30
0.0
 10
-7155.768176424185
 20
9077.128345336301
 30
0.0
 10
-7155.825355328261
 20
9077.021468906685
 30
0.0
 10
-7155.899257868256
 20
9076.923701535326
 30
0.0
 10
-7155.983340427219
 20
9076.830898990478
 30
0.0
 10
-7156.048948363654
 20
9076.777515586116
 30
0.0
 10
-7156.082213965876
 20
9076.750448264826
 30
0.0
  0
SPLINE
  5
90
330
1F
100
AcDbEntity
  8
0
  6
Continuous
 62
     7
370
    25
100
AcDbSpline
210
0.0
220
0.0
230
1.0
 70
     8
 71
     3
 72
    15
 73
    11
 74
     0
 42
0.000000001
 43
0.00000001
 40
0.0
 40
0.0
 40
0.0
 40
0.0
 40
0.1163154394521604
 40
0.2345647128656886
 40
0.3584180389837605
 40
0.4893481039549508
 40
0.6213683425081673
 40
0.748748446713467
 40
0.8742380891698612
 40
0.9999999999999999
 40
0.9999999999999999
 40
0.9999999999999999
 40
0.9999999999999999
 10
-7156.082213965876
 20
9076.750448264826
 30
0.0
 10
-7156.037537350137
 20
9076.727951875464
 30
0.0
 10
-7155.947441335439
 20
9076.6825850769
 30
0.0
 10
-7155.827178853278
 20
9076.58522276843
 30
0.0
 10
-7155.716933345731
 20
9076.468614041118
 30
0.0
 10
-7155.623052887333
 20
9076.331137227571
 30
0.0
 10
-7155.543276670763
 20
9076.183585388328
 30
0.0
 10
-7155.483841923962
 20
9076.028982144584
 30
0.0
 10
-7155.449386126001
 20
9075.869367113808
 30
0.0
 10
-7155.444682398494
 20
9075.761551375492
 30
0.0
 10
-7155.442327986146
 20
9075.70758508915
 30
0.0
  0
SPLINE
  5
92
330
1F
100
AcDbEntity
  8
0
  6
Continuous
 62
     7
370
    25
100
AcDbSpline
210
0.0
220
0.0
230
1.0
 70
     8
 71
     3
 72
    23
 73
    19
 74
     0
 42
0.000000001
 43
0.00000001
 40
0.0
 40
0.0
 40
0.0
 40
0.0
 40
0.0573718688434977
 40
0.1142717744853337
 40
0.1712775514510431
 40
0.2292072316113566
 40
0.2887537053420643
 40
0.3497535252113845
 40
0.4136630964477814
 40
0.4804032883989187
 40
0.5476011670424895
 40
0.6128875258051664
 40
0.6770090262773527
 40
0.7404371873975981
 40
0.803587472688329
 40
0.8673185838669355
 40
0.9327996288997109
 40
1.0
 40
1.0
 40
1.0
 40
1.0
 10
-7155.442327986146
 20
9074.930663636447
 30
0.0
 10
-7155.443321611132
 20
9074.892257466941
 30
0.0
 10
-7155.44530068716
 20
9074.815761071952
 30
0.0
 10
-7155.465069375669
 20
9074.702578654851
 30
0.0
 10
-7155.494928962108
 20
9074.591426359939
 30
0.0
 10
-7155.53846394575
 20
9074.482858696592
 30
0.0
 10
-7155.594354749505
 20
9074.377135065843
 30
0.0
 10
-7155.66291854216
 20
9074.27440227771
 30
0.0
 10
-7155.741499220728
 20
9074.172931839314
 30
0.0
 10
-7155.832805966177
 20
9074.07689226468
 30
0.0
 10
-7155.931321383173
 20
9073.987026289811
 30
0.0
 10
-7156.036033173727
 20
9073.907050147127
 30
0.0
 10
-7156.147111322287
 20
9073.841065521461
 30
0.0
 10
-7156.262273699527
 20
9073.785755307183
 30
0.0
 10
-7156.382816732967
 20
9073.744045117895
 30
0.0
 10
-7156.508004049414
 20
9073.713802916749
 30
0.0
 10
-7156.638270141689
 20
9073.694467476229
 30
0.0
 10
-7156.727064240938
 20
9073.692522753414
 30
0.0
 10
-7156.772036601012
 20
9073.691537791852
 30
0.0
  0
SPLINE
  5
95
330
1F
100
AcDbEntity
  8
0
  6
Continuous
 62
     7
370
    25
100
AcDbSpline
210
0.0
220
0.0
230
1.0
 70
     8
 71
     3
 72
    15
 73
    11
 74
     0
 42
0.000000001
 43
0.00000001
 40
0.0
 40
0.0
 40
0.0
 40
0.0
 40
0.136441189714385
 40
0.255995722768013
 40
0.3685080101433663
 40
0.4757423758332889
 40
0.5882546632087273
 40
0.7093427114892306
 40
0.8457839012034862
 40
1.0
 40
1.0
 40
1.0
 40
1.0
 10
-7151.755841499659
 20
9078.931402656717
 30
0.0
 10
-7151.755121050624
 20
9078.95202782967
 30
0.0
 10
-7151.753769318997
 20
9078.990725499109
 30
0.0
 10
-7151.739236357372
 20
9079.044780718476
 30
0.0
 10
-7151.716499924913
 20
9079.091235626169
 30
0.0
 10
-7151.682053035033
 20
9079.12833395287
 30
0.0
 10
-7151.639662890762
 20
9079.15830920533
 30
0.0
 10
-7151.58667705193
 20
9079.177072891636
 30
0.0
 10
-7151.525812771362
 20
9079.190610620557
 30
0.0
 10
-7151.481862963561
 20
9079.191216386382
 30
0.0
 10
-7151.458544202362
 20
9079.191537791852
 30
0.0
  0
SPLINE
  5
96
330
1F
100
AcDbEntity
  8
0
  6
Continuous
 62
     7
370
    25
100
AcDbSpline
210
0.0
220
0.0
230
1.0
 70
     8
 71
     3
 72
    15
 73
    11
 74
     0
 42
0.000000001
 43
0.00000001
 40
0.0
 40
0.0
 40
0.0
 40
0.0
 40
0.1678628092163303
 40
0.3148466165912209
 40
0.4441869603120998
 40
0.5592403382441794
 40
0.665231869074764
 40
0.7706563435097106
 40
0.8787940473875399
 40
0.9999999999999999
 40
0.9999999999999999
 40
0.9999999999999999
 40
0.9999999999999999
 10
-7151.458544202362
 20
9079.191537791852
 30
0.0
 10
-7151.429482427206
 20
9079.190522825238
 30
0.0
 10
-7151.374973619552
 20
9079.18861913492
 30
0.0
 10
-7151.298501709519
 20
9079.1779905501
 30
0.0
 10
-7151.233602235543
 20
9079.157167121755
 30
0.0
 10
-7151.179872459583
 20
9079.12812665452
 30
0.0
 10
-7151.137143087836
 20
9079.089985784287
 30
0.0
 10
-7151.10802575067
 20
9079.042195046939
 30
0.0
 10
-7151.089589337099
 20
9078.98651329244
 30
0.0
 10
-7151.087844637807
 20
9078.946658794155
 30
0.0
 10
-7151.08692258074
 20
9078.925596068879
 30
0.0
  0
SPLINE
  5
98
330
1F
100
AcDbEntity
  8
0
  6
Continuous
 62
     7
370
    25
100
AcDbSpline
210
0.0
220
0.0
230
1.0
 70
     8
 71
     3
 72
    15
 73
    11
 74
     0
 42
0.000000001
 43
0.00000001
 40
0.0
 40
0.0
 40
0.0
 40
0.0
 40
0.1212059526124657
 40
0.2293436564903
 40
0.3347681309251066
 40
0.4407596617558115
 40
0.5558130396878964
 40
0.6851533834087813
 40
0.8321371907836528
 40
1.0
 40
1.0
 40
1.0
 40
1.0
 10
-7151.08692258074
 20
9073.957479514824
 30
0.0
 10
-7151.087844637807
 20
9073.93641678955
 30
0.0
 10
-7151.089589337099
 20
9073.896562291264
 30
0.0
 10
-7151.10802575067
 20
9073.840880536764
 30
0.0
 10
-7151.137143087836
 20
9073.793089799417
 30
0.0
 10
-7151.179872459583
 20
9073.754948929185
 30
0.0
 10
-7151.233602235543
 20
9073.72590846195
 30
0.0
 10
-7151.298501709518
 20
9073.705085033604
 30
0.0
 10
-7151.374973619552
 20
9073.694456448784
 30
0.0
 10
-7151.429482427206
 20
9073.692552758468
 30
0.0
 10
-7151.458544202362
 20
9073.691537791852
 30
0.0
  0
SPLINE
  5
99
330
1F
100
AcDbEntity
  8
0
  6
Continuous
 62
     7
370
    25
100
AcDbSpline
210
0.0
220
0.0
230
1.0
 70
     8
 71
     3
 72
    15
 73
    11
 74
     0
 42
0.000000001
 43
0.00000001
 40
0.0
 40
0.0
 40
0.0
 40
0.0
 40
0.1528612850162958
 40
0.2874697277135096
 40
0.4083171843914654
 40
0.5197330343307507
 40
0.6278222855467316
 40
0.7415060099345807
 40
0.8623534666125037
 40
1.0
 40
1.0
 40
1.0
 40
1.0
 10
-7151.458544202362
 20
9073.691537791852
 30
0.0
 10
-7151.481807123557
 20
9073.692551669395
 30
0.0
 10
-7151.525555189792
 20
9073.694458359516
 30
0.0
 10
-7151.587143098976
 20
9073.705222247907
 30
0.0
 10
-7151.63934032404
 20
9073.726330756044
 30
0.0
 10
-7151.68250051496
 20
9073.755800407456
 30
0.0
 10
-7151.71647332554
 20
9073.794338398779
 30
0.0
 10
-7151.739253592561
 20
9073.841795963392
 30
0.0
 10
-7151.75375429734
 20
9073.89702219352
 30
0.0
 10
-7151.755116261652
 20
9073.93647247262
 30
0.0
 10
-7151.755841499659
 20
9073.957479514824
 30
0.0
  0
SPLINE
  5
9D
330
1F
100
AcDbEntity
  8
0
  6
Continuous
 62
     7
370
    25
100
AcDbSpline
210
0.0
220
0.0
230
1.0
 70
     8
 71
     3
 72
    15
 73
    11
 74
     0
 42
0.000000001
 43
0.00000001
 40
0.0
 40
0.0
 40
0.0
 40
0.0
 40
0.1212059526124726
 40
0.2293436564902865
 40
0.3347681309251444
 40
0.4407596617558552
 40
0.5558130396878721
 40
0.6851533834087643
 40
0.8321371907837286
 40
1.0
 40
1.0
 40
1.0
 40
1.0
 10
-7153.390976634793
 20
9073.957479514824
 30
0.0
 10
-7153.391898691862
 20
9073.93641678955
 30
0.0
 10
-7153.393643391152
 20
9073.896562291264
 30
0.0
 10
-7153.412079804724
 20
9073.840880536764
 30
0.0
 10
-7153.441197141891
 20
9073.793089799417
 30
0.0
 10
-7153.483926513636
 20
9073.754948929185
 30
0.0
 10
-7153.537656289598
 20
9073.72590846195
 30
0.0
 10
-7153.602555763573
 20
9073.705085033604
 30
0.0
 10
-7153.679027673607
 20
9073.694456448784
 30
0.0
 10
-7153.733536481261
 20
9073.692552758468
 30
0.0
 10
-7153.762598256416
 20
9073.691537791852
 30
0.0
  0
SPLINE
  5
9E
330
1F
100
AcDbEntity
  8
0
  6
Continuous
 62
     7
370
    25
100
AcDbSpline
210
0.0
220
0.0
230
1.0
 70
     8
 71
     3
 72
    15
 73
    11
 74
     0
 42
0.000000001
 43
0.00000001
 40
0.0
 40
0.0
 40
0.0
 40
0.0
 40
0.152861285016292
 40
0.287469727713598
 40
0.4083171843914609
 40
0.5197330343307434
 40
0.6278222855467216
 40
0.7415060099346115
 40
0.862353466612507
 40
1.0
 40
1.0
 40
1.0
 40
1.0
 10
-7153.762598256416
 20
9073.691537791852
 30
0.0
 10
-7153.78586117761
 20
9073.692551669395
 30
0.0
 10
-7153.829609243847
 20
9073.694458359516
 30
0.0
 10
-7153.891197153031
 20
9073.705222247907
 30
0.0
 10
-7153.943394378094
 20
9073.726330756044
 30
0.0
 10
-7153.986554569014
 20
9073.755800407456
 30
0.0
 10
-7154.020527379594
 20
9073.794338398779
 30
0.0
 10
-7154.043307646614
 20
9073.841795963392
 30
0.0
 10
-7154.057808351394
 20
9073.89702219352
 30
0.0
 10
-7154.059170315707
 20
9073.93647247262
 30
0.0
 10
-7154.059895553713
 20
9073.957479514824
 30
0.0
  0
SPLINE
  5
A0
330
1F
100
AcDbEntity
  8
0
  6
Continuous
 62
     7
370
    25
100
AcDbSpline
210
0.0
220
0.0
230
1.0
 70
     8
 71
     3
 72
    15
 73
    11
 74
     0
 42
0.000000001
 43
0.00000001
 40
0.0
 40
0.0
 40
0.0
 40
0.0
 40
0.1376465333874859
 40
0.2584939900653753
 40
0.3721777144534331
 40
0.4802669656692595
 40
0.5916828156085363
 40
0.712530272286393
 40
0.8471387149837287
 40
1.0
 40
1.0
 40
1.0
 40
1.0
 10
-7154.059895553713
 20
9078.925596068879
 30
0.0
 10
-7154.059170315707
 20
9078.946603111084
 30
0.0
 10
-7154.057808351394
 20
9078.986053390183
 30
0.0
 10
-7154.043307646614
 20
9079.041279620313
 30
0.0
 10
-7154.020527379595
 20
9079.088737184926
 30
0.0
 10
-7153.986554569014
 20
9079.127275176248
 30
0.0
 10
-7153.943394378094
 20
9079.15674482766
 30
0.0
 10
-7153.891197153031
 20
9079.177853335797
 30
0.0
 10
-7153.829609243847
 20
9079.188617224188
 30
0.0
 10
-7153.78586117761
 20
9079.190523914309
 30
0.0
 10
-7153.762598256416
 20
9079.191537791852
 30
0.0
  0
SPLINE
  5
A3
330
1F
100
AcDbEntity
  8
0
  6
Continuous
 62
     7
370
    25
100
AcDbSpline
210
0.0
220
0.0
230
1.0
 70
     8
 71
     3
 72
    15
 73
    11
 74
     0
 42
0.000000001
 43
0.00000001
 40
0.0
 40
0.0
 40
0.0
 40
0.0
 40
0.1691382693020653
 40
0.3176902073342277
 40
0.4474110356377918
 40
0.5634106106294213
 40
0.6687664326274385
 40
0.7731538901271252
 40
0.8800408488352615
 40
1.0
 40
1.0
 40
1.0
 40
1.0
 10
-7153.762598256416
 20
9079.191537791852
 30
0.0
 10
-7153.733489050887
 20
9079.191225896853
 30
0.0
 10
-7153.67881360944
 20
9079.19064006854
 30
0.0
 10
-7153.602949614514
 20
9079.177153921235
 30
0.0
 10
-7153.537374802731
 20
9079.158771638999
 30
0.0
 10
-7153.484360122542
 20
9079.129100163775
 30
0.0
 10
-7153.441221828522
 20
9079.092478387925
 30
0.0
 10
-7153.41210805882
 20
9079.045714583684
 30
0.0
 10
-7153.393629605138
 20
9078.99119405718
 30
0.0
 10
-7153.391894291203
 20
9078.952084366174
 30
0.0
 10
-7153.390976634793
 20
9078.931402656717
 30
0.0
  0
SPLINE
  5
A5
330
1F
100
AcDbEntity
  8
0
  6
Continuous
 62
     7
370
    25
100
AcDbSpline
210
0.0
220
0.0
230
1.0
 70
     8
 71
     3
 72
    15
 73
    11
 74
     0
 42
0.000000001
 43
0.00000001
 40
0.0
 40
0.0
 40
0.0
 40
0.0
 40
0.1212059526124726
 40
0.2293436564902865
 40
0.3347681309251444
 40
0.4407596617558552
 40
0.5558130396878721
 40
0.6851533834087643
 40
0.8321371907837286
 40
1.0
 40
1.0
 40
1.0
 40
1.0
 10
-7164.153138796957
 20
9073.957479514824
 30
0.0
 10
-7164.154060854024
 20
9073.93641678955
 30
0.0
 10
-7164.155805553314
 20
9073.896562291264
 30
0.0
 10
-7164.174241966886
 20
9073.840880536764
 30
0.0
 10
-7164.203359304053
 20
9073.793089799417
 30
0.0
 10
-7164.2460886758
 20
9073.754948929185
 30
0.0
 10
-7164.299818451759
 20
9073.72590846195
 30
0.0
 10
-7164.364717925735
 20
9073.705085033604
 30
0.0
 10
-7164.441189835769
 20
9073.694456448784
 30
0.0
 10
-7164.495698643423
 20
9073.692552758468
 30
0.0
 10
-7164.524760418577
 20
9073.691537791852
 30
0.0
  0
SPLINE
  5
A6
330
1F
100
AcDbEntity
  8
0
  6
Continuous
 62
     7
370
    25
100
AcDbSpline
210
0.0
220
0.0
230
1.0
 70
     8
 71
     3
 72
    15
 73
    11
 74
     0
 42
0.000000001
 43
0.00000001
 40
0.0
 40
0.0
 40
0.0
 40
0.0
 40
0.152861285016292
 40
0.287469727713598
 40
0.4083171843914609
 40
0.5197330343307434
 40
0.6278222855467216
 40
0.7415060099346115
 40
0.862353466612507
 40
1.0
 40
1.0
 40
1.0
 40
1.0
 10
-7164.524760418577
 20
9073.691537791852
 30
0.0
 10
-7164.548023339773
 20
9073.692551669395
 30
0.0
 10
-7164.591771406008
 20
9073.694458359516
 30
0.0
 10
-7164.653359315193
 20
9073.705222247907
 30
0.0
 10
-7164.705556540255
 20
9073.726330756044
 30
0.0
 10
-7164.748716731176
 20
9073.755800407456
 30
0.0
 10
-7164.782689541757
 20
9073.794338398779
 30
0.0
 10
-7164.805469808776
 20
9073.841795963392
 30
0.0
 10
-7164.819970513558
 20
9073.89702219352
 30
0.0
 10
-7164.821332477868
 20
9073.93647247262
 30
0.0
 10
-7164.822057715875
 20
9073.957479514824
 30
0.0
  0
SPLINE
  5
A9
330
1F
100
AcDbEntity
  8
0
  6
Continuous
 62
     7
370
    25
100
AcDbSpline
210
0.0
220
0.0
230
1.0
 70
     8
 71
     3
 72
    23
 73
    19
 74
     0
 42
0.000000001
 43
0.00000001
 40
0.0
 40
0.0
 40
0.0
 40
0.0
 40
0.0697099815833845
 40
0.1364473703020119
 40
0.2017947491632249
 40
0.2654843218801584
 40
0.3288955934619303
 40
0.3921073283569533
 40
0.4562055181824037
 40
0.5211806621105962
 40
0.5856274065120285
 40
0.6479914155361797
 40
0.7075565987987815
 40
0.7664878045377358
 40
0.8243692610195297
 40
0.8819472739614624
 40
0.9407267977401997
 40
1.0
 40
1.0
 40
1.0
 40
1.0
 10
-7163.178793357767
 20
9079.191537791852
 30
0.0
 10
-7163.132270638169
 20
9079.190530790731
 30
0.0
 10
-7163.041209034015
 20
9079.188559729317
 30
0.0
 10
-7162.907726374105
 20
9079.169861255643
 30
0.0
 10
-7162.779608656018
 20
9079.143470353314
 30
0.0
 10
-7162.658182315648
 20
9079.101203955091
 30
0.0
 10
-7162.541182674819
 20
9079.051361471786
 30
0.0
 10
-7162.431927649045
 20
9078.985715637704
 30
0.0
 10
-7162.326629083298
 20
9078.912195107523
 30
0.0
 10
-7162.23037892328
 20
9078.825851945589
 30
0.0
 10
-7162.141118204033
 20
9078.734081283508
 30
0.0
 10
-7162.063411246063
 20
9078.636769721606
 30
0.0
 10
-7161.997553219639
 20
9078.535516808854
 30
0.0
 10
-7161.942589609017
 20
9078.43129606916
 30
0.0
 10
-7161.900271777898
 20
9078.322604879426
 30
0.0
 10
-7161.871844990026
 20
9078.20977594499
 30
0.0
 10
-7161.852014662279
 20
9078.094014412054
 30
0.0
 10
-7161.850064101677
 20
9078.015206856813
 30
0.0
 10
-7161.849084742902
 20
9077.975638298609
 30
0.0
  0
SPLINE
  5
AB
330
1F
100
AcDbEntity
  8
0
  6
Continuous
 62
     7
370
    25
100
AcDbSpline
210
0.0
220
0.0
230
1.0
 70
     8
 71
     3
 72
    15
 73
    11
 74
     0
 42
0.000000001
 43
0.00000001
 40
0.0
 40
0.0
 40
0.0
 40
0.0
 40
0.1446346493004979
 40
0.2709695536701091
 40
0.3881332050054684
 40
0.4966009700542541
 40
0.6071858555760526
 40
0.724349506911277
 40
0.8527014153097228
 40
0.9999999999999999
 40
0.9999999999999999
 40
0.9999999999999999
 40
0.9999999999999999
 10
-7164.822057715875
 20
9078.925596068879
 30
0.0
 10
-7164.821238618789
 20
9078.946586002789
 30
0.0
 10
-7164.819704060001
 20
9078.985910141575
 30
0.0
 10
-7164.806505799297
 20
9079.04093712602
 30
0.0
 10
-7164.786182195206
 20
9079.088100521516
 30
0.0
 10
-7164.756014840082
 20
9079.127156085
 30
0.0
 10
-7164.716435733091
 20
9079.156399504967
 30
0.0
 10
-7164.66899575221
 20
9079.177745125817
 30
0.0
 10
-7164.612722383563
 20
9079.188679719617
 30
0.0
 10
-7164.572802564783
 20
9079.190542423812
 30
0.0
 10
-7164.551470722632
 20
9079.191537791852
 30
0.0
  0
SPLINE
  5
AD
330
1F
100
AcDbEntity
  8
0
  6
Continuous
 62
     7
370
    25
100
AcDbSpline
210
0.0
220
0.0
230
1.0
 70
     8
 71
     3
 72
    23
 73
    19
 74
     0
 42
0.000000001
 43
0.00000001
 40
0.0
 40
0.0
 40
0.0
 40
0.0
 40
0.059941698892438
 40
0.1187138469711236
 40
0.176941237815681
 40
0.2352661744248942
 40
0.2943277774127485
 40
0.3542464815027795
 40
0.4165885938737676
 40
0.480953665448889
 40
0.545785398236429
 40
0.6093099757948213
 40
0.6719250421333935
 40
0.7349787482748794
 40
0.7988306000017249
 40
0.8637685273449468
 40
0.9306766963489946
 40
1.0
 40
1.0
 40
1.0
 40
1.0
 10
-7161.849084742902
 20
9077.208007386445
 30
0.0
 10
-7161.850174184022
 20
9077.16845687482
 30
0.0
 10
-7161.852331809662
 20
9077.090127540294
 30
0.0
 10
-7161.870386875393
 20
9076.97453135638
 30
0.0
 10
-7161.899374011334
 20
9076.862408951505
 30
0.0
 10
-7161.940399502775
 20
9076.753872999996
 30
0.0
 10
-7161.992605088091
 20
9076.648973775758
 30
0.0
 10
-7162.057724030951
 20
9076.548464452186
 30
0.0
 10
-7162.132807393231
 20
9076.450696106378
 30
0.0
 10
-7162.219946126614
 20
9076.359065524548
 30
0.0
 10
-7162.313467871086
 20
9076.272619662946
 30
0.0
 10
-7162.416825672598
 20
9076.200224765807
 30
0.0
 10
-7162.52402580545
 20
9076.135985416782
 30
0.0
 10
-7162.638666428675
 20
9076.085604079379
 30
0.0
 10
-7162.758368279296
 20
9076.043911140368
 30
0.0
 10
-7162.884838206011
 20
9076.017098843009
 30
0.0
 10
-7163.016440142461
 20
9075.998653341356
 30
0.0
 10
-7163.106337511363
 20
9075.996624334583
 30
0.0
 10
-7163.152083053714
 20
9075.995591845905
 30
0.0
  0
SPLINE
  5
AF
330
1F
100
AcDbEntity
  8
0
  6
Continuous
 62
     7
370
    25
100
AcDbSpline
210
0.0
220
0.0
230
1.0
 70
     8
 71
     3
 72
    15
 73
    11
 74
     0
 42
0.000000001
 43
0.00000001
 40
0.0
 40
0.0
 40
0.0
 40
0.0
 40
0.1235134495526587
 40
0.2440371772983955
 40
0.3652811780136526
 40
0.4939311243358409
 40
0.6229953715115278
 40
0.7475489850495326
 40
0.8709800785673154
 40
1.0
 40
1.0
 40
1.0
 40
1.0
 10
-7162.51800366182
 20
9077.953573264826
 30
0.0
 10
-7162.520494135881
 20
9077.996032520628
 30
0.0
 10
-7162.525414800484
 20
9078.079923278876
 30
0.0
 10
-7162.563767371606
 20
9078.20085270692
 30
0.0
 10
-7162.628852398164
 20
9078.311133889709
 30
0.0
 10
-7162.715410745202
 20
9078.409043192798
 30
0.0
 10
-7162.817214018768
 20
9078.493230116592
 30
0.0
 10
-7162.933083058258
 20
9078.55260727473
 30
0.0
 10
-7163.057909722237
 20
9078.591156973696
 30
0.0
 10
-7163.144825331018
 20
9078.594986198603
 30
0.0
 10
-7163.189245215875
 20
9078.596943197259
 30
0.0
  0
SPLINE
  5
B1
330
1F
100
AcDbEntity
  8
0
  6
Continuous
 62
     7
370
    25
100
AcDbSpline
210
0.0
220
0.0
230
1.0
 70
     8
 71
     3
 72
    15
 73
    11
 74
     0
 42
0.000000001
 43
0.00000001
 40
0.0
 40
0.0
 40
0.0
 40
0.0
 40
0.1292358118054869
 40
0.2539569466684353
 40
0.3771968047857803
 40
0.5066544638822931
 40
0.6346707152581672
 40
0.7555544727616228
 40
0.8762798741111381
 40
1.0
 40
1.0
 40
1.0
 40
1.0
 10
-7163.189245215875
 20
9076.590186440502
 30
0.0
 10
-7163.144838465174
 20
9076.592187254546
 30
0.0
 10
-7163.057576253084
 20
9076.596118986923
 30
0.0
 10
-7162.932728211906
 20
9076.634138405034
 30
0.0
 10
-7162.816935969094
 20
9076.69331380839
 30
0.0
 10
-7162.71447329383
 20
9076.775349505999
 30
0.0
 10
-7162.627197492971
 20
9076.872338146904
 30
0.0
 10
-7162.564042571898
 20
9076.983174011692
 30
0.0
 10
-7162.525328868357
 20
9077.103672291112
 30
0.0
 10
-7162.520465258841
 20
9077.187596323522
 30
0.0
 10
-7162.51800366182
 20
9077.23007242023
 30
0.0
  0
SPLINE
  5
B4
330
1F
100
AcDbEntity
  8
0
  6
Continuous
 62
     7
370
    25
100
AcDbSpline
210
0.0
220
0.0
230
1.0
 70
     8
 71
     3
 72
    15
 73
    11
 74
     0
 42
0.000000001
 43
0.00000001
 40
0.0
 40
0.0
 40
0.0
 40
0.0
 40
0.1376465333874859
 40
0.2584939900653753
 40
0.3721777144534331
 40
0.4802669656692595
 40
0.5916828156085363
 40
0.712530272286393
 40
0.8471387149837287
 40
1.0
 40
1.0
 40
1.0
 40
1.0
 10
-7149.704490148309
 20
9078.925596068879
 30
0.0
 10
-7149.703764910301
 20
9078.946603111084
 30
0.0
 10
-7149.70240294599
 20
9078.986053390183
 30
0.0
 10
-7149.687902241209
 20
9079.041279620313
 30
0.0
 10
-7149.66512197419
 20
9079.088737184926
 30
0.0
 10
-7149.631149163608
 20
9079.127275176248
 30
0.0
 10
-7149.587988972688
 20
9079.15674482766
 30
0.0
 10
-7149.535791747626
 20
9079.177853335797
 30
0.0
 10
-7149.474203838441
 20
9079.188617224188
 30
0.0
 10
-7149.430455772204
 20
9079.190523914309
 30
0.0
 10
-7149.40719285101
 20
9079.191537791852
 30
0.0
  0
SPLINE
  5
B5
330
1F
100
AcDbEntity
  8
0
  6
Continuous
 62
     7
370
    25
100
AcDbSpline
210
0.0
220
0.0
230
1.0
 70
     8
 71
     3
 72
    15
 73
    11
 74
     0
 42
0.000000001
 43
0.00000001
 40
0.0
 40
0.0
 40
0.0
 40
0.0
 40
0.1349177303380045
 40
0.2550287445571079
 40
0.3662847551474395
 40
0.4742189394177577
 40
0.5873325155521222
 40
0.7080066021143482
 40
0.8451209622209463
 40
1.0
 40
1.0
 40
1.0
 40
1.0
 10
-7147.112429337497
 20
9073.98883508915
 30
0.0
 10
-7147.113636122491
 20
9073.965539383456
 30
0.0
 10
-7147.115917252342
 20
9073.921504588612
 30
0.0
 10
-7147.130412837547
 20
9073.859327401044
 30
0.0
 10
-7147.157824113667
 20
9073.806863507829
 30
0.0
 10
-7147.196150047589
 20
9073.763247193667
 30
0.0
 10
-7147.246279118523
 20
9073.730941873071
 30
0.0
 10
-7147.306183977426
 20
9073.707321983882
 30
0.0
 10
-7147.376618906503
 20
9073.693826102946
 30
0.0
 10
-7147.427087283288
 20
9073.692330884896
 30
0.0
 10
-7147.453856702362
 20
9073.691537791852
 30
0.0
  0
SPLINE
  5
B9
330
1F
100
AcDbEntity
  8
0
  6
Continuous
 62
     7
370
    25
100
AcDbSpline
210
0.0
220
0.0
230
1.0
 70
     8
 71
     3
 72
    15
 73
    11
 74
     0
 42
0.000000001
 43
0.00000001
 40
0.0
 40
0.0
 40
0.0
 40
0.0
 40
0.1548790377790545
 40
0.2919933978856532
 40
0.4126674844478797
 40
0.5257810605822446
 40
0.6337152448525633
 40
0.7449712554428954
 40
0.8650822696621656
 40
1.0
 40
1.0
 40
1.0
 40
1.0
 10
-7147.453856702362
 20
9074.286132386445
 30
0.0
 10
-7147.427087283288
 20
9074.285339293401
 30
0.0
 10
-7147.376618906503
 20
9074.283844075353
 30
0.0
 10
-7147.306183977426
 20
9074.270348194415
 30
0.0
 10
-7147.246279118523
 20
9074.246728305228
 30
0.0
 10
-7147.196150047589
 20
9074.214422984634
 30
0.0
 10
-7147.157824113667
 20
9074.17080667047
 30
0.0
 10
-7147.130412837547
 20
9074.118342777254
 30
0.0
 10
-7147.115917252342
 20
9074.056165589687
 30
0.0
 10
-7147.113636122491
 20
9074.012130794841
 30
0.0
 10
-7147.112429337497
 20
9073.98883508915
 30
0.0
  0
SPLINE
  5
BA
330
1F
100
AcDbEntity
  8
0
  6
Continuous
 62
     7
370
    25
100
AcDbSpline
210
0.0
220
0.0
230
1.0
 70
     8
 71
     3
 72
    15
 73
    11
 74
     0
 42
0.000000001
 43
0.00000001
 40
0.0
 40
0.0
 40
0.0
 40
0.0
 40
0.152861285016292
 40
0.287469727713598
 40
0.4083171843914609
 40
0.5197330343307434
 40
0.6278222855467216
 40
0.7415060099346115
 40
0.862353466612507
 40
1.0
 40
1.0
 40
1.0
 40
1.0
 10
-7149.40719285101
 20
9073.691537791852
 30
0.0
 10
-7149.430455772204
 20
9073.692551669395
 30
0.0
 10
-7149.474203838441
 20
9073.694458359516
 30
0.0
 10
-7149.535791747626
 20
9073.705222247907
 30
0.0
 10
-7149.587988972688
 20
9073.726330756044
 30
0.0
 10
-7149.631149163608
 20
9073.755800407456
 30
0.0
 10
-7149.66512197419
 20
9073.794338398779
 30
0.0
 10
-7149.687902241209
 20
9073.841795963392
 30
0.0
 10
-7149.702402945988
 20
9073.89702219352
 30
0.0
 10
-7149.703764910301
 20
9073.93647247262
 30
0.0
 10
-7149.704490148309
 20
9073.957479514824
 30
0.0
  0
SPLINE
  5
BD
330
1F
100
AcDbEntity
  8
0
  6
Continuous
 62
     7
370
    25
100
AcDbSpline
210
0.0
220
0.0
230
1.0
 70
     8
 71
     3
 72
    15
 73
    11
 74
     0
 42
0.000000001
 43
0.00000001
 40
0.0
 40
0.0
 40
0.0
 40
0.0
 40
0.1548790377790402
 40
0.2919933978856687
 40
0.4126674844478918
 40
0.5257810605822535
 40
0.6337152448525692
 40
0.7449712554428982
 40
0.8650822696619986
 40
0.9999999999999999
 40
0.9999999999999999
 40
0.9999999999999999
 40
0.9999999999999999
 10
-7147.453856702362
 20
9079.191537791852
 30
0.0
 10
-7147.427087283288
 20
9079.190744698808
 30
0.0
 10
-7147.376618906503
 20
9079.18924948076
 30
0.0
 10
-7147.306183977426
 20
9079.175753599822
 30
0.0
 10
-7147.246279118523
 20
9079.152133710635
 30
0.0
 10
-7147.196150047589
 20
9079.11982839004
 30
0.0
 10
-7147.157824113667
 20
9079.076212075875
 30
0.0
 10
-7147.130412837547
 20
9079.02374818266
 30
0.0
 10
-7147.115917252342
 20
9078.96157099509
 30
0.0
 10
-7147.113636122491
 20
9078.917536200248
 30
0.0
 10
-7147.112429337497
 20
9078.894240494554
 30
0.0
  0
SPLINE
  5
BE
330
1F
100
AcDbEntity
  8
0
  6
Continuous
 62
     7
370
    25
100
AcDbSpline
210
0.0
220
0.0
230
1.0
 70
     8
 71
     3
 72
    15
 73
    11
 74
     0
 42
0.000000001
 43
0.00000001
 40
0.0
 40
0.0
 40
0.0
 40
0.0
 40
0.1349177303378492
 40
0.2550287445569663
 40
0.3662847551473106
 40
0.4742189394177692
 40
0.5873325155520515
 40
0.7080066021142912
 40
0.8451209622209386
 40
1.0
 40
1.0
 40
1.0
 40
1.0
 10
-7147.112429337497
 20
9078.894240494554
 30
0.0
 10
-7147.113636122491
 20
9078.870944788863
 30
0.0
 10
-7147.115917252342
 20
9078.826909994019
 30
0.0
 10
-7147.130412837547
 20
9078.76473280645
 30
0.0
 10
-7147.157824113667
 20
9078.712268913234
 30
0.0
 10
-7147.196150047589
 20
9078.66865259907
 30
0.0
 10
-7147.246279118523
 20
9078.636347278476
 30
0.0
 10
-7147.306183977426
 20
9078.612727389289
 30
0.0
 10
-7147.376618906503
 20
9078.599231508353
 30
0.0
 10
-7147.427087283288
 20
9078.597736290301
 30
0.0
 10
-7147.453856702362
 20
9078.596943197259
 30
0.0
  0
SPLINE
  5
C3
330
1F
100
AcDbEntity
  8
0
  6
Continuous
 62
     7
370
    25
100
AcDbSpline
210
0.0
220
0.0
230
1.0
 70
     8
 71
     3
 72
    15
 73
    11
 74
     0
 42
0.000000001
 43
0.00000001
 40
0.0
 40
0.0
 40
0.0
 40
0.0
 40
0.1548790377790668
 40
0.2919933978855925
 40
0.4126674844478286
 40
0.5257810605822025
 40
0.6337152448525297
 40
0.7449712554428707
 40
0.8650822696619842
 40
1.0
 40
1.0
 40
1.0
 40
1.0
 10
-7148.222648932091
 20
9076.961808062122
 30
0.0
 10
-7148.195879513018
 20
9076.961014969078
 30
0.0
 10
-7148.145411136231
 20
9076.959519751028
 30
0.0
 10
-7148.074976207157
 20
9076.94602387009
 30
0.0
 10
-7148.015071348254
 20
9076.922403980905
 30
0.0
 10
-7147.964942277319
 20
9076.89009866031
 30
0.0
 10
-7147.926616343397
 20
9076.846482346147
 30
0.0
 10
-7147.899205067276
 20
9076.794018452929
 30
0.0
 10
-7147.88470948207
 20
9076.731841265362
 30
0.0
 10
-7147.882428352221
 20
9076.687806470516
 30
0.0
 10
-7147.881221567227
 20
9076.664510764826
 30
0.0
  0
SPLINE
  5
C4
330
1F
100
AcDbEntity
  8
0
  6
Continuous
 62
     7
370
    25
100
AcDbSpline
210
0.0
220
0.0
230
1.0
 70
     8
 71
     3
 72
    15
 73
    11
 74
     0
 42
0.000000001
 43
0.00000001
 40
0.0
 40
0.0
 40
0.0
 40
0.0
 40
0.1349177303378457
 40
0.255028744557126
 40
0.3662847551474674
 40
0.4742189394177952
 40
0.5873325155521697
 40
0.7080066021144062
 40
0.8451209622209326
 40
1.0
 40
1.0
 40
1.0
 40
1.0
 10
-7147.881221567227
 20
9076.664510764826
 30
0.0
 10
-7147.882428352221
 20
9076.641215059131
 30
0.0
 10
-7147.88470948207
 20
9076.597180264289
 30
0.0
 10
-7147.899205067276
 20
9076.535003076719
 30
0.0
 10
-7147.926616343397
 20
9076.482539183504
 30
0.0
 10
-7147.964942277319
 20
9076.438922869342
 30
0.0
 10
-7148.015071348254
 20
9076.406617548746
 30
0.0
 10
-7148.074976207157
 20
9076.382997659559
 30
0.0
 10
-7148.145411136231
 20
9076.369501778621
 30
0.0
 10
-7148.195879513018
 20
9076.368006560571
 30
0.0
 10
-7148.222648932091
 20
9076.367213467527
 30
0.0
  0
CIRCLE
  5
C5
330
1F
100
AcDbEntity
  8
0
  6
Continuous
 62
     7
370
    25
100
AcDbCircle
 10
-7167.4978893875
 20
9071.2700194857
 30
0.0
 40
1.500000000001819
  0
CIRCLE
  5
C6
330
1F
100
AcDbEntity
  8
0
  6
Continuous
 62
     7
370
    25
100
AcDbCircle
 10
-7167.4978893875
 20
9071.2700194857
 30
0.0
 40
0.75
  0
SPLINE
  5
180
330
1F
100
AcDbEntity
  8
0
  6
Continuous
 62
     7
370
    25
100
AcDbSpline
210
0.0
220
0.0
230
1.0
 70
     8
 71
     3
 72
     8
 73
     4
 74
     0
 42
0.000000001
 43
0.00000001
 40
0.7106382978723405
 40
0.7106382978723405
 40
0.7106382978723405
 40
0.7106382978723405
 40
0.7148936170212766
 40
0.7148936170212766
 40
0.7148936170212766
 40
0.7148936170212766
 10
-7174.736176643576
 20
9133.126941577335
 30
0.0
 10
-7174.217085310242
 20
9132.672366244
 30
0.0
 10
-7173.394802643576
 20
9132.618137244
 30
0.0
 10
-7172.269328643576
 20
9132.964254577335
 30
0.0
  0
SPLINE
  5
181
330
1F
100
AcDbEntity
  8
0
  6
Continuous
 62
     7
370
    25
100
AcDbSpline
210
0.0
220
0.0
230
1.0
 70
     8
 71
     3
 72
     8
 73
     4
 74
     0
 42
0.000000001
 43
0.00000001
 40
0.7148936170212766
 40
0.7148936170212766
 40
0.7148936170212766
 40
0.7148936170212766
 40
0.7191489361702128
 40
0.7191489361702128
 40
0.7191489361702128
 40
0.7191489361702128
 10
-7172.269328643576
 20
9132.964254577335
 30
0.0
 10
-7171.123280643576
 20
9133.310202577335
 30
0.0
 10
-7170.18225297691
 20
9133.364431577334
 30
0.0
 10
-7169.446245643577
 20
9133.126941577335
 30
0.0
  0
SPLINE
  5
1AF
330
1F
100
AcDbEntity
  8
0
  6
Continuous
 62
     7
370
    25
100
AcDbSpline
210
0.0
220
0.0
230
1.0
 70
     8
 71
     3
 72
     8
 73
     4
 74
     0
 42
0.000000001
 43
0.00000001
 40
0.9106382978723404
 40
0.9106382978723404
 40
0.9106382978723404
 40
0.9106382978723404
 40
0.9148936170212766
 40
0.9148936170212766
 40
0.9148936170212766
 40
0.9148936170212766
 10
-7132.587670643577
 20
9093.378735577333
 30
0.0
 10
-7133.149687976909
 20
9092.015602244002
 30
0.0
 10
-7133.48458697691
 20
9091.096291577334
 30
0.0
 10
-7133.592367643576
 20
9090.620803577334
 30
0.0
  0
SPLINE
  5
1B0
330
1F
100
AcDbEntity
  8
0
  6
Continuous
 62
     7
370
    25
100
AcDbSpline
210
0.0
220
0.0
230
1.0
 70
     8
 71
     3
 72
     8
 73
     4
 74
     0
 42
0.000000001
 43
0.00000001
 40
0.9148936170212766
 40
0.9148936170212766
 40
0.9148936170212766
 40
0.9148936170212766
 40
0.9191489361702128
 40
0.9191489361702128
 40
0.9191489361702128
 40
0.9191489361702128
 10
-7133.592367643576
 20
9090.620803577334
 30
0.0
 10
-7133.722161643576
 20
9090.166651577334
 30
0.0
 10
-7133.841118310243
 20
9089.745011577334
 30
0.0
 10
-7133.949237643576
 20
9089.355883577333
 30
0.0
  0
LINE
  5
1B1
330
1F
100
AcDbEntity
  8
0
  6
Continuous
 62
     7
370
    25
100
AcDbLine
 10
-7160.4666523105
 20
9073.9586408324
 30
0.0
 11
-7160.4666523105
 21
9078.9592742783
 31
0.0
  0
LINE
  5
1B2
330
1F
100
AcDbEntity
  8
0
  6
Continuous
 62
     7
370
    25
100
AcDbLine
 10
-7159.7977333916
 20
9078.9592742783
 30
0.0
 11
-7159.7977333916
 21
9073.9586408324
 31
0.0
  0
LINE
  5
1B3
330
1F
100
AcDbEntity
  8
0
  6
Continuous
 62
     7
370
    25
100
AcDbLine
 10
-7156.1112469051
 20
9074.9562126229
 30
0.0
 11
-7156.1112469051
 21
9075.7006171837
 31
0.0
  0
LINE
  5
1B4
330
1F
100
AcDbEntity
  8
0
  6
Continuous
 62
     7
370
    25
100
AcDbLine
 10
-7156.7824884591
 20
9076.3672134675
 30
0.0
 11
-7157.7463820402
 21
9076.3672134675
 31
0.0
  0
LINE
  5
1B5
330
1F
100
AcDbEntity
  8
0
  6
Continuous
 62
     7
370
    25
100
AcDbLine
 10
-7157.7463820402
 20
9076.3672134675
 30
0.0
 11
-7157.7463820402
 21
9074.2861323864
 31
0.0
  0
LINE
  5
1B6
330
1F
100
AcDbEntity
  8
0
  6
Continuous
 62
     7
370
    25
100
AcDbLine
 10
-7157.7463820402
 20
9074.2861323864
 30
0.0
 11
-7156.7824884591
 21
9074.2861323864
 31
0.0
  0
LINE
  5
1B7
330
1F
100
AcDbEntity
  8
0
  6
Continuous
 62
     7
370
    25
100
AcDbLine
 10
-7156.334219878
 20
9077.6028553594
 30
0.0
 11
-7156.334219878
 21
9077.9593798527
 31
0.0
  0
LINE
  5
1B8
330
1F
100
AcDbEntity
  8
0
  6
Continuous
 62
     7
370
    25
100
AcDbLine
 10
-7156.986880351
 20
9078.5969431973
 30
0.0
 11
-7157.7463820402
 21
9078.5969431973
 31
0.0
  0
LINE
  5
1B9
330
1F
100
AcDbEntity
  8
0
  6
Continuous
 62
     7
370
    25
100
AcDbLine
 10
-7157.7463820402
 20
9078.5969431973
 30
0.0
 11
-7157.7463820402
 21
9076.9618080621
 31
0.0
  0
LINE
  5
1BA
330
1F
100
AcDbEntity
  8
0
  6
Continuous
 62
     7
370
    25
100
AcDbLine
 10
-7157.7463820402
 20
9076.9618080621
 30
0.0
 11
-7156.986880351
 21
9076.9618080621
 31
0.0
  0
LINE
  5
1BB
330
1F
100
AcDbEntity
  8
0
  6
Continuous
 62
     7
370
    25
100
AcDbLine
 10
-7158.4153009591
 20
9073.9574795148
 30
0.0
 11
-7158.4153009591
 21
9078.9255960689
 31
0.0
  0
LINE
  5
1BC
330
1F
100
AcDbEntity
  8
0
  6
Continuous
 62
     7
370
    25
100
AcDbLine
 10
-7158.147036601
 20
9079.1915377919
 30
0.0
 11
-7156.9799124456
 21
9079.1915377919
 31
0.0
  0
LINE
  5
1BD
330
1F
100
AcDbEntity
  8
0
  6
Continuous
 62
     7
370
    25
100
AcDbLine
 10
-7155.6653009591
 20
9077.9918967446
 30
0.0
 11
-7155.6653009591
 21
9077.6179524878
 31
0.0
  0
LINE
  5
1BE
330
1F
100
AcDbEntity
  8
0
  6
Continuous
 62
     7
370
    25
100
AcDbLine
 10
-7155.4423279861
 20
9075.7075850892
 30
0.0
 11
-7155.4423279861
 21
9074.9306636364
 31
0.0
  0
LINE
  5
1BF
330
1F
100
AcDbEntity
  8
0
  6
Continuous
 62
     7
370
    25
100
AcDbLine
 10
-7156.772036601
 20
9073.6915377919
 30
0.0
 11
-7158.1447139659
 21
9073.6915377919
 31
0.0
  0
LINE
  5
1C0
330
1F
100
AcDbEntity
  8
0
  6
Continuous
 62
     7
370
    25
100
AcDbLine
 10
-7151.7558414997
 20
9076.9618080621
 30
0.0
 11
-7151.7558414997
 21
9078.9314026567
 31
0.0
  0
LINE
  5
1C1
330
1F
100
AcDbEntity
  8
0
  6
Continuous
 62
     7
370
    25
100
AcDbLine
 10
-7151.0869225807
 20
9078.9255960689
 30
0.0
 11
-7151.0869225807
 21
9073.9574795148
 31
0.0
  0
LINE
  5
1C2
330
1F
100
AcDbEntity
  8
0
  6
Continuous
 62
     7
370
    25
100
AcDbLine
 10
-7151.7558414997
 20
9073.9574795148
 30
0.0
 11
-7151.7558414997
 21
9076.3672134675
 31
0.0
  0
LINE
  5
1C3
330
1F
100
AcDbEntity
  8
0
  6
Continuous
 62
     7
370
    25
100
AcDbLine
 10
-7151.7558414997
 20
9076.3672134675
 30
0.0
 11
-7153.3909766348
 21
9076.3672134675
 31
0.0
  0
LINE
  5
1C4
330
1F
100
AcDbEntity
  8
0
  6
Continuous
 62
     7
370
    25
100
AcDbLine
 10
-7153.3909766348
 20
9076.3672134675
 30
0.0
 11
-7153.3909766348
 21
9073.9574795148
 31
0.0
  0
LINE
  5
1C5
330
1F
100
AcDbEntity
  8
0
  6
Continuous
 62
     7
370
    25
100
AcDbLine
 10
-7154.0598955537
 20
9073.9574795148
 30
0.0
 11
-7154.0598955537
 21
9078.9255960689
 31
0.0
  0
LINE
  5
1C6
330
1F
100
AcDbEntity
  8
0
  6
Continuous
 62
     7
370
    25
100
AcDbLine
 10
-7153.3909766348
 20
9078.9314026567
 30
0.0
 11
-7153.3909766348
 21
9076.9618080621
 31
0.0
  0
LINE
  5
1C7
330
1F
100
AcDbEntity
  8
0
  6
Continuous
 62
     7
370
    25
100
AcDbLine
 10
-7153.3909766348
 20
9076.9618080621
 30
0.0
 11
-7151.7558414997
 21
9076.9618080621
 31
0.0
  0
LINE
  5
1C8
330
1F
100
AcDbEntity
  8
0
  6
Continuous
 62
     7
370
    25
100
AcDbLine
 10
-7164.153138797
 20
9075.9955918459
 30
0.0
 11
-7164.153138797
 21
9073.9574795148
 31
0.0
  0
LINE
  5
1C9
330
1F
100
AcDbEntity
  8
0
  6
Continuous
 62
     7
370
    25
100
AcDbLine
 10
-7164.8220577159
 20
9073.9574795148
 30
0.0
 11
-7164.8220577159
 21
9078.9255960689
 31
0.0
  0
LINE
  5
1CA
330
1F
100
AcDbEntity
  8
0
  6
Continuous
 62
     7
370
    25
100
AcDbLine
 10
-7164.5514707226
 20
9079.1915377919
 30
0.0
 11
-7163.1787933578
 21
9079.1915377919
 31
0.0
  0
LINE
  5
1CB
330
1F
100
AcDbEntity
  8
0
  6
Continuous
 62
     7
370
    25
100
AcDbLine
 10
-7163.1520830537
 20
9075.9955918459
 30
0.0
 11
-7164.153138797
 21
9075.9955918459
 31
0.0
  0
LINE
  5
1CC
330
1F
100
AcDbEntity
  8
0
  6
Continuous
 62
     7
370
    25
100
AcDbLine
 10
-7161.8490847429
 20
9077.9756382986
 30
0.0
 11
-7161.8490847429
 21
9077.2080073864
 31
0.0
  0
LINE
  5
1CD
330
1F
100
AcDbEntity
  8
0
  6
Continuous
 62
     7
370
    25
100
AcDbLine
 10
-7163.1892452159
 20
9078.5969431973
 30
0.0
 11
-7164.153138797
 21
9078.5969431973
 31
0.0
  0
LINE
  5
1CE
330
1F
100
AcDbEntity
  8
0
  6
Continuous
 62
     7
370
    25
100
AcDbLine
 10
-7162.5180036618
 20
9077.2300724202
 30
0.0
 11
-7162.5180036618
 21
9077.9535732648
 31
0.0
  0
LINE
  5
1CF
330
1F
100
AcDbEntity
  8
0
  6
Continuous
 62
     7
370
    25
100
AcDbLine
 10
-7164.153138797
 20
9076.5901864405
 30
0.0
 11
-7163.1892452159
 21
9076.5901864405
 31
0.0
  0
LINE
  5
1D0
330
1F
100
AcDbEntity
  8
0
  6
Continuous
 62
     7
370
    25
100
AcDbLine
 10
-7164.153138797
 20
9078.5969431973
 30
0.0
 11
-7164.153138797
 21
9076.5901864405
 31
0.0
  0
LINE
  5
1D1
330
1F
100
AcDbEntity
  8
0
  6
Continuous
 62
     7
370
    25
100
AcDbLine
 10
-7147.4538567024
 20
9073.6915377919
 30
0.0
 11
-7149.407192851
 21
9073.6915377919
 31
0.0
  0
LINE
  5
1D2
330
1F
100
AcDbEntity
  8
0
  6
Continuous
 62
     7
370
    25
100
AcDbLine
 10
-7149.0355712294
 20
9076.3672134675
 30
0.0
 11
-7149.0355712294
 21
9074.2861323864
 31
0.0
  0
LINE
  5
1D3
330
1F
100
AcDbEntity
  8
0
  6
Continuous
 62
     7
370
    25
100
AcDbLine
 10
-7149.0355712294
 20
9074.2861323864
 30
0.0
 11
-7147.4538567024
 21
9074.2861323864
 31
0.0
  0
LINE
  5
1D4
330
1F
100
AcDbEntity
  8
0
  6
Continuous
 62
     7
370
    25
100
AcDbLine
 10
-7149.7044901483
 20
9073.9574795148
 30
0.0
 11
-7149.7044901483
 21
9078.9255960689
 31
0.0
  0
LINE
  5
1D5
330
1F
100
AcDbEntity
  8
0
  6
Continuous
 62
     7
370
    25
100
AcDbLine
 10
-7149.407192851
 20
9079.1915377919
 30
0.0
 11
-7147.4538567024
 21
9079.1915377919
 31
0.0
  0
LINE
  5
1D6
330
1F
100
AcDbEntity
  8
0
  6
Continuous
 62
     7
370
    25
100
AcDbLine
 10
-7149.0355712294
 20
9078.5969431973
 30
0.0
 11
-7149.0355712294
 21
9076.9618080621
 31
0.0
  0
LINE
  5
1D7
330
1F
100
AcDbEntity
  8
0
  6
Continuous
 62
     7
370
    25
100
AcDbLine
 10
-7149.0355712294
 20
9076.9618080621
 30
0.0
 11
-7148.2226489321
 21
9076.9618080621
 31
0.0
  0
LINE
  5
1D8
330
1F
100
AcDbEntity
  8
0
  6
Continuous
 62
     7
370
    25
100
AcDbLine
 10
-7148.2226489321
 20
9076.3672134675
 30
0.0
 11
-7149.0355712294
 21
9076.3672134675
 31
0.0
  0
LINE
  5
1D9
330
1F
100
AcDbEntity
  8
0
  6
Continuous
 62
     7
370
    25
100
AcDbLine
 10
-7147.4538567024
 20
9078.5969431973
 30
0.0
 11
-7149.0355712294
 21
9078.5969431973
 31
0.0
  0
LINE
  5
1DA
330
1F
100
AcDbEntity
  8
0
  6
Continuous
 62
     7
370
    25
100
AcDbLine
 10
-7133.9492376436
 20
9089.3558835773
 30
0.0
 11
-7135.9941916436
 21
9088.5110795773
 31
0.0
  0
LINE
  5
1DB
330
1F
100
AcDbEntity
  8
0
  6
Continuous
 62
     7
370
    25
100
AcDbLine
 10
-7135.9941916436
 20
9088.5110795773
 30
0.0
 11
-7137.3569016436
 21
9087.4080845773
 31
0.0
  0
LINE
  5
1DC
330
1F
100
AcDbEntity
  8
0
  6
Continuous
 62
     7
370
    25
100
AcDbLine
 10
-7137.3569016436
 20
9087.4080845773
 30
0.0
 11
-7136.2533986436
 21
9084.3266835773
 31
0.0
  0
LINE
  5
1DD
330
1F
100
AcDbEntity
  8
0
  6
Continuous
 62
     7
370
    25
100
AcDbLine
 10
-7136.2533986436
 20
9084.3266835773
 30
0.0
 11
-7137.0974406436
 21
9083.4825145773
 31
0.0
  0
LINE
  5
1DE
330
1F
100
AcDbEntity
  8
0
  6
Continuous
 62
     7
370
    25
100
AcDbLine
 10
-7137.0974406436
 20
9083.4825145773
 30
0.0
 11
-7136.0910926436
 21
9082.0875465773
 31
0.0
  0
LINE
  5
1DF
330
1F
100
AcDbEntity
  8
0
  6
Continuous
 62
     7
370
    25
100
AcDbLine
 10
-7136.0910926436
 20
9082.0875465773
 30
0.0
 11
-7135.8964016436
 21
9080.9845515773
 31
0.0
  0
LINE
  5
1E0
330
1F
100
AcDbEntity
  8
0
  6
Continuous
 62
     7
370
    25
100
AcDbLine
 10
-7135.8964016436
 20
9080.9845515773
 30
0.0
 11
-7136.5128596436
 21
9078.5177035773
 31
0.0
  0
LINE
  5
1E1
330
1F
100
AcDbEntity
  8
0
  6
Continuous
 62
     7
370
    25
100
AcDbLine
 10
-7136.5128596436
 20
9078.5177035773
 30
0.0
 11
-7135.8316316436
 21
9076.3771185773
 31
0.0
  0
LINE
  5
1E2
330
1F
100
AcDbEntity
  8
0
  6
Continuous
 62
     7
370
    25
100
AcDbLine
 10
-7135.8316316436
 20
9076.3771185773
 30
0.0
 11
-7135.4748886436
 21
9074.5922605773
 31
0.0
  0
LINE
  5
1E3
330
1F
100
AcDbEntity
  8
0
  6
Continuous
 62
     7
370
    25
100
AcDbLine
 10
-7135.4748886436
 20
9074.5922605773
 30
0.0
 11
-7136.3186766436
 21
9072.9694545773
 31
0.0
  0
LINE
  5
1E4
330
1F
100
AcDbEntity
  8
0
  6
Continuous
 62
     7
370
    25
100
AcDbLine
 10
-7136.3186766436
 20
9072.9694545773
 30
0.0
 11
-7136.6754196436
 21
9072.6452235773
 31
0.0
  0
LINE
  5
1E5
330
1F
100
AcDbEntity
  8
0
  6
Continuous
 62
     7
370
    25
100
AcDbLine
 10
-7136.6754196436
 20
9072.6452235773
 30
0.0
 11
-7137.7136446436
 21
9071.5102245773
 31
0.0
  0
LINE
  5
1E6
330
1F
100
AcDbEntity
  8
0
  6
Continuous
 62
     7
370
    25
100
AcDbLine
 10
-7137.7136446436
 20
9071.5102245773
 30
0.0
 11
-7138.1352846436
 21
9070.1467525773
 31
0.0
  0
LINE
  5
1E7
330
1F
100
AcDbEntity
  8
0
  6
Continuous
 62
     7
370
    25
100
AcDbLine
 10
-7138.1352846436
 20
9070.1467525773
 30
0.0
 11
-7139.4007126436
 21
9069.1412935773
 31
0.0
  0
LINE
  5
1E8
330
1F
100
AcDbEntity
  8
0
  6
Continuous
 62
     7
370
    25
100
AcDbLine
 10
-7139.4007126436
 20
9069.1412935773
 30
0.0
 11
-7138.4598966436
 21
9068.3620215773
 31
0.0
  0
LINE
  5
1E9
330
1F
100
AcDbEntity
  8
0
  6
Continuous
 62
     7
370
    25
100
AcDbLine
 10
-7138.4598966436
 20
9068.3620215773
 30
0.0
 11
-7137.6163626436
 21
9068.6212285773
 31
0.0
  0
LINE
  5
1EA
330
1F
100
AcDbEntity
  8
0
  6
Continuous
 62
     7
370
    25
100
AcDbLine
 10
-7137.6163626436
 20
9068.6212285773
 30
0.0
 11
-7137.4544376436
 21
9066.1564125773
 31
0.0
  0
LINE
  5
1EB
330
1F
100
AcDbEntity
  8
0
  6
Continuous
 62
     7
370
    25
100
AcDbLine
 10
-7137.4544376436
 20
9066.1564125773
 30
0.0
 11
-7138.8171476436
 21
9065.7345185773
 31
0.0
  0
LINE
  5
1EC
330
1F
100
AcDbEntity
  8
0
  6
Continuous
 62
     7
370
    25
100
AcDbLine
 10
-7138.8171476436
 20
9065.7345185773
 30
0.0
 11
-7139.9201426436
 21
9066.1564125773
 31
0.0
  0
LINE
  5
1ED
330
1F
100
AcDbEntity
  8
0
  6
Continuous
 62
     7
370
    25
100
AcDbLine
 10
-7139.9201426436
 20
9066.1564125773
 30
0.0
 11
-7140.1802386436
 21
9067.3564355773
 31
0.0
  0
LINE
  5
1EE
330
1F
100
AcDbEntity
  8
0
  6
Continuous
 62
     7
370
    25
100
AcDbLine
 10
-7140.1802386436
 20
9067.3564355773
 30
0.0
 11
-7141.5420596436
 21
9067.3564355773
 31
0.0
  0
LINE
  5
1EF
330
1F
100
AcDbEntity
  8
0
  6
Continuous
 62
     7
370
    25
100
AcDbLine
 10
-7141.5420596436
 20
9067.3564355773
 30
0.0
 11
-7142.8076146436
 21
9065.9608325773
 31
0.0
  0
LINE
  5
1F0
330
1F
100
AcDbEntity
  8
0
  6
Continuous
 62
     7
370
    25
100
AcDbLine
 10
-7142.8076146436
 20
9065.9608325773
 30
0.0
 11
-7144.0080186436
 21
9066.0584955773
 31
0.0
  0
LINE
  5
1F1
330
1F
100
AcDbEntity
  8
0
  6
Continuous
 62
     7
370
    25
100
AcDbLine
 10
-7144.0080186436
 20
9066.0584955773
 30
0.0
 11
-7144.7867826436
 21
9064.8578375773
 31
0.0
  0
LINE
  5
1F2
330
1F
100
AcDbEntity
  8
0
  6
Continuous
 62
     7
370
    25
100
AcDbLine
 10
-7144.7867826436
 20
9064.8578375773
 30
0.0
 11
-7147.0917056436
 21
9065.9608325773
 31
0.0
  0
LINE
  5
1F3
330
1F
100
AcDbEntity
  8
0
  6
Continuous
 62
     7
370
    25
100
AcDbLine
 10
-7147.0917056436
 20
9065.9608325773
 30
0.0
 11
-7149.3938346436
 21
9065.2798585773
 31
0.0
  0
LINE
  5
1F4
330
1F
100
AcDbEntity
  8
0
  6
Continuous
 62
     7
370
    25
100
AcDbLine
 10
-7149.3938346436
 20
9065.2798585773
 30
0.0
 11
-7149.5562676436
 21
9064.5341145773
 31
0.0
  0
LINE
  5
1F5
330
1F
100
AcDbEntity
  8
0
  6
Continuous
 62
     7
370
    25
100
AcDbLine
 10
-7149.5562676436
 20
9064.5341145773
 30
0.0
 11
-7150.8543346436
 21
9064.5341145773
 31
0.0
  0
LINE
  5
1F6
330
1F
100
AcDbEntity
  8
0
  6
Continuous
 62
     7
370
    25
100
AcDbLine
 10
-7150.8543346436
 20
9064.5341145773
 30
0.0
 11
-7152.0223536436
 21
9063.3330755773
 31
0.0
  0
LINE
  5
1F7
330
1F
100
AcDbEntity
  8
0
  6
Continuous
 62
     7
370
    25
100
AcDbLine
 10
-7152.0223536436
 20
9063.3330755773
 30
0.0
 11
-7152.8017526436
 21
9061.0295495773
 31
0.0
  0
LINE
  5
1F8
330
1F
100
AcDbEntity
  8
0
  6
Continuous
 62
     7
370
    25
100
AcDbLine
 10
-7152.8017526436
 20
9061.0295495773
 30
0.0
 11
-7153.2236466436
 21
9060.1861425773
 31
0.0
  0
LINE
  5
1F9
330
1F
100
AcDbEntity
  8
0
  6
Continuous
 62
     7
370
    25
100
AcDbLine
 10
-7153.2236466436
 20
9060.1861425773
 30
0.0
 11
-7154.4239236436
 21
9060.1861425773
 31
0.0
  0
LINE
  5
1FA
330
1F
100
AcDbEntity
  8
0
  6
Continuous
 62
     7
370
    25
100
AcDbLine
 10
-7154.4239236436
 20
9060.1861425773
 30
0.0
 11
-7154.8461986436
 21
9058.2057045773
 31
0.0
  0
LINE
  5
1FB
330
1F
100
AcDbEntity
  8
0
  6
Continuous
 62
     7
370
    25
100
AcDbLine
 10
-7154.8461986436
 20
9058.2057045773
 30
0.0
 11
-7156.2078926436
 21
9058.3031135773
 31
0.0
  0
LINE
  5
1FC
330
1F
100
AcDbEntity
  8
0
  6
Continuous
 62
     7
370
    25
100
AcDbLine
 10
-7156.2078926436
 20
9058.3031135773
 30
0.0
 11
-7158.6088276436
 21
9055.0592795773
 31
0.0
  0
LINE
  5
1FD
330
1F
100
AcDbEntity
  8
0
  6
Continuous
 62
     7
370
    25
100
AcDbLine
 10
-7158.6088276436
 20
9055.0592795773
 30
0.0
 11
-7159.1940436436
 21
9055.0592795773
 31
0.0
  0
LINE
  5
1FE
330
1F
100
AcDbEntity
  8
0
  6
Continuous
 62
     7
370
    25
100
AcDbLine
 10
-7159.1940436436
 20
9055.0592795773
 30
0.0
 11
-7159.8746366436
 21
9054.2803885773
 31
0.0
  0
LINE
  5
1FF
330
1F
100
AcDbEntity
  8
0
  6
Continuous
 62
     7
370
    25
100
AcDbLine
 10
-7159.8746366436
 20
9054.2803885773
 30
0.0
 11
-7160.9127346436
 21
9054.2161265773
 31
0.0
  0
LINE
  5
200
330
1F
100
AcDbEntity
  8
0
  6
Continuous
 62
     7
370
    25
100
AcDbLine
 10
-7160.9127346436
 20
9054.2161265773
 30
0.0
 11
-7161.5948516436
 21
9053.6960615773
 31
0.0
  0
LINE
  5
201
330
1F
100
AcDbEntity
  8
0
  6
Continuous
 62
     7
370
    25
100
AcDbLine
 10
-7161.5948516436
 20
9053.6960615773
 30
0.0
 11
-7163.9964216436
 21
9053.6960615773
 31
0.0
  0
LINE
  5
202
330
1F
100
AcDbEntity
  8
0
  6
Continuous
 62
     7
370
    25
100
AcDbLine
 10
-7163.9964216436
 20
9053.6960615773
 30
0.0
 11
-7166.8830046436
 21
9050.3543105773
 31
0.0
  0
LINE
  5
203
330
1F
100
AcDbEntity
  8
0
  6
Continuous
 62
     7
370
    25
100
AcDbLine
 10
-7166.8830046436
 20
9050.3543105773
 30
0.0
 11
-7169.5768016436
 21
9049.1213945773
 31
0.0
  0
LINE
  5
204
330
1F
100
AcDbEntity
  8
0
  6
Continuous
 62
     7
370
    25
100
AcDbLine
 10
-7169.5768016436
 20
9049.1213945773
 30
0.0
 11
-7169.5113966436
 21
9049.5102685773
 31
0.0
  0
LINE
  5
205
330
1F
100
AcDbEntity
  8
0
  6
Continuous
 62
     7
370
    25
100
AcDbLine
 10
-7169.5113966436
 20
9049.5102685773
 30
0.0
 11
-7169.7060876436
 21
9050.2895405773
 31
0.0
  0
LINE
  5
206
330
1F
100
AcDbEntity
  8
0
  6
Continuous
 62
     7
370
    25
100
AcDbLine
 10
-7169.7060876436
 20
9050.2895405773
 30
0.0
 11
-7169.1874196436
 21
9050.5159815773
 31
0.0
  0
LINE
  5
207
330
1F
100
AcDbEntity
  8
0
  6
Continuous
 62
     7
370
    25
100
AcDbLine
 10
-7169.1874196436
 20
9050.5159815773
 30
0.0
 11
-7169.9659296436
 21
9051.0357925773
 31
0.0
  0
LINE
  5
208
330
1F
100
AcDbEntity
  8
0
  6
Continuous
 62
     7
370
    25
100
AcDbLine
 10
-7169.9659296436
 20
9051.0357925773
 30
0.0
 11
-7169.2843206436
 21
9052.4966735773
 31
0.0
  0
LINE
  5
209
330
1F
100
AcDbEntity
  8
0
  6
Continuous
 62
     7
370
    25
100
AcDbLine
 10
-7169.2843206436
 20
9052.4966735773
 30
0.0
 11
-7168.7659066436
 21
9053.0153415773
 31
0.0
  0
LINE
  5
20A
330
1F
100
AcDbEntity
  8
0
  6
Continuous
 62
     7
370
    25
100
AcDbLine
 10
-7168.7659066436
 20
9053.0153415773
 30
0.0
 11
-7168.7659066436
 21
9053.9557765773
 31
0.0
  0
LINE
  5
20B
330
1F
100
AcDbEntity
  8
0
  6
Continuous
 62
     7
370
    25
100
AcDbLine
 10
-7168.7659066436
 20
9053.9557765773
 30
0.0
 11
-7169.8682666436
 21
9054.0211815773
 31
0.0
  0
LINE
  5
20C
330
1F
100
AcDbEntity
  8
0
  6
Continuous
 62
     7
370
    25
100
AcDbLine
 10
-7169.8682666436
 20
9054.0211815773
 30
0.0
 11
-7170.5502566436
 21
9052.7553725773
 31
0.0
  0
LINE
  5
20D
330
1F
100
AcDbEntity
  8
0
  6
Continuous
 62
     7
370
    25
100
AcDbLine
 10
-7170.5502566436
 20
9052.7553725773
 30
0.0
 11
-7173.4376016436
 21
9054.2803885773
 31
0.0
  0
LINE
  5
20E
330
1F
100
AcDbEntity
  8
0
  6
Continuous
 62
     7
370
    25
100
AcDbLine
 10
-7173.4376016436
 20
9054.2803885773
 30
0.0
 11
-7174.7361766436
 21
9053.7614665773
 31
0.0
  0
LINE
  5
20F
330
1F
100
AcDbEntity
  8
0
  6
Continuous
 62
     7
370
    25
100
AcDbLine
 10
-7174.7361766436
 20
9053.7614665773
 30
0.0
 11
-7176.2606846436
 21
9054.2803885773
 31
0.0
  0
LINE
  5
210
330
1F
100
AcDbEntity
  8
0
  6
Continuous
 62
     7
370
    25
100
AcDbLine
 10
-7176.2606846436
 20
9054.2803885773
 30
0.0
 11
-7176.3580936436
 21
9055.6436065773
 31
0.0
  0
LINE
  5
211
330
1F
100
AcDbEntity
  8
0
  6
Continuous
 62
     7
370
    25
100
AcDbLine
 10
-7176.3580936436
 20
9055.6436065773
 30
0.0
 11
-7177.8187206436
 21
9055.7405075773
 31
0.0
  0
LINE
  5
212
330
1F
100
AcDbEntity
  8
0
  6
Continuous
 62
     7
370
    25
100
AcDbLine
 10
-7177.8187206436
 20
9055.7405075773
 30
0.0
 11
-7178.2404876436
 21
9054.2161265773
 31
0.0
  0
LINE
  5
213
330
1F
100
AcDbEntity
  8
0
  6
Continuous
 62
     7
370
    25
100
AcDbLine
 10
-7178.2404876436
 20
9054.2161265773
 30
0.0
 11
-7180.9656536436
 21
9051.3927895773
 31
0.0
  0
LINE
  5
214
330
1F
100
AcDbEntity
  8
0
  6
Continuous
 62
     7
370
    25
100
AcDbLine
 10
-7180.9656536436
 20
9051.3927895773
 30
0.0
 11
-7182.0689026436
 21
9051.1983525773
 31
0.0
  0
LINE
  5
215
330
1F
100
AcDbEntity
  8
0
  6
Continuous
 62
     7
370
    25
100
AcDbLine
 10
-7182.0689026436
 20
9051.1983525773
 30
0.0
 11
-7183.0095916436
 21
9050.8736135773
 31
0.0
  0
LINE
  5
216
330
1F
100
AcDbEntity
  8
0
  6
Continuous
 62
     7
370
    25
100
AcDbLine
 10
-7183.0095916436
 20
9050.8736135773
 30
0.0
 11
-7186.0921356436
 21
9051.1329475773
 31
0.0
  0
LINE
  5
217
330
1F
100
AcDbEntity
  8
0
  6
Continuous
 62
     7
370
    25
100
AcDbLine
 10
-7186.0921356436
 20
9051.1329475773
 30
0.0
 11
-7187.0982296436
 21
9050.4515925773
 31
0.0
  0
LINE
  5
218
330
1F
100
AcDbEntity
  8
0
  6
Continuous
 62
     7
370
    25
100
AcDbLine
 10
-7187.0982296436
 20
9050.4515925773
 30
0.0
 11
-7187.9744026436
 21
9051.0357925773
 31
0.0
  0
LINE
  5
219
330
1F
100
AcDbEntity
  8
0
  6
Continuous
 62
     7
370
    25
100
AcDbLine
 10
-7187.9744026436
 20
9051.0357925773
 30
0.0
 11
-7188.8183176436
 21
9050.7110535773
 31
0.0
  0
LINE
  5
21A
330
1F
100
AcDbEntity
  8
0
  6
Continuous
 62
     7
370
    25
100
AcDbLine
 10
-7188.8183176436
 20
9050.7110535773
 30
0.0
 11
-7191.0241806436
 21
9050.7760775773
 31
0.0
  0
LINE
  5
21B
330
1F
100
AcDbEntity
  8
0
  6
Continuous
 62
     7
370
    25
100
AcDbLine
 10
-7191.0241806436
 20
9050.7760775773
 30
0.0
 11
-7191.6408926436
 21
9051.6517425773
 31
0.0
  0
LINE
  5
21C
330
1F
100
AcDbEntity
  8
0
  6
Continuous
 62
     7
370
    25
100
AcDbLine
 10
-7191.6408926436
 20
9051.6517425773
 30
0.0
 11
-7192.5817086436
 21
9051.4579405773
 31
0.0
  0
LINE
  5
21D
330
1F
100
AcDbEntity
  8
0
  6
Continuous
 62
     7
370
    25
100
AcDbLine
 10
-7192.5817086436
 20
9051.4579405773
 30
0.0
 11
-7192.5817086436
 21
9049.3482165773
 31
0.0
  0
LINE
  5
21E
330
1F
100
AcDbEntity
  8
0
  6
Continuous
 62
     7
370
    25
100
AcDbLine
 10
-7192.5817086436
 20
9049.3482165773
 30
0.0
 11
-7192.0617706436
 21
9049.2513155773
 31
0.0
  0
LINE
  5
21F
330
1F
100
AcDbEntity
  8
0
  6
Continuous
 62
     7
370
    25
100
AcDbLine
 10
-7192.0617706436
 20
9049.2513155773
 30
0.0
 11
-7191.8031986436
 21
9048.0511655773
 31
0.0
  0
LINE
  5
220
330
1F
100
AcDbEntity
  8
0
  6
Continuous
 62
     7
370
    25
100
AcDbLine
 10
-7191.8031986436
 20
9048.0511655773
 30
0.0
 11
-7192.6458436436
 21
9048.0511655773
 31
0.0
  0
LINE
  5
221
330
1F
100
AcDbEntity
  8
0
  6
Continuous
 62
     7
370
    25
100
AcDbLine
 10
-7192.6458436436
 20
9048.0511655773
 30
0.0
 11
-7192.9058126436
 21
9046.5904115773
 31
0.0
  0
LINE
  5
222
330
1F
100
AcDbEntity
  8
0
  6
Continuous
 62
     7
370
    25
100
AcDbLine
 10
-7192.9058126436
 20
9046.5904115773
 30
0.0
 11
-7195.1119296436
 21
9046.5257685773
 31
0.0
  0
LINE
  5
223
330
1F
100
AcDbEntity
  8
0
  6
Continuous
 62
     7
370
    25
100
AcDbLine
 10
-7195.1119296436
 20
9046.5257685773
 30
0.0
 11
-7195.7285146436
 21
9045.0652685773
 31
0.0
  0
LINE
  5
224
330
1F
100
AcDbEntity
  8
0
  6
Continuous
 62
     7
370
    25
100
AcDbLine
 10
-7195.7285146436
 20
9045.0652685773
 30
0.0
 11
-7196.7988706436
 21
9045.1304195773
 31
0.0
  0
LINE
  5
225
330
1F
100
AcDbEntity
  8
0
  6
Continuous
 62
     7
370
    25
100
AcDbLine
 10
-7196.7988706436
 20
9045.1304195773
 30
0.0
 11
-7197.8706236436
 21
9045.6817265773
 31
0.0
  0
LINE
  5
226
330
1F
100
AcDbEntity
  8
0
  6
Continuous
 62
     7
370
    25
100
AcDbLine
 10
-7197.8706236436
 20
9045.6817265773
 30
0.0
 11
-7198.9739996436
 21
9047.8886055773
 31
0.0
  0
LINE
  5
227
330
1F
100
AcDbEntity
  8
0
  6
Continuous
 62
     7
370
    25
100
AcDbLine
 10
-7198.9739996436
 20
9047.8886055773
 30
0.0
 11
-7200.8547426436
 21
9049.1537795773
 31
0.0
  0
LINE
  5
228
330
1F
100
AcDbEntity
  8
0
  6
Continuous
 62
     7
370
    25
100
AcDbLine
 10
-7200.8547426436
 20
9049.1537795773
 30
0.0
 11
-7201.3421686436
 21
9050.7110535773
 31
0.0
  0
LINE
  5
229
330
1F
100
AcDbEntity
  8
0
  6
Continuous
 62
     7
370
    25
100
AcDbLine
 10
-7201.3421686436
 20
9050.7110535773
 30
0.0
 11
-7200.0759786436
 21
9051.2947455773
 31
0.0
  0
LINE
  5
22A
330
1F
100
AcDbEntity
  8
0
  6
Continuous
 62
     7
370
    25
100
AcDbLine
 10
-7200.0759786436
 20
9051.2947455773
 30
0.0
 11
-7200.9198936436
 21
9052.7553725773
 31
0.0
  0
LINE
  5
22B
330
1F
100
AcDbEntity
  8
0
  6
Continuous
 62
     7
370
    25
100
AcDbLine
 10
-7200.9198936436
 20
9052.7553725773
 30
0.0
 11
-7201.2771446436
 21
9054.2803885773
 31
0.0
  0
LINE
  5
22C
330
1F
100
AcDbEntity
  8
0
  6
Continuous
 62
     7
370
    25
100
AcDbLine
 10
-7201.2771446436
 20
9054.2803885773
 30
0.0
 11
-7201.2771446436
 21
9055.6436065773
 31
0.0
  0
LINE
  5
22D
330
1F
100
AcDbEntity
  8
0
  6
Continuous
 62
     7
370
    25
100
AcDbLine
 10
-7201.2771446436
 20
9055.6436065773
 30
0.0
 11
-7199.5573106436
 21
9056.2593025773
 31
0.0
  0
LINE
  5
22E
330
1F
100
AcDbEntity
  8
0
  6
Continuous
 62
     7
370
    25
100
AcDbLine
 10
-7199.5573106436
 20
9056.2593025773
 30
0.0
 11
-7199.7196166436
 21
9058.0445415773
 31
0.0
  0
LINE
  5
22F
330
1F
100
AcDbEntity
  8
0
  6
Continuous
 62
     7
370
    25
100
AcDbLine
 10
-7199.7196166436
 20
9058.0445415773
 30
0.0
 11
-7200.4986346436
 21
9058.2057045773
 31
0.0
  0
LINE
  5
230
330
1F
100
AcDbEntity
  8
0
  6
Continuous
 62
     7
370
    25
100
AcDbLine
 10
-7200.4986346436
 20
9058.2057045773
 30
0.0
 11
-7201.5366056436
 21
9057.8823625773
 31
0.0
  0
LINE
  5
231
330
1F
100
AcDbEntity
  8
0
  6
Continuous
 62
     7
370
    25
100
AcDbLine
 10
-7201.5366056436
 20
9057.8823625773
 30
0.0
 11
-7202.8020336436
 21
9058.2057045773
 31
0.0
  0
LINE
  5
232
330
1F
100
AcDbEntity
  8
0
  6
Continuous
 62
     7
370
    25
100
AcDbLine
 10
-7202.8020336436
 20
9058.2057045773
 30
0.0
 11
-7202.6402356436
 21
9058.8226705773
 31
0.0
  0
LINE
  5
233
330
1F
100
AcDbEntity
  8
0
  6
Continuous
 62
     7
370
    25
100
AcDbLine
 10
-7202.6402356436
 20
9058.8226705773
 30
0.0
 11
-7202.1202976436
 21
9059.7313555773
 31
0.0
  0
LINE
  5
234
330
1F
100
AcDbEntity
  8
0
  6
Continuous
 62
     7
370
    25
100
AcDbLine
 10
-7202.1202976436
 20
9059.7313555773
 30
0.0
 11
-7200.7578416436
 21
9059.9269355773
 31
0.0
  0
LINE
  5
235
330
1F
100
AcDbEntity
  8
0
  6
Continuous
 62
     7
370
    25
100
AcDbLine
 10
-7200.7578416436
 20
9059.9269355773
 30
0.0
 11
-7200.9198936436
 21
9062.1327985773
 31
0.0
  0
LINE
  5
236
330
1F
100
AcDbEntity
  8
0
  6
Continuous
 62
     7
370
    25
100
AcDbLine
 10
-7200.9198936436
 20
9062.1327985773
 30
0.0
 11
-7199.5573106436
 21
9061.5485985773
 31
0.0
  0
LINE
  5
237
330
1F
100
AcDbEntity
  8
0
  6
Continuous
 62
     7
370
    25
100
AcDbLine
 10
-7199.5573106436
 20
9061.5485985773
 30
0.0
 11
-7198.9739996436
 21
9062.1327985773
 31
0.0
  0
LINE
  5
238
330
1F
100
AcDbEntity
  8
0
  6
Continuous
 62
     7
370
    25
100
AcDbLine
 10
-7198.9739996436
 20
9062.1327985773
 30
0.0
 11
-7199.9794586436
 21
9063.6570525773
 31
0.0
  0
LINE
  5
239
330
1F
100
AcDbEntity
  8
0
  6
Continuous
 62
     7
370
    25
100
AcDbLine
 10
-7199.9794586436
 20
9063.6570525773
 30
0.0
 11
-7200.1735146436
 21
9065.2148345773
 31
0.0
  0
LINE
  5
23A
330
1F
100
AcDbEntity
  8
0
  6
Continuous
 62
     7
370
    25
100
AcDbLine
 10
-7200.1735146436
 20
9065.2148345773
 30
0.0
 11
-7199.8171526436
 21
9066.2209285773
 31
0.0
  0
LINE
  5
23B
330
1F
100
AcDbEntity
  8
0
  6
Continuous
 62
     7
370
    25
100
AcDbLine
 10
-7199.8171526436
 20
9066.2209285773
 30
0.0
 11
-7199.5573106436
 21
9068.0377905773
 31
0.0
  0
LINE
  5
23C
330
1F
100
AcDbEntity
  8
0
  6
Continuous
 62
     7
370
    25
100
AcDbLine
 10
-7199.5573106436
 20
9068.0377905773
 30
0.0
 11
-7199.7196166436
 21
9068.7192725773
 31
0.0
  0
LINE
  5
23D
330
1F
100
AcDbEntity
  8
0
  6
Continuous
 62
     7
370
    25
100
AcDbLine
 10
-7199.7196166436
 20
9068.7192725773
 30
0.0
 11
-7201.4403396436
 21
9069.3041075773
 31
0.0
  0
LINE
  5
23E
330
1F
100
AcDbEntity
  8
0
  6
Continuous
 62
     7
370
    25
100
AcDbLine
 10
-7201.4403396436
 20
9069.3041075773
 30
0.0
 11
-7201.0175566436
 21
9070.5034955773
 31
0.0
  0
LINE
  5
23F
330
1F
100
AcDbEntity
  8
0
  6
Continuous
 62
     7
370
    25
100
AcDbLine
 10
-7201.0175566436
 20
9070.5034955773
 30
0.0
 11
-7199.3944966436
 21
9070.6660555773
 31
0.0
  0
LINE
  5
240
330
1F
100
AcDbEntity
  8
0
  6
Continuous
 62
     7
370
    25
100
AcDbLine
 10
-7199.3944966436
 20
9070.6660555773
 30
0.0
 11
-7196.5072786436
 21
9069.5625525773
 31
0.0
  0
LINE
  5
241
330
1F
100
AcDbEntity
  8
0
  6
Continuous
 62
     7
370
    25
100
AcDbLine
 10
-7196.5072786436
 20
9069.5625525773
 30
0.0
 11
-7195.3067476436
 21
9070.5034955773
 31
0.0
  0
LINE
  5
242
330
1F
100
AcDbEntity
  8
0
  6
Continuous
 62
     7
370
    25
100
AcDbLine
 10
-7195.3067476436
 20
9070.5034955773
 30
0.0
 11
-7195.3713906436
 21
9072.4509135773
 31
0.0
  0
LINE
  5
243
330
1F
100
AcDbEntity
  8
0
  6
Continuous
 62
     7
370
    25
100
AcDbLine
 10
-7195.3713906436
 20
9072.4509135773
 30
0.0
 11
-7195.2098466436
 21
9073.8127345773
 31
0.0
  0
LINE
  5
244
330
1F
100
AcDbEntity
  8
0
  6
Continuous
 62
     7
370
    25
100
AcDbLine
 10
-7195.2098466436
 20
9073.8127345773
 30
0.0
 11
-7194.2689036436
 21
9072.7106285773
 31
0.0
  0
LINE
  5
245
330
1F
100
AcDbEntity
  8
0
  6
Continuous
 62
     7
370
    25
100
AcDbLine
 10
-7194.2689036436
 20
9072.7106285773
 30
0.0
 11
-7192.4837916436
 21
9072.9694545773
 31
0.0
  0
LINE
  5
246
330
1F
100
AcDbEntity
  8
0
  6
Continuous
 62
     7
370
    25
100
AcDbLine
 10
-7192.4837916436
 20
9072.9694545773
 30
0.0
 11
-7193.4251156436
 21
9074.6891615773
 31
0.0
  0
LINE
  5
247
330
1F
100
AcDbEntity
  8
0
  6
Continuous
 62
     7
370
    25
100
AcDbLine
 10
-7193.4251156436
 20
9074.6891615773
 30
0.0
 11
-7192.2249656436
 21
9075.5326955773
 31
0.0
  0
LINE
  5
248
330
1F
100
AcDbEntity
  8
0
  6
Continuous
 62
     7
370
    25
100
AcDbLine
 10
-7192.2249656436
 20
9075.5326955773
 30
0.0
 11
-7190.0180866436
 21
9075.0141545773
 31
0.0
  0
LINE
  5
249
330
1F
100
AcDbEntity
  8
0
  6
Continuous
 62
     7
370
    25
100
AcDbLine
 10
-7190.0180866436
 20
9075.0141545773
 30
0.0
 11
-7187.4543376436
 21
9075.8893115773
 31
0.0
  0
LINE
  5
24A
330
1F
100
AcDbEntity
  8
0
  6
Continuous
 62
     7
370
    25
100
AcDbLine
 10
-7187.4543376436
 20
9075.8893115773
 30
0.0
 11
-7186.1569056436
 21
9076.0526335773
 31
0.0
  0
LINE
  5
24B
330
1F
100
AcDbEntity
  8
0
  6
Continuous
 62
     7
370
    25
100
AcDbLine
 10
-7186.1569056436
 20
9076.0526335773
 30
0.0
 11
-7185.7348846436
 21
9077.4150895773
 31
0.0
  0
LINE
  5
24C
330
1F
100
AcDbEntity
  8
0
  6
Continuous
 62
     7
370
    25
100
AcDbLine
 10
-7185.7348846436
 20
9077.4150895773
 30
0.0
 11
-7184.3726826436
 21
9076.7979965773
 31
0.0
  0
LINE
  5
24D
330
1F
100
AcDbEntity
  8
0
  6
Continuous
 62
     7
370
    25
100
AcDbLine
 10
-7184.3726826436
 20
9076.7979965773
 30
0.0
 11
-7183.1725326436
 21
9076.7979965773
 31
0.0
  0
LINE
  5
24E
330
1F
100
AcDbEntity
  8
0
  6
Continuous
 62
     7
370
    25
100
AcDbLine
 10
-7183.1725326436
 20
9076.7979965773
 30
0.0
 11
-7182.2305736436
 21
9074.4945975773
 31
0.0
  0
LINE
  5
24F
330
1F
100
AcDbEntity
  8
0
  6
Continuous
 62
     7
370
    25
100
AcDbLine
 10
-7182.2305736436
 20
9074.4945975773
 30
0.0
 11
-7180.6084026436
 21
9074.2675215773
 31
0.0
  0
LINE
  5
250
330
1F
100
AcDbEntity
  8
0
  6
Continuous
 62
     7
370
    25
100
AcDbLine
 10
-7180.6084026436
 20
9074.2675215773
 30
0.0
 11
-7180.1868896436
 21
9071.9639955773
 31
0.0
  0
LINE
  5
251
330
1F
100
AcDbEntity
  8
0
  6
Continuous
 62
     7
370
    25
100
AcDbLine
 10
-7180.1868896436
 20
9071.9639955773
 30
0.0
 11
-7179.4402566436
 21
9072.0278765773
 31
0.0
  0
LINE
  5
252
330
1F
100
AcDbEntity
  8
0
  6
Continuous
 62
     7
370
    25
100
AcDbLine
 10
-7179.4402566436
 20
9072.0278765773
 30
0.0
 11
-7179.2456926436
 21
9074.4294465773
 31
0.0
  0
LINE
  5
253
330
1F
100
AcDbEntity
  8
0
  6
Continuous
 62
     7
370
    25
100
AcDbLine
 10
-7179.2456926436
 20
9074.4294465773
 30
0.0
 11
-7178.1429516436
 21
9074.7543125773
 31
0.0
  0
LINE
  5
254
330
1F
100
AcDbEntity
  8
0
  6
Continuous
 62
     7
370
    25
100
AcDbLine
 10
-7178.1429516436
 20
9074.7543125773
 30
0.0
 11
-7177.0390676436
 21
9078.5177035773
 31
0.0
  0
LINE
  5
255
330
1F
100
AcDbEntity
  8
0
  6
Continuous
 62
     7
370
    25
100
AcDbLine
 10
-7177.0390676436
 20
9078.5177035773
 30
0.0
 11
-7177.1366036436
 21
9080.2376645773
 31
0.0
  0
LINE
  5
256
330
1F
100
AcDbEntity
  8
0
  6
Continuous
 62
     7
370
    25
100
AcDbLine
 10
-7177.1366036436
 20
9080.2376645773
 30
0.0
 11
-7176.1961686436
 21
9081.6657795773
 31
0.0
  0
LINE
  5
257
330
1F
100
AcDbEntity
  8
0
  6
Continuous
 62
     7
370
    25
100
AcDbLine
 10
-7176.1961686436
 20
9081.6657795773
 30
0.0
 11
-7174.6378786436
 21
9081.6007555773
 31
0.0
  0
LINE
  5
258
330
1F
100
AcDbEntity
  8
0
  6
Continuous
 62
     7
370
    25
100
AcDbLine
 10
-7174.6378786436
 20
9081.6007555773
 30
0.0
 11
-7172.2693286436
 21
9081.1783535773
 31
0.0
  0
LINE
  5
259
330
1F
100
AcDbEntity
  8
0
  6
Continuous
 62
     7
370
    25
100
AcDbLine
 10
-7172.2693286436
 20
9081.1783535773
 30
0.0
 11
-7171.8151766436
 21
9082.5414445773
 31
0.0
  0
LINE
  5
25A
330
1F
100
AcDbEntity
  8
0
  6
Continuous
 62
     7
370
    25
100
AcDbLine
 10
-7171.8151766436
 20
9082.5414445773
 30
0.0
 11
-7173.6978246436
 21
9083.7100985773
 31
0.0
  0
LINE
  5
25B
330
1F
100
AcDbEntity
  8
0
  6
Continuous
 62
     7
370
    25
100
AcDbLine
 10
-7173.6978246436
 20
9083.7100985773
 30
0.0
 11
-7172.8536556436
 21
9086.2730855773
 31
0.0
  0
LINE
  5
25C
330
1F
100
AcDbEntity
  8
0
  6
Continuous
 62
     7
370
    25
100
AcDbLine
 10
-7172.8536556436
 20
9086.2730855773
 30
0.0
 11
-7173.3728316436
 21
9087.2137745773
 31
0.0
  0
LINE
  5
25D
330
1F
100
AcDbEntity
  8
0
  6
Continuous
 62
     7
370
    25
100
AcDbLine
 10
-7173.3728316436
 20
9087.2137745773
 30
0.0
 11
-7170.7121816436
 21
9088.1554795773
 31
0.0
  0
LINE
  5
25E
330
1F
100
AcDbEntity
  8
0
  6
Continuous
 62
     7
370
    25
100
AcDbLine
 10
-7170.7121816436
 20
9088.1554795773
 30
0.0
 11
-7170.6467766436
 21
9089.5179355773
 31
0.0
  0
LINE
  5
25F
330
1F
100
AcDbEntity
  8
0
  6
Continuous
 62
     7
370
    25
100
AcDbLine
 10
-7170.6467766436
 20
9089.5179355773
 30
0.0
 11
-7169.6085516436
 21
9089.7770155773
 31
0.0
  0
LINE
  5
260
330
1F
100
AcDbEntity
  8
0
  6
Continuous
 62
     7
370
    25
100
AcDbLine
 10
-7169.6085516436
 20
9089.7770155773
 30
0.0
 11
-7169.7713656436
 21
9092.1779505773
 31
0.0
  0
LINE
  5
261
330
1F
100
AcDbEntity
  8
0
  6
Continuous
 62
     7
370
    25
100
AcDbLine
 10
-7169.7713656436
 20
9092.1779505773
 30
0.0
 11
-7171.4911996436
 21
9093.3787355773
 31
0.0
  0
LINE
  5
262
330
1F
100
AcDbEntity
  8
0
  6
Continuous
 62
     7
370
    25
100
AcDbLine
 10
-7171.4911996436
 20
9093.3787355773
 30
0.0
 11
-7173.6978246436
 21
9093.1840445773
 31
0.0
  0
LINE
  5
263
330
1F
100
AcDbEntity
  8
0
  6
Continuous
 62
     7
370
    25
100
AcDbLine
 10
-7173.6978246436
 20
9093.1840445773
 30
0.0
 11
-7173.6324196436
 21
9094.6440365773
 31
0.0
  0
LINE
  5
264
330
1F
100
AcDbEntity
  8
0
  6
Continuous
 62
     7
370
    25
100
AcDbLine
 10
-7173.6324196436
 20
9094.6440365773
 30
0.0
 11
-7174.0541866436
 21
9095.4233085773
 31
0.0
  0
LINE
  5
265
330
1F
100
AcDbEntity
  8
0
  6
Continuous
 62
     7
370
    25
100
AcDbLine
 10
-7174.0541866436
 20
9095.4233085773
 30
0.0
 11
-7173.2754226436
 21
9095.9417225773
 31
0.0
  0
LINE
  5
266
330
1F
100
AcDbEntity
  8
0
  6
Continuous
 62
     7
370
    25
100
AcDbLine
 10
-7173.2754226436
 20
9095.9417225773
 30
0.0
 11
-7171.3291476436
 21
9095.8441865773
 31
0.0
  0
LINE
  5
267
330
1F
100
AcDbEntity
  8
0
  6
Continuous
 62
     7
370
    25
100
AcDbLine
 10
-7171.3291476436
 20
9095.8441865773
 30
0.0
 11
-7170.6467766436
 21
9097.1101225773
 31
0.0
  0
LINE
  5
268
330
1F
100
AcDbEntity
  8
0
  6
Continuous
 62
     7
370
    25
100
AcDbLine
 10
-7170.6467766436
 20
9097.1101225773
 30
0.0
 11
-7171.1339486436
 21
9099.1549495773
 31
0.0
  0
LINE
  5
269
330
1F
100
AcDbEntity
  8
0
  6
Continuous
 62
     7
370
    25
100
AcDbLine
 10
-7171.1339486436
 20
9099.1549495773
 30
0.0
 11
-7172.3340986436
 21
9100.3550995773
 31
0.0
  0
LINE
  5
26A
330
1F
100
AcDbEntity
  8
0
  6
Continuous
 62
     7
370
    25
100
AcDbLine
 10
-7172.3340986436
 20
9100.3550995773
 30
0.0
 11
-7173.6324196436
 21
9100.7114615773
 31
0.0
  0
LINE
  5
26B
330
1F
100
AcDbEntity
  8
0
  6
Continuous
 62
     7
370
    25
100
AcDbLine
 10
-7173.6324196436
 20
9100.7114615773
 30
0.0
 11
-7173.6978246436
 21
9102.4968275773
 31
0.0
  0
LINE
  5
26C
330
1F
100
AcDbEntity
  8
0
  6
Continuous
 62
     7
370
    25
100
AcDbLine
 10
-7173.6978246436
 20
9102.4968275773
 30
0.0
 11
-7175.5781866436
 21
9104.9622785773
 31
0.0
  0
LINE
  5
26D
330
1F
100
AcDbEntity
  8
0
  6
Continuous
 62
     7
370
    25
100
AcDbLine
 10
-7175.5781866436
 20
9104.9622785773
 30
0.0
 11
-7176.0012236436
 21
9106.4227785773
 31
0.0
  0
LINE
  5
26E
330
1F
100
AcDbEntity
  8
0
  6
Continuous
 62
     7
370
    25
100
AcDbLine
 10
-7176.0012236436
 20
9106.4227785773
 30
0.0
 11
-7176.6829596436
 21
9107.2003995773
 31
0.0
  0
LINE
  5
26F
330
1F
100
AcDbEntity
  8
0
  6
Continuous
 62
     7
370
    25
100
AcDbLine
 10
-7176.6829596436
 20
9107.2003995773
 30
0.0
 11
-7175.7422706436
 21
9109.1483255773
 31
0.0
  0
LINE
  5
270
330
1F
100
AcDbEntity
  8
0
  6
Continuous
 62
     7
370
    25
100
AcDbLine
 10
-7175.7422706436
 20
9109.1483255773
 30
0.0
 11
-7176.4549946436
 21
9109.3106315773
 31
0.0
  0
LINE
  5
271
330
1F
100
AcDbEntity
  8
0
  6
Continuous
 62
     7
370
    25
100
AcDbLine
 10
-7176.4549946436
 20
9109.3106315773
 30
0.0
 11
-7177.5581166436
 21
9108.4016925773
 31
0.0
  0
LINE
  5
272
330
1F
100
AcDbEntity
  8
0
  6
Continuous
 62
     7
370
    25
100
AcDbLine
 10
-7177.5581166436
 20
9108.4016925773
 30
0.0
 11
-7178.0454156436
 21
9108.7260505773
 31
0.0
  0
LINE
  5
273
330
1F
100
AcDbEntity
  8
0
  6
Continuous
 62
     7
370
    25
100
AcDbLine
 10
-7178.0454156436
 20
9108.7260505773
 30
0.0
 11
-7178.4024126436
 21
9109.5694575773
 31
0.0
  0
LINE
  5
274
330
1F
100
AcDbEntity
  8
0
  6
Continuous
 62
     7
370
    25
100
AcDbLine
 10
-7178.4024126436
 20
9109.5694575773
 30
0.0
 11
-7179.2456926436
 21
9109.5694575773
 31
0.0
  0
LINE
  5
275
330
1F
100
AcDbEntity
  8
0
  6
Continuous
 62
     7
370
    25
100
AcDbLine
 10
-7179.2456926436
 20
9109.5694575773
 30
0.0
 11
-7179.6677136436
 21
9108.7260505773
 31
0.0
  0
LINE
  5
276
330
1F
100
AcDbEntity
  8
0
  6
Continuous
 62
     7
370
    25
100
AcDbLine
 10
-7179.6677136436
 20
9108.7260505773
 30
0.0
 11
-7180.8036016436
 21
9109.9914785773
 31
0.0
  0
LINE
  5
277
330
1F
100
AcDbEntity
  8
0
  6
Continuous
 62
     7
370
    25
100
AcDbLine
 10
-7180.8036016436
 20
9109.9914785773
 30
0.0
 11
-7181.6463736436
 21
9109.9914785773
 31
0.0
  0
LINE
  5
278
330
1F
100
AcDbEntity
  8
0
  6
Continuous
 62
     7
370
    25
100
AcDbLine
 10
-7181.6463736436
 20
9109.9914785773
 30
0.0
 11
-7181.9712396436
 21
9111.1920095773
 31
0.0
  0
LINE
  5
279
330
1F
100
AcDbEntity
  8
0
  6
Continuous
 62
     7
370
    25
100
AcDbLine
 10
-7181.9712396436
 20
9111.1920095773
 30
0.0
 11
-7181.4845756436
 21
9112.2953855773
 31
0.0
  0
LINE
  5
27A
330
1F
100
AcDbEntity
  8
0
  6
Continuous
 62
     7
370
    25
100
AcDbLine
 10
-7181.4845756436
 20
9112.2953855773
 30
0.0
 11
-7181.9065966436
 21
9114.4371135773
 31
0.0
  0
LINE
  5
27B
330
1F
100
AcDbEntity
  8
0
  6
Continuous
 62
     7
370
    25
100
AcDbLine
 10
-7181.9065966436
 20
9114.4371135773
 30
0.0
 11
-7183.6908196436
 21
9114.6968285773
 31
0.0
  0
LINE
  5
27C
330
1F
100
AcDbEntity
  8
0
  6
Continuous
 62
     7
370
    25
100
AcDbLine
 10
-7183.6908196436
 20
9114.6968285773
 30
0.0
 11
-7183.8533796436
 21
9115.4747035773
 31
0.0
  0
LINE
  5
27D
330
1F
100
AcDbEntity
  8
0
  6
Continuous
 62
     7
370
    25
100
AcDbLine
 10
-7183.8533796436
 20
9115.4747035773
 30
0.0
 11
-7182.5878246436
 21
9115.5397275773
 31
0.0
  0
LINE
  5
27E
330
1F
100
AcDbEntity
  8
0
  6
Continuous
 62
     7
370
    25
100
AcDbLine
 10
-7182.5878246436
 20
9115.5397275773
 30
0.0
 11
-7183.3665886436
 21
9116.5788415773
 31
0.0
  0
LINE
  5
27F
330
1F
100
AcDbEntity
  8
0
  6
Continuous
 62
     7
370
    25
100
AcDbLine
 10
-7183.3665886436
 20
9116.5788415773
 30
0.0
 11
-7182.0689026436
 21
9117.6818365773
 31
0.0
  0
LINE
  5
280
330
1F
100
AcDbEntity
  8
0
  6
Continuous
 62
     7
370
    25
100
AcDbLine
 10
-7182.0689026436
 20
9117.6818365773
 30
0.0
 11
-7184.4704726436
 21
9120.6016935773
 31
0.0
  0
LINE
  5
281
330
1F
100
AcDbEntity
  8
0
  6
Continuous
 62
     7
370
    25
100
AcDbLine
 10
-7184.4704726436
 20
9120.6016935773
 30
0.0
 11
-7184.3726826436
 21
9121.3476915773
 31
0.0
  0
LINE
  5
282
330
1F
100
AcDbEntity
  8
0
  6
Continuous
 62
     7
370
    25
100
AcDbLine
 10
-7184.3726826436
 20
9121.3476915773
 30
0.0
 11
-7183.5934106436
 21
9121.5421285773
 31
0.0
  0
LINE
  5
283
330
1F
100
AcDbEntity
  8
0
  6
Continuous
 62
     7
370
    25
100
AcDbLine
 10
-7183.5934106436
 20
9121.5421285773
 30
0.0
 11
-7183.3665886436
 21
9120.8285155773
 31
0.0
  0
LINE
  5
284
330
1F
100
AcDbEntity
  8
0
  6
Continuous
 62
     7
370
    25
100
AcDbLine
 10
-7183.3665886436
 20
9120.8285155773
 30
0.0
 11
-7182.4250106436
 21
9121.5421285773
 31
0.0
  0
LINE
  5
285
330
1F
100
AcDbEntity
  8
0
  6
Continuous
 62
     7
370
    25
100
AcDbLine
 10
-7182.4250106436
 20
9121.5421285773
 30
0.0
 11
-7179.7651226436
 21
9125.9556325773
 31
0.0
  0
LINE
  5
286
330
1F
100
AcDbEntity
  8
0
  6
Continuous
 62
     7
370
    25
100
AcDbLine
 10
-7179.7651226436
 20
9125.9556325773
 30
0.0
 11
-7180.7059386436
 21
9126.4745545773
 31
0.0
  0
LINE
  5
287
330
1F
100
AcDbEntity
  8
0
  6
Continuous
 62
     7
370
    25
100
AcDbLine
 10
-7180.7059386436
 20
9126.4745545773
 30
0.0
 11
-7180.5429976436
 21
9127.6749585773
 31
0.0
  0
LINE
  5
288
330
1F
100
AcDbEntity
  8
0
  6
Continuous
 62
     7
370
    25
100
AcDbLine
 10
-7180.5429976436
 20
9127.6749585773
 30
0.0
 11
-7181.0628086436
 21
9128.4539765773
 31
0.0
  0
LINE
  5
289
330
1F
100
AcDbEntity
  8
0
  6
Continuous
 62
     7
370
    25
100
AcDbLine
 10
-7181.0628086436
 20
9128.4539765773
 30
0.0
 11
-7180.4458426436
 21
9129.2968755773
 31
0.0
  0
LINE
  5
28A
330
1F
100
AcDbEntity
  8
0
  6
Continuous
 62
     7
370
    25
100
AcDbLine
 10
-7180.4458426436
 20
9129.2968755773
 30
0.0
 11
-7180.5429976436
 21
9130.9194275773
 31
0.0
  0
LINE
  5
28B
330
1F
100
AcDbEntity
  8
0
  6
Continuous
 62
     7
370
    25
100
AcDbLine
 10
-7180.5429976436
 20
9130.9194275773
 30
0.0
 11
-7179.5056616436
 21
9131.7634695773
 31
0.0
  0
LINE
  5
28C
330
1F
100
AcDbEntity
  8
0
  6
Continuous
 62
     7
370
    25
100
AcDbLine
 10
-7179.5056616436
 20
9131.7634695773
 30
0.0
 11
-7178.9854696436
 21
9132.4450785773
 31
0.0
  0
LINE
  5
28D
330
1F
100
AcDbEntity
  8
0
  6
Continuous
 62
     7
370
    25
100
AcDbLine
 10
-7178.9854696436
 20
9132.4450785773
 30
0.0
 11
-7180.7059386436
 21
9133.2240965773
 31
0.0
  0
LINE
  5
28E
330
1F
100
AcDbEntity
  8
0
  6
Continuous
 62
     7
370
    25
100
AcDbLine
 10
-7180.7059386436
 20
9133.2240965773
 30
0.0
 11
-7182.1661846436
 21
9134.8460135773
 31
0.0
  0
LINE
  5
28F
330
1F
100
AcDbEntity
  8
0
  6
Continuous
 62
     7
370
    25
100
AcDbLine
 10
-7182.1661846436
 20
9134.8460135773
 30
0.0
 11
-7178.9854696436
 21
9134.2289205773
 31
0.0
  0
LINE
  5
290
330
1F
100
AcDbEntity
  8
0
  6
Continuous
 62
     7
370
    25
100
AcDbLine
 10
-7178.9854696436
 20
9134.2289205773
 30
0.0
 11
-7177.4617236436
 21
9133.9694595773
 31
0.0
  0
LINE
  5
291
330
1F
100
AcDbEntity
  8
0
  6
Continuous
 62
     7
370
    25
100
AcDbLine
 10
-7177.4617236436
 20
9133.9694595773
 30
0.0
 11
-7176.0012236436
 21
9135.0080655773
 31
0.0
  0
LINE
  5
292
330
1F
100
AcDbEntity
  8
0
  6
Continuous
 62
     7
370
    25
100
AcDbLine
 10
-7176.0012236436
 20
9135.0080655773
 30
0.0
 11
-7174.7361766436
 21
9133.1269415773
 31
0.0
  0
LINE
  5
293
330
1F
100
AcDbEntity
  8
0
  6
Continuous
 62
     7
370
    25
100
AcDbLine
 10
-7169.4462456436
 20
9133.1269415773
 30
0.0
 11
-7166.7861036436
 21
9131.9257755773
 31
0.0
  0
LINE
  5
294
330
1F
100
AcDbEntity
  8
0
  6
Continuous
 62
     7
370
    25
100
AcDbLine
 10
-7166.7861036436
 20
9131.9257755773
 30
0.0
 11
-7163.9964216436
 21
9130.4980415773
 31
0.0
  0
LINE
  5
295
330
1F
100
AcDbEntity
  8
0
  6
Continuous
 62
     7
370
    25
100
AcDbLine
 10
-7163.9964216436
 20
9130.4980415773
 30
0.0
 11
-7161.0754216436
 21
9130.2388345773
 31
0.0
  0
LINE
  5
296
330
1F
100
AcDbEntity
  8
0
  6
Continuous
 62
     7
370
    25
100
AcDbLine
 10
-7161.0754216436
 20
9130.2388345773
 30
0.0
 11
-7160.0697086436
 21
9129.9787385773
 31
0.0
  0
LINE
  5
297
330
1F
100
AcDbEntity
  8
0
  6
Continuous
 62
     7
370
    25
100
AcDbLine
 10
-7160.0697086436
 20
9129.9787385773
 30
0.0
 11
-7159.0317376436
 21
9130.6614905773
 31
0.0
  0
LINE
  5
298
330
1F
100
AcDbEntity
  8
0
  6
Continuous
 62
     7
370
    25
100
AcDbLine
 10
-7159.0317376436
 20
9130.6614905773
 30
0.0
 11
-7157.9278536436
 21
9128.7785885773
 31
0.0
  0
LINE
  5
299
330
1F
100
AcDbEntity
  8
0
  6
Continuous
 62
     7
370
    25
100
AcDbLine
 10
-7157.9278536436
 20
9128.7785885773
 30
0.0
 11
-7156.1438846436
 21
9127.6749585773
 31
0.0
  0
LINE
  5
29A
330
1F
100
AcDbEntity
  8
0
  6
Continuous
 62
     7
370
    25
100
AcDbLine
 10
-7156.1438846436
 20
9127.6749585773
 30
0.0
 11
-7155.6892246436
 21
9126.0534225773
 31
0.0
  0
LINE
  5
29B
330
1F
100
AcDbEntity
  8
0
  6
Continuous
 62
     7
370
    25
100
AcDbLine
 10
-7155.6892246436
 20
9126.0534225773
 30
0.0
 11
-7153.9038586436
 21
9126.3770185773
 31
0.0
  0
LINE
  5
29C
330
1F
100
AcDbEntity
  8
0
  6
Continuous
 62
     7
370
    25
100
AcDbLine
 10
-7153.9038586436
 20
9126.3770185773
 30
0.0
 11
-7152.0223536436
 21
9127.9346735773
 31
0.0
  0
LINE
  5
29D
330
1F
100
AcDbEntity
  8
0
  6
Continuous
 62
     7
370
    25
100
AcDbLine
 10
-7152.0223536436
 20
9127.9346735773
 30
0.0
 11
-7148.1939386436
 21
9126.5717095773
 31
0.0
  0
LINE
  5
29E
330
1F
100
AcDbEntity
  8
0
  6
Continuous
 62
     7
370
    25
100
AcDbLine
 10
-7148.1939386436
 20
9126.5717095773
 30
0.0
 11
-7147.8374496436
 21
9124.1698855773
 31
0.0
  0
LINE
  5
29F
330
1F
100
AcDbEntity
  8
0
  6
Continuous
 62
     7
370
    25
100
AcDbLine
 10
-7147.8374496436
 20
9124.1698855773
 30
0.0
 11
-7145.5334156436
 21
9124.2683105773
 31
0.0
  0
LINE
  5
2A0
330
1F
100
AcDbEntity
  8
0
  6
Continuous
 62
     7
370
    25
100
AcDbLine
 10
-7145.5334156436
 20
9124.2683105773
 30
0.0
 11
-7142.9051506436
 21
9122.3865515773
 31
0.0
  0
LINE
  5
2A1
330
1F
100
AcDbEntity
  8
0
  6
Continuous
 62
     7
370
    25
100
AcDbLine
 10
-7142.9051506436
 20
9122.3865515773
 30
0.0
 11
-7141.4457936436
 21
9123.3272405773
 31
0.0
  0
LINE
  5
2A2
330
1F
100
AcDbEntity
  8
0
  6
Continuous
 62
     7
370
    25
100
AcDbLine
 10
-7141.4457936436
 20
9123.3272405773
 30
0.0
 11
-7135.5724246436
 21
9123.7492615773
 31
0.0
  0
LINE
  5
2A3
330
1F
100
AcDbEntity
  8
0
  6
Continuous
 62
     7
370
    25
100
AcDbLine
 10
-7135.5724246436
 20
9123.7492615773
 30
0.0
 11
-7135.2155546436
 21
9118.6227795773
 31
0.0
  0
LINE
  5
2A4
330
1F
100
AcDbEntity
  8
0
  6
Continuous
 62
     7
370
    25
100
AcDbLine
 10
-7135.2155546436
 20
9118.6227795773
 30
0.0
 11
-7133.6897766436
 21
9118.0385795773
 31
0.0
  0
LINE
  5
2A5
330
1F
100
AcDbEntity
  8
0
  6
Continuous
 62
     7
370
    25
100
AcDbLine
 10
-7133.6897766436
 20
9118.0385795773
 30
0.0
 11
-7133.6897766436
 21
9115.5397275773
 31
0.0
  0
LINE
  5
2A6
330
1F
100
AcDbEntity
  8
0
  6
Continuous
 62
     7
370
    25
100
AcDbLine
 10
-7133.6897766436
 20
9115.5397275773
 30
0.0
 11
-7130.1866086436
 21
9115.7991885773
 31
0.0
  0
LINE
  5
2A7
330
1F
100
AcDbEntity
  8
0
  6
Continuous
 62
     7
370
    25
100
AcDbLine
 10
-7130.1866086436
 20
9115.7991885773
 30
0.0
 11
-7128.0443726436
 21
9115.6372635773
 31
0.0
  0
LINE
  5
2A8
330
1F
100
AcDbEntity
  8
0
  6
Continuous
 62
     7
370
    25
100
AcDbLine
 10
-7128.0443726436
 20
9115.6372635773
 30
0.0
 11
-7127.0386596436
 21
9114.9557815773
 31
0.0
  0
LINE
  5
2A9
330
1F
100
AcDbEntity
  8
0
  6
Continuous
 62
     7
370
    25
100
AcDbLine
 10
-7127.0386596436
 20
9114.9557815773
 30
0.0
 11
-7125.7412276436
 21
9116.4816865773
 31
0.0
  0
LINE
  5
2AA
330
1F
100
AcDbEntity
  8
0
  6
Continuous
 62
     7
370
    25
100
AcDbLine
 10
-7125.7412276436
 20
9116.4816865773
 30
0.0
 11
-7124.2159576436
 21
9115.7991885773
 31
0.0
  0
LINE
  5
2AB
330
1F
100
AcDbEntity
  8
0
  6
Continuous
 62
     7
370
    25
100
AcDbLine
 10
-7124.2159576436
 20
9115.7991885773
 30
0.0
 11
-7121.6529706436
 21
9114.3717085773
 31
0.0
  0
LINE
  5
2AC
330
1F
100
AcDbEntity
  8
0
  6
Continuous
 62
     7
370
    25
100
AcDbLine
 10
-7121.6529706436
 20
9114.3717085773
 30
0.0
 11
-7119.8673506436
 21
9114.0152195773
 31
0.0
  0
LINE
  5
2AD
330
1F
100
AcDbEntity
  8
0
  6
Continuous
 62
     7
370
    25
100
AcDbLine
 10
-7119.8673506436
 20
9114.0152195773
 30
0.0
 11
-7121.5554346436
 21
9111.5487525773
 31
0.0
  0
LINE
  5
2AE
330
1F
100
AcDbEntity
  8
0
  6
Continuous
 62
     7
370
    25
100
AcDbLine
 10
-7121.5554346436
 20
9111.5487525773
 30
0.0
 11
-7121.6529706436
 21
9109.7650375773
 31
0.0
  0
LINE
  5
2AF
330
1F
100
AcDbEntity
  8
0
  6
Continuous
 62
     7
370
    25
100
AcDbLine
 10
-7121.6529706436
 20
9109.7650375773
 30
0.0
 11
-7123.7941906436
 21
9109.7650375773
 31
0.0
  0
LINE
  5
2B0
330
1F
100
AcDbEntity
  8
0
  6
Continuous
 62
     7
370
    25
100
AcDbLine
 10
-7123.7941906436
 20
9109.7650375773
 30
0.0
 11
-7124.8000306436
 21
9108.9851305773
 31
0.0
  0
LINE
  5
2B1
330
1F
100
AcDbEntity
  8
0
  6
Continuous
 62
     7
370
    25
100
AcDbLine
 10
-7124.8000306436
 20
9108.9851305773
 30
0.0
 11
-7124.7351336436
 21
9106.5200605773
 31
0.0
  0
LINE
  5
2B2
330
1F
100
AcDbEntity
  8
0
  6
Continuous
 62
     7
370
    25
100
AcDbLine
 10
-7124.7351336436
 20
9106.5200605773
 30
0.0
 11
-7123.9564966436
 21
9106.3249885773
 31
0.0
  0
LINE
  5
2B3
330
1F
100
AcDbEntity
  8
0
  6
Continuous
 62
     7
370
    25
100
AcDbLine
 10
-7123.9564966436
 20
9106.3249885773
 30
0.0
 11
-7124.0530166436
 21
9105.2217395773
 31
0.0
  0
LINE
  5
2B4
330
1F
100
AcDbEntity
  8
0
  6
Continuous
 62
     7
370
    25
100
AcDbLine
 10
-7124.0530166436
 20
9105.2217395773
 30
0.0
 11
-7125.6758226436
 21
9105.9996145773
 31
0.0
  0
LINE
  5
2B5
330
1F
100
AcDbEntity
  8
0
  6
Continuous
 62
     7
370
    25
100
AcDbLine
 10
-7125.6758226436
 20
9105.9996145773
 30
0.0
 11
-7126.4224556436
 21
9106.8445455773
 31
0.0
  0
LINE
  5
2B6
330
1F
100
AcDbEntity
  8
0
  6
Continuous
 62
     7
370
    25
100
AcDbLine
 10
-7126.4224556436
 20
9106.8445455773
 30
0.0
 11
-7126.6168926436
 21
9107.5250115773
 31
0.0
  0
LINE
  5
2B7
330
1F
100
AcDbEntity
  8
0
  6
Continuous
 62
     7
370
    25
100
AcDbLine
 10
-7126.6168926436
 20
9107.5250115773
 30
0.0
 11
-7127.2016006436
 21
9107.6233095773
 31
0.0
  0
LINE
  5
2B8
330
1F
100
AcDbEntity
  8
0
  6
Continuous
 62
     7
370
    25
100
AcDbLine
 10
-7127.2016006436
 20
9107.6233095773
 30
0.0
 11
-7127.7849116436
 21
9106.2602185773
 31
0.0
  0
LINE
  5
2B9
330
1F
100
AcDbEntity
  8
0
  6
Continuous
 62
     7
370
    25
100
AcDbLine
 10
-7127.7849116436
 20
9106.2602185773
 30
0.0
 11
-7127.3635256436
 21
9103.7614935773
 31
0.0
  0
LINE
  5
2BA
330
1F
100
AcDbEntity
  8
0
  6
Continuous
 62
     7
370
    25
100
AcDbLine
 10
-7127.3635256436
 20
9103.7614935773
 30
0.0
 11
-7126.7794526436
 21
9103.3403615773
 31
0.0
  0
LINE
  5
2BB
330
1F
100
AcDbEntity
  8
0
  6
Continuous
 62
     7
370
    25
100
AcDbLine
 10
-7126.7794526436
 20
9103.3403615773
 30
0.0
 11
-7127.2981206436
 21
9101.7178095773
 31
0.0
  0
LINE
  5
2BC
330
1F
100
AcDbEntity
  8
0
  6
Continuous
 62
     7
370
    25
100
AcDbLine
 10
-7127.2981206436
 20
9101.7178095773
 30
0.0
 11
-7129.5046186436
 21
9100.9714305773
 31
0.0
  0
LINE
  5
2BD
330
1F
100
AcDbEntity
  8
0
  6
Continuous
 62
     7
370
    25
100
AcDbLine
 10
-7129.5046186436
 20
9100.9714305773
 30
0.0
 11
-7128.6608306436
 21
9097.3698375773
 31
0.0
  0
LINE
  5
2BE
330
1F
100
AcDbEntity
  8
0
  6
Continuous
 62
     7
370
    25
100
AcDbLine
 10
-7128.6608306436
 20
9097.3698375773
 30
0.0
 11
-7130.7060386436
 21
9095.8441865773
 31
0.0
  0
LINE
  5
2BF
330
1F
100
AcDbEntity
  8
0
  6
Continuous
 62
     7
370
    25
100
AcDbLine
 10
-7130.7060386436
 20
9095.8441865773
 30
0.0
 11
-7132.5876706436
 21
9093.3787355773
 31
0.0
  0
ENDSEC
  0
SECTION
  2
OBJECTS
  0
DICTIONARY
  5
C
330
0
100
AcDbDictionary
281
     1
  3
ACAD_GROUP
350
D
  3
ACAD_LAYOUT
350
1A
  3
ACAD_MLINESTYLE
350
17
  3
ACAD_PLOTSETTINGS
350
19
  3
ACAD_PLOTSTYLENAME
350
E
  3
ACAD_SCALELIST
350
47
  0
DICTIONARY
  5
D
102
{ACAD_REACTORS
330
C
102
}
330
C
100
AcDbDictionary
281
     1
  0
DICTIONARY
  5
1A
102
{ACAD_REACTORS
330
C
102
}
330
C
100
AcDbDictionary
281
     1
  3
Layout1
350
1E
  3
Layout2
350
26
  3
Model
350
22
  0
DICTIONARY
  5
17
102
{ACAD_REACTORS
330
C
102
}
330
C
100
AcDbDictionary
281
     1
  3
Standard
350
18
  0
DICTIONARY
  5
19
102
{ACAD_REACTORS
330
C
102
}
330
C
100
AcDbDictionary
281
     1
  0
ACDBDICTIONARYWDFLT
  5
E
102
{ACAD_REACTORS
330
C
102
}
330
C
100
AcDbDictionary
281
     1
  3
Normal
350
F
100
AcDbDictionaryWithDefault
340
F
  0
DICTIONARY
  5
47
102
{ACAD_REACTORS
330
C
102
}
330
C
100
AcDbDictionary
281
     1
  3
A0
350
48
  3
A1
350
49
  3
A2
350
4A
  3
A3
350
4B
  3
A4
350
4C
  3
A5
350
4D
  3
A6
350
4E
  3
A7
350
4F
  3
A8
350
50
  3
A9
350
51
  3
B0
350
52
  3
B1
350
53
  3
B2
350
54
  3
B3
350
55
  3
B4
350
56
  3
B5
350
57
  3
B6
350
58
  3
B7
350
59
  3
B8
350
5A
  3
B9
350
5B
  3
C0
350
5C
  3
C1
350
5D
  3
C2
350
5E
  3
C3
350
5F
  3
C4
350
60
  3
C5
350
61
  3
C6
350
62
  3
C7
350
63
  3
C8
350
64
  3
C9
350
65
  3
D0
350
66
  3
D1
350
67
  3
D2
350
68
  0
LAYOUT
  5
1E
102
{ACAD_REACTORS
330
1A
102
}
330
1A
100
AcDbPlotSettings
  1

  2
none_device
  4

  6

 40
0.0
 41
0.0
 42
0.0
 43
0.0
 44
0.0
 45
0.0
 46
0.0
 47
0.0
 48
0.0
 49
0.0
140
0.0
141
0.0
142
1.0
143
1.0
 70
   688
 72
     1
 73
     0
 74
     5
  7

 75
    16
147
1.0
148
0.0
149
0.0
100
AcDbLayout
  1
Layout1
 70
     1
 71
     1
 10
0.0
 20
0.0
 11
420.0
 21
297.0
 12
0.0
 22
0.0
 32
0.0
 14
1.0000000000E+20
 24
1.0000000000E+20
 34
1.0000000000E+20
 15
-1.0000000000E+20
 25
-1.0000000000E+20
 35
-1.0000000000E+20
146
0.0
 13
0.0
 23
0.0
 33
0.0
 16
1.0
 26
0.0
 36
0.0
 17
0.0
 27
1.0
 37
0.0
 76
     0
330
1B
  0
LAYOUT
  5
26
102
{ACAD_REACTORS
330
1A
102
}
330
1A
100
AcDbPlotSettings
  1

  2
none_device
  4

  6

 40
0.0
 41
0.0
 42
0.0
 43
0.0
 44
0.0
 45
0.0
 46
0.0
 47
0.0
 48
0.0
 49
0.0
140
0.0
141
0.0
142
1.0
143
1.0
 70
   688
 72
     1
 73
     0
 74
     5
  7

 75
    16
147
1.0
148
0.0
149
0.0
100
AcDbLayout
  1
Layout2
 70
     1
 71
     2
 10
0.0
 20
0.0
 11
0.0
 21
0.0
 12
0.0
 22
0.0
 32
0.0
 14
0.0
 24
0.0
 34
0.0
 15
0.0
 25
0.0
 35
0.0
146
0.0
 13
0.0
 23
0.0
 33
0.0
 16
1.0
 26
0.0
 36
0.0
 17
0.0
 27
1.0
 37
0.0
 76
     0
330
23
  0
LAYOUT
  5
22
102
{ACAD_REACTORS
330
1A
102
}
330
1A
100
AcDbPlotSettings
  1

  2
none_device
  4
ANSI_A_(11.00_x_8.50_Inches)
  6

 40
6.35
 41
19.05
 42
6.35000508
 43
19.05000254
 44
279.4
 45
215.9
 46
17151.6203813956
 47
-21512.7578556254
 48
0.0
 49
0.0
140
0.0
141
0.0
142
0.0935594654
143
1.0
 70
  1696
 72
     0
 73
     0
 74
     0
  7

 75
     0
147
0.0179189148
148
-1300.4909072572
149
0.0
100
AcDbLayout
  1
Model
 70
     1
 71
     0
 10
0.0
 20
0.0
 11
420.0
 21
297.0
 12
0.0
 22
0.0
 32
0.0
 14
-7202.8020336436
 24
9045.0652685773
 34
0.0
 15
-7119.8673506436
 25
9135.0080655773
 35
0.0
146
0.0
 13
0.0
 23
0.0
 33
0.0
 16
1.0
 26
0.0
 36
0.0
 17
0.0
 27
1.0
 37
0.0
 76
     0
330
1F
331
29
  0
MLINESTYLE
  5
18
102
{ACAD_REACTORS
330
17
102
}
330
17
100
AcDbMlineStyle
  2
Standard
 70
     0
  3

 62
   256
 51
90.0
 52
90.0
 71
     2
 49
0.5
 62
   256
  6
BYLAYER
 49
-0.5
 62
   256
  6
BYLAYER
  0
ACDBPLACEHOLDER
  5
F
102
{ACAD_REACTORS
330
E
102
}
330
E
  0
SCALE
  5
48
102
{ACAD_REACTORS
330
47
102
}
330
47
100
AcDbScale
 70
     0
300
1:1
140
1.0
141
1.0
290
     1
  0
SCALE
  5
49
102
{ACAD_REACTORS
330
47
102
}
330
47
100
AcDbScale
 70
     0
300
1:2
140
1.0
141
2.0
290
     0
  0
SCALE
  5
4A
102
{ACAD_REACTORS
330
47
102
}
330
47
100
AcDbScale
 70
     0
300
1:4
140
1.0
141
4.0
290
     0
  0
SCALE
  5
4B
102
{ACAD_REACTORS
330
47
102
}
330
47
100
AcDbScale
 70
     0
300
1:5
140
1.0
141
5.0
290
     0
  0
SCALE
  5
4C
102
{ACAD_REACTORS
330
47
102
}
330
47
100
AcDbScale
 70
     0
300
1:8
140
1.0
141
8.0
290
     0
  0
SCALE
  5
4D
102
{ACAD_REACTORS
330
47
102
}
330
47
100
AcDbScale
 70
     0
300
1:10
140
1.0
141
10.0
290
     0
  0
SCALE
  5
4E
102
{ACAD_REACTORS
330
47
102
}
330
47
100
AcDbScale
 70
     0
300
1:16
140
1.0
141
16.0
290
     0
  0
SCALE
  5
4F
102
{ACAD_REACTORS
330
47
102
}
330
47
100
AcDbScale
 70
     0
300
1:20
140
1.0
141
20.0
290
     0
  0
SCALE
  5
50
102
{ACAD_REACTORS
330
47
102
}
330
47
100
AcDbScale
 70
     0
300
1:30
140
1.0
141
30.0
290
     0
  0
SCALE
  5
51
102
{ACAD_REACTORS
330
47
102
}
330
47
100
AcDbScale
 70
     0
300
1:40
140
1.0
141
40.0
290
     0
  0
SCALE
  5
52
102
{ACAD_REACTORS
330
47
102
}
330
47
100
AcDbScale
 70
     0
300
1:50
140
1.0
141
50.0
290
     0
  0
SCALE
  5
53
102
{ACAD_REACTORS
330
47
102
}
330
47
100
AcDbScale
 70
     0
300
1:100
140
1.0
141
100.0
290
     0
  0
SCALE
  5
54
102
{ACAD_REACTORS
330
47
102
}
330
47
100
AcDbScale
 70
     0
300
2:1
140
2.0
141
1.0
290
     0
  0
SCALE
  5
55
102
{ACAD_REACTORS
330
47
102
}
330
47
100
AcDbScale
 70
     0
300
4:1
140
4.0
141
1.0
290
     0
  0
SCALE
  5
56
102
{ACAD_REACTORS
330
47
102
}
330
47
100
AcDbScale
 70
     0
300
8:1
140
8.0
141
1.0
290
     0
  0
SCALE
  5
57
102
{ACAD_REACTORS
330
47
102
}
330
47
100
AcDbScale
 70
     0
300
10:1
140
10.0
141
1.0
290
     0
  0
SCALE
  5
58
102
{ACAD_REACTORS
330
47
102
}
330
47
100
AcDbScale
 70
     0
300
100:1
140
100.0
141
1.0
290
     0
  0
SCALE
  5
59
102
{ACAD_REACTORS
330
47
102
}
330
47
100
AcDbScale
 70
     0
300
1/128" = 1'-0"
140
0.0078125
141
12.0
290
     0
  0
SCALE
  5
5A
102
{ACAD_REACTORS
330
47
102
}
330
47
100
AcDbScale
 70
     0
300
1/64" = 1'-0"
140
0.015625
141
12.0
290
     0
  0
SCALE
  5
5B
102
{ACAD_REACTORS
330
47
102
}
330
47
100
AcDbScale
 70
     0
300
1/32" = 1'-0"
140
0.03125
141
12.0
290
     0
  0
SCALE
  5
5C
102
{ACAD_REACTORS
330
47
102
}
330
47
100
AcDbScale
 70
     0
300
1/16" = 1'-0"
140
0.0625
141
12.0
290
     0
  0
SCALE
  5
5D
102
{ACAD_REACTORS
330
47
102
}
330
47
100
AcDbScale
 70
     0
300
3/32" = 1'-0"
140
0.09375
141
12.0
290
     0
  0
SCALE
  5
5E
102
{ACAD_REACTORS
330
47
102
}
330
47
100
AcDbScale
 70
     0
300
1/8" = 1'-0"
140
0.125
141
12.0
290
     0
  0
SCALE
  5
5F
102
{ACAD_REACTORS
330
47
102
}
330
47
100
AcDbScale
 70
     0
300
3/16" = 1'-0"
140
0.1875
141
12.0
290
     0
  0
SCALE
  5
60
102
{ACAD_REACTORS
330
47
102
}
330
47
100
AcDbScale
 70
     0
300
1/4" = 1'-0"
140
0.25
141
12.0
290
     0
  0
SCALE
  5
61
102
{ACAD_REACTORS
330
47
102
}
330
47
100
AcDbScale
 70
     0
300
3/8" = 1'-0"
140
0.375
141
12.0
290
     0
  0
SCALE
  5
62
102
{ACAD_REACTORS
330
47
102
}
330
47
100
AcDbScale
 70
     0
300
1/2" = 1'-0"
140
0.5
141
12.0
290
     0
  0
SCALE
  5
63
102
{ACAD_REACTORS
330
47
102
}
330
47
100
AcDbScale
 70
     0
300
3/4" = 1'-0"
140
0.75
141
12.0
290
     0
  0
SCALE
  5
64
102
{ACAD_REACTORS
330
47
102
}
330
47
100
AcDbScale
 70
     0
300
1" = 1'-0"
140
1.0
141
12.0
290
     0
  0
SCALE
  5
65
102
{ACAD_REACTORS
330
47
102
}
330
47
100
AcDbScale
 70
     0
300
1-1/2" = 1'-0"
140
1.5
141
12.0
290
     0
  0
SCALE
  5
66
102
{ACAD_REACTORS
330
47
102
}
330
47
100
AcDbScale
 70
     0
300
3" = 1'-0"
140
3.0
141
12.0
290
     0
  0
SCALE
  5
67
102
{ACAD_REACTORS
330
47
102
}
330
47
100
AcDbScale
 70
     0
300
6" = 1'-0"
140
6.0
141
12.0
290
     0
  0
SCALE
  5
68
102
{ACAD_REACTORS
330
47
102
}
330
47
100
AcDbScale
 70
     0
300
1'-0" = 1'-0"
140
12.0
141
12.0
290
     0
  0
ENDSEC
  0
EOF
