  0
SECTION
  2
HEADER
  9
$ACADVER
  1
AC1015
  9
$ACADMAINTVER
 70
     6
  9
$DWGCODEPAGE
  3
ANSI_1251
  9
$INSBASE
 10
0.0
 20
0.0
 30
0.0
  9
$EXTMIN
 10
-3771.2612975345
 20
6574.382689418
 30
0.0
  9
$EXTMAX
 10
-3721.5197155345
 20
6658.874900418
 30
0.0
  9
$LIMMIN
 10
0.0
 20
0.0
  9
$LIMMAX
 10
420.0
 20
297.0
  9
$ORTHOMODE
 70
     0
  9
$REGENMODE
 70
     1
  9
$FILLMODE
 70
     1
  9
$QTEXTMODE
 70
     0
  9
$MIRRTEXT
 70
     1
  9
$LTSCALE
 40
1.0
  9
$ATTMODE
 70
     1
  9
$TEXTSIZE
 40
4.0
  9
$TRACEWID
 40
1.0
  9
$TEXTSTYLE
  7
Standard
  9
$CLAYER
  8
0
  9
$CELTYPE
  6
ByLayer
  9
$CECOLOR
 62
   256
  9
$CELTSCALE
 40
1.0
  9
$DISPSILH
 70
     0
  9
$DIMSCALE
 40
1.0
  9
$DIMASZ
 40
6.0
  9
$DIMEXO
 40
1.0
  9
$DIMDLI
 40
3.75
  9
$DIMRND
 40
0.0
  9
$DIMDLE
 40
0.0
  9
$DIMEXE
 40
1.0
  9
$DIMTP
 40
0.0
  9
$DIMTM
 40
0.0
  9
$DIMTXT
 40
4.0
  9
$DIMCEN
 40
2.5
  9
$DIMTSZ
 40
0.0
  9
$DIMTOL
 70
     0
  9
$DIMLIM
 70
     0
  9
$DIMTIH
 70
     1
  9
$DIMTOH
 70
     1
  9
$DIMSE1
 70
     0
  9
$DIMSE2
 70
     0
  9
$DIMTAD
 70
     1
  9
$DIMZIN
 70
     0
  9
$DIMBLK
  1

  9
$DIMASO
 70
     1
  9
$DIMSHO
 70
     1
  9
$DIMPOST
  1

  9
$DIMAPOST
  1

  9
$DIMALT
 70
     0
  9
$DIMALTD
 70
     3
  9
$DIMALTF
 40
0.0393700787
  9
$DIMLFAC
 40
1.0
  9
$DIMTOFL
 70
     1
  9
$DIMTVP
 40
0.0
  9
$DIMTIX
 70
     0
  9
$DIMSOXD
 70
     0
  9
$DIMSAH
 70
     0
  9
$DIMBLK1
  1

  9
$DIMBLK2
  1

  9
$DIMSTYLE
  2
ISO-25
  9
$DIMCLRD
 70
     0
  9
$DIMCLRE
 70
     0
  9
$DIMCLRT
 70
     0
  9
$DIMTFAC
 40
1.0
  9
$DIMGAP
 40
3.0
  9
$DIMJUST
 70
     0
  9
$DIMSD1
 70
     0
  9
$DIMSD2
 70
     0
  9
$DIMTOLJ
 70
     0
  9
$DIMTZIN
 70
     0
  9
$DIMALTZ
 70
     0
  9
$DIMALTTZ
 70
     0
  9
$DIMUPT
 70
     0
  9
$DIMDEC
 70
     2
  9
$DIMTDEC
 70
     4
  9
$DIMALTU
 70
     2
  9
$DIMALTTD
 70
     3
  9
$DIMTXSTY
  7
Standard
  9
$DIMAUNIT
 70
     0
  9
$DIMADEC
 70
     2
  9
$DIMALTRND
 40
0.0
  9
$DIMAZIN
 70
     0
  9
$DIMDSEP
 70
    44
  9
$DIMATFIT
 70
     3
  9
$DIMFRAC
 70
     0
  9
$DIMLDRBLK
  1

  9
$DIMLUNIT
 70
     2
  9
$DIMLWD
 70
    -2
  9
$DIMLWE
 70
    -2
  9
$DIMTMOVE
 70
     0
  9
$LUNITS
 70
     2
  9
$LUPREC
 70
     2
  9
$SKETCHINC
 40
1.0
  9
$FILLETRAD
 40
10.0
  9
$AUNITS
 70
     1
  9
$AUPREC
 70
     2
  9
$MENU
  1
.
  9
$ELEVATION
 40
0.0
  9
$PELEVATION
 40
0.0
  9
$THICKNESS
 40
0.0
  9
$LIMCHECK
 70
     0
  9
$CHAMFERA
 40
0.0
  9
$CHAMFERB
 40
0.0
  9
$CHAMFERC
 40
0.0
  9
$CHAMFERD
 40
0.0
  9
$SKPOLY
 70
     0
  9
$TDCREATE
 40
2460367.441912211
  9
$TDUCREATE
 40
2460367.358578878
  9
$TDUPDATE
 40
2460367.441939792
  9
$TDUUPDATE
 40
2460367.358606458
  9
$TDINDWG
 40
0.0000000116
  9
$TDUSRTIMER
 40
0.0000000116
  9
$USRTIMER
 70
     1
  9
$ANGBASE
 50
0.0
  9
$ANGDIR
 70
     0
  9
$PDMODE
 70
     0
  9
$PDSIZE
 40
-1.0
  9
$PLINEWID
 40
0.0
  9
$SPLFRAME
 70
     0
  9
$SPLINETYPE
 70
     6
  9
$SPLINESEGS
 70
     8
  9
$HANDSEED
  5
2A6
  9
$SURFTAB1
 70
     6
  9
$SURFTAB2
 70
     6
  9
$SURFTYPE
 70
     6
  9
$SURFU
 70
     6
  9
$SURFV
 70
     6
  9
$UCSBASE
  2

  9
$UCSNAME
  2

  9
$UCSORG
 10
0.0
 20
0.0
 30
0.0
  9
$UCSXDIR
 10
1.0
 20
0.0
 30
0.0
  9
$UCSYDIR
 10
0.0
 20
1.0
 30
0.0
  9
$UCSORTHOREF
  2

  9
$UCSORTHOVIEW
 70
     0
  9
$UCSORGTOP
 10
0.0
 20
0.0
 30
0.0
  9
$UCSORGBOTTOM
 10
0.0
 20
0.0
 30
0.0
  9
$UCSORGLEFT
 10
0.0
 20
0.0
 30
0.0
  9
$UCSORGRIGHT
 10
0.0
 20
0.0
 30
0.0
  9
$UCSORGFRONT
 10
0.0
 20
0.0
 30
0.0
  9
$UCSORGBACK
 10
0.0
 20
0.0
 30
0.0
  9
$PUCSBASE
  2

  9
$PUCSNAME
  2

  9
$PUCSORG
 10
0.0
 20
0.0
 30
0.0
  9
$PUCSXDIR
 10
1.0
 20
0.0
 30
0.0
  9
$PUCSYDIR
 10
0.0
 20
1.0
 30
0.0
  9
$PUCSORTHOREF
  2

  9
$PUCSORTHOVIEW
 70
     0
  9
$PUCSORGTOP
 10
0.0
 20
0.0
 30
0.0
  9
$PUCSORGBOTTOM
 10
0.0
 20
0.0
 30
0.0
  9
$PUCSORGLEFT
 10
0.0
 20
0.0
 30
0.0
  9
$PUCSORGRIGHT
 10
0.0
 20
0.0
 30
0.0
  9
$PUCSORGFRONT
 10
0.0
 20
0.0
 30
0.0
  9
$PUCSORGBACK
 10
0.0
 20
0.0
 30
0.0
  9
$USERI1
 70
     0
  9
$USERI2
 70
     0
  9
$USERI3
 70
     0
  9
$USERI4
 70
     0
  9
$USERI5
 70
     0
  9
$USERR1
 40
0.0
  9
$USERR2
 40
0.0
  9
$USERR3
 40
0.0
  9
$USERR4
 40
0.0
  9
$USERR5
 40
0.0
  9
$WORLDVIEW
 70
     1
  9
$SHADEDGE
 70
     3
  9
$SHADEDIF
 70
    70
  9
$TILEMODE
 70
     1
  9
$MAXACTVP
 70
    64
  9
$PINSBASE
 10
0.0
 20
0.0
 30
0.0
  9
$PLIMCHECK
 70
     0
  9
$PEXTMIN
 10
1.0000000000E+20
 20
1.0000000000E+20
 30
1.0000000000E+20
  9
$PEXTMAX
 10
-1.0000000000E+20
 20
-1.0000000000E+20
 30
-1.0000000000E+20
  9
$PLIMMIN
 10
0.0
 20
0.0
  9
$PLIMMAX
 10
420.0
 20
297.0
  9
$UNITMODE
 70
     0
  9
$VISRETAIN
 70
     1
  9
$PLINEGEN
 70
     0
  9
$PSLTSCALE
 70
     1
  9
$TREEDEPTH
 70
  3020
  9
$CMLSTYLE
  2
Standard
  9
$CMLJUST
 70
     0
  9
$CMLSCALE
 40
20.0
  9
$PROXYGRAPHICS
 70
     1
  9
$MEASUREMENT
 70
     1
  9
$CELWEIGHT
370
    -1
  9
$ENDCAPS
280
     0
  9
$JOINSTYLE
280
     0
  9
$LWDISPLAY
290
     1
  9
$INSUNITS
 70
     4
  9
$HYPERLINKBASE
  1

  9
$STYLESHEET
  1

  9
$XEDIT
290
     1
  9
$CEPSNTYPE
380
     0
  9
$PSTYLEMODE
290
     1
  9
$FINGERPRINTGUID
  2
{33aaf481-d7f3-4f71-a42a-345b83fddeab}
  9
$VERSIONGUID
  2
{FAEB1C32-E019-11D5-929B-00C0DF256EC4}
  9
$EXTNAMES
290
     1
  9
$PSVPSCALE
 40
0.0
  9
$OLESTARTUP
290
     0
  0
ENDSEC
  0
SECTION
  2
CLASSES
  0
CLASS
  1
ACDBDICTIONARYWDFLT
  2
AcDbDictionaryWithDefault
  3
ObjectDBX Classes
 90
        0
280
     0
281
     0
  0
CLASS
  1
VISUALSTYLE
  2
AcDbVisualStyle
  3
ObjectDBX Classes
 90
     4095
280
     0
281
     0
  0
CLASS
  1
MATERIAL
  2
AcDbMaterial
  3
ObjectDBX Classes
 90
     1153
280
     0
281
     0
  0
CLASS
  1
SCALE
  2
AcDbScale
  3
ObjectDBX Classes
 90
     1153
280
     0
281
     0
  0
CLASS
  1
TABLESTYLE
  2
AcDbTableStyle
  3
ObjectDBX Classes
 90
     4095
280
     0
281
     0
  0
CLASS
  1
MLEADERSTYLE
  2
AcDbMLeaderStyle
  3
ACDB_MLEADERSTYLE_CLASS
 90
     4095
280
     0
281
     0
  0
CLASS
  1
SUN
  2
AcDbSun
  3
SCENEOE
 90
     1153
280
     0
281
     0
  0
CLASS
  1
ACDBPLACEHOLDER
  2
AcDbPlaceHolder
  3
ObjectDBX Classes
 90
        0
280
     0
281
     0
  0
CLASS
  1
LAYOUT
  2
AcDbLayout
  3
ObjectDBX Classes
 90
        0
280
     0
281
     0
  0
ENDSEC
  0
SECTION
  2
TABLES
  0
TABLE
  2
VPORT
  5
8
330
0
100
AcDbSymbolTable
 70
     1
  0
VPORT
  5
29
330
8
100
AcDbSymbolTableRecord
100
AcDbViewportTableRecord
  2
*Active
 70
     0
 10
0.0
 20
0.0
 11
1.0
 21
1.0
 12
-3746.3905065345
 22
6616.628794918
 13
0.0
 23
0.0
 14
10.0
 24
10.0
 15
10.0
 25
10.0
 16
0.0
 26
0.0
 36
1.0
 17
0.0
 27
0.0
 37
0.0
 40
86.18205522
 41
0.5887120412
 42
50.0
 43
0.0
 44
0.0
 50
0.0
 51
0.0
 71
     0
 72
   100
 73
     1
 74
     3
 75
     0
 76
     0
 77
     0
 78
     0
281
     0
 65
     1
110
0.0
120
0.0
130
0.0
111
1.0
121
0.0
131
0.0
112
0.0
122
1.0
132
0.0
 79
     0
146
0.0
  0
ENDTAB
  0
TABLE
  2
LTYPE
  5
5
330
0
100
AcDbSymbolTable
 70
     6
  0
LTYPE
  5
14
330
5
100
AcDbSymbolTableRecord
100
AcDbLinetypeTableRecord
  2
ByBlock
 70
     0
  3

 72
    65
 73
     0
 40
0.0
  0
LTYPE
  5
15
330
5
100
AcDbSymbolTableRecord
100
AcDbLinetypeTableRecord
  2
ByLayer
 70
     0
  3

 72
    65
 73
     0
 40
0.0
  0
LTYPE
  5
16
330
5
100
AcDbSymbolTableRecord
100
AcDbLinetypeTableRecord
  2
Continuous
 70
     0
  3
Solid line
 72
    65
 73
     0
 40
0.0
  0
LTYPE
  5
6E
330
5
100
AcDbSymbolTableRecord
100
AcDbLinetypeTableRecord
  2
HIDDEN
 70
     0
  3
Hidden __ __ __ __ __ __ __ __ __ __ __ __ __ __
 72
    65
 73
     2
 40
1.905
 49
1.27
 74
     0
 49
-0.635
 74
     0
  0
LTYPE
  5
6F
330
5
100
AcDbSymbolTableRecord
100
AcDbLinetypeTableRecord
  2
PHANTOM
 70
     0
  3
Phantom ______  __  __  ______  __  __  ______
 72
    65
 73
     6
 40
12.7
 49
6.35
 74
     0
 49
-1.27
 74
     0
 49
1.27
 74
     0
 49
-1.27
 74
     0
 49
1.27
 74
     0
 49
-1.27
 74
     0
  0
LTYPE
  5
70
330
5
100
AcDbSymbolTableRecord
100
AcDbLinetypeTableRecord
  2
CENTER
 70
     0
  3
Center ____ _ ____ _ ____ _ ____ _ ____ _ ____
 72
    65
 73
     4
 40
10.16
 49
6.35
 74
     0
 49
-1.27
 74
     0
 49
1.27
 74
     0
 49
-1.27
 74
     0
  0
LTYPE
  5
71
330
5
100
AcDbSymbolTableRecord
100
AcDbLinetypeTableRecord
  2
CENTERX2
 70
     0
  3
Center (2x) ________  __  ________  __  _____
 72
    65
 73
     4
 40
20.32
 49
12.7
 74
     0
 49
-2.54
 74
     0
 49
2.54
 74
     0
 49
-2.54
 74
     0
  0
LTYPE
  5
72
330
5
100
AcDbSymbolTableRecord
100
AcDbLinetypeTableRecord
  2
DOT2
 70
     0
  3
Dot (.5x) ........................................
 72
    65
 73
     2
 40
0.635
 49
0.0
 74
     0
 49
-0.635
 74
     0
  0
ENDTAB
  0
TABLE
  2
LAYER
  5
2
330
0
100
AcDbSymbolTable
 70
     1
  0
LAYER
  5
10
330
2
100
AcDbSymbolTableRecord
100
AcDbLayerTableRecord
  2
0
 70
     0
 62
     7
  6
Continuous
370
    -3
390
F
  0
ENDTAB
  0
TABLE
  2
STYLE
  5
3
330
0
100
AcDbSymbolTable
 70
     1
  0
STYLE
  5
11
330
3
100
AcDbSymbolTableRecord
100
AcDbTextStyleTableRecord
  2
Standard
 70
     0
 40
0.0
 41
1.0
 50
0.0
 71
     0
 42
4.0
  3
txt
  4

  0
ENDTAB
  0
TABLE
  2
VIEW
  5
6
330
0
100
AcDbSymbolTable
 70
     0
  0
ENDTAB
  0
TABLE
  2
UCS
  5
7
330
0
100
AcDbSymbolTable
 70
     0
  0
ENDTAB
  0
TABLE
  2
APPID
  5
9
330
0
100
AcDbSymbolTable
 70
     1
  0
APPID
  5
12
330
9
100
AcDbSymbolTableRecord
100
AcDbRegAppTableRecord
  2
ACAD
 70
     0
  0
ENDTAB
  0
TABLE
  2
DIMSTYLE
  5
A
330
0
100
AcDbSymbolTable
 70
     1
100
AcDbDimStyleTable
  0
DIMSTYLE
105
27
330
A
100
AcDbSymbolTableRecord
100
AcDbDimStyleTableRecord
  2
ISO-25
 70
     0
 41
2.5
 42
0.625
 43
3.75
 44
1.25
 73
     0
 74
     0
 77
     1
 78
     8
140
2.5
141
2.5
143
0.0393700787
147
0.625
171
     3
172
     1
178
     0
271
     2
272
     2
274
     3
278
    44
283
     0
284
     8
340
11
  0
ENDTAB
  0
TABLE
  2
BLOCK_RECORD
  5
1
330
0
100
AcDbSymbolTable
 70
     1
  0
BLOCK_RECORD
  5
1F
330
1
100
AcDbSymbolTableRecord
100
AcDbBlockTableRecord
  2
*Model_Space
340
22
  0
BLOCK_RECORD
  5
1B
330
1
100
AcDbSymbolTableRecord
100
AcDbBlockTableRecord
  2
*Paper_Space
340
1E
  0
BLOCK_RECORD
  5
23
330
1
100
AcDbSymbolTableRecord
100
AcDbBlockTableRecord
  2
*Paper_Space0
340
26
  0
ENDTAB
  0
ENDSEC
  0
SECTION
  2
BLOCKS
  0
BLOCK
  5
20
330
1F
100
AcDbEntity
  8
0
100
AcDbBlockBegin
  2
*Model_Space
 70
     0
 10
0.0
 20
0.0
 30
0.0
  3
*Model_Space
  1

  0
ENDBLK
  5
21
330
1F
100
AcDbEntity
  8
0
100
AcDbBlockEnd
  0
BLOCK
  5
1C
330
1B
100
AcDbEntity
 67
     1
  8
0
100
AcDbBlockBegin
  2
*Paper_Space
 70
     0
 10
0.0
 20
0.0
 30
0.0
  3
*Paper_Space
  1

  0
ENDBLK
  5
1D
330
1B
100
AcDbEntity
 67
     1
  8
0
100
AcDbBlockEnd
  0
BLOCK
  5
24
330
23
100
AcDbEntity
  8
0
100
AcDbBlockBegin
  2
*Paper_Space0
 70
     0
 10
0.0
 20
0.0
 30
0.0
  3
*Paper_Space0
  1

  0
ENDBLK
  5
25
330
23
100
AcDbEntity
  8
0
100
AcDbBlockEnd
  0
ENDSEC
  0
SECTION
  2
ENTITIES
  0
SPLINE
  5
74
330
1F
100
AcDbEntity
  8
0
  6
Continuous
 62
     7
370
    25
100
AcDbSpline
210
0.0
220
0.0
230
1.0
 70
     8
 71
     3
 72
    15
 73
    11
 74
     0
 42
0.000000001
 43
0.00000001
 40
0.0
 40
0.0
 40
0.0
 40
0.0
 40
0.1212059526124566
 40
0.2293436564902694
 40
0.3347681309252357
 40
0.4407596617559064
 40
0.5558130396878666
 40
0.6851533834087417
 40
0.8321371907837126
 40
1.0
 40
1.0
 40
1.0
 40
1.0
 10
-3750.002534714622
 20
6616.646853869617
 30
0.0
 10
-3750.00345677169
 20
6616.625791144341
 30
0.0
 10
-3750.00520147098
 20
6616.585936646055
 30
0.0
 10
-3750.023637884552
 20
6616.530254891557
 30
0.0
 10
-3750.052755221718
 20
6616.482464154209
 30
0.0
 10
-3750.095484593464
 20
6616.444323283978
 30
0.0
 10
-3750.149214369425
 20
6616.415282816743
 30
0.0
 10
-3750.214113843401
 20
6616.394459388395
 30
0.0
 10
-3750.290585753435
 20
6616.383830803577
 30
0.0
 10
-3750.345094561088
 20
6616.381927113259
 30
0.0
 10
-3750.374156336243
 20
6616.380912146645
 30
0.0
  0
SPLINE
  5
75
330
1F
100
AcDbEntity
  8
0
  6
Continuous
 62
     7
370
    25
100
AcDbSpline
210
0.0
220
0.0
230
1.0
 70
     8
 71
     3
 72
    15
 73
    11
 74
     0
 42
0.000000001
 43
0.00000001
 40
0.0
 40
0.0
 40
0.0
 40
0.0
 40
0.1528612850162348
 40
0.2874697277135279
 40
0.4083171843914339
 40
0.5197330343306593
 40
0.6278222855465628
 40
0.741506009934603
 40
0.8623534666125091
 40
1.0
 40
1.0
 40
1.0
 40
1.0
 10
-3750.374156336243
 20
6616.380912146645
 30
0.0
 10
-3750.397419257439
 20
6616.381926024189
 30
0.0
 10
-3750.441167323674
 20
6616.383832714308
 30
0.0
 10
-3750.502755232858
 20
6616.394596602699
 30
0.0
 10
-3750.554952457921
 20
6616.415705110836
 30
0.0
 10
-3750.598112648841
 20
6616.445174762248
 30
0.0
 10
-3750.632085459422
 20
6616.48371275357
 30
0.0
 10
-3750.654865726442
 20
6616.531170318183
 30
0.0
 10
-3750.669366431222
 20
6616.586396548313
 30
0.0
 10
-3750.670728395534
 20
6616.625846827413
 30
0.0
 10
-3750.671453633541
 20
6616.646853869617
 30
0.0
  0
SPLINE
  5
79
330
1F
100
AcDbEntity
  8
0
  6
Continuous
 62
     7
370
    25
100
AcDbSpline
210
0.0
220
0.0
230
1.0
 70
     8
 71
     3
 72
    15
 73
    11
 74
     0
 42
0.000000001
 43
0.00000001
 40
0.0
 40
0.0
 40
0.0
 40
0.0
 40
0.1212059526124577
 40
0.2293436564902715
 40
0.3347681309252614
 40
0.4407596617559015
 40
0.5558130396878627
 40
0.6851533834087389
 40
0.8321371907837112
 40
1.0
 40
1.0
 40
1.0
 40
1.0
 10
-3752.306588768675
 20
6616.646853869617
 30
0.0
 10
-3752.307510825744
 20
6616.625791144341
 30
0.0
 10
-3752.309255525034
 20
6616.585936646055
 30
0.0
 10
-3752.327691938606
 20
6616.530254891557
 30
0.0
 10
-3752.356809275772
 20
6616.482464154209
 30
0.0
 10
-3752.399538647519
 20
6616.444323283978
 30
0.0
 10
-3752.45326842348
 20
6616.415282816743
 30
0.0
 10
-3752.518167897455
 20
6616.394459388395
 30
0.0
 10
-3752.594639807489
 20
6616.383830803577
 30
0.0
 10
-3752.649148615142
 20
6616.381927113259
 30
0.0
 10
-3752.678210390297
 20
6616.380912146645
 30
0.0
  0
SPLINE
  5
7A
330
1F
100
AcDbEntity
  8
0
  6
Continuous
 62
     7
370
    25
100
AcDbSpline
210
0.0
220
0.0
230
1.0
 70
     8
 71
     3
 72
    15
 73
    11
 74
     0
 42
0.000000001
 43
0.00000001
 40
0.0
 40
0.0
 40
0.0
 40
0.0
 40
0.1528612850162332
 40
0.2874697277135725
 40
0.4083171843914323
 40
0.5197330343306964
 40
0.6278222855465667
 40
0.7415060099346058
 40
0.8623534666125106
 40
1.0
 40
1.0
 40
1.0
 40
1.0
 10
-3752.678210390297
 20
6616.380912146645
 30
0.0
 10
-3752.701473311493
 20
6616.381926024189
 30
0.0
 10
-3752.745221377728
 20
6616.383832714308
 30
0.0
 10
-3752.806809286913
 20
6616.394596602699
 30
0.0
 10
-3752.859006511976
 20
6616.415705110836
 30
0.0
 10
-3752.902166702896
 20
6616.445174762248
 30
0.0
 10
-3752.936139513477
 20
6616.48371275357
 30
0.0
 10
-3752.958919780497
 20
6616.531170318183
 30
0.0
 10
-3752.973420485276
 20
6616.586396548313
 30
0.0
 10
-3752.974782449588
 20
6616.625846827413
 30
0.0
 10
-3752.975507687595
 20
6616.646853869617
 30
0.0
  0
SPLINE
  5
7C
330
1F
100
AcDbEntity
  8
0
  6
Continuous
 62
     7
370
    25
100
AcDbSpline
210
0.0
220
0.0
230
1.0
 70
     8
 71
     3
 72
    15
 73
    11
 74
     0
 42
0.000000001
 43
0.00000001
 40
0.0
 40
0.0
 40
0.0
 40
0.0
 40
0.1376465333874938
 40
0.2584939900654024
 40
0.3721777144533581
 40
0.4802669656692319
 40
0.591682815608555
 40
0.7125302722864186
 40
0.847138714983762
 40
1.0
 40
1.0
 40
1.0
 40
1.0
 10
-3752.975507687595
 20
6621.614970423671
 30
0.0
 10
-3752.974782449588
 20
6621.635977465878
 30
0.0
 10
-3752.973420485276
 20
6621.675427744975
 30
0.0
 10
-3752.958919780497
 20
6621.730653975105
 30
0.0
 10
-3752.936139513477
 20
6621.778111539717
 30
0.0
 10
-3752.902166702896
 20
6621.816649531041
 30
0.0
 10
-3752.859006511976
 20
6621.846119182452
 30
0.0
 10
-3752.806809286913
 20
6621.86722769059
 30
0.0
 10
-3752.745221377728
 20
6621.877991578981
 30
0.0
 10
-3752.701473311493
 20
6621.8798982691
 30
0.0
 10
-3752.678210390297
 20
6621.880912146644
 30
0.0
  0
SPLINE
  5
7D
330
1F
100
AcDbEntity
  8
0
  6
Continuous
 62
     7
370
    25
100
AcDbSpline
210
0.0
220
0.0
230
1.0
 70
     8
 71
     3
 72
    15
 73
    11
 74
     0
 42
0.000000001
 43
0.00000001
 40
0.0
 40
0.0
 40
0.0
 40
0.0
 40
0.1691382693020971
 40
0.3176902073342466
 40
0.4474110356377995
 40
0.5634106106293771
 40
0.6687664326273852
 40
0.7731538901271353
 40
0.8800408488353577
 40
0.9999999999999999
 40
0.9999999999999999
 40
0.9999999999999999
 40
0.9999999999999999
 10
-3752.678210390297
 20
6621.880912146644
 30
0.0
 10
-3752.649101184769
 20
6621.880600251645
 30
0.0
 10
-3752.594425743323
 20
6621.880014423333
 30
0.0
 10
-3752.518561748396
 20
6621.866528276028
 30
0.0
 10
-3752.452986936614
 20
6621.848145993792
 30
0.0
 10
-3752.399972256424
 20
6621.818474518566
 30
0.0
 10
-3752.356833962404
 20
6621.781852742721
 30
0.0
 10
-3752.327720192702
 20
6621.735088938475
 30
0.0
 10
-3752.30924173902
 20
6621.680568411972
 30
0.0
 10
-3752.307506425086
 20
6621.641458720965
 30
0.0
 10
-3752.306588768675
 20
6621.62077701151
 30
0.0
  0
SPLINE
  5
81
330
1F
100
AcDbEntity
  8
0
  6
Continuous
 62
     7
370
    25
100
AcDbSpline
210
0.0
220
0.0
230
1.0
 70
     8
 71
     3
 72
    15
 73
    11
 74
     0
 42
0.000000001
 43
0.00000001
 40
0.0
 40
0.0
 40
0.0
 40
0.0
 40
0.1364411897142876
 40
0.2559957227679984
 40
0.3685080101434619
 40
0.4757423758333848
 40
0.5882546632087677
 40
0.7093427114892256
 40
0.8457839012035299
 40
1.0
 40
1.0
 40
1.0
 40
1.0
 10
-3750.671453633541
 20
6621.62077701151
 30
0.0
 10
-3750.670733184506
 20
6621.641402184463
 30
0.0
 10
-3750.669381452878
 20
6621.680099853902
 30
0.0
 10
-3750.654848491254
 20
6621.734155073269
 30
0.0
 10
-3750.632112058795
 20
6621.780609980961
 30
0.0
 10
-3750.597665168915
 20
6621.817708307663
 30
0.0
 10
-3750.555275024643
 20
6621.847683560121
 30
0.0
 10
-3750.502289185812
 20
6621.866447246427
 30
0.0
 10
-3750.441424905244
 20
6621.87998497535
 30
0.0
 10
-3750.397475097443
 20
6621.880590741175
 30
0.0
 10
-3750.374156336243
 20
6621.880912146644
 30
0.0
  0
SPLINE
  5
82
330
1F
100
AcDbEntity
  8
0
  6
Continuous
 62
     7
370
    25
100
AcDbSpline
210
0.0
220
0.0
230
1.0
 70
     8
 71
     3
 72
    15
 73
    11
 74
     0
 42
0.000000001
 43
0.00000001
 40
0.0
 40
0.0
 40
0.0
 40
0.0
 40
0.1678628092162925
 40
0.3148466165912681
 40
0.4441869603121472
 40
0.5592403382441523
 40
0.6652318690748263
 40
0.7706563435097235
 40
0.8787940473875396
 40
1.0
 40
1.0
 40
1.0
 40
1.0
 10
-3750.374156336243
 20
6621.880912146644
 30
0.0
 10
-3750.345094561088
 20
6621.87989718003
 30
0.0
 10
-3750.290585753435
 20
6621.877993489711
 30
0.0
 10
-3750.2141138434
 20
6621.867364904893
 30
0.0
 10
-3750.149214369425
 20
6621.846541476547
 30
0.0
 10
-3750.095484593464
 20
6621.817501009311
 30
0.0
 10
-3750.052755221719
 20
6621.779360139079
 30
0.0
 10
-3750.023637884552
 20
6621.731569401732
 30
0.0
 10
-3750.00520147098
 20
6621.675887647233
 30
0.0
 10
-3750.00345677169
 20
6621.636033148947
 30
0.0
 10
-3750.002534714622
 20
6621.614970423671
 30
0.0
  0
SPLINE
  5
83
330
1F
100
AcDbEntity
  8
0
  6
Continuous
 62
     7
370
    25
100
AcDbSpline
210
0.0
220
0.0
230
1.0
 70
     8
 71
     3
 72
    15
 73
    11
 74
     0
 42
0.000000001
 43
0.00000001
 40
0.0
 40
0.0
 40
0.0
 40
0.0
 40
0.127609414462103
 40
0.2499167177708675
 40
0.3720143427043304
 40
0.500576363807626
 40
0.6284293671556773
 40
0.7514974778096052
 40
0.8734901284089602
 40
0.9999999999999999
 40
0.9999999999999999
 40
0.9999999999999999
 40
0.9999999999999999
 10
-3746.301183363271
 20
6620.617398633131
 30
0.0
 10
-3746.30357873721
 20
6620.662196188068
 30
0.0
 10
-3746.308269958426
 20
6620.749929980601
 30
0.0
 10
-3746.347159271995
 20
6620.875723982131
 30
0.0
 10
-3746.410149895105
 20
6620.991206316795
 30
0.0
 10
-3746.497063258484
 20
6621.092449745101
 30
0.0
 10
-3746.599168351383
 20
6621.178737178809
 30
0.0
 10
-3746.714790591065
 20
6621.241590741312
 30
0.0
 10
-3746.840884336517
 20
6621.278788108189
 30
0.0
 10
-3746.928049898624
 20
6621.283777505396
 30
0.0
 10
-3746.972424917325
 20
6621.28631755205
 30
0.0
  0
SPLINE
  5
85
330
1F
100
AcDbEntity
  8
0
  6
Continuous
 62
     7
370
    25
100
AcDbSpline
210
0.0
220
0.0
230
1.0
 70
     8
 71
     3
 72
    15
 73
    11
 74
     0
 42
0.000000001
 43
0.00000001
 40
0.0
 40
0.0
 40
0.0
 40
0.0
 40
0.1097146503990088
 40
0.2209919735937946
 40
0.3382709755251015
 40
0.4647338986157518
 40
0.5948009642718016
 40
0.7238485466785024
 40
0.8575872448702555
 40
1.0
 40
1.0
 40
1.0
 40
1.0
 10
-3747.342885221379
 20
6621.28631755205
 30
0.0
 10
-3747.379151188515
 20
6621.284046887638
 30
0.0
 10
-3747.45219966128
 20
6621.279473217598
 30
0.0
 10
-3747.559075018229
 20
6621.242655587886
 30
0.0
 10
-3747.659627115265
 20
6621.181447196759
 30
0.0
 10
-3747.753932987995
 20
6621.101147819108
 30
0.0
 10
-3747.835646789282
 20
6621.002384615413
 30
0.0
 10
-3747.894455449763
 20
6620.885804200874
 30
0.0
 10
-3747.930256176076
 20
6620.755756195433
 30
0.0
 10
-3747.934255847066
 20
6620.664473565107
 30
0.0
 10
-3747.936318498405
 20
6620.617398633131
 30
0.0
  0
SPLINE
  5
87
330
1F
100
AcDbEntity
  8
0
  6
Continuous
 62
     7
370
    25
100
AcDbSpline
210
0.0
220
0.0
230
1.0
 70
     8
 71
     3
 72
    15
 73
    11
 74
     0
 42
0.000000001
 43
0.00000001
 40
0.0
 40
0.0
 40
0.0
 40
0.0
 40
0.1435037183830703
 40
0.2760390562757989
 40
0.4060618464747645
 40
0.5360582087399253
 40
0.6624523876220463
 40
0.7790740198611382
 40
0.8891793093881812
 40
1.0
 40
1.0
 40
1.0
 40
1.0
 10
-3747.936318498405
 20
6617.644425660157
 30
0.0
 10
-3747.934351185002
 20
6617.596938248288
 30
0.0
 10
-3747.930566925321
 20
6617.505593016921
 30
0.0
 10
-3747.893914047337
 20
6617.375475047769
 30
0.0
 10
-3747.836057532704
 20
6617.258436165103
 30
0.0
 10
-3747.753825529021
 20
6617.159646727567
 30
0.0
 10
-3747.660007025341
 20
6617.078950879281
 30
0.0
 10
-3747.559000977627
 20
6617.019686045457
 30
0.0
 10
-3747.452710711543
 20
6616.981981430444
 30
0.0
 10
-3747.379572663152
 20
6616.977669625127
 30
0.0
 10
-3747.342885221379
 20
6616.975506741238
 30
0.0
  0
SPLINE
  5
89
330
1F
100
AcDbEntity
  8
0
  6
Continuous
 62
     7
370
    25
100
AcDbSpline
210
0.0
220
0.0
230
1.0
 70
     8
 71
     3
 72
    15
 73
    11
 74
     0
 42
0.000000001
 43
0.00000001
 40
0.0
 40
0.0
 40
0.0
 40
0.0
 40
0.1274982018433516
 40
0.2493845348782768
 40
0.3723453906958316
 40
0.4993842070425002
 40
0.6271257854821362
 40
0.7506154651217356
 40
0.8725017981566464
 40
1.0
 40
1.0
 40
1.0
 40
1.0
 10
-3746.972424917325
 20
6616.975506741238
 30
0.0
 10
-3746.927665166125
 20
6616.97802176473
 30
0.0
 10
-3746.840115776621
 20
6616.982941112254
 30
0.0
 10
-3746.713556521262
 20
6617.020157761988
 30
0.0
 10
-3746.598504371285
 20
6617.083265010589
 30
0.0
 10
-3746.49537330118
 20
6617.167720927459
 30
0.0
 10
-3746.410264718808
 20
6617.270474544019
 30
0.0
 10
-3746.345627297429
 20
6617.385246748656
 30
0.0
 10
-3746.30868585048
 20
6617.512150786602
 30
0.0
 10
-3746.303721430248
 20
6617.599677501423
 30
0.0
 10
-3746.301183363271
 20
6617.644425660157
 30
0.0
  0
SPLINE
  5
8B
330
1F
100
AcDbEntity
  8
0
  6
Continuous
 62
     7
370
    25
100
AcDbSpline
210
0.0
220
0.0
230
1.0
 70
     8
 71
     3
 72
    23
 73
    19
 74
     0
 42
0.000000001
 43
0.00000001
 40
0.0
 40
0.0
 40
0.0
 40
0.0
 40
0.0596984677698902
 40
0.1182376316334083
 40
0.1758156760585302
 40
0.2340880145939992
 40
0.2926014098287267
 40
0.352498840349447
 40
0.4143425792735361
 40
0.4790413569464281
 40
0.5438488242948475
 40
0.6077816006315157
 40
0.6708302096469005
 40
0.7340778404193474
 40
0.7981519974079058
 40
0.8633307390899868
 40
0.9304699138440339
 40
1.0
 40
1.0
 40
1.0
 40
1.0
 10
-3745.632264444352
 20
6617.601456910157
 30
0.0
 10
-3745.63339287079
 20
6617.56152986817
 30
0.0
 10
-3745.635627810386
 20
6617.48245114037
 30
0.0
 10
-3745.653074425053
 20
6617.365828398119
 30
0.0
 10
-3745.68409460573
 20
6617.253215997417
 30
0.0
 10
-3745.72555349113
 20
6617.144023966213
 30
0.0
 10
-3745.779694625835
 20
6617.038752280407
 30
0.0
 10
-3745.84516998491
 20
6616.937359801191
 30
0.0
 10
-3745.922279712708
 20
6616.839139094951
 30
0.0
 10
-3746.010884669365
 20
6616.746638143784
 30
0.0
 10
-3746.10752458551
 20
6616.660295877512
 30
0.0
 10
-3746.212771981104
 20
6616.586715473897
 30
0.0
 10
-3746.322052903376
 20
6616.521123146967
 30
0.0
 10
-3746.439337364023
 20
6616.470980650816
 30
0.0
 10
-3746.561316263359
 20
6616.429209492385
 30
0.0
 10
-3746.690102509031
 20
6616.402428165547
 30
0.0
 10
-3746.824016223772
 20
6616.383974683365
 30
0.0
 10
-3746.915454237549
 20
6616.381944829071
 30
0.0
 10
-3746.961973059217
 20
6616.380912146645
 30
0.0
  0
SPLINE
  5
8D
330
1F
100
AcDbEntity
  8
0
  6
Continuous
 62
     7
370
    25
100
AcDbSpline
210
0.0
220
0.0
230
1.0
 70
     8
 71
     3
 72
    23
 73
    19
 74
     0
 42
0.000000001
 43
0.00000001
 40
0.0
 40
0.0
 40
0.0
 40
0.0
 40
0.0651968273752564
 40
0.1284903554511321
 40
0.191100498125576
 40
0.2525160380295102
 40
0.3137365289174501
 40
0.3756297926528567
 40
0.4384931710491541
 40
0.5032476829196716
 40
0.5679249615742262
 40
0.6305493581231176
 40
0.692049130403986
 40
0.7524447192727112
 40
0.8129377656964588
 40
0.8738044202088501
 40
0.9359969093510166
 40
1.0
 40
1.0
 40
1.0
 40
1.0
 10
-3747.354498397054
 20
6616.380912146645
 30
0.0
 10
-3747.39674552116
 20
6616.382086638483
 30
0.0
 10
-3747.480006443687
 20
6616.384401335068
 30
0.0
 10
-3747.602927018644
 20
6616.401032768652
 30
0.0
 10
-3747.721377066929
 20
6616.428431947252
 30
0.0
 10
-3747.83466136337
 20
6616.468668962445
 30
0.0
 10
-3747.943558946005
 20
6616.518483342661
 30
0.0
 10
-3748.046976913164
 20
6616.580714386087
 30
0.0
 10
-3748.146465371984
 20
6616.652955594364
 30
0.0
 10
-3748.239477670923
 20
6616.736113645384
 30
0.0
 10
-3748.324940527454
 20
6616.826813437484
 30
0.0
 10
-3748.399443374093
 20
6616.924007386302
 30
0.0
 10
-3748.464289294584
 20
6617.024742230038
 30
0.0
 10
-3748.514972460985
 20
6617.131718023599
 30
0.0
 10
-3748.556733007786
 20
6617.242079753132
 30
0.0
 10
-3748.58364121129
 20
6617.358139919027
 30
0.0
 10
-3748.602142646458
 20
6617.478150762578
 30
0.0
 10
-3748.604196006784
 20
6617.559963588871
 30
0.0
 10
-3748.605237417325
 20
6617.601456910157
 30
0.0
  0
SPLINE
  5
8F
330
1F
100
AcDbEntity
  8
0
  6
Continuous
 62
     7
370
    25
100
AcDbSpline
210
0.0
220
0.0
230
1.0
 70
     8
 71
     3
 72
    23
 73
    19
 74
     0
 42
0.000000001
 43
0.00000001
 40
0.0
 40
0.0
 40
0.0
 40
0.0
 40
0.0640219079057672
 40
0.1262326819779812
 40
0.1865365373546173
 40
0.2470473690630325
 40
0.3074607145633742
 40
0.3689785681117879
 40
0.4316213765738762
 40
0.4963176707001323
 40
0.5610912207493216
 40
0.6243271406750857
 40
0.6867528751010444
 40
0.7479913651462915
 40
0.809424961552983
 40
0.8714718676855115
 40
0.9347840044028926
 40
1.0
 40
1.0
 40
1.0
 40
1.0
 10
-3748.605237417325
 20
6620.660367383131
 30
0.0
 10
-3748.604186290989
 20
6620.70185834828
 30
0.0
 10
-3748.602113773926
 20
6620.783666528948
 30
0.0
 10
-3748.583808894571
 20
6620.903338676316
 30
0.0
 10
-3748.556516369752
 20
6621.018915944281
 30
0.0
 10
-3748.51499503142
 20
6621.128950643209
 30
0.0
 10
-3748.464282065368
 20
6621.235917697903
 30
0.0
 10
-3748.399449461558
 20
6621.336662167727
 30
0.0
 10
-3748.324923025283
 20
6621.433825570018
 30
0.0
 10
-3748.239543684104
 20
6621.524641639208
 30
0.0
 10
-3748.14605066064
 20
6621.607519438321
 30
0.0
 10
-3748.047207986296
 20
6621.681637723177
 30
0.0
 10
-3747.942534720434
 20
6621.742933934808
 30
0.0
 10
-3747.833548980153
 20
6621.793246753468
 30
0.0
 10
-3747.720540769692
 20
6621.833166260842
 30
0.0
 10
-3747.602581449674
 20
6621.860955089527
 30
0.0
 10
-3747.47999901974
 20
6621.877393480819
 30
0.0
 10
-3747.396743022193
 20
6621.879727732452
 30
0.0
 10
-3747.354498397054
 20
6621.880912146644
 30
0.0
  0
SPLINE
  5
91
330
1F
100
AcDbEntity
  8
0
  6
Continuous
 62
     7
370
    25
100
AcDbSpline
210
0.0
220
0.0
230
1.0
 70
     8
 71
     3
 72
    23
 73
    19
 74
     0
 42
0.000000001
 43
0.00000001
 40
0.0
 40
0.0
 40
0.0
 40
0.0
 40
0.0695660886455673
 40
0.1367400278817909
 40
0.2020784391817771
 40
0.2654541770857244
 40
0.3289700421547206
 40
0.3917607770916572
 40
0.4560640589846559
 40
0.5209050834634958
 40
0.5856373619875821
 40
0.6478726413769064
 40
0.7078010866243066
 40
0.766344779936024
 40
0.8241067595132324
 40
0.8822738882014273
 40
0.9402706205257606
 40
1.0
 40
1.0
 40
1.0
 40
1.0
 10
-3746.961973059217
 20
6621.880912146644
 30
0.0
 10
-3746.915465967357
 20
6621.879833451214
 30
0.0
 10
-3746.824051009848
 20
6621.877713153146
 30
0.0
 10
-3746.689886946864
 20
6621.859902678877
 30
0.0
 10
-3746.56210579766
 20
6621.83081563216
 30
0.0
 10
-3746.439568101936
 20
6621.791425915305
 30
0.0
 10
-3746.323952139685
 20
6621.738855792042
 30
0.0
 10
-3746.213139117217
 20
6621.675608666769
 30
0.0
 10
-3746.109149835276
 20
6621.600086301449
 30
0.0
 10
-3746.011896340927
 20
6621.514196823901
 30
0.0
 10
-3745.923570719069
 20
6621.421100344756
 30
0.0
 10
-3745.84506335249
 20
6621.32370219209
 30
0.0
 10
-3745.779714257043
 20
6621.221874901763
 30
0.0
 10
-3745.725863536138
 20
6621.11691663489
 30
0.0
 10
-3745.683609645097
 20
6621.007991338018
 30
0.0
 10
-3745.653437516658
 20
6620.895522043156
 30
0.0
 10
-3745.635502350992
 20
6620.779012706871
 30
0.0
 10
-3745.6333542847
 20
6620.700301969058
 30
0.0
 10
-3745.632264444352
 20
6620.660367383131
 30
0.0
  0
SPLINE
  5
94
330
1F
100
AcDbEntity
  8
0
  6
Continuous
 62
     7
370
    25
100
AcDbSpline
210
0.0
220
0.0
230
1.0
 70
     8
 71
     3
 72
    15
 73
    11
 74
     0
 42
0.000000001
 43
0.00000001
 40
0.0
 40
0.0
 40
0.0
 40
0.0
 40
0.1374180339176117
 40
0.2605221888670211
 40
0.3717530834571599
 40
0.4796629016281134
 40
0.5923606405989447
 40
0.7130074850339284
 40
0.8473924716293196
 40
1.0
 40
1.0
 40
1.0
 40
1.0
 10
-3765.487078633541
 20
6621.28631755205
 30
0.0
 10
-3765.508065950876
 20
6621.287109628322
 30
0.0
 10
-3765.547854482953
 20
6621.288611275801
 30
0.0
 10
-3765.603344564664
 20
6621.302391411693
 30
0.0
 10
-3765.650486762768
 20
6621.326017075306
 30
0.0
 10
-3765.688665598268
 20
6621.359966296293
 30
0.0
 10
-3765.719591110348
 20
6621.402413382391
 30
0.0
 10
-3765.740408818353
 20
6621.455076428982
 30
0.0
 10
-3765.751287859333
 20
6621.516585559632
 30
0.0
 10
-3765.753177083834
 20
6621.560345574499
 30
0.0
 10
-3765.754181674081
 20
6621.583614849347
 30
0.0
  0
SPLINE
  5
95
330
1F
100
AcDbEntity
  8
0
  6
Continuous
 62
     7
370
    25
100
AcDbSpline
210
0.0
220
0.0
230
1.0
 70
     8
 71
     3
 72
    15
 73
    11
 74
     0
 42
0.000000001
 43
0.00000001
 40
0.0
 40
0.0
 40
0.0
 40
0.0
 40
0.1526075283706843
 40
0.2869925149659837
 40
0.4076393594010603
 40
0.5203370983718945
 40
0.6282469165428507
 40
0.7394778111329481
 40
0.8625819660823848
 40
1.0
 40
1.0
 40
1.0
 40
1.0
 10
-3765.754181674081
 20
6621.583614849347
 30
0.0
 10
-3765.753177083834
 20
6621.606884124195
 30
0.0
 10
-3765.751287859333
 20
6621.650644139061
 30
0.0
 10
-3765.740408818353
 20
6621.712153269712
 30
0.0
 10
-3765.719591110348
 20
6621.764816316302
 30
0.0
 10
-3765.688665598268
 20
6621.8072634024
 30
0.0
 10
-3765.650486762768
 20
6621.841212623387
 30
0.0
 10
-3765.603344564664
 20
6621.864838287001
 30
0.0
 10
-3765.547854482954
 20
6621.878618422894
 30
0.0
 10
-3765.508065950876
 20
6621.880120070372
 30
0.0
 10
-3765.487078633541
 20
6621.880912146644
 30
0.0
  0
SPLINE
  5
97
330
1F
100
AcDbEntity
  8
0
  6
Continuous
 62
     7
370
    25
100
AcDbSpline
210
0.0
220
0.0
230
1.0
 70
     8
 71
     3
 72
    15
 73
    11
 74
     0
 42
0.000000001
 43
0.00000001
 40
0.0
 40
0.0
 40
0.0
 40
0.0
 40
0.1551848740353417
 40
0.290369023471316
 40
0.413368925383734
 40
0.5248446307904964
 40
0.6329919503392657
 40
0.744467655746073
 40
0.8648158505640171
 40
1.0
 40
1.0
 40
1.0
 40
1.0
 10
-3763.113345525433
 20
6621.880912146644
 30
0.0
 10
-3763.08655609689
 20
6621.88018464488
 30
0.0
 10
-3763.036429947329
 20
6621.878823404112
 30
0.0
 10
-3762.966253532847
 20
6621.86461080369
 30
0.0
 10
-3762.906170522693
 20
6621.842182886332
 30
0.0
 10
-3762.856706786459
 20
6621.808762673632
 30
0.0
 10
-3762.818441295481
 20
6621.765639960028
 30
0.0
 10
-3762.791072637532
 20
6621.713106849435
 30
0.0
 10
-3762.776564541381
 20
6621.650949981248
 30
0.0
 10
-3762.774285276503
 20
6621.606912157446
 30
0.0
 10
-3762.773079478136
 20
6621.583614849347
 30
0.0
  0
SPLINE
  5
98
330
1F
100
AcDbEntity
  8
0
  6
Continuous
 62
     7
370
    25
100
AcDbSpline
210
0.0
220
0.0
230
1.0
 70
     8
 71
     3
 72
    15
 73
    11
 74
     0
 42
0.000000001
 43
0.00000001
 40
0.0
 40
0.0
 40
0.0
 40
0.0
 40
0.13518414943598
 40
0.2555323442540048
 40
0.3670080496607337
 40
0.4751553692095006
 40
0.5866310746162606
 40
0.7096309765287073
 40
0.8448151259646617
 40
1.0
 40
1.0
 40
1.0
 40
1.0
 10
-3762.773079478136
 20
6621.583614849347
 30
0.0
 10
-3762.774285276503
 20
6621.560317541247
 30
0.0
 10
-3762.776564541381
 20
6621.516279717446
 30
0.0
 10
-3762.791072637532
 20
6621.45412284926
 30
0.0
 10
-3762.818441295481
 20
6621.401589738666
 30
0.0
 10
-3762.856706786459
 20
6621.358467025061
 30
0.0
 10
-3762.906170522693
 20
6621.325046812363
 30
0.0
 10
-3762.966253532847
 20
6621.302618895004
 30
0.0
 10
-3763.036429947329
 20
6621.288406294581
 30
0.0
 10
-3763.08655609689
 20
6621.287045053816
 30
0.0
 10
-3763.113345525433
 20
6621.28631755205
 30
0.0
  0
SPLINE
  5
9B
330
1F
100
AcDbEntity
  8
0
  6
Continuous
 62
     7
370
    25
100
AcDbSpline
210
0.0
220
0.0
230
1.0
 70
     8
 71
     3
 72
    15
 73
    11
 74
     0
 42
0.000000001
 43
0.00000001
 40
0.0
 40
0.0
 40
0.0
 40
0.0
 40
0.1196517683248641
 40
0.2283994244660815
 40
0.3325193999702838
 40
0.4376052586397426
 40
0.5533075967933816
 40
0.683377486570547
 40
0.8311903582105732
 40
1.0
 40
1.0
 40
1.0
 40
1.0
 10
-3763.930913093001
 20
6616.643369916915
 30
0.0
 10
-3763.93188721571
 20
6616.622706230334
 30
0.0
 10
-3763.933746687319
 20
6616.583261981508
 30
0.0
 10
-3763.951754207978
 20
6616.52817701948
 30
0.0
 10
-3763.981189647136
 20
6616.481165650964
 30
0.0
 10
-3764.024261315395
 20
6616.444409637673
 30
0.0
 10
-3764.077539327115
 20
6616.415216382449
 30
0.0
 10
-3764.142509376171
 20
6616.394480721702
 30
0.0
 10
-3764.218958865871
 20
6616.38382425482
 30
0.0
 10
-3764.273471108228
 20
6616.38192483592
 30
0.0
 10
-3764.302534714622
 20
6616.380912146645
 30
0.0
  0
SPLINE
  5
9C
330
1F
100
AcDbEntity
  8
0
  6
Continuous
 62
     7
370
    25
100
AcDbSpline
210
0.0
220
0.0
230
1.0
 70
     8
 71
     3
 72
    15
 73
    11
 74
     0
 42
0.000000001
 43
0.00000001
 40
0.0
 40
0.0
 40
0.0
 40
0.0
 40
0.1538927873091673
 40
0.2894095627950821
 40
0.4110724936372427
 40
0.5232401736076215
 40
0.6301460973349684
 40
0.7423137773053182
 40
0.8639767081475365
 40
1.0
 40
1.0
 40
1.0
 40
1.0
 10
-3764.302534714622
 20
6616.380912146645
 30
0.0
 10
-3764.325799225572
 20
6616.381924488282
 30
0.0
 10
-3764.369550281489
 20
6616.383828289988
 30
0.0
 10
-3764.431118479399
 20
6616.394611221982
 30
0.0
 10
-3764.483379696681
 20
6616.415657905482
 30
0.0
 10
-3764.526086139265
 20
6616.445168667759
 30
0.0
 10
-3764.560462496124
 20
6616.482409714012
 30
0.0
 10
-3764.583467879207
 20
6616.529143466724
 30
0.0
 10
-3764.597607035336
 20
6616.583708677677
 30
0.0
 10
-3764.599063301416
 20
6616.62275746571
 30
0.0
 10
-3764.599832011919
 20
6616.643369916915
 30
0.0
  0
SPLINE
  5
A0
330
1F
100
AcDbEntity
  8
0
  6
Continuous
 62
     7
370
    25
100
AcDbSpline
210
0.0
220
0.0
230
1.0
 70
     8
 71
     3
 72
    15
 73
    11
 74
     0
 42
0.000000001
 43
0.00000001
 40
0.0
 40
0.0
 40
0.0
 40
0.0
 40
0.1548790377790508
 40
0.2919933978856842
 40
0.4126674844478799
 40
0.5257810605822457
 40
0.6337152448525654
 40
0.7449712554429743
 40
0.8650822696620792
 40
1.0
 40
1.0
 40
1.0
 40
1.0
 10
-3759.093793160569
 20
6616.975506741238
 30
0.0
 10
-3759.067023741494
 20
6616.974713648195
 30
0.0
 10
-3759.016555364708
 20
6616.973218430144
 30
0.0
 10
-3758.946120435633
 20
6616.959722549209
 30
0.0
 10
-3758.88621557673
 20
6616.936102660022
 30
0.0
 10
-3758.836086505795
 20
6616.903797339425
 30
0.0
 10
-3758.797760571873
 20
6616.860181025263
 30
0.0
 10
-3758.770349295753
 20
6616.807717132046
 30
0.0
 10
-3758.755853710548
 20
6616.745539944478
 30
0.0
 10
-3758.753572580697
 20
6616.701505149634
 30
0.0
 10
-3758.752365795703
 20
6616.678209443941
 30
0.0
  0
SPLINE
  5
A1
330
1F
100
AcDbEntity
  8
0
  6
Continuous
 62
     7
370
    25
100
AcDbSpline
210
0.0
220
0.0
230
1.0
 70
     8
 71
     3
 72
    15
 73
    11
 74
     0
 42
0.000000001
 43
0.00000001
 40
0.0
 40
0.0
 40
0.0
 40
0.0
 40
0.1349177303379178
 40
0.2550287445571033
 40
0.3662847551474338
 40
0.474218939417751
 40
0.5873325155521144
 40
0.7080066021143392
 40
0.8451209622209528
 40
1.0
 40
1.0
 40
1.0
 40
1.0
 10
-3758.752365795703
 20
6616.678209443941
 30
0.0
 10
-3758.753572580697
 20
6616.654913738249
 30
0.0
 10
-3758.755853710548
 20
6616.610878943405
 30
0.0
 10
-3758.770349295753
 20
6616.548701755836
 30
0.0
 10
-3758.797760571873
 20
6616.49623786262
 30
0.0
 10
-3758.836086505795
 20
6616.452621548458
 30
0.0
 10
-3758.88621557673
 20
6616.420316227862
 30
0.0
 10
-3758.946120435633
 20
6616.396696338675
 30
0.0
 10
-3759.016555364708
 20
6616.383200457737
 30
0.0
 10
-3759.067023741494
 20
6616.381705239689
 30
0.0
 10
-3759.093793160569
 20
6616.380912146645
 30
0.0
  0
SPLINE
  5
A3
330
1F
100
AcDbEntity
  8
0
  6
Continuous
 62
     7
370
    25
100
AcDbSpline
210
0.0
220
0.0
230
1.0
 70
     8
 71
     3
 72
    15
 73
    11
 74
     0
 42
0.000000001
 43
0.00000001
 40
0.0
 40
0.0
 40
0.0
 40
0.0
 40
0.152861285016274
 40
0.2874697277136065
 40
0.4083171843914602
 40
0.5197330343306789
 40
0.6278222855465757
 40
0.7415060099346309
 40
0.8623534666125174
 40
1.0
 40
1.0
 40
1.0
 40
1.0
 10
-3761.047129309216
 20
6616.380912146645
 30
0.0
 10
-3761.070392230411
 20
6616.381926024189
 30
0.0
 10
-3761.114140296647
 20
6616.383832714308
 30
0.0
 10
-3761.175728205832
 20
6616.394596602699
 30
0.0
 10
-3761.227925430895
 20
6616.415705110836
 30
0.0
 10
-3761.271085621815
 20
6616.445174762248
 30
0.0
 10
-3761.305058432395
 20
6616.48371275357
 30
0.0
 10
-3761.327838699415
 20
6616.531170318183
 30
0.0
 10
-3761.342339404195
 20
6616.586396548313
 30
0.0
 10
-3761.343701368507
 20
6616.625846827411
 30
0.0
 10
-3761.344426606514
 20
6616.646853869617
 30
0.0
  0
SPLINE
  5
A5
330
1F
100
AcDbEntity
  8
0
  6
Continuous
 62
     7
370
    25
100
AcDbSpline
210
0.0
220
0.0
230
1.0
 70
     8
 71
     3
 72
    15
 73
    11
 74
     0
 42
0.000000001
 43
0.00000001
 40
0.0
 40
0.0
 40
0.0
 40
0.0
 40
0.1376465333874869
 40
0.2584939900653772
 40
0.3721777144533489
 40
0.4802669656692492
 40
0.5916828156085269
 40
0.7125302722863844
 40
0.8471387149837212
 40
1.0
 40
1.0
 40
1.0
 40
1.0
 10
-3761.344426606514
 20
6621.614970423671
 30
0.0
 10
-3761.343701368507
 20
6621.635977465876
 30
0.0
 10
-3761.342339404195
 20
6621.675427744975
 30
0.0
 10
-3761.327838699415
 20
6621.730653975105
 30
0.0
 10
-3761.305058432395
 20
6621.778111539717
 30
0.0
 10
-3761.271085621815
 20
6621.816649531041
 30
0.0
 10
-3761.227925430895
 20
6621.846119182452
 30
0.0
 10
-3761.175728205832
 20
6621.86722769059
 30
0.0
 10
-3761.114140296647
 20
6621.877991578981
 30
0.0
 10
-3761.070392230411
 20
6621.8798982691
 30
0.0
 10
-3761.047129309216
 20
6621.880912146644
 30
0.0
  0
SPLINE
  5
A7
330
1F
100
AcDbEntity
  8
0
  6
Continuous
 62
     7
370
    25
100
AcDbSpline
210
0.0
220
0.0
230
1.0
 70
     8
 71
     3
 72
    15
 73
    11
 74
     0
 42
0.000000001
 43
0.00000001
 40
0.0
 40
0.0
 40
0.0
 40
0.0
 40
0.1548790377790508
 40
0.2919933978856842
 40
0.4126674844478799
 40
0.5257810605822457
 40
0.6337152448525654
 40
0.7449712554429743
 40
0.8650822696620792
 40
1.0
 40
1.0
 40
1.0
 40
1.0
 10
-3759.093793160569
 20
6621.880912146644
 30
0.0
 10
-3759.067023741494
 20
6621.8801190536
 30
0.0
 10
-3759.016555364708
 20
6621.878623835551
 30
0.0
 10
-3758.946120435633
 20
6621.865127954614
 30
0.0
 10
-3758.88621557673
 20
6621.841508065427
 30
0.0
 10
-3758.836086505795
 20
6621.809202744831
 30
0.0
 10
-3758.797760571873
 20
6621.765586430668
 30
0.0
 10
-3758.770349295753
 20
6621.713122537452
 30
0.0
 10
-3758.755853710548
 20
6621.650945349884
 30
0.0
 10
-3758.753572580697
 20
6621.60691055504
 30
0.0
 10
-3758.752365795703
 20
6621.583614849347
 30
0.0
  0
SPLINE
  5
A8
330
1F
100
AcDbEntity
  8
0
  6
Continuous
 62
     7
370
    25
100
AcDbSpline
210
0.0
220
0.0
230
1.0
 70
     8
 71
     3
 72
    15
 73
    11
 74
     0
 42
0.000000001
 43
0.00000001
 40
0.0
 40
0.0
 40
0.0
 40
0.0
 40
0.1349177303379178
 40
0.2550287445571033
 40
0.3662847551474338
 40
0.474218939417751
 40
0.5873325155521144
 40
0.7080066021143392
 40
0.8451209622209528
 40
1.0
 40
1.0
 40
1.0
 40
1.0
 10
-3758.752365795703
 20
6621.583614849347
 30
0.0
 10
-3758.753572580697
 20
6621.560319143654
 30
0.0
 10
-3758.755853710548
 20
6621.516284348811
 30
0.0
 10
-3758.770349295753
 20
6621.454107161242
 30
0.0
 10
-3758.797760571873
 20
6621.401643268026
 30
0.0
 10
-3758.836086505795
 20
6621.358026953863
 30
0.0
 10
-3758.88621557673
 20
6621.325721633267
 30
0.0
 10
-3758.946120435633
 20
6621.30210174408
 30
0.0
 10
-3759.016555364708
 20
6621.288605863143
 30
0.0
 10
-3759.067023741494
 20
6621.287110645094
 30
0.0
 10
-3759.093793160569
 20
6621.28631755205
 30
0.0
  0
SPLINE
  5
AC
330
1F
100
AcDbEntity
  8
0
  6
Continuous
 62
     7
370
    25
100
AcDbSpline
210
0.0
220
0.0
230
1.0
 70
     8
 71
     3
 72
    15
 73
    11
 74
     0
 42
0.000000001
 43
0.00000001
 40
0.0
 40
0.0
 40
0.0
 40
0.0
 40
0.1548790377790603
 40
0.2919933978856014
 40
0.4126674844478364
 40
0.5257810605822092
 40
0.6337152448525355
 40
0.7449712554428753
 40
0.8650822696620708
 40
1.0
 40
1.0
 40
1.0
 40
1.0
 10
-3759.862585390298
 20
6619.651182416914
 30
0.0
 10
-3759.835815971224
 20
6619.650389323871
 30
0.0
 10
-3759.785347594438
 20
6619.648894105821
 30
0.0
 10
-3759.714912665363
 20
6619.635398224884
 30
0.0
 10
-3759.65500780646
 20
6619.611778335697
 30
0.0
 10
-3759.604878735525
 20
6619.579473015101
 30
0.0
 10
-3759.566552801602
 20
6619.535856700939
 30
0.0
 10
-3759.539141525483
 20
6619.483392807722
 30
0.0
 10
-3759.524645940277
 20
6619.421215620154
 30
0.0
 10
-3759.522364810427
 20
6619.37718082531
 30
0.0
 10
-3759.521158025433
 20
6619.353885119617
 30
0.0
  0
SPLINE
  5
AD
330
1F
100
AcDbEntity
  8
0
  6
Continuous
 62
     7
370
    25
100
AcDbSpline
210
0.0
220
0.0
230
1.0
 70
     8
 71
     3
 72
    15
 73
    11
 74
     0
 42
0.000000001
 43
0.00000001
 40
0.0
 40
0.0
 40
0.0
 40
0.0
 40
0.1349177303379322
 40
0.2550287445570472
 40
0.3662847551474655
 40
0.4742189394177941
 40
0.5873325155521695
 40
0.7080066021143753
 40
0.8451209622209362
 40
0.9999999999999999
 40
0.9999999999999999
 40
0.9999999999999999
 40
0.9999999999999999
 10
-3759.521158025433
 20
6619.353885119617
 30
0.0
 10
-3759.522364810427
 20
6619.330589413925
 30
0.0
 10
-3759.524645940277
 20
6619.286554619081
 30
0.0
 10
-3759.539141525483
 20
6619.224377431512
 30
0.0
 10
-3759.566552801602
 20
6619.171913538295
 30
0.0
 10
-3759.604878735525
 20
6619.128297224133
 30
0.0
 10
-3759.65500780646
 20
6619.095991903539
 30
0.0
 10
-3759.714912665363
 20
6619.07237201435
 30
0.0
 10
-3759.785347594438
 20
6619.058876133415
 30
0.0
 10
-3759.835815971224
 20
6619.057380915364
 30
0.0
 10
-3759.862585390298
 20
6619.056587822321
 30
0.0
  0
SPLINE
  5
AF
330
1F
100
AcDbEntity
  8
0
  6
Continuous
 62
     7
370
    25
100
AcDbSpline
210
0.0
220
0.0
230
1.0
 70
     8
 71
     3
 72
    15
 73
    11
 74
     0
 42
0.000000001
 43
0.00000001
 40
0.0
 40
0.0
 40
0.0
 40
0.0
 40
0.1292358118054854
 40
0.2539569466684323
 40
0.377196804785737
 40
0.5066544638823186
 40
0.6346707152581409
 40
0.7555544727616219
 40
0.8762798741110944
 40
0.9999999999999999
 40
0.9999999999999999
 40
0.9999999999999999
 40
0.9999999999999999
 10
-3755.712965457866
 20
6619.279560795293
 30
0.0
 10
-3755.668558707164
 20
6619.281561609338
 30
0.0
 10
-3755.581296495073
 20
6619.285493341716
 30
0.0
 10
-3755.456448453896
 20
6619.323512759826
 30
0.0
 10
-3755.340656211082
 20
6619.382688163182
 30
0.0
 10
-3755.238193535819
 20
6619.46472386079
 30
0.0
 10
-3755.150917734961
 20
6619.561712501696
 30
0.0
 10
-3755.087762813889
 20
6619.672548366482
 30
0.0
 10
-3755.049049110347
 20
6619.793046645905
 30
0.0
 10
-3755.044185500832
 20
6619.876970678314
 30
0.0
 10
-3755.041723903812
 20
6619.919446775022
 30
0.0
  0
SPLINE
  5
B1
330
1F
100
AcDbEntity
  8
0
  6
Continuous
 62
     7
370
    25
100
AcDbSpline
210
0.0
220
0.0
230
1.0
 70
     8
 71
     3
 72
    15
 73
    11
 74
     0
 42
0.000000001
 43
0.00000001
 40
0.0
 40
0.0
 40
0.0
 40
0.0
 40
0.1235134495526263
 40
0.24403717729833
 40
0.3652811780136435
 40
0.4939311243357938
 40
0.6229953715115062
 40
0.74754898504954
 40
0.8709800785673066
 40
1.0
 40
1.0
 40
1.0
 40
1.0
 10
-3755.041723903812
 20
6620.642947619616
 30
0.0
 10
-3755.04421437787
 20
6620.685406875421
 30
0.0
 10
-3755.049135042475
 20
6620.769297633668
 30
0.0
 10
-3755.087487613595
 20
6620.890227061712
 30
0.0
 10
-3755.152572640155
 20
6621.000508244501
 30
0.0
 10
-3755.239130987191
 20
6621.09841754759
 30
0.0
 10
-3755.340934260758
 20
6621.182604471385
 30
0.0
 10
-3755.456803300248
 20
6621.241981629523
 30
0.0
 10
-3755.581629964228
 20
6621.280531328487
 30
0.0
 10
-3755.668545573008
 20
6621.284360553395
 30
0.0
 10
-3755.712965457866
 20
6621.28631755205
 30
0.0
  0
SPLINE
  5
B5
330
1F
100
AcDbEntity
  8
0
  6
Continuous
 62
     7
370
    25
100
AcDbSpline
210
0.0
220
0.0
230
1.0
 70
     8
 71
     3
 72
    15
 73
    11
 74
     0
 42
0.000000001
 43
0.00000001
 40
0.0
 40
0.0
 40
0.0
 40
0.0
 40
0.1212059526124645
 40
0.2293436564902711
 40
0.3347681309252669
 40
0.440759661755913
 40
0.5558130396878804
 40
0.685153383408764
 40
0.8321371907837445
 40
1.0
 40
1.0
 40
1.0
 40
1.0
 10
-3756.676859038946
 20
6616.646853869617
 30
0.0
 10
-3756.677781096014
 20
6616.625791144341
 30
0.0
 10
-3756.679525795305
 20
6616.585936646055
 30
0.0
 10
-3756.697962208876
 20
6616.530254891557
 30
0.0
 10
-3756.727079546042
 20
6616.482464154209
 30
0.0
 10
-3756.769808917788
 20
6616.444323283978
 30
0.0
 10
-3756.82353869375
 20
6616.415282816743
 30
0.0
 10
-3756.888438167724
 20
6616.394459388395
 30
0.0
 10
-3756.964910077759
 20
6616.383830803577
 30
0.0
 10
-3757.019418885413
 20
6616.381927113259
 30
0.0
 10
-3757.048480660568
 20
6616.380912146645
 30
0.0
  0
SPLINE
  5
B6
330
1F
100
AcDbEntity
  8
0
  6
Continuous
 62
     7
370
    25
100
AcDbSpline
210
0.0
220
0.0
230
1.0
 70
     8
 71
     3
 72
    15
 73
    11
 74
     0
 42
0.000000001
 43
0.00000001
 40
0.0
 40
0.0
 40
0.0
 40
0.0
 40
0.152861285016274
 40
0.2874697277136065
 40
0.4083171843914602
 40
0.5197330343306789
 40
0.6278222855465757
 40
0.7415060099346309
 40
0.8623534666125174
 40
1.0
 40
1.0
 40
1.0
 40
1.0
 10
-3757.048480660568
 20
6616.380912146645
 30
0.0
 10
-3757.071743581763
 20
6616.381926024189
 30
0.0
 10
-3757.115491647998
 20
6616.383832714308
 30
0.0
 10
-3757.177079557183
 20
6616.394596602699
 30
0.0
 10
-3757.229276782246
 20
6616.415705110836
 30
0.0
 10
-3757.272436973166
 20
6616.445174762248
 30
0.0
 10
-3757.306409783746
 20
6616.48371275357
 30
0.0
 10
-3757.329190050767
 20
6616.531170318183
 30
0.0
 10
-3757.343690755546
 20
6616.586396548313
 30
0.0
 10
-3757.345052719858
 20
6616.625846827413
 30
0.0
 10
-3757.345777957865
 20
6616.646853869617
 30
0.0
  0
SPLINE
  5
B8
330
1F
100
AcDbEntity
  8
0
  6
Continuous
 62
     7
370
    25
100
AcDbSpline
210
0.0
220
0.0
230
1.0
 70
     8
 71
     3
 72
    15
 73
    11
 74
     0
 42
0.000000001
 43
0.00000001
 40
0.0
 40
0.0
 40
0.0
 40
0.0
 40
0.1446346493004987
 40
0.2709695536701105
 40
0.3881332050053773
 40
0.4966009700542441
 40
0.6071858555760432
 40
0.7243495069112681
 40
0.8527014153097147
 40
1.0
 40
1.0
 40
1.0
 40
1.0
 10
-3757.345777957865
 20
6621.614970423671
 30
0.0
 10
-3757.344958860778
 20
6621.635960357579
 30
0.0
 10
-3757.343424301991
 20
6621.675284496368
 30
0.0
 10
-3757.330226041287
 20
6621.73031148081
 30
0.0
 10
-3757.309902437197
 20
6621.777474876308
 30
0.0
 10
-3757.279735082071
 20
6621.816530439793
 30
0.0
 10
-3757.240155975082
 20
6621.84577385976
 30
0.0
 10
-3757.192715994199
 20
6621.867119480608
 30
0.0
 10
-3757.136442625552
 20
6621.878054074407
 30
0.0
 10
-3757.096522806773
 20
6621.879916778602
 30
0.0
 10
-3757.075190964622
 20
6621.880912146644
 30
0.0
  0
SPLINE
  5
BA
330
1F
100
AcDbEntity
  8
0
  6
Continuous
 62
     7
370
    25
100
AcDbSpline
210
0.0
220
0.0
230
1.0
 70
     8
 71
     3
 72
    23
 73
    19
 74
     0
 42
0.000000001
 43
0.00000001
 40
0.0
 40
0.0
 40
0.0
 40
0.0
 40
0.0697099815833825
 40
0.1364473703020138
 40
0.2017947491632094
 40
0.2654843218801445
 40
0.3288955934619147
 40
0.3921073283569567
 40
0.4562055181823871
 40
0.5211806621105861
 40
0.5856274065120243
 40
0.64799141553616
 40
0.7075565987987537
 40
0.766487804537701
 40
0.8243692610195141
 40
0.881947273961464
 40
0.9407267977402013
 40
1.0
 40
1.0
 40
1.0
 40
1.0
 10
-3755.702513599757
 20
6621.880912146644
 30
0.0
 10
-3755.655990880158
 20
6621.879905145523
 30
0.0
 10
-3755.564929276005
 20
6621.87793408411
 30
0.0
 10
-3755.431446616094
 20
6621.859235610434
 30
0.0
 10
-3755.303328898009
 20
6621.832844708107
 30
0.0
 10
-3755.181902557637
 20
6621.790578309883
 30
0.0
 10
-3755.064902916807
 20
6621.740735826577
 30
0.0
 10
-3754.955647891035
 20
6621.675089992495
 30
0.0
 10
-3754.850349325287
 20
6621.601569462316
 30
0.0
 10
-3754.75409916527
 20
6621.515226300381
 30
0.0
 10
-3754.664838446021
 20
6621.423455638301
 30
0.0
 10
-3754.587131488052
 20
6621.326144076399
 30
0.0
 10
-3754.521273461629
 20
6621.224891163646
 30
0.0
 10
-3754.466309851007
 20
6621.120670423952
 30
0.0
 10
-3754.423992019886
 20
6621.011979234218
 30
0.0
 10
-3754.395565232016
 20
6620.899150299782
 30
0.0
 10
-3754.375734904268
 20
6620.783388766846
 30
0.0
 10
-3754.373784343667
 20
6620.704581211605
 30
0.0
 10
-3754.372804984892
 20
6620.6650126534
 30
0.0
  0
SPLINE
  5
BC
330
1F
100
AcDbEntity
  8
0
  6
Continuous
 62
     7
370
    25
100
AcDbSpline
210
0.0
220
0.0
230
1.0
 70
     8
 71
     3
 72
    23
 73
    19
 74
     0
 42
0.000000001
 43
0.00000001
 40
0.0
 40
0.0
 40
0.0
 40
0.0
 40
0.0599416988924173
 40
0.1187138469710808
 40
0.1769412378156644
 40
0.2352661744249043
 40
0.2943277774127101
 40
0.3542464815027618
 40
0.4165885938737653
 40
0.4809536654488809
 40
0.5457853982364228
 40
0.6093099757947946
 40
0.6719250421333882
 40
0.7349787482748749
 40
0.7988306000017149
 40
0.8637685273449326
 40
0.9306766963489824
 40
1.0
 40
1.0
 40
1.0
 40
1.0
 10
-3754.372804984892
 20
6619.897381741239
 30
0.0
 10
-3754.373894426012
 20
6619.857831229614
 30
0.0
 10
-3754.376052051652
 20
6619.779501895086
 30
0.0
 10
-3754.394107117383
 20
6619.663905711171
 30
0.0
 10
-3754.423094253324
 20
6619.5517833063
 30
0.0
 10
-3754.464119744765
 20
6619.443247354787
 30
0.0
 10
-3754.516325330082
 20
6619.338348130552
 30
0.0
 10
-3754.581444272942
 20
6619.237838806977
 30
0.0
 10
-3754.656527635221
 20
6619.14007046117
 30
0.0
 10
-3754.743666368603
 20
6619.048439879341
 30
0.0
 10
-3754.837188113075
 20
6618.961994017738
 30
0.0
 10
-3754.940545914589
 20
6618.8895991206
 30
0.0
 10
-3755.047746047439
 20
6618.825359771575
 30
0.0
 10
-3755.162386670664
 20
6618.774978434171
 30
0.0
 10
-3755.282088521285
 20
6618.733285495161
 30
0.0
 10
-3755.408558448001
 20
6618.706473197801
 30
0.0
 10
-3755.540160384451
 20
6618.688027696149
 30
0.0
 10
-3755.630057753353
 20
6618.685998689374
 30
0.0
 10
-3755.675803295703
 20
6618.684966200698
 30
0.0
  0
SPLINE
  5
BF
330
1F
100
AcDbEntity
  8
0
  6
Continuous
 62
     7
370
    25
100
AcDbSpline
210
0.0
220
0.0
230
1.0
 70
     8
 71
     3
 72
    15
 73
    11
 74
     0
 42
0.000000001
 43
0.00000001
 40
0.0
 40
0.0
 40
0.0
 40
0.0
 40
0.1257421127824211
 40
0.2483729038226224
 40
0.3698227131065071
 40
0.4987247648984021
 40
0.6269159236704831
 40
0.7508402192895126
 40
0.8731555254027388
 40
1.0
 40
1.0
 40
1.0
 40
1.0
 10
-3730.678210390298
 20
6618.389991538535
 30
0.0
 10
-3730.680689656899
 20
6618.43399607752
 30
0.0
 10
-3730.685586843938
 20
6618.520916321557
 30
0.0
 10
-3730.723882010304
 20
6618.645780102293
 30
0.0
 10
-3730.787583433997
 20
6618.760458394213
 30
0.0
 10
-3730.873990842733
 20
6618.861679883931
 30
0.0
 10
-3730.976542250521
 20
6618.947609176906
 30
0.0
 10
-3731.091465450015
 20
6619.01211871298
 30
0.0
 10
-3731.217956125861
 20
6619.048977782631
 30
0.0
 10
-3731.305092026152
 20
6619.054020586784
 30
0.0
 10
-3731.349451944352
 20
6619.056587822321
 30
0.0
  0
SPLINE
  5
C3
330
1F
100
AcDbEntity
  8
0
  6
Continuous
 62
     7
370
    25
100
AcDbSpline
210
0.0
220
0.0
230
1.0
 70
     8
 71
     3
 72
    15
 73
    11
 74
     0
 42
0.000000001
 43
0.00000001
 40
0.0
 40
0.0
 40
0.0
 40
0.0
 40
0.1274086638640703
 40
0.2492093999587706
 40
0.3720839042325276
 40
0.4997357737771653
 40
0.6273876433217869
 40
0.7507906000412418
 40
0.8725913361359278
 40
1.0
 40
1.0
 40
1.0
 40
1.0
 10
-3731.349451944352
 20
6616.975506741238
 30
0.0
 10
-3731.304687759727
 20
6616.978016424891
 30
0.0
 10
-3731.217129698512
 20
6616.98292532777
 30
0.0
 10
-3731.090633470316
 20
6617.020217890584
 30
0.0
 10
-3730.975121534674
 20
6617.083152473345
 30
0.0
 10
-3730.872779217157
 20
6617.168957367724
 30
0.0
 10
-3730.787234779105
 20
6617.271567218764
 30
0.0
 10
-3730.722669058457
 20
6617.386425820154
 30
0.0
 10
-3730.685709016577
 20
6617.513307451891
 30
0.0
 10
-3730.680747151135
 20
6617.60083724514
 30
0.0
 10
-3730.678210390298
 20
6617.645586977725
 30
0.0
  0
SPLINE
  5
C5
330
1F
100
AcDbEntity
  8
0
  6
Continuous
 62
     7
370
    25
100
AcDbSpline
210
0.0
220
0.0
230
1.0
 70
     8
 71
     3
 72
    23
 73
    19
 74
     0
 42
0.000000001
 43
0.00000001
 40
0.0
 40
0.0
 40
0.0
 40
0.0
 40
0.0602270928970656
 40
0.119295732009191
 40
0.1779404947570701
 40
0.236484416225779
 40
0.2954167439820514
 40
0.3556629103136915
 40
0.4181241147893702
 40
0.4821809927853212
 40
0.5466999757700508
 40
0.6101828950384107
 40
0.6730761809147139
 40
0.7353821562772264
 40
0.7989787332068825
 40
0.8641683702521853
 40
0.9306148387332213
 40
1.0
 40
1.0
 40
1.0
 40
1.0
 10
-3730.009291471379
 20
6617.627005896644
 30
0.0
 10
-3730.01041860245
 20
6617.586306271603
 30
0.0
 10
-3730.012651184496
 20
6617.505689869115
 30
0.0
 10
-3730.030173902204
 20
6617.386382581547
 30
0.0
 10
-3730.061220706543
 20
6617.271264986683
 30
0.0
 10
-3730.101086936118
 20
6617.158898529718
 30
0.0
 10
-3730.15568672568
 20
6617.05166222688
 30
0.0
 10
-3730.220812857098
 20
6616.947422896775
 30
0.0
 10
-3730.299103220174
 20
6616.848221664788
 30
0.0
 10
-3730.386535469134
 20
6616.753040333267
 30
0.0
 10
-3730.48380569746
 20
6616.666893709905
 30
0.0
 10
-3730.586950930083
 20
6616.589067829771
 30
0.0
 10
-3730.697890400923
 20
6616.525653170772
 30
0.0
 10
-3730.814145623553
 20
6616.472851202758
 30
0.0
 10
-3730.9363616171
 20
6616.430356248626
 30
0.0
 10
-3731.065453898473
 20
6616.402239172745
 30
0.0
 10
-3731.200280890955
 20
6616.383987937309
 30
0.0
 10
-3731.292098204149
 20
6616.381952091915
 30
0.0
 10
-3731.339000086244
 20
6616.380912146645
 30
0.0
  0
SPLINE
  5
C7
330
1F
100
AcDbEntity
  8
0
  6
Continuous
 62
     7
370
    25
100
AcDbSpline
210
0.0
220
0.0
230
1.0
 70
     8
 71
     3
 72
    15
 73
    11
 74
     0
 42
0.000000001
 43
0.00000001
 40
0.0
 40
0.0
 40
0.0
 40
0.0
 40
0.1472985846902878
 40
0.2756504930886866
 40
0.3928141444239134
 40
0.5033990299456528
 40
0.6118667949945528
 40
0.7290304463298729
 40
0.8553653506994987
 40
1.0
 40
1.0
 40
1.0
 40
1.0
 10
-3732.711677451109
 20
6616.380912146645
 30
0.0
 10
-3732.733009293259
 20
6616.381907514686
 30
0.0
 10
-3732.772929112039
 20
6616.38377021888
 30
0.0
 10
-3732.829202480686
 20
6616.394704812681
 30
0.0
 10
-3732.876642461568
 20
6616.416050433529
 30
0.0
 10
-3732.916221568557
 20
6616.445293853495
 30
0.0
 10
-3732.946388923684
 20
6616.484349416981
 30
0.0
 10
-3732.966712527774
 20
6616.531512812478
 30
0.0
 10
-3732.979910788478
 20
6616.58653979692
 30
0.0
 10
-3732.981445347265
 20
6616.625863935708
 30
0.0
 10
-3732.982264444352
 20
6616.646853869617
 30
0.0
  0
SPLINE
  5
C9
330
1F
100
AcDbEntity
  8
0
  6
Continuous
 62
     7
370
    25
100
AcDbSpline
210
0.0
220
0.0
230
1.0
 70
     8
 71
     3
 72
    15
 73
    11
 74
     0
 42
0.000000001
 43
0.00000001
 40
0.0
 40
0.0
 40
0.0
 40
0.0
 40
0.1376465333874938
 40
0.2584939900654024
 40
0.3721777144533581
 40
0.4802669656692319
 40
0.591682815608555
 40
0.7125302722864186
 40
0.847138714983762
 40
1.0
 40
1.0
 40
1.0
 40
1.0
 10
-3732.982264444352
 20
6621.614970423671
 30
0.0
 10
-3732.981539206345
 20
6621.635977465878
 30
0.0
 10
-3732.980177242033
 20
6621.675427744975
 30
0.0
 10
-3732.965676537253
 20
6621.730653975105
 30
0.0
 10
-3732.942896270233
 20
6621.778111539717
 30
0.0
 10
-3732.908923459652
 20
6621.816649531041
 30
0.0
 10
-3732.865763268733
 20
6621.846119182452
 30
0.0
 10
-3732.81356604367
 20
6621.86722769059
 30
0.0
 10
-3732.751978134485
 20
6621.877991578981
 30
0.0
 10
-3732.70823006825
 20
6621.8798982691
 30
0.0
 10
-3732.684967147055
 20
6621.880912146644
 30
0.0
  0
SPLINE
  5
CA
330
1F
100
AcDbEntity
  8
0
  6
Continuous
 62
     7
370
    25
100
AcDbSpline
210
0.0
220
0.0
230
1.0
 70
     8
 71
     3
 72
    15
 73
    11
 74
     0
 42
0.000000001
 43
0.00000001
 40
0.0
 40
0.0
 40
0.0
 40
0.0
 40
0.1691382693020971
 40
0.3176902073342466
 40
0.4474110356377995
 40
0.5634106106293771
 40
0.6687664326273852
 40
0.7731538901271353
 40
0.8800408488353577
 40
0.9999999999999999
 40
0.9999999999999999
 40
0.9999999999999999
 40
0.9999999999999999
 10
-3732.684967147055
 20
6621.880912146644
 30
0.0
 10
-3732.655857941526
 20
6621.880600251645
 30
0.0
 10
-3732.601182500079
 20
6621.880014423333
 30
0.0
 10
-3732.525318505153
 20
6621.866528276028
 30
0.0
 10
-3732.459743693371
 20
6621.848145993792
 30
0.0
 10
-3732.40672901318
 20
6621.818474518566
 30
0.0
 10
-3732.363590719161
 20
6621.781852742719
 30
0.0
 10
-3732.334476949459
 20
6621.735088938475
 30
0.0
 10
-3732.315998495777
 20
6621.680568411972
 30
0.0
 10
-3732.314263181842
 20
6621.641458720965
 30
0.0
 10
-3732.313345525433
 20
6621.62077701151
 30
0.0
  0
SPLINE
  5
CD
330
1F
100
AcDbEntity
  8
0
  6
Continuous
 62
     7
370
    25
100
AcDbSpline
210
0.0
220
0.0
230
1.0
 70
     8
 71
     3
 72
    23
 73
    19
 74
     0
 42
0.000000001
 43
0.00000001
 40
0.0
 40
0.0
 40
0.0
 40
0.0
 40
0.0685531417639265
 40
0.134717980329464
 40
0.1991962546843875
 40
0.2623387307751813
 40
0.3251763369185954
 40
0.3873915998287911
 40
0.4512397782103663
 40
0.5161347178016013
 40
0.5810659883891829
 40
0.6431755650827018
 40
0.7039028057300946
 40
0.7628279826377669
 40
0.821592849789249
 40
0.8802974879193002
 40
0.9395647256157743
 40
1.0
 40
1.0
 40
1.0
 40
1.0
 10
-3731.31228978219
 20
6619.651182416914
 30
0.0
 10
-3731.266563274289
 20
6619.650072243825
 30
0.0
 10
-3731.176703311153
 20
6619.647890574646
 30
0.0
 10
-3731.044657429305
 20
6619.630525853108
 30
0.0
 10
-3730.919008822681
 20
6619.599621952176
 30
0.0
 10
-3730.798209408771
 20
6619.559618821128
 30
0.0
 10
-3730.684621682528
 20
6619.505586730192
 30
0.0
 10
-3730.576185202924
 20
6619.441104067873
 30
0.0
 10
-3730.474121069375
 20
6619.364482926852
 30
0.0
 10
-3730.379538879112
 20
6619.276207217415
 30
0.0
 10
-3730.293831897457
 20
6619.180983114004
 30
0.0
 10
-3730.217015237196
 20
6619.081846083465
 30
0.0
 10
-3730.153530504694
 20
6618.978343990155
 30
0.0
 10
-3730.100216076721
 20
6618.871762789788
 30
0.0
 10
-3730.059635515967
 20
6618.761068501518
 30
0.0
 10
-3730.030573956466
 20
6618.646679453224
 30
0.0
 10
-3730.012544422394
 20
6618.52876109992
 30
0.0
 10
-3730.010382819236
 20
6618.448895218932
 30
0.0
 10
-3730.009291471379
 20
6618.408572619618
 30
0.0
  0
SPLINE
  5
CF
330
1F
100
AcDbEntity
  8
0
  6
Continuous
 62
     7
370
    25
100
AcDbSpline
210
0.0
220
0.0
230
1.0
 70
     8
 71
     3
 72
    15
 73
    11
 74
     0
 42
0.000000001
 43
0.00000001
 40
0.0
 40
0.0
 40
0.0
 40
0.0
 40
0.1210437057283509
 40
0.2311608615819608
 40
0.3345582471448437
 40
0.4404078971911054
 40
0.5564076305372053
 40
0.6855748386379515
 40
0.8323618927655856
 40
0.9999999999999999
 40
0.9999999999999999
 40
0.9999999999999999
 40
0.9999999999999999
 10
-3739.195777957866
 20
6616.648015187186
 30
0.0
 10
-3739.196776172808
 20
6616.62698082219
 30
0.0
 10
-3739.198682494371
 20
6616.586810852957
 30
0.0
 10
-3739.216284043295
 20
6616.53074185361
 30
0.0
 10
-3739.246395427284
 20
6616.483441227877
 30
0.0
 10
-3739.288984817108
 20
6616.445622034019
 30
0.0
 10
-3739.342091146645
 20
6616.414997639644
 30
0.0
 10
-3739.407415875244
 20
6616.394569380325
 30
0.0
 10
-3739.483810950142
 20
6616.383797038981
 30
0.0
 10
-3739.538331528625
 20
6616.381915371579
 30
0.0
 10
-3739.567399579487
 20
6616.380912146645
 30
0.0
  0
SPLINE
  5
D0
330
1F
100
AcDbEntity
  8
0
  6
Continuous
 62
     7
370
    25
100
AcDbSpline
210
0.0
220
0.0
230
1.0
 70
     8
 71
     3
 72
    15
 73
    11
 74
     0
 42
0.000000001
 43
0.00000001
 40
0.0
 40
0.0
 40
0.0
 40
0.0
 40
0.1526075283706368
 40
0.2869925149660325
 40
0.4076393594010201
 40
0.5203370983718375
 40
0.6282469165428355
 40
0.7394778111329557
 40
0.8625819660822871
 40
1.0
 40
1.0
 40
1.0
 40
1.0
 10
-3739.567399579487
 20
6616.380912146645
 30
0.0
 10
-3739.590668854335
 20
6616.381916736891
 30
0.0
 10
-3739.634428869202
 20
6616.383805961393
 30
0.0
 10
-3739.695937999852
 20
6616.394685002374
 30
0.0
 10
-3739.748601046443
 20
6616.415502710378
 30
0.0
 10
-3739.791048132539
 20
6616.446428222457
 30
0.0
 10
-3739.824997353527
 20
6616.48460705796
 30
0.0
 10
-3739.84862301714
 20
6616.531749256061
 30
0.0
 10
-3739.862403153033
 20
6616.587239337772
 30
0.0
 10
-3739.863904800513
 20
6616.627027869849
 30
0.0
 10
-3739.864696876784
 20
6616.648015187186
 30
0.0
  0
SPLINE
  5
D2
330
1F
100
AcDbEntity
  8
0
  6
Continuous
 62
     7
370
    25
100
AcDbSpline
210
0.0
220
0.0
230
1.0
 70
     8
 71
     3
 72
    15
 73
    11
 74
     0
 42
0.000000001
 43
0.00000001
 40
0.0
 40
0.0
 40
0.0
 40
0.0
 40
0.1373554302530982
 40
0.2604035025253785
 40
0.3715837235509715
 40
0.4813661282244146
 40
0.5925463492499676
 40
0.7131382304871943
 40
0.8474619951863277
 40
1.0
 40
1.0
 40
1.0
 40
1.0
 10
-3739.864696876784
 20
6621.648648633131
 30
0.0
 10
-3739.86389601091
 20
6621.669627535252
 30
0.0
 10
-3739.862377699779
 20
6621.709400113456
 30
0.0
 10
-3739.848709024737
 20
6621.764996908407
 30
0.0
 10
-3739.824577165918
 20
6621.812046370579
 30
0.0
 10
-3739.791839498787
 20
6621.851508958461
 30
0.0
 10
-3739.748125394245
 20
6621.880903892918
 30
0.0
 10
-3739.696020249836
 20
6621.902084194056
 30
0.0
 10
-3739.634403977404
 20
6621.912825968328
 30
0.0
 10
-3739.590660213127
 20
6621.914736012576
 30
0.0
 10
-3739.567399579487
 20
6621.915751673672
 30
0.0
  0
SPLINE
  5
D3
330
1F
100
AcDbEntity
  8
0
  6
Continuous
 62
     7
370
    25
100
AcDbSpline
210
0.0
220
0.0
230
1.0
 70
     8
 71
     3
 72
    15
 73
    11
 74
     0
 42
0.000000001
 43
0.00000001
 40
0.0
 40
0.0
 40
0.0
 40
0.0
 40
0.167568003901194
 40
0.3142936742424223
 40
0.4434068668691215
 40
0.5582581848719517
 40
0.6655816592802667
 40
0.768935805859521
 40
0.8790069126387442
 40
1.0
 40
1.0
 40
1.0
 40
1.0
 10
-3739.567399579487
 20
6621.915751673672
 30
0.0
 10
-3739.538340733376
 20
6621.914733886989
 30
0.0
 10
-3739.483837419494
 20
6621.9128249073
 30
0.0
 10
-3739.407329648385
 20
6621.902230849321
 30
0.0
 10
-3739.342543058459
 20
6621.881298736845
 30
0.0
 10
-3739.288221118427
 20
6621.852477834675
 30
0.0
 10
-3739.246799482379
 20
6621.813139543112
 30
0.0
 10
-3739.216210817334
 20
6621.766008420761
 30
0.0
 10
-3739.198703462519
 20
6621.709828211366
 30
0.0
 10
-3739.196783379025
 20
6621.669674490123
 30
0.0
 10
-3739.195777957865
 20
6621.648648633131
 30
0.0
  0
SPLINE
  5
D5
330
1F
100
AcDbEntity
  8
0
  6
Continuous
 62
     7
370
    25
100
AcDbSpline
210
0.0
220
0.0
230
1.0
 70
     8
 71
     3
 72
    15
 73
    11
 74
     0
 42
0.000000001
 43
0.00000001
 40
0.0
 40
0.0
 40
0.0
 40
0.0
 40
0.167862809216294
 40
0.3148466165912708
 40
0.444186960312151
 40
0.5592403382441572
 40
0.6652318690748006
 40
0.7706563435097213
 40
0.8787940473875386
 40
1.0
 40
1.0
 40
1.0
 40
1.0
 10
-3739.567399579487
 20
6623.070101335833
 30
0.0
 10
-3739.538337804332
 20
6623.06908636922
 30
0.0
 10
-3739.483828996678
 20
6623.067182678901
 30
0.0
 10
-3739.407357086644
 20
6623.056554094082
 30
0.0
 10
-3739.342457612669
 20
6623.035730665736
 30
0.0
 10
-3739.288727836708
 20
6623.0066901985
 30
0.0
 10
-3739.245998464961
 20
6622.96854932827
 30
0.0
 10
-3739.216881127795
 20
6622.920758590922
 30
0.0
 10
-3739.198444714224
 20
6622.865076836422
 30
0.0
 10
-3739.196700014933
 20
6622.825222338136
 30
0.0
 10
-3739.195777957865
 20
6622.804159612861
 30
0.0
  0
SPLINE
  5
D6
330
1F
100
AcDbEntity
  8
0
  6
Continuous
 62
     7
370
    25
100
AcDbSpline
210
0.0
220
0.0
230
1.0
 70
     8
 71
     3
 72
    15
 73
    11
 74
     0
 42
0.000000001
 43
0.00000001
 40
0.0
 40
0.0
 40
0.0
 40
0.0
 40
0.1226673979138255
 40
0.2322494730060126
 40
0.3370212333529644
 40
0.4438678834493358
 40
0.5582089319051416
 40
0.6867484913209431
 40
0.8331764790611281
 40
1.0
 40
1.0
 40
1.0
 40
1.0
 10
-3739.195777957865
 20
6622.804159612861
 30
0.0
 10
-3739.19672599194
 20
6622.78272822606
 30
0.0
 10
-3739.198520930269
 20
6622.742151606885
 30
0.0
 10
-3739.216535855622
 20
6622.685463740971
 30
0.0
 10
-3739.246383996971
 20
6622.637460630642
 30
0.0
 10
-3739.288274839398
 20
6622.598057747055
 30
0.0
 10
-3739.342514547764
 20
6622.569098796675
 30
0.0
 10
-3739.407450652364
 20
6622.548590426172
 30
0.0
 10
-3739.483701067108
 20
6622.536048886096
 30
0.0
 10
-3739.538314791338
 20
6622.534433109056
 30
0.0
 10
-3739.567399579487
 20
6622.533572619616
 30
0.0
  0
SPLINE
  5
D7
330
1F
100
AcDbEntity
  8
0
  6
Continuous
 62
     7
370
    25
100
AcDbSpline
210
0.0
220
0.0
230
1.0
 70
     8
 71
     3
 72
    15
 73
    11
 74
     0
 42
0.000000001
 43
0.00000001
 40
0.0
 40
0.0
 40
0.0
 40
0.0
 40
0.1517345703398943
 40
0.2858502498746784
 40
0.4058069603899457
 40
0.5164015829446462
 40
0.6256057515998075
 40
0.7384515324842623
 40
0.8608514970058463
 40
1.0
 40
1.0
 40
1.0
 40
1.0
 10
-3739.567399579487
 20
6622.533572619616
 30
0.0
 10
-3739.590691444853
 20
6622.534435658745
 30
0.0
 10
-3739.634570605154
 20
6622.536061523894
 30
0.0
 10
-3739.695873352721
 20
6622.548729314946
 30
0.0
 10
-3739.748153441679
 20
6622.56949331091
 30
0.0
 10
-3739.791796823663
 20
6622.599016807647
 30
0.0
 10
-3739.824945140143
 20
6622.638630964933
 30
0.0
 10
-3739.848412977029
 20
6622.686418755844
 30
0.0
 10
-3739.862534889151
 20
6622.742593617464
 30
0.0
 10
-3739.863946091616
 20
6622.782779825327
 30
0.0
 10
-3739.864696876784
 20
6622.804159612861
 30
0.0
  0
SPLINE
  5
D8
330
1F
100
AcDbEntity
  8
0
  6
Continuous
 62
     7
370
    25
100
AcDbSpline
210
0.0
220
0.0
230
1.0
 70
     8
 71
     3
 72
    15
 73
    11
 74
     0
 42
0.000000001
 43
0.00000001
 40
0.0
 40
0.0
 40
0.0
 40
0.0
 40
0.1376465333874938
 40
0.2584939900654024
 40
0.3721777144533581
 40
0.4802669656692319
 40
0.591682815608555
 40
0.7125302722864186
 40
0.847138714983762
 40
1.0
 40
1.0
 40
1.0
 40
1.0
 10
-3739.864696876784
 20
6622.804159612861
 30
0.0
 10
-3739.863971638777
 20
6622.825166655067
 30
0.0
 10
-3739.862609674465
 20
6622.864616934165
 30
0.0
 10
-3739.848108969686
 20
6622.919843164294
 30
0.0
 10
-3739.825328702666
 20
6622.967300728907
 30
0.0
 10
-3739.791355892085
 20
6623.005838720229
 30
0.0
 10
-3739.748195701165
 20
6623.035308371641
 30
0.0
 10
-3739.695998476102
 20
6623.056416879779
 30
0.0
 10
-3739.634410566917
 20
6623.067180768171
 30
0.0
 10
-3739.590662500681
 20
6623.06908745829
 30
0.0
 10
-3739.567399579487
 20
6623.070101335833
 30
0.0
  0
SPLINE
  5
D9
330
1F
100
AcDbEntity
  8
0
  6
Continuous
 62
     7
370
    25
100
AcDbSpline
210
0.0
220
0.0
230
1.0
 70
     8
 71
     3
 72
    15
 73
    11
 74
     0
 42
0.000000001
 43
0.00000001
 40
0.0
 40
0.0
 40
0.0
 40
0.0
 40
0.1212059526124559
 40
0.229343656490285
 40
0.3347681309252541
 40
0.4407596617558962
 40
0.5558130396878967
 40
0.6851533834087753
 40
0.8321371907837081
 40
1.0
 40
1.0
 40
1.0
 40
1.0
 10
-3734.453886065973
 20
6616.646853869617
 30
0.0
 10
-3734.454808123042
 20
6616.625791144341
 30
0.0
 10
-3734.456552822332
 20
6616.585936646055
 30
0.0
 10
-3734.474989235904
 20
6616.530254891557
 30
0.0
 10
-3734.50410657307
 20
6616.482464154209
 30
0.0
 10
-3734.546835944815
 20
6616.444323283978
 30
0.0
 10
-3734.600565720777
 20
6616.415282816743
 30
0.0
 10
-3734.665465194752
 20
6616.394459388395
 30
0.0
 10
-3734.741937104786
 20
6616.383830803577
 30
0.0
 10
-3734.796445912439
 20
6616.381927113259
 30
0.0
 10
-3734.825507687595
 20
6616.380912146645
 30
0.0
  0
SPLINE
  5
DA
330
1F
100
AcDbEntity
  8
0
  6
Continuous
 62
     7
370
    25
100
AcDbSpline
210
0.0
220
0.0
230
1.0
 70
     8
 71
     3
 72
    15
 73
    11
 74
     0
 42
0.000000001
 43
0.00000001
 40
0.0
 40
0.0
 40
0.0
 40
0.0
 40
0.1538927873091676
 40
0.2894095627950345
 40
0.4110724936372406
 40
0.5232401736076195
 40
0.6301460973349665
 40
0.7423137773053388
 40
0.8639767081475327
 40
1.0
 40
1.0
 40
1.0
 40
1.0
 10
-3734.825507687594
 20
6616.380912146645
 30
0.0
 10
-3734.848772198545
 20
6616.381924488282
 30
0.0
 10
-3734.892523254463
 20
6616.383828289988
 30
0.0
 10
-3734.954091452372
 20
6616.394611221982
 30
0.0
 10
-3735.006352669654
 20
6616.415657905482
 30
0.0
 10
-3735.049059112238
 20
6616.445168667759
 30
0.0
 10
-3735.083435469098
 20
6616.482409714012
 30
0.0
 10
-3735.10644085218
 20
6616.529143466724
 30
0.0
 10
-3735.120580008309
 20
6616.583708677677
 30
0.0
 10
-3735.122036274389
 20
6616.62275746571
 30
0.0
 10
-3735.122804984892
 20
6616.643369916915
 30
0.0
  0
SPLINE
  5
DE
330
1F
100
AcDbEntity
  8
0
  6
Continuous
 62
     7
370
    25
100
AcDbSpline
210
0.0
220
0.0
230
1.0
 70
     8
 71
     3
 72
    11
 73
     7
 74
     0
 42
0.000000001
 43
0.00000001
 40
0.0
 40
0.0
 40
0.0
 40
0.0
 40
0.2301959670043399
 40
0.4560600787794907
 40
0.7031878330326368
 40
1.0
 40
1.0
 40
1.0
 40
1.0
 10
-3737.222467147054
 20
6616.567884275023
 30
0.0
 10
-3737.234348037642
 20
6616.539422710446
 30
0.0
 10
-3737.257886242799
 20
6616.483035174419
 30
0.0
 10
-3737.331488274398
 20
6616.420860156501
 30
0.0
 10
-3737.428966943208
 20
6616.38580249524
 30
0.0
 10
-3737.501234086192
 20
6616.382638594885
 30
0.0
 10
-3737.540668160568
 20
6616.380912146645
 30
0.0
  0
SPLINE
  5
DF
330
1F
100
AcDbEntity
  8
0
  6
Continuous
 62
     7
370
    25
100
AcDbSpline
210
0.0
220
0.0
230
1.0
 70
     8
 71
     3
 72
    15
 73
    11
 74
     0
 42
0.000000001
 43
0.00000001
 40
0.0
 40
0.0
 40
0.0
 40
0.0
 40
0.1490635051903074
 40
0.2818442409441534
 40
0.400731527071447
 40
0.5112289549475498
 40
0.6207008624670721
 40
0.7358837692991197
 40
0.8588803628870012
 40
1.0
 40
1.0
 40
1.0
 40
1.0
 10
-3737.540668160568
 20
6616.380912146645
 30
0.0
 10
-3737.562371774799
 20
6616.381957346957
 30
0.0
 10
-3737.60340823554
 20
6616.383933576405
 30
0.0
 10
-3737.661362969166
 20
6616.394417064793
 30
0.0
 10
-3737.709781403006
 20
6616.416247527002
 30
0.0
 10
-3737.751330188215
 20
6616.443937938659
 30
0.0
 10
-3737.781854417168
 20
6616.482944075377
 30
0.0
 10
-3737.804166905509
 20
6616.528805512226
 30
0.0
 10
-3737.816929069473
 20
6616.583095903235
 30
0.0
 10
-3737.818529338758
 20
6616.62162315051
 30
0.0
 10
-3737.819384376784
 20
6616.642208599346
 30
0.0
  0
SPLINE
  5
E0
330
1F
100
AcDbEntity
  8
0
  6
Continuous
 62
     7
370
    25
100
AcDbSpline
210
0.0
220
0.0
230
1.0
 70
     8
 71
     3
 72
     9
 73
     5
 74
     0
 42
0.000000001
 43
0.00000001
 40
0.0
 40
0.0
 40
0.0
 40
0.0
 40
0.4957413518341813
 40
1.0
 40
1.0
 40
1.0
 40
1.0
 10
-3737.819384376784
 20
6616.642208599346
 30
0.0
 10
-3737.818206796502
 20
6616.656591482006
 30
0.0
 10
-3737.815831404014
 20
6616.685604358589
 30
0.0
 10
-3737.808929108287
 20
6616.713885226914
 30
0.0
 10
-3737.805448565974
 20
6616.728146099347
 30
0.0
  0
SPLINE
  5
E2
330
1F
100
AcDbEntity
  8
0
  6
Continuous
 62
     7
370
    25
100
AcDbSpline
210
0.0
220
0.0
230
1.0
 70
     8
 71
     3
 72
    11
 73
     7
 74
     0
 42
0.000000001
 43
0.00000001
 40
0.0
 40
0.0
 40
0.0
 40
0.0
 40
0.2624685167006835
 40
0.4999991169493397
 40
0.7366564399761176
 40
1.0
 40
1.0
 40
1.0
 40
1.0
 10
-3736.263218836244
 20
6621.693940018265
 30
0.0
 10
-3736.252178862449
 20
6621.722010277947
 30
0.0
 10
-3736.231147855692
 20
6621.775483758232
 30
0.0
 10
-3736.172341068292
 20
6621.838662673423
 30
0.0
 10
-3736.094129569302
 20
6621.875398350139
 30
0.0
 10
-3736.036775336276
 20
6621.879009961053
 30
0.0
 10
-3736.006567653812
 20
6621.880912146644
 30
0.0
  0
SPLINE
  5
E4
330
1F
100
AcDbEntity
  8
0
  6
Continuous
 62
     7
370
    25
100
AcDbSpline
210
0.0
220
0.0
230
1.0
 70
     8
 71
     3
 72
    15
 73
    11
 74
     0
 42
0.000000001
 43
0.00000001
 40
0.0
 40
0.0
 40
0.0
 40
0.0
 40
0.1678628092162971
 40
0.3148466165912344
 40
0.4441869603121169
 40
0.5592403382441626
 40
0.665231869074808
 40
0.7706563435097079
 40
0.8787940473875403
 40
1.0
 40
1.0
 40
1.0
 40
1.0
 10
-3734.825507687594
 20
6621.880912146644
 30
0.0
 10
-3734.796445912439
 20
6621.87989718003
 30
0.0
 10
-3734.741937104786
 20
6621.877993489711
 30
0.0
 10
-3734.665465194752
 20
6621.867364904893
 30
0.0
 10
-3734.600565720777
 20
6621.846541476547
 30
0.0
 10
-3734.546835944815
 20
6621.817501009311
 30
0.0
 10
-3734.50410657307
 20
6621.779360139079
 30
0.0
 10
-3734.474989235904
 20
6621.731569401732
 30
0.0
 10
-3734.456552822332
 20
6621.675887647233
 30
0.0
 10
-3734.454808123042
 20
6621.636033148947
 30
0.0
 10
-3734.453886065973
 20
6621.614970423671
 30
0.0
  0
SPLINE
  5
E6
330
1F
100
AcDbEntity
  8
0
  6
Continuous
 62
     7
370
    25
100
AcDbSpline
210
0.0
220
0.0
230
1.0
 70
     8
 71
     3
 72
    15
 73
    11
 74
     0
 42
0.000000001
 43
0.00000001
 40
0.0
 40
0.0
 40
0.0
 40
0.0
 40
0.1212059526124566
 40
0.2293436564902694
 40
0.3347681309252357
 40
0.4407596617559064
 40
0.5558130396878666
 40
0.6851533834087417
 40
0.8321371907837126
 40
1.0
 40
1.0
 40
1.0
 40
1.0
 10
-3741.261994174081
 20
6616.646853869617
 30
0.0
 10
-3741.26291623115
 20
6616.625791144341
 30
0.0
 10
-3741.26466093044
 20
6616.585936646055
 30
0.0
 10
-3741.283097344012
 20
6616.530254891557
 30
0.0
 10
-3741.312214681177
 20
6616.482464154209
 30
0.0
 10
-3741.354944052924
 20
6616.444323283978
 30
0.0
 10
-3741.408673828885
 20
6616.415282816743
 30
0.0
 10
-3741.47357330286
 20
6616.394459388395
 30
0.0
 10
-3741.550045212894
 20
6616.383830803577
 30
0.0
 10
-3741.604554020547
 20
6616.381927113259
 30
0.0
 10
-3741.633615795703
 20
6616.380912146645
 30
0.0
  0
SPLINE
  5
E7
330
1F
100
AcDbEntity
  8
0
  6
Continuous
 62
     7
370
    25
100
AcDbSpline
210
0.0
220
0.0
230
1.0
 70
     8
 71
     3
 72
    15
 73
    11
 74
     0
 42
0.000000001
 43
0.00000001
 40
0.0
 40
0.0
 40
0.0
 40
0.0
 40
0.1538927873091249
 40
0.2894095627949973
 40
0.4110724936372083
 40
0.5232401736075917
 40
0.6301460973349431
 40
0.7423137773053199
 40
0.8639767081475308
 40
1.0
 40
1.0
 40
1.0
 40
1.0
 10
-3741.633615795703
 20
6616.380912146645
 30
0.0
 10
-3741.656880306653
 20
6616.381924488282
 30
0.0
 10
-3741.700631362571
 20
6616.383828289988
 30
0.0
 10
-3741.76219956048
 20
6616.394611221982
 30
0.0
 10
-3741.814460777763
 20
6616.415657905482
 30
0.0
 10
-3741.857167220346
 20
6616.445168667759
 30
0.0
 10
-3741.891543577206
 20
6616.482409714012
 30
0.0
 10
-3741.914548960288
 20
6616.529143466724
 30
0.0
 10
-3741.928688116418
 20
6616.583708677677
 30
0.0
 10
-3741.930144382497
 20
6616.62275746571
 30
0.0
 10
-3741.930913093001
 20
6616.643369916915
 30
0.0
  0
SPLINE
  5
EB
330
1F
100
AcDbEntity
  8
0
  6
Continuous
 62
     7
370
    25
100
AcDbSpline
210
0.0
220
0.0
230
1.0
 70
     8
 71
     3
 72
    15
 73
    11
 74
     0
 42
0.000000001
 43
0.00000001
 40
0.0
 40
0.0
 40
0.0
 40
0.0
 40
0.1196517683248627
 40
0.2283994244660655
 40
0.3325193999703129
 40
0.4376052586397062
 40
0.5533075967933438
 40
0.6833774865705077
 40
0.8311903582105322
 40
1.0
 40
1.0
 40
1.0
 40
1.0
 10
-3743.566048228135
 20
6616.643369916915
 30
0.0
 10
-3743.567022350845
 20
6616.622706230334
 30
0.0
 10
-3743.568881822453
 20
6616.583261981508
 30
0.0
 10
-3743.586889343112
 20
6616.52817701948
 30
0.0
 10
-3743.616324782272
 20
6616.481165650965
 30
0.0
 10
-3743.65939645053
 20
6616.444409637673
 30
0.0
 10
-3743.712674462251
 20
6616.415216382449
 30
0.0
 10
-3743.777644511306
 20
6616.394480721702
 30
0.0
 10
-3743.854094001006
 20
6616.38382425482
 30
0.0
 10
-3743.908606243364
 20
6616.38192483592
 30
0.0
 10
-3743.937669849757
 20
6616.380912146645
 30
0.0
  0
SPLINE
  5
EC
330
1F
100
AcDbEntity
  8
0
  6
Continuous
 62
     7
370
    25
100
AcDbSpline
210
0.0
220
0.0
230
1.0
 70
     8
 71
     3
 72
    15
 73
    11
 74
     0
 42
0.000000001
 43
0.00000001
 40
0.0
 40
0.0
 40
0.0
 40
0.0
 40
0.1528612850162332
 40
0.2874697277135725
 40
0.4083171843914323
 40
0.5197330343306964
 40
0.6278222855465667
 40
0.7415060099346058
 40
0.8623534666125106
 40
1.0
 40
1.0
 40
1.0
 40
1.0
 10
-3743.937669849757
 20
6616.380912146645
 30
0.0
 10
-3743.960932770952
 20
6616.381926024189
 30
0.0
 10
-3744.004680837187
 20
6616.383832714308
 30
0.0
 10
-3744.066268746372
 20
6616.394596602699
 30
0.0
 10
-3744.118465971435
 20
6616.415705110836
 30
0.0
 10
-3744.161626162355
 20
6616.445174762248
 30
0.0
 10
-3744.195598972936
 20
6616.48371275357
 30
0.0
 10
-3744.218379239956
 20
6616.531170318183
 30
0.0
 10
-3744.232879944735
 20
6616.586396548313
 30
0.0
 10
-3744.234241909047
 20
6616.625846827413
 30
0.0
 10
-3744.234967147055
 20
6616.646853869617
 30
0.0
  0
SPLINE
  5
EE
330
1F
100
AcDbEntity
  8
0
  6
Continuous
 62
     7
370
    25
100
AcDbSpline
210
0.0
220
0.0
230
1.0
 70
     8
 71
     3
 72
    15
 73
    11
 74
     0
 42
0.000000001
 43
0.00000001
 40
0.0
 40
0.0
 40
0.0
 40
0.0
 40
0.1446346493005057
 40
0.2709695536701356
 40
0.3881332050053661
 40
0.4966009700542696
 40
0.6071858555760741
 40
0.7243495069113047
 40
0.8527014153097074
 40
1.0
 40
1.0
 40
1.0
 40
1.0
 10
-3744.234967147055
 20
6621.614970423671
 30
0.0
 10
-3744.234148049968
 20
6621.635960357579
 30
0.0
 10
-3744.23261349118
 20
6621.675284496368
 30
0.0
 10
-3744.219415230477
 20
6621.73031148081
 30
0.0
 10
-3744.199091626387
 20
6621.777474876308
 30
0.0
 10
-3744.16892427126
 20
6621.816530439793
 30
0.0
 10
-3744.129345164271
 20
6621.84577385976
 30
0.0
 10
-3744.081905183389
 20
6621.867119480608
 30
0.0
 10
-3744.025631814742
 20
6621.878054074407
 30
0.0
 10
-3743.985711995962
 20
6621.879916778602
 30
0.0
 10
-3743.964380153811
 20
6621.880912146644
 30
0.0
  0
SPLINE
  5
F0
330
1F
100
AcDbEntity
  8
0
  6
Continuous
 62
     7
370
    25
100
AcDbSpline
210
0.0
220
0.0
230
1.0
 70
     8
 71
     3
 72
    15
 73
    11
 74
     0
 42
0.000000001
 43
0.00000001
 40
0.0
 40
0.0
 40
0.0
 40
0.0
 40
0.1639665985561042
 40
0.3062159556880902
 40
0.4326931973574706
 40
0.5469961700258695
 40
0.6528275420541777
 40
0.7607314766540655
 40
0.87317730943415
 40
0.9999999999999999
 40
0.9999999999999999
 40
0.9999999999999999
 40
0.9999999999999999
 10
-3741.606905491649
 20
6621.880912146644
 30
0.0
 10
-3741.579777283939
 20
6621.879910889447
 30
0.0
 10
-3741.529113977369
 20
6621.878040990748
 30
0.0
 10
-3741.457980404451
 20
6621.867308965081
 30
0.0
 10
-3741.397792312816
 20
6621.846291924753
 30
0.0
 10
-3741.347645261761
 20
6621.817496447074
 30
0.0
 10
-3741.308542698102
 20
6621.778771904907
 30
0.0
 10
-3741.281984586063
 20
6621.731168297661
 30
0.0
 10
-3741.264918424504
 20
6621.67571162625
 30
0.0
 10
-3741.263007203874
 20
6621.636012618748
 30
0.0
 10
-3741.261994174081
 20
6621.614970423671
 30
0.0
  0
CIRCLE
  5
F2
330
1F
100
AcDbEntity
  8
0
  6
Continuous
 62
     7
370
    25
100
AcDbCircle
 10
-3744.2150548988
 20
6624.9698095122
 30
0.0
 40
0.75
  0
CIRCLE
  5
F3
330
1F
100
AcDbEntity
  8
0
  6
Continuous
 62
     7
370
    25
100
AcDbCircle
 10
-3744.2150548988
 20
6624.9698095122
 30
0.0
 40
1.5
  0
LINE
  5
1AE
330
1F
100
AcDbEntity
  8
0
  6
Continuous
 62
     7
370
    25
100
AcDbLine
 10
-3750.0025347146
 20
6621.6149704237
 30
0.0
 11
-3750.0025347146
 21
6616.6468538696
 31
0.0
  0
LINE
  5
1AF
330
1F
100
AcDbEntity
  8
0
  6
Continuous
 62
     7
370
    25
100
AcDbLine
 10
-3750.6714536335
 20
6616.6468538696
 30
0.0
 11
-3750.6714536335
 21
6619.0565878223
 31
0.0
  0
LINE
  5
1B0
330
1F
100
AcDbEntity
  8
0
  6
Continuous
 62
     7
370
    25
100
AcDbLine
 10
-3750.6714536335
 20
6619.0565878223
 30
0.0
 11
-3752.3065887687
 21
6619.0565878223
 31
0.0
  0
LINE
  5
1B1
330
1F
100
AcDbEntity
  8
0
  6
Continuous
 62
     7
370
    25
100
AcDbLine
 10
-3752.3065887687
 20
6619.0565878223
 30
0.0
 11
-3752.3065887687
 21
6616.6468538696
 31
0.0
  0
LINE
  5
1B2
330
1F
100
AcDbEntity
  8
0
  6
Continuous
 62
     7
370
    25
100
AcDbLine
 10
-3752.9755076876
 20
6616.6468538696
 30
0.0
 11
-3752.9755076876
 21
6621.6149704237
 31
0.0
  0
LINE
  5
1B3
330
1F
100
AcDbEntity
  8
0
  6
Continuous
 62
     7
370
    25
100
AcDbLine
 10
-3752.3065887687
 20
6621.6207770115
 30
0.0
 11
-3752.3065887687
 21
6619.6511824169
 31
0.0
  0
LINE
  5
1B4
330
1F
100
AcDbEntity
  8
0
  6
Continuous
 62
     7
370
    25
100
AcDbLine
 10
-3752.3065887687
 20
6619.6511824169
 30
0.0
 11
-3750.6714536335
 21
6619.6511824169
 31
0.0
  0
LINE
  5
1B5
330
1F
100
AcDbEntity
  8
0
  6
Continuous
 62
     7
370
    25
100
AcDbLine
 10
-3750.6714536335
 20
6619.6511824169
 30
0.0
 11
-3750.6714536335
 21
6621.6207770115
 31
0.0
  0
LINE
  5
1B6
330
1F
100
AcDbEntity
  8
0
  6
Continuous
 62
     7
370
    25
100
AcDbLine
 10
-3746.9724249173
 20
6621.286317552
 30
0.0
 11
-3747.3428852214
 21
6621.286317552
 31
0.0
  0
LINE
  5
1B7
330
1F
100
AcDbEntity
  8
0
  6
Continuous
 62
     7
370
    25
100
AcDbLine
 10
-3747.9363184984
 20
6620.6173986331
 30
0.0
 11
-3747.9363184984
 21
6617.6444256602
 31
0.0
  0
LINE
  5
1B8
330
1F
100
AcDbEntity
  8
0
  6
Continuous
 62
     7
370
    25
100
AcDbLine
 10
-3747.3428852214
 20
6616.9755067412
 30
0.0
 11
-3746.9724249173
 21
6616.9755067412
 31
0.0
  0
LINE
  5
1B9
330
1F
100
AcDbEntity
  8
0
  6
Continuous
 62
     7
370
    25
100
AcDbLine
 10
-3746.3011833633
 20
6617.6444256602
 30
0.0
 11
-3746.3011833633
 21
6620.6173986331
 31
0.0
  0
LINE
  5
1BA
330
1F
100
AcDbEntity
  8
0
  6
Continuous
 62
     7
370
    25
100
AcDbLine
 10
-3746.9619730592
 20
6616.3809121466
 30
0.0
 11
-3747.3544983971
 21
6616.3809121466
 31
0.0
  0
LINE
  5
1BB
330
1F
100
AcDbEntity
  8
0
  6
Continuous
 62
     7
370
    25
100
AcDbLine
 10
-3748.6052374173
 20
6617.6014569102
 30
0.0
 11
-3748.6052374173
 21
6620.6603673831
 31
0.0
  0
LINE
  5
1BC
330
1F
100
AcDbEntity
  8
0
  6
Continuous
 62
     7
370
    25
100
AcDbLine
 10
-3747.3544983971
 20
6621.8809121466
 30
0.0
 11
-3746.9619730592
 21
6621.8809121466
 31
0.0
  0
LINE
  5
1BD
330
1F
100
AcDbEntity
  8
0
  6
Continuous
 62
     7
370
    25
100
AcDbLine
 10
-3745.6322644444
 20
6620.6603673831
 30
0.0
 11
-3745.6322644444
 21
6617.6014569102
 31
0.0
  0
LINE
  5
1BE
330
1F
100
AcDbEntity
  8
0
  6
Continuous
 62
     7
370
    25
100
AcDbLine
 10
-3764.5998320119
 20
6621.286317552
 30
0.0
 11
-3765.4870786335
 21
6621.286317552
 31
0.0
  0
LINE
  5
1BF
330
1F
100
AcDbEntity
  8
0
  6
Continuous
 62
     7
370
    25
100
AcDbLine
 10
-3765.4870786335
 20
6621.8809121466
 30
0.0
 11
-3763.1133455254
 21
6621.8809121466
 31
0.0
  0
LINE
  5
1C0
330
1F
100
AcDbEntity
  8
0
  6
Continuous
 62
     7
370
    25
100
AcDbLine
 10
-3763.1133455254
 20
6621.286317552
 30
0.0
 11
-3763.930913093
 21
6621.286317552
 31
0.0
  0
LINE
  5
1C1
330
1F
100
AcDbEntity
  8
0
  6
Continuous
 62
     7
370
    25
100
AcDbLine
 10
-3763.930913093
 20
6621.286317552
 30
0.0
 11
-3763.930913093
 21
6616.6433699169
 31
0.0
  0
LINE
  5
1C2
330
1F
100
AcDbEntity
  8
0
  6
Continuous
 62
     7
370
    25
100
AcDbLine
 10
-3764.5998320119
 20
6616.6433699169
 30
0.0
 11
-3764.5998320119
 21
6621.286317552
 31
0.0
  0
LINE
  5
1C3
330
1F
100
AcDbEntity
  8
0
  6
Continuous
 62
     7
370
    25
100
AcDbLine
 10
-3760.6755076876
 20
6619.0565878223
 30
0.0
 11
-3760.6755076876
 21
6616.9755067412
 31
0.0
  0
LINE
  5
1C4
330
1F
100
AcDbEntity
  8
0
  6
Continuous
 62
     7
370
    25
100
AcDbLine
 10
-3760.6755076876
 20
6616.9755067412
 30
0.0
 11
-3759.0937931606
 21
6616.9755067412
 31
0.0
  0
LINE
  5
1C5
330
1F
100
AcDbEntity
  8
0
  6
Continuous
 62
     7
370
    25
100
AcDbLine
 10
-3759.0937931606
 20
6616.3809121466
 30
0.0
 11
-3761.0471293092
 21
6616.3809121466
 31
0.0
  0
LINE
  5
1C6
330
1F
100
AcDbEntity
  8
0
  6
Continuous
 62
     7
370
    25
100
AcDbLine
 10
-3761.3444266065
 20
6616.6468538696
 30
0.0
 11
-3761.3444266065
 21
6621.6149704237
 31
0.0
  0
LINE
  5
1C7
330
1F
100
AcDbEntity
  8
0
  6
Continuous
 62
     7
370
    25
100
AcDbLine
 10
-3761.0471293092
 20
6621.8809121466
 30
0.0
 11
-3759.0937931606
 21
6621.8809121466
 31
0.0
  0
LINE
  5
1C8
330
1F
100
AcDbEntity
  8
0
  6
Continuous
 62
     7
370
    25
100
AcDbLine
 10
-3759.0937931606
 20
6621.286317552
 30
0.0
 11
-3760.6755076876
 21
6621.286317552
 31
0.0
  0
LINE
  5
1C9
330
1F
100
AcDbEntity
  8
0
  6
Continuous
 62
     7
370
    25
100
AcDbLine
 10
-3760.6755076876
 20
6621.286317552
 30
0.0
 11
-3760.6755076876
 21
6619.6511824169
 31
0.0
  0
LINE
  5
1CA
330
1F
100
AcDbEntity
  8
0
  6
Continuous
 62
     7
370
    25
100
AcDbLine
 10
-3760.6755076876
 20
6619.6511824169
 30
0.0
 11
-3759.8625853903
 21
6619.6511824169
 31
0.0
  0
LINE
  5
1CB
330
1F
100
AcDbEntity
  8
0
  6
Continuous
 62
     7
370
    25
100
AcDbLine
 10
-3759.8625853903
 20
6619.0565878223
 30
0.0
 11
-3760.6755076876
 21
6619.0565878223
 31
0.0
  0
LINE
  5
1CC
330
1F
100
AcDbEntity
  8
0
  6
Continuous
 62
     7
370
    25
100
AcDbLine
 10
-3755.0417239038
 20
6619.919446775
 30
0.0
 11
-3755.0417239038
 21
6620.6429476196
 31
0.0
  0
LINE
  5
1CD
330
1F
100
AcDbEntity
  8
0
  6
Continuous
 62
     7
370
    25
100
AcDbLine
 10
-3755.7129654579
 20
6621.286317552
 30
0.0
 11
-3756.6768590389
 21
6621.286317552
 31
0.0
  0
LINE
  5
1CE
330
1F
100
AcDbEntity
  8
0
  6
Continuous
 62
     7
370
    25
100
AcDbLine
 10
-3756.6768590389
 20
6621.286317552
 30
0.0
 11
-3756.6768590389
 21
6619.2795607953
 31
0.0
  0
LINE
  5
1CF
330
1F
100
AcDbEntity
  8
0
  6
Continuous
 62
     7
370
    25
100
AcDbLine
 10
-3756.6768590389
 20
6619.2795607953
 30
0.0
 11
-3755.7129654579
 21
6619.2795607953
 31
0.0
  0
LINE
  5
1D0
330
1F
100
AcDbEntity
  8
0
  6
Continuous
 62
     7
370
    25
100
AcDbLine
 10
-3757.3457779579
 20
6616.6468538696
 30
0.0
 11
-3757.3457779579
 21
6621.6149704237
 31
0.0
  0
LINE
  5
1D1
330
1F
100
AcDbEntity
  8
0
  6
Continuous
 62
     7
370
    25
100
AcDbLine
 10
-3757.0751909646
 20
6621.8809121466
 30
0.0
 11
-3755.7025135998
 21
6621.8809121466
 31
0.0
  0
LINE
  5
1D2
330
1F
100
AcDbEntity
  8
0
  6
Continuous
 62
     7
370
    25
100
AcDbLine
 10
-3754.3728049849
 20
6620.6650126534
 30
0.0
 11
-3754.3728049849
 21
6619.8973817412
 31
0.0
  0
LINE
  5
1D3
330
1F
100
AcDbEntity
  8
0
  6
Continuous
 62
     7
370
    25
100
AcDbLine
 10
-3755.6758032957
 20
6618.6849662007
 30
0.0
 11
-3756.6768590389
 21
6618.6849662007
 31
0.0
  0
LINE
  5
1D4
330
1F
100
AcDbEntity
  8
0
  6
Continuous
 62
     7
370
    25
100
AcDbLine
 10
-3756.6768590389
 20
6618.6849662007
 30
0.0
 11
-3756.6768590389
 21
6616.6468538696
 31
0.0
  0
LINE
  5
1D5
330
1F
100
AcDbEntity
  8
0
  6
Continuous
 62
     7
370
    25
100
AcDbLine
 10
-3731.3494519444
 20
6619.0565878223
 30
0.0
 11
-3732.3133455254
 21
6619.0565878223
 31
0.0
  0
LINE
  5
1D6
330
1F
100
AcDbEntity
  8
0
  6
Continuous
 62
     7
370
    25
100
AcDbLine
 10
-3732.3133455254
 20
6619.0565878223
 30
0.0
 11
-3732.3133455254
 21
6616.9755067412
 31
0.0
  0
LINE
  5
1D7
330
1F
100
AcDbEntity
  8
0
  6
Continuous
 62
     7
370
    25
100
AcDbLine
 10
-3732.3133455254
 20
6616.9755067412
 30
0.0
 11
-3731.3494519444
 21
6616.9755067412
 31
0.0
  0
LINE
  5
1D8
330
1F
100
AcDbEntity
  8
0
  6
Continuous
 62
     7
370
    25
100
AcDbLine
 10
-3730.6782103903
 20
6617.6455869777
 30
0.0
 11
-3730.6782103903
 21
6618.3899915385
 31
0.0
  0
LINE
  5
1D9
330
1F
100
AcDbEntity
  8
0
  6
Continuous
 62
     7
370
    25
100
AcDbLine
 10
-3731.3390000862
 20
6616.3809121466
 30
0.0
 11
-3732.7116774511
 21
6616.3809121466
 31
0.0
  0
LINE
  5
1DA
330
1F
100
AcDbEntity
  8
0
  6
Continuous
 62
     7
370
    25
100
AcDbLine
 10
-3732.9822644444
 20
6616.6468538696
 30
0.0
 11
-3732.9822644444
 21
6621.6149704237
 31
0.0
  0
LINE
  5
1DB
330
1F
100
AcDbEntity
  8
0
  6
Continuous
 62
     7
370
    25
100
AcDbLine
 10
-3732.3133455254
 20
6621.6207770115
 30
0.0
 11
-3732.3133455254
 21
6619.6511824169
 31
0.0
  0
LINE
  5
1DC
330
1F
100
AcDbEntity
  8
0
  6
Continuous
 62
     7
370
    25
100
AcDbLine
 10
-3732.3133455254
 20
6619.6511824169
 30
0.0
 11
-3731.3122897822
 21
6619.6511824169
 31
0.0
  0
LINE
  5
1DD
330
1F
100
AcDbEntity
  8
0
  6
Continuous
 62
     7
370
    25
100
AcDbLine
 10
-3730.0092914714
 20
6618.4085726196
 30
0.0
 11
-3730.0092914714
 21
6617.6270058966
 31
0.0
  0
LINE
  5
1DE
330
1F
100
AcDbEntity
  8
0
  6
Continuous
 62
     7
370
    25
100
AcDbLine
 10
-3739.8646968768
 20
6616.6480151872
 30
0.0
 11
-3739.8646968768
 21
6621.6486486331
 31
0.0
  0
LINE
  5
1DF
330
1F
100
AcDbEntity
  8
0
  6
Continuous
 62
     7
370
    25
100
AcDbLine
 10
-3739.1957779579
 20
6621.6486486331
 30
0.0
 11
-3739.1957779579
 21
6616.6480151872
 31
0.0
  0
LINE
  5
1E0
330
1F
100
AcDbEntity
  8
0
  6
Continuous
 62
     7
370
    25
100
AcDbLine
 10
-3735.1228049849
 20
6616.6433699169
 30
0.0
 11
-3735.1228049849
 21
6621.286317552
 31
0.0
  0
LINE
  5
1E1
330
1F
100
AcDbEntity
  8
0
  6
Continuous
 62
     7
370
    25
100
AcDbLine
 10
-3735.1228049849
 20
6621.286317552
 30
0.0
 11
-3735.7383032957
 21
6621.286317552
 31
0.0
  0
LINE
  5
1E2
330
1F
100
AcDbEntity
  8
0
  6
Continuous
 62
     7
370
    25
100
AcDbLine
 10
-3735.7383032957
 20
6621.286317552
 30
0.0
 11
-3737.2224671471
 21
6616.567884275
 31
0.0
  0
LINE
  5
1E3
330
1F
100
AcDbEntity
  8
0
  6
Continuous
 62
     7
370
    25
100
AcDbLine
 10
-3737.805448566
 20
6616.7281460993
 30
0.0
 11
-3736.2632188362
 21
6621.6939400183
 31
0.0
  0
LINE
  5
1E4
330
1F
100
AcDbEntity
  8
0
  6
Continuous
 62
     7
370
    25
100
AcDbLine
 10
-3736.0065676538
 20
6621.8809121466
 30
0.0
 11
-3734.8255076876
 21
6621.8809121466
 31
0.0
  0
LINE
  5
1E5
330
1F
100
AcDbEntity
  8
0
  6
Continuous
 62
     7
370
    25
100
AcDbLine
 10
-3734.453886066
 20
6621.6149704237
 30
0.0
 11
-3734.453886066
 21
6616.6468538696
 31
0.0
  0
LINE
  5
1E6
330
1F
100
AcDbEntity
  8
0
  6
Continuous
 62
     7
370
    25
100
AcDbLine
 10
-3741.930913093
 20
6616.6433699169
 30
0.0
 11
-3741.930913093
 21
6621.286317552
 31
0.0
  0
LINE
  5
1E7
330
1F
100
AcDbEntity
  8
0
  6
Continuous
 62
     7
370
    25
100
AcDbLine
 10
-3741.930913093
 20
6621.286317552
 30
0.0
 11
-3743.5660482281
 21
6621.286317552
 31
0.0
  0
LINE
  5
1E8
330
1F
100
AcDbEntity
  8
0
  6
Continuous
 62
     7
370
    25
100
AcDbLine
 10
-3743.5660482281
 20
6621.286317552
 30
0.0
 11
-3743.5660482281
 21
6616.6433699169
 31
0.0
  0
LINE
  5
1E9
330
1F
100
AcDbEntity
  8
0
  6
Continuous
 62
     7
370
    25
100
AcDbLine
 10
-3744.2349671471
 20
6616.6468538696
 30
0.0
 11
-3744.2349671471
 21
6621.6149704237
 31
0.0
  0
LINE
  5
1EA
330
1F
100
AcDbEntity
  8
0
  6
Continuous
 62
     7
370
    25
100
AcDbLine
 10
-3743.9643801538
 20
6621.8809121466
 30
0.0
 11
-3741.6069054916
 21
6621.8809121466
 31
0.0
  0
LINE
  5
1EB
330
1F
100
AcDbEntity
  8
0
  6
Continuous
 62
     7
370
    25
100
AcDbLine
 10
-3741.2619941741
 20
6621.6149704237
 30
0.0
 11
-3741.2619941741
 21
6616.6468538696
 31
0.0
  0
LINE
  5
1EC
330
1F
100
AcDbEntity
  8
0
  6
Continuous
 62
     7
370
    25
100
AcDbLine
 10
-3722.9795805345
 20
6574.903643418
 30
0.0
 11
-3722.0710225345
 21
6575.096810418
 31
0.0
  0
LINE
  5
1ED
330
1F
100
AcDbEntity
  8
0
  6
Continuous
 62
     7
370
    25
100
AcDbLine
 10
-3724.4075685345
 20
6574.382689418
 30
0.0
 11
-3722.9795805345
 21
6574.903643418
 31
0.0
  0
LINE
  5
1EE
330
1F
100
AcDbEntity
  8
0
  6
Continuous
 62
     7
370
    25
100
AcDbLine
 10
-3725.9652235345
 20
6574.804583418
 30
0.0
 11
-3724.4075685345
 21
6574.382689418
 31
0.0
  0
LINE
  5
1EF
330
1F
100
AcDbEntity
  8
0
  6
Continuous
 62
     7
370
    25
100
AcDbLine
 10
-3727.3272985345
 20
6575.486827418
 30
0.0
 11
-3725.9652235345
 21
6574.804583418
 31
0.0
  0
LINE
  5
1F0
330
1F
100
AcDbEntity
  8
0
  6
Continuous
 62
     7
370
    25
100
AcDbLine
 10
-3728.8532035345
 20
6575.746034418
 30
0.0
 11
-3727.3272985345
 21
6575.486827418
 31
0.0
  0
LINE
  5
1F1
330
1F
100
AcDbEntity
  8
0
  6
Continuous
 62
     7
370
    25
100
AcDbLine
 10
-3730.2165485345
 20
6576.848775418
 30
0.0
 11
-3728.8532035345
 21
6575.746034418
 31
0.0
  0
LINE
  5
1F2
330
1F
100
AcDbEntity
  8
0
  6
Continuous
 62
     7
370
    25
100
AcDbLine
 10
-3730.8966335345
 20
6578.309910418
 30
0.0
 11
-3730.2165485345
 21
6576.848775418
 31
0.0
  0
LINE
  5
1F3
330
1F
100
AcDbEntity
  8
0
  6
Continuous
 62
     7
370
    25
100
AcDbLine
 10
-3731.4166985345
 20
6578.731804418
 30
0.0
 11
-3730.8966335345
 21
6578.309910418
 31
0.0
  0
LINE
  5
1F4
330
1F
100
AcDbEntity
  8
0
  6
Continuous
 62
     7
370
    25
100
AcDbLine
 10
-3732.3575145345
 20
6577.368459418
 30
0.0
 11
-3731.4166985345
 21
6578.731804418
 31
0.0
  0
LINE
  5
1F5
330
1F
100
AcDbEntity
  8
0
  6
Continuous
 62
     7
370
    25
100
AcDbLine
 10
-3733.2011755345
 20
6578.406557418
 30
0.0
 11
-3732.3575145345
 21
6577.368459418
 31
0.0
  0
LINE
  5
1F6
330
1F
100
AcDbEntity
  8
0
  6
Continuous
 62
     7
370
    25
100
AcDbLine
 10
-3733.2985845345
 20
6580.191669418
 30
0.0
 11
-3733.2011755345
 21
6578.406557418
 31
0.0
  0
LINE
  5
1F7
330
1F
100
AcDbEntity
  8
0
  6
Continuous
 62
     7
370
    25
100
AcDbLine
 10
-3733.7197165345
 20
6581.490117418
 30
0.0
 11
-3733.2985845345
 21
6580.191669418
 31
0.0
  0
LINE
  5
1F8
330
1F
100
AcDbEntity
  8
0
  6
Continuous
 62
     7
370
    25
100
AcDbLine
 10
-3734.4989885345
 20
6581.651407418
 30
0.0
 11
-3733.7197165345
 21
6581.490117418
 31
0.0
  0
LINE
  5
1F9
330
1F
100
AcDbEntity
  8
0
  6
Continuous
 62
     7
370
    25
100
AcDbLine
 10
-3735.6021105345
 20
6580.711226418
 30
0.0
 11
-3734.4989885345
 21
6581.651407418
 31
0.0
  0
LINE
  5
1FA
330
1F
100
AcDbEntity
  8
0
  6
Continuous
 62
     7
370
    25
100
AcDbLine
 10
-3736.1855485345
 20
6580.711226418
 30
0.0
 11
-3735.6021105345
 21
6580.711226418
 31
0.0
  0
LINE
  5
1FB
330
1F
100
AcDbEntity
  8
0
  6
Continuous
 62
     7
370
    25
100
AcDbLine
 10
-3737.4834885345
 20
6580.093752418
 30
0.0
 11
-3736.1855485345
 21
6580.711226418
 31
0.0
  0
LINE
  5
1FC
330
1F
100
AcDbEntity
  8
0
  6
Continuous
 62
     7
370
    25
100
AcDbLine
 10
-3739.5919425345
 20
6580.288189418
 30
0.0
 11
-3737.4834885345
 21
6580.093752418
 31
0.0
  0
LINE
  5
1FD
330
1F
100
AcDbEntity
  8
0
  6
Continuous
 62
     7
370
    25
100
AcDbLine
 10
-3739.9485585345
 20
6581.554887418
 30
0.0
 11
-3739.5919425345
 21
6580.288189418
 31
0.0
  0
LINE
  5
1FE
330
1F
100
AcDbEntity
  8
0
  6
Continuous
 62
     7
370
    25
100
AcDbLine
 10
-3740.6305485345
 20
6582.398548418
 30
0.0
 11
-3739.9485585345
 21
6581.554887418
 31
0.0
  0
LINE
  5
1FF
330
1F
100
AcDbEntity
  8
0
  6
Continuous
 62
     7
370
    25
100
AcDbLine
 10
-3741.9933855345
 20
6583.338729418
 30
0.0
 11
-3740.6305485345
 21
6582.398548418
 31
0.0
  0
LINE
  5
200
330
1F
100
AcDbEntity
  8
0
  6
Continuous
 62
     7
370
    25
100
AcDbLine
 10
-3743.5194175345
 20
6582.592985418
 30
0.0
 11
-3741.9933855345
 21
6583.338729418
 31
0.0
  0
LINE
  5
201
330
1F
100
AcDbEntity
  8
0
  6
Continuous
 62
     7
370
    25
100
AcDbLine
 10
-3746.2770955345
 20
6583.858413418
 30
0.0
 11
-3743.5194175345
 21
6582.592985418
 31
0.0
  0
LINE
  5
202
330
1F
100
AcDbEntity
  8
0
  6
Continuous
 62
     7
370
    25
100
AcDbLine
 10
-3746.3412305345
 20
6584.117620418
 30
0.0
 11
-3746.2770955345
 21
6583.858413418
 31
0.0
  0
LINE
  5
203
330
1F
100
AcDbEntity
  8
0
  6
Continuous
 62
     7
370
    25
100
AcDbLine
 10
-3746.0173805345
 20
6584.961281418
 30
0.0
 11
-3746.3412305345
 21
6584.117620418
 31
0.0
  0
LINE
  5
204
330
1F
100
AcDbEntity
  8
0
  6
Continuous
 62
     7
370
    25
100
AcDbLine
 10
-3747.0229665345
 20
6586.258459418
 30
0.0
 11
-3746.0173805345
 21
6584.961281418
 31
0.0
  0
LINE
  5
205
330
1F
100
AcDbEntity
  8
0
  6
Continuous
 62
     7
370
    25
100
AcDbLine
 10
-3746.4390205345
 20
6587.004203418
 30
0.0
 11
-3747.0229665345
 21
6586.258459418
 31
0.0
  0
LINE
  5
206
330
1F
100
AcDbEntity
  8
0
  6
Continuous
 62
     7
370
    25
100
AcDbLine
 10
-3746.5040445345
 20
6588.043571418
 30
0.0
 11
-3746.4390205345
 21
6587.004203418
 31
0.0
  0
LINE
  5
207
330
1F
100
AcDbEntity
  8
0
  6
Continuous
 62
     7
370
    25
100
AcDbLine
 10
-3751.1112235345
 20
6591.709045418
 30
0.0
 11
-3746.5040445345
 21
6588.043571418
 31
0.0
  0
LINE
  5
208
330
1F
100
AcDbEntity
  8
0
  6
Continuous
 62
     7
370
    25
100
AcDbLine
 10
-3751.5660105345
 20
6593.494157418
 30
0.0
 11
-3751.1112235345
 21
6591.709045418
 31
0.0
  0
LINE
  5
209
330
1F
100
AcDbEntity
  8
0
  6
Continuous
 62
     7
370
    25
100
AcDbLine
 10
-3752.2468575345
 20
6593.591947418
 30
0.0
 11
-3751.5660105345
 21
6593.494157418
 31
0.0
  0
LINE
  5
20A
330
1F
100
AcDbEntity
  8
0
  6
Continuous
 62
     7
370
    25
100
AcDbLine
 10
-3752.9929825345
 20
6592.489206418
 30
0.0
 11
-3752.2468575345
 21
6593.591947418
 31
0.0
  0
LINE
  5
20B
330
1F
100
AcDbEntity
  8
0
  6
Continuous
 62
     7
370
    25
100
AcDbLine
 10
-3755.0375555345
 20
6592.910973418
 30
0.0
 11
-3752.9929825345
 21
6592.489206418
 31
0.0
  0
LINE
  5
20C
330
1F
100
AcDbEntity
  8
0
  6
Continuous
 62
     7
370
    25
100
AcDbLine
 10
-3756.2377055345
 20
6593.689864418
 30
0.0
 11
-3755.0375555345
 21
6592.910973418
 31
0.0
  0
LINE
  5
20D
330
1F
100
AcDbEntity
  8
0
  6
Continuous
 62
     7
370
    25
100
AcDbLine
 10
-3757.4386175345
 20
6594.012571418
 30
0.0
 11
-3756.2377055345
 21
6593.689864418
 31
0.0
  0
LINE
  5
20E
330
1F
100
AcDbEntity
  8
0
  6
Continuous
 62
     7
370
    25
100
AcDbLine
 10
-3758.8993715345
 20
6593.689864418
 30
0.0
 11
-3757.4386175345
 21
6594.012571418
 31
0.0
  0
LINE
  5
20F
330
1F
100
AcDbEntity
  8
0
  6
Continuous
 62
     7
370
    25
100
AcDbLine
 10
-3759.0606615345
 20
6594.792605418
 30
0.0
 11
-3758.8993715345
 21
6593.689864418
 31
0.0
  0
LINE
  5
210
330
1F
100
AcDbEntity
  8
0
  6
Continuous
 62
     7
370
    25
100
AcDbLine
 10
-3758.1203535345
 20
6596.154680418
 30
0.0
 11
-3759.0606615345
 21
6594.792605418
 31
0.0
  0
LINE
  5
211
330
1F
100
AcDbEntity
  8
0
  6
Continuous
 62
     7
370
    25
100
AcDbLine
 10
-3758.8993715345
 20
6597.162171418
 30
0.0
 11
-3758.1203535345
 21
6596.154680418
 31
0.0
  0
LINE
  5
212
330
1F
100
AcDbEntity
  8
0
  6
Continuous
 62
     7
370
    25
100
AcDbLine
 10
-3760.0992675345
 20
6595.993263418
 30
0.0
 11
-3758.8993715345
 21
6597.162171418
 31
0.0
  0
LINE
  5
213
330
1F
100
AcDbEntity
  8
0
  6
Continuous
 62
     7
370
    25
100
AcDbLine
 10
-3760.3592365345
 20
6594.369568418
 30
0.0
 11
-3760.0992675345
 21
6595.993263418
 31
0.0
  0
LINE
  5
214
330
1F
100
AcDbEntity
  8
0
  6
Continuous
 62
     7
370
    25
100
AcDbLine
 10
-3761.0404645345
 20
6595.473706418
 30
0.0
 11
-3760.3592365345
 21
6594.369568418
 31
0.0
  0
LINE
  5
215
330
1F
100
AcDbEntity
  8
0
  6
Continuous
 62
     7
370
    25
100
AcDbLine
 10
-3761.3650765345
 20
6596.576447418
 30
0.0
 11
-3761.0404645345
 21
6595.473706418
 31
0.0
  0
LINE
  5
216
330
1F
100
AcDbEntity
  8
0
  6
Continuous
 62
     7
370
    25
100
AcDbLine
 10
-3761.0404645345
 20
6597.777105418
 30
0.0
 11
-3761.3650765345
 21
6596.576447418
 31
0.0
  0
LINE
  5
217
330
1F
100
AcDbEntity
  8
0
  6
Continuous
 62
     7
370
    25
100
AcDbLine
 10
-3761.1047265345
 20
6598.524246418
 30
0.0
 11
-3761.0404645345
 21
6597.777105418
 31
0.0
  0
LINE
  5
218
330
1F
100
AcDbEntity
  8
0
  6
Continuous
 62
     7
370
    25
100
AcDbLine
 10
-3761.2018815345
 20
6600.600315418
 30
0.0
 11
-3761.1047265345
 21
6598.524246418
 31
0.0
  0
LINE
  5
219
330
1F
100
AcDbEntity
  8
0
  6
Continuous
 62
     7
370
    25
100
AcDbLine
 10
-3762.8240525345
 20
6600.600315418
 30
0.0
 11
-3761.2018815345
 21
6600.600315418
 31
0.0
  0
LINE
  5
21A
330
1F
100
AcDbEntity
  8
0
  6
Continuous
 62
     7
370
    25
100
AcDbLine
 10
-3764.7714705345
 20
6600.827772418
 30
0.0
 11
-3762.8240525345
 21
6600.600315418
 31
0.0
  0
LINE
  5
21B
330
1F
100
AcDbEntity
  8
0
  6
Continuous
 62
     7
370
    25
100
AcDbLine
 10
-3765.3878015345
 20
6601.703183418
 30
0.0
 11
-3764.7714705345
 21
6600.827772418
 31
0.0
  0
LINE
  5
21C
330
1F
100
AcDbEntity
  8
0
  6
Continuous
 62
     7
370
    25
100
AcDbLine
 10
-3765.5497265345
 20
6602.903841418
 30
0.0
 11
-3765.3878015345
 21
6601.703183418
 31
0.0
  0
LINE
  5
21D
330
1F
100
AcDbEntity
  8
0
  6
Continuous
 62
     7
370
    25
100
AcDbLine
 10
-3766.0691565345
 20
6603.325608418
 30
0.0
 11
-3765.5497265345
 21
6602.903841418
 31
0.0
  0
LINE
  5
21E
330
1F
100
AcDbEntity
  8
0
  6
Continuous
 62
     7
370
    25
100
AcDbLine
 10
-3768.1128405345
 20
6603.390378418
 30
0.0
 11
-3766.0691565345
 21
6603.325608418
 31
0.0
  0
LINE
  5
21F
330
1F
100
AcDbEntity
  8
0
  6
Continuous
 62
     7
370
    25
100
AcDbLine
 10
-3768.0163205345
 20
6604.526266418
 30
0.0
 11
-3768.1128405345
 21
6603.390378418
 31
0.0
  0
LINE
  5
220
330
1F
100
AcDbEntity
  8
0
  6
Continuous
 62
     7
370
    25
100
AcDbLine
 10
-3766.2323515345
 20
6604.526266418
 30
0.0
 11
-3768.0163205345
 21
6604.526266418
 31
0.0
  0
LINE
  5
221
330
1F
100
AcDbEntity
  8
0
  6
Continuous
 62
     7
370
    25
100
AcDbLine
 10
-3765.0310585345
 20
6603.747375418
 30
0.0
 11
-3766.2323515345
 21
6604.526266418
 31
0.0
  0
LINE
  5
222
330
1F
100
AcDbEntity
  8
0
  6
Continuous
 62
     7
370
    25
100
AcDbLine
 10
-3764.5109935345
 20
6604.170539418
 30
0.0
 11
-3765.0310585345
 21
6603.747375418
 31
0.0
  0
LINE
  5
223
330
1F
100
AcDbEntity
  8
0
  6
Continuous
 62
     7
370
    25
100
AcDbLine
 10
-3765.2907735345
 20
6605.369927418
 30
0.0
 11
-3764.5109935345
 21
6604.170539418
 31
0.0
  0
LINE
  5
224
330
1F
100
AcDbEntity
  8
0
  6
Continuous
 62
     7
370
    25
100
AcDbLine
 10
-3765.2907735345
 20
6606.733145418
 30
0.0
 11
-3765.2907735345
 21
6605.369927418
 31
0.0
  0
LINE
  5
225
330
1F
100
AcDbEntity
  8
0
  6
Continuous
 62
     7
370
    25
100
AcDbLine
 10
-3767.4322475345
 20
6607.316329418
 30
0.0
 11
-3765.2907735345
 21
6606.733145418
 31
0.0
  0
LINE
  5
226
330
1F
100
AcDbEntity
  8
0
  6
Continuous
 62
     7
370
    25
100
AcDbLine
 10
-3767.9514235345
 20
6608.679674418
 30
0.0
 11
-3767.4322475345
 21
6607.316329418
 31
0.0
  0
LINE
  5
227
330
1F
100
AcDbEntity
  8
0
  6
Continuous
 62
     7
370
    25
100
AcDbLine
 10
-3768.7947035345
 20
6610.237329418
 30
0.0
 11
-3767.9514235345
 21
6608.679674418
 31
0.0
  0
LINE
  5
228
330
1F
100
AcDbEntity
  8
0
  6
Continuous
 62
     7
370
    25
100
AcDbLine
 10
-3765.9712395345
 20
6612.606895418
 30
0.0
 11
-3768.7947035345
 21
6610.237329418
 31
0.0
  0
LINE
  5
229
330
1F
100
AcDbEntity
  8
0
  6
Continuous
 62
     7
370
    25
100
AcDbLine
 10
-3768.6971675345
 20
6613.481036418
 30
0.0
 11
-3765.9712395345
 21
6612.606895418
 31
0.0
  0
LINE
  5
22A
330
1F
100
AcDbEntity
  8
0
  6
Continuous
 62
     7
370
    25
100
AcDbLine
 10
-3769.4761855345
 20
6616.792053418
 30
0.0
 11
-3768.6971675345
 21
6613.481036418
 31
0.0
  0
LINE
  5
22B
330
1F
100
AcDbEntity
  8
0
  6
Continuous
 62
     7
370
    25
100
AcDbLine
 10
-3768.7947035345
 20
6617.473027418
 30
0.0
 11
-3769.4761855345
 21
6616.792053418
 31
0.0
  0
LINE
  5
22C
330
1F
100
AcDbEntity
  8
0
  6
Continuous
 62
     7
370
    25
100
AcDbLine
 10
-3769.6388725345
 20
6618.770332418
 30
0.0
 11
-3768.7947035345
 21
6617.473027418
 31
0.0
  0
LINE
  5
22D
330
1F
100
AcDbEntity
  8
0
  6
Continuous
 62
     7
370
    25
100
AcDbLine
 10
-3770.0606395345
 20
6619.452576418
 30
0.0
 11
-3769.6388725345
 21
6618.770332418
 31
0.0
  0
LINE
  5
22E
330
1F
100
AcDbEntity
  8
0
  6
Continuous
 62
     7
370
    25
100
AcDbLine
 10
-3770.6764625345
 20
6619.452576418
 30
0.0
 11
-3770.0606395345
 21
6619.452576418
 31
0.0
  0
LINE
  5
22F
330
1F
100
AcDbEntity
  8
0
  6
Continuous
 62
     7
370
    25
100
AcDbLine
 10
-3771.0986105345
 20
6621.496895418
 30
0.0
 11
-3770.6764625345
 21
6619.452576418
 31
0.0
  0
LINE
  5
230
330
1F
100
AcDbEntity
  8
0
  6
Continuous
 62
     7
370
    25
100
AcDbLine
 10
-3770.5795615345
 20
6621.917392418
 30
0.0
 11
-3771.0986105345
 21
6621.496895418
 31
0.0
  0
LINE
  5
231
330
1F
100
AcDbEntity
  8
0
  6
Continuous
 62
     7
370
    25
100
AcDbLine
 10
-3771.1956385345
 20
6623.799024418
 30
0.0
 11
-3770.5795615345
 21
6621.917392418
 31
0.0
  0
LINE
  5
232
330
1F
100
AcDbEntity
  8
0
  6
Continuous
 62
     7
370
    25
100
AcDbLine
 10
-3771.2612975345
 20
6624.999682418
 30
0.0
 11
-3771.1956385345
 21
6623.799024418
 31
0.0
  0
LINE
  5
233
330
1F
100
AcDbEntity
  8
0
  6
Continuous
 62
     7
370
    25
100
AcDbLine
 10
-3771.0986105345
 20
6624.999682418
 30
0.0
 11
-3771.2612975345
 21
6624.999682418
 31
0.0
  0
LINE
  5
234
330
1F
100
AcDbEntity
  8
0
  6
Continuous
 62
     7
370
    25
100
AcDbLine
 10
-3770.4821525345
 20
6628.147123418
 30
0.0
 11
-3771.0986105345
 21
6624.999682418
 31
0.0
  0
LINE
  5
235
330
1F
100
AcDbEntity
  8
0
  6
Continuous
 62
     7
370
    25
100
AcDbLine
 10
-3769.1193155345
 20
6628.147123418
 30
0.0
 11
-3770.4821525345
 21
6628.147123418
 31
0.0
  0
LINE
  5
236
330
1F
100
AcDbEntity
  8
0
  6
Continuous
 62
     7
370
    25
100
AcDbLine
 10
-3763.4085065345
 20
6631.133020418
 30
0.0
 11
-3769.1193155345
 21
6628.147123418
 31
0.0
  0
LINE
  5
237
330
1F
100
AcDbEntity
  8
0
  6
Continuous
 62
     7
370
    25
100
AcDbLine
 10
-3761.8833635345
 20
6634.734105418
 30
0.0
 11
-3763.4085065345
 21
6631.133020418
 31
0.0
  0
LINE
  5
238
330
1F
100
AcDbEntity
  8
0
  6
Continuous
 62
     7
370
    25
100
AcDbLine
 10
-3761.0404645345
 20
6634.961308418
 30
0.0
 11
-3761.8833635345
 21
6634.734105418
 31
0.0
  0
LINE
  5
239
330
1F
100
AcDbEntity
  8
0
  6
Continuous
 62
     7
370
    25
100
AcDbLine
 10
-3760.0992675345
 20
6634.052623418
 30
0.0
 11
-3761.0404645345
 21
6634.961308418
 31
0.0
  0
LINE
  5
23A
330
1F
100
AcDbEntity
  8
0
  6
Continuous
 62
     7
370
    25
100
AcDbLine
 10
-3758.6392755345
 20
6636.162220418
 30
0.0
 11
-3760.0992675345
 21
6634.052623418
 31
0.0
  0
LINE
  5
23B
330
1F
100
AcDbEntity
  8
0
  6
Continuous
 62
     7
370
    25
100
AcDbLine
 10
-3759.3207575345
 20
6637.362116418
 30
0.0
 11
-3758.6392755345
 21
6636.162220418
 31
0.0
  0
LINE
  5
23C
330
1F
100
AcDbEntity
  8
0
  6
Continuous
 62
     7
370
    25
100
AcDbLine
 10
-3758.9632525345
 20
6639.406689418
 30
0.0
 11
-3759.3207575345
 21
6637.362116418
 31
0.0
  0
LINE
  5
23D
330
1F
100
AcDbEntity
  8
0
  6
Continuous
 62
     7
370
    25
100
AcDbLine
 10
-3757.8605115345
 20
6638.985557418
 30
0.0
 11
-3758.9632525345
 21
6639.406689418
 31
0.0
  0
LINE
  5
23E
330
1F
100
AcDbEntity
  8
0
  6
Continuous
 62
     7
370
    25
100
AcDbLine
 10
-3755.9784985345
 20
6640.087917418
 30
0.0
 11
-3757.8605115345
 21
6638.985557418
 31
0.0
  0
LINE
  5
23F
330
1F
100
AcDbEntity
  8
0
  6
Continuous
 62
     7
370
    25
100
AcDbLine
 10
-3755.6531245345
 20
6639.341919418
 30
0.0
 11
-3755.9784985345
 21
6640.087917418
 31
0.0
  0
LINE
  5
240
330
1F
100
AcDbEntity
  8
0
  6
Continuous
 62
     7
370
    25
100
AcDbLine
 10
-3752.6693865345
 20
6639.341919418
 30
0.0
 11
-3755.6531245345
 21
6639.341919418
 31
0.0
  0
LINE
  5
241
330
1F
100
AcDbEntity
  8
0
  6
Continuous
 62
     7
370
    25
100
AcDbLine
 10
-3751.8252175345
 20
6640.347759418
 30
0.0
 11
-3752.6693865345
 21
6639.341919418
 31
0.0
  0
LINE
  5
242
330
1F
100
AcDbEntity
  8
0
  6
Continuous
 62
     7
370
    25
100
AcDbLine
 10
-3749.9435855345
 20
6640.769526418
 30
0.0
 11
-3751.8252175345
 21
6640.347759418
 31
0.0
  0
LINE
  5
243
330
1F
100
AcDbEntity
  8
0
  6
Continuous
 62
     7
370
    25
100
AcDbLine
 10
-3748.7433085345
 20
6644.371500418
 30
0.0
 11
-3749.9435855345
 21
6640.769526418
 31
0.0
  0
LINE
  5
244
330
1F
100
AcDbEntity
  8
0
  6
Continuous
 62
     7
370
    25
100
AcDbLine
 10
-3748.4835935345
 20
6646.415438418
 30
0.0
 11
-3748.7433085345
 21
6644.371500418
 31
0.0
  0
LINE
  5
245
330
1F
100
AcDbEntity
  8
0
  6
Continuous
 62
     7
370
    25
100
AcDbLine
 10
-3750.4306305345
 20
6648.037101418
 30
0.0
 11
-3748.4835935345
 21
6646.415438418
 31
0.0
  0
LINE
  5
246
330
1F
100
AcDbEntity
  8
0
  6
Continuous
 62
     7
370
    25
100
AcDbLine
 10
-3750.7219685345
 20
6648.264812418
 30
0.0
 11
-3750.4306305345
 21
6648.037101418
 31
0.0
  0
LINE
  5
247
330
1F
100
AcDbEntity
  8
0
  6
Continuous
 62
     7
370
    25
100
AcDbLine
 10
-3749.4239015345
 20
6648.199661418
 30
0.0
 11
-3750.7219685345
 21
6648.264812418
 31
0.0
  0
LINE
  5
248
330
1F
100
AcDbEntity
  8
0
  6
Continuous
 62
     7
370
    25
100
AcDbLine
 10
-3748.8073165345
 20
6649.660161418
 30
0.0
 11
-3749.4239015345
 21
6648.199661418
 31
0.0
  0
LINE
  5
249
330
1F
100
AcDbEntity
  8
0
  6
Continuous
 62
     7
370
    25
100
AcDbLine
 10
-3746.6013265345
 20
6649.724804418
 30
0.0
 11
-3748.8073165345
 21
6649.660161418
 31
0.0
  0
LINE
  5
24A
330
1F
100
AcDbEntity
  8
0
  6
Continuous
 62
     7
370
    25
100
AcDbLine
 10
-3746.3412305345
 20
6651.185558418
 30
0.0
 11
-3746.6013265345
 21
6649.724804418
 31
0.0
  0
LINE
  5
24B
330
1F
100
AcDbEntity
  8
0
  6
Continuous
 62
     7
370
    25
100
AcDbLine
 10
-3745.4985855345
 20
6651.185558418
 30
0.0
 11
-3746.3412305345
 21
6651.185558418
 31
0.0
  0
LINE
  5
24C
330
1F
100
AcDbEntity
  8
0
  6
Continuous
 62
     7
370
    25
100
AcDbLine
 10
-3745.7571575345
 20
6652.385708418
 30
0.0
 11
-3745.4985855345
 21
6651.185558418
 31
0.0
  0
LINE
  5
24D
330
1F
100
AcDbEntity
  8
0
  6
Continuous
 62
     7
370
    25
100
AcDbLine
 10
-3746.2770955345
 20
6652.482482418
 30
0.0
 11
-3745.7571575345
 21
6652.385708418
 31
0.0
  0
LINE
  5
24E
330
1F
100
AcDbEntity
  8
0
  6
Continuous
 62
     7
370
    25
100
AcDbLine
 10
-3746.2770955345
 20
6654.592206418
 30
0.0
 11
-3746.2770955345
 21
6652.482482418
 31
0.0
  0
LINE
  5
24F
330
1F
100
AcDbEntity
  8
0
  6
Continuous
 62
     7
370
    25
100
AcDbLine
 10
-3745.3362795345
 20
6654.786135418
 30
0.0
 11
-3746.2770955345
 21
6654.592206418
 31
0.0
  0
LINE
  5
250
330
1F
100
AcDbEntity
  8
0
  6
Continuous
 62
     7
370
    25
100
AcDbLine
 10
-3744.7195675345
 20
6653.910470418
 30
0.0
 11
-3745.3362795345
 21
6654.786135418
 31
0.0
  0
LINE
  5
251
330
1F
100
AcDbEntity
  8
0
  6
Continuous
 62
     7
370
    25
100
AcDbLine
 10
-3742.5137045345
 20
6653.845446418
 30
0.0
 11
-3744.7195675345
 21
6653.910470418
 31
0.0
  0
LINE
  5
252
330
1F
100
AcDbEntity
  8
0
  6
Continuous
 62
     7
370
    25
100
AcDbLine
 10
-3741.6697895345
 20
6654.170185418
 30
0.0
 11
-3742.5137045345
 21
6653.845446418
 31
0.0
  0
LINE
  5
253
330
1F
100
AcDbEntity
  8
0
  6
Continuous
 62
     7
370
    25
100
AcDbLine
 10
-3740.7936165345
 20
6653.585985418
 30
0.0
 11
-3741.6697895345
 21
6654.170185418
 31
0.0
  0
LINE
  5
254
330
1F
100
AcDbEntity
  8
0
  6
Continuous
 62
     7
370
    25
100
AcDbLine
 10
-3739.7875225345
 20
6654.267213418
 30
0.0
 11
-3740.7936165345
 21
6653.585985418
 31
0.0
  0
LINE
  5
255
330
1F
100
AcDbEntity
  8
0
  6
Continuous
 62
     7
370
    25
100
AcDbLine
 10
-3736.7049785345
 20
6654.007879418
 30
0.0
 11
-3739.7875225345
 21
6654.267213418
 31
0.0
  0
LINE
  5
256
330
1F
100
AcDbEntity
  8
0
  6
Continuous
 62
     7
370
    25
100
AcDbLine
 10
-3735.7642895345
 20
6654.332745418
 30
0.0
 11
-3736.7049785345
 21
6654.007879418
 31
0.0
  0
LINE
  5
257
330
1F
100
AcDbEntity
  8
0
  6
Continuous
 62
     7
370
    25
100
AcDbLine
 10
-3734.6611675345
 20
6654.527055418
 30
0.0
 11
-3735.7642895345
 21
6654.332745418
 31
0.0
  0
LINE
  5
258
330
1F
100
AcDbEntity
  8
0
  6
Continuous
 62
     7
370
    25
100
AcDbLine
 10
-3731.9358745345
 20
6657.350519418
 30
0.0
 11
-3734.6611675345
 21
6654.527055418
 31
0.0
  0
LINE
  5
259
330
1F
100
AcDbEntity
  8
0
  6
Continuous
 62
     7
370
    25
100
AcDbLine
 10
-3731.5141075345
 20
6658.874900418
 30
0.0
 11
-3731.9358745345
 21
6657.350519418
 31
0.0
  0
LINE
  5
25A
330
1F
100
AcDbEntity
  8
0
  6
Continuous
 62
     7
370
    25
100
AcDbLine
 10
-3730.0538615345
 20
6658.777872418
 30
0.0
 11
-3731.5141075345
 21
6658.874900418
 31
0.0
  0
LINE
  5
25B
330
1F
100
AcDbEntity
  8
0
  6
Continuous
 62
     7
370
    25
100
AcDbLine
 10
-3729.9560715345
 20
6657.414781418
 30
0.0
 11
-3730.0538615345
 21
6658.777872418
 31
0.0
  0
LINE
  5
25C
330
1F
100
AcDbEntity
  8
0
  6
Continuous
 62
     7
370
    25
100
AcDbLine
 10
-3728.4314365345
 20
6656.895732418
 30
0.0
 11
-3729.9560715345
 21
6657.414781418
 31
0.0
  0
LINE
  5
25D
330
1F
100
AcDbEntity
  8
0
  6
Continuous
 62
     7
370
    25
100
AcDbLine
 10
-3727.1328615345
 20
6657.414781418
 30
0.0
 11
-3728.4314365345
 21
6656.895732418
 31
0.0
  0
LINE
  5
25E
330
1F
100
AcDbEntity
  8
0
  6
Continuous
 62
     7
370
    25
100
AcDbLine
 10
-3724.2462785345
 20
6655.889765418
 30
0.0
 11
-3727.1328615345
 21
6657.414781418
 31
0.0
  0
LINE
  5
25F
330
1F
100
AcDbEntity
  8
0
  6
Continuous
 62
     7
370
    25
100
AcDbLine
 10
-3723.5639075345
 20
6657.155574418
 30
0.0
 11
-3724.2462785345
 21
6655.889765418
 31
0.0
  0
LINE
  5
260
330
1F
100
AcDbEntity
  8
0
  6
Continuous
 62
     7
370
    25
100
AcDbLine
 10
-3722.4611665345
 20
6657.090169418
 30
0.0
 11
-3723.5639075345
 21
6657.155574418
 31
0.0
  0
LINE
  5
261
330
1F
100
AcDbEntity
  8
0
  6
Continuous
 62
     7
370
    25
100
AcDbLine
 10
-3722.4611665345
 20
6656.149734418
 30
0.0
 11
-3722.4611665345
 21
6657.090169418
 31
0.0
  0
LINE
  5
262
330
1F
100
AcDbEntity
  8
0
  6
Continuous
 62
     7
370
    25
100
AcDbLine
 10
-3722.9795805345
 20
6655.631066418
 30
0.0
 11
-3722.4611665345
 21
6656.149734418
 31
0.0
  0
LINE
  5
263
330
1F
100
AcDbEntity
  8
0
  6
Continuous
 62
     7
370
    25
100
AcDbLine
 10
-3723.6618245345
 20
6654.170185418
 30
0.0
 11
-3722.9795805345
 21
6655.631066418
 31
0.0
  0
LINE
  5
264
330
1F
100
AcDbEntity
  8
0
  6
Continuous
 62
     7
370
    25
100
AcDbLine
 10
-3722.8829335345
 20
6653.650247418
 30
0.0
 11
-3723.6618245345
 21
6654.170185418
 31
0.0
  0
LINE
  5
265
330
1F
100
AcDbEntity
  8
0
  6
Continuous
 62
     7
370
    25
100
AcDbLine
 10
-3723.4013475345
 20
6653.423933418
 30
0.0
 11
-3722.8829335345
 21
6653.650247418
 31
0.0
  0
LINE
  5
266
330
1F
100
AcDbEntity
  8
0
  6
Continuous
 62
     7
370
    25
100
AcDbLine
 10
-3723.2069105345
 20
6652.644661418
 30
0.0
 11
-3723.4013475345
 21
6653.423933418
 31
0.0
  0
LINE
  5
267
330
1F
100
AcDbEntity
  8
0
  6
Continuous
 62
     7
370
    25
100
AcDbLine
 10
-3723.3035575345
 20
6651.801762418
 30
0.0
 11
-3723.2069105345
 21
6652.644661418
 31
0.0
  0
LINE
  5
268
330
1F
100
AcDbEntity
  8
0
  6
Continuous
 62
     7
370
    25
100
AcDbLine
 10
-3721.5197155345
 20
6650.179464418
 30
0.0
 11
-3723.3035575345
 21
6651.801762418
 31
0.0
  0
LINE
  5
269
330
1F
100
AcDbEntity
  8
0
  6
Continuous
 62
     7
370
    25
100
AcDbLine
 10
-3721.7787955345
 20
6649.400573418
 30
0.0
 11
-3721.5197155345
 21
6650.179464418
 31
0.0
  0
LINE
  5
26A
330
1F
100
AcDbEntity
  8
0
  6
Continuous
 62
     7
370
    25
100
AcDbLine
 10
-3723.5639075345
 20
6649.044084418
 30
0.0
 11
-3721.7787955345
 21
6649.400573418
 31
0.0
  0
LINE
  5
26B
330
1F
100
AcDbEntity
  8
0
  6
Continuous
 62
     7
370
    25
100
AcDbLine
 10
-3723.4673875345
 20
6647.096793418
 30
0.0
 11
-3723.5639075345
 21
6649.044084418
 31
0.0
  0
LINE
  5
26C
330
1F
100
AcDbEntity
  8
0
  6
Continuous
 62
     7
370
    25
100
AcDbLine
 10
-3723.9858015345
 20
6645.994433418
 30
0.0
 11
-3723.4673875345
 21
6647.096793418
 31
0.0
  0
LINE
  5
26D
330
1F
100
AcDbEntity
  8
0
  6
Continuous
 62
     7
370
    25
100
AcDbLine
 10
-3723.4673875345
 20
6645.377213418
 30
0.0
 11
-3723.9858015345
 21
6645.994433418
 31
0.0
  0
LINE
  5
26E
330
1F
100
AcDbEntity
  8
0
  6
Continuous
 62
     7
370
    25
100
AcDbLine
 10
-3724.2462785345
 20
6644.176809418
 30
0.0
 11
-3723.4673875345
 21
6645.377213418
 31
0.0
  0
LINE
  5
26F
330
1F
100
AcDbEntity
  8
0
  6
Continuous
 62
     7
370
    25
100
AcDbLine
 10
-3725.4456665345
 20
6644.111023418
 30
0.0
 11
-3724.2462785345
 21
6644.176809418
 31
0.0
  0
LINE
  5
270
330
1F
100
AcDbEntity
  8
0
  6
Continuous
 62
     7
370
    25
100
AcDbLine
 10
-3725.4456665345
 20
6642.749329418
 30
0.0
 11
-3725.4456665345
 21
6644.111023418
 31
0.0
  0
LINE
  5
271
330
1F
100
AcDbEntity
  8
0
  6
Continuous
 62
     7
370
    25
100
AcDbLine
 10
-3725.9652235345
 20
6641.126523418
 30
0.0
 11
-3725.4456665345
 21
6642.749329418
 31
0.0
  0
LINE
  5
272
330
1F
100
AcDbEntity
  8
0
  6
Continuous
 62
     7
370
    25
100
AcDbLine
 10
-3725.0886695345
 20
6639.245272418
 30
0.0
 11
-3725.9652235345
 21
6641.126523418
 31
0.0
  0
LINE
  5
273
330
1F
100
AcDbEntity
  8
0
  6
Continuous
 62
     7
370
    25
100
AcDbLine
 10
-3725.4456665345
 20
6637.784772418
 30
0.0
 11
-3725.0886695345
 21
6639.245272418
 31
0.0
  0
LINE
  5
274
330
1F
100
AcDbEntity
  8
0
  6
Continuous
 62
     7
370
    25
100
AcDbLine
 10
-3724.0835915345
 20
6636.259756418
 30
0.0
 11
-3725.4456665345
 21
6637.784772418
 31
0.0
  0
LINE
  5
275
330
1F
100
AcDbEntity
  8
0
  6
Continuous
 62
     7
370
    25
100
AcDbLine
 10
-3723.8231145345
 20
6632.170864418
 30
0.0
 11
-3724.0835915345
 21
6636.259756418
 31
0.0
  0
LINE
  5
276
330
1F
100
AcDbEntity
  8
0
  6
Continuous
 62
     7
370
    25
100
AcDbLine
 10
-3725.0250425345
 20
6631.393116418
 30
0.0
 11
-3723.8231145345
 21
6632.170864418
 31
0.0
  0
LINE
  5
277
330
1F
100
AcDbEntity
  8
0
  6
Continuous
 62
     7
370
    25
100
AcDbLine
 10
-3723.6618245345
 20
6630.289486418
 30
0.0
 11
-3725.0250425345
 21
6631.393116418
 31
0.0
  0
LINE
  5
278
330
1F
100
AcDbEntity
  8
0
  6
Continuous
 62
     7
370
    25
100
AcDbLine
 10
-3723.1421405345
 20
6628.731450418
 30
0.0
 11
-3723.6618245345
 21
6630.289486418
 31
0.0
  0
LINE
  5
279
330
1F
100
AcDbEntity
  8
0
  6
Continuous
 62
     7
370
    25
100
AcDbLine
 10
-3723.3035575345
 20
6627.206434418
 30
0.0
 11
-3723.1421405345
 21
6628.731450418
 31
0.0
  0
LINE
  5
27A
330
1F
100
AcDbEntity
  8
0
  6
Continuous
 62
     7
370
    25
100
AcDbLine
 10
-3724.0835915345
 20
6627.206434418
 30
0.0
 11
-3723.3035575345
 21
6627.206434418
 31
0.0
  0
LINE
  5
27B
330
1F
100
AcDbEntity
  8
0
  6
Continuous
 62
     7
370
    25
100
AcDbLine
 10
-3725.0250425345
 20
6625.746823418
 30
0.0
 11
-3724.0835915345
 21
6627.206434418
 31
0.0
  0
LINE
  5
27C
330
1F
100
AcDbEntity
  8
0
  6
Continuous
 62
     7
370
    25
100
AcDbLine
 10
-3725.0250425345
 20
6624.383478418
 30
0.0
 11
-3725.0250425345
 21
6625.746823418
 31
0.0
  0
LINE
  5
27D
330
1F
100
AcDbEntity
  8
0
  6
Continuous
 62
     7
370
    25
100
AcDbLine
 10
-3726.2893275345
 20
6624.383478418
 30
0.0
 11
-3725.0250425345
 21
6624.383478418
 31
0.0
  0
LINE
  5
27E
330
1F
100
AcDbEntity
  8
0
  6
Continuous
 62
     7
370
    25
100
AcDbLine
 10
-3727.0680915345
 20
6623.539944418
 30
0.0
 11
-3726.2893275345
 21
6624.383478418
 31
0.0
  0
LINE
  5
27F
330
1F
100
AcDbEntity
  8
0
  6
Continuous
 62
     7
370
    25
100
AcDbLine
 10
-3726.9068015345
 20
6621.917392418
 30
0.0
 11
-3727.0680915345
 21
6623.539944418
 31
0.0
  0
LINE
  5
280
330
1F
100
AcDbEntity
  8
0
  6
Continuous
 62
     7
370
    25
100
AcDbLine
 10
-3726.1266405345
 20
6621.139898418
 30
0.0
 11
-3726.9068015345
 21
6621.917392418
 31
0.0
  0
LINE
  5
281
330
1F
100
AcDbEntity
  8
0
  6
Continuous
 62
     7
370
    25
100
AcDbLine
 10
-3726.1266405345
 20
6619.030682418
 30
0.0
 11
-3726.1266405345
 21
6621.139898418
 31
0.0
  0
LINE
  5
282
330
1F
100
AcDbEntity
  8
0
  6
Continuous
 62
     7
370
    25
100
AcDbLine
 10
-3725.1864595345
 20
6615.689185418
 30
0.0
 11
-3726.1266405345
 21
6619.030682418
 31
0.0
  0
LINE
  5
283
330
1F
100
AcDbEntity
  8
0
  6
Continuous
 62
     7
370
    25
100
AcDbLine
 10
-3725.5104365345
 20
6613.384516418
 30
0.0
 11
-3725.1864595345
 21
6615.689185418
 31
0.0
  0
LINE
  5
284
330
1F
100
AcDbEntity
  8
0
  6
Continuous
 62
     7
370
    25
100
AcDbLine
 10
-3724.5054855345
 20
6612.021171418
 30
0.0
 11
-3725.5104365345
 21
6613.384516418
 31
0.0
  0
LINE
  5
285
330
1F
100
AcDbEntity
  8
0
  6
Continuous
 62
     7
370
    25
100
AcDbLine
 10
-3725.0250425345
 20
6609.978122418
 30
0.0
 11
-3724.5054855345
 21
6612.021171418
 31
0.0
  0
LINE
  5
286
330
1F
100
AcDbEntity
  8
0
  6
Continuous
 62
     7
370
    25
100
AcDbLine
 10
-3726.1266405345
 20
6609.361918418
 30
0.0
 11
-3725.0250425345
 21
6609.978122418
 31
0.0
  0
LINE
  5
287
330
1F
100
AcDbEntity
  8
0
  6
Continuous
 62
     7
370
    25
100
AcDbLine
 10
-3726.2244305345
 20
6608.257780418
 30
0.0
 11
-3726.1266405345
 21
6609.361918418
 31
0.0
  0
LINE
  5
288
330
1F
100
AcDbEntity
  8
0
  6
Continuous
 62
     7
370
    25
100
AcDbLine
 10
-3726.6463245345
 20
6606.992352418
 30
0.0
 11
-3726.2244305345
 21
6608.257780418
 31
0.0
  0
LINE
  5
289
330
1F
100
AcDbEntity
  8
0
  6
Continuous
 62
     7
370
    25
100
AcDbLine
 10
-3726.3871175345
 20
6606.052171418
 30
0.0
 11
-3726.6463245345
 21
6606.992352418
 31
0.0
  0
LINE
  5
28A
330
1F
100
AcDbEntity
  8
0
  6
Continuous
 62
     7
370
    25
100
AcDbLine
 10
-3726.9068015345
 20
6604.331829418
 30
0.0
 11
-3726.3871175345
 21
6606.052171418
 31
0.0
  0
LINE
  5
28B
330
1F
100
AcDbEntity
  8
0
  6
Continuous
 62
     7
370
    25
100
AcDbLine
 10
-3727.1328615345
 20
6602.969881418
 30
0.0
 11
-3726.9068015345
 21
6604.331829418
 31
0.0
  0
LINE
  5
28C
330
1F
100
AcDbEntity
  8
0
  6
Continuous
 62
     7
370
    25
100
AcDbLine
 10
-3727.5865055345
 20
6600.405878418
 30
0.0
 11
-3727.1328615345
 21
6602.969881418
 31
0.0
  0
LINE
  5
28D
330
1F
100
AcDbEntity
  8
0
  6
Continuous
 62
     7
370
    25
100
AcDbLine
 10
-3727.1328615345
 20
6598.524246418
 30
0.0
 11
-3727.5865055345
 21
6600.405878418
 31
0.0
  0
LINE
  5
28E
330
1F
100
AcDbEntity
  8
0
  6
Continuous
 62
     7
370
    25
100
AcDbLine
 10
-3727.4899855345
 20
6596.933571418
 30
0.0
 11
-3727.1328615345
 21
6598.524246418
 31
0.0
  0
LINE
  5
28F
330
1F
100
AcDbEntity
  8
0
  6
Continuous
 62
     7
370
    25
100
AcDbLine
 10
-3728.2687495345
 20
6596.836924418
 30
0.0
 11
-3727.4899855345
 21
6596.933571418
 31
0.0
  0
LINE
  5
290
330
1F
100
AcDbEntity
  8
0
  6
Continuous
 62
     7
370
    25
100
AcDbLine
 10
-3728.4314365345
 20
6596.415157418
 30
0.0
 11
-3728.2687495345
 21
6596.836924418
 31
0.0
  0
LINE
  5
291
330
1F
100
AcDbEntity
  8
0
  6
Continuous
 62
     7
370
    25
100
AcDbLine
 10
-3727.6525455345
 20
6595.473706418
 30
0.0
 11
-3728.4314365345
 21
6596.415157418
 31
0.0
  0
LINE
  5
292
330
1F
100
AcDbEntity
  8
0
  6
Continuous
 62
     7
370
    25
100
AcDbLine
 10
-3728.0744395345
 20
6593.754634418
 30
0.0
 11
-3727.6525455345
 21
6595.473706418
 31
0.0
  0
LINE
  5
293
330
1F
100
AcDbEntity
  8
0
  6
Continuous
 62
     7
370
    25
100
AcDbLine
 10
-3726.9703015345
 20
6593.917194418
 30
0.0
 11
-3728.0744395345
 21
6593.754634418
 31
0.0
  0
LINE
  5
294
330
1F
100
AcDbEntity
  8
0
  6
Continuous
 62
     7
370
    25
100
AcDbLine
 10
-3727.6525455345
 20
6590.444887418
 30
0.0
 11
-3726.9703015345
 21
6593.917194418
 31
0.0
  0
LINE
  5
295
330
1F
100
AcDbEntity
  8
0
  6
Continuous
 62
     7
370
    25
100
AcDbLine
 10
-3726.2244305345
 20
6589.503436418
 30
0.0
 11
-3727.6525455345
 21
6590.444887418
 31
0.0
  0
LINE
  5
296
330
1F
100
AcDbEntity
  8
0
  6
Continuous
 62
     7
370
    25
100
AcDbLine
 10
-3726.3871175345
 20
6588.724545418
 30
0.0
 11
-3726.2244305345
 21
6589.503436418
 31
0.0
  0
LINE
  5
297
330
1F
100
AcDbEntity
  8
0
  6
Continuous
 62
     7
370
    25
100
AcDbLine
 10
-3727.4899855345
 20
6588.304048418
 30
0.0
 11
-3726.3871175345
 21
6588.724545418
 31
0.0
  0
LINE
  5
298
330
1F
100
AcDbEntity
  8
0
  6
Continuous
 62
     7
370
    25
100
AcDbLine
 10
-3727.2307785345
 20
6586.323229418
 30
0.0
 11
-3727.4899855345
 21
6588.304048418
 31
0.0
  0
LINE
  5
299
330
1F
100
AcDbEntity
  8
0
  6
Continuous
 62
     7
370
    25
100
AcDbLine
 10
-3727.3272985345
 20
6584.280180418
 30
0.0
 11
-3727.2307785345
 21
6586.323229418
 31
0.0
  0
LINE
  5
29A
330
1F
100
AcDbEntity
  8
0
  6
Continuous
 62
     7
370
    25
100
AcDbLine
 10
-3727.8469825345
 20
6583.597936418
 30
0.0
 11
-3727.3272985345
 21
6584.280180418
 31
0.0
  0
LINE
  5
29B
330
1F
100
AcDbEntity
  8
0
  6
Continuous
 62
     7
370
    25
100
AcDbLine
 10
-3727.7490655345
 20
6582.398548418
 30
0.0
 11
-3727.8469825345
 21
6583.597936418
 31
0.0
  0
LINE
  5
29C
330
1F
100
AcDbEntity
  8
0
  6
Continuous
 62
     7
370
    25
100
AcDbLine
 10
-3726.4518875345
 20
6581.976781418
 30
0.0
 11
-3727.7490655345
 21
6582.398548418
 31
0.0
  0
LINE
  5
29D
330
1F
100
AcDbEntity
  8
0
  6
Continuous
 62
     7
370
    25
100
AcDbLine
 10
-3725.4456665345
 20
6580.548666418
 30
0.0
 11
-3726.4518875345
 21
6581.976781418
 31
0.0
  0
LINE
  5
29E
330
1F
100
AcDbEntity
  8
0
  6
Continuous
 62
     7
370
    25
100
AcDbLine
 10
-3725.9652235345
 20
6579.671985418
 30
0.0
 11
-3725.4456665345
 21
6580.548666418
 31
0.0
  0
LINE
  5
29F
330
1F
100
AcDbEntity
  8
0
  6
Continuous
 62
     7
370
    25
100
AcDbLine
 10
-3725.2842495345
 20
6578.472597418
 30
0.0
 11
-3725.9652235345
 21
6579.671985418
 31
0.0
  0
LINE
  5
2A0
330
1F
100
AcDbEntity
  8
0
  6
Continuous
 62
     7
370
    25
100
AcDbLine
 10
-3724.1483615345
 20
6578.050703418
 30
0.0
 11
-3725.2842495345
 21
6578.472597418
 31
0.0
  0
LINE
  5
2A1
330
1F
100
AcDbEntity
  8
0
  6
Continuous
 62
     7
370
    25
100
AcDbLine
 10
-3724.4075685345
 20
6577.044482418
 30
0.0
 11
-3724.1483615345
 21
6578.050703418
 31
0.0
  0
LINE
  5
2A2
330
1F
100
AcDbEntity
  8
0
  6
Continuous
 62
     7
370
    25
100
AcDbLine
 10
-3723.5639075345
 20
6576.363508418
 30
0.0
 11
-3724.4075685345
 21
6577.044482418
 31
0.0
  0
LINE
  5
2A3
330
1F
100
AcDbEntity
  8
0
  6
Continuous
 62
     7
370
    25
100
AcDbLine
 10
-3722.6237265345
 20
6576.428278418
 30
0.0
 11
-3723.5639075345
 21
6576.363508418
 31
0.0
  0
LINE
  5
2A4
330
1F
100
AcDbEntity
  8
0
  6
Continuous
 62
     7
370
    25
100
AcDbLine
 10
-3722.1041695345
 20
6575.583347418
 30
0.0
 11
-3722.6237265345
 21
6576.428278418
 31
0.0
  0
LINE
  5
2A5
330
1F
100
AcDbEntity
  8
0
  6
Continuous
 62
     7
370
    25
100
AcDbLine
 10
-3722.0710225345
 20
6575.096810418
 30
0.0
 11
-3722.1041695345
 21
6575.583347418
 31
0.0
  0
ENDSEC
  0
SECTION
  2
OBJECTS
  0
DICTIONARY
  5
C
330
0
100
AcDbDictionary
281
     1
  3
ACAD_GROUP
350
D
  3
ACAD_LAYOUT
350
1A
  3
ACAD_MLINESTYLE
350
17
  3
ACAD_PLOTSETTINGS
350
19
  3
ACAD_PLOTSTYLENAME
350
E
  3
ACAD_SCALELIST
350
47
  0
DICTIONARY
  5
D
102
{ACAD_REACTORS
330
C
102
}
330
C
100
AcDbDictionary
281
     1
  0
DICTIONARY
  5
1A
102
{ACAD_REACTORS
330
C
102
}
330
C
100
AcDbDictionary
281
     1
  3
Layout1
350
1E
  3
Layout2
350
26
  3
Model
350
22
  0
DICTIONARY
  5
17
102
{ACAD_REACTORS
330
C
102
}
330
C
100
AcDbDictionary
281
     1
  3
Standard
350
18
  0
DICTIONARY
  5
19
102
{ACAD_REACTORS
330
C
102
}
330
C
100
AcDbDictionary
281
     1
  0
ACDBDICTIONARYWDFLT
  5
E
102
{ACAD_REACTORS
330
C
102
}
330
C
100
AcDbDictionary
281
     1
  3
Normal
350
F
100
AcDbDictionaryWithDefault
340
F
  0
DICTIONARY
  5
47
102
{ACAD_REACTORS
330
C
102
}
330
C
100
AcDbDictionary
281
     1
  3
A0
350
48
  3
A1
350
49
  3
A2
350
4A
  3
A3
350
4B
  3
A4
350
4C
  3
A5
350
4D
  3
A6
350
4E
  3
A7
350
4F
  3
A8
350
50
  3
A9
350
51
  3
B0
350
52
  3
B1
350
53
  3
B2
350
54
  3
B3
350
55
  3
B4
350
56
  3
B5
350
57
  3
B6
350
58
  3
B7
350
59
  3
B8
350
5A
  3
B9
350
5B
  3
C0
350
5C
  3
C1
350
5D
  3
C2
350
5E
  3
C3
350
5F
  3
C4
350
60
  3
C5
350
61
  3
C6
350
62
  3
C7
350
63
  3
C8
350
64
  3
C9
350
65
  3
D0
350
66
  3
D1
350
67
  3
D2
350
68
  0
LAYOUT
  5
1E
102
{ACAD_REACTORS
330
1A
102
}
330
1A
100
AcDbPlotSettings
  1

  2
none_device
  4

  6

 40
0.0
 41
0.0
 42
0.0
 43
0.0
 44
0.0
 45
0.0
 46
0.0
 47
0.0
 48
0.0
 49
0.0
140
0.0
141
0.0
142
1.0
143
1.0
 70
   688
 72
     1
 73
     0
 74
     5
  7

 75
    16
147
1.0
148
0.0
149
0.0
100
AcDbLayout
  1
Layout1
 70
     1
 71
     1
 10
0.0
 20
0.0
 11
420.0
 21
297.0
 12
0.0
 22
0.0
 32
0.0
 14
1.0000000000E+20
 24
1.0000000000E+20
 34
1.0000000000E+20
 15
-1.0000000000E+20
 25
-1.0000000000E+20
 35
-1.0000000000E+20
146
0.0
 13
0.0
 23
0.0
 33
0.0
 16
1.0
 26
0.0
 36
0.0
 17
0.0
 27
1.0
 37
0.0
 76
     0
330
1B
  0
LAYOUT
  5
26
102
{ACAD_REACTORS
330
1A
102
}
330
1A
100
AcDbPlotSettings
  1

  2
none_device
  4

  6

 40
0.0
 41
0.0
 42
0.0
 43
0.0
 44
0.0
 45
0.0
 46
0.0
 47
0.0
 48
0.0
 49
0.0
140
0.0
141
0.0
142
1.0
143
1.0
 70
   688
 72
     1
 73
     0
 74
     5
  7

 75
    16
147
1.0
148
0.0
149
0.0
100
AcDbLayout
  1
Layout2
 70
     1
 71
     2
 10
0.0
 20
0.0
 11
0.0
 21
0.0
 12
0.0
 22
0.0
 32
0.0
 14
0.0
 24
0.0
 34
0.0
 15
0.0
 25
0.0
 35
0.0
146
0.0
 13
0.0
 23
0.0
 33
0.0
 16
1.0
 26
0.0
 36
0.0
 17
0.0
 27
1.0
 37
0.0
 76
     0
330
23
  0
LAYOUT
  5
22
102
{ACAD_REACTORS
330
1A
102
}
330
1A
100
AcDbPlotSettings
  1

  2
none_device
  4
ANSI_A_(11.00_x_8.50_Inches)
  6

 40
6.35
 41
19.05
 42
6.35000508
 43
19.05000254
 44
279.4
 45
215.9
 46
9610.6407888821
 47
-16649.2683900055
 48
0.0
 49
0.0
140
0.0
141
0.0
142
0.0995949792
143
1.0
 70
  1696
 72
     0
 73
     0
 74
     0
  7

 75
     0
147
0.0179189148
148
-1300.4909072572
149
0.0
100
AcDbLayout
  1
Model
 70
     1
 71
     0
 10
0.0
 20
0.0
 11
420.0
 21
297.0
 12
0.0
 22
0.0
 32
0.0
 14
-3771.2612975345
 24
6574.382689418
 34
0.0
 15
-3721.5197155345
 25
6658.874900418
 35
0.0
146
0.0
 13
0.0
 23
0.0
 33
0.0
 16
1.0
 26
0.0
 36
0.0
 17
0.0
 27
1.0
 37
0.0
 76
     0
330
1F
331
29
  0
MLINESTYLE
  5
18
102
{ACAD_REACTORS
330
17
102
}
330
17
100
AcDbMlineStyle
  2
Standard
 70
     0
  3

 62
   256
 51
90.0
 52
90.0
 71
     2
 49
0.5
 62
   256
  6
BYLAYER
 49
-0.5
 62
   256
  6
BYLAYER
  0
ACDBPLACEHOLDER
  5
F
102
{ACAD_REACTORS
330
E
102
}
330
E
  0
SCALE
  5
48
102
{ACAD_REACTORS
330
47
102
}
330
47
100
AcDbScale
 70
     0
300
1:1
140
1.0
141
1.0
290
     1
  0
SCALE
  5
49
102
{ACAD_REACTORS
330
47
102
}
330
47
100
AcDbScale
 70
     0
300
1:2
140
1.0
141
2.0
290
     0
  0
SCALE
  5
4A
102
{ACAD_REACTORS
330
47
102
}
330
47
100
AcDbScale
 70
     0
300
1:4
140
1.0
141
4.0
290
     0
  0
SCALE
  5
4B
102
{ACAD_REACTORS
330
47
102
}
330
47
100
AcDbScale
 70
     0
300
1:5
140
1.0
141
5.0
290
     0
  0
SCALE
  5
4C
102
{ACAD_REACTORS
330
47
102
}
330
47
100
AcDbScale
 70
     0
300
1:8
140
1.0
141
8.0
290
     0
  0
SCALE
  5
4D
102
{ACAD_REACTORS
330
47
102
}
330
47
100
AcDbScale
 70
     0
300
1:10
140
1.0
141
10.0
290
     0
  0
SCALE
  5
4E
102
{ACAD_REACTORS
330
47
102
}
330
47
100
AcDbScale
 70
     0
300
1:16
140
1.0
141
16.0
290
     0
  0
SCALE
  5
4F
102
{ACAD_REACTORS
330
47
102
}
330
47
100
AcDbScale
 70
     0
300
1:20
140
1.0
141
20.0
290
     0
  0
SCALE
  5
50
102
{ACAD_REACTORS
330
47
102
}
330
47
100
AcDbScale
 70
     0
300
1:30
140
1.0
141
30.0
290
     0
  0
SCALE
  5
51
102
{ACAD_REACTORS
330
47
102
}
330
47
100
AcDbScale
 70
     0
300
1:40
140
1.0
141
40.0
290
     0
  0
SCALE
  5
52
102
{ACAD_REACTORS
330
47
102
}
330
47
100
AcDbScale
 70
     0
300
1:50
140
1.0
141
50.0
290
     0
  0
SCALE
  5
53
102
{ACAD_REACTORS
330
47
102
}
330
47
100
AcDbScale
 70
     0
300
1:100
140
1.0
141
100.0
290
     0
  0
SCALE
  5
54
102
{ACAD_REACTORS
330
47
102
}
330
47
100
AcDbScale
 70
     0
300
2:1
140
2.0
141
1.0
290
     0
  0
SCALE
  5
55
102
{ACAD_REACTORS
330
47
102
}
330
47
100
AcDbScale
 70
     0
300
4:1
140
4.0
141
1.0
290
     0
  0
SCALE
  5
56
102
{ACAD_REACTORS
330
47
102
}
330
47
100
AcDbScale
 70
     0
300
8:1
140
8.0
141
1.0
290
     0
  0
SCALE
  5
57
102
{ACAD_REACTORS
330
47
102
}
330
47
100
AcDbScale
 70
     0
300
10:1
140
10.0
141
1.0
290
     0
  0
SCALE
  5
58
102
{ACAD_REACTORS
330
47
102
}
330
47
100
AcDbScale
 70
     0
300
100:1
140
100.0
141
1.0
290
     0
  0
SCALE
  5
59
102
{ACAD_REACTORS
330
47
102
}
330
47
100
AcDbScale
 70
     0
300
1/128" = 1'-0"
140
0.0078125
141
12.0
290
     0
  0
SCALE
  5
5A
102
{ACAD_REACTORS
330
47
102
}
330
47
100
AcDbScale
 70
     0
300
1/64" = 1'-0"
140
0.015625
141
12.0
290
     0
  0
SCALE
  5
5B
102
{ACAD_REACTORS
330
47
102
}
330
47
100
AcDbScale
 70
     0
300
1/32" = 1'-0"
140
0.03125
141
12.0
290
     0
  0
SCALE
  5
5C
102
{ACAD_REACTORS
330
47
102
}
330
47
100
AcDbScale
 70
     0
300
1/16" = 1'-0"
140
0.0625
141
12.0
290
     0
  0
SCALE
  5
5D
102
{ACAD_REACTORS
330
47
102
}
330
47
100
AcDbScale
 70
     0
300
3/32" = 1'-0"
140
0.09375
141
12.0
290
     0
  0
SCALE
  5
5E
102
{ACAD_REACTORS
330
47
102
}
330
47
100
AcDbScale
 70
     0
300
1/8" = 1'-0"
140
0.125
141
12.0
290
     0
  0
SCALE
  5
5F
102
{ACAD_REACTORS
330
47
102
}
330
47
100
AcDbScale
 70
     0
300
3/16" = 1'-0"
140
0.1875
141
12.0
290
     0
  0
SCALE
  5
60
102
{ACAD_REACTORS
330
47
102
}
330
47
100
AcDbScale
 70
     0
300
1/4" = 1'-0"
140
0.25
141
12.0
290
     0
  0
SCALE
  5
61
102
{ACAD_REACTORS
330
47
102
}
330
47
100
AcDbScale
 70
     0
300
3/8" = 1'-0"
140
0.375
141
12.0
290
     0
  0
SCALE
  5
62
102
{ACAD_REACTORS
330
47
102
}
330
47
100
AcDbScale
 70
     0
300
1/2" = 1'-0"
140
0.5
141
12.0
290
     0
  0
SCALE
  5
63
102
{ACAD_REACTORS
330
47
102
}
330
47
100
AcDbScale
 70
     0
300
3/4" = 1'-0"
140
0.75
141
12.0
290
     0
  0
SCALE
  5
64
102
{ACAD_REACTORS
330
47
102
}
330
47
100
AcDbScale
 70
     0
300
1" = 1'-0"
140
1.0
141
12.0
290
     0
  0
SCALE
  5
65
102
{ACAD_REACTORS
330
47
102
}
330
47
100
AcDbScale
 70
     0
300
1-1/2" = 1'-0"
140
1.5
141
12.0
290
     0
  0
SCALE
  5
66
102
{ACAD_REACTORS
330
47
102
}
330
47
100
AcDbScale
 70
     0
300
3" = 1'-0"
140
3.0
141
12.0
290
     0
  0
SCALE
  5
67
102
{ACAD_REACTORS
330
47
102
}
330
47
100
AcDbScale
 70
     0
300
6" = 1'-0"
140
6.0
141
12.0
290
     0
  0
SCALE
  5
68
102
{ACAD_REACTORS
330
47
102
}
330
47
100
AcDbScale
 70
     0
300
1'-0" = 1'-0"
140
12.0
141
12.0
290
     0
  0
ENDSEC
  0
EOF
