  0
SECTION
  2
HEADER
  9
$ACADVER
  1
AC1015
  9
$ACADMAINTVER
 70
     6
  9
$DWGCODEPAGE
  3
ANSI_1251
  9
$INSBASE
 10
0.0
 20
0.0
 30
0.0
  9
$EXTMIN
 10
-7137.5678547703
 20
6350.1697126117
 30
0.0
  9
$EXTMAX
 10
-7061.0264787703
 20
6412.4345106117
 30
0.0
  9
$LIMMIN
 10
0.0
 20
0.0
  9
$LIMMAX
 10
420.0
 20
297.0
  9
$ORTHOMODE
 70
     0
  9
$REGENMODE
 70
     1
  9
$FILLMODE
 70
     1
  9
$QTEXTMODE
 70
     0
  9
$MIRRTEXT
 70
     1
  9
$LTSCALE
 40
1.0
  9
$ATTMODE
 70
     1
  9
$TEXTSIZE
 40
4.0
  9
$TRACEWID
 40
1.0
  9
$TEXTSTYLE
  7
Standard
  9
$CLAYER
  8
0
  9
$CELTYPE
  6
ByLayer
  9
$CECOLOR
 62
   256
  9
$CELTSCALE
 40
1.0
  9
$DISPSILH
 70
     0
  9
$DIMSCALE
 40
1.0
  9
$DIMASZ
 40
6.0
  9
$DIMEXO
 40
1.0
  9
$DIMDLI
 40
3.75
  9
$DIMRND
 40
0.0
  9
$DIMDLE
 40
0.0
  9
$DIMEXE
 40
1.0
  9
$DIMTP
 40
0.0
  9
$DIMTM
 40
0.0
  9
$DIMTXT
 40
4.0
  9
$DIMCEN
 40
2.5
  9
$DIMTSZ
 40
0.0
  9
$DIMTOL
 70
     0
  9
$DIMLIM
 70
     0
  9
$DIMTIH
 70
     1
  9
$DIMTOH
 70
     1
  9
$DIMSE1
 70
     0
  9
$DIMSE2
 70
     0
  9
$DIMTAD
 70
     1
  9
$DIMZIN
 70
     0
  9
$DIMBLK
  1

  9
$DIMASO
 70
     1
  9
$DIMSHO
 70
     1
  9
$DIMPOST
  1

  9
$DIMAPOST
  1

  9
$DIMALT
 70
     0
  9
$DIMALTD
 70
     3
  9
$DIMALTF
 40
0.0393700787
  9
$DIMLFAC
 40
1.0
  9
$DIMTOFL
 70
     1
  9
$DIMTVP
 40
0.0
  9
$DIMTIX
 70
     0
  9
$DIMSOXD
 70
     0
  9
$DIMSAH
 70
     0
  9
$DIMBLK1
  1

  9
$DIMBLK2
  1

  9
$DIMSTYLE
  2
ISO-25
  9
$DIMCLRD
 70
     0
  9
$DIMCLRE
 70
     0
  9
$DIMCLRT
 70
     0
  9
$DIMTFAC
 40
1.0
  9
$DIMGAP
 40
3.0
  9
$DIMJUST
 70
     0
  9
$DIMSD1
 70
     0
  9
$DIMSD2
 70
     0
  9
$DIMTOLJ
 70
     0
  9
$DIMTZIN
 70
     0
  9
$DIMALTZ
 70
     0
  9
$DIMALTTZ
 70
     0
  9
$DIMUPT
 70
     0
  9
$DIMDEC
 70
     2
  9
$DIMTDEC
 70
     4
  9
$DIMALTU
 70
     2
  9
$DIMALTTD
 70
     3
  9
$DIMTXSTY
  7
Standard
  9
$DIMAUNIT
 70
     0
  9
$DIMADEC
 70
     2
  9
$DIMALTRND
 40
0.0
  9
$DIMAZIN
 70
     0
  9
$DIMDSEP
 70
    44
  9
$DIMATFIT
 70
     3
  9
$DIMFRAC
 70
     0
  9
$DIMLDRBLK
  1

  9
$DIMLUNIT
 70
     2
  9
$DIMLWD
 70
    -2
  9
$DIMLWE
 70
    -2
  9
$DIMTMOVE
 70
     0
  9
$LUNITS
 70
     2
  9
$LUPREC
 70
     2
  9
$SKETCHINC
 40
1.0
  9
$FILLETRAD
 40
10.0
  9
$AUNITS
 70
     1
  9
$AUPREC
 70
     2
  9
$MENU
  1
.
  9
$ELEVATION
 40
0.0
  9
$PELEVATION
 40
0.0
  9
$THICKNESS
 40
0.0
  9
$LIMCHECK
 70
     0
  9
$CHAMFERA
 40
0.0
  9
$CHAMFERB
 40
0.0
  9
$CHAMFERC
 40
0.0
  9
$CHAMFERD
 40
0.0
  9
$SKPOLY
 70
     0
  9
$TDCREATE
 40
2460368.660551262
  9
$TDUCREATE
 40
2460368.577217928
  9
$TDUPDATE
 40
2460368.660578773
  9
$TDUUPDATE
 40
2460368.57724544
  9
$TDINDWG
 40
0.0000000116
  9
$TDUSRTIMER
 40
0.0000000116
  9
$USRTIMER
 70
     1
  9
$ANGBASE
 50
0.0
  9
$ANGDIR
 70
     0
  9
$PDMODE
 70
     0
  9
$PDSIZE
 40
-1.0
  9
$PLINEWID
 40
0.0
  9
$SPLFRAME
 70
     0
  9
$SPLINETYPE
 70
     6
  9
$SPLINESEGS
 70
     8
  9
$HANDSEED
  5
222
  9
$SURFTAB1
 70
     6
  9
$SURFTAB2
 70
     6
  9
$SURFTYPE
 70
     6
  9
$SURFU
 70
     6
  9
$SURFV
 70
     6
  9
$UCSBASE
  2

  9
$UCSNAME
  2

  9
$UCSORG
 10
0.0
 20
0.0
 30
0.0
  9
$UCSXDIR
 10
1.0
 20
0.0
 30
0.0
  9
$UCSYDIR
 10
0.0
 20
1.0
 30
0.0
  9
$UCSORTHOREF
  2

  9
$UCSORTHOVIEW
 70
     0
  9
$UCSORGTOP
 10
0.0
 20
0.0
 30
0.0
  9
$UCSORGBOTTOM
 10
0.0
 20
0.0
 30
0.0
  9
$UCSORGLEFT
 10
0.0
 20
0.0
 30
0.0
  9
$UCSORGRIGHT
 10
0.0
 20
0.0
 30
0.0
  9
$UCSORGFRONT
 10
0.0
 20
0.0
 30
0.0
  9
$UCSORGBACK
 10
0.0
 20
0.0
 30
0.0
  9
$PUCSBASE
  2

  9
$PUCSNAME
  2

  9
$PUCSORG
 10
0.0
 20
0.0
 30
0.0
  9
$PUCSXDIR
 10
1.0
 20
0.0
 30
0.0
  9
$PUCSYDIR
 10
0.0
 20
1.0
 30
0.0
  9
$PUCSORTHOREF
  2

  9
$PUCSORTHOVIEW
 70
     0
  9
$PUCSORGTOP
 10
0.0
 20
0.0
 30
0.0
  9
$PUCSORGBOTTOM
 10
0.0
 20
0.0
 30
0.0
  9
$PUCSORGLEFT
 10
0.0
 20
0.0
 30
0.0
  9
$PUCSORGRIGHT
 10
0.0
 20
0.0
 30
0.0
  9
$PUCSORGFRONT
 10
0.0
 20
0.0
 30
0.0
  9
$PUCSORGBACK
 10
0.0
 20
0.0
 30
0.0
  9
$USERI1
 70
     0
  9
$USERI2
 70
     0
  9
$USERI3
 70
     0
  9
$USERI4
 70
     0
  9
$USERI5
 70
     0
  9
$USERR1
 40
0.0
  9
$USERR2
 40
0.0
  9
$USERR3
 40
0.0
  9
$USERR4
 40
0.0
  9
$USERR5
 40
0.0
  9
$WORLDVIEW
 70
     1
  9
$SHADEDGE
 70
     3
  9
$SHADEDIF
 70
    70
  9
$TILEMODE
 70
     1
  9
$MAXACTVP
 70
    64
  9
$PINSBASE
 10
0.0
 20
0.0
 30
0.0
  9
$PLIMCHECK
 70
     0
  9
$PEXTMIN
 10
1.0000000000E+20
 20
1.0000000000E+20
 30
1.0000000000E+20
  9
$PEXTMAX
 10
-1.0000000000E+20
 20
-1.0000000000E+20
 30
-1.0000000000E+20
  9
$PLIMMIN
 10
0.0
 20
0.0
  9
$PLIMMAX
 10
420.0
 20
297.0
  9
$UNITMODE
 70
     0
  9
$VISRETAIN
 70
     1
  9
$PLINEGEN
 70
     0
  9
$PSLTSCALE
 70
     1
  9
$TREEDEPTH
 70
  3020
  9
$CMLSTYLE
  2
Standard
  9
$CMLJUST
 70
     0
  9
$CMLSCALE
 40
20.0
  9
$PROXYGRAPHICS
 70
     1
  9
$MEASUREMENT
 70
     1
  9
$CELWEIGHT
370
    -1
  9
$ENDCAPS
280
     0
  9
$JOINSTYLE
280
     0
  9
$LWDISPLAY
290
     1
  9
$INSUNITS
 70
     4
  9
$HYPERLINKBASE
  1

  9
$STYLESHEET
  1

  9
$XEDIT
290
     1
  9
$CEPSNTYPE
380
     0
  9
$PSTYLEMODE
290
     1
  9
$FINGERPRINTGUID
  2
{8dfcbcd5-961b-47a2-90fe-40a421ea9abd}
  9
$VERSIONGUID
  2
{FAEB1C32-E019-11D5-929B-00C0DF256EC4}
  9
$EXTNAMES
290
     1
  9
$PSVPSCALE
 40
0.0
  9
$OLESTARTUP
290
     0
  0
ENDSEC
  0
SECTION
  2
CLASSES
  0
CLASS
  1
ACDBDICTIONARYWDFLT
  2
AcDbDictionaryWithDefault
  3
ObjectDBX Classes
 90
        0
280
     0
281
     0
  0
CLASS
  1
VISUALSTYLE
  2
AcDbVisualStyle
  3
ObjectDBX Classes
 90
     4095
280
     0
281
     0
  0
CLASS
  1
MATERIAL
  2
AcDbMaterial
  3
ObjectDBX Classes
 90
     1153
280
     0
281
     0
  0
CLASS
  1
SCALE
  2
AcDbScale
  3
ObjectDBX Classes
 90
     1153
280
     0
281
     0
  0
CLASS
  1
TABLESTYLE
  2
AcDbTableStyle
  3
ObjectDBX Classes
 90
     4095
280
     0
281
     0
  0
CLASS
  1
MLEADERSTYLE
  2
AcDbMLeaderStyle
  3
ACDB_MLEADERSTYLE_CLASS
 90
     4095
280
     0
281
     0
  0
CLASS
  1
SUN
  2
AcDbSun
  3
SCENEOE
 90
     1153
280
     0
281
     0
  0
CLASS
  1
ACDBPLACEHOLDER
  2
AcDbPlaceHolder
  3
ObjectDBX Classes
 90
        0
280
     0
281
     0
  0
CLASS
  1
LAYOUT
  2
AcDbLayout
  3
ObjectDBX Classes
 90
        0
280
     0
281
     0
  0
ENDSEC
  0
SECTION
  2
TABLES
  0
TABLE
  2
VPORT
  5
8
330
0
100
AcDbSymbolTable
 70
     1
  0
VPORT
  5
29
330
8
100
AcDbSymbolTableRecord
100
AcDbViewportTableRecord
  2
*Active
 70
     0
 10
0.0
 20
0.0
 11
1.0
 21
1.0
 12
-7099.2971667703
 22
6381.3021116117
 13
0.0
 23
0.0
 14
10.0
 24
10.0
 15
10.0
 25
10.0
 16
0.0
 26
0.0
 36
1.0
 17
0.0
 27
0.0
 37
0.0
 40
63.51009396
 41
1.2292881124
 42
50.0
 43
0.0
 44
0.0
 50
0.0
 51
0.0
 71
     0
 72
   100
 73
     1
 74
     3
 75
     0
 76
     0
 77
     0
 78
     0
281
     0
 65
     1
110
0.0
120
0.0
130
0.0
111
1.0
121
0.0
131
0.0
112
0.0
122
1.0
132
0.0
 79
     0
146
0.0
  0
ENDTAB
  0
TABLE
  2
LTYPE
  5
5
330
0
100
AcDbSymbolTable
 70
     6
  0
LTYPE
  5
14
330
5
100
AcDbSymbolTableRecord
100
AcDbLinetypeTableRecord
  2
ByBlock
 70
     0
  3

 72
    65
 73
     0
 40
0.0
  0
LTYPE
  5
15
330
5
100
AcDbSymbolTableRecord
100
AcDbLinetypeTableRecord
  2
ByLayer
 70
     0
  3

 72
    65
 73
     0
 40
0.0
  0
LTYPE
  5
16
330
5
100
AcDbSymbolTableRecord
100
AcDbLinetypeTableRecord
  2
Continuous
 70
     0
  3
Solid line
 72
    65
 73
     0
 40
0.0
  0
LTYPE
  5
6E
330
5
100
AcDbSymbolTableRecord
100
AcDbLinetypeTableRecord
  2
HIDDEN
 70
     0
  3
Hidden __ __ __ __ __ __ __ __ __ __ __ __ __ __
 72
    65
 73
     2
 40
1.905
 49
1.27
 74
     0
 49
-0.635
 74
     0
  0
LTYPE
  5
6F
330
5
100
AcDbSymbolTableRecord
100
AcDbLinetypeTableRecord
  2
PHANTOM
 70
     0
  3
Phantom ______  __  __  ______  __  __  ______
 72
    65
 73
     6
 40
12.7
 49
6.35
 74
     0
 49
-1.27
 74
     0
 49
1.27
 74
     0
 49
-1.27
 74
     0
 49
1.27
 74
     0
 49
-1.27
 74
     0
  0
LTYPE
  5
70
330
5
100
AcDbSymbolTableRecord
100
AcDbLinetypeTableRecord
  2
CENTER
 70
     0
  3
Center ____ _ ____ _ ____ _ ____ _ ____ _ ____
 72
    65
 73
     4
 40
10.16
 49
6.35
 74
     0
 49
-1.27
 74
     0
 49
1.27
 74
     0
 49
-1.27
 74
     0
  0
LTYPE
  5
71
330
5
100
AcDbSymbolTableRecord
100
AcDbLinetypeTableRecord
  2
CENTERX2
 70
     0
  3
Center (2x) ________  __  ________  __  _____
 72
    65
 73
     4
 40
20.32
 49
12.7
 74
     0
 49
-2.54
 74
     0
 49
2.54
 74
     0
 49
-2.54
 74
     0
  0
LTYPE
  5
72
330
5
100
AcDbSymbolTableRecord
100
AcDbLinetypeTableRecord
  2
DOT2
 70
     0
  3
Dot (.5x) ........................................
 72
    65
 73
     2
 40
0.635
 49
0.0
 74
     0
 49
-0.635
 74
     0
  0
ENDTAB
  0
TABLE
  2
LAYER
  5
2
330
0
100
AcDbSymbolTable
 70
     1
  0
LAYER
  5
10
330
2
100
AcDbSymbolTableRecord
100
AcDbLayerTableRecord
  2
0
 70
     0
 62
     7
  6
Continuous
370
    -3
390
F
  0
ENDTAB
  0
TABLE
  2
STYLE
  5
3
330
0
100
AcDbSymbolTable
 70
     1
  0
STYLE
  5
11
330
3
100
AcDbSymbolTableRecord
100
AcDbTextStyleTableRecord
  2
Standard
 70
     0
 40
0.0
 41
1.0
 50
0.0
 71
     0
 42
4.0
  3
txt
  4

  0
ENDTAB
  0
TABLE
  2
VIEW
  5
6
330
0
100
AcDbSymbolTable
 70
     0
  0
ENDTAB
  0
TABLE
  2
UCS
  5
7
330
0
100
AcDbSymbolTable
 70
     0
  0
ENDTAB
  0
TABLE
  2
APPID
  5
9
330
0
100
AcDbSymbolTable
 70
     1
  0
APPID
  5
12
330
9
100
AcDbSymbolTableRecord
100
AcDbRegAppTableRecord
  2
ACAD
 70
     0
  0
ENDTAB
  0
TABLE
  2
DIMSTYLE
  5
A
330
0
100
AcDbSymbolTable
 70
     1
100
AcDbDimStyleTable
  0
DIMSTYLE
105
27
330
A
100
AcDbSymbolTableRecord
100
AcDbDimStyleTableRecord
  2
ISO-25
 70
     0
 41
2.5
 42
0.625
 43
3.75
 44
1.25
 73
     0
 74
     0
 77
     1
 78
     8
140
2.5
141
2.5
143
0.0393700787
147
0.625
171
     3
172
     1
178
     0
271
     2
272
     2
274
     3
278
    44
283
     0
284
     8
340
11
  0
ENDTAB
  0
TABLE
  2
BLOCK_RECORD
  5
1
330
0
100
AcDbSymbolTable
 70
     1
  0
BLOCK_RECORD
  5
1F
330
1
100
AcDbSymbolTableRecord
100
AcDbBlockTableRecord
  2
*Model_Space
340
22
  0
BLOCK_RECORD
  5
1B
330
1
100
AcDbSymbolTableRecord
100
AcDbBlockTableRecord
  2
*Paper_Space
340
1E
  0
BLOCK_RECORD
  5
23
330
1
100
AcDbSymbolTableRecord
100
AcDbBlockTableRecord
  2
*Paper_Space0
340
26
  0
ENDTAB
  0
ENDSEC
  0
SECTION
  2
BLOCKS
  0
BLOCK
  5
20
330
1F
100
AcDbEntity
  8
0
100
AcDbBlockBegin
  2
*Model_Space
 70
     0
 10
0.0
 20
0.0
 30
0.0
  3
*Model_Space
  1

  0
ENDBLK
  5
21
330
1F
100
AcDbEntity
  8
0
100
AcDbBlockEnd
  0
BLOCK
  5
1C
330
1B
100
AcDbEntity
 67
     1
  8
0
100
AcDbBlockBegin
  2
*Paper_Space
 70
     0
 10
0.0
 20
0.0
 30
0.0
  3
*Paper_Space
  1

  0
ENDBLK
  5
1D
330
1B
100
AcDbEntity
 67
     1
  8
0
100
AcDbBlockEnd
  0
BLOCK
  5
24
330
23
100
AcDbEntity
  8
0
100
AcDbBlockBegin
  2
*Paper_Space0
 70
     0
 10
0.0
 20
0.0
 30
0.0
  3
*Paper_Space0
  1

  0
ENDBLK
  5
25
330
23
100
AcDbEntity
  8
0
100
AcDbBlockEnd
  0
ENDSEC
  0
SECTION
  2
ENTITIES
  0
SPLINE
  5
73
330
1F
100
AcDbEntity
  8
0
  6
Continuous
 62
     7
370
    25
100
AcDbSpline
210
0.0
220
0.0
230
1.0
 70
     8
 71
     3
 72
    15
 73
    11
 74
     0
 42
0.000000001
 43
0.00000001
 40
0.0
 40
0.0
 40
0.0
 40
0.0
 40
0.1678628092163033
 40
0.3148466165912053
 40
0.444186960312103
 40
0.5592403382441057
 40
0.6652318690747573
 40
0.770656343509654
 40
0.8787940473875017
 40
1.0
 40
1.0
 40
1.0
 40
1.0
 10
-7125.948354908721
 20
6390.657379591248
 30
0.0
 10
-7125.921935113126
 20
6390.656456894326
 30
0.0
 10
-7125.872381651622
 20
6390.654726266764
 30
0.0
 10
-7125.802861733409
 20
6390.645063916929
 30
0.0
 10
-7125.743862211614
 20
6390.626133527522
 30
0.0
 10
-7125.695016960741
 20
6390.599733102763
 30
0.0
 10
-7125.656172077335
 20
6390.565059584372
 30
0.0
 10
-7125.629701770819
 20
6390.521613459509
 30
0.0
 10
-7125.612941394846
 20
6390.470993682692
 30
0.0
 10
-7125.611355304583
 20
6390.434762320616
 30
0.0
 10
-7125.610517070884
 20
6390.415614388546
 30
0.0
  0
SPLINE
  5
75
330
1F
100
AcDbEntity
  8
0
  6
Continuous
 62
     7
370
    25
100
AcDbSpline
210
0.0
220
0.0
230
1.0
 70
     8
 71
     3
 72
    23
 73
    19
 74
     0
 42
0.000000001
 43
0.00000001
 40
0.0
 40
0.0
 40
0.0
 40
0.0
 40
0.0603066210141116
 40
0.1194421281967702
 40
0.178022714762677
 40
0.2361343677381823
 40
0.2955036415325816
 40
0.3553862741558982
 40
0.4170389405274612
 40
0.4815965223710854
 40
0.546191177360445
 40
0.609353637789901
 40
0.6725404596655202
 40
0.7353635899273413
 40
0.7989819471019703
 40
0.863682408312952
 40
0.9303459063710858
 40
1.0
 40
1.0
 40
1.0
 40
1.0
 10
-7125.610517070884
 20
6386.766965739896
 30
0.0
 10
-7125.611505048902
 20
6386.730658627905
 30
0.0
 10
-7125.613461819072
 20
6386.6587494635
 30
0.0
 10
-7125.62991188264
 20
6386.552623444125
 30
0.0
 10
-7125.656036112817
 20
6386.44992024473
 30
0.0
 10
-7125.693688230289
 20
6386.350651254364
 30
0.0
 10
-7125.74122749077
 20
6386.254956871127
 30
0.0
 10
-7125.798254550386
 20
6386.161955634427
 30
0.0
 10
-7125.868260685835
 20
6386.074301944052
 30
0.0
 10
-7125.946061536703
 20
6385.989747045081
 30
0.0
 10
-7126.031943916577
 20
6385.911859291351
 30
0.0
 10
-7126.124736389896
 20
6385.84382387541
 30
0.0
 10
-7126.222630519775
 20
6385.785222713679
 30
0.0
 10
-7126.3272551755
 20
6385.739203925675
 30
0.0
 10
-7126.436084849967
 20
6385.701307543144
 30
0.0
 10
-7126.551054721081
 20
6385.676931199542
 30
0.0
 10
-7126.671042742188
 20
6385.66011331396
 30
0.0
 10
-7126.753121348353
 20
6385.658304062868
 30
0.0
 10
-7126.795060989803
 20
6385.657379591248
 30
0.0
  0
SPLINE
  5
77
330
1F
100
AcDbEntity
  8
0
  6
Continuous
 62
     7
370
    25
100
AcDbSpline
210
0.0
220
0.0
230
1.0
 70
     8
 71
     3
 72
    15
 73
    11
 74
     0
 42
0.000000001
 43
0.00000001
 40
0.0
 40
0.0
 40
0.0
 40
0.0
 40
0.1376465333875269
 40
0.2584939900654435
 40
0.372177714453384
 40
0.480266965669285
 40
0.5916828156085467
 40
0.712530272286441
 40
0.8471387149837204
 40
1.0
 40
1.0
 40
1.0
 40
1.0
 10
-7127.666049165478
 20
6385.657379591248
 30
0.0
 10
-7127.685146476574
 20
6385.658038898527
 30
0.0
 10
-7127.721010366663
 20
6385.659277047902
 30
0.0
 10
-7127.771216030417
 20
6385.672459506793
 30
0.0
 10
-7127.814359270975
 20
6385.693168840447
 30
0.0
 10
-7127.849393808541
 20
6385.724053213702
 30
0.0
 10
-7127.876184400733
 20
6385.763289750901
 30
0.0
 10
-7127.895373953587
 20
6385.810741773686
 30
0.0
 10
-7127.905159306669
 20
6385.866730782037
 30
0.0
 10
-7127.906892661322
 20
6385.906501751341
 30
0.0
 10
-7127.907814368181
 20
6385.927649861518
 30
0.0
  0
SPLINE
  5
78
330
1F
100
AcDbEntity
  8
0
  6
Continuous
 62
     7
370
    25
100
AcDbSpline
210
0.0
220
0.0
230
1.0
 70
     8
 71
     3
 72
    15
 73
    11
 74
     0
 42
0.000000001
 43
0.00000001
 40
0.0
 40
0.0
 40
0.0
 40
0.0
 40
0.1545651316739412
 40
0.2906739683079385
 40
0.4128684340414868
 40
0.5240800725849086
 40
0.6333741253266203
 40
0.7437509193892279
 40
0.8659453851226716
 40
1.0
 40
1.0
 40
1.0
 40
1.0
 10
-7127.907814368181
 20
6385.927649861518
 30
0.0
 10
-7127.906883258112
 20
6385.948791093502
 30
0.0
 10
-7127.905132219857
 20
6385.98854912773
 30
0.0
 10
-7127.895463456555
 20
6386.044623418352
 30
0.0
 10
-7127.875971678403
 20
6386.091614674398
 30
0.0
 10
-7127.850599424631
 20
6386.131630502365
 30
0.0
 10
-7127.815691747888
 20
6386.161406725951
 30
0.0
 10
-7127.773985994352
 20
6386.183395365302
 30
0.0
 10
-7127.724801571531
 20
6386.195729399246
 30
0.0
 10
-7127.689694079556
 20
6386.197167697695
 30
0.0
 10
-7127.671327881694
 20
6386.197920131789
 30
0.0
  0
SPLINE
  5
7A
330
1F
100
AcDbEntity
  8
0
  6
Continuous
 62
     7
370
    25
100
AcDbSpline
210
0.0
220
0.0
230
1.0
 70
     8
 71
     3
 72
    15
 73
    11
 74
     0
 42
0.000000001
 43
0.00000001
 40
0.0
 40
0.0
 40
0.0
 40
0.0
 40
0.1276214145536418
 40
0.2496255370571784
 40
0.3727052207489945
 40
0.4998668058613966
 40
0.6277318322075278
 40
0.7503744629428792
 40
0.8723785854463582
 40
1.0
 40
1.0
 40
1.0
 40
1.0
 10
-7126.828844773586
 20
6386.197920131789
 30
0.0
 10
-7126.78815433986
 20
6386.200206652983
 30
0.0
 10
-7126.70856447316
 20
6386.204679053508
 30
0.0
 10
-7126.593507062198
 20
6386.238510435135
 30
0.0
 10
-7126.488927795273
 20
6386.295888093114
 30
0.0
 10
-7126.395119619879
 20
6386.372637416882
 30
0.0
 10
-7126.31814184916
 20
6386.465918619827
 30
0.0
 10
-7126.258762495546
 20
6386.569556092188
 30
0.0
 10
-7126.225492761617
 20
6386.684748355947
 30
0.0
 10
-7126.220948459817
 20
6386.764301061576
 30
0.0
 10
-7126.218625178992
 20
6386.804972496653
 30
0.0
  0
SPLINE
  5
7D
330
1F
100
AcDbEntity
  8
0
  6
Continuous
 62
     7
370
    25
100
AcDbSpline
210
0.0
220
0.0
230
1.0
 70
     8
 71
     3
 72
    23
 73
    19
 74
     0
 42
0.000000001
 43
0.00000001
 40
0.0
 40
0.0
 40
0.0
 40
0.0
 40
0.0654089211840994
 40
0.1288954245589999
 40
0.190524296045616
 40
0.2519389918314962
 40
0.3128299810524053
 40
0.3744618219611493
 40
0.4371389187316675
 40
0.5013990124460485
 40
0.5660650739897883
 40
0.628258532651257
 40
0.6898903735600143
 40
0.7502349192920507
 40
0.811278995464278
 40
0.8729078669509002
 40
0.9351954156187418
 40
1.0
 40
1.0
 40
1.0
 40
1.0
 10
-7127.200466395208
 20
6387.751974185843
 30
0.0
 10
-7127.238513996503
 20
6387.753068273316
 30
0.0
 10
-7127.313490951231
 20
6387.755224292201
 30
0.0
 10
-7127.423613350541
 20
6387.769870867733
 30
0.0
 10
-7127.529093096648
 20
6387.795904556973
 30
0.0
 10
-7127.630652116046
 20
6387.830136881395
 30
0.0
 10
-7127.727516440287
 20
6387.876157492643
 30
0.0
 10
-7127.819538991452
 20
6387.932503208554
 30
0.0
 10
-7127.907413592398
 20
6387.998370481253
 30
0.0
 10
-7127.990678000121
 20
6388.072730534637
 30
0.0
 10
-7128.065408232129
 20
6388.155274105129
 30
0.0
 10
-7128.131934744965
 20
6388.242615678957
 30
0.0
 10
-7128.187757693221
 20
6388.334290469521
 30
0.0
 10
-7128.233727204918
 20
6388.430500052465
 30
0.0
 10
-7128.269788344886
 20
6388.530885766981
 30
0.0
 10
-7128.294965958211
 20
6388.635672097253
 30
0.0
 10
-7128.310091966019
 20
6388.744635189744
 30
0.0
 10
-7128.312163495647
 20
6388.818578000957
 30
0.0
 10
-7128.313219773588
 20
6388.856281618275
 30
0.0
  0
SPLINE
  5
7F
330
1F
100
AcDbEntity
  8
0
  6
Continuous
 62
     7
370
    25
100
AcDbSpline
210
0.0
220
0.0
230
1.0
 70
     8
 71
     3
 72
    15
 73
    11
 74
     0
 42
0.000000001
 43
0.00000001
 40
0.0
 40
0.0
 40
0.0
 40
0.0
 40
0.1354286630936442
 40
0.2590269151055054
 40
0.3707042516398465
 40
0.4790471821148095
 40
0.5907245186490185
 40
0.711855597360884
 40
0.8467799583351691
 40
1.0
 40
1.0
 40
1.0
 40
1.0
 10
-7128.313219773588
 20
6390.416670131788
 30
0.0
 10
-7128.312472828312
 20
6390.435392966122
 30
0.0
 10
-7128.311044187391
 20
6390.471203096036
 30
0.0
 10
-7128.298622285108
 20
6390.521331509727
 30
0.0
 10
-7128.277079734476
 20
6390.564097773423
 30
0.0
 10
-7128.246584498477
 20
6390.598976813827
 30
0.0
 10
-7128.207298269189
 20
6390.625744363079
 30
0.0
 10
-7128.159861104564
 20
6390.644940805875
 30
0.0
 10
-7128.103867519512
 20
6390.654724036675
 30
0.0
 10
-7128.064097244373
 20
6390.656457713223
 30
0.0
 10
-7128.042949503317
 20
6390.657379591248
 30
0.0
  0
SPLINE
  5
80
330
1F
100
AcDbEntity
  8
0
  6
Continuous
 62
     7
370
    25
100
AcDbSpline
210
0.0
220
0.0
230
1.0
 70
     8
 71
     3
 72
    15
 73
    11
 74
     0
 42
0.000000001
 43
0.00000001
 40
0.0
 40
0.0
 40
0.0
 40
0.0
 40
0.1691382693021014
 40
0.3176902073342704
 40
0.4474110356377982
 40
0.5634106106293745
 40
0.6687664326274229
 40
0.7731538901270872
 40
0.8800408488353575
 40
1.0
 40
1.0
 40
1.0
 40
1.0
 10
-7128.042949503317
 20
6390.657379591248
 30
0.0
 10
-7128.016486589199
 20
6390.65709605034
 30
0.0
 10
-7127.96678164243
 20
6390.656563479148
 30
0.0
 10
-7127.897814374314
 20
6390.644303345232
 30
0.0
 10
-7127.838200909058
 20
6390.627592179564
 30
0.0
 10
-7127.790005745249
 20
6390.600618111176
 30
0.0
 10
-7127.750789114322
 20
6390.56732558768
 30
0.0
 10
-7127.724322050956
 20
6390.524813038367
 30
0.0
 10
-7127.707523456699
 20
6390.475248923365
 30
0.0
 10
-7127.705945898578
 20
6390.439694658813
 30
0.0
 10
-7127.705111665477
 20
6390.420893104761
 30
0.0
  0
SPLINE
  5
82
330
1F
100
AcDbEntity
  8
0
  6
Continuous
 62
     7
370
    25
100
AcDbSpline
210
0.0
220
0.0
230
1.0
 70
     8
 71
     3
 72
    15
 73
    11
 74
     0
 42
0.000000001
 43
0.00000001
 40
0.0
 40
0.0
 40
0.0
 40
0.0
 40
0.1435805382302424
 40
0.2773180907195663
 40
0.4047876967772029
 40
0.5341163941168884
 40
0.6605782338346152
 40
0.7766771723013595
 40
0.8879535422141074
 40
1.0
 40
1.0
 40
1.0
 40
1.0
 10
-7127.705111665477
 20
6388.898511348005
 30
0.0
 10
-7127.703271234369
 20
6388.855357904598
 30
0.0
 10
-7127.699716540622
 20
6388.772009348583
 30
0.0
 10
-7127.667105110258
 20
6388.653941480088
 30
0.0
 10
-7127.614435212085
 20
6388.548389920653
 30
0.0
 10
-7127.541331764425
 20
6388.458611819291
 30
0.0
 10
-7127.45628858414
 20
6388.385360945264
 30
0.0
 10
-7127.363644602372
 20
6388.332603607229
 30
0.0
 10
-7127.266515340174
 20
6388.298370443865
 30
0.0
 10
-7127.199333580177
 20
6388.294471114252
 30
0.0
 10
-7127.165626868181
 20
6388.292514726383
 30
0.0
  0
SPLINE
  5
85
330
1F
100
AcDbEntity
  8
0
  6
Continuous
 62
     7
370
    25
100
AcDbSpline
210
0.0
220
0.0
230
1.0
 70
     8
 71
     3
 72
    15
 73
    11
 74
     0
 42
0.000000001
 43
0.00000001
 40
0.0
 40
0.0
 40
0.0
 40
0.0
 40
0.1364411897142755
 40
0.2559957227680546
 40
0.3685080101434228
 40
0.4757423758333152
 40
0.5882546632087966
 40
0.7093427114891878
 40
0.8457839012034856
 40
1.0
 40
1.0
 40
1.0
 40
1.0
 10
-7126.218625178992
 20
6390.420893104761
 30
0.0
 10
-7126.217970225323
 20
6390.439643261991
 30
0.0
 10
-7126.216741378389
 20
6390.474822961482
 30
0.0
 10
-7126.203529595095
 20
6390.523964069998
 30
0.0
 10
-7126.182860111041
 20
6390.566195804263
 30
0.0
 10
-7126.151544756604
 20
6390.599921555811
 30
0.0
 10
-7126.113008261811
 20
6390.627171785319
 30
0.0
 10
-7126.06483931742
 20
6390.64422968196
 30
0.0
 10
-7126.009508153267
 20
6390.656536708254
 30
0.0
 10
-7125.969553782539
 20
6390.657087404458
 30
0.0
 10
-7125.948354908721
 20
6390.657379591248
 30
0.0
  0
SPLINE
  5
87
330
1F
100
AcDbEntity
  8
0
  6
Continuous
 62
     7
370
    25
100
AcDbSpline
210
0.0
220
0.0
230
1.0
 70
     8
 71
     3
 72
    11
 73
     7
 74
     0
 42
0.000000001
 43
0.00000001
 40
0.0
 40
0.0
 40
0.0
 40
0.0
 40
0.2709176399660321
 40
0.5183552371053257
 40
0.7516456497895939
 40
1.0
 40
1.0
 40
1.0
 40
1.0
 10
-7121.515922476288
 20
6390.594034996654
 30
0.0
 10
-7121.50352965088
 20
6390.613837019254
 30
0.0
 10
-7121.479818068444
 20
6390.651724851592
 30
0.0
 10
-7121.429829329581
 20
6390.693945801726
 30
0.0
 10
-7121.371904661927
 20
6390.720465638743
 30
0.0
 10
-7121.330398800616
 20
6390.723422492572
 30
0.0
 10
-7121.308996800613
 20
6390.724947158816
 30
0.0
  0
SPLINE
  5
88
330
1F
100
AcDbEntity
  8
0
  6
Continuous
 62
     7
370
    25
100
AcDbSpline
210
0.0
220
0.0
230
1.0
 70
     8
 71
     3
 72
    15
 73
    11
 74
     0
 42
0.000000001
 43
0.00000001
 40
0.0
 40
0.0
 40
0.0
 40
0.0
 40
0.1634481711842232
 40
0.3077932699324813
 40
0.4342702607694934
 40
0.5497655524641955
 40
0.6554189183656313
 40
0.7626357660706148
 40
0.8753532093178695
 40
1.0
 40
1.0
 40
1.0
 40
1.0
 10
-7121.308996800613
 20
6390.724947158816
 30
0.0
 10
-7121.283981640129
 20
6390.724017608041
 30
0.0
 10
-7121.236874976361
 20
6390.722267148123
 30
0.0
 10
-7121.170850307512
 20
6390.712621018915
 30
0.0
 10
-7121.114371986284
 20
6390.693709146696
 30
0.0
 10
-7121.068376448649
 20
6390.666131613838
 30
0.0
 10
-7121.031533390923
 20
6390.631171412824
 30
0.0
 10
-7121.005799315831
 20
6390.587767249299
 30
0.0
 10
-7120.990931123611
 20
6390.536556983808
 30
0.0
 10
-7120.989042582145
 20
6390.500175456626
 30
0.0
 10
-7120.988050854668
 20
6390.481070469626
 30
0.0
  0
SPLINE
  5
89
330
1F
100
AcDbEntity
  8
0
  6
Continuous
 62
     7
370
    25
100
AcDbSpline
210
0.0
220
0.0
230
1.0
 70
     8
 71
     3
 72
     9
 73
     5
 74
     0
 42
0.000000001
 43
0.00000001
 40
0.0
 40
0.0
 40
0.0
 40
0.0
 40
0.5361226439301324
 40
1.0
 40
1.0
 40
1.0
 40
1.0
 10
-7120.988050854668
 20
6390.481070469626
 30
0.0
 10
-7120.98876587148
 20
6390.467165748269
 30
0.0
 10
-7120.990099552905
 20
6390.441230038378
 30
0.0
 10
-7121.006008767911
 20
6390.420846757852
 30
0.0
 10
-7121.013388692505
 20
6390.411391415572
 30
0.0
  0
SPLINE
  5
8C
330
1F
100
AcDbEntity
  8
0
  6
Continuous
 62
     7
370
    25
100
AcDbSpline
210
0.0
220
0.0
230
1.0
 70
     8
 71
     3
 72
     9
 73
     5
 74
     0
 42
0.000000001
 43
0.00000001
 40
0.0
 40
0.0
 40
0.0
 40
0.0
 40
0.5823723018135604
 40
1.0
 40
1.0
 40
1.0
 40
1.0
 10
-7121.021834638452
 20
6386.008942091248
 30
0.0
 10
-7121.012072515688
 20
6385.987486194455
 30
0.0
 10
-7120.995309831866
 20
6385.950643960155
 30
0.0
 10
-7120.990189321587
 20
6385.91059262475
 30
0.0
 10
-7120.988050854668
 20
6385.893866077734
 30
0.0
  0
SPLINE
  5
8D
330
1F
100
AcDbEntity
  8
0
  6
Continuous
 62
     7
370
    25
100
AcDbSpline
210
0.0
220
0.0
230
1.0
 70
     8
 71
     3
 72
    15
 73
    11
 74
     0
 42
0.000000001
 43
0.00000001
 40
0.0
 40
0.0
 40
0.0
 40
0.0
 40
0.1240341000265226
 40
0.2375305909334861
 40
0.3429942595889258
 40
0.450443737130795
 40
0.5652980375054143
 40
0.6914725624247047
 40
0.8358968367354259
 40
1.0
 40
1.0
 40
1.0
 40
1.0
 10
-7120.988050854668
 20
6385.893866077734
 30
0.0
 10
-7120.989197176817
 20
6385.875510020775
 30
0.0
 10
-7120.991392432618
 20
6385.840357388909
 30
0.0
 10
-7121.004305164184
 20
6385.790494716322
 30
0.0
 10
-7121.030168420067
 20
6385.749014665325
 30
0.0
 10
-7121.064454253387
 20
6385.713749106199
 30
0.0
 10
-7121.110571644559
 20
6385.689375660329
 30
0.0
 10
-7121.164313417355
 20
6385.669430390438
 30
0.0
 10
-7121.228464955157
 20
6385.66012776917
 30
0.0
 10
-7121.274143390509
 20
6385.658333792456
 30
0.0
 10
-7121.298439368181
 20
6385.657379591248
 30
0.0
  0
SPLINE
  5
8E
330
1F
100
AcDbEntity
  8
0
  6
Continuous
 62
     7
370
    25
100
AcDbSpline
210
0.0
220
0.0
230
1.0
 70
     8
 71
     3
 72
    11
 73
     7
 74
     0
 42
0.000000001
 43
0.00000001
 40
0.0
 40
0.0
 40
0.0
 40
0.0
 40
0.258802106622865
 40
0.4952013581237
 40
0.7346529243246044
 40
1.0
 40
1.0
 40
1.0
 40
1.0
 10
-7121.298439368181
 20
6385.657379591248
 30
0.0
 10
-7121.32302285175
 20
6385.659058055657
 30
0.0
 10
-7121.370061782803
 20
6385.662269690467
 30
0.0
 10
-7121.43493501887
 20
6385.691293460684
 30
0.0
 10
-7121.48683776599
 20
6385.740504914093
 30
0.0
 10
-7121.509361569784
 20
6385.782899145378
 30
0.0
 10
-7121.521201192505
 20
6385.805183645303
 30
0.0
  0
SPLINE
  5
91
330
1F
100
AcDbEntity
  8
0
  6
Continuous
 62
     7
370
    25
100
AcDbSpline
210
0.0
220
0.0
230
1.0
 70
     8
 71
     3
 72
    15
 73
    11
 74
     0
 42
0.000000001
 43
0.00000001
 40
0.0
 40
0.0
 40
0.0
 40
0.0
 40
0.1208158510018604
 40
0.2307257204520216
 40
0.3358108859966685
 40
0.4414612828648313
 40
0.5572426563436941
 40
0.6861667178992102
 40
0.8326774575843902
 40
1.0
 40
1.0
 40
1.0
 40
1.0
 10
-7122.394300854668
 20
6385.901256280437
 30
0.0
 10
-7122.395188207001
 20
6385.882121592059
 30
0.0
 10
-7122.396882810848
 20
6385.845579493275
 30
0.0
 10
-7122.413238842324
 20
6385.794485154041
 30
0.0
 10
-7122.439937851959
 20
6385.750692419847
 30
0.0
 10
-7122.479080099987
 20
6385.716234844299
 30
0.0
 10
-7122.527298572612
 20
6385.688357640071
 30
0.0
 10
-7122.586703527356
 20
6385.669798061767
 30
0.0
 10
-7122.656147627829
 20
6385.660001360034
 30
0.0
 10
-7122.705712704303
 20
6385.658291314638
 30
0.0
 10
-7122.732138692506
 20
6385.657379591248
 30
0.0
  0
SPLINE
  5
92
330
1F
100
AcDbEntity
  8
0
  6
Continuous
 62
     7
370
    25
100
AcDbSpline
210
0.0
220
0.0
230
1.0
 70
     8
 71
     3
 72
    15
 73
    11
 74
     0
 42
0.000000001
 43
0.00000001
 40
0.0
 40
0.0
 40
0.0
 40
0.0
 40
0.1522627887176844
 40
0.2863442002919276
 40
0.4067185041010962
 40
0.5191616594360299
 40
0.626827709860679
 40
0.7400663294711596
 40
0.8628923927423829
 40
1.0
 40
1.0
 40
1.0
 40
1.0
 10
-7122.732138692506
 20
6385.657379591248
 30
0.0
 10
-7122.753292906058
 20
6385.658292695436
 30
0.0
 10
-7122.793075353322
 20
6385.660009871976
 30
0.0
 10
-7122.848988686324
 20
6385.669901889004
 30
0.0
 10
-7122.896877411818
 20
6385.68882062507
 30
0.0
 10
-7122.935421058414
 20
6385.716956489832
 30
0.0
 10
-7122.966654730445
 20
6385.751823200899
 30
0.0
 10
-7122.987526546611
 20
6385.79534911563
 30
0.0
 10
-7123.00038058161
 20
6385.845977212366
 30
0.0
 10
-7123.001708515483
 20
6385.882167129816
 30
0.0
 10
-7123.002408962775
 20
6385.901256280437
 30
0.0
  0
SPLINE
  5
95
330
1F
100
AcDbEntity
  8
0
  6
Continuous
 62
     7
370
    25
100
AcDbSpline
210
0.0
220
0.0
230
1.0
 70
     8
 71
     3
 72
    11
 73
     7
 74
     0
 42
0.000000001
 43
0.00000001
 40
0.0
 40
0.0
 40
0.0
 40
0.0
 40
0.2296062225560447
 40
0.4584831004938161
 40
0.7079181528724197
 40
1.0
 40
1.0
 40
1.0
 40
1.0
 10
-7123.876564368181
 20
6385.797793442599
 30
0.0
 10
-7123.889690501038
 20
6385.776255177776
 30
0.0
 10
-7123.915901071564
 20
6385.733247064469
 30
0.0
 10
-7123.980425540885
 20
6385.687660239275
 30
0.0
 10
-7124.061023391625
 20
6385.660806338791
 30
0.0
 10
-7124.120196650417
 20
6385.658580277736
 30
0.0
 10
-7124.152113354668
 20
6385.657379591248
 30
0.0
  0
SPLINE
  5
96
330
1F
100
AcDbEntity
  8
0
  6
Continuous
 62
     7
370
    25
100
AcDbSpline
210
0.0
220
0.0
230
1.0
 70
     8
 71
     3
 72
    15
 73
    11
 74
     0
 42
0.000000001
 43
0.00000001
 40
0.0
 40
0.0
 40
0.0
 40
0.0
 40
0.148046257603061
 40
0.2796767346118487
 40
0.399888344116409
 40
0.5094342982498529
 40
0.6201256482430739
 40
0.7330091189634769
 40
0.8599852866971217
 40
1.0
 40
1.0
 40
1.0
 40
1.0
 10
-7124.152113354668
 20
6385.657379591248
 30
0.0
 10
-7124.171502724512
 20
6385.658307596971
 30
0.0
 10
-7124.208131516969
 20
6385.660060708563
 30
0.0
 10
-7124.259982567016
 20
6385.669909911442
 30
0.0
 10
-7124.303646400529
 20
6385.689152738078
 30
0.0
 10
-7124.340478851836
 20
6385.715089914775
 30
0.0
 10
-7124.368112077448
 20
6385.749630455119
 30
0.0
 10
-7124.387589927243
 20
6385.791619025036
 30
0.0
 10
-7124.398870326479
 20
6385.840496527586
 30
0.0
 10
-7124.400443670696
 20
6385.875506324534
 30
0.0
 10
-7124.401268760073
 20
6385.893866077734
 30
0.0
  0
SPLINE
  5
97
330
1F
100
AcDbEntity
  8
0
  6
Continuous
 62
     7
370
    25
100
AcDbSpline
210
0.0
220
0.0
230
1.0
 70
     8
 71
     3
 72
     9
 73
     5
 74
     0
 42
0.000000001
 43
0.00000001
 40
0.0
 40
0.0
 40
0.0
 40
0.0
 40
0.4902628817700481
 40
1.0
 40
1.0
 40
1.0
 40
1.0
 10
-7124.401268760073
 20
6385.893866077734
 30
0.0
 10
-7124.400216103651
 20
6385.912419974271
 30
0.0
 10
-7124.39806897716
 20
6385.950264765761
 30
0.0
 10
-7124.382706171352
 20
6385.984934951316
 30
0.0
 10
-7124.374875178991
 20
6386.002607631789
 30
0.0
  0
SPLINE
  5
9A
330
1F
100
AcDbEntity
  8
0
  6
Continuous
 62
     7
370
    25
100
AcDbSpline
210
0.0
220
0.0
230
1.0
 70
     8
 71
     3
 72
     9
 73
     5
 74
     0
 42
0.000000001
 43
0.00000001
 40
0.0
 40
0.0
 40
0.0
 40
0.0
 40
0.5026169593349165
 40
0.9999999999999999
 40
0.9999999999999999
 40
0.9999999999999999
 40
0.9999999999999999
 10
-7124.369596462775
 20
6390.359659996654
 30
0.0
 10
-7124.37856928187
 20
6390.379046979064
 30
0.0
 10
-7124.396421483088
 20
6390.417619060745
 30
0.0
 10
-7124.399658648765
 20
6390.459993928871
 30
0.0
 10
-7124.401268760073
 20
6390.481070469626
 30
0.0
  0
SPLINE
  5
9B
330
1F
100
AcDbEntity
  8
0
  6
Continuous
 62
     7
370
    25
100
AcDbSpline
210
0.0
220
0.0
230
1.0
 70
     8
 71
     3
 72
    15
 73
    11
 74
     0
 42
0.000000001
 43
0.00000001
 40
0.0
 40
0.0
 40
0.0
 40
0.0
 40
0.1421675859461908
 40
0.2689025851803795
 40
0.3851698358188752
 40
0.4934236150102766
 40
0.6037275386025983
 40
0.7212919285242275
 40
0.852595171290872
 40
1.0
 40
1.0
 40
1.0
 40
1.0
 10
-7124.401268760073
 20
6390.481070469626
 30
0.0
 10
-7124.400458769883
 20
6390.500135540193
 30
0.0
 10
-7124.398926715618
 20
6390.53619612832
 30
0.0
 10
-7124.387544110637
 20
6390.58690006668
 30
0.0
 10
-7124.367586655431
 20
6390.630070556539
 30
0.0
 10
-7124.338787145512
 20
6390.664964436379
 30
0.0
 10
-7124.303360882816
 20
6390.693494559791
 30
0.0
 10
-7124.258499549909
 20
6390.712445360535
 30
0.0
 10
-7124.206033116739
 20
6390.722267547457
 30
0.0
 10
-7124.168694173505
 20
6390.724020203416
 30
0.0
 10
-7124.148946124938
 20
6390.724947158816
 30
0.0
  0
SPLINE
  5
9C
330
1F
100
AcDbEntity
  8
0
  6
Continuous
 62
     7
370
    25
100
AcDbSpline
210
0.0
220
0.0
230
1.0
 70
     8
 71
     3
 72
    11
 73
     7
 74
     0
 42
0.000000001
 43
0.00000001
 40
0.0
 40
0.0
 40
0.0
 40
0.0
 40
0.2869044208512072
 40
0.537432935918381
 40
0.769466260360666
 40
1.0
 40
1.0
 40
1.0
 40
1.0
 10
-7124.148946124938
 20
6390.724947158816
 30
0.0
 10
-7124.11917632469
 20
6390.723498218748
 30
0.0
 10
-7124.063411163936
 20
6390.720784046161
 30
0.0
 10
-7123.986719556639
 20
6390.696304524832
 30
0.0
 10
-7123.923790723999
 20
6390.654445675556
 30
0.0
 10
-7123.897204558912
 20
6390.614128321676
 30
0.0
 10
-7123.883954570883
 20
6390.594034996654
 30
0.0
  0
SPLINE
  5
9F
330
1F
100
AcDbEntity
  8
0
  6
Continuous
 62
     7
370
    25
100
AcDbSpline
210
0.0
220
0.0
230
1.0
 70
     8
 71
     3
 72
    15
 73
    11
 74
     0
 42
0.000000001
 43
0.00000001
 40
0.0
 40
0.0
 40
0.0
 40
0.0
 40
0.1377080627420949
 40
0.2588409648666849
 40
0.3738743363093092
 40
0.4819480430706776
 40
0.593458022488405
 40
0.7121729627322636
 40
0.8473444115796512
 40
0.9999999999999999
 40
0.9999999999999999
 40
0.9999999999999999
 40
0.9999999999999999
 10
-7123.002408962775
 20
6390.477903239896
 30
0.0
 10
-7123.001712004433
 20
6390.497330976088
 30
0.0
 10
-7123.000401976781
 20
6390.533848038929
 30
0.0
 10
-7122.987629294791
 20
6390.585484839172
 30
0.0
 10
-7122.965320611464
 20
6390.628938642426
 30
0.0
 10
-7122.935042468594
 20
6390.665859566501
 30
0.0
 10
-7122.894460227849
 20
6390.691952546203
 30
0.0
 10
-7122.846558800683
 20
6390.711413739311
 30
0.0
 10
-7122.789999155677
 20
6390.722620876474
 30
0.0
 10
-7122.749431627139
 20
6390.724140952216
 30
0.0
 10
-7122.727915719533
 20
6390.724947158816
 30
0.0
  0
SPLINE
  5
A0
330
1F
100
AcDbEntity
  8
0
  6
Continuous
 62
     7
370
    25
100
AcDbSpline
210
0.0
220
0.0
230
1.0
 70
     8
 71
     3
 72
    15
 73
    11
 74
     0
 42
0.000000001
 43
0.00000001
 40
0.0
 40
0.0
 40
0.0
 40
0.0
 40
0.1655314163247039
 40
0.3105811605146473
 40
0.4398437168704514
 40
0.5528805432963114
 40
0.6603281741447128
 40
0.7664441925155577
 40
0.8766426343149013
 40
1.0
 40
1.0
 40
1.0
 40
1.0
 10
-7122.727915719533
 20
6390.724947158816
 30
0.0
 10
-7122.701818115797
 20
6390.724184952805
 30
0.0
 10
-7122.652852038936
 20
6390.722754850697
 30
0.0
 10
-7122.584343119728
 20
6390.711075761528
 30
0.0
 10
-7122.52572267991
 20
6390.692985083024
 30
0.0
 10
-7122.477307522479
 20
6390.665900167781
 30
0.0
 10
-7122.438694652956
 20
6390.630726624847
 30
0.0
 10
-7122.413691157921
 20
6390.585625282942
 30
0.0
 10
-7122.396654622396
 20
6390.534360459498
 30
0.0
 10
-7122.395114370695
 20
6390.497416147819
 30
0.0
 10
-7122.394300854668
 20
6390.477903239896
 30
0.0
  0
SPLINE
  5
A4
330
1F
100
AcDbEntity
  8
0
  6
Continuous
 62
     7
370
    25
100
AcDbSpline
210
0.0
220
0.0
230
1.0
 70
     8
 71
     3
 72
    15
 73
    11
 74
     0
 42
0.000000001
 43
0.00000001
 40
0.0
 40
0.0
 40
0.0
 40
0.0
 40
0.1196517683248625
 40
0.2283994244660636
 40
0.3325193999703772
 40
0.4376052586396905
 40
0.5533075967933264
 40
0.6833774865704747
 40
0.8311903582105276
 40
1.0
 40
1.0
 40
1.0
 40
1.0
 10
-7119.042949503316
 20
6385.895977564222
 30
0.0
 10
-7119.043835069416
 20
6385.877192394602
 30
0.0
 10
-7119.045525498152
 20
6385.841333986579
 30
0.0
 10
-7119.061895971477
 20
6385.791256748371
 30
0.0
 10
-7119.088655461622
 20
6385.748519140629
 30
0.0
 10
-7119.127811523675
 20
6385.715104583091
 30
0.0
 10
-7119.176246079784
 20
6385.688565260161
 30
0.0
 10
-7119.235309760744
 20
6385.669714659482
 30
0.0
 10
-7119.304809296835
 20
6385.660026962317
 30
0.0
 10
-7119.354365880798
 20
6385.658300217862
 30
0.0
 10
-7119.380787341154
 20
6385.657379591248
 30
0.0
  0
SPLINE
  5
A5
330
1F
100
AcDbEntity
  8
0
  6
Continuous
 62
     7
370
    25
100
AcDbSpline
210
0.0
220
0.0
230
1.0
 70
     8
 71
     3
 72
    15
 73
    11
 74
     0
 42
0.000000001
 43
0.00000001
 40
0.0
 40
0.0
 40
0.0
 40
0.0
 40
0.1528612850161944
 40
0.2874697277135131
 40
0.4083171843914826
 40
0.5197330343307333
 40
0.6278222855466494
 40
0.7415060099346537
 40
0.8623534666125603
 40
1.0
 40
1.0
 40
1.0
 40
1.0
 10
-7119.380787341154
 20
6385.657379591248
 30
0.0
 10
-7119.40193545133
 20
6385.658301298107
 30
0.0
 10
-7119.441706420636
 20
6385.66003465276
 30
0.0
 10
-7119.497695428986
 20
6385.669820005843
 30
0.0
 10
-7119.54514745177
 20
6385.689009558695
 30
0.0
 10
-7119.584383988971
 20
6385.715800150888
 30
0.0
 10
-7119.615268362224
 20
6385.750834688454
 30
0.0
 10
-7119.635977695881
 20
6385.793977929011
 30
0.0
 10
-7119.649160154771
 20
6385.844183592765
 30
0.0
 10
-7119.650398304146
 20
6385.880047482855
 30
0.0
 10
-7119.651057611424
 20
6385.899144793951
 30
0.0
  0
SPLINE
  5
A7
330
1F
100
AcDbEntity
  8
0
  6
Continuous
 62
     7
370
    25
100
AcDbSpline
210
0.0
220
0.0
230
1.0
 70
     8
 71
     3
 72
    15
 73
    11
 74
     0
 42
0.000000001
 43
0.00000001
 40
0.0
 40
0.0
 40
0.0
 40
0.0
 40
0.1376465333875372
 40
0.2584939900654358
 40
0.3721777144534326
 40
0.4802669656693416
 40
0.591682815608524
 40
0.7125302722865261
 40
0.8471387149838157
 40
1.0
 40
1.0
 40
1.0
 40
1.0
 10
-7119.651057611424
 20
6390.415614388546
 30
0.0
 10
-7119.650398304146
 20
6390.434711699641
 30
0.0
 10
-7119.649160154771
 20
6390.470575589731
 30
0.0
 10
-7119.635977695881
 20
6390.520781253485
 30
0.0
 10
-7119.615268362224
 20
6390.563924494042
 30
0.0
 10
-7119.584383988971
 20
6390.598959031608
 30
0.0
 10
-7119.54514745177
 20
6390.625749623801
 30
0.0
 10
-7119.497695428986
 20
6390.644939176653
 30
0.0
 10
-7119.441706420635
 20
6390.654724529735
 30
0.0
 10
-7119.40193545133
 20
6390.65645788439
 30
0.0
 10
-7119.380787341154
 20
6390.657379591248
 30
0.0
  0
SPLINE
  5
A9
330
1F
100
AcDbEntity
  8
0
  6
Continuous
 62
     7
370
    25
100
AcDbSpline
210
0.0
220
0.0
230
1.0
 70
     8
 71
     3
 72
    15
 73
    11
 74
     0
 42
0.000000001
 43
0.00000001
 40
0.0
 40
0.0
 40
0.0
 40
0.0
 40
0.1548790377790532
 40
0.2919933978856852
 40
0.4126674844478823
 40
0.5257810605822819
 40
0.6337152448525729
 40
0.7449712554429163
 40
0.8650822696620658
 40
1.0
 40
1.0
 40
1.0
 40
1.0
 10
-7117.605027206018
 20
6390.657379591248
 30
0.0
 10
-7117.580691370498
 20
6390.656658597571
 30
0.0
 10
-7117.534811027965
 20
6390.655299308435
 30
0.0
 10
-7117.47077927426
 20
6390.643030325766
 30
0.0
 10
-7117.416320311621
 20
6390.621557699232
 30
0.0
 10
-7117.370748428953
 20
6390.592189225963
 30
0.0
 10
-7117.335906670842
 20
6390.55253803127
 30
0.0
 10
-7117.310987328913
 20
6390.504843582891
 30
0.0
 10
-7117.297809524183
 20
6390.44831886692
 30
0.0
 10
-7117.295735769772
 20
6390.408287235244
 30
0.0
 10
-7117.294638692505
 20
6390.387109320977
 30
0.0
  0
SPLINE
  5
AA
330
1F
100
AcDbEntity
  8
0
  6
Continuous
 62
     7
370
    25
100
AcDbSpline
210
0.0
220
0.0
230
1.0
 70
     8
 71
     3
 72
    15
 73
    11
 74
     0
 42
0.000000001
 43
0.00000001
 40
0.0
 40
0.0
 40
0.0
 40
0.0
 40
0.134917730337931
 40
0.2550287445570777
 40
0.3662847551474185
 40
0.4742189394177774
 40
0.5873325155521221
 40
0.7080066021143164
 40
0.8451209622209451
 40
1.0
 40
1.0
 40
1.0
 40
1.0
 10
-7117.294638692505
 20
6390.387109320977
 30
0.0
 10
-7117.295735769772
 20
6390.365931406713
 30
0.0
 10
-7117.297809524182
 20
6390.325899775035
 30
0.0
 10
-7117.310987328913
 20
6390.269375059064
 30
0.0
 10
-7117.335906670842
 20
6390.221680610686
 30
0.0
 10
-7117.370748428953
 20
6390.182029415992
 30
0.0
 10
-7117.416320311621
 20
6390.152660942724
 30
0.0
 10
-7117.47077927426
 20
6390.13118831619
 30
0.0
 10
-7117.534811027965
 20
6390.11891933352
 30
0.0
 10
-7117.580691370496
 20
6390.117560044384
 30
0.0
 10
-7117.605027206018
 20
6390.116839050708
 30
0.0
  0
SPLINE
  5
AB
330
1F
100
AcDbEntity
  8
0
  6
Continuous
 62
     7
370
    25
100
AcDbSpline
210
0.0
220
0.0
230
1.0
 70
     8
 71
     3
 72
    15
 73
    11
 74
     0
 42
0.000000001
 43
0.00000001
 40
0.0
 40
0.0
 40
0.0
 40
0.0
 40
0.1276094144621085
 40
0.2499167177708354
 40
0.3720143427042997
 40
0.5005763638076249
 40
0.6284293671556627
 40
0.7514974778096204
 40
0.8734901284089317
 40
1.0
 40
1.0
 40
1.0
 40
1.0
 10
-7113.934841395208
 20
6389.508730942599
 30
0.0
 10
-7113.93701900788
 20
6389.549455992541
 30
0.0
 10
-7113.94128375444
 20
6389.629213985754
 30
0.0
 10
-7113.976637675866
 20
6389.743572168964
 30
0.0
 10
-7114.033901878694
 20
6389.848556109567
 30
0.0
 10
-7114.112914027221
 20
6389.940595589846
 30
0.0
 10
-7114.205736838946
 20
6390.019038711396
 30
0.0
 10
-7114.310847965929
 20
6390.076178313674
 30
0.0
 10
-7114.425478643614
 20
6390.109994101744
 30
0.0
 10
-7114.504720063711
 20
6390.114529917386
 30
0.0
 10
-7114.545060989803
 20
6390.116839050708
 30
0.0
  0
SPLINE
  5
AD
330
1F
100
AcDbEntity
  8
0
  6
Continuous
 62
     7
370
    25
100
AcDbSpline
210
0.0
220
0.0
230
1.0
 70
     8
 71
     3
 72
    15
 73
    11
 74
     0
 42
0.000000001
 43
0.00000001
 40
0.0
 40
0.0
 40
0.0
 40
0.0
 40
0.109714650399
 40
0.2209919735938514
 40
0.3382709755251097
 40
0.4647338986157481
 40
0.5948009642718078
 40
0.7238485466785254
 40
0.8575872448702756
 40
1.0
 40
1.0
 40
1.0
 40
1.0
 10
-7114.881843084398
 20
6390.116839050708
 30
0.0
 10
-7114.914812145429
 20
6390.114774810334
 30
0.0
 10
-7114.981219847945
 20
6390.110616928478
 30
0.0
 10
-7115.078379263352
 20
6390.077146356014
 30
0.0
 10
-7115.169790260657
 20
6390.021502364079
 30
0.0
 10
-7115.255522872229
 20
6389.948502929851
 30
0.0
 10
-7115.329808146128
 20
6389.858718199218
 30
0.0
 10
-7115.383270564746
 20
6389.752736004185
 30
0.0
 10
-7115.415816679576
 20
6389.634510544692
 30
0.0
 10
-7115.419452744112
 20
6389.551526335305
 30
0.0
 10
-7115.421327881695
 20
6389.508730942599
 30
0.0
  0
SPLINE
  5
AF
330
1F
100
AcDbEntity
  8
0
  6
Continuous
 62
     7
370
    25
100
AcDbSpline
210
0.0
220
0.0
230
1.0
 70
     8
 71
     3
 72
    15
 73
    11
 74
     0
 42
0.000000001
 43
0.00000001
 40
0.0
 40
0.0
 40
0.0
 40
0.0
 40
0.143503718383066
 40
0.2760390562758157
 40
0.4060618464747719
 40
0.5360582087399406
 40
0.6624523876220477
 40
0.7790740198611028
 40
0.8891793093881372
 40
1.0
 40
1.0
 40
1.0
 40
1.0
 10
-7115.421327881695
 20
6386.806028239896
 30
0.0
 10
-7115.419539414963
 20
6386.762857865469
 30
0.0
 10
-7115.41609917889
 20
6386.679816746046
 30
0.0
 10
-7115.382778380724
 20
6386.56152768318
 30
0.0
 10
-7115.330181549239
 20
6386.455128698937
 30
0.0
 10
-7115.255425182254
 20
6386.365320119359
 30
0.0
 10
-7115.170135633453
 20
6386.291960257282
 30
0.0
 10
-7115.078311953713
 20
6386.238083135623
 30
0.0
 10
-7114.981684439092
 20
6386.203806212883
 30
0.0
 10
-7114.915195304191
 20
6386.199886389869
 30
0.0
 10
-7114.881843084398
 20
6386.197920131789
 30
0.0
  0
SPLINE
  5
B1
330
1F
100
AcDbEntity
  8
0
  6
Continuous
 62
     7
370
    25
100
AcDbSpline
210
0.0
220
0.0
230
1.0
 70
     8
 71
     3
 72
    15
 73
    11
 74
     0
 42
0.000000001
 43
0.00000001
 40
0.0
 40
0.0
 40
0.0
 40
0.0
 40
0.1274982018433568
 40
0.249384534878314
 40
0.3723453906958134
 40
0.4993842070424825
 40
0.6271257854821485
 40
0.7506154651217453
 40
0.8725017981566895
 40
1.0
 40
1.0
 40
1.0
 40
1.0
 10
-7114.545060989803
 20
6386.197920131789
 30
0.0
 10
-7114.504370306894
 20
6386.200206516781
 30
0.0
 10
-7114.424779952798
 20
6386.204678650894
 30
0.0
 10
-7114.309726084291
 20
6386.238511968834
 30
0.0
 10
-7114.205133220676
 20
6386.295882194834
 30
0.0
 10
-7114.111377702397
 20
6386.372660301077
 30
0.0
 10
-7114.034006263879
 20
6386.46607267977
 30
0.0
 10
-7113.975244971716
 20
6386.570411047623
 30
0.0
 10
-7113.941661838126
 20
6386.685778354848
 30
0.0
 10
-7113.937148728823
 20
6386.765348095592
 30
0.0
 10
-7113.934841395208
 20
6386.806028239896
 30
0.0
  0
SPLINE
  5
B3
330
1F
100
AcDbEntity
  8
0
  6
Continuous
 62
     7
370
    25
100
AcDbSpline
210
0.0
220
0.0
230
1.0
 70
     8
 71
     3
 72
    23
 73
    19
 74
     0
 42
0.000000001
 43
0.00000001
 40
0.0
 40
0.0
 40
0.0
 40
0.0
 40
0.0596984677699059
 40
0.1182376316334375
 40
0.1758156760585508
 40
0.2340880145940115
 40
0.2926014098287419
 40
0.3524988403494551
 40
0.4143425792735546
 40
0.4790413569464486
 40
0.5438488242948537
 40
0.60778160063152
 40
0.6708302096469102
 40
0.7340778404193545
 40
0.7981519974078978
 40
0.8633307390899752
 40
0.9304699138440304
 40
1.0
 40
1.0
 40
1.0
 40
1.0
 10
-7113.3267332871
 20
6386.766965739896
 30
0.0
 10
-7113.327759129316
 20
6386.730668429
 30
0.0
 10
-7113.329790892585
 20
6386.658778676455
 30
0.0
 10
-7113.345651451375
 20
6386.55275800168
 30
0.0
 10
-7113.373851615626
 20
6386.450383091951
 30
0.0
 10
-7113.411541511444
 20
6386.351117609039
 30
0.0
 10
-7113.460760724812
 20
6386.255416076487
 30
0.0
 10
-7113.520283778516
 20
6386.163241095382
 30
0.0
 10
-7113.590383531061
 20
6386.073949544254
 30
0.0
 10
-7113.670933491658
 20
6385.989857770465
 30
0.0
 10
-7113.758787960879
 20
6385.911364801128
 30
0.0
 10
-7113.854467411421
 20
6385.844473525115
 30
0.0
 10
-7113.953813704395
 20
6385.784844136996
 30
0.0
 10
-7114.060435941346
 20
6385.739260049585
 30
0.0
 10
-7114.171325849833
 20
6385.701286269194
 30
0.0
 10
-7114.288404254991
 20
6385.676939608432
 30
0.0
 10
-7114.410143995663
 20
6385.660163715539
 30
0.0
 10
-7114.493269462733
 20
6385.658318393454
 30
0.0
 10
-7114.535559300613
 20
6385.657379591248
 30
0.0
  0
SPLINE
  5
B5
330
1F
100
AcDbEntity
  8
0
  6
Continuous
 62
     7
370
    25
100
AcDbSpline
210
0.0
220
0.0
230
1.0
 70
     8
 71
     3
 72
    23
 73
    19
 74
     0
 42
0.000000001
 43
0.00000001
 40
0.0
 40
0.0
 40
0.0
 40
0.0
 40
0.06519682737524
 40
0.1284903554511314
 40
0.1911004981255671
 40
0.252516038029511
 40
0.3137365289174455
 40
0.3756297926528554
 40
0.4384931710491399
 40
0.5032476829196495
 40
0.56792496157423
 40
0.6305493581231
 40
0.6920491304039688
 40
0.7524447192727017
 40
0.8129377656964527
 40
0.873804420208843
 40
0.9359969093510063
 40
1.0
 40
1.0
 40
1.0
 40
1.0
 10
-7114.89240051683
 20
6385.657379591248
 30
0.0
 10
-7114.930806993289
 20
6385.658447311102
 30
0.0
 10
-7115.006498741041
 20
6385.660551580725
 30
0.0
 10
-7115.118244718275
 20
6385.675671065801
 30
0.0
 10
-7115.225926580352
 20
6385.700579409982
 30
0.0
 10
-7115.32891230439
 20
6385.737158514703
 30
0.0
 10
-7115.427910106785
 20
6385.782444314899
 30
0.0
 10
-7115.521926440564
 20
6385.83901799074
 30
0.0
 10
-7115.612370494037
 20
6385.904691816448
 30
0.0
 10
-7115.696927129438
 20
6385.980290044647
 30
0.0
 10
-7115.774620635374
 20
6386.062744401103
 30
0.0
 10
-7115.842350495955
 20
6386.151102536392
 30
0.0
 10
-7115.901301332767
 20
6386.242679667061
 30
0.0
 10
-7115.947376938585
 20
6386.339930388481
 30
0.0
 10
-7115.98534107204
 20
6386.44025923351
 30
0.0
 10
-7116.009803075226
 20
6386.545768475234
 30
0.0
 10
-7116.026622561742
 20
6386.654869242097
 30
0.0
 10
-7116.028489252946
 20
6386.729244538726
 30
0.0
 10
-7116.029435989802
 20
6386.766965739896
 30
0.0
  0
SPLINE
  5
B7
330
1F
100
AcDbEntity
  8
0
  6
Continuous
 62
     7
370
    25
100
AcDbSpline
210
0.0
220
0.0
230
1.0
 70
     8
 71
     3
 72
    23
 73
    19
 74
     0
 42
0.000000001
 43
0.00000001
 40
0.0
 40
0.0
 40
0.0
 40
0.0
 40
0.0640219079057564
 40
0.1262326819779667
 40
0.1865365373545944
 40
0.2470473690630147
 40
0.3074607145633659
 40
0.3689785681117815
 40
0.4316213765738699
 40
0.4963176707001353
 40
0.5610912207493336
 40
0.6243271406750797
 40
0.686752875101063
 40
0.7479913651462958
 40
0.8094249615529859
 40
0.8714718676855101
 40
0.9347840044029083
 40
1.0
 40
1.0
 40
1.0
 40
1.0
 10
-7116.029435989802
 20
6389.547793442599
 30
0.0
 10
-7116.028480420406
 20
6389.585512501826
 30
0.0
 10
-7116.026596313985
 20
6389.659883575161
 30
0.0
 10
-7116.009955514571
 20
6389.768676436404
 30
0.0
 10
-7115.985144128374
 20
6389.873746680008
 30
0.0
 10
-7115.947397457163
 20
6389.973778224487
 30
0.0
 10
-7115.901294760751
 20
6390.071021001485
 30
0.0
 10
-7115.842356030015
 20
6390.162606883141
 30
0.0
 10
-7115.77460472431
 20
6390.25093724886
 30
0.0
 10
-7115.696987141421
 20
6390.333497311761
 30
0.0
 10
-7115.611993483727
 20
6390.408840765499
 30
0.0
 10
-7115.522136507049
 20
6390.476221024461
 30
0.0
 10
-7115.426978992629
 20
6390.531944853215
 30
0.0
 10
-7115.327901046918
 20
6390.57768377927
 30
0.0
 10
-7115.225166310136
 20
6390.613974240518
 30
0.0
 10
-7115.117930564665
 20
6390.63923681205
 30
0.0
 10
-7115.006491991999
 20
6390.654180804134
 30
0.0
 10
-7114.930804721502
 20
6390.656302851072
 30
0.0
 10
-7114.89240051683
 20
6390.657379591248
 30
0.0
  0
SPLINE
  5
B9
330
1F
100
AcDbEntity
  8
0
  6
Continuous
 62
     7
370
    25
100
AcDbSpline
210
0.0
220
0.0
230
1.0
 70
     8
 71
     3
 72
    23
 73
    19
 74
     0
 42
0.000000001
 43
0.00000001
 40
0.0
 40
0.0
 40
0.0
 40
0.0
 40
0.0695660886455717
 40
0.1367400278818089
 40
0.2020784391817906
 40
0.2654541770857414
 40
0.3289700421547118
 40
0.3917607770916719
 40
0.4560640589846682
 40
0.5209050834634957
 40
0.5856373619875769
 40
0.6478726413769029
 40
0.7078010866243164
 40
0.7663447799360384
 40
0.8241067595132526
 40
0.8822738882014277
 40
0.9402706205257897
 40
1.0
 40
1.0
 40
1.0
 40
1.0
 10
-7114.535559300613
 20
6390.657379591248
 30
0.0
 10
-7114.493280126195
 20
6390.656398959038
 30
0.0
 10
-7114.41017561937
 20
6390.654471415341
 30
0.0
 10
-7114.288208289384
 20
6390.638280075096
 30
0.0
 10
-7114.172043608289
 20
6390.611837305353
 30
0.0
 10
-7114.060645703086
 20
6390.576028471848
 30
0.0
 10
-7113.955540282856
 20
6390.5282374507
 30
0.0
 10
-7113.854801171524
 20
6390.470740064089
 30
0.0
 10
-7113.760265460667
 20
6390.402083368343
 30
0.0
 10
-7113.671853193077
 20
6390.324002025118
 30
0.0
 10
-7113.591557173206
 20
6390.239368862259
 30
0.0
 10
-7113.520186839953
 20
6390.150825087108
 30
0.0
 10
-7113.460778571364
 20
6390.058254823174
 30
0.0
 10
-7113.411823370541
 20
6389.962838216927
 30
0.0
 10
-7113.373410742323
 20
6389.863815219769
 30
0.0
 10
-7113.34598153465
 20
6389.761570406259
 30
0.0
 10
-7113.329676838591
 20
6389.655652827818
 30
0.0
 10
-7113.327724051052
 20
6389.584097611625
 30
0.0
 10
-7113.3267332871
 20
6389.547793442599
 30
0.0
  0
SPLINE
  5
BB
330
1F
100
AcDbEntity
  8
0
  6
Continuous
 62
     7
370
    25
100
AcDbSpline
210
0.0
220
0.0
230
1.0
 70
     8
 71
     3
 72
    15
 73
    11
 74
     0
 42
0.000000001
 43
0.00000001
 40
0.0
 40
0.0
 40
0.0
 40
0.0
 40
0.1292358118055136
 40
0.2539569466684262
 40
0.3771968047857527
 40
0.506654463882319
 40
0.6346707152581419
 40
0.7555544727615906
 40
0.8762798741110751
 40
1.0
 40
1.0
 40
1.0
 40
1.0
 10
-7110.585601530343
 20
6388.292514726383
 30
0.0
 10
-7110.545231756979
 20
6388.294333648242
 30
0.0
 10
-7110.46590247326
 20
6388.297907950404
 30
0.0
 10
-7110.352404254008
 20
6388.332471057776
 30
0.0
 10
-7110.247138578723
 20
6388.38626687901
 30
0.0
 10
-7110.153990692119
 20
6388.460844785925
 30
0.0
 10
-7110.074649054976
 20
6388.549016277659
 30
0.0
 10
-7110.017235490365
 20
6388.649776154737
 30
0.0
 10
-7109.982041214419
 20
6388.759320045121
 30
0.0
 10
-7109.977619751222
 20
6388.835614620039
 30
0.0
 10
-7109.975381935749
 20
6388.874229253411
 30
0.0
  0
SPLINE
  5
BD
330
1F
100
AcDbEntity
  8
0
  6
Continuous
 62
     7
370
    25
100
AcDbSpline
210
0.0
220
0.0
230
1.0
 70
     8
 71
     3
 72
    15
 73
    11
 74
     0
 42
0.000000001
 43
0.00000001
 40
0.0
 40
0.0
 40
0.0
 40
0.0
 40
0.1235134495525973
 40
0.244037177298357
 40
0.3652811780136239
 40
0.4939311243357897
 40
0.6229953715114868
 40
0.747548985049528
 40
0.8709800785672839
 40
1.0
 40
1.0
 40
1.0
 40
1.0
 10
-7109.975381935749
 20
6389.531957293951
 30
0.0
 10
-7109.977646003073
 20
6389.570556617409
 30
0.0
 10
-7109.982119334534
 20
6389.646820943089
 30
0.0
 10
-7110.016985308279
 20
6389.756756786765
 30
0.0
 10
-7110.076153514243
 20
6389.857012407481
 30
0.0
 10
-7110.15484292064
 20
6389.946020864833
 30
0.0
 10
-7110.247391351155
 20
6390.022554431922
 30
0.0
 10
-7110.352726841601
 20
6390.076533666593
 30
0.0
 10
-7110.466205627036
 20
6390.11157884747
 30
0.0
 10
-7110.545219816837
 20
6390.115059961022
 30
0.0
 10
-7110.585601530343
 20
6390.116839050708
 30
0.0
  0
SPLINE
  5
C2
330
1F
100
AcDbEntity
  8
0
  6
Continuous
 62
     7
370
    25
100
AcDbSpline
210
0.0
220
0.0
230
1.0
 70
     8
 71
     3
 72
    15
 73
    11
 74
     0
 42
0.000000001
 43
0.00000001
 40
0.0
 40
0.0
 40
0.0
 40
0.0
 40
0.1212059526124162
 40
0.2293436564902372
 40
0.3347681309251861
 40
0.4407596617558402
 40
0.5558130396878089
 40
0.6851533834086803
 40
0.8321371907836927
 40
1.0
 40
1.0
 40
1.0
 40
1.0
 10
-7111.461868422236
 20
6385.899144793951
 30
0.0
 10
-7111.462706655934
 20
6385.879996861881
 30
0.0
 10
-7111.464292746197
 20
6385.843765499803
 30
0.0
 10
-7111.481053122171
 20
6385.793145722987
 30
0.0
 10
-7111.507523428687
 20
6385.749699598126
 30
0.0
 10
-7111.546368312091
 20
6385.715026079733
 30
0.0
 10
-7111.595213562964
 20
6385.688625654973
 30
0.0
 10
-7111.654213084761
 20
6385.669695265567
 30
0.0
 10
-7111.723733002975
 20
6385.660032915733
 30
0.0
 10
-7111.773286464477
 20
6385.65830228817
 30
0.0
 10
-7111.799706260073
 20
6385.657379591248
 30
0.0
  0
SPLINE
  5
C3
330
1F
100
AcDbEntity
  8
0
  6
Continuous
 62
     7
370
    25
100
AcDbSpline
210
0.0
220
0.0
230
1.0
 70
     8
 71
     3
 72
    15
 73
    11
 74
     0
 42
0.000000001
 43
0.00000001
 40
0.0
 40
0.0
 40
0.0
 40
0.0
 40
0.1528612850161944
 40
0.2874697277135131
 40
0.4083171843914826
 40
0.5197330343307333
 40
0.6278222855466494
 40
0.7415060099346537
 40
0.8623534666125603
 40
1.0
 40
1.0
 40
1.0
 40
1.0
 10
-7111.799706260073
 20
6385.657379591248
 30
0.0
 10
-7111.82085437025
 20
6385.658301298107
 30
0.0
 10
-7111.860625339555
 20
6385.66003465276
 30
0.0
 10
-7111.916614347905
 20
6385.669820005843
 30
0.0
 10
-7111.964066370689
 20
6385.689009558695
 30
0.0
 10
-7112.003302907889
 20
6385.715800150888
 30
0.0
 10
-7112.034187281144
 20
6385.750834688454
 30
0.0
 10
-7112.0548966148
 20
6385.793977929011
 30
0.0
 10
-7112.068079073691
 20
6385.844183592765
 30
0.0
 10
-7112.069317223065
 20
6385.880047482855
 30
0.0
 10
-7112.069976530343
 20
6385.899144793951
 30
0.0
  0
SPLINE
  5
C5
330
1F
100
AcDbEntity
  8
0
  6
Continuous
 62
     7
370
    25
100
AcDbSpline
210
0.0
220
0.0
230
1.0
 70
     8
 71
     3
 72
    15
 73
    11
 74
     0
 42
0.000000001
 43
0.00000001
 40
0.0
 40
0.0
 40
0.0
 40
0.0
 40
0.1446346493005531
 40
0.270969553670189
 40
0.3881332050054475
 40
0.4966009700543672
 40
0.6071858555760398
 40
0.7243495069113445
 40
0.8527014153097212
 40
1.0
 40
1.0
 40
1.0
 40
1.0
 10
-7112.069976530343
 20
6390.415614388546
 30
0.0
 10
-7112.069231896628
 20
6390.434696146644
 30
0.0
 10
-7112.067836843185
 20
6390.470445363725
 30
0.0
 10
-7112.055838424362
 20
6390.520469895037
 30
0.0
 10
-7112.037362420646
 20
6390.563345709124
 30
0.0
 10
-7112.009937552349
 20
6390.598850766839
 30
0.0
 10
-7111.973956545994
 20
6390.62543569408
 30
0.0
 10
-7111.930829290647
 20
6390.644840803943
 30
0.0
 10
-7111.879671682786
 20
6390.654781343762
 30
0.0
 10
-7111.843380938442
 20
6390.656474711211
 30
0.0
 10
-7111.823988354668
 20
6390.657379591248
 30
0.0
  0
SPLINE
  5
C7
330
1F
100
AcDbEntity
  8
0
  6
Continuous
 62
     7
370
    25
100
AcDbSpline
210
0.0
220
0.0
230
1.0
 70
     8
 71
     3
 72
    23
 73
    19
 74
     0
 42
0.000000001
 43
0.00000001
 40
0.0
 40
0.0
 40
0.0
 40
0.0
 40
0.0697099815833868
 40
0.1364473703020095
 40
0.2017947491632095
 40
0.2654843218801404
 40
0.3288955934619222
 40
0.3921073283569504
 40
0.4562055181823808
 40
0.5211806621106018
 40
0.5856274065120364
 40
0.6479914155361655
 40
0.7075565987987515
 40
0.7664878045377221
 40
0.8243692610195202
 40
0.8819472739614664
 40
0.9407267977402172
 40
1.0
 40
1.0
 40
1.0
 40
1.0
 10
-7110.576099841154
 20
6390.657379591248
 30
0.0
 10
-7110.533806459701
 20
6390.656464135684
 30
0.0
 10
-7110.451023183197
 20
6390.654672261671
 30
0.0
 10
-7110.329675310551
 20
6390.637673649239
 30
0.0
 10
-7110.213204657746
 20
6390.61368191985
 30
0.0
 10
-7110.10281707559
 20
6390.575257921466
 30
0.0
 10
-7109.996453765745
 20
6390.529946573006
 30
0.0
 10
-7109.897131015044
 20
6390.470268542022
 30
0.0
 10
-7109.801405046182
 20
6390.403431696404
 30
0.0
 10
-7109.713904900712
 20
6390.324937912826
 30
0.0
 10
-7109.632758792303
 20
6390.241510038209
 30
0.0
 10
-7109.56211610324
 20
6390.153044981935
 30
0.0
 10
-7109.502245170129
 20
6390.060996879432
 30
0.0
 10
-7109.452278251381
 20
6389.966250752437
 30
0.0
 10
-7109.413807495817
 20
6389.867440579953
 30
0.0
 10
-7109.38796496139
 20
6389.764868821374
 30
0.0
 10
-7109.36993739071
 20
6389.659631064159
 30
0.0
 10
-7109.368164153799
 20
6389.587987832121
 30
0.0
 10
-7109.36727382764
 20
6389.552016415572
 30
0.0
  0
SPLINE
  5
C9
330
1F
100
AcDbEntity
  8
0
  6
Continuous
 62
     7
370
    25
100
AcDbSpline
210
0.0
220
0.0
230
1.0
 70
     8
 71
     3
 72
    23
 73
    19
 74
     0
 42
0.000000001
 43
0.00000001
 40
0.0
 40
0.0
 40
0.0
 40
0.0
 40
0.0599416988924463
 40
0.1187138469711121
 40
0.1769412378156839
 40
0.2352661744249074
 40
0.2943277774127419
 40
0.3542464815027778
 40
0.41658859387376
 40
0.4809536654488886
 40
0.5457853982364438
 40
0.6093099757947995
 40
0.6719250421333971
 40
0.7349787482748761
 40
0.798830600001733
 40
0.8637685273449385
 40
0.9306766963489874
 40
1.0
 40
1.0
 40
1.0
 40
1.0
 10
-7109.36727382764
 20
6388.854170131789
 30
0.0
 10
-7109.368264228659
 20
6388.81821512122
 30
0.0
 10
-7109.370225706513
 20
6388.747006635285
 30
0.0
 10
-7109.386639402633
 20
6388.641919195363
 30
0.0
 10
-7109.412991344397
 20
6388.539989736389
 30
0.0
 10
-7109.450287245707
 20
6388.44132068956
 30
0.0
 10
-7109.497746868721
 20
6388.345957758436
 30
0.0
 10
-7109.556945907686
 20
6388.254585646097
 30
0.0
 10
-7109.625203509757
 20
6388.165705331726
 30
0.0
 10
-7109.704420540104
 20
6388.08240480279
 30
0.0
 10
-7109.789440307807
 20
6388.003817655879
 30
0.0
 10
-7109.883401945547
 20
6387.938004113026
 30
0.0
 10
-7109.980856611774
 20
6387.879604704821
 30
0.0
 10
-7110.085075360161
 20
6387.833803489
 30
0.0
 10
-7110.193895224362
 20
6387.795900817173
 30
0.0
 10
-7110.308867885012
 20
6387.77152600139
 30
0.0
 10
-7110.428506009057
 20
6387.754757363525
 30
0.0
 10
-7110.510230889877
 20
6387.752912811912
 30
0.0
 10
-7110.55181774656
 20
6387.751974185843
 30
0.0
  0
SPLINE
  5
CB
330
1F
100
AcDbEntity
  8
0
  6
Continuous
 62
     7
370
    25
100
AcDbSpline
210
0.0
220
0.0
230
1.0
 70
     8
 71
     3
 72
    15
 73
    11
 74
     0
 42
0.000000001
 43
0.00000001
 40
0.0
 40
0.0
 40
0.0
 40
0.0
 40
0.1276094144621085
 40
0.2499167177708354
 40
0.3720143427042997
 40
0.5005763638076249
 40
0.6284293671556627
 40
0.7514974778096204
 40
0.8734901284089317
 40
1.0
 40
1.0
 40
1.0
 40
1.0
 10
-7106.015922476288
 20
6389.508730942599
 30
0.0
 10
-7106.01810008896
 20
6389.549455992541
 30
0.0
 10
-7106.022364835522
 20
6389.629213985754
 30
0.0
 10
-7106.057718756948
 20
6389.743572168964
 30
0.0
 10
-7106.114982959775
 20
6389.848556109567
 30
0.0
 10
-7106.1939951083
 20
6389.940595589846
 30
0.0
 10
-7106.286817920027
 20
6390.019038711396
 30
0.0
 10
-7106.39192904701
 20
6390.076178313674
 30
0.0
 10
-7106.506559724695
 20
6390.109994101744
 30
0.0
 10
-7106.585801144793
 20
6390.114529917386
 30
0.0
 10
-7106.626142070883
 20
6390.116839050708
 30
0.0
  0
SPLINE
  5
CE
330
1F
100
AcDbEntity
  8
0
  6
Continuous
 62
     7
370
    25
100
AcDbSpline
210
0.0
220
0.0
230
1.0
 70
     8
 71
     3
 72
    15
 73
    11
 74
     0
 42
0.000000001
 43
0.00000001
 40
0.0
 40
0.0
 40
0.0
 40
0.0
 40
0.143503718383066
 40
0.2760390562758157
 40
0.4060618464747719
 40
0.5360582087399406
 40
0.6624523876220477
 40
0.7790740198611028
 40
0.8891793093881372
 40
1.0
 40
1.0
 40
1.0
 40
1.0
 10
-7107.502408962775
 20
6386.806028239896
 30
0.0
 10
-7107.500620496045
 20
6386.762857865469
 30
0.0
 10
-7107.497180259971
 20
6386.679816746046
 30
0.0
 10
-7107.463859461804
 20
6386.56152768318
 30
0.0
 10
-7107.411262630319
 20
6386.455128698937
 30
0.0
 10
-7107.336506263335
 20
6386.365320119359
 30
0.0
 10
-7107.251216714534
 20
6386.291960257282
 30
0.0
 10
-7107.159393034795
 20
6386.238083135623
 30
0.0
 10
-7107.062765520173
 20
6386.203806212883
 30
0.0
 10
-7106.996276385272
 20
6386.199886389869
 30
0.0
 10
-7106.962924165478
 20
6386.197920131789
 30
0.0
  0
SPLINE
  5
D0
330
1F
100
AcDbEntity
  8
0
  6
Continuous
 62
     7
370
    25
100
AcDbSpline
210
0.0
220
0.0
230
1.0
 70
     8
 71
     3
 72
    15
 73
    11
 74
     0
 42
0.000000001
 43
0.00000001
 40
0.0
 40
0.0
 40
0.0
 40
0.0
 40
0.1274982018433568
 40
0.249384534878314
 40
0.3723453906958134
 40
0.4993842070424825
 40
0.6271257854821485
 40
0.7506154651217453
 40
0.8725017981566895
 40
1.0
 40
1.0
 40
1.0
 40
1.0
 10
-7106.626142070883
 20
6386.197920131789
 30
0.0
 10
-7106.585451387975
 20
6386.200206516781
 30
0.0
 10
-7106.50586103388
 20
6386.204678650894
 30
0.0
 10
-7106.390807165372
 20
6386.238511968834
 30
0.0
 10
-7106.286214301757
 20
6386.295882194834
 30
0.0
 10
-7106.192458783479
 20
6386.372660301077
 30
0.0
 10
-7106.11508734496
 20
6386.46607267977
 30
0.0
 10
-7106.056326052798
 20
6386.570411047623
 30
0.0
 10
-7106.022742919207
 20
6386.685778354848
 30
0.0
 10
-7106.018229809905
 20
6386.765348095592
 30
0.0
 10
-7106.015922476288
 20
6386.806028239896
 30
0.0
  0
SPLINE
  5
D2
330
1F
100
AcDbEntity
  8
0
  6
Continuous
 62
     7
370
    25
100
AcDbSpline
210
0.0
220
0.0
230
1.0
 70
     8
 71
     3
 72
    23
 73
    19
 74
     0
 42
0.000000001
 43
0.00000001
 40
0.0
 40
0.0
 40
0.0
 40
0.0
 40
0.0596984677699059
 40
0.1182376316334375
 40
0.1758156760585508
 40
0.2340880145940115
 40
0.2926014098287419
 40
0.3524988403494551
 40
0.4143425792735546
 40
0.4790413569464486
 40
0.5438488242948537
 40
0.60778160063152
 40
0.6708302096469102
 40
0.7340778404193545
 40
0.7981519974078978
 40
0.8633307390899752
 40
0.9304699138440304
 40
1.0
 40
1.0
 40
1.0
 40
1.0
 10
-7105.407814368182
 20
6386.766965739896
 30
0.0
 10
-7105.408840210398
 20
6386.730668429
 30
0.0
 10
-7105.410871973668
 20
6386.658778676455
 30
0.0
 10
-7105.426732532454
 20
6386.55275800168
 30
0.0
 10
-7105.454932696706
 20
6386.450383091951
 30
0.0
 10
-7105.492622592525
 20
6386.351117609039
 30
0.0
 10
-7105.541841805893
 20
6386.255416076487
 30
0.0
 10
-7105.601364859599
 20
6386.163241095382
 30
0.0
 10
-7105.671464612141
 20
6386.073949544254
 30
0.0
 10
-7105.752014572739
 20
6385.989857770465
 30
0.0
 10
-7105.839869041962
 20
6385.911364801128
 30
0.0
 10
-7105.935548492501
 20
6385.844473525115
 30
0.0
 10
-7106.034894785475
 20
6385.784844136996
 30
0.0
 10
-7106.141517022428
 20
6385.739260049585
 30
0.0
 10
-7106.252406930916
 20
6385.701286269194
 30
0.0
 10
-7106.369485336072
 20
6385.676939608432
 30
0.0
 10
-7106.491225076745
 20
6385.660163715539
 30
0.0
 10
-7106.574350543814
 20
6385.658318393454
 30
0.0
 10
-7106.616640381694
 20
6385.657379591248
 30
0.0
  0
SPLINE
  5
D4
330
1F
100
AcDbEntity
  8
0
  6
Continuous
 62
     7
370
    25
100
AcDbSpline
210
0.0
220
0.0
230
1.0
 70
     8
 71
     3
 72
    23
 73
    19
 74
     0
 42
0.000000001
 43
0.00000001
 40
0.0
 40
0.0
 40
0.0
 40
0.0
 40
0.06519682737524
 40
0.1284903554511314
 40
0.1911004981255671
 40
0.252516038029511
 40
0.3137365289174455
 40
0.3756297926528554
 40
0.4384931710491399
 40
0.5032476829196495
 40
0.56792496157423
 40
0.6305493581231
 40
0.6920491304039688
 40
0.7524447192727017
 40
0.8129377656964527
 40
0.873804420208843
 40
0.9359969093510063
 40
1.0
 40
1.0
 40
1.0
 40
1.0
 10
-7106.973481597911
 20
6385.657379591248
 30
0.0
 10
-7107.011888074371
 20
6385.658447311102
 30
0.0
 10
-7107.087579822122
 20
6385.660551580725
 30
0.0
 10
-7107.199325799356
 20
6385.675671065801
 30
0.0
 10
-7107.307007661433
 20
6385.700579409982
 30
0.0
 10
-7107.409993385471
 20
6385.737158514703
 30
0.0
 10
-7107.508991187867
 20
6385.782444314899
 30
0.0
 10
-7107.603007521647
 20
6385.83901799074
 30
0.0
 10
-7107.69345157512
 20
6385.904691816448
 30
0.0
 10
-7107.77800821052
 20
6385.980290044647
 30
0.0
 10
-7107.855701716457
 20
6386.062744401103
 30
0.0
 10
-7107.923431577036
 20
6386.151102536392
 30
0.0
 10
-7107.982382413848
 20
6386.242679667061
 30
0.0
 10
-7108.028458019665
 20
6386.339930388481
 30
0.0
 10
-7108.066422153121
 20
6386.44025923351
 30
0.0
 10
-7108.090884156306
 20
6386.545768475234
 30
0.0
 10
-7108.107703642822
 20
6386.654869242097
 30
0.0
 10
-7108.109570334029
 20
6386.729244538726
 30
0.0
 10
-7108.110517070883
 20
6386.766965739896
 30
0.0
  0
SPLINE
  5
D6
330
1F
100
AcDbEntity
  8
0
  6
Continuous
 62
     7
370
    25
100
AcDbSpline
210
0.0
220
0.0
230
1.0
 70
     8
 71
     3
 72
    23
 73
    19
 74
     0
 42
0.000000001
 43
0.00000001
 40
0.0
 40
0.0
 40
0.0
 40
0.0
 40
0.0640219079057564
 40
0.1262326819779667
 40
0.1865365373545944
 40
0.2470473690630147
 40
0.3074607145633659
 40
0.3689785681117815
 40
0.4316213765738699
 40
0.4963176707001353
 40
0.5610912207493336
 40
0.6243271406750797
 40
0.686752875101063
 40
0.7479913651462958
 40
0.8094249615529859
 40
0.8714718676855101
 40
0.9347840044029083
 40
1.0
 40
1.0
 40
1.0
 40
1.0
 10
-7108.110517070883
 20
6389.547793442599
 30
0.0
 10
-7108.109561501487
 20
6389.585512501826
 30
0.0
 10
-7108.107677395067
 20
6389.659883575161
 30
0.0
 10
-7108.091036595652
 20
6389.768676436404
 30
0.0
 10
-7108.066225209454
 20
6389.873746680008
 30
0.0
 10
-7108.028478538244
 20
6389.973778224487
 30
0.0
 10
-7107.982375841833
 20
6390.071021001485
 30
0.0
 10
-7107.923437111096
 20
6390.162606883141
 30
0.0
 10
-7107.85568580539
 20
6390.25093724886
 30
0.0
 10
-7107.778068222501
 20
6390.333497311761
 30
0.0
 10
-7107.693074564807
 20
6390.408840765499
 30
0.0
 10
-7107.60321758813
 20
6390.476221024461
 30
0.0
 10
-7107.50806007371
 20
6390.531944853215
 30
0.0
 10
-7107.408982127999
 20
6390.57768377927
 30
0.0
 10
-7107.306247391218
 20
6390.613974240518
 30
0.0
 10
-7107.199011645746
 20
6390.63923681205
 30
0.0
 10
-7107.08757307308
 20
6390.654180804134
 30
0.0
 10
-7107.011885802583
 20
6390.656302851072
 30
0.0
 10
-7106.973481597911
 20
6390.657379591248
 30
0.0
  0
SPLINE
  5
D8
330
1F
100
AcDbEntity
  8
0
  6
Continuous
 62
     7
370
    25
100
AcDbSpline
210
0.0
220
0.0
230
1.0
 70
     8
 71
     3
 72
    23
 73
    19
 74
     0
 42
0.000000001
 43
0.00000001
 40
0.0
 40
0.0
 40
0.0
 40
0.0
 40
0.0695660886455717
 40
0.1367400278818089
 40
0.2020784391817906
 40
0.2654541770857414
 40
0.3289700421547118
 40
0.3917607770916719
 40
0.4560640589846682
 40
0.5209050834634957
 40
0.5856373619875769
 40
0.6478726413769029
 40
0.7078010866243164
 40
0.7663447799360384
 40
0.8241067595132526
 40
0.8822738882014277
 40
0.9402706205257897
 40
1.0
 40
1.0
 40
1.0
 40
1.0
 10
-7106.616640381694
 20
6390.657379591248
 30
0.0
 10
-7106.574361207277
 20
6390.656398959038
 30
0.0
 10
-7106.49125670045
 20
6390.654471415341
 30
0.0
 10
-7106.369289370465
 20
6390.638280075096
 30
0.0
 10
-7106.25312468937
 20
6390.611837305353
 30
0.0
 10
-7106.141726784166
 20
6390.576028471848
 30
0.0
 10
-7106.036621363938
 20
6390.5282374507
 30
0.0
 10
-7105.935882252604
 20
6390.470740064089
 30
0.0
 10
-7105.841346541749
 20
6390.402083368343
 30
0.0
 10
-7105.752934274157
 20
6390.324002025118
 30
0.0
 10
-7105.672638254287
 20
6390.239368862259
 30
0.0
 10
-7105.601267921034
 20
6390.150825087108
 30
0.0
 10
-7105.541859652447
 20
6390.058254823174
 30
0.0
 10
-7105.492904451623
 20
6389.962838216927
 30
0.0
 10
-7105.454491823405
 20
6389.863815219769
 30
0.0
 10
-7105.427062615732
 20
6389.761570406259
 30
0.0
 10
-7105.410757919673
 20
6389.655652827818
 30
0.0
 10
-7105.408805132135
 20
6389.584097611625
 30
0.0
 10
-7105.407814368182
 20
6389.547793442599
 30
0.0
  0
SPLINE
  5
DA
330
1F
100
AcDbEntity
  8
0
  6
Continuous
 62
     7
370
    25
100
AcDbSpline
210
0.0
220
0.0
230
1.0
 70
     8
 71
     3
 72
    15
 73
    11
 74
     0
 42
0.000000001
 43
0.00000001
 40
0.0
 40
0.0
 40
0.0
 40
0.0
 40
0.109714650399
 40
0.2209919735938514
 40
0.3382709755251097
 40
0.4647338986157481
 40
0.5948009642718078
 40
0.7238485466785254
 40
0.8575872448702756
 40
1.0
 40
1.0
 40
1.0
 40
1.0
 10
-7106.962924165478
 20
6390.116839050708
 30
0.0
 10
-7106.995893226511
 20
6390.114774810334
 30
0.0
 10
-7107.062300929025
 20
6390.110616928478
 30
0.0
 10
-7107.159460344433
 20
6390.077146356014
 30
0.0
 10
-7107.250871341738
 20
6390.021502364079
 30
0.0
 10
-7107.336603953311
 20
6389.948502929851
 30
0.0
 10
-7107.410889227208
 20
6389.858718199218
 30
0.0
 10
-7107.464351645827
 20
6389.752736004185
 30
0.0
 10
-7107.496897760658
 20
6389.634510544692
 30
0.0
 10
-7107.500533825193
 20
6389.551526335305
 30
0.0
 10
-7107.502408962775
 20
6389.508730942599
 30
0.0
  0
SPLINE
  5
DF
330
1F
100
AcDbEntity
  8
0
  6
Continuous
 62
     7
370
    25
100
AcDbSpline
210
0.0
220
0.0
230
1.0
 70
     8
 71
     3
 72
    15
 73
    11
 74
     0
 42
0.000000001
 43
0.00000001
 40
0.0
 40
0.0
 40
0.0
 40
0.0
 40
0.1264029572854885
 40
0.2376210961698677
 40
0.3451274771354849
 40
0.4525814031670676
 40
0.5653850372925198
 40
0.6938013651785583
 40
0.8358900427402288
 40
1.0
 40
1.0
 40
1.0
 40
1.0
 10
-7101.102071124938
 20
6385.624651550707
 30
0.0
 10
-7101.103124101872
 20
6385.605915587358
 30
0.0
 10
-7101.105103561361
 20
6385.570694416552
 30
0.0
 10
-7101.118858910631
 20
6385.520839352748
 30
0.0
 10
-7101.143784625441
 20
6385.47882906052
 30
0.0
 10
-7101.178389940379
 20
6385.443883667655
 30
0.0
 10
-7101.223951121867
 20
6385.418527592629
 30
0.0
 10
-7101.277779038766
 20
6385.39959140032
 30
0.0
 10
-7101.341732891654
 20
6385.389690415462
 30
0.0
 10
-7101.387092824545
 20
6385.388009970706
 30
0.0
 10
-7101.411403895208
 20
6385.387109320978
 30
0.0
  0
SPLINE
  5
E0
330
1F
100
AcDbEntity
  8
0
  6
Continuous
 62
     7
370
    25
100
AcDbSpline
210
0.0
220
0.0
230
1.0
 70
     8
 71
     3
 72
    15
 73
    11
 74
     0
 42
0.000000001
 43
0.00000001
 40
0.0
 40
0.0
 40
0.0
 40
0.0
 40
0.1558000825475275
 40
0.2933664335182685
 40
0.4160028096423755
 40
0.5283380454779882
 40
0.6363337597611627
 40
0.7492426260628713
 40
0.8674075817597241
 40
1.0
 40
1.0
 40
1.0
 40
1.0
 10
-7101.411403895208
 20
6385.387109320978
 30
0.0
 10
-7101.430101338313
 20
6385.387633846777
 30
0.0
 10
-7101.465308009001
 20
6385.388621511615
 30
0.0
 10
-7101.514538661845
 20
6385.398034493377
 30
0.0
 10
-7101.556663628187
 20
6385.413665428677
 30
0.0
 10
-7101.591522720483
 20
6385.436182861589
 30
0.0
 10
-7101.619088679804
 20
6385.465725722348
 30
0.0
 10
-7101.638091725275
 20
6385.502206978531
 30
0.0
 10
-7101.648454269726
 20
6385.544919682282
 30
0.0
 10
-7101.650157171725
 20
6385.574975316268
 30
0.0
 10
-7101.651057611424
 20
6385.590867766924
 30
0.0
  0
SPLINE
  5
E3
330
1F
100
AcDbEntity
  8
0
  6
Continuous
 62
     7
370
    25
100
AcDbSpline
210
0.0
220
0.0
230
1.0
 70
     8
 71
     3
 72
    15
 73
    11
 74
     0
 42
0.000000001
 43
0.00000001
 40
0.0
 40
0.0
 40
0.0
 40
0.0
 40
0.1469070492109758
 40
0.2772755343189254
 40
0.3938111936935868
 40
0.5023339070865694
 40
0.6141965596110666
 40
0.7307322189857279
 40
0.8557984665798782
 40
1.0
 40
1.0
 40
1.0
 40
1.0
 10
-7103.856505246559
 20
6385.387109320978
 30
0.0
 10
-7103.875536733661
 20
6385.388053152323
 30
0.0
 10
-7103.911457173033
 20
6385.389834559965
 30
0.0
 10
-7103.962047897482
 20
6385.399404969267
 30
0.0
 10
-7104.004146892049
 20
6385.419136537608
 30
0.0
 10
-7104.039661435831
 20
6385.445164766938
 30
0.0
 10
-7104.067507535996
 20
6385.479541758044
 30
0.0
 10
-7104.086534422513
 20
6385.521734272479
 30
0.0
 10
-7104.096804737392
 20
6385.571031589539
 30
0.0
 10
-7104.09844680997
 20
6385.605951056252
 30
0.0
 10
-7104.099326192506
 20
6385.624651550707
 30
0.0
  0
SPLINE
  5
E5
330
1F
100
AcDbEntity
  8
0
  6
Continuous
 62
     7
370
    25
100
AcDbSpline
210
0.0
220
0.0
230
1.0
 70
     8
 71
     3
 72
    15
 73
    11
 74
     0
 42
0.000000001
 43
0.00000001
 40
0.0
 40
0.0
 40
0.0
 40
0.0
 40
0.144201533420225
 40
0.2692677810142547
 40
0.3858034403890112
 40
0.4976660929135
 40
0.6061888063064746
 40
0.7227244656810797
 40
0.8530929507890435
 40
1.0
 40
1.0
 40
1.0
 40
1.0
 10
-7104.099326192506
 20
6385.960377902059
 30
0.0
 10
-7104.09844680997
 20
6385.979078396515
 30
0.0
 10
-7104.096804737392
 20
6386.013997863227
 30
0.0
 10
-7104.086534422513
 20
6386.063295180288
 30
0.0
 10
-7104.067507535996
 20
6386.105487694721
 30
0.0
 10
-7104.039661435831
 20
6386.139864685828
 30
0.0
 10
-7104.004146892049
 20
6386.165892915159
 30
0.0
 10
-7103.962047897482
 20
6386.185624483499
 30
0.0
 10
-7103.911457173035
 20
6386.195194892802
 30
0.0
 10
-7103.875536733661
 20
6386.196976300444
 30
0.0
 10
-7103.856505246559
 20
6386.197920131789
 30
0.0
  0
SPLINE
  5
E8
330
1F
100
AcDbEntity
  8
0
  6
Continuous
 62
     7
370
    25
100
AcDbSpline
210
0.0
220
0.0
230
1.0
 70
     8
 71
     3
 72
    15
 73
    11
 74
     0
 42
0.000000001
 43
0.00000001
 40
0.0
 40
0.0
 40
0.0
 40
0.0
 40
0.1442345664142893
 40
0.2721935918862672
 40
0.3895004132241661
 40
0.5007363879519335
 40
0.6129889005467166
 40
0.7315684031395132
 40
0.8573207973781217
 40
1.0
 40
1.0
 40
1.0
 40
1.0
 10
-7103.399368422235
 20
6390.501129591248
 30
0.0
 10
-7103.396984633725
 20
6390.518786592292
 30
0.0
 10
-7103.392486045259
 20
6390.552108164615
 30
0.0
 10
-7103.379451257
 20
6390.598853388003
 30
0.0
 10
-7103.357390632987
 20
6390.637269630675
 30
0.0
 10
-7103.331026759311
 20
6390.670578417106
 30
0.0
 10
-7103.295815608357
 20
6390.694828643847
 30
0.0
 10
-7103.255443614081
 20
6390.712888202036
 30
0.0
 10
-7103.208476968871
 20
6390.723730084879
 30
0.0
 10
-7103.17525935019
 20
6390.724524763834
 30
0.0
 10
-7103.157603219533
 20
6390.724947158816
 30
0.0
  0
SPLINE
  5
EA
330
1F
100
AcDbEntity
  8
0
  6
Continuous
 62
     7
370
    25
100
AcDbSpline
210
0.0
220
0.0
230
1.0
 70
     8
 71
     3
 72
    15
 73
    11
 74
     0
 42
0.000000001
 43
0.00000001
 40
0.0
 40
0.0
 40
0.0
 40
0.0
 40
0.1614740538086853
 40
0.3033294688028851
 40
0.4293020720699265
 40
0.5431364423938395
 40
0.6487510557946051
 40
0.7581294614989136
 40
0.8714443198697036
 40
1.0
 40
1.0
 40
1.0
 40
1.0
 10
-7101.754520449262
 20
6390.724947158816
 30
0.0
 10
-7101.730563740574
 20
6390.724021886453
 30
0.0
 10
-7101.685560995247
 20
6390.722283759686
 30
0.0
 10
-7101.622266100006
 20
6390.712596301147
 30
0.0
 10
-7101.568619591757
 20
6390.693462945176
 30
0.0
 10
-7101.523932167202
 20
6390.667319294436
 30
0.0
 10
-7101.489742666887
 20
6390.631698581751
 30
0.0
 10
-7101.465139349948
 20
6390.589045095425
 30
0.0
 10
-7101.451395962293
 20
6390.538179015322
 30
0.0
 10
-7101.449410300296
 20
6390.502268575786
 30
0.0
 10
-7101.448354908723
 20
6390.483181956113
 30
0.0
  0
SPLINE
  5
ED
330
1F
100
AcDbEntity
  8
0
  6
Continuous
 62
     7
370
    25
100
AcDbSpline
210
0.0
220
0.0
230
1.0
 70
     8
 71
     3
 72
    15
 73
    11
 74
     0
 42
0.000000001
 43
0.00000001
 40
0.0
 40
0.0
 40
0.0
 40
0.0
 40
0.1641099572597544
 40
0.3061986348214322
 40
0.4346149627074288
 40
0.5474185968328733
 40
0.6548725228644487
 40
0.7623789038301448
 40
0.8735970427144205
 40
0.9999999999999999
 40
0.9999999999999999
 40
0.9999999999999999
 40
0.9999999999999999
 10
-7101.411403895208
 20
6386.197920131789
 30
0.0
 10
-7101.387092824545
 20
6386.197019482061
 30
0.0
 10
-7101.341732891654
 20
6386.195339037305
 30
0.0
 10
-7101.277779038766
 20
6386.185438052446
 30
0.0
 10
-7101.223951121867
 20
6386.166501860138
 30
0.0
 10
-7101.178389940379
 20
6386.141145785111
 30
0.0
 10
-7101.143784625441
 20
6386.106200392248
 30
0.0
 10
-7101.118858910631
 20
6386.064190100019
 30
0.0
 10
-7101.105103561361
 20
6386.014335036215
 30
0.0
 10
-7101.103124101872
 20
6385.979113865408
 30
0.0
 10
-7101.102071124938
 20
6385.960377902059
 30
0.0
  0
SPLINE
  5
F0
330
1F
100
AcDbEntity
  8
0
  6
Continuous
 62
     7
370
    25
100
AcDbSpline
210
0.0
220
0.0
230
1.0
 70
     8
 71
     3
 72
    15
 73
    11
 74
     0
 42
0.000000001
 43
0.00000001
 40
0.0
 40
0.0
 40
0.0
 40
0.0
 40
0.1137041187719569
 40
0.2169428404673948
 40
0.3200287290343238
 40
0.4251741161265222
 40
0.5430984856672357
 40
0.6741923964392339
 40
0.826556329514282
 40
1.0
 40
1.0
 40
1.0
 40
1.0
 10
-7103.546116733046
 20
6385.590867766924
 30
0.0
 10
-7103.547194906309
 20
6385.574929050164
 30
0.0
 10
-7103.549252017105
 20
6385.544518625945
 30
0.0
 10
-7103.563264143387
 20
6385.5013103192
 30
0.0
 10
-7103.588051764898
 20
6385.464657889513
 30
0.0
 10
-7103.623686347077
 20
6385.435159742453
 30
0.0
 10
-7103.668782589087
 20
6385.413629560712
 30
0.0
 10
-7103.722920924838
 20
6385.397740626989
 30
0.0
 10
-7103.786524699092
 20
6385.388664286969
 30
0.0
 10
-7103.83219347482
 20
6385.38764952793
 30
0.0
 10
-7103.856505246559
 20
6385.387109320978
 30
0.0
  0
CIRCLE
  5
F1
330
1F
100
AcDbEntity
  8
0
  6
Continuous
 62
     7
370
    25
100
AcDbCircle
 10
-7131.2226556336
 20
6391.8111744318
 30
0.0
 40
1.5
  0
CIRCLE
  5
F2
330
1F
100
AcDbEntity
  8
0
  6
Continuous
 62
     7
370
    25
100
AcDbCircle
 10
-7131.2226556336
 20
6391.8111744318
 30
0.0
 40
0.75
  0
SPLINE
  5
16A
330
1F
100
AcDbEntity
  8
0
  6
Continuous
 62
     7
370
    25
100
AcDbSpline
210
0.0
220
0.0
230
1.0
 70
     8
 71
     3
 72
     8
 73
     4
 74
     0
 42
0.000000001
 43
0.00000001
 40
0.4297520661157025
 40
0.4297520661157025
 40
0.4297520661157025
 40
0.4297520661157025
 40
0.4380165289256198
 40
0.4380165289256198
 40
0.4380165289256198
 40
0.4380165289256198
 10
-7062.648522770339
 20
6352.992668611711
 30
0.0
 10
-7064.076595437005
 20
6352.301365278378
 30
0.0
 10
-7064.876695437007
 20
6351.922905278378
 30
0.0
 10
-7065.04882277034
 20
6351.857288611711
 30
0.0
  0
LINE
  5
16B
330
1F
100
AcDbEntity
  8
0
  6
Continuous
 62
     7
370
    25
100
AcDbLine
 10
-7125.6105170709
 20
6390.4156143885
 30
0.0
 11
-7125.6105170709
 21
6386.7669657399
 31
0.0
  0
LINE
  5
16C
330
1F
100
AcDbEntity
  8
0
  6
Continuous
 62
     7
370
    25
100
AcDbLine
 10
-7126.7950609898
 20
6385.6573795912
 30
0.0
 11
-7127.6660491655
 21
6385.6573795912
 31
0.0
  0
LINE
  5
16D
330
1F
100
AcDbEntity
  8
0
  6
Continuous
 62
     7
370
    25
100
AcDbLine
 10
-7127.6713278817
 20
6386.1979201318
 30
0.0
 11
-7126.8288447736
 21
6386.1979201318
 31
0.0
  0
LINE
  5
16E
330
1F
100
AcDbEntity
  8
0
  6
Continuous
 62
     7
370
    25
100
AcDbLine
 10
-7126.218625179
 20
6386.8049724967
 30
0.0
 11
-7126.218625179
 21
6387.7519741858
 31
0.0
  0
LINE
  5
16F
330
1F
100
AcDbEntity
  8
0
  6
Continuous
 62
     7
370
    25
100
AcDbLine
 10
-7126.218625179
 20
6387.7519741858
 30
0.0
 11
-7127.2004663952
 21
6387.7519741858
 31
0.0
  0
LINE
  5
170
330
1F
100
AcDbEntity
  8
0
  6
Continuous
 62
     7
370
    25
100
AcDbLine
 10
-7128.3132197736
 20
6388.8562816183
 30
0.0
 11
-7128.3132197736
 21
6390.4166701318
 31
0.0
  0
LINE
  5
171
330
1F
100
AcDbEntity
  8
0
  6
Continuous
 62
     7
370
    25
100
AcDbLine
 10
-7127.7051116655
 20
6390.4208931048
 30
0.0
 11
-7127.7051116655
 21
6388.898511348
 31
0.0
  0
LINE
  5
172
330
1F
100
AcDbEntity
  8
0
  6
Continuous
 62
     7
370
    25
100
AcDbLine
 10
-7127.1656268682
 20
6388.2925147264
 30
0.0
 11
-7126.218625179
 21
6388.2925147264
 31
0.0
  0
LINE
  5
173
330
1F
100
AcDbEntity
  8
0
  6
Continuous
 62
     7
370
    25
100
AcDbLine
 10
-7126.218625179
 20
6388.2925147264
 30
0.0
 11
-7126.218625179
 21
6390.4208931048
 31
0.0
  0
LINE
  5
174
330
1F
100
AcDbEntity
  8
0
  6
Continuous
 62
     7
370
    25
100
AcDbLine
 10
-7122.3943008547
 20
6388.633519794
 30
0.0
 11
-7121.5159224763
 21
6390.5940349967
 31
0.0
  0
LINE
  5
175
330
1F
100
AcDbEntity
  8
0
  6
Continuous
 62
     7
370
    25
100
AcDbLine
 10
-7121.0133886925
 20
6390.4113914156
 30
0.0
 11
-7122.1071386925
 21
6388.3569150642
 31
0.0
  0
LINE
  5
176
330
1F
100
AcDbEntity
  8
0
  6
Continuous
 62
     7
370
    25
100
AcDbLine
 10
-7122.1071386925
 20
6388.3569150642
 30
0.0
 11
-7121.0218346385
 21
6386.0089420912
 31
0.0
  0
LINE
  5
177
330
1F
100
AcDbEntity
  8
0
  6
Continuous
 62
     7
370
    25
100
AcDbLine
 10
-7121.5212011925
 20
6385.8051836453
 30
0.0
 11
-7122.3943008547
 21
6388.0792545912
 31
0.0
  0
LINE
  5
178
330
1F
100
AcDbEntity
  8
0
  6
Continuous
 62
     7
370
    25
100
AcDbLine
 10
-7122.3943008547
 20
6388.0792545912
 30
0.0
 11
-7122.3943008547
 21
6385.9012562804
 31
0.0
  0
LINE
  5
179
330
1F
100
AcDbEntity
  8
0
  6
Continuous
 62
     7
370
    25
100
AcDbLine
 10
-7123.0024089628
 20
6385.9012562804
 30
0.0
 11
-7123.0024089628
 21
6388.0655299291
 31
0.0
  0
LINE
  5
17A
330
1F
100
AcDbEntity
  8
0
  6
Continuous
 62
     7
370
    25
100
AcDbLine
 10
-7123.0024089628
 20
6388.0655299291
 30
0.0
 11
-7123.8765643682
 21
6385.7977934426
 31
0.0
  0
LINE
  5
17B
330
1F
100
AcDbEntity
  8
0
  6
Continuous
 62
     7
370
    25
100
AcDbLine
 10
-7124.374875179
 20
6386.0026076318
 30
0.0
 11
-7123.2821809222
 21
6388.351636348
 31
0.0
  0
LINE
  5
17C
330
1F
100
AcDbEntity
  8
0
  6
Continuous
 62
     7
370
    25
100
AcDbLine
 10
-7123.2821809222
 20
6388.351636348
 30
0.0
 11
-7124.3695964628
 21
6390.3596599967
 31
0.0
  0
LINE
  5
17D
330
1F
100
AcDbEntity
  8
0
  6
Continuous
 62
     7
370
    25
100
AcDbLine
 10
-7123.8839545709
 20
6390.5940349967
 30
0.0
 11
-7123.0024089628
 21
6388.6472444561
 31
0.0
  0
LINE
  5
17E
330
1F
100
AcDbEntity
  8
0
  6
Continuous
 62
     7
370
    25
100
AcDbLine
 10
-7123.0024089628
 20
6388.6472444561
 30
0.0
 11
-7123.0024089628
 21
6390.4779032399
 31
0.0
  0
LINE
  5
17F
330
1F
100
AcDbEntity
  8
0
  6
Continuous
 62
     7
370
    25
100
AcDbLine
 10
-7122.3943008547
 20
6390.4779032399
 30
0.0
 11
-7122.3943008547
 21
6388.633519794
 31
0.0
  0
LINE
  5
180
330
1F
100
AcDbEntity
  8
0
  6
Continuous
 62
     7
370
    25
100
AcDbLine
 10
-7117.605027206
 20
6390.1168390507
 30
0.0
 11
-7119.0429495033
 21
6390.1168390507
 31
0.0
  0
LINE
  5
181
330
1F
100
AcDbEntity
  8
0
  6
Continuous
 62
     7
370
    25
100
AcDbLine
 10
-7119.0429495033
 20
6390.1168390507
 30
0.0
 11
-7119.0429495033
 21
6385.8959775642
 31
0.0
  0
LINE
  5
182
330
1F
100
AcDbEntity
  8
0
  6
Continuous
 62
     7
370
    25
100
AcDbLine
 10
-7119.6510576114
 20
6385.899144794
 30
0.0
 11
-7119.6510576114
 21
6390.4156143885
 31
0.0
  0
LINE
  5
183
330
1F
100
AcDbEntity
  8
0
  6
Continuous
 62
     7
370
    25
100
AcDbLine
 10
-7119.3807873412
 20
6390.6573795912
 30
0.0
 11
-7117.605027206
 21
6390.6573795912
 31
0.0
  0
LINE
  5
184
330
1F
100
AcDbEntity
  8
0
  6
Continuous
 62
     7
370
    25
100
AcDbLine
 10
-7114.5450609898
 20
6390.1168390507
 30
0.0
 11
-7114.8818430844
 21
6390.1168390507
 31
0.0
  0
LINE
  5
185
330
1F
100
AcDbEntity
  8
0
  6
Continuous
 62
     7
370
    25
100
AcDbLine
 10
-7115.4213278817
 20
6389.5087309426
 30
0.0
 11
-7115.4213278817
 21
6386.8060282399
 31
0.0
  0
LINE
  5
186
330
1F
100
AcDbEntity
  8
0
  6
Continuous
 62
     7
370
    25
100
AcDbLine
 10
-7114.8818430844
 20
6386.1979201318
 30
0.0
 11
-7114.5450609898
 21
6386.1979201318
 31
0.0
  0
LINE
  5
187
330
1F
100
AcDbEntity
  8
0
  6
Continuous
 62
     7
370
    25
100
AcDbLine
 10
-7113.9348413952
 20
6386.8060282399
 30
0.0
 11
-7113.9348413952
 21
6389.5087309426
 31
0.0
  0
LINE
  5
188
330
1F
100
AcDbEntity
  8
0
  6
Continuous
 62
     7
370
    25
100
AcDbLine
 10
-7114.5355593006
 20
6385.6573795912
 30
0.0
 11
-7114.8924005168
 21
6385.6573795912
 31
0.0
  0
LINE
  5
189
330
1F
100
AcDbEntity
  8
0
  6
Continuous
 62
     7
370
    25
100
AcDbLine
 10
-7116.0294359898
 20
6386.7669657399
 30
0.0
 11
-7116.0294359898
 21
6389.5477934426
 31
0.0
  0
LINE
  5
18A
330
1F
100
AcDbEntity
  8
0
  6
Continuous
 62
     7
370
    25
100
AcDbLine
 10
-7114.8924005168
 20
6390.6573795912
 30
0.0
 11
-7114.5355593006
 21
6390.6573795912
 31
0.0
  0
LINE
  5
18B
330
1F
100
AcDbEntity
  8
0
  6
Continuous
 62
     7
370
    25
100
AcDbLine
 10
-7113.3267332871
 20
6389.5477934426
 30
0.0
 11
-7113.3267332871
 21
6386.7669657399
 31
0.0
  0
LINE
  5
18C
330
1F
100
AcDbEntity
  8
0
  6
Continuous
 62
     7
370
    25
100
AcDbLine
 10
-7109.9753819357
 20
6388.8742292534
 30
0.0
 11
-7109.9753819357
 21
6389.531957294
 31
0.0
  0
LINE
  5
18D
330
1F
100
AcDbEntity
  8
0
  6
Continuous
 62
     7
370
    25
100
AcDbLine
 10
-7110.5856015303
 20
6390.1168390507
 30
0.0
 11
-7111.4618684222
 21
6390.1168390507
 31
0.0
  0
LINE
  5
18E
330
1F
100
AcDbEntity
  8
0
  6
Continuous
 62
     7
370
    25
100
AcDbLine
 10
-7111.4618684222
 20
6390.1168390507
 30
0.0
 11
-7111.4618684222
 21
6388.2925147264
 31
0.0
  0
LINE
  5
18F
330
1F
100
AcDbEntity
  8
0
  6
Continuous
 62
     7
370
    25
100
AcDbLine
 10
-7111.4618684222
 20
6388.2925147264
 30
0.0
 11
-7110.5856015303
 21
6388.2925147264
 31
0.0
  0
LINE
  5
190
330
1F
100
AcDbEntity
  8
0
  6
Continuous
 62
     7
370
    25
100
AcDbLine
 10
-7111.4618684222
 20
6387.7519741858
 30
0.0
 11
-7111.4618684222
 21
6385.899144794
 31
0.0
  0
LINE
  5
191
330
1F
100
AcDbEntity
  8
0
  6
Continuous
 62
     7
370
    25
100
AcDbLine
 10
-7112.0699765303
 20
6385.899144794
 30
0.0
 11
-7112.0699765303
 21
6390.4156143885
 31
0.0
  0
LINE
  5
192
330
1F
100
AcDbEntity
  8
0
  6
Continuous
 62
     7
370
    25
100
AcDbLine
 10
-7111.8239883547
 20
6390.6573795912
 30
0.0
 11
-7110.5760998412
 21
6390.6573795912
 31
0.0
  0
LINE
  5
193
330
1F
100
AcDbEntity
  8
0
  6
Continuous
 62
     7
370
    25
100
AcDbLine
 10
-7109.3672738276
 20
6389.5520164156
 30
0.0
 11
-7109.3672738276
 21
6388.8541701318
 31
0.0
  0
LINE
  5
194
330
1F
100
AcDbEntity
  8
0
  6
Continuous
 62
     7
370
    25
100
AcDbLine
 10
-7110.5518177466
 20
6387.7519741858
 30
0.0
 11
-7111.4618684222
 21
6387.7519741858
 31
0.0
  0
LINE
  5
195
330
1F
100
AcDbEntity
  8
0
  6
Continuous
 62
     7
370
    25
100
AcDbLine
 10
-7106.6261420709
 20
6390.1168390507
 30
0.0
 11
-7106.9629241655
 21
6390.1168390507
 31
0.0
  0
LINE
  5
196
330
1F
100
AcDbEntity
  8
0
  6
Continuous
 62
     7
370
    25
100
AcDbLine
 10
-7107.5024089628
 20
6389.5087309426
 30
0.0
 11
-7107.5024089628
 21
6386.8060282399
 31
0.0
  0
LINE
  5
197
330
1F
100
AcDbEntity
  8
0
  6
Continuous
 62
     7
370
    25
100
AcDbLine
 10
-7106.9629241655
 20
6386.1979201318
 30
0.0
 11
-7106.6261420709
 21
6386.1979201318
 31
0.0
  0
LINE
  5
198
330
1F
100
AcDbEntity
  8
0
  6
Continuous
 62
     7
370
    25
100
AcDbLine
 10
-7106.0159224763
 20
6386.8060282399
 30
0.0
 11
-7106.0159224763
 21
6389.5087309426
 31
0.0
  0
LINE
  5
199
330
1F
100
AcDbEntity
  8
0
  6
Continuous
 62
     7
370
    25
100
AcDbLine
 10
-7106.6166403817
 20
6385.6573795912
 30
0.0
 11
-7106.9734815979
 21
6385.6573795912
 31
0.0
  0
LINE
  5
19A
330
1F
100
AcDbEntity
  8
0
  6
Continuous
 62
     7
370
    25
100
AcDbLine
 10
-7108.1105170709
 20
6386.7669657399
 30
0.0
 11
-7108.1105170709
 21
6389.5477934426
 31
0.0
  0
LINE
  5
19B
330
1F
100
AcDbEntity
  8
0
  6
Continuous
 62
     7
370
    25
100
AcDbLine
 10
-7106.9734815979
 20
6390.6573795912
 30
0.0
 11
-7106.6166403817
 21
6390.6573795912
 31
0.0
  0
LINE
  5
19C
330
1F
100
AcDbEntity
  8
0
  6
Continuous
 62
     7
370
    25
100
AcDbLine
 10
-7105.4078143682
 20
6389.5477934426
 30
0.0
 11
-7105.4078143682
 21
6386.7669657399
 31
0.0
  0
LINE
  5
19D
330
1F
100
AcDbEntity
  8
0
  6
Continuous
 62
     7
370
    25
100
AcDbLine
 10
-7102.0564630168
 20
6390.1844066183
 30
0.0
 11
-7102.9274511925
 21
6390.1844066183
 31
0.0
  0
LINE
  5
19E
330
1F
100
AcDbEntity
  8
0
  6
Continuous
 62
     7
370
    25
100
AcDbLine
 10
-7102.9274511925
 20
6390.1844066183
 30
0.0
 11
-7103.242062679
 21
6386.1979201318
 31
0.0
  0
LINE
  5
19F
330
1F
100
AcDbEntity
  8
0
  6
Continuous
 62
     7
370
    25
100
AcDbLine
 10
-7103.242062679
 20
6386.1979201318
 30
0.0
 11
-7102.0564630168
 21
6386.1979201318
 31
0.0
  0
LINE
  5
1A0
330
1F
100
AcDbEntity
  8
0
  6
Continuous
 62
     7
370
    25
100
AcDbLine
 10
-7102.0564630168
 20
6386.1979201318
 30
0.0
 11
-7102.0564630168
 21
6390.1844066183
 31
0.0
  0
LINE
  5
1A1
330
1F
100
AcDbEntity
  8
0
  6
Continuous
 62
     7
370
    25
100
AcDbLine
 10
-7101.6510576114
 20
6385.5908677669
 30
0.0
 11
-7101.6510576114
 21
6385.6573795912
 31
0.0
  0
LINE
  5
1A2
330
1F
100
AcDbEntity
  8
0
  6
Continuous
 62
     7
370
    25
100
AcDbLine
 10
-7103.546116733
 20
6385.6573795912
 30
0.0
 11
-7103.546116733
 21
6385.5908677669
 31
0.0
  0
LINE
  5
1A3
330
1F
100
AcDbEntity
  8
0
  6
Continuous
 62
     7
370
    25
100
AcDbLine
 10
-7104.0993261925
 20
6385.6246515507
 30
0.0
 11
-7104.0993261925
 21
6385.9603779021
 31
0.0
  0
LINE
  5
1A4
330
1F
100
AcDbEntity
  8
0
  6
Continuous
 62
     7
370
    25
100
AcDbLine
 10
-7103.8565052466
 20
6386.1979201318
 30
0.0
 11
-7103.7340390303
 21
6386.1979201318
 31
0.0
  0
LINE
  5
1A5
330
1F
100
AcDbEntity
  8
0
  6
Continuous
 62
     7
370
    25
100
AcDbLine
 10
-7103.7340390303
 20
6386.1979201318
 30
0.0
 11
-7103.3993684222
 21
6390.5011295912
 31
0.0
  0
LINE
  5
1A6
330
1F
100
AcDbEntity
  8
0
  6
Continuous
 62
     7
370
    25
100
AcDbLine
 10
-7103.1576032195
 20
6390.7249471588
 30
0.0
 11
-7101.7545204493
 21
6390.7249471588
 31
0.0
  0
LINE
  5
1A7
330
1F
100
AcDbEntity
  8
0
  6
Continuous
 62
     7
370
    25
100
AcDbLine
 10
-7101.4483549087
 20
6390.4831819561
 30
0.0
 11
-7101.4483549087
 21
6386.1979201318
 31
0.0
  0
LINE
  5
1A8
330
1F
100
AcDbEntity
  8
0
  6
Continuous
 62
     7
370
    25
100
AcDbLine
 10
-7101.4483549087
 20
6386.1979201318
 30
0.0
 11
-7101.4114038952
 21
6386.1979201318
 31
0.0
  0
LINE
  5
1A9
330
1F
100
AcDbEntity
  8
0
  6
Continuous
 62
     7
370
    25
100
AcDbLine
 10
-7101.1020711249
 20
6385.9603779021
 30
0.0
 11
-7101.1020711249
 21
6385.6246515507
 31
0.0
  0
LINE
  5
1AA
330
1F
100
AcDbEntity
  8
0
  6
Continuous
 62
     7
370
    25
100
AcDbLine
 10
-7101.6510576114
 20
6385.6573795912
 30
0.0
 11
-7103.546116733
 21
6385.6573795912
 31
0.0
  0
LINE
  5
1AB
330
1F
100
AcDbEntity
  8
0
  6
Continuous
 62
     7
370
    25
100
AcDbLine
 10
-7065.0488227703
 20
6351.8572886117
 30
0.0
 11
-7067.4182617703
 21
6353.1549746117
 31
0.0
  0
LINE
  5
1AC
330
1F
100
AcDbEntity
  8
0
  6
Continuous
 62
     7
370
    25
100
AcDbLine
 10
-7067.4182617703
 20
6353.1549746117
 30
0.0
 11
-7069.1379687703
 21
6350.8505596117
 31
0.0
  0
LINE
  5
1AD
330
1F
100
AcDbEntity
  8
0
  6
Continuous
 62
     7
370
    25
100
AcDbLine
 10
-7069.1379687703
 20
6350.8505596117
 30
0.0
 11
-7070.5973257703
 21
6350.1697126117
 31
0.0
  0
LINE
  5
1AE
330
1F
100
AcDbEntity
  8
0
  6
Continuous
 62
     7
370
    25
100
AcDbLine
 10
-7070.5973257703
 20
6350.1697126117
 30
0.0
 11
-7072.2849017703
 21
6350.5910986117
 31
0.0
  0
LINE
  5
1AF
330
1F
100
AcDbEntity
  8
0
  6
Continuous
 62
     7
370
    25
100
AcDbLine
 10
-7072.2849017703
 20
6350.5910986117
 30
0.0
 11
-7073.8429377703
 21
6352.7332076117
 31
0.0
  0
LINE
  5
1B0
330
1F
100
AcDbEntity
  8
0
  6
Continuous
 62
     7
370
    25
100
AcDbLine
 10
-7073.8429377703
 20
6352.7332076117
 30
0.0
 11
-7075.3679537703
 21
6352.0510906117
 31
0.0
  0
LINE
  5
1B1
330
1F
100
AcDbEntity
  8
0
  6
Continuous
 62
     7
370
    25
100
AcDbLine
 10
-7075.3679537703
 20
6352.0510906117
 30
0.0
 11
-7078.3520727703
 21
6353.3163916117
 31
0.0
  0
LINE
  5
1B2
330
1F
100
AcDbEntity
  8
0
  6
Continuous
 62
     7
370
    25
100
AcDbLine
 10
-7078.3520727703
 20
6353.3163916117
 30
0.0
 11
-7080.2344667703
 21
6354.1613226117
 31
0.0
  0
LINE
  5
1B3
330
1F
100
AcDbEntity
  8
0
  6
Continuous
 62
     7
370
    25
100
AcDbLine
 10
-7080.2344667703
 20
6354.1613226117
 30
0.0
 11
-7083.1218117703
 21
6354.3569026117
 31
0.0
  0
LINE
  5
1B4
330
1F
100
AcDbEntity
  8
0
  6
Continuous
 62
     7
370
    25
100
AcDbLine
 10
-7083.1218117703
 20
6354.3569026117
 30
0.0
 11
-7084.8427887703
 21
6353.3163916117
 31
0.0
  0
LINE
  5
1B5
330
1F
100
AcDbEntity
  8
0
  6
Continuous
 62
     7
370
    25
100
AcDbLine
 10
-7084.8427887703
 20
6353.3163916117
 30
0.0
 11
-7087.8271617703
 21
6355.8798866117
 31
0.0
  0
LINE
  5
1B6
330
1F
100
AcDbEntity
  8
0
  6
Continuous
 62
     7
370
    25
100
AcDbLine
 10
-7087.8271617703
 20
6355.8798866117
 30
0.0
 11
-7090.4881927703
 21
6356.0418116117
 31
0.0
  0
LINE
  5
1B7
330
1F
100
AcDbEntity
  8
0
  6
Continuous
 62
     7
370
    25
100
AcDbLine
 10
-7090.4881927703
 20
6356.0418116117
 30
0.0
 11
-7093.2133587703
 21
6357.7616456117
 31
0.0
  0
LINE
  5
1B8
330
1F
100
AcDbEntity
  8
0
  6
Continuous
 62
     7
370
    25
100
AcDbLine
 10
-7093.2133587703
 20
6357.7616456117
 30
0.0
 11
-7095.6790637703
 21
6357.9235706117
 31
0.0
  0
LINE
  5
1B9
330
1F
100
AcDbEntity
  8
0
  6
Continuous
 62
     7
370
    25
100
AcDbLine
 10
-7095.6790637703
 20
6357.9235706117
 30
0.0
 11
-7097.8211727703
 21
6356.1406176117
 31
0.0
  0
LINE
  5
1BA
330
1F
100
AcDbEntity
  8
0
  6
Continuous
 62
     7
370
    25
100
AcDbLine
 10
-7097.8211727703
 20
6356.1406176117
 30
0.0
 11
-7101.9085407703
 21
6358.9302996117
 31
0.0
  0
LINE
  5
1BB
330
1F
100
AcDbEntity
  8
0
  6
Continuous
 62
     7
370
    25
100
AcDbLine
 10
-7101.9085407703
 20
6358.9302996117
 30
0.0
 11
-7103.0121707703
 21
6361.1362896117
 31
0.0
  0
LINE
  5
1BC
330
1F
100
AcDbEntity
  8
0
  6
Continuous
 62
     7
370
    25
100
AcDbLine
 10
-7103.0121707703
 20
6361.1362896117
 30
0.0
 11
-7103.6932717703
 21
6363.1799736117
 31
0.0
  0
LINE
  5
1BD
330
1F
100
AcDbEntity
  8
0
  6
Continuous
 62
     7
370
    25
100
AcDbLine
 10
-7103.6932717703
 20
6363.1799736117
 30
0.0
 11
-7105.3150617703
 21
6361.6550846117
 31
0.0
  0
LINE
  5
1BE
330
1F
100
AcDbEntity
  8
0
  6
Continuous
 62
     7
370
    25
100
AcDbLine
 10
-7105.3150617703
 20
6361.6550846117
 30
0.0
 11
-7106.6141447703
 21
6363.7970666117
 31
0.0
  0
LINE
  5
1BF
330
1F
100
AcDbEntity
  8
0
  6
Continuous
 62
     7
370
    25
100
AcDbLine
 10
-7106.6141447703
 20
6363.7970666117
 30
0.0
 11
-7108.3010857703
 21
6362.9212746117
 31
0.0
  0
LINE
  5
1C0
330
1F
100
AcDbEntity
  8
0
  6
Continuous
 62
     7
370
    25
100
AcDbLine
 10
-7108.3010857703
 20
6362.9212746117
 30
0.0
 11
-7109.5991527703
 21
6360.6178756117
 31
0.0
  0
LINE
  5
1C1
330
1F
100
AcDbEntity
  8
0
  6
Continuous
 62
     7
370
    25
100
AcDbLine
 10
-7109.5991527703
 20
6360.6178756117
 30
0.0
 11
-7111.1237877703
 21
6359.3516856117
 31
0.0
  0
LINE
  5
1C2
330
1F
100
AcDbEntity
  8
0
  6
Continuous
 62
     7
370
    25
100
AcDbLine
 10
-7111.1237877703
 20
6359.3516856117
 30
0.0
 11
-7113.0059277703
 21
6358.9302996117
 31
0.0
  0
LINE
  5
1C3
330
1F
100
AcDbEntity
  8
0
  6
Continuous
 62
     7
370
    25
100
AcDbLine
 10
-7113.0059277703
 20
6358.9302996117
 30
0.0
 11
-7114.7901507703
 21
6360.1313386117
 31
0.0
  0
LINE
  5
1C4
330
1F
100
AcDbEntity
  8
0
  6
Continuous
 62
     7
370
    25
100
AcDbLine
 10
-7114.7901507703
 20
6360.1313386117
 30
0.0
 11
-7115.5694227703
 21
6358.3453376117
 31
0.0
  0
LINE
  5
1C5
330
1F
100
AcDbEntity
  8
0
  6
Continuous
 62
     7
370
    25
100
AcDbLine
 10
-7115.5694227703
 20
6358.3453376117
 30
0.0
 11
-7117.0938037703
 21
6358.3453376117
 31
0.0
  0
LINE
  5
1C6
330
1F
100
AcDbEntity
  8
0
  6
Continuous
 62
     7
370
    25
100
AcDbLine
 10
-7117.0938037703
 20
6358.3453376117
 30
0.0
 11
-7117.8730757703
 21
6359.0922246117
 31
0.0
  0
LINE
  5
1C7
330
1F
100
AcDbEntity
  8
0
  6
Continuous
 62
     7
370
    25
100
AcDbLine
 10
-7117.8730757703
 20
6359.0922246117
 30
0.0
 11
-7117.7759207703
 21
6360.8107886117
 31
0.0
  0
LINE
  5
1C8
330
1F
100
AcDbEntity
  8
0
  6
Continuous
 62
     7
370
    25
100
AcDbLine
 10
-7117.7759207703
 20
6360.8107886117
 30
0.0
 11
-7115.8936537703
 21
6362.6623216117
 31
0.0
  0
LINE
  5
1C9
330
1F
100
AcDbEntity
  8
0
  6
Continuous
 62
     7
370
    25
100
AcDbLine
 10
-7115.8936537703
 20
6362.6623216117
 30
0.0
 11
-7116.5101117703
 21
6364.4785486117
 31
0.0
  0
LINE
  5
1CA
330
1F
100
AcDbEntity
  8
0
  6
Continuous
 62
     7
370
    25
100
AcDbLine
 10
-7116.5101117703
 20
6364.4785486117
 30
0.0
 11
-7117.4510547703
 21
6365.1604116117
 31
0.0
  0
LINE
  5
1CB
330
1F
100
AcDbEntity
  8
0
  6
Continuous
 62
     7
370
    25
100
AcDbLine
 10
-7117.4510547703
 20
6365.1604116117
 30
0.0
 11
-7116.9966487703
 21
6366.1662516117
 31
0.0
  0
LINE
  5
1CC
330
1F
100
AcDbEntity
  8
0
  6
Continuous
 62
     7
370
    25
100
AcDbLine
 10
-7116.9966487703
 20
6366.1662516117
 30
0.0
 11
-7118.2940807703
 21
6366.9450156117
 31
0.0
  0
LINE
  5
1CD
330
1F
100
AcDbEntity
  8
0
  6
Continuous
 62
     7
370
    25
100
AcDbLine
 10
-7118.2940807703
 20
6366.9450156117
 30
0.0
 11
-7119.3006827703
 21
6366.1662516117
 31
0.0
  0
LINE
  5
1CE
330
1F
100
AcDbEntity
  8
0
  6
Continuous
 62
     7
370
    25
100
AcDbLine
 10
-7119.3006827703
 20
6366.1662516117
 30
0.0
 11
-7120.5019757703
 21
6366.5877646117
 31
0.0
  0
LINE
  5
1CF
330
1F
100
AcDbEntity
  8
0
  6
Continuous
 62
     7
370
    25
100
AcDbLine
 10
-7120.5019757703
 20
6366.5877646117
 30
0.0
 11
-7122.7398427703
 21
6365.6784446117
 31
0.0
  0
LINE
  5
1D0
330
1F
100
AcDbEntity
  8
0
  6
Continuous
 62
     7
370
    25
100
AcDbLine
 10
-7122.7398427703
 20
6365.6784446117
 30
0.0
 11
-7124.6872607703
 21
6366.8468446117
 31
0.0
  0
LINE
  5
1D1
330
1F
100
AcDbEntity
  8
0
  6
Continuous
 62
     7
370
    25
100
AcDbLine
 10
-7124.6872607703
 20
6366.8468446117
 30
0.0
 11
-7125.3689967703
 21
6368.0467406117
 31
0.0
  0
LINE
  5
1D2
330
1F
100
AcDbEntity
  8
0
  6
Continuous
 62
     7
370
    25
100
AcDbLine
 10
-7125.3689967703
 20
6368.0467406117
 30
0.0
 11
-7125.4647547703
 21
6370.9678676117
 31
0.0
  0
LINE
  5
1D3
330
1F
100
AcDbEntity
  8
0
  6
Continuous
 62
     7
370
    25
100
AcDbLine
 10
-7125.4647547703
 20
6370.9678676117
 30
0.0
 11
-7126.4065867703
 21
6372.5904196117
 31
0.0
  0
LINE
  5
1D4
330
1F
100
AcDbEntity
  8
0
  6
Continuous
 62
     7
370
    25
100
AcDbLine
 10
-7126.4065867703
 20
6372.5904196117
 30
0.0
 11
-7127.7690427703
 21
6373.0121866117
 31
0.0
  0
LINE
  5
1D5
330
1F
100
AcDbEntity
  8
0
  6
Continuous
 62
     7
370
    25
100
AcDbLine
 10
-7127.7690427703
 20
6373.0121866117
 30
0.0
 11
-7130.5926337703
 21
6373.4992316117
 31
0.0
  0
LINE
  5
1D6
330
1F
100
AcDbEntity
  8
0
  6
Continuous
 62
     7
370
    25
100
AcDbLine
 10
-7130.5926337703
 20
6373.4992316117
 30
0.0
 11
-7131.5984737703
 21
6374.7965366117
 31
0.0
  0
LINE
  5
1D7
330
1F
100
AcDbEntity
  8
0
  6
Continuous
 62
     7
370
    25
100
AcDbLine
 10
-7131.5984737703
 20
6374.7965366117
 30
0.0
 11
-7132.2139157703
 21
6378.3011016117
 31
0.0
  0
LINE
  5
1D8
330
1F
100
AcDbEntity
  8
0
  6
Continuous
 62
     7
370
    25
100
AcDbLine
 10
-7132.2139157703
 20
6378.3011016117
 30
0.0
 11
-7133.5773877703
 21
6379.3066876117
 31
0.0
  0
LINE
  5
1D9
330
1F
100
AcDbEntity
  8
0
  6
Continuous
 62
     7
370
    25
100
AcDbLine
 10
-7133.5773877703
 20
6379.3066876117
 30
0.0
 11
-7135.0055027703
 21
6381.0260136117
 31
0.0
  0
LINE
  5
1DA
330
1F
100
AcDbEntity
  8
0
  6
Continuous
 62
     7
370
    25
100
AcDbLine
 10
-7135.0055027703
 20
6381.0260136117
 30
0.0
 11
-7136.6269117703
 21
6382.8108716117
 31
0.0
  0
LINE
  5
1DB
330
1F
100
AcDbEntity
  8
0
  6
Continuous
 62
     7
370
    25
100
AcDbLine
 10
-7136.6269117703
 20
6382.8108716117
 30
0.0
 11
-7137.5678547703
 21
6384.2708636117
 31
0.0
  0
LINE
  5
1DC
330
1F
100
AcDbEntity
  8
0
  6
Continuous
 62
     7
370
    25
100
AcDbLine
 10
-7137.5678547703
 20
6384.2708636117
 30
0.0
 11
-7136.3677047703
 21
6388.1968146117
 31
0.0
  0
LINE
  5
1DD
330
1F
100
AcDbEntity
  8
0
  6
Continuous
 62
     7
370
    25
100
AcDbLine
 10
-7136.3677047703
 20
6388.1968146117
 30
0.0
 11
-7135.4259997703
 21
6391.1818226117
 31
0.0
  0
LINE
  5
1DE
330
1F
100
AcDbEntity
  8
0
  6
Continuous
 62
     7
370
    25
100
AcDbLine
 10
-7135.4259997703
 20
6391.1818226117
 30
0.0
 11
-7133.1228547703
 21
6392.6425766117
 31
0.0
  0
LINE
  5
1DF
330
1F
100
AcDbEntity
  8
0
  6
Continuous
 62
     7
370
    25
100
AcDbLine
 10
-7133.1228547703
 20
6392.6425766117
 30
0.0
 11
-7132.0190977703
 21
6394.0701836117
 31
0.0
  0
LINE
  5
1E0
330
1F
100
AcDbEntity
  8
0
  6
Continuous
 62
     7
370
    25
100
AcDbLine
 10
-7132.0190977703
 20
6394.0701836117
 30
0.0
 11
-7128.2874567703
 21
6395.7896366117
 31
0.0
  0
LINE
  5
1E1
330
1F
100
AcDbEntity
  8
0
  6
Continuous
 62
     7
370
    25
100
AcDbLine
 10
-7128.2874567703
 20
6395.7896366117
 30
0.0
 11
-7128.1908097703
 21
6397.8338286117
 31
0.0
  0
LINE
  5
1E2
330
1F
100
AcDbEntity
  8
0
  6
Continuous
 62
     7
370
    25
100
AcDbLine
 10
-7128.1908097703
 20
6397.8338286117
 30
0.0
 11
-7126.9250007703
 21
6400.0407076117
 31
0.0
  0
LINE
  5
1E3
330
1F
100
AcDbEntity
  8
0
  6
Continuous
 62
     7
370
    25
100
AcDbLine
 10
-7126.9250007703
 20
6400.0407076117
 30
0.0
 11
-7126.6657937703
 21
6402.5382896117
 31
0.0
  0
LINE
  5
1E4
330
1F
100
AcDbEntity
  8
0
  6
Continuous
 62
     7
370
    25
100
AcDbLine
 10
-7126.6657937703
 20
6402.5382896117
 30
0.0
 11
-7125.6275687703
 21
6404.6476326117
 31
0.0
  0
LINE
  5
1E5
330
1F
100
AcDbEntity
  8
0
  6
Continuous
 62
     7
370
    25
100
AcDbLine
 10
-7125.6275687703
 20
6404.6476326117
 30
0.0
 11
-7124.1019177703
 21
6407.0480596117
 31
0.0
  0
LINE
  5
1E6
330
1F
100
AcDbEntity
  8
0
  6
Continuous
 62
     7
370
    25
100
AcDbLine
 10
-7124.1019177703
 20
6407.0480596117
 30
0.0
 11
-7123.0640737703
 21
6407.8277126117
 31
0.0
  0
LINE
  5
1E7
330
1F
100
AcDbEntity
  8
0
  6
Continuous
 62
     7
370
    25
100
AcDbLine
 10
-7123.0640737703
 20
6407.8277126117
 30
0.0
 11
-7121.1175447703
 21
6409.2551926117
 31
0.0
  0
LINE
  5
1E8
330
1F
100
AcDbEntity
  8
0
  6
Continuous
 62
     7
370
    25
100
AcDbLine
 10
-7121.1175447703
 20
6409.2551926117
 30
0.0
 11
-7120.4364437703
 21
6412.3373556117
 31
0.0
  0
LINE
  5
1E9
330
1F
100
AcDbEntity
  8
0
  6
Continuous
 62
     7
370
    25
100
AcDbLine
 10
-7120.4364437703
 20
6412.3373556117
 30
0.0
 11
-7119.2359127703
 21
6412.4345106117
 31
0.0
  0
LINE
  5
1EA
330
1F
100
AcDbEntity
  8
0
  6
Continuous
 62
     7
370
    25
100
AcDbLine
 10
-7119.2359127703
 20
6412.4345106117
 30
0.0
 11
-7116.8347237703
 21
6409.6115546117
 31
0.0
  0
LINE
  5
1EB
330
1F
100
AcDbEntity
  8
0
  6
Continuous
 62
     7
370
    25
100
AcDbLine
 10
-7116.8347237703
 20
6409.6115546117
 30
0.0
 11
-7113.5889847703
 21
6409.7741146117
 31
0.0
  0
LINE
  5
1EC
330
1F
100
AcDbEntity
  8
0
  6
Continuous
 62
     7
370
    25
100
AcDbLine
 10
-7113.5889847703
 20
6409.7741146117
 30
0.0
 11
-7112.8441297703
 21
6408.1520706117
 31
0.0
  0
LINE
  5
1ED
330
1F
100
AcDbEntity
  8
0
  6
Continuous
 62
     7
370
    25
100
AcDbLine
 10
-7112.8441297703
 20
6408.1520706117
 30
0.0
 11
-7111.0272677703
 21
6407.7306846117
 31
0.0
  0
LINE
  5
1EE
330
1F
100
AcDbEntity
  8
0
  6
Continuous
 62
     7
370
    25
100
AcDbLine
 10
-7111.0272677703
 20
6407.7306846117
 30
0.0
 11
-7108.9829487703
 21
6406.0100886117
 31
0.0
  0
LINE
  5
1EF
330
1F
100
AcDbEntity
  8
0
  6
Continuous
 62
     7
370
    25
100
AcDbLine
 10
-7108.9829487703
 20
6406.0100886117
 30
0.0
 11
-7109.4048427703
 21
6405.1668086117
 31
0.0
  0
LINE
  5
1F0
330
1F
100
AcDbEntity
  8
0
  6
Continuous
 62
     7
370
    25
100
AcDbLine
 10
-7109.4048427703
 20
6405.1668086117
 30
0.0
 11
-7111.0272677703
 21
6405.1020386117
 31
0.0
  0
LINE
  5
1F1
330
1F
100
AcDbEntity
  8
0
  6
Continuous
 62
     7
370
    25
100
AcDbLine
 10
-7111.0272677703
 20
6405.1020386117
 30
0.0
 11
-7111.2214507703
 21
6403.4796136117
 31
0.0
  0
LINE
  5
1F2
330
1F
100
AcDbEntity
  8
0
  6
Continuous
 62
     7
370
    25
100
AcDbLine
 10
-7111.2214507703
 20
6403.4796136117
 30
0.0
 11
-7107.6202387703
 21
6398.7751526117
 31
0.0
  0
LINE
  5
1F3
330
1F
100
AcDbEntity
  8
0
  6
Continuous
 62
     7
370
    25
100
AcDbLine
 10
-7107.6202387703
 20
6398.7751526117
 30
0.0
 11
-7106.4191997703
 21
6399.7801036117
 31
0.0
  0
LINE
  5
1F4
330
1F
100
AcDbEntity
  8
0
  6
Continuous
 62
     7
370
    25
100
AcDbLine
 10
-7106.4191997703
 20
6399.7801036117
 30
0.0
 11
-7104.3751347703
 21
6399.7158416117
 31
0.0
  0
LINE
  5
1F5
330
1F
100
AcDbEntity
  8
0
  6
Continuous
 62
     7
370
    25
100
AcDbLine
 10
-7104.3751347703
 20
6399.7158416117
 30
0.0
 11
-7103.3694217703
 21
6397.1520926117
 31
0.0
  0
LINE
  5
1F6
330
1F
100
AcDbEntity
  8
0
  6
Continuous
 62
     7
370
    25
100
AcDbLine
 10
-7103.3694217703
 20
6397.1520926117
 30
0.0
 11
-7102.0723707703
 21
6394.5894866117
 31
0.0
  0
LINE
  5
1F7
330
1F
100
AcDbEntity
  8
0
  6
Continuous
 62
     7
370
    25
100
AcDbLine
 10
-7102.0723707703
 20
6394.5894866117
 30
0.0
 11
-7099.0860927703
 21
6394.5894866117
 31
0.0
  0
LINE
  5
1F8
330
1F
100
AcDbEntity
  8
0
  6
Continuous
 62
     7
370
    25
100
AcDbLine
 10
-7099.0860927703
 20
6394.5894866117
 30
0.0
 11
-7098.1451497703
 21
6392.8696526117
 31
0.0
  0
LINE
  5
1F9
330
1F
100
AcDbEntity
  8
0
  6
Continuous
 62
     7
370
    25
100
AcDbLine
 10
-7098.1451497703
 20
6392.8696526117
 30
0.0
 11
-7097.7233827703
 21
6393.7459526117
 31
0.0
  0
LINE
  5
1FA
330
1F
100
AcDbEntity
  8
0
  6
Continuous
 62
     7
370
    25
100
AcDbLine
 10
-7097.7233827703
 20
6393.7459526117
 30
0.0
 11
-7095.3215587703
 21
6392.2850716117
 31
0.0
  0
LINE
  5
1FB
330
1F
100
AcDbEntity
  8
0
  6
Continuous
 62
     7
370
    25
100
AcDbLine
 10
-7095.3215587703
 20
6392.2850716117
 30
0.0
 11
-7093.2773667703
 21
6391.7666576117
 31
0.0
  0
LINE
  5
1FC
330
1F
100
AcDbEntity
  8
0
  6
Continuous
 62
     7
370
    25
100
AcDbLine
 10
-7093.2773667703
 20
6391.7666576117
 30
0.0
 11
-7091.5908067703
 21
6391.9613486117
 31
0.0
  0
LINE
  5
1FD
330
1F
100
AcDbEntity
  8
0
  6
Continuous
 62
     7
370
    25
100
AcDbLine
 10
-7091.5908067703
 20
6391.9613486117
 30
0.0
 11
-7089.7091747703
 21
6390.2411336117
 31
0.0
  0
LINE
  5
1FE
330
1F
100
AcDbEntity
  8
0
  6
Continuous
 62
     7
370
    25
100
AcDbLine
 10
-7089.7091747703
 20
6390.2411336117
 30
0.0
 11
-7088.2491827703
 21
6387.5149516117
 31
0.0
  0
LINE
  5
1FF
330
1F
100
AcDbEntity
  8
0
  6
Continuous
 62
     7
370
    25
100
AcDbLine
 10
-7088.2491827703
 20
6387.5149516117
 30
0.0
 11
-7085.7832237703
 21
6386.7374576117
 31
0.0
  0
LINE
  5
200
330
1F
100
AcDbEntity
  8
0
  6
Continuous
 62
     7
370
    25
100
AcDbLine
 10
-7085.7832237703
 20
6386.7374576117
 30
0.0
 11
-7084.8427887703
 21
6387.6772576117
 31
0.0
  0
LINE
  5
201
330
1F
100
AcDbEntity
  8
0
  6
Continuous
 62
     7
370
    25
100
AcDbLine
 10
-7084.8427887703
 20
6387.6772576117
 30
0.0
 11
-7083.9009567703
 21
6387.3532806117
 31
0.0
  0
LINE
  5
202
330
1F
100
AcDbEntity
  8
0
  6
Continuous
 62
     7
370
    25
100
AcDbLine
 10
-7083.9009567703
 20
6387.3532806117
 30
0.0
 11
-7084.4203867703
 21
6384.8548096117
 31
0.0
  0
LINE
  5
203
330
1F
100
AcDbEntity
  8
0
  6
Continuous
 62
     7
370
    25
100
AcDbLine
 10
-7084.4203867703
 20
6384.8548096117
 30
0.0
 11
-7083.4788087703
 21
6383.4273296117
 31
0.0
  0
LINE
  5
204
330
1F
100
AcDbEntity
  8
0
  6
Continuous
 62
     7
370
    25
100
AcDbLine
 10
-7083.4788087703
 20
6383.4273296117
 30
0.0
 11
-7083.3166297703
 21
6382.0324886117
 31
0.0
  0
LINE
  5
205
330
1F
100
AcDbEntity
  8
0
  6
Continuous
 62
     7
370
    25
100
AcDbLine
 10
-7083.3166297703
 20
6382.0324886117
 30
0.0
 11
-7081.3374617703
 21
6382.1292626117
 31
0.0
  0
LINE
  5
206
330
1F
100
AcDbEntity
  8
0
  6
Continuous
 62
     7
370
    25
100
AcDbLine
 10
-7081.3374617703
 20
6382.1292626117
 30
0.0
 11
-7080.3963917703
 21
6381.1238036117
 31
0.0
  0
LINE
  5
207
330
1F
100
AcDbEntity
  8
0
  6
Continuous
 62
     7
370
    25
100
AcDbLine
 10
-7080.3963917703
 20
6381.1238036117
 30
0.0
 11
-7081.5980657703
 21
6378.9820756117
 31
0.0
  0
LINE
  5
208
330
1F
100
AcDbEntity
  8
0
  6
Continuous
 62
     7
370
    25
100
AcDbLine
 10
-7081.5980657703
 20
6378.9820756117
 30
0.0
 11
-7081.2401797703
 21
6378.0410056117
 31
0.0
  0
LINE
  5
209
330
1F
100
AcDbEntity
  8
0
  6
Continuous
 62
     7
370
    25
100
AcDbLine
 10
-7081.2401797703
 20
6378.0410056117
 30
0.0
 11
-7079.9757677703
 21
6377.8797156117
 31
0.0
  0
LINE
  5
20A
330
1F
100
AcDbEntity
  8
0
  6
Continuous
 62
     7
370
    25
100
AcDbLine
 10
-7079.9757677703
 20
6377.8797156117
 30
0.0
 11
-7079.2936507703
 21
6379.5661486117
 31
0.0
  0
LINE
  5
20B
330
1F
100
AcDbEntity
  8
0
  6
Continuous
 62
     7
370
    25
100
AcDbLine
 10
-7079.2936507703
 20
6379.5661486117
 30
0.0
 11
-7078.0278417703
 21
6379.2412826117
 31
0.0
  0
LINE
  5
20C
330
1F
100
AcDbEntity
  8
0
  6
Continuous
 62
     7
370
    25
100
AcDbLine
 10
-7078.0278417703
 20
6379.2412826117
 30
0.0
 11
-7076.1462097703
 21
6379.0465916117
 31
0.0
  0
LINE
  5
20D
330
1F
100
AcDbEntity
  8
0
  6
Continuous
 62
     7
370
    25
100
AcDbLine
 10
-7076.1462097703
 20
6379.0465916117
 30
0.0
 11
-7075.1082387703
 21
6380.3450396117
 31
0.0
  0
LINE
  5
20E
330
1F
100
AcDbEntity
  8
0
  6
Continuous
 62
     7
370
    25
100
AcDbLine
 10
-7075.1082387703
 20
6380.3450396117
 30
0.0
 11
-7074.2640697703
 21
6379.8259906117
 31
0.0
  0
LINE
  5
20F
330
1F
100
AcDbEntity
  8
0
  6
Continuous
 62
     7
370
    25
100
AcDbLine
 10
-7074.2640697703
 20
6379.8259906117
 30
0.0
 11
-7074.5886817703
 21
6378.7229956117
 31
0.0
  0
LINE
  5
210
330
1F
100
AcDbEntity
  8
0
  6
Continuous
 62
     7
370
    25
100
AcDbLine
 10
-7074.5886817703
 20
6378.7229956117
 30
0.0
 11
-7073.7455287703
 21
6377.7810366117
 31
0.0
  0
LINE
  5
211
330
1F
100
AcDbEntity
  8
0
  6
Continuous
 62
     7
370
    25
100
AcDbLine
 10
-7073.7455287703
 20
6377.7810366117
 30
0.0
 11
-7074.6862177703
 21
6375.9977026117
 31
0.0
  0
LINE
  5
212
330
1F
100
AcDbEntity
  8
0
  6
Continuous
 62
     7
370
    25
100
AcDbLine
 10
-7074.6862177703
 20
6375.9977026117
 30
0.0
 11
-7074.1015097703
 21
6375.3168556117
 31
0.0
  0
LINE
  5
213
330
1F
100
AcDbEntity
  8
0
  6
Continuous
 62
     7
370
    25
100
AcDbLine
 10
-7074.1015097703
 20
6375.3168556117
 30
0.0
 11
-7073.8429377703
 21
6372.7523446117
 31
0.0
  0
LINE
  5
214
330
1F
100
AcDbEntity
  8
0
  6
Continuous
 62
     7
370
    25
100
AcDbLine
 10
-7073.8429377703
 20
6372.7523446117
 30
0.0
 11
-7070.2412177703
 21
6370.7736846117
 31
0.0
  0
LINE
  5
215
330
1F
100
AcDbEntity
  8
0
  6
Continuous
 62
     7
370
    25
100
AcDbLine
 10
-7070.2412177703
 20
6370.7736846117
 30
0.0
 11
-7069.6560017703
 21
6371.9730726117
 31
0.0
  0
LINE
  5
216
330
1F
100
AcDbEntity
  8
0
  6
Continuous
 62
     7
370
    25
100
AcDbLine
 10
-7069.6560017703
 20
6371.9730726117
 30
0.0
 11
-7069.9818837703
 21
6373.4333186117
 31
0.0
  0
LINE
  5
217
330
1F
100
AcDbEntity
  8
0
  6
Continuous
 62
     7
370
    25
100
AcDbLine
 10
-7069.9818837703
 20
6373.4333186117
 30
0.0
 11
-7067.6120637703
 21
6373.0121866117
 31
0.0
  0
LINE
  5
218
330
1F
100
AcDbEntity
  8
0
  6
Continuous
 62
     7
370
    25
100
AcDbLine
 10
-7067.6120637703
 20
6373.0121866117
 30
0.0
 11
-7068.1976607703
 21
6371.1297926117
 31
0.0
  0
LINE
  5
219
330
1F
100
AcDbEntity
  8
0
  6
Continuous
 62
     7
370
    25
100
AcDbLine
 10
-7068.1976607703
 20
6371.1297926117
 30
0.0
 11
-7067.0936497703
 21
6370.7736846117
 31
0.0
  0
LINE
  5
21A
330
1F
100
AcDbEntity
  8
0
  6
Continuous
 62
     7
370
    25
100
AcDbLine
 10
-7067.0936497703
 20
6370.7736846117
 30
0.0
 11
-7066.2492267703
 21
6370.7082796117
 31
0.0
  0
LINE
  5
21B
330
1F
100
AcDbEntity
  8
0
  6
Continuous
 62
     7
370
    25
100
AcDbLine
 10
-7066.2492267703
 20
6370.7082796117
 30
0.0
 11
-7064.7906317703
 21
6368.8263936117
 31
0.0
  0
LINE
  5
21C
330
1F
100
AcDbEntity
  8
0
  6
Continuous
 62
     7
370
    25
100
AcDbLine
 10
-7064.7906317703
 20
6368.8263936117
 30
0.0
 11
-7064.4335077703
 21
6365.9064096117
 31
0.0
  0
LINE
  5
21D
330
1F
100
AcDbEntity
  8
0
  6
Continuous
 62
     7
370
    25
100
AcDbLine
 10
-7064.4335077703
 20
6365.9064096117
 30
0.0
 11
-7062.6485227703
 21
6364.3806316117
 31
0.0
  0
LINE
  5
21E
330
1F
100
AcDbEntity
  8
0
  6
Continuous
 62
     7
370
    25
100
AcDbLine
 10
-7062.6485227703
 20
6364.3806316117
 30
0.0
 11
-7065.3085377703
 21
6361.5588186117
 31
0.0
  0
LINE
  5
21F
330
1F
100
AcDbEntity
  8
0
  6
Continuous
 62
     7
370
    25
100
AcDbLine
 10
-7065.3085377703
 20
6361.5588186117
 30
0.0
 11
-7061.0264787703
 21
6357.0809256117
 31
0.0
  0
LINE
  5
220
330
1F
100
AcDbEntity
  8
0
  6
Continuous
 62
     7
370
    25
100
AcDbLine
 10
-7061.0264787703
 20
6357.0809256117
 30
0.0
 11
-7062.3881727703
 21
6355.1995476117
 31
0.0
  0
LINE
  5
221
330
1F
100
AcDbEntity
  8
0
  6
Continuous
 62
     7
370
    25
100
AcDbLine
 10
-7062.3881727703
 20
6355.1995476117
 30
0.0
 11
-7062.6485227703
 21
6352.9926686117
 31
0.0
  0
ENDSEC
  0
SECTION
  2
OBJECTS
  0
DICTIONARY
  5
C
330
0
100
AcDbDictionary
281
     1
  3
ACAD_GROUP
350
D
  3
ACAD_LAYOUT
350
1A
  3
ACAD_MLINESTYLE
350
17
  3
ACAD_PLOTSETTINGS
350
19
  3
ACAD_PLOTSTYLENAME
350
E
  3
ACAD_SCALELIST
350
47
  0
DICTIONARY
  5
D
102
{ACAD_REACTORS
330
C
102
}
330
C
100
AcDbDictionary
281
     1
  0
DICTIONARY
  5
1A
102
{ACAD_REACTORS
330
C
102
}
330
C
100
AcDbDictionary
281
     1
  3
Layout1
350
1E
  3
Layout2
350
26
  3
Model
350
22
  0
DICTIONARY
  5
17
102
{ACAD_REACTORS
330
C
102
}
330
C
100
AcDbDictionary
281
     1
  3
Standard
350
18
  0
DICTIONARY
  5
19
102
{ACAD_REACTORS
330
C
102
}
330
C
100
AcDbDictionary
281
     1
  0
ACDBDICTIONARYWDFLT
  5
E
102
{ACAD_REACTORS
330
C
102
}
330
C
100
AcDbDictionary
281
     1
  3
Normal
350
F
100
AcDbDictionaryWithDefault
340
F
  0
DICTIONARY
  5
47
102
{ACAD_REACTORS
330
C
102
}
330
C
100
AcDbDictionary
281
     1
  3
A0
350
48
  3
A1
350
49
  3
A2
350
4A
  3
A3
350
4B
  3
A4
350
4C
  3
A5
350
4D
  3
A6
350
4E
  3
A7
350
4F
  3
A8
350
50
  3
A9
350
51
  3
B0
350
52
  3
B1
350
53
  3
B2
350
54
  3
B3
350
55
  3
B4
350
56
  3
B5
350
57
  3
B6
350
58
  3
B7
350
59
  3
B8
350
5A
  3
B9
350
5B
  3
C0
350
5C
  3
C1
350
5D
  3
C2
350
5E
  3
C3
350
5F
  3
C4
350
60
  3
C5
350
61
  3
C6
350
62
  3
C7
350
63
  3
C8
350
64
  3
C9
350
65
  3
D0
350
66
  3
D1
350
67
  3
D2
350
68
  0
LAYOUT
  5
1E
102
{ACAD_REACTORS
330
1A
102
}
330
1A
100
AcDbPlotSettings
  1

  2
none_device
  4

  6

 40
0.0
 41
0.0
 42
0.0
 43
0.0
 44
0.0
 45
0.0
 46
0.0
 47
0.0
 48
0.0
 49
0.0
140
0.0
141
0.0
142
1.0
143
1.0
 70
   688
 72
     1
 73
     0
 74
     5
  7

 75
    16
147
1.0
148
0.0
149
0.0
100
AcDbLayout
  1
Layout1
 70
     1
 71
     1
 10
0.0
 20
0.0
 11
420.0
 21
297.0
 12
0.0
 22
0.0
 32
0.0
 14
1.0000000000E+20
 24
1.0000000000E+20
 34
1.0000000000E+20
 15
-1.0000000000E+20
 25
-1.0000000000E+20
 35
-1.0000000000E+20
146
0.0
 13
0.0
 23
0.0
 33
0.0
 16
1.0
 26
0.0
 36
0.0
 17
0.0
 27
1.0
 37
0.0
 76
     0
330
1B
  0
LAYOUT
  5
26
102
{ACAD_REACTORS
330
1A
102
}
330
1A
100
AcDbPlotSettings
  1

  2
none_device
  4

  6

 40
0.0
 41
0.0
 42
0.0
 43
0.0
 44
0.0
 45
0.0
 46
0.0
 47
0.0
 48
0.0
 49
0.0
140
0.0
141
0.0
142
1.0
143
1.0
 70
   688
 72
     1
 73
     0
 74
     5
  7

 75
    16
147
1.0
148
0.0
149
0.0
100
AcDbLayout
  1
Layout2
 70
     1
 71
     2
 10
0.0
 20
0.0
 11
0.0
 21
0.0
 12
0.0
 22
0.0
 32
0.0
 14
0.0
 24
0.0
 34
0.0
 15
0.0
 25
0.0
 35
0.0
146
0.0
 13
0.0
 23
0.0
 33
0.0
 16
1.0
 26
0.0
 36
0.0
 17
0.0
 27
1.0
 37
0.0
 76
     0
330
23
  0
LAYOUT
  5
22
102
{ACAD_REACTORS
330
1A
102
}
330
1A
100
AcDbPlotSettings
  1

  2
none_device
  4
ANSI_A_(11.00_x_8.50_Inches)
  6

 40
6.35
 41
19.05
 42
6.35000508
 43
19.05000254
 44
279.4
 45
215.9
 46
24503.6350455653
 47
-21816.6700576931
 48
0.0
 49
0.0
140
0.0
141
0.0
142
0.1351485955
143
1.0
 70
  1696
 72
     0
 73
     0
 74
     0
  7

 75
     0
147
0.0179189148
148
-1300.4909072572
149
0.0
100
AcDbLayout
  1
Model
 70
     1
 71
     0
 10
0.0
 20
0.0
 11
420.0
 21
297.0
 12
0.0
 22
0.0
 32
0.0
 14
-7137.5678547703
 24
6350.1697126117
 34
0.0
 15
-7061.0264787703
 25
6412.4345106117
 35
0.0
146
0.0
 13
0.0
 23
0.0
 33
0.0
 16
1.0
 26
0.0
 36
0.0
 17
0.0
 27
1.0
 37
0.0
 76
     0
330
1F
331
29
  0
MLINESTYLE
  5
18
102
{ACAD_REACTORS
330
17
102
}
330
17
100
AcDbMlineStyle
  2
Standard
 70
     0
  3

 62
   256
 51
90.0
 52
90.0
 71
     2
 49
0.5
 62
   256
  6
BYLAYER
 49
-0.5
 62
   256
  6
BYLAYER
  0
ACDBPLACEHOLDER
  5
F
102
{ACAD_REACTORS
330
E
102
}
330
E
  0
SCALE
  5
48
102
{ACAD_REACTORS
330
47
102
}
330
47
100
AcDbScale
 70
     0
300
1:1
140
1.0
141
1.0
290
     1
  0
SCALE
  5
49
102
{ACAD_REACTORS
330
47
102
}
330
47
100
AcDbScale
 70
     0
300
1:2
140
1.0
141
2.0
290
     0
  0
SCALE
  5
4A
102
{ACAD_REACTORS
330
47
102
}
330
47
100
AcDbScale
 70
     0
300
1:4
140
1.0
141
4.0
290
     0
  0
SCALE
  5
4B
102
{ACAD_REACTORS
330
47
102
}
330
47
100
AcDbScale
 70
     0
300
1:5
140
1.0
141
5.0
290
     0
  0
SCALE
  5
4C
102
{ACAD_REACTORS
330
47
102
}
330
47
100
AcDbScale
 70
     0
300
1:8
140
1.0
141
8.0
290
     0
  0
SCALE
  5
4D
102
{ACAD_REACTORS
330
47
102
}
330
47
100
AcDbScale
 70
     0
300
1:10
140
1.0
141
10.0
290
     0
  0
SCALE
  5
4E
102
{ACAD_REACTORS
330
47
102
}
330
47
100
AcDbScale
 70
     0
300
1:16
140
1.0
141
16.0
290
     0
  0
SCALE
  5
4F
102
{ACAD_REACTORS
330
47
102
}
330
47
100
AcDbScale
 70
     0
300
1:20
140
1.0
141
20.0
290
     0
  0
SCALE
  5
50
102
{ACAD_REACTORS
330
47
102
}
330
47
100
AcDbScale
 70
     0
300
1:30
140
1.0
141
30.0
290
     0
  0
SCALE
  5
51
102
{ACAD_REACTORS
330
47
102
}
330
47
100
AcDbScale
 70
     0
300
1:40
140
1.0
141
40.0
290
     0
  0
SCALE
  5
52
102
{ACAD_REACTORS
330
47
102
}
330
47
100
AcDbScale
 70
     0
300
1:50
140
1.0
141
50.0
290
     0
  0
SCALE
  5
53
102
{ACAD_REACTORS
330
47
102
}
330
47
100
AcDbScale
 70
     0
300
1:100
140
1.0
141
100.0
290
     0
  0
SCALE
  5
54
102
{ACAD_REACTORS
330
47
102
}
330
47
100
AcDbScale
 70
     0
300
2:1
140
2.0
141
1.0
290
     0
  0
SCALE
  5
55
102
{ACAD_REACTORS
330
47
102
}
330
47
100
AcDbScale
 70
     0
300
4:1
140
4.0
141
1.0
290
     0
  0
SCALE
  5
56
102
{ACAD_REACTORS
330
47
102
}
330
47
100
AcDbScale
 70
     0
300
8:1
140
8.0
141
1.0
290
     0
  0
SCALE
  5
57
102
{ACAD_REACTORS
330
47
102
}
330
47
100
AcDbScale
 70
     0
300
10:1
140
10.0
141
1.0
290
     0
  0
SCALE
  5
58
102
{ACAD_REACTORS
330
47
102
}
330
47
100
AcDbScale
 70
     0
300
100:1
140
100.0
141
1.0
290
     0
  0
SCALE
  5
59
102
{ACAD_REACTORS
330
47
102
}
330
47
100
AcDbScale
 70
     0
300
1/128" = 1'-0"
140
0.0078125
141
12.0
290
     0
  0
SCALE
  5
5A
102
{ACAD_REACTORS
330
47
102
}
330
47
100
AcDbScale
 70
     0
300
1/64" = 1'-0"
140
0.015625
141
12.0
290
     0
  0
SCALE
  5
5B
102
{ACAD_REACTORS
330
47
102
}
330
47
100
AcDbScale
 70
     0
300
1/32" = 1'-0"
140
0.03125
141
12.0
290
     0
  0
SCALE
  5
5C
102
{ACAD_REACTORS
330
47
102
}
330
47
100
AcDbScale
 70
     0
300
1/16" = 1'-0"
140
0.0625
141
12.0
290
     0
  0
SCALE
  5
5D
102
{ACAD_REACTORS
330
47
102
}
330
47
100
AcDbScale
 70
     0
300
3/32" = 1'-0"
140
0.09375
141
12.0
290
     0
  0
SCALE
  5
5E
102
{ACAD_REACTORS
330
47
102
}
330
47
100
AcDbScale
 70
     0
300
1/8" = 1'-0"
140
0.125
141
12.0
290
     0
  0
SCALE
  5
5F
102
{ACAD_REACTORS
330
47
102
}
330
47
100
AcDbScale
 70
     0
300
3/16" = 1'-0"
140
0.1875
141
12.0
290
     0
  0
SCALE
  5
60
102
{ACAD_REACTORS
330
47
102
}
330
47
100
AcDbScale
 70
     0
300
1/4" = 1'-0"
140
0.25
141
12.0
290
     0
  0
SCALE
  5
61
102
{ACAD_REACTORS
330
47
102
}
330
47
100
AcDbScale
 70
     0
300
3/8" = 1'-0"
140
0.375
141
12.0
290
     0
  0
SCALE
  5
62
102
{ACAD_REACTORS
330
47
102
}
330
47
100
AcDbScale
 70
     0
300
1/2" = 1'-0"
140
0.5
141
12.0
290
     0
  0
SCALE
  5
63
102
{ACAD_REACTORS
330
47
102
}
330
47
100
AcDbScale
 70
     0
300
3/4" = 1'-0"
140
0.75
141
12.0
290
     0
  0
SCALE
  5
64
102
{ACAD_REACTORS
330
47
102
}
330
47
100
AcDbScale
 70
     0
300
1" = 1'-0"
140
1.0
141
12.0
290
     0
  0
SCALE
  5
65
102
{ACAD_REACTORS
330
47
102
}
330
47
100
AcDbScale
 70
     0
300
1-1/2" = 1'-0"
140
1.5
141
12.0
290
     0
  0
SCALE
  5
66
102
{ACAD_REACTORS
330
47
102
}
330
47
100
AcDbScale
 70
     0
300
3" = 1'-0"
140
3.0
141
12.0
290
     0
  0
SCALE
  5
67
102
{ACAD_REACTORS
330
47
102
}
330
47
100
AcDbScale
 70
     0
300
6" = 1'-0"
140
6.0
141
12.0
290
     0
  0
SCALE
  5
68
102
{ACAD_REACTORS
330
47
102
}
330
47
100
AcDbScale
 70
     0
300
1'-0" = 1'-0"
140
12.0
141
12.0
290
     0
  0
ENDSEC
  0
EOF
