  0
SECTION
  2
HEADER
  9
$ACADVER
  1
AC1015
  9
$ACADMAINTVER
 70
     6
  9
$DWGCODEPAGE
  3
ANSI_1251
  9
$INSBASE
 10
0.0
 20
0.0
 30
0.0
  9
$EXTMIN
 10
-9248.6360436782
 20
3560.653911372
 30
0.0
  9
$EXTMAX
 10
-9146.7853456782
 20
3643.880567372
 30
0.0
  9
$LIMMIN
 10
0.0
 20
0.0
  9
$LIMMAX
 10
420.0
 20
297.0
  9
$ORTHOMODE
 70
     0
  9
$REGENMODE
 70
     1
  9
$FILLMODE
 70
     1
  9
$QTEXTMODE
 70
     0
  9
$MIRRTEXT
 70
     1
  9
$LTSCALE
 40
1.0
  9
$ATTMODE
 70
     1
  9
$TEXTSIZE
 40
4.0
  9
$TRACEWID
 40
1.0
  9
$TEXTSTYLE
  7
Standard
  9
$CLAYER
  8
0
  9
$CELTYPE
  6
ByLayer
  9
$CECOLOR
 62
   256
  9
$CELTSCALE
 40
1.0
  9
$DISPSILH
 70
     0
  9
$DIMSCALE
 40
1.0
  9
$DIMASZ
 40
6.0
  9
$DIMEXO
 40
1.0
  9
$DIMDLI
 40
3.75
  9
$DIMRND
 40
0.0
  9
$DIMDLE
 40
0.0
  9
$DIMEXE
 40
1.0
  9
$DIMTP
 40
0.0
  9
$DIMTM
 40
0.0
  9
$DIMTXT
 40
4.0
  9
$DIMCEN
 40
2.5
  9
$DIMTSZ
 40
0.0
  9
$DIMTOL
 70
     0
  9
$DIMLIM
 70
     0
  9
$DIMTIH
 70
     1
  9
$DIMTOH
 70
     1
  9
$DIMSE1
 70
     0
  9
$DIMSE2
 70
     0
  9
$DIMTAD
 70
     1
  9
$DIMZIN
 70
     0
  9
$DIMBLK
  1

  9
$DIMASO
 70
     1
  9
$DIMSHO
 70
     1
  9
$DIMPOST
  1

  9
$DIMAPOST
  1

  9
$DIMALT
 70
     0
  9
$DIMALTD
 70
     3
  9
$DIMALTF
 40
0.0393700787
  9
$DIMLFAC
 40
1.0
  9
$DIMTOFL
 70
     1
  9
$DIMTVP
 40
0.0
  9
$DIMTIX
 70
     0
  9
$DIMSOXD
 70
     0
  9
$DIMSAH
 70
     0
  9
$DIMBLK1
  1

  9
$DIMBLK2
  1

  9
$DIMSTYLE
  2
ISO-25
  9
$DIMCLRD
 70
     0
  9
$DIMCLRE
 70
     0
  9
$DIMCLRT
 70
     0
  9
$DIMTFAC
 40
1.0
  9
$DIMGAP
 40
3.0
  9
$DIMJUST
 70
     0
  9
$DIMSD1
 70
     0
  9
$DIMSD2
 70
     0
  9
$DIMTOLJ
 70
     0
  9
$DIMTZIN
 70
     0
  9
$DIMALTZ
 70
     0
  9
$DIMALTTZ
 70
     0
  9
$DIMUPT
 70
     0
  9
$DIMDEC
 70
     2
  9
$DIMTDEC
 70
     4
  9
$DIMALTU
 70
     2
  9
$DIMALTTD
 70
     3
  9
$DIMTXSTY
  7
Standard
  9
$DIMAUNIT
 70
     0
  9
$DIMADEC
 70
     2
  9
$DIMALTRND
 40
0.0
  9
$DIMAZIN
 70
     0
  9
$DIMDSEP
 70
    44
  9
$DIMATFIT
 70
     3
  9
$DIMFRAC
 70
     0
  9
$DIMLDRBLK
  1

  9
$DIMLUNIT
 70
     2
  9
$DIMLWD
 70
    -2
  9
$DIMLWE
 70
    -2
  9
$DIMTMOVE
 70
     0
  9
$LUNITS
 70
     2
  9
$LUPREC
 70
     2
  9
$SKETCHINC
 40
1.0
  9
$FILLETRAD
 40
10.0
  9
$AUNITS
 70
     1
  9
$AUPREC
 70
     2
  9
$MENU
  1
.
  9
$ELEVATION
 40
0.0
  9
$PELEVATION
 40
0.0
  9
$THICKNESS
 40
0.0
  9
$LIMCHECK
 70
     0
  9
$CHAMFERA
 40
0.0
  9
$CHAMFERB
 40
0.0
  9
$CHAMFERC
 40
0.0
  9
$CHAMFERD
 40
0.0
  9
$SKPOLY
 70
     0
  9
$TDCREATE
 40
2460368.662319352
  9
$TDUCREATE
 40
2460368.578986018
  9
$TDUPDATE
 40
2460368.662347222
  9
$TDUUPDATE
 40
2460368.579013889
  9
$TDINDWG
 40
0.0000000116
  9
$TDUSRTIMER
 40
0.0000000116
  9
$USRTIMER
 70
     1
  9
$ANGBASE
 50
0.0
  9
$ANGDIR
 70
     0
  9
$PDMODE
 70
     0
  9
$PDSIZE
 40
-1.0
  9
$PLINEWID
 40
0.0
  9
$SPLFRAME
 70
     0
  9
$SPLINETYPE
 70
     6
  9
$SPLINESEGS
 70
     8
  9
$HANDSEED
  5
302
  9
$SURFTAB1
 70
     6
  9
$SURFTAB2
 70
     6
  9
$SURFTYPE
 70
     6
  9
$SURFU
 70
     6
  9
$SURFV
 70
     6
  9
$UCSBASE
  2

  9
$UCSNAME
  2

  9
$UCSORG
 10
0.0
 20
0.0
 30
0.0
  9
$UCSXDIR
 10
1.0
 20
0.0
 30
0.0
  9
$UCSYDIR
 10
0.0
 20
1.0
 30
0.0
  9
$UCSORTHOREF
  2

  9
$UCSORTHOVIEW
 70
     0
  9
$UCSORGTOP
 10
0.0
 20
0.0
 30
0.0
  9
$UCSORGBOTTOM
 10
0.0
 20
0.0
 30
0.0
  9
$UCSORGLEFT
 10
0.0
 20
0.0
 30
0.0
  9
$UCSORGRIGHT
 10
0.0
 20
0.0
 30
0.0
  9
$UCSORGFRONT
 10
0.0
 20
0.0
 30
0.0
  9
$UCSORGBACK
 10
0.0
 20
0.0
 30
0.0
  9
$PUCSBASE
  2

  9
$PUCSNAME
  2

  9
$PUCSORG
 10
0.0
 20
0.0
 30
0.0
  9
$PUCSXDIR
 10
1.0
 20
0.0
 30
0.0
  9
$PUCSYDIR
 10
0.0
 20
1.0
 30
0.0
  9
$PUCSORTHOREF
  2

  9
$PUCSORTHOVIEW
 70
     0
  9
$PUCSORGTOP
 10
0.0
 20
0.0
 30
0.0
  9
$PUCSORGBOTTOM
 10
0.0
 20
0.0
 30
0.0
  9
$PUCSORGLEFT
 10
0.0
 20
0.0
 30
0.0
  9
$PUCSORGRIGHT
 10
0.0
 20
0.0
 30
0.0
  9
$PUCSORGFRONT
 10
0.0
 20
0.0
 30
0.0
  9
$PUCSORGBACK
 10
0.0
 20
0.0
 30
0.0
  9
$USERI1
 70
     0
  9
$USERI2
 70
     0
  9
$USERI3
 70
     0
  9
$USERI4
 70
     0
  9
$USERI5
 70
     0
  9
$USERR1
 40
0.0
  9
$USERR2
 40
0.0
  9
$USERR3
 40
0.0
  9
$USERR4
 40
0.0
  9
$USERR5
 40
0.0
  9
$WORLDVIEW
 70
     1
  9
$SHADEDGE
 70
     3
  9
$SHADEDIF
 70
    70
  9
$TILEMODE
 70
     1
  9
$MAXACTVP
 70
    64
  9
$PINSBASE
 10
0.0
 20
0.0
 30
0.0
  9
$PLIMCHECK
 70
     0
  9
$PEXTMIN
 10
1.0000000000E+20
 20
1.0000000000E+20
 30
1.0000000000E+20
  9
$PEXTMAX
 10
-1.0000000000E+20
 20
-1.0000000000E+20
 30
-1.0000000000E+20
  9
$PLIMMIN
 10
0.0
 20
0.0
  9
$PLIMMAX
 10
420.0
 20
297.0
  9
$UNITMODE
 70
     0
  9
$VISRETAIN
 70
     1
  9
$PLINEGEN
 70
     0
  9
$PSLTSCALE
 70
     1
  9
$TREEDEPTH
 70
  3020
  9
$CMLSTYLE
  2
Standard
  9
$CMLJUST
 70
     0
  9
$CMLSCALE
 40
20.0
  9
$PROXYGRAPHICS
 70
     1
  9
$MEASUREMENT
 70
     1
  9
$CELWEIGHT
370
    -1
  9
$ENDCAPS
280
     0
  9
$JOINSTYLE
280
     0
  9
$LWDISPLAY
290
     1
  9
$INSUNITS
 70
     4
  9
$HYPERLINKBASE
  1

  9
$STYLESHEET
  1

  9
$XEDIT
290
     1
  9
$CEPSNTYPE
380
     0
  9
$PSTYLEMODE
290
     1
  9
$FINGERPRINTGUID
  2
{9cc9ab84-5c81-4fc3-b44e-30d9d8d6b0bf}
  9
$VERSIONGUID
  2
{FAEB1C32-E019-11D5-929B-00C0DF256EC4}
  9
$EXTNAMES
290
     1
  9
$PSVPSCALE
 40
0.0
  9
$OLESTARTUP
290
     0
  0
ENDSEC
  0
SECTION
  2
CLASSES
  0
CLASS
  1
ACDBDICTIONARYWDFLT
  2
AcDbDictionaryWithDefault
  3
ObjectDBX Classes
 90
        0
280
     0
281
     0
  0
CLASS
  1
VISUALSTYLE
  2
AcDbVisualStyle
  3
ObjectDBX Classes
 90
     4095
280
     0
281
     0
  0
CLASS
  1
MATERIAL
  2
AcDbMaterial
  3
ObjectDBX Classes
 90
     1153
280
     0
281
     0
  0
CLASS
  1
SCALE
  2
AcDbScale
  3
ObjectDBX Classes
 90
     1153
280
     0
281
     0
  0
CLASS
  1
TABLESTYLE
  2
AcDbTableStyle
  3
ObjectDBX Classes
 90
     4095
280
     0
281
     0
  0
CLASS
  1
MLEADERSTYLE
  2
AcDbMLeaderStyle
  3
ACDB_MLEADERSTYLE_CLASS
 90
     4095
280
     0
281
     0
  0
CLASS
  1
SUN
  2
AcDbSun
  3
SCENEOE
 90
     1153
280
     0
281
     0
  0
CLASS
  1
ACDBPLACEHOLDER
  2
AcDbPlaceHolder
  3
ObjectDBX Classes
 90
        0
280
     0
281
     0
  0
CLASS
  1
LAYOUT
  2
AcDbLayout
  3
ObjectDBX Classes
 90
        0
280
     0
281
     0
  0
ENDSEC
  0
SECTION
  2
TABLES
  0
TABLE
  2
VPORT
  5
8
330
0
100
AcDbSymbolTable
 70
     1
  0
VPORT
  5
29
330
8
100
AcDbSymbolTableRecord
100
AcDbViewportTableRecord
  2
*Active
 70
     0
 10
0.0
 20
0.0
 11
1.0
 21
1.0
 12
-9197.7106946782
 22
3602.267239372
 13
0.0
 23
0.0
 14
10.0
 24
10.0
 15
10.0
 25
10.0
 16
0.0
 26
0.0
 36
1.0
 17
0.0
 27
0.0
 37
0.0
 40
84.89118912
 41
1.2237749646
 42
50.0
 43
0.0
 44
0.0
 50
0.0
 51
0.0
 71
     0
 72
   100
 73
     1
 74
     3
 75
     0
 76
     0
 77
     0
 78
     0
281
     0
 65
     1
110
0.0
120
0.0
130
0.0
111
1.0
121
0.0
131
0.0
112
0.0
122
1.0
132
0.0
 79
     0
146
0.0
  0
ENDTAB
  0
TABLE
  2
LTYPE
  5
5
330
0
100
AcDbSymbolTable
 70
     6
  0
LTYPE
  5
14
330
5
100
AcDbSymbolTableRecord
100
AcDbLinetypeTableRecord
  2
ByBlock
 70
     0
  3

 72
    65
 73
     0
 40
0.0
  0
LTYPE
  5
15
330
5
100
AcDbSymbolTableRecord
100
AcDbLinetypeTableRecord
  2
ByLayer
 70
     0
  3

 72
    65
 73
     0
 40
0.0
  0
LTYPE
  5
16
330
5
100
AcDbSymbolTableRecord
100
AcDbLinetypeTableRecord
  2
Continuous
 70
     0
  3
Solid line
 72
    65
 73
     0
 40
0.0
  0
LTYPE
  5
6E
330
5
100
AcDbSymbolTableRecord
100
AcDbLinetypeTableRecord
  2
HIDDEN
 70
     0
  3
Hidden __ __ __ __ __ __ __ __ __ __ __ __ __ __
 72
    65
 73
     2
 40
1.905
 49
1.27
 74
     0
 49
-0.635
 74
     0
  0
LTYPE
  5
6F
330
5
100
AcDbSymbolTableRecord
100
AcDbLinetypeTableRecord
  2
PHANTOM
 70
     0
  3
Phantom ______  __  __  ______  __  __  ______
 72
    65
 73
     6
 40
12.7
 49
6.35
 74
     0
 49
-1.27
 74
     0
 49
1.27
 74
     0
 49
-1.27
 74
     0
 49
1.27
 74
     0
 49
-1.27
 74
     0
  0
LTYPE
  5
70
330
5
100
AcDbSymbolTableRecord
100
AcDbLinetypeTableRecord
  2
CENTER
 70
     0
  3
Center ____ _ ____ _ ____ _ ____ _ ____ _ ____
 72
    65
 73
     4
 40
10.16
 49
6.35
 74
     0
 49
-1.27
 74
     0
 49
1.27
 74
     0
 49
-1.27
 74
     0
  0
LTYPE
  5
71
330
5
100
AcDbSymbolTableRecord
100
AcDbLinetypeTableRecord
  2
CENTERX2
 70
     0
  3
Center (2x) ________  __  ________  __  _____
 72
    65
 73
     4
 40
20.32
 49
12.7
 74
     0
 49
-2.54
 74
     0
 49
2.54
 74
     0
 49
-2.54
 74
     0
  0
LTYPE
  5
72
330
5
100
AcDbSymbolTableRecord
100
AcDbLinetypeTableRecord
  2
DOT2
 70
     0
  3
Dot (.5x) ........................................
 72
    65
 73
     2
 40
0.635
 49
0.0
 74
     0
 49
-0.635
 74
     0
  0
ENDTAB
  0
TABLE
  2
LAYER
  5
2
330
0
100
AcDbSymbolTable
 70
     1
  0
LAYER
  5
10
330
2
100
AcDbSymbolTableRecord
100
AcDbLayerTableRecord
  2
0
 70
     0
 62
     7
  6
Continuous
370
    -3
390
F
  0
ENDTAB
  0
TABLE
  2
STYLE
  5
3
330
0
100
AcDbSymbolTable
 70
     1
  0
STYLE
  5
11
330
3
100
AcDbSymbolTableRecord
100
AcDbTextStyleTableRecord
  2
Standard
 70
     0
 40
0.0
 41
1.0
 50
0.0
 71
     0
 42
4.0
  3
txt
  4

  0
ENDTAB
  0
TABLE
  2
VIEW
  5
6
330
0
100
AcDbSymbolTable
 70
     0
  0
ENDTAB
  0
TABLE
  2
UCS
  5
7
330
0
100
AcDbSymbolTable
 70
     0
  0
ENDTAB
  0
TABLE
  2
APPID
  5
9
330
0
100
AcDbSymbolTable
 70
     1
  0
APPID
  5
12
330
9
100
AcDbSymbolTableRecord
100
AcDbRegAppTableRecord
  2
ACAD
 70
     0
  0
ENDTAB
  0
TABLE
  2
DIMSTYLE
  5
A
330
0
100
AcDbSymbolTable
 70
     1
100
AcDbDimStyleTable
  0
DIMSTYLE
105
27
330
A
100
AcDbSymbolTableRecord
100
AcDbDimStyleTableRecord
  2
ISO-25
 70
     0
 41
2.5
 42
0.625
 43
3.75
 44
1.25
 73
     0
 74
     0
 77
     1
 78
     8
140
2.5
141
2.5
143
0.0393700787
147
0.625
171
     3
172
     1
178
     0
271
     2
272
     2
274
     3
278
    44
283
     0
284
     8
340
11
  0
ENDTAB
  0
TABLE
  2
BLOCK_RECORD
  5
1
330
0
100
AcDbSymbolTable
 70
     1
  0
BLOCK_RECORD
  5
1F
330
1
100
AcDbSymbolTableRecord
100
AcDbBlockTableRecord
  2
*Model_Space
340
22
  0
BLOCK_RECORD
  5
1B
330
1
100
AcDbSymbolTableRecord
100
AcDbBlockTableRecord
  2
*Paper_Space
340
1E
  0
BLOCK_RECORD
  5
23
330
1
100
AcDbSymbolTableRecord
100
AcDbBlockTableRecord
  2
*Paper_Space0
340
26
  0
ENDTAB
  0
ENDSEC
  0
SECTION
  2
BLOCKS
  0
BLOCK
  5
20
330
1F
100
AcDbEntity
  8
0
100
AcDbBlockBegin
  2
*Model_Space
 70
     0
 10
0.0
 20
0.0
 30
0.0
  3
*Model_Space
  1

  0
ENDBLK
  5
21
330
1F
100
AcDbEntity
  8
0
100
AcDbBlockEnd
  0
BLOCK
  5
1C
330
1B
100
AcDbEntity
 67
     1
  8
0
100
AcDbBlockBegin
  2
*Paper_Space
 70
     0
 10
0.0
 20
0.0
 30
0.0
  3
*Paper_Space
  1

  0
ENDBLK
  5
1D
330
1B
100
AcDbEntity
 67
     1
  8
0
100
AcDbBlockEnd
  0
BLOCK
  5
24
330
23
100
AcDbEntity
  8
0
100
AcDbBlockBegin
  2
*Paper_Space0
 70
     0
 10
0.0
 20
0.0
 30
0.0
  3
*Paper_Space0
  1

  0
ENDBLK
  5
25
330
23
100
AcDbEntity
  8
0
100
AcDbBlockEnd
  0
ENDSEC
  0
SECTION
  2
ENTITIES
  0
SPLINE
  5
74
330
1F
100
AcDbEntity
  8
0
  6
Continuous
 62
     7
370
    25
100
AcDbSpline
210
0.0
220
0.0
230
1.0
 70
     8
 71
     3
 72
    15
 73
    11
 74
     0
 42
0.000000001
 43
0.00000001
 40
0.0
 40
0.0
 40
0.0
 40
0.0
 40
0.1528612850163772
 40
0.2874697277136196
 40
0.4083171843914782
 40
0.5197330343307291
 40
0.6278222855466304
 40
0.7415060099346032
 40
0.8623534666125191
 40
1.0
 40
1.0
 40
1.0
 40
1.0
 10
-9188.608960348587
 20
3597.251616879023
 30
0.0
 10
-9188.632223269784
 20
3597.252630756568
 30
0.0
 10
-9188.675971336015
 20
3597.254537446686
 30
0.0
 10
-9188.737559245203
 20
3597.265301335076
 30
0.0
 10
-9188.789756470265
 20
3597.286409843215
 30
0.0
 10
-9188.832916661186
 20
3597.315879494627
 30
0.0
 10
-9188.866889471767
 20
3597.354417485949
 30
0.0
 10
-9188.889669738786
 20
3597.401875050562
 30
0.0
 10
-9188.904170443566
 20
3597.457101280691
 30
0.0
 10
-9188.905532407878
 20
3597.496551559791
 30
0.0
 10
-9188.906257645884
 20
3597.517558601995
 30
0.0
  0
SPLINE
  5
76
330
1F
100
AcDbEntity
  8
0
  6
Continuous
 62
     7
370
    25
100
AcDbSpline
210
0.0
220
0.0
230
1.0
 70
     8
 71
     3
 72
    15
 73
    11
 74
     0
 42
0.000000001
 43
0.00000001
 40
0.0
 40
0.0
 40
0.0
 40
0.0
 40
0.137646533387481
 40
0.2584939900653968
 40
0.3721777144533696
 40
0.4802669656692709
 40
0.5916828156085218
 40
0.7125302722863804
 40
0.8471387149836229
 40
1.0
 40
1.0
 40
1.0
 40
1.0
 10
-9188.906257645884
 20
3602.48567515605
 30
0.0
 10
-9188.905532407878
 20
3602.506682198255
 30
0.0
 10
-9188.904170443566
 20
3602.546132477354
 30
0.0
 10
-9188.889669738786
 20
3602.601358707484
 30
0.0
 10
-9188.866889471767
 20
3602.648816272096
 30
0.0
 10
-9188.832916661186
 20
3602.687354263418
 30
0.0
 10
-9188.789756470265
 20
3602.71682391483
 30
0.0
 10
-9188.737559245203
 20
3602.737932422968
 30
0.0
 10
-9188.675971336015
 20
3602.748696311359
 30
0.0
 10
-9188.632223269784
 20
3602.750603001478
 30
0.0
 10
-9188.608960348587
 20
3602.751616879022
 30
0.0
  0
SPLINE
  5
78
330
1F
100
AcDbEntity
  8
0
  6
Continuous
 62
     7
370
    25
100
AcDbSpline
210
0.0
220
0.0
230
1.0
 70
     8
 71
     3
 72
    15
 73
    11
 74
     0
 42
0.000000001
 43
0.00000001
 40
0.0
 40
0.0
 40
0.0
 40
0.0
 40
0.1548790377790571
 40
0.291993397885772
 40
0.412667484447909
 40
0.5257810605822082
 40
0.6337152448525892
 40
0.7449712554429648
 40
0.8650822696621163
 40
1.0
 40
1.0
 40
1.0
 40
1.0
 10
-9186.655624199939
 20
3602.751616879022
 30
0.0
 10
-9186.628854780864
 20
3602.750823785978
 30
0.0
 10
-9186.578386404077
 20
3602.749328567929
 30
0.0
 10
-9186.507951475005
 20
3602.735832686992
 30
0.0
 10
-9186.448046616102
 20
3602.712212797805
 30
0.0
 10
-9186.397917545166
 20
3602.679907477209
 30
0.0
 10
-9186.359591611243
 20
3602.636291163047
 30
0.0
 10
-9186.332180335123
 20
3602.583827269831
 30
0.0
 10
-9186.31768474992
 20
3602.521650082262
 30
0.0
 10
-9186.315403620069
 20
3602.477615287418
 30
0.0
 10
-9186.314196835074
 20
3602.454319581725
 30
0.0
  0
SPLINE
  5
79
330
1F
100
AcDbEntity
  8
0
  6
Continuous
 62
     7
370
    25
100
AcDbSpline
210
0.0
220
0.0
230
1.0
 70
     8
 71
     3
 72
    15
 73
    11
 74
     0
 42
0.000000001
 43
0.00000001
 40
0.0
 40
0.0
 40
0.0
 40
0.0
 40
0.1349177303379207
 40
0.255028744557067
 40
0.3662847551474379
 40
0.4742189394178142
 40
0.5873325155521086
 40
0.7080066021142405
 40
0.8451209622209496
 40
1.0
 40
1.0
 40
1.0
 40
1.0
 10
-9186.314196835074
 20
3602.454319581725
 30
0.0
 10
-9186.315403620069
 20
3602.431023876033
 30
0.0
 10
-9186.317684749918
 20
3602.386989081189
 30
0.0
 10
-9186.332180335123
 20
3602.32481189362
 30
0.0
 10
-9186.359591611243
 20
3602.272348000404
 30
0.0
 10
-9186.397917545166
 20
3602.228731686242
 30
0.0
 10
-9186.448046616102
 20
3602.196426365646
 30
0.0
 10
-9186.507951475005
 20
3602.172806476459
 30
0.0
 10
-9186.578386404077
 20
3602.159310595522
 30
0.0
 10
-9186.628854780864
 20
3602.157815377472
 30
0.0
 10
-9186.655624199939
 20
3602.157022284428
 30
0.0
  0
SPLINE
  5
7D
330
1F
100
AcDbEntity
  8
0
  6
Continuous
 62
     7
370
    25
100
AcDbSpline
210
0.0
220
0.0
230
1.0
 70
     8
 71
     3
 72
    15
 73
    11
 74
     0
 42
0.000000001
 43
0.00000001
 40
0.0
 40
0.0
 40
0.0
 40
0.0
 40
0.1548790377790519
 40
0.291993397885594
 40
0.4126674844478861
 40
0.5257810605821815
 40
0.6337152448525589
 40
0.7449712554429306
 40
0.8650822696620781
 40
1.0
 40
1.0
 40
1.0
 40
1.0
 10
-9187.424416429669
 20
3600.521887149293
 30
0.0
 10
-9187.397647010595
 20
3600.521094056249
 30
0.0
 10
-9187.347178633809
 20
3600.519598838199
 30
0.0
 10
-9187.276743704733
 20
3600.506102957263
 30
0.0
 10
-9187.216838845832
 20
3600.482483068075
 30
0.0
 10
-9187.166709774896
 20
3600.450177747479
 30
0.0
 10
-9187.128383840973
 20
3600.406561433317
 30
0.0
 10
-9187.100972564855
 20
3600.3540975401
 30
0.0
 10
-9187.08647697965
 20
3600.291920352532
 30
0.0
 10
-9187.084195849797
 20
3600.247885557688
 30
0.0
 10
-9187.082989064804
 20
3600.224589851995
 30
0.0
  0
SPLINE
  5
7E
330
1F
100
AcDbEntity
  8
0
  6
Continuous
 62
     7
370
    25
100
AcDbSpline
210
0.0
220
0.0
230
1.0
 70
     8
 71
     3
 72
    15
 73
    11
 74
     0
 42
0.000000001
 43
0.00000001
 40
0.0
 40
0.0
 40
0.0
 40
0.0
 40
0.1349177303378849
 40
0.2550287445570374
 40
0.366284755147414
 40
0.474218939417796
 40
0.5873325155520963
 40
0.7080066021143935
 40
0.8451209622209414
 40
1.0
 40
1.0
 40
1.0
 40
1.0
 10
-9187.082989064804
 20
3600.224589851995
 30
0.0
 10
-9187.084195849797
 20
3600.201294146303
 30
0.0
 10
-9187.08647697965
 20
3600.157259351459
 30
0.0
 10
-9187.100972564855
 20
3600.09508216389
 30
0.0
 10
-9187.128383840973
 20
3600.042618270675
 30
0.0
 10
-9187.166709774896
 20
3599.999001956512
 30
0.0
 10
-9187.216838845832
 20
3599.966696635916
 30
0.0
 10
-9187.276743704733
 20
3599.943076746729
 30
0.0
 10
-9187.347178633809
 20
3599.929580865792
 30
0.0
 10
-9187.397647010595
 20
3599.928085647743
 30
0.0
 10
-9187.424416429669
 20
3599.927292554698
 30
0.0
  0
SPLINE
  5
82
330
1F
100
AcDbEntity
  8
0
  6
Continuous
 62
     7
370
    25
100
AcDbSpline
210
0.0
220
0.0
230
1.0
 70
     8
 71
     3
 72
    15
 73
    11
 74
     0
 42
0.000000001
 43
0.00000001
 40
0.0
 40
0.0
 40
0.0
 40
0.0
 40
0.1548790377790571
 40
0.291993397885772
 40
0.412667484447909
 40
0.5257810605822082
 40
0.6337152448525892
 40
0.7449712554429648
 40
0.8650822696621163
 40
1.0
 40
1.0
 40
1.0
 40
1.0
 10
-9186.655624199939
 20
3597.846211473617
 30
0.0
 10
-9186.628854780864
 20
3597.845418380573
 30
0.0
 10
-9186.578386404077
 20
3597.843923162523
 30
0.0
 10
-9186.507951475005
 20
3597.830427281586
 30
0.0
 10
-9186.448046616102
 20
3597.8068073924
 30
0.0
 10
-9186.397917545166
 20
3597.774502071803
 30
0.0
 10
-9186.359591611243
 20
3597.730885757641
 30
0.0
 10
-9186.332180335123
 20
3597.678421864425
 30
0.0
 10
-9186.31768474992
 20
3597.616244676857
 30
0.0
 10
-9186.315403620069
 20
3597.572209882012
 30
0.0
 10
-9186.314196835074
 20
3597.54891417632
 30
0.0
  0
SPLINE
  5
83
330
1F
100
AcDbEntity
  8
0
  6
Continuous
 62
     7
370
    25
100
AcDbSpline
210
0.0
220
0.0
230
1.0
 70
     8
 71
     3
 72
    15
 73
    11
 74
     0
 42
0.000000001
 43
0.00000001
 40
0.0
 40
0.0
 40
0.0
 40
0.0
 40
0.1349177303379207
 40
0.255028744557067
 40
0.3662847551474379
 40
0.4742189394178142
 40
0.5873325155521086
 40
0.7080066021142405
 40
0.8451209622209496
 40
1.0
 40
1.0
 40
1.0
 40
1.0
 10
-9186.314196835074
 20
3597.54891417632
 30
0.0
 10
-9186.315403620069
 20
3597.525618470628
 30
0.0
 10
-9186.317684749918
 20
3597.481583675783
 30
0.0
 10
-9186.332180335123
 20
3597.419406488215
 30
0.0
 10
-9186.359591611243
 20
3597.366942594998
 30
0.0
 10
-9186.397917545166
 20
3597.323326280836
 30
0.0
 10
-9186.448046616102
 20
3597.291020960241
 30
0.0
 10
-9186.507951475005
 20
3597.267401071054
 30
0.0
 10
-9186.578386404077
 20
3597.253905190117
 30
0.0
 10
-9186.628854780864
 20
3597.252409972067
 30
0.0
 10
-9186.655624199939
 20
3597.251616879023
 30
0.0
  0
SPLINE
  5
84
330
1F
100
AcDbEntity
  8
0
  6
Continuous
 62
     7
370
    25
100
AcDbSpline
210
0.0
220
0.0
230
1.0
 70
     8
 71
     3
 72
    15
 73
    11
 74
     0
 42
0.000000001
 43
0.00000001
 40
0.0
 40
0.0
 40
0.0
 40
0.0
 40
0.1292358118054472
 40
0.2539569466683575
 40
0.3771968047856959
 40
0.5066544638822388
 40
0.634670715258125
 40
0.7555544727615597
 40
0.8762798741110704
 40
1.0
 40
1.0
 40
1.0
 40
1.0
 10
-9183.289661362101
 20
3600.150265527671
 30
0.0
 10
-9183.2452546114
 20
3600.152266341716
 30
0.0
 10
-9183.157992399309
 20
3600.156198074094
 30
0.0
 10
-9183.033144358133
 20
3600.194217492204
 30
0.0
 10
-9182.917352115319
 20
3600.253392895561
 30
0.0
 10
-9182.814889440055
 20
3600.335428593169
 30
0.0
 10
-9182.727613639196
 20
3600.432417234074
 30
0.0
 10
-9182.664458718124
 20
3600.543253098861
 30
0.0
 10
-9182.625745014584
 20
3600.663751378283
 30
0.0
 10
-9182.620881405068
 20
3600.747675410693
 30
0.0
 10
-9182.618419808046
 20
3600.790151507401
 30
0.0
  0
SPLINE
  5
86
330
1F
100
AcDbEntity
  8
0
  6
Continuous
 62
     7
370
    25
100
AcDbSpline
210
0.0
220
0.0
230
1.0
 70
     8
 71
     3
 72
    15
 73
    11
 74
     0
 42
0.000000001
 43
0.00000001
 40
0.0
 40
0.0
 40
0.0
 40
0.0
 40
0.1235134495526287
 40
0.244037177298391
 40
0.3652811780136794
 40
0.4939311243358203
 40
0.6229953715115543
 40
0.7475489850495736
 40
0.8709800785673448
 40
1.0
 40
1.0
 40
1.0
 40
1.0
 10
-9182.618419808046
 20
3601.513652351996
 30
0.0
 10
-9182.620910282105
 20
3601.5561116078
 30
0.0
 10
-9182.62583094671
 20
3601.640002366047
 30
0.0
 10
-9182.66418351783
 20
3601.760931794091
 30
0.0
 10
-9182.72926854439
 20
3601.871212976879
 30
0.0
 10
-9182.815826891427
 20
3601.969122279967
 30
0.0
 10
-9182.917630164991
 20
3602.053309203764
 30
0.0
 10
-9183.033499204483
 20
3602.112686361902
 30
0.0
 10
-9183.158325868462
 20
3602.151236060866
 30
0.0
 10
-9183.245241477243
 20
3602.155065285773
 30
0.0
 10
-9183.289661362101
 20
3602.157022284428
 30
0.0
  0
SPLINE
  5
8B
330
1F
100
AcDbEntity
  8
0
  6
Continuous
 62
     7
370
    25
100
AcDbSpline
210
0.0
220
0.0
230
1.0
 70
     8
 71
     3
 72
    15
 73
    11
 74
     0
 42
0.000000001
 43
0.00000001
 40
0.0
 40
0.0
 40
0.0
 40
0.0
 40
0.1212059526124693
 40
0.2293436564903068
 40
0.3347681309252343
 40
0.4407596617559478
 40
0.555813039687866
 40
0.6851533834088359
 40
0.8321371907837377
 40
1.0
 40
1.0
 40
1.0
 40
1.0
 10
-9184.253554943181
 20
3597.517558601996
 30
0.0
 10
-9184.25447700025
 20
3597.496495876719
 30
0.0
 10
-9184.25622169954
 20
3597.456641378434
 30
0.0
 10
-9184.27465811311
 20
3597.400959623935
 30
0.0
 10
-9184.303775450278
 20
3597.353168886588
 30
0.0
 10
-9184.346504822024
 20
3597.315028016356
 30
0.0
 10
-9184.400234597986
 20
3597.28598754912
 30
0.0
 10
-9184.46513407196
 20
3597.265164120774
 30
0.0
 10
-9184.541605981995
 20
3597.254535535955
 30
0.0
 10
-9184.596114789647
 20
3597.252631845638
 30
0.0
 10
-9184.625176564805
 20
3597.251616879023
 30
0.0
  0
SPLINE
  5
8C
330
1F
100
AcDbEntity
  8
0
  6
Continuous
 62
     7
370
    25
100
AcDbSpline
210
0.0
220
0.0
230
1.0
 70
     8
 71
     3
 72
    15
 73
    11
 74
     0
 42
0.000000001
 43
0.00000001
 40
0.0
 40
0.0
 40
0.0
 40
0.0
 40
0.1528612850163772
 40
0.2874697277136196
 40
0.4083171843914782
 40
0.5197330343307291
 40
0.6278222855466304
 40
0.7415060099346032
 40
0.8623534666125191
 40
1.0
 40
1.0
 40
1.0
 40
1.0
 10
-9184.625176564805
 20
3597.251616879023
 30
0.0
 10
-9184.648439485996
 20
3597.252630756568
 30
0.0
 10
-9184.692187552233
 20
3597.254537446686
 30
0.0
 10
-9184.753775461419
 20
3597.265301335076
 30
0.0
 10
-9184.805972686481
 20
3597.286409843215
 30
0.0
 10
-9184.849132877402
 20
3597.315879494627
 30
0.0
 10
-9184.883105687983
 20
3597.354417485949
 30
0.0
 10
-9184.905885955002
 20
3597.401875050562
 30
0.0
 10
-9184.920386659782
 20
3597.457101280691
 30
0.0
 10
-9184.921748624094
 20
3597.496551559791
 30
0.0
 10
-9184.9224738621
 20
3597.517558601996
 30
0.0
  0
SPLINE
  5
8E
330
1F
100
AcDbEntity
  8
0
  6
Continuous
 62
     7
370
    25
100
AcDbSpline
210
0.0
220
0.0
230
1.0
 70
     8
 71
     3
 72
    15
 73
    11
 74
     0
 42
0.000000001
 43
0.00000001
 40
0.0
 40
0.0
 40
0.0
 40
0.0
 40
0.1446346493004966
 40
0.2709695536701607
 40
0.3881332050053901
 40
0.4966009700543237
 40
0.6071858555759334
 40
0.7243495069112559
 40
0.8527014153096073
 40
1.0
 40
1.0
 40
1.0
 40
1.0
 10
-9184.9224738621
 20
3602.48567515605
 30
0.0
 10
-9184.921654765012
 20
3602.506665089958
 30
0.0
 10
-9184.920120206227
 20
3602.545989228747
 30
0.0
 10
-9184.906921945523
 20
3602.60101621319
 30
0.0
 10
-9184.886598341434
 20
3602.648179608686
 30
0.0
 10
-9184.856430986307
 20
3602.687235172171
 30
0.0
 10
-9184.816851879317
 20
3602.716478592138
 30
0.0
 10
-9184.769411898435
 20
3602.737824212987
 30
0.0
 10
-9184.713138529787
 20
3602.748758806787
 30
0.0
 10
-9184.673218711008
 20
3602.750621510981
 30
0.0
 10
-9184.651886868858
 20
3602.751616879023
 30
0.0
  0
SPLINE
  5
90
330
1F
100
AcDbEntity
  8
0
  6
Continuous
 62
     7
370
    25
100
AcDbSpline
210
0.0
220
0.0
230
1.0
 70
     8
 71
     3
 72
    23
 73
    19
 74
     0
 42
0.000000001
 43
0.00000001
 40
0.0
 40
0.0
 40
0.0
 40
0.0
 40
0.0697099815833831
 40
0.1364473703019916
 40
0.2017947491631963
 40
0.265484321880146
 40
0.3288955934619213
 40
0.3921073283569734
 40
0.456205518182398
 40
0.5211806621106059
 40
0.585627406512045
 40
0.6479914155361726
 40
0.7075565987987668
 40
0.7664878045377195
 40
0.8243692610195227
 40
0.8819472739614758
 40
0.940726797740212
 40
1.0
 40
1.0
 40
1.0
 40
1.0
 10
-9183.279209503991
 20
3602.751616879023
 30
0.0
 10
-9183.232686784393
 20
3602.750609877901
 30
0.0
 10
-9183.141625180238
 20
3602.748638816488
 30
0.0
 10
-9183.00814252033
 20
3602.729940342813
 30
0.0
 10
-9182.880024802245
 20
3602.703549440485
 30
0.0
 10
-9182.758598461873
 20
3602.661283042261
 30
0.0
 10
-9182.641598821043
 20
3602.611440558956
 30
0.0
 10
-9182.532343795272
 20
3602.545794724874
 30
0.0
 10
-9182.427045229522
 20
3602.472274194694
 30
0.0
 10
-9182.330795069505
 20
3602.385931032758
 30
0.0
 10
-9182.241534350258
 20
3602.294160370679
 30
0.0
 10
-9182.163827392287
 20
3602.196848808777
 30
0.0
 10
-9182.097969365865
 20
3602.095595896024
 30
0.0
 10
-9182.043005755242
 20
3601.99137515633
 30
0.0
 10
-9182.000687924121
 20
3601.882683966598
 30
0.0
 10
-9181.97226113625
 20
3601.769855032161
 30
0.0
 10
-9181.952430808504
 20
3601.654093499224
 30
0.0
 10
-9181.950480247902
 20
3601.575285943984
 30
0.0
 10
-9181.949500889126
 20
3601.535717385779
 30
0.0
  0
SPLINE
  5
92
330
1F
100
AcDbEntity
  8
0
  6
Continuous
 62
     7
370
    25
100
AcDbSpline
210
0.0
220
0.0
230
1.0
 70
     8
 71
     3
 72
    23
 73
    19
 74
     0
 42
0.000000001
 43
0.00000001
 40
0.0
 40
0.0
 40
0.0
 40
0.0
 40
0.0599416988924279
 40
0.1187138469711035
 40
0.1769412378156894
 40
0.2352661744249062
 40
0.2943277774127215
 40
0.3542464815027699
 40
0.4165885938737778
 40
0.4809536654488931
 40
0.5457853982364269
 40
0.609309975794789
 40
0.6719250421333874
 40
0.734978748274854
 40
0.7988306000017396
 40
0.8637685273449456
 40
0.9306766963489933
 40
0.9999999999999999
 40
0.9999999999999999
 40
0.9999999999999999
 40
0.9999999999999999
 10
-9181.949500889126
 20
3600.768086473618
 30
0.0
 10
-9181.950590330247
 20
3600.728535961992
 30
0.0
 10
-9181.952747955887
 20
3600.650206627464
 30
0.0
 10
-9181.970803021619
 20
3600.534610443549
 30
0.0
 10
-9181.99979015756
 20
3600.422488038677
 30
0.0
 10
-9182.040815649001
 20
3600.313952087166
 30
0.0
 10
-9182.093021234317
 20
3600.209052862931
 30
0.0
 10
-9182.158140177178
 20
3600.108543539356
 30
0.0
 10
-9182.233223539455
 20
3600.010775193548
 30
0.0
 10
-9182.320362272838
 20
3599.919144611719
 30
0.0
 10
-9182.413884017311
 20
3599.832698750117
 30
0.0
 10
-9182.517241818823
 20
3599.760303852979
 30
0.0
 10
-9182.624441951673
 20
3599.696064503953
 30
0.0
 10
-9182.739082574899
 20
3599.64568316655
 30
0.0
 10
-9182.85878442552
 20
3599.603990227539
 30
0.0
 10
-9182.985254352237
 20
3599.577177930179
 30
0.0
 10
-9183.116856288687
 20
3599.558732428527
 30
0.0
 10
-9183.206753657589
 20
3599.556703421752
 30
0.0
 10
-9183.252499199938
 20
3599.555670933077
 30
0.0
  0
SPLINE
  5
95
330
1F
100
AcDbEntity
  8
0
  6
Continuous
 62
     7
370
    25
100
AcDbSpline
210
0.0
220
0.0
230
1.0
 70
     8
 71
     3
 72
    15
 73
    11
 74
     0
 42
0.000000001
 43
0.00000001
 40
0.0
 40
0.0
 40
0.0
 40
0.0
 40
0.1208158510018636
 40
0.2307257204520503
 40
0.3358108859967131
 40
0.4414612828649074
 40
0.5572426563437464
 40
0.6861667178993621
 40
0.8326774575844331
 40
1.0
 40
1.0
 40
1.0
 40
1.0
 10
-9179.898149537776
 20
3597.51988123713
 30
0.0
 10
-9179.899125625341
 20
3597.498833079914
 30
0.0
 10
-9179.900989689575
 20
3597.458636771253
 30
0.0
 10
-9179.918981324197
 20
3597.402432998093
 30
0.0
 10
-9179.9483502348
 20
3597.354260990481
 30
0.0
 10
-9179.991406707626
 20
3597.316357657379
 30
0.0
 10
-9180.044447027516
 20
3597.285692732728
 30
0.0
 10
-9180.109792477733
 20
3597.265277196594
 30
0.0
 10
-9180.186180988254
 20
3597.254500824687
 30
0.0
 10
-9180.240702572375
 20
3597.25261977475
 30
0.0
 10
-9180.2697711594
 20
3597.251616879023
 30
0.0
  0
SPLINE
  5
96
330
1F
100
AcDbEntity
  8
0
  6
Continuous
 62
     7
370
    25
100
AcDbSpline
210
0.0
220
0.0
230
1.0
 70
     8
 71
     3
 72
    15
 73
    11
 74
     0
 42
0.000000001
 43
0.00000001
 40
0.0
 40
0.0
 40
0.0
 40
0.0
 40
0.1528612850163772
 40
0.2874697277136196
 40
0.4083171843914782
 40
0.5197330343307291
 40
0.6278222855466304
 40
0.7415060099346032
 40
0.8623534666125191
 40
1.0
 40
1.0
 40
1.0
 40
1.0
 10
-9180.2697711594
 20
3597.251616879023
 30
0.0
 10
-9180.293034080592
 20
3597.252630756568
 30
0.0
 10
-9180.336782146827
 20
3597.254537446686
 30
0.0
 10
-9180.398370056013
 20
3597.265301335076
 30
0.0
 10
-9180.450567281076
 20
3597.286409843215
 30
0.0
 10
-9180.493727471996
 20
3597.315879494627
 30
0.0
 10
-9180.527700282577
 20
3597.354417485949
 30
0.0
 10
-9180.550480549597
 20
3597.401875050562
 30
0.0
 10
-9180.564981254376
 20
3597.457101280691
 30
0.0
 10
-9180.566343218688
 20
3597.496551559791
 30
0.0
 10
-9180.567068456694
 20
3597.517558601996
 30
0.0
  0
SPLINE
  5
98
330
1F
100
AcDbEntity
  8
0
  6
Continuous
 62
     7
370
    25
100
AcDbSpline
210
0.0
220
0.0
230
1.0
 70
     8
 71
     3
 72
    15
 73
    11
 74
     0
 42
0.000000001
 43
0.00000001
 40
0.0
 40
0.0
 40
0.0
 40
0.0
 40
0.137646533387481
 40
0.2584939900653968
 40
0.3721777144533696
 40
0.4802669656692709
 40
0.5916828156085218
 40
0.7125302722863804
 40
0.8471387149836229
 40
1.0
 40
1.0
 40
1.0
 40
1.0
 10
-9180.567068456694
 20
3602.48567515605
 30
0.0
 10
-9180.566343218688
 20
3602.506682198255
 30
0.0
 10
-9180.564981254376
 20
3602.546132477354
 30
0.0
 10
-9180.550480549597
 20
3602.601358707484
 30
0.0
 10
-9180.527700282577
 20
3602.648816272096
 30
0.0
 10
-9180.493727471996
 20
3602.687354263418
 30
0.0
 10
-9180.450567281076
 20
3602.71682391483
 30
0.0
 10
-9180.398370056013
 20
3602.737932422969
 30
0.0
 10
-9180.336782146827
 20
3602.748696311359
 30
0.0
 10
-9180.293034080592
 20
3602.750603001478
 30
0.0
 10
-9180.2697711594
 20
3602.751616879023
 30
0.0
  0
SPLINE
  5
99
330
1F
100
AcDbEntity
  8
0
  6
Continuous
 62
     7
370
    25
100
AcDbSpline
210
0.0
220
0.0
230
1.0
 70
     8
 71
     3
 72
    15
 73
    11
 74
     0
 42
0.000000001
 43
0.00000001
 40
0.0
 40
0.0
 40
0.0
 40
0.0
 40
0.1687372826955692
 40
0.3164867953630075
 40
0.4465009315750986
 40
0.561079443417674
 40
0.6676231321872147
 40
0.7716984773789173
 40
0.8803995195840223
 40
1.0
 40
1.0
 40
1.0
 40
1.0
 10
-9180.2697711594
 20
3602.751616879023
 30
0.0
 10
-9180.240716776381
 20
3602.750589037101
 30
0.0
 10
-9180.186221833563
 20
3602.748661197618
 30
0.0
 10
-9180.109659419599
 20
3602.738190248609
 30
0.0
 10
-9180.045221266722
 20
3602.716928825478
 30
0.0
 10
-9179.990742085542
 20
3602.689579771907
 30
0.0
 10
-9179.948829148107
 20
3602.651264873851
 30
0.0
 10
-9179.918917741992
 20
3602.604440651043
 30
0.0
 10
-9179.901003870837
 20
3602.54924183001
 30
0.0
 10
-9179.899130789976
 20
3602.509814127305
 30
0.0
 10
-9179.898149537776
 20
3602.489159108753
 30
0.0
  0
SPLINE
  5
9C
330
1F
100
AcDbEntity
  8
0
  6
Continuous
 62
     7
370
    25
100
AcDbSpline
210
0.0
220
0.0
230
1.0
 70
     8
 71
     3
 72
    11
 73
     7
 74
     0
 42
0.000000001
 43
0.00000001
 40
0.0
 40
0.0
 40
0.0
 40
0.0
 40
0.2608513162075085
 40
0.5078905859948198
 40
0.7467957379979662
 40
1.0
 40
1.0
 40
1.0
 40
1.0
 10
-9178.143398693182
 20
3602.713293399293
 30
0.0
 10
-9178.129791011077
 20
3602.730255717535
 30
0.0
 10
-9178.10329617203
 20
3602.763282201272
 30
0.0
 10
-9178.052377829303
 20
3602.80007324857
 30
0.0
 10
-9177.994153478043
 20
3602.822336390837
 30
0.0
 10
-9177.953140986778
 20
3602.824716545971
 30
0.0
 10
-9177.932038895884
 20
3602.825941203348
 30
0.0
  0
SPLINE
  5
9D
330
1F
100
AcDbEntity
  8
0
  6
Continuous
 62
     7
370
    25
100
AcDbSpline
210
0.0
220
0.0
230
1.0
 70
     8
 71
     3
 72
    15
 73
    11
 74
     0
 42
0.000000001
 43
0.00000001
 40
0.0
 40
0.0
 40
0.0
 40
0.0
 40
0.1540252339659163
 40
0.2977651209542047
 40
0.4351151610674079
 40
0.5718982006583284
 40
0.7010171099184893
 40
0.8114907083375313
 40
0.910417751950597
 40
1.0
 40
1.0
 40
1.0
 40
1.0
 10
-9177.932038895884
 20
3602.825941203348
 30
0.0
 10
-9177.907173738804
 20
3602.824874158161
 30
0.0
 10
-9177.859103845874
 20
3602.822811321892
 30
0.0
 10
-9177.790341574586
 20
3602.805567862391
 30
0.0
 10
-9177.730139161687
 20
3602.774227785538
 30
0.0
 10
-9177.678333529055
 20
3602.734229713696
 30
0.0
 10
-9177.638125975402
 20
3602.688365512743
 30
0.0
 10
-9177.606487415173
 20
3602.64384675077
 30
0.0
 10
-9177.586042466251
 20
3602.599210075949
 30
0.0
 10
-9177.58362914975
 20
3602.568694378253
 30
0.0
 10
-9177.582482308046
 20
3602.554192892537
 30
0.0
  0
SPLINE
  5
9E
330
1F
100
AcDbEntity
  8
0
  6
Continuous
 62
     7
370
    25
100
AcDbSpline
210
0.0
220
0.0
230
1.0
 70
     8
 71
     3
 72
     9
 73
     5
 74
     0
 42
0.000000001
 43
0.00000001
 40
0.0
 40
0.0
 40
0.0
 40
0.0
 40
0.4684792731679748
 40
1.0
 40
1.0
 40
1.0
 40
1.0
 10
-9177.582482308046
 20
3602.554192892537
 30
0.0
 10
-9177.585100514027
 20
3602.531514843901
 30
0.0
 10
-9177.590689247892
 20
3602.483107048861
 30
0.0
 10
-9177.618694767096
 20
3602.443078626161
 30
0.0
 10
-9177.633580281019
 20
3602.421802689833
 30
0.0
  0
SPLINE
  5
A1
330
1F
100
AcDbEntity
  8
0
  6
Continuous
 62
     7
370
    25
100
AcDbSpline
210
0.0
220
0.0
230
1.0
 70
     8
 71
     3
 72
     9
 73
     5
 74
     0
 42
0.000000001
 43
0.00000001
 40
0.0
 40
0.0
 40
0.0
 40
0.0
 40
0.5715244711950239
 40
1.0
 40
1.0
 40
1.0
 40
1.0
 10
-9177.61964447021
 20
3597.63020640605
 30
0.0
 10
-9177.61022508222
 20
3597.608475832623
 30
0.0
 10
-9177.593743919186
 20
3597.570453710175
 30
0.0
 10
-9177.58911216965
 20
3597.529359764333
 30
0.0
 10
-9177.587127578317
 20
3597.511752014158
 30
0.0
  0
SPLINE
  5
A2
330
1F
100
AcDbEntity
  8
0
  6
Continuous
 62
     7
370
    25
100
AcDbSpline
210
0.0
220
0.0
230
1.0
 70
     8
 71
     3
 72
    15
 73
    11
 74
     0
 42
0.000000001
 43
0.00000001
 40
0.0
 40
0.0
 40
0.0
 40
0.0
 40
0.1226177230356326
 40
0.2354791129025747
 40
0.3397384650543961
 40
0.4476334423268413
 40
0.5611761921816275
 40
0.6903366021262523
 40
0.8354274431760998
 40
1.0
 40
1.0
 40
1.0
 40
1.0
 10
-9177.587127578317
 20
3597.511752014158
 30
0.0
 10
-9177.588247331298
 20
3597.491514587972
 30
0.0
 10
-9177.590397741787
 20
3597.45264996834
 30
0.0
 10
-9177.60652241329
 20
3597.398300620793
 30
0.0
 10
-9177.634479547045
 20
3597.351948393872
 30
0.0
 10
-9177.67353124288
 20
3597.314054779643
 30
0.0
 10
-9177.724720661045
 20
3597.28619373016
 30
0.0
 10
-9177.785439038184
 20
3597.265190418924
 30
0.0
 10
-9177.8573611898
 20
3597.254568012846
 30
0.0
 10
-9177.908398663032
 20
3597.252641001369
 30
0.0
 10
-9177.935522848587
 20
3597.251616879023
 30
0.0
  0
SPLINE
  5
A3
330
1F
100
AcDbEntity
  8
0
  6
Continuous
 62
     7
370
    25
100
AcDbSpline
210
0.0
220
0.0
230
1.0
 70
     8
 71
     3
 72
    11
 73
     7
 74
     0
 42
0.000000001
 43
0.00000001
 40
0.0
 40
0.0
 40
0.0
 40
0.0
 40
0.2028584217294051
 40
0.4177658904102868
 40
0.6762772160276452
 40
1.0
 40
1.0
 40
1.0
 40
1.0
 10
-9177.935522848587
 20
3597.251616879023
 30
0.0
 10
-9177.961093957892
 20
3597.254899237495
 30
0.0
 10
-9178.013755006697
 20
3597.261658914508
 30
0.0
 10
-9178.082600749829
 20
3597.316618655395
 30
0.0
 10
-9178.136942424984
 20
3597.401128104325
 30
0.0
 10
-9178.161243078383
 20
3597.469984070855
 30
0.0
 10
-9178.174754267506
 20
3597.508268061455
 30
0.0
  0
SPLINE
  5
AA
330
1F
100
AcDbEntity
  8
0
  6
Continuous
 62
     7
370
    25
100
AcDbSpline
210
0.0
220
0.0
230
1.0
 70
     8
 71
     3
 72
    15
 73
    11
 74
     0
 42
0.000000001
 43
0.00000001
 40
0.0
 40
0.0
 40
0.0
 40
0.0
 40
0.1160972656462386
 40
0.230662414913207
 40
0.3402033629094086
 40
0.4508640089781088
 40
0.5714067874389699
 40
0.7001904132461274
 40
0.8420906465169198
 40
1.0
 40
1.0
 40
1.0
 40
1.0
 10
-9175.613584503992
 20
3597.442072960104
 30
0.0
 10
-9175.618391606758
 20
3597.427097879365
 30
0.0
 10
-9175.627942373747
 20
3597.397345341547
 30
0.0
 10
-9175.6527245708
 20
3597.358092903991
 30
0.0
 10
-9175.683627293209
 20
3597.324868659417
 30
0.0
 10
-9175.720715515201
 20
3597.297063015791
 30
0.0
 10
-9175.76523916153
 20
3597.276940586291
 30
0.0
 10
-9175.815881205064
 20
3597.261287824824
 30
0.0
 10
-9175.87352233887
 20
3597.254055020574
 30
0.0
 10
-9175.913967206458
 20
3597.252458018251
 30
0.0
 10
-9175.935269470208
 20
3597.251616879023
 30
0.0
  0
SPLINE
  5
AB
330
1F
100
AcDbEntity
  8
0
  6
Continuous
 62
     7
370
    25
100
AcDbSpline
210
0.0
220
0.0
230
1.0
 70
     8
 71
     3
 72
    15
 73
    11
 74
     0
 42
0.000000001
 43
0.00000001
 40
0.0
 40
0.0
 40
0.0
 40
0.0
 40
0.1494489483193912
 40
0.2804162969478746
 40
0.3983399851957667
 40
0.5106686208067298
 40
0.6187215803246153
 40
0.7328059652649346
 40
0.8584957359314889
 40
1.0
 40
1.0
 40
1.0
 40
1.0
 10
-9175.935269470208
 20
3597.251616879023
 30
0.0
 10
-9175.956661532102
 20
3597.251921717922
 30
0.0
 10
-9175.996800207196
 20
3597.252493697825
 30
0.0
 10
-9176.05229947925
 20
3597.266156393514
 30
0.0
 10
-9176.10056730484
 20
3597.285210688808
 30
0.0
 10
-9176.139396495231
 20
3597.314886213759
 30
0.0
 10
-9176.16968132465
 20
3597.352341519741
 30
0.0
 10
-9176.190572874622
 20
3597.397814355748
 30
0.0
 10
-9176.203365053096
 20
3597.451063167284
 30
0.0
 10
-9176.20499385847
 20
3597.48922115241
 30
0.0
 10
-9176.205856463452
 20
3597.509429379023
 30
0.0
  0
SPLINE
  5
AC
330
1F
100
AcDbEntity
  8
0
  6
Continuous
 62
     7
370
    25
100
AcDbSpline
210
0.0
220
0.0
230
1.0
 70
     8
 71
     3
 72
     9
 73
     5
 74
     0
 42
0.000000001
 43
0.00000001
 40
0.0
 40
0.0
 40
0.0
 40
0.0
 40
0.4666082467570513
 40
0.9999999999999999
 40
0.9999999999999999
 40
0.9999999999999999
 40
0.9999999999999999
 10
-9176.205856463452
 20
3597.509429379023
 30
0.0
 10
-9176.205375658987
 20
3597.521464177213
 30
0.0
 10
-9176.204345234702
 20
3597.547256259273
 30
0.0
 10
-9176.199271963784
 20
3597.572572737679
 30
0.0
 10
-9176.196565922912
 20
3597.586076338483
 30
0.0
  0
SPLINE
  5
AE
330
1F
100
AcDbEntity
  8
0
  6
Continuous
 62
     7
370
    25
100
AcDbSpline
210
0.0
220
0.0
230
1.0
 70
     8
 71
     3
 72
    11
 73
     7
 74
     0
 42
0.000000001
 43
0.00000001
 40
0.0
 40
0.0
 40
0.0
 40
0.0
 40
0.2872048350150791
 40
0.5292209857218912
 40
0.7570217140402715
 40
0.9999999999999999
 40
0.9999999999999999
 40
0.9999999999999999
 40
0.9999999999999999
 10
-9174.849437544533
 20
3602.523998635779
 30
0.0
 10
-9174.838745212708
 20
3602.55826638669
 30
0.0
 10
-9174.819042875919
 20
3602.62141021543
 30
0.0
 10
-9174.760521018568
 20
3602.697503488874
 30
0.0
 10
-9174.682255066033
 20
3602.745023166295
 30
0.0
 10
-9174.623243426877
 20
3602.749372237859
 30
0.0
 10
-9174.592786362102
 20
3602.751616879023
 30
0.0
  0
SPLINE
  5
AF
330
1F
100
AcDbEntity
  8
0
  6
Continuous
 62
     7
370
    25
100
AcDbSpline
210
0.0
220
0.0
230
1.0
 70
     8
 71
     3
 72
    15
 73
    11
 74
     0
 42
0.000000001
 43
0.00000001
 40
0.0
 40
0.0
 40
0.0
 40
0.0
 40
0.1449966807026134
 40
0.2785627095268833
 40
0.4015672591726318
 40
0.5179666754587792
 40
0.6339949980811687
 40
0.7483070616181776
 40
0.8694272750724317
 40
1.0
 40
1.0
 40
1.0
 40
1.0
 10
-9174.592786362102
 20
3602.751616879023
 30
0.0
 10
-9174.571853715137
 20
3602.750957040449
 30
0.0
 10
-9174.531638623124
 20
3602.749689380942
 30
0.0
 10
-9174.474127600302
 20
3602.739857371629
 30
0.0
 10
-9174.423692571514
 20
3602.720438917167
 30
0.0
 10
-9174.378073323669
 20
3602.696337452827
 30
0.0
 10
-9174.339983370373
 20
3602.663308369358
 30
0.0
 10
-9174.30730169901
 20
3602.624120143309
 30
0.0
 10
-9174.283093736954
 20
3602.576667676783
 30
0.0
 10
-9174.272139132112
 20
3602.541989109064
 30
0.0
 10
-9174.266456125613
 20
3602.523998635779
 30
0.0
  0
SPLINE
  5
B1
330
1F
100
AcDbEntity
  8
0
  6
Continuous
 62
     7
370
    25
100
AcDbSpline
210
0.0
220
0.0
230
1.0
 70
     8
 71
     3
 72
     9
 73
     5
 74
     0
 42
0.000000001
 43
0.00000001
 40
0.0
 40
0.0
 40
0.0
 40
0.0
 40
0.5188677278480727
 40
1.0
 40
1.0
 40
1.0
 40
1.0
 10
-9172.920489064803
 20
3597.586076338483
 30
0.0
 10
-9172.917130316098
 20
3597.572965935428
 30
0.0
 10
-9172.910657088873
 20
3597.547698603601
 30
0.0
 10
-9172.907102273042
 20
3597.521860786616
 30
0.0
 10
-9172.905391936425
 20
3597.509429379023
 30
0.0
  0
SPLINE
  5
B2
330
1F
100
AcDbEntity
  8
0
  6
Continuous
 62
     7
370
    25
100
AcDbSpline
210
0.0
220
0.0
230
1.0
 70
     8
 71
     3
 72
    15
 73
    11
 74
     0
 42
0.000000001
 43
0.00000001
 40
0.0
 40
0.0
 40
0.0
 40
0.0
 40
0.1237794852668665
 40
0.2354455429371834
 40
0.3406927178488375
 40
0.4462594699381335
 40
0.5620718480007604
 40
0.6894502587039972
 40
0.8339864943266222
 40
0.9999999999999999
 40
0.9999999999999999
 40
0.9999999999999999
 40
0.9999999999999999
 10
-9172.905391936425
 20
3597.509429379023
 30
0.0
 10
-9172.906457027962
 20
3597.489173154529
 30
0.0
 10
-9172.908482978026
 20
3597.450643039757
 30
0.0
 10
-9172.925086015328
 20
3597.39687978742
 30
0.0
 10
-9172.952347230475
 20
3597.351122014843
 30
0.0
 10
-9172.991440772685
 20
3597.314001756797
 30
0.0
 10
-9173.040907527415
 20
3597.284651023628
 30
0.0
 10
-9173.101791014555
 20
3597.266034033719
 30
0.0
 10
-9173.172283519136
 20
3597.252473756358
 30
0.0
 10
-9173.22312463756
 20
3597.251915377095
 30
0.0
 10
-9173.250303253992
 20
3597.251616879023
 30
0.0
  0
SPLINE
  5
B3
330
1F
100
AcDbEntity
  8
0
  6
Continuous
 62
     7
370
    25
100
AcDbSpline
210
0.0
220
0.0
230
1.0
 70
     8
 71
     3
 72
    11
 73
     7
 74
     0
 42
0.000000001
 43
0.00000001
 40
0.0
 40
0.0
 40
0.0
 40
0.0
 40
0.2659391874994599
 40
0.5003589885932674
 40
0.7349007245721362
 40
1.0
 40
1.0
 40
1.0
 40
1.0
 10
-9173.250303253992
 20
3597.251616879023
 30
0.0
 10
-9173.280993456578
 20
3597.253288625787
 30
0.0
 10
-9173.33873642733
 20
3597.256433982166
 30
0.0
 10
-9173.415810509694
 20
3597.295358425627
 30
0.0
 10
-9173.474566999756
 20
3597.358537631392
 30
0.0
 10
-9173.493451013335
 20
3597.413115213931
 30
0.0
 10
-9173.503470483722
 20
3597.442072960104
 30
0.0
  0
SPLINE
  5
B6
330
1F
100
AcDbEntity
  8
0
  6
Continuous
 62
     7
370
    25
100
AcDbSpline
210
0.0
220
0.0
230
1.0
 70
     8
 71
     3
 72
    15
 73
    11
 74
     0
 42
0.000000001
 43
0.00000001
 40
0.0
 40
0.0
 40
0.0
 40
0.0
 40
0.1212059526124657
 40
0.2293436564903
 40
0.3347681309252244
 40
0.4407596617558085
 40
0.5558130396878727
 40
0.6851533834086763
 40
0.8321371907837428
 40
1.0
 40
1.0
 40
1.0
 40
1.0
 10
-9190.288690078318
 20
3597.517558601996
 30
0.0
 10
-9190.289612135386
 20
3597.496495876719
 30
0.0
 10
-9190.291356834676
 20
3597.456641378434
 30
0.0
 10
-9190.309793248247
 20
3597.400959623935
 30
0.0
 10
-9190.338910585413
 20
3597.353168886588
 30
0.0
 10
-9190.381639957157
 20
3597.315028016356
 30
0.0
 10
-9190.43536973312
 20
3597.28598754912
 30
0.0
 10
-9190.500269207096
 20
3597.265164120774
 30
0.0
 10
-9190.576741117131
 20
3597.254535535955
 30
0.0
 10
-9190.631249924783
 20
3597.252631845638
 30
0.0
 10
-9190.660311699938
 20
3597.251616879023
 30
0.0
  0
SPLINE
  5
B7
330
1F
100
AcDbEntity
  8
0
  6
Continuous
 62
     7
370
    25
100
AcDbSpline
210
0.0
220
0.0
230
1.0
 70
     8
 71
     3
 72
    15
 73
    11
 74
     0
 42
0.000000001
 43
0.00000001
 40
0.0
 40
0.0
 40
0.0
 40
0.0
 40
0.152861285016189
 40
0.2874697277136274
 40
0.4083171843914906
 40
0.5197330343307456
 40
0.627822285546651
 40
0.741506009934628
 40
0.8623534666124995
 40
1.0
 40
1.0
 40
1.0
 40
1.0
 10
-9190.660311699938
 20
3597.251616879023
 30
0.0
 10
-9190.683574621133
 20
3597.252630756568
 30
0.0
 10
-9190.72732268737
 20
3597.254537446686
 30
0.0
 10
-9190.788910596553
 20
3597.265301335076
 30
0.0
 10
-9190.841107821618
 20
3597.286409843215
 30
0.0
 10
-9190.884268012536
 20
3597.315879494628
 30
0.0
 10
-9190.918240823117
 20
3597.354417485949
 30
0.0
 10
-9190.941021090139
 20
3597.401875050562
 30
0.0
 10
-9190.955521794916
 20
3597.457101280691
 30
0.0
 10
-9190.956883759229
 20
3597.496551559791
 30
0.0
 10
-9190.957608997236
 20
3597.517558601996
 30
0.0
  0
SPLINE
  5
BA
330
1F
100
AcDbEntity
  8
0
  6
Continuous
 62
     7
370
    25
100
AcDbSpline
210
0.0
220
0.0
230
1.0
 70
     8
 71
     3
 72
    23
 73
    19
 74
     0
 42
0.000000001
 43
0.00000001
 40
0.0
 40
0.0
 40
0.0
 40
0.0
 40
0.0654089211841015
 40
0.1288954245590199
 40
0.1905242960456141
 40
0.2519389918315197
 40
0.3128299810523932
 40
0.3744618219611472
 40
0.4371389187316463
 40
0.5013990124460331
 40
0.5660650739897802
 40
0.6282585326512652
 40
0.6898903735599913
 40
0.7502349192920389
 40
0.811278995464262
 40
0.8729078669508981
 40
0.9351954156187408
 40
0.9999999999999999
 40
0.9999999999999999
 40
0.9999999999999999
 40
0.9999999999999999
 10
-9192.037634335074
 20
3599.555670933077
 30
0.0
 10
-9192.079486696497
 20
3599.556874429297
 30
0.0
 10
-9192.1619613467
 20
3599.55924605007
 30
0.0
 10
-9192.28309598594
 20
3599.575357283156
 30
0.0
 10
-9192.399123706655
 20
3599.603994341321
 30
0.0
 10
-9192.510838627995
 20
3599.641649898184
 30
0.0
 10
-9192.61738938466
 20
3599.692272570557
 30
0.0
 10
-9192.718614190942
 20
3599.75425285806
 30
0.0
 10
-9192.815276251982
 20
3599.826706858029
 30
0.0
 10
-9192.906867100479
 20
3599.90850291675
 30
0.0
 10
-9192.989070355687
 20
3599.999300844292
 30
0.0
 10
-9193.062249519808
 20
3600.095376575503
 30
0.0
 10
-9193.123654762887
 20
3600.196218845123
 30
0.0
 10
-9193.174221225756
 20
3600.302049386361
 30
0.0
 10
-9193.213888479719
 20
3600.412473672329
 30
0.0
 10
-9193.241583854377
 20
3600.527738635627
 30
0.0
 10
-9193.258222462966
 20
3600.647598037368
 30
0.0
 10
-9193.260501145556
 20
3600.728935129703
 30
0.0
 10
-9193.26166305129
 20
3600.770409108753
 30
0.0
  0
SPLINE
  5
BC
330
1F
100
AcDbEntity
  8
0
  6
Continuous
 62
     7
370
    25
100
AcDbSpline
210
0.0
220
0.0
230
1.0
 70
     8
 71
     3
 72
    15
 73
    11
 74
     0
 42
0.000000001
 43
0.00000001
 40
0.0
 40
0.0
 40
0.0
 40
0.0
 40
0.1354286630936716
 40
0.259026915105547
 40
0.3707042516398449
 40
0.4790471821147895
 40
0.5907245186490563
 40
0.7118555973607662
 40
0.8467799583349908
 40
1.0
 40
1.0
 40
1.0
 40
1.0
 10
-9193.26166305129
 20
3602.486836473617
 30
0.0
 10
-9193.26084141149
 20
3602.507431591384
 30
0.0
 10
-9193.259269906473
 20
3602.54682273429
 30
0.0
 10
-9193.245605813963
 20
3602.601963989349
 30
0.0
 10
-9193.221909008269
 20
3602.649006879414
 30
0.0
 10
-9193.18836424867
 20
3602.687373823859
 30
0.0
 10
-9193.145149396454
 20
3602.716818128037
 30
0.0
 10
-9193.092968515364
 20
3602.737934215112
 30
0.0
 10
-9193.031375571807
 20
3602.748695768993
 30
0.0
 10
-9192.987628269155
 20
3602.750602813195
 30
0.0
 10
-9192.964365753993
 20
3602.751616879023
 30
0.0
  0
SPLINE
  5
BD
330
1F
100
AcDbEntity
  8
0
  6
Continuous
 62
     7
370
    25
100
AcDbSpline
210
0.0
220
0.0
230
1.0
 70
     8
 71
     3
 72
    15
 73
    11
 74
     0
 42
0.000000001
 43
0.00000001
 40
0.0
 40
0.0
 40
0.0
 40
0.0
 40
0.1691382693020573
 40
0.3176902073341422
 40
0.4474110356377571
 40
0.563410610629285
 40
0.6687664326273903
 40
0.773153890127072
 40
0.880040848835353
 40
1.0
 40
1.0
 40
1.0
 40
1.0
 10
-9192.964365753993
 20
3602.751616879023
 30
0.0
 10
-9192.935256548464
 20
3602.751304984024
 30
0.0
 10
-9192.880581107018
 20
3602.750719155712
 30
0.0
 10
-9192.80471711209
 20
3602.737233008405
 30
0.0
 10
-9192.73914230031
 20
3602.718850726171
 30
0.0
 10
-9192.68612762012
 20
3602.689179250944
 30
0.0
 10
-9192.6429893261
 20
3602.652557475098
 30
0.0
 10
-9192.613875556397
 20
3602.605793670853
 30
0.0
 10
-9192.595397102714
 20
3602.551273144352
 30
0.0
 10
-9192.59366178878
 20
3602.512163453344
 30
0.0
 10
-9192.592744132371
 20
3602.491481743888
 30
0.0
  0
SPLINE
  5
BF
330
1F
100
AcDbEntity
  8
0
  6
Continuous
 62
     7
370
    25
100
AcDbSpline
210
0.0
220
0.0
230
1.0
 70
     8
 71
     3
 72
    15
 73
    11
 74
     0
 42
0.000000001
 43
0.00000001
 40
0.0
 40
0.0
 40
0.0
 40
0.0
 40
0.143580538230268
 40
0.2773180907195761
 40
0.4047876967771792
 40
0.5341163941168512
 40
0.6605782338346097
 40
0.7766771723013711
 40
0.8879535422141224
 40
1.0
 40
1.0
 40
1.0
 40
1.0
 10
-9192.592744132371
 20
3600.816861811456
 30
0.0
 10
-9192.59071965815
 20
3600.769393023708
 30
0.0
 10
-9192.58680949503
 20
3600.677709612091
 30
0.0
 10
-9192.550936921627
 20
3600.547834956747
 30
0.0
 10
-9192.493000033637
 20
3600.431728241368
 30
0.0
 10
-9192.412586241211
 20
3600.332972329869
 30
0.0
 10
-9192.3190387429
 20
3600.25239636844
 30
0.0
 10
-9192.217130362953
 20
3600.194363296602
 30
0.0
 10
-9192.110288174534
 20
3600.156706816901
 30
0.0
 10
-9192.036388238539
 20
3600.152417554327
 30
0.0
 10
-9191.999310855344
 20
3600.150265527671
 30
0.0
  0
SPLINE
  5
C1
330
1F
100
AcDbEntity
  8
0
  6
Continuous
 62
     7
370
    25
100
AcDbSpline
210
0.0
220
0.0
230
1.0
 70
     8
 71
     3
 72
    15
 73
    11
 74
     0
 42
0.000000001
 43
0.00000001
 40
0.0
 40
0.0
 40
0.0
 40
0.0
 40
0.1364411897142888
 40
0.2559957227680035
 40
0.368508010143397
 40
0.4757423758333514
 40
0.5882546632087572
 40
0.7093427114891284
 40
0.8457839012035908
 40
1.0
 40
1.0
 40
1.0
 40
1.0
 10
-9190.957608997236
 20
3602.491481743888
 30
0.0
 10
-9190.9568885482
 20
3602.512106916841
 30
0.0
 10
-9190.955536816573
 20
3602.55080458628
 30
0.0
 10
-9190.941003854949
 20
3602.604859805647
 30
0.0
 10
-9190.91826742249
 20
3602.651314713339
 30
0.0
 10
-9190.88382053261
 20
3602.688413040042
 30
0.0
 10
-9190.841430388336
 20
3602.7183882925
 30
0.0
 10
-9190.788444549507
 20
3602.737151978805
 30
0.0
 10
-9190.72758026894
 20
3602.750689707729
 30
0.0
 10
-9190.683630461137
 20
3602.751295473553
 30
0.0
 10
-9190.660311699938
 20
3602.751616879023
 30
0.0
  0
SPLINE
  5
C2
330
1F
100
AcDbEntity
  8
0
  6
Continuous
 62
     7
370
    25
100
AcDbSpline
210
0.0
220
0.0
230
1.0
 70
     8
 71
     3
 72
    15
 73
    11
 74
     0
 42
0.000000001
 43
0.00000001
 40
0.0
 40
0.0
 40
0.0
 40
0.0
 40
0.1678628092162573
 40
0.3148466165913237
 40
0.4441869603121274
 40
0.5592403382441915
 40
0.6652318690747756
 40
0.7706563435097
 40
0.8787940473875343
 40
1.0
 40
1.0
 40
1.0
 40
1.0
 10
-9190.660311699938
 20
3602.751616879023
 30
0.0
 10
-9190.631249924783
 20
3602.750601912408
 30
0.0
 10
-9190.576741117131
 20
3602.74869822209
 30
0.0
 10
-9190.500269207096
 20
3602.738069637271
 30
0.0
 10
-9190.43536973312
 20
3602.717246208925
 30
0.0
 10
-9190.381639957157
 20
3602.688205741689
 30
0.0
 10
-9190.338910585413
 20
3602.650064871458
 30
0.0
 10
-9190.309793248247
 20
3602.60227413411
 30
0.0
 10
-9190.291356834676
 20
3602.546592379611
 30
0.0
 10
-9190.289612135386
 20
3602.506737881326
 30
0.0
 10
-9190.288690078318
 20
3602.48567515605
 30
0.0
  0
SPLINE
  5
C6
330
1F
100
AcDbEntity
  8
0
  6
Continuous
 62
     7
370
    25
100
AcDbSpline
210
0.0
220
0.0
230
1.0
 70
     8
 71
     3
 72
    15
 73
    11
 74
     0
 42
0.000000001
 43
0.00000001
 40
0.0
 40
0.0
 40
0.0
 40
0.0
 40
0.1548790377790571
 40
0.291993397885772
 40
0.412667484447909
 40
0.5257810605822082
 40
0.6337152448525892
 40
0.7449712554429648
 40
0.8650822696621163
 40
1.0
 40
1.0
 40
1.0
 40
1.0
 10
-9169.159678253993
 20
3602.751616879023
 30
0.0
 10
-9169.132908834918
 20
3602.750823785978
 30
0.0
 10
-9169.08244045813
 20
3602.749328567929
 30
0.0
 10
-9169.012005529059
 20
3602.735832686992
 30
0.0
 10
-9168.952100670156
 20
3602.712212797805
 30
0.0
 10
-9168.90197159922
 20
3602.679907477209
 30
0.0
 10
-9168.863645665297
 20
3602.636291163047
 30
0.0
 10
-9168.836234389177
 20
3602.583827269831
 30
0.0
 10
-9168.821738803974
 20
3602.521650082262
 30
0.0
 10
-9168.819457674123
 20
3602.477615287418
 30
0.0
 10
-9168.818250889128
 20
3602.454319581725
 30
0.0
  0
SPLINE
  5
C8
330
1F
100
AcDbEntity
  8
0
  6
Continuous
 62
     7
370
    25
100
AcDbSpline
210
0.0
220
0.0
230
1.0
 70
     8
 71
     3
 72
    15
 73
    11
 74
     0
 42
0.000000001
 43
0.00000001
 40
0.0
 40
0.0
 40
0.0
 40
0.0
 40
0.1149354247297799
 40
0.2288707708169311
 40
0.347617796701109
 40
0.4735492141811501
 40
0.6025588394228795
 40
0.7278916335685119
 40
0.8600067485935332
 40
1.0
 40
1.0
 40
1.0
 40
1.0
 10
-9170.117765247236
 20
3602.157022284428
 30
0.0
 10
-9170.156755978058
 20
3602.154855338159
 30
0.0
 10
-9170.234398172697
 20
3602.1505403007
 30
0.0
 10
-9170.347262532992
 20
3602.113196858758
 30
0.0
 10
-9170.45419584948
 20
3602.054461473472
 30
0.0
 10
-9170.55167324564
 20
3601.97293253179
 30
0.0
 10
-9170.637075829352
 20
3601.875340066096
 30
0.0
 10
-9170.69722428397
 20
3601.758099076131
 30
0.0
 10
-9170.73595027777
 20
3601.62797483466
 30
0.0
 10
-9170.739543931872
 20
3601.535618495025
 30
0.0
 10
-9170.74139278102
 20
3601.488103365509
 30
0.0
  0
SPLINE
  5
CB
330
1F
100
AcDbEntity
  8
0
  6
Continuous
 62
     7
370
    25
100
AcDbSpline
210
0.0
220
0.0
230
1.0
 70
     8
 71
     3
 72
    23
 73
    19
 74
     0
 42
0.000000001
 43
0.00000001
 40
0.0
 40
0.0
 40
0.0
 40
0.0
 40
0.0636792225567302
 40
0.1260706403090682
 40
0.1877884128189583
 40
0.2486942415156897
 40
0.3106504428495048
 40
0.3731862596610721
 40
0.4370721628481142
 40
0.5027572666284866
 40
0.5685610952127866
 40
0.6313045945878101
 40
0.6928901336675528
 40
0.7540091838791515
 40
0.8140574441550927
 40
0.8743449816747408
 40
0.9363207774432586
 40
1.0
 40
1.0
 40
1.0
 40
1.0
 10
-9170.117765247236
 20
3597.251616879023
 30
0.0
 10
-9170.15962115722
 20
3597.252816152879
 30
0.0
 10
-9170.24248651205
 20
3597.2551904473
 30
0.0
 10
-9170.365069448282
 20
3597.271622540478
 30
0.0
 10
-9170.483581020471
 20
3597.299612000077
 30
0.0
 10
-9170.598719000414
 20
3597.338342472401
 30
0.0
 10
-9170.71022615169
 20
3597.388020839476
 30
0.0
 10
-9170.817406109785
 20
3597.450399800503
 30
0.0
 10
-9170.920988956723
 20
3597.522774692867
 30
0.0
 10
-9171.020475827978
 20
3597.604247614689
 30
0.0
 10
-9171.110693127423
 20
3597.694837300224
 30
0.0
 10
-9171.190975259859
 20
3597.790842474311
 30
0.0
 10
-9171.258720493246
 20
3597.892468957459
 30
0.0
 10
-9171.314406393374
 20
3597.999127441369
 30
0.0
 10
-9171.358092198969
 20
3598.11040990583
 30
0.0
 10
-9171.38796114049
 20
3598.226651502815
 30
0.0
 10
-9171.407413128582
 20
3598.347630380395
 30
0.0
 10
-9171.409336816738
 20
3598.4302777555
 30
0.0
 10
-9171.41031169994
 20
3598.472161642536
 30
0.0
  0
SPLINE
  5
CD
330
1F
100
AcDbEntity
  8
0
  6
Continuous
 62
     7
370
    25
100
AcDbSpline
210
0.0
220
0.0
230
1.0
 70
     8
 71
     3
 72
    23
 73
    19
 74
     0
 42
0.000000001
 43
0.00000001
 40
0.0
 40
0.0
 40
0.0
 40
0.0
 40
0.0636946562228197
 40
0.1251032544639267
 40
0.1859753988458882
 40
0.2460382127668198
 40
0.3066503712076461
 40
0.3682508365161953
 40
0.4310095427700053
 40
0.4968293199522547
 40
0.5629069775515014
 40
0.626808364496957
 40
0.6895808951679967
 40
0.7512601910859643
 40
0.812739398294
 40
0.8738988044786035
 40
0.9363053437771803
 40
0.9999999999999999
 40
0.9999999999999999
 40
0.9999999999999999
 40
0.9999999999999999
 10
-9171.41031169994
 20
3601.531072115509
 30
0.0
 10
-9171.409371688685
 20
3601.572961783673
 30
0.0
 10
-9171.40752540402
 20
3601.655237662475
 30
0.0
 10
-9171.3876534792
 20
3601.776132129768
 30
0.0
 10
-9171.358282744224
 20
3601.892473642645
 30
0.0
 10
-9171.314685823674
 20
3602.003874083177
 30
0.0
 10
-9171.258373669627
 20
3602.109807418662
 30
0.0
 10
-9171.191006853483
 20
3602.21123988509
 30
0.0
 10
-9171.110728312955
 20
3602.307281216927
 30
0.0
 10
-9171.020116570275
 20
3602.397794429654
 30
0.0
 10
-9170.921289327749
 20
3602.480369220526
 30
0.0
 10
-9170.817593587619
 20
3602.553519753469
 30
0.0
 10
-9170.70884815085
 20
3602.612859775407
 30
0.0
 10
-9170.59855086279
 20
3602.665884810843
 30
0.0
 10
-9170.482988373402
 20
3602.703024440229
 30
0.0
 10
-9170.364754987771
 20
3602.731852887389
 30
0.0
 10
-9170.242471099351
 20
3602.747993866687
 30
0.0
 10
-9170.159615984785
 20
3602.750401011958
 30
0.0
 10
-9170.117765247236
 20
3602.751616879023
 30
0.0
  0
SPLINE
  5
CE
330
1F
100
AcDbEntity
  8
0
  6
Continuous
 62
     7
370
    25
100
AcDbSpline
210
0.0
220
0.0
230
1.0
 70
     8
 71
     3
 72
    15
 73
    11
 74
     0
 42
0.000000001
 43
0.00000001
 40
0.0
 40
0.0
 40
0.0
 40
0.0
 40
0.1349177303379207
 40
0.255028744557067
 40
0.3662847551474379
 40
0.4742189394178142
 40
0.5873325155521086
 40
0.7080066021142405
 40
0.8451209622209496
 40
1.0
 40
1.0
 40
1.0
 40
1.0
 10
-9168.818250889128
 20
3602.454319581725
 30
0.0
 10
-9168.819457674123
 20
3602.431023876033
 30
0.0
 10
-9168.821738803972
 20
3602.386989081189
 30
0.0
 10
-9168.836234389177
 20
3602.32481189362
 30
0.0
 10
-9168.863645665297
 20
3602.272348000404
 30
0.0
 10
-9168.90197159922
 20
3602.228731686242
 30
0.0
 10
-9168.952100670156
 20
3602.196426365646
 30
0.0
 10
-9169.012005529059
 20
3602.172806476459
 30
0.0
 10
-9169.08244045813
 20
3602.159310595522
 30
0.0
 10
-9169.132908834918
 20
3602.157815377472
 30
0.0
 10
-9169.159678253993
 20
3602.157022284428
 30
0.0
  0
SPLINE
  5
CF
330
1F
100
AcDbEntity
  8
0
  6
Continuous
 62
     7
370
    25
100
AcDbSpline
210
0.0
220
0.0
230
1.0
 70
     8
 71
     3
 72
    15
 73
    11
 74
     0
 42
0.000000001
 43
0.00000001
 40
0.0
 40
0.0
 40
0.0
 40
0.0
 40
0.1409979526999684
 40
0.2715745442824399
 40
0.3983312247206621
 40
0.5264808775378848
 40
0.6531757505703869
 40
0.7702583733694578
 40
0.8851746440773913
 40
1.0
 40
1.0
 40
1.0
 40
1.0
 10
-9170.74139278102
 20
3598.515130392537
 30
0.0
 10
-9170.73947189446
 20
3598.467262387856
 30
0.0
 10
-9170.735772096827
 20
3598.375064371447
 30
0.0
 10
-9170.698510640203
 20
3598.243979246509
 30
0.0
 10
-9170.637000123941
 20
3598.127718155969
 30
0.0
 10
-9170.55290883611
 20
3598.028344215402
 30
0.0
 10
-9170.45471451381
 20
3597.948201823381
 30
0.0
 10
-9170.34762270601
 20
3597.889640353502
 30
0.0
 10
-9170.23472770828
 20
3597.852841450968
 30
0.0
 10
-9170.156742447312
 20
3597.848420882956
 30
0.0
 10
-9170.117765247236
 20
3597.846211473617
 30
0.0
  0
SPLINE
  5
D1
330
1F
100
AcDbEntity
  8
0
  6
Continuous
 62
     7
370
    25
100
AcDbSpline
210
0.0
220
0.0
230
1.0
 70
     8
 71
     3
 72
    15
 73
    11
 74
     0
 42
0.000000001
 43
0.00000001
 40
0.0
 40
0.0
 40
0.0
 40
0.0
 40
0.1548790377790571
 40
0.291993397885772
 40
0.412667484447909
 40
0.5257810605822082
 40
0.6337152448525892
 40
0.7449712554429648
 40
0.8650822696621163
 40
1.0
 40
1.0
 40
1.0
 40
1.0
 10
-9169.159678253993
 20
3597.846211473617
 30
0.0
 10
-9169.132908834918
 20
3597.845418380573
 30
0.0
 10
-9169.08244045813
 20
3597.843923162523
 30
0.0
 10
-9169.012005529059
 20
3597.830427281586
 30
0.0
 10
-9168.952100670156
 20
3597.8068073924
 30
0.0
 10
-9168.90197159922
 20
3597.774502071803
 30
0.0
 10
-9168.863645665297
 20
3597.730885757641
 30
0.0
 10
-9168.836234389177
 20
3597.678421864425
 30
0.0
 10
-9168.821738803974
 20
3597.616244676857
 30
0.0
 10
-9168.819457674123
 20
3597.572209882012
 30
0.0
 10
-9168.818250889128
 20
3597.54891417632
 30
0.0
  0
SPLINE
  5
D2
330
1F
100
AcDbEntity
  8
0
  6
Continuous
 62
     7
370
    25
100
AcDbSpline
210
0.0
220
0.0
230
1.0
 70
     8
 71
     3
 72
    15
 73
    11
 74
     0
 42
0.000000001
 43
0.00000001
 40
0.0
 40
0.0
 40
0.0
 40
0.0
 40
0.1349177303379207
 40
0.255028744557067
 40
0.3662847551474379
 40
0.4742189394178142
 40
0.5873325155521086
 40
0.7080066021142405
 40
0.8451209622209496
 40
1.0
 40
1.0
 40
1.0
 40
1.0
 10
-9168.818250889128
 20
3597.54891417632
 30
0.0
 10
-9168.819457674123
 20
3597.525618470628
 30
0.0
 10
-9168.821738803972
 20
3597.481583675783
 30
0.0
 10
-9168.836234389177
 20
3597.419406488215
 30
0.0
 10
-9168.863645665297
 20
3597.366942594998
 30
0.0
 10
-9168.90197159922
 20
3597.323326280836
 30
0.0
 10
-9168.952100670156
 20
3597.291020960241
 30
0.0
 10
-9169.012005529059
 20
3597.267401071054
 30
0.0
 10
-9169.08244045813
 20
3597.253905190117
 30
0.0
 10
-9169.132908834918
 20
3597.252409972067
 30
0.0
 10
-9169.159678253993
 20
3597.251616879023
 30
0.0
  0
CIRCLE
  5
D3
330
1F
100
AcDbEntity
  8
0
  6
Continuous
 62
     7
370
    25
100
AcDbCircle
 10
-9173.5886509709
 20
3606.0550065377
 30
0.0
 40
1.499999999999091
  0
CIRCLE
  5
D4
330
1F
100
AcDbEntity
  8
0
  6
Continuous
 62
     7
370
    25
100
AcDbCircle
 10
-9173.5886509709
 20
3606.0550065377
 30
0.0
 40
0.75
  0
SPLINE
  5
D5
330
1F
100
AcDbEntity
  8
0
  6
Continuous
 62
     7
370
    25
100
AcDbSpline
210
0.0
220
0.0
230
1.0
 70
     8
 71
     3
 72
    15
 73
    11
 74
     0
 42
0.000000001
 43
0.00000001
 40
0.0
 40
0.0
 40
0.0
 40
0.0
 40
0.1535989970091724
 40
0.2888570630728165
 40
0.4102877322894423
 40
0.5222412776216148
 40
0.6308521699903217
 40
0.7428057153225254
 40
0.8642363845391594
 40
1.0
 40
1.0
 40
1.0
 40
1.0
 10
-9164.825176564802
 20
3597.325941203347
 30
0.0
 10
-9164.848439123509
 20
3597.326955258824
 30
0.0
 10
-9164.892186508045
 20
3597.328862283561
 30
0.0
 10
-9164.953778911733
 20
3597.33962396578
 30
0.0
 10
-9165.005961545488
 20
3597.360739636204
 30
0.0
 10
-9165.049170536035
 20
3597.390185333846
 30
0.0
 10
-9165.082736401057
 20
3597.428547261006
 30
0.0
 10
-9165.106180093904
 20
3597.475272108283
 30
0.0
 10
-9165.120228187105
 20
3597.529917211231
 30
0.0
 10
-9165.12169800047
 20
3597.568954113859
 30
0.0
 10
-9165.1224738621
 20
3597.589560291185
 30
0.0
  0
SPLINE
  5
D6
330
1F
100
AcDbEntity
  8
0
  6
Continuous
 62
     7
370
    25
100
AcDbSpline
210
0.0
220
0.0
230
1.0
 70
     8
 71
     3
 72
    15
 73
    11
 74
     0
 42
0.000000001
 43
0.00000001
 40
0.0
 40
0.0
 40
0.0
 40
0.0
 40
0.1192175102583051
 40
0.2297017703973285
 40
0.3334438581370603
 40
0.4396463856239682
 40
0.5549287995728932
 40
0.684526620281141
 40
0.831803027372872
 40
1.0
 40
1.0
 40
1.0
 40
1.0
 10
-9164.45355494318
 20
3597.590721608752
 30
0.0
 10
-9164.454588899842
 20
3597.570080744922
 30
0.0
 10
-9164.456581070914
 20
3597.53031105879
 30
0.0
 10
-9164.474048666274
 20
3597.47458866454
 30
0.0
 10
-9164.504215136678
 20
3597.427383838176
 30
0.0
 10
-9164.546447981085
 20
3597.389319491382
 30
0.0
 10
-9164.600252456145
 20
3597.360322193966
 30
0.0
 10
-9164.665128337367
 20
3597.339485130984
 30
0.0
 10
-9164.741607742362
 20
3597.328860877624
 30
0.0
 10
-9164.79611540182
 20
3597.326956523744
 30
0.0
 10
-9164.825176564802
 20
3597.325941203347
 30
0.0
  0
SPLINE
  5
D8
330
1F
100
AcDbEntity
  8
0
  6
Continuous
 62
     7
370
    25
100
AcDbSpline
210
0.0
220
0.0
230
1.0
 70
     8
 71
     3
 72
    23
 73
    19
 74
     0
 42
0.000000001
 43
0.00000001
 40
0.0
 40
0.0
 40
0.0
 40
0.0
 40
0.0334262020353489
 40
0.0709252559820544
 40
0.111863414487835
 40
0.1569064398987433
 40
0.2059791538484666
 40
0.2585999398510842
 40
0.3152602697149449
 40
0.3757213361297257
 40
0.4399866657894109
 40
0.508397480318898
 40
0.5806187561822771
 40
0.6566525006817014
 40
0.7367390392849408
 40
0.8206408278564844
 40
0.9083591900053845
 40
1.0
 40
1.0
 40
1.0
 40
1.0
 10
-9165.1224738621
 20
3601.58797667632
 30
0.0
 10
-9165.135725766197
 20
3601.539887868446
 30
0.0
 10
-9165.163844267045
 20
3601.437850819645
 30
0.0
 10
-9165.214515488298
 20
3601.278785705827
 30
0.0
 10
-9165.271130505842
 20
3601.103446499757
 30
0.0
 10
-9165.337990414973
 20
3600.913325584155
 30
0.0
 10
-9165.411728618623
 20
3600.707162984464
 30
0.0
 10
-9165.494882268475
 20
3600.485983970955
 30
0.0
 10
-9165.585175811715
 20
3600.24934544661
 30
0.0
 10
-9165.68406510293
 20
3599.997399852302
 30
0.0
 10
-9165.790927987862
 20
3599.729753859153
 30
0.0
 10
-9165.907166725123
 20
3599.44697295166
 30
0.0
 10
-9166.031363399969
 20
3599.1484833266
 30
0.0
 10
-9166.164101607443
 20
3598.834684114951
 30
0.0
 10
-9166.304326172445
 20
3598.505128679795
 30
0.0
 10
-9166.453148567985
 20
3598.160289561086
 30
0.0
 10
-9166.609631391297
 20
3597.799977405895
 30
0.0
 10
-9166.71832970954
 20
3597.555415121588
 30
0.0
 10
-9166.773867443182
 20
3597.430459784428
 30
0.0
  0
SPLINE
  5
D9
330
1F
100
AcDbEntity
  8
0
  6
Continuous
 62
     7
370
    25
100
AcDbSpline
210
0.0
220
0.0
230
1.0
 70
     8
 71
     3
 72
    11
 73
     7
 74
     0
 42
0.000000001
 43
0.00000001
 40
0.0
 40
0.0
 40
0.0
 40
0.0
 40
0.2328090547617594
 40
0.4629430035604129
 40
0.7138780282479512
 40
1.0
 40
1.0
 40
1.0
 40
1.0
 10
-9166.773867443182
 20
3597.430459784428
 30
0.0
 10
-9166.792027380294
 20
3597.40306434794
 30
0.0
 10
-9166.828138586707
 20
3597.348588263819
 30
0.0
 10
-9166.91277079799
 20
3597.291278850986
 30
0.0
 10
-9167.01598449083
 20
3597.257282114881
 30
0.0
 10
-9167.091383663095
 20
3597.253586011516
 30
0.0
 10
-9167.131553253994
 20
3597.251616879023
 30
0.0
  0
SPLINE
  5
DA
330
1F
100
AcDbEntity
  8
0
  6
Continuous
 62
     7
370
    25
100
AcDbSpline
210
0.0
220
0.0
230
1.0
 70
     8
 71
     3
 72
    15
 73
    11
 74
     0
 42
0.000000001
 43
0.00000001
 40
0.0
 40
0.0
 40
0.0
 40
0.0
 40
0.1464537970122411
 40
0.2740558316442172
 40
0.3917684023118599
 40
0.4994269965368323
 40
0.6105024493604623
 40
0.7260022282037164
 40
0.8559762080598676
 40
1.0
 40
1.0
 40
1.0
 40
1.0
 10
-9167.131553253994
 20
3597.251616879023
 30
0.0
 10
-9167.154867272662
 20
3597.252345747415
 30
0.0
 10
-9167.198494292963
 20
3597.253709663116
 30
0.0
 10
-9167.259543492462
 20
3597.267966815284
 30
0.0
 10
-9167.31122315126
 20
3597.290763482629
 30
0.0
 10
-9167.35425728596
 20
3597.323500267015
 30
0.0
 10
-9167.386811074211
 20
3597.366190249869
 30
0.0
 10
-9167.410671153795
 20
3597.418030531535
 30
0.0
 10
-9167.424152630436
 20
3597.478946645529
 30
0.0
 10
-9167.425709542928
 20
3597.522524187545
 30
0.0
 10
-9167.426527916154
 20
3597.545430223618
 30
0.0
  0
SPLINE
  5
DC
330
1F
100
AcDbEntity
  8
0
  6
Continuous
 62
     7
370
    25
100
AcDbSpline
210
0.0
220
0.0
230
1.0
 70
     8
 71
     3
 72
    15
 73
    11
 74
     0
 42
0.000000001
 43
0.00000001
 40
0.0
 40
0.0
 40
0.0
 40
0.0
 40
0.1675680039011528
 40
0.3142936742422981
 40
0.4434068668690795
 40
0.5582581848718569
 40
0.6655816592802056
 40
0.768935805859425
 40
0.8790069126387433
 40
1.0
 40
1.0
 40
1.0
 40
1.0
 10
-9167.129230618859
 20
3602.825941203348
 30
0.0
 10
-9167.100171772747
 20
3602.824923416665
 30
0.0
 10
-9167.045668458863
 20
3602.823014436975
 30
0.0
 10
-9166.969160687757
 20
3602.812420378997
 30
0.0
 10
-9166.90437409783
 20
3602.79148826652
 30
0.0
 10
-9166.850052157797
 20
3602.76266736435
 30
0.0
 10
-9166.808630521748
 20
3602.723329072786
 30
0.0
 10
-9166.778041856704
 20
3602.676197950437
 30
0.0
 10
-9166.76053450189
 20
3602.620017741041
 30
0.0
 10
-9166.758614418395
 20
3602.579864019799
 30
0.0
 10
-9166.757608997235
 20
3602.558838162806
 30
0.0
  0
SPLINE
  5
DE
330
1F
100
AcDbEntity
  8
0
  6
Continuous
 62
     7
370
    25
100
AcDbSpline
210
0.0
220
0.0
230
1.0
 70
     8
 71
     3
 72
    23
 73
    19
 74
     0
 42
0.000000001
 43
0.00000001
 40
0.0
 40
0.0
 40
0.0
 40
0.0
 40
0.0333964054255458
 40
0.0706152794128589
 40
0.1118491904857254
 40
0.1568612779401171
 40
0.205660407530232
 40
0.2582535298716217
 40
0.3149813657476662
 40
0.3755144664321963
 40
0.4397603508375937
 40
0.5082526710923371
 40
0.5804605573355246
 40
0.6565848896394064
 40
0.7364261993995953
 40
0.820427949887616
 40
0.908354848678849
 40
1.0
 40
1.0
 40
1.0
 40
1.0
 10
-9166.757608997235
 20
3598.489581406049
 30
0.0
 10
-9166.744768957615
 20
3598.537675014122
 30
0.0
 10
-9166.717619239738
 20
3598.639366903677
 30
0.0
 10
-9166.66778468982
 20
3598.798474299286
 30
0.0
 10
-9166.61120334089
 20
3598.973562950816
 30
0.0
 10
-9166.545954951014
 20
3599.163972468167
 30
0.0
 10
-9166.47268176588
 20
3599.369499743904
 30
0.0
 10
-9166.391302527785
 20
3599.59066557834
 30
0.0
 10
-9166.300693819368
 20
3599.827046369623
 30
0.0
 10
-9166.201545970793
 20
3600.078730979309
 30
0.0
 10
-9166.096540716155
 20
3600.346964856959
 30
0.0
 10
-9165.979476816088
 20
3600.629096346669
 30
0.0
 10
-9165.857252092399
 20
3600.928240874746
 30
0.0
 10
-9165.724017148365
 20
3601.241123084925
 30
0.0
 10
-9165.58500274957
 20
3601.570637839501
 30
0.0
 10
-9165.436484807546
 20
3601.915229972955
 30
0.0
 10
-9165.278126792762
 20
3602.274718635795
 30
0.0
 10
-9165.170456052228
 20
3602.519732221392
 30
0.0
 10
-9165.115505956695
 20
3602.644775662807
 30
0.0
  0
SPLINE
  5
DF
330
1F
100
AcDbEntity
  8
0
  6
Continuous
 62
     7
370
    25
100
AcDbSpline
210
0.0
220
0.0
230
1.0
 70
     8
 71
     3
 72
    11
 73
     7
 74
     0
 42
0.000000001
 43
0.00000001
 40
0.0
 40
0.0
 40
0.0
 40
0.0
 40
0.2670118619316424
 40
0.5105832502388763
 40
0.7477324693014783
 40
1.0
 40
1.0
 40
1.0
 40
1.0
 10
-9165.115505956695
 20
3602.644775662807
 30
0.0
 10
-9165.09827436731
 20
3602.67218592722
 30
0.0
 10
-9165.06532391765
 20
3602.724600160029
 30
0.0
 10
-9164.99538986629
 20
3602.783895683748
 30
0.0
 10
-9164.912681899095
 20
3602.819718937317
 30
0.0
 10
-9164.853406929955
 20
3602.823824836952
 30
0.0
 10
-9164.822853929669
 20
3602.825941203348
 30
0.0
  0
SPLINE
  5
E0
330
1F
100
AcDbEntity
  8
0
  6
Continuous
 62
     7
370
    25
100
AcDbSpline
210
0.0
220
0.0
230
1.0
 70
     8
 71
     3
 72
    15
 73
    11
 74
     0
 42
0.000000001
 43
0.00000001
 40
0.0
 40
0.0
 40
0.0
 40
0.0
 40
0.1624566800598812
 40
0.3033020102420186
 40
0.4291664366098492
 40
0.543806229701444
 40
0.6493516081968895
 40
0.7569385026546225
 40
0.8719246710993152
 40
1.0
 40
1.0
 40
1.0
 40
1.0
 10
-9164.822853929669
 20
3602.825941203348
 30
0.0
 10
-9164.793736076503
 20
3602.825254231404
 30
0.0
 10
-9164.73937387117
 20
3602.823971674286
 30
0.0
 10
-9164.663708804881
 20
3602.809410761984
 30
0.0
 10
-9164.59833649039
 20
3602.788564253386
 30
0.0
 10
-9164.545036010266
 20
3602.755696183981
 30
0.0
 10
-9164.503687418997
 20
3602.713283576705
 30
0.0
 10
-9164.474029913035
 20
3602.661939041413
 30
0.0
 10
-9164.456377994162
 20
3602.600990778848
 30
0.0
 10
-9164.454529147726
 20
3602.557412830899
 30
0.0
 10
-9164.45355494318
 20
3602.534450493888
 30
0.0
  0
SPLINE
  5
E2
330
1F
100
AcDbEntity
  8
0
  6
Continuous
 62
     7
370
    25
100
AcDbSpline
210
0.0
220
0.0
230
1.0
 70
     8
 71
     3
 72
    15
 73
    11
 74
     0
 42
0.000000001
 43
0.00000001
 40
0.0
 40
0.0
 40
0.0
 40
0.0
 40
0.1373554302530759
 40
0.2604035025254486
 40
0.3715837235510083
 40
0.4813661282244338
 40
0.5925463492499625
 40
0.7131382304871758
 40
0.8474619951861994
 40
1.0
 40
1.0
 40
1.0
 40
1.0
 10
-9167.426527916154
 20
3602.558838162806
 30
0.0
 10
-9167.42572705028
 20
3602.579817064928
 30
0.0
 10
-9167.424208739149
 20
3602.619589643132
 30
0.0
 10
-9167.410540064107
 20
3602.675186438082
 30
0.0
 10
-9167.38640820529
 20
3602.722235900254
 30
0.0
 10
-9167.353670538158
 20
3602.761698488137
 30
0.0
 10
-9167.309956433615
 20
3602.791093422594
 30
0.0
 10
-9167.257851289205
 20
3602.812273723732
 30
0.0
 10
-9167.196235016772
 20
3602.823015498004
 30
0.0
 10
-9167.152491252498
 20
3602.824925542252
 30
0.0
 10
-9167.129230618859
 20
3602.825941203348
 30
0.0
  0
SPLINE
  5
F2
330
1F
100
AcDbEntity
  8
0
  6
Continuous
 62
     7
370
    25
100
AcDbSpline
210
0.0
220
0.0
230
1.0
 70
     8
 71
     3
 72
     8
 73
     4
 74
     0
 42
0.000000001
 43
0.00000001
 40
0.1044176706827309
 40
0.1044176706827309
 40
0.1044176706827309
 40
0.1044176706827309
 40
0.108433734939759
 40
0.108433734939759
 40
0.108433734939759
 40
0.108433734939759
 10
-9202.076065678202
 20
3573.471132371997
 30
0.0
 10
-9201.491527011536
 20
3573.514143038663
 30
0.0
 10
-9200.777787011537
 20
3573.795109371997
 30
0.0
 10
-9199.934845678203
 20
3574.314031371997
 30
0.0
  0
SPLINE
  5
F3
330
1F
100
AcDbEntity
  8
0
  6
Continuous
 62
     7
370
    25
100
AcDbSpline
210
0.0
220
0.0
230
1.0
 70
     8
 71
     3
 72
     8
 73
     4
 74
     0
 42
0.000000001
 43
0.00000001
 40
0.1004016064257028
 40
0.1004016064257028
 40
0.1004016064257028
 40
0.1004016064257028
 40
0.1044176706827309
 40
0.1044176706827309
 40
0.1044176706827309
 40
0.1044176706827309
 10
-9205.124192678204
 20
3574.476718371997
 30
0.0
 10
-9203.654718011534
 20
3573.74155770533
 30
0.0
 10
-9202.638675678201
 20
3573.406362371996
 30
0.0
 10
-9202.076065678202
 20
3573.471132371997
 30
0.0
  0
SPLINE
  5
1D9
330
1F
100
AcDbEntity
  8
0
  6
Continuous
 62
     7
370
    25
100
AcDbSpline
210
0.0
220
0.0
230
1.0
 70
     8
 71
     3
 72
     8
 73
     4
 74
     0
 42
0.000000001
 43
0.00000001
 40
0.1726907630522088
 40
0.1726907630522088
 40
0.1726907630522088
 40
0.1726907630522088
 40
0.176706827309237
 40
0.176706827309237
 40
0.176706827309237
 40
0.176706827309237
 10
-9181.828201678203
 20
3582.523311371997
 30
0.0
 10
-9181.957403011536
 20
3581.83158470533
 30
0.0
 10
-9181.362958344871
 20
3582.080674038664
 30
0.0
 10
-9180.044867678203
 20
3583.270579371997
 30
0.0
  0
SPLINE
  5
1DA
330
1F
100
AcDbEntity
  8
0
  6
Continuous
 62
     7
370
    25
100
AcDbSpline
210
0.0
220
0.0
230
1.0
 70
     8
 71
     3
 72
     8
 73
     4
 74
     0
 42
0.000000001
 43
0.00000001
 40
0.1686746987951807
 40
0.1686746987951807
 40
0.1686746987951807
 40
0.1686746987951807
 40
0.1726907630522088
 40
0.1726907630522088
 40
0.1726907630522088
 40
0.1726907630522088
 10
-9182.964089678202
 20
3581.323415371997
 30
0.0
 10
-9182.098627011535
 20
3582.794498705331
 30
0.0
 10
-9181.719997678203
 20
3583.194464038664
 30
0.0
 10
-9181.828201678203
 20
3582.523311371997
 30
0.0
  0
LINE
  5
1DB
330
1F
100
AcDbEntity
  8
0
  6
Continuous
 62
     7
370
    25
100
AcDbLine
 10
-9186.6556241999
 20
3597.251616879
 30
0.0
 11
-9188.6089603486
 21
3597.251616879
 31
0.0
  0
LINE
  5
1DC
330
1F
100
AcDbEntity
  8
0
  6
Continuous
 62
     7
370
    25
100
AcDbLine
 10
-9188.9062576459
 20
3597.517558602
 30
0.0
 11
-9188.9062576459
 21
3602.4856751561
 31
0.0
  0
LINE
  5
1DD
330
1F
100
AcDbEntity
  8
0
  6
Continuous
 62
     7
370
    25
100
AcDbLine
 10
-9188.6089603486
 20
3602.751616879
 30
0.0
 11
-9186.6556241999
 21
3602.751616879
 31
0.0
  0
LINE
  5
1DE
330
1F
100
AcDbEntity
  8
0
  6
Continuous
 62
     7
370
    25
100
AcDbLine
 10
-9186.6556241999
 20
3602.1570222844
 30
0.0
 11
-9188.237338727
 21
3602.1570222844
 31
0.0
  0
LINE
  5
1DF
330
1F
100
AcDbEntity
  8
0
  6
Continuous
 62
     7
370
    25
100
AcDbLine
 10
-9188.237338727
 20
3602.1570222844
 30
0.0
 11
-9188.237338727
 21
3600.5218871493
 31
0.0
  0
LINE
  5
1E0
330
1F
100
AcDbEntity
  8
0
  6
Continuous
 62
     7
370
    25
100
AcDbLine
 10
-9188.237338727
 20
3600.5218871493
 30
0.0
 11
-9187.4244164297
 21
3600.5218871493
 31
0.0
  0
LINE
  5
1E1
330
1F
100
AcDbEntity
  8
0
  6
Continuous
 62
     7
370
    25
100
AcDbLine
 10
-9187.4244164297
 20
3599.9272925547
 30
0.0
 11
-9188.237338727
 21
3599.9272925547
 31
0.0
  0
LINE
  5
1E2
330
1F
100
AcDbEntity
  8
0
  6
Continuous
 62
     7
370
    25
100
AcDbLine
 10
-9188.237338727
 20
3599.9272925547
 30
0.0
 11
-9188.237338727
 21
3597.8462114736
 31
0.0
  0
LINE
  5
1E3
330
1F
100
AcDbEntity
  8
0
  6
Continuous
 62
     7
370
    25
100
AcDbLine
 10
-9188.237338727
 20
3597.8462114736
 30
0.0
 11
-9186.6556241999
 21
3597.8462114736
 31
0.0
  0
LINE
  5
1E4
330
1F
100
AcDbEntity
  8
0
  6
Continuous
 62
     7
370
    25
100
AcDbLine
 10
-9182.618419808
 20
3600.7901515074
 30
0.0
 11
-9182.618419808
 21
3601.513652352
 31
0.0
  0
LINE
  5
1E5
330
1F
100
AcDbEntity
  8
0
  6
Continuous
 62
     7
370
    25
100
AcDbLine
 10
-9183.2896613621
 20
3602.1570222844
 30
0.0
 11
-9184.2535549432
 21
3602.1570222844
 31
0.0
  0
LINE
  5
1E6
330
1F
100
AcDbEntity
  8
0
  6
Continuous
 62
     7
370
    25
100
AcDbLine
 10
-9184.2535549432
 20
3602.1570222844
 30
0.0
 11
-9184.2535549432
 21
3600.1502655277
 31
0.0
  0
LINE
  5
1E7
330
1F
100
AcDbEntity
  8
0
  6
Continuous
 62
     7
370
    25
100
AcDbLine
 10
-9184.2535549432
 20
3600.1502655277
 30
0.0
 11
-9183.2896613621
 21
3600.1502655277
 31
0.0
  0
LINE
  5
1E8
330
1F
100
AcDbEntity
  8
0
  6
Continuous
 62
     7
370
    25
100
AcDbLine
 10
-9184.2535549432
 20
3599.5556709331
 30
0.0
 11
-9184.2535549432
 21
3597.517558602
 31
0.0
  0
LINE
  5
1E9
330
1F
100
AcDbEntity
  8
0
  6
Continuous
 62
     7
370
    25
100
AcDbLine
 10
-9184.9224738621
 20
3597.517558602
 30
0.0
 11
-9184.9224738621
 21
3602.4856751561
 31
0.0
  0
LINE
  5
1EA
330
1F
100
AcDbEntity
  8
0
  6
Continuous
 62
     7
370
    25
100
AcDbLine
 10
-9184.6518868689
 20
3602.751616879
 30
0.0
 11
-9183.279209504
 21
3602.751616879
 31
0.0
  0
LINE
  5
1EB
330
1F
100
AcDbEntity
  8
0
  6
Continuous
 62
     7
370
    25
100
AcDbLine
 10
-9181.9495008891
 20
3601.5357173858
 30
0.0
 11
-9181.9495008891
 21
3600.7680864736
 31
0.0
  0
LINE
  5
1EC
330
1F
100
AcDbEntity
  8
0
  6
Continuous
 62
     7
370
    25
100
AcDbLine
 10
-9183.2524991999
 20
3599.5556709331
 30
0.0
 11
-9184.2535549432
 21
3599.5556709331
 31
0.0
  0
LINE
  5
1ED
330
1F
100
AcDbEntity
  8
0
  6
Continuous
 62
     7
370
    25
100
AcDbLine
 10
-9179.8981495378
 20
3599.3884412033
 30
0.0
 11
-9179.8981495378
 21
3597.5198812371
 31
0.0
  0
LINE
  5
1EE
330
1F
100
AcDbEntity
  8
0
  6
Continuous
 62
     7
370
    25
100
AcDbLine
 10
-9180.5670684567
 20
3597.517558602
 30
0.0
 11
-9180.5670684567
 21
3602.4856751561
 31
0.0
  0
LINE
  5
1EF
330
1F
100
AcDbEntity
  8
0
  6
Continuous
 62
     7
370
    25
100
AcDbLine
 10
-9179.8981495378
 20
3602.4891591088
 30
0.0
 11
-9179.8981495378
 21
3600.1154260006
 31
0.0
  0
LINE
  5
1F0
330
1F
100
AcDbEntity
  8
0
  6
Continuous
 62
     7
370
    25
100
AcDbLine
 10
-9179.8981495378
 20
3600.1154260006
 30
0.0
 11
-9178.1433986932
 21
3602.7132933993
 31
0.0
  0
LINE
  5
1F1
330
1F
100
AcDbEntity
  8
0
  6
Continuous
 62
     7
370
    25
100
AcDbLine
 10
-9177.633580281
 20
3602.4218026898
 30
0.0
 11
-9178.9946444702
 21
3600.603179379
 31
0.0
  0
LINE
  5
1F2
330
1F
100
AcDbEntity
  8
0
  6
Continuous
 62
     7
370
    25
100
AcDbLine
 10
-9178.9946444702
 20
3600.603179379
 30
0.0
 11
-9177.6196444702
 21
3597.6302064061
 31
0.0
  0
LINE
  5
1F3
330
1F
100
AcDbEntity
  8
0
  6
Continuous
 62
     7
370
    25
100
AcDbLine
 10
-9178.1747542675
 20
3597.5082680615
 30
0.0
 11
-9179.3976216662
 21
3600.1827824196
 31
0.0
  0
LINE
  5
1F4
330
1F
100
AcDbEntity
  8
0
  6
Continuous
 62
     7
370
    25
100
AcDbLine
 10
-9179.3976216662
 20
3600.1827824196
 30
0.0
 11
-9179.8981495378
 21
3599.3884412033
 31
0.0
  0
LINE
  5
1F5
330
1F
100
AcDbEntity
  8
0
  6
Continuous
 62
     7
370
    25
100
AcDbLine
 10
-9174.5579468351
 20
3601.7192055615
 30
0.0
 11
-9175.1258311256
 21
3599.3326979601
 31
0.0
  0
LINE
  5
1F6
330
1F
100
AcDbEntity
  8
0
  6
Continuous
 62
     7
370
    25
100
AcDbLine
 10
-9175.1258311256
 20
3599.3326979601
 30
0.0
 11
-9173.9865785918
 21
3599.3326979601
 31
0.0
  0
LINE
  5
1F7
330
1F
100
AcDbEntity
  8
0
  6
Continuous
 62
     7
370
    25
100
AcDbLine
 10
-9173.9865785918
 20
3599.3326979601
 30
0.0
 11
-9174.5579468351
 21
3601.7192055615
 31
0.0
  0
LINE
  5
1F8
330
1F
100
AcDbEntity
  8
0
  6
Continuous
 62
     7
370
    25
100
AcDbLine
 10
-9175.2512534229
 20
3598.7381033655
 30
0.0
 11
-9175.613584504
 21
3597.4420729601
 31
0.0
  0
LINE
  5
1F9
330
1F
100
AcDbEntity
  8
0
  6
Continuous
 62
     7
370
    25
100
AcDbLine
 10
-9176.1965659229
 20
3597.5860763385
 30
0.0
 11
-9174.8494375445
 21
3602.5239986358
 31
0.0
  0
LINE
  5
1FA
330
1F
100
AcDbEntity
  8
0
  6
Continuous
 62
     7
370
    25
100
AcDbLine
 10
-9174.2664561256
 20
3602.5239986358
 30
0.0
 11
-9172.9204890648
 21
3597.5860763385
 31
0.0
  0
LINE
  5
1FB
330
1F
100
AcDbEntity
  8
0
  6
Continuous
 62
     7
370
    25
100
AcDbLine
 10
-9173.5034704837
 20
3597.4420729601
 30
0.0
 11
-9173.8658015648
 21
3598.7381033655
 31
0.0
  0
LINE
  5
1FC
330
1F
100
AcDbEntity
  8
0
  6
Continuous
 62
     7
370
    25
100
AcDbLine
 10
-9173.8658015648
 20
3598.7381033655
 30
0.0
 11
-9175.2512534229
 21
3598.7381033655
 31
0.0
  0
LINE
  5
1FD
330
1F
100
AcDbEntity
  8
0
  6
Continuous
 62
     7
370
    25
100
AcDbLine
 10
-9190.9576089972
 20
3597.517558602
 30
0.0
 11
-9190.9576089972
 21
3599.5556709331
 31
0.0
  0
LINE
  5
1FE
330
1F
100
AcDbEntity
  8
0
  6
Continuous
 62
     7
370
    25
100
AcDbLine
 10
-9190.9576089972
 20
3599.5556709331
 30
0.0
 11
-9192.0376343351
 21
3599.5556709331
 31
0.0
  0
LINE
  5
1FF
330
1F
100
AcDbEntity
  8
0
  6
Continuous
 62
     7
370
    25
100
AcDbLine
 10
-9193.2616630513
 20
3600.7704091088
 30
0.0
 11
-9193.2616630513
 21
3602.4868364736
 31
0.0
  0
LINE
  5
200
330
1F
100
AcDbEntity
  8
0
  6
Continuous
 62
     7
370
    25
100
AcDbLine
 10
-9192.5927441324
 20
3602.4914817439
 30
0.0
 11
-9192.5927441324
 21
3600.8168618115
 31
0.0
  0
LINE
  5
201
330
1F
100
AcDbEntity
  8
0
  6
Continuous
 62
     7
370
    25
100
AcDbLine
 10
-9190.9576089972
 20
3600.1502655277
 30
0.0
 11
-9190.9576089972
 21
3602.4914817439
 31
0.0
  0
LINE
  5
202
330
1F
100
AcDbEntity
  8
0
  6
Continuous
 62
     7
370
    25
100
AcDbLine
 10
-9190.2886900783
 20
3602.4856751561
 30
0.0
 11
-9190.2886900783
 21
3597.517558602
 31
0.0
  0
LINE
  5
203
330
1F
100
AcDbEntity
  8
0
  6
Continuous
 62
     7
370
    25
100
AcDbLine
 10
-9191.9993108553
 20
3600.1502655277
 30
0.0
 11
-9190.9576089972
 21
3600.1502655277
 31
0.0
  0
LINE
  5
204
330
1F
100
AcDbEntity
  8
0
  6
Continuous
 62
     7
370
    25
100
AcDbLine
 10
-9170.1177652472
 20
3602.751616879
 30
0.0
 11
-9169.159678254
 21
3602.751616879
 31
0.0
  0
LINE
  5
205
330
1F
100
AcDbEntity
  8
0
  6
Continuous
 62
     7
370
    25
100
AcDbLine
 10
-9169.159678254
 20
3602.1570222844
 30
0.0
 11
-9170.1177652472
 21
3602.1570222844
 31
0.0
  0
LINE
  5
206
330
1F
100
AcDbEntity
  8
0
  6
Continuous
 62
     7
370
    25
100
AcDbLine
 10
-9170.741392781
 20
3601.4881033655
 30
0.0
 11
-9170.741392781
 21
3598.5151303925
 31
0.0
  0
LINE
  5
207
330
1F
100
AcDbEntity
  8
0
  6
Continuous
 62
     7
370
    25
100
AcDbLine
 10
-9169.159678254
 20
3597.251616879
 30
0.0
 11
-9170.1177652472
 21
3597.251616879
 31
0.0
  0
LINE
  5
208
330
1F
100
AcDbEntity
  8
0
  6
Continuous
 62
     7
370
    25
100
AcDbLine
 10
-9171.4103116999
 20
3598.4721616425
 30
0.0
 11
-9171.4103116999
 21
3601.5310721155
 31
0.0
  0
LINE
  5
209
330
1F
100
AcDbEntity
  8
0
  6
Continuous
 62
     7
370
    25
100
AcDbLine
 10
-9170.1177652472
 20
3597.8462114736
 30
0.0
 11
-9169.159678254
 21
3597.8462114736
 31
0.0
  0
LINE
  5
20A
330
1F
100
AcDbEntity
  8
0
  6
Continuous
 62
     7
370
    25
100
AcDbLine
 10
-9165.1224738621
 20
3597.5895602912
 30
0.0
 11
-9165.1224738621
 21
3601.5879766763
 31
0.0
  0
LINE
  5
20B
330
1F
100
AcDbEntity
  8
0
  6
Continuous
 62
     7
370
    25
100
AcDbLine
 10
-9167.4265279162
 20
3597.5454302236
 30
0.0
 11
-9167.4265279162
 21
3602.5588381628
 31
0.0
  0
LINE
  5
20C
330
1F
100
AcDbEntity
  8
0
  6
Continuous
 62
     7
370
    25
100
AcDbLine
 10
-9166.7576089972
 20
3602.5588381628
 30
0.0
 11
-9166.7576089972
 21
3598.489581406
 31
0.0
  0
LINE
  5
20D
330
1F
100
AcDbEntity
  8
0
  6
Continuous
 62
     7
370
    25
100
AcDbLine
 10
-9164.4535549432
 20
3602.5344504939
 30
0.0
 11
-9164.4535549432
 21
3597.5907216088
 31
0.0
  0
LINE
  5
20E
330
1F
100
AcDbEntity
  8
0
  6
Continuous
 62
     7
370
    25
100
AcDbLine
 10
-9184.3922046782
 20
3581.582622372
 30
0.0
 11
-9182.9640896782
 21
3581.323415372
 31
0.0
  0
LINE
  5
20F
330
1F
100
AcDbEntity
  8
0
  6
Continuous
 62
     7
370
    25
100
AcDbLine
 10
-9185.4299216782
 20
3582.329255372
 30
0.0
 11
-9184.3922046782
 21
3581.582622372
 31
0.0
  0
LINE
  5
210
330
1F
100
AcDbEntity
  8
0
  6
Continuous
 62
     7
370
    25
100
AcDbLine
 10
-9186.8886436782
 20
3581.744928372
 30
0.0
 11
-9185.4299216782
 21
3582.329255372
 31
0.0
  0
LINE
  5
211
330
1F
100
AcDbEntity
  8
0
  6
Continuous
 62
     7
370
    25
100
AcDbLine
 10
-9187.6364196782
 20
3582.329255372
 30
0.0
 11
-9186.8886436782
 21
3581.744928372
 31
0.0
  0
LINE
  5
212
330
1F
100
AcDbEntity
  8
0
  6
Continuous
 62
     7
370
    25
100
AcDbLine
 10
-9188.8369506782
 20
3581.744928372
 30
0.0
 11
-9187.6364196782
 21
3582.329255372
 31
0.0
  0
LINE
  5
213
330
1F
100
AcDbEntity
  8
0
  6
Continuous
 62
     7
370
    25
100
AcDbLine
 10
-9188.4148026782
 20
3577.916767372
 30
0.0
 11
-9188.8369506782
 21
3581.744928372
 31
0.0
  0
LINE
  5
214
330
1F
100
AcDbEntity
  8
0
  6
Continuous
 62
     7
370
    25
100
AcDbLine
 10
-9189.6795956782
 20
3577.396829372
 30
0.0
 11
-9188.4148026782
 21
3577.916767372
 31
0.0
  0
LINE
  5
215
330
1F
100
AcDbEntity
  8
0
  6
Continuous
 62
     7
370
    25
100
AcDbLine
 10
-9189.7781476782
 20
3576.293834372
 30
0.0
 11
-9189.6795956782
 21
3577.396829372
 31
0.0
  0
LINE
  5
216
330
1F
100
AcDbEntity
  8
0
  6
Continuous
 62
     7
370
    25
100
AcDbLine
 10
-9192.6014846782
 20
3575.093049372
 30
0.0
 11
-9189.7781476782
 21
3576.293834372
 31
0.0
  0
LINE
  5
217
330
1F
100
AcDbEntity
  8
0
  6
Continuous
 62
     7
370
    25
100
AcDbLine
 10
-9192.5038216782
 20
3574.056729372
 30
0.0
 11
-9192.6014846782
 21
3575.093049372
 31
0.0
  0
LINE
  5
218
330
1F
100
AcDbEntity
  8
0
  6
Continuous
 62
     7
370
    25
100
AcDbLine
 10
-9193.8658966782
 20
3573.471132372
 30
0.0
 11
-9192.5038216782
 21
3574.056729372
 31
0.0
  0
LINE
  5
219
330
1F
100
AcDbEntity
  8
0
  6
Continuous
 62
     7
370
    25
100
AcDbLine
 10
-9195.1632016782
 20
3573.373977372
 30
0.0
 11
-9193.8658966782
 21
3573.471132372
 31
0.0
  0
LINE
  5
21A
330
1F
100
AcDbEntity
  8
0
  6
Continuous
 62
     7
370
    25
100
AcDbLine
 10
-9196.1060496782
 20
3574.314031372
 30
0.0
 11
-9195.1632016782
 21
3573.373977372
 31
0.0
  0
LINE
  5
21B
330
1F
100
AcDbEntity
  8
0
  6
Continuous
 62
     7
370
    25
100
AcDbLine
 10
-9198.1493526782
 20
3574.476718372
 30
0.0
 11
-9196.1060496782
 21
3574.314031372
 31
0.0
  0
LINE
  5
21C
330
1F
100
AcDbEntity
  8
0
  6
Continuous
 62
     7
370
    25
100
AcDbLine
 10
-9199.9348456782
 20
3574.314031372
 30
0.0
 11
-9198.1493526782
 21
3574.476718372
 31
0.0
  0
LINE
  5
21D
330
1F
100
AcDbEntity
  8
0
  6
Continuous
 62
     7
370
    25
100
AcDbLine
 10
-9207.4291156782
 20
3575.158454372
 30
0.0
 11
-9205.1241926782
 21
3574.476718372
 31
0.0
  0
LINE
  5
21E
330
1F
100
AcDbEntity
  8
0
  6
Continuous
 62
     7
370
    25
100
AcDbLine
 10
-9208.8891076782
 20
3574.671409372
 30
0.0
 11
-9207.4291156782
 21
3575.158454372
 31
0.0
  0
LINE
  5
21F
330
1F
100
AcDbEntity
  8
0
  6
Continuous
 62
     7
370
    25
100
AcDbLine
 10
-9210.8696726782
 20
3574.671409372
 30
0.0
 11
-9208.8891076782
 21
3574.671409372
 31
0.0
  0
LINE
  5
220
330
1F
100
AcDbEntity
  8
0
  6
Continuous
 62
     7
370
    25
100
AcDbLine
 10
-9213.8531566782
 20
3576.034373372
 30
0.0
 11
-9210.8696726782
 21
3574.671409372
 31
0.0
  0
LINE
  5
221
330
1F
100
AcDbEntity
  8
0
  6
Continuous
 62
     7
370
    25
100
AcDbLine
 10
-9217.3903606782
 20
3574.574254372
 30
0.0
 11
-9213.8531566782
 21
3576.034373372
 31
0.0
  0
LINE
  5
222
330
1F
100
AcDbEntity
  8
0
  6
Continuous
 62
     7
370
    25
100
AcDbLine
 10
-9217.9091556782
 20
3573.471132372
 30
0.0
 11
-9217.3903606782
 21
3574.574254372
 31
0.0
  0
LINE
  5
223
330
1F
100
AcDbEntity
  8
0
  6
Continuous
 62
     7
370
    25
100
AcDbLine
 10
-9217.3259716782
 20
3572.692114372
 30
0.0
 11
-9217.9091556782
 21
3573.471132372
 31
0.0
  0
LINE
  5
224
330
1F
100
AcDbEntity
  8
0
  6
Continuous
 62
     7
370
    25
100
AcDbLine
 10
-9218.0069456782
 20
3570.808958372
 30
0.0
 11
-9217.3259716782
 21
3572.692114372
 31
0.0
  0
LINE
  5
225
330
1F
100
AcDbEntity
  8
0
  6
Continuous
 62
     7
370
    25
100
AcDbLine
 10
-9219.3694016782
 20
3570.808958372
 30
0.0
 11
-9218.0069456782
 21
3570.808958372
 31
0.0
  0
LINE
  5
226
330
1F
100
AcDbEntity
  8
0
  6
Continuous
 62
     7
370
    25
100
AcDbLine
 10
-9220.6345756782
 20
3569.123160372
 30
0.0
 11
-9219.3694016782
 21
3570.808958372
 31
0.0
  0
LINE
  5
227
330
1F
100
AcDbEntity
  8
0
  6
Continuous
 62
     7
370
    25
100
AcDbLine
 10
-9218.5908916782
 20
3567.241401372
 30
0.0
 11
-9220.6345756782
 21
3569.123160372
 31
0.0
  0
LINE
  5
228
330
1F
100
AcDbEntity
  8
0
  6
Continuous
 62
     7
370
    25
100
AcDbLine
 10
-9219.0129126782
 20
3565.943715372
 30
0.0
 11
-9218.5908916782
 21
3567.241401372
 31
0.0
  0
LINE
  5
229
330
1F
100
AcDbEntity
  8
0
  6
Continuous
 62
     7
370
    25
100
AcDbLine
 10
-9221.6733086782
 20
3565.619484372
 30
0.0
 11
-9219.0129126782
 21
3565.943715372
 31
0.0
  0
LINE
  5
22A
330
1F
100
AcDbEntity
  8
0
  6
Continuous
 62
     7
370
    25
100
AcDbLine
 10
-9222.6132356782
 20
3566.624689372
 30
0.0
 11
-9221.6733086782
 21
3565.619484372
 31
0.0
  0
LINE
  5
22B
330
1F
100
AcDbEntity
  8
0
  6
Continuous
 62
     7
370
    25
100
AcDbLine
 10
-9224.7232136782
 20
3566.624689372
 30
0.0
 11
-9222.6132356782
 21
3566.624689372
 31
0.0
  0
LINE
  5
22C
330
1F
100
AcDbEntity
  8
0
  6
Continuous
 62
     7
370
    25
100
AcDbLine
 10
-9225.1454886782
 20
3564.514076372
 30
0.0
 11
-9224.7232136782
 21
3566.624689372
 31
0.0
  0
LINE
  5
22D
330
1F
100
AcDbEntity
  8
0
  6
Continuous
 62
     7
370
    25
100
AcDbLine
 10
-9228.0648376782
 20
3563.574657372
 30
0.0
 11
-9225.1454886782
 21
3564.514076372
 31
0.0
  0
LINE
  5
22E
330
1F
100
AcDbEntity
  8
0
  6
Continuous
 62
     7
370
    25
100
AcDbLine
 10
-9228.8437286782
 20
3562.276336372
 30
0.0
 11
-9228.0648376782
 21
3563.574657372
 31
0.0
  0
LINE
  5
22F
330
1F
100
AcDbEntity
  8
0
  6
Continuous
 62
     7
370
    25
100
AcDbLine
 10
-9230.1099186782
 20
3562.016875372
 30
0.0
 11
-9228.8437286782
 21
3562.276336372
 31
0.0
  0
LINE
  5
230
330
1F
100
AcDbEntity
  8
0
  6
Continuous
 62
     7
370
    25
100
AcDbLine
 10
-9231.8289906782
 20
3563.315196372
 30
0.0
 11
-9230.1099186782
 21
3562.016875372
 31
0.0
  0
LINE
  5
231
330
1F
100
AcDbEntity
  8
0
  6
Continuous
 62
     7
370
    25
100
AcDbLine
 10
-9234.1331516782
 20
3560.653911372
 30
0.0
 11
-9231.8289906782
 21
3563.315196372
 31
0.0
  0
LINE
  5
232
330
1F
100
AcDbEntity
  8
0
  6
Continuous
 62
     7
370
    25
100
AcDbLine
 10
-9235.3975636782
 20
3561.530338372
 30
0.0
 11
-9234.1331516782
 21
3560.653911372
 31
0.0
  0
LINE
  5
233
330
1F
100
AcDbEntity
  8
0
  6
Continuous
 62
     7
370
    25
100
AcDbLine
 10
-9235.6575326782
 20
3562.892159372
 30
0.0
 11
-9235.3975636782
 21
3561.530338372
 31
0.0
  0
LINE
  5
234
330
1F
100
AcDbEntity
  8
0
  6
Continuous
 62
     7
370
    25
100
AcDbLine
 10
-9236.3393956782
 20
3562.957310372
 30
0.0
 11
-9235.6575326782
 21
3562.892159372
 31
0.0
  0
LINE
  5
235
330
1F
100
AcDbEntity
  8
0
  6
Continuous
 62
     7
370
    25
100
AcDbLine
 10
-9237.0530086782
 20
3562.115046372
 30
0.0
 11
-9236.3393956782
 21
3562.957310372
 31
0.0
  0
LINE
  5
236
330
1F
100
AcDbEntity
  8
0
  6
Continuous
 62
     7
370
    25
100
AcDbLine
 10
-9237.7990066782
 20
3562.633079372
 30
0.0
 11
-9237.0530086782
 21
3562.115046372
 31
0.0
  0
LINE
  5
237
330
1F
100
AcDbEntity
  8
0
  6
Continuous
 62
     7
370
    25
100
AcDbLine
 10
-9236.9230876782
 20
3564.514076372
 30
0.0
 11
-9237.7990066782
 21
3562.633079372
 31
0.0
  0
LINE
  5
238
330
1F
100
AcDbEntity
  8
0
  6
Continuous
 62
     7
370
    25
100
AcDbLine
 10
-9237.1190486782
 20
3566.041251372
 30
0.0
 11
-9236.9230876782
 21
3564.514076372
 31
0.0
  0
LINE
  5
239
330
1F
100
AcDbEntity
  8
0
  6
Continuous
 62
     7
370
    25
100
AcDbLine
 10
-9238.6430486782
 20
3566.299823372
 30
0.0
 11
-9237.1190486782
 21
3566.041251372
 31
0.0
  0
LINE
  5
23A
330
1F
100
AcDbEntity
  8
0
  6
Continuous
 62
     7
370
    25
100
AcDbLine
 10
-9238.4811236782
 20
3567.241401372
 30
0.0
 11
-9238.6430486782
 21
3566.299823372
 31
0.0
  0
LINE
  5
23B
330
1F
100
AcDbEntity
  8
0
  6
Continuous
 62
     7
370
    25
100
AcDbLine
 10
-9237.2800846782
 20
3567.565759372
 30
0.0
 11
-9238.4811236782
 21
3567.241401372
 31
0.0
  0
LINE
  5
23C
330
1F
100
AcDbEntity
  8
0
  6
Continuous
 62
     7
370
    25
100
AcDbLine
 10
-9237.3769856782
 20
3568.182217372
 30
0.0
 11
-9237.2800846782
 21
3567.565759372
 31
0.0
  0
LINE
  5
23D
330
1F
100
AcDbEntity
  8
0
  6
Continuous
 62
     7
370
    25
100
AcDbLine
 10
-9238.3828256782
 20
3568.603349372
 30
0.0
 11
-9237.3769856782
 21
3568.182217372
 31
0.0
  0
LINE
  5
23E
330
1F
100
AcDbEntity
  8
0
  6
Continuous
 62
     7
370
    25
100
AcDbLine
 10
-9238.9997916782
 20
3570.972153372
 30
0.0
 11
-9238.3828256782
 21
3568.603349372
 31
0.0
  0
LINE
  5
23F
330
1F
100
AcDbEntity
  8
0
  6
Continuous
 62
     7
370
    25
100
AcDbLine
 10
-9241.5302666782
 20
3572.529554372
 30
0.0
 11
-9238.9997916782
 21
3570.972153372
 31
0.0
  0
LINE
  5
240
330
1F
100
AcDbEntity
  8
0
  6
Continuous
 62
     7
370
    25
100
AcDbLine
 10
-9241.5302666782
 20
3573.730339372
 30
0.0
 11
-9241.5302666782
 21
3572.529554372
 31
0.0
  0
LINE
  5
241
330
1F
100
AcDbEntity
  8
0
  6
Continuous
 62
     7
370
    25
100
AcDbLine
 10
-9240.2644576782
 20
3573.893026372
 30
0.0
 11
-9241.5302666782
 21
3573.730339372
 31
0.0
  0
LINE
  5
242
330
1F
100
AcDbEntity
  8
0
  6
Continuous
 62
     7
370
    25
100
AcDbLine
 10
-9241.2061626782
 20
3575.093049372
 30
0.0
 11
-9240.2644576782
 21
3573.893026372
 31
0.0
  0
LINE
  5
243
330
1F
100
AcDbEntity
  8
0
  6
Continuous
 62
     7
370
    25
100
AcDbLine
 10
-9244.4508856782
 20
3575.515070372
 30
0.0
 11
-9241.2061626782
 21
3575.093049372
 31
0.0
  0
LINE
  5
244
330
1F
100
AcDbEntity
  8
0
  6
Continuous
 62
     7
370
    25
100
AcDbLine
 10
-9245.7163136782
 20
3581.127835372
 30
0.0
 11
-9244.4508856782
 21
3575.515070372
 31
0.0
  0
LINE
  5
245
330
1F
100
AcDbEntity
  8
0
  6
Continuous
 62
     7
370
    25
100
AcDbLine
 10
-9245.2937846782
 20
3582.684982372
 30
0.0
 11
-9245.7163136782
 21
3581.127835372
 31
0.0
  0
LINE
  5
246
330
1F
100
AcDbEntity
  8
0
  6
Continuous
 62
     7
370
    25
100
AcDbLine
 10
-9246.2357436782
 20
3583.108273372
 30
0.0
 11
-9245.2937846782
 21
3582.684982372
 31
0.0
  0
LINE
  5
247
330
1F
100
AcDbEntity
  8
0
  6
Continuous
 62
     7
370
    25
100
AcDbLine
 10
-9247.3379766782
 20
3582.166695372
 30
0.0
 11
-9246.2357436782
 21
3583.108273372
 31
0.0
  0
LINE
  5
248
330
1F
100
AcDbEntity
  8
0
  6
Continuous
 62
     7
370
    25
100
AcDbLine
 10
-9248.4422416782
 20
3582.945078372
 30
0.0
 11
-9247.3379766782
 21
3582.166695372
 31
0.0
  0
LINE
  5
249
330
1F
100
AcDbEntity
  8
0
  6
Continuous
 62
     7
370
    25
100
AcDbLine
 10
-9248.6360436782
 20
3584.470094372
 30
0.0
 11
-9248.4422416782
 21
3582.945078372
 31
0.0
  0
LINE
  5
24A
330
1F
100
AcDbEntity
  8
0
  6
Continuous
 62
     7
370
    25
100
AcDbLine
 10
-9246.8190546782
 20
3585.508319372
 30
0.0
 11
-9248.6360436782
 21
3584.470094372
 31
0.0
  0
LINE
  5
24B
330
1F
100
AcDbEntity
  8
0
  6
Continuous
 62
     7
370
    25
100
AcDbLine
 10
-9246.9177336782
 20
3587.357820372
 30
0.0
 11
-9246.8190546782
 21
3585.508319372
 31
0.0
  0
LINE
  5
24C
330
1F
100
AcDbEntity
  8
0
  6
Continuous
 62
     7
370
    25
100
AcDbLine
 10
-9248.2789196782
 20
3587.357820372
 30
0.0
 11
-9246.9177336782
 21
3587.357820372
 31
0.0
  0
LINE
  5
24D
330
1F
100
AcDbEntity
  8
0
  6
Continuous
 62
     7
370
    25
100
AcDbLine
 10
-9248.6360436782
 20
3589.596322372
 30
0.0
 11
-9248.2789196782
 21
3587.357820372
 31
0.0
  0
LINE
  5
24E
330
1F
100
AcDbEntity
  8
0
  6
Continuous
 62
     7
370
    25
100
AcDbLine
 10
-9247.6953546782
 20
3589.855783372
 30
0.0
 11
-9248.6360436782
 21
3589.596322372
 31
0.0
  0
LINE
  5
24F
330
1F
100
AcDbEntity
  8
0
  6
Continuous
 62
     7
370
    25
100
AcDbLine
 10
-9247.4357666782
 20
3591.219128372
 30
0.0
 11
-9247.6953546782
 21
3589.855783372
 31
0.0
  0
LINE
  5
250
330
1F
100
AcDbEntity
  8
0
  6
Continuous
 62
     7
370
    25
100
AcDbLine
 10
-9246.4948236782
 20
3591.121973372
 30
0.0
 11
-9247.4357666782
 21
3591.219128372
 31
0.0
  0
LINE
  5
251
330
1F
100
AcDbEntity
  8
0
  6
Continuous
 62
     7
370
    25
100
AcDbLine
 10
-9246.3981766782
 20
3591.965380372
 30
0.0
 11
-9246.4948236782
 21
3591.121973372
 31
0.0
  0
LINE
  5
252
330
1F
100
AcDbEntity
  8
0
  6
Continuous
 62
     7
370
    25
100
AcDbLine
 10
-9245.0349586782
 20
3592.225222372
 30
0.0
 11
-9246.3981766782
 21
3591.965380372
 31
0.0
  0
LINE
  5
253
330
1F
100
AcDbEntity
  8
0
  6
Continuous
 62
     7
370
    25
100
AcDbLine
 10
-9245.0349586782
 20
3592.745033372
 30
0.0
 11
-9245.0349586782
 21
3592.225222372
 31
0.0
  0
LINE
  5
254
330
1F
100
AcDbEntity
  8
0
  6
Continuous
 62
     7
370
    25
100
AcDbLine
 10
-9245.6512896782
 20
3593.003859372
 30
0.0
 11
-9245.0349586782
 21
3592.745033372
 31
0.0
  0
LINE
  5
255
330
1F
100
AcDbEntity
  8
0
  6
Continuous
 62
     7
370
    25
100
AcDbLine
 10
-9245.9104966782
 20
3595.210738372
 30
0.0
 11
-9245.6512896782
 21
3593.003859372
 31
0.0
  0
LINE
  5
256
330
1F
100
AcDbEntity
  8
0
  6
Continuous
 62
     7
370
    25
100
AcDbLine
 10
-9246.6580186782
 20
3595.567354372
 30
0.0
 11
-9245.9104966782
 21
3595.210738372
 31
0.0
  0
LINE
  5
257
330
1F
100
AcDbEntity
  8
0
  6
Continuous
 62
     7
370
    25
100
AcDbLine
 10
-9246.6580186782
 20
3596.508805372
 30
0.0
 11
-9246.6580186782
 21
3595.567354372
 31
0.0
  0
LINE
  5
258
330
1F
100
AcDbEntity
  8
0
  6
Continuous
 62
     7
370
    25
100
AcDbLine
 10
-9245.1321136782
 20
3597.026838372
 30
0.0
 11
-9246.6580186782
 21
3596.508805372
 31
0.0
  0
LINE
  5
259
330
1F
100
AcDbEntity
  8
0
  6
Continuous
 62
     7
370
    25
100
AcDbLine
 10
-9245.1321136782
 20
3597.351323372
 30
0.0
 11
-9245.1321136782
 21
3597.026838372
 31
0.0
  0
LINE
  5
25A
330
1F
100
AcDbEntity
  8
0
  6
Continuous
 62
     7
370
    25
100
AcDbLine
 10
-9245.0349586782
 20
3597.351323372
 30
0.0
 11
-9245.1321136782
 21
3597.351323372
 31
0.0
  0
LINE
  5
25B
330
1F
100
AcDbEntity
  8
0
  6
Continuous
 62
     7
370
    25
100
AcDbLine
 10
-9244.8725256782
 20
3595.307893372
 30
0.0
 11
-9245.0349586782
 21
3597.351323372
 31
0.0
  0
LINE
  5
25C
330
1F
100
AcDbEntity
  8
0
  6
Continuous
 62
     7
370
    25
100
AcDbLine
 10
-9244.1910436782
 20
3594.787828372
 30
0.0
 11
-9244.8725256782
 21
3595.307893372
 31
0.0
  0
LINE
  5
25D
330
1F
100
AcDbEntity
  8
0
  6
Continuous
 62
     7
370
    25
100
AcDbLine
 10
-9242.8927226782
 20
3595.145714372
 30
0.0
 11
-9244.1910436782
 21
3594.787828372
 31
0.0
  0
LINE
  5
25E
330
1F
100
AcDbEntity
  8
0
  6
Continuous
 62
     7
370
    25
100
AcDbLine
 10
-9242.0505856782
 20
3594.885872372
 30
0.0
 11
-9242.8927226782
 21
3595.145714372
 31
0.0
  0
LINE
  5
25F
330
1F
100
AcDbEntity
  8
0
  6
Continuous
 62
     7
370
    25
100
AcDbLine
 10
-9240.8496736782
 20
3595.469564372
 30
0.0
 11
-9242.0505856782
 21
3594.885872372
 31
0.0
  0
LINE
  5
260
330
1F
100
AcDbEntity
  8
0
  6
Continuous
 62
     7
370
    25
100
AcDbLine
 10
-9240.2644576782
 20
3596.508805372
 30
0.0
 11
-9240.8496736782
 21
3595.469564372
 31
0.0
  0
LINE
  5
261
330
1F
100
AcDbEntity
  8
0
  6
Continuous
 62
     7
370
    25
100
AcDbLine
 10
-9239.4867096782
 20
3598.551727372
 30
0.0
 11
-9240.2644576782
 21
3596.508805372
 31
0.0
  0
LINE
  5
262
330
1F
100
AcDbEntity
  8
0
  6
Continuous
 62
     7
370
    25
100
AcDbLine
 10
-9238.5456396782
 20
3598.714414372
 30
0.0
 11
-9239.4867096782
 21
3598.551727372
 31
0.0
  0
LINE
  5
263
330
1F
100
AcDbEntity
  8
0
  6
Continuous
 62
     7
370
    25
100
AcDbLine
 10
-9238.5456396782
 20
3601.180119372
 30
0.0
 11
-9238.5456396782
 21
3598.714414372
 31
0.0
  0
LINE
  5
264
330
1F
100
AcDbEntity
  8
0
  6
Continuous
 62
     7
370
    25
100
AcDbLine
 10
-9237.0210046782
 20
3601.180119372
 30
0.0
 11
-9238.5456396782
 21
3601.180119372
 31
0.0
  0
LINE
  5
265
330
1F
100
AcDbEntity
  8
0
  6
Continuous
 62
     7
370
    25
100
AcDbLine
 10
-9236.8580636782
 20
3602.056292372
 30
0.0
 11
-9237.0210046782
 21
3601.180119372
 31
0.0
  0
LINE
  5
266
330
1F
100
AcDbEntity
  8
0
  6
Continuous
 62
     7
370
    25
100
AcDbLine
 10
-9234.7170976782
 20
3602.121062372
 30
0.0
 11
-9236.8580636782
 21
3602.056292372
 31
0.0
  0
LINE
  5
267
330
1F
100
AcDbEntity
  8
0
  6
Continuous
 62
     7
370
    25
100
AcDbLine
 10
-9234.8794036782
 20
3601.017813372
 30
0.0
 11
-9234.7170976782
 21
3602.121062372
 31
0.0
  0
LINE
  5
268
330
1F
100
AcDbEntity
  8
0
  6
Continuous
 62
     7
370
    25
100
AcDbLine
 10
-9234.5545376782
 20
3599.590841372
 30
0.0
 11
-9234.8794036782
 21
3601.017813372
 31
0.0
  0
LINE
  5
269
330
1F
100
AcDbEntity
  8
0
  6
Continuous
 62
     7
370
    25
100
AcDbLine
 10
-9233.6787456782
 20
3599.233082372
 30
0.0
 11
-9234.5545376782
 21
3599.590841372
 31
0.0
  0
LINE
  5
26A
330
1F
100
AcDbEntity
  8
0
  6
Continuous
 62
     7
370
    25
100
AcDbLine
 10
-9232.8348306782
 20
3600.012608372
 30
0.0
 11
-9233.6787456782
 21
3599.233082372
 31
0.0
  0
LINE
  5
26B
330
1F
100
AcDbEntity
  8
0
  6
Continuous
 62
     7
370
    25
100
AcDbLine
 10
-9233.0949266782
 20
3601.180119372
 30
0.0
 11
-9232.8348306782
 21
3600.012608372
 31
0.0
  0
LINE
  5
26C
330
1F
100
AcDbEntity
  8
0
  6
Continuous
 62
     7
370
    25
100
AcDbLine
 10
-9232.3156546782
 20
3602.478440372
 30
0.0
 11
-9233.0949266782
 21
3601.180119372
 31
0.0
  0
LINE
  5
26D
330
1F
100
AcDbEntity
  8
0
  6
Continuous
 62
     7
370
    25
100
AcDbLine
 10
-9230.6931026782
 20
3602.056292372
 30
0.0
 11
-9232.3156546782
 21
3602.478440372
 31
0.0
  0
LINE
  5
26E
330
1F
100
AcDbEntity
  8
0
  6
Continuous
 62
     7
370
    25
100
AcDbLine
 10
-9230.8884286782
 20
3599.752893372
 30
0.0
 11
-9230.6931026782
 21
3602.056292372
 31
0.0
  0
LINE
  5
26F
330
1F
100
AcDbEntity
  8
0
  6
Continuous
 62
     7
370
    25
100
AcDbLine
 10
-9227.2869626782
 20
3599.331507372
 30
0.0
 11
-9230.8884286782
 21
3599.752893372
 31
0.0
  0
LINE
  5
270
330
1F
100
AcDbEntity
  8
0
  6
Continuous
 62
     7
370
    25
100
AcDbLine
 10
-9225.1454886782
 20
3598.293155372
 30
0.0
 11
-9227.2869626782
 21
3599.331507372
 31
0.0
  0
LINE
  5
271
330
1F
100
AcDbEntity
  8
0
  6
Continuous
 62
     7
370
    25
100
AcDbLine
 10
-9225.0807186782
 20
3597.448605372
 30
0.0
 11
-9225.1454886782
 21
3598.293155372
 31
0.0
  0
LINE
  5
272
330
1F
100
AcDbEntity
  8
0
  6
Continuous
 62
     7
370
    25
100
AcDbLine
 10
-9224.2362956782
 20
3597.513375372
 30
0.0
 11
-9225.0807186782
 21
3597.448605372
 31
0.0
  0
LINE
  5
273
330
1F
100
AcDbEntity
  8
0
  6
Continuous
 62
     7
370
    25
100
AcDbLine
 10
-9224.3977126782
 20
3600.272069372
 30
0.0
 11
-9224.2362956782
 21
3597.513375372
 31
0.0
  0
LINE
  5
274
330
1F
100
AcDbEntity
  8
0
  6
Continuous
 62
     7
370
    25
100
AcDbLine
 10
-9223.4579126782
 20
3600.953297372
 30
0.0
 11
-9224.3977126782
 21
3600.272069372
 31
0.0
  0
LINE
  5
275
330
1F
100
AcDbEntity
  8
0
  6
Continuous
 62
     7
370
    25
100
AcDbLine
 10
-9223.8792986782
 20
3601.796831372
 30
0.0
 11
-9223.4579126782
 21
3600.953297372
 31
0.0
  0
LINE
  5
276
330
1F
100
AcDbEntity
  8
0
  6
Continuous
 62
     7
370
    25
100
AcDbLine
 10
-9223.2956066782
 20
3602.316134372
 30
0.0
 11
-9223.8792986782
 21
3601.796831372
 31
0.0
  0
LINE
  5
277
330
1F
100
AcDbEntity
  8
0
  6
Continuous
 62
     7
370
    25
100
AcDbLine
 10
-9223.2956066782
 20
3603.158779372
 30
0.0
 11
-9223.2956066782
 21
3602.316134372
 31
0.0
  0
LINE
  5
278
330
1F
100
AcDbEntity
  8
0
  6
Continuous
 62
     7
370
    25
100
AcDbLine
 10
-9221.9972856782
 20
3603.322101372
 30
0.0
 11
-9223.2956066782
 21
3603.158779372
 31
0.0
  0
LINE
  5
279
330
1F
100
AcDbEntity
  8
0
  6
Continuous
 62
     7
370
    25
100
AcDbLine
 10
-9220.4726506782
 20
3601.375318372
 30
0.0
 11
-9221.9972856782
 21
3603.322101372
 31
0.0
  0
LINE
  5
27A
330
1F
100
AcDbEntity
  8
0
  6
Continuous
 62
     7
370
    25
100
AcDbLine
 10
-9218.0069456782
 20
3603.841531372
 30
0.0
 11
-9220.4726506782
 21
3601.375318372
 31
0.0
  0
LINE
  5
27B
330
1F
100
AcDbEntity
  8
0
  6
Continuous
 62
     7
370
    25
100
AcDbLine
 10
-9216.8709306782
 20
3603.256442372
 30
0.0
 11
-9218.0069456782
 21
3603.841531372
 31
0.0
  0
LINE
  5
27C
330
1F
100
AcDbEntity
  8
0
  6
Continuous
 62
     7
370
    25
100
AcDbLine
 10
-9215.7679356782
 20
3603.743868372
 30
0.0
 11
-9216.8709306782
 21
3603.256442372
 31
0.0
  0
LINE
  5
27D
330
1F
100
AcDbEntity
  8
0
  6
Continuous
 62
     7
370
    25
100
AcDbLine
 10
-9213.9191966782
 20
3601.958248372
 30
0.0
 11
-9215.7679356782
 21
3603.743868372
 31
0.0
  0
LINE
  5
27E
330
1F
100
AcDbEntity
  8
0
  6
Continuous
 62
     7
370
    25
100
AcDbLine
 10
-9211.9715246782
 20
3602.380904372
 30
0.0
 11
-9213.9191966782
 21
3601.958248372
 31
0.0
  0
LINE
  5
27F
330
1F
100
AcDbEntity
  8
0
  6
Continuous
 62
     7
370
    25
100
AcDbLine
 10
-9211.1936496782
 20
3602.997743372
 30
0.0
 11
-9211.9715246782
 21
3602.380904372
 31
0.0
  0
LINE
  5
280
330
1F
100
AcDbEntity
  8
0
  6
Continuous
 62
     7
370
    25
100
AcDbLine
 10
-9208.0453196782
 20
3603.841531372
 30
0.0
 11
-9211.1936496782
 21
3602.997743372
 31
0.0
  0
LINE
  5
281
330
1F
100
AcDbEntity
  8
0
  6
Continuous
 62
     7
370
    25
100
AcDbLine
 10
-9208.3055426782
 20
3606.501546372
 30
0.0
 11
-9208.0453196782
 21
3603.841531372
 31
0.0
  0
LINE
  5
282
330
1F
100
AcDbEntity
  8
0
  6
Continuous
 62
     7
370
    25
100
AcDbLine
 10
-9207.0073486782
 20
3606.988337372
 30
0.0
 11
-9208.3055426782
 21
3606.501546372
 31
0.0
  0
LINE
  5
283
330
1F
100
AcDbEntity
  8
0
  6
Continuous
 62
     7
370
    25
100
AcDbLine
 10
-9205.6446386782
 20
3607.248560372
 30
0.0
 11
-9207.0073486782
 21
3606.988337372
 31
0.0
  0
LINE
  5
284
330
1F
100
AcDbEntity
  8
0
  6
Continuous
 62
     7
370
    25
100
AcDbLine
 10
-9205.8065636782
 20
3608.610254372
 30
0.0
 11
-9205.6446386782
 21
3607.248560372
 31
0.0
  0
LINE
  5
285
330
1F
100
AcDbEntity
  8
0
  6
Continuous
 62
     7
370
    25
100
AcDbLine
 10
-9204.1826146782
 20
3610.233060372
 30
0.0
 11
-9205.8065636782
 21
3608.610254372
 31
0.0
  0
LINE
  5
286
330
1F
100
AcDbEntity
  8
0
  6
Continuous
 62
     7
370
    25
100
AcDbLine
 10
-9201.8806126782
 20
3612.017664372
 30
0.0
 11
-9204.1826146782
 21
3610.233060372
 31
0.0
  0
LINE
  5
287
330
1F
100
AcDbEntity
  8
0
  6
Continuous
 62
     7
370
    25
100
AcDbLine
 10
-9200.7779986782
 20
3613.315350372
 30
0.0
 11
-9201.8806126782
 21
3612.017664372
 31
0.0
  0
LINE
  5
288
330
1F
100
AcDbEntity
  8
0
  6
Continuous
 62
     7
370
    25
100
AcDbLine
 10
-9201.3953456782
 20
3613.834907372
 30
0.0
 11
-9200.7779986782
 21
3613.315350372
 31
0.0
  0
LINE
  5
289
330
1F
100
AcDbEntity
  8
0
  6
Continuous
 62
     7
370
    25
100
AcDbLine
 10
-9200.2918426782
 20
3616.560327372
 30
0.0
 11
-9201.3953456782
 21
3613.834907372
 31
0.0
  0
LINE
  5
28A
330
1F
100
AcDbEntity
  8
0
  6
Continuous
 62
     7
370
    25
100
AcDbLine
 10
-9198.4730756782
 20
3618.960754372
 30
0.0
 11
-9200.2918426782
 21
3616.560327372
 31
0.0
  0
LINE
  5
28B
330
1F
100
AcDbEntity
  8
0
  6
Continuous
 62
     7
370
    25
100
AcDbLine
 10
-9199.3486136782
 20
3619.447291372
 30
0.0
 11
-9198.4730756782
 21
3618.960754372
 31
0.0
  0
LINE
  5
28C
330
1F
100
AcDbEntity
  8
0
  6
Continuous
 62
     7
370
    25
100
AcDbLine
 10
-9199.1569706782
 20
3621.849115372
 30
0.0
 11
-9199.3486136782
 21
3619.447291372
 31
0.0
  0
LINE
  5
28D
330
1F
100
AcDbEntity
  8
0
  6
Continuous
 62
     7
370
    25
100
AcDbLine
 10
-9200.0311116782
 20
3622.854574372
 30
0.0
 11
-9199.1569706782
 21
3621.849115372
 31
0.0
  0
LINE
  5
28E
330
1F
100
AcDbEntity
  8
0
  6
Continuous
 62
     7
370
    25
100
AcDbLine
 10
-9198.8309616782
 20
3625.516240372
 30
0.0
 11
-9200.0311116782
 21
3622.854574372
 31
0.0
  0
LINE
  5
28F
330
1F
100
AcDbEntity
  8
0
  6
Continuous
 62
     7
370
    25
100
AcDbLine
 10
-9199.5104116782
 20
3626.456040372
 30
0.0
 11
-9198.8309616782
 21
3625.516240372
 31
0.0
  0
LINE
  5
290
330
1F
100
AcDbEntity
  8
0
  6
Continuous
 62
     7
370
    25
100
AcDbLine
 10
-9198.6677666782
 20
3627.657079372
 30
0.0
 11
-9199.5104116782
 21
3626.456040372
 31
0.0
  0
LINE
  5
291
330
1F
100
AcDbEntity
  8
0
  6
Continuous
 62
     7
370
    25
100
AcDbLine
 10
-9197.2072666782
 20
3626.618600372
 30
0.0
 11
-9198.6677666782
 21
3627.657079372
 31
0.0
  0
LINE
  5
292
330
1F
100
AcDbEntity
  8
0
  6
Continuous
 62
     7
370
    25
100
AcDbLine
 10
-9196.5913166782
 20
3627.818750372
 30
0.0
 11
-9197.2072666782
 21
3626.618600372
 31
0.0
  0
LINE
  5
293
330
1F
100
AcDbEntity
  8
0
  6
Continuous
 62
     7
370
    25
100
AcDbLine
 10
-9194.3857076782
 20
3628.662284372
 30
0.0
 11
-9196.5913166782
 21
3627.818750372
 31
0.0
  0
LINE
  5
294
330
1F
100
AcDbEntity
  8
0
  6
Continuous
 62
     7
370
    25
100
AcDbLine
 10
-9194.1244686782
 20
3629.863704372
 30
0.0
 11
-9194.3857076782
 21
3628.662284372
 31
0.0
  0
LINE
  5
295
330
1F
100
AcDbEntity
  8
0
  6
Continuous
 62
     7
370
    25
100
AcDbLine
 10
-9195.0673166782
 20
3630.285344372
 30
0.0
 11
-9194.1244686782
 21
3629.863704372
 31
0.0
  0
LINE
  5
296
330
1F
100
AcDbEntity
  8
0
  6
Continuous
 62
     7
370
    25
100
AcDbLine
 10
-9194.7423236782
 20
3631.064362372
 30
0.0
 11
-9195.0673166782
 21
3630.285344372
 31
0.0
  0
LINE
  5
297
330
1F
100
AcDbEntity
  8
0
  6
Continuous
 62
     7
370
    25
100
AcDbLine
 10
-9196.1699306782
 20
3633.011780372
 30
0.0
 11
-9194.7423236782
 21
3631.064362372
 31
0.0
  0
LINE
  5
298
330
1F
100
AcDbEntity
  8
0
  6
Continuous
 62
     7
370
    25
100
AcDbLine
 10
-9192.2439796782
 20
3632.848585372
 30
0.0
 11
-9196.1699306782
 21
3633.011780372
 31
0.0
  0
LINE
  5
299
330
1F
100
AcDbEntity
  8
0
  6
Continuous
 62
     7
370
    25
100
AcDbLine
 10
-9191.4976006782
 20
3631.323061372
 30
0.0
 11
-9192.2439796782
 21
3632.848585372
 31
0.0
  0
LINE
  5
29A
330
1F
100
AcDbEntity
  8
0
  6
Continuous
 62
     7
370
    25
100
AcDbLine
 10
-9191.2377586782
 20
3627.818750372
 30
0.0
 11
-9191.4976006782
 21
3631.323061372
 31
0.0
  0
LINE
  5
29B
330
1F
100
AcDbEntity
  8
0
  6
Continuous
 62
     7
370
    25
100
AcDbLine
 10
-9188.5783786782
 20
3627.300209372
 30
0.0
 11
-9191.2377586782
 21
3627.818750372
 31
0.0
  0
LINE
  5
29C
330
1F
100
AcDbEntity
  8
0
  6
Continuous
 62
     7
370
    25
100
AcDbLine
 10
-9187.9925276782
 20
3628.501121372
 30
0.0
 11
-9188.5783786782
 21
3627.300209372
 31
0.0
  0
LINE
  5
29D
330
1F
100
AcDbEntity
  8
0
  6
Continuous
 62
     7
370
    25
100
AcDbLine
 10
-9186.1102606782
 20
3628.598403372
 30
0.0
 11
-9187.9925276782
 21
3628.501121372
 31
0.0
  0
LINE
  5
29E
330
1F
100
AcDbEntity
  8
0
  6
Continuous
 62
     7
370
    25
100
AcDbLine
 10
-9186.1102606782
 20
3626.034527372
 30
0.0
 11
-9186.1102606782
 21
3628.598403372
 31
0.0
  0
LINE
  5
29F
330
1F
100
AcDbEntity
  8
0
  6
Continuous
 62
     7
370
    25
100
AcDbLine
 10
-9182.6074736782
 20
3626.099424372
 30
0.0
 11
-9186.1102606782
 21
3626.034527372
 31
0.0
  0
LINE
  5
2A0
330
1F
100
AcDbEntity
  8
0
  6
Continuous
 62
     7
370
    25
100
AcDbLine
 10
-9182.4460566782
 20
3627.916921372
 30
0.0
 11
-9182.6074736782
 21
3626.099424372
 31
0.0
  0
LINE
  5
2A1
330
1F
100
AcDbEntity
  8
0
  6
Continuous
 62
     7
370
    25
100
AcDbLine
 10
-9180.9846676782
 20
3627.981310372
 30
0.0
 11
-9182.4460566782
 21
3627.916921372
 31
0.0
  0
LINE
  5
2A2
330
1F
100
AcDbEntity
  8
0
  6
Continuous
 62
     7
370
    25
100
AcDbLine
 10
-9181.5044786782
 20
3628.923015372
 30
0.0
 11
-9180.9846676782
 21
3627.981310372
 31
0.0
  0
LINE
  5
2A3
330
1F
100
AcDbEntity
  8
0
  6
Continuous
 62
     7
370
    25
100
AcDbLine
 10
-9180.0448676782
 20
3631.226160372
 30
0.0
 11
-9181.5044786782
 21
3628.923015372
 31
0.0
  0
LINE
  5
2A4
330
1F
100
AcDbEntity
  8
0
  6
Continuous
 62
     7
370
    25
100
AcDbLine
 10
-9178.9392056782
 20
3631.160755372
 30
0.0
 11
-9180.0448676782
 21
3631.226160372
 31
0.0
  0
LINE
  5
2A5
330
1F
100
AcDbEntity
  8
0
  6
Continuous
 62
     7
370
    25
100
AcDbLine
 10
-9177.8376076782
 20
3630.382880372
 30
0.0
 11
-9178.9392056782
 21
3631.160755372
 31
0.0
  0
LINE
  5
2A6
330
1F
100
AcDbEntity
  8
0
  6
Continuous
 62
     7
370
    25
100
AcDbLine
 10
-9177.4797216782
 20
3631.745336372
 30
0.0
 11
-9177.8376076782
 21
3630.382880372
 31
0.0
  0
LINE
  5
2A7
330
1F
100
AcDbEntity
  8
0
  6
Continuous
 62
     7
370
    25
100
AcDbLine
 10
-9177.9022506782
 20
3633.108681372
 30
0.0
 11
-9177.4797216782
 21
3631.745336372
 31
0.0
  0
LINE
  5
2A8
330
1F
100
AcDbEntity
  8
0
  6
Continuous
 62
     7
370
    25
100
AcDbLine
 10
-9177.4174916782
 20
3634.470883372
 30
0.0
 11
-9177.9022506782
 21
3633.108681372
 31
0.0
  0
LINE
  5
2A9
330
1F
100
AcDbEntity
  8
0
  6
Continuous
 62
     7
370
    25
100
AcDbLine
 10
-9175.5348436782
 20
3635.152365372
 30
0.0
 11
-9177.4174916782
 21
3634.470883372
 31
0.0
  0
LINE
  5
2AA
330
1F
100
AcDbEntity
  8
0
  6
Continuous
 62
     7
370
    25
100
AcDbLine
 10
-9175.5348436782
 20
3636.255614372
 30
0.0
 11
-9175.5348436782
 21
3635.152365372
 31
0.0
  0
LINE
  5
2AB
330
1F
100
AcDbEntity
  8
0
  6
Continuous
 62
     7
370
    25
100
AcDbLine
 10
-9177.4174916782
 20
3636.709512372
 30
0.0
 11
-9175.5348436782
 21
3636.255614372
 31
0.0
  0
LINE
  5
2AC
330
1F
100
AcDbEntity
  8
0
  6
Continuous
 62
     7
370
    25
100
AcDbLine
 10
-9177.1563796782
 20
3638.558759372
 30
0.0
 11
-9177.4174916782
 21
3636.709512372
 31
0.0
  0
LINE
  5
2AD
330
1F
100
AcDbEntity
  8
0
  6
Continuous
 62
     7
370
    25
100
AcDbLine
 10
-9175.8590746782
 20
3639.240622372
 30
0.0
 11
-9177.1563796782
 21
3638.558759372
 31
0.0
  0
LINE
  5
2AE
330
1F
100
AcDbEntity
  8
0
  6
Continuous
 62
     7
370
    25
100
AcDbLine
 10
-9176.3762186782
 20
3640.117557372
 30
0.0
 11
-9175.8590746782
 21
3639.240622372
 31
0.0
  0
LINE
  5
2AF
330
1F
100
AcDbEntity
  8
0
  6
Continuous
 62
     7
370
    25
100
AcDbLine
 10
-9175.5987246782
 20
3641.317961372
 30
0.0
 11
-9176.3762186782
 21
3640.117557372
 31
0.0
  0
LINE
  5
2B0
330
1F
100
AcDbEntity
  8
0
  6
Continuous
 62
     7
370
    25
100
AcDbLine
 10
-9175.2741126782
 20
3643.523697372
 30
0.0
 11
-9175.5987246782
 21
3641.317961372
 31
0.0
  0
LINE
  5
2B1
330
1F
100
AcDbEntity
  8
0
  6
Continuous
 62
     7
370
    25
100
AcDbLine
 10
-9173.9107676782
 20
3643.361391372
 30
0.0
 11
-9175.2741126782
 21
3643.523697372
 31
0.0
  0
LINE
  5
2B2
330
1F
100
AcDbEntity
  8
0
  6
Continuous
 62
     7
370
    25
100
AcDbLine
 10
-9173.5545326782
 20
3642.581992372
 30
0.0
 11
-9173.9107676782
 21
3643.361391372
 31
0.0
  0
LINE
  5
2B3
330
1F
100
AcDbEntity
  8
0
  6
Continuous
 62
     7
370
    25
100
AcDbLine
 10
-9172.9704596782
 20
3642.581992372
 30
0.0
 11
-9173.5545326782
 21
3642.581992372
 31
0.0
  0
LINE
  5
2B4
330
1F
100
AcDbEntity
  8
0
  6
Continuous
 62
     7
370
    25
100
AcDbLine
 10
-9172.1580406782
 20
3643.880567372
 30
0.0
 11
-9172.9704596782
 21
3642.581992372
 31
0.0
  0
LINE
  5
2B5
330
1F
100
AcDbEntity
  8
0
  6
Continuous
 62
     7
370
    25
100
AcDbLine
 10
-9171.4453166782
 20
3643.523697372
 30
0.0
 11
-9172.1580406782
 21
3643.880567372
 31
0.0
  0
LINE
  5
2B6
330
1F
100
AcDbEntity
  8
0
  6
Continuous
 62
     7
370
    25
100
AcDbLine
 10
-9169.3048586782
 20
3640.700868372
 30
0.0
 11
-9171.4453166782
 21
3643.523697372
 31
0.0
  0
LINE
  5
2B7
330
1F
100
AcDbEntity
  8
0
  6
Continuous
 62
     7
370
    25
100
AcDbLine
 10
-9165.7990236782
 20
3639.922104372
 30
0.0
 11
-9169.3048586782
 21
3640.700868372
 31
0.0
  0
LINE
  5
2B8
330
1F
100
AcDbEntity
  8
0
  6
Continuous
 62
     7
370
    25
100
AcDbLine
 10
-9165.6374796782
 20
3639.338412372
 30
0.0
 11
-9165.7990236782
 21
3639.922104372
 31
0.0
  0
LINE
  5
2B9
330
1F
100
AcDbEntity
  8
0
  6
Continuous
 62
     7
370
    25
100
AcDbLine
 10
-9166.9037966782
 20
3638.396199372
 30
0.0
 11
-9165.6374796782
 21
3639.338412372
 31
0.0
  0
LINE
  5
2BA
330
1F
100
AcDbEntity
  8
0
  6
Continuous
 62
     7
370
    25
100
AcDbLine
 10
-9165.4756816782
 20
3635.152365372
 30
0.0
 11
-9166.9037966782
 21
3638.396199372
 31
0.0
  0
LINE
  5
2BB
330
1F
100
AcDbEntity
  8
0
  6
Continuous
 62
     7
370
    25
100
AcDbLine
 10
-9163.7553396782
 20
3635.249647372
 30
0.0
 11
-9165.4756816782
 21
3635.152365372
 31
0.0
  0
LINE
  5
2BC
330
1F
100
AcDbEntity
  8
0
  6
Continuous
 62
     7
370
    25
100
AcDbLine
 10
-9163.2364176782
 20
3634.633697372
 30
0.0
 11
-9163.7553396782
 21
3635.249647372
 31
0.0
  0
LINE
  5
2BD
330
1F
100
AcDbEntity
  8
0
  6
Continuous
 62
     7
370
    25
100
AcDbLine
 10
-9162.7187656782
 20
3630.966699372
 30
0.0
 11
-9163.2364176782
 21
3634.633697372
 31
0.0
  0
LINE
  5
2BE
330
1F
100
AcDbEntity
  8
0
  6
Continuous
 62
     7
370
    25
100
AcDbLine
 10
-9161.0304276782
 20
3631.064362372
 30
0.0
 11
-9162.7187656782
 21
3630.966699372
 31
0.0
  0
LINE
  5
2BF
330
1F
100
AcDbEntity
  8
0
  6
Continuous
 62
     7
370
    25
100
AcDbLine
 10
-9161.5510006782
 20
3628.662284372
 30
0.0
 11
-9161.0304276782
 21
3631.064362372
 31
0.0
  0
LINE
  5
2C0
330
1F
100
AcDbEntity
  8
0
  6
Continuous
 62
     7
370
    25
100
AcDbLine
 10
-9161.1927336782
 20
3627.981310372
 30
0.0
 11
-9161.5510006782
 21
3628.662284372
 31
0.0
  0
LINE
  5
2C1
330
1F
100
AcDbEntity
  8
0
  6
Continuous
 62
     7
370
    25
100
AcDbLine
 10
-9162.4576536782
 20
3626.456040372
 30
0.0
 11
-9161.1927336782
 21
3627.981310372
 31
0.0
  0
LINE
  5
2C2
330
1F
100
AcDbEntity
  8
0
  6
Continuous
 62
     7
370
    25
100
AcDbLine
 10
-9160.6081526782
 20
3623.471413372
 30
0.0
 11
-9162.4576536782
 21
3626.456040372
 31
0.0
  0
LINE
  5
2C3
330
1F
100
AcDbEntity
  8
0
  6
Continuous
 62
     7
370
    25
100
AcDbLine
 10
-9159.0506246782
 20
3623.633338372
 30
0.0
 11
-9160.6081526782
 21
3623.471413372
 31
0.0
  0
LINE
  5
2C4
330
1F
100
AcDbEntity
  8
0
  6
Continuous
 62
     7
370
    25
100
AcDbLine
 10
-9157.5253546782
 20
3623.049900372
 30
0.0
 11
-9159.0506246782
 21
3623.633338372
 31
0.0
  0
LINE
  5
2C5
330
1F
100
AcDbEntity
  8
0
  6
Continuous
 62
     7
370
    25
100
AcDbLine
 10
-9157.0064326782
 20
3621.687444372
 30
0.0
 11
-9157.5253546782
 21
3623.049900372
 31
0.0
  0
LINE
  5
2C6
330
1F
100
AcDbEntity
  8
0
  6
Continuous
 62
     7
370
    25
100
AcDbLine
 10
-9157.3634296782
 20
3621.005835372
 30
0.0
 11
-9157.0064326782
 21
3621.687444372
 31
0.0
  0
LINE
  5
2C7
330
1F
100
AcDbEntity
  8
0
  6
Continuous
 62
     7
370
    25
100
AcDbLine
 10
-9156.5842846782
 20
3619.383156372
 30
0.0
 11
-9157.3634296782
 21
3621.005835372
 31
0.0
  0
LINE
  5
2C8
330
1F
100
AcDbEntity
  8
0
  6
Continuous
 62
     7
370
    25
100
AcDbLine
 10
-9153.7639956782
 20
3618.766952372
 30
0.0
 11
-9156.5842846782
 21
3619.383156372
 31
0.0
  0
LINE
  5
2C9
330
1F
100
AcDbEntity
  8
0
  6
Continuous
 62
     7
370
    25
100
AcDbLine
 10
-9153.0166006782
 20
3617.502032372
 30
0.0
 11
-9153.7639956782
 21
3618.766952372
 31
0.0
  0
LINE
  5
2CA
330
1F
100
AcDbEntity
  8
0
  6
Continuous
 62
     7
370
    25
100
AcDbLine
 10
-9153.0166006782
 20
3614.840747372
 30
0.0
 11
-9153.0166006782
 21
3617.502032372
 31
0.0
  0
LINE
  5
2CB
330
1F
100
AcDbEntity
  8
0
  6
Continuous
 62
     7
370
    25
100
AcDbLine
 10
-9152.6574446782
 20
3611.109106372
 30
0.0
 11
-9153.0166006782
 21
3614.840747372
 31
0.0
  0
LINE
  5
2CC
330
1F
100
AcDbEntity
  8
0
  6
Continuous
 62
     7
370
    25
100
AcDbLine
 10
-9152.0746416782
 20
3606.663852372
 30
0.0
 11
-9152.6574446782
 21
3611.109106372
 31
0.0
  0
LINE
  5
2CD
330
1F
100
AcDbEntity
  8
0
  6
Continuous
 62
     7
370
    25
100
AcDbLine
 10
-9153.2427876782
 20
3603.158779372
 30
0.0
 11
-9152.0746416782
 21
3606.663852372
 31
0.0
  0
LINE
  5
2CE
330
1F
100
AcDbEntity
  8
0
  6
Continuous
 62
     7
370
    25
100
AcDbLine
 10
-9154.8639426782
 20
3603.679098372
 30
0.0
 11
-9153.2427876782
 21
3603.158779372
 31
0.0
  0
LINE
  5
2CF
330
1F
100
AcDbEntity
  8
0
  6
Continuous
 62
     7
370
    25
100
AcDbLine
 10
-9157.5253546782
 20
3604.101246372
 30
0.0
 11
-9154.8639426782
 21
3603.679098372
 31
0.0
  0
LINE
  5
2D0
330
1F
100
AcDbEntity
  8
0
  6
Continuous
 62
     7
370
    25
100
AcDbLine
 10
-9157.2664016782
 20
3601.536735372
 30
0.0
 11
-9157.5253546782
 21
3604.101246372
 31
0.0
  0
LINE
  5
2D1
330
1F
100
AcDbEntity
  8
0
  6
Continuous
 62
     7
370
    25
100
AcDbLine
 10
-9156.2276686782
 20
3601.536735372
 30
0.0
 11
-9157.2664016782
 21
3601.536735372
 31
0.0
  0
LINE
  5
2D2
330
1F
100
AcDbEntity
  8
0
  6
Continuous
 62
     7
370
    25
100
AcDbLine
 10
-9153.9249046782
 20
3598.649644372
 30
0.0
 11
-9156.2276686782
 21
3601.536735372
 31
0.0
  0
LINE
  5
2D3
330
1F
100
AcDbEntity
  8
0
  6
Continuous
 62
     7
370
    25
100
AcDbLine
 10
-9152.6574446782
 20
3598.877482372
 30
0.0
 11
-9153.9249046782
 21
3598.649644372
 31
0.0
  0
LINE
  5
2D4
330
1F
100
AcDbEntity
  8
0
  6
Continuous
 62
     7
370
    25
100
AcDbLine
 10
-9151.7171366782
 20
3597.448605372
 30
0.0
 11
-9152.6574446782
 21
3598.877482372
 31
0.0
  0
LINE
  5
2D5
330
1F
100
AcDbEntity
  8
0
  6
Continuous
 62
     7
370
    25
100
AcDbLine
 10
-9149.7702266782
 20
3596.767377372
 30
0.0
 11
-9151.7171366782
 21
3597.448605372
 31
0.0
  0
LINE
  5
2D6
330
1F
100
AcDbEntity
  8
0
  6
Continuous
 62
     7
370
    25
100
AcDbLine
 10
-9148.0515356782
 20
3595.826307372
 30
0.0
 11
-9149.7702266782
 21
3596.767377372
 31
0.0
  0
LINE
  5
2D7
330
1F
100
AcDbEntity
  8
0
  6
Continuous
 62
     7
370
    25
100
AcDbLine
 10
-9149.3182336782
 20
3593.101141372
 30
0.0
 11
-9148.0515356782
 21
3595.826307372
 31
0.0
  0
LINE
  5
2D8
330
1F
100
AcDbEntity
  8
0
  6
Continuous
 62
     7
370
    25
100
AcDbLine
 10
-9147.6302766782
 20
3591.900356372
 30
0.0
 11
-9149.3182336782
 21
3593.101141372
 31
0.0
  0
LINE
  5
2D9
330
1F
100
AcDbEntity
  8
0
  6
Continuous
 62
     7
370
    25
100
AcDbLine
 10
-9148.2139686782
 20
3591.056822372
 30
0.0
 11
-9147.6302766782
 21
3591.900356372
 31
0.0
  0
LINE
  5
2DA
330
1F
100
AcDbEntity
  8
0
  6
Continuous
 62
     7
370
    25
100
AcDbLine
 10
-9148.2139686782
 20
3589.921442372
 30
0.0
 11
-9148.2139686782
 21
3591.056822372
 31
0.0
  0
LINE
  5
2DB
330
1F
100
AcDbEntity
  8
0
  6
Continuous
 62
     7
370
    25
100
AcDbLine
 10
-9147.4670816782
 20
3589.661981372
 30
0.0
 11
-9148.2139686782
 21
3589.921442372
 31
0.0
  0
LINE
  5
2DC
330
1F
100
AcDbEntity
  8
0
  6
Continuous
 62
     7
370
    25
100
AcDbLine
 10
-9147.6302766782
 20
3586.254698372
 30
0.0
 11
-9147.4670816782
 21
3589.661981372
 31
0.0
  0
LINE
  5
2DD
330
1F
100
AcDbEntity
  8
0
  6
Continuous
 62
     7
370
    25
100
AcDbLine
 10
-9146.7853456782
 20
3586.092138372
 30
0.0
 11
-9147.6302766782
 21
3586.254698372
 31
0.0
  0
LINE
  5
2DE
330
1F
100
AcDbEntity
  8
0
  6
Continuous
 62
     7
370
    25
100
AcDbLine
 10
-9146.9476516782
 20
3585.411164372
 30
0.0
 11
-9146.7853456782
 21
3586.092138372
 31
0.0
  0
LINE
  5
2DF
330
1F
100
AcDbEntity
  8
0
  6
Continuous
 62
     7
370
    25
100
AcDbLine
 10
-9149.6721826782
 20
3585.151068372
 30
0.0
 11
-9146.9476516782
 21
3585.411164372
 31
0.0
  0
LINE
  5
2E0
330
1F
100
AcDbEntity
  8
0
  6
Continuous
 62
     7
370
    25
100
AcDbLine
 10
-9149.9976836782
 20
3584.632146372
 30
0.0
 11
-9149.6721826782
 21
3585.151068372
 31
0.0
  0
LINE
  5
2E1
330
1F
100
AcDbEntity
  8
0
  6
Continuous
 62
     7
370
    25
100
AcDbLine
 10
-9150.7125666782
 20
3584.470094372
 30
0.0
 11
-9149.9976836782
 21
3584.632146372
 31
0.0
  0
LINE
  5
2E2
330
1F
100
AcDbEntity
  8
0
  6
Continuous
 62
     7
370
    25
100
AcDbLine
 10
-9151.1343336782
 20
3583.886656372
 30
0.0
 11
-9150.7125666782
 21
3584.470094372
 31
0.0
  0
LINE
  5
2E3
330
1F
100
AcDbEntity
  8
0
  6
Continuous
 62
     7
370
    25
100
AcDbLine
 10
-9151.7171366782
 20
3584.308804372
 30
0.0
 11
-9151.1343336782
 21
3583.886656372
 31
0.0
  0
LINE
  5
2E4
330
1F
100
AcDbEntity
  8
0
  6
Continuous
 62
     7
370
    25
100
AcDbLine
 10
-9152.2373286782
 20
3585.736665372
 30
0.0
 11
-9151.7171366782
 21
3584.308804372
 31
0.0
  0
LINE
  5
2E5
330
1F
100
AcDbEntity
  8
0
  6
Continuous
 62
     7
370
    25
100
AcDbLine
 10
-9153.2427876782
 20
3585.054421372
 30
0.0
 11
-9152.2373286782
 21
3585.736665372
 31
0.0
  0
LINE
  5
2E6
330
1F
100
AcDbEntity
  8
0
  6
Continuous
 62
     7
370
    25
100
AcDbLine
 10
-9152.6574446782
 20
3584.568265372
 30
0.0
 11
-9153.2427876782
 21
3585.054421372
 31
0.0
  0
LINE
  5
2E7
330
1F
100
AcDbEntity
  8
0
  6
Continuous
 62
     7
370
    25
100
AcDbLine
 10
-9152.9181756782
 20
3583.951172372
 30
0.0
 11
-9152.6574446782
 21
3584.568265372
 31
0.0
  0
LINE
  5
2E8
330
1F
100
AcDbEntity
  8
0
  6
Continuous
 62
     7
370
    25
100
AcDbLine
 10
-9155.4825596782
 20
3584.827599372
 30
0.0
 11
-9152.9181756782
 21
3583.951172372
 31
0.0
  0
LINE
  5
2E9
330
1F
100
AcDbEntity
  8
0
  6
Continuous
 62
     7
370
    25
100
AcDbLine
 10
-9156.0005926782
 20
3585.411164372
 30
0.0
 11
-9155.4825596782
 21
3584.827599372
 31
0.0
  0
LINE
  5
2EA
330
1F
100
AcDbEntity
  8
0
  6
Continuous
 62
     7
370
    25
100
AcDbLine
 10
-9156.9430596782
 20
3585.508319372
 30
0.0
 11
-9156.0005926782
 21
3585.411164372
 31
0.0
  0
LINE
  5
2EB
330
1F
100
AcDbEntity
  8
0
  6
Continuous
 62
     7
370
    25
100
AcDbLine
 10
-9156.9430596782
 20
3584.568265372
 30
0.0
 11
-9156.9430596782
 21
3585.508319372
 31
0.0
  0
LINE
  5
2EC
330
1F
100
AcDbEntity
  8
0
  6
Continuous
 62
     7
370
    25
100
AcDbLine
 10
-9157.6228906782
 20
3584.568265372
 30
0.0
 11
-9156.9430596782
 21
3584.568265372
 31
0.0
  0
LINE
  5
2ED
330
1F
100
AcDbEntity
  8
0
  6
Continuous
 62
     7
370
    25
100
AcDbLine
 10
-9158.5324646782
 20
3586.449389372
 30
0.0
 11
-9157.6228906782
 21
3584.568265372
 31
0.0
  0
LINE
  5
2EE
330
1F
100
AcDbEntity
  8
0
  6
Continuous
 62
     7
370
    25
100
AcDbLine
 10
-9158.4673136782
 20
3587.293431372
 30
0.0
 11
-9158.5324646782
 21
3586.449389372
 31
0.0
  0
LINE
  5
2EF
330
1F
100
AcDbEntity
  8
0
  6
Continuous
 62
     7
370
    25
100
AcDbLine
 10
-9160.4138426782
 20
3588.915983372
 30
0.0
 11
-9158.4673136782
 21
3587.293431372
 31
0.0
  0
LINE
  5
2F0
330
1F
100
AcDbEntity
  8
0
  6
Continuous
 62
     7
370
    25
100
AcDbLine
 10
-9161.0304276782
 20
3587.974405372
 30
0.0
 11
-9160.4138426782
 21
3588.915983372
 31
0.0
  0
LINE
  5
2F1
330
1F
100
AcDbEntity
  8
0
  6
Continuous
 62
     7
370
    25
100
AcDbLine
 10
-9162.4576536782
 20
3587.877250372
 30
0.0
 11
-9161.0304276782
 21
3587.974405372
 31
0.0
  0
LINE
  5
2F2
330
1F
100
AcDbEntity
  8
0
  6
Continuous
 62
     7
370
    25
100
AcDbLine
 10
-9162.5551896782
 20
3589.759517372
 30
0.0
 11
-9162.4576536782
 21
3587.877250372
 31
0.0
  0
LINE
  5
2F3
330
1F
100
AcDbEntity
  8
0
  6
Continuous
 62
     7
370
    25
100
AcDbLine
 10
-9165.2162206782
 20
3589.855783372
 30
0.0
 11
-9162.5551896782
 21
3589.759517372
 31
0.0
  0
LINE
  5
2F4
330
1F
100
AcDbEntity
  8
0
  6
Continuous
 62
     7
370
    25
100
AcDbLine
 10
-9166.8381376782
 20
3588.234374372
 30
0.0
 11
-9165.2162206782
 21
3589.855783372
 31
0.0
  0
LINE
  5
2F5
330
1F
100
AcDbEntity
  8
0
  6
Continuous
 62
     7
370
    25
100
AcDbLine
 10
-9167.6811636782
 20
3584.632146372
 30
0.0
 11
-9166.8381376782
 21
3588.234374372
 31
0.0
  0
LINE
  5
2F6
330
1F
100
AcDbEntity
  8
0
  6
Continuous
 62
     7
370
    25
100
AcDbLine
 10
-9170.0814636782
 20
3584.308804372
 30
0.0
 11
-9167.6811636782
 21
3584.632146372
 31
0.0
  0
LINE
  5
2F7
330
1F
100
AcDbEntity
  8
0
  6
Continuous
 62
     7
370
    25
100
AcDbLine
 10
-9170.0814636782
 20
3583.626560372
 30
0.0
 11
-9170.0814636782
 21
3584.308804372
 31
0.0
  0
LINE
  5
2F8
330
1F
100
AcDbEntity
  8
0
  6
Continuous
 62
     7
370
    25
100
AcDbLine
 10
-9169.3683586782
 20
3583.270579372
 30
0.0
 11
-9170.0814636782
 21
3583.626560372
 31
0.0
  0
LINE
  5
2F9
330
1F
100
AcDbEntity
  8
0
  6
Continuous
 62
     7
370
    25
100
AcDbLine
 10
-9169.4662756782
 20
3582.329255372
 30
0.0
 11
-9169.3683586782
 21
3583.270579372
 31
0.0
  0
LINE
  5
2FA
330
1F
100
AcDbEntity
  8
0
  6
Continuous
 62
     7
370
    25
100
AcDbLine
 10
-9171.0878116782
 20
3582.166695372
 30
0.0
 11
-9169.4662756782
 21
3582.329255372
 31
0.0
  0
LINE
  5
2FB
330
1F
100
AcDbEntity
  8
0
  6
Continuous
 62
     7
370
    25
100
AcDbLine
 10
-9172.5492006782
 20
3581.582622372
 30
0.0
 11
-9171.0878116782
 21
3582.166695372
 31
0.0
  0
LINE
  5
2FC
330
1F
100
AcDbEntity
  8
0
  6
Continuous
 62
     7
370
    25
100
AcDbLine
 10
-9175.5348436782
 20
3581.907488372
 30
0.0
 11
-9172.5492006782
 21
3581.582622372
 31
0.0
  0
LINE
  5
2FD
330
1F
100
AcDbEntity
  8
0
  6
Continuous
 62
     7
370
    25
100
AcDbLine
 10
-9176.7988746782
 20
3579.343993372
 30
0.0
 11
-9175.5348436782
 21
3581.907488372
 31
0.0
  0
LINE
  5
2FE
330
1F
100
AcDbEntity
  8
0
  6
Continuous
 62
     7
370
    25
100
AcDbLine
 10
-9177.7404526782
 20
3579.766014372
 30
0.0
 11
-9176.7988746782
 21
3579.343993372
 31
0.0
  0
LINE
  5
2FF
330
1F
100
AcDbEntity
  8
0
  6
Continuous
 62
     7
370
    25
100
AcDbLine
 10
-9177.1563796782
 20
3580.901648372
 30
0.0
 11
-9177.7404526782
 21
3579.766014372
 31
0.0
  0
LINE
  5
300
330
1F
100
AcDbEntity
  8
0
  6
Continuous
 62
     7
370
    25
100
AcDbLine
 10
-9178.6163716782
 20
3582.166695372
 30
0.0
 11
-9177.1563796782
 21
3580.901648372
 31
0.0
  0
LINE
  5
301
330
1F
100
AcDbEntity
  8
0
  6
Continuous
 62
     7
370
    25
100
AcDbLine
 10
-9180.0448676782
 20
3583.270579372
 30
0.0
 11
-9178.6163716782
 21
3582.166695372
 31
0.0
  0
ENDSEC
  0
SECTION
  2
OBJECTS
  0
DICTIONARY
  5
C
330
0
100
AcDbDictionary
281
     1
  3
ACAD_GROUP
350
D
  3
ACAD_LAYOUT
350
1A
  3
ACAD_MLINESTYLE
350
17
  3
ACAD_PLOTSETTINGS
350
19
  3
ACAD_PLOTSTYLENAME
350
E
  3
ACAD_SCALELIST
350
47
  0
DICTIONARY
  5
D
102
{ACAD_REACTORS
330
C
102
}
330
C
100
AcDbDictionary
281
     1
  0
DICTIONARY
  5
1A
102
{ACAD_REACTORS
330
C
102
}
330
C
100
AcDbDictionary
281
     1
  3
Layout1
350
1E
  3
Layout2
350
26
  3
Model
350
22
  0
DICTIONARY
  5
17
102
{ACAD_REACTORS
330
C
102
}
330
C
100
AcDbDictionary
281
     1
  3
Standard
350
18
  0
DICTIONARY
  5
19
102
{ACAD_REACTORS
330
C
102
}
330
C
100
AcDbDictionary
281
     1
  0
ACDBDICTIONARYWDFLT
  5
E
102
{ACAD_REACTORS
330
C
102
}
330
C
100
AcDbDictionary
281
     1
  3
Normal
350
F
100
AcDbDictionaryWithDefault
340
F
  0
DICTIONARY
  5
47
102
{ACAD_REACTORS
330
C
102
}
330
C
100
AcDbDictionary
281
     1
  3
A0
350
48
  3
A1
350
49
  3
A2
350
4A
  3
A3
350
4B
  3
A4
350
4C
  3
A5
350
4D
  3
A6
350
4E
  3
A7
350
4F
  3
A8
350
50
  3
A9
350
51
  3
B0
350
52
  3
B1
350
53
  3
B2
350
54
  3
B3
350
55
  3
B4
350
56
  3
B5
350
57
  3
B6
350
58
  3
B7
350
59
  3
B8
350
5A
  3
B9
350
5B
  3
C0
350
5C
  3
C1
350
5D
  3
C2
350
5E
  3
C3
350
5F
  3
C4
350
60
  3
C5
350
61
  3
C6
350
62
  3
C7
350
63
  3
C8
350
64
  3
C9
350
65
  3
D0
350
66
  3
D1
350
67
  3
D2
350
68
  0
LAYOUT
  5
1E
102
{ACAD_REACTORS
330
1A
102
}
330
1A
100
AcDbPlotSettings
  1

  2
none_device
  4

  6

 40
0.0
 41
0.0
 42
0.0
 43
0.0
 44
0.0
 45
0.0
 46
0.0
 47
0.0
 48
0.0
 49
0.0
140
0.0
141
0.0
142
1.0
143
1.0
 70
   688
 72
     1
 73
     0
 74
     5
  7

 75
    16
147
1.0
148
0.0
149
0.0
100
AcDbLayout
  1
Layout1
 70
     1
 71
     1
 10
0.0
 20
0.0
 11
420.0
 21
297.0
 12
0.0
 22
0.0
 32
0.0
 14
1.0000000000E+20
 24
1.0000000000E+20
 34
1.0000000000E+20
 15
-1.0000000000E+20
 25
-1.0000000000E+20
 35
-1.0000000000E+20
146
0.0
 13
0.0
 23
0.0
 33
0.0
 16
1.0
 26
0.0
 36
0.0
 17
0.0
 27
1.0
 37
0.0
 76
     0
330
1B
  0
LAYOUT
  5
26
102
{ACAD_REACTORS
330
1A
102
}
330
1A
100
AcDbPlotSettings
  1

  2
none_device
  4

  6

 40
0.0
 41
0.0
 42
0.0
 43
0.0
 44
0.0
 45
0.0
 46
0.0
 47
0.0
 48
0.0
 49
0.0
140
0.0
141
0.0
142
1.0
143
1.0
 70
   688
 72
     1
 73
     0
 74
     5
  7

 75
    16
147
1.0
148
0.0
149
0.0
100
AcDbLayout
  1
Layout2
 70
     1
 71
     2
 10
0.0
 20
0.0
 11
0.0
 21
0.0
 12
0.0
 22
0.0
 32
0.0
 14
0.0
 24
0.0
 34
0.0
 15
0.0
 25
0.0
 35
0.0
146
0.0
 13
0.0
 23
0.0
 33
0.0
 16
1.0
 26
0.0
 36
0.0
 17
0.0
 27
1.0
 37
0.0
 76
     0
330
23
  0
LAYOUT
  5
22
102
{ACAD_REACTORS
330
1A
102
}
330
1A
100
AcDbPlotSettings
  1

  2
none_device
  4
ANSI_A_(11.00_x_8.50_Inches)
  6

 40
6.35
 41
19.05
 42
6.35000508
 43
19.05000254
 44
279.4
 45
215.9
 46
23754.722957479
 47
-9162.3692341779
 48
0.0
 49
0.0
140
0.0
141
0.0
142
0.101109433
143
1.0
 70
  1696
 72
     0
 73
     0
 74
     0
  7

 75
     0
147
0.0179189148
148
-1300.4909072572
149
0.0
100
AcDbLayout
  1
Model
 70
     1
 71
     0
 10
0.0
 20
0.0
 11
420.0
 21
297.0
 12
0.0
 22
0.0
 32
0.0
 14
-9248.6360436782
 24
3560.653911372
 34
0.0
 15
-9146.7853456782
 25
3643.880567372
 35
0.0
146
0.0
 13
0.0
 23
0.0
 33
0.0
 16
1.0
 26
0.0
 36
0.0
 17
0.0
 27
1.0
 37
0.0
 76
     0
330
1F
331
29
  0
MLINESTYLE
  5
18
102
{ACAD_REACTORS
330
17
102
}
330
17
100
AcDbMlineStyle
  2
Standard
 70
     0
  3

 62
   256
 51
90.0
 52
90.0
 71
     2
 49
0.5
 62
   256
  6
BYLAYER
 49
-0.5
 62
   256
  6
BYLAYER
  0
ACDBPLACEHOLDER
  5
F
102
{ACAD_REACTORS
330
E
102
}
330
E
  0
SCALE
  5
48
102
{ACAD_REACTORS
330
47
102
}
330
47
100
AcDbScale
 70
     0
300
1:1
140
1.0
141
1.0
290
     1
  0
SCALE
  5
49
102
{ACAD_REACTORS
330
47
102
}
330
47
100
AcDbScale
 70
     0
300
1:2
140
1.0
141
2.0
290
     0
  0
SCALE
  5
4A
102
{ACAD_REACTORS
330
47
102
}
330
47
100
AcDbScale
 70
     0
300
1:4
140
1.0
141
4.0
290
     0
  0
SCALE
  5
4B
102
{ACAD_REACTORS
330
47
102
}
330
47
100
AcDbScale
 70
     0
300
1:5
140
1.0
141
5.0
290
     0
  0
SCALE
  5
4C
102
{ACAD_REACTORS
330
47
102
}
330
47
100
AcDbScale
 70
     0
300
1:8
140
1.0
141
8.0
290
     0
  0
SCALE
  5
4D
102
{ACAD_REACTORS
330
47
102
}
330
47
100
AcDbScale
 70
     0
300
1:10
140
1.0
141
10.0
290
     0
  0
SCALE
  5
4E
102
{ACAD_REACTORS
330
47
102
}
330
47
100
AcDbScale
 70
     0
300
1:16
140
1.0
141
16.0
290
     0
  0
SCALE
  5
4F
102
{ACAD_REACTORS
330
47
102
}
330
47
100
AcDbScale
 70
     0
300
1:20
140
1.0
141
20.0
290
     0
  0
SCALE
  5
50
102
{ACAD_REACTORS
330
47
102
}
330
47
100
AcDbScale
 70
     0
300
1:30
140
1.0
141
30.0
290
     0
  0
SCALE
  5
51
102
{ACAD_REACTORS
330
47
102
}
330
47
100
AcDbScale
 70
     0
300
1:40
140
1.0
141
40.0
290
     0
  0
SCALE
  5
52
102
{ACAD_REACTORS
330
47
102
}
330
47
100
AcDbScale
 70
     0
300
1:50
140
1.0
141
50.0
290
     0
  0
SCALE
  5
53
102
{ACAD_REACTORS
330
47
102
}
330
47
100
AcDbScale
 70
     0
300
1:100
140
1.0
141
100.0
290
     0
  0
SCALE
  5
54
102
{ACAD_REACTORS
330
47
102
}
330
47
100
AcDbScale
 70
     0
300
2:1
140
2.0
141
1.0
290
     0
  0
SCALE
  5
55
102
{ACAD_REACTORS
330
47
102
}
330
47
100
AcDbScale
 70
     0
300
4:1
140
4.0
141
1.0
290
     0
  0
SCALE
  5
56
102
{ACAD_REACTORS
330
47
102
}
330
47
100
AcDbScale
 70
     0
300
8:1
140
8.0
141
1.0
290
     0
  0
SCALE
  5
57
102
{ACAD_REACTORS
330
47
102
}
330
47
100
AcDbScale
 70
     0
300
10:1
140
10.0
141
1.0
290
     0
  0
SCALE
  5
58
102
{ACAD_REACTORS
330
47
102
}
330
47
100
AcDbScale
 70
     0
300
100:1
140
100.0
141
1.0
290
     0
  0
SCALE
  5
59
102
{ACAD_REACTORS
330
47
102
}
330
47
100
AcDbScale
 70
     0
300
1/128" = 1'-0"
140
0.0078125
141
12.0
290
     0
  0
SCALE
  5
5A
102
{ACAD_REACTORS
330
47
102
}
330
47
100
AcDbScale
 70
     0
300
1/64" = 1'-0"
140
0.015625
141
12.0
290
     0
  0
SCALE
  5
5B
102
{ACAD_REACTORS
330
47
102
}
330
47
100
AcDbScale
 70
     0
300
1/32" = 1'-0"
140
0.03125
141
12.0
290
     0
  0
SCALE
  5
5C
102
{ACAD_REACTORS
330
47
102
}
330
47
100
AcDbScale
 70
     0
300
1/16" = 1'-0"
140
0.0625
141
12.0
290
     0
  0
SCALE
  5
5D
102
{ACAD_REACTORS
330
47
102
}
330
47
100
AcDbScale
 70
     0
300
3/32" = 1'-0"
140
0.09375
141
12.0
290
     0
  0
SCALE
  5
5E
102
{ACAD_REACTORS
330
47
102
}
330
47
100
AcDbScale
 70
     0
300
1/8" = 1'-0"
140
0.125
141
12.0
290
     0
  0
SCALE
  5
5F
102
{ACAD_REACTORS
330
47
102
}
330
47
100
AcDbScale
 70
     0
300
3/16" = 1'-0"
140
0.1875
141
12.0
290
     0
  0
SCALE
  5
60
102
{ACAD_REACTORS
330
47
102
}
330
47
100
AcDbScale
 70
     0
300
1/4" = 1'-0"
140
0.25
141
12.0
290
     0
  0
SCALE
  5
61
102
{ACAD_REACTORS
330
47
102
}
330
47
100
AcDbScale
 70
     0
300
3/8" = 1'-0"
140
0.375
141
12.0
290
     0
  0
SCALE
  5
62
102
{ACAD_REACTORS
330
47
102
}
330
47
100
AcDbScale
 70
     0
300
1/2" = 1'-0"
140
0.5
141
12.0
290
     0
  0
SCALE
  5
63
102
{ACAD_REACTORS
330
47
102
}
330
47
100
AcDbScale
 70
     0
300
3/4" = 1'-0"
140
0.75
141
12.0
290
     0
  0
SCALE
  5
64
102
{ACAD_REACTORS
330
47
102
}
330
47
100
AcDbScale
 70
     0
300
1" = 1'-0"
140
1.0
141
12.0
290
     0
  0
SCALE
  5
65
102
{ACAD_REACTORS
330
47
102
}
330
47
100
AcDbScale
 70
     0
300
1-1/2" = 1'-0"
140
1.5
141
12.0
290
     0
  0
SCALE
  5
66
102
{ACAD_REACTORS
330
47
102
}
330
47
100
AcDbScale
 70
     0
300
3" = 1'-0"
140
3.0
141
12.0
290
     0
  0
SCALE
  5
67
102
{ACAD_REACTORS
330
47
102
}
330
47
100
AcDbScale
 70
     0
300
6" = 1'-0"
140
6.0
141
12.0
290
     0
  0
SCALE
  5
68
102
{ACAD_REACTORS
330
47
102
}
330
47
100
AcDbScale
 70
     0
300
1'-0" = 1'-0"
140
12.0
141
12.0
290
     0
  0
ENDSEC
  0
EOF
