  0
SECTION
  2
HEADER
  9
$ACADVER
  1
AC1015
  9
$ACADMAINTVER
 70
     6
  9
$DWGCODEPAGE
  3
ANSI_1251
  9
$INSBASE
 10
0.0
 20
0.0
 30
0.0
  9
$EXTMIN
 10
-457.1282995517
 20
8390.5577014778
 30
0.0
  9
$EXTMAX
 10
-369.3596155517
 20
8488.2556264778
 30
0.0
  9
$LIMMIN
 10
0.0
 20
0.0
  9
$LIMMAX
 10
420.0
 20
297.0
  9
$ORTHOMODE
 70
     0
  9
$REGENMODE
 70
     1
  9
$FILLMODE
 70
     1
  9
$QTEXTMODE
 70
     0
  9
$MIRRTEXT
 70
     1
  9
$LTSCALE
 40
1.0
  9
$ATTMODE
 70
     1
  9
$TEXTSIZE
 40
4.0
  9
$TRACEWID
 40
1.0
  9
$TEXTSTYLE
  7
Standard
  9
$CLAYER
  8
0
  9
$CELTYPE
  6
ByLayer
  9
$CECOLOR
 62
   256
  9
$CELTSCALE
 40
1.0
  9
$DISPSILH
 70
     0
  9
$DIMSCALE
 40
1.0
  9
$DIMASZ
 40
6.0
  9
$DIMEXO
 40
1.0
  9
$DIMDLI
 40
3.75
  9
$DIMRND
 40
0.0
  9
$DIMDLE
 40
0.0
  9
$DIMEXE
 40
1.0
  9
$DIMTP
 40
0.0
  9
$DIMTM
 40
0.0
  9
$DIMTXT
 40
4.0
  9
$DIMCEN
 40
2.5
  9
$DIMTSZ
 40
0.0
  9
$DIMTOL
 70
     0
  9
$DIMLIM
 70
     0
  9
$DIMTIH
 70
     1
  9
$DIMTOH
 70
     1
  9
$DIMSE1
 70
     0
  9
$DIMSE2
 70
     0
  9
$DIMTAD
 70
     1
  9
$DIMZIN
 70
     0
  9
$DIMBLK
  1

  9
$DIMASO
 70
     1
  9
$DIMSHO
 70
     1
  9
$DIMPOST
  1

  9
$DIMAPOST
  1

  9
$DIMALT
 70
     0
  9
$DIMALTD
 70
     3
  9
$DIMALTF
 40
0.0393700787
  9
$DIMLFAC
 40
1.0
  9
$DIMTOFL
 70
     1
  9
$DIMTVP
 40
0.0
  9
$DIMTIX
 70
     0
  9
$DIMSOXD
 70
     0
  9
$DIMSAH
 70
     0
  9
$DIMBLK1
  1

  9
$DIMBLK2
  1

  9
$DIMSTYLE
  2
ISO-25
  9
$DIMCLRD
 70
     0
  9
$DIMCLRE
 70
     0
  9
$DIMCLRT
 70
     0
  9
$DIMTFAC
 40
1.0
  9
$DIMGAP
 40
3.0
  9
$DIMJUST
 70
     0
  9
$DIMSD1
 70
     0
  9
$DIMSD2
 70
     0
  9
$DIMTOLJ
 70
     0
  9
$DIMTZIN
 70
     0
  9
$DIMALTZ
 70
     0
  9
$DIMALTTZ
 70
     0
  9
$DIMUPT
 70
     0
  9
$DIMDEC
 70
     2
  9
$DIMTDEC
 70
     4
  9
$DIMALTU
 70
     2
  9
$DIMALTTD
 70
     3
  9
$DIMTXSTY
  7
Standard
  9
$DIMAUNIT
 70
     0
  9
$DIMADEC
 70
     2
  9
$DIMALTRND
 40
0.0
  9
$DIMAZIN
 70
     0
  9
$DIMDSEP
 70
    44
  9
$DIMATFIT
 70
     3
  9
$DIMFRAC
 70
     0
  9
$DIMLDRBLK
  1

  9
$DIMLUNIT
 70
     2
  9
$DIMLWD
 70
    -2
  9
$DIMLWE
 70
    -2
  9
$DIMTMOVE
 70
     0
  9
$LUNITS
 70
     2
  9
$LUPREC
 70
     2
  9
$SKETCHINC
 40
1.0
  9
$FILLETRAD
 40
10.0
  9
$AUNITS
 70
     1
  9
$AUPREC
 70
     2
  9
$MENU
  1
.
  9
$ELEVATION
 40
0.0
  9
$PELEVATION
 40
0.0
  9
$THICKNESS
 40
0.0
  9
$LIMCHECK
 70
     0
  9
$CHAMFERA
 40
0.0
  9
$CHAMFERB
 40
0.0
  9
$CHAMFERC
 40
0.0
  9
$CHAMFERD
 40
0.0
  9
$SKPOLY
 70
     0
  9
$TDCREATE
 40
2460368.662857384
  9
$TDUCREATE
 40
2460368.579524051
  9
$TDUPDATE
 40
2460368.66288537
  9
$TDUUPDATE
 40
2460368.579552037
  9
$TDINDWG
 40
0.0000000116
  9
$TDUSRTIMER
 40
0.0000000116
  9
$USRTIMER
 70
     1
  9
$ANGBASE
 50
0.0
  9
$ANGDIR
 70
     0
  9
$PDMODE
 70
     0
  9
$PDSIZE
 40
-1.0
  9
$PLINEWID
 40
0.0
  9
$SPLFRAME
 70
     0
  9
$SPLINETYPE
 70
     6
  9
$SPLINESEGS
 70
     8
  9
$HANDSEED
  5
2F8
  9
$SURFTAB1
 70
     6
  9
$SURFTAB2
 70
     6
  9
$SURFTYPE
 70
     6
  9
$SURFU
 70
     6
  9
$SURFV
 70
     6
  9
$UCSBASE
  2

  9
$UCSNAME
  2

  9
$UCSORG
 10
0.0
 20
0.0
 30
0.0
  9
$UCSXDIR
 10
1.0
 20
0.0
 30
0.0
  9
$UCSYDIR
 10
0.0
 20
1.0
 30
0.0
  9
$UCSORTHOREF
  2

  9
$UCSORTHOVIEW
 70
     0
  9
$UCSORGTOP
 10
0.0
 20
0.0
 30
0.0
  9
$UCSORGBOTTOM
 10
0.0
 20
0.0
 30
0.0
  9
$UCSORGLEFT
 10
0.0
 20
0.0
 30
0.0
  9
$UCSORGRIGHT
 10
0.0
 20
0.0
 30
0.0
  9
$UCSORGFRONT
 10
0.0
 20
0.0
 30
0.0
  9
$UCSORGBACK
 10
0.0
 20
0.0
 30
0.0
  9
$PUCSBASE
  2

  9
$PUCSNAME
  2

  9
$PUCSORG
 10
0.0
 20
0.0
 30
0.0
  9
$PUCSXDIR
 10
1.0
 20
0.0
 30
0.0
  9
$PUCSYDIR
 10
0.0
 20
1.0
 30
0.0
  9
$PUCSORTHOREF
  2

  9
$PUCSORTHOVIEW
 70
     0
  9
$PUCSORGTOP
 10
0.0
 20
0.0
 30
0.0
  9
$PUCSORGBOTTOM
 10
0.0
 20
0.0
 30
0.0
  9
$PUCSORGLEFT
 10
0.0
 20
0.0
 30
0.0
  9
$PUCSORGRIGHT
 10
0.0
 20
0.0
 30
0.0
  9
$PUCSORGFRONT
 10
0.0
 20
0.0
 30
0.0
  9
$PUCSORGBACK
 10
0.0
 20
0.0
 30
0.0
  9
$USERI1
 70
     0
  9
$USERI2
 70
     0
  9
$USERI3
 70
     0
  9
$USERI4
 70
     0
  9
$USERI5
 70
     0
  9
$USERR1
 40
0.0
  9
$USERR2
 40
0.0
  9
$USERR3
 40
0.0
  9
$USERR4
 40
0.0
  9
$USERR5
 40
0.0
  9
$WORLDVIEW
 70
     1
  9
$SHADEDGE
 70
     3
  9
$SHADEDIF
 70
    70
  9
$TILEMODE
 70
     1
  9
$MAXACTVP
 70
    64
  9
$PINSBASE
 10
0.0
 20
0.0
 30
0.0
  9
$PLIMCHECK
 70
     0
  9
$PEXTMIN
 10
1.0000000000E+20
 20
1.0000000000E+20
 30
1.0000000000E+20
  9
$PEXTMAX
 10
-1.0000000000E+20
 20
-1.0000000000E+20
 30
-1.0000000000E+20
  9
$PLIMMIN
 10
0.0
 20
0.0
  9
$PLIMMAX
 10
420.0
 20
297.0
  9
$UNITMODE
 70
     0
  9
$VISRETAIN
 70
     1
  9
$PLINEGEN
 70
     0
  9
$PSLTSCALE
 70
     1
  9
$TREEDEPTH
 70
  3020
  9
$CMLSTYLE
  2
Standard
  9
$CMLJUST
 70
     0
  9
$CMLSCALE
 40
20.0
  9
$PROXYGRAPHICS
 70
     1
  9
$MEASUREMENT
 70
     1
  9
$CELWEIGHT
370
    -1
  9
$ENDCAPS
280
     0
  9
$JOINSTYLE
280
     0
  9
$LWDISPLAY
290
     1
  9
$INSUNITS
 70
     4
  9
$HYPERLINKBASE
  1

  9
$STYLESHEET
  1

  9
$XEDIT
290
     1
  9
$CEPSNTYPE
380
     0
  9
$PSTYLEMODE
290
     1
  9
$FINGERPRINTGUID
  2
{b703d7ce-3610-4e60-81f8-12f1fcc740f1}
  9
$VERSIONGUID
  2
{FAEB1C32-E019-11D5-929B-00C0DF256EC4}
  9
$EXTNAMES
290
     1
  9
$PSVPSCALE
 40
0.0
  9
$OLESTARTUP
290
     0
  0
ENDSEC
  0
SECTION
  2
CLASSES
  0
CLASS
  1
ACDBDICTIONARYWDFLT
  2
AcDbDictionaryWithDefault
  3
ObjectDBX Classes
 90
        0
280
     0
281
     0
  0
CLASS
  1
VISUALSTYLE
  2
AcDbVisualStyle
  3
ObjectDBX Classes
 90
     4095
280
     0
281
     0
  0
CLASS
  1
MATERIAL
  2
AcDbMaterial
  3
ObjectDBX Classes
 90
     1153
280
     0
281
     0
  0
CLASS
  1
SCALE
  2
AcDbScale
  3
ObjectDBX Classes
 90
     1153
280
     0
281
     0
  0
CLASS
  1
TABLESTYLE
  2
AcDbTableStyle
  3
ObjectDBX Classes
 90
     4095
280
     0
281
     0
  0
CLASS
  1
MLEADERSTYLE
  2
AcDbMLeaderStyle
  3
ACDB_MLEADERSTYLE_CLASS
 90
     4095
280
     0
281
     0
  0
CLASS
  1
SUN
  2
AcDbSun
  3
SCENEOE
 90
     1153
280
     0
281
     0
  0
CLASS
  1
ACDBPLACEHOLDER
  2
AcDbPlaceHolder
  3
ObjectDBX Classes
 90
        0
280
     0
281
     0
  0
CLASS
  1
LAYOUT
  2
AcDbLayout
  3
ObjectDBX Classes
 90
        0
280
     0
281
     0
  0
ENDSEC
  0
SECTION
  2
TABLES
  0
TABLE
  2
VPORT
  5
8
330
0
100
AcDbSymbolTable
 70
     1
  0
VPORT
  5
29
330
8
100
AcDbSymbolTableRecord
100
AcDbViewportTableRecord
  2
*Active
 70
     0
 10
0.0
 20
0.0
 11
1.0
 21
1.0
 12
-413.2439575517
 22
8439.4066639778
 13
0.0
 23
0.0
 14
10.0
 24
10.0
 15
10.0
 25
10.0
 16
0.0
 26
0.0
 36
1.0
 17
0.0
 27
0.0
 37
0.0
 40
99.6518835
 41
0.8983679438
 42
50.0
 43
0.0
 44
0.0
 50
0.0
 51
0.0
 71
     0
 72
   100
 73
     1
 74
     3
 75
     0
 76
     0
 77
     0
 78
     0
281
     0
 65
     1
110
0.0
120
0.0
130
0.0
111
1.0
121
0.0
131
0.0
112
0.0
122
1.0
132
0.0
 79
     0
146
0.0
  0
ENDTAB
  0
TABLE
  2
LTYPE
  5
5
330
0
100
AcDbSymbolTable
 70
     6
  0
LTYPE
  5
14
330
5
100
AcDbSymbolTableRecord
100
AcDbLinetypeTableRecord
  2
ByBlock
 70
     0
  3

 72
    65
 73
     0
 40
0.0
  0
LTYPE
  5
15
330
5
100
AcDbSymbolTableRecord
100
AcDbLinetypeTableRecord
  2
ByLayer
 70
     0
  3

 72
    65
 73
     0
 40
0.0
  0
LTYPE
  5
16
330
5
100
AcDbSymbolTableRecord
100
AcDbLinetypeTableRecord
  2
Continuous
 70
     0
  3
Solid line
 72
    65
 73
     0
 40
0.0
  0
LTYPE
  5
6E
330
5
100
AcDbSymbolTableRecord
100
AcDbLinetypeTableRecord
  2
HIDDEN
 70
     0
  3
Hidden __ __ __ __ __ __ __ __ __ __ __ __ __ __
 72
    65
 73
     2
 40
1.905
 49
1.27
 74
     0
 49
-0.635
 74
     0
  0
LTYPE
  5
6F
330
5
100
AcDbSymbolTableRecord
100
AcDbLinetypeTableRecord
  2
PHANTOM
 70
     0
  3
Phantom ______  __  __  ______  __  __  ______
 72
    65
 73
     6
 40
12.7
 49
6.35
 74
     0
 49
-1.27
 74
     0
 49
1.27
 74
     0
 49
-1.27
 74
     0
 49
1.27
 74
     0
 49
-1.27
 74
     0
  0
LTYPE
  5
70
330
5
100
AcDbSymbolTableRecord
100
AcDbLinetypeTableRecord
  2
CENTER
 70
     0
  3
Center ____ _ ____ _ ____ _ ____ _ ____ _ ____
 72
    65
 73
     4
 40
10.16
 49
6.35
 74
     0
 49
-1.27
 74
     0
 49
1.27
 74
     0
 49
-1.27
 74
     0
  0
LTYPE
  5
71
330
5
100
AcDbSymbolTableRecord
100
AcDbLinetypeTableRecord
  2
CENTERX2
 70
     0
  3
Center (2x) ________  __  ________  __  _____
 72
    65
 73
     4
 40
20.32
 49
12.7
 74
     0
 49
-2.54
 74
     0
 49
2.54
 74
     0
 49
-2.54
 74
     0
  0
LTYPE
  5
72
330
5
100
AcDbSymbolTableRecord
100
AcDbLinetypeTableRecord
  2
DOT2
 70
     0
  3
Dot (.5x) ........................................
 72
    65
 73
     2
 40
0.635
 49
0.0
 74
     0
 49
-0.635
 74
     0
  0
ENDTAB
  0
TABLE
  2
LAYER
  5
2
330
0
100
AcDbSymbolTable
 70
     1
  0
LAYER
  5
10
330
2
100
AcDbSymbolTableRecord
100
AcDbLayerTableRecord
  2
0
 70
     0
 62
     7
  6
Continuous
370
    -3
390
F
  0
ENDTAB
  0
TABLE
  2
STYLE
  5
3
330
0
100
AcDbSymbolTable
 70
     1
  0
STYLE
  5
11
330
3
100
AcDbSymbolTableRecord
100
AcDbTextStyleTableRecord
  2
Standard
 70
     0
 40
0.0
 41
1.0
 50
0.0
 71
     0
 42
4.0
  3
txt
  4

  0
ENDTAB
  0
TABLE
  2
VIEW
  5
6
330
0
100
AcDbSymbolTable
 70
     0
  0
ENDTAB
  0
TABLE
  2
UCS
  5
7
330
0
100
AcDbSymbolTable
 70
     0
  0
ENDTAB
  0
TABLE
  2
APPID
  5
9
330
0
100
AcDbSymbolTable
 70
     1
  0
APPID
  5
12
330
9
100
AcDbSymbolTableRecord
100
AcDbRegAppTableRecord
  2
ACAD
 70
     0
  0
ENDTAB
  0
TABLE
  2
DIMSTYLE
  5
A
330
0
100
AcDbSymbolTable
 70
     1
100
AcDbDimStyleTable
  0
DIMSTYLE
105
27
330
A
100
AcDbSymbolTableRecord
100
AcDbDimStyleTableRecord
  2
ISO-25
 70
     0
 41
2.5
 42
0.625
 43
3.75
 44
1.25
 73
     0
 74
     0
 77
     1
 78
     8
140
2.5
141
2.5
143
0.0393700787
147
0.625
171
     3
172
     1
178
     0
271
     2
272
     2
274
     3
278
    44
283
     0
284
     8
340
11
  0
ENDTAB
  0
TABLE
  2
BLOCK_RECORD
  5
1
330
0
100
AcDbSymbolTable
 70
     1
  0
BLOCK_RECORD
  5
1F
330
1
100
AcDbSymbolTableRecord
100
AcDbBlockTableRecord
  2
*Model_Space
340
22
  0
BLOCK_RECORD
  5
1B
330
1
100
AcDbSymbolTableRecord
100
AcDbBlockTableRecord
  2
*Paper_Space
340
1E
  0
BLOCK_RECORD
  5
23
330
1
100
AcDbSymbolTableRecord
100
AcDbBlockTableRecord
  2
*Paper_Space0
340
26
  0
ENDTAB
  0
ENDSEC
  0
SECTION
  2
BLOCKS
  0
BLOCK
  5
20
330
1F
100
AcDbEntity
  8
0
100
AcDbBlockBegin
  2
*Model_Space
 70
     0
 10
0.0
 20
0.0
 30
0.0
  3
*Model_Space
  1

  0
ENDBLK
  5
21
330
1F
100
AcDbEntity
  8
0
100
AcDbBlockEnd
  0
BLOCK
  5
1C
330
1B
100
AcDbEntity
 67
     1
  8
0
100
AcDbBlockBegin
  2
*Paper_Space
 70
     0
 10
0.0
 20
0.0
 30
0.0
  3
*Paper_Space
  1

  0
ENDBLK
  5
1D
330
1B
100
AcDbEntity
 67
     1
  8
0
100
AcDbBlockEnd
  0
BLOCK
  5
24
330
23
100
AcDbEntity
  8
0
100
AcDbBlockBegin
  2
*Paper_Space0
 70
     0
 10
0.0
 20
0.0
 30
0.0
  3
*Paper_Space0
  1

  0
ENDBLK
  5
25
330
23
100
AcDbEntity
  8
0
100
AcDbBlockEnd
  0
ENDSEC
  0
SECTION
  2
ENTITIES
  0
SPLINE
  5
74
330
1F
100
AcDbEntity
  8
0
  6
Continuous
 62
     7
370
    25
100
AcDbSpline
210
0.0
220
0.0
230
1.0
 70
     8
 71
     3
 72
    15
 73
    11
 74
     0
 42
0.000000001
 43
0.00000001
 40
0.0
 40
0.0
 40
0.0
 40
0.0
 40
0.136441189714386
 40
0.2559957227679991
 40
0.3685080101433812
 40
0.4757423758332964
 40
0.5882546632087458
 40
0.7093427114891926
 40
0.8457839012034973
 40
0.9999999999999999
 40
0.9999999999999999
 40
0.9999999999999999
 40
0.9999999999999999
 10
-426.915941417369
 20
8442.324294012587
 30
0.0
 10
-426.9152209683339
 20
8442.34491918554
 30
0.0
 10
-426.9138692367063
 20
8442.38361685498
 30
0.0
 10
-426.8993362750821
 20
8442.437672074346
 30
0.0
 10
-426.8765998426239
 20
8442.484126982037
 30
0.0
 10
-426.8421529527428
 20
8442.521225308741
 30
0.0
 10
-426.7997628084712
 20
8442.5512005612
 30
0.0
 10
-426.7467769696401
 20
8442.569964247507
 30
0.0
 10
-426.685912689072
 20
8442.583501976427
 30
0.0
 10
-426.6419628812716
 20
8442.584107742252
 30
0.0
 10
-426.6186441200717
 20
8442.584429147722
 30
0.0
  0
SPLINE
  5
75
330
1F
100
AcDbEntity
  8
0
  6
Continuous
 62
     7
370
    25
100
AcDbSpline
210
0.0
220
0.0
230
1.0
 70
     8
 71
     3
 72
    15
 73
    11
 74
     0
 42
0.000000001
 43
0.00000001
 40
0.0
 40
0.0
 40
0.0
 40
0.0
 40
0.1678628092162899
 40
0.314846616591246
 40
0.4441869603121267
 40
0.5592403382441425
 40
0.6652318690747443
 40
0.7706563435097151
 40
0.8787940473875392
 40
1.0
 40
1.0
 40
1.0
 40
1.0
 10
-426.6186441200717
 20
8442.584429147722
 30
0.0
 10
-426.5895823449164
 20
8442.583414181106
 30
0.0
 10
-426.5350735372627
 20
8442.58151049079
 30
0.0
 10
-426.4586016272285
 20
8442.570881905971
 30
0.0
 10
-426.3937021532533
 20
8442.550058477625
 30
0.0
 10
-426.3399723772925
 20
8442.52101801039
 30
0.0
 10
-426.2972430055465
 20
8442.482877140155
 30
0.0
 10
-426.26812566838
 20
8442.43508640281
 30
0.0
 10
-426.2496892548083
 20
8442.379404648313
 30
0.0
 10
-426.2479445555182
 20
8442.339550150025
 30
0.0
 10
-426.2470224984501
 20
8442.318487424747
 30
0.0
  0
SPLINE
  5
77
330
1F
100
AcDbEntity
  8
0
  6
Continuous
 62
     7
370
    25
100
AcDbSpline
210
0.0
220
0.0
230
1.0
 70
     8
 71
     3
 72
    15
 73
    11
 74
     0
 42
0.000000001
 43
0.00000001
 40
0.0
 40
0.0
 40
0.0
 40
0.0
 40
0.1212059526124664
 40
0.2293436564902955
 40
0.3347681309251263
 40
0.4407596617558484
 40
0.5558130396878695
 40
0.6851533834087562
 40
0.8321371907836931
 40
0.9999999999999999
 40
0.9999999999999999
 40
0.9999999999999999
 40
0.9999999999999999
 10
-426.2470224984501
 20
8437.350370870694
 30
0.0
 10
-426.2479445555182
 20
8437.32930814542
 30
0.0
 10
-426.2496892548085
 20
8437.289453647134
 30
0.0
 10
-426.26812566838
 20
8437.233771892634
 30
0.0
 10
-426.2972430055465
 20
8437.185981155286
 30
0.0
 10
-426.3399723772925
 20
8437.147840285055
 30
0.0
 10
-426.3937021532533
 20
8437.118799817821
 30
0.0
 10
-426.4586016272285
 20
8437.097976389474
 30
0.0
 10
-426.5350735372627
 20
8437.087347804654
 30
0.0
 10
-426.5895823449164
 20
8437.085444114336
 30
0.0
 10
-426.6186441200717
 20
8437.084429147722
 30
0.0
  0
SPLINE
  5
78
330
1F
100
AcDbEntity
  8
0
  6
Continuous
 62
     7
370
    25
100
AcDbSpline
210
0.0
220
0.0
230
1.0
 70
     8
 71
     3
 72
    15
 73
    11
 74
     0
 42
0.000000001
 43
0.00000001
 40
0.0
 40
0.0
 40
0.0
 40
0.0
 40
0.1528612850162847
 40
0.2874697277135471
 40
0.4083171843914475
 40
0.5197330343307435
 40
0.627822285546717
 40
0.7415060099345941
 40
0.8623534666125027
 40
1.0
 40
1.0
 40
1.0
 40
1.0
 10
-426.6186441200717
 20
8437.084429147722
 30
0.0
 10
-426.6419070412666
 20
8437.085443025266
 30
0.0
 10
-426.6856551075019
 20
8437.087349715386
 30
0.0
 10
-426.7472430166871
 20
8437.098113603775
 30
0.0
 10
-426.7994402417499
 20
8437.119222111916
 30
0.0
 10
-426.8426004326698
 20
8437.148691763326
 30
0.0
 10
-426.8765732432502
 20
8437.187229754649
 30
0.0
 10
-426.8993535102708
 20
8437.234687319262
 30
0.0
 10
-426.9138542150504
 20
8437.28991354939
 30
0.0
 10
-426.9152161793622
 20
8437.329363828489
 30
0.0
 10
-426.915941417369
 20
8437.350370870694
 30
0.0
  0
SPLINE
  5
7C
330
1F
100
AcDbEntity
  8
0
  6
Continuous
 62
     7
370
    25
100
AcDbSpline
210
0.0
220
0.0
230
1.0
 70
     8
 71
     3
 72
    15
 73
    11
 74
     0
 42
0.000000001
 43
0.00000001
 40
0.0
 40
0.0
 40
0.0
 40
0.0
 40
0.1212059526124667
 40
0.2293436564902918
 40
0.334768130925122
 40
0.4407596617558512
 40
0.5558130396878718
 40
0.6851533834087474
 40
0.8321371907836835
 40
1.0
 40
1.0
 40
1.0
 40
1.0
 10
-428.7740495254771
 20
8437.350370870694
 30
0.0
 10
-428.7749715825452
 20
8437.32930814542
 30
0.0
 10
-428.7767162818354
 20
8437.289453647134
 30
0.0
 10
-428.795152695407
 20
8437.233771892634
 30
0.0
 10
-428.8242700325736
 20
8437.185981155286
 30
0.0
 10
-428.8669994043195
 20
8437.147840285055
 30
0.0
 10
-428.9207291802803
 20
8437.118799817821
 30
0.0
 10
-428.9856286542555
 20
8437.097976389474
 30
0.0
 10
-429.0621005642898
 20
8437.087347804654
 30
0.0
 10
-429.1166093719435
 20
8437.085444114336
 30
0.0
 10
-429.1456711470987
 20
8437.084429147722
 30
0.0
  0
SPLINE
  5
7D
330
1F
100
AcDbEntity
  8
0
  6
Continuous
 62
     7
370
    25
100
AcDbSpline
210
0.0
220
0.0
230
1.0
 70
     8
 71
     3
 72
    15
 73
    11
 74
     0
 42
0.000000001
 43
0.00000001
 40
0.0
 40
0.0
 40
0.0
 40
0.0
 40
0.1528612850162737
 40
0.2874697277135491
 40
0.4083171843914503
 40
0.519733034330747
 40
0.6278222855467135
 40
0.7415060099345914
 40
0.8623534666125008
 40
1.0
 40
1.0
 40
1.0
 40
1.0
 10
-429.1456711470987
 20
8437.084429147722
 30
0.0
 10
-429.1689340682936
 20
8437.085443025266
 30
0.0
 10
-429.212682134529
 20
8437.087349715386
 30
0.0
 10
-429.2742700437141
 20
8437.098113603775
 30
0.0
 10
-429.3264672687769
 20
8437.119222111916
 30
0.0
 10
-429.3696274596969
 20
8437.148691763326
 30
0.0
 10
-429.4036002702774
 20
8437.187229754649
 30
0.0
 10
-429.4263805372979
 20
8437.234687319262
 30
0.0
 10
-429.4408812420774
 20
8437.28991354939
 30
0.0
 10
-429.4422432063893
 20
8437.329363828489
 30
0.0
 10
-429.4429684443961
 20
8437.350370870694
 30
0.0
  0
SPLINE
  5
7F
330
1F
100
AcDbEntity
  8
0
  6
Continuous
 62
     7
370
    25
100
AcDbSpline
210
0.0
220
0.0
230
1.0
 70
     8
 71
     3
 72
    15
 73
    11
 74
     0
 42
0.000000001
 43
0.00000001
 40
0.0
 40
0.0
 40
0.0
 40
0.0
 40
0.1376465333874921
 40
0.2584939900653954
 40
0.3721777144534413
 40
0.4802669656692558
 40
0.5916828156085469
 40
0.712530272286442
 40
0.847138714983747
 40
1.0
 40
1.0
 40
1.0
 40
1.0
 10
-429.4429684443961
 20
8442.318487424747
 30
0.0
 10
-429.4422432063893
 20
8442.339494466954
 30
0.0
 10
-429.4408812420774
 20
8442.378944746053
 30
0.0
 10
-429.4263805372978
 20
8442.434170976183
 30
0.0
 10
-429.4036002702774
 20
8442.481628540796
 30
0.0
 10
-429.3696274596968
 20
8442.520166532118
 30
0.0
 10
-429.3264672687769
 20
8442.54963618353
 30
0.0
 10
-429.2742700437141
 20
8442.570744691668
 30
0.0
 10
-429.212682134529
 20
8442.58150858006
 30
0.0
 10
-429.1689340682936
 20
8442.583415270177
 30
0.0
 10
-429.1456711470987
 20
8442.584429147722
 30
0.0
  0
SPLINE
  5
80
330
1F
100
AcDbEntity
  8
0
  6
Continuous
 62
     7
370
    25
100
AcDbSpline
210
0.0
220
0.0
230
1.0
 70
     8
 71
     3
 72
    15
 73
    11
 74
     0
 42
0.000000001
 43
0.00000001
 40
0.0
 40
0.0
 40
0.0
 40
0.0
 40
0.1691382693021107
 40
0.3176902073342445
 40
0.4474110356377919
 40
0.5634106106294251
 40
0.6687664326274613
 40
0.7731538901271194
 40
0.8800408488352675
 40
1.0
 40
1.0
 40
1.0
 40
1.0
 10
-429.1456711470987
 20
8442.584429147722
 30
0.0
 10
-429.1165619415705
 20
8442.584117252723
 30
0.0
 10
-429.0618865001239
 20
8442.58353142441
 30
0.0
 10
-428.9860225051971
 20
8442.570045277105
 30
0.0
 10
-428.9204476934151
 20
8442.55166299487
 30
0.0
 10
-428.8674330132246
 20
8442.521991519645
 30
0.0
 10
-428.8242947192051
 20
8442.485369743797
 30
0.0
 10
-428.7951809495032
 20
8442.438605939553
 30
0.0
 10
-428.776702495821
 20
8442.384085413052
 30
0.0
 10
-428.7749671818863
 20
8442.344975722042
 30
0.0
 10
-428.7740495254771
 20
8442.324294012587
 30
0.0
  0
SPLINE
  5
83
330
1F
100
AcDbEntity
  8
0
  6
Continuous
 62
     7
370
    25
100
AcDbSpline
210
0.0
220
0.0
230
1.0
 70
     8
 71
     3
 72
    15
 73
    11
 74
     0
 42
0.000000001
 43
0.00000001
 40
0.0
 40
0.0
 40
0.0
 40
0.0
 40
0.1210437057282654
 40
0.2311608615820406
 40
0.3345582471448281
 40
0.4404078971910554
 40
0.5564076305372494
 40
0.685574838637985
 40
0.8323618927655713
 40
1.0
 40
1.0
 40
1.0
 40
1.0
 10
-423.8686441200717
 20
8437.351532188262
 30
0.0
 10
-423.8696423350148
 20
8437.330497823268
 30
0.0
 10
-423.8715486565778
 20
8437.290327854034
 30
0.0
 10
-423.8891502055012
 20
8437.234258854687
 30
0.0
 10
-423.9192615894905
 20
8437.186958228955
 30
0.0
 10
-423.9618509793145
 20
8437.149139035098
 30
0.0
 10
-424.0149573088511
 20
8437.11851464072
 30
0.0
 10
-424.0802820374507
 20
8437.098086381404
 30
0.0
 10
-424.1566771123478
 20
8437.087314040058
 30
0.0
 10
-424.2111976908323
 20
8437.085432372656
 30
0.0
 10
-424.2402657416934
 20
8437.084429147722
 30
0.0
  0
SPLINE
  5
84
330
1F
100
AcDbEntity
  8
0
  6
Continuous
 62
     7
370
    25
100
AcDbSpline
210
0.0
220
0.0
230
1.0
 70
     8
 71
     3
 72
    15
 73
    11
 74
     0
 42
0.000000001
 43
0.00000001
 40
0.0
 40
0.0
 40
0.0
 40
0.0
 40
0.1526075283706633
 40
0.2869925149659829
 40
0.4076393594010009
 40
0.5203370983718993
 40
0.6282469165428374
 40
0.7394778111328738
 40
0.8625819660823868
 40
1.0
 40
1.0
 40
1.0
 40
1.0
 10
-424.2402657416934
 20
8437.084429147722
 30
0.0
 10
-424.2635350165418
 20
8437.08543373797
 30
0.0
 10
-424.307295031408
 20
8437.08732296247
 30
0.0
 10
-424.3688041620587
 20
8437.098202003452
 30
0.0
 10
-424.4214672086493
 20
8437.119019711456
 30
0.0
 10
-424.4639142947459
 20
8437.149945223537
 30
0.0
 10
-424.4978635157335
 20
8437.188124059036
 30
0.0
 10
-424.5214891793467
 20
8437.235266257137
 30
0.0
 10
-424.53526931524
 20
8437.29075633885
 30
0.0
 10
-424.5367709627186
 20
8437.330544870929
 30
0.0
 10
-424.5375630389907
 20
8437.351532188262
 30
0.0
  0
SPLINE
  5
86
330
1F
100
AcDbEntity
  8
0
  6
Continuous
 62
     7
370
    25
100
AcDbSpline
210
0.0
220
0.0
230
1.0
 70
     8
 71
     3
 72
    15
 73
    11
 74
     0
 42
0.000000001
 43
0.00000001
 40
0.0
 40
0.0
 40
0.0
 40
0.0
 40
0.1373554302530801
 40
0.2604035025255284
 40
0.3715837235510251
 40
0.4813661282244688
 40
0.5925463492500319
 40
0.7131382304872755
 40
0.847461995186318
 40
1.0
 40
1.0
 40
1.0
 40
1.0
 10
-424.5375630389907
 20
8442.352165634209
 30
0.0
 10
-424.5367621731164
 20
8442.373144536332
 30
0.0
 10
-424.5352438619852
 20
8442.412917114534
 30
0.0
 10
-424.5215751869436
 20
8442.468513909484
 30
0.0
 10
-424.4974433281247
 20
8442.515563371655
 30
0.0
 10
-424.4647056609934
 20
8442.555025959538
 30
0.0
 10
-424.420991556451
 20
8442.584420893998
 30
0.0
 10
-424.3688864120421
 20
8442.605601195135
 30
0.0
 10
-424.30727013961
 20
8442.616342969406
 30
0.0
 10
-424.2635263753331
 20
8442.618253013654
 30
0.0
 10
-424.2402657416934
 20
8442.619268674749
 30
0.0
  0
SPLINE
  5
87
330
1F
100
AcDbEntity
  8
0
  6
Continuous
 62
     7
370
    25
100
AcDbSpline
210
0.0
220
0.0
230
1.0
 70
     8
 71
     3
 72
    15
 73
    11
 74
     0
 42
0.000000001
 43
0.00000001
 40
0.0
 40
0.0
 40
0.0
 40
0.0
 40
0.1675680039011919
 40
0.314293674242358
 40
0.4434068668690338
 40
0.5582581848719029
 40
0.6655816592802303
 40
0.7689358058593792
 40
0.8790069126387567
 40
1.0
 40
1.0
 40
1.0
 40
1.0
 10
-424.2402657416934
 20
8442.619268674749
 30
0.0
 10
-424.2112068955827
 20
8442.618250888065
 30
0.0
 10
-424.1567035816997
 20
8442.616341908377
 30
0.0
 10
-424.0801958105922
 20
8442.605747850399
 30
0.0
 10
-424.0154092206663
 20
8442.584815737922
 30
0.0
 10
-423.961087280633
 20
8442.555994835751
 30
0.0
 10
-423.9196656445851
 20
8442.516656544189
 30
0.0
 10
-423.8890769795403
 20
8442.46952542184
 30
0.0
 10
-423.8715696247259
 20
8442.413345212442
 30
0.0
 10
-423.8696495412312
 20
8442.373191491202
 30
0.0
 10
-423.8686441200717
 20
8442.352165634209
 30
0.0
  0
SPLINE
  5
89
330
1F
100
AcDbEntity
  8
0
  6
Continuous
 62
     7
370
    25
100
AcDbSpline
210
0.0
220
0.0
230
1.0
 70
     8
 71
     3
 72
    15
 73
    11
 74
     0
 42
0.000000001
 43
0.00000001
 40
0.0
 40
0.0
 40
0.0
 40
0.0
 40
0.1678628092163261
 40
0.3148466165912965
 40
0.4441869603121796
 40
0.5592403382441237
 40
0.665231869074859
 40
0.770656343509695
 40
0.8787940473875263
 40
0.9999999999999999
 40
0.9999999999999999
 40
0.9999999999999999
 40
0.9999999999999999
 10
-424.2402657416934
 20
8443.77361833691
 30
0.0
 10
-424.211203966538
 20
8443.772603370297
 30
0.0
 10
-424.1566951588843
 20
8443.770699679979
 30
0.0
 10
-424.0802232488502
 20
8443.760071095161
 30
0.0
 10
-424.015323774875
 20
8443.739247666814
 30
0.0
 10
-423.9615939989141
 20
8443.710207199578
 30
0.0
 10
-423.9188646271681
 20
8443.672066329347
 30
0.0
 10
-423.8897472900017
 20
8443.624275592
 30
0.0
 10
-423.87131087643
 20
8443.5685938375
 30
0.0
 10
-423.8695661771398
 20
8443.528739339214
 30
0.0
 10
-423.8686441200717
 20
8443.50767661394
 30
0.0
  0
SPLINE
  5
8A
330
1F
100
AcDbEntity
  8
0
  6
Continuous
 62
     7
370
    25
100
AcDbSpline
210
0.0
220
0.0
230
1.0
 70
     8
 71
     3
 72
    15
 73
    11
 74
     0
 42
0.000000001
 43
0.00000001
 40
0.0
 40
0.0
 40
0.0
 40
0.0
 40
0.1226673979139024
 40
0.2322494730060859
 40
0.3370212333530085
 40
0.4438678834494547
 40
0.5582089319051802
 40
0.6867484913209635
 40
0.8331764790611326
 40
1.0
 40
1.0
 40
1.0
 40
1.0
 10
-423.8686441200717
 20
8443.50767661394
 30
0.0
 10
-423.8695921541466
 20
8443.486245227139
 30
0.0
 10
-423.8713870924758
 20
8443.445668607963
 30
0.0
 10
-423.8894020178279
 20
8443.388980742047
 30
0.0
 10
-423.9192501591775
 20
8443.34097763172
 30
0.0
 10
-423.9611410016045
 20
8443.301574748131
 30
0.0
 10
-424.015380709971
 20
8443.272615797752
 30
0.0
 10
-424.0803168145706
 20
8443.252107427248
 30
0.0
 10
-424.1565672293148
 20
8443.239565887174
 30
0.0
 10
-424.2111809535438
 20
8443.237950110135
 30
0.0
 10
-424.2402657416934
 20
8443.237089620694
 30
0.0
  0
SPLINE
  5
8B
330
1F
100
AcDbEntity
  8
0
  6
Continuous
 62
     7
370
    25
100
AcDbSpline
210
0.0
220
0.0
230
1.0
 70
     8
 71
     3
 72
    15
 73
    11
 74
     0
 42
0.000000001
 43
0.00000001
 40
0.0
 40
0.0
 40
0.0
 40
0.0
 40
0.1517345703398991
 40
0.2858502498746565
 40
0.405806960389947
 40
0.5164015829444982
 40
0.6256057515997393
 40
0.7384515324841902
 40
0.8608514970057608
 40
1.0
 40
1.0
 40
1.0
 40
1.0
 10
-424.2402657416934
 20
8443.237089620694
 30
0.0
 10
-424.2635576070599
 20
8443.237952659822
 30
0.0
 10
-424.3074367673606
 20
8443.239578524972
 30
0.0
 10
-424.3687395149273
 20
8443.252246316024
 30
0.0
 10
-424.4210196038853
 20
8443.273010311987
 30
0.0
 10
-424.4646629858699
 20
8443.302533808725
 30
0.0
 10
-424.4978113023501
 20
8443.342147966012
 30
0.0
 10
-424.5212791392356
 20
8443.389935756923
 30
0.0
 10
-424.5354010513566
 20
8443.446110618543
 30
0.0
 10
-424.5368122538216
 20
8443.486296826406
 30
0.0
 10
-424.5375630389907
 20
8443.50767661394
 30
0.0
  0
SPLINE
  5
8C
330
1F
100
AcDbEntity
  8
0
  6
Continuous
 62
     7
370
    25
100
AcDbSpline
210
0.0
220
0.0
230
1.0
 70
     8
 71
     3
 72
    15
 73
    11
 74
     0
 42
0.000000001
 43
0.00000001
 40
0.0
 40
0.0
 40
0.0
 40
0.0
 40
0.1376465333875094
 40
0.2584939900654278
 40
0.372177714453314
 40
0.4802669656692886
 40
0.5916828156084827
 40
0.7125302722863929
 40
0.8471387149837148
 40
1.0
 40
1.0
 40
1.0
 40
1.0
 10
-424.5375630389907
 20
8443.50767661394
 30
0.0
 10
-424.5368378009839
 20
8443.528683656144
 30
0.0
 10
-424.5354758366719
 20
8443.568133935243
 30
0.0
 10
-424.5209751318924
 20
8443.623360165373
 30
0.0
 10
-424.4981948648719
 20
8443.670817729984
 30
0.0
 10
-424.4642220542916
 20
8443.709355721308
 30
0.0
 10
-424.4210618633714
 20
8443.738825372719
 30
0.0
 10
-424.3688646383088
 20
8443.759933880858
 30
0.0
 10
-424.3072767291235
 20
8443.770697769247
 30
0.0
 10
-424.2635286628882
 20
8443.772604459367
 30
0.0
 10
-424.2402657416934
 20
8443.77361833691
 30
0.0
  0
SPLINE
  5
8F
330
1F
100
AcDbEntity
  8
0
  6
Continuous
 62
     7
370
    25
100
AcDbSpline
210
0.0
220
0.0
230
1.0
 70
     8
 71
     3
 72
    15
 73
    11
 74
     0
 42
0.000000001
 43
0.00000001
 40
0.0
 40
0.0
 40
0.0
 40
0.0
 40
0.1196517683247753
 40
0.2283994244659798
 40
0.3325193999703472
 40
0.437605258639706
 40
0.5533075967933931
 40
0.6833774865705448
 40
0.8311903582105195
 40
1.0
 40
1.0
 40
1.0
 40
1.0
 10
-421.5645900660177
 20
8437.34688691799
 30
0.0
 10
-421.565564188727
 20
8437.326223231412
 30
0.0
 10
-421.5674236603361
 20
8437.286778982585
 30
0.0
 10
-421.5854311809945
 20
8437.231694020558
 30
0.0
 10
-421.6148666201542
 20
8437.184682652041
 30
0.0
 10
-421.6579382884118
 20
8437.14792663875
 30
0.0
 10
-421.7112163001325
 20
8437.118733383526
 30
0.0
 10
-421.7761863491884
 20
8437.09799772278
 30
0.0
 10
-421.8526358388882
 20
8437.087341255896
 30
0.0
 10
-421.907148081246
 20
8437.085441836998
 30
0.0
 10
-421.9362116876393
 20
8437.084429147722
 30
0.0
  0
SPLINE
  5
90
330
1F
100
AcDbEntity
  8
0
  6
Continuous
 62
     7
370
    25
100
AcDbSpline
210
0.0
220
0.0
230
1.0
 70
     8
 71
     3
 72
    15
 73
    11
 74
     0
 42
0.000000001
 43
0.00000001
 40
0.0
 40
0.0
 40
0.0
 40
0.0
 40
0.1528612850162737
 40
0.2874697277135491
 40
0.4083171843914503
 40
0.519733034330747
 40
0.6278222855467135
 40
0.7415060099345914
 40
0.8623534666125008
 40
1.0
 40
1.0
 40
1.0
 40
1.0
 10
-421.9362116876393
 20
8437.084429147722
 30
0.0
 10
-421.9594746088342
 20
8437.085443025266
 30
0.0
 10
-422.0032226750695
 20
8437.087349715386
 30
0.0
 10
-422.0648105842546
 20
8437.098113603775
 30
0.0
 10
-422.1170078093175
 20
8437.119222111916
 30
0.0
 10
-422.1601680002374
 20
8437.148691763326
 30
0.0
 10
-422.1941408108178
 20
8437.187229754649
 30
0.0
 10
-422.2169210778384
 20
8437.234687319262
 30
0.0
 10
-422.231421782618
 20
8437.28991354939
 30
0.0
 10
-422.2327837469297
 20
8437.329363828489
 30
0.0
 10
-422.2335089849366
 20
8437.350370870694
 30
0.0
  0
SPLINE
  5
92
330
1F
100
AcDbEntity
  8
0
  6
Continuous
 62
     7
370
    25
100
AcDbSpline
210
0.0
220
0.0
230
1.0
 70
     8
 71
     3
 72
    15
 73
    11
 74
     0
 42
0.000000001
 43
0.00000001
 40
0.0
 40
0.0
 40
0.0
 40
0.0
 40
0.1376465333874921
 40
0.2584939900653954
 40
0.3721777144534413
 40
0.4802669656692558
 40
0.5916828156085469
 40
0.712530272286442
 40
0.847138714983747
 40
1.0
 40
1.0
 40
1.0
 40
1.0
 10
-422.2335089849366
 20
8442.318487424747
 30
0.0
 10
-422.2327837469298
 20
8442.339494466954
 30
0.0
 10
-422.231421782618
 20
8442.378944746053
 30
0.0
 10
-422.2169210778384
 20
8442.434170976183
 30
0.0
 10
-422.1941408108179
 20
8442.481628540796
 30
0.0
 10
-422.1601680002374
 20
8442.520166532118
 30
0.0
 10
-422.1170078093175
 20
8442.54963618353
 30
0.0
 10
-422.0648105842546
 20
8442.570744691668
 30
0.0
 10
-422.0032226750695
 20
8442.58150858006
 30
0.0
 10
-421.9594746088342
 20
8442.583415270177
 30
0.0
 10
-421.9362116876393
 20
8442.584429147722
 30
0.0
  0
SPLINE
  5
94
330
1F
100
AcDbEntity
  8
0
  6
Continuous
 62
     7
370
    25
100
AcDbSpline
210
0.0
220
0.0
230
1.0
 70
     8
 71
     3
 72
    15
 73
    11
 74
     0
 42
0.000000001
 43
0.00000001
 40
0.0
 40
0.0
 40
0.0
 40
0.0
 40
0.1601327662513066
 40
0.2987107685923323
 40
0.4231399381637307
 40
0.5376624358834191
 40
0.6446603163245117
 40
0.7529593943231937
 40
0.8699025011611233
 40
1.0
 40
1.0
 40
1.0
 40
1.0
 10
-419.7703544241258
 20
8442.584429147722
 30
0.0
 10
-419.7416424217901
 20
8442.583692215268
 30
0.0
 10
-419.688083212852
 20
8442.582317545584
 30
0.0
 10
-419.613192176799
 20
8442.568370301848
 30
0.0
 10
-419.5492997504381
 20
8442.545296609851
 30
0.0
 10
-419.4956618671111
 20
8442.51310389785
 30
0.0
 10
-419.4544867534212
 20
8442.469605955412
 30
0.0
 10
-419.4264393791424
 20
8442.416540691585
 30
0.0
 10
-419.4084384116454
 20
8442.354859699433
 30
0.0
 10
-419.4066451057424
 20
8442.31049523814
 30
0.0
 10
-419.4057007079095
 20
8442.287131850426
 30
0.0
  0
SPLINE
  5
95
330
1F
100
AcDbEntity
  8
0
  6
Continuous
 62
     7
370
    25
100
AcDbSpline
210
0.0
220
0.0
230
1.0
 70
     8
 71
     3
 72
    15
 73
    11
 74
     0
 42
0.000000001
 43
0.00000001
 40
0.0
 40
0.0
 40
0.0
 40
0.0
 40
0.1300974988387281
 40
0.247040605676672
 40
0.3553396836753673
 40
0.4623375641165932
 40
0.5768600618362084
 40
0.7012892314076221
 40
0.8398672337486649
 40
1.0
 40
1.0
 40
1.0
 40
1.0
 10
-419.4057007079095
 20
8442.287131850426
 30
0.0
 10
-419.4066451057424
 20
8442.263768462712
 30
0.0
 10
-419.4084384116454
 20
8442.219404001416
 30
0.0
 10
-419.4264393791424
 20
8442.157723009264
 30
0.0
 10
-419.4544867534213
 20
8442.104657745438
 30
0.0
 10
-419.495661867111
 20
8442.061159803
 30
0.0
 10
-419.5492997504381
 20
8442.028967090999
 30
0.0
 10
-419.613192176799
 20
8442.005893399
 30
0.0
 10
-419.688083212852
 20
8441.991946155267
 30
0.0
 10
-419.7416424217901
 20
8441.990571485581
 30
0.0
 10
-419.7703544241258
 20
8441.989834553127
 30
0.0
  0
SPLINE
  5
96
330
1F
100
AcDbEntity
  8
0
  6
Continuous
 62
     7
370
    25
100
AcDbSpline
210
0.0
220
0.0
230
1.0
 70
     8
 71
     3
 72
    15
 73
    11
 74
     0
 42
0.000000001
 43
0.00000001
 40
0.0
 40
0.0
 40
0.0
 40
0.0
 40
0.1212059526124664
 40
0.2293436564902955
 40
0.3347681309251263
 40
0.4407596617558484
 40
0.5558130396878695
 40
0.6851533834087562
 40
0.8321371907836931
 40
0.9999999999999999
 40
0.9999999999999999
 40
0.9999999999999999
 40
0.9999999999999999
 10
-440.5172927687204
 20
8437.350370870694
 30
0.0
 10
-440.5182148257884
 20
8437.32930814542
 30
0.0
 10
-440.5199595250786
 20
8437.289453647134
 30
0.0
 10
-440.5383959386504
 20
8437.233771892634
 30
0.0
 10
-440.5675132758168
 20
8437.185981155286
 30
0.0
 10
-440.6102426475627
 20
8437.147840285055
 30
0.0
 10
-440.6639724235235
 20
8437.118799817821
 30
0.0
 10
-440.7288718974988
 20
8437.097976389474
 30
0.0
 10
-440.805343807533
 20
8437.087347804654
 30
0.0
 10
-440.8598526151867
 20
8437.085444114336
 30
0.0
 10
-440.8889143903419
 20
8437.084429147722
 30
0.0
  0
SPLINE
  5
97
330
1F
100
AcDbEntity
  8
0
  6
Continuous
 62
     7
370
    25
100
AcDbSpline
210
0.0
220
0.0
230
1.0
 70
     8
 71
     3
 72
    15
 73
    11
 74
     0
 42
0.000000001
 43
0.00000001
 40
0.0
 40
0.0
 40
0.0
 40
0.0
 40
0.1528612850162847
 40
0.2874697277135471
 40
0.4083171843914475
 40
0.5197330343307435
 40
0.627822285546717
 40
0.7415060099345941
 40
0.8623534666125027
 40
1.0
 40
1.0
 40
1.0
 40
1.0
 10
-440.8889143903419
 20
8437.084429147722
 30
0.0
 10
-440.9121773115368
 20
8437.085443025266
 30
0.0
 10
-440.9559253777722
 20
8437.087349715386
 30
0.0
 10
-441.0175132869574
 20
8437.098113603775
 30
0.0
 10
-441.0697105120202
 20
8437.119222111916
 30
0.0
 10
-441.1128707029401
 20
8437.148691763326
 30
0.0
 10
-441.1468435135206
 20
8437.187229754649
 30
0.0
 10
-441.1696237805411
 20
8437.234687319262
 30
0.0
 10
-441.1841244853206
 20
8437.28991354939
 30
0.0
 10
-441.1854864496325
 20
8437.329363828489
 30
0.0
 10
-441.1862116876393
 20
8437.350370870694
 30
0.0
  0
SPLINE
  5
9A
330
1F
100
AcDbEntity
  8
0
  6
Continuous
 62
     7
370
    25
100
AcDbSpline
210
0.0
220
0.0
230
1.0
 70
     8
 71
     3
 72
    23
 73
    19
 74
     0
 42
0.000000001
 43
0.00000001
 40
0.0
 40
0.0
 40
0.0
 40
0.0
 40
0.0677237149030705
 40
0.1335720745633796
 40
0.1975528367078148
 40
0.2606519708908954
 40
0.3236025239446267
 40
0.3865132188952805
 40
0.4501927085030046
 40
0.5146862933083668
 40
0.5788888265238425
 40
0.6409404219945974
 40
0.700928484579236
 40
0.7601591271721115
 40
0.8185796184460257
 40
0.8777735481189345
 40
0.9380535928005076
 40
1.0
 40
1.0
 40
1.0
 40
1.0
 10
-442.3777235119637
 20
8439.388483201776
 30
0.0
 10
-442.4230575923023
 20
8439.389684928707
 30
0.0
 10
-442.5124703950101
 20
8439.392055105229
 30
0.0
 10
-442.6439748395385
 20
8439.40822595778
 30
0.0
 10
-442.7701393675958
 20
8439.436550206337
 30
0.0
 10
-442.8916535906551
 20
8439.474715100812
 30
0.0
 10
-443.0081600394564
 20
8439.524620022608
 30
0.0
 10
-443.1188419038572
 20
8439.587015836954
 30
0.0
 10
-443.2248619948361
 20
8439.65888616361
 30
0.0
 10
-443.3240126376824
 20
8439.741284794896
 30
0.0
 10
-443.4156749814128
 20
8439.830514633628
 30
0.0
 10
-443.4941710690561
 20
8439.927602692149
 30
0.0
 10
-443.5631537363578
 20
8440.027722384686
 30
0.0
 10
-443.6170078205694
 20
8440.134015490128
 30
0.0
 10
-443.6613374925943
 20
8440.244044954055
 30
0.0
 10
-443.6906848456945
 20
8440.359696146816
 30
0.0
 10
-443.710378488626
 20
8440.479833337218
 30
0.0
 10
-443.7122766797179
 20
8440.56171989986
 30
0.0
 10
-443.7132387146663
 20
8440.603221377452
 30
0.0
  0
SPLINE
  5
9C
330
1F
100
AcDbEntity
  8
0
  6
Continuous
 62
     7
370
    25
100
AcDbSpline
210
0.0
220
0.0
230
1.0
 70
     8
 71
     3
 72
    15
 73
    11
 74
     0
 42
0.000000001
 43
0.00000001
 40
0.0
 40
0.0
 40
0.0
 40
0.0
 40
0.1354286630937241
 40
0.2590269151055371
 40
0.37070425163994
 40
0.4790471821148086
 40
0.5907245186491004
 40
0.7118555973608297
 40
0.8467799583351227
 40
1.0
 40
1.0
 40
1.0
 40
1.0
 10
-443.7132387146663
 20
8442.319648742317
 30
0.0
 10
-443.7124170748646
 20
8442.340243860084
 30
0.0
 10
-443.7108455698502
 20
8442.37963500299
 30
0.0
 10
-443.6971814773403
 20
8442.43477625805
 30
0.0
 10
-443.6734846716449
 20
8442.481819148114
 30
0.0
 10
-443.6399399120459
 20
8442.520186092559
 30
0.0
 10
-443.5967250598301
 20
8442.549630396737
 30
0.0
 10
-443.5445441787411
 20
8442.570746483812
 30
0.0
 10
-443.4829512351851
 20
8442.581508037692
 30
0.0
 10
-443.4392039325314
 20
8442.583415081896
 30
0.0
 10
-443.4159414173691
 20
8442.584429147722
 30
0.0
  0
SPLINE
  5
9D
330
1F
100
AcDbEntity
  8
0
  6
Continuous
 62
     7
370
    25
100
AcDbSpline
210
0.0
220
0.0
230
1.0
 70
     8
 71
     3
 72
    15
 73
    11
 74
     0
 42
0.000000001
 43
0.00000001
 40
0.0
 40
0.0
 40
0.0
 40
0.0
 40
0.1691382693020995
 40
0.317690207334233
 40
0.4474110356377904
 40
0.5634106106294328
 40
0.6687664326274607
 40
0.7731538901271187
 40
0.8800408488352698
 40
0.9999999999999999
 40
0.9999999999999999
 40
0.9999999999999999
 40
0.9999999999999999
 10
-443.4159414173691
 20
8442.584429147722
 30
0.0
 10
-443.3868322118408
 20
8442.584117252723
 30
0.0
 10
-443.3321567703942
 20
8442.58353142441
 30
0.0
 10
-443.2562927754674
 20
8442.570045277107
 30
0.0
 10
-443.1907179636853
 20
8442.55166299487
 30
0.0
 10
-443.1377032834949
 20
8442.521991519645
 30
0.0
 10
-443.0945649894754
 20
8442.485369743797
 30
0.0
 10
-443.0654512197734
 20
8442.438605939553
 30
0.0
 10
-443.0469727660914
 20
8442.384085413052
 30
0.0
 10
-443.0452374521566
 20
8442.344975722042
 30
0.0
 10
-443.0443197957474
 20
8442.324294012587
 30
0.0
  0
SPLINE
  5
9F
330
1F
100
AcDbEntity
  8
0
  6
Continuous
 62
     7
370
    25
100
AcDbSpline
210
0.0
220
0.0
230
1.0
 70
     8
 71
     3
 72
    15
 73
    11
 74
     0
 42
0.000000001
 43
0.00000001
 40
0.0
 40
0.0
 40
0.0
 40
0.0
 40
0.133977846075301
 40
0.2585396759597736
 40
0.381992123790313
 40
0.5082471279233043
 40
0.6346867604816636
 40
0.7564856546675508
 40
0.8759241120140091
 40
1.0
 40
1.0
 40
1.0
 40
1.0
 10
-443.0443197957474
 20
8440.649674080154
 30
0.0
 10
-443.04209338379
 20
8440.602160957204
 30
0.0
 10
-443.0377970329913
 20
8440.510473952434
 30
0.0
 10
-442.997913455786
 20
8440.37973059481
 30
0.0
 10
-442.9314609572808
 20
8440.263947708998
 30
0.0
 10
-442.8414374650542
 20
8440.164753322575
 30
0.0
 10
-442.7356912592172
 20
8440.08336141928
 30
0.0
 10
-442.6178512310564
 20
8440.026757083067
 30
0.0
 10
-442.4930395872402
 20
8439.989150869373
 30
0.0
 10
-442.4066458720861
 20
8439.985127692851
 30
0.0
 10
-442.3626263835853
 20
8439.98307779637
 30
0.0
  0
SPLINE
  5
A1
330
1F
100
AcDbEntity
  8
0
  6
Continuous
 62
     7
370
    25
100
AcDbSpline
210
0.0
220
0.0
230
1.0
 70
     8
 71
     3
 72
    15
 73
    11
 74
     0
 42
0.000000001
 43
0.00000001
 40
0.0
 40
0.0
 40
0.0
 40
0.0
 40
0.136441189714386
 40
0.2559957227679991
 40
0.3685080101433812
 40
0.4757423758332964
 40
0.5882546632087458
 40
0.7093427114891926
 40
0.8457839012034973
 40
0.9999999999999999
 40
0.9999999999999999
 40
0.9999999999999999
 40
0.9999999999999999
 10
-441.1862116876393
 20
8442.324294012587
 30
0.0
 10
-441.1854912386042
 20
8442.34491918554
 30
0.0
 10
-441.1841395069765
 20
8442.38361685498
 30
0.0
 10
-441.1696065453523
 20
8442.437672074346
 30
0.0
 10
-441.1468701128942
 20
8442.484126982037
 30
0.0
 10
-441.112423223013
 20
8442.521225308741
 30
0.0
 10
-441.0700330787414
 20
8442.5512005612
 30
0.0
 10
-441.0170472399103
 20
8442.569964247507
 30
0.0
 10
-440.9561829593422
 20
8442.583501976427
 30
0.0
 10
-440.912233151542
 20
8442.584107742252
 30
0.0
 10
-440.8889143903421
 20
8442.584429147722
 30
0.0
  0
SPLINE
  5
A2
330
1F
100
AcDbEntity
  8
0
  6
Continuous
 62
     7
370
    25
100
AcDbSpline
210
0.0
220
0.0
230
1.0
 70
     8
 71
     3
 72
    15
 73
    11
 74
     0
 42
0.000000001
 43
0.00000001
 40
0.0
 40
0.0
 40
0.0
 40
0.0
 40
0.1678628092162899
 40
0.314846616591246
 40
0.4441869603121267
 40
0.5592403382441425
 40
0.6652318690747443
 40
0.7706563435097151
 40
0.8787940473875392
 40
1.0
 40
1.0
 40
1.0
 40
1.0
 10
-440.8889143903419
 20
8442.584429147722
 30
0.0
 10
-440.8598526151867
 20
8442.583414181106
 30
0.0
 10
-440.805343807533
 20
8442.58151049079
 30
0.0
 10
-440.7288718974988
 20
8442.570881905971
 30
0.0
 10
-440.6639724235235
 20
8442.550058477625
 30
0.0
 10
-440.6102426475628
 20
8442.52101801039
 30
0.0
 10
-440.5675132758168
 20
8442.482877140155
 30
0.0
 10
-440.5383959386504
 20
8442.43508640281
 30
0.0
 10
-440.5199595250786
 20
8442.379404648313
 30
0.0
 10
-440.5182148257884
 20
8442.339550150025
 30
0.0
 10
-440.5172927687204
 20
8442.318487424747
 30
0.0
  0
SPLINE
  5
A7
330
1F
100
AcDbEntity
  8
0
  6
Continuous
 62
     7
370
    25
100
AcDbSpline
210
0.0
220
0.0
230
1.0
 70
     8
 71
     3
 72
    15
 73
    11
 74
     0
 42
0.000000001
 43
0.00000001
 40
0.0
 40
0.0
 40
0.0
 40
0.0
 40
0.1601327662513199
 40
0.2987107685923186
 40
0.4231399381637204
 40
0.537662435883412
 40
0.6446603163245076
 40
0.7529593943231926
 40
0.8699025011612842
 40
1.0
 40
1.0
 40
1.0
 40
1.0
 10
-436.3435174308825
 20
8437.679023742317
 30
0.0
 10
-436.3148054285469
 20
8437.678286809863
 30
0.0
 10
-436.2612462196087
 20
8437.676912140178
 30
0.0
 10
-436.1863551835559
 20
8437.662964896443
 30
0.0
 10
-436.1224627571949
 20
8437.639891204446
 30
0.0
 10
-436.0688248738678
 20
8437.607698492446
 30
0.0
 10
-436.0276497601781
 20
8437.564200550005
 30
0.0
 10
-435.9996023858992
 20
8437.511135286179
 30
0.0
 10
-435.9816014184021
 20
8437.449454294028
 30
0.0
 10
-435.9798081124992
 20
8437.405089832735
 30
0.0
 10
-435.9788637146663
 20
8437.38172644502
 30
0.0
  0
SPLINE
  5
A8
330
1F
100
AcDbEntity
  8
0
  6
Continuous
 62
     7
370
    25
100
AcDbSpline
210
0.0
220
0.0
230
1.0
 70
     8
 71
     3
 72
    15
 73
    11
 74
     0
 42
0.000000001
 43
0.00000001
 40
0.0
 40
0.0
 40
0.0
 40
0.0
 40
0.1300974988388796
 40
0.2470406056768118
 40
0.3553396836754961
 40
0.462337564116591
 40
0.576860061836282
 40
0.7012892314076831
 40
0.839867233748681
 40
1.0
 40
1.0
 40
1.0
 40
1.0
 10
-435.9788637146663
 20
8437.38172644502
 30
0.0
 10
-435.9798081124992
 20
8437.358363057305
 30
0.0
 10
-435.9816014184021
 20
8437.313998596012
 30
0.0
 10
-435.9996023858992
 20
8437.25231760386
 30
0.0
 10
-436.0276497601781
 20
8437.199252340033
 30
0.0
 10
-436.0688248738678
 20
8437.155754397592
 30
0.0
 10
-436.1224627571949
 20
8437.123561685594
 30
0.0
 10
-436.1863551835557
 20
8437.100487993595
 30
0.0
 10
-436.2612462196087
 20
8437.086540749862
 30
0.0
 10
-436.3148054285469
 20
8437.085166080175
 30
0.0
 10
-436.3435174308825
 20
8437.084429147722
 30
0.0
  0
SPLINE
  5
AA
330
1F
100
AcDbEntity
  8
0
  6
Continuous
 62
     7
370
    25
100
AcDbSpline
210
0.0
220
0.0
230
1.0
 70
     8
 71
     3
 72
    15
 73
    11
 74
     0
 42
0.000000001
 43
0.00000001
 40
0.0
 40
0.0
 40
0.0
 40
0.0
 40
0.1528612850162737
 40
0.2874697277135491
 40
0.4083171843914503
 40
0.519733034330747
 40
0.6278222855467135
 40
0.7415060099345914
 40
0.8623534666125008
 40
1.0
 40
1.0
 40
1.0
 40
1.0
 10
-438.5105360119636
 20
8437.084429147722
 30
0.0
 10
-438.5337989331585
 20
8437.085443025266
 30
0.0
 10
-438.5775469993938
 20
8437.087349715386
 30
0.0
 10
-438.639134908579
 20
8437.098113603775
 30
0.0
 10
-438.6913321336418
 20
8437.119222111916
 30
0.0
 10
-438.7344923245618
 20
8437.148691763326
 30
0.0
 10
-438.7684651351422
 20
8437.187229754649
 30
0.0
 10
-438.7912454021628
 20
8437.234687319262
 30
0.0
 10
-438.8057461069423
 20
8437.28991354939
 30
0.0
 10
-438.8071080712541
 20
8437.329363828489
 30
0.0
 10
-438.8078333092609
 20
8437.350370870694
 30
0.0
  0
SPLINE
  5
AC
330
1F
100
AcDbEntity
  8
0
  6
Continuous
 62
     7
370
    25
100
AcDbSpline
210
0.0
220
0.0
230
1.0
 70
     8
 71
     3
 72
    15
 73
    11
 74
     0
 42
0.000000001
 43
0.00000001
 40
0.0
 40
0.0
 40
0.0
 40
0.0
 40
0.1376465333874921
 40
0.2584939900653954
 40
0.3721777144534413
 40
0.4802669656692558
 40
0.5916828156085469
 40
0.712530272286442
 40
0.847138714983747
 40
1.0
 40
1.0
 40
1.0
 40
1.0
 10
-438.8078333092609
 20
8442.318487424747
 30
0.0
 10
-438.8071080712541
 20
8442.339494466954
 30
0.0
 10
-438.8057461069423
 20
8442.378944746053
 30
0.0
 10
-438.7912454021627
 20
8442.434170976183
 30
0.0
 10
-438.7684651351422
 20
8442.481628540796
 30
0.0
 10
-438.7344923245617
 20
8442.520166532118
 30
0.0
 10
-438.6913321336418
 20
8442.54963618353
 30
0.0
 10
-438.639134908579
 20
8442.570744691668
 30
0.0
 10
-438.5775469993938
 20
8442.58150858006
 30
0.0
 10
-438.5337989331585
 20
8442.583415270177
 30
0.0
 10
-438.5105360119636
 20
8442.584429147722
 30
0.0
  0
SPLINE
  5
AE
330
1F
100
AcDbEntity
  8
0
  6
Continuous
 62
     7
370
    25
100
AcDbSpline
210
0.0
220
0.0
230
1.0
 70
     8
 71
     3
 72
    15
 73
    11
 74
     0
 42
0.000000001
 43
0.00000001
 40
0.0
 40
0.0
 40
0.0
 40
0.0
 40
0.1601327662513066
 40
0.2987107685923323
 40
0.4231399381637307
 40
0.5376624358834191
 40
0.6446603163245117
 40
0.7529593943231937
 40
0.8699025011611233
 40
1.0
 40
1.0
 40
1.0
 40
1.0
 10
-436.3435174308825
 20
8442.584429147722
 30
0.0
 10
-436.3148054285468
 20
8442.583692215268
 30
0.0
 10
-436.2612462196087
 20
8442.582317545584
 30
0.0
 10
-436.1863551835559
 20
8442.568370301848
 30
0.0
 10
-436.1224627571949
 20
8442.545296609851
 30
0.0
 10
-436.0688248738678
 20
8442.51310389785
 30
0.0
 10
-436.0276497601781
 20
8442.469605955412
 30
0.0
 10
-435.9996023858992
 20
8442.416540691585
 30
0.0
 10
-435.9816014184021
 20
8442.354859699433
 30
0.0
 10
-435.9798081124992
 20
8442.31049523814
 30
0.0
 10
-435.9788637146663
 20
8442.287131850426
 30
0.0
  0
SPLINE
  5
AF
330
1F
100
AcDbEntity
  8
0
  6
Continuous
 62
     7
370
    25
100
AcDbSpline
210
0.0
220
0.0
230
1.0
 70
     8
 71
     3
 72
    15
 73
    11
 74
     0
 42
0.000000001
 43
0.00000001
 40
0.0
 40
0.0
 40
0.0
 40
0.0
 40
0.1300974988387281
 40
0.247040605676672
 40
0.3553396836753673
 40
0.4623375641165932
 40
0.5768600618362084
 40
0.7012892314076221
 40
0.8398672337486649
 40
1.0
 40
1.0
 40
1.0
 40
1.0
 10
-435.9788637146663
 20
8442.287131850426
 30
0.0
 10
-435.9798081124992
 20
8442.263768462712
 30
0.0
 10
-435.9816014184021
 20
8442.219404001416
 30
0.0
 10
-435.9996023858992
 20
8442.157723009264
 30
0.0
 10
-436.0276497601781
 20
8442.104657745438
 30
0.0
 10
-436.0688248738678
 20
8442.061159803
 30
0.0
 10
-436.1224627571949
 20
8442.028967090999
 30
0.0
 10
-436.1863551835559
 20
8442.005893399
 30
0.0
 10
-436.2612462196087
 20
8441.991946155267
 30
0.0
 10
-436.3148054285469
 20
8441.990571485581
 30
0.0
 10
-436.3435174308825
 20
8441.989834553127
 30
0.0
  0
SPLINE
  5
B3
330
1F
100
AcDbEntity
  8
0
  6
Continuous
 62
     7
370
    25
100
AcDbSpline
210
0.0
220
0.0
230
1.0
 70
     8
 71
     3
 72
    15
 73
    11
 74
     0
 42
0.000000001
 43
0.00000001
 40
0.0
 40
0.0
 40
0.0
 40
0.0
 40
0.1601327662513293
 40
0.298710768592317
 40
0.4231399381637181
 40
0.537662435883409
 40
0.6446603163245038
 40
0.7529593943231883
 40
0.8699025011611204
 40
1.0
 40
1.0
 40
1.0
 40
1.0
 10
-437.2075377011528
 20
8440.354699417992
 30
0.0
 10
-437.1788256988171
 20
8440.35396248554
 30
0.0
 10
-437.125266489879
 20
8440.352587815854
 30
0.0
 10
-437.0503754538261
 20
8440.338640572121
 30
0.0
 10
-436.9864830274652
 20
8440.315566880121
 30
0.0
 10
-436.9328451441381
 20
8440.28337416812
 30
0.0
 10
-436.8916700304483
 20
8440.23987622568
 30
0.0
 10
-436.8636226561695
 20
8440.186810961855
 30
0.0
 10
-436.8456216886724
 20
8440.125129969705
 30
0.0
 10
-436.8438283827694
 20
8440.08076550841
 30
0.0
 10
-436.8428839849366
 20
8440.057402120696
 30
0.0
  0
SPLINE
  5
B4
330
1F
100
AcDbEntity
  8
0
  6
Continuous
 62
     7
370
    25
100
AcDbSpline
210
0.0
220
0.0
230
1.0
 70
     8
 71
     3
 72
    15
 73
    11
 74
     0
 42
0.000000001
 43
0.00000001
 40
0.0
 40
0.0
 40
0.0
 40
0.0
 40
0.1300974988387157
 40
0.2470406056768073
 40
0.3553396836754922
 40
0.4623375641165877
 40
0.5768600618362794
 40
0.7012892314076812
 40
0.8398672337486697
 40
1.0
 40
1.0
 40
1.0
 40
1.0
 10
-436.8428839849366
 20
8440.057402120696
 30
0.0
 10
-436.8438283827694
 20
8440.03403873298
 30
0.0
 10
-436.8456216886724
 20
8439.989674271686
 30
0.0
 10
-436.8636226561695
 20
8439.927993279536
 30
0.0
 10
-436.8916700304483
 20
8439.874928015708
 30
0.0
 10
-436.9328451441381
 20
8439.831430073267
 30
0.0
 10
-436.9864830274652
 20
8439.799237361269
 30
0.0
 10
-437.0503754538261
 20
8439.77616366927
 30
0.0
 10
-437.125266489879
 20
8439.762216425537
 30
0.0
 10
-437.1788256988171
 20
8439.760841755851
 30
0.0
 10
-437.2075377011528
 20
8439.760104823397
 30
0.0
  0
SPLINE
  5
B6
330
1F
100
AcDbEntity
  8
0
  6
Continuous
 62
     7
370
    25
100
AcDbSpline
210
0.0
220
0.0
230
1.0
 70
     8
 71
     3
 72
    23
 73
    19
 74
     0
 42
0.000000001
 43
0.00000001
 40
0.0
 40
0.0
 40
0.0
 40
0.0
 40
0.0710945843310245
 40
0.139851176086518
 40
0.2061119140014025
 40
0.2717487563772534
 40
0.3359468809437017
 40
0.4007682675709618
 40
0.4653066586776925
 40
0.5309148928105555
 40
0.5953975062461586
 40
0.6572827618442243
 40
0.7162607946811398
 40
0.7738511042104813
 40
0.8302612155035568
 40
0.8861978689581697
 40
0.9428459869782403
 40
0.9999999999999999
 40
0.9999999999999999
 40
0.9999999999999999
 40
0.9999999999999999
 10
-432.5773645592609
 20
8442.584429147722
 30
0.0
 10
-432.5281422343274
 20
8442.58338434843
 30
0.0
 10
-432.4313162932738
 20
8442.581329108767
 30
0.0
 10
-432.2896392313054
 20
8442.56306086053
 30
0.0
 10
-432.1532773453052
 20
8442.535896021092
 30
0.0
 10
-432.0237264162776
 20
8442.494736267197
 30
0.0
 10
-431.8988817399899
 20
8442.443617129436
 30
0.0
 10
-431.7810125801919
 20
8442.379494083985
 30
0.0
 10
-431.6684178568901
 20
8442.304785553673
 30
0.0
 10
-431.5641669248901
 20
8442.219228641721
 30
0.0
 10
-431.4679028900645
 20
8442.12740546516
 30
0.0
 10
-431.3845721684761
 20
8442.029652173245
 30
0.0
 10
-431.3123729323987
 20
8441.929214201584
 30
0.0
 10
-431.2542118809646
 20
8441.824265330393
 30
0.0
 10
-431.208581068523
 20
8441.715645006734
 30
0.0
 10
-431.1753739987105
 20
8441.603211145113
 30
0.0
 10
-431.1570642291513
 20
8441.486809074902
 30
0.0
 10
-431.1539779189064
 20
8441.408072799139
 30
0.0
 10
-431.1524279038554
 20
8441.368529654479
 30
0.0
  0
SPLINE
  5
B8
330
1F
100
AcDbEntity
  8
0
  6
Continuous
 62
     7
370
    25
100
AcDbSpline
210
0.0
220
0.0
230
1.0
 70
     8
 71
     3
 72
    23
 73
    19
 74
     0
 42
0.000000001
 43
0.00000001
 40
0.0
 40
0.0
 40
0.0
 40
0.0
 40
0.0573739994865173
 40
0.1143616005067951
 40
0.1703884478485604
 40
0.2263109751766777
 40
0.2841534310703634
 40
0.3435280638929403
 40
0.4048921136338616
 40
0.4692537240661088
 40
0.5347142825344896
 40
0.5987563321429176
 40
0.6631007758819168
 40
0.7270614521198818
 40
0.7929856708148563
 40
0.8595365166367417
 40
0.9285941438403024
 40
1.0
 40
1.0
 40
1.0
 40
1.0
 10
-431.1524279038554
 20
8440.600898742316
 30
0.0
 10
-431.1533305293577
 20
8440.56132155337
 30
0.0
 10
-431.1551297014221
 20
8440.482433717207
 30
0.0
 10
-431.1761533421429
 20
8440.366538728189
 30
0.0
 10
-431.2070214824781
 20
8440.254143372853
 30
0.0
 10
-431.2519244233317
 20
8440.14573381369
 30
0.0
 10
-431.310598339332
 20
8440.041644079347
 30
0.0
 10
-431.3801838604467
 20
8439.939920722352
 30
0.0
 10
-431.4637129994096
 20
8439.843218090891
 30
0.0
 10
-431.5582914236186
 20
8439.751367605317
 30
0.0
 10
-431.6611285940164
 20
8439.665772560158
 30
0.0
 10
-431.7728999460246
 20
8439.592213299546
 30
0.0
 10
-431.88987100237
 20
8439.529509391416
 30
0.0
 10
-432.0135332944719
 20
8439.477874981078
 30
0.0
 10
-432.1428480291461
 20
8439.437069097095
 30
0.0
 10
-432.2791810905591
 20
8439.409836781875
 30
0.0
 10
-432.420866093279
 20
8439.391587122227
 30
0.0
 10
-432.5176909350495
 20
8439.38952930924
 30
0.0
 10
-432.5669127011528
 20
8439.388483201776
 30
0.0
  0
SPLINE
  5
BB
330
1F
100
AcDbEntity
  8
0
  6
Continuous
 62
     7
370
    25
100
AcDbSpline
210
0.0
220
0.0
230
1.0
 70
     8
 71
     3
 72
    15
 73
    11
 74
     0
 42
0.000000001
 43
0.00000001
 40
0.0
 40
0.0
 40
0.0
 40
0.0
 40
0.1155565970086278
 40
0.2285477569700791
 40
0.3457503043862588
 40
0.4731712254279939
 40
0.6038788589352647
 40
0.733048199305016
 40
0.8636538436165702
 40
1.0
 40
1.0
 40
1.0
 40
1.0
 10
-431.8213468227744
 20
8441.346464620696
 30
0.0
 10
-431.8239347288246
 20
8441.38901435319
 30
0.0
 10
-431.8290530876059
 20
8441.473169184444
 30
0.0
 10
-431.873320562729
 20
8441.59417405648
 30
0.0
 10
-431.946889227311
 20
8441.704121461733
 30
0.0
 10
-432.045112717399
 20
8441.801896534529
 30
0.0
 10
-432.1611831784695
 20
8441.885405457557
 30
0.0
 10
-432.2918178761261
 20
8441.946405638371
 30
0.0
 10
-432.4336171907046
 20
8441.983859004738
 30
0.0
 10
-432.5318415467901
 20
8441.98781435183
 30
0.0
 10
-432.5820098295312
 20
8441.989834553127
 30
0.0
  0
SPLINE
  5
BD
330
1F
100
AcDbEntity
  8
0
  6
Continuous
 62
     7
370
    25
100
AcDbSpline
210
0.0
220
0.0
230
1.0
 70
     8
 71
     3
 72
    15
 73
    11
 74
     0
 42
0.000000001
 43
0.00000001
 40
0.0
 40
0.0
 40
0.0
 40
0.0
 40
0.1375323246206638
 40
0.2692883422761632
 40
0.39674330516555
 40
0.5269703848220565
 40
0.6530252558917541
 40
0.7712268327057465
 40
0.884329432719602
 40
1.0
 40
1.0
 40
1.0
 40
1.0
 10
-432.5820098295312
 20
8439.98307779637
 30
0.0
 10
-432.5314443078795
 20
8439.985071339666
 30
0.0
 10
-432.4324369978563
 20
8439.988974698172
 30
0.0
 10
-432.2906658414684
 20
8440.02653982417
 30
0.0
 10
-432.1595891882621
 20
8440.085189056936
 30
0.0
 10
-432.0441391504762
 20
8440.167243250493
 30
0.0
 10
-431.9461709135066
 20
8440.264725380524
 30
0.0
 10
-431.8736340429195
 20
8440.375073188125
 30
0.0
 10
-431.8290025837364
 20
8440.49622703673
 30
0.0
 10
-431.8239177686925
 20
8440.580403238437
 30
0.0
 10
-431.8213468227744
 20
8440.6229637761
 30
0.0
  0
SPLINE
  5
C1
330
1F
100
AcDbEntity
  8
0
  6
Continuous
 62
     7
370
    25
100
AcDbSpline
210
0.0
220
0.0
230
1.0
 70
     8
 71
     3
 72
    15
 73
    11
 74
     0
 42
0.000000001
 43
0.00000001
 40
0.0
 40
0.0
 40
0.0
 40
0.0
 40
0.1212059526124667
 40
0.2293436564902918
 40
0.334768130925122
 40
0.4407596617558512
 40
0.5558130396878718
 40
0.6851533834087474
 40
0.8321371907836835
 40
1.0
 40
1.0
 40
1.0
 40
1.0
 10
-433.6794549308826
 20
8437.350370870694
 30
0.0
 10
-433.6803769879506
 20
8437.32930814542
 30
0.0
 10
-433.6821216872408
 20
8437.289453647134
 30
0.0
 10
-433.7005581008125
 20
8437.233771892634
 30
0.0
 10
-433.7296754379789
 20
8437.185981155286
 30
0.0
 10
-433.7724048097249
 20
8437.147840285055
 30
0.0
 10
-433.8261345856857
 20
8437.118799817821
 30
0.0
 10
-433.8910340596609
 20
8437.097976389474
 30
0.0
 10
-433.9675059696951
 20
8437.087347804654
 30
0.0
 10
-434.0220147773488
 20
8437.085444114336
 30
0.0
 10
-434.0510765525042
 20
8437.084429147722
 30
0.0
  0
SPLINE
  5
C2
330
1F
100
AcDbEntity
  8
0
  6
Continuous
 62
     7
370
    25
100
AcDbSpline
210
0.0
220
0.0
230
1.0
 70
     8
 71
     3
 72
    15
 73
    11
 74
     0
 42
0.000000001
 43
0.00000001
 40
0.0
 40
0.0
 40
0.0
 40
0.0
 40
0.1528612850162737
 40
0.2874697277135491
 40
0.4083171843914503
 40
0.519733034330747
 40
0.6278222855467135
 40
0.7415060099345914
 40
0.8623534666125008
 40
1.0
 40
1.0
 40
1.0
 40
1.0
 10
-434.0510765525042
 20
8437.084429147722
 30
0.0
 10
-434.074339473699
 20
8437.085443025266
 30
0.0
 10
-434.1180875399343
 20
8437.087349715386
 30
0.0
 10
-434.1796754491195
 20
8437.098113603775
 30
0.0
 10
-434.2318726741823
 20
8437.119222111916
 30
0.0
 10
-434.2750328651023
 20
8437.148691763326
 30
0.0
 10
-434.3090056756827
 20
8437.187229754649
 30
0.0
 10
-434.3317859427033
 20
8437.234687319262
 30
0.0
 10
-434.3462866474828
 20
8437.28991354939
 30
0.0
 10
-434.3476486117947
 20
8437.329363828489
 30
0.0
 10
-434.3483738498014
 20
8437.350370870694
 30
0.0
  0
SPLINE
  5
C4
330
1F
100
AcDbEntity
  8
0
  6
Continuous
 62
     7
370
    25
100
AcDbSpline
210
0.0
220
0.0
230
1.0
 70
     8
 71
     3
 72
    15
 73
    11
 74
     0
 42
0.000000001
 43
0.00000001
 40
0.0
 40
0.0
 40
0.0
 40
0.0
 40
0.1402867790406251
 40
0.2628239228034419
 40
0.3786882539366105
 40
0.4871622699041839
 40
0.5964991609582064
 40
0.7172707065234716
 40
0.8493763695269811
 40
1.0
 40
1.0
 40
1.0
 40
1.0
 10
-434.3483738498014
 20
8442.318487424747
 30
0.0
 10
-434.347494249241
 20
8442.339453489
 30
0.0
 10
-434.345846338644
 20
8442.378732908557
 30
0.0
 10
-434.3333247710433
 20
8442.434382495596
 30
0.0
 10
-434.3100139488762
 20
8442.481260082768
 30
0.0
 10
-434.2776114630971
 20
8442.51973527966
 30
0.0
 10
-434.2364399865783
 20
8442.549990959258
 30
0.0
 10
-434.1858197057885
 20
8442.570490604827
 30
0.0
 10
-434.1262607247953
 20
8442.58158516635
 30
0.0
 10
-434.0840278922872
 20
8442.583440644412
 30
0.0
 10
-434.0615284106123
 20
8442.584429147722
 30
0.0
  0
SPLINE
  5
C6
330
1F
100
AcDbEntity
  8
0
  6
Continuous
 62
     7
370
    25
100
AcDbSpline
210
0.0
220
0.0
230
1.0
 70
     8
 71
     3
 72
    15
 73
    11
 74
     0
 42
0.000000001
 43
0.00000001
 40
0.0
 40
0.0
 40
0.0
 40
0.0
 40
0.1210437057282654
 40
0.2311608615820406
 40
0.3345582471448281
 40
0.4404078971910554
 40
0.5564076305372494
 40
0.685574838637985
 40
0.8323618927655713
 40
1.0
 40
1.0
 40
1.0
 40
1.0
 10
-417.1051306065582
 20
8437.351532188262
 30
0.0
 10
-417.1061288215013
 20
8437.330497823268
 30
0.0
 10
-417.1080351430643
 20
8437.290327854034
 30
0.0
 10
-417.1256366919877
 20
8437.234258854687
 30
0.0
 10
-417.155748075977
 20
8437.186958228955
 30
0.0
 10
-417.198337465801
 20
8437.149139035098
 30
0.0
 10
-417.2514437953376
 20
8437.11851464072
 30
0.0
 10
-417.3167685239372
 20
8437.098086381404
 30
0.0
 10
-417.3931635988343
 20
8437.087314040058
 30
0.0
 10
-417.4476841773188
 20
8437.085432372656
 30
0.0
 10
-417.4767522281799
 20
8437.084429147722
 30
0.0
  0
SPLINE
  5
C7
330
1F
100
AcDbEntity
  8
0
  6
Continuous
 62
     7
370
    25
100
AcDbSpline
210
0.0
220
0.0
230
1.0
 70
     8
 71
     3
 72
    15
 73
    11
 74
     0
 42
0.000000001
 43
0.00000001
 40
0.0
 40
0.0
 40
0.0
 40
0.0
 40
0.1526075283706633
 40
0.2869925149659829
 40
0.4076393594010009
 40
0.5203370983718993
 40
0.6282469165428374
 40
0.7394778111328738
 40
0.8625819660823868
 40
1.0
 40
1.0
 40
1.0
 40
1.0
 10
-417.4767522281799
 20
8437.084429147722
 30
0.0
 10
-417.5000215030283
 20
8437.08543373797
 30
0.0
 10
-417.5437815178946
 20
8437.08732296247
 30
0.0
 10
-417.6052906485452
 20
8437.098202003452
 30
0.0
 10
-417.6579536951359
 20
8437.119019711456
 30
0.0
 10
-417.7004007812324
 20
8437.149945223537
 30
0.0
 10
-417.7343500022199
 20
8437.188124059036
 30
0.0
 10
-417.7579756658332
 20
8437.235266257137
 30
0.0
 10
-417.7717558017265
 20
8437.29075633885
 30
0.0
 10
-417.7732574492051
 20
8437.330544870929
 30
0.0
 10
-417.7740495254772
 20
8437.351532188262
 30
0.0
  0
SPLINE
  5
C9
330
1F
100
AcDbEntity
  8
0
  6
Continuous
 62
     7
370
    25
100
AcDbSpline
210
0.0
220
0.0
230
1.0
 70
     8
 71
     3
 72
    15
 73
    11
 74
     0
 42
0.000000001
 43
0.00000001
 40
0.0
 40
0.0
 40
0.0
 40
0.0
 40
0.1373554302530801
 40
0.2604035025255284
 40
0.3715837235510251
 40
0.4813661282244688
 40
0.5925463492500319
 40
0.7131382304872755
 40
0.847461995186318
 40
1.0
 40
1.0
 40
1.0
 40
1.0
 10
-417.7740495254772
 20
8442.352165634209
 30
0.0
 10
-417.7732486596029
 20
8442.373144536332
 30
0.0
 10
-417.7717303484716
 20
8442.412917114534
 30
0.0
 10
-417.7580616734301
 20
8442.468513909484
 30
0.0
 10
-417.7339298146111
 20
8442.515563371655
 30
0.0
 10
-417.7011921474799
 20
8442.555025959538
 30
0.0
 10
-417.6574780429375
 20
8442.584420893998
 30
0.0
 10
-417.6053728985286
 20
8442.605601195135
 30
0.0
 10
-417.5437566260965
 20
8442.616342969406
 30
0.0
 10
-417.5000128618195
 20
8442.618253013654
 30
0.0
 10
-417.4767522281799
 20
8442.619268674749
 30
0.0
  0
SPLINE
  5
CA
330
1F
100
AcDbEntity
  8
0
  6
Continuous
 62
     7
370
    25
100
AcDbSpline
210
0.0
220
0.0
230
1.0
 70
     8
 71
     3
 72
    15
 73
    11
 74
     0
 42
0.000000001
 43
0.00000001
 40
0.0
 40
0.0
 40
0.0
 40
0.0
 40
0.1675680039011919
 40
0.314293674242358
 40
0.4434068668690338
 40
0.5582581848719029
 40
0.6655816592802303
 40
0.7689358058593792
 40
0.8790069126387567
 40
1.0
 40
1.0
 40
1.0
 40
1.0
 10
-417.4767522281799
 20
8442.619268674749
 30
0.0
 10
-417.4476933820692
 20
8442.618250888065
 30
0.0
 10
-417.3931900681861
 20
8442.616341908377
 30
0.0
 10
-417.3166822970787
 20
8442.605747850399
 30
0.0
 10
-417.2518957071527
 20
8442.584815737922
 30
0.0
 10
-417.1975737671194
 20
8442.555994835751
 30
0.0
 10
-417.1561521310716
 20
8442.516656544189
 30
0.0
 10
-417.1255634660268
 20
8442.46952542184
 30
0.0
 10
-417.1080561112123
 20
8442.413345212442
 30
0.0
 10
-417.1061360277178
 20
8442.373191491202
 30
0.0
 10
-417.1051306065582
 20
8442.352165634209
 30
0.0
  0
SPLINE
  5
CC
330
1F
100
AcDbEntity
  8
0
  6
Continuous
 62
     7
370
    25
100
AcDbSpline
210
0.0
220
0.0
230
1.0
 70
     8
 71
     3
 72
    15
 73
    11
 74
     0
 42
0.000000001
 43
0.00000001
 40
0.0
 40
0.0
 40
0.0
 40
0.0
 40
0.1678628092163261
 40
0.3148466165912965
 40
0.4441869603121796
 40
0.5592403382441237
 40
0.665231869074859
 40
0.770656343509695
 40
0.8787940473875263
 40
0.9999999999999999
 40
0.9999999999999999
 40
0.9999999999999999
 40
0.9999999999999999
 10
-417.4767522281799
 20
8443.77361833691
 30
0.0
 10
-417.4476904530245
 20
8443.772603370297
 30
0.0
 10
-417.3931816453708
 20
8443.770699679979
 30
0.0
 10
-417.3167097353367
 20
8443.760071095161
 30
0.0
 10
-417.2518102613614
 20
8443.739247666814
 30
0.0
 10
-417.1980804854005
 20
8443.710207199578
 30
0.0
 10
-417.1553511136547
 20
8443.672066329347
 30
0.0
 10
-417.1262337764882
 20
8443.624275592
 30
0.0
 10
-417.1077973629165
 20
8443.5685938375
 30
0.0
 10
-417.1060526636263
 20
8443.528739339214
 30
0.0
 10
-417.1051306065582
 20
8443.50767661394
 30
0.0
  0
SPLINE
  5
CD
330
1F
100
AcDbEntity
  8
0
  6
Continuous
 62
     7
370
    25
100
AcDbSpline
210
0.0
220
0.0
230
1.0
 70
     8
 71
     3
 72
    15
 73
    11
 74
     0
 42
0.000000001
 43
0.00000001
 40
0.0
 40
0.0
 40
0.0
 40
0.0
 40
0.1226673979139024
 40
0.2322494730060859
 40
0.3370212333530085
 40
0.4438678834494547
 40
0.5582089319051802
 40
0.6867484913209635
 40
0.8331764790611326
 40
1.0
 40
1.0
 40
1.0
 40
1.0
 10
-417.1051306065582
 20
8443.50767661394
 30
0.0
 10
-417.106078640633
 20
8443.486245227139
 30
0.0
 10
-417.1078735789623
 20
8443.445668607963
 30
0.0
 10
-417.1258885043144
 20
8443.388980742047
 30
0.0
 10
-417.155736645664
 20
8443.34097763172
 30
0.0
 10
-417.197627488091
 20
8443.301574748131
 30
0.0
 10
-417.2518671964575
 20
8443.272615797752
 30
0.0
 10
-417.3168033010571
 20
8443.252107427248
 30
0.0
 10
-417.3930537158013
 20
8443.239565887174
 30
0.0
 10
-417.4476674400303
 20
8443.237950110135
 30
0.0
 10
-417.4767522281799
 20
8443.237089620694
 30
0.0
  0
SPLINE
  5
CE
330
1F
100
AcDbEntity
  8
0
  6
Continuous
 62
     7
370
    25
100
AcDbSpline
210
0.0
220
0.0
230
1.0
 70
     8
 71
     3
 72
    15
 73
    11
 74
     0
 42
0.000000001
 43
0.00000001
 40
0.0
 40
0.0
 40
0.0
 40
0.0
 40
0.1517345703398991
 40
0.2858502498746565
 40
0.405806960389947
 40
0.5164015829444982
 40
0.6256057515997393
 40
0.7384515324841902
 40
0.8608514970057608
 40
1.0
 40
1.0
 40
1.0
 40
1.0
 10
-417.4767522281799
 20
8443.237089620694
 30
0.0
 10
-417.5000440935464
 20
8443.237952659822
 30
0.0
 10
-417.543923253847
 20
8443.239578524972
 30
0.0
 10
-417.6052260014138
 20
8443.252246316024
 30
0.0
 10
-417.657506090372
 20
8443.273010311987
 30
0.0
 10
-417.7011494723563
 20
8443.302533808725
 30
0.0
 10
-417.7342977888366
 20
8443.342147966012
 30
0.0
 10
-417.7577656257221
 20
8443.389935756923
 30
0.0
 10
-417.7718875378431
 20
8443.446110618543
 30
0.0
 10
-417.773298740308
 20
8443.486296826406
 30
0.0
 10
-417.7740495254772
 20
8443.50767661394
 30
0.0
  0
SPLINE
  5
CF
330
1F
100
AcDbEntity
  8
0
  6
Continuous
 62
     7
370
    25
100
AcDbSpline
210
0.0
220
0.0
230
1.0
 70
     8
 71
     3
 72
    15
 73
    11
 74
     0
 42
0.000000001
 43
0.00000001
 40
0.0
 40
0.0
 40
0.0
 40
0.0
 40
0.1376465333875094
 40
0.2584939900654278
 40
0.372177714453314
 40
0.4802669656692886
 40
0.5916828156084827
 40
0.7125302722863929
 40
0.8471387149837148
 40
1.0
 40
1.0
 40
1.0
 40
1.0
 10
-417.7740495254772
 20
8443.50767661394
 30
0.0
 10
-417.7733242874704
 20
8443.528683656144
 30
0.0
 10
-417.7719623231586
 20
8443.568133935243
 30
0.0
 10
-417.757461618379
 20
8443.623360165373
 30
0.0
 10
-417.7346813513584
 20
8443.670817729984
 30
0.0
 10
-417.700708540778
 20
8443.709355721308
 30
0.0
 10
-417.657548349858
 20
8443.738825372719
 30
0.0
 10
-417.6053511247952
 20
8443.759933880858
 30
0.0
 10
-417.5437632156101
 20
8443.770697769247
 30
0.0
 10
-417.5000151493747
 20
8443.772604459367
 30
0.0
 10
-417.4767522281799
 20
8443.77361833691
 30
0.0
  0
SPLINE
  5
D0
330
1F
100
AcDbEntity
  8
0
  6
Continuous
 62
     7
370
    25
100
AcDbSpline
210
0.0
220
0.0
230
1.0
 70
     8
 71
     3
 72
    15
 73
    11
 74
     0
 42
0.000000001
 43
0.00000001
 40
0.0
 40
0.0
 40
0.0
 40
0.0
 40
0.1388373929378593
 40
0.2701582847264342
 40
0.3989884324639409
 40
0.5279254652810506
 40
0.6536488833888778
 40
0.7707926869858305
 40
0.8842054408518428
 40
1.0
 40
1.0
 40
1.0
 40
1.0
 10
-413.6595013835853
 20
8437.679023742317
 30
0.0
 10
-413.6062235950358
 20
8437.681377716095
 30
0.0
 10
-413.5025524178121
 20
8437.685958222139
 30
0.0
 10
-413.3535417889815
 20
8437.72466762433
 30
0.0
 10
-413.2168175623385
 20
8437.786194837607
 30
0.0
 10
-413.0969911367648
 20
8437.872639612913
 30
0.0
 10
-412.9956127535847
 20
8437.974012954568
 30
0.0
 10
-412.921880782527
 20
8438.090055115777
 30
0.0
 10
-412.8760405819355
 20
8438.21650205686
 30
0.0
 10
-412.8711266284575
 20
8438.30459818816
 30
0.0
 10
-412.8686441200717
 20
8438.349103978802
 30
0.0
  0
SPLINE
  5
D2
330
1F
100
AcDbEntity
  8
0
  6
Continuous
 62
     7
370
    25
100
AcDbSpline
210
0.0
220
0.0
230
1.0
 70
     8
 71
     3
 72
    15
 73
    11
 74
     0
 42
0.000000001
 43
0.00000001
 40
0.0
 40
0.0
 40
0.0
 40
0.0
 40
0.116121034851523
 40
0.229238334071562
 40
0.3458576028265162
 40
0.4719354904504277
 40
0.6020627689764306
 40
0.7303354448449983
 40
0.8617808988784521
 40
1.0
 40
1.0
 40
1.0
 40
1.0
 10
-412.8686441200717
 20
8439.093508539614
 30
0.0
 10
-412.870975058669
 20
8439.138061658434
 30
0.0
 10
-412.8755766408162
 20
8439.226015427957
 30
0.0
 10
-412.9233426057381
 20
8439.351251103748
 30
0.0
 10
-412.9970859193273
 20
8439.466382892722
 30
0.0
 10
-413.0982134268994
 20
8439.568140599318
 30
0.0
 10
-413.2188078870905
 20
8439.6532906097
 30
0.0
 10
-413.3547393877655
 20
8439.716298996109
 30
0.0
 10
-413.5035617466112
 20
8439.752621326674
 30
0.0
 10
-413.6066582845297
 20
8439.757568898816
 30
0.0
 10
-413.6595013835853
 20
8439.760104823397
 30
0.0
  0
SPLINE
  5
D5
330
1F
100
AcDbEntity
  8
0
  6
Continuous
 62
     7
370
    25
100
AcDbSpline
210
0.0
220
0.0
230
1.0
 70
     8
 71
     3
 72
    15
 73
    11
 74
     0
 42
0.000000001
 43
0.00000001
 40
0.0
 40
0.0
 40
0.0
 40
0.0
 40
0.1403308639606409
 40
0.2740905633270841
 40
0.4035553748505517
 40
0.5352749229318922
 40
0.6620896139612882
 40
0.7788218579225465
 40
0.8883833136163881
 40
1.0
 40
1.0
 40
1.0
 40
1.0
 10
-413.8766677687204
 20
8440.354699417992
 30
0.0
 10
-413.8241401735165
 20
8440.356550248522
 30
0.0
 10
-413.7215446520945
 20
8440.360165242171
 30
0.0
 10
-413.5750098948962
 20
8440.39952954976
 30
0.0
 10
-413.4390092951398
 20
8440.458543147211
 30
0.0
 10
-413.3208133774883
 20
8440.543700473783
 30
0.0
 10
-413.2190150247052
 20
8440.641167777472
 30
0.0
 10
-413.1459189951449
 20
8440.751943716929
 30
0.0
 10
-413.0989043327108
 20
8440.870982008857
 30
0.0
 10
-413.0940611741267
 20
8440.953901644638
 30
0.0
 10
-413.0916170930447
 20
8440.995746715289
 30
0.0
  0
SPLINE
  5
D7
330
1F
100
AcDbEntity
  8
0
  6
Continuous
 62
     7
370
    25
100
AcDbSpline
210
0.0
220
0.0
230
1.0
 70
     8
 71
     3
 72
    15
 73
    11
 74
     0
 42
0.000000001
 43
0.00000001
 40
0.0
 40
0.0
 40
0.0
 40
0.0
 40
0.1118414808861302
 40
0.2216235918754942
 40
0.3377252336209607
 40
0.4640672483531096
 40
0.5954580560274144
 40
0.7256112460955566
 40
0.8593865115701841
 40
1.0
 40
1.0
 40
1.0
 40
1.0
 10
-413.0916170930447
 20
8441.352271208532
 30
0.0
 10
-413.0940747912913
 20
8441.394107581877
 30
0.0
 10
-413.0989449334679
 20
8441.477009983184
 30
0.0
 10
-413.1456360643759
 20
8441.595873786086
 30
0.0
 10
-413.2191488013399
 20
8441.705667856048
 30
0.0
 10
-413.3207840461145
 20
8441.802223912424
 30
0.0
 10
-413.439683246805
 20
8441.885482261312
 30
0.0
 10
-413.5744705389878
 20
8441.946883396025
 30
0.0
 10
-413.7217914119111
 20
8441.983873355888
 30
0.0
 10
-413.8241916551366
 20
8441.987814745395
 30
0.0
 10
-413.8766677687204
 20
8441.989834553127
 30
0.0
  0
SPLINE
  5
D9
330
1F
100
AcDbEntity
  8
0
  6
Continuous
 62
     7
370
    25
100
AcDbSpline
210
0.0
220
0.0
230
1.0
 70
     8
 71
     3
 72
    15
 73
    11
 74
     0
 42
0.000000001
 43
0.00000001
 40
0.0
 40
0.0
 40
0.0
 40
0.0
 40
0.1286468806200162
 40
0.2521917006262546
 40
0.37296033681081
 40
0.4923584454710807
 40
0.6125216175123742
 40
0.7360563452243251
 40
0.86487271795914
 40
1.0
 40
1.0
 40
1.0
 40
1.0
 10
-412.4226981741257
 20
8441.01084384367
 30
0.0
 10
-412.4244182088679
 20
8440.966249355977
 30
0.0
 10
-412.4277900627724
 20
8440.87882897209
 30
0.0
 10
-412.4496507902469
 20
8440.750863218913
 30
0.0
 10
-412.4888941724323
 20
8440.630716694479
 30
0.0
 10
-412.5406711169795
 20
8440.516606269419
 30
0.0
 10
-412.610625683949
 20
8440.411361934139
 30
0.0
 10
-412.695074794703
 20
8440.313368029052
 30
0.0
 10
-412.7940031874311
 20
8440.221807954898
 30
0.0
 10
-412.8694854124813
 20
8440.169909364942
 30
0.0
 10
-412.908128917369
 20
8440.143339620696
 30
0.0
  0
SPLINE
  5
DA
330
1F
100
AcDbEntity
  8
0
  6
Continuous
 62
     7
370
    25
100
AcDbSpline
210
0.0
220
0.0
230
1.0
 70
     8
 71
     3
 72
    15
 73
    11
 74
     0
 42
0.000000001
 43
0.00000001
 40
0.0
 40
0.0
 40
0.0
 40
0.0
 40
0.1205342075741034
 40
0.2420083469182965
 40
0.3672233021663472
 40
0.4989550292247958
 40
0.6307416090192871
 40
0.7554695578802555
 40
0.8783819005277547
 40
1.0
 40
1.0
 40
1.0
 40
1.0
 10
-412.908128917369
 20
8440.143339620696
 30
0.0
 10
-412.8593056994079
 20
8440.12123860002
 30
0.0
 10
-412.7612785375936
 20
8440.07686421381
 30
0.0
 10
-412.6276184465171
 20
8439.981775733888
 30
0.0
 10
-412.5073140623275
 20
8439.863856210417
 30
0.0
 10
-412.4011473026047
 20
8439.72727565802
 30
0.0
 10
-412.312534297135
 20
8439.578900047953
 30
0.0
 10
-412.2470747246476
 20
8439.423200006873
 30
0.0
 10
-412.2072437071467
 20
8439.263121051545
 30
0.0
 10
-412.2022225111403
 20
8439.15449967791
 30
0.0
 10
-412.1997252011528
 20
8439.100476445019
 30
0.0
  0
SPLINE
  5
DC
330
1F
100
AcDbEntity
  8
0
  6
Continuous
 62
     7
370
    25
100
AcDbSpline
210
0.0
220
0.0
230
1.0
 70
     8
 71
     3
 72
    23
 73
    19
 74
     0
 42
0.000000001
 43
0.00000001
 40
0.0
 40
0.0
 40
0.0
 40
0.0
 40
0.0551741895472737
 40
0.1094113227528941
 40
0.1646432072234854
 40
0.2206197145439801
 40
0.2783436147023549
 40
0.3382718497462978
 40
0.4018949642838357
 40
0.4684994644665624
 40
0.5361970994406106
 40
0.6020343598042028
 40
0.667351250769298
 40
0.7320029948294065
 40
0.7973198857944851
 40
0.8633296910342904
 40
0.9305507028317973
 40
1.0
 40
1.0
 40
1.0
 40
1.0
 10
-412.1997252011528
 20
8438.323554992317
 30
0.0
 10
-412.2011214731857
 20
8438.284758498534
 30
0.0
 10
-412.2038903035265
 20
8438.207824415085
 30
0.0
 10
-412.2245019714705
 20
8438.093578339716
 30
0.0
 10
-412.2578851199522
 20
8437.981895988267
 30
0.0
 10
-412.3066217719381
 20
8437.873342826324
 30
0.0
 10
-412.3668575624473
 20
8437.766942889964
 30
0.0
 10
-412.4426974325971
 20
8437.664259943956
 30
0.0
 10
-412.5306847371414
 20
8437.563465598232
 30
0.0
 10
-412.6311529419589
 20
8437.467022009401
 30
0.0
 10
-412.7396359410216
 20
8437.377198214128
 30
0.0
 10
-412.8556262851188
 20
8437.298840509522
 30
0.0
 10
-412.9763637790156
 20
8437.232340090095
 30
0.0
 10
-413.1029321642063
 20
8437.178657969456
 30
0.0
 10
-413.2343932166286
 20
8437.136836993343
 30
0.0
 10
-413.3708214743745
 20
8437.10685150343
 30
0.0
 10
-413.5122216614877
 20
8437.087287846081
 30
0.0
 10
-413.6083373597151
 20
8437.08539234863
 30
0.0
 10
-413.6571787484501
 20
8437.084429147722
 30
0.0
  0
SPLINE
  5
E1
330
1F
100
AcDbEntity
  8
0
  6
Continuous
 62
     7
370
    25
100
AcDbSpline
210
0.0
220
0.0
230
1.0
 70
     8
 71
     3
 72
    15
 73
    11
 74
     0
 42
0.000000001
 43
0.00000001
 40
0.0
 40
0.0
 40
0.0
 40
0.0
 40
0.1519313110725461
 40
0.2854560573763889
 40
0.4052208957008637
 40
0.5157267620161263
 40
0.6249710359191141
 40
0.7387437887181041
 40
0.8608826000178736
 40
1.0
 40
1.0
 40
1.0
 40
1.0
 10
-415.1785047619636
 20
8437.084429147722
 30
0.0
 10
-415.2013838913369
 20
8437.085439102848
 30
0.0
 10
-415.2443703305443
 20
8437.087336656461
 30
0.0
 10
-415.3047924026985
 20
8437.098125360179
 30
0.0
 10
-415.3559653319185
 20
8437.11916022885
 30
0.0
 10
-415.3978287407569
 20
8437.149123880114
 30
0.0
 10
-415.4320401793607
 20
8437.186895422925
 30
0.0
 10
-415.4530853084187
 20
8437.235039084624
 30
0.0
 10
-415.4680177291057
 20
8437.289857725496
 30
0.0
 10
-415.4693082673684
 20
8437.329344431419
 30
0.0
 10
-415.469995471423
 20
8437.350370870694
 30
0.0
  0
SPLINE
  5
E3
330
1F
100
AcDbEntity
  8
0
  6
Continuous
 62
     7
370
    25
100
AcDbSpline
210
0.0
220
0.0
230
1.0
 70
     8
 71
     3
 72
    15
 73
    11
 74
     0
 42
0.000000001
 43
0.00000001
 40
0.0
 40
0.0
 40
0.0
 40
0.0
 40
0.1391173999821188
 40
0.2612562112818817
 40
0.3750289640810431
 40
0.4842732379838769
 40
0.5947791042991336
 40
0.7145439426236019
 40
0.8480686889274753
 40
1.0
 40
1.0
 40
1.0
 40
1.0
 10
-415.469995471423
 20
8442.318487424747
 30
0.0
 10
-415.4693082673684
 20
8442.339513864026
 30
0.0
 10
-415.4680177291057
 20
8442.379000569948
 30
0.0
 10
-415.4530853084187
 20
8442.433819210819
 30
0.0
 10
-415.4320401793607
 20
8442.481962872518
 30
0.0
 10
-415.3978287407569
 20
8442.519734415331
 30
0.0
 10
-415.3559653319185
 20
8442.549698066592
 30
0.0
 10
-415.3047924026985
 20
8442.570732935266
 30
0.0
 10
-415.2443703305444
 20
8442.581521638984
 30
0.0
 10
-415.2013838913369
 20
8442.583419192597
 30
0.0
 10
-415.1785047619636
 20
8442.584429147722
 30
0.0
  0
SPLINE
  5
E5
330
1F
100
AcDbEntity
  8
0
  6
Continuous
 62
     7
370
    25
100
AcDbSpline
210
0.0
220
0.0
230
1.0
 70
     8
 71
     3
 72
    23
 73
    19
 74
     0
 42
0.000000001
 43
0.00000001
 40
0.0
 40
0.0
 40
0.0
 40
0.0
 40
0.0718986997679508
 40
0.1413975380845917
 40
0.208574741430738
 40
0.2748290700987656
 40
0.3397784190395169
 40
0.4047874366643734
 40
0.4699751326407524
 40
0.5358209004014574
 40
0.6008299180263306
 40
0.6619737884348785
 40
0.7213469353098189
 40
0.7779931110435008
 40
0.8336449324087764
 40
0.8888041014602586
 40
0.9436502881634729
 40
1.0
 40
1.0
 40
1.0
 40
1.0
 10
-413.8743451335852
 20
8442.584429147722
 30
0.0
 10
-413.8243768360655
 20
8442.583199268516
 30
0.0
 10
-413.7261081013822
 20
8442.580780561466
 30
0.0
 10
-413.5816939859695
 20
8442.565135376424
 30
0.0
 10
-413.4437448117835
 20
8442.535000204643
 30
0.0
 10
-413.3111105746888
 20
8442.496554591635
 30
0.0
 10
-413.1850166545556
 20
8442.444129531834
 30
0.0
 10
-413.0633885966661
 20
8442.383590363524
 30
0.0
 10
-412.9496984082084
 20
8442.307993046183
 30
0.0
 10
-412.8421598377392
 20
8442.22409850632
 30
0.0
 10
-412.7449190262625
 20
8442.132417474055
 30
0.0
 10
-412.6588296769651
 20
8442.03618929047
 30
0.0
 10
-412.5857525910596
 20
8441.936838748938
 30
0.0
 10
-412.5252023622238
 20
8441.83368529161
 30
0.0
 10
-412.4799991849162
 20
8441.72607561884
 30
0.0
 10
-412.4474865846815
 20
8441.615444773362
 30
0.0
 10
-412.4267661056606
 20
8441.501299749583
 30
0.0
 10
-412.4240663196072
 20
8441.423973835228
 30
0.0
 10
-412.4226981741257
 20
8441.384788100426
 30
0.0
  0
CIRCLE
  5
E7
330
1F
100
AcDbEntity
  8
0
  6
Continuous
 62
     7
370
    25
100
AcDbCircle
 10
-433.630855678
 20
8446.242776624
 30
0.0
 40
1.500000000001819
  0
CIRCLE
  5
E8
330
1F
100
AcDbEntity
  8
0
  6
Continuous
 62
     7
370
    25
100
AcDbCircle
 10
-433.630855678
 20
8446.242776624
 30
0.0
 40
0.75
  0
SPLINE
  5
164
330
1F
100
AcDbEntity
  8
0
  6
Continuous
 62
     7
370
    25
100
AcDbSpline
210
0.0
220
0.0
230
1.0
 70
     8
 71
     3
 72
     8
 73
     4
 74
     0
 42
0.000000001
 43
0.00000001
 40
0.2213114754098361
 40
0.2213114754098361
 40
0.2213114754098361
 40
0.2213114754098361
 40
0.2254098360655738
 40
0.2254098360655738
 40
0.2254098360655738
 40
0.2254098360655738
 10
-373.189681551687
 20
8485.790048477813
 30
0.0
 10
-373.600399551687
 20
8485.162499144479
 30
0.0
 10
-373.8594372183537
 20
8484.394445477812
 30
0.0
 10
-373.9667945516871
 20
8483.485887477813
 30
0.0
  0
SPLINE
  5
165
330
1F
100
AcDbEntity
  8
0
  6
Continuous
 62
     7
370
    25
100
AcDbSpline
210
0.0
220
0.0
230
1.0
 70
     8
 71
     3
 72
     8
 73
     4
 74
     0
 42
0.000000001
 43
0.00000001
 40
0.2254098360655738
 40
0.2254098360655738
 40
0.2254098360655738
 40
0.2254098360655738
 40
0.2295081967213115
 40
0.2295081967213115
 40
0.2295081967213115
 40
0.2295081967213115
 10
-373.9667945516871
 20
8483.485887477813
 30
0.0
 10
-374.0758452183537
 20
8482.577244811146
 30
0.0
 10
-373.9894852183537
 20
8482.090623144479
 30
0.0
 10
-373.707714551687
 20
8482.026022477812
 30
0.0
  0
SPLINE
  5
1A4
330
1F
100
AcDbEntity
  8
0
  6
Continuous
 62
     7
370
    25
100
AcDbSpline
210
0.0
220
0.0
230
1.0
 70
     8
 71
     3
 72
     8
 73
     4
 74
     0
 42
0.000000001
 43
0.00000001
 40
0.4836065573770492
 40
0.4836065573770492
 40
0.4836065573770492
 40
0.4836065573770492
 40
0.4877049180327869
 40
0.4877049180327869
 40
0.4877049180327869
 40
0.4877049180327869
 10
-383.0201165516871
 20
8431.343370477813
 30
0.0
 10
-383.2361858850204
 20
8431.560117144478
 30
0.0
 10
-383.344220551687
 20
8431.160067144481
 30
0.0
 10
-383.344220551687
 20
8430.143220477814
 30
0.0
  0
SPLINE
  5
1A5
330
1F
100
AcDbEntity
  8
0
  6
Continuous
 62
     7
370
    25
100
AcDbSpline
210
0.0
220
0.0
230
1.0
 70
     8
 71
     3
 72
     8
 73
     4
 74
     0
 42
0.000000001
 43
0.00000001
 40
0.4877049180327869
 40
0.4877049180327869
 40
0.4877049180327869
 40
0.4877049180327869
 40
0.4918032786885246
 40
0.4918032786885246
 40
0.4918032786885246
 40
0.4918032786885246
 10
-383.344220551687
 20
8430.143220477814
 30
0.0
 10
-383.344220551687
 20
8429.126543144479
 30
0.0
 10
-383.149402551687
 20
8428.89946714448
 30
0.0
 10
-382.7597665516871
 20
8429.461992477813
 30
0.0
  0
SPLINE
  5
1C2
330
1F
100
AcDbEntity
  8
0
  6
Continuous
 62
     7
370
    25
100
AcDbSpline
210
0.0
220
0.0
230
1.0
 70
     8
 71
     3
 72
     8
 73
     4
 74
     0
 42
0.000000001
 43
0.00000001
 40
0.6147540983606558
 40
0.6147540983606558
 40
0.6147540983606558
 40
0.6147540983606558
 40
0.6188524590163934
 40
0.6188524590163934
 40
0.6188524590163934
 40
0.6188524590163934
 10
-384.285417551687
 20
8395.652306477812
 30
0.0
 10
-384.458645551687
 20
8395.782354477811
 30
0.0
 10
-384.577517551687
 20
8395.274100477813
 30
0.0
 10
-384.6420335516869
 20
8394.127544477813
 30
0.0
  0
SPLINE
  5
1C3
330
1F
100
AcDbEntity
  8
0
  6
Continuous
 62
     7
370
    25
100
AcDbSpline
210
0.0
220
0.0
230
1.0
 70
     8
 71
     3
 72
     8
 73
     4
 74
     0
 42
0.000000001
 43
0.00000001
 40
0.6188524590163934
 40
0.6188524590163934
 40
0.6188524590163934
 40
0.6188524590163934
 40
0.6229508196721312
 40
0.6229508196721312
 40
0.6229508196721312
 40
0.6229508196721312
 10
-384.6420335516869
 20
8394.127544477813
 30
0.0
 10
-384.6858062183537
 20
8392.980819144479
 30
0.0
 10
-384.967280551687
 20
8392.786043477812
 30
0.0
 10
-385.4864565516871
 20
8393.543217477813
 30
0.0
  0
SPLINE
  5
1C6
330
1F
100
AcDbEntity
  8
0
  6
Continuous
 62
     7
370
    25
100
AcDbSpline
210
0.0
220
0.0
230
1.0
 70
     8
 71
     3
 72
     8
 73
     4
 74
     0
 42
0.000000001
 43
0.00000001
 40
0.6311475409836066
 40
0.6311475409836066
 40
0.6311475409836066
 40
0.6311475409836066
 40
0.6352459016393442
 40
0.6352459016393442
 40
0.6352459016393442
 40
0.6352459016393442
 10
-387.4329855516871
 20
8391.921300477814
 30
0.0
 10
-388.0607042183537
 20
8392.245404477811
 30
0.0
 10
-388.9471218850204
 20
8392.126193811146
 30
0.0
 10
-390.092238551687
 20
8391.563668477813
 30
0.0
  0
SPLINE
  5
1C7
330
1F
100
AcDbEntity
  8
0
  6
Continuous
 62
     7
370
    25
100
AcDbSpline
210
0.0
220
0.0
230
1.0
 70
     8
 71
     3
 72
     8
 73
     4
 74
     0
 42
0.000000001
 43
0.00000001
 40
0.6352459016393442
 40
0.6352459016393442
 40
0.6352459016393442
 40
0.6352459016393442
 40
0.639344262295082
 40
0.639344262295082
 40
0.639344262295082
 40
0.639344262295082
 10
-390.092238551687
 20
8391.563668477813
 30
0.0
 10
-391.2397258850204
 20
8391.00139714448
 30
0.0
 10
-391.467521551687
 20
8391.261196811147
 30
0.0
 10
-390.775625551687
 20
8392.343067477814
 30
0.0
  0
SPLINE
  5
1D9
330
1F
100
AcDbEntity
  8
0
  6
Continuous
 62
     7
370
    25
100
AcDbSpline
210
0.0
220
0.0
230
1.0
 70
     8
 71
     3
 72
     8
 73
     4
 74
     0
 42
0.000000001
 43
0.00000001
 40
0.7105049087303447
 40
0.7105049087303447
 40
0.7105049087303447
 40
0.7105049087303447
 40
0.7131147540983607
 40
0.7131147540983607
 40
0.7131147540983607
 40
0.7131147540983607
 10
-406.6131687591516
 20
8391.237832597184
 30
0.0
 10
-406.6530977576127
 20
8391.340681443273
 30
0.0
 10
-406.7769736465425
 20
8391.663740201337
 30
0.0
 10
-406.902085551687
 20
8392.407456477813
 30
0.0
  0
LINE
  5
1DA
330
1F
100
AcDbEntity
  8
0
  6
Continuous
 62
     7
370
    25
100
AcDbLine
 10
-426.9159414174
 20
8440.354699418
 30
0.0
 11
-426.9159414174
 21
8442.3242940126
 31
0.0
  0
LINE
  5
1DB
330
1F
100
AcDbEntity
  8
0
  6
Continuous
 62
     7
370
    25
100
AcDbLine
 10
-426.2470224985
 20
8442.3184874247
 30
0.0
 11
-426.2470224985
 21
8437.3503708707
 31
0.0
  0
LINE
  5
1DC
330
1F
100
AcDbEntity
  8
0
  6
Continuous
 62
     7
370
    25
100
AcDbLine
 10
-426.9159414174
 20
8437.3503708707
 30
0.0
 11
-426.9159414174
 21
8439.7601048234
 31
0.0
  0
LINE
  5
1DD
330
1F
100
AcDbEntity
  8
0
  6
Continuous
 62
     7
370
    25
100
AcDbLine
 10
-426.9159414174
 20
8439.7601048234
 30
0.0
 11
-428.7740495255
 21
8439.7601048234
 31
0.0
  0
LINE
  5
1DE
330
1F
100
AcDbEntity
  8
0
  6
Continuous
 62
     7
370
    25
100
AcDbLine
 10
-428.7740495255
 20
8439.7601048234
 30
0.0
 11
-428.7740495255
 21
8437.3503708707
 31
0.0
  0
LINE
  5
1DF
330
1F
100
AcDbEntity
  8
0
  6
Continuous
 62
     7
370
    25
100
AcDbLine
 10
-429.4429684444
 20
8437.3503708707
 30
0.0
 11
-429.4429684444
 21
8442.3184874247
 31
0.0
  0
LINE
  5
1E0
330
1F
100
AcDbEntity
  8
0
  6
Continuous
 62
     7
370
    25
100
AcDbLine
 10
-428.7740495255
 20
8442.3242940126
 30
0.0
 11
-428.7740495255
 21
8440.354699418
 31
0.0
  0
LINE
  5
1E1
330
1F
100
AcDbEntity
  8
0
  6
Continuous
 62
     7
370
    25
100
AcDbLine
 10
-428.7740495255
 20
8440.354699418
 30
0.0
 11
-426.9159414174
 21
8440.354699418
 31
0.0
  0
LINE
  5
1E2
330
1F
100
AcDbEntity
  8
0
  6
Continuous
 62
     7
370
    25
100
AcDbLine
 10
-424.537563039
 20
8437.3515321883
 30
0.0
 11
-424.537563039
 21
8442.3521656342
 31
0.0
  0
LINE
  5
1E3
330
1F
100
AcDbEntity
  8
0
  6
Continuous
 62
     7
370
    25
100
AcDbLine
 10
-423.8686441201
 20
8442.3521656342
 30
0.0
 11
-423.8686441201
 21
8437.3515321883
 31
0.0
  0
LINE
  5
1E4
330
1F
100
AcDbEntity
  8
0
  6
Continuous
 62
     7
370
    25
100
AcDbLine
 10
-419.7703544241
 20
8441.9898345531
 30
0.0
 11
-421.564590066
 21
8441.9898345531
 31
0.0
  0
LINE
  5
1E5
330
1F
100
AcDbEntity
  8
0
  6
Continuous
 62
     7
370
    25
100
AcDbLine
 10
-421.564590066
 20
8441.9898345531
 30
0.0
 11
-421.564590066
 21
8437.346886918
 31
0.0
  0
LINE
  5
1E6
330
1F
100
AcDbEntity
  8
0
  6
Continuous
 62
     7
370
    25
100
AcDbLine
 10
-422.2335089849
 20
8437.3503708707
 30
0.0
 11
-422.2335089849
 21
8442.3184874247
 31
0.0
  0
LINE
  5
1E7
330
1F
100
AcDbEntity
  8
0
  6
Continuous
 62
     7
370
    25
100
AcDbLine
 10
-421.9362116876
 20
8442.5844291477
 30
0.0
 11
-419.7703544241
 21
8442.5844291477
 31
0.0
  0
LINE
  5
1E8
330
1F
100
AcDbEntity
  8
0
  6
Continuous
 62
     7
370
    25
100
AcDbLine
 10
-441.1862116876
 20
8437.3503708707
 30
0.0
 11
-441.1862116876
 21
8439.3884832018
 31
0.0
  0
LINE
  5
1E9
330
1F
100
AcDbEntity
  8
0
  6
Continuous
 62
     7
370
    25
100
AcDbLine
 10
-441.1862116876
 20
8439.3884832018
 30
0.0
 11
-442.377723512
 21
8439.3884832018
 31
0.0
  0
LINE
  5
1EA
330
1F
100
AcDbEntity
  8
0
  6
Continuous
 62
     7
370
    25
100
AcDbLine
 10
-443.7132387147
 20
8440.6032213775
 30
0.0
 11
-443.7132387147
 21
8442.3196487423
 31
0.0
  0
LINE
  5
1EB
330
1F
100
AcDbEntity
  8
0
  6
Continuous
 62
     7
370
    25
100
AcDbLine
 10
-443.0443197957
 20
8442.3242940126
 30
0.0
 11
-443.0443197957
 21
8440.6496740802
 31
0.0
  0
LINE
  5
1EC
330
1F
100
AcDbEntity
  8
0
  6
Continuous
 62
     7
370
    25
100
AcDbLine
 10
-441.1862116876
 20
8439.9830777964
 30
0.0
 11
-441.1862116876
 21
8442.3242940126
 31
0.0
  0
LINE
  5
1ED
330
1F
100
AcDbEntity
  8
0
  6
Continuous
 62
     7
370
    25
100
AcDbLine
 10
-440.5172927687
 20
8442.3184874247
 30
0.0
 11
-440.5172927687
 21
8437.3503708707
 31
0.0
  0
LINE
  5
1EE
330
1F
100
AcDbEntity
  8
0
  6
Continuous
 62
     7
370
    25
100
AcDbLine
 10
-442.3626263836
 20
8439.9830777964
 30
0.0
 11
-441.1862116876
 21
8439.9830777964
 31
0.0
  0
LINE
  5
1EF
330
1F
100
AcDbEntity
  8
0
  6
Continuous
 62
     7
370
    25
100
AcDbLine
 10
-438.1389143903
 20
8439.7601048234
 30
0.0
 11
-438.1389143903
 21
8437.6790237423
 31
0.0
  0
LINE
  5
1F0
330
1F
100
AcDbEntity
  8
0
  6
Continuous
 62
     7
370
    25
100
AcDbLine
 10
-438.1389143903
 20
8437.6790237423
 30
0.0
 11
-436.3435174309
 21
8437.6790237423
 31
0.0
  0
LINE
  5
1F1
330
1F
100
AcDbEntity
  8
0
  6
Continuous
 62
     7
370
    25
100
AcDbLine
 10
-436.3435174309
 20
8437.0844291477
 30
0.0
 11
-438.510536012
 21
8437.0844291477
 31
0.0
  0
LINE
  5
1F2
330
1F
100
AcDbEntity
  8
0
  6
Continuous
 62
     7
370
    25
100
AcDbLine
 10
-438.8078333093
 20
8437.3503708707
 30
0.0
 11
-438.8078333093
 21
8442.3184874247
 31
0.0
  0
LINE
  5
1F3
330
1F
100
AcDbEntity
  8
0
  6
Continuous
 62
     7
370
    25
100
AcDbLine
 10
-438.510536012
 20
8442.5844291477
 30
0.0
 11
-436.3435174309
 21
8442.5844291477
 31
0.0
  0
LINE
  5
1F4
330
1F
100
AcDbEntity
  8
0
  6
Continuous
 62
     7
370
    25
100
AcDbLine
 10
-436.3435174309
 20
8441.9898345531
 30
0.0
 11
-438.1389143903
 21
8441.9898345531
 31
0.0
  0
LINE
  5
1F5
330
1F
100
AcDbEntity
  8
0
  6
Continuous
 62
     7
370
    25
100
AcDbLine
 10
-438.1389143903
 20
8441.9898345531
 30
0.0
 11
-438.1389143903
 21
8440.354699418
 31
0.0
  0
LINE
  5
1F6
330
1F
100
AcDbEntity
  8
0
  6
Continuous
 62
     7
370
    25
100
AcDbLine
 10
-438.1389143903
 20
8440.354699418
 30
0.0
 11
-437.2075377012
 21
8440.354699418
 31
0.0
  0
LINE
  5
1F7
330
1F
100
AcDbEntity
  8
0
  6
Continuous
 62
     7
370
    25
100
AcDbLine
 10
-437.2075377012
 20
8439.7601048234
 30
0.0
 11
-438.1389143903
 21
8439.7601048234
 31
0.0
  0
LINE
  5
1F8
330
1F
100
AcDbEntity
  8
0
  6
Continuous
 62
     7
370
    25
100
AcDbLine
 10
-431.1524279039
 20
8441.3685296545
 30
0.0
 11
-431.1524279039
 21
8440.6008987423
 31
0.0
  0
LINE
  5
1F9
330
1F
100
AcDbEntity
  8
0
  6
Continuous
 62
     7
370
    25
100
AcDbLine
 10
-432.5669127012
 20
8439.3884832018
 30
0.0
 11
-433.6794549309
 21
8439.3884832018
 31
0.0
  0
LINE
  5
1FA
330
1F
100
AcDbEntity
  8
0
  6
Continuous
 62
     7
370
    25
100
AcDbLine
 10
-432.5820098295
 20
8441.9898345531
 30
0.0
 11
-433.6794549309
 21
8441.9898345531
 31
0.0
  0
LINE
  5
1FB
330
1F
100
AcDbEntity
  8
0
  6
Continuous
 62
     7
370
    25
100
AcDbLine
 10
-431.8213468228
 20
8440.6229637761
 30
0.0
 11
-431.8213468228
 21
8441.3464646207
 31
0.0
  0
LINE
  5
1FC
330
1F
100
AcDbEntity
  8
0
  6
Continuous
 62
     7
370
    25
100
AcDbLine
 10
-433.6794549309
 20
8439.9830777964
 30
0.0
 11
-432.5820098295
 21
8439.9830777964
 31
0.0
  0
LINE
  5
1FD
330
1F
100
AcDbEntity
  8
0
  6
Continuous
 62
     7
370
    25
100
AcDbLine
 10
-433.6794549309
 20
8441.9898345531
 30
0.0
 11
-433.6794549309
 21
8439.9830777964
 31
0.0
  0
LINE
  5
1FE
330
1F
100
AcDbEntity
  8
0
  6
Continuous
 62
     7
370
    25
100
AcDbLine
 10
-433.6794549309
 20
8439.3884832018
 30
0.0
 11
-433.6794549309
 21
8437.3503708707
 31
0.0
  0
LINE
  5
1FF
330
1F
100
AcDbEntity
  8
0
  6
Continuous
 62
     7
370
    25
100
AcDbLine
 10
-434.3483738498
 20
8437.3503708707
 30
0.0
 11
-434.3483738498
 21
8442.3184874247
 31
0.0
  0
LINE
  5
200
330
1F
100
AcDbEntity
  8
0
  6
Continuous
 62
     7
370
    25
100
AcDbLine
 10
-434.0615284106
 20
8442.5844291477
 30
0.0
 11
-432.5773645593
 21
8442.5844291477
 31
0.0
  0
LINE
  5
201
330
1F
100
AcDbEntity
  8
0
  6
Continuous
 62
     7
370
    25
100
AcDbLine
 10
-417.7740495255
 20
8437.3515321883
 30
0.0
 11
-417.7740495255
 21
8442.3521656342
 31
0.0
  0
LINE
  5
202
330
1F
100
AcDbEntity
  8
0
  6
Continuous
 62
     7
370
    25
100
AcDbLine
 10
-417.1051306066
 20
8442.3521656342
 30
0.0
 11
-417.1051306066
 21
8437.3515321883
 31
0.0
  0
LINE
  5
203
330
1F
100
AcDbEntity
  8
0
  6
Continuous
 62
     7
370
    25
100
AcDbLine
 10
-412.8686441201
 20
8438.3491039788
 30
0.0
 11
-412.8686441201
 21
8439.0935085396
 31
0.0
  0
LINE
  5
204
330
1F
100
AcDbEntity
  8
0
  6
Continuous
 62
     7
370
    25
100
AcDbLine
 10
-413.6595013836
 20
8439.7601048234
 30
0.0
 11
-414.8010765525
 21
8439.7601048234
 31
0.0
  0
LINE
  5
205
330
1F
100
AcDbEntity
  8
0
  6
Continuous
 62
     7
370
    25
100
AcDbLine
 10
-414.8010765525
 20
8437.6790237423
 30
0.0
 11
-413.6595013836
 21
8437.6790237423
 31
0.0
  0
LINE
  5
206
330
1F
100
AcDbEntity
  8
0
  6
Continuous
 62
     7
370
    25
100
AcDbLine
 10
-413.091617093
 20
8440.9957467153
 30
0.0
 11
-413.091617093
 21
8441.3522712085
 31
0.0
  0
LINE
  5
207
330
1F
100
AcDbEntity
  8
0
  6
Continuous
 62
     7
370
    25
100
AcDbLine
 10
-413.8766677687
 20
8441.9898345531
 30
0.0
 11
-414.8010765525
 21
8441.9898345531
 31
0.0
  0
LINE
  5
208
330
1F
100
AcDbEntity
  8
0
  6
Continuous
 62
     7
370
    25
100
AcDbLine
 10
-412.1997252012
 20
8439.100476445
 30
0.0
 11
-412.1997252012
 21
8438.3235549923
 31
0.0
  0
LINE
  5
209
330
1F
100
AcDbEntity
  8
0
  6
Continuous
 62
     7
370
    25
100
AcDbLine
 10
-413.6571787485
 20
8437.0844291477
 30
0.0
 11
-415.178504762
 21
8437.0844291477
 31
0.0
  0
LINE
  5
20A
330
1F
100
AcDbEntity
  8
0
  6
Continuous
 62
     7
370
    25
100
AcDbLine
 10
-414.8010765525
 20
8439.7601048234
 30
0.0
 11
-414.8010765525
 21
8437.6790237423
 31
0.0
  0
LINE
  5
20B
330
1F
100
AcDbEntity
  8
0
  6
Continuous
 62
     7
370
    25
100
AcDbLine
 10
-414.8010765525
 20
8440.354699418
 30
0.0
 11
-413.8766677687
 21
8440.354699418
 31
0.0
  0
LINE
  5
20C
330
1F
100
AcDbEntity
  8
0
  6
Continuous
 62
     7
370
    25
100
AcDbLine
 10
-414.8010765525
 20
8441.9898345531
 30
0.0
 11
-414.8010765525
 21
8440.354699418
 31
0.0
  0
LINE
  5
20D
330
1F
100
AcDbEntity
  8
0
  6
Continuous
 62
     7
370
    25
100
AcDbLine
 10
-415.4699954714
 20
8437.3503708707
 30
0.0
 11
-415.4699954714
 21
8442.3184874247
 31
0.0
  0
LINE
  5
20E
330
1F
100
AcDbEntity
  8
0
  6
Continuous
 62
     7
370
    25
100
AcDbLine
 10
-415.178504762
 20
8442.5844291477
 30
0.0
 11
-413.8743451336
 21
8442.5844291477
 31
0.0
  0
LINE
  5
20F
330
1F
100
AcDbEntity
  8
0
  6
Continuous
 62
     7
370
    25
100
AcDbLine
 10
-412.4226981741
 20
8441.3847881004
 30
0.0
 11
-412.4226981741
 21
8441.0108438437
 31
0.0
  0
LINE
  5
210
330
1F
100
AcDbEntity
  8
0
  6
Continuous
 62
     7
370
    25
100
AcDbLine
 10
-406.9020855517
 20
8392.4074564778
 30
0.0
 11
-408.6854195517
 21
8391.4026324778
 31
0.0
  0
LINE
  5
211
330
1F
100
AcDbEntity
  8
0
  6
Continuous
 62
     7
370
    25
100
AcDbLine
 10
-408.6854195517
 20
8391.4026324778
 30
0.0
 11
-409.4641835517
 21
8391.6613314778
 31
0.0
  0
LINE
  5
212
330
1F
100
AcDbEntity
  8
0
  6
Continuous
 62
     7
370
    25
100
AcDbLine
 10
-409.4641835517
 20
8391.6613314778
 30
0.0
 11
-408.1017275517
 21
8394.3870054778
 31
0.0
  0
LINE
  5
213
330
1F
100
AcDbEntity
  8
0
  6
Continuous
 62
     7
370
    25
100
AcDbLine
 10
-408.1017275517
 20
8394.3870054778
 30
0.0
 11
-409.8864585517
 21
8394.2250804778
 31
0.0
  0
LINE
  5
214
330
1F
100
AcDbEntity
  8
0
  6
Continuous
 62
     7
370
    25
100
AcDbLine
 10
-409.8864585517
 20
8394.2250804778
 30
0.0
 11
-411.6055305517
 21
8396.3335344778
 31
0.0
  0
LINE
  5
215
330
1F
100
AcDbEntity
  8
0
  6
Continuous
 62
     7
370
    25
100
AcDbLine
 10
-411.6055305517
 20
8396.3335344778
 30
0.0
 11
-411.7678365517
 21
8398.7344694778
 31
0.0
  0
LINE
  5
216
330
1F
100
AcDbEntity
  8
0
  6
Continuous
 62
     7
370
    25
100
AcDbLine
 10
-411.7678365517
 20
8398.7344694778
 30
0.0
 11
-410.5667975517
 21
8398.8328944778
 31
0.0
  0
LINE
  5
217
330
1F
100
AcDbEntity
  8
0
  6
Continuous
 62
     7
370
    25
100
AcDbLine
 10
-410.5667975517
 20
8398.8328944778
 30
0.0
 11
-410.2425665517
 21
8398.2159284778
 31
0.0
  0
LINE
  5
218
330
1F
100
AcDbEntity
  8
0
  6
Continuous
 62
     7
370
    25
100
AcDbLine
 10
-410.2425665517
 20
8398.2159284778
 30
0.0
 11
-409.1075675517
 21
8399.2540264778
 31
0.0
  0
LINE
  5
219
330
1F
100
AcDbEntity
  8
0
  6
Continuous
 62
     7
370
    25
100
AcDbLine
 10
-409.1075675517
 20
8399.2540264778
 30
0.0
 11
-409.5609575517
 21
8400.1949694778
 31
0.0
  0
LINE
  5
21A
330
1F
100
AcDbEntity
  8
0
  6
Continuous
 62
     7
370
    25
100
AcDbLine
 10
-409.5609575517
 20
8400.1949694778
 30
0.0
 11
-412.5478705517
 21
8400.0327904778
 31
0.0
  0
LINE
  5
21B
330
1F
100
AcDbEntity
  8
0
  6
Continuous
 62
     7
370
    25
100
AcDbLine
 10
-412.5478705517
 20
8400.0327904778
 30
0.0
 11
-414.3959745517
 21
8402.1414984778
 31
0.0
  0
LINE
  5
21C
330
1F
100
AcDbEntity
  8
0
  6
Continuous
 62
     7
370
    25
100
AcDbLine
 10
-414.3959745517
 20
8402.1414984778
 30
0.0
 11
-414.8501265517
 21
8404.1858174778
 31
0.0
  0
LINE
  5
21D
330
1F
100
AcDbEntity
  8
0
  6
Continuous
 62
     7
370
    25
100
AcDbLine
 10
-414.8501265517
 20
8404.1858174778
 30
0.0
 11
-416.7005165517
 21
8404.2824644778
 31
0.0
  0
LINE
  5
21E
330
1F
100
AcDbEntity
  8
0
  6
Continuous
 62
     7
370
    25
100
AcDbLine
 10
-416.7005165517
 20
8404.2824644778
 30
0.0
 11
-416.8952075517
 21
8403.0180524778
 31
0.0
  0
LINE
  5
21F
330
1F
100
AcDbEntity
  8
0
  6
Continuous
 62
     7
370
    25
100
AcDbLine
 10
-416.8952075517
 20
8403.0180524778
 30
0.0
 11
-417.6406975517
 21
8403.0180524778
 31
0.0
  0
LINE
  5
220
330
1F
100
AcDbEntity
  8
0
  6
Continuous
 62
     7
370
    25
100
AcDbLine
 10
-417.6406975517
 20
8403.0180524778
 30
0.0
 11
-418.3219255517
 21
8401.2016984778
 31
0.0
  0
LINE
  5
221
330
1F
100
AcDbEntity
  8
0
  6
Continuous
 62
     7
370
    25
100
AcDbLine
 10
-418.3219255517
 20
8401.2016984778
 30
0.0
 11
-419.9438425517
 21
8401.4605244778
 31
0.0
  0
LINE
  5
222
330
1F
100
AcDbEntity
  8
0
  6
Continuous
 62
     7
370
    25
100
AcDbLine
 10
-419.9438425517
 20
8401.4605244778
 30
0.0
 11
-420.3004585517
 21
8401.4605244778
 31
0.0
  0
LINE
  5
223
330
1F
100
AcDbEntity
  8
0
  6
Continuous
 62
     7
370
    25
100
AcDbLine
 10
-420.3004585517
 20
8401.4605244778
 30
0.0
 11
-420.9829565517
 21
8400.8763244778
 31
0.0
  0
LINE
  5
224
330
1F
100
AcDbEntity
  8
0
  6
Continuous
 62
     7
370
    25
100
AcDbLine
 10
-420.9829565517
 20
8400.8763244778
 30
0.0
 11
-422.0216895517
 21
8400.9416024778
 31
0.0
  0
LINE
  5
225
330
1F
100
AcDbEntity
  8
0
  6
Continuous
 62
     7
370
    25
100
AcDbLine
 10
-422.0216895517
 20
8400.9416024778
 30
0.0
 11
-422.2473685517
 21
8399.1575064778
 31
0.0
  0
LINE
  5
226
330
1F
100
AcDbEntity
  8
0
  6
Continuous
 62
     7
370
    25
100
AcDbLine
 10
-422.2473685517
 20
8399.1575064778
 30
0.0
 11
-424.2280605517
 21
8399.8377184778
 31
0.0
  0
LINE
  5
227
330
1F
100
AcDbEntity
  8
0
  6
Continuous
 62
     7
370
    25
100
AcDbLine
 10
-424.2280605517
 20
8399.8377184778
 30
0.0
 11
-424.7469825517
 21
8398.8328944778
 31
0.0
  0
LINE
  5
228
330
1F
100
AcDbEntity
  8
0
  6
Continuous
 62
     7
370
    25
100
AcDbLine
 10
-424.7469825517
 20
8398.8328944778
 30
0.0
 11
-425.2335195517
 21
8399.7726944778
 31
0.0
  0
LINE
  5
229
330
1F
100
AcDbEntity
  8
0
  6
Continuous
 62
     7
370
    25
100
AcDbLine
 10
-425.2335195517
 20
8399.7726944778
 30
0.0
 11
-426.9522105517
 21
8399.5786384778
 31
0.0
  0
LINE
  5
22A
330
1F
100
AcDbEntity
  8
0
  6
Continuous
 62
     7
370
    25
100
AcDbLine
 10
-426.9522105517
 20
8399.5786384778
 30
0.0
 11
-427.7966335517
 21
8398.5722904778
 31
0.0
  0
LINE
  5
22B
330
1F
100
AcDbEntity
  8
0
  6
Continuous
 62
     7
370
    25
100
AcDbLine
 10
-427.7966335517
 20
8398.5722904778
 30
0.0
 11
-428.6729335517
 21
8398.3127024778
 31
0.0
  0
LINE
  5
22C
330
1F
100
AcDbEntity
  8
0
  6
Continuous
 62
     7
370
    25
100
AcDbLine
 10
-428.6729335517
 20
8398.3127024778
 30
0.0
 11
-429.9391235517
 21
8399.8377184778
 31
0.0
  0
LINE
  5
22D
330
1F
100
AcDbEntity
  8
0
  6
Continuous
 62
     7
370
    25
100
AcDbLine
 10
-429.9391235517
 20
8399.8377184778
 30
0.0
 11
-432.1771175517
 21
8398.4752624778
 31
0.0
  0
LINE
  5
22E
330
1F
100
AcDbEntity
  8
0
  6
Continuous
 62
     7
370
    25
100
AcDbLine
 10
-432.1771175517
 20
8398.4752624778
 30
0.0
 11
-432.0804705517
 21
8399.7726944778
 31
0.0
  0
LINE
  5
22F
330
1F
100
AcDbEntity
  8
0
  6
Continuous
 62
     7
370
    25
100
AcDbLine
 10
-432.0804705517
 20
8399.7726944778
 30
0.0
 11
-433.7666495517
 21
8400.1949694778
 31
0.0
  0
LINE
  5
230
330
1F
100
AcDbEntity
  8
0
  6
Continuous
 62
     7
370
    25
100
AcDbLine
 10
-433.7666495517
 20
8400.1949694778
 30
0.0
 11
-434.0266185517
 21
8401.4605244778
 31
0.0
  0
LINE
  5
231
330
1F
100
AcDbEntity
  8
0
  6
Continuous
 62
     7
370
    25
100
AcDbLine
 10
-434.0266185517
 20
8401.4605244778
 30
0.0
 11
-436.8494475517
 21
8401.8172674778
 31
0.0
  0
LINE
  5
232
330
1F
100
AcDbEntity
  8
0
  6
Continuous
 62
     7
370
    25
100
AcDbLine
 10
-436.8494475517
 20
8401.8172674778
 30
0.0
 11
-437.0122615517
 21
8403.5042084778
 31
0.0
  0
LINE
  5
233
330
1F
100
AcDbEntity
  8
0
  6
Continuous
 62
     7
370
    25
100
AcDbLine
 10
-437.0122615517
 20
8403.5042084778
 30
0.0
 11
-435.3246855517
 21
8403.6019984778
 31
0.0
  0
LINE
  5
234
330
1F
100
AcDbEntity
  8
0
  6
Continuous
 62
     7
370
    25
100
AcDbLine
 10
-435.3246855517
 20
8403.6019984778
 30
0.0
 11
-435.6506945517
 21
8405.6460634778
 31
0.0
  0
LINE
  5
235
330
1F
100
AcDbEntity
  8
0
  6
Continuous
 62
     7
370
    25
100
AcDbLine
 10
-435.6506945517
 20
8405.6460634778
 30
0.0
 11
-434.9667995517
 21
8406.1658744778
 31
0.0
  0
LINE
  5
236
330
1F
100
AcDbEntity
  8
0
  6
Continuous
 62
     7
370
    25
100
AcDbLine
 10
-434.9667995517
 20
8406.1658744778
 30
0.0
 11
-435.3885665517
 21
8407.9498434778
 31
0.0
  0
LINE
  5
237
330
1F
100
AcDbEntity
  8
0
  6
Continuous
 62
     7
370
    25
100
AcDbLine
 10
-435.3885665517
 20
8407.9498434778
 30
0.0
 11
-436.3301445517
 21
8407.7877914778
 31
0.0
  0
LINE
  5
238
330
1F
100
AcDbEntity
  8
0
  6
Continuous
 62
     7
370
    25
100
AcDbLine
 10
-436.3301445517
 20
8407.7877914778
 30
0.0
 11
-436.5904945517
 21
8409.1502474778
 31
0.0
  0
LINE
  5
239
330
1F
100
AcDbEntity
  8
0
  6
Continuous
 62
     7
370
    25
100
AcDbLine
 10
-436.5904945517
 20
8409.1502474778
 30
0.0
 11
-437.7906445517
 21
8410.3501434778
 31
0.0
  0
LINE
  5
23A
330
1F
100
AcDbEntity
  8
0
  6
Continuous
 62
     7
370
    25
100
AcDbLine
 10
-437.7906445517
 20
8410.3501434778
 30
0.0
 11
-437.6282115517
 21
8411.8754134778
 31
0.0
  0
LINE
  5
23B
330
1F
100
AcDbEntity
  8
0
  6
Continuous
 62
     7
370
    25
100
AcDbLine
 10
-437.6282115517
 20
8411.8754134778
 30
0.0
 11
-438.2127925517
 21
8412.2332994778
 31
0.0
  0
LINE
  5
23C
330
1F
100
AcDbEntity
  8
0
  6
Continuous
 62
     7
370
    25
100
AcDbLine
 10
-438.2127925517
 20
8412.2332994778
 30
0.0
 11
-439.5108595517
 21
8411.0320064778
 31
0.0
  0
LINE
  5
23D
330
1F
100
AcDbEntity
  8
0
  6
Continuous
 62
     7
370
    25
100
AcDbLine
 10
-439.5108595517
 20
8411.0320064778
 30
0.0
 11
-442.5603835517
 21
8411.0320064778
 31
0.0
  0
LINE
  5
23E
330
1F
100
AcDbEntity
  8
0
  6
Continuous
 62
     7
370
    25
100
AcDbLine
 10
-442.5603835517
 20
8411.0320064778
 30
0.0
 11
-445.7391935517
 21
8411.8754134778
 31
0.0
  0
LINE
  5
23F
330
1F
100
AcDbEntity
  8
0
  6
Continuous
 62
     7
370
    25
100
AcDbLine
 10
-445.7391935517
 20
8411.8754134778
 30
0.0
 11
-445.7391935517
 21
8411.0320064778
 31
0.0
  0
LINE
  5
240
330
1F
100
AcDbEntity
  8
0
  6
Continuous
 62
     7
370
    25
100
AcDbLine
 10
-445.7391935517
 20
8411.0320064778
 30
0.0
 11
-446.8433315517
 21
8410.7725454778
 31
0.0
  0
LINE
  5
241
330
1F
100
AcDbEntity
  8
0
  6
Continuous
 62
     7
370
    25
100
AcDbLine
 10
-446.8433315517
 20
8410.7725454778
 30
0.0
 11
-446.8433315517
 21
8411.9726954778
 31
0.0
  0
LINE
  5
242
330
1F
100
AcDbEntity
  8
0
  6
Continuous
 62
     7
370
    25
100
AcDbLine
 10
-446.8433315517
 20
8411.9726954778
 30
0.0
 11
-449.4703265517
 21
8412.1350014778
 31
0.0
  0
LINE
  5
243
330
1F
100
AcDbEntity
  8
0
  6
Continuous
 62
     7
370
    25
100
AcDbLine
 10
-449.4703265517
 20
8412.1350014778
 30
0.0
 11
-449.4703265517
 21
8413.2382504778
 31
0.0
  0
LINE
  5
244
330
1F
100
AcDbEntity
  8
0
  6
Continuous
 62
     7
370
    25
100
AcDbLine
 10
-449.4703265517
 20
8413.2382504778
 30
0.0
 11
-450.2499795517
 21
8413.3354054778
 31
0.0
  0
LINE
  5
245
330
1F
100
AcDbEntity
  8
0
  6
Continuous
 62
     7
370
    25
100
AcDbLine
 10
-450.2499795517
 20
8413.3354054778
 30
0.0
 11
-450.1523165517
 21
8414.3417534778
 31
0.0
  0
LINE
  5
246
330
1F
100
AcDbEntity
  8
0
  6
Continuous
 62
     7
370
    25
100
AcDbLine
 10
-450.1523165517
 20
8414.3417534778
 30
0.0
 11
-449.3092905517
 21
8414.7952704778
 31
0.0
  0
LINE
  5
247
330
1F
100
AcDbEntity
  8
0
  6
Continuous
 62
     7
370
    25
100
AcDbLine
 10
-449.3092905517
 20
8414.7952704778
 30
0.0
 11
-449.4703265517
 21
8417.4236624778
 31
0.0
  0
LINE
  5
248
330
1F
100
AcDbEntity
  8
0
  6
Continuous
 62
     7
370
    25
100
AcDbLine
 10
-449.4703265517
 20
8417.4236624778
 30
0.0
 11
-450.7695365517
 21
8417.8456834778
 31
0.0
  0
LINE
  5
249
330
1F
100
AcDbEntity
  8
0
  6
Continuous
 62
     7
370
    25
100
AcDbLine
 10
-450.7695365517
 20
8417.8456834778
 30
0.0
 11
-451.9365395517
 21
8420.2463644778
 31
0.0
  0
LINE
  5
24A
330
1F
100
AcDbEntity
  8
0
  6
Continuous
 62
     7
370
    25
100
AcDbLine
 10
-451.9365395517
 20
8420.2463644778
 30
0.0
 11
-452.0018175517
 21
8422.7133394778
 31
0.0
  0
LINE
  5
24B
330
1F
100
AcDbEntity
  8
0
  6
Continuous
 62
     7
370
    25
100
AcDbLine
 10
-452.0018175517
 20
8422.7133394778
 30
0.0
 11
-453.3003925517
 21
8422.9731814778
 31
0.0
  0
LINE
  5
24C
330
1F
100
AcDbEntity
  8
0
  6
Continuous
 62
     7
370
    25
100
AcDbLine
 10
-453.3003925517
 20
8422.9731814778
 30
0.0
 11
-453.8196955517
 21
8423.9137434778
 31
0.0
  0
LINE
  5
24D
330
1F
100
AcDbEntity
  8
0
  6
Continuous
 62
     7
370
    25
100
AcDbLine
 10
-453.8196955517
 20
8423.9137434778
 30
0.0
 11
-456.8043225517
 21
8423.9137434778
 31
0.0
  0
LINE
  5
24E
330
1F
100
AcDbEntity
  8
0
  6
Continuous
 62
     7
370
    25
100
AcDbLine
 10
-456.8043225517
 20
8423.9137434778
 30
0.0
 11
-456.9663745517
 21
8426.8009614778
 31
0.0
  0
LINE
  5
24F
330
1F
100
AcDbEntity
  8
0
  6
Continuous
 62
     7
370
    25
100
AcDbLine
 10
-456.9663745517
 20
8426.8009614778
 30
0.0
 11
-456.3492815517
 21
8428.3589974778
 31
0.0
  0
LINE
  5
250
330
1F
100
AcDbEntity
  8
0
  6
Continuous
 62
     7
370
    25
100
AcDbLine
 10
-456.3492815517
 20
8428.3589974778
 30
0.0
 11
-457.1282995517
 21
8430.1432204778
 31
0.0
  0
LINE
  5
251
330
1F
100
AcDbEntity
  8
0
  6
Continuous
 62
     7
370
    25
100
AcDbLine
 10
-457.1282995517
 20
8430.1432204778
 30
0.0
 11
-456.1871025517
 21
8431.6029584778
 31
0.0
  0
LINE
  5
252
330
1F
100
AcDbEntity
  8
0
  6
Continuous
 62
     7
370
    25
100
AcDbLine
 10
-456.1871025517
 20
8431.6029584778
 30
0.0
 11
-456.3492815517
 21
8432.9668114778
 31
0.0
  0
LINE
  5
253
330
1F
100
AcDbEntity
  8
0
  6
Continuous
 62
     7
370
    25
100
AcDbLine
 10
-456.3492815517
 20
8432.9668114778
 30
0.0
 11
-455.4089735517
 21
8433.0313274778
 31
0.0
  0
LINE
  5
254
330
1F
100
AcDbEntity
  8
0
  6
Continuous
 62
     7
370
    25
100
AcDbLine
 10
-455.4089735517
 20
8433.0313274778
 30
0.0
 11
-455.5066365517
 21
8434.4264224778
 31
0.0
  0
LINE
  5
255
330
1F
100
AcDbEntity
  8
0
  6
Continuous
 62
     7
370
    25
100
AcDbLine
 10
-455.5066365517
 20
8434.4264224778
 30
0.0
 11
-455.1818975517
 21
8434.5239584778
 31
0.0
  0
LINE
  5
256
330
1F
100
AcDbEntity
  8
0
  6
Continuous
 62
     7
370
    25
100
AcDbLine
 10
-455.1818975517
 20
8434.5239584778
 30
0.0
 11
-453.1045585517
 21
8436.8925084778
 31
0.0
  0
LINE
  5
257
330
1F
100
AcDbEntity
  8
0
  6
Continuous
 62
     7
370
    25
100
AcDbLine
 10
-453.1045585517
 20
8436.8925084778
 30
0.0
 11
-454.4028795517
 21
8438.0609084778
 31
0.0
  0
LINE
  5
258
330
1F
100
AcDbEntity
  8
0
  6
Continuous
 62
     7
370
    25
100
AcDbLine
 10
-454.4028795517
 20
8438.0609084778
 30
0.0
 11
-452.9431415517
 21
8439.9427944778
 31
0.0
  0
LINE
  5
259
330
1F
100
AcDbEntity
  8
0
  6
Continuous
 62
     7
370
    25
100
AcDbLine
 10
-452.9431415517
 20
8439.9427944778
 30
0.0
 11
-453.1045585517
 21
8443.6087764778
 31
0.0
  0
LINE
  5
25A
330
1F
100
AcDbEntity
  8
0
  6
Continuous
 62
     7
370
    25
100
AcDbLine
 10
-453.1045585517
 20
8443.6087764778
 30
0.0
 11
-455.6035375517
 21
8448.5732064778
 31
0.0
  0
LINE
  5
25B
330
1F
100
AcDbEntity
  8
0
  6
Continuous
 62
     7
370
    25
100
AcDbLine
 10
-455.6035375517
 20
8448.5732064778
 30
0.0
 11
-455.6691965517
 21
8451.5591034778
 31
0.0
  0
LINE
  5
25C
330
1F
100
AcDbEntity
  8
0
  6
Continuous
 62
     7
370
    25
100
AcDbLine
 10
-455.6691965517
 20
8451.5591034778
 30
0.0
 11
-454.9231985517
 21
8453.5049974778
 31
0.0
  0
LINE
  5
25D
330
1F
100
AcDbEntity
  8
0
  6
Continuous
 62
     7
370
    25
100
AcDbLine
 10
-454.9231985517
 20
8453.5049974778
 30
0.0
 11
-454.3055975517
 21
8455.6464714778
 31
0.0
  0
LINE
  5
25E
330
1F
100
AcDbEntity
  8
0
  6
Continuous
 62
     7
370
    25
100
AcDbLine
 10
-454.3055975517
 20
8455.6464714778
 30
0.0
 11
-452.8779905517
 21
8456.5230254778
 31
0.0
  0
LINE
  5
25F
330
1F
100
AcDbEntity
  8
0
  6
Continuous
 62
     7
370
    25
100
AcDbLine
 10
-452.8779905517
 20
8456.5230254778
 30
0.0
 11
-452.5211205517
 21
8459.6699584778
 31
0.0
  0
LINE
  5
260
330
1F
100
AcDbEntity
  8
0
  6
Continuous
 62
     7
370
    25
100
AcDbLine
 10
-452.5211205517
 20
8459.6699584778
 30
0.0
 11
-451.0938945517
 21
8462.9150624778
 31
0.0
  0
LINE
  5
261
330
1F
100
AcDbEntity
  8
0
  6
Continuous
 62
     7
370
    25
100
AcDbLine
 10
-451.0938945517
 20
8462.9150624778
 30
0.0
 11
-449.6660335517
 21
8465.1206714778
 31
0.0
  0
LINE
  5
262
330
1F
100
AcDbEntity
  8
0
  6
Continuous
 62
     7
370
    25
100
AcDbLine
 10
-449.6660335517
 20
8465.1206714778
 30
0.0
 11
-447.4263885517
 21
8465.3805134778
 31
0.0
  0
LINE
  5
263
330
1F
100
AcDbEntity
  8
0
  6
Continuous
 62
     7
370
    25
100
AcDbLine
 10
-447.4263885517
 20
8465.3805134778
 30
0.0
 11
-447.0052565517
 21
8467.8467264778
 31
0.0
  0
LINE
  5
264
330
1F
100
AcDbEntity
  8
0
  6
Continuous
 62
     7
370
    25
100
AcDbLine
 10
-447.0052565517
 20
8467.8467264778
 30
0.0
 11
-444.7992665517
 21
8469.3064644778
 31
0.0
  0
LINE
  5
265
330
1F
100
AcDbEntity
  8
0
  6
Continuous
 62
     7
370
    25
100
AcDbLine
 10
-444.7992665517
 20
8469.3064644778
 30
0.0
 11
-443.7609145517
 21
8473.0704904778
 31
0.0
  0
LINE
  5
266
330
1F
100
AcDbEntity
  8
0
  6
Continuous
 62
     7
370
    25
100
AcDbLine
 10
-443.7609145517
 20
8473.0704904778
 30
0.0
 11
-439.2500015517
 21
8474.4325654778
 31
0.0
  0
LINE
  5
267
330
1F
100
AcDbEntity
  8
0
  6
Continuous
 62
     7
370
    25
100
AcDbLine
 10
-439.2500015517
 20
8474.4325654778
 30
0.0
 11
-436.5248355517
 21
8473.2330504778
 31
0.0
  0
LINE
  5
268
330
1F
100
AcDbEntity
  8
0
  6
Continuous
 62
     7
370
    25
100
AcDbLine
 10
-436.5248355517
 20
8473.2330504778
 30
0.0
 11
-435.3246855517
 21
8472.0329004778
 31
0.0
  0
LINE
  5
269
330
1F
100
AcDbEntity
  8
0
  6
Continuous
 62
     7
370
    25
100
AcDbLine
 10
-435.3246855517
 20
8472.0329004778
 30
0.0
 11
-433.4433075517
 21
8472.2917264778
 31
0.0
  0
LINE
  5
26A
330
1F
100
AcDbEntity
  8
0
  6
Continuous
 62
     7
370
    25
100
AcDbLine
 10
-433.4433075517
 20
8472.2917264778
 30
0.0
 11
-433.0206515517
 21
8474.4325654778
 31
0.0
  0
LINE
  5
26B
330
1F
100
AcDbEntity
  8
0
  6
Continuous
 62
     7
370
    25
100
AcDbLine
 10
-433.0206515517
 20
8474.4325654778
 30
0.0
 11
-431.1385115517
 21
8475.6987554778
 31
0.0
  0
LINE
  5
26C
330
1F
100
AcDbEntity
  8
0
  6
Continuous
 62
     7
370
    25
100
AcDbLine
 10
-431.1385115517
 20
8475.6987554778
 30
0.0
 11
-420.5616975517
 21
8475.0177814778
 31
0.0
  0
LINE
  5
26D
330
1F
100
AcDbEntity
  8
0
  6
Continuous
 62
     7
370
    25
100
AcDbLine
 10
-420.5616975517
 20
8475.0177814778
 30
0.0
 11
-414.9145155517
 21
8475.2767344778
 31
0.0
  0
LINE
  5
26E
330
1F
100
AcDbEntity
  8
0
  6
Continuous
 62
     7
370
    25
100
AcDbLine
 10
-414.9145155517
 20
8475.2767344778
 30
0.0
 11
-414.9145155517
 21
8472.1948254778
 31
0.0
  0
LINE
  5
26F
330
1F
100
AcDbEntity
  8
0
  6
Continuous
 62
     7
370
    25
100
AcDbLine
 10
-414.9145155517
 20
8472.1948254778
 30
0.0
 11
-412.9683675517
 21
8472.1948254778
 31
0.0
  0
LINE
  5
270
330
1F
100
AcDbEntity
  8
0
  6
Continuous
 62
     7
370
    25
100
AcDbLine
 10
-412.9683675517
 20
8472.1948254778
 30
0.0
 11
-412.9683675517
 21
8472.1300554778
 31
0.0
  0
LINE
  5
271
330
1F
100
AcDbEntity
  8
0
  6
Continuous
 62
     7
370
    25
100
AcDbLine
 10
-412.9683675517
 20
8472.1300554778
 30
0.0
 11
-410.5667975517
 21
8470.9283814778
 31
0.0
  0
LINE
  5
272
330
1F
100
AcDbEntity
  8
0
  6
Continuous
 62
     7
370
    25
100
AcDbLine
 10
-410.5667975517
 20
8470.9283814778
 30
0.0
 11
-406.3180125517
 21
8474.3350294778
 31
0.0
  0
LINE
  5
273
330
1F
100
AcDbEntity
  8
0
  6
Continuous
 62
     7
370
    25
100
AcDbLine
 10
-406.3180125517
 20
8474.3350294778
 30
0.0
 11
-404.5008965517
 21
8475.1794524778
 31
0.0
  0
LINE
  5
274
330
1F
100
AcDbEntity
  8
0
  6
Continuous
 62
     7
370
    25
100
AcDbLine
 10
-404.5008965517
 20
8475.1794524778
 30
0.0
 11
-403.2355955517
 21
8478.6840174778
 31
0.0
  0
LINE
  5
275
330
1F
100
AcDbEntity
  8
0
  6
Continuous
 62
     7
370
    25
100
AcDbLine
 10
-403.2355955517
 20
8478.6840174778
 30
0.0
 11
-403.8175095517
 21
8480.0459654778
 31
0.0
  0
LINE
  5
276
330
1F
100
AcDbEntity
  8
0
  6
Continuous
 62
     7
370
    25
100
AcDbLine
 10
-403.8175095517
 20
8480.0459654778
 30
0.0
 11
-401.9694055517
 21
8481.2468774778
 31
0.0
  0
LINE
  5
277
330
1F
100
AcDbEntity
  8
0
  6
Continuous
 62
     7
370
    25
100
AcDbLine
 10
-401.9694055517
 20
8481.2468774778
 30
0.0
 11
-401.5143645517
 21
8483.0317354778
 31
0.0
  0
LINE
  5
278
330
1F
100
AcDbEntity
  8
0
  6
Continuous
 62
     7
370
    25
100
AcDbLine
 10
-401.5143645517
 20
8483.0317354778
 30
0.0
 11
-402.5522085517
 21
8483.9076544778
 31
0.0
  0
LINE
  5
279
330
1F
100
AcDbEntity
  8
0
  6
Continuous
 62
     7
370
    25
100
AcDbLine
 10
-402.5522085517
 20
8483.9076544778
 30
0.0
 11
-402.8133205517
 21
8485.4333054778
 31
0.0
  0
LINE
  5
27A
330
1F
100
AcDbEntity
  8
0
  6
Continuous
 62
     7
370
    25
100
AcDbLine
 10
-402.8133205517
 20
8485.4333054778
 30
0.0
 11
-400.4108615517
 21
8485.6923854778
 31
0.0
  0
LINE
  5
27B
330
1F
100
AcDbEntity
  8
0
  6
Continuous
 62
     7
370
    25
100
AcDbLine
 10
-400.4108615517
 20
8485.6923854778
 30
0.0
 11
-398.9513775517
 21
8485.1729554778
 31
0.0
  0
LINE
  5
27C
330
1F
100
AcDbEntity
  8
0
  6
Continuous
 62
     7
370
    25
100
AcDbLine
 10
-398.9513775517
 20
8485.1729554778
 30
0.0
 11
-397.5241515517
 21
8485.7900484778
 31
0.0
  0
LINE
  5
27D
330
1F
100
AcDbEntity
  8
0
  6
Continuous
 62
     7
370
    25
100
AcDbLine
 10
-397.5241515517
 20
8485.7900484778
 30
0.0
 11
-391.8773505517
 21
8482.6102224778
 31
0.0
  0
LINE
  5
27E
330
1F
100
AcDbEntity
  8
0
  6
Continuous
 62
     7
370
    25
100
AcDbLine
 10
-391.8773505517
 20
8482.6102224778
 30
0.0
 11
-390.1911715517
 21
8482.7072504778
 31
0.0
  0
LINE
  5
27F
330
1F
100
AcDbEntity
  8
0
  6
Continuous
 62
     7
370
    25
100
AcDbLine
 10
-390.1911715517
 20
8482.7072504778
 30
0.0
 11
-388.6340245517
 21
8483.5501494778
 31
0.0
  0
LINE
  5
280
330
1F
100
AcDbEntity
  8
0
  6
Continuous
 62
     7
370
    25
100
AcDbLine
 10
-388.6340245517
 20
8483.5501494778
 30
0.0
 11
-386.8471345517
 21
8482.3499994778
 31
0.0
  0
LINE
  5
281
330
1F
100
AcDbEntity
  8
0
  6
Continuous
 62
     7
370
    25
100
AcDbLine
 10
-386.8471345517
 20
8482.3499994778
 30
0.0
 11
-384.8064985517
 21
8483.7129634778
 31
0.0
  0
LINE
  5
282
330
1F
100
AcDbEntity
  8
0
  6
Continuous
 62
     7
370
    25
100
AcDbLine
 10
-384.8064985517
 20
8483.7129634778
 30
0.0
 11
-382.7597665517
 21
8486.4708954778
 31
0.0
  0
LINE
  5
283
330
1F
100
AcDbEntity
  8
0
  6
Continuous
 62
     7
370
    25
100
AcDbLine
 10
-382.7597665517
 20
8486.4708954778
 30
0.0
 11
-382.5011945517
 21
8484.7508074778
 31
0.0
  0
LINE
  5
284
330
1F
100
AcDbEntity
  8
0
  6
Continuous
 62
     7
370
    25
100
AcDbLine
 10
-382.5011945517
 20
8484.7508074778
 30
0.0
 11
-381.1387385517
 21
8485.1078044778
 31
0.0
  0
LINE
  5
285
330
1F
100
AcDbEntity
  8
0
  6
Continuous
 62
     7
370
    25
100
AcDbLine
 10
-381.1387385517
 20
8485.1078044778
 30
0.0
 11
-380.1005135517
 21
8487.8992644778
 31
0.0
  0
LINE
  5
286
330
1F
100
AcDbEntity
  8
0
  6
Continuous
 62
     7
370
    25
100
AcDbLine
 10
-380.1005135517
 20
8487.8992644778
 30
0.0
 11
-377.7964795517
 21
8488.2556264778
 31
0.0
  0
LINE
  5
287
330
1F
100
AcDbEntity
  8
0
  6
Continuous
 62
     7
370
    25
100
AcDbLine
 10
-377.7964795517
 20
8488.2556264778
 30
0.0
 11
-375.0710595517
 21
8487.1526314778
 31
0.0
  0
LINE
  5
288
330
1F
100
AcDbEntity
  8
0
  6
Continuous
 62
     7
370
    25
100
AcDbLine
 10
-375.0710595517
 20
8487.1526314778
 30
0.0
 11
-373.0273755517
 21
8488.1578364778
 31
0.0
  0
LINE
  5
289
330
1F
100
AcDbEntity
  8
0
  6
Continuous
 62
     7
370
    25
100
AcDbLine
 10
-373.0273755517
 20
8488.1578364778
 30
0.0
 11
-372.3448775517
 21
8486.7957614778
 31
0.0
  0
LINE
  5
28A
330
1F
100
AcDbEntity
  8
0
  6
Continuous
 62
     7
370
    25
100
AcDbLine
 10
-372.3448775517
 20
8486.7957614778
 30
0.0
 11
-373.1896815517
 21
8485.7900484778
 31
0.0
  0
LINE
  5
28B
330
1F
100
AcDbEntity
  8
0
  6
Continuous
 62
     7
370
    25
100
AcDbLine
 10
-373.7077145517
 20
8482.0260224778
 30
0.0
 11
-373.8696395517
 21
8481.1818534778
 31
0.0
  0
LINE
  5
28C
330
1F
100
AcDbEntity
  8
0
  6
Continuous
 62
     7
370
    25
100
AcDbLine
 10
-373.8696395517
 20
8481.1818534778
 30
0.0
 11
-374.9730155517
 21
8480.5657764778
 31
0.0
  0
LINE
  5
28D
330
1F
100
AcDbEntity
  8
0
  6
Continuous
 62
     7
370
    25
100
AcDbLine
 10
-374.9730155517
 20
8480.5657764778
 30
0.0
 11
-374.9730155517
 21
8477.0617194778
 31
0.0
  0
LINE
  5
28E
330
1F
100
AcDbEntity
  8
0
  6
Continuous
 62
     7
370
    25
100
AcDbLine
 10
-374.9730155517
 20
8477.0617194778
 30
0.0
 11
-373.8057585517
 21
8477.4180814778
 31
0.0
  0
LINE
  5
28F
330
1F
100
AcDbEntity
  8
0
  6
Continuous
 62
     7
370
    25
100
AcDbLine
 10
-373.8057585517
 20
8477.4180814778
 30
0.0
 11
-372.7670255517
 21
8476.9966954778
 31
0.0
  0
LINE
  5
290
330
1F
100
AcDbEntity
  8
0
  6
Continuous
 62
     7
370
    25
100
AcDbLine
 10
-372.7670255517
 20
8476.9966954778
 30
0.0
 11
-370.6252975517
 21
8474.6926614778
 31
0.0
  0
LINE
  5
291
330
1F
100
AcDbEntity
  8
0
  6
Continuous
 62
     7
370
    25
100
AcDbLine
 10
-370.6252975517
 20
8474.6926614778
 30
0.0
 11
-369.3596155517
 21
8474.4975894778
 31
0.0
  0
LINE
  5
292
330
1F
100
AcDbEntity
  8
0
  6
Continuous
 62
     7
370
    25
100
AcDbLine
 10
-369.3596155517
 20
8474.4975894778
 30
0.0
 11
-369.4567705517
 21
8472.8754184778
 31
0.0
  0
LINE
  5
293
330
1F
100
AcDbEntity
  8
0
  6
Continuous
 62
     7
370
    25
100
AcDbLine
 10
-369.4567705517
 20
8472.8754184778
 30
0.0
 11
-370.9824215517
 21
8472.8100134778
 31
0.0
  0
LINE
  5
294
330
1F
100
AcDbEntity
  8
0
  6
Continuous
 62
     7
370
    25
100
AcDbLine
 10
-370.9824215517
 20
8472.8100134778
 30
0.0
 11
-371.3057635517
 21
8471.6102444778
 31
0.0
  0
LINE
  5
295
330
1F
100
AcDbEntity
  8
0
  6
Continuous
 62
     7
370
    25
100
AcDbLine
 10
-371.3057635517
 20
8471.6102444778
 30
0.0
 11
-372.3448775517
 21
8471.6102444778
 31
0.0
  0
LINE
  5
296
330
1F
100
AcDbEntity
  8
0
  6
Continuous
 62
     7
370
    25
100
AcDbLine
 10
-372.3448775517
 20
8471.6102444778
 30
0.0
 11
-372.7670255517
 21
8473.2330504778
 31
0.0
  0
LINE
  5
297
330
1F
100
AcDbEntity
  8
0
  6
Continuous
 62
     7
370
    25
100
AcDbLine
 10
-372.7670255517
 20
8473.2330504778
 30
0.0
 11
-373.6110675517
 21
8473.2330504778
 31
0.0
  0
LINE
  5
298
330
1F
100
AcDbEntity
  8
0
  6
Continuous
 62
     7
370
    25
100
AcDbLine
 10
-373.6110675517
 20
8473.2330504778
 30
0.0
 11
-373.7077145517
 21
8472.6483424778
 31
0.0
  0
LINE
  5
299
330
1F
100
AcDbEntity
  8
0
  6
Continuous
 62
     7
370
    25
100
AcDbLine
 10
-373.7077145517
 20
8472.6483424778
 30
0.0
 11
-375.1682145517
 21
8472.1948254778
 31
0.0
  0
LINE
  5
29A
330
1F
100
AcDbEntity
  8
0
  6
Continuous
 62
     7
370
    25
100
AcDbLine
 10
-375.1682145517
 20
8472.1948254778
 30
0.0
 11
-375.3292505517
 21
8470.6694284778
 31
0.0
  0
LINE
  5
29B
330
1F
100
AcDbEntity
  8
0
  6
Continuous
 62
     7
370
    25
100
AcDbLine
 10
-375.3292505517
 20
8470.6694284778
 30
0.0
 11
-374.3894505517
 21
8470.2467724778
 31
0.0
  0
LINE
  5
29C
330
1F
100
AcDbEntity
  8
0
  6
Continuous
 62
     7
370
    25
100
AcDbLine
 10
-374.3894505517
 20
8470.2467724778
 30
0.0
 11
-373.1236415517
 21
8469.7291204778
 31
0.0
  0
LINE
  5
29D
330
1F
100
AcDbEntity
  8
0
  6
Continuous
 62
     7
370
    25
100
AcDbLine
 10
-373.1236415517
 20
8469.7291204778
 30
0.0
 11
-372.1829525517
 21
8469.4687704778
 31
0.0
  0
LINE
  5
29E
330
1F
100
AcDbEntity
  8
0
  6
Continuous
 62
     7
370
    25
100
AcDbLine
 10
-372.1829525517
 20
8469.4687704778
 30
0.0
 11
-371.9886425517
 21
8467.8467264778
 31
0.0
  0
LINE
  5
29F
330
1F
100
AcDbEntity
  8
0
  6
Continuous
 62
     7
370
    25
100
AcDbLine
 10
-371.9886425517
 20
8467.8467264778
 30
0.0
 11
-372.6698705517
 21
8467.5222414778
 31
0.0
  0
LINE
  5
2A0
330
1F
100
AcDbEntity
  8
0
  6
Continuous
 62
     7
370
    25
100
AcDbLine
 10
-372.6698705517
 20
8467.5222414778
 30
0.0
 11
-373.3510985517
 21
8466.5809174778
 31
0.0
  0
LINE
  5
2A1
330
1F
100
AcDbEntity
  8
0
  6
Continuous
 62
     7
370
    25
100
AcDbLine
 10
-373.3510985517
 20
8466.5809174778
 30
0.0
 11
-373.8696395517
 21
8466.5809174778
 31
0.0
  0
LINE
  5
2A2
330
1F
100
AcDbEntity
  8
0
  6
Continuous
 62
     7
370
    25
100
AcDbLine
 10
-373.8696395517
 20
8466.5809174778
 30
0.0
 11
-374.2257475517
 21
8467.0026844778
 31
0.0
  0
LINE
  5
2A3
330
1F
100
AcDbEntity
  8
0
  6
Continuous
 62
     7
370
    25
100
AcDbLine
 10
-374.2257475517
 20
8467.0026844778
 30
0.0
 11
-374.8112175517
 21
8467.1643554778
 31
0.0
  0
LINE
  5
2A4
330
1F
100
AcDbEntity
  8
0
  6
Continuous
 62
     7
370
    25
100
AcDbLine
 10
-374.8112175517
 20
8467.1643554778
 30
0.0
 11
-375.9159905517
 21
8466.2241744778
 31
0.0
  0
LINE
  5
2A5
330
1F
100
AcDbEntity
  8
0
  6
Continuous
 62
     7
370
    25
100
AcDbLine
 10
-375.9159905517
 20
8466.2241744778
 30
0.0
 11
-376.9520565517
 21
8465.9644594778
 31
0.0
  0
LINE
  5
2A6
330
1F
100
AcDbEntity
  8
0
  6
Continuous
 62
     7
370
    25
100
AcDbLine
 10
-376.9520565517
 20
8465.9644594778
 30
0.0
 11
-377.5370185517
 21
8465.3805134778
 31
0.0
  0
LINE
  5
2A7
330
1F
100
AcDbEntity
  8
0
  6
Continuous
 62
     7
370
    25
100
AcDbLine
 10
-377.5370185517
 20
8465.3805134778
 30
0.0
 11
-378.5765135517
 21
8465.2178264778
 31
0.0
  0
LINE
  5
2A8
330
1F
100
AcDbEntity
  8
0
  6
Continuous
 62
     7
370
    25
100
AcDbLine
 10
-378.5765135517
 20
8465.2178264778
 30
0.0
 11
-379.2560905517
 21
8464.1796014778
 31
0.0
  0
LINE
  5
2A9
330
1F
100
AcDbEntity
  8
0
  6
Continuous
 62
     7
370
    25
100
AcDbLine
 10
-379.2560905517
 20
8464.1796014778
 30
0.0
 11
-380.0352355517
 21
8463.2389124778
 31
0.0
  0
LINE
  5
2AA
330
1F
100
AcDbEntity
  8
0
  6
Continuous
 62
     7
370
    25
100
AcDbLine
 10
-380.0352355517
 20
8463.2389124778
 30
0.0
 11
-380.0352355517
 21
8461.4545624778
 31
0.0
  0
LINE
  5
2AB
330
1F
100
AcDbEntity
  8
0
  6
Continuous
 62
     7
370
    25
100
AcDbLine
 10
-380.0352355517
 20
8461.4545624778
 30
0.0
 11
-381.3981995517
 21
8460.0910904778
 31
0.0
  0
LINE
  5
2AC
330
1F
100
AcDbEntity
  8
0
  6
Continuous
 62
     7
370
    25
100
AcDbLine
 10
-381.3981995517
 20
8460.0910904778
 30
0.0
 11
-380.8787695517
 21
8458.6312254778
 31
0.0
  0
LINE
  5
2AD
330
1F
100
AcDbEntity
  8
0
  6
Continuous
 62
     7
370
    25
100
AcDbLine
 10
-380.8787695517
 20
8458.6312254778
 30
0.0
 11
-380.5217725517
 21
8456.9445384778
 31
0.0
  0
LINE
  5
2AE
330
1F
100
AcDbEntity
  8
0
  6
Continuous
 62
     7
370
    25
100
AcDbLine
 10
-380.5217725517
 20
8456.9445384778
 30
0.0
 11
-378.8352125517
 21
8456.0678574778
 31
0.0
  0
LINE
  5
2AF
330
1F
100
AcDbEntity
  8
0
  6
Continuous
 62
     7
370
    25
100
AcDbLine
 10
-378.8352125517
 20
8456.0678574778
 30
0.0
 11
-378.3157825517
 21
8454.9002194778
 31
0.0
  0
LINE
  5
2B0
330
1F
100
AcDbEntity
  8
0
  6
Continuous
 62
     7
370
    25
100
AcDbLine
 10
-378.3157825517
 20
8454.9002194778
 30
0.0
 11
-379.5801945517
 21
8452.8240234778
 31
0.0
  0
LINE
  5
2B1
330
1F
100
AcDbEntity
  8
0
  6
Continuous
 62
     7
370
    25
100
AcDbLine
 10
-379.5801945517
 20
8452.8240234778
 30
0.0
 11
-378.1525875517
 21
8452.8240234778
 31
0.0
  0
LINE
  5
2B2
330
1F
100
AcDbEntity
  8
0
  6
Continuous
 62
     7
370
    25
100
AcDbLine
 10
-378.1525875517
 20
8452.8240234778
 30
0.0
 11
-378.1525875517
 21
8451.1364474778
 31
0.0
  0
LINE
  5
2B3
330
1F
100
AcDbEntity
  8
0
  6
Continuous
 62
     7
370
    25
100
AcDbLine
 10
-378.1525875517
 20
8451.1364474778
 30
0.0
 11
-377.2127875517
 21
8449.7733564778
 31
0.0
  0
LINE
  5
2B4
330
1F
100
AcDbEntity
  8
0
  6
Continuous
 62
     7
370
    25
100
AcDbLine
 10
-377.2127875517
 20
8449.7733564778
 30
0.0
 11
-378.6732875517
 21
8449.7733564778
 31
0.0
  0
LINE
  5
2B5
330
1F
100
AcDbEntity
  8
0
  6
Continuous
 62
     7
370
    25
100
AcDbLine
 10
-378.6732875517
 20
8449.7733564778
 30
0.0
 11
-378.7375495517
 21
8448.5732064778
 31
0.0
  0
LINE
  5
2B6
330
1F
100
AcDbEntity
  8
0
  6
Continuous
 62
     7
370
    25
100
AcDbLine
 10
-378.7375495517
 20
8448.5732064778
 30
0.0
 11
-377.6332845517
 21
8448.4109004778
 31
0.0
  0
LINE
  5
2B7
330
1F
100
AcDbEntity
  8
0
  6
Continuous
 62
     7
370
    25
100
AcDbLine
 10
-377.6332845517
 20
8448.4109004778
 30
0.0
 11
-378.4763105517
 21
8446.4309704778
 31
0.0
  0
LINE
  5
2B8
330
1F
100
AcDbEntity
  8
0
  6
Continuous
 62
     7
370
    25
100
AcDbLine
 10
-378.4763105517
 20
8446.4309704778
 30
0.0
 11
-379.5801945517
 21
8446.3667084778
 31
0.0
  0
LINE
  5
2B9
330
1F
100
AcDbEntity
  8
0
  6
Continuous
 62
     7
370
    25
100
AcDbLine
 10
-379.5801945517
 20
8446.3667084778
 30
0.0
 11
-379.6778575517
 21
8443.4462164778
 31
0.0
  0
LINE
  5
2BA
330
1F
100
AcDbEntity
  8
0
  6
Continuous
 62
     7
370
    25
100
AcDbLine
 10
-379.6778575517
 20
8443.4462164778
 30
0.0
 11
-378.1525875517
 21
8441.9864784778
 31
0.0
  0
LINE
  5
2BB
330
1F
100
AcDbEntity
  8
0
  6
Continuous
 62
     7
370
    25
100
AcDbLine
 10
-378.1525875517
 20
8441.9864784778
 30
0.0
 11
-378.6732875517
 21
8439.4553684778
 31
0.0
  0
LINE
  5
2BC
330
1F
100
AcDbEntity
  8
0
  6
Continuous
 62
     7
370
    25
100
AcDbLine
 10
-378.6732875517
 20
8439.4553684778
 30
0.0
 11
-380.3599745517
 21
8439.3579594778
 31
0.0
  0
LINE
  5
2BD
330
1F
100
AcDbEntity
  8
0
  6
Continuous
 62
     7
370
    25
100
AcDbLine
 10
-380.3599745517
 20
8439.3579594778
 30
0.0
 11
-381.8847365517
 21
8441.9220894778
 31
0.0
  0
LINE
  5
2BE
330
1F
100
AcDbEntity
  8
0
  6
Continuous
 62
     7
370
    25
100
AcDbLine
 10
-381.8847365517
 20
8441.9220894778
 30
0.0
 11
-381.4606835517
 21
8442.8623974778
 31
0.0
  0
LINE
  5
2BF
330
1F
100
AcDbEntity
  8
0
  6
Continuous
 62
     7
370
    25
100
AcDbLine
 10
-381.4606835517
 20
8442.8623974778
 30
0.0
 11
-382.0789195517
 21
8443.1870094778
 31
0.0
  0
LINE
  5
2C0
330
1F
100
AcDbEntity
  8
0
  6
Continuous
 62
     7
370
    25
100
AcDbLine
 10
-382.0789195517
 20
8443.1870094778
 30
0.0
 11
-382.8258065517
 21
8441.7591484778
 31
0.0
  0
LINE
  5
2C1
330
1F
100
AcDbEntity
  8
0
  6
Continuous
 62
     7
370
    25
100
AcDbLine
 10
-382.8258065517
 20
8441.7591484778
 30
0.0
 11
-380.8787695517
 21
8438.9359384778
 31
0.0
  0
LINE
  5
2C2
330
1F
100
AcDbEntity
  8
0
  6
Continuous
 62
     7
370
    25
100
AcDbLine
 10
-380.8787695517
 20
8438.9359384778
 30
0.0
 11
-380.3599745517
 21
8437.3142754778
 31
0.0
  0
LINE
  5
2C3
330
1F
100
AcDbEntity
  8
0
  6
Continuous
 62
     7
370
    25
100
AcDbLine
 10
-380.3599745517
 20
8437.3142754778
 30
0.0
 11
-381.6567715517
 21
8436.6971824778
 31
0.0
  0
LINE
  5
2C4
330
1F
100
AcDbEntity
  8
0
  6
Continuous
 62
     7
370
    25
100
AcDbLine
 10
-381.6567715517
 20
8436.6971824778
 30
0.0
 11
-380.6198165517
 21
8435.8536484778
 31
0.0
  0
LINE
  5
2C5
330
1F
100
AcDbEntity
  8
0
  6
Continuous
 62
     7
370
    25
100
AcDbLine
 10
-380.6198165517
 20
8435.8536484778
 30
0.0
 11
-380.7169715517
 21
8434.3937834778
 31
0.0
  0
LINE
  5
2C6
330
1F
100
AcDbEntity
  8
0
  6
Continuous
 62
     7
370
    25
100
AcDbLine
 10
-380.7169715517
 20
8434.3937834778
 30
0.0
 11
-381.5596165517
 21
8433.2905344778
 31
0.0
  0
LINE
  5
2C7
330
1F
100
AcDbEntity
  8
0
  6
Continuous
 62
     7
370
    25
100
AcDbLine
 10
-381.5596165517
 20
8433.2905344778
 30
0.0
 11
-381.3981995517
 21
8431.9280784778
 31
0.0
  0
LINE
  5
2C8
330
1F
100
AcDbEntity
  8
0
  6
Continuous
 62
     7
370
    25
100
AcDbLine
 10
-381.3981995517
 20
8431.9280784778
 30
0.0
 11
-383.0201165517
 21
8431.3433704778
 31
0.0
  0
LINE
  5
2C9
330
1F
100
AcDbEntity
  8
0
  6
Continuous
 62
     7
370
    25
100
AcDbLine
 10
-382.7597665517
 20
8429.4619924778
 30
0.0
 11
-383.9608055517
 21
8427.0614384778
 31
0.0
  0
LINE
  5
2CA
330
1F
100
AcDbEntity
  8
0
  6
Continuous
 62
     7
370
    25
100
AcDbLine
 10
-383.9608055517
 20
8427.0614384778
 30
0.0
 11
-382.8258065517
 21
8426.8009614778
 31
0.0
  0
LINE
  5
2CB
330
1F
100
AcDbEntity
  8
0
  6
Continuous
 62
     7
370
    25
100
AcDbLine
 10
-382.8258065517
 20
8426.8009614778
 30
0.0
 11
-380.3599745517
 21
8424.8544324778
 31
0.0
  0
LINE
  5
2CC
330
1F
100
AcDbEntity
  8
0
  6
Continuous
 62
     7
370
    25
100
AcDbLine
 10
-380.3599745517
 20
8424.8544324778
 30
0.0
 11
-380.6198165517
 21
8422.2913184778
 31
0.0
  0
LINE
  5
2CD
330
1F
100
AcDbEntity
  8
0
  6
Continuous
 62
     7
370
    25
100
AcDbLine
 10
-380.6198165517
 20
8422.2913184778
 30
0.0
 11
-379.8414335517
 21
8422.2913184778
 31
0.0
  0
LINE
  5
2CE
330
1F
100
AcDbEntity
  8
0
  6
Continuous
 62
     7
370
    25
100
AcDbLine
 10
-379.8414335517
 20
8422.2913184778
 30
0.0
 11
-379.3531185517
 21
8423.6533934778
 31
0.0
  0
LINE
  5
2CF
330
1F
100
AcDbEntity
  8
0
  6
Continuous
 62
     7
370
    25
100
AcDbLine
 10
-379.3531185517
 20
8423.6533934778
 30
0.0
 11
-377.1147435517
 21
8422.1283774778
 31
0.0
  0
LINE
  5
2D0
330
1F
100
AcDbEntity
  8
0
  6
Continuous
 62
     7
370
    25
100
AcDbLine
 10
-377.1147435517
 20
8422.1283774778
 30
0.0
 11
-377.2127875517
 21
8421.5125544778
 31
0.0
  0
LINE
  5
2D1
330
1F
100
AcDbEntity
  8
0
  6
Continuous
 62
     7
370
    25
100
AcDbLine
 10
-377.2127875517
 20
8421.5125544778
 30
0.0
 11
-375.7522875517
 21
8421.5125544778
 31
0.0
  0
LINE
  5
2D2
330
1F
100
AcDbEntity
  8
0
  6
Continuous
 62
     7
370
    25
100
AcDbLine
 10
-375.7522875517
 20
8421.5125544778
 30
0.0
 11
-375.6556405517
 21
8417.5214524778
 31
0.0
  0
LINE
  5
2D3
330
1F
100
AcDbEntity
  8
0
  6
Continuous
 62
     7
370
    25
100
AcDbLine
 10
-375.6556405517
 20
8417.5214524778
 30
0.0
 11
-376.9520565517
 21
8417.5868574778
 31
0.0
  0
LINE
  5
2D4
330
1F
100
AcDbEntity
  8
0
  6
Continuous
 62
     7
370
    25
100
AcDbLine
 10
-376.9520565517
 20
8417.5868574778
 30
0.0
 11
-377.2127875517
 21
8416.0615874778
 31
0.0
  0
LINE
  5
2D5
330
1F
100
AcDbEntity
  8
0
  6
Continuous
 62
     7
370
    25
100
AcDbLine
 10
-377.2127875517
 20
8416.0615874778
 30
0.0
 11
-376.8552825517
 21
8414.0172684778
 31
0.0
  0
LINE
  5
2D6
330
1F
100
AcDbEntity
  8
0
  6
Continuous
 62
     7
370
    25
100
AcDbLine
 10
-376.8552825517
 20
8414.0172684778
 30
0.0
 11
-377.3733155517
 21
8412.9785354778
 31
0.0
  0
LINE
  5
2D7
330
1F
100
AcDbEntity
  8
0
  6
Continuous
 62
     7
370
    25
100
AcDbLine
 10
-377.3733155517
 20
8412.9785354778
 30
0.0
 11
-376.4347855517
 21
8410.4161834778
 31
0.0
  0
LINE
  5
2D8
330
1F
100
AcDbEntity
  8
0
  6
Continuous
 62
     7
370
    25
100
AcDbLine
 10
-376.4347855517
 20
8410.4161834778
 30
0.0
 11
-374.7464475517
 21
8410.0911904778
 31
0.0
  0
LINE
  5
2D9
330
1F
100
AcDbEntity
  8
0
  6
Continuous
 62
     7
370
    25
100
AcDbLine
 10
-374.7464475517
 20
8410.0911904778
 30
0.0
 11
-375.0710595517
 21
8408.2100664778
 31
0.0
  0
LINE
  5
2DA
330
1F
100
AcDbEntity
  8
0
  6
Continuous
 62
     7
370
    25
100
AcDbLine
 10
-375.0710595517
 20
8408.2100664778
 30
0.0
 11
-377.1147435517
 21
8408.3712294778
 31
0.0
  0
LINE
  5
2DB
330
1F
100
AcDbEntity
  8
0
  6
Continuous
 62
     7
370
    25
100
AcDbLine
 10
-377.1147435517
 20
8408.3712294778
 30
0.0
 11
-377.1147435517
 21
8406.1658744778
 31
0.0
  0
LINE
  5
2DC
330
1F
100
AcDbEntity
  8
0
  6
Continuous
 62
     7
370
    25
100
AcDbLine
 10
-377.1147435517
 20
8406.1658744778
 30
0.0
 11
-378.4763105517
 21
8406.1658744778
 31
0.0
  0
LINE
  5
2DD
330
1F
100
AcDbEntity
  8
0
  6
Continuous
 62
     7
370
    25
100
AcDbLine
 10
-378.4763105517
 20
8406.1658744778
 30
0.0
 11
-378.3157825517
 21
8404.9644544778
 31
0.0
  0
LINE
  5
2DE
330
1F
100
AcDbEntity
  8
0
  6
Continuous
 62
     7
370
    25
100
AcDbLine
 10
-378.3157825517
 20
8404.9644544778
 30
0.0
 11
-380.1005135517
 21
8400.7145264778
 31
0.0
  0
LINE
  5
2DF
330
1F
100
AcDbEntity
  8
0
  6
Continuous
 62
     7
370
    25
100
AcDbLine
 10
-380.1005135517
 20
8400.7145264778
 30
0.0
 11
-379.5801945517
 21
8400.2601204778
 31
0.0
  0
LINE
  5
2E0
330
1F
100
AcDbEntity
  8
0
  6
Continuous
 62
     7
370
    25
100
AcDbLine
 10
-379.5801945517
 20
8400.2601204778
 30
0.0
 11
-379.4178885517
 21
8400.1949694778
 31
0.0
  0
LINE
  5
2E1
330
1F
100
AcDbEntity
  8
0
  6
Continuous
 62
     7
370
    25
100
AcDbLine
 10
-379.4178885517
 20
8400.1949694778
 30
0.0
 11
-381.0403135517
 21
8397.2751124778
 31
0.0
  0
LINE
  5
2E2
330
1F
100
AcDbEntity
  8
0
  6
Continuous
 62
     7
370
    25
100
AcDbLine
 10
-381.0403135517
 20
8397.2751124778
 30
0.0
 11
-382.3374915517
 21
8397.7286294778
 31
0.0
  0
LINE
  5
2E3
330
1F
100
AcDbEntity
  8
0
  6
Continuous
 62
     7
370
    25
100
AcDbLine
 10
-382.3374915517
 20
8397.7286294778
 30
0.0
 11
-382.5978415517
 21
8395.9121484778
 31
0.0
  0
LINE
  5
2E4
330
1F
100
AcDbEntity
  8
0
  6
Continuous
 62
     7
370
    25
100
AcDbLine
 10
-382.5978415517
 20
8395.9121484778
 30
0.0
 11
-384.2854175517
 21
8395.6523064778
 31
0.0
  0
LINE
  5
2E5
330
1F
100
AcDbEntity
  8
0
  6
Continuous
 62
     7
370
    25
100
AcDbLine
 10
-385.4864565517
 20
8393.5432174778
 30
0.0
 11
-386.7517575517
 21
8393.1863474778
 31
0.0
  0
LINE
  5
2E6
330
1F
100
AcDbEntity
  8
0
  6
Continuous
 62
     7
370
    25
100
AcDbLine
 10
-386.7517575517
 20
8393.1863474778
 30
0.0
 11
-387.4329855517
 21
8391.9213004778
 31
0.0
  0
LINE
  5
2E7
330
1F
100
AcDbEntity
  8
0
  6
Continuous
 62
     7
370
    25
100
AcDbLine
 10
-390.7756255517
 20
8392.3430674778
 30
0.0
 11
-391.8134695517
 21
8392.5049924778
 31
0.0
  0
LINE
  5
2E8
330
1F
100
AcDbEntity
  8
0
  6
Continuous
 62
     7
370
    25
100
AcDbLine
 10
-391.8134695517
 20
8392.5049924778
 30
0.0
 11
-392.0392755517
 21
8391.9213004778
 31
0.0
  0
LINE
  5
2E9
330
1F
100
AcDbEntity
  8
0
  6
Continuous
 62
     7
370
    25
100
AcDbLine
 10
-392.0392755517
 20
8391.9213004778
 30
0.0
 11
-394.4421155517
 21
8391.9861974778
 31
0.0
  0
LINE
  5
2EA
330
1F
100
AcDbEntity
  8
0
  6
Continuous
 62
     7
370
    25
100
AcDbLine
 10
-394.4421155517
 20
8391.9861974778
 30
0.0
 11
-395.0261885517
 21
8391.3042074778
 31
0.0
  0
LINE
  5
2EB
330
1F
100
AcDbEntity
  8
0
  6
Continuous
 62
     7
370
    25
100
AcDbLine
 10
-395.0261885517
 20
8391.3042074778
 30
0.0
 11
-396.8433045517
 21
8392.1801264778
 31
0.0
  0
LINE
  5
2EC
330
1F
100
AcDbEntity
  8
0
  6
Continuous
 62
     7
370
    25
100
AcDbLine
 10
-396.8433045517
 20
8392.1801264778
 30
0.0
 11
-397.0047215517
 21
8394.0303894778
 31
0.0
  0
LINE
  5
2ED
330
1F
100
AcDbEntity
  8
0
  6
Continuous
 62
     7
370
    25
100
AcDbLine
 10
-397.0047215517
 20
8394.0303894778
 30
0.0
 11
-400.3469805517
 21
8393.7055234778
 31
0.0
  0
LINE
  5
2EE
330
1F
100
AcDbEntity
  8
0
  6
Continuous
 62
     7
370
    25
100
AcDbLine
 10
-400.3469805517
 20
8393.7055234778
 30
0.0
 11
-400.5092865517
 21
8394.2895964778
 31
0.0
  0
LINE
  5
2EF
330
1F
100
AcDbEntity
  8
0
  6
Continuous
 62
     7
370
    25
100
AcDbLine
 10
-400.5092865517
 20
8394.2895964778
 30
0.0
 11
-401.3515505517
 21
8394.2895964778
 31
0.0
  0
LINE
  5
2F0
330
1F
100
AcDbEntity
  8
0
  6
Continuous
 62
     7
370
    25
100
AcDbLine
 10
-401.3515505517
 20
8394.2895964778
 30
0.0
 11
-401.4495945517
 21
8393.1220854778
 31
0.0
  0
LINE
  5
2F1
330
1F
100
AcDbEntity
  8
0
  6
Continuous
 62
     7
370
    25
100
AcDbLine
 10
-401.4495945517
 20
8393.1220854778
 30
0.0
 11
-402.3911725517
 21
8393.0240414778
 31
0.0
  0
LINE
  5
2F2
330
1F
100
AcDbEntity
  8
0
  6
Continuous
 62
     7
370
    25
100
AcDbLine
 10
-402.3911725517
 20
8393.0240414778
 30
0.0
 11
-402.3911725517
 21
8392.1801264778
 31
0.0
  0
LINE
  5
2F3
330
1F
100
AcDbEntity
  8
0
  6
Continuous
 62
     7
370
    25
100
AcDbLine
 10
-402.3911725517
 20
8392.1801264778
 30
0.0
 11
-403.2355955517
 21
8391.7267364778
 31
0.0
  0
LINE
  5
2F4
330
1F
100
AcDbEntity
  8
0
  6
Continuous
 62
     7
370
    25
100
AcDbLine
 10
-403.2355955517
 20
8391.7267364778
 30
0.0
 11
-403.3975205517
 21
8390.7202614778
 31
0.0
  0
LINE
  5
2F5
330
1F
100
AcDbEntity
  8
0
  6
Continuous
 62
     7
370
    25
100
AcDbLine
 10
-403.3975205517
 20
8390.7202614778
 30
0.0
 11
-404.3380825517
 21
8390.5577014778
 31
0.0
  0
LINE
  5
2F6
330
1F
100
AcDbEntity
  8
0
  6
Continuous
 62
     7
370
    25
100
AcDbLine
 10
-404.3380825517
 20
8390.5577014778
 30
0.0
 11
-405.0203265517
 21
8391.1425364778
 31
0.0
  0
LINE
  5
2F7
330
1F
100
AcDbEntity
  8
0
  6
Continuous
 62
     7
370
    25
100
AcDbLine
 10
-405.0203265517
 20
8391.1425364778
 30
0.0
 11
-406.6131687588
 21
8391.2378325973
 31
0.0
  0
ENDSEC
  0
SECTION
  2
OBJECTS
  0
DICTIONARY
  5
C
330
0
100
AcDbDictionary
281
     1
  3
ACAD_GROUP
350
D
  3
ACAD_LAYOUT
350
1A
  3
ACAD_MLINESTYLE
350
17
  3
ACAD_PLOTSETTINGS
350
19
  3
ACAD_PLOTSTYLENAME
350
E
  3
ACAD_SCALELIST
350
47
  0
DICTIONARY
  5
D
102
{ACAD_REACTORS
330
C
102
}
330
C
100
AcDbDictionary
281
     1
  0
DICTIONARY
  5
1A
102
{ACAD_REACTORS
330
C
102
}
330
C
100
AcDbDictionary
281
     1
  3
Layout1
350
1E
  3
Layout2
350
26
  3
Model
350
22
  0
DICTIONARY
  5
17
102
{ACAD_REACTORS
330
C
102
}
330
C
100
AcDbDictionary
281
     1
  3
Standard
350
18
  0
DICTIONARY
  5
19
102
{ACAD_REACTORS
330
C
102
}
330
C
100
AcDbDictionary
281
     1
  0
ACDBDICTIONARYWDFLT
  5
E
102
{ACAD_REACTORS
330
C
102
}
330
C
100
AcDbDictionary
281
     1
  3
Normal
350
F
100
AcDbDictionaryWithDefault
340
F
  0
DICTIONARY
  5
47
102
{ACAD_REACTORS
330
C
102
}
330
C
100
AcDbDictionary
281
     1
  3
A0
350
48
  3
A1
350
49
  3
A2
350
4A
  3
A3
350
4B
  3
A4
350
4C
  3
A5
350
4D
  3
A6
350
4E
  3
A7
350
4F
  3
A8
350
50
  3
A9
350
51
  3
B0
350
52
  3
B1
350
53
  3
B2
350
54
  3
B3
350
55
  3
B4
350
56
  3
B5
350
57
  3
B6
350
58
  3
B7
350
59
  3
B8
350
5A
  3
B9
350
5B
  3
C0
350
5C
  3
C1
350
5D
  3
C2
350
5E
  3
C3
350
5F
  3
C4
350
60
  3
C5
350
61
  3
C6
350
62
  3
C7
350
63
  3
C8
350
64
  3
C9
350
65
  3
D0
350
66
  3
D1
350
67
  3
D2
350
68
  0
LAYOUT
  5
1E
102
{ACAD_REACTORS
330
1A
102
}
330
1A
100
AcDbPlotSettings
  1

  2
none_device
  4

  6

 40
0.0
 41
0.0
 42
0.0
 43
0.0
 44
0.0
 45
0.0
 46
0.0
 47
0.0
 48
0.0
 49
0.0
140
0.0
141
0.0
142
1.0
143
1.0
 70
   688
 72
     1
 73
     0
 74
     5
  7

 75
    16
147
1.0
148
0.0
149
0.0
100
AcDbLayout
  1
Layout1
 70
     1
 71
     1
 10
0.0
 20
0.0
 11
420.0
 21
297.0
 12
0.0
 22
0.0
 32
0.0
 14
1.0000000000E+20
 24
1.0000000000E+20
 34
1.0000000000E+20
 15
-1.0000000000E+20
 25
-1.0000000000E+20
 35
-1.0000000000E+20
146
0.0
 13
0.0
 23
0.0
 33
0.0
 16
1.0
 26
0.0
 36
0.0
 17
0.0
 27
1.0
 37
0.0
 76
     0
330
1B
  0
LAYOUT
  5
26
102
{ACAD_REACTORS
330
1A
102
}
330
1A
100
AcDbPlotSettings
  1

  2
none_device
  4

  6

 40
0.0
 41
0.0
 42
0.0
 43
0.0
 44
0.0
 45
0.0
 46
0.0
 47
0.0
 48
0.0
 49
0.0
140
0.0
141
0.0
142
1.0
143
1.0
 70
   688
 72
     1
 73
     0
 74
     5
  7

 75
    16
147
1.0
148
0.0
149
0.0
100
AcDbLayout
  1
Layout2
 70
     1
 71
     2
 10
0.0
 20
0.0
 11
0.0
 21
0.0
 12
0.0
 22
0.0
 32
0.0
 14
0.0
 24
0.0
 34
0.0
 15
0.0
 25
0.0
 35
0.0
146
0.0
 13
0.0
 23
0.0
 33
0.0
 16
1.0
 26
0.0
 36
0.0
 17
0.0
 27
1.0
 37
0.0
 76
     0
330
23
  0
LAYOUT
  5
22
102
{ACAD_REACTORS
330
1A
102
}
330
1A
100
AcDbPlotSettings
  1

  2
none_device
  4
ANSI_A_(11.00_x_8.50_Inches)
  6

 40
6.35
 41
19.05
 42
6.35000508
 43
19.05000254
 44
279.4
 45
215.9
 46
1037.4344673303
 47
-18374.6161892062
 48
0.0
 49
0.0
140
0.0
141
0.0
142
0.0861328426
143
1.0
 70
  1696
 72
     0
 73
     0
 74
     0
  7

 75
     0
147
0.0179189148
148
-1300.4909072572
149
0.0
100
AcDbLayout
  1
Model
 70
     1
 71
     0
 10
0.0
 20
0.0
 11
420.0
 21
297.0
 12
0.0
 22
0.0
 32
0.0
 14
-457.1282995517
 24
8390.5577014778
 34
0.0
 15
-369.3596155517
 25
8488.2556264778
 35
0.0
146
0.0
 13
0.0
 23
0.0
 33
0.0
 16
1.0
 26
0.0
 36
0.0
 17
0.0
 27
1.0
 37
0.0
 76
     0
330
1F
331
29
  0
MLINESTYLE
  5
18
102
{ACAD_REACTORS
330
17
102
}
330
17
100
AcDbMlineStyle
  2
Standard
 70
     0
  3

 62
   256
 51
90.0
 52
90.0
 71
     2
 49
0.5
 62
   256
  6
BYLAYER
 49
-0.5
 62
   256
  6
BYLAYER
  0
ACDBPLACEHOLDER
  5
F
102
{ACAD_REACTORS
330
E
102
}
330
E
  0
SCALE
  5
48
102
{ACAD_REACTORS
330
47
102
}
330
47
100
AcDbScale
 70
     0
300
1:1
140
1.0
141
1.0
290
     1
  0
SCALE
  5
49
102
{ACAD_REACTORS
330
47
102
}
330
47
100
AcDbScale
 70
     0
300
1:2
140
1.0
141
2.0
290
     0
  0
SCALE
  5
4A
102
{ACAD_REACTORS
330
47
102
}
330
47
100
AcDbScale
 70
     0
300
1:4
140
1.0
141
4.0
290
     0
  0
SCALE
  5
4B
102
{ACAD_REACTORS
330
47
102
}
330
47
100
AcDbScale
 70
     0
300
1:5
140
1.0
141
5.0
290
     0
  0
SCALE
  5
4C
102
{ACAD_REACTORS
330
47
102
}
330
47
100
AcDbScale
 70
     0
300
1:8
140
1.0
141
8.0
290
     0
  0
SCALE
  5
4D
102
{ACAD_REACTORS
330
47
102
}
330
47
100
AcDbScale
 70
     0
300
1:10
140
1.0
141
10.0
290
     0
  0
SCALE
  5
4E
102
{ACAD_REACTORS
330
47
102
}
330
47
100
AcDbScale
 70
     0
300
1:16
140
1.0
141
16.0
290
     0
  0
SCALE
  5
4F
102
{ACAD_REACTORS
330
47
102
}
330
47
100
AcDbScale
 70
     0
300
1:20
140
1.0
141
20.0
290
     0
  0
SCALE
  5
50
102
{ACAD_REACTORS
330
47
102
}
330
47
100
AcDbScale
 70
     0
300
1:30
140
1.0
141
30.0
290
     0
  0
SCALE
  5
51
102
{ACAD_REACTORS
330
47
102
}
330
47
100
AcDbScale
 70
     0
300
1:40
140
1.0
141
40.0
290
     0
  0
SCALE
  5
52
102
{ACAD_REACTORS
330
47
102
}
330
47
100
AcDbScale
 70
     0
300
1:50
140
1.0
141
50.0
290
     0
  0
SCALE
  5
53
102
{ACAD_REACTORS
330
47
102
}
330
47
100
AcDbScale
 70
     0
300
1:100
140
1.0
141
100.0
290
     0
  0
SCALE
  5
54
102
{ACAD_REACTORS
330
47
102
}
330
47
100
AcDbScale
 70
     0
300
2:1
140
2.0
141
1.0
290
     0
  0
SCALE
  5
55
102
{ACAD_REACTORS
330
47
102
}
330
47
100
AcDbScale
 70
     0
300
4:1
140
4.0
141
1.0
290
     0
  0
SCALE
  5
56
102
{ACAD_REACTORS
330
47
102
}
330
47
100
AcDbScale
 70
     0
300
8:1
140
8.0
141
1.0
290
     0
  0
SCALE
  5
57
102
{ACAD_REACTORS
330
47
102
}
330
47
100
AcDbScale
 70
     0
300
10:1
140
10.0
141
1.0
290
     0
  0
SCALE
  5
58
102
{ACAD_REACTORS
330
47
102
}
330
47
100
AcDbScale
 70
     0
300
100:1
140
100.0
141
1.0
290
     0
  0
SCALE
  5
59
102
{ACAD_REACTORS
330
47
102
}
330
47
100
AcDbScale
 70
     0
300
1/128" = 1'-0"
140
0.0078125
141
12.0
290
     0
  0
SCALE
  5
5A
102
{ACAD_REACTORS
330
47
102
}
330
47
100
AcDbScale
 70
     0
300
1/64" = 1'-0"
140
0.015625
141
12.0
290
     0
  0
SCALE
  5
5B
102
{ACAD_REACTORS
330
47
102
}
330
47
100
AcDbScale
 70
     0
300
1/32" = 1'-0"
140
0.03125
141
12.0
290
     0
  0
SCALE
  5
5C
102
{ACAD_REACTORS
330
47
102
}
330
47
100
AcDbScale
 70
     0
300
1/16" = 1'-0"
140
0.0625
141
12.0
290
     0
  0
SCALE
  5
5D
102
{ACAD_REACTORS
330
47
102
}
330
47
100
AcDbScale
 70
     0
300
3/32" = 1'-0"
140
0.09375
141
12.0
290
     0
  0
SCALE
  5
5E
102
{ACAD_REACTORS
330
47
102
}
330
47
100
AcDbScale
 70
     0
300
1/8" = 1'-0"
140
0.125
141
12.0
290
     0
  0
SCALE
  5
5F
102
{ACAD_REACTORS
330
47
102
}
330
47
100
AcDbScale
 70
     0
300
3/16" = 1'-0"
140
0.1875
141
12.0
290
     0
  0
SCALE
  5
60
102
{ACAD_REACTORS
330
47
102
}
330
47
100
AcDbScale
 70
     0
300
1/4" = 1'-0"
140
0.25
141
12.0
290
     0
  0
SCALE
  5
61
102
{ACAD_REACTORS
330
47
102
}
330
47
100
AcDbScale
 70
     0
300
3/8" = 1'-0"
140
0.375
141
12.0
290
     0
  0
SCALE
  5
62
102
{ACAD_REACTORS
330
47
102
}
330
47
100
AcDbScale
 70
     0
300
1/2" = 1'-0"
140
0.5
141
12.0
290
     0
  0
SCALE
  5
63
102
{ACAD_REACTORS
330
47
102
}
330
47
100
AcDbScale
 70
     0
300
3/4" = 1'-0"
140
0.75
141
12.0
290
     0
  0
SCALE
  5
64
102
{ACAD_REACTORS
330
47
102
}
330
47
100
AcDbScale
 70
     0
300
1" = 1'-0"
140
1.0
141
12.0
290
     0
  0
SCALE
  5
65
102
{ACAD_REACTORS
330
47
102
}
330
47
100
AcDbScale
 70
     0
300
1-1/2" = 1'-0"
140
1.5
141
12.0
290
     0
  0
SCALE
  5
66
102
{ACAD_REACTORS
330
47
102
}
330
47
100
AcDbScale
 70
     0
300
3" = 1'-0"
140
3.0
141
12.0
290
     0
  0
SCALE
  5
67
102
{ACAD_REACTORS
330
47
102
}
330
47
100
AcDbScale
 70
     0
300
6" = 1'-0"
140
6.0
141
12.0
290
     0
  0
SCALE
  5
68
102
{ACAD_REACTORS
330
47
102
}
330
47
100
AcDbScale
 70
     0
300
1'-0" = 1'-0"
140
12.0
141
12.0
290
     0
  0
ENDSEC
  0
EOF
