<?xml version="1.0" encoding="UTF-8"?>
<!DOCTYPE svg PUBLIC "-//W3C//DTD SVG 1.1//EN" "http://www.w3.org/Graphics/SVG/1.1/DTD/svg11.dtd">
<!-- Creator: CorelDRAW X7 -->
<svg xmlns="http://www.w3.org/2000/svg" xml:space="preserve" width="210mm" height="297mm" version="1.1" style="shape-rendering:geometricPrecision; text-rendering:geometricPrecision; image-rendering:optimizeQuality; fill-rule:evenodd; clip-rule:evenodd"
viewBox="0 0 21000 29700"
 xmlns:xlink="http://www.w3.org/1999/xlink">
 <defs>
  <style type="text/css">
   <![CDATA[
    .str0 {stroke:black;stroke-width:7.62}
    .fil0 {fill:white}
   ]]>
  </style>
 </defs>
 <g id="Слой_x0020_1">
  <metadata id="CorelCorpID_0Corel-Layer"/>
  <path class="fil0 str0" d="M6161 22804c-10,12 -26,36 -34,52 -9,16 -25,34 -35,38 -11,5 -57,9 -104,9 -72,0 -85,-2 -98,-15 -7,-8 -27,-21 -45,-29 -31,-14 -32,-14 -52,0 -28,22 -63,88 -69,132 -6,35 -9,39 -47,59 -107,57 -146,63 -191,26 -30,-24 -36,-26 -96,-26 -36,0 -68,-4 -72,-8 -5,-5 -30,-9 -55,-11 -44,-1 -47,0 -82,35l-38 36 -23 -22c-27,-26 -62,-28 -113,-7 -48,20 -69,39 -105,96 -29,46 -102,145 -154,211 -24,30 -25,33 -25,118 0,69 4,99 20,148 35,112 41,132 36,139 -2,4 -18,8 -35,8 -28,0 -32,-4 -45,-33 -14,-33 -72,-90 -115,-113 -16,-8 -59,-14 -128,-18 -87,-5 -108,-9 -125,-23 -28,-21 -40,-21 -71,0 -18,13 -31,16 -52,13 -34,-6 -49,6 -77,62 -15,31 -21,36 -33,30 -16,-9 -28,-40 -40,-106 -12,-65 -31,-104 -58,-114 -19,-8 -28,-7 -66,10 -24,12 -55,23 -68,26 -27,5 -63,40 -89,84 -20,32 -27,33 -34,4 -3,-12 -12,-36 -20,-52 -20,-39 -50,-45 -128,-29l-57 11 -18 -37c-28,-60 -30,-62 -51,-65 -15,-1 -29,9 -67,52 -26,29 -50,53 -54,53 -2,0 -10,-10 -16,-23 -18,-36 -34,-51 -53,-51 -25,0 -33,13 -45,71 -10,54 -15,60 -33,40 -8,-11 -8,-16 2,-27 34,-39 21,-84 -24,-84 -15,0 -41,9 -58,18l-31 18 -48 -19c-26,-11 -60,-19 -75,-19 -27,1 -28,-1 -39,-51 -8,-44 -23,-51 -115,-54 -76,-3 -85,-4 -117,-27 -37,-25 -75,-31 -129,-19 -23,6 -28,4 -34,-12 -9,-26 -33,-36 -131,-55 -47,-10 -93,-21 -103,-25 -10,-6 -42,-7 -81,-4 -231,18 -257,16 -337,-26l-37 -19 -53 22c-29,12 -59,26 -65,31 -15,11 -150,9 -171,-2 -12,-7 -23,-6 -39,2 -13,6 -59,24 -103,42 -92,35 -100,41 -135,103 -30,55 -44,74 -82,110 -22,22 -33,27 -62,27 -27,0 -39,-5 -58,-24 -31,-34 -77,-35 -110,-2l-22 23 1 147c2,161 -2,149 64,244 22,28 33,56 36,79 8,64 50,130 118,180l19 15 -31 -5c-35,-6 -54,5 -54,30 0,8 18,50 40,91 39,74 44,98 25,124 -3,4 -11,31 -16,61 -12,63 -21,77 -41,65 -35,-19 -66,-10 -104,30 -18,21 -35,42 -35,45 0,7 -54,62 -90,92 -29,25 -48,49 -161,200 -55,74 -105,141 -110,147 -6,7 -17,24 -25,37 -9,14 -21,27 -27,31 -6,3 -11,10 -11,14 0,5 -28,45 -61,89 -34,45 -65,90 -69,102 -18,45 -18,115 0,212 17,98 35,146 72,179 21,19 24,58 4,51 -7,-3 -15,-5 -19,-5 -3,0 -26,-18 -50,-41 -74,-68 -105,-53 -134,65 -18,74 -51,149 -98,220 -19,30 -38,64 -43,78 -11,28 -25,158 -20,173 2,6 18,18 35,28 32,18 38,27 60,96 19,56 24,62 74,71 37,6 41,10 43,30 4,25 26,43 67,50 15,2 42,9 60,14 28,7 31,10 27,27 -4,15 -1,23 13,32 24,15 90,24 130,17 31,-5 41,-17 59,-71 3,-8 8,-14 11,-13 3,0 26,23 50,52 23,28 55,57 71,65 28,13 31,12 79,-5l52 -18 23 22c28,26 52,33 93,26 103,-15 121,-15 154,4 27,14 41,17 89,13 31,-1 82,-10 114,-19 33,-9 62,-15 66,-12 5,3 11,15 13,27 10,38 130,145 177,156 69,17 152,-45 176,-131 4,-16 9,-18 64,-18 33,0 114,-6 181,-13 112,-12 127,-15 191,-46 38,-18 112,-64 164,-103 93,-69 122,-101 133,-150 2,-12 8,-31 13,-42l7 -21 48 22c47,19 49,20 71,6 12,-8 21,-22 21,-32 0,-15 4,-17 37,-14 30,2 41,0 56,-14l18 -17 23 24c34,34 55,32 92,-13l31 -37 50 5c39,4 51,3 59,-7 14,-16 29,-16 42,-1 6,7 24,12 48,12 32,0 47,7 94,40 104,70 134,95 144,119 13,31 21,37 50,37 17,0 21,3 17,12 -7,18 17,41 55,53 31,11 35,10 84,-16 51,-27 53,-27 84,-15 23,9 34,18 40,37 10,33 27,50 81,88 39,26 50,30 77,26l31 -4 10 39c5,22 23,58 38,80 16,21 28,40 28,44 0,2 -17,15 -37,30 -29,20 -37,31 -37,49 0,12 4,27 8,31 9,9 0,76 -17,120 -8,18 -6,25 6,39 13,15 21,16 54,12l38 -6 -5 28c-9,56 26,80 77,54 47,-24 54,-21 38,15 -7,17 -16,38 -19,47 -3,9 -11,27 -16,39 -11,30 -11,73 1,86 6,5 22,10 37,10 18,0 27,4 27,11 0,6 9,29 20,51 12,21 21,44 21,53 0,26 29,48 64,48 26,0 36,5 57,28 14,16 29,29 34,29 13,0 9,21 -10,62 -14,30 -16,41 -8,53 12,19 13,54 1,60 -22,14 9,102 35,102 12,0 39,25 39,36 0,3 -16,5 -35,3 -31,-2 -36,-5 -55,-39 -22,-37 -37,-46 -69,-37 -13,3 -22,14 -29,35 -6,17 -12,33 -15,36 -4,4 -24,-9 -46,-27 -22,-17 -47,-36 -55,-40 -19,-11 -70,-1 -98,18l-23 16 0 -29c0,-49 -40,-76 -77,-50 -9,6 -27,13 -41,16 -53,13 -72,49 -81,156 -7,70 2,97 40,119l28 17 -44 43c-44,43 -54,66 -36,84 14,14 3,24 -41,39 -53,17 -61,28 -56,77 5,48 3,50 -67,65 -62,13 -73,26 -73,81 0,75 -4,83 -46,83 -79,0 -94,27 -56,109 11,25 20,57 20,72 0,15 5,33 11,41 25,31 180,104 224,104 27,0 54,-25 68,-64 8,-23 12,-26 41,-26 18,0 88,-18 155,-40 68,-23 135,-41 150,-41 27,0 54,23 82,71 11,19 20,27 37,27 23,0 28,-9 51,-94 21,-81 21,-100 -7,-110 -22,-8 -37,-37 -37,-72l0 -21 13 18c29,40 88,2 83,-54 -1,-26 1,-30 31,-46 19,-10 66,-41 105,-68 38,-28 74,-51 77,-51 15,0 67,-69 92,-119 35,-75 32,-94 -19,-132 -24,-18 -51,-41 -60,-52 -14,-17 -13,-17 13,3 15,12 44,28 63,35 19,8 43,24 52,37 26,37 53,32 73,-13 9,-20 35,-67 58,-103l42 -67 -5 -64c-4,-63 -4,-63 15,-63 11,0 38,-8 61,-17 32,-13 48,-14 75,-9 44,9 171,0 187,-13 10,-9 17,-54 32,-37 24,25 46,25 76,2 17,-14 33,30 73,31 35,1 54,-3 64,-12 20,-17 46,-9 95,30 45,36 47,39 31,60 -9,13 -13,13 -42,3 -18,-7 -32,1 -61,-2 -29,-2 -62,-4 -87,-11 -78,36 -85,2 -95,10 -7,13 -7,42 2,52 18,20 86,8 143,26l49 15 -48 14c-26,8 -55,22 -63,30 -36,36 -9,59 83,73 38,6 72,13 76,17 5,4 14,7 21,7 8,0 21,7 30,17 20,23 94,59 169,85 76,25 147,27 212,5 24,-9 64,-18 89,-22 41,-4 45,-4 104,36 102,66 158,74 202,25 20,-22 22,-23 27,-10 11,26 8,66 -6,92 -26,46 -191,145 -299,180 -71,23 -158,72 -202,114 -28,26 -46,64 -56,110 -8,44 -7,51 6,69 21,29 52,34 145,23 101,-10 110,-6 150,62 14,25 34,52 45,59 26,17 97,19 133,4 22,-9 29,-9 45,2 18,11 19,16 13,56 -3,24 -6,88 -6,144 -1,106 -3,112 -47,170 -31,41 -36,77 -14,107 7,10 33,39 58,64 52,49 49,48 153,26 23,-5 72,-10 110,-12 38,-1 77,-2 87,-2 28,-1 64,-39 97,-103 53,-102 102,-140 203,-163 80,-17 186,-49 225,-67 139,-64 204,-101 204,-121 0,-3 5,-18 12,-32 12,-25 15,-27 43,-21 16,3 47,12 67,20 42,15 135,27 261,35l87 4 30 -34c16,-18 31,-41 31,-52 1,-21 1,-14 -5,-76 -6,-45 -4,-51 13,-67 15,-14 25,-17 46,-13 17,3 29,0 38,-9 16,-17 16,-16 -3,-56 -17,-33 -69,-72 -110,-83 -23,-6 -98,15 -159,43 -34,16 -47,19 -57,12 -7,-5 -28,-19 -48,-31 -34,-21 -36,-21 -69,-8 -19,8 -48,26 -63,40 -32,30 -55,42 -102,55 -33,10 -35,9 -162,-23 -32,-8 -71,-48 -71,-73 0,-13 6,-37 13,-55 29,-83 10,-131 -67,-169 -30,-15 -68,-40 -84,-55 -43,-40 -83,-74 -92,-74 -3,0 -6,-27 -6,-59 0,-33 -4,-64 -9,-69 -6,-6 8,-10 49,-12 51,-4 62,-8 108,-42 54,-38 105,-63 129,-63 23,0 56,-36 61,-68 5,-25 9,-28 21,-21 8,5 28,8 45,8 23,0 31,-4 43,-25 7,-13 19,-24 26,-24 7,0 38,-19 69,-41 117,-82 179,-106 282,-106 62,0 72,-2 86,-17 8,-10 26,-23 40,-30 37,-20 170,-75 181,-75 6,0 24,9 40,20 33,22 48,25 80,12 21,-8 33,-27 58,-99 14,-38 15,-38 56,-42 119,-12 144,-20 176,-56 49,-56 65,-67 117,-78 66,-12 173,-13 225,-1 73,17 118,-11 132,-82 4,-23 14,-53 21,-67 11,-21 11,-29 3,-45 -15,-27 1,-223 20,-239 6,-4 50,-13 98,-20 126,-16 159,-41 195,-145 30,-87 26,-84 93,-68 44,11 85,13 191,11 129,-3 135,-4 172,-25 44,-27 72,-75 72,-128 0,-24 5,-42 20,-61 22,-29 45,-94 45,-128 0,-15 -7,-24 -21,-31 -18,-8 -21,-13 -17,-32 16,-68 16,-77 -7,-134 -42,-113 -47,-120 -67,-125 -17,-5 -19,-8 -14,-35 13,-71 13,-71 56,-73 63,-4 119,-48 119,-95 0,-39 -18,-51 -55,-38 -23,9 -33,9 -47,1 -22,-12 -73,-79 -64,-84 4,-3 27,-10 52,-16 50,-15 68,-31 106,-95 13,-25 34,-51 44,-60 47,-36 45,-138 -4,-194l-23 -28 28 -31c16,-17 28,-38 28,-48 0,-25 -47,-64 -78,-64 -25,0 -76,31 -101,59 -5,8 -13,14 -18,14 -8,0 -80,-94 -80,-104 0,-4 -13,-21 -27,-38 -25,-27 -30,-31 -76,-32 -56,-4 -74,-12 -123,-57l-35 -32 -66 14 -66 15 -29 -29c-16,-17 -34,-30 -40,-30 -6,0 -23,-15 -37,-33 -25,-32 -28,-33 -75,-33 -61,0 -96,-17 -134,-64 -43,-55 -58,-66 -88,-66 -40,0 -61,30 -61,89 -1,25 -6,54 -11,65l-11 19 -15 -20c-9,-10 -44,-41 -79,-66 -35,-26 -72,-59 -85,-74 -24,-30 -52,-97 -52,-126 0,-12 -11,-26 -36,-44 -27,-18 -41,-37 -55,-69 -24,-54 -39,-60 -97,-33 -25,11 -61,28 -83,38 -21,9 -58,21 -81,26 -24,5 -74,19 -113,32 -83,29 -131,31 -174,7 -35,-19 -77,-16 -95,5 -6,6 -12,12 -15,12 -4,0 -16,-24 -29,-53 -13,-31 -35,-64 -52,-78 -27,-24 -31,-25 -70,-20 -23,3 -64,8 -90,8 -33,2 -56,9 -71,20 -13,10 -26,17 -29,16 -7,0 -50,-53 -95,-115 -32,-43 -37,-81 -15,-109 25,-32 21,-69 -15,-147 -18,-38 -33,-74 -33,-80 0,-6 7,-17 16,-25 9,-8 17,-21 17,-30 0,-14 -44,-56 -59,-56 -5,0 -25,-8 -43,-17 -38,-19 -50,-37 -58,-90 -8,-45 -31,-56 -85,-37 -59,21 -107,18 -162,-11 -68,-35 -135,-50 -175,-40 -45,12 -55,2 -44,-45 7,-29 6,-44 -5,-70 -7,-19 -9,-34 -5,-37 12,-8 8,-47 -7,-70 -8,-13 -29,-35 -46,-49l-31 -27 71 -34c79,-39 93,-53 94,-90 0,-21 -12,-38 -65,-93 -61,-66 -100,-126 -111,-177 -3,-13 -8,-37 -11,-56 -6,-35 -67,-132 -106,-170 -26,-24 -119,-62 -154,-62 -12,0 -31,8 -43,17 -27,21 -32,20 -101,-12 -76,-37 -117,-39 -145,-6l0 0z"/>
 </g>
</svg>
